<svg data-code="RU-BRY" xmlns="http://www.w3.org/2000/svg" viewBox="0 0 155.25 149.61">
    <g data-code="brjanskaja_oblast_" data-title="brjanskaja_oblast&amp;apos;">
      <path data-code="brasovskij_rajon" data-title="brasovskij rajon" class="cls-1" d="M92.13,111.12h1l.5-1,2,.5v-3l3.5-.5v-1.5l2,.5,1,1,1-1,2.5-.5,5-2.14.5,1.14,3.5.5,1,1.86,1.5-2,2.5,2,3-3,.5,2.5,2-.5.5.14.5,3,1.5-.5.5,2-.5,1.5,1.5,1.5-2.5,2v1l2.5.5v1.5l-2.5.5-2.5-1-1,1-.5,2.5-1.5.5-4,4-5.5-4-3-4.5-2.5-1h-2l-2-2.5-8-1-2-2"/>
      <path data-code="brjansk" class="cls-1" d="M127.63,62.12l1,1-1-1,2-.5.5,1.5,3.5-.5-2,2-.5,2,1.5-1,.5,1.5-1,.5,1,2.5-.5,1,2.5,1.5v3l-3.5-2-1,1.5h-2l-.5-3.5-1.5-1,2-1.5v-1.5l-2-4,1-1.5"/>
      <path data-code="brjanskij_rajon" data-title="brjanskij rajon" class="cls-1" d="M125.12,57.49l1,1,1.5-.5-1-1.5h-1l-.5,1ZM127.62,62.12l-1,1.5,2,4v1.5l-2,1.5,1.5,1,.5,3.5h2l1-1.5,3.5,2v-3l-2.5-1.5.5-1-1-2.5,1-.5-.5-1.5-1,1h-.5l.5-2,2-2-3.5.5-.5-1.5-2,.5,1,1-1-1M114.62,49.49l2.5,2-.5,1,2,1,.5,2.5,1,.5,2.5-3,.5,1,2.5-2,1.5-3,4-.86-1-1.14,1.29-1.8.72,1.43-1,1.5,2,.5-.5,1.5,1.5.5h4v1l-.5-.5v1l-2,.5-1.5,1.5,3-1v1.5l3,2-1,.5.5,1-2,2-1.5-.5.5,1h1l2.5.5-1,4.5,1,.5,1-1,1,.5-.5-3,2,1.5,1,1.5-1,3.5,5.5,4.5h1.5l-1,1.5,1.5.5-2.5,4.5h2.5v1h-3.5l.5-1-6.5-.5-4,1.5-1.5-.5-4.5,1.5-.5-1.14-3.5-1.5-3.5,1-4.11-1.5,3.11-4-5-2,.5-1,.5,1h1l1-2.5h-2v-6l-3.5-3.5.5-1h1v-3.5l-5-1.5.5-3-.5-.5,1-.5.5-1-.5-1.5,1.5.5Z"/>
      <path data-code="djat_kovskij_rajon" data-title="djat&amp;apos;kovskij_rajon" class="cls-1" d="M136.63,61.12l.5.5.5-1h-.5l-.5.5M139.13,59.62v1.5l1.5-1h1l-.5-1.5-2,1M140.62,23.99l-.5,1.5,5.5.64v1.5l-1,.5,1,.5,7.5,1-1,3-1.5,2,1,1-1,1h1.5l-.5,4.5-1.5,2,1.5,1v1.5l-1,1v1.5l1,2-1.5,1.5-1-.5.5,2-1,2-.5-.5-2,2.5,1,.5-2,2v3l-1,.5-.5,1.5-2-1.5.5,3-1-.5-1,1-1-.5,1-4.5-2.5-.5-.5.5h-.5v-.5l-.5-1,1.5.5,2-2-.5-1,1-.5-3-2v-1.5l-3,1,1.5-1.5,2-.5v-1l.5.5v-1h-4l-1.5-.5.5-1.5-2-.5,1-1.5-2-4,1-2,2.5,2,.5-2.5-1-1h3l-.5-1.5,2-2-2-2,.5-2-.5-1,.62-1.36,1.38-.28.5,1,1.5-1v-1l-1.5-1,1.5-4,1,.5Z"/>
      <path data-code="dubrovskij_rajon" data-title="dubrovskij rajon" class="cls-1" d="M104.63,17.62l1.5.5-.5-1,1.5-.5v-1l1.5,1v-.5l.5-1,2,.5,2-1,3.5,2,1-3,.5-.5v-1.5l2,2,3.5-1-.5,3,1.5,1-1.5,1v1l2,.5-.5,4.5,1.5,1.5.5,3.5-1,1.5,3,1.5-.5,2.5-4.5-1-1,1,.5.5-2,3-.5-2-1.5.5.5-1h-2.5l-.5,2-1.5.5v1.5l-2.5-2-2,1-1-2.5.27-1.52.73-.48-1-.5,1-1.5-1.5-4.5-.5.5v-2.5l.5-.5-2.5-1,1.5-1-4-2.5.5-2.5"/>
      <path data-code="fokino" class="cls-1" d="M139.13,59.62l2-1,.5,1.5h-1l-1.5,1v-1.5M136.63,61.12l.5-.5h.5l-.5,1-.5-.5"/>
      <path data-code="gordeevskij_rajon" data-title="gordeevskij rajon" class="cls-1" d="M30.63,26.62l1,.5.5-1.5,2-.5.5-2,3-2.5v-1.5l.5,1.5h1l1-2,1,.5,2-2h1l-.5-1.5,2.5-.5,3,4-1,.5.5,1,3.5,1,1.5,3.5-1.5,5-1.5,1.5-1.5,2.5v1l-3-2-3.5,1-2.5-1-.5,1.5h-1l-2-1.5-.5,1.5-1.5,1-5-2-3,3-1-1,1-.5v-3l1.5-2h1.5l1.5-1-.5-2.5"/>
      <path data-code="gorodskoj_okrug_starodub" data-title="gorodskoj okrug starodub" class="cls-1" d="M50.62,67.99l1.5-1v-.5h.5l.5,3-1,1-.5-.5-1.5,1,1-1-.5-1.5-1,.5.5,1h-1l1-4,.5,2Z"/>
      <path data-code="karachevskij_rajon" data-title="karachevskij rajon" class="cls-1" d="M130.62,85.99l-1-.5,2-2.86,4.5-1.5,1.5.5,4-1.5,6.5.5-.5,1h3.5v-1h-2.5v-1l2.5-3.5,1.5.5,2,3-1,1,1,1.5v1l-1,1,1,2.5-1.5,1-.5-.5-1.5,2v2l-1.5.5.5.5-2,2,1.5,1-1,1.5,2.5,1.5v1.5l-.5,1.5,1,1-3,.5.5,1-1,1-1-.5-1.5,1-1.5-2.5-2.5,1.5-.5,1-1-1.5-1,.5-.5-2-1.5.5-.5-2-.5,1-1-.5-1.5,2-1.5-2.5v1l-1-1-1.5.5v1.5l-1-.46-.6,1.02,1.1-3.7,1-.5-1-1.5-1.5,1h-2v-1l1-.5v-2.5l2-1v-1l-2-3,1-1.5,1-.5-1-.5-.5-1h3.5Z"/>
      <path data-code="kletnjanskij_rajon" data-title="kletnjanskij rajon" class="cls-1" d="M85.13,24.12l2-.5v-1l1-1v1.5h1.5l.5-1,2.5,2.5,2-1-.5-2h2l-1.5-1,.5-.5,2.5-.5,1-1.5,1.5-1,1.5.5.5-1,3.5.5.5,1-1.5-.5-.5,2.5,4,2.5-1.5,1,2.5,1-.5.5v2.5l.5-.5,1.5,4.5-1,1.5,1,.5-1.5,1-.5,1,1,.5-1,.5v-1.5h-1.5l1,1-1,1.5,1,3.5-1,1v1h-.5l2,1-.58.58-3.42-2.22-4,4.5-1-.5-2.5,2,.5,1.5-10.5-3.36.5-5-1-3,1-1.5-3.5-1.5v-2l2-1.5-1.5-2.5,1-1-1.5-1.5,1-3"/>
      <path data-code="klimovskij_rajon" data-title="klimovskij rajon" class="cls-1" d="M4.13,65.12l2,.86,1.5,2.5,3-3.5,1,1,.5-1.5,4.5,2,.5-4,2-1-.5-1,2,.5,1-1h.5v-1.5l2,1,2-1.5,2-.5,1.5-1.5,1,.64-.5,2,4,1.5.53,4.96.47.04v-2.5l.5-.5,3.5,3v5.5l-3,2.5,1,1.5h-3l-2.5,1.5-2-3.5-1.5-.5-2,3,1,.5-1,.5-.5,1.5-1.5-1-2,.5-1,2.5-2,1.5,1,1-1.5-.5-2.5,1-3-.5-1.5.5-1.5-1.5-1.5,1-1-1-.5.5-3.5-4.5-2-.5,3-.5-.5-3.5-3-1.5-.5-1.5,1-.5,2.5-4"/>
      <path data-code="klincovskij_rajon" data-title="klincovskij rajon" class="cls-1" d="M40.63,43.62v1.5l1.5.5h-.5v1l-1-.5v.5l-1,.5,1.5-.5-.5,1,1.5,2.5h2.5l1-3-1.5-1.5.5-1-1-1-1.5,1.5-1.5-1.5M27.13,36.12l2.5-2.5,5,2,1.5-1,.5-1.5,2,1.5h1l.5-1.5h1.5l1,1,3.5-1,3,2v-1l2.5,3-.5,2.5-.5.5,1.5,1.5v1.5l1,1,2.87-.85-.38.71-2,.64,1,2.5-1,1-.5-1-.5,1-1-1-1.5,3.5,1,.5-.5,3,1,.86-.93,1.54-2.57-1.54.5-2.5-2.5.5-1,5-1.5,1.5.5,2.5-2,2-1.5-2-2.38,2.38-2.62-2.24-.5.5v2.5l-.47-.04-.53-4.96-4-1.5h4l.5-2.5h2l-1.5-1.5,1-3-1.5-1,1.5-1-1-1v.5l-1,.5-1.5-1,.5-.5v-1l-2-3.5-2,.5,1.5-2.5-3.5-2-.5-.5,2-1.5.5-1.5h-2"/>
      <path data-code="klincy" class="cls-1" d="M40.63,43.62l1.5,1.5,1.5-1.5,1,1-.5,1,1.5,1.5-1,3h-2.5l-1.5-2.5.5-1-1.5.5,1-.5v-.5l1,.5v-1h.5l-1.5-.5v-1.5"/>
      <path data-code="komarichskij_rajon" data-title="komarichskij rajon" class="cls-1" d="M92.13,111.12l2,2,8,1,2,2.5h2l2.5,1,3,4.5,3.34,2.43-1.84,1.57h-2.5l-.5,1.5-2.5,1.5v2l1.5,1-1.5,1v1l1.5.5-5.5,2.5-1-.5.5,2-3,2-4-2,1-1-.5-1.5-3,.5v-2.5l1.5-.5-.5-1.5h.5l.5-2.5,1.5-1v-1.5l-1-.5.5-1.5h-2.5l-2,1.5-1.5-.5.5-1.5,1.5-1v-1l-2-.5v-2.5l2,.5,2-2.5-2.5-1.5-1.5-3.5,1.5-1.5Z"/>
      <path data-code="krasnogorskij_rajon__brjanskaja_oblast_" data-title="krasnogorskij_rajon_(brjanskaja_oblast&amp;apos;)" class="cls-1" d="M25.13,6.62l1.5-.5,2,2,2.5-2.5,2,1,.5-.5v-2l.5-1,3-.5,1.5-2,3.5,5,4-.5,2.5,6.5-2,4h-3l.5,1.5h-1l-2,2-1-.5-1,2h-1l-.5-1.5v1.5l-3,2.5-.5,2-2,.5-.5,1.5-1-.5.5,2.5-1.5,1h-1.5l-1.5,2-3-2.5,1.5-2v-3.5l1.5-1-1.5-1.5-.5-2.5v-4l1.5-1,.5-2.5-1.5-5"/>
      <path data-code="mglinskij_rajon" data-title="mglinskij rajon" class="cls-1" d="M75.12,31.99l1.5-1.5h1l1,2,2.5-.5v-1.5l1.5-.5-1-1,3-.5-.33-1.19,1.33,1.33-1,1,1.5,2.5-2,1.5v2l3.5,1.5-1,1.5,1,3-.5,4.86-2,4.5v2.5l-.5.5-4-2-1.5,1.5-.5,1-6.5,1.14-3.5-3,2.5-4.14-2,.5v-2l-2,.5-3-.36.5-2.5-2,.36,1-2,1,.5.5-1h3l.5-1,1,.5v-1h1.5l-1-2-.5-2.5,1.5-2.5v-.5l4-1.5Z"/>
      <path data-code="navlinskij_rajon" data-title="navlinskij rajon" class="cls-1" d="M102.62,80.49h.5l.5-1,.5,1,1-1.5h1l1-1.5,1,1.5,3,1,1-.5-.5-1,3-1v1.5l1.5-2,3.5,3,.39-.5,4.11,1.5,3.5-1,3.5,1.5.5,1.14-2,2.86,1,.5h-3.5l.5,1,1,.5-1,.5-1,1.5,2,3v1l-2,1v2.5l-1,.5v1h2l1.5-1,1,1.5-1,.5-1,3.5h-.5l-.5-.5-1-.5,1,.5-1.5,4-.5-.5-2,.5-.5-2.5-3,3-2.5-2-1.5,2-1-1.86-3.5-.5-.5-1.14-5,2.14-4-2.64,2.5-2-1-3-6.5.5.5-2-1.5-2.5,2.5-1-1.5-1.5,1-3.5h1.5l1-2.5,2-.5.5.5h-1l.5,1h1v-1l2,.5-2.5-1h-1.5l-2.5-2.5,3,1.5v-2l1.5-1-.5-.5"/>
      <path data-code="novozybkov" class="cls-1" d="M24.12,46.99l1.5,1-.5.5,2,.5-.5.5h-1.5l.5.5-.5,1.5.5.5-1,.5.5,1-4-1.5,2-.5-1.5-1.5h2l-.5-.5,1-2.5"/>
      <path data-code="novozybkovskij_rajon" data-title="novozybkovskij rajon" class="cls-1" d="M24.12,46.99l-1,2.5.5.5h-2l1.5,1.5-2,.5,4,1.5-.5-1,1-.5-.5-.5.5-1.5-.5-.5h1.5l.5-.5-2-.5.5-.5-1.5-1M18.12,30.99l2.5,1,4-2,2,2.14v3l-1,.5,1,1,.5-.5h2l-.5,1.5-2,1.5.5.5,3.5,2-1.5,2.5,2-.5,2,3.5v1l-.5.5,1.5,1,1-.5v-.5l1,1-1.5,1,1.5,1-1,3,1.5,1.5h-2l-.5,2.5h-4l.5-2-1-.64-1.5,1.5-2,.5-2,1.5-2-1v1.5h-.5l-3-3.5.5-2-2-1.5,1.5-2.5-3-2-.5-.5,1-1-1.5-1h.5l1-1.5-.5-1.5,2-.5-1.5-1-.5-3.5,2-2,.5-5"/>
      <path data-code="pochepskij_rajon" data-title="pochepskij rajon" class="cls-1" d="M80.62,51.99l4,2,.5-.5v-2.5l2-4.5,10.5,3.5-4.5-.5-1.5,3-.5,2,2.5,1v-1l2-.5-.5,2,2.5.5,1.5,6.5,3,1.5.5,2-2,1.5-1-1.5-.5,3.5h1v2l.5-1,1,.5v-1,1l-1,.5,1,2-2.5.5v1.5h-1.5l1,1.5-2.5,3-2.5-1-3,1-.5-1.5-3,2,1,1-.5,3h-1v-1.5h1l-.5-1.5h-.5l-.5,1.5h-1.5l-.5-1.5-1,1-1-2-.5,2.5-1.5-2-1-.5-1.5,1.5v-1.5l-1.5,1-.5-.5v-1h1l-1-.5.5-.5-1.5-1,1.5-1.5-.5-1,1-.5h-3l1-2-2-1-1.5,1-.5-1,1.5-1-1-.5,1-.5-1-2,2.5-3,4-2.5-1-2,1.5-1,.5-1v-2.5l1,.5,1-2-1.5-1.5,1.5-1.5Z"/>
      <path data-code="pogarskij_rajon" data-title="pogarskij rajon" class="cls-1" d="M47.12,82.49l3-1.5,4,1,.5-2,1.5-1v-4.5l3.5,1.5,1-1.5,2.5-1.5v-.5h5l1.5-1-1-1.5,1.5-1.5h1l1,2-1,.5,1,.5-1.5,1,.5,1,1.5-1,2,1-1,2h3l-1,.5.5,1-1.5,1.5,1.5,1-.5.5,1,.5h-1v1l.5.5,1.5-1v1.5l-1.5-.5-2.5,1,1,1-1,2-1.5,1v.5h-3l-1,2.5-2,1-.5-.5-.5.5,1,.5-1.5,1.5v4l-1,.5,1,1.5-1.5-1.5h-1v1l-1-3.5-3-.5-2.5-4.5h-1l-1,1.5-1-1-4,1,1-1.5v-.5l-1.5,1-2.5-.5,3-1.5-1-2-1.5-1,1.5-1.5-.5-1.5"/>
      <path data-code="rognedinskij_rajon" data-title="rognedinskij rajon" class="cls-1" d="M122.62,9.49l1-1h2.5l-.5-1.5,1-.5,1.5.5v2l1.5.5,3.5-1v-1h.5l.5-.5,2.5,1v1l3.5-.5-.5,1,3.5,2.5v2.5l2,2-2.5,2,.5,1-1-.5-1.5,2.5,1.57,4.24-2.07-.24.5-1.5-1-.5-1.5,4,1.5,1v1l-1.5,1-.5-1-2.5.5-.5,1-1-1v1.5l-2-.5-1,1.5.5,1h-1l-1.5-1.86-3-1.5,1-1.5-.5-3.5-1.5-1.5.5-4.5-2-.5v-1l1.5-1-1.5-1,.39-2.36-1.4-.77.5-.5-.5-1,1-.5-.5-1"/>
      <path data-code="sel_co" data-title="sel&amp;apos;co" class="cls-1" d="M125.62,56.49h1l1,1.5-1.5.5-1-1,.5-1"/>
      <path data-code="sevskij_rajon" data-title="sevskij rajon" class="cls-1" d="M69.12,128.49h2l.5-1.5,1.5-.5,2.5,2.5h1.5l-.5-1.5,4.5-1,.5-.5v-2l2-2,2.5,2.5,2.5-1.5v2l3-1.5,1,.14-1.5,1-.5,1.5,1.5.5,2-1.5h2.5l-.5,1.5,1,.5v1.5l-1.5,1-.5,2.5h-.5l.5,1.5-1.5.5v2.86l-.5,2,.5,1-1.5,1.5.5,1-1.5,1.5-2.5.5-1-1.5-2,.5-1-.5-.5-3-7,.5-1.5,2h-3.5l1.5,3.5h1.5l-1,1.5-3-.5-1.5,2-.5-4.5-2-1,1.5-1.5-1-1.5,1.5-3.5-1.5-1v-1l1-1-1-1,1.5-2,1-2-1-.5"/>
      <path data-code="starodubskij_rajon" data-title="starodubskij rajon" class="cls-1" d="M50.12,65.99l-1,4h1l-.5-1,1-.5.5,1.5-1,1,1.5-1,.5.5,1-1-.5-3h-.5v.5l-1.5,1-.5-2M46.12,52.99l2.5-.5-.5,2.5,2.57,1.54-.57.96,1,2-.5.5.5.5,2-1,1,1,1-1.5,1.5,1v-1l1.5-1,.5,4,2,1,1.5,3h1.5l.5-1,1.5-1.5,2.5.5.5.5-1,2,2.5,2-1.5,1.5,1,1.5-1.5,1h-5v.5l-2.5,1.5-1,1.5-3.5-1.5v4.5l-1.5,1-.5,2-4-1-3,1.5.5,1.5-1.5,1.5,1.5,1,1,2-3,1.5-.5,1-1-.5h-3l-.5-.5,1-1.5-1.5-1.5-1,.5-2-1,.5-1-2.5-.5-.5-5-1-.5v-2.5l-1.79-.99,2.29-1.37h3l-1-1.5,3-2.64v-5.36l-.88-.76,2.38-2.38,1.5,2,2-2-.5-2.5,1.5-1.5,1-5"/>
      <path data-code="surazhskij_rajon" data-title="surazhskij rajon" class="cls-1" d="M56.12,26.49l1-1,1,2,1.5-1.5,2,1.5h1.5l2.5-2,2,1.5,5-2,2.5-1.5v-1l1,.5-.5.5,3.5,1,1.5-1,3.5,3,.5,2-3,.5,1,1-1.5.5v1.5l-2.5.5-1-2h-1l-1.5,1.5-4,1.5v.5l-1.5,2.5.5,2.5,1.5.5-.5,1.5h-1.5v1l-1-.5-.5,1h-3l-.5,1-1-.5-1,2-5-1.5-.5-1.5h-.5l-.62,1.29-2.87.85-1-1v-1.5l-1.5-1.5.5-.5v-2.64l-2-2.86,1.5-2.5,1.5-1.5,1.3-4.76,2.7,1.12Z"/>
      <path data-code="suzemskij_rajon" data-title="suzemskij rajon" class="cls-1" d="M77.62,100.49v1l3,.5.5,2,7,3.5,2.5-3.5-1-1,1.5.5,2-3,1,.5,2.5-2.5,6.5-.5,1,3-2.5,2,4,2.64-2.5.5-1,1-1-1-2-.5v1.5l-3.5.5v3l-2-.5-.5,1h-1l-1.5,1.5,1.5,3.5,2.5,1.5-2,2.5-2-.5v2.5l2,.5v1l-4,1.36v-2l-2.5,1.5-2.5-2.5-2,2v2l-.5.5-4.5,1,.5,1.5h-1.5l-2.5-2.5,1-.5-.5-3.5.5-.5.5-1-1-1,.5-2-1-2.5,1.5-1.5.5-2-2-3h1l1-2-1.5-1.5,4-5Z"/>
      <path data-code="trubchevskij_rajon" data-title="trubchevskij rajon" class="cls-1" d="M65.62,90.49l.5.5,2-1,1-2.5h3v-.5l1.5-1,1-2-1-1,2.5-1,1.5.5,1.5-1.5,1,.5,1.5,2,.5-2.5,1,2,1-1,.5,1.5h1.5l.5-1.5h.5l.5,1.5h-1v1.5h1l.5-3-1-1,3-2,.5,1.5,3-1,2.5,1,.72-.93,1.28.43.5,2.5,2.5,2.5h1.5l2.5,1-2-.5v1h-1l-.5-1h1l-.5-.5-2,.5-1,2.5h-1.5l-1,3.5,1.5,1.5-2.5,1,1.5,2.5-.5,2-2.5,2.5-1-.5-2,3-1.5-.5,1,1-2.5,3.5-7-3.5-.5-2-3-.5v-1l-4,5-3.5-2-3.5-1-2,1-.5-1.5-.5,1.5-1.5-2.5,2.5-1.5-1-2,1-.5v-4l1.5-1.5-1-.5.5-.5"/>
      <path data-code="unechskij_rajon" data-title="unechskij rajon" class="cls-1" d="M55.62,43.99l1-2h.5l.5,1.5,5,1.5,2-.36-.5,2.5,3,.36,2-.5v2l2-.5-2.5,4.14,3.5,3,6.5-1.14.5-1,1.5,1.5-1,2-1-.5v2.5l-.5,1-1.5,1,1,2-4,2.5-2.5,3h-1l-2.5-2,1-2-.5-.5-2.5-.5-1.5,1.5-.5,1h-1.5l-1.5-3-2-1-.5-4-1.5,1v1l-1.5-1-1,1.5-1-1-2,1-.5-.5.5-.5-1-2,1.5-2.5-1-.86.5-3-1-.5,1.5-3.5,1,1,.5-1,.5,1,1-1-1-2.5,2-.64Z"/>
      <path data-code="vygonichskij_rajon" data-title="vygonichskij rajon" class="cls-1" d="M98.62,60.99h1l.5-1,1.5,1,2.5-2,1,1,2-1.5,1.5,2-.5,1,2,.5,2-1.5,1.5,2,2-1,3.5,3.5v6h2l-1,2.5h-1l-.5-1-.5,1,5,2-3.5,4.5-3.5-3-1.5,2v-1.5l-3,1,.5,1-1,.5-3-1-1-1.5-1,1.5h-1l-1,1.5-.5-1-.5,1h-.5l.5.5-1.5,1v2l-3-1.5-.5-2.5-1.28-.43,1.78-2.07-1-1.5h1.5v-1.5l2.5-.5-1-2,1-.5v-1,1l-1-.5-.5,1v-2h-1l.5-3.5,1,1.5,2-1.5-.5-2-3-1.5-.5-2"/>
      <path data-code="zhirjatinskij_rajon" data-title="zhirjatinskij rajon" class="cls-1" d="M92.62,50.49l.5-1,4.5.5-.5-1.5,1.5-1.5,1-.5,1,.5,3-4.5h1l3.42,2.22,2.08,3.78,3,.5.5,1.5-.5,1-1,.5.5.5-.5,3,5,1.5v3.5h-1l-.5,1-2,1-1.5-2-2,1.5-2-.5.5-1-1.5-2-2,1.5-1-1-2.5,2-1.5-1-.5,1h-1l-1-4.5-2.5-.5.5-2-2,.5v1l-2.5-1,.5-2,1-2"/>
      <path data-code="zhukovskij_rajon__brjanskaja_oblast_" data-title="zhukovskij_rajon_(brjanskaja_oblast&amp;apos;)" class="cls-1" d="M108.63,35.12v1.5l1-.5-1-.5.5-1,.78-.52-.27,1.52,1,2.5,2-1,2.5,2v-1.5l1.5-.5.5-2h2.5l-.5,1,1.5-.64.5,2,2-2.86-.5-.5,1-1,4.5.86.5-2.36,2.5,1.86-.5-1,1-1.5,2,.5v-1.5l1,1,.5-1,1.12-.22-.62,1.36.5,1-.5,2,2,2-2,2,.5,1.5h-3l1,1-.5,2.5-2.5-2-1,2,1.28,2.57-1.29,1.8,1,1.14-4,.86-1.5,3-2.5,2-.5-1-2.5,3-1-.5-.5-2.5-2-1,.5-1-2.5-2-4.5-1-2.08-3.78.58-.58-2-1h.5v-1l1-1-1-3.5,1-1.5-1-1h1.5Z"/>
      <path data-code="zlynkovskij_rajon" data-title="zlynkovskij rajon" class="cls-1" d="M12.12,41.99l1,1,2.5-1,.5,2.5-1,1.5h-.5l1.5,1-1,1,.5.5,3,2-1.5,2.5,2,1.5-.5,2h1l1.5,2,.5,1.5-1,1-2-.5.5,1-2,1-.5,4-4.5-2-.5,1.5-1-1-3,3.5-1.5-2.5-2.5-.5-2-2.5,1.5-.5,1.5-3h1l-1.5-3.5v-3l1.5,1,3.5-3.5.5-1.5-1-.5,2-1.5-.5-1,3-1-.5-1h-1l.5-2"/>
    </g>
</svg>