<svg data-code="RU-ALT" xmlns="http://www.w3.org/2000/svg" viewBox="0 0 351.75 277.75">
    <g data-code="altajskij_kraj" data-title="altajskij kraj">
      <path data-code="alejsk" class="cls-1" d="M175.12,144.62l2.5-1.5-1.5-1,1-1.5-.5-.5h2.5l1-1.5-.5-1.5,1,1.5.5,1.5-.5,1,.5.5-2,1v1.5l-.5-1v1.5h-3.5"/>
      <path data-code="alejskij_rajon" data-title="alejskij rajon" class="cls-1" d="M175.12,144.62h3.5v-1.5l.5,1v-1.5l2-1-.5-.5.5-1-.5-1.5-1-1.5.5,1.5-1,1.5h-2.5l.5.5-1,1.5,1.5,1-2.5,1.5M148.62,128.12l16.5-10,2,3.5,1.5-1,3,5.5,2-1,2.5,1.5,1-3.5h4.5l.5-.5.5-2.5,2.5,3-.5,2,1,1.5-.5,3.5.5.5-.5,4,3,.5,4.5,11.5,4.5,8-4,8-1.5-.5-2,4-3-1-.5,1-1.5-1.5-1.5,1.5-.5-1-1,.5-1-1.5.5-1.5-1-1v-2l-1-1.5-5.5-1-4.5,2-4.5-6-6-11.5-2-2-1,1-2-1-2-2.5,2-1.5-1.5-5-2.5,1.5-1-4"/>
      <path data-code="altajskij_rajon__altajskij_kraj_" data-title="altajskij_rajon_(altajskij_kraj)" class="cls-1" d="M247.12,202.12l1.5-1v-2.5l1.5-1,1.5.5.5,2,4-.5-1-2h1.5l3-2.5,2-.5,1-1-1-1-.5-2,2-4-1.5-1.5.5-2-.5-2.5,1,.5,1-2h4.5l5.5-1.5v1l2,.5,5.5.5-.5,1.5h2.5v4l1.5,2-1,.5.5.5h2l5-3.5,1.5.5,1.5,3h2.5l-3.5,3.5v3l1.5,2.5-5,1.5-1,1.5,2,2-1.5,1v1.5l-3,4-2-2-2,3.5-4.5-.5.5,1.5-.5.5v3l-1.5,1.5-.5,2.5h-5.5l-.5,1.5h-1.5l-1,2-2,1h-1l-2-3.5-2,1-3-.5-2.5,1.5-.5-2.5-3-1.5,2-2.5-2-.5-.5-2.5-2-2.5-.5-2,.5-1.5-1.5-4"/>
      <path data-code="baevskij_rajon" data-title="baevskij rajon" class="cls-1" d="M86.62,57.62l6.5-1,2,3,2-1.5-1.5-2.5,1-1,3.5-1,4,2.5.5-2,11.5,7v1l-3,1,1,.5-1,1.5,2.5.5,1.5-1.5.5,1.5.5-.5,4,4.5-2,1.5,1.5,1-1,1.5h2l-1.5,1v1.5h-1.5l-.5,3,2,2,2,3v1.5l2,.5,1.5,3-1.5.5.5,1.5-1.5-.5-3,2-2.5.5-1-.5.5-1-1-1.5-3-1.5v1.5h-6l-.5,1,.5-1.5-1-3.5-4,.5-.5-.5-2.5,2.5h-2l-3-1-1-2-1.5.5-1.5-6.5-1-1.5v-2l-1,.5-2.5-2.5,1-5.5-1-2,2-.5-.5-2-2.5.5.5-1.5h1l-.5-5.5"/>
      <path data-code="barnaul" class="cls-1" d="M208.95,83.12l3.5-3-1.5-.5,1-1v-1.5l2,1,.5-1.5h1v-.5l1-1,3,2h3.5l-2,2.5.5,1,3-1,1.5,1.5-.5,1.5,3.5,1-1,2.5,1,1.5-1,2,1,1.5h-2l1.5,1.5v2l-.5,1-1.5-.5.5,2-1,.5,1,1.5-3,1,1,4-.5.5-1.5-.5-1.5-2h-3l-1-1.5v1l-1.5-.5.5-.5v-.5l-.5,1-1.5-1,1.5-1-1-.5.5-.5-2-2.5,2-1-1-3-2,.5v-1h-1.5l.5-1,.5-2.5-1-1.5v1l-2-.5,3-1v-2l-2.5.5-.5-1"/>
      <path data-code="belokurikha" class="cls-1" d="M255.83,189.37l.5-3.5,2-1-.5-1,4-.5v2l1.5,1.5-2,4,.5,2-1.5,1.5-1-.5,1.5-2.5-1-1.5.5-1h.5l-.5-1h-2.5l-1,2-1-.5"/>
      <path data-code="bijsk" class="cls-1" d="M258.12,154.62l2-1v-3l1.5-1.5,6.5,1,.5-3,1.5,1,2-2.5,1.5,2.5,3-.5,1.5,1.5,1.5.5-7.5,2.5-.5,3-3.5-1.5-2,3-7.5-.5-.5-1.5"/>
      <path data-code="bijskij_rajon" data-title="bijskij rajon" class="cls-1" d="M268.12,146.62h2.5l1-1.5-.5-1.5,1-.5-.5-2.5,1.5-1.5-.5-1.5,1-.5.5,1.5,3-2.5,1.5,2,1.5-1.5.5,1-1,1v1.5l4-.5v-2l1-.5,1,1,6.5-3,1.5-1.5,1-2h1.5v-1l4,1.5,5.5-1,2,2-1,.5,3.5,1.5-4.5,3.5,2,1-.5,2h.5l.5,2-1,1v1.5l-2,2-3,1v1l-1,1.5h1l-.5,4.5,2,1-1.5,4-1-.5-.5,1.5-5.5,2h-1l-.5-2h-1.5l-1.5-1.5-7.5-1-4.5-4.5-1.5.5-.5-1-3.5,1.5v2l-2.5-1.5-2,1v-1.5l1-2,2,1,.5-3,7.5-2.5-1.5-.5-1.5-1.5-3,.5-1.5-2.5-2,2.5-2-1.5"/>
      <path data-code="blagoveshhenskij_rajon__altajskij_kraj_" data-title="blagoveshhenskij_rajon_(altajskij_kraj)" class="cls-1" d="M52.12,87.12l2-4.5,4.5-5h2l4.5,3.5-.5-2-2.5-1.5h1l2,2,.5,1.5,4.5,2.5,2-5.5,4,1,4.5-1.5v2l-.5.5-.5,2.5h2.5v.5l8-1.5.5-2.5,2,7,1.5-.5,1,2,5,1-5,2,1.5,2.5,1,4.5,1.5,1,.5,3-2,1,.5,1.5-1,1.5-3.5.5-1.5-3h-2l-.5-1.5h-1.5l.5,2.5-2,1.5v2.5h-1l-.5,3.5-4,1-.5-3.5-2,.5h-1.5l-1,5h-1.5l-.5,1-5.5-1-.5-3-1,2.5-2,1h-2l-5.5,1.5-.5-4-2.5-.5-1.5-3.5-2-1-.5-2.5,1.5-.5.5-2h-.5l.5-4.5,3.5-1-3.5-5-.5-5"/>
      <path data-code="burlinskij_rajon" data-title="burlinskij rajon" class="cls-1" d="M.62,50.62l2,1.5,1.5-2-1.5-2.5.5-2,5.5,1,.5-2-5-3-.5-2,.5-2.5,7.5,1v-1l2,.5.5-2.5,1.5.5,1.5.5-1,4.5.5,3-1,.5,1,1,3.5,1.5v-.5h2.5v-1.5l3,.5.5-1h.5v1l2,1.5v-1l2.5.5,1-5-.5-4,3-.5.5,1.5,2-.5.5.5.5,2-1,1.5,2.5.5-1.5,3.5-1.5-.5-.5,1v2.5l5,1,1.5-1,1.5,3-1,.5.5,3,1.5-.5.5,1.5-2.5.5-1-2.5-3,1.5v.5l-1,.5.5,1-2,1-.5-1-5,2,.5,1h-2v1l-3,1,1.5,5-1,.5-.5-1.5-4.5,2v-1l-1-.5v2l-1-3-3.5-.5-1.5,7h2l1,2.5-2,.5v3.5l-3.5,1-1-1.5-3.5,1-2.5-6.5L.62,56.12v-5.5"/>
      <path data-code="bystroistokskij_rajon" data-title="bystroistokskij rajon" class="cls-1" d="M228.12,151.12l8.5-4.5,10-4,2,5.5,4.5-1.5.5,2.5,3-1,1,1.5-.5,5.5-3,.5h3.5l.5,1-.5,1,.5,1.5-2.5.5v1.5l-2.5,1.5h-2.5l1,2,2,3,2,6-5,3.5-9.5,1.5-2-2.5,1-2-2,.5-.5-9-4,.5-.5-1.5-2-2.5-.5-2.5,3.5-3-.5-2-3,1-.5-1.5-1,.5-1-3.5"/>
      <path data-code="celinnyj_rajon__altajskij_kraj_" data-title="celinnyj_rajon_(altajskij_kraj)" class="cls-1" d="M274.62,121.12l4-4,6.5,1,1-2,1-.5,1.5-5-5-2,3-6.5,3.5,2.5-1,1.5,1,.5,1.5-.5v-3l3-2,6,.5,1,1v1l1.5,3-1.5,1.5.5.5-1,.5,1,1h5v-1l1-.5,3.5-.5,1.5,2h1l1,1.5,1-.5,1,1.5-.5,1,4-.5v5l1,1.5v2.5l-1,4-10.5,5-1,3.5-2.5-1,1-.5-2-2-5.5,1-4-1.5v1h-1.5l-1,2-1.5,1.5-6.5,3-1-1-1,.5v2l-4,.5v-1.5l1-1-.5-1-1.5,1.5-1.5-2,1.5-4,1.5-1h-1l1-2-3-2,1-4.5-3.5-1.5"/>
      <path data-code="charyshskij_rajon" data-title="charyshskij rajon" class="cls-1" d="M172.12,237.62h5.5l3.5,1.5v-2l3.5-3-1-1v-3l2,1.5,1.5-3.5,2.5-3-2.5-1.5.5-6.5h1l.5-3.5,2,2-.5-3-3-4.5,3.5-2,2.5-8.5,2.5-5.5h1.5l1.5,2.5,4.5-3h2l2,1,1.5,1.5-.5,1,4,5.5-2,1,1,.5v.5l.5,1.5,1.5-1.5,1,2.5,1.5-1,1,1,1,1.5-1,1.5,1.5,1.5v3l3,3,2.5,6.5,1.5-.5-.5,2h-1.5v2l.5-.5,1.5,1-.5,3,1,1v3l-1,1.5-2,.5v1.5l-1,2.5-1,.5-1,5.5-1.5,2-1-3,1-2-5.5-1-.5.5.5,2-1,2.5,4,1.5-1,1,1.5,1,1.5-.5.5,2,3.5,2.5,3.5-1,1.5,2,5.5,3-2.5,2.5v3l4,1.5,1.5,2-1,.5-.5,2.5-2,.5-.5,3-1.5,2.5h-2l-1-2-6.5,2h-4.5l-2.5,1.5-1-3-3.5-5,2-3-3.5-3.5-1.5-3.5-5-1.5-1.5-4.5-4.5-1-1.5,1-.5-1v-1.5l-1.5-.5v-2l-10-.5-5-4-1.5,1-3.5-6,.5-1"/>
      <path data-code="egor_evskij_rajon__altajskij_kraj_" data-title="egor&amp;apos;evskij_rajon_(altajskij_kraj)" class="cls-1" d="M81.62,192.12l7.5-9-3-3,1-2-2.5-1.5,3-.5,12.5-16.5,2.5.5,3.5-1.5,9.5,9-2,2,2,1.5-3,4,2,2-1,1,.5.5-1.5,2,1,1-.5,1,1.5,1.5-.5.5-1.5-1.5-1,1,.5,1-2.5,3-1,1-1-.5-1,1.5-1-1-3,4-1,.5.5,1-2,1.5.5.5-1,1,1.5,1.5-1.5,3.5-2-1.5-2,3,1.5,1.5-1,1,1,1-1,2,1,.5-2,2-2.5-3.5v-1.5l-1-1,2-3.5-2.5-1.5-1.5,1-1.5-1.5,1-1.5-7.5-7"/>
      <path data-code="el_covskij_rajon" data-title="el&amp;apos;covskij_rajon" class="cls-1" d="M300.62,101.62l7.5-3h6l.5,2,1.5-.5,1-1.5-1-1,.5-4,3,.5,4.5-4.5v-1l2.5,2-.5.5,1,1-.5,1,.5,3h2l4-1,.5-8,4,1.5,4,3.5,1-1.5,4-1.5-.5,2-2.5,1v2.5l1.5.5-2,2.5,1,1-2,1.5v1.5l-1-.5-.5,2-2.5,2,.5.5-.5,1-.5-1-2,1-1-1.5-1,.5v5l2.5-1v3l2.5,1.5,2.5-1v2l-1.5,2.5-8,4h-4.5l-1.5-1-4,1.5v-2.5l-1-1.5v-5l-4,.5.5-1-1-1.5-1,.5-1-1.5h-1l-1.5-2-3.5.5-1,.5v1h-5l-1-1,1-.5-.5-.5,1.5-1.5-2.5-5"/>
      <path data-code="jarovoe" class="cls-1" d="M18.12,86.12l4.5-2.5-.5,1,2.5.5.5,1-1.5.5.5,1h-.5l-3-.5-1,3-1.5-4"/>
      <path data-code="kalmanskij_rajon" data-title="kalmanskij rajon" class="cls-1" d="M191.62,103.12l4-2.5.5.5,4.5-3h2l-.5-.5,2.5-1.5-.5-.5h3l7-4,1,3-2,1,2,2.5-.5.5,1,.5-1.5,1,1.5,1,.5-1-.5,1,1.5.5v-1l1,1.5h3l1.5,2-1,.5v1.5l-1,4,1,2.5,1.5,1.5v3.5l-3,.5,2,1-.5,3.5-2,.5,1.5.5v2l-3-.5-4-3-.5,1.5-2-1v.5l-2,.5-2.5-1.5-2.5,2-1.5-1.5-1,.5-3-3.5,1-1.5,2.5-1.5-3.5-2v-2l-1.5-.5-2-3-1-2.5-.5-1-2,1.5-.5-4"/>
      <path data-code="kamen_-na-obi" data-title="kamen&amp;apos;-na-obi" class="cls-1" d="M133.12,43.62l1-.5-.5-2.5,3,.5-.5.5,1.5,3-1,1,1,3-1,.5-.5-3-3-2.5"/>
      <path data-code="kamenskij_rajon__altajskij_kraj_" data-title="kamenskij_rajon_(altajskij_kraj)" class="cls-1" d="M133.12,43.62l3,2.5.5,3,1-.5-1-3,1-1-1.5-3,.5-.5-3-.5.5,2.5-1,.5M103.62,50.62l2-2.5,6-3,1.5,1,2.5-2,.5-2,.5-.5h3.5v2l1.5,1,2-1.5,2,1.5,1-1-.5-2,1.5-.5v1l3-1.5,1,1.5,1.5-1v-.5l1-.5v-1l1,1.5,1.5-.5v-1.5l-.5.5-.5-1,1-.5-1.5-3.5,1.5-6.5,2-2,1.5.5v-1l4.5-.5.5,4.5,3-.5-.5,1-2.5,7h1l4.5-4.5,1,.5,2,2.5,3-1,.5,3-1,.5v3.5l-5,1,1,2-1.5,2.5,3,4h-1l1,3,1.5-1.5h4l3.5,3v1.5l-6.5,1-1-2.5-4,1.5-2,3,1.5,4-5.5,2,1,3.5h1l1,2.5-4.5,2-1.5-3-2.5,1-3-7.5-3.5,3.5-11,3-.5-2.5-3.5-3-.5.5-.5-1.5-1.5,1.5-2.5-.5,1-1.5-1-.5,3-1v-1l-12-7.5-.5-3"/>
      <path data-code="khabarskij_rajon" data-title="khabarskij rajon" class="cls-1" d="M35.62,46.62l1-1.5,1.5.5,1.5-3.5-2.5-.5,1-1.5-1-2.5,7.5-1,3,2.5,2.5-3,1,2,5.5.5,1.5-2,3.5.5,1,2.5,9-3,.5-2-.5-1.5,5.5-2,.5,1.5,1.5-.5.5,2-1,2,1.5-.5-.5,1.5,1.5-.5.5,1.5-.5,2.5h2.5l3.5,4.5-1.5,5.5,1.5.5-1,4.5-1,2.5-.5,3-7.5-1.5-1,4-2-1v3.5l-3-.5-.5,2.5-2.5.5-4.5-1v-3h-.5l.5-2.5-2.5-.5.5-2.5-3-.5-1-3,.5-1-2.5-.5-2-5.5-1.5,1,.5,1.5-2.5.5v1l-6,3-1-2v-1.5l1-.5-1.5-3-1.5,1-5-1-.5-2"/>
      <path data-code="kljuchevskij_rajon" data-title="kljuchevskij rajon" class="cls-1" d="M21.62,125.12l5.5-2-.5,2,4,1,.5-2.5,6,1v-1l1.5.5,1-2.5,6,.5,9.5-4.5,1,2.5,2.5-1.5,1,2.5-.5.5h1l-.5,2,1,2,4,1-1,6-1.5-.5-1,5,6,1-1,1.5,1,2.5v4.5h-.5l-1,1.5-4-2,.5-.5-1-1-3-1-5,2,.5,3.5-3.5,1-1-1.5-1,1-.5,4.5.5,1.5h-6v-1l-1-.5-2-2-7,3.5.5,1.5,2,1-2,1-11-34"/>
      <path data-code="kosikhinskij_rajon" data-title="kosikhinskij rajon" class="cls-1" d="M239.62,104.62l.5-5,3.5-2h-1.5v-1.5l-1,.5.5-4.5,1.5,1,1.5-5h1l-.5-1,1.5-2,3-1.5v-1l1.5-.5.5-1,1,.5,1-3,3.5-1,2.5-2,4,3-.5,1,.5,1.5h1l.5,1.5h2.5l-.5.5,1,1-.5.5.5,1.5,4.5.5,1,1.5h1.5l1.5,2h-3l-.5,1,.5,1-1.5.5-1,1.5,3.5.5-2,1v1l1,3h-1l-3.5,2.5h-1l.5-1-4.5,2-1,2-3,2-1-3.5-3,1.5-6.5-1.5-2.5,1-.5,1.5-7-.5v-1"/>
      <path data-code="krasnogorskij_rajon__altajskij_kraj_" data-title="krasnogorskij_rajon_(altajskij_kraj)" class="cls-1" d="M294.62,164.12l6-2,.5-1.5,1,.5,1.5-4-2-1,.5-4.5h-1l1-1.5v-1h1l.5-1.5h2.5l3.5,1,1.5,6,2.5,2,2.5-1,1.5-3-.5-3,5.5-1.5v1.5l3.5,2,1,4,1.5.5,1.5,1.5-1,.5,1,2.5v2l-2,.5-.5,1.5h1l.5,4.5h1l-.5,3.5,3.5.5-.5,3-2,3,3,1-.5,2-2-1-1,2.5-1.5-.5-1.5,2.5-7.5-2.5-1,1,.5,3-1.5.5-1,2-6.5-1-.5,2h-.5l-2-2-1-2.5.5-1-5-.5-4-3,.5-1.5h-.5l-.5-3-2-4.5-.5-2.5,1-2-1-4"/>
      <path data-code="krasnoshhekovskij_rajon" data-title="krasnoshhekovskij rajon" class="cls-1" d="M158.12,203.62l2.5-2-1.5-3,4-3.5-3.5-2,2-2.5v-2l2-1.5h9.5l.5-4.5,7,1.5.5.5,1-1,4.5,3,1-2.5,1.5-.5,3-1.5,1.5.5-.5,1.5,1.5.5-2.5,2.5-.5,4,2,2.5.5-1.5h2l-2.5,5.5-2.5,8.5-3.5,2,3,4.5.5,3-2-2-.5,3.5h-1l-.5,6.5,2.5,1.5-2.5,3-1.5,3.5-2-1.5v3l1,1-3.5,3v2l-3.5-1.5h-5.5l1.5-5.5,2.5-1.5-1-3,.5-1.5-2-.5-2-4.5-4,1.5-2.5-.5.5-3.5-2.5-.5-1-2,.5-1.5-1.5-.5-.5,1-1-1,1.5-3-2-2,3-3-4-2.5"/>
      <path data-code="krutikhinskij_rajon" data-title="krutikhinskij rajon" class="cls-1" d="M108.12,17.12l3-1-1-3.5,3.5-1.5.5,1.5,3-2.5,4-2,.5,2,1.5-.5-.5-7.5,5.5-1.5v5l1,4,2,4.5,1,6,2.5.5,1,2,1.5.5,1.5-.5,1.5,2.5v1l-1.5-.5-2,2-1.5,6.5,1.5,3.5-1,.5,1,1.5-1,1-1.5-1.5v1l-1,.5v.5l-1.5,1-1-1.5-3,1.5v-1l-1.5.5.5,2-1,1-2-1.5-2,1.5-1.5-1v-2l-4,.5.5-3-.5-3-2-6,1-.5v-.5l-1.5-4.5-1,1h-2l-2.5-8.5"/>
      <path data-code="kulundinskij_rajon" data-title="kulundinskij rajon" class="cls-1" d="M16.12,106.12l3.5-1.5.5,2.5,4.5-2-.5-1,1.5-.5,2.5,1.5v-.5l4.5-1.5-.5-2,3.5-1-.5-2,2-.5v1.5l3-1,1.5,4,3.5-1,.5,2,3.5-.5.5,3,1-.5.5,2.5,2,1,.5,2.5,2,.5.5,1h1l.5,1h-.5l1.5,5-2.5,1.5-1-2.5-9.5,4.5-6-.5-1,2.5-1.5-.5v1l-6-1-.5,2.5-4-1,.5-2-5.5,2-5.5-19"/>
      <path data-code="kur_inskij_rajon" data-title="kur&amp;apos;inskij_rajon" class="cls-1" d="M134.12,197.12l5-4.5-.5-.5,1-1,2,1,2.5-1.5,1-4.5,1.5,1,1-2,9.5,3-.5,1.5h1l2.5,3v1l3,1.5-4,3.5,1.5,3-2.5,2,4,2.5-3,3,2,2-1.5,3,1,1,.5-1,1.5.5-.5,1.5,1,2,2.5.5-.5,3.5,2.5.5,2-1h2.5l1.5,4,2,.5-.5,1.5,1,3-2.5,1.5-1.5,5-5-2,1-1.5h1l2.5-5-.5-1.5-3.5,1.5-.5,2h-1.5v.5l-.5.5,1,.5-2,1.5v1.5l-2.5-5-4.5,2v-2.5l-1.5-1-3.5-7-1.5-.5-2-4.5-2.5-1.5-.5-3.5h-5l-1,1.5-1.5-1v-2.5l-1-1,1.5-3.5-.5-.5-1,1.5-3-1,2-4.5-2-3.5"/>
      <path data-code="kytmanovskij_rajon" data-title="kytmanovskij rajon" class="cls-1" d="M267.12,82.12l5.5-2.5,4.5-3.5,2.5-.5,1-3,1,.5,6-3.5v1l2,.5,1.5-2h2.5l.5-2.5,3-2,.5-1.5,1,1-1,.5,2.5-.5,1.5,1-.5,1h3l2,2.5h-.5v1l1,.5-1,2.5-2.5,1,.5,2.5-1.5,1,1.5,4.5-2,2.5v1.5l-6.5,10.5,1.5,2-2,3-3,2v3h-2.5l1-1.5-3.5-2.5-.5,1.5-2.5-2-3,1.5-7,1.5-3.5-1.5-.5-1.5,3-2h1l-1-3v-1l2-1h-3l.5-2,1.5-.5-.5-1,.5-1h3l-1.5-2h-1.5l-1-1.5-4.5-.5-.5-1.5.5-.5-1-2"/>
      <path data-code="loktevskij_rajon" data-title="loktevskij rajon" class="cls-1" d="M96.12,238.62l2.5-7,2-2,2-4v-2.5l-1-2,.5-1.5-1-1,1.5-4,.5,1,1-2,4.5,4,.5-1,3.5,2.5,1-2,5.5,3.5.5-1,13,9-3.5,7.5-2,7,1.5,1-1,1-.5,3-2-1-.5,2.5h-.5l-.5,2-3,4.5h-7.5l-3.5-1.5.5-3,1.5-1-2-3.5.5-1.5.5-2.5-1-.5.5-3-5-1-3.5,1.5-5.5-1.5"/>
      <path data-code="mamontovskij_rajon" data-title="mamontovskij rajon" class="cls-1" d="M120.12,138.12l5-3.5-2-2,7.5-5.5-1-1.5,2.5-2-1-1.5.5-1,2-1.5-3.5-6-2-.5,1-1-.5-1,2-2-.5-1,3-4.5-1-1.5-1.5,1-1.5-2.5,1-.5-.5-.5.5-1,1.5.5-1-1.5.5.5,1.5-.5-.5,1,3-3.5v1l-1.5,1.5,1-1,1.5,2,3.5-3h3.5l1.5,4,4-.5,4.5,8.5-2.5,2-.5,1.5.5.5-.5.5,3,4-1.5.5v1l2,1-1,2,2.5,3-7.5,4.5-2.5,2.5-2,.5-3,3.5-4.5,1.5-.5,1.5-2.5,1,.5,1-8,5-2.5-3.5-.5-2.5-2-.5"/>
      <path data-code="mikhajlovskij_rajon__altajskij_kraj_" data-title="mikhajlovskij_rajon_(altajskij_kraj)" class="cls-1" d="M32.12,155.62l7-3.5,2,2,1,.5v1h6l-.5-1.5.5-4.5,1-1,1,1.5,3.5-1-.5-3.5,5-2,3,1,1,1-.5.5,4,2-.5,1-1,8.5,1.5,5h-1.5v1l1.5,5.5h-2l1,3.5-2.5,1.5,3,12-24.5,7-8-34,2-1-2-1-.5-1.5"/>
      <path data-code="nemeckij_nacional_nyj_rajon" data-title="nemeckij_nacional&amp;apos;nyj_rajon" class="cls-1" d="M24.62,67.99l2-1,.5,1h1l-1.5-5,3-1.5v-.5h2l-.5-1,5-2.5v1.5l2.5-1-.5-1,1-.5v-.5l3-1.5,1,2h2.5l-.5-1.5,2.5-1,2.5-1v-1l2-.5-.5-1.5,1.5-1.5h.5l2,5.5,2.5.5-.5,1.5,1,3h3l-1,5.5-.5.5-1,5.5-6.5-1.5v.5l-3.5,2-.5-2-2,1.5-.5-1.5h-1.5l-2,1,.5,1-7.5,3h-3l-.5-2-3,1.5-1-2-2,.5-1.5-4.5"/>
      <path data-code="novichikhinskij_rajon" data-title="novichikhinskij rajon" class="cls-1" d="M106.62,150.99l1-1-.5-1,1.5-2,5-3,6.5-6,1.5,1,1,2.5,2.5,3,4.5-3.5,2,4,2-1.5,3.5,6-1,1,2,3,2,1-6,2-2-1-2.5,1,1,2-3,2,1,1-1,1.5,3,5-5,3.5.5,1.5-3,3-1.5-2-4,3-1-1,1.5-1v-1l-1.5-1.5,1-1-4-1.5,2-2-9.5-9,4.5-2.5-4-5.5"/>
      <path data-code="novoaltajsk" class="cls-1" d="M227.62,79.99l2,.5,1-.5-1-1h1l1,1.5v1h.5l-.5-.5,1-1,.5,1,2.5-.5-3,1.5.5,1.5.5.5-.5.5h.5v1.5l.5.5-4-.5v.5l-1.5.5-.5-1.5,1.5-3.5-2-2"/>
      <path data-code="pankrushikhinskij_rajon" data-title="pankrushikhinskij rajon" class="cls-1" d="M79.12,32.49l3-1-1-3.5,1-.5.5-1,8.5-4-.5-4,5.5-1.5.5,3.5,10-4.5.5,1.5h1l2.5,8,1.5.5,1.5-1.5,1.5,4.5v1l-1.5.5,2.5,6,.5,4.5-1.5,3.5-2,1.5-1.5-.5-6,2.5-2,2.5.5,3.5.5.5-.5,2-4-2.5-4.5,1.5,1.5,3-2,1.5-2.5-3.5-7,2,1.5-7.5h-1.5l1.5-6-3.5-4.5h-2.5v-2l-.5-1.5-2-1,1-2-.5-1.5"/>
      <path data-code="pavlovskij_rajon__altajskij_kraj_" data-title="pavlovskij_rajon_(altajskij_kraj)" class="cls-1" d="M176.62,84.49l2.5-1.5,1,1,2-1,1,1,4.5-2,.5-2.5-1-2h1l.5-1,.5-2.5h.5l-3.5-2,1.5-.5,1.5-2.5,5.5,2v1l3.5.5,1,2v-1h2.5l1.5-1.5,6.5,6,2-.5v1.5l-1,1,1.5.5-3.5,3,.5,1,2.5-.5v2l-3,.5,2,1-.5-1,1.5,1.5-.5,2.5-1,.5,2,.5v1l-5,3-3,.5.5.5-2.5,1.5.5.5h-2l-4.5,2.5-.5-.5-1.5,2-11,5.5-1-2.5-2-1-1.5-4,3-2-2.5-5.5,1-.5-3.5-8"/>
      <path data-code="pervomajskij_rajon__altajskij_kraj_" data-title="pervomajskij_rajon_(altajskij_kraj)" class="cls-1" d="M227.12,72.49l.5.5h1.5l-.5-1-1.5.5M221.12,79.99l2-2-1-.5,1.5-1-.5-1h1.5l-.5-1,1.5-.5-1-1.5.5-.5-1-.5,2-.5-.5-3,1-1.5v-.5l4-.5,7-3.5-.5-2.5h-4l.5-1h-1l-1-2,.5-3.5-2-1,.5-.5-1-1,.5-2,1.5,1,.5-1.5,1.5,1.5-.5-1.5h2l.5-1-.5-1.5,1,1.5h1v1.5l1,.5,1.5-1,1.5-2.5,3.5,1,1-1,1,1.5v-1l.5-.5,1,3.5-1.5,2.5,1,2.5,3,.5,1.5,4,2,1,1-1,1,2-1.5,2,1,2-2.5,1-.5,2-3.5-1-1.5.5-1,1.5.5,4,1.5.5-1,.5v2.5l2,1.5,4-1,2,2-1.5.5-1.5,2.5-1-.5v1.5l-1.5.5v.5l-3,2-1.5,1.5.5,1.5h-1l-1.5,5-2-1v4h1v1l1.5.5-3.5,1.5-1.5,12-4.5-.5-.5,2.5h-3.5l-.5,8-8-1,.5-1.5-2.5-.5,3.5-1v-2l-2-4h.5l-1-1.5,1-3.5v-2l3-.5-1-4,3-.5-1-1.5,1-.5-.5-2,1.5.5.5-1.5v-1.5l-1.5-1.5h1.5l-.5-2,1-1.5-.5-1,1.5-.5v-.5l4,.5-.5-.5v-1.5h-.5l.5-.5-.5-.5-.5-1.5,3-1.5-2.5.5-.5-1-1,1,.5.5h-.5v-1l-1-1.5h-1l1,1-1,.5-2-.5,2,1.5v1l-.5.5v1l-3.5-1,.5-1.5-1.5-1.5-3,1-.5-1"/>
      <path data-code="petropavlovskij_rajon__altajskij_kraj_" data-title="petropavlovskij_rajon_(altajskij_kraj)" class="cls-1" d="M217.62,164.49l2-.5,4.5-7.5,2,1,8-3,.5,2-4,3.5.5,2,2.5,2.5v2l4.5-.5.5,9,2-.5-1,2,2,2.5h1v1l1.5,1-1,2h-1l-5.5,5,.5,1-3.5,1.5-1-2.5-3.5,2.5-1.5-2-3-.5-1.5,1-1,1.5-1-1.5,1-1.5-3-2.5-.5-2.5-1-.5-1-5.5,1-1.5-.5-1,3.5-1,.5-2.5v-1.5l-3.5-4.5"/>
      <path data-code="pospelikhinskij_rajon" data-title="pospelikhinskij rajon" class="cls-1" d="M117.62,176.99l4-3,1.5,2,3-3-.5-1.5,5-3.5-3-5,1-1.5-1-1,3-2-1-2,2.5-1,2,1,4-1,4.5,9-1.5,2,2,1.5-1,2,3.5,6.5,5-4,2.5,5,1-1,3,2.5-1,1.5.5,1-.5.5.5.5-.5.5v1l-.5,1.5,1.5,2.5-9.5-2.5-1,2-1.5-1-1,4.5-2.5,1-2.5-1-.5,1,.5.5-5,4.5,2,4-1.5,2-1-1-2,1-4-5.5-1.5,1.5-2-3,1.5-1-2.5-5,1.5-1-.5-1.5-6.5-10.5"/>
      <path data-code="rebrikhinskij_rajon" data-title="rebrikhinskij rajon" class="cls-1" d="M148.12,89.49l14.5-8,.5,2,2-.5v1l2.5-1,.5,4,2.5-.5v-2l5-2,2.5,4,2,6-1,.5,2.5,5.5-3,2,1.5,4,2,1,1,2-1,1,1,.5-1,.5v-1l-3.5,2-6.5,3.5-.5.5.5.5-.5.5-1-.5-3.5,2-12,7-2.5-3,1-2-2-1v-1.5l1.5-.5-3-4,.5-.5-.5-.5.5-1,2.5-2-5-8.5,1.5-1-1.5-9"/>
      <path data-code="rodinskij_rajon" data-title="rodinskij rajon" class="cls-1" d="M57.62,116.49l5.5-1.5,2,.5,2-1,1-2.5.5,3,5.5.5.5-1,1.5.5,1-5,1.5-.5h2v3l4.5-.5.5-3.5,1-.5-.5-2.5,2.5-1.5-.5-2,1.5-.5.5,2h2l1.5,3,2.5-.5-1.5,4.5-3-2-1,8,4.5,1-.5,2,3,.5-2,10.5,8,1.5-1,6.5-4.5,2.5-6.5,1,1,2-4,2-.5-1-3.5,2-.5-1.5v-1.5l-2.5-1-1,1-1-1.5-2,1v1l-4-.5-.5-1-3.5,2.5-3.5-5.5,1-1.5-6-1,1-5h1.5l1-5.5-4.5-1.5-.5-1.5.5-2h-1l.5-.5-2-5"/>
      <path data-code="romanovskij_rajon__altajskij_kraj_" data-title="romanovskij_rajon_(altajskij_kraj)" class="cls-1" d="M96.62,123.49l.5-2,6.5-1-1-5,7.5-4.5.5,1.5,3-1v-3.5l.5-.5,1,2.5,3,2h5.5l.5-1.5,2,1.5,2.5-.5.5.5-1,1.5,2,.5,3,6-1.5,1-.5,1.5,1,1.5-2.5,2,.5,1-7,6,1.5,1.5-11,9.5-3.5-7-7.5,1.5,1-6.5-8-1.5,1-7"/>
      <path data-code="rubcovsk" class="cls-1" d="M104.62,199.99l4-3.5,1,2-.5,3,1-1,.5.5-.5,1h2l-1.5,2.5h-3.5l-2-3,.5-1-1-.5"/>
      <path data-code="rubcovskij_rajon" data-title="rubcovskij rajon" class="cls-1" d="M104.62,199.99l1,.5-.5,1,2,3h3.5l1.5-2.5h-2l.5-1-.5-.5-1,1,.5-3-1-2-4,3.5M71.62,205.49l10-13,7,7-1,1.5,2,1,1.5-.5,2.5,1.5-2,3.5,1,1v1l2.5,3.5,2-1.5-1-1,1-1.5-1-1.5,1-.5-1.5-1.5,2-3,1.5,1,2-3.5-1.5-1,1-1-.5-.5,2-2-1-1,1.5-.5,3-3.5,1,1,1-2,1,1,1-1,2.5-3-.5-1,1-1,1.5,1,.5-.5-1.5-1.5.5-1-1-1,1.5-1.5-.5-.5,1-1-2.5-2.5,4-4.5,1.5,1-1,1,1.5,1.5v1l-1.5,1,7.5,11.5.5,1.5-1.5,1,2.5,5-1.5,1,2,3,1.5-1.5,5,7.5-3,4h-.5l-3.5,6-1-1-1.5,2-1-.5-3,5.5-5.5-3.5-1,2-3.5-2.5-.5,1-4.5-4-1,1.5-.5-1-1.5,4.5,1,.5v1.5l-1.5.5-1.5,2-6-4,1-2.5-9.5-5.5.5-2-2.5-2.5-1.5-.5-2.5,2-1-1,.5,1.5-1.5,1-5-4.5"/>
      <path data-code="shelabolikhinskij_rajon" data-title="shelabolikhinskij rajon" class="cls-1" d="M144.62,65.49l6-2-1.5-4,2-2.5,4-2,1,2.5,2-.5,1,1,2.5-1.5,3.5,1.5,2.5-1.5-1,2.5-1.5,1.5v1l2-1v2l3,1v1.5h1l.5,2.5,1,1,4,2,2-.5,1.5.5.5-.5-2.5-3,7-5.5-1.5-2.5,6-4.5,10,14-4,4-6.5-3.5-1.5,2.5-1.5.5,3.5,2h-.5l-.5,2.5-.5,1h-1l1,2-.5,2.5-4.5,2-1-1-2,1-1-1-2.5,1.5-1-2-5,2v2l-2.5.5-.5-4-2.5,1v-1l-2,.5-.5-2-1.5,1-1-2-5,2.5-2.5-1.5-1.5-2.5.5-2h.5l-.5-1,2.5-1,2.5.5,1.5-.5-2.5-4.5-4,3-1.5-1-1.5,1-1.5-4h-1.5l-1-4"/>
      <path data-code="shipunovskij_rajon" data-title="shipunovskij rajon" class="cls-1" d="M130.12,141.99l2.5-2v-1l2-1,1-2,4-1.5,3.5-3,5.5-3,.5,3.5,2.5-1,1,1.5,1,3.5-2,1,2,3,1.5.5,1.5-.5,2,2,8.5,15.5,1.5,1.5,5-2,5.5,1,1,1.5v2.5l1,.5-1,2,1.5,1.5.5-1,4,5.5-1.5,3.5-5.5.5-.5-1h-2.5l.5,1.5-1,1.5-1-.5-1.5,11.5-9.5-.5-2,2v2l-2,1.5-3-3,.5-2.5-1.5-1.5.5-1.5v-1l.5-.5-.5-.5.5-.5-.5-1,1-1.5-3-2.5-1,1-2.5-5-5,4-3.5-6.5,1-2-2-1.5,1.5-2-4.5-9,2-1-2-1-2-3,1-1-3.5-6-2,1.5-1.5-3"/>
      <path data-code="zato_sibirskij" data-title="zato sibirskij" class="cls-1" d="M227.12,72.49l1.5-.5.5,1h-1.5l-.5-.5"/>
      <path data-code="slavgorod" class="cls-1" d="M21.62,79.99l1.5-.5.5,2-.5-1,1-1,.5,1.5h2l-.5,1.5,1,.5-.5,2.5-4.5-.5,1-3.5h-1l-.5-1.5"/>
      <path data-code="slavgorodskij_rajon" data-title="slavgorodskij rajon" class="cls-1" d="M18.12,85.99l1.5,4.5.5-3,3.5.5.5-.5-.5-.5,3-1.5.5-2.5-1-.5.5-1.5h-2l-.5-1.5-1,1,.5,1-.5-2-1.5.5.5,1.5h1l-.5,2.5-4.5,2M8.12,79.99l3.5-1,1,1.5,3-1.5.5-3.5,1.5-.5-.5-2-2-.5,1.5-6.5,3.5.5,1,3v-2l1,.5v1l2.5-1,1.5,4.5,2-.5,1,2,3-1.5.5,2h3l7.5-3-.5-1,2-1h1.5l.5,1.5,2-1.5.5,2,3.5-2v-.5l6.5,1.5,2-8.5,2.5.5-.5,2,.5.5-.5,3,3,.5v1l-2,8.5h-2.5l3,1.5.5,2-4.5-3.5h-2l-4.5,4.5-1.5,4-4,1-1-7-2,.5-.5,2.5-1,.5-2-1.5v-2l-.5-.5-8,2-.5,1-3.5-1-.5,2.5h1l.5,1.5-.5.5v1.5l-2,.5v2l-2,.5.5,2.5-3,1.5-.5-1-2-.5-1.5-2-2.5,1-.5-1-4.5,1.5-4-13"/>
      <path data-code="smolenskij_rajon__altajskij_kraj_" data-title="smolenskij_rajon_(altajskij_kraj)" class="cls-1" d="M240.12,184.99l3.5-3,.5-1-1.5-1v-1l8.5-1.5,4.5-4-1.5-5.5-2.5-3-.5-2.5,2.5.5,2.5-1.5v-1.5l2.5-.5-.5-1.5.5-1-.5-1,8.5.5,2-2.5h1l.5.5-1.5,3,1,.5,1.5-1.5,2,1v1l1,.5v3l-.5,3,1,1.5,1-.5,2,1-1.5,3h-2l-1.5,3.5h-1v1.5l-2.5,2.5v1.5h-5l-1.5,2-.5-.5-.5,3.5h-3.5v1.5h-1.5l-.5,4.5h1l.5-2.5,2,1,1-1,.5,1.5h-1v1l1,1-1.5,2.5,1,.5,1.5-1,1,.5-1,1.5-2.5.5-2.5,2.5-1.5-.5,1,2.5-4,.5-.5-2-1.5-1,2.5-4-1-.5-1,.5-.5-1.5-2.5,1.5-3.5-1-1-1.5v-1l-1.5-1-.5-1.5-1.5.5v-3"/>
      <path data-code="soloneshenskij_rajon" data-title="soloneshenskij rajon" class="cls-1" d="M210.62,201.99l2-1,2.5.5,1.5-1,.5-2.5-2-7.5,5.5-2,1.5,2,1-1.5,1.5-1,3,.5,1.5,2,3.5-2.5,1,2.5,3.5-1.5-.5-1,3.5-3v3l1.5-.5.5,1.5,1.5,1v1l1,1.5,3.5,1,2.5-1.5.5,1.5,1-.5,1,.5v1l-2,1.5-.5,1.5-2,1.5v3l-1,.5,1.5,4-1,1.5.5,1.5,2.5,3,.5,2.5h2l-2,2.5,2.5,2,1,2.5-2,3.5-1.5-.5-3.5,1-2-.5-2,2-1.5,1-.5,2-7.5,1.5-.5,2-1.5.5-1.5.5-1.5-2h-3v-3l-1-1,.5-2.5-1.5-1-.5.5v-2h1.5l.5-2-1.5.5-2.5-6.5-3.5-3,.5-3.5-2-1,.5-1.5-.5-2-1.5-1-1,1-1-2-1.5,1.5-.5-1.5v-.5l-1-.5"/>
      <path data-code="soltonskij_rajon" data-title="soltonskij rajon" class="cls-1" d="M306.12,138.99l4.5-4-1-.5,1-3,10.5-5.5,1-3.5,4-2,1.5,1.5h4l8.5-4,1.5-2,.5,2.5,5,1.5,2,3-2,4-1,4.5-2,1.5h-1l-1,2,.5,1h1l-.5,3,2.5,4.5,2,.5-1,1.5.5.5,1.5.5.5-2,2,1v1l-2,5.5-2.5-3.5-1.5,1-1-1h-2l-.5,1-3.5.5-1-1.5v2.5l-2,1,.5,5.5h-5l-3-1.5-1-4-3.5-2.5v-1l-5.5,1.5.5,2.5-2,3.5-2,1-2.5-2.5-1.5-5.5-3.5-1.5,2-3.5-.5-2h-.5l.5-2.5-2-.5"/>
      <path data-code="sovetskij_rajon__altajskij_kraj_" data-title="sovetskij_rajon_(altajskij_kraj)" class="cls-1" d="M268.12,179.49l1.5-2.5,2-2v-1.5h1l1.5-3.5h2l1.5-3-2-1-1,.5-1-1.5.5-3v-3l-1-.5.5-.5v-2l3-1,.5,1,2-.5,4,4,5.5.5,5.5,2.5.5,2,1.5,3.5-1,2.5.5,2.5,2,4.5.5,3h.5l-1,1.5,1,2-.5,2-4,.5-2.5-2-5.5,4h-2v-1l1-.5-1.5-1.5-.5-4-2-.5.5-1.5-5.5-.5h-2v-1l-6,1.5"/>
      <path data-code="suetskij_rajon" data-title="suetskij rajon" class="cls-1" d="M63.62,77.99l1.5-6h.5l.5-3.5,4.5-.5.5-2.5,3,.5v-3l2,1,1-4,7,1.5,1-3.5h1.5l.5,5-1.5.5v1l2.5-.5.5,2-2,1,1,2-1,5.5,2.5,2h1l.5,2.5-.5,3-8,1.5v-1l-2.5.5.5-2.5.5-1v-1.5l-4.5,1-4-.5-2,5.5-4.5-2.5v-1l-2-2.5"/>
      <path data-code="tabunskij_rajon" data-title="tabunskij rajon" class="cls-1" d="M12.12,92.99l4.5-1.5.5,1,2.5-1,1.5,2,2,.5.5,1,3-1.5-.5-2.5,2-.5v-2l2-.5v-1.5l.5-.5-.5-1.5h-1l.5-2.5,3.5,1,.5-1,8-2,.5.5v2l2,1.5,1-.5.5-2.5,2-.5,1,7,4-1-.5,4.5,1.5,3.5,2.5,3-3.5,1-.5,2v2.5h.5l-.5,2-2.5,1-.5-3h-4l-.5-1.5-3,1-1.5-4-3,.5-.5-1-1.5.5.5,2-3.5,1,.5,2-4.5,1v1l-3-2-1,1,.5,1-4.5,1.5-.5-2-3.5,1-4-13"/>
      <path data-code="tal_menskij_rajon" data-title="tal&amp;apos;menskij_rajon" class="cls-1" d="M188.12,51.99l15-11,2-2.5-.5-.5,3.5-3,1-.5,1,1,2,.5,1-2.5.5,1v10l4-.5v-2h2v-6l1-1,1.5.5,1-2.5,6.5,1.5,4-1.5,2,1-1,3,4-2,1,1-1.5,2.5,1,3.5-.5,5h1.5l-.5,1-2.5.5v-1.5h-1l-1-1.5.5,1.5-.5,1h-2l.5,1.5-1.5-1.5-.5,1.5-.5-1-1.5.5v1.5l1,1-.5.5,2,1-.5,3.5,1,2h1l-.5,1h4l.5,2.5-7,3.5-4,.5v.5l-1,1.5.5,3-2,.5,1,.5-.5.5,1,1.5-1.5.5.5,1h-1.5l.5,1-2,1.5-1-1-3.5-.5-1-1.5-1,1v1h-1l-.5,1h-4l-6.5-6-1.5,1.5h-2.5v1l-1-2-1,.5-1-1,3.5-3.5-11.5-16.5"/>
      <path data-code="tjumencevskij_rajon" data-title="tjumencevskij rajon" class="cls-1" d="M119.12,78.99l.5-2.5h1.5v-2l1.5-1-2,.5,1-2-1.5-1,13-3.5,3.5-3,2.5,7.5,3-1.5,1,3,5-1.5.5,1.5,1.5-1,1.5,1,4-3,2.5,4.5-1.5.5-2.5-.5-2.5,1,.5,1h-.5l-.5,2,.5,1.5,3.5,2.5,5-2.5,1,2-13,7,1,3.5h-.5l.5,2.5.5.5v3l-5,.5-1.5-3.5-3.5-.5-3.5,3.5-1.5-2-1,.5,1.5-1-.5-1-2.5,3.5.5-1-1.5.5v-1h-1l1.5,1.5-2,.5-4.5-9.5,1-1-1-3h-2.5l.5-1.5-2-3.5-2-2"/>
      <path data-code="togul_skij_rajon" data-title="togul&amp;apos;skij_rajon" class="cls-1" d="M295.12,101.49l2-3-1.5-2.5,6.5-10v-1.5l2-2.5-1.5-4.5,1.5-1-1-2.5,3-1,.5-1,1.5.5,2-1.5,2,.5.5,1.5h1l.5-1.5v1l3.5-.5,3,1.5,5-1,1.5,8,1-.5,2.5,3,1.5,3,2,1.5-.5,8-6,1-1-3,1-1-1.5-1.5h.5l-2-2v1l-5,4h-2.5l-.5,4,1,1-1,1.5-1.5.5-1-2h-5.5l-7.5,3-6-.5"/>
      <path data-code="topchikhinskij_rajon" data-title="topchikhinskij rajon" class="cls-1" d="M164.62,118.49l6-3.5,1,.5.5-.5-.5-.5.5-.5,6.5-3.5,3.5-2,.5,1,.5-.5-1-.5,2-1.5,7.5-3.5.5,3.5,2-1,.5.5,1,3,2,3,1.5.5v1.5l3.5,2.5-2.5,1-1,2,3,3.5,1-1,1,2,3-2.5,2.5,2,2-.5v-1l2,1.5.5-1.5,4.5,3h3v-1.5l-1.5-.5,1.5-.5.5-2.5,7.5,1v5h2l2.5,8.5-6.5,2.5-4-.5-3.5,1-1-1,.5-1.5-.5-2h-1.5l-9.5,1.5-.5,5-6,1v3l-2,.5v4h-3.5l-2,1.5-6-14.5-3-.5.5-8-1-1.5.5-2.5-1-1-1.5-1.5-.5,2-.5.5h-4.5l-1,4-3-2-1.5,1.5-3-5.5-2,1-2-3.5"/>
      <path data-code="tret_jakovskij_rajon" data-title="tret&amp;apos;jakovskij_rajon" class="cls-1" d="M123.12,252.49l2-5.5,1.5,1.5,1-3,1-1-1.5-1,5.5-16,3.5,1.5,1.5,4,2,.5v1l-2.5,3,1.5,5,3,1.5,5-3h2l3,2.5,1-2.5,1-1,4.5-.5v1.5l1.5.5,1.5,5,1-.5,2,2.5-1,.5-1,1.5-.5,2.5v3l-2,2.5-6,4v-1l-2.5,1-5-4-2.5,2-1.5-1.5-1.5,2-2.5-.5-4-1.5-2.5-3-4-1.5-3.5,1-1-3"/>
      <path data-code="troickij_rajon__altajskij_kraj_" data-title="troickij_rajon_(altajskij_kraj)" class="cls-1" d="M224.12,136.99l3.5.5,6.5-2.5-2.5-8.5h-2l1-13h3.5l.5-2.5,4.5.5,1-6,7,1,.5-2,2.5-1,6.5,2,3-1.5,1,3,3-1.5,1-2.5,4.5-1.5-.5.5,1.5-.5.5,1.5,3,1.5,7.5-1,3-2,2,2.5-2.5,5,5.5,2-1.5,5h-1l-1,2-6.5-.5-4,3.5-1,3.5-4.5-1.5-3.5,2h-3.5l-2.5,1.5-1,4-2,.5.5,3-2.5,1.5h1.5-5l-1.5-1-.5,1-2-.5.5,1.5h-1.5l1,2.5h-1.5l1,4-10.5,3.5-8,4.5-1,.5-3.5-14.5"/>
      <path data-code="uglovskij_rajon" data-title="uglovskij rajon" class="cls-1" d="M40.62,193.49l24.5-7-1-4,6-1.5-.5-3,6-1.5-.5-1.5,1.5-.5,2.5,2.5,8,1.5-1.5,2,3,2.5-17,22.5,5,4.5,1.5-1-.5-1.5,1,1,2.5-2,4,3-3,5-.5,4.5-7.5-1.5-1.5,6,1.5,1.5-1,9-3,.5-2,2-7.5,1-1,5-4-1v-1.5l-.5-.5-.5,1-.5,7-13.5-54"/>
      <path data-code="ust_-kalmanskij_rajon" data-title="ust&amp;apos;-kalmanskij_rajon" class="cls-1" d="M174.62,175.99l1,.5,1-1.5-.5-1.5h2.5l.5,1,5.5-.5,1.5-3.5-3-4.5,1.5-1,1.5,1,.5-1,3,1.5,2-4h1l1.5-3,2.5,2,1.5-1v6.5l1.5-1.5,1.5,1-.5,2h4.5l4,7-4,1.5,1.5,5.5,7-3.5v1.5l3.5-2,.5,3.5,1,.5.5,2.5,3,2.5-1,1.5-6,1.5,2,7.5-.5,2.5-1.5,1h-2l-5-6,1-1-.5-.5-3-2.5-2,.5-4.5,3-2.5-3h-2.5l-.5,2-2-2.5-.5-2.5.5-2,3-2-1.5-1,.5-1.5h-2l-3,1-1,1-1.5,2.5-4-3.5-1.5,1.5v-1l-7-1,1-7"/>
      <path data-code="ust_-pristanskij_rajon" data-title="ust&amp;apos;-pristanskij_rajon" class="cls-1" d="M194.12,149.99l2-1.5h3.5v-4l2-.5v-3l6-1,.5-5,9.5-1.5h1.5l.5,2-.5,1.5,1,1,4-1,3.5,14.5,1-.5,1,4,1-.5.5,1.5-5,1.5-2-1-4.5,7.5-2,.5,3.5,4.5v1.5l-.5,2.5-3.5,1,.5,1-1,1.5.5,2-3.5,2v-1.5l-7,3.5-1.5-5.5,4-1.5-4-7h-4.5l.5-2-1.5-1-1.5,1.5v-6.5l-1.5,1-2.5-2,3-4.5-3-5"/>
      <path data-code="volchikhinskij_rajon" data-title="volchikhinskij rajon" class="cls-1" d="M64.62,149.49l2-3,.5.5v-4.5l2.5,3,3.5-2.5.5,1,4,.5v-1l2-1,1,1.5,1-1h1.5l1,1v1.5l.5,1.5,3.5-2,.5,1,4-2-1-2,6.5-1,3.5-2.5,8.5-1.5,3.5,7-5,3-1.5,2,.5,1-1,1,4,5.5-6.5,3.5h-4l-12.5,16-3.5,1.5-5-.5-2.5-2.5-1.5.5.5,1.5-6,1.5.5,3-6,1.5-2-8,2.5-2-1-3.5h1.5l-1-5v-1l1-.5-1-5,.5-8"/>
      <path data-code="zalesovskij_rajon" data-title="zalesovskij rajon" class="cls-1" d="M238.12,38.49l1.5-2.5-1-1,10.5-4.5,2,1-.5,2h3l2-1,1,1-.5,1,.5.5,4.5-1,1.5-3v-2l3-3h2l3.5-3.5,1.5-.5-.5,1,.5.5,13.5-7,7,17-11.5,6.5-1.5,2,2,1-.5,1,1,.5-1.5,1v1l-2,2.5-5.5.5v1.5l-2-.5-2.5,2-2,4.5-1,.5v2l-.5,1-3.5-2-1.5,1-.5-2.5h-2l-.5,1-3.5,1.5-2-1-1.5-4-3-.5-1-2.5,1.5-2.5-1-3.5-.5.5v1l-1-1.5-1,1-3.5-1-1,1.5h-1.5l.5-5-1-3.5"/>
      <path data-code="zarinsk" class="cls-1" d="M269.62,64.49l1-1,2.5-.5.5,1-1,.5.5,1,2-1h1l-1.5,2.5,1.5.5-1.5,3-3-2-2-4"/>
      <path data-code="zarinskij_rajon" data-title="zarinskij rajon" class="cls-1" d="M269.62,64.49l2,4,3,2,1.5-3-1.5-.5,1.5-2.5h-1l-2,1-.5-1,1-.5-.5-1-2.5.5-1,1M246.62,68.49l1-1.5,1.5-.5,3.5,1,.5-2,2.5-1-1-2,1.5-2-1-2,2.5-.5.5-1,2.5.5-.5.5.5,1.5,1.5-1,4,1.5v-2.5l1-.5,2-4.5,2.5-2,2,.5v-1.5l5.5-.5,2-2.5v-1l1.5-1-1-.5.5-1-2-1,1.5-2,2-1h-1l10.5-5.5,1,2.5,4.5-2.5,1,2,2.5-.5,2,5,2.5-1.5,3.5,9.5h1.5v1l5,1.5.5,1.5,2,1,1.5,12,4-1,1,8.5-5,1-3-1.5-3.5.5v-1l-.5,1.5h-1l-.5-1.5-2-.5-2,1.5-1.5-.5.5-1.5-1-1.5.5-.5-2-2h-3l.5-1-1.5-1.5-2.5,1,.5-1-.5-.5-.5,1.5-3,1.5-1,2.5-2,.5-1.5,2-2-1v-.5l-6,3.5-1-.5-1,2.5-2.5.5-4.5,4-4.5,2-3,.5-.5-1.5-1.5.5-.5-2,1-.5-4.5-3-4,2.5-2-2-4,1-2-1.5v-2.5l1-.5-1.5-.5-.5-4"/>
      <path data-code="zav_jalovskij_rajon__altajskij_kraj_" data-title="zav&amp;apos;jalovskij_rajon_(altajskij_kraj)" class="cls-1" d="M91.12,111.49l.5-3,3,2,1.5-4.5,2-1.5-.5-1.5,2-1.5-.5-3-1.5-.5-1-4.5-1.5-2.5,4-1.5,3.5-3.5v1l4.5-.5,1,3-.5,2,.5-1h5.5l.5-2,4,3-.5,1.5h3.5l3-2,2,.5,4,9-1,.5,1.5,2,1-1,1.5,2-3,4,.5,1.5-1,1.5-2.5.5-1,.5-1-1.5h-1l-.5,1.5h-5.5l-3-2-1-2.5-.5.5v3.5l-3,1-.5-1.5-7.5,4.5,1,5-5.5,1.5-1-.5.5-1.5-3-.5.5-2-4.5-1,.5-5"/>
      <path data-code="zmeinogorskij_rajon" data-title="zmeinogorskij rajon" class="cls-1" d="M119.62,219.99l2.5-4.5,1,.5,1.5-2,1,1,3.5-6h.5l2.5-3.5-.5-2.5,2-1,1,1.5-1,1.5,3.5,1.5,1-2,.5,1-1.5,3.5,1,1v2l1.5,1.5,1-2h5l.5,4,2.5,1.5,2,4,1.5.5,3.5,7.5,1.5.5v2.5l4.5-1.5,2.5,4.5v-1.5l1.5-1-.5-.5.5-.5v-.5h1.5l.5-2,3.5-1.5.5,1.5-2.5,5-1-.5-1,1.5,5,2-.5,2,3.5,5.5,1.5-.5,2,2.5-1,3-5,3-.5,2-9.5-4,.5-1.5,1-1-2-2-1,.5-1.5-5-1.5-.5v-1.5l-4.5.5-1,1-1,2.5-3-2.5h-2l-5,3-3-1.5-1.5-5,2.5-3v-1l-2-.5-1.5-4-3.5-1.5-.5,1-12.5-8.5"/>
      <path data-code="zonal_nyj_rajon" data-title="zonal&amp;apos;nyj_rajon" class="cls-1" d="M246.12,138.99h1.5l-1-2.5h1.5l-.5-1.5,2,.5.5-1,1.5,1,3.5.5,1.5-.5h-1.5l2.5-1.5-.5-3,2-1,1-3.5,2.5-1.5h3.5l3.5-2,4.5,1.5,1-3,3.5,1-1,5h1.5l2,2-1.5,1.5,1,.5-1.5.5-1.5,4.5-3,2-.5-1h-1l.5,2-1.5,1.5.5,2.5-1,.5.5,1-1,2h-2.5l.5.5-.5,3-7-1-1,1.5v3l-2,.5v1.5l-4-.5h3l.5-5.5-1-1.5-3,1-1-2.5-4,1.5-3-9.5"/>
    </g>
</svg>