<svg data-code="RU-AST" xmlns="http://www.w3.org/2000/svg" viewBox="0 0 148.12 254.75">
    <g data-code="astrakhanskaja_oblast_" data-title="astrakhanskaja_oblast&amp;apos;">
      <path data-code="akhtubinskij_rajon" data-title="akhtubinskij rajon" class="cls-1" d="M72.5,5.76l1,1,1.5-1,1.5,2.5,2-.5.5,1.5,4.5-1,1,1.86-1,1.5.5,3.5.5.5-.5-1.5,1-.5h1.5l1.5,6,3.5,2,.5,3,15.5,13.5,11.5,16.64h1.5l4.5,6.5-2.5,2.5-1,4.5-3,2.5,3.5,4-1.5,1-1-1-2,1-5,1v11l-2.5.5v1.5l-5.5,1-11.5,1-.5-2-3,.5-1.5-13.5.5-2-1-2-4,.5v-7l-1.5.5-.5,2.5-1.5-1,.5-2.5-1.5-1.5,5.5-3.5v-1l1-.5v-2.5l1-5-1.5-7,2-2.5-1-1,2-1.5-1.5-2.5-3,.5.5-5.5-3-1v-3l-5.5-.5v-3l1-1.5-.5-6.5-4-1.5.5-3-2.2-.76-2.5-2-.5,1.5h-1l1-2.5-1.5-2-1.5-.5.5-1-1-.5,1.5-1,3.5.5-.5,1,2.2,2.01,2-1.25Z"/>
      <path data-code="chernojarskij_rajon" data-title="chernojarskij rajon" class="cls-1" d="M46,14.76l1.5-1,3-3.5,1,.5,2-4,1.5.5,2-.5-.5-1,2-.5,2.5,2,1.5-2.5,1.5,1.5-2,1.5,2,.5,1,3,1,1-.5,1,4-2,3,1-.5,3,4,1.5.5,6.5-1,1.5v3l5.5.5v3l3,1-.5,5.5,3-.5,1.5,2.5-2,1.5,1,1-2,2.5,1.5,7-1,5v2.5l-1,.5v1l-5.5,3.5-8.5,2.5-1,2.5-2,1-7-1.5-2-1.5,1-7-1-2,3-6.5,4-3.5-1-3-7-1.5-2.5-9.5-4-3,1-4-2.5-3.5,2-1.5-5.5-7.5"/>
      <path data-code="enotaevskij_rajon" data-title="enotaevskij rajon" class="cls-1" d="M60.5,68.76l7,1.5,2-1,1-2.5,8.5-2.5,1.5,1.5-.5,2.5,1.5,1,.5-2.5,1.5-.5v7l4-.5,1,2-.5,2,1,3.5.5,10-.43,4.73-3.57-2.23-17.5,5-4.5-3-4.5-14-.5-7.5,2-4.5M73,101.26l7.5-1.5,9.5-1,2.5,1.5-2.5,3,.5,3.5h-2l-.5,1,3.5,3.5-.5,5,2-.5v6l1,2-1,4.5-3,.5,3,12,2,1.5v-4l1.5.5.5-1,1,2.5-.5,3.5,1,2.5,3,.5-2.5,1.5-1,3-2.5,3.5,5.5,2.5v1l-2.5,2,1,1.86-2,2.5-1-2-6,2-3.5-5-2,3.5h-5l-8.5-3,.5-2.5-3-2-4,3.5-7.7,2.56.7-5.43,7-4,4-7,1.5-1,3.5-7.5-5-5,1-4-1-2,4-24.5"/>
      <path data-code="gorodskoj_okrug_astrakhan_" data-title="gorodskoj_okrug_astrakhan&amp;apos;" class="cls-1" d="M85,199.12h3l.5-1,1.5-.5v-.5l1-1v-1l2.5.5v-2h-1.5l1.5-4.5,1.5.5-1,2.5,1.5,4,1.12-2.52.88.02.5-1,2.5,2.5v4.5l-1.5-2.5-.5,1,1,1.5-1.5-.5-2,2-1.5-1.5-2,.5.5,1.5-1.5-1-.5,1.5-2-1.5-.5,1-2-.36-1.46-.66-1.04-.97h1.5l-.5-.5Z"/>
      <path data-code="ikrjaninskij_rajon" data-title="ikrjaninskij rajon" class="cls-1" d="M53,196.76l.5-1,3,2,.5-1-1.5-1,14,4.86,1-.5-1.5-2,1.5-2,4,3.5,2.5-2,6.5,3.5.5-1,2.5,1.14-2.5,1.86-3.5,1.64-.5,1.5h-3.5l1,1.5-2,2.5-3,.5-1,2-1.5.5.5.5-1.5,3.5.5,3-4,2,2.5,2-.5,1.5-1,5-3,5.5h-1l1-2-2.5,3,2,2.5-.5.5-4,8-1.5.5-1-1.5,2-7.5-1,1-1.5-.5-3.5,6,.5-4,1-.5-1-.5,1.5-1.5-1-.5,2-4-.5-2,1.5-1-1-3,1-2v-3.5l1.5-2.5-2.5-2,1.5-.5.5-1.5h2.5l.5-2,1.5-.5-.5-2,1.5.5.5-1-2.5-3,1.5-2-6-4.5-1,1-2-3.5v-3.5"/>
      <path data-code="kamyzjakskij_rajon" data-title="kamyzjakskij rajon" class="cls-1" d="M71.5,212.76l1-2,3-.5,2-2.5-1-1.5h3.5l.5-1.5,3.5-1.64v3l1.5,1,.5,2.5h-1l.5.5.5,1,1-1.5,2,1.5.5,1.5h1.5l.5,3.5,2-4,1,2,1.5-.5.5-1,4.5,1.5,2,4.5-1,.5.5,1.5-1,4.5,1.5,3-1.5,4-1.5,2-1,6-6,12-2.57-1.25.57-1.11-3,.85-7-4.85-1-3-5.5-.5-4.34-.11-3.36-4.65,1.7-.74-1.5-1.5h-3l2.5-4.5,1-5,.5-1.5-2.5-2,4-2-.5-3,1.5-3.5-.5-.5,1.5-.5Z"/>
      <path data-code="kharabalinskij_rajon" data-title="kharabalinskij rajon" class="cls-1" d="M89.5,90.26l3-.5.5,2,11.5-1,5.5-1v4l4,9,5-5.5,1.5-3,7,10,11.5,6.5,2,.5,3,2.5,1.5,5.5-.5,13-15.5,22-6-1.5-4,7.5-5-2.5-6.5-.5-.5,3.5-8,1.36-1-1.86,2.5-2v-1l-5.5-2.5,2.5-3.5,1-3,2.5-1.5-3-.5-1-2.5.5-3.5-1-2.5-.5,1-1.5-.5v4l-2-1.5-3-12,3-.5,1-4.5-1-2v-6l-2,.5.5-5-3.5-3.5.5-1h2l-.5-3.5,2.5-3-2.5-1.5-1-3,.5-5.5"/>
      <path data-code="krasnojarskij_rajon__astrakhanskaja_oblast_" data-title="krasnojarskij_rajon_(astrakhanskaja_oblast&amp;apos;)" class="cls-1" d="M107.5,160.76l.5-3.5,6.5.5,5,2.5,4-7.5,6,1.5,15.5-22v9l2.5,1.5-3.5,25,.5,25.5-6,2-6.5-3-.5-3,.5-1.5-.5-2.5-4-1.5-3,.5-2,3.5h-1l-.5.5,2,2.5-1,2.5,2.5,1.5h-4v1.5l8,6-.5,4.36-.7-.12-2.8-1.88h-5.5l-.5-4-1.5-1-2,2.5-2.5-3v-2l-5,2v-4l-3,2-.5.5,1-1.5h-1.5l-1-4,.5-1.5,1-1-1-2v-1l1-.5-3.5-.5-1.5-4,2-.5-.5-2.5,1-2-1-1.5.5-.5v-2l2-1.5-3.5-4,2.5-1.86.5-2-.35-1.59,5.35-.91Z"/>
      <path data-code="limanskij_rajon" data-title="limanskij rajon" class="cls-1" d="M11,185.76l2-2.5,6.5,3,7-12,5.5-5.14,2,3-5,4.5-3,4,7,5.5,1.5-2,3.5,4,2.5-3.5,12.5,5,5,4.5.17,2.56-2.67-.93,1.5,1-.5,1-3-2-.5,1v3.5l2,3.5,1-1,6,4.5-1.5,2,2.5,3-.5,1-1.5-.5.5,2-1.5.5-.5,2h-2.5l-.5,1.5-1.5.5,2.5,2-1.5,2.5v3.5l-1,2,1,3-1.5,1-.5-.5-1,2-1.5.5h-1.5l1-1-.5-1,.5-1-1-4-2,1-7-6-1,1h-4l-9-5.5-2,1-6-1-1-2,.5-2-3-2,1.5-1.5-6-6.5v-.5l4.5-3,1.5-2.5-5-4.5-1-8.5M45,237.26l.5-4,2-2.5,1.5,2-3.5,3v1.5h-.5M.5,217.76l1.5-2,8,3,2.5-2.5,4.5,2.5-1,1.5,4.5,2.5-4,4-1.5-3-5.5-3.5-2.5,2-2-.5.5-.5-5-3.5M54,236.76l-1,2.5,1-2.5"/>
      <path data-code="narimanovskij_rajon" data-title="narimanovskij rajon" class="cls-1" d="M30,164.62l5.5-1.5,1,2.5,7.5-3,7.5,3.5,4,3,2-5v-2.5l7.5-2.5,4-3.5,3,2-.5,2.5,8.5,3h5l2-3.5,3.5,5,6-2,1,2,2-2.5,2.65-.45.35,1.59-.5,2-2.5,1.86,3.5,4-2,1.5v2l-.5.5,1,1.5-1,2,.5,2.5-2,.5,1.5,4,3.5.5-1,.5v1l1,2-1,1-.5,1.5.41,1.64-3.41-1.14v-2h-1l1.5-1.5-1-1-3.5,1.5,2,2-2,4.5-1.5-4,1-2.5-1.5-.5-1.5,4.5h1.5v2l-2.5-.5v1l-1,1v.5l-1.5.5-.5,1h-3l.5.5h-1.5l1.04.97-1.04-.47-.5,1-6.5-3.5-2.5,2-4-3.5-1.5,2,1.5,2-1,.5-11.33-3.94-.17-2.56-5-4.5-12.5-5-2.5,3.5-3.5-4-1.5,2-7-5.5,3-4,5-4.5-4.5-6.5.5-1"/>
      <path data-code="privolzhskij_rajon__astrakhanskaja_oblast_" data-title="privolzhskij_rajon_(astrakhanskaja_oblast&amp;apos;)" class="cls-1" d="M84,203.12l2.5-1.86,2,.36.5-1,2,1.5.5-1.5,1.5,1-.5-1.5,2-.5,1.5,1.5,2-2,1.5.5-1-1.5.5-1,1.5,2.5v-4.5l-2.5-2.5-.5,1-.88-.02.88-1.98-2-2,3.5-1.5,1,1-1.5,1.5h1v2l3.41,1.14.59,2.36h1.5l-1,1.5.5-.5v3l4,7.5-2.5-1.5h-1l.5,4-1,.5-2-3v1.5l-2,2.5.5,2.5-4.5-1.5-.5,1-1.5.5-1-2-2,4-.5-3.5h-1.5l-.5-1.5-2-1.5-1,1.5-.5-1-.5-.5h1l-.5-2.5-1.5-1v-3"/>
      <path data-code="volodarskij_rajon__astrakhanskaja_oblast_" data-title="volodarskij_rajon_(astrakhanskaja_oblast&amp;apos;)" class="cls-1" d="M104.5,197.12l3-2v4l5-2v2l2.5,3,2-2.5,1.5,1,.5,4h5.5l4.5,3,1,3,2.5,2.5,1,3.5,3.5,2.5h-.5l3.5,10.5-3,1.5,1,3-3.5,1.5-1-.5-1.5,4-7,3v-3l-.5-.5.5-4.5-1.5-.5-1.5,1.5v1l-2.5,4h-.5l-2,4-.5-3.5v.5l-1.5-1.5-2,4-2.5-1-3,4-1.5,1.5,2-7h-.5v1.5h-1.5v-3l-1.5,1.5-.5,4.5-1.5,1v2l-1.5.5-1,.5-.5,1.5h-1v2l-1,1-4.5-2,6-12,1-6,1.5-2,1.5-4-1.5-3,1-4.5-.5-1.5,1-.5-2-4.5-.5-2.5,2-2.5v-1.5l2,3,1-.5-.5-4h1l2.5,1.5-4-7.5v-3"/>
      <path data-code="zato_gorod_znamensk" data-title="zato gorod znamensk" class="cls-1" d="M83.5,8.62h3.5l11.5-3,6.5-5h3.5l8.5,8-1,.5,2.5,6.5,2.5,10.5-13.5,12-15.5-13.5-.5-3-3.5-2-1.5-6h-1.5l-1,.5.5,1.5-.5-.5-.5-3.5,1-1.5-1-1.5"/>
    </g>
</svg>