<svg data-code="RU-CR" xmlns="http://www.w3.org/2000/svg" viewBox="0 0 150.15 140.89">
    <g data-code="respublica_krym" data-title="respublica krym">
      <path data-code="alushta" class="cls-1" d="M57.39,107.26l-.93,2.09-14.5-1.94-7.9,4.12-1.17-.06-1.56,1.78-1.42-3.37.98-1.21-.86-1.22,2.22-1.52-.91-1.32.45-3.76.98-1.46,2.45,1.9,1.49-.35,1.45-1.51,1.43.73-.44,1.6,9.54-.97.97,1.34.22-1.71-.86-.73,2.63,1.22,1-1.22,1.04.91.87,1.56-1.08.24.51.75-.79,1.02.69.22,2.42-.5.02-.61,1.23,1.55,1.46-1.29.62,2.15-2.27,1.56Z" vector-effect="none"/>
      <path data-code="armyansk" class="cls-1" d="M80.74,11.24l-1.16.16.08-2.14-1.72.62-.77-1.01-.68.53-.17,2.12-1.61-.02-.46.82-2.75-2.88,1.18-.31,1.23-3.51,1.25.3,2.73-5.32,1.22.62,2.98,7.83-1.36,2.16Z" vector-effect="none"/>
      <path data-code="bakhchisaraiskij_raion" data-title="bakhchisaraiskij raion" class="cls-1" d="M36.73,100.94l-1.49.35-2.45-1.9-.98,1.46-.45,3.76.91,1.32-1.29.91-.98-.39-.65,1.36-5.37-.72-2.55,1.04-3.16-.46-1.36.94-1.09-.77-2.46,1.18-2.37-.81,1.29-3.64-.1-3.66.7-.05-.41-.73,1.3-2.61-.79-1.88.91-1.75-2.09-.56.15-1.62.79-.9,4.39-1.24-.65-2.86-1.27.05-2.85-2.88,1.55-2.14,3.31.8.5-.98-2.25-3.77.64-2.23,2.06-.07,3.32-3.47,1.44.66-.93,1.22,1.62.89.24,1.67,1.49-.06-.11,1.02,2.85,2.25,1.02-1.19,1.33,1.04.68,4.17,2.19,2.32-.78.67.48,2.56-2.25-.73.1,8.29,4.03-1.04,2.1,1.39.87-.97,1.1,1.18-.75,2.08-1.45,1.51Z" vector-effect="none"/>
      <path data-code="belogorskij_raion" data-title="belogorskij raion" class="cls-1" d="M72.96,104.37l-1.55.2-1.69-1.63-2.32,2.81-2.48-.42-.12.7-2.24.3-2.01-.9-.91.27-.62-2.15-1.46,1.29-1.23-1.55-.02.61-2.42.5-.69-.22.79-1.02-.51-.75,1.08-.24-.87-1.56-1.06-.91-.98,1.22-2.63-1.22-.05-1.29-1.47-.69.1-1.1-.51.66-.34-3.2-1.49-.41.77-3.53,1.11-.32.71-2.88,2.43-2.92-.11-1.18,1.62-1.29-.06-.88,1.32-.5.51-2.54-1.51-1.64,3.85-6.09.75.39,1.74-1.29,2.56,1.99.71,1.02-2.59,4.27,6.16,3.26,1.36,2.63,1.34-.63-.28-1.51.48-.72,4.24,2.63-.78.89,1.2,1.55-2.63,2.3.92.75.86-.98,2.17.12,1.09.84-2.8,3.38.66.6,1.05-.92,2.57,2.12-.78.96.92.74-1.19,1.34-.98-.59-2.2,2.86,2.08,1.74-1.07.6-.12.98,1.78.71-.24.75-1.94,1.65Z" vector-effect="none"/>
      <path data-code="chernomorskij_raion" data-title="chernomorskij raion" class="cls-1" d="M32.79,31.87l-15.87.71-1.45-4.31-4.03-3.68-6.71-.71L.62,17.7l1.83-.79-.37-1.99,6.46-1.96,6.72.68-.64.68.86.25.68-.7,4.28.41.63,1.85,1.72-.96.08-1.48,14.84.88-.72.98.89.64-1.87,1.63,2.96,2.64-2.19,2.79.83.69-2.07,2.87,2.9,2.66-2.8,4.57-2.84-2.17Z" vector-effect="none"/>
      <path data-code="dzhankoiskij_raion" data-title="dzhankoiskij raion" class="cls-1" d="M98.79,62.72l-3.28,1.42-1.39,1.51-2.43-2.52-1.77,1.42,2.4,2.68-.76.97-3.5-2.68-.8,1.07-.93-1.42-2.39-.39-.09-1.26-3.09,1.83-1.57-1.21.56-1.83-1.55-1.14.82-1.07-1.36-1.2-1.4.51-2.61-2.05.76-.53-3.36-1.49,3.23-4.21-2.32-1.91-3.04,1.96-.71-.54,1.52-1.96-1.35-1.06.73-.91-1.31-1.14,1.04-.73.93-.75.86.6,4.09-5.33.41.35,1.15-1.25.12-2.92.89.69,1.47-2.03,1.78,1.59.91-1.17-.62-.79,1.47-1.88-1.42-.71,1.76-1.45-.57-1.25.67-2.32,1.78-.29,1.11-.96-.33-1.21,1.14-.95-.99-1.27,1.77-.71,1.65-1.84,1.9,5.87,5.16,5.06-.24,9.63,1.38.72,3.74-1.21,2.02,2.26,1.09,7.69,1.34,1.75-3.95,4.92,3.71,7.38-6.23-.36ZM83.47,50.76l1.12-.57-1.46-1.58.74-.55-.44-.51-.5,1.64-2.32,1.71,1.49,1.92,2.28-1.36-.92-.69Z" vector-effect="none"/>
      <path data-code="dzhankoj" class="cls-1" d="M82.11,52.81l-1.49-1.92,2.32-1.71.5-1.64.44.51-.74.55,1.46,1.58-1.12.57.92.69-2.28,1.36Z" vector-effect="none"/>
      <path data-code="evpatorija" class="cls-2" d="M17.42,35.11l.44-.47.18.39-.24.37-.39-.3ZM25.23,50.77l-2.29.27-1.55-1.15-1.92.77-.85-.97,4.22-.5,1.86-2.24,2.68,1.25-.98,2.83.23,2.49-1.39-2.75ZM23.51,33.44l.05-.24.44-.45.2.51-.69.18Z"/>
      <path data-code="feodosiya" class="cls-1" d="M94.16,112.88l-4.21.89-.97,1.68.75,1.57-3.53-.42-.77,2.97-.67-2.21-2.52-2.08-1.38.18-1.81,1.8-4.39-.6-.15-.91,2.51-.63-4.22-3.06,1.1-.5,1.15,1.73,1.44.18-.76-1.05.92-.68,1.87,1.53-.7-1.4,1.2-.1.66-1.18,3.47,1.11,1.57-2.6.56.74,2.83-2.82.86,2.82,1.45.19,1.02-1.72,4.4,1.87.64-1.97,2.42,2.55,1.01-.56-1.34,3.51-4.41-.85Z" vector-effect="none"/>
      <path data-code="kerch" class="cls-1" d="M145.74,129.78l-3.71-3.9-1.63.85.46,1.93-4.13-.19-.71,1.81-.17.08-.21-.5-.2-.24-.08-.04.44.81-.95.3.17.13,1.45-.77.3-.94v.75s-1.87,1.36-1.87,1.36l-1.79.45,1.01-.85-.62-3.08,4.18-.63.78-1.42-.33-2.54,2.05-.46,1.1,1.78,2.21.14.51,1.32,1.49-.6-.08,2.61,1.47,1.18,2.06-.97.13.88-3.3.75Z" vector-effect="none"/>
      <path data-code="kirovskij_raion__respublica_krym_" data-title="kirovskij_raion_(respublica_krym)" class="cls-1" d="M101.33,103.5l-1.63,3.1-1.51-.85-1.72,2.48-.64,1.97-4.4-1.87-1.02,1.72-1.45-.19-.86-2.82-2.83,2.82-.56-.74-1.57,2.6-3.47-1.11-.66,1.18-6.24-3.6,1.44-.46.53-3.46,3.29-2.31-1.56-1.7-1.59,1.06-1.54-.06.12-.98,1.07-.6-2.08-1.74,2.2-2.86,1.8,1.06-1.05.95,1.7,1.38,2.35-2.98,2.5,1.42.49-.61,1.06,2.36,2.16,1.15,2.57-3.9-.63-.52.76-1.36-1.53-1.48.74-.99.48.4.72-.96,3.17,1.33,9.53-8.96,1.08-.35-1.22,9.84.69.32-.45,7.43,1.1.09.59,1.93-1.92.89Z" vector-effect="none"/>
      <path data-code="krasnogvardejskij_rajon__respublica_krym_" data-title="krasnogvardejskij_rajon_(respublica_krym)" class="cls-1" d="M74.05,77.19l-2.3-1.79-2.66,4.49-.94-.58-.48.72.28,1.51-1.34.63-1.36-2.63-6.16-3.26,2.59-4.27-.71-1.02-2.56-1.99-1.74,1.29-.75-.39-1.06,1.69-3.59-3.02,1.33-.79-1.1-.86-.69.82-1.68-1.32-2.54,1.71-.77-.56,2.39-2.92-1.64-1.42,1.23-2.94-.98-.8,2.14-2.28,3.71,1.73,2.28-3.01,2.36,1.74,3-3.96-.57-.46-1.26.75-1.57-.9.84-1.08.45.33,2.59-3.98,3.12,2.27,2.38-3.08-2.03-1.95.63-1.51,1.04-1.11,1.89.29,1.07,1.54-1.04.73,1.31,1.14-.73.91,1.35,1.02-1.52,1.99.71.54,3.04-1.96,2.32,1.91-3.23,4.21,3.36,1.49-.76.53,2.61,2.05,1.4-.51,1.36,1.2-.82,1.07,1.55,1.14-.56,1.83,1.57,1.21-1.63.97-1.11,2.95-2.25-.15-1.1,1.94,1.63,1.09-.79,1.09.75.61-1.29,2.17-.93,1.18Z" vector-effect="none"/>
      <path data-code="krasnoperekopsk" class="cls-1" d="M74.57,22.05l-1.44-.61-.56,1.47-1.27-1.85.79-2.1,2.44.7-.64,1.44,1.68-.76.48.65-1.47,1.06Z" vector-effect="none"/>
      <path data-code="krasnoperekopskij_raion" data-title="krasnoperekopskij raion" class="cls-1" d="M80.54,35.8l-1.78-1.59-1.47,2.03-.89-.69-.79.99-2.25-1.76-.77,1,.44.71-1.22.24-1.32-1.11.76-1.07-2.9-1.87.23-1.25-3.61-3.54-1.3,1.62-2.01-1.47,1.86-2.5.55.37.74-.91-1.37-.8,2.51-4.05,4.29.48.35-1.06-1.72-1.97-3.03-1.49,1.36-.71,3.31-5.38.98-.54,2.75,2.88.46-.82,1.61.02.17-2.12.68-.53.77,1.01,1.72-.62-.08,2.14,1.16-.16,1.36-2.16-.71-2.67,3.44,2.03,2.03,8.1,2.01,2.47-1.65,1.84-1.77.71.99,1.27-1.14.95.33,1.21-1.11.96-1.78.29-.67,2.32.57,1.25-1.76,1.45,1.42.71-1.47,1.88.62.79-.91,1.17ZM75.56,20.34l-1.68.76.64-1.44-2.44-.7-.79,2.1,1.27,1.85.56-1.47,1.44.61,1.47-1.06-.48-.65Z" vector-effect="none"/>
      <path data-code="leninskij_raion__respublica_krym_" data-title="leninskij_raion_(respublica_krym)" class="cls-1" d="M146.86,129.12l-1.47-1.18.08-2.61-1.49.6-.51-1.32-2.21-.14-1.1-1.78-2.05.46.33,2.54-.78,1.42-4.18.63.62,3.08-1.01.85-2.42,5.17-.14,2.7-1.07.72-3.67-.28-4.7-2.72-1.96.5-6.06-6.42-4.38-.03-1.2-1.51-3.56-.88.88-3.27-.93-5.08-2.57-4.81-2.74-2.03,1.34-3.51-1.01.56-2.42-2.55,1.72-2.48,1.51.85,1.63-3.1,1.92-.89-.59-1.93-1.1-.09.45-7.43-.69-.32,1.22-9.84.1-9.81.71-5.22,1.67-4.89-1.8,11.49-1.05,17.85.41,6.06,1.76,5.72,9.46,2.82,3.14-1.1.37-1.44,4.12-.25,1.27-1.61,1.39-.02.7,1.06-1.74.37-.35,2.67,1.96,5.33,3.13.91,1.7-.6,1.4-1.89,2.76.27,6.47,3.13,1.04,1.73,1.17-.26.95,3.98,2.66,1.05,1.44,3.91,2.12.33-.6,3.56-2.06.97Z" vector-effect="none"/>
      <path data-code="nizhnegorskij_raion" data-title="nizhnegorskij raion" class="cls-1" d="M98.25,75.27l-3.08,3.14-3.11-1.78-2.01,3.16-2.64-2.79-.3,1.38-3.78-2.23-.1,4.38-.93.47-1.65-1.34-2.81,4.19-1.42-1.09-.78,1-1.37-.27-1.11,1.04-1.53-1.67.78-.89-3.31-2.06,2.66-4.49,2.3,1.79.93-1.18,1.29-2.17-.75-.61.79-1.09-1.63-1.09,1.1-1.94,2.25.15,1.11-2.95,4.72-2.8.09,1.26,2.39.39.93,1.42.8-1.07,3.5,2.68.76-.97-2.4-2.68,1.77-1.42,2.43,2.52,1.39-1.51,3.28-1.42,6.23.36-1.67,4.89-.71,5.22-.03,3.07-4.36-.99Z" vector-effect="none"/>
      <path data-code="razdol_nenskij_raion" data-title="razdol&amp;apos;nenskij_raion" class="cls-1" d="M59.67,30.07l-.9,2.11-.8-.83.7-.89-1.36-1.04,1.15-1.48-1.7-1.29-5.33,6.36-.91-.6-1.77,2.12-1.97-.35-2.21,3.2-2.25,1.89,4.06,3.64-1.25,1.78-1.77-.82-1.76,1.53-.82-.65,1.42-1.61-.41-1.32-4.78-2.66,1-1.31,1.37.3,2.27-2.42-2.71-1.76.7-.88-1.01-1-1.61,3-1.38-1.06,2.8-4.57-2.9-2.66,2.07-2.87-.83-.69,2.19-2.79-2.96-2.64,1.87-1.63-.89-.64.72-.98,2.74.41,3.51-3.18.53-.26-1.13.98-.18,1.6,1.97,2.71,12.76.79-.68,1.09,1.19.28v1.13s2.25-1.16,2.25-1.16l2.59.06.77,2.16-.59,3.01,1.37.8-.74.91-.55-.37-1.86,2.5.73.53-.65,1.87-2.09-.37Z" vector-effect="none"/>
      <path data-code="pervomajskij_raion__respublica_krym_" data-title="pervomajskij_raion_(respublica_krym)" class="cls-1" d="M75.13,39.72l-.41-.35-4.09,5.33-.86-.6-.93.75-1.07-1.54-1.89-.29-1.04,1.11-.63,1.51,2.03,1.95-2.38,3.08-3.12-2.27-2.59,3.98-.45-.33-.84,1.08,1.57.9,1.26-.75.57.46-3,3.96-2.36-1.74-2.28,3.01-2.63-1.24,2.07-3.63-3.56-2.79,2.48-2.08-2.94-1.93-.88,1.24-1.24-.89.35-2.39-1.16-.53,1.25-1.79-4.05-3.62,2.25-1.89,2.21-3.2,1.97.35,1.77-2.12.91.6,5.33-6.36,1.7,1.29-1.15,1.48,1.36,1.04-.7.89.8.83.9-2.11,2.09.37.65-1.87,1.28.93,1.3-1.62,3.61,3.54-.23,1.25,2.9,1.87-.76,1.07,1.32,1.11,1.22-.24-.44-.71.77-1,2.25,1.76.79-.99-.12,2.92-1.15,1.26Z" vector-effect="none"/>
      <path data-code="saki" class="cls-1" d="M30.47,61.96l-2.56-1.72-1.22.39.25-3.58,4.18,3.24-.94.66.29,1.02Z" vector-effect="none"/>
      <path data-code="sakskij_raion" data-title="sakskij raion" class="cls-1" d="M42.43,64.98l-1.07,1.4.89,1.11-3,2.54-4.96-2.88-.76.97.91.77-1.3,1.71-4.58-2.99-1.99,2.93-2.52-2.35,2.62-7.57,1.22-.39,2.56,1.72-.29-1.02.94-.66-4.18-3.24-.56-6.02.98-2.83-2.68-1.25-1.86,2.24-4.22.5-1.41-5.8-.28-11.3,15.87-.71,4.22,3.23,1.61-3,1.01,1-.7.88,2.71,1.76-2.27,2.42-1.37-.3-1,1.31,4.78,2.66.41,1.32-1.42,1.61.82.65,1.76-1.53,2.92,1.35-.35,2.39,1.24.89.88-1.24,2.94,1.93-2.48,2.08,3.56,2.79-2.07,3.63-1.08-.5-2.14,2.28.98.8-2.72,6.5-2.61-1.83ZM18.04,35.03l-.18-.39-.44.47.39.3.24-.37ZM24,32.74l-.44.45-.05.24.69-.18-.2-.51Z" vector-effect="none"/>
      <path data-code="simferopol_" data-title="simferopol&amp;apos;" class="cls-1" d="M39.6,79.4l.21-1.56-1.9.26,1.29-1.31-.57-.97,2.34-1.85-2.14,2.07,1.15.12-.44,1.54,1.24.37.6-1.15-.1,2.45-1.68.03ZM44.96,83.51l-2.81-.64-.99-1.33-4.42,1.84,1.11.85-1.47,1.25.48,1.96,1.28-.84.02.96,1.15-.26-.85,1.03,1.29-.73.56,1.09.84-.35-.28-2.45,1.74-.5.31-1.25,1.85.08.19-.73Z"/>
      <path data-code="simferopolskij_raion" data-title="simferopolskij raion" class="cls-1" d="M39.98,76.16l-.44,1.54,1.24.37.6-1.15-.1,2.45-1.68.03.21-1.56-1.9.26,1.29-1.31-.57-.97,2.34-1.85-2.14,2.07,1.15.12ZM44.96,83.51l-2.81-.64-.99-1.33-4.42,1.84,1.11.85-1.47,1.25.48,1.96,1.28-.84.02.96,1.15-.26-.85,1.03,1.29-.73.56,1.09.84-.35-.28-2.45,1.74-.5.31-1.25,1.85.08.19-.73ZM48.71,100.79l-9.54.97.44-1.6-1.43-.73.75-2.08-1.1-1.18-.87.97-2.1-1.39-4.03,1.04-.1-8.29,2.25.73-.48-2.56.78-.67-2.19-2.32-.68-4.17-1.33-1.04-1.02,1.19-2.85-2.25.11-1.02-1.49.06-.24-1.67-1.62-.89.93-1.21-1.43-.67,1.65-3.11.96-.7,2.52,2.35,1.99-2.93,4.58,2.99,1.3-1.71-.91-.77.76-.97,4.96,2.88,3-2.54-.89-1.11,1.07-1.4,2.61,1.83,1.5-3.56,1.64,1.42-2.39,2.92.77.56,2.54-1.71,1.68,1.32.69-.82,1.1.86-1.33.79,3.59,3.02-2.78,4.41,1.51,1.64-.51,2.54-1.32.5.06.88-1.62,1.29.11,1.18-2.43,2.92-.71,2.88-1.11.32-.77,3.53,1.49.41.34,3.2.51-.66-.1,1.1,1.47.69.05,1.29.86.73-.22,1.71-.97-1.34Z"/>
      <path data-code="sovetskij_raion__respublica_krym_" data-title="sovetskij_raion_(respublica_krym)" class="cls-1" d="M101.46,83.36l-9.53,8.96-3.17-1.33-.72.96-.48-.4-.74.99,1.53,1.48-.76,1.36.63.52-2.57,3.9-2.16-1.15-1.06-2.36-.49.61-2.5-1.42-2.35,2.98-1.7-1.38,1.05-.95-.81-.47,1.19-1.34-.92-.74.77-.98-2.56-2.09-1.05.92-.66-.6,2.8-3.38-1.09-.84-2.17-.12-.86.98-.92-.75,4.07-3.21,1.37.27.82-1,1.38,1.09,2.81-4.19,1.65,1.34.93-.47.1-4.38,3.78,2.23.3-1.38,2.64,2.79,2.01-3.16,3.11,1.78,3.08-3.14,4.37.99-.07,6.74-1.08.35Z" vector-effect="none"/>
      <path data-code="sudak" class="cls-1" d="M76.66,111.75l-.92.68.76,1.05-1.44-.18-1.15-1.73-1.1.5,4.22,3.06-2.51.63.15.91-3.54,2.88-3.05.43-.87-1.44.72-.69-.1-1.39-1.85-2.28-3.09-.24-6.44-4.58.93-2.09,2.27-1.56.91-.27,2.01.9,2.24-.3.12-.7,2.48.42,2.32-2.81,1.69,1.63,1.55-.2,1.94-1.65.24-.75-1.78-.71,1.54.06,1.59-1.06,1.56,1.7-3.29,2.31-.53,3.46-1.44.46,6.24,3.6-1.2.1.7,1.4-1.87-1.53Z" vector-effect="none"/>
      <path data-code="yalta" class="cls-1" d="M28.5,111.77l-2.47,1.12-3.49-1.67-4.24,2.49-7.22-2.32-3.22-3.87-4.29-1.83,9.77,3.33,2.46-1.18,1.09.77,1.36-.94,3.16.46,2.55-1.04,5.37.72.65-1.36.98.39-.93.61.86,1.22-.98,1.21.98,2.32-2.39-.42Z" vector-effect="none"/>
    </g>
</svg>