<svg data-code="RU-DA" xmlns="http://www.w3.org/2000/svg" viewBox="0 0 158.25 278.89">
    <g data-code="dagestan">
      <path data-code="agul_skij_rajon" data-title="agul&amp;apos;skij_rajon" class="cls-1" d="M56.62,227.26h3.5l1-1,3,.5,1.5,2-1.5,1.5,1,.5,1.5-.5,1.5-2.5,5-2,2,3-1,2,2,1.5-2,.5,1.5,1-.5,2-1,.5.5,1-.5,1,1.5,2v3l-1,.5-2,3-2.5-.5-2,1-.5-3,.5-.5-1.5-2v2h-1l-.5,2-.5-5-2-.5-1,2,.5,1-1.5-1.5-3.5.5.5-9.64-1.5-.5-.5-2.5,1-2.36Z"/>
      <path data-code="akhtynskij_rajon" data-title="akhtynskij rajon" class="cls-1" d="M42.62,257.12l5.5-2,.5,3.5,3,.64,6.5-10,.5-1.5,8,15-7,7v1.5l-2,1-1,2h-2l-3,2v-2.5l-2.5-1.5-5-1-.5-2.5,1-2-4-2.5-3-4.5-.5-3,1.5-1.64,4,2Z"/>
      <path data-code="akhvakhskij_rajon" data-title="akhvakhskij rajon" class="cls-1" d="M39.12,155.76l1.5-1.5,6.5,3-1,3.5,1,1.5,1-.5-.5,2.5h-1.5v1l-5,2-3-.5-1,1-1.5-1,1.5-4.5-.5-2,1.5-2-.78-1.56,1.78-.94Z"/>
      <path data-code="akushinskij_rajon" data-title="akushinskij rajon" class="cls-1" d="M68.12,194.26l2.5-1,3,5.5,4.5,1,1,2.5,2.5,1v2.86l-1.5-.5.5,1.5-.26.77-3.24-1.63-2.5,5.5-3,.5-2,2.5-.5,2.5-1,.5.5,1.5-3.5,1.5v-2.5l-2.5-2,3.5-6-1-1.5.5-1.5-1.39-.91,1.39-2.09,2-1-.5-7.5,1-1.5"/>
      <path data-code="babajurtovskij_rajon" data-title="babajurtovskij rajon" class="cls-1" d="M78.62,104.26l2-.5,1-4,3-1,1-2,6-2.5,4,2.5,7,.5,1.5,1.5-.5.5h2l-.5,1.5,2-2.5h1.5v1.5l7.5,2.5.5,1.5h2l3.5,3-.5,2,1.5,1.5,1,4.5-.5,2-2.5,3v-1.5l-2,1.5-1,2v5l-.5,2.5,1,1.5,2.5-1.5,2-4,5.5-5.5,2.02,1.03-13.02,14.47-5.21,9.17-13.29-15.67-2.05-1.78.55-.22-.5-1.5,2.5-3-1-3-8-2,.5-2-1.5-1.5-1.5.5-1-3.5-1.5-1.5,1.5-1-5-1.5-3.5-2.5"/>
      <path data-code="botlikhskij_rajon" data-title="botlikhskij rajon" class="cls-1" d="M31.62,147.76l1.5-2,3,1,1-2,4.5,1.5,1-4-1-1.5,6-3.5,1,.5v2.5l2.5-.5v1.5l2-2.5,1,4.5-1.01,1.5h-2.49l-.5,5.5-2,3.5,4,3,1,2.5-3-1-3,4-1-1.5,1-3.5-6.5-3-1.5,1.5-1.78.94-1.72-3.44-4.5-3.5,1,.5-.5-2.5"/>
      <path data-code="bujnakskij_rajon" data-title="bujnakskij rajon" class="cls-1" d="M81.12,161.76l.5,1.5-1,1.5h2.5l1.5-.5-1-1.5.5-1-2-1-1,1M64.62,148.76l3-2,3,.5.5-1,2.5-1,.5,2,2.5,1v-2l3.5-1,1-1.5-.5-2.5,1.5-2,4.5,3.81.5,4.69-.5,1-1.5-.5-.5.5,1,1.5-1.5,2,2.5,3.5,1.5-2.5v-2l2-2.5-.5,4,.5,2.5h1.5l.5,1h-2.5l6.5,6,2,4,2,1-2.5-4.5,1-1.5,2,5v4l-1.5.5-2,2.5v-1.5l-6-3.5h-1.5l-1.5,3.5-6.5,5.5,3.5,2.5v1l-1,2,2-.5-4,1-6.5-4.5-.5-4.5-1-1.5v-3.5l-2.5-3-2-7,5-2.5v-2l2.5-2.5-6.5,2-6-5.5"/>
      <path data-code="charodinskij_rajon" data-title="charodinskij rajon" class="cls-1" d="M37.12,188.62l3.5-2.5h2.5l1-3,6.97-1.12-.47,1.25,3,4-1.5,1.5,1.5.5-1,1,1.5,2-1.5,1.5v5l-.5,1.5-2,2.5,1,1-1,2.5-2.5.5-3.5,5.5.35,1.52-4.85.48-1-2-2.99.27v-5.4s-1.51-1.5-1.51-1.5l1.5-2.5-.5-2.5,2.5-3,1.5-.5v-1l1-1.5-4-1-1-3,2-2Z"/>
      <path data-code="cumadinskij_rajon" data-title="cumadinskij rajon" class="cls-1" d="M11.12,157.26l4.5-3,1-2.5,2.5.5,5.5-1.5.5-2,2-.5.5,2.5,3.5-1,4.5,3.5,2.5,5-1.5,2,.5,2-1.5,4.5-3,2.5-1.5,2.5-7,1v-1h-2.5l-2-2,2.5-3.5-2.5-3.5.5-2.5-2.5.5-3.5,2.5-1.5-2-2.5-.5,1-3.5"/>
      <path data-code="cuntinskij_rajon" data-title="cuntinskij rajon" class="cls-1" d="M.62,163.76l4-3,3.5,2,2-2,2.5.5,1.5,2,3.5-2.5,2.5-.5-.5,2.5,2.5,3.5-2.5,3.5,2,2h2.5v1l-4.5,4v3h2l.5,1.86,2.5,1.5-2.5,5-2.5.5-2,2.64-3-.5.5-1.5-3,.5,1-4-2,.5-.5-2-1-1-2,1-1-1.5,1-1-.5-1.5,1-.5v-2l-3.5-3-1,.5v-2l-1-1,1-1-3-4.5v-3"/>
      <path data-code="dakhadaevskij_rajon" data-title="dakhadaevskij rajon" class="cls-1" d="M61.62,224.26l3-2,.5-1.5,3.5-1.5-.5-1.5,1-.5.5-2.5,2-2.5,3-.5,2.5-5.5,3.24,1.63-.74,2.23,2-.5.5,2.5,2.5-.5,1.06,1.59-.06,3.05-1,1,1,.5-1.5,1.5,1.5,2-1,1h-2.5l-2-1.5-2,2.5v.5l-1,.5-.5,1.5-2.5,1.5-1-1.5-5,2-1.5,2.5-1.5.5-1-.5,1-2-1-1.5-3-.5.5-2"/>
      <path data-code="derbentskij_rajon" data-title="derbentskij rajon" class="cls-1" d="M101.12,230.26l1,2.5,2-1.5-2-2-1,1M99.62,220.26l.5-1.5h1.5l1-3,1.5.5.5-1,1,3-.5,12,.49,3.24-.49-.24-2,4.5.5,2.5h1l-1,4.5.5,2,4,5.5-3.5,2.5-3,.5-2.5-5.5-3.5-.64-2.5-6h2.5l1.5,2-1-3.5.5-3h-1.5l-1-2,1-2,1-4.36,2.5-1.5-4.5.5.36-1.37,3.14-.63-.5-2-1.5-1.5,1.5-.5-.03-3.69,2.53.69Z"/>
      <path data-code="dokuzparinskij_rajon" data-title="dokuzparinskij rajon" class="cls-1" d="M51.62,276.26l3-2h2l1-2,2-1v-1.5l7-7,4.5,1.5,5.5.31v1.19l-2,1v1l-.5.5h-2.5l-2.5,3.5-1.5.5-1-.5-.5,2.5-4,.5-2.5,3.5h-1.5l-2-1.5-3,1-1.5-1.5"/>
      <path data-code="gergebil_skij_rajon" data-title="gergebil&amp;apos;skij_rajon" class="cls-1" d="M63.12,169.76l1-1.64,2.5,7.5,1.5-1.5,2,.14,2.5,3.5v-1.5l1,3,2,.5-2,2,1,3-2,1-.5-1-1.5,1-3-2v5.5l-2-5-5,1-.5-2.5,1.5-2v-2l2-2-1-4.5,1-1.5-.5-1"/>
      <path data-code="gorodskoj_okrug_bujnaksk" data-title="gorodskoj okrug bujnaksk" class="cls-1" d="M81.12,161.76l1-1,2,1-.5,1,1,1.5-1.5.5h-2.5l1-1.5-.5-1.5"/>
      <path data-code="gorodskoj_okrug_dagestanskie_ogni" data-title="gorodskoj okrug dagestanskie ogni" class="cls-1" d="M101.12,230.26l1-1,2,2-2,1.5-1-2.5"/>
      <path data-code="gorodskoj_okrug_derbent" data-title="gorodskoj okrug derbent" class="cls-1" d="M105.12,233.26l1,.5-1.5,6.5h-1l-.5-2.5,2-4.5"/>
      <path data-code="gorodskoj_okrug_izberbash" data-title="gorodskoj okrug izberbash" class="cls-1" d="M103.62,194.76h1v4.5l-1-.5v-4"/>
      <path data-code="gorodskoj_okrug_juzhno-sukhokumsk" data-title="gorodskoj okrug juzhno-sukhokumsk" class="cls-1" d="M90.12,18.12v1h-1l-1-1.5,2,.5Z"/>
      <path data-code="gorodskoj_okrug_kaspijsk" data-title="gorodskoj okrug kaspijsk" class="cls-1" d="M106.62,170.76l.5,1-1,2-1-1-.5-1.5,2-.5Z"/>
      <path data-code="gorodskoj_okrug_khasavjurt" data-title="gorodskoj okrug khasavjurt" class="cls-1" d="M76.62,121.26l3,1.5-.5,2h-1v1.5l-3-1.5.5-1,1-2.5Z"/>
      <path data-code="gorodskoj_okrug_kiziljurt" data-title="gorodskoj okrug kiziljurt" class="cls-1" d="M85.12,131.76l3.5,3.5-1.5.5-1-1-1,2-.5.5-.5-1.5,1.5-2-.5-1v-1Z"/>
      <path data-code="gorodskoj_okrug_kizljar" data-title="gorodskoj okrug kizljar" class="cls-1" d="M99.62,91.26l3.5-1,1,.5-1.5,2.5-3-2"/>
      <path data-code="gorodskoj_okrug_makhachkala" data-title="gorodskoj okrug makhachkala" class="cls-1" d="M97.62,151.26l2-2,3.5,1,1,1.5-1,2.5,1,.5-3,1,1.5,3,2-1.5-.5-2.5,2-.5,2.5-4.5,4.5-4.5-.71-.83,5.21-9.17,13.5-15-.5-1,1,.5,9-6.5-.5-4,5.5,1v1.5l-5,2-8.5,6.5-4,4.5-.5,1.5-5.5,4.5-4.5,5.5v3l-1-1-2,3.5-.5,2,3-1,.5-3,.5,2-1.5,3-1.5,2.5-5,3-5.5,7-1,3.5,1,1,2,7.5v1.5l-2,.5.5,1.5,1,1,1-2,.5,1.5-1.5.5h-1.5l-1-1.5-.5-2.5-2.5-1.5v-2l-2-5-1,1.5-2-3.5,2-3-.5-2.5,1.5-.5-1-2M146.62,110.26v-1.5l1.5-1v-.5l-5-.5.5-2,1.5-.5h1l7,5-3.5,1h-3Z"/>
      <path data-code="gumbetovskij_rajon" data-title="gumbetovskij rajon" class="cls-1" d="M50.62,144.76h5.5l1.5-.5v-1h3l3,.5,2,.5-2,3,1,1-.5,3.5,2.5,1,1.13-1.13,2.87,2.63,6.5-2-2.5,2.5-4.5,2h-1.5l-1,1.5-4.5-2.5-1,1.5h-3l1,2.5-2,3.5-3.5-5-1.5,1-1-2.5-4-3,2-3.5.5-5.5"/>
      <path data-code="gunibskij_rajon" data-title="gunibskij rajon" class="cls-1" d="M52.62,181.76l-.5-1,1-1.5,2-.14,1-1.5-1-.5,1-1.5,1.9.75,3.6,2.39v2l-1.5,2,.5,2.5,2.5-1h2.5l2,5-3.5,3,.68.23-1.18,2.27-1.5-.5v1l-.5.5.5,1-1.5-.5-1,2.5-2.5-2-4.5,2v-5l1.5-1.5-1.5-2,1-1-1.5-.5,1.5-1.5-3-4,.47-1.25,1.53-.25Z"/>
      <path data-code="kajakentskij_rajon" data-title="kajakentskij rajon" class="cls-1" d="M89.62,205.26l4.5-3,5.5-.5.5-2h-1.5l2-3.5-1.5-1,3-.5,1.5-2.5,2,3.5-1,3.5v-4.5h-1v4l1,.5-.5,10.5,1.5,8.5-1-3-.5,1-1.5-.5-1,3h-1.5l-.5,1.5-5.5-1.5-1.5-2-3.5-.5-.1-2.34,2.6-3.16.5-4-2.5-1.5"/>
      <path data-code="kajtagskij_rajon" data-title="kajtagskij rajon" class="cls-1" d="M74.12,227.26l2.5-1.5.5-1.5,1-.5v-.5l2-2.5,2,1.5h2.5l1-1-1.5-2,1.5-1.5-1-.5,1-1,.06-3.05.94,1.41.5-1.5,1.5-.5-1,3,1.4-1.7.1,2.34,3.5.5,1.5,2,2.97.81.03,3.69-1.5.5,1.5,1.5.5,2-5,1-3.5,3.5-3-1-4,2-6-.5-2-1.5,1-2-1-1.5"/>
      <path data-code="karabudakhkentskij_rajon" data-title="karabudakhkentskij rajon" class="cls-1" d="M81.62,177.26l6.5-5.5,1.5-3.5h1.5l6,3.5v1.5l2-2.5,1.5-.5v-2l2.5,1.5,1.5,4h1.5l1.5-.5.5.5-5.5,13v4l1,1.5-1.5,2.5-3,.5,1.5,1-2,3.5-5-.5,1-3.5-4.5-2h-5l-.5,1.5-1.5-2,1-2-.5-2,1-2-2.5-1,.5-1.5h2l-.5-2,1-2v-1l-3.5-2.5"/>
      <path data-code="kazbekovskij_rajon" data-title="kazbekovskij rajon" class="cls-1" d="M63.62,136.26l2,.5-1-.5.5-1,1.5,1v-2.5l1,.36.5-1.5,3-1.5,1.5,3.64,4.49.75,1.01,2.25h1.5l-.5,4,1.5-.5.5,2.5-1,1.5-3.5,1v2l-2.5-1-.5-2-2.5,1-.5,1-3-.5-3,2,3.13,2.87-1.13,1.13-2.5-1,.5-3.5-1-1,2-3-2-.5-1.5-1.5v-1.5l1-1.5.5-3"/>
      <path data-code="khasavjurtovskij_rajon" data-title="khasavjurtovskij rajon" class="cls-1" d="M73.12,106.76l3.5-.5v-1h1.5l.5-1,3.5,2.5,5,1.5-1.5,1,1.5,1.5,1,3.5,1.5-.5,1.5,1.5-.5,2,8,2,1,3-2.5,3,.5,1.5-2.5,1-.5-5-1.5.5v2l.5.5-1,1-2.5-.5-3.5,2.5v2l-1.5,1v1l-4.5-.5-.5.5,1.5,3.5-9-1.5-1.01-2.43,1.5-3.2-1.5-1.5,3.5-2.86,3,1.5v-1.5h1l.5-2-3-1.5-1,2.5-1-.5-1.5,1.36-1-1.5-3.5-1.5,3-3.36v-2l-1-2,2.5-7.5"/>
      <path data-code="khivskij_rajon" data-title="khivskij rajon" class="cls-1" d="M76.62,234.62l1.5,2.5,4.5,1.5-.5,2.64,1-.5v2l2.5,1v2.5l1-.5,1,2.5-.5,1.5,3,.86v1.5h-1.5l-1-1.5-2,3-1.5-1.5-3,3-2.5-2.5-3.5.5-1-.5-.5-.5,1-2.5-2-2.86,2-3,1-.5v-3l-1.5-2,.5-1-.5-1,1-.5.29-1.18,1.2.04Z"/>
      <path data-code="khunzakhskij_rajon" data-title="khunzakhskij rajon" class="cls-1" d="M44.66,165.87l1.46-.61v-1h1.5l.5-2.5-1,.5,2-3.5,1-.5,3,1,1.5-1,3.5,5,1,3.86h2l1-2,1,1.5-1,.5,2,.64v1.5l-1,.5.5,1-1,1.5,1,4.5-2,2-3.6-2.39-1.9-2.25-3.5.14-1-1.5,1.5-2.5-4.5-3-1,1-2.5-1-.46-1.39"/>
      <path data-code="kiziljurtovskij_rajon" data-title="kiziljurtovskij rajon" class="cls-1" d="M81.62,136.26l-1.5-3.5.5-.5,4.5.5.5,1-1.5,2,.5,1.5.5-.5,1-2,1,1,1.5-.5-3.5-3.5,1.5-1v-2l3.5-2.5,2.5.5,1-1-.5-.5v-2l1.5-.5.5,5,1.95-.78,2.05,1.78h-1.5l-1,1-5,1v1l3,3-1,1.5,2,.5-1.5,1,.5,4-2.5,2-3.5,1-6.5-5.5-1.5,2-1.5.5.5-4h-1.5l-1.01-2.25,4.51.75Z"/>
      <path data-code="kizljarskij_rajon" data-title="kizljarskij rajon" class="cls-1" d="M99.62,91.26l3,2,1.5-2.5-1-.5-3.5,1M93.12,83.76l2.5-3-.5-1.64,1,1.5-.5,4,3.5,1.5,1.5,2,.5-2.5h1l.5-.5-.5-1,2,.5,1-1-1,2.5h2l1-2.5,1,.5,1-1-1-.5,1.5-2-.5-2,2.5-1,1-2.5h1.5l1.5-4,4,.5.5-1,1.5,1.5.5-2,2.5-4v-1.5l2.5-.5-1,2.64,1.5.5.5-1,1,1,1-.5v-1.5l2,2.5-1.5,8,.5,2.5,1,1.5h2.5l1,1.5-2,9,.5,6.5-2,9.5,1,2-2,2,1.5,3-6.5,3,.5,1h-2.5l-2.2,1.55,1.7-2.05.5-2-1-4.5-1.5-1.5.5-2-3.5-3h-2l-.5-1.5-7.5-2.5v-1.5h-1.5l-2,2.5.5-1.5h-2l.5-.5-1.5-1.5-7-.5-4-2.5,1-1,3.5,1,2-.5,1-2.5-1-.5.5-1.5-.5-2-4-1.5.5-1-1.5-1M140.12,109.26l.5,4-9,6.5-1-.5.5,1-.48.53-2.02-1.03,4-4,3.5-5.5,4-1M155.12,73.26l.5,2,2-3.5-1.5,4h-1l-1-3.5,2-2,1,1-2,2"/>
      <path data-code="kulinskij_rajon" data-title="kulinskij rajon" class="cls-1" d="M48.12,218.76l2.5-1,2-2.5-.5-2.5,2-.5v-2.5l3-1,1.5,1.5,2-3v-1l1.5-.5.5,2,1.61-1.41,1.39.91-.5,1.5,1,1.5-3.5,6,2.5,2v2.5l-.5,1.5-3,2-.5,2-1,1h-3.5l-1,2.36h-2.5l-.5-1.5,1.5-3.5h-2.5l-.5-2.5-2.5-1.5-.5-1.86"/>
      <path data-code="kumtorkalinskij_rajon" data-title="kumtorkalinskij rajon" class="cls-1" d="M91.62,130.76l5-1,1-1h1.5l14,16.5-4.5,4.5-2.5,4.5-2,.5.5,2.5-2,1.5-1.5-3,3-1-1-.5,1-2.5-1-1.5-3.5-1-2,2,1,2-1.5.5.5,2.5-2,3,4.5,8-2-1-2-4-6.5-6h2.5l-.5-1h-1.5l-.5-2.5.5-4-2,2.5v2l-1.5,2.5-2.5-3.5,1.5-2-1-1.5.5-.5,1.5.5.5-1-.5-4.69,2,1.69,3.5-1,2.5-2-.5-4,1.5-1-2-.5,1-1.5-3-3v-1"/>
      <path data-code="kurakhskij_rajon" data-title="kurakhskij rajon" class="cls-1" d="M57.12,242.26l3.5-.5,1.5,1.5-.5-1,1-2,2,.5.5,5,.5-2h1v-2l1.5,2-.5.5.5,3,2-1,2.5.5,1.47,2.11-2,2,1.03,1.76-1.5.5,2,3-.5,2.5,1.5.64,1.5-1-.5,1h.5l3-.5-.5,1.5h-.5l.5,2,2,.5-.5,2-9-.5-4.5-1.5-8-15-1.5-5.5"/>
      <path data-code="lakskij_rajon" data-title="lakskij rajon" class="cls-1" d="M47.62,206.76l2.5-.5,1-2.5-1-1,2-2.5.5-1.5,4.5-2,2.5,2,1-2.5,1.5.5-.5-1,.5-.5v-1l1.5.5,1.18-2.27.82.27v3h1.5l.5,7.5-2,1-1.39,2.09-1.61,1.41-.5-2-1.5.5v1l-2,3-1.5-1.5-3,1v2.5l-2,.5.5,2.5-2,2.5-2.5,1-3.65-4.98-.35-1.52,3.5-5.5Z"/>
      <path data-code="levashinskij_rajon" data-title="levashinskij rajon" class="cls-1" d="M67.62,183.76l3,2,1.5-1,.5,1,2-1-1-3,2-2-2-.5-1-3,1.49-.6,1.51,3.1,6.5,4.5,2-.5.5,2h-2l-.5,1.5,2.5,1-1,2,.5,2-1,2,1.5,2,.5-1.5h2.5l-1.5,2,1.5,1v1.5h-1.5l-1.5-2-1,2-.5-.5-1,1,1,2.5-1.5,2-2.5-1-1-2.5-4.5-1-3-5.5-2.5,1-1,1.5h-1.5v-3l-1.5-.5,3.5-3v-5.5"/>
      <path data-code="magaramkentskij_rajon" data-title="magaramkentskij rajon" class="cls-1" d="M80.12,264.76l3.5,2,3.5-3,2-3.64,5-.5v-1l1-.5.5,1,4.5-2.36.82-3,.68,1.5,3-.5,3.5-2.5,1.5,4.5-5,4-7,2.5-4.5,3.5-10,1.5-6.5-1.5v-2.19l3.5.19Z"/>
      <path data-code="nogajskij_rajon__dagestan_" data-title="nogajskij_rajon_(dagestan)" class="cls-1" d="M88.12,17.62l1,1.5h1v-1l-2-.5M51.12,33.62l3.5-3,10.5,3.5,6-5,1.5-2-1.5-4-5-3,1.5-2.5,1,1,1-.5v-3l2-1.5,5.5,1.5.5,1.5,7.5-2.5,9.5-4.5,1-5,7.5-4,2.5,2,2-.5,6.5,4,5.5,6,3.5.5,6.5,7-21,35.5-1.5,2-.5,2-1.5,2-2.5-1.5-3,5-1.5,2.5,1.5,2-.5,2-5.5-.5-1.5,1.5.8.88-1.3,4.62-4-2.5-2.5,4-2,.5-5-3-2,2.5-1-1,.5-5,2,1.5,2.5-2.5-7-5.5v-2l-2.5-1.5-1,1-3-1.5-7-9,6.5-9.5-15-10.5"/>
      <path data-code="novolakskij_rajon" data-title="novolakskij rajon" class="cls-1" d="M64.62,126.62l3.5-1v-1.5l-1.5-1,2-1.5,3.5,1.5,1,1.5,1.5-1.36,1,.5-.5,1-3.5,2.86,1.5,1.5-1.5,3.2-.5-1.2-3,1.5-.5,1.5-.5-1.5-2.5-1,.5-2.5-.5-2.5"/>
      <path data-code="rutul_skij_rajon" data-title="rutul&amp;apos;skij_rajon" class="cls-1" d="M38.62,212.26l1,2,4.85-.48,3.65,4.98.5,1.86,2.5,1.5.5,2.5h2.5l-1.5,3.5.5,1.5h2.5l.5,2.5,1.5.5-.5,9.5,1.5,5.64-.5,1.5-6.5,10-3-.64-.5-3.5-5.5,2-4-2,.5-1-1-3,1.5-1-.5-1,.5-3-1-1.5,1.5-1.5-1-2,.5-2.5-.5-.5-2.5,1-2-1,.5-1.5-.5-1,2-3-1.5-4,1-3.5-2-.5v-3.5l-1-.5-.5-3,1.5-1-.17-3.94,4.67-.42Z"/>
      <path data-code="sergokalinskij_rajon" data-title="sergokalinskij rajon" class="cls-1" d="M86.12,198.26h1.5v-1.5l-1.5-1,1.5-2h2.5l4.5,2-1,3.5,6.5.5-.5,2-5.5.5-4.5,3,2.5,1.5-.5,4-4,4.86,1-3-1.5.5-.5,1.5-2-3-2.5.5-.5-2.5-2,.5,1-3-.5-1.5,1.5.5v-2.86l1.5-2-1-2.5,1-1,.5.5,1-2,1.5,2Z"/>
      <path data-code="shamil_skij_rajon" data-title="shamil&amp;apos;skij_rajon" class="cls-1" d="M35.62,166.76l1.5,1,1-1,3,.5,3.54-1.39.46,1.39,2.5,1,1-1,4.5,3-1.5,2.5,1,1.5,3.5-.14,1.9,2.25-1.9-.75-1,1.5,1,.5-1,1.5-2,.14-1,1.5.5,1-8.5,1.36-1,3h-2.5l-3.5,2.5-.04-2.63-1.96-6.87.5-1-.5-2.5-4-3.86,1.5-2.5,3-2.5Z"/>
      <path data-code="sulejman-stal_skij_rajon" data-title="sulejman-stal&amp;apos;skij_rajon" class="cls-1" d="M72.1,250.87l2-2,.53.76-1,2.5.5.5,1,.5,3.5-.5,2.5,2.5,3-3,1.5,1.5,2-3,1,1.5h1.5v-1.5l1.5.5,3,4,6.32-1.36-.82,3-4.5,2.36-.5-1-1,.5v1l-5,.5-2,3.64-3.5,3-3.5-2,.5-2-2-.5-.5-2h.5l.5-1.5-3,.5h-.5l.5-1-1.5,1-1.5-.64.5-2.5-2-3,1.5-.5-1.03-1.76"/>
      <path data-code="tabasaranskij_rajon" data-title="tabasaranskij rajon" class="cls-1" d="M76.12,232.26l6,.5,4-2,3,1,3.5-3.5,1.86-.37-.36,1.37,4.5-.5-2.5,1.5-1,4.36-1,2,1,2h1.5l-.5,3,1,3.5-1.5-2h-2.5l2.5,6,3.5.64,1.82,4-6.32,1.36-3-4-4.5-1.36.5-1.5-1-2.5-1,.5v-2.5l-2.5-1v-2l-1,.5.5-2.64-4.5-1.5-1.5-2.5-1.2-.04.21-.82-1.5-1,2-.5Z"/>
      <path data-code="tarumovskij_rajon" data-title="tarumovskij rajon" class="cls-1" d="M92.12,72.12l1.5-1.5,5.5.5.5-2-1.5-2,1.5-2.5,3-5,2.5,1.5,1.5-2,.5-2,1.5-2,21-35.5,2.5,1.5,2.5,7.5,4.5,5-1.5,1.5,1,4,1-.5v-2.5l3.5,1.5v1.5l-2,1.5-3,.5-3.5-.5-3,1.5-.5,1.5v-3l-8.5,13.5.5,7.5,4,2.5-2.5.5v1.5l-2.5,4-.5,2-1.5-1.5-.5,1-4-.5-1.5,4h-1.5l-1,2.5-2.5,1,.5,2-1.5,2,1,.5-1,1-1-.5-1,2.5h-2l1-2.5-1,1-2-.5.5,1-.5.5h-1l-.5,2.5-1.5-2-3.5-1.5.5-4-1-1.5,2-3-5-4"/>
      <path data-code="tljaratinskij_rajon" data-title="tljaratinskij rajon" class="cls-1" d="M19.62,176.62l4.5-3.86,7-1,4,3.86.5,2.5-.5,1,2,7v2.5l-2,2,1,3,4,1-1,1.5v1l-1.5.5-2.5,3,.5,2.5-1.5,2.5,1.5,1.5v5.4s-2.84.23-2.84.23l-.66,1.87-3.5-2.5-3,1-1-3,1.5-1.5-.5-2-2-2-1.5-3.5.5-1.5h-2l-.5-1.5-1,.5-1-2,.5-2.5-1-.5,1.5-1-1.5-1.36,2-2.64,2.5-.5,2.5-5-2.5-1.5-.5-1.86h-2v-3.14"/>
      <path data-code="uncukul_skij_rajon" data-title="uncukul&amp;apos;skij_rajon" class="cls-1" d="M62.12,157.26l1-1.5,4.5,2.5,1-1.5h1.5l4.5-2v2l-5,2.5,2,7,2.5,3v3.5l1,1.5.5,4.5-1.51-3.1-1.49.6v1.5l-2.5-3.5-2-.14-1.5,1.5-2.5-7.5-2-1,1-.5-1-1.5-1,2h-2l-1-3.86,2-3.5-1-2.5h3Z"/>
    </g>
</svg>