<svg data-code="RU-CHE" xmlns="http://www.w3.org/2000/svg" viewBox="0 0 218.75 299.39">
    <g data-code="cheljabinskaja_oblast_" data-title="cheljabinskaja_oblast&amp;apos;">
      <path data-code="agapovskij_rajon" data-title="agapovskij rajon" class="cls-1" d="M24.12,200.26l2-5,1,.5,1-2.5h2l.5.5-.5,1.5,5,1.5v-1.5l1-.5,1,1.5,1.5-2,1,1,2-1.5.5-1-1,.5,1.5-2.5-1-1.5,1-.5h-.5v-1l-4.5-5,2-.5.5-2-3,2-1-3.5-2,1.5-.5,2h2l-.5,1.5-3-.5,2.5-5h1.5l-.5-1,1-1,4,.5,1-1.5h.5l1.5-3.5,1.5,1,1.5,2.5-1,1h1l-1,2.5,2,2h1v-1l1,.5-1,2.5h-1l.5,3,6.5,4.5-3.5,8,2,.5.5,1.5,2.5-1,1.5,6.5-.5,1,1.5,2.5-2.5,3-.5,2-2,1.5.5,1-4.5,2.5-8.5,1.5-3-4-3,1.5-2.5-1-.5.5-7-1-1.5-2h-1v-1.5l1,.5.5-1.5-2.5-2,4-10.5-1.5.5"/>
      <path data-code="argajashskij_rajon" data-title="argajashskij rajon" class="cls-1" d="M124.12,86.76l3-4,2.5-2,3-5,1.5-1,5.5-1.5,3-3.5,2,.5.5-1.5,2.5,1.5,1.5-3.5,4,4.5,1.5-.5,1.5-2.5,1,.5-.5,1.5,5-2.5,1-.5-1-1,1-.5v1.5l4.5,1.5.5,1.5,1-.5,1.5-2,1,.5,1.5.5-.5,3h-1l-.5,1h-1v3.5l2,1v2.5l-3.5,1.5v2l-.5.5,1,3h-1l-.5,2.5h-4l-1.5-1-3,1-1.5,2-3,1-5,6.5-3.5-2.5-.5,2.5,1,.5-1,2-1.5.5-2.5-2.5-2.5,2-3.5-4-1.5-1-2,.5-3-2.5-2.5-1v-1.5l-1.5-3.5,1-1-1.5-.5"/>
      <path data-code="ashinskij_rajon" data-title="ashinskij rajon" class="cls-1" d="M15.12,52.76l2-2.5,2,.5,3-1.5-1-3,1-2v1.5h1v-2l1-1,2,1.5,4.5-2.5,5,.5,3,4,8,3.5,4,3v3.5l2,3-.5,1-4,1.5-2-1,.5,1-1.5,2,.5.5-1,.5,1,2.5-3,4,.5,1h-1.5l-1.5-1.5-2.5.5-1.5,2-1.5.5-.5-2h-4l-2.5,2.5-4,7-4.5.5.5,4-3.5.5-1-1.5,2-1-7-9.5-.5-6-1-.5,7-5-1-2.5-1,.5,1-2h.5l-.5-1,.5-1v-4"/>
      <path data-code="bredinskij_rajon" data-title="bredinskij rajon" class="cls-1" d="M21.62,254.26l2.5-3.5,4,2,1.5-3,1.5-1.5.5-3,2,1,1.5-.5,3,3,2,4.5,7.5-3,3-4.5,2,1,2-1,8,2,2,4v1l2,1,1-3,1-.5,5,2.5v.5l-1,.5-.5,4h3.5l-.5,1,2.5,1-1,2.5,4,3.5-3,7,4.5,3-1.5,5.5,1,6-7,4-4.5,1-2.5-1-8,2-3.5-1-13.5,6.5-4-.5-5.5-3.5v-2.5l-2-1.5,1-1.5v-1.5l1,.5,3-4h4l2-2.5,1.5.5,3-2v-1.5l3-7.5-4-3.5-4.5-1.5-1.5-5.5-5.5,2.5h-2l.5-2-4.5-2-2.5,2v-2l-1.5-3,.5-2-1.5,1-1.5-1"/>
      <path data-code="chebarkul_skij_gorodskoj_okrug" data-title="chebarkul&amp;apos;skij_gorodskoj_okrug" class="cls-1" d="M119.62,105.76l2.5-4h2l2,3.5,1.5.5-1,2.5h-2.5l-1.5.5-.5-1h-2l-.5-2"/>
      <path data-code="chebarkul_skij_rajon" data-title="chebarkul&amp;apos;skij_rajon" class="cls-1" d="M98.12,120.26l5.5-6.5v-1.5l2,3v-1l4-1,1-2,2-.5,5.5-1.5,1-.5v-1.5l1.5,1,1.5-.5.5,1,1.5-.5h2.5l1-2.5-1.5-.5-2-3.5-1,.5h-1l-.5-1,.5.5,1-1.5-.5-1h1.5l-1-3h1v-1.5l1.5-1.5.5.5-.5-.5,3,1,3,2.5,2-.5,1.5,1,6.5,6.5,1.5,4-1.5.5-1.5,4,1.5-.5v-1l1-.5,1.5.5-1,4-1,3.5,1.5,1h-1l-.5,1.5-5,2-3,2.5,2,2.5-3.5,1.5.5,2-1.5,2.5.5,2,3,1.5-.5,2-3.5,3.5-1.5-1-1.5,1.5-3.5-3.5-1,1-4-2,1.5-1.5-1-.5,1.5-1,.5-2.5-6-5,.5-1.5-1.5-.5-1,1.5-1.5-2-.5,1-5,1v-1l-3-2-.5-2-3,.5-2.5-2v-1"/>
      <path data-code="cheljabinskij_gorodskoj_okrug" data-title="cheljabinskij gorodskoj okrug" class="cls-1" d="M152.62,111.76l2.5,1,1.5-2,3-1.5v-1.5l-1.5-.5,4-5.5-.5-1.5,1-1.5,2,2h1l.5-3,1.5,1,.5-1,1,.5v1h2.5l1,1-.5,2-3,1.5,2,1.5-.5,2.5.5,1.5-1.5.5-1.5,3h-1l.5,1.5-.5.5-7,3-1.5-2.5h.5v-3l-4.5,1.5-2-2"/>
      <path data-code="chesmenskij_rajon" data-title="chesmenskij rajon" class="cls-1" d="M121.12,181.76h2l-.5,1-1,.5-.5-1.5M81.12,173.76l1.5-1.5,8,3.5v1l3.5,2,1.5-3h3.5l1-1.5,3,1-.5,1,2.5-.5-1,2.5,9.5,4,1,1.5.5-1,3.5,1v1l1.5,1.5,3,.5.5,4,1.5,1.5-1.5,3-2,.5-3,2.5-2.5-.5-3,4-1-.5.5-1.5-6-.5,1.5-3.5-1.5-.5-1.5.5.5,1.5h-1l-.5,1.5-6-2.5-1.5,3,1,1-1,1,.5.5-1,3-1.5-.5-1.5,3.5-3.5,6-3-1.5-2.5-1,1-3-2.5-2.5-1.5-3.5,1.5-4.5-.5-.5.5-.5.5-1.5-1-6.5-1.5-1v-3h.5v-1l1-2-1-.5v-2l1.5-3-1.5-2.5"/>
      <path data-code="emanzhelinskij_rajon" data-title="emanzhelinskij rajon" class="cls-1" d="M149.12,133.76l1.5-2,.5,1,1.5-2,1-.5,1.5,1h-.5l.5,1-1,1,.5,1-.5,1-2-.5.5,1-2.5,1.5-1-1.5.5-1v-.5l-.5-.5M148.62,134.26l.5-.5.5.5-.5.5-.5-.5M148.62,134.26h.5l-.5.5v-.5M147.12,135.76h.5l-.5.5v-.5M148.12,129.26l1.5-.5v2.5l-1.5.5v-2.5M146.62,137.76h.5v.5l-.5-.5M143.12,142.26l1-1.5,1,.5.5-.5,1,1,.5-1.5.5,1-2,2-1,2.5-.5-.5.5-1.5h-1.5l1-1-1-.5"/>
      <path data-code="etkul_skij_rajon" data-title="etkul&amp;apos;skij_rajon" class="cls-1" d="M148.62,134.26v.5l.5-.5h-.5M147.12,135.76v.5l.5-.5h-.5M148.62,134.26l.5.5.5-.5-.5-.5-.5.5M146.62,137.76l.5.5v-.5h-.5M148.12,129.26v2.5l1.5-.5v-2.5l-1.5.5M149.12,133.76l.5.5v.5l-.5,1,1,1.5,2.5-1.5-.5-1,2,.5.5-1-.5-1,1-1-.5-1h.5l-1.5-1-1,.5-1.5,2-.5-1-1.5,2M134.12,125.26l3-2.5,5-2,.5-1.5,5,2-.5,2.5,1.5,1.86,2,.5-.5,2,2-1.86,1-.14,2.5-.86,2,1.5,2.5-1,1.5-1.5-.5,2.5,3-.5-.5-1.5,1.5-1,2-.5h3l8.5,4v1.5l1.5-.5v2l-1,2.5,1.5,1,.5,4.5-1,3-3.5,1-2,2.5,2.5,1-1.5,3,2.5,1.5-.5,2,1.5,3-4,1.36-1.5,3-2.5-2-2,.14.5-3.14-1-.5.5-2,1-.5-1-1-5.5.14.5,2.36-1,.64-3-1.14-1-3-4-4-1-2.86-4.5-1v-1.5l-2.5-1h-.5l-.5,2-2-.5.5-1-.5-.5,1-1.5-.5-3,1.5-1.5-.5-1-9.5,1.5,1,1.5,2,1-.5,1.5-4.5-.5-2.5-3.5,1.5-2.5-.5-2,3.5-1.5-2-2.5"/>
      <path data-code="juzhnoural_skij_gorodskoj_okrug" data-title="juzhnoural&amp;apos;skij_gorodskoj_okrug" class="cls-1" d="M131.12,154.76l1.5-2.5,5.5,1.5,1.5-2.5,1.5-1.5.5-1.5-.5-1v-1l2,3-1.5,2.5,2-1-.5,2h.5l-1.5.5.5,1.5-1,.5-.5,2-1-3-2.5-.5-1,1,.5.5v.5l-1-.5-1,2-.5-.5-.5,1-3-3"/>
      <path data-code="karabashskij_gorodskoj_okrug" data-title="karabashskij gorodskoj okrug" class="cls-1" d="M126.12,60.76l3-3.5,1.5,1,1-1.5-.5-1,1-1.5,4.5,2.5-1,1.5-1-.5-1.5,2.5,8,5.5-1,2,2.5,2-3,3.5-5.5,1.5-1.5,1-3.5,5.5-.5-2.5,2-1v-1l1-1-4,2-2-5-3-3.5,5-7-1.5-1.5"/>
      <path data-code="kartalinskij_rajon" data-title="kartalinskij rajon" class="cls-1" d="M79.62,236.26l.5,1.5.5-1.5,2,.5.5-1.5h-1.5l-2,1M52.12,217.76l2-1-.5-1,2-3,3,1.5,1.5-2.5h.5v-1l3.5,1.5,2.5-2,4.5,3.5,2-2.5,3,1.5,1,1h1.5l-.5-2,1-.5-1-4,2.5-3,3.5,2.5,1,1.5-1,3,5.5,2.5-2.5,4,6,2.5-.5,2.5-1.5.5v.5l3.5.5,1-1,1.5,2,1.5-1.5h.5v1l-1.5,1.5v1l1,1-1.5,1.5v3l1,3.5-1,3v7h-1.5v1.5l1,1.5-6.5,3.5h-3l-3,3.5-5-.5-1.5,4-2.5-1v-1.5l-3,.5.5-4,1-.5-1.5-1.5-3.5-1.5-1,.5-1,3-2-1v-1l-2-4-8-2-1.5-1-1-1.5.5-1-1.5-1,.5-5-2.5-2.5,4.5-4-1.5-4,2.5-1.5-1.5-2v-3l-1-1.5"/>
      <path data-code="kaslinskij_rajon" data-title="kaslinskij rajon" class="cls-1" d="M142.12,48.76l4.5-8.5,7,3.5,2-5,1,1,.5-1.5,5.5,4-1,1.5-1,.5v3.5l4.5-1.5,1-1-.5-2h-.5l1.5-3.5-1.5-5.5,1,2,1-.5-1.5-1.5.5-3,1-2-1-.5,1.5-1,2,1.5-.5,1,3,1,3,3.5.5-.5,1,1.5,1.5-.5,1.5,2,3.5-.5.5-5.5-1-3,.5-1.5,3-1,2.5,3.5,2,.5-.5,1.5,5.5-1,2,4.5h1l-.5,2,2.5-2,1.5,1,1.5,3-.5.5.5.5v3.5h1l-2.5,4-4.5,5.5h-1.5v2l-1.5.5.5.5-.5,1.5-1.5-.5v.5h-1.5l-1.5-2.5h-2v1l-2.5-1-5.5,1-2.5-2,1-2.5-3.5-3.5-1,1-.5,3.5-1.5,2.5h-1.5l-3,3v1.5h-1.5l-1.5,1.5-1.5,2-.5,4.5-1-1,1,1-2,1h-.5l1-1.5-1-.5v-3l-2-.5v-2l-1-.5h1l-4-4v-1l-2.5-1.5,1.5-2.5-4.5-2.5-1,2-3-2,.5-1,1.5,1,.5-1.5-2-1.5-2,3.5,1,.5-2-1"/>
      <path data-code="katav-ivanovskij_rajon" data-title="katav-ivanovskij rajon" class="cls-1" d="M19.12,81.76l4.5-.5,4-7,2.5-2.5h4l.5,2,1.5-.5,1.5-2,2.5-.5,1,1-2.5,1.5.5,2.5.5-.5.5,2h1.5v1l1.5,1v1.5l1,.5-.5,1,1,.5-.5,1.5,1,.5,3,.5,1-1.5,1.5,1,1-1,1.5-.5.5.5,1-1.5,1,1,.5-1,3,2,.5-1,3.5,2,.5-1.5v2l-2,5,.5,1.5-.5.5-2.5-2-2,2-1.5-1v-2l-3.5-2-3,.5-2.5,3.5,3,2,1-1,2.5,2,1-2,1,2,3,2,.5-.5,2-3,6.5,4.5-2.5,4.5-1.5-1-4,4,1,.5-.5,1.5,4,3.5,4-1-3.5,2h-9l-2,3.5-5-1-3-8-1.5-1-5.5,1-3.5-1.5-3,3-5.5,2.5-1-.5-2-3-1-5-2-2.5,1-2.5,1-1v-1.5l-3-4,.5-4.5-.5-4"/>
      <path data-code="kizil_skij_rajon" data-title="kizil&amp;apos;skij_rajon" class="cls-1" d="M5.12,233.26h1.5l.5-1.5h1l2.5-10.5,3-2.5,1.5-2.5,1.5.5,1.5-5.5,5.5,2.5h-1.5l3,3,7,1,.5-.5,2.5,1,3-1.5,3,4,9-1.5,2-1.5,1,1.5v3l1.5,2-2.5,1.5,1.5,4-4.5,4,2.5,2.5-.5,5,1.5,1-.5,1,1,1.5,1.5,1-2,1-2-1-.5.5-2.5,4-7.5,3-2-4.5-3-3-1.5.5-2-1-.5,3-1.5,1.5-1.5,3-4-2-2.5,3.5-3.5-1.5-1,2.5-1,.5-3.5,7.5-2.5,1-2-6-2-2,1-1.5v-1.5l1-1-3-3-1.5-.5-1,1.5-2-1.5,1-2.5-1-.5,2-3,2,1,1-3,.5-2-1.5-.5.5-1.5-1-.5,1-3"/>
      <path data-code="kopejskij_gorodskoj_okrug" data-title="kopejskij gorodskoj okrug" class="cls-1" d="M158.12,121.26l1.5-1v-2l2.5-2,5-1.5.5-.5-.5-1.5h1l1.5-3,3-1,2.5.5,1.5-2.5.5,1,1.5-.5-1,2.5-3,1.5v1l-1,2.5,1,1.5-.5,1-4-.5-1.5,1,.5,1h-1l-1,4.5-2,.5-1.5,1,.5,1.5-3,.5.5-2.5,1-1h-4l-.5-2"/>
      <path data-code="korkinskij_rajon" data-title="korkinskij rajon" class="cls-1" d="M157.12,121.12v.5l-.5-.5h.5ZM156.12,120.62h.5l-1,1.5v-1l.5-.5ZM156.12,124.12v-1l2-1.86.5,2h4l-2.5,2.5-2.5,1-2-1.5-1.5,1,1-1.64v-1l1,.5ZM152.12,125.12l-.05.43-.45-.43h.5ZM148.12,123.76h1.5l-.5,1.86-1-.86v-1"/>
      <path data-code="krasnoarmejskij_rajon__cheljabinskaja_oblast_" data-title="krasnoarmejskij_rajon_(cheljabinskaja_oblast&amp;apos;)" class="cls-1" d="M169.12,103.76l.5-.5h1.5l1-1,1-2.5,1,.5v-1l1-1,.5.5,1-3-2.5-2,1.5-4,2.5,1.5v1l1-2.5h.5l.5.5v2h4l1,2h1.5l.5-3,2.5-3.5,1-.5,3.5-9,10.5-9.5,10.5-.5,1.5,2.5-1.5,1-1-.5-1,2.5-.5-.5-.5,2,1,3,3-1,.5.5-1,1,1.5,1,1,3-1.5,2.5.5,2-1.5,1,1,2-.5,1-1,1h-.5l-1,2h-2l-.5,1,3,1,.5,3v3l-6.5-.5v2.5l-6.5-.5v-2l-3-2-2,2.5,1.5,4-.5,1-2-1.5-1.5,2.5-3.5-1-1.5,2.5,3,3.5v2l2,1-2,1.5v1.5h.5l-.5,3,1.5,1-1.5,1,.5,1h-2l-2.5,4.5-1-4h-3l-3.5-1.5v3.5l-2,1v-1.5l-8.5-4h-3l1-4.5h1l-.5-1,1.5-1,4,.5.5-1-1-1.5,1-2.5v-1l3-1.5,1-2.5-2-.5-1.5,2.5h-4l-.5-1.5.5-2.5-2-1.5"/>
      <path data-code="kunashakskij_rajon" data-title="kunashakskij rajon" class="cls-1" d="M163.12,62.76l3-3.5h1.5l.5-2,2.5-2.5h1.5l1.5-2.5.5-3.5,1-1,3.5,3.5-1,2.5,2.5,2,5.5-1,2.5,1v-1h2l1.5,2.5h1.5v-.5l1.5.5.5-1.5-.5-.5,1.5-.5v-2h1.5l8-10,1,1v2l-2,1.5,9,8-2,1,2.5,5.5-1,2-1,4.5-.5,1-7-.5-10.5,9.5-3.5,9-1,.5-2.5,3.5-.5,3h-1l-1.5-2h-4v-2l-1-.5v-2.5l2-4-1.5-1-1.5,1.5h-1l-.5-9-4,.5-3-1.5v-1l2.5-1,.5-3-2.5-1-1.5,2-1.5.5v-1.5l-4.5-1.5.5-4.5"/>
      <path data-code="kusinskij_rajon" data-title="kusinskij rajon" class="cls-1" d="M88,66.01l2-1,1.5,1.5v-1l2-2.5-1-2,2.5-1.5.5-1.5,3,1.5,3.5.5,1-1.5,1.5,1-.5,1.5,1,.5,2-1.5,3.5.5,1-2h2l1.5-2.5,3-1.5,2,1,1.5,4h2.5l3.5,3-6,9.5h-3l-2,3.5-2.5-.5-1.5,2.5-1.5-1.5-3,2-4.5-3-.5,2.5-2.5,2-7-3.5.5-2.5-5-3-1-4.5"/>
      <path data-code="kyshtymskij_gorodskoj_okrug" data-title="kyshtymskij gorodskoj okrug" class="cls-1" d="M132.12,54.26l12-4.5-1-.5,2-3.5,2,1.5-.5,1.5-1.5-1-.5,1,3,2,1-2,4.5,2.5-1.5,2.5,2.5,1.5-1,4-2.5,4,1,2.5-.5,1.5v1l-2-1.5v1l-1.5,2.5-2.5-1.5-.5,1.5-2-.5-2.5-2,1-2-8-5.5,1.5-2.5,1,.5,1-1.5-4.5-2.5"/>
      <path data-code="lokomotivnyj_gorodskoj_okrug" data-title="lokomotivnyj gorodskoj okrug" class="cls-1" d="M79.62,236.26l2-1h1.5l-.5,1.5-2-.5-.5,1.5-.5-1.5"/>
      <path data-code="magnitogorskij_gorodskoj_okrug" data-title="magnitogorskij gorodskoj okrug" class="cls-1" d="M32.12,183.26l3,.5.5-1.5h-2l.5-2,2-1.5,1,3.5,3-2-.5,2-2,.5,4.5,5v1h.5l-1,.5,1,1.5-1.5,2.5,1-.5-.5,1-2,1.5-1-1-1.5,2-1-1.5-1,.5v1.5l-5-1.5.5-1.5-.5-.5h-2l4-10"/>
      <path data-code="miasskij_gorodskoj_okrug" data-title="miasskij gorodskoj okrug" class="cls-1" d="M95.62,100.26l.5-1.14,10-7.5,1.5-3,5-3.5,3-3.5,2-1,1-3,3-2,3-4.04,1.01,1.18,2,5,4-2-1,1v1l-2,1,.5,2.5-2,1.5-3,4,1.5.5-1,1,1.5,3.5v1.5h-.5l-1.5,1.5v1.5h-1l1,3h-1.5l.5,1-1,1.5-.5-.5.5,1-2.5,3.5v1.5l-1.5,2-5.5,1.5-2,.5-1,2-4,1v1l-2-3,1-2,3.5-2-3-1.5-2.5,1.5v-1.5l-1,1-4.5-7-1.5-.5"/>
      <path data-code="nagajbakskij_rajon" data-title="nagajbakskij rajon" class="cls-1" d="M49.12,186.62l4.5-5.5,1,.5,2.5-2-3.5-3,2-2-.5-.5,4.5-4,1.5-.5.5-2,2-1v-1.5h1l.5-1.5,3,.5-1,3-1.5-.5-.5,2,4.5,6,6,2,1.5-3-.5-2.5.5-1.5,5.5,3-1.5,1.5,1.5,2-1.5,3v2l1,1-1,1.5v1l-.5.5v2.5l1.5,1.5,1,6.5-.5,1.5h-.5l.5,1-1.5,4.5,1.5,3.5-2.5-2-2,3.5,1,3.5-1,1v1.5l-5.5-2-2,2-4.5-3-2,2-3.5-2v1h-.5l-2,3-2-1v-1.5l2.5-2.5-1.5-3,.5-.5-2-7-2,1.5-1-2h-1.5l3.5-8-5.5-4"/>
      <path data-code="njazepetrovskij_rajon" data-title="njazepetrovskij rajon" class="cls-1" d="M109.62,8.12l5,2,.5-2,2.5-2-.5-5,.5,1,.5-1.5h2.5l1.5,2v1l4,2v-1l5,2h.5l-.5,1,5,2-4.5,4,3.5,3,4.5-1,3.5,3v1.5l-.5,2-4.5,7-4.5,5,.5,1-.5.5-.5,1-.5.5-1,2-2-.5-5,7.5,10.5,6.5-1.5,2-2-.5-1,2,1,.5-1,2-1.5-1-3.5,3.5-1.5-1.5h-2.5l-1.5-4.5-2-.5-3.5,1-6-2,1-3-2.5-1.5-.5,1.5-6,1,1-2,3.5-.5.5-3-1-.5,1-1.5-.5-.5,3-3.5-1-2-4.5-2,.5-2,2,1,2-1.5v-2.5l1.5-1,1.5-2-.5-1,1-2.5v-3l4.5.5v-1l2-1-.5-.5,1-1v-.5h.5l-.5-.5.5-2,.5.5.5-1-2-1-1,2-2.5-2-1,.5v-1l-3-3v-2.5"/>
      <path data-code="oktjabr_skij_rajon__cheljabinskaja_oblast_" data-title="oktjabr&amp;apos;skij_rajon_(cheljabinskaja_oblast&amp;apos;)" class="cls-1" d="M175.12,156.62l4-1.5-2-2.5,1.5-3,3,.5-.5,1,4,1.5h2l.5-2,1-.5,5.5,1.5v1.5l-2.5,1,1,1-1,1.5,2.5,2,1-2,1,.5-.5,3,10.5-1.5,10,3.5v4l-1.5,2v2l1.5.5-1.5,2.5,1,.5-2.5.5-1,2.5-1-.5v1l-2-.5.5-1.5h-.5l-.5.5-1,1.5v1.5l1.5.5-1,2-1.5-.5-1,1.5.5,3.5-2.5-1,.5,2,3,1-.5,1.5,2,.5-.5.5-.5,3.5,2-1.5,1,1-1.5,4.5-7-2.5-1,2,.5.5-1,2-3.5.5-6-4-12-.5-1,1.5-1.5,6-2.5,3h-1l-2.5-3v-5.5l4-1-2.5-2-4.5-.5,1.5-4.5,2-.5,3-8.5-1.5-2,1.5-1.5v-1.5h-1l2-6-1-3h-2v-1.5l.5-1,1-4.5,1.5-3Z"/>
      <path data-code="ozerskij_gorodskoj_okrug" data-title="ozerskij gorodskoj okrug" class="cls-1" d="M150.12,63.62l4-7,4,3.5-1,.5,1,.5v2l2,.5-.5,3,1,.5-.5,1.5-3.5,2v-1.5l-.5-.5-1.5,2.5-2,.5-1.5-4,.5-1.5-1.5-2.5"/>
      <path data-code="plastovskij_rajon" data-title="plastovskij rajon" class="cls-1" d="M103.62,152.12l4.5-1,2.5-2,2-3.5v-1.5l-1-1,1-1.5-.5-1.5,2-3.5h.5l-.5-1,1-1.5,3,1v3l2,.5-.5.5,4,1.5,1-.5,5.5,5.5-.5,1,3.5,4-4.5,8-3-2-1,1.5-1.5-1-1,1.5-1.5-1-1,2h-1.5l-.5,2-3,.5v-1.5h-1v1.5l-1.5,1-1-3-1.5-.5-2.5-4h-2l-1,2-1-2,1-3.5h-.5"/>
      <path data-code="satkinskij_rajon" data-title="satkinskij rajon" class="cls-1" d="M66.62,69.12l2.5-1.5,1,.5-1,1v1h1.5l-.5,1.5.5,1,2-1,2-3-2-2.5,2.5-3,6.5,4,.5-1v-.5l-3-1.5,1-2,4,2.5-1.5,3.5.5.5-.5.5,2-1.5h2.5l1-1,1,4,5,3v1l-3,1-.5,2h-2l-1.5,3,2,1.5-2.5,4,2.5,1-1,2.5.5.5-4.5,9-2.5,1.5-2,2.5-2.5,1.5-2,2-5,3-6.5,1-4-3,.5-1.5-.5-1,1-1,2.5-2.5,1.5,1,2.5-5-7-4,2-1-.5-2,2-4.5v-3l3,.5.5-1.5,5-2-2-5,.5-1-2.5-3-1.5-.5v-.5l.5-.5-.5-.5"/>
      <path data-code="snezhinskij_gorodskoj_okrug" data-title="snezhinskij gorodskoj okrug" class="cls-1" d="M158.12,33.62l3.5-2,1-2-.5-2,3-6,3.5,2-3.5,5.5,1.5.5-.5,2-.5,2.5,1.5,2-1,.5-1-2,1.5,5-1.5,4,.5-.5.5,2.5-5.5,2.5-.5-3.5,1.5-.5.5-1.5-5-4.5-.5-1.5,1.5-3"/>
      <path data-code="sosnovskij_rajon__cheljabinskaja_oblast_" data-title="sosnovskij_rajon_(cheljabinskaja_oblast&amp;apos;)" class="cls-1" d="M155.62,121.12v1l1-1.5h-.5l-.5.5M148.12,124.12v.5l1,1,.5-2-1.5.5M151.62,125.12l.45.43.05-.43h-.5M156.62,121.12l.5.5v-.5h-.5M138.62,101.12l2.5-1.5,2,2h1.5l1.5-2-1-.5.5-2.5,3.5,2.5,5-6.5,3-1.5,1.5-2,3-.5,1.5,1,4-.5v-2l1.5-.5-1.5-3,1-.5v-1.5l3.5-1.5v-3l-2-1v-2l3,1.5,4-.5.5,8.5,1,.5,1.5-1.5,1,1-1.5,3.5-1,5.5v-1l-2.5-2-2,4,3,2v1.5l-1,1.5h-1l-.5,1v1l-1-1-.5,1-1-1.5-2.5.5v-1.5l-1-.5-.5,1-1.5-.5-1,2.5-.5.5-2-2-1,1v2l-3.5,5,1.5,1v1l-3,2-1.5,2-2.5-1.5,2,2,4.5-1v2.5h-1l2,3-.5,2-3.5,3v1l-1-.5v1l-1,2-1-.5-1.5,1,.5-.5-2,1.5.5-2-2-.5-1.5-2,.5-2.5-4.5-1v-1.5h-1l2-7.5-1.5-.5-1,.5-.5,1h-1l1.5-3.5,1.5-.5-2-4-2.5-3"/>
      <path data-code="trekhgornyj_gorodskoj_okrug" data-title="trekhgornyj gorodskoj okrug" class="cls-1" d="M46.62,92.12l2.5-3.5,3-1,3.5,2.5v2l1.5,1,2-2,2,2-2.5,3.5h-1l-3-2-.5-1.5-1,1.5-2.5-1.5-1,1-3-2"/>
      <path data-code="troickij_gorodskoj_okrug" data-title="troickij gorodskoj okrug" class="cls-1" d="M137.62,179.12h4l2-2h1l4,1-1,1.5,1,.5h-2.5l1,1-.5,1-2.5,1.5,1.5,1.5v1h-1.5l-2.5,3-1.5-.5,1-2.5-.5-.5h.5l.5-.5-1,.5-2-2,1-4-2-.5"/>
      <path data-code="troickij_rajon__cheljabinskaja_oblast_" data-title="troickij_rajon_(cheljabinskaja_oblast&amp;apos;)" class="cls-1" d="M95.12,164.12l3.5-4,.5.5,1-1,3-.5,1.5-3,1-1,2,.5,1.5,2-.5,1,1,1h1.5l1,3.5,1.5-1v-1.5h1v1.5l3-.5.5-2h1.5l1-2,1.5,1,1-1.5,1.5,1,1-1.5,3,2,2.5-3.5,4,3.5-.5,1,1,1-2,2.5,2,2,1.5-.5,2,1,4-6h.5v2h1v2.5l2,1,2.5-2,1.5-3h3.5l-.5,3.5h-2.5l-1.5,3.5,2,.5,2.5-3,.5.5v1.5l2,.5-2.5,2,.5,1,4.5.5-1,3.5,2,1,2-1.5v-3.5h2.5v-1.5l-1-1,2,1v-1l8.5-1,1,3-2,6h1v1.5l-1.5,1.5,1.5,2-3,8.5-2,.5-1.5,4.5-4.5-1.5-3-2.5h-2.5l-1,6-6.5-3,2.5-3-1.5-.5.5-1.5-3.5,2.5-1-1.5.5-2.5h-2.5l.5-1.5-1.5-1.5,2.5-1.5.5-1-1-1h2.5l-1-.5,1-1.5h-2l.5-.5-3.5-.5-2,2-8.5-.5-3,1.5.5,3-1,1-.5,3h-3l-.5-2.5,1-1.5-3-1.5-3.5.5-1.5,1.5-3.5-.5-.5,1-1-1.5-9.5-4,1-2.5-2.5.5.5-1-3-1.5-1,2-4-.5,1-2.5v-1l1-3.5-1-1v-3l-1-.5"/>
      <path data-code="ujskij_rajon" data-title="ujskij rajon" class="cls-1" d="M85.62,128.12l4.5-3,6-2,2-3v1.5l2.5,2,3-.5.5,2,3,2v1l4.5-1,1-1,1.5,2,1-1.5h1.5l-1,2,6.5,5-1,2-1,1.5,1,.5-1,1-2-.5v-3l-3-1-1,1.5.5,1h-.5l-2,3.5.5,1.5-1,1.5,1,1v1.5l-2,3.5-2.5,2-4.5,1h.5l-1,3.5,1,2-1,1.5-3,.5-1,1-.5-.5-1,1.5-1,1-4.5-2.5.5-1-1-1-3-1.5-4.5-1.5v1l-1.5-.5-.5,1-1,1-1.5-2.5h-2l2.5-4-1-1,.5-1,4.5-3,.5-5.5-2-2.5,4-3,1.5-3.5-2.5-3.5"/>
      <path data-code="ust_-katavskij_gorodskoj_okrug" data-title="ust&amp;apos;-katavskij_gorodskoj_okrug" class="cls-1" d="M41.62,77.12l1.5-.5.5-1,1,1,2-2-1.5-1,1.5-.5-1-1.5h4l-1-.5,1-1-.5-.5h1.5l1-1.5-2-.5,1-1-.5-2,3-.5.5,1,2.5-1,2.5,3-.5,1.5-1,1,1,2-1,1,1.5.5v1.5l-1.5,2,.5,1.5,4.5-.5-2,1.5h-1.5l3,3.5h2v1.5l-1,1.5-3-2.5-.5,1.5-3-2.5-.5,1-1-.5-1,1.5-.5-1-2,.5-.5,1-1.5-1-1,1.5h-3l-1-1,.5-1-1-.5.5-1-1.5-.5.5-1.5-1.5-1.5v-1"/>
      <path data-code="uvel_skij_rajon" data-title="uvel&amp;apos;skij_rajon" class="cls-1" d="M128.12,143.12l1-1,2,1,3.5-4,.5-1.5,3,.5.5-1.5-1.5-1-1-2,9.5-1v1l-1,1v5.5l-1.5,2.5,1,.5-1,1,1.5-.5-.5,2h1v-2l2-2-.5-1v1.5l-.5-1v-1.5h1l2,.5.5,1.5,4.5,1,1,3,4,4,1,3,3,1,1-.5-.5-2.5h5.5l1,1-1,.5-.5,2,1,.5-.5,3h2l2.5,2-1,4.5-.5,1v1.5l-6.5,1v1l-2-1,1,1v1.5h-2.5v3.5l-2,1.5-2-1,1-3.5-4.5-.5-.5-1,2.5-2-2-.5v-1.5l-.5-.5-2.5,3-2-.5,1.5-3.5h2.5l.5-3.5h-3.5l-1.5,3-2.5,2-2-1v-2.5h-1v-2h-.5l-4,6-2-1-1.5.5-2-1.5,2-3-1-1,.5-1-1-.5.5-1.5.5,1,1-2,.5.5.5-1h-.5l1-1.5,2.5,1,1,3,.5-2,1-1-.5-1,1.5-.5-.5-.5.5-1.5-2,.5,1.5-2.5-2-2.5.5,1.5-.5,2-1.5,1.5-1.5,2-4.5-1h-.5l-.5-.5.5-1.5-1-1.5-2.5-2.5.5-1-2-2.5"/>
      <path data-code="varnenskij_rajon" data-title="varnenskij rajon" class="cls-1" d="M87.12,217.62l6-9.5,1.5-4,1,1,1.5-3-.5-1,1-.5-1-1,1.5-3,6,2.5.5-1.5,1-.5-.5-1.5,3,.5-1.5,3.5,2-.5-1,3,8,3.5-.5,2,2.5,2.5,5,2.5,2.5-2.5,5.5,3-1,3.5.5,1.5-1.5.5v1l-1.5-1-1,2-5-1-1.5-4.5.5-.5-4,1-2,3.5-3,1-.5,3.5.5.5-1.5,3,.5,1,6,3,4,6.5,4,.5,1-1.5,1.5-.5,1.5,2-.5,2.5,1,2.5,4,4.5,3.5,1.5,2.5,2.5v4l-2.5,5-4.5,1-2.5-1-3-4.5h-1l-4.5-1.5-3.5,1.5-1-4.5-3-3.5-4,2-2.5-1.5-1.5-3-7,2-1-1-.5-7,1.5-3-1-4v-3l1.5-1-1-1v-1l1.5-1.5v-1l-.5-.5-1.5,2-2-2.5-.5,1h-3.5v-.5l1.5-1v-2l-5.5-3"/>
      <path data-code="verkhneufalejskij_gorodskoj_okrug" data-title="verkhneufalejskij gorodskoj okrug" class="cls-1" d="M124.62,46.12l5-7.5,1.5.5,1-.5.5-1.5.5-.5.5-1,.5-.5-.5-1,4.23-4.71,3.77-5.79,1.5-3.5,5.5,2.5,2.5,2.5,2-1.5,6,3,1.5-.5,1.5,1.5.5,2-1,2-3.5,2-1.5,3,.5,2-.5,1-1-.5-2.5,5-6.5-3.5-5,8,2.5,1.5-3.5,2-5.5,1-10.5-7"/>
      <path data-code="verkhneural_skij_rajon" data-title="verkhneural&amp;apos;skij_rajon" class="cls-1" d="M31.12,176.62l2-3.5,4-1,1-2,1-5,2.5-2,1.5-5,3-2-.5-2.5h-.5l1-1,1.5-1,1,2,2.5-.5,1.5,1.5h1.5l2.5-1.5,7.5-8.5,2.5-1.5,1.5,1.5,5.5,1,3.5,5,3,.5-2.5,4h2l1.5,2.5,1-1,.5-1,1.5.5v-1l7.5,3,1,1-.5,1,4.5,2.5-1.5,1.5,1,.5v3l1,.5v1l-1,3v2l-2,5-4-2,.5-1-13.5-6.5-.5,1.5.5,2.5-1.5,3-6-2-4.5-6,.5-2,1.5.5,1-3-3-.5-.5,1.5h-1v1.5l-2,1-.5,2-1.5.5-6,6.5,3.5,3-2.5,2-1-.5-4.5,5.5-1.5-.5.5-.5-.5-2.5,1-.5,1-2-1.5-.5.5,1h-1l-2.5-2,1.5-2.5-1-.5,1-.5-1.5-3-1.5-.5-1.5,3.5-.5-.5-1,1.5-4-.5-1,1,.5,1.5-5-2"/>
      <path data-code="zlatoustovskij_gorodskoj_okrug" data-title="zlatoustovskij gorodskoj okrug" class="cls-1" d="M70.12,109.62l5-3,2-2,2.5-1.5,2-2.5,2.5-1.5,4.5-9-.5-.5,1-2.5-2.5-1,2.5-4-2-1.5,1.5-3h2l.5-2,3-1-.5,1,3.5,1.5v1.5l2.5-.5.5,1.5,2.5-2,1-2.5,4.5,3,2.5-2,2,1.5,1-2.5h3l1.88-3.11h3l1.49-2.36,1.63,1.93-3,4.04-3,2-1,3-2,1-3,3.5-5,3.5-1.5,3-10,7.5-2,3.5-3,1-2,3.5-4,2-.5,1-7,2-.5,1-1.5,1.5-5.5-5"/>
    </g>
</svg>