<svg data-code="RU-KB" xmlns="http://www.w3.org/2000/svg" viewBox="0 0 107.25 74.39">
    <g data-code="kabardino-balkarskaja_respublika" data-title="kabardino-balkarskaja respublika">
      <path data-code="baksan" class="cls-1" d="M58.62,28.76l2-.5,1.5,2h-1.5l-2-1.5"/>
      <path data-code="baksanskij_rajon" data-title="baksanskij rajon" class="cls-1" d="M58.62,28.76l2,1.5h1.5l-1.5-2-2,.5M46.12,22.62l6-3.5,3.5,1,4-.5.5-3.36,2-.5,2.5,1,2,3,4.5,4.36-2,3.5-2-1-1.5,2.5,3,.5,2,1.5-1,.5v1.5l-1.5-.5-1,3,3.5,2-.59,1.79-3.91-.65v-2l-1-1.5-1,1-11-4h-4.5v-1l-2.5-1v.5l-3.5.5,2-3-2.5,1-.5-1.5,2.5-1h-.5l1-3.5-1.35-.17,2.85-.46Z"/>
      <path data-code="chegemskij_rajon" data-title="chegemskij rajon" class="cls-1" d="M14.62,42.26l3.5-3,4.5-1.5,1,.5,5-3.5,4.5.5v-1.5l4,.5.5-1.5,1.5.5v1l2-2,3.13-1.23,1.87-.27v-.5l2.5,1v1h4.5l11,4,1-1,1,1.5v2l-1,1.86h-1.5v1.5h3.5l-4,1.5-.5,1.5h-1.5l-1.5,1.14-3-2.64h4l-.5-.5.5-2-6-1-1-2-.5.5.5,1.5-3,.5,2,1,.5,1.5-2-.86.5,1-4-.5.82.48-5.32,1.52-6.5-2.5-3,3-.5,2-9,4-5,1.5-1.5-3.5-2-2,1-1.5-2-1.5v-2"/>
      <path data-code="cherekskij_rajon" data-title="cherekskij rajon" class="cls-1" d="M16.62,52.76l7.5-1.5,9-4,.5-2,3-3,6.5,2.5,5.32-1.52,3.18,1.88-1.5,1,1.5,2.5,1-1.5-.5-1.5,1.5-1,2,2.5,2.8-1.92,1.21,1.06,1.5-1.14-.5,3.64-.5,1.5-5.5,3,1.46,4.87-11.46,3.13-4.5,4,2,.5-.5,2.5-2.5,1-.5,2-4.5,2.5-4-4.5-4.5,3-3-1,.5-2h-1l-3.5-4.5.5-2-1-1v-2.5l-2-3.5.5-3"/>
      <path data-code="ehl_brusskij_rajon" data-title="ehl&amp;apos;brusskij_rajon" class="cls-1" d="M1.12,24.26l2.5-2.5,1.4.18,4.09,3.18,2-1,6,1.5,1.5-1,1-2.5,2.5-2.5,3.5-1,2,1,4.5-1.5v-.5l1.5,1,1.5-.5v-1l1-.5.5,2h2l1,4,5,.64-1,3.5h.5l-2.5,1,.5,1.5,2.5-1-2,3,1.63-.23-3.13,1.23-2,2v-1l-1.5-.5-.5,1.5-4-.5v1.5l-4.5-.5-5,3.5-1-.5-4.5,1.5-3.5,3-2-.5-.5-2-4.5-1.5-2,2-1.5-4-3.5-6,.5-2.5-.5-1,.5-2.5"/>
      <path data-code="leskenskij_rajon" data-title="leskenskij rajon" class="cls-1" d="M40.12,65.26l4.5-4,11.46-3.13,2.04-1.51,5-3v-1h4v-2l4.24.42-.24,1.71-2,1.5.5,6-2,1-1,6.5-5.5,1v-2.5l2-1.5-2-2-2.5,2-1.5-2.5,1.5-2.5-.5-2-7,4-3,2.5,1,1.5-1.5,1-1.5-.5-3,.5-1.5,1,.5-2-2-.5"/>
      <path data-code="majskij_rajon" data-title="majskij rajon" class="cls-1" d="M71.12,40.76l1.24-1.18,7.26.54.5,1,1-1.5,1.5,1v-1.5h1l5.5,1.5v2l1,1,.09.73-1.09-.73-7.5,1-3.5,2v2l-4.5,5,1,5.14-1.5-.5-3.5,2-.5-6,2-1.5.5-3.64,3-1.5,2-2.5-3.5-.5v-1h-2v-2.86"/>
      <path data-code="nal_chik" data-title="nal&amp;apos;chik" class="cls-1" d="M51.62,43.26l-.5-1,2,.86-.5-1.5-2-1,3-.5-.5-1.5.5-.5,1,2,6,1-.5,2,.5.5h-4l1.8,1.58-2.8,1.92-2-2.5-1.5,1,.5,1.5-1,1.5-1.5-2.5,1.5-1-4-2.36,4,.5Z"/>
      <path data-code="prokhladnenskij_rajon" data-title="prokhladnenskij rajon" class="cls-1" d="M67.12,26.62l2,1,2-3.5,2,2.5,3-3,2-3,3-.5,1.5.5,1.5-1.5,3-.5,1,1.5-1,1.5,1.5.5-.5,1,6,4-1.5,2.5,3.5,3,1,.5,2-2.5,4,1.5,1-1.5,2.5.5-2.5,4-3-2-1.5,2.5-2.5-.5-3,5-1-.5-2.5,4.5-1.5-1.5v-2l-5.5-1.5-.5-.5,1-.5-2.5-3.5-2,1,3,3.5v1.5l-1.5-1v1.5h-1l-.5-1-9.59-.71.59-1.79-3.5-2,1-3,1.5.5v-1.5l1-.5-2-1.5-3-.5,1.5-2.5"/>
      <path data-code="prokhladnyj" class="cls-1" d="M79.62,35.62l2-1,2.5,3.5-1,.5.5.5h-1l-3-3.5"/>
      <path data-code="terskij_rajon__kabardino-balkarskaja_respublika_" data-title="terskij_rajon_(kabardino-balkarskaja_respublika)" class="cls-1" d="M73.62,53.62l4.5-5v-2l3.5-2,7.5-1,1.5,1v4l2.5.5,2,2-3,4.5,1,2.5-3,1.5-1.5,3-3,2,.5,2h-5l1-4.5-9.5,2.5,2-4-1-7"/>
      <path data-code="urvanskij_rajon" data-title="urvanskij rajon" class="cls-1" d="M54.58,53.29l5.5-3,1.04-5.16h1.5l.5-1.5,4-1.5h-3.5v-1.5h1.5l1-1.86,6.24.82-1.24,1.18v2.86h2v1l3.5.5-2,2.5-3,1.5-.26,1.92-4.24-.42v2h-4v1l-5,3-2.04,1.51-1.5-4.84"/>
      <path data-code="zol_skij_rajon" data-title="zol&amp;apos;skij_rajon" class="cls-1" d="M5.12,18.62l2.5-2,1.5.5,1-2.5,2.5-2,3-6,7,1.5,4.5-.5,3-6,1.5-1,2.5,1,4,4,2.5-3.5,2,1.5,4-.5,6,4,2.5-3.5,1,.5,2,1.5-2.5,11.5,4.5-.5-.5,3-4,.5-3.5-1-6,3.5-2.85.46-3.65-.46-1-4h-2l-.5-2-1,.5v1l-1.5.5-1.5-1v.5l-4.5,1.5-2-1-3.5,1-2.5,2.5-1,2.5-1.5,1-6-1.5-2,1-4.5-3.5.5-3"/>
    </g>
</svg>