<svg data-code="RU-LIP" xmlns="http://www.w3.org/2000/svg" viewBox="0 0 133.75 132.75">
    <g data-code="lipeckaja_oblast_" data-title="lipeckaja_oblast&amp;apos;">
      <path data-code="chaplyginskij_rajon" data-title="chaplyginskij rajon" class="cls-1" d="M115.63,25.12l1.5-1,1.5-2.5,1-1v-1.5l1.5,1h8l-.5.5-.5,1.5,2.5,1v1.5l1,.5-1,1.5,1,1.5-1,3-2.5,1.5,2.5,1-1.5,2.5,1.5.5v2l2.5,1v.5h-1l-.5,1v.5l1.5-.5-1,3-2,1.5h-3l-1.5,3h-1l.5,1-1,3v-.5l-.5,1-.5.5v1l-1.5,1.5-1,3.5-2.5,1h-2l.5,2.5-3.5-.5v-2.5l-1,1,1.5-4-1-.5,1-2-5.5-7.5-2-.5,1-2-1-3,3,2,2.5-1,.5.5,1.5-1,.5-1.5.5-.5-.5-.5h2l1.5-1.5-1-1,.5-2,1-.5,1,1,.5-1v1.5l1.5-.5.5.5,1-2.5-.5-2-1.5-.5.5.5h-1.5l-.5-1-1,.5-2-1.5v-.5h.5l.5-1-2-2,.5-1"/>
      <path data-code="dankovskij_rajon" data-title="dankovskij rajon" class="cls-1" d="M78.63,9.62l1.5-1h3.5l1,1.5,1.5-.5,2,2,2-2.5.5-3.5,1-1,1.5-.5-.5-2,1.5-1.5,5,1.5v2h.5l2-2,1,2,3.5,1,.5,2-1.5,3,.5,2-1,2-1,.5,1,1-1,.5-.5,3,.5.5.5-1,.5,1,3,1v1.5h1.5l.78,1.83-.78,1.17h-1.5l-1,1.5h-2.5l-2.5,2.5-1.5.5v1.5l-1.5-.5-1,1.5-3,.5-4-.5v1l-1.5.5v1h-1.5l.5-3-2,.5-.5-1-1.5,1.5-4-6v-1.5l-2.5-1.5,1-1.5-3-1,.5-1.5-1.5-1,1-1.5,1,.5,2-.5v-2l1-.5-1.5-2,.5-1v-.5l1-.5-1-1"/>
      <path data-code="dobrinskij_rajon" data-title="dobrinskij rajon" class="cls-1" d="M84.13,104.62l2-1,1-1.5,1.5.5,2.5-2.5h3v-1l2-.5,2-2h.5l1-1.5,3,3-.5,1-1-1-1.5,1.5-.5,1.5,1.5,2-.5,1,.5.5,4,3.5-1,1,2,1.5-2,5,1.5-1,2,1,.5,3.5-1,1.5.5,2h-1l-.5-3.5-1,1.5v1l-3-.5.5,1h-1l-.5,1.5-.5-1-2,2-.5-1,.5,1.5h-1l1,1-2,1.5,1,1-.5,1-4.5-1-2.5,3.5h-1.5l-.5-2.5-2.5-.5-1-2-1-.5-1.5,1h-.5l1-.5-1.5-3-3-2,1-3,3.5-3v-2l-.5-1.5h1l.5-2,1-2-.5-1.5.5-2.5"/>
      <path data-code="dobrovskij_rajon" data-title="dobrovskij rajon" class="cls-1" d="M88.13,54.12l3-1.5h2.5l1-.5-.5-.5,1.5,1,1-5,1.5-.5v-.5l2-.5,4.5,2,1.5-1.5,2,.5,5.5,7.5-1,2,1,.5-1.5,4,1-1v2.5l1.5-.5,2,1.5-1,.5v.5l-.5,1-1.5-1.5-1,1h-1.5l-.5,1,1,2.5-3,4.5-1,.5-.5-.5-.5,2h-1v-2l-.5,1.5-1.5.5-1.5-2v1l-1-.5-2,1-2-3.5h-1v1h-2l1-1-1-2.5,1.5-1v-1h-1l-3-4.5,2-1-.5-.5,1.5-1.5-3.5-2h-4l1-3"/>
      <path data-code="dolgorukovskij_rajon" data-title="dolgorukovskij rajon" class="cls-1" d="M24.13,49.62l2.5-2.5,1.5.5,2.5,3.5,2.5-3.5,2.5.5,1,2,4.5,1-3.5,2.5,3,7,1.5-1,1.5,1.5,1.5-1,1,1-1,1.5,1,2-2,.5.5,2.36-1,1.5.5,1-.5,1.5-2,1,1,1-3,1-.5-.5h-3.5l-1-2.5-3,1-1.5-3v-1l1-.5v-1l-2-1.5-1.5-3.5-2,.5-1,2.5-1-.5.5-1-1-.5,3-6.5-.5-.5-1.5,1.5-1.2-.62.7-2.24h1l-1-2.5.5-2.5"/>
      <path data-code="elec" class="cls-1" d="M48.63,45.62l3.5,1v2.5l1,.5,1-1.5.5.5-.5,1.5-2.5,1-1.5-1.5-3,.5,2-3.5-.5-1"/>
      <path data-code="eleckij_rajon" data-title="eleckij rajon" class="cls-1" d="M48.63,45.62l.5,1-2,3.5,3-.5,1.5,1.5,2.5-1,.5-1.5-.5-.5-1,1.5-1-.5v-2.5l-3.5-1M38.13,39.62h1.5l.5-1,2-.5,1.5,1v-1l3.5,4.36-1,1h2v-1l2,.5,2-1,4.5,2,2-.5,1.06-1.1.94,1.24h4l-1.5,3,3.5,5.5-1.5,4.36-5.5-1.5v2.5l-2.5-.5,1,2.5-2,1.5.5,1h-1l-1.5-4v.5l-1.5,1-1-.5-2.5,4.5-2-.5-1,1.64-1-2,1-1.5-1-1-1.5,1-1.5-1.5-1.5,1-3-7,3.5-2.5-4.5-1-1-2,2.5-3,3,1,.5-1.5h1l-3.5-3-1-2"/>
      <path data-code="grjazinskij_rajon" data-title="grjazinskij rajon" class="cls-1" d="M69.63,82.62l1.5-.5,2,2h-1.5l3.5.5v-2l2-1h-1l-.5-.5,2.5-1,1,1,.5-3,2.5,2h5l-1.5,1v1.5l1.5-.5-.5,2,1-.5-.5-3,1,2,1.5-1-.5-2-.5,1-1-.5v-2.5l-.5-1,1-3v1.5l2-1-.5-1,1.5.5,2,2v-1l1-.5-.5-1-1.5.5-.5-1,1.5-.5-.5-2,1,.5-1-1.5h1.7s.8,2,.8,2l-1,1h2v-1h1l3,4h-1l1,3.5-2-.5-1.5,4,2,2-1.5,1v1.5l1-.5,1,2.5.5-.5v4l1.5,1-1.68,2.27-.82,1.23h-.5l-2,2-2,.5v1l-3.5.5-2,2-.5-2-3-.5v-2.5l-2.5-.5-1.5-2.5,1.5-1-.5-1-11-5.5-1.5.5-1-2.5,1.5-1.5-.5-1"/>
      <path data-code="izmalkovskij_rajon" data-title="izmalkovskij rajon" class="cls-1" d="M24.63,31.12l4.5.5,1-1-1-1h1.5l1-2.5h4l2-2,1-2.5-1.5-1.5.5-2.5h3.5l-.5-1,3-.64.5,2,1.5,1.5-.5,3,2,3-3-.5.5,1-1.5,1v1.5l-1.5,1,.5,1-.5,3.5,3.5-.5.5,3-2,.64v1l-1.5-1-2,.5-.5,1h-1.5l1,2,3.5,3h-1l-.5,1.5-3-1-2.5,3-2.5-.5-2.5,3.5-2.5-3.5-1.5-.5-1.5,1.5h-1.5l-.5-4.5,2,1,1-1.5-3.5-5,2-.5v-.5l1.5.5.5-1.5h-1l.5-2h-.5v-1.5l-1-2"/>
      <path data-code="khlevenskij_rajon" data-title="khlevenskij rajon" class="cls-1" d="M40.63,81.62l7.5-1.14,2.5,1,.5-4,1-.5,1,2,1.5-1,4,2,2.86-.7.14.84h1.5l2,2-2,2,3,.5.5,3.5-1-.64-1.5,1.5-2-1,.5,1.64-1,2.36v1l-4,2-.62,2.37-2.88-2.24-2.5.5-1-2-1-.5v2l-3.5-1-1.5,3.5h-1.5l-2-1.5.16-8.97-.66-5.53"/>
      <path data-code="krasninskij_rajon__lipeckaja_oblast_" data-title="krasninskij_rajon_(lipeckaja_oblast&amp;apos;)" class="cls-1" d="M67.09,27.47l1.54-1.85,3,1,.5-2,1.5-.5,4,5-.5.5,1.5.5-1,2,.5,3.5-2,1,1.5,4h-1l-1,1.5,1.5,2-1,2.5-1.5-.5v2.5l-1.61,1.06-.89-1.56-3,3-1-.5-1.5,1.5-3.5-5.5,1.5-3h-4l-2-2.64,1-1-1.5-1.5,2.5-2-1-.5,1-1h3.5l-.5-4,1-1.5v-2l2.46-.02Z"/>
      <path data-code="lebedjanskij_rajon" data-title="lebedjanskij rajon" class="cls-1" d="M73.63,24.12l3.03-2.66,1.97.66-1,1.5,2.5,1.5v1.5l4,6,1.5-1.5.5,1,2-.5-.5,3h1.5v-1l1.5-.5v-1l4,.5,2.5,2.5-.5,1.5v3l2,2,.5-1h2l2,2-3,3.5-2,.5v.5l-1.5.5-1,5-1.5-1,.5.5-1,.5h-2.5l-3,1.5-1,3-4-3-2,2.5-3-1-1-1-1,1-3.11-5.94,1.61-1.06v-2.5l1.5.5,1-2.5-1.5-2,1-1.5h1l-1.5-4,2-1-.5-3.5,1-2-1.5-.5.5-.5-4-5"/>
      <path data-code="lev-tolstovskij_rajon" data-title="lev-tolstovskij rajon" class="cls-1" d="M94.63,32.62l3-.5,1-1.5,1.5.5v-1.5l1.5-.5,2.5-2.5h2.5l1-1.5h1.5l1-1.5-1-.5h2.5l.5,1,1.5-1.5,1.5,1v2.5l2,2-.5,1h-.5v.5l2,1.5,1-.5.5,1h1.5l-.5-.5,1.5.5.5,2-1,2.5-.5-.5-1.5.5v-1.5l-.5,1-1-1-1,.5-.5,2,1,1-1.5,1.5h-2l.5.5-.5.5-.5,1.5-1.5,1-.5-.5-2.5,1-3-2,1,3-1,2-1.5,1.5-4.5-2,3-3.5-2-2h-2l-.5,1-2-2v-3l.5-1.5-2.5-2.5"/>
      <path data-code="lipeckij_gorodskoj_okrug" data-title="lipeckij gorodskoj okrug" class="cls-1" d="M78.13,70.12l1.5-2,1,.5,1-2.5,1,1.5,1.5-.5v-1l4.5-1-1,1,1.5,3-1,.5,1,2.5,1-1,1,1-.5-2,.5.5.5-1,1-.5,1,1.5-1-.5.5,2-1.5.5.5,1,1.5-.5.5,1-1,.5v1l-2-2-1.5-.5-1.5.5-1,3,.5,1v2.5l1,.5.5-1,.5,2-1.5,1-1-2,.5,3-1,.5.5-2-1.5.5v-1.5l1.5-1h-5l-2.5-2,2-3.5v-1h-2.5l-1-3.5"/>
      <path data-code="lipeckij_rajon" data-title="lipeckij rajon" class="cls-1" d="M88.13,73.62l1.5-.5.5,1-2,1v-1.5M68.63,56.99h1l1-1.5h2.5l-.13-3.49,1.5.5,1.63,3.12,1-1,1,1,3,1,2-2.5,4.5,3h3.5l3.5,2-1.5,1.5.5.5-2,1,3,4.5h1v1l-1.5,1,.2.49h-1.7s-1,.51-1,.51l-.5,1-.5-.5.5,2-1-1-1,1-1-2.5,1-.5-1.5-3,1-1-4.5,1v1l-1.5.5-1-1.5-1,2.5-1-.5-1.5,2,1,3.5h2.5v1l-2,3.5-.5,3-1-1-2.5,1,1.5.5-2,1v2l-3.5-.5h1.5l-2-2-1.5.5.5,1-2,2,.5,1-1,2-1-.5-.5-3.5-3-.5,2-2-2-2h-1.5l-.5-3h1l-.5-.5.5-2.5,2-2-.5-.5,1.5.5,1.5-2.5.5.5-1.5-1.5,1-1v-2l2-.5,4,1.5.5-3-4-1.5,2-.5.5-1.5-2-1-.5.5-.5-1,1-1-1-.64"/>
      <path data-code="stanovljanskij_rajon" data-title="stanovljanskij rajon" class="cls-1" d="M42.12,13.99l3-1.5,1-1,.5.5,3-2,3,3.5,3,1-1,2,1.5-.5.5,4.5,2-.5,1,2-2,3.5h1.5l2-1.5,3.5,1,2-1.5v3.5l-.5.5h-1.5v2l-1,1.5.5,4h-3.5l-1,1,1,.5-2.5,2,1.5,1.5-1,1,1.06,1.4-1.06,1.1-2,.5-4.5-2-2,1-2-.5v1h-2l1-1-3.5-4.36,2-.64-.5-3-3.5.5.5-3.5-.5-1,1.5-1v-1.5l1.5-1-.5-1,3,.5-2-3,.5-3-1.5-1.5-.5-2-3,1,.5-2,1-.5v-1.5"/>
      <path data-code="terbunskij_rajon" data-title="terbunskij rajon" class="cls-1" d="M16.12,61.49l5.5-3.5-1-1.5h2l1.5,1,1.5-1.5.5.5-3,6.5,1,.5-.5,1,1,.5,1-2.5,2-.5,1.5,3.5,2,1.5v1l-1,.5v1l1.5,3,3-1,1,2.5h3.5l-1.5,2.5,3,2-2,2.5,2,.64.8,4.74-2.8-.38-2,1,.5,1-1.5.5-1-2,1-4h-1.5l-.5,1.5-2.5.5-2-3-4,.5-3.5-1-.5,1-4.72-1.36-2.78-3.14-.5-3,1.5-1-1-1,1-1,2.5.5-2-2.5.5-.5v-2l1,.5v-1.5h1l-.5-.5,1-.5-2.5-2,1-1-.5-.5"/>
      <path data-code="usmanskij_rajon" data-title="usmanskij rajon" class="cls-1" d="M62.12,87.99l2,1,.5-1,1-.5,2,1,1-1.86-.5-1,.5-.5,1,2.5,1.5-.5,11,5.5.5,1-1.5,1,1.5,2.5,2.5.5v2.5l3,.5.5,2-1.5-.5-1,1.5-2,1-.47,2.34.47,1.66-1,2-.5,2h-1l.5,1.5v2l-4,4.36-2-1-.5,1.5h-2l-3.5-3.5.5-1-2,1v.5l-3,.5-1-2.5-1.5.5-7-9.5,2-1.5h1l.5-4-4-4,1.5-.5.5-2,4-2v-1l1-2.5-.5-1.5"/>
      <path data-code="volovskij_rajon__lipeckaja_oblast_" data-title="volovskij_rajon_(lipeckaja_oblast&amp;apos;)" class="cls-1" d="M1.12,64.99h1l1-2,1,.5v-1l1-1.5,1,.5.5-1h1l.5-1.5-.5-1.5,2,.5,2.5-1.5,1.5,1,1-1,4,1,.5,1.5h1l-4,2.5.5.5-1,1,2.5,2-1,.5.5.5h-1v1.5l-1-.5v2l-.5.5,2,2.5-2.5-.5-1,1,1,1-1.5,1,.5,3,3,3-3,1.5-1.5-1.5-.5.5v-1l-1.5-1h-.5l-.5,1-2.5-1-.5,1-4-3.5.5-1.5-1,.5-1-1.5,1.5-4.5-1-4.5"/>
      <path data-code="zadonskij_rajon" data-title="zadonskij rajon" class="cls-1" d="M44.13,65.12l2-.5,1-1.64,2,.5,2.5-4.5,1,.5,1.5-1v-.5l1.5,4h1l-.5-1,2-1.5-1-2.5,2.5.5v-2.5l5.5,1.5,1.5-4.36,1.5-1.5,1,.5,3-3,2.37,4.38-1.5-.5.13,3.49h-2.5l-1,1.5h-1l1,.64-1,1,.5,1,.5-.5,2,1-.5,1.5-2,.5,4,1.5-.5,3-4-1.5-2,.5v2l-1,1,1,1-1.5,2.5-1.5-.5.5.5-2,2-.5,2.5.5.5h-1l.36,2.16-2.86.7-4-2-1.5,1-1-2-1,.5-.5,4-2.5-1-8.5,1.5-1-1,2-2.5-3-2,1.5-2.5.5.5,3-1-1-1,2-1,.5-1.5-.5-1,1-1.5-.5-2.36"/>
    </g>
</svg>