<svg data-code="RU-KO" xmlns="http://www.w3.org/2000/svg" viewBox="0 0 723.75 459.25">
    <g data-code="respublika_komi" data-title="respublika komi">
      <path data-code="gorodskoj_okrug_inta" data-title="gorodskoj okrug inta" class="cls-1" d="M466.13,187.76l4.5-2.5.5-1,2-1.5,2.5-3,1-.5v-1l2-1,.5-1.5,2-1.5,2.5-1.5,1-1,.5-1.5-2.5-3h-2.5l-.5-2.5-1.5-.5,32.5-78.5,29.5,12-.5,1.5-1.5-.5-.5.5v1l3.5.5,2.5-1.5,32.5,12.5.5,1v1l2,.5.5-1.5.5-.5,1,.5-.5.5.5.5,1.5-.5.5,1.5.5-.5,8.5,4.5h2l-.5,1.5-5,13.5-5,3,16.5,25v4l4,11.5v1l-2.5,4-1.5.5-.5,1.5-1.5,1v1l-.5-.5v1.5l-3.5,1.5-1,2.5-2.5.5,2.5,3.5-3,1-2,2,1,2-.5,1-4-1-.5,1-1-1-2-.5-1,.5-1-1-1.5,1-6.5,1-1.5,1-3-.5-6,2-3-.5v1.5l-1.5-.5-.5,2-4.5,1,.5,1.5-2.5,1-1-.5-7.5,6-2.5,3-5,2.5-.5,1-.5,2.5,1.5.5-.5,1.5v.5l-2,1.5h-1v1l-1,2-4-2-1.5.5-1.5,2v1.5l-1,1h-3l-2.5,3-3.5-2-2,2h-1l.5,1-1,2-1.5.5-3-1v-1.5l-3-5.5.5-1,1-1v-1l-5.5-4-5-16-11-2,.5-2-1.5-.5v-1.5l-2-2h-5l-1.5-2v-1l.5-.5-2-3v-1l-2-.5-1.5-6"/>
      <path data-code="gorodskoj_okrug_syktyvkar" data-title="gorodskoj okrug syktyvkar" class="cls-1" d="M132.63,307.26l1,.5,1-1.5,2.5,1.5-1,2.5v2.5l-1,1.5-.5,1.5,1,1-1,1.5,1,3.5-.5,1v.5l2-1.5-1.5-2v-1l4,.5-1,2,1.5.5-2.5,3-1-.5-.5,1-1,.5-1.5-1.5h-2.5v-2l-1-2.5,1-3-.5-2,.5-1,2,1,.5-4-.5-2.5h-1l.5-1"/>
      <path data-code="gorodskoj_okrug_ukhta" data-title="gorodskoj okrug ukhta" class="cls-1" d="M245.13,174.76l10-11,26,23.5,3.5.5,14.5,8-10,9h-8l-.5,14-6.5,9,3,2-2.5,2.5,2.5,2.5.5,2.5,3.5,4v1l-4,.5,3,3.5-2,3,3.5,2.5-1.5,8,4.5,17.5,1,11-3.5,2-.5,31.5-46.5-36.5,7-8-8.5-7,7.5-9-5.5-4.5,5.5-8-7-6.5,4.5-6-2-2,7-8.5-2-2,13-15-8-5.5,4.5-7.5-7.5-4.5,8-11-6.5-5.5"/>
      <path data-code="gorodskoj_okrug_usinsk" data-title="gorodskoj okrug usinsk" class="cls-1" d="M380.13,26.76l130.5,59-32.5,78.5-4-1.5-7-5.5h-3.5l-2.5-2-4-.5-4.5-4-2,.5-1.5-1.5-7.5,4.5-5,6-5,1-1,2-8-8.5h-3.5v-3.5l-16.5,3-.5-13.5-39,6.5,14.5-11,7-9.5.5-2h4l2-3-12.5-6.5-17.5-47.5,19-41"/>
      <path data-code="gorodskoj_okrug_vorkuta" data-title="gorodskoj okrug vorkuta" class="cls-1" d="M584.13,113.76l1,.5,1.5-1,.5-1.5,1.5-1-.5-.5h.5v-1.5l1.5,1,.5-1,34.5-6.5v-1l2.5-1v-2l.5-.5v-3l-.5-1.5.5-1h1.5l1-.5.5-2,1-1v-1,.5l1.5-1h3.5l1.5-1,1.5-2.5h4.5l.5-.5v-1l1.5-.5,2.5-.5,2.5,3.5,4,1,1,1.5.5-1h.5l-1.5-3,1.5-1v-1h1v1l1.5-1.5,2,1,2-1v-.5l.5-1h.5l.5-1,1.5-.5-1-2v-.5l1-1-.5-.5.5-.5-.5-1.5v-1h.5l-.5-.5.5-2.5h4.5l2-1v-.5l.5.5-.5-1,2,.5,1-1,5,1,2-2-1.5-.5,3.5-1.5,3.5,1.5-.5-1,.5-.5,1-2v-.5l.5-1-1-1.5,1-1.5v-1.5h1v-1l1,.5v-1h2l2-1.5,1,1,2.5-1,1,1v1l2-.5,1.5,2.5,1-.5.5-1h1.5l4.5,3,3-1,2,.5-1.5,1.5-.5,2h-1l-.5,1.5-2,2-.5,1.5h-1l-1.5,2h-.5l-1,2.5.5,1.5-1,1.5v.5l-.5,3,1,.5h-.5v.5l-.5.5v2l-1,.5-1,2v3l-.5.5v1l1,3.5,3.5-.5,5,3,5-1.5,2.5,2.5,1.5.5,1,2-1,1.5h-1.5l-1,1,1,1.5-1,1-1.5,1,.5,1-.5,1,2.5,1.5,1.5,3.5-1,1-.5,2-2.5,2-4-3.5-1,1.5-2.5-2-2.5,1,.5,3.5-2,1v3l7-1-.5,6-4,5-9-.5-.5,1,1,1.5-.5,1h-2l-1,1.5-1.5-.5-2,2.5-4.5,2-1.5-1-4,2.5h-2.5l.5,1.5-.5,1.5.5,1.5-1.5,1.5-2.5-.5-1.5,1v3l-1,2.5.5.5-1,3.5-3.5,1.5-3-.5-2,1.5-4.5-1.5-.5,1.5-1,.5-3.5-1-1,2-1.5.5.5,2-.5.5-3.5-1.5-2,1-.5,1-1,.5v.5h-1.5l-.5,1-7.5-2.5-2.5,2.5-2.5.5-1,1.5-1.5,1-5-1-4.5,3-2.5-1.5-.5.5v1l-3,1-2,3.5-.5.5-.5,1-1.5-.5-1,2.5,1,4-1.5,1.5-3-3.5-3.5,2,1.5-3.5-4-11.5v-4l-16.5-25,5-3,5-13.5.5-1.5-9-4-.5-1"/>
      <path data-code="izhemskij_rajon" data-title="izhemskij rajon" class="cls-1" d="M253.63,162.76l16-6.5,22,3,10.5-6-2-29,3-4h2l.5-1.5,55.5-51,17.5,47.5,12.5,6.5-2,3h-4l-.5,2-7,9.5-14.5,11-11.5,4.5-5,11-23,34,4,9-16.5-.5-12-9.5-14.5-8-3.5-.5-27.5-24.5"/>
      <path data-code="knjazhpogostskij_rajon" data-title="knjazhpogostskij rajon" class="cls-1" d="M169.63,179.76l14-16,18,14.5,12.5-14.5,3,2.5,9.5-12,6.5,4.5,3-3.5h2l2.5-3,14.5,11.5-10,11,6.5,5.5-8,11,7.5,4.5-4.5,7.5,8,5.5-13,15,2,2-7,8.5,2,2-4.5,6,7,6.5-5.5,8,5.5,4.5-7.5,9,8.5,7-7,8-16.5-13.5-9,13-17-13.5-3,2.5-7.5-7.5-3.5,4.5-2-1.5-6.5,7,2,2-7,8.5-1.5-.5-4.5,5.5.5.5-1.5,2-10.5-8.5,1-2-2.5-2,2-2.5-7-5.5,3-4.5-11.5-9,13-16.5-5.5-4.5,14-16.5,2.5,1.5,6.5-8,12,10,7.5-8.5-2.5-2,3-4-4-3,3.5-4-2.5-1.5,3.5-4.5-11-10.5,2.5-3-5.5-5.5"/>
      <path data-code="kojgorodskij_rajon" data-title="kojgorodskij rajon" class="cls-1" d="M70.13,378.76l3.5-5.5,1,.5,3-3.5,8,5.5,2-1-1-.5h1v-1l-1-.5h.5l-.5-.5.5-1.5,8.5,6,6-6.5,6,4,6.5-8.5,24.5,21-13,17,10,8-3.5,4.5,6,5-2.5,3.5-.5,1,1,.5-5.5,7.5-5-8.5-4,.5-6,3.5-6,5.5-11,5.5-3.5.5-.5-2.5.5-3.5-4.5-7-4.5-1-7.5,5h-1.5l-.5,1.5-2,1-3-2-10.5-3.5-4.5.5-2.5,3-7.5-6.5,22.5-28.5,6.5,5,6-9-10.5-8.5,2.5-3.5-3.5-2.5"/>
      <path data-code="kortkerosskij_rajon" data-title="kortkerosskij rajon" class="cls-1" d="M133.63,333.76l4-4.5,2,1,4-3.5,2.5-3v-1.5h-1l.5-1,1,.5,2-2,4-4.5-6-5,13-18-.5-.5,4.5-5.5,1.5.5,7-8.5-2-2,6.5-7,2,1.5,3.5-4.5,7.5,7.5,3-2.5,17,13.5,9-13,24.5,20-5.5,9,1.5,2-6.5,8,2,1.5-6.5,8,3,2-3,4.5-3-2-3.5,5,2.5,1.5-4.5,7-1.5-1-1.5,1.5-1-1-1.5,2-1.5-1-1.5,2-4-2.5-2.5,3.5-4-5-2,1.5,2,2v2.5l-1,.5v.5l-1.5,2.5v2.5l-2,1.5v1l2,1-6,8-11-7-6,7.5,6,4.5-3,4.5,1.5,1.5-9.5,13,3.5,3.5-6.5,9-10-8-6.5,8-22.5-18.5,7.5-8.5-5-4,10.5-12.5-3.5-2.5,2.5-4.5-8.5-6,4-5-2-1.5"/>
      <path data-code="priluzskij_rajon" data-title="priluzskij rajon" class="cls-1" d="M36.12,336.12l8-10.5h16.5l.5,5.5,3.5,5.5-1,22.5,4.5,4-2.5,3,8,7.5-4,5.5,4,2.5-2.5,3.5,10.5,8.5-6,8.5-6.5-4.5-24,30-.5,2,1.5,4.5-4-.5-3.5-1.5-7.5,9.5,2,1.5-5,6.5,1,.5-6.5,8.5-1-1.5-2,1-6-4.5,1-1-.5-1,1.5-.5,5.5-7.5-6-5,2-2.5v-.5l-3.5-3,.5-1-1.5-2-2.5.5-1.5-1,7.5-10-7-5v-2l-1,1-7.5-6,10-19.5v-1l3-6.5,2.5-3.5,12.5-3,1.5-2-1.5-4.5-.5.5-3.5-3,1.5-.5,2,1-2-5.5,1.5-1.5v-1l3-1,5.5-20"/>
      <path data-code="rajon_pechora" data-title="rajon pechora" class="cls-1" d="M323.62,196.12l23-33.5,4.5-11.5,12-4,39-7,.5,13.5,16.5-2.5v3.5h3.5l8,8.5,1-2,5-1,5-6.5,7.5-4.5,1.5,2,2-1,4,4.5,4.5.5,2.5,2h3.5l7,5.5,5.5,2,.5,2h2.5l2.5,3-.5,1.5-1,1.5-2.5,1.5-2,1.5-.5,1.5-2.5.5.5,1-1.5.5-2,3.5-2,1.5-.5,1-3.5,1.5-1.5,1.5,1.5,2,.5,3.5h2l-.5,1,2.5,3.5-1,.5.5.5,1.5,2.5,5-.5,1.5,2.5v1l2,1-.5,2,11,2,5,15.5-2,1.5-1-.5-3.5.5-.5,3-2.5,2.5-3.5-.5-.5.5v1l-1,.5-1-2-3,1.5-1,2-1,.5v1l-2,1-1-1-.5,1.5v1l-.5.5-.5,1-.5,1,.5,2.5,1,1,.5,2-1,.5-3-1-.5,1-1,1-5-5-5-.5-3.5-1.5-2,1.5-2-1.5-3,1-2,1.5-2-1.5-.5-1.5-3-1-2,1v.5l-1,1h-1l-5-4.5-12.5-9-2,2-.5,5-2,1-2.5-2v-2.5l-2-2-2.5-.5-10-8.5-21,19.5-2-4.5-2-2,1.5-1.5-8-8.5-.5.5-3-3-2,1-16-17-16.5-1-3.5-9"/>
      <path data-code="rajon_sosnogorsk" data-title="rajon sosnogorsk" class="cls-1" d="M281.12,204.62h8l10-9.5,12,9.5,32.5,1.5,16,17,2-1,3,3-19.5,21,2.5,1.5-5.5,6,2,1.5-8,8.5,4.5,4.5,1-.5,6.5,5-8,9,2,1.5-4,3.5,7,7.5-1,2,8,8.5-2,1.5-1.5-.5-2.5,1.5-9-8,1.5-4-3-3.5-3.5-2.5,2-2.5-8.5-8-17,19.5-3,.5-21,26-3-3v-31l4-2-1.5-11.5-4.5-17,2-8-3.5-3,1.5-2.5-2.5-3.5,3.5-1v-.5l-3-4-.5-3-2.5-2.5,2-2.5-2.5-2.5,6.5-8.5.5-14"/>
      <path data-code="rajon_vuktyl" data-title="rajon vuktyl" class="cls-1" d="M336.12,263.62l8-8.5-2-1.5,5.5-6-2.5-1.5,20-21.5,8,8.5-1.5,1.5,2,2,2,4.5,21-19.5,10,8.5,2.5.5,2,2v2.5l2.5,2,2-1,.5-5,2-2,12.5,9,5,4.5h1l1-1v-.5l2-1,3,1,.5,1.5,2,1.5,2-1.5,3-1,2,1.5,2-1.5,3.5,1.5,5,.5,5,5-1.5,1-2,3-3.5,2.5,3.5,1-.5,1.5.5,3.5-2,1v1.5l.5,1.5-2,1.5-.5.5-.5,1.5-3,4,1,2.5-.5,1,.5,2-.5,2,4,2.5-1,1v2l-3,2.5-1,1.5v1l-2.5,2-6,1.5-.5,1.5v2l-3,3-.5,2-.5.5-.5,1.5-1,1v1l-3.5,4v1l-2.5,4.5-1.5,1-.5,2-2,1-2,3.5-3,1.5,1.5,2-2,1-1,1.5-.5,5h-1l-2,2.5.5.5-1.5.5-.5,4.5-4,1-2-2.5,1-1.5-.5-1.5,1-1-.5-3.5,1.5-4.5-6-3.5-2-4.5-11.5-2,5-19-3-4-3,3.5-1.5-10-5,5-22,24.5-23.5-23,1-2-7-7.5,4-3.5-2-1.5,8-9-6.5-5-1,.5-4.5-4.5"/>
      <path data-code="syktyvdinskij_rajon" data-title="syktyvdinskij rajon" class="cls-1" d="M132.62,307.62l-.5,1h1l.5,2-.5,4.5-2-1-1,1,1,2-1,3,1,2.5v2h2.5l1,1.5,1-.5.5-1.5,1,.5,2.5-2.5-1-.5,1-2-4-1v1.5l1.5,1.5-2,2-.5-1,1-1-1-3.5.5-1.5-.5-.5.5-2,1-1v-2.5l1-2.5-2.5-1.5-1,1h-1M89.62,302.62l7.5-10,8,6.5,7.5-8.5,2.5,2,2.5-4,2.5,1.5,1.5-1.5,3,2,2-1.5,2,.5-.5-2.5,4,1,8.5,6,6.5-8.5,10.5,8.5-11,16,5.5,5-3.5,5-2,2-1.5-.5v.5l1,.5v1.5l-2.5,3-4.5,3-1.5-.5-4,4,2,2-4,5,8.5,6-2.5,4,3.5,3-11,12.5,5,4-7,8-14-12,3-4-4-3,3-4.5-8-8v-1.5l-1,1-3-3.5,5.5-6-2.5-2,2-2-2-2,3.5-4.5-4.5-3.5,1-1.5-6-5.5-4.5,6-10-8,6.5-8-3.5-3"/>
      <path data-code="sysol_skij_rajon" data-title="sysol&amp;apos;skij_rajon" class="cls-1" d="M60.62,328.12l7-1.5,5,4.5,14-17.5,10,8,4.5-6,6,5.5-1,1.5,4.5,3.5-3.5,4.5,2,2-2,2,2.5,2-5.5,6,3,3.5,1-1v1.5l8,8-3,4.5,4,3-9.5,12-6.5-4-5.5,6.5-8.5-5.5-1,1.5h1l-1,.5,1.5.5v.5l-1,.5,1,.5-2,1-8-6-3,4-1-.5-8-7.5,2.5-3-4.5-4,1-22.5-3.5-5.5-.5-3"/>
      <path data-code="troicko-pechorskij_rajon" data-title="troicko-pechorskij rajon" class="cls-1" d="M284.62,324.62l21-26,3-.5,17-19.5,8.5,8-2,2.5,3.5,2.5,3,3.5-1.5,4,9,8,2.5-1.5,1.5.5,2-1.5,15.5,14.5,22-24.5,5-5,1.5,10,3-3.5,3,4-5,19,11.5,2,2,4.5,6,3.5-1.5,4.5.5,3.5-1,1,.5,1.5-1,1.5,2.5,3-2.5,3-.5,3.5,1.5,1v2.5l2.5,2,.5,2.5-1,1.5-3,6-1,1h-2l.5,1-1,1,1,1.5-1,2,.5,1.5-1,1.5.5,2.5-2,2,5,3.5-3.5,6.5-1,1.5.5,1-1,2.5h-1.5l-.5,1.5-2.5.5-1,1v1.5l-1,1.5-2,.5-1.5,3.5-2,1-1.5,3.5,1,1-1,2.5-.5.5-1,3.5.5.5-.5,3-3.5,2-.5,1.5-2.5,1-2.5,3v1.5l2,3-4,3.5v1.5l-4.5,1-1-1h-2l-5.5,4.5-6.5-1-.5,1.5-52-23-1.5,1.5-11-8.5-1.5,2-1-.5-3,4-5-4-5.5,7.5-.5-8.5,12.5-15.5-2-11-9-13-3.5,1.5-4-3-.5-4,5.5-4-2.5-16,15.5-16.5-9-7"/>
      <path data-code="udorskij_rajon" data-title="udorskij rajon" class="cls-1" d="M70.62,85.62l11-.5,4.5,1,11,9,10.5.5,20,8.5,21,13-2,4-1,3.5,6.5,5.5,6.5-8.5,9,7v-1l7-7,12,10.5,6.5-8.5,8.5,7,.5-.5,10.5,9,13-15.5,2,2.5-1,1,.5,1,2,3-1,4,4,4-1,1.5.5,2.5-.5,1.5v.5l-2,2v.5l-1.5,2,2.5,1.5-13,15.5-3-2-12.5,14.5-18-14.5-14,16,5.5,5.5-2.5,3,11,10.5-3.5,4,2.5,2-3.5,4,4,3-3,4,2.5,1.5-7.5,9-12-10-7,8-2-1.5-14,17-26.5-22.5-7,8.5-8-7-10,12.5v2.5l-5,10.5-18-11.5-5.5,9-7-4,6-9.5-5-2.5,11-18.5,1.5-14,15.5-2.5-1-.5,6-3.5,2.5-4,.5.5,1.5-1.5-4.5-3.5-3-9-2.5-2.5.5-2.5-.5-5,4-6,4-3,2-3.5,1-14-6-14.5-5-7-5-4-5.5-11.5-.5-10"/>
      <path data-code="ust_-cilemskij_rajon" data-title="ust&amp;apos;-cilemskij_rajon" class="cls-1" d="M227.62,25.62l3-5.5,86-7,.5-1.5v-3l2-1,.5-1h.5v-3l1.5-1,2.5.5,1,3,2,.5-.5,1,1-1.5h1l-1-1,1-.5.5,1.5.5-1,1-1,.5,1-.5-1.5h1.5l-1-1,2.5,1.5h.5v-1l3.5.5V1.62l1,.5,3.5-1.5,38,26-19,41-55.5,50.5-.5,2h-2l-3,3.5,2,29.5-10.5,6-22-3-16,6.5-13-10.5-2.5,3h-2l-3,3.5-6.5-5,3.5-3.5-2.5-1.5,1.5-2v-.5l2-2v-.5l.5-1.5-.5-2.5,1-1.5-4-4,1-4-2-3-.5-1,1-1-7.5-8-1.5-29.5.5-7.5-17-4.5,25.5-50"/>
      <path data-code="ust_-kulomskij_rajon" data-title="ust&amp;apos;-kulomskij_rajon" class="cls-1" d="M175.12,361.12l6-8,10.5,7.5,6.5-8-2-1.5v-.5l2-1.5v-3l1.5-2v-1h1v-2.5l-2-2,2-1.5,4,5,2.5-4,4,3,1-2,2,.5,1.5-1.5,1,1,1.5-1.5,1,.5,5-6.5-2.5-1.5,3.5-5,3,2,2.5-5-3-2,7-8-2-1.5,6.5-8-1.5-1.5,5-9.5,51,40-15.5,16.5,2.5,16-5.5,4,.5,4,4,3,3.5-1.5,9,13,2,11-12.5,15.5.5,8.5-.5,1.5-4.5,6-12-10-7,9-12-10-6.5,9-4-3-6.5,8.5-29-23.5-6,8.5-12.5-9.5,6-8.5-18-15,10-13-1.5-1.5,3-5-6-4"/>
      <path data-code="ust_-vymskij_rajon" data-title="ust&amp;apos;-vymskij_rajon" class="cls-1" d="M81.62,296.12l20-25.5,2.5,1-.5-1,1-1,2.5,1.5,21.5-27,7-8.5,10,8-13,16.5,11.5,9.5-3,4.5,6.5,5-1.5,3,2,2-7.5,10-8.5-6-4-1,.5,2.5-2-.5-2,1.5-3-2-1.5,1.5-2.5-1.5-2.5,4-2.5-2-7.5,8.5-8-6.5-7.5,10-8-6.5"/>
    </g>
</svg>