<svg data-code="RU-KEM" xmlns="http://www.w3.org/2000/svg" viewBox="0 0 182.25 328.11">
    <g data-code="kemerovskaja_oblast_" data-title="kemerovskaja_oblast&amp;apos;">
      <path data-code="anzhero-sudzhensk" class="cls-1" d="M60.62,50.12h.5v.5l-.5-.5M59.62,50.62l.5-.5.5.5h-1M55.62,44.62l2.5-2.5-.5-1.5,2-.5v1l1,.5-1,2.5h1l.5,1,1.5-.5.5,2.5h-1.5l-1,1,1,1-1.5.5-5-1.5.5-3.5M56.12,41.62l1-.5v1l-1-.5M66.12,47.12l1-2.5,3.5,1v2.5l-.5,1.5h.5l-3.5-1-1-1.5M59.12,50.12h.5-.5M59.62,51.62l.5-.5v.5h-.5M61.12,52.12v-.5.5"/>
      <path data-code="belovo" class="cls-1" d="M54.62,161.62l2,.5,1-1.5.5.5,1-2,1,.5-1,2.5h.5l1,2.5-.5,4.5h-.5l.5,1.5h-.5l.5,1-1,.5-1-1.5-2.5,2-1.5-.5v-2l3.5-2-3-6.5M60.62,156.12l.5.5v-2.5l1.5.5.5,1-1.5,2.5-1-2M62.12,160.12l2,2-.5.5.5,1h-1.5l-.5-3.5M47.12,171.62l3-1.5.5,1-2,2-1.5-1.5"/>
      <path data-code="belovskij_rajon__kemerovskaja_oblast_" data-title="belovskij_rajon_(kemerovskaja_oblast&amp;apos;)" class="cls-1" d="M52.62,181.62l1.5.5,1.5-1.5-1-1-2,2M62.12,160.12l.5,3.5h1.5l-.5-1,.5-.5-2-2M60.62,156.12l1,2,1.5-2.5-.5-1-1.5-.5v2.5l-.5-.5M54.62,161.62l3,6.5-3.5,2v2l1.5.5,2.5-2,1,1.5,1-.5-.5-1h.5l-.5-1.5h.5l.5-4.5-1-2.5h-.5l1-2.5-1-.5-1,2-.5-.5-1,1.5-2-.5M37.62,183.62l6.5-3.5-1-1.5h-3l1-2.5,1,2,3.5-.5.5,1.5,2-2v-2l-.5-2.5h2.5l1.5-3.5v-2l-2.5-2.5,4-2-.5-3.5,1-2-1-1.5,1.5-.5-.5-1.5,2.5-1,1,.5v1.5l.5.5,2,1v-2.5h.5l-1-2,1-1.5-1-1,3.5-1.5,1,.5,3-.5,1,1,.5-1,3-.5,4,2-.5,1.5h.5l4-3.5,11.5,6,4.5-.5,7,6.5-.5,1.5-.5-1,.5,1-1,.5h.5l-1.5,2,2.5-2.5,2,3-1.5.5,1-.5.5,1v1.5h-1l.5.5-.5,2-1,1.5-15.5-1,.5,1-1,2.5h-2l-4.5-5.5-3,4-5,3.5-5-1-2,2.5v.5l-2.5,2-1,2-4,2.5-2-.5-1,1.5-1.5-1.5-4.5.5v1l-1,.5,1,.5-2,2.5-1.5.5,1,2.5-5-2v-1h-1.5l-1.5-4"/>
      <path data-code="berezovskij" class="cls-1" d="M60.62,81.12l1-2.5.5,1,2-2.5v-1.5h-.5l.5-.5-.5-1.5,1.5-.5v-1.5l1.5-1.5,1.5,1-2.5,3.5,1,2.5h-2l1,2-1.5,1.5,1,.5-3.5,2.5h-.5l-.5-2.5"/>
      <path data-code="chebulinskij_rajon" data-title="chebulinskij rajon" class="cls-1" d="M84.29,93.79l4-14,4,1,1.5-4.5h-1v-2.5h2.5l.5-1-1.5-2.5,5-5-1.5-3,2.5-2.5.5-1.5,2.5,1.5,2-2.5,1,.5,9.5-10,3,2,3.5-3,2,1.5,1.5-.5.5,2.5h3l.5,1.5,2,1,.5,2h2.5l2,2.5-1,2,2.5,2.5-3.5,2v3l-3,3v1l-3-1-1.5,1-1,1.5,1,2.5h-.5l1,.5-1.5,4,1,.5-.5,1-1,.5-1-1.5-1.5,1-1.5-1.5.5,1.5-.5,2.5,1,1v1.5l-4.5,1.5-1,2-2.5-1-.5,1.5-2.5.5-5-1-1.5,2.5-12.5,1-7,2-1.5-1"/>
      <path data-code="gur_evskij_rajon__kemerovskaja_oblast_" data-title="gur&amp;apos;evskij_rajon_(kemerovskaja_oblast&amp;apos;)" class="cls-1" d="M8.12,144.12l3-1,2,1,2,3,1-2v-1.5l1.5-1.5,3,5h1l1.5,2.5-1,1.5h2.5l1.5,4,1-1,4-2.5,4.5,2.5,1-1v-1l4-1v2.5l7.5,6-2,4.5v2.5l3-2,2.5,2.5v3l-.5,1-1-1-3,1.5,1,3.5v2l-2,2-.5-1.5-3.5.5-1-2-1,2.5h3l1,1.5-6.5,3.5-2-5-2.5,1-2-5-2.5,1-1-2-4,2-8.5-19.5-1.5.5-5.5-12.5"/>
      <path data-code="izhmorskij_rajon" data-title="izhmorskij rajon" class="cls-1" d="M71.62,12.12l.5-2h1.5v1h1l.5,3.5h2l3.5-1.5,2.5-2.5v1.5l1,.5.5-2.5,1.5-1.5,2.5,3,2-1.5,1.5,3h-.5l.5,2.5,2,1,2-1,.5-1.5.5,2v1l-1.5,1.5-.5,4,2-1-.5,2.5-1.5.5,1,4.5,2.5,1-3,3,1.5,1v3l1,.5v1l4,.5v1h-1v1l-.5,1h.5v1.5l-4,.5v2l2,.5.5,1.5-1,.5,6,3-2,2.5,1,1-2.5,2-.5,2-3,3,1.5,3-5,5,1.5,2.5-.5,1h-2.5v2.5h1l-1,4h-5l-1-1v-1l-1-.5,1-.5-2-2,.5-.5-5-2v-1l-1-1v-.5l-1.5-1v-1.5l-2-2,1.5-2-3-2.5,1-5.5,1-.5-1-3.5,2-1.5-2-.5,1-2.5,2-2.5,1-5.5-1.5-.5,1-1.5,2,.5-1-2,.5-2h1l.5-2-1-2v-2l-4.5-2.5-.5-6-2.5-1.5v-.5l.5-3.5-1.5.5.5-1-1-1"/>
      <path data-code="jajskij_rajon" data-title="jajskij rajon" class="cls-1" d="M59.12,50.12h.5-.5M60.62,50.12l.5.5v-.5h-.5M56.12,41.62l1,.5v-1l-1,.5M59.62,50.62h1l-.5-.5-.5.5M61.12,52.12v-.5.5M66.12,47.12l1,1.5h1l2,1.5.5-.5h-.5l.5-1.5v-2.5l-3.5-1-1,2.5M43.62,30.12l2.5-2.5,4-1,3,.5-1-3.5h.5l.5-1.5,7-1-.5-2,1-1.5,2,.5,2.5-1v-3l3.5-2.5-.5-1.5,1-.5-.5-1,5.5-.5-.5,2-2,1v1l1,1-.5,1,1.5-.5-.5,3.5v.5l2.5,1.5.5,6,4.5,2.5v2l1,2-.5,2h-1l-.5,2,1,2-2-.5-1,1.5,1.5.5-1,5.5-2,2.5-1,2.5,2,.5-2,1.5,1,3.5-1,.5-1,5.5-4.5-1-.5,1.5-2.5-.5-1,.5-.5,1.5-1,.5-.5-1-1,1-.5-2-2,1-1-2v-2.5l2-1-.5-.5,1-1-.5-1v-3l-6-.5v-3l5,1.5,1.5-.5-1-1,2-1.5.5,1-.5-3-1.5.5-.5-1h-1l1-3-3-.5.5,1.5-2.5,2.5-.5,2.5h-1v-2.5h1l.5-2v-4.5l-1.5-.5v-1.5l-7-.5v-2l-3-2.5-.5-1"/>
      <path data-code="jashkinskij_rajon" data-title="jashkinskij rajon" class="cls-1" d="M37.12,37.12l.5,1h1v-1.5l-1.5.5M48.12,45.12v.5h.5l-.5-.5M42.12,46.12l2,2.5,1-1.5,1.5.5v-3h-.5l-.5-1-3-.5-.5,3M39.62,41.62l.5,1.5.5-.5v-.5l-1-.5M51.62,47.12l.5.5.5-.5-.5-.5-.5.5M17.12,44.12l1.5-2,5-3,3-4.5h3.5v-1.5l1-.5h2l6,3v-1l15,1.5v1.5l1.5.5v4.5l-.5,2h-1v2.5h1v4l6,.5v3l.5,1-1,1,.5.5-3,2.5-4-1.5v2.5h-1.5l-1.5,3,1,2-1.5,2-.5,1.5-2,1.5-2-3-1,1,1,4.5,1.5,1-.5,2h-2.5v1.5l-3.5-4-5-3.5h-3.5l-2,2.5h-3l-5-3.5-4.5-1-1.5-4.5v-4.5l3-2.5,1.5-3-1.5-4.5-1.5-2-1-3"/>
      <path data-code="jurga" class="cls-1" d="M11.62,65.62l1.5-1.5,1,1,2.5-1.5,2,4.5-2,1.5v-1h-2l1,1-.5.5-1.5-1.5,1.5-1h-2.5l-1-2"/>
      <path data-code="jurginskij_rajon__kemerovskaja_oblast_" data-title="jurginskij_rajon_(kemerovskaja_oblast&amp;apos;)" class="cls-1" d="M1.62,42.12l16.5-6.5,1.5,1,1.5,3.5-3,2.5-1,2,4,8.5v1.5l-1.5,2-2.5,2-.5,5-2.5,1.5-2-.5v2l.5,1h2.5l-1.5,1,1.5,1.5.5-.5-1-1h2v1l2-1.5,2,.5,7,4h3l2-2.5h3.5l5.5,4.5-1,4.5-2.5,1-1.5,3-3-3.5-2,2-.5-1-4.5,1-.5-1h-1.5l-.5,2.5-3-1v2.5l-1,.5.5,1-2.5,2.5-.5.5-1-1.5-2,1,.5,1.5-3.5,1.5-.5-1-1.5,1-6-2.5-1-1.5,5.5-3.5-1-3.5,2.5-1.5-.5-7.5-2.5-1h1l.5-1-3-2.5-1,.5v-1h-1v-1.5h-1v-3h3v-2l-2-.5,1-2-1.5-2,.5-1.5H.62v-1.5l3-1.5.5-.5-2-2,2,.5v-2.5l1.5-1-.5-1.5h-2.5l-1-2"/>
      <path data-code="kaltan" class="cls-1" d="M86.64,227.72v-1h2l3-2-1,3.5,1,1-2.5,1.5-1-1.5-1,.5-.5-2"/>
      <path data-code="kemerovo" class="cls-1" d="M57.12,85.12l1-1,1.5.5-1,1-1.5-.5M56.62,84.62h1l-.5,1-.5-1M49.62,98.62l.5-1,1,.5.5-2v-1h1l-2-1.5,1-2-1-1,4.5-1,1,2.5,1-1-2-1,.5-.5,1.5-.5,1.5,2,1-2h-.5l.5-2.5-.5,1-2.5-1.5.5-.5v-.5l1.5.5,1.5-.5v-1.5l.5,1.5-.5,1.5,1.5-.5v2l-2,.5,1.5,1.5h-1.5l.5,1h-1l-.5,1.5v1l-.5,1.5h2l-1.5,1,1.5,2-.5.5v1.5l-1.5.5-.5,1.5-2,1.5,1-2.5-1.5-1.5-1,1,1,1-2-1-.5,2-2-.5-.5,1v-1l1-1h-1.5l1.5-1h-1l-.5-1.5"/>
      <path data-code="kemerovskij_rajon" data-title="kemerovskij rajon" class="cls-1" d="M56.62,84.62l.5,1,.5-1h-1M57.12,85.12l1.5.5,1-1-1.5-.5-1,1M60.62,81.12l.5,2.5h.5l3.5-2.5-1-.5,1.5-1.5-1-2h2l-1-2.5,2.5-3.5-1.5-1-1.5,1.5v1.5l-1.5.5.5,1.5-.5.5h.5v1.5l-2,2.5-.5-1-1,2.5M49.62,98.62l.5,1.5h1l-1.5,1h1.5l-1,1v1l.5-1,2,.5.5-2,2,1-1-1,1-1,1.5,1.5-1,2.5,2-1.5.5-1.5,1.5-.5v-1.5l.5-.5-1.5-2,1.5-1h-2l.5-1.5v-1l.5-1.5h1l-.5-1h1.5l-1.5-1.5,2-.5v-2l-1.5.5.5-1.5-.5-1.5v1.5l-1.5.5h-.5l-1-.5-.5,1,2.5,1.5.5-1-.5,2.5h.5l-1,2-1.5-2-1.5.5-.5.5,2,1-1,1-1-2.5-4.5,1,1,1-1,2,2,1.5h-1v1l-.5,2-1-.5-.5,1M42.12,89.12l3.5-3.5.5-1.5,2.5-2-1.5-2.5-2.5-2v-1.5h2.5l.5-2-1.5-1-1-4.5,1-1,2,3,2-1.5.5-1.5,1.5-2-1-2,1.5-3h1.5v-2.5l4,1.5,1-1.5.5,3.5h2.5l.5,2,1-1,.5,1,1-.5.5-1.5,1-.5,2.5.5.5-1.5,4.5,1,3,2.5-1.5,2,2,2v1.5l1.5,1v.5l1,1v1l5,2-.5.5,2,2-1,.5,2.5,2-5,18-8.5.5-1.5,1.5v2l-2,2,.5,1.5.5,2.5-1,3,.5,2-7,4-2-1.5-2.5,2-4.5-2.5h-2l-.5,1.5-1.5.5,1.5-1.5-1-5.5-2,.5-1-2.5-3.5-.5-.5-3-2-2.5,1.5-2.5,3.5-3.5-2-.5-1-3-3-2v-1"/>
      <path data-code="kiseljovsk" class="cls-1" d="M65.12,184.12l1.5-1-1-1v-.5l3,1.5-1,3-.5-2h-2M60.12,195.12l1,1v-1.5l2-1.5-.5-1.5.5-.5.5,1.5,1-2-2.5-2,2-1,4.5-.5.5.5-.5,1,.5,1.5,1-.5.5,1,2,.5,2-.5-3,2,1,3-2.5,1v1h-2.5l-.5-1.5-.5,1.5-1.5-1,1-1.5-1.5-1-3,1-1,2-.5-2M57.12,194.62l.5-.5v1.5h1.5l-1.5,1.5-.5-2.5"/>
      <path data-code="krapivinskij_rajon" data-title="krapivinskij rajon" class="cls-1" d="M51.62,125.12l.5-1,3.5-1.5v-1l1-1-1.5-2,3-2.5,2,1,3-2v1.5h1.5l7-4-.5-2,1-3-.5-2.5-.5-1.5,2-2v-2l1.5-1.5,8.5-.5,1-4,1.5,1,1.5-1,1,3.5v1.5l-3,2,1,3,2-.5,1.5-2.5,2,1,.5,1,3,.5v1l1.5-.5,1.5,3.5h1l.5,1.5.5-1-.5-.5h.5l2,3.5,4.5,2-.5,1,2,1v1l2.5,1.5,7,1,5.5,10,7,3-2,3.5v2l-1.5,4-2,.5-2,3.5-1.5-.5-.5,1h-2l-1.5,1.5h-5l-3.5-2-1.5.5-1,2.5-.5,3h-2l.5,3.5-.5,1.5h-2l.5,3-1.5-1.5-.5,1-5-5.5-4.5.5-11.5-6-4,3.5h-.5l.5-1.5-1.5-1-4.5-1,.5-1.5v-1l-5-4.5,2.5-5-3-2,1.5-2,.5-2.5-.5-1,1.5-1-.5-1.5-2-.5-1,1h-2l-2,3-2,.5-6-4"/>
      <path data-code="krasnobrodskij" class="cls-1" d="M52.62,181.62l2-2,1,1-1.5,1.5-1.5-.5M60.62,181.62l1-1,1,.5-1.5,1.5-.5-1M53.62,184.12l1.5-1.5,2,.5-3,1.5-.5-.5"/>
      <path data-code="leninsk-kuzneckij" class="cls-1" d="M52.12,147.62l1.5-3.5-.5-1.5,2-2-.5-1.5h1l1,2.5,1.5-.5.5,2.5v.5l-1,.5.5,1v3l-3,1-3-2"/>
      <path data-code="leninsk-kuzneckij_rajon" data-title="leninsk-kuzneckij rajon" class="cls-1" d="M18.12,143.62l4.5-3.5,1,1.5,3.5-2v2l1.5,3,2.5-1.5-1.5-2.5v-1l3-.5.5-1-.5-.5,1.5-2.5,3.5.5,2-2.5,4.5,3.5,6-6.5,1,1.5,3.5-2-1-2,1-1,1.5,2h3.5l2-3h2l1-1,2,.5.5,1.5-1.5,1,.5,1-.5,2.5-1.5,2,3,2-2.5,5,5,5.5-.5,1.5-1,.5-.5,1-1-1-3,.5-1-.5-4,1.5-1-4.5,1-.5-.5-3-1.5.5-1-2.5h-1l.5,1.5-2,2,.5,1.5-1.5,3.5,3.5,1.5.5,3.5-2.5,1,.5,1.5-1.5,1,1,1-1,2,.5,3.5-7,4v-2.5l2-4.5-7.5-6v-2.5l-4,1v1l-1,1-4.5-2.5-4,2.5-1,1-1.5-4h-2.5l1-1.5-5-6M59.62,154.62v.5h.5l-.5-.5M58.62,153.62h1l.5,1-.5,1.5-1-2.5M58.12,151.62h1l.5,1.5h-1l-.5-1.5"/>
      <path data-code="mariinskij_rajon" data-title="mariinskij rajon" class="cls-1" d="M95.12,24.62l1.5-.5.5-2.5-2,1,.5-4,1.5-1.5,4.5.5,3.5-2-.5-.5,1,.5-2.5-1.5,1-.5v-1h-1l-.5-1.5h1v-1.5h-1l1.5-1,1,2,1.5,1,5-1,.5,1.5-2,1,.5,1.5,9-4.5,1.5,4.5-1,1,.5,3,15-7.5.5-1.5,3-1,7.5-5.5,1-2.5,1.5.5,1-.5,3,4.5,5-3-1.5,7,4,.5-.5,2.5h-2l-.5,4-6-.5,1.5,6.5h2v5h-1v1l-6-1.5-.5,1.5-2.5-.5v1l-2.5,1.5-1,2h-1l-.5,2.5,2.5-.5,1.5,2,1,2h-.5v1.5l-1,2,1,1-1.5,2h-2l-.5,4,1.5,1.5.5,2.5-5,4.5-2-.5-1-2h-2.5l-.5-2-2-1-.5-1.5h-2.5l-1-2.5-1.5.5-2-1.5-3.5,3-3-2-1,2-3,1.5-5.5,6.5-1-.5-2,2.5-2.5-2,3-2.5-1-1,2-2.5-6-3,1-.5-.5-1.5-2-.5v-2l4-.5v-1.5h-.5l.5-1v-1h1v-1l-4-.5v-1l-1-.5v-3l-1.5-1,3-3-2.5-1-1-4.5"/>
      <path data-code="mezhdurechensk" class="cls-1" d="M112.62,214.12l.5-1,3,1,.5-2.5,4.5-8,.5-2,2-.5,1.5,2,.5-2.5,1-.5-.5-2.5,1-.5.5-1.5,2.5-4.5.5-4-.5-1.5.5-1.5,4-1.5h1v1.5l1,.5,1.5-2.5-.5-1.5,1-.5-.5-2.5,1-.5-.5-1.5,1-1.5,3,1.5,1,1-.5,1v1.5l2,.5,1.5-3,4.5-4.5,1,.5,1-2h1l2.5,2.5,1,2.5-1,2,1.5.5.5,1-.5,1h1l1.5-3,3.5-.5h1v2.5l1.5.5-.5,1,.5,1.5h1.5l-1,1-.5,2.5-.5.5v2l-1.5,3-1.5,1-3.5.5-1,2v3.5l-.5,2,2,2-1,1v1.5l1.5-1,4.5.5v2.5l-1.5,2,1,2.5,1.5,1v1.5l-2,1.5h-6v2.5l-1,1.5-.5,3-1,1.5.5,1-2,.5-1,1,.5,1-4,1,1,2.5h1l-1.5,2,.5,3-.5,2-1.5-.5-1,2,.5,1-1,2.5-1.5,1v1l1.5,1,2-2.5,2.5-.5,1.5,3.5-.5,1.5,3.5,3.5v3l-2,2.5,1,1.5-2-.5-5,2h-3.5l-3.5-1.5-2-3.5-3,1.5-1.5-1-1.5,1.5-.5-.5.5-1.5-5-1-.5-1.5,1.5-1,1-2.5,2-3-.5-1-1-1,.5-.5v-2l2-5.5-1.5-1-5,3.5-1-1.5h-3.5l.5-1.5-2-2.5-1,.5-1.5-5-1.5-1,1.5-2.5-3.5-2.5v-1l-1-2.5-.5-4-.5-.5"/>
      <path data-code="myski" class="cls-1" d="M102.32,211.82l.5-1,2,.5-.5,2,1,.5.5-1.5-.5,1.5,1,1.5,2-1-.5-1,1-.5v2l-.5-.5-.5,1,1.5,1.5.5-.5-1-1h1.5v-2l.5,1h2.5v1.5l-1,1.5v3l-.5,2,2-1.5v.5l-1,.5,1,1-4.5,4.5,1.5-2.5-3,.5v-1l1.5-.5-.5-1,1.5-1v-3l-3-2h-2l-.5-1h1v-1l-3.5-2v-1"/>
      <path data-code="novokuzneck" class="cls-1" d="M74.62,218.49l1.5-2.5,3,1,1-1v-1l1-2h-1l1-1-.5-1,1,1,1-3h2.5v-1.5h1l1.5-4-2.5.5-1-1,1-.5v-2.5l1-1.5,1,1-1,.5,1,1.5v1.5l3-2,3-.5h1l.5,3-4,1.5v1.5h-.5l.5,1.5h-1l.5-.5-.5-.5-2,2,3,1,1.5-1.5v-.5l.5-2.5,1.5,1.5,2-2,2.5,2-3.5,4.5-2,.5,1.5.5-2.5,2,.5-.5-3,1-1-2-.5,1.5,1.5,1.5-.5.5v1l-1.5-2.5-3,1-2.5-1-3.5,3.5-1-.5-2.5,1.5-.5-1"/>
      <path data-code="novokuzneckij_rajon" data-title="novokuzneckij rajon" class="cls-1" d="M109.12,214.49v.5h.5v-.5h-.5M86.62,227.99l.5,2h2l.5,3.5,1.5,1-.5,1-1.5-.5-.5,3.5,2.5-.5,1-2h.5v-1.5l-1-2.5-1.5,1-1-1.5,2-.5,1-1.5-.5-3.5.5-1.5,4.5-1.5,2-6h-2l-.5,3-4,.5-1.5,1.5h1v2.5l-3,2-2,.5v1M74.62,218.49l.5,1,2.5-1.5,1,.5,3.5-3.5,2.5,1,3-1,1.5,2.5v-1l.5-.5-1.5-1.5.5-1.5,1,2,3-1-.5.5,2.5-2-1.5-.5,2-.5,3.5-4.5-2.5-2-2,2-1.5-1.5-.5,2.5v.5l-1.5,1.5-3-1,2-2,.5.5-.5.5h1l-.5-1.5h.5v-1.5l4-1.5-.5-3h-1l-3,.5-3,2v-1.5l-1-1.5,1-.5-1-1-1,1.5v2.5l-1,.5,1,1,2.5-.5-1.5,4h-1v1.5h-2.5l-1,3-1-1,.5,1-1,1h1l-1,2v1l-1,1-3-1-1.5,2.5M59.62,222.49l3-.5-.5-1,1-1-.5-1.5,4.5-2v-2l3,.5,1-2,4,.5,5-3.5.5-2.5-.5-.5,2-2h-1.5l-1-1,3-1-2-1.5v-1.5l.5-.5v-1l2-1-1-1,1-1-.5-2,.5-.5h-1.5v-3l3-1.5v.5l1.5.5v-1l2.5-1v-4.5l1-1.5,7.5-3.5v-1.5l1.5-.5.5-1.5-.5-1.5h1.5l.5-1.5,1.5-1-.5-.5,1,.5,1-1.5.5-2.5-.5-.5.5.5v-2.5l-1,.5,1-1-1.5-2.5-2.5,2,1-1.5v-.5h1l-.5-1,.5.5.5-1-1-.5-.5-1.5-.5.5.5-.5,1.5,1.5-.5-3,2-.5.5-1-.5-3.5,2-.5.5-2.5.5-2.5,2-.5,3,2h6.5l.5-1.5,1.5.5.5-1.5,2,.5,3-4.5,1,.5v1h2.5l2-2,4,.5,1.5,1v1.5l3.5,2v2l-2,2.5-.5,1.5,1.5,1.5-1.5,2.5,1.5,1,2-2,5.5-1.5-1,2.5-1,1,.5,2-1,1.5.5,2-1,1.5v3l-2,1.5,1,1.5-1,1-6,2,1,2,3,.5-1,1,.5,2h-1l.5,3h-1l.5,1.5-1.5,2.5h-1v-1.5h-1l-4,1-.5,2,.5,1.5-.5,4-3,4v2l-1,.5.5,2.5-1,.5-.5,2-1.5-1.5-2.5.5v2l-4.5,8-.5,2.5-3-1-2,1-1.5-1.5.5,2.5-1.5-.5v.5l1,1-1,.5-1-1.5v-1l.5-.5.5.5-.5-1.5h-.5l.5,1-2,1-1-1,.5-1.5-.5,1h-1l.5-2.5h-2l-.5.5v1.5l3.5,2v.5h-.5l-.5.5.5,1,1.5-.5,3.5,2.5-.5,2.5-1,1.5.5.5-1.5.5v1h3l-1,2,4-4-1-1,1-.5v-.5l-2.5,1,1-1.5-.5-3,1.5-1.5,1.5,6,3,3-1,2.5,1.5.5,1.5,5h1l2,2-.5,2h3l1.5,1,5-3,1.5.5-2,6v1.5l-4.5,4-3.5,4.5.5,2-1.5.5-1.5-1.5h-5l-1-1,.5-1.5-1.5-1-3,.5v-3.5l-1-1,1-1-1-1.5-8,2.5-1,3-2-1.5v1.5l-1,.5-3-2.5-5,.5-2.5-1.5v4h-1l-1,3,1,1.5h2l-.5,2,1,.5-.5,1.5-.5-.5v3.5l-1-.5-1,2,2,1.5,1-3h.5l-.5,1,1-.5,1,2.5-1.5,1.5,2,1-4,1.5-1,1.5-2-1.5-1.5,1v1l-7.5,2,.5-2,.5-3,2-3.5v-1l-7-3.5-1-2.5.5-2.5-2.5.5-2.5-1v-3l-2.5.5-.5-4,1-1.5,1.5,2,2-1,.5.5.5-1h-.5l2.5-2,.5-2h1v-1.5l2-1.5-1-1,2-2-1.5-1v-2l2.5-1.5.5-2-4,1.5-1,2-4-3.5-6-3-2-3.5"/>
      <path data-code="osinniki" class="cls-1" d="M88.62,237.99l.5-3h2l-.5-1-1-.5-.5-2,.5-1,2-1-1-1,1.5-5-1.5-2,2.5-2,3,.5.5-3,2-.5v1.5l-2,5-4.5,1.5-.5,1.5.5,3.5-1,1.5-2,.5,1,1.5,1.5-1,1,4h-.5l-1,2h-2.5"/>
      <path data-code="polysaevo" class="cls-1" d="M55.62,149.99l3-1.5,1,.5,1,1.5h-1v1.5h-1v1.5h2l-2,.5,1,2-1.5-.5-.5-1v-1h-1l-1-3.5"/>
      <path data-code="prokop_evsk" data-title="prokop&amp;apos;evsk" class="cls-1" d="M61.62,202.49l.5-.5v.5h-.5M65.12,202.49v-1l3-1.5-.5-3.5.5,1.5,4.5-2v1.5l2,1.5v1.5l1,1.5-1,1.5v2.5l1-.5-1,2.5,1.5,1.5-1.5.5-.5,1.5v-3h-3v-1.5l-1,.5.5-2.5-1,.5-2.5-1-1,.5v-2l-1-.5"/>
      <path data-code="prokop_evskij_rajon" data-title="prokop&amp;apos;evskij_rajon" class="cls-1" d="M61.62,202.49h.5v-.5l-.5.5M61.12,181.49l.5,1,1.5-1-1-.5-1,.5M65.62,183.99l2,.5.5,1.5,1-2.5-3-2-.5,1,1,1-1,.5M57.12,194.99l1,2.5,1.5-2-1.5.5v-1.5l-1,.5M60.12,195.49l1,2,1-2.5,3-1,1.5,1-1,2h2l.5,3-3,1.5v1.5h1l.5,1.5-.5.5h4.5l-.5,2.5,1-.5v1.5h3v3l.5-1.5,1.5-.5-1.5-1.5,1-2.5-1,.5v-2.5l1-1.5-1-1.5v-1.5l-2-1.5.5-2-1-1v-1.5l2.5-2.5-1.5,1-2.5-.5-2-2,1-1-.5-.5h-4.5l-2,1.5,2.5,2-1,2-.5-1.5-.5.5.5,1.5-2,1.5v1.5l-1.5-1M45.12,188.49l1.5-.5,2-2.5-1-.5,1-1v-.5l4.5-.5,1,1.5,3.5-1,4-2.5,1-2.5,2.5-1.5v-1l2-2,5,.5,5-3,3-4.5,4,5.5,2.5.5.5-2.5v-1l15,1-1.5,1-.5,1.5h-1.5l.5,1.5-.5,1.5-1.5.5v1.5l-7.5,3.5-1,1.5v4.5l-2.5,1v1l-1.5-.5v-.5l-3,1.5v3h1.5l-.5.5.5,2-1,1,1,1-2,1v1l-.5.5v1.5l2,1.5-3,1,1,1h1.5l-2,2,.5.5-.5,2.5-5,3.5-4-.5-1,2-3-.5v2l-4.5,2,.5,1.5-1,1,.5,1-3,.5-2-2.5-1,.5-1.5-5-1-11.5-4,1-1.5-12-2-1-1.5-3.5"/>
      <path data-code="promyshlennovskij_rajon" data-title="promyshlennovskij rajon" class="cls-1" d="M8.12,115.99l1.5-.5,1-2,2-7.5,5-1.5.5,2.5h-1l-1,2-1-.5v2h7.5l.5,1.5,5-1,1,2,3,.5,8.5-.5v2l2.5.5,2-2,1,1.5,1.5-1,5,3,1.5-2,1.5-.5,3.5,2-3.5,2.5,1,2-.5,1v.5l-3.5,1.5-.5,1,3,2-1,.5,1,2-3.5,2.5-1-1.5-6,6.5-4.5-4-2,3-3.5-.5-1.5,2.5h.5l-.5,1-3,1v1l1,2.5-2,1-1.5-3-.5-1.5-3.5,1.5-.5-1-4,3-1-1-1.5,1v2l-1,2-2-3.5-2.5-.5v-3l.5-.5-.5-2-3-2,3-3.5,2,.5-.5-1.5,3-1-1-2,1-.5-1-1.5-2-5-3-1v-1.5l-1.5-3"/>
      <path data-code="tajga" class="cls-1" d="M42.62,46.49l.5-3.5,3,.5v1.5h1v2.5h-1.5l-1,1-2-2M37.62,37.49l1-1,.5,2-1-.5-.5-.5M46.62,42.49h.5-.5M40.12,41.99l1,.5-.5,1-.5-1.5M48.62,45.49l.5.5h-.5v-.5M52.12,47.49l.5-.5.5.5-.5.5-.5-.5"/>
      <path data-code="tashtagol_skij_rajon" data-title="tashtagol&amp;apos;skij_rajon" class="cls-1" d="M71.62,274.99l1-2h1l3.5-2,1.5.5,3-2h1.5v-1l1.5-1,2,1.5,1-1.5,4-1.5-2-1,1.5-1.5-1-2.5-1,.5.5-1h-.5l-1,3-2-1.5,1-2,1,.5v-3.5l.5.5.5-1.5-1-.5.5-2h-2l-1-1.5,1-3h1v-4l2.5,1.5,5-.5,3,2.5,1-.5v-1.5l2,1.5,1-3,8-2.5,1,1.5-1,1,1,1v3.5l3.5-.5,1.5,3.5h5l1.5,1.5,1.5-.5-.5-2,3.5-4.5,4-3.5,1,1,.5,1.5-2,2.5-1,3-1.5.5.5,2,5,1-.5,1v.5l2-1.5,1.5,1.5,3-1.5,2,3,3.5,2h3.5l5-2,3.5,1-.5,2.5-2,.5.5,2-1,1-3.5,2,1,1-1.5,3,1.5,3,1-1.5,3.5,1,1.5,4-.5,1.5,1,1.5,2-1.5,1.5,2,.5,4-2,1-1,3.5-1.5.5v1.5l-3.5-.5,1.5,3-.5,2,2,2-1,1.5-2-.5v2l-2,.5-1,2-.5,2-1.5.5-3.5,3.5-6.5,4.5-1.5,2,1.5,1v1l-.5,4-1,.5-2-.5-2,2h-1.5l-3,3-2,.5-1.5-.5-.5-2,1.5-3-.5-2.5h.5v-1.5l3-3-2-2.5,1.5-2v-2l-4.5-2.5-.5,2-1.5,1.5-2,1-3-2.5-1-2.5-3.5-3.5-5-2.5-2,3.5h-3.5l-4.5,4-1-1-.5-1.5.5-.5-.5-.5-1,.5-1.5-1.5-2,.5-2.5-2h-2l.5-5.5h-1.5l-1.5-1.5h-3l-1,1-3-2,1-.5,1.5-7-2-1-.5,2-1.5-.5-.5-.5,1-1.5-3.5-2.5-1-2.5.5-3h-1l-.5-1"/>
      <path data-code="tisul_skij_rajon" data-title="tisul&amp;apos;skij_rajon" class="cls-1" d="M85.62,100.99l3-3.5-1-3.5,18-2.5,1.5-2.5,4.5,1.5,3-.5v-1.5l3,.5,1-1.5,4.5-1.5v-2l-1.5-.5,1-2.5-1-2,2,2,1-1.5,1.5,2,1-.5v-1.5h-.5l1.5-4-1-.5v-.5l-.5-2,1-2,1.5-.5,3,1v-1l3-3v-3l5.5-3h1.5l2,2-.5.5,2,1-1,2.5,3.5,1.5v-1.5l6,1,2.5,2,2-.5.5,3.5h2.5v2l5.5-.5v1.5h2l2,6h-3.5l-1,1.5-1-.5-3,1-1,2-1.5.5-1.5,2-5.5,5-1,3-1.5,1-.5,2v1l-1.5,1,.5,1-2,1.5v1.5l-3.5,2.5-.5,3h.5l1.5,2-.5.5h.5l-.5,1h1v.5l-.5,1,1,1-1,1,2,3-1.5,5.5.5,1.5v1l2,.5v2.5l2,.5.5,2-1.5,2.5,1.5,1.5,2-1v2l.5,1-.5.5v3.5l-1,1.5h-3l-.5.5v2.5l-1,1.5-5.5,3.5-2,2-1.5-1,1.5-2.5-1.5-1.5.5-1.5,2-2.5v-2l-3.5-2v-1.5l-1.5-1-4-.5-2,2h-2.5l.5-3.5,1-2-.5-2,1.5-1v-1h.5v-2l-6.5-2.5-5.5-9.5-7-1-2.5-1.5v-1l-2-1v-1l-4-2.5-2-3h-.5l.5.5-.5.5-1-1.5-.5.5-1.5-3.5-1.5.5v-1l-3-.5-.5-1.5-2-.5-1.5,2-2.5,1-.5-3"/>
      <path data-code="tjazhinskij_rajon" data-title="tjazhinskij rajon" class="cls-1" d="M135.62,59.49l.5-1.5,2-.5,5-4.5-.5-2.5-1.5-1.5.5-4.5,2,.5,1-2.5-.5-.5,1-2-.5-1.5.5-.5-2.5-3.5h-2v-2.5l1.5.5.5-2,2.5-1.5.5-1,2.5.5.5-2,3,1,6.5,3v3.5h6l2,3-1,1v1l5,.5-.5,7h2l1,1.5-1,1.5v.5l3.5,1.5-.5,4,2.5.5.5,1-1.5,3,1,5-.5,1,.5,1-.5,1.5h2.5l.5,1.5.5-.5h-.5l.5-.5.5,1.5h1l-1,1,.5,1-2,.5-.5,1.5v2.5l.5.5-3,.5-1.5,1.5h-2l-1.5,3-2-6.5h-2v-1.5l-5.5.5v-2h-2.5l-.5-3.5-2,.5-2.5-2-6-1v1.5l-3.5-1.5,1-2.5-2-1,.5-.5-2-2-3.5.5-3-2"/>
      <path data-code="topkinskij_rajon" data-title="topkinskij rajon" class="cls-1" d="M9.12,100.99l2-2.5,2-.5v-3.5l-1-2.5,3.5-2-1-1,2.5-1,1,1,.5-.5,2.5-2.5-.5-1h.5v-2.5l3.5,1,.5-2.5,1-.5,1,1.5,4-1,2,1,.5-2,3.5,3,1-2.5,2.5-1.5,1.5-4,5.5,5,1,2-2,2-.5,2-4,3,.5,1.5,2.5,2,1,3,2.5.5-3.5,3.5-1.5,2.5,2,2.5.5,2.5,3.5,1,1,2h1.5l1.5,5.5-1,1h-2l-1-1.5-2-1-1.5,1-1-1.5-2,2-2.5-.5v-2l-8.5.5-3-.5-1-2-5,1-.5-1.5h-7.5v-2l1,.5,1-2h1l.5-1h-1l.5-1.5-6,1.5v-1.5l-3-3.5"/>
    </g>
</svg>