<svg data-code="RU-KC" xmlns="http://www.w3.org/2000/svg" viewBox="0 0 103.75 91.39">
    <g data-code="karachaevo-cherkesskaja_respublika" data-title="karachaevo-cherkesskaja respublika">
      <path data-code="abazinskij_rajon" data-title="abazinskij rajon" class="cls-1" d="M81.13,20.26l-3.86,4.36-2.64-2.5,2.5-3.36,4,1.5ZM58.13,30.76l3.5-3.5,5-2,2,3,3-2,3,1-5,3.36-1.5,2h-.5l-1,2.5h-5l-1,.64-2-2,1-2-1.5-1"/>
      <path data-code="adyge-khabl_skij_rajon" data-title="adyge-khabl&amp;apos;skij_rajon" class="cls-1" d="M66.63,5.26h2l1-2,2.5,1.5,2-2,2-.5,5.08,2.49-5.59,8.38-2.5-1.5-3,1.14-1.5,1.5.5-5-2.5-4M79.62,14.12v4l1-1.5.5.5v-1l1.46-.36.04,4.36-1.67.99.17-.85-5.23-1.91,3.73-4.23Z"/>
      <path data-code="gorodskoj_okrug_cherkessk" data-title="gorodskoj okrug cherkessk" class="cls-1" d="M74.63,27.26l6.5-7-.5,2.5,1.5.36.5,1.5-.5,1-.5-1-3,4.5-4-1.86"/>
      <path data-code="gorodskoj_okrug_karachaevsk" data-title="gorodskoj okrug karachaevsk" class="cls-1" d="M57.63,46.26l-.5,1.5,1.5,1-1.5-.5-3,.5v-1l3.5-1.5Z"/>
      <path data-code="karachaevskij_rajon" data-title="karachaevskij rajon" class="cls-1" d="M54.13,48.76l3-.5,1.5.5-1.5-1,.5-1.5-3.5,1.5v1ZM27.12,63.62v-1.5l3-1.5v-1.5l1.5-.5,2-4.5,1.5,2.5h1.5l1.5-2.5,3-.5.5-2.5,3,.5-.5-2.5.5-.5,4-1.5.5,2,1.5-1v-1l2-2v-1h.5l2-3.5-1-1,2.66-2.63,1.85,2.77,2.5-1.14-1.5,1v1.5l3,1,.5,5.5,3.5,4,1.5,4,2.5.5-1.5,9.14-1.5,1,1,1-.5,1-1-.5v1l-2.5,3.5v1.5h-.5v2l-1.5,2,1,1.5-1,2-2.5,1.5.5,3h-1.5l-2,2-1.5,3-2.5-1-1.5,1-3.5-1-1-2.5-5.5-2h-3l.5-2.5-3-.5v-1.5l-1-1.5v-1.5h-1l-2,1.5-2-.5-1.5-4.5-2,.5-.5-2h-2.5l-2-6,1.5-2.64,4-.5Z"/>
      <path data-code="khabezskij_rajon" data-title="khabezskij rajon" class="cls-1" d="M51.12,30.12l.58-2.23-.08,1.73.5-1.5h1v1.5l3.5-1.5,2.5-2.5h2l1-3,2.5-1.5-1-2.5,6.5-5.86,3,2.5-1,1.5.5.5,4.5,1.5-5.5,7.5-3,2-2-3-5,2-3.5,3.5,1.5,1-1,2,2,2h-1.5l-.5,1.5-1.85-.27.34-1.37h-2.5l-3-5h-2l1-2,.5,1.5Z"/>
      <path data-code="malokarachaevskij_rajon" data-title="malokarachaevskij rajon" class="cls-1" d="M78.19,43.57l2-1.5,1.93,1.69,1-.5-1,2.5.5.5-1,1,3.5,3.5,1-.5v-.5l1-2,4.5,2-2,3,1.5,1-1.5,1.5,1.5,1.5-3,2v2.5l-1,.5-.5,1,.5,2-1,.5-3.5,6-4.5.5-7-1.5-3,6.5-2.5,1.5-1,2.5-1.5-.5.5-1-1-1.5,1.5-2v-2h.5v-1.5l2.5-3.5v-1l1,.5.5-1-1-1,1.5-1,1.5-9.14v-1.5l5-1.5-2.5-1.5-1.5.5.5-3.5,1-.5-.5-2,1.5-2.5,4.07-.05Z"/>
      <path data-code="nogajskij_rajon__karachaevo-cherkesskaja_respublika_" data-title="nogajskij_rajon_(karachaevo-cherkesskaja_respublika)" class="cls-1" d="M73.12,11.62l2.5,1.5,6-9,3,2-4,4.5,2.5,5-2,.5v1l-.5-.5-1,1.5v-4l-3.73,4.23-3.27-1.09-.5-.5,1-1.5-3-2.5,3-1.14Z"/>
      <path data-code="prikubanskij_rajon" data-title="prikubanskij rajon" class="cls-1" d="M78.62,29.12l3-4.5.5,1,.5-1-.5-1.5-1.5-.36.33-1.65,1.67-.99v-3l7,4.5,3.5,5.5,2.5,1.5.5-1,3,2,2-2,2,1-.5,1,.5,1.5-.5,1,.5,1.5-1.5,2.5-2-1.5-2,2.5-2-1h-2v1l-1-1.5-1,2-2.5-1.5-.5,1h-2.5v1.5l-2,.5-1.5,2v-2l-4-1-.5-.5,1.5-2-3-4.5-1.5-1-.5-2.86,4,1.86ZM74.62,22.12l2.64,2.5-2.64,2.64-3-1,3-4.14Z"/>
      <path data-code="urupskij_rajon" data-title="urupskij rajon" class="cls-1" d="M6.62,20.12l2-1,2.5,1v-3.5l3-1,2-2.5h1l2-1.5,4,.5,5-3v-1.5l1.5-1.5v-1l1-.5-1-1.5,1.5-2.5,1,.5,4,4.5.5,2.5,2,.5,1-1,.5,2.5-.5.5,3,1,1.5,2.5-.5,1.5-.5-1-.5,1.5-3,1,1.5,1-1,2-1-1-2,2.5h-1.5l3,3.5-2,4.5v2l-3-.5-2.5,2.5.5.5-1,3,1.5,1.5h1.5l-.5.5-7.5,3.5-4-1-2.5-4.5-2,3-1.5-1-3,.5v7.5l-1.5.5-1.5,2.5-1.5-2v-3l-3-1.5.5-1.5-1-1.5,1-2-2-1.5-3-5.5,4-3.5.5-4,1.5-1.5v-2.5"/>
      <path data-code="ust_-dzhegutinskij_rajon" data-title="ust&amp;apos;-dzhegutinskij_rajon" class="cls-1" d="M58.63,37.26l.5-1.5h1.5l1-.64h5l1-2.5h.5l1.5-2,5-3.36.5,2.86,1.5,1,3,4.5-1.5,2,.5.5,4,1v2l-2,.5v1.5l-.5-1-2,1.5h-4l-1.5,2.5.5,2-1,.5-.5,3.5,1.5-.5,2.5,1.5-5,1.5v1.5l-2.5-.5-1.5-4-3.5-4-.5-5.5-3-1v-1.5l1.5-1-2.5,1.14-1.85-2.77,1.85.27Z"/>
      <path data-code="zelenchukskij_rajon" data-title="zelenchukskij rajon" class="cls-1" d="M12.62,39.62l3-.5,1.5,1,2-3,2.5,4.5,4,1,7.5-3.5.5-.5h-1.5l-1.5-1.5,1-3-.5-.5,2.5-2.5,3,.5v-2l2-4.5-3-3.5h1.5l2-2.5,1,1,1-2h2l-2,1h1-1v1.5l1.5,1.5,1.5-2,.5,3,2.5-.5,1,1,2-3,2,2.5,2.5-3,4,1v-1l.5.5,4.5-2,1,2.5-2.5,1.5-1,3h-2l-2.5,2.5-3.5,1.5v-1.5h-1l-.5,1.5.08-1.73-.58,2.23-.5-1.5-1,2h2l3,5h2.5l-.5,2-2.5,2,1,1-2,3.5h-.5v1l-2,2v1l-1.5,1-.5-2-4,1.5-.5.5.5,2.5-3-.5-.5,2.5-3,.5-1.5,2.5h-1.5l-1.5-2.5-2,4.5-1.5.5v1.5l-3,1.5v1.5l-1,1.5-3-1-.5,1-1.5,1-1.5-3.5,1-2.5v-1.5l-1-1-2,1-2.5-1,.5-1.5-1-1-.5-1.5-1.5-1.5v-2l-2.31-1.15.81-1.35,1.5-.5v-7.5"/>
    </g>
</svg>