<svg data-code="RU-KGD" xmlns="http://www.w3.org/2000/svg" viewBox="0 0 108.19 106.25">
    <g data-code="kaliningradskaja_oblast_" data-title="kaliningradskaja_oblast&amp;apos;">
      <path data-code="bagrationovskij_rajon" data-title="bagrationovskij rajon" class="cls-1" d="M15.07,19.76l.5,3,2,.5.5,2h1.5l.5,2,2-1.5,1,.5,2,4.5,1.5.5,3,3h1l1-1.5.5.5-1.5,1.5,1,1,2-.5,1,3.5-1.5,1,1.5.5-1,.5-.5,3.5-1.5.5-1,3.5-1.5-.5-2,1-.5,1h-1.5l-.5,1.5-3.5-4-12-18h1l1.5-2.5v-2l.5-1.5-2.73-1.37,5.73-2.13Z"/>
      <path data-code="baltijskij_rajon" data-title="baltijskij rajon" class="cls-1" d="M.07,15.76l13.5-1.5,1.5-.5.5-1,5.5-1.5,3.5-2.14,4.5,1-1,3-2.5-.5-.5.5-1.5-.5.5,1-3,4.5-6-3.86-1,.5-6.5.5-3,1L.07,15.76"/>
      <path data-code="chernjakhovskij_rajon" data-title="chernjakhovskij rajon" class="cls-1" d="M52.57,53.26l5.5-1,1.5,1,1-1.5,1.93.28-.41-1.02,3.48,1.6v2l1,.5-.5,1.5h1.5l1,1.5,2.5-.5.5-3.5,5,1,2.5,3.5h2v6.5l3,1.64h-1.5l-1.5,2-2.5-2h-3.5l-2.5,4-1-.5-1.5,1.5v.5l-1,1v1.5l-3,1-1.5-4.14-1,.5-.5.5-.5-.5-1.5,1v-3.36l-.5,2-3.5-1.5-1,1-4.08-3.68.58-1.46-1-2.5-2.5-3,1.5-1.5-.5-1,.5.28,2-2.15v-3"/>
      <path data-code="gur_evskij_rajon__kaliningradskaja_oblast_" data-title="gur&amp;apos;evskij_rajon_(kaliningradskaja_oblast&amp;apos;)" class="cls-1" d="M26.73,24.81l-.66.96,3,1,2.5-1-.5,1.5,2,3.5,2,.5v1.5h2l-1-1.5,1-1h1l-.5-.5,1-1-.5-1.5,1.5-1.5-2-3-1.21-1.23,1.59-.58-.88-1.32,1.5-.5-.5,1h1l.5-.5-.5-1,.5-.5,2.5,2,2.5-1.5,1,1.5.5-1,1.5,1.5-1.5.5,1,1,2-1,.5-1,.5.5.5-.5,1.5,2.64,2.5.5v5l-4,4,.5,2.5h-2l-1,1.5-1-.5.5-1.5h1-2.5l-1.5,2-.5.5.5,1-2,1.5-5.5-4-3,2.5-.5-2.5-2,.5-1-1,1.5-1.5-.5-.5-1,1.5h-1l-3-3-1.5-.5-1.95-4.4-1.05-.6.5-2,4.16,1.04Z"/>
      <path data-code="gusevskij_rajon" data-title="gusevskij rajon" class="cls-1" d="M66.07,75.76l3-1v-1.5l1-1v-.5l1.5-1.5,1,.5,2.5-4h3.5l2.5,2,1.5-2h1.5v3l-2,.5-.5,3,1.5.5,1,3.86-1-1-1,1.5-2,1,1,2-1.5,2-3-1-.5,1.5-2,1,.5.5-1,1.14-1-.5v1l-1.5-.14-2.5-1.36-2-4.5-3-3,2.5-2"/>
      <path data-code="gvardejskij_rajon" data-title="gvardejskij rajon" class="cls-1" d="M34.07,37.76l3-2.5,5.5,4,2-1.5-.5-1,.5-.5,1.5-2h1.5l-.5,1.5,1,.5,1-1.5,1.75-.13.25,1.99,3,3.14v2l-2.5,1v1.5l2,.5-1,1,2,.5-1.5,2,2,1.36,3.5-1.5.5,1.5,3.02,1.4.41,1.02-1.93-.28-1,1.5-1.5-1-5.5,1v3l-2,2.15-6-3.28-.5-1.5,1.5-2.5-9-8,1-1.5-4.5-1.86,1.5-1-.5-1"/>
      <path data-code="jantarnyj_gorodskoj_okrug" data-title="jantarnyj gorodskoj okrug" class="cls-1" d="M28.07,3.76l3.5-2.64,1,1-2,.64v1l-.5.5h-1l.5,1h-1v1.5l-1.5-1,1-2"/>
      <path data-code="kaliningrad" class="cls-1" d="M29.57,22.12l2-1.5.5.5-1-2.5,2,3.14,1-.5v-.5l1-.5,2.5,2.5,2,3-1.5,1.5.5,1.5-1,1,.5.5h-1l-1,1,1,1.5h-2v-1.5l-2-.5-2-3.5.5-1.5-2.5,1-3-1,2.5-3.64h1Z"/>
      <path data-code="krasnoznamenskij_rajon" data-title="krasnoznamenskij rajon" class="cls-1" d="M86.07,65.76l2.5,1,1-1.5.5,1,3-1-1.5-3,.5-2.5h1l.5-1,2-1v-1l1.5.5-1.5-2.64,4,3.14,4,6,4,1.5-2,3-1.5,3.5.5,1,.5-1h1l-.5,5-1,.5,1,.5-.5,1.5,1,1-.5,1.5-1.5.5.5,1.5-1,.5-.5,2-3.5,1-1-1-1,1-1-1-2.5.86-1.5-3-3.5-2,1-1.36-.5-1-3-1.5-2.5-.64-1-3.86-1.5-.5.5-3,2-.5v-3l2-1Z"/>
      <path data-code="ladushkinskij_gorodskoj_okrug" data-title="ladushkinskij gorodskoj okrug" class="cls-1" d="M17.57,23.26l5,.5-.5,2-2,1.5-.5-2h-1.5l-.5-2"/>
      <path data-code="mamonovskij_gorodskoj_okrug" data-title="mamonovskij gorodskoj okrug" class="cls-1" d="M3.57,20.76h3.5l5,2.5-.5,1.5v2l-1.5,2.5h-1l-5.5-8.5"/>
      <path data-code="nemanskij_rajon" data-title="nemanskij rajon" class="cls-1" d="M78.07,47.62h4v-1h1.5v.5l2-.5.5.5.5-.5,1.5,1.5h3l2,.5.5,1.5-1.5,1.5-.5,2,1.5,1h2.5l1.5,2.64-1.5-.5v1l-2,1-.5,1h-1l-.5,2.5,1.5,3-3,1-.5-1-1,1.5-2.5-1-2,1-3-1.64v-6.5h-2l-2.5-3.5,1-2,1-.5-.5-5"/>
      <path data-code="nesterovskij_rajon" data-title="nesterovskij rajon" class="cls-1" d="M62.57,92.12l3.5-.5.5.5,4.5-5v-.5l1-.5.5-1,1,1,1-1-.5-.5,2-1,.5-1.5,3,1,1.5-2-1-2,2-1,1-1.5,1,1,2.5.64,3,1.5.5,1-1,1.36,3.5,2,1.5,3-2,.5-1,2.5h-.5l-1,1-3,.5-1,2-2.5,1-.5,1.5-2.5,2.5.5,1.5-2.5,5.5-15.5-13.5"/>
      <path data-code="ozjorskij_rajon__kaliningradskaja_oblast_" data-title="ozjorskij_rajon_(kaliningradskaja_oblast&amp;apos;)" class="cls-1" d="M56.07,71.12l1-1,3.5,1.64.5-2v3.36l1.5-1,.5.5.5-.5,1-.5,1.5,4.14-2.5,2,3,3,2,4.5,2.5,1.36v.5l-4.5,5-.5-.5-3.5.5-18-16.5,1-.5,1-1.5h2l-.5-1.5,2.5-1,1.42-3.54,4.08,3.54Z"/>
      <path data-code="pionerskij_gorodskoj_okrug" data-title="pionerskij gorodskoj okrug" class="cls-1" d="M41.07,8.12l-1,1-.5-1-.45.11-.05-1.61,2,1.5Z"/>
      <path data-code="polesskij_rajon" data-title="polesskij rajon" class="cls-1" d="M54.07,28.12l1-.5,4,6h1.5l3.5,2,3-.5,1.5-3.5,3,1.5-2.5,2,1.5,1-2,1.5-.5,6.5,1.5,1.5,1-1,2,5-7,1.5v1.5l-6.5-3-.5-1.5-3.5,1.5-2-1.36,1.5-2-2-.5,1-1-2-.5v-1.5l2.5-1v-2l-3-3.14-.5-4.36,1.5-2.64.5.5.5-.5,1-1.5"/>
      <path data-code="pravdinskij_rajon" data-title="pravdinskij rajon" class="cls-1" d="M33.57,40.62l1-.5,3,1.5-1,1.5,9,8-1.5,2.5.5,1.5,5.5,3,.5,1-1.5,1.5,2.5,3,1,2.5-2,5-2.5,1,.5,1.5h-2l-1,1.5-1,.5-4.5-4-15.5-20.5.5-2h1l1-1,2-.5h1.5l1-3,1.5-.5.5-3.5"/>
      <path data-code="slavskij_rajon" data-title="slavskij rajon" class="cls-1" d="M76.57,21.62h2l-.5,1,2,1,1.5-1,.5-1,5.5.5-2.5,8.5,2.5,1.5,1,3-.5,4,1.5,3.5-2,.5-1,3.5-.5.5-.5-.5-2,.5v-.5h-1.5v1h-4l.5,5-1,.5-1,2-5-1-.5,3.5-2.5.5-1-1.5h-1.5l.5-1.5-1-.5v-3.5l7-1.5-2-5-1,1-1.5-1.5.5-6.5,2-1.5-1.5-1,2.5-2-3-1.5,1-.5,7-9.5"/>
      <path data-code="sovetskij_gorodskoj_okrug" data-title="sovetskij gorodskoj okrug" class="cls-1" d="M89.57,42.62v1.5l1.5,4h-3l-1.5-1.5,1-3.5,2-.5Z"/>
      <path data-code="svetlogorskij_rajon" data-title="svetlogorskij rajon" class="cls-1" d="M31.57,1.12l3-.5.5,2,4,4,.05,1.61-1.55.39-3.5-6.5h.5v-.5l-2,.5-1-1"/>
      <path data-code="svetlovskij_gorodskoj_okrug" data-title="svetlovskij gorodskoj okrug" class="cls-1" d="M23.57,15.62l3,3.5v-1h1l-.5-1.5.5-.5h1v-1.5l1.5,3-1,.5,1.5,1,.5-.5,1,2.5-.5-.5-2,1.5h-1l-3-3.5h-3.5l-1-.5,1.59-2.38.91-.12Z"/>
      <path data-code="zelenogradskij_rajon" data-title="zelenogradskij rajon" class="cls-1" d="M30.57,2.76l2-.64,2-1v1h-.5l3.5,6.5,2-.5.5,1,1-1h.5v2l1.5,2,5.5,2,10.5.5,16.5-3.5.5,2h-4.5l-4.5,1-.5,1-3-.5-12.5,1-1.5-1-1,1h-.5l-.5-.5.5,3,2.5,2-.5.5-.5-.5-.5,1-2,1-1-1,1.5-.5-1.5-1.5-.5,1-1-1.5-2.5,1.5-2.5-2-.5.5.5,1-.5.5h-1l.5-1-1.5.5.88,1.32-1.59.58-1.29-1.27-1,.5v.5l-1,.5-2-3.14-.5.5-1.5-1,1-.5-1.5-3v1.5h-1l-.5.5.5,1.5h-1v1l-3-3.5-.91.12,1.41-2.12-.5-1,1.5.5.5-.5,2.5.5,1-3-4.5-1,2.5-3.36,1.5,1v-1.5h1l-.5-1h1l.5-.5v-1Z"/>
    </g>
</svg>