<svg data-code="RU-IRK" xmlns="http://www.w3.org/2000/svg" viewBox="0 0 807.71 939.61">
    <g data-code="irkutskaja_oblast_" data-title="irkutskaja_oblast&amp;apos;">
      <path data-code="alarskij_rajon" data-title="alarskij rajon" class="cls-1" d="M250.59,797.12l2-2-.5-2.5,6-1.5,3-4.5,4,1,3-2-1.5-1.5h1l2.5-4,1.5-.5.5-1.5-1-1.5.5-1.5,2.5-3.5,3.5,3v3l1,2.5,3-.5h.5v1.5l1-1,1.5.5v-1.5l1-1-.5-1.5-1,.5-1.5-2.5,3-4-.5-.5,1-1-1.5-2,.5-.5,5.5,3-2,3.5,8.5,1.5,1,3,1,11-3.5,1-.5-1.5-2,.5-2.5,2.5-2.5,3-2,1.5-2.5-2-1,1.5-1-.5.5-2-2-.5.5,3-1,1,1,3h-1.5l-.5,1-1,6.5-1.5,2-1.5,4.5-3.5-1.5h-3.5l-1-1.5-1.5-1v-1.5l-3-2,.5-1.5-2-1.5-1,.5-3-2.5-2,1.5-2-1-1-.5,1-1-2-2.5"/>
      <path data-code="angarskij_rajon" data-title="angarskij rajon" class="cls-1" d="M298.09,859.12v-1.5l1.5,1,1-1-1-2,2,.5,2.5-4,4.5.5,1-3.5h3.5l.5-1.5,1,.5,3-2.5,1.5.5,1.5-1.5-.5-3,2.5-1v-3.5l-1-1,2-2.5,1.5-.5.5,1.5v3l2,1-1,1.5v2l2,2,2-1,1.5,3.5,1,1-1,1.5-2.5,2-2,3,1.5,1.5h-1l1,.5-.5.5.5,1.5-2,1-2.5-2.5-2,3.5h-2.5l-1,3-1,.5-.5,2.5-5-2.5v-5l-4,1-.5,1v-1l-6.5.5-.5-1,3-1.5-.5-2.5-3.5,4.5-2-.5"/>
      <path data-code="bajandaevskij_rajon" data-title="bajandaevskij rajon" class="cls-1" d="M364.09,799.62l3.5-4.5,7.5-2.5-1-2.5,2.5-2.5-1.5-1,1.5-1v-1.5h-1l.5-1,2-2v-1.5l-1.5.5-1.5,3.5h-1l.5,1-1.5.5-2-3.5v-2.5l1.5-1.5-.5-.5v-3l-.5-1-3,.5-.5-2,1-1.5h2l2.5,1.5,2.5-2.5,5,3.5,4-7.5-1-1.5-2-.5,1-1v-2l2.5-3.5,1.5,1h1.5l1.5,1.5v1.5l1,2-1,2,1.5,2.5-2.5,4,4.5,4.5h2.5l3-4.5,2-1.5.5,1.5-1,2h-1l.5.5-1,1.5,3,2v1.5l5,2v3l-2,3-3.5.5-3.5,5,.5,2-1,3v2.5l-1.5,3-2,1.5,1,6.5-2.5,4.5,1,2-3.5,2-4.5-4-4.5,3-5-1-4.5.5-.5-3-2.5-1,1-1.5v-2.5l3-1-2.5-4.5-3.5.5-2.5-5"/>
      <path data-code="balaganskij_rajon" data-title="balaganskij rajon" class="cls-1" d="M253.59,700.12l.5-2,3-3-.5-1.5,1-.5.5-3-1-1.5,1.5-1-1-2.5.5-1v-2.5l1-1.5v-2.5l.5-.5-2-2.5,2.5-4.5-.5-1.5.5-1.5.5-2.5-1-1.5,1.5-1.5-.5-1,1-.5.5-3-.5-4-3-3,.5-1-1-.5,1-1.5-1-2.5,1-1,.5-2.5,2,1.5,1,2,2.5,2.5v1.5l1.5,1.5,3-.5,3,1.5,3.5-2,.5-1.5,2-.5,3-3.5,3.5,8,.5,11-2,8-5.5,6.5-.5,2.5v7l.5,3,5,3.5,2,3,1.5,16.5-6.5,11-2,7,1,4.5,7,7.5,4,6,1,2.5v1l-7-.5-3.5-4-.5,1-3.5-1,1.5-7.5-5-2.5-1,2v2.5l-5,2.5-1.5-2-2,.5-1.5-2v-1.5h-2l-1.5-3h.5v-2l2.5-.5v-3.5l-.5-1.5,4-4,.5-1.5-1.5-1.5-1,.5-.5-1.5,1.5-1-3-2-.5-4-3-2.5,1.5-1-1-2,1-1-1-3-3-1.5v-1.5l-1.5-1.5"/>
      <path data-code="bodajbinskij_rajon" data-title="bodajbinskij rajon" class="cls-1" d="M611.59,437.62l1-3.5,1.5-.5-1-1,.5-1.5,3-2,1-3.5v-1.5h-1.5v-2.5l-4-1,4.5-5-1.5-4-1.5-.5.5-2,1.5-2.5-2-2,3-2.5,2.5,1.5,2.5-1.5,1.5-4.5,1.5-.5-.5-2.5-1.5-1.5,1-1.5-.5-2,2-1,1.5-3,2.5-.5.5-1-1.5-1.5v-1.5l-1-2v-3l-4.5-2-3-7,1-5,2.5-1.5,3-4-2-1-1-3h-1l-1-2v-.5l-.5-.5v-3l-1.5-2.5v-2l-2-3.5v-3l3.5-2.5,2-5.5-2-2.5-1.5.5-1-2-2-2-.5-4-1-1.5.5-1-1-1.5,1-1.5-.5-4,.5-1-.5-2-1-.5-.5-2,1-2.5,2-2v-2l-1.5-1-1.5.5-2.5-1-2-1.5.5-2-.5-.5,3-1,1-2-.5-1,2-2.5,3,.5,1.5-3.5-.5-3.5,2-1.5-.5-2.5.5-1,7-7.5-.5-2.5h-2.5l-.5-2.5,1.5-1.5v-3.5l2.5-2-.5-1.5,4.5-3,1,1,2.5-.5,2.5-3.5.5-3,1.5-1.5-.5-1.5,1-1.5-.5-1,.5-2-2-2v-2.5l3-2.5v-1l-.5-1,2.5-2.5,2.5,1,6-4,5.5-2.5.5.5.5,1.5,1-1h2.5l.5.5-.5,1h1.5l1,3,2.5-2,2.5.5,3.5,1,1,2.5,3-2,1,.5,1,1.5h1l5-2.5h2.5l1.5,2,.5,2.5v1.5l5-.5,1,2.5,6,2,.5,3,2.5,1,1,2,.5,3.5,4,.5,4.5-3,2,.5,1.5,2-8,4.5-1.5,4.5,4,2.5,4-1.5v2l1,2.5-.5,1.5,1.5,1v1.5l-1,2.5,1.5,2.5-1.5,2.5.5,1-1,2,3,1.5,1.5,1v1.5l1.5,1.5,1.5-1,2,.5,3-2,2,2,3,.5.5-.5-1-2,2-2.5,3.5-3,3.5,8,1.5-1.5,1.5.5v-2l1-2-1.5-2.5,2.5-3-1-3,.5-2,1,1,1-1.5,3.5-.5.5-1,3.5,1,2.5,6.5,1,.5,5.5.5,2.5,2,.5-1,1.5,1h3.5l.5.5v2l1,1.5v2l3.5,1-1.5,1.5,1,2h-1.5l-.5,1.5-1,5.5,3,4,.5,2.5v2l4-1,3,4v2.5h-2l-1,2.5.5,2,3.5,1.5,2,2.5-.5,4,1.5,2.5v2.5l.5,2.5-.5,2-1.5-.5v1.5l1.5,1h3v1.5h1l2-1,1.5,1,1.5,2h3.5l1,1.5.5,5-.5,4,1,2,1.5.5,1.5,1.5-.5,1,.5.5v2.5l-2.5-.5-3,3-4.5,1-3.5,4.5-4-1.5-.5-1-3,1-1-2-3.5-1.5-1.5-1.5-1.5-2.5-.5.5-2.5-2.5-4.5,1-1,2.5-1-.5-1-2-1.5-.5-4.5,2-2-1.5-.5,2-3,.5-1-.5v1.5l-1.5,1.5.5,1-4.5,4.5,1,2.5h1.5l1,1-.5.5,1.5.5v1l.5.5,1.5,2.5.5,3-5-1-1,2.5,1,1-.5.5,1,1-.5,2,1,4-1,.5,1,2,.5,3,1.5-.5.5,1-.5,1.5-1.5,1,.5.5-.5,2-2.5-.5-1.5,2-3.5.5-1,3,1.5,1.5h2l.5,1.5h.5l.5,1.5-.5,1,1,1.5-1,1.5,1,.5-.5,2.5,1.5-1,2.5,1,3-.5v2.5l1.5,2.5-2,.5-.5,1.5,1,1,1,2.5,2,.5,2,7,1.5,1.5,2-2,1,2-.5,3,1.5,2,3-2,.5-2-1-3,.5-1,2,2,5.5-1,.5,1.5-.5,1,.5,1-1,4.5-2.5,1.5-1.5,2.5,2,1.5v1.5l3,1.5-.5,2.5,1.5,1.5-1,1,.5,1.5-.5,1.5-2.5,2.5,1.5,2,1,3.5h-1.5l-1.5-1.5-1,2,.5,2-.5.5h-1.5l-1.5-2.5h-1.5l-.5-3-1.5-2-.5,2h-.5v1l-3,3v2.5l.5,1.5-1.5.5.5,1-4,.5-.5,1,1.5.5v1l-2-.5-6.5,6.5-2.5-2.5-1.5,2h-5l-.5-2h-3.5l-4.5-3-2.5,3.5-1.5-.5-2,2h-1.5l-3-3-1.5.5-6-3.5-4-1,6-6,4-2,1-4.5,3.5-1,1-1v-1.5l-3.5-2.5-.5-2-1-1h-3l-2,2-2-1.5-1,1.5-3-.5-.5,2.5-2,1,1,1.5-.5,1-1,1-1.5,3-2-.5-2,2.5-6.5,2.5h-2.5l-1.5-1-1,1.5-2-.5-3,1-.5,2,1,1.5-2,2,3,1.5,1,1.5-2.5,1.5v2l-2,2.5,1,2.5-1.5,1-1,3.5,1,4-.5,2.5-1,.5,1,1.5h-1v1.5l-1-1-3.5,1-1,2-4.5-1,1,2-2.5,2.5-2-2h-4l-1.5,1.5-3-1-1.5,6,1,.5-3.5,1.5-.5,1.5,1.5.5-1.5,2h-1l-2,2-2-1v-1l-1.5-1,.5-1-1-2-1.5-.5-.5,1h-2l-3.5-2.5h-4v-3.5l3-1.5-1-2.5-1-.5,1-4.5-1-1.5v-2l-3-1.5,1-2-.5-1v-1h-2l-2-2.5,2.5-4-1-2.5v-1l-.5-.5v-1.5l-1.5-1-1-4-3.5-.5-.5-2,.5-2-2-2.5,1-1.5-.5-.5-1.5-.5-.5-1-4.5.5-5-4-.5-2.5-1-1,3-2.5-4.5-4"/>
      <path data-code="bokhanskij_rajon" data-title="bokhanskij rajon" class="cls-1" d="M297.09,774.62l.5-.5v-1.5l1,2.5h2l3,1.5,1-1,2.5,2-1,1.5,1,1v2.5h1.5l.5-1.5,1.5.5,1,1-1.5,2.5,3,1.5,1,1.5,1-1,2,1.5,2-2,5.5,3.5,4.5,1,1.5-.5-.5-1.5,1.5-3,1.5-1h3l2-4.5h1.5l1-2.5,3.5-1.5v-1l4-2.5,1,1,1,1.5-2.5,6.5,1.5,1-.5,1,1.5,2.5-4,3.5-.5,9-1.5.5v1l-2-.5-1,1.5,2,1-2-.5-.5,1-1-.5v2l-2-1v2l-3-1.5-2.5,2.5-1-1-.5,1-3.5-1.5-2.5,2.5v2.5l-3,.5.5,3-1,3,2,1.5-1,1,1.5,4.5-.5.5,1,1-.5,1,1-.5-1,1h1l1,1.5-.5,1-.5-2-1.5-.5-2.5,2.5-.5,2-5-5.5,1-1.5-1-.5.5-.5-1-2.5.5-1.5-1.5-3h-1v-2l-3-2.5-7-1-1.5-1.5-2.5-13.5,1-5-.5-4.5-1-8.5-1-3"/>
      <path data-code="bratsk" class="cls-1" d="M207.09,596.12h2.5l-.5-.5h1.5l-.5-1,1-.5,2.5-1v-1h-.5l2.5-3-1.5-1,1.5-1v-1l-1-1,1.5-2.5,6.5-1,.5,2.5.5-2.5,1.5-.5.5,1.5h2l.5,1.5,1-.5v2.5l1.5,1-.5,1-1.5-1.5h-3.5l.5,4-1,1-1-1v-4l-2-1.5-2,.5-1,1.5.5,3-1,1,3,3-2,3.5,4,2.5v.5h-1.5l2.5,2.5h1l-1,.5h-1l-4-2v-1.5l-3.5-1.5-6,1-2-2,.5-.5-1-1"/>
      <path data-code="bratskij_rajon" data-title="bratskij rajon" class="cls-1" d="M207.09,596.12l1,1-.5.5,2,2,6-1,3.5,1.5v1.5l4,2h1l1-.5h-1l-2.5-2.5h1.5v-.5l-4-2.5,2-3.5-3-3,1-1-.5-3,1-1.5,2-.5,2,1.5v4l1,1,1-1-.5-4h3.5l1.5,1.5.5-1-1.5-1v-2.5l-1,.5-.5-1.5h-2l-.5-1.5-1.5.5-.5,2.5-.5-2.5-6.5,1-1.5,2.5,1,1v1l-1.5,1,1.5,1-2.5,3h.5v1l-2.5,1-1,.5.5,1h-1.5l.5.5h-2.5M162.59,673.12l.5-2,1.5-2.5-.5-.5h2l-.5-2,4-2.5-.5-2-2-1.5,1.5-1.5v-1l-2-1.5.5-2-1.5-1,1-3.5-1-1,1-2.5-1-2,1.5-1-.5-1,1-2-.5-.5h1.5l-.5-2,.5-.5-2-1.5v-2.5h-.5l2-1.5,1-3,3.5-2.5h1.5l1.5,1,1-1.5,5-1,2-2.5,1.5.5v-2.5l2.5-.5-.5-1.5-2-2v-2.5l-3-3.5,1-1v-2.5l.5-.5-.5-1.5v-1h-1l1.5-2.5-.5-2,.5-.5-1.5-1,.5-1-1.5-1,2-1v-1.5l-1.5-2.5,1.5-1.5-4.5-.5-.5-2.5-2.5-1v-2.5h-1.5l.5,1.5-1,1h-1l-.5-1.5-2.5-1.5h-1l-.5,3.5-1.5-.5-.5-1,1-3.5-.5-1,.5-1-4.5-1-1.5-3.5.5-1.5-1-2.5-1.5-2,16.95-20.34,3.05,1.84,2-1.5,4.5,1,6.5-3,5,3,3.5-2.5h1l-.5,1.5.5.5,2,1,7.5-6.5,8.5,4.5h2.5l.5-1.5,3-.5,2.5,4,3.5,2,1.5,2.5h2.5l1.5-2,1,.5,3-1,1.5.5,1-1.5,1.5.5,1-1,1.5,1,1.5-1,2.5,2,1,2,1.5.5,1,1.5,5.5.5-2,3.5-.5,3.5-2,2,1.5,1.5v7l1.5,4.5-.5,11.5,4,2,1.5,2,3.5-4,2-5.5,3.5,5,1,.5.5,2,2.5,2.5h2l2.5,4.5,2.5,1.5.5,1.5-1,1.5-.5,2,.5,6.5-1,2,1.5,2.5-1,1.5.5,1.5,2.5,1.5,1.5,2.5-.5,2,1.5,1.5-.5,1,.5,1-.5,1-.5,2,1.5,2.5v2l1,1-1.5,2.5,1.5,3-1,.5-5-1.5-3.5,2-2,3-2,.5-.5,1.5-3.5,2-3-1.5-3,.5-7-9-.5,2.5-1,1,1,2.5-1,1.5,1,.5-.5,1,1,.5v1l2,1.5.5,4-.5,3-1,.5.5,1-1.5,1.5,1,1.5-.5,2.5-.5,1.5.5,1.5-2,4.5h-3l-2.5-4-3-2.5-3.5-.5-3.5,2.5-.5-2-2-2v-1.5l.5-.5-3.5-3.5-5.5,5.5-5.5-2.5-7,1.5-.5,2,2,3,.5,1.5-4-1-2.5,2-4,4v2l.5.5,2,1.5h-3.5l-.5,1.5h-3l-.5-.5-.5-2.5-6.5-2-1-1-5.5,1-5.5-2.5-10.5-1.5-2,1-2-1-4.5,3-3-1.5v.5l-2-2"/>
      <path data-code="cheremkhovo" class="cls-1" d="M286.09,805.12l1-2-1-2.5.5-1.5-.5-1h2.5l1-1-.5,1.5,1,1.5,1-1,3,1-.5,3.5h-1.5l.5,1.5h-2l-.5-1h-1l-.5,2.5v-2.5h-1.5l.5,2-1.5-1"/>
      <path data-code="cheremkhovskij_rajon" data-title="cheremkhovskij rajon" class="cls-1" d="M286.09,805.12l1.5,1-.5-2h1.5v2.5l.5-2.5h1l.5,1h2l-.5-1.5h1.5l.5-3.5-3-1-1,1-1-1.5.5-1.5-1,1h-2.5l.5,1-.5,1.5,1,2.5-1,2M296.59,803.12l1.5.5-.5,2,2,1v-3l-1-2.5h-1l1,1-.5.5-1.5.5M213.09,833.62h1.5v-4.5l2-2.5,1-3,1.5-1.5,2,.5-.5-1.5.5-2,2.5.5,2-2,1,1,.5-1-.5-1,2-2.5,4.5-.5,4,2.5v-3h5.5l1.5.5v1.5h2l.5-1-.5-2.5,1-.5-1.5-1.5-.5-4.5-.5-1.5,1-5h3l5,3.5,3-1.5,3,2.5,1-.5,2,1.5-.5,1.5,3,2v1.5l1.5,1,1,1.5h3.5l3,2,2-5,1.5-1,1-7.5.5-1h1.5l-1-3,1-1-.5-3,2,.5-.5,2,1,.5,1-1.5,2.5,2,2-1.5,2.5-3,2.5-2.5,2-.5.5,1.5,3.5-1-.5,7,1.5,10,1,3.5,1.5,1.5-2.5,3,1,1-2,2-1,.5-.5,1.5-2.5,2.5-.5-1.5-1.5-.5v-1l-2,1.5-2,2.5v.5h-.5l.5.5-1,1,.5.5-1.5,1.5,1,1,.5-.5.5,2.5-1-.5-.5,2.5-3.5,4.5-2.5,1-1.5-1,.5,1.5,3-.5,2.5,2.5-2,3.5h-4l2.5,13-7.5-.5-1,3.5-2,1-2,2,.5,1.5-1.5.5.5,1.5-.5,1-2-2-3.5,3-2-2h-2.5l-.5-1h-1l-3,2,.5,2-1,1h-5l-1.5-4.5,2-2-7-3.5-2.5-2.5-1.5.5-.5-5-3.5-1-2-2.5-3.5-2-.5-2.5-2-2.5-5-.5-3.5-3.5-3-1-2-3"/>
      <path data-code="chunskij_rajon" data-title="chunskij rajon" class="cls-1" d="M105.59,558.12l1-2,1.5-.5-.5-1,.5-1.5,1-2-1.5-3,1-2.5-1.5-1,1.5-4.5v-2l5-2.5-1-2,.5-2-.5-1,1-3.5,1.5-1,.5-3.5,1-1-1-1.5,1-2.5-.5-.5,1-1-1-2,.5-1.5-.5-1v-2l-.5-1.5.5-1.5-1.5-2.5,1-1.5,3.5-2v-3l-1.5-1.5,1-2.5h-1l-1.5-2,.5-2,1.5-.5,1.5-2.5,4.5,1,4.5-3,2,1,1.5-.5.5-1.5-.5-1,1.5-1-.5-1.5.5-1.5-.5-1.5,2-.5-1-1.5,2-.5,1-4h1v-1l.5-1.5-.5-2,1.5-2h2.5l1.5,1.5,5-2,5.5,1-.5,1,.5,1-1,2.5,1,1-1,1,1,.5-.5.5.5,1,1.5,1.5.5,3,.5.5-.5,1,6.5,3-.5,1v2l3,1.5-1.5,4.5,2,1-1,2,3,3.5-.5,2.5,3,2,1,1.5,6,2,1.5,3.5,2.5,1.5-1,1h.5v2l-1.5,1,.5,4.5,1.5,2-.5,1,1,.5-.5.5.5,2-2,.5,1.5,1-1.5,3,2,.5,3,4,.5,3.5-1,.5-25,30,1.5,2,1,2.5-.5,1.5,1.5,3.5,4.5,1-.5,1,.5,1-1,3.5.5,1,1.5.5.5-3.5h1l2.5,1.5.5,1.5h1l1-1-.5-1.5h1.5v2.5l2.5,1,.5,2.5,4.5.5-1.5,1.5,1.5,2.5v1.5l-2,1,1.5,1-.5,1,1.5,1-.5.5.5,2-1.5,2.5h1v1l.5,1.5-.5.5v2.5l-1,1,3,3.5v2.5l2,2,.5,1.5-2.5.5v2.5l-1.5-.5-2,2.5-5,1-1,1.5-3-1-3,2-1.5,3.5-2,1.5h.5v2.5l-2,2.5h-5l-2.5,1.5-1.5-.5-1,1.5-6.5-3.5.5-1.5-.5-1-2.5.5-2-2h-5.5l-1.5-2h-3l-2-2.5-2-.5-2.5-2.5.5-1-5-2.5-3-4.5h-2l-1.5-3.5v-3l1-2.5-2.5-2.5-1.5-2.5.5-2-2.5-2.5v-2l-1-2.5h.5l-.5-2.5.5-1.5-3-4,1.5-2.5-.5-1v-2l1-.5-.5-2.5.5-1.5-.5-1.5,2.5-2.5-.5-2.5v-3l-1-.5-1-3-.5-.5v-.5l-1.5-1.5v-1l-1.5-2"/>
      <path data-code="ehkhirit-bulagatskij_rajon" data-title="ehkhirit-bulagatskij rajon" class="cls-1" d="M337.59,811.62h3l.5-3,3-2.5-1-2-.5,1.5-1.5-.5-.5-2,.5-1,2,.5-2-1,1-1.5,2,.5v-1l1.5-.5.5-9,4-3.5-1.5-2.5.5-1-1.5-1,1.5-5,4-1,1.5,1,2.5-2,2,1.5,3.5-4,4,.5,1.5-1,.5,1.5,3-.5.5,1v3l.5.5-1.5,1.5v2.5l2,3.5,1.5-.5-.5-1h1l1.5-3.5h1.5v1l-2.5,3h1v1.5l-1.5,1,1.5,1-2.5,2.5,1,2.5-7.5,2.5-3.5,4.5,2.5,5,3.5-.5,2.5,4.5-3,1v2.5l-1,1.5,2.5,1,.5,3.5,4.5-1,5,1,4.5-3,3.5,3.5-3,1.5.5.5-.5,1.5.5.5-2.5,3-.5,2-3.5,1-.5,2-2,1.5-4,10-1.5,1.5-1-1-2,3-2.5,2-4.5-2.5-5-5,1-3-4.5-3-4-4.5.5-1.5-2.5-3.5,2-.5-3-1.5-2-4.5-3,.5v-1.5h-2.5l-1-2.5-.5-3"/>
      <path data-code="irkutsk" class="cls-1" d="M331.59,849.62l1.5-2,7.5,4,1,1.5,1-.5v-2h4.5l3,3v1.5l-5.5,1,2.5,1.5h-2.5l-.5.5.5,1-.5.5v2l-2.5-.5-1-1.5-3-1v-1.5l-.5-1,1.5-1-3-1-1.5-2.5-1.5-.5.5-.5-1.5-1"/>
      <path data-code="irkutskij_rajon" data-title="irkutskij rajon" class="cls-1" d="M320.59,831.12v-2l2.5-2.5,1.5.5.5,2,.5-1-1-1.5h-1l1-1-1,.5.5-1-1-1,.5-.5-1.5-4.5,1-1-2-1.5,1-3-.5-3,3-.5v-2.5l2.5-2.5,3.5,1.5.5-1,1.5,1,2-2.5,3,1.5v-2l2,1v-2l1,.5.5,2,2-1,1,2-3,2.5-.5,3-3-.5,1,5,3,1v1.5l3-.5,2,4.5,3,1.5-2,.5,2.5,3.5-.5,1.5,4,4.5,4.5,3-1,3,8,7,2,.5,2-2,2-3,1,1,1.5-1.5,4-10,1.5-1.5,4,1-.5,2.5h.5l5-4.5,1,1.5,1.5-1.5,1.5.5.5,3.5,1.5,1.5,3,.5,1-.5,1,1,3.5-1.5,2-4.5,2,2,8,11-11,26.5-7.5,11.5-10.5,8.5-16.5,7-4-14-1.5-2.5-1.5-.5.5,2.5-3,1-1.5,1.5-2.5-.5-1-1-3,1-.5-2-2-1v-1.5l-2-1-.5,2-2.5-1.5-3,4.5-3-.5.5,7.5-9,.5v-1l2-3,6.5-5.5v-2.5h2l-.5-3.5.5-.5-.5-3-1-.5,1-.5-2.5-4.5v-2l-1.5-.5v-3l-1.5-1.5h-3l-2-1-.5-2,.5-.5-1-.5h1l-1.5-.5.5-2,3.5-4,1.5,1.5v1l2,1,.5,1.5,3,1-1.5,1,.5,2.5,5.5,3h1v-2l.5-.5-.5-1,.5-.5h2.5l-2.5-1.5,5.5-1v-1.5l-2-3-3,.5-2-1-.5.5v2l-1,.5-5.5-4-3-1-2.5-5-2,1-2-2v-2l1-1.5-2-1v-3l-.5-1.5-3.5-2.5-1,.5"/>
      <path data-code="kachugskij_rajon" data-title="kachugskij rajon" class="cls-1" d="M335.09,755.62l1-2-1-1.5v-1l6,.5,3-2.5,1.5-6.5,6-1,2,.5,1,1.5,2-1v-2l2-.5v-5l-5.5-5v-.5l1.5-2-3-3.5,1-3h2.5l3.5-6,3.5,1,.5-3,2-.5.5-2v-1l-.5-1v-2.5l4,1-1-4,1.5-3.5h5l2.5-2,.5-2.5,3.5-3.5h3.5l2,4.5,4-1.5,1-1.5-2-2.5-1-4.5,1.5-3,2.5-2.5-1-2-1-.5-1-2.5,7-2,4-3.5,4.5-.5,1-1.5-.5-1,1.5-2-.5-1.5,2.5-1,2,1.5,1-.5,3.5,2,1.5,3,6.5-2v-2l2.5-3,4.5,1,.5-1.5,5,1.5,1.5-5,1.5.5,1.5-2,3,1,1.5-3h.5l-.5.5.5.5,5,3,.5,1-.5,1,2.5,2,.5-1.5,2-1,1.5.5,4-3,1.5-1.5-.5-2.5,1-.5,1,2h2.5v-1l2,3.5,3.5,1,.5,1-.5,2,.5,1.5h2.5l-.5,3,1,1.5,2-.5,1,1.5,1-.5,1,2,2-.5,1,3,1.5-1,3,1.5-.5,3.5-2.5,2.5,1,.5-1.5,1v2l-1.5,2.5.5,1.5-1.5,4,1,.5v2l-1.5,3,.5,1-.5,1-2,2.5.5,3-1.5,2-1.5,4.5-1,7-1.5,1.5.5,1.5.5.5v1.5l-1.5,2.5-1-1-2-.5v3l-7.5,8.5-2-1-3.5,4.5-1.5,5-1-.5-.5,1.5-1.5.5v4.5l-1,2,.5,1.5-2,1.5.5,1-.5,1v1.5l1,.5-.5,1.5-3,2-1,3,.5,1-3,4-2.5,1-4.5-3.5-2,.5v-1.5l-2-1.5-3,5-2.5-.5-5,5-.5,1,.5,2-1.5,1-4.5-2-6.5,7-2-.5-1.5,1-.5-3.5-4.5-1v-1.5l-3-2,1-1.5-.5-.5h1l1-2-.5-1.5-2,1.5-3,4.5h-2.5l-4.5-4.5,2.5-4-1.5-2.5,1-2-1-2v-1.5l-1.5-1.5h-1.5l-1.5-1-2.5,3.5v2l-1,1,2,.5,1,1.5-4.5,7.5-4.5-3.5-3,2.5-1.5-1.5h-2.5l-2.5,3-4-.5-3,4-2.5-1.5-2.5,2-1.5-1-4,1,1-1.5-1.5-2,1.5-2-1-1,.5-1.5-.5-1-4.5-1-3.5-1.5-.5-1.5h-1v-3l-4-3v-1.5l-.5-1"/>
      <path data-code="katangskij_rajon" data-title="katangskij rajon" class="cls-1" d="M286.09,258.62l5-3.5.5-1.5-2-2.5,1-3-.5-1,1-2.5-1.5-1,.5-2,2-1,.5-1v-.5l3.5-4,.5-2,4.5-1,2,1-1-1v-2l-1.5-1v-2.5l-2-1v-1.5l-5.5-2,4-2v-1.5l3-1.5,8.5-2v-1.5l-1-1,1-1,.5-2v-1l1.5-1v-1l6.5-4-.5-2,2.5-3,2-.5,3,2,.5-2.5,1.5-2,3-.5-2.5-5,.5-1.5-2-2.5v-1.5l5-8,3.5-2,2-4,3.5-1.5v-1.5l-.5-1,.5-1.5-.5-1-.5-2.5,1-1v-2l.5-1-1-1,1-3-2,.5v-1l-2-.5,1.5-2v-2l2.5-1-.5-.5-.5-.5-1.5-2.5,1-1,3,.5,2-5,3.5-2.5-1.5-3-2-1.5,1-3.5h2.5l.5-.5-.5-1-3-1.5h-2.5l-2-2h-3.5v-1l1-1.5v-3l-.5-.5v-1l-2-1v-2.5l-1-1-2-1-1.5.5-1.5-2-3-.5v-3l-2-1,.5-2-1.5-2,.5-1-1.5-2.5,3.5-.5,5-3,.5-1.5-1-1.5v-1.5l1-2-.5-1.5-2.5-.5v-1l1-1-1-.5v-1l1.5-2-.5-1,.5-1.5.5-.5,3,2.5h3l1-.5.5-2,1-2-.5-1,1-.5-1.5-.5v-1h-1.5l-.5-1.5-1.5-.5-.5-1.5h-.5v-1.5l-3.5-3h1v-1.5h2.5l-.5-2.5,2-2,.5-2.5-3-4,1.5-3,.5-4.5,1-1,1-2.5v-1.5l-2.5-1,.5-2-4.5-3,1.5-3v-1h1v1.5l1-1,2,1.5-.5-1h1l.5,2,5,.5,1.5,2h-.5,1.5l-.5.5.5.5h1l.5-2,2-.5-.5-1,1-1,.5.5,3-.5,1,1v.5l1.5,1v1.5l-1,.5,2.5,1,1.5-3,1,.5.5,1.5,2-.5.5-.5-.5-1v-.5l1-.5-1-.5.5-2.5,1.5-.5v-1.5l2-1.5,1,.5,1.5-1,1,1,1.5.5,1.5-2,2,1,1.5-1,1,.5,6-1,1.5-4-1-1v-2l-2.5-3,.5-1-1-1-.5-2.5-1.5-2-1-.5-4,1.5,3-3,5.5.5,1-2-.5-1.5.5-1,2.5,1,1,1.5v1l2,.5-1.5,2v1.5l2.5,1-1,1.5.5.5-1,2,3,2-.5,1,1,1.5,4,1.5,1,1.5-.5,1.5.5.5v1l-.5.5.5,1-1,1.5h1v1l1,.5,1.5,2-3,4.5h-1l-1-1.5-3.5,2-3-1-1-1-2,1-.5,1,.5,1v1.5l1,6-2,3.5-1.5-.5-1.5,1.5,1,3.5,6-1,5.5-2.5h3v.5l1.5.5,2-1,5,2.5,6-1,3.5,2,.5.5-.5,1,.5.5v1l3,2.5v1.5l2.5,2.5-1,.5v1l1,.5,3-1,1,2-1,1,.5,1h.5v2.5h1.5l1,3-1,.5v1.5l1,2.5h1l-.5,1.5h1l-.5,2.5h1.5l-.5,1.5.5,1-1,1h1.5v1l.5,1-1.5.5h2l-1,3.5,2,2v1.5l1.5-.5,2,1.5v1.5l2,2v1l-4.5,3v1.5l-1,2,1,1-.5,1.5.5.5v1l-2.5,2v3.5l.5.5-4,1.5v1.5h1v1.5l1.5,1v1l1.5,2,3,1,1,3,2-.5,1-2,4,1,7.5-1.5.5,1.5-.5.5v2.5l2,.5-.5,2,2.5,1-2,4,3.5,4.5v2l-1,.5-2.5,4,1,.5-.5,1v2l-1,1v1.5h-1.5l.5,1-1.5,1.5v1.5l-1,.5-1,3-2,1.5.5,1.5,1.5,2-1,2,1,1.5-1,.5h2l-.5,2.5.5,1.5,1.5.5,1,2h2l-.5,3h1.5l5,6.5-.5,1,.5,1.5-1,3,2,1.5-1,2.5v2.5l.5,1-1.5,3,3,.5,5-1,4,2,1.5,4,3.5,3,3-.5,2.5-3,3.5,1,1,1.5v2l1,2-1.5,4,1,1-.5,2.5-1.5,2-.5,1,.5.5-1.5,1.5-1,4.5-1,1.5v2.5l1.5,2.5-.5,1,1.5,3v1.5l-1.5,2-2.5-1-3.5,1.5,1.5.5v1.5l1.5.5v1.5l.5,1.5-2.5,1.5.5,1-.5,1.5-2.5,3.5-1,3.5,2,1v1.5l-.5,1.5-2.5,1.5v.5l1.5,1-2.5,2v1l1,1v2.5l-.5,1.5-2,1,.5,2-.5.5.5,2.5-.5,1,.5,2,.5.5v3h.5v1.5h1.5l.5,1-2,3.5v3.5l-1.5,1,2,3.5-3,3,.5.5-2.5,5,.5,3.5,1,.5-.5,1.5,2,.5.5,1-4,6.5v1.5l-1.5,1v2.5l-2,3.5,3.5,2-1.5,3.5h-1.5l1.5,2.5-1,1.5,5.5,1,3.5-.5-.5,1,.5,1.5v1.5l2,.5-.5,3h2l.5,1.5h2l-2.5,1.5-.5,2,.5,1-2.5,4.5,1,.5-2.5,8.5-3-1-1-1h-2l-3,2-.5,2-5.5,1.5-2.5-1-3.5,2,.5.5-.5,2,.5,1-.5,2,1,1-.5,2,.5,3-1.5,3,.5,1-.5,3.5-1,3-1,1,2,2v1l.5,3-2.5,3.5,2.5,1,1,2.5-1.5.5-2,3.5,1,1.5v1.5l-2.5,9-5-2-1-3.5-1.5-1.5-.5-1.5v-.5l-2-2,.5-3.5-2-2.5h-1.5l-.5-1.5.5-2-1-1.5-2.5-2-4,1.5-2-6,.5-2.5-2-3.5-3,1-1,3-1.5-.5-2.5,2.5-.5-2-3-.5-2.5-2.5-2,1-1,2,3,4-1,1.5v2.5l1,1.5-5.5,4.5,3,3.5,1,2v2l-2.5.5,2,3.5-.5.5,1.5,1.5-2.5,1-.5,1-1.5,1h-4v2l1,1-4.5,3-1.5-.5-2.5,2-7,.5-.5,2-2,3.5-3-1-4,3.5-1-2-1.5,2-3-1-6,2-4,3v2l-3,.5-1-1.5-1.5.5-1.5-1-1,5,2.5.5,1,1-1.5,3,1,2.5-2,3.5,1,3v1.5h1v1l-1.5,4h-1v1.5l-1,1.5-3-.5-4,4.5-5.5.5-.5-1.5.5-1-.5-.5v-1.5l-2.5-1.5v-2l-1-1v-1.5h-2.5l.5,1-1,1-2.5-1.5-4.5,1.5-.5-1.5v-3.5l-2-2.5-2-.5,1-2-.5-1,1.5-.5-.5-4v-4.5l-.5-3-1.5-2,.5-1.5-3-2,1.5-1.5,3-.5,1.5-3-2-2-1-3.5.5-1-.5-4,.5-1.5-2.5-3-2.5-1.5.5-2-2.5-4,1.5-2.5,4.5-2.5-1-.5.5-1.5,1.5-5-5-4v-2.5l2-4,2-1-.5-1,1-.5v-2l5.5-4.5,1-3.5,5-1,2.5-4-1-1.5-2-1,1.5-3-2-2,.5-1-1.5-1.5-1.5.5-.5-1.5-1.5-1,1.5-3-.5-3-1-1,1.5-2-.5-1-1.5-1v-1l-1.5-.5-2.5,1.5h-3.5l-2-3-3-2.5v-2l1-1.5h-1.5l-2-2,.5-2.5-2-1,4-5.5,2-1,1.5.5,1-1-.5-2.5-.5-1v-.5l-1-.5-.5-.5,2,.5,1-1-.5-1,.5-.5,1.5.5,1.5-1.5.5.5-.5.5h1l2.5-.5v1l4,1,2-1.5,1.5,1-.5.5,1.5-1-1-2.5-2-1v-1l-.5-.5.5-1-1-1,2.5-4-1-1.5.5-1-1-.5-1.5-3.5-1-4,1.5-1v-2.5l1-1.5-1,.5-1-1,.5-1-2-1.5-1.5.5-1-2-3.5,2-5.5-1.5-3.5,1.5-.5-1-1.5.5-1.5-.5-.5-1,.5-.5-3-2v-1l-4.5-1.5-1-1,1.5-.5-1-2,.5-1-2-2,1-.5-1-.5.5-.5-2-1-1.5-2,.5-1.5-1.5-.5.5-1.5h-1l1.5-3.5-.5-1,1.5-3-.5-1.5-1.5-2-1.5-.5-1-1.5-.5-2-1-.5"/>
      <path data-code="kazachinsko-lenskij_rajon" data-title="kazachinsko-lenskij rajon" class="cls-1" d="M407.59,659.12l1.5-4.5-1-2.5,5-3,.5-1.5-.5-1.5-2-1-2.5-4.5-1-3.5-2-2,1.5-1,3-6v-2l-1.5-2.5,1.5-3.5-1-3.5,2-1.5-.5-1.5-2.5-2,.5-4.5-2-3.5h-1l.5-2.5-.5-.5,2-2v-4l-1-2v-2.5l2-3.5-1-1,.5-2.5h1.5v-3.5l2.5-5-.5-1.5.5-2-.5-.5-2-4.5,2.5-.5,1-4.5,1.5-2.5.5-4.5,2-2.5,1.5-4.5-1.5-2.5,1-3-3-2.5v-2.5l3-3.5v-1.5l-4-1.5,2.5-1.5,2.5-6,3-1.5,1.5-5,1.5-1-.5-2,2.5-1.5,1,.5.5-1.5,3-2-.5-3,2-1.5,1.5,1.5,2-3,2,.5,1-2.5-.5-1,1-.5v-2.5l2-4-2-2.5v-1l3-2.5.5-2,2-2v-1l2-1,2-5,1.5-.5-.5-1,4.5-4,1.5-2,3.5,1,.5-.5,1.5,2,1.5-1,3,2,3,4.5.5,1.5-1.5,3,3,3-1.5,2.5-1,4.5,3,3-1,1v4l3.5,1,.5,1.5,3.5-1,1-1.5,2.5-.5-.5-1v-.5l2,1h1.5l.5,1,2.5,1.5.5,1,1,1,2.5-2.5,3,.5,1.5-3,1.5-.5,2.5,1,.5,2h1l2,2.5h3l1,1,.5,3-1.5,6,.5.5.5,2,1,1-2.5,3-1,3.5-5,1.5-3-2.5-2,1.5-2.5-.5-2,2-1,3-2.5,2-4-1.5-2,1.5v4l-2-.5v-2h-.5l-1.5,2,.5,1-1.5,2-1-.5-4,2-2-.5-1.5,2,2.5,1.5.5,2-2,4v2l-1.5,1.5-.5,2,.5,1-.5,1.5h-1v1l1.5,1,.5,1.5,2.5,2,.5,1,1.5-1,2,1,.5-1,2,1,1,2.5h1v1l2.5,3-1,1.5.5,1.5,2.5,1v2.5l2,1.5,1.5.5,2-1.5,3,1.5,1-.5,1.5-2v1.5l1.5,2-1,1.5.5,1.5-2,1.5h-4l-1-1-2,1.5.5-1.5h-1.5l-2,4.5h-1l-1.5,2.5.5,1.5-1,5.5,1.5,2-.5,4,.5,1.5v2l-3.5,1,.5,1.5-.5,1.5,1.5,1,.5,3.5-2.5,1,.5,2-1,1.5,2.5,2,.5,3-.5.5,1,2.5-.5,1.5,2.5.5v2.5l3,1,.5,1.5-.5,1,1.5,2-2,3,.5,1.5-2,3.5,1,1.5-.5,1,1,3,3,3-1.5,3.5,1,1.5-.5,3,1,1.5-.5,3.5,1,1v5.5l-3,1.5-1.5-1-1.5,1-1-3-2,.5-1-2-1,.5-1-1.5-2,.5-1-1.5.5-3h-2.5l-.5-1.5.5-2-.5-1-3.5-1-2-3.5v1h-2.5l-1-2-1,.5.5,2.5-1.5,1.5-4,3-1.5-.5-2,1-.5,1.5-2.5-2,.5-1-.5-1-5-3v-1h-.5l-1.5,3-3-1-1.5,2-1.5-.5-1.5,5-5-1.5-.5,1.5-4.5-1-2.5,3v2l-6.5,2v-2l-1.5-1-4-2-.5.5-2-1.5.5-1v-2.5h-1.5"/>
      <path data-code="kirenskij_rajon" data-title="kirenskij rajon" class="cls-1" d="M399.59,522.12l.5-2-.5-2,1-3-.5-3.5,2-.5v-2l.5-1.5-1-4.5-.5-3.5,1-3,3-1v1.5h1v1h2l.5,3,4-.5.5-1.5h-1l-.5-4.5-2-21-1.5-9-1-3-3.5-3.5-.5-2.5-2-2v-1.5l-1-1.5-5.5-6-1-4.5-1-.5-.5-4-1-2.5,4.5-3-1-1v-2h4l1.5-1,.5-1,3-1-2-1.5.5-.5-2-3.5,2.5-.5v-2l-1-2-3-3.5,5.5-4.5-1-1.5v-2.5l1-1.5-3-4,1-2,2-1,2.5,2.5,3,.5.5,2,2.5-2.5,1.5.5,1-3,3-1,2,3.5-.5,2.5,2,6,4-1.5,2.5,2,1,1.5-.5,2,.5,1.5h1.5l2,2.5-.5,3.5,2,2v.5l.5,1.5,1.5,1.5,1,3.5,3.5,1,1,1.5,1.5-3.5.5-4,1-2v-1.5l-1-1.5,2-3.5,1.5-.5-1-2.5-2.5-1,2.5-3.5-.5-3v-1l-2-2,1-1,1-3,.5-3.5-.5-1,1.5-3-.5-3,.5-2-1-1,.5-2-.5-1,.5-2-.5-.5,3.5-2,2.5,1,5.5-1.5.5-2,3-2h2l1,1,3,1,2.5-8.5-1-.5,2.5-4.5-.5-1,.5-2,2.5-1,.5,2.5-.5,1.5,1.5,2.5,2.5-2.5,1.5,4,3,3,5-3.5,1.5,1.5,4-.5,1,1,3-1.5,1.5,2.5,3,1.5-2,1.5v1.5l-2,1.5.5,1.5,2.5-1.5,2,.5,2-1,.5.5v1l2,1-1.5,2.5,1.5,1.5,2.5-1,1.5-2.5,4-4,4.5-.5,3.5-3-.5-2,1-1.5-.5-1-.5-2.5,5.5-2.5h4l1,2,1-2,5.5-.5v1.5l2,3,3-1,1,1v3.5l2.5.5,2,3-1,2.5,1,1.5-.5,2h1.5v1l1,.5.5,1.5-.5,4-2,1,2,3-3.5,2v1.5l-1.5,1.5.5,1-2.5,3-3.5-4-5,6-4-2.5-3,1,.5,4,2,2-.5.5,2.5,2,.5,3,1,1.5-2.5,1.5,1,1,1,2-3-.5-.5,2-2-1.5h-3l-1.5,2.5,1,.5-.5,1-2.5-.5.5-3-1-.5h-2.5l-1,4,1.5.5-1.5,1.5,2,1v2l-3.5,3,.5,1-.5,2.5,2,1-1,1v3.5l3,.5,2,3.5-.5,1,.5.5,3.5,1v2.5l5,3,1,1v1.5l1,1v.5l.5,1-1,1,.5,3.5-4.5,2.5,1.5,2.5-.5,5.5,2,2.5,3,1,1.5,2v1.5l1,1-1.5,1.5,3.5,2-.5,2,2,3.5-.5,4.5,1.5,1.5-2.5,2-.5-.5-4,1v2l.5,1v.5l2,2.5-1.5,3,2,1.5-2,3.5,1,2.5-2,3-2,.5-3-1-.5-1,.5-2h-4.5v-1.5l-1.5-1h-3.5l-2.5,2-4-3-1,1-3,1v3.5l-1.5-.5-1-3.5-3.5-.5-2-2.5h-1l-.5-2-2.5-1-1.5.5-1.5,3-3-.5-2.5,2.5-1-1-.5-1-2.5-1.5-.5-1h-1.5l-2-1v.5l.5,1-2.5.5-1,1.5-3.5,1-.5-1.5-3.5-1v-4l1-1-3-3,1-4.5,1.5-2.5-3-3,1.5-3-.5-1.5-3-4.5-3-2-1.5,1-1.5-2-.5.5-3.5-1-1.5,2-4.5,4,.5,1-1.5.5-2,5-2,1v1l-2,2-.5,2-3,2.5v1l2,2.5-2,4v2.5l-1,.5.5,1-1,2.5-2-.5-2,3-1.5-1.5-2,1.5.5,3-3,2-.5,1.5-1-.5-2.5,1.5.5,2-1.5,1-1.5,5-3,1.5-2.5,6-2.5,1.5,4,1.5v1.5l-3,3.5v2.5l3,2.5-1,3,1.5,1.5-1.5,5.5-2,2.5-1.5,6-2,.5-.5-2.5-4,.5-.5-13,2.5-15.5h-4l-1-2-1.5-.5-.5-2.5-2-1-.5-2"/>
      <path data-code="kujtunskij_rajon" data-title="kujtunskij rajon" class="cls-1" d="M189.59,759.62h2.5l1-5-.5-1.5,1.5,1,2-2,2,.5-1-3,.5-.5v-2.5l2.5-3-1.5-2-3,1-3-1.5-2-3v-1h-.5l.5-1.5h-.5l1-.5-.5-1.5,2,.5,4-2,1-2,3.5-1,2,1.5,1.5-.5-1-6.5-2-2,4-6.5h1l-.5-3.5-1-.5,1-1v-6l-6.5-2.5v-3.5h-4l-1-2.5.5-3.5,1-.5-.5-1.5-1,.5v-2h3.5l1.5-1.5-.5-4,3-.5-.5-1-3.5-2,.5-.5v-2l6.5,2,.5,2.5.5.5h3l1.5-1.5,2,.5.5-.5-2.5-2v-2l1.5-2,5-4,4,1-.5-1.5-2-3,.5-2,7-1.5,5.5,2.5,5.5-5.5,3.5,3.5-.5.5v1.5l2,2,.5,2,3.5-2.5,4.5,1v1l2,.5,2,3,.5,1.5,2-.5,2,2.5v3.5l-1,1.5v2.5l-.5,1,1,2.5-1.5,1,1,1.5-.5,3-1,.5.5,1.5-3,3-.5,2,1.5,1.5v1.5l3,1.5,1,3.5-1,.5-2-.5-1,2-6.5.5,2,3h-2l-3,3.5-.5,1,.5.5v1.5l.5.5v3l-.5,1.5-7,3.5,2,2-.5.5-2-1.5-2,.5,1.5,2.5,1,.5-1.5,2h-1.5l1.5,3.5-8.5,6-4.5-1.5-3,1-.5,6-7-.5-2,1.5-2-.5-.5,1,.5,1.5-1,.5,2,8-7.5,4.5-3-.5-4.5,1-2.5-1.5.5-.5-2.5-2.5-1.5-2.5"/>
      <path data-code="mamsko-chujskij_rajon" data-title="mamsko-chujskij rajon" class="cls-1" d="M497.09,369.62l4-4.5-3-1.5-1-2.5,3-5h4l1-3.5-.5-2,2-1.5-2.5-3,1-.5v-1l2-1-.5-2,2-3h5l.5,1h3l1.5,2,2-1,.5-1.5-.5-.5,1-.5,1.5,2.5,2.5.5h1l.5-3,1.5-.5-1-.5,1-2,4.5-1.5h2l.5,2,2,1,3,.5,4-6h2l1.5-1,2,1.5.5-3-1-1.5,3.5-4.5v-2.5l2.5-3.5v-2.5l2-2h1v3l2.5,3.5-1,4,1,.5,1,2-1.5,2.5,3-1,2.5-3,2,.5.5-1,1.5.5.5,1,2-1,.5,1v3h-1l-3,3-.5,3.5.5,2.5-.5.5,1.5,4.5-.5,2,1,1.5-.5,1.5,1,1-.5,1.5,1,3.5v.5l1.5,1.5h1.5l.5-3.5,1-1-.5-1v-2l-3.5-4,2.5-4h.5l-.5,2,.5,2,4.5-1,.5-.5-.5-2.5,1.5-3h2v-1.5l1.5-1,1.5.5,2-.5,1-2,1.5,1,2.5-3,3,1.5,1.5-2.5v-1l-.5-1,3-3v-2l1,1,.5-1.5-1.5-2,2-3-3.5-1.5-.5-1.5,1.5-4,1-.5-.5-1.5,2.5-3-.5-2v-1l-1.5-2,3.5-3.5,2,.5,2.5-3,2,1.5,5,1,.5,2.5-2,2-1,2.5.5,2,1,.5.5,2-.5,1,.5,4-1,1.5,1,1.5-.5,1,1,1.5.5,4,2,2,1,2,1.5-.5,2,2.5-2,5.5-3.5,2.5v3l2,3.5v2l1.5,2.5v3l.5.5v.5l1,2h1l1,3,2,1-3,4-2.5,1.5-1,5,3,7,4.5,2v3l1,2v1.5l1.5,1.5-.5,1-2.5.5-1.5,3-2,1,.5,2-1,1.5,1.5,1.5.5,2.5-1.5.5-1.5,4.5-2.5,1.5-2.5-1.5-3,2.5,2,2-1.5,2.5-.5,2,1.5.5,1.5,4-4.5,5,4,1v2.5h1.5v1.5l-1,3.5-3,2-.5,1.5,1,1-1.5.5-1,3.5,4.5,4-3,2.5,1,1,.5,2.5,5,4,4.5-.5.5,1,1.5.5.5.5-1,1.5,2,2.5-.5,2,.5,2,3.5.5,1,4,1.5,1v1.5l.5.5v1l1,2.5-2.5,4,2,2.5h2v1l.5,1-1,2,3,1.5v2l1,1.5-1,4.5,1,.5,1,2.5-1.5,1.5-1-.5-1.5,5.5-.5,1h-2l.5,1.5-1,.5-5-1-2.5,1.5-2.5-1-1-1.5-7,1.5-.5-3h-2.5l-.5-1-2.5-.5-.5-.5.5-1.5-1-.5-1-3-1-.5,1-4.5-.5-2.5-2-.5-3.5,1-1.5,3-1.5,1.5v2.5l-2,1-2.5-.5-4,2-6-6-1.5,1.5h-5.5l-1,3-1.5.5-2-3-3-2.5h-2.5l-1.5-3v-3.5l-3-1.5-1.5,2.5.5,1.5-1,.5v1l-1.5,2.5v3l-1.5,1.5,2,2.5-.5,2.5-3.5,1-1,3.5-1.5,2-2.5.5-4-3-5,3-1.5-2h-4l-.5-2,2-3.5-2-1.5,1.5-3-2-2.5v-.5l-.5-1v-2l4-1,.5.5,2.5-2-1.5-1.5.5-4.5-2-3.5.5-2-3.5-2,1.5-1.5-1-1v-1.5l-1.5-2-3-1-2-2.5.5-5.5-1.5-2.5,4.5-2.5-.5-3.5,1-1-.5-1v-.5l-1-1v-1.5l-1-1-5-3v-2.5l-3.5-1-.5-.5.5-1-2-3.5-3-.5v-3.5l1-1-2-1,.5-2.5-.5-1,3.5-3v-2l-2-1,1.5-1.5-1.5-.5,1-4h2.5l1,.5-.5,3,2.5.5.5-1-1-.5,1.5-2.5h3l2,1.5.5-2,3,.5-1-2-1-1,2.5-1.5-1-1.5-.5-3-2.5-2,.5-.5-2-2-.5-4,3-1,4,2.5,5-6,3.5,4,2.5-3-.5-1,1.5-1.5v-1.5l3.5-2-2-3,2-1,.5-4-.5-1.5-1-.5v-1h-1.5l.5-2-1-1.5,1-2.5-2-3-2.5-.5v-3.5l-1-1-3,1-2-3v-1.5h-2.5l-3,.5-1,2-1-2h-2l-6.5,2-1,1,1,3-1,1.5.5,2-3.5,3-4.5.5-4,4-1.5,2.5-2.5,1-1-1,1-2.5-2-1.5v-1l-.5-.5-2,1-2.5-.5-1.5,2-1-2"/>
      <path data-code="nizhneilimskij_rajon" data-title="nizhneilimskij rajon" class="cls-1" d="M243.09,497.49l2-5.5-1-1.5v-1l-.5-2.5,2,1,6.5,6,1,4-1.5,3,1,2,3,3,3.5-1,5-6.5,3-2.5,1.5-3,3.5,2.5v-3.5l2.5-2,2-5,3,.5,1-1,.5-2.5-1-.5.5-3.5h1.5l1.5,2,2-1,.5-2.5-1.5-3.5,1.5-1.5,1.5,1.5,4-2,1.5,1.5,4,2-1,3,1.5,1.5,3.5,1,1-1,2.5,1,.5.5-1,1.5,1,1-2.5,4v1.5l1,1-.5,1.5,1.5.5v1.5l1.5,1,.5,1.5.5.5.5,1.5,1,1.5,5.5,2.5v.5l-.5,1.5.5,1.5,3,.5v2l1.5,1-.5,1,1,2.5-.5,1.5,1,1v1l.5,3.5-2,1.5v2.5l-.5,1,1,2.5-3,3,.5,2,3,2.5,3,7.5,4,1-.5,2v3l3,2v3.5l3,3.5v2.5l-2,2,2,1.5.5,3,1,2v3l1.5,1v2.5l2,1.5-.5,4.5.5,2.5v1l2,3v1l-.5,1.5,2.5,2,.5,2.5,1,1-.5,1.5,2,3.5-.5,1,.5,1-.5,2,1,1v2.5l-1.5.5-3.5-2.5-4,2.5-1-4-3-1.5,1.5-3-.5-4.5h-1v-2h-2l-.5-1,.5-1-1.5-2,.5-1.5-3.5-.5-1.5-1.5v-1.5l-1.5-4-4,3-3.5,4-6,3.5-12-2.5-2.5-2-1-3-3-3.5-4-2.5-.5-1.5-6.5-1.5-.5.5v2.5l-2,.5.5,2-4,1-.5,2h-1.5l-2.5,8.5-3.5,4-2-2-3.5-2,.5-11.5-1.5-4.5v-7l-1.5-1.5,1.5-2,1-3.5,2-3.5-5.5-.5-1-2h-1.5l-1-2-2.5-2-.5-2.5,2-.5v-1l-1.5-1-1-3,1.5-1.5-.5-1.5.5-.5-.5-1.5,1.5-1.5,3.5-1-.5-.5,1-1.5-1.5-2-2.5.5v-1.5l1-1.5-4-6,2-2-3.5-5.5,1.5-1.5,2-3-1-3.5-2-1v-4.5l-3-.5.5-1-1.5-2.5"/>
      <path data-code="nizhneudinskij_rajon" data-title="nizhneudinskij rajon" class="cls-1" d="M.59,733.99l.5-.5v-2.5l1.5-2-.5-1.5,1-1.5,5-1,1,2h2l.5-2.5,1.5-1-1-1.5,1-.5v-2.5h1.5l-.5-1.5,1,.5-.5-2,1.5-1.5,4.5,2.5,4-1.5,7.5,3,2-1v-3l-.5-1,2-3v-3.5l-.5-1.5,1.5-2.5.5-2.5,1.5-2.5v-2h1l.5-2.5-.5-1.5,1-1-1-1.5v-2.5l1.5-3,3,.5,2.5,4,5-.5v3l2,3-1,1,.5,1.5,4.5-2,1.5,1,1.5-1,1-2.5,2,.5.5,1.5h3l1,1.5,3-2,1.5,1,3-1,.5,1-1,.5.5,3-.5,1,1.5,1.5-.5,1.5,1,4-.5.5,1.5,1,1-1-.5-1.5,2.5-1v-2.5l1.5.5,1-1.5,3,3,2,.5-.5.5,4,1.5.5,2,.5-1.5,1,1v-1l1-.5v-1h1.5l-.5-1.5h1.5l-1-3,1.5-1.5-.5-2,.5-1.5-1.5-.5.5-3-1-1,1-.5-1.5-1,.5-1.5,1.5.5-2-2-1,.5-1-1.5h-5l.5-2.5h-3v-.5l3.5-1.5-3-2.5-1,.5v-1.5l.5-1-.5-1v-3l6,1,1,1.5v2l.5,2-.5,1,3,1.5h1.5l10-7.5-2.5-3.5-1-4,1-.5-.5-3.5-3-3.5,1.5-2-.5-1-7.5-4.5-3-6-1-.5.5-2-1.5-1,2.5-.5,2-2.5,11.5-.5v-10.5l-1.5-.5,2.5-3.5,7,.5,1-4-1-1.5.5-.5-1-.5v-1.5l3.5-2.5,1.5,4h2l3,4.5,5,2.5-.5.5,2.5,3,2,.5,1.5,2h3l2.5,2,5,.5,1.5,2,3-1,.5,1.5-.5,1.5,6,3.5,1.5-1v-1l1.5,1,2.5-1.5h5l1.5-2.5,2.5,1-.5.5.5,2h-1.5l.5,1-1,2v.5l-1,1.5,1,1.5-1,1.5,1,3.5-1,2,1.5,1.5-.5,2,2,1.5v1l-1.5,1.5,2,1.5.5,1.5-4,3,.5,2-2-.5.5,1-2,4,.5,1.5-2.5.5v2l-1,1.5-.5,2-1,1.5.5,1-1,1,1,.5.5,3,3.5,2.5-.5,3.5,1.5,3.5-.5,2,1,1.5-.5,2,1,.5.5,1.5h.5l1,5.5-1.5.5-.5.5.5,1-1,1-7.5.5-1.5,3.5.5.5-.5,1.5,2.5,3.5,2.5,2-1.5,1,1,1.5-6.5,6.5,2.5.5-2,5.5-1.5,1.5v3l2.5-.5.5.5-3,4-5-1.5-2.5,2-1.5,2-.5,2,1,2.5-.5,1.5h1.5l-1,3.5-2.5,1.5-.5,2-2.5-1.5-.5,1.5,1,3,4,4,5.5,1.5,1.5,2.5,1,2.5-1.5,1.5,3,3.5v3l-1,1.5v2h1l6-6,1,1.5,1.5.5,3,3,1.5,2.5,8,7.5-2,.5-3-1.5-1,1.5h-3.5l.5,1.5-1,1.5,1,3-1,2.5-2-.5-2.5,4-4.5,1-2.5,2.5-3.5-1-3,1.5-.5,1.5,1,1-.5.5.5,1.5-2,3-3,.5v1.5l-9.5-4v-2l2-2.5v-.5h-2l-3.5-3.5-1,.5v2l-8.5-2.5-1.5,4-7,1-2-1-1.5,1.5-2.5-.5-.5-3.5,1-1-.5-1,.5-2.5-1-1-2,1-2-2.5-2.5,1-2-1h-2.5l-.5-1.5-1.5-2,1-2-.5-1.5-4.5.5-2-2-1,1-2-1-3.5,1.5-1.5-1-.5-.5.5-1-.5-.5.5-1.5-2.5-2h-3.5l-.5-1.5-.5-2.5-2-1,.5-1.5-2-1-.5-2-1,1-3-1-1.5-2-.5,1-1.5-.5-2-3-2.5.5-5-5.5-6,.5-1,1-.5,4-1,1h-.5l-1.5-2.5-1,1.5-2.5-1-1.5-1.5v-1l-.5-2.5-3-1-.5-3-1.5-2.5-6.5-5v-.5l-2-4.5-2.5-1,1-1-1-1.5,1.5-2-1-1.5h-3l-2.5-1.5-1-1-.5-3-2-1,.5-1-.5-1-1.5-1.5-2,1-2.5-2-1.5-4"/>
      <path data-code="nukutskij_rajon" data-title="nukutskij rajon" class="cls-1" d="M255.59,753.49l2-1,.5-2.5,1.5,2,2,.5.5-2.5-.5-4.5.5-1,4-2,1.5,2,3.5-1,1.5-1v-2.5l1-2,5,2.5-1.5,7.5,3,1,1-1.5,3.5,4,7,.5v1.5l2.5,5.5,2.5,4.5.5,3-.5,4.5.5,4-8-1.5,2-4-5.5-3-.5.5,1.5,2-1,1,.5,1-3.5,3.5,2,2.5,1-.5.5,1.5-2,3-.5-1-1,1.5v-2l-3.5,1-1-3v-2l-2-2.5-1.5-1-1.5,1-3-3.5-4.5-.5-2-3.5,2.5-2-1-1,.5-.5-2.5-3-2,1.5-1-2-3-1-.5-1v-2l-1-1"/>
      <path data-code="ol_khonskij_rajon" data-title="ol&amp;apos;khonskij_rajon" class="cls-1" d="M379.59,830.99l1-2,3-1,.5-2.5,3-2v-.5l-.5-1,.5-1-.5-1,2.5-1,1.5.5,3-2-.5-2,2.5-5-1-6,3-3.5.5-3.5,1-3.5-.5-1.5,3.5-5.5h3.5l1.5-3.5,1.5-1,2.5.5,6.5-7.5,4.5,2.5,1-1.5v-3l5.5-4.5h2.5l2.5-4.5,2.5,1v1.5l2-.5,4.5,4,2.5-1,3-3.5-.5-1.5,1-3.5,2.5-1,1-2-1-.5.5-2.5-.5-1,2-2-.5-1,1-2v-4.5l1.5-.5.5-2,1,.5,1.5-4.5,3.5-4.5,2,.5,7.5-8v-3.5l2,1,1,1,1.5-3v-1.5h-.5l-.5-2,1.5-1,1-7,1.5-4.5,1.5-2-.5-3.5,2-2v-1l-.5-1,2-3v-2l-1-1,1.5-4-.5-1,1.5-3v-1.5l3.5-2,17.5,6-1.5,6.5-17.5,43.5-2,6.5-6.5,32-34,41.5-29.5,28.5-7.5-10.5-2-2-2,4.5-4,1-.5-1-1,1-3.5-1-2-5-2.5,1.5-1.5-1.5-4.5,4.5-.5-.5.5-2-4-1"/>
      <path data-code="osinskij_rajon__irkutskaja_oblast_" data-title="osinskij_rajon_(irkutskaja_oblast&amp;apos;)" class="cls-1" d="M296.59,770.99l.5-4.5.5,1,3,.5v-2h2.5l-1-3,1-2.5-2.5-4v-2l2.5-.5,3.5,1,2.5-2.5.5-2,1.5.5,2.5-1,1-3.5-.5-2,3.5-2.5,3-.5,1,2h1.5l1.5-4,1-4,3-2.5,2,1,2.5,2.5-1,.5.5,1.5-.5,1,2,3-1.5,3,1,2.5-1,1.5,3,1.5v1l1,1.5-1,2,.5,1.5v1.5l4,3v2.5l1,.5.5,1,3.5,2,4,.5,1,1-.5,2,1,1-9,6.5-2,2.5-1-.5-2.5,5-3-.5-1.5,2-1,2.5.5,1.5-2,.5-4-1-5.5-3.5-2,1.5-2-1-1.5,1-.5-2-3-1,1.5-2.5-1-1-1.5-.5-.5,1.5h-1.5v-2.5l-1-1.5,1-1-2.5-2-1,1-3-1.5h-2l-1-2.5v1.5l-1,.5-.5-4"/>
      <path data-code="sajansk" class="cls-1" d="M241.09,742.49h1l2-1.5h-.5v-1l-1-.5.5-.5,1,2-.5.5,1,1.5.5-1-.5-.5,3-3.5-1-2.5.5,1v-1.5l1-1-.5-.5,1.5-1,1.5,2.5.5,3-.5,1.5-2.5-1-.5,1,3,1.5v3h-.5l.5-2.5-1-1-1.5-.5-1-1-2,2,.5,1-.5.5.5.5-1,2h-1l1,1-.5.5-1.5-1.5,1-1-2.5-1.5"/>
      <path data-code="shelekhovskij_rajon" data-title="shelekhovskij rajon" class="cls-1" d="M310.59,888.49l1-8.5,1-1,2-6.5,1-.5-.5-3,2.5-.5,1-4.5,1-.5.5-2.5,2.5-1,2.5-3,2.5,2,1-.5,3,1.5h3.5l1,1.5v3h1.5v2.5l2.5,4-1,1,1,.5v6.5l-1.5.5v2.5l-6.5,5.5-2,2.5v1.5l-18,.5-1.5-3.5"/>
      <path data-code="sljudjanskij_rajon" data-title="sljudjanskij rajon" class="cls-1" d="M287.09,883.99l2.5-1.5,7,1,1,1.5,4.5-.5v2l8.5,2.5,1.5,3,18-.5,9-1-.5-7h3l3-4.5,2.5,2,.5-2,2,.5v1.5l2,1,.5,2,3-.5,1,1,2.5.5,1.5-2,3-.5-.5-3,1.5,1,1.5,2.5,4,14-11.5,4.5,3.5,11.5v3l1.5,1.5v2l.5,1.5-1.5,3-2.5,1-3-2-5,3.5-6.5.5-2.5,1.5,1,1.5-1.5,1.5-2,1.5-1-1h-1.5l-.5,1v1.5l-2,2.5-4.5,2-2.5-21-9-3-5.5,3-2-1-.5,2.5h-1l-1.5-3.5-3-1-.5-3h-1l.5-2.5-2-2,1.5-3.5-1.5-1.5-1-2.5,1-1-.5-1.5,1-1-.5-1.5.5-1-2-1.5-4.5-1.5,1.5-1-2-2h-6l-2.5-2-.5-2"/>
      <path data-code="svirsk" class="cls-1" d="M297.09,802.99h1.5v-1l-.5-.5h1l1,2.5-.5,3-1.5-1.5.5-2-1.5-.5"/>
      <path data-code="tajshetskij_rajon" data-title="tajshetskij rajon" class="cls-1" d="M35.59,682.49l3.5-4-1.5-1.5,1-1-.5-2.5,1-2-.5-3-1-.5.5-1,2.5-.5-.5-1,2-.5v-1l3.5-.5,2.5-1.5-2-4v-2l-1.5-2-.5-2.5.5-1.5-1-2,.5-1-1-1.5v-1.5l2-.5-.5-1.5-4-4,3-2-.5-1.5-2.5-2,1-.5v-3l2-1.5v-2l2,.5,1-2.5,2.5,1v-11h2.5l2.5-7.5,6,2.5.5,2.5,2,.5,2-5,.5-.5v-2.5l-1-1.5,2-2h4l-1-13,11.5-.5-.5-11-5-1,1.5-3-1.5-3.5,1.5-1.5-1-.5.5-3.5-1-1,1.5-1.5.5-2-.5-1h-4.5l-4.5,1.5-2.5-3v-4l5.5-2,1.5-3.5v-1l-2.5,1-.5-1v-1l-2,1.5-1.5-1.5.5-.5v-.5l-1.5.5-3.5-2.5h-1l20-56.5,19,2,5,1.5,4-2,1.5,1,.5,2h1.5v1.5h1.5l1,1,2-1,2,3h1l-1,2.5,1.5,2-.5,3-3,2-1,1.5,1.5,2.5-1,1.5,1,1.5-.5,1.5,1,1.5-.5,1.5,1,2-1,1,.5.5-1.5,2,1.5,2-1,1-.5,3.5-1.5,1-1,3.5.5,1-.5,1.5,1,2-5,3v2l-2,4,1.5,1.5-.5,2.5,1.5,3-1.5,1.5v1.5l.5,1.5h-2l-.5,2,1.5,2v1l1.5,2v.5l.5.5,1,3h.5l.5,3.5.5,2-2.5,3,.5,1.5-.5,1.5.5,2-1,1v1.5l.5,1.5-1.5,2.5,3,4-.5,1,.5,2.5-.5.5,1,2.5v1.5l2,1.5.5,2-.5.5v1l4,5-1.5,2.5v3.5l-3,1.5v1.5l1,.5-.5.5,1,1.5-1,4-7-.5-2.5,3.5,1.5.5v10.5l-11.5.5-2,2.5h-1.5l-1,.5,1.5,1-.5,2,1,.5,3,6,7.5,4.5.5,1-1.5,2,3,3.5.5,3.5-1,.5,1,4,2.5,3.5-10,7.5h-1.5l-3-1.5.5-1-.5-2v-2l-1-1.5-6-1v3l.5,1-.5,1v1.5l1-.5,3,2.5-3.5,1.5v.5h3l-.5,2.5h5l1,1.5,1-.5,2,2-1.5-.5-.5,1.5,1.5,1-1,.5,1,1-.5,3,1.5.5-.5,1.5.5,2-1.5,1.5,1,3h-1.5l.5,1.5h-1.5v1l-1,.5v1l-1-1-.5,1.5-.5-2-4-1.5.5-.5-2-.5-3-3-1,1.5-1.5-.5v2.5l-2.5,1,.5,1.5-1,1-1.5-1,.5-.5-1-4,.5-1.5-1.5-1.5.5-1-.5-3,1-.5-.5-1-3,1-1.5-1-3,2-1-1.5h-3l-.5-1.5-2-.5-1,2.5-1.5,1-1.5-1-4.5,2-.5-1.5,1-1-2-3v-3l-5,.5-2.5-4-2.5-.5-2,2v2.5l-2-2-2-4"/>
      <path data-code="tulun" class="cls-1" d="M183.09,710.49l1-.5v-1.5l-.5-.5.5-.5-.5-2.5,5-1-.5,1.5h-1v1.5h1l1.5,3.5-.5,1,1,1,2,1-2,.5v1l-1.5-1-.5,1h-2l-1-1.5.5-2.5-2.5-.5"/>
      <path data-code="tulunskij_rajon" data-title="tulunskij rajon" class="cls-2" d="M183.09,710.49l2.5.5-.5,2.5,1,1.5h2l.5-1,1.5,1v-1l2-.5-2-1-1-1,.5-1-1.5-3.5h-1v-1.5h1l.5-1v-.5l-5,1,.5,2.5-.5.5.5.5v1.5l-1,.5M138.09,763.49l.5-1.5,2.5,1.5.5-2,2.5-1.5,1-3.5h-1.5l.5-1.5-1-2.5.5-2,1.5-2,2.5-2,5,1.5,3-4-.5-.5-2.5.5v-3l1.5-1.5,2-5.5-2.5-.5,6.5-6.5-1-1.5,1.5-1-2.5-2-2.5-3.5.5-1.5-.5-.5,1.5-3.5,7.5-.5,1-1-.5-1,.5-.5,1.5-.5-1-5.5h-.5l-.5-1.5-1-.5.5-2-1-1.5.5-2-1.5-3.5.5-3.5-3.5-2.5-.5-3-1-.5,1-1-.5-1,1-1.5.5-2,1-1.5v-2h4l3,1.5,4.5-3,2,1,2-1,10.5,1,5.5,3,5-1,1.5,2-.5,1.5,3.5,2.5.5.5-3,.5.5,3-1,2h-4v2.5l1-.5.5,1.5-1,.5-.5,3,1,2.5,4,.5v3.5l6.5,2.5v6l-1,1,.5.5.5,3.5h-.5l-4,6.5,2,2,1,6-1.5.5-2-1-3.5,1-1.5,1.5-3.5,2h-2v1.5h-.5l.5.5-1,1,1,.5-.5,1,2.5,3,3,1,3-.5,1.5,2-2.5,2.5v2.5l-.5,1,.5,3-2-.5-1.5,2-1.5-1,.5,1.5-1.5,4.5-2.5.5,5.5,6.5,2,.5,3-1h3.5l1.5,3.5-8,4.5-1,3.5-1,.5-1,3v2.5l.5,1.5-2,2,.5,1.5v1l-3,1.5-2.5-.5-3,1-1,2,2.5,2,6.5,1.5,1,3.5h-1v-1l-2.5-1-.5,1,1,1.5-.5,1-1-1-3.5.5-5-4.5v-2.5l-1.5-1.5-2.5.5-2.5,2-.5,2h-1l-14-15-6,6h-1v-2l1-1.5v-3l-3-3.5,1.5-1.5-1-2.5-1.5-2.5-5.5-1.5-4-4-1-3"/>
      <path data-code="usol_e_sibirskoe" data-title="usol&amp;apos;e_sibirskoe" class="cls-1" d="M309.59,823.49l1.5-.5-.5-1.5h2.5l1.5,3.5,1.5-.5-1,1,.5,1h-.5v1.5l-2,1,.5.5-2,.5v-1.5l-1-1h1l-1-1.5.5-.5-1.5-2"/>
      <path data-code="usol_skij_rajon__irkutskaja_oblast_" data-title="usol&amp;apos;skij_rajon_(irkutskaja_oblast&amp;apos;)" class="cls-1" d="M309.59,823.49l1.5,2-.5.5,1,1.5h-1l1,1v1.5l2-.5-.5-.5,2-1v-1.5h.5l-.5-1,1-1-1.5.5-1.5-3.5h-2.5l.5,1.5-1.5.5M269.59,866.49l.5-1-.5-1.5,1-.5v-2l1.5-1.5,2.5-1,1-3.5h7l-2-12.5h4l2-3.5-2.5-2.5h-3l-.5-1,3.5.5,2.5-3,1.5-2.5.5-2h1l-.5-2.5-.5,1-1-1,1.5-1.5-.5-1,1-.5-.5-.5h.5v-1l2-2.5,2-1.5v1.5l1.5.5.5,1.5,2.5-2.5.5-2h1l2-2.5-1-.5,2.5-3.5,6.5,1,3,2.5.5,2h1l1,2.5v2.5l1,2-1,1,1.5.5v.5h-1v1l1,.5v1.5l3,3h2.5l3,2.5-1.5,1-1.5,2,1,1v3l-2.5,1.5.5,2.5-1.5,2-1.5-.5-3,2-1-.5-.5,1.5-3.5.5-1,3h-4.5l-2.5,4-2-.5.5,2-.5.5-1.5-.5v1.5h2l3.5-4v2.5l-2.5,1.5.5,1,6.5-1v1-1l4.5-.5v5l5,2-.5,2.5-2.5.5.5,3-1,.5-2,6.5-1,1-1,9-8.5-2.5v-2l-4.5.5-1-1.5-6.5-1-4.5,1-6-5-.5-2-3-3-1.5-2.5v-3.5l-5-1"/>
      <path data-code="ust_-ilimsk" data-title="ust&amp;apos;-ilimsk" class="cls-1" d="M245.59,468.49v-6l1.5-1.5,1-5h1.5l-.5,1.5v1l3,.5-1.5,2-.5,3-1,1.5-.5,3h-3"/>
      <path data-code="ust_-ilimskij_rajon" data-title="ust&amp;apos;-ilimskij_rajon" class="cls-1" d="M245.59,468.49h3l.5-3,1-1.5.5-3,1.5-2-3-.5v-1l.5-1.5h-1.5l-1,5-1.5,1.5v6M185.09,537.62l-.5-3.5-3-3.64-2-1,2-2.5-1.5-1,2-1-.5-1.5.5-.5-1-.5.5-1.5-1.5-1.5-.5-4.5,1.5-1v-2l-1-.5h1.5l-1-2h1l.5-2.5,2-1.5,1,.5-.5.5h1.5l1.5-2.5-1-1.5h.5l-.5-1,.5-.5-.5-.5.5-1-1-.5.5-.5-.5-.5.5-.5-2.5-1-2.5-3,1-1-1.5-1,1.5-1-.5-1.5.5-.5-.5-.5,2-4-1.5-1,.5-.5-1-1,.5-1-.5-.5v-2l-1.5-1.5,4,1,3-1.5.5-3.5,3.5-3-.5-2,1-.5-.5-.5.5-2.5-2-1-.5-3,4-2.5,1-2,.5-2,3-3h4.5l1-1,3.5-7.5h1l-.5-.5,1-1-.5-.5v-1.5l1-2,2.5-2.5,7.5-2.5.5-1h2.5l3.5-2.5,1.5-2v-1h1l-.5-1,1-.5-1-.5,1-.5-.5-1,1.5-3,1.5-1v-1l2,.5v-2l2.5-1,1.5-2-1-2,1-2-1.5-2,.5-1-.5-1,.5-1-1-1,.5-2h-1.5l-1-2h-1.5v-3l-.5-.5,1.5-1.5-2-.5,1-2-2.5-2.5,1.5-2-1-1,.5-.5-.5-.5,1.5-1,1-2.5,4-2,1,1h6l1-2-.5-2,2.5-4h1.5l1-1.5,1.5.5.5,2,2.5,1.5h2.5l.5-2.5h1l3.5,1.5.5,2-5,.5,1,1.5h-.5l1,1-.5,1.5,3,2.5v1.5l3,4,.5,1.5,6,1.5,1,1.5v.5l.5.5-.5,1.5,1.5,1,2.5-1,3,1.5,3.5-1,2,1,.5,2h1v2l-1,1,.5,3,.5,1-2.5,2,.5,1,2.5.5,2-4.5,5,1,1-1.5-.5,1.5,2.5,3,2.5-1.5,1.5.5.5,1-1,3,2,1.5.5,1,2,1.5,2-2.5,3,1,.5-2,5.5-2.5,1-2,1.5-1.5-1.5,3.5-.5,1,.5,1-4,2.5-1.5,2.5,2.5,4-.5,1.5,2.5,1.5,2.5,3.5-.5,1.5.5,3.5-.5,1,.5,4,2.5,2-1.5,3-3,.5-1.5,1,2.5,2.5v1l1.5,2.5.5,3v4.5l.5,3.5-1.5,1,.5,1-2,3,.5,1-3.5,1.5-.5,2.5-1,1.5.5,1,.5,4.5,1.5,2-.5,2-4-.5-2,1-4.5-2.5-1,1-3.5-1-1.5-1.5,1-3-.5-.5-3.5-1.5-2-1.5-3.5,2-2-1.5-1,1.5,1.5,3.5-.5,2.5-2,1-1.5-2h-1.5l-.5,3.5,1,.5-.5,2.5-1,1-3-.5-2,5-2.5,2v3.5l-3.5-2.5-1.5,3-3,2.5-3.5,5.5-4.5,2-1.5-1-3-4,1.5-2.5-1-5-6-5.5-2.5-1v1l.5,1.5v1l1,1.5-.5,1v1l-.5,1.5-1,.5v2.5l1,1v1.5l.5.5h2.5v4.5l2,1,1,3.5-2,3-1.5,1.5,3.5,5.5-2,2,4,6-1,1.5v1.5l2.5-.5,1.5,2.5-1,1,.5.5-3.5,1-1.5,1.5.5,1.5-.5.5.5,1.5-1.5,1.5,1,3,1.5,1v1l-2,.5.5,2.5-1.5,1-2-1-.5,1-2-.5-.5,1.5-1.5-1-3,1.5-1.5-1-1,2-3,.5-1-3-3.5-1.5-3-4.5-2.5,1-.5,1h-2.5l-8.5-4-8,6.5-1.5-1-.5-1,.5-1h-1l-3.5,2-5-2.5-6.5,3-4.5-1-2,1.5-3.55-2.2,8.05-9.66,1-.5Z"/>
      <path data-code="ust_-kutskij_rajon" data-title="ust&amp;apos;-kutskij_rajon" class="cls-1" d="M302.59,488.49l.5-3,2-2.5-1-1,.5-1,2.5.5,1.5-1,4,.5.5-2-1.5-2-.5-4.5-.5-1,1-1.5.5-2.5,1.5-1,1,.5,1-3h2l2.5,2.5v4l.5,1.5,4-2,3,2,1-1-.5-1h2.5v1.5l1,1v1.5l2.5,2v1l.5,1-.5,1,.5,1h5.5l4-4.5,3,.5,1-1.5-.5-.5.5-1h1l1.5-4.5v-1l-1,.5v-1.5l-1-3.5,2-3-1-2.5,1-3-.5-1.5h-2.5l1-5,1.5,1,1.5-.5,1,1.5,2.5-.5.5-2,4-3.5,6-1.5,3,.5,1.5-2,1,2.5,4-3.5,3,1,2-3.5v-2l7.5-1,2.5-1.5,2.5,3,.5,3.5,1,1,1,4,5.5,6,1,2v1.5l2,2,.5,2,2,3,1.5.5,1,3.5,3,29.5,1,4.5,1,.5-.5,1-4.5.5v-2.5h-2v-1.5l-1,.5v-1.5l-3,1-1,2.5v3.5l1.5,5-.5,1v2.5l-2,.5v3.5l-.5,3,.5,2-.5,1.5.5,2.5,1.5,1,1,2,1.5,1,1,2,3.5-.5-2,16,.5,13,3.5-.5,1,2.5,2-.5-1,1-.5,4-2.5,1,1.5,4.5,1,.5-.5,2,.5,1.5-2.5,4.5v3.5l-1.5.5-.5,2,1,1.5-2,3.5v2.5l1,2v4l-3.5.5-.5-2-3-1-2,2.5-5.5,2.5-1.5-.5-2-2.5v-1h-1.5l-2.5,4-3,1.5-1.5,2.5h-2l-1,4-4.5,1-5.5-1-2-.5-1-2-2.5-1-3.5,2-.5,3.5-1,2-2-1-2.5,2h-1.5l-2-2v-1l-1.5-1h-4v-3l-1-1.5.5-1.5-1-.5.5-2.5-.5-1,.5-1-2-3.5.5-1.5-1-1-.5-2.5-2.5-2,.5-1.5v-1l-2-3v-1l-.5-2.5.5-4.5-2-1.5v-2.5l-1.5-1v-3l-1-2-.5-3-2-1.5,2-2v-2.5l-3-3.5v-3.5l-3-2v-3l.5-2-4-1-3-7.5-3-2.5-.5-2,3-3-1-2.5.5-1v-2.5l2-1.5-.5-3.5v-1l-1-1,.5-1.5-1-2.5.5-1-1.5-1v-2l-3-.5-.5-1.5.5-1.5v-.5l-5.5-2.5-1-1.5-1.5-3.5-1.5-1v-1l-1.5-1,.5-1.5-1-1"/>
      <path data-code="ust_-udinskij_rajon" data-title="ust&amp;apos;-udinskij_rajon" class="cls-1" d="M278.59,730.99l2-7,6.5-11.5-1.5-16-2-3-5-4-1-3,.5-6.5.5-2.5,5.5-7,2-8-1-10.5-3-8,2.5-2,5,2,1-1-1.5-2.5,1.5-2.5-1-1v-2l-1.5-2v-2.5l1-1-1-1,1-1.5-1.5-1.5v-1.5l-1-3-2.5-1-.5-1.5,1-1.5-1.5-3,1-1.5-.5-6.5v-2.5l1.5-1-.5-1.5-2.5-1.5-2.5-4.5h-2l-2.5-2.5-.5-2h-1l-3.5-6,.5-2.5h1.5l.5-2,4-1-.5-2,2-.5v-2.5l3-.5,4,1.5.5,1.5,4,2.5,3,3.5,1,3,2.5,2,12,2.5,6-3.5,3.5-4,4-3,1.5,4v1.5l1.5,1.5,3.5.5-.5,1.5,1.5,2-.5,1,.5,1h2v2h1l.5,4.5-1.5,3,3,1.5,1,4,4-2.5,3.5,2.5,2-.5v3.5l1,.5-.5,2.5-1,2.5,1,2,.5,2,1.5.5-1.5,2.5v3l.5,1.5.5,3,1,1-.5,1.5,1,2-1.5,1.5.5,1-1.5,3.5-1,.5-.5,2-2.5,1-3-2-2.5,2.5-.5,1.5-2.5-1.5-1,1-2.5-.5.5,4-2.5,3-2-.5-1,3,1.5,2v1l1,2-2,2,.5,1v1l1,.5v1l-1.5.5-.5,2-3.5.5-2-.5-3,3.5-2,1,1.5,2-1.5,1.5v4h1.5l1,1.5-2.5,3.5,1.5,2.5,2,.5,1,1.5-.5,1.5.5,1.5-2,3.5-3.5,2v1.5l2,2-.5,2,2,1.5v2.5l1,.5-1,2,1.5,1,1,2,2,2,2,.5-.5,4,2,2.5v1.5l2.5,1,1,2v6.5l-2.5,2.5-2,7-1.5,1-1.5-2-3,.5-3.5,2.5.5,2-1,3.5-2.5,1-1.5-.5-.5,2-2.5,2.5-6-.5v2l2.5,4-1,2.5,1,2.5-2.5.5v2l-3-.5-.5-1-.5-3-5-10v-2.5l-1-2.5-4-6-7-7-1-4.5"/>
      <path data-code="zalarinskij_rajon" data-title="zalarinskij rajon" class="cls-1" d="M182.59,807.49l3-2-1-1.5h1l-1-1,1.5-.5-.5-1.5,4.5.5-.5-2v-1l3,1v1h1v-.5l-1-1.5.5-.5,3,1v-1l2-1,.5,2,1.5-1h2l3,1.5.5-2.5,1-1.5,2.5-.5.5,1.5.5-2.5,3.5,1.5,1.5-1.5,1-3.5,3-2.5v-3l4-1,3-2.5,3,1,1.5-1.5.5-2h1.5l1-3.5h3v-1l1.5-.5,1-2,4-3,1-5.5,2-1,2.5,1,3.5-6v-1l1.5-1,3,.5,4.5,4.5,1.5-1.5,1,.5,2.5,4-2.5,2,1.5,3,6,1.5-.5.5,2.5,3-1,1.5-.5,2,1,1-.5,2-1.5.5-2.5,4h-1l1.5,1.5-3,2-4.5-1.5-2.5,5-6,1,.5,2.5-2,2.5,2,2-1,1-1,.5-2-2-3-.5-.5,4-1,1.5,1,1,.5,5,1.5,1.5-1,.5.5,2-.5,1-2.5.5.5-2h-7v3l-4-2.5-5,.5-2,2,1,1.5-.5.5-1-.5-2,1.5-2.5-.5-.5,2.5.5,1h-2l-1.5,1.5-1,2.5-2.5,3,.5,4.5h-1.5v1l-3-2h-4l-4-5.5-7.5-4.5-1-1-.5-2-1-.5-1.5-3.5-1,.5-1-2-4-2.5-1.5-2.5.5-1.5-1.5-.5"/>
      <path data-code="zhigalovskij_rajon" data-title="zhigalovskij rajon" class="cls-1" d="M313.09,699.49l5.5-7-.5-1.5.5-1.5-1-1.5-2-.5-1.5-2.5,2.5-3.5-1-1.5h-1.5v-4l1.5-1.5-1.5-2,2-1,3-3.5,2,.5,3.5-.5.5-2,1.5-.5v-1l-1-.5v-1l-.5-1,2-2-1-2v-1l-1.5-2,1-3,2,.5,2.5-3-.5-4,2.5.5,1-1,2.5,1.5.5-1.5,2.5-2.5,3,2,2-.5,3-5.5.5-1-.5-1,1.5-1-1-2.5.5-1.5-1-1-.5-3-.5-1.5v-3l1.5-2.5-1.5-.5-.5-2-1-2,1-2.5.5-2.5,3-.5,1.5,1v1l2.5,2,4-2,1.5,1,1-2,.5-3.5,3.5-2,2.5,1,1,2,2,.5,5.5,1,4.5-1,1-4h2l1.5-2.5,3-1.5,2.5-4.5,1.5.5v1l2,2.5,2,.5,4-3,1,.5,2-2.5,3,1,.5,2,2,.5-.5,1,.5.5-.5,2h1l1.5,3.5v5l2.5,2,.5,1.5-2.5,1.5,1.5,3.5-1.5,3,1.5,3v2l-3,5.5-1.5,1,2,2.5,1,3.5,2.5,4.5,2,1,.5,1.5-.5,1.5-5,3,1,2.5-1.5,4.5,1.5-.5v3l-3,2,.5,1-2,2,.5,1.5-.5,1.5h-4.5l-4,4-7,2,1,2.5,1,.5,1,2-2.5,2-1.5,3.5.5,4,2.5,3-1,1-4,1.5-2.5-4h-3.5l-3,3.5-.5,2.5-2.5,1.5-5.5.5-1,3,1,4.5-4-1v2l.5,1v1l-.5,2-2,.5-.5,3.5-3.5-1-4,5.5-2.5.5-.5,2.5,3,4-1.5,2v.5l5.5,5-.5,5-1.5.5v1.5l-2,1.5-1-1.5-2-.5-6.5,1-1,6-3,3h-4l-5-2.5,1-1.5-1-2.5,1.5-3-2-3,.5-1-.5-1.5,1-.5-2.5-2.5-2.5-1v-6.5l-1-2-2.5-1v-1.5l-2-2.5.5-4-2-.5-2-2-1-2-1.5-1,1-2-1-.5v-2.5l-2-1.5.5-2-2-2"/>
      <path data-code="zima" class="cls-1" d="M242.59,749.99l2-2.5,2,.5.5,2-1,2v3l-1.5-.5-2-4.5"/>
      <path data-code="ziminskij_rajon" data-title="ziminskij rajon" class="cls-1" d="M242.59,749.99l2,4.5,1.5.5v-3l1-2-.5-2-2-.5-2,2.5M241.09,742.49l2.5,1.5-1,1,1.5,1.5.5-.5-1-1h1l1-2-.5-.5.5-.5-.5-1,2-2,1,1,1.5.5,1,1-.5,2.5h.5v-3l-3-1.5.5-1,2.5,1,.5-1.5-.5-3-1.5-2.5-1.5,1,.5.5-1,1v1.5l-.5-1,1,2.5-3,3.5.5.5-.5,1-1-1.5.5-.5-1-2-.5.5,1.5,1.5-2,1.5h-1M183.59,793.49l1-2,3-1,2.5.5,3-1.5v-1l-.5-1.5,2-2-.5-1.5v-2.5l1-3,1-.5,1-3.5,8-4.5-1.5-3.5,7-4.5-1.5-7.5,1-.5-.5-1.5.5-1h1.5l2.5-1h7l.5-6,2.5-1,5,2,8.5-6.5-2-3h1.5l2-2-1-.5-1.5-3h2l2,1.5v-.5l-1.5-2,7-4,.5-1v-3l-.5-.5v-1.5l-.5-.5v-1.5l3.5-3h2l-2-3,6.5-.5,1-2.5,2,1,1,1.5-1.5,1,3,3,.5,4,3,2-1.5,1v1h1.5l1,1v2l-4,4,.5,1v3.5l-2,.5-1,2,1.5,3.5h1.5l.5,1.5,1.5,2-2.5,2,.5,4.5-.5,2.5-2-.5-1.5-2-.5,2.5-2,1,1,1v1.5l-3-.5-1.5,1v1l-3.5,6-2-1-2,.5-1.5,6-4,3-1,2-1.5.5v1h-3l-1,3.5h-1.5l-.5,2-1.5,1.5-3-1-3,2.5-4,1v3l-3,2.5-1,3.5-1.5,1.5-3.5-1.5-.5,2.5-.5-1.5-2.5.5-1,1.5-.5,2.5-3-1.5h-2l-1.5,1-.5-2-3,2-2.5-2-6.5-1.5-2.5-2"/>
    </g>
</svg>