<svg data-code="RR-KIR" xmlns="http://www.w3.org/2000/svg" viewBox="0 0 317.12 378.11">
    <g data-code="kirovskaja_oblast_" data-title="kirovskaja_oblast&amp;apos;">
      <path data-code="afanas_evskij_rajon" data-title="afanas&amp;apos;evskij_rajon" class="cls-1" d="M273,192.49l-.5,1,9,6.64-1,3-1,13,9.5,7v-2.5l2-1.5,1,6h1.5v2.5l-1,1-1,1.5-3.5.5-2.5,2.5-1,5.5-1,2v2.5l2,3.5-.5.5v1l-1,1h-5l-2.5,1v3l-3.5,2.5v2.5l-2,8-4.5-3.5-.5,1,.5-1.5-3,3,1-1.5-2.5-2-3,.5-.5,1-2.5,1-4.5-3.5,2-2-2.5-2,2.5-2.5-1-1,1.5-2-2-1.5-.9,1.79-8.11-4.93,1-9,5-6.5v-1l4.5-5h.5l1-1.5,3.5-2,.5-2,1.5-2.5.5.5,3-3.5,3,2.5,3-4-13.52-10.59,8.02-8.91,1-3.5-2-3,9.5,6Z"/>
      <path data-code="arbazhskij_rajon" data-title="arbazhskij rajon" class="cls-1" d="M65,210.99l5,1.14,5.5-1,3.5-1.5,2,1.5,1.5-2,1.5,1.5-.5.5v1l3-.5,2,1.5.5-1.5,2,.5h.5v-1h2l-1.5,1,.5,1.5-2,1.5,1.5,1.5-.5,1.5,1.5,1-1,1.5h1.5l.5,1.86v1.5l-1,1.5h-.5l-1,2.5v1l-1.5.5-.5-1.5,1-1.5h-2.5l-1,.5,1.5,2-1.5.5v1l.5,2-4,2v.95l-1.5,1.55-1-1.5-1,.5.5-2-1.5.5v-2l-2.5.5-.5-1.5h-2l-.5-1h1l-.5-.5-3-1.5v-1.5l-4-1v-2l-2-1-1.5-4,.5-1.5h-.5l1.5-2-1-3,1-1.5Z"/>
      <path data-code="belokholunickij_rajon" data-title="belokholunickij rajon" class="cls-1" d="M184.5,177.12h2.5l1,1,1.5-1.64.5,2.5,1.5-1,1,3,3,.5,1-2h1l1-1.5-1-1,3-1-1-1,1.5-1,1,.5-.5-2,.5-2.5,1,1.5,1.5-.5v-2l1.5-1.5,1,1,2.5-1.5.5,1.5-1,.5.5,1-.5,1.5,3.5,2-1,.5,1,2,1.5-1v1.5l2.5-1,.5,1-.5.5,3-.5,2.5.5,1-1.5,1.5.5,11-14,7,5.5-1.5,2,2,1.5-.5,3,2.5,3-1.5,3-1.5-.5v-1.5l-2,.5-1-2-4,5,2,1.5-6.5,9,7,5.5-8,10.14-12.5-10-3,4,2,2-3.5,5,1.5,1-3,4,2,1.5-3,4-14-10.5-5,6.5-2.5-2,.5-.5v-1l-1-.5-.5.5v1l-7-5.5v-1l2-.5v-2l2-.5,1.5-2.5h-2l-1-1-.5-4.5,1.5-.5-.5-1,.5-.5,1,.5,1.5-1-1.5-2-1.5.5-1.5-1,.5-1.5-.5-.5.5-1-1.5-1,2-1.5-.5-.5,1.5-1.5-.5-.5.5-1h1l-1-1.5.5-2.5"/>
      <path data-code="bogorodskij_rajon__kirovskaja_oblast_" data-title="bogorodskij_rajon_(kirovskaja_oblast&amp;apos;)" class="cls-1" d="M146.5,249.62l3.5-1v-1l2-1-1-1.5.5-.5-.5-1.5.51-.64.99.14,1-1,.5,2,5-2,2.5,2.5-.5,2,4,2.5v1l-1,.5v1l4,1,.5-1,1.5-1,.5-1.5,3-1,1,3.5,2.5,2-.5,3-.5,1-1.5-1-2.5,1-.5,2-1.5.5v3l1-.5-.5,1.5-1.5.5-5.5,2.5h-2l-.5,1.5h-2.5v1l-8,2.5-2,1.5-1-.5.5-1.5-1.5-2,1.5-2-.5-1.5.5-3.5-1.5-.5.5-2,.5.5v-2.5h.5v-1l1.5.5v-2l-1-4-1,.5-1-2"/>
      <path data-code="darovskoj_rajon" data-title="darovskoj rajon" class="cls-1" d="M95,113.62l3-1.5-1-1,4.5-5.5,6,5,3-4,4,3-1,1,7,6h1l.5.5-1,.5v1l6,4.5-3.5,4,1,1-.5,1,1,1-4,4.5v8l-.5.5,1,.5-2,1.5,1,2.5-1,2,1,3.5-.5.5,1-.14-.5,1.5.5,2.5-.5,1,.5.5-1,1v1l-5.5.5-.87,1.02-1.13-1.89-.5-3.5-3-2-.5,1.5-1,1,.5,1-2.5,1-1.5,3-2-1,1-1.5v-.5l-2-2-5-1h-.5l-1,1.5v.5l-1,.5-.5-1-2.35-.94,1.35-1.19-2.5-4,.5-1.36-1-1,.5-1-.5-1,1-1v-2l-1,2-1-3h-.5l-.5,2.5-3,.5.5-2-1.5-.5.5-2-.5-1,2-1.5-1.5-1.5.5-1,.5-.5v-1.5l3-2.5,2,.5,3,4.5,5.5,1.5-.5-3,1-1.5v-4.5l1.5-1-2-4,.5-2h1.5l1.5-1.5-1.5.5-3-1-2-7.5"/>
      <path data-code="falenskij_rajon" data-title="falenskij rajon" class="cls-1" d="M170,259.62l1.5-.5.5-2,2.5-1,1.5,1,.5-1,.5-3,2.5.5.5-2-.5-1.5,2-1,1.5-2,4,.5-1-2,1.5-1.5-1.5-1,2-1,.5.5.5-1-.5-1.5v-3l5-2-.5-1,1.5-2,.5-1.5,1.5.5,1-1,3-.5.5-1-.5-1,7.18-10.24,6.32,4.74-1,1h-1.5v2.5l-.5.5.5,1-1,1.5,7,3.5-1.5.5,1,2-.5-.5-1.5.5v-1.5h-1l-1.5,1-.5,1.5,1,1-1.5,1,.5,1.5-4,2.5-2.5-.5.5.5-1,1,1,.5-1,1-.5,2-4.5,1v2l-3.5,2.5-.5,1v1.5l2,.5,1-.5v4l-1,2.5-2,1v1l1.5,1,1,2h-1l-2.5,3.5-2.5.5v2l-1,1-.8,2.76-2.71-1.89.5-1.86-1-.64v1h-2.5l-.5-3-3-.86-1.5-1.5-2.5,1v-3.5l-2,1v-1.5l-3-1.5-.5.5-1.5,1,.5-1.5-1,.5v-3"/>
      <path data-code="jaranskij_rajon" data-title="jaranskij rajon" class="cls-1" d="M33.5,235.62l2.5-2.5,1,.5,1-1h1.5l1.5,1,1.5-1.5v-3l1,1.5-1.5-3,1-.64,2.5,3v1.5l3.5-.5v1.5l1.5-1.5,1,1.5,2-1,6,4,3,.5,3,2.14.5,1.36-3,.64,2,3-1.5,2.5,1.5.5-2,1,.5,3.5,3.5,4-1,.5.5,1-1.5.5.5,1-1,1.5,1.5,2.5-.5.5-6,1,.5-1-1.5-1.5,1.5-1.5-1-1h-2.5l-1,1.5-1-1-.5.5v1.5l-2.5,1-2-1,1.5,3-1.5,1.5-1-1-1.5,1h-1.5l-.5-2-1,.5-1.5-1.5-.5,1.5-2,.5,1-2-1-.5-1.5,1.5.5-1.5-1.5-1.5v-3l-.5-1.5-1.5.5.5,2.5-4.5-2,3.5-5.5-1.5-1.5,2.5-1v-1l-3.5,1-1.5-1.5,1-1.5h-1l1-1.5-.5-2h1v-1l.5-.5.5-1.5h-1l1-3.5"/>
      <path data-code="jur_janskij_rajon" data-title="jur&amp;apos;janskij_rajon" class="cls-1" d="M151.5,157.12l1.5,1,.5-1-.5-1-1.5,1M129,145.12l4.5,1,2-7,1-1.5,5,4.5,5.5,2-.5-1,.5-1,.5,1h3l4.5-2.5-.5,1,1,.5,1-1-.5,1.5,1.5,1,1-1.5,8,6.5-1.5,1v1l-.5,1,5.5,4.5-1.5,2.5v.5l-.5.5,1,.5-1.5,2,1,.5-4,3-1,1.5-4.5,1.5-.5.5,1,.5-.5,1.5h1.5l.5,1.5-1,1.5,1,1h-.5l-1.5,2.5h1l-.5,1.5-1-.5-2,2.5v1l-4.5-1-3.5,2-2-.5.5-1.5-1-.5-1,1h-1.5l-1,1-1.5-3.5h-.5v1l-1.5-1,1-1.5-.5-2.5.5-1.5-1-2,1-.5-.5-1.5,1-.5-1.5-1.5v-2.5h-1v-2l1,.5-1.5-1,.5-1.5-8-1,1.5-5.5-1-1,.5-1-3.5-1,1.5-6.5"/>
      <path data-code="kiknurskij_rajon" data-title="kiknurskij rajon" class="cls-1" d="M14,218.12l4.5-.5.5-2-1.5-.5-1.5,1,.5-1.5,5.5-.5v-1.5l-1-.5,1.5-3.5,2.5,3h1.5l.5,2,2.5,2,4,.5,6-1,1,2h2l-1,2.5,2,1.5-.5,1,.5.5v1.5l-.5,1-1-.5-1,3h1l1.5,3-1-1.5v3l-1.5,1.5-2.5-1-1.5,1-1-.5-2.5,2.5-1,3.5h1l-.5,1.5-5.5-2.5-1.5,1.5-1-.5v1h-1v1l-3.5,1-1.5-1.5v-2.5l-3-1.5.5-1-.5-.5,1.5-1-2-1v-1.5l-1-1,.5-1-.5-.5.5-.5-2-1,2-2,.5-2-2.5-1.5,1-1.5v-2.5"/>
      <path data-code="kil_mezskij_rajon" data-title="kil&amp;apos;mezskij_rajon" class="cls-1" d="M120,311.49h-1l3-1v.5l1-1.5.5.5,1-2.5,4.5-6-.5-.5,4.5-6.86-.5-.5,1.5-1,6-8.5-.5-1,1.5-1.5,1.5-4-.5-.5h3l-.5,1,1,1,.5,4,1,.5-1,1.5,2,1.5-.5,1-1,1,7,5-4.5,6.5,2,1-1.5,2.5,1,.5-2.5,3.5,1.5,1.5-2.5,2.5.5,1.5-2,1,2,1.5-.5,1,1,.5-1,1.5.5,2.5-1,1.5,2.5,1.5-1,1.5h-1l1.5,1.5,1.5-.5-.5,1.5,1.5,1-1.5,1,.5,1-2,.5-2.5,2.5-3,.5-1,3-2.5,3-4-3-.5-3.5-5.5-1.5-4-3-2-5-1,2-2.5-.5,1-1,.5-2,1.5.5,1-1.5-6-4v-1h.5l-.5-3.64,2.5-2Z"/>
      <path data-code="kirov" class="cls-1" d="M132.5,181.62l2.5,1.36,3.5-1,1.5-.86-1-2,1.5,1v-1h.5l1.5,3.5,1-1h1.5l1-1,1,.5-.5,1.5,2,.5v4l.5,1,1-.5v-3.5h1.5v1l-.5.5,2.5,5.5-2,.5,1.5,1v1.5h-1l-.5,3-2,1,.5,1.5-1-1-1,1-1,1.5-4.5-3.5-2,1.5.5,1h-1.5l-.5-.5,1-.5v-.5l1-.5,1.5-1.5-1-2.5-1-1-2.5,1.5-6-.5-1-2,.5-1,1.5-.5-1-.5,2-2.5-1-2,.5-1-2-.5,1-.5-1-.5,1-.5v-1"/>
      <path data-code="kirovo-chepeck" class="cls-1" d="M165.5,200.62l1-.5.5.5h-1.5M162,203.62l1-1,.5,1.5h-.5l-1-.5M154,200.12l3-2v1l2,2,.5,2.5-2.5-1,1,1.5-2,.5v-2.5l-2-1v-1"/>
      <path data-code="kirovo-chepeckij_rajon" data-title="kirovo-chepeckij rajon" class="cls-1" d="M165.5,200.62h1.5l-.5-.5-1,.5M132,194.12l6,.5,2.5-1.5,1,1,1,2.5-1.5,1.5-1,.5v.5l-1,.5.5.5h1.5l-.5-1,2-1.5,4.5,3.5,1-1.5,1-1,1,1,1.5-.5,2,.5v-.5h.5v2l2,1v2.5l2-.5-1-1.5,2.5,1-.5-2.5-2-2h0v-1l2.09,2.82,1.91.68,1.32,1.68-.32.32,1,.5h.5l-.5-1.5v-.5l1-1.5v-.5l1.5.5,3-2,.5,1-2,1.5v1.5l-1.5.86,1.5,2-.5,1.5,1.5.5.5,2.5h-3.5l-2-4-.5,3.5,2.5,1-.5,2,3-1.5.5.5-1,.5v.5l1.5.5v1l4.45,1.86-.95,3.14,1.5.14-1.5,1,.5.5-1,2,.5,2.5,2,5.5h.5v-1l2.5,2-1.5.5-1,3-2-1h-2.5v-2l-1,.5-1,2h-1l-.5,2-1,.5-1-2,.5-1-1.5-1-1.5.5-1,1-1.5-2-3,.5-1.5-.5,1-1.5v-1l1.5-1-1-2.5,1-.5-4.5-3,.5-1.5-.5-1.5,1.5-2.5-.5-.5-3.5-.5-1.5-4h-6.5l.5,1-2-.5-1,1-1-1.5-1.5.5-1.5-1-1,1-2.68-1.64.68-1.36,1-1,5-1.5-1-2.5-1.5-.5v-1.5l-2.5-2v-2.5l-2-1v-3.5"/>
      <path data-code="kotel_nich" data-title="kotel&amp;apos;nich" class="cls-1" d="M94.5,188.62l1-.5v-1h.5l.5-1.5,2,1-.5-1,1.5,2-.5.5,1.5.5-1.5.5.5.5-2.5-.5-1,1.5h-.5l1-1-.5-1h-1.5M97.5,191.62v.5h-.5l.5-.5"/>
      <path data-code="kotel_nichskij_rajon" data-title="kotel&amp;apos;nichskij_rajon" class="cls-1" d="M97.5,191.62l-.5.5h.5v-.5M96,188.62l.5,1-1,1h.5l1-1.5,2.5.5-.5-.5,1.5-.5-1.5-.5.5-.5-1.5-2,.5,1-2-1-.5,1.5h-.5v1l-1,.5h1.5ZM58.5,192.12l1-1.5,3,.86,4-5.5,4,3,2-2.5,4,3,2.5-3.5h2l1-1-1-.5,1-1,1,1,1-3,1-.5v-1.5l1-1.5v-1.5l2-1-.5-2,1.5.5-1-2.5,1.5-2-.5-1.5.5-1-1.5-1,3-4-.5-1.5h-2.5v-1l2.65-2.31,2.35.94.5,1,1-.5v-.5l1-1.5h.5l5,1,2,2v.5l-1,1.5,2,1,1.5-3,2.5-1-.5-1,1-1,.5-1.5,3,2,.5,3.5,1.5,2.5-3.5,1.5,1,1.86-.5,1.5-.5,1,.5.5-1.5,1v1.5l-.5,1h1v.5l-.5,2,1.5,1.5-.88,1.32.38,1.18,3.5,2-2,2.5v1.5l-1,3.14-1.5-.5-3,1.5v1l-.5.5-.5-2,1-.5-1.5-.5v1.5l-1.5,2-1-.5-1,1.5-1.5-1-2,3-1.5-1.5-1.5,2,.5,1.5-2,3.5,1.5,2.5-2,.5v1.5h2.5v1.5l-.5.5,1,1.5-2-.5-.5,3.5h-2v1h-.5l-2-.5-.5,1.5-2-1.5-3,.5v-1l.5-.5-1.5-1.5-1.5,2-2-1.5-3.5,1.5-5.5,1-4.04-.92.54-1.72h1l-2-3.86,1-5-8-8.5"/>
      <path data-code="kumenskij_rajon" data-title="kumenskij rajon" class="cls-1" d="M129.5,214.12l2-1,.82-1.64,2.68,1.64,1-1,1.5,1,1.5-.5,1,1.5,1-1,2,.5-.5-1h6.5l1.5,4,3.5.5.5.5-1.5,2.5.5,1.5-.5,1.5,4.5,3-1,.5,1,2.5-1.5,1v1l-1,1.5,1.5.5,3-.5,1.5,2,1-1,1.5-.5,1.5,1-.5,1,1,2-1,1,1.5,2-1,1v1.5l-1.5.5v2l1,2-2,.5-1.5-1.5.5-2-2.5-2.5-5,2-.5-2-1,1-3.5-.5-4.5-3-1,.5-1.5-2.5h1.5v-2.5l-2-1-2.5,1,.5-1-1.5-1.5-2.5,2v-1l-4,.5-4.5-1.5-3,.5-.03-1.77,2.53-.36.5-1.86,1.5.5,2-2.64h1v-2.86l-1.5-1.5.5-1.5-2-3.64,1-1.5v-1.36"/>
      <path data-code="lebjazhskij_rajon" data-title="lebjazhskij rajon" class="cls-1" d="M84.5,271.12h2l1.5-1.5v-1.5l1.5-2.5h1l.5-1-.5-2.5,1.5-.5,1.5,1.5,2-1.5-1.5-2.5,2.5,1,.5-3h.5l.5-2h.5l-.5-1,1.5-2,1.5-1.14,1.5,1-1.5,4,2,2,3-2,4,2.5,1,2-.5,2.5,2,2.5-.5,2,2.5,1,.5,1-1.5.5.5,1-1.5,3.64h-2l-.5,1.5h-1.5v1.5l-2,.5-2-2.5-2,.5v-1.5l-2,1-1.5-1.5-5.5-1.5-1,1,.5,2,2,2.5-3,3h-1v3l-1.87.96-.33.29-1.3.76-2-2,.5-1-2.5-1.5.5-1v-3.5l1-1.5-1-1,2-1h-2l.5-2.5"/>
      <path data-code="luzskij_rajon" data-title="luzskij rajon" class="cls-1" d="M138,22.12l2-.5v-2l2-.5-.5-1,1.5.5,10-11.5-.5-.5.5-1.5,4-.5,1-2,1.5-2,7,6.5.5-.5,4,1,.5,1v1.5l3.5,2.5.5,2,2,.5,1,2.5-3.5,7,11.5,9.5-5.5,20-3,1v1l-1.5,2,2,5-2-1-1.5.5,4,3,.5-.5,1.5,4.5-2,2-11.5,3-18-24,2.5-3h-1.5.5v-1l1.5.5,1-1.5-2-1.5,3-4-4.5-4-1,1h.5l-1,2-1.5-.5-1-1,.5-1-1-1.5-.5,1-2-1.5-1,1-1-1,.5-1-.5-1-2,.5,1-2-1.5-3-2-1,2.5-2.5-1-2.5"/>
      <path data-code="malmyzhskij_rajon" data-title="malmyzhskij rajon" class="cls-1" d="M95,318.62h1.5l5-6.5,2,2.36,4,.5,2.5,2.5h5l.5,1.5.5-.5.5-2.86.5,1,.5-3.14.5,3.64h-.5v1l6,4-1,1.5-1.5-.5-.5,2-1,1,2.5.5,1-2,2,5,4,3,5.5,1.5.5,3.5-2-1.5-5,7v1.5l-2.5,1.5h1l-1.5,2,.5.5-.5,3-.5-1-2.5-.5,1,2.5-2.5,1.5-5-2-5.5-6.5.5,5.5-3.5.5-2.5-2.5-.5-2-1-.5,3.5-2-2.5-.5v-7l2.5-1-1.5-4,3.5-3-1-.5-1,1-1.5.5.5-1.5,1-.5-1-6h-.5l-1,2-1,.5-2-1,.5-1.5-2-1-2,2.5-2-1.5.5-1-1-2.5"/>
      <path data-code="murashinskij_rajon" data-title="murashinskij rajon" class="cls-1" d="M123.5,127.12l8.5-10.5,4.5,4,1.5-2,5.5-3.5,1-1.5,3-1,3.5-7.5,7.5,6,1-1,.5,2,6.5,5.5-7.5,10,1.5,1,2.5-1,1.5,2.5-.5.5,3.5,3v.5l-2,3,6,4.5-5,7-8-6.5-1,1.5-1.5-1,.5-1.5-1,1-1-.5.5-1-4.5,2.5h-3l-.5-1-.5,1,.5,1-5.5-2-5-4.5-1,1.5-2,7-4.5-1-2,9-6.5-1-1-3.5,1-2-1-2.5,2-1.5-1-.5.5-.5v-8l4-4.5-1-1,.5-1-1-1"/>
      <path data-code="nagorskij_rajon" data-title="nagorskij rajon" class="cls-1" d="M181.5,139.99l7.5-9.5,3.5,1.5,4,.5-1.5-4.5.5-2,1.5-1.5,7.5,6.5,2-3,4.5-.5,11,3,3,2,1.5-.5,1-1.5,1.5-.5,7.5-4.5,4.5,1,4.5,6.5-1,4,1,2,4.5-1-7.5,29.5-7-5.5-11,14-1.5-.5-1,1.5-2,.5-.5-1-3,.5.5-.5-.5-1-2.5,1v-1.5l-1.5,1-1-2,1-.5-3.5-2,.5-1.5-.5-1,1-.5-.5-1.5-2.5,1.5-1-1-1.5,1.5v2l-1.5.5-1-1.5-.5,2.5.5,2-1-.5-1.5,1,1,1-3,1,1,1-1,1.5h-1l-1,2-3-.5-1-3-1.5,1-.5-2.5-11-9,7.5-9v-2l1-2-8.5-6.5,5-6.5-2-1.5"/>
      <path data-code="nemskij_rajon" data-title="nemskij rajon" class="cls-1" d="M128.5,261.49l4-1.5.5,1v-.5l.5-.5.5-.5,1,.5.5-1.5h1.5l-1-1,.5-1,1.5,1,1-1.5h.5l-.5-1.5,1.5-1,1,.5v-1h1.5l.5-1h1.5l1.5-2.36,1,2,1-.5,1,4v2l-1.5-.5v1h-.5v2.5l-.5-.5-.5,2,1.5.5-.5,3.5.5,1.5-1.37,1.83,1.37,2.17-.5,1.5,1,.5,2-1.5,4.02-1.26-.53,3.62.5,1,2.5-1,1,1.5-1,.5.5,3-3,3.5,1,1.5,1.5-1,1,.5-1,1.5,2.5.5-1,2-1.5-.5-.5,1-2.5.5-2.5-3,1,3.5,3,1.5-2,3.5-7-5.36,1-1.14v-1l-1.5-1.36,1-1.5-1-.5-.5-4-1-1,.5-1h-3l.5.5-1.5,4-1.5,1.5.5,1-6,8.5-1.5,1,.5.5-1.5,2.36-9-6.5,7-11-1-1,1-1.5-2-1.5.5-2,1.5-2-.5-4,.5-.5v-2.5l-1-2.5"/>
      <path data-code="nolinskij_rajon" data-title="nolinskij rajon" class="cls-1" d="M107.5,244.99l.5-1,3-2v-3.5l1-.5v-.5l2.5-.5,1-2h3.5l1.07-2.44,2.5,2.5-.57.94,2,1.5-1,.5,2,2-2,3.5,3.5,4-.5,1,.5,1.5,1.5,1v-1.5h1l2.5,1.5,1,2.5,4.5,3,2-.5-1,1.5-1.5-1-.5,1,1,1h-1.5l-.5,1.5-1-.5-.5.5-.5.5v.5l-.5-1-4,1.5,1,2.5v2.5l-.5.5.5,4-1.5,2-.5,2,2,1.5-1,1.5,1,1-4,6.5-3-1.5-.5.5-1-2-1.5.5-.5-2-2-1v1.5l-1-.5v-1.5l2.5,1-.5-1.5,1,.5,1-3.5-1-3.5-2.5-1-.5.5-1.5-3.5-2.5-1,.5-2-2-2.5v-1l.5-1.5-1-2-4-2.5-3,2-2-2,1.5-4,1-1,.5,1,2.5-2-1.5-2,1.5-3.5,1,.5Z"/>
      <path data-code="omutninskij_rajon" data-title="omutninskij rajon" class="cls-1" d="M217,197.62l12.5,10,10-12.64,1-3,6.5,5-1,.5.5,3,.5-.5v-1l5.5,3.5,1-1.5,2,2,.5-1.5,14,11-3,4-3-2.5-3,3.5-.5-.5-1.5,2.5-.5,2-3.5,2-1,1.5h-.5l-4.5,5v1l-5,6.5-1,9,2.5,1.5-6,8-15-10.5v-2.5l-2.5-3.5h-3.5l-1.5-1-5,.64-.5-1.5,1.5-1-1-1,.5-1.5,1.5-1h1v1.5l1.5-.5.5.5-1-2,1.5-.5-7-3.5,1-1.5-.5-1,.5-.5v-2.5h1.5l1-1-4-3,3-4-2-1.5,3-4-1.5-1,3.5-5-2-2,3-4Z"/>
      <path data-code="oparinskij_rajon" data-title="oparinskij rajon" class="cls-1" d="M106,75.49l10-12.5,20,14,1-1.5,3.5.5.5-1,2,3,2.5-2.5,1.5-.5,2-3,7.5,5,6.64-8.18,4.5,6-1.14.18-2.5,3.5-3,6.5v1l-13.5,26.64-3,1-1,1.5-5.5,3.5-1.5,2-4.5-3.64-5.17,6.03-5.82-4.4v-1l1-.5-.5-.5h-1l-7-6,1-1-4-3-3,4-11.5-9.14,16.5-21.5-6.5-4.5"/>
      <path data-code="orichevskij_rajon" data-title="orichevskij rajon" class="cls-1" d="M96.5,193.12l1.5,1.5,2-3,1.5,1,1-1.5,1,.5,1.5-2v-1.5l1.5.5-.94.74.44,1.76.5-.5v-1l3-1.5,1.5.5,1-3.14,2.5.5-.5,1h3v1l3-1,1.5,1.5v-1.5h2l.5-1,1.5-.5,1-1.5,2.5.5.97-1.21,2.54-1.66v1l-1,.5,1,.5-1,.5,2,.5-.5,1,1,2-2,2.5,1,.5-1.5.5-.5,1,1,2v3.5l2,1v2.5l2.5,2v1.5l1.5.5,1,2.5-5,1.5-1,1-1.5,3-2,1v1.36l-4.5-1-3,.5-2-2.5.5-1.5-.5-.5,1-1-1.5-.5-2-3-4,1.5-4-2.5-5,7.5-5.5-3.5-1.5,2-3.62-2.55.12-.82,2,.5-1-1.5.5-.5v-1.5h-2.5v-1.5l2-.5-1.5-2.5,2-3.5-.5-1.5,1.5-2Z"/>
      <path data-code="orlovskij_rajon__kirovskaja_oblast_" data-title="orlovskij_rajon_(kirovskaja_oblast&amp;apos;)" class="cls-1" d="M110.5,164.62l3.5-1.5-.37-.61.87-1.02,5.5-.5v-1l1-1-.5-.5.5-1-.5-2.5.5-1.5-1,.14.5-.5,6.5,1,.5-2.5,3.5,1-.5,1,1,1-1.5,5.5,8,1-.43,1.55,1.43.95-1-.5v2h1v2.5l1.5,1.5-1,.5.5,1.5-1,.5,1,2-.5,1.5.5,2.5-1,1.5,1,2-1.5.86-3.5,1-2.5-1.36-2.54,1.66-.97,1.21-2.5-.5-1,1.5-1.5.5-.5,1h-2v1.5l-1.5-1.5-3,1v-1h-3l.5-1-2.5-.5v-1.5l2-2.5-3.5-2-.5-1,1-1.5-1.5-1.5.5-2v-.5h-1l.5-1v-1.5l1.5-1-.5-.5.5-1,.5-1.5-1-1.86"/>
      <path data-code="pizhanskij_rajon" data-title="pizhanskij rajon" class="cls-1" d="M66,239.49l-.5-1.36,1.5-.14v-1.5l1-.5,1-1.5,5.5-2-.5-1h2l.5,1.5,2.5-.5v2l1.5-.5-.5,2,1-.5,1,1.5,2-2-.5,2.5-.5.5-.5,1,1,3-2,1,1.5,1v.5l-2.5-.5.5,2.5h-.5l-.5,2.5h-1.5v2l-2.5,3.5,2,2,.5,2-5,2,1.5,1-.5,1h-1.5l-1.5,2.5-2-1-1,1-2-1.5-.7-1.62-1.3-2.74,1-1.5-.5-1,1.5-.5-.5-1,1-.5-3.5-4-.5-3.5,2-1-1.5-.5,1.5-2.5-2-3,3-.64Z"/>
      <path data-code="podosinovskij_rajon" data-title="podosinovskij rajon" class="cls-1" d="M103.5,35.49l1-.5,3,2,.5-1,1,.5,1,2.5,5,1.5,3,4,3.5-3,.5-2.5,2.5-1-2-1.5,1.5-2,3.5.5-.5-1.5,2-.5,1.5-2,.5-2,3,.5,1-1,1.5,1.5.5-.5.25-1.99,1.26.63,1.5,3-1,2,2-.5.5,1-.5,1,1,1,1-1,2,1.5.5-1,1,1.5-.5,1,2.5,1.5,1-2h-.5l1-1,4.5,4-3,4,2,1.5-1,1.5-1.5-.5v1h1l-2.5,3,13.64,18.18-6.64,8.18-7.5-5-2,3-1.5.5-2.5,2.5-2-3-.5,1-3.5-.5-1,1.5-20-14,6-7.5-3.5-2-2,1-.5,1.5-2-.5-.5,1-1.5-1.5-.5,1-.5-.5,1-1-.5-.5-2.5-1,.5-1.5-1.5,1-1-.5.5-1.5-2-3-4-2.5,1.5-1v-1.5l.5-.5-.5-1,2-2-1.5-3.5"/>
      <path data-code="sanchurskij_rajon" data-title="sanchurskij rajon" class="cls-1" d="M.5,242.99h1v-1l1.5.5,1.5-.5.5-.5-1-1,1-2h2l1.5-1.5.5-1-1.5-1,1-1.5,1.5.5-1-1,.5-2.5,1.5-.5,2,1,1.5-1.5.5.5-.5.64,1,1v1.5l2,1-1.5,1,.5.5-.5,1,3,1.5v2.5l1.5,1.5,3.5-1v-1h1v-1l1,.5,1.5-1.5,5.5,2.5-.5.5v1h-1l.5,2-1,1.5h1l-1,1.5,1.5,1.5,3.5-1v1l-2.5,1,1.5,1.5-3.5,5.5,2.42,1.08-4.43.79-1.5,1.5-2-1-1,1.5-2.5,1v1.5l-1.5-3h-5l-3,1.5-1.5-2.5-2,1-.5-2.5,1-.5,1.5-2.5,1,.5-.5-4-2-.5-1.5-3-2.5.5v-.5l1-1-.5-.5-3,1-3-4"/>
      <path data-code="shabalinskij_rajon" data-title="shabalinskij rajon" class="cls-1" d="M29.5,165.99l3-4,4-1,1.5-3v-2l2-2.5.5.5,1.5-1.5h-1.5l1-2,1.5-.5,5,2.5,2-3.5h.5v-2.5l3.5-1.5v-1.5l3-1h.5l-1,1,5.5,2,2.5-.5,4,2,3.5-6.5,1.5,1,2-2h1l1-1,1.5,2,4,1,.6.47-.6,2.16,1.5.5-.5,2,3-.5.5-2.5h.5l1,3,1-2v2l-1,1,.5,1-.5,1,1,1-.5,1.36-3,1-2-.5-.5,2-2.5.5,1.5.5-1.5,1,1,.5v1l-2-.5-2,1,.5.5-1,1h-3v2l-1,.5.5,1-.5,1-2,1v2l-1,1,1,2-2,.5v2h-.5l-.5,1-5-1-1.5,2,.5,1-.5,1.5-2.5,1.5-.5-1-.5,1h-1v1l-2-.5,1,3h-.5l1.5,1.5-.5,5.5-22.5-14.5-2-2.5-1.5,1.5h-2l-1-4.5,1-1.5-.5-.5.5-1.5"/>
      <path data-code="slobodskoj" class="cls-1" d="M166.5,190.49l1.5,1,1-1,2.5,2.5-1.5,2h-1v.5l-.5.5-2-2,1-1-1-2.5M164,195.49l1.5-1,1,1.5-1.5.5-1-1"/>
      <path data-code="slobodskoj_rajon" data-title="slobodskoj rajon" class="cls-1" d="M165,196.49l1.5-.5-1-1.5-1.5,1,1,1ZM167.5,192.99l-1,1,2,2,.5-.5v-.5h1l1.5-2-2.5-2.5-1,1-1.5-1,1,2.5ZM152,181.12l4.5,1v-1l2-2.5,1,.5.5-1.5h-1l1.5-2.5h.5l-1-1,1-1.5-.5-1.5h-1.5l.5-1.5-1-.5.5-.64,4.5-1.36,1-1.64,4-2.86-1-.5,1.5-2-1-.5.5-.5v-.5l1.27-2.12,2.23-1.02,1,1.5,6.5-8.5,7.5,6-1,2v2l-7.5,9,11,9-1.5,1.64-1-1h-2.5l-.5,2.5,1,1.5h-1l-.5,1,.5.5-1.5,1.5.5.5-2,1.5,1.5,1-.5,1,.5.5-.5,1.5,1.5,1,1.5-.5,1.5,2-1.5,1-1-.5-.5.5.5,1-1.5.5.5,4.5,1,1h2l-1.5,2.5-2,.5v2l-2,.5v1l4.66,3.66-3.66,4.7v1l-2.5,1h-.5l.5-2-1.5,1v-1.5l-4-.5,1.5,1-.5,1-6-2.5v-1l-1.5-.5v-.5l1-.5-.5-.5-3,1.5.5-2-2.5-1,.5-3.5,2,2.5-.5.5.5,1h3.5l-.5-2.5-1.5-.5.5-1.5-1.5-2,1.5-.86v-1.5l2-1.5-.5-1-3,2-1.5-.5v.5l-1,1.5v.5l-.68.68-1.32-1.68-1.91-.68-2.09-2.82-3,2v-1h-.5v.5l-2-.5-1.5.5-.5-1.5,2-1,.5-3h1v-1.5l-1.5-1,1.97-.57-2.47-5.43.5-.5v-1h-1.5v3.5l-1,.5-.5-.64v-4.36l3.5-2Z"/>
      <path data-code="sovetskij_rajon__kirovskaja_oblast_" data-title="sovetskij_rajon_(kirovskaja_oblast&amp;apos;)" class="cls-1" d="M87,226.99l1-.5h2.5l-1,1.5.5,1.5,1.5-.5v-1l1-2.5h.5l1-1.5v-1.5l2-.5,1.5,2.5,2.5,1v2l.5-.5,1.5,2.5.5-.5,2,3.5-1.5,2.5,3.5.5v1.5h2l2.5,1.5v3.5l-3,2-.5,1-1-.5-1.5,3.5,1.5,2-2.5,2-.5-1-1,1-1.5-1-1.5,1.14-1.5,2,.5,1h-.5l-.5,2h-.5l-.5,3-2.5-1,1.5,2.5-1.5,1.36-1,.5-2-2-4.5,1.5-2.5-.5-2.5,4,1,1.5-.5-.5-.5,1.5-2-.5v1l-1,1v2l-3.5,1.5-3-2.5,1.5-1-.5-2.5,1-1-2.5-2,1.5-2.5h1.5l.5-1-1.5-1,5-2-.5-2-2-2,2.5-3.5v-2h1.5l.5-2.5h.5l-.5-2.5,2.5.5v-.5l-1.5-1,2-1-1-3,.5-1,.5-.5v-3l4-2-.5-2v-1l1.5-.5-1.5-2"/>
      <path data-code="sunskij_rajon" data-title="sunskij rajon" class="cls-1" d="M123.97,230.85l.03,1.77,3-.5,4.5,1.5,4-.5v1l2.5-2,1.5,1.5-.5,1,2.5-1,2,1v2.5h-1.5l1.5,2.5,1-.5,4.5,3,2.51.36-.51.64.5,1.5-.5.5,1,1.5-2,1v1l-3.5,1-1.5,2.36h-1.5l-.5,1h-1.5v1l-1-.5-1.5,1,.5,1.5-2.5.5-4.5-3-1-2.5-2.5-1.5h-1v1.5l-1.5-1-.5-1.5.5-1-3.5-4,2-3.5-2-2,1-.5-2-1.5,1.5-2.5-.5-2.5.97-.14Z"/>
      <path data-code="svechinskij_rajon" data-title="svechinskij rajon" class="cls-1" d="M58,179.99v-1h1l.5-1,.5,1,2.5-1.5.5-1.5-.5-1,1.5-2,5,1,.5-1h.5v-2l2-.5-1-2,1-1v-2l2-1,.5-1-.5-1,1-.5v-2h3l1-1-.5-.5,2-1,2,.5v-1l-1-.5,1.5-1-1.5-.5,2.5-.5.5-2,2,.5,3-1,2.5,4-4,3.5v1h2.5l.5,1.5-3,4,1.5,1-.5,1,.5,1.5-1.5,2,1,2.5-1.5-.5.5,2-2,1v1.5l-1,1.5v1.5l-1,.5-1,3-1-1-1,1,1,.5-1,1h-2l-2.5,3.5-4-3-2,2.5-4-3-4,5.5-3.81-1.05-1.19-.95.5-5.5-1.5-1.5h.5l-1-3,2,.5Z"/>
      <path data-code="tuzhinskij_rajon" data-title="tuzhinskij rajon" class="cls-1" d="M43,222.49l.5-1,1,.5,2.5-3.5,1,.5.5-1.5h.5l.5-1.5,2-1,.5-2.5,4-2,1.5-3-1-1,4-2v-1l1,1,3-.5,1,1,2,4.5h-1l-.54,1.72-.96-.22-1,1.5,1,3-1.5,2h.5l-.5,1.5.5,1,1,3,2,1v2l4,1v1.5l3,1.5.5.5h-1l1,2-5.5,2-1,1.5-1,.5v1.5l-1.5.14-3-2.14-3-.5-6-4-2,1-1-1.5-1.5,1.5v-1.5l-3.5.5v-1.5l-2.5-3-1,.64h-1l1-3,1,.5.5-1v-1.64h-.5"/>
      <path data-code="uninskij_rajon" data-title="uninskij rajon" class="cls-1" d="M158.5,269.12v-1h2.5l.5-1.5h2l5.5-2.5,1.5-.5,1.5-1,.5-.5,3,1.5v1.5l2-1v3.5l2.5-1.14,1.68,1.69,2.82.81.5,3h2.5v-1l1,.64-.5,1.86,5,3.5-1,1.5v3h-1.5l-.5,1-2-.5.5,1h-1v1.5l-1,.5-2,3.5-3,1.5h1.5l-1,1.5-2-1.5-1.5,2.5-2.5.5-2-2.5-1.5,3.5-1.5.5-12-6-2,.5-1.5,1.5-3-1.5-1-3.5,2.5,3,2.5-.5.5-1,1.5.5,1-2-2.5-.5,1-1.5-1-.5-1.5,1-1-1.5,3-3.5-.5-3,1-.5-1-1.5-2.5,1-.5-1,.53-3.62,3.98-1.24Z"/>
      <path data-code="urzhumskij_rajon" data-title="urzhumskij rajon" class="cls-1" d="M99,274.12l1.5,1.5,2-1v1.5l2-.5,2,2.5,2-.5v-1.5h1.5l.5-1.5h2l1.5-3.64-.5-1,1.5-.5,1,2.5.5-.5,2.5,1,1,3.5-1,3.5-1-.5.5,1.5-2.5-1v1.5l1,.5v-1.5l2,1,.5,2,1.5-.5,1,2,.5-.5,3,1.5-3,4.5,9,6.5-3,4.5.5.5-4.5,6-1,2.5-.5-.5-1,1.5v-.5l-3,1h1l-2.5,2-.5,3.14-.5-1-.5,2.86-.5.5-.5-1.5h-5l-2.5-2.5-4-.5-2-2,.5-1-2-1,1.5-2h1l-1-2,.5-1-2.5-.5-2-3-3.5-1-.5-1.5,1-1.5-.5-1v-1h2.5l.5-2.5-.5-2.5.5-.5v-2l1-.5h-2l.5-1-1-1.5-1,1-2-1.5-1.5.5v-4.36h1l3-3-2-2.5-.5-2,1-1,5.5,1.5Z"/>
      <path data-code="verkhnekamskij_rajon" data-title="verkhnekamskij rajon" class="cls-1" d="M250,137.99l10-5,6-5,6-4,4-.5,7,13.5,12.5,8.5,14.5,7,3.5-3.5.5.5,2.5,9.5-1.5,8-10,15.5-2.5,3-4-3-10,13.5-7,4.5-9-7,.5-1-9.5-6,2,3-1,3.5-9,10-2-2-1,1.5-5.5-3.5v1l-.5.5-.5-3,1-.5-6.5-5-1,3-2,2.5-7-5.5,6.5-9-2-1.5,4-5,1,2,2-.5v1.5l1.5.5,1.5-3-2.5-3,.5-3-2-1.5,1.5-2,7.5-29.5"/>
      <path data-code="verkhoshizhemskij_rajon" data-title="verkhoshizhemskij rajon" class="cls-1" d="M93.5,211.12l.38-2.68,3.61,2.55,1.5-2,5.5,3.5,5-7.5,4,2.5,4-1.5,2,3,1.5.5-1,1,.5.5-.5,1.5,2,2.5,3-.5,4.5,1-1,1.5,2,3.5-.5,1.64,1.5,1.5v2.86h-1l-2,2.64-1.5-.5-.5,1.86-3.5.5.5,2.5-.93,1.56-2.5-2.5-1.07,2.44h-3.5l-1,2-2.5.5v.5l-1,.5-2.5-1.5-1,.5-1-.5v-1.5l-3.5-.5,1.5-2.5-2-3.5-.5.5-1.5-2.5-.5.5v-2l-2.5-1-1.5-2.5-2,.5-.5-1.86h-1.5l1-1.5-1.5-1,.5-1.5-1.5-1.5,2-1.5-.5-1.5,1.5-1Z"/>
      <path data-code="vjatskie_poljany" data-title="vjatskie poljany" class="cls-1" d="M110.5,362.99l2.5-.5,1-1.5-.5-1,2-1v3.5l.5,1-2.5,1.5.5-2h-3.5"/>
      <path data-code="vjatskopoljanskij_rajon" data-title="vjatskopoljanskij rajon" class="cls-1" d="M107.5,357.99l4-1,.5-1.5-.5-.5.5-4,.96-1.87,2.55,3.01,5,2,2.5-1.5-1-2.5,2.5.36.5,2,3.5,2-2.5,2,.5,1.5-1,.5.5.5-2,2.5,1-1,1.5,1-.5,1,1,1-.5.5,1,1-2.5,3-2,1,.5,1,1-1h2l1.5,2.5h-2.5l-1.5,1.5h.5l-1,2.5-4,.5-1,1.5h-1l-.5-2-2-1,.5-3-2-2-3,.5,1-1-2-3,1-2,1.5-1h2l-.5,2,2.5-1.5-.5-1v-3.5l-2,1,.5,1-1,1.5-2.5.5-3-1.5.5-2-.5-1.5"/>
      <path data-code="zato_pervomajskij" data-title="zato pervomajskij" class="cls-1" d="M153,156.12l.5,1-.5,1-1.5-1,1.5-1Z"/>
      <path data-code="zuevskij_rajon" data-title="zuevskij rajon" class="cls-1" d="M174.5,216.49l.5-1-1.5-1,4,.5v1.5l1.5-1-.5,2h.5l2.5-1v-1l3.66-4.7,2.34,1.84v-1l.5-.5,1,.5v1l-.5.5,2.5,2,5-6.5,11.68,8.76-7.18,10.24.5,1-.5,1-3,.5-1,1-1.5-.5-.5,1.5-1.5,2,.5,1-5,2v3l.5,1.5-.5,1-.5-.5-2,1,1.5,1-1.5,1.5,1,2-4-.5-1.5,2-2,1,.5,1.5-.5,2-2.5-.5-2.5-2-1-3.5-3,1-.5,1.5-1.5,1-.5,1-4-1v-1l1-.5v-1l-1.82-1.14,1.32-.36-1.5-2.14.5-2,1.5-.5v-1.36l1-1-1.5-2,1-1,1-.5.5-2h1l1-2,1-.5v2h2.5l2,1,1-3,1.27-.42-2.27-2.08v1h-.5l-2-5.5-.5-2.5,1-2-.5-.5,1.5-1-1.5-.14.95-3.14,1.55.64Z"/>
    </g>
</svg>