<svg data-code="RU-KGN" xmlns="http://www.w3.org/2000/svg" viewBox="0 0 252.25 182.11">
    <g data-code="kurganskaja_oblast_" data-title="kurganskaja_oblast&amp;apos;">
      <path data-code="al_menevskij_rajon" data-title="al&amp;apos;menevskij_rajon" class="cls-1" d="M26.13,128.12l.5-1.5.5.5,2.5-3,1,1,3-4v-1.5l-2-1v-2l3-3,.5-2,.5-.5-1-1,1-2,2-1.5,5.5.5.5-1h1.5l3,6.5,6.5-1.5,7,.5,5.5-2.5v1h1.5l.5,3.5-1.5,1.5-.5,2.5-1,.5v2l3,.5,1,2h4l1.5-2,1.5.5,1,3-1,3-2-1.5-1,1.5.5.5-1.5,1.5,1,1-5,.5v1.5l-3,1.5v2l-1,1.5-3.5-4-6,2-6-.5-14.5-4.5-1-1-7.5.5-.5-1.5"/>
      <path data-code="belozerskij_rajon__kurganskaja_oblast_" data-title="belozerskij_rajon_(kurganskaja_oblast&amp;apos;)" class="cls-1" d="M131.63,76.62l2-.5,1-2.5-1-1,.5-1,3,2,.5-1-2-1.5,3.5-3,.5-1.5-1.5-2,2-5,5,2.5,4.5-9.5,7.5,1.5,7.5,4-1.5,3,.5.5-.5,1,2.5,4v1.5h-.5l.5,4.5,3.5,5.5-4,2.5-1.5,5,.5.5v1l3.5,1-.5,1.5,1.5,1.5-1.5.5-.5,2-1.5-.5-1.5.5-.5,1,1.5,1-.5,3-1.5.5-2-1-4,1v1.5l2,1.5-.5,1-3,1-1-2-7-3-1,.5v1l-1.5-1-3.5,1.5-3-6h-2l-.5-4,.5-4-3-3,1-1.5-2-3-.5-3"/>
      <path data-code="celinnyj_rajon__kurganskaja_oblast_" data-title="celinnyj_rajon_(kurganskaja_oblast&amp;apos;)" class="cls-1" d="M29.63,155.12l2.5.5-.5-3.5,1-1,1.5.5,1-2-1.5-1v-1.5l1-1.5,1-.5.5.5-.5,1,1.5,1v-1h1l1-2.5,2.5-.5-.5-.5,1-2-1.5-.5v-2l1.5-2.5v-4l13.5,3,6-2,3.5,4,1-1.5v-2l3.5,2-.5,1.5,3,2.5-.5,1.5,3.5,2-2,4,1,1-1,2,1,.5-1.5,2.5-.5-.5-1.5,2.5.5.5-1.5,2.5,3,3.5v5.5h-1.5l1.5,2-2,1.5h-3l-3.5-2.5-.5,1.5-2,.5v-.5l.5-1h-1.5l-1,1,.5,4.5-2.5,1-2-1-2-6h-18l1-4.5-1-1-2,1,.5-3.5.5-.5-1.5-.5v-1.5l-3-1-.5-1.5"/>
      <path data-code="chastoozerskij_rajon" data-title="chastoozerskij rajon" class="cls-1" d="M213.63,119.12l1.5-1.5-.5-1.5.5-1.5,3,1v2.5l2-2,4,2,3.5-.5,1,1.5-1,2,2,2.5,7.5-2.5,2.5.5.5.5-1,2.5.5.5-1,3-.5,3,4,2.5-1,4.5,3,3,1,4.5-.5,2h-3v-2l-1.5-.5-4.5.5-.5,2-6-.5-13.5-6-3-.5,1-3.5-1-11,1-7"/>
      <path data-code="dalmatovskij_rajon" data-title="dalmatovskij rajon" class="cls-1" d="M55.63,31.62l2-2.5h2v-1.5l3-4h1.5l.5-2.5h1l2.5-5.5,1,.5,2-3,3,1.5h1.5v-.5l-1.5-1v-1h-1.5v-2l2-1-2-3.5-4,1.5,2-3.5,4,2.5,2-2.5,2.5,1.5.5-1,4,4,1.5-1-.5,1,1.5-.5.5.5-.5.5,1,1,3,.5-.5,3,1,1.5-.5,1h.5l.5-2.5,2.5-2.5.5-2,2,1.5.5-1,1,.5,3,3-1,1.5,3,3.5h1.5l-.5,1.5.5,2-4.5,2.5h-1.5l-1,1h-2l2,4-.5,1h-6.5l-2-1-6.5.5v1l.5,1.5h-2l-2,1.5v.5l-1.5,2,1.5,1h-.5l.5,1-1.5,1.5-.5,1.5-1.5,1-1,2.5,1.5,1-.5,3.5-1,2.5,2.5,1.5-1.5,2-2-1-.5,2-2.5,1.5-.5,2-2,2-3.5,1v1.5l-4-1.5v-2h-1l1-2.5-1-1h-3l-3.5-3.5.5-3.5,4.5-3.5-.5-4.5,1-3.5,2-.5-1.5-3.5-2.5-2.5"/>
      <path data-code="gorodskoj_okrug_kurgan" data-title="gorodskoj okrug kurgan" class="cls-1" d="M126.63,106.12h1v-1.5l1.5-1,3.5.5,2.5-.5.5-1,1.5,1v1h-.5l2.5,2,.5,1-.5.5,1.5,1.5,5,4.5-1.5-1-2,1-.5,1.5h-1.5l-.5-1,1-1-1-.5-3.5,1-1-.5-2,1.5-1.5-1-1,1,.5,1-.5.5-.5,2h-.5v-4l-1.5-1-1,1.5h-1.5l-.5-1,2-2-.5-.5,1.5-.5h-1l1.5-3-2-2"/>
      <path data-code="gorodskoj_okrug_shadrinsk" data-title="gorodskoj okrug shadrinsk" class="cls-1" d="M86.63,43.76l1-1.5,1,1,.5-1v2l1,.5.5-1.5v.5h.5l-.5-3.5h2v-1.5h1v2l2.5,1.5,3-2v1.5l1.5,1h-2l-.5,1.5.5.5-1.5,1v1l-1-.5-.5,2-4-1-.5.5h1v1.5l-.5-1h-3.5v-1h1l-2-2.5-.5-1"/>
      <path data-code="jurgamyshskij_rajon" data-title="jurgamyshskij rajon" class="cls-1" d="M87.13,90.62l2-3,3.5-.5v-2l-1-1v-2l5-1,1.5-2.5,3,2.5.5-1.5h4.5l7.5,4-1,2,5,2.5-.5,1,4.5,2-.5,3h-6.5l-.5,2v5.5l1,1.5-1.5,5-2.5,2.5-.5,2-3.5,2-2,3.5v2.5l.5.5-3,6.5-2-1,.5-2-1.5-1-3,2-5-3,1-2v-1.5h-3l-5-2.5,1.5-1.5-.5-.5.5-4.5.5,1,2.5-3.5,1.5-.5,1,1.5,1-2.5,2,1,2-1-.5-2.5,1-1-1.5-.5,1-1-6-2.5.5-1.5-1.5-1,1.5-1.5-1-.5v-2l-3-1.5"/>
      <path data-code="kargapol_skij_rajon" data-title="kargapol&amp;apos;skij_rajon" class="cls-1" d="M90.13,79.12l3-4h1.5l-1.5-3.5,2.5-2.5-1-1,1.5-1.5-.5-1.5,1.5-1,1-3-.5-.5h1l1.5-2,4.5-4.5,7.5,2,1-.5,2.5,1.5,5.5-1.5.5-2,2,1-.5-1.5,2-1h3l.5,1,1.5-1.5,1,1-.5-.5,1-.5,3,3-1,1,1,1.5,5.5,2.5-2,5,1.5,3-.5.5-3,2,1.5,2.5-.5,1-3-2-.5,1,1,1-1,2.5-2,.5.5,3,2,3-1,1.5-5-1-1,1-.5-.5-.5,1.5-1.5-1,.5,2.5-.5,2.5-2.5-.5-.5,1v1.5l-4.5-2,.5-1-5-2.5,1-2-5.5-3-4.5-1h-2l-.5,1.5-3-2.5-1.5,2.5h-2l-2.5,1.5-1.5-.5-.5-3"/>
      <path data-code="katajskij_rajon" data-title="katajskij rajon" class="cls-1" d="M39.63,15.62l2-3,2,2.5,1.5-1.5,4-1.5-.5-.5,2.5-4.5,1.5-.5,2-2,1,1,1-1.5h.5l.5-1.5,5.5-2,2,.5.5,1.5-1,1-.5,3,1.5.5,1-1.5,1,1.5h2.5l2.5-1.5,2,3.5-2,1v2h1.5v1l1.5,1-4.5-1-2,3-1-.5-2.5,5.5h-1l-.5,2.5h-1.5l-3,4v1.5h-2l-2,2.5,2.5,2.5,1.5,3.5-2,.5-1,3.5.5,4.5-4.5,3.5v3l-3-1.5-4.5,2.5-3.5-4.5,1-1-.5-.5-3,1-1-3,.5-2,.5.5,1-2.5,1,.5,1.5-1v-1l-1.5-1.5-3-.5,2-6.5-2.5-5,2-1-2.5-2.5,2.5-5.5v-2"/>
      <path data-code="ketovskij_rajon" data-title="ketovskij rajon" class="cls-1" d="M105.13,118.12l2-3.5,3.5-2,.5-2,2.5-2.5,1.5-5-1-1.5v-5.5l.5-2h6.5l.5-4v-.5l.5-1,2.5.5.5-2.5-.5-2.5,1.5,1,.5-1.5.5.5,1-1,2,1,1.5-.5,4.5,3.5-.5,4,.5,4h2l2.5,5.5,1.5.5,2.5-1.5,1.5,1v-1l1-.5,7,3,1,1.5-1.5,3h-1.5l-1,1v.5l-1.5,3.5h-3l-1,2.5-5-4.5-1.5-1.5.5-.5-.5-1-2.5-2h.5v-1l-1.5-1-.5,1-2.5.5-3.5-.5-1.5,1v1.5h-1l2,2-1.5,3h1l-1.5.5.5.5-1.5,1v1l-.5-.5.5,1.5h1.5l1-1.5,1.5,1v4h.5l.5-2,.5-.5-.5-1,1-1,1.5,1,2-1.5,1,.5,3.5-1,1,.5-1,1,.5,1,3-1.5v5.5l1,3,1.5.5-.5.5.5,1.5-1,1,1,.5-.5,1.5.5,1.5-1,3.5-8-.5-1.5,3-1,1-3-3.5.5-1-1-1.5h-1.5l-2-4.5-3-2.5-.5-1.5-5,3-1,2,1.5,1.5-3,1.5v1.5l-1-1.5.5-2.5-8.5-3.5.5-2-2.5-1.5v-2.5"/>
      <path data-code="kurtamyshskij_rajon" data-title="kurtamyshskij rajon" class="cls-1" d="M66.13,133.62l1-1,2-.5v-1.5l5-.5-1-1,1.5-1.5-.5-.5,1-1.5,2,1.5,1-3.5-1-2.5-1.5-.5.5-1.5h2.5l3-4.5,5,3.5,6,1v1.5l-1,2,5,3,3-2,1.5,1-.5,2,1.5,1,3.5-6.5,2,1-.5,2,8.5,3.5-.5,2.5,1,2-1,2-1-.5-1,1-.5,1,.5.5-1,1v1.5l-2,.5-1,2.5,2,2.5-1,1,.5,1.5h-2l.5,1.5-2,2,.5.5v1l-1-.5v1.5l1,.5-.5.5.5,1h-1l-.5,1-4-3-4-.5-1.5,2.5-2.5-.5-1.5,1.5,1.5,1-.5.5-5.5,1-2,5-5-3.5-1,1.5,1,.5-3,3.5-2.5-.5,1,2-1.5,2.5.5,1-.5,1-3.5-1,1-1-1.5-2h1.5v-5.5l-3-3.5,1.5-2.5-.5-.5,1.5-2.5.5.5,1.5-2.5-1-.5,1-2-1-1,2-4-3.5-2,.5-1.5-1-.5.5-.5-5.5-5"/>
      <path data-code="lebjazh_evskij_rajon" data-title="lebjazh&amp;apos;evskij_rajon" class="cls-1" d="M153.63,136.12l2.5-5,1,1.5,1-2.5,1.5.5,1.5-1.5-1.5-2.5,5-2-.5-.5v-1l-1.5-4,2-1,1.5-3h2l.5-1.5-1-2.5.5-1.5,5-.5,2.5,4,3.5,1,.5,2.5,3.5,1,1,.5,1-3,4,.5-1,3.5h4l.5,1.5,2,.5,1,1.5-.5,2.5.5.5-2,3h-1l-1.5,2-1,4.5h-3l-2,2.5-1,3.5-2,.5-1.5,3.5,3.5,3-.5,1.5-2-.5-.5,1-5-1.5-.5,2,.5,1.5-1,3-1.5-.5-3,6-5-2-1-4-3,.5.5-2-2-.5.5-1-.5-1.5-7-2,1-1.5,3-6-3.5-4.5"/>
      <path data-code="makushinskij_rajon" data-title="makushinskij rajon" class="cls-1" d="M168.63,166.12l3.5-9.5h.5l1-2,1.5.5,1-3-.5-1.5.5-2,5,1.5.5-1,2,.5.5-1.5-3.5-3,1.5-3.5,2-.5,1-3.5,2-2.5h3l1-4.5,1.5-2h1l2.5-3.5,2-1-.5-.5.5-.5,1,1,2-1.5,8,4h1.5l2.5-2.5.5,13.5-1,4-2.5,5,1,.5-.5,3,1.5,2-2,2-2.5-1.5-1.5,1-1.5,4.5h.5l-.5,2,4.5,2v.5h-1l-.5,1.5-2.5-1.5-.5,1-3-1-2.5-3-3,2.5v1.5l-2.5,1.5-.5,1.5h-1v3.5h-1l-1,2.5-6.5-1-3,1.5-6.5-2-4.5.5,1.5-4.5-2.5-1"/>
      <path data-code="mishkinskij_rajon__kurganskaja_oblast_" data-title="mishkinskij_rajon_(kurganskaja_oblast&amp;apos;)" class="cls-1" d="M70.63,67.62l3-3.5,12,7.5,3.5-1,.5-3v-1.5l4,.5,2-1.5.5,1.5-1.5,1.5,1,1-2.5,2.5,1.5,3.5h-1.5l-3,4,.5,3h1.5l-.5,1,1,2v2l-3.5.5-2,3,3,1.5v2l1,.5-1.5,1.5,1.5,1-.5,1.5,6,2.5-1,1,1.5.5-1,1,.5,2.5-2,1-2-1-1,2.5-1-1.5-1.5.5-2.5,3.5-1-.5v4l.5.5-1,1.5h-.5l-3-2-3,4.5h-2.5l-2,3.5h-4.5l-.5-2-3-.5v-2l1-.5.5-2.5,1.5-1.5-1-5.5,2.5-1.5-1-.5,1-.5.5-2-.5-2.5h-4.5l1-3,2-3-3-3,1.5-3h2l1-3-2-2.5.5-2,3.5.5,1.5-3.5-2-1,2-4-3-2,1-2-1.5-1v-1"/>
      <path data-code="mokrousovskij_rajon" data-title="mokrousovskij rajon" class="cls-1" d="M173.13,97.62l1-1.5h.5v-2l9.5,2,2-5.5-1.5-.5.5-2.5,6.5-1,2.5-2h2l-.5,1,1,2-1,2,6,2v-1l2.5.5-.5,1.5,3.5,1v1l7.5,2-1.5,1-.5,2,1,3.5-1,.5.5,9.5h1.5v3l.5,1.5-1.5,1.5-.5,5-2.5,2.5h-1.5l-8-4-2,1.5-1-1-.5.5.5.5-2.5,1.5-.5-.5.5-2.5-1-1.5-2-.5-.5-1.5h-4l1-3.5-4-.5-1,3-4.5-1.5-.5-2.5-3.5-1-2.5-4-.5-5,.5-3.5,1-1.5-1-1.5"/>
      <path data-code="petukhovskij_rajon" data-title="petukhovskij rajon" class="cls-1" d="M191.62,167.49l4-3,.5-2,3-3,2.5,3.5,3,1,.5-1,2.5,1.5.5-1.5h1l-.5-1.5-4.5-1,1-2-.5-.5,1.5-4.5,1.5-1,2.5,2,2-2.5-1.5-1.5.5-3.5h-1l2.5-6h3l13.5,6,6,.5.5-1.5,4.5-.5,1.5.5v2l3-.5.5-1.5,4,.5v1l2,2.5-.5,2,1,2-1,.5v1l-1,1.5-2.5,1-.5,1.5,1,.5-1,1.5-1.5.5-.5-.5.5-1h-6l-3-1.5-.5,1.5-1.5-1v-1l-2.5.5-2-1.5-.5,1.5h1v2h-1l1.5,3v2l1.5,1-3.5,1-.5,2.5-2,1,1,2-7.5-1-4-3.5h-3.5l-3.5,5-8,.5-1.5-1.5-7.5-3,.5-1-.5-1.5"/>
      <path data-code="polovinskij_rajon" data-title="polovinskij rajon" class="cls-1" d="M122.12,163.49l4.5-2.5,1-1.5v-2.5h1l.5-2.5.5-1-1.5-2,1-2,5.5,1-.5-4v-4l-1-3,3-6.5h2l2.5,6.5,2.5-2,4,2-1.5,3.5,2,1.5,3,1.5,2.5-5,3,1.5-2,4.5-1,1,7,2,.5,1.5-.5,1,2,1-.5,2,2.5-.5,1.5,3.5,4.5,2.5-2,5,3,1-1.5,5-1,.5-3-1.5h-9.5l-16.5.5-1-1.5,2.5-5h-5l-2.5,3.5-2.5,1-9-6"/>
      <path data-code="pritobol_nyj_rajon" data-title="pritobol&amp;apos;nyj_rajon" class="cls-1" d="M100.12,157.99h1.5l.5-1h1.5l4-2.5-1-1h1l-1-1v-1l.5.5.5-1.5-.5-.5,2-1.5-.5-1.5h1.5v-1.5l1-1.5-2-2,1-3,2-.5v-1l1-1-.5-.5,1.5-2.5,1,.5,1-2v-1.5l3-2-1.5-1,1-2,5-3,.5,1.5,3,2.5,2,4.5,1-.5,1.5,1.5-.5,1,3,4-1,2.5,1,2.5v5l.5,2.5v1l-5.5-1-1,2,1.5,2-.5,1-.5,2.5h-1v2.5l-1,1.5-5.5,3-1,1,1,2.5-.5,1.5-5-2-4,1-5.5-2,1-3-5-2-2-2v-1"/>
      <path data-code="safakulevskij_rajon" data-title="safakulevskij rajon" class="cls-1" d="M6.62,94.49l3.5,2h3l.5,3.5,3-4.5h2l-.5-.5,1-1.5,3-.5,2.5.5,1-1,2,1-.5,1,1.5,2,2,.5-1,4.5,2,.5-1,3,1.5.5,1.5-4.5h2.5l1.5,2-.5,3.5.5.5-2,1.5-1,2,1,.5-1.5,3-2.5,2.5v2.5l2,.5v1.5l-3,4-1-1-2.5,3.5-.5-.5v3l-5,.5.5-3-1-.5-1,2-2.5-2,1-1.5-1-1,2.5-1v-1.5l-5.5-1.5-1,.5-.5,2h-3l-3-1.5.5-1-3-.5-.5,1-2.5-1.5,1.5-3-2.5-1.5,2-2,3.5-1,1-3-.5-4.5-1.5-1,1-5.5.5-3.5"/>
      <path data-code="shadrinskij_rajon" data-title="shadrinskij rajon" class="cls-1" d="M86.62,43.49v1.5l2.5,2h-1v1.5h3.5l.5,1-.5-1.5h-.5l.5-.5,4,1,.5-2,1,.5v-1l1.5-1.5h-.5l.5-2,2,.5-1.5-1.5v-1l-3,1.5-2.5-1.5v-1.5h-1v1l-2,.5.5,3-.5-.5-.5,1.5-1-.5v-2l-.5,1-1-.5-1,1M65.12,64.49l1.5-1.5v-1.5l2.5-2,.5-2.5,2.5-1.5.5-1.5,2,1,1.5-2-3-1.5,1.5-2.5.5-4-1.5-1,1-2,1.5-1,.5-1.5,1.5-1.5-.5-1,.5-.5-1.5-.5,1.5-2v-.5l2-1.5h2l-.5-1.5v-1.5l6.5-.5,2,1.5h6l1-1.5-2-3.5h1.5l1.5-1.5,4.5-1,1-1.5v-1.5h.5l1.5,3,5.5,3,1.5-1.5,1,.5-1,1,4.5,2.5,2-1.5,1-2,2.5.5,2,6-6-.5-3,6h-1l2.5,3-2,3,1,2.5-1.5.5h1l1,1,1-1-.5,2-.5-.5.5,1.5-1,1.5v4l-1.5,2-2.5.5-2.5-1.5-6-.5-3.5,4.5-.5-.5-1,2.5h-1l.5.5-1,2.5-2,2-.5-.5-1,1.5-4.5-1,.5,2-.5,3-3.5.5-12-7.5-2,2-1,2-4-2-1,.5-.5-2"/>
      <path data-code="shatrovskij_rajon" data-title="shatrovskij rajon" class="cls-1" d="M119.12,21.49l2-2,4-.5.5-2,1.5.5,1-2-1.5-2,1.5-.5-1-1.5,2-1.5,5.5,3,3-3.5,2,1.5,3-.5,2.5,1h2l1-1,1.5,1-.5,1.5-1,1,1.5,1,.5,2-.5,1.5,1,2-1,2,.5.5-1.5,2,2,1-.5,2-2-.5.5,2-1,1-.5,1.5.5.5-1.5,1v1l.5,3,1.5,2.5-.5,2,1,.5-.5,2.5,2.5,1.5-.5,1.5h-.5l-4-1,.5,2,3.5,4-4.5,9-10.5-5-1-1,.5-1-2.5-3.5-1,.5.5.5-1-.5-1.5,1-.5-.5h-3.5l-1.5,1,.5,1.5-2-1-.5,2-2,.5h-5l2-2.5v-4l1-1.5-.5-1.5.5.5.5-2-1,1-1-1h-1l1.5-.5-1-2.5,2-3-2.5-3h1l3-6,6,.5-1-5-1-1-2.5-.5.5-1-1.5-2"/>
      <path data-code="shhuchanskij_rajon" data-title="shhuchanskij rajon" class="cls-1" d="M15.12,80.49l1.5-2.5,3.5.5,1.5-2,2,1.5.5-1.5-1.5-3.5,2-3,3,2.5-.5,2h7v-2.5l6.5,1v-3l-.5-3-3-1,.5-1.5,2,.5,1-2.5.5.5,1-1.5v-1l-.5-1.5,1.5-1.5-.5-1.5,1.5-3,.5.5,5-2,4.5,3.5,1.5,3.5,2.5,1.5-2.5,3.5,2,1-1,1.5-3-2.5h-1.5l-2.5-3v2l.5,1.5-1-.5-1.5,2.5,3.5,2-1,1,2,1-1,2.5,2,3-4.5,2-1.5,2,1,1.5h-1.5l2,3,1,4-2.5,2,5,3v2.5h-2l-.5,1-3.5-.5-1.5,2,2.5,3-2,5.5-1.5-.5-.5,1.5-5.5-.5-.5-.5.5-3.5-1.5-2h-2.5l-1.5,4.5-1.5-.5,1-3-2-.5,1-4.5-2-.5-1.5-2,.5-1-2-1-1,1-6.5-.5v-4.5l1.5-2-1.5-.5v-2l-3-3.5"/>
      <path data-code="shumikhinskij_rajon" data-title="shumikhinskij rajon" class="cls-1" d="M49.62,60.99h1.5l1,2.5h1.5l3,2.5,1-1.5-2-1,2.5-3.5-2.5-1.5v-1.5l3-.5,1,1.5-1,2,1,.5v2l3.5,1.5.5-2,3-.5v1.5l-1.5,1.5.5,2,1-.5,4,2v1l1.5,1-1,2,3,2-2,4,2,1-1.5,3h-3.5l-.5,1.5,2,3-1,3h-2l-2,3,3.5,3-2,2.5-1,3.5,4.5-.5v4.5l-1,.5.5.5-2,2,.5,2h-2l.5-1-5.5,2-7-.5-6.5,2-3-6.5,2-5.5-2.5-3,1.5-2,3.5.5.5-1h2v-2.5l-5-3,2.5-2-1-4-2-3h1.5l-1-1.5,1.5-2,4.5-2-2-3,1-2.5-2-1,1-1-3.5-2,1.5-2.5,1,.5-.5-3"/>
      <path data-code="vargashinskij_rajon" data-title="vargashinskij rajon" class="cls-1" d="M143.12,113.99h2.5l1-2.5,2.5.5,2-3.5-.5-1,1.5-1,1.5.5.5-2,1.5-1.5,2-.5.5-.5-1.5-1.5v-2l7.5-.5.5-2.5-1.5-1,.5-1,1.5-1,1.5.5.5-1.5,1-.5-1-2,.5-1.5-3.5-1v-1h-.5l1.5-5.5.5.5,1-1.5,2-1,1.5,2,4-1.5,2.5-2,3.5,1.5,4,6.5.5,3-.5,2.5,2,.5-2,5-9.5-1.5-.5,2h-.5l-.5,1.5,1,1-1.5,1.5v3.5l.5,5.5-5,.5-.5,1,1,3-.5,1.5h-2l-1.5,2.5-2,1.5,1.5,3.5-.5,1.5h1l-5,2.5,1.5,2-2,2-1-.5-1,2-1-1-2.5,5,3,4-.5,2-3-1.5-2.5,5-5-3,1.5-3.5-4-2-2.5,2-2-4.5-.5-2,4.5.5h2l.5-1,.5-5.5-1-1,1-.5v-1.5l-2.5-4v-6"/>
      <path data-code="zverinogolovskij_rajon" data-title="zverinogolovskij rajon" class="cls-1" d="M75.62,164.99l2.5.5,3-4-1.5-.5,1-1,5.5,3.5,2-5,5.5-1,.5-1-1.5-.5,1.5-1.5,2.5.5,1.5-3,4,1,3.5,2.5-2,1.5h-1.5l-.5,1h-1l-.5,1,7,4-1,3,3.5,1.5v3l-2,2.5-.5,6,.5,1-2,1.5-1-1h-3l-3-8-9.5,2-3-1.5-.5-3-3,2-3-1.5-1,.5.5.5-1,1h-1.5l-1.5-1.5.5-1-1-.5,2-2.5-1-2"/>
    </g>
</svg>