<svg data-code="_RU-MOWS"  xmlns="http://www.w3.org/2000/svg" viewBox="0 0 59.75 50.25">
    <path data-code="moskva" class="cls-1" d="M20.56,11.76l1-.5.5.5.5-.5,1.5.5-.5.5v.5l.5-.5v1l1,.5-.5,2,3,1-1-.5-.5-.5h1.5v1.5l-1,.5-1-1.5-1,.5-2-1v-.5l1,1-1-2.5.5.5,1-.5-2-.5v-.5l1-1-1.5.5-.5.5-.5-1M41.62,2.12l1,2.5-1,1.5-1-2-1,1-.5,1-1-2,1.5-2.5V.62l2,1.5ZM52.62,27.12h1l.5,1h-1.5v-1M6.12,26.12l3-4,3.5,2,.5.5-1,1,1.5,1-2,2,1,2,1.5-1,.5.5v2l1.5,1.5-.5-3,2,1v-1.5l1.5-1-.5-.5,1.5-2,.5-3,.5-.5,5,2,1.5-1,2,1,1-.5,3,2v-.5l1-1v-2l1-2,1.5-2.5-1.5.5-.5-.5,2-1,.5,1,1-1-.5-.5.5.5,1-1-1.5-.5,1-1-.5-.5,1-1,1,.5-.5.5.5.5,1.5-.5-1-1.5.5-1,1.5-1-1-1.5h1v-1.5l2.5,2.5-3,1.5v2.5l4.5.5,1-2h2l-2.5,2.5,4.5,5,.5,6-1.5,3-1.5,1.5,1.5,1h-1.5v1l2,.5.5,2-1.5.5-.5,1.5-1-1v-.5h1.5l-.5-1.5-2-.5-1,1-.5-.5-1,1.5-5.5,1.5h-2l-3-2-2.5,2.5.5,1.5-1,1-1.5-1-2.5,1.5-.5,1-1-1.5,1-.5-.5-2.5-2.5-.5-1.5,1,1.5,4-.5,1-1,1.5-.5-1.5-1,.5v1l-2,.5v1.5l-1.5-1v2l-2,2-2.5-.5-1.5.5.5-3-1,1-1-2h-2.5l-2.5,4h-1.5l-3.5-1.5v-1.5l1-1.5-1-.5,1-4.5,1.5-1,3,.5-.5-1,.5-1.5-1-6.5v-1h1v-3.5M59.12,15.12l-.5.5v-.5h.5ZM29.12,24.12l.5.5h-.5v-.5"/>
  </g>
</svg>