<svg data-code="_Слой_2" xmlns="http://www.w3.org/2000/svg" viewBox="0 0 819.25 593.11">
    <g data-code="khanty-mansijskij_avtonomnyj_okrug_-_jugra" data-title="khanty-mansijskij avtonomnyj okrug - jugra">
      <path data-code="belojarskij_rajon" data-title="belojarskij rajon" class="cls-1" d="M210.62,175.12l3.5-3,1-4.5,1-2-.5-3.5,2-1,1.5,1,.5-1,2.5-.5.5-2-.5-1,1-2h4l.5-3,3.5-3,1.5-.5.5-1.5h3l1-1.5v-2l1-1-.5-1.5,1-.5v-1.5l2.5-2,.5-1-1.5-.5,1-5.5,5.5-2,1-3v-6l-1.5-1.5-.5-2.5-1.5-2.5,7.5,2.5,2.5-1,6,1,6,6.5,7.5.5,6.5,5v2.5l-1.5.5,1,1.5-1,2-1.5.5-1,2-3,2v1l-1.5,2,.5.5-2,5,2.5,1.5v1l2,.5,3,3,2,.5-1.5,2.5,3,1.5-1.5,2,.5.5,3-.5,2.5,2h2l1,1.5,3,.5,2,4.5,6-3,.5-1.5,6.5-1,2-1,1.5-2,8.5-3.5,3,1,5.5,6,3.5,1.5.5-1,.5-2,5-3.5-2-1.5-1.5-7,8.5,1,4-.5,2.5,7.5,9.5,2,2,3.5v1.5l1.5,1.5,5.5,1.5,3-.5,3.5.5,3,8,6,2,2,4-1.5,5.5-8,5,1,3.5,1.5,2.5-.5,4,2.5,5,.5,9,15.5,5.5v1.5l1.5,7-2.5,6.5-2,20-4,2-5-.5-3-1.5-4.5-5.5-10-2-9-.5-5.5-3.5-16,5-29.5,6-4.5,4-3.5-2.5-1.5-4,.5-2.5-2-1v-2l1-1,.5-1.5-1.5-1-1,.5-.5,1.5-2.5-1-3,1.5-4-2-2,1-1,1.5.5,3.5-4-.5-2.5,2.5-3-1-4,1-1,.5v1.5l-.5,1.5-6,.5-.5-1.5-5-2v-2.5l-4,.5-4.5-4-6.5-1.5v-2l1-.5-.5-1-1.5-1-2.5.5-3.5-4-1-.5-1.5,1.5-4.5-4v-1.5l-1.5-.5,2-3,3-.5-.5-3-2.5-4,1-1.5,2.5,1,.5-1.5,1.5-.5-.5-1-5-2-1-2.5-.5-3.5-2-1.5.5-3-1.5-1.5-4-1.5.5-1,1-.5.5-3.5,5.5-1-.5-1.5-3.5-2.5-1.5-3.5-7.5-7.5-2-.5v-3.5l1.5-1.5v-1l-1-1"/>
      <path data-code="berjozovskij_rajon" data-title="berjozovskij rajon" class="cls-1" d="M21.12,145.12l2.5-3v-1l3.5-1,.5-4,1.5-.5-.5-1,2-2.5h1l.5-5,1-1.5,2-1-1.5-1.5,3-1.5,2-3.5,2-1,1-2.5,1-.5,2.5-5v-.5l3.5-4.5v-.5l1-1.5.5-1.5.5-.5.5-2,3-3v-1.5l.5-1.5,6-2,2.5-2v-1l1-1.5,3-2v-2l1-1.5-3.5-2.5v-2l-.5-2,.5-1-1-2.5,3-4,.5-1.5h1l1.5-2-.5-1,.5-1.5,1.5-1.5v-1l-.5-2.5.5-1-3.5-1.5,3.5-2,2-3,2.5-2v-1.5l3.5,1.5,1-1v-2l-1.5-1-.5-2,.5-1,.5-1.5h1v-2.5l1,.5,2-1v-1h1l1-1.5,3-1.5,1,1.5,1-.5v-1l.5-.5,3.5.5,2.5-2,.5-3.5,3.5-.5,1,.5,2-1,5.5,3v2l-1,1-.5,1,1,1.5.5,1.5,1.5,2.5v1.5l3,1,1.5-1,1-1.5-.5-1h1l2-2,3.5,2,2.5-3h3l1-1v-1.5l1.5-2,1.5-.5,4,2,1-2v-1h1l2-1.5v-.5l.5-1.5-1.5-.5.5-2.5.5-1,5-2.5,2.5-3,7.5-6,1,.5,2.5-1-.5-1.5,4.5-1,.5-2,1.5.5v-1.5l3,.5,1.5-1,1.5,1.5,1.5,4-.5,1,3,1.5v3.5l-1.5,3.5,2.5,3.5-3.5,4,.5,7,10,7-3.5,5.5-3.5,9.5-5,7h-.5l-2.5,3.5,2.5,3.5-.5,3.5-1,.5-1,3-3.5,2.5-5,1.5v1l-3,4,3,5.5,4,1,1,3,5-1.5,5.5,1.5,3,5.5,2.5,1-1.5,6.5-3.5,1,1.5,4,3,.5-.5,2,9,1.5,3-2.5,2.5-.5,13,3.5,5-3.5,3,2,8.5-.5,5.5,2,7.5-4,8.5,3,1.5,2.5.5,2.5,1.5,1.5v6l-1,3-5.5,2-1,5.5,1.5.5-.5,1-2.5,2v1.5l-1,.5.5,1.5-1,1v2l-1,1.5h-3l-.5,1.5-1.5.5-3.5,3-.5,3h-4l-1,2,.5,1-.5,2-2.5.5-.5,1-1.5-1-2,1,.5,3.5-1,2-1,4.5-3.5,3,1,1v1l-1.5,1.5v2.5l-.5,1.5-10.5,4-5.5-1.5-4,4v2l-10.5,13.5,1,5.5-4.5,13v11.5l-2,8-6.5,2-.5,4.5,3.5,7.5-3,2-4.5-1.5-.5,3-3,1-.5-3-1.5-1.5-2,1-1-3-3-1.5.5-2-6.5-3h-1l-.5,2-4.5-.5-1.5,1-25.5-7.5-10.5-1.5-3-6-2-1.5-4,2.5-6,1,.5-1.5-2.5-4-7-2-2.5,2.5h-2.5l-3,2-1.5-.5v1.5l-7.5-1.5,1,3-1.5,1,1.5,2h-3l-3.5,1.5v2l-1,.5-4.5-4-4,3-9,.5,2,2.5-.5,2-1.5,3.5-11-7-16-5-.5-3,1-1.5v-1l1-2.5,1.5-1,1-2-6.5-6-3-.5-.5-2-2.5-.5-.5-1,.5-3.5-.5-.5,1-3.5.5-.5,1-2-1-1.5,1.5-3,2-1.5,2-3,2-1,.5-1.5v-1.5l1.5-1h2l.5-1.5,1.5-.5,1-2.5-.5-1,1-1.5,4-6.5-2.5-.5-3-2.5,2-2.5-.5-2.5,1-1.5-.5-1,1-2-.5-2,.5-1-.5-1,2,.5,1-1,3-6.5,1-1-.5-3-2.5-1.5v-2.5l-1.5-1.5.5-3"/>
      <path data-code="gorod_jugorsk" data-title="gorod jugorsk" class="cls-1" d="M91.12,305.62l2-1,1-3,2.5,1,1-2.5,2.5-4,1.5-.5,4.5,1.5-3.5,10.5,2.5.5-2,7-5.5-2,2-7-5.5,1-3-.5v-1"/>
      <path data-code="gorod_khanty-mansijsk" data-title="gorod khanty-mansijsk" class="cls-1" d="M269.12,377.62l5.5-1.5,3.5,3,2-2,1,2.5v2.5l2,.5.5,3-.5,1-3.5-1-1,2-.5.5-2.5-.5-1.5,2.5-1.5-.5.5-1h-.5l-1.5,1-3-3,.5-4,1-2-.5-3"/>
      <path data-code="gorod_langepas" data-title="gorod langepas" class="cls-1" d="M465.62,414.12l1.5-.5-.5-1,2.5,1,.5-1,2-.5,1.5,2-.5,2v.5l.5.5h-.5v-1l-1,1.5h-2.5l-.5-2.5-2,.5-1-1.5"/>
      <path data-code="gorod_megion" data-title="gorod megion" class="cls-1" d="M492.62,426.12h2l4,6,4,1v1.5l-5,2-1,1h-5v-2.5l1-.5h3.5l1-1-.5-2.5-2-.5-.5-2-1.5-2.5"/>
      <path data-code="gorod_neftejugansk" data-title="gorod neftejugansk" class="cls-1" d="M378.12,411.62l3-5.5,1-3,6.5,2,3,3v1l-.5,1-3.5-.5-3,.5-.5-2.5-1,.5-.5,1,1,1.5-1,2.5h-.5l-.5-1.5-1,1-2.5-1"/>
      <path data-code="gorod_nizhnevartovsk" data-title="gorod nizhnevartovsk" class="cls-1" d="M502.62,442.62l1-1v-.5l.5-1,1.5-1,8.5,4.5,1.5,4.5v3.5l-3,2.5-2.5-4.5-5,.5-2-2v-1.5l3-1,.5-1.5-4-1.5"/>
      <path data-code="gorod_pokachi" data-title="gorod pokachi" class="cls-1" d="M483.12,383.62l6.5.5,1.5-1.5,1,2.5-.5,1h-1.5l-.5,1-.5,3-.5-3.5-1.5-1.5h-4v-1.5"/>
      <path data-code="gorod_pyt_-jakh" data-title="gorod_pyt&amp;apos;-jakh" class="cls-1" d="M383.62,429.62l5,1,.5,1-1,3,.5,2.5-2.5,2.5-1-1,1.5-3-2-1-1-5"/>
      <path data-code="gorod_raduzhnyj" data-title="gorod raduzhnyj" class="cls-1" d="M547.62,368.62l2-2.5,1-4,2,.5v3.5l1-2.5h1l-.5,3.5h2l4-7.5,1-.5-1,4-2,3.5-2,7.5-2-.5-1.5-3-5-.5v-1.5"/>
      <path data-code="gorod_surgut" data-title="gorod surgut" class="cls-1" d="M408.62,397.62l.5-1.5,3.5-1.5,5,.5,1,2,4,1,2.5-.5,1.5-1.5,1,1.5-4,4,.5,1-1.5,1,.5,1.5-.5,1.5-5.5-2.5h-5.5l-3-3,1.5-.5v-1l-2-.5h.5l.5-1.5h-.5"/>
      <path data-code="gorod_uraj" data-title="gorod uraj" class="cls-1" d="M110.62,398.62l1.5.5.5-1.5,2.5,1,.5-1.5-1.5-2.5.5-1,1-1,7,2h7l-5,15-16-5.5,2-5.5"/>
      <path data-code="gorodskoj_okrug_njagan_" data-title="gorodskoj_okrug_njagan&amp;apos;" class="cls-1" d="M173.62,274.12l11-6,1.5-3.5,2.5-2.5,6,3,3.5-.5.5,1.5-2,2v1l-1.5,1-.5,1.5,1,3v1l1,.5-2.5,6,1,.5-1.5,5.5-8.5-3,.5-1.5-13.5-5,1.5-4.5"/>
      <path data-code="khanty-mansijskij_rajon" data-title="khanty-mansijskij rajon" class="cls-1" d="M269.12,377.62l.5,3-1,2-.5,4,3,3,1.5-1h.5l-.5,1,1.5.5,1.5-2.5,2.5.5.5-.5,1-2,3.5,1,.5-1-.5-3-2-.5v-2.5l-1-2.5-2,2-3.5-3-5.5,1.5M187.12,336.12l4-5,4-2.5,4,5-1,5,4.5,4,3-.5,23-7,6-3,1-1.5,4-.5.5-1.5,14-4,.5-1.5-.5-1.5,2-3-4.5-4,.5-3.5,1-1-1.5-4.5v-1l3-1v-2.5h.5l.5-1.5-.5-1.5-2-1-.5-4-2-1-.5-2.5-1-1.5-3,1-1.5-1-.5-1.5.5-1.5v-3l-2.5-2-2,.5v-1l3-.5,2.5-1.5-1-2,2-.5v-2.5l1-.5-.5-2.5,1-1.5-1.5-3,.5-2.5h1l4.5,3,1-3v-3l-2.5-1,1-1,.5-1,1.5-1,.5-2,5,2,.5,1.5,2,.5v-1l2.5.5,1.5-.5.5-1.5v-1.5l1-.5,4-1,3,1,2.5-2.5,4,.5-.5-3.5,1-1.5,2-1,4,2,3-1.5,2.5,1,.5-1.5,1-.5,1.5,1-.5,1.5-1,1v2l2,1-.5,2.5,1.5,4-.5,4.5,5.5,16.5,3,1.5,1.5,6,1,14.5-2,9.5,4,6,11.5,3.5,5,5.5-1,7.5,5.5,9.5v7l6.5,25.5-7,8.5,5.5,6.5-1,3.5-1.5.5,2,3.5-2.5,1-.5-1.5-13.5,13-19,4.5-4.5,21-5.5,9,8.5,6,1,9,2,5.5,1,7,1.5,2h-11.5l-1-2.5-2-1v-2.5l-1.5-2.5-2-1.5-3.5-.5-1.5,1-11.5-2,.5-4.5-11-4.5-5.5,1.5,1-2.5,4.5-3.5,4,1,6-8,7.5-7,1-3-5-1.5,12-9-2-3.5-1.5,1v-4l-2-2-15,5-7-4.5-9-2.5-5.5,14.5-4,5.5-4.5,2h-19l-13-1.5-2-4,12-30-4.5-1.5-.5-2.5-1.5,1-3.5-1.5-4,1.5-11-7,6.5-14.5-7-28-1-2,1.5-6.5"/>
      <path data-code="kogalymskij_gorodskoj_okrug" data-title="kogalymskij gorodskoj okrug" class="cls-1" d="M460.62,335.12l2-1.5,1,1.5,3,.5,3-2,5.5,1v-1l.5-.5,1.5.5-1,1.5v1l-.5,1v1.5l-2-.5.5-.5-.5-.5,1-1-.5-.5-3.5.5-1-1.5-3.5,2v3.5l1,2h-.5l-1,3-.5,1-1,2.5-3-2.5.5-6,.5-.5-.5-1.5.5-.5-1.5-2.5"/>
      <path data-code="kondinskij_rajon" data-title="kondinskij rajon" class="cls-1" d="M110.62,398.62l-2,5.5,16,5.5,5-15h-7l-7-2-1,1-.5,1,1.5,2.5-.5,1.5-2.5-1-.5,1.5-1.5-.5M72.12,357.12l33.5-2,34-6,18-9.5,29.5-3.5-1.5,6.5,1,2,7,28-6.5,14.5,11,7,4-1.5,3.5,1.5,1.5-1,.5,2.5,4.5,1.5-12,30,2,4,13,1.5h19l4.5-2,4-5.5,5.5-14.5,9,2.5,7,4.5,15-5,2,2v4l1.5-1,2,3.5-12,9,5,1.5-1,3-7.5,7-6,8-4-1-4.5,3.5-1,2.5-2.5,2.5,2,2,3.5,7.5-.5,1.5-23,8.5-4.5-3-6,10-5.5,7.5-5.5,2.5-6,1-12.5-3-3,1-2.5,4-12,2.5-10,3.5-2-3.5-7.5,1-5,18h-12l-4,.5-12.5-6.5-9-6-4-19.5,2-8.5.5-13-3.5-2,.5-1-.5-2,.5-4-17-10.5-15-5.5-3-7,5-19.5,1-4,.5-22,1-1v-1.5h-2.5l-9-10.5,3-4-1-13.5"/>
      <path data-code="neftejuganskij_rajon" data-title="neftejuganskij rajon" class="cls-1" d="M383.62,429.99l.5,5,2.5,1-1.5,3,1,.5,2.5-2-1-2.5,1.5-3-.5-1-5-1M378.12,411.99l2,1,1.5-1,.5,1.5h.5l1-2.5-1-1.5.5-1.5h1l.5,2.5,3-1,3.5.5.5-.5v-1.5l-3-2.5-7-2-.5,3-3,5.5M290.12,444.49l5.5-9,4.5-21.5,19-4,13.5-13,.5,1,2.5-.5-2.5-3.5,1.5-1,1.5,2,1.5-.5,1.5-1.5,2,2,3.5-1.5,3.5,3.5,1-.5,7,4.5-.5,1.5.5.5,4.5,1,4-1v-1.5h2v-1l2,1.5,1-.5,1.5-2.5h2.5l-1.5-1.5,4.5,2,1.5-1h3l.5-1.5,2.5-2,1.5,3.5,2.5,3v1.5l1-1.5,2,.5-.5,1.5h1.5l.5-1.5h1.5l.5,1,2.5-.5,1.5,2.5,2-.5,1,1.5,2-1,.5,1,.5-3h3.5l-.5,2.5h-1.5l-2.5,9,6,1.5,1,1.5-1,1-.5,1.5-1,1.5-4.5.5-1-1.5-3,.5v2.5l2,.5-1.5,1.5h-1v4.5l1.5,4.5-1,2,.5,2-1,3.5,2.5.5-1.5,3h1.5l-8.5,18.5,1,.5-2.5,9-1.5-.5-3,7.5-8-3.5-3,7,2,.5-6,22-2.5-.5-3.5,12.5-2-.5-1,7-17-3.5-4-12.5-1.5-1.5-5.5-2-.5-1,.5-3.5-1-1.5-7-5.5-.5-4-7-5.5-.5-8.5-7.5,4-9-8.5-1-6.5-2-5.5-1-9-8.5-6"/>
      <path data-code="nizhnevartovskij_rajon" data-title="nizhnevartovskij rajon" class="cls-1" d="M483.12,383.49v2h4l1.5,1.5v3l1-3,.5-1,1.5.5.5-1.5-1-2-2,1.5-6-1M492.62,426.49l1.5,2.5.5,2,2,.5.5,2.5-1,1-3.5-.5-1,1v2.5h5l1-1,5-2v-1.5l-4-1-4-6.5-2,.5M547.62,368.49v2h5l1,3.5h2.5l2-7,2-3.5,1-4-1,.5-4,7.5-2.5-.5,1-3h-1l-1,2.5v-4h-2l-1.5,3.5-1.5,2.5M502.62,442.99l4,1.5-.5,1-3,1.5v1.5l2,2,5-1,2.5,5,3-2.5-.5-3,.5-1-1.5-4.5-8.5-4-2,1v1.5l-1,1M443.12,435.49l8.5,1.5,1-2,8,1.5.5-2,5,1,.5-3-1.5-.5.5-2,3.5,1-.5-2,2-1.5v-4l.5-1.5h-1v-2l-1.5-.5.5-2,2.5.5,1-1.5v.5-.5l.5-2.5-1.5-1.5-2,.5-.5,1-2.5-1,.5.5h-2.5l2-1.5.5-2.5-4.5,4-2-2-2.5-.5,2.5-1.5h-1.5l1-3-1-.5,1-4.5,1.5-.5-1.5-2,.5-2-3.5-.5,1-3,2.5.5,2-10,1.5.5,5.5-25,37.5,8,2.5-10,15.5,3.5,11.5-56.5,5.5-2,5,4.5,5,2,1.5,12,6,8.5,13.5,12,5.5,9,1.5-1.5,9.5-3.5,3.5,1,7-2,22.5,3,3,1.5,9,1,3.5-7.5v-3.5l1.5-1.5,1.5-1,4,.5,13-8.5.5-1.5,2.5.5,1.5-1.5.5-4.5,3-2.5,8-1.5,3.5,1-.5,6,1,4,3,6,3,2-1.5,3.5,2.5,3.5,7.5,3.5v3.5l2.5,2,3,1,3.5-3,7.5-3.5,3.5,4h5.5l9,3-1,6,8.5,6.5-1.5,4,9,6,7.5-4,.5,2h1.5l7-4,3.5,6.5,1,5.5,2.5,2.5,4.5.5,1.5,4-.5,4,3.5,3,1,9.5-.5,4.5,1,3-.5,4.5,2.5,4.5.5,2.5,1,2,5,3,2.5-1,5.5,3.5,5,6,4.5-.5,2,5,7,4,4-1,3.5,3.5v4.5l-.5,1.5h-5.5l-5.5,5.5,1.5,4-.5,2-33,15.5-2.5.5-14,8.5-10.5.5-14-16-10-.5-28.5,19v7l-9,5-8-9.5-9.5-1.5-4.5,1.5-11.5-4-.5-4v-4.5l-10.5-5-2.5,2-8,.5-7.5,4-8.5-1-9-3-9.5,2.5v-2l-1-1v-1.5h-1v-1.5l.5-.5h-.5l1-2-1-1,1.5-.5-.5-1,.5-1-3-2.5-3,1-.5-1-1,1-1-1.5-.5,1h-1l-.5-1.5-1,1,.5.5-.5.5-1-.5-1,1-1.5,1-1.5-.5-1,1-1-.5v-1l1,.5-.5-1.5-1-1.5-.5-2-7.5,3-9-4-3.5-.5-4.5,3-2.5-3-5.5-4-8.5-1-3.5-2.5-6.5-3-1.5,1,.5,1-.5.5h.5l-1,2,.5,3.5-1,2.5-3,.5.5,1-1.5,1,.5.5-1.5-.5.5.5h-.5v1l-.5.5,2.5,1.5.5-.5v1l-1,1.5.5,1v3.5l-10,2,.5,1.5-.5.5v1.5l-1.5.5-.5,2h-.5l.5,1-1,1,.5.5-.5,1,2,1.5.5,3-.5.5v2l-1,1v1.5l-1,1-4.5,4,1,3.5-1,4.5v1l-4.5,19-3,1.5-10.5-7-1.5-6-15.5-13.5-9-3,1-7-5.5-7.5-5-1,2-7.5,1.5.5.5-2.5,1,.5,1.5-7.5-2-.5.5-2.5-1-.5.5-2-1.5-.5,2.5-8.5-1.5-.5.5-2.5-2-1v-3l-11.5-2.5,2.5-12.5"/>
      <path data-code="oktjabr_skij_rajon__khanty-mansijskij_avtonomnyj_okrug_-_jugra_" data-title="oktjabr&amp;apos;skij_rajon_(khanty-mansijskij_avtonomnyj_okrug_-_jugra)" class="cls-1" d="M173.62,273.99l-1.5,4.5,13.5,5.5-.5,1,8.5,3,1.5-5.5h-1l2.5-6-1-.5v-1.5l-1-2.5.5-2,1.5-1v-.5l2-2-.5-1.5h-3.5l-6-3-2.5,3-2,3.5-10.5,5.5M154.12,270.99h3l4.5-3.5.5-7.5.5-2.5,4.5,1,3-2-3.5-7.5v-4.5l7-2,2-8v-11l4.5-13.5-1-5,10.5-13.5-.5-2,4.5-4,5.5,1.5,8.5-3,2.5-2,2,.5,7.5,8,1.5,3.5,2.5,1,1.5,3-5.5,1-.5,3.5-1.5.5v1l4,1.5,1,1.5-.5,2.5,2.5,2v3.5l1.5,2,5,2,.5,1.5h-1.5l-.5,2-2.5-1-1,1.5,2.5,4,.5,2.5-3,.5-2,3,1.5.5v2l4.5,3.5,1.5-1.5,1,1,3,4,3-.5,1,.5,1,1.5-1,.5v2l6.5,1,4.5,4,4-.5.5,1.5-1,3.5-1.5.5-.5,1.5-1,.5,2,1v5.5l-.5,1-4.5-3.5-1,.5-.5,2.5,1,3-.5,1.5.5,2-1,1v2.5l-2,.5,1,1.5-2.5,2-3,.5v.5h2l2.5,2v3l-.5,1.5.5,1.5,1.5,1,2.5-1,1.5,1.5.5,2,2,1,.5,4,2,1.5.5,1.5-.5,1.5h-.5l-.5,2-2.5,1.5v1l1.5,4.5-1,1-.5,3,4,4-1.5,3.5.5,1.5-.5,1.5-14,4-1,1-3.5.5-1,1.5-6,3.5-23,7h-3l-4.5-3.5,1-5.5-4-5-4.5,2.5-3.5,5-5.5-10.5,2.5-18,4-4-7-6-.5-2.5-8-1.5-5,2.5h-3l-6.5-2-1-8,1-4.5-4.5-8,.5-2.5"/>
      <path data-code="sovetskij_rajon__khanty-mansijskij_avtonomnyj_okrug_-_jugra_" data-title="sovetskij_rajon_(khanty-mansijskij_avtonomnyj_okrug_-_jugra)" class="cls-1" d="M91.12,305.99l-.5,1,3.5.5,5.5-1.5-2,7.5,5,2,2-7-2-1,3.5-10-4.5-1.5-1.5.5-2.5,3.5-1,2.5-2.5-.5-1,2.5-2,1.5M36.62,243.99l9-1,4-2.5,4.5,4,1-1v-1.5l3.5-2h3l-1.5-1.5,1-1.5-.5-2.5,7.5,1.5v-2l1.5,1,3-2h2l3-2.5,7,1.5,2.5,4.5-.5,1.5,6-1,4-2.5,1.5,1.5,3.5,6,10.5,1,25.5,8,1-1.5,5,.5.5-1.5,1-.5,6.5,3.5-.5,2,3,1,1,3.5,2-1,1.5,1,.5,3.5,3-1.5-.5,7.5-4.5,3.5h-3l-.5,2.5,4.5,8-1,4.5,1,8,6.5,2h3l5-2.5,8,1.5.5,2.5,7,6-4,4-2.5,18,5.5,10.5-29.5,4-18,9.5-34,6-33.5,2-1.5-15.5,1.5-13.5,5.5-9-1.5-13-2.5-8-14.5-16,.5-2-14.5-22-8.5-6.5,1.5-4,.5-2-2-2"/>
      <path data-code="surgutskij_rajon" data-title="surgutskij rajon" class="cls-1" d="M408.62,397.49l.5.5-.5,1-.5.5,2,.5-.5,1h-1l3,3h5.5l5,2.5,1-1.5-.5-1,1-1.5v-.5l3.5-4-.5-2-1.5,1.5-2.5,1-4-1-1-2-5.5-1-3,2-.5,1M460.12,334.99l2,3h-.5l.5,2-.5.5-1,6,3.5,2,.5-2.5,1-.5.5-3,1-.5-1-1.5v-3.5l3.5-2,1,1,3.5-.5.5,1-1,.5.5.5-.5.5,2,.5-.5-1,1-1.5v-.5l1-2h-1.5l-1,.5.5,1-5.5-1-3,2-3.5-.5-1-2-2,1.5M297.62,257.99l3.5,2.5,4.5-4.5,29.5-5.5,16-5,5.5,3,9,.5,10,2.5,4.5,5.5,2.5,1.5,3.5.5,13-4.5,6,1,3.5-2,8.5,2,7.5,3,7.5-3.5,1.5-2.5,5-1,1.5,2.5-1,1,4,4,1.5,8,3.5,4,22.5,6.5,6,11,12.5,3.5,5-2,3,1.5,4.5-2,9,2.5,5.5-.5,3.5,1.5,1.5,3,8.5,5.5,1.5,5,5.5-2-11.5,56.5-15.5-3.5-2.5,10-37.5-8-5.5,25-1.5-.5-2,10-2.5-.5-1,3,3.5.5-.5,2,1.5,2-1.5.5-1,4.5,1,.5-1,3h1.5l-2.5,1.5,2.5.5,2,2,4.5-4-.5,2.5-2,1.5,2,.5-1,.5,1,1.5,2-.5.5,2-.5,2,1.5.5v2h1l-.5,1.5v4l-2,1.5.5,2-3.5-1-.5,2,1.5.5-.5,3-5-1-.5,2-8-1.5-1,2-8.5-1.5-2.5,12.5,11.5,2.5v3l2,1-.5,2.5,1.5.5-2.5,8.5,1.5.5-.5,2,1,.5-.5,2.5,2,.5-1.5,7.5-1-.5-.5,2.5-1.5-.5-2,7.5,5,1,5.5,7.5-1,7,9,3,13,11,2.5,2.5,1.5,6,10.5,7-1.5,5,.5,1.5-.5,1-6,.5-11-1-8,9-3-2-3.5,8-8,3v14l-1.5,3-3,3.5-20.5,13.5-4-3.5h-4l-2.5-3.5-22-5-1.5-2-2-5-4.5-.5-4-4.5-8,.5-15-7.5-.5-1,4-3.5-4-8.5,3-4.5-1.5-2.5h-6l-7-2.5-.5-2-2-3,2-6-3.5-6.5,17,3.5,1-7,2,.5,3.5-12.5,2.5.5,6-22-2-.5,3-7,8,3.5,3-7.5,1.5.5,2.5-9-1-.5,8.5-18.5h-1.5l1.5-3-2.5-.5,1-3.5-.5-2,1-2-1.5-4.5v-4.5h1l1.5-1.5-2-.5v-2.5l3-.5,1,1.5,4.5-.5,1-1.5.5-1.5,1-1-1-1.5-6-1.5,2.5-9h1.5l.5-2.5h-3.5l-.5,3-.5-1-2,1-1-1.5-2,.5-1.5-2.5-2.5.5-.5-1h-1.5l-.5,1.5h-1.5l.5-1.5-2-.5-1,1.5v-1.5l-2.5-3-1.5-3.5-2.5,2-.5,1.5h-3l-1.5,1-4.5-2,1.5,1.5h-2.5l-1.5,2.5-1,.5-2-1.5v1h-2v1.5l-6,1-2.5-1-.5-.5.5-1.5-4-3-3-1.5-1,.5-3.5-3.5-3.5,1.5-2-2-1.5,1.5-1.5.5-1.5-2,1-3.5-5-6,7-9-6.5-25v-7l-5.5-9.5,1-7.5-5.5-5.5-11-4-4-5.5,2-10-1-14.5-1.5-5.5-3-2-5.5-16,.5-4.5"/>
    </g>
</svg>