<svg data-code="RU-KHA" xmlns="http://www.w3.org/2000/svg" viewBox="0 0 598.75 1162.39">
    <g data-code="khabarovskij_kraj" data-title="khabarovskij kraj">
      <path data-code="ajano-majskij_rajon" data-title="ajano-majskij rajon" class="cls-1" d="M42.62,614.76l1-3.5-2.5-3,.5-5.5-1.5-3.5v-2.5l2-3.5.5-3.5-.5-.5v-2.5l-1.5-1.5v-1l-2-1.5.5-.5-1-.5.5-.5h-.5v-1l-.5-.5,1.5-1.5-1-1h1l-1-1.5h1l-.5-.5.5-.5h-1l1-2.5-.5-1.5,3.5-1v-1l2.5,1v1.5h.5l.5,1h1.5v-1.5l-2-2,1-4.5,3-.5.5,1.5,2.5-.5.5,3,2,1.5v-3.5l1,1.5,1-.5.5-1.5-5-1.5,1-3-1-1.5v-1h-1.5l.5-1-1-1,1-2-2-.5,2.5-2.5-1-1,1.5-.5-1.5-1.5,2-.5-.5-1.5h-1.5l-1-2,.5-1-2-.5-.5-2-1.5,1-1.5-2h-1.5l-1-1.5-1.5-.5v-.5l-1,.5-.5-2-1,.5-2.5-2.5-1.5.5-.5-1.5h-1l-1-2,1-1-1-1-6-.5-.5-.5-1-1.5h-.5l-2.5.5.5,2-1.5.5-1-2.5-4-2.5.5-1,2.5-.5.5-5.5,3.5,3,4-2,1,.5.5-.5-.5-1.5.5-1.5,2.5-1-.5-2.5-1.5-1-1.5-4,.5-4,2-5.5-3-2,1.5-.5,1.5-4,3.5-1v-3.5l2-2.5-1.5-1.5-.5-1.5-1.5-.5-6-2.5-1-2h-5l-.5-.5,1.5-2-1-2-3.5.5-1-1.5-5-1.5-.5-1,1.5-1.5-.5-2-4.5-.5-2.5-3.5H1.12l-.5-1,3-2.5,1.5.5,3.5-2,3.5,2.5,1.5-2,1.5,1,2,.5-.5,1,4.5,1,.5,2,3-1,1.5-3-.5-1.5-2-1-4.5-.5.5-2.5-1-.5,1-6.5,3.5.5-1-3.5v-2l-1.5-1.5v-2l-2.5-1-1-1,.5-1-1-2-2.5-2,4.5-3.5,1,1,4-1.5-1-1.5h-1.5l-.5-.5,2.5-9-2-.5v-4l-1.5-1-.5-2-1.5-.5.5-2-.5-1,.5-1.5-.5-1.5,2-3.5,2,1,2.5-1-1-4.5v-3.5l-4-.5,2-2.5-.5-2-1-1-.5-2,3.5-.5.5-1.5-.5-1,1.5-5,1-2h2l-1-2,.5-1h3.5l1-2.5h1v-2l3-4.5,2.5.5,1,3,2.5.5,3.5-1.5,3-3.5,5-2.5,1.5-.5,1.5,1,2.5-1,.5,1,6-1.5h1v1l.5.5,1.5-.5,2.5,1v-3.5l.5-1.5,3-1,1.5-2,.5.5,1,1v1l1.5,1,3.5-.5,2-3.5,9,.5v-2l1-.5-1.5-2.5,2-2-2.5-2,.5-1.5-.5-2,.5-3-1-1,1.5-3-.5-2.5,1-3.5,3-7h1l3-3,2.5-.5.5,1,2.5,2,1-1.5,3,.5,1.5,1,5-1.5.5-1,1.5-1,2,1.5h1.5l1.5-1.5h4l1-1.5,3,1.5,2-1.5,1,.5.5-4,4-5.5h1.5l1.5-3,1,.5,3.5,4.5,1,4,2,4v2l3.5-1.5,1.5,1,2-1,1.5,1h4.5l-.5-2.5,1.5-4.5,2.5.5,2,2,4-.5,4.5-4,1-3-.5-2v-1l5.5.5,2.5-1.5,2.5,2.5v4l-.5,4,1.5,8,.5,1.5,2,.5,1,2.5,1.5.5.5,4.5,5,5,5.5.5,2,1.5,2.5,6,2,1,3.5-.5,5,1.5,2,2,6-3.5,4,1,3-.5.5,1.5,6-2.5,3,2.5,1.5,2.5,4.5-1.5,3,1h7l3.5,2,1.5,2.5h1l3,4,3.5-.5,2.5,2.5,2-3.5-1-3.5,2.5-.5-1-5,2.5-1,2.5,1,.5,1.5.5.5,2-3,2.5-1,2,1.5,1.5.5v-6l2.5-1,2,8.5,1.5,3.5-2.5,5.5v3.5l-1.5-1-1,1-4,4-1.5,3.5-.5,8,1,9-3,1-2,3.5.5,9.5-1,3.5-1.5.5-1.5,3-3.5,2.5-1.5,6.5,1,4-2-.5-1.5,2,1,1.5-.5,1,1,.5,1,2v4h-3v1l.5,1h-1l-.5,3h-1l-1.5,2,.5,3.5,2,5.5v1l2,2-.5.5-1-1-1.5-3.5-3,2v1l1.5,1-.5,3,.5,3.5-2,4.5.5,1v2l1.5,1.5h-2l.5,1.5-2.5,1.5v2l1.5,3.5,2,1.5,2,1,2.5-1v1l.5,2-1.5.5-1-1-3,2v1l1,1.5v2l-3.5,2.5,1,8.5.5,1.5-1.5,1.5v5l1,1-5,5-1.5,6.5,1.5,4-.5.5.5,1.5-2.5-.5-1.5,1v3.5l-3,6.5v2.5l.5,2.5-2.5.5-1.5,2v3l-1,1-.5,3.5,1,2-.5,2-2.5-1-2,5-2,.5,1,2.5-3,1.5-.5,4-3.5,4.5-2,1h-4l-.5,2-2.5,1.5v3l-1,1.5-5,1-3.5-2-4,2-.5-2.5h-4l-1.5-3.5.5-1.5-.5-2h-6l-1.5,1.5-.5,4-4,2.5-1.5-1.5-2.5.5-2.5,4h-2l-3,3,2,1.5-4.5,1,1,3-1,2-6.5-4-2,1-3-1-1,1-2-1-2-2.5h-4l-3.5,1.5-2.5,3.5-3.5-1-1.5,2v1.5l-4.5-.5v1l.5,1,2,2-2.5,3.5-4.5,2.5-2.5-1-5,1.5-3.5,2.5-5,4.5v3.5l-1.5,2h-6l-4.5,3.5-1-.5-.5-1.5-4.5-1.5-1-2-2,.5-4-1-3,2.5h-2l-.5,3-2,.5.5,1v1l-7,.5-1,1,1.5,3h-2l-1.5,2.5h-1l-1-2-1.5-.5-1.5,1.5-3-.5-1,2.5v2l-4-1.5-1,1.5.5.5-.5,1-2,.5-1,1.5-5-1-1.5,4.5-3,.5-5-2.5v-1l-1.5-1.5-1-4-3-1-2-3.5-1-1"/>
      <path data-code="amurskij_rajon" data-title="amurskij rajon" class="cls-1" d="M370.12,1019.26l-1.5-4-.5-7-2-3.5,1-1.5,3-1,.5-1.5-.5-2,1.5-1-.5-2,1-3-1-3-1-2.5,1-2.5-2-3v-2.5l-1-1-.5-1-1-2v-1l-1-1.5.5-1-1.5-1-1-3-1.5-1-1-3-7.5-2.5.5-1-2.5-.5-2.5-3-.5-2.5,1.5-5-2-2.5,1-5.5,5-6,3-7,3.5-3.5,3-5.5-1.5-3,1.5-3,4-4,1.5-3,5-1,2.5-4,3-1,1,1,1.5-.5,1.5-4,1.5-.5,3-4-1-2.5-2-2.5-1-4-1.5-2,2.5-2-1.5-2.5v-4l3.5,3.5,6,2.5,7.5,1.5,5-.5,12.5-6,1.5,1.5,1,2.5,5.5,6.5,4.5-5,.5,2.5-2.5,4.5.5,2-1,.5v1h4.5v-1.5h1.5l1.5,1.5,3-1,.5,1,1.5-1.5,4.5-1.5,1.5,1.5v1l-5,.5-7,3.5-8,10.5v1.5h-1l-1.5,3-2-1-2,2.5-2.5.5-5.5,6-1,5,1.5,2.5.5,4-.5,1,.5,1.5-1.5,4.5-1,.5-1,4.5-1,1,1,1.5v6.5l-1.5,1-1,2.5-4.5,1v4l2.5,8.5-4,.5-3.5,2.5-1.5,3,1,2.5-1,4.5.5.5v2.5l1,.5v1.5l-2.5,2-2,5,1,2,2.5,10.5,1.5,1v1l-3,1.5-2-.5-.5,1.5h-2l-2.5,7-.5,3,2,1-2.5,2,2,2.5.5,1.5-2,1-4-2v1l-3,2.5v-2.5l-1.5.5-2-1.5-.5,1v-1h-2l-1.5-3-2,1-1-2.5"/>
      <path data-code="bikinskij_rajon" data-title="bikinskij rajon" class="cls-1" d="M415.62,1160.76l-2.5-6.5.5-1.5-3-3-1-8-1.5-2,.5-3-.5-6,2.5-2.5-1.5-4-1.5-2,1-1,.5-4.5,4,1.5,1-4,2-2.5h1.5l2.5-2.5,8-2,1-1.5.5,2,2.5.5,1.5,2.5v3.5l-1.5,3-1-1.5-3.5,3.5v2l1,1.5-2,1.5v2l1.5,2.5v2.5l-2.5,1-1.5-.5-1,1.5,2.5,2.5v4.5l2.5,1.5,2.5,3-.5,2,1,2-1,1,1,.5-1,2.5-5.5,2.5-1,2-6,2.5-1,2-1-1"/>
      <path data-code="imeni_lazo_rajon" data-title="imeni lazo rajon" class="cls-1" d="M398.62,1066.76v-2l-1.5-3,1-8-1.5-3,4,2.5,6,.5,4.5-.5,1.5-4,5-5,3.5-5.5v-2l1.5-2.5v-1.5l1.5-1.5.5-1.5,4,1,15-8.5v-1.5l-1-1-.5-4-3-3-1-3-1.5-1.5-.5-4.5-2-2.5h-.5l-1.5-4.5,5,.5,1-1,10,7.5,5.5-2,2.5,2,1.5,3.5v7.5l1.5,2,2.5.5,1.5-.5,1.5,1h1.5v-3l8-5v-4.5l-3.5-4,2-4.5-3.5-.5v-2.5l-1-4.5-1.5-1.5-1.5-1,6-2.5-1-3,1-4v-3l-.5-2-3.5-4,1-3.5-1-5.5,2-1.5h6.5l4-2.5,6-.5,2.5-2.5,2,3.5h2.5l1,4,3.5-3.5h3l1-2.5,2-.5,1,1-3.5,11.5,1,6.5-2,4,.5,2,1.5,2-.5,1,1.5,2-2,2,.5,1.5,2,2.5,2,.5,1,4,1,.5v2.5l-4,2.5-.5,4-1,.5.5,2.5-1.5,2,1.5,1,.5,1,5,1,1.5,2,3.5-1,2,1.5h3l1,2.5-3,2.5-1.5,6,2,.5,2.5-2h1.5l1-2,6,.5,4.5,2.5v-1.5l1.5-1.5.5-2,3.5-.5,2,.5,1,2,2.5-1.5.5,1.5-1.5,5,3,.5.5-1.5,2.5,1.5-1,1.5,1.5,1,.5,1-1,1.5v3.5l-1,1.5-2,.5-.5,1,2,2-1,2.5h-.5l-3,6-2-1-3.5,4.5.5,4-2,3.5v1.5l-5,2.5-.5-1-3-1-1-1.5-1.5.5-.5,1,.5,1-1.5.5-2-1h-2.5l-1.5,2v4l1,2.5-1,3,2,4.5-.5,1.5,4,2.5-.5,3-1.5,1,1,3-3,.5.5,3.5-.5,2-1.5.5,1,1.5-3,3.5.5,3-1.5,1.5-1.5-1.5-2,1.5-3-.5-2,2,1,1.5-.5,2-4.5.5-.5,1.5-4.5-.5-2.5-2-2.5-.5-.5,5.5-2,1.5h-5.5l-4-3.5-3.5.5-.5-1,1.5-1.5-.5-1.5-5.5,3.5-2-1-3,3.5-1.5.5v2l-3,1-1-3.5h1.5l-1.5-2.5.5-3h-2.5l-5.5-3v-1l-.5-.5.5-3.5h1.5l-.5-3.5-4-1v-2.5l-2-4-2-2.5,1-4.5-1-8.5-1.5-2-1-4-2-1.5-4-.5-2.5-2.5-2.5-1-8.5,4.5.5,2.5-.5,1-4.5.5-.5-1-2.5,1,1.5,1-1.5,1.5-2-2-5.5,2.5-3.5-5-2.5.5-1-1-.5-1.5-2-1.5"/>
      <path data-code="imeni_poliny_osipenko_rajon" data-title="imeni poliny osipenko rajon" class="cls-1" d="M270.62,793.76l-1-2v-3.5l2-3-1.5-2.5,1-3-1.5-2h-1.5l-.5-2h-.5l.5-1.5-1-1.5,1-1.5-.5-2.5,2.5-1-.5-1.5-2.5-4.5-3.5,1.5-1-1.5.5-1.5-.5-1.5h-2.5l-1-2-1-1,1-2-.5-1.5-2,.5,1.5-6.5-.5-2,1-1-1-1.5,1-3.5,4.5-1,4,3,2-1.5,5,.5,3.5-2.5,2.5,2.5,2.5-.5,1-2.5,4-1.5,3,2,2,2.5.5,2,8,5.5,3.5-8,4-14.5,6.5-13,3-.5,5-5.5.5-2-2.5-.5-.5-1.5,2.5-2.5,3.5-1.5,2.5-3.5h1v-2l6.5,2.5.5-3,2.5-4.5,3,2,3-1.5,4,5,.5-.5,1.5,1,4-3,6,4,1-.5.5-.5-.5-3,4.5-1,.5-3,2.5-4-.5-1.5.5-2.5,2-2.5-1-2,2-4-.5-1.5,1-2.5,5.5-6,2,3,1.5-.5,2,1-.5,2.5h3l5.5,4,8.5-1.5,3.5,2,3,3.5,3.5,1.5,1.5-.5.5-2,3-3-.5-2,3-1.5,4.5-.5,1,1.5,1.5-.5-.5-1,3,.5,1.5,3.5,2.5-1,1.5,2,3.5-2.5,3,1,2-1,6.5,1.5,2,4.5,1.5,9.5-6,4-3.5-1.5-4,3.5h-7.5l-9.5,5-1,1.5.5,5-1.5,2.5-6.5-1-2.5,1,2,2-.5,6.5-1,1.5-6.5,1v2.5l.5,2.5-6,7.5v5l-1.5,4-6.5,6-2-.5-3,1-1.5-1-3.5.5-1-3-1-1h-4.5l-.5,2h-1.5l-.5,2.5,1,.5v2l-3,10-3,2.5v2l-1,1-3,.5-3.5,6,.5,1.5,4,2.5-1.5,1.5,2,2.5.5,1.5-3.5,4v3.5l-6.5,5.5-6,2-.5,1.5-4-.5-3.5,4-5,9.5-4-.5-5-2-4,4.5-3,6-4-.5-1,2.5-2.5,1.5,1.5,4-3,2.5-3,1.5-2.5-4-1-.5-1.5-2-.5-1.5,1-3.5-2-4.5-1.5-9-.5-1-1,.5-1.5-.5-2-3.5-2-.5-8,3,.5,2-.5.5,1.5,1.5-4,4-5-3.5-.5-3.5-4-2.5-.5-2.5-1.5-.5"/>
      <path data-code="khabarovsk" class="cls-1" d="M398.12,1031.26l-.5-5.5,2-2-2-2.5,1.5-2-.5-1,3.5,1,1.5-2.5v1.5h2l-1.5,2.5,3.5-2-1,4,1,1.5,2-.5.5,1-1.5,1.5,1.5,2.5-2,3.5.5,1.5h1.5l-.5,1-2.5-1-1,1h-1.5l-.5-1,.5-.5.5-2.5-.5-.5-1.5,1.5-2.5-1.5-2.5,1"/>
      <path data-code="khabarovskij_rajon" data-title="khabarovskij rajon" class="cls-1" d="M289.12,1006.76v-3.5l-1.5-2,.5-6.5-2-3.5-4.5-3.5v-4h4l1.5-1.5-1.5-4,.5-2.5-.5-.5,2-1.5-1-4,1-2,2-.5,1-2.5-2.5-1.5-2-2.5,2.5-5.5,3-1v-4l-1-2.5,2-5,2.5-1,2.5,1.5,2.5,2.5,1-.5,4.5-7.5,3-.5v-1.5l4-1.5.5-2.5-2.5-1-.5-2,7-4.5,2-2.5,1,1,1.5-1,1-5.5,2.5-2.5v-2.5l-.5-2-2-1,1-3.5h1l1-2.5,2-2,2.5,1,3.5-.5,3.5-4.5,1.5,1,2,5h2.5l4.5,2.5h1.5l3-5,3-2v-4.5l9-3,5-7v-4h2l2.5,3,1.5-1,1.5,1.5.5-1.5,6.5-4.5,1.5,2.5-2.5,2,1.5,2,1,4,2,2.5,1,2.5-3,4-1.5.5-1.5,4-1.5.5-1-1-3,1-2.5,4-5,1-1.5,3-4,4-1.5,3,1.5,3-3,5.5-3.5,3.5-3,7-5,6-1,5.5,2,2.5-1.5,5,.5,2.5,2.5,3,2.5.5-.5,1h1.5l1,1.5,4,.5,2,1.5v2l1.5,1,1,3,1.5,1-.5,1,1,1.5v1l1,2,.5,1,1,1v2.5l2,3-1,2.5,1,2.5,1,3-1,3,.5,2-1.5,1,.5,2-.5,1.5-3,1-1,1.5,2,5,.5,5.5,2,5-2,3-1.5.5-1-1,.5,1.5-1,1,2,2.5-1.5-.5-.5,2.5-2.5.5-.5.5.5,1h-1.5v1l-1.5-.5-.5,1.5v-1l-1,.5-2,2v-1l-1-1,.5,1h-.5l-.5,1.5v-.5l-.5.5-1-1h-1.5l.5.5v.5l-1.5-1.5-1.5.5v-1l-1-.5v-1l-1,1v-1l-2-1v1.5l-2-1,1,1.5-.5,1.5-1-2-3.5,3-2-.5v-1h-1.5l-.5-1-.5.5-3-2.5-7.5,2-1-1.5-4.5-4.5,1-3-1-2.5-1.5-1.5-5.5-2.5-1-2h-3.5l-2.5-2-4.5,1-2-1.5-3.5,3-.5-2-2-.5-.5-3h-1l-2-4M396.62,1050.76l-1.5-3.5,1-2.5-1-7,2.5-2.5.5-4,2.5-1,2.5,1.5,1.5-1.5.5.5-.5,2.5-.5.5.5,1h1.5l1-1,2.5,1,.5-1h-1.5l-.5-1.5,2-3.5-1.5-2.5,1.5-1.5-.5-1-2,.5-1-1.5,1-4-3.5,1.5,1.5-2h-2v-1.5l-1.5,2.5-3.5-1,.5,1-1.5,2-1-2-2-1-.5,1h-2.5v1.5l-2.5,3-2-3,2.5-2-2-1,.5-3,2.5-7h2l.5-1.5,2,.5,2.5-1,.5-1.5h2.5l2.5-1v-1.5h1.5v-1.5l1-.5,4.5-.5,2.5-2-1-.5.5-1.5,1,.5v-1h-1l1-1.5h1.5l.5-1.5-.5-1h2v1l2-.5,1-3.5,4.5-1-1.5-2.5,2-2.5v-2.5l2.5-2.5,2-.5,2-2.5.5.5-1,2,.5,1,2.5-2v1.5l.5-.5.5,1v4l2-.5.5,1.5-.5,3.5-2.5,2v5l-1.5,1-.5,3,1.5,4.5h.5l2,2.5.5,4.5,1.5,1.5,1,3,3,3,.5,4,1,1v1.5l-15,8.5-4-1-.5,1.5-1.5,1.5v1.5l-1.5,2.5v2l-3.5,5.5-5,5-1.5,4-4.5.5-6-.5-4-2.5"/>
      <path data-code="komsomol_sk-na-amure" data-title="komsomol&amp;apos;sk-na-amure" class="cls-1" d="M404.12,854.26v-1l2,.5.5-1.5,4.5,4,1.5-1-.5-2.5,2.5-1.5.5-2,2,1.5,1-1,.5.5-1,5-2.5,6.5.5,1,1,2-3.5,3.5.5,2-1-2.5-1,1-1-2h1.5l-2.5-3v-2l-1.5-2,.5-1-.5-2.5-4-2"/>
      <path data-code="komsomol_skij_rajon__khabarovskij_kraj_" data-title="komsomol&amp;apos;skij_rajon_(khabarovskij_kraj)" class="cls-1" d="M382.12,870.26l-.5-4h3l2-2.5,3,.5.5-1,1.5,2,4-3,4-1,1.5-1.5.5-3.5,4-1.5,2.5,1.5.5,2.5-.5,1,1.5,2v2l2.5,3h-1.5l1,2,1-1,1,2.5-.5-2,3.5-3.5-1.5-3,2.5-6.5,1-5-.5-.5-1,1-2-1.5-.5,2-2.5,1.5.5,2.5-1.5,1-4.5-4v-1.5l1.5-.5,2.5-4.5-1-2.5,1.5-2-1-1.5,1.5-.5,3-5-.5-1-3-2.5,1.5-1-2-4-3.5-.5,3.5-7-1-10-2-5.5-3.5-4.5,6-4.5,3-3.5h3.5l3.5-3,4,2,4.5-1,1,1,4-5,3,1,1.5-1,1,1,3.5.5,2.5-2-.5-5,.5-2h1.5l2.5.5,6,4,1,3,3.5-3,6.5-2,1.5,1,1.5,3,3.5,4v4l2,1.5v1.5l-2.5,1.5-1,3-2-1-3.5,7,1,2.5.5,6.5,1.5,3,4.5,3.5v1l6,1.5,1,2.5,1.5.5h2l1.5-1,2.5,1.5.5,3.5-2.5,1.5v3.5l-2,3,3,3,2,.5,2,2.5.5,3.5,3,2.5,1,2,4,.5,4.5,3.5,3.5,1,5-2,3.5,1.5,4.5-5.5,1,4.5,3.5,5v1l-1.5,1v2.5l4,1.5,1.5,10-2.5.5-1.5-2-4-1-2.5-2.5-3-1-4,3.5-2.5-1-5,4-2.5-1.5-1.5,1-3.5-2-2.5,4.5,1,2.5-1.5,2.5v.5l2,2v3l4,1,.5,4,2.5-.5,3.5,1.5-3.5,8.5-3.5,4.5-3-2-8.5-.5-1-1.5-.5-10-6-2-7.5,4.5-1.5,2-3,.5-3-2.5-1,2-.5,4.5,1.5,5.5-4.5-.5-6-5.5-5.5-12-2-1.5v-1l-1.5-1.5-4.5,1.5-1.5,1.5-.5-1-3,1-1.5-1.5h-1.5v1.5h-4.5v-1l1-.5-.5-2,2.5-4.5-.5-2.5-4.5,5-5.5-6.5-1-2.5-1.5-1.5-12.5,6h-8.5l-10-3.5-3.5-3.5-1.5-2.5"/>
      <path data-code="nanajskij_rajon" data-title="nanajskij rajon" class="cls-1" d="M396.62,1003.62l-2.5-10.5-1-2,2-5,2.5-2v-1.5l-1-1v-2l-.5-.5,1-5-1-2.5,1.5-3,3.5-2,4-.5-2.5-9-.5-3.5,5-1.5,1-2,1.5-1.5-.5-6-.5-2,1-.5.5-4.5,1.5-.5,1.5-4.5-.5-1.5.5-1-.5-4-2-2.5,1.5-5,5.5-6.5h2.5l1.5-2.5,2.5,1,1-3.5h1.5l-.5-1,6-9,9.5-5,5-.5,2,1.5,5.5,12,4,4.5,5,1.5h1.5l-2-5.5,1-4.5,1-2,3,2h3l1.5-2,7.5-5,6,2.5.5,9.5.5,2,9,.5,3,1.5,3-4,4-8.5,3-1v-1l2.5-2.5,1-.5,1,1v5l2,2.5.5,2,2.5,2-1,1.5.5,2.5-1,1,2,3.5-4.5,6-.5,5.5,3,4,2.5-.5,1,3,2.5,1.5-1,4,2.5,6-8,16.5,1.5,4,9,3.5,1,1.5-3,4.5v3l2,2v1l-3,2-.5,3h-2l.5,2.5-1,1v3l-1.5,1v1l-1.5,1-3-.5-2,3-3-2-1,2h-2.5l-1-4-2-1-2-2-.5-2,2-1.5-1.5-2.5v-1l-1.5-1.5v-2l2-4-1-6.5,3.5-11.5-1-1-2,.5-1,2.5h-3l-3.5,3.5-1-4-2.5-.5-2-3-2.5,2.5h-6l-4,3h-6.5l-2,1.5,1,5.5-1,3,3.5,4,.5,2v3l-1,4,.5,3-5.5,3,1.5.5,1.5,2,1,4.5v2l3.5,1-2,4,3.5,4,.5,3.5-.5,1.5-8,5v2.5l-7-1-1.5-3v-3.5l-1-5-3-3-5.5,2-10-7.5-1,.5-4.5-.5v-2.5l1.5-1v-5.5l2.5-2,.5-3.5-1-1.5.5.5h-2v-3.5l-.5-1h-.5l-.5-1.5-1.5,2-1-.5,1-2-.5-.5-2,2-2.5.5-2,3v2l-2,3,1.5,2-4.5,1.5-1,3.5-2,.5-.5-1h-1.5l.5.5-.5,2-1.5-.5-1,1.5,1,.5v1l-1.5-.5v1l1,.5-2,1.5-5,1-1,1v1.5h-1.5v1l-4,2-2.5-1.5"/>
      <path data-code="nikolaevskij_rajon__khabarovskij_kraj_" data-title="nikolaevskij_rajon_(khabarovskij_kraj)" class="cls-1" d="M463.62,606.62l-.5-1h.5v1M372.62,626.12l-1-2.5,1-6-.5-4,1.5-1,4,1.5,3-2,3.5,1,4-2.5-.5-1.5,2.5-4-2-2h-1.5l-.5-2,4-4-1.5-4-1-1,1.5-7.5-1-3,2-4,1.5-.5,1,1,1.5,3.5.5.5,3,.5.5-1.5h.5v1.5l4.5,2,10-.5,2,2,.5,1.5,5.5.5-.5,5,2,2.5,5,3,8,1,.5,2,3.5,2,8,1.5,16.5-1,10,1.5-15.5-1-1.5.5v3l1.5,2,2-2.5,1,2,4.5-1.5v2l5.5,1.5,8.5-3-.5,6,2.5-1.5,1,2,2,1.5-2,3,1,1v1.5l1.5.5-4.5,3v1l2,.5-.5,3.5-1.5,2,4,7.5h1.5l1.5-1.5-.5,3,.5,3,5,1.5,1.5,3,2.5,1.5-1,1,2.5,3,1,5.5-2.5,2v3l2.5,3.5,1.5,1.5,3.5.5,2,1.5.5-.5.5,1,.5.5,2.5-1,2,2,2.5,1,4-1.5v-1l-.5-1h1v1l1.5.5v2l2,1.5-3,1-2,6,3.5,6.5h3l1,1-.5,1,.5,2-1.5.5-2,4v1l.5.5-1.5,1.5v3l1,1-.5,3.5-3.5-2-7-7-4,3-2-.5-2-3.5v-2l-2.5-3-.5-4.5-3.5-1-3-1.5v-1l.5-1.5-2-1.5,1-2-2-2.5-3-1.5-.5-1.5h-9l-3.5-2,2-5-1-3.5-4.5.5-4-1v-6l3-5,2.5-2-.5-1.5-1-1v-2l-1.5-1.5-4.5-1-3-2.5-2,3-1-.5-2,.5-1-1.5-3.5.5-3.5,2-.5,6-6-3.5-5,.5v-4l-3-4h-2l-4.5-3-1,2.5,1,2-4,.5v4l-6.5-2-5.5-5-2,.5-2.5-4.5-1-1v-.5l-3-3-3,.5-.5,1-5.5-.5v4.5l-2.5,2v2.5h-4.5l-4-2.5-4,1-2-3-.5-3-1-.5-.5-1.5,1-1.5-.5-3-3,1-1-2.5M390.12,574.12l-.5.5-.5-.5,1.5-1.5-.5,1.5M469.12,607.12h1l.5.5-.5-.5h-1M478.62,607.12h-2l-1,1-1-.5,2.5-1.5,5,1.5-2,.5v-.5l-1.5-.5"/>
      <path data-code="okhotskij_rajon" data-title="okhotskij rajon" class="cls-1" d="M149.62,313.62v-2l-2-4.5-1-3.5-3.5-5,1.5-.5v-3l1.5-2,.5-4,3-1,1-2-1.5-1.5h-1v-1l-2-2.5,1-1.5-.5-1.5,1-2-.5-2.5,6.5-5h3v-2l1.5-1-1-2.5,1-2,1,1,.5,1.5,2.5,1.5v4l.5,2,1.5,1,4.5-2.5-1-2.5,1-2-.5-1h-1.5v-1.5l-2.5-3.5-1.5-.5-1-2.5-1.5-3,1.5-2v-1l-2.5-1-1.5-4.5-.5-2.5-2.5-1-1-3-.5-.5v-1.5l-2.5-1-.5-4-1-1,2-4.5h-.5l-1-2.5-.5-.5v-2l-1.5-.5v-1l-3.5-2.5,1.5-1.5-1-5h-1.5v-1.5l-1-1,1.5-2-.5-2-1-1v-2.5l-2.5-1-2,.5-1.5-2-1.5-.5-.5-2h-1.5l-2-1v-4.5l-1-1-.5-2,1.5-3.5-1-1.5-.5-2-1.5-.5-1-3h2l1-4,2-2,1-4.5,1.5-1-2.5-.5v-1l-2-2,1-5,2,1,2-3,3.5-.5,1-2.5-.5-1.5h.5l-.5-2-1-.5-.5-2,3.5-1,1-1.5,2.5-1,1.5-3.5-1-1,1.5-1.5,2.5,1,1-1.5v-6.5l-2-7,1.5-.5.5,1.5,1-1-1.5-4,1-8.5-1-4.5-3-4-.5-3,1-1.5h3v-4l2-3-1-1h-1v-2l1-2-2-3.5v-1.5h-1l-.5-1,.5-1-2.5-1-.5-2.5-.5-.5-.5-2-1-1,.5-1-.5-1.5,1-1-.5-1.5v-1.5l6.5-2.5.5-2.5-.5-1,1-.5-.5-1-1-.5.5-1-.5-1.5,2-2.5h1.5l1,1,1.5-1,2,1,1.5-2,1.5,1,1,2,2.5,1.5.5-2,2,.5,1.5-2.5,2.5,3,2,.5,1,1h1l.5,1h3l2.5,2,3,5,2.5-.5,1,1.5h2.5l1.5,1,3.5-2.5.5,1.5-.5,1,2,2.5,1.5-3.5,2.5.5.5-2.5,1,.5v-3l1.5-1,1.5,1.5,3,.5v1h1.5l.5,2,4-1.5,1.5,1.5v1.5l3,1.5-.5-2,4-6.5-.5-1,.5-1,2.5-.5.5,1,1.5-1,3,1.5.5-1,1.5.5,1-1.5-1-1v-1.5l-1-1.5,1-.5v-7h-1.5l-1-1,.5-1.5,1-.5,1-1.5,2.5.5v1l1.5,1.5,1.5.5,3-.5v-2.5l1-1,5.5-.5-.5,1.5,1.5,1.5v2.5h1l1.5,1.5.5,2,1-.5v1l.5.5,1-1.5-.5-.5.5-1-1-.5,2-1.5-.5-1-1-1-.5-1,2-2v-2.5l1-.5,1,1.5.5,1.5.5-.5,1,1v1l2.5.5v1.5l1,1-.5,1.5,1.5,2v2h1v.5l.5,1,3.5-2,2,.5v-2l3,.5.5-1.5-1-1.5,1.5-3h1l-.5-3.5h1.5l2-3-1-1v-.5h-1l.5-2.5,1-1h-1v-1.5l-1.5-.5-.5-1.5,1-2-.5-2,.5-.5v-2h1.5l1.5-3,3-2,2,2,1.5.5,3.5-2,1,1.5h2.5l.5-4h4l1.5-2,1,2.5,1-1.5,1.5.5-.5-2.5,2-1.5-1.5-3.5-1.5-.5.5-.5,2,.5,1-1.5.5,1,1-.5,2,1,.5-1.5,3.5-1,3.5,2.5,1.5-2,1,.5v.5l2-.5.5,1.5,1-1h2l.5,2,1-.5v1l2-1.5,1.5.5,1,1.5h1.5v2l2,1.5h1.5l.5,1,1-.5,1,2,6,.5,1,1-.5,1,2,1.5.5,3,7,1,1,5,2-1,2,6.5,4,3,1,1.5,1.5,4,3,2.5-2,1.5.5,2.5,2.5.5,1,1.5h1.5l-.5,1,1,3-3,1.5-2.5,2.5,1,.5-.5,1.5,1.5.5,1.5,1.5-.5,1h1.5v3h1l.5,1.5-1.5,1,1,.5v1l1.5.5-.5,1,1.5,1.5-.5,1,1,1-2,3h-2.5l-.5-1h-.5l-2.5.5-2.5-1.5-2,1.5v1l.5,1-.5,4.5-1.5,1v1l1.5,1-2,3h-1.5l-1.5,2.5.5.5-1,3,1,1.5v.5l-1.5,1.5-.5,2,2.5,4.5,3.5-1.5,2,2,.5,1-1.5,3v1h1.5l3,2,6,1,1.5-.5,2,1,1.5-1.5v-1.5l6.5-4.5,2.5-5,2.5-1.5,1,1.5,3.5.5,1.5,1,1,2.5,1-.5,1,1.5,1.5-.5v-2l3.5.5,1,3,1,.5.5,1.5,1.5.5v.5l4,1,.5,1,1.5.5,2-5,3-1.5,1.5.5-.5,1.5h3.5l1.5,2h1.5v1l1,1v1l4.5,2.5-1,4,1,.5,1,1.5h1.5l.5,3h.5l.5,2,1,.5.5,2,1.5,1v4l1.5,1,1,1.5-3,2.5-1.5,2,1,1-2.5,2-5.5,1-1-1.5-1-.5-5.5,1-2.5,1.5-1.5,6.5,3.5,4,1,3h1.5v2l2,.5.5,1-.5,2-4,1-1,1.5,1,1.5-1.5.5-.5,2.5-2,1.5-1-2.5-7-1-1.5-4,1-4.5-1.5-3.5-2-.5-.5,2.5h-2l1,3-3.5-.5-1.5-1v1l-3.5,1.5-6,6.5-1-1.5-2,.5-6,8-5,3-3.5.5-9,7-8.5,2.5-7.5,4.5-9,11.5-3,1.5-3.5-1-2.5,1.5-15,20-4,7-3.5,12.5-.5,8,.5,8v11.5l-1.5,8-3.5,9.5-6.5,8.5-3,12.5v8l2.5,10,.5,3.5-2.5,1.5-.5,2,1,3.5-1,.5-3-2.5-2,.5-2.5,3.5-.5-.5-.5-1-2.5-1-2.5,1,1,4.5-2.5,1,1,3.5-2.5,3-2-2-3.5.5-3-4h-1l-1.5-3-4-1.5h-6.5l-3-1.5-4.5,2-1.5-3-3-2-6,2.5-.5-1.5-3,.5-4-1-6,3.5-2-2-5-2-4,1-1.5-1-2.5-6-2-1.5-5.5-1-5-4.5-1-4.5-1-1-1-2-2-.5-2-9.5.5-4-.5-4-2-2.5-2.5,1-5.5-.5v1.5l.5,2-1.5,2.5-4,4.5-4,.5-1.5-2-2.5-.5-1.5,4,.5,2.5-4.5.5-1.5-1-2,1-1.5-1-3.5,1.5"/>
      <path data-code="solnechnyj_rajon" data-title="solnechnyj rajon" class="cls-1" d="M299.12,883.12v-2.5l4-8.5v-4l-7.5-9-4-1.5,1.5-3,4.5-3,1.5-4.5v-3l6.5-7-1.5-2,.5-3,3.5-2.5.5-2-1-2,6-4.5-2-3.5,3-1.5,1-3,4,1,3-6,4-4.5,5,2h4l4.5-9.5,4-3.5,4,.5.5-1.5,6-2.5,6.5-5v-3.5l3.5-4-.5-1.5-2-2.5,1.5-2-4.5-2.5v-1.5l3.5-5.5,3-1,1-.5v-2.5l2.5-2,3.5-10v-2l-1-.5.5-2.5,1.5-.5v-1.5h4.5l1,.5,1.5,3,7,.5-4.5,5.5v2l1,1-1.5,3.5v3l.5,1h1.5l4.5,3,5,.5,4,4.5,2.5-1,3,1,4.5-1,3.5,1,2-1.5h2l2.5,6.5,1.5,2.5-1,2,.5,5-2,2.5v1l2,3v1.5l-2.5,2h-4l-2.5,3.5-6,4,3.5,5,2,5,1,10.5-3.5,6.5,3.5,1,2,3.5-2,1.5,3.5,2.5.5,1-3,5-1.5.5,1,1.5-1.5,2,1,2-2.5,5h-1.5l-.5,3-2-.5v1l1.5,1-4,1-.5,3.5-1.5,2-4,1-4,3-1.5-2-1,1-2.5-.5-2,2.5h-3v3.5l2,3v3.5l-7,5v1l-1.5-1-1.5.5-3-2.5h-1.5l-.5,4-4.5,7-9,3v4.5l-3,1.5-3,5h-1.5l-4.5-2.5h-2.5l-2-4.5-2-1-3,4.5h-6l.5-6-1.5.5-1-1.5-1-3.5-4.5,2-1-1-4.5.5-3,2-2.5-7.5-4-4.5-2,3.5-2-1-2-1.5"/>
      <path data-code="sovetsko-gavanskij_rajon" data-title="sovetsko-gavanskij rajon" class="cls-1" d="M517.62,961.62l-1-5,2-3,.5-3,5-9.5-2.5-6,3-7.5,5.5-2,1-1.5,1,1,10.5,2,5-2.5.5-1-.5-.5-.5-2,3-3.5,1.5-1,3.5,1,1.5,1.5.5-2.5-3-5.5-1.5-1.5v-1h2l.5-5h2.5l4-3.5h2.5l5-5,6,1v-1l6-2,1.5-3.5.5,1.5h1l-1,2-.5,4.5,1.5-1v-1.5l1-3,1.5,1.5,2,.5-.5,1,1,3-2,7.5,1,2v4l1,1,1.5,4.5,1.5,2,1,2.5h.5l1,1.5-.5,2,2,1.5,2,4.5-2,4.5.5,5.5-3,4-.5,4.5-3,8,.5,8-1.5,6.5.5,1.5-3.5,5.5-1.5,9,1,9.5,1.5,2-1,1.5,1,8v2l.5,3,2,4-.5,1-1,1-4.5-2-2,.5-1.5-.5-4,4.5-1-1-3.5,2.5-1.5-.5v-1.5l-3,1.5,1.5-3.5-1-1-1-1.5.5-3.5-3.5-1.5-1.5.5-2-1,1-2-.5-1.5,6.5-7.5-1.5-1.5,1.5-2-1-4-4,.5v-1.5l-2.5-.5-1.5-1.5-4-1.5-1,.5-2-1-.5-6v-1h2.5l.5-2.5-3-4-2,3h-5l-.5-3-5.5-2.5-.5-4-1.5-.5-.5-1.5-.5.5-3.5-1-1,1.5h-1l-1.5-1-1-1.5-9-3.5"/>
      <path data-code="tuguro-chumikanskij_rajon" data-title="tuguro-chumikanskij rajon" class="cls-1" d="M310.12,591.62h-1l-4-4.5h-1l-1.5-2h-1.5l-1.5-2-3.5-2.5-2,2.5v3l-1.5,2v2l-1.5,1.5-2-10.5,1-5-.5-2.5,1.5-3-1-5-1-.5.5-4-1-1,2-2.5,5.5,1.5,5-1,1-2,2.5,2,5,1.5,6-1.5.5.5-.5,2-1.5,1-1,1.5.5,3-1,4,1,2.5,2,3,.5,2.5-.5,2-2.5.5.5,4.5-2,4v3.5l-1.5-1M326.12,578.62l-.5.5-1-.5,2-1-.5,1M321.62,553.62l-3.5,1.5-.5-2,3-2,.5.5.5,2M79.12,751.12l.5-3.5,2-2-3-9,.5-4,2-2-.5-.5.5-2-.5-2.5,1.5-1.5-1-1,.5-1.5h3l1-2.5,2-3,1.5.5.5,1.5h2.5l1-3.5,1-.5-1-1,.5-1.5-1-3.5.5-1.5-1-2v-3h.5l-.5-1.5v-2l-2-.5-2.5-4,3.5-3v-3l1.5-3.5,5.5-3-.5-2,1.5-2,1,1,1.5-.5-1-2,2-1.5v-2l1-2v-2h2v-1.5l2-.5,1-4-.5-1.5,1.5-1.5-.5-1,.5-1.5-4.5,1,2.5-4.5,6.5-2.5,4.5-4,.5-.5-1-.5v-1.5l-1.5-.5v-1h-1.5l1-1h-2.5v-1l1-.5-.5-.5v-.5l-.5,1-.5-1.5-1,.5v-2l4.5-1,1.5-2h3v-3.5l1-2-2-3.5,3.5-.5.5-3,4.5-3.5-1-1-1-.5-6.5,1-3.5-3h-2l-1.5-1.5.5-2.5-.5-.5,4.5-3.5h6l1.5-2v-3.5l8-7,5.5-1.5,2.5.5,4.5-2.5,2-3-1.5-2-1-1,.5-1h4.5v-1.5l1.5-1.5,3.5,1,2.5-3.5,3.5-1.5h4l1.5,2.5,2,.5.5-.5,3.5,1,2-1,6.5,3.5,1-2-1-2.5,4.5-1-2-1.5,3-3.5,2,.5,2.5-4,2.5-.5,1,1,4.5-2.5.5-3.5,1.5-2,6,.5.5,1.5-.5,2,1.5,3,3.5.5,1,2,4-1.5,3,1.5,5-1,1-1.5.5-2.5,2.5-1.5.5-2h4l4.5-5,.5,6,1,2-1.5,1.5.5,1.5-1,4,.5,1.5-.5,1,.5,1.5-2.5,1.5v2.5l-2,2-.5,4.5-1,1.5h-1.5l-2,6-2,1-2.5,3.5-1.5,3,.5,2-2.5,3.5-1,7-1,.5v1.5l1,1.5-1,1,.5,2,5.5,3.5,1,1.5-1,1.5v1.5l2.5-1.5v-2l12-.5,1-1,2.5.5.5,1.5,2,2.5,4-1,5.5-3,3-4,4-2.5,1.5.5,1.5-1.5,1.5.5,1-1,.5.5,4.5-2,2-3.5.5-5.5,1,4.5,1.5.5,2-1.5v-2.5l2-1v1l1.5,2,2.5,1-1,5,2.5.5-1,2.5,2,1.5v2.5l-1-1.5-1,1.5,1,1,.5,2.5,3.5,1,.5,2-1.5,1.5,1.5,1.5,1-1,1,1.5-1,2.5,3,1.5,1,2.5-.5,1,1,1v1.5l1,1.5-1.5,4.5,2,6,2.5,3,.5,1.5,1,1,5,1.5v-4l2-1.5v-1.5l4.5-1.5,1.5.5,2.5-3-2-13.5-1.5-.5-3,2.5-1-1.5-2-1-1-1.5h-1.5v-3l1.5-3-.5-1,2.5-1.5v-2h-1l1-2.5,2-1v-2.5l1-.5.5-1h3l3.5-2,.5-2,2.5-2,.5,2.5-2,5-.5,8-.5,1,.5,3-1,1.5v-1.5l-1-2-2.5,1.5-1,2,1,2.5,1.5,1,.5-1.5,2,1.5.5-1,8.5,2.5,2-2,4-1,2.5-2-.5,1,.5,3.5-3.5,4.5-1,3.5,1.5.5-.5,1,.5,2.5-.5,1,.5,2.5-.5,3,1,2.5-4.5,2.5-2,5.5.5,2,3,.5,13-7,8-6.5.5-4,4.5-6,2-6.5-.5-3-1.5-3-1-5,4-9.5,2,2v2l3,4,1.5,4-2.5,12v3l1.5,1-1.5,4.5.5,2.5,3.5-1,3-3,1.5-7.5-.5-7-2.5-8-2.5-4.5v-6l-3.5-6.5-1,1.5.5,1.5h-2l-1-7-1.5-2.5-1-3.5-4-1,2.5-2.5,11.5.5,12-2.5,4-4,4.5-7,.5,3-1.5,7.5,1,1,1.5,4-4,4,.5,2h1.5l2,2-2.5,4,.5,1.5-4,2.5-3.5-1-3,2-4-1.5-1.5,1,.5,4-1,6,1,2.5,1,2.5,3-1,.5,3-1,1.5.5,1.5,1,.5.5,3,2,3-1,2-3.5,1,.5,5,2,1.5,1.5,5.5v1l-2,.5,1,3-.5,1-2.5,1-.5,1.5-2.5,2.5-.5,2v2l-1.5,4,1,1.5-2,2.5-.5,3v1.5l-2,3.5-1,3.5-4,1,.5,2.5-1.5,1-6.5-3.5-3.5,3-1.5-1-1,.5-3.5-5-3,1-3-1.5-2.5,4-.5,3.5-6.5-2.5v2h-1l-3,3.5-3.5,1-2,3,.5,1.5,2.5.5-.5,1.5-5,5.5-3,.5-6.5,13-4,15-3.5,8-8-5.5-.5-2-2-3-3-1.5-4,1.5-1.5,2-2,1-2.5-2.5-3.5,2.5-5-.5-2,1.5-4-3-3,.5v-2.5l-3-2,.5-2.5-1.5-1,2-2-.5-3.5-2.5-.5-.5-.5v-1.5l-.5-.5h-3.5l-.5-1.5-1-1v-1.5l2-1,1,.5,1-2-2.5-1.5-3,.5v-2l-.5-.5-3,1.5-1.5-2.5-4.5-.5-.5-2-3-.5-3.5,2.5,1,3-2-1-2,3.5v1l-2,.5v2l-1,.5.5.5v2h-3.5l1,3-5,3.5-3.5-1-2,1.5-1.5-1.5-2,3-5-3h-2.5l-1.5,4-3,.5-.5,3.5-4.5,5.5-.5,2.5,1,2.5-.5,2h1l.5,2-4,1.5-1.5,2.5-1-.5-2.5.5v1l1.5.5.5,1.5-1,1.5-3.5.5-.5,2-1.5,1-2-1-4.5,4.5-1-.5-3,2-.5-1-1,.5-1-.5-.5,1-1.5-.5-.5,2-3.5,2-2-.5-1,2,.5,1-.5,1,1,2.5-.5,1.5-1,.5-1.5-1-1.5,2.5-1.5-1h-1.5l-.5-2-1-1,.5-1.5h-1.5l-1-1-2.5,2.5-6.5,4-.5,1h-2.5v-3l1-1-1-4.5-1-1-.5-1.5-1.5-1v-1l-1-2.5-.5.5-1-2.5-2-1,.5-1.5-1-.5v-2.5h-1l.5-2-4-3-1-1.5.5-1.5-1-2.5-1.5-.5h-4l-.5-1-2,1.5-6-.5-.5,1.5h-3l-2.5,5-2.5-1-1.5-3.5-3.5,2-1.5-.5-1-2h-1l-3,2.5-3.5-1-2,2.5-3-1.5M268.62,613.12l-6,1-2-1.5v-1.5l2-.5,1,1-.5.5,1,1h3.5l1-1.5.5,1-.5.5M315.12,609.12h-2.5v-4l-1-.5-1-2-1-.5v-2l1-2,1.5,2,2,1.5v4.5l3,2.5-1.5-.5-.5,1M322.12,606.62l-2,2.5-1-1,2-5.5-.5-4.5,2-1.5,2,1.5-1.5,3v4l-1,1.5"/>
      <path data-code="ul_chskij_rajon" data-title="ul&amp;apos;chskij_rajon" class="cls-1" d="M382.62,757.12l1.5-6.5-1-1v-2l4.5-5.5h3l6.5-6.5,1.5-3.5-.5-5,6.5-7.5-.5-3v-2l6.5-1,.5-2,.5-6-1.5-2,2.5-1,6.5,1,1.5-3-.5-5,1-1,9.5-5h7.5l4-3.5,3.5,1.5,6-4.5-1.5-9.5-2.5-5-6-.5-2,1-3-1-4,2.5-1.5-2-2,1-1.5-3.5-3-.5.5,1h-1.5l-1-1-4.5.5-3,1.5.5,1.5-3,3-.5,2.5-1.5.5-3.5-1.5-3.5-4-3-1.5-8.5,1-5.5-3.5-3-.5v-2l-.5-1-2.5.5-3-5,.5-2,1.5.5v-1l-1.5-5.5-2-1.5-.5-5,8.5-4,4,2.5h4.5v-2.5l2.5-2v-4.5l5.5.5.5-1,3-.5,3,3v.5l1,1,2.5,4.5,2-.5,5.5,5,4.5,1.5,2,.5v-4l4-.5-1-2,1-2.5,4.5,3h2l3,4v4l5-.5,6,3.5.5-6,3.5-2,3.5-.5,1,1.5,2-.5,1,.5,2-3,3,2.5,4.5,1,1.5,1.5v2l1,1,.5,1.5-4.5,4.5-1,2.5v5l.5,1.5,2-.5,1.5,1,4.5-.5,1,3.5-2,5,3.5,2h9l.5,1.5,3,1.5,2,2.5-1,2,2,1.5-.5,1.5v1l3,1.5,3.5,1,.5,4.5,2.5,3v2l2,3.5,2,.5,4-3,7,7,3.5,2,.5-3.5.5.5-.5,5.5,1.5.5v1.5l-3,2-3,6,1,2,3,3.5.5,2-2.5,2.5-.5,2.5,1-.5,1.5,2,2-1v-1h1l-.5,1.5,1.5,2.5-1.5,4-1.5-.5-2,3,1,2,2.5,2-2,2,1.5.5,2,3,1,3.5,3,3,1,1.5-1,3,2.5,2.5-.5.5-3.5-1v3l-2,1.5-1,2.5.5,2-1,1-2,6.5-7,1-2.5-1.5-1-2-4,1-3-3.5-3-1-4.5,8.5-3.5-1-.5-1-1.5,1.5-7-.5-3,1-3,3.5-.5,4-2.5.5-3.5-2v-4l-3.5-4-1.5-3.5-3-.5-5,2-3.5,2.5-1-3-6-3.5-2.5-1-1.5.5-.5,2,.5,4.5-3,2.5-3-1-1-1-1.5,1-3-.5-4,4.5-1-.5-4.5,1-4-2-1,1v-1.5l-2-3v-1l2-2.5-.5-5,1-2-1.5-2.5-2.5-6.5h-2l-2,1.5-3.5-1-4.5,1-3-1-2.5,1-4-4.5-5-.5-4.5-3h-1.5l-.5-1"/>
      <path data-code="vaninskij_rajon" data-title="vaninskij rajon" class="cls-1" d="M495.12,889.62v-3.5l-2-1.5v-1l1.5-2-1-2.5,2.5-5,3.5,2,1.5-.5,2,1.5,5.5-4,2.5,1,4-4,3,1.5,2,2.5,4.5,1,1.5,2,2.5-1-1.5-9.5-4-1.5v-2.5l1.5-1-.5-1.5-3-4.5-1-4.5-4.5,5.5-3.5-1.5-5,2-3.5-1-4.5-4h-4l-1-2-3-2.5-1-3.5-1.5-2.5-2-.5-3-3,2-3-.5-4,3-1-.5-3.5-3-1.5-1,1-3.5-1-1-2.5-6-1v-1l-5-3.5-1.5-3v-6.5l-1-1.5.5-3.5,2.5-3,.5-2,1.5,1,4-5.5h4l.5-4,3-3.5,3-1,7,.5,1.5-1.5.5,1,3.5,1,4.5-8.5,3,1,3,3.5,4-1,1,2,2.5,1.5,7-1,2-6.5,1-1-.5-2,1-2.5,2-1.5v-3l3.5,1-1.5,2.5-.5,5,2,3,.5,8,5,4.5-.5,2,.5,4.5,2,2,3.5,2,3.5,5,2,1v3.5l2.5,3,1,3,2,3,3,1,5.5-1-.5,4-3.5,6,1,3.5-.5,2,1,1.5-1,1.5,4.5,4,3.5-.5,1,2.5.5,2.5,1,2,5.5,6.5-.5,3,2,2.5-1,2v5l1.5,1,1,4,1.5,1.5-1.5,1.5,1,1v1l-1,.5v3l1,1,.5-1,1,2.5,1.5.5-.5,2,2,1.5-1.5,2,1,.5-1.5,3-6,2v1l-6-1-5,5h-2.5l-4,3.5h-2.5l-.5,5h-2v1l1.5,1.5,3,5.5-.5,2.5-1.5-1.5-3.5-1-4.5,4.5.5,2,.5.5-.5,1-5,2.5-10.5-2-1-1-1,1.5-5,1-2.5,4.5-2.5-1.5-1-3-2.5.5-3-4,.5-5.5,4.5-6-2-3.5,1-1-.5-2.5,1-1.5-2.5-2-.5-2-2-2.5v-5l-1-1-1,.5-2.5,2.5v1l-3,1-3.5-1.5h-2.5l-1-3.5-3.5-1"/>
      <path data-code="verkhnebureinskij_rajon" data-title="verkhnebureinskij rajon" class="cls-1" d="M174.12,958.62l1.5-2.5-.5-2h-1l-1-1,1.5-7-.5-2.5,3-3-1.5.5-3-3-2,.5-.5-2.5.5-3h1.5l3.5-3-1-4-.5-1.5-.5-1.5,1-1-.5-1.5,1-.5-1.5-4.5,2-3h2.5l.5-2.5.5-.5-1-2.5v-2.5l2-2.5,1.5-1,4,2,2-1.5-1-2.5-2.5-3-1-3-2-1-1.5-2.5-2.5-2.5-1.5-3.5,1.5-2-2-1,8-1v-1.5l5.5-3.5,1.5-5,3.5-1,1-2.5,1.5-2.5,2,1.5.5-1v-2l2-3.5h1.5l1.5,2,.5-1,1-3.5,2-1,1-3-2-1-1-2.5-1.5-1.5,2.5-1.5,1.5,1,1-.5v-1.5l-1.5-2.5v-4.5l2.5-1.5h-1l2-3.5,2-.5,1-3.5-.5-1v-.5l5,.5.5-1.5,2.5-.5.5-1.5,2,.5,1-2.5,2,.5.5-2h2l2-2-.5-1,1-2.5,2-1-.5-1.5-2.5-2.5h-2.5l-2.5-2-1.5-3.5-3.5-1-.5-1.5,1-2-.5-.5.5-1.5-1.5-2h-1.5l-1.5-3-1-.5-.5-4.5,9.5-1.5,1,1.5,3-1,6,1.5,3.5-2,2,.5,1.5,2,2.5-1v-1.5l1.5-1,2.5,1.5,1.5-.5,1,1,1.5-3.5,6.5,1.5,1-1.5,5-1.5,3,1.5,2-1,2,2.5-2,3v3l1,2,1.5,1,.5,2,4,3,.5,3.5,5,3,3.5-3.5-1-1.5.5-1-.5-2,2.5-1,6.5-1.5h1l2,3.5,1,1,1.5-1,2,10.5,2,4.5-1.5,3,.5,1.5,2,2.5,1,.5,3.5,6-.5,2-3.5,2.5-.5,3,1.5,2-6.5,7v3l-1.5,4.5-4.5,3-1.5,3,4,1.5,7.5,9v4l-4,8.5v2.5l2,1.5,2,1,2-3.5,4,4.5,2.5,7.5,3-2,4.5-.5,1,1,4.5-2,1,3.5,1,1.5,1.5-.5-.5,5-2,2-1,2.5-1,.5-1.5,3,2,1.5,1,2-.5,2.5-2.5,2.5-.5,5-1.5,1-1-1-2.5,3-6.5,4.5.5,1.5,2,1.5v2l-4,2v1l-3,1-4.5,7.5-1,.5-2.5-3-2.5-1h-1.5l-3.5,5.5,1.5,3v4l-3,1-2.5,5,1.5,2.5,3,1.5-1,3h-2l-1,2.5,1,3.5-2,1.5.5,1-.5,2,1.5,4.5-1.5,1.5h-4v4l4.5,3,2,4-.5,6.5,1.5,2-.5,3.5,2.5,3.5-2,2,.5,1.5-1.5.5v1.5l-4-.5-2,4.5-1.5-1-3,.5-2-2,1-1.5-.5-1.5-2-2.5-2.5,1-2-.5-1-2-2-1-1.5,2h-3.5l-1,3,1,1,.5,2,1.5,1-3.5,2.5,2.5,2-1.5,2.5,1,1h1v2l-2-.5-2.5,1.5-5-3-1,3-3.5,1-1,4-3,2.5v2.5l-.5.5-1.5-2-2-.5-.5-9.5.5-3-2-1.5-1-3.5-1.5-2.5v-2l-1.5-2-2.5-1-1.5-2-2.5,2-1.5-2v-2l2.5-2h2v-2.5l-3-2,.5-3-1-2v-2.5l-3-1.5-1,.5-3.5-1.5,1-1.5-1.5-4-1.5-.5v-1l-1.5-1-.5-2.5-1-2,2.5-2-3-1.5-.5-3-4.5-.5-.5-1-1-1-.5-2.5-1.5-.5-1.5,2.5-3,.5-3.5-4-1,1.5h-3l.5,2.5-1.5,3.5-1.5-2.5-.5-1-3-1.5-.5-1.5,1.5-2,1.5-7-2-1-1.5-2-3.5-1-3,2.5h-2l-.5,1,1,3-1,.5-4.5-3"/>
      <path data-code="vjazemskij_rajon__khabarovskij_kraj_" data-title="vjazemskij_rajon_(khabarovskij_kraj)" class="cls-1" d="M403.62,1120.12l-1-4.5,2-4-.5-2.5.5-3,7-4.5,1.5-3-.5-2.5,2-6.5-1.5-3,1-4.5v-3.5l-1-1.5-4-2,4.5-2,1.5,2,2-1.5-1.5-1.5,2.5-.5.5.5h4.5l.5-1-1-3,9-4,2.5.5,2.5,3,4,.5,2,1,.5,4.5,2,1.5,1,9-1,4.5,2,2,2,4.5v2l4,1,.5,4h-1.5l-.5,3-1.5,1-1.5-1v1.5l-7-1-1.5,4,1,3-3,1.5-4.5-1v-2l-1-1.5-3-1.5-.5-2.5-.5.5-1,1-7.5,2-2.5,2.5h-1.5l-2,2.5-1,4-4-1.5-.5,5-1,1-4-2.5"/>
    </g>
</svg>