<svg data-code="RU-MAG" data-title="Слой 2" xmlns="http://www.w3.org/2000/svg" viewBox="0 0 519.25 616.75">
    <g data-code="magadanskaja_oblast_" data-title="magadanskaja_oblast&amp;apos;">
      <path data-code="jagodninskij_rajon" data-title="jagodninskij rajon" class="cls-1" d="M82.63,354.43l.5-2-1.5-2.5v-5l5-2.5,2-2,.5.5h4l2,1.5v-1.5l3-1.5h2.5l1,1h1.5v-1.5l1.5-1,2,.5,5-3h3l.5-3.5,3.5,1,1.5-5,3-1.5-1-2.5-1,.5-1.5-1.5v-1l-1-1.5v-2h2l-1-.5-1-2,2.5-4,4.5,1,1,1.5,4.5-.5.5-1.5v-4l5-3h1.5l.5,2h2.5l1.5,2,2.5.5,1,2.5,1.5-.5,1.5,1.5,1.5-1,2.5,1v-1h1.5l1.5,2,2-1,1.5.5,2.5-.5,1-2h1v2l2.5,2,4-.5v2l1.5.5,4-.5,5.5,1.5,1.5,1.5v1l1.5.5,1,1h1l1,1,3.5,2,1,3,1.5.5,1,.5v1l.5.5.5,2h-1v1.5l3.5.5v1.5l5-2h3.5l3,1,5-1.5,1.5,1.5,1-2,2,1.5,2.5,5,2.5.5v1l2.5,4,.5.5-.5,2.5,1,2.5,1.5,1.5,1,3.5,3,1,1.5,1.5,6.5-3,3.5,2.5-1,1.5,1,1.5-2,2-3.5-.5-.5,2,.5,1.5-3,2.5-1.5-.5-.5,2.5-1.5.5-1,3-.5,1,1,2-2,2.5,1,5-.5,2,1,1.5-2,3.5,2,.5,2,2.5,2,1,1.5,1.5,1,3-2.5-.5-4,5.5.5,1.5,1,1-1,4,1,1-1.5.5,1,2.5.5.5-3,5.5-1.5,4,1.5,6-3,4.5-6.5,3-4-2-1.5-2.5h-1l-2-2v-.5l-1-.5v-1.5l-1.5-1,.5-1-1.5-3.5-4-1.5-.5-2-3-.5-2.5-2.5v-1l-8-2-2,.5-1.5,3.5-2,1h-.5l-2-3.5-1,1.5-3.5-1-2.5,2.5-4-1-2.5.5-2-1-.5-1-1,.5-.5-1.5-4-2-.5-2-1-.5-1.5-2-2,.5-3-5-.5-.5v-.5l-1.5-3.5h-1l-1,2h-2l-.5,3-5.5.5-2-2.5h-1l-1-1,.5-4.5-3-2-.5-2-1-1v-1l-1-1-1-2.5-3.5-2-6.5,4.5-5-2.5-2-3-2-1.5-.5-1-4-3.5-2.5-5-1-.5,2-3.5-2-2.5-5.5-2.5-2-3h-2.5l-.5-1.5-1-.5.5-1.5-4-2.5-1,.5v-1l-1-.5-2,.5-1-1.5-.5,1-1-1"/>
      <path data-code="khasynskij_rajon" data-title="khasynskij rajon" class="cls-1" d="M275.63,523.76l-1-2-.5-4-3.5-2.5,1-3v-1l-1.5-.5.5-2.5-2-1v-2l-2.5-1.5.5-2-1.5-.5,2.5-6.5-1.5-2v-1.5l-1-.5,2-3.5,2-.5-.5-1,1.5-1.5-.5-2,3-1.5,1.5.5,1-2.5,2.5,1,.5-.5-1-.5,1-1-1.5-.5-1-2,2-2.5-.5-1-1-.5-2,.5-1-2-1.5-.5-.5-3,1.5-2.5-.5-2-3-1.5-1-1.5-2,.5-.5-1-2.5,1-.5-4,1.5-1-1-2-1.5-.5v-1h-1.5l.5,1-2.5,1.5-1.5-2-.5-1h-.5l-1.5-1.5v-1l-1-.5.5-5-3-.5-.5-1,.5-1-2.5-2v-1.5l-.5-1-1.5.5-1.5-2h-1.5l-1-4-1-1.5v-.5l-5-1-1,1-1.5-1v-1.5h-1l-.5-1-2.5-.5.5-2,3-5.5-.5-.5-1-2.5,1.5-.5-1-1,1-4-1-1v-3l3.5-4,2.5.5-1-3-1.5-1.5-2-1-2-2.5-2-.5,2-3.5-1-1.5.5-2-1-5,2-2.5-1-2,.5-2,1-2,1.5-.5.5-2.5,1.5.5,3-2.5-.5-1.5.5-2,3.5.5,1.5-2h2.5l1,.5-.5.5,1,.5v2l1.5,2,2.5-.5.5-1h1.5l.5,1h.5l2-4,1.5-1,.5-1-1.5-2,.5-1.5,1-1.5,1,.5,1-2.5v-2.5l-1.5-2.5,2-1,1-2,8,1,1-1,.5-4h2l2-1,2.5,4,.5.5.5,2,1.5,1.5.5,1.5.5,3-2,1,.5,1.5-1,.5h.5v1l2,2,.5,1v2.5l-1.5,1,3,2,.5,2.5,2,1,1.5,3.5h3.5l1,1.5h3l1,4,4.5,2v3.5l1.5.5v2l1,1.5h.5l.5,1.5-.5.5-1.5-1-3,2h-1.5l-1.5,4h-1l-1,7,1,2.5v1l4.5.5,2.5,1.5.5,1.5.5.5.5-1,1.5.5v1.5l1,1-.5,4.5-1,.5-1.5-.5.5,2-1,2,3,1.5,1.5,3-.5,1.5-2,1v1.5l-1-.5-4,3.5-1-.5-1.5,2.5h.5v1.5l1,1.5-3,2-.5,2.5,1,2v5.5l2.5,2.5,1,2-.5,3-2-1.5-1.5,1h-4l-3,2.5v3l2,2v3l.5.5,1,2.5,2,1.5.5,1.5-5.5,9-3.5,2,.5,2h1.5l1,1-.5,1,1.5,1v1.5l3,1v4.5l1.5,1-.5,1.5,1.5,1,2.5-1,2.5,3-3,2.5-1.5-1v2l-.5.5-4,1-2,4.5-2.5-1-2.5,2,3.5,6.5-.5,4h-5l-1,2.5-3.5,2-2.5-1.5"/>
      <path data-code="magadan" class="cls-1" d="M300.13,537.26l-3.5-5-1-7.5-2-2v-3.5l-3,2-3-1,.5-3.5-3.5-6.5,2.5-2,2.5,1,2-4.5,4-1,.5-.5v-2l2.5.5-.5,2.5,2,2.5-.5,1h1.5l1.5,1.5-3,4.5,1,1v.5l4,2,2,4v1.5l1.5,1,.5,2,2,1-3,3.5v1l1,.5h2l.5,2.5,1-.5h1l-1,1,1,1-4.5,4.5-.5.5-.5-1.5v-1.5l-1.5-.5-2.5,1.5-3,2.5v1h-1l3-5.5,2.5-2-.5-1.5-1-.5-2,1.5-1.5,3"/>
      <path data-code="ol_skij_rajon" data-title="ol&amp;apos;skij_rajon" class="cls-1" d="M122.12,576.62l-1-2.5.5-2,1.5-1.5v-.5l-1-1.5,1-3-.5-.5,1.5-2.5h1.5l2-3-1.5-1v-1l1.5-1,.5-4.5-.5-1v-1l2-1.5,2.5,1.5,2.5-.5h.5l.5,1h2.5l2-3-1-1,.5-1-1.5-1.5.5-1-1.5-.5v-1l-1-.5,1.5-1-.5-1.5h-1v-3h-1.5l.5-1-1.5-1.5-1.5-.5.5-1.5-1-.5,2.5-2.5,3-1.5-1-3,.5-1h-1.5l-1-1.5-2.5-.5-.5-2.5,9.5-7,1.5-2-1-1v-1l3.5-1v-1l1-1.5,3,.5,2,1h4l.5,1.5,3,2h1v1l1.5,1.5v2l2,1.5,4.5.5,1.5-3,1,.5.5-2,1.5-1h3.5l.5-4.5,4-3v-3l3-4,2-1.5h3.5l1,1.5,2.5,2,2-2.5,5,2,1.5,1.5v3l.5.5-2,3,.5,1.5-1,2h.5l-1,1.5h1l.5,1.5,1.5.5,1.5-2.5-.5-1.5,2-1.5,2,1v1.5l1.5.5,2-1,2.5,1v3l1-1.5h4l-1-3.5,1.5-3,2-1.5-2-1.5v-4.5h1l.5-2.5,1-1,.5-1.5,2-.5.5,1.5h1.5l.5,1,2.5.5.5-1.5,5-1v-3l-1-.5,3-1-.5-.5,1-2,1.5-1,2.5,1,1-1.5,1,1.5h1.5v1.5l2.5.5v4l.5,1,1,.5,1-2v-2.5l3.5.5,3.5,2v-2.5h2l1.5-2.5,3-.5,1-2h2l3.5,2,1.5,1.5-4,3,1,3.5,1.5,2-2.5,6,1.5,1-.5,2,2.5,1.5v2l2,1-.5,2.5,1,.5.5,1-1,2.5,3.5,3.5.5,4,1,1.5,2.5,1.5,3.5-2,1-2.5,5.5-.5,2.5,1.5,3-2.5v4l2,2,1,7.5,3.5,5-5.5.5-1.5-2.5-11,4-12.5,2-7.5,3-4.5,7-4,10.5h1.5l.5,1,1.5,1v1l1,1,4-1,1,.5.5,2,1,.5-.5.5-2-.5-2,1-1.5,4-2,1.5-3.5-1.5v-3.5l-2,.5-1,4.5.5,2.5h1l-1.5,1,3,4.5,1.5,1,2.5-.5v-3l1-1.5,1,.5,2-1.5,1,1-.5,2,.5,2.5,2,1,1,1.5v1.5l-4.5-1-1,1.5.5,2.5-1,.5-1-1.5-.5.5-3,4-5,2v-1.5l-.5-1-2-.5v-1.5l-2.5-2.5-4,.5-3,1.5-8.5,7.5-1,4,3.5,1.5v3l-1.5,1-2.5-1-2.5.5-1.5,3.5.5,1h1v1.5h-4.5l-2-1-2,.5-2-1-3,3.5-4-1-4.5,2-1-1.5,4.5-4-1-1.5-1.5-1v-4l-1.5-1-.5-2-1-.5-.5-2h-.5l-.5-3h-1.5l-1-1.5-1-.5,1-4-1.5-1.5-3-1v-1l-1-1v-1h-1.5l-1.5-2h-3.5l.5-1.5-1.5-.5-3,1.5-2,5-1.5-.5-.5-1-4-1v-.5l-1.5-.5-.5-1.5-1-.5-1-3-3.5-.5v2l-1.5.5-1-1.5-1,.5-1-2.5-1.5-1-3.5-.5-1-1h-1l-2.5,2.5-.5,3-7.5,5v1.5l-1.5,1.5-2-1-1.5.5-6-1-3-2-1,.5-.5-1v-.5l1.5-3-1-2-1.5-1-3.5,1.5-.5-1.5-1-.5M310.62,527.12l-2-1.5-.5-1.5-1.5-1.5v-1.5l-2-3.5-4-2.5v-1l-1-.5,3-5-1.5-1h-1.5l.5-1.5-2-2,.5-2.5,2-2.5-2.5-2.5-3,.5-1-1v-1.5l-1-.5v-4.5l-3.5-1v-1.5l-1-1.5.5-1-1-.5h-1.5l-.5-2,3.5-2,5-9.5v-1.5l-2-1.5-1-2-.5-.5v-3l-2.5-2,.5-3,3-2.5h4l1.5-1,2,1,.5-3-1.5-2-2-2v-6l-1-1.5.5-2.5,3-2.5-1-1v-1.5h-.5l1.5-2.5,1,.5,4-3.5h1v-1l2-1,.5-2-2-2.5-2.5-1.5,1-2-.5-2,1.5.5,1-1,.5-4-1-1v-2l-1.5-.5-.5,1-1-.5v-1l-2.5-1.5-5-1,.5-.5-1-3,.5-6.5h1.5l1.5-4.5h1.5l1.5-1,1,1,.5,1.5,1,.5v1l4.5,1,3-4,1.5,1,2.5-.5,3,2.5,2-1,.5,1,1,.5.5,1,.5-.5,2,1,4-1,1,1,2-2.5,2,.5.5-1.5h2l1.5-2.5-1-2,2-4-.5-.5,1.5-2.5-.5-1v-1l1.5-1.5h1.5l3-2,1.5,1,2-2.5,2,.5v1l1,1.5h3l1-1-2.5-1.5,1.5-2-1-1.5-1-1v-.5l2.5-3,1.5,1,2-5.5-.5-1.5,1-.5-1-1.5,1-3.5-1-2,.5-.5v-2.5l-2.5-1.5-1-2.5,2-2.5h4.5l.5,1,2-1,3.5.5,1.5-1.5,1.5,1.5,2-1,.5,1.5,3,3,1-.5,2,2,3-.5.5,1,2-.5.5,1.5h1.5l.5,1.5-.5,1,1.5,2v4l2,3.5,3,3v1l1,.5.5,1.5-2.5-1-1,1.5.5,1.5.5,4-2.5,2.5-.5,2.5,1,2.5-1,1.5,1,1.5,1,1-.5,2.5-2-.5-1.5,2.5-.5,3,.5,6-2.5,6-.5,5.5,1,6.5-.5,4.5,2,10.5,1.5,4.5,4,5.5-1.5,2.5,1,2v1l-1-3,.5-2.5-4,2.5-2,3.5,1.5,1,3,4.5,2,2.5,3.5,2,7,3.5v1l-.5-.5-.5-.5-3-.5-1.5-2-2,.5.5,3h1.5l.5,2v2.5l.5,1.5-1,.5v1.5l4,3,5-2.5.5-3-1-2-1.5-.5.5-2,2,1v2l2.5,1,.5,1,1,1,3-2-.5-1-4-1-1.5-2.5-1.5.5-1.5-1.5,5.5-.5,1.5-3.5,7,1.5,3-3-.5-1.5,1-1h2l2,2,3.5,1,3-.5,2.5.5.5,1.5,1.5.5-1.5,2,1.5,1.5,2.5,1-.5,2,2.5,1.5v.5l-4,1.5v2l-2-.5-4.5,3-.5,1.5,1,2,2,1-4.5,1.5-4.5-.5-.5-.5-3.5.5-3,5,2.5,2,1,1.5,1,1h-1l-.5,2.5-3,2-2,5-4,1-6.5-3.5-6.5,3-2.5-.5-4,1.5-1.5,3.5,1,1.5,1,2.5,2,1.5v1.5l-5.5,4.5-2.5,3.5,2,8.5,2,2.5-3.5,1-1.5,3-3.5-1-3.5,2-2.5-1.5h-4l-.5-1h-2l-.5.5,3,1.5-3,2-2.5,4.5v1.5l2,2-1,3.5-6,5-2.5,5.5-5,1-2.5,2-2,4-.5-1.5-2.5-1-1-1-2.5-.5-3-3.5-3-.5-5-3,4-1,2.5-5v-2l1-2.5,4.5-1.5,1-2h4l1.5-2.5,3.5-1,1-2.5,3.5-2.5.5-4,3-2-1-2-7-1-.5,1-1-1-2,5-2,.5-2.5-1-4.5,3.5-1.5-1,1-1.5-.5-1-4-1-.5-1-2.5-2-4-1-2.5,1-2-1.5h-1.5l-5,3-5,1.5-2.5,2.5M271.62,589.12l-.5.5-2-3h1.5l1.5-2,.5,3.5-1,1M410.12,466.62l.5-.5-.5.5M443.62,451.12l1-1,1.5-.5-1.5,1.5h-1M265.62,579.62h.5l1,.5h-1l-.5-.5M443.12,461.62h.5-.5M448.62,457.62l.5-.5.5,1-1-.5M348.62,536.62h-.5.5M271.12,593.12h-1l-.5-1,.5-.5-.5-1.5h1l.5,2h1l-1,1M317.62,571.12l-.5-4.5,2.5-5.5-1-3,3,.5,1,1-1,9-4,2.5M311.62,537.62l1-1.5v1l-1,.5M293.12,539.12l-1,1v-.5l.5-2,.5,1.5M395.62,460.62h.5-.5M257.12,562.12v.5-.5"/>
      <path data-code="omsukchanskij_rajon" data-title="omsukchanskij rajon" class="cls-1" d="M284.62,367.12l-.5-2-3-2,1.5-1-.5-2.5-.5-1.5-1.5-1.5v-1h-.5l1-1-.5-1,2-1.5-1-4-1.5-2-.5-2h-.5l-1.5-2-.5-1.5-.5-1-1.5.5.5-1.5h1.5l1-1.5,1-.5.5,1.5,3.5-1-1.5-3.5,1.5-1.5v-1.5l-.5-.5.5-1.5,1.5-2-.5-1-1-.5v-1.5l1.5-2,5.5,1.5,1.5-3.5,4.5-1v-.5l-1.5-1v-.5l4.5-4.5-.5-1.5,2-5.5-1.5-1.5-2,.5-1.5-.5-1-2-3-.5-1.5-1.5-4-.5-2,1-1-1-2.5-.5-1-1.5-4-2.5-.5-3-1-1v-2.5l-2.5-2.5,1-3h-1v-1l2.5-2.5,1-3.5v-1.5l-1-1,.5-1-1-3,1.5-1,.5-2,4-2-1-1.5.5-5-1-.5-1.5-2.5-2.5-2.5,1.5-2h-1l-2-2,.5-4.5,1-1-1.5-2.5-.5-2-1.5-1-1-2-1,.5-1-1-1.5.5-1-1-3-.5-.5-2-3-1.5-1,.5-4.5-.5v-1h-1l-4.5-6,2-1-.5-3.5-3-2.5-1-.5-2-4.5-1-1-.5-2-1.5-.5-1.5-3,1.5-2.5-1.5-3.5,3-5-1-1.5,1.5-1.5-.5-2.5.5-1-.5-1.5,2.5-2.5-1-2,1-1.5v-2.5l1.5.5,1-2.5v-2l-.5-1.5-1-1h2.5l.5-1-1-3.5v-2l3.5-2.5,1,.5,5.5-2h2.5l.5,1,1.5-.5v-1.5l-1-1.5-1.5-.5.5-2-2-1,.5-.5-1-1.5-2.5-1.5,5.5-5-.5-2.5,1-.5-1-1,1-1-.5-2.5-2-2v-2l4-3.5-3.5-1.5-1.5-3.5-3.5-.5-.5-.5-.5-.5-9-1.5-3.5,1,.5-.5-1.5-5-2-1h-5.5l-.5-3-1.5-1.5,3-4-.5-1.5,5-.5.5,1,1.5.5,5.5-2,2.5-2.5,1,1.5,3,.5v.5l1.5,1,2,1.5,1-1v-2l1-1.5-1-3.5,1-.5,1-3.5,5-2.5,1.5.5,2-.5,1,1,2,.5.5,1,1.5-.5.5,1h1.5v2.5l-.5.5-.5,2.5h1v1l.5.5,2-1,.5,1,.5-.5,4,1,2,3,2-.5,4,.5,2.5,2.5.5-.5,1,.5,2.5,6,1,1-1.5,2.5,1,3.5,2.5,1,1,1v1l.5,1,1,4-1,1,4,.5v1.5h.5l1,2,2.5,1.5-.5,2,2,1v2l3,1,.5.5h.5l.5,1h1l2.5,2,2.5-2,1.5,1h2.5l3-2,1,3v2l.5.5,1.5,2.5h.5v1.5l1,.5-1.5,1,3.5.5.5,1,1.5.5v3h-1l-1.5,3.5v1.5l1.5,1.5.5,2-1.5,3.5,1,1v.5l-5.5,2,1,1-.5,1,1.5,1.5-2,2,2,.5v2.5l1,1-2,2,1,1v1.5l-1.5.5-.5,2,1,.5.5,3.5,1,.5v1l2.5,1,1,1,3,2.5,4.5,1.5,1,3.5-1,2h-2.5v1l1.5.5v1l1.5.5,7.5.5.5,3-3,3,1,1-2.5,1.5v2l1,.5,1,2.5h1l.5,1.5h2l-.5,5.5,1,2.5,1,.5v1.5l3,1.5,1-2.5h1l3,2.5v1.5l1,1,1,1-.5.5,1,1-1.5,3-2.5,1,.5,2-.5,1-3,2.5,4.5,3-1.5,5.5-1.5,1.5,1.5,3.5-1,1.5.5,1,.5,4.5,2,1.5,5-1v1l1-.5,2,2h1.5l1.5,3,4.5-1.5,1.5,1,1,1,1.5.5,3.5-2.5,1.5,2v1l3,1.5v1l-1.5-.5-1,1.5-3.5,7v2h.5l1,3.5-.5,1h.5l-1,4-4,3.5v.5h1v1.5l3.5,6.5,3.5,3v1.5l1.5,1.5,3.5,3,.5,1.5h-2.5l-2.5,7-1,17h-1.5l-.5-1.5-2,.5-.5-1-3,.5-2-2-1,.5-3-3-.5-1.5-2,1-1.5-1.5-1.5,1.5-3.5-.5-2,1-.5-1-2-.5-4.5,2.5,1,3,2,1,.5,3-.5.5,1,2-1,2.5,1,2.5-1,.5.5,1.5-1,.5-.5,4-.5,1-1.5-1-1.5,1-1,2.5,1,1,1,1.5-1.5,2,2.5,1.5-2,1.5-2.5-1-.5-2-2-.5-2,2.5-1.5-1-3,2h-1.5l-1.5,1.5v1l.5,1-1.5,2.5.5.5-2,4,1,2-1.5,2.5h-2l-.5,1.5-2-.5-2,2.5-1-1-4,1-2-1-.5.5-.5-1-1-.5-.5-1-2,1-3-2.5-2.5.5-1.5-1-2.5,2.5.5,1.5-5.5-1v-1l-1-.5v-1l-1-1.5.5-1,1,1h1.5l-2.5-5-1-1v-3l-4.5-2-1.5-4-2.5-.5-1.5-1.5h-3l-1.5-3-2-1.5"/>
      <path data-code="severo-ehvenskij_rajon" data-title="severo-ehvenskij rajon" class="cls-1" d="M359.12,274.12l-.5-4.5-.5-1,1-1.5-1.5-3.5,1.5-1.5,1.5-5.5-4.5-3,3-2.5.5-1-.5-2,2.5-1,1.5-3-1-1,.5-.5-1-1-1-1v-1.5l-3-2.5h-1l-1,2.5-3-1.5v-1.5l-1-.5-1-2.5.5-5.5h-2l-.5-1.5h-1l-1-2.5-1-.5v-2l2.5-1.5-1-1,3-3-.5-3-7.5-.5-1.5-.5v-1l-1.5-.5v-1h2.5l1-2-1-3.5-4.5-1.5-3-2.5-1-1-2.5-1v-1l-1-.5-.5-3.5-1-.5.5-2,1.5-.5v-1.5l-1-1,2-2-1-1v-2.5l-2-.5,2-2-1.5-1.5.5-1-1-1,5.5-2v-.5l-1-1,1.5-3.5-.5-2-1.5-1.5v-1.5l1.5-3.5h1v-3l-1.5-.5-.5-1-3.5-.5,1.5-1-1-.5v-1.5h-.5l-1.5-2.5-.5-.5v-2l-1-3-3,2h-2.5l-1.5-1-2.5,2-2.5-2h-1l-.5-1h-.5l-.5-.5-3-1v-2l-2-1,.5-2-2.5-1.5-1-2h-.5v-1.5l-4-.5,1-1-1-4-.5-1v-1l-1-1-2.5-1-1-3.5,1.5-2.5-2-2.5-1.5-4.5-1-.5h-1l-2-2-4-.5-2,.5-2.5-3-3.5-1-.5.5-.5-1-1,1-1.5-.5v-1h-1l.5-2.5,1-2.5-1-1-1,.5-.5-1-1.5.5-.5-1-2-.5-1-1-4,.5-2-3.5-2.5-2-.5-3.5-1.5-1-1-3,1.5-1.5-1-1,2.5-5.5,2.5-2,1-5,2.5-1,1.5.5,3.5-4-2.5-5.5-1.5-2.5-1-2.5-2,1.5-2-.5-.5-1-1.5-.5-.5-2.5,4-3.5.5-3-1-1.5.5-1.5,4-4-.5-1.5-2-1-1-2.5-2-.5,6.5-2,1.5,1,2-1.5,5.5.5,1.5,1,2-3,1,1,1.5-2.5h6l.5.5h2l.5,1v1.5l1,.5v1l1,.5,3-.5.5.5h1l1.5,1.5,2.5-1,2.5,1.5.5,1,2.5-.5,1,1.5,4.5-1,5-4,2.5-5,9-4.5h2l1.5,1.5,2.5.5,4.5-2h3.5l2.5,1.5,1,1.5,2,1.5,3.5,1,.5,1.5h1.5l9-3.5,1.5-2,4,.5,1.5-3,6-3.5,2.5,1,.5,1h3l7-6.5.5-2,2.5-3.5,1,1,.5,4.5,2,1v1.5h2.5v1.5l6-.5,1,.5.5,1,1.5-1,.5,1,1.5,1h-.5l1,.5-.5,1,1,1,1.5-2,1.5.5-2,3.5.5,1.5,1.5,1-2.5,2,1,1h1l-.5,2,.5.5.5,1,1.5,1,1,3.5-5.5,2-.5,3-1,1v1l.5.5-.5,1.5,1,.5.5,1,1.5-.5.5,1.5h1l.5,1,.5.5.5,1.5h4.5l1,1,1.5.5v2.5l2.5.5-2,1,1,2-2,1.5v3l1.5,1-.5.5,1.5-.5h.5l.5,2.5h2.5l2.5-1.5,1.5,1,.5,1.5,2,1,1-1.5,2.5.5,1,2.5,1.5,2h.5v1.5l3,2-.5.5,1,2h-.5l.5,1-.5,1,1,.5-1.5,1v3l-2,2.5.5,1,.5-.5,1,1,1.5-1,3,.5.5,3.5,2.5.5.5,1h.5v1h1l1,2-4,4.5,2,1,.5,1-2,1.5-.5,3h-2l1,5,1,.5.5,2,1.5,1.5.5,1.5,1.5,1.5,1,1,5.5-1.5,2.5.5,1.5-1.5,4.5,1.5-1,1.5,1,1.5,5,1,.5-2,2.5-1.5,1.5,1v.5h1l1,2.5-1,.5.5,4.5,8,4,1,2,1,.5.5,1,2.5,1.5v1l2,1.5v1.5l1,2-2.5,3-1.5-.5v3l-3,3,.5,1.5-1,2,1,.5v1h-2l-.5,4,1,.5,2-.5,3,.5,1.5-2,5-2,.5,1.5,1.5,1,2,1-1,1.5,1.5,1,.5,1.5-.5,1.5-2.5.5-.5,3.5,3,.5.5-.5,3.5,3.5,1-1,1,.5,1.5-.5v4l2.5-.5,1.5,2.5,2,1.5-1.5,1.5,1.5,3.5-1,1.5,1.5.5v3.5l-1.5.5,2.5,2-.5,3.5v2l1,1-1,1.5,1,.5-.5,1,1,2-2,2.5-3-2.5-.5.5,3,2.5,1,.5.5,1.5v1l-3-1.5-.5.5,1.5,1.5v1l1,1-1.5,4.5.5,1.5-1,1,2,2v1.5l.5.5-3,1.5,1,2.5-.5,1.5h2l.5,1-1,2.5.5,2v2l-2.5,2,1.5,1v2l1,1-1.5,6.5v3l-1,1,1.5,1.5v2.5l3,5.5v1.5l1,1.5-5,.5,1,3-1.5,1-1.5-1-.5,4.5-1.5,1-1-.5v-2h-.5l-.5,1.5,2.5,4-.5,2,1,2.5-1.5,5-1-.5-2-3.5-1-.5v-1l1.5-1-2-1.5-.5-3-2.5-2.5-3.5-.5.5-.5-.5-1.5,1-.5-1.5-2-.5-1.5,1-2.5-.5-.5-.5-1.5h-.5l.5-3.5h-1.5l-.5-2.5-2,.5-1.5,3.5-3,.5-1,4,.5,1-.5,3.5-1,1,.5,1-1.5,1.5,1.5.5v1l.5,1h-.5l-.5-1h-.5l-2.5,1,.5-2-1.5-1.5.5-4.5-1-2.5-.5-.5-.5-3-2.5-1v-1l-1.5-1-3.5-.5,1-1.5-1.5-1-2.5,1v2.5l-1.5.5v-1.5h-.5l.5-1.5-1-.5v-.5l4.5-2.5h-4.5l1.5-3-1.5-2-1,.5,2.5-2.5-.5-.5v-3l-1.5-1-1.5,1-.5-4.5,2-2.5v-3.5l-2-.5-.5-.5-.5-2-1-.5.5-2-1-1.5h-2l-.5,1-.5.5,1-8.5-2-1.5-1.5.5v-2.5l-2.5-1v-1l-2-1-.5-1-1-.5-1.5,1v5.5l-2,4.5,1.5,5,1,1.5v5l-4.5,3.5,1.5,1-1.5,1.5-.5,3h-2l-.5-1h-1l-3.5-6-1.5,1.5,1,2-1.5-1-4,.5.5-2.5-1.5-1.5-.5-.5-7,2-4.5,3.5-.5,1h1v1.5l-2,1v2.5l2,3-2.5,2.5-2-.5-3,3v4h-3.5l-3.5,2.5v5l-1,1,.5,3h-1v1l-3,1-1-.5-4,1-8.5,6.5-.5,2,.5,1-.5,2.5.5,1,1,.5.5,2-1-1.5-2.5-1v-1l-1.5-2-3.5,2.5-1.5-.5-1-1-1.5-1-4.5,1.5-1.5-3h-1.5l-2-2-1,.5v-1l-5,1-2-1.5M487.12,268.12v.5-.5M432.12,236.62v-.5h.5l-.5.5"/>
      <path data-code="srednekanskij_rajon" data-title="srednekanskij rajon" class="cls-1" d="M149.62,308.62l2-2v-.5h-1.5l1.5-3-.5-3.5,1.5-.5v-2l-2.5-1-1-1,3-4.5v-1l-2-1-1-2,1-2.5-.5-1,2.5-1,1-2,6.5,1,1-1-1-1.5,1-1.5-1.5-1-1-1.5v-2.5l-4-.5-2.5-.5-3-2.5h-2l1.5-3-.5-3,.5-3,1-1.5-1-1.5-3,1-.5-3h-.5l-1-2.5-2.5-1-6-.5-1.5-1-.5-2-3.5-1-1-2v-2.5l-1-1.5,9.5-12.5h3.5l1.5,1v.5l3,1.5v1l1.5.5,2.5-1.5v-2l2-1-.5-1,2-2-1.5-.5v-1.5l-2-1v-1l-4-1v-1.5l2.5-4.5.5-2.5-.5-2,2-2.5v-6.5l-3-2-.5.5-2-1-4-.5-1.5,1-1-1-5-3.5v-1.5l-2.5-2-.5-1,.5-1v-1.5h-1l.5-3-4-7,1-1.5-.5-1-1.5-1.5,1-1,1.5.5,1.5-5h1.5l2.5-4,1.5,1-1-4.5,3-5v-2l2-.5-.5-5-2.5-1.5-2.5.5-1.5-1-1.5-4.5-1.5-2-1-3.5-1.5-.5-.5-1,.5-3-2.5-1.5-2,.5-1.5-4.5,2.5-7h2l3-4,4-1,.5,1,2,3h1l1.5-.5-.5-2,1.5-2-.5-4-1.5-1,.5-4-1.5-1.5-1.5-1v-2l-1,.5-1.5-1.5-4,1.5-1-3,1.5-2.5-.5-1.5-2-2v-1.5l1.5-1-.5-3,2-1,1.5,1,1.5-.5,5-2.5,1.5.5,2,2,3.5-4-2-1.5.5-1.5h1.5l-.5-2,2.5-1.5,1.5,1h4l2-3.5,4-1,.5-4h2l3,1.5,2.5-.5,1,1,1-1.5,2.5.5-.5-2,1.5-1,5-3h3v-1.5l-1-.5,1-3-1.5-1.5,1.5-3.5-2-1,.5-2,4,.5,1,1.5,6,1,1.5,1,3.5-.5,1.5,3-1,1.5,7-.5,3-3h1.5l2-3-1-1.5-2.5-1-1-2,3.5-5.5-.5-1-.5-4,5.5-5.5,2.5-5,3.5-.5.5,1,2.5-2,2.5-.5.5-1.5-.5-.5-3.5-2-.5-1-3.5-1.5.5-.5-1.5-2v-2.5l-1.5-2,.5-1.5,2-2,2.5-.5,1,1.5,3,.5,2.5-2.5h3l.5-1.5h2.5l2.5-3,.5,1.5,3.5,2,.5,1-.5,1.5,1,.5-.5,1,1.5,3-.5,2,1.5,1.5-1,2,1,1,.5.5,1.5,5h.5l-.5,2,1.5.5v1.5l1.5,1-.5,1.5,3,2,.5,1.5,9.5-2,1.5.5,3-2,2,.5,1,2.5,2.5,1.5-.5,2-4,4,1,2-.5,3-4,3.5.5,2.5,1.5.5.5,1,2,.5,2-1.5,1,2.5,1.5,2.5,2.5,5.5-3.5,4-1.5-.5-2.5,1-1,5-2.5,2-2.5,5.5,1,1-1.5,1.5.5,1.5.5,1.5,1.5,1v2.5l.5,1,2.5,2,2,3-2,2-2.5.5-1,3.5-1,.5,1,3.5-1,1.5v2l-1.5,1-1.5-1.5-1.5-1v-.5l-3-.5-1-1.5-2.5,2.5-5.5,2-1.5-.5-.5-1-5,.5.5,1.5-3,4,1.5,1.5.5,3h5.5l2,1,1.5,5-.5.5,3.5-1,9,1.5.5.5.5.5,3.5.5,1.5,3.5,3.5,1.5-4,3.5v2l2,2,.5,2.5-1,1,1,1-1,.5.5,2.5-5.5,5,2.5,1.5,1,1.5-.5.5,2,1-.5,2,1.5.5,1,1.5v1.5l-1.5.5-.5-1h-2.5l-5.5,2-1-.5-3.5,2.5v2l1,3.5-.5,1h-2.5l1,1,.5,1.5v2l-1,2.5-1.5-.5v2.5l-1,1.5,1,2-2.5,2.5.5,1.5-.5,1,.5,2.5-1.5,1.5,1,1.5-3,5,1.5,3.5-1.5,2.5,1.5,3,1.5.5.5,2,1,1,2,4.5,1,.5,3,2.5.5,3.5-2,1,4.5,6h1v1l7.5,1,1,1v.5l.5,1,3,.5,1,1,1.5-.5,1,1,1-.5,1,2,1.5,1,.5,2,1.5,2.5-1,1-.5,4.5,2,2h1l-1.5,2,2.5,2.5,1.5,2.5,1,.5-.5,5,1,1.5-4,2-.5,2-1.5,1,1,3-.5,1,1,1v1.5l-1,3.5-2.5,2v1.5h1l-1,3,2.5,2.5v2.5l1,1,.5,3,4,2.5,1,1.5,2.5.5,1,1,2-1,4,.5,1.5,1.5,3,.5,1,2,1.5.5,2-.5,1.5,1.5-2,5.5.5,1.5-4.5,4.5v.5l1.5,1v.5l-4.5,1-1.5,3.5-5.5-1.5-1.5,2.5v1l1,.5.5,1-1.5,2-.5,1.5.5.5v1.5l-1.5,1.5,1.5,2.5-.5,1.5-1.5-.5-1.5,1-.5-1.5-1,.5-1,1.5h-1.5v1.5l-1,1h-2l-.5,4-1.5.5-7.5-.5-1,2-2.5,1,1.5,2.5.5,2-1,2.5h-1l-1.5,1.5v1.5l1.5,2-.5,1-2,1-1.5,4h-1v-1.5l-1.5.5-2,1.5-1-.5-1.5-2,.5-.5-.5-1-1-.5v-.5l-2-.5-1.5-2,.5-2h-1.5l-1-1.5-1.5,1h-.5l-.5-1-5,2.5-1-1-3-1-1-3.5-1.5-1.5-1-3,.5-2-1-.5-2-4v-1l-2.5-1-3-4.5-1.5-1.5-1,2-2-2-5,2-2.5-1.5h-3.5l-5,2-.5-1-3-.5v-1.5h1l-.5-2.5-1-.5.5-.5-1-1h-1.5l-1-3-3.5-2-1-1.5-1,.5-1-1-1.5-.5v-1.5l-1.5-1-5.5-2-4,.5-1.5-.5v-1.5h-4l-2.5-2v-1.5l-2.5,2-3,.5-1-.5-.5-3-1,.5-1-2-1.5.5-4-1"/>
      <path data-code="susumanskij_rajon" data-title="susumanskij rajon" class="cls-1" d="M40.62,492.12l2.5-5.5-1-1.5,3-1.5-1-1.5.5-2-2-1v-1.5l2,.5,1-1,.5-1.5-1-1,1.5-1.5-1.5-1,1-1-1-1v-1l-2-.5-1.5-2h-.5v-1.5l-.5-1.5-3-2,.5-1h2l-1-1.5.5-2.5h4l1-4-1.5-.5-1.5-1.5-2-.5v-2l1-.5-3.5-2-.5-1.5,1.5-1.5-1.5-1-3,.5-2.5-5,.5-1-1-2-2-2.5-2-1,.5-1-3-3-2.5.5-.5-1,.5-1.5-5.5-5.5-.5-2-2.5-3v-5l1-1-.5-1v-1.5l-1-1,.5-1.5-1.5-4-2-2.5.5-2-2-1v-4.5l-.5-1.5.5-1.5-1-.5h.5v-1.5h1v-2.5l-1-.5v-.5l-1-1-.5-.5-2-3,.5-.5-4-.5v-1.5l4-7,2-1,1.5-4,3.5-3.5-.5-1.5.5-2.5-1.5-2,.5-1.5v-3.5l-1-1.5-.5-2.5-1-2.5h-.5l.5-.5-1-1,2.5-1.5,7.5-1,8.5-4h3.5l4,1.5,4.5.5-1-1,1-1.5-.5-2v-1l-1.5-.5-.5-.5,2-4,2.5-1.5-.5-1.5,1-1.5,5,2,.5,1.5-1,3h1.5v1.5l1,.5v1l3-2,1.5.5-.5,1.5,1.5,1,2-1v-1.5h1v1l3.5-1-.5-2,.5-1-1-1.5v-1l1.5-2.5-1.5-1.5v-1.5l-2-1,.5-3-.5-1.5,1-.5v-1l-1.5-.5-.5-1,.5-2-5-2-2.5.5-1-1.5-1,.5-.5-1-1-.5v-1l-1.5-1,.5-.5-2-.5,3.5-5-1.5-2.5,1-.5-.5-3.5,5-2,1.5.5v1h1.5l1,1.5h5.5l3.5-3,1-2.5,3-1.5,3.5-2,2,2,4-2,.5-.5-1.5-1-.5-1.5,4.5-1.5-.5-1.5.5-1-.5-2.5,1.5-5.5v-2l2-3,3.5-.5,2,2.5,5-1,.5,1.5v1h.5l-.5,2.5,1,1v3h.5l1.5,1h.5l2,2,3.5-1,1.5,2,.5.5,4-2.5,6.5-.5,2.5-1.5-.5-2-2-1v-2.5l-1-1-3.5-.5v-3l9-5.5.5-2,2.5-2.5,3-1,.5-3h1.5l2,1.5,4,.5.5,2,1.5,1,6,.5,2.5,1,1,2.5h.5l.5,3,3.5-.5.5,1-1.5,4,.5,3.5-1.5,3h2l3,2.5,2.5.5,4,.5v2.5l1,1.5,1.5,1-1,1.5,1,1.5-1,1-7-.5-.5,1.5-2.5,1,.5,1-1,2.5,1,2,2,1v1l-3,4.5,1,1,2.5,1v2l-1.5.5.5,3.5-1.5,3h1.5v.5l-2,2,3,1,2.5-.5,1,2,.5-.5,1,1-.5,1h1v1l-2,.5-2-2-2.5,1.5-1-1-1.5,1-2-1.5-1,.5-1.5-2.5-2-1-1.5-1.5h-2.5l-.5-2h-2.5l-4,3v4l-.5,1.5-4.5.5-1.5-1.5-4-1-2.5,3.5,1,2.5,1,.5h-2v2l1,1.5v1l1.5,1h1l1,2.5-3,1.5-2,4.5-3-.5-.5,3.5h-3l-5,3-2.5-1-1.5,1.5.5,1.5h-1.5l-1-1.5-3,.5-2.5,1.5v1l-2-1h-4l-.5-1-2,2.5-5,2.5v5l1,2-.5,2.5,1,.5,1-1,1,1.5h2l1.5,1.5.5-1,4,3-.5,1.5h1l.5,2h2.5l2,2.5,5,3,2.5,2.5-2,3,1,1,2.5,4.5,4,3.5.5,1.5,2,1,2,3.5,5,2,6.5-4,3,1.5,1.5,3,1,1v1l1,1,.5,2,3,2-.5,4.5-5.5,1.5-.5,3,.5,1.5-2,3-2.5,1,.5,2.5h-3.5l-1.5-1.5h-1l-2-2-6,4,1,3.5,1.5.5v2l2,1-1,.5.5,1.5,2.5,1v2.5l1.5,1.5v1l-3.5,1-3-3h-2l-3.5,4.5-4,2-.5-1-1-.5-1-2.5-3.5-4-2.5.5-3-1.5-4.5,1v1.5l2,3.5v1l-2.5.5v1l-2,.5v1.5l-1.5,1,.5,2-.5,1-1-.5-1,3-2,1,1,1-1,.5-.5,4,1,1.5h-2.5v1.5l1.5,1-2.5,4.5-.5,4,.5,2.5,2.5,1.5v2l1.5-1v1.5l2.5,1,1,1-2.5,1.5-1,2,.5,3-2,2-3.5-2.5-3.5,1-.5,1.5-2-1-1,.5-.5-1-1,1.5-2-.5-.5.5,1.5.5,1.5,3.5-2,1.5.5,2.5-1.5-.5-1,2-1-3-1.5,2h-4l-.5,4h-2.5l-1-1.5-2,2-3-.5-1-1.5-1.5-.5-4,5h-1l-.5-1.5-1.5-1"/>
      <path data-code="ten_kinskij_rajon" data-title="ten&amp;apos;kinskij_rajon" class="cls-1" d="M83.12,477.62l.5-1-1-2.5,1-2,2.5-1.5-1-1-2.5-1v-1.5l-1.5,1v-2l-2.5-1.5-.5-2.5.5-4,.5-2.5,2-.5v-1.5l-1.5-1v-1.5h2.5l-1-1.5.5-4,1-.5-1-1,2-1,1-3,1,.5.5-1-.5-2,1.5-1v-1.5l2-.5v-1l2.5-.5v-1l-2-3.5v-1.5l4.5-1,3,1.5,2.5-.5,3.5,4,1,2.5,1,.5.5,1,4-2,3.5-4.5h2l3,3,3.5-1v-1l-1.5-1.5v-2.5l-2.5-1-.5-1.5,1-.5-2-1v-2l-1.5-.5-1-3.5,6-4,2,2h1l1.5,1.5h3.5l-.5-2.5,2.5-1,2-3-.5-1.5.5-3,6-1.5.5,1,.5-.5,2.5,2.5h5.5l.5-3,2-.5,1-2,1.5,1,1,2.5-.5,1,1,.5,2.5,5,2.5-.5,1.5,2,1,.5.5,2,4,2,.5,1h1l.5,1,2,1,2.5-.5,4,1,2.5-2.5,3.5,1,1-1.5,2,3h.5l2-1,1.5-3,2-.5,7.5,1.5.5,1,2.5,3,3,.5.5,2,4,1,1.5,4-.5,1,1.5,1v1.5l1,.5v.5l1.5,2h1.5l1.5,2.5,3.5,2,7-3.5,3-4.5-1.5-5.5,1-2,2.5.5v.5l1,.5.5,1,1,1.5,1.5-1,3,.5,1-.5,1,.5v1l1,1.5.5,3.5,2,.5,1.5,2,1.5-.5.5,1v1.5l2.5,2-.5,1,.5,1,3,.5-.5,5h1l-.5,1,1.5,1.5,1,.5,1.5,2.5,1.5.5,1.5-1.5-.5-1h1.5v1l1.5.5,1,2-1.5,1,.5,4,2-1,1,1,1.5-.5,1.5,1.5,3,1,.5,2.5-1.5,2.5v3l2,.5.5,2h1l1.5-.5,1,.5.5,1-2,2.5,1,1.5,1,1-.5,2-2.5-1-1,2h-1l-3,1.5.5,2-1.5,1-4.5-2.5h-2l-1,2h-2.5l-2,3h-2v2.5l-3.5-2-3.5-.5v2.5l-1,2-1-.5-.5-1v-4l-2.5-.5v-1.5h-1.5l-1-1.5-1,1.5-2.5-1-1.5,1-1,2,.5.5-3,1,1,.5v3l-5,1-.5,1.5-2.5-.5-.5-1h-1.5l-.5-1.5-2,.5-.5,1.5-1,1-.5,2.5h-1v4.5l2,1.5-2,1.5-1.5,3,1,3.5h-4l-1,1.5v-3l-2.5-1-2,1-1.5-.5v-1.5l-2-1-2,1.5.5,1.5-1.5,2.5-1.5-.5-.5-1.5h-1l1-1.5h-.5l1-2-.5-1.5,2-3-.5-.5.5-2-1.5-2-.5-.5-5-2-2,2.5-2.5-2-1-1.5h-3.5l-3.5,3-1.5,5.5-4,3-.5,4.5h-3.5l-1.5,1-.5,2-1-.5-1.5,3-4.5-.5-2-1.5v-2l-1.5-1.5v-1h-1l-3-2-.5-1.5h-4l-2-1-3-.5-1,1.5v1l-3.5,1v1l1,1-1.5,2-7.5,5.5-3-2.5-1.5-4-1-1.5-4-3-2-6.5-2,1-1-5-7-1-.5-3-2-1.5.5-1-1-1-6-.5-1-2-1,.5-.5-1h-1.5l-2-1.5v-2h-1.5l-1-1.5-1.5-.5-2,1.5v-1l-1,.5-.5-2h-2l-1,1-.5-1.5-2,.5v-.5h-.5"/>
    </g>
</svg>