
<svg data-code="RU-NEN" xmlns="http://www.w3.org/2000/svg" viewBox="0 0 603.57 330.75">
    <g data-code="neneckij_avtonomnyj_okrug" data-title="neneckij avtonomnyj okrug">
      <path data-code="nar_jan-mar" data-title="nar&amp;apos;jan-mar" class="cls-1" d="M256.12,192.62l4-1,.5,1.5h-1l-1,1-2.5-1.5"/>
      <path data-code="zapoljarnyj_rajon" data-title="zapoljarnyj rajon" class="cls-1" d="M213.93,26.5l-10.5,3.5-6,4-7,7.5-3,4.5-4,7-3,6-1,3.5,2.5,6,14,11.5-1-1-6-5.5,12,2,12-.5.5,1.5,8-1.5-4-.5,3.5-2.5,4.5-2-1-1,.5-1,2.5-.5.5-1,2.5-1h1.5l1.5-2,1.5,1-1.5,1.5,1.5-1,4-1,.5,1v1.5l.5-4.5-.5-6-12-25-6.5-4-7-.5ZM239.43,66.5l-.5,1-.5,1,.5-.5.5-1v-.5ZM238.43,65.5v.5-.5ZM228.93,67.5l-.5.5h.5l.5-.5h-.5ZM234.93,68v.88l.5-.38-.5-.5ZM234.93,68.88l-1.5,1.12,1.5-1v-.12ZM237.43,69.5l-7,4h.5l6.5-4ZM232.43,70.5l-1,.5v.5l1.5-.5-.5-.5ZM229.93,74.5l-3,.5-2,.5h2.5l2.5-1ZM212.43,76.5l-5,1h2l3-1ZM198.43,81v.5h.5l-.5-.5ZM200.93,83l1.5,1,3,1-4.5-2ZM206.43,84l.5,1h2l-2.5-1ZM504.12,130.12l-.5,2,1,1.5v2.5l-2,.5-1.5,1.5v2.5l-.5,1-1.5-1.5-1.5.5-1.5-.5-3.5,1-.5-2-3-3v2.5l-2-1.5v2l-.5.5-1-3-1,1-5-5h-1.5l.5-1-1.5-.5h3l-1-2,1.5-1v-1h.5l-.5.5.5.5,1.5.5.5-1v-2.5l-1-.5-1-3.5-1-.5-.5,1.5.5,1h-1v-1.5l-1.5-.5,1.5-1v-.5l-4-2-1-2.5h-2l.5,2v2l-3-1.5-.5-3,.5-2-3.5-4.5-1.5-8.5.5-1.5,1-1h-1l-.5-1.5h2.5l-3-4.5v-3h1l-1-1.5h.5l.5-1.5,2.5,1.5,4,6h2l.5-2-1.5-1-.5-3-2-1.5h.5l-2-3.5,1.5-.5,2.5,3,.5-1-1-1,2.5,1,2-1,1-1.5-.5-1.5,1.5-1,3.5,1.5,4-1.5v1.5l-.5,1,4.5,9-.5.5,2,6v4l3.5,5v1.5l-.5,1,1,.5.5,2.5,3.5,1-.5,2.5,3.5,8.5v2h1.5l1,2v1.5l-1.5,1,.5,1M502.62,143.62l1,.5h-.5l-.5-.5M475.62,121.62h.5l-.5.5v-.5M479.12,123.12l-.5.5v.5l-2.5-1h3M521.62,138.12h.5l.5,2-1.5-.5-.5-2,1,.5M447.12,138.12h-2l-.5-.5h1v-1.5l1.5,1v1M446.62,144.12h1v.5h-.5l-.5-.5M600.12,208.12l.5,1-.5-.5v-.5M456.62,163.12l1,1-1.5,2.5v2.5l-1-1-.5-2,1.5-4v-2.5l-3.5-5.5-2.5-1.5-2-3.5v-2.5l1.5-1-.5-1,.5,1-.5,1,.5,2,6.5,7,2,3.5v2l-.5,1h-1v1M256.12,192.62l2.5,1.5,1-1h1l-.5-1.5-4,1M591.12,218.62l-2,3-5,1.5-2,3,1,.5,1,3.5-2.5,1,.5,1-1.5,1.5,4.5,3,.5-.5v-1l1.5-1,1.5,2-.5.5h2l-.5.5.5,1.5,2,1v1l1.5,2.5h2.5v-1l.5,2h3l-.5,2h1.5l-3,4,1,.5,1.5-.5.5,2-.5,1-2,.5.5.5-.5,1v1l2.5,3.5-.5,1.5,2,1v2l-3,2v2h-2l-1,1-1,1.5-1.5,1-1.5-1-3,1-4.5-3-2,.5v1h-1l-1-2h-2.5v-1l-1.5-1-2,1.5-1-1.5-2,2h-2l-.5,1-1-.5.5,1h-1v1.5l-1,1.5,1,1.5-1,.5.5,1-1,2h-.5l.5,1-3.5-1.5-3.5,2,1.5.5-2,1.5-5-.5-1,1-2-.5.5.5h-.5v.5l-2,.5-5,.5v2l.5.5-.5.5v1l.5,1-.5,1v.5l-1,.5v1l1.5,2h-1.5l-.5,1.5-.5-.5-1,1,.5,1-2,.5-2-.5-1.5,1.5v-1h-1v.5l-1.5,1.5,1.5,2.5-.5.5-.5,1-1-1.5-4-1-2.5-3.5h-2.5l-1.5,1v1l-.5.5-4.5-.5-1.5,2.5-1.5,1.5h-3.5l-1.5,1v-1,1l-1,1.5-.5,1.5-1,1h-2v.5l.5,2v3l-.5.5-.5,1.5-2.5,1.5.5,1-34.5,6.5-1,1-1-1v1.5h-1l1,.5-1.5,1-.5,1.5-1.5,1-1-1v1l-1-.5-.5,1-1-1.5-1.5.5v-.5l.5-.5-1-.5-1,.5v1h-2.5l.5-1.5-.5-.5-32.5-13-2.5,1.5h-3.5l-.5-1,.5-.5h1.5l1-1.5-157.5-69-40.5-27.5-3.5,1.5-1-.5v2l-3.5-.5v1h-.5l-2.5-1.5,1,1h-1.5l.5,1.5-.5-1-1,1-.5,1-.5-1.5-1,.5,1,1h-1l-1,1.5.5-1-2-.5-1-3-2.5-.5-1.5,1v3h-.5l-.5,1-2,1v3l-.5,1.5-86,7-22.5-13.5-5.5,6-2.5-2.5-3,2-1-.5-4.5,3.5,1,4.5-4,1-6-5.5-9-3.5-5.5-12-7-12.5-10.5-10-4-1-7-13.5-5.5-7-3-2-4-8,.5-5-4-8.5,3-1.5,3-.5,3-4.5,3-2.5,1.5-.5,2,1.5-1-5,.5-5,1-1,4.5-.5.5-1,1-2.5,2-1.5v-4l.5-3-1-3.5.5-.5.5-.5-.5-6.5-2-4-3.5-1.5-1.5-4.5,1.5-3,5-5.5,8-7.5,6.5-4.5,3-3,2,.5-1.5,1,.5.5,2-1-1.5-2.5,2.5-1.5,2-2.5,1-2v-2l2.5-3,2.5,3,2-1-.5-3-2-.5,2.5-2.5,1-3.5v1l1,.5.5-1.5-.5-1,3-2.5,4-5.5,3.5-6-1-8-6-18-1-7.5V.62l5,2.5,4.5,7,1,4,3,5.5,17,8.5,11.5,8,5,5,8.5,12-4-5.5.5,9v2.5l-1,1,1.5,2.5,1,9,2,4.5,1,3-.5,1-1.5,1.5-1.5,3-.5,5-1,3,1,2.5-1.5,1v1.5l-2,2.5-1.5-.5-6.5-5.5-7.5-1.5-2-1.5-4.5.5-9-4.5h-4l-2,.5-.5,2.5-4,4.5-3-1.5-8.5,2.5-3.5,3-3,5,2.5,8,7,12v2.5l-2.5,4,.5,2.5-1,3-.5,6.5.5,3.5,2,3v1.5l7,3.5,7,1.5.5,2.5h-1.5v.5l2.5,1.5,11,4,10.5.5,4,5.5v-2.5l7-3.5,2.5-3.5,3-5-.5-1.5,1-1.5-1-1,5-1,.5-1v-2l.5-1.5,1.5-1v-1l5-2,3-2.5,1-2-.5-4,1-1,.5-2.5,4.5-.5,1.5-1,.5,2,1.5,1.5,7.5-.5,2,3.5,6.5-.5,1,.5h-1.5l.5,1,4,1,2,4.5,1.5.5-2-3.5-.5-3.5-2.5-1-.5,1,.5-1,3-2-.5-1,2.5-3.5-2-8,2,2.5.5,4,2,2.5,3,2,4.5.5,23-2,27-6,12.5-5.5,6.5-.5,7.5,4.5-2,1-12-3.5-1,1-3-.5-2.5,1,.5,1.5,1-.5-1,1,1,.5,5,2,2.5-.5,4,1,4-1.5,2.5,2h2l.5-1-2-1,2-2,9,2.5h10.5l.5,2h-1l1-.5-1-.5-2.5,1-1,1.5-2.5-1v1l1,.5,1-.5,2,4h2l1,1h-2.5l-1,2.5h-3l-2,1-.5,1,1,3,4,2,4.5-1,2.5-1.5,2.5.5,2.5-2,1-1-1-3-1.5-2.5.5-3-1.5-1,1.5-2-1-.5-3,1.5-1.5-3,34.5-5,15,1,12,3.5,4.5,2.5,1,1.5h-1.5l-2-2h-3.5l-12-2.5-1.5-2h-4l-2,1.5,1,2.5h1l-1-.5.5-1,3,1.5,3.5,4.5v1l-1-.5-.5,1.5-2.5-1-.5,1.5-2.5,1.5v2.5l-5,2-1,1.5.5,5,1,2v3l-1,2.5-1,1.5-1,3h-3.5l.5,1-1.5,1-.5,2-1.5-6h-1l-1,1.5-1,2-.5-3-3.5-2.5-2,1-2-.5-4.5,3v1h1l-.5.5,1.5,2.5h5l3,3h2l4,5,1.5-.5,1.5,1.5,1-1.5,1.5.5,2.5-2.5,6.5-.5-1,1-1,2.5-1,1h-4.5l-.5,2.5-1.5,1,.5-1-2.5,3.5h-.5l-.5,1.5-6,4-6,1.5v1h4l5.5-3,6.5-5.5,2-4,3,.5,5-2,1.5,1v6l-1,1,1,2,4,3.5,2-1.5v-2.5l3-1v-1.5l-.5-3.5v-.5l3.5-1.5,3.5-4,11.5-3.5,4.5.5,4,2.5,11-2,1.5,1,2,4,3,2.5,8.5,1,3.5,6.5,4,4,6.5,2.5,5-1.5,1.5-1.5.5-1.5,1.5-1h2l1,1.5,7-1-2.5-2-3,1-1-1.5,2-1,6.5,3,3.5-1,2-3.5-2-.5,1-.5,26-1.5,10.5,4.5-1,.5-1-1h-2.5l-3-1-1,.5v.5h-2l5.5,7.5,2,5-1.5-.5,2,2-.5.5h-.5v1l1.5,1-.5.5-.5,2-1,1,.5,1-.5.5-6.5-2.5-.5.5-1,2-1,1h-1.5l-1,1.5-1-.5-1.5.5,2,.5-.5,1v1l1,2-3.5,4-1,3,12,11.5.5-1.5h1l4.5.5,1-2,4-2.5,1-4-1.5-5.5.5-4,1.5-1.5,4.5-2.5,1.5,4,12.5,2,9-5,2.5-3,2.5-.5,2,1.5-1.5,1.5v.5l5,2-3-2.5-.5-.5,2-.5,1,1-3-4,1.5-3,1.5-5.5,1-1.5v-4.5l-.5-2.5-1-1-1.5,1.5-1,3-1.5-2.5v-2l2-4.5.5-3-1.5-9v-2l-1-.5.5-1.5-1-2.5v-.5l.5-1-1-3,1-2-.5-2,1-1v-1.5l1-1.5,4-1.5,4,2.5,4.5,1.5,1-.5.5-1.5-.5-.5.5-1,2.5-.5,1-5.5,1-1v-1l2,1,1-1,4.5,3.5,1.5-.5.5-1v2l.5,1.5,3,1,1,1.5-.5,1,2.5,2,6,2.5,2,2.5,5,2.5,14.5,6.5,8.5,5.5,15,12,10,10,6.5,8.5,6.5,11.5-.5.5v1.5l-2-1-1.5,1.5-2.5-.5,2,2.5h-.5l-.5,1.5h-1l-1,2h.5l-1,1-.5,2M470.12,79.62h.5v.5h-.5v-.5M476.12,74.12l1,1,.5.5-1.5.5.5-1-.5-1M467.12,78.12h.5l.5.5h-.5l-.5-.5M468.12,79.12v.5h.5-.5v-.5M468.62,81.62v-.5.5M467.62,81.12l.5.5h-.5v-.5M471.12,88.12l.5.5h-.5v-.5M462.62,84.62h.5v.5h-.5v-.5M461.62,85.62l.5.5,1.5-1-.5,1.5h-.5l-.5,1-.5-2M594.12,217.12l-1,1h-1.5l1.5-1.5,1,.5M598.12,209.62v1h-.5l.5-1M603.12,212.12l-1,1v.5l-1,.5-1,2h-4l2-1v-3l.5-.5,4.5.5M458.12,176.12l-1-.5-.5-3,1-1v.5l1,3.5-.5.5M458.12,177.62v-.5,1h-.5l.5-.5M343.12,133.12l2.5,1,.5,1-.5-.5-2.5-1.5M323.62,134.12l-1-2,2.5,1,2,3.5-3.5-2.5M271.12,126.62v.5h1-1v-.5M268.62,127.62v-.5l1,.5-1.5,1,.5-1M265.62,126.62v.5-.5M115.62,54.12l.5,1-.5-1M313.62,164.62v-.5l.5.5h-.5M303.12,160.12l-.5,1.5-2,1.5-1.5-2.5,1-1.5v-.5l3-1,1,1-1,1.5M306.62,162.62v1l-.5-1h.5M119.12,65.12l.5-.5v-.5,1h-.5M297.62,164.62h.5l-.5,1-1-1h1M115.12,67.62l.5,2v.5h-.5v-2.5M115.12,73.62l.5.5-.5-1v.5M290.62,182.12l1-.5h.5l-1,.5h-.5"/>
    </g>
</svg>