<svg data-code="RU-MUR" xmlns="http://www.w3.org/2000/svg" viewBox="0 0 305.25 355.75">
    <g data-code="murmanskaja_oblast_" data-title="murmanskaja_oblast&amp;apos;">
      <path data-code="apatitskij_rajon" data-title="apatitskij rajon" class="cls-1" d="M103.62,138.76l3,3h1.5l2,5,2.5,2,1,3,3.5,4,1.5-1.5,3,3.5,5.5,2,2-1.5,1.5-2.5,12.5,3-14,20-9,18.5-6.5-4h-1l.5,2-.5,1.5h-.5l-.5,1.5-2.5-4.5-.5.5-.5.5-1,2.5-6.5-22.5,8,.5,2.5-1.5h3l4,1.5,3-3,2-2.5-13.5-14.5-1-3.5-5.5-4v-3.5h-2.5l3-5.5"/>
      <path data-code="kandalakshskij_rajon" data-title="kandalakshskij rajon" class="cls-1" d="M6.62,126.76l2-1.5,2-1,22.5-7v-.5l1.5-1,4,1v-1.5l14.5-3.5,8.5-6.5,1.5,9-4,11.5-6,21.5,35.5,2,12.5,20.5.5,4-1,1,6,20h-1l-14.5,5v-5.5l1.5-4.5,1-1.5,3.5,1v-1l-3-2-1.5-5-2.5-.5-1.5-3.5.5-2h-2.5l2.5,5.5v.5h-1l.5,1-1-1v1l-1,.5.5-1-1.5-3.5h-1l1,2.5-1.5.5v.5l2,2v1.5l3-1,.5-1.5.5,2h-.5l-.5,1-.5,2v-2.5h-1l-.5,1.5-.5,1,.5,1-.5,2-1-1.5,1-.5-1-.5-1,2-1-1-1.5,2.5-.5-.5-2,1,1.5,6-.5.5,2.5,1-3,1.5,2.5,3.5,1,5-2.5-1.5v1l2.5,2-1,.5v1.5l2,.5,2,4.5-.5.5,1,1.5-1,.5v1.5l-1.5-.5,2,3v2.5h-1l1,4-6-9-6-7-6-5h-1l-4.5,5-4.5-3-6,6.5-9-7.5-1.5-3,5-7.5-3.5-3.5,5.5-9-10-9.5-21-16.5h1L.62,146.26l1.5-9.5v-1l.5-.5,1.5-4,2.5-4.5M85.62,191.76l.5.5h-.5v-.5M89.12,194.76l.5.5-.5.5v-1M83.62,193.26v-.5l.5.5h-.5M84.12,199.76h.5-.5M84.12,205.26l.5.5v.5h-.5v-1M84.62,208.76l.5,1-.5-.5v-.5M86.12,220.76l.5.5-.5-.5M88.12,188.76l1-.5-.5,2-.5-.5v-1M87.62,191.76h-1l1-1.5.5.5-.5,1M85.62,190.76h.5-.5"/>
      <path data-code="kirovskij_rajon__murmanskaja_oblast_" data-title="kirovskij_rajon_(murmanskaja_oblast&amp;apos;)" class="cls-1" d="M143.12,158.76l14,2,3.5,7.5,1.5,1,.5-1.5,1-.5v1l-.5.5,1-.5-1,1v1l-2,1.5-1.5,4.5-.5,3.5,1,4,3,3.5-3,7.5-1.5.5.5.5-.5,1-3,.5-1,1.5-1,.5-.5,1-3,1-4,3v1l-2,1v.5l-1,1v3l-2,1.5-1,3.5h-1l-3,2.5-4.5-3v-1.5l.5-.5-1-1.5-4-2-1,3-2.5-3,.5-3,.5-2-2.5-.5-2-1.5v-5.5l9-18.5,14-20"/>
      <path data-code="kol_skij_rajon" data-title="kol&amp;apos;skij_rajon" class="cls-1" d="M196.12,45.26h.5-.5M199.62,62.76l-2-3.5h-1l.5-2.5,3-1,2.5,3h-1.5v.5l4,2.5-5.5,1M198.62,63.26v-1l.5.5-.5.5M198.62,63.76v-.5.5M193.12,68.26l1,.5v-.5h1l.5-1-2.5,1M69.12,30.76l14.5-5,33.5,29,10-1,11.5-2.5,13-2,8.5-7v1l3.5-3.5,3.5-1.5,4.5,1.5h2l1.5-1.5,2,.5,1.5-3.5,4.5,3.5,2.5.5,2-1,.5.5,3.5-.5,2,4,2,1.5-4.5,1.5-5.5-.5-3,1.5v1.5l-.5.5-.5,2.5,1,1,1.5,4.5,2,2.5,1,2-1,1,3,2.5,3-1.5v2.5l2,.5.5-1.5h-1l1-.5,1,1-1,1.5,1,.5,2.5-2h1l.5-1,2.5-1,4,.5-.5,1,1.5,2.5,1.5-.5,1,2.5,1-.5-1,.5-8.5,1.5-5,1-5.5,7.5-2,3.99-5,3.51-2-1-3.5,4,2.5,4,6-.14,5,1.14,1.5,2-1,2,1,1-2,2,.5.5,1-1-1.5,4v-1l-1,.5-2,2.5,4,3.5,9-11.5-.5-4v-1l.5-.5h-.5l2-10.51,3-5.5,2.3-2.75,1.2,3.26,3.5,2.5v1l4.5,2,4,4-2.5-5.5,1.5-.5h2.5l2.5,2.5,2.5,6-1.5.5-1.5-2-2-.5-.5,1,3.5,3-1,.5,1,2.5,7,6.5-2-.5,6.5,8-1.5,2,1,.5.5-1h1l2,1-.5-5,3,2.5,1,2.5,5.5,6.5.5,2.5h1l1-1,1,4.5h-1l1,.5v3h1.5l4.5,10-1.5-.5-.5,3.5-2.5,1.5-1-1-3.5,2.5-2-2v1.5l-2.5,1.5-15,1.5-20-16-30-21,.5,4.5-6,6,3.5,5.5-5.5,6.5-2,2.5,2,1.5-1,5-6-.5-.5-1,1-2.5-6-8-8-7.5-8.5-2.5-16.5-3-11,5.5-3.5-.5-17.5-5-11.5-5-22-5-1.5-13.5,5.5-20.5-8-18.5,11.5-22M197.12,64.76v-.5.5M195.62,64.76h.5-.5M252.62,124.26h.5-.5"/>
      <path data-code="kovdorskij_rajon" data-title="kovdorskij rajon" class="cls-1" d="M61.62,105.26l22,5,11.5,5,17.5,5-2.5,1.5-4,6-6,5.5,3.5,5.5-3,5.5-6,6-41.5-3,6-21.5,4-11.5-1.5-9"/>
      <path data-code="lovozerskij_rajon" data-title="lovozerskij rajon" class="cls-1" d="M284.12,330.76l.5,1.5h.5l-.5-1.5h-.5M271.12,208.76l.5,1.5.5-1,1-.5h-2M180.12,108.76l30,21,20,16,15-1.5,2.5-1.5v-1.5l3,1.5,1-1,1.5-1,1,1,1.5-1v-.5h1v-1l.5-.5,2.5,4,1.5,5h-.5l1,1.5,3,11.5,1,1.5-.5,2.5,2.5,4-.5,3,2,2.5,1,6.5,1,2-.5.5v1.5l1.5,5-1,6,1,2,.5,5,1,1.5-.5,4h1l1-1.5v3.5l1.5,2.5h.5v-1l1-1,.5.5.5,6,2,1.5,1,3-.5,1-1-1,1,5.5v2l2,1,.5,8-3,.5-3,4,.5,1.5-1,1.5,1.5,1,4,5.5,9.5,3.5,2-.5.5,4,3,7-5.5.5.5,10.5,3,1,1.5-1.5h3.5l-.5,2,1,1.5-.5,2,2.5,1-.5.5,1.5,3.5-1,4-2.5,3-2.5.5.5,1.5-1,2-2.5,2,1.5,2.5-.5,3-2,2-1.5,3-3.5,3.5v2.5l1,1.5,1.5,2,1-1v3l-2.5,2,1,3.5h-1l-2,1.5-.5,1.5-1,1,.5.5-.5.5-3,1.5-1-1v1.5l-1,1-1,.5-3,4-7.5,3.5-.5,1-3.5-.5-9,3-3.5.5-1.5,2.5h-3.5l-1.5.5-1.5,2-7,1-2-.5v-3.5l-1.5-1,1-2,1.5-.5.5-1.5-1-3.5,1.5-1.5,1-2.5-1.5-4.5h.5l-36-20-2-2.5-3-6v-1.5l1-1.5-1.5-4.5,2-3-2-3v-3l-4-3-5-1.5-2-6.5-7.5-2,.5-1-1.5-2-.5-2.5.5-3.5-1-.5-2-3.5-6-3.5-.5-1,1-2.5-3.5.5-1.5-1.5-.5-2h-2l-1-2h-2.5l-1.5.5-.5,1.5-2.5-2,.5-6,.5-1.5-.5-1.5v-1.5h1l1-2h1.5l.5-.5,1.5-1.5-1.5-6.5h.5l-1-1.5v-3l-1-2v-2l1.5-2.5-3-4-3,.5-3.5-4.5-.5,1-1.5-1-1,.5-1-4.5,1-.5v-1l4-3,3-1,.5-1,1-.5,1-1.5,3-.5.5-1-.5-.5,1.5-.5,3-7.5-3-3.5-1-4,.5-5,1.5-1.5v-1.5l2-1.5v-1l1-1-1,.5.5-.5v-1l-1,.5-.5,1.5-1.5-1-3.5-7.5,4-6,2.5-1.5,4.5-1,1-4.5,1.5-3,2-9.5-2-1.5,2-2.5,5.5-6.5-3.5-5.5,6-6-.5-4.5M293.62,319.76l-.5.5v-.5h.5M293.62,320.76v-.5.5M293.62,321.76h.5-.5M293.62,322.26v-.5.5M250.12,352.76l.5-.5h.5l-.5.5h-.5M269.12,168.76l-.5-.5v-.5l.5,1M269.12,168.76l1,2.5v.5l-1-1v-2M267.12,165.26l.5-.5,1,2h-1l-.5-1.5M268.62,173.26l.5-.5-.5.5M271.12,178.26h1l.5,1-1.5-.5v-.5"/>
      <path data-code="monchegorskij_rajon" data-title="monchegorskij rajon" class="cls-1" d="M100.12,133.26l6-5.5,4-6,2.5-1.5,3.5.5,11-5.5,16.5,3,8.5,2.5-3,7-9.5,8,4.5,5-3.5,6-7.5,8-2.5,1-1.5,2.5-2,1.5-5.5-2-3-3.5-1.5,1.5-3.5-4-1-3-2.5-2-2-5h-1.5l-3-3-3.5-5.5"/>
      <path data-code="murmansk" class="cls-1" d="M178.12,89.26l3.5-4,2,1,3.5-2.5,1,5,1.5,1-3,3.36-6,.14-2.5-4"/>
      <path data-code="olenegorskij_rajon" data-title="olenegorskij rajon" class="cls-1" d="M139.62,135.62l9.5-7.5,3-7,8,7.5,6,8-1,2.5.5,1h6l-1,4.5-1.5,3-1,5-4.5,1-2.5,1.5-4,6-27-5,3-1,7.5-8.5,3.5-5.5-4.5-5.5"/>
      <path data-code="ostrovnoj" class="cls-1" d="M298.62,270.54h-.5.5M296.62,270.54v.5-.5M292.62,267.04l5.5-.5-.5,1,.5,1-1,1h-1l-1-2-.5.5-.5.5v6h1l-.5,1,.5,2,2-.5,1.5-1.5v-1.5l-1-1v-2l2.5.5-1.5,3h1.5l1,2-3.5.5-1.5,1-3-1-.5-10M278.12,212.04l.5-.5v.5h-.5M271.12,209.54l1.5-.5.5.5-1,.5-.5,1-.5-1.5M278.12,242.54l3-3.5,3-.5,2,2.5.5,2h-1v1l.5,2h2l-.5-2,2,4.5,3,1.5,2-9,1,5.5-2,8,.5,1h-2l-9-3.5-4-5.5-1.5.5-.5-1,1.5-2-.5-1.5M303.12,284.04l.5-.5h.5l.5,3.5-1.5-3M293.12,319.54l.5.5v2l-.5.5v-3M284.12,331.04h.5l.5,1-.5.5-.5-1.5"/>
      <path data-code="pechengskij_rajon" data-title="pechengskij  rajon" class="cls-1" d="M200.12,19.12v-.5.5M191.62,16.12v.5l-.5-1,1-.5-.5,1M86.12,11.12l16.5,1.5,1,4.5,8-2,.5-.5,2-1.5v-.5h1.5l3-2.5.5-2,2-2,3.5.5,3.5,3.5,4.5-.5,1.5-1,4,.5,1,2.5,3,.5,3.5-1,2-2.5h2.5l1.5-1.5,2.5-5-1-.5.5-1,2,.5.5,2,1,6.5v4.5l5,5.5,3,.5,2.5-1,2-2.5,1.5-2.5,1-.5v-3h.5l.5-.5,1.5-4,3,3,5,11-.5,2-2.5,1-.5,1h1l2.5-1.5,1,.5,4,6,.5.5-.5-4.5,1-1.5h1.5l1.5-2.5,2.5-1.5h1.5l1.5,5-.5,1.5,2,1.5,1.5-4.5-.5-2h1.5l.5-2-1.5-1.5,1.5-1,1-1h1.5l.5,1.5h-.5v.5l2,1,1.5,3.5-.5,2.5,1.5,1.5.5,3.5,1,2-1.5.5v2h1.5l-1,.5,1,2h2l4,5.5v1l1,1.5-.5.5v.5h1.5l-.5,2.5-.5-.5-.5,1-1,.5v.5l-1,.5-.5,1-.5.5-5.5.5-3-.5-5-7.5-.5-3h-1.5l-3.5-3.5.5-2.5,1-1,1,.5.5-1-.5-1.5-1,1-4,2-1.5-1.5v5l-2,.5-1.5-.5-1.5,1-3-.5-4-3.5-1.5,3h-2l-1.5,1-2,.5-4.5-1.5-3.5,1.5-3.5,3.5v-1.5l-8.5,7.5-13,2-11.5,2.5-10,1-33.5-29.5,8-5.5-2-3.5-4-3,.5-2.5M191.62,17.12l.5.5h.5l-1,.5v-1M210.62,35.12h.5l-.5.5v-.5"/>
      <path data-code="poljarnozorinskij_rajon" data-title="poljarnozorinskij rajon" class="cls-1" d="M88.62,149.62l6,.5,5.5-6h3v3.5l5,4.5,1.5,3.5,13.5,14-2,2.5-3,3.5-4-1.5h-3l-2.5,1.5-7.5-.5v-5l-12.5-20.5"/>
      <path data-code="severomorsk" class="cls-1" d="M197.62,85.75l2.5-1,2.5-2-2,10.51h.5l-.5.5v.86l.5,4.5-9,11.14-4-3.5,2-2.5,1-.5v1l1.29-3.45-.79.45-.5-.5,2-2-1.5-.64,1.5-2.36-1.5-1.64-5-1.5,3-3.36-1.5-1-1-5,1.5-1.01,4.5,2.5,4.5.5Z"/>
      <path data-code="terskij_rajon__murmanskaja_oblast_" data-title="terskij_rajon_(murmanskaja_oblast&amp;apos;)" class="cls-1" d="M91.12,200.12l14.5-5,1.5.5v2l.5-3h1l.5-1,2.5,5,.5-1.5h.5l.5-1.5-.5-2h1l6.5,3.5v5.5l1.5,2,3,.5-1,2,.5,4,2,2,1-3,4,1.5,1,2-.5.5v1.5l4,2.5,3.5-2.5h1l1-3,2-1.5v-3.5l1-.5v-1l1.5.5.5,4,1-1,1.5,1.5.5-1,3.5,4,3-.5,1,1v1.5l2,1.5-1.5,3v2l1,1.5v3.5l1,1-.5.5,1.5,6.5-1.5,1-.5,1h-2l-.5,1.5-1,.5-.5,1,1,1-.5,1.5-.5,6.5,2.5,2,.5-1.5,1.5-1,2.5.5,1,2h2l.5,2,1.5,1,3.5-.5-1,3v1l6.5,3,1.5,3.5,1.5,1-.5,3.5.5,2.5,1.5,1.5-.5,1.5,7.5,2,2,6.5,5,1,3.5,3,.5,3.5,2,3-2.5,2.5,2,4.5-1,1.5v1.5l2.5,6,2.5,3,36,19.5-.5.5,1,4.5-.5,2-1.5,2,.5,3.5-.5,1-1,1-1,2,1.5.5v4l-12,2-15.5-4.5-11.5-1.5-4.5-3-7.5-2-9.5-6-12-13.5-4-10.5-7-10.5-4-4.5-5.5-3.5-10-14-7.5-8.5-3-5.5v-1l1-.5v-1.5l-2.5-2,.5-2.5-1-1.5-1-8.5-3-3h-2l-.5,1h-1.5l-5-2v-4.5l1-1-1-1.5,4,1-4.5-5.5v-1l-2-1,.5-1.5h-1v-1l-1.5-.5-2.5-2.5.5-1.5-1-1h1l.5-1-.5-4.5-1,.5v-1l-.5-.5-.5,1-1-1.5v3l-1,1,1.5.5h-1.5v1.5h-1l-.5-3.5-2-.5-1-7-1-1,.5-1-1.5-3,.5-3-1-4.5M99.12,226.12v.5-.5M101.62,228.12l.5.5-1-1,.5.5"/>
      <path data-code="vdata-codejaevo" class="cls-1" d="M191.62,62.62h1v-1l3.5-2h1.5l2,3.5-1-.5v1.5l-2.5,1-2-1,.5,1-1,.5-1.5-.5-.5-2.5M193.12,68.12l1.5-1h1l-.5,1.5-1-.5v1l-1-1"/>
      <path data-code="zaozersk" class="cls-1" d="M195.77,49.9h1-1M196.27,44.9v.5-.5M182.77,46.4l3-1.5,5.5.5,4.5-1.5,1,1.5-2.5,1,1.5,2.5-1,1.5-.5.5h1.5l.5,2.5.5-1,1,.5v-1l1.5,4.5h-2.5l-.5,3-3.5,2v1l-3.5,1.5-3-2,1-1-1-2-2.5-2.5-1-4.5-1.5-1,1.5-4.5"/>
      <path data-code="zato_aleksandrovsk" data-title="zato aleksandrovsk" class="cls-1" d="M196.12,71.25l14.5-3,1,3-1.5.5-2,.5,1,1-3.5,4-3,5.5-2.5,2-2.5,1-4.5-.5-4.5-2.5,2-4,5.5-7.5"/>
    </g>
</svg>