<svg data-code="RU-NGR" xmlns="http://www.w3.org/2000/svg" viewBox="0 0 226.25 146.61">
    <g data-code="novgorodskaja_oblast_" data-title="novgorodskaja_oblast&amp;apos;">
      <path data-code="bateckij_rajon" data-title="bateckij rajon" class="cls-1" d="M48.12,16.12l2,1.5,1-1.5,2.5.5-.5-1.5,1-.5,2.5.5v-3l1.5-4h2l-1-1.5,1-1h3v-2l1,.5,1-1.5,2,1v1l1-.5-.5,1,2,1-.5,1,2.5-.5v2l-1,1v1.5l5,2.5v1.5h3.5l-.5,2,1.5-.5,1-1.5,3-2.5-.5-2,1-1,2.5.5v1.86l-2.5,3,.5,1.5-2,2.5.5,1,2-1.5,2,1.5-3.5,2.5,3-1,.5,1-1,.5h1.5l-.5,2-5.5,2-2-1.5-3,2.5-2-1-.5,1.5-2,1-4,.5-4.5-1,.5-1v-.5h-7l-1.5-.5.5-1-4-1-1-3.5-2.5-2h-1v-1l-2-1.5.5-.36,1.5-.5Z"/>
      <path data-code="borovichskij_rajon" data-title="borovichskij rajon" class="cls-1" d="M146.62,83.62l11.5-1,1,3,2.5,1,1-.5,2.5-5,4,.5-1,1.5-2,.5,3,9,2.5-.5,1.5,2.5-.5,1.5,2.5,4-.5,1-2,1,1,.5-1,1-1.5-.5-2,1-4,6.5,3.5,3-5.5,3.5,2.5,9-1,.5-2,2v-.5l-.5,1,3,3-1,1v1l-1.5.5v1l-2.5,3-2.5-1,.5-3.5h-2l-.5-1.5v-1.5h.5v-1l-1.5-.5-.5-3h-1.5l-.5-2.5-1.5-1.5v-2h-1.5v-1.5h-4l.5-2.5h-1.5l-.5,1.5h-2l-4.5-1.5.5-2-1.5-1.14,1-10-1-1,2-2,4-6.5v-2l2.5,1.5,2-3.5v-2.5l-1-3,.5-1,.5.14Z"/>
      <path data-code="chudovskij_rajon" data-title="chudovskij rajon" class="cls-1" d="M110.62,15.12l1-1-.5-.5h5.5l1-1.5,1-.5,1.5-1.5h-.5l2.5-1.5v-.5l.5,1.5,2.5-1,1.5-3.5.5-.5,1,.5v-2l2.5-2.5,2,1,1.5,2.5.5,1.5-1-.5v1l1,.5-1.5.5v.5l1.5,1.5,1.5-.5-.5-1.5h1l3,1v-1l.5,1,2.5-1.5,2-.5v1l-1.5.5,3,4.5-.5.5-.5,4.5,2.5-1-1,1-2,.5v.5h2.5l.5-1.5v1.5l-3.5,1v1l2,.5v1l-.5.5.5,1-1-1v2h-1.5v1l-1,.5.5,3,2.5,4-.5.5-1-1.5-1.5-.5.5,3.5-2-.5-1-3.5-5.5.5-2.5-2-2,1-.5-2-4,1v-1.5l-7,1.5,1,5-7.5,2.36-2.5-5.5-4.5-4.5-1-9.5,2.31-3.23,4.19,1.37Z"/>
      <path data-code="demjanskij_rajon" data-title="demjanskij rajon" class="cls-1" d="M69.78,98.57l.34,3.42,5-1,9-13,3.5-.5v-2.5l1.5-1,.94-2.42,5.06,4.56-3,5.5,4,1-4,5.36,6.5,1v2.5l-8,4.5-.5,3.14,1.5,6.86,7,4-1.5,3.64v1.36l6.2,7.63-1.2-.49-1,1-.5,2-1,1-.5-.5-.5,1-1,1-2.7-.26-2.3,2.76.5,1.5-2,2h-1l-1.5-2v-.5l1.5-1-1-1.5-1.5-1.5-1,1.5h-1l-1-2.5-1-.5v-1.5l-1,.5-3-3.5-1.5.5-2-.5-1,1-1-.5-1.09.47.59-1.47-.5-.5,1-1.5h1l-2.5-2.5,1.5-1.5-2.5-1.5.5-2-1.5-2,.5-2.5-.5.5-2-1.5-.5-5-2,5-2-2-.5,1-1-1.5-2,.5-2-1.5,1.5-1,3.5-7.64,4-4.5,2.16-.42Z"/>
      <path data-code="kholmskij_rajon__novgorodskaja_oblast_" data-title="kholmskij_rajon_(novgorodskaja_oblast&amp;apos;)" class="cls-1" d="M7.62,98.12l7-2.14,6.5,2,2.5,1.5h1.5l.5-1.5h-.5l1.5-.5.5,1.5-1,4.5,1,.5-.5,1.5-.5-.5v2l6,5.5-1,1,2,1.5.5,2h1l1-1.5.5,1.5,2.5,1h.5l2,2.14-4.5,5.5,1,1h.5v-1l2.5.5-1.5,1.5h1.5l-1,.5-1,1.5-3-1v-1.5l-1,1-4,.5-2,1v2.5l-1-1.5-3.5-.5-2,1-2.5-2.5-1.5,1.5h-1.5l-.5-3-.5-.5,1-.5-.5-.5-6.5-3.5-.5-2.5,1-2h-2.5l-2-1.5-3,.5-.5-.5,1.5-1-3-1.5v-4h.5v-1l7-7.5-.5-3"/>
      <path data-code="khvojninskij_rajon" data-title="khvojninskij rajon" class="cls-1" d="M164.12,79.62l3.5-.5v-.5l3,1-.5-5.5,3-4.5,1.5-.5,1.5,2.5,5.5-1.5,2.5-4.5h1l.5,2,1.5-3,1.5,3,1-.5.5-1,2,.5.5,1.5,2-1.5.5.5v2l1.5,1v-.5l1.5-.5-.5,5,1-.5,1,5,3,1.5,1,3-1,1,3.5,5-1,.5-.5,1h-1.5l-.5,1.5,2,3-1,.5v.5l2.5,2-1,1-1-.5,5.5,2-1,1.5v.5l-3,1-3,3.5,3,1.5v1l-1.5,1,1.5,2-2.5.86-.5,1.5,1-.5,1,3-3-2-4,1.07v-2.93l-8-5.5-1.5,1-.5-.5,1-2v-4l-2-1.5-4-1-6-4.5-1,.5.5-1.5h-3l-1.5-2.5-2.5.5-3-9,2-.5,1-1.5-4-.5-1-1.5"/>
      <path data-code="kresteckij_rajon" data-title="kresteckij rajon" class="cls-1" d="M89.62,64.49l7.5-3,2-2.5,6.5-.5,1.5-2,7,5.64-1,4,5,3.36-.5,1,5.5,7,.5,2.14-2,1-1,.86.5,2.64-2,6.5,2,3.5-1.5,4.5-2-.5-1.5-2-6.5,1.5-1-1-3.5,3.5-9-7.5-4-1,3-5.5-5.06-4.56,2.56-6.58-3-3-2.5.5-4.5-5-.5-1.5,7.5-1.5Z"/>
      <path data-code="ljubytinskij_rajon" data-title="ljubytinskij rajon" class="cls-1" d="M144.12,41.12l3.5-3.5,1,.5,2-1,1.5,1,1-1.5h1.5v-1l1.5-.5v-2l2-2,6-1.5,2,1.5,3-1.5,1-1.5,1.5.5,1,1.5-1.5,2.5,1.5.5v1.5l1-.5,1.5,3-1.5,3,1.5,1.5.5.5,3.5-4,7,6-2.5,3,1,1-.5,1,1.5,3.5v2l-1,1,.5,1-1.5.5-.5,1,3,1.5,2-1-1.5,2,.5,4-1.5,3-.5-2h-1l-2.5,4.5-3,1-2.5.5-1.5-2.5-1.5.5-3,4.5.5,5.5-3-1v.5l-3.5.5,1,1.5-2.5,5-1,.5-2.5-1-1-3-11.5,1-.5-.14-1.5-12.36v-3.64l-1.5-1.86-2,.5,3.5-4,3.5-3,3.5-5.5-2.5-2,1.5-2.5-5.5-4.5.5-2.5-1.5-1"/>
      <path data-code="malovisherskij_rajon" data-title="malovisherskij rajon" class="cls-1" d="M118.62,29.12l7-1.5v1.5l4-1,.5,2,2-1,2.5,2,5.5-.5,1,3.5,6.5,1.5-1.5.5,1.5,1.5-3.5,3.5,1.5,1-.5,2.5,5.5,4.5-1.5,2.5,2.5,2-3.5,5.5-3.5,3-3.5,4v1l-11,2-8.5-2.5-3,3.5-5.5-4,1-4-7-5.64,5-4-2-2.5,6.5-7.5-2.08-6.76,5.08-1.6-1-5"/>
      <path data-code="marjovskij_rajon" data-title="marjovskij rajon" class="cls-1" d="M41.62,116.49l4-5.5,2.5-1,1,.5,1-1-.5-1.5,3-.5.5,2.5,5.5,2.14,2,1.5,2-.5,1,1.5.5-1,2,2,2-5,.5,5,2,1.5.5-.5-.5,2.5,1.5,2-.5,2,2.5,1.5-1,1-.5.5,2.5,2.5h-1l-1,1.5,1,1-.5-.5-1,2.5-1.5-.5v1l-1.5,1h-1.5l-1-2.5v1l-4,1-3.5-1-2,1.5-1.5-1,.5-2.5-1.5-.5-1,.5v1l-1,1h-3l-1.5-2h-1l-1,.5-2-.5-2,1.5-3-1-.5,1-1-1.5,2-1-1.5-.5,1-1.5,1-.5h-1.5l1.5-1.5-2.5-.5v1h-.5l-1-1,4.5-5.5-2-2.14,2.5-1.5Z"/>
      <path data-code="moshenskoj_rajon" data-title="moshenskoj rajon" class="cls-1" d="M173.12,94.62h3l-.5,1.5,1-.5,6,4.5,4,1,2,1.5v4l-1,2,.5.5,1.5-1,8,5.5v2.93l-1.5.57-1,3-3.5,4-.5,2h-1v2h-1.5l2,5.5-3-.5v2l-3,2-1.5,2.5-4.5-.5-2,1-1-1-1.5.5-.5-3-4-3-.5-2.5-5,.5-2-2.5.5-1v.5l2-2,1-.5-2.5-9,5.5-3.5-3.5-3,4-6.5,2-1,1.5.5,1-1-1-.5,2-1,.5-1-2.5-4,.5-1.5"/>
      <path data-code="novgorodskij_rajon" data-title="novgorodskij rajon" class="cls-1" d="M83.62,37.99v1l-.5.5v1l-.5.5,1,.5.5.5-1,1h.5l1-1,.5.5.5-1,1.5.5,1.5-3.5,4,.5,1.5-1.5h-.5l.5-2-1.5.5-.5,1.5.5,1-4-1-.5-1,2.5-2-.5-1.5-2-.5-2,5-2.5.5M65.62,32.99h3v-3l4-.5,2-1,.5-1.5,2,1,3-2.5,2,1.5,5.5-2,.5-2h-1.5l1-.5-.5-1-3,1,3.5-2.5-2-1.5-2,1.5-.5-1,2-2.5-.5-1.5,2.5-3v-1.5l1-.5,1,1,6.5-.5,1.5-1v-1h2.5l.5-3,4-.5v1l1.5-1,1.5,3-1,.5.5,1.5-1,3,1,.5-2.5,3.5,1,9.5,4.5,4.5,2.5,5.5,2.42-.76,2.08,6.76-6.5,7.5,2,2.5-5,4-1.5,2-6.5.5-2,2.5-7.5,3-7.5,1.5-.5-4.5-16-15-.5-2.5-2.5.5-.5-1v-1.5l-1.5-1.5,2.5-3,2,1,3.5-4-3-1.5"/>
      <path data-code="okulovskij_rajon" data-title="okulovskij rajon" class="cls-1" d="M118.12,69.49l3.5-3,8.5,2.5,10.5-2,.5-1.5h2l1.5,2,1.5,16-.5,1,1,3v2.5l-2,3.5-2.5-1.5v2l-4,6.5-2,2,1,1-1,10-.5-1-1,.5-2.5.5-1,1-1-2-.5.5v1l-4,1,2-4.5-4-5-4-7.5,1.5-4-2.5-3.5,2.5-6.5-.5-2.5,1-1,2-1-.5-2-5.5-7,.5-1"/>
      <path data-code="parfinskij_rajon" data-title="parfinskij rajon" class="cls-1" d="M69.12,71.49l4-1.5.5-2,2-2,2,1,2.5-2h2l.5,2.5,4.5,5,2.5-.5,3,3-3.5,9-1.5,1v2.5l-3.5.5-9,13-5,1-1.5-15-4.5-5,.5-3,2.5-.5,1-1-.5-3,1.5-1.5v-1.5"/>
      <path data-code="pestovskij_rajon" data-title="pestovskij rajon" class="cls-1" d="M196.12,116.99l5.5-1.5,3,2-1-3-1,.5.5-1.5,1.5-.5,1.5-1.5,3.5-.5v-1l4,1.5v2l2,.5-1,2.5,4.5,2.5.5-1.5,1,1,1,3-2-2-1.5,2-.5,2.5,5,4v.5l-2-1,.5,2h1.5l-2,2.5,1.5-1.5v1l1-1,1,2,1.5-.5-2,3.5-.5,3h-1l1.5,1.5v2l-.5,1-2.5,1-.5,1-.5-1v1l-1,1-3.5-1.5v.5l-2.5-.5-.5,1-2-2-2,1,1,.5-1,1-.5-1.5-2.5-.5.5-1-2-1.5,1.5-1-2,.5-1.5-3.5-4-2-1.5.5-1-.5-.5,1-4-2.5-2-6,1.5-.5v-1.5h1v-2l4-4.5,1-2.5"/>
      <path data-code="poddorskij_rajon" data-title="poddorskij rajon" class="cls-1" d="M11.62,80.99l1,.5,1-1.5,2-.5.5-1,3.5-.5-1.5-1,.5-1.5,4,.5,7.5-2,1.5-1,10-.5,6.5,7.5-.5,5.5,1.5,2.5,1,4.5-1,1-2,9.5,1,1.5-3,2.5-.5,3-1,.5,2,.5-4,5.5-2.5,1.5h-.5l-2.5-1-.5-1.5-1,1.5h-1l-.5-2-2-1.5,1-1-6-5.5v-2l.5.5.5-1.5-1-.5,1-4.5-.5-1.5-1.5.5h.5l-.5,1.5h-1.5l-2.5-1.5-6.5-2-4-7v-4l2-1,2,.5v-.5l-2-2-.5,2h-1l-.5-1,1-2"/>
      <path data-code="shimskij_rajon" data-title="shimskij rajon" class="cls-1" d="M29.12,17.49l6,4,.5-.5h2v-1l1.5.5,2-1.5,1.5-.5-.5-1.5,1-.5.5-2h2l-1-1,1-.5.5,1.5,1-.5v1h-.5l1,1-1.5,1,2,1.5v1h1l2.5,2,1,3.5,4,1-.5,1,1.5.5h7v.5l-.5,1,4.5,1v3h-3l3,1.5-3.5,4-2-1-2.5,3,1.5,1.5.5,2.5,2.5-.5.5,2.5,2.5,2-5,4-10,2.5-10-6-.5-1.5,2-2,4.5-2.5v-1.5l-4-8h-2l-3.5-5.5-4.5-2h-3l-1-1.5-2-.5-1-1.5,1-1.5-1-1,1.5-.5-.5-2"/>
      <path data-code="soleckij_rajon" data-title="soleckij rajon" class="cls-1" d="M22.62,25.49l2.5-.5,1-2,2-.5,1,1.5,2,.5,1,1.5h3l4.5,2,3.5,5.5h2l4,8v1.5l-4.5,2.5-2,2,.5,1.5-3.5,2.5,2.5,6-3.5,1-5-2.5-.5-4.5-3.5-.5-1-1.5-1-1.5,1.5-.5-1.5-3,.5-.5-.5-.5-5-3,.5-.5-1-1,1.5-.5,1-1.5,1,1h1.5l.5-1,1.5.5.5-.5-2.5-2,.5-1.5-1-1.5v-2l-2-2h-2v-2.5"/>
      <path data-code="starorusskij_rajon" data-title="starorusskij rajon" class="cls-1" d="M53.12,54.99l10-2.5,5-4,13.5,13,.5,3.5h-2l-2.5,2-2-1-2,2-.5,2-4,2.5v.5l-1.5,1.5.5,3-1,1-2.5.5-.5,3,4.5,5,1.16,11.58-2.16.42-4,4.5-3.5,7.64-1.5,1-5.5-2.14-.5-2.5-3,.5.5,1.5-1,1-1-.5-2.5,1-2-.5,1-.5.5-3,3-2.5-1-1.5,2-9.5,1-1-1-4.5-1.5-2.5.5-5.5-6.5-7.5,7-8,5-3.5,2-2-2.5-4"/>
      <path data-code="valdajskij_rajon" data-title="valdajskij rajon" class="cls-1" d="M96.12,91.99l9,8,3.5-3.5,1,1,6.5-2,1.5,2.5h2l4,7.5,4,5-2,4.5.5,1-.5.5v1l2,.5-1.5,2,2,1.5-.5.5-1,.5v1l-1-.5-2.5,4-2,.5-1-1h-2.5l.5,1h-1.5l-1,2.5h-1l-1,1.5v3l-2.5-.5v-1.5h-1.5l-.5,1.5-1,.5-.5-2-4,.5-6.5-8v-1.5l1.5-3.5-7-4-1.5-7,.5-3,8-4.5v-2.5l-6.5-1,4-6"/>
      <path data-code="velikij_novgorod" data-title="velikij novgorod" class="cls-1" d="M83.62,37.99l2.5-.5,2-5,2,.5.5,1.5-2.5,2,.5,1,4,1-.5-1,.5-1.5,1.5-.5-.5,2h.5l-1.5,1.5-4-.5-1.5,3.5-1.5-.5-.5,1-.5-.5-1,1h-.5l1-1-.5-.5-1-.5.5-.5v-1l.5-.5v-1"/>
      <path data-code="volotovskij_rajon" data-title="volotovskij rajon" class="cls-1" d="M29.12,60.49l1.5-.5,2,1.5,3.5-2.5.5-1.5,2,1,3.5-1-2.5-6,3.5-2.5,10,6,2.5,4-2,2-5,3.5-7,8-10,.5-1.5,1-4.5-4v-3.5l3-1-.5-.5,1.5-.5,1-1.5-1.5-2.5"/>
    </g>
</svg>