<svg data-code="RU-KR" xmlns="http://www.w3.org/2000/svg" viewBox="0 0 337.25 443.46">
    <g data-code="respublika_karelija" data-name="respublika karelija">
      <path data-code="belomorskij_rajon" data-name="belomorskij rajon" class="cls-1" d="M296.62,208.97h.5-.5M307.62,215.47h.5v1l-.5-1M294.12,204.97l1,.5v.5h-1v-1M296.62,206.97l.5.5h-1l.5-.5M299.12,210.47h.5l-.5.5v-.5M292.12,207.47v-.5l.5-.5v.5l-.5.5M291.62,210.47l.5.5h1.5l-.5.5h-1l-.5-1M288.62,211.47l.5.5-.5-1v.5M287.62,212.97l-.5.5v-.5h.5M301.62,222.97v1.5l-.5.5.5,1.5-1.5-4,1.5.5M296.12,232.97l.5-.5-.5.5M301.12,228.97l-.5-.5v-1l2,1-1,.5v1.5l-.5-1.5M280.12,221.97v-.5.5M283.62,227.97v.5-.5M283.62,228.97h1l-1,.5v-.5M280.12,226.97h.5-.5M278.12,226.97v-.5l.5.5h-.5M278.12,226.97l.5.5.5-.5-.5,1.5-.5-1.5M279.62,227.97l1,.5-.5.5h-1l.5-1M278.12,226.97l-.5.5v-.5h.5M282.12,229.97h1-.5l-.5,1v-1M291.62,237.47h.5-.5M292.62,241.47h.5-.5M288.62,238.47l2,.5-2,.5v-1M286.12,236.97h1v.5h-.5l-.5-.5M288.62,236.97v.5-.5M295.12,242.97h.5v1h-.5v-1M292.62,243.47v-1l1,1.5h-.5l-.5-.5M297.62,250.47v1l-2.5-.5v-6l3,1v3.5l-.5,1M218.12,185.97l8.5-9.5,7,6,3-3.5-2-1.5,2.5-2.5,3,2.5,3-3.5v-5.5l1,1.5,1.5-1,3,.5,3.5-2,32.5,29.5,3.5,5,5,2-1,.5,1,2.5-1-.5-1.5,1,2.5,1.5-2,1,.5.5-1,1-3.5-2-.5.5-.5-.5-.5,1h-1.5l2.5,1-1.5.5v1h-.5l.5,1-1,.5.5.5h1.5v-.5l1.5.5-1.5.5h-1v1.5l-7,.5.5,1-2,1,.5,2,2-.5,1,1.5v-.5l.5.5.5-.5,1,3h-1v1l-1-1v1l-1.5-1v1h-1.5l-.5,1,1,2.5h2.5l.5,1.5h-.5v1l-1-.5,1.5,1h-2v1.5l-1,.5v.5h1.5v-1l1,2,.5-2.5,3,.5v1l-1.5,1-.5,1,1.5,1-1,1h-1.5l-1,1.5,1.5,2,4.5-.5,2,2.5,1-1,.5-2-1-.5,2.5-.5-.5,1.5h1l-.5.5,1,3-.5,2,2,1.5.5-1.5h1l-1,3.5-1,.5.5.5h-.5v1.5l-2,1,.5,1v1.5l-1,1,.5,1,2.5-.5,1,.5-.5,5,1,2.5-3,1,.5,4-2.5,2v1.5l.5,1h1l1,2.5,1.5.5-.5,1.5,1.5,2-3,5-1.5,1-1.5,3v.5l-1.5,2.5-8.5,4.5-13.5-8.5-2.5,1,1-6,.5-.5-14-12.5,3-4,2.5-2-4-3.5-.5-1.5,1-1.5-1-1.5,2.5-3.5-1-.5,1.5-2.5-1-1,1.5-2-1-1,1.5-2-1-1,6-8.5-9.5-6.5-1.5-4-4-.5-5,2.5h-1l-7.5-7.5,3-4-12-11,2-2-4-3.5-2,2,2-3v-3l-1-1-1.5-9M307.12,262.97l-2-2.5.5-1.5h.5v1.5l1,.5-1,.5,1.5.5-.5,1M300.12,257.47v.5-.5M302.12,258.47l.5-.5v.5h-.5M294.12,252.47v.5-.5M300.62,252.97l-1-1,.5-.5.5.5v1M300.62,252.97l.5.5h-.5v.5-1M301.62,249.97l1-.5v2l-.5-1-.5-.5M286.62,238.97l.5-.5.5.5-.5.5-.5-.5M304.12,250.97v.5-.5M287.12,240.97h.5-.5M284.62,239.97h.5-.5M301.62,255.97h1l1-1-1.5,2-.5-1M307.62,257.97h.5l1,2.5-1-.5-.5-2M307.12,258.97v.5-.5M299.12,254.97v-.5.5M307.62,263.47h-.5.5M307.62,269.97l.5,1-1.5-1,1-1.5-1.5-1v-1h1l1.5-.5-.5,1,1,.5-.5,2,1.5.5-1,3-.5-.5,1-.5v-1.5l-2-.5M295.12,269.97h1v.5h-1v-.5M294.62,268.97h-.5.5M299.62,265.97l.5.5-.5-.5M304.12,270.47l.5.5h-.5v-.5M295.62,266.97v.5-.5M303.12,276.47l1.5-1.5.5,1-1,.5h-1M293.12,268.97h.5-.5M294.12,270.47h-.5,1-.5M295.62,271.97v.5-.5M294.12,271.47h-.5.5M295.62,281.47h.5-.5M303.62,261.97l.5,1h1-1.5v-1M306.12,265.47h.5v.5h-.5v-.5M300.62,261.47v.5h.5-.5v-.5M299.62,264.47h.5-.5M303.62,264.97l1,1.5-1.5-.5.5-1M300.62,263.97h-.5l.5-.5v.5M293.12,256.47h1v.5h-1v-.5"/>
      <path data-code="kaleval_skij_rajon" data-name="kaleval&amp;apos;skij_rajon" class="cls-1" d="M189.12,80.47l.5-.5,6.5-1.5,2-3,3.5-4,7-2,.5-7,6.5,2-1,.5,13,12.5-3.5,4,21.5,20.5-3.5,4,18,17.5,2-.5-.5,1,2.5,2v1.5h3l2.5,2-3.5,2-2,3.5-.5-1-2,.5v.5l-5,.5v10.5l-14.5,1,1,20.5v6.5l-3,3.5-3-2.5-2.5,2.5,2,1.5-3,3.5-7-6-8.5,9.5v-3l-1.5-1.5-.5-2.5,2-2.5h-5v1l-.5-1-2.5,1-2-.5-1.5-3-2.5-1v-2h-1l.5-1-.5-1.5-.5.5h-3.5l-.5-.5h1v-1.5l-1-1.5h1l-3-3-3-1-.5-2.5-2-1,3-.5v-2l-2.5-2.5,1-1-2-1.5,2-2.5-2-1.5,1.5-1.5-1-1,6-6.5-.5-.5,2.5-3.5-3-2.5.5-1-1.5-1.5,2.5-3v-2l8.5-9.5-3.5-2.5-3.5-4.5,2-2.5-12.5-11.5v-2l4-1.5v-.5l-1.5-3.5-2.5-3,.5-2"/>
      <path data-code="kemskij_rajon" data-name="kemskij rajon" class="cls-1" d="M242.12,146.97l14.5-1v-10.5l5-.5v-.5l2-.5.5,1,2-3.5,3.5-2,22,20,14.5-15.5,14.5,12.5,16-17v1l-.5.5-.5,2.5,1,2.5-2,1,.5,1-2,2,1.5.5-.5,1.5,2,.5-1,.5-.5,4.5h2l-3.5,2,2.5,1.5v.5h-.5l-.5,3-2,.5v.5l-1-.5v2.5l-1.5-1.5-1.5.5-.5-1.5h-1.5v-1l-3-.5v1l-1,.5v2.5l-1,.5v1.5l-2,.5-1,2-1.5.5-1.5-1h-.5v.5h-1l-.5,2-1.5,2.5-3-2,.5-.5v-1l-1-.5-1,.5,1,2v2l-.5-2-1,1-2-1.5-1,.5-3-3,3.5,6.5-.5,1-.5-1-2.5,2,1,.5h-.5l.5,1-1,1v1h1l1,.5h-1.5l.5,1.5-1,.5v1l2.5,2.5-2.5.5v1l-1,.5v1.5h.5l-2,1.5,2.5,3-1.5.5-.5.5-.5-.5-1,2,1,.5-2,1,1.5,1.5-1,.5,3.5.5-5,1.5.5-2-1-.5,1-.5-3-.5-.5.5,1.5,1,.5,3,1.5,1.5v1l-1-.5v2l-1,.5,1,.5-2,2-5-2-3.5-5-32.5-29.5-3.5,2-3-.5-1.5,1-1-3-1-20M297.62,197.47l2.5-1,1,1-3.5,1v-1M300.12,198.97v.5-.5M301.12,197.47l.5-1,1,1.5-1.5.5,1,.5h-.5l-.5-1.5M303.62,193.97l.5-.5v1l-1,.5.5-1M297.62,199.47v-.5.5M295.62,197.47l.5-.5h.5l-.5.5h-.5M296.62,201.47l.5.5h-.5v-.5M294.62,204.97h-.5v-.5l.5.5M305.12,191.97h.5-.5M302.62,190.97l.5-.5.5.5-1,.5v-.5M300.12,189.97l1,.5.5.5h-.5l-1-1M303.12,192.47l.5.5h-.5v-.5M305.12,169.97v-.5.5M303.62,177.47l.5.5h-.5v-.5M302.62,180.97h.5v.5h-.5v-.5M302.62,183.47h.5-.5M332.12,155.97v.5-.5M326.62,154.97l.5.5-.5-.5M327.62,156.47v-.5l.5.5h-.5M326.12,158.47l.5,1-.5-.5v-.5M301.12,200.97l.5-.5,2.5,1-1,.5v.5h-1v1l-1-1.5-2,1-.5-1h1.5l1-1M303.62,202.97v-.5l1,.5-1.5.5.5-.5M304.62,200.47l.5.5v.5l-.5-1M312.12,203.97v.5-.5M299.62,202.97l.5.5-.5-.5M297.62,204.47h.5l-.5.5v-.5"/>
      <path data-code="kondopozhskij_rajon" data-name="kondopozhskij rajon" class="cls-1" d="M133.62,310.97l10-11.5,1,1,1-1,1,.5,2,1.5,2.5-3,.5.5,2.5-3,3.5,2.5v-3h.5l1.5-1.5-1-1-1,1v-1l-3-1.5,1-1,2.5-2,7.5-3.5h1.5l4.5,3.5,3,3v1l4,3.5,1-1.5,3.5,3.5,1-1,7.5,7-1,1,1,3-1.5,2,1,3v1l-1-.5.5,1.5h-.5l-.5,3,2.5,2.5-2.5,3,1,1-1,1.5-1.5-.5-2.5,7-1,.5-3,5.5-1.5-.5-1,2.5v1.5l-2,.5-3.5,16-6-1-3-2.5-3.5-6.5-2.5-1-2.5,3-.5-.5v-1l-1-2,1.5-3.5v-.5l-2,2-2.5-3h-2l.5-1h-3.5v-1.5l3-2.5-1.5-3.5-1.5-.5,2.5-.5-.5-1-6-6.5-3,2h-1.5l1-.5-.5-2.5h-3l2-2.5-4.5-3.5v-1.5l1-1.5-2-1,2-2.5-.5-.5"/>
      <path data-code="kostomukshskij_gorodskoj_okrug" data-name="kostomukshskij gorodskoj okrug" class="cls-1" d="M176.62,94.47l4-3,3.5.5,4.5,2.5v-1.5l12.5,11.5-2,2.5,3.5,4.5,3.5,2.5-8.5,9.5v2l-2.5,3,1.5,1.5-.5,1,3,2.5-2.5,3.5.5.5-6,6.5,1,1-1.5,1.5,2,1.5-2,2.5,2,1.5-1,1,2.5,2.5v2.5l-2.5-.5-1.5,2-1-.5v1l-2.5-1.5-.5-1.5h.5l-2-3.5.5-1-.5.5-1-1.5,1-2-1.5-.5-.5,1-2.5-1.5v.5l-1-1.5.5-2-1-1-2,2-2-1.5.5-1-2.5-3.5-6,7-4.5-4-2.5-5.5v-3l2.5-2.5,2.5-6,2.5-2.5,4.5.5,1.5-1,1-5,1-2,2.5-1v-1.5l-7-6v-2.5l1-.5.5-3,2-3.5,1.5-1.5,1-2.5"/>
      <path data-code="lakhdenpokhskij_rajon" data-name="lakhdenpokhskij rajon" class="cls-1" d="M1.62,283.47l11-3,1-2,3,2,7-1,1.5-1.5,3-.5,1-.5,9.5-1-1.5,2,1,3.5-.5,2.5,1,1-1,.5,1,3,2,.5-.5,5,2.5,5.5-2,19.5-12.5,15-9.5-16.5-8.5-10-2-4-1.5-.5-5-6-.5-.5,2.5-3.5-2.5-3.5-.5-2,1-4"/>
      <path data-code="loukhskij_rajon" data-name="loukhskij rajon" class="cls-1" d="M332.12,91.47v-.5.5M333.62,95.47v-.5.5M330.12,94.97l.5.5-.5-.5M331.12,95.97l.5.5h-.5v-.5M247.12.47l18.5,16h-1l21,16.5,10,9.5-5.5,9,3.5,3.5-5,7.5,1.5,3,9,7.5,6-6.5,4.5,3,4.5-5,9.5,8,3,5v.5l-1.5-1-1,.5,3,2.5v4.5l.5.5.5-1.5.5-.5,2,4,.5-.5-1-1.5,3,4.5h-2.5l1,3,4.5,2.5.5,1.5-3-2.5-5.5-2.5-1.5.5,2,3,1-.5-.5,1h-1.5l2,1h-.5v1l-6-3.5.5,1.5h-1l.5,1,8.5,3-.5-1,.5-1,2.5,2-1,1-1,1.5,1,1.5-2-2-1-.5h-1.5l-2-2,1,4,2.5.5,2.5,3h-2.5l-2-2.5.5,2,2,2-.5.5,3.5,3,.5,2-1,2,1.5,1v1l-.5.5,2.5,8.5v3l-16,17-14.5-12.5-14.5,15.5-24.5-22h-3v-1.5l-2.5-2,.5-1-2,.5-18-17.5,3.5-4-21.5-20.5,3.5-4-13-12.5,1-.5,2.5.5,1.5,4,7-11,4-7v-1.5l2.5-3.5,2.5-5.5,1.5-12h.5l6-15,3.5-13M331.12,101.97h-.5l-.5-.5h1v.5M328.62,101.47h-.5l.5-.5v.5"/>
      <path data-code="medvezh_egorskij_rajon" data-name="medvezh&amp;apos;egorskij_rajon" class="cls-1" d="M184.62,218.47l5-6,3.5,3.5-2,2.5,11.5,9-2,2.5v4l-1,1.5,8.5,7,5,6.5-2.5,3-2-2-3.5,4.5,1.5,2-3.5,4,1.5.5-.5-1.5,2.5,1.5,1.5-1v1l-.5-.5-1,1,2.5,3-1,1h-1l-.5,1-1-1-.5.5-1,2-1-.5v3.5l1.5,3.5v3h-1l1,2.5v2.5l14.5,12.5,3.5-4,1,1,2-1.5,30.5,28,4.5,2-1,2-4.5.5-1.5,2.5-4,2-1.5,2.5-1.5,14-.5,3.5-2-1.5-.5-1.5-.5,1-10-9.5-11,12.5-1-1-3.5,4.5-2.5-3-7.5,9-19.5,16.5-9,14-12.5-8,5.5-15,5-23,2-.5v-1.5l1-2.5,1.5.5,3-5.5,1-.5,2.5-7,1.5.5,1-1.5-1-1,2.5-3-2.5-2.5.5-3h.5l-.5-1.5,1,.5v-1l-1-3,1.5-2-1-3,1-1-7.5-7-1,1-3.5-3.5-1,1.5-11.5-11,7-7.5-4-5.5,1.5-2-5-4,11-14.5-3.5-4,3-4-2.5-1.5,7.5-9.5.5-2.5-1.5-3,5.5-7-2-1.5"/>
      <path data-code="muezerskij_rajon" data-name="muezerskij rajon" class="cls-1" d="M128.62,167.97l10,2,5-3.5,11.5-3.5,4-4,1.5-5.5h1.5l1.5-2.5-2-2.5v-1l1-1-.5-3,4.5,4,6-7,2.5,3.5-.5,1,2,1.5,2-2,1,1-.5,2,1,1.5v-.5l2.5,1.5.5-1,1.5.5-1,2,1,1.5.5-.5-.5,1,2,3.5h-.5l.5,1.5,2.5,1.5v-1l1,.5,1-1.5,2,1,.5,2.5,3,1,3,3h-1l1,1.5v1.5h-1l.5.5h3.5l.5-.5.5,1.5-.5,1h1v2l2.5,1,1.5,3,2,.5,2.5-1,.5,1v-1h5l-2,2.5.5,2.5,1.5,1.5,1,9.5,1.5,3.5v3l-2,3-1.5,6.5-.5,1,1.5,1.5-5.5,6.5,2,5.5-1,1-2,.5-.5,1-1.5-1.5v-3l-1.5.5-.5,7-.5.5v-2h-1.5l-.5,3-14-11.5,2-2.5-3.5-3.5-5,6,2,1.5-5.5,7,1.5,3-.5,2.5-7.5,9.5,2.5,1.5-3,4,3.5,4-11,14.5-3.5-2-4.5,6.5-8-6.5v-13.5l-20-15.5-.5-6.5,4-6.5v-4.5l-2-5.5,1-3.5-1.5-2.5.5-3-4.5-9.5,1-6-1-4.5.5-1.5.5-13.5"/>
      <path data-code="oloneckij_rajon" data-name="oloneckij rajon" class="cls-1" d="M43.62,361.34l26.5-11,2.5-3,1.5,1,1.5-.5,1-2.5-.5-2,4-6,1-.5,2.5,7-1,1,2,2-1,1.5,1,1.5-1,1.5,1.5-.5,4,3.5,3.5-.5,4.5,1.5v-1.5l.5-1,1,.5,1-1,1.5-.5-.5-2,2,1,2-.5,1-1,1,1.5-.5,1,1.5.5,1.5,5.5-5.5,5v2.5l3,2.5-1.5,2h-.5l-6,7,1.5,1-2.5,1-.5,2.5.5,2.5-1,1,.5,1.5,2,1,1.5-1.5h3.5l1,4,1.5,2-8.5,5.5h-1.5l-3.5-5-.5-2.5,1-1-2.5-2-1.5.5-.5,2.5-1,1.5-8-1.5v.5l-1.5,1-.5-1.5-1,1v.5h-1l1,3-2.5-1-2.5,2-3.5-.5-4-2.5-1.5,1.5-19.5-32.5"/>
      <path data-code="petrozavodskij_gorodskoj_okrug" data-name="petrozavodskij gorodskoj okrug" class="cls-1" d="M146.62,354.84l3.5,2,4,4.5-.5.5,1.5,3.5-1,4-5-1.5v-1h-1l-.5,1-2-2v-2l-2-1,.5-2h1l1-1.5-.5-2.5.5-.5.5-1.5"/>
      <path data-code="pitkjarantskij_rajon" data-name="pitkjarantskij rajon" class="cls-1" d="M61.12,284.34l6,.5,1,1.5-.5,2,.5-1,.5,1,.5-1.5,2.5,2v3.5l2.5,1.5-1.5,5.5-1,1,7,4-3.5,6.5-1-.5-3.5,4,7,7.5,6,4.5-2,2,2.5,3v1.5l-1,2h-2l-.5,2-4.5,6.5.5,2-1,2.5-2,1-1-1.5-2.5,3-26.5,11-15.5-27.5,12.5-15,9,7,6-7-6-4.5,9.5-12-.5-3,1.5-1-3.5-3.5.5-2.5,1.5-2,4-1-1.5-5"/>
      <path data-code="prionezhskij_rajon" data-name="prionezhskij rajon" class="cls-1" d="M146.62,354.84l-.5,1.5-.5.5.5,2.5-1,1.5h-1l-.5,2,2,1v2l2,2,.5-1h1v1l5,1.5,1-4-1.5-3.5.5-.5-4-4.5-3.5-2M120.12,363.34l8-2.5-1-1,8-8,1,.5,1-1,2.5.5,1-1.5h1.5l2.5,2,1-.5v-2.5l.5-.5.5-2-1-.5.5-.5v-.5l2.5-3,.5-1.5h1l-.5,1h2l2.5,2.5,1.5-2,.5.5-2,4,1.5,1.5v1.5l.5.5,2.5-3,2.5.5,3.5,7,3,2,6,1-1.5,7-6,15.5,13,7.5-21,32.5-4-.5-1.5-1.5h-5.5l2-2-1.5-1,2.5-2.5,3-2.5-1-1-2.5.5-2.5-1v-1l-1.5.5-2.5-1.5,1-1-.5-1.5-2.5-2-3.5-6.5-.5,1-3.5-.5-2.5-2.5-2.5,1h-1l-1.5,1v1l-2,1.5-2,.5,1-6-1.5-3.5-8-5,1.5-2v-2l1-1-.5-.5,1.5-2-1-2,1-1.5.5.5,1-1.5.5,1,4-5.5-2.5-2,1-1.5-1.5-1"/>
      <path data-code="prjazhinskij_rajon" data-name="prjazhinskij rajon" class="cls-1" d="M86.62,319.84l1,.5,2-3,3-2,3.5,3,1-1.5,6.5,5,1-1,2.5.5-2.5,3.5h-1.5l1,1,5.5-1,1,.5,1.5-1.5,3,2.5,2-1-.5,1.5,2,1,1-1v-1.5l.5-1,1,.5-1-1.5,1.5-.5,1-1,2.5-1.5.5,1,2-3.5,1.5,1.5,3.5-5.5,1.5,1-1.5,1.5.5,1.5,4.5,3-2.5,2.5h3.5l.5,2.5-1.5.5,1.5.5,3.5-2.5,6,6.5.5,1.5-2.5.5h1.5l1.5,4-3,2v1.5l2.5,1-3,4v.5l-.5.5,1,.5-.5,2-.5.5v2.5l-1,.5-2.5-2h-1.5l-1,1.5-2.5-.5-1,1-1-.5-8,8,1,1-8,2.5,1.5,1-1,1.5,2.5,2-4,5.5-.5-1-1,1.5-.5-.5-1,1.5,1,2-1.5,2,.5.5-1,1v2l-1.5,2-7-5.5-1,1-2-2.5-3,1-2-1.5,6-7h.5l1.5-2-3-2.5v-2.5l5.5-5v-.5l-3.5-8-1,1-2,.5-2-1,.5,2-1.5.5-1,1-1-.5-.5,1v1.5l-4.5-1.5-3.5.5-4-3.5-1.5.5,1-1.5-1-1.5,1-1.5-2-2,1-1-3-8.5.5-1,2,.5,1-2v-1.5l-2.5-3,3.5-4,1.5-2.5v-2"/>
      <path data-code="pudozhskij_rajon" data-name="pudozhskij rajon" class="cls-1" d="M188.12,374.34l19.5-17,7-9,3,3,3.5-4,1,.5,11-12,10,9.5v-1.5h.5l.5,2,1.5,1,3.5,11,3.5,4.5,1,3,3,1.5h2.5l3,2.5,3,4-.5,2.5-1,1.5h-.5l-1,3-2,3,1,2-1.5.5-1,1-.5,1-1.5,1-1.5,2.5-1.5.5-.5.5-2,1.5-3.5,1-1,.5.5,1-1.5.5-1,1,3,.5,4,3.5-.5,1.5.5,1.5h-1v2.5l-1,.5v.5l-2.5,5.5h.5l-1.5,1.5v2l2,2.5-.5,1-2,1.5-1.5,2.5-2.5,2-1,1.5-3.5,2.5v1.5l-1,1.5-2.5.5-1-.5-2,2-.5.5-1.5.5-2,4v2l-2.5-2.5-5-3h-2l-4.5-3,1.5-2.5-3-2.5-2-5.5.5-.5h-6l-1,1-4-4.5-3.5-1-1.5,1.5-5,2.5v1l-1,.5-29.5-4,30-46"/>
      <path data-code="segezhskij_rajon" data-name="segezhskij rajon" class="cls-1" d="M218.12,201.84l2.5-2,4,3.5-2,2,12,10.5-3.5,4.5,8,7,1,.5,5-2.5,4,.5,1.5,3.5,9.5,6.5-6,9,1,.5-1.5,2.5,1,.5-1.5,2.5,1,.5-1.5,3,1,.5-2.5,3.5,1,1.5-1,1.5.5,1,3.5,3.5-2,2-3,4,14,13-.5.5-2,14.5,2,5-4,9.5-3.5,4-30.5-28.5-2,2-1-1.5-4,4-14-12v-2.5l-1-2.5.5-.5.5-3-1.5-3v-3.5h1l1-1.5.5-.5,1,1,.5-1.5h1l1-.5-2.5-3,1-1v.5l.5-1.5-1.5,1.5-2.5-1.5.5,1h-2l4-4-1.5-2.5,3.5-4,2,1.5,2.5-2.5-5-7-8.5-6.5,1-1.5v-4.5l2-2.5,2,2.5,1-3,1.5.5v1.5l.5-.5.5-6.5,1.5-1v3l1.5,2,.5-1,2-.5,1-1-2-6,5.5-6-1.5-1.5.5-1,1-6.5"/>
      <path data-code="sortaval_skij_rajon" data-name="sortaval&amp;apos;skij_rajon" class="cls-1" d="M38.62,275.34l1.5-.5,2.5-2,10-1.5h1l1.5-1,6.5-1,8.5-2.5,4.5-2.5,1.5,1h3.5l-2.5,6v3.5l-2.5,1.5,2,2.5-.5.5v1l-2-2.5h-.5v.5l2,5.5-2.5,3h-1l-.5,2-2.5-2-.5,1.5-.5-1-.5,1,.5-2-1-1.5-6-.5,1.5,5-4,1-1.5,2-.5,2.5,3.5,3.5-1.5,1,.5,3-9.5,12,6,4.5-6,7-9-7,2-20-2.5-5.5.5-5-2-.5-1-2.5,1-1-1-.5v-3l-.5-3,1.5-2.5"/>
      <path data-code="suojarvskij_rajon" data-name="suojarvskij rajon" class="cls-1" d="M79.12,264.84l6-1,1,1,1.5-.5-.5-1,10.5-1.5,2-2,2,.5,9.5-5.5h1l1.5-2,6-4,.5,1,.5-1,8-3.5,2-6.5-1-1.5,1-1v-1l9.5,7.5.5-1,9.5,8.5.5,13,8,6.5,4.5-6,2.5,1.5,6,4.5-1.5,2,4,5-7,8h-1.5l-7.5,3.5-2.5,2-1,1,3,1.5v1l1-1,1,.5-1.5,2h-.5v2.5l-3.5-2-2.5,2.5-.5-.5-2.5,3.5-2-1.5-1-.5-1,1-1-1-10,11.5.5.5-2,2,.5.5-3.5,5.5-1.5-1.5-2,3.5-.5-1-2.5,1.5-1,1h-1l-.5,1,1,1-1-.5-.5,1v1.5l-1,1-2-1,.5-1.5-2,1-3-2.5-1.5,1.5-1-.5-5.5,1-1-1h1.5l2.5-3.5-2.5-.5-1,1-6.5-5-1,1.5-3.5-3-3,2-2,3-1-.5-.5,2.5-.5.5-.5,1.5-1.5,2-6-4.5-7-7.5,3.5-4,1,.5,3.5-6.5-7-4,1-1,1.5-5.5-2.5-1.5.5-2h-1l.5-1v-1.5l2.5-2.5,1-1.5h.5l-2-5.5v-.5h.5l2,2.5v-1l.5-.5-2-2.5,2.5-1.5v-3.5l2-6.5"/>
    </g>
</svg>