<svg data-code="RU-ORE" data-title="Слой 2" xmlns="http://www.w3.org/2000/svg" viewBox="0 0 384.57 369.25">
    <g data-code="orenburgskaja_oblast_" data-title="orenburgskaja_oblast&amp;apos;">
      <path data-code="abdulinskij_rajon" data-title="abdulinskij rajon" class="cls-1" d="M148.94,39.76l1.5-2,4-1.64,1-1.36-.5-1.14,3.5,1.14,1.5-.5.5,3.5,1.5-.5,1.5-2h4l-1,1.5.5,2.5-1,1.5.5,2.5-1,2v2l-1,.5.5.5-.5,1.5v3l-1.5,3.5,5.5,8v11l.5,1.5-.5,2,.5.5-.5,3-9-2-1.5-3.5.5-3h-3l-.5-1.5h-2l.5-2.5h3l1-3h-2l.5-4.5-2,.5v-2.5l-4-.5v-2l-1,.5v1h-1l-1-3.5,2.5-1.5-2.5-3,1.5-1-.5-1.5,1-1-2.5-1.5,1-3,1.5-2.5v-1"/>
      <path data-code="adamovskij_rajon" data-title="adamovskij rajon" class="cls-1" d="M304.44,265.26l2.5-4.5,14.5-3.5,4.5,8.5-3.5-1.5-1,.5.5,2,3.5,5,6.5,2,3,6.5,5.5,4.5,2.5-1.5-.5-3,1-3.5,6.5,10,4,2.5-.5,1.5-2.5.5-3,2.5-3,.5,2.5,5,2.5,2.5,14.5,5.5-2,2.5v6.5h1l.5,1.5-3-.5-6.5,15.5-6-2.5,2-5-6.5-2-2.5,7.5-8-3.5,2-1.5,2.5.5.5-1.5,1-4,2-1.5-17.5-8.5-3.5,2-8.5-2-1.5.5-2-2-1.5.5v1.5h-2l-.5-1-1,1-1-2.14,4.82-3.54-2.82-2.96,2-5-3.5-2-2,.5-1-5.5.5-.5-1-3.5,2-.5.5-2.5,4-2-1-.5.5-1.5,1.5,1,5.5-3-.5-3.5-1,.5v-3.5l-7.03-.39.53-1.97-.5-2,.5-1.5"/>
      <path data-code="akbulakskij_rajon" data-title="akbulakskij rajon" class="cls-1" d="M127.44,268.76l4-3v-1.5l2-2.5h4l2-3.5-1-.5.5-.5v-3l1.5-1,2,1,1.5-1,1.5,4.5,2.5-3,2,1,2.5-1-2.5-3.5,1.5-1.5v-1.5l2.5-.5v-1l-2.5,1-.5-1.5,2-1.5,3-6.5h2.5l2-2.5,5.5,5-1.5,3h-1v7.5l5-1,3-2.5,1.5,3-1.5,2.5,1.5,2.5-.5,3.5,6,.5v1l4.5,1.5,2.5,4.5-.5,1.5,1.5.5,1.5-1,2.5,1-2,4.5-4.5,1-2.5,6.5-3-1.5-.5.5.5,1-2.5,2-2.5-1-3-4-6,8-.5,2.5-5,2.5-7,1-1,1-2.5-1-2,.5-3,1-.5,1.5-3-2-1-2,.5-1.5-2.5-1.5,1-3-.5-1.5-3.5-2.5-1.5,1.5-5-13.5"/>
      <path data-code="aleksandrovskij_rajon__orenburgskaja_oblast_" data-title="aleksandrovskij_rajon_(orenburgskaja_oblast&amp;apos;)" class="cls-1" d="M142.94,114.76l3-3,6.5.5,2-1.5,1,2,2.5,1,1-1,2.5,2,1.5,7-1,2,1,1.5-.5,2,3,3-1.5.5-.5-1-1,1.5,6,5-.5.5,2,2-1,1,.5,1.5,1-.5,1,1.5-1.5,3,1,3.5,2-.5,1.5,4h-2v2l-3.5.5v3l-5.5,1.5.5,2-4,1,.5,2-5.5,1v2l-1.56-.31-.94-3.69.5-3-3-3.5-2.5,2-5.5-4.14v-1.86l1.5-2.5-1-1.14.5-1.5-.5-2.86,1-1-1-.64,1-1.36-.5-2-2-2.14.5-1.86,1.5-1.5-.5-.5.5-1v-.5l4-6.5-1.5-2,2-2-1.5-1.5h-2l-1-5.5"/>
      <path data-code="asekeevskij_rajon" data-title="asekeevskij rajon" class="cls-1" d="M111.94,64.26l3-2,.5.5-.5,1,.5.5v1h.5l1.5-2v-3.5l1.5-2-1-1.5,2-2.5,3.5-2.5,1,1.5-.5-2.5,2-1.5.5-1.5,4,2.5,1-2,3,.5,2.5,1.5v1l1.5,1,1.5-1.5,1,1.5,1.5-1,1,1,1-1.5-1-1,1.5-1.5v-1.5h1.5l2.5,1.5-1,1,.5,1.5-1.5,1,2.5,3-2.5,1.5.5,1-2.5,2-.5,2,1.5.5-1,2.5h-1l-.5,2-4,1-.5,2,.5.5-1,2,1,.5-.5.5,1,2h-2v1.5l.5,1-4.5,3.5,4.5,3-.5.5-5.5,2.5-5-3-4-.5,1-1.5-2-1-1.5-1.5v-1.5l-2.5-2-1.5,1.5-1-.5-.5,2,1,1-.5,1-2,1-1.5-1.5,3-4.5-1.5-1v-2.5l-4-2.5,2-.5,1.5-1.5-1.5-3"/>
      <path data-code="beljaevskij_rajon" data-title="beljaevskij rajon" class="cls-1" d="M162.44,236.76l6.5-4,3.5,4,3-2,.5-2-3.5-5,5-2.5,1.5,1.5-.5.5,1.5,2.5,1-.5v1.5h1.5l-.5,3,1.5,1.5-.5,1,3,1-1,.5,1,2-.5.5,2,.5.5,2.5,1.5-.5-.5-1.5,1.5-.5.5,1,3-2,7.5-.5,1,4.5-.5,2-2,.5,1,1.5,4.5,4.5h1l1-2.5,1.5.5-.5,1.5,4.5,5-.5,2.5-2,3v1.5l-1.5,1.5.5,4.5-3,4-3-4.5-3,6-3.5,1v1h-3.5l-.5,7-2-.5-2.5-2-1.5-8,1.5-.5,2-4.5-2.5-1-1.5,1-1.5-.5.5-1.5-2.5-4.5-4.5-1.5v-1l-6-.5.5-3.5-1.5-2.5,1.5-2.5-1.5-3-3,2.5-5,1v-7.5h1l1.5-3-3.5-4"/>
      <path data-code="buguruslan" class="cls-1" d="M111.94,39.76l3,.5.5-1,1,2.5h1l.5-2,.5,1,1-1,1,.5-1,1.5,2,1-3.5,1.5-1.5,3-3-5,2,1-3.5-3.5"/>
      <path data-code="buguruslanskij_rajon" data-title="buguruslanskij rajon" class="cls-1" d="M111.94,39.76l3.5,3.5-2-1,3,5,1.5-3,3.5-1.5-2-1,1-1.5-1-.5-1,1-.5-1-.5,2h-1l-1-2.5-.5,1-3-.5M101.44,45.76l1-1,1.5-2.5,2,2.5,1-.5,4.5-5.5h1.5l.5-2,1.5-1,1-1.5,4.5-3,3.5-4.5h1l1-1.5,1.5,1v.5l-1,1,.5,1h2l1,1.5,1.5-2,.5.5-1,.5,1,.5.5,2,2.5-3,2.5,2.86,1-3,2.5-1.86,1,.5,1-1.5,1.5.5-1.5,3,1-1,1,1.5v1.5l3-1.5v1l1-.5,2,5-1,2,.5.5-1.5,2v1l-1.5,2.5-1,3h-1.5v1.5l-1.5,1.5,1,1-1,1.5-1-1-1.5,1-1-1.5-1.5,1.5-1.5-1v-1l-2.5-1.5-3-.5-1,2-4-2.5-.5,1.5-2,1.5.5,2.5-1-1.5-3.5,2.5-2,2.5,1,1.5-1.5,2-.5,5-1.5.5v-1l-.5-.5.5-1-.5-.5-2.5,1.5,1,3.5-1.5,1.5-2,.5-1.5-1,.5-1-5.5-3.5-1,1.5-2.5-3,1.5-1.5-2.5-2.5,3-2.5-1.5-1.5v-1.5l1.5-1-1-3.5,1.5-1.5-1-1"/>
      <path data-code="buzuluk" class="cls-1" d="M83.44,91.76l1-1.5h1l-.5,1.5,1-1,1,.5-.5.5.5,2.5h-.5v1.5h.5l-.5,1v3h-1l.5-1.5-1-2-1.5,1.5h-1l1.5-2.5-1-1.5.5-2"/>
      <path data-code="buzulukskij_rajon" data-title="buzulukskij rajon" class="cls-1" d="M83.44,91.76l-.5,2,1,1.5-1.5,2.5h1l1.5-1.5,1,2-.5,1.5h1v-3l.5-1h-.5v-1.5h.5l-.5-2.5.5-.5-1-.5-1,1,.5-1.5h-1l-1,1.5M60.44,93.26l.5-1,1,.5,6.5-8.5-1.5-1,2-5,4,3,3-3.5,2-.5,1-1,4.5,2.5,4-8,3.5,2.5,1.5-2.5-3.5-2,1-1.5,3,.5,1.5-4.5,1.5.5,1.5-3v-1.5l.5,1,1.5-1.5,2,2-1.5,1.5,2.5,3,1-1.5,5.5,3.5-.5,1,5.5,3.5v2.5l1.5,1.5-3,4,1,1-1,1.5.5.5-4,5.5-2-1-4,5.5-2.5,1,.5,4,1.5-.5.5,2h-.5l.5,4.5-2,1.5h1l-.5,1,1.5.5-.5,1-1.5-.5,1,1-2,2-4-.5v-.5l.5-1v-.5l-3-1h-.5l-1,3-2.5-.5-.5-1,1-2-3-3-4.5,7-3.5,1.5-2.5-2,2-3.5,3.5-4.5-3.5-1.5-1.5.5-1-1,.5-1.5-.5-1-2.5-2-2.5,4h-2l-3-2.5-1,1.5,1,1.5-3.5-2-1-1.5,1-2-2-1"/>
      <path data-code="dombarovskij_rajon" data-title="dombarovskij rajon" class="cls-1" d="M258.94,315.76l1.5-.5.5-1.5h2.5l-1-4.5h3l2,3,1.5-.5,10,6.5,1-2,1,.5,1-1.5-.5-1,1-1-.5-.5.5-1,5,3,2.5-4,2.5,1.5-7.5,12.5v2.5l2,1.5v2.5l3,1,1-1v2h2.5l3.5-7.5,3-1,.5-1,2.5.5,3.5,4-2,3.5-2.5,1.5v1l-2.5,1.5,1,3.5,1.5,2.5,4,2,.5-1.5h1.5l3.5,2-4.5,3.5-2,7-5.5,2-4.5,4-7.5-2.5-5,.5,1-2-1.5-1.5,1.5-2.5,3.5,2-.5-2.5-1.5-1v-2.5l-6.5-3.5-1,1-2.5-3.5-11-7v-3l-.5-.5-1-3.5,1.5,1-.5-2.5-4.5-1.5,1-2.5,1,.5,1-3h-4l1-5"/>
      <path data-code="gaj" class="cls-1" d="M266.94,278.76h1.5l.5-1.5,1.5.5,3,3.5h-1.5l-1,3.5-2,.5.5-1,.5.5,1-2h-3l.5-2-1.5-2"/>
      <path data-code="gajskij_rajon" data-title="gajskij rajon" class="cls-1" d="M266.94,278.76l1.5,2-.5,2h3l-1,2-.5-.5-.5,1,2-.5,1-3.5h1.5l-3-3.5-1.5-.5-.5,1.5h-1.5M235.94,281.76l5.5,3,2-1.5,1.5,1,1.5-3.5h1l-.5-1,1-3.5,3,1,1.5-3.5h3.5l1,1,4-.5,1-1.5h1.5v-1.5l-1.5,1.5-3-1-3,2,1.5-3,2.5-5-.5-.5,1.5-3,2.5-1,1-2.5,4.5,1,.5-1,2,.5,1-1.5v.5l9,4,1.5-3.5,1.5.5,1.5-4,1.5,2.5v1l-1,.5v3.5l3.5,1.86-6.5,3,3.5,3-1,3.64.5,1.5-1,1.36-1-.86-1.5,2.86h-2l-1,1-1-.5,1.5,6-1.5.5v4.5l-1.5.5-.5,2.5-1.5.5-1-1.86-1,.86-7.5-2.5-4-2,1-1-1.5-.5-4.5-2-1.5,1.5-4-.36,2,3.36-1,3-1-.5-2,3.14,1,1.5-5.5,2.5,1-3-6,.5v-2.5h-2.5l-1-1.5v-2h-1.5l1-1-1.5-1.5"/>
      <path data-code="grachevskij_rajon__orenburgskaja_oblast_" data-title="grachevskij_rajon_(orenburgskaja_oblast&amp;apos;)" class="cls-1" d="M100.44,93.76l2.5-1,4-5.5,2,1,4-5.5-.5-.5,1-1.5,2.5-.5.5-1-1-1,.5-2,1,.5,1.5-1.5,2.5,2v1.5l1.5,1.5,2,1-1,1.5,4,.5,5,3,2,7.5-3.5,1.5v1l-1.5,1,1,1-.5,1h-3.5l1-3-8,1.5.5,2.5,1.5.5-.5,1,1,1-2,1-3,5.5-1.5-.5-1,1.5-7.5-4-.5-1.5-2,.5-.5,1-1.5.5-1-.5.5-1h-1l2-1.5-.5-4.5h.5l-.5-2-1.5.5-.5-4"/>
      <path data-code="ilekskij_rajon" data-title="ilekskij rajon" class="cls-1" d="M76.44,179.76l1.5-2,.5,1.5,4.5-.5-.5,1.5,1.5,1,3.5-3.5,4.5,1.5,1-2,4,2,2,2,.5-1.5,3.5,3.5,1,3.5h4l.5-1,.5-.5.5,1,.5,2h1l.5,3,1,.5-1,3.5.5,1.5,4,.5-.5,1,1.5-1,3.5,1,.5-1,.5,4.5-.5,9-1,1-1.5,3.5.5,2.5-1,5.5-5-2.5h-2.5l-3.5,4-1.5-2.5,1.5-2.5-1.5-.5-4.5,2.5.5.5-1.5,1.5,1.5,1.5-3.5.5-.5,1-1-1-1.5-3.5-2.5-.5-1.5-2-2-1-2-3.5,1-1-1-3,.5-1.5,1-.5.5-1-.5-1.5,2-.5-1-3.5.5-1-2-.5-1-2.5h-1.5l-.5-4-1.5-.5,1-1.5h-4l.5-1.5-2.5-1,1-1.5h-2.5l-.5,2-2-2h-1.5l1.5-2,.5-1.5,1.5-1-1-3,1-1.5"/>
      <path data-code="jasnenskij_rajon" data-title="jasnenskij rajon" class="cls-1" d="M306.94,329.26l.5,1h3l-1-.5,1-1v-1l-1.5,1.5h-2M284.94,324.76l8-13.5,2.5,1,2-3-.5-.5.5-1,4.5,2.5.5-1.5,1,2.5,1-1,.5,1h2v-1.5l1.5-.5,2,2,1.5-.5,8.5,2,3.5-2,17.5,8.5-2,1.5-1,4-.5,1.5-2.5-.5-4,4.5,5.5,2-6,14.5-2.5,3.5-2.5-.5-.5-2-2.5-1.5h-3.5l-3,1.5-8.5-5.5h-1.5l-.5,1.5-4-2-2.5-6,2.5-1.5v-1l2.5-1.5,2-3.5-3.5-4-2.5-.5-.5,1-3,1-3,7-1.5.5h-1.5v-2l-1,1-3-1v-2.5l-2-1.5v-2.5"/>
      <path data-code="komarovskij" class="cls-1" d="M306.94,329.26h2l1.5-1.5v1l-1,1,1,.5h-3l-.5-1"/>
      <path data-code="krasnogvardejskij_rajon__orenburgskaja_oblast_" data-title="krasnogvardejskij_rajon_(orenburgskaja_oblast&amp;apos;)" class="cls-1" d="M110.94,111.26l1,.5.45-2.59,2.05,1.09,1-1.5,1.5.5,3-5.5,2-1-1-1,.5-1-1.5-.5-.5-2.5,8-1.5-1,3h3.5l.5-1-1-1,1.5-1v-1l3.5-1.5,2,1,2.5-3.5,1.5,1v3l1-.5,2,3,2.5,1.5,1.5-1,2,4,4.5.5-3,2.5,1.5,2-2,1.5-.5,2,2,1h-6l-3,3,1,5.5h2l1.5,1.5-2,2,1.5,2-3,4.5.5-2-1.5-.5-.5-2.5-.5-.5-1.5.5-2-1.5-1.5,3.5,1.5,1.5-.5,1-2,1.5-2-2-2.5,3.5,2,2-2,1.5-7-3,1-2.5v-1.5l-1,1-6.5-3-1-.64.5-1.5-6.5-4,1-1-.5-.5v-3.5h-.5v-4.86"/>
      <path data-code="kurmanaevskij_rajon" data-title="kurmanaevskij rajon" class="cls-1" d="M40.44,104.26l3.5,1.5,2.5-3.5,2.5,1,1-2-.5-.5.5-2-1-.5.5-1-1-.5,1.5-4,2,1.5,1-2-1-1,.5-1.5,2.5.5,1-2.5,3,1-.5,2.5,2.5,1-.5,1,2,1-1,2,4.5,3.5-1-1.5,1-1.5,3,2.5h2l2.5-4,2.5,2,.5,1-.5,1.5,1,1,1.5-.5,3.5,1.5-3.5,4.5-2,3.5,3.5,2-3,3.5-2.5-2.5-1.5,2.5,1,2-1,1-3.5-2.5-1,2-1-.5-1.5,1-1,2.5,4.5,1-1,2,1.5,1.5-2,2.5-1.5-.5-1.5,3.5-1-.5-.5,3-1,.5-5.5-2.5-2,3.5-3.5-.5-4.5-13-3-4.5-2-.5-1,2-3-1.5,1.5-2-2-1.5,3.5-7-.5-2"/>
      <path data-code="kuvandykskij_rajon" data-title="kuvandykskij rajon" class="cls-1" d="M232.44,266.26v2.5l-2,2,2.5,1.5-5,5.5.5,2,1-.5.5,1,4-1-.5-3,2.5-.5.5-1-.5-1.5,1-.5.5,2-1,2,2,1,.5-2,1.5,1,1.5-3h.5v-1.5l-5.5-1.5v-1l1-1,3.5,1,1-2h-2l-1-1.5-1-4.5-3.5,1-2.5,3.5M208.44,244.76l7,1.5,2-4.5-1.5-6,.5-1h.5l1.5,3,2.5,1,1-.5-.5,2,1,.5-1.5,3.5,3.5,1.5v7l1.5,1,1-1h3.5l.5-1.5,5-1.5,1.5-3,6,3,3.5-1,.5-1-.5-1.5,3-2-.5-2,1-.5,2,1.5v1.5l.5,1,6,2,1.5,1.5-1,2,5.5,2.5.5,1-1,1,.5,2-1.5,3.5-2.5,1-1.5,3,.5.5-2.5,5-1.5,3h-3.5l-1.5,3.5-3-1-1,3.5.5,1h-1l-1.5,3.5-1.5-1-2,1.5-5.5-3-1.5,6.5,1.5,1.5-1,.5-3.5,5.5-3.5,8-2.5-.5v-1l-4-2-3.5,2.5-3-2.5-2-4.5,1-3-.5-1.5.5-2-2-.5.5-6h-2v1l-7-1-.5-2-3,.5-3-4v-1l3.5-1,3-6,3,4.5,3-4-.5-4.5,1.5-1.5v-1.5l2-3,.5-2.5-4.5-5,.5-1.5-1.5-.5,1-3v-2"/>
      <path data-code="kvarkenskij_rajon" data-title="kvarkenskij rajon" class="cls-1" d="M292.94,239.26l3.5-3.5,3-6,1,.5.5,3,5,3h.5l.5-1.5h2l.5-3,1-1-3.5-2.5,3.5-5.5,4.5,3.5-1,1v1.5l-1,1.5,2,2,2,6,2.5-1,3.5-7.5,1-.5,1-2,1-1,4,3,1.5-1-.5,2,1.5,3v2l2.5-2,4.5,2-.5,2h2l5.5-2.5,1.5,5.5,4.5,1.5,4,3.5-3,7.5v1.5l-3,2-1.5-.5-2,2.5h-4l-3,4-1-.5v1.5l-1,1.5,2,1.5.5,3-2,2.5,1.5,5-.5,1,2.5,1.5,1,4-2.5,1.5-5.5-4.5-3-6.5-6.5-2-3-3.5-1-3.5,2-.5,2.5,1.5-4.5-8.5-14.5,3.5-2.5,4.5-.5,1.5.5,2-.53,1.97-1.97-.11-6-3.36-1.5.86-3.5-1.5-1-1.86,1.5-3.5,1-3,1.5-.5,1.5-4.5.5-4,1-1.5-3-.5,1-3-2-1,1-3-1-1"/>
      <path data-code="matveevskij_rajon" data-title="matveevskij rajon" class="cls-1" d="M139.44,66.76l4-1,.5-2h1l1-2.5-1.5-.5.5-2,2.5-2,.5,2.5h1v-1l1-.5v2l4,.5v2.5l2-.5-.5,4.5h2l-1,3h-3l-.5,1.5,2,1,.5,1.5h3l-.5,3,1.5,3.5-5.5,1.5,2.5,3.5.5,3-5,7.5-3.5-1-2,2.5,1.5,1-2,1-2.5-1.5-2-3-1,.5v-3l-1.5-1-2.5,3.5-2-1-2-7.5,5.5-2.5.5-.5-4.5-2.5,2.5-2.5v-.5l2-1-.5-1v-1.5h2l-1-2,.5-.5-1-.5,1-2-.5-.5.5-2"/>
      <path data-code="mednogorsk" class="cls-1" d="M232.44,266.26l2.5-3.5,3.5-1,1,4.5,1,1.5h2l-1,2-3.5-1-1,1v1l5.5,1.5v1.5h-.5l-1.5,3-1.5-1-.5,2-2-1,1-2-.5-2-1,.5.5,1.5-.5,1-2.5.5.5,3-4,1-.5-1-1,.5-.5-2,5-5.5-2.5-1.5,2-2v-2.5"/>
      <path data-code="novoorskij_rajon" data-title="novoorskij rajon" class="cls-1" d="M283.44,267.63l6.5-3,1,2,3.5,1.5,1.5-1,6,3.5,9,.5v3.5l1-.5.5,3.5-5.5,3-1.5-1-.5,1.5,1,.5-4,2-.5,2.5-2,.5,1,3.5-.5.5,1,5.5,2-.5,3.5,2-2,5,2.5,2,.5,1.5-4,3.5-1-.5-.5,1.14-4.5-2.14-.5.64.5.5-2,3.36-2.5-1-.5,1-2.5-1.5-2.5,4-6.5-4,.5-.5-1.5-1.5,3.5-5-4.5-2-3,5-1-1.5h-2l.5-1.5v-.5l3-4-.5-2h.5v-.5l.5-3-.5-1.5h.5l.5-1.5,1.5-.5v-4.5l1.5-.5-1.5-6,1,.5,1-1h2l1.5-3,1,1,1-1.5-.5-1.5,1-3.5-3.5-3"/>
      <path data-code="novosergievskij_rajon" data-title="novosergievskij rajon" class="cls-1" d="M92.94,155.12l2.5-3,2.5.5v1l1-.5.5,2,4-1.5.5-1,2.5-1-.5-1,1.5-.5-.5-1,2-1v1.5h2l-1,3.5,1.5,1,1-1,1-2,2.5.5,1-2,8,2.5-.5-1.5,1.5-4.5-7-3.5,1-1.5-1.5-1,2.5-5,2.5,1.5,1.5-3,6.5,2.5,1.5-.5-1.5-2.5.5-1.5,1.5-2,2.5,1.5,1.5-1,.5-1-1.5-2,2-3.5,2,2,1.5-1,.5,3.5h2l-.5,2.5-1.5,3,.5,1-1.5,1.5-.5,1.5,2,2,.5,2.5-1,1,1,1-1,1,.5,2.5-.5,1.5,1,1-1.5,2.5.5,1.5-.5.5-1-.5-1.5,1,.5,2-1.5,2.5-2.5,1.5.5,1-1.5,1,.5.5-2.5,2,1.5,1.5,1-1,1,1-5,2.5-1.5-2.5-2,.5-2,5-4,4,1,.5-3.5,1.5-1,2,1.5,1-.5,1.5h-.5l-.5,1-3,1-.5,1,1,1-5,2-2-3.5h-1v1.5l-4-.5-1-3-3.5-3.5-.5,1-2-2-4-1.5-1.5,2-5-2v-1.5h1l1.5-2-.5-1.5h-2v-3l1-1h3l4,3,2.5-4-4-2,2-4.5v-4l-2-2"/>
      <path data-code="novotroick" class="cls-1" d="M258.94,271.63l3,1.14,1.5-1.5v1.5h-1.5l-1,1.5-4,.5-1-1,3-2.14ZM250.44,296.76l-1-1.5,2-3.14,1,.5,1-3-2-3.36,4,.36,1.5-1.5,4.5,2-1,2.5h-.5l-.5,3.5,1,1v3l-1,.5v-1h-.5v1.5l-1-.5v1l4,2.5-2.5,1.5-4-1.5.5-4-.5,1.5-1-1-1,.5v-.5l-3,.5-.5,2-2,.5-.5,1.5-2.5-2.86,5.5-2.5Z"/>
      <path data-code="oktjabr_skij_rajon__orenburgskaja_oblast_" data-title="oktjabr&amp;apos;skij_rajon_(orenburgskaja_oblast&amp;apos;)" class="cls-1" d="M160.44,164.26l-.5-2,3.79-.95-.29-2.19,5.5-1.36v-3l3.5-.5v-2h2v2.36l3.5,1.5.5-1.5,2.5.5,2-3,5-1-1.5,2.5.5,1.5,2.5.5,2-2,2,4.5-2.5,2,3.5.5-.5,2h-1l-.5,1,1.5,1-.5.5-2.5-1.5-.5,1.5,1.5,1-.5,1h-.5l-1,1.5,1,2-3,1.5.5,2.5,1,.5,1-1,1,3,1.5,1,1-2.5,1,.5v4l1.5,3,4-1-1.5,1.5v1l-1.5.5-2-1.5-2,1.5h-2l-1,2-4-1v4l-1,.5-2-1-1.5,1-2-2-1,1-1-1.5-1,.5-.5,1.5-1,.5v-1.5h-2l-.5-2.5-1.5-11-10.5,1.5v-1h-2.5v-2l-5.5.5v-3.5l1-.5-.56-3.68,1.56.31v-2l5.5-1Z"/>
      <path data-code="orenburg" class="cls-1" d="M152.44,204.12l.5-1,3.5-1v-1.5l.5-1h2l1-1,4.5,4.5,1,.5,1-1.5,2.5,1-1.5,4-4.5-1.5-2.5,2,.5.5-1.5,2.5-1.5-.5-.5,1v-1l-2,.5-.5-1.5v2l-1-.5-1,2-2.5-3.5h1.5l-.5-1,.5-1,1,1-1-2.5,1-.5-.5-1M164.94,218.12l1.5-1.5v-1.5l.5-.5,3,.5.5,2,1.5-.5-1.5,1,.5,2-1,1.5-2-.5-1-1.5-2-1"/>
      <path data-code="orenburgskij_rajon" data-title="orenburgskij rajon" class="cls-1" d="M164.94,218.12l2,1,1,1.5,2,.5,1-1.5-.5-2,1.5-1-1.5.5-.5-2-3-.5-.5.5v1.5l-1.5,1.5M120.94,199.62l2.5-1.5,1,2.5-.5,1,.5.5,3-.5.5-1.5,1.5,2,.5-2,9,1v-2l2-.5-1-1.5v-3.5l1.5-1,1,1,.5-1.5-2.5-3,.5-1-2-1.5.5-1-.5-.5,1-.5,1-2.5,1.5.5,3-4v-1.5l1-1,1,2,.5-1,5-.5v1.5l1.5.5v3h1.5l1.5,5.5,1-.5,2.5,3.5,3.5-1.5.5,2.5-4.5,2.5-1,2v3.5l-2.5.5-.5,1v1.5l-3.5,1-.5,1,.5,1-1,.5,1,2.5-1-1v2h-1.5l1.5,1.5-.5,1,1.5,1,1-2,1,.5v-2l.5-.5v2l1.5-1,.5,1.5.5-1,1.5.5,1.5-2.5-.5-.5,2.5-2,4,2,2-4.5,2,1.5.5-1.5,4,2,.5-1.5,6.5,3-.5,3-1.5,1,2.5,1.5-1,3,6.5,4.5h2l-1.5,3,2.5,4-5,2-1-3.5-4-2-1,2.5-2-1-.5,1h-2l-3.5,2.5,3.5,4.5-.5,2-3,2.5-3.5-4-3,2-2.5-4-6,.5-.5-3-3.5,1.5-.5-2,1-.5v-1.5l-5,2-1-3.5-3.5.5-6,7.5-3,.5-1.5-1v1.5l-3.5,1.5v1l-5-1-4-3,.5-2.5h-2.5l-1.5-3.5,1-8.5-.5-2,1.5-3.5,1-1.5.5-8.5-.5-2.5"/>
      <path data-code="orsk" class="cls-1" d="M285.94,255.63h2l3.5-9,5.5,1.5-1,1.5-.5,3.5-1.5,5-1.5.5-1,3-1.5,3-3.5-1.5v-4l1-.5v-.5l-1.5-2.5M259.94,289.63h.5l1-2.5,1.5.5-1,1,4,2,7.5,2.5,1-1,1,2,1.5-.5-.5,4h-.5l.5,2-3,4v.5l-.5,1.5h2l1,1.5,3-5,4.5,2-3.5,5,1.5,1.5-.5.5,1,.5v1.5l.5.5-1,1,.5.5-1,2-1-.5-1.5,2-9.5-6.5h-1.5l-2-2.5h-3l-1.5-4-5-1,.5-3-1-.5,4,1.5,2.5-1.5-4-1.5v-2l1,.5v-1.5h.5v1l1-.5v-3l-1-1,.5-3.5"/>
      <path data-code="perevolockij_rajon" data-title="perevolockij rajon" class="cls-1" d="M110.94,189.12l5-2-1-1,.5-1,3-1,.5-1h.5l.5-1.5-1.5-1,1-2,3.5-1.5-1-.5,4-4,2-5,2-.5,1.5,2.5,5-2.5-1-1-1,1-1.5-1.5,2.5-2-.5-.5,1.5-1-.5-1,2.5-1.5,1.5-2.5-.5-2,1.5-1,6.5,4.64,2.5-2.14,3,3.64-.5,3,1.5,5.86-3.5,1-.5-1h-2.5l1,1-1.5,1,1,6.5-.5.5-1-2-1,1v1.5l-3,4-1.5-.5-1,2.5-1,.5.5.5-.5,1,2,1.5-.5,1,2.5,3-.5,1.5-1-1-1.5,1v3.5l1,1.5-2,.5v2l-9-1-.5,2-1.5-2-.5,1.5-3,.5-.5-.5.5-1-1-2.5-2.5,1.5-.5-2v1l-3.5-1-2,1,.5-1-3.5-.5-.5-2.5,1-2-1.5-3.5"/>
      <path data-code="pervomajskij_rajon__orenburgskaja_oblast_" data-title="pervomajskij_rajon_(orenburgskaja_oblast&amp;apos;)" class="cls-1" d="M.44,130.12l7.5-2.5,4.5-.5,2-1.5,3.5,1.5,2-1,.5-2.5,2.5,1.5,9-2,4-4,.5-1.5,1.5-.86,3,1.36,1-1.86,2,.5,3,4.5,4.5,12.86,3.5.5,2.5,2.5,7,2.5.5,3.5,1,.5-6.5,6.5-3,5,.5,4h-2v1.5l-4-.5v-1l-2-.5-1.5,2.5-4,.5v-1.5l-3-1,.5-1-5-1.5-1,1-1.5.5-2,1-.5,1.5h-1l-1.5,6h-7v-2l2-1.5.5-2.5h-1.5l.5-1-2.5.5-.5,1.5-5.5-.5-4.5-4,1-2.5h-1.5l1-2.5,5,2.5,2-3.5.5-1.5-2.5-1.5v-3l-2-1-1.5.5-10-7,1.5-4.5-3-3"/>
      <path data-code="ponomarevskij_rajon" data-title="ponomarevskij rajon" class="cls-1" d="M153.94,81.62h2l2-1.5,10.5,2,1,6,2.5,3h1l2-1.5,2.5,4,5,3v2.5l-2.5,3.5,2.5,1.5-.5,1.5-2,1v1.5l-2.5-.5-1.5,3.5h-3.5v1h-1.5l-1.5-1.5-1.5.5-1,4-1.5,1.5-6.5-3.5-1.5,1-3-3-2,1.5-2.5-1.5.5-2,2-2-1.5-1.5,2.5-2.5-4-1-3-4.5,2-3,3.5,1,5-7-.5-3-2.5-4"/>
      <path data-code="sakmarskij_rajon" data-title="sakmarskij rajon" class="cls-1" d="M147.44,169.12h2.5l.5,1,3.5-1v1.5l-1,.5v3.5l5.5-.5v2h2.5v1l10.5-1.5,1,6.5-.5,1,1.5,6h2v1.5l1-.5.5-1.5,1-.5,1,1.5,1-1,2,2,1.5-1,3,.5-.5,2,7,3-1,1.5,1,1-.5,1.5,1.5,1-1.5,4.5-1-.5-.5,1.5-1.5,1-1,2-1-1.5-3,.5,1-1.5-1.5-3.5-1.5,1.5-1,1.5-1,.5-4.5-2.5-.5,1.5-4-2-.5,1.5-4.5-2.5-1,1.5-3-2-2-2.5-1-3.5,1-2,4.5-2.5-.5-2.5-3.5,1.5-2.5-3.5-1,.5-1.5-5.5h-1.5v-3l-1.5-.5v-1.5l-5,.5-1-6,1.5-1-1-1"/>
      <path data-code="saraktashskij_rajon" data-title="saraktashskij rajon" class="cls-1" d="M181.94,205.12l2-2.5,1.5,3.5-1,1.5,3-.5,1,1.5,1-2,1.5-1,.5-1.5,1,.5,1.5-4.5-1.5-1,1-3,6,1.5.5,2,1.5,1,4,.5,2,2.5,3,.5,1-1.5h1l3-1.5h2-2v1.5l-2.5.5,1,1.5,2.5-.5,4,4.5-1,2-2,.5.5,1.5.5-1,2-.5,1,3.5-5,5.5,1,2h1l-.5,2.5-4-1-2.5,4,3.5,6v3l-1.5-1-.5,3-.5,1v1l-4,4.5v2l-2,5-2-.5-.5-1.5-4-3.5,1.5-.5,1-2.5-1-4h-7.5l-3.5,2.5v-1l-1.5.5.5,1-1.5,1-.5-3h-2.5l.5-1-.5-2h1l-3-1,.5-1.5-1.5-1,.5-3.5h-1.5v-1.5l-1,1-1.5-2.5.5-1-1-1,.5-1,2,1,1-2.5,3,1-.5.5,1.5.5,1,3.5,5-2-2.5-4,1.5-3h-2l-6.5-4.5,1-3-2.5-1.5,1.5-1,.5-3-.5-1.5"/>
      <path data-code="severnyj_rajon__orenburgskaja_oblast_" data-title="severnyj_rajon_(orenburgskaja_oblast&amp;apos;)" class="cls-1" d="M128.94,9.12l1-1.5,1.5,1,1-1,.5-1.5,2-2.5-.5-2,1-1,3,.5,3,2.5,5-3v2h3l3.5,5.5,2.5.5,1,1.5-3,1,2,2h.5l.5-1,2,.5-.5-2.5,3.5-1-.5,2.5,1.5,3-2,1,.5,1.5h-2l-2-1.5,1,2h-1l-2-1,1-.5v-.5l-2-1-1,3.5,1.5,2-.5,2.5,1.5,1.5-1.5,2-.5-.5-1,1.5,4.5,1,2-1.5,1,.5v1.5h-1l2,1-2,3.5,1,1.5-1.5.5-3.5-1.5.5,1-1,1.5-4,2-.5-.5,1-2.5-2-4.5-1,.5v-1l-3.5,1.5.5-2-1-1-1,1,1.5-3.5-1.5-.5-1,2-1-1-2.5,2-1,3-2.5-2.5-2.5,3-.5-2-1-.5.5-.5v-1l-1.5,2.5-1-2-2,.5-.5-1,1-1-.5-1-1-1,1.5-2.5-1.5.5,1-1-1-.5,2.5-2.5,4-1,.5-1-3-2,1.5-4.5-1,.5.5-1-1.5,1.5-.5-2.5"/>
      <path data-code="sharlykskij_rajon" data-title="sharlykskij rajon" class="cls-1" d="M160.94,115.12l1.5-.5,3,2,1.5-1.5,1-4,1.5-.5,1.5,1.5h1.5v-1h3.5l2-4,2,1v-1.5h.5l5,1.5h2l2.5-1.5-.5,2,2,3.5-2,6.5-1,1,1,3.5-1,7,1,4.5-1,2.5.5,1.5h-1l.5,1-1.5,1.5h1.5l1-1,1.5,2,1.5-1v1h3l.5,2.5,1-.5-.5,3h-3.5v2l2,.5v1l-2,1.5-1-.5-.5,1.5-1.5-1.5.5-2.5h-1.5l.5-1.5-1.5-.5-1,1,1.5,2-.5,1-5,1-2,3-2.5-.5-.5,1.5-3.5-1.5v-2.36l-1.5-3.64-2,.5-1-3.5,1-3.5-.5-1h-1.5l-.5-1,1.5-1-2-2,.5-1-6.5-4.5,1.5-1.5.5,1,1-.5-2.5-3.5v-1.5l-1-1.5,1.5-2.5-2-6.5"/>
      <path data-code="sol_-ileckij_rajon" data-title="sol&amp;apos;-ileckij_rajon" class="cls-1" d="M97.94,226.13l3.5-.5-1.5-2,1.5-1.5-.5-.5,3.5-2,2.5.5-1.5,2.5,1.5,2,3.5-4h2.5l5,2.5v3l1.5,3.5h2.5l-.5,2.5,2,1.5,2,1.5,5,1v-1l3.5-1.5v-1.5l1.5,1,3-.5,6-7.5,3.5-.5,1,3.5,5-2v1.5l-1,.5.5,2,3.5-1.5.5,3,6-.5,2.5,4-3.5,2-2-1-2,2.5-2.5-.5-1,1.5-2,5-2,2,.5,1,2-.5.5.5-2.5,1v1.5l-1.5,1.5,2,3-2,1-2-1-2.5,3.5-1.5-5-2,1-1.5-1-1.5,1.5v2.5l-.5,1,.5.5-1.5,3.5h-4l-2,2v2l-4,2.5-2-2,4.5-3-1-3.5-1-1-2,1-3.5-3,1-.5-1-1,1-1-3-3.5v-4.5l-2-.5-.5,1.5-3-2.5-2.5.5-1,.5,1,2h-1v1.5l-2,1,4.5,3,.5,2-3.5,3.5-.5,3.5-2,3.5.5,2.5-1,1.5-.5,3-7,3.5v-2h-3.5l-1-6.5,4-5,1.5-3,5.5-5-3-1,1-2.5h-1.5l-3.5-3.5,1-3.5-2.5-2,.5-2-1-.5.5-1.5,1.5-1v-2h-1.5l1.5-1.5.5-2-2.5-2.5v-3.5"/>
      <path data-code="sorochinsk" class="cls-1" d="M103.94,128.62l1-.5,1.5,3.5,2.5-2-.5,1,.5.5-2.5,4-.5-.5-1.5,3-1.5-1,1.5-2-2.5-1,2.5-2-.5-3"/>
      <path data-code="sorochinskij_rajon" data-title="sorochinskij rajon" class="cls-1" d="M103.94,128.62l.5,3-2.5,2,2.5,1-1.5,2,1.5,1,1.5-3,.5.5,2.5-4-.5-.5.5-1-2.5,2-1.5-3.5-1,.5M100.94,107.26l1.5.5.5-2,3.5-1,.5,1.5,5.45,2.91-.45,2.46h-1v4.5h.5v3.5l.5.5-1,1,6.5,4-.5,1.5,1,.5,6.5,3.5,1-1v1.5l-1,2,.5.5-1.5,3-2.5-1.5-2.5,5,1.5,1-1,1.5,7,3.5-1.5,4.5.5,1.5-8-2.5-1,2-2.5-.5-1,2-1,1-1.5-1,1-3.5h-2v-1.5l-2,1,.5,1-1.5.5.5,1-2.5,1-.5,1-4,1.5-.5-2-1,.5v-1l-2.5-.5-.5,1-4-1-1-3,.5-2-3-1.5-1-2.5,1-2.5-1-.5,4-7-.5-.5,1-1v-2.5l3-2.5,3,1.5-1,2,1.5,1,4-9,1.5-1,.5-6,2-1.5-1-2-1.5,1-3-2.36,2-2-1-1"/>
      <path data-code="svetlinskij_rajon" data-title="svetlinskij rajon" class="cls-1" d="M314.44,350.13l2.5-1.5-.5-.5,2.5-1.5,4-.5,2.5,2v1.5l3.5.5,8-17.5-5.5-2,2-3,8,3.5,2.5-7.5,6.5,1.5-2,5.5,6,2.5,6.5-15.5,5.5,1.5.5,2,4,1,9.5,7v6l3.5,7-5-.5-15.5,26.5h-.5l-27,.5-18.5-8-3-10.5"/>
      <path data-code="tashlinskij_rajon" data-title="tashlinskij rajon" class="cls-1" d="M56.44,155.12l3-5,3.5-4,5.5,6,1.5-1.5.5.5,3.5-2.5,4.5,2v1h2l.5-1-1-1,1.5-2.5,1.5-1,1-2.5,1,1,.5-1.5h1l1,2.5,3,1.5-.5,2,1,3,4,1-2,2,2,2v4l-2,4.5,4,2-2.5,4-4-3h-3l-1,1v3h2l.5,1.5-1.5,2h-1l1,2-2,2.5-.5-.5-1.5,1.5-1-1.5.5-1-5,.5-.5-1.5-2,3.5,1,3-2,1v1.5l-1.5,2h-2l-1-1.5-.5,1.5-.5-1-.5,1-.5-2.5h.5-1v1l-.5-1h-1.5l2-1h-1.5l-.5-1.5-.5,1.5v-1.5l-1.5-.5.5-.5-1,.5.5-1.5-1,1.5-.5-1v1l-.5.5-.5-.5.5-1-1,1-1.5-.5-.5,1.5v-2.5l-1.5,1.5-.5-1v1l-1.5-.5,1-1-.5-.5-1.5,1-.5-.5,1.5-2-1-1.5,1.5-5v-3.5l-.5-3,2-8-.5-4"/>
      <path data-code="tjul_ganskij_rajon" data-title="tjul&amp;apos;ganskij_rajon" class="cls-1" d="M186.44,186.12l4,1,1-2h2l2-1.5,1,1.5,2.5-.5v-1l1.5-1.5-4,1-.5-2,2-1.5.5,1,3.5-1.5-.5-1,1-4,1-.5,1.5-4,2.5.5-1.5,3h1l2-2.5,1.5,1.5,4-4-.5-2,3.5,1.5-2.5.5,3,1-1,2.5h1.5l1,4.5,5-1.5,2.5,1v1l-2,1,.5,1.5h-2.5l-.5,1.5h-1.5l-1,5.5,2,.5,1.5-3,1,3-3,1.5-.5,1.5-1,2.5-.5.5-.5,2.5-4.5-.5-1.5,1v.5l-2.5.5-1,1.5-.5-1.5-3,3-.5,1.5-4-.5-1.5-1-.5-2-6-1.5-.5,1.5-1-1,1-1.5-7-3,.5-6"/>
      <path data-code="tockij_rajon" data-title="tockij rajon" class="cls-1" d="M62.44,133.76l1-.5.5-3,1,.5,1.5-3.5,1.5.5,1.5-2.14-1-1.5.5-2-4-1.36,1-2.5,1.5-1,1,.5,1-2,3.5,2.5,1-1-1-2.14,1.5-2.36,2.5,2.36,2.4-3.71,3.1-1.15,4.5-7,3,3-1,2,.5,1,2.5.36,1-2.86h.5l3,1v.86l-.5.5v.64l4,.5,3,2.36,1.5-1,1,2-2,1.5-.5,6-1.5,1-4,9-1.5-1,1-2-3-1.5-3,2.5v2.5l-1,1,.5.5-4,7,1,.5-1,2.5h-1l-.5,1.5-1-1-1,2.5-1.5,1-1.5,2.5,1,1-.5,1h-2v-1l-4.5-2-3.5,2.5-.5-.5-1.5,1.5-5.5-6,3-2.5-1-.5-.5-3.5-7-2.5-2.5-2.5,2-3.36,5.5,2.5Z"/>
    </g>
</svg>