<svg data-code="RU-ORL" xmlns="http://www.w3.org/2000/svg" viewBox="0 0 124.25 138.75">
    <g data-code="orlovskaja_oblast_" data-title="orlovskaja_oblast&amp;apos;">
      <path data-code="bolkhovskij_rajon" data-title="bolkhovskij rajon" class="cls-2" d="M73.63,1.12l-.5-.5,2.5,1.5v1l-1,.5,2,1.5v1l5-3,2,.5,3-1.5h1.5l-.5,2,1.5,2.5-2,1.5-.5,1h1.5l2.5,4.5h2.5l-.5,1,2,1-.5,1-1,1v2l-1,1,1.5,1.5-.5,1.5-2-.5-1-2.5h-1.5l-1.5,2-5,4v.5l-2.5,1-1.5-1.5-2.5,2v.5l-1,1-.5-.5,1-1h-2v-2.14l-2.5-1.5-2.5-4.5,2.5-1.5-.5-1.5,2.5-.5-2-3,3-2-1.5-2,.5-1v-2l-1-1,1.5.5,1-2.86-1.46-.86.96-1.64Z"/>
      <path data-code="dmitrovskij_rajon__orlovskaja_oblast_" data-title="dmitrovskij_rajon_(orlovskaja_oblast&amp;apos;)" class="cls-2" d="M1.13,46.62l2-1.5.5-1.5h2.5l1.5-1.5,2.5,1.5,4-4,1.5-.5.5-2.5,1-1,2.5,1,2.5-1,1.5.36.5,1.5-.5,3,1,1.5,1-.5v2.5l-1,1v4l2.5,1,1.5-.5,2,.5,1.5.64v3l-2.5,1-.5,1-4-.5,1,1-.5,1.5,1.5-.5-.5,1.86-1,.5.5,1-2.5,1-3-2.86-2,1.5-1-.5,1,1-1.5.5-2-1.5-1-2.5-1,.5-2-1.5-1.5,1.5-.5-1-1.5.5-4-1.5,1-2-2-2,.5-.5-1.5-2.5H.62l.5-2"/>
      <path data-code="dolzhanskij_rajon" data-title="dolzhanskij rajon" class="cls-2" d="M59.63,121.62l2.16-2.33,4.34.33v-2l1-.5-.5-1.5,2,.5.5-.5,2-.5,1.34-.8,2.16,1.3v3.5l2.5,2,1.5-1.5,1.5,1,.5-1,2.5.5-2,4,3,1-.5,2,1.22,1.22-1.42.52.2.76-.5,1.5h-1l-.5,1.5-1-.5-1,1v1h-1l-1,1.5h-.5l-3,2.5-1.5-4-3.5-3.5-3,2.5h-3l-.5-4,.5-2-2-1-1.5-4.5"/>
      <path data-code="glazunovskij_rajon" data-title="glazunovskij rajon" class="cls-2" d="M43.63,66.62l3,2.5h1l.5-1.5.5.5-.5,2,2.5.5,1.5-1,3,1.5.5,3-1.5,1,1,2.5,1-.5,2.5,1.5.31,1.5-4.81.5v1l-5-1-.5,1.5-2-2.5-.5.5.5,2-4-1-2.5,1-1-1-1.5.5-.45-1.06,1.44-.58-1.5-1v-3.5l1.5-2.5h2l1.5-1.5-2.5-2,.5-1.86,3.5-1Z"/>
      <path data-code="khotyneckij_rajon" data-title="khotyneckij rajon" class="cls-2" d="M44.13,6.62l1.5-2,.5.5,1.5-1,4,2.5,1-2.5,4,2.86-1.5,2,1,1,1.5-.5,1,2-1,1v.5l2,.5-1,1-1-1-1,3-2-1-.5,2.5.5,2.5,1.35.9-.85,2.24-.5.5.5,1h-2.5l-1,1.5h-1l-1.5-.5v-2l-1.5.5-1.5,2.5-1.5,1-1.5,2-1-2-3-1.5.5-1,1.5-.5v-3l1-1-.5-1,3-.5-1-1,.5-1.5v-1.5l-2.5-1.5,1-1.5-1.5-1,2-2-.5-.5,1.5-.5v-2"/>
      <path data-code="kolpnjanskij_rajon" data-title="kolpnjanskij rajon" class="cls-2" d="M48.63,100.12l2.5-1h2.5l1,1.5,1.5-1.5-.5-2.5h3.5l-.5-1,.5-.5,2.5,2.5,2.21-1.84,2.29-.29,2,1.5-1,.5-.5,2,3.5-.5,1,1.5,1-.5,1.5,1.5,1.5-1,2.5,2.64-1,1v1l-2.5,3-.5,5.5-2.5,1.5-2,.5-.5.5-2-.5.5,1.5-1,.5v2l-6-.5-1-2.5-1.5.5-.5-1-.5-1,1.5-1-3.5-.5-.5-2-2-2-1-3,.5-2.5-3-2.5v-1.5"/>
      <path data-code="korsakovskij_rajon__orlovskaja_oblast_" data-title="korsakovskij_rajon_(orlovskaja_oblast&amp;apos;)" class="cls-2" d="M101.63,51.12l2-.5.5-1.5h1l.5-1,3,1v2l2,2,2,1h5l2.5,3v.5l-1,.5,1,1.5,3.5,1-4.5,5.5-2.2,5.74-2.8-1.88-4,1.14,1-2-3.5-.5.5-1.5-2.02-.51.02-3.99h-1l.5-1.5-1-2.5.5-.5-.5-1.5,1.5-1.5-2-1.5-.5,1-1.5-.5-.5-3"/>
      <path data-code="krasnozorenskij_rajon" data-title="krasnozorenskij rajon" class="cls-2" d="M98.62,87.49l1-2.36,2.5-1,2,1.5,1.5-1,4.5,3h1v-1h1l1.5,1-.5,1.5.5.5h-.5l-.5,2.5,1.5,1.5-1,2.5-2,2h-4l-1,2.5h-1.5l1,1-1,1-1.5-.5-2.5.5-1-2.5.5-1.5-1.5-1-1.5,1v-4l-2.5-.5,1.5-2.5-1.5-2.14,1-3.5,3,1.5Z"/>
      <path data-code="kromskoj_rajon" data-title="kromskoj rajon" class="cls-2" d="M25.13,55.12l4,.5.5-1,2.5-1v-3l-1.5-.64.5-1.5,2.5,1.5.5-1.5h1l-.5-2h1.5l-.5-1.5h-.5v-1.5l4.5-.5,2.5,2,1.5-1.5,1-3.5v2l2.5.5-1.5,1.5,1.61,1.61-2.6,2.03,3.5-.5,1,.5v2.36s4.49.5,4.49.5l-1,1,.5,1.5-2-.5.5,1-.99.64,1.14,1.31-4.64,1.56,1.5,2-1.5.5-1,3-1,1,.5,2.5,1.5,1-1.43,1.36-2.07-1.72-3.5,1-2.5-1.5,1-3-4-4.5-1.5-1-3,1.5-1-2-1,1.5-1-1.5-1.5.5.5-1.5-1-1"/>
      <path data-code="livenskij_rajon" data-title="livenskij rajon" class="cls-2" d="M86.13,108.62l.5,1.5h2.5v2l1.5-1.5-.5-.5h.5l1-2h-.5l-1,1-1-1.5-1.5,1.5-1.5-.5M77.13,99.12l3-1.14,2,2v2l3,1.5.5-4.5,1.5-.5,3.5,2v-2l1-3,3,1,2.5-.5v2.64l1.5-1,1.5,1-.5,1.5,1.5,2-1.5.5,2,3-.5,2h1l-.5,1.5-1.5-.5v.5l-2,.5,3.5,5-1,1.5-2.5-.5,1,4,.5-.5,1,.5-1.5,2.5,1,3.5h-1l-.5,1.5h-2.5l1,1.5-1.5,1h-1l-.5-1.5-4-1-1,1.5-1.5-1.5-2.5,1.5-1.5-1.5.5-2-3-1,2-4-2.5-.5-.5,1-1.5-1-1.5,1.5-2.5-2v-3.5l-2.16-1.3,1.16-.7.5-5.5,2.5-3v-1l1-1-.81-.81.31-3.19"/>
      <path data-code="livny" class="cls-1" d="M86.63,110.12l-.5-1.5,1.5.5,1.5-1.5,1,1.5,1-1h.5l-1,2h-.5l.5.5-1.5,1.5v-2h-2.5Z"/>
      <path data-code="maloarkhangel_skij_rajon" data-title="maloarkhangel&amp;apos;skij_rajon" class="cls-2" d="M46.13,80.12l.5-.5,2,2.5.5-1.5,5,1v-1l4.81-.5.18.87.5-1.5,1,1,2.5-3-1,2,1,1-.5,3.5.5.5,2-1.5,1,1.5v1h-1l-.5,1-1.5,1v1l-1.5.5,1,1-.5.5-.5,2.5.5,1.5-.5,1,2.21.29-2.21,1.84-2.5-2.5-.5.5.5,1h-3.5l.5,2.5-1.5,1.5-1-1.5h-2.5l-1.5,1-2.5-2.5-1-3,1-2,1-6-.5-3-1.5-.5v-3"/>
      <path data-code="mcensk" class="cls-1" d="M93.13,38.62l-1-.5v1h-.5l-2.5-1,2-1-1-1h4l-1,2.5Z"/>
      <path data-code="mcenskij_rajon" data-title="mcenskij rajon" class="cls-2" d="M90.13,36.12l1,1-2,1,2.5,1h.5v-1l1,.5,1-2.5h-4M78.13,26.62l1.5,1.5,2.5-1v-.5l5-4v-1l1.5-1h1.5l1,2.5,2.5.5-.5,2.5,1.5.5-.5,2.5.5,2,1.5,1h2.5l1-1,1,3-1,1h-1l1,4-1,1h1l-.5,1.5,1,1.5,3,1.5-1.5.5,4.5,1v.5l-1,1.5.5.5-1.5.5-.5,1.5-2,.5.5,3-2.5-1v1l-4.5-2-1,.5v1l-.5-.5-1.5,2-1.5-1.5-1,2-2,.86-1.5-.5,1-1h-.5l.5-1-.5.5v-2.5l.5-.5-4-.5-4.5-2-2-5.36.5-2,1,.5.5-1-1.5-1,1.5-2,.5.5.5-1.5-.5.5v-1.5l-2.5,1.5-.5-1-1,.5.5-1-.5-1,1-.5.5-1-.5-3,2-.5-1.9-1.98,1.9-1.52Z"/>
      <path data-code="novodereven_kovskij_rajon" data-title="novodereven&amp;apos;kovskij_rajon" class="cls-2" d="M102.62,71.49l.5-2.5,2-.5.5-2,2.5.64-.5,1.5,3.5.5-1,2,4-1.14,4,2.5h3.5v2.5l1.5,2.5-1,.5-1,2v3.5l-3.5,1.5v1.5l-1.5,1,.5,2-3,.5-.5-.86.5-1.5-1.5-1h-1v1h-1l-4.5-3-1.5,1-2-1.5-2.5,1,.5-1.14h-2l-.5-7.5h1l1.5,1-.5-2h-1l1-3v-1.23l3,.23Z"/>
      <path data-code="novosil_skij_rajon" data-title="novosil&amp;apos;skij_rajon" class="cls-2" d="M92.13,55.12l1.5-2,.5.5v-1l1-.5,4.5,2v-1l4,1.5.5-1,2,1.5-1.5,1.5.5,1.5-.5.5,1,2.5-.5,1.5h1l-.02,3.99-.48-.12-.5,2-2,.5-.5,2.5-3-.23v-1.27h-1.5l-1,2.5v1.5l-1-.5-2,1-.5-2h-1l-.5-3v2l-1.5-1-1.05,1.23-.45-4.23,1-3-1.5.5-1-2.5h1l1.5-4h-1l.5-2.86,1-2,1.5,1.5Z"/>
      <path data-code="orjol" class="cls-2" d="M61.12,43.49l.5-1.5,1-.5-.5-1h1l.5.5v1l1,.5,1.5-1,3.5.5,1,1.5-3-.5v2l-1,1.5v.5l-2,.5-.5-1.5-.5,1-.5-.5v2l-4-1.5-.5-3.5h2.5Z"/>
      <path data-code="orlovskij_rajon__orlovskaja_oblast_" data-title="orlovskij_rajon_(orlovskaja_oblast&amp;apos;)" class="cls-2" d="M58.62,43.49l.5,3.5,4,1.5v-2l.5.5.5-1,.5,1.5,2-.5v-.5l1-1.5v-2l3,.5-1-1.5-3.5-.5-1.5,1-1-.5v-1l-.5-.5M63.12,40.49h-1l.5,1-1,.5-.5,1.5h-2.5M61.12,26.99v-1l2.69-1.61,1.81,1.61,2-.5.5-1-1-1,1.52-2.07,1.98,3.57,2.5,1.5v2.14h2l-1,1,.5.5,1-1v-.5l.6-.48,1.9,1.98-2,.5.5,3-.5,1-1,.5.5,1-.5,1,1-.5.5,1,2.5-1.5v1.5l.5-.5-.5,1.5-.5-.5-1.5,2,1.5,1-.5,1-1-.5-.5,2,2,5.36-2.5,1.5-1-1.5-5,1,.5,1h-1.5v2.5l1.5.5.5,1.5-3,3-5-.5-1.5,1.5-4.5.5v1.5l-1,.5v-4.5l-3-.5-2.5-2.86,1-.64-.5-1,2,.5-.5-1.5,1-1-4.5-.5v-2.36s-.99-.5-.99-.5l-3.5.5,2.61-2.03.39.39,2-2,.5,1.5h2l1.5-4,2,.5.5-.5.5-3-1-.5,2.5-1,1.5,1-1-2,1.5-1v-.5l1.5-1-3.5-5.5,3-1Z"/>
      <path data-code="pokrovskij_rajon" data-title="pokrovskij rajon" class="cls-2" d="M65.12,71.99l.5,1.5,1.5.5.5-2,.5.5,1.5-1v-1l2-.5,2-2.5h.5l.5.5.5,2-.5,1-1,.5.5,1,1.5-1,1,2.5h1.5l1,1.5,1,.5.5,1-1,.5.5,3,3-.5.5-2.5,2,2-1,2.5.5.5h-.5l.5,2-3,3.5,1,1v2.5l-2,2.5-1,4-3,1.14-.31,3.19-1.69-1.83-1.5,1-1.5-1.5-1,.5-1-1.5-3.5.5.5-2,1-.5-2-1.5-4.5.5v-.5l.5-1-.5-1.5.5-2.5.5-.5-1-1,1.5-.5v-1l1.5-1,.5-1h1v-1l-1-1.5-2,1.5-.5-.5.5-3.5-1-1,1.5-3-1-2,1-1.5,1.5-1Z"/>
      <path data-code="shablykinskij_rajon" data-title="shablykinskij rajon" class="cls-2" d="M19.12,19.49l1,.5.5.5,1,.5v-1.5l1,.5v-1l1.5-.5,1,.5v-.5l1.5,2.5,1.5-2.5,1,1,.5-1,.5,2,1.5-.5.5,1.5h1l1,1.5.5-1,2.5-1.5,1.5,2,1.5-1,1,1.61v2.03l-1.5.5-.5,1,1.5.75-.04,6.27-4.46.34,1,2h-.5l-1-.5-1.5.5v-1.5l-1.5-1-1.5,1.5-1,1-3.5,2-2.5-.5-.5-1.5h-.5l-.5.5-.5-1.5-2.5-.5v-1.5l2.5-1.5-1.5-1.5.5-1.5-.5-2.5-1.5,1-.5-3,1.5-4-1-.5"/>
      <path data-code="soskovskij_rajon" data-title="soskovskij rajon" class="cls-2" d="M24.12,37.49l2.5.5,3.5-2,1-1,1.5-1.5,1.5,1v1.5l1.5-.5,1,.5h.5l-1-2,6.5-.5-.5,4.5h2.5l1,3-1-1-1,3.5-1.5,1.5-2.5-2-4.5.5v1.5h.5l.5,1.5h-1.5l.5,2h-1l-.5,1.5-2.5-1.5-.5,1.5-2-.5-1.5.5-2.5-1v-4l1-1v-2.5l-1,.5-1-1.5.5-3"/>
      <path data-code="sverdlovskij_rajon" data-title="sverdlovskij rajon" class="cls-2" d="M47.12,56.99l4.64-1.56,1.36,1.56,3,.5v4.5l1-.5v-1.5l4.5-.5,1.5-1.5,6,.5-2,3h2.5l1.5,2-.5,1-.5.5.5,1.5,2,.5v-.5l1.5,1h-.5l-2,2.5-2,.5v1l-1.5,1-.5-.5-.5,2-1.5-.5-.5-1.5-1.5,1-1,1.5,1,2-.5,1-2.5,3-1-1-.5,1.5-.5-2.36-2.5-1.5-1,.5-1-2.5,1.5-1-.5-3-3-1.5-1.5,1-2.5-.5.5-2-.5-.5-.5,1.5h-1l-.93-.78,1.43-1.36-1.5-1-.5-2.5,1-1,1-3,1.5-.5-1.5-2"/>
      <path data-code="trosnjanskij_rajon" data-title="trosnjanskij rajon" class="cls-2" d="M28.13,58.62l1-1.5,1,2,3-1.5,1.5,1,4,4.5-1,3,2.5,1.5-.5,1.86,2.5,2-1.5,1.5h-2l-1.5,2.5v3.5l1.5,1-.5,1-4.5-2-3.5.5-3-4.5-5,.5-2.5-1.5,4-4.5v-4.5l2.5-2.5-1.2-1.62,1.2-.38-.5-1,1-.5.5-1.86,1,1.5Z"/>
      <path data-code="urickij_rajon" data-title="urickij rajon" class="cls-2" d="M42.13,28.12l1,2,1.5-2,1.5-1,1.5-2.5,1.5-.5v2l1.5.5h1l1-1.5h2.5l-.5-1,.5-.5.85-2.24,1.65,1.1,3.5-.5,2.69,2.39-2.69,1.61v1l-3,1,3.5,5.5-1.5,1v.5l-1.5,1,1,2-1.5-1-2.5,1,1,.5-.5,3-.5.5-2-.5-1.5,4h-2l-.5-1.5-2,2-2-2,1.5-1.5-2.5-.5v-2l1,1-1-3h-2.5l.5-4.5-2.04.16.04-6.27,1.5.75Z"/>
      <path data-code="verkhovskij_rajon" data-title="verkhovskij rajon" class="cls-2" d="M80.62,74.49l2,1,3-3,2,1.5,3-3.5,1.5,1v-2l.5,3h1l.5,2,2-1,1,.5v-1.5l1-2.5h1.5v2.5l-1,3h1l.5,2-1.5-1h-1l.5,7.5h2l-1.5,3.5-3-1.5-1,3.5,1.5,2.14-1.5,2.5,2.5.5v1.36l-2.5.5-3-1-1,3v2l-3.5-2-1.5.5-.5,4.5-3-1.5v-2l-2-2,1-4,2-2.5v-2.5l-1-1,3-3.5-.5-2h.5l-.5-.5,1-2.5-2-2-.5,2.5-3,.5-.5-3,1-.5-.5-1,.5-1.5"/>
      <path data-code="zalegoshhenskij_rajon" data-title="zalegoshhenskij rajon" class="cls-2" d="M69.12,50.99h1.5l-.5-1,5-1,1,1.5,2.5-1.5,4.5,2,4,.5-.5.5v2.5l.5-.5-.5,1h.5l-1,1,1.5.5,2-.86-.5,2.86h1l-1.5,4h-1l1,2.5,1.5-.5-1,3,.45,4.23-1.95,2.27-2-1.5-3,3-2-1-.5,1.5-1-.5-1-1.5h-1.5l-1-2.5-1.5,1-.5-1,1-.5.5-1-.5-2-2-1.5v.5l-2-.5-.5-1.5.5-.5.5-1-1.5-2h-2.5l2-3h-1l3-3-.5-1.5-1.5-.5v-2.5"/>
      <path data-code="znamenskij_rajon__orlovskaja_oblast_" data-title="znamenskij_rajon_(orlovskaja_oblast&amp;apos;)" class="cls-2" d="M56.62,6.99h1l2.5-3.5,3,1,1-1-1-1.5,3.5,2.5,1-.5-1.5,1h-1.5l1,.5.5-.5,1.5-.5,1.5-1.5,1.5-.5.5-.5,3,1.5-1,3-1.5-.5,1,1v2l-.5,1,1.5,2-3,2,2,3-2.5.5.5,1.5-2.5,1.5.52.93-1.52,2.07,1,1-.5,1-2,.5-4.5-4-3.5.5-3-2-.5-2.5.5-2.5,2,1,1-3,1,1,1-1-2-.5v-.5l1-1-1-2-1.5.5-1-1,1.5-2"/>
    </g>
</svg>