<svg data-code="RU-PSK" xmlns="http://www.w3.org/2000/svg" viewBox="0 0 154.75 261.75">
    <g data-code="pskovskaja_oblast_" data-title="pskovskaja_oblast&amp;apos;">
      <path data-code="bezhanickij_rajon" data-title="bezhanickij rajon" class="cls-2" d="M54.12,158.49l5.5-4v-1l4-.5,1-2h1l3,2,1-2,.5,1.5,2.5-2,3.5-.5,3-1.5-.5-1,2.5-.5.5.5.5-1.5,1-1,1.5.5,1.5-2.5-1-3.5,1-.5v-2h2v-.5l2-2v-1l4,.64-.5,1.5,1,1h2l-1,1,1,1.5,2,.5,2.5-5.5,2.5-.5-.5-2,2.5-1,2,2.5v2.5l1.5-.5v1l2.5.5-.5.5-3,1v2.5l6.5,5,2-2.5,2,2,.5-1,.5,4h1l.5-2,1,.5,1,2.5-2-.5-1.5.5-.5,1,.5,4,3.5,6-15.5,3.5-3.5,2.5-1.5,1.5v1.5h-1.5l-1,1-3-2.5,1-2-1.5-1.5,1-.5-2-1-1.5,1-2,2.5-1.5-1.5-1,.5v-.5l-2-.5h-2l-.5,1h-1l-1,1h-6.5v-1l-1.5.5-2.5-2.5-3,.5-2,2.5-1.5.5-3-4.5-1.5,1-.5-1-.5.5h-1v.5l-.5.5-3.5-.5v-2l1.5-.64-3-2"/>
      <path data-code="dedovichskij_rajon" data-title="dedovichskij rajon" class="cls-2" d="M96.12,120.99l-1.5-3.5,1.5-.5.5-1.5,1,1,1-1,1.5,1.5h2l1.5,1,7,1.5,2.5-1v-1l1.5.5,2-.5.14-.28,4.36,4.42.5,1.5h4l2.5,3,6.5,4.5-.5,4,4.5,3.5-7.5,2h-4l-.5,1,1.5,1.5-3.5.5-1,1h-1.5l-1,1.5-2-1.5-.5,1-2-2-2,2.5-6.5-5v-2.5l3-1,.5-.5-2.5-.5v-1l-1.5.5v-2.5l-2-2.5-2.5,1,.5,2-2.5.5-2.5,5.5-2-.5-1-1.5,1-1h-2l-1-1,.5-1.5-2.53-.4,1.03-2.73-1.5-2,.5-1.5h-1l-.5-2.5.5-2.5,5.5-1.5Z"/>
      <path data-code="dnovskij_rajon" data-title="dnovskij rajon" class="cls-2" d="M128.12,98.49l5,2.64-1,2-1.5.5,1.5.5-1,.5,5.5,3v1l-.5.5,1.5,2.5-1.5.5,1,2,1,1,3.5.5.5,4.5,3,1.5-.5,2-3.5,2-2-1.5-1.5,1,2,2-1.5,2h-1.5l.5,1-2.5.5-6.5-4.5-2.5-3h-4l-.5-1.5-4.36-4.42,1.36-2.72-.5-1,.5-.5v-.5l1-2.5,3.5-.5-.5-1,1.5-1v-2l3.5-1-1-1,.5-2.5-1-1.5,2.5-1Z"/>
      <path data-code="gdovskij_rajon" data-title="gdovskij rajon" class="cls-2" d="M104.13,1.62l18-1,7,1.5,1.5,2,.5,2-.5.5,2,1,.5,1-1,1,1.5,1h-1.5l.5,2.5-1.5,3,1,.5-.5,1-1-.5.5.5-1.5,4,1.5-1v1.5-1.5l3-.5v2l2-.5.5,1.5-1,3.5-3,3-.5,2-1-.5-1,5.5h-3.5l-1.5,1.5-4-.14-1.5,5.14-1,.5v.5l-1,.5.5.5-1,1-.5,2-1.5.5v2.5l-4.5,2.5-3-3-2,.5-4-4-1.5.5-1.5-2-3-1v-1.5l-3,1-2.5-.5-1-2.5-4.5.5-4-6,.5-1.5,3.5-4.5,4.5-1.5L104.13,1.62"/>
      <path data-code="krasnogorodskij_rajon" data-title="krasnogorodskij rajon" class="cls-2" d="M22.63,120.62l1.5-1,1,1,1-1.5h1.5l.5-1.64,5-.5,3-1.86,2.5,2.5,2.5.5,1-.5,1-3h4.5l2.55,2.48-1.55.39,1,2h1l-1,1.5.5.5-1.5.5,1,3-1.5,1,1.5,1-1.5,1.64h-1.5v2h-1l-.5-1.64-2,.64v2.5l-3.5,1-.5,1.5-1,.5-1-1-1.5,1.5-3.5-.5h-2l-1,1.5-3-.5-2,2-1.53,4.73-5.97-4.73,1-1.5,2,.5,1-1-1.5-3.5,1-3.5,2-1.5.5-7"/>
      <path data-code="kun_inskij_rajon" data-title="kun&amp;apos;inskij_rajon" class="cls-2" d="M82.62,209.99l2,.5,2.5-1.5,2-3.5h2.5l-1,2.5,1-.5.5-2,.5.5,1.5-1.5,2,.64v2h-1.5l4,8.5-1,.5.5,1-3,3.5,2.5,4-.5,1,4.5,3.5-4.5,1.5-2,3.5.5,1-1,1.5-3,.5v1.5l-1.5,1,.5,2-1.5,2h-7l-1.5,1v2.5l-.5,2-1.5,1-1,2-1.5,1-2,8-2-2h2v-1l-1.5.5-.5-2.5-1.5-1.5-1,1-.5-.5v-1.5h-2.5l-.5-3.5-1.5-2-.95.65-.05-3.78,2-4,2-.5.5-3.5,1,1,1-.5-.5-2,.5-2,2-.5-1.5-2.5,2.5-3-.5-1.5,2-1h-1l3-4.5h1l-1-1.5,1-1.5.5-1.5.5-.5-.5-.86v-2.64l4.5-2Z"/>
      <path data-code="loknjanskij_rajon" data-title="loknjanskij rajon" class="cls-2" d="M67.63,166.12l2-2.5,3-.5,2.5,2.5,1.5-.5v1h6.5l1-1h1l.5-1h2l2,.5v.5l1-.5,1.5,1.5,2-2.5,1.5-1,2,1-1,.5,1.5,1.5-1,2,3,2.5,1-1h1.5v-1.5l1.5-1.5,3.5-2.5,8.43-1.9.57,3.4-7,7.5v1l-.5.5v3.5l3,1.5-1.5,1h4.5l1,2-1,.5-1.5,2h-1.5v.5l-1.5,1-1-1.5,1-1h-1l-1.5,1.5.5.5-1.5,1-1,1-1.5-1.5-1,.5-2-1.14,2-3-1-2.86-3.5,5-3.5-2.5-.5,2-4,.5-5.5,5.86-1.5-3.5h-2l1-.5-3-3-1.5,1,.5-2.5-3.5-.86-1,1h-1l-1-4.5-3-2-.5-3.14-3.5-1,1-1.5.5-2.5-.67-1.01,1.17-.36Z"/>
      <path data-code="nevel_skij_rajon" data-title="nevel&amp;apos;skij_rajon" class="cls-2" d="M23.12,189.99h5l3.5,2,2-1.5h1v-1h1l.5-1.5h1l.5-1.5,2,2,3.5-.5,1.5,1,2-1-1-1,1-1.5h1l-.5,1,1.5,1h-1l-.5,1.5,1-.5,3,1.5,5,6.5-1.5,2.5,6,7-.5,2.5h-1.5l-.5,1.5-1,.5-1.5-1.5-1.5.5.5,3-1.5-.5-.5,1,1,1.5-1.5,1-.5,2.5-1.5,2,2,4.5,2.5.5v-1l1,.5-.5,1-3,.5-3.89,3.41-.61.09-1-.5.5-2-1.5-1,1.5-2-3-2v-1.5l-1,1.5-1-.5-1,1-1.5-2.5-.5-3h-2l-1-2h-1.5v1l-5,1-1-1,.5-1.5-4.5-1.5h-2l-1.5,1.5h-3l-1.5-7,1-.5.5-1.5,2-.5,2-2h1.5l.5-2,3,1-.5-2.5,1.5-.5-2.5-5-2.5-2v-2"/>
      <path data-code="novorzhevskij_rajon" data-title="novorzhevskij rajon" class="cls-2" d="M66.12,124.49h1v-1.5l1-1,.5-1,2,1.5,2.5-1.5,5,2.5,3.5-2.5,3.5.5,1-1,.5,2.5,2.5,1,.5,1.5.5-.5,1,.5-.5,2h1l-.5,1.5,1.5,2-1.03,2.73-1.47-.23v1l-2,2v.5h-2v2l-1,.5,1,3.5-1.5,2.5-1.5-.5-1,1-.5,1.5-.5-.5-2.5.5.5,1-3,1.5-3.5.5-2.5,2-.5-1.5-1,2-3-2,1-3.5-2-.5-1-1.5-3,1-.5-.5-1.5-5.5h2l1-1.5-.5-1h1.5l.5-1.5,1-1,2.5.5.5-2,1.5-.5,2-5-4.5-4"/>
      <path data-code="novosokol_nicheskij_rajon" data-title="novosokol&amp;apos;nicheskij_rajon" class="cls-2" d="M59.62,161.99l1,.5.5-1,.5,1,1.5-.5,2,2.5,2,3-.5,2.5-1,1.5,3.5,1,.5,3,3,2,1,4.5h1l1-1,3.5,1-.5,2.5-.5,1.5h-2l-.5,2h-1l.5,1-1.5.5h1l-1,2-3.5,1,.5,1.5-.5.5,1.5,1v3.5l-2.5,3h1l-.5.5v3l-2-1-3,.5-2.5,1.5v1.5l-2,.5v-3h-1l-3.5-4.5-1-2,1.5-2.5-5-6.5,1.5-2v-1.5l4-1,1-2,.5-1,.5-2-1-2,1-.5,1-1.5.5.5.5-.5.5-3.5-.5-2-3.5-2,2-3-1-.5,1.5-3.5"/>
      <path data-code="opocheckij_rajon" data-title="opocheckij rajon" class="cls-2" d="M24.12,137.49l2-1.5,2.5.5,1.5-1.5,5.5.5,1.5-2,1,1.5,1-1,.5-1.5,3-.5.5-2.5,2-.5.5,1h1v-1.5h1.5l-.5,1.5,2.5,3.5,2-.5-.5,1.5-2,1,.5.5-1,1.5,1,.5-1,1.5h1l.5,2,5.5-2,2.5,1,1.5,5.5.5.5,3-1,1,1.5,2,.5-1,3.5h-1l-1,2-4,.5v1l-5.5,4-2.5-.5-2,2.5-4-3-1,.5v-.5l-.5,1-1.5.5v-1l-1,1.5-7.5-4-2-.5.5-3-2.5-1.5-2-4.5-4,.5-1.5-1,1-1-1.02-1.64.52-2.86,1-2.5"/>
      <path data-code="ostrovskij_rajon__pskovskaja_oblast_" data-title="ostrovskij_rajon_(pskovskaja_oblast&amp;apos;)" class="cls-2" d="M46.62,99.49l3.5-2.5h1l2.5-3.5,2.5-2.5,2.5-.5,1,2,2-.5v2h1l1.5-1.5,1.5,1.5-.5-1.5,2-1.5-1-1,1.5-1,2,1.5.5-.5,2,.5v3l1.5,2-1.5,1.5v1.5l4.5-1,1.5-1,2,2.5-.5,1.5-2,.5,2,1.5v2l3,1-1,1.5v1.5l1,.5,2,6.5,1.5,1.5-1,4.5-3.5-.5-3.5,2.5-5-2.5-2.5,1.5-2-1.5-.5,1-3-2v-1.5h-1l-.5,1-2-2-1.5.5-.5-1.5-2.5.5-.5,1-1,.5-1-2v1l-3.54.69-3.46-3.56-.5-4.64-3.5-1,1.5-5,2-1-.5-3.5"/>
      <path data-code="palkinskij_rajon" data-title="palkinskij rajon" class="cls-2" d="M46.12,77.99l2-1,1.5.5,1-1.5,2-.5.5-1,2.5.5,4.5-1.5,6.5-.5v1l4.5,1v2l1.5,1-2,3.5,4-2-1,5,2,1.5.5,2-2,1h-2.5v1.5l-1.5-.5-.5.5-2-1.5-1.5,1,1,1-2,1.5.5,1.5-1.5-1.5-1.5,1.5h-1v-2l-2,.5-1-2-2.5.5-1.5,1.5-6.5-2.5-2-2,1-1.5-1.5-4,1-1-1-1.5,1-.5-.5-1.5"/>
      <path data-code="pechorskij_rajon" data-title="pechorskij rajon" class="cls-2" d="M46.12,62.99l3.5.5v-.5l1-.5v-1l1-1.5,2.5-1,3,1-.5,1,1,.5,1-1h.5v-1.5h.5l1-2.5,1,1,.5-1h1v-.5l1-.5,3.5,3h1v2l2,.5,1.5-.5,1.5-2-2.5-3v-.5h1.5l-1-1,1-2.5,1,.5.5-1,1.5-.5v-2l-1.5,1v-2l1.5-2,3-1.5,4.5,3-1,7.5-4,11-4,4.5-7.5,3-6.5.5-4.5,1.5-2.5-.5-.5,1-2,.5-1,1.5-1.5-.5-2,1,.5,1.5h-1l-1.5-3.5,5-3v-1l1-1-4.5-2.5-.5-1.5-1,.5,2-4.5"/>
      <path data-code="pljusskij_rajon" data-title="pljusskij rajon" class="cls-2" d="M125.12,37.99l1.5-2,3.5.5,1-5.5h1l.5-1.5,2.5-3v-1l1.5-2,3,2,.5,2h1l-1,.5,1.5,3,2,2.5,1,2.5,1.5,1.5h3l-3.5,5v1l-1.5-.5,1.5,1v2.5l4,3.5-2,1-.5,2-2-.5-1,2,3.5,1.5v2.5l-1-.5v.5l-1,.5.5-1-1.5-.5-.5,1,.5,1,1-1-.5,1,.5.5,2.5-1v4.5l1.5,2-.5.5-2.5,1v1l.5,3.5,1,1h1.5l-.5,1,.5,1-.5.5.5,1,2.5,1.5-.5-.5,2-.5v1l-.5.5,1-.5v1h-2l-.5,2-1,.5.5,1.5-1.5.5-2,1.5-1.5-.5v1h-2l-.5.5-6-5-.5,1-1-1-1.5-3,4.5-1,.5-1-1-4h-1.5l-3-6.5,2,1.5.5-1-3-3-1-.5-1,1-1.5-1.5-1-8-3-1.5,1-1-1-.5,1-1.5-3-1.5.5-1-1-2,2-2-5.22-2.02.72-2.48h4Z"/>
      <path data-code="porkhovskij_rajon" data-title="porkhovskij rajon" class="cls-2" d="M77.62,100.99l2-.5.5-1.5.5.5,1-1.5,2.5-1,2.5,1,4.5.5,1-1,1.5.5v-.5l1.5-.5,1-1v-1.5l3,.5.5,2,3-2h2.5l.5-1v-1.5l2-.5,2-2,1,1.5,1.5-1-1-3,7-3,2,2h2l-.5,1,3.5.5,2.5-1,1.5,3,2-.5v2.5h2l2,2v2l1,1.5-.5,1.5,2.5,1.5v1l-2-.5-.5,1h-2.5l-5-3.5-2.5,1,1,1.5-.5,2.5,1,1-3.5,1v2l-1.5,1,.5,1-3.5.5-1,2.5v.5l-.5.5.5,1-1.5,3-2,.5-1.5-.5v1l-2.5,1-7-1.5-1.5-1h-2l-1.5-1.5-1,1-1-1-.5,1.5-1.5.5,1.5,3.5-5.5,1.5.5,1.5-1.5,2-.5-2-2.5-1-1-2.5.5-3.5-1.5-1.5-2-6.5-1-.5v-1.5l1-1.5-3-1v-2l-2-1.5"/>
      <path data-code="pskov" class="cls-2" d="M84.62,69.99l-.5,1.5h1l-.5,1.5,2,.5,1,2-1,.5,1.5,1-1.5,1.5-1-.5v1l-2,.5-1,1-1.5-1.5,1.5-1.5-1.5-.5,1-1-1-1v-1.5l1.5-.5v.5-1.5l1.5.5.5-2.5"/>
      <path data-code="pskovskij_rajon" data-title="pskovskij rajon" class="cls-2" d="M84.62,69.99l-.5,2.5-1.5-.5v1.5-.5l-1.5.5v1.5l1,1-1,1,1.5.5-1.5,1.5,1.5,1.5,1-1,2-.5v-1l1,.5,1.5-1.5-1.5-1,1-.5-1-2-2-.5.5-1.5h-1l.5-1.5M80.12,35.49l4,5.5,5-.5,1,3,2.5.5,2.5-1,.5,1,3,1.5,1,1.5h1.5l4,3.5h2.5l1,1-2.5,6h-1l2,2.5v2.5l-1.5,1-1-.5-1,1.5-2,1.5.5,1.5-1,1v.5h-1.5l.5,2h-.5v.5l-1,1.5.5,2.5h1.5l2,3-.5,1,4.5,3.5v1l5-.5.5,1.5v-1h1.5l-.5.5,1.5,1,.5.5-4,1.5,1,3-1.5,1-1-1.5-2,2-2,.5v1.5l-.5,1h-2.5l-3,2-.5-2-3-.5v1.5l-1,1-1.5.5v.5l-1.5-.5-1,1-4.5-.5-2.5-1-2.5,1-1,1.5-2.5-3-1.5,1-4.5,1v-1.5l1.5-1.5-1.5-2-.5-4.5h2.5l2-1.5-2.5-3,1-5-4,2,2-3.5-1.5-1v-2l-4.5-1v-1l7.5-3,4-4.5,4-11,1-7.5-4.5-3v-2.5l1.5-6"/>
      <path data-code="pushkinogorskij_rajon" data-title="pushkinogorskij rajon" class="cls-2" d="M48.62,117.49l2-.5,1,1,1-1,2,.5v-1l1,2,1-.5.5-1,2.5-.5.5,1.5,1.5-.5,2,2,.5-1h1v1.5l3,2-1,1v1.5h-1l4.5,4-2,5-1.5.5-.5,2-2.5-.5-.5,1h-.5l-.5,1.5h-1.5l.5,1-1,1.5h-3l-1.5-1-5.5,2-.5-2h-1l1-1.5-1-.5,1-1.5-.5-.5,2-1,.5-1.5-2,.5-2.5-3.5.5-1.5,1.5-1.5-1.5-1,1.5-1-1-3,1.5-.5-.5-.5,1-1.5h-1l-1-2"/>
      <path data-code="pustoshkinskij_rajon" data-title="pustoshkinskij rajon" class="cls-2" d="M40.62,158.99l1,.5,1-1.5v1l1.5-.5.5-1v.5l1-.5,4,3,2-2.5,2.5.5,3,2-1.5.64v2l3.5.36-1,2,1,.5-2,3,3.5,2,.5,2-.5,3.5-.5.5-.5-.5-1,1.5-1,.5,1,2-.5,2-.5,1-1,2-4,1v1.5l-1.5,2-3-1.5-1,.5.5-1.5h1l-1.5-1,.5-1h-1l-1,1.5,1,1-2,1-1.5-1-3.5.5-2-2-.5,1.5h-1l-.5,1.5h-1v1h-1l-2,1.5-3.5-2h-4.5l3-3,1.5.5v-.5l3-2,.5-4h1l.5-1-.5-1,.5-1.5,2.5-3,1-1.5h.5l2.5-2.5-1-.5,1.5-.5-.5-2.5,1-1.5-2.5-.5.5-.5-.5-.5.5-.5v-1.5l1.5-.5.5-2.5"/>
      <path data-code="pytalovskij_rajon" data-title="pytalovskij rajon" class="cls-2" d="M20.62,108.99l4-2.5,1.5,1,4.5-3.5-1-1.5,3-1.5.5-1,1.5-.5-1-1.5,1,.5.5-1.5,3.5,1,1.5-1,2-2.5,3-1,2-2.5v-2h1v1l6.5,2.5-1,1-2.5,3.5h-1l-3.5,2.5.5,3.5-2,1-1.5,5,3.5,1,.5,4.64h-4.5l-1,3-1,.5-2.5-.5-2.5-2.5-3,1.86-5,.5-2-1,1.5-3.5-.5-.5-6-1.5-1-1,.5-1"/>
      <path data-code="sebezhskij_rajon" data-title="sebezhskij rajon" class="cls-2" d="M16.62,138.99h2l2.5,1.5,2.5,4-1,1,1.5,1,4-.5,2,4.5,2.5,1.5-.5,3,2,.5,6.5,3.5-.5,2.5-1.5.5v1.5l-.5.5.5.5-.5.5,2.5.5-1,1.5.5,2.5-1.5.5,1,.5-2.5,2.5h-.5l-1,1.5-2.5,3-.5,1.5.5,1-.5,1h-1l-.5,4-1,1-2,1v.5l-1.5-.5-1,1.5-2.5,1.5-.5-2-1.5-.5.5-1-2.5-1.5-1,.5-1.5-1-1,1-2.5-2-2,1.5v-2l-2-2,1.5-3.5-.5-2,1-2h2v-.5l-2.5-3.5-5-2,.5-.5-.5-1.5-1,.5v1.5l-1,.5-2.5-2,1-2-1.5-.5,1.5-1.5-1-3.5.5-1.5h1.5l1.5-1v-.5l1,.5.5-1.5,3.5-1,2.5-5.5v-2l2-.5,1-1.5,1-1,.5-4"/>
      <path data-code="strugokrasnenskij_rajon" data-title="strugokrasnenskij rajon" class="cls-1" d="M120.4,40.47l5.22,2.02-2,2,1,2-.5,1,3,1.5-1,1.5,1,.5-1,1,3,1.5,1,8,1.5,1.5,1-1,1,.5,3,3-.5,1-2-1.5,3,6.5h1.5l1,4-.5,1-4.5,1,1.5,3,1,1,.5-1,1.19.99-.88,2.16-1,.73.5,1.5-2.06,1.24-1.19,1.77-5.05,1.11-1.5-3-2.5,1-3.5-.5.5-1h-2l-2-2-3.19,1.37-1.81-1.37.5-.5h-1.5v1l-.5-1.5-5,.5v-1l-4.5-3.5.5-1-2-3h-1.5l-.5-2.5,1-1.5v-.5h.5l-.5-2h1.5v-.5l1-1-.5-1.5,2-1.5,1-1.5,1,.5,1.5-1v-2.5l-2-2.5h1l2.5-6,2,2.14,4.5-2.5v-2.5l1.5-.5.5-2,1-1-.5-.5,1-.5v-.5l1-.5.78-2.66Z"/>
      <path data-code="usvjatskij_rajon" data-title="usvjatskij rajon" class="cls-2" d="M48.12,229.49l4-3.5,3-.5.5-1,1.5,1.5,3.5-1,3,3v1l1.5-.5-.5,1v2l2.5-2,2,2.5,2.08-.54.92,1.54-2,.5-.5,2,.5,2-1,.5-1-1-.5,3.5-2,.5-2,4v2.5l-2,2-.5,2.5-3.5-1.5-4,2-1.5-2.5-.5,1-2.5.5-1-1,2-5h-2.5l1-1-.5-.5,1-.5-1-.5,2-1.5.5-2-2-3.5.5-2,1-.5v-2l-2-2"/>
      <path data-code="velikie_luki" data-title="velikie luki" class="cls-2" d="M72.62,203.99l2-1v-1h1.5v1l2,1v3l-2-1v1l-.5-1-1,1.5-.5-1.5-1.5.5,1.5-1.5v-1l-1,1-.5-1"/>
      <path data-code="velikolukskij_rajon" data-title="velikolukskij rajon" class="cls-2" d="M72.62,203.99l.5,1,1-1v1l-1.5,1.5,1.5-.5.5,1.5,1-1.5.5,1v-1l2,1v-3l-2-1v-1h-1.5v1l-2,1M54.12,209.49l1.5-.5,1.5,1.5,1-.5.5-1.5,3.5-.5v-1.5l2.5-1.5,3-.5,2,1v-3l.5-.5h-1l2.5-3v-3.5l-1.5-1,.5-.5-.5-1.5,3.5-1,1-2h-1l1.5-.5-.5-1h1l.5-2h2l.5-1.5,1.5-1,1,1,2,2-1,.5h2l1.5,3.5,5.5-6,3.5-1,1-1.5,3,2,4-4.5,1,3-2,3,2,1-2.5,1,1,2.5-2.5-1,1,2.5-1.5.5-.5,3,1.5,3,3.5,1.5.5,2-.5.5-1-.5-2.5,2.5-3,1.5v1l-3-2-1.5,1.5-.5-.5-.5,2-1,.5,1-2.5h-2.5l-2,3.5-2.5,1.5-2-.5-4.5,2v2.5l.5,1-.5.5-.5,1.5-1,1.5,1,1.5h-1l-3,4.5h1l-2,1,.5,1.5-2.5,3,.58.96-2.08.54-2-2.5-2.5,2v-2l.5-1-1.5.5v-1l-3-3-3.5,1-1.5-1.5-1-.5v1l-2.5-.5-1-2-1-2.5,1.5-2,.5-2.5,1.5-1-1-1.5.5-1,1.5.5-.5-3"/>
    </g>
</svg>