<svg data-code="RU-SEV" xmlns="http://www.w3.org/2000/svg" viewBox="0 0 20.88 34.43">
  <g data-code="svg2">
    <path data-code="sevastopol" class="cls-1" d="M13.53,33.8l1.29-3.64-.1-3.66.7-.05-.41-.73,1.3-2.61-.79-1.88.91-1.75-2.09-.56.16-1.61.79-.9,4.39-1.24-.65-2.86-1.27.05-2.85-2.88,1.55-2.14,3.31.8.5-.99-2.25-3.77.64-2.23-.77-.52-1.53,1.71-.99.28-3.88,6.09c-.78,1.01-1.66,1.67-2.76,2.25l-.38-.29-.69.15-.25.43.26-.08,1.59,1.49-.11.32.96,1.34-.29.71-.16-.75-1.13-1.47-.71-.49-.5.76-.57.11.45-.36.49-.77-.76-.5.18-.23-.89.52.17-.52-.83-.4-1.07.94.81-1.11-.78-.36-.27.35-.33.21-.19-.27.26-.45-1.07.16-.48,1.28.09.48-.29-.48.25-1.21-1.31,1.35.5-.86.44-.9-1.24-.22-.24,1.27.06,1.7.33.32.03,4.54.71-.07,1.33,2.47,2.26,1.67.07,1.02-.72,1.77-.9,1.35.34,1.3,1.51.87-.24.53.17.26-.42,1.32.1.64.88.51,7.4,2.52Z"/>
  </g>
</svg>