<svg data-code="RU-TOM" xmlns="http://www.w3.org/2000/svg" viewBox="0 0 495.25 396.75">
    <g data-code="tomskaja_oblast_" data-title="tomskaja_oblast&amp;apos;">
      <path data-code="aleksandrovskij_rajon__tomskaja_oblast_" data-title="aleksandrovskij_rajon_(tomskaja_oblast&amp;apos;)" class="cls-1" d="M75.62,83.62l1.5-5,3-2,6-23.5-1.5-4,4.5-3.5,1-1v-2l1-.5v-2.5l1-.5-1-2.5-2-2,.5-1-.5-.5,1-1-.5-1h1v-1.5l1.5-1v-1l.5-1-.5-1.5,10-1.5v-3.5l.5-.5-1-.5,1.5-2-.5-1-.5,1-2.5-2h.5v-1l.5-.5-.5-.5,1.5,1-.5-1,1.5-1v-1h2.5l1-2.5-.5-4,1.5-1.5-1-.5h.5l-.5-1,1.5-1,4,2h-2l6,7.5h-1,4v1l-2.5,1.5,1,3-.5,1,3.5-1,1,.5v-.5l-2.5-.5,3-2,2,2-.5.5,3,1.5,1.5-5-2.5-.5.5-3.5-6.5-1.5.5,1-.5,1.5-.5.5-4-2.5-1-1,1-1-2.5-2h2l4,3,8.5,1,5.5,4,2,3,4.5-3.5,3.5.5,9,4.5,7.5-3,.5,2,1,1.5.5,1h-1v.5l1.5.5,1-1,1,.5,1.5-1,1-1,1,.5.5-.5h-.5l1.5-1v1l1.5.5v-1l1,1.5,1-1.5.5,1,3-1,3,3-.5.5.5,1-1.5.5,1,1-1,2,.5.5-.5.5.5,1h.5v2l1,1v1.5l9.5-2,9,2.5,8.5,1,7.5-4,8-.5,2.5-1.5,10.5,5v4.5l.5,3.5,11.5,4-20.5,17-3,8-14.5,13.5-3,4.5-6,5.5-14,2.5-4.5,3.5-1,3-5,3.5-1.5,1.5-4,10-3,4.5-2.5,1.5-18,1-6-5.5-.5-2,1.5-7-.5-2.5-2-1.5-2-.5-9,3-2-4-3.5-2-20.5-8-16-2.5-5.5,1-4-4,.5-1-.5-1.5"/>
      <path data-code="asinovskij_rajon" data-title="asinovskij rajon" class="cls-1" d="M326.62,262.62l.5-3h1l2.5-5.5,9-1.5,5,1,1.5-2.5,3-1.5,8.5,2.5,1.5-4,2,.5-2,11.5-2-1.5h-1.5l2,2.5-.5,1.5v1.5l1,.5.5-1.5h1l-1,1.5,1.5,1.5.5,2.5,2.5.5-.5,3,3.5,1.5-1.5,1.5h2v2l2,1h-1.5v1l3.5,1.5.5,2,2,1-2,.5,1,1.5-1,1,.5,1.5-2,2,1-.5-.5,1,1.5,1-.5,2,2.5.5,1,1.5-.5.5-2-1.5-1,1,1,2.5-.5,2.5,1,1.5-1,1,2.5.5,3.5,5,1,.5v2l1.5,1-1,2.5.5.5,2-1,1.5,1.5-1.5,1.5,1,.5-.5.5.5,1-3,1-.5,1.5-1-1v1.5l-1-1.5-1.5,1.5.5,1-1,1.5.5,2-3.5,4-9.5,1.5.5-1-1-2-2.5,1,.5-3,1.5-1-1-.5.5-3-1.5.5-1-2,1-1.5-3,1-1.5-1.5,4-2-3-4v-3h.5l.5-5-6-1.5-2,1.5-2.5-2-.5-16.5-12.5,4.5-2.5,3,1-7-1-4-3.5-5,3.5-7,.5-3.5-4.5-2.5-.5-2.5"/>
      <path data-code="bakcharskij_rajon" data-title="bakcharskij rajon" class="cls-1" d="M141.62,287.62l5-4.5,14.5-17,15.5-12,4.5-7,2.5-7-1.5-5,2-5.5,13-3,21.5,4-13,26.5,16,2,4,1.5,2.5,3,2,12.5,13-.5,9-4.5,3-.5,13.5-1,4.5,4.5,2.5,5.5v8.5l-1.5,4.5-2,3-8.5,7.5-1,2,.5,3,2.5,6.5-1.5,4.5v6l-1,2.5v4.5l-3.5,2h-1.5l-1-2h-3l-2,1-.5,3-.5.5,1,2-3,2-2-2-5,1.5-2-1-6,2.5-7,1-6-1-16,4.5-9.5-22.5-35.5,2.5-18.5-38.5"/>
      <path data-code="chainskij_rajon" data-title="chainskij rajon" class="cls-1" d="M205.62,257.12l13-26.5,24,1,2.5-7.5,2-1,14,1.5,4.5,6-1,5.5,3,3,3,1,7-.5,1-1,.5-6,1-1,5-.5,2,1,1,2.5.5,5,2,5v2.5l-6.5,5h-10l-3,13-2.5,4.5-16.5,1.5-9,4.5-7,1-6-.5-2-12.5-2.5-3-4-1.5-16-2"/>
      <path data-code="kargasokskij_rajon" data-title="kargasokskij rajon" class="cls-1" d="M3.62,159.62l12.5-5.5-7-10.5,3.5-2.5-1.5-3.5,20.5-13.5,3-3,1.5-3v-14.5l8-3,3.5-8,3,2,8-9,11,1.5,6-1,4,4,5.5-1,16,2.5,20.5,8,3.5,2,2,4,9-3,2,.5,2,1.5.5,2.5-1.5,7,.5,2,6,5.5,18-1,2.5-1.5,3-4.5,4-10,1.5-1.5,5-3.5,1-3,4.5-3.5,14-2.5,6-5.5,3-4.5,14.5-13.5,3-8,20.5-17,4.5-1.5,9,1.5,8,10,9-5.5v-7l28.5-19,10.5,1,13.5,15.5,10.5-.5.5,4,2,.5,11,33-1,2h-1v1l-1,.5.5,2-.5,1.5-4.5,5.5-.5,9.5-1.5,1-1,3,2,3-10,3.5-10.5,1.5-17,.5-21,3-2.5.5-2.5,3-9.5,2.5-2,1.5,3,3,.5,1.5-9.5,18.5-20.5,6-25,4.5-1.5,2-1,4-4.5,1.5-.5,4.5-22,12.5h-8.5l-2.5-1-2.5-6.5-7.5-.5-1.5,2.5-1.5,3.5-1,13.5-12.5,9-7-2h-7.5l-6.5-2-9.5-5.5-5.5-1.5-7,.5-11,2.5h-12l-10,4,2.5,4.5,8.5,9,.5,3-4.5,7-3,8.5.5,2.5,4,10.5,7,13.5,6.5,6.5,8,5-54.5-10-6.5-5-21-6-2-11.5-4.5-.5-1.5-17.5-5-1,4.5-17.5.5-3.5L.62,174.62l7.5-4.5-4.5-10.5"/>
      <path data-code="kedrovyj__tomskaja_oblast_" data-title="kedrovyj_(tomskaja_oblast&amp;apos;)" class="cls-1" d="M137.62,240.99l2-4.5,4.5,2,1-.5v-1.5h1.5l2.5,1.5v-1.5l1.5-2,4.5,3.5v-1l4.5-.5.5-2h1.5l1-1.5,7.5,1,13.5,6.5-2.5,7-12-5-1,6-6.5-.5v3.5l1.5,2.5-2.5,1.5-1,4-2.5-1-.5,1-6-1-1.5-1-1-3.5-9-3.5,1-.5-.5-.5-1-3.5-.5-.5v-1l.5.5,1.5-3-2.5-1"/>
      <path data-code="kolpashevskij_rajon" data-title="kolpashevskij rajon" class="cls-1" d="M198.12,207.62l1-1.5,1.5-1,14.5-7.5,13.5-4.5,6.5-1.5,2.5,1,4-4.5,8.5-2,1-1.5,2-13,8-3.5,4.5-3,25-8.5,3.5-2.5,20-11,1,2.5,4.5,3,1,3-3,28.5-2,7-.5,5.5.5,5-5.5,5.5,1.5,3.5-.5,2-6.5,5.5-1,5.5v11l-1,2-3.5,1-2,3-2.5,8.5-4-.5-1.5-2-1-8-1-2.5-2-1-5,.5-1,1-.5,6-1,1-7,.5-3-1-3-3,1-5.5-4.5-6-14-1.5-2,1-2.5,7.5-19-.5-19.5-2.5-2.5-1.5.5-4-4-15.5"/>
      <path data-code="kozhevnikovskij_rajon" data-title="kozhevnikovskij rajon" class="cls-1" d="M258.62,354.12l5.5-6-1.5-2.5v-1l4.5-2,1.5-2,2-1,6,3.5,8-.5.5,1.5,2.5,2.5,1,4.5,2-1,1-1,.5-4h1l1,1,7-1,1,2.5,1.5,1-1.5,1.5h-2.5v2.5h-2.5l-.5,4-1,2.5-.5,2-1,1.5,1,1-.5,3-2,2v1.5l-1,.5-1,2.5h-2v1l-3,3-.5,1.5h-1v1.5h-1.5l-2,4.5h-1.5l-.5,1.5,1,1-1,1-2,.5.5,1.5-.5-1-.5,1.5-1-.5,1,1-2.5,5-3-1.5-1-2-2.5,2.5-.5-1,1-1v-2l-4,.5-1,1.5v-1l-3.5-2.5.5-1.5,2.5-2,2-4.5,2.5.5v-3.5l1,.5-2.5-5,1-1-3.5-3,.5-1v-2l2.5-2.5-.5-1.5-2.5,2-3-3,2.5-3-1-.5,1-1,1.5.5h-.5l.5-.5-.5-1h.5l-2-2-1.5,1.5-1.5-2"/>
      <path data-code="krivosheinskij_rajon" data-title="krivosheinskij rajon" class="cls-1" d="M267.62,299.62l3-2,3.5-5,1.5-4.5v-8.5l-1.5-3,4-1.5-.5-3,1-.5h2l1.5,4h1l7.5-3.5,4.5,2,3.5-1.5,26,4,5,3.5,1.5,3,1,4-1,7-3.5,4.5v1.5h-5l-2.5,1.5-2.5-.5-2,.5-1,2,.5,1h-.5l-1-.5v-1.5l-8-2-13,5.5h-4l-4-4-6.5,1.5-10.5-4"/>
      <path data-code="molchanovskij_rajon" data-title="molchanovskij rajon" class="cls-1" d="M268.62,269.62l2.5-4.5,3-13h10l6.5-5v-2.5l4,.5,2.5-8.5,2-3,3.5-1,1-2,1,3,45,7,10-2.5,3,.5-1.5,10-2-.5-1.5,4-8.5-2.5-3,1.5-1.5,2.5-5-1-9,1.5-2.5,5.5h-1v5.5l4.5,2.5-.5,3.5-3.5,7-7-2.5-22-3-3.5,1.5-4.5-2-7.5,3.5h-1l-1.5-4-3,.5.5,3-4,1.5-1-2.5-4.5-4.5"/>
      <path data-code="parabel_skij_rajon" data-title="parabel&amp;apos;skij_rajon" class="cls-1" d="M75.12,193.99l10-4h11.5l11.5-3,7-.5,5,1.5,10,6,6.5,2,7.5-.5,7,2.5,12.5-9,1-13.5,1-3.5,2-2.5h7.5l2.5,6.5,2.5,1,8,.5,22-12.5,1-4.5,4.5-2,1-3.5,1.5-2.5,24.5-4,21.5-6,9.5-18.5-.5-2-3-2.5,2-1.5,9.5-2.5,2.5-3,2.5-1,21-2.5,20-1-1.5,14.5-3,12.5v3l-2,3-2,1.5-6,1.5-18.5,10-3.5,3-25,8.5-4.5,3-8.5,3-2,13-1.5,2-8,2-4,4.5-2.5-1.5-12,3-22.5,10.5-2,1.5-.5,1.5,3.5,15.5v4l-4.5-.5-13,2.5-2,6,1.5,5-13.5-6.5-7.5-1-1,1.5h-1.5l-.5,2-4.5.5v1l-4.5-3.5-1.5,2v1.5l-2.5-1.5h-1.5v1.5l-1,.5-4.5-2-2,4.5,2.5,1-1.5,3-.5-.5v1l.5.5,1,3.5.5.5-1,.5,9,3.5,1,3.5,1.5,1,6,1,.5-1,2.5,1,1-4,2.5-1.5-1.5-2.5v-3.5l6.5.5,1-6,12,5-4.5,7-15.5,12-14.5,17-5,4-12.5-7.5-25.5-12.5,1.5-3.5-8-5-6.5-7-5.5-9.5-5.5-14.5-.5-2,3-9,4.5-6.5-1-3.5-8.5-8.5-2-4.5"/>
      <path data-code="pervomajskij_rajon__tomskaja_oblast_" data-title="pervomajskij_rajon_(tomskaja_oblast&amp;apos;)" class="cls-1" d="M356.12,258.99l1-.5,2.5,2,3.5-22,9.5,1.5,2-2.5,5.5-1,7-22.5,10.5,3.5,5.5-1,6,1,12,7.5,23.5,7-5,16.5-7.5,22.5,1,1.5v1l-1,.5.5,3-1,.5,1,1.5-8,25-8.5-4.5-6.5-2-1.5,8.5-2,4-1,5.5-4,2.5v-1.5l-2.5,1v2l-1-1-.5,1.5-1-1.5-.5,2.5-2,.5v1.5l-2.5-1-3,.5-2.5-2v-3h-2v-2h-1l-.5-1.5-2.5,1v-1l1-1.5-2-1.5.5-1.5-1-.5-3.5-5.5-2,.5-.5-1,1-1-1-2,.5-2-1-2,1-1,1.5,1.5,1-1-1.5-1-2-.5.5-2.5-1.5-.5.5-1-1,.5,2-2-.5-1.5.5-1.5-1-1.5,2.5-.5-2-.5-1-2-3-1.5v-1h1.5l-2-1v-2h-2l1-1.5-3.5-2,1-3-3-.5v-2l-1.5-1.5,1-1.5h-1l-.5,1.5-1-.5-.5-1.5,1-2-2-2"/>
      <path data-code="seversk" class="cls-1" d="M319.62,319.99l.5-.5,2,2,2,5,7,2,1.5,2-1.5,3v5h-1l.5,1.5-2.5-1.5-1-2h-3l-1.5-3-1-2.5-.5-8-1.5-3"/>
      <path data-code="shegarskij_rajon" data-title="shegarskij rajon" class="cls-1" d="M263.12,305.49l.5-2,4.5-3.5,10,3.5,7-1.5,4,4.5,4-.5,10-4.5h6l5,1-2,1-.5,2.5.5,4.5h1l.5,2.5.5.5-.5,4.5v1.5l-1,4-2.5,3.5-4.5,2-.5,1.5v1l1.5-.5,1.5,2.5-1.5,1v2l-1.5,2,.5.5-4,3.5-1.5-2v3.5l-3,.5v2l-4.5-1-.5,3.5-2,2h-1.5l-.5-4-2.5-2.5-.5-2-8,.5-4-2.5h-4.5l-5.5-8,.5-5,1-2v-6l1-4.5-2-7-.5-2.5"/>
      <path data-code="strezhevoj" class="cls-1" d="M109.62,2.99h2.5l-.5.5,1,1.5,2,.5-1,1,.5.5,4.5,2.5h.5l.5-1.5-.5-1,6.5,1-.5,4,2,.5-1,5-3-1.5.5-.5-2-2.5-3,2.5h2l.5,1-1-1-3.5,1,.5-.5-1-3.5,2.5-1.5v-1l-4,.5,1-.5-6-7"/>
      <path data-code="tegul_detskij_rajon" data-title="tegul&amp;apos;detskij_rajon" class="cls-1" d="M406.12,309.99l2-4,1.5-8.5,6.5,2,8.5,4.5,8-25-1-1.5,1-.5-.5-3,1-.5v-1l-1-1.5,7.5-22.5,5-17h4v2.5h2l.5,7.5,20,6.5,5.5,6.5,15.5,1v1.5l2,1.5-.5,1.5,1,2-1.5,3,.5,1-.5,1,.5,2.5-.5,3,.5,4-1,2.5-5,1.5-3-2-1.5,7,2,2-2.5.5.5-1.5-1.5,3.5-1-1.5.5-2h-2.5l-1,4-1.5.5-1-3-.5,2-5.5,16.5-4-.5-3,6-2-.5.5,2.5,4.5,1,2.5-.5-5.5,20-3,2-3-5-1,1-1.5-.5-1.5,2.5-7,5-3,1.5-1-3-5-4.5-1.5-.5-.5-3-1.5-4-3.5-3-2.5.5-2.5-1-.5.5-.5,1.5-1.5,1-3.5.5-.5-1-3,1-2.5-1-.5-1.5h-2.5l.5-2.5,6.5-5-2-4.5-1,1.5-.5-1-.5,1-3,.5-3-3.5"/>
      <path data-code="tomsk" class="cls-1" d="M324.12,341.49l1.5-1.5,1.5,1,.5,1,1-.5v-1l-.5-2,2.5,1.5-.5-1.5h1l.5-1.5-.5-3.5,1.5-3,2.5,1.5v1.5h.5v1l-1.5,2-1.5.5-.5,1.5,2-1,2.5,1-3,1.5.5.5-.5.5,2.5.5-1,1v1l1,.5-.5,1.5.5,1-2,1-1.5-1-.5,1.5-1.5-.5v1l3.5,4v1l-5.5-3v-2.5l-1-.5-.5-2.5v1.5l-.5-.5-.5-1.5-1-.5,1-1.5-2-1"/>
      <path data-code="tomskij_rajon" data-title="tomskij rajon" class="cls-1" d="M319.62,319.99l1.5,3,.5,8,1,2.5,1.5,3h3l1,1.5.5,3.5-3.5-1.5.5.5-1.5,1,2,1.5-1,1,1,.5.5,2,.5-1.5.5,2.5,1,.5v2.5l5.5,3v-1l-3.5-4v-1l1.5.5.5-1.5,1.5,1,2-1-.5-1,.5-1.5-1-.5v-1l1-1-2.5-.5.5-.5-.5-.5,3-1.5-2.5-1-2,1,.5-1.5,1.5-.5,1.5-2v-1h-.5v-1.5l-4-3.5-7-2-2-5-2-2-.5.5M291.12,372.99l3.5-6.5,1-3-1-1,1-1v-2.5l1-2,1-4,2.5-.5v-2h2.5l1-2-1-.5-1-2.5-4.5,1v-2l3-.5v-3.5l1.5,2,4-3.5-.5-.5,1.5-2v-2l1.5-1-1.5-2.5-1.5.5v-1l.5-1.5,4.5-2,2.5-3.5,1-4v-1.5l.5-4.5-2-4-.5-3.5.5-2,2-1v1.5l.5.5,1-.5-.5-1,1-1.5,2-1,2.5,1,2.5-2,5,.5v-1.5l6-7.5,12.5-4.5.5,16.5,2.5,1.5,1.5-1,6.5,1-.5,5h-.5v3l3,4.5-4,1.5,1.5,1.5,2.5-.5-.5,1,.5,2.5,2-.5-.5,3,1,.5-1.5.5-.5,3,2-1,1.5,2.5-.5,1,9-1.5,2-1.5v1.5h-1l1.5,2-1.5.5,1,1-1.5,1.5,1,2.5,2,1-1,1,.5.5-1,.5.5,1.5-3.5,2.5v2.5l-2.5,1.5-2-.5-1,1.5v1.5l-6.5,1-.5,2h-.5l1,3.5-3-1-4,1.5-2.5,2.5v1l3.5,2.5v1.5l-8-.5v1l-6-3h-2l-1,.5v1.5l-3.5-.5-1,2.5-3.5,3-2.5-3-1.5-1-16,6-5.5,4.5-4-6-5,2-2.5-.5"/>
      <path data-code="verkhneketskij_rajon" data-title="verkhneketskij rajon" class="cls-1" d="M304.62,214.49l7-6,.5-2-1.5-3,5.5-6-.5-5,.5-5,1.5-7,3.5-28.5-1-3-4.5-3.5-1-2,4.5-1,4-4.5v-3l3-12.5,1.5-14.5,17-4.5,2.5,3,26,3.5,18-3,20.5,2,14.5,6,2,14,11.5,2.5,11,29.5,24.5-1-2,5.5,7.5,14-15.5,8-18,25.5,1.5,18.5-4,.5-23.5-7-12-7.5-6-1-5.5,1-10.5-3.5-7,22.5-5.5,1-2,2.5-12.5-2-10,2.5-45-6.5-1-5,.5-14.5"/>
      <path data-code="zyrjanskij_rajon" data-title="zyrjanskij rajon" class="cls-1" d="M373.12,330.49l1,.5v-1.5l-.5-.5,2.5-2-1-2,1.5-2-1-.5,2-2,.5,2,.5-1.5,1,.5v-1l3.5-1-1-1.5h.5l-.5-.5.5-.5-.5-.5h1.5l-.5-1,.5.5v1.5l2,.5v2.5l1.5,1.5,6.5,1v-1.5l2-.5.5-2.5,1,1.5.5-1.5,1,1v-2l2.5-1v1.5l4-2.5,1-5.5,3,3.5,3-.5.5-1,.5,1,1-1.5,1.5,4.5-6,5-.5,2.5h2.5l.5,1.5,2.5,1,3-1,.5,1,3.5-.5,1.5-1,.5-1.5.5-.5,2.5,1,2.5-.5,3.5,3,1.5,4,.5,3,1.5.5,5,4.5,1,3.5-15.5,8.5-.5-3.5,1-.5-2-4.5-8.5,4-.5-1,2-1-.5-1.5-5,.5-2-.5-.5-2-1.5.5v.5h.5l.5,1-1,.5.5,1.5h1v1l-1,.5,2.5,1h-1l.5.5-3.5,2-4.5-1-1-2.5-.5,1-1.5,1.5-2-1-.5-2.5h.5l-1.5-3-2,1.5-2.5-3-1.5,1.5-1,2-.5-.5v-1l-2.5,2-3.5,2-2-.5-.5-3h-1l.5-3h-4.5l-2.5-1.5-.5-2.5,1.5-1-1-.5,1.5-1-1.5-2.5"/>
    </g>
</svg>