<svg data-code="RU-SMO_1" xmlns="http://www.w3.org/2000/svg" viewBox="0 0 194.75 171.39">
    <g data-code="smolenskaja_oblast_" data-title="smolenskaja_oblast&amp;apos;">
      <path data-code="demdata-codeovskij_rajon" data-title="demdata-codeovskij rajon" class="cls-1" d="M52.63,26.26l2,1,1,1.5,5-2.14-.59-.83,2.6-1.03,11,1.86,1-1.5h4.5l1-2,1.5.5,5-3.36,1-1.5,1.5-.5,2.5,1.5.5-1h.5l-.5,1,4,4v1.5h-1l-.5,1,1.5-1-1,1.5,1,1.5-1.5,1-2-1.5-1.5,1.5.5,1,3-1,.5,2.5-.5.5-1-1.5-2,.5-3,4h-2v1.5l-1.5,1.5h1l-1,1.5v1.5l-2-2.5-1,.5v2h1l-1,.5v1l-1.5,1-1.5-.5,2,1.5-.5,1-1-1h-1.5l-.5,1-1.5-1-1,1.5h-1l-2,1,1,.5v1l-1.5-1-2.5,1-1,2.5.5,3-1.5.5-1-2.14-3.5,1.5-3-1.5,1-1-1-2-1-.5-2,1,1-1,.5-1,1-.5v-.5l-1,.5-3.5-2.5-1.5.5-2-1.5-2.5.5-2,2-.5,1-1-.86,1-2-1-2-1,.5-.5-1,1-1.5-.5-1,1.5-.5,1,1.5,1.5-.5,1.5-3,1-.5,1.5.5v-1.5h1.5l-1-2.5h-1l-.5,1-1.5-2,1-1.5-.5-1h2v-2l.5-1.5"/>
      <path data-code="dorogobuzhskij_rajon" data-title="dorogobuzhskij rajon" class="cls-1" d="M81.63,87.76l-1,1,3,3-.5-2,.5-1,3,.5v-2l1.5-1,3,.86.5,2,1,.5.5-1.5,5,.5.5,2.5,2.5,1,1.5,4,2.5-1-.5,1.5,2,1-.5,1.5-1.5.5v1l3,.5.5,2-1,1,1.8,1.11-.3.89,1,1-1,.5v1l-1.5-.5v6.14l-1.5,2v2.5l-2,1-3-3v.5l-3,.5.5,1.5-1.5.5v1.5l-2-.5-2-3-1,1.5-.5-.5-.5.5-2,.5-.5-1,2-1.5-.5-1,1-.5v-1l-1.5-1-2.94-8.82-2.06.32v-.5l-2-.5v-1.5l1.5,1,.5-1-1.5-1.5.5-.5-3-1.5,1.5-2.5-.5-2.5h-3l1-3v-3.5h2.5Z"/>
      <path data-code="dukhovshhinskij_rajon" data-title="dukhovshhinskij rajon" class="cls-1" d="M69.13,48.76l2.5-1,1.5,1v-1l-1-.5,2-1h1l1-1.5,1.5,1,.5-1h1.5l1,1,.5-1-2-1.5,1.5.5,1.5-1v-1l1-.5h-1v-2l1-.5,2,2.5v-1.5l1-1.5h-1l1.5-1.5v-1.5h2l3-4,2-.5,1,1.5,2-1.5v-.5l1,.5-.5,1,1,2,1.5-1,1,1.5,1.5-1,2,1-1,.5v1l2-.5-1,2h-.5v1l2-2,1,.5,1.5-1-.5,1.5.5,1-3.5,3.5h2l.5-1.5,1.5-.5,3.5,3.5.5,1.5-4,1-4,4h-3.5v1h-1.5l-1,4v.5l-.5,1-3.5,2.5-1-.5v1.5l-1,.5-.5-1-2,.5,1,1.5-.5,3-1.5,1.5,1,1.5-2,1,.5,1h-1.5l-2.5-1-.5,2-4.5,1-3.5-.5-3.5-3.5-2,1-3-1.5-1.5-3.5.5-2,1.5-1.5-2.5-2.5,1.5-.5.5-1.5,1-1-.5-3,1-2.5"/>
      <path data-code="el_ninskij_rajon" data-title="el&amp;apos;ninskij_rajon" class="cls-1" d="M60.62,116.62l2-.36v-1.5h3.5l1,3,1-.5,1-3.5,1-.5-.5-1.5,5-1,.5,1v-2.5l.5-1.5,3.5-1,1.5.5v-1.5l1.5-1v-.5l2,.5v.5l2.06-.32,2.94,8.82,1.5,1v1l-1,.5.5,1-2,1.5.5,1,2-.5.5-.5.5.5,1-1.5,1,1,2,4h1.5v3.5l-2.5-.5-2,1-1,2-2.5,2-1.5-1v1.5h-1.5l1.5,2.5h-3.5v-1,1l-1.5,2-4.5-1-1-1.14-.59,1.04-.9-.9-2,2-1.5-2,1-1.5h-1v-3l-1.5-1-1.5.36-3-1-2,2h-3v-2l1-.5v-1l1-.5-4.5-7,2-2Z"/>
      <path data-code="ershichskij_rajon" data-title="ershichskij rajon" class="cls-1" d="M13.63,147.76l.5-1,4,1,.5-1.64,3-1,3,1.5,2.92-1.17.08,1.31h-1.5v.5l5,1-.5,1,.5,2-1.5-.5v.5l1.5.5,1,4,2,1v.5h-1l2.5,2-1,.5-.5,3-1.5-1v1l-2,.5-1.5-.5h-1.5l-.5,1h-2l-1.5.5-.5,1.5-2.5.5-.5.5,1.5,1h-2l.5,2-2,1-2.5-2.5-.5,1h-1.5l1-2.5.5-.5-2.5-3,1-1.5h-2l1.5-2-2.5-5,1.5-4.5,2-1-1-.5.5-1"/>
      <path data-code="gagarinskij_rajon" data-title="gagarinskij rajon" class="cls-1" d="M174.62,73.62l.5-1.86h1l1.5.5-.5,1.5-1,.5,2.5,1.5,1-.5v-.5l3.5-1,.5,1.5h2l-1,.5,1,1.5.5-1,1.5,2,1.5-1v1.5l4,1.5-.5,3,1.5.5v3.5h-1l-.5,1.5.5-.5h1l-1,.5.5.5-1.5,3v2l-1,1.5,1.5,1.5-1,1-1,.5v1.5l-1.5-.5-.5,1.5v1l-2,1.5.5,2-.5.5.5,1-1,2h-1.5v1l-2.5-2-1,1.5.5,2.5h-1.5l-1,2-1.5-.5v2l-1,.5.5,1h-2l-2.5,3.5-1.68.99-4.83-1.62-1.5,1-1-1.5-1.5.5-.5-1.5h-2l.5-1.5-1,.5-1-1,2.5-1.36-3-1.14,3-2v1l1-.5v-3l2-3v-1.5l-1.5.5-.5-1.5h-3l.5-2-.5-2-2.5.5-.5.5-1-.5,1-2.5,4-1,.5.14.5-1,1.5-1,.5-1,1.5-1-.5-1.5h1v-1.5l2,1,3.5-.5v-3l-1-.5,1.5-2-.5-1-1.57.23,1.07-3.36,2.5-1.5-.5-1.5,2.5-1.5-1-2.5v-1l1.5.5Z"/>
      <path data-code="glinkovskij_rajon" data-title="glinkovskij rajon" class="cls-1" d="M59.33,94.42l7.3-.66-1-3.5,2.5,1,1-1,2,1v-1l.5.5,3-.5.5,1,1-1.5,1,.5,2-2.5v3.5l-1,3h3l.5,2.5-1.5,2.5,3,1.5-.5.5,1.5,1.5-.5,1-1.5-1v2l-1.5,1v1.5l-1.5-.5-3.5,1-.5,1.5v2.5l-.5-1-5,1,.5,1.5-1,.5-1,3.5-1,.5-1-3h-3.5v1.5l-2,.36-2-4,1-2.5-.5-.5,1-1.5-1-1,1.5-.5-.5-1h1v-.5l-1-2-2.5.5.5-1,.5-.5-1-1.5,2.5-1.5-2-2.5.5-1.5.71-.71Z"/>
      <path data-code="gorodskoj_okrug_desnogorsk" data-title="gorodskoj okrug desnogorsk" class="cls-1" d="M62.12,140.62v1l-2,1,.5-2h1.5Z"/>
      <path data-code="jarcevskij_rajon" data-title="jarcevskij rajon" class="cls-1" d="M76.13,70.76l3.5.5,4.5-1,.5-2,2.5,1h1.5l-.5-1,2-1-1-1.5,1.5-1.5.5-3-1-1.5,2-.5.5,1,1-.5v-1.5l1,.5,3.5-2.5.5-1h-1v-.5h1l1-4h1.5v-1h3.5l2.5,8.5-1,2,1,1.5,2-2,.5,1.5-1,1,1,1.5-1,.5-1-1.5-.5,1.5,1.5,1-1.5.5.5,1.75-1.5-.38.5,2h-1.5v.5l1,.5v2l-2.5,1-.5-1.5h-2l1.5,2-1.5.5-1.5-1.5-1,3-1,.5v1l-2,1.5h-2l1,2-1.5,2,.5,1-2.5,3.5-3-.86-1.5,1v2l-3-.5-.5,1,.5,2-3-3,1-1h-1.5l.5-1-1.5-1.5.5-1,1-.5-3.5-1.5,1-2-2-.5,1.5-2-2-2,2-1.5-2-2,.5-1.5"/>
      <path data-code="kardymovskij_rajon" data-title="kardymovskij rajon" class="cls-1" d="M67.63,66.76l3,1.5,2-1,2.5,1.5,1,2-.5,1.5,2,2-2,1.5,2,2-1.5,2,2,.5-1,2,3.5,1.5-1,.5-.5,1,1.5,1.5-.5,1h-1l-2,2.5-1-.5-1,1.5-.5-1-3,.5-.5-.5v1l-2-1-1,1-2.5-1,1,3.5-1.5.5-5.5.5-.3-.34.79-.79-1.5-2.5-2-.57-.5-1.29,1-1,.5-3.5,1,.5,2.5-1.5-1-2,1-3h-1l1-1.14.5-3.5,1.5,1,.5-.5v-3l1-1v-3l3-.86Z"/>
      <path data-code="khislavichskij_rajon" data-title="khislavichskij rajon" class="cls-1" d="M13.13,108.26l2-1,.5.5,1.5-1,1-1,1,2,1.5-2,3.5,1,1.5-1.5h1.5l.5-1.5,3.5-1.5.5,2.5,2,1-.5,1,1.5,1.36v1.5l5.5,1v2h1.5l-.5,1h1l-3,3-1.5,4-4.5,1-.5,2,.43,1.07-2.43,1.57-2-2,.5-.5-1.5-2-4.5,3-3.5-2.5h-5.5l-3-4.5v1l-1.5.5.5-1.5h2l1-1.5-.5-1.5,3.5-1.5.5-2-1.5-2.5-2-.5"/>
      <path data-code="kholm-zhirkovskij_rajon" data-title="kholm-zhirkovskij rajon" class="cls-1" d="M105.13,48.76l3.5-3,4-1,2,2-.5,1.5,2,1-1,.5v1l1.5-1h1.5l1,1-.5,1.5,3,.5v3h2.5l3-2,2,1,.5,1-1.5-.5,1.5,1.5.5-1h1v-.5l3,2.5-.5-1,.5-1,1.5.5.5.5-1,1.5.5.5-1,1,2,1.5-.5,1-2,.5,1,2,1.5-.5-.5,1,.5,2.5h-1.5l-.5,2-.5.5h2l2.5,2.5-2,1.5.5,4.5,1.5,2-5,2-.5,1.36-1.5.5-.5,2-1,.5-1.5-1.5,1-2-.5-.5,1-1-1-1.5-8-1-3-3-1.5-.5.5-1-1.5-2.5-1.5.5-5-5.86-.5.5-1-.25-.5-1.75,1.5-.5-1.5-1,.5-1.5,1,1.5,1-.5-1-1.5,1-1-.5-1.5-2,2-1-1.5,1-2-3-7,1-2.5"/>
      <path data-code="krasninskij_rajon__smolenskaja_oblast_" data-title="krasninskij_rajon_(smolenskaja_oblast&amp;apos;)" class="cls-1" d="M19.13,53.76l1,1.36,1-1,1,4,2,.5,1-1.5.5.5-.5,1,4.5,2,.5,2.5,1.5-1.5-.5,1h1v.5l2.5-2-.5,2.5,1.73.77-1.73,1.73-2-1-.5,1.5-1.5-.5-.5,2.5,1.5,2,9.5.5-.5,2.5.5,2-1.5-.5-1.5,1.5v1l1,1.5-1.5,1.5,2,1v2.5l-3.5-1-.49,1.14h-5.01v1.5l-3.5,1.5-2.5-2.5-1,2-3-1.5-.5,2-.5-.5-2,2-1-3h-1v1l-3.5-1.5,1-3.5-1-1.5,1.5-1,.5-2.5,1.5-2-1.5-2-1-4,9-3,1-1.5v-1.5l-5.5-5,1-1h1.5v-1.5h-1l.5-1.5"/>
      <path data-code="monastyrshhinskij_rajon" data-title="monastyrshhinskij rajon" class="cls-1" d="M10.13,84.26l1.5-.5,3.5,3v-1h1l1,3,2-2,.5.5.5-2,3,1.5,1-2,2.5,2.5,3.5-1.5v-1.5h5.01l.99,4.36,3.5,1.64,1.5,3.36-1.5,3.5h-1l.5,1h-1l-1.5,3.5-3,4.14-2-1-.5-2.5-3.5,1.5-.5,1.5h-1.5l-1.5,1.5-3.5-1-1.5,2-1-2-1,1-2,1.5v-1.5l-3.5-1.5,1-2.5-2.5-2-1-3,1-1-.5-3-1.5-1.5h1l-1.5-3.5,3-3.5-.5-1"/>
      <path data-code="novoduginskij_rajon" data-title="novoduginskij rajon" class="cls-1" d="M136.62,56.62l1,1,3-.5,4.5,3,1-.5,1,1,1-1,2,2-.5,2.5,1.5,1.5-1,1,.5,2-.5,1.5,1.5,1.5-1.5,2,2.5,1,2,4.5,2.5,1.5,1.5-1,3.5,2.5v3l2.5-.5.5-1,2.5,1,2.5-.36.5,1-1.5,2,1,.5v3.36l-3.5.5-2-1v1.5l-.91-.1.41,1.24-1.5,1.36-.5,1-1.5.64-.5,1-.5-.14-2-4-2.5-2-2,1.5v1h-1l-.5,1.5-3,.5-2-2-1.5,1-2.5-1.5v-1l1.5-.5-2-3-3.5-1-1-2-3,.5-1.5-2,.5-1.36,5-2-1.5-2-.5-4.5,2-1.5-2.5-2.5h-2l.5-.5.5-2h1.5l-.5-2.5.5-1-1.5.5-1-2,2-.5.5-1-2-1.5,1-1-1.81-1.62,2.81-.51Z"/>
      <path data-code="pochinkovskij_rajon__smolenskaja_oblast_" data-title="pochinkovskij_rajon_(smolenskaja_oblast&amp;apos;)" class="cls-1" d="M41.12,93.62l3.5-2,3,1,1.5,2,2-1,.5-3h2.5v.5l1-1,3.5,1,1.5,2.5-1.5,1.5-.5,1.5,2,2.5-2.5,1.5,1,1.5-.5.5-.5,1,2.5-.5,1,2v.5h-1l.5,1-1.5.5,1,1-1,1.5.5.5-1,2.5,2,4-2,2,4.5,7-1,.5v1l-1,.5v2h-2l-2,1.5-1-.5-1.5,1.5-1.5.5-2-1.5-1.5-2.5h-1.5l-.5,2.5-3,1-2-2.5-.5,1.5-1-1-2.5.5-2.5-.5-1.5-1.5,1-2.5h-2l-1-2.5.5-2,4.5-1,1.5-4,3-3h-1l.5-1h-1.5v-2l-5.5-1v-1.5l-1.5-1.36.5-1,3-4.14,1.5-3.5h1l-.5-1h1l1.5-3.5"/>
      <path data-code="roslavl_skij_rajon" data-title="roslavl&amp;apos;skij_rajon" class="cls-1" d="M60.12,142.62l2-1v-1h-1.5l-.5,2ZM34.12,131.12h1l1-1,2.5.5,2.5-.5,1,1,.5-1.5,2,2.5,3-1,.5-2.5h1.5l3.5,4,1.5-.5,1.5-1.5,1,.5,2-1.5h5l2-2,3,1,1.5-.36,1.5,1v3h1l-1,1.5,1.5,2,2-2,.9.9.59-1.04,1,1.14,2-.14,1,2-1,2.5,1,2-1.5.5v1l-2,1-1-1-.5,1-.5-1-1,1,.5,1-1,.5-.5,2-3-1-2,3.5h-2l1,.5h-2.5l-.5-1.5-1,.5-2,1,2,1-.5,1.5-2-.5,1.5,1.5-1,.5-2.5-1-.5,1.5-3.5,1-1.5-.5v-2l-1.5-.5-1,.5.5,1.5h-2.5l-1,1,.5,1-1.5,1,1,.5-1,2-3-.5-.5-1.5v1.5h-.5l-1,3-3.5-1.5-2,1-2.31-.47.32-1.9,1-.5-2.5-2h1v-.44l-2-1.06-1-4-1.5-.5v-.5l1.5.5-.5-2,.5-1-5-1v-.5h1.5l-.08-1.31,2.08-.83-1-1.5,1-1,1-1.5-1-2,3-3.5-.5-.5,2-2v-1.5"/>
      <path data-code="rudnjanskij_rajon__smolenskaja_oblast_" data-title="rudnjanskij_rajon_(smolenskaja_oblast&amp;apos;)" class="cls-1" d="M16.62,45.12l4-2.5,1,.5.5-1,1-.5,1-2,5,1.5,1.5-1,1-2,2,1,1.5-1.5.5-1.5,4-6.5-.5-1.5,2-3v-2.5l-1.5-1,3-3h4.5l1.1-.71,1.9,3.71,3,1.5,1-2,1-.5-.5-1h.5l.5-.5h1l.5.5-1-.5-.5.5v1l2,.5h-2.5l-.5.5,3.5,1.5,2.5,3.5-5,2.14-1-1.5-2-1-.5,1.5v2h-2l.5,1-1,1.5,1.5,2,.5-1h1l1,2.5h-1.5v1.5l-1.5-.5-1,.5-1.5,3-1.5.5-1-1.5-1.5.5.5,1-1,1.5.5,1,1-.5,1,2-1,2-3.5,1.36-.5,4h-1v1l.5,1-.5,1.5,1.5.5-3,3.5,2.5,2.5-2,1.5h-1.5v1.5l-3.5-1.5.5-2.5-2.5,2v-.5h-1l.5-1-1.5,1.5-.5-2.5-4.5-2,.5-1-.5-.5-1,1.5-2-.5-1-4-1,1-1-1-2.5-9"/>
      <path data-code="safonovskij_rajon" data-title="safonovskij rajon" class="cls-1" d="M93.62,78.62h2l2-1.5v-1l1-.5,1-3,1.5,1.5,1.5-.5-1.5-2h2l.5,1.5,2.5-1v-2l-1-.5v-.5h1.5l-.5-2,2.5.64.5-.5,5,5.86,1.5-.5,1.5,2.5-.5,1,1.5.5,3,3,8,1,1,1.5-1,1,.5.5-1,2,1.5,1.5,1-.5-.5,3,1,2.5-3-.5-.5,2-2.5,2.5.5,1.5-2,1v1l-1-1-1,.5-1-.5v1l-1-.5-1,3.5-1.5.5-.5,1-3.5-2.5-2,4.5h-1.5l-3-2,1-1-.5-2-3-.5v-1l1.5-.5.5-1.5-2-1,.5-1.5-2.5,1-1.5-4-2.5-1-.5-2.5-5-.5-.5,1.5-1-.5-.5-2,2.5-3.5-.5-1,1.5-2-1-2"/>
      <path data-code="shumjachskij_rajon" data-title="shumjachskij rajon" class="cls-1" d="M2.12,122.12l1,.5,1-1,1.5,1-.5-2,1.5.5,1-1,1-.5,1.5-1.5-.5,1.5,1.5-.5.24-1.01,2.76,4.14h5.5l3.5,2.5,4.5-3,1.5,2-.5.5,2,2,2.43-1.57.57,1.43h2l-1,2.5,1.5,1.5-1,1h-1v1.5l-2,2,.5.5-3,3.5,1,2-1,1.5-1,1,1,1.5-5,2-3-1.5-3,1-.5-1,.5-1-3.5-1,.5-3.5-1.5-1.5,1-.5-2-1,1-2-1.5-.5-.5-2.5h-2l-2.5-2.5-4-.5-1-4H.62l1.5-1.5v-1"/>
      <path data-code="smolensk" class="cls-1" d="M52.12,74.12l3,1.5-1,4.5-.5.5-1.5-1v1.5l-.5.5.5-2-2-3,.5.5.5-1.5,1,.5v-2"/>
      <path data-code="smolenskij_rajon__smolenskaja_oblast_" data-title="smolenskij_rajon_(smolenskaja_oblast&amp;apos;)" class="cls-1" d="M52.12,74.12v2l-1-.5-.5,1.5-.5-.5,2,3-.5,2,.5-.5v-1.5l1.5,1,.5-.5,1-4.5-3-1.5M41.62,48.12l3.5-1.36,1,.86.5-1,2-2,2.5-.5,2,1.5,1.5-.5,3.5,2.5,1-.5v.5l-1,.5-.5,1-1,1,2-1,1,.5,1,2-1,1,3,1.5,3.5-1.5,1,2.14,1.5-.5-1.5,2.5-1.5.5,2.5,2.5-1.5,1.5-.5,2,1.5,3.5-3,.86v3l-1,1v3l-.5.5-1.5-1-.5,3.5-1,1.14h1l-1,3,1,2-2.5,1.5-1-.5-.5,3.5-1,1,.5,1.29-1.5-.43-1,1v-.5h-2.5l-.5,3-2,1-1.5-2-3-1-3.5,2-1.5-3.36-3.5-1.64-.99-4.36.49-1.14,3.5,1v-2.5l-2-1,1.5-1.5-1-1.5v-1l1.5-1.5,1.5.5-.5-2,.5-2.5-9.5-.5-1.5-2,.5-2.5,1.5.5.5-1.5,2,1,2-2,1.5,1v-1.5h1.5l2-1.5-2.5-2.5,3-3.5-1.5-.5.5-1.5-.5-1v-1h1l.5-4"/>
      <path data-code="sychjovskij_rajon" data-title="sychjovskij rajon" class="cls-1" d="M140.12,57.12l1-1.5,1,1,1.5-2,2,2,3-3v.5-1l1.5-.5-1-1,1.5-1.5,2.5,2.5.5,1.5-.5.5,1,.5,1.5-1-.5-1h1l.5-1.5h1l-.5-1,2,1.5,2-2.5,2,.5,3,6,2-.5,2,.5.5,1.5-.5,1,1,.5h-.5v1.5l1,1-.5,1.5h3.5l-.5,2.5,1.5,4.5-1,3.5-1.5-.5v1l1,2.5-2.5,1.5.5,1.5-2.5,1.5-1.07,3.36-.93.14-2.5-1-.5,1-2.5.5v-3l-3.5-2.5-1.5,1-2.5-1.5-2-4.5-2.5-1,1.5-2-1.5-1.5.5-1.5-.5-2,1-1-1.5-1.5.5-2.5-2-2-1,1-1-1-1,.5-5-3"/>
      <path data-code="temkinskij_rajon" data-title="temkinskij rajon" class="cls-1" d="M140.62,120.62l1-1,2,1.5,2-2.5,2-.5,3.5-1v-1.5l1.5-1.5v-1l1.5-.5-.5-1.5.5-.5,3.5,3.5,3,1.14-2.5,1.36,1,1,1-.5-.5,1.5h2l.5,1.5,1.5-.5,1,1.5,1.5-1,4.5,1.5.5,1.5-1,1.5.5,1.5-1.5,1-1-.5,1,2-1,.5v1h-3l-1,1.5-2,2.5-1-.5-.5,1-1-.5-2.5,1.5-2-.5-1-1-.5,1.5h-1.5l1,1h-1l-.5,1.5-3.5-1v1l-1.5-1v1.5l-2-.5-.5,1.5-1-1,1-4.5-2.5-.5,1.5-1-.5-.5-2.5-1v-1l-1.5-1,1.5-1,1-3.5,1-.5-1.5-3.5"/>
      <path data-code="ugranskij_rajon" data-title="ugranskij rajon" class="cls-1" d="M96.62,121.12v-1.36l1.5-.5-.5-1.5,3-.5v-.5l3,3,2-1v-2.5l1.5-2v-2.64h3l-1,2.5h1.5l.5-1.5,3,1.5-1,1,.5,4.5,3.5.5,3,5,1-1,2,1,2.5-2,.5-.5-1.5-1,1-1,.5-2,3,.5v1l1.5.5,1.5-1.5h3l1,1.5-1,.5.5,1,4,.5,1-2,1.5,3.5-1,.5-1,3.5-1.5,1,1.5,1v1l2.5,1,.5.5-1.5,1,2.5.5v1.5l-1,.5-.5,1h-2l-1.5,3-1.5,1,.5.5-1,2,.5,1-5.5,1-1.5,1-2.5-3.5-1.5,1.5-3.5-.5v-2l-2-.5-.5-2-2-.5-.5-1.5-.5.5,1,1,1,.5-.5,1.5,1,.5-2.5,3.5h-3v1h-2l-1.5,2-5-4.5h-1.5l-1-2,1-3.5h-2.5l.5-1.5-1.5-.5-1-3h-3l-.5-1.5-2.5-.5v-1.5h-3.5l2-2.86,2-1,2.5.5v-3.14l-1.5-.36-1-2,2,.36Z"/>
      <path data-code="velizhskij_rajon" data-title="velizhskij rajon" class="cls-1" d="M50.62,12.62l3,.5-.5-2.5h2l4-6h1l1.5-1,3.5,1.5.5-2.5,2-2,.5,1.5.5-.5,1.5,1.5.5,4h2l.5,1.5.5.5.5-1,2,1.5.5,2h1.5v1l-2-.5v1l1.5,1,1-1,4.5,1.5-1,1,2.5,2,.5,2-1,1,1.5,1-4,2-1.5-.5-1,2h-4.5l-1,1.5-11-1.86-2.6,1.03-1.91-2.67-3.5-1.5.5-.5h2.5l-2-.5v-1l.5-.5,1,.5-.5-.5h-1l-.5.5h-.5l.5,1-1,.5-1,2-3-1.5-2-3.5,2.5-5.5"/>
      <path data-code="vjazemskij_rajon__smolenskaja_oblast_" data-title="vjazemskij_rajon_(smolenskaja_oblast&amp;apos;)" class="cls-1" d="M109.12,104.62l1,1.5h1.5l2-4.5,3.5,2.5.5-1,1.5-.5,1-4,1,1v-1l1,.5,1-.5,1,1v-1l2-1-.5-1.5,2.5-2.5.5-2,3,.5-1-2.5.5-3,.5-2,1.5-.5,1.5,2,3-.5,1,2,3.5,1,2,3-1.5.5v1l2.5,1.5,1.5-1,2,2,3-.5.5-1.5h1v-1l2-1.5,2.5,2,2,4-4,1-1,2.5,1,.5.5-.5,2.5-.5.5,2-.5,2h3l.5,1.5,1.5-.5v1.5l-2,3v3l-1,.5v-1l-3,2-3.5-3.5-.5.5.5,1.5-1.5.5v1l-1.5,1.5v1.5l-3.5,1v.5h-2l-2,2.5-2-1.5-1,1-1,2-4-.5-.5-1,1-.5-1-1.5h-3l-1.5,1.5-1.5-.5v-1l-3-.5-.5,2-1,1,1.5,1-.5.5-2.5,2-2-1-1,1-3-5-3.5-.5-.5-4.5,1-1-3-1.5-.5,1.5h-1.5l1-2.5h-3v-3.5l1.5.5v-1l1-.5-1-1,.5-1.5"/>
    </g>
</svg>