<svg data-code="RU-TAM" xmlns="http://www.w3.org/2000/svg" viewBox="0 0 125.25 157.39">
    <g data-code="tambovskaja_oblast_" data-title="tambovskaja_oblast&amp;apos;">
      <path data-code="bondarskij_rajon" data-title="bondarskij rajon" class="cls-1" d="M75.12,59.12l8-5-.5-1.5,6.01-2.44-.51,3.44,3.5,1.5,1.5,3,6,3.5,1.5-1.5,1.5,1.64-2,2.5,1,1.5-1.5,1.5,3,3.5.5,1.5-1.5,3.5,1,5.5-2.5,3.5-3-2.5,2-2.5-2-1.5v-2.5l-2.5,2.5-5-1-1,1.36-2.5.5-.5-4-1-1,1-3-1-1-1,1-4,.5-2-.5,1.5-3-3.5-3.5-1,1-1.5-1,1.5-2.5-1-.5,1.5-2.5"/>
      <path data-code="gavrilovskij_rajon" data-title="gavrilovskij rajon" class="cls-1" d="M111.33,67.81l3.3.95v10.5l3.5,8-1,1v3.5l-2.5-.5-3,2.5-2.5-2-7.5-1-2-2,.5-4,2.5-3.5-1-5.5,1.5-3.5-.5-1.5-2.13-2.48,10.83-.46Z"/>
      <path data-code="gorodskoj_okrug_kirsanov" data-title="gorodskoj okrug kirsanov" class="cls-1" d="M99.12,97.26l1,.5v2l-1-1.5v-1"/>
      <path data-code="gorodskoj_okrug_kotovsk" data-title="gorodskoj okrug kotovsk" class="cls-1" d="M58.12,75.62l-.5,2.5-1-.5.5-2.5,1,.5Z"/>
      <path data-code="gorodskoj_okrug_michurinsk" data-title="gorodskoj okrug michurinsk" class="cls-1" d="M34.12,35.26h3v1.5l1.5.5h-1.5l-1,1.5-.5-1.5h-1l1-.5-2,.5.5-2"/>
      <path data-code="gorodskoj_okrug_morshansk" data-title="gorodskoj okrug morshansk" class="cls-1" d="M97.62,31.76h4l-1,1.5,1,1h-1.5v1l-.5-.5.5-1.5-1.5.5-1-2"/>
      <path data-code="gorodskoj_okrug_rasskazovo" data-title="gorodskoj okrug rasskazovo" class="cls-1" d="M75.12,79.12l.5,1.5h-2l.5.5h-1l-.5,1-1.5.5-1-2.5,5-1Z"/>
      <path data-code="gorodskoj_okrug_tambov" data-title="gorodskoj okrug tambov" class="cls-1" d="M59.62,65.62l1-1.5h.5l.5.5v2l1,1h-1.5l1,2-1-.5-1.5,2h-1l1-1.5-2-1.5.5-1.5,1.5-1Z"/>
      <path data-code="gorodskoj_okrug_uvarovo" data-title="gorodskoj okrug uvarovo" class="cls-1" d="M57.12,130.62l-1-.5,2.5-1.5,1-3.5,1,2.5-3,4-2.5-1.5,2,.5Z"/>
      <path data-code="inzhavinskij_rajon" data-title="inzhavinskij rajon" class="cls-1" d="M74.12,97.62l2-2.5,1,.5,1.5-.5v-1l1.5-1,1.5,3,2.5.5.5,3.64,3.5,3.5h2l1,2-2,1.5v2l6,4.86v8.14l-4.5,3.5-2,2.5-5-1-4,5.5-1-1-3,.36-4-7.5-2-.5.5-1-1.5-1.86.5-2.14,2.5-2.5-1-1,1-2-2-3.5,1-1.5v-4.5l1-1-.5-2,1.5-3,1.5-.5Z"/>
      <path data-code="kirsanovskij_rajon" data-title="kirsanovskij rajon" class="cls-1" d="M99.12,97.26v1l1,1.5v-2l-1-.5M89.62,77.26h2l3,1,2.5-2.5v2.5l2,1.5-2,2.5,3,2.5-.5,4,2,2,7.5,1,2.5,2-2.5,3.36-2,1.5-2.5.5.5,3.5-3.5,1-.5,1,1,2-1,1-2.5-2-3.5,1.5-1,1v2l-1-.5-1.59,1.59-2.4-1.95v-2l2-1.5-1-2h-2l-3.5-3.5-1-7.14,1-4h1.5l.5-1,1.5,1,3-1.5-1-3,.5-2-2-1.5v-2.5l1-1.36Z"/>
      <path data-code="michurinskij_rajon" data-title="michurinskij rajon" class="cls-1" d="M34.12,35.26l-.5,2,1-1,1,.5-1,.5h1l.5,1.5,1-1.5h1.5l-1.5-.5v-1.5h-3M21.62,26.26l2-.5,1-1,1.5,1.5.5-2,1-.5.86-1.93,3.14,1.79,1.5-2,4.5,3.5,2-.5,1,1.5,5-3.5.5,1,8,1,2.69,2.09-3.68,4.05-2.5,5.5-2.5-1-.5,2.5-2.5.5v-1l-2.5,2.5-3.5,9-4.5-.5-1,2-4,1v-1l-3.5-2.5.5-.5-2.5-3,1.5-.5,1-4.5-4-2,.5-1-2.5-1-1-1.5,3-4.5-1-3"/>
      <path data-code="mordovskij_rajon" data-title="mordovskij rajon" class="cls-1" d="M1.12,91.76l1.5-1,.5-1.5,4.5,1,.5-1-1-1,2-1.5-1-1h1l-.5-1.5.5,1,2-2,.5,1,.5-1.5h1v-1l2.5.5v-1l1-1.5.5,3.5h1l-.5-2,1-1.5-.5-3.5-2-1-1.5,1v-2l1.5-2v-1.14l2.5-2.5,1,.5,1-2,2.5,1.5-1,2.5,3,1-.5,1.5,2,2v-.5l2-1,1.5-3,3,.5-1,2.14,2,1-1.5,2-.5,2,1.5,3.86-.5,1.5-1,.5,1.23,1.48-1.73,1.65h-1v1.36l-4.5.5v3l-1.5.5-2.5,1.5-2-.5-1.5,2.5,1.5,1-1,1-3-.5-2.2.88,2.2,1.62-1,.5-1-.5-.5,1-1,.5-1,1.5v1.64l-2-4-2.5.5v-3.5l-6.5-5.5.5-1"/>
      <path data-code="morshanskij_rajon" data-title="morshanskij rajon" class="cls-1" d="M97.62,31.76l1,2,1.5-.5-.5,1.5.5.5v-1h1.5l-1-1,1-1.5h-4M81.12,18.26l2,1.5,1.5-3,4,1.5,9.5-13.5,1,.5.5-1,3,3,3-1.5,1.5,2-1,1.5,1,.5h1l.5-1h1.5l3.5,3,2.5.5,3,3h2.5v2l3,1.5-1,2-1.5-.5-.5.5h-1.5l-1,2.5,2,1-2.5,2v.5l-4,5.5h1l-3,3h2.5l-2.5,1.5,3.5,3-1,1.5,1,1.5-.5,1,.5.5-1.5-.5-2,1.5-1-2.64-2-.5-1,.5-3,.5-2.5-1v-1h-2l-2,2v2l-4,3-1.5-1-1.5,1.64-1-3,1-1.5-2-3v-3l-1.5-2.5-1.5-1.5,1.5-1.5-1-.5.5-4.5h-2l-.5-1.5v-3l-3.5-.5-2.5-3,1.5-1.5"/>
      <path data-code="muchkapskij_rajon" data-title="muchkapskij rajon" class="cls-1" d="M49.62,137.62l1.5,2.5,1.5-3.5,1.5,1,.5-.5-1-1,1-.5,3.5,1.5,6.5-4-2.5-.5-1.5,1-1-.5.5-1,2-.5v-1l8,1.5,2.5,2-.5-1,1-1,5.5-.36,1,2.5-1,2,.5,2-3.5-1-2,1.5.5.5-2,1.5-1.5,3-4.5,4-9,2-2.5,3-1.5,4h-1l1-3-2-.5h-4.5v-2.5h-2l2-1.5.5-2,1.5.5.5-1-1-.5-1-4h-.5l-.5,1-.5-.5-.09-1.5,4.09-3.64Z"/>
      <path data-code="nikiforovskij_rajon" data-title="nikiforovskij rajon" class="cls-1" d="M33.62,50.26l1-2,4.5.5,3.5-9,2.5-2.5v1l2.5-.5.5-2.5,2.5,1,2.5-5.5,3.68-4.05,1.81,1.41,1,2h2l-3.5,3.5.5,3.5-1.5,3v2.5l-1.5-1-.5,1,1,2-.5.5h-1.5l-.5,1,1.5,1.5-1.5,1v3.5l-4.5,3h-3.5l-1,2-1-.5-.5,3h-1l-.5,1.5-2,1.5h-2.5v-1.5l-8.5.5,1.5-2v-2l-1-1,.5-2.5v-2.86l4-1Z"/>
      <path data-code="pervomajskij_rajon__tambovskaja_oblast_" data-title="pervomajskij_rajon_(tambovskaja_oblast&amp;apos;)" class="cls-1" d="M35.62,9.62h1l1.5-3.5h3l.5-.5,2,1,2-2,.5,1.5,2-2,1,.5-1,1,1.5,2.5,3-1.5h1l.5.5-1.5,2,1.5,1,.5-1,1,1-1.5,1.5h-1.5v2l-2.5,2.5,2.5,1v1.5h-1l-.5,2.5-4,.5-1,2-.5-1-5,3.5-1-1.5-2,.5-4.5-3.5-1.5,2-3.5-2,3.5-1,1-3.5,1.5-2v-.5l.5-.5.5-1.5v.5l1-3-.5-.5"/>
      <path data-code="petrovskij_rajon__tambovskaja_oblast_" data-title="petrovskij_rajon_(tambovskaja_oblast&amp;apos;)" class="cls-1" d="M10.12,35.12l2-1,.5,1,.5-1h1l.5,1.5h1.5l.5-2v2l.5.5,1-2,.5.5,1-1,1,1.64,2.5,1-.5,1,4,2-1,4.5-1.5.5,2.5,3-.5.5,3.5,2.5v3.86l-.5,2.5,1,1v2l-1.5,2,4.45-.26.55,3.26h-2l-2.5,2,4.5,4-.5,1-3-.5-1.5,3-2,1v.5l-2-2,.5-1.5-3-1,1-2.5-2.5-1.5-1,2-1-.5-2.5,2.5-2-1,1.5-1.5-4.5-4,.5-1-1.5-2,.5-1.5,1.5-1,1,.5.5-1-3.5-3,2-1.5-2-1.5.5-3.5h-.5l-1-2-1,.5-.5-2,2-.5-2-2,1-2-.5-1,1-1.5h1v1l1-1-1-3.5"/>
      <path data-code="pichaevskij_rajon" data-title="pichaevskij rajon" class="cls-1" d="M92.12,48.76l1.5-1.64,1.5,1,4-3v-2l2-2h2v1l2.5,1,3-.5,1-.5,2,.5,1,2.5-2,2,2,.5.5,4,2,.5-1.5,3,.5.5-1,.5,1,3.5.5,5-2.5-.5v2.5l-1,1.5-10.63.15-.87-1.02,1.5-1.5-1-1.5,2-2.5-1.5-1.64-1.5,1.5-6-3.5-1.5-3-3.5-1.5.51-3.44,3.5-1.42Z"/>
      <path data-code="rasskazovskij_rajon" data-title="rasskazovskij rajon" class="cls-1" d="M71.12,82.62l1.5-.5.5-1h1l-.5-.5h2l-.5-1.5-5,1,1,2.5ZM59.62,76.62l2-3.5,5,2,5-2,2,1.5,4-3.5,2,.5,4-.5,1-1,1,1-1,3,1,1,.5,4,2.5-.5v2.5l2,1.5-.5,2,1,3-3,1.5-1.5-1-.5,1h-1.5l-1,4,.5,3.5-2.5-.5-1.5-3-1.5,1v1l-1.5.5-1-.5-2,2.5-1.5.5-1.5,3,.5,2-1,1v2l-3.5-3.5,1.5-3.5-1.5-1.5-2,3-2.5-.5-1-2.5,2.5-1-3-5.5-5-1.5,1-4h3.5l-4-3,1.5-2,.5-2,1-2"/>
      <path data-code="rzhaksinskij_rajon" data-title="rzhaksinskij rajon" class="cls-1" d="M40.12,111.62h2l1-2,2,.5,1.5-2.5h2l.5-2,6,1.5,4.5-4,3.5-2-.5-1,2.5.5,2-3,1.5,1.5-1.5,3.5,3.5,3.5v2.5l-1,1.5,2,3.5-1,2,1,1-2.5,2.5-2-.5-1,.5-.5,2.5-2,1.5-.5-.5-1.5,1-2.5-2-2,1-3-.5-1,1-2,.5-2.5-1.5-4,3.5-2-.5-1.5-2,.5-3-2-1.5-.5-5,1-2"/>
      <path data-code="sampurskij_rajon" data-title="sampurskij rajon" class="cls-1" d="M39.62,94.12l3-1,1.5,2,1-3,2-2,1.5,2,2.5-2h2l-1-.5,2-1.5,2,1.5,5,1.5,3,5.5-2.5,1,1.5,3.5-3.5,2-4.5,4-6-1.5-.5,2h-2l-1.5,2.5-2-.5-1,2h-2l-3.5-2,1-2,2-2h-2l-2.5-4,1-1.5,2.5,1.5,3.5-2.5-3-2.5.5-2.5"/>
      <path data-code="sosnovskij_rajon__tambovskaja_oblast_" data-title="sosnovskij_rajon_(tambovskaja_oblast&amp;apos;)" class="cls-1" d="M61.12,23.62l1-1,4.5,2.5.5-1-1-.5,1-2h.5v2l2,.5,1.5-2-.5-1,1.5-2-2-.5.5-1.5-1.5-1.5,1.5-2,3,.5-.5-1.5,1.5-1,2,3.5-1,1.5-1,1,3,3,2-.86,2.5,3,3.5.5v3l.5,1.36,2,.14-.5,4.5,1,.5-1.5,1.5,1.5,1.5,1.5,2.5v3l2,3-1,1.5,1,3-9.5,3.86.5,1.5-3,2-2.5-6-2.5-4.5-2.5.5-.5,2-1.5,1.5-1.5-.5-2,1-2.5-2.5-3.5,2.5-1,3.5-1,.5v-1.5l-3,1-2.5-1.5v-3.5l1.5-1-1.5-1.5.5-1h1.5l.5-.5-1-2,.5-1,1.5,1v-2.5l1.5-3-.5-3.5,3.5-3.5h-2l-1-2,2.5-4.5"/>
      <path data-code="starojur_evskij_rajon" data-title="starojur&amp;apos;evskij_rajon" class="cls-1" d="M55.62,2.12h1l1-1.5.5,1.5-1,2.5,3,.5,1.5-1.5h2l1,1,2-1.5h2l2,2-1,1.5,1,1-1.5,4,4-1.5,1.5,1.5-1.5,1,.5,1.5-3-.5-1.5,2,1.5,1.5-.5,1.5,2,.5-1.5,2,.5,1-1.5,2-2-.5v-2h-.5l-1,2,1,.5-.5,1-4.5-2.5-1,1-2.5,4.5-4.5-3.5-8-1,1-2,4-.5.5-2.5h1v-1.5l-2.5-1,2.5-2.5v-2h1.5l1.5-1.5-1-1-.5,1-1.5-1,1.5-2-.5-.5,2-4.5"/>
      <path data-code="tambovskij_rajon__tambovskaja_oblast_" data-title="tambovskij_rajon_(tambovskaja_oblast&amp;apos;)" class="cls-1" d="M57.12,75.12l-.5,2.5,1,.5.5-2.5-1-.5M58.12,66.62l-.5,1.5,2,1.5-1,1.5h1l1.5-2,1,.5-1-2h1.5l-1-1v-2l-.5-.5h-.5l-1,1.5-1.5,1M29.12,66.62l2.5-2h2l-.55-3.26,4.05-.24v1.5h2.5l2-1.5.5-1.5h1l.5-3,1,.5,1-2h3.5l4.5-3,2.5,1.5,3-1v1.5l1-.5,1-3.5,3.5-2.5,2.5,2.5,2-1,1.5.5,1.5-1.5.5-2,2.5-.5,2.5,4.5,2.5,6-5,3-1.5,2.5,1,.5-1.5,2.5,1.5,1,1-1,1,.5,2.5,3-1.5,3-4,3.5-2-1.5-5,2-5-2-2,3.5-1,2.5-3,2-3.5-3-6.5.5-1.5-2.5-10.5-5.5-4.5-4"/>
      <path data-code="tokarevskij_rajon" data-title="tokarevskij rajon" class="cls-1" d="M3.62,112.62l4.5-3.5.5-.5,2-1.5,1-2v-1.5l1-1.5,1-.5.5-1,1,.5,1-.5-2.5-1.5,2.5-1,3,.5,1-1-1.5-1,1.5-2.5,2,.5,2.5-1.5,1.5-.5v-3l4.5-.5v-1.36h1l1.73-1.65,1.27,1.52-1,2v1.5l5,2,1,1-.5,2.5,3,2.5-3.5,2.5-2.5-1.5-1,1.5,2.5,4h2l-2,2-1,2-1.5.5-1.5-2.5-2.5,3.5-1-1-2,2-1.5-2.5-5,1-1,1.5v1.5l-1,1-4.5-1-3,3-1.5,2.5-1.5-1,.5-1.5h-3,1l-1-2.5-3-1.5"/>
      <path data-code="umetskij_rajon" data-title="umetskij rajon" class="cls-1" d="M93.12,109.62l1,.5v-2l1-1,3.5-1.5,2.5,2,1-1-1-2,.5-1,3.5-1-.5-3.5,2.5-.5,2-1.5,2.5-3.36,3-2.5,2.5.5,1,6.36-2,13-.5-1-6.5,2-2-.5-1.5,2,2,2-4.5-.5-1,6-1,.5-1-.5-.5,1-1.5,1-3-3v-6l-3.59-2.91,1.59-1.59Z"/>
      <path data-code="uvarovskij_rajon" data-title="uvarovskij rajon" class="cls-1" d="M55.12,130.12l2.5,1.5,3-4-1-2.5-1,3.5-2.5,1.5,1,.5-2-.5M33.12,137.62l2-1.5,2,1.5v-1.5l2.5.5v-1.5l4-2-.5-2,1.5-5.5,4-3.5,2.5,1.5,2-.5,1-1,3,.5,2-1,2.5,2,1.5-1,.5.5,2-1.5.5-2.5,1-.5,2,.5-.5,2,1.5,2-.5,1,2,.5,4,7.5h-2.5l-1,1,.5,1h-.5l-2-2-8-1.5v1l-2,.5-.5,1,1,.5,1.5-1,2.5.5-6.5,4-3.5-1.5-1,.5,1,1-.5.5-1.5-1-1.5,3.5-1.5-2.5-4.5,4-.5-1h-.5l-.5,1.5-1,.5-1,4-2-1,.5-2-1.5-1.5h-1l-2.5-3.5-2-1"/>
      <path data-code="zherdevskij_rajon" data-title="zherdevskij rajon" class="cls-1" d="M12.12,116.62l3-3,4.5,1,1-1v-1.5l1-1.5,5-1,1.5,2.5,2-2,1,1,2.5-3.5,1.5,2.5,1.5-.5,3.5,2-1,2,.5,5,2,1.5-.5,3,1.5,2,2,.5-1.5,5.5.5,2-4,2v1.5l-1.5.5-.5-1-.5,1.5-1-.5-3-3.5h-2.5l1-2-3-2v-2.5l-2-2v-2l-.5-1-.5-.5-1,2.5-4.5-5.5-.5.5-.5-.5-1.5,3.5-6.5-3.5,1-2"/>
      <path data-code="znamenskij_rajon__tambovskaja_oblast_" data-title="znamenskij_rajon_(tambovskaja_oblast&amp;apos;)" class="cls-1" d="M33.62,70.62l10.5,5.5,1.5,2.5,6.5-.5,3.5,3,3-2-.5,1.5-1.5,2,4,3h-3.5l-1,4-2-1.5-2,1.5,1,.5h-2l-2.5,2-1.5-2-2,2-1,3-1.5-2-3,1-1-1-5-2v-1.5l1-2-2.5-3,1-.5.5-1.5-1.5-3.86.5-2,1.5-2-2-1,1.5-3.14"/>
    </g>
</svg>