<svg data-code="RU-TVE" xmlns="http://www.w3.org/2000/svg" viewBox="0 0 295.25 176.25">
    <g data-code="tverskaja_oblast_" data-title="tverskaja_oblast&amp;apos;">
      <path data-code="andreapol_skij_rajon" data-title="andreapol&amp;apos;skij_rajon" class="cls-1" d="M51.13,18.12h2l1.5-1.5,2.5,2.5,2-1,3.5.5,1,1.5v-2.5l2-1,4-.5,1-1,.5,2h3.5v1.5l-1.5.5,1,1.5-.5.5v1.86l-1,1,.5.5-1,1,1,3.5,1.5.5-1.5,2h-1l.5,3-2.5,3,1,1.5-.5,1,1,.5v1l-.5-.5v1h-.5l1.5,3-1.5,1.5.5,1-1,1,3,1-.5.5,1,.5-.5,1h2v2.5l5,4.5-2,.5-1,.5.5,1.5-1.5.5.5,1.5,1-1,2,1.5-1,.5.5,1.5-1,1,1.5.5.5-1,2,1.5h-2l.5,2.14-1,1.86-1.5-1.36-1.5,1.86-9,.5,1-2-1-1,2-2.5-1,.5-1.5-1.5-2.5,1.5-1.5-1.5-1,1h-1.5l-2.5-3.36h-2l-1.5,1-.5-1,.5-2-1-1.5,1-1-1-1,1-1.5v-1l-1-1h-1v-1h.5v-2l-1.5.5-1.5-.5,1.5-.5,1-.5-.5-1.5.5-.5h-1.5v-.5h.5l-2.5-2.5v-3.5l-1-.5-1,1h-1l-.5-.5h1.5l-.5-1,.5-1.5h-1v-1l1.5-.5-.5-1h2l.5-1.5,1,.5-.5-.5,1-1,3,1-2-3.5,1-1-1-.5,1.5-1,1,1,.5-1,1-.5-1-1,1-1h-1.5l1-1-.5-.5h-2l.5-1.5-3.5-1,1-.5-1-.5,1-1-.5-1,1-1-.5-1"/>
      <path data-code="bel_skij_rajon" data-title="bel&amp;apos;skij_rajon" class="cls-1" d="M25.63,105.62l1-.5,1.5.86,2-2.5-1.5.5.5-2,3,1.5,2-3v-1l2,.5,2.5-1.5,2,.5,1-2.5,1-1,1.5.5-.5,1.5,1.5-.36,2,2.5,2.5-.5.5,2,1.5.86-1,2.5,2.5-.5v1l2-2,2,1.5-.5.5,1,1.5,1-.5-1-1v-1l-.5-1.5,2-.5,1,1,1.46-.65.54,1.79-1.5,1.5v.5l3,1.5,1.5,2.5-2.5,2.5,1,1.5-2,2.5h4.5l1,1.5-1,1,1,3.5,2.5,2.5v-1h1.5l-3,3-2-2-1.5,2-1-1-1.5,2.5-5.5-2-.5,1,.5,1-3-2.5v.5h-1l-.5,1-1.5-1.5,1.5.5-.5-1-2-1-3,2h-2.5v-3l-3-.5.5-1.5-1-1h-1.5l-1.5,1v-1l1-.5-2-1,.5-1.5-2.5-3.5-3.5-3.5-1.5.5-.5,1.5h-2l3.5-3.5-.5-1,.5-1.5-1.5,1-1-.5-2,2v-1h.5l1-2h-.5l-1.5,1v-1.5"/>
      <path data-code="bezheckij_rajon" data-title="bezheckij rajon" class="cls-1" d="M217.63,84.12l1-2h1v-1l2,.5v-4.5l1-.5,1-2,1.5.5,1-1.5v-2.5l4.5-2,.5.5,2-2.5-1.5-2.5,2,.5v-1.5l.5-1-.5-1,2.5-1-1.5-2,1.5.5.5-1,2.5-1,3,.5.5,1-2.5,2.5h1l.5,2,.5-1,.5,1.5-1.5.5,2,1-1,.5.5,1.5-1,.5.5,1.5-1,.5-.5,1h1l.5,1h2l2,2,1.5-.5v1l5-1-2,3,1,.5h-1l-.5,1-1,.5,1,2h1.5l-1,2,.5,1.5-4.5,1-2,2.5.5,1.5-1.5,1.5-.5,2.5-1.5,1-1.5-.5v1l-1.5,2,.5,6.5-3-.5v1l-1,.5-.5,1.5-3.5.5v1h-1l-1,2-3.5,1-1.72-.03.22-1.11-1.5.5v-3.5l-1.5-1.5-1,1-1.5-2.5-3,.5v-1l-1.5-2,1-.5-.5-2,.5-1,.5.5.5-2-1-.5v.5h-.5l-2.5-1.5,1-2-1-.5,1.5-1-1,.5-.5-.86h-1l1-1-1.09-1.44,1.09-1.56,5.5-1.5Z"/>
      <path data-code="bologovskij_rajon" data-title="bologovskij rajon" class="cls-1" d="M154.13,15.12l2,3h1.5v-2.5l-1.5.5-2-1M161.13,3.12l3-.5,1-.5-.5-1h.5l1,1.5,1-1h2.5l1-1,2,2v2l6,1.5.5-1.5h1.5l-.5,2.5h4v1.5h1.5v2l1.5,1.5.5,2.5h1.5l.5,3,1.5.5v1h-.5v1.5l.5,1.5h2l-.5,2.5-2.5-1-1-2.5h-1v2.5l-1,.5-.5,1-2,1-1.5,4-3.5.5v-1.5l-1.5-.5,1,5-1.5-1v-2.5l-3,2-1-1-.5,2.5-2.5-.5v.5l-1-1-1.5.5-1,2-1.5-1.5-1.5,1.5h-1.5l-.5,2.5h-1.5l-1.5,2.5-2.5-4.5-2-.5,1.5-1.5-1-.5,1.5-1,.5-1.5h-1v-2l-1.5-2,2.5-3,.5-2.5h-1.5l-1,1.5-.2-1.2-2.5-2.5.5-1.5-1.3-1.3v-.5l1.5.5-.5-1,.5-.5h2l1,1,2.5-.5,2-3.5h1v-1h1l.5-1-1.5-1.5,1-2h-2l.5-3M149.63,18.12l1.5,1-.5,2h2v2h-1.5v1.5l-1.5-1.5-2-.5v-.5l2-1-1-2,1-1"/>
      <path data-code="firovskij_rajon" data-title="firovskij rajon" class="cls-1" d="M130.13,24.62l2.5,1,1-1,.5-1,.5.5,1-1,.5-2,1-1,1.5.5,4-.5.5,2,1.5-.5v-1l1.5-.5,1,2-1.5,1.5,2.5,6,3.5,1,3-4,1.5,2v2h1l-.5,1.5-1.5,1,1,.5-1.5,1.5,2,.5,1.5,2-1,1.36-2.5-.5-4,.5-2,2,1,5.5-1.5.5-2.5,3.5-3-1.5v1l-2,1,1.5,1-2,1v.5l-1-.5-.5,1.5h-.5l1,2h-1l2.5,1.5-1.5.5-.5,1.64-3.5-.5v-2.5l-.5-1h1.5v2.5l.5-1,1-.5.5-1-3-2.5-1.5.5-.5-3-1.5,1-.5-1.5-.5,2v-2h-3l-.5.86-3-1.5,4.5-1.5h-1l.5-2,1.5.5.5-2h.5v-.5l2,.5-1-1.5,1-1.5,1-.5-2-2v-3l-.5.5-4-3-1-2.36,2-2-.5-1.5,2.5-3.5"/>
      <path data-code="gorodskoj_okrug_kimry" data-title="gorodskoj okrug kimry" class="cls-1" d="M216.63,146.62l1-.5,3.5,4.5-.5.5v1l-1.5,1,.5,1-1.5-.5-2.5,1,1-1.5v-1h1l-.5-1,1-.5-1.5-4"/>
      <path data-code="gorodskoj_okrug_torzhok" data-title="gorodskoj okrug torzhok" class="cls-1" d="M156.63,87.49l1.5,1,1-1,1.5.5-.5,3-1,.5-.5,1.5-2,.5.5-1.5-2.5-2,.5-2,1.5-.5Z"/>
      <path data-code="gorodskoj_okrug_tver_" data-title="gorodskoj_okrug_tver&amp;apos;" class="cls-1" d="M182.63,121.12h.5v.5h-1l.5-.5M170.13,118.12l3,.5,1.5-1v-1.5h2l1,2,.5-1.5,1.5-.5-1.5,3.5,1-1,.5,1.5v3.5l-2,1.5.5,2.5-1.5-.5-.5-2.5-2.5-.5.5-2-1.5-2-2.5-.5v-1.5"/>
      <path data-code="kalininskij_rajon__tverskaja_oblast_" data-title="kalininskij_rajon_(tverskaja_oblast&amp;apos;)" class="cls-1" d="M182.63,121.12l-.5.5h1v-.5h-.5M170.13,118.12v1.5l2.5.5,1.5,2-.5,2,2.5.5.5,2.5,1.5.5-.5-2.5,2-1.5v-3.5l-.5-1.5-1,1,1.5-3.5-1.5.5-.5,1.5-1-2h-2v1.5l-1.5,1-3-.5M160.63,104.99l2-1,1.5,1,1.5-.5-1-1,2-.5.5-1.5h1l-.5-1.86h.5l2,2.5-.5,2,1,.5,1,.5,1-1,2.5,1v-1l.5.5,1-1,2.5,1.5,2-2,2.5-.5.5,2.5,2.5,1v3l2.5,2.36,1-.86,2,5,5,3.86-3.5,4,4,3,1-1,1,1.14,4,.5,3.5,2.5-1,3-1-.5-2,2,1.58,2.87-2.58-2.87-3.5,2-.5-.5.5,1-1,.5-3-1-2.5,2h-4.5l-1,.5.5,1-1,1.5-1,.5v-1.5h-2l-.5-1,.5-2,2.5-1-.5-2.5-2-1-.5,1,1,1-2,.5-2.5-1.5-3.5,3.5-1-2-1.5,2-1-.5-1.5,2v1l2-1,.5,1-2.5,2v2.5l-1.5,2.5-1-.5v1l-1,.5-2.5-1-4,1-.5-.5-1,2.5-1.5-.5-2.5-2-.5-1.5h1l-1-1.5-2.5-1,.5-1.5-.5-1.5,1-1-.5-1.5-1-.5.5-1-2.5-1-2,1-1-1,.5-.5-.5-1-1.5-.5.5-.5.5-1.14-1.5-.5v-1.5l2-.5v-.5l1-1h1.5v-.5h1.5l.5,1,1-1.5,2.5,1,1-.5v-1.36l-.5,1.36h-1l.5-2-2-2.5,1-1-2-.5.5-1-.5-2,4.5-1,1,1.5.5-2.5-1,.5,1-4.5-1-1-2-.5v-2h1l.5-1.5,2-.5-1-1,.5-.5.5-2,2.5,2Z"/>
      <path data-code="kaljazinskij_rajon" data-title="kaljazinskij rajon" class="cls-1" d="M234.63,144.12l7.5-5.5,2,.5,1-2,3-1.5,1,3.5,1.5-1,4.5.5,3.5-1,1.5,3,2.5-.5,3,1.5,1,1-1.5,3.5-2.5,2.5-6-1.5-2,3.5,1,1.5-1.5,2.5.5,1.5-.5,1h-2l1.5,1-1.5,2-1.5.5-.5,1.5-1,.5-2-1.5-1,1-.5-.5,1.5,2.5-1.5.5-1,2-3.5-.5-1,1.5,1,1.5h-2v1h2v1.5l1.5.5-2,3.5-2-2.5-4-.5.5-1.5-1.5-1,3.5-5.5-1-1h.5l.5-1.5-2.5-.5.5-2-1.5-1.5.5-1.5-1-1,1-1-.5-.5,1-1.5-.5-1,2-3v-3l-1.5-1.5"/>
      <path data-code="kashinskij_rajon" data-title="kashinskij rajon" class="cls-1" d="M223.63,110.99l.28-1.39,1.22-.47h3.5l2.5,3,1-1h1l2.5,2.5,5,.5,1.5,1.5,1.5-.5.5,1.5,4,.5,1.5,1.5v-1h1l1,1.5,1.5-1,3,1-1-2.5,1.5,1v-1.5h2.5l3.5,3.79-2,2.21-.5,1-2.5,1,.5,3-2.5.5,1,1-1,3.5,1.5,5.5-1,1-5.5-.5-1.5,1-1-3.5-3,1.5-1,2-2-.5-5.5,4-1.5-5.5-2.5.5.5-4,2-1v-.5l-2.5-1-4.5,1-2-1.5h-2.5l2-1.5-1.5-1.5,1-1-.5-2,1-1h1l1-3-2-2.5.5-1.5-5.1-3.53.6-2.11h2Z"/>
      <path data-code="kesovogorskij_rajon" data-title="kesovogorskij rajon" class="cls-1" d="M227.13,109.12l2-.5,1-2h1v-1l3.5-.5.5-1.5,1-.5v-1l3,.5-.09-1.17.59.54,1,.5-.5-2.5,3.5-.5v2.14l3.5,1,3.5-1,1,1.36,1,4.64h.5l1-2.5,1.5-.14.5,2-1,2,1.5,1.64,2.5-1.14.5-1.86,1.5,1v2l-1.5,1,1.5,1.5v3.5l2,1-1,2-3-3.5h-2.5v1.5l-1.5-1,1,2.5-3-1-1.5,1-1-1.5h-1v1h-.5l-1-1.5-4-.5-.5-1.5-1.5.5-1.5-1.5-5-.5-2.5-2.5h-1l-1,1-2.5-3h-1.5"/>
      <path data-code="kimrskij_rajon" data-title="kimrskij rajon" class="cls-1" d="M216.63,146.62l1.5,4-1,.5.5,1h-1v1l-1,1.5,2.5-1,1.5.5-.5-1,1.5-1v-1l.5-.5-3.5-4.5-1,.5M210.13,117.49h3.5l1-1,4-.5,2-1.5.4-1.39,5.6,3.53-1,1.5,2,2.5-1,3h-1l-.5,1v2l-1,1,1.5,1.5-2,1.5h2.5l2,1.5,4.5-1,2.5,1v.5l-2,1-.5,4,2.5-.5,1.5,5.5-2,1.5,1.5,1.5v3l-2,3,.5,1-1,1.5-1-1-1.5.5-.5-1h-2.5l-.5.5-2-.5-1,.5.5,2.5-.5-.5-1,1.5-5,2v-1.5l-3.5-1-1,.5-1-2-2.5,1,.5-1.5,1-1-1.5.5-3.5-2-1.5-1.5-.5-7,1.5-4-1.92-2.13-1.58-2.87,2-2,1,.5,1-3-2.5-1.14,2.5-3.5h1l1-1.5-1-1h2v-1.5l-1.5-1,1.5-2.5"/>
      <path data-code="konakovskij_rajon" data-title="konakovskij rajon" class="cls-1" d="M160.13,147.12l.5.5,4-1,2.5,1,1-.5v-1l1,.5,1.5-2.5v-2.5l2.5-2-.5-1-2,1v-1l1.5-2,1,.5,1.5-2,1,2,3.5-3.5,2.5,1.5,2-.5-1-1,.5-1,2,1,.5,2.5-2.5,1-.5,2,.5,1h2v1.5l1-.5,1-1.5-.5-1,1-.5h4.5l2.5-2,3,1,1-.5-.5-1,.5.5,3.5-2,4.5,5-1.5,4,.5,7,2.1.93-.6.57-1-.5.5,6-2.5.5v1.5l-1.5-.5-.5,2-1,.5v1.5l-3,1.5-.5-1-1.5,1-1.5-3,.5-1-3.5-5.5-.5,1.5h-.5l-6.5-.5v2l-1-2.5-1.5.5-2-1-1,1.5-3-2.5-5-1-2,1-5-2.5-1.5.5-2,2.5-1-1,1.5-1-1.5-2.5,1-2.5"/>
      <path data-code="krasnokholmskij_rajon" data-title="krasnokholmskij rajon" class="cls-1" d="M259.13,72.12l.15.43-.15.07.5,1-.35-1.07.85-.43.5-1.5,1-.5,1-1.5,1.5-1.5,2,1v-1.5l1-1,1.71-2.99,4.28,4.35,1.5-1v-1h1l-1-1,1.5-2,2.5,3h1.5l-.5.5.5,2-.5,2.14.5,1.5-1,1.5-2-1-.5,1.5-2-.5-.5,1h1.5l-1,2,1.5,3.5h1.5l-.5,1.5,1.5,1.5-1,1.5,1,1-1,.5.5,3,1.5,1h-1v.5l-2-.5-1-1.5-.5.5-3.5-.5-1,1-.5,2.5-2-.5v1l-2.5-4-5-2,.5,1.5-3,1.5-1,1.5-1.5.5-1-2h-3l-1-1.5.5-2-1.62-1.14,1.62-.36-.5-1.5,1-2h-1.5l-1-2,1-.5.5-1h1l-1-.5,2-3,.5-1.5,1-.5,5,1Z"/>
      <path data-code="kuvshinovskij_rajon" data-title="kuvshinovskij rajon" class="cls-1" d="M127.63,50.62h3v2l.5-2,.5,1.5,1.5-1,.5,3,1.5-.5,3,2.5-.5,1-1,.5-.5,1v-2.5h-1.5l.5,1v2.5l3.5.5.5-1.64,1,.5-.5,1,3.5,2.5-1.5.5,5,1-.5,2,2.5-.5.5-1h1l.4,2.79-1.4.35v1l-1,1,1,2.36-1,1.5h-1.5l-.5,2h-1.5l-.5,3,1,.5-.5,1.5,1,2-1,1-1-.5-.5,2.5-2,2.5,2,1-.5,1h-2.5l-4-2.5h-2.5l-2.5,1v-1.36h-2.5l-.5-4-2-.5-6-4-.5,2.36-1-1,.5-1.5h.5l-1-2h1.5v-1.5l2.5-2.5-.5-1.5,1.5-2-1-1,3-1-5-3,1.5-2.5,2.5-1v-1.5l1.5-1,1.5.5.5-1-1-6,.5-.86"/>
      <path data-code="lesnoj_rajon" data-title="lesnoj rajon" class="cls-1" d="M212.63,27.62h6l1-2.5,3-2-.5-1.5,1-.5,3,.5,3.5,3,.5-1.5,1,1,1.5-1,4,2,1.5,3.5h2l-2.5,2.5,1,2.5-1,2,1.5,2v1.5l-1,.5.5.5-1,1v2l3,2.5-1,1-.5,1.5,1,.5-2.5,2.5-3-.5-1.5-2-1,1-1.5-.5-4,.5-2.5-1.5-5.5,2-1.5-3,.5-2.5-1.5-.5-.5-1h1.5l-2-.5.5-1-1.5-.5-2-3.5-2-1,1-1,1,1,.5-1,.5-.5-1.5-5.5,1-2"/>
      <path data-code="likhoslavl_skij_rajon" data-title="likhoslavl&amp;apos;skij_rajon" class="cls-1" d="M174.13,76.49l.5,4.5,1,1,.38-.67-.88-1.33,1-.5v1.5l2-1v-1h.5l.5.5-.5,1,2.38,1.9,1.12-.4.5-1.86,1,.86-.5-1.5.5-1.36,1.5.36,1-.86h1.5l.5-1,.5,1.36,1.5-1.5,4.5.14,1-1.5.5.5,2-1.5.5,1.86,3.5.64-1,1,2.5,1.5-.5,1h-1l.5,1-1,1,2.5,2-.5,2h-1.5v.5h-1l2,3-1,1h-3l-.5.5-2-1.5-.5,1.5-.5-.5v.5l-1,.5v-1l-1.5,1-.5.5.5,1-.5.5-1-.5v1.5l-1.5-1.5-.5,3.5-1,.5.5,3v.5l-1-.5-1,1v3.5l-1.5-2-.5.5-.5.5-1-1-1.5,1-1-.5-2,2-2.5-1.5-1,1-.5-.5v1l-2.5-1-1,1-1-.5-1-.5.5-2-2-2.5.5-1-1.5-.5.5-3.64,1.5-.5v-2l1-.5-.5-2,2-1,.53-2.18.47-.32,1-1.5-1-1,1-.5v-2.5h-2l.5-.5,1.5-1v-2l.5-.5Z"/>
      <path data-code="maksatikhinskij_rajon" data-title="maksatikhinskij rajon" class="cls-1" d="M214.13,41.12l1.5.5-.5,1,2,.5h-1.5l.5,1,1.5.5-.5,2.5,1.5,3,5.5-2,2.5,1.5,4-.5,1.5.5,1-1,1.5,2,6,1-1,1h-1l.5,4.5-2.5,1-.5,1-1.5-.5,1.5,2-2.5,1,.5,1-.5,1v1.5l-2-.5,1.5,2.5-2,2.5-.5-.5-4.5,2v2.5l-1,1.5-1.5-.5-1,2-1,.5v4.5l-2-.5v1h-1l-1,2-5.5,1.5-1.09,1.56-.91-1.06-.5,1.5-2-1.5-1,1-1-1-1,1-1-1,.5-2-2.5-2,1-1-.5-1h1l.5-1-2.5-1.5,1-1-.76-.47,1.26-1.17-4-3.86,1-1,1,.5.5-2h1.5l-.5-1,1.5-1-3-2.5-.5,1-1,.5v-1.5h-1l-3-3,1.5-2,2.5,2,1.5-2.5,1.5-1v-.5l4-1,.5-2,1-1-.5-1,1.5-1.5,1.5,1.5,2-1.5.5-1.64,1.5-1.5-2.5-4.5h.5l-1.5-1,1.5-4.36,2,3.5Z"/>
      <path data-code="molokovskij_rajon" data-title="molokovskij rajon" class="cls-1" d="M238.63,52.62l1.5.86v-1.5l2,.5-1.5,1,1.5,2.5v-1l-.5-1,.5-1,2-.5.5-1-1.5.5-.5-1,2-1,1.5.5v-1l2,1.5v1.5h.5v-1.5l2.5,1,.5.5-1,1.5,4,2.5v1l4,.5,1.5-2,2-.5,1,4,1.5-1,1,1,.5-2h1l1.72,5.15-1.71,2.99-1,1v1.5l-2-1-1.5,1.5-1,1.5-1,.5-.5,1.5-1,.5.5,1-.5-1.5-5-1-1,.5-.5,1.5-3,1.5-2-.5v-1l-1.5.5-2-2h-2l-.5-1h-1l.5-1,1-.5-.5-1.5,1-.5-.5-1.5,1-.5-2-1,1.5-.5-.5-1.5-.5,1-.5-2h-1l2.5-2.5-.5-1-3-.5-.5-4.5"/>
      <path data-code="neldata-codeovskij_rajon" data-title="neldata-codeovskij rajon" class="cls-1" d="M42.62,77.99l3-1,2-2.5,1.5-1h1.5l.5-1.5h-1v-1.5l2.5-.5.5,1.5,1,.5-1-1.5h2l-.5-1.5,1-.5,2.5-4.86,2.5,3.36h1.5l1-1,1.5,1.5,2.5-1.5,1.5,1.5,1-.5-2,2.5,1,1-1,2,9-.5,1.5-2,1.5,1.5,1,2.5-.5,1,1-.5,1,2.5h-.5l2.5,1,1,4.5-3.5,1,.5.5-2.5-2-1.5,1-1.5-2.5-2.5,3,.5,1-1.5.5v1l1.5,1.5.5,2.5-3.5,2.5h-1.5v1h-1.5l-.5,3-3-.5-.5,2,1.5.5-1,1v.5h-1l-.5.5,1,.5-4.5,2-1-1-2,.5.5,1.5h1.5l-1.5,1,1,1-1,.5-1-1.5.5-.5-2-1.5-2,2v-1l-2.5.5,1-2.5-1.5-.5-.5-2-3,.5-1.5-2.5h-1.5l.5-1.5-1.5-.5-.5-1,2-.5,1-2v-4h1l-2-2.5.5-2.5-2,2-1-.5h.5l1.5-1-2.5-2.5,2-2-.5-1"/>
      <path data-code="oleninskij_rajon" data-title="oleninskij rajon" class="cls-1" d="M74.12,83.49l2.5-3,1.5,2.5,1.5-1,2.5,2-.5-.5,3.5.5v1.5l1.5-.5,2.5.5,1-1h.5v1h1l-.5,2,2,1.5-.5,1,1,.5,1-1.5,1,.5.5-.5,1.1.8-1.6,1.2,1.5,3.5-.5,4-2,.5-.5-.5-.5,5.5v.5l-1.5,1,.5,1.5-1,1.5.5,1-.5-.5-1.5,1-.5,2-2,1.5,1.5,1.5-1,1.5,1,.5-2.5,1-1,1.5.5,2-2.5-1-2,2.5-2-1.5.5,1h-1l-.5,1.5h-1l.5,1-1.5,1-1-.5.5-.5-.5-1.5-2.5-2.5-1.5,1.5,1,1-1.5.5v1l-1.5-.5v1l-2.5-2.86-1-3.5,1-1-.5-.64-5-.86,2-2.5-1-1.5,2.5-2.5-1.5-2.5-3-1.5v-.5l1.5-1.5-.54-1.79,3.04-1.35-1-.5.5-.5h1v-.5l1-1-1.5-.5.5-2,3,.5.5-3h1.5v-1h1.5l3.5-2.5-.5-2.5-1.5-1.5v-1l1.5-.5-.5-1"/>
      <path data-code="ostashkovskij_rajon" data-title="ostashkovskij rajon" class="cls-1" d="M110.12,38.99l.5,1.5,1.5-.5-1.5-1h-.5M92.62,22.99l2-1.5,3.5,1,3.5-1,.5-1,.5,2h2l1.5-.5v-1l1,.5,1-1,1-1,.5,1,1.5-1.5,2,1,1.5-1,2.5,4,1.5-.5v1.5l1,.5.5,2.5,1.5-.5,1-1,1.5,1,1,2-1.5.5.5,2.5,2.5,1,.5,1.5,4,3,.5-.5v3l2,2-1,.5-1,1.5,1,1.5-2-.5v.5h-.5l-.5,2-1.5-.5-.5,2h1l-4.5,1.5,3,1.5,1,6-.5,1-1.5-.5-1.5,1v1.5l-1.5,1-1.5-1.5-.5,1.5-3,.5v-1h1.5v-1l-1.5-2.5-2,1.5-2.5-1.5h-3l-1.5-1.5-1.5,2.5-4-1.5-.5-1.5,1.5-.5v-.5l-2,.5-1-1.5v1.5l-1,.5-3-2.5-3,3-1.5-.5-3-5,1-1.5,2.5-2,4.5-.5v-1.5l1.5-1-2.5-2.5v-4l-2.5-.5,1.5-.5-1-1,.5-1h1l-1.5-1.5-1.5.5-.5-2,3-2.5-1-.5.5-.5,1-.5v-1l-2-.5-2-3"/>
      <path data-code="ozjornyj" class="cls-1" d="M149.43,19.92l.2,1.2-.82.41.11-1.11.5-.5ZM151.43,15.92h1.5v1.5l-.5,1.5,2.5,2.5.2,1.2,1-1.5h1.5l-.5,2.5-5.5,7-3.5-1-2.5-6,1.3-1.7,2.7,1.2,1.3,1.3.2-1.3h1.5v-2h-2l.8-5.2M156.13,15.62l1.5-.5v3h-1.5l-2.35-3.5,2.35,1Z"/>
      <path data-code="penovskij_rajon" data-title="penovskij rajon" class="cls-1" d="M74.12,19.99l3,.5,2.5-1.5,2,1,1-1h1l3.5,2.5,1.5-.5v-1.5l1.5-1h1l1.46,4.09,2.04,3.41,2,.5v1l-1,.5-.5.5,1,.5-3,2.5.5,2,1.5-.5,1.5,1.5h-1l-.5,1,1,1-1.5.5,2.5.5v4l2.5,2.5-1.5,1v1.5l-4.5.5-2.5,2-1,1.5,3,5-2.5,4-1-.5.5,1-.5,1h-1l-3,3-1.5-1-.5,1.5-1,.5-.5,2.5-2-1.5-.5,1-1.5-.5,1-1-.5-1.5,1-.5-2-1.5-1,1-.5-1.5,1.5-.5-.5-1.5,1-.5,2-.5-5-4.5v-2.5h-2l.5-1-1-.5.5-.5-3-1,1-1-.5-1,1.5-1.5-1.5-3h1-.5v-1l.5.5v-1l-1-.5.5-1-1-1.5,2.5-3-.5-3h1l1.5-2-1.5-.5-1-3.5,1-1-.5-.5,1-1v-2l.5-.5v-.5"/>
      <path data-code="rameshkovskij_rajon" data-title="rameshkovskij rajon" class="cls-1" d="M184.63,103.62l1-1,1.5,2v-3.5l1-1,1,.5-.5-3.5,1-.5.5-3.5,1.5,1.36v-1.36l1,.5.5-.5-.5-1,.5-.5,1.5-1v1l1-.5v-.64l.5.64.5-1.64,2,1.64.5-.64,3,.14,1-1-2-3h1v-.5h1.5l1,1,1-1,1,1,1-1,2,1.36.5-1.5,2,2.64-1,1h1l.5.86,1-.5-1.5,1,1,.5-1,2,2.5,1.5h.5v-.5l1,.5-.5,2-.5-.5-.5,1,.5,2-1,.5,1.5,2v1l3-.5,1.5,2.5,1-1,1.5,1.5v3.5l1.5-.5-.5,2.5h-2l-1,3.5-2,1.5-4,.5-1,1h-3.5l-1.5,2.5,1.5,1v1.5h-2l1,1-1,1.5h-1l-2.5,3.5-5-1.5-1-1.5-1,1-4-3,3.5-4-5.5-4-1.5-4.5-1,.5-3-2v-3l-2-1-.5-2.86,1,1Z"/>
      <path data-code="rzhev" class="cls-1" d="M104.12,117.99l2-1,3,1.5-1,2,1.5,1.5-3,.5-3-1.5-1-1,2-1-.5-1"/>
      <path data-code="rzhevskij_rajon" data-title="rzhevskij rajon" class="cls-1" d="M104.12,117.99l.5,1-2,1,1,1,3,1.5,3-.5-1.5-1.5,1-2-3-1.5-2,1M95.62,90.99l1.6-1.2.9.7,1-1.5.5,1,.5-1.5,1.5-.5v1h2l3.5,2,.5-1,1.5-.5.5-1,4,1.5-1,1.5,1,2,1.5-1,2,.5.5,2-1.5,5,2.5,1.5-.5,1,1,1.5-.5,1h1l-.5,1,1.5,1-1.5,2,1.5,2,2-1-1,.5v1.5h-.5l-1.5,3.5,1.5,2-.5,3,1,.5-.5.5,3,1.5-2,.5-1.5,3,2,1v1h-2l.5,1-.5,1.5-1.5.5-.5-1.5h-1.5v-1h1v-1l1-2-3-2.5-4-.5-2.5.5v1l-4,2-1.5-1h-1v1l-1-.5-.5,1-1.5.5-1-.5-1,2.5h.5l-2,2v2.5l-2.5.5-1.5-7.5-2-.5-2,.5-1-2.5-1.5-.5-1-2,1-1-.5-1.5,1-1.5,2.5-1-1-.5,1-1.5-1.5-1.5,2-1.5.5-2,1.5-1,.5.5-.5-1,1-1.5-.5-1.5,1.5-1,.5-6,.5.5,2-.5.5-4-1.5-3.5"/>
      <path data-code="sandovskij_rajon" data-title="sandovskij rajon" class="cls-1" d="M238.13,29.99l2,.5.5,1-.5.5,1,.5h1.5l.5,1.5,1-1-1-.5,2-1,2,2,.5-1h3.5l3.5,3,1-1,1.5,5,.5-1,2-1,1,1.5,1.5-.5.5,1.5,3-1.5v-2l2-.5,1.5,1,.5,2-.5,1,2,1-1.5,1.5-1,.5,2,.5-.5,1.5,2,.5-.5,1-3,1.5v.5h-.5v.5l-.5.5,1,1-1,.5,1,1-1,.5-.5,1,.5,2.5-1.5,1.5-.5,2-1-1-1.5,1-1-4-2,.5-1.5,2-4-.5v-1l-4-2.5,1-1.5-.5-.5-2.5-1v1.5h-.5v-1.5l-2-1.5v1l-1.5-.5-2,1,.5,1,1.5-.5-.5,1-2,.5-.5,1,.5,1v1l-.5-.5-1-2,1.5-1-2-.5v1.5l-1.5-.86h1l.6-1.07-2.6-.43,2.5-2.5-1-.5.5-1.5,1-1-3-2.5v-2l1-1-.5-.5,1-.5v-1.5l-1.5-2,1-2-1-2.5.5-1.14"/>
      <path data-code="selizharovskij_rajon" data-title="selizharovskij rajon" class="cls-1" d="M80.12,67.49h2l.5-2.5,1-.5.5-1.5,1.5,1,3-3h1l.5-1-.5-1,1,.5,2.5-4,1.5.5,3-3,3,2.5,1-.5v-1.5l1,1.5,2-.5v.5l-1.5.5.5,1.5,4,1.5,1.5-2.5,1.5,1.5h3l2.5,1.5,2-1.5,1.5,2.5v1h-1.5v1l3-.5.5-1.5,1.5.5v1h-1l-1.5,2.5,5,2.5v.5l-3,1,1,1-1.5,2,.5,1.5-2.5,2.5v1.5h-1.5l1,2h-.5l-.5,1.5,1,1-1,1,.5.5-3,3,1,1h-1l-.5,1-1-1v1h-.5l-1.5-1-.5,1,1.5,2.5-4-1.5-.5,1-1.5.5-.5,1-3.5-2h-2v-1l-1.5.5-.5,1.5-.5-1-1,1.5-2-1.5-.5.5-1-.5-1,1.5-1-.5.5-1-2-1.5.5-2h-1v-1h-.5l-1,1-2.5-.5-1.5.5v-1.5l-3.5-.5,3.5-1-1-4.5-2.5-1h.5l-1-2.5-1,.5.5-1-1-2.5,1-2-.5-2"/>
      <path data-code="solnechnyj__tverskaja_oblast_" data-title="solnechnyj_(tverskaja_oblast&amp;apos;)" class="cls-1" d="M110.12,38.99h.5l1.5,1-1.5.5-.5-1.5"/>
      <path data-code="sonkovskij_rajon" data-title="sonkovskij rajon" class="cls-1" d="M241.63,93.62l1.5-1.14.5-2.36,1.5-1.64-.5-1.36,2-2.5,2.88-.64,1.62,1-.38,2.31.88,1.33h3l1,2,1.5-.5,1-1.5,3-1.5-.5-1.5,5,2-1,1.36-1,1,1,1.5-1,1.5,1,2h1-1l-1-2-1.5.5-.5-1-1.5.5,2,3-2.5.5-1,1,3,3-1,.5v1.5l1,2-1,1.5,1,4-1,.5.5-1.5-1.5-1-.5,1.5-2.5,1.5-1.5-2,1-2-.5-2-1.5.5-1,2.5h-1l-.5-5-1-1-3.5,1-3.5-1v-2.5l-3.5.5.5,2.5-1-.5-.59-.54-.41-5.33,1.5-2v-1.14l1.5.64Z"/>
      <path data-code="spirovskij_rajon" data-title="spirovskij rajon" class="cls-1" d="M165.63,68.99l3.5-1.5.5-1.5,1,.5v-2l6-.5,1.5-1.5,1.5.5,3-3,1.5,1,2.5-1v2.5l3,.5v-1.5l1,2.5,1-.5v-.5l1,.5-2,1v.5l1-.5,2,1v-1l2.5.5,1.69-1.18.31.31h1v1.5l1-.5.5-1.14,3,2.64-1.5,1,.5,1h-1.5l-.5,2-1-.5-1,1,3.5,3.36.5.5-1.26,1.17.76.47-3.5-.64-.5-1.5-2,1.5-.5-.5-1,1.5-4.5-.5-1.5,1.5-.5-1-.5,1h-1.5l-1,.5h-1.5l-.5,1,.5,1.5-1-.5-.5,1.5-1,.5-2.5-2,.5-1-.5-.5h-.5v1l-1,.5-1,.5v-1.5l-1,.5,1,1.5-.5.5-1-1-.5-4.5-.5.5v2l-1.5,1-.5.5h2v2.5l-1,.5,1,1-1,1.5-1.5,1-.5-2h-1.5l-.5-3,1-2v-3l-2-2-1.5-1-1.5.5.5-1.5-2,1-4.5-1,.5-1.5-1.5,1-.5-1,3-4.5,5.5,2Z"/>
      <path data-code="starickij_rajon" data-title="starickij rajon" class="cls-1" d="M114.12,87.49h.5v-1l1,1,.5-1h1l-1-1,3-3-.5-.5,1-1,.5-2.36,6,4,2,.5.5,4h2.5v3.36l-1,1-.5-1-1,2,3,1.5-.5,1.5-1.5,2,.5,1.5h1.5l1,2,1-1,2,1v.5h-1l1.5,1.5h.5l1-2.5,2,.5-1.5.5v2h-.5v1l-1.5,1,.5,1-.5,1.5,1.5,1.5-1.5.5v4l5,1,1.5-1h4.5v-1l5.5,2h3l1,1.5,1-.5-.5,2.5-1-1.5-4.5,1,.5,2-.5,1,2,.5-1,1,2,2.5-.5,2h1l.5-1.5v1.5l-1,.5-2.5-1-1,1.5-.5-1h-2.5,1v.5h-1.5l-1,1v.5l-2,.5v1.5l1.5.5-.5,1.5h-.5l.5,2h-1.5l-1.5,2,1,1h2v1l-2.5.5.5.5-.5-.5-1.5,1.5v.5l-.5.5h-.5l-2-3.5-2,.5-1-.5v-3l-4.5,1,.5-1-1-1,1.5-1.5-1-1-3,.5-2.5-.5-.5,1-1-3.5-2.5-1h1v-1l-2-1,1.5-3,2-.5-3-1.5.5-.5-1-.5.5-3-1.5-2,1.5-3.5h.5v-1.5l1-.5-2,1-1.5-2,1.5-2-1.5-1,.5-1h-1l.5-1-1-1.5.5-1-2.5-1.5,1.5-5-.5-2-2-.5-1.5,1-1-2,1-1.5-1.5-2.5.5-1,1.5,1Z"/>
      <path data-code="toropeckij_rajon" data-title="toropeckij rajon" class="cls-1" d="M27.62,11.49l3-1.5,2,1.5.5-1.5,1.5-.5v-1l1.5-1h1l-1,1,.5,1,2-.5-.5-1h2l3-3h1l1,.5-1,2v2.5l7.5,4-1.5.5,2.09,4.04-1.59,1.59.5,1-1,1,1,.5-1,.5,3.5,1-.5,1.5h2l.5.5-1,1h1.5l-1,1,1,1-1,.5-.5,1-1-1-1.5,1,1,.5-1,1,2,3.5-3-1-1,1,.5.5-1-.5-.5,1.5-1.97.07.47.93-1.5.5v1h1l-.47,1.55.47.95h-1.5l.5.5h1l1-1,1,.5v3.5l2.5,2.5h-.5v.5h1.5l-.5.5.5,1.5-1,.5-1.5.5,1.5.5,1.5-.5v2h-.5v1h1l1,1v1l-.95,1.55-2.55,1.32-2,1.5-1.5.5-1.5-.5-2.5,1.5-2.5-2.5,1-1-3-1v-1.5l-1,1-1-2.5-2-1-.5,1-6-2.5-1,.5-4-3,.5-1.5-3-3.5,3.5-4-.5-1,.5-.5-3.5-8,1.5-.5-.5-.5,1-1,.5,1,1-1.5,2-1,2.5-2.5,1,.5.5-.5-.5-2-5-3,.5-4.5,1.5-.5-1-2.5,2,1,1-.5-1.5-2"/>
      <path data-code="torzhokskij_rajon" data-title="torzhokskij rajon" class="cls-1" d="M155.13,87.99l-.5,2,2.5,2-.5,1.5,2-.5.5-1.5,1-.5.5-3-1.5-.5-1,1-1.5-1-1.5.5M131.13,88.49l2.5-1h2.5l4,2.5h2.5l.5-1-2-1,2-2.5.5-2.5,1,.5,1-1-1-2,.5-1.5-1-.5.5-3h1.5l.5-2h1.5l1-1.5-1-2.36,1-1v-1l1.4-.35.1,1.71.5-1,2-.5,1,.5-.5,3,3.5.5.5,1,1.5-1-.5,1.5,4.5,1,2-1-.5,1.5,1.5-.5,1.5,1,2,2v3l-1,2,.5,3h1.5l.5,2,1.03-.68-.53,2.18-1,1h-1l.5,2-1,.5v2l-1.5.5-.5,3.64,1.5.5-.5,1h-.5l.5,1.86h-1l-.5,1.5-2,.5,1,1-1.5.5-1.5-1-2,1-2.5-2-.5,2-.5.5,1,1-2,.5-.5,1.5h-1v2l2,.5,1,1-1,4.5-1-1.5h-3l-5.5-2v1h-4.5l-1.5,1-5-1v-4l1.5-.5-1.5-1.5.5-1.5-.5-1,1.5-1-.5-1,1-.5-.5-.5.5-1,1.5-.5-2-.5-1,2.5h-.5l-1.5-1.5h1v-.5l-2-1-1,1-1-2h-1.5l-.5-1.5,1.5-2,.5-1.5-3-1.5,1-2,.5,1,1-1v-2"/>
      <path data-code="udomel_skij_rajon" data-title="udomel&amp;apos;skij_rajon" class="cls-1" d="M178.13,28.49l1.5.64v1.5l3.5-.64,1.5-3.86,2-1,.5-1,1-.5v-2.5l1.25.02,1.33,2.06,2,.17.42,3.11h2l2.5-2.5v-1l1.5-.5v-1l1-1-1-.5,5-.5.5,2.5,3.5,2.5,1,3.5h3.5l-1,1.64,1.5,5.5-.5.5-.5,1-1-1-.9,1.05,1.9.95-1.5,4.36,1.5,1h-.5l2.5,4.5-1.5,1.5-.5,1.64-2,1.5-1.5-1.5-1.5,1.5.5,1-1,1-.5,2-4,1v.5l-1.5,1-1.5,2.5-2.5-2-1.5,2,1.15,1.15-.65.72-3-1v-1l1-1-1.5-.5,1.5-1-1-1.5-.5,1-1-2,1-.5-2-.5-.5,1v-1.5l1-1-1-.5-.5-1.5h-3.5l1-2h-1.5l-1-2,2.5-.5v-2l-3.5-2.5,1-1v-.5l-3.5-2.5-.5-1,.5-1.5-1,.5-1.5-1,1-1.86-1-5.14"/>
      <path data-code="ves_egonskij_rajon" data-title="ves&amp;apos;egonskij_rajon" class="cls-1" d="M269.63,35.99l1,1,1.5-2,3-2,.5,1,1-1,3.5,1.5,1-.5.5-1v-3.5h1.5l2.5-.5,5,4,2.5-1,1.5,5-2.5,4,.5,1.5-1,1v2l-.5,1h2l-3,2,2,2-1,4.5,1.5,3.5-.5,2.5,1,2-.5,4.5-.5-1-1,1.5-1,.5-2.5-1.5-1.5,1.5-.5-2-1.5-.5h-1l-.5,1.5-1,.5-.5-1-1,.5-.5-2,.5-.5h-1.5l-2.5-3-1.5,2,1,1h-1v1l-1.5,1-4-3.5-2-6h-1l1.5-1.5-.5-2.5.5-1,1-.5-1-1,1-.5-1-1,.5-.5v-.5h.5v-.5l3-1.5.5-1-2-.5.5-1.5-2-.5,1-.5,1.5-1.5-2-1v-1h.5l-1-1.5,1-1.5"/>
      <path data-code="vyshnevolockij_rajon" data-title="vyshnevolockij rajon" class="cls-1" d="M168.13,47.99v2l-1,.5.5,1h-1l-1,2,4.5.5,1-1.5v-1h.5v-1.5l-1-.5-.5.5h-.5l-.5-2h-1M140.63,50.99l2-1v-1l3,1.5,2.5-3.5,1.5-.5-1-5.5,2-2,4-.5,2.5.5.77-1.09,1.24,2.22,1.5-2.64,1.5.14.5-2.64,1.5.14,1.5-1.64,1.5,1.5,1-1.86,1.5-.5,1,1v-.64l2.5.5.5-2.36,1,1,3-2v2.5l1.5,1-1,1.86,1.5,1,1-.5-.5,1.5.5,1,3.5,2.5v.5l-1,1,3.5,2.5v2l-2.5.5,1,2h1.5l-1,2h3.5l1,1-.5.5,1,.5-1,1v1.5l.5-1,2,.5-1,.5,1,2,.5-1,1,1.5-1.5,1,1.5.5-1,1v1l3,1,.65-.72,1.54,1.54-1.69,1.18-2.5-.5v1l-2-1-1,.5v-.5l2-1-1-.5v.5l-1,.5-1-2.5v1.5l-3-.5v-2.5l-2.5,1-1.5-1-3,3-1.5-.5-1.5,1.5-6,.5v2l-1-.5-.5,1.5-3.5,1.5-5.5-2-3,4.5h-.5l-3-.5.5-3-1-.5-2,.5-.5,1-.5-4.5h-1l-.5,1-2.5.5.5-2-5-1,1.5-.5-3.5-2.5.5-1-1-.5,1.5-.5-2.5-1.5h1l-1-2h.5l.5-1.5,1,.5v-.5l2-1-1.5-1"/>
      <path data-code="vyshnij_volochek" data-title="vyshnij volochek" class="cls-1" d="M168.13,47.99h1l.5,2h.5l.5-.5,1,.5v1.5h-.5v1l-1,1.5-4.5-.5,1-2h1l-.5-1,1-.5v-2"/>
      <path data-code="zapadnodvinskij_rajon" data-title="zapadnodvinskij rajon" class="cls-1" d="M7.12,68.99l1.5-1,6.5-.5,1.5-1.5v-2l1.5-1.5v-1.5h3l1-1.5-.5-1.5,2-3,2.5-1.5,1,.5,1.5-1.5,6,2.5.5-1,2,1,1,2.5,1-1,.5.5-.5,1,3,1-1,1,2.5,2.5,2.5-1.5,1.5.5,1.5-.5,2-1.5,2.5-1.36,1,1-1,1,1,1.5-.5,2,.5,1,1.5-1h2l-2.5,4.86-1,.5.5,1.5h-2l1,1.5-1-.5-.5-1.5-2.5.5v1.5h1l-.5,1.5-3,1-2,2.5-3,1-1.5,1-.5-1.5-1.5,1-1,3h-4l.5-1.5h-2.5l-3.5,4-1.5-1-2.5.5-3.5-.5-.5-2-.5,1.5-4.5,1.5-.5,1-1,.5-4-1-1,1-2,.5v.5l-2,1-.5-1,1-1h-2,.5l.5-.5-1.5.5-2.5-2,2-6,1.5-1,1-2.5,1.5-.5.5-2.5v-2"/>
      <path data-code="zharkovskij_rajon" data-title="zharkovskij rajon" class="cls-1" d="M7.12,85.99l2-.5,1-1,4,1,1-.5.5-1,4.5-1.5.5-1.5.5,2,3.5.5,2.5-.5,1.5,1,3.5-4h2.5l-.5,1.5h4l1-3,1.5-1,.5,1.5,1.5-1,.5,1-2,2,2.5,2.5-1.5,1h-.5l1,.5,2-2-.5,2.5,2,2v.5h-1v4l-1,2-2,.5.5,1-1,1-1,2.5-2-.5-2.5,1.5-2-.5v1l-2,3-3-1.5-.5,2,1.5-.5-2,2.5-3.5-2-1,1.5-1.5-1.5-1.5,1-1-3.5-.5-.5v1l-1.5.5-.5-2h-1v.5h-2.5v-.5l1.5-1.5,1.5,1,2-1-1-1v-1l1-.5-1.5,1,1-1.5.5-1.5-4-3.5.5-1-.5-.5-.5,1-3-1.5-1,.5-1,2-1,1-1.5-1,1-1-1.5-2.5v-1l1-.5v-.5"/>
      <path data-code="zubcovskij_rajon" data-title="zubcovskij rajon" class="cls-1" d="M99.12,126.99l1,.5,1.5-.5.5-1,1,.5v-1h1l1.5,1,4-2v-1l2.5-.5,4,.5,3,2.5-1,2v1l-1,1h1.5l.5,1.5,1.5-.5.5-1.5-.5-1h1l2.5,1,1,3.5.5-1,2.5.5,3-.5,1,1-1.5,1.5,1,1-.5,1,4.5-1v3l1,.5,2-.5,2,3v2.5h-1v1.5l-2,.5-1-1.5-4-1-.5,1,1,1.5-1,.5v.5l-2.5.5-1,.5v.5h-1l-.5.5.5,2.5-4,1.5-1-1-.5.5-1,.5h-1l-3.5,2-1-.5-.5-1,.5-2.5-4-1v-1.5l-1.5.5-1.5-1.5-1,1-.5-1.5,1-.5h-2l-.5-2-3.5,1v1h-1l-2.5-1.5h1v-1.5l-2-1,.5-2-1.5-4v-5l2-2h-.5l1-2.5"/>
    </g>
</svg>