<svg data-code="RU-SA" xmlns="http://www.w3.org/2000/svg" viewBox="0 0 1399.25 1724.86">
    <g data-code="respublika_sakha__jakutija_" data-title="respublika_sakha_(jakutija)">
      <path data-code="abyjskij_ulus" data-title="abyjskij ulus" class="cls-2" d="M901.63,714.87l-.5-2.5,1.5-3,2.5-1-1-1.5-.5-1,1-2.5-.5-1.5,1.5-1.5-.5-2,1.5-2v-3.5l-3-5.5,6.5-8.5v-1l-2-.5-6-5-2-2.5-4.5-4-1-3-1.5-.5-.5-.5-1-.5-1-1.5-1.5-.5.5-1.5-1.5-1-.5-1.5,5-8.5,2.5.5,1.5-2,1.5.5,4.5-4,2-1.5,2,.5,1-2h3.5l1.5-.5-1.5-2,.5-1.5-3-2-1.5-3.5-1.5-1.5-2.5-1.5-5-.5-1.5-2.5-2.5-1.5,1-1.5h3v-3.5l2-2h2.5l2-2.5,2.5-.5.5-1-.5-2,1-.5h2l1.5,1.5,1.5,1,1-1.5,2.5.5,2.5-1.5,3-4.5,1,.5,1-1,3.5-1.5,1,1.5,3-2.5,2.5,1v2.5l2,3.5,4-.5,2.5.5,6.5-5,1.5-4,2,1,1.5-1.5,1.5,1.5,2.5-1,3.5.5,3.5-3-3-3.5,1.5-2,2-1.5h6l2-2.5,5.5-2.5,3.5.5,3-2,2.5,1.5.5,1.5,3.5-2,1,1,7,1,6.5-3,2-2,3.5-1,8-11.5,2-5,2-1,4.5-1,3,.5,1.5-1.5-1.5-1.5v-3l3.5-1,.5-1-1.5-1.5.5-1.5,5-6h1l1.5-4,6.5-4.5,1.5,1.5,1.5,4.5,1,.5v5.5l1,1.5,3.5-1.5,1.5,2,1,2-1.5,3.5-4.5,5,1.5,1.5.5,1.5,1,.5.5,1.5.5,1.5-3,2.5v1.5l3.5.5-1,2,7,1,1.5,1.5,2-.5,4.5,1.5v3.5l1.5,1,.5,1-3,8-4,2.5-2,3-3,1-1.5,2.5-4,1-2-.5-6.5,4-1,2,.5,2,1.5.5.5,1.5,1.5,1,1,1.5,4,1.5,6,.5v4l1.5,1.5,1,8,3.5,2.5,3.5,2,4-2.5,2.5,2.5,8-4.5,1,1.5,4.5,2,1,2,1,2.5,2.5,2,1.5,3,2.5,2,.5,5-4,4.5v3l-2.5,4-3,2.5,1,2h3.5l4,3.5,2,8.5-1.5,6.5-3.5,3-2.5,4-4-.5-2.5-4-3.5,2.5h-1l-1.5-2.5-3.5.5-2.5,2,4.5,4.5,3.5.5,1,2.5,1.5,2.5,2.5,1.5,1.5,2-7.5,6-7,2.5-4-2.5-3-.5-2.5,1.5-5,4.5-4.5.5-.5,4.5-3,6.5-2,8.5v2l2.5,7v4l-1,5.5,2,5.5-1,2.5,1,2-1.5,2-2,1-.5,2-1.5-1.5-6-1-3,1-.5-1-5.5-2.5-2.5,2h-2.5l-2.5-2.5-1.5-.5-9,1.5-1-2.5-4.5,1-.5-1.5-4-3-3.5,1-3-2-2,1-3.5-4.5h-9l-7-2.5-3,1-4-1.5-17.5,11-5.5-1.5h-4.5l-6.5-3-2.5-2-.5-2-3.5-6-8.5-1.5-1.5-2-1.5-4.5-3.5-3.5-2-3v-6l-.5-2.5-3-.5-1-1.5-2-1-1-1.5-2-1-2.5-1.5"/>
      <path data-code="aldanskij_ulus" data-title="aldanskij ulus" class="cls-2" d="M657.13,1583.87v-2l-1-2-.5-2.5,4-1.5,1-.5-.5-2-3.5-5-4-10,1-8,2.5-1.5-.5-4.5,3-2.5-1-2-2.5-.5-2-1.5-8-2.5-2-2.5-.5-2.5.5-2-1.5-2.5,1-2-.5-7,3-1,.5-1-.5-1,3-7,6.5-5v-3l2.5-2v-2.5l1-1.5-1.5-4.5,2.5.5.5-2,3-1-.5-1,4-3,1,.5,1,2.5h.5l2.5-1,1-1.5,1.5-.5.5.5.5-1.5-.5-2.5,3.5-1v-1.5l-3-6,1-2h1.5l.5-1.5.5-.5-2-3.5v-1l4-2v-1.5l-2-2.5.5-1.5,1.5-1.5,6.5,1,6-1.5.5-5,1.5.5,4-3.5h2v-2.5l4-3-.5-2,2-1.5-.5-2.5-1-1.5v-3l5-4,6.5-3,2,2,2.5,1,3.5-1.5v-5l2-3.5-.5-3,3-1,3,1.5,3-6-1-3.5,1.5-3.5,3-.5,3.5,5,2,1,3.5-3.5,1-4,3.5-2-.5-9,1-1.5,1-3,3.5-3.5v-5h1l4,2.5,2.5-.5,6-9-1.5-4.5.5-5.5-1-2.5-5.5-7.5,12-4.5,5,.5,2,1.5,8.5-2,2.5,1.5,4.5,12,.5,4.5,2,5.5,6,5.5,1.5,3,2.5,2.5,2,4.5,2,3,1,4,3,3.5.5,2,2,4,7,3,1.5,1.5v1l3,3,8,4,1,1.5,3.5-1v-1.5l6-4,1.5-3,4,1,1.5,2h1.5l2.5-1v-2.5l1.5-2,2.5.5,1.5-1,1.5,1.5,3.5,1.5,5.5-2.5.5-1.5-.5-1.5,1.5-4.5,2.5-.5,1.5-2-1-5,1-2-.5-2,.5-3,2.5-2.5-1-3,4.5-4.5,2.5-.5,2.5,1.5,2.5-1,2.5,3.5,3,.5.5-1.5,4-1,.5,2v1l1.5,6.5,1.5,3v2.5l4.5,8,.5,2.5-.5,1.5,1.5,3,2.5,3.5,3,1.5.5,2,2,2,2,5,3,2,1,2.5,3,.5,1.5-1-.5-2,3-1,4,2.5,2-.5,2,2,1,3.5h4l.5,1v2l1,4.5.5,1.5,2.5,2.5,5.5-3-.5-5,1.5-1.5,1,3,2.5,4-.5,2,1.5.5.5,2,1.5,1v4l2,.5-2.5,9,.5.5h1.5l1,1.5-4,1.5-1-1-4.5,3.5,2.5,2,1,2-.5,1,1,1,2.5,1v2l1.5,1.5v2l1,3.5-3.5-.5-1,6.5,1,.5-.5,2.5,4.5.5,2,1,.5,1.5-1.5,3-3,1-.5-2-4.5-1,.5-1-3.5-1.5-1.5,2-2.5-2-2.5-.5-6,3v2l.5.5,1.5-.5,2.5,3.5,4.5.5.5,2-1.5,1.5.5,1,5,1.5,1,1.5,3.5-.5,1,2-1.5,2,.5.5h5l1,2,3,.5,4.5,2.5.5,1.5,1.5,1.5-2,2.5v3.5l-3.5,1-1.5,4-1.5.5,3,2-2,5.5-.5,4,1.5,4,1.5,1,.5,2.5-2.5,1-.5,1.5.5,1.5-.5.5-1-.5-4,2-3.5-3-.5,5.5-3,1.5,1.5,1.5,2.5,1,1,2.5,1.5-.5-.5-2,2.5-.5h1l.5,1.5h3.5l-2,3.5-5.5,3-2,4-5.5,3.5-2.5,10.5-2.5,3-2,4.5-2,1.5-3.5.5-4.5-2.5-.5-1.5-3.5-1.5-.5,2,1,1v1.5l-1.5,2.5-.5-1.5-2-2.5-1-2-4-2.5-12,1.5-7,3-4,5.5-4,1.5-.5,2-6,4.5-2-1.5-4,1.5-1.5-2-8.5,1-2,4.5,1,2.5-2.5,2-1.5,2.5-3-.5-2.5,1-2.5-1.5-5-.5-3,1.5-.5,3.5-5.5-3.5-2,.5-1.5,1-3.5,7.5-2-.5-3.5-2.5-6-1-3-2-4-5-2-4.5v-2l-1.5-1.5-3-.5-17,2.5-2.5-1-1.5-4.5-4,3.5-10,1.5-3-2-2.5-.5-2-2-5,.5-2.5-1-2-1-1-4-1-.5-7.5-.5-1,1,1,1-.5,2h-2l-1.5,2,2,5.5-2,3,.5,2-2,.5-1-1.5-4-2-9,7h-3l-2.5-1-3-3.5-3,.5-1-1.5h-2l-2.5-4-2.5-.5-2-2.5.5-2,2-1-1-3,1-2v-1.5l-1.5-2-2.5-1-1.5-3,2-3,2-1,.5-1.5-1-4.5-1-2,.5-3-.5-1.5-1.5-.5.5-.5-.5-4-3-1.5,5.5-4.5.5-6,2-3-1-1.5-1.5-.5-6,1.5-6,4,.5,1-.5.5-2.5,1,1.5,3,1,1v2l1,1.5-1.5,1.5-4.5-2.5-.5.5.5,2.5,2-1,1,2-3,4.5-3.5-2,1.5,2.5-2,1.5,2,1,1,2-5.5-.5.5,2-3,.5.5,2-2,1h-5l-2-1-1,.5-2.5-1-5.5,1-4,3-.5,3,.5,1-1.5,3-6.5,1-1,2.5-2.5,1.5-.5-2-3-4.5"/>
      <path data-code="allaikhovskij_ulus" data-title="allaikhovskij ulus" class="cls-2" d="M872.63,418.87l.5-1v.5l-.5.5M847.13,433.87l.5-.5v-2.5,2.5l-.5.5M846.13,433.37l.5.5v.5l-.5-1M885.63,422.87h-1l1.5-1v.5l-.5.5M895.13,429.87v-.5l.5-.5v.5l-.5.5M895.13,430.37v1-1M964.13,392.87l-.5.5,1.5-1-1,.5M978.13,388.37h.5l-2,3,1-2,.5-1M877.13,459.37l1-1.5-.5,1-.5.5M838.63,607.37l1-2.5v-3l4-37.5-3.5-1-2.5-3.5,2-3v-3l-.5-2,1.5-2.5v-1.5l1.5-4.5,1.5-.5-1-2,1.5-4-.5-5,3-5.5v-1l-1-1.5-3.5-3-4-2.5-1-4-1-1.5.5-2.5-1-.5-.5-1.5-.5-3-1.5-1.5-1-4-2-.5v-1l1-1-1-2,.5-1.5-1-1,.5-2,2.5-1,2-7.5-.5-4-.5-10.5.5-2.5-1.5-1,2-3-4-1.5.5-4,4.5-2.5-1-3-1.5-1,1.5-3h2l3.5-3.5-1-1h3l-.5-2,1.5.5v-2.5h-3.5l-1-2,2.5-.5.5-1,.5,1,.5.5v1.5l3.5,1.5,5-1,2.5-4v-3l7.5-8,26-20.5,8.5-4.5-.5,9.5.5,9-.5,1.5h.5l-3.5,11.5-.5,6,.5,1.5-1-.5-1.5-4-4-7,1,.5v1.5l2-1.5.5-4-.5-.5,1.5-1.5-.5-2,1,.5-.5-2h-3.5v-1l-1.5-.5-.5,2.5-2,.5.5,2.5,1.5-1,.5,1-2,1.5,2,3-1.5-.5-.5-1-1-6.5-1-2-1,5-.5,1.5-1.5-2,.5-1h-2l1.5-1-5.5-1-1.5,2,1,1.5.5-1v1h.5l1-.5v-1.5h1.5l.5,2.5,1,.5-1.5,1.5,1,5.5.5.5,1,1.5,1,1,3-2,1,1,3.5,4.5-1,3-1-.5-2.5,1.5-1,3.5-2.5,3-2-1.5-3.5-.5-.5,1.5-1.5-1-1.5,1,1.5,2.5,6,1,.5,3-1.5,1v3h-1.5l-1.5,1.5,1,1h2l-.5,1,1,1.5,3-1v2h1l.5-1-1-1.5,3,1,2-3.5,1,1.5,2.5-2,.5-4,1.5-2.5,2,.5,1.5-1,3-7.5.5-5,.5-4.5-.5-2.5.5-2.5.5-9-1-10,1.5-12,9-7.5,7.5-3.5,8.5-6,24-5.5h6.5l11,2,6.5,2.5,3,2.5,1.5,2,1,2.5-4.5,9.5-2.5-1.5-1.5.5-2-2-3-2-2,.5v4.5l-1,1,.5,4.5-1.5,2.5,1,5.5-2-.5-1,1,.5,1,5-1.5v-2.5h3l1-2.5,3,1,3.5-1,7-7.5,2.5,1,3-1.5,2.5,2,.5-2,1.5.5-2,3.5,5.5-3.5-.5,2-2,.5,2,1-3,2.5-.5,2h1l.5-2.5,9-5.5h.5l-.5.5,3.5-1v2l1,1v2l1.5,1.5-.5,1.5h1l.5-1-1-2.5,1-3-1,1-.5-1.5h-.5l2,.5,5-2-1.5.5v3l-2.5,5,1,3,1,.5.5-.5-1.5-3,4-6,3.5-3,4-1h3l-3.5,2.5,5-1.5h6.5l4,2.5.5,1,4.5,1.5-.5,1h.5l1-.5,3,1.5,1,.5.5,1h2l2.5,2h1l-1,2.5-7,4.5h4l5-3,7.5,1,6.5-1.5,1,2,2.5,2.5.5,2-1,1,1,1,.5,1.5,3,1v4.5l.5,2.5-1,3,1,2,2.5,2,2-.5,1.5,6,3,1,3-.5,1.5.5,1,1-1.5,5.5,1.5,1,.5,1.5h.5l.5,2,1,.5-3,1,.5,1-3,1,.5,1,6.5-.5,1,3.5h1l4,3,1,.5,3,22-7.5,2-4-1-4,.5-7-1v5l-2,.5-6.5,7.5-2.5,5-.5,5.5-4.5,4.5-2,4.5-3.5,2.5-2,9h-3.5l-1,1.5.5,2-6,3.5.5,2-1,1.5-4,1-1.5,2-1.5,4h-1l-5,6-.5,1.5,1.5,1.5-.5,1-3.5,1v3l1.5,1.5-1.5,1.5-3-.5-4.5,1-2,1-2,5-8,11.5-12,6-7-1-1-1-3.5,2-.5-1.5-2.5-1.5-1.5,1.5h-5l-5.5,2.5-2,2.5h-6l-3.5,3.5,3,3.5-1,1.5-4,2-2-1-2.5,1-1.5-1.5-1.5,1.5-2-1-1.5,4-6.5,5-2.5-.5-4,.5-2-3.5v-2.5l-2.5-1-3,2.5-1-1.5-3.5,1.5-1,1-1-.5-3,4.5-2.5,1.5-2.5-.5-1,1.5-1.5-1-1.5-1.5h-2l-1,.5.5,2-.5,1-2.5.5-2,2.5h-2.5l-2,2v3.5h-3l-1,1.5-4,.5-1.5-1.5h-4l-.5-2,1-1.5-.5-2h-1.5l2.5-5.5-6.5-3-6,3.5h-1.5l-4.5,4.5-4.5-1h-3l-3.5-3-2-.5-5.5,4-2.5-2h-1l-3-2.5-.5-.5-3-2M847.63,421.37l-2-10.5v-4l19-6,28-4-24.5,15.5-4,1-1.5,2.5-3.5-3-2,.5-.5-1h-1l-1,3.5-2.5-1-2,1-2.5,4v1.5M887.13,456.87h-.5.5M992.63,394.87l-.5-.5h.5v.5M996.13,395.87h1l-.5-2h2.5l-1.5,2h-1.5M1008.63,394.87l.5-.5v.5h-.5M1012.13,392.87v-.5h1l-.5.5h-.5M1017.13,391.37h.5-.5M1013.13,394.87l1-1h.5v.5l-1.5.5M1038.13,396.37v-.5l.5.5h-.5M1053.13,405.37l-.5-.5.5-.5.5,1h-.5M1057.13,406.37h.5l1.5.5h-1.5l-.5-.5"/>
      <path data-code="amginskij_ulus" data-title="amginskij ulus" class="cls-2" d="M797.63,1358.87l-.5-4.5-4.5-12,4,2.5,2.5-2.5h2l1.5-1.5-.5-2.5,2-2h3.5l3,2.5,1.5-2.5,5-.5,2.5,4.5,2.5,3,2.5,2h1l4-3.5-.5-2v-2.5l.5-2,1-1,.5,3.5,1,1h1.5l4.5-4,1-1.5,1.5.5,3-1.5,5-5.5,1.5,4,2.5-.5,5-4-.5-2.5-1.5-1.5-.5-4.5-4.5-5.5-1-2-3.5-1.5,1.5-2.5-3.5-2.5v-2.5l2-4-1.5-5.5,1-4.5-.5-4,9-5-.5-1v-3.5l1.5-3v-2l-1.5-3,5-1,2-3,3-1,5.5,2.5,7.5.5.5,2,2.5,1,2.5-.5,7.5-4,8.5-6.5-2-1-.5-3,1-2-.5-2,1-1,2.5-.5,3.5,2.5,2.5,3.5-.5,2.5,3.5,2.5,3,6,1.5,1.5v2.5l4,10,2.5,4.5,4.5,6.5,3.5,9.5,1.5,1-.5,3-2,4-1.5.5-2,6-2.5,1.5-7.5-.5-1.5,2.5,1,3.5-2,3.5,2,10,2,4.5-1.5,3-2,.5-2,4.5,3.5,2.5.5,2.5,1,1.5.5,5v1.5l1,1.5-1,3-1,.5,1,2.5v5l-1.5-.5-1-2-1-.5-2,2h-2.5l-.5-2h-1.5l-2.5,1-.5,1.5-3-.5-2.5-3.5-2.5,1-2.5-1.5-2.5.5-4.5,4.5,1,3-2.5,2.5-.5,3,.5,2-1,2,1,5-1.5,2-2.5.5-1.5,4.5.5,1.5-.5,1.5-5.5,2.5-3.5-1.5-1.5-1.5-1.5,1-2.5-.5-1.5,2v2.5l-2.5,1h-1.5l-1.5-2-4-1-1.5,3-6,4v1.5l-3.5,1-1-1.5-8-4-3-3v-1l-1.5-1.5-7-3-2-4-.5-2-3-3.5-1-4-2-3-2-4.5-2.5-2.5-1.5-3-6-5.5-2-5.5"/>
      <path data-code="anabarskij_ulus" data-title="anabarskij ulus" class="cls-2" d="M110.13,578.87l-14-1.5-6.5-4.5-7.5-.5-3.5-3-.5-2,1-1.5,2-2h2.5l2.5,1.5,2-.5-.5-1.5,2-1-1-1,1-3-1.5-1.5-1-3.5-.5-3,.5-.5h15.5l9-1.5,5,1,2.5,2,1.5,2.5.5,3-1-1-.5,2,1,.5v-.5.5l-2,4-1.5,6.5-4,2-1.5,7-1.5,1M106.63,539.37l-1.5,1-.5.5,1-1v-2l-1-.5,1-.5,1,1v1.5M177.13,547.37l.5,2,1.5.5h-1.5l-1-1.5v-1.5l1.5-3.5,2,.5,1,1,1,1.5v1l-.5.5v-1.5l-.5-1.5-2.5-1-1.5,3.5M70.13,572.37l-.5-.5-.5-2,2.5-.5.5.5.5,2.5h-2.5M164.63,601.37v-.5l.5-.5v.5l-.5.5M140.13,624.37l-.5-.5,3.5,1.5h-1.5l-1.5-1M58.13,636.37v-.5l2.5,1,6-4h3l-.5-2,1-1,3-4-.5-1h-.5v-1l1.5-.5v-1h3l3.5-3-.5-1,1,.5,1.5-1.5h-2l-.5-1.5h-1l.5-1.5-1.5.5-.5-1h-2l-.5-1-4-1,1-3h-.5l2-4,1-1h3.5l1-1h-.5v-1l2-.5-.5-.5,9.5,5.5,15,1,11-3.5,3.5-4.5-.5-2.5-4-6.5-2-4.5v-1.5l5,5,4.5,2.5,3,6,4,4.5,2.5,4.5.5,2v1.5l-.5,1v-1l-1.5,1-1,3.5v3.5l-1,2.5,3,1.5.5,1.5,2,1.5,4.5,1,1,1.5v3l-1,4,1.5,2-.5,1.5.5,1,1.5,1,1-1-1-1h2l-2-2.5-1-2,2-2.5,1-4.5,1.5-.5.5-2-7-4-2-2-.5-2.5-1-.5,9-4.5,5.5-5,8-.5,8-3,1.5-1,.5-1.5-1-.5,2-2.5,3.5-2v-.5l-.5-.5,2-1,7-2,9.5-.5,6,1,7.5-3,18.5,2.5,14-4,14.5-2.5,9,2.5-1,1.5h-3l1,1.5,1.5.5-2,2-6-1.5-2,3-.5,3.5.5,1.5,1,.5v1l-5.5.5-1,1.5.5,4.5-2,1,1,1.5-.5,1-3,1v.5l-3,3-3,1-8,7.5-1,2.5.5,1,9-3,7,2,1.5-3,3,2v-1.5l2-1,9.5,5.5,4.5,5h4.5l-.5,2,2.5,2.5,11,.5,1.5-2.5,2.5,1.5,3-2-1-2,5.5-4,6.5,4.5,2.5,1,1,1.5-1,2,4,5.5h1.5l1.5,1.5-.5,2h3l2,1.5-.5,1.5,1,3,4,6.5-3.5-1.5-1-1.5h-1.5l-2.5,7-1.5.5-2-1-1.5,1.5h-5l-3.5-1-2,2.5-.5,2.5-3,2.5-2.5.5-3.5,4h-1.5l-.5-1-3.5,1v1.5l-1.5,1-2-.5-5,2.5-8,1.5-.5-2.5-10-2.5-1,4v1.5l-2.5.5.5,1-3.5,1.5-1,3,.5,1-1.5,1-11,1.5-1.5-1.5-.5-1.5-2-.5-1.5,4-1-.5-2,2,.5,1.5-1.5.5v1.5l-3,2.5,3,1-2.5,6.5-2,1.5,1.5,2-2,5,1,2,7.5-1.5,2,1,1,2-1,.5v1.5l-5,2.5-1-.5-2,1.5-4.5-.5-6,2-2,2-.5,1.5.5,2-1.5.5-1,2.5.5,1.5-2,2v1l-3.5,1.5-.5,3-1.5,1,1,1.5v1.5l-2.5,3.5h-1.5v1.5l1,.5.5,1.5-3.5.5v3l3-.5,1,1v1l3,1.5,3.5-1,3.5,3h4.5l4.5,3v2.5l-2,3.5v1.5l1.5.5-1,3-2.5,3.5-3,1.5v2l-3.5,3.5-3-1-3,3-2.5-.5-.5,5,.5,3-1.5.5-2.5-1-2,1-1,3.5-2,1.5-5.5-2-7,2-9.5-2,1-2h1l1.5-1.5-1.5-2,1.5-3-1.5-3-.5-2h4v-1.5l4-1,2.5.5v-1.5l.5-1.5-2-1,1-4.5v-3l-2-.5-1-1.5,2-4v-5l-1-1.5.5-5-2.5-.5-5.5,1.5-1.5-3.5,4-5.5v-1l-1-1-1.5-1.5v-1h-4.5l-1.5-1.5-.5-2.5-1-1.5-5.5-4,.5-2,2-2.5h-1.5l-1-1v-2l-2-1v-3l3.5-3.5-.5-4-4-2-1-2v-1.5l-1-2.5-1.5-1-7,3.5-7,1-4.5,1.5-4-1-3,3-4,1-2,2-1-1h-2l-1-2,.5-1-.5-.5-2.5.5-.5-.5,2-2.5-1-2-.5-1-1.5-1.5-6,2-1-1v-1l-6.5-1,.5-.5-1.5-.5,1.5-2-2-1.5,3-1,3-3.5v-1.5l-1.5-.5v-1l-2-1.5h-7l-.5-.5,1-.5-1.5-.5,1-2.5-4-.5-1.5-1.5.5-1-1-1v-1.5l-1.5-2,.5-1-1-1.5,2-1-1-.5v-1.5l-2.5-1,1-.5-1.5-1.5.5-1,4-2h-1l2.5-2-4-.5v1l-1-1.5-.5,1,1,.5-1.5-.5,1-1.5-1.5-1,1.5-1-.5-.5.5-.5-.5-.5,2.5-.5.5-2.5-3-3,1.5-1v-1.5h-.5l.5-1.5-11,2.5v-1h-1l.5-1.5-.5-1,5-3.5.5-2-2.5-2,.5-1-1-.5.5-1-2,.5-.5-1h-1.5l.5,1h-.5l-.5-1h-2.5l-.5-1.5-1.5.5-1.5-.5,1-1-1-.5M139.63,629.87h.5v.5l-.5-.5"/>
      <path data-code="bulunskij_ulus" data-title="bulunskij ulus" class="cls-2" d="M883.26,6.62l-.5.5-.5.5h-2.5v-1l.5-2,1-.5,1.5-.5h.5l.5,1v1.5l-.5.5M770.76,106.62l-1,1v2l-.5,1.5.5,1,.5.5h.5l-.5.5.5.5h1v2l-.5.5v-.5h-2.5l-.5.5-1,.5-.5.5v.5h-.5l-1,1-1,1h-.5v.5h-.5l-.5,1h-.5v-.5h-.5v.5l-1,1.5h-.5l-.5.5h.5l-1,.5h-.5v-1l.5-.5v-1.5l.5-1,.5-.5.5,1v-.5l1-.5v-.5h-.5v-1l.5-1.5v-1.5l.5-.5,1-1,1-1.5,1.5-.5.5-.5,1-1v-.5h.5l1.5-1,.5-.5.5-1,.5-.5.5-.5v-.5l-.5,1.5M917.26,1.62l-.5.5h-.5V.62h1.5l-.5.5v.5M852.26,97.62l-.5,1h.5v-.5l.5-.5.5.5.5.5v.5l1,1h.5v.5l.5.5.5.5v1l-1,1h-2l-.5.5h-.5l-.5-.5-1,.5-.5-.5h-.5l-.5-.5v-3l1-1,.5-.5,1-1h.5M865.76,128.62h-.5v-.5l.5.5M847.44,225.62l-10.5,6.5-12,4-4.5-.5-2-1.5-5.5-.5-3.5-1.5-12.5,3.5-10.5-1.5-10,1.5-7-2,2-2,.5-2.5-1.5-1.5v-.5l-3-2-1-2,.5-4.5-1-2v-1l-2.5-3.5-.5-3,.5-1,5,.5,3,1,.5,2-1,2,1.5,2,2.5,1,2,2h4.5l4-1.5,3-5-1-.5-1,2-2,.5-.5,1,1-2,1-2,.5-2h-1v-.5l3-2,1.5-2.5,8.5-1.5,6.5-5.5,5-.5.5.5.5,1v3l2.5,2,.5,2h1v1h2.5l3.5-2,8-11,10-2.5,6.5-3.5h3l4,2.5,3.5-.5,3.5-6.5,3.5-1-.5,3.5,1,3.5-.5,4.5.5,1,1.5.5.5,2,1.5,4,.5.5-8.5,9.5-4.5,7.5,1,.5-2.5,1.5-.5,1.5-.5-.5-1,.5,1.5,1h-2l-3,3M559.44,331.62v-6.5l-2-5-3-4-1-5-.5-4.5-.5-1.5-1.5-.5v-2.5h.5v1l2,1.5,2,2.5,4,4,3.5,1.5,5.5.5-1,4v7.5l1,1.5h2l-1.5,6-6.5,3.5-1-.5-1-3-1-.5M647.94,269.62v-.5.5M686.44,247.62v-.5l.5.5h-.5M649.44,266.12l.5-1,.5,1v.5l-1-.5M657.94,261.62l.5.5h.5-.5l-.5-.5M657.94,263.62v-.5l2.5-1v2.5l-2.5-1M652.44,266.12l.5-.5v.5h-.5M624.94,231.62v-.5l.5-.5-.5.5h1l-1,.5M727.94,278.62l2.5-2,4.5,2v1l-2.5,5-7.5,5.5-1-.5-1.5.5.5,1.5-1,1-1.5-.5-2,.5.5,2.5-.5,2.5,2-2.5-3.5,6-3,.5-13.5-3-1.5.5.5-.5h3l-.5-2.5,2.5-2,3,.5,1.5,1.5,1.5-1.5-1.5-.5-3-.5-1.5-2.5-2,2.5-4.5,1.5-3.5,6.5,3.5-2-.5.5-15,13-10.5,12-2.5,2-2.5,2h-2l3.5-1,1.5-2-2.5-1.5-1-2-1.5-1-1.5.5-1.5-1-.5.5-3.5-1-2,.5-.5,4.5,1,3,3,1,.5-1v-1l-.5-.5,1,.5-1,3,1,6.5v2.5l-1.5,5-3,2.5-11.5-.5-11,2.5-6-3.5-6-5-5.5-1.5-8-1-4-2-10-6.5-1-2.5-2.5-3,4.5-4.5-.5-1.5-2-1.5,1.5-2.5v-1.5l-2.5-2-7-2,2-4,.5-2.5-1.5-2-1.5-.5-1-1.5,1-3.5,5-1.5,1-3.5-6-4-1-2v-2l1.5-5,8.5-5-.5-5h-1v2.5l-1,3,1.5-9.5,8.5-10.5,5.5-3-1.5,2.5,2,2,4.5,2.5,5-.5,5.5,2.5,9-1.5v3.5l-.5-1.5-1,1.5v1l1,1.5,1.5-.5,2.5,1.5,4.5.5,2.5-2,3.5-.5,1.5,1-1,1.5,1,.5-.5,1,1,4h1.5v1.5l2,.5,2-1-1-1,1-.5v-1.5h1l1.5-2,.5.5-.5.5,1,.5-3,1-.5,1.5h3.5l1-1.5h2.5l4.5-4.5-1-1.5-2.5-.5-1.5-2-2-.5-1,.5,1-3-3-2.5-1-3-3.5-3.5-1-4.5-.5-.5,5.5-5,4-1.5,3.5.5.5-1-4-1-1.5-1.5-.5-1-3-1-1.5-2-2,1v-1.5l.5-.5,4.5,1,5.5-1,8,3,6.5,1,4.5,2.5,4.5.5,11-2,6-7.5,7.5-2.5h4.5l8,1.5,6.5-2,5,1.5,9.5-1,4,1.5,2.5,1.5-2.5,1-2,2-3,7.5v2.5l.5,1.5,4,4,3,.5-2,3,1,4.5,1,2-2.5,10-4.5,3.5-11,4-3.5,4-6-1.5-2,1-1-1.5-3,1-.5-1-1.5-1-1.5-2-2.5,1-.5-1.5-1.5-1-1.5-2-5.5-.5v-1.5l-.5-1-.5-.5-.5-4-1.5-.5,1.5-1.5-.5-3.5,3-7v-3l-2-3.5-1.5-.5-1-1h-2.5l-2.5,2-1-.5-4.5,4.5-.5-1.5-1,.5v1h1l-1,1,2.5-.5-1,3.5-3.5,2h3l-1.5,3.5.5.5,1,.5v2.5l-.5,1,1,1,.5,1,2.5,1.5,1.5,2.5.5,1.5,4.5,3.5,1,1.5,4.5,1.5,4,3,4.5,2,1.5,2,3,.5,6-2.5h9.5M654.44,257.12h.5v.5l-.5-.5M586.44,289.62v-.5l1,1-.5.5-.5-1M646.44,241.62v-.5.5M654.44,236.12v-.5h.5l-.5.5M650.94,236.62l.5-.5-.5.5M653.44,235.12l-.5-.5.5.5M651.44,234.62h1l-.5.5-.5-.5M649.44,236.12v.5-.5M643.44,238.62v-1l2.5-1.5.5,2-2,1-1-.5M649.44,235.62v-1,1M649.44,235.62h-.5l-.5-.5.5.5h.5M717.44,416.63l-4,2.5-2.5-2-1-.5,1-3,9-5,3-6,1-4.5-.5-6-2.5-11.5,1-6.5,1-1,3.5.5,5.5-7,7.5-6.5,5.5,1,5-1.5,4,.5,6.5,2.5,11,1.5,7.5,2.5,5,3.5-.5,2,2,2,.5,2.5,2.5,4,3.5,3.5,2.5,1-2.5,1-3.5,5-12.5,3-4.5,3.5h-4l-9.5,3.5-11.5,2.5h-13l-5.5,1.5-6,4.5-1.5,3.5-3,3.5M710.94,376.63l-1,1h-5l-2-1-2-2-3-1.5-2.5-3-3.5-7.5.5-2.5,1-2,6-5,6.5-2,2,.5,2,1,1.5,2.5.5,4,.5.5,1.5,2,1.5,4-.5,2-5,5.5-2,4.5,3-1M616.94,422.63v-.5l-2.5-1.5-7.5-2-2.5-3-3-1.5-1.5-2-.5,1,.5,1h.5l-1.5.5-1.5-.5-1.5-3.5-1.5-2,3.5-.5,13.5,4.5,3.5,3,4.5,1.5v1l1.5,1,1,1.5-1.5,3.5-3.5-1.5M396.13,535.37v.5-.5M352.13,551.87l-.5-.5,1.5-1h1l-2,1.5M357.13,533.87l1-2h.5l-.5,1,.5,1.5-.5.5-1-1M353.13,541.87v-.5h.5l-.5.5M382.13,533.37v-1l.5.5v1l-.5-.5M354.13,536.37h-.5.5M368.13,532.37h.5l-.5.5v-.5M367.13,533.87v-.5.5M354.63,542.87v-.5l1-.5v1h-1M409.63,526.87h1-1M354.63,544.87l-1,.5-1.5,2.5.5-2,2-2v1M395.63,533.37h.5v.5l-.5-.5M409.13,530.37v-.5l.5.5h-.5M403.63,533.37l-.5-2,1-.5-.5,1v1.5M253.63,592.37h1.5l-.5.5-1-.5M350.63,554.37l2-1h.5l-.5,1h-2M395.63,536.87l1-.5.5,2h-.5l-1-1.5M403.13,537.37v-1h1l-.5.5-.5.5M352.63,558.87l.5-.5h.5l-.5.5h-.5M247.13,594.37v-.5l2-3,2.5.5h-2.5l-2,3M353.63,562.87l.5-.5h.5l-.5.5h-.5M254.13,596.37l-1.5-1v-1.5l2.5.5v2h-1M222.63,625.87l1-2.5,8-7.5,3-1,3-3v-.5l3-1,.5-1-1-1.5,2-1-.5-4.5,1-1.5,5.5-.5v-1h1l-.5,2.5v3l.5,1,.5,2.5,3,2.5,19.5,3,2-1-2.5-1.5,2.5-1.5.5.5-.5,2,1,.5-.5,1,3.5.5-.5-.5,1-1.5-3-.5v-1l4-1,4.5,1.5-1,2,.5,1.5v.5l-2.5-1v-1.5l-1-1.5-1,1,2.5,4,7.5,2.5.5.5v1h2l5-2,10,1h3l-.5-1.5-12-1-4,2-5-1.5-2.5-2,2.5-1.5h6l.5-1,.5.5,6-.5,4-1,11.5.5,6.5-5,7-2.5.5,1,12.5,1.5h5l1.5-2,6.5,3,.5-.5-5-2.5-1-2h-1.5l4.5-2-6.5-1,1.5-1.5h1.5v-.5h-2.5l.5-2.5,1.5-1.5v-.5l-2-.5,1-.5,5,1v1l1,.5.5-1.5.5,1,4-.5v.5l-.5.5-.5,1,1.5.5-1.5.5,4,.5,1,2,2-.5,1-2,.5-3.5,1.5-.5-1-1.5-1-1-1-2.5,1-2-.5-1h.5v-2.5h1l-.5-1.5,1,1.5,2-.5v-.5l-2-1.5-2.5.5-.5-.5,2.5-3.5h2.5v-1l-3.5,1v-1.5l-1-1-2,.5,1.5-1v-1.5l-1,1-.5-1.5-1.5,1-1-1,1.5-.5-2.5-1v-1l-1-1,1-2.5h-4.5l.5-1,1.5.5.5-1-2-1.5.5-2-1-1-1,1,1.5-3-1.5-.5-1-1.5,1.5-1v-1.5l-1-.5v-.5h2.5v-.5l-2-1-.5-.5,1,.5.5-1-2-2.5,3-.5,1-2-1-1.5,2.5-.5.5,1-1,1,.5,1-.5.5,3,1.5v-2.5l-1-1.5v-1h2l-1-3,2.5.5.5-1.5-1-1.5h-.5l-3,3,.5.5v1l-.5-.5-.5-1-1.5,1-2.5-1,3,.5-.5-1.5v-1l3.5-1.5v-1l1-.5v-1h-1l1-1h1.5l1.5-1.5-.5,1.5,1,2-1.5,2.5,1,1.5.5-.5,1-1.5h.5l-.5,1,.5,1-.5.5.5,1h-1l-1,2,1,.5,2.5-3-1-.5,2-3.5h-1.5l-1-1v-.5l2-.5h.5l-.5-1.5h1v-1.5l3-1.5v1.5l-1,1,2-1v1h4v2h.5l1.5-2.5v1.5l1,1-1,.5,1,.5,1.5-1,.5-2h1.5l-1,2,2-.5.5,1-.5,1,1.5.5v-1l-.5-2,.5-.5,1.5,2.5v2l2-1-.5-1-1-.5,1-1-.5-2.5h.5l.5,2,1.5,2-1,.5,2-.5,1.5,1.5-.5,2,1,4h.5v-2.5h-.5l1-1-.5.5.5,1,2.5,1-1-1.5-.5-2.5,1-.5v1l.5.5,1-2v1l1.5,1.5v.5l4.5-.5.5,1-.5,1,.5,1,2.5-1.5-.5-1.5-1,.5-1-2.5-1,.5-.5-1,1.5-2,.5-3.5-.5-1.5,1-.5.5,1-1,3v1.5l1,2.5-.5,1,.5,1,3-.5-.5,1.5-3.5,2.5,1.5.5,3-2,.5-1.5v-1.5l-.5-.5v-.5l3.5,1.5-.5-.5,1.5-.5-.5-1h2l-.5-2,2.5-2,2,2h1.5l-.5.5.5.5,1,2.5h1v1h1v1.5l1.5,1h.5l-1-1,.5-1.5-1-.5,3-3v1.5l.5.5.5,2.5h1v-3.5l3-2.5,1,1-2,1v1.5l1.5,1.5,1-.5-1-2,1.5-.5-.5-4.5-3-.5,3-2.5,5-1.5,5,2,2-2.5-3-.5,3-2,7.5-.5h1v1.5l2-.5,7,2-2.5,1.5,1,1,7.5-.5.5,1.5.5.5v1.5l-.5,1,.5,1-2.5,1h3v1h.5l2.5-2,6-1,1.5,1h2.5v.5l1,.5-1,3-1.5.5,2,1,1.5,2,2-3.5,2-.5,7.5,3.5,2.5-.5v1l-1,2,3.5,1.5,1,1-5.5,3,2.5-.5v1h.5l-6-.5,1-1v-1l1-2,2-1-1.5-.5-2,.5-.5,2.5-2.5,1.5,1.5,1-5,.5-2.5,4.5h1.5l2-3.5,5-.5,3,1v1h4l.5.5,3,2h-1l-2,3,3.5-.5-.5.5-2.5,2-.5,1,.5.5-4,3,4.5-1,.5.5-3,1,5-.5,2,.5,2.5,2-4-.5-.5,1h2.5l1,2-4.5,3-1-1.5-2.5.5v.5l2.5,1.5-3.5,1.5h1.5v1.5l1.5-1.5,4.5-1-3.5,1.5v1.5l1.5-1-2,1.5-.5,1.5h-5l-3,4.5,6-4-1.5,2h1.5v1.5l-2.5.5.5,1.5,9-6.5h.5l-2,1v1.5l2-1-.5.5,5.5.5.5,2-3.5-.5-.5,1,4.5.5,1.5-1.5-.5,1,.5.5v.5l1.5,1,1,2-2,4,1.5-.5.5,2-1.5-.5v1l1,1,4-.5-2.5,1.5-2,7,4.5-4,1-.5.5,1-2,4.5-4.5,4.5.5.5h-2.5l-2,2h-.5l-.5-1.5-1,1-.5-.5v-1l-1.5-.5-.5.5,1.5,1.5-5,2.5-2.5-.5.5-1-.5-.5-1,.5h-1l1-1-2.5,1v-1h-.5l.5-.5-.5-1,.5-2-1.5,1-1-.5,1-1-1.5-.5.5-1-4-.5v-1h-4l-7.5-4-5,1.5-2-.5-2-1.5,2-1.5-1.5-1-2,1.5-2.5-.5v-.5l-1,.5.5,1-1-.5-7.5,3.5h2l-8.5,3-1-.5-1-1.5v-2.5l5-5h.5l-1,1.5h.5l-.5,1,6-2h-4l2.5-3.5v-1.5h-.5l-11,9.5.5,3,2,3,1,1v.5l2.5,1,.5-1-1.5-1,2.5-2,8-2.5,5.5.5.5-.5-2.5-1,2-1.5,4,2-1.5.5.5.5,3.5-1,3.5,1,4,3.5-2.5,1,.5,1,3.5-1,2.5,2,2-.5,2,2.5,5,.5,1,2.5,1,.5h3l1.5,1,5-2.5,7.5.5-5.5,1.5,3,.5,2,1.5-1,2.5-2,.5.5,2-4-.5-2-2-.5.5-.5-2.5-1.5-.5.5,3,1.5,1.5,2,2.5,3,.5,2,4h1l.5,2,2.5,1,5.5-1.5,2.5-3,1-3.5-.5-1.5-4.5-4-1-2-3-4h.5l2.5,3,7,5.5.5,2,1,.5,7.5,4.5-5-.5.5-.5-1-1-.5,1,.5,1-9.5,7v3l1.5,1,1,2.5,1.5.5,1.5-2,2-.5,1-2,1,.5,1.5,2,1.5.5,1,2v2l2.5,1,2,3,3.5,6,1,1,8.5,2.5,1,1.5,1.5,3,2,1.5,1,2,8.5-2,3,4,1.5,1v1.5l.5,1,3,1,1,.5h2l1.5-2.5.5.5,1.5,3,1,.5,3.5-1.5,1-2.5v-1.5l-2-3,.5-1.5,1,1-1,.5.5,1,1.5.5.5,1.5.5,1,.5,1,1.5,1,1.5,1.5,1,2-.5.5.5,1,4.5,2,5.5-3.5,2.5-7,.5-4v-1l-.5-1,1-6.5-1.5-7.5,3-1,.5,1.5,2.5-.5v.5l6.5,5.5.5,2-1.5,5,1.5,4.5,1.5,3,1.5.5,5,6.5v2l-1,3,.5,2,2,2.5,1,2.5,2,3,1,1,4-.5,19-8h1.5l2.5,2-.5,2,2,3,2,1v1.5l2,1.5-2,5.5,1.5,2,4,.5.5,1-5.5,4.5.5,1,5.5.5,2,2.5.5,2.5,11,3.5.5,2.5-2,1-.5,2.5-4,2-.5,7h-1.5l-.5,4.5-2,2.5,1,1.5.5,4.5,1,2-.5,4.5,2,1-.5,3-1.5,2,1,2.5-.5,1.5,1,1-.5,2-4,1.5-.5,3-2,5-2,3-7,2-9,6-4,9.5-2,.5h-11.5l-3,2-5.5-2-3,5.5-2,1.5-2-3-.5,1v2.5l-.5,3,.5,3.5-1,1,1.5,1v1.5l-2.5,6.5-1.5,2-5,1-4,4-12-.5-2,1-1-1.5-4.5-.5-2.5,2-4,8-6-.5-2.5,2-6,1-5,3-6,1.5v1.5l-2.5.5-4.5,3.5-1-.5-2,3.5-4.5,3-1.5-2-1,2-3,.5-1.5-2-2,1-1-2-1,2-3.5-1,2,2.5-3-1.5-3,3.5-1-1.5-4-2-.5,1h-2l-.5-1-2,.5-1-1.5v-1l-1.5,2-.5-.5v-1.5l-3.5-.5v-1.5l-1,1-3.5-.5v-1.5l-1.5-.5-3,1-1-2-6-3-.5-.5-5-1-.5.5,1,1.5-1.5,1,1.5,1.5,1,3-2,.5.5,1,2-.5-.5,1.5.5,1.5-2,1,.5,2-2-.5-.5,2-2-1.5-.5,1,.5,1.5h-1.5l.5,1.5-4,3.5,2,1.5-2,1.5,2,1-6,1-1.5-3-.5,3-1-.5v-1l-.5-1.5-1,1,1,1.5-1,1-4,.5-2-3h-3l-7-5.5-8.5.5-2.5-3.5-.5.5,1,2.5v.5h-2l-.5,1-4.5-1-3.5.5-1.5,1.5-1-.5-4,2.5h-3l-1.5.5-1-1.5-1.5-1-5.5-1-4-5-2.5-6.5-5-3.5-2-2.5-3-1-5,1-1,1,.5,2.5-.5,1,1,1.5-1.5,1.5-1.5-.5-2,3-6.5,1.5v1.5l-3,2.5v1.5l-4,1.5-4.5,5.5-3.5,2.5-1-1.5-5.5-1.5-2,1-1.5-3.5.5-2,1.5-.5,1-2.5-.5-2,2.5-1,2.5-3.5-1-.5-.5-4.5-1.5-2.5,3.5-2.5-.5-2,1-1.5v-3l1-1.5-1-1-5-1-1.5-2.5,1-1.5-1.5-2,.5-1-1-1.5,2-2-1-1.5-1-1v-1.5l2-1-2-2-.5-2.5-1.5-1.5-1.5,1-1-2-2-.5v-2l-1-3.5,1.5-5,5-2.5-1-4,2-1.5-1-3.5.5-.5-1-4-2.5-3.5,7-.5,5-1.5,1.5-2.5,5.5-1,5-4.5,1.5-3-.5-3.5,3-3-1-3.5,1-5.5-4-3,.5-1.5-1-3,4.5-5.5h2l1-2.5,2-.5-.5-1-4.5-3.5.5-2.5-3.5-6.5,1-2.5,3-4h2.5v-1l-8-5v-2.5l-3,1.5-3.5-2.5-2.5-5-2-.5-1.5,1-4.5-2.5,1-4-1-3.5-3.5-1-4-4.5-4.5.5-6.5-5-2.5-6-1.5,1.5-5-5-1-2,1.5-4-2-2,.5-3-1.5-3v-5l-2.5-.5-8.5,5.5-4-6.5-1-3,.5-1.5-2-1.5h-3l.5-2-1.5-1.5h-1.5l-4-5.5,1-2-1-1.5-2.5-1-6.5-4.5-5.5,4,1,2-3,2-2.5-1.5-1.5,2.5-11-.5-2.5-2.5.5-2h-4.5l-4.5-5-9.5-5.5-2,1v1.5l-3-2-1.5,3-7-2-9,3-.5-1M379.63,519.87h1l1,.5-1,1-.5-.5-.5-1M375.63,519.37l3.5,1-2.5,1.5v2l-.5.5.5,1,1-.5.5,1-1,.5.5-.5h-1v1.5l-4.5,1.5-3-2-2,1,.5-1.5,3.5-1.5v-1l-1.5-.5v-.5l6-3.5M378.13,522.87l1-1h.5l-1,1,.5,1-1,.5v-1.5M342.13,535.87v-1h.5v1.5h2.5l-1.5.5-1-.5-.5-.5M341.13,528.37v-1.5l1.5-.5-1,1v1.5l-.5-.5M342.13,529.87h2l-1,.5-1-.5M342.13,532.87l.5-1h1l-1.5,1.5v-.5M343.13,596.37l-1,.5-1-1.5v-1.5h1.5l2,1,3,.5-1,2,1,1-2,.5-2.5-2.5M341.63,598.87v-.5h.5v.5h-.5M338.13,597.87h1l1,1v.5l-2-1.5M301.63,610.37l.5-.5v.5h-.5M300.13,609.37h1l-4,.5.5-.5-1-1-1,1,1,1-.5,2-4.5,1,1-.5-5-1-1.5,1-.5-.5v-1l-1,.5v-1.5l-4-1,.5-2-.5-.5-3,1v-1.5l2.5-1.5,11-1.5,6,2.5,1,1.5,1.5.5-1,1.5h1.5M349.63,591.37l-.5,1-1-1,1-.5.5.5M344.63,593.87l1-1.5h1l-.5,1.5h-1.5M354.63,591.87l.5,1h-.5l-4-1.5,2-1,2,1.5M257.13,597.37l-.5,2.5-2,1-1-1,2-3,1.5.5M477.13,531.37l1,.5-4.5,2.5v-2l3.5-1M289.63,601.37h-3,3M290.63,601.87l-.5-.5h1.5v.5h-1M292.63,601.87h-1,2-1M295.63,602.37h-1.5,1.5M488.13,539.37h.5l-1.5-.5,1.5-.5-.5,1M503.13,542.87v-.5l1.5.5-1,.5-.5-.5M360.13,596.87h1v.5l-1-.5M346.63,602.37v-.5l.5.5h-.5M506.13,546.87h.5-.5M347.63,602.87h.5l-.5.5v-.5M507.13,550.37h.5-.5M505.63,551.37v.5-.5M510.63,562.87l-3,.5-1.5-.5,2.5-3.5v.5l2,.5v1.5l1,1h-1M507.13,572.37v-.5l.5.5h-.5M508.13,572.37l.5-.5h.5l-.5.5h-.5M515.13,571.87v-1l1-.5v2l-1-.5M513.13,576.87h-1l-2-.5,1-2,3,.5,1,1.5-2,.5M504.63,580.87l1-.5.5-.5-.5,1h-1M516.63,576.37h.5-.5M518.13,576.87l.5-.5.5.5h-1M518.13,577.87v.5-.5M519.63,584.37l.5-.5-.5-2.5,2.5,1.5-2.5,1.5M524.63,591.37l.5.5-.5-.5M495.13,604.87v.5-.5M499.13,610.37l.5.5.5.5-1-1M501.13,612.37v-.5l.5,1h-.5v-.5M522.63,609.37v-1l1.5-.5v2l-1.5-.5M521.63,611.37l.5-.5-.5.5M526.13,634.37h.5l1,.5-.5.5-1-1M551.63,631.37l.5,1.5-3.5-3,1.5.5,1.5,1"/>
      <path data-code="churapchinskij_ulus" data-title="churapchinskij ulus" class="cls-2" d="M830.63,1229.87l1-1.5-1.5-3,1-3-1-.5v-3l-1.5-2,2-.5-.5-1.5h6l4-3,6-1,1.5-2v-7.5l.5-2,5.5-3.5.5-1.5-.5-2v-1l3-3,6-1.5,2,2,.5,4,3,3.5v1.5l2,3.5,2,.5,1,1.5,2,2,4,1.5.5,1.5-.5,2.5,1,1.5,5.5,3.5,2.5,4.5,2.5,1,.5,1.5,2,1.5,3-.5v-3.5l4-3.5,2.5,1.5,6,1,4.5-1.5.5-2,5.5,1,2.5-3,1.5,1,4-1,1.5,3,4,.5,6,4.5,4.5,6,9,7,.5,1.5-3.5,3-1,3-1.5.5-.5,3-2-.5-6.5,4-6,2-9.5,8.5-3,1-2.5,3.5-3.5.5-1.5-1.5-3-6-3.5-2.5.5-2.5-2.5-3.5-3.5-2.5-2.5.5-1,1,.5,2-1,2,.5,3,2,1-8.5,6.5-10,4.5-2.5-1-.5-2-7.5-.5-5.5-2.5-6-5-1,1-4-5.5-3-1-2.5-4-4-2,.5-4.5-1.5-.5.5-1-1.5-.5-1-1.5,4.5-6.5h-5.5l-3.5-2-3,2.5-2-.5"/>
      <path data-code="ehveno-bytantajskij_nacional_nyj_ulus" data-title="ehveno-bytantajskij_nacional&amp;apos;nyj_ulus" class="cls-2" d="M549.63,878.37l1-2.5,5.5-1,.5-.5-1-1,1.5-3,2.5,1,2-1-1-3-1-1,.5-2.5-1.5-5.5-9.5-1.5-2-3-6-3,2.5-1,2-3.5,1,.5,4.5-3.5,2.5-.5v-1.5l6-1.5,5-3,6-1,2.5-2,6,.5,4-8,2.5-2,4.5.5,1,1.5,2-1,12,.5,4-4,5-1,1.5-2,2.5-6.5v-1.5l-1.5-1,1-1-.5-3.5.5-3v-2.5l.5-1,2,3,2-1.5,3-5.5,5.5,2,3-2h11.5l2-.5,4-9.5,9-6,7-2,2-3,2-5,.5-3,4-1.5.5-2,1,1-.5,4-1.5,4-2,1,.5,1.5,1,2.5,3.5,2,4-.5,2,1,6,6,4,3,5.5,1.5,2.5,2.5,1.5,3,5.5,1,6,2.5,3.5-.5-4,7.5,4-.5,1.5,1,.5,1.5-2,5-3.5,4,1.5,3-1,2-2.5,2.5,1,2.5-1,3,.5,12-1.5,3v4.5l-2,1-1,2.5,1,3-1,.5,2,3.5-1.5,1.5-2-2-3.5-.5-1.5,2-.5,2.5-3.5,5,1.5,7,.5,2h-5.5l-2.5-2-1.5-.5-.5,2.5,2.5,7.5-2.5,4.5-.5,5.5,2,1v1.5l-1.5,1.5.5,1.5,1.5.5,1,3-.5,1.5,1.5,2.5-1,3-2.5,2v2h-7.5l-3.5,4.5h-1l-.5-1.5-2.5,5.5-.5,4.5,3.5,4.5v1.5l-2,3-.5,3-4,.5,2,4.5,2,7.5,1.5,4.5,3,3.5,1,.5-.5,2.5-5,3.5-5-.5-1-2h-2l-2-2-1.5,1.5,2,3,1,3h-9.5l-7,1.5-4,2-4-2.5-.5-1.5-1-.5-2.5-.5-1.5,1.5-.5,3,2,2.5.5,4-3,4-5.5,2-2-4-7,.5-1.5-.5-1-1.5-6.5,1.5-2-2.5h-2l-2.5,2.5-4-5.5-3-3-1-2v-3l3-3.5.5-2-1-1.5-2.5-1-.5-1.5,1.5-2-4-2.5v-1.5l3.5-4.5-1-4-3.5-6,.5-2-2-2.5-1.5-3-2-1v-3.5l-.5-1,1-3-1-2h-2.5l-2.5-2-9.5,2-3.5-.5-3.5-1.5-3.5-6-2.5-1v-2l.5-2.5-.5-3.5-2-5-1.5-2,1-1.5-1.5-1.5.5-2.5-3-2-4-4.5-1-2,.5-1.5-1.5-1.5"/>
      <path data-code="gornyj_ulus" data-title="gornyj ulus" class="cls-2" d="M554.13,1311.37l4.5-2.5,2-14,4-2,4.5,1.5,1.5-1,1-2.5,4.5-3,1-5,7-3.5,3.5.5,5-3.5v-2.5l2-.5,13-1,3.5,2,5-.5,4,1.5,6-4.5.5-4,4-5-2-2,3.5-3,3-1h7l5.5-.5,2-4.5-2-1.5v-2.5l-2.5-5v-3l.5-2-.5-3,3-6.5.5.5,3.5-3h6.5l5-1.5,1-1.5,20-11v-2l3.5-1,1.5-3v-4l1.5-1.5-.5-2,1-3-.5-1.5,11-2,3.5,3,3.5,5,7.5,14,10,11.5,13,2.5,2,4-1.5,3h-3l-3,4-6.5,3.5-.5,2.5-1,3,9.5,6,4.5,1.5,8-2,5.5,6,7.5,14-3,1-4.5,4h-1.5l-2.5,3h-3.5l-3.5,2h-7.5v5l-1,2.5,3.5,4.5-1,1.5v1.5l-1.5,1-1,2.5.5,1.5-1,1.5v1l1,.5-3.5,2-5.5-.5-1,2.5-2,1,1.5,2.5-2,1,1.5,1.5v1l1.5,2.5-1.5,2.5-6.5,4h-4l-5,2-6.5.5-6,6-1.5.5-2.5-2.5-3.5,1.5-.5,2-2.5,1v2.5h-2l-1,2.5,1,5-.5,1.5-6,1.5-2.5,6.5-5,6.5h-8l-1,1.5-5,1-1,4-3,1.5-2.5-2.5-2-3-6-4-6.5-1.5-2.5,1-6-2.5-1.5-2-2-4v-3l-2-1.5-5.5-8.5-3.5-.5-17.5,10-4,.5v-2l-.5-1.5-3,.5-1-2,1-4,2-2-4-6-7-.5-2-2-1-6-1-1-8,.5-1.5-.5-1.5-2.5-4-2.5-1-2-3-4"/>
      <path data-code="jakutsk" class="cls-1" d="M790.13,1247.87h1v1.5l1.5-1-.5-2.5-2-.5v2.5M748.13,1252.37l3-5,5.5-3.5,9.5.5,6,3,6-2,2-2,1-6.5,7-2,2-4,2-1.5v9l2,4-1,1,.5,1.5-.5,2.5,3.5,15.5-1.5,4,1.5,6.5-1,2.5-4.5-.5-7.5-2.5-11.5,4.5-5-.5.5-7h-2.5l-4,2.5-7.5-14-5.5-6"/>
      <path data-code="khangalasskij_ulus" data-title="khangalasskij ulus" class="cls-2" d="M651.13,1370.37l3-1.5,1-4,5-1,1-1.5h8l5-6.5,2.5-6.5,6-1.5.5-1.5-1-5,1-2.5h2v-2.5l2.5-1,.5-2,3.5-1.5,2.5,2.5,1.5-.5,6-6,6.5-.5,5-2h4l6.5-4,1.5-2.5-1.5-2.5v-1l-1.5-1.5,2-1-1.5-2.5,2-1,1-2.5,5.5.5,3.5-2-1-.5v-1l1-1.5-.5-1.5,1-2.5,1.5-1v-1.5l1-1.5-3.5-4.5,1-2.5v-5h7.5l3.5-2h3.5l2.5-3h1.5l4.5-4,3.5-1,3.5-2.5h2.5l-.5,7,5,.5,11.5-4.5,7.5,2.5,4.5.5,2.5,15.5,2,6,10.5-2,2.5,1.5,2.5,1,3-1.5,10,4.5,2.5,5,1,6-2,3.5,9,17-1,2.5-4.5,4h-1.5l-1-1-.5-3.5-1,1-.5,4.5.5,2-4,3.5h-1l-2.5-2-2.5-3-2.5-4.5-5,.5-1.5,2.5-3-2.5h-3.5l-2,2,.5,2.5-1.5,1.5h-2l-2.5,2.5-6.5-4-8.5,2-2-1.5-5-.5-15.5,5h-7.5l-1.5.5-1.5,5.5h-2.5l-5,3-13,3.5-3,2.5-4,7-6,4-1.5.5-5.5-1.5-2.5,2,3,5,1,3.5-2,2.5-2,.5-3.5-.5-2,1.5v12.5l-4.5,3-1,2-2-.5-1-2-3-2.5-18-4,1-6-2.5-2.5-4.5-2.5-3-3.5-4.5-2.5-3.5-5-2.5-1.5"/>
      <path data-code="kobjajskij_ulus" data-title="kobjajskij ulus" class="cls-2" d="M567.63,1204.87v-2l2.5-2-.5-6v-5l1.5-3.5,3.5-2,2.5-3.5,4.5-1.5,4.5-12,9.5-13,5-14.5-.5-2.5-10.5-4.5-1.5-2-2.5-4.5-3-4.5-8-4.5,3-4.5.5-4.5,1-2v-6l-.5-3,1-6.5,3.5-4-1-2,2-1.5,4,.5,8-3.5v-2.5l4.5-6.5,3-2.5,7-.5,2.5-2-.5-3.5,1-1.5v-4l4-2,2.5.5,4-4.5-1-3v-4l-1.5-3.5,1-2.5-.5-1.5.5-1.5h1l2.5,1.5h2.5v-1l-2-10.5,5-3-1.5-3.5-3,.5-3.5-2.5h-2l-.5,3.5h-1.5l-2-.5-2-4-3.5,2-3-3v-2.5l-3-7.5-.5-4.5,1.5-3.5,1-4.5-1-2.5.5-2,2.5-4-1.5-.5-1.5-2.5,2.5-2.5h2l2,2.5,5-1.5h1.5l1,1.5,1.5.5,7-.5,2,4,5.5-2,3-4-.5-4-2-2.5.5-3,1.5-1.5,2.5.5,1,.5.5,1.5,4,2.5,4-2,7-1.5h9.5l-1-3-2-3,1.5-1.5,2,2h2l1,2,5,.5,5-3.5.5-2.5,3.5,1,1.5,4-.5,1.5.5,1.5,6.5,12.5,2.5-2.5,5.5-1,6.5,6.5,5,1.5,6.5,2.5,9-1,.5,3.5,5.5,3.5,1.5,1.5,2-1.5,2,2,2,4,8.5-4.5v3.5l1.5,6-1,9.5,2,1.5.5,1.5h2l2,2,1,1.5,3,1.5h1l2-2,2,2,4.5,1.5,1.5,2,3,2,6.5,9,1.5,1.5,3.5,1.5,2,4.5,3.5,3,1.5,3-.5,3,1,3.5,5.5,1,4.5-4.5v1.5l4,1.5,5,4,2.5,4.5,5,2.5-2,6.5,1,4.5-2.5,5.5v6.5l-3,1.5,1,2.5,2.5.5,1.5,1,1,2-.5,2,2,8-3.5,10.5-9,6-11,5-5,4-7,1.5-2.5,2-18,3-1.5,4,1,2.5,1.5,2.5.5,1.5-2,2.5-2.5.5-5.5-2.5-2.5,5v2.5l-3.5,2.5-1.5,5-6.5-3-1.5,2h-14.5l-1,8,1.5,4-2,9.5-.5,8-1.5,7.5-9.5,3.5-1-3.5-2.5.5-5.5-8.5-3.5-3-11,2,.5,1.5-1,3,.5,2-1.5,1.5v4l-1.5,3-3.5,1v2l-.5.5-19.5,10.5-1,1.5-5,1.5h-6.5l-3.5,3-21,5-5-1-2.5,1-32.5-2.5-1.5-2-1-2.5.5-1.5-1.5-1.5h-2l-1.5-1.5h-7v-2.5l-2-2-.5-2.5-1-2,1-.5-2-3,.5-1-2-3"/>
      <path data-code="lenskij_ulus" data-title="lenskij ulus" class="cls-2" d="M189.63,1612.37l1.5-.5,1.5-3-3.5-2.5,2-3.5v-2.5l1.5-1v-1.5l4-6.5-.5-1-2-.5.5-1.5-1-.5-.5-3.5,2.5-5-.5-.5,3-3-2-3.5,1.5-1v-3.5l2-3.5-.5-1h-1.5v-1.5h-.5v-3l-.5-.5-.5-2,.5-1-.5-2.5.5-.5-.5-2,2-1,.5-1.5v-2.5l-1-1v-1l2.5-2-1.5-1v-.5l2.5-1.5.5-1.5v-1.5l-2-1,1-3.5,2.5-3.5.5-1.5-.5-1,2.5-1.5-.5-1.5v-1.5l-1.5-.5v-1.5l-1.5-.5,3.5-1.5,2.5,1,1.5-2v-1.5l-1.5-3,.5-1-1.5-2.5v-2.5l1-1.5,1-4.5,1.5-1.5-.5-1,1.5-1,.5-2.5,2.5.5,3-2,2,.5.5,1.5,2.5-.5,1.5-2,5.5-2.5h1.5l4.5,4,1,.5,2.5-2,2,2h1l3-3,9.5,2.5,4-3,2-3,1-1,8,.5,3,1,3-4.5,4-4,1-5.5,3.5-4,.5-1.5-.5-2v-1l5.5-3,3-3.5,1-5.5,3.5-3,2.5-6v-8l5.5-4.5-.5-2.5,4.5-2,4.5.5,4,4,7.5-2.5,1-4,1-.5-1-3,4-2.5,3.5-13,2-2.5,2,3,.5,4,1.5,2,4.5,1,3,4-1.5,3.5,1.5,2,4.5-.5,3.5-2.5,3.5-8.5,7-1,3.5-1.5,6,.5,2.5-3,4.5-1.5,1,.5,2,2.5,1,1,3.5-.5,2.5,2.5,4.5.5,2.5,2.5,6-.5.5,1.5,4,3,.5,2,2,.5,2,2.5,9.5.5,1,2-.5,3,2,6.5v2.5l3,3v1.5l.5,1.5,1.5.5,2.5,2.5,1,4,3,3,1.5,4-2,3v1.5l1,1.5,2.5,2,.5,4.5-5.5,11.5,1,4-.5,3-8,7.5-.5,3,.5,4v1.5h-1.5l-1-2.5-5,.5v-1.5l-.5-2.5-1.5-2h-2.5l-5,2.5h-1l-1-1.5-1-.5-3,2-1-2.5-3.5-1-2.5-.5-2.5,2-1-3h-1.5l.5-1-.5-.5h-2.5l-1,1-.5-1.5-.5-.5-5.5,2.5-4.5,3.5-1.5.5-2.5-1-2.5,2.5.5,1v1l-2,1.5-1,2.5,1,2.5,1,.5-.5,2,.5,1-1,1.5.5,1.5-1.5,2v1.5l-3,4.5-2.5.5-1-1-3.5,1.5-1,1.5.5,1.5-2.5,2v3.5l-1.5,1.5.5,2,2.5.5.5,2.5-7,7.5-.5,1,.5,2.5-2,1.5.5,3.5-1.5,3.5-3-.5-2,2.5.5,1-1,2-3,1,.5.5-.5,2-1.5,2-1,1-2-.5-3.5,3.5,1.5,2v1l.5,2-2.5,3,.5,1.5-1,.5-1.5,4,.5,1.5,3.5,1.5-2,3,1.5,2-.5,1.5-1-1v2l-3,3,.5,1v1l-1.5,2.5-3-1.5-2.5,3-1.5-1-1,2-2,.5-1.5-.5-1.5,1v1.5h-2l-1.5,3,.5,2.5-.5.5-4.5,1-.5-2,.5-2h-.5l-2.5,4,3.5,4v2l.5,1-1,1-.5,3.5h-1.5l-1.5-1.5v-.5l-1-3.5.5-1.5-1-1,.5-1.5-1-1.5.5-2-1.5-4.5.5-.5-.5-2.5.5-3.5,3-3h1v-3l-.5-1-2,1-.5-1-1.5-.5-.5,1-2-.5-2.5,3-3,1,1.5-2.5-1-2-1-.5,1-4-2.5-3.5v-3h-.5l-2.5,2v2.5l-2.5,3.5v2l-3.5,5,1,1.5-.5,3-2-1.5-1.5,1h-2l-4,6-5-1.5-.5-2-4,.5-3,1.5-.5,1.5,1,.5-1.5.5-.5,3h-1l-2.5-.5-1.5-2.5-1,.5.5.5-.5,1.5-2,1-1.5-2h-3l-.5-1h-4.5l-2.5,3,.5,2-2,1v1l-1,.5,2.5,3-2,1.5.5,2-1,3.5h-3.5l-2,2-1,2.5-4,2-1-1-4,.5-1.5-1.5-5,3.5-3-3-1.5-4-1.5.5-1,2.5-1.5-3,.5-1.5-.5-1.5v-1.5h-2l-.5-1.5h-2l.5-3-2-.5v-1.5l-.5-1.5.5-1-7,.5-2-1,1-1.5-1.5-2"/>
      <path data-code="megino-kangalasskij_ulus" data-title="megino-kangalasskij ulus" class="cls-2" d="M800.13,1297.37l-2-6-2.5-15.5,1-2.5-1.5-6.5,1.5-4-3.5-15.5.5-2.5-.5-1.5,1-1-2-4v-9l9.5-1.5-.5-2.5,3-3,13.5-.5,2,1.5,10.5-1.5,1,.5-1,3,1.5,3-1,1.5,2,.5,3-2.5,3.5,2h5.5l-4.5,6.5,1,1.5,1.5.5-.5,1,1.5.5-.5,4.5,4,2,2.5,4,3,1,4,5.5,1-1,6,5-3,1-2,3-5,1,1.5,3v2l-1.5,3v3.5l.5,1-9,5-.5,1,1,3-1,4.5,1.5,5.5-2,4v2.5l3.5,2.5-1.5,2.5,3.5,1.5,1,2,4.5,5.5.5,4.5,1.5,1.5.5,2.5-3.5,3.5-4,1-1.5-4-2,3-4.5,3.5-1.5.5-1.5-.5v-1l-9-17,2-3.5-1-6-2.5-5-3-2-7-2.5-3,1.5-2.5-1-2.5-1.5-10.5,2"/>
      <path data-code="mirninskij_ulus" data-title="mirninskij ulus" class="cls-2" d="M26.63,1259.37l1-1,2,1.5,2.5-1-.5-1.5-1.5-1.5.5-1.5-.5-1.5.5-2.5v-2l1-1,1,1,2-.5-1-.5v-1h-1v-1.5l-1-2,.5-.5,3-1,.5.5-.5,2h1v1l4.5-.5-3-2-2-4v-1l-3-1.5-1-.5v-2l2-2,2.5-.5,1-2,.5-3,3.5-1v-2l2.5-4,2,1,1.5-1-3-1.5-.5-5,2-2,.5-3h1.5l.5-1,6,.5,1-3.5-.5-.5v-1l2-2,.5-2.5-8-1.5-.5-1.5.5-2-.5-1h-2.5l1-1-7.5-2.5.5-1.5-1-.5,1.5-1-.5-1,.5-.5-1-.5.5-.5-1-1,.5-2,1.5-1-1.5-1.5.5-2-.5-2h.5l-1-3.5h.5l-.5-3.5.5-1.5-1-1-1-2.5-1.5-.5.5-1.5-1.5-.5v-.5l-1-.5.5-1.5-1.5-1.5-3.5,1-3.5-3,.5-1.5-.5-1.5.5-1h-.5l.5-.5-.5-1.5.5-.5-1-.5.5-1-1-2,.5-1.5-.5-1,1.5-4,2-1,2-2.5-1-1.5,5,.5,7,3.5,3-2,1-2.5,2.5-.5,1.5-3.5,3.5,3,4.5,1,6-1,1.5-2.5,8-.5,2,.5,2.5,3h1.5l1-1.5-1-6.5,7-10-3.5-1.5-1-2,8-2,5.5-4.5,1.5,1-1-2.5,2.5-1.5,3.5,3.5v1.5l-1.5,1.5v2l.5,2.5,3,3,5.5-.5,4,5-1,3,4.5,3,1,2.5-.5,8.5,1.5,6.5,1,1.5,4-1,.5-3,5-2,1.5-3,2-1.5,3.5-.5,3-5.5,5.5-2.5v-2.5l-1.5-2.5,1.5-3h5l2-5.5,3.5-2.5,7.5-1,4.5-4.5,5,1,4-4.5,8-1.5,4.5-3,6.5,2.5,3-1,1.5-1.5,7.5-.5,2,2.5h3.5l1.5,3,5,2,.5,3,2-1.5.5,2.5,2.5,1,.5,4,3.5,5.5v1l2,1.5v4l.5,2v2.5l3,3,2,.5,3,7.5-2,2.5h-9l-2,2-2,2.5-.5,5.5-2.5,3-2.5,5.5-.5,2,1,3.5v.5l-3.5,1,.5,2-5,2v2l1.5,1.5h4l2.5,1.5,7-2.5.5,1.5-1,1v1.5l1,1.5-.5,1.5,2,1,.5,4.5-.5,2-.5.5-2.5-1.5-3,1.5-.5,1.5v2l1.5,1,1.5,3.5-1,1.5,1,2v1l1,.5.5,1.5,2,.5,3.5-2,1.5-2.5,1.5,1,3.5-.5.5,1v1.5l.5,1.5,1.5.5,1,1.5,3-.5,2,1.5h2.5l1.5,1.5,2,6.5,4.5-2,4,.5,7.5-1.5,3.5,3.5,1.5,4.5.5,4,1.5-.5,1,1-.5,2.5,1,2,3-1,.5,2.5,3.5,3.5-.5,2,.5,2.5,1,2.5,2,1.5,1,2.5.5,4-.5,2,1.5,3.5v1l-1.5.5.5,1.5-1,1h-4v2.5l.5,1-1.5,2.5-6.5,2.5-4-2-.5,5.5,3,3.5,5.5,2.5,1.5,7.5,4,6.5-3,4-.5,3.5,3.5.5-.5,1.5v2l1.5,2.5,1.5,1h3.5l2,1,3-.5,2.5,4.5,2,1.5,1.5,4.5,5,5-2.5,4-5.5,2.5-1-1-2-4.5-1.5-.5-3,.5.5,2.5-.5,1-1.5-1-1.5-2.5-6.5,1-2.5,7.5-2.5,1,.5,1,5,3,3-1,.5-1.5-.5-1.5,1,2,2-1,1,1.5,1-1,.5,3,.5,1,2-1,1.5.5-1.5,1.5v3.5l2.5,4-1.5.5,2.5,2.5.5-.5-.5-1.5h2v1.5l2.5,2-2,1,2,1.5v1l-2-.5.5,1h-1.5l1.5,2,.5,1,1-.5,1,2h2.5l1.5,2,2-1v2l1.5,2-1.5,1v1l3-1,1,1-1.5,2,1,1.5,2,.5.5,1v1.5l2.5,1.5,1,2,2.5.5,3,3.5,1.5.5,2-.5,1,1.5v1l3,8,3.5,1.5-.5,2,1,4.5-2.5,3.5v1.5l2.5,1.5-2,2.5-3.5,13-4,2.5,1,3-1,.5-1,4-7.5,2.5-2.5-2.5-3.5-2h-2.5l-4.5,2,.5,2.5-5.5,4.5v8l-2.5,6-3.5,3-1,5.5-3,3.5-5.5,3v1l.5,2-.5,1.5-3.5,4-1,5.5-4,4-3,4.5-3-1-8-.5-1,1-2,3-4,3-9.5-2.5-3,3h-1l-2-2-2.5,2-1-.5-4.5-4h-1.5l-5.5,2.5-1.5,2-2.5.5-.5-1.5-2-.5-3,2-2.5-.5.5-1.5-1-1,1.5-4-1-2v-2l-1-1.5-3.5-1-2.5,3-3,.5-3.5-3-1.5-4-4-2-5,1-3-.5,1.5-3-.5-1v-2.5l1-2.5-2-1.5,1-3-.5-1.5.5-1-5-6.5h-1.5l.5-3h-2l-1-2-1.5-.5-.5-1.5.5-2.5h-2l1-.5-1-1.5,1-2-1.5-2-.5-1.5,2-1.5,1-3,1-.5v-1.5l1.5-1.5-.5-1h1.5v-1.5l1-1v-2l.5-1-1-.5,2.5-4,1-.5v-2l-3.5-4.5,2-4-2.5-1,.5-2-2-.5v-2.5l.5-.5-.5-1.5-7.5,1.5-4-1-1,2-2,.5-1-3-3-1-1.5-2v-1l-1.5-1v-1.5h-1v-1.5l4-1.5-.5-.5v-3.5l2.5-2v-1l-.5-.5.5-1.5-1-1,1-2v-1.5l4.5-3v-1l-2-2v-1.5l-2-1.5-1.5.5v-1.5l-2-2,1-3.5h-2l1.5-.5-.5-1v-1h-1.5l1-1-.5-1,.5-1.5h-1.5l.5-2.5h-1l.5-1.5h-1l-1-2.5v-1.5l1-.5-1-3h-1.5v-2.5h-.5l-.5-1,1-1-1-2-3,1-1-.5v-1l1-.5-2.5-2.5v-1.5l-3-2.5v-1l-.5-.5.5-1-.5-.5-3.5-2-6,1-5-2.5-2,1-1.5-.5v-.5h-3l-5.5,2.5-6,1-1-3.5,1.5-1.5,1.5.5,2-3.5-1-6v-1.5l-.5-1,.5-1,2-1,1,1,3,1,3.5-2,1,1.5h1l1.5-2v-1.5l1.5-.5v-1.5l-2.5-1.5v-1h-1l1-1.5-.5-1,.5-.5v-1l-.5-.5.5-1.5-1-1.5-4-1.5-1-1.5.5-1-3-2,1-2-.5-.5,1-1.5-2.5-1v-1.5l1.5-2-2-.5v-1l-1-1.5-2.5-1-.5,1,.5,1.5-1,2-5.5-.5-3,2.5-.5,3,.5,2-2.5.5-.5-1.5-1.5,1-2-2.5-4.5-1.5v-1.5l-2.5-1.5-4.5,1-1,2-2.5,1.5-3.5-2.5-.5-3h-4.5l-.5-.5v-1l-4.5-1.5-1.5-2-3,1.5h-2.5l-1-3.5-1.5-1.5-1-2-2-.5-1,1.5,1.5,3-.5,1-6,1.5-1,1h-2l-2,2-1,.5-1.5-.5-1-1.5,1.5-1v-2l-1.5-.5-1-2-1.5-1-3,4.5-1-1-3,1.5-.5-1.5,1-1.5-.5-1.5-1-2.5-1,.5-.5-1.5,1-3-2.5-2.5"/>
      <path data-code="momskij_ulus" data-title="momskij ulus" class="cls-2" d="M884.63,812.87l-.5-1,4.5-4-.5-2.5-1.5-2-.5-3.5h-6l-1-2.5-1-2-4-3.5,7-1,1-1.5,2,.5,3-1.5,5.5-11-1-2.5,1.5-1v-4l3.5-5.5v-7.5l9-2v-3h3.5l2-1,1,1,2.5-3h4l4.5-3.5h7.5l3.5,5.5.5,2,2.5,2,6.5,3h4.5l5.5,1.5,17.5-11,4,1.5,3-1,7,2.5h9l3.5,4.5,2-1,3,2,3.5-1,4,3,.5,1.5,4.5-1,1,2.5,9-1.5,1.5.5,2.5,2.5h2.5l2.5-2,5.5,2.5.5,1,3-1,6,1,1.5,1.5,4-5-1-2,1-2.5-2-5.5,1-5.5v-4l-2.5-7v-2l2-8.5,3-6.5.5-4.5,4.5-.5,5-4.5,2.5-1.5,3,.5,4,2.5,7-2.5,7.5-6-1.5-2-2.5-1.5-1.5-2.5-1-2.5-3.5-.5-4.5-4.5,2.5-2,3.5-.5,1.5,2.5h1l3.5-2.5,2.5,4,4,.5,2.5-4,3.5-3,1.5-6.5,6.5-.5,2,5,1.5,2,4-4,4-.5,2.5,1,.5,4,2,1,.5,5,3,3,1.5,5.5,2,1.5,1-1,.5-2.5,4.5,5,4,2,2,1.5.5,2.5-6.5,5.5-3.5,5-1,3.5-2.5,1.5-5,15.5v2.5l1,2.5,3.5,4.5,3.5,3,1,2-1.5,3.5,1.5,1.5.5,5.5,1.5,2,4,1.5,2.5,2.5,8,3.5,4,1,5-.5,7.5,4,10.5-2,2.5,5h1.5l2.5-1.5h3.5l1,1.5,7,4.5.5,2v2.5l3,1,3-2.5,3.5,2.5,2.5,3.5,4.5,2.5-1.5,1.5.5,1.5,1.5,1-.5,2.5,2.5,2.5-1,3.5-3.5,1-2.5,4,1,3,2.5,1.5,1,2.5-2.5.5-.5,1.5,4,4.5,1.5.5-1,1,2,2v5.5l1,1h5l.5,3.5-.5,1,1,2.5-.5,1.5-2.5,1.5v2h1.5v1l1,1v1l1,.5.5.5,1-.5,1,2,2.5-1,5,2-.5,2,.5,1,1.5.5v1.5l-1,.5,1,1-.5,3,1.5,1.5v1.5l2,1.5-2,2.5v.5l1,1.5-.5,1,.5,2-3.5,1.5v-1.5h-1v2l-2,1-1.5-1.5.5-1.5h-1.5l-2.5,1.5-.5-1h-1v-1.5l-1.5-.5,1-2.5-.5-2-5-2-.5,3-2,2-2.5,3.5.5,1h1.5v1l1,2-1,1.5.5,1h-4.5l-4-2h-3.5l-8.5,4-5.5.5-4,2.5h-2.5l-2,3-5-1-2-2-8-2-4-2.5-1.5-.5-4,4-4-.5-3,3.5h-2l-7-3.5-3.5,3-3-1-5,2.5-1.5-1.5-7.5-1,2-6-1.5-2.5-3.5-2-6.5-1.5-3,1.5-1.5-2.5-6.5-5-1.5,2.5-3,.5-.5,1.5-3-1-2,1-1.5,3-5-.5-3.5,2-1-2.5-4.5.5-2-.5-1,1-4.5.5-2.5,3-2-.5-2-4-2.5-1.5-2-1h-3.5l-2,.5-1,3-2.5-.5-13.5,5.5-1.5-1.5-5,2-3.5-2.5-1.5.5-1,2-6,2-1,1.5-2-1.5-1,1.5-2.5-1-6.5.5-3.5-2-.5,1.5,2,2-5.5,1-3.5,2-.5,2.5h-5.5l-3.5,2-5.5-1-.5-2.5-1-.5,1.5-7.5-1-3-1-1-12-3v-3.5l-1.5-3.5-1-1-3.5.5-4-1-2-2.5v-1.5l-5.5-2-1.5-1-.5-1.5v-2l5.5-5-1-3,1-2-1-1.5,4.5-1.5,1.5,1h5.5l-.5-2.5.5-3.5-1.5-1.5.5-1.5-.5-.5-2-1-2,.5-1,2-1.5-.5-1-2-1-.5-1.5-4.5-1-1-5.5-2-4,1-2-2.5h-2.5l-1.5-2-2.5-1-5,1.5-4.5-.5-1-1.5-1.5-1-1-2-3.5-2-.5-2.5-1-1-4,1-1.5-1-3,2.5-2.5-2-5.5,2-2,1.5-3.5-2.5-.5-1.5-1.5-1.5-1.5-.5"/>
      <path data-code="namskij_ulus" data-title="namskij ulus" class="cls-2" d="M726.62,1247.23l1-3,.5-2.5,6.5-3.5,3-4h3l1.5-3-2-4.5-13-2.5-10-11-5.5-10.5,2-.5,1.5,3,9.5-3.5,1.5-7,.5-8.5,2-9.5-1.5-3.5,1-8.5,14,.5,2-2,6.5,2.5,1.5-4.5,3-3,.5-2.5,2.5-4.5,5.5,2.5-3.5,8.5.5,1,6,1,1.5,1,1.5,2-2,.5-.5-1v4.5l1,2.5.5,4,2,2,1,2.5.5,1-.5,1,4.5,6,1.5,4,.5,4v4l2.5,2,3.5.5,7-1,5,2.5-2,1,2,3-3,5-3,1.5-2,5,1,6,3.5,2-2,1.5-2,4-7.5,2-.5,6-2,2.5-6,2-6-3.5-9.5-.5-5.5,3.5-3,5.5-8.5,2-4-1.5-9.5-6"/>
      <path data-code="nerjungrinskij_ulus" data-title="nerjungrinskij ulus" class="cls-2" d="M576.12,1695.23l.5-5.5,1-2h2.5l.5-3,1.5-2.5-.5-1.5.5-2,3.5-1,2-3.5,3.5,2,4-3.5,3-.5,1.5-3,3.5.5,2.5-2h3l3,2,1.5,2,4-1,4.5,2.5.5-4.5h2l6.5-5,.5,2,5.5-1-.5-2.5v-2l1.5-1.5,2.5,2,5.5-.5,5,1.5,1.5,2,1,5,9,7.5,7.5.5,3,2,2.5-2h3.5l-1.5-2.5,1.5-2.5-.5-1.5-4-1-2.5-3.5.5-1-3.5-2-.5-1.5,2-6,5-.5,1.5-2,1.5-5.5-1-4,1-3-1-1-2.5.5-1.5-3,1.5-1.5-.5-2,2-.5-1-7.5,2.5-2-1-6.5-1.5-5,1-4.5-1-3.5,3.5-4-.5-2.5,2-6v-2l-1-1.5-5,1.5-3.5-3.5,2-3.5-1-1,1-2.5,4-3.5,5.5-.5,2.5,1,1-.5,2,1h5l2-1.5-.5-2h3l-.5-2h5.5l-1-1.5-2-1,2-2-1.5-2.5,3.5,2.5,3-5-1.5-1.5-1.5.5-1-2,.5-.5,6,2,.5-1-1-1.5v-2l-1-1.5-1.5-2.5,2.5-1,.5-1-.5-1,6-3.5,6-1.5,2,1v1l-2,3v5.5l-5.5,5,3,1.5.5,3.5-.5,1,1.5.5.5,1-.5,3.5,1,2,.5,4.5v1l-2.5,1-1.5,3.5,1,3,3,.5,1.5,2.5v1.5l-1,2,1,2.5-2,1-.5,2.5,2,2,2.5.5,2.5,4,2,.5,1,1h3l3,3,4,1.5,10-7,4.5,2,1,1.5,2-.5-.5-2.5,1.5-2.5-1.5-6,1.5-1.5h2l.5-1-1-2v-1h8.5l1,1,1,3.5,3,2h6.5l2,2,2.5.5,3,2,9.5-2,4.5-3,1.5,4,2.5,1,17-2.5,3,1,1.5,1.5v2l2,4,4,5,3,2.5,5.5,1,4,2.5,2,.5,3.5-7.5,1.5-1,1.5-.5,6,3,.5-3,3-2,5,.5,2.5,1.5,2.5-1,3,1,1.5-3,2-1.5-.5-2.5,2-4.5,8.5-1.5,1.5,2.5,4-1.5,2,1.5,6-5,.5-1.5,4-1.5,4-5.5,7-3,12-1.5,4,2,.5,2.5,2.5,2,.5,2,1.5-3-.5-1-.5-1.5.5-1.5,3.5,1.5.5,1.5,4.5,2.5,3.5-.5,2-2,2-4.5,2.5-2.5,2.5-10.5,5.5-4,2-3.5,5.5-3,2-3.5,3.5,1.5.5.5-1.5,1,1.5,1.5h1l.5,2,1.5-.5,2,2h1.5l.5,1.5,1-.5v1h1.5l.5,2h2l1,2,1.5-1,1,2,2,.5-.5.5,1,2h1.5l.5,2-2,.5,1.5,1.5-1.5.5,1,1-2.5,2.5,2,.5-1,2,1,.5-.5,1,1.5.5v1l1,1.5-1,3,5,1.5-.5,1-1,1-1-1.5v3l-2-1-.5-3.5-2.5,1-.5-1.5h-3l-1,5,2,1.5v2h-1.5l-.5-1h-.5v-1.5l-2.5-1.5v1.5l-4,1,1,1.5-1,2.5h.5l.5.5-1,.5.5,1-.5.5.5,1-1,1,.5,1v1l.5-.5-.5.5.5.5v.5l2,2v1l1,1,.5,2v4.5l-2,4v2.5l1.5,3.5-.5,5,2.5,3-1.5,4,1.5.5,2,4,3,1,1,4,1.5,1.5v1l-2.5,1.5-6-1-2,1h-2l-3.5,3.5-4.5.5-1,.5.5,1-3,.5-3.5,3.5-2.5-.5v1.5l-2.5,1-2.5-2-2.5-1-.5,3-2,.5-1.5-1.5-2.5,2-2-1-.5,1.5-3,3-2-1-.5,3.5h-2l-1,2-.5-1-1.5,1.5-1.5-.5-2,3-4,2,.5,2,3,2.5.5,2.5,1.5,2-.5,2.5-3.5,3-2-.5-1.5,1.5-1.5-1,.5,1.5-1.5,1.5-1-1.5-2.5.5-.5-1v-2l-1-.5-2,2.5-4,1.5-2-3-4-1-2.5-2.5-2.5-.5-3,1-4,4-8,3h-1.5v-1l-1.5-2h-2l-1.5,1.5-1,3.5-2.5,1.5,4,4-3.5.5-1,2.5-1.5.5-.5-1-3-.5-.5-1.5-1.5-.5.5-.5-1-2-2,1.5-3.5-1.5-1,2-6,1.5-1,1-.5,1.5,1,1,.5,2-2,2h-2.5l-1.5,2.5-2.5-2v-1.5l-.5-.5-3,2-2,3.5,1.5,1v1l-2,2-2,.5-1.5-1.5-2,1.5-1.5-1.5-6.5,4-1-.5v-1.5l-1-1.5,2.5-1-1-1.5h-2l-1-1.5.5-.5-2-1-1.5,1.5-1-3-6-.5-6,2.5-2.5,5-1.5-.5-1-1v-1l-2.5-.5-1-2.5-1.5-1.5-3.5.5-3.5-1-5,3.5v2h-2.5l-1,1v1.5l-5-.5v-1l-2.5,1.5-3.5-3h-2.5l-2,4.5-2,.5-2-1.5-1,.5-.5-2.5-2.5-2-1-4-2-1-5.5.5.5-1.5-1-1.5-.5-1.5-2-2.5-6.5-2-4-5,.5-1.5-1.5.5-1.5-1.5-4.5-1h-2l-2,2.5-18,3-1.5-1-1.5.5-1-1-2.5-1-1-1.5-4.5-.5-1-1v-1l-1-.5-2.5,1.5v1l.5,1v1.5l1,.5-1,2.5h-2.5l-1,2.5h-3l-3-4-2-.5-2-2.5-5.5-.5-3-2.5-2.5-.5.5-1.5-2-1-6,.5-1,1.5-2.5,1.5h-6.5l-2.5,2.5-1-1.5.5-2-2.5-3.5h-2.5l-1.5-3v-1.5l-2.5-2-2-1-10,2-1.5,1.5-4-3.5h-3.5l-3.5,2.5v1h-4.5l-2,2-2.5-.5-8.5,3.5-1,3-4,5.5-1.5.5v1.5l-3.5.5-2.5,2-1.5-1-2.5-4.5-5,.5-2.5-2-.5-1-1-1.5"/>
      <path data-code="nizhnekolymskij_ulus" data-title="nizhnekolymskij ulus" class="cls-2" d="M1241.62,261.73l2-1-3,2.5-1-1.5h-1l1-1.5,2,1.5M1239.62,264.23l-.5.5v-.5h.5M1228.62,282.23l-2.5.5v-1h-.5l-.5-2.5-1-1h-1.5v1.5l-.5-1-1,.5-.5-.5,1.5-1.5,4.5-1v.5l1,.5.5,1,3.5.5-3,3.5M1253.12,267.23l1,.5-5-.5-2,1-1-2-.5-.5.5-.5,4-1v1.5l2.5.5.5,1M1255.62,270.23l1,.5-1,.5-.5-.5-.5-1,1,.5M1272.12,259.73l-2,2.5h-3l5.5-4-.5,1.5M1290.62,334.73l-1,1-1.5-.5v1h1l-1.5.5-.5-1.5,3.5-1v.5M1104.62,483.23l-3-22-1-.5-4-3h-1l-1.5-3.5-6,.5-.5-1,3-1.5-.5-1,3-.5-1-.5-.5-2.5-1,.5v-2l-2-.5,2-5.5-1-1.5-2-.5-2.5,1-3-1.5-1.5-5.5-2,.5-2.5-2.5-1-2,1-3-1-2,.5-4.5-3-1-1-2-.5-.5.5-1v-2l-3-2.5-.5-2.5h1.5l7-5,11.5-13.5,1.5-1,1.5.5,2-5,9.5-13.5,23.5-28.5,12-9h1l.5,1.5,1-.5-1-1.5.5-1.5,7-5.5,18-10,15-6,17-4,17-.5,9,2.5,9.5,4.5,6,4,5.5,4,2,7.5,1.5,3.5-4.5,3,6-2,1,3.5,1,2,1,1,.5,6.5,2.5,3,4,1,.5.5.5,1h.5l15-4.5,1,1v2l6,3v-1h-1l-4-3v-2.5l3-2.5,8.5-4h2.5v-1l-1.5-.5.5-.5,2.5-2,.5.5-2,1,.5,1h1.5l-1,2.5,3-1,1,2v2.5l1,.5v1.5l-.5,1,1,2,2.5-.5v1.5l1.5,1.5,5.5,2.5.5,2,2.5,1.5.5,2.5,3,2,1,3,1.5-2.5-3-2-3.5-5.5-1.5-.5-2-2.5h2v2.5l1.5-.5-1-1.5-5.5-3-3-3,2-10h-1l1-1h-1.5v-2.5h-2.5l1,1v1.5l-1.5-2,4.5-4,4,.5,1.5,3.5,2.5,1v2l2,1-1,3,.5.5h-1l-.5,2.5v-1h-.5l-.5,3,2.5,1.5.5,2.5,2-.5,1,.5.5,4,2,1,1.5-.5.5-.5h-1l-1.5-2.5v-2l-.5,2-.5-2.5-2.5-1-1-1,1.5-.5-2-1,.5-1-1-1,2-3-1-4h-.5l.5-2.5v-2.5l2-5.5-1.5,1-1-1-.5-1.5,1.5-1-1-1,1-1,.5,1.5v1h.5v-3l1.5-1v-1l-1.5-.5-.5-1,1.5-.5,1.5-2-.5-1.5-1.5-.5,3-1,1.5,1-1.5,2.5v2.5h3.5l-1,2,1,.5-.5.5,5.5,2,1,2-.5,2,5.5-1.5,1,1,.5,2,3,1h5l2.5,1.5,1.5.5,1-1,.5,2.5-1.5,1.5,1,1.5-2,3.5,1.5,2.5,1,.5h2v1l1,1,.5,1.5,7.5-.5,1,.5,1,1,4,1-1,1.5,1.5,4-3.5,2,5,4.5,3-.5,3,3,1.5.5.5,4,1,1.5-.5,3,3,1.5,1,3.5,1.5,2.5,1.5.5-.5,5.5-6,1.5-1-.5-3,2.5h-2.5l-1,2.5-1.5.5-2,2.5-3-.5-4,3.5-3.5,6.5-1,6-4.5,7.5-6.5,6.5-3.5,1-4.5,3-.5,2-3,2.5v2.5l1,1v.5l1,.5-.5,1-1,.5-1-.5-2.5-.5-3.5,5.5.5,1-2,.5-2,2,.5,2-3,4-.5,5-3,.5v1.5l-3.5,1-3.5,7.5.5,1-1,2-1.5-.5-3.5-2-2.5-.5-3-11-4-2h-3l-2.5-5.5-3-1-2.5-2-12.5,2.5-4.5,3v4.5l-3.5,4h-4.5l-6,3-4,.5-1.5,6h-2l-6-3-10.5,2-8,9-1.5-.5v-1.5l-1.5-2,.5-.5-2.5-2.5v-1l-1.5-2.5v-1.5l-2,.5-1.5,2.5.5,1.5-3.5.5-4,4h-2l-2-3.5-6,1.5-6.5,6-3,4.5-17.5-.5-4.5-4-11.5-2,1.5,3-2.5,2,.5,1.5-1.5,2.5-1.5-.5-1.5,2-.5-2-1.5.5-1-1.5h-1.5l-.5,2-1.5-.5-2,4.5-2,1-.5,2h-2.5l-.5,3h-3.5v-1l-3.5-3-8.5.5-4.5-1.5-5-6M1309.12,318.73l-.5-.5h.5v.5M1307.62,327.73l-3.5-2,2.5-4.5,2-1.5-.5,3,2,1.5,2,1v1l-2,2.5-2.5-1M1299.12,340.73v-.5l1-1v1l-1,.5M1313.12,330.73l-.5,1-1.5-1v-.5l.5,1,1.5-.5M1298.62,345.73v-.5.5M1304.62,350.23v-.5l1,1-1-.5M1317.62,351.73l-.5-1v-.5l.5.5v1M1298.12,338.23v-.5h1l.5,1-1.5-.5M1297.12,338.73v-.5.5"/>
      <path data-code="njurbinskij_ulus" data-title="njurbinskij ulus" class="cls-2" d="M281.12,1228.73l-.5-3,1.5-2.5,2-.5,1.5-5.5h2l1.5-2.5,1.5-.5-1.5,1.5.5,2,1,1.5,1.5-2-.5-3h2.5l.5,1,.5-1-5-4.5-1.5-2h2.5l3,3,1.5-.5-2-2-1.5-2.5,2-1.5,2,1-.5-2-2-2v-1l3.5-2v-2l1.5-1h2v-1h2l1,1,1-.5.5-2,3,1,1-2-.5-1.5-4.5-1-1-2,3.5-.5-3-1.5v-1l4.5-.5,4,1,1-1-2.5-3,1-.5,3.5,1.5,1.5-.5,1-2.5,3,1v-3.5l-3-1.5,1.5-1.5,3,3,3,1,.5-.5,3-4,2.5-.5v2l-4,2,.5,2.5,2,.5,3-3,1.5-1,3.5,1.5,2-2.5,1,1.5v2l-2.5,1-.5,1.5,2,1.5,2.5-1.5,2-5.5,1.5,1-1-1.5.5-2.5,1.5,2.5.5-1.5-.5-1,1.5-.5-1-3,.5-1,1,1,3-2-1.5-1,.5-1.5-1-1.5h2l-1.5-3.5,1-.5,1,3,.5-2h2v-1.5l2.5-.5-.5-2.5,1.5-1.5-1-3,1.5.5v-2l-.5-1.5-.5-1,1.5-1-.5-1.5-2-1-.5-2,2.5-1.5,2-3.5v-2l1-2.5,2-2,.5-5.5,1-1.5.5-2-.5-1,1-1.5,7.5-1.5,4-3,2,.5,1-1.5v2h1l-1,1.5,1.5.5-1.5.5,1.5,1v1l3,.5-.5,1h1.5l3.5,2.5-1.5,2,1.5,1.5.5-1,.5,1.5h.5v1.5l1,.5-1.5,4.5,5.5,2v.5l.5.5-1,.5,2.5,2-1,2,2.5,2v2l1.5,1,.5,3h1l-1,1.5,10,4.5,1,1.5.5,3,1.5,1.5v4l1.5,1v1.5l1.5,1.5v1.5l1,.5-.5,5,1.5,2.5-.5,1.5,2.5,2v2.5l-1.5,1,2.5,2-1,1,1,4-1.5.5.5,3,2.5.5.5,3v1l3,4-1.5.5v2l2,4,4,3-.5,1,.5,1.5,3,2.5,1.5-.5.5,2v1l1,1.5h2l7.5,8,4,2,2,3,1,2h-1.5l-.5,7.5,2,3.5,6,5-1.5.5,1.5,2-2.5,4-1.5,7-3,3v2.5l-2.5,2.5v2l2,5,2.5,1,1,1.5.5,2.5h2.5l1,2.5v2l3,2,.5,1.5.5,1.5-1.5,2v2l3.5,3.5.5,1.5-.5,2.5,1.5,3-4.5.5-3,2.5-5-1.5-.5,2-15-2.5-4-3.5-6.5,2.5-1.5,3h-2.5l-3.5-3.5-4-.5-3-1.5-.5-1.5-4,1-4-2h-2.5l-1,1h-4l-6.5-1.5-6.5-2.5-10,2-11,5.5-5-1-3.5-6-3,2.5v-2.5l-2.5,1.5.5-3-2,1-1.5-2-2,1.5.5-2-3.5-3,1.5-2-1-1.5h-1.5v-1.5l-4,.5.5-5-1.5.5.5-3.5-2.5,1.5-3.5-1,2.5-2-1-1-1-3.5,3.5-2h-5.5l-2.5-4h-2.5l.5-1.5,2-1.5h-2l-1.5-3-2,.5-2-1.5,1-.5.5-2.5-2.5-2-2.5-.5-6-5.5-2.5.5-1-2.5-2,.5-1-1.5h-1.5l-1-2-4.5.5-3.5,3-3.5-1-1.5-4,.5-2-.5-3.5-1-2.5-2-1.5-1-2.5-.5-2.5.5-2-3.5-3.5"/>
      <path data-code="ojmjakonskij_ulus" data-title="ojmjakonskij ulus" class="cls-2" d="M974.62,942.73l.5-4.5-1.5-5.5,1.5-1.5v-1.5l-1-1.5v-1l-1-1.5,1-8,2-3v-4l-1.5-4.5.5-1.5,3-2,2.5,1,1-3,.5-4.5,3.5-2,5.5-.5.5-2,3.5-2.5,5.5-1-2-1.5.5-1.5,3.5,2,6.5-.5,2.5,1,1-1.5,2,1.5,1-1.5,6-2,.5-2,2-.5,3.5,2.5,5-2,1.5,1.5,13.5-5.5,2.5.5,1-3,2-.5h3.5l2,1,2.5,1.5,2,4,2,.5,2.5-3,4.5-.5,1-1.5,2,1,4.5-1,1,3,3-2.5,5,.5,2-3,2-.5,3,1,.5-1.5,3-.5,1.5-2.5,6.5,4.5,1.5,3,3-1.5,6,1.5,3.5,1.5,1.5,3-2,6,7,1,2,1,5-2.5,3,1,3.5-3,6.5,4,2-.5,3.5-3.5,4,1,4-4h1.5l4,3,8,2,2,1.5,5,1,2-2.5,3,.5-.5.5h.5l1,2.5.5,2.5,1,1.5v3.5l-.5,1.5,1.5,2-.5,2.5.5,1.5-3.5,3.5-1.5,4-2,1-4,7v1.5l4,.5-.5.5,2,3,.5.5,1,1v.5l1,.5v2.5h-1v1.5h-.5l1,.5-.5,1.5.5,1.5v4.5l2,1-.5,2,2,2.5,1.5,4-.5,1.5,1,1v1.5l.5,1-1,1v5l2.5,3,.5,2,5.5,5.5-.5,1.5.5,1,2.5-.5,3,3-.5,1,2,1,2,2.5,1,2-.5,1,2.5,5,3-.5,1.5,1-1.5,1.5.5,1.5,3.5,2-1,.5v2l2,.5,1.5,1.5,1.5.5-1,4h-4l-.5,2.5,1,1.5h-2l-.5,1,3,2,.5,1.5v1.5h.5l1.5,2,2,.5v1l1,1-1,1,1.5.5-1.5,2.5,1,.5-.5,1.5-1,1-2-.5v1.5l2,1-.5,2,1,1.5-3,1.5,1,1.5-2.5,5,2,3-1,2.5.5,2-1,2.5,2,1.5v1.5h1l-1,1-.5,2.5h1v.5l1,1-2,3h-1.5l.5,3.5h-1l-1.5,3,1,1.5-.5,1.5-3-.5v2l-2-.5-3.5,2-.5-1v-.5h-1v-2l-1.5-2,.5-1.5-1-1v-1.5l-2.5-.5v-1l-1-1-.5.5-.5-1.5-1-1.5-1,.5v2.5l-2,2,.5,1,1,1,.5,1-2,1.5,1,.5-.5,1,.5.5-1,1.5-.5-.5v-1l-1,.5-.5-2-1.5-1.5h-1v-2.5l-1.5-1.5.5-1.5-5.5.5-1,1v2.5l-3,.5-1.5-.5-1.5-1.5v-1l-2.5-.5-1,1.5-1,.5-.5,1.5,1,1h1.5v7l-1,.5,1,1.5v1.5l1,1-1,1.5-1.5-.5-.5,1-3-1.5-1.5,1-.5-1-2.5.5-.5,1,.5,1-4,6.5.5,2-3-1.5v-1.5l-1.5-1.5-4,1.5-.5-2h-1.5v-1l-3-.5-1.5-1.5-1.5,1v3l-1-.5-.5,2.5-2.5-.5-1.5,3.5-2-2.5.5-1-.5-1.5-3.5,2.5-1.5-1h-2.5l-1-1.5-2.5.5-3-5-2.5-2h-3l-.5-1h-1l-1-1-2-.5-2.5-3-1.5,2.5-2-.5-.5,2-2.5-1.5-1-2-1.5-1-1.5,2-2-1-1.5,1-1-1h-1.5l-2,2.5.5,1.5-.5,1,1,.5.5,1-1,.5.5,1v1.5l-3,2-4-4-.5-1.5-1-1-8.5-2-1.5-2.5-2.5.5-.5-1.5-1.5-.5h-2.5l-5,5v3l-1,.5-.5-1.5-3.5-2-2.5-3-4.5,1.5-1-1-.5-3,1-7-1-.5-3,1.5-1-1-1-2,.5-2.5-3-3.5-.5-1.5v-2l-2.5-3v-5l-1-3,3.5-5.5v-4l3.5-8.5v-2l7.5-5.5h4l-3-4-.5-3-1.5-1.5-.5-3-1-1.5-4,.5-2-6-.5-2,1.5-2v-1.5l-2-2,.5-3.5-1.5-8.5-1-1.5-4.5-3.5-7,.5-4-2.5-2,.5-2-2-5.5,1-4-.5-.5-2,4.5-6.5,1-4-3-4.5-1.5,1-2.5-2-2.5,1-3-.5-.5-1-4-.5-1.5-1.5-2.5.5-1-1.5-1.5-1-3.5-1.5-1.5,1-1.5-1-3,.5-3.5-4-3.5.5-3.5-1.5-1.5-2"/>
      <path data-code="olenjokskij_ulus" data-title="olenjokskij ulus" class="cls-2" d="M3.12,1097.23l3.5-1,1,.5,7.5-2.5,2.5-6v-3.5l4-.5,1.5-2.5h1.5l2.5-5,2.5-2,1.5,1.5h3.5l.5-2.5,2-3-1-11.5-.5-12-2-12-2-29-6-42L.62,928.23v-1l.5-1.5,4-3v-3l2.5-4.5,3.5.5,1,2.5,6-.5,18.5-12,5.5-2.5,3,.5,1.5-2v-2l-1-1.5,1.5-1.5-1-1.5h2.5l.5-2,1.5-1.5v-1.5l.5-.5,11.5.5,5.5-2,1,1-.5,1.5,1,2.5h7l2.5-2,.5-1-.5-2,1.5-.5-.5-3.5.5-1.5-1-1,.5-1.5-.5-2.5,3-2.5v-2.5l-1.5-1-1.5.5-2.5-2-.5-4-2-1v-2l-.5-2,3.5-1,3-3,1-2.5-1.5-2.5.5-.5-1.5-1.5,2-1.5,7.5-3,1.5-1.5,1.5,1,2-1.5,4-.5v-1.5l-.5-.5h-2.5l-2.5-2-.5-1.5-1-1.5,1.5-1.5-2-3,1-1.5-1-2,4.5-3-.5-1,.5-1,4.5-2-1-1.5.5-2,2.5-2,3-1.5,2.5,1,4.5-5.5,7.5-2.5,1.5-1.5.5-3.5,3.5-1.5,2.5-3,1.5,1,1.5-1.5,1.5-.5,1-2v-2l.5-2,1.5-.5,3,3,1.5.5v-3.5l1.5-2,3-.5.5-2.5,2-.5-2.5-2.5v-1.5l3-2.5,1-4-2-1-1-1.5h-.5l-3,2-1-1.5-2-.5-1.5-2-3-2-6-.5-9-50-4-.5,1.5-2,3.5-1,3.5-3,4,1,4.5-2,7-.5,7-3.5,1.5,1,1,2-.5,2,1.5,1.5,4,2.5.5,3.5-3.5,4v2.5l2,1.5v1.5l1,1.5h1.5l-2,2-.5,2.5,5.5,4,1,1,.5,3,1.5,1,4.5.5v.5l1.5,1.5,1,1.5-.5,1-3.5,5,1,4,6-1.5,2.5.5-.5,4.5.5,2,.5,5-2,4,1,1.5,2,.5v3l-1,4.5,2,.5-.5,2v1.5l-3-1-3.5,1.5-.5,1-3.5.5.5,2,1.5,3-1.5,3,1.5,2-1.5,1.5-1-.5-1,2.5,9.5,2,7-2,5.5,2,2-2,1-3,2-1.5,2.5,1,1-.5-.5-3,1-4.5,2.5.5,3-3,2.5,1,4-3.5v-2.5l3-1,2.5-3.5,1-3.5-1.5-.5-.5-1,2.5-4v-2l-4.5-3h-5l-3.5-3-3,.5-3-1.5v-.5l-1-1h-3v-2.5l3.5-1-.5-1-1-1v-1l1.5-.5,2.5-3v-1.5l-1-1.5,1-1,1-3,3.5-1.5v-1.5l2-1.5-.5-1.5,1-3h1.5l-.5-2,.5-2,1.5-1.5,6.5-2,4.5.5,2-1.5,1,.5,5-2.5v-1.5l1-.5-1-2.5-2.5-.5-7,1.5-1.5-2,2-5.5-1-2,2-1,2.5-6.5-3-1,3-2.5v-1.5l1-.5v-2l2-1.5,1,.5,1.5-4,1.5-.5.5.5v2l2,1.5,11-1.5,1-1-.5-1.5,1.5-3,3.5-1.5-.5-1h2.5l-.5-2,1.5-3.5,10,2.5.5,2,1,.5,7-1.5,5-2.5,2,.5,1.5-1v-1.5l3.5-1.5.5,1.5,1.5-.5,3.5-3.5,2-.5,3.5-2.5.5-3,2-2,8.5.5,1.5-1,2,1,2.5-2.5v-2.5l1.5-2.5,1-.5,1.5,2,3.5,1.5,8.5-5.5,2.5.5v5l1.5,3-.5,3,2,2-1.5,4,1,2,4.5,4.5,1.5-1.5,3,6.5,6.5,5,4-.5,4.5,4.5,3.5,1,.5,3.5-.5,3.5,4.5,3,1.5-1.5,2,1,2,5,3.5,2.5,3-1.5.5,2.5,8,5v1h-2.5l-3.5,4-1,2.5,4,6.5-.5,2,4.5,3.5.5,1.5-2.5.5-.5,2.5h-2l-4.5,5.5,1,2.5-.5,2,3.5,3-.5,5,1,3.5-3.5,3,1,3.5-1.5,3-5,4.5-5.5,1-1.5,2.5-5,2-7,.5,2,3.5,1.5,3.5-.5,1,1,3.5-2,1.5.5,3.5-4.5,3-1.5,5,1,3.5v1.5l2,1,1,2,1.5-1,1.5,1,.5,3,2,2-2.5,1,.5,1.5,1,1,.5,1.5-1.5,1.5,1,2-.5,1,1.5,2-1,1.5,1.5,2.5,5,1,1,1-1,1.5v2.5l-1,2,.5,1.5-3.5,3,1.5,2v4.5l1.5.5-2.5,3.5-2.5,1.5.5,2-1,2-1.5,1-.5,2,1.5,3-4.5,11.5v3l2.5,3.5,2.5,1.5,13,2.5,3.5,2,2,2.5.5,1.5,2.5,6.5,4-.5,4.5,3.5,1,3.5-.5,4,1.5,3v2.5l-5,.5-4,3.5h-2v-1l-2.5.5-1,3,.5,1.5,1,2.5v2l-5,.5v2.5l2.5,2.5,1.5,2,1,5v1.5l-1.5,3v1.5l-1.5,1-4-1.5-4,2.5-1.5-1-.5,1.5-6.5,1.5-1,1.5-2-.5-.5,2h-2l-.5,2-3,1.5-.5,2,1.5,3,5.5,6.5v1.5l-2.5,1,.5,1.5-1.5,1.5-.5,3.5-3,.5-1.5,3-4.5.5-1.5-1-10,6.5.5,1-.5,3.5,16,10.5,1,1v1.5l-3.5,5-6.5,3-3.5,3.5v1.5l.5,2.5,1.5,2,3.5,1v3l4,1,9-6.5,9.5,5,3-1.5,13.5,1,1.5,2,2.5,2.5,1.5,3.5,3,4.5v2l3.5,4.5,3,1.5-2,3,.5,1.5-1,4.5-5.5,5-.5,2.5-3.5-1.5-2.5.5-5,5.5-1,.5-.5-2-1.5,1.5.5,1.5h-2v.5l.5,1.5-2.5,2.5.5,1-1,2.5.5,2,2,2.5,8,4,1.5,4.5-3,3-2.5,4,.5,1.5-2,2.5v3l1.5,1.5,1,2-1,2v1.5l2,2-1,1.5-4,.5-1,1.5.5,1-.5,2-1,1.5-.5,5.5-2,2-1,2.5v2l-2,3.5-2.5,1.5.5,2,2,1,.5,1.5-1.5,1,.5,1,.5,1.5v2l-1.5-.5,1,3-1.5,1.5.5,2.5-2.5.5v1.5h-2l-.5,2-1-3-1,.5,1.5,3.5h-2l1,1.5-.5,1.5,1.5,1-3,2-1-1-.5,1,1,3-1.5.5.5,1-.5,1.5-1.5-2.5-.5,2.5,1,1.5-1.5-1-3,6.5-1.5.5-2-1.5.5-1.5,2.5-1v-2l-1-1.5-2,2.5-3.5-1.5-1.5,1-3,3-2-.5-.5-2.5,4-2v-2l-2.5.5-3,4-.5.5-3-1-3-3-1,.5-.5,1,1,.5,2,1v3.5l-3-1-1,2.5-1.5.5-3.5-1.5-1,.5,2.5,3-1,1-4-1-4.5,1,3,2-3.5.5,1,2,4.5,1,.5,1.5-1,2-3-1-.5,2-1,.5-1-1h-2v1l-3.5,1v2l-3.5,2v1l2,2,.5,2-2-1-2,1.5,1.5,2.5,2,2-1.5.5-3-3h-2.5l1.5,2,5,4.5-.5,1-.5-1h-2.5l.5,3-1.5,2-1-1.5-.5-2,1.5-1.5-1.5.5-1.5,2.5h-2l-1.5,5.5-2,.5-1.5,2.5-3.5,1-1-2,1-2.5-1-1-2,.5v-3.5l-1.5-5-3.5-3-8,1.5-3.5-.5-4.5,2-2-7-1.5-1.5h-2.5l-2-1-3,.5-1-1.5-1.5-.5-.5-1.5v-1.5l-.5-1h-4l-1-1-2,3-3,2-2-.5-.5-1.5-1.5-1,.5-.5-1-2,1-1.5-2-3.5-1-1-.5-2,1-1.5,3-1.5,2.5,1.5.5-1,.5-2-1-4-1.5-1,.5-1.5-1-1.5v-2l1-1-.5-1-7,2-2.5-1h-4l-1.5-1.5v-2l5-2.5-.5-1.5,3.5-1v-1l-1-3,.5-2,2.5-5.5,2.5-3,.5-5.5,2-2.5,2-2.5h9l2-2.5-3.5-7.5-1.5-.5-3-3v-2l-.5-2.5v-3.5l-2-1.5v-1l-4-6v-3.5l-3-1v-2.5l-2,1.5-.5-3-5-2-1.5-3h-3.5l-2-3-7.5,1-1.5,1.5-3.5.5-6-2-5,2.5-7.5,1.5-4,5-5.5-1-4,4-8,1.5-3,2-2,6h-5l-1.5,2.5,1.5,3v2l-6,3-2.5,5.5-3.5.5-2,1.5-1.5,3-5.5,2v3l-4,.5-1-1-1.5-6.5.5-8.5-1-2.5-5-3,1.5-3.5-4-5-6,.5-3-2.5v-4.5l1.5-1.5-.5-2-3.5-3-2,1,1,3-2-1-5,4.5-8,2,1,2,3.5,1-7,10.5,1,6-1,2h-1.5l-2.5-3-2.5-.5-7.5.5-1.5,2-6,1.5-4.5-1.5-3.5-3-2,3.5-2,1-1,2.5-3,1.5-7.5-3.5-5-.5.5-2-3-2.5v-1.5l.5-1-1.5-3,1-3-3-1.5-.5-1v-1.5h-1l1.5-1.5.5-2h-2.5l-1,1.5-3-1,2.5-4.5.5-1-1-1.5-1.5,1-5-1.5-.5-1,.5-1-4.5,1.5-4.5-3v-1.5l-1.5-1"/>
      <path data-code="oljokminskij_ulus" data-title="oljokminskij ulus" class="cls-2" d="M428.62,1504.23v-1.5l-.5-4,.5-3,8-7.5.5-3.5-1-4,5.5-11.5-.5-4.5-2.5-1.5-1-2v-1l2-3,7-1.5,1-7.5,1.5-3,5.5-3.5v-4.5l1.5-5,6.5-8.5-2.5-4.5,8-9.5,3-2.5,1-1.5,1.5-6.5,8.5-9,1-4.5-.5-2v-2l3.5-3.5v-2.5l-.5-5-3.5-1.5v-1l2-5.5,3.5-2h1.5l1.5,3,5.5.5,2,1.5,4.5-.5,6.5,2,12.5-3,2.5,1,2.5-.5,6-4.5,5-1,3,1,2,2.5,9,1-.5,2,1,1,17.5-6.5,8.5.5,4.5-4,1.5-5,10-3,17.5-10.5,3.5,1,5.5,8,2,2v2.5l1.5,4.5,2,2,6,2.5,2.5-1,6.5,1,3,2,3,2,2,3.5,5,4,3.5,4.5,4.5,2.5,2.5,4,5,2.5,2.5,2.5-1,5.5,18,4.5,3,2.5,1,2,1.5.5,1.5-2.5,4.5-2.5v-13l1.5-1,4,.5,2-1,2-2-1-3.5-3.5-5,3-2.5,5.5,1.5h1.5l6-4.5,4-6.5,3-3,13-3,5-3h2.5l1.5-5.5,1.5-.5,11-1,5.5,7.5.5,3v5l1,5-.5,1.5-3,3.5-2.5,4-2,.5-4.5-3-.5.5v5l-4,3-.5,3.5-1,1,.5,9-3.5,2-1,4-1,1-1,2-2,1-1.5-1-3.5-5.5-3,.5-2,3.5,1.5,3.5-3,6.5-3-1.5-3,1,.5,2.5-2,4-.5,5-3,1.5-2.5-1-2-2-6.5,2.5-5,4.5v3l1,1.5.5,2.5-2,1,.5,2.5-4,3v2.5h-2l-4,3.5-2-.5v4.5l-6,1.5-6.5-.5-1.5,1.5-.5,1.5,2,2.5v1.5l-4,2v1l1.5,3.5v.5l-.5,1.5-1.5-.5-1,2.5,3,6-.5,1.5-3,1,.5,2.5-.5,1.5-1-1-1,1-1,1.5-2.5,1h-.5l-1-2.5-1-.5-4,2.5v1.5l-2.5.5-.5,2.5-2.5-1,1,5-.5,1.5v2l-2.5,2.5v2.5l-6.5,5.5-3,6.5.5,1.5-.5,1-3,1v7l-.5,2,1.5,2.5-.5,2,.5,2.5,1.5,2.5,8.5,2.5,2,1.5,2.5.5,1,2-3.5,2.5,1,4-2.5,2-1,7.5,4,10.5,3.5,5,.5,1.5-1,1-4,1.5.5,2,1,2.5v1.5l3,4.5.5,2,2.5-1.5.5-2,6.5-1.5,3.5,4,5-1.5,1,1.5v2l-2,6,.5,2.5-3.5,4,1,3.5-1,4.5,1.5,5,1,6.5-2.5,2,1,7.5-2,.5.5,2-1.5,1.5,1.5,3,2.5-.5,1,1-1,3,1,4-1.5,5.5-1.5,2-5,.5-2,6,.5,1.5,3.5,2-.5,1,2.5,3.5,4,1,.5,1.5-1.5,2.5,1.5,2.5h-3.5l-2.5,2-3-2-7.5-.5-9-7.5-1-5-1.5-2-5-1.5-5.5.5-2.5-2-1.5,1.5v2l.5,2.5-5.5,1-.5-2-6.5,5h-2l-.5,4.5-4.5-2.5-4,1-1.5-2-3-2h-3l-2.5,2-3.5-.5-1.5,3-3,.5-4,3.5-3.5-2-2,3.5-3.5,1-.5,2,.5,1.5-1.5,2.5-.5,3h-2.5l.5-.5-4-3-1-1.5.5-1.5-1-.5v-.5l-3-3.5-4-1-2-3v-2.5l-1.5-1.5,1-3,1-1v-4.5l-2.5.5-1-1-3,1-1.5,2,.5,2.5-1,3,.5,1-.5.5-3-3,.5-2.5-1-2.5-1.5-1.5,1-.5-1-4h-4l-1-1-.5-1.5,1-1.5-.5-2,.5-1.5-1-2v-1.5l-1-2,1-1-.5-2-.5-.5.5-.5.5-5.5-2.5-3,.5-1-1-2,1-2-1.5-.5-2.5-4-.5-4.5-1-1.5-1.5-.5-1-1.5.5-6.5-.5-1v-1.5l-1-2-3.5.5-1.5-2.5-1.5-.5-2,1h-1v-1.5l-1-.5-2,.5-1.5-1.5v-1h1.5v-6.5l-1.5-3,.5-3.5-2.5-3-3-1-1-2.5,1.5-2h2v-3l-3-3.5-4,.5v-1.5l-1-2.5-1.5-3.5-1-.5,1-5.5.5-1.5h1.5l-1-2.5,1.5-1-3.5-1.5v-1.5l-1-1.5v-2.5h-4l-1.5-1-1,1-2-2-5.5-.5-1-.5-2.5-6.5-3.5-1.5-.5,1.5-3.5.5-1,1.5-1.5-1v2l.5,2.5-2,3.5,1.5,2.5-1,1.5v2l-1.5-.5-1.5,1.5-3.5-7.5-4,2.5-1.5,3,1,1.5-1,.5h-2.5l-2-2-3,1.5-2-.5-1.5,1.5-1.5-2v-1l-1.5-1.5-3-1,1-2-.5-1.5,1.5-2-2-2.5,1.5-2.5-.5-1.5-1-1,.5-1.5-1.5-2.5.5-2-4.5,1.5-3.5-3,1.5-4,2-.5,6-5-3.5-2-2.5,1.5-1.5,2-5-.5v-4l-1-1.5-2.5-1-.5-3-2-.5-2.5-1.5"/>
      <path data-code="srednekolymskij_ulus" data-title="srednekolymskij ulus" class="cls-2" d="M1048.12,607.73l-.5-1.5.5-2,7-4.5,2,1,4-1,1.5-2.5,3-1,2-3,4-2,3-8.5-.5-1-1.5-1v-3l-4.5-1.5h-2l-1.5-1-7-1.5,1-1.5-3.5-.5v-1.5l2.5-3v-1.5l-.5-1-1-.5-.5-1.5-2-1.5,5-5,1-3.5-.5-2-1.5-2.5-3.5,2-1-2v-5.5l-1-.5-1.5-4.5-1.5-1-.5-2,6-4-.5-1.5,1-1.5h3.5l2-9.5,3-2,2-4.5,4.5-4.5,1-5.5,2.5-5,6-7.5,2-1,.5-4.5,7,1,4-1,4,1.5,7.5-2,5,6,4.5,1.5,8.5-.5,3.5,3v1h3.5l.5-3h2.5l.5-2,2-1,2-4.5,1.5.5.5-2h1.5l1,1.5,1.5-.5.5,2,1.5-2,1.5.5,1.5-2.5-.5-1.5,2.5-2-1.5-3,11.5,2,4.5,4,17.5.5,3-4.5,6.5-6,6-1.5,2,3.5h2l4-4,3.5-.5-.5-1.5,1.5-2.5,2-.5v1.5l1.5,2.5v1l2.5,2.5-.5.5,1.5,2v1.5l1.5.5,8-9,10.5-2,6,3h2l1.5-6,4-.5,6-3h4.5l3.5-4v-4.5l4.5-3,12.5-2.5,2.5,2,3,1,2.5,5.5h3l4,2,3,11,2.5.5,3.5,2,1.5.5.5,1,1,.5,2,6-1.5,3,1,1.5-.5,1.5h1l1.5,1.5,1,.5,3.5-2.5,6.5,3.5-3.5,3.5.5,1.5-1,.5-1-.5h-1l-1.5,2-1.5.5-.5,5h1l.5,3,1,2,1,.5v2l1.5,1.5v1h2.5l2,2.5,3.5-.5,1.5,4-.5,1.5,1.5.5.5,1.5,5,1,4.5-1.5,3,.5.5.5,1.5.5,1-.5,1,1,2-1.5,3,1.5,1-1.5,9-1h1.5l1,1,3,1,1.5,1.5-.5,1,1.5.5v1.5l3-.5.5,1,1,.5-.5.5,1,1,5,1.5-1.5,2v2.5l-1,.5v2.5l.5,1h1v1.5l1,.5v2.5l1.5,3-1.5,3,1,1v2.5l2.5,1.5-2,4,1,1.5,1-1,3,1,3,.5v2l1.5,2v2.5l1.5,2-.5.5,3.5,1.5.5,1,3.5,2v2l-2.5.5-2.5,2-.5-1-3.5.5-2.5,5-5.5,5.5.5,4,.5,1-3.5,5.5,1,2,2.5,1,1,1.5-2,3h-1.5l-1,2-4,1.5h-5l1-1.5-1.5-3-3.5.5-1.5-1-6-1-1-1.5-4-.5-.5,2,2,1-1.5,3.5,1.5,1.5-1,3,1,.5v1.5h-3l-5,3-1.5,1,.5,2-2.5-.5-1,1.5-1-1-2.5.5-3-1.5h-2l-.5,4-4,1-2,3.5h-4l-1.5-1-2.5,1.5.5,2h-1.5l-.5,1.5,2,1.5-3.5,4-2-2-1.5-.5-5,2.5-1.5.5-1.5-1-1.5,1v3l-1.5,1v1.5l2,2,.5,1.5-1.5,2.5,1,3,4-1.5,1.5,1.5,1-.5v2l1.5,1,1.5,1.5-.5,4,1.5,1,.5,4-1.5,2,.5,2-2,.5-1-1-1.5-2.5h-3.5l-4,4.5h-2l-.5,2.5-2.5-3.5h-2l-1-.5-.5-1-1.5-.5-.5-2-2-.5-3.5.5-6.5-.5-5,1-2-1.5h-2.5l-3,1.5-1,1.5h-1.5l-2.5,1.5-1,1.5-2-2-.5-1.5-1-1.5-3,.5-1-1-3-.5-3.5,1.5-1-1-6,2-1-2h-4l-19.5-12h-27.5l-1-1.5-1.5.5-1.5-1-1.5.5-2-1.5h-2l-.5-1.5-1,1.5-3.5-.5-.5,1.5-1.5-1.5-2,.5-2,2-1.5-2-1,1.5-2-1.5-1.5,1v-2l-1.5.5v-1h-.5l-.5-1-2.5-.5-3.5-3-2,.5-1-1-.5,1-1.5-1-4.5,6.5-4,2.5-7-3-8,2.5-1-.5v-1.5l-3.5-.5-3-4-2-.5-2,.5-2,4.5-2.5.5-.5,4.5-3.5,1.5-6,6h-4l2-4.5.5-2.5,4-4.5-.5-5-2.5-2.5-1.5-3-2.5-1.5-1-3-1-1.5-4.5-2-1-1.5-8.5,4-2-2-4,2-3.5-1.5-3.5-3-1.5-7.5-1-1.5v-4.5l-6-.5-4-1.5-1.5-1.5-1.5-.5v-1.5l-1.5-1"/>
      <path data-code="suntarskij_ulus" data-title="suntarskij ulus" class="cls-2" d="M278.12,1329.73l2.5-1,2.5-7,6.5-1.5,1.5,2.5,1.5,1,.5-1-.5-2,3-1,1,1,2.5,4.5,1,.5,4-1,4-4.5v-1l-5.5-4.5-1-5-2-1-2.5-4.5-3,.5-2-1.5-4,.5-1-1.5-1.5-2.5v-2l.5-1-3.5-1,.5-3.5,3-3.5-4-6.5-1.5-8-5.5-2-3-3.5.5-5.5,4,1.5,6.5-2.5,1.5-2-1-1,.5-2.5,5-1-.5-1.5,1.5-1.5,3.5,1,3.5-3,4.5-.5,1,2h1.5l1,1.5,2-.5,1,2.5,2.5-.5,6,5.5,2.5.5,2.5,2-.5,2.5-1,.5,2,1.5,2-.5,1.5,3h2l-2,1.5-.5,1.5h2.5l2.5,4h5.5l-3.5,2,1,3.5,1,1-2.5,2,3.5,1,2.5-1.5-.5,3.5,1.5-.5-.5,5,4-.5v1.5h1.5l1,1.5-1.5,2,3.5,3-.5,2,2-1.5,1.5,2,2-1-.5,3,2.5-1.5v2.5l3-2.5,3.5,6,5,1,11-5.5,10-2,6.5,2.5,6.5,1.5h4l1-1h2.5l4,2,4-1,.5,1.5,3,1.5,4,.5,3.5,3.5h2.5l1.5-3,6.5-2.5,4,3.5,15,2.5.5-2,5,1.5,3-2.5,4.5-.5,3,5.5,3.5-.5,1.5,2,6,2,2.5-1.5,2.5,2.5v3.5l14,5,9,11,1,3-2,6-1.5,9,.5,4,1.5,4.5-7-2-4.5.5-2-1.5-5.5-.5-1.5-3-5,2-2,6.5,3.5,1.5.5,5v2.5l-3.5,3.5v2l.5,2-1,4.5-8.5,9-1.5,6.5-1,1.5-3,2.5-8,9.5,2.5,4.5-6.5,8.5-1.5,5v4.5l-5.5,3.5-1.5,3-1,7.5-7,1.5-2-4-2.5-3-1-4-2.5-3-1.5-.5-1-1,.5-1.5-3-3v-3l-2.5-6.5,1-2.5-1-2.5h-9.5l-2-2.5-2-.5-1-2.5-3.5-2.5-.5-2-6,1-2.5-2.5-4.5-.5-2.5-2.5-3.5.5-1-1-2-3h-1.5l-4,1.5-2.5,2.5h-6l-3.5,1.5-7.5.5-3,8.5-3.5,2.5-4.5,1-1.5-2,1.5-3.5-3-4-4.5-1.5-1.5-2-.5-3.5-2-3-2.5-2v-1l2-4-1-4,.5-2-3-1.5-3-8v-1.5l-1-1-3.5-.5-3-3.5h-2.5l-1-2.5-2.5-1.5v-1l-.5-1-2-.5-1-1.5,1.5-2-1-1-3,1-.5-1.5,2-.5-1.5-2.5v-1.5l-2,1-1.5-2h-2.5l-1-2h-1.5v-1l-1.5-1.5h1v-1.5l2,.5v-1l-2-1,2-1.5-2.5-1.5v-1.5l-2-.5.5,1.5-.5.5-2.5-2.5,1.5-.5-2.5-3.5v-4l1-1-1-.5-2,.5-.5-.5-.5-3-1,.5-1.5-1.5-1.5,1.5-.5-1.5-.5-.5.5,1.5-1,1.5-2.5.5-4.5-2-1-2"/>
      <path data-code="tattinskij_ulus" data-title="tattinskij ulus" class="cls-2" d="M854.62,1182.73l-1.5-5.5.5-1.5-1-1v-2l1.5-1-.5-2-1-.5-.5-2h-1l-.5-2,1-1.5-3-6,1.5-5.5-1.5-9,1-2.5v-2.5l-3-4.5,2.5-3.5,12.5-4,16.5-8,1,.5,3.5,6,4,4.5,3,5-1,5.5.5,4.5,3,3.5-.5,3,3.5,5.5,3,2,.5,2,1.5,1,1.5.5,4,3.5,8,.5,5.5-2,1-2,7.5,1.5,5.5-3,3,1.5,5.5,5,14.5,10,4.5,4.5,3.5,2,1.5,2v6.5l3.5,5-.5,3.5-2,3.5-2.5-1-3,2v2l3,3.5,2.5,1.5.5,2,6.5-1v2l-1,2.5-2.5,2,.5,3.5-3,3-1,3.5-1-1-1.5,3.5-4,.5-.5-1.5-1,2-2,.5-1.5-.5-2.5,2-9.5-6.5-4-6.5-6.5-4-4-1-1-2.5-4,1-1.5-1-2.5,3-5.5-1-.5,2-4.5,1.5-6.5-1.5-2-1-4.5,3.5.5,3-3,1-2-2-.5-1.5-2.5-1-2.5-4.5-5.5-3.5-1-1,.5-2.5-1-1.5-3.5-2-2-1.5-1-2-2-.5-2-3v-2l-3-3-1-4.5-1.5-1.5-5.5,1-.5-3-2.5-2.5"/>
      <path data-code="tomponskij_ulus" data-title="tomponskij ulus" class="cls-2" d="M820.12,1121.23l-.5-2-.5-1,3-10-1.5-8,.5-2.5-1-1.5-1.5-1-2.5-.5-1-2.5,3-1.5v-7l2.5-5-1-4.5,1.5-6.5-4.5-3-2.5-4.5-5.5-4,1.5-3,1.5-.5-.5-1.5-.5-1.5-.5-1.5,1.5-4.5-2-3.5v-3.5l-5.5-5.5-.5-1.5-1.5-4v-3.5l-2-3.5v-4.5l2.5-4v-4.5l5-3,2.5-.5,3.5,2,9.5-2.5.5-2-.5-6,2.5-3,3.5-6.5,4.5,1-.5-2-1.5-1.5v-6.5l1.5-6v-1.5l-1.5-4,.5-1-.5-2,1.5-1.5-.5-5,4-1.5,7.5-6,.5-3v-2l-1-2.5,2-1.5,5-1.5.5-1.5-1-2.5,2-3.5-.5-1.5,4.5-3.5-.5-4,2-4.5v-3.5l2-1-.5-1.5,2.5-1.5,10-5,2.5,1.5,2-.5,3,2,5.5-2,4,2,6-3,4.5,2.5,7-1.5,4.5-3,.5-2,5,1.5,4-2,2.5-3,4.5-.5,1-3,3-1,4.5-6.5,4-2.5,6.5-.5,3.5,1.5h3.5l1.5,1.5,5,1,4-1.5,3.5-4.5,7.5,1,1,1,1,3.5-1.5,7.5,1,.5.5,2,5.5,1.5-.5,4.5-1,3-2.5-1-3,2-.5,1.5,1.5,4.5v4l-2,3-1,8,1,1.5v1l1,1.5v1.5l-1.5,1.5,1.5,5.5-.5,4.5,1.5,2,3.5,1.5,3.5-.5,3.5,4,3-.5,1.5,1,1.5-1,3.5,1.5,1.5,1,1,1.5,2.5-.5,1.5,1.5,4,.5.5,1,3,.5,2.5-1,2.5,2,1.5-1,3,4.5-1,4-4.5,6.5.5,2,4,.5,5.5-1,2,2,2-.5,4,2.5,7-.5,4.5,3.5,1,1.5,1.5,8.5-.5,3.5,2,2v1.5l-1.5,2,.5,2,2,6,4-.5,1,1.5.5,3,1.5,1.5.5,3,3,4h-4l-7.5,5.5v2l-3.5,8.5v4l-3.5,5.5,1,3v5l2.5,3v2l.5,1.5,3,3.5-.5,2.5,1,2,1,1,3-1.5,1,.5-1,3,.5,7,1,1,4.5-1.5,2.5,3,2.5,1.5-2.5,7.5,2,2,4.5,2.5.5,1.5-8,9-7,2-7.5-1.5-2-2-2,.5-7,13.5-1,12.5-1,1-4.5,4h-1l-2.5,3-2.5-1.5-7,3.5,2.5,5.5,1.5,1.5,1,2.5,1.5,1.5,1.5-1,2,1,.5,1,.5,4,3.5,10-5,1.5.5,1.5,1.5,4-1.5,3v5l-4.5.5-2,2.5-2.5,1-5-.5-1.5,1.5v2l-2.5,3-7,1.5-1,2-1.5.5-5.5-1-2-2-3.5-2-4,.5-.5,2-4.5,2-2.5,7-3,4,.5,3.5,1.5,2.5v2.5l-6.5,1-.5-2-2.5-1.5-3-3.5v-2l3-2,2.5,1,2-3.5.5-3.5-3.5-5v-6.5l-1.5-2-3.5-2-4.5-4.5-14.5-10-5.5-5-4.5-1.5-4,3-7.5-1.5-2.5,2.5-5.5,1.5-6.5-.5-7-5-.5-2-4-3-2.5-4.5.5-3-3-3.5-.5-5.5,1-4.5-3-5-4-4.5-3.5-6-1-.5-16.5,8-12.5,4-2.5,3.5-3.5-1-8-7.5-2.5-1-.5-1.5-1-3-1-.5-3,.5-1.5-1.5h-2l-1.5,4.5-2-1.5"/>
      <path data-code="ust_-aldanskij_ulus" data-title="ust&amp;apos;-aldanskij_ulus" class="cls-2" d="M760.12,1162.23l3.5-8.5,2.5-.5,2-2.5-.5-1.5-1.5-2.5-1-3,1.5-3.5,18-3,2.5-2,7-1.5,5-4,11-5.5,9-6,.5,1,.5,2,2,1.5,1.5-4.5h2l1.5,1.5,3-.5,1,.5,1,3,.5,1.5,2.5,1,8,7.5,3.5,1,3,4.5v2.5l-1,2.5,1.5,9-1.5,5.5,3,6-1,1.5.5,2h1l.5,2,1,.5.5,2-1.5,1v2l1,1-.5,1.5,1.5,5.5,2.5,2.5.5,3-3.5,3v1.5l.5,2-.5,1.5-5.5,3.5-.5,2v7.5l-1.5,1.5-6.5,1.5-2.5,2.5-7,.5.5,1.5-2,.5,1.5,2v3l-2,.5-8.5,1-2.5-1.5-13,.5-3,2.5.5,2.5-2.5,1.5-7,.5-3.5-2-1-6,.5-2,1.5-3,3-1.5,3-5-2-3,2-1-5-2.5-7,1-3.5-.5-2.5-2v-4l-.5-4-1.5-4-4.5-6,.5-1-.5-1-1-2.5-2-2-.5-4-1-2.5v-4.5l.5,1,2-.5-1.5-2-1.5-1-6-1-.5-1"/>
      <path data-code="ust_-janskij_ulus" data-title="ust&amp;apos;-janskij_ulus" class="cls-2" d="M608.62,583.23l.5-1,1.5-.5v.5l-2,1M735.62,540.23h-.5l.5-1,1,.5-1,.5M694.12,564.23h1l2-2-1,1.5-2,.5M698.62,562.23h.5-.5M752.12,535.23h2l1,.5h-3v-.5M714.62,567.23l-2.5-.5-.5-1,1-.5-1-1.5,5.5-7,11-6h3l2,2,1,2.5h.5l-1,.5-.5,4.5-2,3.5-3.5-1-.5-.5-1.5-1-2,1.5,1,3.5-7-.5-.5.5,2.5,1-2,1.5h-1.5v-.5l-1.5-1M735.12,557.73h-.5l1-1-.5,1M734.62,555.23v.5-.5M724.62,564.73l.5-1.5.5,1,.5-1v1.5h-1.5M845.62,406.73l.5,4.5,2,10v12l-1,1-1.5-1-3-.5-.5,2.5-3,.5,1,2.5h3l.5,2.5-1.5-.5.5,1.5h-3.5l1.5,1.5-1.5,2-2,1.5-2-.5-1.5,3.5,1.5.5.5,3.5-4,2.5-.5,3.5,4,2-2,3,1.5,1-1,2,1,11,.5,3.5-2.5,7.5-2,1.5v4.5l1,1.5-1,1.5v1l2,.5,1,3.5,1,2,.5,2.5,1,1.5,1,1-.5,2.5,1,1,1,4.5,4,2.5,3.5,3,.5,1,.5,1.5-3,5,.5,5.5-2,4,1,1.5-1,1-2,4.5.5,1.5-1.5,2.5.5,1.5-.5,3.5-1.5,3,2.5,3.5,3,1-4,37,.5,3-1,2.5,3,1.5.5,1,3,2.5h1l2.5,1.5,5.5-3.5,2,.5,3.5,3,3-.5,4.5,1,4.5-4.5,1.5.5,6-4,6,3.5-2,5,1,.5.5,2-.5,1.5.5,2h4l1.5,1.5,4-.5,2.5,1.5,1.5,2,5,.5,4,3.5,1.5,3,3,2.5-.5,1,1,2-1,1-3.5-.5-1.5,2.5-1.5-.5-2,1.5-5,4-1-.5-1.5,1.5-3.5.5-4,8,.5,1.5,1,.5v2l1.5.5,1,1.5,1,.5.5.5,1.5.5,1,2.5,4.5,4.5,2,2.5,6,5,1.5.5.5,1-6.5,8,3,6v3l-2,2.5,1,2-1.5,1.5.5,1.5-1.5,2,.5,1.5,1.5,1-2.5,1.5-1.5,2.5.5,2.5,2.5,2,2,.5,1,2,2,1,1,1.5,2.5.5,1,2.5v6l2,3,3.5,3.5,1.5,4.5,1.5,1.5,8.5,2-7.5.5-4.5,3.5-4-.5-2.5,3.5-1.5-1-2,1-3.5-.5v3.5l-8.5,2v7.5l-3.5,5v4l-1.5,1.5,1,2-5.5,11-3,2-2-1-1,1.5-7,1.5-9-5v-3l.5-4,2-1.5,1-3-4-8-10-6-4-4.5-.5-2,1-3,4.5-4-12-9-1.5,1.5-1-.5-3,3-3-2-5-2-2.5-2.5v-4l-2-.5-2-3.5v-3.5l-4.5.5v-3.5l-2-3-2.5-1-3-4-1.5,1-3-.5-1-1.5h-1.5l-3-3-2.5.5-2-2-.5,2.5-2.5,2.5.5,2-1,2.5-7.5-.5-3,2.5-2.5-1,.5-2.5-2-1.5-1-2-6.5,2-2-4.5v-3.5l-2-1.5-3.5-4-.5-1.5,3.5-6-1-1-.5,1-2.5-1.5-1.5-3-3-1.5-1-1.5-1-2-1-5.5-2-3.5-7,3.5-1.5-1-2,2-6,1.5-4.5,9-3,2.5-2.5-.5-5.5,3.5-1,4.5-9-3.5-4-5-4.5-.5-4.5-2h-2v2.5l-1.5,4.5,1,2-10,10-3,8.5-11-3.5-.5-2.5-2-2.5-5.5-.5-.5-1,5-4.5v-1l-4-.5-1.5-2,1.5-5.5-1.5-2v-1l-2-1-2-3,.5-2-2.5-2-1.5-.5-19,8.5h-4l-1.5-.5-2-3-.5-2.5-2-2.5-.5-2,1-3-.5-2.5-4.5-6-1.5-1-1.5-2.5-1.5-5,1.5-5-1-2-6-5v-1l-2.5,1-.5-1.5-3.5.5-1.5-2,1.5-3,1.5-1h-3l1.5-5,1-1h2.5l-2.5-1.5-1,1-1-1.5v-4l-4-20-.5-7,.5-13,2-6.5,4-2,2-2.5.5-.5,3-.5,1,1,2.5,1,1.5,1,1.5,1.5-3.5-2.5-5-1.5-1.5.5-2,2.5-1,.5.5,1h1.5l-1,.5,1,1-3-.5,1.5,3.5,1.5,2-.5,1,.5,2.5,2.5,2,3.5-.5,8.5,6.5,6,3,9.5,2,13.5-1,6.5-2,5-5,4,.5.5-.5-3.5-1.5v-1l-.5-.5,2.5-6.5,7-8,4.5-7,5.5-4,9-2,3,1.5,2-1.5-.5-.5-1.5,1,2-2.5h7l-2.5,3.5v1l1,1v.5l.5,1v-3l1.5-1.5,4-1.5,1.5.5v1l1.5,2,2.5-.5,3,2,3.5-2,3,.5,2.5-2.5,2-.5.5.5v1l-1-1-2,1.5,1,1v1.5h1l-.5-1.5,3-.5.5.5-1,1.5,1.5.5-1.5.5v.5h.5v1.5l1,1,1-.5v.5h1l.5.5,1-1-.5-2,1.5-1v2l2.5.5v-1.5l1.5-1.5,3-1-.5,1-1.5,1-.5-1-1,1,2,1.5h2.5l1-1,1-2.5,2.5-.5.5-3.5h-1.5v1.5l-6,1-.5-.5,3-3.5h-2.5l-.5.5.5,1-2,.5v-1.5l-3,1,.5-1-.5-.5-.5,1.5-1.5-1,2-1v-3l-.5-1.5.5-.5.5-2.5-1.5-4.5-.5-.5-1-1-.5-2,4-1,3-4.5,4-1,2-2.5-.5-1,.5-1.5-5,4h-3.5l-.5-1,1.5-1,.5-2.5,3-1v-1.5l2.5.5,2-5.5-3-.5-2.5,1-3.5.5,1-1,1.5.5,1-1-1,.5-.5-2-.5-.5-2.5,2.5v-.5l-.5-1h-1l-2.5,3h-2l.5-4.5,5,.5,3-2.5,4.5-.5.5,1,1.5.5-4.5.5-1,1.5,2-.5,6.5,1-2,2.5.5,4-2,2.5h2l1.5-4,2.5,2,.5.5v1h.5l-5,1-.5,1h3.5l.5.5,1.5-.5,1,1,3-1,.5,1.5,1,.5,2,3,3,3.5-1,.5,2.5,1,3.5-3.5-1.5-4.5,5.5-2,3,.5,1.5-1.5v-2l-.5-1,4,.5-4-2.5v-1l-1.5-1.5-2.5-.5v-.5l-3-2.5-1-1.5-1-.5-2.5-5.5-1-1-1-2.5,1-2h-2.5l-2-2-1-.5-8.5,1.5,5.5-1.5,1.5-2,.5-.5-1-.5,1-1-2-2-.5-2,1.5-5-1-3v-2l3-1v1.5l2-.5,2.5-4.5-.5-.5-3-1-2.5,1-2.5-2.5-.5.5-1,3.5-6.5,3.5-2,7-.5.5-3-.5-2.5.5-3-4,.5-4v-.5l-.5-.5v-3l-.5.5,4-3.5h-1.5v-1l-1.5.5-.5-2,2-6,5.5-5,6-1,3.5-2-1-.5-1-.5v-1l1,1.5,1.5.5v.5l4.5-1.5,5.5-7.5h1.5l-.5-1v-1.5l-.5-.5,1-.5-1-1,6.5-4.5-3,.5.5-.5-1.5-.5-.5-.5v-1l-1.5-1h-3l-.5-1-1.5.5-1.5-1.5h-1.5l-2.5-2-2,.5-.5-2h-1l-1-1-1-1,.5-1,13.5-4.5,8,1.5,9.5-1.5,33-16,8-2,9-4.5,17-5M775.62,536.23l-.5,1-1-1h1.5M731.12,567.73l.5-.5v.5h-.5M731.12,570.73h1l-.5,2-.5-2M738.62,568.73l1-.5.5.5h-2.5,1M737.12,571.23v-.5l.5.5h-.5"/>
      <path data-code="ust_-majskij_ulus" data-title="ust&amp;apos;-majskij_ulus" class="cls-2" d="M916.12,1398.23l-1.5-3,.5-1.5-.5-3-4.5-7.5v-2.5l-1.5-3.5-1.5-6v-1l2.5-.5,1.5-1.5,1.5.5,1,1.5,1.5,1v-5l-1.5-2.5,1-.5,1-3-1-1.5.5-1.5-1-5-.5-1.5-.5-2.5-3.5-3,2-4,1.5-1,1.5-3-1.5-4.5-2-10,2-3-1-4,1.5-2h7.5l2.5-1.5,2-5.5,1.5-1,2-4,.5-2.5-1.5-1.5-3.5-9-5-6.5-2-4.5-4-10v-2.5l3.5-1,2.5-3,3-1,9-8.5,6.5-2,6.5-4,2,.5.5-3,1.5-.5,1-3,2-1.5,1.5-2-.5-1.5,2.5-2,1.5.5,2-.5,1-2,.5,1.5,4-.5,1.5-3.5,1,1,1-3.5,3-3-.5-3.5,2.5-2,1-2.5v-4.5l-1.5-2.5-.5-3.5,3-4,2.5-7,2.5-1,2.5-3,2-.5,5.5,2,2,2,5.5,1,1.5-.5,1-2,7-1.5,2.5-3v-2l1.5-1.5,5,.5,2.5-1,2-2.5,4.5-.5v-5l1.5-3-1.5-4-.5-1.5,5-1.5-3.5-10-.5-4-.5-1-2-1-1.5,1-1.5-1.5-1-2.5-1.5-1.5-2.5-5.5,7-3.5,2.5,1.5,2.5-3h1l4.5-4,1-1,1-12.5,7-13.5,2-.5,2,2,7.5,1.5,7-2,8-9-.5-1.5-4.5-2.5-2-2,1.5-6.5,1-1.5,1,1,.5,1.5,1-.5v-3l6-5,3,.5.5,1.5,2.5-.5,1.5,2.5,8.5,2,1,1,.5,1.5,4,4-4,1.5v1.5l.5,1.5-1,1,.5,1.5-.5,1,1,1,.5,2,.5.5.5,2.5,2.5,1-.5,1,.5,1h1v1.5l2,3.5-1,2v2h1l1,1-2,3v4h-3l-1,1.5.5,3,3,4,1,4.5-1,8.5,1.5,4-1,1-.5-1.5-1.5.5,2,7v6.5l-1,1.5-2.5-1-1.5,1.5,1,1-1.5,3.5-2.5,1-1,1.5-3.5,1,.5,2,1,.5.5,2h-.5l.5,1.5-1,2.5-3.5.5-2,3-2-1-1,5,2,2v1l2.5.5-1.5,1-1,4.5-2,2-1,4h-2l1,3,1.5.5.5,2,1,1.5-1.5,3.5.5,2,1,1v4.5l2,1h1.5l.5,2,1.5.5,1.5,2,2-.5,2.5,1v2.5l1,1,.5,2-1.5,2,1,1v1.5h1.5l1,5-1.5,1.5,3.5,2.5v1l1.5.5v2l.5.5,1,2.5h.5l-2,4.5,1,1,.5,4,2.5,1v1.5l.5.5,1,3,2.5,1,.5,2.5,1.5,4.5h1.5l1,1.5-1.5,2.5,1.5,3,1,2.5,1.5.5,2.5,3.5v1.5l2,.5-1,2.5,1,2.5-3.5,2.5-1.5-.5-1.5-2.5v-4l-2.5-1.5-.5-1.5-1-1-1,2,1,2.5-1.5,1v2h-3l-5.5,3.5-1,2,.5,2-1,2,.5,1.5-1,1.5,2,2.5v1h1l1.5,1.5-1,2-3,1-.5,4-1.5,2v3l-3,.5-1,2.5h-1.5l-4,5.5v4.5l-3.5.5-3-1-1,1.5h-4.5l-1,1.5h-1.5l-2-1.5-1.5.5-.5,1.5-5,1.5-1.5-1.5-3-.5-1,1.5-3-1.5-.5-1h-2l-3,3.5h-1l-3.5,7-.5,3.5v2.5l-1,2.5,1,1.5-.5,3,.5,2-1,1.5,2.5,1.5-1.5,2,1.5,2.5-1,.5v2.5l-9-.5-2,3.5-3.5.5-1.5-1v-1l-1-1-.5-1-1.5,2.5-3,1-.5,1.5v3.5l-2.5-1-1.5.5-.5-1v-.5l-1-.5-6,2-.5-1-2.5,1-1.5-1h-1.5l-5,2.5-3,4-3.5,1.5-2.5-1-1.5-2.5h-3l-2.5,4,.5,2h-1l-1,2-4,1,1,2.5h-2l-1,1.5-1.5,5,.5,1.5-.5,1.5-3.5.5v2l1.5,1v2l-1.5,2.5,4,.5v3.5l.5,4.5-2,.5-2-1-.5,2-1.5,1,.5,2.5-.5,1-2-2.5-1-3.5-1.5.5-.5,1,1,5.5-4.5,3h-1.5l-2-2.5-1.5-6v-2l-.5-1h-4l-1-3.5-1.5-2h-2.5l-4-2-3,.5v2l-1.5,1h-3l-.5-3-3.5-1.5-1.5-5-2-2-.5-2.5-3-1-2.5-3.5"/>
      <path data-code="verkhnekolymskij_ulus" data-title="verkhnekolymskij ulus" class="cls-2" d="M1136.62,764.73l-1.5-2.5-.5-5.5-1.5-1,1.5-3.5-1-2.5-3.5-2.5-3.5-4.5-1.5-3,.5-2,5-15.5,2-1.5,1.5-4,3.5-4.5,6.5-6-.5-2.5-2-1.5-4-1.5-4.5-5.5-.5,2.5-1,1.5-2-1.5-1.5-6-3-2.5-.5-5-2-1.5-.5-3.5-2.5-1h-4l-3.5,4-1.5-1.5-2-5-6.5.5-2-8.5-4-3.5-3.5-.5-1-2,3-2h4l6-6,3.5-1.5.5-4.5,2.5-.5,2-4.5,2-.5,2,.5,3,4,3.5.5v1.5l1,.5,8-2.5,7,3,4-2.5,4.5-6.5,1.5,1,.5-1,1,1,2-.5,3.5,3,2.5.5.5,1h.5v1l1.5-.5v2l1.5-1,2,1.5,1-1.5,1.5,2,2-2,2-.5,1.5,1.5.5-1.5,3.5.5,1-1.5.5,1.5h2l2,1.5,1.5-.5,1.5,1,1.5-.5,1,1.5h27.5l19.5,12h4l1,2,6-2,1,1,3.5-1.5,3,.5,1,1,3-.5,1,1.5.5,1.5,2,2,1-1.5,2.5-1.5h1.5l1-1.5,4-2,3.5,2,5-1,6.5.5,3.5-.5,2,.5.5,2,1.5.5.5,1,1,.5h2l2.5,3.5-1,1-1,3,1.5,4.5h2l2.5,1.5-.5,3,.5,1,1.5.5,1,3.5,1.5,2,1.5,4.5,1.5,1,2.5-.5,3,2v4.5l-2,.5v2l-3,5.5,1,4-1.5-1-2.5,4h-1.5v2.5l-1.5,2.5-1.5-.5-.5.5v1l1,1,.5,1-1,1.5,4,7-.5,3h1v1.5l-.5,1.5,3,2.5v1.5l5,3.5,1,1,1.5-1,4,.5,2,1,.5-.5,3,2v6.5l-2,2.5.5,2-.5,2.5-2.5,4.5v1.5l4,1v1l2,1v1.5l1.5.5-2,2,.5,1-2,1v2l-2.5,1.5-1.5-.5v-1l-3-1.5v-.5l-1.5-1h-4l-9,12v.5l1,1.5-.5,1,1,4-2-1.5-1.5.5-.5,2.5-3,1-2.5,2.5-.5,2-5,3.5-4,1.5v3.5l3.5.5,1,1v2.5l2,1,.5,1-2.5,2.5h-6l-4.5,3-.5-.5-1-1.5-.5-.5-3.5,1-2-2h-.5l-1.5-1h-.5v-3l-1-1,.5-2.5h-.5v-1l-.5-1.5-5,1-2-2.5h-1l-2.5.5-2,3v2l-2,5.5,1,2.5-.5,1,.5,1.5-4,1.5-.5,1,2,1.5-2.5,2-2,.5-1.5-1v-1h-1l-6,3.5-1,2.5-3.5,3h-5.5l-1-1.5h-1.5v-1l-1.5-.5-5,2h-5l-1-1v-6l-2-1.5,1-1-2-.5-3.5-4.5.5-1.5,2.5-1-1-2-2.5-2-1-2.5,2.5-4,3.5-1,1-3.5-2.5-2.5.5-3-1.5-1-.5-1,1.5-2.5-5-2-2-3-3.5-2.5-3,2.5-3-1.5v-2l-.5-2-7-4.5-1-2h-4l-2,2-1.5-.5-2.5-4.5-10.5,1.5-7.5-4-5,1-4-1.5-8-3-2.5-2.5-4-1.5"/>
      <path data-code="verkhneviljujskij_ulus" data-title="verkhneviljujskij ulus" class="cls-2" d="M369.12,1113.73v-1.5l1-2-1-2-1.5-1.5v-3l2-2.5-.5-1.5,2.5-4,3-3-1.5-4.5-8-4-2-2.5-.5-2,1-2.5-.5-1,2.5-2.5-.5-1.5v-.5h2l-.5-1.5,1.5-1.5.5,2,1.5-2h1.5l1.5-3,4-1.5,3.5,1.5,1,1.5,3.5.5v-.5l-2-2,1.5-1.5,1.5,1v2l1,.5h1.5l2.5,1.5,2,.5-1,1.5,3.5,1,1,.5.5,1.5,3-.5-2,2,.5,1.5,1.5,1.5,1.5,1,1-1.5,1,1.5,1-.5,7.5,2,1,1,1,4.5-1.5,2.5,1.5,4,2,3.5-1.5,1.5v2.5l-3.5,3.5v3.5l-.5,6-1,1v3l.5,2.5,1.5,1v1l-3.5.5-.5,1v1.5h-1l1,1.5,3.5,3,2.5.5-1.5,2.5,1.5-.5,1.5,2-1,.5v1l2,1.5-1.5,1,1,2,2.5.5v1.5l1.5-.5v2.5l.5,1.5-.5.5.5,4,4.5,2,1,1-.5.5,3-1,2.5,1.5v-1.5l1.5,1,1-1.5,2,.5,2,1,.5,1-.5,1.5.5,1.5,3,2.5-1,2,1.5,4-2,.5,3,1.5v1.5h-1.5v1.5l2,1.5-1.5,2.5v1l5,4-2.5,1,2,.5,1,1,2,.5-1,.5.5.5,2,.5-1.5,1h5.5l2.5,2,2-.5-.5.5v.5l1.5.5h1.5l1-1,2.5.5-2.5,2.5.5,2.5h2l-1,1,1,.5-1,1.5h1.5l-.5,1,1,.5-.5,1,2-.5v1.5h1.5v1h1v1h-1.5l2,1v1.5l2-.5.5,1.5,2-1.5,1.5,2,.5-1,1,1.5h2.5l1.5-1-1-1.5h1l.5,1.5h.5l.5-2.5-.5-.5.5-.5,1.5-1v1.5h1v-1l-.5-.5v-1.5l2.5-1,3-3.5-.5-1,4,.5,1-1.5,1.5,1v1l-1.5.5v3.5l2,.5-.5.5,1.5,3.5-.5,1,1.5,1-.5,1.5h2l.5.5,2,1.5v1.5l1,3,1.5,2.5-.5,5,.5,2,1.5,4h2.5v.5l-10.5,1-2.5,3,.5,3.5-.5,1h2.5l2,2.5v1l1.5.5-.5.5.5,1.5h1l.5,1,2-.5,3.5,2.5,1.5.5,1-1,2,1.5.5-1,2.5,1v-1l3,.5.5,1.5,1,.5-.5,1.5,1.5,1,.5,1,.5-1,4.5,2.5.5-1,.5,1,3,2,.5,1,1,.5v2.5l1.5,1.5-1,1.5h-1l1,1-1,.5h1l.5,2.5-1,.5.5,1-1,2,.5.5-1,1,1.5,1-.5,2,1,.5v2l1-.5-.5,1,1,.5-1,.5,1,.5-1,.5,1,1v1.5l3.5,1,1.5-.5,3,1.5.5.5-.5,1,3,1-.5,1,1,5v1.5l2,4.5v1.5l2.5,3,.5,7,5,7,1,2.5,4,2.5,1.5,2,3.5,1,6-1,1,1,1,6.5,1.5,2,7.5.5,3.5,5.5-1.5,2.5-1,4,1,2,2.5-1,1,1.5v2.5l-6,2.5-1.5,5-4.5,4-8.5-.5-17.5,6.5-1-1,.5-2-7-.5-2-.5-2-2.5-5.5-1-8.5,5.5-2.5.5-2.5-1-12,3-1.5-4.5-.5-4,1.5-9,2-6-1-3-9-11-14-5v-3.5l-2.5-2.5-2.5,1.5-6-2-1.5-2-3.5.5-4.5-8.5.5-2.5-.5-1.5-3.5-3.5v-2l1.5-2-.5-1.5-.5-1.5-3-2v-2l-1-2.5h-2.5l-.5-2.5-1-1.5-2.5-1-1.5-3-.5-4,2.5-2.5v-2.5l3-3,1.5-7,2.5-4-1.5-2,1.5-.5-6-5-2-3.5.5-7.5h1.5l-1-2-2-3-4-2-7.5-8h-2l-1-1.5v-1l-.5-2-1.5.5-3-2.5-.5-1.5.5-1-4-3-2-4v-2l1.5-.5-3-4v-1l-.5-3-2.5-.5-.5-3,1.5-.5-1-4,1-1-2.5-2,1.5-1v-2.5l-2.5-2,.5-1.5-1.5-2.5.5-5-1-.5v-1.5l-1.5-1.5v-1.5l-1.5-1v-4l-1.5-1.5-.5-3-1-1.5-10-4.5,1-1.5h-1l-.5-3-1.5-1v-2l-2.5-2,1-2-2.5-2,1-.5-.5-.5v-.5l-5.5-2,1.5-4.5-1-.5v-1.5h-.5l-.5-1.5-.5,1-1.5-1.5,1.5-2-3.5-2.5h-1.5l.5-1-3-.5v-1l-1.5-1,1.5-.5-1.5-.5,1-1.5h-1v-2l-1,1h-2l-.5,1-7,3,1-1.5-2-2"/>
      <path data-code="verkhojanskij_ulus" data-title="verkhojanskij ulus" class="cls-2" d="M678.62,956.23l-1.5-5-2-7-2-4.5,3.5-.5.5-3,2.5-3v-1.5l-3.5-4.5v-4.5l3-6,.5,1.5,1,.5,3.5-4.5h7.5v-2l2.5-2,1-3-1.5-2.5.5-1.5-1-3.5-1.5-.5-.5-1,1.5-1.5-.5-2-1.5-1,.5-5,2-4.5-2-8,.5-2h1.5l2.5,2h5.5l-1-2-1.5-7,4-5,.5-2.5,1.5-2,3.5,1,2,2,1.5-2-2-3,1-.5-1-3,1-3,2-1v-4l1.5-3-.5-12,.5-3-.5-2.5,2.5-2.5.5-2-1-3,3.5-4,2-5-.5-1.5-1.5-1-4,.5,4-7.5h-3.5l-6-2.5-5.5-.5-1.5-3-2.5-2.5-5.5-2-4-2.5-6-6.5-2-1-4,.5-3.5-2-1-2.5-.5-1,2-1.5,1.5-3.5.5-4-2-2.5.5-1.5-1-2.5,1.5-2v-2.5l-1.5-1,.5-4.5-1-2.5-.5-4.5-1-1.5,2-2,.5-4.5h1.5l.5-7.5,4-2,.5-2,2-1-.5-2.5,3-8.5,10-10-1-2,1.5-4.5v-2.5h2l4.5,2,4.5.5,4,5,9,3.5,1-4.5,5.5-3.5,2.5.5,3-2.5,4.5-9,6-1.5,2-2,1.5,1,7-3.5,2,3.5,1,5.5,1,2,1,1.5,3,1.5,1.5,3,2.5,1.5.5-1,1,1-3.5,6,.5,1.5,3.5,4,2,1.5v3.5l2,4.5,6.5-2,1,2,2,1.5-.5,2.5,2.5,1,3-2.5,7.5.5,1-2.5-.5-2,2.5-2.5.5-2.5,2,2,2.5-.5,3,3h1.5l1,1.5,3,.5,1.5-1,3,4,2.5,1,2,3v3.5l4.5-.5v3.5l2,3.5,2,.5v4l2.5,2.5,5,2,3,2,3-3,1,.5,1.5-1.5,11,8,1,1-4.5,4-1,3,.5,2,4,4.5,10,6,4,8-1,3-2,1.5-.5,4v3l11.5,7,2.5,3.5,1,2.5h6l.5,3.5,1.5,1.5.5,3-4.5,4,.5,1,1.5.5,1.5,1.5.5,1,3,2.5,2-1.5,6-1.5,2.5,1.5,3-2,1.5,1,2.5-1.5,2.5,1.5.5,2,3.5,2,1,2.5,1.5,1,.5,1.5,5,.5,4.5-1.5,3,1,1.5,1.5,2.5.5,2,2.5,4-1,5,1.5,1.5,1.5,1.5,4,1,1,1,2,1.5.5,1-2,2-1,2,2v1.5l1.5,1.5-1,3,1,2.5-5.5.5-1.5-1-4.5,1.5,1,1.5-1,1.5,1,3-5.5,5.5-.5,2,1,1.5,1.5,1,5.5,2v1.5l2,2.5,4,1,3.5-.5,1,1,1.5,5v2l4.5,1.5-3.5,4.5-4,1.5-5-1-1.5-1.5h-3.5l-3.5-1.5-6.5.5-4,2.5-4.5,6.5-3,1-1,3-4.5.5-2.5,3-4,2-5-1.5-.5,2-4.5,3-7,1.5-4.5-2.5-6,3-4-2-5.5,2-3-2-2,.5-2.5-1.5-12.5,6.5.5,1.5-2,1v3.5l-2,4.5.5,4-4.5,3.5.5,1.5-2,3.5,1,2.5-.5,1.5-5,1.5-2,1.5,1,2.5v2l-.5,3-7.5,6-4,1.5.5,5-1.5,1.5.5,2-.5,1,1.5,4v1.5l-1.5,6v6.5l1.5,1.5.5,2-4.5-1-3.5,6.5-2.5,3,.5,6-.5,2-9.5,2.5-3.5-2-7.5,3.5v4.5l-2.5,4v4.5l2,3.5v3.5l2,5.5,5.5,5.5v3.5l2,3.5-1.5,4.5.5,1.5.5,1.5.5,1.5-1.5.5-1.5,3-3.5-1.5v-2l-4.5,5-5.5-1-1-3.5.5-3-1.5-3.5-3.5-2.5-2.5-4.5-3-1.5-1.5-1.5-6.5-9-3-2-1.5-2-4.5-1.5-2-2.5-2,2-1.5.5-2.5-1.5-1-2-2-2h-2l-.5-1-2-2,1-9-1.5-6v-4l-8.5,5-2-4-2-2.5-2.5,1.5-1-1.5-5.5-3.5-.5-3-9,1-6.5-3-5-1-6.5-7-5.5,1.5-2.5,2-6.5-12-1-1.5,1-1.5-1.5-4-4.5-2-3-3"/>
      <path data-code="viljujskij_ulus" data-title="viljujskij ulus" class="cls-2" d="M380.62,1065.73l.5-2.5,5.5-5,1-4.5-.5-1.5,2-3-3-1.5-3.5-4.5v-2l-3-4.5-1.5-3.5,7.5-.5,13.5,1.5,5.5,4.5h1.5l1.5,2h1.5l2.5,2,1.5,3,1.5,1.5,2.5,1,1,2v2l3,2,1.5-1.5,2.5,5,1.5,2v1.5l3.5,1,.5,3,4,5-2,2,1,4,1.5,2.5,1,3,3.5,5v5.5l-1,5.5,1.5,1.5,1,4,1.5,2,6.5,1.5,3,2.5h4l4.5,2,1.5,1.5.5,2,2.5,3,.5,3,1.5,1,3,1,.5,1-.5,2,1.5,2,10.5.5,10.5,5.5,11.5,3h7.5l5.5-1.5,1.5,3,2,1.5,6,3,1.5-1v-2.5l1.5-1.5h1.5l7,4.5,6,1.5,5.5-3.5h9.5l.5-2,5-3-.5-4.5-.5-2,1-3,9-7.5,1.5-.5,8,4.5,3,4,2.5,5,1.5,1.5,10.5,4.5.5,3-5,14.5-10,13-4,12-4.5,1-2.5,4-3.5,2-1.5,3.5v5l.5,5.5-2.5,2.5v2l1.5,2.5v1l2,3.5-1,.5,1,1.5.5,3,2,1.5v3h7l1.5,1.5h2l1,1.5v1.5l1,2,1,2,6.5,1,26,1.5,3-1,5,1,20.5-5-3.5,6.5,1,2.5-.5,2v3l2,5,.5,2.5,2,1.5-2,4.5-6,1-6.5-.5-3,1-3.5,3,2,2-4,5.5-.5,3.5-6,5-4-1.5h-5l-3.5-1.5-13,1-2,.5v2l-5,3.5h-3.5l-7,3-1,5.5-4.5,3-1,2.5-2,1-4.5-2-3.5,2.5-2,14-4.5,2.5-2-3.5-.5-7-2.5-3v-1.5l-2-4.5v-1.5l-1-5,.5-1-3-1,.5-1-.5-.5-8-2.5v-1l-1-1,1-.5-1-.5,1-.5-1-.5.5-1-1,.5v-2l-1-.5.5-2-1.5-1,1-1-.5-.5,1-2-.5-1,1-.5-.5-2.5h-1l1-.5-1-1h1l1-1.5-1.5-1.5v-2.5l-1-.5-.5-1-3-2-.5-1-.5,1-4.5-2.5-.5,1-.5-1-1.5-1,.5-1.5-1-.5-.5-1.5-3-.5v1l-2.5-1-.5,1-2-1.5-1,1-1.5-.5-3.5-2.5-2,.5-.5-1h-1l-.5-1.5.5-.5-1.5-.5v-1l-2-2.5h-2.5l.5-1-.5-3.5,2.5-3,10.5-1v-.5h-2.5l-1.5-4-.5-2,.5-5-1.5-2.5-1-3v-1.5l-2-1.5-.5-.5h-2l.5-1.5-1.5-1,.5-1-1.5-3.5.5-.5-2-.5v-3.5l1.5-.5v-1l-1.5-1-1,1.5-4-.5.5,1-3,3.5-2.5,1v1.5l.5.5v1h-1v-1.5l-1.5,1-.5.5.5.5-.5,2.5h-.5l-.5-1.5h-1l1,1.5-1.5,1h-2.5l-1-1.5-.5,1-1.5-2-2.5,1.5v-1.5l-2,.5v-1.5l-2-1h1.5v-1h-1v-1h-1.5v-1.5l-2,.5.5-1-1-.5.5-1h-1.5l1-1.5-1-.5,1-1h-2l-.5-2.5,2.5-2.5-2.5-.5-1,1h-1.5l-1.5-.5v-.5l.5-.5-2,.5-2.5-2h-5.5l1.5-1-2-.5-.5-.5,1-.5-2-.5-1-1-2-.5,2.5-1-5-4v-1l1.5-2.5-2-1.5v-1.5h1.5v-1.5l-3-1.5,2-.5-1.5-4,1-2-3-2.5-.5-1.5.5-1.5-.5-1-2-1-2-.5-1,1.5-1.5-1v1.5l-2.5-1.5-3,1,.5-.5-1-1-3.5-1.5-1-.5-.5-4,.5-.5-.5-1.5v-2.5l-1.5.5v-1.5l-2.5-.5-1-2,1.5-1-2-1.5v-1l1-.5-1.5-2-1.5.5,1.5-2.5-2.5-.5-3.5-3-1-1.5h1v-1.5l.5-1,3.5-.5v-1l-1.5-1-.5-2.5v-3l1-1,.5-6v-3.5l3.5-3.5v-2.5l1.5-1.5-2-3.5-1.5-4,1.5-2.5-1-4.5-1-1-4.5-1.5h-4l-1-1.5-1,1.5-1.5-1-1.5-1.5-.5-1.5,2-2-3,.5-.5-1.5-1-.5-3.5-1,1-1.5-2-.5-2.5-1.5h-1.5l-1-.5v-2l-1.5-1-1.5,1.5,2,2v.5l-3.5-.5-1-1.5"/>
      <path data-code="zhataj" class="cls-2" d="M790.62,1247.73v-2l1.5.5.5,2-1,1v-1.5h-1"/>
      <path data-code="zhiganskij_ulus" data-title="zhiganskij ulus" class="cls-2" d="M330.12,1023.73l-.5-2.5,1.5-3,8.5-5,3.5-5v-1.5l-1-1-16-10.5.5-3.5-.5-1,10-6.5,1.5,1,4.5-.5,1.5-3,3-.5.5-3.5,1.5-1.5-.5-1.5,2.5-1v-1.5l-5.5-6.5-1.5-3,.5-2,3-1.5.5-2h2l.5-2,2,.5,1-1.5,6.5-1.5.5-1.5,1.5,1,4-2.5,4,1.5,1.5-1v-1.5l1.5-3v-1.5l-1-5-1.5-2-2.5-2.5v-2.5l5-.5v-2l-1-2.5-.5-1.5,1-3,2.5-.5v1h2l4-3.5,5-.5v-2.5l-1.5-3,.5-4-1-3.5-4.5-3.5-4,.5-2.5-6.5-.5-1.5-2-2.5-3.5-2-13-2.5-2.5-1.5-2.5-3.5v-3l4.5-11.5,2-.5,7.5,2.5,4-4.5,2-1.5.5-1.5,4.5-1.5v-1.5l3-2.5v-1.5l6.5-2,2-2.5h1.5l1.5-1-1-2,.5-.5-1-2.5,1-1.5,5-.5,3,1,2.5,2.5,5,3.5,2.5,6.5,4,5,5.5,1,1.5,1,.5,1.5,2-1,2.5.5,4.5-2.5,1,.5,1-1.5,4-1,4,1.5.5-1h2l.5-1-1-2,.5-1,2.5,3.5h8.5l7,5.5h3l2,3,4-1,.5-.5-.5-1.5,1-1,.5,1.5v1l1,.5.5-3,1.5,2.5,5.5-1-1.5-.5,2-2-2-1.5,4-3-.5-2h1.5l-.5-1,.5-1,2,1,.5-1.5,2,.5-.5-2,2-1-.5-1.5.5-1.5h-2l-.5-1h2l-1.5-3.5-1-1,1.5-1-1-1.5.5-.5,5,1v.5l6.5,3,.5,2,3-1,1.5.5.5,1.5,3.5.5,1-1v1.5h3.5v1.5l.5.5,1.5-1.5v1l1,1.5,2-.5.5.5,1.5.5,1-1,4,2,1,1.5,2.5-3.5,3.5,1.5-2-3,3.5,1.5,1-2,1,1.5,2-1,1.5,2.5h1l3-2.5,1.5,2,2-2,6,3,2,3,9.5,1,1.5,6-.5,2,1,1,1,3-2,1.5-2.5-1-1.5,2.5,1,1.5-.5.5-5.5.5-1,2.5,1.5,1.5-.5,2,1,2,3.5,4.5,3.5,2-.5,2.5,1.5,1.5-1,1.5,1.5,1.5,2,5.5.5,3.5-1,2.5.5,1.5,2.5,1,3.5,6.5,1,.5,6,1.5,9.5-2,2.5,2h2.5l.5,1.5-1,3.5,1,1v3.5l2,1,1,3,2.5,2.5-.5,1.5,3.5,6.5,1,4-3.5,4v1.5l4,2.5-2,2.5,1,1.5,2.5,1,.5,1.5v2l-3,3.5v3l1,2,3,3,5.5,7.5,1.5,1-2.5,4-.5,2,.5,2.5-.5,4.5-2,3,1,5,3,7v2.5l2.5,3,4-1.5,2,3.5,3.5,1,.5-3.5h1.5l4,2h3l.5,1,.5,2.5-4.5,3,2,10.5v1h-2.5l-2.5-1.5h-1l-1,1.5.5,1.5-.5,2.5,1,3.5.5,4,1,3-4,4.5-2.5-.5-4,2v3.5l-1,1.5.5,3.5-2.5,2.5-7,1-3.5,2.5-4.5,6,.5,3-8,3.5-4-.5-2,1.5,1,2-3.5,3.5-1,6.5.5,3.5v6l-1,1.5-1,5-2.5,4.5-10.5,8-1,3,.5,2,.5,4.5-5,3-.5,2h-9.5l-5.5,3.5-6-1.5-7-4.5h-1.5l-1.5,1.5v2.5l-1.5,1-6-3-2-1.5-1.5-3-5.5,1.5h-7.5l-11.5-3-10.5-5.5-10.5-.5-1.5-2,.5-2-.5-1-3-1-1.5-1-.5-3-2.5-3-.5-2-1.5-1.5-4.5-2h-4l-3-2.5-6.5-1.5-1.5-2-1-4-1.5-1.5,1-5.5v-5.5l-3.5-5-1-3-1.5-2.5-1-4,2-2-4-5-.5-3-3.5-1v-1.5l-1.5-2-2.5-5-1.5,1.5-3-2v-2l-1-2-2.5-1-1.5-1.5-1.5-3-2.5-2h-1.5l-1.5-2h-1.5l-5.5-4.5-13.5-1.5-7.5.5-2.5-2.5-1.5-2-13.5-1-3,1.5-9.5-5-9,6.5-2.5-.5-1.5-.5v-3l-3.5-1-1.5-2"/>
    </g>
</svg>