<svg data-code="RU-TYU" xmlns="http://www.w3.org/2000/svg" viewBox="0 0 389.25 337.02">
    <g data-code="tjumenskaja_oblast_" data-title="tjumenskaja_oblast&amp;apos;">
      <path data-code="abatskij_rajon" data-title="abatskij rajon" class="cls-1" d="M169.12,243.26l3,2.5h3l2-3v-2h2l1.5,2v2l2.5.5.5-1.5,10.5-.5,2,1.5,4.5-1.5,6.5,1.5.5-.5.5-2,4,.5,3.5,2-3,6.5-4.5,3.5-7-1-2.5,1,1.5,1,1.5-1.5,1,4.5,2,1-1,1.5v4l-3-1-5.5,2,1,3.5h1.5v1.5l-1,.5,1,3.5h1v2.5l-.5,2h.5l-4,7.5-3,3.5-15-4.5-1,2-11-9.5.5-1,2.5-.5,1-4-1.5-5.5-1.5-1-1,.5v-4.5l1-2v-1.5l1.5-.5,3-2,.5-2h-1.5l.5-2.5,2-1v-1l-2.5-1-.5-1.5,1-2-.5-2.5"/>
      <path data-code="armizonskij_rajon" data-title="armizonskij rajon" class="cls-1" d="M58.62,247.26l.5-1.5,1,.5,2.5-6,3-4.5-2-2,4.5-1.5,1-3,9,2-.5,2,5.5-.5-6.5,11,1.5,2,1-1,2,.5,1.5-1.5,3.5,2,3-4,2,4h2l2.5-8,2.5.5,2,1.5-.5,1.5,2.5,1-1,5-1.5-.5-.5,1.5,1,2-1,3,3,.5-.5,1h-2l-4-2v1.5l1,.5.5,4-.5,2.5v1.5l-.5,1,.5,1.5-2,2.5,2.5,1.5-1.5.5-2,6-5,1-2,1.5h-2l-1.5-2,.5-2.5-1-1.5-3.5.5-4-2-2,2v-2.5l-3-1-.5-1.5h-1.5l-.5-9.5,1-.5-1-3.5.5-2,1.5-1-7.5-2v-1l-3.5-1"/>
      <path data-code="aromashevskij_rajon" data-title="aromashevskij rajon" class="cls-1" d="M122.62,198.26h6.5l1-3.5,1-1-1-3,1.5-3h4l.5-1,1.5,1,2.5-2.5,15,2v-1h2l.5-2-2-1,3-1,.5,3.5-1,1.5v1l2,1.5,1-1,1,2.5,1.5-.5-.5.5v1l4.5-1v2.5l3,1.5v1l-1.5,3-.5,2-3.5,2.5h-1.5l-.5,7-2.5,2.5-3.5.5-1.5,4.5,2.5.5v4.5l3.5,1-1.5,3-5.5-1.5-3,1-8.5-2,1.5-3.5-9-2-8.5-5-1.5-1.5v-1.5h.5l-.5-3.5h.5v-1.5l.5-.5-1.5-4,1-1-4,.5.5-3"/>
      <path data-code="berdjuzhskij_rajon" data-title="berdjuzhskij rajon" class="cls-1" d="M95.62,252.76l8.5,3,5,4,3-1.5v-.5l.5-1.5,4.5.5,1,5,3,1.5,1,5.5,2,2-.5,1,1,1.5h3v2.5l-5,1-1.5,3.5.5,3-3,5,2,1.5-8.5,2.5.5,1h-3l.5,7-1.5,5.5-2,1.5-1-1,1-2-2.5-2v-1.5l-4-.5-1-4.5-3-3,1-4.5-4-2.5.5-3,1-3-.5-.5,1-2.5-1.5-1,2-6,1.5-.5-2.5-1.5,2-2.5-.5-1.5.5-1v-1.5l.5-2.5-.5-4-1-.5v-1.5"/>
      <path data-code="golyshmanovskij_rajon" data-title="golyshmanovskij rajon" class="cls-1" d="M106.12,208.26l11-6,3,.5,2-1.5,4-.5-1,1,1.5,4-.5.5v1.5h-.5l.5,3.5h-.5v1.5l1.5,1.5,8.5,5,9,2-1.5,3.5h-1.5l-2.5,6.5,2,1-1.5,3-1.5-1-.5,2.5-2,4-1,1v.5l-4.5-1.5.5-1-2.5.5-2.5,3,1.5,1.5-.5,1.5-2.5-1.5-3.5,3,2,.5-.5,2.5,2.5,1-.5.5v1l-2.5.5-2-2-1,.5v4.5l-6-.5-.5,1.5v.5l-3,1.5-5-4-2.5-1,.5-1-3-.5,1-3-1-2,.5-1.5,1.5.5,1-5-2.5-1,.5-1.5-2-1.5,2-2.5-1-1.5,5-3-2-3v-2l2.5-1-.5-4,2.5-4.5h2l-3.5-2,.5-1.5,4-.5.5-1.5-4-3"/>
      <path data-code="isetskij_rajon" data-title="isetskij rajon" class="cls-1" d="M5.12,170.26l8,3.5,2.5-5.5,5,3,2.5,3,4.5.5,1,2.5.5,1,4.5.5-.5,10.5,2,2.5v1l.5,5v3l-2,1-3-.5-3.5-2,1.5,1-.5,1.5.5,1.5-1.5,1.5-1-.5-.5,1.5-3.5-1.5-1,1,.5.5-.5,1.5-2.5,5-6.5-3.5-8-2-1.5-1-1.5-2-.5-2.5,4,1.5.5-.5.5-1.5-2.5-1,.5-3-1-.5.5-2-1.5-2-.5-3v-1l1.5-1.5-.5-.5.5-1.5,1-1-.5-2,2,.5.5-2-2-.5,2-2.5-1-.5,1.5-1.5-1.5-2,.5-2v-1"/>
      <path data-code="ishim" class="cls-1" d="M144.62,264.26l2.5-.5.5-1.5h3l.5,1-.5,1.5.5,1.5-1.5-.5v1l-1-.5,1,1-1,1-1-2.5-3-1.5"/>
      <path data-code="ishimskij_rajon" data-title="ishimskij rajon" class="cls-1" d="M144.62,264.26l3,1.5,1,2.5,1-1-1-1,1,.5v-1l1.5.5-.5-1.5.5-1.5-.5-1h-3l-.5,1.5-2.5.5M117.12,256.76h1.5v-4.5l1-.5,2,2,2.5-.5v-1l.5-.5-2.5-1,.5-2.5-2-.5,3.5-3,2.5,1.5.5-1.5-1.5-1.5,2.5-3,2.5-.5-.5,1,4.5,1.5v-.5l1-1,2-4,.5-2.5,1.5,1,1.5-3-2-1,2.5-6.5,11,1.5,1.5,3-.5,2,.5,2,9,3.5-1,4.5,1.5,1.5v1l5.5,1,.5,1-1,2,.5,1.5,2.5,1v1l-2,1-.5,2.5h1.5l-.5,2-3,2-1.5.5-1.5,5,.5,3,1-.5,1.5,1,1,3.5.5,2-1,4-2.5.5-2,3-1,3-2.5-1.5h-3.5l-1-1-4.5,4-4-2v-1h-4.5l-1.5-1.5-.5,1-3-2.5-5-1.5-2,3-.5-.5.5-1.5v-2.5h-1l2-2.5-3-1.5-.5,1h-3l-1-1.5.5-1-2-2-.5-5.5-3.5-1.5-1-5"/>
      <path data-code="jalutorovsk" class="cls-1" d="M46.12,193.76l2-1.5.5.5,1.5-1,2,1.5h-1v1l.5,1.5-2.5,1.5-3-3.5"/>
      <path data-code="jalutorovskij_rajon" data-title="jalutorovskij rajon" class="cls-1" d="M46.12,193.76l3,3.5,2.5-1.5-.5-1.5v-1h1l-2-1.5-1.5,1-.5-.5-2,1.5M34.12,180.76l3-.5v-2l-.5-.5,1-2,3.5.5,4,4,6.5-.5,1-2.5,2.5-2-4.5-.5-1.5,1.5v-2.5l2-1.5.5-2.5,2.5.5,5.5-5.5h2.5l.5-1,4,3.5v-1l5,1,1.5-1,2,1.5-1.5.5-1,1.5,2.5,1,1-.5-.5-.5,2,.5-.5,3,1,1,2.5,1v1l-.5,2-2.5-.5-.5,1h3.5l.5,2.5-5-2-4,12-1.5,2-4-2.5h-1l-1.5,3-2-1-1,1-1.5-.5-.5,4-1,2.5h-3l-2.5-1.5-2,1.5-3-1,1,1.5-1,.5.5.5h-6l-1,1-2.5.5v.5l-2.5-.5-1,1-.5-1,1-.5h-1l-.5-1,1.5-.5v-3l-.5-5,.5-1-2.5-2.5,1-8.5"/>
      <path data-code="jarkovskij_rajon" data-title="jarkovskij rajon" class="cls-1" d="M65.12,157.26l3-1,.5-2,1.5-1,4,1,2-1-.5-1.5h1v-1l5,1.5h5l-1.5-4,1-4h-2l1.5-1-2-4-3.5-2.5,2-4.5-.5-2-3.5-2.5,1.5-.5v-2l1.5.5.5-1.5,3.5-1.5,4,1,1.5-.5,1.5,1.5v-1l.5-.5,1.5.5,2-1.5,1,1,2.5-1.5h1l.5-1v-1.5l1-.5-1-3-10-6,2-2.5-3.5-2-1-7,8.5-2,20.5,12-2.5,11.5,2.5,2v4.5l-1.5,1,3.5,1.5-1.5,1-1.5-.5-1.5.5,2,2.5-.5.5.5.5-2.5,1v.5h-2l-1,3,2.5,1-1,2.5,5.5,2-1.5,2,1.5,2.5,3,1.5.5-1,4,1.5.5,1.5-1,.5v2.5l-2,1.5v1h2.5l-2,3.5-2.5.5-2.5-1.5-3.5,1,2,5.5-2,2.5,1,.5-2.5,4.5-4-2-3,4.5-3-2.5-4.5,1-1.5-2,1-2.5-16.5,1-1,3.5-2,1-2.5-2,.5-3-2-.5.5.5-1,.5-2.5-1,1-1.5,1.5-.5-2-1.5-1.5,1-2.5-1-2.5.5-2-3-.5.5v-1.5l-.5-.5,2.5,1,.5-1-1.5-.5v-4.5"/>
      <path data-code="jurginskij_rajon__tjumenskaja_oblast_" data-title="jurginskij_rajon_(tjumenskaja_oblast&amp;apos;)" class="cls-1" d="M77.12,178.26h3l.5-3,2-3v-1.5l16.5-1-1,2.5,1.5,2,4.5-1,3,2.5,3-4.5,4,2,2.5-4.5,11,6.5,3.5-1,2.5,2-1,2,3.5,3.5-1.5,3.5,1.5,1.5-.5,1h-4l-1.5,3,1,3-1,1-1,3.5h-6.5l-.5,3-2,1.5-4-.5-2.5-3-1.5,1,.5,1h-1v1.5l-4,1.5-7-2.5v2l-.5,1-5-1.5-.5,2,1,.5-.5,2.5h-11.5l.5-3-10-5,1-.5v-1.5l1.5-.5.5-1.5,1.5.5,1.5-5,2,1,1-2-3.5-1.5,2.5-7.5-1-.5-.5-2.5-3,.5-.5-1"/>
      <path data-code="kazanskij_rajon" data-title="kazanskij rajon" class="cls-1" d="M109.62,293.26h3l-.5-1,8.5-2.5-2-1.5,3-5-.5-3,1.5-3.5,5-1,.5-3.5,3,1.5-2,2.5h1v2.5l-.5,1.5.5.5,2-3,5,1.5,3,2.5.5-1,1.5,1.5h4.5v1l4,2,1.5-1,1,8-3,1,.5,3.5-3,4-.5,2-1,1,.5,2-3,2.5-1.5,3-2.5-.5-.5,1,1,2,.5,3.5-4-1.5-.5,1-2-.5-2-2,.5-1.5-2-1.5-2.5,2.5h-4l-.5-4-3.5-4-2.5-.5.5-1.5h-1.5l-2,4.5,2,1-.5,5.5h-1v-3h-1l-5.5-6,1.5-5.5-.5-7"/>
      <path data-code="nizhnetavdinskij_rajon" data-title="nizhnetavdinskij rajon" class="cls-1" d="M21.62,111.62l23.5-6v5l1,.5v1.5l.5.5,1-1.5,3-.5-.5-1,1,.5,3-2.5-1-1.5,2-2.5,2.5,1,1,2,2.5-3.5,5.5,1v-1.5l2.5-.5v-1l5,.5,5,2,3-1.5,1-1h-.5v-1l1.5.5,4.5-2.5,1,7,3.5,1.5-2,2.5,10,6.5,1,2.5-1,1v1l-.5,1.5-1-.5-2.5,2-2-1-.5,1-3,.5.5,1-2-1.5-1.5.5-3.5-1-3.5,1.5-.5,1h-1.5v2h-1.5l3.5,2.5v2.5l-1.5,4.5,3.5,2.5,2,4-1.5,1,2-.5-1,4,1.5,4-5.5.5-4.5-1.5v1h-1l.5,1.5-2,1-4.5-1-1,1-.5,2-9.5-4-1,1-3-2.5.5-1.5h-2.5l-.5-1.5h-1l.5-1-1.5-1,2-1.5-1-2-1,.5-3-1.5-2.5,3.5-13.5-5-2.5.5-1-1.5,1-3.5v-2l-4.5-1.5,1.5-1,.5-1-7-5,3.5-6.5h2.5v-3l-2.5.5.5-2.5h-1.5l.5-1.5-.5-.5"/>
      <path data-code="omutinskij_rajon" data-title="omutinskij rajon" class="cls-1" d="M72.62,216.62l1-1,.5,1,1-1.5v-2.5l2.5-3.5,6.5-1,10.5.5,1-3h-1l.5-2,5,1.5.5-1.5v-2l7,3,3.5-1.5.5-1.5,1-.5-.5-.5,1.5-1,3,3-10.5,6,4,3-.5,1.5-4,.5-.5,1,3.5,2.5h-2l-2.5,4,.5,4.5-2.5,1v1.5l2,3-5,3,1,2-2,2.5-2.5-.5-3,8-1.5-.5-2-4-3,4.5-3.5-2-1.5,1h-2l-1,1-1.5-2.5,6.5-10.5h-5.5v-1.5l-6.5-1,1.5-4.5-2.5-.5,3.5-8-1-1"/>
      <path data-code="sladkovskij_rajon" data-title="sladkovskij rajon" class="cls-1" d="M143.86,308.39l3-2.5-.5-2.5,1-1,.5-2,3-4-.5-3.5,2.5-.5-1-8.5,3.5-3,1,1.5h3.5l2.5,1.5,1-3.5,1.5-1.5,8.5,8,2.5,1.5,1-2,3.5,1-1.5,4,3.5,3,1-1h5.5l2.5,2.5-3-.5-2.5,1.5-1.5-.5v-1l-4,.5,1,2-2,1.5-1,3v3l2.5,3,2.5.5,1,1.5v1.5l-2,1.5-3,4-3.5-1-6.5,4.5,1,5.5-1,2.5-3.5,2.5-1,2-4,.5-3.5,2.5-4-3-1-2.5-4-1.5-1.5-6.5-2-3.5-3.5-2,2.5-9"/>
      <path data-code="sorokinskij_rajon" data-title="sorokinskij rajon" class="cls-1" d="M152.62,226.62l1.5-1,6,2,1-1.5.5-1.5-3.5-1v-4.5l-2.5-1,1.5-4,3.5-.5,2.5-2.5.5-7.5,1.5.5,4-3.5,3.5.5,3.5,2h9.5l3,4-17-3.5v1l-2,1.5,1.5,2.5,4.5.5,5.5,10h6l.5,2-1.5,1,.5,2,1.5,1.5,1.5,4.5-1.5.5-2,2.5-2-.5-1,3.5,5,3.5-.5,4.5h-4l-.5,1-2.5-.5v-1.5l-1.5-2.5-2,.5v2l-2,3h-3.5l-2.5-2.5v1.5l-5.5-1v-1l-2-2,1.5-4-9-3.5-.5-2v-2l-1-3"/>
      <path data-code="tjumen_" data-title="tjumen&amp;apos;" class="cls-1" d="M27.62,147.12l4-1,1-1-.5-2,.5,1,5,1,.5-.5v1l3.5,1v1.5l.5,3-.5,1h3l-.5,1.5-.5,1v.5l-4.5-2.5,1,1.5v1h.5v2.5l.5.5v2.5h-2.5l-.5-1.5-.5.5-2.5-2h-1l-.5-2h-1l-.5.5-3-1.5,2.5-.5-.5-.5-4.5-.5.5-2h1.5l-2-1h2v-1.5l-1-1.5M25.62,160.12h1l1.5-3,1.5.5,1-2,1.5,1-1,1.5-.5,2-2,2-3-1.5v-.5"/>
      <path data-code="tjumenskij_rajon" data-title="tjumenskij rajon" class="cls-1" d="M25.62,160.12v.5l3,1.5,2-2,.5-2,1-1.5-1.5-1-1,2-1.5-.5-1.5,3h-1M27.62,147.12l1,1.5v1.5h-2l2,1h-1.5l-.5,2,4.5.5.5.5-2.5.5,3,1.5.5-.5h1l.5,2h1l2.5,2,.5-.5.5,1.5h2.5v-2.5l-.5-.5v-2.5h-.5v-1l-1-1.5,4.5,2.5v-.5l.5-1,.5-1.5h-3l.5-1-.5-3v-1.5l-3.5-1v-1l-.5.5-5-1-.5-1,.5,2-1,1-4,1M13.12,135.12l1.5-3,2,1-.5-2.5,1-1,.5-5,1.5.5,7,5-.5,1-1.5,1,4.5,1.5v2l-1,3.5,1,1.5,2.5-.5,13.5,5,2.5-3.5,3,1.5,1-.5,1,2-2,1.5,1.5,1-.5,1h1l.5,1.5h2.5l-.5,1.5,3,2.5,1-1,9.5,4-3,1v4.5l1,.5v1l-2.5-1,.5.5-.5,1.5,1-1,2,3.5-2-.5-2.5-2.5v1h-2.5l-6,5.5-2-.5-.5,2.5-2.5,1,.5,3,1.5-1.5,4.5.5-2.5,1.5-1,3-2,.5-4.5-.5-4-3.5-2-.5-.5.5-1.5-1-.5,1.5.5,3.5-3.5.5v-2.5l-5-.5-1-3.5h-5l-2-3.5-4.5-2,3-4.5-4.5-.5-1,1-1.5-1.5,1.5-3h-1l.5-1.5-1-.5,1-1.5.5,1,.5-.5-1-2.5.5-1.5v-2l.5-2.5h.5v-3.5l3.5-4.5-2.5-3.5,1.5-1.5-2.5.5-1.5-1.5"/>
      <path data-code="tobol_sk" data-title="tobol&amp;apos;sk" class="cls-1" d="M143.62,111.12l1-1,2,1,.5-2h-.5l.5-2.5,1-.5-1-2.5,3,1.5,3.5-1,.5,3.5h4.5l-1,2-.5,3.5-6.5-.5-1.5,1.5-.5-1-1.5,1.5-1.5-.5.5-2.5-1.5.5-1-1M148.12,117.62l.5-.5h1v1.5h1.5-3v-1"/>
      <path data-code="tobol_skij_rajon" data-title="tobol&amp;apos;skij_rajon" class="cls-1" d="M148.12,117.62v1h3-1.5v-1.5h-1l-.5.5M143.62,111.12l1,1,1.5-.5-.5,2.5,1.5.5,1.5-1.5.5,1,1.5-1.5,6.5.5.5-3.5,1-2h-4.5l-.5-3.5-3.5,1-3-1.5,1,2.5-1,.5-.5,2.5h.5l-.5,2-2-1-1,1M80.12,59.62l12.5,6.5,4-1,11.5.5,5.5-18,7.5-1.5,2,3.5,10-3.5,11.5-2,3-4,2,11-.5.5,3,4.5-.5.5,2,6.5-2,4,1,1.5-1,3.5,8,12,8-3,1,.5-1,1,9,3-.5,2,2,.5-1,2.5,7,2-1.5,12-3,1.5-2.5,3v1.5l-2,1.5-6,10.5-4.5,4.5,1,2-1,2-.5-.5-1.5.5-2-1.5v-1l.5-.5v-1l-2.5,1.5.5-1.5-.5-.5v2h-2l-1.5-1-1,.5.5.5v1.5l3,8-5,3.5-1,6.5-2,1.5v1l-9.5,2-2-1h-11.5l-1-2-3.5-1-.5,1-3-1.5-1.5-2.5,1.5-2.5-5.5-1.5,1-3-2.5-.5,1-3.5,2,.5-.5-.5,3-1-.5-.5.5-.5-2-2.5,1.5-.5,1,.5,2-1-3.5-2,1.5-.5-.5-5-2.5-1.5,2.5-12-20-11.5-8.5,2-4.5,2.5-1.5-.5v1.5l-3,2-5-2-1-17.5,6.5-25"/>
      <path data-code="uporovskij_rajon" data-title="uporovskij rajon" class="cls-1" d="M21.12,205.12l1-.5,3,1,1-1h.5l2-1-.5-2,.5-1-1.5-1,1-.5,2,2h3.5l.5,1.5h1.5-1l.5,1.5,1-1.5,2.5,1-.5,2h1l-.5,1.5-1,.5.5,1.5,3-.5,1-.5,2,1.5,2.5-1,1.5,1,2,3.5.5,1-1,1.5,1,1.5-1.5,1v1l-3-1-2,1.5.5.5v2l2.5.5v1.5l1,.5h4l.5-1,2.5-1,3,3.5.5,1.5-3,.5-.5,1v.5l-1.5.5,1.5,2,7.5,1,3,3-3,4.5-2.5,5.5-3.5-1-.5,1.5-5.5-2,1-2.5-1-1.5v-1l-1-.5h-1l-2,2-6.5,1.5-4-9-4.5-2-2.5,2-4,1.5-4.5-7.5-1-4.5,1-.5v-1.5l-2.5-5.5,1.5-3h-1l.5-2,2-3,.5-1.5-.5-1"/>
      <path data-code="uvatskij_rajon" data-title="uvatskij rajon" class="cls-1" d="M147.62,40.12l5.5-1.5,10,3,6-.5,5.5-3,5.5-7,6-10,4.5,2.5,22.5-8,1-1.5-4-7.5-2-2.5,4.5-3,3.5-.5,11,4.5v4l6,2h11l1.5,1.5,1.5,2v2.5l2,1.5,1,2h12l7,6.5,7.5-4,.5,8.5,7,5.5.5,4,7,5.5,1,1.5-.5,3.5.5,1,5.5,2,1.5,1.5,3.5,12,4,7-2,6,2,3,.5,2,7,2.5h6l1.5,2.5-3,4.5,4,8.5-4,3.5.5,1,15,7.5,8-.5,4,4.5,4.5.5,2,5,1.5,2,22,5,2.5,3.5h4l3,3,2.5,4-10.5,6.5v1.5l-1.5,1-.5,2-4,.5-5.5,2.5.5.5-1,.5v.5l-1,.5h.5l-1,1,.5.5-1,1-6.5,1.5-9.5,5.5-37-10-7.5,4.5-3.5,3.5h-2.5l-21.5-6.5-1.5-3v-2.5l-3-3-19-1-4-2-2,1-2-.5v-1.5l1.5-1-1-1.5,5-14.5,2.5-1,1-2-.5-2-3.5-2-.5-2-1.5,1-.5-1,1.5-.5v-1.5l-1-.5.5-1.5-1-1h-2.5l-1-1,.5-1-3.5-.5v-2.5l.5.5-.5-1h1l.5-1-1.5-3,.5-1-1-1-.5-.5.5-.5-3-1.5-4,2.5-2.5-2.5-2.5,1-2.5-.5v1l-1,1-2-1.5-3,1-3-1.5-1,1.5-4.5-2-.5.5h-2l-1,1-.5-1-2.5.5-.5-1.5h-.5l-1.5,1.5-1.5.5.5,2-1.5,1.5,1,1-.5.5.5,1-.5.5h.5l.5.5-1,.5v1.5l-4,2h-3l-2.5-2.5-2,1.5h-1l-2.5-2.5-3-1-.5-1.5-4-1,2-2,3-1.5,1.5-12-7-2,1-2.5-2-.5.5-2-9-3,1-1-1-.5-8,3-8-12,1-3.5-1-1.5,2-4-2-6.5.5-.5-3-4.5.5-.5-2-11"/>
      <path data-code="vagajskij_rajon" data-title="vagajskij rajon" class="cls-1" d="M115.62,160.12l3-.5,3,1,2-.5,2.5-3h-2.5v-1l2-1.5v-3h12.5l2,1,9.5-2v-1l2-1.5,1-6.5,5-3.5-3-8v-1.5l-.5-.5,1-.5,1.5,1h2v-2l.5.5-.5,1.5,2.5-1.5v1l-.5.5v1l2,1.5,1.5-.5.5.5,1-2-1-2,4.5-4.5,6-10.5,2-1.5v-1.5l.5-1,4,1,.5,1.5,3,1,2.5,2.5h1l2-1.5,2.5,2.5h3l4-2v-1.5l1-.5-1-.5.5-.5-.5-1,.5-.5-1-1,1.5-1.5-.5-2,1.5-.5,1.5-1.5h.5l.5,1.5,2.5-.5.5,1,1-1,3-.5,4,2,1-1.5,3,1.5,2.5-1.5,2.5,2,1-1v-1l2.5.5,2.5-1,2.5,2.5,4-2.5,3,1.5-.5.5.5.5,1,1-.5,1,1.5,3.5-1.5.5.5,1-.5-.5v2.5l-24.5,34.5v1l-2-.5-.5,1.5-1,1,.5,1,1-.5,1,.5-1.5,1,1,.5-.5,2-2.5,4,2.5,1.5-.5,2.5,2.5,1.5-1,10h1.5l1,2.5-1,2.5-2.5,1-2,2-6.5,1.5-2.5,2.5-.5,3,2,4,5,1.5v3l-1.5.5-1,3,.5,1.5h1.5l-1,.5.5.5-1,1h-5l-1.5-1,.5-1.5-2.5.5-.5-2h-5.5l-2,.5-1.5,4-1,.5-3-4h-9.5l-3.5-2-3.5-.5v-1l1.5-3v-1.5l-3-1.5v-2l-4.5.5-.5-.5,1-.5h-1.5l-1-2-1,1-2-2-.5-.5,1.5-1.5-1-3.5-2.5.5,2,1.5-.5,1.5h-2v1l-15-1.5-2.5,2.5-3.5-2.5,2-3.5-3.5-4,1-1.5-2.5-2.5-3.5,1.5-12-7,1.5-3-1.5-5.5"/>
      <path data-code="vikulovskij_rajon" data-title="vikulovskij rajon" class="cls-1" d="M169.62,206.12l2-1.5v-1l17.5,3.5,2-4.5,5-.5h2.5l1.5,2,1.5-.5-.5,1.5,2,1h4.5l1-1-.5-.5,1-.5h-1.5l-.5-1.5.5-2,3.5,1.5,1.5-.5v-1.5l3-2-2-2.5,1-1.5,1.5.5.5-2,2.5-1,3,2,1-1.5h1.5l.5,1-1.5,1.5,3,1-1.5,3.5,1.5,1-.5,2-1-.5.5,4.5,3.5,2.5,1,7,8,13v4l-.5,8h-4v.5l-2,5-6-2v2l-1,1-2.5-1.5-1-1.5-1.5.5-3.5-1.5-1-3h-2l-1,2.5-1,.5-3-1-.5,2.5h-.5l-6.5-1-5,1.5-2-2-6,1,.5-4.5-5-3.5,1-3.5,2,.5,2-2.5,1.5-.5-1.5-4.5-1.5-1.5-.5-2,1.5-1-.5-2h-6l-5.5-10-4.5-.5-1.5-2.5"/>
      <path data-code="zavodoukovsk" class="cls-1" d="M38.62,203.12l2.5-.5,1-1.5,5,.5,1.5-1.5-1-1,.5-.5,2.5,1,2-1.5,2.5,2h2.5l1.5-2.5.5-4,1,.5,1.5-1,2,1,1.5-3h.5l4.5,2.5,1.5-2,3.5-12,6.5,2-2.5,8,3.5,1-1,2-2-.5-1.5,5-1.5-.5-.5,1.5-1.5.5v1.5l-1,.5,10,5-1,2.5-5.5,1-2.5,3.5v2.5l-1,1.5-1-.5-.5.5,1,1-3.5,8,2.5.5-1.5,4.5-2-1-1,2.5-4.5,2-6.5-2-1.5.5-1.5-1-.5-1.5,1.5-.5v-.5l.5-1,3-.5-.5-1.5-3-3.5-2.5,1-.5,1h-4l-1-.5v-1.5l-2.5-.5v-2l-.5-.5,2-1.5,3,1v-1l1.5-1-1-1.5,1-1.5-.5-1-1.5-3.5-2-1-2.5,1-2-1.5-1,.5-3,.5-.5-1.5,1-.5.5-1.5h-1l.5-2.5"/>
    </g>
</svg>