<svg data-code="RU-KYA" xmlns="http://www.w3.org/2000/svg" viewBox="0 0 857.25 2072.39">
    <g data-code="krasnojarskij_kraj" data-title="krasnojarskij kraj">
      <path data-code="abanskij_rajon" data-title="abanskij rajon" class="cls-1" d="M437.13,1731.26l2.5.5-1.5-1.5,2.5-2-1.5-3,.5-1.5,1-.5v-3h.5v-1.5h-1.5l1-4,1.5-1,1-1.5-2.5-.5.5-1h-3l.5-2v-1l12-1,3.5-1,2-2v-2l-.5-2.5-6,.5.5-15.5-1.5-3.5,5.5-4.5v-4l-2-3.5,3.5-2h1.5l6,9,8-2,9.5,2.5,22.5,20.5-2.5,7,1-.5,3.5,2.5,1.5-.5v1l-.5.5,1.5,1,2-1.5v1.5l2.5-.5.5,1-1.5,4-1,1-1-1-3.5,1.5v4l1.5,1.5h-3.5l1,1v2l-.5,1,.5,1-1,2.5v1.5l-1,1.5-4,2-5.5,1-2.5-.5v1l-1.5,2.5-3.5.5-.5,1.5-2.5-2h-1.5v.5l-2.5.5.5,1-3,2-1.5-2-6,2.5h-5v1l-1,1.5-4-2-1.5,5.5h-3.5l-.5-3h-6l-1-1.5v-.5l-3.5-2-1,1-3-.5-1-3h1l-.5-2-1-1v-2.5"/>
      <path data-code="achinsk" class="cls-1" d="M246.13,1757.76l.5-1,2,1,.5-1h-.5v-1.5l.5-.5,2,1v-1.5h.5l-.5-.5-.5,1-2.5-1.5,3,.5-.5-1.5,2-.5-1-1.5.5-.5,1.5,2h1.5l-.5,2,2,.5h-1.5l-2.5,4.5-2.5-1.5-1,1.5v-1l-.5-.5-.5,1,.5.5-1.5.5-1-.5.5-1h-.5"/>
      <path data-code="achinskij_rajon" data-title="achinskij rajon" class="cls-1" d="M246.13,1757.76h.5l-.5,1,1,.5,1.5-.5-.5-.5.5-1,.5.5v1l1-1.5,2.5,1.5,2.5-4.5h1.5l-2-.5.5-2h-1.5l-1.5-2-.5.5,1,1.5-2,.5.5,1.5-3-.5,2.5,1.5.5-1,.5.5h-.5v1.5l-2-1-.5.5v1.5h.5l-.5,1-2-1-.5,1M235.13,1737.76l3.5-1,1,2.5,1.5-1,4,.5,1.5,2.5,2-.5,2-2.5v-1.5l1.5-1,1,3-1,1.5,1,1.5-2,1,.5-1-.5-.5-1,1.5,2.5,5,4-3,3.5-.5v-1.5l2-1.5-.5-.5.5-2,4-.5v-1l1-.5-.5-1,.5-.5,3,1.5,11,1-.5,3.5-5,1,.5,3.5h.5v3l-.5,1.5-1.5-1-1.5.5-1,2h-4.5v2l2.5,1-2,2,1.5.5v2h.5l-.5,5.5,1-.5-2.5,3,1,2,2,1-1,3-1.5-1-1,1.5v-1l-1,.5v-2l-1,.5v-1l-.5,1-1-1v1l-.5-.5h-6.5v1h-.5l-.5-1v-.5l-1,.5.5-2-.5-1.5h-1.5v-2l-2-1-1,1.5h-1l-.5,1-1.5,1.5-6.5-2-.5,1-.5-1.5-4-1,1-3.5,5-2v-2l-1-.5,1.5-3-2-5.5,1-2-1-2h-3v-2l-2.5-3.5v-1.5"/>
      <path data-code="balakhtinskij_rajon" data-title="balakhtinskij rajon" class="cls-1" d="M253.13,1816.26l5-3.5,1-3-.5-.5,2-3.5,4,1-.5-2h2.5l.5-2.5,9.5-2,2.5,1,.5-1,.5,1,1,.5.5-.5-1-4h-2.5v-1.5l1-1.5,9.5-3.5,4,1.5,3,5,3-1.5,4,1-2-4.5,11.5,4.5,7.5,1.5h4v-3l3,1.5,6-2,.5,3-1.5,1-.5,2,3,4.5h.5v7.5l1.5,2v4l-.5,2.5.5,2-.5,1,1.5,2,3-1.5,7.5,7-.5,4.5,1,2-1,2,1.5,2.5-.5,1.5,1,1.5,1.5,1-.5,2,1,1.5-1,3,2.5,1.5-.5,2-2,.5-6-5-5,2.5-2-1.5v-1.5l-3.5-1.5-8.5,1.5h-2.5v-1h-1l.5-.5-2,.5-.5-1-.5,1h-1v1h-.5l-1,3-1.5-1-2,1.5,1,3-.5.5-.5,3.5-2.5-.5-3.5-4-1.5-.5.5-1-1-1.5-2-2-1.5-2-3,1-1.5-1,.5-2-1-.5-1-5,.5-1,1.5-.5,1-2.5,1.5-1-.5-1.5-9.5-1v-3.5l-1.5-4-5-1.5-.5-2.5-2-.5-.5,2-.5,1.5-5.5,1-1,2-2,.5.5,1-2.5.5v1.5l-1,1-2.5-.5-.5,1-.5-2.5.5-2v-2l-3,.5v-2h-3l-.5-3.5-2-.5v-4l-1.5,1-2-1.5-.5-2.5"/>
      <path data-code="berezovskij_rajon__krasnojarskij_kraj_" data-title="berezovskij_rajon_(krasnojarskij_kraj)" class="cls-1" d="M358.13,1769.26l1-.5-.5,1.5,3-.5v-1l-1-1.5h-1.5l-1,2M355.13,1768.26l1.5,1,2-2-2-1.5-1.5,2.5M319.63,1781.76l2.5-1,2,1v1.5l2.5.5,1-2-.5-1.5,5-1h4.5l2.5,3,.5-2.5h3.5l1-2h1.5l.5-2.5,1.5-.5h-1l.5-1-1,.5.5-1.5-2-.5v-1l2-.5,1.5,2.5,1-.5,1-3.5-1-2.5-.5-.5h.5v-.5l4,.5,1.5-2,2.5-.5-.5,1.5,2.5-1v1l1,1,4.5-.5,3-3.5,3-7.5v-1.5l2.5,2,3-.5,1-2,3-.5v1.5l3,3v5l1.5,1h-3.5l.5,3-1.5,1.5-1,5-.5.5-13.5-2.5.5,1.5-1,1.5.5,2.5-1.5,1-1.5,2.5h-1l1.5,1.5-4.5,3-.5-1.5-1.5,1v2l2.5,2.5-1.5,1.5v.5l.5,1h-1.5l-3,4.5,2,3,1-1v.5h1.5v.5l1,3-1,2.5.5,1.5v1l-4.5,2.5-1,1.5-4.5,1.5,1,1,1-.5-.5,1,.5,1h-1.5l.5,1.5.5-.5.5,2.5-1,1-1,5.5v1l-2.5,5-5.5-5.5-3,1.5-1.5-2,.5-1-.5-2,.5-2.5v-4l-1.5-2v-7.5h-.5l-3-4.5.5-2,1.5-1-.5-3-6,2v-2l-2.5-2.5-4.5-1,.5-2v-1l1.5-2v-2l-2-2.5"/>
      <path data-code="biriljusskij_rajon" data-title="biriljusskij rajon" class="cls-1" d="M222.63,1702.26l1-6,4-6.5,3.5-21.5,3-1.5,3.5-3-1.5-2.5-9-2.5.5-.5v-2.5l1-3-.5-2.5,3.5-4v-2l26.5-10,1,1-.5,1h1v1.5l1.5,1.5-2.5,2,.5,1.5-1,1.5,1,.5-1,.5.5,2.5h-1v2.5l1,.5-.5.5.5,1.5-.5,1.5,1.5,1.5-1,1.5.5,1,1.5-.5,2,2.5v-4.5l8.5.5.5,1.5,4.5,1.5-.5,3,3,2.5,5.5-3.5,2,3,1.5-1-.5,3,1,4-2,1.5-1,2.5-2.5,1v2l-1.5,3h6.5l6,2.5,1.5-4,4.5,1-5,12-2,2.5,11,8.5-.5,8-1,1,2,2.5v5l1,.5-.5,1,1,1.5-12.5,3v-1l1-3-2-3v-4l-1.5-1.5-3,2v3l-5.5,3.5-.5-2.5.5-2-1-1.5-3,2.5-5.5.5-4-.5-1-2-5-.5-4.5-2.5-2.5,1.5h-3.5v2l-2,1.5h-2l-2,10.5h-3.5l-3.5,3-2-4,1.5-.5.5-2.5,1.5-1,.5-3.5-2.5-2v-2.5l-1-2,.5-1-.5-2-2.5-1.5-.5-2.5-2-1.5v-.5l-4-2h-6"/>
      <path data-code="bogotol" class="cls-1" d="M212.63,1758.76l1-4.5,1,1.5,3.5-1.5.5-3.5,1,.5h-.5l.5,2.5-1.5,1.5h3.5l-2.5.5-1,1.5.5,1-1,1-1-1.5-2,.5-.5,1.5-1.5-1"/>
      <path data-code="bogotol_skij_rajon" data-title="bogotol&amp;apos;skij_rajon" class="cls-1" d="M212.63,1758.76l1.5,1,.5-1.5,2-.5,1,1.5,1-1-.5-1,1-1.5,2.5-.5h-3.5l1.5-1.5-.5-2.5h.5l-1-.5-.5,3.5-3.5,1.5-1-1.5-1,4.5M194.13,1743.76l.5-.5,8.5,1,2-3,2,1,3-1.5.5,1,3.5-1.5.5,3,1,.5,2-2h2.5l2-1.5-.5-.5h2v-1.5l1,.5v-2.5h3.5l-.5,1.5,8-2.5,1,2-1.5.5v1.5l2.5,3.5v2h3l1,2-1,2,2,5.5-1.5,3,1,.5v2l-5,2-1,3.5-2.5-.5-2,1.5h-3.5v1.5l-2.5-1.5-2,.5-1,3-1-.5-.5,1h-1v-1l-1,1.5v-1l-2.5,2.5-2-.5-2,2-5,1-1.5-5,2-3-1-1.5-2.5-.5.5-4-3-1-.5-1,1-1.5-1-1-2-.5.5-7h-5v-1l1-1.5-2-2.5"/>
      <path data-code="boguchanskij_rajon" data-title="boguchanskij rajon" class="cls-1" d="M422.13,1555.76l1.5-2.5,2,1-.5-.5v-2.5l1.5,2,3-.5,1.5-2.5-1-1.5,1.5-1v-1l.5.5h.5l.5-1.5v-1l2-1.5.5.5-.5.5,1-.5-1-2,2-.5.5-1.5,1-.5-.5-1.5h1l-.5-1,1,.5v-1l.5-.5h-.5l.5-1.5-.5-.5,1-1-.5-.5.5-1-1-.5,1.5-2.5v-1l1.5-1-.5-1.5,1-1,3-1.5h3l2,4,1.5,1,2.5-.5,3.5-4.5,1.5.5-1,1.5.5,1.5,2,1.5.5,1-1.5,2.5,2,2h3.5l3.5-4.5h4l3.5-1,1.5.5,2.5-1,4.5,3.5h3l3.5-2.5v-2.5l-1.5-1,.5-2,2.5-1.5.5-1.5,2.5-.5,2-2,1-3,8,3.5,2-.5,1.5-1.5h4l1-1.5h3.5l2.5-3,3,.5,2,2.5h2l3.5-5,5.5,1.5,1.5-1.5,5-.5,1-2,2-1,.5,2,1,.5.5,2,2-.5.5-3,2.5-2v-1.5l-.5-1.5,1-1.5,3.5-4.5,3-1,.5-1.5,2-2,.5-2-1-1.5,6.5-1,1-2h1.5l2,2h4v2l4.5.5,1,2,3,2-7,4.5.5,2-2,2.5v1l-3.5,3v2l-1.5,1.5.5.5-.5,1-1-.5v.5l4,3,3-.5.5,1,1-.5,2,1-.5.5,1,1h-1.5l-.5,2h2l-.5,2,.5,1,2.5,2.5,1.5-.5-1,3,2.5,3.5,1.5,4.5-.5,5.5,1,7-1,4,.5,1.5-7,4.5v-1l-2,1.5-4-3.5v-1h-1.5l-.5-1.5h-5.5l-2.5-.5v-2.5l-2,.5.5,3-2.5,1-1.5,3.5h-1l.5,1h-.5l-.5,1.5h-1.5v1.5l-3,2,.5,2.5h-4l-1.5,1.5-1-1.5-.5,1,.5.5-2.5.5-1,1.5-1-1v1.5l-2.5-2.5-6.5-1-4,9.5,1,1.5h4.5l5.5,3v1l2,2.5-.5,1,.5.5-.5.5,1,1.5,1.5.5-2.5,2-1.5,3.5.5.5-.5,2.5,1,1.5-.5-3.5,3-3.5,7.5-2,1-2.5,3.5,3-1.5,5.5,2.5,2,1.5,2.5-.5,3-3,3-.5,2,2.5,1.5,1.5,3.5,3,1v2.5l1,2,5-2,4.5,5h1.5l-1,1,.5,1-2,2,2.5,3.5v4l-3.5,3.5h-2.5l-1,2-3,1v-1.5h-2l-.5-3h-.5v-1l-5-3.5v-5l-2.5-.5v-2.5h1v-2.5h-4l-1-1-1,1-.5-.5-3,1v-2.5h-1l.5,2-2,.5,1,7.5h3.5v5h5v2.5h2.5v2h1l.5,2.5h.5l.5,8h7.5v2.5l-2,1.5-4.5-1-1.5,2.5h-1.5l-.5,2-2-.5-.5,1-1-1.5h-1.5v-1.5h-1.5v-2l-2-1-4,2-5-1.5-19-1.5-17.5,49.5-23-20.5-9-2.5-8,2-3.5-6.5h-1l-1.5-3-2,.5-3,2-11.5,2.5-.5-1v-1l-.5-1,1-.5-.5-1,1.5-1.5-2.5-1.5.5-2.5-1-2-5.5-3-5,.5-4-2,3.5-5,.5-3.5-1-1v-2.5l1-.5-.5-1,.5-1-.5-1,1.5-1v-1l3.5-1.5-1-3,1.5-1.5-.5-1,1-.5-.5-1.5,1-1,1-23-2-4-1.5-1.5.5-1.5-1-3,6-11.5-3-1.5-1.5,2.5-1.5-1.5.5-2-2-.5v-1.5l1.5-1v-1l-1-1,1,.5v-3l.5-1.5-1-.5,1.5-3-1.5-1.5-4-.5,1-1-3-2,1-1-1.5-2.5.5-1-2.5-2.5"/>
      <path data-code="bol_shemurtinskij_rajon" data-title="bol&amp;apos;shemurtinskij_rajon" class="cls-1" d="M303.13,1710.76l.5-8,6-3.5,7.5-11,8.5-4.5,6.5.5,9-2-1,2,.5,1-.5,2.5.5,1h3.5l.5-1.5h6l2-2.5,1.5,2.5,1-1-.5-1.5,1.5-1-.5-.5,2.5-.5.5,3,2-1,.5,1-1,4.5,1,2,4,1,2.5-1,9-7-.5,2.5,1,.5.5,2v2.5l4.5,7,5.5,12.5-4.5.5-9.5,4-2-.5-6.5,3h-4l-3.5,2.5,2,2.5.5,4.5-.5.5h-9.5l-2-2-4.5-.5-1,1.5v2l-2,1-1-.5.5-.5h-4l-1-1.5.5-1-1-1.5-1.5.5.5-1.5-1.5-1.5,2-.5v-1l-3-2-4,1-7.5-.5-1.5-2h-1.5l-1-2.5h-1.5l-3-3-1,.5-2-1-3-2.5-2,.5"/>
      <path data-code="bol_sheulujskij_rajon" data-title="bol&amp;apos;sheulujskij_rajon" class="cls-1" d="M232.13,1729.26l1-2.5,3-1.5v-1.5l1.5-1.5-.5-1.5,1-3,3,2-.5,3.5-1.5,1-.5,2.5-1.5.5,2,4,3.5-3h3.5l2-10.5h2l2-1.5v-2h3.5l2.5-1.5,4.5,2.5,5,.5,1,2,4,.5,5.5-.5,3.5-2.5.5,1.5-.5,2,.5,3.5-.5,1.5.5,1.5v2.5l.5,1-.5,1.5,1.5-.5,1,1.5-2,1.5-1.5,5-11-1-3-1.5-.5.5.5,1-1,.5v1l-4,.5-.5,2,.5.5-2,1.5v1.5l-3.5.5-4,3-2.5-5,1-1.5.5.5-.5,1,2-1-1-1.5,1-1.5-1-3-1.5,1v1.5l-2,2.5-2,.5-1.5-2.5-2-.5-3.5,1-1-2.5-1.5,1-5-8.5"/>
      <path data-code="borodino" class="cls-1" d="M411.08,1784.5l.5-2,.5,1,1-1.5,3,1.5-1,1.5.5,1v1-1.5h-1.5l1,1-2.5-1-.5,1-.5-1,1-1h-1.5"/>
      <path data-code="divnogorsk" class="cls-1" d="M305.13,1780.26l7.5,1.5v2.5h2v-6l-3.5-2-.5-2h1.5l-1,1,3,1,.5,1.5h2.5v-1l2.5.5.5-1.5h1.5l4.5,1-1,.5,1.5,1.5h5l-4.5,1.5.5,1.5-1,2-2.5-.5v-1.5l-2-1-2.5,1,2,2.5v2l-1.5,2v1l-.5,2,4.5,1,2.5,2.5v2l-2.5-2-3,1-2-2.5h-2.5v-1.5l-1.5-1v-2h-4l-.5-5.5-5.5-1,.5-1.5-.5-.5"/>
      <path data-code="dzerzhinskij_rajon__krasnojarskij_kraj_" data-title="dzerzhinskij_rajon_(krasnojarskij_kraj)" class="cls-1" d="M391.13,1712.76l8.5-1.5,1-2h1l-.5-1.5,4.5,1-.5-1.5h2l.5,1,3-.5.5-2.5,4.5,1,2-3h-1v-1l7.5-.5,5-2v2l2.5,1,2-2.5,8,1,2-2.5,2.5,4-2,1-.5,3.5-5,.5v1l-.5.5v1.5h3l-.5,1,2.5.5-1,1.5-1.5,1-1,4h1.5v1.5h-.5v3l-1,.5-.5,1.5,1.5,3-2.5,2,1.5,1.5-2.5-.5v2.5l-5,2.5-1.5-1-1.5,1-1.5-2-2.5,1-4.5-.5-1.5,2.5-1-1-.5,1h-1l-.5-2-2.5.5-6.5-3.5h-6.5l.5-6h-1.5l-1.5-4.5-2.5-2.5-2.5.5-2-2.5v-4.5"/>
      <path data-code="ehvenkijskij_rajon" data-title="ehvenkijskij rajon" class="cls-1" d="M228.13,1103.26l1-2.5,1-1v-3.5l2-3h1l2-2.5,1.5-3.5v-1.5l5.5-3,.5-2.5,1.5-1v-6.5l-1.5-1.5,1-1-.5-2.5.5-.5-1.5-1,1-2-1-.5-.5-1,1.5-.5.5-1.5-2-.5,1-.5v-.5l.5-.5v-.5l1-.5-1-1,2-1.5-1-3.5,1.5-1v-1l1-1v-1.5l1-1,.5-1.5-1-1.5,1.5-1.5,1-2,10-1,8.5,3.5-.5,1.5,1,.5,1.5-6.5.5-8,6.5-4,18-20.5,2-3,1-4.5,4.5-9.5,4-5,3-2.5,2.5-4.5v-1l1.5-.5v-1.5l.5-1.5-1-1h2.5v-1l2.5-2.5,3-1.5v-1.5l1.5-1.5,3.5-2.5v-1l1.5-2.5h-.5.5l1-2.5,2-3.5.5-4,1-1.5,9-9.5,9-6.5,3.5-4,2.5-4.5-.5-2.5,1-4.5,4.5-4,1-3,1-2,2.5-1.5,5-.5,10.5,2.5,9,4.5,4.5-1.5.5-3.5,2-3-3.5-6.5,2-2-.5-2.5,2-1.5.5-2,2-1,1-4.5,2-.5-.5-2,1.5-.5,1.5-1v-1.5l1.5-.5v-2l1.5-1.5v-3l7-.5,1.5-2-.5-1-2-1v-2l-.5-2-1.5-1.5,5-3.5,2-.5v-3.5l8-8,16.5-3.5-.5-1,6.5-4,3-3.5,4-1,2-2.5v-2l1.5-1.5,2-1,6,1.5,3-1,2.5-2.5-.5-1,1-1.5-.5-2,4.5-1,1.5-2,8,1.5,3-2.5,2-4.5,2.5-2,2,.5,2.5-2,8.5,5,4.5-1.5,2,1.5,8.5-1.5,4,1.5,2.5-1v-1.5l-1.5-2.5,3-3.5v-.5l-1.5.5-1-1,1.5-2-1-1,5-1,4,.5.5,1,1-1v1.5l2.5,1,2.5-1,7,2,2,2.5h1.5v1l-1,2.5,3.5,1v2.5l1,1.5v1.5l-2,2.5,1,1,1.5,4,1.5,1,2-.5,1-2.5,2.5-1-.5-.5.5-2.5,1-1h2.5l3.5,2,8,1,5.5,2.5.5-1.5h3l2-2.5h4l3,1,4.5,2.5-.5.5,1,1.5,2,.5v1l-2,2,2,1,12.5,4,3,2,5,.5v-.5l5-4.5,5,1,3.5-1.5,1.5.5.5,1.5-.5,1.5v.5l4.5,3,3,.5,3.5-1,.5-1.5v-.5l1-1,.5-.5-.5-.5,2.5-1.5,4,2,2.5-1.5v-2l1-1.5-1.5-3.5,2-1,4,.5,6-1.5,4.5,2,6.5-1,.5,2v2l1.5,2,2-.5,1.5-2,3,1,6-4,1-1.5-.5-.5.5-2.5-1.5-2,1-1,6-1.5.5-.5-.5-1.5,1-1,4,1.5,3-1h.5l-1,2v2.5l-3.5,2.5-1,2.5,25,36,6,42,2.5,29.5,1.5,11.5.5,12.5,1,10.5-2,3-.5,3h-3.5l-1.5-2-2.5,2-2,5-2,.5-1.5,2-4,.5.5,4-3,5.5-7.5,3-1-1-3.5,1,1.5,1v1.5l4.5,3.5,4.5-2-.5,1,.5,1.5,5,1,.5-1,1.5.5.5,1v1l-3,4.5,1,1,2,.5,1-1.5,2.5-.5-.5,2-1,1.5.5.5v1l.5,1.5,3,1.5-1,2.5,1.5,3-.5,1v1.5l3,3-.5,1.5,1.5,2-2,2.5-2,1-1.5,4,.5,1-.5,1.5,1,2-.5,1,1,.5-.5.5.5,1.5-.5.5h.5l-.5,1,.5,1.5-.5,1.5,3.5,3,3.5-1,1.5,1.5-.5,1.5,1,.5v.5l1.5.5-.5,1.5,1.5.5,1,2.5,1,1-.5,1.5.5,3.5h-.5l1,3.5h-.5l.5,2-.5,2,1.5,1.5-1.5,1-.5,2,1,1-.5.5,1,.5-.5.5.5,1-1.5,1,1,.5-.5,1.5,7.5,2.5-1,1h2.5l.5,1-.5,2,.5,1.5,8,1.5-.5,2.5-2,2v1l.5.5-1,3.5-6-.5-.5,1h-1.5l-.5,3-2,2,.5,5,3,1.5-1.5,1-2-1-2.5,4v2l-3.5,1-.5,3-1,2-2.5.5-2,2v2l1,.5,3,1.5v1l2,4,3,2-4.5.5v-1h-1l.5-2-.5-.5-3.5,1.5,1,2v1.5h1v1l1,.5-2,.5-1-1-1,1v2l-.5,2.5.5,1.5-.5,1.5,2,3-2.5,1-1.5-1.5-1.5,1,1,2,1.5.5-1,3v1h1.5l1,2.5.5,1.5-1,1.5.5,1.5,3-1.5,1,1,2-3.5,1.5-1,1,1,1,2,1.5.5v2l-1.5,1,1,1.5,1.5.5,1-.5,2-2h2l1-1,6-1.5.5-1-1.5-3,1-1.5,2,.5,1,2,1.5,1.5,1,3.5h2.5l3-1.5,1.5,2,4.5,1.5v1l.5.5h4.5l.5,3,3,2.5,3-1.5,3-3h2.5l2.5,1.5v1.5l4.5,1.5,2,2.5,1.5-1,.5,1.5,2.5-.5-.5-2,.5-2.5,5-1,1.5,2,.5,2.5,1,1-.5,1,2.5,3v2l1.5,2-2,1.5v1.5l-1.5-.5-2,1.5-3.5-.5-1.5,1-2-1-2,2-2-1.5-1.5,1-1-.5-2,1.5v1.5l-1.5.5-.5,2.5,1,.5h-1v1l.5,1-1.5,1h-1l-.5-1.5-1-.5-1.5,2.5-2.5-.5,1-.5v-1.5l-3.5-2.5-2,.5-.5-.5-1,1,.5,1-2,.5-.5,2h-1l-.5-.5.5-.5h-1.5.5l-1.5-2-5-.5-.5-2h-1l.5,1-2-1.5-1,1v-1.5h-1l-1.5,4,1,1.5,3.5,1.5-.5,2,2.5,2-1,3-1,1-.5,4.5-1.5,3,3,4-.5,2.5-2,2,.5,2.5h-2.5v1.5h-1l3.5,3v1.5h.5l.5,1.5,1.5.5.5,1.5h1.5v1l1.5.5-1,.5.5,1-1,2-.5,2-1,.5h-3l-3-2.5-.5.5-.5,1.5.5,1-1.5,2v1l1,.5-1,1v1l2.5.5.5,1.5-1,2v1.5l1,1.5-.5,1.5-5,3-3.5.5,1.5,2.5-.5,1,1.5,2-.5,2,2,1v3l3,.5,1.5,2,1.5-.5,2,1,1,1v2.5l2,1v1l.5.5v3l-1,1.5v1h3.5l2,2h2.5l3,1.5.5,1-.5.5h-2.5l-1,3.5,2,1.5,1.5,3-3.5,2.5-2,5-3-.5-1,1,1.5,2.5.5.5.5.5-2.5,1v2l-1.5,2,2,.5v1l2-.5-1,3,1,1-.5,1v2l-1,1,.5,2.5.5,1-.5,1.5.5,1v1.5l-3.5,1.5-2,4-3.5,2-5,8v1.5l2,2.5-.5,1.5,2.5,5-3,.5-1.5,2-.5,2.5-3-2-2,.5-2.5,3,.5,2-6.5,4v1l-1.5,1v1l-.5,2-1,1,1,1v1.5l-8.5,2-3,1.5v1.5l-4,2,5.5,2v1.5l2,1v2.5l1.5,1v2l1,1-2-1-4.5,1-.5,2-3.5,4v.5l-.5,1-2,1-.5,2,1.5,1-1,2.5.5,1-1,3,2,2.5-.5,1.5-5,3.5,1,.5.5,2,1,1.5,1.5.5,1.5,2,.5,1.5-1.5,3,.5,1-1.5,3.5h1l-.5,1.5,1.5.5-.5,1.5,1.5,2,2,1-.5.5,1,.5-.5.5h-.5l2,2-.5,1,1,2-1.5.5,1,1,4.5,1.5v1l3,2-.5.5.5,1,1.5.5,1.5-.5.5,1,3.5-1.5,5.5,1.5,3.5-2,1,2,1.5-.5,2,1.5-.5,1,1,1,1-.5-1,1.5v2.5l-1.5,1,1,4,1.5,3.5,1,.5-.5,1,1,1.5-2.5,4,1,1-.5,1,.5.5v1l2,1,1,2.5-1.5,1,.5-.5-1.5-1-2,1.5-4-1v-1l-6.5.5-.5.5.5,1-1,1-2-.5.5.5,1,.5v.5l.5,1,.5,2.5-1,1-1.5-.5-2,1-4,5.5,2,1-.5,2.5,2,2h1.5l-1,1.5v2l3,2.5,2,3h3.5l2.5-1.5,1.5.5v1l1.5,1,.5,1-1.5,2,1,1,.5,3-1.5,3,1.5,1,.5,1.5,1.5-.5,1.5,1.5-.5,1,2,2-1.5,3,2,1,1,1.5-2.5,4-5,1-1,3.5-5.5,4.5v2l-1,.5.5,1-2,1-1.5,2.5-.5,4,1,.5v.5l1.5,1.5,2.5,1.5-2,5-6,2.5-.5,2-3-1-2,2.5-2-1v-1.5l-2.5-1.5,1-2.5v-1.5l-2-.5-2.5,2-2-3v-2l-1,1.5-5-1-2,4.5-2.5-.5-.5-1,2.5-1.5-.5-1.5-.5-3,1-1v-2l-1,.5-.5-2.5-1.5-1-4,1.5-3-1.5-2.5,1-1-1.5v-1.5h-.5v-1l-1-1-6-2-.5-1.5-2.5-3.5-.5-2-3-2.5.5-1.5-1-.5.5-.5-1-1.5,5-.5-.5-2-.5-.5-1,.5-2.5-1.5-1,2.5h-2.5l-2.5-1.5-.5-2-1.5-.5-.5,2-1.5-.5-3,4,1,2-1.5,2h-6l-1-.5h-2l-.5,1.5-2,.5v-1l-1.5-1,.5-1.5,2.5-1-1-.5.5-.5-.5-1,.5-1.5-1.5-2.5-.5-4,.5-1,2-.5,2.5-2v-1l-.5-1-3.5-.5v-1l-3-2.5,1-2-1-2-.5-2,1.5-.5v-1l-3.5-1-5,4.5-4.5.5-1.5-2.5-10-3.5.5-1.5-2.5-2-8.5,1.5-.5.5.5,2-.5.5-7.5-1.5-2,1-3.5-1.5-1.5,1-3-4-3-.5-3.5,1.5-3.5-1-1-1.5-2.5,1-2-3-2-1.5-4,1.5-4.5-1-2.5-2.5h-1.5v-1l.5-.5.5-2.5-1.5-3-2.5-1-1-2-4.5-.5v-2h-4l-2.5-2-2,2-6.5,1,1,1.5-.5,2-2,2-.5,1.5-3,1-3.5,4.5-1,1.5.5,1.5v1.5l-2.5,2-.5,3-2,.5-.5-2-1-.5-.5-2-2,1-1,2-5,.5-1.5,1.5-5.5-1.5-3.5,5h-2l-2-2.5-3-.5-2.5,3h-3.5l-1,1.5h-4l-1.5,1.5-2,.5-8-3.5-1,3-2,2-2.5.5-.5,1.5-2.5,1.5-.5,2,1.5,1v2.5l-3.5,2.5h-3l-4.5-3.5-2.5,1-1.5-.5-3.5,1h-4l-3.5,4.5h-3.5l-2-2,1.5-1.5-.5-2-1.5-1.5-1-1.5,1-1.5-1.5-.5-3.5,4.5-2.5.5-1.5-1-2-4h-2.5l-3.5,1.5-1,1,.5,1.5-1.5,1-3.5-1-1-.5v-2l-3-2-7-1-1.5,1v-1h-1l.5-1.5-1-1,.5-1-1.5-1-.5-.5.5-.5-1-2v-1.5l1-.5v-1l-1.5-2v-2.5l-2-2-.5-3-1-2,.5-1.5-1-1,2.5-3-.5-1.5-3-3.5.5-1v-2l1-3-2-.5-1-2,1-4.5,1-1-.5-1,1.5-1v-1.5l1.5-1.5,3-2h3.5l1-2-.5-2.5-1.5-1.5.5-2.5-.5-1.5,2.5-1.5.5-2.5,2-1.5,1.5-2.5,2-1v-1l-1-2-2.5-1.5h-2l3-4.5-1-1v-3l-1.5-4.5h-1l-.5-1,1-1-3-2-3-5-1-.5v-1.5l-6.5-1-1-1.5h-2l-1.5-1.5h-1.5v-1l-3,.5-3-1.5-5.5,4-4.5-.5-.5,2.5-3,1.5-.5,2-1.5,1,.5,2-2,1v1.5l-2-3v-2l-1.5-2-6.5,1-5-4.5-3.5,1.5-4-1.5-.5-2-5.5-8v-1l.5-1.5-.5-1.5.5-1-5-3.5-2.5,2-3.5-2-4,3.5-2.5-.5v1.5l6.5,5-2,1,3.5,2v3.5l1.5,1h-1l1,1-2,.5.5.5.5,2-4.5-2-2.5-3-2-.5-2-4h-3l-2.5,3,1,2-1,1,1,3.5v1.5l.5.5-.5.5v1l1.5,1-2.5,1.5-6-1v1l.5,1.5-2.5,1,.5,1.5-1.5,1.5v4.5l-2.5,1-3.5,4-19-.5,2-3-.5-1v-1.5l-.5-.5.5-1-2.5-1-.5-2.5-1-1,.5-.5-2.5-3-7-14.5-2.5-3,.5-1-.5-.5-2-1v-1l1-1-.5-3.5.5-1-.5-1-2-1v-1.5l-1-.5.5-1.5v-2.5l-1.5.5-2.5-2.5,1-3.5,1.5-1v-2l.5-1-.5-.5,1-.5v-1l1-1.5v-1.5l4.5,1,.5-1-.5-1,.5-.5-2-2-1-2,1-1-1-1.5.5-.5-1.5-.5.5-1.5-1.5-.5-2-2,.5-1.5v-.5l-2-2,.5-2-3.5-.5-2-3.5-1-5.5-1-2-5-3-1-4.5-1-2.5,1.5-1v-1.5h2l1.5-1.5,2-4-.5-1,.5-2.5,2,.5v-1l1.5-2v-1.5l1.5-.5,1-2.5,3-.5,4,.5,5-.5v-3.5l2-.5,2-8,3.5-4.5,17.5-12,5.5-7.5-1.5-3v-2.5l-1.5-1v-1.5l-1.5-1,.5-6.5,1.5-1.5-1.5-2.5h-.5l-.5-1.5.5-1v-1l4-5v-2.5l-.5-1h.5v-2.5l-.5-.5,3.5-2.5v-1l.5-.5v-1.5l1-2,6-.5,1.5-4,2-2,.5-1-1-3.5-.5-6-8.5-4,3-4v-1.5l1-.5,1.5-2,.5-3-1-1,1-2.5-1-.5-3.5.5-.5-3.5-1-1h-3l-1-1.5-.5-1,1-.5,1-2-2.5-2,1-2.5v-2l-1-.5-5.5-.5-2.5,1-4.5-1.5-2,2.5-3.5.5-1-2,1-.5v-.5l.5-1-3-1-1.5-2.5-1,1.5-2.5-.5-1.5,1.5h-2.5v-1l.5-.5-.5-1,2-.5.5-1-2-1.5-3,1.5-1-1,3-6v-1.5l-1.5-1.5-1,1-3-2-1.5,2.5,1.5,3.5-.5,1-3,1-3-3-1-1.5-1-.5v-2l-2-2.5-1.5.5,1-3-1.5-1,2-1-.5-1,1-1-1.5-2h-1.5l-.5,1,.5,1.5-2.5,1-4.5-.5-1,1-1-1v-1.5l2-4-.5-1,.5-1.5-1-1-5,1.5-1.5,1.5-12,1v-1l-1-.5.5-1-1.5-1.5,1-1,.5-3.5h1v-2l2.5-3.5,1.5-2.5,1.5-1v-.5l2-1v-.5l2-4.5,2.5-1.5-2.5-3,1-2.5-2,.5-.5-2,4-4.5-2-3.5-6.5.5,3-2.5-2.5-3-1-2.5v-2.5l-2.5-1-2,1.5-3-1.5-2,1-1.5-1-.5-1.5-1-1,.5-1-.5-.5h-2.5l-1.5,1.5-1-.5"/>
      <path data-code="emel_janovskij_rajon" data-title="emel&amp;apos;janovskij_rajon" class="cls-1" d="M316.63,1758.76l2.5,1.5,1-1,.5-1.5h-1v-1.5h-2.5v2l-.5.5M294.63,1751.26l2.5-2.5v-2l1-.5v-.5l1-.5-.5-1,1-1-.5-2,2-2.5v-1l1-1-.5-1h1l-.5-1,.5-.5v-1.5l1.5-1.5v-1.5l2-1-.5-1,1-1-1-2,.5-1h-.5l.5-1-1.5-2,.5-1-1-.5v-5l-2-2.5.5-1,2.5-.5,2.5,2.5,2.5,1,1-.5,3,3h1.5l1,2.5h1.5l1.5,2,7.5.5,3.5-1.5,3.5,2.5v1l-2,.5,1.5,1.5-.5,1.5,1.5-.5,1,1.5-.5,1,.5,1-1,.5-.5,3-1.5.5-.5,1.5,1,1.5,4,2,1-.5,2,2-1.5,4,.5,4,2-.5,1,1.5h2l1.5,2,2,.5-.5,4.5,9.5-2,.5-1.5.5-.5,1.5.5,1,2.5,4-.5,1-1v-3l1-1,.5-.5-1,1.5-.5,3.5-1,1h-2.5l-3,2.5v.5l1,2v1.5l-2,2.5h-3l-1.5,2-4-.5,1,4-1,3-1,.5-1.5-2.5-1.5.5.5-.5,1.5.5v-1.5l1-.5,1,1.5-1-1.5,2,.5-.5-1.5-1.5,1v-1.5l-4,.5-.5-1-1-.5,1,1.5v1l-1.5,1,.5-.5-1.5-1,1-1h-2v2l-1,.5v2l-1.5,1-1-.5-1-2-4.5,2.5v4l-1,1,1.5.5h-5l-1.5-1.5,1-.5-4.5-1h-1.5l-.5,1.5-2.5-.5v1h-2.5l-.5-1.5-3-1,1-1h-1.5l.5,2,3.5,2v6h-2v-2.5l-7.5-1.5.5.5-.5,1.5,5.5,1,.5,5.5h4v2l1.5,1v1.5h2.5l2,2.5,3-1,.5.5-1,.5v2.5l-11.5-1.5-11.5-4.5-1-2.5-5-4.5v-2.5l2-.5-1.5-4,1.5-2h1l5,5,1.5-3-2.5-3.5,2.5-2,.5-5.5,1-2-10-1v-1l1.5-1v-5l-2,.5-.5-6.5"/>
      <path data-code="enisejsk" class="cls-1" d="M315.63,1602.26l1-1,1.5,1.5,3-.5,1,2-2,3-4-1-.5-4"/>
      <path data-code="enisejskij_rajon" data-title="enisejskij rajon" class="cls-1" d="M347.63,1628.76l.5.5.5-.5v-.5l-1,.5M345.13,1632.26l1-1.5,3.5,1.5-.5-1-2-2-2,3M315.63,1602.26l.5,4,4,1,2-3-1-2-3,.5-1.5-1.5-1,1M321.63,1619.26l.5.5-.5,1,.5,1h3l.5,1.5,1.5,1-1,2.5h1v2.5h6l1-1-2-1.5,2-1.5-3-2-1.5-4.5-3-2.5v-2l.5-1.5-.5-.5-1,.5-1,1.5h-2l.5,1-1,1,1,.5-1.5,2.5M64.63,1415.76l14-9h2.5l33.5-15.5v-2.5l-1.5-3.5,6-6,6,1,2,1.5,2,4,1.5.5h1l2.5-4,2-1.5,3,3.5,2.5.5.5,4.5,3,2.5h4.5l6-2,1-1v-1.5l.5-1-1.5-3.5,1.5-.5,6.5,5.5,2,1,.5,1.5-1,.5,3.5-.5,3.5,2,.5,2,1,1-1,.5v1.5h-.5l1.5,1.5.5,3,1-1.5,2-.5v-.5h-.5l1-1v-.5h1.5l-.5-1,1-.5-.5-1.5-1,.5.5-1.5-.5.5v-1l3-.5-.5-.5,1.5-1.5,2,.5-.5,1,1.5.5-.5,1h.5l3.5.5-.5,1,2-1.5,2,1.5,1-1-.5-.5,2.5-.5,1,1,2-.5-.5-1,2,.5.5-.5v-1h2l-.5-.5.5-.5,1,.5-.5,1.5,1.5.5.5,1v1h-1v2.5l1.5-.5v1l1.5,1-.5,1,1,1.5h1.5l1-1,3.5,2.5.5-.5-1-1,.5-.5h1l.5,1.5,2-.5-1,1.5,1,2-3.5.5,4,.5.5,2.5h1.5l-1.5,1,1,1.5v1.5l-.5.5,1,1,1-.5,1,2,1.5,1.5,2-.5-1,1.5,1,.5-1,.5,1,1.5-.5.5,2,.5-1,.5v1.5l1.5-1.5,1,1.5h2l-.5,1,1.5,2.5,2.5-1.5,1,2.5,1-1.5h2l-1-1.5.5-.5,3.5,2.5.5-1.5,2-.5v2l2.5,6,1.5,1.5,36.5,5.5,33,1-2,2v1l-1.5.5-1,3-3,2,.5,3.5-2.5,2-1.5,4-1.5.5,1,1-1,2.5-1,.5-2-.5-.5,1h-1l1,3-.5,1-1.5,4.5v2l-2,3,.5,1.5-2,3-2.5,1.5v2l-2,3.5v1l-1,2-.5,3,2,.5,2.5,4-1,4v1l-1,2,1.5,3-.5,3-1,.5,11.5,23,5.5,3.5,8.5,7.5,1,2.5,2,5.5v8.5l.5,5,4.5,18,2,1,6,.5,3.5-.5,1.5-1,2.5,1.5,2-.5.5-1.5,1.5-.5,1.5,5.5,1,5.5,1,1,2,4.5,1-1.5,4.5,8,4,14-6,2.5-1,2v1l3,3v1.5l1.5.5-1.5,2h-1l-1.5,3v2.5l2.5,4.5-3,2-5.5-2-3.5.5-.5-1-5-.5v1.5l-4,1-.5-1.5h-1l.5-1.5-2-3.5,1.5-.5v-3h-2l-5-3.5-5.5,3-2,1.5.5,1h-1l-1-2-1.5,2-2,.5-3.5,5-12,.5v1.5l-1.5,1h-1.5v-1.5l-1.5.5-.5-1-1,.5v-1l-1,.5-1.5-2.5-3-1.5v1h-1.5v1h1v1.5l-2,1,.5,1.5-.5,1v3l-1,1,.5.5-.5,1,.5,1.5-.5.5,1,.5-.5,1.5,2,.5v2l-6,4-3-2.5.5-3-4.5-1.5-.5-1.5-8.5-.5v4.5l-2-2.5h-1.5l.5-2-1.5-1.5.5-1.5-.5-1.5.5-.5-1-.5v-2.5h1l-.5-2.5,1-.5-1-.5,1-1.5-.5-1.5,2.5-2-1.5-1.5v-1.5h-1l.5-1-1-1-26,10-14,3.5-.5-2.5,1-.5-1-1.5,1.5-3-.5-1.5v-2l-2-1v-1.5l-15-1.5-6-6-19.5-7-1-7.5-2,.5-1.5-21.5,18-25.5,15.5-8-7.5-13.5,2-6-24.5,1-11-29.5-11.5-2.5-2-14-14.5-6-20.5-2-17.5,3-27.5-4-3-5.5,1-3,1.5-1,.5-9.5,4.5-5.5.5-1.5-.5-2,1-.5v-1h1l1-2-11-33-2-.5-.5-3.5"/>
      <path data-code="ermakovskij_rajon" data-title="ermakovskij rajon" class="cls-1" d="M261.13,2057.76l2-3.5.5,1,3-2,1,1,2-2.5h1l.5-3.5,2.5-3v-1.5l5-3,1,.5.5-2,2-1.5,1.5,1,1-.5,1,1.5,1-1,.5.5,3.5-1.5,2,.5,2,1.5,7.5-2,.5-1-1.5-2.5,1-1-.5-2.5,2-3.5,5-2v-2.5l-1.5-3v-2.5l2.5-1,6.5-7,.5-3v-2l-1.5-1.5v-2l-4-3v-1.5l-4-1v-4.5h1l.5-1.5-2.5-3.5.5-2-4.5-1v-4l-1-4,6-2.5-1.5-.5,2-4-.5-2.5-1-.5v-2l.5-2,2-.5-2.5-2h1v-2.5l1-1,2,.5-2,2h4l-3,1.5,1.5,2,6-1,2-1.5v-1.5l4.5,1,2.5,4.5,1.5,1,2.5-.5v1.5l2.5,3.5v1.5l3,.5,5-1,3,2,1.5-.5,1-2,5-.5v3l-2,4,2,3.5-3.5,3,5,7.5,1.5,4.5-.5,1,1,.5-1,3.5.5.5,8-.5v-2.5l3,1.5,5.5.5,4.5-3.5,2.5,2,3,1,4,3-1,2.5v2l-2,1,.5,4-4,2-2.5,2.5,1,1v1.5l-2.5,3.5-2.5,1.5v2l-1,2h-2l-.5,1.5.5,3.5-3.5,5v2.5l-1,2,1,2-3.5,1.5-.5,1.5h-4l-3.5,3h-2.5l-3,3-.5,3-4,1.5-1,3.5-1.5,2-3,1.5h-2l-2,2.5-1.5,3-4-1.5h-3l-2,3-2-.5-2.5,1.5-6.5-2-3.5.5-1-1-7,3.5-5.5-3-1.5-3.5h-2.5l-1.5-2-2.5,1.5-8-3.5-3,1-7-.5-1,1.5-1-1.5-2.5-.5-3.5-3.5"/>
      <path data-code="data-coderinskij_rajon" data-title="data-coderinskij rajon" class="cls-1" d="M295.13,1878.76l3-1.5-.5-2.5.5-3,1-1-2.5-.5.5-4-.5-.5,1-2-.5-2,.5-.5,1-3,1-.5,2.5,2,2-2.5,3,.5,3.5,4,2.5.5.5-3.5,1-1-1.5-2.5,2-1.5,1.5,1,1-3h.5v-1h1l.5-1,.5,1,2-.5-.5.5h1v1h2.5l8.5-1.5,3.5,1.5v1.5l2,1.5,5-2.5,3,2,1,2,1.5,1-1,2.5-3,3.5-1.5-2-1,.5-1,3.5,1,1-.5,2-3,1,1.5,2,8.5-1.5,2,1.5-.5,2,2.5,2.5-.5,2.5-3,2.5v2.5l-2,3.5-4,2.5-.5,2.5-1.5,2-2-1-4,.5.5,2-.5,1.5-2-.5v1.5l-5,3-.5-1.5h-.5l-4.5,3v1l-2,1-1.5-1.5-2.5,2.5-2-1-2.5,1-2-2h-4v-1l-6.5-2.5v-.5l1.5.5,1-1h1.5l-1-3.5,1.5-2-1.5-1-5,1v-1.5l1.5-1-2.5-2-1-4h-1.5v-6"/>
      <path data-code="igarka" class="cls-1" d="M214.13,919.43l-.15-3.01,6.15.47.11,1.69-6.1.85"/>
      <path data-code="ilanskij_rajon" data-title="ilanskij rajon" class="cls-1" d="M442.63,1744.76l1-1.5-.5-1h1l.5.5h2v1.5l.5-1h6l.5,3h3.5l1.5-5.5h2v1.5l2,.5-2,1.5v2.5l7.5,1,.5,5.5-1.5,1.5-4.5-1.5-2,1.5.5,2,4.5-.5,1,2.5-1,4h-1.5l-.5,2.5h.5l1,2.5,3-1.5h3.5l-.5,2.5-8,1v-1.5l-1.5,3,5.5,5v2.5l-1,1,.5,1-1,1,1,.5v1h1.5l-.5,4h1.5v1.5l-3,1.5h8v-2.5l9-.5,1,2.5-1.5,1.5-.5,3-1,1,2.5,1.5.5,1.5-3,2,1,1-5.5,5.5-4-3.5v-2.5h-3l-5,2.5-1.5,3.5-2.5.5-6.5-5.5-3-.5-2-1.5v-3h-5l2-4,1.5.5.5-1v-2l-1-.5h1.5v-4.5l2-.5v-1.5l-3-1,1-2.5-1-1.5,1.5-3.5v-2.5l1-1.5-2-1-.5-3.5h-1l.5-2-2-2.5,1-1-2.5-2,2-1v-3h-2l-.5-1,1-.5-.5-.5,1.5-2-.5-.5,3.5-1.5-1.5-1.5-2.5-.5-.5-2h-1"/>
      <path data-code="irbejskij_rajon" data-title="irbejskij rajon" class="cls-1" d="M416.13,1799.26l3-1.5,2.5-2.5,2,1,1.5-1v-2l-2-1.5-1-3-1-.5,1.5-1-.5-4,5.5.5-.5-1,2-.5,1.5,1,.5-1.5,3,.5.5,1h-1l1,3.5,2.5-.5v1.5l1.5,1.5,3.5-1-.5,2-1.5.5,3,.5-.5,2.5,1.5-1,.5,1,.5-1,1,1-2,3h5v3l2,1.5,3,.5,6.5,5.5,2.5-.5,1.5-3.5,5-2.5h3v2.5l3.5,3.5,6-5.5,3,3.5.5,1-2,1v1l1,1.5-.5,1,1,2.5-.5,1,.5,2.5,1.5,2.5v1.5l2.5,4-2.5,2h-3.5l-.5,1.5h-2l.5,1h-2l-1,1,1.5,1v3.5l-1,1.5.5,3-1,1,1.5,1-3.5,4.5,2,4,2,1v2l1,1.5-1,.5.5,2-.5,2h-1v3l-1.5,1.5v2l-2,3,.5,1.5v3.5l-2,3.5.5.5v3l-2,1-7-3-4.5,2-4-3-1.5,1.5v2h-1l.5,1-1.5.5v2l-1,1,1,1-1.5,1-.5,2.5-2,.5-1-2h-2l-1-2-1-2,3-2,2,.5,2-1.5.5-2.5-.5-1.5h-2.5l-1-2.5v-2.5l-7-7-4.5-7-1-4-3.5-6.5.5-9-3.5-3.5,2-2.5-2-.5-.5-1.5,1.5-4-.5-2,.5-.5v1h1l.5-.5-2-2.5h-2.5l-1-4-.5,1.5-4.5-2-.5-2.5h-1v-2.5l-1.5-.5,1-4.5-.5-2-1-.5-1.5-5.5"/>
      <path data-code="kansk" class="cls-1" d="M438.63,1758.76l1-.5,2.5,1v-1.5h.5l3.5,3-1,1,.5,1-2,3.5-3-.5-1-.5v-2.5l1.5-2.5-2.5-1.5"/>
      <path data-code="kanskij_rajon" data-title="kanskij rajon" class="cls-1" d="M399.13,1747.26l5.5-7v-7.5l2-1,4,1.5,3,2.5,2.5-.5.5,2h1l.5-1,1,1,2-2.5,4,.5,2.5-1,1.5,2,1.5-1,1.5,1,5.5-2.5.5,1,.5,2h-1l1,3,3,.5,1-1,3.5,2v.5l1.5,1-1,1.5v-1.5l-3.5-.5.5,1-1,1.5h1l.5,2,2.5.5,1.5,1.5-3.5,1.5.5.5-1.5,2,.5.5-1,.5.5,1h2v3l-1.5.5.5,1-2-1.5h-.5v1.5l-2.5-1-1,.5,2.5,1.5-1.5,2.5v2.5l4,1,2-3.5,1.5,1.5-.5,2h1l.5,3.5,2,.5-1,4.5-1.5,3.5,1,1.5-1,2.5,3,1v2h-2v4.5h-1.5l1.5,1-1,2.5-5,.5.5-2.5-3-.5,1.5-.5.5-2-3.5,1-1.5-1.5v-1.5l-2.5.5-1-3.5,1-1-2.5-.5,1.5-.5.5-1.5h-1.5l-1.5-4-3.5-1,.5-1.5-2-.5v-1.5l-1-1,.5-1-5.5-.5-2-3-4-.5-4.5,1,.5-3,1-.5-1.5-5,.5-2-2-3v-1l-9-4.5"/>
      <path data-code="karatuzskij_rajon" data-title="karatuzskij rajon" class="cls-1" d="M317.13,1949.76l2-.5v-2.5l1.5-2.5,3,1.5,2-1v-2.5l-.5-1-5-1,1-3-1.5-1,4-3h3.5v-2.5l2.5,1,5.5-.5.5.5,4.5-2,2-2.5h2l2,.5v1.5l2.5,2.5,8,1.5,1.5-.5-.5-1.5,1-2-.5-1,1.5-1,2.5.5-1,1.5.5,2,2.5.5-.5,1.5-1.5.5,1,1,3.5,2,2,2,3,.5,3,3,3.5,2-.5,3-2.5,2,1,2.5,3,3,4.5-.5,1-2.5,2-1,5,3.5,4.5-4,.5,1,2.5.5,1.5,6.5,6.5,2.5-5,3.5-.5,1.5v1l2.5.5.5,2,1,1.5-.5,1.5h-2l.5,2-2.5,1.5,1,3-1.5.5v2l.5,3-1,1.5.5,2-2.5,2.5-.5,1.5.5,2-1,1-4-1.5-1.5,1.5-2-.5-6.5,5.5-8.5-5.5-4.5,3.5-5.5-.5-3-1.5v2.5l-7,1-1.5-1,1-3.5-1-.5.5-1-1.5-4.5-5-7.5,3.5-3-2-3.5,2-4v-2.5h-5l-1,2-1.5.5-3-2-5,1-3-.5v-1.5l-2.5-3.5v-1.5l-2.5.5-2-2-2-3.5-2-.5-.5-5.5-3-.5-.5-1.5"/>
      <path data-code="kazachinskij_rajon" data-title="kazachinskij rajon" class="cls-1" d="M328.63,1683.76l.5-.5-.5-.5,1.5-1.5-1-1,1-8-.5-1.5,3-1.5,1-5-.5-3-2-3,6.5-2.5-.5-1.5.5-1-1.5-2v-1l-1-1v-1.5h-1l.5-1.5h3v-1.5l5,.5.5,1,3.5-.5,5.5,2,3-2-2.5-6,1-3,.5,2,2,1,2.5-1,19,1.5,3.5,3h3l1,3,3.5,1-7,15-9.5,16,.5,3,4-1,1.5,1.5.5,3-2,.5-9,7-2.5,1-4-1-1-2,1-4.5-.5-1-2,1-.5-3-2.5.5.5.5-1.5,1,.5,1.5-1,1-1.5-2.5-2,2.5h-6l-.5,1.5h-3.5l-.5-1,.5-2.5-.5-1.5,1-1.5-4,1.5h-8.5"/>
      <path data-code="kedrovyj__krasnojarskij_kraj_" data-title="kedrovyj_(krasnojarskij_kraj)" class="cls-1" d="M316.63,1758.76l.5-.5v-2h2.5v1.5h1l-.5,1.5-1,1-2.5-1.5"/>
      <path data-code="kezhemskij_rajon" data-title="kezhemskij rajon" class="cls-1" d="M532.63,1574.76l4-9.5,6.5,1,2.5,2.5v-1.5l1,1,1-1.5,2.5-.5-.5-.5.5-1,1,1.5,1.5-1.5h4l-.5-2.5,3-2v-1.5h1.5l.5-1.5h.5l-.5-1h1l1.5-3.5,2.5-1-.5-3,2-.5v2.5l2.5.5h5.5l.5,1.5h1.5v1l4,3.5,2-1.5v1l7-4.5-.5-1.5,1-4-1-7,.5-5.5-1.5-4.5-2.5-3.5,1-3-1.5.5-2.5-2.5-.5-1,.5-2h-2l.5-2h1.5l-1-1,.5-.5-2-1-1,.5-.5-1-3,.5-4-3h1l.5-1-.5-.5,1.5-1.5v-2l3.5-3v-1l2-2.5-.5-2,1.5-1.5h1.5l2-2.5,2-.5,1,2-1,4h1.5l2.5,2.5,4.5,1,4-2,2,2,2,3,2.5-1,1,1.5,3.5,1,3.5-1.5,3,.5,3,4,1.5-1,3.5,1.5,2-1,7.5,1.5.5-.5-.5-2,.5-.5,8.5-1.5,2.5,2-.5,1.5,10,3.5,1.5,2.5,4.5-.5,4-4.5h2.5l2.5,1.5-2,1,.5,2,1,2-1,2.5,3,2v1l4,1v1.5l-2.5,2-2,.5-.5,1,.5,4,1.5,2.5-.5,1.5.5,1-.5.5,1,.5-2.5,1-.5,1.5,1.5,1,.5,1.5-1,2-1.5.5.5.5-.5.5,1,1-1,2.5,2,2-.5,2,2,1-2,1,.5,1v2.5l1.5.5,1,2h1.5l-.5,1.5,1,1-.5,1.5.5.5-.5,1,1.5,2.5-1,1.5,1,2-1.5,2-2,1.5-.5,1.5-1.5-.5-.5,1.5-1.5,1-1.5,3,.5.5-1,.5,1,.5-.5,1v.5h-1v1l-1.5,2-3.5,2.5-2.5.5-.5,1-7.5,2-3,3-.5,3.5.5.5-1,.5.5.5-1,.5-3.5,7-1,1h-4.5l-3,3-.5,2-1,2-4,2.5,1,3,1.5,1.5-.5,2,.5.5-1,1.5.5.5v.5l-3.5,3,.5,1-1,.5.5.5-1,2-2.5,1-4-.5,1.5,1.5v2h.5l-.5,1,1,1-.5.5,1.5,1-1.5,4.5v.5l-.5.5.5,1-1,1,1,1-1,1,2.5,3.5,2.5.5-.5,1,1,.5h-.5l.5.5-.5,1,.5.5-.5.5.5,1-.5.5,1,1-1.5,3-2.5-1.5-3,5-1.5-1-1.5-3.5-6-2-1-1.5-3-2,.5-2.5-3-3.5,1-2-2-1,1.5-4.5-3-1.5v-2l.5-1-6.5-3,.5-1-.5-.5-.5-3-1.5-1.5-.5-1,.5-.5-1-.5,1-1-1-1,1-2.5-.5-1,.5-1-1-.5-4.5-.5-5,2-1.5-1.5-3.5,1-.5,1,.5,2-.5,1.5v1h-1l-1.5,4h-1.5l1,2-2,.5.5,1.5-.5,1.5.5,1.5-1.5,1,.5,1-1,1.5-1,.5-2-1-2.5,1.5v-2.5h-7.5l-.5-8h-.5l-.5-2.5h-1v-2h-2.5v-2.5h-5v-5h-3.5l-1-7.5,2-.5-.5-2h1v2.5l3-1,.5.5.5-1h.5l1,1h4v2.5h-1v2.5l2.5.5v5l5,3.5v1h.5l.5,3h2v1.5l3-1,1-2h2.5l3.5-3.5v-4l-2.5-3.5,2-2-.5-1,1-1h-1.5l-4.5-5-5,2-1-2v-2.5l-3-1-1.5-3.5-2-1.5v-2l2-1.5,1.5-4.5-1.5-2.5-2.5-2,1.5-5.5-3.5-3-1,2.5-7.5,2-3,3.5.5,3.5-1-1.5.5-2.5-.5-.5,1.5-3.5,2.5-2-1.5-.5-1-1.5.5-.5-.5-.5.5-1-2-2.5v-1l-5.5-3h-4.5l-1-1.5"/>
      <path data-code="kozul_skij_rajon" data-title="kozul&amp;apos;skij_rajon" class="cls-1" d="M267.63,1752.26l4.5-.5,1-2,2-.5,1,1,.5-1.5v-3h-.5l-.5-3.5,5-1,.5-3.5,1.5-5,2-1.5-1-1.5-1.5.5.5-1.5-.5-1v-2.5l-.5-1.5.5-1.5-.5-1,6-3.5v-3l2-1v-1h2l1,2.5-.5,3,2,3-1,3v1l8.5-2.5h4.5l-.5,1h.5l-.5,1,1,2-1,1,.5,1-2,1v1.5l-1.5,1.5v1.5l-.5.5.5,1h-1l.5,1-1,1v1l-2,2.5.5,2-1,1,.5,1-1,.5v.5l-1,.5v2l-2.5,2.5.5,6.5,2-.5v5l-1.5,1v1l10,1-1,2-.5,5.5-2.5,2,2.5,3.5-1,2.5h-2l-3.5-4.5h-1l-1.5,2,1.5,4-2,.5v2.5l5,4.5,3,7-4-1-3,1.5-3-5-4-1.5-9.5,3.5-1,1.5v1.5h2.5l1,4-.5.5-1-.5-.5-1-.5,1-2.5-1-2.5,1-3-1,1-2-1.5-1.5,1.5-1-1-3.5-2-.5,2-.5,1-2.5-.5-1,1-1v-2.5l-1-1.5,1-.5-.5-.5.5-1.5-1-1,1-.5-1-1,1.5-.5-2-1.5v-1l-1-1.5,1-3-2-1-1-2,2.5-3-1,.5.5-5.5h-.5v-2l-1.5-.5,2-2-2-1-.5-1.5"/>
      <path data-code="krasnojarsk" class="cls-1" d="M330.13,1778.26l1-1v-4l4.5-2.5,1,2,1,.5,1.5-1v-2l1-.5-.5-1,.5-1h2l-1,1,1.5,1-.5.5,1-1,.5-.5-1-2,1,.5.5,1,4-.5v1.5l1.5-.5-.5-.5,1,1h-2l1,1.5-1-1.5-1,.5v1.5h-2.5l2,1.5-.5,1.5,1-.5-.5,1h1l-1.5.5-.5,2.5h-1.5l-1,2h-3.5l-.5,2.5-2.5-3h-5v-1.5l-1.5.5"/>
      <path data-code="krasnoturanskij_rajon" data-title="krasnoturanskij rajon" class="cls-1" d="M265.13,1869.26l3.5-3,2.5,2,7-1,4.5,1,5-6-.5-1,4.5-.5,1-1-3.5-2.5-.5-2v-2.5h3.5l3.5,1.5,3,4-1,3-.5.5.5,2-1,2,.5.5-.5,4,2.5.5-1,1-.5,3,.5,2.5-3,1.5v6h1.5l1,4,2.5,2-1.5,1v1.5l5-1,1.5,1-1.5,2,1,3.5h-1.5l-1,1-1.5-.5v.5l6.5,2.5v1l5,.5-1.5,2,.5,2-.5,1.5-2.5,1,.5,3.5,1,.5-1.5,2.5-2.5-1.5-2,.5-1.5-1v-2l-5-.5-.5,1.5-4-1.5-1,1,1,1.5v3h-3.5l-2.5,1.5-2-.5v-2l1.5-3,.5-4.5-3.5-6.5-2-7.5-4-4v-1.5l-2-5,1-3-.5-3-10.5-9.5"/>
      <path data-code="kuraginskij_rajon" data-title="kuraginskij rajon" class="cls-1" d="M306.13,1921.76l3.5-7.5-1-.5-.5-3.5,2.5-1,.5-1.5-.5-2,1.5-2,1,1.5,2.5-1,2,1,2.5-2.5,1.5,1.5,2-1v-1l4.5-3h.5l.5,1.5,5-3v-1.5l2,.5.5-1.5-.5-2,4-.5,2,1,1.5-2,.5-2.5,4-2.5,2-3.5v-2.5l3.5-2.5-.5-1,.5-1.5-2.5-2.5.5-2-2-1.5h-2.5l-6,1.5-1.5-2,3-1,.5-2-1-1,1-3.5,1-.5.5,1,1,.5,2.5-2,1.5-3.5,2.5-.5.5-2,1.5,1.5v1.5l5,2,.5,2v1.5l1,.5,3.5,5.5h2l.5,2-1.5,1,3.5,3,1-1.5,2.5,1,1.5-2.5,4,2.5,1.5-2,4,2.5,3.5.5,2.5,3.5h1.5l1.5,3.5v1l1,.5.5-1.5,2.5-.5,2.5-3.5,3,1.5.5,1.5h4l-.5,2,1,2.5,3.5,3,2,.5.5,1.5,2,2-.5,1,.5,1h3l1,1.5,1.5-1.5,3,.5,1.5-2h3l3.5,1.5,4,4.5,2-2,1.5,3,3-2,1,2,2.5,1.5,2.5-1,1.5,2.5v1l1.5,1,1,3.5,3,2h3l1,1.5-.5,1.5-1,1,1,1-1,1,2.5,1,2,4.5v1l6.5,4.5,1.5,3,.5,2.5,3,1,1,4,3.5,2,1-1.5,1.5,2.5h1.5l.5,1.5-1,1.5.5.5-1,2h-1.5l-2.5,1.5-1.5-.5-2.5,3-.5-2-3.5-2,1-2-4,.5.5-1.5-1.5-.5-1,3.5,1,1-.5,2.5-4.5.5v4.5l-3-.5-3-2.5h-6l-2.5-2-3,2.5v2l-5,1.5-1.5,1.5v1.5h-2.5v1.5l-.5.5-4-1.5-1-1.5,1-1v-1.5l-3.5-1.5-4,4.5-2,.5-1,2-1-.5-.5-2h-1.5l-.5,1-.5-1-7,1.5-6.5-2.5-1.5-6.5-2.5-.5-.5-1-4.5,4-5-3.5-2,1-1,2.5-4.5.5-3-3-1-2.5,2.5-2,.5-3-3.5-2-3-3-3-1-2-1.5-4-2-.5-1,1.5-.5.5-1.5-2.5-.5-.5-2,1-1.5-3.5-.5-1,4,.5,1.5-1.5.5-8-1.5-2.5-2.5v-1.5l-2-.5h-2l-2,2.5-4.5,2-.5-.5-5.5.5-2.5-1v2.5h-3.5l-1.5,1-2-4-.5-2-1.5-1.5-.5-1.5h-.5l-2-2.5-3-.5-4,2-.5-.5v-1.5l-1.5-.5"/>
      <path data-code="lesosibirsk" class="cls-1" d="M345.13,1632.26l.5-1,1.5-1v-1l2,2,.5,1-3.5-1.5-1,1.5M321.63,1619.26l1.5-2.5-1-.5,1-1-.5-1h2l1-1.5,1-.5.5.5-.5,1.5v2l3,2.5,1.5,4.5,3,2-2,1.5,2,1.5-1,1h-6v-2.5h-1l1-2.5-1.5-1-.5-1.5h-3l-.5-1,.5-1-.5-.5M347.63,1628.76l1-.5v.5l-.5.5-.5-.5"/>
      <path data-code="manskij_rajon" data-title="manskij rajon" class="cls-1" d="M345.63,1830.26l2.5-5v-1l1-5.5,1-1-.5-2.5-.5.5-.5-1.5h1.5l-.5-1,.5-1-1,.5-1-1,4.5-1.5,1-1.5,4.5-2.5v-1l-.5-1.5,1-2.5-1-3v-.5h-1.5v-.5l-1,1-2-3,3-4.5h1.5l-.5-1v-.5l1.5-1.5-2.5-2.5v-2l1.5-1,.5,1.5,4.5-3-1.5-1.5h1l1.5-2.5,1.5-1-.5-2.5,1-1.5-.5-1.5,13.5,2.5-.5.5,1,1,1,2-3.5,1.5,1,3.5-.5,1-2,.5v3l-1,1.5h-2l-.5,1.5h.5v3l3.5-.5-.5,2.5,3.5.5-1,5.5,1,1.5,2,.5,2,4-2.5-.5v6.5h-1.5l-.5,1.5,1.5.5-.5,4.5h-1l-1,3.5,2.5,2,1.5,4h1.5l1,1.5h2l-1,1,.5,1.5-2.5,3,1,.5-2,2,1,2-3.5.5v1l2.5,1-1,1,1,1.5-2,.5,1.5,2-5.5,4.5-3.5-.5-.5,2-2,1-.5,3v4h-3v-2.5l-1.5.5-.5,2.5,1,2.5-3.5,2-1-2-1-.5v-1.5l-.5-2-5-2-.5-2-3.5-2.5,1-3-1-1.5.5-2-1.5-1-1-1.5.5-1.5-1.5-2.5,1-1.5v-1.5l-1-1,.5-4.5-2-1.5"/>
      <path data-code="minusinsk" class="cls-1" d="M287.13,1933.76l2.5-2.5v1.5l2,1v1.5h.5l-.5.5,1.5,1-3.5,1.5v-1l-1.5-.5,1-1-1.5-.5-.5-1.5M286.13,1941.26l.5-.5.5.5.5-.5,1,.5-2,1.5-.5-1.5"/>
      <path data-code="minusinskij_rajon" data-title="minusinskij rajon" class="cls-1" d="M286.13,1941.26l.5,1.5,2-1.5-2-.5-.5.5M287.13,1933.76l.5,1.5,1.5.5-1,1,1.5.5v1l3.5-1.5-1.5-1,.5-.5h-.5v-1.5l-2-1v-1.5l-2.5,2.5M280.13,1924.26l2.5-5.5,2-2v2l1,.5,3.5-1.5h3.5v-3l-1-1.5,1-1,4,1.5.5-1.5,5,.5v2l1.5,1,2-.5,2.5,1.5-2,5,1.5.5v2l5.5-2,2,.5,2,2.5h.5l.5,1.5,1.5,1.5.5,2,2,4-2.5,2,1.5,1-1,3h4l1.5,2v2.5l-2,1-3-1.5-1.5,2.5v2.5l-3.5.5v-1l-6,2-2,1.5-1.5.5-1-4.5-4,1.5.5.5-.5,1-2.5-.5-4,2-7.5-5v-3l-2-1.5-.5-2.5-.5-1,1.5-1.5-.5-2.5-3-3-2-8.5"/>
      <path data-code="motyginskij_rajon" data-title="motyginskij rajon" class="cls-1" d="M350.63,1601.26l1.5-1.5h1.5l1.5-2-.5-.5,1-1,1.5-4.5,1.5-1v-1.5l1.5-5.5h2l.5,1.5,1.5.5h1l1.5-2,2,1,5.5-3.5.5-1.5.5-3,3,.5,4.5-2.5.5-.5-.5-4,3-1.5,1.5-5,2-2,1.5-8,1.5.5v-1.5l1-1-1-1v-2l-3-3.5v-.5l-.5-1,1-1,1.5.5,1-.5,1,.5,1-.5-.5-.5.5-.5,2.5.5-1,1.5.5.5h3l-.5,1,5.5,1.5,1,1.5.5-1h1.5l.5-4.5,1-1.5h.5v-1.5l1-1.5-.5-1,6-3.5v-1l1-2h1.5l1.5-2,2.5-.5-.5-1.5,3-3-1-1,2.5-2,7.5,1,3,2,.5,2,4,2-1.5,3,1,.5-.5,1,.5.5-1,1,.5.5-.5,1.5h.5l-.5.5v1l-1-.5.5,1h-1l.5,1.5-1,.5-.5,1.5-2,.5,1,2-1,.5.5-.5-.5-.5-2,1.5v1l-.5,1.5-1-.5v1l-1.5,1,1,1.5-1.5,2.5-3,.5-1.5-2v2.5l.5.5-2-1-1.5,2.5,2.5,2.5-.5,1,1.5,2.5-1,1,3,2-1,1,4,.5,1.5,1.5-1.5,3,1,.5-.5,1.5v3l-1-.5,1,1v1l-1.5,1v1.5l2,.5-.5,2,1.5,1.5,1.5-2.5,3,1.5-6,11.5,1,3-.5,1.5,1.5,1.5,2,4-1,23-1,1,.5,1.5-1,.5.5,1-1.5,1.5,1,3-3.5,1.5v1l-1.5,1,.5,1-.5,1,.5,1-1,.5v2.5l1,1-.5,3.5-3,5-4.5-1.5-9,2.5-1.5-2.5-2-1.5h-2.5l-.5,1-1.5.5-2.5-1.5-3,1-3-1.5v.5l-4-3-1-1.5-4.5-1-1-3h-3l-3.5-3-23.5-1.5v-3h1l1.5-2-1.5-.5v-1.5l-3-3v-1l1-2,6-2.5-1-1.5-3-12.5-4.5-8"/>
      <path data-code="nazarovo" class="cls-1" d="M244.12,1769.13l.5-1,3.5.5,1.5-1.5.5.5-1,.5,1,2h1v1.5l2,1.5-2,1,.5,1.5,1-.5.5.5-3,1,.5-2.5-2-1-1.5,1,.5-2.5h-2l-1.5-2.5"/>
      <path data-code="nazarovskij_rajon" data-title="nazarovskij rajon" class="cls-1" d="M244.12,1769.13l1.5,2.5h2l-.5,2.5,1.5-1,2,1-.5,2.5,3-1h-1.5l-.5-1.5,2-1-2-1.5v-1.5h-1l-1-2,1-.5-2,1-3.5-.5-.5,1M219.62,1772.63l1-.5-.5-1.5v-1l1,1,1-.5v-1l.5,1,1.5-3,1.5-1,3,1.5v-1h3.5l3-2,5.5,2,.5,1.5.5-1,1.5,1,2.5-.5,2,.5.5.5.5-1h1l.5-1.5,1,.5,1-1.5,2,.5v2l1.5.5.5,1.5-.5,1.5,1-.5v1l.5,1h.5v-1h2l2,.5,2.5-1,.5,1v-1l.5,1,1-1,1,.5-.5,1.5,1.5-.5v1.5l1-1.5,1,.5,1.5,2v1l2,1-1.5.5,1,1.5-1,.5.5,1v1l.5,1h-1l1,1.5-.5,3-1,1,1,.5-1,3-2,.5h2l.5,1,.5,3-2,1,1.5,1.5-1,2,1,.5-5,1.5v2l-2.5.5.5,2-4-1-1,2-3,1-1-.5-.5-2.5.5-3,.5-.5-5-4-4,1-2,4-2.5-1,.5-.5-.5-1.5-3.5-4-3.5.5h-3.5l-1-2-6.5.5v3l-4,1-1.5-3,3.5-3-2.5-2.5h2.5-1.5l-.5-2,6.5.5-.5-1,1-.5-.5-1-1.5-.5,1-3-1.5-.5.5-1h-3.5l-1-2,1-3.5-2.5.5-.5-4.5"/>
      <path data-code="nizhneingashskij_rajon" data-title="nizhneingashskij rajon" class="cls-1" d="M461.12,1746.63v-2.5l3-2.5v-1.5l5,.5,6-2.5,1.5,1.5,3-2-.5-1h2l.5-1,1.5.5,2.5,2v-1.5l4-.5,1.5-3v-1l3,1,6.5-1.5,3-2.5.5-2.5.5-1v-.5l.5-1-1-1,1-1v-1.5l-1-1h3.5l1,1.5,4.5-1.5h4.5l.5,2-2,2.5,1,1-.5,3.5,1,.5-1.5,1.5,1.5,3.5-1.5,3.5,5,.5.5,11-11.5.5,1,13h-4l-2,2,1,1.5v2.5l-.5.5-2,5-2-.5-.5-2.5-6-2.5-2.5,7.5h-2.5v11l-2.5-1-1,2.5-1.5-.5-.5.5-1-1-2-.5-2.5.5v1l-4.5-.5v2l-3.5.5h-4.5l3-2v-1h-1.5l.5-4h-1.5v-1l-1-1,.5-.5v-1.5l1-.5v-3l-6-5,2-2.5v1.5h2.5l4.5-2,1,.5v-.5l.5-1.5-.5-.5-6,2-1-3h-.5l.5-2h1.5l1-4.5-1-2-3.5.5-1.5-1.5.5-1.5,1.5-.5,3.5,1.5,2.5-2-1-5-7-1.5"/>
      <path data-code="noril_sk" data-title="noril&amp;apos;sk" class="cls-1" d="M213.12,835.62l2-7,17-2,9-9.5,7,2.5-3.5,15-8,7.5-23.5-6.5"/>
      <path data-code="novoselovskij_rajon" data-title="novoselovskij rajon" class="cls-1" d="M248.12,1838.13l3-2h2l1.5-1.5,2.5-1-.5-5,2-.5-.5-4,1.5-.5.5,4h3v2l2.5-.5.5,2-.5,2,.5,2.5.5-1,2,.5,1-1v-1.5l3-1-.5-1,2-.5,1-2,5-.5,1-1.5.5-2.5,1.5.5,1,3,5,1.5,1.5,3.5v3.5l9.5,1v2l-1,1-1,2.5h-1.5l-1,1.5,1.5,5,1,.5-1,2,2,.5,3-1,1.5,2.5,2,1.5.5,3h-2.5l-1.5,2.5-2-2.5-1,1-3-4.5-6-1.5-1,.5-.5,2.5,1,1.5,3.5,3-1,1h-4.5l.5,1.5-5,6-4.5-1-7,.5-2.5-2-3.5,3.5,1.5,1.5-3.5-3v-4.5l1.5-4v-5l-6-2v-2.5h-10l1-8.5-1-2.5-1-1"/>
      <path data-code="partizanskij_rajon__krasnojarskij_kraj_" data-title="partizanskij_rajon_(krasnojarskij_kraj)" class="cls-1" d="M362.12,1865.96l3.5-2-1-3,.5-2,1.5-.5v2h2.5v-4l1-3,2-1,.5-1.5h3.5l5-4.5-1-1.5,2-1-1-1.5,1-1-3-.5.5-1.5,3.5-.5-1-1.5,1.5-2.5-.5-.5,2.5-2.5-.5-2,1-1-2,.5-1-1.5-1.5-.5-1.5-4-2.5-1.5,1-3.5h1l.5-5h-1.5v-1.5h2v-7l3,1h5l1-1,.5,1,12.5-.5,3.5,2.5-1,2.5-1.5.5,1.5,3.5-.5,1-.5,2.5,1,2.5h-.5l.5,2.5-1,2,.5.5-1.5,1-2,3h-1v5.5l-3,1.5-.5-2-1-1,.5-1.5-8.5-2.5,1,3.5h1l1,1.5-1.5,2.5h-1l-1,1.5,1,2.5-2.5,2.5.5,2,5,.5,1.5-2,1,.5.5.5-1,3v2l2,1.5v3l6.5,2.5,2,2,2-.5,1,3-2,4.5,6,8h2l-1,3.5,1,2-.5.5v3.5l-5,3-1-3,.5-1.5h-4l-.5-1.5-3-1.5-3,3.5h-1.5l-1,1.5h-1l-1.5-4.5h-1.5l-2.5-3.5-4-.5-3.5-3-1.5,2.5-4.5-2.5-1,2.5-2.5-1-1.5,1.5-3-3,1.5-1-.5-2-2-.5-2.5-3"/>
      <path data-code="pirovskij_rajon" data-title="pirovskij rajon" class="cls-1" d="M281.12,1680.12l1.5-2,.5-2.5,2.5-1.5,1-2,2-2-1-3.5.5-3.5-2,1-1.5-2.5.5-2-2-1v-2l-.5-.5h.5l-.5-2,.5-.5-.5-.5,1-1v-3l.5-1-.5-1.5,2-1v-1.5h-1v-.5l1.5-1v-.5l3,1.5,1.5,2.5,1-1v1l1-.5.5,1.5,1.5-.5v1l1.5.5,1.5-1v-2l12-.5,3.5-4.5,2-.5,1.5-2,.5,2h1v-1l1.5-1.5,5.5-3,5.5,3h2v3.5l-1.5.5,2,3.5-.5,1h1l1,2.5h1v1.5l1,.5v1.5l1.5,2-.5,2.5-4,1-2,1,2,3.5.5,3-1,5-3,1v2l-.5,7.5,1,1-1.5,1.5v1l-3.5.5-8,4-7.5,11.5-6,3.5-11.5-8.5,2.5-2.5,5-12.5-4.5-.5-1.5,4-6.5-2.5-6.5-.5"/>
      <path data-code="rybinskij_rajon__krasnojarskij_kraj_" data-title="rybinskij_rajon_(krasnojarskij_kraj)" class="cls-1" d="M411.12,1784.63h1.5l-1,.5.5,1.5.5-1.5,2.5,1.5-1-1.5,1,.5.5,1v-.5l-.5-1,1-1.5-3-1.5-1,1-1-.5v2M396.12,1769.63l1,.5-.5,1.5,2-.5,4,3.5,2.5-.5.5-1-1-1,.5-.5,2.5.5v-2l-1-.5-1-1.5-1.5-.5-.5,1h-1l.5-2.5-1,2.5-5.5-3.5-.5,4.5M384.62,1764.13v-1l3.5-1,3.5-3,4-9,4-2.5,9,4.5v1l1.5,3v2l1,5h-.5l-.5,3.5,4.5-1,4,.5,2,3,5.5.5-.5,1,1,1v1.5l1.5.5v1l3.5,1,1,4,1.5.5-1.5,2.5-1.5-.5v1.5l-1.5-1.5-2,1,.5,1-5.5-.5.5,3.5-1.5,1.5,1,.5,1,2.5,2,1.5v2l-1.5,1.5-2-1.5-2.5,3-3,1.5,1.5,5.5-2.5,2-.5,2-5-1-2,2-3,.5,1-2.5-3.5-1.5v-2.5l1-3-.5-2.5,3,.5v-5l-3-2-.5,1h-3l.5-3-.5-1.5,3-.5-.5-1v-3.5l-1.5-.5-2.5,1.5-2.5-.5.5-4-5-6,.5-5.5-6,.5-.5-1.5-.5-3.5"/>
      <path data-code="sajanskij_rajon" data-title="sajanskij rajon" class="cls-1" d="M385.62,1843.63l2.5-2.5-1-2.5,1-1.5h1l1.5-2.5-1-1.5h-1l-1-3.5,8.5,2.5-.5,1.5,1,1,.5,2,3-1.5v-5.5h1l2-3,1.5-1-.5-.5,1-2-.5-2.5h.5l-1-2.5.5-2.5.5-1-1-2-.5-1.5,4.5-1,2-2,5,1,.5-2,3-2,1,2.5-1,4.5h1.5v2.5h1v3l5,2,.5-2,1,4,2.5.5,1.5,2.5h-2l1,2-1.5,4,.5,1.5h2l-2,2.5,3.5,4-.5,8.5,3.5,6.5,1,4.5,4.5,6.5,7,7v3l1,2,2.5.5.5,1.5-1,2.5-1.5,1h-2l-3,2,.5,1.5,1.5,2-3,1-1,1.5.5,1.5-1.5,2v2.5l-.5.5,1,2-3,2.5-2-3h-1.5l-1,1.5-3.5-4-3.5-1.5h-3l-1.5,2-3-.5-1.5,1.5-1-1.5-3.5-.5v-.5l.5-1.5-2-1.5-.5-1.5-2-.5-2.5-3,2.5-3h1.5v-3.5l.5-.5-1-2,1-3v-1l-2,.5-6-8,2-4.5-1-3-2,.5-2-2-6.5-2.5v-3l-2-1.5v-2l1-3-.5-.5-1-.5-1.5,2-5-.5-.5-2"/>
      <path data-code="severo-enisejskij_rajon" data-title="severo-enisejskij rajon" class="cls-1" d="M288.62,1495.12l2-4-.5-1,2.5-3.5v-2l2.5-1.5,2-3.5-.5-1.5,2-2.5-.5-2,2-4.5-.5-.5.5-1-.5-2.5h1l.5-1.5,2,1,1.5-1.5v-2l-1-.5,2-.5,1.5-4,2.5-2-1-3.5,3.5-2,1-3,1.5-1v-.5l.5-1,1.5-.5,4-4.5,2.5-1.5v-4l1.5-2-.5-1,2-1.5-.5-1.5.5-.5,6,1,2-2-1-1v-.5l.5-.5-.5-.5v-1.5l-1-4,1-1-1-1.5,1.5-2.5,1-1,2.5.5,2.5,3.5,2,1,2.5,3,4.5,1.5-1-2,1.5-.5-.5-1,1-.5-1.5-1v-2l-.5-1.5-3-2,1.5-1-6-4.5v-1.5h2.5l4-3,3.5,2,2.5-2,5,3-.5,1.5.5,1.5-.5,1v1.5l5.5,7.5.5,2.5,4,1.5,3.5-1.5,5,4.5,6.5-1.5,1.5,2v2l1.5,3,.5-1,2-1.5-.5-1.5,1.5-1v-2l3-1.5,1-2.5h4.5l5.5-4,3,2,2.5-.5.5,1h1.5l1,1.5,2-.5,1.5,2,6,.5.5.5v1l1,.5,3,5,3,2.5-1,1,.5,1,1.5.5,1,4v2.5l1,1-3,5h2l2,1.5,1,2v.5l-1.5,1-1.5,2.5-2,2-.5,2.5-2.5,1,.5,1.5-1,3,2,1.5.5,2-1,2.5-4-.5-3,2-1,2v1.5l-1.5,1,.5,1-1,1-1,4.5,1,2,2,.5-1.5,2.5.5,2.5-.5,1,3,3,.5,2-2.5,2.5.5,1.5v1.5l1,1.5.5,3.5,2,2v2.5l1.5,1.5v1.5l-1,.5v1.5l1,1.5-.5,1v.5l2,1-.5,1,.5,1v1l1,.5v1l-2,1h1.5l-1,1.5.5.5-2.5,2,.5,1-3,1-1,2h-1.5l-1,2v1l-6,3,.5,1.5-1,1.5v1.5h-1l-.5,1-.5,4.5h-1.5l-.5,1.5-1-1.5-5.5-1.5.5-1h-3l-.5-.5.5-1.5-2.5-.5.5,1-1,.5-1-1-1,1-1.5-.5-1,1,.5.5v.5l3,3.5v2.5l1,1-1.5,1,.5,1.5-1.5-.5-1.5,8-2,2-1.5,5-3,1.5.5,4-.5.5-4.5,2.5-3.5-.5v3l-1,1.5-5.5,3-2-1-1,2h-1l-1.5-.5-.5-1.5h-2l-1.5,5.5v2l-2,1-1,4-1,1,.5,1-1.5,2-1.5-.5-2,3.5h-1l-1.5-4.5-1.5-1-.5-5.5-1.5-6-1.5,1-.5,1.5-2,.5-3-2-1.5,1.5-3.5.5-5.5-.5-2-1-4.5-18.5-.5-4.5-.5-8.5-1.5-6-1.5-2-8-8-5.5-3.5-7.5-13.5-4-9,.5-.5,1-3.5-1.5-3,1-2-.5-.5,1-4.5-2.5-4-2-1"/>
      <path data-code="sharypovo" class="cls-1" d="M197.62,1797.13l1.5-1.5,1.5.5-1,1.5-2-.5M200.62,1802.63h.5v-1.5h1l2,2-1,1.5-2.5-2M190.62,1811.13l1-.5,1,.5-.5,2h-1l.5-1-1-1"/>
      <path data-code="sharypovskij_rajon" data-title="sharypovskij rajon" class="cls-1" d="M190.62,1811.13l1,1-.5,1h1l.5-2h-2M200.62,1802.63l2.5,2,1-1.5-2-2h-1v1.5h-.5M197.62,1797.13l2,.5,1-1.5-1.5-.5-1.5,1.5M180.62,1809.13l.5-2,2-1.5-.5-1.5,1-1,5.5-5,1.5-2,1.5-.5,1-2,3-1,1,.5,1-1.5,3,.5,2-3h2l1.5-1.5,3-.5-.5-.5v-2.5l.5-1.5,2-.5-.5-1,1-1h-1l-.5-1.5-.5,1-.5-1.5h-2v-1.5l-.5-1,.5-.5,5.5-1,2-2h1.5l3-2.5-.5,1,1.5,1.5-1,.5.5,4.5,2.5-.5-1,3.5,1,2h3.5l-.5,1,1.5.5-1,3,1.5.5.5,1-1,.5.5,1-6.5-.5.5,2h1.5-2.5l.5,1h1l.5,2-2.5,1.5-.5,2-2.5,1,2.5,6.5v-.5l-.5.5-.5,3.5-2,2-3-.5h-1.5l-.5,1.5-3.5,1,1,1,.5,3,.5.5,2.5-4.5h2v3l1.5.5v2l-.5,3,.5,4.5h-4v1l2,4.5h1l-.5,2,.5,2-1.5,1.5h-4v3l.5.5-2.5-.5-.5-1.5-3.5-.5v-3.5l-1-1.5-6.5-1,2.5-4-4-4,.5-6-1.5-.5v-1h-2.5l-1-2,.5-1.5-3-1.5-2,1v-3h-5M181.12,1817.13h.5l.5,1h-.5l-.5-1M179.62,1811.63v-.5l.5,1h-.5v-.5"/>
      <path data-code="shushenskij_rajon" data-title="shushenskij rajon" class="cls-1" d="M239.12,2039.63l3-4.5.5-2.5,3-2,2-3,1-2.5-.5-2,1-2,7-9,9-2h3l1.5,1.5v-1.5h1.5v-5l2.5-1.5-.5-3,2.5-3.5,2-1.5.5-2.5,2-.5-.5-2.5,1.5-4.5-2-3-1-3.5,1.5-3.5,1.5-1.5,4,1.5,5.5-2.5,4.5-8.5,3.5-3.5-1-2,.5-1-.5-2.5h-1v-2l-1.5-.5v-.5l1.71-.97,2.29-1.03,2.5.5.5-.5-.5-1,3.5-1.5,1.5,5,3-2.36,6-2,.5.86,1.5-.5v2.5h3.5l.5,6-2.5-.5v1.5l-2,1.5-6,1-1.5-2,3-1.5-4-.5,2-1.5-2-.5-1,1-.5,2.5-1,.5h2v1h.5l.5.5-2,.5-.5,2v2l1,.5.5,2-2,4,1,.5-5.5,3,1,4v4l4.5,1-.5,1.5,2.5,3.5-.5,2-1,.5v4l3.5,1,.5,1,2.5,1.5,1.5,2v2l1.5,1.5v2l-2.5,5.5-2.5,1.5-2,2.5-2.5,1v3l1.5,2.5v2.5l-5.5,2.5-1.5,3.5.5,2.5-1,1,1.5,2.5-.5.5-7.5,2.5-2-2h-2l-3.5,1.5-1-.5-.5,1-1.5-1.5-1,.5-1.5-1-2,1.5v1.5h-1.5l-4.5,2.5v1.5l-2.5,3.5-.5,3.5h-1l-1,2-1.5.5-1-1-2.5,2-.5-1-2.5,3.5-6,1-2.5,2-1-5-2.5-3,.5-2-.5-2-1.5-1.5-3-.5-3-2.5-2.5-5"/>
      <path data-code="sosnovoborsk" class="cls-1" d="M355.62,1768.63l1.5-2.5,2,1.5-2,2-1.5-1"/>
      <path data-code="sukhobuzimskij_rajon" data-title="sukhobuzimskij rajon" class="cls-1" d="M332.62,1735.12l.5-1,1.5-1,1-3.5,1,1,4-.5-.5,1,1.5.5v-1.5h1l.5-1.5,1-2,4.5.5,2,2.5h9l1-.5-.5-4.5-2-3,3-2h4.5l6-3.5,2.5,1,9-4,5-1,3,1,.5,4.5,2,2.5,2-.5,4,4,.5,3h1.5l-.5,6h4l-.5,8-5,7-4,2.5-4,9-3.5,3-3,1-1.5-1.5v-5l-3-2.5v-2l-3.5.5-.5,2.5-3.5.5-2-2v-1l3.5-.5-.5-1.5.5-.5h-2l.5-1-9.5,1.5-1.5-1-3.5,1.5-1,1.5-.5,2-9.5,1.5v-4l-2-.5-1-2h-2l-1-1.5h-2l-.5-4,1.5-3.5-2-2-1,.5-4-2-1-2"/>
      <path data-code="tajmyrskij_dolgano-neneckij_rajon" data-title="tajmyrskij dolgano-neneckij rajon" class="cls-1" d="M214.13,919.43l-.15-3.01,6.15.47.11,1.69-6.1.85M213.12,835.62l2-7,17-2,9-9.5,7,2.5-3.5,15-8,7.5-23.5-6.5M474.12,314.12l2,.5,1.5-1v1.5l-.5,1,1,1-1,2.5-.5-.5v-1.5l-1-.5v-.5l-2.5-1.5-1.5,1,.5-.5-1-1-2-1,1.5-2,.5,1v1.5l1.5,1,1.5-1M741.62,291.12l1-1.5,1.5,1h-1l-1.5.5M741.62,291.12l-.5.5.5-.5M431.62,321.12l.5-.5h.5l-1,.5M413.12,321.12h.5l2,.5-2,.5-.5-1M407.12,319.12l.5-.5.5.5h-1M412.12,320.62h.5v.5l-.5-.5M430.62,321.62v-.5.5M424.12,322.62v-.5l.5.5h-.5M479.62,321.62l1-.5v1h-.5l-.5-.5M427.12,324.12l-1,.5v-.5l-.5-1,1-.5v1h1.5l-1,.5M434.12,323.62l.5.5v1l-3.5-1.5,1-1.5h2.5l-.5,1.5M439.62,324.62l-1,.5,1,1h-4l1.5-1.5v-1.5l.5-.5,2,.5-.5,1,.5.5M468.62,328.12l1.5,2.5h2l-1.5,1.5-1.5-1.5-3.5,1,.5-2h1.5v-1.5l1-1-3.5-2.5,3-1-1.5-1,1.5-.5v-1.5l-7-.5,11-2v2.5l-2-1-1.5,2.5-.5.5.5.5-.5,1.5.5,1.5,2,.5-2,.5v1M408.12,324.62l-1.5-.5-1.5-2.5.5-.5,2.5,2v1.5M443.12,311.62l-3.5.5-2.5-1.5h-2.5l7-2.5,3.5,1.5v1l-2,1M434.12,311.62l1,.5-2.5,1.5-1-1,2.5-1M467.62,313.62l-1,1-1.5-.5.5-1.5,2-.5,1.5,1.5h-1.5M456.62,313.62l-.5.5-1-1.5h-2l1-1,2,.5h.5v1.5M459.62,313.12h1.5l-1.5.5v-.5M672.12,261.12l.5-1,.5.5-1,1v-.5M674.62,266.12h.5l-4.5,4.5-5,.5,2-1,.5-1,1.5.5,1-2-2.5-1-1.5.5v-2.5l1-.5v-1l1-1,3.5,1.5,1.5-.5.5-1.5,1,1,.5,1-1.5,2,.5.5M656.62,258.62l-2,.5.5,1-.5,1.5-4.5.5,1.5-2v-1.5l1.5-1v-1l1-1.5,1-.5,1.5,1.5,1.5-.5-1.5,3M670.12,257.62h.5l.5.5-.5.5-.5-1M562.12,270.62l2-.5-1,1.5-3,1,2-2M423.12,304.62l5.5-4.5,10-4,7.5-6h1.5l2,3.5-2,4-2.5,3-.5,1.5h-1l-1,2.5-2.5-1.5-1,2,.5.5-4,1,1,1v1.5l-3,.5.5-1h-2.5l.5-.5v-1l1.5-.5.5-2,2,.5,2-2.5-1-.5-6,2.5v.5l1,.5v.5l-4.5-2-4.5.5M477.62,308.12l.5-.5.5.5h-1M474.62,309.12l.5-1,.5.5-.5.5h-.5M522.62,289.62h-.5l-.5-.5h1.5l-.5.5M489.62,310.12l.5-.5v1l-.5-.5M432.62,315.62l.5-.5v.5h-.5M411.62,324.12l1.5-.5.5.5-.5,1h-2l.5-1M449.12,326.12l.5-.5h.5l-.5.5h-.5M430.12,329.12h-3l-.5-.5.5-.5-1-1.5,3-1.5-.5,1,2,2,1-.5v-2l3.5,1-3,2.5h-2M405.12,327.62l1-.5-1-1v-1h3l-1,1.5v.5l-2,.5M472.62,326.12h.5-.5M758.62,293.62h1-1M442.12,331.62l-1-1-2,1,.5-1-1-.5-2.5,2.5-.5-.5,1.5-2-1-.5-.5-1,2.5-1,2,1,1.5-2-.5-1,1-1,5.5,1-1.5,1.5-2.5,1,.5,1,1,.5-2.5,3,1.5,1.5-2.5,1-.5-.5.5-1h-.5l1.5-1-.5-.5v-.5M409.62,332.62l.5-1v.5l-.5.5M427.62,333.12l.5-.5,1,.5-.5.5-1-.5M417.62,333.62l1-1.5.5.5-1,1.5-.5-.5M404.62,335.12h-1l-1.5-1-3,.5-1-1.5-2.5.5-.5-1,1-1,9.5,3-1,.5M413.62,328.62l3-.5,1.5-1.5,1.5.5v-.5l.5-1v-1l2,2,.5.5-.5,1,3.5.5-1.5,1.5h-8l-1,1-1.5-1v-1.5M435.62,327.62h.5-.5M412.62,328.12l-1,1.5-5.5,1-3-1,1-2,3.5,2,5-1.5M396.62,329.12l.5-.5v1l-.5-.5M782.62,502.62h2l.5,1h2l.5,1,1.5-.5-.5,1.5,1-.5v1.5l1,.5,1.5-.5-1.5,1.5h-1l.5,1-3.5,3h-3l-.5,1-1,.5v1h.5l.5,1-3.5,3.5-.5,1.5.5,2h-3l-6,3.5-2.5-.5-.5.5,1,.5-.5,1,1,.5,2-.5.5,1h2.5l.5,1.5.5-.5-.5-.5,1.5-.5.5,1h2l-.5,1,1,.5-.5,1,2.5,1.5-.5,2-5,4,.5,1-.5,1,1,.5v.5l11-2.5-.5,2h.5l-.5,1.5-1.5,1,3.5,3-1,2.5-2,.5h.5l-.5,1h.5l-1.5,1.5,1.5,1-1,1.5,1.5.5-1-1,.5-.5,1,1v-1l4,.5-2.5,2,.5.5-4,2.5.5.5v1h.5l-.5,1,2.5,1v1.5h1l-2,1.5,1,1.5-.5,1,1,1.5.5,1.5.5,1.5v.5l1.5,2,3.5.5-.5,2,1.5.5-1,1v.5h7.5l1.5,1.5.5.5,1.5.5v2l-3,3-3,1v1.5l2,.5-1.5,2,1.5,1.5,6,.5v1l1,.5,5.5-1.5,2,1.5v1l1.5,1.5-2,2.5.5,1,2.5-1,.5.5-.5,1.5,1,2,2-.5,2,2h3.5l9,50,6,.5,3,2,1.5,2,2,.5,1,1.5,3-2,3.5,2.5-1,4-3,2.5v1.5l2.5,2.5-2,.5-.5,2.5-3,.5-1.5,2v3.5l-1.5-.5-3-3-1.5.5-.5,2v2l-1,2-1.5.5-1.5,1.5-1.5-1-2.5,3-3.5,1.5-.5,3.5-1.5,1.5-7.5,2.5-4.5,5.5-2.5-1-3,1.5-2.5,2-.5,2,1,1.5-4.5,2-.5,1,.5,1-4.5,3,1,2-1,1.5,2,3-1.5,1.5,1,1.5.5,1.5,2.5,2h2.5l.5.5v1.5l-4,.5-2,1.5-1.5-1-1.5,1.5-7.5,3-2,1.5,1.5,1.5-.5.5,1.5,2.5-1,2.5-3,3-3.5,1,.5,2v2l2,1,.5,4,2.5,2,1.5-.5,1.5,1v2.5l-3,2.5.5,2.5-.5,1.5,1,1-.5,1.5.5,3.5-1.5.5.5,1-.5,2-2.5,2h-7l-1-2.5.5-1.5-1-1-5.5,2-11.5-.5-.5.5v1.5l-1.5,1.5-.5,2h-2.5l1,1.5-1.5,1.5,1,1.5v2l-1.5,2-3-.5-5.5,2.5-18.5,12-6,.5-1-2.5-3-.5-1,.5-1,2.5h-2l-1,1.5-3.5-1.5-2,.5v.5l.5,1.5-.5.5-5.5,1-2,1.5,2,2-.5,2,.5,1-3,2.5-.5,1-4,2-3-1-1,2-2,.5-1.5-2v-2.5l-.5-1.5-7,.5-4-1.5-6,1.5-4-.5-2,1,1.5,3-1,2v2l-2.5,1.5-4-2-2.5,1.5.5.5-.5.5-1.5,1,.5.5-.5,1.5-1.5,1-5-.5-4.5-3.5.5-1.5-.5-2-1.5-.5-3.5,1.5-5-.5-5,4v1l-5-.5-3-2-13-4-1.5-1,2-2v-1.5l-2-.5-1-1v-.5l-4-3-3-.5h-4.5l-1.5,2.5h-3l-.5,1-5.5-2.5-8.5-.5-3-2h-2.5l-1,1-.5,2v.5l-2,1.5-1,2-2,1-1.5-1.5-1.5-3.5-1-1.5,2-2v-1.5l-1-1.5v-2.5l-3.5-1.5,1-2v-1l-1.5-.5-2-2-7.5-2.5-2.5,1-2-.5v-1.5l-1,1-.5-1.5-4-.5-5,1.5.5,1-1,1.5,1,1,1.5-.5v1l-3,3,1.5,2.5v1.5l-2.5,1.5-3.5-1.5-9,1-2-1-4.5,1.5-8.5-5-2.5,2-2.5-.5-2,2-2,4.5-3,2.5-8-1.5-1.5,1.5-4.5,1,.5,2.5-1,1.5.5.5-2.5,2.5-3,1.5-6-1.5-2.5,1-1,1.5v2l-2,2.5-4.5.5-2.5,4-6.5,3.5.5,1.5-16.5,3.5-8.5,7.5.5,4-2,.5-5,3,1.5,2,.5,2v1.5l2,1,.5,1.5-1.5,1.5-7,1v2.5l-1.5,2v2l-1.5.5v1l-1.5,1.5-1.5.5.5,2-2,.5-1,4.5-2,1-.5,1.5-2,2v2l-1.5,2,3.5,7-2,2.5-.5,4-4.5,1-9-4.5-10.5-2.5-7,2-1.5,1.5-1,3.5-4.5,4.5-1,4.5.5,2.5-2.5,4-3.5,4.5-9,6.5-9.5,9.5-.5,1-.5,4.5-2,3-1,3.5h-.5v.5l-1.5,2h.5l-.5,1-3,2-2,3.5-2.5,1.5-3,3.5-1-.5-2,.5v-1l-1-1-2-.5-1.5,1.5-2.5.5-1.5,2.5-4-.5-6,3-15.5-7.5-10.5,2-3.5,2-6.5-8-3.5,3v3l-1.5,3-1.5.5h-5l-4.5-3h-2l-2.5,2-5.5-2.5-2,.5-1.5-.5-3.5,1.5-1-1.5v-2h-3l-3,5-11-1-1.5-2.5-14-20-5.5-33-3-.5-16,1.5-5,2,.5,1-.5,1,.5,2.5-1,1,.5,2.5-1.5,1-3-1-1,2-1,1-.5.5-1.5,3,1,.5-4,1-1,2v1h-1v1l-1.5,1.5h-2v1l2,1,.5,2.5,3,1v1l-1,1,.5,1-1.5,2-1,1-2-1.5v.5l.5.5-3.5,2.5-1-.5-.5.5,1.5,1-2.5,2.5-1,1.5v1.5h-2l-1.5,1,1.5,2.5,6.5,1.5-3,1v1l-1-.5-.5,1,.5,1-.5,1-3,1-.5,1.5-2,.5v.5h-2.5l-2-1.5.5-1.5-.5-1v-1.5l-.5-.5.5-1h-1l.5-1-2-1.5.5-.5-2.5.5-2-1v-2.5l-1-3.5h1v-1.5h.5l-.5-1.5h.5v-1.5l-4.5-.5-.5-2.5.5-1.5-2-1.5,1-1.5-1.5-1,.5-1-2.5-2v1.5l-1.5-.5.5.5-.5.5-3-2-2,1.5h-1l1-1.5-.5-1.5h1l-.5-.5,1-1-1-.5.5-.5-.5-1,.5-1.5-1.5-3,.5-1-1-.5-1.5-2.5h-2l-2.5-2.5,1.5-2.5.5-1.5-1-.5-1.5,1-1.5-1,1-3-.5-1.5,1-1-2,.5-1.5-1.5-1,2.5-1-2-2.5,1,1-2-1-1.5.5-1,2.5.5-.5-1.5,3-.5.5-1.5,1.5-.5,1-2-2.5-5h-3l.5-1.5v-.5l1-1.5v-2l-.5-1-2-.5-4-3.5v-1.5l-5-5.5.5-4.5-1-5,.5-3,2-2,4-1,1-1.5v-1.5l-1-5.5-5.5-5v-5.5l-.5-5-1.5-3.5-2-1-.5-2,1.5-1.5h3l-.5-1,1.5-1-1.5-.5,1-2.5-2-1.5-1.5-.5-2,1-3-.5-3-3-4.5-1-1-3,.5-1,4.5-4,.5-2-3-6-2.5-2-2,2.5-.5,3-1,2.5,1.5,1.5-3,2.5-4,1-2.5-3-3,1.5-1,1.5-1.5-.5-5,2-1-.5v-1.5l-.5-.5h1l-1.5-.5-.5-2-1.5-.5v-3.5l-3.5.5-2-1.5-.5,1-1-1.5-1.5.5v-1h-2l-2.5-3.5-3.5,1,.5-1.5-1.5,1-1-1h-2l-.5,1-1-1.5-2,.5v-1h1l-2-2.5,1-2-3.5-.5,1-1-2-1.5,1-1-1.5-1,1.5-1.5-1-2,.5-1-.5-1v-2l-2.5-1.5,2-1-1.5-1,.5-1.5-2,.5-.5-1h-1.5l-.5-2.5-4-.5-.5-1.5-1.5.5,4-2.5-2-1v-1l1.5-1.5-3-2,1.5-1.5-3-2v-1l-.5-1h2.5l2-1,.5-2,1.5.5,1.5-1-.5-1,.5-.5h1l-1-1.5.5-1-1.5.5,2-1.5,1.5,1-.5-1.5.5-2,3,.5v1l1,.5v-2l-1-1.5,1-1-.5-2,.5-1h2.5l.5,1-1.5.5,3.5,1.5,3.5-4.5,1-3,3,.5-1-2,1-1h1.5l2,1.5,3.5-4,3-.5.5-1.5-1-1,.5-1,1.5,1.5,1.5-1v-2.5l.5-.5,2.5,1,1-1.5,1.5-.5,5,1,1.5,3-1.5,1,2.5,2h2l.5-1-1-1h1.5l1.5-1.5-1-.5-1,1h-.5l.5-1h-2l-.5-1.5v-1.5l-1.5-1,2.5-1.5v-1l1-1-1-.5,1-.5-.5-1,1,.5v-.5l1-1v-2l.5.5v-.5l.5-1-1-2.5-2-1v-.5l-.5-1v-1l.5-1.5,2-3.5v-1l.5-.5-1.5-2,.5-15-13.5-7.5-12-14.5-5-2-.5-1.5-.5-4,5.5-4.5,2-4.5-1-3,.5-1.5,2-1,2.5,1.5,1-.5,4,.5,2.5,2.5,2.5-2,1.5,1,.5-1-.5-.5,1.5-.5v-1h.5l-.5-.5,1,1,3.5-2.5-1.5-1,1-.5-.5-.5.5-1h-1l1-.5-1.5-1.5h2l-.5-1v-1.5h-.5l1-.5-2-.5.5-.5-.5-.5,1-.5-1-.5,1.5.5-.5-1,2,.5,1-1-.5-.5.5-.5.5,1,2-.5-1,.5.5.5,1-.5v-1l1,1,1-1-3-2.5,1-.5-.5-.5h.5v-1l-2-.5.5,1h-.5l-1-1.5-1.5-.5,1-.5-.5-1h-1l.5-1-3.5-1.5v1l-.5.5-.5-1.5,1-1.5-2.5-1,.5-1-3-1.5-3.5,1-.5-1-3,.5.5-1.5-1,.5v-1l-2-.5.5-.5h-1.5l-.5-1-2,1v-1l-1-.5-.5,1v-1.5l-1-1h1v-.5l-1.5.5.5-1.5-.5-.5-2,.5v-1l.5-.5-3-1v-1.5l-1,.5,1-1h-1.5v-1.5l-1.5.5v-.5l.5-1-2-.5v-.5l2.5-.5v-1l-1-.5,1.5-.5-1-1,.5-1.5v-1l-3-1-1-3,3-2.5,17,4,6.5,3,9,11.5,19,12-.5,1v5.5l8.5,11.5v3.5l1.5,3,7,5,5,1,9.5.5,11-2.5,4.5-.5,1.5.5.5,2.5h.5l4.5,1,2,2,4.5-2,.5-2.5-.5-3-5-4-10-4-1.5.5v1.5l-1-1-1-6.5-1-3-6-6.5.5-1,2-.5,1-3.5-.5-3-1.5-3-10-6.5-14.5-4.5.5-.5-2-1-2-3-2.5-1-1-2.5v-1.5l-1.5-2.5,1-2h1.5l-.5-1.5,2-2-.5-1.5-3-1.5v-4.5l.5-1.5-.5-1,4-3.5,1-4,1-2v-2l1-1v-2l-1.5-4,1-1-.5-1-6-4.5,2.5-.5,1-1v-1.5l-5.5-2.5.5-.5-.5-1-1.5.5-.5-.5,2.5-1,2.5,1,2.5-.5-2.5-2v-.5l4.5,3v-3h-.5l-.5-2-6-3.5,2-1.5v-2l.5-.5,3.5.5-1-2,3-.5.5-1v-3.5l2-.5-2-1.5-.5.5v1l-.5.5-1.5-1,1-1.5-2.5-1.5-1.5.5,1.5,1v1l-3-1-3.5-3.5,1.5.5,1.5-1.5,5,3,1.5-1-.5-1.5v-.5l1.5-.5-1-.5,2,1h2.5l3.5,2.5.5-1v-.5h4.5l-1-1,6,2,1.5-1,.5-1,11.5-1,11,.5,26.5,4,22-2,7.5-2.5,3.5,1,2.5,3,3,1,5,.5,3-1v-.5l-.5-.5v-1.5l2-3,5-1,2.5.5,5.5-2.5,9-.5h1l.5,1,4.5-1.5,1,1,2-.5.5,1.5,5,2-.5,1.5h.5l-.5,1.5-.5.5v.5l-.5-.5-1,1v2l-1,1-6,1.5,1.5.5-1,1.5v.5l2-2h1.5l-3,3.5v2.5l-4.5,1.5-4.5-.5,1-1.5h3l-3-1v-.5l7-1-1.5-1,.5-.5-.5-.5-4.5,1-1.5,1.5-2,2.5-4.5,1-3,3-5.5,3-.5,2-1,4.5-1.5-1-1.5.5,1.5,3h.5l2,2.5.5,2,9,3.5.5,1.5-1.5.5.5,2.5,6.5,3.5.5-.5-3.5-2.5-1-4.5-6.5-3-5-5-.5-2,1.5-1.5,1.5-.5v-1l-1.5-.5v-2.5l3-2,4-1,1-1.5-.5-.5v-1l14,.5,4.5-2.5,4.5.5,3.5-4-.5-.5,1-3.5,2.5-1,1-1.5v-1.5l-5-6-1-2.5.5-2-1.5-3-5.5-3-.5.5,1.5,1.5h-2.5v-.5l-.5-1,.5-.5-1-1v-1.5h4l.5.5v1l3.5-1.5,3,.5-1.5-1.5h-5l-2-1v-1l1.5-1-3.5-2,2-3v-2l-1-2-2.5-2h-3.5l-2-2.5-6.5-.5-2.5-1.5-1-2,.5-2,1.5-2.5h3l1.5,1v.5l.5,1,3,2.5v-2.5l-1-1.5v-1l-5-2h3.5l1-1,1,1,1-.5-.5-1,1.5-1,1,1,.5-.5v-.5l3,.5,3,3.5-1.5,1.5h7l-.5,1.5.5.5v.5l-2.5,2,3-.5-1,2,1,1.5-1,1,.5.5,2-1-.5-1.5.5-.5-1-2v-1.5l.5-1,2,.5-2-2,1.5-1.5h-6.5l-1-.5,1-1v-.5h-2.5l1-2-2-2h-1.5l.5-1,4-1.5v-.5l-4.5-.5-1-.5v-1l-3-1,.5-1.5h-4.5,1l-1-1h-3l-1-1.5-.5,1.5-1.5-1-1,1,.5.5h-2.5l2.5-1-3.5-3h2.5l1.5-1.5-1-1.5h.5l-.5-1,2.5-1,2,1.5v-1l2-1.5-.5-1,1,.5,1-1-4-2.5-2.5,1-3-.5v-1l1.5-.5v-1l.5-1.5v-1l2-.5.5.5-.5,1.5,1,.5,4,1-.5,2,1,1,1.5-1.5-.5-.5.5-.5.5,1-.5.5,3,2,1.5,2.5-3.5-1.5-.5,1,1.5,1.5v2l1.5-1.5h2l1.5.5-.5,1,.5.5,2-.5-.5,1,.5,1-1.5,1,3,1-1,1-.5,2h4.5v-.5l-.5-1,.5-1v-.5l2-.5-4-.5.5-1-1.5-1,1.5-.5v-1l1.5-.5-.5-.5,1-1,3.5,2.5v-1.5l2-1.5h-2l.5-2v-2.5l1-1v-.5h2l-.5-1,6-4.5h-2.5l-2-3,1.5-1.5h4l1,1v1.5l-2,1,2.5.5,1,1.5,1-.5-.5-1,1-1.5,2,.5,1-1-.5-2v-1.5l-6-1-1,1-7-4.5h-3l1,1.5-1-1-.5-2,2-2,5-1,14.5,4h4l6.5-2.5-1-.5.5-.5h-.5l-3,.5-1-1h1l.5-1.5v-1l3.5.5,4-5,1.5.5.5-1-.5-.5,1-1.5,6-3.5v-1.5l-2,.5-.5-1,7-2.5,2,.5.5-.5v-1.5l2.5-2,.5-.5v-.5l2,1,1-1,1,.5.5,1.5-3-1-1.5,2,3.5,1-1.5,1v1l1.5.5,2.5-2,.5,1,3.5,1-2-2.5v-1l5-1.5,2,.5,1-1-2-2.5,4-1,1.5-2.5,1.5,1.5,9-1,.5-1v-1.5h3l2-2,1,.5-1,1,.5,1.5v.5l1,1,3.5-3.5,2-1-1,2.5,2.5,1,4-2,1,1,3,.5-.5-1,.5-1-1-2,1.5-1v-1.5l.5-.5v-.5l3-1.5-2.5,1v1l2,.5-1,1,.5.5,4-1.5v-.5l.5,1v1l1,.5,2.5-2.5h5l2.5-3,3,1,7.5-1.5,2.5-2,4,.5,9-4h2l4.5-2.5-2-.5-6,2.5-1-1v-2l-.5-1.5-1.5,2.5,1,2-.5,1-1.5-.5-3-4-2-.5,1-.5,1-2-.5-.5h-.5l-.5,1.5-3,.5v1l-2,.5,3,2.5-5.5.5h-1l1-1.5.5-1-1-.5.5-1.5-.5-.5-1-.5,3.5-2-.5-1v-1h-1l1.5-1-1.5-1.5,3.5-.5v.5l-1,2,2,1.5,3.5-3-1.5-1,2-.5v-1l-3-.5,2-1.5h.5l-.5.5.5,1,3-1.5,1.5,1.5-3.5,2,2,.5.5,1.5-1,1.5,2,.5,1.5-2-.5-.5v-1l1.5,1,2-.5-.5-1,.5-.5,2,2,4.5-.5-2.5-1-.5-1.5-3.5-.5v-.5l-.5-.5.5-.5h7.5l1-1.5,1,2.5,5.5-1.5-.5,1.5,2,.5v.5l-.5,1,.5.5,1.5-1,2.5.5-1.5-2,3-.5,1-1.5h-4.5l-1-1,1.5-.5h6v1.5h2.5l.5.5-1.5-.5v1.5l2.5,1.5,2.5-2,2.5,1,.5-1.5,2-2.5,5,1.5,2-.5-2.5-1.5,2-1-.5-.5-3,.5-1-1.5-1,1-.5-.5,1-.5-3.5-1-.5-1,1-1-.5-1v-1l.5-.5h4l-1,1.5,2,.5-1,1h1l1.5-1-.5-.5.5-1,4.5-3,.5,1-.5,2.5v.5l2-2h3.5l-.5,4h.5l1.5-1,1-3.5,2-1,7,3.5-.5,2.5-1.5,1,.5,4-2,1v-1l1-2-1-.5,1-2-1.5-1-.5-3-1.5.5v3l2,1-3-.5-1.5.5,2,1,.5,1,1.5,1-.5,2h.5-2l1.5,1.5-2,1,.5-1-.5-1-1.5-.5v-1l-3-.5-1,1.5-2-1-4,.5,4.5,1.5-1,.5,1,1,2-.5,1,1h2l-1.5,1.5-1-1-2.5,1.5,1,1.5h1.5l-2.5,2,.5,1-.5,1-2,.5-5.5,7.5-1.5.5,3,3,2.5-4,2.5-2,.5-1.5,2.5-2,1.5,1.5,1-1,2,.5,1-1h-1.5l1-1v-.5h-2l3-.5,1-2-.5,1h3l-1.5,2h.5l3-.5,1,.5-4.5,7,3.5-.5,1.5-1.5.5.5h2l.5-1.5,2-.5.5-1.5v-1l4-3h-4l-4,2-1.5-1.5,7-5,6-3,.5,1.5-3,3-.5,2,4-.5-2.5,1.5.5,1h-2.5v.5l2,.5-.5.5.5.5-2,2h3l.5-.5-.5-1,1-2,3.5-1.5h1.5l-.5.5,2,1h4l.5-.5-2-2.5v-1l-5-.5,6-4v1.5h2l-1,1,1,1,2-1.5,1,.5h.5v-1.5l2,.5,1.5-1.5-4-1-1,1-2-1.5,2.5-2,1.5.5-.5-1,2-1h1.5l5-2,1-1.5,5.5-4,1,.5-1,.5v1.5l-1,1.5,3.5.5.5-1-.5-.5h2.5l1-1-1,1,6,.5,1,1.5-.5-.5-2,1-.5,1,1,1-2,.5,1.5,1.5h2l1-1.5,1,1,4-2-1.5.5.5,1v.5l4,1,.5,1v2.5h1l1-2.5-2-2.5-.5-2-1.5-1.5-2.5-1.5v-3.5l-4.5-1.5v-2l-2.5-2.5-4,.5-2-4.5-3.5-3.5v-1.5l2-2,9.5,3.5h7l7.5-2.5,7,.5,7-2.5,4.5-4h1.5l1.5-4.5v-5.5l4,1,1.5-1.5-5.5-5-2.5.5-2.5-4-1-3.5,2-5,.5-1-.5-1.5h2.5l.5,2v1l2-.5-.5-2,1-3-.5-1.5,1-1.5-1.5-.5,2-4.5,6.5-9.5,4-4,2-4,5,1.5v-1.5l-1,.5-.5-1,3-2.5v-.5l-2,.5,2.5-1.5,2-4.5,2-2.5,4.5-2.5,2.5-2-1-1.5,6.5-5,2.5,2,4.5-2,1.5,1,1.5-1-1-1,2-2.5v-1l1.5-.5v-.5l2.5-2,1,1,2-1.5,2.5,2.5,2-.5-3.5,1.5,1.5.5-.5.5h.5l6.5-3,1.5.5,1.5.5-.5,2,1,1-1,.5,1,1.5,11,3,11-2-1,.5,1.5,2,.5,1-.5.5,1,.5-.5,1.5,2.5,2.5-.5,1,4,2,2,.5-.5,1,1,1-10-.5.5,1-4.5,6-.5.5,1,.5-1,1.5,2.5-1-.5,1-1.5,1-2-.5-2,2.5-8,4-2.5-.5-3.5,1-1.5,2.5-2.5-.5-4,3,.5.5,2.5.5,7-1,.5-1-.5-.5,1-.5,3,3h3.5l2-3,4,1.5,5-3,3.5.5,2-3.5.5.5-1,2,.5,1.5v1l-2.5,1.5,1,1.5-5.5,1-1.5,1,1,1,.5-1-1,1.5,1,1v-1l2,.5,3-1.5h2.5l5.5-6,6,1,1,2h1l.5-1.5,1.5,2,1.5-.5v-.5h-1v-1l1.5-1-.5-.5,2.5-1,1.5.5,1,2,2-1v1l-1.5,1,.5.5,5.5-2.5-1,2h1.5l1,1-1,.5.5,1,1.5,1,3,.5-.5,1-5,1.5v.5l3.5,1-4,2.5,2.5-.5-1.5,3-3,.5-.5,2.5.5,1-2,1-.5,1.5-3,.5.5,1.5v.5l1,.5v1l-1,1,.5,1.5-.5.5.5.5-1,1,.5.5-.5,1,.5.5-1.5,2.5-1,.5v-2l-2-2-2.5,1.5,1.5,1.5v3l1.5,1h4.5l1-1,.5,2,1,1,1-.5-.5-1.5h-.5l1-1.5h3.5l5-2v-1h2.5l4,1.5,2-.5,3.5-3,1.5-2.5v-5l-1.5-1v-3l-1-2,1.5-1h4l2-1h1l-1.5,1.5h.5v1l1,.5,2-2,4.5,1,11-3,4-3.5,1.5,1.5,1.5-.5,5,2h3.5l12-6.5,2.5-.5-.5,1,.5,1h3l4.5-3-.5-1,1-.5.5-.5h1l1.5.5h1l2,1.5.5,1-3-2.5-3-.5v.5l2.5,1-1.5,3,1.5.5v.5l.5.5,2-1,4,.5,1.5-1.5,2.5,1,2,1-2.5-1-2,3.5,2,.5-1.5,1,.5.5,4-1,5,2.5v1l1,1.5,2,.5,3.5,3.5-1,.5-3,6,.5.5,1-.5,4-6.5,2-.5v-1l-3.5-4h-4.5v-.5l-.5-.5v-1.5l-2.5-.5.5-.5-.5-.5,4-2.5,2,.5.5-1.5-1-.5h4.5l-1.5,1,2,.5.5.5v1l.5.5v1l2,1-1,2.5,3.5-1-.5-1,1.5,1.5v1l-1-.5-1.5,1.5v1.5l3.5,1.5v3.5l-1.5,2,4.5,1.5-1.5,3,1,2.5-.5,1,1,2-4-1.5-.5,1,2,1.5-.5.5,2.5,1,2-2v2l2.5,2.5-.5,1,1,1-2,3h3l2.5-3v-1.5l-1.5-1,1-2,3-1.5-1.5-1.5-3,1-.5-2.5-1.5-1,4.5-1,.5-1.5h-2.5l2.5-1,1.5,1,4,3.5,4,7-1,1.5,2,3v2.5l2,2-2,1.5h2.5l-.5,1h.5l2.5-1-.5-1h-2l2-2,2,2h1.5l1.5,2,.5,2,.5,5.5-1,6v6.5l-1,2.5-1.5,2v1.5l-3,.5-.5-1,3-4.5.5-1-1-2-6-1-6.5,2.5,3-3-2-.5-.5-1-4.5-1-5.5-4h-5.5l2,1,.5,1.5v1.5l4-.5,3.5,1.5,1.5,2v1.5l-2,1,2,.5-.5,1.5,2,.5-.5.5.5,1-1.5,1.5v2l1,1.5,2.5.5,2-1.5v-1.5l-1.5-1v-1.5l5-4.5,2,1.5v1l-.5.5,1.5,1-1.5.5.5,1.5,2,3,4,.5,3.5-1,1.5,3,.5,2.5v1l-2,.5-2,2,3.5-.5.5.5v5.5l-1.5,5-7.5,14-2.5.5,2,.5-2.5,2.5-1,4.5-5.5,5.5h-.5l1-1-9,4.5v1l-.5,2.5-2,5.5.5,1-2,4-.5,2.5-4.5-1.5-4,1-4.5,5.5-.5,1.5-2,3-1,3,.5-1.5h-2.5l-7,6-3.5-1-.5,1,1.5,2-.5,2-3,4.5-4,.5-3,4,1.5,1,.5,3.5v3l-1,2-4,4.5-2.5,4.5-6.5,2-4.5,3.5-4.5,6.5-4.5,12.5-4,5-3,6h-.5l1-2.5h-2.5l-5.5,4.5-4.5-.5-5.5,2.5-2,3v1l-1,1,.5.5-5.5,6.5-1.5,5,.5,3-1,2-3.5,2-8.5-1-3,4-.5,2-.5,4-.5,1,1,2.5-3.5,2.5.5,5,.5,2-2.5,4,2,1v3.5l-1,1h-1l-1-1.5v1.5l-2,.5-2.5,3-2.5,2v1l1.5-1,.5,1.5-.5.5-6,1-3-1.5-6.5,4.5-2,2,1,.5v1.5l-3.5,5-3,2,8-.5,4-5.5,2.5-.5v-1l-2.5.5,2-2.5,3,3,.5-1v-3.5l-2-.5.5-1h9.5l4.5-4.5.5-2.5,1.5-2h1.5l1-1,.5-3.5,1-1.5,3,2,2.5.5.5-1,1,1,.5-1-5-1.5,3.5-.5,5,2-.5-1.5-2.5-.5v-.5l-4-.5v-.5l-.5-1.5v-2l-.5-2-.5-4v-1l-.5-1,2.5-1v-3.5l12,2.5,4-3h8l3-1,7-1,4.5-5,2-1.5h2.5l1.5,1.5,2-1,1-.5v-1l-1-1.5h-2.5l-1.5,1.5v-1l1.5-2.5,14.5-5.5,8-5.5-2-1.5-.5-2.5.5-1,4,2.5.5,1,.5-1.5-3.5-4-2.5,1-1-2.5.5-2h1l6,5.5,7,1,3-2,1.5-3,2.5-.5v-3l.5-.5-1.5,1v-2l4.5-1.5,1.5-1.5-.5-2,2-2h3l1-2,3.5-.5,1.5-2,.5-1.5M513.12,234.12l-.5-1-1,1-1-.5v-1l-3,3-.5-.5.5-1.5-1,.5-.5-1v-1.5l.5-1-2.5-1,4-11,2.5-3,2-4.5,3-2.5v-1.5l2-1.5-1.5-1.5.5-2-1-1,2-.5,1.5-3.5v-1.5l-1.5-.5,2-1-.5-.5v-.5l-.5-1.5,1.5-2,2-1-1-1,1-1-2-.5,1-.5-.5-2.5,1.5-3.5,3-5.5,1-1.5,4,2.5,5,1,1-1-5-2-1.5-1.5v-1l1-.5-2-1v-1.5l1.5-2-.5-.5,1-1.5-.5-1,1.5-5h3.5l5,2.5.5-1-8.5-4.5,1.5-3v-.5l7.5-1.5-6-1,.5-3.5,1.5-2.5,2-1,2,.5-.5-.5,2.5-.5-.5-1,.5-1-1.5-1-.5-1.5.5-.5-.5-.5,1-2,4-1.5.5,1.5v1l2.5,4.5-.5,1,5.5,1.5.5,1v-1l-1-3v-1.5l-1-2-.5-3,.5-2.5,1.5-2.5,2.5-.5,1,1.5,6.5,1,2,3,1-.5-.5,1.5,1.5-.5-.5,1,3,.5-2,3h-.5l-1.5,3h-1.5l1,.5-1.5,2.5v4l.5.5-1.5,4v3.5l.5,1.5v1.5h.5l-1,.5v2.5l-3,2,.5.5-1,.5.5,1.5v1l-1.5,2-.5,2,2.5-.5,2.5-3.5h1.5l-1-.5.5-1-.5-1,1.5-.5-.5-1.5,3-8v-2.5l2.5,2-.5-1,5-3,.5-.5-1-1,.5-.5,2.5-.5.5-2.5-.5-1,1-1.5h.5v1l1-.5v4.5l1-2.5,2-.5v-1l-.5-.5,1-1,.5,1-.5,1.5.5.5h3.5l.5,3-1.5,1.5,2.5,2.5-.5,2,2.5-1,5.5,1.5.5,1.5,1.5.5.5,1.5.5,1.5-1,1.5.5.5,4.5.5-4,2,3.5,1.5h-.5l.5.5v1.5h.5l-1.5,1.5v.5l2.5-1.5-.5-.5,1-2-1-.5v-1l3-1.5,7,3.5,1,3,1.5,1.5-2,.5,2,1.5v1l.5,1.5v1.5l1,.5v1.5l-.5,1.5,1.5,1.5v1.5l-.5,1.5v2.5l-4.5,8.5-5,6.5-.5-1-2-1-3.5,2-1.5-1-13,7.5h-4.5l-4.5,3-2.5-1-1.5.5-3,1.5.5,1,1,.5-2.5,1.5,1.5,1-.5,1-.5-1h-2l-.5-1,.5-.5-.5-1.5-2-1-7,1-3.5,2.5-5.5-1.5-2,1.5h-7.5l-2.5,1.5-2.5,3-3.5,2.5-4.5,2-11.5,9-4.5.5M643.12,195.62l1.5-.5,2.5,1,1,2.5-.5,2-1.5-1.5-3,1-1.5,1.5,2.5.5-5,4h-2l-2-1.5v-2.5l5-.5,1-2v-2l1.5-2.5.5.5M393.12,217.12l-.5.5-.5-.5,1.5-.5-.5.5M392.12,219.12l1.5.5-.5,1.5,1,1h-2.5l-1-2,.5-1.5,1,.5M652.12,205.62l6.5.5,4.5-3,2.5.5.5,2,1.5,1v3l-1,1-2.5,3-.5-2.5,1-.5-2-.5-1,2-13.5-1-6-1.5,2-2h.5l-.5,1,5.5-3,1.5,1,1-1M377.62,79.62l-8-3-.5-1.5-3-1,12.5-1.5,8.5,3.5,1.5-.5-2-2.5-5.5-1.5-23,2,1-1-.5-1-1.5,1-3.5.5,5.5-4.5,3,.5.5-1,1.5-.5,3,1.5-2.5-2h.5l3.5,1.5,2.5-1,3,1.5,3-.5-1.5-1.5-7.5-1.5-5-2.5,8.5-3,5-.5,3-1-.5-.5h.5v-5l1.5-4.5,7-7.5-.5-.5,1-2h-2.5v1l1,1-.5.5-6,1-.5-1.5-1.5,2h-3.5l-.5-2,4.5-4,.5-.5-.5-1.5.5-.5,5-2.5h2.5l-1.5-2v-2.5l-.5-.5,7.5-3.5,3.5,1,.5-.5-.5-2,6.5-2,2-1.5,11-3.5,8-6h5.5l-9-2v-1.5h.5l8-1.5,5.5,1.5.5,2-2,3.5,4-.5,1,1-.5,1h2l.5,2.5,4.5,3.5.5.5v2.5l4,2v.5l-1,1.5,2,3.5,5.5,2,1,2,5,2-.5,1h.5l7.5.5-1.5,2.5,2.5.5.5,1-2,1.5,2,1,1,2-4,2.5h-4v1l-3,1-.5-.5v-1.5l-1.5,1-2-.5-5-4.5-3-1,9,7-.5,1.5v1.5l-1,1,.5,1.5-1,2,1.5,2.5,1,2.5.5,4v3l3,.5,1,1.5v1l-3,3,.5,1-.5.5-29.5,2-9,4h-6.5l-2.5,1.5-2-1-4,5-11.5,4.5-9.5-4-7.5-4.5-7.5-.5-3.5-1.5,2.5-1-.5-1,.5-.5,11,4,1-.5-.5-1.5-2.5-1.5M509.12,153.62l2.5,1v1.5l.5,1-1,1.5,2.5,5.5-1.5,2.5-7,5v1.5l-.5,1-3-1-4,2h-10l-4.5,3-1.5-2.5h-2.5l-1.5-1.5-1,.5,1,.5-4-1-5,1.5-4.5-2h.5l-1.5-2v-1.5l-4,.5-4-3.5-.5-3.5-.5-1h-7l1.5-.5h-.5l-1.5,1-1,1-3-2.5-2.5,2.5h-3l-2-1.5-3.5,1-.5-2,.5-.5-.5-.5,1-1.5h-2l-.5-1,.5-1.5-.5-.5h-3l-6.5,5-2.5-1h1.5l-.5-1-2,1-1.5-1-4-5,1-4-6-4.5,1-.5h-1.5l1.5-2-1-3,.5-1.5-1-4.5,1.5-2-.5-3-6.5-1-.5.5.5.5-.5,1,1,.5-1,1.5-2.5-1,.5,1h-1.5l-.5-.5,1.5-1.5-2-1,3-1-.5-2,1.5.5-6-4,4.5-2,.5-.5-1-.5,1-1.5-3,1-1,1.5,1,1-2,.5-3.5,3-.5,1.5,1.5,1-2.5,2,1.5.5-3.5.5-2.5-1.5,2.5-1.5v-.5h1l.5-.5-.5-.5v-1l-2-.5-1.5.5-1.5-1,1-.5-1.5-1.5-2.5.5-1-.5,3-.5,6,2,.5-1,4-4h2.5l-1-.5,2.5-2,1-3,4.5-4.5,5-1,6.5.5v-.5h-2.5l2.5-2-.5-1-2-1-4.5-3.5.5-1-.5-.5,2-2-1-.5-.5-1v-1.5l2,1.5,2.5-1.5,3,1-2-1.5,1-.5.5-3,3.5-1.5v-2l1-1,2.5,2-1,1.5,2.5.5,1.5,2,2-2-.5-1.5.5-1.5,1.5-1,6,1,4.5-1,1.5,1.5,2-2,4.5,1,1.5-1,.5-1.5,2.5,1,7.5-3.5h9l4.5,3.5,1,2,2.5,1.5v1l-3.5,2.5.5,1.5,1,1.5-1,1.5,2,.5-1,2.5-2.5,1-2.5,2.5h-5.5l3.5,1.5-11.5,5h-3l-6,3.5h3.5l5.5-2,1,1.5v-1.5l2.5-2,10.5-3,.5,2-2.5,2.5-4.5,1-1,2-1.5.5-1,3,.5,1.5-.5,1.5,1,1.5-.5-1.5.5-1v-3l8-4.5,1.5-2,2,1v-.5l-.5-1.5.5-1.5,7.5-2.5-3-5,.5-.5,3,.5,1.5-1.5-.5-1,.5-1.5,1-.5-.5,1.5,1.5-.5-1.5,3,.5,1-.5.5h2l-.5-1,1.5-4-.5-.5.5-.5v-1.5l-2-2v-1l.5-1,4-2h.5l-1.5,2,1.5.5,2.5-1.5,1,1,2-1.5h4.5l-2.5,2.5,4-1,1,1-2,2,6,1,.5.5-1,.5-.5,1.5,1.5-1,1.5,1-.5,1h2l2,2-.5,2,3,1v1.5l1,1-.5,1,1,1-2.5,2.5h-2.5l2,1.5.5.5-.5,1,.5.5-.5,1,.5,1.5-1,1,.5,1-1.5-.5.5,1v4l-1.5,1.5,1,.5,1.5,3-1,1.5.5.5-.5,1-.5,1,1,2.5-.5.5.5.5-1,2,1,2-.5,1.5.5,1.5-.5.5.5,1h-2.5l.5,1-2,1.5,1,.5-.5.5-6-4.5-2.5.5.5,1,3,3.5,7.5,5-2,1-.5,1.5,4,1M416.12,86.62l-.5.5-.5-.5h1M377.12,89.62l-2.5.5-1-.5,1.5-1,3,.5-1,.5M403.12,92.62l-2,1.5-2.5-.5,1.5-2,4-2.5,2,1.5-1,.5-.5,1.5h-1.5M350.62,112.12l-2-2.5,1.5-1,11,1.5-2,1,3.5,1.5,1.5-3h1l-.5-.5,4,1,1-1.5-1-2-3-2-3-.5-1.5,1-12-2.5-1-1.5v-1l1-1,2.5-.5,1-1-4-3.5,2-1,.5-.5v-1.5l-2-.5-.5-1,.5-1-4.5-2,16.5-.5,2.5,2,8.5,1,1.5,1.5,7.5-.5,6.5,2,9.5,6.5-1.5,2.5-1.5,1.5.5.5-.5,1-4,2-1.5-.5-.5.5,1.5.5-8,6-10.5,2-7-1-4,2-2.5-.5,1,1h-.5l-7.5-4M420.12,86.12h-1l1-.5v.5M436.62,83.62l-1,.5-.5-.5,2.5-1-1,1M450.62,82.62l-.5.5-1-.5h2-.5M358.62,83.12h-1v-.5h1v.5M472.62,85.62l-1-.5v-1l1-.5.5,1-.5,1M378.12,57.62l-2,1h-.5l1-1.5,2-.5-.5,1M355.12,65.62v.5l-1.5-1,1.5.5M357.12,67.12h-1l-.5-.5h.5l1,.5M462.12,74.62h-.5l-.5-.5,1.5-1.5-.5,1,.5.5-.5.5M354.62,7.62l4.5,1v3l1.5,1.5-5.5,4.5-6,1-14-3-2.5-1.5-1-1.5,1-3.5,2-2,14.5-1.5,5.5,2M388.12,16.62h-1.5l-1-.5h1.5l1,.5M392.62,17.62h-1v-.5h.5l.5.5M132.12,9.12l-2-2,1.5-2,4.5-3.5,6.5-1,9.5,4,2,1.5v1.5l-1,1.5-7,1.5-14-1.5M373.62,43.12h-1l1.5-.5-.5.5M472.62,38.62l-.5.5-.5-.5h1M471.12,47.12h-1l.5-.5.5.5M371.12,131.12h-.5l1,.5-3,1-.5.5.5,1-.5.5-1,.5-8.5-3.5,5.5,1,6.5-2,5.5.5h-5M512.12,129.12l1.5-.5.5.5-1,2.5-2,.5v-2.5l.5-1.5.5,1M511.62,137.12h-1v-1l.5.5.5.5M508.62,143.62l.5,1-2-1.5h.5l1,.5M375.62,158.62l1.5,1-3-1-8-4,9.5,4M376.12,131.62h2.5l3,1.5-1,1.5-3,1-2.5-2v-1l1-1M452.12,165.12l1-1v1l-.5.5-.5-.5M488.62,176.62l-1,1h-2l1-1.5,2,.5M473.62,178.62l-1.5.5v-.5l1.5-1-.5,1h.5M473.62,175.62v.5h-1l.5-.5h.5M409.62,93.12l-.5.5-1-.5h1.5M474.62,93.12h-.5l-.5-.5h1.5l-.5.5M478.62,92.12h-1,1M477.62,94.12h-.5l1-.5-.5.5M405.12,97.62l-.5-.5h1.5l-1,.5M477.12,97.12h1-1M470.12,102.12h-.5l-.5-1,1.5,1h-.5M450.62,110.62h-.5v-.5l.5.5M459.62,113.62l-.5,1-.5-.5.5-.5h.5M513.62,110.12l.5.5-1,1.5,1.5-.5,2.5,1-4,1-1,1-1,4-1-.5v-2.5l1-1.5v-2l.5-1.5-.5-.5h2.5M346.62,118.12v.5h-1v-.5h1M513.12,120.12h-.5l-.5-.5,1.5-.5-.5,1M350.12,125.62l1,.5-8.5-3.5-3,.5-3.5-1.5,5.5-.5,8.5,4.5M354.62,130.62l-3-1.5,1-.5-1-1.5,2,1,1,2,3.5,1.5-3.5-1M346.62,125.62l-1,.5-2.5-2h.5l3,1.5M90.62,93.62l4,2,.5,1.5-3,1-12.5-2-1.5-1,.5-2v-1.5l-5.5-.5-4-6.5,1-2.5h2.5l2,2.5h-1.5l.5,1,5-.5,12,8.5M359.62,131.62h-.5l-.5-.5v-.5l1,1M357.62,130.62h-.5l-1-.5,1.5.5M355.62,129.12l.5.5-1-.5h.5M574.12,148.62l-.5.5v-.5h.5M542.12,140.12l-.5.5v-1l.5.5M575.12,145.62l-.5-.5,1-.5-.5,1M576.62,146.12l-.5.5v-1l.5-.5v1M574.62,139.62l.5,2,1-.5v1l.5.5-3,.5-.5-2h1v-1.5h.5M594.62,150.12l-1,1-3,1,4.5-2.5-.5.5M607.12,160.12l.5-.5-.5.5M491.12,192.12h-1l-1-.5h2.5l-.5.5M490.62,195.62l-1,.5v-.5l1-.5v.5M491.12,197.12l-1,.5-.5-.5,1.5-.5v.5M473.62,180.62l-.5-.5,1.5-.5-1,1M489.62,189.62l-.5.5.5-1-.5-1,.5-.5v-1.5l1.5,1-1.5,2.5M489.12,180.62h-.5,1-.5M642.62,192.62h-.5l1.5-.5h-.5l-.5.5M645.12,193.62h-.5l-1-.5.5-.5,1,1M643.12,194.12l-.5.5-.5-.5.5-.5.5.5M648.62,199.12l-.5-.5v-2l-1.5-1.5,2,1.5v2.5M651.12,205.62l-.5.5-.5-1,1.5.5h-.5M418.62,347.12l.5-1,.5,1.5-.5.5-.5-1M460.62,356.12l1,1-5,1.5-2,2.5-2-1,1-1.5-.5-.5,1.5-3v-1l.5-.5,1.5-3,1.5-.5-2-1.5v-.5l2,.5.5,1.5,2-1,.5.5-.5,1,1,.5.5,1-1.5,1,.5,1h-2l.5,1.5,1,.5M440.12,349.62l2-1,1.5.5-2.5,1.5-1-1M452.62,351.12l-6-1-1-1,3-1,1,1,4-.5v-.5l1,1.5-1.5,2.5h-1l.5-1M407.62,348.62l1.5-.5.5.5-1,1-1-1M430.12,336.12l-.5.5-1-1,2-.5-.5,1M447.62,333.12h1l-1,1v-1M439.12,335.12l-.5.5-.5-.5,1-2,.5,1-.5,1M784.62,300.62h-.5l-1.5-1.5v-1l-.5-1.5,1,1.5-.5,1,2,1.5M424.12,337.12v-1.5l2-1.5h.5v.5l.5,1-2.5,2.5h-.5v-1M436.12,336.62v-.5.5M765.62,298.62l-2-1,2.5-1h-.5,1l.5,1-1-.5v2l-.5-.5M772.12,295.62l.5-.5-.5.5M421.62,340.62l1.5-1,3,1.5-1,1,1.5.5-1.5.5-1-1.5v-1.5l-2.5.5M450.62,342.12l.5-.5v.5h-.5M795.12,303.12v.5l.5,1-1.5-1.5h1M801.62,308.62l2,.5-.5.5-5.5,1-1-1.5,1-4,2,1-1,1,.5,1,2.5.5M786.62,305.12v-1,1M424.12,339.12h2-2M413.62,344.12h3l1.5-1.5v-1h2l-.5.5v1.5l-2.5,1-3.5-.5M420.12,345.12l1-.5,1,1h-.5l-1.5-.5M467.12,343.62l1-1v1h-1M456.62,345.12v1.5h-.5l-1-1.5h1.5M464.12,346.62l.5-.5-.5.5M448.12,367.12h1l-.5.5-.5-.5M410.62,354.12l1-.5h1l-.5,1-1.5-.5M509.12,355.62l1.5-1,1.5.5-.5,1-2.5-.5M415.62,360.12l-4-1-7,.5,2-1v-1l1.5.5.5-1,5,1,.5-.5-1-1,.5-1h-1l3.5-1,.5-1.5,2.5.5-2,1v1l-2.5.5,1.5,2-1,1,.5,1M421.12,362.12l-1.5.5-2-1,1.5-1.5v-1l1.5-1.5,2,2-2,1,2,1-1.5.5M510.12,358.12v.5-.5M424.62,352.12h.5v.5l-.5-.5M513.12,355.12h.5-.5M392.62,361.12l1.5-1,.5.5-1,.5h-1M367.12,374.12h-1.5v-1.5l2.5.5v1.5l-1-.5M441.62,374.62h.5-.5M369.62,374.62v-.5.5M355.62,367.12h.5l-.5.5v-.5M350.62,368.12l1.5.5-1.5.5-3.5-1.5,3.5.5M342.62,368.12h-1.5,1.5M358.62,369.12h.5-.5M365.62,376.62l1-.5h.5l-.5.5h-1M370.12,384.62h-3.5l4.5-2.5,1,1.5h2l-2,.5-.5,1.5-1.5-1M817.12,336.62v-.5.5M355.62,378.62l2-1,.5.5h-1l-1.5.5M381.62,378.62h-.5.5M344.62,379.62h.5-.5M382.12,383.12l-1,.5-.5-1,.5-1,2,.5-1,1M375.12,383.62v-.5.5M336.62,393.12v-.5,1-.5M369.12,386.62l.5-.5,1.5-.5-1.5,1h-.5M274.12,389.62h.5-.5M266.62,393.12v.5h-3l.5-.5v-.5l3.5-.5v1h-1M226.12,438.12h-.5l-.5-1,1.5.5-.5.5M232.12,453.12l-3-.5v-.5l.5-.5-.5-1.5-1.5-.5,1-1-1-1.5,3-.5-.5-1-4.5,1-.5-.5,1-.5-2-1.5v-1.5l-1-.5.5-1-1-1,1.5,1v-1.5l1,.5.5-1,1,.5-1.5.5,2.5.5-.5.5,1,1.5h4l.5-1-2.5-1.5,1-1.5-1.5-1,1-.5-.5-.5,4.5,1-2.5.5,1,1,8-3,1.5,2.5-.5.5,2.5,1-.5,1.5-1.5,2.5-7,1.5,4,1.5-.5,1.5-2.5.5v-1.5h-.5l-5.5-.5,2,2h2.5l.5,1.5-2,1-2.5-1v1l1,.5v1M225.12,414.62l.5-.5h4l-3,.5h-1.5M230.12,414.12l1-.5.5.5h-1.5M223.12,414.62h.5-.5M265.62,419.12h.5-.5M268.62,427.62v-1,1M127.12,408.62l4,3.5,2,3.5,1.5-1.5,1,1-.5,3v1l-8-10.5M207.12,452.62v.5l-2.5-1-1.5-2.5-4,1-2-1.5,5.5-.5,3-2h1l.5,1h2l.5,2v1l1,1.5-1.5,1h-.5l.5-2-1-.5-1,.5v1.5M208.62,444.62l1-1h1.5l-2,1.5-.5-.5M224.12,448.12l1.5-.5,1,.5h-2.5M200.62,445.62h.5l1.5.5h-1l-1-.5M216.12,440.62h.5v.5l-.5-.5M210.62,441.12h.5l-4,.5,1.5-1,2,.5M198.12,442.12l2-.5,1-1.5-.5,1v1h-2.5M204.12,462.12l-.5-.5h.5v.5M208.62,464.12l-.5.5-.5-1,1.5-1.5.5,1.5-1,.5M190.62,464.12l-1.5-.5,1.5-2.5,2-1,4,1.5-3.5-.5-1.5,1-1,2M194.12,464.12l-.5.5-1-1,2-.5-.5,1M209.62,468.12l1-1.5-.5-2,1.5-2h5l2.5-1.5,1,.5-.5,1.5-3-.5,5,5h-1.5l-1,2.5h-.5l-1-2.5-2.5-1-.5.5,2,2-.5,1-2.5-.5-2,1.5.5.5-3-.5,1-.5-2.5-1,2-1.5M205.62,467.12l-2,.5v1l-.5,1-2.5,1-1.5-1v-1l-2.5-.5v-2.5h-.5l2-2.5,2-1.5,3,1,1-.5,1,.5,1,2.5,2,.5-2.5,1.5M187.12,472.12l-5.5-2-1.5-2,6-3,5,.5v-.5l1.5,1-.5,1.5-2,.5-4-1-2.5.5,3,2,.5,1,1.5,1.5h-1.5M191.62,468.12l.5.5v.5l-.5.5.5-1-.5-.5M197.62,470.12h.5v.5l-.5-.5M215.12,471.12h.5-.5M175.62,467.12l1.5.5,1,1.5h-.5l-2-2M176.62,453.62l1-.5.5,1-1,1.5-.5-2M210.12,457.12h-.5l-.5-.5,1-.5v1M71.62,447.12l.5,1.5-5-2.5-1.5-2v-2.5l1.5-2.5,1.5-.5.5,1-1,.5,5,2.5,1.5,2h-2l-1,1v1.5M764.62,450.62v.5l-.5.5.5-1M203.62,474.12l-2,.5-5-2,3-1,5,.5,1.5,1.5-2.5.5M197.12,471.12h.5-.5M176.62,471.12h.5v.5l-.5-.5M202.62,493.12h-1.5l-1-1h2l2-.5v-.5l-5-2,.5-.5-2.5-.5-.5-.5,11,3-.5.5.5,1-.5.5h-3l-.5,1-1-.5M195.62,490.62h1l-1,.5.5,1h-.5v-1.5M197.62,492.12h.5-.5M194.62,479.62l1.5-.5,2.5,1.5-2-.5-2.5,1-1.5-.5,2.5-.5-1-.5h.5M190.12,480.12l1-.5.5,1h-1l-.5-.5M195.62,475.12h1l1.5,1h-2.5v-1M196.62,477.12l1,.5-2.5-.5h1.5M207.12,479.12l.5-.5v.5h-.5M191.12,477.62h1.5l.5.5-2-.5M203.12,482.62h.5l1.5.5-1.5-.5h-.5M185.62,488.12v-.5l.5.5h-.5M180.12,496.62l.5-.5v.5h-.5M227.12,502.62l.5.5-4-1,1.5-1,2.5.5-1,.5.5.5M223.62,496.12l1-.5.5.5-.5-.5-1,.5M143.12,490.12l4.5-3,4.5-.5,4,1.5,2.5,2,.5,1.5-.5,1-2.5-2.5h-2l-1.5,2.5h2-2l-6.5-3.5-3,1M220.62,497.62l1-.5.5,1-.5.5-1-1M228.62,497.12l1.5,1-1.5,2-2-2-.5-.5,1-1-1.5-1h1.5v1l1.5.5M137.12,490.62l-4-1-1-2v-1.5l2-1.5,3-.5,3.5,4.5-3.5,2M186.12,498.62l1-.5,1-.5-.5.5-1.5.5M233.62,509.62l-6.5,1-2-1-.5-2.5,1-1-.5-.5,1.5-1,1,.5.5,1.5,5,.5v.5h-4.5l5,1v1M218.62,507.12v.5-.5M236.62,512.62v-1,1M225.12,512.12h-.5,1.5-1M234.12,513.62l.5.5v-.5h-.5M180.12,509.62l1.5-.5.5,1-2,1-1-.5,1-1M236.12,520.12v1.5h-.5l.5-1v-.5M237.12,528.62l.5-.5v1.5l-3,2.5-3-1,4-1.5-5.5,1-1-.5,3-3,.5-1,2-.5,1.5-2,1-2h-1l1-.5,1.5-3,3,2.5v1l-1.5-1-4,8h1M790.12,490.62l-2.5,1,.5.5-.5,1.5-1.5-1-3,2-2,3.5-5-1-1.5,3-4,3-2,3.5-4-1-6,1.5-2.5,1.5,1,1.5-3-1.5-2.5-3-1.5-5v-1l6-4.5.5-2,.5-5.5.5-2,7.5-2h3.5l5,1,5.5,3,3,.5,1-.5.5-2-1-1.5.5-2.5,1.5-2.5,7.5-3,2,2-4.5,3.5-3.5.5.5,2.5,3.5,6M81.62,517.62l-.5-.5h.5v.5M82.12,517.62h-.5.5M73.62,523.12h1l.5,1h-1.5l-.5-1h.5M80.12,526.12l2.5,1.5-1.5-1-1-.5M76.12,526.62l1-.5.5.5-1,.5-.5-.5M76.12,527.62l1,.5-1-.5M78.12,528.62h.5l.5.5-.5-.5h-.5M675.12,566.62l.5-.5v.5h-.5M32.62,565.12l-1.5-.5.5-.5-1.5-1v-2l2.5-3,8.5-7,3.5-4.5,1.5-1,4.5,5.5,2,7v1h-1.5l1,1-.5.5v3l-.5.5,1,1.5-1.5,1,1,4-1,1v1l-2-.5-2,1-11-4.5-1-2.5-2-1M48.12,534.62v-.5l.5.5h-.5M215.62,560.12l-1-1v-1l1-1,.5,3h-.5M40.12,535.62v.5l-1.5,1,2-3,1-.5,2.5.5h-2.5l-1.5,1.5M676.62,571.12l-.5.5v-.5l.5-2,.5,1-.5,1M673.62,574.62h.5l-.5.5v-.5M669.12,580.62l1-1h1.5l-1.5.5-1,.5M653.62,591.62l-2.5,2-.5-2,2.5-3,1-.5.5,1,1-.5-2,3M81.12,607.12l.5,1v1l-2-2.5,1.5.5M82.12,611.62h1-1M81.62,612.12h-.5.5M648.62,596.62l1-1-1,2.5-3.5,1,3.5-2.5M75.62,597.12v-.5l1-.5.5,1v1.5l1.5,1-.5,1-2-1.5-.5-2"/>
      <path data-code="taseevskij_rajon" data-title="taseevskij rajon" class="cls-1" d="M372.62,1678.62l9.5-16.5,6.5-15h1.5l1,2,4,3v-.5l3,1,3-.5,2.5,1h1.5l1-1.5,2.5.5,1.5,1,1,3,10-2.5,7.5,3.5,5-.5,4,1.5,2.5,3.5-.5,2,2.5,1.5-1.5,2,.5.5-1,1,.5,1v1.5l11.5-2,2,1.5.5,2.5v3.5l-5.5,4,1,4v15.5l6-.5.5,2.5-1,3-1.5,1-10,1.5.5-3.5,1.5-1-2-4-2,2.5-8-1-2,2-2.5-.5v-2.5l-5,2.5-7.5.5v1h1l-2,3-4.5-1-.5,2.5-3,.5-.5-1-2-.5v1.5l-4-.5v1.5h-1l-.5,1.5-6,2-6-1-6-12-4-7.5v-2l-1.5-3.5.5-1.5,2-.5-.5-3-1.5-1.5-4,.5-.5-2.5"/>
      <path data-code="tjukhtetskij_rajon" data-title="tjukhtetskij rajon" class="cls-1" d="M182.62,1725.62l6,.5.5-4.5h1.5l1-2-4-.5,1.5-7-2,1,5.5-20-2.5.5-4.5-1-.5-2.5,2,.5,3-6,4,.5,5.5-16.5.5-2,1,3,1.5-.5,1-4h2.5l-.5,2,.5,1.5,2-3.5-.5,1.5,2.5-.5-2-2,1.5-7,3,2,5-1.5,1-2.5-.5-4,.5-3,13.5-3.5v2l-3.5,3.5.5,3-1.5,3,.5,2.5-1,.5,9.5,2,1.5,2.5-3.5,3.5-3,1-3.5,22-4,6-1,6h6l4,2v1l2,1.5v2l3,2,.5,1.5-.5,1.5,1,1.5v2l-2,3.5,1,1.5-1.5,1.5.5,1-1,1-2.5,1-1,3,3.5,6-8,2.5.5-1.5-3.5-.5v2.5h-1.5v1h-1.5l.5,1-2,1.5h-2.5l-2,2-1-.5-.5-3-3.5,1.5-.5-1.5-3,2-2-1-2,3-8.5-1.5-.5,1-6-.5v-3.5l-3.5-1-.5-2,1-.5.5-4.5h-2l-1.5-6.5"/>
      <path data-code="turukhanskij_rajon" data-title="turukhanskij  rajon" class="cls-1" d="M53.12,916.12l2-3.5,1.5,1.5,4-1.5,2.5,1.5,8,1,1.5-2-.5-3.5.5-3.5-.5-1.5v-1.5l6.5-3-.5-2.5,1-3,.5-1.5,2.5-1,3-8,4.5,5v1.5l4,3.5,2,.5.5,1v2l-1,1.5v.5l-.5,1.5h3l2.5,5-1,2-1.5.5-.5,1.5-3,.5.5,1.5-2.5-.5-.5,1,1,1.5-1,2,2.5-1,1,2,1-2.5,1.5,1.5,2-.5-1,1,.5,1.5-1,3,1.5,1,1.5-1,1,.5-.5,1.5-1.5,2.5,2.5,2.5h2l1.5,2.5,1,.5-.5,1,1.5,3-.5,1.5.5,1-.5.5,1,.5-1,1,.5.5h-1l.5,1.5-1,1.5h1l2-1.5,3,2,.5-.5-.5-.5,1.5.5v-1.5l2.5,2-.5,1,1.5,1-1,1.5,2,1.5-.5,1.5.5,2.5,4.5.5v1.5h-.5l.5,1.5h-.5v1.5h-1l1,3.5v2.5l2,1,2.5-.5-.5.5,2,1.5-.5,1h1l-.5,1,.5.5v1.5l.5,1-.5,1.5,2,1.5,4.5-1,.5-1.5,3-1,.5-1-.5-1,.5-1,1,.5v-1l3-1-6.5-1.5-1.5-2.5,1.5-1h2v-1.5l1-1.5,2.5-2.5-1.5-1,.5-.5,1,.5,3.5-2.5-.5-.5v-.5l2,1.5,1-1,1.5-2-.5-1,1-1v-1l-3-1-.5-2.5-2-1v-1h2l1.5-1.5v-1h1v-1l1-2,4-1-1-.5,1.5-3,.5-.5,1-1,1-2,3,1,1.5-1-.5-2.5,1-1-.5-2.5.5-1-.5-1,5-2,16-1.5,3,.5,5.5,33,14,20,1.5,2.5,11,1,3-5h3v2l1,1.5,3.5-1.5,1.5.5,2-.5,5.5,2.5,2.5-2h2l4.5,3h5l1.5-.5,1.5-3v-3l3.5-3,6.5,8,3.5-2,10.5-2,15.5,7.5,6-3,4,.5,1.5-2.5,2.5-.5,1.5-1.5,2,.5,1,1v1l1.5.5v3.5h-1.5v1.5l-2.5,4-3.5,2.5-3.5,5-4.5,9.5-1,4.5-2,3.5-18,20.5-6.5,3.5-1,8-1.5,6.5-.5-.5v-1l-8.5-4-9.5,1-1,2.5-1.5,1,1,1.5-.5,1.5-1.5,1.5.5,1.5-1.5.5.5,1.5-1.5.5,1,4-2,1.5,1,1h-1.5l.5,1h-.5v1l-1,.5,1.5.5v1.5h-1.5l.5,1.5,1,.5-1,1.5,1.5,1.5-.5.5.5,2-1,1,1,2,.5,6.5-1.5,1-.5,2.5-5.5,3v1.5l-1.5,3-2,3h-1.5l-1.5,3v3.5l-1,1-1,2.5,1,.5,1.5-1.5h2.5l.5.5-.5,1,1,1,.5,1.5,1.5.5,2-1,3,1.5,2-1,2.5,1v2l.5,2.5,2.5,3-2.5,3,6.5-1,2,4-4.5,4.5.5,1.5h2l-.5,2,2.5,3.5-3,1.5-1.5,4.5v.5l-2.5.5.5.5-1.5,1-1.5,3-3,3.5.5,1.5-1,.5-.5,3.5-1,.5,1.5,1.5-.5,1.5,1,.5v1l11.5-1,1.5-1.5,5.5-2,1,1.5-.5,1.5.5,1-2.5,4,.5,1.5,1,1,.5-1,5,.5,2.5-1-.5-1.5.5-1.5,1.5.5,1,2-.5,1v.5l-1.5,1.5,1.5,1-1,2.5h1.5l2,2.5v2h1l1,2,3,3,2.5-1,1-1.5-1.5-3,1.5-2.5,2.5,2,1.5-1,1.5,1.5v1l-3,6.5,1,.5,3-1,2,1.5-.5,1-2,.5.5,1-.5.5v.5l2.5.5,1.5-2,2,.5,1.5-1,1.5,2,3,1.5-.5.5v1l-1,.5,1,2,3.5-.5,2-2.5,4.5,1.5,2.5-1,5.5.5.5.5.5,2-1,2.5,2.5,1.5-1,2.5-1,.5v1l1.5,1.5h2.5l1,1,1,3.5,3.5-1,1,1-1,2.5.5,1v2.5l-1.5,2.5h-1l-.5,2-2.5,4,8.5,4,.5,6,1,3-.5,1-2,2.5-1.5,3.5-6,1-1,1.5v2l-.5.5v.5l-3.5,3,.5.5v2l-.5.5.5,1v2.5l-4,5v1l-.5,1v1.5h1l1,2.5-1,1.5-.5,6.5,1,1,.5,1.5,1.5.5v3l1.5,3-5.5,7.5-17.5,12-3.5,4-2.5,8.5h-1.5v4l-5,.5-4-1-3,1-1,2-1.5,1v1l-1.5,2v1.5l-2-.5-.5,2.5.5,1-2,3.5-1.5,1.5-2,.5v1.5l-1.5,1,1,2.5,1,4.5,4.5,3,1.5,2,1,5,2,3.5,3,.5v2.5l2,2h-.5v2l2,2,1.5.5-.5,1,1.5,1-.5.5.5,1.5-.5.5,1,2.5,2,2-.5.5v1l-.5.5-4.5-.5.5,1.5-1,1v1.5l-1,.5.5.5-1,.5.5,2-2,1.5-.5,3.5,2.5,2h1.5v2l-1,2h1.5v1.5l1.5,1,.5,1.5v.5l.5,4-1,1v1l2,1v1.5l2,2.5,7,15,3,3-.5.5,1,1,.5,2,2,1.5v1h.5l.5,3.5-2,2.5-11.5-.5-39.5-5.5-1.5-2-2.5-6v-2l-2.5.5-.5,2-3-2.5-.5.5,1,1-2,.5-1,1.5-1.5-3-2,2-2-3,1-.5h-2l-1-1.5-1.5,1.5v-1.5l1-1h-2l.5-1-1-1,1-.5-1-1,1-1-2,.5-1.5-1.5-1-2-1.5.5-1-1,1-.5v-2l-1-1.5,1.5-1-2,.5v-2.5l-4-.5,3.5-1-1-2,1-1-2,.5-.5-1.5h-1l-.5.5,1,.5-1,.5-3-2-1,1-1.5-.5-1-1,.5-1-1.5-1v-1l-1.5.5v-2.5h1v-1.5l-.5-1h-1.5l.5-1.5-1-1-.5,1h.5l-2,.5v.5l-.5,1-2-.5v1l-1.5.5-1-1-2.5.5.5.5-1,.5-2-1-2,1,.5-1h-3.5l-.5-.5.5-.5-1.5-.5v-1.5h-1.5l-1.5,1.5.5.5-3,.5-.5.5h1l-.5,1.5,1-.5.5,1.5h-1v1.5l-1-.5v1l-1,1h.5v.5h-2l-1,1.5-.5-2.5-1.5-1.5h.5v-1.5l1-.5-1-1-.5-2.5-4-1.5h-3,.5v-1.5l-4.5-3v-.5l-3.5-3-2,.5,1,3-.5,1.5.5,1-1.5,2-11,1.5-2.5-3v-4l-2.5-1-3-3-2,1-2.5,4h-2.5l-2.5-4.5-2.5-2,.5-1.5v-4.5l-3.5-3.5-4,1-7-4-2-5-4.5.5-5-6-5.5-3.5-2.5,1-6-4.5-.5-3-2.5-4.5.5-4.5-1-3,.5-4.5-.5-7,2-1.5,3-5,5-6.5,8-5-.5-.5.5-2h-.5l.5-.5-1-.5v-.5l.5-.5-.5-.5,1-1v-1l2.5-.5,2.5-2.5h1l.5-1-1.5-.5v-1l3.5-2.5,2.5-6.5,2-1,3-4,3.5.5,1.5-1.5v-1.5l1-1-1-3,3.5-2,.5-1.5-1-2h1l-1-2.5-1.5-1.5h.5l-.5-1v-1.5l.5-1-.5-1,2-1-.5-.5,1-1.5-.5-.5v-1.5h1l-.5-.5h1l-.5-.5.5-1h-.5l4.5-3.5-.5-.5.5-.5-.5-1v-.5l-2-.5-4.5,1v.5l-1.5-1v-1.5l-1-1,.5-1-.5-.5,1,.5-.5-.5,1-1-1.5-1.5,1-.5-.5-.5v-.5h-.5v-1l-2-2,.5-.5-2.5,1.5v-2l-1,1-2.5-1.5v-1l-.5.5v-1.5l-1-.5,1-.5-1.5-1,1-1,2.5,2.5,1.5-3,1.5.5,1-1-.5-.5v-.5l2-.5-.5-1,1-.5-.5-1,1.5-2-.5-1,.5-.5v-1.5l2-1-1-1,.5-1-1-.5,2-2-.5-1.5,3.5-.5.5-1.5-.5-1.5,1-1,4-1.5,3-2.5,6-3h2v-4.5l-.5-1,2-3.5v-2l.5-1.5,1-3-2-7.5.5-4-3.5-5,4-5v-2l-2-5.5,1-7.5-3-3.5-5.5-2-2.5,1-3,2.5-3-.5-4,2,.5-2.5-1-.5,1-1.5-3.5-.5.5.5-.5.5-.5-1,.5-.5-2-.5.5-1.5-1-.5,1-1,2-.5-.5-1,.5-1,1,.5-3-3h-1l.5,1-2.5-2-.5,1.5-1.5-.5-2.5,1-2-.5-1,1.5-1-1.5v1l-1.5-1-.5,1-1-.5-.5.5-.5-1v-.5.5l-1,1.5-3-3,1.5-1.5v-1l1-.5-.5-1h1l.5-1v-1l1-2h-1.5l.5-2-.5-.5v1l-1,1-.5-3,4.5-7.5,4.5-2,1-4.5-1.5-7,1-1,.5-2-.5-2.5-1.5-1.5v-2.5l-2.5-.5-4.5-3.5,3.5-1.5-.5-1.5,1-1,.5-2.5-4.5-1-3.5-7-7-1-6,1.5-2-4,2-2.5-.5-1v-1l1.5-1.5-4.5-4.5v-1l-1-1h.5l-1.5-1.5.5-.5v-1h.5l-.5-1-1-.5,2-2,1.5-.5v-2.5l4.5-1.5,1.5-2-6.5-14.5-4-2.5-.5-4.5,1.5-9h3l3-3,1,.5.5-1-1.5-1v-1.5l-1-1,.5-1.5-1-1.5v-2.5l-1-4.5-2-1-.5-2.5-5.5-7.5-16.5-19v-2h2.5v-2.5l1,1.5,1.5-.5-1.5-.5v-1.5l4-.5-.5-1,.5-1-1.5.5v-1.5l1,1,.5-1-1.5-.5-.5-.5.5-.5-1-.5.5-.5v-1l-.5-.5,1.5-.5-1-1h1v-1l1,.5-.5-1.5,1.5.5-.5-1h.5l1.5.5-1.5-1.5,2-.5-.5-1,.5-1h-1.5l1-2-2.5,1,.5-1.5-1,1.5-.5-1.5-.5-.5.5-.5h-1.5v-2l-1.5-.5v-.5h-.5l.5-.5-2-2.5.5-1,.5.5v-1l1.5-.5v-1l-1.5.5,1-.5-.5-1,1-1h-1v-1h.5l-1-.5-.5-1-.5.5-1-1,.5-.5-1.5-1,.5-1h-1.5v-1h.5l-2.5-4.5.5-1.5-1.5-1"/>
      <path data-code="ujarskij_rajon" data-title="ujarskij rajon" class="cls-1" d="M372.12,1788.63l.5-1h2l1-1.5v-3l2-1,.5-1-1-3,3-1.5-.5-2.5-1-.5v-1l1-.5,1-4.5,1.5-1.5-.5-3.5h3l.5,1v4l.5,1.5,6-.5-.5,5.5,5,6-.5,4,2.5.5,2.5-1.5,1.5.5v3.5l.5,1-3,.5.5,1.5-.5,3h5.5v1h1v5l-3-.5.5,2.5-1,4.5-12.5.5-.5-1-1,1h-5l-3-4-1.5-.5-1-2,.5-5-3-.5v-3l-3,.5v-2.5l-.5-.5"/>
      <path data-code="uzhurskij_rajon" data-title="uzhurskij rajon" class="cls-1" d="M224.62,1821.63l.5,1,.5.5v-1.5h-1M208.12,1812.63l3.5-1,.5-1.5h1.5l3,.5,2-2,.5-3.5h.5l-2.5-6.5,2-1.5,2,2.5,4-1v-3l6.5-.5,1,2,7-.5,3.5,4,.5,1.5-.5.5,2.5,1,2-4,4-1,5,4-1,3.5.5,2.5,4-.5-1,1,.5,1-1,3-5,3.5.5,2,2,1.5,1.5-.5,1,8.5-2,.5.5,5-2.5,1-1.5,1.5h-2l-4,3-1-1.5-2,1-4-1v-2.5l-1-1.5v-1.5l-3.5-.5.5,2-1,1.5-4.5-1.5-3.5,1.5-.5,1-6,1v1.5l-2.5,3-2-2h1l-1-.5,1-2,1-.5h-2.5l-1-3.5.5-2h-1l-2-4.5v-1h4l-.5-4.5.5-3v-2l-1.5-.5v-3h-2l-2.5,4.5-.5-.5-.5-3-1-1"/>
      <path data-code="zato_solnechnyj__krasnojarskij_kraj_" data-title="zato_solnechnyj_(krasnojarskij_kraj)" class="cls-1" d="M224.62,1821.63h1v1.5l-.5-.5-.5-1"/>
      <path data-code="zelenogorsk" class="cls-1" d="M396.12,1769.63l.5-4.5,5.5,3.5,1-2.5-.5,2.5h1l.5-1,1.5.5,1,1.5,1,.5v2l-2.5-.5-.5.5,1,1-.5,1-2.5.5-4-3.5-2,.5.5-1.5-1-.5"/>
      <path data-code="zheleznogorsk__krasnojarskij_kraj_" data-title="zheleznogorsk_(krasnojarskij_kraj)" class="cls-1" d="M358.12,1752.63l.5-1.5,3.5-1.5,1.5,1,3-1-1,1.5v2.5l-1,1-4,1-1-3h-1.5M357.12,1765.63l3-3.5-1-4.5,3-2.5,2.5.5,1-1.5.5-3,.5-1.5,6.5-.5-.5,1h2l-.5.5.5,1.5-3.5.5v2.5l-3,7.5-3,3.5-5,.5-.5-1v-1.5l-2.5,1.5M358.62,1769.13l1-2h1.5l1,1.5v1.5l-3,.5.5-2-1,.5"/>
    </g>
</svg>