<svg data-code="RU-VLA" xmlns="http://www.w3.org/2000/svg" viewBox="0 0 141.75 163.75">
    <g data-code="vladimirskaja_oblast_" data-title="vladimirskaja_oblast&amp;apos;">
      <path data-code="aleksandrovskij_rajon__vladimirskaja_oblast_" data-title="aleksandrovskij_rajon_(vladimirskaja_oblast&amp;apos;)" class="cls-1" d="M13.12,7.62l5-1v-2l1.5-1.5v-1l.5-1.5,3.5,1.5V.62h1v.5h-.5l-1,3,1.5,1.5v2l1,1-2,1v2.5l-1.5.5.5,1,3.5-1.5,2,1.5,1-.5.5,2.5,1.5-2.5h.5l-.5,1.5,2.5,1-1,1,.5.5-1,.5,2.5,4,7.5,1.5-.5,2,1.5,2.5-1,.5.5.5-1.5.5v1.5l-1.5-1,1.62,2.44-4.62-1.44-1,2-1.5.5v2l-1-.5-2.5,1.5-3.5-2,.5,2-1.5-.5-.5-2.5-1-.5-1.5,2h-1.5l-.5,1-1.5-1v-2l-2.5-.5v1l-2.5.5v1l-3,2-3.5-3.5-.5-3h-2v-2.5l1-1.5v-1h.5v-1l1.5.5,1-1-.5-1,1-1,2.5-2.5-1-2,1.5-1.5.5.5.5-2-1.5-.5v-.5l1-1.5-1-1.5,2-.5-1-.5-.5-1.5"/>
      <path data-code="gorodskoj_okrug_gus_-khrustal_nyj" data-title="gorodskoj_okrug_gus&amp;apos;-khrustal&amp;apos;nyj" class="cls-1" d="M49.62,101.12l1,.5-.5.5h-.5v-1M45.62,101.62l.5.5h-1l.5-.5M47.12,104.62l1-.5.5.5-.5,2h-1.5l.5-2M47.62,107.12l2.5.5-.5,1.5h1.5l-1.5,3-3.5-1,2-2.5-.5-1.5"/>
      <path data-code="gorokhoveckij_rajon" data-title="gorokhoveckij rajon" class="cls-1" d="M103.62,126.12l1.5-1.5,1.5,1-.5-2,1.5-1.5.5-1.5h2.5l1.5-2-1-1.5.5-1.5,2-.5,1,1,1-.5v-2l1.5-.5,1-1,1.5.5,1-2,2,.5v1l2.5-.5,2-1-.5-1,3.5-.5,1.5-1.5h1l1-2.5,2-.5.5-1.5h1l1-1,1.5,1,1.5,7-1,2,.5,1-3,.5-.5,3.5h-1.5v1l2.5.5-1.5.5.5,1,2.5,1,1-1v1l-1,.5,1.5.5-.5,1,.5,1-1.5,1-3.5-2-1.5.5-6-1,.5.5-1.5,2,1,1-1.5,1.5v.5l-1.5,2.5-1-2-1.5,1.5h-3.5l1-1.5-1-1-2.5,2-1.5,2-1.5.5-.5-1h-7v-1l-2,.5-1.5-.5v-.5l2-2-1.5-1.5"/>
      <path data-code="gus_-khrustal_nyj_rajon" data-title="gus&amp;apos;-khrustal&amp;apos;nyj_rajon" class="cls-1" d="M45.62,101.62l-.5.5h1l-.5-.5M49.62,101.12v1h.5l.5-.5-1-.5M47.12,104.62l-.5,2h1.5l.5-2-.5-.5-1,.5M47.62,107.12l.5,1.5-2,2.5,3.5,1,1.5-3h-1.5l.5-1.5-2.5-.5M31.22,88.99h4.4l-.5,1,2-.5,2,1.5,3-2,2,2.5-1,1,.5.5,1-1.5,2.5,1.5,2.5-2.5,2.5-1,2,1,1,2.5h1.5l.5,2.5,1-.5,1,1.5-1,.5,1.5.5-.5,1,2,2-2,1,1,.5,1.5-1.5,2,1.5-1,4.5,1,.5v-2h1.5l-.5,1.5,2.5,1.5.5,3-3.5,2h-1l1.5.5,1-1,1,1v1l2,.5,2-1,2.5,1.5-1.5,2.14-1.5.5,1.5,3v.5l-1-1-1,1,.5.5-.5,4.36-2,.64v1l-2,2.5h-4.5v1.5h-1.5v1.5h-1.5l-.5,2.5-1-1.5-.5.5h-1.5l-.5,1h-2l.5,1-2.5,1.5.5,1-1,.5-1.5-1.5-1.5,1.5.5,1.5-2,1.5-.5,1.5v-1.5l1.5-1.5-1-3.5,1-1-1-.5-2-2-1.5,2.5-2.5-.5v-1.5l-2-1-2,1-1-.5,1-1-4.5-1,2-2-1-2,1.5-1-.5-2,3.5-1.5v-1l-2.5-1-3.5,1.5-1.5-1-1,.5-1-2.5,1-1,2-.5-3-.5.5-2h-2.5l1-1-1-1,1-2-.5-2,1-1,1-1,1.5.5,1.5-2-.5-1,.5-1-3.5-2.5,2-3.5,1,1,1.5-1.5-.5-2.5,1.5-1v-1l-.91-5.14Z"/>
      <path data-code="jur_ev-pol_skij_rajon" data-title="jur&amp;apos;ev-pol&amp;apos;skij_rajon" class="cls-1" d="M39.62,29.62l1.5,1v-1.5l3-1.5,1.5-1,.5-1,.5,1,2-2.5,1.5-3,2.5-.5-.5-1,2.5-3,2,.5v2l2,1.5.5-1h1l3-1,.5,1.5h.5l.5-1,1.5,1,2,5.5,3,1.5-6.5,8h-2l.5,1-1,.5,2,.5-1,1.5.5,3.5-2.5,1.5-.5,2.5h1.5v1l2-.5,2,1.5v2.5l1.5.5-1,2,1,1-1,1v1l-2.5,1,1-2.5-2-1.5-2.5,3-1,.5v1.5l-1.5.5-.5-1-.5.5-4,1-1.5-.5-.5-5h-2.5l1-1-1.5-1.14-1-4.36-1.5-1,1.5-1.5.5-1.5,1.5-.5-1.5-2,.5-1-.5-3-4-3-2.5,1-.5-2h1l-2-3"/>
      <path data-code="kameshkovskij_rajon" data-title="kameshkovskij rajon" class="cls-1" d="M74.12,65.49l3.5.5.5,1.5,1.5-.5,1-1.5,2.5-1v-1h2l1-2,3,1.5.5-2.36h1l.5,2.5h2l2,1.5-1,2,3.5,2-.5,1,.5,2-3.5,1v2l-3,1,1,1h-1.5v1l-1.5.5-1.5,2-1.5,1h-1.5v1l1.5,1-1.5.5.5.5-1.5,1.5,1.5,2-.26.79-2.24.08-2-3.5-1,.5-2-.5-1-1,1-.5-.5-1h-3.5l-1-1.5-2,1-1.5-1.5-.5-2.5,2-3.5h1.5v-1h1.5l1-3.5,3,.5-2-2v-1.5l-1.5-.5.5-.5-.5-.5"/>
      <path data-code="kirzhachskij_rajon" data-title="kirzhachskij rajon" class="cls-1" d="M6.62,32.12l1-.5.5,1.5,3.5,3.5,3-2v-1l2.5-.5v-1l2.5.5v2l1.5,1,.5-1h1.5l1.5-2,1,.5.5,2.5,1.5.5-.5-2,3.5,2-.5,1.5,1,1.5-3,.5-2,4v3h1l-1,2.5-3.5,2.5-2,1.5h-1.5v-1.5l-1.5.5-3-1.5-1,1-2.5-1-1,1.5-4.5,1.5-.5-5-1-1-3-1-.5-2,2-.5v-1l1-2-1-2.5,2-2v-1.5h.5l.5-1.5,1-1v-.5M8.12,52.99v.5l-.5-.5h.5Z"/>
      <path data-code="kol_chuginskij_rajon" data-title="kol&amp;apos;chuginskij_rajon" class="cls-1" d="M28.12,39.62l3-.5-1-1.5.5-1.5,2.5-1.5,1,.5v-2l1.5-.5,1-2,4.62,1.44.38.56h-1l.5,2,2.5-1,4,3,.5,3-.5,1,1.5,2-1.5.5-.5,1.5-1.5,1.5,1.5,1,1,4.36-2,.64.5,1-1.5,1.5.5,1.5-1,.5-.5-1.5-2,.5.5.5-1.5,2-3,.5-1-.5,1-2.5-2-1-2.5.5v-1h-1l-.5,1.5-2-2-3,1-.5-3.5-2.5-.14,1.01-1.15,1-.71,1-2.5h-1v-3l2-4Z"/>
      <path data-code="kovrov" class="cls-1" d="M94.12,79.12l1,1,1.5-2v-.5l3.5-1,1,1-1.5.5,1,1-1,1.5v.5l-2.5,1,1,2.5-3.5-3.5.5-1h-1.5l.5-1"/>
      <path data-code="kovrovskij_rajon" data-title="kovrovskij rajon" class="cls-1" d="M94.12,79.12l-.5,1h1.5l-.5,1,3.5,3.5-1-2.5,2.5-1v-.5l1-1.5-1-1,1.5-.5-1-1-3.5,1v.5l-1.5,2-1-1M86.12,81.12l1.5-1,1.5-2,1.5-.5v-1h1.5l-1-1,3-1v-2l3.5-1-.22-.86-.28-1.14,1.5-1,3,3,3.5,1,3,3h2l-1,1.5,1,1.5,5-.5.5.5-1,1,1.5,1,3,1.5,2.5-1,.5,1.5v.5h-.5l.5,2-2,2-8-.64.5-1,2.5.64-1.5-1.5-2.5,1.86-1-1-.5,1.5-2,1-2-.5v2l-4.5.5-.5,1,1.5.5,2,2.5-.5,1.5h.5l-.5.5-.5,1-5-.5-2,2.5v1h-.5l1,.5-1,2h-2l5.5,5v1.5l-1.5-1-4,1.5v-1l.5-2-.5-1h-1l-.5.5-5-2.5-2.5,1-1.5-1,1.5-2,1,.5,1-1-1.5-1-3,1v-.5l3-.5-2.5-1.5v-3.5l-2-.5,1.5-.5,1-2.86.5-.5-.5-.5,1.5-1,.5-1.5-1.5-2,1.5-1.5-.5-.5,1.5-.5-1.5-1v-1h1.5Z"/>
      <path data-code="melenkovskij_rajon" data-title="melenkovskij rajon" class="cls-1" d="M46.62,140.12l1.5-1.5,2.5,1-.5-1,2.5-1.5-.5-1h2l.5-1h1.5l.5-.5,1,1.5.5-2.5h1.5v-1.5h1.5v-1.5h4.5l2-2.5v-1l2-.64,2,.5,3-1.5,1,3.5,7.5,5.14-1.5,4,.5,2-1.5.5.5,1,2.5,1,1,3h2v1.5l2,.5.5,2-4,2-1-1.5-2.5,1.5-2.5,2.5-1-2-.5,2-1,2h-5v3h-2v1.5l-.5.5-1.5-1-1.5.5-1.5.5v2h-.5l.5-2-5-2,1-2-2-1,.5-2.5-2-.5-3,.5.5-.5v-2l-1.5-3,.5-3-4.5-2.5h-2.5l-.5-.5,1-.5-.5-1.5"/>
      <path data-code="murom" class="cls-1" d="M84.62,142.12l2-2,.5-1.5,2-1.5,2-1,2.34,2.34-2.34,1.66-1,4-1.5-1.5-3.5,1-.5-1.5"/>
      <path data-code="muromskij_rajon" data-title="muromskij rajon" class="cls-1" d="M84.12,126.12l2.5-.5v-1.5l6,.5,3-2.5-.5,2.5,2.5-1,2,1,1-2.5,1.5-.5.5-1.5,2.5-1-1.5,2,.5,1h1.5l2-2,.5.5-.5,1.5-1.5,1.5.5,2-1.5-1-1.5,1.5,1.5,1.5-2,2v.5l1.5.5,2-.5v1h7l.5,1-3.5,1-1.5,1.5-5-1-2,1.5h-2l-2,2-1.5-1-2,3.5-3.5-3.5-2,1-2,1.5-.5,1.5-2,2,.5,1.5,3.5-1,1.5,1.5-2,1.5.5,2-.5.5-1.5-1v-1.5h-2l-1-3-2.5-1-.5-1,1.5-.5-.5-2,1.5-4-3.05-2.09,2.05-.91,1-1.5-.5-1,1.5-2.5"/>
      <path data-code="petushinskij_rajon" data-title="petushinskij rajon" class="cls-1" d="M7.62,52.99l.5.5v-.5h-.5M5.62,53.49l4.5-1.36,1-1.5,2.5,1,1-1,3,1.5,1.5-.5v1.5h1.5l4.5-3.29-1.01,1.15,2.5.14.5,3.5,3-1,2,2,.5-1.5h1v1l2.5-.5,2,.86-1,2.64,1,.5,3-.5-1,1.36.5,1v2l-2,3.5,1.5,1.5-2.5,2.5-.5,3h-1l-1.5,2-1.5.5-1,2-1.5-1-.5,2h-3l-.5,2-1.5-1-.5-2-1.5.5-2-1.5-2,2.5-1.5-1,1-1.5-1.5-2.5-2.5-.5,1-4,2-.5.5-1h-3l-5.5-5,1.5-1v-2.5l1-.5,1-.5-1.5.5-.5-1.5,2-.5-3.5-.5-1.5-2.5-3,1,.5-1.5Z"/>
      <path data-code="raduzhnyj" class="cls-1" d="M50.12,80.99h3l-.72-2.65,2.72,2.65-2,3-1-.5v2l.5,1-1,2-1.5-1-3,5.5-2.5-1.5.5-2h1l1-1.5-.5-.5.5-1,.5.5,3-4.5-.5-1.5"/>
      <path data-code="selivanovskij_rajon" data-title="selivanovskij rajon" class="cls-1" d="M70.12,118.12l1.5-.5,1.5-2.14-.5,2.5h1.5l2-.5.5-2h2v-1h2l.5-3h1v-1l.5-.5v-1l2.5-3-.5-1.5,2.5-1,5,2.5.5-.5h1l.5,1-.5,2v1l4-1.5,1.5,1,.5,4h2.5l.5.5-1,1.5,1,.5,1-1,1.5,1-1,2,1,1.64-2.5,1-.5,1.5-1.5.5-1,2.5-2-1-2.5,1,.5-2.5-3,2.5-6-.5v1.5l-2.5.5-1.5,2.5.5,1-1,1.5-2.05.91-4.45-3.04-1-3.5-3,1.5-2-.5.5-4.36-.5-.5,1-1,1,1v-.5l-1.5-3Z"/>
      <path data-code="sobinskij_rajon" data-title="sobinskij rajon" class="cls-1" d="M42.12,55.62l2-.5.5,1.5,1-.5-.5-1.5,1.5-1.5-.5-1,2-.64,1.5,1.14-1,1h2.5l.5,5,1.5.5,4-1,.5-.5.5,1-3.5,3.36.5,2-1,1,1.5.5.5,2.5,2,1h-2.5v3l-2-1.5.5,1.5h-1l.5.5-1,.5h2l-1.5,1,.5,2.5-1.22,1.85.72,2.65h-3l.5,1.5-3,4.5-.5-.5-.5,1,.5.5-1,1.5h-1l-.5,2-1,1.5-.5-.5,1-1-2-2.5-3,2-2-1.5-1,1-1-.5.5-1h-5l.5-3.5,2-1.5.5-2.5-3.5-3,.5-2,1.5,1,1-2,1.5-.5,1.5-2h1l.5-3,2.5-2.5-1.5-1.5,2-3.5v-2l-.5-1,2.5-3.36-.5-.5Z"/>
      <path data-code="sudogodskij_rajon" data-title="sudogodskij rajon" class="cls-1" d="M53.62,76.49l4,3,3-1.5.5,1,1-.5.5.5-1,2.5,3,2,1.5-1.5h1.5l1-2,2,2,2-1,1,1.5h3.5l.5,1-1,.5,1,1,2,.5,1-.5,2,3.5,2.24-.08-.24.71-1.5,1,.5.5-.5.5-1,2.86-1.5.5,2,.5v3.5l2.5,1.5-3,.5v.5l3-1,1.5,1-1,1-1-.5-1.5,2,1.5,1,.5,1.5-2.5,3v1l-.5.5v1h-1l-.5,3h-2v1h-2l-.5,2-2,.5h-1.5l.5-2.5-2.5-1.5-2,1-2-.5v-1l-1-1-1,1h.5l-1,.5-1-1h1l3.5-2-.5-3-2.5-1.5.5-1.5h-1.5v2l-1-.5,1-4.5-2-1.5-1.5,1.5-1-.5,2-1-2-2,.5-1-1.5-.5,1-.5-1-1.5-1,.5-.5-2.5h-1.5l-1-2.5-2-1-2.5,1-2.5,2.5,3-5.5,1.5,1,1-2-.5-1v-2l1,.5,2-3-2.72-2.65,1.22-1.85Z"/>
      <path data-code="suzdal_skij_rajon" data-title="suzdal&amp;apos;skij_rajon" class="cls-1" d="M54.62,61.99l3.5-3.36,1.5-.5v-1.5l1-.5,2.5-3,2,1.5-1,2.5,2.5-1.14v-1l1-.5-.5-1.5h2.5l.5-1,6.5-1v1.5l1.5-1,.5,1,3-2,1.5.5,1.5-.5.5,2.5,5,2,.5,2.5h.5l-1,1.5,1,2h-1.5l-.5,2-3-1.5-1,2h-2v1l-2.5,1-1,1.5-1.5.5-.5-1.5-3.5-.5.5.5-.5.5,1.5.5v1.5h1l1,2-3-.5-1,3.5h-1.5v1h-3v2l-1.5-1.5-1,1-.5-2-2-2.5-1,1-2.5-1.5v1.5h-2l-.5-3.5-2-1-.5-2.5-1.5-.5,1-1-.5-2Z"/>
      <path data-code="vjaznikovskij_rajon" data-title="vjaznikovskij rajon" class="cls-1" d="M100.62,90.99l.5-1,4.5-.5v-2l2,.5,2-1,.5-1.5,1,1,2.5-1.86,1.5,1.5-2.5-.64-.5,1,8,.5v1.5l-.5.5-.5,2.5-2,1,3,.5-.5,2h4l.5-1,2.5,1,1.5-2.5,1.5,2h2l2.5,2,1,3,2,1.5.5,2-1.5.5-.5,1.14-1.5.36-1.5,2.64h-1l-1.5,1.5-3.5.5.5,1-2,1-2.5.5v-1l-2-.5-1,2-1.5-.5-1,1-1.5.5v2l-1,.5-1-1-2,.5-.5,1.5,1,1.5-1.5,2h-2.5l-.5-.5-2,2h-1.5l-.5-1,1.5-2-1-1.64,1-2-1.5-1-1,1-1-.5,1-1.5-.5-.5h-2.5l-1-2.5v-1.5h.5l-.5-1,.5-.5-5.5-5h2l1-2-1-.5h.5v-1l2-2.5,5,.5.5-1,.5-.5h-.5l.5-1.5-2-2.5-1.5-.5"/>
      <path data-code="vladimir" class="cls-1" d="M53.62,70.49l2,1.5v-3h2.5l.5,3.5h2v-1.5l2.5,1.5,1-1,2,2.5.5,2,1-1,1.5,1.5v-2l2.5-.5.5,1.5-1.5-1-2,3.5.5,2.5-.5-.5-1,2h-1.5l-1.5,1.5-2-1-1-1,1-2.5-.5-.5-1,.5-.5-1-3,1.5-4-3-.5-2.5,1.5-1h-2l1-.5-.5-.5h1l-.5-1.5"/>
    </g>
</svg>