<svg data-code="RU-UD" xmlns="http://www.w3.org/2000/svg" viewBox="0 0 154.75 187.75">
    <g data-code"udmurtskaja_respublika" data-title="udmurtskaja respublika">
      <path data-code="alnashskij_rajon" data-title="alnashskij rajon" class="cls-1" d="M32.62,147.12l2.5-1,1,1,2-1v-2l1-.5,6.5,1,1.5-1-.5-1,.5-2h1.5l.5,1,.5,3,2.5.5-.5,1,.5.5-1,.5-.5,1-1.5-1.5v.5l-2.5,1.5v1.5l5,3v1.5l2.5,2.5h-.5l-.5,1,1.5,1.5-3.5,1,2,1.5-2.5,1.5-2.5-5.5v1.5l-1,.5,1,1-1,.5.5,1.5-2,3-.5.5v1l-2.5-1.5-.5-3.5-2-1v-2h-1l-1-2.5-1.5,1,1.5,3-2.5.5v-2h-2v-4h-1.5l-.5-1v-1.5l1-1.5-.5-1,1-.5,1-1-1.5-2"/>
      <path data-code="balezinskij_rajon" data-title="balezinskij rajon" class="cls-1" d="M101.12,50.62l1.5-.5,1-1.5-.5-1,2.5-.5,1.5-2,1,.5.5-1.5h-.5l2.5-1.5.5-1.5h4l2-1.5-1.5-1.5,1-1.5,1,.5,1.5-1,2,4,1-2,2,1,2-1v-.5l.5-.5h1l-1-2.5-2-1v-1.5h2.5l-1.5-3,1-1.5-1.5-.5-.5-1.5,1-2,1.5.5,9-11.5,1,1-1.5,2,1,1-2.5,2.5,2.5,2-2,2,4.5,3.5,2.5-1,.5-1,3-.5,2.5,2-1,1.5,3-3-.5,1.5.5-1,4.5,3.5-1.5,2h-1l-2,2-1.5-1h-4.5l-1.5,2.5-2-1-3,2-.5,2,1.5,1.5-1,1-.5,3-3.5-1.5.5.5-1.5.5,1.5,1.5-1,.5-.5,1.5-1.5-.5-.5,2.5-1-.5v1l1.5,1-1,1v1.5l-2.5,1.5h-2l-1.5,2h-1l1.5,1-1,1.5.5,2-.5-.5-.5,1-1,.5-1,1.5h.5l-3.5,4-2.5-1.5-1.5,2-1-1-2,1-5-4-1,1.5-2.5-2.5,1.5-2-1-1h1.5l.5-1.5-1-1,.5-1-1,.5-2-5"/>
      <path data-code="debjosskij_rajon" data-title="debjosskij rajon" class="cls-1" d="M121.62,76.12l-1.5-3,3-3.5h1.5l2.5,2.5-.5-2,2-.5,3.5,2.5,1,1-.5,1,2-1,1,1.5,4-1.5,1.5,2.5,1.5-1.5.5,1.5h2v1.5l-1.5,2-1-.5.5,2.5-.5.5-1-.5-2.5.5-1,2.5-.5-.5,1.5,3-2.5-.5v1h-1l-1.5-.5v.5l-1,1,2.5,1-.5,1h-.5v1h-1l.5,1-3-2.5-2,1-2.5-.5-.5,2h-1.5v1l-6-4,.5-1.5-2.5-3.5h4.5l.5-1,1-.5v-1.5h-3l-.5-1,.5-1.5-1.5-.5.5-2h3Z"/>
      <path data-code="glazov" class="cls-1" d="M105.62,28.62h1v-1.5h.5l3,.5,1.5,2-.5,1.5,1.5,1-2.5.5.5,1h-2.5l.5-.5-.5-1h-1.5l-1-3.5"/>
      <path data-code="glazovskij_rajon" data-title="glazovskij rajon" class="cls-1" d="M105.62,28.62l1,3.5h1.5l.5,1-.5.5h2.5l-.5-1,2.5-.5-1.5-1,.5-1.5-1.5-2-3-.5h-.5v1.5h-1M96.62,27.12l2-.5v-1l.5-.5,3-3-1-1,2,1,1-1-.5-.5,1.5-1.5v-1l6-8.5,5.5,4,.5,1.5v-1l5.5,4,6-8,6,3.5.5-1.5,1,.5-9,11.5-1.5-.5-1,2,.5,1.5,1.5.5-1,1.5,1.5,3h-2.5v1.5l2,1,1,2.5h-1l-.5.5v.5l-2,1-2-1-1,2-2-4-1.5,1-1-.5-1,1.5,1.5,1.5-2,1.5h-4l-.5,1.5-2.5,1.5h.5l-.5,1.5-1-.5-1.5,2-2.5.5.5,1-1,1.5-5-2v-2.5l.5-.5-1.5-1.5,1.5-1.5-3-3.5,2-2.5-1.5-.5v-1.5l-1-1h.5v-1l3.5-.5-3-3,1-1.5"/>
      <path data-code="gorod_votkinsk" data-title="gorod votkinsk" class="cls-1" d="M116.62,117.99l2-2.5-1,1.5,2,1v1l2.5.5-1,.5.5,1.5-1.5,1h-1.5l-.5,1.5-2.5,2-1-3,1-1-3-3,3-1.5-2-3,3,3.5Z"/>
      <path data-code="grakhovskij_rajon" data-title="grakhovskij rajon" class="cls-1" d="M29.12,154.12l-.5,1,1,.5.5-2-1,.5M5.62,147.62h.5l3.5-2.5,5,.5.5-1.5,3.5,1.5,1.5-1,1.5.5-1-1,3-2.5h1.5l1.5,1-1-1.5,4-1.5,4,3-1,3,1.07,1.07-1.07.43,1.5,2-1,1-1,.5.5,1-1,1.5-1-.5v4l-1-.5-1,1h.5v.5l-1-.5-1,2.5,1,.5-.5,1.5-2.5-.5v1h-1.5l-.5,1.5-3-1.5v-1.5h1l-.5-3,.5-.5-1.5-.5v-1.5l-.5-.5-2,2-2,.5-1-1.5-2,.5-2,2,.5-2.5,1-.5-2-1.5,1.5-.5.5.5.5-1.5-1.5-.5-1,2-1-.5v-2.5l-2.5.5-.5-1v-2.5"/>
      <path data-code="igrinskij_rajon" data-title="igrinskij rajon" class="cls-1" d="M75.62,74.99l4.2-6.68,2.3,1.31,1.5-2,1,.5,1.5-2,8,5,.5-1.5,1,.5,6.5-8.5,2.5,2.5,1-1.5,5,4,2-1,1,1,1.5-2,2.5,1.5,1-1,3,1.5-1.5.5,3,2.5-3,3.5,1.5,3h-3l-.5,2,1.5.5-.5,1.5.5,1h3v1.5l-1,.5-.5,1h-4.5l1,.5-3,6h-2.5v1.5l-1.5.5-3-2-1,1-2-1-1,2-2.5-1.5-.5,1-3.5-2-.5,1-6.5-4,3-4.5-5.5-3h-3l.5-2-1-1-2.5,1.5-1-.5.5-.5v-1l-5.5.36-1-1,1-.5Z"/>
      <path data-code="izhevsk" class="cls-1" d="M84.62,112.49l1-2,2.05-.99.49.38-2.55,1.11-.5,2,1.5,1,1-1h1l3,4.5-.5,2,3,.5-1,1.5-2.5-1-1,2.5v1l-1.5-.5-.5,2h1.5l-.5,2-1,.5-.5-1.5-1-.5-4,3.5v-1l1-.5-.5-1.5,1-2-1.5-1-1,1-2-3,1.5-3.5,2,.5,1-1-1-.5,1-1.5,1-2.5-2-.5h2Z"/>
      <path data-code="jakshur-bod_inskij_rajon" data-title="jakshur-bod&amp;apos;inskij_rajon" class="cls-1" d="M76.62,80.99l2-.5h2.5v-1.5l.5-.86,2.5-1.5,1,1-.5,2h3l5.5,3-3,4.5,6.5,4,.5-1,3.5,2,.5-1,2.5,1.5,1-2,2,1,1-1,2.2,1.47-1.2,1.4,1,2.5-3.5,3.5,2,3-2,2.5-.5,1.5h-1l-4.5,3.5-.11,1.94-3.39-2.8-3,5-13.5-10.5.5-.5-2-2.14,1-4,.5-1h-.5l3-4-6-3.5.5-.5-1-3,1.5-2-1.5-.5.5-1.5Z"/>
      <path data-code="jarskij_rajon" data-title="jarskij rajon" class="cls-1" d="M79.12,15.12l.5-1.5,3.5-2v-2l4.5-1,.5-2,1-1-1-.5,1-1-.5-.5,2.5.5,6-3.5,8,1,2.5,3.5v2.5l3.5,2-6,8.5v1l-1.5,1.5.5.5-1,1-2-1,1,1-3,3-.5.5v1l-2,.5-1,1.5-.5.5v-1.5l-2.5-1-2.5.5-2,1.5-2.5-1-1,1-3-.5-1-2-1.5-1v-1l2.5-1.5.5-6-2,.5-1-2"/>
      <path data-code="jukamenskij_rajon" data-title="jukamenskij rajon" class="cls-1" d="M73.62,36.62l1-.5v-1l1-1v-2l2.5-.5,2.95-3.64,3.55.64,1-1,2.5,1,2-1.5,2.5-.5,2.5,1v1.5l.5-.5,3,3-3.5.5v1h-.5l1,1v1.5l1.5.5-2,2.5,3,3.5-1.5,1.5,1.5,1.5-.5.5v2.5l-2,.5-.5-2.5-1.5.5-2.5.5-.5,2.5-2.5-.5-.5,1v-1.5l-3.5-.5-3-4-1.5.5-4.5-2v-1.5l1-2-2.5-2.5"/>
      <path data-code="kambarskij_rajon" data-title="kambarskij rajon" class="cls-1" d="M101.12,159.62l2,2.5,1.5-1-1.5-2-2,.5M97.12,153.99l-.5,2h3.5v1l4.5.5,1.5,1.5-1,2h1l-3,1.5,1.5.5,1.5-1v2l3.5-2.36h2l-1.5,5.5v2l-1,1-1.5,3,2,1-1.5.5-1,2.5-2.5-.5v1h-3.5l-.5.5-2-.5v-11.64l-4.5-6,1.5-6h1.5Z"/>
      <path data-code="karakulinskij_rajon" data-title="karakulinskij rajon" class="cls-1" d="M57.62,179.12l1.5-.5,3,1.5-.5-1,2.5-2v1l2-.5-.5-1,.5-.5,1,1h2.5l.5-1-.5-1,.5-1,4-3.5,1,2,2-1.5,1-2-.5-1,1.8-2.76,1.7,3.12h2.5l1.5,5,1-1v-1l3-.5,1,4,1.5-1,.5,2,2.5-1,4.5,3.14-6.5,3.5-3,3.5-2.5,1.5-1.5-.5-3-4.5-1,2-2,1v1.5l-3.5-1.5-1.5,2.5h-1l-4-.5-1-1-3,1-1.5-.5-1.5.5,1,.5h-1l-5-3,1-.5-1-.5,1-1.5-1-.5v-2"/>
      <path data-code="kezskij_rajon" data-title="kezskij rajon" class="cls-1" d="M122.62,55.12h1l1.5-2h2l2.5-1.5v-1.5l1-1-1.5-1v-1l1,.5.5-2.5,1.5.5.5-1.5,1-.5-1.5-1.5,1.5-.5-.5-.5,3.5,1.5.5-3,1-1-1.5-1.5.5-2,3-2,2,1,1.5-2.5h4.5l1.5,1,2.5-2.5,1,3-.5,1v1.5h-.5l1,3.5-2,1.5-4,1.5,2.5,5.5-1.5,1,1.5,2-1.5,2-.5,1.5,1,2,1.5,9-3,2,.5,3.5-.5.5-.5,2-1.5,1.5v1h-2l-.5-1.5-1.5,1.5-1.5-2.5-4,1.5-1-1.5-2,1,.5-1-1-1-3.5-2.5-2,.5.5,2-2.5-2.5h-2l-2.5-2.5,1.5-.5-3-1.5,2.5-3h-.5l1-1.5,1-.5.5-1,.5.5-.5-2,1-1.5-1.5-1"/>
      <path data-code="kijasovskij_rajon" data-title="kijasovskij rajon" class="cls-1" d="M61.62,160.12v.5l.5-.5v-.5l-.5.5M62.12,160.12l.5.5.5-1-1,.5M60.62,152.12l2.5-1.5-.5-1.5h.5v-1l1.5-.5.5-1h.5l1.5-2.5h3.5l1-1.5,1,1,1-.5,1,.5-2.5,4.5,1,2.5v-1l3-2h1.5l2.5,3-1.5.5v1l-2-.5-.5,2h-1.5l2.5,2-1,2-.5,3-7-1,1.5,2,.5,3.5-1,3.5-1.5,1,1,2-1-.5-.5,1.5-2.5-1.5.5-2.5-2,.5-1-2.5,1-3h-3v2l-1-1.5.5-1.5,1.5-1-1.5-.5h1v-2h1l-.5-1.5h-.5l1,1h-2v2.5l-1-1,.5-1.5h1l-1-1v-2l1.5-2.5.5,1.5.5-1.5-1.5-1"/>
      <path data-code="kiznerskij_rajon" data-title="kiznerskij rajon" class="cls-1" d="M8.63,108.62l2.5-1.5v-1.5l5-7,9.5,7,1.5,1.5-1.5,1.5,1,1,.5-2,2,.5.5,2-1.5,2,.5,1-1.5.5,1,4-.5,1.5,1.5.5,4-1.5.5,3.5,4,1.5h-1.5l-.5,2.5-2.5,1.5-.5-.5.5.5-4,3.5-3,1-.5,3h-1.5l2.5,2.5h-2v1.5l-1.5.5.5,2.5-3,2.5,1,1-1.5-.5-1.5,1-3.5-1.5-.5,1.5-5-.5-3.5,2.5h-.5l-.5,2-2.5-1v2l-.5-1.5-1.5,1,.5.5v.5l-.5.5v-4.5l1-2.5-.5-2-.5-1.5,1,3.5.5-2h1l.5.5,2.5-1,5.5,1,1.5-2.5-6.5-3,1-2-.5-.5,1.5-1.5h2.5l-1-2-2-.5-1,1-1-1,2-.5,2.5-3.5-1-.5.5-1-1-1,.5-.5-1.5-1-.5.5,1.5-2.5h-.5l1-1-.5-1,2.5-2-3.5-2.5.5-1-.5-3,1.5-2h-1"/>
      <path data-code="krasnogorskij_rajon__udmurtskaja_respublika_" data-title="krasnogorskij_rajon_(udmurtskaja_respublika)" class="cls-1" d="M64.62,52.12l3-1.5,2-3.5,1-.5v-1l1-.5-.5-.5h2l.5-1h1.5v-1h1.5l3,2,1.5-.5,3,4,3.5.5v1.5l.5-1,2.5.5.5-2.5,4-1,.5,2.5,2-.5,5,2-1.5.5,2,5,1-.5-.5,1,1,1-.5,1.5h-1.5l1,1-8,10.5-1-.5-.5,1.5-8-5-1.5,2-1-.5-1.5,2-3.5-2,1-1-3-3-1.5.5-1-1.5h-2l-1,1-5.5-4.5,1-1.5-1.5-1,1.5-1.5-1.5-.5,1.5-2-2-.5"/>
      <path data-code="malopurginskij_rajon" data-title="malopurginskij rajon" class="cls-1" d="M55.12,130.62l3.5-2,1,.5v-1l2.5-2-1-.5,1-.5-.5-.5,1-1-.3-.75,2.8-2.38-.5,1.5,2-1,1.5,1.5,1.5-.5,1,4.5,5,4h-1.5l-1,1,.5,1.5,1,.5,1.5-1.5,3,.5-1,1,3,2.5.5,1.14,1-1.14,3.5,4.5-1,1v1.5l-2,2-2-1v1.5l-1.5.5,1,1.5-1.96,1.37-2.54-1.23-3,2v1l-1-2.5,2.5-4.5-1-.5-1,.5-1-1,.5-2.5,1,1.5,1.5-1-1.5-1-1,.5v-1.5l-1-.5h1-1.5l-2-2v1.5l-2,1.5-1.5-2v2l1.5.5-1,1,1,1-1,2-.5-1-1.5,2-2-.5-2,.5v-1.5l-1-.5-.5,1-1.5-.5,1,.5-.5,1-2.5-1.5-.5-3,.5-.5-1.5-1,2.5-3v-1.5l1.5-1h-1l1.5-1.5-2.5-1"/>
      <path data-code="mozhga" class="cls-1" d="M40.12,129.62l5-1,.5,1.5-2,.5v1.5l-1.5.5-2-1.5.5-1-.5-.5"/>
      <path data-code="mozhginskij_rajon" data-title="mozhginskij rajon" class="cls-1" d="M40.12,129.62l.5.5-.5,1,2,1.5,1.5-.5v-1.5l2-.5-.5-1.5-5,1M24.12,134.62h1.5l.5-3,3-1,4-3.5-.5-.5.5.5,2.5-1.5.5-2.5h1.5l-4-1.5-.5-3.14,1,1,1.5-2.5-.5-.5,1-2,2-1.5,5,2,1-.5.5-1.5-.5-.5,2.5-1-.5,1.5,3.5,1.64,1.5,3.5-1,1.5,2.5,2,4.5-1.5,4.5,1,1,2.5-1,1,.5.5-1,.5,1,.5-2.5,2v1l-1-.5-3.5,2,2.5,1-1.5,1.5h1l-1.5,1v1.5l-2.5,3,1.5,1-.5.5.5,3,1.5,1-1.5,2-.5-.5-1.5.5.5,1-1.5-1,.5-1-2.5-.5-.5-3-.5-1h-1.5l-.5,2,.5,1-1.5,1-6.5-1-1,.5v2l-2,1-1-1-1.43.57-1.07-1.07,1-3-4-3-4,1.5,1,1.5-1.5-1h-1.5l-.5-2.5,1.5-.5v-1.5h2l-2.5-2.5"/>
      <path data-code="sarapul" class="cls-1" d="M88.12,154.49l1.5-1.5,1,.5.5-2.5,1,3.5-.5-3,1.5.5v1l1-1.5h2l.5-1,.5,3.5-.5,1-1-1-1,4-1-1.5h-2l-3.5-2"/>
      <path data-code="sarapul_skij_rajon" data-title="sarapul&amp;apos;skij_rajon" class="cls-1" d="M74.62,153.62h1.5l.5-2,2,.5v-1l1.5-.5-1.46-1.77,1.96-1.37-1-1.5,1.5-.5v-1.5l2,1,2-2,2,1v1.5l1.5-1v-1.5l1-2.5,2-1v-.5l3.5,1.5,1-.5.5-3,3,1.5,4-2,1,.5-1.5,2.5,1.5.5-1.5,2.5.5.5-2.5.5-.5,2.5-.5-1-1,2,4,1.5,5-.5-3,3,1-.5v1.5l1,.5-1,2,2.5,2-.5,1.5v1.5l-.5,1.5,2,1.5-3.5,1.5v-2l-1.5,1-1.5-.5,3-1.5h-1l1-2-1.5-1.5-4.5-.5v-1h-3.5l.5-2-.5-3.5-.5,1h-2l-1,1.5v-1l-1.5-.5.5,2v1l-1-3.5-.5,2.5-1-.5-1.5,1.5,3.5,2h2l1,1.5-.5,2,4.5,6,.5,11.5-1,.5-3.5-3-2.5,1-.5-2-1.5,1-1-4-3,.5v1l-1,1-1.5-5h-2.5l-2-3.5v.5l-2.5-1-.5-3.5-2-.5h1.5l.5-2.5,1-2.36-2.5-2M101.12,159.62l2-.5,1.5,2-1.5,1-2-2.5M100.12,145.99h1.5l.5-1.5,3,2.5,2-2v1l2,1.5h-2l-4,1-3.5-1.5.5-1"/>
      <path data-code="seltinskij_rajon" data-title="seltinskij rajon" class="cls-1" d="M45.12,64.49v-.5l3-.5-.5-1,4.22-6.09,3.78.09,1.5-3.5,2.5,2.5,2-.5,1.5-2.5,2,1.5.5-1-.5,1.64,1.5.5-1.5,1.5,1.5,1-1,1.5,5.5,4.5,1-1h2l1,1.5,1.5-.5,3,3-1,1,1.2.69-4.2,6.68-1,.5,1,1,5.5-.36v1l-.5.5,1,.5-.5.86v1.5h-2.5l-2,.5-2.5-1.5-1,1.5-4.5,2.5-1.5,2-2,1-3-.5-.5-1.5-1,.5-2.5.5-.5-2.5-1.5.5.5-1v-1.5h-2.5l-2-2h.5l.5-1.5-3.5-3,1-1.5-3.5-2.5.5-.5-.5-1.5h1.5l.5-2.5h-1l.5,2-1.5-1,.5-.5-.5-1-2.5.5-.5-1,1-.5Z"/>
      <path data-code="sharkanskij_rajon" data-title="sharkanskij rajon" class="cls-1" d="M109.83,92.09l.8.53,1.5-.5v-1.64l2.5.14,2.75-5.45,1.75,2.45-.5,1.5,6,4v-1h1.5l.5-2,2.5.5,2-1,3,2.5.5-.64,2,.5,1.5,1.5-1,1.5-1.5.5,3.5,3.5-.5,1.5.5.5-4,1-1.5-1-1.5,1,.5,1-1.5,1-1.5,5-1.5,1-1-.5-3,2.5-2-.5-1,1,1,.5-.5,2-.5-1.5-2.5,2v-2l-3,.5v-1l2-1-6-5,1,2.5v1l-1.5-3.5-5-2,2-2.5-2-3,3.5-3.5-1-2.5,1.2-1.4Z"/>
      <path data-code="sjumsinskij_rajon" data-title="sjumsinskij rajon" class="cls-1" d="M32.12,62.99l5.5-7.5,2.5-4,2-.5v1l6,1.5,4,2.5-4.5,6.5.5,1-3,.5v.5l-1,.5.5,1,2.5-.5.5,1-.5.5,1.5,1-.5-2h1l-.5,2.5h-1.5l.5,1.5-.5.5,3.5,2.5-1,1.5,3.5,3-.5,1.5h-.5l2,2v1l-1,.5v2.5l-1.5.5-.5,1.5h.5l-2,.5.5.5-2,1-.65,1.2-.35-.2v-1.5l-.5.5v.5l-.5,1.5h-1.5l.5-1.5-2,.5-1.5-1v1l-1.5,1.5-7.5,2,.5-1.5h.5l-1-1,.5-2-1.5,1-1.5-1.5h1l1-2-2.5-1,1-1.5-.5-2.5,1-1.5-1-.5.5-1.5-2-1,2-1-.5-1.5,2.5-3-1.5-1,2.5-3.5-1-.5,1.5-2.5-2-1"/>
      <path data-code="uvinskij_rajon" data-title="uvinskij rajon" class="cls-1" d="M48.12,88.99l2-1-.5-.5,2-.5h-.5l.5-1.5,1.5-.5v-2.5l1-.5v-1h2.5v1.5l-.5,1,1.5-.5.5,2.5,2.5-.5,1-.5.5,1.5,3,.5,2-1,1.5-2,4.5-2.5,1-1.5,2.5,1.5-.5,1.5,1.5.5-1.5,2,1,3-.5.5,6,3.5-3,4h.5l-.5,1-1,4-3,.5,1,.5-4.5,3-1,5-1,1v.5l-3,1.5.5,5.5-1,1-4.3,3.38-1.2-1.38-4.5-1-4,1.5-2.5-2.36,1-1.5-1.5-3.5,1-2.64,3-4,.5.5v-1l2-.5-5.5-1.5,1.5-2.5-1.5-.5.5-1.5-4-2,1.5-1-1-2.5,1.5-.5-1-.5,2-1.5-.5-1h1l-3.15-1.8.65-1.2"/>
      <path data-code="vavozhskij_rajon" data-title="vavozhskij rajon" class="cls-1" d="M25.62,96.99l4-.5,1.5-2.5h2l-.5-.5,7.5-2,1.5-1.5v-1l1.5,1,2-.5-.5,1.5h1.5l.5-1.5v-.5l.5-.5v1.5l3.5,2h-1l.5,1-2,1.5,1,.5-1.5.5,1,2.5-1.5,1,4,2-.5,1.5,1.5.5-1.5,2.5,5.5,1.5-2,.5v1l-.5-.5-3,4-1,2.64-2.5-.14-1-1.5.5-1.5-2.5,1,.5.5-.5,1.5-1,.5-5-2-2,1.5-1,2,.5.5-1.5,2.5-1-1-4,1.14-1.5-.5.5-1.5-1-4,1.5-.5-.5-1,1-1.64v-2l-2-.5-.5,1.64-1-1,1.5-1.5-5-3.64,2-3,1.5-3.5"/>
      <path data-code="votkinskij_rajon" data-title="votkinskij rajon" class="cls-1" d="M100.12,109.99l4.5-3.5h1l.5-1.5,5,2,1.5,3.5-1-3.5,6,5-2,1v1l3-.5v2l-2,2.5-3-3.5,2,3-3,1.5,3,3-1,1,1,3,2.5-2,.5-1.5h1.5l1.5-1-.5-1.5,1-.5-2.5-.5v-1l-2-1,1-1.5,2.5-2,.5,1.5.5-2-1-.5,1-1,2,.5,3-2.5,1,.5,1.5-1,1-3,1,.5.5,1.5,4,1.5-1,1.5v1l-1.5,1.5.5,1.5-1.5,1.5v2.5l-1.5,1-1,2-.5-1-.5,2.5,2,3-.5,1,1,1-3.5,2.5-2.5-.5-2-2.5-2.5-.5-2,4-2,1.5-.5-.5-1,2.5-2,2.5-3.5,2.5-1-.5-1.5-1.5.5-4-3.5-2,1.5-2.5-5-.5-1.5-1.5.5-3-4-.5,1-3,6.5.5v-1.5l-2.5-2-1.5,1,.5-9"/>
      <path data-code="zav_jalovskij_rajon__udmurtskaja_respublika_" data-title="zav&amp;apos;jalovskij_rajon_(udmurtskaja_respublika)" class="cls-1" d="M67.12,112.99l3-1.5v-.5l1-1,1-5,4.5-3-1-.5,3-.5,2,2.14-.5.5,7.55,5.87-2.05.99-1,2h-2l2,.5-1,2.5-1,1.5,1,.5-1,1-2-.5-1.5,3.5,2,3,1-1,1.5,1-1,2,.5,1.5-1,.5v1l4-3.5,1,.5.5,1.5,1-.5.5-2h-1.5l.5-2,1.5.5v-1l1-2.5,2.5,1,1-1.5-3-.5.5-2-3-4.5h-1l-1,1-1.5-1,.5-2,2.55-1.11,5.45,4.11,3-4.86,3.39,2.8-.39,7.06,1.5-1,2.5,2v1.5l-6.5-.5-1,3,4,.5-.5,3,1.5,1.5,5,.5-1.5,2.5,3.5,2-.5,3.5-.5-3.5-2-1.5-1,1,1,.5-1.5,1v1.5l-4,2-3-1.5-.5,3-1,.5-3.5-1.5v.5l-2,1-1,2.5v1.5l-1.5,1v-1.5l-2-1v-1.5l1-1-3.5-4.5-1,1.14-.5-1.14-3-2.5,1-1-3-.5-1.5,1.5-1-.5-.5-1.5,1-1h1.5l-5-4-1.5-3.5.5-1-1.5.5-1.5-1.5-2,1,.5-1.5,1.5-1,1-1-.5-5.5"/>
    </g>
</svg>