<svg id="RU-AST" xmlns="http://www.w3.org/2000/svg" viewBox="0 0 147.45 254">
      <path data-code="AST-AKH" d="m72.2,5.4l1,1,1.5-1,1.5,2.5,2-.5.5,1.5,4.5-1,1,1.85-1,1.5.5,3.5.5.5-.5-1.5,1-.5h1.5l1.5,6,3.5,2,.5,3,15.5,13.5,11.5,16.65h1.5l4.5,6.5-2.5,2.5-1,4.5-3,2.5,3.5,4-1.5,1-1-1-2,1-5,1v11l-2.5.5v1.5l-5.5,1-11.5,1-.5-2-3,.5-1.5-13.5.5-2-1-2-4,.5v-7l-1.5.5-.5,2.5-1.5-1,.5-2.5-1.5-1.5,5.5-3.5v-1l1-.5v-2.5l1-5-1.5-7,2-2.5-1-1,2-1.5-1.5-2.5-3,.5.5-5.5-3-1v-3l-5.5-.5v-3l1-1.5-.5-6.5-4-1.5.5-3-2.2-.75-2.5-2-.5,1.5h-1l1-2.5-1.5-2-1.5-.5.5-1-1-.5,1.5-1,3.5.5-.5,1,2.2,2,2-1.25Z"/>
      <path data-code="AST-CHE" d="m45.7,14.4l1.5-1,3-3.5,1,.5,2-4,1.5.5,2-.5-.5-1,2-.5,2.5,2,1.5-2.5,1.5,1.5-2,1.5,2,.5,1,3,1,1-.5,1,4-2,3,1-.5,3,4,1.5.5,6.5-1,1.5v3l5.5.5v3l3,1-.5,5.5,3-.5,1.5,2.5-2,1.5,1,1-2,2.5,1.5,7-1,5v2.5l-1,.5v1l-5.5,3.5-8.5,2.5-1,2.5-2,1-7-1.5-2-1.5,1-7-1-2,3-6.5,4-3.5-1-3-7-1.5-2.5-9.5-4-3,1-4-2.5-3.5,2-1.5-5.5-7.5"/>
      <path data-code="AST-ENO" d="m60.2,68.4l7,1.5,2-1,1-2.5,8.5-2.5,1.5,1.5-.5,2.5,1.5,1,.5-2.5,1.5-.5v7l4-.5,1,2-.5,2,1,3.5.5,10-.45,4.75-3.55-2.25-17.5,5-4.5-3-4.5-14-.5-7.5,2-4.5m12.5,32.5l7.5-1.5,9.5-1,2.5,1.5-2.5,3,.5,3.5h-2l-.5,1,3.5,3.5-.5,5,2-.5v6l1,2-1,4.5-3,.5,3,12,2,1.5v-4l1.5.5.5-1,1,2.5-.5,3.5,1,2.5,3,.5-2.5,1.5-1,3-2.5,3.5,5.5,2.5v1l-2.5,2,1,1.85-2,2.5-1-2-6,2-3.5-5-2,3.5h-5l-8.5-3,.5-2.5-3-2-4,3.5-7.7,2.55.7-5.45,7-4,4-7,1.5-1,3.5-7.5-5-5,1-4-1-2,4-24.45"/>
      <path data-code="AST-AST" d="m84.7,198.75h3l.5-1,1.5-.5v-.5l1-1v-1l2.5.5v-2h-1.5l1.5-4.5,1.5.5-1,2.5,1.5,4,1.1-2.5h.9l.5-1,2.5,2.5v4.5l-1.5-2.5-.5,1,1,1.5-1.5-.5-2,2-1.5-1.5-2,.5.5,1.5-1.5-1-.5,1.5-2-1.5-.5,1-2-.35-1.45-.65-1.05-.95h1.5l-.5-.55Z"/>
      <path data-code="AST-IKR" d="m52.7,196.4l.5-1,3,2,.5-1-1.5-1,14,4.85,1-.5-1.5-2,1.5-2,4,3.5,2.5-2,6.5,3.5.5-1,2.5,1.15-2.5,1.85-3.5,1.65-.5,1.5h-3.5l1,1.5-2,2.5-3,.5-1,2-1.5.5.5.5-1.5,3.5.5,3-4,2,2.5,2-.5,1.5-1,5-3,5.5h-1l1-2-2.5,3,2,2.5-.5.5-4,8-1.5.5-1-1.5,2-7.5-1,1-1.5-.5-3.5,6,.5-4,1-.5-1-.5,1.5-1.5-1-.5,2-4-.5-2,1.5-1-1-3,1-2v-3.5l1.5-2.5-2.5-2,1.5-.5.5-1.5h2.5l.5-2,1.5-.5-.5-2,1.5.5.5-1-2.5-3,1.5-2-6-4.5-1,1-2-3.5v-3.5"/>
      <path data-code="AST-KAM" d="m71.2,212.4l1-2,3-.5,2-2.5-1-1.5h3.5l.5-1.5,3.5-1.65v3l1.5,1,.5,2.5h-1l.5.5.5,1,1-1.5,2,1.5.5,1.5h1.5l.5,3.5,2-4,1,2,1.5-.5.5-1,4.5,1.5,2,4.5-1,.5.5,1.5-1,4.5,1.5,3-1.5,4-1.5,2-1,6-6,12-2.55-1.25.55-1.1-3,.85-7-4.85-1-3-5.5-.5-4.35-.1-3.35-4.65,1.7-.75-1.5-1.5h-3l2.5-4.5,1-5,.5-1.5-2.5-2,4-2-.5-3,1.5-3.5-.5-.5,1.5-.5Z"/>
      <path data-code="AST-KHA" d="m89.2,89.9l3-.5.5,2,11.5-1,5.5-1v4l4,9,5-5.5,1.5-3,7,10,11.5,6.5,2,.5,3,2.5,1.5,5.5-.5,13-15.5,22-6-1.5-4,7.5-5-2.5-6.5-.5-.5,3.5-8,1.35-1-1.85,2.5-2v-1l-5.5-2.5,2.5-3.5,1-3,2.5-1.5-3-.5-1-2.5.5-3.5-1-2.5-.5,1-1.5-.5v4l-2-1.5-3-12,3-.5,1-4.5-1-2v-6l-2,.5.5-5-3.5-3.5.5-1h2l-.5-3.5,2.5-3-2.5-1.5-1-3,.5-5.5"/>
      <path data-code="AST-KRA" d="m107.2,160.4l.5-3.5,6.5.5,5,2.5,4-7.5,6,1.5,15.5-22v9l2.5,1.5-3.5,25,.5,25.5-6,2-6.5-3-.5-3,.5-1.5-.5-2.5-4-1.5-3,.5-2,3.5h-1l-.5.5,2,2.5-1,2.5,2.5,1.5h-4v1.5l8,6-.5,4.35-.7-.1-2.8-1.9h-5.5l-.5-4-1.5-1-2,2.5-2.5-3v-2l-5,2v-4l-3,2-.5.5,1-1.5h-1.5l-1-4,.5-1.5,1-1-1-2v-1l1-.5-3.5-.5-1.5-4,2-.5-.5-2.5,1-2-1-1.5.5-.5v-2l2-1.5-3.5-4,2.5-1.85.5-2-.35-1.6,5.35-.9Z"/>
      <path data-code="AST-LIM" d="m10.7,185.4l2-2.5,6.5,3,7-12,5.5-5.15,2,3-5,4.5-3,4,7,5.5,1.5-2,3.5,4,2.5-3.5,12.5,5,5,4.5.15,2.55-2.65-.95,1.5,1-.5,1-3-2-.5,1v3.5l2,3.5,1-1,6,4.5-1.5,2,2.5,3-.5,1-1.5-.5.5,2-1.5.5-.5,2h-2.5l-.5,1.5-1.5.5,2.5,2-1.5,2.5v3.5l-1,2,1,3-1.5,1-.5-.5-1,2-1.5.5h-1.5l1-1-.5-1,.5-1-1-4-2,1-7-6-1,1h-4l-9-5.5-2,1-6-1-1-2,.5-2-3-2,1.5-1.5-6-6.5v-.5l4.5-3,1.5-2.5-5-4.5-1-8.45m34,51.5l.5-4,2-2.5,1.5,2-3.5,3v1.5h-.5M.2,217.4l1.5-2,8,3,2.5-2.5,4.5,2.5-1,1.5,4.5,2.5-4,4-1.5-3-5.5-3.5-2.5,2-2-.5.5-.5-5-3.5m53.5,19l-1,2.5,1-2.5"/>
      <path data-code="AST-NAR" d="m29.7,164.25l5.5-1.5,1,2.5,7.5-3,7.5,3.5,4,3,2-5v-2.5l7.5-2.5,4-3.5,3,2-.5,2.5,8.5,3h5l2-3.5,3.5,5,6-2,1,2,2-2.5,2.65-.45.35,1.6-.5,2-2.5,1.85,3.5,4-2,1.5v2l-.5.5,1,1.5-1,2,.5,2.5-2,.5,1.5,4,3.5.5-1,.5v1l1,2-1,1-.5,1.5.4,1.65-3.4-1.15v-2h-1l1.5-1.5-1-1-3.5,1.5,2,2-2,4.5-1.5-4,1-2.5-1.5-.5-1.5,4.5h1.5v2l-2.5-.5v1l-1,1v.5l-1.5.5-.5,1h-3l.5.5h-1.5l1.05.95-1.05-.45-.5,1-6.5-3.5-2.5,2-4-3.5-1.5,2,1.5,2-1,.5-11.35-3.95-.15-2.55-5-4.5-12.5-5-2.5,3.5-3.5-4-1.5,2-7-5.5,3-4,5-4.5-4.5-6.5.5-1"/>
      <path data-code="AST-PRI" d="m83.7,202.75l2.5-1.85,2,.35.5-1,2,1.5.5-1.5,1.5,1-.5-1.5,2-.5,1.5,1.5,2-2,1.5.5-1-1.5.5-1,1.5,2.5v-4.5l-2.5-2.5-.5,1h-.9l.9-2-2-2,3.5-1.5,1,1-1.5,1.5h1v2l3.4,1.15.6,2.35h1.5l-1,1.5.5-.5v3l4,7.5-2.5-1.5h-1l.5,4-1,.5-2-3v1.5l-2,2.5.5,2.5-4.5-1.5-.5,1-1.5.5-1-2-2,4-.5-3.5h-1.5l-.5-1.5-2-1.5-1,1.5-.5-1-.5-.5h1l-.5-2.5-1.5-1v-3"/>
      <path data-code="AST-VOL" d="m104.2,196.75l3-2v4l5-2v2l2.5,3,2-2.5,1.5,1,.5,4h5.5l4.5,3,1,3,2.5,2.5,1,3.5,3.5,2.5h-.5l3.5,10.5-3,1.5,1,3-3.5,1.5-1-.5-1.5,4-7,3v-3l-.5-.5.5-4.5-1.5-.5-1.5,1.5v1l-2.5,4h-.5l-2,4-.5-3.5v.5l-1.5-1.5-2,4-2.5-1-3,4-1.5,1.5,2-7h-.5v1.5h-1.5v-3l-1.5,1.5-.5,4.5-1.5,1v2l-1.5.5-1,.5-.5,1.5h-1v2l-1,1-4.5-2,6-12,1-6,1.5-2,1.5-4-1.5-3,1-4.5-.5-1.5,1-.5-2-4.5-.5-2.5,2-2.5v-1.5l2,3,1-.5-.5-4h1l2.5,1.5-4-7.5v-3"/>
      <path data-code="AST-ZNA" d="m83.2,8.25h3.5l11.5-3,6.5-5h3.5l8.5,8-1,.5,2.5,6.5,2.5,10.5-13.5,12-15.5-13.5-.5-3-3.5-2-1.5-6h-1.5l-1,.5.5,1.5-.5-.5-.5-3.5,1-1.5-1-1.5"/>
</svg>