<svg data-code="RU-AD" xmlns="http://www.w3.org/2000/svg" viewBox="0 0 69.12 118.39">
    <g data-code="adygeja">
      <path data-code="adygejsk" class="cls-1" d="M19.5,24.12l-2,1.5-.5,1.5h-1.5l-.08.66-.92-1.16,1.5-1.5-.5-1,.5-.5v-1l3.5,1.5Z"/>
      <path data-code="giaginskij_rajon" data-title="giaginskij rajon" class="cls-1" d="M45.5,39.76l4.5,2.86,1.5-3.5,1.5.5-1,4,3.5.5,1-.5,1.5,3.5-1.5,1.5,6.5,5.14-.5,2.5h-2.5v.5l-1,1,1,2.5-.5,2.5-1.5-.5-1,3.5-2.04-1.7-2.46-.8,1-1-5-5-1,1.5-3.5-1.5,1.5-5-2.5-.5,1-1.5-1.5-.5v-1l-1-1,.5-1.5,2,1,.5-1.5h-1l.5-3h1.5l.8-2.26-.8-.74"/>
      <path data-code="gorodskoj_okrug_majkop" data-title="gorodskoj okrug majkop" class="cls-1" d="M34,54.76l2-1,.5-2,2.5-.5.5,2.5,3-1v-3l1.5.5-1,1.5,2.5.5-1.5,5-2.5,1,.5-1h-1.5l.5,2.5h2l.5-1h.5l-1,1h-1v3.5l-1,1v1h-.5l-1,1-2.5-3.5-.5-3.5-2.5,1-1.5-2,1-1v-1.5h1l-.5-1"/>
      <path data-code="koshekhabl_skij_rajon" data-title="koshekhabl&amp;apos;skij_rajon" class="cls-1" d="M62,47.12l-.5,1.5,3-1-.5-3.5,2.5-.5,2,11.14-1.5,2,1,3.5-1.5,2-.5,4.5-2.5,4.5,1,1-1,6.5-2.5,3-1.5,6.5-6-4,.5-1,1.5,1,3-3.5.5-3,2-3-1-.5,1-1-2-1.5,3.5-5-2-1,1-1-2.5-1.5,1-3-1-2.5,1-1v-.5h2.5l.5-2.5-3.95-3.12-.05-2.51,3-1Z"/>
      <path data-code="krasnogvardejskij_rajon__adygeja_" data-title="krasnogvardejskij_rajon_(adygeja)" class="cls-1" d="M27,18.26h3.5l2.5-1,.5.5,1.5-1,.5,1.5.5-1.5,3.5-1,1,1,1.5-1.5h4l1.5,3.5-1.5,1v1.5l1,.5v2l2,1.5.5,2,1.5.5.5,1.5-1,1,5,2.5-3,4.36-5.2-3.76-9.3-.61v-1h1l-.5-1h.5l-.5-.5.5-.5-3.5.5v-2h3.5l-.5-1,1-.5-.5-1.5-1-1.5-2,1v-.5l.5-.5-1-.5,1-.5-2,.5-.5-1h-1l-1.5,2.5-1.5-3-1.5,1v-2h-1.5v-2.5"/>
      <path data-code="majkopskij_rajon" data-title="majkopskij rajon" class="cls-1" d="M9,80.76l1.5-1.5,3.5,2-1,4.5,1.5,2.5v2.5h1.5l.5-1,3-1,1,1.5-.5-1.5,2-1.5,1.5-3,1.5-1-.5-2-2.5-1,.5-2.5,1.5-3-2-1v-1.5l-1.5.5-.5-1.5,3-2v-1.5l1.5-.5,6-9,2,1,.5-1,1,2,2.5-1,.5,3.5,2.5,3.5,1-1h.5v-1l1-1v-3.5h1l1-1h-.5l-.5,1h-2l-.5-2.5.5-.5,1,.5-.5,1,2.5-1,3.5,1.5,1-1.5,5,5-1,1,1,.5-1,1,1,2h-3.5l-1.5,3-1,1,1,1-1,3,1,.5-.5,1.5-3,1-1,3.5,1,1-2.5,7.5-7.5.5-1,6-1.5,2v1.5l-2.5,2.5-1.5,7.5h-3.5l-2,2v1.5l-4,2.5-2,2-2-2-2,.5-1-.5-.5-2,2.5-6h-2l-1.5-2-1.5,1v-3.5l-1-1v-7l-.5-.5-1.5,2-2.5-.5-1.5-2v-2.5h2.5l-.5-1.5,1-1,3.5-3,.5-5.5"/>
      <path data-code="shovgenovskij_rajon" data-title="shovgenovskij rajon" class="cls-1" d="M48,33.62l4.5,3.5,3-4.5,1.5,1.5,1.5-.5v.5l3.5,1v.5l2.5,1.5v1.5l1,.5v1h-.5l-.5,1,2,2.5-2.5.5.5,3.5-3,1,.5-1.5-3,1,.05,2.51-2.55-2.01,1.5-1.5-1.5-3.5-1,.5-3.5-.5,1-4-1.5-.5-1.5,3.5-4.5-2.5,2.5-6.5"/>
      <path data-code="takhtamukajskij_rajon" data-title="takhtamukajskij rajon" class="cls-1" d="M.5,7.12L5.5.62l.5,1-.5,1,2.5.5-1.5,1,.5,3.5,1-1,1,2,1-2h3l-1.5,2,2.5.5-1,1-.5,1.5,1.5-.5,1,1.5-1.5,2,1.5-.5.5,1.5,1,1.5-1.5,2.5,1,.5h-2l-.5,2.5-.5-1-1.5,1v2.5h-1.5l-5.5-10.5,1-.5v-1.5l-1.5-2.5,1-1.5-2,.5L.5,7.12"/>
      <path data-code="teuchezhskij_rajon" data-title="teuchezhskij rajon" class="cls-1" d="M15.5,15.62h3l3.5,3,1.5-1.5.5,1.5,1.5-1-.5,1h2v2.14h1.5v2l1.5-1,2,3.36-.5,1.5,1-.5h.5l-1.5,1,1.5,3.5-.5.5,1,3.5-.5,1v1l-4.5-.5v.5l-1.5,1-2-2.5-.5,1-.5-1.5-4-2-1.5-2.5-3-2v-1h1.5l.5-1.5,2-1.5-3.5-1.5v1l-.5.5.5,1-1.5,1.5-3-1.5v-2.5l1.5-1,.5,1,.5-2.5h2l-1-.5,1.5-2.5-1-1.5"/>
    </g>
</svg>