<svg id="RU-ALT" xmlns="http://www.w3.org/2000/svg" viewBox="0 0 351 277">
      <path data-code="ALT-ALE" d="m174.75,144.25l2.5-1.5-1.5-1,1-1.5-.5-.5h2.5l1-1.5-.5-1.5,1,1.5.5,1.5-.5,1,.5.5-2,1v1.5l-.5-1v1.5h-3.5"/>
      <path data-code="ALT-ALM" d="m174.75,144.25h3.5v-1.5l.5,1v-1.5l2-1-.5-.5.5-1-.5-1.5-1-1.5.5,1.5-1,1.5h-2.5l.5.5-1,1.5,1.5,1-2.5,1.5m-26.5-16.5l16.5-10,2,3.5,1.5-1,3,5.5,2-1,2.5,1.5,1-3.5h4.5l.5-.5.5-2.5,2.5,3-.5,2,1,1.5-.5,3.5.5.5-.5,4,3,.5,4.5,11.5,4.5,8-4,8-1.5-.5-2,4-3-1-.5,1-1.5-1.5-1.5,1.5-.5-1-1,.5-1-1.5.5-1.5-1-1v-2l-1-1.5-5.5-1-4.5,2-4.5-6-6-11.5-2-2-1,1-2-1-2-2.5,2-1.5-1.5-5-2.5,1.5-1-4"/>
      <path data-code="ALT-ALT" d="m246.75,201.75l1.5-1v-2.5l1.5-1,1.5.5.5,2,4-.5-1-2h1.5l3-2.5,2-.5,1-1-1-1-.5-2,2-4-1.5-1.5.5-2-.5-2.5,1,.5,1-2h4.5l5.5-1.5v1l2,.5,5.5.5-.5,1.5h2.5v4l1.5,2-1,.5.5.5h2l5-3.5,1.5.5,1.5,3h2.5l-3.5,3.5v3l1.5,2.5-5,1.5-1,1.5,2,2-1.5,1v1.5l-3,4-2-2-2,3.5-4.5-.5.5,1.5-.5.5v3l-1.5,1.5-.5,2.5h-5.5l-.5,1.5h-1.5l-1,2-2,1h-1l-2-3.5-2,1-3-.5-2.5,1.5-.5-2.5-3-1.5,2-2.5-2-.5-.5-2.5-2-2.5-.5-2,.5-1.5-1.5-4"/>
      <path data-code="ALT-BAE" d="m86.25,57.25l6.5-1,2,3,2-1.5-1.5-2.5,1-1,3.5-1,4,2.5.5-2,11.5,7v1l-3,1,1,.5-1,1.5,2.5.5,1.5-1.5.5,1.5.5-.5,4,4.5-2,1.5,1.5,1-1,1.5h2l-1.5,1v1.5h-1.5l-.5,3,2,2,2,3v1.5l2,.5,1.5,3-1.5.5.5,1.5-1.5-.5-3,2-2.5.5-1-.5.5-1-1-1.5-3-1.5v1.5h-6l-.5,1,.5-1.5-1-3.5-4,.5-.5-.5-2.5,2.5h-2l-3-1-1-2-1.5.5-1.5-6.5-1-1.5v-2l-1,.5-2.5-2.5,1-5.5-1-2,2-.5-.5-2-2.5.5.5-1.5h1l-.5-5.5"/>
      <path data-code="ALT-BAR" d="m208.6,82.75l3.5-3-1.5-.5,1-1v-1.5l2,1,.5-1.5h1v-.5l1-1,3,2h3.5l-2,2.5.5,1,3-1,1.5,1.5-.5,1.5,3.5,1-1,2.5,1,1.5-1,2,1,1.5h-2l1.5,1.5v2l-.5,1-1.5-.5.5,2-1,.5,1,1.5-3,1,1,4-.5.5-1.5-.5-1.5-2h-3l-1-1.5v1l-1.5-.5.5-.5v-.5l-.5,1-1.5-1,1.5-1-1-.5.5-.5-2-2.5,2-1-1-3-2,.5v-1h-1.5l.5-1,.5-2.5-1-1.5v1l-2-.5,3-1v-2l-2.5.5-.5-1"/>
      <path data-code="ALT-BEL" d="m255.45,189l.5-3.5,2-1-.5-1,4-.5v2l1.5,1.5-2,4,.5,2-1.5,1.5-1-.5,1.5-2.5-1-1.5.5-1h.5l-.5-1h-2.5l-1,2-1-.5"/>
      <path data-code="ALT-BIJ" d="m257.75,154.25l2-1v-3l1.5-1.5,6.5,1,.5-3,1.5,1,2-2.5,1.5,2.5,3-.5,1.5,1.5,1.5.5-7.5,2.5-.5,3-3.5-1.5-2,3-7.5-.5-.5-1.5"/>
      <path data-code="ALT-BJM" d="m267.75,146.25h2.5l1-1.5-.5-1.5,1-.5-.5-2.5,1.5-1.5-.5-1.5,1-.5.5,1.5,3-2.5,1.5,2,1.5-1.5.5,1-1,1v1.5l4-.5v-2l1-.5,1,1,6.5-3,1.5-1.5,1-2h1.5v-1l4,1.5,5.5-1,2,2-1,.5,3.5,1.5-4.5,3.5,2,1-.5,2h.5l.5,2-1,1v1.5l-2,2-3,1v1l-1,1.5h1l-.5,4.5,2,1-1.5,4-1-.5-.5,1.5-5.5,2h-1l-.5-2h-1.5l-1.5-1.5-7.5-1-4.5-4.5-1.5.5-.5-1-3.5,1.5v2l-2.5-1.5-2,1v-1.5l1-2,2,1,.5-3,7.5-2.5-1.5-.5-1.5-1.5-3,.5-1.5-2.5-2,2.5-2-1.5"/>
      <path data-code="ALT-BLA" d="m51.75,86.75l2-4.5,4.5-5h2l4.5,3.5-.5-2-2.5-1.5h1l2,2,.5,1.5,4.5,2.5,2-5.5,4,1,4.5-1.5v2l-.5.5-.5,2.5h2.5v.5l8-1.5.5-2.5,2,7,1.5-.5,1,2,5,1-5,2,1.5,2.5,1,4.5,1.5,1,.5,3-2,1,.5,1.5-1,1.5-3.5.5-1.5-3h-2l-.5-1.5h-1.5l.5,2.5-2,1.5v2.5h-1l-.5,3.5-4,1-.5-3.5-2,.5h-1.5l-1,5h-1.5l-.5,1-5.5-1-.5-3-1,2.5-2,1h-2l-5.5,1.5-.5-4-2.5-.5-1.5-3.5-2-1-.5-2.5,1.5-.5.5-2h-.5l.5-4.5,3.5-1-3.5-5-.5-5"/>
      <path data-code="ALT-BUR" d="m.25,50.25l2,1.5,1.5-2-1.5-2.5.5-2,5.5,1,.5-2-5-3-.5-2,.5-2.5,7.5,1v-1l2,.5.5-2.5,1.5.5,1.5.5-1,4.5.5,3-1,.5,1,1,3.5,1.5v-.5h2.5v-1.5l3,.5.5-1h.5v1l2,1.5v-1l2.5.5,1-5-.5-4,3-.5.5,1.5,2-.5.5.5.5,2-1,1.5,2.5.5-1.5,3.5-1.5-.5-.5,1v2.5l5,1,1.5-1,1.5,3-1,.5.5,3,1.5-.5.5,1.5-2.5.5-1-2.5-3,1.5v.5l-1,.5.5,1-2,1-.5-1-5,2,.5,1h-2v1l-3,1,1.5,5-1,.5-.5-1.5-4.5,2v-1l-1-.5v2l-1-3-3.5-.5-1.5,7h2l1,2.5-2,.5v3.5l-3.5,1-1-1.5-3.5,1-2.5-6.5L.25,55.75v-5.5"/>
      <path data-code="ALT-BYS" d="m227.75,150.75l8.5-4.5,10-4,2,5.5,4.5-1.5.5,2.5,3-1,1,1.5-.5,5.5-3,.5h3.5l.5,1-.5,1,.5,1.5-2.5.5v1.5l-2.5,1.5h-2.5l1,2,2,3,2,6-5,3.5-9.5,1.5-2-2.5,1-2-2,.5-.5-9-4,.5-.5-1.5-2-2.5-.5-2.5,3.5-3-.5-2-3,1-.5-1.5-1,.5-1-3.5"/>
      <path data-code="ALT-TSE" d="m274.25,120.75l4-4,6.5,1,1-2,1-.5,1.5-5-5-2,3-6.5,3.5,2.5-1,1.5,1,.5,1.5-.5v-3l3-2,6,.5,1,1v1l1.5,3-1.5,1.5.5.5-1,.5,1,1h5v-1l1-.5,3.5-.5,1.5,2h1l1,1.5,1-.5,1,1.5-.5,1,4-.5v5l1,1.5v2.5l-1,4-10.5,5-1,3.5-2.5-1,1-.5-2-2-5.5,1-4-1.5v1h-1.5l-1,2-1.5,1.5-6.5,3-1-1-1,.5v2l-4,.5v-1.5l1-1-.5-1-1.5,1.5-1.5-2,1.5-4,1.5-1h-1l1-2-3-2,1-4.5-3.5-1.5"/>
      <path data-code="ALT-CHA" d="m171.75,237.25h5.5l3.5,1.5v-2l3.5-3-1-1v-3l2,1.5,1.5-3.5,2.5-3-2.5-1.5.5-6.5h1l.5-3.5,2,2-.5-3-3-4.5,3.5-2,2.5-8.5,2.5-5.5h1.5l1.5,2.5,4.5-3h2l2,1,1.5,1.5-.5,1,4,5.5-2,1,1,.5v.5l.5,1.5,1.5-1.5,1,2.5,1.5-1,1,1,1,1.5-1,1.5,1.5,1.5v3l3,3,2.5,6.5,1.5-.5-.5,2h-1.5v2l.5-.5,1.5,1-.5,3,1,1v3l-1,1.5-2,.5v1.5l-1,2.5-1,.5-1,5.5-1.5,2-1-3,1-2-5.5-1-.5.5.5,2-1,2.5,4,1.5-1,1,1.5,1,1.5-.5.5,2,3.5,2.5,3.5-1,1.5,2,5.5,3-2.5,2.5v3l4,1.5,1.5,2-1,.5-.5,2.5-2,.5-.5,3-1.5,2.5h-2l-1-2-6.5,2h-4.5l-2.5,1.5-1-3-3.5-5,2-3-3.5-3.5-1.5-3.5-5-1.5-1.5-4.5-4.5-1-1.5,1-.5-1v-1.5l-1.5-.5v-2l-10-.5-5-4-1.5,1-3.5-6,.5-1"/>
      <path data-code="ALT-EGO" d="m81.25,191.75l7.5-9-3-3,1-2-2.5-1.5,3-.5,12.5-16.5,2.5.5,3.5-1.5,9.5,9-2,2,2,1.5-3,4,2,2-1,1,.5.5-1.5,2,1,1-.5,1,1.5,1.5-.5.5-1.5-1.5-1,1,.5,1-2.5,3-1,1-1-.5-1,1.5-1-1-3,4-1,.5.5,1-2,1.5.5.5-1,1,1.5,1.5-1.5,3.5-2-1.5-2,3,1.5,1.5-1,1,1,1-1,2,1,.5-2,2-2.5-3.5v-1.5l-1-1,2-3.5-2.5-1.5-1.5,1-1.5-1.5,1-1.5-7.5-7"/>
      <path data-code="ALT-ELC" d="m300.25,101.25l7.5-3h6l.5,2,1.5-.5,1-1.5-1-1,.5-4,3,.5,4.5-4.5v-1l2.5,2-.5.5,1,1-.5,1,.5,3h2l4-1,.5-8,4,1.5,4,3.5,1-1.5,4-1.5-.5,2-2.5,1v2.5l1.5.5-2,2.5,1,1-2,1.5v1.5l-1-.5-.5,2-2.5,2,.5.5-.5,1-.5-1-2,1-1-1.5-1,.5v5l2.5-1v3l2.5,1.5,2.5-1v2l-1.5,2.5-8,4h-4.5l-1.5-1-4,1.5v-2.5l-1-1.5v-5l-4,.5.5-1-1-1.5-1,.5-1-1.5h-1l-1.5-2-3.5.5-1,.5v1h-5l-1-1,1-.5-.5-.5,1.5-1.5-2.5-5"/>
      <path data-code="ALT-YAR" d="m17.75,85.75l4.5-2.5-.5,1,2.5.5.5,1-1.5.5.5,1h-.5l-3-.5-1,3-1.5-4"/>
      <path data-code="ALT-KAL" d="m191.25,102.75l4-2.5.5.5,4.5-3h2l-.5-.5,2.5-1.5-.5-.5h3l7-4,1,3-2,1,2,2.5-.5.5,1,.5-1.5,1,1.5,1,.5-1-.5,1,1.5.5v-1l1,1.5h3l1.5,2-1,.5v1.5l-1,4,1,2.5,1.5,1.5v3.5l-3,.5,2,1-.5,3.5-2,.5,1.5.5v2l-3-.5-4-3-.5,1.5-2-1v.5l-2,.5-2.5-1.5-2.5,2-1.5-1.5-1,.5-3-3.5,1-1.5,2.5-1.5-3.5-2v-2l-1.5-.5-2-3-1-2.5-.5-1-2,1.5-.5-4"/>
      <path data-code="ALT-KAM" d="m103.25,50.25l2-2.5,6-3,1.5,1,2.5-2,.5-2,.5-.5h3.5v2l1.5,1,2-1.5,2,1.5,1-1-.5-2,1.5-.5v1l3-1.5,1,1.5,1.5-1v-.5l1-.5v-1l1,1.5,1.5-.5v-1.5l-.5.5-.5-1,1-.5-1.5-3.5,1.5-6.5,2-2,1.5.5v-1l4.5-.5.5,4.5,3-.5-.5,1-2.5,7h1l4.5-4.5,1,.5,2,2.5,3-1,.5,3-1,.5v3.5l-5,1,1,2-1.5,2.5,3,4h-1l1,3,1.5-1.5h4l3.5,3v1.5l-6.5,1-1-2.5-4,1.5-2,3,1.5,4-5.5,2,1,3.5h1l1,2.5-4.5,2-1.5-3-2.5,1-3-7.5-3.5,3.5-11,3-.5-2.5-3.5-3-.5.5-.5-1.5-1.5,1.5-2.5-.5,1-1.5-1-.5,3-1v-1l-12-7.5-.5-3"/>
      <path data-code="ALT-KHA" d="m35.25,46.25l1-1.5,1.5.5,1.5-3.5-2.5-.5,1-1.5-1-2.5,7.5-1,3,2.5,2.5-3,1,2,5.5.5,1.5-2,3.5.5,1,2.5,9-3,.5-2-.5-1.5,5.5-2,.5,1.5,1.5-.5.5,2-1,2,1.5-.5-.5,1.5,1.5-.5.5,1.5-.5,2.5h2.5l3.5,4.5-1.5,5.5,1.5.5-1,4.5-1,2.5-.5,3-7.5-1.5-1,4-2-1v3.5l-3-.5-.5,2.5-2.5.5-4.5-1v-3h-.5l.5-2.5-2.5-.5.5-2.5-3-.5-1-3,.5-1-2.5-.5-2-5.5-1.5,1,.5,1.5-2.5.5v1l-6,3-1-2v-1.5l1-.5-1.5-3-1.5,1-5-1-.5-2"/>
      <path data-code="ALT-KLY" d="m21.25,124.75l5.5-2-.5,2,4,1,.5-2.5,6,1v-1l1.5.5,1-2.5,6,.5,9.5-4.5,1,2.5,2.5-1.5,1,2.5-.5.5h1l-.5,2,1,2,4,1-1,6-1.5-.5-1,5,6,1-1,1.5,1,2.5v4.5h-.5l-1,1.5-4-2,.5-.5-1-1-3-1-5,2,.5,3.5-3.5,1-1-1.5-1,1-.5,4.5.5,1.5h-6v-1l-1-.5-2-2-7,3.5.5,1.5,2,1-2,1-11-34"/>
      <path data-code="ALT-KOS" d="m239.25,104.25l.5-5,3.5-2h-1.5v-1.5l-1,.5.5-4.5,1.5,1,1.5-5h1l-.5-1,1.5-2,3-1.5v-1l1.5-.5.5-1,1,.5,1-3,3.5-1,2.5-2,4,3-.5,1,.5,1.5h1l.5,1.5h2.5l-.5.5,1,1-.5.5.5,1.5,4.5.5,1,1.5h1.5l1.5,2h-3l-.5,1,.5,1-1.5.5-1,1.5,3.5.5-2,1v1l1,3h-1l-3.5,2.5h-1l.5-1-4.5,2-1,2-3,2-1-3.5-3,1.5-6.5-1.5-2.5,1-.5,1.5-7-.5v-1"/>
      <path data-code="ALT-KRG" d="m294.25,163.75l6-2,.5-1.5,1,.5,1.5-4-2-1,.5-4.5h-1l1-1.5v-1h1l.5-1.5h2.5l3.5,1,1.5,6,2.5,2,2.5-1,1.5-3-.5-3,5.5-1.5v1.5l3.5,2,1,4,1.5.5,1.5,1.5-1,.5,1,2.5v2l-2,.5-.5,1.5h1l.5,4.5h1l-.5,3.5,3.5.5-.5,3-2,3,3,1-.5,2-2-1-1,2.5-1.5-.5-1.5,2.5-7.5-2.5-1,1,.5,3-1.5.5-1,2-6.5-1-.5,2h-.5l-2-2-1-2.5.5-1-5-.5-4-3,.5-1.5h-.5l-.5-3-2-4.5-.5-2.5,1-2-1-4"/>
      <path data-code="ALT-KRC" d="m157.75,203.25l2.5-2-1.5-3,4-3.5-3.5-2,2-2.5v-2l2-1.5h9.5l.5-4.5,7,1.5.5.5,1-1,4.5,3,1-2.5,1.5-.5,3-1.5,1.5.5-.5,1.5,1.5.5-2.5,2.5-.5,4,2,2.5.5-1.5h2l-2.5,5.5-2.5,8.5-3.5,2,3,4.5.5,3-2-2-.5,3.5h-1l-.5,6.5,2.5,1.5-2.5,3-1.5,3.5-2-1.5v3l1,1-3.5,3v2l-3.5-1.5h-5.5l1.5-5.5,2.5-1.5-1-3,.5-1.5-2-.5-2-4.5-4,1.5-2.5-.5.5-3.5-2.5-.5-1-2,.5-1.5-1.5-.5-.5,1-1-1,1.5-3-2-2,3-3-4-2.5"/>
      <path data-code="ALT-KRU" d="m107.75,16.75l3-1-1-3.5,3.5-1.5.5,1.5,3-2.5,4-2,.5,2,1.5-.5-.5-7.5,5.5-1.5v5l1,4,2,4.5,1,6,2.5.5,1,2,1.5.5,1.5-.5,1.5,2.5v1l-1.5-.5-2,2-1.5,6.5,1.5,3.5-1,.5,1,1.5-1,1-1.5-1.5v1l-1,.5v.5l-1.5,1-1-1.5-3,1.5v-1l-1.5.5.5,2-1,1-2-1.5-2,1.5-1.5-1v-2l-4,.5.5-3-.5-3-2-6,1-.5v-.5l-1.5-4.5-1,1h-2l-2.5-8.5"/>
      <path data-code="ALT-KUL" d="m15.75,105.75l3.5-1.5.5,2.5,4.5-2-.5-1,1.5-.5,2.5,1.5v-.5l4.5-1.5-.5-2,3.5-1-.5-2,2-.5v1.5l3-1,1.5,4,3.5-1,.5,2,3.5-.5.5,3,1-.5.5,2.5,2,1,.5,2.5,2,.5.5,1h1l.5,1h-.5l1.5,5-2.5,1.5-1-2.5-9.5,4.5-6-.5-1,2.5-1.5-.5v1l-6-1-.5,2.5-4-1,.5-2-5.5,2-5.5-19"/>
      <path data-code="ALT-KUR" d="m133.75,196.75l5-4.5-.5-.5,1-1,2,1,2.5-1.5,1-4.5,1.5,1,1-2,9.5,3-.5,1.5h1l2.5,3v1l3,1.5-4,3.5,1.5,3-2.5,2,4,2.5-3,3,2,2-1.5,3,1,1,.5-1,1.5.5-.5,1.5,1,2,2.5.5-.5,3.5,2.5.5,2-1h2.5l1.5,4,2,.5-.5,1.5,1,3-2.5,1.5-1.5,5-5-2,1-1.5h1l2.5-5-.5-1.5-3.5,1.5-.5,2h-1.5v.5l-.5.5,1,.5-2,1.5v1.5l-2.5-5-4.5,2v-2.5l-1.5-1-3.5-7-1.5-.5-2-4.5-2.5-1.5-.5-3.5h-5l-1,1.5-1.5-1v-2.5l-1-1,1.5-3.5-.5-.5-1,1.5-3-1,2-4.5-2-3.5"/>
      <path data-code="ALT-KYT" d="m266.75,81.75l5.5-2.5,4.5-3.5,2.5-.5,1-3,1,.5,6-3.5v1l2,.5,1.5-2h2.5l.5-2.5,3-2,.5-1.5,1,1-1,.5,2.5-.5,1.5,1-.5,1h3l2,2.5h-.5v1l1,.5-1,2.5-2.5,1,.5,2.5-1.5,1,1.5,4.5-2,2.5v1.5l-6.5,10.5,1.5,2-2,3-3,2v3h-2.5l1-1.5-3.5-2.5-.5,1.5-2.5-2-3,1.5-7,1.5-3.5-1.5-.5-1.5,3-2h1l-1-3v-1l2-1h-3l.5-2,1.5-.5-.5-1,.5-1h3l-1.5-2h-1.5l-1-1.5-4.5-.5-.5-1.5.5-.5-1-2"/>
      <path data-code="ALT-LOK" d="m95.75,238.25l2.5-7,2-2,2-4v-2.5l-1-2,.5-1.5-1-1,1.5-4,.5,1,1-2,4.5,4,.5-1,3.5,2.5,1-2,5.5,3.5.5-1,13,9-3.5,7.5-2,7,1.5,1-1,1-.5,3-2-1-.5,2.5h-.5l-.5,2-3,4.5h-7.5l-3.5-1.5.5-3,1.5-1-2-3.5.5-1.5.5-2.5-1-.5.5-3-5-1-3.5,1.5-5.5-1.5"/>
      <path data-code="ALT-MAM" d="m119.75,137.75l5-3.5-2-2,7.5-5.5-1-1.5,2.5-2-1-1.5.5-1,2-1.5-3.5-6-2-.5,1-1-.5-1,2-2-.5-1,3-4.5-1-1.5-1.5,1-1.5-2.5,1-.5-.5-.5.5-1,1.5.5-1-1.5.5.5,1.5-.5-.5,1,3-3.5v1l-1.5,1.5,1-1,1.5,2,3.5-3h3.5l1.5,4,4-.5,4.5,8.5-2.5,2-.5,1.5.5.5-.5.5,3,4-1.5.5v1l2,1-1,2,2.5,3-7.5,4.5-2.5,2.5-2,.5-3,3.5-4.5,1.5-.5,1.5-2.5,1,.5,1-8,5-2.5-3.5-.5-2.5-2-.5"/>
      <path data-code="ALT-MIK" d="m31.75,155.25l7-3.5,2,2,1,.5v1h6l-.5-1.5.5-4.5,1-1,1,1.5,3.5-1-.5-3.5,5-2,3,1,1,1-.5.5,4,2-.5,1-1,8.5,1.5,5h-1.5v1l1.5,5.5h-2l1,3.5-2.5,1.5,3,12-24.5,7-8-34,2-1-2-1-.5-1.5"/>
      <path data-code="ALT-NEM" d="m24.25,67.6l2-1,.5,1h1l-1.5-5,3-1.5v-.5h2l-.5-1,5-2.5v1.5l2.5-1-.5-1,1-.5v-.5l3-1.5,1,2h2.5l-.5-1.5,2.5-1,2.5-1v-1l2-.5-.5-1.5,1.5-1.5h.5l2,5.5,2.5.5-.5,1.5,1,3h3l-1,5.5-.5.5-1,5.5-6.5-1.5v.5l-3.5,2-.5-2-2,1.5-.5-1.5h-1.5l-2,1,.5,1-7.5,3h-3l-.5-2-3,1.5-1-2-2,.5-1.5-4.5"/>
      <path data-code="ALT-NVM" d="m106.25,150.6l1-1-.5-1,1.5-2,5-3,6.5-6,1.5,1,1,2.5,2.5,3,4.5-3.5,2,4,2-1.5,3.5,6-1,1,2,3,2,1-6,2-2-1-2.5,1,1,2-3,2,1,1-1,1.5,3,5-5,3.5.5,1.5-3,3-1.5-2-4,3-1-1,1.5-1v-1l-1.5-1.5,1-1-4-1.5,2-2-9.5-9,4.5-2.5-4-5.5"/>
      <path data-code="ALT-NVA" d="m227.25,79.6l2,.5,1-.5-1-1h1l1,1.5v1h.5l-.5-.5,1-1,.5,1,2.5-.5-3,1.5.5,1.5.5.5-.5.5h.5v1.5l.5.5-4-.5v.5l-1.5.5-.5-1.5,1.5-3.5-2-2"/>
      <path data-code="ALT-PAN" d="m78.75,32.1l3-1-1-3.5,1-.5.5-1,8.5-4-.5-4,5.5-1.5.5,3.5,10-4.5.5,1.5h1l2.5,8,1.5.5,1.5-1.5,1.5,4.5v1l-1.5.5,2.5,6,.5,4.5-1.5,3.5-2,1.5-1.5-.5-6,2.5-2,2.5.5,3.5.5.5-.5,2-4-2.5-4.5,1.5,1.5,3-2,1.5-2.5-3.5-7,2,1.5-7.5h-1.5l1.5-6-3.5-4.5h-2.5v-2l-.5-1.5-2-1,1-2-.5-1.5"/>
      <path data-code="ALT-PAV" d="m176.25,84.1l2.5-1.5,1,1,2-1,1,1,4.5-2,.5-2.5-1-2h1l.5-1,.5-2.5h.5l-3.5-2,1.5-.5,1.5-2.5,5.5,2v1l3.5.5,1,2v-1h2.5l1.5-1.5,6.5,6,2-.5v1.5l-1,1,1.5.5-3.5,3,.5,1,2.5-.5v2l-3,.5,2,1-.5-1,1.5,1.5-.5,2.5-1,.5,2,.5v1l-5,3-3,.5.5.5-2.5,1.5.5.5h-2l-4.5,2.5-.5-.5-1.5,2-11,5.5-1-2.5-2-1-1.5-4,3-2-2.5-5.5,1-.5-3.5-8"/>
      <path data-code="ALT-PER" d="m226.75,72.1l.5.5h1.5l-.5-1-1.5.5m-6,7.5l2-2-1-.5,1.5-1-.5-1h1.5l-.5-1,1.5-.5-1-1.5.5-.5-1-.5,2-.5-.5-3,1-1.5v-.5l4-.5,7-3.5-.5-2.5h-4l.5-1h-1l-1-2,.5-3.5-2-1,.5-.5-1-1,.5-2,1.5,1,.5-1.5,1.5,1.5-.5-1.5h2l.5-1-.5-1.5,1,1.5h1v1.5l1,.5,1.5-1,1.5-2.5,3.5,1,1-1,1,1.5v-1l.5-.5,1,3.5-1.5,2.5,1,2.5,3,.5,1.5,4,2,1,1-1,1,2-1.5,2,1,2-2.5,1-.5,2-3.5-1-1.5.5-1,1.5.5,4,1.5.5-1,.5v2.5l2,1.5,4-1,2,2-1.5.5-1.5,2.5-1-.5v1.5l-1.5.5v.5l-3,2-1.5,1.5.5,1.5h-1l-1.5,5-2-1v4h1v1l1.5.5-3.5,1.5-1.5,12-4.5-.5-.5,2.5h-3.5l-.5,8-8-1,.5-1.5-2.5-.5,3.5-1v-2l-2-4h.5l-1-1.5,1-3.5v-2l3-.5-1-4,3-.5-1-1.5,1-.5-.5-2,1.5.5.5-1.5v-1.5l-1.5-1.5h1.5l-.5-2,1-1.5-.5-1,1.5-.5v-.5l4,.5-.5-.5v-1.5h-.5l.5-.5-.5-.5-.5-1.5,3-1.5-2.5.5-.5-1-1,1,.5.5h-.5v-1l-1-1.5h-1l1,1-1,.5-2-.5,2,1.5v1l-.5.5v1l-3.5-1,.5-1.5-1.5-1.5-3,1-.5-1"/>
      <path data-code="ALT-PET" d="m217.25,164.1l2-.5,4.5-7.5,2,1,8-3,.5,2-4,3.5.5,2,2.5,2.5v2l4.5-.5.5,9,2-.5-1,2,2,2.5h1v1l1.5,1-1,2h-1l-5.5,5,.5,1-3.5,1.5-1-2.5-3.5,2.5-1.5-2-3-.5-1.5,1-1,1.5-1-1.5,1-1.5-3-2.5-.5-2.5-1-.5-1-5.5,1-1.5-.5-1,3.5-1,.5-2.5v-1.5l-3.5-4.5"/>
      <path data-code="ALT-POS" d="m117.25,176.6l4-3,1.5,2,3-3-.5-1.5,5-3.5-3-5,1-1.5-1-1,3-2-1-2,2.5-1,2,1,4-1,4.5,9-1.5,2,2,1.5-1,2,3.5,6.5,5-4,2.5,5,1-1,3,2.5-1,1.5.5,1-.5.5.5.5-.5.5v1l-.5,1.5,1.5,2.5-9.5-2.5-1,2-1.5-1-1,4.5-2.5,1-2.5-1-.5,1,.5.5-5,4.5,2,4-1.5,2-1-1-2,1-4-5.5-1.5,1.5-2-3,1.5-1-2.5-5,1.5-1-.5-1.5-6.5-10.5"/>
      <path data-code="ALT-REB" d="m147.75,89.1l14.5-8,.5,2,2-.5v1l2.5-1,.5,4,2.5-.5v-2l5-2,2.5,4,2,6-1,.5,2.5,5.5-3,2,1.5,4,2,1,1,2-1,1,1,.5-1,.5v-1l-3.5,2-6.5,3.5-.5.5.5.5-.5.5-1-.5-3.5,2-12,7-2.5-3,1-2-2-1v-1.5l1.5-.5-3-4,.5-.5-.5-.5.5-1,2.5-2-5-8.5,1.5-1-1.5-9"/>
      <path data-code="ALT-ROD" d="m57.25,116.1l5.5-1.5,2,.5,2-1,1-2.5.5,3,5.5.5.5-1,1.5.5,1-5,1.5-.5h2v3l4.5-.5.5-3.5,1-.5-.5-2.5,2.5-1.5-.5-2,1.5-.5.5,2h2l1.5,3,2.5-.5-1.5,4.5-3-2-1,8,4.5,1-.5,2,3,.5-2,10.5,8,1.5-1,6.5-4.5,2.5-6.5,1,1,2-4,2-.5-1-3.5,2-.5-1.5v-1.5l-2.5-1-1,1-1-1.5-2,1v1l-4-.5-.5-1-3.5,2.5-3.5-5.5,1-1.5-6-1,1-5h1.5l1-5.5-4.5-1.5-.5-1.5.5-2h-1l.5-.5-2-5"/>
      <path data-code="ALT-ROM" d="m96.25,123.1l.5-2,6.5-1-1-5,7.5-4.5.5,1.5,3-1v-3.5l.5-.5,1,2.5,3,2h5.5l.5-1.5,2,1.5,2.5-.5.5.5-1,1.5,2,.5,3,6-1.5,1-.5,1.5,1,1.5-2.5,2,.5,1-7,6,1.5,1.5-11,9.5-3.5-7-7.5,1.5,1-6.5-8-1.5,1-7"/>
      <path data-code="ALT-RUB" d="m104.25,199.6l4-3.5,1,2-.5,3,1-1,.5.5-.5,1h2l-1.5,2.5h-3.5l-2-3,.5-1-1-.5"/>
      <path data-code="ALT-RBM" d="m104.25,199.6l1,.5-.5,1,2,3h3.5l1.5-2.5h-2l.5-1-.5-.5-1,1,.5-3-1-2-4,3.5m-33,5.5l10-13,7,7-1,1.5,2,1,1.5-.5,2.5,1.5-2,3.5,1,1v1l2.5,3.5,2-1.5-1-1,1-1.5-1-1.5,1-.5-1.5-1.5,2-3,1.5,1,2-3.5-1.5-1,1-1-.5-.5,2-2-1-1,1.5-.5,3-3.5,1,1,1-2,1,1,1-1,2.5-3-.5-1,1-1,1.5,1,.5-.5-1.5-1.5.5-1-1-1,1.5-1.5-.5-.5,1-1-2.5-2.5,4-4.5,1.5,1-1,1,1.5,1.5v1l-1.5,1,7.5,11.5.5,1.5-1.5,1,2.5,5-1.5,1,2,3,1.5-1.5,5,7.5-3,4h-.5l-3.5,6-1-1-1.5,2-1-.5-3,5.5-5.5-3.5-1,2-3.5-2.5-.5,1-4.5-4-1,1.5-.5-1-1.5,4.5,1,.5v1.5l-1.5.5-1.5,2-6-4,1-2.5-9.5-5.5.5-2-2.5-2.5-1.5-.5-2.5,2-1-1,.5,1.5-1.5,1-5-4.5"/>
      <path data-code="ALT-SHE" d="m144.25,65.1l6-2-1.5-4,2-2.5,4-2,1,2.5,2-.5,1,1,2.5-1.5,3.5,1.5,2.5-1.5-1,2.5-1.5,1.5v1l2-1v2l3,1v1.5h1l.5,2.5,1,1,4,2,2-.5,1.5.5.5-.5-2.5-3,7-5.5-1.5-2.5,6-4.5,10,14-4,4-6.5-3.5-1.5,2.5-1.5.5,3.5,2h-.5l-.5,2.5-.5,1h-1l1,2-.5,2.5-4.5,2-1-1-2,1-1-1-2.5,1.5-1-2-5,2v2l-2.5.5-.5-4-2.5,1v-1l-2,.5-.5-2-1.5,1-1-2-5,2.5-2.5-1.5-1.5-2.5.5-2h.5l-.5-1,2.5-1,2.5.5,1.5-.5-2.5-4.5-4,3-1.5-1-1.5,1-1.5-4h-1.5l-1-4"/>
      <path data-code="ALT-SHI" d="m129.75,141.6l2.5-2v-1l2-1,1-2,4-1.5,3.5-3,5.5-3,.5,3.5,2.5-1,1,1.5,1,3.5-2,1,2,3,1.5.5,1.5-.5,2,2,8.5,15.5,1.5,1.5,5-2,5.5,1,1,1.5v2.5l1,.5-1,2,1.5,1.5.5-1,4,5.5-1.5,3.5-5.5.5-.5-1h-2.5l.5,1.5-1,1.5-1-.5-1.5,11.5-9.5-.5-2,2v2l-2,1.5-3-3,.5-2.5-1.5-1.5.5-1.5v-1l.5-.5-.5-.5.5-.5-.5-1,1-1.5-3-2.5-1,1-2.5-5-5,4-3.5-6.5,1-2-2-1.5,1.5-2-4.5-9,2-1-2-1-2-3,1-1-3.5-6-2,1.5-1.5-3"/>
      <path data-code="ALT-ZSI" d="m226.75,72.1l1.5-.5.5,1h-1.5l-.5-.5"/>
      <path data-code="ALT-SLA" d="m7.75,79.6l3.5-1,1,1.5,3-1.5.5-3.5,1.5-.5-.5-2-2-.5,1.5-6.5,3.5.5,1,3v-2l1,.5v1l2.5-1,1.5,4.5,2-.5,1,2,3-1.5.5,2h3l7.5-3-.5-1,2-1h1.5l.5,1.5,2-1.5.5,2,3.5-2v-.5l6.5,1.5,2-8.5,2.5.5-.5,2,.5.5-.5,3,3,.5v1l-2,8.5h-2.5l3,1.5.5,2-4.5-3.5h-2l-4.5,4.5-1.5,4-4,1-1-7-2,.5-.5,2.5-1,.5-2-1.5v-2l-.5-.5-8,2-.5,1-3.5-1-.5,2.5h1l.5,1.5-.5.5v1.5l-2,.5v2l-2,.5.5,2.5-3,1.5-.5-1-2-.5-1.5-2-2.5,1-.5-1-4.5,1.5-4-13"/>
      <path data-code="ALT-SMO" d="m239.75,184.6l3.5-3,.5-1-1.5-1v-1l8.5-1.5,4.5-4-1.5-5.5-2.5-3-.5-2.5,2.5.5,2.5-1.5v-1.5l2.5-.5-.5-1.5.5-1-.5-1,8.5.5,2-2.5h1l.5.5-1.5,3,1,.5,1.5-1.5,2,1v1l1,.5v3l-.5,3,1,1.5,1-.5,2,1-1.5,3h-2l-1.5,3.5h-1v1.5l-2.5,2.5v1.5h-5l-1.5,2-.5-.5-.5,3.5h-3.5v1.5h-1.5l-.5,4.5h1l.5-2.5,2,1,1-1,.5,1.5h-1v1l1,1-1.5,2.5,1,.5,1.5-1,1,.5-1,1.5-2.5.5-2.5,2.5-1.5-.5,1,2.5-4,.5-.5-2-1.5-1,2.5-4-1-.5-1,.5-.5-1.5-2.5,1.5-3.5-1-1-1.5v-1l-1.5-1-.5-1.5-1.5.5v-3"/>
      <path data-code="ALT-SLN" d="m210.25,201.6l2-1,2.5.5,1.5-1,.5-2.5-2-7.5,5.5-2,1.5,2,1-1.5,1.5-1,3,.5,1.5,2,3.5-2.5,1,2.5,3.5-1.5-.5-1,3.5-3v3l1.5-.5.5,1.5,1.5,1v1l1,1.5,3.5,1,2.5-1.5.5,1.5,1-.5,1,.5v1l-2,1.5-.5,1.5-2,1.5v3l-1,.5,1.5,4-1,1.5.5,1.5,2.5,3,.5,2.5h2l-2,2.5,2.5,2,1,2.5-2,3.5-1.5-.5-3.5,1-2-.5-2,2-1.5,1-.5,2-7.5,1.5-.5,2-1.5.5-1.5.5-1.5-2h-3v-3l-1-1,.5-2.5-1.5-1-.5.5v-2h1.5l.5-2-1.5.5-2.5-6.5-3.5-3,.5-3.5-2-1,.5-1.5-.5-2-1.5-1-1,1-1-2-1.5,1.5-.5-1.5v-.5l-1-.5"/>
      <path data-code="ALT-SLT" d="m305.75,138.6l4.5-4-1-.5,1-3,10.5-5.5,1-3.5,4-2,1.5,1.5h4l8.5-4,1.5-2,.5,2.5,5,1.5,2,3-2,4-1,4.5-2,1.5h-1l-1,2,.5,1h1l-.5,3,2.5,4.5,2,.5-1,1.5.5.5,1.5.5.5-2,2,1v1l-2,5.5-2.5-3.5-1.5,1-1-1h-2l-.5,1-3.5.5-1-1.5v2.5l-2,1,.5,5.5h-5l-3-1.5-1-4-3.5-2.5v-1l-5.5,1.5.5,2.5-2,3.5-2,1-2.5-2.5-1.5-5.5-3.5-1.5,2-3.5-.5-2h-.5l.5-2.5-2-.5"/>
      <path data-code="ALT-SOV" d="m267.75,179.1l1.5-2.5,2-2v-1.5h1l1.5-3.5h2l1.5-3-2-1-1,.5-1-1.5.5-3v-3l-1-.5.5-.5v-2l3-1,.5,1,2-.5,4,4,5.5.5,5.5,2.5.5,2,1.5,3.5-1,2.5.5,2.5,2,4.5.5,3h.5l-1,1.5,1,2-.5,2-4,.5-2.5-2-5.5,4h-2v-1l1-.5-1.5-1.5-.5-4-2-.5.5-1.5-5.5-.5h-2v-1l-6,1.5"/>
      <path data-code="ALT-SUE" d="m63.25,77.6l1.5-6h.5l.5-3.5,4.5-.5.5-2.5,3,.5v-3l2,1,1-4,7,1.5,1-3.5h1.5l.5,5-1.5.5v1l2.5-.5.5,2-2,1,1,2-1,5.5,2.5,2h1l.5,2.5-.5,3-8,1.5v-1l-2.5.5.5-2.5.5-1v-1.5l-4.5,1-4-.5-2,5.5-4.5-2.5v-1l-2-2.5"/>
      <path data-code="ALT-TAB" d="m11.75,92.6l4.5-1.5.5,1,2.5-1,1.5,2,2,.5.5,1,3-1.5-.5-2.5,2-.5v-2l2-.5v-1.5l.5-.5-.5-1.5h-1l.5-2.5,3.5,1,.5-1,8-2,.5.5v2l2,1.5,1-.5.5-2.5,2-.5,1,7,4-1-.5,4.5,1.5,3.5,2.5,3-3.5,1-.5,2v2.5h.5l-.5,2-2.5,1-.5-3h-4l-.5-1.5-3,1-1.5-4-3,.5-.5-1-1.5.5.5,2-3.5,1,.5,2-4.5,1v1l-3-2-1,1,.5,1-4.5,1.5-.5-2-3.5,1-4-13"/>
      <path data-code="ALT-TAL" d="m187.75,51.6l15-11,2-2.5-.5-.5,3.5-3,1-.5,1,1,2,.5,1-2.5.5,1v10l4-.5v-2h2v-6l1-1,1.5.5,1-2.5,6.5,1.5,4-1.5,2,1-1,3,4-2,1,1-1.5,2.5,1,3.5-.5,5h1.5l-.5,1-2.5.5v-1.5h-1l-1-1.5.5,1.5-.5,1h-2l.5,1.5-1.5-1.5-.5,1.5-.5-1-1.5.5v1.5l1,1-.5.5,2,1-.5,3.5,1,2h1l-.5,1h4l.5,2.5-7,3.5-4,.5v.5l-1,1.5.5,3-2,.5,1,.5-.5.5,1,1.5-1.5.5.5,1h-1.5l.5,1-2,1.5-1-1-3.5-.5-1-1.5-1,1v1h-1l-.5,1h-4l-6.5-6-1.5,1.5h-2.5v1l-1-2-1,.5-1-1,3.5-3.5-11.5-16.5"/>
      <path data-code="ALT-TYU" d="m118.75,78.6l.5-2.5h1.5v-2l1.5-1-2,.5,1-2-1.5-1,13-3.5,3.5-3,2.5,7.5,3-1.5,1,3,5-1.5.5,1.5,1.5-1,1.5,1,4-3,2.5,4.5-1.5.5-2.5-.5-2.5,1,.5,1h-.5l-.5,2,.5,1.5,3.5,2.5,5-2.5,1,2-13,7,1,3.5h-.5l.5,2.5.5.5v3l-5,.5-1.5-3.5-3.5-.5-3.5,3.5-1.5-2-1,.5,1.5-1-.5-1-2.5,3.5.5-1-1.5.5v-1h-1l1.5,1.5-2,.5-4.5-9.5,1-1-1-3h-2.5l.5-1.5-2-3.5-2-2"/>
      <path data-code="ALT-TOG" d="m294.75,101.1l2-3-1.5-2.5,6.5-10v-1.5l2-2.5-1.5-4.5,1.5-1-1-2.5,3-1,.5-1,1.5.5,2-1.5,2,.5.5,1.5h1l.5-1.5v1l3.5-.5,3,1.5,5-1,1.5,8,1-.5,2.5,3,1.5,3,2,1.5-.5,8-6,1-1-3,1-1-1.5-1.5h.5l-2-2v1l-5,4h-2.5l-.5,4,1,1-1,1.5-1.5.5-1-2h-5.5l-7.5,3-6-.5"/>
      <path data-code="ALT-TOP" d="m164.25,118.1l6-3.5,1,.5.5-.5-.5-.5.5-.5,6.5-3.5,3.5-2,.5,1,.5-.5-1-.5,2-1.5,7.5-3.5.5,3.5,2-1,.5.5,1,3,2,3,1.5.5v1.5l3.5,2.5-2.5,1-1,2,3,3.5,1-1,1,2,3-2.5,2.5,2,2-.5v-1l2,1.5.5-1.5,4.5,3h3v-1.5l-1.5-.5,1.5-.5.5-2.5,7.5,1v5h2l2.5,8.5-6.5,2.5-4-.5-3.5,1-1-1,.5-1.5-.5-2h-1.5l-9.5,1.5-.5,5-6,1v3l-2,.5v4h-3.5l-2,1.5-6-14.5-3-.5.5-8-1-1.5.5-2.5-1-1-1.5-1.5-.5,2-.5.5h-4.5l-1,4-3-2-1.5,1.5-3-5.5-2,1-2-3.5"/>
      <path data-code="ALT-TRE" d="m122.75,252.1l2-5.5,1.5,1.5,1-3,1-1-1.5-1,5.5-16,3.5,1.5,1.5,4,2,.5v1l-2.5,3,1.5,5,3,1.5,5-3h2l3,2.5,1-2.5,1-1,4.5-.5v1.5l1.5.5,1.5,5,1-.5,2,2.5-1,.5-1,1.5-.5,2.5v3l-2,2.5-6,4v-1l-2.5,1-5-4-2.5,2-1.5-1.5-1.5,2-2.5-.5-4-1.5-2.5-3-4-1.5-3.5,1-1-3"/>
      <path data-code="ALT-TRO" d="m223.75,136.6l3.5.5,6.5-2.5-2.5-8.5h-2l1-13h3.5l.5-2.5,4.5.5,1-6,7,1,.5-2,2.5-1,6.5,2,3-1.5,1,3,3-1.5,1-2.5,4.5-1.5-.5.5,1.5-.5.5,1.5,3,1.5,7.5-1,3-2,2,2.5-2.5,5,5.5,2-1.5,5h-1l-1,2-6.5-.5-4,3.5-1,3.5-4.5-1.5-3.5,2h-3.5l-2.5,1.5-1,4-2,.5.5,3-2.5,1.5h1.5-5l-1.5-1-.5,1-2-.5.5,1.5h-1.5l1,2.5h-1.5l1,4-10.5,3.5-8,4.5-1,.5-3.5-14.5"/>
      <path data-code="ALT-UGL" d="m40.25,193.1l24.5-7-1-4,6-1.5-.5-3,6-1.5-.5-1.5,1.5-.5,2.5,2.5,8,1.5-1.5,2,3,2.5-17,22.5,5,4.5,1.5-1-.5-1.5,1,1,2.5-2,4,3-3,5-.5,4.5-7.5-1.5-1.5,6,1.5,1.5-1,9-3,.5-2,2-7.5,1-1,5-4-1v-1.5l-.5-.5-.5,1-.5,7-13.5-54"/>
      <path data-code="ALT-UST-KAL" d="m174.25,175.6l1,.5,1-1.5-.5-1.5h2.5l.5,1,5.5-.5,1.5-3.5-3-4.5,1.5-1,1.5,1,.5-1,3,1.5,2-4h1l1.5-3,2.5,2,1.5-1v6.5l1.5-1.5,1.5,1-.5,2h4.5l4,7-4,1.5,1.5,5.5,7-3.5v1.5l3.5-2,.5,3.5,1,.5.5,2.5,3,2.5-1,1.5-6,1.5,2,7.5-.5,2.5-1.5,1h-2l-5-6,1-1-.5-.5-3-2.5-2,.5-4.5,3-2.5-3h-2.5l-.5,2-2-2.5-.5-2.5.5-2,3-2-1.5-1,.5-1.5h-2l-3,1-1,1-1.5,2.5-4-3.5-1.5,1.5v-1l-7-1,1-7"/>
      <path data-code="ALT-UST-PRI" d="m193.75,149.6l2-1.5h3.5v-4l2-.5v-3l6-1,.5-5,9.5-1.5h1.5l.5,2-.5,1.5,1,1,4-1,3.5,14.5,1-.5,1,4,1-.5.5,1.5-5,1.5-2-1-4.5,7.5-2,.5,3.5,4.5v1.5l-.5,2.5-3.5,1,.5,1-1,1.5.5,2-3.5,2v-1.5l-7,3.5-1.5-5.5,4-1.5-4-7h-4.5l.5-2-1.5-1-1.5,1.5v-6.5l-1.5,1-2.5-2,3-4.5-3-5"/>
      <path data-code="ALT-VOL" d="m64.25,149.1l2-3,.5.5v-4.5l2.5,3,3.5-2.5.5,1,4,.5v-1l2-1,1,1.5,1-1h1.5l1,1v1.5l.5,1.5,3.5-2,.5,1,4-2-1-2,6.5-1,3.5-2.5,8.5-1.5,3.5,7-5,3-1.5,2,.5,1-1,1,4,5.5-6.5,3.5h-4l-12.5,16-3.5,1.5-5-.5-2.5-2.5-1.5.5.5,1.5-6,1.5.5,3-6,1.5-2-8,2.5-2-1-3.5h1.5l-1-5v-1l1-.5-1-5,.5-8"/>
      <path data-code="ALT-ZAL" d="m237.75,38.1l1.5-2.5-1-1,10.5-4.5,2,1-.5,2h3l2-1,1,1-.5,1,.5.5,4.5-1,1.5-3v-2l3-3h2l3.5-3.5,1.5-.5-.5,1,.5.5,13.5-7,7,17-11.5,6.5-1.5,2,2,1-.5,1,1,.5-1.5,1v1l-2,2.5-5.5.5v1.5l-2-.5-2.5,2-2,4.5-1,.5v2l-.5,1-3.5-2-1.5,1-.5-2.5h-2l-.5,1-3.5,1.5-2-1-1.5-4-3-.5-1-2.5,1.5-2.5-1-3.5-.5.5v1l-1-1.5-1,1-3.5-1-1,1.5h-1.5l.5-5-1-3.5"/>
      <path data-code="ALT-ZAR" d="m269.25,64.1l1-1,2.5-.5.5,1-1,.5.5,1,2-1h1l-1.5,2.5,1.5.5-1.5,3-3-2-2-4"/>
      <path data-code="ALT-ZRM" d="m269.25,64.1l2,4,3,2,1.5-3-1.5-.5,1.5-2.5h-1l-2,1-.5-1,1-.5-.5-1-2.5.5-1,1m-23,4l1-1.5,1.5-.5,3.5,1,.5-2,2.5-1-1-2,1.5-2-1-2,2.5-.5.5-1,2.5.5-.5.5.5,1.5,1.5-1,4,1.5v-2.5l1-.5,2-4.5,2.5-2,2,.5v-1.5l5.5-.5,2-2.5v-1l1.5-1-1-.5.5-1-2-1,1.5-2,2-1h-1l10.5-5.5,1,2.5,4.5-2.5,1,2,2.5-.5,2,5,2.5-1.5,3.5,9.5h1.5v1l5,1.5.5,1.5,2,1,1.5,12,4-1,1,8.5-5,1-3-1.5-3.5.5v-1l-.5,1.5h-1l-.5-1.5-2-.5-2,1.5-1.5-.5.5-1.5-1-1.5.5-.5-2-2h-3l.5-1-1.5-1.5-2.5,1,.5-1-.5-.5-.5,1.5-3,1.5-1,2.5-2,.5-1.5,2-2-1v-.5l-6,3.5-1-.5-1,2.5-2.5.5-4.5,4-4.5,2-3,.5-.5-1.5-1.5.5-.5-2,1-.5-4.5-3-4,2.5-2-2-4,1-2-1.5v-2.5l1-.5-1.5-.5-.5-4"/>
      <path data-code="ALT-ZAV" d="m90.75,111.1l.5-3,3,2,1.5-4.5,2-1.5-.5-1.5,2-1.5-.5-3-1.5-.5-1-4.5-1.5-2.5,4-1.5,3.5-3.5v1l4.5-.5,1,3-.5,2,.5-1h5.5l.5-2,4,3-.5,1.5h3.5l3-2,2,.5,4,9-1,.5,1.5,2,1-1,1.5,2-3,4,.5,1.5-1,1.5-2.5.5-1,.5-1-1.5h-1l-.5,1.5h-5.5l-3-2-1-2.5-.5.5v3.5l-3,1-.5-1.5-7.5,4.5,1,5-5.5,1.5-1-.5.5-1.5-3-.5.5-2-4.5-1,.5-5"/>
      <path data-code="ALT-ZME" d="m119.25,219.6l2.5-4.5,1,.5,1.5-2,1,1,3.5-6h.5l2.5-3.5-.5-2.5,2-1,1,1.5-1,1.5,3.5,1.5,1-2,.5,1-1.5,3.5,1,1v2l1.5,1.5,1-2h5l.5,4,2.5,1.5,2,4,1.5.5,3.5,7.5,1.5.5v2.5l4.5-1.5,2.5,4.5v-1.5l1.5-1-.5-.5.5-.5v-.5h1.5l.5-2,3.5-1.5.5,1.5-2.5,5-1-.5-1,1.5,5,2-.5,2,3.5,5.5,1.5-.5,2,2.5-1,3-5,3-.5,2-9.5-4,.5-1.5,1-1-2-2-1,.5-1.5-5-1.5-.5v-1.5l-4.5.5-1,1-1,2.5-3-2.5h-2l-5,3-3-1.5-1.5-5,2.5-3v-1l-2-.5-1.5-4-3.5-1.5-.5,1-12.5-8.5"/>
      <path data-code="ALT-ZON" d="m245.75,138.6h1.5l-1-2.5h1.5l-.5-1.5,2,.5.5-1,1.5,1,3.5.5,1.5-.5h-1.5l2.5-1.5-.5-3,2-1,1-3.5,2.5-1.5h3.5l3.5-2,4.5,1.5,1-3,3.5,1-1,5h1.5l2,2-1.5,1.5,1,.5-1.5.5-1.5,4.5-3,2-.5-1h-1l.5,2-1.5,1.5.5,2.5-1,.5.5,1-1,2h-2.5l.5.5-.5,3-7-1-1,1.5v3l-2,.5v1.5l-4-.5h3l.5-5.5-1-1.5-3,1-1-2.5-4,1.5-3-9.5"/>
</svg>