<svg data-code="RU-CU" xmlns="http://www.w3.org/2000/svg" viewBox="0 0 104.25 110.61">
    <g data-code="chuvashija">
      <path data-code="alatyrskij_rajon" data-title="alatyrskij rajon" class="cls-1" d="M7.63,80.62l1.5,1.5-1.5.5,1,1,1.5-.5.5,1.5,1.5-.5,1-3h2l-3.5-1-1.5,1-1.5-1-1,.5M4.63,67.62l7-.5,1,1,2-2.14v.5l1-1,17.11,9.38-4.11,6.26,5,2-6,10,1,.5-.5.5-5,2.5-3,3-3-1-3,1.5v-1.5l-3,1-.5-1,1-3.5-4.5-1.5-2.5-7.5.5-.5-2.5-3,2,.5-1-1.5.5-2.5,1.5-1.5v-.5l.5-.5-1-4,.5-1-1-1,1-2.5-1-.5"/>
      <path data-code="alikovskij_rajon" data-title="alikovskij rajon" class="cls-1" d="M42.13,22.12l3,.5,2,2,2.5-1,2,3,2-1.5,5.5,3-1,1-1.5-.5-2,1.5,2,2.5-1.5,3.5.5,1-2,.5-1.5-1-2.5,1.5-1.5-.5-.5-2.5-3,.5-.5-1.14-7.29-2.54.3-1.33,2.5-3,.5-2.5-2-.5.5-1,3.5-1.5Z"/>
      <path data-code="batyrevskij_rajon" data-title="batyrevskij rajon" class="cls-1" d="M32.74,74.87l4.89,3.26v-1l3,1,2,1.5,2.5.5-.5.5,2,1.5,2-1,1-1,1,1,1.5-1-.5,1.5,5,2.5,1.5,3.5,3,1-3.5,6.5,1,1.5-1,1-1-.5-1.5,1-7-5-1-2-1,.5-1.5-2v1.5l-1-1-1,.5-.5,2.5-10.57-6.55,2.07-3.45-5-2,4.11-6.26Z"/>
      <path data-code="cheboksarskij_rajon" data-title="cheboksarskij rajon" class="cls-1" d="M60.13,20.62l1.5-.5v-1l1-1v-1l1.5.5v-2.5l.5-.5,1-.5.5-2.5h1.5l-.5-1,1.5-1.5-1-.5,3.5-3.5v-.5l2.3-.26,5.7.76,1.5-2,3,2,.5-1,4.5,2.5-4,6,1.5,1-1.5,2.5-5.5-5.5-6-2.5,2,4.5-1.5,1.5-2.5-1-.5,1,2,.5-1,1.5.5.5h-1l3.5,2.5,1,2.5.5-1h4l-2-.5.5-1,1.5.5.5-1,1.5,1,1.5,2.5h-1.5v1h1.5l-1,1v1h-.5l1,1.5,2-1-.5-2,2-.5-2.5-3.5,1-1,1.5.5-.5,1,3,2.5h-2l-2.5,5.5-.5-1-.5,2-1.5.5,1,1.5-1,1.5-.5-1.5h-4l-7.5-4-1.5.5-.5,1.5-1.3.4-.7-1.4-2,1.5v-1l-2,1-2-4-1.5-.5.5-2.5,2.5-1.5-1.5-.5"/>
      <path data-code="civil_skij_rajon" data-title="civil&amp;apos;skij_rajon" class="cls-1" d="M68.13,29.12l.5-1.5,1.5-.5,7.5,4h4l1.5,3-.5.5.5,2.5,2,1-2,2.5,2,2.5-1,1.5h-.5l-.1,1.01-1.4.49-2-1-1,1.5h-2l-3.5,2-1-.5-3,1-1-1,.5-1.5-1-1-1,.5-1-2-2.92.48.42-1.48,2-1.5,1,1,2.5-2-.5-4h-2l.5-1.5-2-2.5,2-2.5-.3-.6,1.3-.4Z"/>
      <path data-code="gorod_alatyr_" data-title="gorod_alatyr&amp;apos;" class="cls-1" d="M7.63,80.62l1-.5,1.5,1,1.5-1,3.5,1h-2l-1,3-1.5.5-.5-1.5-1.5.5-1-1,1.5-.5-1.5-1.5"/>
      <path data-code="gorod_cheboksary" data-title="gorod cheboksary" class="cls-1" d="M79.13,10.62l5.5,5.5-1,1.5,1.5,1-1,1-1-1v1h-1l-1.5-1-.5,1-1.5-.5-.42.84,1.92.66h-4l-.5,1-1-2.5-3.5-2.5h1l-.5-.5,1-1.5-2-.5.5-1,2.5,1,1.5-1.5-2-4.5,6,2.5Z"/>
      <path data-code="gorod_kanash" data-title="gorod kanash" class="cls-1" d="M61.63,58.12l2-1,2,.5v-.5l.5,1.5-1.5.5h.5v.5h-1.5l-2-1.5"/>
      <path data-code="gorod_novocheboksarsk" data-title="gorod novocheboksarsk" class="cls-1" d="M83.13,19.62v-1l1,1,1-1-1,1,2.5,3.5-2,.5.5,2-2,1-1-1.5h.5v-1l1-1h-1.5v-1h1.5l-1.5-2.5h1Z"/>
      <path data-code="gorod_shumerlja" data-title="gorod shumerlja" class="cls-1" d="M29.62,38.49l.5,1-.5,1-1.5.5-1-3,2.5.5Z"/>
      <path data-code="ibresinskij_rajon" data-title="ibresinskij rajon" class="cls-1" d="M34.12,52.99l8,4.5,2.5-.5,1,.5,1.5-1,.5,2h1l-.5-.5,1-1.5,1,2.64-.5.5,1,1,2.5-.5.5,1-.5.5,1.5.5,1.5,3-2.5,1-2.5,3h-1l1.5,1-.5,1.5-4,.5v-1l-3,1.5.5,1-.5,1,1,.5-1,.5-1.5,1.5-1-.5-1,1.5-3-1v1l-12.4-7.37,2.9-4.63-1-.5,4-8.64,1.5-3.5,1.5-.5Z"/>
      <path data-code="jadrinskij_rajon" data-title="jadrinskij rajon" class="cls-1" d="M30.63,10.62l4,.5-.5-1.5h-1l1.5-1-.5-3,4-1.5,3-2h9l-1-.5,1.5-1,.5,2,2.5.5,2,4-1.5,1-2.5.5v.5h1.5l-.5.5.5.5h-1.5l.5.5h-1l-.5,1.5h-1.5l-.5,1.5-2.5.5v2l-.5,1,2,2-.5,3.5,2.5,1-2.5,1-2-2-3-.5-3.5,1.5-.5-1.5-1,.5-3-1.5,1-2-.5-1,.5-.5v-.5l-2-.5-.5-1.5-3.16.32,1.16-2.32v-2.5"/>
      <path data-code="jal_chikskij_rajon" data-title="jal&amp;apos;chikskij_rajon" class="cls-1" d="M60.13,80.12l1-1,2.5,1,2-2.5v-1h1l-.5,2,1,1-.5,1,1.5.5-.5-2,1.5-2.5,2,1,1.5,3.5-1.5,3.5,1,1-1.5,3.5v3h-2l-.5,2.5h-1v-2.5l-1,.5-4-1.5-1,2.5v2h1v-1l1-.5h.5l-.5,1.5h1l.5,1-2.5,3-2,1.5-2-.5,1-1.5-.5.5-.5,1h-1l-.5-2.5-1.08-.28,1.08-.72,1,.5,1-1-1-1.5,3.5-6.5-3-1-1-1.5,1.5-1,1.5-5M63.63,100.12l1.5-1,1.5.5-1.5,1.5-1.5-1"/>
      <path data-code="jantikovskij_rajon" data-title="jantikovskij rajon" class="cls-1" d="M66.13,69.62v.5l.5,1.5v-2h-.5M68.13,56.62l2-1,1.5.5,1-2,.5,1.5.5-1.5.5,2,2.5.5v3.36h1l3,3-.5,2,.5,1.5v.64l-1.5-.5-1.5,2-.5-.5-1.5,1.5-.5-.5-1,1.5-2,.5-.5,1.5h-3l-1,1.5h-1.5v-1.5l-2.5-1.5,2.5-4,.5-2,1.5,1,.5-2-1-3,1-.5-.5-.5.5-1.5-1-1,.5-1"/>
      <path data-code="kanashskij_rajon" data-title="kanashskij rajon" class="cls-1" d="M61.63,58.12l2,1.5h1.5l-.5-.5,1.5-.5-.5-1.5v.5l-2-.5-2,1M50.63,54.12l3-2.5h2l1.5-2-.5-2,1-1-.5-1,1.95-1.32,3.55,2.32.58-2.02,2.92-.48,1,2,1-.5,1,1-.5,1.5,1,1,3-1,1,.5,1.56-.89.5.5-2.06,2.89v2l-.5,1h.5l-.5,1.5-.5-1.5-1,2-1.5-.5-2,1-.5,1,1,1-.5,1.5.5.5-1,.5,1,3-.5,2-1.5-1-.5,2-2.5,4-2.5,1v-2l-2-1h1l-1-1.5h-1l-1-2-1.5.5.5-1-1.5-3-1.5-.5.5-.5-.5-1-2.5.5-1-1,.5-.5-.41-1.07,1.41-1.93-1-1,.5-1"/>
      <path data-code="komsomol_skij_rajon__chuvashija_" data-title="komsomol&amp;apos;skij_rajon_(chuvashija)" class="cls-1" d="M40.63,78.12l1-1.5,1,.5,1.5-1.5,1-.5-1-.5.5-1-.5-1,3-1.5v1l4-.5.5-1.5-1.5-1h1l2.5-3,2.5-1-.5,1,1.5-.5,1,2h1l1,1.5h-1l2,1v2h2v1l-.5,1v1.5l-1,1.5-2.5,2.5,1,1-1.5,4.5-1.5,1-.5-2-5-2.5.5-1.5-1.5,1-1-1-1,1-2,1-2-1.5.5-.5-2.5-.5-2-1.5"/>
      <path data-code="kozlovskij_rajon" data-title="kozlovskij rajon" class="cls-1" d="M83.63,44.62h.5l1-1.5,3.5,3,2-1.5.5,1.5,1.5-.5.5-1.5,2-.5.5-1,1.5-1,3,3.5,1,2-1.5,1.5v1.5l1.5,3.5,2.5,2-1,.5.5,1.5h-3.5l-2-2v1.5h-2v1l-2.5,2.5-2.74-1.48,1.74-2.52-3-1.64-1-5,.5-1-4-1.5-.5,2h-1l.5-4.86"/>
      <path data-code="krasnoarmejskij_rajon__chuvashija_" data-title="krasnoarmejskij_rajon_(chuvashija)" class="cls-1" d="M54.63,30.12l2-1.5,1.5.5,1-1,1-2.5,2,4,2-1v1l2-1.5,1,2-2,2.5,2,2.5-.5,1.5h2l.5,4-2.5,2-1-1-2,1.5-1,3.5-2.5-1-2-2.5-.5-3h-2l.5-2-1-2,1.5-3.5-2-2.5"/>
      <path data-code="krasnochetajskij_rajon" data-title="krasnochetajskij rajon" class="cls-1" d="M19.13,18.12l2.5-.5v-1.5l1-1,1.5,1,2.5-1.5,1,1,5-.5.5,1.5,2,.5v.5l-.5.5.5,1-1,2,3,1.5,1-.5.5,1.5-.5,1,2,.5-.5,2.5-2.5,3-.3,1.33-4.21-1.46v-1.36l1-1-2-1.5-2,2.5-2,1-1,1.5-2-.5-1,2-1-1v1.5l-2-.5-1-3h1.5l-.5-1.5h.5v-2l.5-1-1-2-2-1,.5-4.5"/>
      <path data-code="mariinsko-posadskij_rajon" data-title="mariinsko-posadskij rajon" class="cls-1" d="M82.13,29.62l1.5-.5.5-2,.5,1,2.5-5.5h2l8,5,.5,3-1,.5-2,4.5,1-.5,1,2.5-1.5,1,2,3-1.5,1-.5,1-2,.5-.5,1.5-1.5.5-.5-1.5-2,1.5-3.5-3-2-2.5,2-2.5-2-1-.5-2.5.5-.5-1-1.5,1-1.5-1-1.5"/>
      <path data-code="morgaushskij_rajon" data-title="morgaushskij rajon" class="cls-1" d="M46.13,14.12l2.5-.5.5-1.5h1.5l.5-1.5h1l-.5-.5h1.5l-.5-.5.5-.5h-1.5v-.5l2.5-.5,1.5-1-2-3.5h3l1,3.5,3.5-.5,1.5-1.5,2.5-1-1-1.5.5-.5,1.5,2.5h5v.5l-3.5,3.5,1,.5-1.5,1.5.5,1h-1.5l-.5,2.5-1,.5-.5.5v2.5l-1.5-.5v1l-1,1v1l-1.5.5,1.5.5-2.5,1.5-.5,2.5,1.5.5-1,2.5-5.5-3-2,1.5-2-3-2.5-1,.5-3.5-2-2,.5-1v-2"/>
      <path data-code="poreckij_rajon" data-title="poreckij rajon" class="cls-1" d="M3.62,51.99l1.5.5,3-2.5,3,1,1.5-2,1.5.5,1-1,1-3.5,1,.5.5-2,1-.5-.5,2,1,1.5v3l1,.5.5,3,6,3,.5,1.5,2,.5,2-1-4,8.64,1,.5-2.9,4.63-9.61-5.26-1,1v-.5l-2,2-1-1-5,1v-1l1.5-1.5-.5-5-2,.5-.5,2.5h-1l-2.5,2.5v-1.5l.5-.5.5-1-2-4,2.5-1-1-1.5,1-1,.5-3.5"/>
      <path data-code="shemurshinskij_rajon" data-title="shemurshinskij rajon" class="cls-1" d="M36.62,94.49v.5l.5-.5h-.5M34.12,94.99v.5l1,.5v-.5l-1-.5M32.12,93.99v.5h.5v-.5h-.5M34.62,93.99h.5l1.5-.5-.5-.5-1.5,1M20.62,98.99l2.5-2.36,5-2.5.5-.5-1-.5,3.93-6.55,10.57,6.55.5-2.5,1-.5,1,1v-1.5l1.5,2,1-.5,1,2,5.5,3.36-4,9.5,1.5,1h-2l1.5-7.5h-1l.5,1.5-2,1.5v3l-1,.5.5-3h-1l-.5-2.5-3.5,1.5v-1.5l-3-3,.5-1-1-1v-1l-.5.5-.5,3.5-1-1.5-1.5.5-1.5,3-.5.5v1.5l-4.5.5-2,2-.5,1-1.5-1,.5,1-2-2,.5,1h-1l.5-2-1,.5-.5-3.5-1.5-1M27.62,105.49l3.5.5-1,2.5v1.5h-2l1-3-1.5-1.5M53.12,101.49l.5-.5h.5v.5h-1"/>
      <path data-code="shumerlinskij_rajon" data-title="shumerlinskij rajon" class="cls-1" d="M27.12,37.99l1,3,1.5-.5.5-1-.5-1-2.5-.5M26.62,31.62l1-1.5,2-1,2-2.5,2,1.5-1,1v1.36l11.5,4-1.5,3.5-2,1.5-1,3-2,2.5-3.5,1.5,1,.5-1.5,3-1.5,1,.5,2.5-1.5,3.5-2,1-2-.5-.5-1.5-6-3-.5-3-1-.5v-3l-1-1.5.5-2,1.5-.5,4.5,1,2-2.5-1-2h-1l.5-1.5h1.5l-2.5-1-1-2,.04-.91,1.46-2.46,2,.5Z"/>
      <path data-code="urmarskij_rajon" data-title="urmarskij rajon" class="cls-1" d="M79.13,46.62l1-1.5,2,1,1.4-.49-.4,3.85h1l.5-2,4,1.5-.5,1,1,5,3,1.64-3.34,4.92-.66-.55,1.5-2.5-1-.5-1,3-2-1.5-.5,1h-1l-1,2h3l-1.5,2,2,2.5h-1.5l-1.5,2-3.5-2,.5-.5-.5-1.5.5-2-3-3h-1v-3.36l-2.5-.5-.5-2h-.5l.5-1v-2l2.06-2.89-.5-.5,1.94-1.11h2Z"/>
      <path data-code="vurnarskij_rajon" data-title="vurnarskij rajon" class="cls-1" d="M34.12,46.49l3.5-1.5,2-2.5,1-3,2-1.5,1.5-3.5.5,1.14,3-.5.5,2.5,1.5.5,2.5-1.5,1.5,1,2-.5.5,1-.5,2h2l.5,3,.95,1.18-1.95,1.32.5,1-1,1,.5,2-1.5,2h-2l-3,2.5-.5,1,1,1-1.41,1.93-.6-1.57-1,1.5.5.5h-1l-.5-2-1.5,1-1-.5-2.5.5-8-4.5-1.5.5-.5-2.5,1.5-1,1.5-3-1-.5"/>
    </g>
</svg>