<svg data-code="RU-ARK" xmlns="http://www.w3.org/2000/svg" viewBox="0 0 1240.57 1304.38">
    <g data-code="arkhangel_skaja_oblast_" data-title="arkhangel&amp;apos;skaja_oblast&amp;apos;">
      <path data-code="arkhangel_sk" data-title="arkhangel&amp;apos;sk" class="cls-1" d="M198.12,949.39l2-1,.5,2,2.5,1,1.5-2.5.5-.5,1-4.5,2-3,.5.5.5-2,1-.5h1v-.5l.5-.5v3.5l1.5-1-.5,2.5,2,1-1,1.5-1-.5.5,1.5-1,1-2.5,1v-1.5l-1,.5.5.5-1,1.5.5.5,1-.5-.5,1.5h1.5l1,.5,3,3.5-4-1.5-1-2.5-2.5,1,2.5,1-1.5,1.5.5,1-.5,3,1.5,2h-1l-1,2-2-2.5-1.5.5-1-1v3h-2l-1-1v-1l3-1h1.5l-1.5-1,1.5-2-.5-1-4-4.5v.5h-.5l-1,1.5-.5-3.5"/>
      <path data-code="kargopol_skij_rajon" data-title="kargopol&amp;apos;skij_rajon" class="cls-1" d="M16.62,1072.39l1-.5.5-1,2-1.5,1.5.5,2-1,1-1v-2l7.5-6,2-3,1.5,2,.5,3.5,1.5,3.5,3.5.5,2,2.5,1-1.5h.5l3,3-2,1.5h-1v3.5l2,.5,3.5,3.5,1-.5-3-3,1.5-1,4-4.5-1-1.5.5-.5,5,6,.5-2.5,2.5-3.5-.5-2,5,2.5,3.5,1,.5-.5.5.5-2,1.5-.5,2.5-1.5-1-.5,3.5.5-.5,4,5-1.5,2-1.5-1-1,1,1,1-1,.5-.5-.5-2,2,1,1-.5,1.5-2,1.5,3.5,3.5-1,1.5,1.5,1,1-1,1,.5,1-1.5,1,1,2-2.5,5.5,4-2.5,4,1,.5-2.5,4h-1.5l.5,1-1.5,1-.5,1.5-1,1.5,2.5,2-1,1-3.5-2.5v1l-3.5,6,4,2.5-5.5,8.5-4-2.5-3,3.5-3-3-1.5,1.5-1-1-3.5,4.5-1-1-1.5,2.5-1-1,.5-2-3-2.5.5-1-4.5,1-1.5-1.5-2,2.5-1-1-1.5,2-3-2.5-1.5,2.5-1.5-1-4.5,6-1.5,1-1-.5-2.5,4-.5,1.5-1.5,2.5-1.5-1-3,.5-1,1.5-5-4,1-2v-1l1-1-.5-.5,1-1-4.5-4,3-3.5.5-3-1.5-.5-2-3.5,1.5-4,.5,1.5.5-1-.5-1,1-1.5h3.5l.5-1-1.5-.5.5-3h1v-4.5l-4-1,3.5-4.5-1.5-1.5,1.5-2-1-3,3.5-4-1-1.5.5-2,2-1v-2l2.5-2.5,1-2-.5-1.5,2.5-4"/>
      <path data-code="kholmogorskij_rajon" data-title="kholmogorskij rajon" class="cls-1" d="M191.12,978.89l7-8,3,5,1-1,7,6,1.5-2.5-2-.5-3-3.5,1.5-1.5-.5-1.5,1.5-1h.5l2.5,4,5.5,4,.5,2.5,4,2v-3h2.5l13-15.5,4,3.5,4-4.5,1,1,.5-.5.5,1-.5.5,2,2.5-7.5,8,12.5,12,2,1-1.5,2,11,10-1.5,1.5,1,1-2,2.5v1.5l13,10.5-2.5,1.5-4.5,3.5-5.5,3-8,1-5.5-2-2.5,9.5,2.5,2-13,17.5-2-1.5-3,4-8-6v1h-.5l-2.5,3-1-.5-5,5.5-5-2.5-1.5,1.5-2.5-2.5-3.5,3.5,2,2-1.5,1.5-11-7.5-1,1-1,2.5-1-.5-1,1.5.5.5-.5,2.5-2,2.5-1-1-3.5,4.5-3-2.5-4,5-1-2.5,3.5-5-4-3.5,1.5-2-1-2.5-1,.5-6-5-1,.5-6.5-4,1-2.5-1-.5-1,.5-2.5-2.5,4.5-5-2-1.5,2-2.5,1,1,2-2,1,1,10-12-1-1,7.5-8-3-3,7-7.5.5.5,13-15h-3.5l1-1-4-3.5,2-2,.5,1,1-1-3-2.5"/>
      <path data-code="konoshskij_rajon" data-title="konoshskij rajon" class="cls-1" d="M16.62,1135.89l1.5-1.5.5,1,1.5-1,4.5-6,1.5,1,1.5-2.5,3,2.5,1.5-2,1,1,2-2.5,1.5,1.5,4.5-1-.5,1,3,2.5-.5,2,1,1,1.5-2.5,1,1,3.5-4.5,1,1,1.5-1.5,3,3,3-3.5,4,2.5,5.5-8.5,2,1.5-.5,1,3-.5-.5,1,3,2-2.5,4,2,1.5,1.5-2,3,2-1.5,2,5,3.5,1-1.5,1.5.5.5,3,1.5-.5,1.5,2,4,1.5-.5,2,.5,3-1.5,3,.5,1.5h-1l-.5,2.5-1.5,2-1-1-3.5,4.5,4,2.5-1.5,2-1-.5-2.5,3.5,3,2,1-1,1,2-.5,1,1,3-1.5,2-.5-.5v1l-4,4.5,2.5,1v2l-2,.5v2.5l-6.5,5-1,1-1,3.5-.5-2.5-6-1.5-1-2,1-.5-4.5-4.5,1-1-3-3,1-1-1-1,2-2-1-1-4,1v1l-2-1-2-6.5-5,2-1,1h-2l-2-2.5-1,1.5-3.5-3h-1l-1.5,1-3-2.5.5-6.5-.5-1h-3l-.5-1,1-1.5-3,.5-7-2-1-1v-2.5h-1l-1.5-2-2,1-.5,3-1,.5.5-3-2.5-5,1-3-1-1,3.5-7"/>
      <path data-code="korjazhma" class="cls-1" d="M256.62,1253.89l1.5-1,4.5,1v2l-.5,1-1.5-2-2.5,1.5h-2.5l1-2.5"/>
      <path data-code="kotlas" class="cls-1" d="M243.62,1245.89l5.5,5,4-1.5.5,1-.5,1,1,2.5-2.5-.5,2.5,1.5h-1.5.5l-1,1-2.5-4-.5.5-5-.5-1,.5-1,3-1-.5.5-2,3-5-1-2"/>
      <path data-code="kotlasskij_rajon" data-title="kotlasskij rajon" class="cls-1" d="M256.62,1253.89l-1,2.5h2.5l2.5-1.5,1.5,2,.5-1v-2l-4.5-1-1.5,1M243.62,1245.89l1,2-3,5-.5,2,1,.5,1-3,1-.5,5,.5.5-.5,2.5,4,1-1h-.5,1.5l-2-.5-.5-1,2.5.5-1-2.5.5-1-.5-1-4,1.5-5.5-5M205.62,1231.39l4.5-5.5,6,5,2.5-3,6,5,5-6.5,6,5,1-1-.5-1h.5l3,.5v-1.5l.5-2.5,1.5,3,2,.5,1,2,2,2v2.5l-1,.5.5,1.5,1-.5v1.5l-1,1.5.5,1.5h1l4.5-5.5,5.5,5,2.5-.5,2.5-2.5,2,1.5,3.5-4,1,.5,3.5-4-1-1,2-3,.5.5,1.5-2.5,5.5,3.5,1.5-2.5,8,4-.5,1.5,2,2-3.5,4,2,2-3.5,4,3.5,2.5-1.5,2-1.5-1-1,1.5-2-2-.5,1-1-.5-.5.5.5,1-1.5,2-.5,2-2.5,2-2.5-1h-.5l.5,1h-1.5l-.5,1.5h-3l-1.5,1.5,1.5,4-.5,1v1l-2-1-3,.5.5-1.5h-2.5v-.5l-1.5-.5-1,1-3.5-1,1.5,2.5,9,4.5,2,3-.5,1,.5.5-4.5-.5-1.5.5,2,1.5-1.5,1v.5l-3.5-.5-.5.5-7-6.5-1.5,2-1,2-4,.5-.5,1.5.5.5-5,5-3.5-3,.5-1-.5-1-2-1.5.5-3,2.5-2-7.5-5.5,1.5-2.5v-1.5l-1-.5-1.5,1.5-5-2-1.5,1.5-13.5-11.5,6.5-8-12-10"/>
      <path data-code="krasnoborskij_rajon" data-title="krasnoborskij rajon" class="cls-1" d="M209.12,1196.39l8.5-10.5,4.5,4.5,1.5-1.5v-1l1-.5,1-1.5,1-.5.5-1.5h2.5l1,1-1.5,1.5.5,2,3.5,3,1-1,1,1-1,1,2.5,2,.5-1,20.5,12,11-18,24.5,14.5,6-8.5,4.5,3-6,8.5,7,4.5,6-8.5,13,8-2.5,3.5-1,.5-4,6-1.5-1-2,3-4.5-2.5-2.5,4.5-4.5-3-9,14.5-2-1.5.5-1.5-8-4-1.5,2.5-5.5-3.5-1.5,2.5-.5-.5-2,3,1,1-3.5,4-1-.5-3.5,4-2-1.5-2.5,2.5-2.5.5-5.5-5-4.5,5.5h-1l-.5-1.5,1-1.5-1.5-2.5,1-.5v-2.5l-2-2-1-2-2-.5-1.5-3-.5,2.5v1.5l-3-.5h-.5l.5,1-1,1-6-5-5,6.5-6-5-2.5,3-8-7,4-5-4-3.5,7-8.5,1.5.5,1.5-2-4-3.5,2.5-2.5-3-2.5-1.5,2-3-2.5"/>
      <path data-code="lenskij_rajon" data-title="lenskij rajon" class="cls-1" d="M282.62,1248.89l.5-.5,1,.5.5-1,2,2,1-1.5,1.5,1,1.5-2-3.5-2.5,3.5-4-2-2,3.5-4,9-15,4.5,3,2.5-4.5,4.5,2.5,2-3,1.5,1,4-6,1-.5,2.5-3.5,4.5,3,5-10.5v-2.5l10.5-12.5,8,7,6.5-8,22,18-7,8-21.5,27-2.5-1.5-1,1.5.5.5-2.5-.5-20,25,11.5,10-10.5,12.5-18-16-.5,1-17.5-14.5,1.5-1.5-5-1.5-6.5.5.5-2,1.5-2-.5-1"/>
      <path data-code="leshukonskij_rajon" data-title="leshukonskij rajon" class="cls-1" d="M332.12,974.39l2-2.5,12.5,12.5-1.5,1,2.5,3,2-3.5,13-2.5,35,23,27,9,28.5,16-6.5,13.5,17,4-.5,7.5,1.5,29.5,5.5,6-13,15.5-10.5-9.5-.5.5-8-6.5-7,8-12-10.5-6.5,7-.5,1-9-7-6.5,8.5-6.5-5,1-3.5,2-4.5-21-12.5-20-8.5-10.5-.5-11-9.5-7-.5,1.5-13.5-13-11.5,7-8-6-5.5,3.5-4,2,2,7.5-8.5-1.5-8.5.5-3-2-1.5,1-1.5-.5-.5,5.5-9,3-6"/>
      <path data-code="mezenskij_rajon" data-title="mezenskij rajon" class="cls-1" d="M339.62,861.39l-1.5,1-1-2-1-3.5v-3l2.5-1,2,3,.5,2-1.5,3.5M372.12,908.39l-.5,5,4,8,3,2.5,5.5,7,7.5,13,3.5,1,10.5,10,7,12.5,5.5,12.5,9,3,6,5.5h2l2-.5-.5-4.5,4-3.5h1l3-2,2.5,3,5.5-6.5,22.5,13.5-21.5,42.5-29-16-27-9-35-23-13,2.5-2,3.5-2.5-3,1.5-1-12.5-12.5-2,2.5-3,6-5.5,9-15.5-14,4-4.5-41-37,3.5-4-9-8v-1l-1,1h-1l-3-1.5,2.5-21.5h.5l1.5-10.5-3-.5,2-15,3-1,10.5,4,10,1,13-3.5,5.5-3.5,5.5-1,7-4.5,4.5.5,5.5,9.5v2h-2l-.5,1,7.5,4.5,10,3.5v4.5l-.5,3,4,6v4.5l-7.5.5-1,1-4.5,1-1.5,2,1,1,1.5-2,2.5-1,6.5,1,2.5-.5v1l3,1,.5,1.5-1.5,6,2,4-3,2-1,2v3.5l-1.5,4,.5.5h.5v-1.5l1.5-2v-4l4.5-2.5,1.5-3.5v-1.5l1.5-5,1.5-2,4-4.5,8-5.5,3.5,8.5"/>
      <path data-code="mirnyj" class="cls-1" d="M128.62,1052.89l4-5,2,1.5,2-2-1-1,2.5-3,1.5.5,1.5-1,1,.5,1-1,2,1.5,1-1,4,2,1.5-1.5,1,1.5,2-2,2.5,2.5,1-.5,1,.5-1,2.5,6.5,4,1-.5,6,5,1-.5,1,2.5-1.5,2,4,3.5-3.5,5,1,1,.5,3-.5,1-2.5.5,1-1.5-4-3.5,2-2.5-.5-1.5-.5,1-4-3.5-2,2-2.5-2,.5-.5-1-1.5-.5,1-3.5-3-1,1.5-5.5-3.5-1,1-2.5-3.5-1.5,2-2.5-1-1,1.5-1-1-1.5,2-1.5.5-1-1-3.5,4-4-3,2-2-2.5-2.5.5-1"/>
      <path data-code="njandomskij_rajon" data-title="njandomskij rajon" class="cls-1" d="M67.62,1110.26l4,1.5-2-2.5,1-1,.5-2,1.5-.5-.5-1h1.5l2.5-4-1-.5,3-5,1-1h1l4-6,5.5,3.5,2.5-4.5,1,1-.5-2.5,1-2h1l2.5,3,1-1.5,2,1.5,4.5-6.5,1,.5,3-4-1.5-2.5,2-3-4.5-3,.5-1-.5-1,.5-1,2,.5,2.5,1.5,3-5.5,3,1v2.5l5,3,4-1,3.5,1.5-1.5,2.5,6.5,3.5-3,4.5,2,1.5-2.5,4,4,3-3,4,4,2.5-5.5,8.5-3-2-4,6,8,5.5-1,.5,1.5,3.5-1,3,2,5-.5.5-5.5-3.5-2,2.5h-1l-6.5,9.5-3-2-5.5,8-1,.5-5-2.5.5-1.5-4-2v1l-2,3-.5,1.5-1.5,1.5-2,3v-3.5l-3.5-1-1.5-2-1.5.5-.5-3-1.5-1-1,1.5-5-3,1.5-2-3.5-2-1,2-2-1.5,2.5-4-3-2.5v-.5l-2.5.5.5-1-6-4.5,3.5-5.5v-1"/>
      <path data-code="novaja_zemlja" data-title="novaja zemlja" class="cls-1" d="M767.62,637.76l2.5-1,2.5.5.5-1,2.5-.5v-1l-.5-.5-1.5,1.5-.5-.5.5-.5,3.5-.5-1-1h-5.5l1.5-1.5,1-.5,1.5-1.5-2.5-1.5,3.5-.5-5-3.5v-4.5l-1.5-.5,1.5-1.5h1.5l1.5-2.5,4.5-3,9,.5,6.5,6.5,3.5,2,2-.5-6-3.5-.5-1,4,.5-4-2-1.5-3,2-2.5,1-.5h2l3,3,1-.5-2.5-2,.5-.5v-.5l1-.5-1-.5.5-1-2-1,1.5-1.5-1-.5,1.5-1v-1l1-1,7.5-3,3.5,1.5,4-1v-1,1l5,.5.5,1.5h2l-1,1,.5.5,4,2,4.5-2,7.5-1-2-2-5.5,2h-2.5l-1-.5v-1.5l-2-1.5v-1.5l3-1,3,1,.5-1,2.5-1h2.5l-.5-1.5h-2.5v-1.5l-1.5-1,2.5-1,3-2.5h8l2.5-1.5,3,1,5.5-.5,2.5,1,1-.5-5.5-2.5h-2l-1.5,1-1-.5,1-1.5v-.5h-3l-2.5-2-3.5,1-3,1.5h-4l-.5-2h-2l-1-1.5.5-2-1-.5v-2.5l-3-5.5,1-1.5,1.5-2,.5,2.5,3.5,1.5,4.5-1.5-.5-1,1.5-1,5.5-2,7.5,1.5,2.5-1,2.5,1.5.5-1-4-4,1.5-1.5,4-1.5,8.5-2.5,1.5,1h2l3.5,5,3,1,1,3,2.5-1-.5,1,1,1-.5,1,1.5,2v-2l.5-1-1-1h.5v-1l-3.5-3,1.5-1.5-5.5-6.5-3.5-1.5.5-1v-1h1.5l.5-1h3l-1.5,1.5,8,2.5v2l.5,1,2-1.5v-2l-2-1.5-.5-2.5-4.5-3,2-1.5,1.5-1.5,2.5,1.5h5l3.5,2,6,1-.5-1.5-1.5-.5v-1l1,.5v-1l.5-1-4.5-3-3.5.5,2-1.5-3-2.5,2-2,1-2.5,2-.5,4-1,.5,1,1,.5-1,.5v1l2.5,1,2.5-.5.5-.5,5,1.5,2-1-.5,1,2.5,4.5,2-.5v-1l-1-.5v-2.5l-.5-2-1.5-.5,2.5-1.5v-.5h-2.5l-1-2.5-6.5-1-2-1v-1.5l-1.5-1.5,2-1,6.5-.5h5.5l1,1,1.5-1-2-1.5h-1.5l2-1-2-1,4-1.5-1-3-4.5-1-3,1-3-1.5,4.5-4.5-1.5-2.5h-2l3-3.5,4.5-2.5,1.5.5-.5,1,1,1h2l-2,1,.5,1.5,4-.5.5,1.5-1,.5,1,2-1,1.5.5,2.5,4.5-.5-1-1,2.5-2.5,3-1,1.5-1.5,4,.5,2.5-1.5-2.5-1-.5-2-2-1.5.5-1.5,5-2h4l3.5,3,3,.5-.5,1.5,1.5,3,7,3.5,1.5-2.5-3.5-1.5v-1l2.5-3.5-1-2h-1.5l1-2-.5-1,1.5-1.5h3l14,1v-.5h.5v-2l-4.5-1-2-2,3.5-1.5,4,1.5,4.5-1,6.5,1.5,2-3-1-2.5,6-2,3,2.5h1.5l.5-.5v-1l-2.5-1.5,2-1,9,2,3,3.5,3.5-1,3.5,1-1-1,2-1,5.5,2,1.5-1.5-5.5-4v-1l6-2v-.5h-3l-.5-.5h1v-.5l-.5-.5-4-1,5-2.5,9,2-1,1-5,.5-1,2,.5.5,5-.5,5,3.5-5.5,2-3,2,6.5,3v-1.5h.5l-.5-1,6.5,1.5,1-1,.5-2,2.5-.5v-2l-4-1.5-1-1,2-2,1.5-.5-.5-1.5,1-1,4.5-2-2.5-1.5,9,2.5.5.5h-1.5l2.5,1.5,2.5-.5,1,2,3,.5-1,1.5.5.5,10,4v.5l-.5,1.5-2.5,2.5,3.5,2.5,1.5-1-.5-1.5,1-.5v-.5h.5l-.5,2h1l1-1-.5-1,1.5.5v-1l2-1,1,1.5-1.5,1.5,2.5,1.5-1,.5v.5l2.5,1,3.5-.5,3.5-2,4.5,1.5,1.5-1v-1l4-1,5,1.5.5,4.5,4.5.5.5-1-.5-.5,2-1.5,3.5,1.5.5-.5v-1l1.5-1.5,5,5,.5-1-.5-1-1.5-2.5,2-1v-1l1,.5,2-1.5,2-1,3,2h5.5v-1l2-.5.5-1-.5-1h1.5l2,.5,7,6.5,2,.5-.5-4.5.5-.5.5-2.5-2.5-4.5,6-4.5,4,4.5h2l.5-.5-2-4.5,4,.5.5-.5,1-2h1l2,1h2.5l.5-.5-.5-1.5,1-1,5,.5h1l-1-2,3-1,3.5,2,3-1.5,8-.5,7.5,3-.5,1,.5,1.5,7.5,2.5-1.5,1.5,5.5,6-1.5.5-.5,1,1.5,4,2,1-1.5,2.5v.5l.5,2.5,1.5.5-5,2.5-1.5,1-1,1.5-.5,1.5-.5,1,1,2h1.5v1l-6,2.5-1,1.5v1l-2.5,2h-4l-.5.5,1,.5-.5.5v.5l-2,.5-1,2-3.5.5v1.5l1.5,1.5-.5.5-6-1-14.5,3-3.5,1.5-17.5,1-1.5,1.5-3-1.5-7-.5h-.5v2h-9l-2,1.5-7.5,1.5-1,1-2-1h-7.5l-3,1.5-9.5-2-5,3-3-1-2.5,2.5-.5-1,2-1v-.5l-1.5-1.5v-.5l1-1.5-1.5-1,.5,1-2,1v1h-1.5l-2,2-4,1-9.5-1.5-5,2.5-4-.5-5.5,1-1.5,1.5-1.5-1h1l-.5-1-5.5-2-1.5,1,.5,1-.5,1-3,1-1,2.5h-1l1.5-1v-1l-1.5-1-2.5,2-.5,1,.5,1-2,.5v1.5l-2-.5-1,1.5-1.5.5-2-.5,2.5-5v-1.5l-2-.5,1,1-.5,1-2,.5-2.5,2-1-.5-2.5,3-2.5-.5-.5.5v1l-3-1.5-2.5,1,1,.5v1.5h-1.5l1,2-3,3-1.5-.5-1-2,.5-1.5.5-.5v-.5l.5-.5v-.5l1-.5-3-1,.5,1-1,1,.5.5-1.5.5v.5l-2-.5,1,1.5-1,1.5h-7l-2.5-3.5-1.5.5,3.5,4.5,8.5,3,.5,3-3,3-1,.5-7.5-3,.5,2-1,1v.5l2,1v1l-1,1.5-2.5,1-5.5-.5-4.5-3.5h-1.5v-2l-1.5-1.5.5,2-.5,1,2.5,2.5v1.5l1,1.5-.5,3.5-.5,1-4,1-3.5-3.5-1,.5,1.5-.5-2.5-7-2.5-2.5.5-2-1.5.5v3.5l1,1.5-.5,1,1,1.5-3-1v1.5l-1.5,2-.5,1-1.5,2,1,1h-1.5l-1.5,1.5,1.5,2h-1l.5,1.5,2-.5-.5,1,2.5,1-.5,1.5-1-.5v.5l-.5.5h-1l.5-1-.5-2-3-1,.5.5-5-4.5-1.5-3.5-6-6-.5-2h-2v1.5l4.5,4-.5,1.5,1,2.5-.5,1.5,1,2-2,1v2l3.5,2.5v1h-1.5v-1.5l-1-.5h-.5v1.5l-2,1,.5,1v1l-.5,1,1.5,1-3-.5,1.5,1.5v1l-2.5-1.5-.5.5.5,1-.5.5-3-1,1,3-1.5-1-.5,1-2-2,1-.5-.5-1h-.5l-.5,1-2-.5,2,3,1.5-.5-.5,1,1.5,1.5-.5.5-3.5-2.5h-.5l-.5,2.5-1,1v1.5h-.5l.5-1.5-.5-1.5,1-1.5-1-2h-1.5v3l-1,1.5h-1l1,4-2-.5-1,1.5-1-2h-2v-1l-4-5.5v-1l.5-4.5-.5-4.5-2.5-3-1,.5,1.5,5-1,3.5-3.5-1,1,2h2l2.5,13v1l-2.5-.5,1,2-1,2.5-.5,4.5-6.5,1.5v-2l-.5-.5.5-1.5v-1l-.5-.5.5-1.5-1-1.5-10-7-.5.5v.5l6.5,4.5,2,5.5-.5,3.5.5,6-2,2-4.5-1-1.5.5v1h-.5l-7-6.5.5-.5-1.5-2.5.5-2.5-.5-.5v-1h-.5l-1,1-.5,1.5,2,3.5-3-1v1l2.5,1,1,2.5,2.5,3.5,1,3-.5,2.5-2.5,1-1,1.5-4,2.5-3,1-1,1-1-3,.5-1h-1.5l-1,1.5,1,1-2,.5-1.5,2-.5,1.5-7-6-5-1.5-1-3.5,2-2,.5-2-.5-1.5h-.5v.5l-1,1-1,3-1,1-3.5-5-3.5-.5v.5l4.5,2v1.5l-1,.5,3,2.5v.5l-.5.5v.5l5.5,2.5,3,3,1,3.5.5,2.5-.5,1.5-1,1.5-10-1-6-2,8.5,4,2.5,3-3.5,1.5-3.5-1.5-5.5-.5-2,.5-1-1.5-4.5-.5,4,1.5,1.5,2,2.5,1,3-1,3,2-2,2.5-.5,2-.5.5-.5.5-4,3-.5,1-2.5-.5v-1l-2.5-1-4-.5-3-4-.5.5.5,1-2-.5,7,6-.5.5v3l-.5,2.5-5-2.5-1,.5.5,1-1,2.5h-2v1l-.5,2-1-.5-.5,1h-.5l-1.5-1,1-1-.5-1-1.5-1,1,2-.5.5v.5l1,1.5-1,2v1l-4-1-1.5,1,2.5,1-1,3.5-2,2.5v.5l-3.5,1.5,2.5,5.5h-1l-.5,4.5-3.5,1-2.5,2.5v1.5h-.5l.5,1-2,1.5v1h-1l-.5,1.5v1.5l-.5.5v1.5l-3-1.5,1,2.5,2,.5.5,2.5-1,1,.5,2-1,.5-1,3v2l-.5,1v1h-.5v1l-.5,1,.5,1.5-.5.5v1l-.5.5.5,1-.5,1,.5,4-1,.5v1l1,3.5-.5,1.5v1.5l-.5,1,.5,2.5.5,6-1,1.5-.5,2,.5,1v7.5l1.5,4.5,1.5,1.5,2.5,10.5,3,7,1,6,3.5,3,1.5,3.5,2.5,1,2,7v1l-2-1-.5.5v1l-.5,1-2,.5.5.5-1,1.5v.5h-1v1.5l-1.5-1v1l-3.5-4.5h-2l.5,2,1.5,3v1l3,4-2-1-1.5-2,.5-1h-.5l-.5-.5-1,.5.5,1h-1l-.5-3-4-2.5,2.5,2.5,1,4-1,.5-2-3h-1l1,3.5-2-1-.5-.5,1-1-2-1.5-.5-3.5h1v-.5l-2-1,.5-.5.5-1.5h1l-.5-1-3.5-5h-.5l2.5,4.5-1,.5h1l-.5.5-1-.5-.5.5.5,1-1.5-1-1,.5v1h-5l-2-4,1-.5-1.5-3.5v-.5l-3.5-4-.5,1,1,.5,1.5,2.5-.5,1h-1l-4.5-8.5-.5.5.5,2.5,3,5-1-1-1.5.5.5,1.5-1.5-2.5h-2l-.5-2,.5-1h-2l-2-3v-1h.5l-2-5.5.5-1-.5-1.5-1,1-1-1-.5.5,1,3.5v3.5l-2-.5,1-1.5-1.5-4h-1l-.5,1.5-1-.5v4.5l-1.5,1v2l-1.5-2h-.5l-.5,1.5-1-.5-1.5-2.5-.5-4.5-3-3-1-2.5v-4.5h1.5l-2.5-3-1,.5-1-1.5v1.5h-1.5l.5,2,2.5,3-.5,1.5,1.5,1,.5,2.5-3.5-3-1.5-2.5,1.5-1-2-1.5-2-5.5h-1.5l.5,2.5-1-1-1,.5-2-3-.5.5.5,1-2-1-1-1.5.5-3-2,.5-.5-2h-1.5l-1.5-2,.5-1.5-2.5-2-.5,1v1.5l-.5.5-.5-1,1-.5-2-1-1-5.5,1,1h2l1,1.5,1.5-1-1-3.5,2.5,4.5v4.5l.5,1v-3.5l.5-1.5,2-.5v-1l2-1v-3.5l-2-5.5v-1.5l1-.5-.5-2,1,3.5,2-.5-.5-.5.5,1,1-1,4,6.5h.5l-1-7,1,1.5,1.5-1,4,3.5-1-3.5h1.5l1-2-2-.5-.5,1h-1l-1.5-3.5-.5.5-1,2.5-1.5-1-.5-1.5h.5v-1h-1v-1.5h-1.5l-.5-1.5-.5-4.5h.5l-.5-2-3-1.5v-4l-1-2h2l-1-1v.5l1-4-2.5-1.5v-2l-1-1-.5,2,1,.5v2l1,.5v2.5l-1-3h-1.5l-1,1-1-1,1-2v-2l1.5.5-.5-.5-2-1.5v3.5-.5l-1.5-2.5.5-2-.5-1h-1v.5l-.5,1-.5-1v-1h.5l1-1.5-1-1.5h1.5l-.5,2,1-.5.5-1h.5l-.5-2.5v-4l-1-.5-1,1.5v1h-1l-.5,1.5h-.5l-1.5-1.5-1.5,2.5,1,1.5-.5,1-.5.5-1-2.5v-3.5l.5-1-.5-1.5-2.5,1.5v5.5l-2.5-2.5-2,.5-4-2-1.5-5.5-2.5-2.5v-3l1.5-2,.5-5,.5-1.5,1-.5-.5-1.5v-2l1-1v-1.5l1-3,4-4,2.5-4,4-5,9.5-2.5v4l3.5,2.5,3.5-1v.5l-1,1,1,1.5v2l1.5,1-1-2,3-1-.5-1,1.5-1h-1l.5-1.5h.5l.5-1,.5,1.5,2-1.5-1-.5,1-1.5v1.5h.5l1-1,.5.5-.5-2,.5-2,2.5,3h.5l.5-2.5,1,1,2-.5-.5-1.5h.5l-.5-2.5h-1.5v1.5l-1-2,1-1h1l2.5,1-1.5-1.5,2-1,1.5,1.5v-2.5l1,.5,1-1-1-.5v-1.5M733.62,703.76l.5.5v1h-.5v-1.5M731.62,703.76l-.5-1.5v-1l.5.5v2M741.12,709.76h.5l-.5,2h-.5l.5-2M743.12,717.76v1l-1.5-2.5h1.5v1.5M729.12,737.26l-1-.5.5-1.5.5-.5-.5-2,.5-3-2.5-3,1-.5.5-3.5-1-2v-1h.5l.5-3.5-1.5-2.5-5-1.5v-2l-1.5-1.5,1.5-3.5,3-1,7,1v-1.5l.5,2.5,1-.5.5,3,1,1-.5-3.5h1l-.5-1h.5l3.5,5.5.5,6-.5,1.5-1.5.5.5,1,2.5.5v-1l1.5,1.5-1.5,1-.5,1.5,1,1h-1.5l-.5,3-3,1-.5,1.5-2.5.5-1.5,1.5-.5,3.5,1,2.5-2.5-.5M794.62,604.76l.5-.5h1l-1.5,1v-.5M796.62,608.26h1-1M771.62,627.26l1-1-1,1M771.12,635.76v-.5l.5.5h-.5M770.12,635.26v.5h-.5v-.5h.5M754.62,650.76l.5-1h.5v.5l-1,.5M748.12,656.76v-1l.5-.5-.5,1.5M734.62,694.76h-.5.5M775.12,785.26h.5l.5,1-.5.5-.5-1.5M777.62,787.26v.5-.5M749.12,736.76v.5-.5M740.62,734.26v.5l-.5-1.5,1.5-.5v.5h-1v1M742.62,735.26v-.5.5M741.12,737.76v-.5.5M745.12,724.76h-1.5l1-1v-2l.5,3M746.12,733.76h-1.5v-1l-1-.5-.5-2,.5-.5,2.5,2-.5-2,1-.5.5,3.5-1,1M750.12,765.76h.5-.5M777.62,784.26l-1-.5-.5-1.5.5.5,1,1.5M770.62,781.26h.5v.5l-.5-.5M814.62,803.76v-.5.5M816.12,805.76l.5.5,1,.5-1-1h-.5M776.62,788.26l1,.5.5.5-1,1-.5-2M814.62,804.76l1-.5v1l-1-.5M780.12,790.76v1-1M790.62,796.26h.5v.5h-.5v-.5M818.12,808.76l.5.5h.5-.5l-.5-.5M796.62,803.76v-1l3-1,1.5,1-1-.5v1l-.5.5v-1l-1,.5v.5l-.5.5-1.5-.5M790.12,799.76l1,.5v1l-1-.5v-1M800.62,805.26h1.5l-.5.5-1-.5M792.12,800.76l.5.5.5,2-1-.5v-2M812.62,810.76l1,1.5-1-.5v-1M1091.12,485.26h.5-.5M1009.12,471.76l1.5-1,1,1-.5,1h-1l-2-.5,1-.5M1084.62,485.76l1-.5.5.5-1.5.5v-.5M1003.12,467.26h-1l3-.5-1,.5h-1M1014.62,473.26l1,.5-2.5.5-2-.5.5-.5-.5-.5,3.5.5M1003.12,477.76l.5-.5.5.5h-1M997.12,476.76l-3.5-.5v-1h10l1,1-1,1-6.5-.5M986.62,479.76h.5-.5M989.12,482.76l.5.5h-4l2-1,1.5.5M968.62,567.26h.5-.5M966.12,567.76l-1,1.5-1,.5.5,1.5,2,.5h-2l-1.5-2,1.5-1,.5-1.5,2.5-1.5-.5,1.5-1,.5M1018.12,545.26h.5-.5M1014.62,549.76h.5-.5M967.12,569.76l.5-.5v.5l-.5.5v-.5M968.12,568.26h.5l-.5.5v-.5M970.62,576.76v-.5.5M951.62,570.26l-.5-.5h2l-1.5,1v-.5M951.62,571.76h.5v1l-.5-1M957.62,578.26l.5,1h-2v.5l-1-1.5,2-2.5,1.5-1,1.5-.5v1.5h-1l-1,1,.5,1-1,.5M960.62,578.76h.5-.5M945.62,584.76h.5-.5M874.12,556.76h.5l.5.5h-.5l-.5-.5M876.62,559.26v.5-.5M844.12,581.76h.5l.5.5-.5.5-.5-1M828.12,591.26l1,.5-4-.5,3-1v1M879.12,562.76l.5-.5h.5l-.5.5h-.5M932.12,589.26h.5l.5.5h-1v-.5M922.12,598.26l.5-1-.5,1M848.12,582.76h1-1M920.12,601.26l.5-.5v.5h-.5M793.12,806.26h1l1,.5-1-.5h-1"/>
      <path data-code="novodvinsk" class="cls-1" d="M203.62,964.76l.5-1,1,.5v-1l3-1v1l-1.5,4h-1l-.5-2-1.5-.5"/>
      <path data-code="onezhskij_rajon" data-title="onezhskij rajon" class="cls-1" d="M104.62,919.26v.5-.5M94.62,913.26l.5.5,1-.5-1,.5-.5.5v-1M104.62,916.76l.5-.5.5.5-.5.5-.5-.5M113.12,915.76l.5-.5v.5h-.5M97.12,911.26v.5-.5M91.62,915.76l-.5,1-1,.5,2-3-.5,1.5M116.12,933.76l.5.5-.5.5v-1M100.12,923.26v.5l-.5-.5h.5M116.12,882.76l22.5,19.5-1,1,1,2-.5,4.5,11,10-7.5,7.5,21.5,20-10.5,11.5-2-1.5-3,3.5v1.5l7.5,5.5-.5,2.5,4.5-5.5,4,3.5-2.5,3,10,9-3.5,3.5,2,2-6,7-7.5-3-3.5.5-12.5,5.5-2,3.5-4.5,2-3.5,3.5-2,2.5,1,2-2,2-2.5-1-.5,1,1,.5-4.5,5-.5-1-2,2,1,.5-2,2-1.5-1-1,1,2,2-1.5,1.5-2.5-.5.5-1v-2.5l-2.5-.5-.5.5-1.5-2.5-9-8-3,3.5-1-.5.5-2-3-2.5-3,2-6.5,2-3,2.5-22.5-21-5.5,6-5.5,2.5h-2.5l-3-1.5-1-3-3.5-4.5-3.5-11,1-3,1.5-14,1.5-2.5,4-2.5,1.5-2,4.5-1,1-2-4.5-1.5,3.5-4,4-9.5-2-5,1-9,2.5-.5,13.5,8,8.5-4,1.5-2.5-.5-1,2-2.5,1.5-1.5,3-5,1.5.5.5,2.5-1,.5v.5l.5,1,2,2,.5-.5v-.5l.5.5,1,3,2,.5v-1l.5,3,5.5,4.5-2,4,3.5,5,5.5,1.5,1.5-1,2-2.5h1l4.5,3.5h4.5l2,3-.5-3.5,4.5-2v-2l.5-.5v-.5l.5.5,1-1.5.5-3.5,1-2-1-2,1-3.5,1.5-1,5-1.5-1.5-3,.5-1,1,.5.5-1-3-4,3-4-2-1.5h-2l-3.5,3.5-.5-3-2.5-1.5h-4.5l-3-7.5,1.5-18.5M117.12,938.76l-.5-1.5v-.5l.5,1v1M116.12,939.26l.5.5h-.5v-.5M96.12,927.26h.5-.5M97.62,928.76v-.5.5M90.12,924.26v.5-.5M95.12,929.76h-.5.5M97.62,933.76h.5-.5"/>
      <path data-code="pinezhskij_rajon" data-title="pinezhskij rajon" class="cls-1" d="M249.62,953.76l6.5-7,2,2,3.5-4,1.5,2,10-11,39,35-4,4.5,16,14.5-1.5,1.5,2,1.5v3l1.5,8-7.5,8.5-2-1.5-3.5,4,6,5-7,8.5,12.5,11.5-1,13-8.5.5.5,10,5.5,11.5,5,4,5,7,6,14.5-1,14-2,3.5-4,3-4,6,.5,5-.5,2.5,2.5,2.5,1,2.5-1,1.5-13.5-8.5-1.5,1.5-11-6,.5-1-4-.5-6-8.5-3.5-2-19,1-.5-2.5-3-2.5,2-2-12.5-9.5,1.5-1.5-14-6-1.5-3-5.5-2.5-5.5-4.5-2.5-3.5,1,.5,2-5.5-2-1,.5-2v-2.5l3-3.5,2.5.5,2.5-4-7.5-6,3-3.5,2,1.5,13-17.5-2.5-2,2.5-9.5,5.5,2,8-1,5.5-3,4.5-4,2.5-1-13-10.5v-1.5l2-3-1-.5,1.5-2-11-10,1.5-1.5-2.5-1-12-12,7.5-8.5-2-2,.5-1-.5-1,6.5-3,1.5-1.5-4.5-5"/>
      <path data-code="pleseckij_rajon" data-title="pleseckij rajon" class="cls-1" d="M46.62,1001.76l5.5-2.5,5.5-6,22.5,21,3-2.5,6.5-2,3-2,3,2.5-.5,2,1,.5,3-3.5,9,8,1.5,2.5.5-.5,2.5.5v2.5l-.5,1,2.5.5,1.5-1.5-2-2,1-1,1.5,1,2-2-1-.5,2-2,.5,1,4.5-5-1-.5.5-1,2.5,1,2-2-1-2,2-2.5,3.5-3.5,4.5-2,2-3.5,12.5-5.5,3.5-.5,7.5,3,6.5-7.5,3.5,3.5,13-14.5,7.5,7-.5.5-1-1-1.5,2.5,4,3-1.5,1.5h4l-13.5,15v-.5l-7,7.5,3,3-7.5,8,1,.5-10.5,12.5-1-1-1.5,2-1-1-2,2,2,2-6.5,6.5-1-1-1.5,1.5-4.5-2-.5,1-2-1.5-1,1-1-1-1.5,1.5-1.5-.5-2.5,3,.5.5-1.5,2.5-2-1.5-4.5,6,2.5,2-2,2,4,3.5,3.5-4,1,1,1-1,2-1.5,1,.5,1-1,2.5.5,1.5-1.5,2.5,3.5,1-1.5,5,4,1.5-1.5,3,2.5,1-.5,1,1-.5,1,2.5,2,2-2,4,3.5.5-1,.5,1.5-2,2,4,3.5-4.5,5.5-.5,6,3.5,3h-1.5l-2.5,1-.5,1h-2l-10,4-.5,1.5-2.5,1.5-2,1-3-1.5-1.5-2-6-1.5,1,2-1,2v3.5l-1,1-1.5,3,1,3.5-2.5,3-1-1.5-1,.5-2.5,3.5-8-5.5,4-6,3,2,5.5-8.5-4-2.5,3-4-4-3,2.5-4-2-1.5,3-4.5-6.5-3.5,1.5-2.5-3.5-1.5-4,1-5-3v-2.5l-3-1-3,5.5-2.5-1.5-2-.5-.5,1,.5,1-.5,1,4.5,3-2,3,1.5,2.5-3,4-1-.5-4.5,6.5-2-1.5-1,1.5-2.5-3h-1l-1,2,.5,2.5-1-1-2.5,4.5-5.5-3.5-4,6h-1l-1.5,1.5-6-4-1.5,2.5-1-.5-1,1.5-1-.5-1,1-1.5-1.5,1-1.5-3.5-3,2-1.5.5-2-1-.5,2-2,.5.5,1-1-1-.5,1-1,1.5.5,1.5-1.5-4-5-1,.5,1-3.5,1.5.5.5-2,2-2-.5-.5-.5,1-3.5-1-5-3,.5,2-2.5,4-.5,2-5-5.5-.5.5,1,1-4,5-1.5,1,2.5,3-1,.5-3-4h-2v-4l1,.5,2-1.5-3-3h-.5l-1.5,1.5-1.5-3h-3.5l-1.5-3.5-.5-4-1.5-1.5,1.5-2-2-2.5v-2l1.5-1.5h-.5l2.5-5.5v-.5l1-.5v-2.5h1l-.5-1.5.5-1.5-2.5-2.5-4-2,2-1-.5-1,1-.5,3.5-1,2-1.5.5-.5,1.5-.5,1.5-2.5,1.5-1,.5-1,1-1,1.5-.5-1-2,2-3,1-3h.5l1-2,.5-2-3-4-3-2.5"/>
      <path data-code="severodvinsk" class="cls-1" d="M169.62,914.76l1.5-2,1,.5,2.5,9,3.5,4,1.5,8,1,2,3,1,1.5,2.5.5-2,1.5.5v-1l3.5-2.5,1-1-1.5,1,1-1h.5l1.5,4-.5.5-2.5-1v1l3,3.5,1,4.5h-1.5v1l-4.5,4.5-5-4.5-5,6,4,3.5-11,12.5-6-5.5,11-12.5-2-1.5,4.5-5-6.5-5.5,1.5-2-4-3.5,3-3.5-1-1,1.5-2-2.5-3,1-1,1.5.5-1.5-6-2-3"/>
      <path data-code="primorskij_rajon" data-title="primorskij rajon" class="cls-1" d="M758.95.62l1,3.5h1.5v-1l-2.5-2.5ZM901.95,58.12l-2.5.5,6.5,7.5.5,3.5,1.5.5,2-1.5,2,2,4,1v1l-1,1.5-1.5,1-1.5,2,3.5,3h2l.5-1.5.5-1,3.5,2.5.5-2.5,1.5-.5,3.5,3h1v-1l1-.5,4.5-.5,4,3.5.5-.5.5-1.5-1-3,1-1.5v-1l4,3.5.5-.5.5-1.5-1-1,.5-1.5,3,2-.5-2,1-.5,4,2.5v1l-1,.5v1l2,1,.5.5-1,.5-.5,1.5-.5.5,1,2.5,4,2.5,1,.5-.5,1.5,2,2h1.5l2-1-1.5-3-.5-.5,1.5-.5-.5-2-1.5-2,3,.5v-1l1-1-1-2-2.5-3-6-1.5-6-8h-2l-2.5-1.5v.5l-1,.5.5,2.5-4-1-3,1-7.5-2.5v1l-6.5-.5-10.5-4.5-9-3ZM1005.45,71.12l-.5.5,1,.5h-3.5l.5,2.5-1,1.5.5,1-1,1-2,.5v.5l.5,1.5,1.5-1.5,2,.5,3,1.5h.5l-.5-1.5h4l1.5-1v-.5l.5-2-3-3.5-4-1.5ZM985.95,82.12l-4.5,2.5-4,.5-8-1.5,2,2-.5.5-3.5-.5.5,2,1,.5.5-.5.5-.5,3.5,1-3.5,1.5,1.5,1.5,5,1.5v1l-1,.5,1,.5-1,.5,1,.5-3,1-5-1.5,1.5,3-3.5-.5-.5,1.5-1.5.5v1l-.5.5-5.5-3-.5.5v1.5l-2.5-.5-.5-2.5-2-.5,1-1.5-1-1,.5-.5-2.5-1.5h-3.5l-1-2-13-.5,12,7,.5,1-1.5.5,2,3h-1.5l-2.5-3-8-3,1,4,5.5,4-5-1.5,2,3-4.5-2v-1l-3-.5.5-2-4.5-2v-.5l2.5-2-1.5-2-3.5-.5-2,.5-3.5-.5-1,1,1.5,7-2,1v.5l1.5,3.5h4l2.5,1.5-.5-3h.5l3.5,2,4.5,1,2,2-4,.5,5,3-5.5-.5-2.5,1.5-3.5,1.5-.5,2.5,2,.5,3.5,1,1-1-1-.5.5-.5h3l2.5,1.5v3l4-1.5v-3l2-1,3.5,5.5,1.5,1v-1l4,1v-2l-3-3h3.5l-1-1.5,1.5-1-1-1.5-5.5-3,.5-1,.5-1h1l4,1.5,1-3,2,.5,6.5,6,4,2,4-.5.5-1,1-2.5-1-3,1-.5,5.5,2h4l9,4.5,4,.5,3.5-1.5,2-1.5,4,1,9-2-4-4,.5-1-2.5-4.5-2.5-.5-1,1.5-1.5-1-.5-2-2-.5-2,1.5-1-2-4.5,1-3-3.5,3.5.5h.5v-.5l3.5-.5-2-1,.5-.5,3.5,1.5h.5v-1l6,1v-3l1-3.5-6.5,1-6-2-1.5,1-1.5-.5.5-1.5-2-2,9.5,1.5-3.5-3-7-1ZM1138.95,85.62l1.5,3.5-2,1-.5.5v1l-.5.5,2,3h6.5l9,3,3,1,2-1v-2l1.5-.5,1-1.5-2-3-5.5-2.5-16-3ZM1067.95,89.62l1,1-.5,1.5,1.5,4,1.5,1-.5-1-1-1,.5-1.5v-1l-1.5-3h-1ZM1080.95,91.12l-2,1,1.5.5.5-.5v-1ZM1113.45,95.62l.5.5.5-.5h-1ZM1115.95,97.12v1l-1,1,.5.5-2-.5-1,1.5,1,1.5,7.5,4,2,3.5,4,4,6.5,2.5h4l1.5-1-2-5.5-6.5-4,.5-1.5-1-.5,1-2-2.5-1.5-3-1-1.5.5-2.5-.5-3.5-2h-2ZM1070.95,98.12v1l.5-.5-.5-.5ZM1091.95,99.62l-.5.5h1l-.5-.5ZM1087.45,100.62l.5,1.5-2.5,1.5,2,1.5-.5,2-1.5,1v1l5,3,4,.5h2l2,2-2,2,3.5,1.5,13.5-1.5,12,2.5-3-2.5-.5-2-1,1-2-.5-.5-3.5-2-.5-3-4.5-3-.5-2.5-3.5-4.5-1,.5,4.5-2.5,1.5,2,5-13-10.5.5-.5v-1h-3.5ZM1140.95,100.62l.5,1-1.5-.5-1,1.5.5.5,3.5,1.5,3.5-.5v-2.5l-4-1h-1.5ZM1148.95,101.62l1.5.5v-.5h-1.5ZM1148.95,102.62l-1,.5,1,.5h1.5l-1.5-1ZM1060.95,105.12v2h1.5l-.5-1.5-1-.5ZM1136.95,106.12l-1,.5.5,1h2.5l-1-1-1-.5ZM1066.95,108.62l.5.5-1,1,.5.5-5,1.5v1.5l1.5,2,4,1,.5,1.5-1.5.5,1.5,2.5,4,2,1.5-.5,1,.5-.5,2,.5,1,2.5,3.5,2.5,1.5.5.5-2,.5,3.5,5.5,2.5.5,6.5,5,.5,1.5-.5,1,.5.5,2.5,2.5v3.5l1,1.5,8.5,1.5,6-2.5-1.5-4-1-1.5-9-7.5-2-4.5v-3.5l-6.5-7.5-11-3.5-2-5-2-1-.5-2-2-1-2-3h-2.5ZM1142.95,114.12l-1.5.5,1,.5h.5v-1ZM1142.45,117.12l-5,1-1.5,1.5,1,3,6.5,4,4,.5,1.5-1.5-.5-2v-2l-1-1.5.5-.5h1.5l-.5-.5-6.5-2ZM1091.95,118.62l-1.5.5,5,6.5,4,3.5,1,3v.5l-.5,1,1,2,3.5,4.5v.5l-1,1.5v1l2.5,3,4.5,3.5,3-1v-1l7.5-.5-2-3-2.5-1-4-7-.5-1,1-1-1-.5-4-3-4.5-2-2.5-4-6-3-3-3ZM1115.95,118.62l.5.5h1.5l-2-.5ZM1051.95,120.62l-2.5.5v2l2.5,3,6.5,3,.5.5-1.5,1.5.5,1,2,2.5,2,1,3-.5,3.5,2,10.5,2-8-8.5-1.5-4-3.5-1.5-1.5,1.5-1.5-.5-1-.5,1.5-1-1-.5-5-1-2-2-3.5-.5ZM1204.45,120.62l-1.5,1,6,4-.5,2v1l1.5,1.5,9.5,5h6.5l2.5-2.5-.5-2.5-1.5-1.5-5.5-3.5-9-1.5h-.5l2.5-.5-7-2-2.5-.5ZM1106.95,121.12l-2,.5,5,5.5,5.5,2.5,2,.5,2-1,1-2,2.5-1,2,1v-2l-2-1.5-4-1.5-5.5-1h-6.5ZM1196.95,122.62l1,1.5,1-.5-.5-1h-1.5ZM1196.45,125.12l-2,.5.5.5v2l.5,1.5,2,1.5,4-.5-.5-2-4.5-3.5ZM1030.45,125.62l-.5,1.5h-2l3,4-1.5.5-1.5,2.5h-1l1,3,1.5,2,3-1.5-.5-3.5,1.5-3.5-.5-1.5-2.5-3.5ZM958.95,126.12l-2,1,2.5,6.5-.5,2.5,2,2,2.5-.5.5-3,.5-.5v-.5l4,1.5v-1.5h2l.5-1,.5-1-.5-2-3-3-9-.5ZM1125.45,126.12v1h.5v-.5l-.5-.5ZM1128.45,126.62l-1,.5-.5.5h1.5v-1ZM951.45,129.62l-.5,1-1.5.5.5,3.5,4.5,1,1.5-1-2-4-2.5-1ZM945.95,131.12l1.5.5h.5l-2-.5ZM1123.95,131.12l1,2,3.5,1.5h3.5l-2.5-2.5-5.5-1ZM995.45,132.12l-1.5.5v.5l1,1,.5-2ZM1139.95,132.12l.5,1.5,4,1.5,5.5,4.5h2v-1.5l-2-1.5-9-4.5h-1ZM1155.45,132.12l8,7,3.5-.5-1-3-7-3.5h-3.5ZM1122.45,133.62l-1,.5v1.5h-2l.5-.5v-.5l-3,.5,5.5,10.5,3.5,1.5,1-.5v-.5l.5-1,3-1.5-5-7.5-3-2.5ZM1041.45,134.62l-3,1.5,1,4-2,.5-1,1.5-.5,1v1l3,2,3,3.5h1l1-2,3.5-.5-2.5-2.5-.5-.5,2-.5-1.5-2-2.5-2,3.5-.5v-1.5l-4.5-3ZM1128.95,136.62l-.5,2.5,1.5,1h3l1.5-2-2-1.5h-3.5ZM964.95,137.12v1h1v-.5l-1-.5ZM1006.45,137.62l1,2.5,5,2-2-1.5-1.5-3h-2.5ZM1046.45,139.12v1l1,1,1-.5-1.5-1.5h-.5ZM1070.45,139.62l-3,1,5.5,2.5-4.5,2,.5,1,6.5,4.5h5v2l.5,1,9,1.5,3-2.5-.5-3.5-1.5-2-4-3.5-4-1.5-5-2-4,1-3.5-1.5ZM1116.45,140.62l.5,1.5.5.5,2-.5-.5-1-2.5-.5ZM1016.45,141.12l-2,.5,2,2-1,.5v1l-4-.5-1.5,1-5-2.5h-2l-.5,3,1.5,2.5,4,5,9,4.5,2.5,2.5h1l1-1,1-2h3.5v2l4.5-1.5-6-11.5,1.5-1-1.5-2.5-3-.5-1-1.5h-4ZM977.45,142.12v1l-1,.5h-4.5l-4,2.5h-2.5l-2-3-5,.5,2.5,2.5h2.5l-.5,1v.5l3.5,2.5,8.5,6,4.5,1.5-.5-2,.5-.5-1.5-3.5.5-1.5h1l1.5-2h.5l-1-1-1-2,.5-.5-1.5-2.5h-1ZM1049.95,145.12v2l2.5,5,2,1,2.5-2-.5-3-2.5-2-4-1ZM1048.45,147.62l-1,1-2.5,1-1.5,2,.5,2,4,.5,2-.5,1-1.5-.5-3.5-2-1ZM1116.45,149.62l-3.5,2h-3.5l1,2.5,8.5,6,4.5-.5,3.5,1,2.5-3-.5-4.5-10-3.5h-2.5ZM1032.95,151.62l-1,.5v2l1.5.5h.5v-1l1.5-1-1.5-1h-1ZM1171.95,151.62l-14,.5-4,1.5h-4l5.5,7.5,5,3,6.5,1,10-4.5.5-1-.5-2v-1h3l-3-2.5-5-2.5ZM1051.95,154.62l2,3v.5l2.5,1,1.5-1.5.5-2-6.5-1ZM1044.45,155.12l1,1h3.5l2.5-1h-7ZM1034.95,155.62l-1.5,1.5.5,3-1,1-.5,1.5-.5,1,.5.5,1.5-1h3l1-1v-1.5l1.5-1v-1.5l-2-2-2.5-.5ZM1006.95,156.62l1,.5,1,.5h.5l-2.5-1ZM1097.45,159.62l-2.5.5v2l3.5,4.5,1.5-.5,3.5,2,5.5-4v-1l-2.5-.5-1-1.5-8-1.5ZM1067.95,161.12l-3.5,1,5.5,5.5h2.5l.5-2h-.5l-4.5-4.5ZM1077.95,161.12l2,1.5,2,.5h1l-1.5-2h-3.5ZM1106.95,161.12v1l.5.5.5-.5-1-1ZM1148.45,161.12h1-1ZM1056.45,162.62l-4.5.5,1,2-2.5-.5-.5,1.5-3-1,2,3,3,.5,4.5-.5,1.5-.5v-1l1-1-2-1.5v-.5l.5-.5-1-.5ZM1141.95,163.12l-3,.5v1l-1-1v1.5l.5,1.5-4.5,2-.5,1-1,.5v1l-1,.5v1.5h-2l.5,1-1,2-.5,1.5,1,2-3.5,1.5,2.5,3.5v2l1,2-.5,1.5h10v-.5l3,.5,1.5,2,1,3,3,2.5,5,3h3.5l4-3-2-1,6,.5v-2.5l2-2,.5-1,4,1,4-.5-.5-2,2-2h1.5l2-3,1.5-4-.5-2,1-2.5-1-2-3-2-4.5-1.5-5,1.5-1.5-1.5-14-1.5-2.5-2.5-5-1h5.5l-2.5-2-6-1ZM1086.45,167.12l2,4.5v1.5l-.5.5.5,2-1.5,2v1.5l-1.5,3-1,3v2l-.5,1v.5l7,7.5,3.5,2-.5-.5,1-1v-3.5l7,4,.5-2,2-1.5-6-4.5,2.5-1.5,6-1,2.5,1.5,1.5-1.5,3.5,3,6,2.5,1-.5-1-4.5-2-3.5-10-8.5-7-3.5-15-4.5ZM1229.95,167.12l-7.5,1.5h-.5l.5,1-3,3v4.5l-3.5,2.5-10-3.5-5-1-2-1,1.5,2-2,1.5-11.5,3.5v.5l-.5.5,3.5,6,2,5v1l-.5.5,2,1,10.5-.5.5.5-1,.5.5.5,12,2,10.5-1.5,6.5-3.5,4-3.5-.5-2v-1.5l.5-.5-.5-.5-1.5-1,4.5-1-.5-1.5,1-.5-1-3.5h1l-1-3.5-2.5-4-6.5-3.5ZM1123.45,167.62l-1,.5.5.5.5-.5v-.5ZM1117.95,168.12l-3.5,1,3.5,3h1l.5-.5v-1.5l2.5-1.5-4-.5ZM1064.95,168.62l.5,4-1,2,1,1.5-.5.5v1.5l-8,3.5,5.5,5,5,1.5,4,3h1.5l3,1.5,2-1.5,1-1-.5-1,1-.5.5-2,.5-1,2.5-.5-1-2.5,3-4,1-.5-2-3.5-.5-1.5-4.5-1.5h-.5l-.5,2h-1l-2-2.5-4-2-6-.5ZM1112.45,189.62l-1,.5,1,1,1,.5.5-.5-1.5-1.5ZM1137.45,195.12l-3,.5,4.5,1.5-.5-1-1-1ZM1201.45,196.12l.5.5h.5v-.5h-1ZM1113.45,202.12l-2.5,1.5h4.5l-2-1.5ZM1151.45,202.12l.5,1,1-.5-.5-.5h-1ZM1127.95,205.12l1,3,3.5,1v-.5l-1.5-3-3-.5ZM1109.95,207.62l-6,1,5,5,2,3,.5,2,1.5.5,1.5-1,3.5,1,3.5-1.5h3.5l-1.5-1.5v-2.5l-.5-2.5-2-1.5-3.5-2h-7.5ZM1093.95,208.62l5.5,3,.5,2.5,1.5,2h3.5l-3-5-.5-2.5h-7.5ZM1120.95,221.12l-1.5,1.5,1,1.5,3-1-1.5-1.5-1-.5ZM1094.95,221.62l.5,1h1v-.5l-1.5-.5ZM263.62,872.76l-2,15,3.5.5-1.5,10.5h-.5l-2.5,21,3,2h1l1-1v1l9,8-3.5,4,2,2-10,11-1.5-2-3.5,4-2-2-6.5,7,4.5,4-.5,2-7,3-1,1-1-.5-4,4.5-4-3.5-13,15.5h-2.5v3l-4-2.5-.5-2.5-5.5-3.5-2.5-4.5h-1l-1,1.5v1l-1,1.5,2.5,4,2,.5-1,2-7-6-1,1-3.5-5-6.5,8-5-4-13,14.5-6-5,3.5-3.5-10-9,2.5-3-4-3.5-4.5,5.5.5-2.5-7.5-5.5v-1.5l3-3.5,2,1.5,10.5-11.5-21.5-20,7.5-7.5-11-10,.5-4.5-1-2,1-1-22.5-19.5,1-3.5v-2.5l-3.5-3.5,1.5-1v-2l1.5-2,.5-1.5h1.5l-.5-2.5,1-3,1-1.5,2,1,.5.5-.5,2.5,1.5,1,2-1,5.5.5.5-.5-.5-.5,1-1,1.5-.5,4-4.5v-2l2-1,.5,1,4.5,1.5,6,10.5,1.5,5,2,3.5v1.5l-2,2.5,1.5,7.5,3,6,6.5,5-2,1.5-1,3-.5-3.5-3,.5-1-2-5-.5-.5,1.5.5,4.5,2-1,6.5,1.5,2,2.5,1-.5-.5-2,.5-2.5h1l1.5,4,6.5,7.5-1.5,2,2,3,1.5,6-1.5-.5-1,1v1l2.5,2-1.5,2,1,1-3,3.5,4,3.5-1.5,2,6.5,5.5-4.5,5,2,1.5-11,12.5,6,5.5,11-12.5-4-3.5,5-6,5,4.5,4.5-4.5v-1h1.5l-1-4.5-3-4,1.5-.5,1,1-.5-2.5,1.5,2.5,1-.5,2.5,3v-3.5l-3-3,.5-2h-1.5l2-.5,2,1v-1.5l2-1,.5,2-1.5,1v2.5l4,1,2,2v-2l-2-3.5,2,1v-.5l-3.5-2.5.5-.5,3.5,1,1,2-.5.5,4,2.5-1,3.5-2,3.5-.5,4-2.5,3.5-2.5-1-.5-2-2,.5.5,3.5,1-1.5.5.5v-.5l.5,1.5,2.5,1.5,1,2.5-1,1.5,1.5,1.5-1.5-.5-3,1-.5,1.5,1.5,1,2-.5v-2.5l4,1.5.5,1.5-2.5,1v1l-1-.5-.5,1,1.5.5.5,2h1l1.5-4v-3l1.5-.5-2-2,1-3-.5-1,1.5-1-2.5-1.5,2-.5,1.5,2.5,3.5,1-2.5-3-1-1-1.5.5v-2l-.5,1-.5-.5,1-1.5-.5-1h1v1l2-.5,1.5-1-.5-1.5,1,.5,1-1.5-2-1,.5-2.5-1.5.5.5-2-1-5.5,1,.5,1.5-1,1-3,1-.5.5-1.5-2.5-1.5-1.5,1v2l-1-.5-.5,1.5-.5-1,1-3,1.5-2.5.5-2.5,1-2,1-3-.5-4.5,1.5-4.5-.5-2,1-7.5-.5-5,3-5.5,3-3.5,5-4,4-1.5,10,1.5,4-1.5,8-.5,10.5-5M174.12,920.26v-.5.5M178.12,928.26v-1.5,1.5M190.12,935.76h-.5v.5h-.5l-.5.5,1.5-1M191.62,933.76h-.5l.5-.5v.5M191.62,934.76v-.5h.5l-.5.5M191.12,933.76l-.5.5.5-.5M190.12,934.76l1-1h.5l-1,1.5-.5-.5M177.62,925.26v-.5.5M177.62,925.76v-.5.5M177.12,924.76h-.5v-.5.5h.5M174.62,922.26v-.5l-.5-.5.5.5v.5M174.12,921.26v-.5.5M175.12,923.26h.5l-1-1,1,1h-.5M192.12,935.76v-1,1M190.12,935.26v.5-.5M187.12,937.26v1l-1.5-.5h.5l1-.5M179.12,931.26l-.5-1v-.5l-.5-1,1,2.5M187.62,937.26h-.5.5M179.62,932.26l-.5-1,.5,1M181.12,935.76l-.5.5-.5-1-.5-1,1.5,1.5M179.62,933.76v-1.5,1.5M183.62,937.26h-.5.5M182.12,936.76l-1-.5,1,.5M185.12,938.76v1l-.5-1h.5M173.62,916.76h-.5.5M174.12,919.76v-.5.5M173.62,918.26v-1,1M174.12,918.76h-.5v-.5l.5.5M173.62,917.26v-.5.5M174.12,919.26v-.5.5M121.12,842.26l-2-1-2-2.5.5-1,1-1h2l.5,3.5,4.5,3.5-4.5-1.5M140.12,851.26l-.5-.5h2l-1,.5h-.5M114.12,846.76h-1.5l-.5-1.5-.5,1-1-1.5-1,.5v1l-5-.5,1.5-3.5-.5-1.5,1-.5-2-2-.5-3,1.5-2.5,2.5-1.5,2.5,1h-.5l.5,1,1.5-1,2,1.5.5,3.5-.5.5-.5,2-1-.5-1.5,3.5,3.5,1.5.5,1.5-1,1M173.12,915.76h-.5.5M172.62,915.76v-.5.5M173.12,916.76v-1,1M172.62,915.26v-.5l-.5-.5.5,1M102.62,843.26h2v-1.5,1.5l-1.5,1h-1l.5-1"/>
      <path data-code="shenkurskij_rajon" data-title="shenkurskij rajon" class="cls-1" d="M138.62,1091.76l6,1.5,1.5,2,3,1.5,2-1,2.5-1.5.5-1.5,10-4h2l.5-1,2.5-1h4l2.5,2.5,1.5-1.5-.5,3,5,4,.5,2,4,1.5,4,5,2.5.5-.5.5,1,1-2,2.5-1-.5-.5.5-1.5-.5-.5,1-1-1-.5,1h1l.5.5h-1.5l-1,1.5,2,4,3.5,1,5,4.5-1,1,1.5,1.5-1,3.5,1,4.5,3.5,2-2.5,5-1.5,1,2,10-1,.5.5,2.5,1.5,1.5v13.5l-4,2.5h-3l-5-2-3.5,2-11-1-3.5,1,.5-1-14.5-11-3.5,4.5-3-2.5-1,.5v2l-1,.5-.5-.5,1-1-2-2.5-.5-.5-1,1.5-1-.5-2.5-3-4.5-2.5,1-1-7-5.5,1.5-2-3-2,6.5-8.5-7-5v-1l4.5-4-2-4,1-3.5-1.5-3.5,1-.5,2.5-3.5,1-.5,1,1.5,2.5-3-1-3.5,1.5-3,1-1v-3.5l1-2-1-2"/>
      <path data-code="ust_janskij_rajon" data-title="ust&amp;apos;janskij_rajon" class="cls-1" d="M122.62,1207.26l1-1,1.5.5v3.5l1.5-.5-.5-1.5,3.5,1.5.5-2.5,1-1v-2l1.5,2,1.5-1.5,2-1.5-.5-1.5,1.5-5.5-1.5-4,.5-2h-1v-2l.5-1,2,1,.5-1v-1.5l1-1,1.5,2.5,2.5-2v-1l.5-.5,5.5-2.5.5-1.5.5-.5-.5-5,7,6,3.5-4.5,2,1.5,1.5-2,2,2,7-8.5,4,3.5,3-4,3.5.5,3.5-1.5,6.5,1.5,7.5,6.5-6,7.5,10,8.5,1-1.5,2.5,7,1-1,3,3,1.5-2,3,2-2.5,3,4,3.5-2,2.5-1-1-7,8.5,4,3.5-4,5.5,2,2-6,7.5,1,.5-2,2-1-.5-9.5,12.5-28-23,4-5.5-12-5.5-4.5,5.5v.5l-1.5.5.5,2h-1.5l-1-1.5-1.5,1-4-1.5-4,5.5-7-8-2-.5.5-1-2.5.5-2,2.5-3-1,1-3-1.5-1.5,1.5-1.5-1.5-5.5"/>
      <path data-code="vel_skij_rajon" data-title="vel&amp;apos;skij_rajon" class="cls-1" d="M98.12,1133.76l4,2-.5,1.5,5,2.5,1-.5,5.5-8,3,2,6.5-9.5h1l2-2.5,5.5,3.5-4,3v1l7,5-6.5,8.5,3,2-1.5,2,7,5.5-1,1,4.5,2.5,2.5,3,1,.5,1-1.5.5.5,2,2.5-1,1,.5.5,1-.5v-2l1-.5,3,2.5,3.5-4.5,14.5,11-.5,1,3.5-1,7.5.5-3,4-4-3.5-7,8.5-2-2-1.5,2-2-1.5-3.5,4.5-7-6,.5,5-.5.5-.5,1.5-5.5,2.5-.5.5v1l-2.5,2-1.5-2.5-1,1v1.5l-.5,1-2-1-.5,1v2h1l-.5,2,1.5,4-1.5,5.5.5,1.5-2,1.5-1.5,1.5-1.5-2v2l-1,1-.5,2.5-3.5-1.5.5,1.5-1.5.5v-3.5l-1.5-.5-1.5,2.5-2.5-5-2,.5-.5,1.5-1.5-.5-2.5,1.5-.5,1.5.5-1.5.5.5-.5,1.5-1.5-.5.5-1,1-.5-5.5-1-5-4.5v-1.5l.5-.5-1-.5,1.5-2-5.5-3.5,1-1.5.5.5,1.5-3-2,.5-1-2.5h-1.5l.5.5h-1l.5,1-3.5-.5v.5l-2-2,.5-1.5-1.5-1.5-5-1v-2l-2.5-1,4-4.5v-1l.5.5,1-2-.5-6-1-.5-.5,1.5-3-2.5,2-3.5,1.5.5,1.5-1.5-4-3,3.5-4,1,1,1.5-2.5v-2l1.5-.5-.5-1,1.5-3-.5-2,2-3,1.5-1.5.5-1.5,2-3v-1"/>
      <path data-code="verkhnetoemskij_rajon" data-title="verkhnetoemskij rajon" class="cls-1" d="M195.62,1138.26l1.5-1,2.5-5,5-1.5,1,1.5,5.5-1,1.5,3-.5,2,.5,1,1.5-2,5,1,2.5-1,1.5-2,6,4,2-4-6-4.5,4.5-5,1,.5,3-4,4,3.5,1-1,1.5,2,.5,3,5.5,2.5,7.5-.5,3-2,5,3,3-2.5-.5-1,1.5-.5,2.5-4.5,2-5.5,19.5-1,3.5,2,6,8.5,4,.5-.5,1,11,6,1.5-1.5,13.5,8.5,1-1.5,2,6.5,4.5,3.5-1.5,1.5-.5-.5-2.5,4-6,3.5,1,.5-15.5,2.5-1.5,14-10.5,18.5-6,9-24.5-15-11.5,18-20-12-.5,1-2.5-2.5,1-1-1-.5-1,1-3.5-3-.5-2,1.5-1.5-1-1-3-.5-.5,2h-.5l-1,2-1,.5-.5,1-1,1-5-4-9,11-2.5-7-1,1.5-10-8.5,6-7.5-7.5-6.5h1.5l4-2.5v-13.5l-1.5-1.5-.5-2.5,1-.5-2-10"/>
      <path data-code="vilegodskij_rajon" data-title="vilegodskij rajon" class="cls-1" d="M257.62,1262.26l3,1,1.5-1h1.5v1h2.5l-.5,1,2.5-.5,2,1.5v-1l1-1-1.5-4,1.5-1.5h3v-1.5h1.5v-1l3,1,2.5-2.5h1.5l9.5,1h.5l-1.5,2,17.5,14.5.5-1,18,15.5-10,13-5-4.5-7,1.5v-2.5h-16.5l-8,10.5-11.5-10,3.5-6.5v-1.5h-1v-1.5l-2-.5-.5-1.5-3.5-2.5v-1.5l-1-1.5v-1l1.5-.5-2-1.5,1.5-1,4.5,1-.5-1,.5-1v-.5l-7-5.5-4-1-1.5-2.5"/>
      <path data-code="vinogradovskij_rajon" data-title="vinogradovskij rajon" class="cls-1" d="M168.62,1076.26l2-2,3-.5v-2.5l4-5,3,2,3-4,1.5.5,2-2,.5-2.5-.5-.5,1-1.5,1,.5,1-3,1-.5,11,7.5,1.5-1.5-2-2,3.5-3.5,2.5,2.5,1.5-1.5,5,2.5,5-6,1,1,2.5-3.5.5.5v-1l15.5,11.5-2.5,4-2.5-.5-3,3.5v2.5l-.5,2,2,1-2,5.5-1-.5,2.5,3.5,5.5,4.5,5.5,2.5,1.5,3,14,6-1.5,1.5,12.5,9.5-2,2,3,2.5.5,2.5h-.5l-2,5.5-2.5,4.5-1.5.5v1.5l-2.5,2-5-3-3,2-7.5.5-5.5-2.5-.5-3-1.5-2-1,1-4-3.5-3,4-1-.5-4.5,5,6,4.5-2,4-6-4-1.5,2-2.5,1-5-1-1.5,2-.5-1,.5-2-2-3-5,1-1-1.5-6.5,1-2-1.5-.5-2.5-.5-2,1-3.5-1.5-1.5,1-1-5-4.5-3.5-1-2-4,1-1.5h1.5l-1.5-.5.5-1,1,1,.5-1,1.5.5.5-.5,1,.5,2-2.5-1-1,.5-.5-2.5-.5-4-5-4-1.5-.5-2-5-4,.5-3-1.5,1.5-2.5-2.5-5-2-1-3,.5-4,1-1.5"/>
    </g>
</svg>