<svg id="RU-AD" data-name="Слой 2" xmlns="http://www.w3.org/2000/svg" viewBox="0 0 68.45 117.65">
      <path data-code="AD-ADY" d="m19.2,23.75l-2,1.5-.5,1.5h-1.5l-.1.65-.9-1.15,1.5-1.5-.5-1,.5-.5v-1l3.5,1.5Z"/>
      <path data-code="AD-GIA" d="m45.2,39.4l4.5,2.85,1.5-3.5,1.5.5-1,4,3.5.5,1-.5,1.5,3.5-1.5,1.5,6.5,5.15-.5,2.5h-2.5v.5l-1,1,1,2.5-.5,2.5-1.5-.5-1,3.5-2.05-1.7-2.45-.8,1-1-5-5-1,1.5-3.5-1.5,1.5-5-2.5-.5,1-1.5-1.5-.5v-1l-1-1,.5-1.5,2,1,.5-1.5h-1l.5-3h1.5l.8-2.25-.8-.75"/>
      <path data-code="AD-MAJ" d="m33.7,54.4l2-1,.5-2,2.5-.5.5,2.5,3-1v-3l1.5.5-1,1.5,2.5.5-1.5,5-2.5,1,.5-1h-1.5l.5,2.5h2l.5-1h.5l-1,1h-1v3.5l-1,1v1h-.5l-1,1-2.5-3.5-.5-3.5-2.5,1-1.5-2,1-1v-1.5h1l-.5-1"/>
      <path data-code="AD-KOS" d="m61.7,46.75l-.5,1.5,3-1-.5-3.5,2.5-.5,2,11.15-1.5,2,1,3.5-1.5,2-.5,4.5-2.5,4.5,1,1-1,6.5-2.5,3-1.5,6.5-6-4,.5-1,1.5,1,3-3.5.5-3,2-3-1-.5,1-1-2-1.5,3.5-5-2-1,1-1-2.5-1.5,1-3-1-2.5,1-1v-.5h2.5l.5-2.5-3.95-3.1-.05-2.5,3-1.05Z"/>
      <path data-code="AD-KRA" d="m26.7,17.9h3.5l2.5-1,.5.5,1.5-1,.5,1.5.5-1.5,3.5-1,1,1,1.5-1.5h4l1.5,3.5-1.5,1v1.5l1,.5v2l2,1.5.5,2,1.5.5.5,1.5-1,1,5,2.5-3,4.35-5.2-3.75-9.3-.6v-1h1l-.5-1h.5l-.5-.5.5-.5-3.5.5v-2h3.5l-.5-1,1-.5-.5-1.5-1-1.5-2,1v-.5l.5-.5-1-.5,1-.5-2,.5-.5-1h-1l-1.5,2.5-1.5-3-1.5,1v-2h-1.5v-2.5"/>
      <path data-code="AD-MAJM" d="m8.7,80.4l1.5-1.5,3.5,2-1,4.5,1.5,2.5v2.5h1.5l.5-1,3-1,1,1.5-.5-1.5,2-1.5,1.5-3,1.5-1-.5-2-2.5-1,.5-2.5,1.5-3-2-1v-1.5l-1.5.5-.5-1.5,3-2v-1.5l1.5-.5,6-9,2,1,.5-1,1,2,2.5-1,.5,3.5,2.5,3.5,1-1h.5v-1l1-1v-3.5h1l1-1h-.5l-.5,1h-2l-.5-2.5.5-.5,1,.5-.5,1,2.5-1,3.5,1.5,1-1.5,5,5-1,1,1,.5-1,1,1,2h-3.5l-1.5,3-1,1,1,1-1,3,1,.5-.5,1.5-3,1-1,3.5,1,1-2.5,7.5-7.5.5-1,6-1.5,2v1.5l-2.5,2.5-1.5,7.5h-3.5l-2,2v1.5l-4,2.5-2,2-2-2-2,.5-1-.5-.5-2,2.5-6h-2l-1.5-2-1.5,1v-3.5l-1-1v-7l-.5-.5-1.5,2-2.5-.5-1.5-2v-2.5h2.5l-.5-1.5,1-1,3.5-3,.5-5.5"/>
      <path data-code="AD-SHO" d="m47.7,33.25l4.5,3.5,3-4.5,1.5,1.5,1.5-.5v.5l3.5,1v.5l2.5,1.5v1.5l1,.5v1h-.5l-.5,1,2,2.5-2.5.5.5,3.5-3,1,.5-1.5-3,1,.05,2.5-2.55-2,1.5-1.5-1.5-3.5-1,.5-3.5-.5,1-4-1.5-.5-1.5,3.5-4.5-2.5,2.5-6.5"/>
      <path data-code="AD-TAK" d="m.2,6.75L5.2.25l.5,1-.5,1,2.5.5-1.5,1,.5,3.5,1-1,1,2,1-2h3l-1.5,2,2.5.5-1,1-.5,1.5,1.5-.5,1,1.5-1.5,2,1.5-.5.5,1.5,1,1.5-1.5,2.5,1,.5h-2l-.5,2.5-.5-1-1.5,1v2.5h-1.5l-5.5-10.5,1-.5v-1.5l-1.5-2.5,1-1.5-2,.5L.2,6.75"/>
      <path data-code="AD-TEU" d="m15.2,15.25h3l3.5,3,1.5-1.5.5,1.5,1.5-1-.5,1h2v2.15h1.5v2l1.5-1,2,3.35-.5,1.5,1-.5h.5l-1.5,1,1.5,3.5-.5.5,1,3.5-.5,1v1l-4.5-.5v.5l-1.5,1-2-2.5-.5,1-.5-1.5-4-2-1.5-2.5-3-2v-1h1.5l.5-1.5,2-1.5-3.5-1.5v1l-.5.5.5,1-1.5,1.5-3-1.5v-2.5l1.5-1,.5,1,.5-2.5h2l-1-.5,1.5-2.5-1-1.5"/>
</svg>