<svg id="RU-AL" xmlns="http://www.w3.org/2000/svg" viewBox="0 0 236 252.15">
  <path data-code="AL-CHE" d="m76.25,65.4l4-.5,1.5-2.5,1,2,2.5-1v-1.5h1l1,1,2-.5v2.5l3,3h6v1.5l1.5,2,1.5,5v6.5l6,1.5v3l2.5,2,.5,3-.5,1,2,2-.5,1-5.5,2-.5,4-2,1,.5,4-2.5.5v1.5l-1.5,2-1.5.5.5,3.5-1.5,1-2,3.5-2-1v-3l-1.5-3-1.5-1-1.5,1-2-2.5-3.5.5-1-2.5,1-1,1.5.5-.5-2,1-.5,4-3v1.5l1-2-3-2-7.5.5.5-2.5,2.5-2.5-1-4.5,2-3-3.5-2-.5-3-4-2,1-1.5-.5-.5,2.5-.5,1-5,1-1.5-3.5-4-1-2.5"/>
  <path data-code="AL-CHO" d="m94.25,50.4l4.5-7-1-1,.5-2,6.5,1,1-2,1.5-.5-.5-3,1-1,10.5,3.5,2.5-2,3.5,1,3-1,3.5,3-3,5,1.5,2.5-2.5,1.5.5,2.5,1.5,2.5-3,.5v3l2,4.5-1,4,1,2-1.5,4-1.5,1-.5,1.5.5,1-1,2.5,2.5,5.5,2,1.5,1,2.5-1,1,1.5,2.5-.5,1.5,1.5,2v2.5l-1.5,1.5v2.5h-.5l.5,2.5-2.5,2.5-1.5-2.5-2.5,2v-2.5l-1.5-1-2,3-.5-.5-2-2-1-4-1-1h-1.5v-2l-1.5.5-1-1-1-1,.5-1-.5-3-2.5-2v-3l-6-1.5v-6.5l-1.5-5-1.5-2,.5-2.5-1-.5v-3l-.5-1.5.5-4.5,1.5-1.5-1-2-1.5,1,.5-3-3-1.5"/>
  <path data-code="AL-GAL" d="m83.75,43.4l1.5.5,1-.5v-1l2.5.5-.5,1,2.5,2.5v1.5l-1,.5-1-1-2.5,1,1,1-1.5,1.5h-1l-.5-1.5v-1.5l-.5-.5v-4"/>
  <path data-code="AL-KOS" d="m98.25,196.9l1-1,.5-3.5h2l-1.5-9,4.5-5v-1.5l-1-1.5.5-1-1-2.5,3-4,2,3,2.5-2,6-3.5,5.5,4,.5-.5-2-3.5,1-.5.5-2,2,1,4-.5-.5-1.5,2.5-.5,7.5,3,.5,3,5,4-4,2.5,1,.5,3-1.5,2.5,2.5,2.5-.5.5,1.5h.5l1-1-2-1.5.5-4,2-3-3-.5,1.5-1-.5-1,1.5-1,1,1.5,2.5-.5.5,1.5,1,.5,1.5-3,3.5,1.5.5,2-.5.5,2,3,8,4.5,2.5-.5,2.5,5.5,4,1.5,1-1h2.5l2.5,2.5,2,.5,1-1,2,.5.5-3h1.5l1.5-1.5,1,1.5,6,1.5,1.5-1.5-1.5-4,4.5.5,1,1.5,2,.5,1-.5-.5-1.5v-.5l2-1,1.5-2h1.5l.5,1-1.5,1.5v2l-1,.5,3.5,2.5,2-1.5,3,.5.5,3.5-1,2,2.5,1,.5,1.5-2.5,1-.5,2,1,1.5,2,.5v2l1,1-1,.5.5,1.5-1,2,1.5,1.5-1,1.5,1,3-.5,2,2,1.5,1-.5.5,4-5,3-6.5,1.5-1,2-3,3-4.5-4.5h-1l-1.5,1.5v2.5l1.5,2-1.5,2.5-9,3.5-2-4v-2l-1.5-1-1,1v2.5l-1,1,1,1-1,1v.5l-.5,1-2-1.5-4.5-.5-3.5-3-4.5,2-2-.5-1.5-1.5h-3l-1.5,1.5-3.5-1-2,2,.5,2.5-3,1.5,2,3-.5,4.5-3,2-1.5-.5-3.5,5-9.5.5-2.5-1-1.5,2h-7.5v3.5l-3.5,1-5.5-3.5,1-1.5.5-3-.5-1,1-3-11-1.5-1-3.5-3.5-5,1-1.5v-3l-3.5-2.5-.5-2,1-1.5-1-2v-1l-3-2-3,.5-2-1-.5-3,.5-1,4.5-3.5,2.5-.5v-4l1-2.5-7.5-2.5"/>
  <path data-code="AL-MAJ" d="m83.75,43.4v4l.5.5v1.5l.5,1.5h1l1.5-1.5-1-1,2.5-1,1,1,1-.5v-1.5l-2.5-2.5.5-1-2.5-.5v1l-1,.5-1.5-.5m-9.5,17l3-4v-1.5l1.5-1-2-2,1-1.5,5-1.5-1.5-2.5v-3l3.5-3.5h-2.5l-1-2h4.5l.5-3.5,6.5,3,2-.5-.5,1,1,2.5,3.5,2.5-4.5,7.5,3,1.5-.5,3,1.5-1,1,2-1.5,1.5-.5,4.5.5,1.5v3l1,.5-.5,1h-6l-3-3v-2.5l-2,.5-1-1h-1v1.5l-2.5,1-1-2h-.5l-1,2.5-2.5.5-1-1,1-1-.5-1.5-1.5.5-1.5-2"/>
  <path data-code="AL-ONG" d="m51.25,111.75h2l1-2-.5-.5,1-1-.5,1,2,3,2.5.5-.5-1,.5-3.5,4-3,2,1,1.5-2.5,4,1.5.5-1,1.5,1.5,2-.5,1-4,2.5,1,1,2,.5,2,2,3,1,.5v-1l1.5,2.5,3.5-.5,1.5,2.5,2-1,1.5.5,1.5,3.5v3l2,1,1.5-3.5,1.5-1v-4l1.5-.5,1-1.5.5-1.5,2.5-.5-.5-4.5,1.5-1,1-3.5,4-1,1.5-1v-1l2-1v2h1.5l1,1.5,1,4,2.5,2.5,2-3,1.5.5v2.5l2-1.5,2,2,2-1.5,2,5.5v4l1.5,2v1l2,6,2,.5-.5,2,.5,3,2,3v4.5l-.5.5,1,1,.5,2.5,1,3-.5,2.5-1.5,1v3.5l-1.5,1.5v1.5h-1.5v2.5l-2.5,1.5,1.5,2.5,1,2.5-2,1-3.5-1-2,1,.5,1-2.5.5-3.5-.5-.5,2-1,.5,2,3.5-.5.5-5.5-4.5-6,3.5-2.5,2.5-2.5-3-.5,1-14-9h-1.5l-4-6-4-.5-3.5-5.5-4.5.5-3.5,3-1-2.5-2,.5-2.5-3,1.5-5.5-3.5-1-2,3.5-6.5-.5,1-3-1-8,1-1.5-4.5-1.5.5-1.5,2.5-1-.5-1h-3l1.5-3-.5-3,1.5-.5v-3.5l-1-.5,1-.5-.5-1-1.5-2"/>
  <path data-code="AL-SHE" d="m40.75,78.25l5-2.5,1.5.5v-4l3.5-.5,1.5,3,1.5.5,2-1,1-2h1.5l.5-1.5h5.5v-3l1.5-1v-3l1-.5-.5-2,4.5.5,2-3,3.5,4,1.5-.5.5,1.5-1.5,1.5.5,1.5,4,5.5-1,1.5-1,5-2.5.5.5.5-1,1.5,4,2,.5,3,3,2-2,3,1.5,4.5-3,2.5v2h7l3.5,2-1,2v-1.5l-4,2.5-1,1v2l-1.5-1-1,2.5-3-3.5-.5-2-1-2-1-1h-1.5l-1,4-2,.5-1.5-1.5-.5,1-4-1.5-1.5,2.5-1-1-5,3-.5,3.5.5,1-2.5-.5-2-3,.5-1-2,.5-.5-2.5h-1.5l-2.5-3.5.5-3-1.5-2,1.5-1.5-2.5-.5v-1l-1.5-1.5,1-4-1-1.5,1.5-2-.5-1-2,.5-3-7"/>
  <path data-code="AL-TUR" d="m116.25,15.25l2.5-1v-2l-1-2,1-.5-1.5-2,1.5,1.5h5l-.5-5.5,2-1V.25l1,1.5,3.5-.5.5-1h2l1,1,1.5-1,1.5,3,1.5.5-1,1,2,.5v1l5-.5,3,1.5-.5,5.5h2l2.5,2,2-.5,1.5,1.5,1-.5.5.5-.5.5.5,1.5,1,1,2-3,1.5.5,1-1.5,1.5.5,1-1.5,1,1,2-3.5,1.5.5,4.5,3,2.5,2.5,1,2.5,3,2.5,2-1,1.5-1.5.5-2,4.5,2.5v2l-1.5,2,2,2.5-2.5,2-.5,1.5v1h-.5l.5,2.5-2,5v3.5h-3l-2,2.5v2l-2.5-1.5-1-2-1.5,1.5-2.5,1.5v2l1,1.5-5,3,1,.5v2l-2.5,2-.5,2.5-1.5,1.5-1,3h2l2,2.5,4-.5,1,1.5-.5,2.5-1.5,2-2,.5-1,2.5v3l-2,.5-.5,2-11,.5,2,10.5-8,.5-.5,7-2.5,2-2.5-2v1l-1-.5-5.5,1.5-.5-1-4.5-.5v-1.5l1-.5.5-2.5-1.5-3.5v-2.5l-1-1.5.5-.5-.5-2.5-2-1.5-2.5-5.5,1-3-.5-.5v-1.5l1.5-1.5,2-3.5-1-2.5,1-3.5-2-5-.5-2.5,3.5-1-2-2.5v-2l2.5-2-1.5-2,2.5-5.5-3.5-3-2.5,1.5-3.5-1.5-2.5,2.5-3.5-1.5,2-2h1.5l.5-2,2.5,1,.5-2-3.5-1,2-3,1-3.5-3.5-.5.5-3-1.5-1-1-5"/>
  <path data-code="AL-ULA" d="m129.25,100.75l1-1,4,.5.5,1h1l1-1,3.5-.5,1,.5v-1l2.5,2,2.5-2,.5-7,8-.5-2-10.5,6-1h3l1,2,.5,3.5,4,1,3.5,3-1,2.5,1,.5-.5.5.5,2,1.5-.5,5,1.5.5,1,4.5,3.5,1-1.5,1.5.5,2-1.5h1.5l2-4,2.5-.5v-3.5h-.5l1-2.5-1.5-3.5,4-1,.5-1,1.5,1,.5,2,1,.5.5,3,2.5.5,3,5.5-.5,1.5-.5.5v3l-1.5,6.5v1.5l2.5,1.5.5,2-.5,1,.5,1.5-1.5,1,1.5,1.5v2.5l1.5,1,1,2,2.5,2,2,4.5,1,.5-.5,2.5h3.5v1.5l2,1-1,1.5.5,1,2.5,1.5.5,3.5,2,1.5,2,5.5,2,.5v1.5l.5,3,3,1,4.5,3v2l.5,2-2,4h-3.5l-1,1.5h-2l-.5,1-1.5-.5-.5-3.5-3.5-2.5v.5l-.5.5-1,3,1,1-.5,1.5-4.5,1.5-.5,1.5,1.5.5-1,1.5-1.5,1-1.5-.5-1.5,2-2,1v2.5l-8-3v1.5l1,1v2l-.5,1-3,.5-5-3-1,1.5h-1.5l-.5,3-2-1-1,1h-2.5l-2-2.5h-3l-.5.5-4-1-1-1-1.5-5-2.5,1-8-4.5-2-3,.5-.5-.5-2.5-3.5-1-1.5,2.5h-1l-.5-1.5-2.5.5-1.5-2-1.5,1.5,1,.5-1.5,1.5,3,.5-2,2.5-.5,5.5h1.5v1h-1l-.5-1-2.5.5-2.5-2.5-3,1.5-1-.5,3.5-2.5-4.5-4-.5-3-4.5-2.5,2-1-1-2.5-1.5-2.5,2.5-1.5v-2.5h1.5v-1.5l1.5-1.5v-3.5l1.5-1,.5-2.5-1-1.5-.5-4-1-1,.5-.5v-4.5l-2-3-.5-3,.5-2-2-.5-2-6v-1l-1.5-2v-4l-2-4,.5-2.5-.5-2"/>
  <path data-code="AL-UST-KAN" d="m.25,93.75l4.5-1,2.5,1-1.5,2.5,1.5,3,1.5-2.5,1-5.5,1-.5,1-2v-1.5l1.5-.5,1.5-2h3l1.5,2,1.5-.5,1.5-.5.5-2,7.5-1.5.5-2,1.5-1,2-2,2,.5,3.5-1,1,.5,3-4,3.5-1v4l-1.5-.5-5,2.5,3,7,2-.5.5,1-1.5,2,1,1.5-1,4,1.5,1.5v1l2.5.5-1.5,1.5,1.5,2-.5,3,2.5,3.5h1.5l.5,2.5,1.5,1-1,2h-2l1.5,2,.5,1-1,.5,1,.5v3.5l-1.5.5.5,3-1.5,3h3l.5,1-2.5,1-1.5,2.5-2-.5.5,1-1,1-4.5,2.5-7-3.5-2,1,.5,2.5-1,1.5-1.5,1.5h-1.5l3,3h1.5l1,2.5-1.5,1-4-1-1.5-2-2-.5-.5-1,1.5-1-2.5-1v-2.5l-1-1-2,2-.5,3.5,2.5-1.5-1,2-1,1v1.5l-1.5-1.5-2.5.5-.5,3.5-2.5,5-.5,8.5-1.5-.5-2,2.5h-1.5l-4-6.5,1-4.5-1.5-7.5,1.5-2,.5-2.5-2.5-1.5-1-4-2.5-2.5,2.5-1.5h5l6.5-2.5,1,2.5,2-.5,1.5-2,.5-3,2-1,1.5-3-2-1.5-4-1.5.5-3.5,2.5-2.5-5.5-3-1.5-1.5-3.5.5-3.5-2-1-2.5-1.5.5-1.5-1,1-.5-4-1.5,1-2.5-1-2"/>
  <path data-code="AL-UST-KOK" d="m15.75,149.75l2.5-5,.5-3.5,2.5-.5,1,1.5.5-1.5,1-1,1-2-2.5,1.5.5-2.5,2-3,1,1v2.5l2.5,1-1.5,1,.5,1,2,.5,1.5,2,4,1,1.5-1-1-2.5h-1.5l-3-3h1.5l1.5-1.5,1-1.5-.5-2.5,2-1,7,3.5,4.5-2.5,1-1-.5-1,2,.5,2.5-.5,3,1-1,1.5,1,7.5-1,3.5,6-.5.5,1,2-3.5,3.5,1-1.5,5.5,2.5,3,2-.5,1,2.5,3.5-3,4.5-.5,3.5,5.5,4,.5,4,6,15,8,.5,1-1.5,1.5-.5,2,1,2-.5,1,1,2.5-4.5,5,1.5,9-2.5,1-.5,3-.5,1v3.5l-1.5,2.5-8,7.5h-4l-1.5,1.5-.5,2-3,5.5-3-4.5h-3.5l-3,2-1.5-3,1-2-2.5-.5-2.5,1-2.5-2.5-3.5,1.5-3-5-2,1h-2.5l-4-3-3.5,2.5h-2v-2.5h-2l.5-8-2-3-2-6.5-3.5-3.5.5-5,2.5-1.5v-3.5l-2-1-1-2-4-.5-1.5-2,.5-1.5-2.5.5-2.5-4-2.5-2-2.5.5-2-1-1-2.5.5-8.5"/>
</svg>