<svg id="RU-BEL" xmlns="http://www.w3.org/2000/svg" viewBox="0 0 135.05 155.4">
      <path data-code="BEL-ALE" d="m102.75,98.25l2.5,1.5-.5-1.5.5-2,6.5-1-1-3.5,1.5-3,3-.5,3-1.5,1,1.5-1,2.5,2-.5,4,3.5-1,1-1-1.5-1,.5.5.5-3,2,3,2.5.5,1-1-.5.5,1.5,1-1,2.5,2.5-1.5.5-1,1.5,3,2.5,1,3h-1.5l-1-1.5.5,1.5-.5,1v1l-2.5,2.5v1h1.5l-1,1.5-3-1-.5,1-1-.5-3,1-.5,1.5,1,1.5-1,1.5v2.5l.5,1.5h-3l-1.5,1.5v1l-2.5-1.5.5-3-1-.5-1-.5-.5,1h-1l-1,1.5v-1l-2.5-.15,1-1.5-1-.5.5-1h1l-.5-3.5,1.5-1.5-2.5-2-1.5-5.35h-1.5l1.5-3.5-.5-.5h1.5l1-4,1.5-.5-.5-2"/>
      <path data-code="BEL-BELM" d="m37.25,47.75l-1,4,2-.5-1,1,3,1v5l1.5-1v-1h1.5l-.5-1,2.5-1.5-.5-1,1-2-2-.5.5-1-.5-1.5-1-.5.5-1-1.5-.5-2,1-.5,1.5.5.5-2.5-1m-18,0h4.5l.5-1.5-1-.5,1-2.5,3-1.5,2.5,4,6-.5.5-2.5,1-.5v-1.5l5-2,1,1.5v-1.5l1-.5,2,3-1.5,4,1.5.5-.5,1,1.5.5.5-2.5,2-1,3,1,2,4-4.5-.5-2.5,3h2l1.5,2,1.5-.5-.5,2.5v-.5l-.5.5,1,1-.9.9-2.1-1.05-2.5,1-.5,2.5-1-.5v1.5l-5,2-5-2-.5,1-1.5,1.5.5,1.5-1-.35v3l-1.5,1-1-.5-1.5,2-4-6,.5-1-4,.5-2-2,.5-2,1-.5-1-6.5,1-2-2-2.5"/>
      <path data-code="BEL-BOR" d="m20.75,28.6l1-1.5,1,.5-.5,1.15,2-.65,3,1.5,1-1.5,1,.5-.5,1.5,1.5-1,.9.75-2.4,2.4,1,2h-.5l-.5,1,1,1h-.5v4.5l1,1-1.95,1.7-1.05-1.7-3,1.5-1,2.5,1,.5-.5,1.5h-3.5l-6.5-3-1-1,2-1.5v-3.5l2-1.5v-2.5h-1v-2l.5-1,1.5-1-1.2-3,4.2.85Z"/>
      <path data-code="BEL-CHE" d="m90.75,49.75l.5-2.5-1-.5.5-2,4,1.5,1-1,1,2h1.5l1,3.5,3-1.5.5,1.85-2.5,2,5,5.5,2-1,1,2.5,2-.5,1,3-.5,2,4.5.5,2,1-2.5,3.15h-1.5v1l1-.5-1.5,2.5.5,1-1-.5-1,1-1.5-3.15-2.5,1.5-1-.5-1-1,.5-1.5-2,.5-1-1.5-1.5.5-1-.5-1,.5v.5l-.5.5-1.5-2-3-.5-3-2.5-.5,1-2.5-1-.5-3,1,.5.5-1-1-1.5-2.5-.5-1.05.65-2.45-2.5.5-.5-.5-1.5,5-5v-2l3.5,1.5Z"/>
      <path data-code="BEL-BEL" d="m37.25,47.75l2.5,1-.5-.5.5-1.5,2-1,1.5.5-.5,1,1,.5.5,1.5-.5,1,2,.5-1,2,.5,1-2.5,1.5.5,1h-1.5v1l-1.5,1v-5l-3-1,1-1-2,.5,1-4"/>
      <path data-code="BEL-GRA" d="m4.75,19.75l1-.5,2.5,1v1l7.5.5v1.25l1,.75-1.5.85,2.5,6.15-1.5,1-.5,1v2h1v2.5l-2,1.5v3.5l-2,1.5h-1.5l-1-1.5h-2l-.5,1-4,1-3.5-2.5.5-3.5,2.5-3-2-5,.5-3,1-2-.5-2,2-.5.5-3"/>
      <path data-code="BEL-GUB" d="m82.75,25.75l2.5.5,1,.5-1.5,1,1.5,1.5,1.5-4,3-1,1-2.5,1,1.5-.5.5,3.5,3,1.5-1h3l2.5,3,4.5,1.5-.5,1.5,2.15,2.3-.65,2.05-1.5,1.5.5,1.5-1-1-.5.5.5,1-1-.5-1,2-1-1.5.5,2-2.5-.5.5,2.5h-.5l.5,2-1,.5,1,1.5.5,1.65-3,1.5-1-3.5h-1.5l-1-2-1,1-4-1.5-.5,2,1,.5-.5,2.5-3.5-1.5v2l-3-1.5-.5-1-2-.5-.5,1-1-1-1,.5-3-3.15v-3l1.5,1,2.5-1-2-3.5,2-.5,1-1-3.5-3.5,2-1.5h1.5l1-2.5-1.7-1.7,2.2-1.65Z"/>
      <path data-code="BEL-IVN" d="m42.25,5.25h2.5l.5,2,.5-1.5,1.5,1,1-.5.5,5.5,3,1.5,1.5-1.5-.5,3,.5,2,1.5,1h3.5l-.5,6.35-2.5,2.5-3,1,1,2.5,1,1-4.5.65-1,.5-6-6h-2l.5-2-.9-.9,1.4-.6v-2l-3.5-1.5,1-5h-1.5l1-1-.5-1.5,1.5-1.5,2.5,1.5v-1.5l-1-3h.5l.5-1v-1"/>
      <path data-code="BEL-YAK" d="m28.75,32.25l2.4-2.4,2.1,1.75.5-2,1.5-.5,1.5-4-1-2,4.6.25.9.9-.5,2h2l6,6,1-.5-.5,1.5,1.5,1.5v3h1l1-2.5,2.5,2.5.5-1h1l-1,1,1.5,2.5,1,.35-2.5,2,4.5,1-.5.15.5,4-1.5,1.5-.5-1.5-1.5-.5-2,1.5-2-4-2.5-.5-.5-.5-2,1-.5,2.5-1.5-.5.5-1-1.5-.5,1.5-4-2-3-1,.5v1.5l-1-1.5-5,2v1.5l-1,.5-.5,2.5-6,.5-1.45-2.3,1.95-1.7-1-1v-4.5h.5l-1-1,.5-1h.5l-1-2"/>
      <path data-code="BEL-KOR" d="m47.75,51.25l2.5-3,4.5.5,2-1.5,1.5.5.5,1.5,1.5-1.5,3-1.65-2.5-.5,2.5-1-.5-1,1,1,2-1,1,.5,1.5-.5v-1.5l1,.5,1.5-1.5,1,4,2,.5,2.5-1,3,3.15,1-.5,1,1,.5-1,2,.5.5,1,3,1.5-5,5,.5,1.5-.5.5,2.45,2.5-1.45.85-3-.5-1.5,2,1.5.5v1l-1.5,1-2.5-.5-1,2.5h-1l.5,2.5h-1.9l-2.1-2.5-1,.5-1-2.5h-2.5l-1.5-1.5-2-5-2,1-2.5-2-1.5,2.5-4.9-2.45.9-.9-1-1,.5-.5v.5l.5-2.5-1.5.5-1.5-2h-2"/>
      <path data-code="BEL-KRAN" d="m113.25,69.25h1.5l2.5-3.15,3.5-1.5,1.1,1.1-1.05,1.05,1,2,2-1-.5,1,1.5,1-1.5,1,1,1,.5,3.5h1v1.5l3,.5,1.5-2.5.5,1.5,1.5-1,2,1-1,2,1.5,1.5-1,2h-3l.5,2.5-1,1,1.5,1-1.5.5-.5,2.5v-1.5l-2-.5-.5-2.5h-2.5l.5.5-.5,1.5-1-1-.5,2-2,.5-1.5,2.5h-1.5l1-2.5-1-1.5-3,1.5-1-2.5,1.5-1-2-5.5.5-3-1-.5h-1l-.5,1-1.2-2,.7-1,1-1,1,.5-.5-1,1.5-2.5-1,.5-.05-1"/>
      <path data-code="BEL-KRAG" d="m91.25,82.75l5-1.5,3.5-4,7.5.85,3-3.85,1.5,2.5.5-1h1l1,.5-.5,3,2,5.5-1.5,1,1,2.5-3,.5-1.5,3,1,3.5-6.5,1-.5,2,.5,1.5-2.5-1.5.5,2-1.5.5-1,4h-1.5l.5.5-1.5,3.5-2.5,1.5-2,3.5-2,.5v-1.65l-2-.5-1.5-2.85-2-1,1.5-1.15-4.5-3.5,1.5-6,1.5-1v-2l2-2,1.5.5,2-1,1-2.35-1-.5.5-2-2.25-3.05,1.25-1.45Z"/>
      <path data-code="BEL-KRAY" d="m15.75,1.25l2-1,1,3,1.5.5v1.5l2.5,1-1,1.5-1.5,1.35.5,2.5h1.5l-1.5,1.5,1,1.5,1-.5v2.5l1,1.5-1,.5v1l-1.5-.5,1,2-1.5-.5-1.5,2h-1v1l-2.5-.6v-1.25l-7-.5,1-1-.5-1.5,2-1.5v-1l2.5-1.5-1.5-3.5,2-2v-2.5h1v-1.5h1l.5-.5-1-3.5"/>
      <path data-code="BEL-NOV" d="m74.75,69.1l-.5-2.5h1l1-2.5,2.5.5,1.5-1v-1l-1.5-.5,1.5-2,3,.5,2.5-1.5,2.5.5,1,1.5-.5,1-1-.5.5,3,2.5,1,.5-1,3,2.5,3,.5,1.5,2,.5-.5v-.5l1-.5,1,.5,1.5-.5,1,1.5,2-.5-.5,1.5,1,1,1,.5,2.5-1.5,1.5,3.15-.7,1-.3-.5-3,3.85-7.5-.85-3.5,4-5,1.5-2,2.35-2-4-6.5-2.5-1.5,1-4-3-2.5,2-.5-1.5,1.5-3h-1.5l1-4.5-.4-.5h1.9Z"/>
      <path data-code="BEL-PRO" d="m55.25,26.6l2.5-2.5.2-2.6,4.3-1.9,1,4-1,1-1,.5h.5l3.5,1,5-2v1l5,.5,2,2h3.5l1.5,1.5-1,2.5h-1.5l-2,1.5,3.5,3.5-1,1-2,.5,2,3.5-2.5,1-1.5-1v3l-2.5,1-2-.5-1-4-1.5,1.5-1-.5v1.5l-1.5.5-1-.5-2,1-1-1,.5,1-2.5,1,2.5.5-3,1.65-.5-4,.5-.15-4.5-1,2.5-2-1-.35-1.5-2.5,1-1h-1l-.5,1-2.5-2.5-1,2.5h-1v-3l-1.5-1.5.5-1.5,4.5-.65-1-1-1-2.5,3-1Z"/>
      <path data-code="BEL-RAK" d="m20.75,8.6l1,1h1.5l1-1,1,3.5,1.5-1,2,.5-.5-1,1.5-1,1.5,1.5-1,2,1.5,1,.5-1h2l1-1.5h3.5v1.65l-1,1h1.5l-1,5,3.5,1.5v2l-1.4.6-4.6-.25,1,2-1.5,4-1.5.5-.5,2-3-2.5-1.5,1,.5-1.5-1-.5-1,1.5-3-1.5-2,.65.5-1.15-1-.5-1,1.5-4.2-.85-1.8-2.15.5-1,1.5-.85-1-.75,2.5.6v-1h1l1.5-2,1.5.5-1-2,1.5.5v-1l1-.5-1-1.5v-2.5l-1,.5-1-1.5,1.5-1.5h-1.5l-.5-2.5.5-.5Z"/>
      <path data-code="BEL-ROB" d="m85.75,137.6l5-1.5,2,.5v-1.5l1.5-.5-1-1.5,1-1,4,.5,2-1.5.5-2.5-1.5-.5,2-4,2.5.15v1l1-1.5h1l.5-1,2,1-.5,3,4.2,2.1-1.2,2.8.5,1.5-1.5,2.5-2,1,1,2-1,1v2.5l2,.5-.5,1.5-1.5-.5.5,1-1,1,1.5,2-2.5,2h-3l-.5,1.5-1-.5v1.5h-.5l-2,1.5-4.5,1.5h-2l-1-1-4-.5-.5-2.5,1-1.5,1-.5-2.5-2-2-4.5.5-2-.5-1,1-2.05"/>
      <path data-code="BEL-SHE" d="m26.75,70.6l1-.5.5-.5,1.4-.4,1.1-1.5,1,.5,1.5-1v-3l1,.35-.5-1.5,1.5-1.5.5-1,5,2,5-2v-1.5l1,.5.5-2.5,2.5-1,7,3.5,1.5-2.5,2.5,2,2-1,2,5,1.5,1.5h2.5l1,2.5,1-.5,2.5,3-1,4.5h1.5l-1.5,4.5h-4.5l-2.5,2h-3l-2.5-2-3,1-5-.5-11.5-6-8.5-.5-2,1.5-1.5.5-1.5-3.95"/>
      <path data-code="BEL-STA" d="m101.25,41.1l2.5.5-.5-2,1,1.5,1-2,1,.5-.5-1,.5-.5,1,1-.5-1.5,1.5-1.5.5-1.5,8.5-.5,3.5,2.5,1.5,1.5-1.5,3.5.5,1,.5,1,.5-1,1.5,4.5,1.5.5-.5,3h.5l1.5,2-.5,3,3.5-.5,1,1-1,1-.5,3.5h-.5l1.5,1.5-.5,1.5-1,.5v1l-4.5-3-1.5,1.5.5,1-1,1.5-1.5-1.5-3.5,1.5-2-1-4.5-.5.5-2-1-3-2,.5-1-2.5-2,1-5-5.5,2.5-2-1-3.5-1-1.5,1-.5-.5-2h.5l-.5-2.5"/>
      <path data-code="BEL-VAL" d="m60.25,97.6l3-4,1.5,3.5h1l1-1.5,1-.5,1.5,2,.5-.5,2,1,2.5-1,3,1.5.5-2,3-1,1.5.5.5,4h1.5l-1,4,4.5,3.5-1.5,1.15,2,1,1.5,2.85-1.5,3-3.5-.5-1.5,1.5-3-.5-2,2.5-1,3.5-4-2.5-2,3.5-.5,3-5.5,1,.5-1-3-.5-1.5.5.5-1.5h1v-3l-.5-1.5,1-4-2.5-6-1.5-.5.5-4.5-.5-4,.5-.5.5-2.5"/>
      <path data-code="BEL-VEJ" d="m78.25,118.1l2-2.5,3,.5,1.5-1.5,3.5.5,1.5-3,2,.5v1.65l2-.5,2-3.5,2.5-1.5h1.5l1.5,5.35,2.5,2-1.5,1.5.5,3.5h-1l-.5,1,1,.5-1,1.5-2,4,1.5.5-.5,2.5-2,1.5-4-.5-1,1,1,1.5-1.5.5v1.5l-2-.5-3,1-.5-2-1.5,2h-1.5l-1.5-2.5-2.5-.5-1-1v-1.5l.5-1-1-1-1.5.5-1-3,2.5-5-1.5-.5,1-3.5"/>
      <path data-code="BEL-VOL" d="m63.25,82.6l.5-.5,1,.5,1-1.5-.5-.5,2.5-2h4.5v-1l.5,1,2.5-2,4,3,1.5-1,6.5,2.5,2,4,.75-.9,2.25,3.05-.5,2,1,.5-1,2.35-2,1-1.5-.5-2,2v2l-1.5,1-.5,2h-1.5l-.5-4-1.5-.5-3,1-.5,2-3-1.5-2.5,1-2-1-.5.5-1.5-2-1,.5-1,1.5h-1l-1.5-3.5,1.5-1-2-1v-1.5l-1.5-3.5,2-4"/>
</svg>