<svg data-code="RU-AMU" xmlns="http://www.w3.org/2000/svg" viewBox="0 0 633.25 479.39">
    <g data-code="amurskaja_oblast" data-title="amurskaja oblast">
      <path data-code="arkharinskij_rajon" data-title="arkharinskij rajon" class="cls-2" d="M522.13,448.76l1-2,2,.5-2-1-.5-1,5-9v-1l-1-.5,2.5-.5v-3.5l2.5-.5-2-5,.5-1.5,3,.5,3.5-2v-1l1,1,1.5-1,1,1,1.5-2.5,4-2,.5-2,2.5-2-1-1-.5-2.5v-2.5l1.5-2-1-1.5.5-3v-3l-.5.5,1-3.5-3-2.5-.5-1h-2l.5-1.5-1-.5-.5-2,1-2,1.5,1,3-1,1.5.5,3-3h1.5l2-1.5-1-3.5,1.5-.5,1.5,2,1-.5,4,.5,1.5-2-.5-1,2,.5,2-1.5,4,3.5,2-1,1-3.5,2.5-2.5,2.5,1,.5,1-2.5,2,1.5,2v2.5l1.5.5v1l2,.5,1,4-1,1.5,3.5,1.5,1-.5,3,1.5v2.5l1,2.5-.5,2.5,3,2v2.5h-2l-2.5,2.5v1.5l1.5,2,2.5-1.5,1.5,2,2.5.5,2,2.5v2l1.5,2,.5,3.5,2,1.5-.5,3,1,10-3,.5-1,3-2-1-2,3-2-.5-1.5,1.5v4.5l1,1.5,1,8.5,1,2h1v2l-5.5.5-2.5,1.5-5,7v3l-3,3.5h-1.5l-3-2-6.5,5.5-1.5.5-3.5-2.5-6-1.5-2-2-5-.5-1-3.5-3.5-.5-1-3-1-1-3.5,1-1-1-1.5-4-2-1h-2l-2,2.5-2-.5-4.5-8,.5-1.5-1.5.5-3-3.5"/>
      <path data-code="belogorsk" class="cls-2" d="M443.63,372.76l-.5-1.5,8.5-1.5v2.5l.5,2,1.5.5-4.5.5,1,1.5-.5,1.5-.5-2.5-1,1.5-1-1-1,.5,1-2.5-2,1-1.5-2.5"/>
      <path data-code="belogorskij_rajon" data-title="belogorskij rajon" class="cls-2" d="M424.63,389.76l-1-2.5,2-3.5-1-5-1.5-3.5v-2.5l3.5-.5.5,1h1.5v.5l1-.5v-1.5h4.5l1,2,8-2.5,2,4,2-1-1,2.5,1-.5,1,1,1-1.5.5,2.5.5-1.5-1-1.5,4.5-.5-1.5-.5-.5-2,.5-3.5,1.5,1.5,1.5-2,3.5,1.5,1.5-.5v-1l10-4.5.5-2.5,1,.5.5-1h.5l1,3h2.5l-.5,4,1,1.5-2,1,1.5,2,.5,3.5-3,1-1.5-1.5-.5,2,1.5,3-5.5,2.5,1,2.5-4,1-5,5h-6l-1,2h-2l-3-.5-6.5,1-3-2.5-.5,1-3-1.5-.5-1v-1.5l-1.5-1-6.5,1-1.5,1.5"/>
      <path data-code="blagoveshhensk" class="cls-2" d="M418.13,418.26l1,.5v-1.5l1.5,2-.5.5h1l1.5,1v1.5l1,1,2,.5v1.5l1.5-1-2.5-9,1.5-1.5-1-2,1.5-.5-.5-2-1-3.5v-.5l.5,1h1l.5,3.5,5.5,4.5,1,6.5-3.5,2,1,1.5-.5,1.5,2.5,3v1h-1l-.5-1.5h-8.5l-.5-7.5-2.5-1-2-1.5"/>
      <path data-code="blagoveshhenskij_rajon__amurskaja_oblast_" data-title="blagoveshhenskij_rajon_(amurskaja_oblast)" class="cls-2" d="M398.13,391.26l2-1.5,1.5-3-.5-3.5,15-12,5-1,1.5,2,.5,3,1.5,3.5,1,5-2,3.5,1.5,7,1,2-.5,3,2,4.5-1,2.5h-1l-.5-1v.5l1,3.5.5,2-1.5.5,1,2-1.5,1.5,2.5,9-1.5,1v-1.5l-2-.5-1-1v-1.5l-1.5-1h-1l.5-.5-1.5-2v1.5l-1-.5,2,1.5,2.5,1,.5,7.5h-2l-2.5-2.5-.5-1.5.5-3-1-2.5-4-1-.5-4,1.5-2-.5-2-5-5-1.5-3v-2.5l-3.5-1-6-7M432.63,444.76l-.5-3.5,1-6.5-1-5h1v-1l-2.5-3,.5-1.5-1-1.5,3.5-1v-1l-.5-3,4-.5v1.5l4.5,1.5-.5,1.5h-2l-.5,1,2,5,3,2.5.5,1-1.5.5.5,2-9,3.5,1,2-.5,2,1.5,2-3.5,1.5"/>
      <path data-code="burejskij_rajon" data-title="burejskij rajon" class="cls-2" d="M495.13,437.76l2.5-6.5-.5-2.5,1-2,2.5,4,1,3,2.5-1.5.5,2.5,1-3,1.5-.5v1.5l3,.5,1,3-.5,2.5,5.5-4.5,3,2,.5-4,1.5-1h1.5l-.5,1,3.5-.5.5-1.5-2.5-2-2.5,1-4-1.5-1-1.5-2,.5-2-5.5,2-1-2.5-3.5v-1l3.5-2.5-1-4,2-1v-7.5l2.5-4.5,1-6v-2l-1-1,.5-2.5,3.5-1.5.5-1.5,1.5.5,1.5-5.5,2.5-1.5,1.5,1-1-2.5,1-2.5h-1.5v-1.5l-2-3.5h2l.5-1.5,1.5,1,2-1.5,1,.5,3-1,1-3,4-3.5-.5-2.5v-1h2l3.5-3,3,1,1.5,2.5h1.5l.5,1-1.5,6.5-1.5,2,.5,2,3,1,.5,1.5,1.5,2,1.5-3.5-.5-2.5h3l1-1.5,4,4.5,2.5-1,2-2.5,1,1,.5,2.5,1,.5.5,1.5h3l2,1.5v1.5l-2.5,2.5-1,3.5-3,.5-3-3-2,1.5-2-.5.5,1-1.5,2-4-.5-1,.5-1.5-2-1.5.5,1,3.5-2,1.5h-1.5l-3,3-1.5-.5-3,1-1-1-1,.5v3.5l1,.5-.5,1.5h2l.5,1,3,2.5-1,3.5.5-.5v3l-.5,3,1,1.5-1.5,2v2.5l.5,2.5,1,1-2.5,2-.5,2-4,2-1.5,2.5-1-1-1.5,1-1-1-1.5,2.5-5.5.5.5,3.5,1.5,2.5-2.5.5v3.5l-2.5.5,1,.5v1l-5,9,.5,1,2,1-2-.5-1,1.5,3,4,1.5-.5-.5,1.5,1,1.5-2-1-5,.5.5-2.5-2,1-1-1.5h-1v-3.5l-1-2-6,2-2.5-3.5-1,1-2-4-3.5,4.5-.5-1.5-2-1-.5-4.5h-2l-.5-1"/>
      <path data-code="ivanovskij_rajon__amurskaja_oblast_" data-title="ivanovskij_rajon_(amurskaja_oblast)" class="cls-2" d="M427.13,409.76l-.5-4,1-2-2-4.5.5-2.5-1-2.5-.5-4.5,2-1.5,6-1,1.5,1v1.5l.5,1,3,1.5.5-1,3,2.5,6.5-1,3,.5h2l1-2,3,.5,2.5,2.5,2,1v.5l1.5,1.5,1.5,2h1l-1.5,2,1.5.5.5,1-4.5,2,1,7.5-4.5,1.5,1.5,3-2,3-4-2,.5,1.5-1.5,1,.5,2.5-11.5-1,.5-1.5-4.5-1.5v-1.5l-4,.5-1-4-5-4"/>
      <path data-code="konstantinovskij_rajon__amurskaja_oblast_" data-title="konstantinovskij_rajon_(amurskaja_oblast)" class="cls-2" d="M447.13,461.76l-1-2.5,6-5,1-3.5,2-1-1-6,5.5,2.5-.5-3.5v-3h2.5v-3l2,.5.5,1.5h2.5l-.5-3,4-1,1.5,5,3,.5,1,4-4.5,3,4,8.5-1.5,2,1.5,1.5,3-1.5-1,1,.5,3.5-.5,1h-4l-1.5,2.5-4,1h-3l-3.5-1.5-1.5,2-2.5,1-2.5-.5-2.5-2.5-3.5-.5-1.5-3"/>
      <path data-code="magdagachinskij_rajon" data-title="magdagachinskij rajon" class="cls-2" d="M239.63,245.76l3.5-5.5,2.5,2.5v1l2.5,3,3,1,8-4.5h3l-1.5-2.5-.5-2,1.5-7,1.5-4v-2l-1-5,1.5-3-2-2,.5,2.5h-1.5l-1-2.5v2.5l-4-.5v-2l-.5-.5,3.5-2,4-6,6-2.5,1-7,4-1.5,1.5,2v2l1.5-.5v1l5,5,6.5,2.5-.5,1,2,1.5,10.5,4.5,5.5-.5v1l1,.5.5,2-1.5-1-3,2-1-2v1.5l-1-.5v3l4,1.5,4.5,5.5h2l1,4v3.5l1.5,2,1.5,1,1.5-.5.5,2,2,2.5,2.5-1.5,3.5,4,1,2.5,5.5,3,1.5,1.5,1,2,8-2,2,3.5h4l3-4.5,3,1,3-1,3.5,3.5,1.5,3.5,1.5-1.5,2,1.5,1-.5.5-3h1l3.5,3.5.5,3.5-.5,1.5,6,3.5,2.5,3-1,3.5-3.5,2-1,2.5h-5.5l-1,1.5-4.5-.5-.5,1.5-3.5.5-19.5,27-2.5-1-1,2-2,1-2-2,.5-2-1-2.5-4.5-4-3,1-.5-4-7-3-.5,2h-1l-2.5-2-1-2,.5-1.5,2.5-1.5-2-4,2-2-.5-.5-3.5-1-.5,3.5h-2l-2-3.5-2.5-1-1.5-2.5-1-.5-2,1-3,3.5-1.5-3.5,2-2.5-1-2,.5-1-3-1-2-1-2-2.5-3,3-1.5-3-8.5-1-6.5-2-6.5,3-3,3,2,3v2l-1.5-.5-2-2-4,.5-.5-2-1-.5-.5-3-3.5-5.5-1.5-4-4.5-3.5.5-3-2.5-2v-2l-2-2.5"/>
      <path data-code="mazanovskij_rajon" data-title="mazanovskij rajon" class="cls-2" d="M425.13,346.26l3-4h3.5v-1l-1.5-.5-.5-1,.5-1.5,2.5-2-1-4,2.5-.5v-3l2.5,1,1-5.5h1.5l-.5-1.5-1-.5-.5-1.5-4.5-2-1-2v-3.5l-1-1.5-4-1.5-1.5-4.5-2-2.5h-1.5l-2-3.5,1.5-7,3-2.5-4-4.5-1.5-3h-.5l-.5-2.5,1-1.5-1-.5v-2l-3-3,1.5-2,1-4.5-6-1,1-2-1.5-2-.5-2.5-1.5-.5-1.5-3.5-.5-.5,2.5-2.5v-1.5l-1-1v-1l-1.5-1-1-4,4-6-.5-2.5-1-1,1.5-4-1-7,3.5-.5.5-2,1.5,1,1.5-2.5-1-1,.5-1-2.5-3,.5-1.5-2-3-.5-1.5,1-1.5-1-1.5,1-1.5,3.5.5-.5-2h1.5l2-2,3.5-2h2.5l2-2.5,3.5.5,1,1.5,3,2.5,2.5.5.5,1h6.5l5-2-.5,1,.5.5v1.5h1l3.5,4.5-.5,2h1l-.5,1,2.5,1.5-1,.5.5,1.5h1.5l.5,1h1.5l-.5,1.5,2,2.5.5,2h1l-2,1v.5l1.5.5-1,2,.5.5h-1.5l-.5,2,1,.5v1l1,1v3l-2,.5,1,1h-1l1,1-.5,1,1,1v1h1v.5l1.5,1v1.5l2.5,1v1.5l1,1.5-1.5.5,1,.5v1.5l1.5.5-3,1.5.5,3.5,1,1-1,1.5.5,1.5-1,.5.5,2,1.5-1.5h2l9,2.5,1.5,1.5,4.5,1.5.5,1.5,7,2.5,1.5,1.5,1.5-1.5,1-6,2.5-.5,4-3,3-.5,2.5,7.5,4,1v5.5l3.5,8.5,8.5,4,5-2.5,3.5,2.5,2,.5-.5-2,.5-1.5,3.5,3.5.5-2-1-4,1.5-1.5,1.5.5v2h-1l1.5,4,3,2.5,1,2.5,2,1,1,2.5,3,3.5v3l-2.5.5-3-2-3,3.5-.5,3,1,2.5-.5,1-3.5-1.5-.5-1.5-5.5-2-2,.5v1.5l-2,1,.5,2h-2l1,2-1,1-6.5,2h-1.5l-2.5,2-.5-1-3-.5-3.5,3-5.5,2-3,3-8,1-3,4.5,1,6-1,5-4,2-3,7-2,2.5-8-4.5-4.5,2v-3l-3-1-4,1.5-1-3.5-8,1-3-1.5,1-5-2.5-1h-4.5v4.5l-3-1-1,3.5,3.5,1.5-.5,2-1.5-1-2,2-.5,1v1.5l-1.5,2-3-1.5-1-2-4.5.5.5,1.5,1,1h-1l-2.5-3"/>
      <path data-code="mikhajlovskij_rajon__amurskaja_oblast_" data-title="mikhajlovskij_rajon_(amurskaja_oblast)" class="cls-2" d="M473.63,457.76l1.5-2-4-8.5,4.5-3-1-4-3-.5-1.5-4.5,4.5-.5,2-2h.5l.5,2,.5.5,2-2.5,2-.5-.5-6,.5-2,4-2.5-1-3,1-1,3.5,2.5h2.5l.5,3.5,1.5.5,3.5,3.5-.5,1,.5,2.5-2.5,6.5.5,1h2l.5,4.5.5.5,1.5.5.5,1.5,3.5-4.5,2,4,1-1,2.5,3.5,6-2,1,2v3.5h1l1,1.5,2-1-.5,4,1.5,3v1.5l-2.5.5-4-1.5-2,1.5-.5,3.5-2.5.5-3.5-4-2.5-1.5-2,.5-3-1-2.5,2.5h-2.5l-.5-2,1-3.5-1-1.5h-2.5v2h-7.5l-6.5,3.5v-1l1-1-3,1.5-1.5-1.5"/>
      <path data-code="oktjabr_skij_rajon__amurskaja_oblast_" data-title="oktjabr&amp;apos;skij_rajon_(amurskaja_oblast)" class="cls-2" d="M465.12,422.13l-2.5-9.5-1-8,4.5-1.5-.5-1.5h-1.5l1-3,2-1.5h4l2.5-2,4,8,1.5-2-1.5-6,1.5-.5-1-2,.5-1-4-3.5,9-2.5v-4h2v1l7.5-1.5,1.5,2,2.5-2,1,4-1.5,1,1,1.5.5,5,4,1.5-1.5,3.5v3l.5,1.5-1.5,2.5-3.5,1.5-2.5,2.5-2.5,5,.5,1-1.5,1.5.5,3.5-.5.5-3.5-2-1,1,1,3-4,2.5-.5,1.5v6.5l-2,.5-1.5,2h-.5l-.5-2-2.5,2-3.5-.5-.5-4.5h1l-1-3-.5-4-4.5-.5-1-.5"/>
      <path data-code="progress" class="cls-2" d="M518.12,430.13v-2l3.5,1,2.5-.5,2,2-.5,1.5-3,.5v-1.5l-2.5,1,1-1-3-1"/>
      <path data-code="rajchikhinsk" class="cls-2" d="M511.12,438.63l.5-2.5-2.5-5.5,1.5-.5-.5-.5.5-1-1-.5,4-3,1,1.5h2l1.5,1.5v2l3,1-1.5,5.5-3-2-5.5,4"/>
      <path data-code="romnenskij_rajon" data-title="romnenskij rajon" class="cls-2" d="M457.12,392.63v-.5l3-1,5-4.5,4-1.5-1.5-2,6-2.5-1.5-3,.5-2,1.5,1,2.5-1v-3l-2-2,2.5-1.5-1-1v-4l-2-.5-1-2.5,1.5-1.5-.5-1.5,1.5-.5-.5-1,.5.5,1.5-3.5-.5-1h2l-.5-.5.5-1-.5-.5v-.5l1,.5v-1l1.5-1,4.5-9,4-2.5,1-5-1-5.5,2-3.5,1-1,8-1,2.5-3.5,6-1.5,3.5-3h3v1l3-2,1.5.5,6.5-2,1-1.5-1-1.5h2l-.5-2,1.5-1v-2h2l5.5,2,.5,1,3,2v2l-2.5-.5-2,3,1.5,4-1.5,3.5,1.5,5v3l-4.5,2-.5,3,.5,2.5,2-.5,3,3,1.5-.5-3,3,.5,2.5-1.5,7,1,1h1l.5,2-1.5,2v1l4.5,2.5-3,2.5-1,3.5-3,1-1.5-.5-2,1-1-.5-.5,1.5-1.5-.5,1.5,4v1.5h1l-.5,2.5,1,2.5-1.5-1-2,1-1,2.5-1-.5v-2l-2.5-1-2-2.5-3.5,1.5-4.5-2.5-9,.5-1-1-1.5-1.5-1.5,5.5-1.5-.5v3h-2l1.5,3-2.5,2-1.5-2-7.5,1.5v-1h-2v4l-9,2.5,4,3.5-.5,1,1,2-1.5.5,1.5,6-2,2-3.5-8-2.5,2h-4l-3,2.5-1-2.5-2-1,.5-.5-4.5-3"/>
      <path data-code="selemdzhinskij_rajon" data-title="selemdzhinskij rajon" class="cls-2" d="M464.12,259.12v-1l1-.5-1-2,1.5-1-1-1.5-.5-3.5,2.5-1-1-1v-1l-1-.5,1-.5-.5-1.5v-1.5l-2.5-1v-1.5l-2-1,.5-1-1,.5v-1l-1-.5.5-.5h-1l.5-1-.5-1,1-.5-1-.5.5-1h1l.5-2.5-1.5-1.5.5-.5-1-.5v-2h2l-.5-1,1-1.5-1.5-1v-.5l2-.5h-1.5v-2l-2-2.5v-2l-1,.5-.5-1-1.5-.5-.5-1.5,1-.5-2.5-1.5.5-1h-1l.5-1.5-3.5-5h-1v-1.5l-.5-.5,2-10.5-.5-8,4-2v-5.5l5-2.5,1-2,2-.5,1.5,1,3.5-5.5v-1l-.5-.5v-1l-1-2v-2.5l-2.5-6.5,3.5-6.5h3l.5-1.5,2.5,1,1-1.5,2.5,1,2-1.5.5,1,1-.5,4.5,1,1,2.5-.5,1.5,2,3h1.5v.5l1.5,1-.5,2h1v2.5l1,.5-.5,1.5,2,1,1,2.5.5-.5,1,2.5v1l1.5,1,.5,1.5,1,1,1,4.5-1,1v3h2.5l.5-1,6.5-4,2.5-2.5,1,1h1.5l-.5,1.5,1,1,.5,2h1.5l1.5,1,1.5-2.5,1.5,1,1-.5.5-1.5-1-2.5.5-1-.5-1,1-2,2,.5,3.5-2,.5-2,1.5.5.5-1,1,.5,1-.5.5,1,3-2,1,.5,4.5-4.5,2,1,1.5-1,.5-2,3.5-.5,1-1.5-.5-1.5-1.5-.5v-1l2.5-.5,1,.5,1.5-2.5,4-1.5-.5-2h-1l.5-2-1-2.5.5-2.5,4.5-5.5.5-3.5h2.5l2.5-5,4,1.5,3,2,2-3,1.5,1.5,2-1.5,3.5,1,5-3.5-1-3h3.5v-2l-.5-.5,1-.5v-2l2-.5v-1l2-3.5,2,1-1-3,3-2.5,3.5.5.5,2,4.5.5,1.5,2.5,3-1.5.5.5v2l3-.5,2.5,1.5-1,2-1-.5-2,1v1.5l1,1,.5,1.5h3.5l.5.5v1.5l.5.5,2.5.5.5,3.5-2,2,1.5,1-.5,2.5,3,2v2.5l-2,1-.5,3,.5,1-.5,1.5.5,1.5-1.5,6.5h2v1.5l-.5,2,1,1,1,1.5,2.5.5.5,1.5-.5,1,1,1.5,3-1,2,2,1.5,4-2.5.5.5,3-1,1.5.5,1.5-.5,1,1,.5.5,2,1.5-.5,1,2.5-.5,3-2.5,1-3-1.5-5,1.5-1,1.5-6.5-1.5-1.5,3.5-1-1-1.5.5-2.5-1.5-1.5,1v1.5l-2.5,1-1.5-2-2-.5-3.5,2-6-1.5-3,1-1-1.5-9.5,1.5.5,4.5,1,.5,1.5,3h1.5l1.5,2-.5,1.5.5.5-1,2,.5,1.5,3.5,1,1.5,3.5,2.5,2h2.5l2.5,2.5.5,1.5-2,1-1,2.5.5,1-2,2h-2l-.5,2-2-.5-1,2.5-2-.5-.5,1.5-2.5.5-.5,1.5-5-.5v.5l.5,1-1,3.5-2,.5-2,3.5h1l-2.5,1.5v4.5l1.5,2.5v1.5l-1,.5-1.5-1-2.5,1.5,1.5,1.5,1,2.5,2,1-1,3-2,1-.5,3.5-1,1-1.5-2h-1.5l-2,3.5v2l-.5,1-2-1.5-1.5,2.5-1,2.5-3.5,1-1.5,5-5.5,3.5v1.5l-8,1-1.5,2.5,1,3.5v2l-4-3.5-1,1,1,2h-2.5l-2.5-2.5-5,2.5-8.5-4.5-3.5-8v-5.5l-4-1.5-2.5-7.5-3,1-4,3h-2.5l-1.5,6-1,1.5-1.5-1-7-2.5-.5-2-4.5-1-1.5-2-9-2h-2.5l-.5,1.5-1-1"/>
      <path data-code="seryshevskij_rajon" data-title="seryshevskij rajon" class="cls-2" d="M421.62,370.13l.5-2h4l1-1v-2l-2-2.5-1.5-4.5,1-1.5,2,2,2,.5.5-1-.5-2.5,1.5-2-3.5-1,1-3h1.5l-1-1-.5-2h4.5l1,1.5,3,1.5,1.5-1.5-.5-1.5,1-1.5,2-1.5,1.5,1,.5-2-3.5-1.5,1-3.5,2.5,1,.5-4.5,6.5,1v3.5l-1,1,3.5,2,8-1,1,3.5,4-1.5,3,1v3l4.5-2,8,4-1,2-1-.5.5,1-.5,1,.5.5h-2l.5,1-1.5,3.5-.5-.5.5,1-1.5.5.5,1.5-1.5,1.5-1-.5.5,1h-1.5l-.5,2.5-10,4.5v1l-1.5.5-3.5-1.5-1.5,2-1.5-1.5-2,1.5-8,.5-7,2.5-1-2-2,1-2-.5-1.5,2v-.5h-2v-1l-4,1-1.5-3.5"/>
      <path data-code="shimanovsk" class="cls-2" d="M389.62,311.13v-1.5l1.5.5,2-1.5,2.5,1,.5,1.5h-1.5l-.5,1.5-2,.5-1.5-.5-1-1.5"/>
      <path data-code="shimanovskij_rajon" data-title="shimanovskij rajon" class="cls-2" d="M389.62,311.13l1,1.5,1.5.5,2-.5.5-1.5h1.5l-.5-1.5-2.5-1-2,1.5-1.5-.5v1.5M335.12,316.13l1-4,2.5-2-.5-1h-1l1-2.5,2,1.5,20-27.5h3l1-1.5h4l1.5-1h5.5l1-2.5,3-2,1.5-4-2.5-2.5-6-4,.5-1-1-5,1.5-4-1-2.5,4-1.5,3,3,2-4,3.5-3,2.5,4.5-1,2,1,7,3.5-1,.5,1.5,1.5,1.5,2-3,2,1.5,2.5-1.5,2.5.5,2.5-2.5,2.5-.5,1,.5,1.5,3,1,.5.5,3,1.5,2-.5,2,6,1-1,4.5-1.5,2,3,3v1.5l1,1-1,1.5.5,2h.5l1.5,3.5,3.5,4.5-2.5,2.5-1.5,6.5,1.5,3.5,2,1-3,2-4,6.5h-1.5l-3,4.5-1,3.5-1-1-2.5,1.5-2-.5v2l-2,2-14.5,5.5-5.5,14,.5,4-2,4,3,2-1.5,2,1,2,5,3.5.5,2.5-1,1.5h-3l-1.5,1.5h-2.5v-1l-1-.5-3,1.5v1l3,2.5-.5,1.5h-2l-3-3.5v-2l3.5-2-1-2.5-1.5-1-3.5.5-1.5-1v-6.5l-5.5-1-2.5-1.5,1.5-3.5-1.5-2.5-.5-2.5h-3l-.5-2-2-.5-5.5-6-4.5-3-.5-2-2-3,2.5-2-1-6.5-3-1-7.5-.5-1-.5"/>
      <path data-code="skovorodinskij_rajon" data-title="skovorodinskij rajon" class="cls-2" d="M122.62,247.12v-3.5l2.5-1,1.5-3h-2l-.5-2h-1v-4.5l-2.5-2v-1.5l-2.5-1,.5-3.5,1.5-3,2-1,3,1,.5.5v1.5l1.5.5,2.5-1.5,1,5.5,1.5-.5,1.5,2.5,7.5,1.5,3.5-.5,2.5.5,1,2h5l2-4.5,1.5-.5,1.5-2.5-.5-2.5,3.5-2-1.5-3,3-2,2,.5,1-2,1,1,2-1,3,1,2-.5,1-3.5-.5-.5v-3l2.5-4v-2.5l2.5-2-.5-2.5.5-2h5l3.5,4.5,3-.5,8.5,3.5,1,3.5-4,5,.5,2-.5,2,.5,1.5-.5.5,7.5,1,3.5-1.5,1-2,1.5,2.5,2.5,2h7l1-1,4.5,1,5-1,3,3.5,2.5-1,3.5,1,2,2,3.5,1,3.5-2.5,1,1,1.5-1v-2.5.5l2-.5,1-2.5,2-1,4.5,1.5.5-.5-.5-1.5.5-.5.5,2,1.5.5-.5-2,1-.5,1,2-1,3,1,4.5v2l-2,4-1,7,.5,2.5,1.5,2.5h-3l-8.5,4-2.5-1-2.5-2.5v-1.5l-2.5-2-4,5.5,2,2,.5,2.5,2.5,2-.5,2.5,4.5,3.5,1.5,4.5,3.5,5.5v3l-2.5-.5-4.5,2-1-.5-2,1-2-2h-1l-3.5-4.5-4-2-4,3.5-2-1-1-2-2,.5-2-1.5-4.5-2.5-7,1.5-4.5-2.5h-1l.5,3.5-1,1-.5-.5.5-2-.5-1h-2v2l1,1-.5,1-2-2.5-7,.5-3.5,6h-3l-7,6-9.5,2.5-5.5,3-2.5-1-1.5-2-1,.5-2.5,3.5h-3l-1,3.5-1.5-1v-1.5l-1-1-5-3v-2l-2.5-2,.5-1.5-.5-1-.5-4-1-1h-1v-1.5l-1.5-1.5.5-1-1-1,.5-2-5-4.5-1.5-3h-1.5l-.5,2.5-3.5-4-2.5-.5v-2l-1.5-.5-1-2"/>
      <path data-code="svobodnenskij_rajon" data-title="svobodnenskij rajon" class="cls-2" d="M381.62,374.63l.5-7.5h2.5l2.5-2,2,.5,1-1.5-.5-2.5-5-3.5-1-2,1.5-2-3-2,2-4-.5-4,5.5-14,14.5-5.5,2-2v-2l4.5-1,3,2,1,2.5,1-.5-.5-2,1,.5v-2.5l2.5-1.5-3-1.5-3,.5,3-4.5,2.5-.5,3-6,3-2,2.5,2.5,1,3.5,4,2,1,1.5v3l1,2.5,4.5,2,.5,1.5,1,.5.5,1.5-1.5-.5-1,2v4l-2.5-1v3l-2.5.5,1,4-2.5,2-.5,1.5.5,1,1.5.5v1l-3.5-.5-1,2h-.5l-.5-2.5.5-.5-1-.5h-1l-1,2.5h-1l-1-2h-2.5l-1,3,1.5.5v1l-1,3.5-2,1,1,2.5,1.5.5v-1.5h1v1l1.5-.5,1.5-2h.5v1l.5.5v-1.5l.5-.5.5,1.5,1-2v1.5l1,.5-1,2,3.5.5-1.5,2,.5,2.5-.5,1-2-.5-2-2-1,.5v1.5l1.5,4,2,3v2.5h-5l-.5,2.5-5,1-15,12v3.5l-1,2.5-2,2-2.5-2-4-1.5-4-3.5-2-.5-4.5-9.5"/>
      <path data-code="svobodnyj" class="cls-2" d="M417.12,351.13l2-2,1-3.5v-1l-1.5-.5,1-3h2.5l1,2h1l1-2.5,2,.5-.5.5.5,2.5-1.5,2,2,3v2l-1-.5v-1l-1,1.5-.5-1.5-.5.5v1.5l-1-1.5-1.5,2-1.5.5v-1h-1v1.5h-1l-1.5-2"/>
      <path data-code="tambovskij_rajon__amurskaja_oblast_" data-title="tambovskij_rajon_(amurskaja_oblast)" class="cls-2" d="M433.12,445.13l3.5-2-1.5-2v-1.5l-.5-2,9-3.5-.5-2,1-.5-.5-1.5-2.5-2-2-5.5.5-1,13.5,1-.5-2.5,1.5-.5-.5-1.5,4,2,2-3-1.5-3.5,4.5-1,2.5,9.5,1,.5,4.5.5.5,4,1,3h-1l.5,4.5-5.5,1.5,1,3h-2.5l-.5-2h-2v2.5l-2.5.5v2.5l.5,3.5-5.5-2,1,6-2,.5-1,3.5-6.5,5-.5-1-4.5.5-2-1.5-2-8-3-1.5-1-2.5"/>
      <path data-code="tynda" class="cls-2" d="M209.12,140.62l-2.5-8.5,4-1.5h.5l-.5,6.5h3.5l.5,2.5,1.5.5-3.5,6.5-1-.5.5-1.5-1-1.5-.5-1.5-.5.5-1-1.5"/>
      <path data-code="tyndinskij_rajon" data-title="tyndinskij rajon" class="cls-1" d="M209.12,140.62l1,1.5.5-.5.5,1.5,1,1.5-.5,1.5,1,.5,3.5-6.5-1.5-.5-.5-2.5h-3.5l.5-6.5h-.5l-4,1.5,2.5,8.5M1.12,87.62l-.5-1.5,1-2-.5-2,3.5-3.5v-2l3-2.5,3.5-.5v-1.5l1.5-.5,4-5.5,1-3,8.5-3.5,2.5.5,2-2h4.5v-1l2-2,1,.5v-1h4l4,3.5,1.5-1.5h2l7-2,2.5.5,3,2.5v1.5l1.5,3h2.5l2.5,3.5-.5,2,1,1.5,2.5-2.5h6.5l2.5-1.5,1-1.5,6-.5,2,1-.5,1.5,2.5.5,3,2.5,5.5.5,2,2.5,2,.5,3,4h3l1-2.5h2.5l1-2.5-1-.5v-1.5l-.5-1v-1l2.5-1.5,1,.5.5,1.5,5,1,1,1.5,2.5,1,1,1,1.5-.5,1.5,1,7-.5,6-2.5.5,1,4.5-1,2-2.5h2l4.5,1,1.5,1.5,1.5-.5-.5,1.5,4,5,4,.5,1,1.5h1.5l1,1.5v.5l1,.5.5,1.5,1,1.5-.5,1.5,5.5-.5,2,1,1,4,2.5,2,.5,2.5,1-.5,2.5,1.5,1.5-.5,2-4.5h2.5l3.5,3,2.5-1.5v1l5,.5v-1.5l1-1h2.5v-2l5-3.5,3.5,1,3.5-.5,1.5,1.5,1,2.5,2.5.5v1l1,1,1.5.5,1-3.5,2.5-2.5,5-1.5h6l1,3.5,1.5-1.5,2,.5.5.5-1,.5,1.5,2,1.5-.5,1,1v1l-1-.5-1.5,1,1.5,3,3.5-1,1.5-1.5,1.5.5.5-1.5,1.5,1.5,2-1.5.5,1.5,1.5.5,3.5-3v-1l-1.5-1,2-3.5,3-2,.5.5v1.5l2.5,2,1.5-2.5h2.5l2-2-.5-2-1-1,.5-1.5,1-1,6-1.5,1-2,3.5,1.5,2-1.5,1,2-.5.5,1.5.5v1.5l3.5.5.5,1,1.5-.5,1-2.5h3v-1l-3.5-3.5,2.5-1.5,1-3.5,2.5-1.5h1.5l1,2v1l.5.5,6.5-3,4.5,10.5.5,2,.5,1.5,1.5.5-2,2,.5.5v4.5h-1.5l.5,1.5-1.5,1,.5,1h-1l1,.5-.5.5h.5l-.5.5.5,2v2h.5v2.5l-1-.5.5,1.5-2.5-.5,1,6,1,1,1.5,6,3.5,6,.5,2-1.5,5,.5,3-1.5-.5v-.5l-.5-1-3.5-2-3,2-3-1.5h-3l-7.5,2h-1l-.5,2.5-4.5,1,.5,2-1,1,1.5,1-1.5,1.5h1v-1.5l1,.5-1.5,3h1.5l.5,1.5-4-1-1,1h-3.5l-2.5,2.5,1,3v1l1,1.5.5,2,1,1,1,2.5-.5,3.5,1.5.5-.5,2-2,1,2.5,2-2.5,1.5.5,1.5-2-1.5-5,.5-2.5-2.5.5-1.5-5.5-2.5-2.5,1-1.5-1-3.5-1v-2l-.5-.5v2l-1-.5,1,2v1l-1.5,2-3,2.5-1.5-.5,1,2-2,2-.5,6.5,3.5,3.5,2.5,5h1.5l1,1.5-.5,2,1,.5-.5,1.5,1,1-1,.5,1,.5.5,2-1,.5,1,.5-.5.5,1-.5v1l1.5.5,1.5,2.5,2,.5-2.5,1.5-1,7-6,2.5-4,5.5-3,1.5-.5,2.5-2.5,1-1,2.5-2,.5v-.5,2.5l-1.5,1-1-1-3.5,2.5-3.5-1-2-2-3.5-1-2.5,1-3-3.5-5,1-4.5-1-1,1h-7l-2.5-2-1.5-2.5-1,2-3.5,1.5-7.5-1,.5-.5-.5-1.5.5-2-.5-2,4-5-1-3.5-8.5-3.5-3,.5-3.5-4.5h-5l-.5,2,.5,2.5-2.5,2v2.5l-2.5,4v3l.5.5-1,3.5-2,.5-3-1-2,1-1-1-1,2-2-.5-3,2,1.5,3-3.5,2,.5,2.5-1.5,2.5-1.5.5-2,4.5-2.5.5-2.5-.5-1-2-10-.5-3.5-1-1.5-2.5-1.5.5-1-5.5,1-1.5,3.5-1.5v-3.5l-1-1.5-4.5-1.5-1-1.5-4-.5-.5-4-1-1.5h-1.5l.5-4.5-.5-1.5-1.5-.5-1-4-3.5,4-2,1-.5,2.5-1,.5v-.5l-1.5-1.5v-2.5l-.5-2.5,3-5.5,1.5-3.5-.5-1.5,2-1,1-3-1.5-3-.5-3-2-1.5,1-4.5,1,.5,1-2.5h-2.5l-1.5-1v-1.5l-1-2,.5-2.5-1.5-3.5-.5-.5v-4.5l-.5-.5-.5-3-.5-1h-2l-.5-2-2-2-1-2.5-2,1-3-.5-.5,1.5-1.5.5-1.5,6.5-1.5,1.5-3,.5.5,2-2,.5-2-2-1.5.5-1-5.5-2.5-2.5-1-4.5-1-1v-5.5l-5-4v-4l-4.5-6.5-2.5,3-2.5,1-2.5-1.5-.5,2h-3l-1.5,1.5-1,3-4,2-.5,2.5-1.5-.5-1,1.5-3,.5,1,3-2.5,1.5h-2.5l.5-1.5-1-1h-4l-1.5,5-1,1-1-3-2-1.5,1-2v-2l-1-1v-1.5l-5-4.5-.5-3.5,2.5-1,1-3.5,2.5-1.5,2,.5.5-2,5.5-2,.5-1-.5-1,1.5-.5-.5-1.5-6-.5-1-1.5.5-2-2.5.5-4-1.5-.5-1,1-1-.5-1,.5-1.5-1.5-.5h-.5v1.5l-3.5-1-.5.5-1.5-1-4.5,1.5-2-1.5v-2h-3.5l-.5-1-1.5-.5v-3l1.5-4-1-1-3,1-.5-2.5-3,1-1.5-1"/>
      <path data-code="uglegorsk__zato_" data-title="uglegorsk_(zato)" class="cls-2" d="M411.12,320.13l1-3,1-.5,5,1.5-2.5,1.5v2.5l-1-.5.5,2-1,.5-1-2.5-2-1.5"/>
      <path data-code="zavitinskij_rajon" data-title="zavitinskij rajon" class="cls-2" d="M490.12,420.13l.5-1.5-.5-2.5,1.5-1.5-.5-1,2.5-5,2.5-2.5,3.5-1.5,1.5-2.5-.5-1.5v-3l1.5-3.5-4-1.5-.5-5-1-1.5,1.5-1-2.5-7h2v-3l1.5.5,1.5-5.5,1.5,1.5,1,1,9-.5,4.5,2.5,3.5-1.5,2,2.5,2.5,1v2l1,1-.5,2.5h-1.5l-.5,1.5-3.5,1.5-.5,2,1,1.5v2l-1,5.5-3,5,.5,7.5-2,1,1,3.5-4,3,1,2.5,2,2-2,1,1,3.5-4,3,1,.5-.5,1,.5.5-1.5.5,1,.5.5,2.5-3.5-.5.5-1.5-1.5.5-1,3-.5-2.5-2.5,1.5-1-3-3-4v1l-3.5-4h-1.5l-.5-4h-2.5"/>
      <path data-code="zeja" class="cls-2" d="M329.62,202.62l5-1.5-.5-1,.5-.5,1.5,1.5-2.5,6-1-.5.5-2-.5-1.5-1,1-2-1.5"/>
      <path data-code="zejskij_rajon" data-title="zejskij rajon" class="cls-1" d="M329.62,202.62l2,1.5,1-1,.5,1.5-.5,2,1,.5,2.5-6-1.5-1.5-.5.5.5,1-5,1.5M257.12,173.12l.5-6.5,2-2-1-2,1.5.5,3-2.5,1.5-2v-1l-1-2,1,.5v-2l.5.5v2l3.5,1,1.5,1,2.5-1,5.5,3-.5,1,2.5,2.5,5-.5,2,1.5-.5-1.5,2.5-1.5-2.5-2,2-1,.5-2-1.5-.5.5-3.5-1-2.5-1-1-.5-2-1-1.5v-1l-1-3,2.5-2.5h3.5l1-1,4,1-.5-1.5h-1.5l1.5-3-1-.5v1.5h-1l1.5-1.5-1.5-1,1-1-.5-2,4.5-1,.5-2.5h1l7.5-2h3l3,1.5,3-2,3.5,2,.5,1v.5l1.5.5-.5-3,1.5-5-.5-2-3.5-6-1.5-6-1-1-1-6,2.5.5-.5-1.5,1,.5v-2.5h-.5v-2l-.5-2,.5-.5h-.5l.5-.5-1-.5h1l-.5-1,1.5-1-.5-1.5h1.5v-4.5l-.5-.5,2-2-1.5-.5-.5-1.5-.5-2-4.5-10.5,2.5-1,4-3.5,3-1,2.5.5,2.5,2.5,4,1,1,1,.5,1.5,1,.5,4-2,1.5-2,1,.5v2l.5,1,2.5-.5,1.5,1,.5-2.5,1.5,1,1.5-1.5,2,.5,4-3.5v-2l-1.5-2-.5-2.5-3-2.5-.5-2,4-2,2-3,1.5.5,1.5-1.5.5,1,1-2h2l.5-3.5,2,1,3-3,.5-1.5,2,1,2.5-2,1.5,1.5,2-.5.5-3,2.5,1,2.5,2,2.5-1v-1.5l2.5.5,3.5-3.5,3-.5-.5-1,1-.5,4.5-.5,3.5-3.5h2l2-1,6,1,2.5-1.5,4.5,2,3.5-.5,1.5-4,5,1,1-1.5,2-.5.5-1-1-1,1.5-1,4,1.5v-2.5l.5-2h3.5l1.5-1,1.5.5.5,1.5h1.5l1.5-2h2l-1.5-3,1-1,7-.5v-1.5l-.5-.5,2-1,.5-2.5h1.5l3.5-2.5,4,1,2-1,1,2.5,4.5,1.5.5,1.5,1.5,1-.5,2,.5,1,2,1.5,1-.5,3.5,3h3l1.5-1,1,.5h2l1,.5-1.5,2.5-1-.5-2,2-.5,3-3.5.5,2,3.5-1,2v3.5h-3l-1.5,2-4.5,1v2l1-.5.5,1.5.5-1v.5l.5.5-1,.5v1h2.5l-1,1h1.5v1l1.5.5v1.5l1,.5-.5.5-4.5,4-6.5,2.5-2.5,4.5,4.5-1-.5,1.5.5,1-1.5,1.5.5,1.5-1,4-2,.5v1.5h-2v2l-1,2v2l-2,1.5,1,2-1.5.5-1-1-1.5,2,.5,2-5.5,3-1.5,3.5v3l-3.5,3,2.5,4,2,.5v2l.5,1.5h-.5v3l1,2-.5,1.5,1,3.5-.5,1.5,1,1-1,.5-1,3.5h-2.5l-.5-1.5-1.5-.5-2,3-1,2.5h-3l-.5,1.5,1,1-1.5,1.5.5,2.5-.5,2,.5.5-2.5,4.5v2.5l3,8-2,2-.5,3.5,3,1.5,2-2.5,3.5,1,2.5-2.5h1.5l1,2,1.5.5,3.5-2,1.5,3.5,2,1-.5,1.5,2.5,6.5v2.5l1,2v1l.5.5v1l-3.5,5.5-1.5-1-2,.5-1,2-5,2.5v5.5l-4,2,.5,8-1.5,5.5v4l-5,2h-6.5l-1-1h-2.5l-3-2.5-.5-1.5-2.5-1-3,3h-2.5l-3.5,1.5-2,2.5h-1.5l.5,1.5h-3.5l-1.5,1.5,1.5,1.5-1,1.5.5,1.5,2,3-.5,1,2,3v1l1,1-1.5,2.5-1.5-.5-.5,2-3.5.5.5,7-1,3.5,1,1.5.5,2.5-4.5,5.5,1.5,4.5,1.5.5v1.5l1,1-.5,1.5-2.5,2.5-2.5.5-2.5,2.5-2.5-.5-2.5,1.5-2-1.5-2,3-1.5-1.5-.5-1.5-3,1-1.5-7,1-2-2.5-4.5-3.5,3-2,4-3-3-4,1.5,1,3-1.5,1.5.5,1-.5,1.5-2-2.5-1.5-.5-1.5,3.5-2.5-1-1.5,1-1.5-3-3.5-4-3.5,1.5-2.5-1.5-3,5-4-.5-2-3.5-8.5,2.5-.5-2-1.5-1.5-6-3-.5-3-3.5-4-2.5,2-2.5-2.5v-2l-1.5.5-2-1-1.5-2.5.5-3.5-1-3.5h-2l-4.5-5.5-4-1.5v-3.5l1,1v-1.5l1,1.5,2.5-1.5,1.5,1-.5-2-.5-1v-.5h-2l-.5-.5-3,.5-4-1-8-4-.5-1v-.5l-6-2.5-5-5-.5-1-1,.5v-2l-1.5-2.5h-3.5l-1.5-2.5-1.5-.5v-1l-1,.5.5-.5-1-.5,1-.5-.5-2-1-.5,1-.5-1-1,.5-1.5-1-.5.5-2-1-1.5h-1.5l-2.5-5-3.5-3.5"/>
    </g>
</svg>