<svg id="RU-BRY" xmlns="http://www.w3.org/2000/svg" viewBox="0 0 154.5 148.85">
      <path data-code="BRY-BRA" d="m91.75,110.75h1l.5-1,2,.5v-3l3.5-.5v-1.5l2,.5,1,1,1-1,2.5-.5,5-2.15.5,1.15,3.5.5,1,1.85,1.5-2,2.5,2,3-3,.5,2.5,2-.5.5.15.5,3,1.5-.5.5,2-.5,1.5,1.5,1.5-2.5,2v1l2.5.5v1.5l-2.5.5-2.5-1-1,1-.5,2.5-1.5.5-4,4-5.5-4-3-4.5-2.5-1h-2l-2-2.5-8-1-2-2"/>
      <path data-code="BRY-BRY" d="m127.25,61.75l1,1-1-1,2-.5.5,1.5,3.5-.5-2,2-.5,2,1.5-1,.5,1.5-1,.5,1,2.5-.5,1,2.5,1.5v3l-3.5-2-1,1.5h-2l-.5-3.5-1.5-1,2-1.5v-1.5l-2-4,1-1.5"/>
      <path data-code="BRY-BRYM" d="m124.75,57.1l1,1,1.5-.5-1-1.5h-1l-.5,1Zm2.5,4.65l-1,1.5,2,4v1.5l-2,1.5,1.5,1,.5,3.5h2l1-1.5,3.5,2v-3l-2.5-1.5.5-1-1-2.5,1-.5-.5-1.5-1,1h-.5l.5-2,2-2-3.5.5-.5-1.5-2,.5,1,1-1-1m-13-12.65l2.5,2-.5,1,2,1,.5,2.5,1,.5,2.5-3,.5,1,2.5-2,1.5-3,4-.85-1-1.15,1.3-1.8.7,1.45-1,1.5,2,.5-.5,1.5,1.5.5h4v1l-.5-.5v1l-2,.5-1.5,1.5,3-1v1.5l3,2-1,.5.5,1-2,2-1.5-.5.5,1h1l2.5.5-1,4.5,1,.5,1-1,1,.5-.5-3,2,1.5,1,1.5-1,3.5,5.5,4.5h1.5l-1,1.5,1.5.5-2.5,4.5h2.5v1h-3.5l.5-1-6.5-.5-4,1.5-1.5-.5-4.5,1.5-.5-1.15-3.5-1.5-3.5,1-4.1-1.5,3.1-4-5-2,.5-1,.5,1h1l1-2.5h-2v-6l-3.5-3.5.5-1h1v-3.5l-5-1.5.5-3-.5-.5,1-.5.5-1-.5-1.5,1.5.5Z"/>
      <path data-code="BRY-DYA" d="m136.25,60.75l.5.5.5-1h-.5l-.5.5m2.5-1.5v1.5l1.5-1h1l-.5-1.5-2,1m1.5-35.65l-.5,1.5,5.5.65v1.5l-1,.5,1,.5,7.5,1-1,3-1.5,2,1,1-1,1h1.5l-.5,4.5-1.5,2,1.5,1v1.5l-1,1v1.5l1,2-1.5,1.5-1-.5.5,2-1,2-.5-.5-2,2.5,1,.5-2,2v3l-1,.5-.5,1.5-2-1.5.5,3-1-.5-1,1-1-.5,1-4.5-2.5-.5-.5.5h-.5v-.5l-.5-1,1.5.5,2-2-.5-1,1-.5-3-2v-1.5l-3,1,1.5-1.5,2-.5v-1l.5.5v-1h-4l-1.5-.5.5-1.5-2-.5,1-1.5-2-4,1-2,2.5,2,.5-2.5-1-1h3l-.5-1.5,2-2-2-2,.5-2-.5-1,.6-1.35,1.4-.3.5,1,1.5-1v-1l-1.5-1,1.5-4,1,.5Z"/>
      <path data-code="BRY-DUB" d="m104.25,17.25l1.5.5-.5-1,1.5-.5v-1l1.5,1v-.5l.5-1,2,.5,2-1,3.5,2,1-3,.5-.5v-1.5l2,2,3.5-1-.5,3,1.5,1-1.5,1v1l2,.5-.5,4.5,1.5,1.5.5,3.5-1,1.5,3,1.5-.5,2.5-4.5-1-1,1,.5.5-2,3-.5-2-1.5.5.5-1h-2.5l-.5,2-1.5.5v1.5l-2.5-2-2,1-1-2.5.25-1.5.75-.5-1-.5,1-1.5-1.5-4.5-.5.5v-2.5l.5-.5-2.5-1,1.5-1-4-2.5.5-2.5"/>
      <path data-code="BRY-FOK" d="m138.75,59.25l2-1,.5,1.5h-1l-1.5,1v-1.5m-2.5,1.5l.5-.5h.5l-.5,1-.5-.5"/>
      <path data-code="BRY-GOR" d="m30.25,26.25l1,.5.5-1.5,2-.5.5-2,3-2.5v-1.5l.5,1.5h1l1-2,1,.5,2-2h1l-.5-1.5,2.5-.5,3,4-1,.5.5,1,3.5,1,1.5,3.5-1.5,5-1.5,1.5-1.5,2.5v1l-3-2-3.5,1-2.5-1-.5,1.5h-1l-2-1.5-.5,1.5-1.5,1-5-2-3,3-1-1,1-.5v-3l1.5-2h1.5l1.5-1-.5-2.5"/>
      <path data-code="BRY-KAR" d="m130.25,85.6l-1-.5,2-2.85,4.5-1.5,1.5.5,4-1.5,6.5.5-.5,1h3.5v-1h-2.5l2.5-4.5,1.5.5,2,3-1,1,1,1.5v1l-1,1,1,2.5-1.5,1-.5-.5-1.5,2v2l-1.5.5.5.5-2,2,1.5,1-1,1.5,2.5,1.5v1.5l-.5,1.5,1,1-3,.5.5,1-1,1-1-.5-1.5,1-1.5-2.5-2.5,1.5-.5,1-1-1.5-1,.5-.5-2-1.5.5-.5-2-.5,1-1-.5-1.5,2-1.5-2.5v1l-1-1-1.5.5v1.5l-1-.45-.6,1,1.1-3.7,1-.5-1-1.5-1.5,1h-2v-1l1-.5v-2.5l2-1v-1l-2-3,1-1.5,1-.5-1-.5-.5-1h3.5Z"/>
      <path data-code="BRY-KLE" d="m84.75,23.75l2-.5v-1l1-1v1.5h1.5l.5-1,2.5,2.5,2-1-.5-2h2l-1.5-1,.5-.5,2.5-.5,1-1.5,1.5-1,1.5.5.5-1,3.5.5.5,1-1.5-.5-.5,2.5,4,2.5-1.5,1,2.5,1-.5.5v2.5l.5-.5,1.5,4.5-1,1.5,1,.5-1.5,1-.5,1,1,.5-1,.5v-1.5h-1.5l1,1-1,1.5,1,3.5-1,1v1h-.5l2,1-.6.6-3.4-2.2-4,4.5-1-.5-2.5,2,.5,1.5-10.5-3.35.5-5-1-3,1-1.5-3.5-1.5v-2l2-1.5-1.5-2.5,1-1-1.5-1.5,1-3.05"/>
      <path data-code="BRY-KLIM" d="m3.75,64.75l2,.85,1.5,2.5,3-3.5,1,1,.5-1.5,4.5,2,.5-4,2-1-.5-1,2,.5,1-1h.5v-1.5l2,1,2-1.5,2-.5,1.5-1.5,1,.65-.5,2,4,1.5.55,4.95.45.05v-2.5l.5-.5,3.5,3v5.5l-3,2.5,1,1.5h-3l-2.5,1.5-2-3.5-1.5-.5-2,3,1,.5-1,.5-.5,1.5-1.5-1-2,.5-1,2.5-2,1.5,1,1-1.5-.5-2.5,1-3-.5-1.5.5-1.5-1.5-1.5,1-1-1-.5.5-3.5-4.5-2-.5,3-.5-.5-3.5-3-1.5-.5-1.5,1-.5,2.5-4"/>
      <path data-code="BRY-KLIN" d="m40.25,43.25v1.5l1.5.5h-.5v1l-1-.5v.5l-1,.5,1.5-.5-.5,1,1.5,2.5h2.5l1-3-1.5-1.5.5-1-1-1-1.5,1.5-1.5-1.5m-13.5-7.5l2.5-2.5,5,2,1.5-1,.5-1.5,2,1.5h1l.5-1.5h1.5l1,1,3.5-1,3,2v-1l2.5,3-.5,2.5-.5.5,1.5,1.5v1.5l1,1,2.85-.85-.4.7-2,.65,1,2.5-1,1-.5-1-.5,1-1-1-1.5,3.5,1,.5-.5,3,1,.85-.95,1.55-2.55-1.55.5-2.5-2.5.5-1,5-1.5,1.5.5,2.5-2,2-1.5-2-2.4,2.4-2.6-2.25-.5.5v2.5l-.45-.05-.55-4.95-4-1.5h4l.5-2.5h2l-1.5-1.5,1-3-1.5-1,1.5-1-1-1v.5l-1,.5-1.5-1,.5-.5v-1l-2-3.5-2,.5,1.5-2.5-3.5-2-.5-.5,2-1.5.5-1.5h-1.95"/>
      <path data-code="BRY-KLI" d="m40.25,43.25l1.5,1.5,1.5-1.5,1,1-.5,1,1.5,1.5-1,3h-2.5l-1.5-2.5.5-1-1.5.5,1-.5v-.5l1,.5v-1h.5l-1.5-.5v-1.5"/>
      <path data-code="BRY-KOM" d="m91.75,110.75l2,2,8,1,2,2.5h2l2.5,1,3,4.5,3.35,2.45-1.85,1.55h-2.5l-.5,1.5-2.5,1.5v2l1.5,1-1.5,1v1l1.5.5-5.5,2.5-1-.5.5,2-3,2-4-2,1-1-.5-1.5-3,.5v-2.5l1.5-.5-.5-1.5h.5l.5-2.5,1.5-1v-1.5l-1-.5.5-1.5h-2.5l-2,1.5-1.5-.5.5-1.5,1.5-1v-1l-2-.5v-2.5l2,.5,2-2.5-2.5-1.5-1.5-3.5,1.5-1.5Z"/>
      <path data-code="BRY-KRA" d="m24.75,6.25l1.5-.5,2,2,2.5-2.5,2,1,.5-.5v-2l.5-1,3-.5,1.5-2,3.5,5,4-.5,2.5,6.5-2,4h-3l.5,1.5h-1l-2,2-1-.5-1,2h-1l-.5-1.5v1.5l-3,2.5-.5,2-2,.5-.5,1.5-1-.5.5,2.5-1.5,1h-1.5l-1.5,2-3-2.5,1.5-2v-3.5l1.5-1-1.5-1.5-.5-2.5v-4l1.5-1,.5-2.5-1.5-5"/>
      <path data-code="BRY-MGL" d="m74.75,31.6l1.5-1.5h1l1,2,2.5-.5v-1.5l1.5-.5-1-1,3-.5-.35-1.2,1.35,1.35-1,1,1.5,2.5-2,1.5v2l3.5,1.5-1,1.5,1,3-.5,4.85-2,4.5v2.5l-.5.5-4-2-1.5,1.5-.5,1-6.5,1.15-3.5-3,2.5-4.15-2,.5v-2l-2,.5-3-.35.5-2.5-2,.35,1-2,1,.5.5-1h3l.5-1,1,.5v-1h1.5l-1-2-.5-2.5,1.5-2.5v-.5l4-1.5Z"/>
      <path data-code="BRY-NAV" d="m102.25,80.1h.5l.5-1,.5,1,1-1.5h1l1-1.5,1,1.5,3,1,1-.5-.5-1,3-1v1.5l1.5-2,3.5,3,.4-.5,4.1,1.5,3.5-1,3.5,1.5.5,1.15-2,2.85,1,.5h-3.5l.5,1,1,.5-1,.5-1,1.5,2,3v1l-2,1v2.5l-1,.5v1h2l1.5-1,1,1.5-1,.5-1,3.5h-.5l-.5-.5-1-.5,1,.5-1.5,4-.5-.5-2,.5-.5-2.5-3,3-2.5-2-1.5,2-1-1.85-3.5-.5-.5-1.15-5,2.15-4-2.65,2.5-2-1-3-6.5.5.5-2-1.5-2.5,2.5-1-1.5-1.5,1-3.5h1.5l1-2.5,2-.5.5.5h-1l.5,1h1v-1l2,.5-2.5-1h-1.5l-2.5-2.5,3,1.5v-2l1.5-1-.5-.5"/>
      <path data-code="BRY-NOV" d="m17.75,30.6l2.5,1,4-2,2,2.15v3l-1,.5,1,1,.5-.5h2l-.5,1.5-2,1.5.5.5,3.5,2-1.5,2.5,2-.5,2,3.5v1l-.5.5,1.5,1,1-.5v-.5l1,1-1.5,1,1.5,1-1,3,1.5,1.5h-2l-.5,2.5h-4l.5-2-1-.65-1.5,1.5-2,.5-2,1.5-2-1v1.5h-.5l-3-3.5.5-2-2-1.5,1.5-2.5-3-2-.5-.5,1-1-1.5-1h.5l1-1.5-.5-1.5,2-.5-1.5-1-.5-3.5,2-2,.5-5Z"/>
      <path data-code="BRY-POC" d="m80.25,51.6l4,2,.5-.5v-2.5l2-4.5,10.5,3.5-4.5-.5-1.5,3-.5,2,2.5,1v-1l2-.5-.5,2,2.5.5,1.5,6.5,3,1.5.5,2-2,1.5-1-1.5-.5,3.5h1v2l.5-1,1,.5v-1,1l-1,.5,1,2-2.5.5v1.5h-1.5l1,1.5-2.5,3-2.5-1-3,1-.5-1.5-3,2,1,1-.5,3h-1v-1.5h1l-.5-1.5h-.5l-.5,1.5h-1.5l-.5-1.5-1,1-1-2-.5,2.5-1.5-2-1-.5-1.5,1.5v-1.5l-1.5,1-.5-.5v-1h1l-1-.5.5-.5-1.5-1,1.5-1.5-.5-1,1-.5h-3l1-2-2-1-1.5,1-.5-1,1.5-1-1-.5,1-.5-1-2,2.5-3,4-2.5-1-2,1.5-1,.5-1v-2.5l1,.5,1-2-1.5-1.5,1.5-1.5Z"/>
      <path data-code="BRY-POG" d="m46.75,82.1l3-1.5,4,1,.5-2,1.5-1v-4.5l3.5,1.5,1-1.5,2.5-1.5v-.5h5l1.5-1-1-1.5,1.5-1.5h1l1,2-1,.5,1,.5-1.5,1,.5,1,1.5-1,2,1-1,2h3l-1,.5.5,1-1.5,1.5,1.5,1-.5.5,1,.5h-1v1l.5.5,1.5-1v1.5l-1.5-.5-2.5,1,1,1-1,2-1.5,1v.5h-3l-1,2.5-2,1-.5-.5-.5.5,1,.5-1.5,1.5v4l-1,.5,1,1.5-1.5-1.5h-1v1l-1-3.5-3-.5-2.5-4.5h-1l-1,1.5-1-1-4,1,1-1.5v-.5l-1.5,1-2.5-.5,3-1.5-1-2-1.5-1,1.5-1.5-.5-1.5"/>
      <path data-code="BRY-ROG" d="m122.25,9.1l1-1h2.5l-.5-1.5,1-.5,1.5.5v2l1.5.5,3.5-1v-1h.5l.5-.5,2.5,1v1l3.5-.5-.5,1,3.5,2.5v2.5l2,2-2.5,2,.5,1-1-.5-1.5,2.5,1.55,4.25-2.05-.25.5-1.5-1-.5-1.5,4,1.5,1v1l-1.5,1-.5-1-2.5.5-.5,1-1-1v1.5l-2-.5-1,1.5.5,1h-1l-1.5-1.85-3-1.5,1-1.5-.5-3.5-1.5-1.5.5-4.5-2-.5v-1l1.5-1-1.5-1,.4-2.35-1.4-.75.5-.5-.5-1,1-.5-.5-1.05"/>
      <path data-code="BRY-SEL" d="m125.25,56.1h1l1,1.5-1.5.5-1-1,.5-1"/>
      <path data-code="BRY-SEV" d="m68.75,128.1h2l.5-1.5,1.5-.5,2.5,2.5h1.5l-.5-1.5,4.5-1,.5-.5v-2l2-2,2.5,2.5,2.5-1.5v2l3-1.5,1,.15-1.5,1-.5,1.5,1.5.5,2-1.5h2.5l-.5,1.5,1,.5v1.5l-1.5,1-.5,2.5h-.5l.5,1.5-1.5.5v2.85l-.5,2,.5,1-1.5,1.5.5,1-1.5,1.5-2.5.5-1-1.5-2,.5-1-.5-.5-3-7,.5-1.5,2h-3.5l1.5,3.5h1.5l-1,1.5-3-.5-1.5,2-.5-4.5-2-1,1.5-1.5-1-1.5,1.5-3.5-1.5-1v-1l1-1-1-1,1.5-2,1-2-1-.5"/>
      <path data-code="BRY-STA" d="m45.75,52.6l2.5-.5-.5,2.5,2.55,1.55-.55.95,1,2-.5.5.5.5,2-1,1,1,1-1.5,1.5,1v-1l1.5-1,.5,4,2,1,1.5,3h1.5l.5-1,1.5-1.5,2.5.5.5.5-1,2,2.5,2-1.5,1.5,1,1.5-1.5,1h-5v.5l-2.5,1.5-1,1.5-3.5-1.5v4.5l-1.5,1-.5,2-4-1-3,1.5.5,1.5-1.5,1.5,1.5,1,1,2-3,1.5-.5,1-1-.5h-3l-.5-.5,1-1.5-1.5-1.5-1,.5-2-1,.5-1-2.5-.5-.5-5-1-.5v-2.5l-1.8-1,2.3-1.35h3l-1-1.5,3-2.65v-5.35l-.9-.75,2.4-2.4,1.5,2,2-2-.5-2.5,1.5-1.5,1-5"/>
      <path data-code="BRY-SUR" d="m55.75,26.1l1-1,1,2,1.5-1.5,2,1.5h1.5l2.5-2,2,1.5,5-2,2.5-1.5v-1l1,.5-.5.5,3.5,1,1.5-1,3.5,3,.5,2-3,.5,1,1-1.5.5v1.5l-2.5.5-1-2h-1l-1.5,1.5-4,1.5v.5l-1.5,2.5.5,2.5,1.5.5-.5,1.5h-1.5v1l-1-.5-.5,1h-3l-.5,1-1-.5-1,2-5-1.5-.5-1.5h-.5l-.6,1.3-2.85.85-1-1v-1.5l-1.5-1.5.5-.5v-2.65l-2-2.85,1.5-2.5,1.5-1.5,1.3-4.75,2.65,1.1Z"/>
      <path data-code="BRY-SUZ" d="m77.25,100.1v1l3,.5.5,2,7,3.5,2.5-3.5-1-1,1.5.5,2-3,1,.5,2.5-2.5,6.5-.5,1,3-2.5,2,4,2.65-2.5.5-1,1-1-1-2-.5v1.5l-3.5.5v3l-2-.5-.5,1h-1l-1.5,1.5,1.5,3.5,2.5,1.5-2,2.5-2-.5v2.5l2,.5v1l-4,1.35v-2l-2.5,1.5-2.5-2.5-2,2v2l-.5.5-4.5,1,.5,1.5h-1.5l-2.5-2.5,1-.5-.5-3.5.5-.5.5-1-1-1,.5-2-1-2.5,1.5-1.5.5-2-2-3h1l1-2-1.5-1.5,4-5Z"/>
      <path data-code="BRY-TRU" d="m65.25,90.1l.5.5,2-1,1-2.5h3v-.5l1.5-1,1-2-1-1,2.5-1,1.5.5,1.5-1.5,1,.5,1.5,2,.5-2.5,1,2,1-1,.5,1.5h1.5l.5-1.5h.5l.5,1.5h-1v1.5h1l.5-3-1-1,3-2,.5,1.5,3-1,2.5,1,.7-.95,1.3.45.5,2.5,2.5,2.5h1.5l2.5,1-2-.5v1h-1l-.5-1h1l-.5-.5-2,.5-1,2.5h-1.5l-1,3.5,1.5,1.5-2.5,1,1.5,2.5-.5,2-2.5,2.5-1-.5-2,3-1.5-.5,1,1-2.5,3.5-7-3.5-.5-2-3-.5v-1l-4,5-3.5-2-3.5-1-2,1-.5-1.5-.5,1.5-1.5-2.5,2.5-1.5-1-2,1-.5v-4l1.5-1.5-1-.5.5-.5"/>
      <path data-code="BRY-UNE" d="m55.25,43.6l1-2h.5l.5,1.5,5,1.5,2-.35-.5,2.5,3,.35,2-.5v2l2-.5-2.5,4.15,3.5,3,6.5-1.15.5-1,1.5,1.5-1,2-1-.5v2.5l-.5,1-1.5,1,1,2-4,2.5-2.5,3h-1l-2.5-2,1-2-.5-.5-2.5-.5-1.5,1.5-.5,1h-1.5l-1.5-3-2-1-.5-4-1.5,1v1l-1.5-1-1,1.5-1-1-2,1-.5-.5.5-.5-1-2,1.5-2.5-1-.85.5-3-1-.5,1.5-3.5,1,1,.5-1,.5,1,1-1-1-2.5,2-.65Z"/>
      <path data-code="BRY-VYG" d="m98.25,60.6h1l.5-1,1.5,1,2.5-2,1,1,2-1.5,1.5,2-.5,1,2,.5,2-1.5,1.5,2,2-1,3.5,3.5v6h2l-1,2.5h-1l-.5-1-.5,1,5,2-3.5,4.5-3.5-3-1.5,2v-1.5l-3,1,.5,1-1,.5-3-1-1-1.5-1,1.5h-1l-1,1.5-.5-1-.5,1h-.5l.5.5-1.5,1v2l-3-1.5-.5-2.5-1.3-.45,1.8-2.05-1-1.5h1.5v-1.5l2.5-.5-1-2,1-.5v-1,1l-1-.5-.5,1v-2h-1l.5-3.5,1,1.5,2-1.5-.5-2-3-1.5-.5-2"/>
      <path data-code="BRY-ZHI" d="m92.25,50.1l.5-1,4.5.5-.5-1.5,1.5-1.5,1-.5,1,.5,3-4.5h1l3.4,2.2,2.1,3.8,3,.5.5,1.5-.5,1-1,.5.5.5-.5,3,5,1.5v3.5h-1l-.5,1-2,1-1.5-2-2,1.5-2-.5.5-1-1.5-2-2,1.5-1-1-2.5,2-1.5-1-.5,1h-1l-1-4.5-2.5-.5.5-2-2,.5v1l-2.5-1,.5-2,1-2"/>
      <path data-code="BRY-ZHU" d="m108.25,34.75v1.5l1-.5-1-.5.5-1,.8-.5-.25,1.5,1,2.5,2-1,2.5,2v-1.5l1.5-.5.5-2h2.5l-.5,1,1.5-.65.5,2,2-2.85-.5-.5,1-1,4.5.85.5-2.35,2.5,1.85-.5-1,1-1.5,2,.5v-1.5l1,1,.5-1,1.1-.2-.6,1.35.5,1-.5,2,2,2-2,2,.5,1.5h-3l1,1-.5,2.5-2.5-2-1,2,1.3,2.55-1.3,1.8,1,1.15-4,.85-1.5,3-2.5,2-.5-1-2.5,3-1-.5-.5-2.5-2-1,.5-1-2.5-2-4.5-1-2.1-3.8.6-.6-2-1h.5v-1l1-1-1-3.5,1-1.5-1-1,1.45.05Z"/>
      <path data-code="BRY-ZLY" d="m11.75,41.6l1,1,2.5-1,.5,2.5-1,1.5h-.5l1.5,1-1,1,.5.5,3,2-1.5,2.5,2,1.5-.5,2h1l1.5,2,.5,1.5-1,1-2-.5.5,1-2,1-.5,4-4.5-2-.5,1.5-1-1-3,3.5-1.5-2.5-2.5-.5-2-2.5,1.5-.5,1.5-3h1l-1.5-3.5v-3l1.5,1,3.5-3.5.5-1.5-1-.5,2-1.5-.5-1,3-1-.5-1h-1l.5-2"/>
</svg>