<svg data-code="RU-BEL" xmlns="http://www.w3.org/2000/svg" viewBox="0 0 135.75 156.11">
    <g data-code="belgorodskaja_oblast_" data-title="belgorodskaja_oblast&amp;apos;">
      <path data-code="alekseevskij_rajon__belgorodskaja_oblast_" data-title="alekseevskij_rajon_(belgorodskaja_oblast&amp;apos;)" class="cls-1" d="M103.12,98.62l2.5,1.5-.5-1.5.5-2,6.5-1-1-3.5,1.5-3,3-.5,3-1.5,1,1.5-1,2.5,2-.5,4,3.5-1,1-1-1.5-1,.5.5.5-3,2,3,2.5.5,1-1-.5.5,1.5,1-1,2.5,2.5-1.5.5-1,1.5,3,2.5,1,3h-1.5l-1-1.5.5,1.5-.5,1v1l-2.5,2.5v1h1.5l-1,1.5-3-1-.5,1-1-.5-3,1-.5,1.5,1,1.5-1,1.5v2.5l.5,1.5h-3l-1.5,1.5v1l-2.5-1.5.5-3-1-.5-1-.5-.5,1h-1l-1,1.5v-1l-2.5-.14,1-1.5-1-.5.5-1h1l-.5-3.5,1.5-1.5-2.5-2-1.5-5.36h-1.5l1.5-3.5-.5-.5h1.5l1-4,1.5-.5-.5-2"/>
      <path data-code="belgorodskij_rajon" data-title="belgorodskij rajon" class="cls-1" d="M37.62,48.12l-1,4,2-.5-1,1,3,1v5l1.5-1v-1h1.5l-.5-1,2.5-1.5-.5-1,1-2-2-.5.5-1-.5-1.5-1-.5.5-1-1.5-.5-2,1-.5,1.5.5.5-2.5-1M19.62,48.12h4.5l.5-1.5-1-.5,1-2.5,3-1.5,2.5,4,6-.5.5-2.5,1-.5v-1.5l5-2,1,1.5v-1.5l1-.5,2,3-1.5,4,1.5.5-.5,1,1.5.5.5-2.5,2-1,3,1,2,4-4.5-.5-2.5,3h2l1.5,2,1.5-.5-.5,2.5v-.5l-.5.5,1,1-.91.91-2.1-1.05-2.5,1-.5,2.5-1-.5v1.5l-5,2-5-2-.5,1-1.5,1.5.5,1.5-1-.36v3l-1.5,1-1-.5-1.5,2-4-6,.5-1-4,.5-2-2,.5-2,1-.5-1-6.5,1-2-2-2.5"/>
      <path data-code="borisovskij_rajon" data-title="borisovskij rajon" class="cls-1" d="M21.12,28.99l1-1.5,1,.5-.5,1.14,2-.64,3,1.5,1-1.5,1,.5-.5,1.5,1.5-1,.9.73-2.4,2.4,1,2h-.5l-.5,1,1,1h-.5v4.5l1,1-1.93,1.71-1.07-1.71-3,1.5-1,2.5,1,.5-.5,1.5h-3.5l-6.5-3-1-1,2-1.5v-3.5l2-1.5v-2.5h-1v-2l.5-1,1.5-1-1.22-2.98,4.21.85Z"/>
      <path data-code="chernjanskij_rajon" data-title="chernjanskij rajon" class="cls-1" d="M91.12,50.12l.5-2.5-1-.5.5-2,4,1.5,1-1,1,2h1.5l1,3.5,3-1.5.5,1.86-2.5,2,5,5.5,2-1,1,2.5,2-.5,1,3-.5,2,4.5.5,2,1-2.5,3.14h-1.5v1l1-.5-1.5,2.5.5,1-1-.5-1,1-1.5-3.14-2.5,1.5-1-.5-1-1,.5-1.5-2,.5-1-1.5-1.5.5-1-.5-1,.5v.5l-.5.5-1.5-2-3-.5-3-2.5-.5,1-2.5-1-.5-3,1,.5.5-1-1-1.5-2.5-.5-1.07.64-2.43-2.51.5-.5-.5-1.5,5-5v-2l3.5,1.5Z"/>
      <path data-code="gorodskoj_okrug_belgorod" data-title="gorodskoj okrug belgorod" class="cls-1" d="M37.62,48.12l2.5,1-.5-.5.5-1.5,2-1,1.5.5-.5,1,1,.5.5,1.5-.5,1,2,.5-1,2,.5,1-2.5,1.5.5,1h-1.5v1l-1.5,1v-5l-3-1,1-1-2,.5,1-4"/>
      <path data-code="grajvoronskij_rajon" data-title="grajvoronskij rajon" class="cls-1" d="M5.12,20.12l1-.5,2.5,1v.99s7.5.51,7.5.51v1.26l1,.74-1.5.86,2.5,6.14-1.5,1-.5,1v2h1v2.5l-2,1.5v3.5l-2,1.5h-1.5l-1-1.5h-2l-.5,1-4,1-3.5-2.5.5-3.5,2.5-3-2-5,.5-3,1-2-.5-2,2-.5.5-3"/>
      <path data-code="gubkinskij_gorodskoj_okrug" data-title="gubkinskij gorodskoj okrug" class="cls-1" d="M83.12,26.12l2.5.5,1,.5-1.5,1,1.5,1.5,1.5-4,3-1,1-2.5,1,1.5-.5.5,3.5,3,1.5-1h3l2.5,3,4.5,1.5-.5,1.5,2.15,2.3-.65,2.06-1.5,1.5.5,1.5-1-1-.5.5.5,1-1-.5-1,2-1-1.5.5,2-2.5-.5.5,2.5h-.5l.5,2-1,.5,1,1.5.5,1.64-3,1.5-1-3.5h-1.5l-1-2-1,1-4-1.5-.5,2,1,.5-.5,2.5-3.5-1.5v2l-3-1.5-.5-1-2-.5-.5,1-1-1-1,.5-3-3.14v-3l1.5,1,2.5-1-2-3.5,2-.5,1-1-3.5-3.5,2-1.5h1.5l1-2.5-1.71-1.68,2.22-1.68Z"/>
      <path data-code="ivnjanskij_rajon" data-title="ivnjanskij rajon" class="cls-1" d="M42.62,5.62h2.5l.5,2,.5-1.5,1.5,1,1-.5.5,5.5,3,1.5,1.5-1.5-.5,3,.5,2,1.5,1h3.5l-.5,6.36-2.5,2.5-3,1,1,2.5,1,1-4.5.64-1,.5-6-6h-2l.5-2-.89-.9,1.39-.6v-2l-3.5-1.5,1-5h-1.5l1-1-.5-1.5,1.5-1.5,2.5,1.5v-1.5l-1-3h.5l.5-1v-1"/>
      <path data-code="jakovlevskij_rajon__belgorodskaja_oblast_" data-title="jakovlevskij_rajon_(belgorodskaja_oblast&amp;apos;)" class="cls-1" d="M29.12,32.62l2.4-2.4,2.1,1.77.5-2,1.5-.5,1.5-4-1-2,4.61.23.89.9-.5,2h2l6,6,1-.5-.5,1.5,1.5,1.5v3h1l1-2.5,2.5,2.5.5-1h1l-1,1,1.5,2.5,1,.36-2.5,2,4.5,1-.5.14.5,4-1.5,1.5-.5-1.5-1.5-.5-2,1.5-2-4-2.5-.5-.5-.5-2,1-.5,2.5-1.5-.5.5-1-1.5-.5,1.5-4-2-3-1,.5v1.5l-1-1.5-5,2v1.5l-1,.5-.5,2.5-6,.5-1.43-2.29,1.93-1.71-1-1v-4.5h.5l-1-1,.5-1h.5l-1-2"/>
      <path data-code="korochanskij_rajon" data-title="korochanskij rajon" class="cls-1" d="M48.12,51.62l2.5-3,4.5.5,2-1.5,1.5.5.5,1.5,1.5-1.5,3-1.64-2.5-.5,2.5-1-.5-1,1,1,2-1,1,.5,1.5-.5v-1.5l1,.5,1.5-1.5,1,4,2,.5,2.5-1,3,3.14,1-.5,1,1,.5-1,2,.5.5,1,3,1.5-5,5,.5,1.5-.5.5,2.43,2.51-1.43.86-3-.5-1.5,2,1.5.5v1l-1.5,1-2.5-.5-1,2.5h-1l.5,2.5h-1.89l-2.11-2.5-1,.5-1-2.5h-2.5l-1.5-1.5-2-5-2,1-2.5-2-1.5,2.5-4.9-2.45.91-.91-1-1,.5-.5v.5l.5-2.5-1.5.5-1.5-2h-2"/>
      <path data-code="krasnenskij_rajon" data-title="krasnenskij rajon" class="cls-1" d="M113.62,69.62h1.5l2.5-3.14,3.5-1.5,1.08,1.08-1.07,1.06,1,2,2-1-.5,1,1.5,1-1.5,1,1,1,.5,3.5h1v1.5l3,.5,1.5-2.5.5,1.5,1.5-1,2,1-1,2,1.5,1.5-1,2h-3l.5,2.5-1,1,1.5,1-1.5.5-.5,2.5v-1.5l-2-.5-.5-2.5h-2.5l.5.5-.5,1.5-1-1-.5,2-2,.5-1.5,2.5h-1.5l1-2.5-1-1.5-3,1.5-1-2.5,1.5-1-2-5.5.5-3-1-.5h-1l-.5,1-1.21-2.02.71-.98,1-1,1,.5-.5-1,1.5-2.5-1,.5v-1"/>
      <path data-code="krasnogvardejskij_rajon__belgorodskaja_oblast_" data-title="krasnogvardejskij_rajon_(belgorodskaja_oblast&amp;apos;)" class="cls-1" d="M91.62,83.12l5-1.5,3.5-4,7.5.86,3-3.86,1.5,2.5.5-1h1l1,.5-.5,3,2,5.5-1.5,1,1,2.5-3,.5-1.5,3,1,3.5-6.5,1-.5,2,.5,1.5-2.5-1.5.5,2-1.5.5-1,4h-1.5l.5.5-1.5,3.5-2.5,1.5-2,3.5-2,.5v-1.64l-2-.5-1.5-2.86-2-1,1.5-1.14-4.5-3.5,1.5-6,1.5-1v-2l2-2,1.5.5,2-1,1-2.36-1-.5.5-2-2.23-3.04,1.23-1.46Z"/>
      <path data-code="krasnojaruzhskij_rajon" data-title="krasnojaruzhskij rajon" class="cls-1" d="M16.12,1.62l2-1,1,3,1.5.5v1.5l2.5,1-1,1.5-1.5,1.36.5,2.5h1.5l-1.5,1.5,1,1.5,1-.5v2.5l1,1.5-1,.5v1l-1.5-.5,1,2-1.5-.5-1.5,2h-1v1l-2.5-.6v-1.26l-7-.5,1-1-.5-1.5,2-1.5v-1l2.5-1.5-1.5-3.5,2-2v-2.5h1v-1.5h1l.5-.5-1-3.5"/>
      <path data-code="novooskol_skij_rajon" data-title="novooskol&amp;apos;skij_rajon" class="cls-1" d="M75.12,69.49l-.5-2.5h1l1-2.5,2.5.5,1.5-1v-1l-1.5-.5,1.5-2,3,.5,2.5-1.5,2.5.5,1,1.5-.5,1-1-.5.5,3,2.5,1,.5-1,3,2.5,3,.5,1.5,2,.5-.5v-.5l1-.5,1,.5,1.5-.5,1,1.5,2-.5-.5,1.5,1,1,1,.5,2.5-1.5,1.5,3.14-.71.98-.29-.48-3,3.86-7.5-.86-3.5,4-5,1.5-2,2.36-2-4-6.5-2.5-1.5,1-4-3-2.5,2-.5-1.5,1.5-3h-1.5l1-4.5-.39-.5h1.89Z"/>
      <path data-code="prokhorovskij_rajon" data-title="prokhorovskij rajon" class="cls-1" d="M55.62,26.99l2.5-2.5.2-2.58,4.3-1.92,1,4-1,1-1,.5h.5l3.5,1,5-2v1l5,.5,2,2h3.5l1.5,1.5-1,2.5h-1.5l-2,1.5,3.5,3.5-1,1-2,.5,2,3.5-2.5,1-1.5-1v3l-2.5,1-2-.5-1-4-1.5,1.5-1-.5v1.5l-1.5.5-1-.5-2,1-1-1,.5,1-2.5,1,2.5.5-3,1.64-.5-4,.5-.14-4.5-1,2.5-2-1-.36-1.5-2.5,1-1h-1l-.5,1-2.5-2.5-1,2.5h-1v-3l-1.5-1.5.5-1.5,4.5-.64-1-1-1-2.5,3-1Z"/>
      <path data-code="rakitjanskij_rajon" data-title="rakitjanskij rajon" class="cls-1" d="M21.12,8.99l1,1h1.5l1-1,1,3.5,1.5-1,2,.5-.5-1,1.5-1,1.5,1.5-1,2,1.5,1,.5-1h2l1-1.5h3.5v1.64l-1,1h1.5l-1,5,3.5,1.5v2l-1.39.6-4.61-.23,1,2-1.5,4-1.5.5-.5,2-3-2.5-1.5,1,.5-1.5-1-.5-1,1.5-3-1.5-2,.64.5-1.14-1-.5-1,1.5-4.21-.85-1.79-2.15.5-1,1.5-.86-1-.74,2.5.6v-1h1l1.5-2,1.5.5-1-2,1.5.5v-1l1-.5-1-1.5v-2.5l-1,.5-1-1.5,1.5-1.5h-1.5l-.5-2.5.5-.5Z"/>
      <path data-code="roven_skoj_rajon" data-title="roven&amp;apos;skoj_rajon" class="cls-1" d="M86.12,137.99l5-1.5,2,.5v-1.5l1.5-.5-1-1.5,1-1,4,.5,2-1.5.5-2.5-1.5-.5,2-4,2.5.14v1l1-1.5h1l.5-1,2,1-.5,3,4.22,2.09-1.22,2.78.5,1.5-1.5,2.5-2,1,1,2-1,1v2.5l2,.5-.5,1.5-1.5-.5.5,1-1,1,1.5,2-2.5,2h-3l-.5,1.5-1-.5v1.5h-.5l-2,1.5-4.5,1.5h-2l-1-1-4-.5-.5-2.5,1-1.5,1-.5-2.5-2-2-4.5.5-2-.5-1,1-2"/>
      <path data-code="shebekinskij_rajon" data-title="shebekinskij rajon" class="cls-1" d="M27.12,70.99l1-.5.5-.5,1.39-.38,1.11-1.48,1,.5,1.5-1v-3l1,.36-.5-1.5,1.5-1.5.5-1,5,2,5-2v-1.5l1,.5.5-2.5,2.5-1,7,3.5,1.5-2.5,2.5,2,2-1,2,5,1.5,1.5h2.5l1,2.5,1-.5,2.5,3-1,4.5h1.5l-1.5,4.5h-4.5l-2.5,2h-3l-2.5-2-3,1-5-.5-11.5-6-8.5-.5-2,1.5-1.5.5-1.5-4"/>
      <path data-code="starooskol_skij_gorodskoj_okrug" data-title="starooskol&amp;apos;skij_gorodskoj_okrug" class="cls-1" d="M101.62,41.49l2.5.5-.5-2,1,1.5,1-2,1,.5-.5-1,.5-.5,1,1-.5-1.5,1.5-1.5.5-1.5,8.5-.5,3.5,2.5,1.5,1.5-1.5,3.5.5,1,.5,1,.5-1,1.5,4.5,1.5.5-.5,3h.5l1.5,2-.5,3,3.5-.5,1,1-1,1-.5,3.5h-.5l1.5,1.5-.5,1.5-1,.5v1l-4.5-3-1.5,1.5.5,1-1,1.5-1.5-1.5-3.5,1.5-2-1-4.5-.5.5-2-1-3-2,.5-1-2.5-2,1-5-5.5,2.5-2-1-3.5-1-1.5,1-.5-.5-2h.5l-.5-2.5"/>
      <path data-code="valujskij_rajon" data-title="valujskij rajon" class="cls-1" d="M60.62,97.99l3-4,1.5,3.5h1l1-1.5,1-.5,1.5,2,.5-.5,2,1,2.5-1,3,1.5.5-2,3-1,1.5.5.5,4h1.5l-1,4,4.5,3.5-1.5,1.14,2,1,1.5,2.86-1.5,3-3.5-.5-1.5,1.5-3-.5-2,2.5-1,3.5-4-2.5-2,3.5-.5,3-5.5,1,.5-1-3-.5-1.5.5.5-1.5h1v-3l-.5-1.5,1-4-2.5-6-1.5-.5.5-4.5-.5-4,.5-.5.5-2.5"/>
      <path data-code="vejdelevskij_rajon" data-title="vejdelevskij rajon" class="cls-1" d="M78.62,118.49l2-2.5,3,.5,1.5-1.5,3.5.5,1.5-3,2,.5v1.64l2-.5,2-3.5,2.5-1.5h1.5l1.5,5.36,2.5,2-1.5,1.5.5,3.5h-1l-.5,1,1,.5-1,1.5-2,4,1.5.5-.5,2.5-2,1.5-4-.5-1,1,1,1.5-1.5.5v1.5l-2-.5-3,1-.5-2-1.5,2h-1.5l-1.5-2.5-2.5-.5-1-1v-1.5l.5-1-1-1-1.5.5-1-3,2.5-5-1.5-.5,1-3.5"/>
      <path data-code="volokonovskij_rajon" data-title="volokonovskij rajon" class="cls-1" d="M63.62,82.99l.5-.5,1,.5,1-1.5-.5-.5,2.5-2h4.5v-1l.5,1,2.5-2,4,3,1.5-1,6.5,2.5,2,4,.77-.91,2.23,3.04-.5,2,1,.5-1,2.36-2,1-1.5-.5-2,2v2l-1.5,1-.5,2h-1.5l-.5-4-1.5-.5-3,1-.5,2-3-1.5-2.5,1-2-1-.5.5-1.5-2-1,.5-1,1.5h-1l-1.5-3.5,1.5-1-2-1v-1.5l-1.5-3.5,2-4"/>
    </g>
</svg>