<svg data-code="RU-BA" xmlns="http://www.w3.org/2000/svg" viewBox="0 0 264.25 367.75">
    <g data-code="bashkortostan">
      <path data-code="abzelilovskij_rajon" data-title="abzelilovskij rajon" class="cls-2" d="M139.62,245.12l2.5-.5,1,1,3-3.5.5.5,3-4,7,5.5,12.5,4,4.5-6h2l1.5-2.5-.5-2,1.5-1,2.5,2.5,1.5-1.5-.5-1.5,2-2.5,4,3.5-1.5,5-2.5,1.5-1,5-1,2.5-4,.5-2,4,3.5,1.5-7.5,17.5-1-.5-2,5,1.5-.5-4,10.5,2.5,2-.5,1.5-5.5-2.5-1.5,5.5-1.5-.5-1.5,2.5-2.5,2-2-1.5,3-5-3-2,.5-2.5-3.5-3-6.5-4,3-8.5-3-6-3-2-1-1.5,2-2,1.5-.5-1.5-1.5,1.5-1.5,1,.5,1.5-1v1h2l2-3.5.5-2.5,1.5-1.5-4.5-2.5-1,1-2-.5-5-3v-1"/>
      <path data-code="al_sheevskij_rajon" data-title="al&amp;apos;sheevskij_rajon" class="cls-2" d="M30.12,162.62l1.5,1v-1l1-.5.5,1,3.5-.5v-1l1.5.5,1.5-1.5v1.5l2,.5-.5-2.5,1-1-.5-.5,1-.5,1-5-1-1.5h4l.5-.5-1.5-2.5-2-1,.5-2.5,2-1,3.5,5h2l4,3v1l-3,.5v1h3l1.5,3,1-.5.5,5.5,1.5-3,1,1.5,1.5-.5.5,3-1,1,2,2.5,2.5.5.5,3h3l3,2.5-2.5,3,.5,1-1.5,3-2-3-5,3.5,2.5,5.5-1,1v-1l-1,.5-1-1-2,1-.5,1h2l-3.5,4.5-4-1.5-.5-2.5,1-.5-1-2-1,.5-.5-1-2,1-.5-1.5,4-5-1-2v-1.5l-1,.5-.5,1.5-1.5-.5-.5,1.5-1,1-1-1.5.5-.5-6-3.5-3,1-1-1-2.5,2-1-.5v1l-1.5.5-.5-2-1.5-.5.5-1-.5-1,1-2.5-1-1,1-.5-1-1,1-1-2-1.5v-1.5l1,.5-.5-2"/>
      <path data-code="arkhangel_skij_rajon" data-title="arkhangel&amp;apos;skij_rajon" class="cls-2" d="M118.12,162.12l1-.5v-1l5-1.5.5-1.5,1,.5.5-1.5,1.5-1.5,2-.5-.5-1,1.5-2v.5l.5-.5,3.5,1.5.5-1.5-.5-.5,1-1.5-.5-.5h1.5l.5,2,1.5-1,.5-2.5,1.5.5.5-2h.5l2,3-1,2,2,1-3,3,1,2,3-.5,1,1,3.5-1.5.5-2.5h-1v1.5l-1-1.5,1-3.5,5.5,3.5,4.5,6-2.5,3.5h-5.5l-4.5,4,2,.5-6.5,10.5-1.5,1.5-.5-1-1,1.5-2,.5,1.5,3.5-2,2.5-1,.5-.5-1-6-1-3-4.5-1,1v-1.5l-1.5-.5-1,1.5-5.5-4v-.5l1-1-1.5-2,.5-.5-1.5-2,1-2-.5-3,1.5,1,.5-1-1-1.5.5-1,1-.5-1-1"/>
      <path data-code="askinskij_rajon" data-title="askinskij rajon" class="cls-2" d="M188.12,70.62l.5,1,1-.5-1-1-.5.5M155.12,50.62l2-3.14.5-1,1.5-1v-1h1l-.5-1,3-3.5.5-1.36h1l1.5,2v-.5l2-1,1-1.5,1.5,1,.5-2,2-.5v1.5l-.5.5h1v1.5l1.5-1.5.5,1,1.5-.5,1,1-2.5,2h-1l.5,6.5,2,.5-1,.5.5,1-.5.5,3,2.5-.5.5v3.5l2.5,1-.5,3.5,1,1.5,3.5-1,1,1,1-1.5h1l4.5,1.5.5-1.5h1.5l-1-.5,1.5-2h-.5v-1.5h4l.5-2.5h1v-.5l1.5,1,.5-1h2.5v2.5l-1.5,1-1,2,1.5,5.5-3,3.5v1l1,2,1.5,1.5-4,1.5-1-2-1.5,1.5v1l-4,1.5-1-2.5,2-1.5v-2h-1.5l1-1-1.5,1-.5,1-3.5,1-1,1v2.5l-1,.5h-1.5l-.5-2h-2l-3.5,2.5,1.5-5.5-1.5,1-4.5-4-2,1.5-.5-2h-1l-2.5,1.5-2.5-1.5-2,1-3.5-2.5-2,2-.5-4,1-1-1.5-.5,1-1-1-1v-1.5h-1l.5-1,3.5-1-2-4.5.5-1,1,.5v-1l-1,.5-2.5-2"/>
      <path data-code="aurgazinskij_rajon" data-title="aurgazinskij rajon" class="cls-2" d="M70.62,176.12l1.5-1.5h1.5l1-2.5-.5-1.5,4,.5,2-2.5-.5-2.5,1.5-1.5h-1l1-2,3-1,4.5,3h3.5l-.5,1,1,.5,1.5-1.5,3.5.5.5,1-.5,1.5,1.5,1-1,2,1,.5-2.5,3,.5.5,3,.5v3l1.5-1.5,3,.5,1,1-1,1,.5.5,1.5.5-.5,1.5-.5-.5-.5,1-2,1.5v1h-1l.5-1-2-.5-3.5,2h2l-1,1h-1.5l-1,1.5-1.5-.5.5,1.5,1.5.5-.5,1,1,1-1-.5-2,2.5-.5-.5.5-1.5-1.5.5v-1l-2-1-1.5,2-3-1.5h-1l-.5,1.5-.5-2-4.5,3.5-1,2.5-1-1-1,1.5-1-2,1-1-1.5.5,1-1.5-1.5,1-1-.5-1,.5-1.5-1,1-1.5h-1l-.5,1.5-3.5-1,2.5-3.5h1l1.5-3-.5-.5,1-1-2.5-3,1.5-3-.5-1"/>
      <path data-code="bajmakskij_rajon" data-title="bajmakskij rajon" class="cls-2" d="M144.12,308.12l2.5,2.5v-1l2,1,1-1.5-1,.5-.5-.5.5-1,3,.5v1l1.5-4-1-1.5v1l-3,.5-2-1.5-1.5,1,1,1.5h-1l-1.5,1.5M99.62,306.12l2-3,1,.5,1-1,1,.5,2-3h2.5l1-2,4,1v-.5h1l-2.5-2-2,1.5-.5-.5,3.5-6-.5-1,.5-.5h1.5l1.5-2,1,.5-.5,1.5h1v-.5l4,2.5,1-2.5-2-2,1-1-2-1,1-1.5,1,.5,1.5-2,1,.5,1-2.5h-2.5l1.5-2.5,2,.5,1-3.5-1.5-1,1.5-1-.5-1,5-2.5,4,5.5.5-1,4.5-3,1-5,2,1,3,6-3,8.5,6.5,4,3.5,3-.5,2.5,3,2-3,5,2,1.5-1.5,3-1.5,8h-1l-.5,1.5h-1.5l-1,3,1,.5-.5,1.5,1.5.5-.5,2-1,3-2-1-2,3,1,.5-1,2.5,2,1.5-2.5,4,3.5,2.5-1,1v3h-2.5l-1,1.5-5-3-.5-3-6-4,.5-2-2.5-1-1-3-4.5-2-1.5,2-2-2,1-2.5-1,.5-3.5-1,.5-2,1-.5-1.5-2h-5l-1,2.5-3.5-1.5,1-2-2-1.5-3,1.5-1.5-2.5h.5l-4-1.5.5-4.5"/>
      <path data-code="bakalinskij_rajon" data-title="bakalinskij rajon" class="cls-2" d="M26.62,66.12l1-2,7.5,3,1-.5-.5-1.5,3-.5,5.5,4,1-.5v-3l3.5-.5v1-1l1.5-2,7.5.5,3,6h2.5l-1,1,1.5,3h-.5l-.5,1.5-.5.5.5,1,2.5-.5-2,5-3,2v1h-.5l2,2.5-1,.5v1l-.5-.5-1.5,3.5-1.5-1,.5,1.5-.5,1-2.5-1-1-1,1-1.5-1.5-1.5-1.5,1.5h-2.5l.5-1.5-2,.5-2.5-3-7,.5-.5.5.5.5-2.5,2-3.5.5-.5-2.5.5-1.5-.5-2,.5-.5.5-1-2.5-4.5-1.5-.5.5-1.5-1.5-.5,1.5-1.5-.5-1,.5-1.5-3-2,.5-2"/>
      <path data-code="baltachevskij_rajon" data-title="baltachevskij rajon" class="cls-2" d="M132.12,51.12l1-1.5.5-.5,3.5,1.5.5-3.5,1-.5v-1.5h7.5l.5,1,2-1.5.5,1.86,2.5-1v2.5l2-.86,1.5.5,1.5-1,.5,1-2,3,2.5,2,1-.5v1l-1-.5-.5,1,2,4.5-3.5,1-.5,1h1v1.5l1,1-1,1,1.5.5-1,1,.5,4-6.5,6h-.5l-.5-.5.5-1-3-2.5-1,1.5-1.5-.5v1l-.5,1-.5-1.5-.5,1.5h-2l-.5-.5.5-.5-1.5-.5,1,2.5-.5.5-2.5-4.5-6,2v-1.5l2-1,1-2.5-1-1,2-1,.5-.5-1,.5-1-.5,1.5-1-1-.5h-1.5l.5-1h1v-1l2-.5.5-2.5-5-8"/>
      <path data-code="belebeevskij_rajon" data-title="belebeevskij rajon" class="cls-2" d="M20.62,131.62h2v-1l1-.5,2,.5,1-1,1.5,1.5.5-1.5,2,1.5v1l-.5.5.5.5-1,2.5,4.5.5,1-1.5h1.5v-1.5l.5,1.5,6-3-.5-1,.5-1,.5.5.5,2.5-2,1.5-.5,1.5,1.5,3.5,1-.5v1l1.5.5v1.5l1.5,1-3,2.5-.5,2.5,2,1,1.5,2.5-.5.5h-4l1,1.5-1,5-1,.5.5.5-1,1,.5,2.5-2-.5v-1.5l-1.5,1.5-1.5-.5v1l-3.5.5-.5-1-1,.5,1-3-4,1-2-2,.5-2.5-1-1-2.5.5-1,2.5-3.5-1.5v-1l-3.5,1,.5-2.5-2.5-1.5,1.5-2.5,2-1,.5-2-1.5-2,3.5-2.5-1.5-2.5.5-1.5,1,.5,2-1,.5-2-1-1,1.5-3.5h-1l-.5,1-.5-1"/>
      <path data-code="belokatajskij_rajon" data-title="belokatajskij rajon" class="cls-2" d="M226.12,98.62l2.5.5.5-1,.5.5,2-4h1l1.5-1.5h2.5l2.5-1.5,7,1.5v1.5h2.5l4-3,1.5-2.5,3,3v1l1-.5,2,2,1.5-1v-.5l2,.5-.5,1.5-.5-.5-.5,2,.5.5-.5-.5v1l-1,.5.5.5-2,1v1h-4.5v2.5l-1,2.5,1,1.5-2,2-1,.5-.5,2.5-2,1.5-2-.5-.5,2,4.5,2,1,2-3,3,.5,1-1,1,1,.5-.5,3.5-3.5.5-.5,1.5,5.5-.5,1-1.5,2,1-1,3,5,1.5,1.5,1.5-1.5,2h-2l-1,2-3.5-.5-2,1.5-1-.5.5-1.5-1.5-1-1,1.5-4-.5-2.5-1.5-.5,1h-1l-2-1.5-1,1-.5-3-.5,1.5-.5-1.5-3-1.5.5-2.5-1-.5,1-2,1.5,1.5,1-1.5-3-1.5-.5-1.5,1-1.5-.5-2-1.5.5-2.5-3-2.5-1.5-1.5,1.5-.5-.5.5-.5-.5-1h1l-1-3,1-2,1,.5.5-2-.5-1,2-4-1.5-1,1-2.5-.5-1.5.5-1.5"/>
      <path data-code="beloreckij_rajon" data-title="beloreckij rajon" class="cls-2" d="M202.12,199.62l1,2.5,1.5-1-1.5-2-1,.5M152.12,209.99l.5-1,1.5.5,1.5-1.5,1-2.5,1-.5-.5-1.5,9.5-2.5-1-4.5h-1l-.5-1-4.5,2.14-.5-2-1,.86.5,1.5h-1.5l.5,1.5-1,.5v1.5l-2.5,1-1.5,2,1,.5-1.5,3-2-.5,2,2.5ZM114.12,215.62l2-3.5,2.5-2v-1.5l1.5.5,1,2,1.5-.5,1.5,2,1-1.5v1.5l.5-.5,2-5,1-5,1-1,1-3,.5-5.5,3-4.5,2-2v1l1-.5,2-2.5-1.5-3.5,2-.5,1-1.5.5,1,2.18-2.59,5.82-9.41-2-.5,4.5-4h5.5l2.5-3.5,2,3-2,1,1,1.5,3.5-.5-.5,4.5,3,4v1.5l-1,1-1,2.5,2,2.5,1,5,2,3,1,.5,5.5-2.5,3-3,3.5,1.5,5.5-1,1.5,1,3.5,8.5,4.5.5,2-3.5,2-.5h5.5l1.5.5v2.5l1.5,3-1.5,1.5h-2.5l.5,1-1.5,1.5,2,.5.5,1.5-4,3.5-2,3.5-2.5.5-2,1.5h-2l-2,3.5h-3.5l-2,2.5-2.5,1-3.5,4.5-3,1-.5.5-1,1-1,2,3.5,2.5.5.5-1,1.5,4.5,2-2,2.5,1,1-2,2-2.5-2.5-1.5,1,.5,2-1.5,2.5h-2l-4.5,6-12.5-4-7-5.5-3,4-.5-.5-3,3.5-1-1-1.5.5-4-1v.5l-1.5.5-1.5,2.5.5.5-.5,1.5-3.5-2,.5-2-.5-.5-2,2-3.5,1.5-2-2h-2.5l-.5-3,1-1v-2l.5.5,2-2.5-2-4.5,1.5-1.5-3.5-2,1-2-1.5-.5,2-4-.5-.5,3-5-9-3"/>
      <path data-code="birskij_rajon" data-title="birskij rajon" class="cls-2" d="M97.12,88.12l2-1.5-1-2,1.5-2,3.5,1,2-.5.5-1.5-1-1,1-1,1.5-.5-2-3,2-1,.5-1.5,1.5.5,4-1.5,1.5.5-.5,1,3,.5.5,1-1,1,1.5.5.5,2,5,1.5-1.5,1.5.5,2.5,4,1-1.5,5,2.5-.5-.5,3.5,1.5,3-5.5,4.5-.5,1.5v2h-1.5l-3-2-1,1-2-.5-1,1.5-1.5-2-10.5-1.5,1-2.5-3-1.5-.5-2.5-2.5-1v-3l-2,.5-.5-3h2.5Z"/>
      <path data-code="bizhbuljakskij_rajon" data-title="bizhbuljakskij rajon" class="cls-2" d="M4.13,166.62l1.5-2-.5-.5,1-.5,3,.5,4-3.5,1.5,1,1-1,2,1,1-4.5-1-1,1.5-.5,3.5,2.5,1-2.5,2.5-.5,1,1-.5,2.5,2,2,4-1-1,3v1l-1.5-1,.5,2h-1v1l2,1.5-1,1,1,1-1,.5,1,1v1.5l-2.5,3v2l-2.5,2v1.5l-2,1-1,3.5-2-3-1,.5,1,1-.5.5v1.5l-1.5.5,1,2,1.5-1,1.5.5v1l4,1-1,3.5.5.5-1,1.5-.5-.5-1,1.5-4.5-2-1.5,2,1,1-1.5,3-2.5-2-3-4-2,1.5h-1l-2.5-3-1-4.5.5-4-.5-.5.5-2-.5-1.5v-11l-2-2.5"/>
      <path data-code="blagovarskij_rajon" data-title="blagovarskij rajon" class="cls-2" d="M60.12,115.12l3-1.5,2.5,1,1-2-1-1-1-4.5,1.5-.5,1,3.5,3,2,2.5-4h-1l.5-.5-1.5-1,1.5-2,4,1,5-.5.5.5-1.5,3.5h2l1-1.5h2l-.5,1,5,3.5-1.5.5,1.5,1.5v2l-1.5,3.5.5.5-1.5,1-1.5.5-.5,3.5-1.5.5-1,2.5-2-.5-.5,1.5h-2.5v1l1,.5-2,.5-.5,1-1.5-1,1,4-1.5,2.5,1,1-.5,1.5-1-.5-.5,1-2-1,1.5-2-1-1h-1.5l-1,2.5-6-3,.5-1-.5-1-3,2v-.5l2.5-2.5-.5-1.5,1-1.5-3-3v-1.5l2.5-.5,2-3-2-1,.5-2h1v-1.5h-2l-2-2.5"/>
      <path data-code="blagoveshhenskij_rajon__bashkortostan_" data-title="blagoveshhenskij_rajon_(bashkortostan)" class="cls-2" d="M110.12,110.62l2-1,.5-3,2-3h2.5l1-1,3,2h1.5v-2l.5-1.5,3.5-2.5,2.5,2.5.5-1,1.5,1,3-2.5,1-2,3.5,2,1-2-.5-.5v-1h1l.5,2.5,2-2.5-.5-2,2.5-3.5.5,1-.5,1.5,1,.5.5-2,1-.5,5,4-.5,4-3,.5-.5,3,3,.5-.5,2,1.5,2-2,1.5,1.5,2.5-2,2-1.5-2h-1.5v-1h-1.5l-1.5,1.5.5,4.5-1.5.5-1,1,1,1.5h-1v1.5h-3l-2,1v1.5h-1l.5,1-1.5-1-1.5,1-1,1,.5,2.5-1.5,1h-1.5l.5,2-.5.5-1.5-1.5.5-2-2-1.5-4.5,1-.5-1h.5l-.5-.5-1.5.5h-1l.5-1.5-2,1.5-2.5-1.5v-.5l2.5-3-2.5.5-1.5-3.5.5-1-.5-1,.5-1.5-3,.5-.5-.5.5-1-1-.5v-1.5"/>
      <path data-code="buraevskij_rajon" data-title="buraevskij rajon" class="cls-2" d="M103.12,52.12l2.5,1.5,1-2.5,2.5-.5v-1h2.5l-1,1.5.5.5,1.5-.5,1,1.5h1.5l1-1.5,2,.5,1-3.5,2.5-3,.5.5-.5,1h1.5v2h1l1.5-2.5h2v-.5l1-.5-1-1,2,.5-.5,1.5.5.5,1-1-.5-1,1-1,7.5,1.5v1.5l-1,.5-.5,3.5-3.5-1.5-.5.5-1,1.5,5,8-.5,2.5-2,.5v1h-1l-.5,1h1.5l1,.5-1.5,1,1,.5,1-.5-.5.5-2,1,1,1-1,2.5-2.5,1.5-2-1-.5,1-.5-1.5.5-1.5-1.5.5-1.5-2,2,.5,1-1-2-2v2l-1-1.5-1.5,2,1.5,1-.5,1.5h-2l-1.5-2.5-2.5,2.5h-2v1.5l-3-1-1,2-4,1.5-1.5-.5,1-2-1-4-1-.5-.5.5h-2l.5-1.5h-.5l.5-1,1.5-.5.5-1-2-3.5,1-2-1.5.5.5-.5-1-2.5-1-1"/>
      <path data-code="burzjanskij_rajon" data-title="burzjanskij rajon" class="cls-2" d="M98.62,242.62l3-.5,1.5-3,3.5.5,1-2h2.5l.5-1,1.5,1v-3l3-.5.5-1,3-1.5.5-1,3.5,2-1.5,1.5,2,4.5-2,2.5-.5-.5v2l-1,1,.5,3h2.5l2,2,3.5-1.5,2-2,.5.5-.5,2,3.5,2,.5-1.5-.5-.5,1.5-2.5,1.5-.5v-.5l3,1v1l5,3,2,.5,1-1,4.5,2.5-1.5,1.5-.5,2.5-2,3.5h-2v-1l-1.5,1-.5-1-2,2,1.5,1.5-1.5.5-2,2,2,2.5-1,5-4.5,3-.5,1-4-5.5-5,2.5.5,1-1.5,1,1.5,1-1,2.5-1.5-.5-2.5,1.5-3.5-5h-5l-.5,1-3.5,2-3-1-1.5.5,1-3.5-5.5-1.5.5-2.5-1-.5.5-1.5-1-.5-1,3-1-.5-2,5-6-2v-1l-1.5-2.5v-.5l1.5-1-.5-1,.5-1.5,1,.5v-2l1.5-3,1.5-5,1.5-3,2-2-.5-2.5,1.5-4.5"/>
      <path data-code="buzdjakskij_rajon" data-title="buzdjakskij rajon" class="cls-2" d="M48.12,109.62l2.5.5.5-1,1.5-.64v-.5l1-1,1,1,1-1-2-1,4-1.5-1-2.5,3-1.5.5.14,4.5-1.5,3,2,.5-1,3.5.5,1-1,1,1,.5,3-2,1-1.5,2,1.5,1-.5.5h1l-2.5,4-3-2-1-3.5-1.5.5,1,4.5,1,1-1,2-2.5-1-3,1.5,4,3.5-1,.5-.5,2,2,1-1,2-2.5,2-1-.5v1.5l3,3-1,1.5.5,1.5-2.5,2.5,2.5,2-1.5,1.5-4.5-2,2-1.5-3-3-2.5,1.5-3,3-1-.5-6.5,1.5-.5-.5-.5-2,.5-1.5,2-1.5-.5-2.5-1-1.5,3-2.5.5-3,3-3.5-.5-1.5,2.5-.5-1.5-2.5.5-1-1,.5-1-5"/>
      <path data-code="chekmagushevskij_rajon" data-title="chekmagushevskij rajon" class="cls-2" d="M60.12,82.62l3-2,1-2,3,.5,2,1.5,3-1v-1.5l6.5,3.5,3-2-.5-2.5-1.5-.5,3.5-.5,5,3.5,1,2h-1.5l1,4.5-2-.5-1,1,.5,1.5,1-.5.5-1.5.5,1.5-1,3,1.5,1.5-1.5,2,3.5,1.5,1.5,2.5h-2l-.5,2.5-1.5.5-1,1-3.5-2.5-1.5,2.5-1,3.5h-5l-4-1,2-1-1-1.5.5-1.5-1-1-.5,1-.5.5-3.5-1-.5,1-3-2-4.5,1.5-.5-1.64,1-1-1-1,2.5.14h1l-1.5-.14v-1.5l1-.5-1.5-1.86,1.5-3-2.5,1-1.5-.5.91-2.12-.41-.38,1-1,.5.5v-1l1-.5-2-2.5.5-1"/>
      <path data-code="chishminskij_rajon" data-title="chishminskij rajon" class="cls-2" d="M63.12,138.12l.5-1.5,5.5,2.5,1-2.5h1.5l1,1-1.5,2,2,1,.5-1,1,.5.5-1.5-1-1,1.5-2.5-1-4,1.5,1,.5-1,2-.5-1-.5v-1h2.5l.5-1.5,2,.5,1-2.5,1.5-.5.5-3.5,3.5,1.5,1.5-1.5,2,1.5-.5,2-2.5,1.5,1.5,3.5,4.5,1.5,2-1,.5,1-1.5,2-1.5-.5-1.5,1.5,2.5,1v1.5h-1l-1,2,2,1.5-1,4.5-2.5.5,1.5,1.5,1.5-1,3,.5-1,1-.5,2.5-2,3-1.5-.5-1,1h-4l-1.5,3-3.5,2.5-1-.5,1-1-4-.5-.5-.5.5-1-1-.5-.5,1-2-1v-.5l-2-.5-.5-3-2-4.5-4.5-3,1-2-.5-.5.5-1.5-2.5-.5-1,1-1.5-2"/>
      <path data-code="davlekanovskij_rajon" data-title="davlekanovskij rajon" class="cls-2" d="M42.62,138.12l6.5-1.5,1,.5,3-3,2.5-1.5,3,3-2,1.5,4.5,2,1.5-1.5-2.5-1.5,3-2,.5,1-.5,3,.5.5,1,1.5,1-1,2.5.5-.5,1.5.5.5-1,2,4.5,3,2,4.5.5,3,2,.5v.5l2,1,.5-1,1,.5-.5,1,.5.5h3l-1,1-1.5,4.5h1l-1,2h1l-1.5,1.5.5,2.5-2,2.5-4-.5.5,1.5-1,2.5h-1.5l1-1.5-2-2-4-.5-.5-3h-1.5l-3-3,1-1v-2.5l-3-1.5-1.5,3-.5-5.5-1,.5-1.5-3h-3v-1l3-.5-2-3-4-1-1-2-1,.5-.5-2.5-1.5-1,1.5-1.5-1.5-1v-1.5l-3-2"/>
      <path data-code="djurtjulinskij_rajon" data-title="djurtjulinskij rajon" class="cls-2" d="M91.62,63.62l.5.5v-1l-.5.5M92.12,64.12v1l1.5-1-1-.5-.5.5M81.62,64.62l2.5-2h1v-1.5l4-.5,1,1,.5-1,1-.5,1-1.5.5.5-.5-1-.5,1h-.5l1.5-2.5.5,1,1-.5-.5-1.5-1,.5-2.5-1.5-1-3,1.5,2.5,1-1.5h1.5v1.5l1.5-1,1,.5v-3.5l.5,2.5,3.5.5-2,1.5,1.5,1,3-1,1,1,1,2.5-.5.5,1.5-.5-1,2,2,3.5-.5,1-1.5.5-.5,1h.5l-.5,1.5h2l.5-.5,1,.5,1,4-1.5,3.5-2,1,2,3-1.5.5-1,1,1,1-.5,1.5-2,.5-3.5-1-1.5,2,1,2-2,1.5h-2.5v-2.5l-2,2-3.5-.5-1.5-4.5v-1h1.5l-1-2h-1l-4-3.5-3.5.5,2-2.5v-1h2l.5-1h.5l2-2.5-1.5-2,1-1.5-.5-1-4-.5"/>
      <path data-code="duvanskij_rajon" data-title="duvanskij rajon" class="cls-2" d="M178.12,102.12l2-2-.5-1,2.5-.5v-1.5l1.5-1,8.5.5,1.5-4h1.5l2.5-3,1,.5,5.5-8.5-5.5-4-1,.5-.5-.5,1-2.5h2.5l3.5-1.5,1,.5,2.5-2,1,1,5,.5,1,2-.5.5v1h1l-1.5,3.5,2,1.5v2l1,1.5-.5,1.5-.5-.5-.5,1h-2l-2.5-2-1,1,2,3.5,1.5-1.5,2,1-1,3.5h.5l-1.5,4-1-.5-1,2.5,3.5,1.5.5-1.5,1,.5.5,1.5-.5,1.5,1.5.5-.5,2.5-1.5,1-2,1-2.5-1-.5,2-1,1,1,1.5,3,1-.5,2,2.5,1,1,1.5-1,1.5h-.5v1h-.5l1.5,7-.5,1-.5-.5-1,1,1,2.5-3.5-2-2,.5v1l-1.5-.5-.5,1-1.5-.5-.5-1,.5-.5.5-2.5h.5l1-1.5-6-2.5v1h-.5l-1.5-2.5.5-1-4.5-.5v-1l1.5-2-2.5-1v-1h-2l-1-2-2,.5-2.5,4.5-1-.5-.5,1-4.5-3.5-1,2-3.5-1.5-2-2.5,3-4-.5-3.5.5-1.5v-.5"/>
      <path data-code="ermekeevskij_rajon" data-title="ermekeevskij rajon" class="cls-2" d="M8.13,126.12h1l.5-2,3,.5-.5,1,.5.5,2-.5,1.5-1v1l1.5-1,.5,1-1.5,1,1.5.5,1,3.5,1.5-1.5h1.5l-1.5,1,.5,2.5.5-1h1l-1.5,3.5,1,1-.5,2-2,1-1-.5-.5,1.5,1.5,2.5-3.5,2.5,1.5,2-.5,2-2,1-1.5,2.5,2.5,1.5-.5,2.5,2-.5,1,1-1,4.5-2-1-1,1-1.5-1-4,3.5-3-.5-1,.5.5.5-1.5,2-3.5-5.5,1.5-3.5v-3l.5-1.5-.5-.5,1-.5v-2l1-2-.5-2.5,1-1.5-.5-2.5,1.5-1-.5-3.5,1-3,.5-.5,1-6,1-.5-.5-1"/>
      <path data-code="fedorovskij_rajon" data-title="fedorovskij rajon" class="cls-2" d="M27.62,214.62l7-2.5v-1.5l1-.5,3,1,1-.5-.5,2.5,3.5,2.5-.5,1-3.5,3,2.5-1-.5,1h1.5l4.5,4-.5,1h-1.5l4,4,2-1.5,3.5,2.5.5,1-1,1.5-1-1.5-1,1.5-1.5,3.5,2,1-1.5,1v1l-3,.5v3l-2.5,4.5-4-.5,1-2-2,1-7.5-2.5-1.5-1,2-2.5h-1l-2.5-2.5-2.5,1.5-1-3,1-7.5-1-3.5,1.5-1,1.5-6.5-1.5-2M25.62,243.12l5-.5-.5,3-1.5,1.5-1-2.5-1.5,1.5h-1l1-2-.5-1"/>
      <path data-code="gafurijskij_rajon" data-title="gafurijskij rajon" class="cls-2" d="M87.62,199.49l1-1.5.5,1.5,1-1.5,1,.5v-1.5l1,1.5,1-1v-1l1-.5-1.5-2.5,1-.36,2-2.5,1,.5-1-1,.5-1-1.5-.5-.5-1.5,1.5.5,1-1.5h1.5l1-1h-2l3.5-2,2,.5-.5,1h1v-1l2-1.5.5-1,.5.5.5-1.5,2-2.5,2-1-.5-.5.5-.5,1,.5-.5-1,2-.5v-1.5l1.5.5.5-1.5-.5-1,2.5,1,.5,1-.5.5,1.5,2-1,1v.5l2.5,2,3,2,1-1.5,1.5.5v1.5l1-1,3,4.5,6.5,1-5,6.5-.5,5.5-1,3-1,1-1,5-2,5-.5.5v-1.5l-1,1.5-1.5-2-1.5.5-1-2-2.5-1-3,1-3-2h-5l-3-1.5-1.5,1.5,3,2-4.5,2.5h-.5v-4.5l-2.5,3.5-1-.5-1,1-1-.5-.5-1,1.5-2-1.5-1-1,2-2.5-.5-1.5,1.5-2.5.5-.5-2,1-2-.33-.33.32-.31.5-1.5-.5-.5.42-.73-.42-1.27.5-1-1-1.5,1,.5Z"/>
      <path data-code="gorod_salavat" data-title="gorod salavat" class="cls-2" d="M65.12,222.12l1.5-2,.5-1.14h1l.5-1.5h2l-1,2.5,2.51-.02-1.01,5.16-1.5,2-.5-2-.5,1-3-1,1.5-4-1.5,2-.5-1"/>
      <path data-code="gorodskoj_okrug_agdata-codeel_" data-title="gorodskoj_okrug_agdata-codeel&amp;apos;" class="cls-2" d="M75.12,29.62l2,1-1,2h-1l-.5,1.5-1-1"/>
      <path data-code="gorodskoj_okrug_kumertau" data-title="gorodskoj okrug kumertau" class="cls-2" d="M39.12,263.12l1-1.5,4.5,1.5.5-2-.5-.5,1.5-3,3-2,1,.5.5-3,.5-1,5.5,2.5-2.5,1.5-.5,1-.5-.5-3,2.5.5.5-2.5,3.5-2.5-1.5-1,2-3-1v1.5l-2.5-1"/>
      <path data-code="gorodskoj_okrug_neftekamsk" data-title="gorodskoj okrug neftekamsk" class="cls-2" d="M89.12,20.62l1,1,.5,2,1-.5v-2l1-.5,4,2,.5,2.5-2,.5-1-1.5.5,2-2,1,2,2.5-3.5,2.5-2-3.5-.5-2.5,1.5-1-.5-1.5h-.5l1-1v-1l-1-1"/>
      <path data-code="gorodskoj_okrug_oktjabr_skij" data-title="gorodskoj_okrug_oktjabr&amp;apos;skij" class="cls-2" d="M13.63,113.46l1,.5v-1.5h1l1-3.5,2-2.5,2,2-1,.5-1.5,2,4.5-1v1.5l-1,.5-1,1.5.5.5-1,1h-3.5v1l-1.5,1h-1.5v-3.5"/>
      <path data-code="gorodskoj_okrug_sibaj" data-title="gorodskoj okrug sibaj" class="cls-2" d="M144.12,308.12l1.5-1.5h1l-1-1.5,1.5-1,2,1.5,3-.5v-1l1,1.5-1.5,4v-1l-3-.5-.5,1,.5.5,1-.5-1,1.5-2-1v1l-2.5-2.5"/>
      <path data-code="iglinskij_rajon" data-title="iglinskij rajon" class="cls-2" d="M110.62,148.62l2-.64.44-1.1,2.56.73,1.5-1v-1l1-1h3l-1-3.64,3-.5,1.5-1.5.5-3-.5-.5.5-1.36-.79-1.62,1.79.62,2.5-.5-1-3h2v-2l1.5,1,1.5-1,1.5,1,2.5,4h2l.5-1.5.5.5.5-.5,2.5,2,3-2,4,1,2-1,2-1.5-.5-2.5h2.5l1.5,2.5,1-1.5h1.5l.5.5-1,2h1.5l-1,1v4l-.5,1,.5,1h-.5l-1,2,1-.5,1,2.5-7,5,2,7-5.5-3.5-1,3.5,1,1.5v-1.5h1l-.5,2-3.5,2-1-1-3,.5-1-2,3-3-2-1,1-2-2-3h-.5l-.5,2-1.5-.5-.5,2.5-1.5,1-.5-2h-1.5l.5.5-1,1.5.5.5-.5,1.5-3.5-1.5-.5.5v-.5l-1.5,2,.5,1-2,.5-1.5,1.5-.5,1.5h-1l-.5,1-.5-1.5-8,2.5-1-2.5,2-.5v-1l-2-2v-1.5l-4-1-1-2,1-1Z"/>
      <path data-code="ilishevskij_rajon" data-title="ilishevskij rajon" class="cls-2" d="M91.62,63.62l.5-.5v1l-.5-.5M57.62,63.12l1-1v-1l2-.5v-1l1.5-1h2v-1.5h1v-2l.5-1,2-.5,1,1v-1l6-1.5.5-.5h.5v-.5h1.5v-1.5l3-.5v-1h.5l.5-2-2,1-1.5-5,4.5-4v.5l-1,1.5.5,1-1.5.5,2,3,2.5-1.5.5,1-1,.5v1.5l3.5,2,1,5,1-1.5,1,3,2.5,1.5,1-.5.5,1.5-1,.5-.5-1-1.5,2.5h.5l.5-1,.5,1-.5-.5-1,1.5-1,.5-.5,1-1-1-4,.5v1.5h-1l-2.5,2,4,.5.5,1-1,1.5,1.5,2-2,2.5h-.5l-.5,1h-2v1l-2,2.5,1.5.5.5,2.5-3,2-6.5-3.5v1.5l-3,1-2-1.5-3.5-.5.5-.5,1-2.5-2.5.5-.5-1,.5-.5.5-1.5h.5l-1.5-3,1-1h-2.5l-3-6M92.12,64.12l.5-.5,1,.5-1.5,1v-1"/>
      <path data-code="ishimbajskij_rajon" data-title="ishimbajskij rajon" class="cls-2" d="M66.12,231.62l2.5-1.5,1-3v-2h1.5l1.01-5.16.99-1.98,1,.5.5-1.5h1l-1.5-2.5,1.5-.5,2,.5v-1.36h1.5l-1-1,1-.5-1-.5h1v-1.64h1.5l-1-1.36v-2.5l2,.5.71-.77.28,1.13v-1.5l1-2,2,1-1,2,1.5.5.68-.69.33.33-1,2,.5,2,2.5-.5,1.5-1.5,2.5.5,1-2,1.5,1-1.5,2,.5,1,1,.5,1-1,1,.5,2.5-3.5v4.5h.5l4.5-2.5-3-2,1.5-1.5,3,1.5h5l3,2,3-1,1,.5v1.5l-2.5,2-2,3.5,9,3-3,5,.5.5-2,4,1.5.5-1.5,3-3,1.5-.5,1-3,.5v3l-1.5-1-.5,1h-2.5l-1,2-3.5-.5-1.5,3-3,.5-1.5,4.5-14-11-1,3,2.5,2-3,3.5-2,1.5h-3.5l-1-3-3-3.5,1-2,2.5-.5-9.5-4.5v-1"/>
      <path data-code="janaul_skij_rajon" data-title="janaul&amp;apos;skij_rajon" class="cls-2" d="M97.12,18.62l3-1.5-.5-2.5,2,.5,1-2.5,1.5-.5-2-1,1.5-3,1-1h1l1,3,.5-2,2-1.5,2-3,1.5-.5,1.5-2,2-.5,1,.5-1,1v.5l2.5,1.5-.5.5v4.5l2,.5-.5.5,1,1.5h1l-1,.5.5,1.5,2,2-1,3,2,2h.5l.5-1.5,1.5,1h1.5l.5,1.5-1,1.5,1.5,1,1-1,.5-2.5,1-.5,1,4,2.5,1.86-1.5,2,.5,1-.5,2.5,2,.5.5,2.5-2,.5v2l-3,4.5,1.5,2.5-1.5-.36-1,1,.5,1-1,1-.5-.5.5-1.5-2-.5-1.5-1.5.5-.5-2-1.5-1,.5-.5-1.5h-1.5l-1,1.5.5,1-.5.5-4.5-.5v-.5l1.5-3-2.5-.5.5-2-1,.5v1.5l-1,.5-3-4.5,1-1-.5-1-3-1.5v-1.5h-3l-1.61-2.95,3.11-2.05-.5-.5.5-2-5.5-1-1.5-2h-2.5"/>
      <path data-code="kaltasinskij_rajon" data-title="kaltasinskij rajon" class="cls-2" d="M92.62,39.62v.5l1,.5v-.5l-1-.5M98.62,42.12l-.5,1,2-.5-.5-.5h-1M99.12,44.12v1.5l2-2-.5-.5-1.5,1M97.62,25.12l2,.5,1.5-1,.5-1.5.5.5,3,5.5h3v1.5l3,1.5.5,1-1,1,3,4.5,1-.5v-1.5l1-.5-.5,2,2.5.5-1.5,3v.5l4.5.5.5-.5-.5-1,1-1.5h1.5l.5,1.5,1-.5,2,1.5-.5.5,2.5,2.5-1,.5v.5h-2l-1.5,2.5h-1v-2h-1.5l.5-1-.5-.5-2.5,3-1,3.5-2-.5-1,1.5h-1.5l-1-1.5-1.5.5-.5-.5,1-1.5h-2.5v1l-2.5.5-1,2.5-2.5-1.5-.5,2.5-3,1-1.5-1,2-1.5-3.5-.5-.5-2.5-3.5-3,3-2.5v1l2.5,1-.5-2-4.5-1.5-.5-1.5-1,.5v1l-1.5,1-.5-1,2-3.5,2-2-1-1,3-3.5.5-2.5h1l1-2-1-1.5"/>
      <path data-code="karadata-codeel_skij_rajon" data-title="karadata-codeel&amp;apos;skij_rajon" class="cls-2" d="M188.12,70.62l.5-.5,1,1-1,.5-.5-1M143.62,85.12l3-4.5,1.5-1.5,2-4,1-.5.5-1,7.5-6.5,3.5,2.5,2-1,2.5,1.5,2.5-1.5h1l.5,2,2-1.5,4.5,4,1.5-1-1.5,5.5,3.5-2.5h2l.5,2h1.5l1-.5v-2.5l1-1,3.5-1,.5-1,1.5-1-1,1h1.5v2l-2,1.5,1,2.5,4-1.5.5-1.5,1.5-1,.5,2h-.5l-1,2.5,7,4-5.5,8.5-1-.5-2.5,3h-1.5l-1.5,4-8.5-.5-1.5,1v1.5l-2.5.5.5,1-2.5,2.5-1-.5v-1.5l-1,1-.5-1,1-.5-.5-.5-2.5,1.5-1,2,.5.5-1.5,1-1-.5-1,1.5-2-1.5h-.5v.5l-1,.5-.5-.5,1-1.5-3-.5.5-1-5.5-4-4.5-1.5-6.5-6-1,.5-.5,2-1-.5.5-1.5-1-1.5,2-2-2.5-2"/>
      <path data-code="karmaskalinskij_rajon" data-title="karmaskalinskij rajon" class="cls-2" d="M81.62,158.12l2-.5-1,1,1,.5,3.5-2.5,1.5-3h4l1-1,1.5.5,1-.5v-1l1.5-1,1,1.5,1-.5v1l-.5.5.5,1,5.5-3.5-.5-2.5,2,3,1-1.5-.5-1.5,1-1,.5,1.5.5-1,1-.5.5,1.5-1,1,1,2,4,1v1.5l2,2v1l-2,.5,1,2.5,8-2.5.5,1.5-5,1.5v1l-1,.5,1,1-1,.5-.5,1,1,1.5-.5,1-1.5-1,.5,1-.5,3.5-2,.5.5,1-.5,1.5-1.5-.5v1.5l-2,.5.5,1-1-.5-.5.5.5.5-2,1-2,2.5-1.5-.5-.5-.5,1-1-1-1-3-.5-1.5,1.5v-3l-3-.5-.5-.5,2.5-3-1-.5,1-2-2-1.5h.5v-1.5l-3.5-1.5-1.5,2-1-.5.5-1h-3.5l-4.5-3-3.5,1h-.5l1.5-4.5"/>
      <path data-code="khajbullinskij_rajon" data-title="khajbullinskij rajon" class="cls-2" d="M73.12,345.62l3.5-2.5,1-2.5v-1l1,.5-1-1.5v-1l2-1v-3.5l2.5-1-1-2,2-1.5,1,1,.5,2.5-1,2,2.5,1,2-.5.5-.5h1.5v1l-2,1v2.5l2.5,1.5h1l.5-2,5,2,.5-.5.5-2.5h1l-.5-.5.5-1,5,2,2-1.5,1,.5,2.5-5.5h1l2-1.5,2,1,.5-1,1.5.5.5-2,1.5.5.5-1.5v-2l2-2,2,2,1.5-2,4.5,2,1,3,2.5,1-.5,2,5,3.5-3,6-3.5,3.5,1,1-1,3,2,1-1,3-2-1-4,9.5-2-.5-1.5,4-1.5-.5-1.5,3.5-9-4v-.5l-1,1.5-2-.5-.5,1-2.5-1.5-1.5,1-.5-.5.5-2-.5-1,1-1-.5-1-5.5-2.5,1-2-1.5-1.5-6-2-.5-1v-1.5l-2-1.5-1,.5.5,2-3,2v2l-3.5,1.5-6-3,.5-2.5-1-.5v-1.5h-1.5v-1.5"/>
      <path data-code="kiginskij_rajon" data-title="kiginskij rajon" class="cls-2" d="M205.62,132.62l2-2,4,1v2.5l2.5,1v-2l1-.5v-2.5l-1-2.5,1-1,.5.5.5-1-1.5-7h.5v-1h.5l1-1.5-1.5-2v-1.5l7.5.5,1,3h-1l.5,1-.5.5v.5l2-1.5,2.5,1.5,2.5,3,1.5-.5.5,2-1,1.5.5,1.5,3,1.5-1,1.5-1.5-1.5-1,2,1,.5-.5,2.5,3,1.5.5,1.5.5-1.5.5,3,1-1,3,1.5-2.5,2,1,2-2,2.5v1l-2.5-1v.5h-1v1l-1,1-2-.5-2,2v-1l-.5-.5,1.5-3.5-1.5-1.5-2.5-.5-1,2,3.5,1-1,1.5-6.5-4-1,.5-1.5,2.5,2,2.5-2,3-1.5,1-1-1,.5-1.5-1.5.5,1-3-3.5-1v-1l2-3-1.5-1-2.5,1,.5-2h1v-2.5l-2.5-1-1-1.5.5-1.5-1.5.5-.5-.5"/>
      <path data-code="krasnokamskij_rajon__bashkortostan_" data-title="krasnokamskij_rajon_(bashkortostan)" class="cls-2" d="M89.12,20.62l1,1v1l-1,1h.5l.5,1.5-1.5,1,.5,2.5,2,3.5,3.5-2.5-2-2.5,2-1-.5-2,1,1.5,2-.5-.5-2.5-4-2-1,.5v2l-1,.5-.5-2-1-1M68.62,25.12h.5l1.5-2.5,3.5,1.5v-1.5l2-1,1-2,3,4.5,1.5.5,2.5-1.5,3-3.5,3-1.5,3-2.5,2,.5.5-.5h3.5l.5-1,.5,2.5-3,1.5h2.5l1.5,2,5.5,1-.5,2,.5.5-3.11,2.05-1.89-3.05-.5,1.5-1.5,1-2-.5-.5,2,1,1.5-1,2h-1l-.5,2.5-3,3.5,1,1-2,2-2,3.5.5,1,1.5-1v-1l1-.5.5,1.5,4.5,1.5,1,1-.5,1-2.5-1v-1l-3,2.5,3.5,3v3.5l-1-.5-1.5,1v-1.5h-1.5l-1,1.5-1.5-2.5-1,1.5-1-5-3.5-2v-1.5l1-.5-.5-.5-2.5,1-2-3,1.5-.5-.5-1,1-1.5v-.5l-2.5,3h-2l-3-3h-1v-2l2.5-1.5-1.5-.5.5-1.5h1l1-2-2-1-1.5,3.5-2-1,2-1-.5-1-1.5,1,.5-2-2-2-1.5,1-.5-1,1.5-1.5-1-.5M98.62,42.12h1l.5.5-2,.5.5-1M92.62,39.62l1,.5v.5l-1-.5v-.5M99.12,44.12l1.5-1,.5.5-2,2v-1.5"/>
      <path data-code="kugarchinskij_rajon" data-title="kugarchinskij rajon" class="cls-2" d="M53.62,262.12l3.5-2.5v1.5l1.5-1.5h.5v-1h1l-.5,1h1.5l.5-1.5,1.5,1,.5-.5.5,1,2-1,1.5,1.5h2.5l2.5-2v-1l4,1.5,1.5-.5.5-1.5,1-.5,2,1-1,1.5.5,2h1v1l1-1v-1.5l2.5.5.5,5h1l-1,.5.5,2,2,.5,1.5,3v1l6,2-1,1.5h1.5l-2,5-1.5,1.5,2.5,1.5-1.5,2-1-.5-.5,1-5.5-2-.5-1-1.5,2-3,1-1,1.5,1.5,2h-2.5l3,1.5-4,6.5h-3.5l-7,3-3-.5-1,3-2.5.5-2,1.5-4.5-.5,1-2h-1v-2.5l1,.5.5-3,.5-.5.5-2,1.5-2,2.5-1.5-.5-2.5-2,2.5-2-.5,1-5,1.5-.5.5-1.5h2.5l-.5-1.5,2-.5v-1l-2.5-1-5,1.5-1-5h-1.5l.5-.5v-1l3-1.5v-3l-1.5,1,4-5.5-4-1v-1l1-.5v-1l-2,1.5-2-1.5"/>
      <path data-code="kujurgazinskij_rajon" data-title="kujurgazinskij rajon" class="cls-2" d="M27.12,238.12l2.5-1.5,2.5,2.5h1l-2,2.5,1.5,1,7.5,2.5,2-1-1,2,4,.5.5,4.5v1l2,1h.5l.5-2.5,2.5.5,2-1.5.5,2h-1.5l-1.5,1.5-.5,3-1-.5-3,2-1.5,3,.5.5-.5,2-4.5-1.5-1,1.5,2.5,1v-1.5l3,1,1-2,2.5,1.5,2.5-3.5-.5-.5,3-2.5.5.5.5-1,2.5-1.5v2.5l1,.5-.5,2-3.5,2.5,2,1.5,2-1.5v1l-1,.5v1l4,1-4,5.5,1.5-1v3l-3,1.5.5-1-1-.5-1,.5-1-.5,2.5-1-.5-.5-3-1,.5,2-1.5,2-2.5,2-1.5-1.5-2,3-1-.5,1.5-2.5-2-.5-2,3.5-1,1-1,4,.5.5-3.5,1.5-.5-1-2,1.5-1-1v-3.5l-.5-.5h-.5l-.5,2-2-1-1-3-1,1-1-.5v-2.5l2.5-1.5-1-2,1-1.5.5.5.5-1-1.5-1.5,1-1,2,1.5.5-.5-1-1.5v-1h1l.5-2h-3.5l2.5-2-2-5-2,2-2.5-.5-.5-1.5,2-3-1.5-2.5,1-1,1.5,1v1.5l1-.5-.5,2.5,1.5,1.5.5-1.5,1,1,2-1.5v-1l-2-.5v-2.5h3.5l.5-2.5h-1l-.5-2.5-3,.5.5-4.5-4,.5-.5-1.5,1-1.5v-2"/>
      <path data-code="kushnarenkovskij_rajon" data-title="kushnarenkovskij rajon" class="cls-2" d="M85.62,86.62l1-1,2,.5.5,1,3.5.5,2-2,.5,5.5,2-.5v3l2.5,1,.5,2.5,3,1.5-1,2.5,10.5,1.5,1.5,2-1.5,2-.5,3-1.5.5-.5,1.5,1,1-.5,1,.5.5,3-.5-.5,1.5.5,1-.5,1,1.5,3.5-4-1-1,3-5-3.5-.5,1-1.5.5-2-4-4.5-2-1.5,1.5h-3l1,3.5h4v-1.5l1.5.5,1.5-1.5.5,1.5-4.5,5.5-2-2.5-1.5,1.5-2-1.5-1.5,1.5-3-1-.5-.5,1.5-.5,1.5-1-.5-.5,1.5-3.5v-2l-1.5-1.5,1.5-.5-5-3.5.5-1h-2l-1,1.5h-2l1.5-3.5.5-3.5,1.5-2.5,3.5,2.5,1-1,1.5-.5.5-2.5h2l-1.5-2.5-3.5-1.5,1.5-2-1.5-1.5,1-3-.5-1.5-.5,1.5-1,.5-.5-1.5"/>
      <path data-code="mechetlinskij_rajon" data-title="mechetlinskij rajon" class="cls-2" d="M209.62,86.62l1-1,2.5,2,3-.5.5-1.5-1-1.5.5-2-2.5-1.5.5-2,1-1.5,5,1.5,1.5-1,2,1,2,3.5,4,.5v.5l-1.5,1.5,1.5,1,2-2,2,.5,2.5-2.5,1.5.5,1.5,4.5,2.5,1.5-.5,2.5,3.5,1-.5,1-5-1-2.5,1.5h-2.5l-1.5,1.5h-1l-2,4-.5-.5-.5,1-2.5-.5-.5,1.5.5,1.5-1,2.5,1.5,1-2,4,.5,1-.5,2-1-.5-1,2-1,.5-6.5-1v1.5l-2-.5.5-2-3-1-1-1.5,1-1,.5-2,2.5,1,2-1,1.5-1,.5-2.5-1.5-.5.5-1.5-.5-1.5-1-.5-.5,1.5-3.5-1.5,1-2.5,1,.5,1.5-4h-.5l1-3.5-2-1-1.5,1.5-2-3.5"/>
      <path data-code="meleuzovskij_rajon" data-title="meleuzovskij rajon" class="cls-2" d="M50.62,227.12l2-.5,1-1.5-.5-2,1-2.5,1-.5,2,1.5,1-1h1.5l1.5-1.5,5.5,1-1.5,2,.5,1,1.5-2-1.5,4,3,1,.5-1,.5,2-1,3.5-2.5,1v1l9.5,4.5-2.5.5-1,2,3,3.5,1,2.5,3.5.5,2-1.5,3-3.5-2.5-2,1-3,13.5,10,1,3.5-2,2-1.5,3-1.5,5-1.5,3v2l-1-.5-.5,1.5.5,1-2,1-1.5-.5-.5-2,1-.5h-1l-.5-5-2.5-.5v1.5l-1,1v-1h-1l-.5-2,1-1.5-2-1-1,.5-.5,1.5-1.5.5-4-1.5v1l-2.5,2h-2.5l-1.5-1.5-2,1-.5-1-.5.5-1.5-1-.5,1.5h-1.5l.5-1h-1v1h-.5l-1.5,1.5.5-3.5-1-.5v-2.5l-5.16-2.34.66-.66h1.5l-.5-2-2,1.5-2.5-.5-.5,2.5h-.5l-2.5-1,.5-1-.5-4.5,2.5-4.5v-3l3-.5v-1l1.5-1-2-1,1.5-3.5,1-1.5,1,1.5,1-1.5-.5-1-3.5-2.5"/>
      <path data-code="mijakinskij_rajon" data-title="mijakinskij rajon" class="cls-2" d="M20.62,182.62l1-.5,2,3,1-3.5,2-1v-1.5l2.5-2v-2l2-2.5v1.5l-.5,1,1.5.5.5,2,1.5-.5v-1l1,.5,2.5-2,1,1,3-1,6,3.5-.5.5,1,1.5,1-1,.5-1.5,1.5.5.5-1.5,1-.5v1.5l1,2-4,5,.5,1.5,2-1,.5,1,1-.5,1,2-1,.5.5,2.5,4,1.5-1.5,1.5-4.62,1.58-5.88,2.42-2,2h.5l-.5,1-2,1v1.5h-2l-1,1.5-2,1-1-1v-1l-.5,1-5.5.5-3-.5-1-1.5-2.5,1-.5-1-3-.5v-1l-2-1.5,1.5-3-1-1,.5-1.5,1-.5,4.5,2,1-1.5.5.5,1-1.5-.5-.5,1-3.5-4-1v-1l-1.5-.5-1.5,1-1-2,1.5-.5v-1.5l.5-.5-1-1"/>
      <path data-code="mishkinskij_rajon__bashkortostan_" data-title="mishkinskij_rajon_(bashkortostan)" class="cls-2" d="M113.62,71.62l.5-1,3,1v-1.5h2l2.5-2.5,1.5,2.5h2l.5-1.5-1.5-1,1.5-2,1,1.5v-2l2,2-1,1-2-.5,1.5,2,1.5-.5-.5,1.5.5,1.5.5-1,2,1,.5-.15v1.15l6-2,2.5,4.5.5-.5-1-2.5,1.5.5-.5.5.5.5h2l.5-1.5.5,1.5.5-1v-1l1.5.5,1-1.5,3,2.5-.5,1,.5.5-2,4-1.5,1.5-3,4.5,2.5,2h-.5l-3.5,6,.5,2-2,2.5-.5-2.5h-1v1l.5.5-1,2-3.5-2-1,2-3,2.5-1.5-1-.5,1-2.5-2.5,2-2.5-1.5-2.5.5-3.5-2.5.5,1.5-5-4-1-.5-2.5,1.5-1.5-5-1.5-.5-2-1.5-.5,1-1-.5-1-3-.5.5-1-1.5-.5.5-1"/>
      <path data-code="nurimanovskij_rajon" data-title="nurimanovskij rajon" class="cls-2" d="M132.12,124.06l2-1.5,2,.5-1-.5,1.5-.5.5-1.5,4.5-.5v-2l1,.5-1-1.5,1-1.5h1.5l-.5-4.5,1.5-2h1.5v1.5h1.5l1.5,1.5,2-1v-2l-1.5-1.5,2-1-1.5-2.5.5-1.5h-2.5l-.5-3.5,3-.5.5-3,1-1,1,2,4.5,1,5.5,4.5-.5.5,2.5,1-.5,1,.5,1,1-.5-.5-1h1l2,2,1-1.5,1,.5,1.5-1-.5-1,1.5-2,2.5-1-1,1,.5.5,1-.5v1.5l1.5.5-.5,1.5.5,3-3,4,2,3,3,1.5-2.5,5.5-3-.5-1,1-3,1.5-2-1.5-1.5,1,.5,2h-1v-1.5l-1,2,.5,2.5-2.5,1.5h-2l-2.5,1.5.5-2.5h-1.5l-1,1-1.5-2h-2.5l.5,2.5-4,2.5-4.5-1.5-2.5,2-2.5-2-.5,1-1-.5-.5,1.5h-1.5l-3-4.5-1-.5-1.5,1-.5-1,2-1.5-.5-2.5"/>
      <path data-code="salavatskij_rajon" data-title="salavatskij rajon" class="cls-2" d="M177.62,121.15l4-7.5,4.5,3.5.5-1,1,.5,2.5-4.5,2-.5,1,1.5h2v1.5l2.5,1-1.5,2v1l4,.5v1l1.5,2.5h.5v-1l5.5,2.5-.5,1.5h-1v2.5l-.5.5.5,1h1.5l.5-1,1.5.5v-.5l2-.5,3.5,1.5v3l-1,.5v1.5l-1,.5-1.5-1v-3l-4-.5-2,2,.5.5,1.5-.5-.5,1,1,2,2.5,1v2l-1.5.5v1.5l2.5-.5,1.5,1-2,3v1l3,1-2.5.5-.5,1,.5.5-.5.5,4,4-.5,1,2,5-5,2-.5,1.5-5-1-3-3.5h1.5l2-1.5-4.5.5-.5-1.5,1.5-2v-1.5l-1.5-.5,1-1-1-2,1-1,.5-1.5-3-3.5-2,1.5-3.5-.5.5,2-1,1,2,.5-1,1.5h-1.5l.5.5-1,1,.5.5h-3.5l1,1.5-1,.5,1,1-1.5,2-1.5-1-.5,1-3,.5-1.5-3.5,1.5-1.5h3l-.5-.5,3-4.5-1-2,.5-.5v-1l1.5-1.5-.5-1,2,.5,4-1,.5-1-2.5-3,.5-3-2-2.5-10.5-4.5-2.5-4h-2.5"/>
      <path data-code="sharanskij_rajon" data-title="sharanskij rajon" class="cls-2" d="M31.12,93.49l3-4.43,4-2.93-.5-.5.5-.5,7-.5,2.5,3,2-.5-.5,1.36h2l2-1.36,1.5,1.5-1,1.5,1,1,2,.86.5-.5v-1.86l3,1.36,2.5-.86-1.5,2.86,1.5,2-1,.5v1.5h1l-.5.5-2.5-.5,1,1-1,1,1,2-1-.5-3,1.5,1,2.5-4,1.5,2,1-1,1-1-1-1,1v.5l-1.5.64-.5,1.36-4-1-.5,1.5-4.5-2-1,.5,2.5-2-6-3.5-1,.5.5-2,1-.5-4.5-.5-1-1.5,2-1.5-3-3.5.5-.5-.5-1"/>
      <path data-code="sterlibashevskij_rajon" data-title="sterlibashevskij rajon" class="cls-2" d="M17.62,207.49l1.5-2.5,1-2.36,3,.5.5,1,2.5-1,1,1.5,3,.5,5.5-.5.5-1,.12,1.12.88.88,1.9-.95,1.1-1.55h2v-1.64l1.59-.66.91-1.21h-.5l2-2,5.88-2.42,1.12,3.29,2.5-1,2,1.5-1,1.5v1.5l-2,.5.5,3,2.5-.5,2,3-2.5.5.5,1.5-2.5,1.5v1h-2.5v1.5l2,2-.5,2h1.5l1-.5v-1.5h1.5l.5,1.5,2-.5.5,2.14-1.5,1.5h-1.5l-1,1.36-2-1.5-1,.5-1,2,.5,2-1,2h-1l-3,1.64-4-4,1.5-.14.5-.86-4.5-3.64-1.5-.36.4-.8-2.4.8,3.36-2.88.64-1.12-3.5-2.5.5-2.14-1,.5-3-1-1,.5v1.14l-7,2.5v-3.14l-2.5,1.5h-2l-5-1.5.5-.5,1-.5.5-1.5-2.5-1.5"/>
      <path data-code="sterlitamak" class="cls-2" d="M75.12,204.99l1.5-.5,1-2,4-1.5-.5.5.5.5-.5,1.5,1,1,.22.87-.71.77-2-.5v2.5l.5.36-1,1-1,.5-.5-1-3.5.5,1-2-1-1,1-1v-.5Z"/>
      <path data-code="sterlitamakskij_rajon" data-title="sterlitamakskij rajon" class="cls-2" d="M56.62,193.62l.5-.64,1-.86,3.5-4.5h-2l.5-1.14,2-.86,1,1,1-.5v1l1-1-.5-.64-2-5,5-3.36,4.5,6-1,1,.5.5-1.5,3,.5-.14-1,1-.5-.5-2.5,3.14,3.5.86.5-1.5,1,.14-1,1.5,1.5,1,1-.5,1,.5,1.5-1-1,1.5,1.5-.5-1,1,1,1.86,1-1.36,1,1,1-2.5,4.5-3.64.6,1.84.4-1.2,1.1.05,2.9,1.45,1.5-2,2,1v1l1.5-.5-.5,1.5.5.5-1,.36,1.5,2.5-1,.5v1l-1,1-1-1.5v1.5l-1-.5-1,1.5-.5-1.5-1,1.5-1-.5,1,1.5-.5,1,.5,1.5-.5.5.5.5-.5,1.5-1,1-1.5-.5,1-2-2-1-1,2,.5.5-.5,1-.5-2-1-1,.5-1.5-.5-.5.5-.5-4,1.5-1,2-1.5.5v.5l-1,1,1,1-1,2,3.5-.5.5,1,1-.5v1.64h-1l1,.5-1,.5,1,1h-1.5v1.36l-2-.5-1.5.5,1.5,2.5h-1l-.5,1.5-1-.5-1.5,3v-1h-2l1-2.5h-2l-.5,1.5h-1l-.5,1.14-3.5-.64-1,1-1-1-.5-2.5-2,.5-.5-1.5h-1.5v1.5l-1,.5h-1.5l.5-2-2-2v-1.5h2.5v-1l2.5-1.5-.5-1.5,2.5-.5-2-3-2.5.5-.5-3,2-.5v-1.5l1-1.5-2-1.5-2.5,1-1.12-3.29,4.62-1.58ZM79.12,209.49l1-1,.5,1-.5.5-1-.5"/>
      <path data-code="tatyshlinskij_rajon" data-title="tatyshlinskij rajon" class="cls-2" d="M133.62,27.99l1.5-2,4,1,3.5-2.5,6,1,1.5-1.5h2.5l1.5,3,1.5-.5,1-1.5,1,1-1,5.5,2,3.5-.5,3.5h3.5l1.5.5-.5,1-3,3.5.5,1h-1v1l-1.5,1-.5,1-.5-.5-2.5,1-1-.5-1.5.5v-2.5l-.5,1h-2l-1-1.5-1.5,1.5-.5-1.36h-5.15l-.85.36-7.5-1.5-1.5-2.5,3-4.5v-2l2-.5-.5-2.5-2-.5.5-2.5-.5-1"/>
      <path data-code="tujmazinskij_rajon" data-title="tujmazinskij rajon" class="cls-2" d="M10.62,117.99l1.5-.5v-2l.5-.5,1-.5v2l1.5.5,1.5-1v-1l4-.5.5-2.5,1.5-.5v-1.5l-4.5,1,1.5-2.5,1-.5-1-1,.5-1,5-1.5,1-2,2.5-1,2.5-6.5,3,3.5-2,1.5,1,1.5h4l.5.5-1,.5-.5,2,1-.5,6,3.5-2,1.5-.5.5,1-.5,4.5,2,.5-1.5,2.5-.5.5,1h-1.5l1,3h-.5l.5,1.5h1l-.5,1,1.5,2.5-3,.5,1,1.5-3.5,3.5v3l-3,2.5.5,1-.5,1,.5,1-6,2.5-.5-1.5v1.5l-1.5.5-1,1.5h-2.5l-2-1,1-2-1-1h1v-1.5l-2-1.5-1,1.5-1-1-1,1-3-.5v1.5l-2.5-1.5,2-1h-2l-1,1-1.5-3h-.5l-.5-.5,1.5-1.5-.5-1-1.5,1.5-.5-1-1.5,1-3.5-1-1-1.5,1.5-1.5-.5-2,1-.5-1-1.5"/>
      <path data-code="uchalinskij_rajon" data-title="uchalinskij rajon" class="cls-2" d="M203.12,199.12l1.5,2-1.5,1-1-2.5,1-.5ZM178.62,223.62l3-1,3.5-4.5,2.39-.96,2.11-2.54h3.5l2-3.5h2l2-1.5,2.5-.64,2-3.36,3.5-3.64v-1l-2.5-.5,1.88-1.74-.38-1.12,2-.14,1.5-1-1-3.5v-2l2.5-2,3-1,6,5.5,1.5-1.5.5-1,7-2,.5-1,4-2,2-3.5,3-1,1.5-2,1.5.5,4.5,6.5,1-.5v1.5l2.5-1.5,2.5,1.5-3,2-1.5,2,.5,1.5-3.5,3.5-4,5.5-6,2-4.5,3,2.5,3.5-1.5,3.5-4,3,2,2.5-.5,5.5-4,2-1.5,3.5-1.5-1-3.5-5-5.5-1-1.5-1.5-2.5,1.5-7.5,8.5-2.5,1.5-8-2.5-1,1.5h.5l.5,2.5-3,2.5-4-3.86-4.5-2,.5-1.14v-.86l-3.5-2.5,1-2,1.5-1.5Z"/>
      <path data-code="ufa" class="cls-1" d="M100.12,149.99l1-3,2-1.5,1.5,2-3,3-1.5-.5ZM101.62,136.49l.5-1,2.5-.5.5,1.5.5-1.5h.5l-1-1.5,2.5-2.5,2-.5,2.5.5,1.5,2,1.5-1,.5-1.5h1l-1-4.5,4-2.36-.5,1.5h1l1.5-.5.5.5v1l-1.5,2.36h1l-1.5.5,4.5,1.5-.5,3.5-1-1-.5,1.5-2.5,1.5,1,1-1,3-1-.5v-2h-1v2l1,1-3.5,1v1.5l.5.5-.5,1-3-.5,1,1.5-1,2.5-1.5.5-.5.14-.5-1.14-2,1.5-.5-4,1.5-1.5h-1l-.5-2-2,.5-1.5-1.5-.5-2-1.5-.5-.5-1.5"/>
      <path data-code="ufimskij_rajon" data-title="ufimskij rajon" class="cls-2" d="M120.12,128.99l1.5-.5h-1l1.5-2.36,4.5-1,2,1.5-.5,2,.99.99h-1.49s1,3.01,1,3.01l-2.5.5-1.79-.62.29-2.02-4.5-1.5M112.62,143.99l3,.5.5-1-.5-.5v-1.5l3.5-1-1-1v-2h1v2l1,.5,1-3-1-1,2.5-1.5.5-1.5,1.21-.48.79,1.62-.5,1.36.5.5-.5,3-1.5,1.5-3,.5,1,3.64h-3l-1,1v1l-1.5,1-2.56-.73.56-1.4-1-1.5M101.12,146.99l-1,3,1.5.5,3-3-1.5-2-2,1.5M92.12,116.49l3-.5.5-1h3l.5,1.5,2,.14,2,4,1.5-.5.5-1.14,5,3.5,1-2.86,4,1,2.5-.5-2.5,3.18v.32l2.22,1.35-1.72,1.02,1,4.5h-1l-.5,1.5-1.5,1-1.5-2h-4.5l-2.5,2.5,1,1.5-.5.5v1l-1-1.5-2.5.5-.5,1,.5,1.5,1.5.5.5,2,1.5,1.5,2-.5.5,2h1l-1.5,1.5.27,2.37-.77.77.5,1.5-1,1.5-1.94-2.7.44,2.2-5.5,3.86-.5-1.5h.5l-.5-1-.5.5-.5-2-2,1,1-1v-3l1.5-1h-3l-1.5.5-1.5-1,2.5-.5,1-4.5-2-2,.5-1.5,1.5-.5v-1.5l-2.5-1,1.5-1,1.5.5,1.5-2.5-.5-.5-2,1-4.5-1.5-1.5-4,2.5-1.5.5-2,1-1,2.5,2.5,4-5.5-.5-2-1,1.5h-1.5l-.5,1-3.5.5-1-3.5"/>
      <path data-code="zato_mezhgor_e" data-title="zato_mezhgor&amp;apos;e" class="cls-2" d="M150.12,207.49l2,.5,1.5-3-1-.5,1.5-2,2.5-1v-1.5l1-.5-.5-1.5h1.5l-.5-1.5,1-1,.5,2,4.5-2,.5,1h1l1,4.5-9.5,2.5.5,1.5-1,.5-1,2.5-1.5,1.5-1.5-.5-.5,1-2-2.5"/>
      <path data-code="zianchurinskij_rajon" data-title="zianchurinskij rajon" class="cls-2" d="M43.62,304.17l3-3,.5,1.5,1-1.5,2.5-.5v-.5l2-1h3v2.5l.5.5-.5,2,4.5.5,2-1.5,2.5-.5,1-3,3,.5,7-3.5,3,.5-1,1.5,1,.5-.5,2-2,4,3.5,2-2.5,5-3.5-1-1,2.5,1.5-.5.5,4-2,1.5v.5l3.5.5-.5,1.5,1.5,1.5-4,3.5,1,2-1,2,6.5,4.5-.5,1.5-1.5,1-.5,1.5,1.5,1-1-.5v1.5l-1,2.5-3.5,2.5v1.5h1.5l-.5,1.5,1.5,1.5-1.5,3.5-2.5,2-3.5.5v1.5h-3.5l-1.5.5-1-1v-6.5l-3.5-1.5,1.5-4-1-.5.5-1.5-1,.5-2.5-1-1.5-3.5h-.5l-.5,1.5,1,6-1.5,4.5h-3.5l-3-2,3.5-4v-1l.5-1,.5-3,1.5,1-.5-1.5,1-.5-4-7,2.5-4,4,1,.5-2.5h-1l-1-2,5-5.5-1-3.5-2,.5-.5,1-.5-1.5,2-.5,1-2-4-4.5-2.5.5-1-1.5,2.5-.5v-1.5l1.5.5v-.5h-1.5l-3,1.5h-1l-1,1.5-3-.5-2-2.5.5-1.5"/>
      <path data-code="zilairskij_rajon" data-title="zilairskij rajon" class="cls-2" d="M80.12,289.3h2l-1-2,1-1.5,3-1,1.5-2,.5,1,5.5,2,.5-1,1,.5,1.5-2-2.5-2,2.5-3.5,1-3h-1.5l3-6,1,.5.5-3,1.5.5-.5,1.5,1,.5-.5,2,5.5,2-1,3.5,1.5-.5,2.5,1,4-2,.5-1h5l3.5,4.5,2.5-1,1.5.5-.5,1-1.5-.5-2,2.5h3l-1,2.5-1-1-1.5,2.5-1-.5-1,1,2,1.5-1,1,2,1.5-1,2.5-4-2v.5l-1-.5.5-1.5h-1l-1.5,1.5-1.5.5-.5.5.5,1-3.5,5.5.5.5,1.5-1.5,3,2h-1v1l-4-1-1,2h-2.5l-2.5,3-.5-1-1,1.5-1.5-.5-1.5,2.5-.5,5,4,1.5h-.5l1.5,2,3-1,2,1.5-1.5,2,4,1,1-2h5l1.5,2-1,.5-.5,1.5,3,1.5,1.5-1-1,2.5-2,2.5v1.5l-.5,2-1.5-.5-1,1.5h-1l-.5.5-2-.5-2,1.5-1-.5-2.5,6-1-1-2,1.5-5-1.5-1,1,1,.5h-1l-.5,2-.5,1-5-2-.5,1.5-3-.5-.5-3,2-1v-1l-2-.5v1l-2,.5-2.5-1,1-2-.5-2.5-1-1-2,1,1,2.5-2,.5-1.5,1.5-5.5-4,1-2-1-2,4-3.5-1.5-1.5.5-1.5-3.5-.5v-.5l2-1.5-.5-4-1.5.5,1-2.5,3.5,1,2.5-5-3.5-2,1-2,1.5-4-1-.5,5-8-2.5-1.5"/>
    </g>
</svg>