<svg id="RU-CHE" xmlns="http://www.w3.org/2000/svg" viewBox="0 0 218 298.65">
      <path data-code="CHE-AGA" d="m23.75,199.9l2-5,1,.5,1-2.5h2l.5.5-.5,1.5,5,1.5v-1.5l1-.5,1,1.5,1.5-2,1,1,2-1.5.5-1-1,.5,1.5-2.5-1-1.5,1-.5h-.5v-1l-4.5-5,2-.5.5-2-3,2-1-3.5-2,1.5-.5,2h2l-.5,1.5-3-.5,2.5-5h1.5l-.5-1,1-1,4,.5,1-1.5h.5l1.5-3.5,1.5,1,1.5,2.5-1,1h1l-1,2.5,2,2h1v-1l1,.5-1,2.5h-1l.5,3,6.5,4.5-3.5,8,2,.5.5,1.5,2.5-1,1.5,6.5-.5,1,1.5,2.5-2.5,3-.5,2-2,1.5.5,1-4.5,2.5-8.5,1.5-3-4-3,1.5-2.5-1-.5.5-7-1-1.5-2h-1v-1.5l1,.5.5-1.5-2.5-2,4-10.5-1.5.5"/>
      <path data-code="CHE-ARG" d="m123.75,86.4l3-4,2.5-2,3-5,1.5-1,5.5-1.5,3-3.5,2,.5.5-1.5,2.5,1.5,1.5-3.5,4,4.5,1.5-.5,1.5-2.5,1,.5-.5,1.5,5-2.5,1-.5-1-1,1-.5v1.5l4.5,1.5.5,1.5,1-.5,1.5-2,1,.5,1.5.5-.5,3h-1l-.5,1h-1v3.5l2,1v2.5l-3.5,1.5v2l-.5.5,1,3h-1l-.5,2.5h-4l-1.5-1-3,1-1.5,2-3,1-5,6.5-3.5-2.5-.5,2.5,1,.5-1,2-1.5.5-2.5-2.5-2.5,2-3.5-4-1.5-1-2,.5-3-2.5-2.5-1v-1.5l-1.5-3.5,1-1-1.5-.5"/>
      <path data-code="CHE-ASH" d="m14.75,52.4l2-2.5,2,.5,3-1.5-1-3,1-2v1.5h1v-2l1-1,2,1.5,4.5-2.5,5,.5,3,4,8,3.5,4,3v3.5l2,3-.5,1-4,1.5-2-1,.5,1-1.5,2,.5.5-1,.5,1,2.5-3,4,.5,1h-1.5l-1.5-1.5-2.5.5-1.5,2-1.5.5-.5-2h-4l-2.5,2.5-4,7-4.5.5.5,4-3.5.5-1-1.5,2-1-7-9.5-.5-6-1-.5,7-5-1-2.5-1,.5,1-2h.5l-.5-1,.5-1v-4"/>
      <path data-code="CHE-BRE" d="m21.25,253.9l2.5-3.5,4,2,1.5-3,1.5-1.5.5-3,2,1,1.5-.5,3,3,2,4.5,7.5-3,3-4.5,2,1,2-1,8,2,2,4v1l2,1,1-3,1-.5,5,2.5v.5l-1,.5-.5,4h3.5l-.5,1,2.5,1-1,2.5,4,3.5-3,7,4.5,3-1.5,5.5,1,6-7,4-4.5,1-2.5-1-8,2-3.5-1-13.5,6.5-4-.5-5.5-3.5v-2.5l-2-1.5,1-1.5v-1.5l1,.5,3-4h4l2-2.5,1.5.5,3-2v-1.5l3-7.5-4-3.5-4.5-1.5-1.5-5.5-5.5,2.5h-2l.5-2-4.5-2-2.5,2v-2l-1.5-3,.5-2-1.5,1-1.5-1"/>
      <path data-code="CHE-CHB" d="m119.25,105.4l2.5-4h2l2,3.5,1.5.5-1,2.5h-2.5l-1.5.5-.5-1h-2l-.5-2"/>
      <path data-code="CHE-CHBM" d="m97.75,119.9l5.5-6.5v-1.5l2,3v-1l4-1,1-2,2-.5,5.5-1.5,1-.5v-1.5l1.5,1,1.5-.5.5,1,1.5-.5h2.5l1-2.5-1.5-.5-2-3.5-1,.5h-1l-.5-1,.5.5,1-1.5-.5-1h1.5l-1-3h1v-1.5l1.5-1.5.5.5-.5-.5,3,1,3,2.5,2-.5,1.5,1,6.5,6.5,1.5,4-1.5.5-1.5,4,1.5-.5v-1l1-.5,1.5.5-1,4-1,3.5,1.5,1h-1l-.5,1.5-5,2-3,2.5,2,2.5-3.5,1.5.5,2-1.5,2.5.5,2,3,1.5-.5,2-3.5,3.5-1.5-1-1.5,1.5-3.5-3.5-1,1-4-2,1.5-1.5-1-.5,1.5-1,.5-2.5-6-5,.5-1.5-1.5-.5-1,1.5-1.5-2-.5,1-5,1v-1l-3-2-.5-2-3,.5-2.5-2v-1"/>
      <path data-code="CHE-CHE" d="m152.25,111.4l2.5,1,1.5-2,3-1.5v-1.5l-1.5-.5,4-5.5-.5-1.5,1-1.5,2,2h1l.5-3,1.5,1,.5-1,1,.5v1h2.5l1,1-.5,2-3,1.5,2,1.5-.5,2.5.5,1.5-1.5.5-1.5,3h-1l.5,1.5-.5.5-7,3-1.5-2.5h.5v-3l-4.5,1.5-2-2"/>
      <path data-code="CHE-CHS" d="m120.75,181.4h2l-.5,1-1,.5-.5-1.5m-40-8l1.5-1.5,8,3.5v1l3.5,2,1.5-3h3.5l1-1.5,3,1-.5,1,2.5-.5-1,2.5,9.5,4,1,1.5.5-1,3.5,1v1l1.5,1.5,3,.5.5,4,1.5,1.5-1.5,3-2,.5-3,2.5-2.5-.5-3,4-1-.5.5-1.5-6-.5,1.5-3.5-1.5-.5-1.5.5.5,1.5h-1l-.5,1.5-6-2.5-1.5,3,1,1-1,1,.5.5-1,3-1.5-.5-1.5,3.5-3.5,6-3-1.5-2.5-1,1-3-2.5-2.5-1.5-3.5,1.5-4.5-.5-.5.5-.5.5-1.5-1-6.5-1.5-1v-3h.5v-1l1-2-1-.5v-2l1.5-3-1.5-2.5"/>
      <path data-code="CHE-EMA" d="m148.75,133.4l1.5-2,.5,1,1.5-2,1-.5,1.5,1h-.5l.5,1-1,1,.5,1-.5,1-2-.5.5,1-2.5,1.5-1-1.5.5-1v-.5l-.5-.5m-.5.5l.5-.5.5.5-.5.5-.5-.5m0,0h.5l-.5.5v-.5m-1.5,1.5h.5l-.5.5v-.5m1-6.5l1.5-.5v2.5l-1.5.5v-2.5m-1.5,8.5h.5v.5l-.5-.5m-3.5,4.5l1-1.5,1,.5.5-.5,1,1,.5-1.5.5,1-2,2-1,2.5-.5-.5.5-1.5h-1.5l1-1-1-.5"/>
      <path data-code="CHE-ETK" d="m148.25,133.9v.5l.5-.5h-.5m-1.5,1.5v.5l.5-.5h-.5m1.5-1.5l.5.5.5-.5-.5-.5-.5.5m-2,3.5l.5.5v-.5h-.5m1.5-8.5v2.5l1.5-.5v-2.5l-1.5.5m1,4.5l.5.5v.5l-.5,1,1,1.5,2.5-1.5-.5-1,2,.5.5-1-.5-1,1-1-.5-1h.5l-1.5-1-1,.5-1.5,2-.5-1-1.5,2m-15-8.5l3-2.5,5-2,.5-1.5,5,2-.5,2.5,1.5,1.85,2,.5-.5,2,2-1.85,1-.15,2.5-.85,2,1.5,2.5-1,1.5-1.5-.5,2.5,3-.5-.5-1.5,1.5-1,2-.5h3l8.5,4v1.5l1.5-.5v2l-1,2.5,1.5,1,.5,4.5-1,3-3.5,1-2,2.5,2.5,1-1.5,3,2.5,1.5-.5,2,1.5,3-4,1.35-1.5,3-2.5-2-2,.15.5-3.15-1-.5.5-2,1-.5-1-1-5.5.15.5,2.35-1,.65-3-1.15-1-3-4-4-1-2.85-4.5-1v-1.5l-2.5-1h-.5l-.5,2-2-.5.5-1-.5-.5,1-1.5-.5-3,1.5-1.5-.5-1-9.5,1.5,1,1.5,2,1-.5,1.5-4.5-.5-2.5-3.5,1.5-2.5-.5-2,3.5-1.5-2-2.5"/>
      <path data-code="CHE-YUZ" d="m130.75,154.4l1.5-2.5,5.5,1.5,1.5-2.5,1.5-1.5.5-1.5-.5-1v-1l2,3-1.5,2.5,2-1-.5,2h.5l-1.5.5.5,1.5-1,.5-.5,2-1-3-2.5-.5-1,1,.5.5v.5l-1-.5-1,2-.5-.5-.5,1-3-3"/>
      <path data-code="CHE-KRB" d="m125.75,60.4l3-3.5,1.5,1,1-1.5-.5-1,1-1.5,4.5,2.5-1,1.5-1-.5-1.5,2.5,8,5.5-1,2,2.5,2-3,3.5-5.5,1.5-1.5,1-3.5,5.5-.5-2.5,2-1v-1l1-1-4,2-2-5-3-3.5,5-7-1.5-1.5"/>
      <path data-code="CHE-KAR" d="m79.25,235.9l.5,1.5.5-1.5,2,.5.5-1.5h-1.5l-2,1m-27.5-18.5l2-1-.5-1,2-3,3,1.5,1.5-2.5h.5v-1l3.5,1.5,2.5-2,4.5,3.5,2-2.5,3,1.5,1,1h1.5l-.5-2,1-.5-1-4,2.5-3,3.5,2.5,1,1.5-1,3,5.5,2.5-2.5,4,6,2.5-.5,2.5-1.5.5v.5l3.5.5,1-1,1.5,2,1.5-1.5h.5v1l-1.5,1.5v1l1,1-1.5,1.5v3l1,3.5-1,3v7h-1.5v1.5l1,1.5-6.5,3.5h-3l-3,3.5-5-.5-1.5,4-2.5-1v-1.5l-3,.5.5-4,1-.5-1.5-1.5-3.5-1.5-1,.5-1,3-2-1v-1l-2-4-8-2-1.5-1-1-1.5.5-1-1.5-1,.5-5-2.5-2.5,4.5-4-1.5-4,2.5-1.5-1.5-2v-3l-1-1.5"/>
      <path data-code="CHE-KAS" d="m141.75,48.4l4.5-8.5,7,3.5,2-5,1,1,.5-1.5,5.5,4-1,1.5-1,.5v3.5l4.5-1.5,1-1-.5-2h-.5l1.5-3.5-1.5-5.5,1,2,1-.5-1.5-1.5.5-3,1-2-1-.5,1.5-1,2,1.5-.5,1,3,1,3,3.5.5-.5,1,1.5,1.5-.5,1.5,2,3.5-.5.5-5.5-1-3,.5-1.5,3-1,2.5,3.5,2,.5-.5,1.5,5.5-1,2,4.5h1l-.5,2,2.5-2,1.5,1,1.5,3-.5.5.5.5v3.5h1l-2.5,4-4.5,5.5h-1.5v2l-1.5.5.5.5-.5,1.5-1.5-.5v.5h-1.5l-1.5-2.5h-2v1l-2.5-1-5.5,1-2.5-2,1-2.5-3.5-3.5-1,1-.5,3.5-1.5,2.5h-1.5l-3,3v1.5h-1.5l-1.5,1.5-1.5,2-.5,4.5-1-1,1,1-2,1h-.5l1-1.5-1-.5v-3l-2-.5v-2l-1-.5h1l-4-4v-1l-2.5-1.5,1.5-2.5-4.5-2.5-1,2-3-2,.5-1,1.5,1,.5-1.5-2-1.5-2,3.5,1,.5-2-1"/>
      <path data-code="CHE-KAT" d="m18.75,81.4l4.5-.5,4-7,2.5-2.5h4l.5,2,1.5-.5,1.5-2,2.5-.5,1,1-2.5,1.5.5,2.5.5-.5.5,2h1.5v1l1.5,1v1.5l1,.5-.5,1,1,.5-.5,1.5,1,.5,3,.5,1-1.5,1.5,1,1-1,1.5-.5.5.5,1-1.5,1,1,.5-1,3,2,.5-1,3.5,2,.5-1.5v2l-2,5,.5,1.5-.5.5-2.5-2-2,2-1.5-1v-2l-3.5-2-3,.5-2.5,3.5,3,2,1-1,2.5,2,1-2,1,2,3,2,.5-.5,2-3,6.5,4.5-2.5,4.5-1.5-1-4,4,1,.5-.5,1.5,4,3.5,4-1-3.5,2h-9l-2,3.5-5-1-3-8-1.5-1-5.5,1-3.5-1.5-3,3-5.5,2.5-1-.5-2-3-1-5-2-2.5,1-2.5,1-1v-1.5l-3-4,.5-4.5-.5-4"/>
      <path data-code="CHE-KIZ" d="m4.75,232.9h1.5l.5-1.5h1l2.5-10.5,3-2.5,1.5-2.5,1.5.5,1.5-5.5,5.5,2.5h-1.5l3,3,7,1,.5-.5,2.5,1,3-1.5,3,4,9-1.5,2-1.5,1,1.5v3l1.5,2-2.5,1.5,1.5,4-4.5,4,2.5,2.5-.5,5,1.5,1-.5,1,1,1.5,1.5,1-2,1-2-1-.5.5-2.5,4-7.5,3-2-4.5-3-3-1.5.5-2-1-.5,3-1.5,1.5-1.5,3-4-2-2.5,3.5-3.5-1.5-1,2.5-1,.5-3.5,7.5-2.5,1-2-6-2-2,1-1.5v-1.5l1-1-3-3-1.5-.5-1,1.5-2-1.5,1-2.5-1-.5,2-3,2,1,1-3,.5-2-1.5-.5.5-1.5-1-.5,1-3"/>
      <path data-code="CHE-KOP" d="m157.75,120.9l1.5-1v-2l2.5-2,5-1.5.5-.5-.5-1.5h1l1.5-3,3-1,2.5.5,1.5-2.5.5,1,1.5-.5-1,2.5-3,1.5v1l-1,2.5,1,1.5-.5,1-4-.5-1.5,1,.5,1h-1l-1,4.5-2,.5-1.5,1,.5,1.5-3,.5.5-2.5,1-1h-4l-.5-2"/>
      <path data-code="CHE-KOR" d="m156.75,120.75v.5l-.5-.5h.5Zm-1-.5h.5l-1,1.5v-1l.5-.5Zm0,3.5v-1l2-1.85.5,2h4l-2.5,2.5-2.5,1-2-1.5-1.5,1,1-1.65v-1l1,.5Zm-4,1l-.05.45-.45-.45h.5Zm-4-1.35h1.5l-.5,1.85-1-.85v-1"/>
      <path data-code="CHE-KRA" d="m168.75,103.4l.5-.5h1.5l1-1,1-2.5,1,.5v-1l1-1,.5.5,1-3-2.5-2,1.5-4,2.5,1.5v1l1-2.5h.5l.5.5v2h4l1,2h1.5l.5-3,2.5-3.5,1-.5,3.5-9,10.5-9.5,10.5-.5,1.5,2.5-1.5,1-1-.5-1,2.5-.5-.5-.5,2,1,3,3-1,.5.5-1,1,1.5,1,1,3-1.5,2.5.5,2-1.5,1,1,2-.5,1-1,1h-.5l-1,2h-2l-.5,1,3,1,.5,3v3l-6.5-.5v2.5l-6.5-.5v-2l-3-2-2,2.5,1.5,4-.5,1-2-1.5-1.5,2.5-3.5-1-1.5,2.5,3,3.5v2l2,1-2,1.5v1.5h.5l-.5,3,1.5,1-1.5,1,.5,1h-2l-2.5,4.5-1-4h-3l-3.5-1.5v3.5l-2,1v-1.5l-8.5-4h-3l1-4.5h1l-.5-1,1.5-1,4,.5.5-1-1-1.5,1-2.5v-1l3-1.5,1-2.5-2-.5-1.5,2.5h-4l-.5-1.5.5-2.5-2-1.5"/>
      <path data-code="CHE-KUN" d="m162.75,62.4l3-3.5h1.5l.5-2,2.5-2.5h1.5l1.5-2.5.5-3.5,1-1,3.5,3.5-1,2.5,2.5,2,5.5-1,2.5,1v-1h2l1.5,2.5h1.5v-.5l1.5.5.5-1.5-.5-.5,1.5-.5v-2h1.5l8-10,1,1v2l-2,1.5,9,8-2,1,2.5,5.5-1,2-1,4.5-.5,1-7-.5-10.5,9.5-3.5,9-1,.5-2.5,3.5-.5,3h-1l-1.5-2h-4v-2l-1-.5v-2.5l2-4-1.5-1-1.5,1.5h-1l-.5-9-4,.5-3-1.5v-1l2.5-1,.5-3-2.5-1-1.5,2-1.5.5v-1.5l-4.5-1.5.5-4.5"/>
      <path data-code="CHE-KUS" d="m87.6,65.65l2-1,1.5,1.5v-1l2-2.5-1-2,2.5-1.5.5-1.5,3,1.5,3.5.5,1-1.5,1.5,1-.5,1.5,1,.5,2-1.5,3.5.5,1-2h2l1.5-2.5,3-1.5,2,1,1.5,4h2.5l3.5,3-6,9.5h-3l-2,3.5-2.5-.5-1.5,2.5-1.5-1.5-3,2-4.5-3-.5,2.5-2.5,2-7-3.5.5-2.5-5-3-1-4.5"/>
      <path data-code="CHE-KYS" d="m131.75,53.9l12-4.5-1-.5,2-3.5,2,1.5-.5,1.5-1.5-1-.5,1,3,2,1-2,4.5,2.5-1.5,2.5,2.5,1.5-1,4-2.5,4,1,2.5-.5,1.5v1l-2-1.5v1l-1.5,2.5-2.5-1.5-.5,1.5-2-.5-2.5-2,1-2-8-5.5,1.5-2.5,1,.5,1-1.5-4.5-2.5"/>
      <path data-code="CHE-LOK" d="m79.25,235.9l2-1h1.5l-.5,1.5-2-.5-.5,1.5-.5-1.5"/>
      <path data-code="CHE-MAG" d="m31.75,182.9l3,.5.5-1.5h-2l.5-2,2-1.5,1,3.5,3-2-.5,2-2,.5,4.5,5v1h.5l-1,.5,1,1.5-1.5,2.5,1-.5-.5,1-2,1.5-1-1-1.5,2-1-1.5-1,.5v1.5l-5-1.5.5-1.5-.5-.5h-2l4-10"/>
      <path data-code="CHE-MIA" d="m95.25,99.9l.5-1.15,10-7.5,1.5-3,5-3.5,3-3.5,2-1,1-3,3-2,3-4.05,1,1.2,2,5,4-2-1,1v1l-2,1,.5,2.5-2,1.5-3,4,1.5.5-1,1,1.5,3.5v1.5h-.5l-1.5,1.5v1.5h-1l1,3h-1.5l.5,1-1,1.5-.5-.5.5,1-2.5,3.5v1.5l-1.5,2-5.5,1.5-2,.5-1,2-4,1v1l-2-3,1-2,3.5-2-3-1.5-2.5,1.5v-1.5l-1,1-4.5-7-1.5-.5"/>
      <path data-code="CHE-NAG" d="m48.75,186.25l4.5-5.5,1,.5,2.5-2-3.5-3,2-2-.5-.5,4.5-4,1.5-.5.5-2,2-1v-1.5h1l.5-1.5,3,.5-1,3-1.5-.5-.5,2,4.5,6,6,2,1.5-3-.5-2.5.5-1.5,5.5,3-1.5,1.5,1.5,2-1.5,3v2l1,1-1,1.5v1l-.5.5v2.5l1.5,1.5,1,6.5-.5,1.5h-.5l.5,1-1.5,4.5,1.5,3.5-2.5-2-2,3.5,1,3.5-1,1v1.5l-5.5-2-2,2-4.5-3-2,2-3.5-2v1h-.5l-2,3-2-1v-1.5l2.5-2.5-1.5-3,.5-.5-2-7-2,1.5-1-2h-1.5l3.5-8-5.5-4"/>
      <path data-code="CHE-NYA" d="m109.25,7.75l5,2,.5-2,2.5-2-.5-5,.5,1,.5-1.5h2.5l1.5,2v1l4,2v-1l5,2h.5l-.5,1,5,2-4.5,4,3.5,3,4.5-1,3.5,3v1.5l-.5,2-4.5,7-4.5,5,.5,1-.5.5-.5,1-.5.5-1,2-2-.5-5,7.5,10.5,6.5-1.5,2-2-.5-1,2,1,.5-1,2-1.5-1-3.5,3.5-1.5-1.5h-2.5l-1.5-4.5-2-.5-3.5,1-6-2,1-3-2.5-1.5-.5,1.5-6,1,1-2,3.5-.5.5-3-1-.5,1-1.5-.5-.5,3-3.5-1-2-4.5-2,.5-2,2,1,2-1.5v-2.5l1.5-1,1.5-2-.5-1,1-2.5v-3l4.5.5v-1l2-1-.5-.5,1-1v-.5h.5l-.5-.5.5-2,.5.5.5-1-2-1-1,2-2.5-2-1,.5v-1l-3-3v-2.5"/>
      <path data-code="CHE-OKT" d="m174.75,156.25l4-1.5-2-2.5,1.5-3,3,.5-.5,1,4,1.5h2l.5-2,1-.5,5.5,1.5v1.5l-2.5,1,1,1-1,1.5,2.5,2,1-2,1,.5-.5,3,10.5-1.5,10,3.5v4l-1.5,2v2l1.5.5-1.5,2.5,1,.5-2.5.5-1,2.5-1-.5v1l-2-.5.5-1.5h-.5l-.5.5-1,1.5v1.5l1.5.5-1,2-1.5-.5-1,1.5.5,3.5-2.5-1,.5,2,3,1-.5,1.5,2,.5-.5.5-.5,3.5,2-1.5,1,1-1.5,4.5-7-2.5-1,2,.5.5-1,2-3.5.5-6-4-12-.5-1,1.5-1.5,6-2.5,3h-1l-2.5-3v-5.5l4-1-2.5-2-4.5-.5,1.5-4.5,2-.5,3-8.5-1.5-2,1.5-1.5v-1.5h-1l2-6-1-3h-2v-1.5l.5-1,1-4.5,1.5-3Z"/>
      <path data-code="CHE-OZE" d="m149.75,63.25l4-7,4,3.5-1,.5,1,.5v2l2,.5-.5,3,1,.5-.5,1.5-3.5,2v-1.5l-.5-.5-1.5,2.5-2,.5-1.5-4,.5-1.5-1.5-2.5"/>
      <path data-code="CHE-PLA" d="m103.25,151.75l4.5-1,2.5-2,2-3.5v-1.5l-1-1,1-1.5-.5-1.5,2-3.5h.5l-.5-1,1-1.5,3,1v3l2,.5-.5.5,4,1.5,1-.5,5.5,5.5-.5,1,3.5,4-4.5,8-3-2-1,1.5-1.5-1-1,1.5-1.5-1-1,2h-1.5l-.5,2-3,.5v-1.5h-1v1.5l-1.5,1-1-3-1.5-.5-2.5-4h-2l-1,2-1-2,1-3.5h-.5"/>
      <path data-code="CHE-SAT" d="m66.25,68.75l2.5-1.5,1,.5-1,1v1h1.5l-.5,1.5.5,1,2-1,2-3-2-2.5,2.5-3,6.5,4,.5-1v-.5l-3-1.5,1-2,4,2.5-1.5,3.5.5.5-.5.5,2-1.5h2.5l1-1,1,4,5,3v1l-3,1-.5,2h-2l-1.5,3,2,1.5-2.5,4,2.5,1-1,2.5.5.5-4.5,9-2.5,1.5-2,2.5-2.5,1.5-2,2-5,3-6.5,1-4-3,.5-1.5-.5-1,1-1,2.5-2.5,1.5,1,2.5-5-7-4,2-1-.5-2,2-4.5v-3l3,.5.5-1.5,5-2-2-5,.5-1-2.5-3-1.5-.5v-.5l.5-.5-.5-.5"/>
      <path data-code="CHE-SNE" d="m157.75,33.25l3.5-2,1-2-.5-2,3-6,3.5,2-3.5,5.5,1.5.5-.5,2-.5,2.5,1.5,2-1,.5-1-2,1.5,5-1.5,4,.5-.5.5,2.5-5.5,2.5-.5-3.5,1.5-.5.5-1.5-5-4.5-.5-1.5,1.5-3"/>
      <path data-code="CHE-SOS" d="m155.25,120.75v1l1-1.5h-.5l-.5.5m-7.5,3v.5l1,1,.5-2-1.5.5m3.5,1l.45.45.05-.45h-.5m5-4l.5.5v-.5h-.5m-18-20l2.5-1.5,2,2h1.5l1.5-2-1-.5.5-2.5,3.5,2.5,5-6.5,3-1.5,1.5-2,3-.5,1.5,1,4-.5v-2l1.5-.5-1.5-3,1-.5v-1.5l3.5-1.5v-3l-2-1v-2l3,1.5,4-.5.5,8.5,1,.5,1.5-1.5,1,1-1.5,3.5-1,5.5v-1l-2.5-2-2,4,3,2v1.5l-1,1.5h-1l-.5,1v1l-1-1-.5,1-1-1.5-2.5.5v-1.5l-1-.5-.5,1-1.5-.5-1,2.5-.5.5-2-2-1,1v2l-3.5,5,1.5,1v1l-3,2-1.5,2-2.5-1.5,2,2,4.5-1v2.5h-1l2,3-.5,2-3.5,3v1l-1-.5v1l-1,2-1-.5-1.5,1,.5-.5-2,1.5.5-2-2-.5-1.5-2,.5-2.5-4.5-1v-1.5h-1l2-7.5-1.5-.5-1,.5-.5,1h-1l1.5-3.5,1.5-.5-2-4-2.5-3"/>
      <path data-code="CHE-TRE" d="m46.25,91.75l2.5-3.5,3-1,3.5,2.5v2l1.5,1,2-2,2,2-2.5,3.5h-1l-3-2-.5-1.5-1,1.5-2.5-1.5-1,1-3-2"/>
      <path data-code="CHE-TRO" d="m137.25,178.75h4l2-2h1l4,1-1,1.5,1,.5h-2.5l1,1-.5,1-2.5,1.5,1.5,1.5v1h-1.5l-2.5,3-1.5-.5,1-2.5-.5-.5h.5l.5-.5-1,.5-2-2,1-4-2-.5"/>
      <path data-code="CHE-TROI" d="m94.75,163.75l3.5-4,.5.5,1-1,3-.5,1.5-3,1-1,2,.5,1.5,2-.5,1,1,1h1.5l1,3.5,1.5-1v-1.5h1v1.5l3-.5.5-2h1.5l1-2,1.5,1,1-1.5,1.5,1,1-1.5,3,2,2.5-3.5,4,3.5-.5,1,1,1-2,2.5,2,2,1.5-.5,2,1,4-6h.5v2h1v2.5l2,1,2.5-2,1.5-3h3.5l-.5,3.5h-2.5l-1.5,3.5,2,.5,2.5-3,.5.5v1.5l2,.5-2.5,2,.5,1,4.5.5-1,3.5,2,1,2-1.5v-3.5h2.5v-1.5l-1-1,2,1v-1l8.5-1,1,3-2,6h1v1.5l-1.5,1.5,1.5,2-3,8.5-2,.5-1.5,4.5-4.5-1.5-3-2.5h-2.5l-1,6-6.5-3,2.5-3-1.5-.5.5-1.5-3.5,2.5-1-1.5.5-2.5h-2.5l.5-1.5-1.5-1.5,2.5-1.5.5-1-1-1h2.5l-1-.5,1-1.5h-2l.5-.5-3.5-.5-2,2-8.5-.5-3,1.5.5,3-1,1-.5,3h-3l-.5-2.5,1-1.5-3-1.5-3.5.5-1.5,1.5-3.5-.5-.5,1-1-1.5-9.5-4,1-2.5-2.5.5.5-1-3-1.5-1,2-4-.5,1-2.5v-1l1-3.5-1-1v-3l-1-.5"/>
      <path data-code="CHE-UJS" d="m85.25,127.75l4.5-3,6-2,2-3v1.5l2.5,2,3-.5.5,2,3,2v1l4.5-1,1-1,1.5,2,1-1.5h1.5l-1,2,6.5,5-1,2-1,1.5,1,.5-1,1-2-.5v-3l-3-1-1,1.5.5,1h-.5l-2,3.5.5,1.5-1,1.5,1,1v1.5l-2,3.5-2.5,2-4.5,1h.5l-1,3.5,1,2-1,1.5-3,.5-1,1-.5-.5-1,1.5-1,1-4.5-2.5.5-1-1-1-3-1.5-4.5-1.5v1l-1.5-.5-.5,1-1,1-1.5-2.5h-2l2.5-4-1-1,.5-1,4.5-3,.5-5.5-2-2.5,4-3,1.5-3.5-2.5-3.5"/>
      <path data-code="CHE-UST-KAT" d="m41.25,76.75l1.5-.5.5-1,1,1,2-2-1.5-1,1.5-.5-1-1.5h4l-1-.5,1-1-.5-.5h1.5l1-1.5-2-.5,1-1-.5-2,3-.5.5,1,2.5-1,2.5,3-.5,1.5-1,1,1,2-1,1,1.5.5v1.5l-1.5,2,.5,1.5,4.5-.5-2,1.5h-1.5l3,3.5h2v1.5l-1,1.5-3-2.5-.5,1.5-3-2.5-.5,1-1-.5-1,1.5-.5-1-2,.5-.5,1-1.5-1-1,1.5h-3l-1-1,.5-1-1-.5.5-1-1.5-.5.5-1.5-1.5-1.5v-1"/>
      <path data-code="CHE-UVE" d="m127.75,142.75l1-1,2,1,3.5-4,.5-1.5,3,.5.5-1.5-1.5-1-1-2,9.5-1v1l-1,1v5.5l-1.5,2.5,1,.5-1,1,1.5-.5-.5,2h1v-2l2-2-.5-1v1.5l-.5-1v-1.5h1l2,.5.5,1.5,4.5,1,1,3,4,4,1,3,3,1,1-.5-.5-2.5h5.5l1,1-1,.5-.5,2,1,.5-.5,3h2l2.5,2-1,4.5-.5,1v1.5l-6.5,1v1l-2-1,1,1v1.5h-2.5v3.5l-2,1.5-2-1,1-3.5-4.5-.5-.5-1,2.5-2-2-.5v-1.5l-.5-.5-2.5,3-2-.5,1.5-3.5h2.5l.5-3.5h-3.5l-1.5,3-2.5,2-2-1v-2.5h-1v-2h-.5l-4,6-2-1-1.5.5-2-1.5,2-3-1-1,.5-1-1-.5.5-1.5.5,1,1-2,.5.5.5-1h-.5l1-1.5,2.5,1,1,3,.5-2,1-1-.5-1,1.5-.5-.5-.5.5-1.5-2,.5,1.5-2.5-2-2.5.5,1.5-.5,2-1.5,1.5-1.5,2-4.5-1h-.5l-.5-.5.5-1.5-1-1.5-2.5-2.5.5-1-2-2.5"/>
      <path data-code="CHE-VAR" d="m86.75,217.25l6-9.5,1.5-4,1,1,1.5-3-.5-1,1-.5-1-1,1.5-3,6,2.5.5-1.5,1-.5-.5-1.5,3,.5-1.5,3.5,2-.5-1,3,8,3.5-.5,2,2.5,2.5,5,2.5,2.5-2.5,5.5,3-1,3.5.5,1.5-1.5.5v1l-1.5-1-1,2-5-1-1.5-4.5.5-.5-4,1-2,3.5-3,1-.5,3.5.5.5-1.5,3,.5,1,6,3,4,6.5,4,.5,1-1.5,1.5-.5,1.5,2-.5,2.5,1,2.5,4,4.5,3.5,1.5,2.5,2.5v4l-2.5,5-4.5,1-2.5-1-3-4.5h-1l-4.5-1.5-3.5,1.5-1-4.5-3-3.5-4,2-2.5-1.5-1.5-3-7,2-1-1-.5-7,1.5-3-1-4v-3l1.5-1-1-1v-1l1.5-1.5v-1l-.5-.5-1.5,2-2-2.5-.5,1h-3.5v-.5l1.5-1v-2l-5.5-3"/>
      <path data-code="CHE-VRU" d="m124.25,45.75l5-7.5,1.5.5,1-.5.5-1.5.5-.5.5-1,.5-.5-.5-1,4.25-4.7,3.75-5.8,1.5-3.5,5.5,2.5,2.5,2.5,2-1.5,6,3,1.5-.5,1.5,1.5.5,2-1,2-3.5,2-1.5,3,.5,2-.5,1-1-.5-2.5,5-6.5-3.5-5,8,2.5,1.5-3.5,2-5.5,1-10.5-7"/>
      <path data-code="CHE-VER" d="m30.75,176.25l2-3.5,4-1,1-2,1-5,2.5-2,1.5-5,3-2-.5-2.5h-.5l1-1,1.5-1,1,2,2.5-.5,1.5,1.5h1.5l2.5-1.5,7.5-8.5,2.5-1.5,1.5,1.5,5.5,1,3.5,5,3,.5-2.5,4h2l1.5,2.5,1-1,.5-1,1.5.5v-1l7.5,3,1,1-.5,1,4.5,2.5-1.5,1.5,1,.5v3l1,.5v1l-1,3v2l-2,5-4-2,.5-1-13.5-6.5-.5,1.5.5,2.5-1.5,3-6-2-4.5-6,.5-2,1.5.5,1-3-3-.5-.5,1.5h-1v1.5l-2,1-.5,2-1.5.5-6,6.5,3.5,3-2.5,2-1-.5-4.5,5.5-1.5-.5.5-.5-.5-2.5,1-.5,1-2-1.5-.5.5,1h-1l-2.5-2,1.5-2.5-1-.5,1-.5-1.5-3-1.5-.5-1.5,3.5-.5-.5-1,1.5-4-.5-1,1,.5,1.5-5-2"/>
      <path data-code="CHE-ZLA" d="m69.75,109.25l5-3,2-2,2.5-1.5,2-2.5,2.5-1.5,4.5-9-.5-.5,1-2.5-2.5-1,2.5-4-2-1.5,1.5-3h2l.5-2,3-1-.5,1,3.5,1.5v1.5l2.5-.5.5,1.5,2.5-2,1-2.5,4.5,3,2.5-2,2,1.5,1-2.5h3l1.9-3.1h3l1.5-2.35,1.65,1.95-3,4.05-3,2-1,3-2,1-3,3.5-5,3.5-1.5,3-10,7.5-2,3.5-3,1-2,3.5-4,2-.5,1-7,2-.5,1-1.5,1.5-5.55-5.05"/>
</svg>