<svg id="RU-CE" xmlns="http://www.w3.org/2000/svg" viewBox="0 0 102.39 106">
      <path data-code="CE-ACH" d="m16.64,56.9l2-2-1-.5,1.4-1.1,2.6-4.55,2-.5,1,1,2-1-.5-4.5,1-.5,1-3,1,.5,2-1.5,2,1.65-2.5,1.5,6,5.5-.5,2-.5-.5-.5,3-2,3-4.5,2-2-1-2,1-.5,2h1l.5,2.5-3,2.85-.5,3,2,3.65,2.5-.15-3.5,3,.5,2-1.5.5v.65l-3.5.5v-2l-3.5-2-1.5,1-4.5-5,4.5-2.5,1-1.5-1-1.5,1-1.5-.5-1,2.5-4.5v-.5"/>
      <path data-code="CE-ARG" d="m52.64,58.25l2,1-1,2.5-2.5.5.5-1.5-2-.35,3-2.15Z"/>
      <path data-code="CE-GRO" d="m38.64,42.9l4,2.5h2l-.5,1.5,1.5,1.5,1-2,3,2.5v1.5l-1-.5-.5,1,2.5,1.5-1,1.5-.5-1.5-1,1,.5,1-1,.5.5,2.5-2,.5-.5,2-3.5-2-2,1-1-1.5-.5-2.5,2-.5,1-2.5v.5l1-2-4.5-6.5.5-1Z"/>
      <path data-code="CE-GROM" d="m30.14,28.75l2.5,2.5,4,1,4,7,5.9-5.45.1,1.45,1.5-.5,3,2,6.5,8,1,3.5,1.5,2.15-.5,1,1.5,6-1.5-1.5v2.5l-1.5-.5-2-1-1,1-2.5.35-3,2.15v1.5l-6,2.85-4.5,4-2.5,3v2.5l-.5-1-2,1.5,3.5-5.35-.5-.5.5-1.5-1-.5,5-7-1.5-1,2-1,3.5,2,.5-2,2-.5-.5-2.5,1-.5-.5-1,1-1,.5,1.5,1-1.5-2.5-1.5.5-1,1,.5v-1.5l-3-2.5-1,2-1.5-1.5.5-1.5h-2l-4-2.5-.5,1,4.5,6.5-1,2v-.5l-1,2.5-2,.5-.5-1-1,1.5-1-.5-2.5,1.5-.5-1,2-3,.5-3,.5.5.5-2-6-5.5,2.5-1.5-5.5-4.5.35-5.15h.65l.5-2.5h1Z"/>
      <path data-code="CE-GUD" d="m59.64,51.4l.5-1,1,.5v2.5l1.5,1.5h1.5l1-1,2,.85,1,2,2.5,1.5-.5,1.5h3v1l1.5.5,1-2.35,1.5,1-1,.5-1.5,3-1,4.5,1,2v2l-5,5.6-2.8-.45,1.3-2.15-4-6.5-4-2-1-1.5,1-.5-1-.5.5-1-5-2.5,3.5-2.5,1.5.5v-2.5l1.5,1.5-1.5-6"/>
      <path data-code="CE-ITU" d="m.14,75.4l3-1.5,5-1.5.5-1-1-1,1.5-.5,4.5,5,1.5-1,3.5,2v2l3.5-.5,1.5,3.85,4,1-.5,3,4.5,4.5-2.5,3.5-3-.85-.5,1.5-.5-.5-5,1-6.5-1.5-2,3h-1.5l-2.5-3-3.5.5-.5-1,1-2.5-1-2.5.5-1-1-.5v-8.5l-3-2"/>
      <path data-code="CE-KUR" d="m53.64,63.9l6-1-.5,1,1,.5-1,.5,1,1.5,4,2,4,6.5-1.3,2.15-1.7-.3-1,2-3.5-2-1.5,2h-2l-.35,1.5h-2.65l.5-3.35-1-2,3-3.5v-1.5l-3-4.5v-1.5"/>
      <path data-code="CE-NAD" d="m25.14,11.25h1.5l-1,1.5,1,1.5,1.5-1,2,1,2.5-1.5,1.5.5,1.35,1.65-.35,1.85.5.5,1-1,3,2.5-.5,2-1,.5,2,4.5,1.5-.5,4.5,2.5.4,6.05-5.9,5.45-4-7-4-1-2.5-2.5h-1l-.5,2.5h-.65l.3-3.9-3.15-3.6-3-1-.5-1.5v-3l3.5-7"/>
      <path data-code="CE-NAU" d="m41.14,4.25l3-4,5.5,3.5-3,4.5,9.5,6,5-8,3,2,6,7-1,7.5-1,1.5,2,1.5-5.5,8.5-5.5,3.5-.5,5-1,2-6.5-8-3-2-1.5.5-.5-7.5-4.5-2.5-1.5.5-2-4.5,1-.5.5-2-3-2.5-1,1-.5-.5.5-2.5,6-9.5-.5-.5"/>
      <path data-code="CE-NOZ" d="m59.14,78.75l1.5-2,3.5,2,1-2,6,1v1.5l-3.5,1,.5,2.5-.5,2.5,2.5,1.5-.5,3-1.5-.5-.5.5h.5l.5,1-2.5-.5v3l-1,1.5.5,2.5h-5v.5l-1.5,1-3-.5,1-1.5-.5-5-1.5-1.5,2-4-1.5-1,1.5-6.5h2Z"/>
      <path data-code="CE-SHAL" d="m36.64,71.75l2.5-3,4.5-4,6-2.85v-1.5l2,.35-.5,1.5,2.5-.5-.5-.5,1.5-2-2-1,2.5-.35,1-1,2,1-3.5,2.5,5,2.5-6,1v1.5l3,4.5v1.5l-3,3.5-1.5,2.85-2.5-2-1.5,2.5-3.5-2-1,1.5-2.5-2.5-2,1-1.5-1.5-1-3"/>
      <path data-code="CE-SHA" d="m13.64,92.9l6.5,1.5,5-1,.5.5.5-1.5,3,.85.5,1.5,5.65.7-1.65,2.3,2.5,2-1.5,2v2l-4,1-1-2.5-1.5.5-1,2-1.5.5-3.5.5-5-.5-.5-3-3-1.5.5-3.5-2.7-1.2,2.2-3.15Z"/>
      <path data-code="CE-SHAT" d="m23.14,74.25l3.5-3,1.5-2.5,1.5,2,1-1.5,2,.5-2,3h1.5l-.5,2h2.5l2-1.5.5,1v-2.5l1,3,1.5,1.5-1,2.5-1.5,1v3l1.5-.5,2,5.5,1,.5,1-1v.5l-1.5,4-2.5,1.5.5,1.5-1,1-8-1-.5-1.5,2.5-3.5-4.5-4.5.5-3-4-1-1.5-3.85v-.65l1.5-.5-.5-2"/>
      <path data-code="CE-SHE" d="m69.64,16.25l3,1.5,1-1,2.5,1.5v2l7,5.5-2.5,2.5-2-1.5-.5,5,1,1,2-2.5,5,3,2-.5,2.5-4,4,2.5,1-4.5,4.5,3-2,3v2l-2.5,3,2,.5-.5,1.5,4,1.5.5,2-.5,1,1,1-1,2-2,1-3-1-3.5,2-4,1.5-1,2-3,1v1.5l-1.5,2.5h-1l-1,1.5h-1.5v1l-4-1-1,2-1.5-.5v-1h-3l.5-1.5-2.5-1.5-1-2-2-.85-1,1h-1.5l-1.5-1.5v-2.5l-1-.5-1.5-2.15-1-3.5,1-2,.5-5,5.5-3.5,5.5-8.5-2-1.5,1-1.5.5-6.5"/>
      <path data-code="CE-SER" d="m27.13,29.01l1.01.24.87,6.4,2.13,3.6-2,1.5-1-.5-1,3-1,.5.5,4.5-2,1-1-1-2,.5-.7.71-1.32-1.95,3.03-8.26,1,.5,1.5-1,1.47-2.74,1.48-.44-.46-4.16-1.03-.9.52-1.49Z"/>
      <path data-code="CE-URU" d="m26.64,56.4l2,1,4.5-2,.5,1,2.5-1.5,1,.5,1-1.5.5,1,.5,2.5,1,1.5,1.5,1-5,7,1,.5-.5,1.5.5.5-3.5,5.35h-2.5l.5-2h-1.5l2-3-2-.5-1,1.5-1.5-2-1.5,2.5-2.5.15-1.5-1.65-.5-2,.5-3,3-3-.5-2h-1.5l1-2.35,2-1Z"/>
      <path data-code="CE-VED" d="m36.64,79.75l1.5-1,1-2.5,2-1,2.5,2.5,1-1.5,3.5,2,1.5-2.5,2.5,2,1.5-2.85,1,2v2.35l-.5,1h2.65l-1.15,5,1.5,1-2,4,1.5,1.5-1.5,2.5-1,1-.5-2-2,1v-2.5l-1.5-.5-5.5,3.5,1,1.5-1,4-4.5-1.5-.5,1.5-1,.5-5-2.5v-.5l1.65-2.3,2.35.3,1-1-.5-1.5,2.5-1.5,1.5-4v-.5l-1,1-1-.5-2-5.5-1.5.5v-3"/>
</svg>