<svg data-code="RU-BU" xmlns="http://www.w3.org/2000/svg" viewBox="0 0 672.25 568.61">
    <g data-code="burjatija">
      <path data-code="barguzinskij_rajon" data-title="barguzinskij rajon" class="cls-1" d="M359.13,331.62l6.5-32,2-6.5,17.5-43,1.5-7,19,19.5h2.5l3.5,3,6.5.5.5.5.5-.5,3.5,1,2-3.5,3.5,1,7.5-.5,5.5-3,14.5-11.5,2.5-.5,1.5,2,1,3.5,1,1.5.5,3h6l2,4,4.5-1,1,3-3.5,2.5,1.5,3.5,1.5,1v3.5l1,4-3.5,3-4.5,2-4,7.5-1.5,5.5v9l-.5,4.5-19,7-4-1.5,1.5-3,.5-4-1-2-5.5,2.5-4.5,6-6-4-2.5-.5-3,1-5.5,4.5-6.5,12-6,2.5-3,4.5-4.5,2-3,3-10,.5-3.5-2-3.5-3.5-14-4.5"/>
      <path data-code="bauntovskij_rajon" data-title="bauntovskij rajon" class="cls-1" d="M453.13,325.12v-2l1.5-1,10-7.5-.5-2-2-1.5.5-4.5v-9l1.5-5.5,4-7.5,4.5-2,3.5-3-1-4v-3.5l-1.5-1-1.5-3.5,3.5-2.5-1-3,2-6v-4l-4.5-9,.5-3.5,4.5-3.5v-3.5l3-5-1-6.5,4-5.5,2-10v-3l-1-2-4-3.5v-2.5l-2-4,3.5-4,1-8.5,5.5-5.5v-2.5l-3.5-2.5-.5-1.5,1.5-1.5-.5-1h3l7-8,5-4,4,3,4,.5,4,4,4.5-2.5,1.5-3.5,4-4v-4l-1-6,.5-2-1.5-3.5,25.5-6,12.5,2,7-16,13.5-5.5,24.5-3,13.5-3,1.5,3-.5,1.5.5,3,3,1-.5,3.5,2,1.5-1,3,1,3,3.5,3-1.5,2.5,2,2,2,1,3-2.5,1.5,2.5,9.5-5,1,2.5,1,.5.5,1,1.5-.5-.5,1.5,1,1.5v2l1,1,5,2.5,1.5,2h2l2.5,1.5.5-1,.5.5,2.5,3v1l2,1-.5,3.5,2.5-.5-.5,1.5,2,.5-1,2.5,1.5,2.5,1.5.5,1,2.5-1,1.5,1.5.5-2,2.5v2.5h1l1,2h-1.5l-.5,2.5-2,1.5,1,2-.5,1,1.5.5v1.5l-2.5,2,1.5,1v1l-1.5,1-.5,1.5-1.5-.5-1.5,1-2-.5v2.5l1,1-.5.5-1,.5-.5-2-1.5,1.5-1.5-1.5h-2l-1,1.5-2-1-.5,1.5h-2.5l-.5-1-2,3-3.5.5-1,2.5-2-1-3,1.5-1.5,2h-1.5l-1.5,1.5-3.5,1.5-.5,2.5-3,2,1,2.5v1.5l-3,3-2,.5-.5,3-2,1-.5,2-2.5,1,1,2.5-.5,2.5-4.5,4.5,1.5,2.5-1.5.5v2.5l-3.5,2.5v1.5l-4,1-.5,2-5.5,2,.5,2-1.5,2.5v3l-2-.5-1,1.5-2-.5-.5,1v2.5l-1.5,1.5-2,1-1-.5-1,1.5-1.5-1-1.5,2-4.5,1.5-1,2,1.5,1v3h-1.5l-1-6.5-1.5-1-2-1-5.5,1.5-8.5,7-.5,6-1,1.5-4-2-1-3-1.5-1.5-1.5,2-1.5,7-2,1h-2l-2-3.5-4-4-1-4.5-2-1-1,.5-2,2.5-1,4.5-1.5,2.5-12.5,10.5-4,9.5-4.5,1.5-4,3.5-2.5,5.5-1,1-1.5-1.5-2.5.5-1,1.5,1,2.5-1,2h-3l-3.5,2.5-1.5-1.5-3,.5-3,4-3.5.5-15.5,13-8,1-2.5-1-.5-2.5"/>
      <path data-code="bichurskij_rajon" data-title="bichurskij rajon" class="cls-1" d="M333.63,522.12l2.5-5,1.5-11,2-4.5h3l10,7,2-2,1-4,4-3.5,8.5-3,4,1,2.5-1.5,1.5-4.5,2-1.5,3.5,1.5,8-3,3-.5-.5,4,1,2.5v3.5h-2l-4.5,4.5h-1.5l1,1.5v1l5.5,5.5,2-1.5,4.5,3,2.5-1,1,1.5h2.5l2.5,3.5,3.5.5,2.5-1.5,1,1.5-1,2v2l-1.5,1-3.5-1-2.5,2-1.5-.5-1,3-1.5.5-.5,2-6-.5-1,2-.5,1.5,1,.5-1.5,1.5-.5,2.5-4.5-2.5-1.5,2v2.5l-1.5,2-2.5,2-4,1-5.5,4-3-1.5h-8l-2.5-3-3.5-.5-4,2-3.5-1-.5-3.5-2-1.5-1,2,.5,4.5-.5.5-1.5-.5-3-8-5-8-1.5-5"/>
      <path data-code="dzhdata-codeinskij_rajon" data-title="dzhdata-codeinskij rajon" class="cls-1" d="M222.63,530.12l4-3.5,9-.5,3.5-2.5,2-4,.5-4-2-7.5,2.5-4,12-9.5,2-6,2.5-3,9-1.5,2,5.5,4,6,.5,2.5-.5,5.5,1.5,2.5,3.5,1,.5,2,8,2,3.5,3.5h2l.5-1.5-1.5-3,.5-1.5,6.5,8.5,2,7,2-1,1-7.5,1.5-1,2,2.5,4,.5,1.5,3.5-.5,2.5-3,5,.5,2,1,1.5-3,6.5-3.5-.5-3.5.5-2.5-1.5-8.5,2-4-2-3.5,1.5-3.5-2-3.5,1-.5,2.5-4.5,3.5-5,1-4-1-4,5-1.5.5-3.5-1.5-.5,2-4,2.5h-6l-1.5-7.5-4.5-9.5-6-3-3.5-.5-2,1-1.5-2.5"/>
      <path data-code="eravninskij_rajon" data-title="eravninskij rajon" class="cls-1" d="M459.63,398.62v-6l1.5-6.5,2.5-1,1-3,2-.5.5-2-2.5-5.5-1.5-6v-6l4-2.5.5-1.5-1-4,.5-3,2.5-1.5-.5-1.5-4-4-.5-4,1.5-6.5v-3.5l-2-2.5,15.5-13,3.5-.5,3-4,3-.5,1.5,1.5,3.5-2.5h3l1-2-1-2.5,1-1.5,2.5-.5,1.5,1.5,1-1,2.5-5.5,4-3.5,4.5-1.5,4-9.5,12.5-10.5,1.5-2.5,1-4.5,2-2.5,1-.5,2,1,1,4.5,4,4,2,3.5h2l2-1,1.5-7,1.5-2,1.5,1.5,1,3,4,2,1-1.5.5-6,2.5-3,6-4,5.5-1.5,2,1,1.5,1,.5,6.5-1-.5v2.5h-2l-1.5,3,2.5.5,2,1.5.5,3-1,2v2l1,1-.5,1.5,1,1.5,1.5,2,3,.5v1l1,.5-1,3,2.5,2.5,3-1v2.5l3,1.5,1.5-1,2,.5.5,2-1.5,3,.5,2.5.5-1,2,1,1.5-2,1.5,1.5h3.5l-.5,1.5-2,.5,1,1-.5,1,1,2v1l-1.5,1-.5,4v2.5l2,2.5-1,1-2,6v1l-2,3,.5,1-2.5.5-1.5,3h-2.5l-1.5,2.5h-2l-.5,2.5-1.5-.5-.5,2.5-2.5,2.5.5,1.5-1.5,4.5-2.5-2.5-1.5,1.5-13,4v1.5h-1l-.5,2.5-2.5,2.5h-1.5l-1.5,3.5-2-1-2.5,2.5h-2.5l-2.5-1-1,1-2-1-2,1.5-1,3.5.5,3.5-4,4-3.5-2.5-3,1-1.5-.5v-1.5l-2-2-.5,1v1h-2.5l-2,5.5-2.5,1.5.5,2.5-1.5,2,.5,1.5-2.5,1-.5,2h-5l-1-1.5-1.5,2h-3l-.5-1.5-2-.5-1,3h-5.5l-2.5-1.5-2.5.5-3.5,4-2.5-.5-1.5-3.5h-2l-5,7-5,4.5-7.5,1.5-4,4.5-3.5-7"/>
      <path data-code="gorod_ulan-udeh" data-title="gorod ulan-udeh" class="cls-1" d="M349.28,434.22l3-1.5-.5-.5,2.5-2-1.5-2.5.5-1.5,1.5.5.5,1.5,3.5-1,5,.5-.5,3,.5,2.5-3,2.5-6.5,1,.5-4-1-1,.5,1-.5,3h-3.5l-1-1.5"/>
      <path data-code="ivolginskij_rajon" data-title="ivolginskij rajon" class="cls-1" d="M307.63,459.12l3.5-8.5,2.5-4.5,5.5-.5,3-2,4.5-5,2-4.5,6.5-1,1.5-4.5h3l1.5-1.5,3.5-.5,2-5.5,1.5-1.5,1.5-1,2.5,1.5,2,6.5-1-.5-.5,1.5,1.5,2.5-2.5,2,.5.5-3,1.5,1,1.5h3.5l.5-3-.5-.5.5-.5v5h1v1.5l-4.5,3.5-1,7v3.5l-2.5,3-4,1-6,9-7,7-2.5-1v-3.5l4-4-.5-3.5-2-1.5-2-1-5,3-4.5-2.5-10,1"/>
      <path data-code="kabanskij_rajon" data-title="kabanskij rajon" class="cls-1" d="M236.63,498.12l.5-10,6-5.5,1.5-2.5-.5-1.5v-3.5l-1.5-.5v-3l-3-11.5,25-10.5,13-9.5,7.5-11.5,11-26.5,29-29,8.5-10,8,9v4l1,6.5-.5,4,1,3.5.5,2.5-2.5,2.5-15,2.5-1,4.5,1,7.5-.5,6.5,1.5,3.5,8.5,5.5,1,3.5-1.5,4.5-6.5,1-2,4.5-4.5,5-3,2-5.5.5-2.5,4.5-3.5,8.5-4,1.5-1,2-.5,6.5-.5,1-2-.5-3.5-3-1.5-1-2.5,1-2.5,2-2,5-4.5,2-5,6.5-19.5,3.5-2.5,3-2,6-12,9.5-2.5,4-1-6.5-2-3.5"/>
      <path data-code="khorinskij_rajon" data-title="khorinskij rajon" class="cls-1" d="M384.13,389.62l1-3,5.5-6,1-5.5,2.5-3.5v-3.5l2-2.5,1.5-6.5,8-3.5,6-8,6-2.5,3,1.5,2-2.5,2.5,1,3-2.5,2-3.5h5l2.5-4,16-7.5,2.5,1,8-1,2,2.5v3.5l-1.5,6.5.5,4,4,4,.5,1.5-2.5,1.5-.5,3,1,4-.5,1.5-4,2.5v6l1.5,6,2.5,5.5-.5,2-2,.5-1,3-2.5,1-1.5,6.5v6l3.5,7-1.5,3-3.5,1-5.5-1.5-4.5.5-5-6-3-1.5-3,.5-4.5,5.5-4.5,11.5-4,3.5h-2.5l-2.5,3.5-2.5,1.5-1.5-.5-2.5,2-8.5-1.5-5.5-3.5-.5-4-2-2-1-2.5,2.5-3v-2.5l-.5-3.5,1-1.5h2.5l.5-2-1-3-6.5-2-4.5-6.5-5-1.5"/>
      <path data-code="kizhinginskij_rajon" data-title="kizhinginskij rajon" class="cls-1" d="M418.13,445.12l4-1.5,4-4,1.5-4,1-5-3.5-5,7.5-18.5,4.5-5.5,3-.5,3,1.5,5,6,4.5-.5,5.5,1.5,3.5-1,3.5-6,2-1.5,7.5-1.5,5-4.5,5-7h2l1.5,3.5,2.5.5,3.5-4,2.5-.5,2.5,1.5h5.5l1-3,2,.5.5,1.5h3l1.5-2,1,1.5,5,.5-1,1-1,5-1,.5,1,1-4,2-.5,2-2.5,1.5-1.5,3.5h-4.5l-2,1.5v2l-3.5,1.5h-2l-5,3.5,1,1.5v2.5l-3,1.5-2,3-1,1v1.5l1,.5,1,1.5-1,2.5-2.5.5-.5,3-1.5.5v2l-7,2-1.5-1h-2.5l-2-1.5v-2.5l-1,1-3.5-1.5-4,1.5-2-1-1,1-3-1.5-2.5,1-1,2.5-4,3-1,2.5-2.5,1.5-4,4.5-7.5,2.5-1,2.5v1l1.5,1-.5,1-3.5-2.5-1.5,1.5-2,1-5-4v-2l-2.5-3"/>
      <path data-code="kjakhtinskij_rajon" data-title="kjakhtinskij rajon" class="cls-1" d="M307.63,538.62l3-6.5-1-1.5-.5-2,1-2.5,2-2.5,2,1.5,3.5-2.5,2.5-3,3-9.5,2-2,12.5-2-1.5,11-2.5,5,1.5,5,5,8,3,8,1.5.5.5-.5-.5-4.5,1-2,2,1.5.5,3.5,3.5,1,4-2,3.5.5,2.5,3h8l3,1.5,5.5-4,4-1,2.5-2,1,1.5-2,3-1.5-.5-1.5,3.5-2.5,1,.5,3,3,3,.5,2-1,1.5,1,1.5-1,1.5-1.5-.5-2.5,2-4.5-1-6.5,1.5-3-2-3.5,2-3-2-.5-1.5h-2l-1.5-1-3.5-6-.5-3-9.5-6-12-2-.5,2h-3.5l-6,2.5-3.5-2-4,.5-2-4.5"/>
      <path data-code="kurumkanskij_rajon" data-title="kurumkanskij rajon" class="cls-1" d="M422.63,267.12l.5-1.5-.5-2.5,1.5-.5,1-3-.5-2.5,1-2-.5-1,.5-2-1.5-2.5.5-1-1-1v-1l-1-1v-1l-1-2.5,1-4-.5-1,4-3v-2.5l6-4.5,3-3.5-1-.5.5-2-.5-3.5-1.5-.5.5-1.5-3.5-.5,1.5-2v-2l-.5-.5,3.5-4.5,1-4.5,2-3.5,1.5-5v-11.5l2.5-4,.5-4,4.5-2.5,2.5-4,1-4.5,2.5-2,1.5-9.5,2.5-2h2l2.5,6h7l6,2.5,3.5,4h2.5l3.5-2.5,1.5,1,1,4.5-1.5,1.5.5,1.5,3.5,2.5v2.5l-5.5,5.5-1,8.5-3.5,4,2,4v2.5l4,3.5,1,2-2,13-4,5.5,1,6.5-3,5v3.5l-4.5,3.5-.5,3.5,4.5,9v4l-2,6-4.5,1-2-4h-6l-.5-3-1-1.5-1-3.5-1.5-2-2.5.5-14.5,11.5-5.5,3-7.5.5-3.5-1-2,3.5"/>
      <path data-code="mujskij_rajon" data-title="mujskij rajon" class="cls-1" d="M498.63,115.12l1-10-3-3.5v-5l4.5-2-.5-3.5,10-4,1.5-4.5,3-.5,3-6.5,3.5-2,4.5-9,3.5-3-.5-.5,2,.5,1,1.5-.5,1,1.5,1v1l2,1,2-2h1l1.5-2-1.5-.5.5-1.5,3.5-1.5-1-.5,1.5-6,3,1,1.5-1.5h4l2,2,2.5-2.5-1-2,4.5,1,1-2,3.5-1,1,1v-1.5h1l-1-1.5,1-.5.5-2.5-1-4,1-3.5,1.5-1-1-2.5,2-2.5v-2l2.5-1.5-1-1.5-3-1.5,2-2-1-1.5.5-2,5-.5,1-1.5,1.5,1h2.5l6.5-2.5,2-2.5,2,.5,1.5-3,1-1,.5-1-1-1.5,2-1,.5-2.5,3,.5,1-1.5,2,1.5,2-2h3l1,1,.5,2,3.5,2.5v1.5l-1,1-3.5,1-1,4.5-4,2-5.5,5-1,3.5-2.5,2.5v1l-.5,1.5.5,3.5,2,3.5-.5,1.5.5,2.5-5,5,1,4.5,4.5.5,5-1,.5,1.5v2l1,2,5,3v2l-2.5-1-1.5,1.5,1.5,5-.5.5.5,2,5,8h2l1,1-.5,1.5-2,.5,1,2,1,1-1,2.5,1.5,1.5.5,3,5.5,3v4l-1.5,1,1.5,5-13.5,3-24.5,3-13.5,5.5-7,16-12.5-2-25.5,6-1.5-5.5-8-8-6.5-2.5h-4.5l-1-2.5"/>
      <path data-code="mukhorshibirskij_rajon" data-title="mukhorshibirskij rajon" class="cls-1" d="M339.13,498.62l3.5-4v-2.5l.5-1-1-4,8-4.5,1-1.5-1-3,5.5-4.5,4-7,2,.5.5,3,1.5,1.5,3-1v-2l1-2.5,2.5,1,1.5-1v-5l1.5-2,.5,1.5,2,1,4-6,7-4,2-.5,2.5,1,5.5,4-1,1,.5,6.5-2.5,1.5-.5,3,.5.5,1.5-.5,2,2,4,1.5,1,2.5-2.5,6-6,.5.5,4.5-1,.5-.5,2-6,1-5,2.5-3.5-1.5-2,1.5-1.5,4.5-2.5,1.5-4-1-8.5,3-4,3.5-1,4-2,2-10-7h-3l-.5-3"/>
      <path data-code="okinskij_rajon" data-title="okinskij rajon" class="cls-1" d="M.62,421.99l2.5-2,1.5-4,2-.5.5-2h1l-2-1.5.5-1-.5-2.5,3-1.5v-2l1.5.5,1-2v-2l1-1-1.5-3.5.5-1.5-1-1-3,.5,1-1-1-1.5,1-2,1-1-.5-1.5,1.5-2.5h1.5l7,4h3.5l-.5-3.5,2-1-2-2,.5-2,3-.5,2-3-.5-1.5.5-.5-1-1,.5-1.5,3-1.5,3.5,1,2.5-2.5,4.5-1,2.5-4,2,.5,1-2.5-1-3,1-1.5-.5-1.5h3.5l1-1.5,4.5,2,1-3.5,3.5-2h1.5l1.5,1.5v2.5l5.5,5-1,.5.5,1.5h-1l1,1.5-3,2,1.5.5-.5,1.5,1.5,1.5-.5.5,4.5,3,1,2,1-.5,1.5,3.5,1,.5.5,2,1,1,7.5,4.5,4,5.5h4l2.5,2,.5-1,2,3,3,.5,3.5,4,5,.5,2,2.5.5,2.5,3,1.5,2.5,3,3.5,1,.5,4.5h1l2.5,2.5,7.5,3-2,2.5,1.5,4.5h5l1-1-.5-2,3-2h1l.5,1h2.5l2,2,3.5-3,2,2.5,5,.5.5,4,2,3.5,2,1.5.5,2,3,2,1,2,2.5,1v4.5l-5,2.5h-3.5l-6-5-3.5-.5-7.5,2-10.5,8-9.5,2-7.5,3-1.5-.5-4,2-4,1-4.5-1.5-4,2-9,1-2,1.5-2.5-1-.5,3-2.5,1-.5-2-2,1-.5-1-3,1.5-1-1.5-8.5,1-1.5-1-5.5,2-2.5-1.5-3.5-.5-5.5-9.5-11-1-1-1.5h-3.5l-.5,1-3.5-2,.5-1-.5-1,.5-2-1.5,1-3-1.5-1.5,1-2-3h-2l-2.5-5.5.5-1.5-3.5-2.5-2,1.5-1-.5.5-3-.5-1v-1.5h-1.5l-3-1-2.5,2v-3.5l1-3-1-2.5-1-.5v-1.5"/>
      <path data-code="pribajkal_skij_rajon" data-title="pribajkal&amp;apos;skij_rajon" class="cls-1" d="M326.12,416.49l.5-6.5-1-8,1-4,15-2.5,2-3v-2l-1-3.5.5-4.5-1-6v-4l-8-9.5,25.5-31,13.5,4,4,4,3,1.5,6.5.5,4-.5,3-3,4.5-2,3-5,5.5-2,7-12,8.5-5.5,2.5.5,6,4,4.5-6,5-2.5,1.5,2-.5,4-1.5,3,4,1.5,19-7,2,1.5v1.5l-1,2-10,7,.5,4.5-16,7-3,4-4.5.5-2.5,3.5-2.5,2-2.5-.5-2,2.5-3-2-6,2.5-6,8.5-8,3.5-2,6.5-2,2.5.5,3-2.5,4-1,5-5.5,6.5-1.5,6-4.5,6-.5,5.5-7,3-2.5,5.5-7,4.5-3,3.5v3l-2,2-3,.5-2.5-6.5-2-1-3,2.5-2,5.5h-3.5l-2,2-2.5-.5-1.5-3-8-5.5-1.5-3.5"/>
      <path data-code="selenginskij_rajon" data-title="selenginskij rajon" class="cls-1" d="M267.62,483.99l11-2,5-6,4.5-2,2-5,2.5-2,2-1,2,.5,3.5,3.5,1.5.5,1-1.5v-6l1.5-2.5,12-2,6.5,2,5-2.5,4,2.5.5,3-4,4.5v3l2.5,1,4-2.5,1.5.5v3.5l-3.5,4v2l1,2.5,2.5.5,6.5,5,1,4-1,1,.5,2.5-3.5,4,.5,3-2,4.5-12.5,1.5-2,2.5-3,9-2.5,3.5-3.5,2-2-1,.5-3-1.5-3-4-.5-2-3-1.5,1-1,8-2.5,1-1.5-7.5-6.5-8-.5,1.5,1.5,3-.5,1-2,.5-3.5-4-8-2-.5-1.5-3.5-1-1.5-3,.5-5-.5-3-4-6-2.5-5.5"/>
      <path data-code="severo-bajkal_skij_rajon" data-title="severo-bajkal&amp;apos;skij_rajon" class="cls-2" d="M379.62,162.49l5-2v-4l2-2-5.5.5-.5,1.5.5.5.5,2-.5.5v2l-1.5,1M366.62,238.49l2.5-3.5.5-2v-1.5l-.5.5v-1.5l2.5-1.5-.5-4.5-1-1,.5-2.5-1-2.5.5-3-1-1.5,1.5-4-3-3-1-2.5.5-1-1-2,2-3-1-2,2-3-1-1.5.5-1-.5-2-3-1-.5-2-2-1,.5-1-1-2.5.5-.5-.5-3-2.5-1.5,1-2-.5-2.5,2.5-1-1-3-1-1.5.5-1-.5-1.5,3.5-1-.5-5.5.5-1-1.5-3.5v-1.5l.5-1.5.5-2-.5-1.5.5-1.5,2-1,2-5,1,.5v1.5l2-2,1,1.5,4-.5,2-1.5-.5-1,1-1.5-1.5-2v-2l-1.5,2.5-1,.5-3-2-2,2-2-.5-1.5-2v-2l-2.5-1.5-.5-1,1-2-2.5-2.5v-1h-1l-1-2.5-2-1-1,1-1.5-1-2,1v-1l-2.5-2.5-.5-1.5-1.5-.5v-1.5h1l.5-1.5-.5-1,.5-1.5,1.5-1.5v-2.5l2-4-.5-1.5-2.5-1.5,1-2,2.5.5,4-2,.5.5,1.5-2v-1.5l1.5-1.5h.5v1.5l2,.5.5-4,1.5-1,4,1,2.5-1.5,1-3,2-2.5,2.5.5,2-1,3,2.5,5-1.5,1-3.5,2.5-3.5-1-1-.5-1.5-.5-.5.5-2v-1.5l1-2.5h1.5v-3.5l3-.5.5-1.5,4.5,3,2.5-1.5h3.5l1.5,1v1.5l3.5-.5.5.5v2.5l3.5,1.5,2-1,1.5-3.5,2-.5,2,.5,1.5,2.5,4.5-3.5,4.5,3.5,2.5-1,1.5-1.5.5-4,3.5-.5.5-3-1.5-2,1-2v-3l2-2-.5-1,1-.5v-2l1.5-2,3,1.5v3.5l1.5,2.5,2.5.5,3,2,2,3.5,1.5-.5,1-3,5.5-.5,1.5-1,6,5.5,4-1.5,2.5.5,2-1.5v-2.5l1.5-1,1.5-3,3.5-1.5,2,1v5l-1,1,1.5,1.5,1,3,1,.5-.5,1,3,1.5.5,1h2.5l.5,2.5,7-1,1,1.5,2.5,1,2.5-2,5,1h.5v-1.5h1.5l1-1,.5-2.5,1,1h3l1.5,1.5,4.5,1-3,3-4.5,8.5-3.5,2.5-3,6.5-3,.5-1.5,4.5-10,4v3.5l-4,2v5l3,3-1,10.5,1,2.5,4.5-.5,6.5,3,8,7.5,3,9.5-1,2,1.5,5.5v4.5l-4.5,4-1.5,3.5-4,2-4-3.5-4-1-4-2.5-5.5,3.5-6.5,8.5-3-.5-.5-3.5-1.5-1-3.5,2.5-2.5.5-4-4.5-5.5-2h-7l-2.5-6-2-.5-2.5,2.5-1.5,9-2.5,2-1,5-2.5,4-4.5,2.5-.5,3.5-2.5,4.5v11.5l-1.5,4.5-2,4-1,4.5-3.5,4.5.5.5v1.5l-1.5,2.5,3.5.5-.5,1,1.5,1,.5,3.5-.5,2,.5.5-2.5,3-6,5v2.5l-4,3,.5,1-1,4,1,2.5-.5,1,1.5.5v1l1,1-.5,1.5,1.5,2-.5,2.5.5.5-1.5,2.5,1,2-1,3.5-1.5.5.5,2.5-.5,1.5-3.5-1.5-.5,1-1-1h-6l-3.5-3.5h-2.5l-19-19-17.5-6-3,1"/>
      <path data-code="severobajkal_sk" data-title="severobajkal&amp;apos;sk" class="cls-1" d="M379.62,162.49l1.5-1v-2l.5-.5-.5-2-.5-.5.5-1.5,5.5-.5-2,2v4l-5,2"/>
      <path data-code="tarbagatajskij_rajon" data-title="tarbagatajskij rajon" class="cls-1" d="M332.62,479.49v-2l3.5-4v-3.5l-1.5-.5,9-13,4-1,2-3v-4l1.5-6.5,4-3.5.5-1.5,5-1,4.5-3.5,4,1,1.5,2,.5,3.5-.5,2,2,3.5-1.5,7,1.5,3.5,7.5,1-4,6-2-1-1-1.5-1,2-.5,4.5-1,1.5-2.5-1-1.5,2.5.5,1.5-3,1-1.5-1.5-.5-2.5-2-.5-4,7-5.5,4,1,3.5-1,1.5-8,4.5-6.5-5-2.5-.5-1-2.5"/>
      <path data-code="tunkinskij_rajon" data-title="tunkinskij rajon" class="cls-1" d="M82.62,465.99l.5-2.5,2.5,1,2-1.5,9-1,4-2,4.5,1.5,8-3,1.5.5,7.5-3,9.5-2,10.5-8,7.5-2,3.5.5,4.5,4,5,1,5-2.5v-5l4,5h6l2,2-1.5,1,4.5,1.5,2,1.5-.5,1,.5,1.5-1,1,.5,1.5-1,1,1,2.5,1.5,1.5-1.5,3.5,2,2-.5,2.5h1l.5,3,3,1,1.5,3.5h1l.5-2.5,2,1,5.5-3,9,3,2.5,21-3.5,3.5-2-.5-2-6-3.5-2-.5-1-2-1-3,1.5-4.5-1h-1.5l-.5,3,1.5,8-.5,3-2,2.5-1.5-1.5-.5-4.5-1.5-2-1.5-.5-2,1.5-4-.5-5,1.5-2.5,5-2-.5-2,1-2-.5-.5-2,.5-2-1.5-.5-1.5,1.5-3.5-1.5-5.5,1.5-1.5-1-5.5.5v-2l1-1.5-2.5-4v-2.5l3-1-3-4.5-3-1.5-3.5-.5-1.5-1.5-1.5,1-3-.5-1-1.5-1.5-1-6,1,.5-2h-2.5l-1.5-1.5-2.5,1-1,2.5h-3v-1.5l-5-4.5-2,2-2.5-.5-1.5-4-.5,1.5h-3v-1.5l-1.5-1.5-4.5,1-.5-3-5-2-2.5-2-.5.5-.5-2"/>
      <path data-code="zaigraevskij_rajon" data-title="zaigraevskij rajon" class="cls-1" d="M354.62,426.49l3-.5,2-2v-3l3-3.5,7-4.5,2.5-5.5,7-3,.5-5.5,4.5-6,.5-3.5,5,2,4.5,6,6.5,2.5,1,3-.5,1.5-2.5.5-1,1,.5,4v2.5l-2.5,2.5,1,2.5,2,2,.5,4.5,5.5,3,8.5,2,2.5-2,1.5.5,5-5.5h2l4.5-3-3,7,3,4.5-.5,5-1.5,4.5-4,4-4.5,1v3l-5,4-2.5-1.5-2.5,2-4-4h-2l-1,1,1,2.5-.5,3-2,1-1.5-1-1,1-8-5-9,5-7.5-1-1.5-3.5,1.5-7-2-3.5.5-2-.5-3.5-1.5-2h-5l-1-3,1-2.5-5-1-3.5,1-1-1.5"/>
      <path data-code="zakamenskij_rajon" data-title="zakamenskij rajon" class="cls-1" d="M144.62,503.99l5.5-1,1.5,1,5.5-1.5,3.5,1.5,1.5-1.5,1.5.5-.5,2,.5,2,2,.5,2-1,2,.5,2.5-5,5-1.5,4,.5,2-1.5,1.5.5,1.5,2,.5,4.5,1.5,1.5,2-2.5.5-3-1.5-8,.5-3,6,1,3-1.5,2,1,.5,1,3.5,2,2,6,2,.5,5-4.5,3-1,2-2.5v-1.5l.5-1h1.5l1,1,2-1.5,1.5-1.5-1-1.5,2.5-1.5,6.5-.5,5-3.5,3,2,2.5-1-6,5.5-.5,10,2,3.5,3,14-1,4-1.5,4-3.5,2.5-9,.5-4.5,3.5,2,2,2-.5,3,.5,6,3,5,9.5,1,4,.5,3.5-1,1-.5,2.5-3,3-.5,2-5,4.5h-5l-3-2h-4.5l-1.5,2.5-2-.5-1,2.5-4-.5-2-2-5-2-7,2-1-.5v-2.5l-1-1,1-2.5-3.5-3-2,1.5-9,1-7.5-4-.5-2-3.5.5-1.5-2.5-1-4-3-2.5v-3l-3.5-1.5-1-2.5h-2l-.5-1-3.5-1.5,1.5-2.5-.5-1-2.5-3.5-2.5-2-.5-3.5,1-2-1.5-4,1-1.5-2-4-2-2,.5-1.5-1.5-1-.5-2"/>
    </g>
</svg>