<svg id="RU-CU" xmlns="http://www.w3.org/2000/svg" viewBox="0 0 103.5 109.85">
      <path data-code="CU-ALAM" d="m7.25,80.25l1.5,1.5-1.5.5,1,1,1.5-.5.5,1.5,1.5-.5,1-3h2l-3.5-1-1.5,1-1.5-1-1,.5m-3-13l7-.5,1,1,2-2.15v.5l1-1,17.1,9.4-4.1,6.25,5,2-6,10,1,.5-.5.5-5,2.5-3,3-3-1-3,1.5v-1.5l-3,1-.5-1,1-3.5-4.5-1.5-2.5-7.5.5-.5-2.5-3,2,.5-1-1.5.5-2.5,1.5-1.5v-.5l.5-.5-1-4,.5-1-1-1,1-2.5-1-.5"/>
      <path data-code="CU-ALI" d="m41.75,21.75l3,.5,2,2,2.5-1,2,3,2-1.5,5.5,3-1,1-1.5-.5-2,1.5,2,2.5-1.5,3.5.5,1-2,.5-1.5-1-2.5,1.5-1.5-.5-.5-2.5-3,.5-.5-1.15-7.3-2.55.3-1.35,2.5-3,.5-2.5-2-.5.5-1,3.5-1.45Z"/>
      <path data-code="CU-BAT" d="m32.35,74.45l4.9,3.25v-1l3,1,2,1.5,2.5.5-.5.5,2,1.5,2-1,1-1,1,1,1.5-1-.5,1.5,5,2.5,1.5,3.5,3,1-3.5,6.5,1,1.5-1,1-1-.5-1.5,1-7-5-1-2-1,.5-1.5-2v1.5l-1-1-1,.5-.5,2.5-10.55-6.55,2.05-3.45-5-2,4.1-6.25Z"/>
      <path data-code="CU-CHEM" d="m59.75,20.25l1.5-.5v-1l1-1v-1l1.5.5v-2.5l.5-.5,1-.5.5-2.5h1.5l-.5-1,1.5-1.5-1-.5,3.5-3.5v-.5l2.3-.25,5.7.75,1.5-2,3,2,.5-1,4.5,2.5-4,6,1.5,1-1.5,2.5-5.5-5.5-6-2.5,2,4.5-1.5,1.5-2.5-1-.5,1,2,.5-1,1.5.5.5h-1l3.5,2.5,1,2.5.5-1h4l-2-.5.5-1,1.5.5.5-1,1.5,1,1.5,2.5h-1.5v1h1.5l-1,1v1h-.5l1,1.5,2-1-.5-2,2-.5-2.5-3.5,1-1,1.5.5-.5,1,3,2.5h-2l-2.5,5.5-.5-1-.5,2-1.5.5,1,1.5-1,1.5-.5-1.5h-4l-7.5-4-1.5.5-.5,1.5-1.3.4-.7-1.4-2,1.5v-1l-2,1-2-4-1.5-.5.5-2.5,2.5-1.5-1.5-.5"/>
      <path data-code="CU-TSI" d="m67.75,28.75l.5-1.5,1.5-.5,7.5,4h4l1.5,3-.5.5.5,2.5,2,1-2,2.5,2,2.5-1,1.5h-.5l-.1,1-1.4.5-2-1-1,1.5h-2l-3.5,2-1-.5-3,1-1-1,.5-1.5-1-1-1,.5-1-2-2.9.5.4-1.5,2-1.5,1,1,2.5-2-.5-4h-2l.5-1.5-2-2.5,2-2.5-.3-.6,1.3-.4Z"/>
      <path data-code="CU-ALA" d="m7.25,80.25l1-.5,1.5,1,1.5-1,3.5,1h-2l-1,3-1.5.5-.5-1.5-1.5.5-1-1,1.5-.5-1.5-1.5"/>
      <path data-code="CU-CHE" d="m78.75,10.25l5.5,5.5-1,1.5,1.5,1-1,1-1-1v1h-1l-1.5-1-.5,1-1.5-.5-.4.85,1.9.65h-4l-.5,1-1-2.5-3.5-2.5h1l-.5-.5,1-1.5-2-.5.5-1,2.5,1,1.5-1.5-2-4.5,6,2.5Z"/>
      <path data-code="CU-KAN" d="m61.25,57.75l2-1,2,.5v-.5l.5,1.5-1.5.5h.5v.5h-1.5l-2-1.5"/>
      <path data-code="CU-NCH" d="m82.75,19.25v-1l1,1,1-1-1,1,2.5,3.5-2,.5.5,2-2,1-1-1.5h.5v-1l1-1h-1.5v-1h1.5l-1.5-2.5h1Z"/>
      <path data-code="CU-SHU" d="m29.25,38.1l.5,1-.5,1-1.5.5-1-3,2.5.5Z"/>
      <path data-code="CU-IBR" d="m33.75,52.6l8,4.5,2.5-.5,1,.5,1.5-1,.5,2h1l-.5-.5,1-1.5,1,2.65-.5.5,1,1,2.5-.5.5,1-.5.5,1.5.5,1.5,3-2.5,1-2.5,3h-1l1.5,1-.5,1.5-4,.5v-1l-3,1.5.5,1-.5,1,1,.5-1,.5-1.5,1.5-1-.5-1,1.5-3-1v1l-12.4-7.35,2.9-4.65-1-.5,4-8.65,1.5-3.5,1.5-.5Z"/>
      <path data-code="CU-YAD" d="m30.25,10.25l4,.5-.5-1.5h-1l1.5-1-.5-3,4-1.5,3-2h9l-1-.5,1.5-1,.5,2,2.5.5,2,4-1.5,1-2.5.5v.5h1.5l-.5.5.5.5h-1.5l.5.5h-1l-.5,1.5h-1.5l-.5,1.5-2.5.5v2l-.5,1,2,2-.5,3.5,2.5,1-2.5,1-2-2-3-.5-3.5,1.5-.5-1.5-1,.5-3-1.5,1-2-.5-1,.5-.5v-.5l-2-.5-.5-1.5-3.15.3,1.15-2.3v-2.5"/>
      <path data-code="CU-YAL" d="m59.75,79.75l1-1,2.5,1,2-2.5v-1h1l-.5,2,1,1-.5,1,1.5.5-.5-2,1.5-2.5,2,1,1.5,3.5-1.5,3.5,1,1-1.5,3.5v3h-2l-.5,2.5h-1v-2.5l-1,.5-4-1.5-1,2.5v2h1v-1l1-.5h.5l-.5,1.5h1l.5,1-2.5,3-2,1.5-2-.5,1-1.5-.5.5-.5,1h-1l-.5-2.5-1.1-.3,1.1-.7,1,.5,1-1-1-1.5,3.5-6.5-3-1-1-1.5,1.5-1,1.5-5m3.5,20l1.5-1,1.5.5-1.5,1.5-1.5-1"/>
      <path data-code="CU-YAN" d="m65.75,69.25v.5l.5,1.5v-2h-.5m2-13l2-1,1.5.5,1-2,.5,1.5.5-1.5.5,2,2.5.5v3.35h1l3,3-.5,2,.5,1.5v.65l-1.5-.5-1.5,2-.5-.5-1.5,1.5-.5-.5-1,1.5-2,.5-.5,1.5h-3l-1,1.5h-1.5v-1.5l-2.5-1.5,2.5-4,.5-2,1.5,1,.5-2-1-3,1-.5-.5-.5.5-1.5-1-1,.5-1"/>
      <path data-code="CU-KANM" d="m61.25,57.75l2,1.5h1.5l-.5-.5,1.5-.5-.5-1.5v.5l-2-.5-2,1m-11-4l3-2.5h2l1.5-2-.5-2,1-1-.5-1,1.95-1.3,3.55,2.3.6-2,2.9-.5,1,2,1-.5,1,1-.5,1.5,1,1,3-1,1,.5,1.55-.9.5.5-2.05,2.9v2l-.5,1h.5l-.5,1.5-.5-1.5-1,2-1.5-.5-2,1-.5,1,1,1-.5,1.5.5.5-1,.5,1,3-.5,2-1.5-1-.5,2-2.5,4-2.5,1v-2l-2-1h1l-1-1.5h-1l-1-2-1.5.5.5-1-1.5-3-1.5-.5.5-.5-.5-1-2.5.5-1-1,.5-.5-.4-1.05,1.4-1.95-1-1,.5-1"/>
      <path data-code="CU-KOM" d="m40.25,77.75l1-1.5,1,.5,1.5-1.5,1-.5-1-.5.5-1-.5-1,3-1.5v1l4-.5.5-1.5-1.5-1h1l2.5-3,2.5-1-.5,1,1.5-.5,1,2h1l1,1.5h-1l2,1v2h2v1l-.5,1v1.5l-1,1.5-2.5,2.5,1,1-1.5,4.5-1.5,1-.5-2-5-2.5.5-1.5-1.5,1-1-1-1,1-2,1-2-1.5.5-.5-2.5-.5-2-1.5"/>
      <path data-code="CU-KOZ" d="m83.25,44.25h.5l1-1.5,3.5,3,2-1.5.5,1.5,1.5-.5.5-1.5,2-.5.5-1,1.5-1,3,3.5,1,2-1.5,1.5v1.5l1.5,3.5,2.5,2-1,.5.5,1.5h-3.5l-2-2v1.5h-2v1l-2.5,2.5-2.75-1.5,1.75-2.5-3-1.65-1-5,.5-1-4-1.5-.5,2h-1l.5-4.85"/>
      <path data-code="CU-KRA" d="m54.25,29.75l2-1.5,1.5.5,1-1,1-2.5,2,4,2-1v1l2-1.5,1,2-2,2.5,2,2.5-.5,1.5h2l.5,4-2.5,2-1-1-2,1.5-1,3.5-2.5-1-2-2.5-.5-3h-2l.5-2-1-2,1.5-3.5-2-2.5"/>
      <path data-code="CU-KRC" d="m18.75,17.75l2.5-.5v-1.5l1-1,1.5,1,2.5-1.5,1,1,5-.5.5,1.5,2,.5v.5l-.5.5.5,1-1,2,3,1.5,1-.5.5,1.5-.5,1,2,.5-.5,2.5-2.5,3-.3,1.35-4.2-1.45v-1.35l1-1-2-1.5-2,2.5-2,1-1,1.5-2-.5-1,2-1-1v1.5l-2-.5-1-3h1.5l-.5-1.5h.5v-2l.5-1-1-2-2-1,.5-4.55"/>
      <path data-code="CU-MAR" d="m81.75,29.25l1.5-.5.5-2,.5,1,2.5-5.5h2l8,5,.5,3-1,.5-2,4.5,1-.5,1,2.5-1.5,1,2,3-1.5,1-.5,1-2,.5-.5,1.5-1.5.5-.5-1.5-2,1.5-3.5-3-2-2.5,2-2.5-2-1-.5-2.5.5-.5-1-1.5,1-1.5-1-1.5"/>
      <path data-code="CU-MOR" d="m45.75,13.75l2.5-.5.5-1.5h1.5l.5-1.5h1l-.5-.5h1.5l-.5-.5.5-.5h-1.5v-.5l2.5-.5,1.5-1-2-3.5h3l1,3.5,3.5-.5,1.5-1.5,2.5-1-1-1.5.5-.5,1.5,2.5h5v.5l-3.5,3.5,1,.5-1.5,1.5.5,1h-1.5l-.5,2.5-1,.5-.5.5v2.5l-1.5-.5v1l-1,1v1l-1.5.5,1.5.5-2.5,1.5-.5,2.5,1.5.5-1,2.5-5.5-3-2,1.5-2-3-2.5-1,.5-3.5-2-2,.5-1v-2"/>
      <path data-code="CU-POR" d="m3.25,51.6l1.5.5,3-2.5,3,1,1.5-2,1.5.5,1-1,1-3.5,1,.5.5-2,1-.5-.5,2,1,1.5v3l1,.5.5,3,6,3,.5,1.5,2,.5,2-1-4,8.65,1,.5-2.9,4.65-9.6-5.25-1,1v-.5l-2,2-1-1-5,1v-1l1.5-1.5-.5-5-2,.5-.5,2.5h-1l-2.5,2.5v-1.5l.5-.5.5-1-2-4,2.5-1-1-1.5,1-1,.5-3.55"/>
      <path data-code="CU-SHE" d="m36.25,94.1v.5l.5-.5h-.5m-2.5.5v.5l1,.5v-.5l-1-.5m-2-1v.5h.5v-.5h-.5m2.5,0h.5l1.5-.5-.5-.5-1.5,1m-14,5l2.5-2.35,5-2.5.5-.5-1-.5,3.95-6.55,10.55,6.55.5-2.5,1-.5,1,1v-1.5l1.5,2,1-.5,1,2,5.5,3.35-4,9.5,1.5,1h-2l1.5-7.5h-1l.5,1.5-2,1.5v3l-1,.5.5-3h-1l-.5-2.5-3.5,1.5v-1.5l-3-3,.5-1-1-1v-1l-.5.5-.5,3.5-1-1.5-1.5.5-1.5,3-.5.5v1.5l-4.5.5-2,2-.5,1-1.5-1,.5,1-2-2,.5,1h-1l.5-2-1,.5-.5-3.5-1.5-1m7,6.5l3.5.5-1,2.5v1.5h-2l1-3-1.5-1.5m25.5-4l.5-.5h.5v.5h-1"/>
      <path data-code="CU-SHUM" d="m26.75,37.6l1,3,1.5-.5.5-1-.5-1-2.5-.5m-.5-6.35l1-1.5,2-1,2-2.5,2,1.5-1,1v1.35l11.5,4-1.5,3.5-2,1.5-1,3-2,2.5-3.5,1.5,1,.5-1.5,3-1.5,1,.5,2.5-1.5,3.5-2,1-2-.5-.5-1.5-6-3-.5-3-1-.5v-3l-1-1.5.5-2,1.5-.5,4.5,1,2-2.5-1-2h-1l.5-1.5h1.5l-2.5-1-1-2,.05-.9,1.45-2.45,2,.5Z"/>
      <path data-code="CU-URM" d="m78.75,46.25l1-1.5,2,1,1.4-.5-.4,3.85h1l.5-2,4,1.5-.5,1,1,5,3,1.65-3.35,4.9-.65-.55,1.5-2.5-1-.5-1,3-2-1.5-.5,1h-1l-1,2h3l-1.5,2,2,2.5h-1.5l-1.5,2-3.5-2,.5-.5-.5-1.5.5-2-3-3h-1v-3.35l-2.5-.5-.5-2h-.5l.5-1v-2l2.05-2.9-.5-.5,1.95-1.1h2Z"/>
      <path data-code="CU-VUR" d="m33.75,46.1l3.5-1.5,2-2.5,1-3,2-1.5,1.5-3.5.5,1.15,3-.5.5,2.5,1.5.5,2.5-1.5,1.5,1,2-.5.5,1-.5,2h2l.5,3,.95,1.2-1.95,1.3.5,1-1,1,.5,2-1.5,2h-2l-3,2.5-.5,1,1,1-1.4,1.95-.6-1.55-1,1.5.5.5h-1l-.5-2-1.5,1-1-.5-2.5.5-8-4.5-1.5.5-.5-2.5,1.5-1,1.5-3-1-.55"/>
</svg>