
<svg data-code="RU-CHU" xmlns="http://www.w3.org/2000/svg" viewBox="0 0 749.25 773.99">
    <g data-code="chukotskij_avtonomnyj_okrug" data-title="chukotskij avtonomnyj okrug">
      <path data-code="anadyrskij_rajon" data-title="anadyrskij rajon" class="cls-2" d="M300.62,695.87v-.5l-1-1.5,2-3.5-1.5-.5v-.5l-.5,1-2.5-.5,1.5-2.5-1.5-2-2,.5-1-2-.5-3.5-1-.5.5-6-1-1-4.5,2.5-1.5-1-1,3.5h-1l.5-3-1.5-.5v-.5l-1.5-2,.5-1-1-1.5,2-.5v-3l-2-1.5v-5l-1.5-2.5-2.5-2.5-1.5-3-6.5-1-1.5,2.5-5-1,.5-7.5-1-2.5,1-1.5,5-2-.5-1-2.5-2-1-1.5-1.5-.5-1-2,1-1-1-2,.5-2-1-2,.5-6.5-2.5-2-1.5-4-2-2.5-3.5-2,.5-3.5-.5-2,6-6.5-.5-1.5,3.5,1,1.5-.5h3l1,1.5,4.5-4.5-.5-6-1-1,.5-1.5,4.5-3.5.5-2,3-1.5h1.5l.5-3.5,2-1,2-5v-4h-1l-1-3.5.5-1.5,5-4.5-.5-3,4.5-7-1.5-6.5,1-1.5-1-1.5h-1.5l-1.5-5-.5,1h-2.5l1-7-2-3,5.5-3.5v-11l1-2,2.5.5,2-1,4.5-8.5,7.5-8,1.5-4.5-4-.5-4.5,2.5-1-1-.5-2-2-2.5,2-4,1.5-.5-.5-3.5,1-2-5-1.5,6-6.5.5-3-1.5-3.5-7-3-1.5-4,3-10-2.5-16.5-6-6-2-6,2.5-2,5.5-1,10-19,1-4-2-3-3.5-2-2.5-9.5,18-26.5,1.5,3.5,4,4.5,2,5.5,1.5,1,.5,1,8.5-1.5,1,11,.5.5,6-2,2-2h1l.5-1.5,3,.5,2.5-2h2.5l2.5-3,10.5-2,6-8,7-5h2l3,2.5,5.5-4.5,4-.5,3.5.5,6.5,3.5,1.5,2.5,2.5,1,9.5-2.5v7l4-1.5v2l10-2.5,5-5.5,5-.5,5-6.5,3.5-2-2-4.5-1.5-.5,3-4,.5-3,4.5,1.5v1l1.5-2,3.5-.5,3.5,3.5,4.5,2,1.5,5,2.5-1,2-4.5-1.5-4,4-.5,3,2.5h2l1.5,1h1.5l2.5,1,1,4,1.5,2.5,1.5,1,5-.5,1.5,2,2,1,5.5-.5.5,1,2,1,4-3,1.5.5,1,1.5h1l1.5,5.5,1,.5,1.5,2.5.5,4,2,1v2.5l1,1-1.5.5-1,2.5,1.5.5.5,2,.5-.5-1.5,7.5,1,1-.5,1,1,.5-.5,2,1.5,3.5-.5,2.5,1,1-1.5,3,2,.5,1,1-.5,1,1,2.5h1l-1,1,1.5,1-1,2h1.5l1.5,1v1l1.5.5h1.5l1,1-.5,1,1.5,2v1.5l1,.5,1.5-2.5,6.5-2v-3l1.5-1,1.5-.5,2.5,1.5,2-.5,1.5-6v-2l-.5-1v-.5l3-3.5,2-.5,6,2,1-.5,1,1.5,5.5-4.5-1-.5,1-1.5-.5-2h.5l1-3,1,.5v-1.5l1,1,.5-.5.5,1,3.5-1,.5-3,2,.5,1-1,2.5-4v4l5,15.5-3.5,5.5-1,4.5.5,14-.5,9h-.5l-1-.5,1.5-2.5.5-2.5-1-.5h.5v-4.5l-2.5.5-6.5,13.5-1,.5,1-2.5-4.5,3.5-.5,4-1-1.5h-1.5l-8,8v-1.5l-3-1-2.5,2v-1.5l-1-.5-1.5.5-.5,2h-2l1-2v-1.5h-2l-2-3-1.5.5-3.5,4.5,2,2.5,2,1.5,3-.5.5,1.5-2.5,7-.5-.5-1.5.5-1.5,1.5-2-2-2,.5-1,2.5h-1.5l-3,2.5.5,5-1.5,2.5-1.5-1.5-1.5-.5-5.5,2.5-.5,1,3.5,2h1.5l2.5,1,7,1,1,3.5-1.5,4.5,3,7,1-1-1-.5-2-6,3-2,.5-2.5-2-3,.5-1.5,5.5-1.5h2.5l4,2v-4l-1-1-1-2-1-8,2.5-3v-5.5l1-1,.5,1,3,.5.5-2-1-1h1l3,4,1.5.5.5,2.5,4,4.5,2,1.5,5,1.5,16.5-1,4-1.5.5-2.5,2,.5,2-1.5-.5-1-2.5-.5v-5l-1.5-4-5.5-1.5v.5l1,1-1-1-2.5-1h3l18.5,5.5,9,2,17.5,8.5,8.5,6,9.5,4.5,13.5,2.5,5.5-.5,1-1,3.5-1,7,.5,3,2,.5,1-2.5,1.5v1.5l2,3,3,2,3.5,1.5,2-.5,3.5-3h2l1.5.5,2.5,2h2.5l2,1.5,1.5.5,3,3.5-.5,5.5,3,2.5,1,2.5v2l-3.5,3,1,4,1,1.5,3-.5,1.5,2.5,2.5.5,1,2.5v2l-5-1-20.5,12-5,2.5-3.5.5-11,10.5-8.5,13-2.5,6-2.5,14,1.5,11.5-4,11-3,12.5-.5,7,1.5,8.5-3,9-.5,6.5,1.5,3.5-2.5,8h-2l-1-1,1.5-1-1-.5v-1.5l-2-.5-2,1-1-2-1.5-1v-1.5l-1.5.5-2-1.5-2,1v1h-1l-1.5-2-2,.5-1.5,3.5h-1l-1.5-1-1.5.5-.5-1-1.5-.5-1-1,.5-1-1-.5-4-.5-1-1-1,1.5-1.5-.5,1-1.5-1-2-1-.5,1-2-.5-1h-1l-2.5-3.5-2-.5-3,1.5v2.5l-1,2.5-.5-1-2.5.5-.5-1.5h-2l-2.5,2-1-.5-2,.5,1.5,4-3.5,1.5.5,3.5-1,3,.5,1-3,4,1.5.5-1.5,2.5.5,2h1l-4,3v2l1.5.5-.5,1.5-2.5,2-1.5-1-.5-1.5-1-.5-.5,1.5-1-.5-1.5,1.5-.5-1-.5,2h-1.5l-2,2.5,1,3-1.5,1.5,1,1.5-.5,1h-1l-1-.5-.5.5-1-1.5-2.5-.5-.5-.5-3,3-1,2.5,1.5,2.5-2.5,3.5,1,.5h1.5l1,.5-4,5.5.5,2.5-1.5,5-2.5,1.5-1.5-1.5h-1l-.5-.5-.5,1,1,2-1.5,1.5-1-1-.5-3-2,.5.5,1,.5,3.5-2,1,1,2h1l.5,2.5-4,4v1.5l1,1h-1.5v1h-2.5l.5,1-2,1.5-1-.5-.5,1.5-1.5-.5v.5h-1v2l-3.5.5v4l-1.5-.5v2l-2,.5-1-.5-.5-1.5-1-1-2.5.5-1-.5-1-1.5h-3l-1-.5.5-1-1-2h-3l-2,1.5-1.5-4-2.5-1.5,1-2.5-3-.5-1,1v2h-1.5l-1.5,2.5v-.5l-4,1-1-.5-.5,1.5-3.5-1-1,1-.5-1-2-1-8,1.5v-1.5l-1-.5-1.5,1.5h-5v1l-2.5-1-2,1,.5,2-1,.5-1,3-10,1.5-2,2h-5l-1-2,.5-5.5-1-.5,2.5-3-.5-2h-2.5l-.5-2h2l-1-2-2-2,1-2.5v-2l-1-.5v-6l-1.5-4.5.5-2-1-1.5,4-9-.5-1.5-1.5-.5v-1.5l-1-.5.5-3h-1l-1-1-1,.5-1-1-1-.5v-.5l-4-3.5h-4l-1.5,1.5-1-1-1,.5-1-1.5h-1l-1-2-6.5,7h-1l-1-.5v-1l-1.5,1.5-1-.5-2.5,3-1.5-1.5-1-2h-2.5l-1-1h-1.5l-1-2-3-1.5-3.5,2.5-1.5-.5v-1l-1.5.5-3.5-1.5h-3.5l-1.5,3.5-4,1v2.5l1.5,1v.5l-2,1.5-.5,2.5-5,1-.5,1.5-2-1.5h-1.5l-1.5,3.5-2.5-1.5h-2.5l-.5-1-2-.5-3.5,1-.5-1-1-.5-1.5,2.5-2.5-.5-2-1.5h-1.5l-1-1-3.5-1v1.5l-2,1,1.5,1-1.5,1,1,5-3,2-.5,3-2.5-.5-2,4.5-2.5-.5-1.5,1h-3l-2.5,1.5.5,1.5-3,1-1.5-1v5l.5,1.5-4,4.5-1-1.5h-1.5l.5-3-2.5,1-1-.5-2.5.5-1-.5-1-2.5-1,.5-2.5-1-2,3-2,.5-.5,2.5h-1l-1.5-.5-.5,1.5-1-.5-.5-1-3-1M551.12,430.37h-.5.5M550.12,431.37v.5-.5M551.62,429.87v.5h-.5l.5-.5M552.12,430.37v-.5h-.5.5v.5M588.62,441.87v-.5.5"/>
      <path data-code="bilibinskij_rajon" data-title="bilibinskij rajon" class="cls-1" d="M12.12,698.37v-.5l-1.5-2v-1.5l-1-.5-1-2v-3.5h-1.5l.5-5h1.5l1.5-2,1.5-.5.5,1,1-1-.5-1.5,3.5-3.5-6.5-3.5-3.5,3-1-.5-1.5-1.5h-.5v-1.5l-1-1.5,1.5-3.5-1-1.5v-2l-.5-1v-.5l-.5-1-1-.5-.5-2,4-9.5,3.5-1v-1l3-1,.5-4.5,3-4.5v-2l1.5-2,2-.5-.5-1h1l2.5-5h2.5l1,1,1-.5.5-1.5h-1v-1l-1-.5-.5-2,3.5-3,.5-2,5-3.5,3.5-1,6.5-6.5,4-7,1-6.5,3.5-6,4-3.5h3l2-2.5h2l.5-3h2.5l3-2.5,1,1,6-1.5.5-1.5-.5-1.5.5-2.5-1.5-1-1.5-2.5-.5-3.5-3.5-1.5.5-3-1-1.5-.5-4-1-.5-3-2.5-3.5.5-4.5-4.5,3-2.5-1-4,.5-1-4-1-1-1.5-1-.5-7.5.5-.5-1-1-1v-1.5l-1.5.5-2-1.5-1-2,2.5-3.5-1-1,1-2v-2.5l-1,1-2-.5-2.5-1.5h-5l-2.5-1-1-2-1-1-5,2v-2l-.5-2-6-2,.5-.5-1-1,1-1.5-3-.5-.5-2,1.5-3-1.5-1,1.5-2.5,5.5-1.5,2-2-.5-1.5,5.5-9.5,5-1.5,5.5-5.5,1-3-.5-5,3-2,2.5,1,4.5,1,8.5-1,7.5-4.5,5.5-9,5-2.5,6.5-6,11.5-5,4.5-3.5,3.5-5.5h3l3-2,2-8.5-.5-3,.5,1.5h1l3.5-2,.5,1,1,.5,3-1.5,8.5,10-2,6,3,7v1.5h.5l-1,1.5.5.5-.5,1,4-1.5,2,.5,2-.5,3.5,1,1.5-.5,1,1.5h1.5v1l1.5-.5,3,2,3,.5,1,2v4l2,9,6.5,10.5,2.5,2h2.5l5.5-3.5,4.5-7,1.5,1,.5,9.5,3,7,4,5,8,2.5,21.5,2,8-3,7-.5,9.5-7.5,15.5-6.5,11-7.5,3-.5,4,2,25.5-3,5,1.5-1,2,.5,3.5-1.5.5-2,4,2,2.5.5,2,1,1,4.5-2.5,4,.5-1.5,4.5-7.5,8-4.5,8.5-2,1-2.5-.5-1,2v11l-5.5,3.5,2,3-1,7h2.5l.5-1,1.5,5h1.5l1,1.5-1,1.5,1.5,6.5-4.5,7,.5,3-5,4.5-.5,1.5,1,3.5h1v4l-2,5-2,1-.5,3.5h-1.5l-3,1.5-.5,2-4.5,3.5-.5,1.5,1,1,.5,6-4.5,4.5-1-1.5h-3l-1.5.5-3.5-1,.5,1.5-6,6.5.5,2-.5,3.5,3.5,2,2,2.5,1.5,4,2.5,2-.5,6.5,1,2-.5,2,1,2-1,1,1,2,1.5.5,1,1.5,2.5,2,.5,1-5,2-1,1.5,1,2.5-.5,7.5,5,1,1.5-2.5,6.5,1,1.5,3,2.5,2.5,1.5,2.5v5l2,1.5v3l-2,.5,1,1.5-.5,1,1.5,2v.5l1.5.5-.5,3h1l1-3.5,1.5,1,4.5-2.5,1,1-.5,6,1,.5.5,3.5,1,2,2-.5,1.5,2-1.5,2.5,2.5.5.5-1v.5h1l.5.5-2,3.5,1,2-3.5,1v1l-1.5-.5-1.5,4h1l2,3,2,.5v2l2.5,2.5-3.5,2.5-1-1-.5-1h-2.5l-1.5-1-2,1h-3.5v1.5l-1.5-.5-2,1-.5-1.5-2.5-.5-3,2h-5.5l-.5,2,1,2-2,1.5,1,2-1,2h-1v1.5l-2.5,1-1.5-.5-.5-.5-2.5,3h-1l-1-1h-1.5l-.5,1.5-1-.5v2l1.5,2.5-1,2,1,1v2.5l.5.5-2,2-2,.5-.5,2.5,1,1.5,1-.5,1,1,3.5-.5,1,1-2.5,3.5-.5,2-4,4.5-3,2-2.5.5-1-1.5-2.5-1-6,3.5-1,3-4.5-.5-1.5,2-9,3.5-1.5.5-.5-2-3.5-1-2-1.5-1-1.5-2-1h-4l-4.5,1.5-3-.5v-.5l-1-.5h-3.5l-2,2-6,2.5-2,5-5,3.5-4.5,1.5-1-1.5h-2.5v-1l-3-1-2.5.5-1.5-1.5-1,.5-.5-1-3,.5-1-.5v-.5l-1-1,.5-1-1-1-6.5-1h-2l-1.5,2.5-1-.5-2,3-1.5-1.5-3.5-.5-4,1.5-1-1-2,1h-2.5l-5.5,3.5-1.5-1-9,2.5-1-2-2.5-2,.5-1.5-2-1v-1.5l-1.5-.5.5-1.5-.5-.5-.5-3-1-2h-.5l-1-1,1-2.5-1.5-1,.5-2.5-1.5-3,.5-1-1-.5.5-1.5-.5-1h-1l-.5-1-2-1-.5-1-2.5,3-2.5-.5-.5,1.5-3,.5-2.5,2-3-.5-.5-1h-3l-2,2v-.5h-3.5l-1.5-1-2,.5-1-1,1.5-4-2-2v-2.5l-1-1,1-2.5-1.5-3.5v-2.5l-1-.5.5-1-1.5-.5-.5-1v-2.5h1v-3l1.5-2-4.5-1-1.5-1,.5-1-1-.5-.5-.5h-2.5l-.5-1-1-.5v-1.5l-1.5-1-3-1-1-1-1.5-.5-8.5,1.5-1.5,1-3-1-2,1-1-1-1,.5-1.5-.5v-.5h-3l-5,1.5-2.5-1-1,.5-1.5-.5-.5-2-1.5-.5.5-1-1-4.5-4,.5-1.5-2.5h-3"/>
      <path data-code="chaunskij_rajon" data-title="chaunskij rajon" class="cls-1" d="M119.12,367.87l.5-.5,1-.5-2.5,1.5,1-.5M105.62,374.37v-.5.5l-.5.5.5-.5M184.62,295.87l-.5-1v-.5l.5.5v1M122.62,365.37l4-1.5,1.5-.5h1l-8,3,1.5-1M129.12,363.37h1.5-1.5M106.12,397.87l1,.5h-1.5l.5-.5M125.12,445.37l.5-1-.5-.5,1-1.5h-.5v-1.5l-3-7,2-6-8.5-10-3,1.5-1-1v-.5h-1l-3,2h-1l-.5-1.5-.5-14-1.5-6-2.5-8-.5-7.5,3-7.5,3-2,10.5-5-1,1v.5l.5-.5,1,1.5,2-2-.5-1h4.5l6.5-3.5,2,.5,2,1.5,1.5,3.5-2.5,2.5,2.5.5-.5,1.5,1.5.5,2.5,2,2,4.5,1,2.5-3.5,2-1.5,2.5-7.5,4.5-12.5,4-2.5-.5-2-1.5h-2l-6.5,2.5v3l4.5-4,3-1,1.5,1,.5.5,4,2.5-2-1-1,.5,1,3.5h6l4.5-1,3,3.5,4,5.5,4.5,4,3.5,2,1,.5,2-.5,7-6.5,5.5-1.5,7.5-.5,4.5-4,3,.5,2.5,1.5,4,3,1.5,2.5,1.5,1.5,4,1.5,4-.5,2-1.5,7-10,1-4,2-2.5,3,1,1-2.5-1.5-.5-1.5,1v.5l-1-1-1-1,1.5-6,.5-.5,1.5,1.5.5-.5-1-2h-1.5l-.5-.5,1-3.5-.5-6-.5-3-1-1-1.5-1.5-3-1.5-3,1-2.5-4.5-3-2-5.5-2-1.5,1.5-4-4h-2.5l-2.5-2.5-3.5-1-3.5.5-4.5,6-2,1.5-2-2-1.5-3.5v-2l-1,.5,3.5-6v-4l-3-1-3.5-4h-2.5l-2-3-1-.5-.5-1-.5-1-1.5-2-2-1.5-4,1.5-.5-1.5,1.5-2,6-2,3.5-4.5,6-3.5,3.5-3,10.5-5.5,8.5-7,5-2.5,3.5-6.5h2.5l1,1.5h1.5l6-1.5,4-3,2,.5,1-.5-1,2,1,1,2-1.5.5,1h1v1l3-1.5,1,.5h1.5v.5l1.5-.5,1,1h1.5l1,2,1,.5v1l1.5.5.5,1,1.5,1.5,5.5-2,7,1.5v1l4,1,16.5-5h2l1.5,1.5,1.5.5,12,32,1.5.5,1,1,3,.5.5.5,1.5,1,3.5,1,5,3.5,9.5,19.5-2,6.5,2.5,9.5,3.5,2,2,3-1,4-10,19-5.5,1-2.5,2,2,6,6,6,2.5,16.5-3,10,1.5,4,7,3,1.5,3.5-.5,3-6,6.5-25.5,3-4-2-3,.5-11,7.5-15.5,6.5-9.5,7.5-7,.5-8,3-21.5-2-8-2.5-4-5-3-7-.5-9.5-1.5-1-4.5,7-5.5,3.5h-2.5l-2.5-2-6.5-10.5-2-9v-4l-1-2-3-.5-3-2-1.5.5v-1h-1.5l-1-1.5-1.5.5-3.5-1-2,.5-2-.5-4,1.5M152.12,357.87v1l-1.5-.5-2.5,2,.5-5,1.5-2,1.5-1,.5-.5-1.5,1.5,1.5,4.5M151.62,360.87h-.5v-1h1.5l-1,1M121.12,397.87h-.5l-.5-1.5,1.5.5-.5,1M201.62,388.37v-.5.5M200.12,396.87v-.5.5M204.62,393.87v1.5-1.5"/>
      <path data-code="chukotskij_rajon" data-title="chukotskij rajon" class="cls-2" d="M590.62,209.37l-1-1-2-8.5.5-6.5-3.5-3-4-3-4-1-2-1.5-2-4-4-5.5-2.5-1.5.5-2.5-6.5-2.5-1-.5,4.5-4-.5-4.5,7,3,2,1.5,1,1.5h-.5v-1l-1-.5-1.5,1,1,6h1l1.5,2,5-.5,2-3.5,7.5-3,3,1h4.5-3.5v2l3.5,3h4.5l.5-2-1.5-3.5.5-2.5-1.5-1.5h-3,1.5l1.5-4,2.5-1.5v1.5l1.5,1,3.5.5,2.5,1.5-1.5.5.5,2,3.5,2.5.5-1.5,1.5,2,1,.5.5-.5-1.5-1-.5-1.5-1-5.5-3,1.5,1.5-4.5-.5-1.5-2.5-1-1-1.5-2-.5-2,1.5-3-1-5,5-1.5.5v1.5h-.5l-1-1-.5,1.5-1.5-.5v1l2.5,1.5.5-.5,1,1.5v.5l-4-3v-8.5l-1-3.5-10.5-5.5-4-1-1.5-1-3-1-2.5,4-1.5,1h-.5l.5-2.5-1-1h-1l-5,8-3,1-.5-1.5,1.5-3.5,11.5-16.5.5-2.5-1.5-1.5,5-3,13-14,3-2.5.5,1,1.5-1.5v-.5h-1.5l12.5-11,.5-1.5-.5-2.5,3-1,3-4h2.5l.5,3,2,.5,4.5-1,6.5-3.5,1,.5.5,2,3,1h1.5l23-7,6.5-.5,9.5-6.5,6.5.5,1-.5,8-7,2-.5,3.5,1,3.5,4.5-2,2.5-3,.5-1.5,2-.5,6,2,4.5-.5,4,2,6,1.5-.5,2,1,2,2.5,1,.5,1,1h1.5l2,1.5.5-.5,1.5,1.5,1.5,3.5-5,6h-.5l-.5-.5-1.5.5-7.5,5.5v-.5l-4-.5-7.5,2-.5,1,2-.5,1,1.5h2.5l4.5-2-1.5,2h1.5l.5.5,1-.5h2.5l5-3.5,2,.5,1-1,2,1,3,2.5,1.5,2.5-7.5,4-4,9-2.5,9-3,4-2.5-2,1.5,9-3.5,1.5.5,2-4,9.5,1,6,2.5,9.5-1,6,1,4.5-.5,2h-2.5l-5.5-2-2-5.5-5-5.5-2,.5-.5,3-1.5,1-3.5-4-.5-3-1-1.5-7-1.5-3,5-2-1-1-2h-2.5l-1.5-2-2.5-1-1.5,1.5-1-.5-.5,1.5-1.5,1-5-.5-2-.5-1-1v-1l-2.5-2.5-3-2-2,.5-.5-2.5-1.5-1.5.5,3.5-.5,5,2,3.5,2,2,2,2.5,3.5,8,1.5.5,3.5-5.5,2-1.5,7,6-2.5,5.5-.5,12-3.5,2.5h-4l-5-2.5-7-2-4.5,1-5-1-1.5,3.5-.5-1.5h-1l-.5-1-.5-5.5-1-1.5-2.5-1-3.5,1.5-5,5h-1.5M683.12,119.87l-.5-.5.5-.5v1M583.12,106.87h.5-.5M716.62,63.37v1h-1.5l-3-2.5,1.5-2,1.5,1,1.5,2.5"/>
      <path data-code="gorodskoj_okrug_anadyr_" data-title="gorodskoj_okrug_anadyr&amp;apos;" class="cls-1" d="M548.62,432.87l3.5-3,1,1.5-1.5-.5,1,1-.5,2-3-.5-.5-.5Z"/>
      <path data-code="iul_tinskij_rajon" data-title="iul&amp;apos;tinskij_rajon" class="cls-1" d="M208.12,275.37l.5-1,1-1,1-1-2.5,3M205.62,278.87l.5-1-.5,1M213.62,270.37l-.5.5.5-.5M215.62,269.37l-1.5.5,1.5-.5M577.12,365.37l-1,1-2-.5-.5,3-3.5,1-.5-1-.5.5-1-1v1.5l-1-.5-1,3h-.5l.5,2-1,1.5,1,.5-5.5,4.5-1-1.5-1,.5-6-2-2,.5-3,3.5.5,3.5-1.5,6-2,.5-2.5-1.5-1.5.5-1.5,1v3l-6.5,2-2,2.5-.5-2-1.5-2,.5-1-1-1h-1.5l-1.5-.5v-1l-1.5-1h-1.5l1-2-1.5-1,1-1h-1l-1-2.5.5-1-1-1-2-.5,1.5-3-1-1,.5-2.5-1.5-3.5.5-2-1-.5.5-1-1-1,1.5-7.5-.5.5-.5-2-1.5-.5,1-2.5,1.5-.5-1-1v-2.5l-2-1-.5-4-1.5-2.5-1-.5-1.5-5.5h-1l-1-1.5-1.5-.5-4,3-2-1-.5-1-5.5.5-2-1-1.5-2-5,.5-1.5-1-1.5-2.5-1-4-2.5-1h-1.5l-1.5-1h-2l-3-2.5-4,.5,1.5,4-2,4.5-2.5,1-1.5-5-4.5-2-3.5-3.5-3.5.5-1.5,2v-1l-4.5-1.5-.5,3-3,4,1.5.5,2,4.5-3.5,2-5,6.5-5,.5-5,5.5-10,2.5v-2l-4,1.5v-7l-9.5,2.5-2.5-1-1.5-2.5-6.5-3.5-3.5-.5-4,.5-5.5,4.5-3-2.5h-2l-7,5-6,8-10.5,2-2.5,3h-2.5l-2.5,2-3-.5-.5,1.5h-1l-2,2-6,2-.5-.5-1-11-8.5,1.5-.5-1-1.5-1-2-5.5-4-4.5-1.5-3.5-18,26.5,2-6.5-9.5-19.5-5-3.5-3.5-1-1.5-1-.5-.5-3-.5-1-1-1.5-.5-12-32-1.5-.5-1.5-1.5h-2l-16.5,5-4-1v-1l-7-1.5-5.5,2-1.5-1.5-.5-1-1.5-.5v-1l-1-.5-1-2h-1.5l-1-1-1.5.5v-.5h-1.5l-1-.5-3,1.5v-1h-1v-2.5l2-2.5-.5-1.5h-1l-1-1-5.5,1-1.5-.5-.5,2,1.5,1.5-.5,1-.5-.5-1-2.5v-2l2-4.5,8-2-.5,1.5,3.5.5v-1l-1.5-.5-1-1,3.5-2,2-4.5h-1l5-5,4-2,5.5-6,5.5-6,8.5-15,3.5-3,2.5-4h13l13-5.5,6.5-4,6-6,16-5.5,6.5-8,8-4.5,20-6,24-1.5,9-3.5,2.5-3-.5-3,8-1,11-5,17.5-1.5,15.5-4.5,18.5-4.5-5,1.5.5,1.5,1.5.5-1,1.5,1,.5,1-.5.5,1,2.5-1.5.5.5.5-4.5-1,.5-.5-.5,1-1.5,38-12.5,9-5v-1l1-1-.5,1,1.5,1,17.5-6.5h1l.5,2,1.5.5h2.5l1.5,1,7.5-1,9-2,6.5,1.5,1.5,1v.5l-1.5-1h-1l-.5,1.5,1,2h1l1.5,2.5,1.5.5.5.5,1,.5.5,1,3,2v.5l1.5,1,2,.5.5,1h2.5l.5,1h5l2.5-1-.5,1.5.5,1h1.5l.5,4.5-4.5,4-4,5.5-2.5-1.5-2,2,4,9.5-2.5,5.5,1,3.5-6.5,1-6,4,3,4.5v1.5l6.5,10,1.5-1,1,1.5,1.5-1-1.5,3.5,1,7.5-2.5,1-2.5,3,.5,1-3.5,2v3.5l5,1.5,2.5.5,3.5-1.5,1.5,2,9,2.5,1.5-3,3-2,7.5-1,1.5,1,9.5,2,1,3,3.5,2,6,5.5,2.5,1.5,3.5,4.5,2,4-7.5,5-1.5,3.5-.5,5.5.5.5,1.5-1,1,4.5-.5,4-2,4.5-14.5,20.5-3.5,3.5-4,3,4-3.5,6-7-7.5,5-1-1-1-2.5-1.5-1.5-1.5-.5v-1.5l-2.5-1.5-2-3.5-4-.5-2,3.5h-5l-1.5-1.5h-1.5l-6,1,.5-1.5-1.5-1-7.5-2,3.5.5,3-1.5-.5-4.5-1-.5h-.5l-1.5-1.5h-1v1.5l-.5-2,.5-1,1.5-1-.5-2.5-1-2-2,.5-2-4.5h-2.5l-.5-2-1.5-1-.5-1-.5.5-1.5-2h-3l.5,1.5,1,1-1.5,1,.5,1.5h1l.5,1,2,1.5v2.5l2,2.5,1.5,1-1,5-4,2v-1h-5v-2l-6-3.5v2l3,2v.5l1,.5v1.5l-7,2.5,1,1,1,.5,2.5-.5h3.5l2,1,.5-1,2,5-1,3.5-4.5,5.5,1.5-3h-1.5l-1-1-1.5.5-1,2,1,.5v-.5l1,1h.5l-.5,1,1.5,3.5,2.5,1.5,5,5,6.5,3,6.5,1.5,7-1,6.5-2.5,2,4h3.5l3,10,1,1.5,2,.5,1,2.5,2.5,2,1.5,2h1l2,6,1,1.5-1.5,2.5,1.5,3.5v6l-3,6.5ZM563.62,347.37v-1l.5-.5v.97s2-.47,2-.47l1.5-1-.5-2-1.5.5h-2.5l-1,1.5-1,2.5,3,.5v-1.47l-.5.47ZM219.12,72.87v-1l1-1-.5,1-.5,1M216.62,82.37l1.5-.5-1-2,1.5-1-.5-3,1,1h1l-1-1,1-.5-1-1.5v-1l1,1.5,1.5-.5.5-1.5,1,.5,1-3h2.5l1-2.5-1-2.5,1.5-.5-.5-1.5h-2l-2,2,2-.5-1.5,2.5-3,2.5,2.5-4.5,2-2,1-.5,5-5.5,10-7.5,10-2,11.5,1,3-1,1-2,1.5,1,2.5-1,.5,1.5,2.5,2v1.5l1.5,3v10l-3,6-1.5,6-4,7-3.5,13.5-.5.5.5-1.5h-1l-1.5,2.5-.5,3.5-7.5,1.5-6,5-1,2.5,1,4.5-.5,7-1,2.5-3.5,2-4,13.5-6-3.5-5-1-3-1.5-3.5-2.5-1.5-8-2.5-4,1.5-7-3-13,.5-2-.5-2.5v-1l.5-.5v-.5h.5l-.5,1,1,.5,1-2-1-1-1,.5.25-7.25.75-1.75ZM530.12,134.37l-1-.5,2-.5.5,1.5-1.5-.5M545.62,146.87l-2.5-1.5,3,.5,2,1.5-1,1-1.5-1.5M555.12,154.37v1-1.5l-1-.5-.5-1.5h-1.5v1l-2-2-.5-1-2-1-.5-.5,2.5,1,.5,1,3.5.5,2,1.5v1l-.5,1M199.62,292.87h-.5.5M285.88,2.62l1,.5v-.5h.5l.5-.5,1-1.5h.5v.5l.5.5v.5l-.5.5v.5h-.5v-.5h-1l-.5,1h-3l-.5.5v-.5l1.5-.5.5-.5"/>
      <path data-code="provdata-codeenskij_rajon" data-title="provdata-codeenskij rajon" class="cls-1" d="M545.62,234.55v-3.5l3.5-1.5-.5-1.5,2-2.5,2.5-1.5-.5-7.5,1.5-3-1.5,1-1-1.5-1.5,1-6.5-10-.5-2-2.5-4,6-4,6.5-1.5-1-3,2.5-6-4-9,2-2.5,2.5,1.5,4-5,.5.5,6.5,2-.5,3,2.5,1.5,4.5,5,2,4,2,2,4,1,4,2.5,3.5,3.5-1,6.5,2.5,8.5,1,1h1.5l5-5,3.5-1.5,2.5.5,1,2,.5,5,.5,1,1,.5v1.5l2-3.5,4.5.5,5-.5,7,2,4.5,2.5h4.5l3.5-3v-11.5l2.5-5.5-6.5-6-2,1.5-3.5,5.5-1.5-1-3.5-7.5-2-2.5-2-2-2-3.5.5-5-1-3.5,2,1.5.5,2h2l3,2,2.5,2.5v1l1,1,2,.5h5l1.5-.5v-1.5h1.5l1.5-1.5,2.5,1.5,1.5,2,2.5-.5,1,2.5,2,1,3-5,7,1.5,1,1.5.5,3,3,4,1.5-1,1-3.5h2l5,5.5,2,5,5.5,2,2,.5,1-2-1.5-4.5,1.5-6-2.5-9.5-1-6.5,3.5-9.5v-1.5l3.5-1.5-1.5-9,2.5,1.5,3,5,4,4,2.5.5,2,1v.5l1.5,1.5,2.5,1,7.5,1,1.5,1.5,3,7.5.5,5-1,9,.5,3.5-5,4v4.5h2l.5,1-1,3.5,1.5.5,1-2-1.5-8,7-1,1.5,2-.5,1.5,1.5,1.5-1.5,4,.5,3,1,.5v-5l2.5-1.5,1,2,.5,1h-.5l2,4,1-2-1.5-3,1-1.5,1.5-1.5,1,1,2-2.5h2l3-3.5,2,.5,3.5.5,6-.5-3,5-1,5.5-3.5,2-2-1.5h-2.5l-2.5-1.5-1.5,5,1-1v.5l-2,1,1.5,3.5,1.5-2,.5-3,3-.5,1,2,1.5,1h1.5l3,3-.5,2.5,1,1.5-1.5,5.5-1.5,1-6,3.5-4.5-3.5h1l-1.5-3.5,1-.5-1-3h-.5v3l-2.5-2-.5-1.5-1.5-.5-.5-1-1,1.5-2.5-1h-.5.5l-1-1-.5,1h-1.5v1l3,.5,2,1h2.5l1,1.5,1,1,2.5,9.5-1.5,3.5-11,5-.5-.5-4-.5-2.5-2h-1.5l-7,2-12,6h-2l-4,1.5-4,3v3.5l-6,6.5-1.5.5v2l-2-.5v-3.5h-2v2.5l-3-1.5-.5,1.5-1.5-.5-3.5,1.5-3.5,2.5-1-1-4,1.5v-3.5l-3.5-3-1.5-3-2-.5-7.5-.5-1-.5-3-1-7-.5,2.5-.5,1.5,1h2l-1-2.5-3.5-1.5-21.5,12.5.5-.5-1.5-4-3.5-4.5-2.5-2-6-5-3.5-2-1-3-9.5-2-1.5-1.5-8,1.5-3,2-1.5,3-8.5-3-1.5-2-3.5,1.5h-2.5l-5-2M724.62,195.55v-.5.5M730.12,196.55l-.5.5-1-1-1,1.5-1-2.5,2.5-1.5.5-2.5,3-.5.5,2-3,4M734.12,188.05l.5-.5-.5.5M727.12,189.55l-.5,2.5-.5-.5-1,1-5-8v-3.5l2.5-3,7.5-2.5-3,14M715.12,191.05v-.5h.5l-.5.5"/>
    </g>
</svg>