<svg id="RU-DA" xmlns="http://www.w3.org/2000/svg" viewBox="0 0 157.5 278.15">
      <path data-code="DA-AGU" d="m56.25,226.9h3.5l1-1,3,.5,1.5,2-1.5,1.5,1,.5,1.5-.5,1.5-2.5,5-2,2,3-1,2,2,1.5-2,.5,1.5,1-.5,2-1,.5.5,1-.5,1,1.5,2v3l-1,.5-2,3-2.5-.5-2,1-.5-3,.5-.5-1.5-2v2h-1l-.5,2-.5-5-2-.5-1,2,.5,1-1.5-1.5-3.5.5.5-9.65-1.5-.5-.5-2.5,1-2.35Z"/>
      <path data-code="DA-AKHT" d="m42.25,256.75l5.5-2,.5,3.5,3,.65,6.5-10,.5-1.5,8,15-7,7v1.5l-2,1-1,2h-2l-3,2v-2.5l-2.5-1.5-5-1-.5-2.5,1-2-4-2.5-3-4.5-.5-3,1.5-1.65,4,2Z"/>
      <path data-code="DA-AKHV" d="m38.75,155.4l1.5-1.5,6.5,3-1,3.5,1,1.5,1-.5-.5,2.5h-1.5v1l-5,2-3-.5-1,1-1.5-1,1.5-4.5-.5-2,1.5-2-.8-1.55,1.8-.95Z"/>
      <path data-code="DA-AKU" d="m67.75,193.9l2.5-1,3,5.5,4.5,1,1,2.5,2.5,1v2.85l-1.5-.5.5,1.5-.25.75-3.25-1.65-2.5,5.5-3,.5-2,2.5-.5,2.5-1,.5.5,1.5-3.5,1.5v-2.5l-2.5-2,3.5-6-1-1.5.5-1.5-1.4-.9,1.4-2.1,2-1-.5-7.5,1-1.45"/>
      <path data-code="DA-BAB" d="m78.25,103.9l2-.5,1-4,3-1,1-2,6-2.5,4,2.5,7,.5,1.5,1.5-.5.5h2l-.5,1.5,2-2.5h1.5v1.5l7.5,2.5.5,1.5h2l3.5,3-.5,2,1.5,1.5,1,4.5-.5,2-2.5,3v-1.5l-2,1.5-1,2v5l-.5,2.5,1,1.5,2.5-1.5,2-4,5.5-5.5,2,1.05-13,14.45-5.2,9.15-13.3-15.65-2.05-1.8.55-.2-.5-1.5,2.5-3-1-3-8-2,.5-2-1.5-1.5-1.5.5-1-3.5-1.5-1.5,1.5-1-5-1.5-3.5-2.5"/>
      <path data-code="DA-BOT" d="m31.25,147.4l1.5-2,3,1,1-2,4.5,1.5,1-4-1-1.5,6-3.5,1,.5v2.5l2.5-.5v1.5l2-2.5,1,4.5-1,1.5h-2.5l-.5,5.5-2,3.5,4,3,1,2.5-3-1-3,4-1-1.5,1-3.5-6.5-3-1.5,1.5-1.8.95-1.7-3.45-4.5-3.5,1,.5-.5-2.5"/>
      <path data-code="DA-BUJM" d="m80.75,161.4l.5,1.5-1,1.5h2.5l1.5-.5-1-1.5.5-1-2-1-1,1m-16.5-13l3-2,3,.5.5-1,2.5-1,.5,2,2.5,1v-2l3.5-1,1-1.5-.5-2.5,1.5-2,4.5,3.8.5,4.7-.5,1-1.5-.5-.5.5,1,1.5-1.5,2,2.5,3.5,1.5-2.5v-2l2-2.5-.5,4,.5,2.5h1.5l.5,1h-2.5l6.5,6,2,4,2,1-2.5-4.5,1-1.5,2,5v4l-1.5.5-2,2.5v-1.5l-6-3.5h-1.5l-1.5,3.5-6.5,5.5,3.5,2.5v1l-1,2,2-.5-4,1-6.5-4.5-.5-4.5-1-1.5v-3.5l-2.5-3-2-7,5-2.5v-2l2.5-2.5-6.5,2-6-5.5"/>
      <path data-code="DA-CHA" d="m36.75,188.25l3.5-2.5h2.5l1-3,6.95-1.1-.45,1.25,3,4-1.5,1.5,1.5.5-1,1,1.5,2-1.5,1.5v5l-.5,1.5-2,2.5,1,1-1,2.5-2.5.5-3.5,5.5.35,1.5-4.85.5-1-2-3,.25v-5.4l-1.5-1.5,1.5-2.5-.5-2.5,2.5-3,1.5-.5v-1l1-1.5-4-1-1-3,2-2Z"/>
      <path data-code="DA-TSUM" d="m10.75,156.9l4.5-3,1-2.5,2.5.5,5.5-1.5.5-2,2-.5.5,2.5,3.5-1,4.5,3.5,2.5,5-1.5,2,.5,2-1.5,4.5-3,2.5-1.5,2.5-7,1v-1h-2.5l-2-2,2.5-3.5-2.5-3.5.5-2.5-2.5.5-3.5,2.5-1.5-2-2.5-.5,1-3.5"/>
      <path data-code="DA-TSUN" d="m.25,163.4l4-3,3.5,2,2-2,2.5.5,1.5,2,3.5-2.5,2.5-.5-.5,2.5,2.5,3.5-2.5,3.5,2,2h2.5v1l-4.5,4v3h2l.5,1.85,2.5,1.5-2.5,5-2.5.5-2,2.65-3-.5.5-1.5-3,.5,1-4-2,.5-.5-2-1-1-2,1-1-1.5,1-1-.5-1.5,1-.5v-2l-3.5-3-1,.5v-2l-1-1,1-1-3-4.5v-3"/>
      <path data-code="DA-DAK" d="m61.25,223.9l3-2,.5-1.5,3.5-1.5-.5-1.5,1-.5.5-2.5,2-2.5,3-.5,2.5-5.5,3.25,1.65-.75,2.25,2-.5.5,2.5,2.5-.5,1.05,1.6-.05,3.05-1,1,1,.5-1.5,1.5,1.5,2-1,1h-2.5l-2-1.5-2,2.5v.5l-1,.5-.5,1.5-2.5,1.5-1-1.5-5,2-1.5,2.5-1.5.5-1-.5,1-2-1-1.5-3-.5.5-2.05"/>
      <path data-code="DA-DERM" d="m100.75,229.9l1,2.5,2-1.5-2-2-1,1m-1.5-10l.5-1.5h1.5l1-3,1.5.5.5-1,1,3-.5,12,.5,3.25-.5-.25-2,4.5.5,2.5h1l-1,4.5.5,2,4,5.5-3.5,2.5-3,.5-2.5-5.5-3.5-.65-2.5-6h2.5l1.5,2-1-3.5.5-3h-1.5l-1-2,1-2,1-4.35,2.5-1.5-4.5.5.35-1.35,3.15-.65-.5-2-1.5-1.5,1.5-.5-.05-3.7,2.55.7Z"/>
      <path data-code="DA-DOK" d="m51.25,275.9l3-2h2l1-2,2-1v-1.5l7-7,4.5,1.5,5.5.3v1.2l-2,1v1l-.5.5h-2.5l-2.5,3.5-1.5.5-1-.5-.5,2.5-4,.5-2.5,3.5h-1.5l-2-1.5-3,1-1.5-1.5"/>
      <path data-code="DA-GER" d="m62.75,169.4l1-1.65,2.5,7.5,1.5-1.5,2,.15,2.5,3.5v-1.5l1,3,2,.5-2,2,1,3-2,1-.5-1-1.5,1-3-2v5.5l-2-5-5,1-.5-2.5,1.5-2v-2l2-2-1-4.5,1-1.5-.5-1"/>
      <path data-code="DA-BUJ" d="m80.75,161.4l1-1,2,1-.5,1,1,1.5-1.5.5h-2.5l1-1.5-.5-1.5"/>
      <path data-code="DA-DAG" d="m100.75,229.9l1-1,2,2-2,1.5-1-2.5"/>
      <path data-code="DA-DER" d="m104.75,232.9l1,.5-1.5,6.5h-1l-.5-2.5,2-4.5"/>
      <path data-code="DA-IZB" d="m103.25,194.4h1v4.5l-1-.5v-4"/>
      <path data-code="DA-YUZ" d="m89.75,17.75v1h-1l-1-1.5,2,.5Z"/>
      <path data-code="DA-KAS" d="m106.25,170.4l.5,1-1,2-1-1-.5-1.5,2-.5Z"/>
      <path data-code="DA-KHA" d="m76.25,120.9l3,1.5-.5,2h-1v1.5l-3-1.5.5-1,1-2.5Z"/>
      <path data-code="DA-KIZU" d="m84.75,131.4l3.5,3.5-1.5.5-1-1-1,2-.5.5-.5-1.5,1.5-2-.5-1v-1Z"/>
      <path data-code="DA-KIZY" d="m99.25,90.9l3.5-1,1,.5-1.5,2.5-3-2"/>
      <path data-code="DA-MAK" d="m97.25,150.9l2-2,3.5,1,1,1.5-1,2.5,1,.5-3,1,1.5,3,2-1.5-.5-2.5,2-.5,2.5-4.5,4.5-4.5-.7-.85,5.2-9.15,13.5-15-.5-1,1,.5,9-6.5-.5-4,5.5,1v1.5l-5,2-8.5,6.5-4,4.5-.5,1.5-5.5,4.5-4.5,5.5v3l-1-1-2,3.5-.5,2,3-1,.5-3,.5,2-1.5,3-1.5,2.5-5,3-5.5,7-1,3.5,1,1,2,7.5v1.5l-2,.5.5,1.5,1,1,1-2,.5,1.5-1.5.5h-1.5l-1-1.5-.5-2.5-2.5-1.5v-2l-2-5-1,1.5-2-3.5,2-3-.5-2.5,1.5-.5-1-2m49-41v-1.5l1.5-1v-.5l-5-.5.5-2,1.5-.5h1l7,5-3.5,1h-3Z"/>
      <path data-code="DA-GUM" d="m50.25,144.4h5.5l1.5-.5v-1h3l3,.5,2,.5-2,3,1,1-.5,3.5,2.5,1,1.15-1.15,2.85,2.65,6.5-2-2.5,2.5-4.5,2h-1.5l-1,1.5-4.5-2.5-1,1.5h-3l1,2.5-2,3.5-3.5-5-1.5,1-1-2.5-4-3,2-3.5.5-5.5"/>
      <path data-code="DA-GUN" d="m52.25,181.4l-.5-1,1-1.5,2-.15,1-1.5-1-.5,1-1.5,1.9.75,3.6,2.4v2l-1.5,2,.5,2.5,2.5-1h2.5l2,5-3.5,3,.7.25-1.2,2.25-1.5-.5v1l-.5.5.5,1-1.5-.5-1,2.5-2.5-2-4.5,2v-5l1.5-1.5-1.5-2,1-1-1.5-.5,1.5-1.5-3-4,.45-1.25,1.55-.25Z"/>
      <path data-code="DA-KAY" d="m89.25,204.9l4.5-3,5.5-.5.5-2h-1.5l2-3.5-1.5-1,3-.5,1.5-2.5,2,3.5-1,3.5v-4.5h-1v4l1,.5-.5,10.5,1.5,8.5-1-3-.5,1-1.5-.5-1,3h-1.5l-.5,1.5-5.5-1.5-1.5-2-3.5-.5-.1-2.35,2.6-3.15.5-4-2.5-1.5"/>
      <path data-code="DA-KAJ" d="m73.75,226.9l2.5-1.5.5-1.5,1-.5v-.5l2-2.5,2,1.5h2.5l1-1-1.5-2,1.5-1.5-1-.5,1-1,.05-3.05.95,1.4.5-1.5,1.5-.5-1,3,1.4-1.7.1,2.35,3.5.5,1.5,2,2.95.8.05,3.7-1.5.5,1.5,1.5.5,2-5,1-3.5,3.5-3-1-4,2-6-.5-2-1.5,1-2-1-1.5"/>
      <path data-code="DA-KAR" d="m81.25,176.9l6.5-5.5,1.5-3.5h1.5l6,3.5v1.5l2-2.5,1.5-.5v-2l2.5,1.5,1.5,4h1.5l1.5-.5.5.5-5.5,13v4l1,1.5-1.5,2.5-3,.5,1.5,1-2,3.5-5-.5,1-3.5-4.5-2h-5l-.5,1.5-1.5-2,1-2-.5-2,1-2-2.5-1,.5-1.5h2l-.5-2,1-2v-1l-3.5-2.5"/>
      <path data-code="DA-KAZ" d="m63.25,135.9l2,.5-1-.5.5-1,1.5,1v-2.5l1,.35.5-1.5,3-1.5,1.5,3.65,4.5.75,1,2.25h1.5l-.5,4,1.5-.5.5,2.5-1,1.5-3.5,1v2l-2.5-1-.5-2-2.5,1-.5,1-3-.5-3,2,3.15,2.85-1.15,1.15-2.5-1,.5-3.5-1-1,2-3-2-.5-1.5-1.5v-1.5l1-1.5.5-3"/>
      <path data-code="DA-KHAM" d="m72.75,106.4l3.5-.5v-1h1.5l.5-1,3.5,2.5,5,1.5-1.5,1,1.5,1.5,1,3.5,1.5-.5,1.5,1.5-.5,2,8,2,1,3-2.5,3,.5,1.5-2.5,1-.5-5-1.5.5v2l.5.5-1,1-2.5-.5-3.5,2.5v2l-1.5,1v1l-4.5-.5-.5.5,1.5,3.5-9-1.5-1-2.45,1.5-3.2-1.5-1.5,3.5-2.85,3,1.5v-1.5h1l.5-2-3-1.5-1,2.5-1-.5-1.5,1.35-1-1.5-3.5-1.5,3-3.35v-2l-1-2,2.5-7.5"/>
      <path data-code="DA-KHI" d="m76.25,234.25l1.5,2.5,4.5,1.5-.5,2.65,1-.5v2l2.5,1v2.5l1-.5,1,2.5-.5,1.5,3,.85v1.5h-1.5l-1-1.5-2,3-1.5-1.5-3,3-2.5-2.5-3.5.5-1-.5-.5-.5,1-2.5-2-2.85,2-3,1-.5v-3l-1.5-2,.5-1-.5-1,1-.5.3-1.2,1.2.05Z"/>
      <path data-code="DA-KHU" d="m44.3,165.5l1.45-.6v-1h1.5l.5-2.5-1,.5,2-3.5,1-.5,3,1,1.5-1,3.5,5,1,3.85h2l1-2,1,1.5-1,.5,2,.65v1.5l-1,.5.5,1-1,1.5,1,4.5-2,2-3.6-2.4-1.9-2.25-3.5.15-1-1.5,1.5-2.5-4.5-3-1,1-2.5-1-.45-1.4"/>
      <path data-code="DA-KIZUM" d="m81.25,135.9l-1.5-3.5.5-.5,4.5.5.5,1-1.5,2,.5,1.5.5-.5,1-2,1,1,1.5-.5-3.5-3.5,1.5-1v-2l3.5-2.5,2.5.5,1-1-.5-.5v-2l1.5-.5.5,5,1.95-.8,2.05,1.8h-1.5l-1,1-5,1v1l3,3-1,1.5,2,.5-1.5,1,.5,4-2.5,2-3.5,1-6.5-5.5-1.5,2-1.5.5.5-4h-1.5l-1-2.25,4.5.75Z"/>
      <path data-code="DA-KIZYM" d="m99.25,90.9l3,2,1.5-2.5-1-.5-3.5,1m-6.5-7.5l2.5-3-.5-1.65,1,1.5-.5,4,3.5,1.5,1.5,2,.5-2.5h1l.5-.5-.5-1,2,.5,1-1-1,2.5h2l1-2.5,1,.5,1-1-1-.5,1.5-2-.5-2,2.5-1,1-2.5h1.5l1.5-4,4,.5.5-1,1.5,1.5.5-2,2.5-4v-1.5l2.5-.5-1,2.65,1.5.5.5-1,1,1,1-.5v-1.5l2,2.5-1.5,8,.5,2.5,1,1.5h2.5l1,1.5-2,9,.5,6.5-2,9.5,1,2-2,2,1.5,3-6.5,3,.5,1h-2.5l-2.2,1.55,1.7-2.05.5-2-1-4.5-1.5-1.5.5-2-3.5-3h-2l-.5-1.5-7.5-2.5v-1.5h-1.5l-2,2.5.5-1.5h-2l.5-.5-1.5-1.5-7-.5-4-2.5,1-1,3.5,1,2-.5,1-2.5-1-.5.5-1.5-.5-2-4-1.5.5-1-1.5-1m47,25.5l.5,4-9,6.5-1-.5.5,1-.5.55-2-1.05,4-4,3.5-5.5,4-1m15-36l.5,2,2-3.5-1.5,4h-1l-1-3.5,2-2,1,1-2,2"/>
      <path data-code="DA-KUL" d="m47.75,218.4l2.5-1,2-2.5-.5-2.5,2-.5v-2.5l3-1,1.5,1.5,2-3v-1l1.5-.5.5,2,1.6-1.4,1.4.9-.5,1.5,1,1.5-3.5,6,2.5,2v2.5l-.5,1.5-3,2-.5,2-1,1h-3.5l-1,2.35h-2.5l-.5-1.5,1.5-3.5h-2.5l-.5-2.5-2.5-1.5-.5-1.85"/>
      <path data-code="DA-KUM" d="m91.25,130.4l5-1,1-1h1.5l14,16.5-4.5,4.5-2.5,4.5-2,.5.5,2.5-2,1.5-1.5-3,3-1-1-.5,1-2.5-1-1.5-3.5-1-2,2,1,2-1.5.5.5,2.5-2,3,4.5,8-2-1-2-4-6.5-6h2.5l-.5-1h-1.5l-.5-2.5.5-4-2,2.5v2l-1.5,2.5-2.5-3.5,1.5-2-1-1.5.5-.5,1.5.5.5-1-.5-4.7,2,1.7,3.5-1,2.5-2-.5-4,1.5-1-2-.5,1-1.5-3-3v-1"/>
      <path data-code="DA-KUR" d="m56.75,241.9l3.5-.5,1.5,1.5-.5-1,1-2,2,.5.5,5,.5-2h1v-2l1.5,2-.5.5.5,3,2-1,2.5.5,1.45,2.1-2,2,1.05,1.75-1.5.5,2,3-.5,2.5,1.5.65,1.5-1-.5,1h.5l3-.5-.5,1.5h-.5l.5,2,2,.5-.5,2-9-.5-4.5-1.5-8-15-1.5-5.5"/>
      <path data-code="DA-LAK" d="m47.25,206.4l2.5-.5,1-2.5-1-1,2-2.5.5-1.5,4.5-2,2.5,2,1-2.5,1.5.5-.5-1,.5-.5v-1l1.5.5,1.2-2.25.8.25v3h1.5l.5,7.5-2,1-1.4,2.1-1.6,1.4-.5-2-1.5.5v1l-2,3-1.5-1.5-3,1v2.5l-2,.5.5,2.5-2,2.5-2.5,1-3.65-5-.35-1.5,3.5-5.5Z"/>
      <path data-code="DA-LEV" d="m67.25,183.4l3,2,1.5-1,.5,1,2-1-1-3,2-2-2-.5-1-3,1.5-.6,1.5,3.1,6.5,4.5,2-.5.5,2h-2l-.5,1.5,2.5,1-1,2,.5,2-1,2,1.5,2,.5-1.5h2.5l-1.5,2,1.5,1v1.5h-1.5l-1.5-2-1,2-.5-.5-1,1,1,2.5-1.5,2-2.5-1-1-2.5-4.5-1-3-5.5-2.5,1-1,1.5h-1.5v-3l-1.5-.5,3.5-3v-5.5"/>
      <path data-code="DA-MAG" d="m79.75,264.4l3.5,2,3.5-3,2-3.65,5-.5v-1l1-.5.5,1,4.5-2.35.8-3,.7,1.5,3-.5,3.5-2.5,1.5,4.5-5,4-7,2.5-4.5,3.5-10,1.5-6.5-1.5v-2.2l3.5.2Z"/>
      <path data-code="DA-NOG" d="m87.75,17.25l1,1.5h1v-1l-2-.5m-37,16l3.5-3,10.5,3.5,6-5,1.5-2-1.5-4-5-3,1.5-2.5,1,1,1-.5v-3l2-1.5,5.5,1.5.5,1.5,7.5-2.5,9.5-4.5,1-5,7.5-4,2.5,2,2-.5,6.5,4,5.5,6,3.5.5,6.5,7-21,35.5-1.5,2-.5,2-1.5,2-2.5-1.5-3,5-1.5,2.5,1.5,2-.5,2-5.5-.5-1.5,1.5.8.9-1.3,4.6-4-2.5-2.5,4-2,.5-5-3-2,2.5-1-1,.5-5,2,1.5,2.5-2.5-7-5.5v-2l-2.5-1.5-1,1-3-1.5-7-9,6.5-9.5-15-10.5"/>
      <path data-code="DA-NOV" d="m64.25,126.25l3.5-1v-1.5l-1.5-1,2-1.5,3.5,1.5,1,1.5,1.5-1.35,1,.5-.5,1-3.5,2.85,1.5,1.5-1.5,3.2-.5-1.2-3,1.5-.5,1.5-.5-1.5-2.5-1,.5-2.5-.5-2.5"/>
      <path data-code="DA-RUT" d="m38.25,211.9l1,2,4.85-.5,3.65,5,.5,1.85,2.5,1.5.5,2.5h2.5l-1.5,3.5.5,1.5h2.5l.5,2.5,1.5.5-.5,9.5,1.5,5.65-.5,1.5-6.5,10-3-.65-.5-3.5-5.5,2-4-2,.5-1-1-3,1.5-1-.5-1,.5-3-1-1.5,1.5-1.5-1-2,.5-2.5-.5-.5-2.5,1-2-1,.5-1.5-.5-1,2-3-1.5-4,1-3.5-2-.5v-3.5l-1-.5-.5-3,1.5-1-.15-3.95,4.65-.4Z"/>
      <path data-code="DA-SER" d="m85.75,197.9h1.5v-1.5l-1.5-1,1.5-2h2.5l4.5,2-1,3.5,6.5.5-.5,2-5.5.5-4.5,3,2.5,1.5-.5,4-4,4.85,1-3-1.5.5-.5,1.5-2-3-2.5.5-.5-2.5-2,.5,1-3-.5-1.5,1.5.5v-2.85l1.5-2-1-2.5,1-1,.5.5,1-2,1.5,2Z"/>
      <path data-code="DA-SHA" d="m35.25,166.4l1.5,1,1-1,3,.5,3.55-1.4.45,1.4,2.5,1,1-1,4.5,3-1.5,2.5,1,1.5,3.5-.15,1.9,2.25-1.9-.75-1,1.5,1,.5-1,1.5-2,.15-1,1.5.5,1-8.5,1.35-1,3h-2.5l-3.5,2.5-.05-2.65-1.95-6.85.5-1-.5-2.5-4-3.85,1.5-2.5,3-2.5Z"/>
      <path data-code="DA-SUL" d="m71.7,250.5l2-2,.55.75-1,2.5.5.5,1,.5,3.5-.5,2.5,2.5,3-3,1.5,1.5,2-3,1,1.5h1.5v-1.5l1.5.5,3,4,6.3-1.35-.8,3-4.5,2.35-.5-1-1,.5v1l-5,.5-2,3.65-3.5,3-3.5-2,.5-2-2-.5-.5-2h.5l.5-1.5-3,.5h-.5l.5-1-1.5,1-1.5-.65.5-2.5-2-3,1.5-.5-1.05-1.75"/>
      <path data-code="DA-TAB" d="m75.75,231.9l6,.5,4-2,3,1,3.5-3.5,1.85-.35-.35,1.35,4.5-.5-2.5,1.5-1,4.35-1,2,1,2h1.5l-.5,3,1,3.5-1.5-2h-2.5l2.5,6,3.5.65,1.8,4-6.3,1.35-3-4-4.5-1.35.5-1.5-1-2.5-1,.5v-2.5l-2.5-1v-2l-1,.5.5-2.65-4.5-1.5-1.5-2.5-1.2-.05.2-.8-1.5-1,2-.5Z"/>
      <path data-code="DA-TAR" d="m91.75,71.75l1.5-1.5,5.5.5.5-2-1.5-2,1.5-2.5,3-5,2.5,1.5,1.5-2,.5-2,1.5-2,21-35.5,2.5,1.5,2.5,7.5,4.5,5-1.5,1.5,1,4,1-.5v-2.5l3.5,1.5v1.5l-2,1.5-3,.5-3.5-.5-3,1.5-.5,1.5v-3l-8.5,13.5.5,7.5,4,2.5-2.5.5v1.5l-2.5,4-.5,2-1.5-1.5-.5,1-4-.5-1.5,4h-1.5l-1,2.5-2.5,1,.5,2-1.5,2,1,.5-1,1-1-.5-1,2.5h-2l1-2.5-1,1-2-.5.5,1-.5.5h-1l-.5,2.5-1.5-2-3.5-1.5.5-4-1-1.5,2-3-5-4"/>
      <path data-code="DA-TLY" d="m19.25,176.25l4.5-3.85,7-1,4,3.85.5,2.5-.5,1,2,7v2.5l-2,2,1,3,4,1-1,1.5v1l-1.5.5-2.5,3,.5,2.5-1.5,2.5,1.5,1.5v5.4l-2.85.25-.65,1.85-3.5-2.5-3,1-1-3,1.5-1.5-.5-2-2-2-1.5-3.5.5-1.5h-2l-.5-1.5-1,.5-1-2,.5-2.5-1-.5,1.5-1-1.5-1.35,2-2.65,2.5-.5,2.5-5-2.5-1.5-.5-1.85h-2v-3.15"/>
      <path data-code="DA-UNT" d="m61.75,156.9l1-1.5,4.5,2.5,1-1.5h1.5l4.5-2v2l-5,2.5,2,7,2.5,3v3.5l1,1.5.5,4.5-1.5-3.1-1.5.6v1.5l-2.5-3.5-2-.15-1.5,1.5-2.5-7.5-2-1,1-.5-1-1.5-1,2h-2l-1-3.85,2-3.5-1-2.5h3Z"/>
    </g>
  </g>
</svg>