<svg data-code="RU-KAM" xmlns="http://www.w3.org/2000/svg" viewBox="0 0 624.25 1019.89">
    <g data-code="kamchatskij_kraj" data-title="kamchatskij kraj">
      <path data-code="aleutskij_rajon" data-title="aleutskij rajon" class="cls-1" d="M526.63,557.26v-.5.5M531.13,553.76h-.5.5M572.63,561.26h-1.5l-1.5-1h-3.5l-1-1v-1l-1-.5-1.5,2.5h-1.5l.5,1.5-6-1.5-1-1-1,1-4-.5-3.5-2-4.5-.5-.5-.5-.5-1-2-2-3-1-3,.5v-1l-1-.5h-3.5l-6,2.5,2.5-6-.5-3.5,8.5-3,1.5-2.5,2,.5v3l1.5.5,2,3,5.5,2.5h2.5l1,1,2.5.5,5.5,2.5,5-.5,1-1,1,1.5h3.5l.5,1,4.5,2.5,4,3.5.5,1-4,.5M621.13,531.26l2.5.5-7.5,1-2-1-4.5.5-3,1.5-4.5-1-5.5,1-6-.5-3-2-1.5-.5,7-1,.5,2,4.5-3,1,.5v1l1.5-1.5,5,2.5,1-2,3.5,1,1-2,1.5,2,1.5.5h2.5l3.5,1,1-.5"/>
      <path data-code="bystrinskij_rajon" data-title="bystrinskij rajon" class="cls-1" d="M256.63,792.76l-1.5-3-16.5-24,15-20.5,28-14.5-2.5-1-2-1.5-.5-1,1-2-1-1,.5-33.5-1.5-1.5-3.5,1.5-1.5,2.5-9.5,4.5-5-.5-11-6-8-1.5-2-5.5-2.5-4,1-14h5l1,.5,2.5-1.5,1.5-2,5-4,4.5-7,11.5,11,25-31,1-1,1,1v1.5l.5,1,2.5,1.5v4l.5,2,1,1.5-.5,2,2,3-3.5,3.5-.5,1.5,4.5,1.5,3.5,3,1.5,3.5.5,2-4,5,1,2.5,4.5,2,1,4,2,1.5.5,1.5,3.5.5,2,1,3.5-1,3.5,1,7.5-4.5.5,5,1,1.5.5,2-1,8,2.5,3v2.5l1,1v2l1,1-.5,1.5-5.5,3h-3l-4-.5-2,1.5-4-.5-.5,1.5,9,31.5-3,20.5,1,5-.5,2.5,6.5,10-3,4.5-7,4.5-2.5-2.5-.5-2.5-3.5-2,1,1.5-1,.5-3.5-1.5h-4v1l-2.5,1.5-3-1-1.5-1.5-5-.5-2.5,1h-4.5l-3.5,1.5-2,2-.5,3.5-2,.5-1,2-2.5.5-.5,2-1.5-.5-2,3.5-2-1.5-5.5,1-5-4"/>
      <path data-code="elizovskij_rajon" data-title="elizovskij rajon" class="cls-1" d="M453.63,1004.76v-1.5l4.5-5-3.5-7-3.5-.5-1.5-1.5v-1l2-1,3-8.5-2-5.5-3.5-3.5-.5-1.5,3-4-.5-2.5-2.5-2.5-2-5,1-5.5-3-2.5-3,.5-2.5-1.5-2,1-2-1v-3l2-2-1-2,2.5-3.5v-1.5l-4.5-4-.5-1.5,1-4.5-3-5.5-2-1.5-.5-2.5,2.5-4v-10l-3-4.5v-5l-1-1.5-2-1-.5-1.5.5-2-7.5-.5-4-4.5-2-.5-3,1.5-2.5-1.5-2,1-3-5.5-3,1.5-.5,1.5v1.5l-1,.5-2.5-2h-1l-3.5,6.5-1.5.5-13-3.5-.5-2-1.5-1h-4l.5-3.5-1-1.5-2-1-2-1.5-5-1.5-1-1.5.5-3,2-3.5-2.5-2.5v-2l-2.5-2v-3l-2.5-5.5-1-2-3-1,1-2.5-2.5-3-3-1-1-1.5,3.5-3.5.5-1.5-.5-1.5-1-1-3.5-1.5,1.5-3.5,3.5-3,3.5,1.5h2l8-3.5,4,1,2,3.5,3,1,.5-.5-2.5-5.5v-4h2.5l1.5,1,3-4,3.5-2v-1l-2-1.5,2.5-3.5-1-1-3.5-1.5-1-1v-2l2-4v-1l-1.5-.5-.5-2,3-5-5.5-5,1.5-2-.5-2.5,1-2-.5-4.5.5-2.5-4.5-1.5v-1.5l4.5-2-.5-2.5,4-.5-.5-5.5-2.5-3,2-2-1.5-5,6-6.5.5-2.5,1-.5,1.5-3-1-2,1.5-2.5-1.5-.5-1.5,1-1-1v-1l2.5-1-.5-1.5-1.5.5-.5-1,1.5-3,1-4-1.5-1.5v-2l2-1.5-2-4,.5-1,3-3-1-4.5.5-1.5,6.5,1,4-3,2.5-7.5,4-1,1-4,3-2,14,1v-4.5l-1-4-1-.5-.5-1,3-1,1-4,1.5-2.5,4,2,3.5-.5,4.5,2,2.5.5,4,2.5h3.5l1,1-1,1,.5,1.5,4,2-1,3,.5,2-1,1.5,1,2-1,7,1,9-2.5,4.5-9,7-8.5-2.5-6,6-4.5,14-1,8.5.5,11-1.5,4.5.5,5,1,5,.5,1.5h.5l5,12,5.5,9,2.5,2.5,2,1v1l1.5-.5-.5-.5.5-1v1l1.5,1.5,4.5,2,4,5-2.5,1v1.5l.5,1.5,2.5,2.5,1,.5.5-1.5h1.5l1,3,1,.5,2-1.5,1,1.5.5,4h1l2,1.5.5-.5-2-2,1.5-2.5,1,3h2.5l1,2,2,.5v1.5l1.5,1.5-2.5,1.5-2-.5-8,1-1.5-.5-.5-2-1,2.5h-4.5l-2.5,5,1,6.5h-2.5l-2.5,4.5-3.5,10.5-5-3-2.5,5-3,.5-3.5,4-.5,4,2,2.5-1.5,4h-2.5l-1,1,1,2.5h1.5l1,7,1,1,11.5-4.5,2,1.5-2.5,2,1.5,2h6l-.5,1.5,1,.5-.5,1.5,1,1.5-1,1.5h-4.5v1h3.5l-1,1v1l3.5.5,1.5-1,2,1.5v2.5h1.5l.5,1.5-1,1,1,.5-.5,4.5,1.5-1,.5-3.5h2.5v1l2,.5-1,.5.5,1-.5,2.5,1,.5,1.5-1.5,1.5,2.5v2l-2,1.5,1,.5.5,2.5-1,.5,1,2h1l1,1,.5,3h-1l-.5,2.5.5,1,2.5,1v3h1v1.5l2,2.5.5,9.5,1,3-1,4,1.5,3.5-.5,1.5,1,1.5-.5,1,1,2.5.5,1-1,1.5.5,3-1,1.5.5,1.5-2,2-2,6,.5,5.5,3,4.5-2.5,2-.5,2,2,10.5-2,6.5v10l-1,3,.5,6.5-.5,7-1-1v-4l-1.5-5-3.5-4-1.5-.5M437.13,866.26v-.5l.5.5h-.5M465.63,958.76l-.5-1h1l-.5,1M444.63,819.26h1l-.5.5-.5-.5"/>
      <path data-code="gorodskoj_okrug_palana" data-title="gorodskoj okrug palana" class="cls-1" d="M187.13,498.72l-.5-1,4-3h1v1l2.5.5-1.5.5.5,1.5-2.5-.5-3.5,1"/>
      <path data-code="karaginskij_rajon" data-title="karaginskij rajon" class="cls-1" d="M191.13,329.45l-.5-1h.5l.5.5-.5.5M180.13,340.95v.5-.5M181.63,342.95v.5l-1-1.5,1,1M178.13,370.45l.5-.5v.5h-.5M268.13,563.45l-.5-1,1-2.5-.5-2-1.5-1.5-1.5-4-.5-9.5-3-5.5,1-4-5.5-3-.5-2.5,1-1-.5-1h-1.5l-1.5-1.5-2.5-7.5-2-2,1-2-3.5-2.5-.5-4-3.5-1.5-.5-1.5-.5-9.5.5-2.5,2.5-2-2-1.5-1.5-6v-2.5l-.5-1h-1.5l-.5-3-.5-5,1.5-1.5-4-3.5.5-1.5,4-2.5-2.5-2.5-2.5-2-2,.5-3.5-3.5-4-6-.5-2.5-1.5-.5-1.5-3,1.5-1.5,5.5-2,1.5-2-.5-4,1-2,4.5.5,1.5-1-5.5-2-3,.5-2.5-2-5.5.5-12.5-2.5-4.5.5-5-5.5-3.5.5-3.5-2-1-3.5-1.5-.5.5-2-1-1-2.5-1,2-11.5-.5-6.5-2-3-2.5-1.5-.5,2-1.5-3,.5-1-3-4,1.5-3-1-3.5.5.5,1-2-.5-3.5,4-5-.5-6,4-2,1-2-1-1.5,1-.5v-2l-1.5-6.5-1-1.5,2-3.5h2.5l1-1.5v-1h-1.5l1-1v-2l2-.5,3-4,2.5-9,5.5-1.5,1,2.5,3,1.5,1.5,1.5,1.5,4,1,1,8-.5,9-2.5v-2l3-2,1.5-2-3-4-1.5-3.5,1-3v-9l8.5-6,1.5,1.5,5-3,4.5-.5-1.5,4.5.5,1h2l1.5,5,2.5,2.5-2.5,8.5-2.5,4,2,1,1.5,1.5-1,2-4.5.5-1.5-.5-.5-1-.5,1,1,2.5v3l-4,11.5,1,2.5,3.5,4.5,2,.5,2.5,1.5h2.5l4,1-5,5-6.5,3.5h-2.5l-.5,2.5-2,.5-1,3,.5,1.5,2-.5,1,1,2-1.5,1.5,5.5-3.5,1.5-1,1.5v5l1.5,3.5,2,3.5,5.5,3,1,1.5v3.5l-.5,1,.5-1.5-2,2v2.5l1.5,1.5.5-2.5-.5,3.5,2,2,1.5-.5,5,1.5,7,6.5.5,5-.5-1v-3.5l-1-1-4,4.5-1,3.5,3.5,3.5,5.5-1.5,3.5,2.5,1,2.5.5.5-2,1.5,1.5-2-1-2-5,1.5-3.5-.5-2,5,8,3,2-1-1.5-.5.5-.5,1.5,1.5.5,1v3l-2,5v3l1.5,2.5-2,11v4.5l2.5,10-3,2h3l1,1,3.5,11,8.5,17,5,5.5,6,3.5,5.5,1.5,3.5-.5,8.5-4-.5,1.5,1.5,1v3.5l.5,1.5.5.5,1-4-1.5-2.5,1-1.5h-1l-5.5-5.5-1.5-4.5,3-3v-1.5l15-1.5,4.5-3.5,5.5,2h2v5.5l1,1,1.5,1,1,2-1,3,3,5.5-3,7,.5,9-1.5,1.5-5.5,2-.5,1.5-1.5.5.5,2h-1.5l.5-1-1-1v1.5l-2,2.5h-2l.5,1h-1.5l-2,2,.5,1.5-4,2.5-2,6-4,2,.5,1-2,1-.5,1.5-2,1-2.5-1-2,2.5-2.5-1-1.5,1-1.5-1.5-7.5.5-3.5,3-7,2.5-6.5,3.5-2.5-.5-4.5,1.5-2-1-1.5,1M310.13,447.45l.5,1.5-1.5-.5-1.5-.5-1-1.5-2.5-.5-.5-1,3-4v-2l-3.5-7-.5-3.5-2-5-3.5-4-1.5-5v-3.5l-4.5,2-1,3.5v-1.5l.5-2,5.5-6.5,3.5-11v-3l-1-2.5,2-7.5,2.5,2.5,1.5-.5,2.5,2.5,6.5,2,2.5,5,3,2.5.5,3.5-4.5,5-1.5,3.5-.5,4-1.5.5-1,2.5v3l-1,3.5.5,3-2,2.5.5,5-.5,4,.5.5-1.5,3,1,2,.5,3.5,1.5,2M313.13,505.45v-.5l1,.5-.5.5-.5-.5"/>
      <path data-code="mil_kovskij_rajon" data-title="mil&amp;apos;kovskij_rajon" class="cls-1" d="M338.63,815.26l-1.5-2.5,1-2-1-2.5,2.5-.5v-3l1.5-3-1.5-.5-.5-2-1.5-1.5-2.5-.5-.5-1,.5-.5-5.5-3-8-1-3.5-2.5-.5-1,7-4.5,3-4.5-6.5-10,.5-2.5-1-5,3-20.5-9-31.5.5-1.5,4,.5,2-1.5,4,.5h3l5.5-3,.5-1.5-1-1v-2l-1-1v-2.5l-2.5-3,1-8-.5-2-1-1.5-.5-6-2-.5-.5-1,6.5-1.5,10-7,4-4,1.5-3.5,2-.5,4.5.5,2,2.5,5-3.5,4-.5.5.5v2.5l1.5,2.5,5.5,1.5,3.5,4,1.5,5.5,4,1.5-1.5,2v3.5l1,3,2,2.5-1,3,.5,5.5,2,3v2.5l-3,3-.5,1,2,4-2,1.5v2l1.5,1.5-1,4-1.5,3,.5,1,1.5-.5.5,1.5-2.5,1v1l1,1,1.5-1,1.5.5-1.5,2.5,1,2-1.5,3-1,.5-.5,2.5-6,6.5,1.5,5-2,2,2.5,3,.5,5.5-4,.5.5,2.5-4.5,2v1.5l4.5,1.5-.5,2.5.5,4.5-1,2,.5,2.5-1.5,2,5.5,5-3,5,.5,2,1.5.5v1l-2,4v2l1,1,3.5,1.5,1,1-2.5,3.5,2,1.5v1l-3.5,2-3,4-1.5-1h-2.5v4l2.5,5.5-.5.5-3-1-2-3.5-4-1-8,3.5h-2l-3.5-1.5-3.5,3-2.5-5-4-2"/>
      <path data-code="oljutorskij_rajon" data-title="oljutorskij rajon" class="cls-1" d="M245.12,345.12l-1.5-2.5-1-2.5,4-11.5v-3.5l-1.5-2,1-1,.5,1h6l1-2.5-1.5-1.5-2-1,2.5-3.5,2.5-9-3-2.5-1-5-2,.5-.5-1.5,1.5-4h-4.5l-5,3.5-2-2h-3.5l-3-1-1-12.5-1-4,.5-1h2.5l2,1.5,3.5-.5,2.5-2.5-.5-1-3-2.5v-6l-4-4.5v-3.5l2.5-1,1.5-4.5,2-10.5v-3l3-2,4,3,3.5-6,3-1.5-2-.5,2.5-7-.5-1-2.5-.5.5-5.5-3-3.5,1.5-4,3-2.5,5.5-1.5,2,1.5,4-1.5,3-2.5-.5-4,1.5-2-3.5-5.5,2.5-.5-.5-2.5,1-.5v-9.5l-2-2,2.5-5v-5l6-8.5,1-6.5,9.5-8.5-1.5-4.5,3-3.5-2.5-1.5,1.5-3.5-.5-1.5-2-.5,2.5-6.5-3.5-2.5h-1.5l-2.5-2-.5-1.5.5-2,3.5-1.5-1.5-2.5-2-.5-.5-4h2v-4.5l1.5-.5.5-1.5,1.5.5v-4l3.5-1v-2l1,.5v-1l1,1,1-1.5,1,.5,1.5-1.5v-1h2.5v-1l1.5-.5-1-1v-1l4-4-.5-2.5-1.5-.5-.5-1.5,1.5-1v-3.5l-.5-1.5h2v3l1.5,1,1.5-1.5-1-2,.5-1.5.5,1,1-.5,1.5,1.5,2-1.5,2-4.5-1-3,4.5-5-1-1-1.5.5-1-.5,2.5-4-1.5-2,1-2.5,3-3,.5.5h2.5l1,2,.5-1,1,1h1l.5-1.5-1-1,1-2-.5-2.5,1.5-3h1.5l1-1.5.5.5,1.5-1,1,.5.5-1.5h1l.5,1.5,1.5,1,2.5-2v-1l-1-1v-2l3.5-2.5-.5-.5-.5-2,1.5-2-2-.5,3.5-4.5-.5-.5,1-3.5-.5-3.5,3.5-1.5-1.5-3.5,2-1,1,1,2.5-2.5,1.5.5,1,1h2.5v.5l1.5-2.5-.5-2.5,3.5-1,2,.5,2.5,3h1l.5,1-1,2.5,1,.5,1,1.5-1,2h1.5l1-1,1,1h4l1,1-.5,1,1,1,1.5.5.5,1,1.5-.5,1.5,1,1-.5,1.5-3.5,2-.5,1.5,2.5h1v-1.5l2-1,2,2,1.5-.5v1l1.5,1.5,1,1.5,3-.5,2,2.5-2,1,1.5,1h1.5l-1.5.5-3.5,7.5-.5,5.5,1.5,3.5-1.5,2,1,4-2-.5-4,1h-3.5l-1.5,3.5.5,1.5,3,2v1.5l5,3,.5,1v1.5l-2.5,1.5v2l.5,1.5,2,.5.5,1.5.5,6.5-1.5,3-3,.5-2-1-1,1.5-.5-1-1.5.5-1,3.5,1,3,7.5-2,1,.5v1l1.5-.5,1,1v2l-3,3,.5,5,1.5,3-3,3-5.5,1v1.5l2,1,1,.5,2.5-.5.5.5-1.5,4.5,2-3,1,.5,2,2.5.5-2.5,1,.5,1,3.5-3,4h-5.5l-4,2,5-1,5,2,1,1-.5,2.5,1,3.5,1.5.5.5,1-1-.5.5,1,1,.5-1,1-3-1.5h-.5v1.5l1,1h1v1.5l-2,3-2.5.5-1,2,1,1.5-1,1,1,2.5,2,.5,1.5,2-2.5,2.5v2.5l1,4,1.5,1.5-1,1.5-.5,6.5-2,2.5v5l-1.5,3.5,1.5,5-1,.5.5,1.5-2.5,2,1,1h1l-.5,1.5,1,.5,2-1.5,1.5,1.5.5,2.5-1.5,2,.5,3,2,3.5,3,4,3.5,3,1,2.5,3,2.5v2l-1,3-.5,1h-3l-2.5,1.5-1-2.5-1.5-.5-7,2-3.5-2-3-1-3.5-2.5-4,.5-2-2h-2l-2.5-3h-3l-6.5,2h-4.5l-6,2.5-10.5,9-1.5,2.5.5,1.5-2.5,1h-4l-7,9-4,12h-3.5l.5,1,2,1,.5,1.5-2,1,.5,2.5-2.5,4.5-.5,2.5-1.5,1.5,1,2-1.5,1,.5,1.5-.5,3-3.5,1.5-4-.5,3,2.5,2,.5.5,1-2,3,.5,1,.5.5.5,4.5-1,1h1v.5l1,4,1.5,4,1,8v7.5l2,5.5.5,4-3.5,4.5-1,.5-1-1-2.5-3.5-2.5-6-2.5-1.5v-2l-1.5-.5-1.5-3-1.5-1.5,1-2.5-1.5-3.5-3.5-1.5-3.5-4.5-3-1-1.5-1.5.5-.5,1,1.5.5.5,1-2.5-.5-3-2.5-1-3,.5-1,2.5,1-.5v.5l-2.5,4v1.5l1.5,3.5-2,7,1,3.5-4.5,15v6.5l-1,2.5,1.5,2.5h2.5l.5.5h.5v2.5l1,1,.5,1.5,1,1.5.5,5-2,3v4.5l-3-1-1.5-2-3.5-3-5-2-4,1.5v-.5l-3-.5h-4.5l-1.5,2.5,1.5,2.5-1.5-1.5-.5,1.5,1,1.5,2.5,1.5h-5.5l-3-2h-1.5l-2-2M390.12,113.62h.5-.5M395.12,124.12h.5-.5M390.12,103.12v-1h.5v1h-.5M390.12,87.12v-.5.5"/>
      <path data-code="penzhinskij_rajon" data-title="penzhinskij rajon" class="cls-1" d="M102.62,285.62l.5-4h2v-1l-1-.5,1-2-.5-1.5,3-3v-3l1.5.5,2-2,.5-1-1-2v-1.5l-2-1.5v-1l-2.5-1.5-.5-1-1-.5-1-2-8-4-.5-4.5,1-.5-1-2.5h-1l.5-.5-1.5-1-2,.5-1.5,3-2.5-.5-1-.5h-1.5l-1-1.5,1-1.5-2.5-.5-1.5-1-2,1.5-2.5-.5-5.5,1.5-1-1-1.5-1.5-.5-1.5-2-2,.5-1.5-1.5-.5-.5-1v-2.5l-.5-1.5h2l.5-3,2-1.5-.5-1-2-1,4-4.5-1-2h-1v-1h-.5l-.5-1-2.5-.5-.5-3.5-3-.5-1.5,1-1-1-.5.5-.5-1,2-2.5v-3l1.5-1-1-.5.5-1-.5-1h.5l-1-2,.5-.5-3-2v-1.5h-.5l-1.5-2-1-2.5-2.5-.5-1,1.5-2-1-.5-1.5-1.5-1-2.5,1.5h-2.5l-.5-2.5h-.5l-1.5.5.5-.5-1.5-1v-3l2-1.5-1-2,2-1-2.5-.5v-2.5l-1.5-.5-1-1h-4.5l-.5-1.5-.5-.5-.5-1h-1l-.5-1.5-1.5.5-.5-1-1-.5.5-1.5-.5-.5v-1l1-1,.5-3,5.5-2-1-3.5-1.5-1-.5-1-.5-.5.5-2h-1l-1-1,2.5-2-1.5-1-.5-1.5,2-3.5-1.5-.5-1.5,2-1-1,.5-1-1-.5h.5l-1.5-1-.5-1-1.5,1-.5-1-1-.5-6,.5v-1.5h-2.5v-1.5l-2-1-.5-4.5-2-2-3.5.5-1-1.5-1,.5-1.5-1,1-2.5,2-.5,2-2-1-.5.5-2.5-1-1,1-2.5-2-2.5.5-1.5,1,.5.5-1.5h1.5l1,1,1-.5,2.5-3,.5,1,1.5.5,2.5-1v-1.5l1-.5,1-2-1-2,2-1.5-1-1.5.5-2,5.5-.5,3-1.5,2,.5,1,1,2-1,1.5,1v-2l3.5.5,2-1,1,.5,3,.5.5,1,1,1,1.5-.5.5-1.5,1.5-1-2.5-2.5-.5-1.5-1.5-.5-2-3-1-.5,1.5-3.5h1.5v-1l5-.5.5.5h1l.5,1.5,1,.5.5-1.5,1,.5,1.5-.5v-2l2.5-.5,2-3,2.5,1,1-1,1,3,1,.5,2.5-1,1,1,2.5-1-.5,3h1l1.5,1,4-4-.5-2v-4.5l1,1,3.5-1.5-.5-1,2.5-1.5h3l1.5-1,2.5.5,1.5-4.5,3,.5.5-3,3-2.5-1-5,1.5-.5-2-1.5,2.5-1v-1.5l3.5,1.5,1,.5h1.5l2,2h2.5l1.5-2h.5l1,1.5,3.5-1,1.5.5,1,1h2.5l2.5,1.5,1.5-4,1.5.5,2,1.5.5-1.5,4.5-1.5,1-2.5,1.5-1v-.5l-1-1.5v-2l4-1,1.5-3.5,1.5-.5,3,.5.5.5h1l1,1,1-.5.5,1,1.5.5,3.5-3,2.5,1.5,1.5,2h1.5l.5,1,2.5.5,1.5,2,1.5,1,2.5-2.5h.5l1.5-1,.5,1,1,.5h1l6-7,1.5,2,1-.5,1,2,1-.5.5.5,2-1.5,4,.5,4,3v1h.5l1,1.5,1.5-.5,1,1,1-.5-.5,3.5h.5l.5,2,1.5.5v1l-3.5,9.5,1,1.5-.5,2,1.5,4v6.5l.5.5.5,1.5-1,3,2,1.5,1,2.5h-2l.5,2.5,2.5-.5.5,1-2.5,3.5,1,1-.5,5.5,1,1.5h5l2-1.5,9.5-1.5,1.5-3,1-.5-.5-2,2-1.5,2,1,.5-.5,5-.5,1.5-1,1,.5v1l8-1,2,.5.5,1.5,1-1,3.5,1,.5-2,1,1,3.5-1,.5.5,1.5-2.5,1.5-.5v-2l1-.5,2.5.5-.5,2,2.5,2,1.5,4,2-2,2.5.5,1.5,2-.5,1,1,.5,2.5-.5h.5l1,1.5,1,1,1.5-.5,2,.5.5,2h1l.5,3.5-1.5,1.5-1-.5.5,4,2,.5,1.5,2.5-3.5,1.5-.5,2,.5,1.5,2.5,2h1.5l3.5,2.5-2.5,6.5,2,.5.5,1.5-1.5,3.5,2.5,1.5-3,3.5,1.5,4.5-9.5,8.5-1,6.5-6,8.5v5l-2.5,5,2,2v9.5l-1,.5.5,2.5-2.5.5,3.5,5.5-1.5,2,.5,4-3,2.5-4,1.5-2-1.5-5.5,1.5-3,2.5-1.5,4,3,3.5-.5,5.5,2.5.5.5,1-2.5,7,2,.5-3,1.5-3.5,6-4-3-3,2v3l-3.5,15-2.5,1v3.5l4,4.5v6l3,2.5.5,1-2.5,2.5-3.5.5-2-1.5h-2.5l-.5,1,1,4,1,12.5,7,1.5-8.5,5.5-.5,9-1,3,2,4,3,3.5-1.5,2.5-3,2v2l-9,2-8,.5-1-1-1.5-3.5-1.5-1.5-3-1.5-1-2.5-3.5.5v-1l-1.5-3.5-8,2-1.5-1v1l-1-.5-.5-3.5,1-1.5-.5-2-2-1v-.5l.5-2.5v-4l2-6-1-1.5-1.5-1-1.5-6-3.5-2-2-.5-3,1-1,1.5.5,2.5-1.5-.5-2-2-2-6.5-3.5-5.5,2.5-4-.5-2-4.5-6-2.5-1.5-2-4.5-4.5-4-1-2-4-3.5-.5-2.5-2.5-1.5-.5-2-2-1.5-1.5-3,1-2.5-.5-2,2-6-1.5-2.5,1-1.5-1-2.5,3.5-5,7.5-2,2-2,1-1.5-.5-1.5-.5-1-2.5-1.5-7.5,1.5-2.5,2h-3l-1.5-1h-1.5l-.5-1-4-1-4.5,3-1.5,1.5-.5,3.5-5,6-.5,2,1,4-3,.5-1.5,1-8,15.5v1l3,2.5-.5,2.5.5.5h1l2,1.5,2-1,3.5,1-2,3.5v1l1.5.5-1,2v4.5l1,.5,1.5,2,2,1.5,2,.5.5.5v1.5l1,.5,1-1h1.5v3l1.5,1.5.5,1.5-1,1.5,2,1-.5,2h1v.5l1,1,1.5,4,.5,2,3.5.5,10-3,.5,1,1.5,1.5-2,4,2,.5v.5h-2l-1,2,.5,2.5h1.5l1,1-.5,4-1.5-.5-3-2-1,1.5h-1v-1.5h-1l-.5,1.5-1-1.5,1-3-1.5-1-3.5-.5-2.5,3.5-1,4.5,2.5,1,2-2,2.5.5-.5,1-2,1.5-2.5-.5-6,1.5-2-1.5-1.5-2.5-2.5.5v-4l-1.5.5-1-.5-1,1-3.5-3.5-.5.5-3-.5.5-3.5,2.5-.5.5-1.5-.5-1.5-1.5-1,1-1.5-2-1-1.5-1-.5-1.5-5,2-1.5,2-3-.5-2,.5-1-.5M124.62,248.62v-1l.5-.5.5,1-1,.5M139.62,309.12h-1l1-2.5,2.5-.5-2.5,3M154.62,303.12l-.5-.5.5-.5.5,1h-.5M155.62,304.62v-1h.5l.5.5-1,.5M134.12,208.62h.5-.5M141.12,209.62h.5-.5M144.12,213.12h.5-.5M124.62,246.62v-.5.5"/>
      <path data-code="petropavlovsk-kamchatskij_gorodskoj_okrug" data-title="petropavlovsk-kamchatskij gorodskoj okrug" class="cls-1" d="M420.62,853.62l.5-5,3.5-4.5h3l2.5-5,5,3-.5,6.5,1,6-.5,3.5-2-.5-1.5-2-.5,1-1.5-.5,1-1.5-4.5-2.5h-2.5l-3,1.5"/>
      <path data-code="sobolevskij_rajon" data-title="sobolevskij rajon" class="cls-1" d="M215.62,770.41l8.5-4,3,.5.5-1,3.5.5.5-.5,1.5.5,3.5-1,2,.5,16.5,24,1,3,5.5,3.5,5.5-.5,2,1,2-3.5,1.5,1v-2l3-.5,1-2,1.5-.5,1-3.5,2-2.5,3.5-1h4.5l2.5-1.5,5,1,1.5,1.5,3,1,2.5-1.5v-1.5h4l3.5,2,1-1-1-1,3.5,2v2.5l5,4.5,2,1.5,8,.5,5.5,3-.5,1,3,1.5,1.5,1.5v1.5l2,1,.5.5-2,2.5v2.5l-2.5,1,1,2.5-1,1.5,1,3,4.5,2,2,5-1,3.5,3,1,1.5,1.5v3l-3.5,3.5,1,1.5,3,.5,2,3-.5,3,3,1,1,1.5,2.5,6v3l2.5,2,1.5,3.5-2,2h-2l-4.5-2-3,.5-.5,4.5-5.5,3.5v2l-5.5,8-2,4.5-9.5,6.5-22.5-22.5-21.5-18.5-12-11-27-27-10.5-13-11-18v-1l-6-8"/>
      <path data-code="tigil_skij_rajon" data-title="tigil&amp;apos;skij_rajon" class="cls-1" d="M186.84,409.62l2,1,1.5,1.5-1,1.5,2,1,1,3.5,3.5,2,3-.5,5.5,5h4.5l12.5,2.5,5.5-.5,2.5,2,3-.5,5.5,2-1.5,1-4.5-.5-1,2,.5,3.5-1.5,2.5-6,1.5-1.5,2,2,2.5,1.5,1,.5,2.5,4,6,3.5,3h1.5l3,1.5,2,3-3.5,2-.5,2,4,3-1.5,2,.5,5,.5,2.5h1.5l.5,1.5v2.5l1.5,5.5,1.5,1.5-2,2.5-.5,2.5.5,9.5.5,1,3,2,.5,3.5,3.5,2.5-.5,2.5,2,1.5,2.5,7.5,1.5,1.5h1.5l.5,1-1,1.5.5,2,5,3-.5,4.5,3,5.5.5,9.5,3.5,7-1,3,.5,1,1.5-1,2,1-1,2.5,2,2,.5,1,1,.5v2l2,2.5v2l1,1-.5.5,1.5,4.5-2,2,3,1v3.5l1,1.5-.5,1v3.5l1,.5v1h1l1,2-3,4,1,4.5,2.5,1.5,1-1,.5,1-.5,2.5-2,1-.5,2.5h2l2,1.5v1.5l2,2-2,1.5,2,1-1,1v1.5h2l.5,1-1.5,4.5,1,1,1.5.5-25.5,32.5-11.5-11-4.5,7-5,3.5-1.5,2.5-2.5,1.5-1-1-5.5.5-1,14,2.5,4,2.5,5,8,2,11,6,5,.5,9.5-4.5,1-2.5,4-1.5,1.5,1.5-.5,33,1,1.5-1,1.5v1l2.5,2,2.5.5-28,15-15,20.5-2-.5-3.5,1-1.5-.5-.5.5-3.5-.5-.5,1-3-.5-8.5,4-6.5-9.5-2-6-.5-3h-1l-1-2-6.5-13.5-1.5-5.5-4.5-8.5-3.5-8-2-9.5,1-3,.5,3,1-1-1.5-4,2-5.5.5-6.5-1-5-1-1.5-1.5-.5-.5-2h5l1.5-2-1-.5-.5-1.5-5.5-21.5-1.5-3-2.5-2.5-6.5-5.5-6.5-3.5-3.5,1v-4.5l-1-.5v-1l1.5-1,.5-5,1.5.5,1,1h3l.5.5,6-4,2.5-4,1-4-1.5-5.5-2-1.5.5-5-.5-.5h-1v-1.5l2.5-1.5.5.5,1.5.5,4.5-3,3.5-4,1.5-4,2-1.5,2,1,1-.5-3-2-1.5,2,1-5.5-.5-5,1-12,3.5-19-2-9,.5-5.5-.5-5,.5-7.5-1-4-1-1v-1.5l1-2-.5-3.5-3-3.5-1-1-1,.5-1.5-4,1-4.5,2.5-1,2,1v-2l1.5-.5h-2.5v-1l-1.5-.5-4,3.5-.5-2.5.5-6-.5-6.5.5-2.5-1-3,2-2.5.5-5-2-5-3-6,2.5-3v-2l4-7-.5-4-1.5-1.5,1-1.5-.5-3,1-3-.5-4.5.5-3.5-2-5.5.5-2.5-2-6.5,1.5-2M184.34,675.12v-1,1M178.84,672.62h.5-.5"/>
      <path data-code="ust_-bol_shereckij_rajon" data-title="ust&amp;apos;-bol&amp;apos;shereckij_rajon" class="cls-1" d="M326.12,889.62l9.5-6.5,2-4.5,5.5-8v-2l5.5-3.5.5-4.5,1.5-1,6,2.5,3.5-.5.5-1.5,1,1-3,5,1.5,2.5,5,1.5,2,2,2,1,1,1.5-1,3.5h4.5l1.5,1,.5,2,13,3.5,1.5-.5,3.5-6.5h1l2.5,2,1-.5-.5-1.5,1-1.5,3-1.5,3,5,2-1,2.5,1.5,3-1,2,.5,4,4,7.5,1-.5,2,.5,1.5,1.5,1,1,1.5.5,4.5,3,5v10l-2.5,4,.5,2.5,1.5,1.5,3.5,5.5-1,4,.5,2,4,4,.5,1.5-2.5,3.5.5,1.5-1.5,2.5v3l2,1,2-1.5,2.5,2,3-.5,2.5,2-.5,6,2,5,2,2.5.5,2-2.5,4.5.5,1,3.5,4,2,5.5-3,8.5-2,1-.5,1,1.5,1,4,.5,3.5,7.5-4.5,5-1,3-2.5-4.5-2-2.5-4.5-1-2.5,1-3-1-5.5-6.5-6-4.5-10.5-14-16-18.5-11-10.5-30-21.5-20-21-13-12.5"/>
      <path data-code="ust_-kamchatskij_rajon" data-title="ust&amp;apos;-kamchatskij_rajon" class="cls-1" d="M300.62,671.62l-1-2.5,4-5-.5-2-1.5-3.5-3.5-3-4.5-1.5v-1.5l4-3.5-2-3,.5-3-1-1.5-.5-1.5v-4l-2.5-1.5-.5-1.5v-1l-3-1.5-1-1,1-.5.5-4-.5-1h-2v-1.5l1-1-2-1,2-1.5-2-2v-1.5l-2-1.5h-2l.5-2.5,2-1,.5-2.5-.5-1-1,1-2.5-1.5-1-4,3-4.5-1-2h-1v-1l-1-.5v-3.5l.5-1-1-1.5v-3.5l-3-1,2-2-1.5-4.5.5-.5-1-1v-2l-2-2.5v-2l-1-.5-.5-1-2-2,1.5-3.5,4-.5,2.5.5,6.5-4,7-2.5,3.5-2.5,7-.5,2,1.5,1.5-1,2,.5,2.5-2.5,2.5,1,2-.5v-1.5l2-1v-1l4-2.5,1.5-6,4.5-2-.5-2,2-1.5h1.5l-.5-1.5h2l2-2v-1.5l1,1-.5,1h1.5l-.5-2.5h1.5l.5-2,6-1.5,1-3.5,3.5,4.5,4,4,9.5,6.5,3.5,6.5,7,9,3.5,1,4-.5,1-1.5-.5-2.5,1-2,2.5-.5,1.5-3.5h1.5l-.5.5,1,1h2.5l2,5,3,1.5,1,2,4,3,.5,2,4,1,4.5,2.5,2,3.5,4.5,3.5v4l-2,4.5.5,5,2,3.5-4.5,2.5-4.5.5-4.5-1.5-1.5-1.5-7.5-1-6,11.5-1.5,7.5.5,4,2.5,1.5v2l2,3.5,2,7,3,4.5,2,8.5,4,7,3.5,4.5,7.5,7.5,10.5,7.5-2,3-.5,4-3,1,.5,1,1,.5,1,4v4l-14-1-3,2.5-1,4-4,.5-2.5,8-4,3-5.5-1.5-1.5,1.5-1-1-.5-5,1-3-2.5-2.5-1-5,1.5-3.5-3.5-1.5-1.5-5.5-3.5-4-6-1.5-1-2.5v-2.5l-1-.5-3.5.5-5,3.5-2-2.5-4.5-1-2,1-2,3.5-3.5,4-10,7-6.5,1.5.5,1h2v1l-8,5-3-1-3.5,1-2-1h-2.5l-1-.5-.5-1.5-2-2-1-3.5-4.5-2"/>
      <path data-code="viljuchinskij_gorodskoj_okrug" data-title="viljuchinskij gorodskoj okrug" class="cls-1" d="M422.12,870.62l-1-1-1-7.5-1.5.5-1-1v-1.5l1-1h2.5l.5,1.5,3-.5-1.5,2,1.5,1.5,2,.5,3-2-1-1-3,1,1-1,2.5-.5,2-2,1.5.5-.5,1,1,1-.5,1h2.5l-1,3,1,1.5-1.5-1-11.5,5"/>
    </g>
</svg>