<svg id="RU-IN" xmlns="http://www.w3.org/2000/svg" viewBox="0 0 44 67.5">
      <path data-code="IN-KAR" d="m31.25,17.25l2,1.5,1.5-2.5.5,1-1.5,2-2.5,8-3.5-.5,3.5-9.5"/>
      <path data-code="IN-MAL" d="m23.75,2.75l4.5,1.5-1,1.5,1.5,1,2,.5.5-1,1.5,1-1,3-1.5-.5-1,2.5-.5-.5.5-1.5-.5-1-5.5-2,1-3-1-.5.5-1"/>
      <path data-code="IN-NAZ" d="m19.75,23.25l2-3,1.64.4h.01s1.34-.4,1.34-.4l1-.5-2,5v3l.5.5-5.5,4.35,1-9.35"/>
      <path data-code="IN-DZH" d="m6.75,50.75h2.5l1.5,3,4,1,9,7-.5,2-9.5,3.5-1.5-5-3.5-2.5-2.5,3h-2l-2.5,3.5-1-.5-.5-2.5,2-6-1.33-2.5,2-5,.5-4,1.23-1.3,1.77,2.8-.52.94.85,2.56Z"/>
      <path data-code="IN-MALM" d="m18.75,6.75h1l1-2.5,2-1,1.5-3,6,1.5-2,2.5-4.5-1.5-.5,1,1,.5-1,3,5.5,2,.5,1-.5,1.5.5.5,1-2.5,1.5.5,1-3-1.5-1,1-2,4,2.5-2,2.5,3,1-.5,2,1,1.5-2.5,3.5-.5-1-1.5,2.5-2-1.5-5,1-1.5,2-2.5.35h0l-2-2.35,1-4,1,1,1-1.5-5-2,.5-5"/>
      <path data-code="IN-NAZM" d="m13.75,23.1l7-10.35,2.5,1-1,1.5-1-1-1,4,2,2.35,2.5-.35h0l1.5-2,5-1-3.5,9.5,3.5.5v1.5l1,1-.5,2-5.5,4.5-1,2.5-1.5.5v1.5l-1.5.5-2.33-4.5,1-.5-.81-1.08-.69-.92.23-1.26-.9-.39,5.5-4.35-.5-.5v-3l2-5-1,.5-1.37.41h0l-1.13-.06-.41-.48-2.09,3.13v-.5l-2,4.5-4-4.15Z"/>
      <path data-code="IN-SUNM" d="m10.75,53.75l3.5-3.65h1.5l.5-1,2,.5,1.5-2-1.5-.5h1l1-2.5,2-.5v-2.35l1.5-1v-1.5l1.5-.5,1-2.5,5.5-4.5.5-2-1-1v-1.5l2.5-8,4-5.5,4.5,2.5,1.5,3.5v1l-1.5-.5-.5,1.5,1,1,1,4-2,.5-2.5,4h-1l-1.5,3-2,4.5,1.5,3.5-3.5,3.5h1l-2,2-.5,2-1,1-1,2.5.5,1-1,1.5,1,1.5-1,1.5-5,3-9-7-4-1"/>
      <path data-code="IN-MAG" d="m20.24,33.19l1.55-1.98.5.5v1.5l-1,1-1.05-1.02Z"/>
      <polygon id="IN-SUN" points="33.24 39.25 33.7 39.01 34.93 39.53 36.25 42.25 34.26 44.24 33.73 42.46 32.9 42.54 31.68 41.85 33.21 41.88 33 41.03 33.43 41.27 33.4 40.29 33.62 39.86 33.24 39.25 33.24 39.25"/>
</svg>