<svg xmlns="http://www.w3.org/2000/svg" viewBox="0 0 145 101.85">
      <path data-code="IVA-FUR" d="m55.75,12.75l1.5-.5v-1l.5-.5.5-1.5,1,.5,1.5-1,2.5.5,1.5,2,2-1.5-.5.5,1.5,1.5-.5,1.5,1-.5,2,2,1.5-1.5,3,1.5v.5l-1,1.5h1l1,1-1.5,1v1.5l.5-.5v2l-1,.5,1,1.5-.5.5.5,2,.5-1,1.5.5-1,1,.5,1-1.5-.5.5,2-.5.5,1.5,3-.5.5-3.5,2-1.5-.5-.5-3-1-1v-2l-1.5.5-.5-1.5h-2.5l-.5-2-1.5-.5,1.5-2.5-2.5-1.5,1.5-1-1-1-1.5,1-2-2-1,1-2.5-.5-.5,1.5-.5-2,.5-.5-.5-2h.5l1-1.5,1,1.5,1.5-1.5-2.5-1.5"/>
      <path data-code="IVA-GAV" d="m6.75,32.25h2l3-4h1l4.5-6.5v-1l3,1-.5,1,2,2-.5,1.5,2,1,1.2-.8-.2,2.15-1,1.5-1-.5v1l1,3.5,1-.5,1,1.5-1,1.5v1.5l-1.5,1.5,1,1.5-2,.5,1.5,1.5-2,2,1,1-1.5.5,1,.5-.6,1.45-2.4.15-3.5-.5-1,.5-.5,1h-2.5l.5-1.5-1.5-.5v-2.5l-2-1.5-2,.5v-1h-1.5l.5-2.5,2.5-1.5-.5-3.5,1-1.5-2-.5,1-.5-.5-.95"/>
      <path data-code="IVA-ILI" d="m1.75,10.75l2.5-1v-1l2,2,1-1-.5-1.5.5-1,3-.5,1.5-1,1,.5,1-1.5.5-.5-.5-2h2l1.5,1,2.5-2,4,2.5.5-1,.5-.5,2,3,1-2h-.5l.5-2h1l1.5-1,2,2h3.5l1-.5,2.5,3-3,3.5h-2.5l-3.5,1.5-.5,1,1.5,2-2.5,1.5,3,1.5-.5,3.5-1.5,2-4,.5-1,1.5-.3,3.2-1.2.8-2-1,.5-1.5-2-2,.5-1-3-1v1l-1.8,2.6-3.2-1.6-2-5.5-1.5-1-.5,1-1-.5.5-1-4,1.5-.5-.5-.5,1-1.5-1-.5-1,.5-2-1-.5,1-1h.5v-1.5"/>
      <path data-code="IVA-IVA" d="m52.75,30.75l2.5-.5.5-1.5.5.5,1.5-1.5,1,.5,1,1.5-.5,1.5h1l-1.5,2,1,.5-1,2.5.5,1.5h-1v-1.5l-1.5,1v-1h-2l-1-1.5.5-3.5-1.5-.5"/>
      <path data-code="IVA-IVM" d="m56.75,37.25v2l-.5.5,1,1v-1l.5.5,1-.5v-1l-2-1.5m-4-6.5l1.5.5-.5,3.5,1,1.5h2v1l1.5-1v1.5h1l-.5-1.5,1-2.5-1-.5,1.5-2h-1l.5-1.5-1-1.5-1-.5-1.5,1.5-.5-.5-.5,1.5-2.5.5m-6.5-8.5l2.5.5.5-2,2-.5.5-1.5v1l1-.5,2,1,.5-1.5,2.5.5,1-1,2,2,1.5-1,1,1-1.5,1,2.5,1.5-1.5,2.5,1.5.5.5,2h2.5l.5,1.5,1.5-.5v2l1,1,.5,3,2.5,2.85-2,1.15-.5,1.5-2-.5-1,1-1-.5-2,.5-.5,2-1.5,1.5-1.5-1-2,.5-1.5-1-1,.5-.5,1-1-1-1.5,2h-1.5l.5-1-.5-1.5h-1v-3l-1.5,1.5-1-2.5-1.5.5,1-1.5-.5-1.5,2-.5-.5-1,1.5-3.5-2.45.15-1.05-2.15,1.5-2-2.5-2v-3"/>
      <path data-code="IVA-YUR" d="m115.75,48.25l3.5-2.5,3.5-5,3,1,1.5,2.5.5-1,.5,5,9.5,3,1.5-1,.5-2,3-2.5-.5-.5.5.5v-2l1-.5,1-1.5-1.5,2.5.5,1.5-1.5,1.5-.5,1.5h-1l-1,1v2.5l3,.5v1l-7.5,3.5-3,3.5-4.5,1.5-2.55,4-7.45-2.65-2.7-3.45.7-1.45-2-2.5,2-4-.5-1,1.5-2.5-1-.45"/>
      <path data-code="IVA-YUZ" d="m60.75,71.6l.5-1-1.5-1,3-1,1-1-1.5-1.5.5-1.35,1.5-1-.5-1h1.5l2.5-2.65v4.5l2.5,3,9,3.5.5,1.5,3.5,2,.25,1h-.75l-1,2.5-.5-.5v3.5l1.5-.5,3,1v4.5l-1.5,1.5-3,.5v1.15h-1l-2.5,3.5-3.5-1-2-2.5-1.5,2.5-2.5-1-.5,1.5-4-.5.5-2h-2.5l1.5-1.5.5-2.5.5-.5v-1.5l2-1.5-.5-2h.5v-.5l-.5-1.5-3,.5-3.15-1.65,1.1-1.4-3.45-1.1v-2.5l1-.5h2.5Z"/>
      <path data-code="IVA-KNM" d="m103.25,23.6l4,1.5,1.5,1.15h-1.5l-1.5,2.5v2.5h1.5l1.5,2,1.5-1.5,1,.5v-1h.5l3,.85,3,4.5,2.5-.5,2-3.5,1,1,4-7.35,4.5,2.5v1.5h1l1-2.5,2-1,2,2-.5,1,1,1.5-2,1-.5,2.5-1,.5v1l-3.5,1,.5,2-1,1,.5,1-2,1v1.5l-1-.5-1,1-1.5-2.5-3-1-3.5,5-3.5,2.5,1,.5-1.5,2.5.5,1-1.5,3-3-.5-2,3.5-3-2h-1.5l-1.5-2,.5-.5-1-1,1-1v-1.15l1-1v-1l-2-.5-1.5-3.5v-1.5l1-.5-1-2,1-1.5-2-3,.5-2,2-1-.5-.5.5-2-3-3,1-1.5-.5-1,3-1.5Z"/>
      <path data-code="IVA-KIN" d="m107.25,26.25h1.5l1,3.5,2,1.5h-.5v1l-1-.5-1.5,1.5-1.5-2h-1.5v-2.5l1.5-2.5"/>
      <path data-code="IVA-KOK" d="m56.75,37.25l2,1.5v1l-1,.5-.5-.5v1l-1-1,.5-.5v-2"/>
      <path data-code="IVA-KOM" d="m30.25,9.75l3.5-1.5h2.5l3-4,1.5,1,1-1.5h2.5l-1.5-2,3.5.5.5-.5,2.5,2.5.5,1.5,1.5-.5,1.5,2,3-1,1.5.5v2.5h1l-.5,1.5-.5.5v1l-1.5.5,2.5,1.5-1.5,1.5-1-1.5-1,1.5h-.5l.5,2-.5.5.5,2-2-1-1,.5v-1l-.5,1.5-2,.5-.5,2-2.5-.5-3.5,4.5-1-.5-1,1h-1.5l-1-2-2-1h-1v1l-.5-.5-.5,1.5-1-2.5,1.5-.5-.5-2h-2l-.5,1-2-1,1.5-2,.5-3.5-3-1.5,2.5-1.5-1.5-2,.5-1"/>
      <path data-code="IVA-LEZ" d="m36.25,42.25l4.5-.5,1-1-1-1,2-1.5,1.5,1-2.5-3,.5-1h2v-1.5l2-1-1-1.15,5.5-.35-1.5,3.5.5,1-2,.5.5,1.5-1,1.5,1.5-.5,1,2.5,1.5-1.5v3h1l.5,1.5-.5,1h1.5l.5,2.85h-1v1l-1.5,1v1h-2l-2.5,3.65-2.5-1-2,1.5v1l-3-.5-.5,1-.5-1-1.5.5-.5,1h-1l-1.5-5-2-1,5-6-1-.5v-2.5"/>
      <path data-code="IVA-LUK" d="m89.25,51.25l.5.5,1.75-.45,3.75.85,1.5-1,1,1v-1l2,.5,1-1.5v2.5h1v-1l1,1.15,1,1-.5.5,1.5,2h1.5l3,2,2-3.5,3,.5-.5,1,2,2.5-1.5,3-2.5-1.5,1,1-1,2.5-.5,3.5-4,3.35.5.5-.5,1-3.5-3v-1.5l-2.5,1-2-2-2.5,1v-1.5l-1-1,1,1.5-1,.5-3-.5v-2.5l-2,1-.55.45-3.45-3.45v-4l.5-1.85h1.5l-.5-1,1-1-1-1,1.5-.5-.5-1.55"/>
      <path data-code="IVA-PAL" d="m68.25,57.1l2.5-.5v-1l1,.5,1-2.5,2.5-.5.5-1.5,1.5-1,.5.5v2.5h2l3,2.5,2-1.5.5.5-.5,1.5,2,1.5v4l3.45,3.45-1.45,1.05-.5,4.5-2.5.5-.5,2.5-1-1v1l-1,.5-3.5-2-.5-1.5-9-3.5-2.5-3v-4.5l-1-.5,1.5-2v-.5Z"/>
      <path data-code="IVA-PES" d="m81.75,78.1l1-2.5h2.5l.5-1.5,1-.5,2,1.5.5,2,2-1,1.5,2.5,1,.5,1.5-1v1.5l1,.5,2.5-2.5,2,1.5,1.5-.5.5,1-1.5,3,1.5,1-.5,2-2.5.5-.5,2.5-.5,1,.5,1.5,1.5.5.5,1-1,.5-1.5,3.5-3-.5-2,1.5,2,2-1.5,1v1l-8-4.5v2l-2-.5-.5,1-1.5.5-.5-.5-4.25-6.6,2.75-3.75h1v-1.15l3-.5,1.5-1.5v-4.5l-3-1-1.5.5v-3.5l.5.5Z"/>
      <path data-code="IVA-PRI" d="m73.75,14.1l1.5-1,1.5.5.5-1.5,1-.5,1.5,3h5l2,1.5.5-2,1-.5,2.7,4.7.8-.3,1,3.6,1.65.2-2.15,2.8-1-2-2,2-1-1-2.5,1.5-.75,3h-2.25l-.5,1.5h-1.5v.5l-3.5-.5.5,1.5-1-1-.5,1-.55.55-.95-1.9.5-.5-.5-2,1.5.5-.5-1,1-1-1.5-.5-.5,1-.5-2,.5-.5-1-1.5,1-.5v-2l-.5.5v-1.55l1.5-.95-1-1h-1l1-1.5-1-1.15"/>
      <path data-code="IVA-PUC" d="m114.25,61.75l.8-1.55,2.7,3.45h1.5v-1l2.1,2.3,3.4,1.2-1.5,5.5-.5,6.5-3,10.5-2,.5,1-3.5-1.5-1v-2l-3.5,2-3.5-2.5-3.5.5-.5-1.5,2-4.5-2-4v-1.4l1,.9.5-1-.5-.5,4-3.35.5-3.5,1-2.5-1-1,2.5,1.45Z"/>
      <path data-code="IVA-ROD" d="m72.25,35.25l3.5-2,.5-.5-.55-1.1.55-.55.5-1,1,1-.5-1.5,3.5.5v-.5h1.5l.5-1.5h2.25l-.25,1h-.5l2.5,4.5-1,1,2.5,3-.5,2,.5,2,1.5-1-1,2.5,3,2.5-.5,2.5h-.5v.5l.75,2.65-1.75.45-.5-.5.5,1.5-1.5.5,1,1-1,1,.5,1h-1.5l-.5,1.85-2-1.5.5-1.5-.5-.5-2,1.5-3-2.5h-2.5l1.5-5-1.5-.5-.5-2-5-3.5,1-1-.5-3.5,1-.5-2.5-2.85,1.5.55Z"/>
      <path data-code="IVA-SAV" d="m34.75,55.6l2,1.65.5-1,1.5-.5.5,1,.5-1,3,.5v-1l2-1.5,2.5,1,2.5-3.65-.5,2,4.5,3,.5.5-2,1.5,3,3,2-.5v2.5l2.5.5h2.5l.5,1.15-.5,1.35,1.5,1.5-1,1-3,1,1.5,1-.5,1h-2.5l-1,.5v2.5l3.5,1-.5,1.5-1.5-.5,1-.5-.5-.5-3.5.5-1.5-.5v-1l-.5.5h-.5v-1l1-1h-2l-3.5-3-3.5-1-1.5-2.5-1,.5v-1l-1.5,1,.5-1-.5-.5-3-1.5,1-2.5-5-1.5,1-1.5-1-.5,1-1-.5-1.5"/>
      <path data-code="IVA-SHU" d="m61.75,46.6l1-.5,2,5h-1l-.5,1-1.5-1.5-2-.5,2-2.5v-1"/>
      <path data-code="IVA-SHM" d="m61.75,46.6v1l-2,2.5,2,.5,1.5,1.5.5-1h1l-2-5-1,.5m-5.5-2.35l.5-1,1-.5,1.5,1,2-.5,1.5,1,1.5-1.65.5-1.85,2-.5,1,.5,1-1,2,.5.5-1.5,1-.65.5,3.5-1,1,5,3.5.5,2,1.5.5-1,3.5-.5-1.5-1.5,1-.5,1.5-2.5.5-1,2.5-1-.5v1l-2.5.5v.5l-1.5,2,1,.5-2.5,2.65h-1.5l.5,1-1.5,1-.5-1.15h-2.5l-2.5-.5v-2.5l-2,.5-3-3,2-1.5-.5-.5-4.5-3,.5-2h2v-1l1.5-1v-1h1l-.5-2.85,1.5-2,1,1Z"/>
      <path data-code="IVA-TEJ" d="m36.25,32.1l1-2,1.5,2,.5-.5v1.5l-1.5,2-.5-2"/>
      <path data-code="IVA-TJM" d="m35.75,31.6l1.5,1.5.5,2,1.5-2v-1.5l-.5.5-1.5-2-1,2-.5-.5m-6-10.35l2,1,.5-1h2l.5,2-1.5.5,1,2.35.5-1.35.5.5v-1h1l2,1,1,2h1.5l1-1,1,.5,3.5-4.5v3l2.5,2-1.5,2,1.05,2.15-3.05.2,1,1.15-2,1v1.5h-2l-.5,1,2.5,3-1.5-1-2,1.5,1,1-1,1-4.5.5v2.5l1,.5-5,6-3-1.15-.5-2.5-1.5.5-2-.5-2.5,2-.5-1-1.5,1,1-2.5-1-.5,1.5-.5-1-1,2-2-1.5-1.5,2-.5-1-1.5,1.5-1.5v-1.5l1-1.5-1-1.5-1,.5-1-3.5v-1l1,.5,1-1.5.5-5.35,1-1.5,4-.5Z"/>
      <path data-code="IVA-VER" d="m84.25,74.1v-1l1,1,.5-2.5,2.5-.5.5-4.5,2-1.5,2-1v2.5l3,.5,1-.5-1-1.5,1,1v1.5l2.5-1,2,2,2.5-1v1.5l2.5,2.1v1.4l1,1,1,3v1.5l-2,3-3.5,2.5-1.5-1,1.5-3-.5-1-1.5.5-2-1.5-2.5,2.5-1-.5v-1.5l-1.5,1-1-.5-1.5-2.5-2,1-.5-2-2-1.5-1,.5-.5,1.5h-1.75l-.25-1,1-.5Z"/>
      <path data-code="IVA-VCM" d="m85.75,25.1l2.5-1.5,1,1,2-2,1,2,2.15-2.8,2.35.3.5,3.5,3-.5.5,1-1,1.5,3,3-.5,2,.5.5-2,1-.5,2,2,3-1,1.5,1,2-1,.5v1.5l1.5,3.5,2,.5v1l-1,1v1.15l-1,1-1-1.15v1h-1v-2.5l-1,1.5-2-.5v1l-1-1-1.5,1-3.75-.85-.75-2.65v-.5h.5l.5-2.5-3-2.5,1-2.5-1.5,1-.5-2,.5-2-2.5-3,1-1-2.5-4.5h.5l1-4"/>
      <path data-code="IVA-VIC" d="m91.25,37.1l3,.5v3l-1-.5-1.5,1.5-1-.5.5-4"/>
      <path data-code="IVA-ZAV" d="m91.75,18.1l5-4-.5-1.5,1-.5v-1l1.5-.5-1-1,2-.5-1-1.5,2.5-3,.5-1,2-1.5,3,3,3.5,5-1,2.5,1,.5-1,1,2.5,2-1,1v.5l-.5,1,3,2-1,2,2.5,1v1l1.5-.5,4,2v1l.5-2,1.5.5,1.5-1.5,3.5,2.5-4,7-1-1-2,3.5-2.5.5-3-4.5-3-.85-2-1.5-1-3.5-1.5-1.15-4-1.5-3.5,2h-2.5l-.5-3.5-4-.5-1-3.5"/>
</svg>