<svg data-code="RU-IN" xmlns="http://www.w3.org/2000/svg" viewBox="0 0 44.75 68.25">
    <g data-code="ingushetija">
      <path data-code="gorodskoj_okrug_karabulak" data-title="gorodskoj okrug karabulak" class="cls-1" d="M31.62,17.62l2,1.5,1.5-2.5.5,1-1.5,2-2.5,8-3.5-.5,3.5-9.5"/>
      <path data-code="gorodskoj_okrug_magas" data-title="gorodskoj okrug magas" class="cls-1" d="M20.62,33.62l1.5-2,.5.5v1.5l-1,1-1-1"/>
      <path data-code="gorodskoj_okrug_malgobek" data-title="gorodskoj okrug malgobek" class="cls-1" d="M24.12,3.12l4.5,1.5-1,1.5,1.5,1,2,.5.5-1,1.5,1-1,3-1.5-.5-1,2.5-.5-.5.5-1.5-.5-1-5.5-2,1-3-1-.5.5-1"/>
      <path data-code="gorodskoj_okrug_nazran_" data-title="gorodskoj_okrug_nazran&amp;apos;" class="cls-1" d="M20.12,23.62l2-3,.5.5,1,.5,2-.5-.5-.5,1-.5-2,5v3l.5.5-5,4.5.5-9.5"/>
      <path data-code="dzhejrahskij_rajon" data-title="dzhejrahskij rajon" class="cls-1" d="M7.12,51.12h2.5l1.5,3,4,1,9,7-.5,2-9.5,3.5-1.5-5-3.5-2.5-2.5,3h-2l-2.5,3.5-1-.5-.5-2.5,2-6-1-4.5,2-3.5-.5-1,1.88-3.82,2.12,6.32Z"/>
      <path data-code="malgobekskij_rajon" data-title="malgobekskij rajon" class="cls-1" d="M19.12,7.12h1l1-2.5,2-1,1.5-3,6,1.5-2,2.5-4.5-1.5-.5,1,1,.5-1,3,5.5,2,.5,1-.5,1.5.5.5,1-2.5,1.5.5,1-3-1.5-1,1-2,4,2.5-2,2.5,3,1-.5,2,1,1.5-2.5,3.5-.5-1-1.5,2.5-2-1.5-5,1-1.5,2,.5.5-3.01-.17-1.99-2.33,1-4,1,1,1-1.5-5-2,.5-5"/>
      <path data-code="nazranovskij_rajon" data-title="nazranovskij rajon" class="cls-1" d="M14.62,23.12l6.5-10,2.5,1-1,1.5-1-1-1,4,1.99,2.33,3.01.17-.5-.5,1.5-2,5-1-3.5,9.5,3.5.5v1.5l1,1-.5,2-5.5,4.5-1,2.5-1.5.5v1.5l-1.5.5-2-5,.5.5.5-1-1.4-1.37.4-1.13,1,1,1-1v-1.5l-.5-.5-1.5,2-1-.5,5-4.5-.5-.5v-3l2-5-1,.5.5.5-2,.5-1-.5-.5-.5-2,3v-.5l-2,4.5-3.5-4.5"/>
      <path data-code="sunzhenskij_rajon__ingushetija_" data-title="sunzhenskij_rajon_(ingushetija)" class="cls-1" d="M11.12,54.12l4-4,1.5-1,1,1,1.5-.5,1-2-1-.5h1l1-2.5h1.5v-2.5l1.5-1v-1.5l1.5-.5,1-2.5,5.5-4.5.5-2-1-1v-1.5l2.5-8,4-5.5,4.5,2.5,1.5,3.5v1l-1.5-.5-.5,1.5,1,1,1,4-2,.5-2.5,4h-1l-1.5,3-2,4.5,1.5,3.5-3.5,3.5h1l-2,2-.5,2-1,1-1,2.5.5,1-1,1.5,1,1.5-1,1.5-5,3-9-7-4-1"/>
    </g>
</svg>