<svg id="RU-IRK" xmlns="http://www.w3.org/2000/svg" viewBox="0 0 806.8 938.66">
      <path data-code="IRK-ALA" d="m250.15,796.66l2-2-.5-2.5,6-1.5,3-4.5,4,1,3-2-1.5-1.5h1l2.5-4,1.5-.5.5-1.5-1-1.5.5-1.5,2.5-3.5,3.5,3v3l1,2.5,3-.5h.5v1.5l1-1,1.5.5v-1.5l1-1-.5-1.5-1,.5-1.5-2.5,3-4-.5-.5,1-1-1.5-2,.5-.5,5.5,3-2,3.5,8.5,1.5,1,3,1,11-3.5,1-.5-1.5-2,.5-2.5,2.5-2.5,3-2,1.5-2.5-2-1,1.5-1-.5.5-2-2-.5.5,3-1,1,1,3h-1.5l-.5,1-1,6.5-1.5,2-1.5,4.5-3.5-1.5h-3.5l-1-1.5-1.5-1v-1.5l-3-2,.5-1.5-2-1.5-1,.5-3-2.5-2,1.5-2-1-1-.5,1-1-2-2.5"/>
      <path data-code="IRK-ANG" d="m297.65,858.66v-1.5l1.5,1,1-1-1-2,2,.5,2.5-4,4.5.5,1-3.5h3.5l.5-1.5,1,.5,3-2.5,1.5.5,1.5-1.5-.5-3,2.5-1v-3.5l-1-1,2-2.5,1.5-.5.5,1.5v3l2,1-1,1.5v2l2,2,2-1,1.5,3.5,1,1-1,1.5-2.5,2-2,3,1.5,1.5h-1l1,.5-.5.5.5,1.5-2,1-2.5-2.5-2,3.5h-2.5l-1,3-1,.5-.5,2.5-5-2.5v-5l-4,1-.5,1v-1l-6.5.5-.5-1,3-1.5-.5-2.5-3.5,4.5-2-.5"/>
      <path data-code="IRK-BAY" d="m363.65,799.16l3.5-4.5,7.5-2.5-1-2.5,2.5-2.5-1.5-1,1.5-1v-1.5h-1l.5-1,2-2v-1.5l-1.5.5-1.5,3.5h-1l.5,1-1.5.5-2-3.5v-2.5l1.5-1.5-.5-.5v-3l-.5-1-3,.5-.5-2,1-1.5h2l2.5,1.5,2.5-2.5,5,3.5,4-7.5-1-1.5-2-.5,1-1v-2l2.5-3.5,1.5,1h1.5l1.5,1.5v1.5l1,2-1,2,1.5,2.5-2.5,4,4.5,4.5h2.5l3-4.5,2-1.5.5,1.5-1,2h-1l.5.5-1,1.5,3,2v1.5l5,2v3l-2,3-3.5.5-3.5,5,.5,2-1,3v2.5l-1.5,3-2,1.5,1,6.5-2.5,4.5,1,2-3.5,2-4.5-4-4.5,3-5-1-4.5.5-.5-3-2.5-1,1-1.5v-2.5l3-1-2.5-4.5-3.5.5-2.5-5"/>
      <path data-code="IRK-BAL" d="m253.15,699.66l.5-2,3-3-.5-1.5,1-.5.5-3-1-1.5,1.5-1-1-2.5.5-1v-2.5l1-1.5v-2.5l.5-.5-2-2.5,2.5-4.5-.5-1.5.5-1.5.5-2.5-1-1.5,1.5-1.5-.5-1,1-.5.5-3-.5-4-3-3,.5-1-1-.5,1-1.5-1-2.5,1-1,.5-2.5,2,1.5,1,2,2.5,2.5v1.5l1.5,1.5,3-.5,3,1.5,3.5-2,.5-1.5,2-.5,3-3.5,3.5,8,.5,11-2,8-5.5,6.5-.5,2.5v7l.5,3,5,3.5,2,3,1.5,16.5-6.5,11-2,7,1,4.5,7,7.5,4,6,1,2.5v1l-7-.5-3.5-4-.5,1-3.5-1,1.5-7.5-5-2.5-1,2v2.5l-5,2.5-1.5-2-2,.5-1.5-2v-1.5h-2l-1.5-3h.5v-2l2.5-.5v-3.5l-.5-1.5,4-4,.5-1.5-1.5-1.5-1,.5-.5-1.5,1.5-1-3-2-.5-4-3-2.5,1.5-1-1-2,1-1-1-3-3-1.5v-1.5l-1.5-1.5"/>
      <path data-code="IRK-BOD" d="m611.15,437.16l1-3.5,1.5-.5-1-1,.5-1.5,3-2,1-3.5v-1.5h-1.5v-2.5l-4-1,4.5-5-1.5-4-1.5-.5.5-2,1.5-2.5-2-2,3-2.5,2.5,1.5,2.5-1.5,1.5-4.5,1.5-.5-.5-2.5-1.5-1.5,1-1.5-.5-2,2-1,1.5-3,2.5-.5.5-1-1.5-1.5v-1.5l-1-2v-3l-4.5-2-3-7,1-5,2.5-1.5,3-4-2-1-1-3h-1l-1-2v-.5l-.5-.5v-3l-1.5-2.5v-2l-2-3.5v-3l3.5-2.5,2-5.5-2-2.5-1.5.5-1-2-2-2-.5-4-1-1.5.5-1-1-1.5,1-1.5-.5-4,.5-1-.5-2-1-.5-.5-2,1-2.5,2-2v-2l-1.5-1-1.5.5-2.5-1-2-1.5.5-2-.5-.5,3-1,1-2-.5-1,2-2.5,3,.5,1.5-3.5-.5-3.5,2-1.5-.5-2.5.5-1,7-7.5-.5-2.5h-2.5l-.5-2.5,1.5-1.5v-3.5l2.5-2-.5-1.5,4.5-3,1,1,2.5-.5,2.5-3.5.5-3,1.5-1.5-.5-1.5,1-1.5-.5-1,.5-2-2-2v-2.5l3-2.5v-1l-.5-1,2.5-2.5,2.5,1,6-4,5.5-2.5.5.5.5,1.5,1-1h2.5l.5.5-.5,1h1.5l1,3,2.5-2,2.5.5,3.5,1,1,2.5,3-2,1,.5,1,1.5h1l5-2.5h2.5l1.5,2,.5,2.5v1.5l5-.5,1,2.5,6,2,.5,3,2.5,1,1,2,.5,3.5,4,.5,4.5-3,2,.5,1.5,2-8,4.5-1.5,4.5,4,2.5,4-1.5v2l1,2.5-.5,1.5,1.5,1v1.5l-1,2.5,1.5,2.5-1.5,2.5.5,1-1,2,3,1.5,1.5,1v1.5l1.5,1.5,1.5-1,2,.5,3-2,2,2,3,.5.5-.5-1-2,2-2.5,3.5-3,3.5,8,1.5-1.5,1.5.5v-2l1-2-1.5-2.5,2.5-3-1-3,.5-2,1,1,1-1.5,3.5-.5.5-1,3.5,1,2.5,6.5,1,.5,5.5.5,2.5,2,.5-1,1.5,1h3.5l.5.5v2l1,1.5v2l3.5,1-1.5,1.5,1,2h-1.5l-.5,1.5-1,5.5,3,4,.5,2.5v2l4-1,3,4v2.5h-2l-1,2.5.5,2,3.5,1.5,2,2.5-.5,4,1.5,2.5v2.5l.5,2.5-.5,2-1.5-.5v1.5l1.5,1h3v1.5h1l2-1,1.5,1,1.5,2h3.5l1,1.5.5,5-.5,4,1,2,1.5.5,1.5,1.5-.5,1,.5.5v2.5l-2.5-.5-3,3-4.5,1-3.5,4.5-4-1.5-.5-1-3,1-1-2-3.5-1.5-1.5-1.5-1.5-2.5-.5.5-2.5-2.5-4.5,1-1,2.5-1-.5-1-2-1.5-.5-4.5,2-2-1.5-.5,2-3,.5-1-.5v1.5l-1.5,1.5.5,1-4.5,4.5,1,2.5h1.5l1,1-.5.5,1.5.5v1l.5.5,1.5,2.5.5,3-5-1-1,2.5,1,1-.5.5,1,1-.5,2,1,4-1,.5,1,2,.5,3,1.5-.5.5,1-.5,1.5-1.5,1,.5.5-.5,2-2.5-.5-1.5,2-3.5.5-1,3,1.5,1.5h2l.5,1.5h.5l.5,1.5-.5,1,1,1.5-1,1.5,1,.5-.5,2.5,1.5-1,2.5,1,3-.5v2.5l1.5,2.5-2,.5-.5,1.5,1,1,1,2.5,2,.5,2,7,1.5,1.5,2-2,1,2-.5,3,1.5,2,3-2,.5-2-1-3,.5-1,2,2,5.5-1,.5,1.5-.5,1,.5,1-1,4.5-2.5,1.5-1.5,2.5,2,1.5v1.5l3,1.5-.5,2.5,1.5,1.5-1,1,.5,1.5-.5,1.5-2.5,2.5,1.5,2,1,3.5h-1.5l-1.5-1.5-1,2,.5,2-.5.5h-1.5l-1.5-2.5h-1.5l-.5-3-1.5-2-.5,2h-.5v1l-3,3v2.5l.5,1.5-1.5.5.5,1-4,.5-.5,1,1.5.5v1l-2-.5-6.5,6.5-2.5-2.5-1.5,2h-5l-.5-2h-3.5l-4.5-3-2.5,3.5-1.5-.5-2,2h-1.5l-3-3-1.5.5-6-3.5-4-1,6-6,4-2,1-4.5,3.5-1,1-1v-1.5l-3.5-2.5-.5-2-1-1h-3l-2,2-2-1.5-1,1.5-3-.5-.5,2.5-2,1,1,1.5-.5,1-1,1-1.5,3-2-.5-2,2.5-6.5,2.5h-2.5l-1.5-1-1,1.5-2-.5-3,1-.5,2,1,1.5-2,2,3,1.5,1,1.5-2.5,1.5v2l-2,2.5,1,2.5-1.5,1-1,3.5,1,4-.5,2.5-1,.5,1,1.5h-1v1.5l-1-1-3.5,1-1,2-4.5-1,1,2-2.5,2.5-2-2h-4l-1.5,1.5-3-1-1.5,6,1,.5-3.5,1.5-.5,1.5,1.5.5-1.5,2h-1l-2,2-2-1v-1l-1.5-1,.5-1-1-2-1.5-.5-.5,1h-2l-3.5-2.5h-4v-3.5l3-1.5-1-2.5-1-.5,1-4.5-1-1.5v-2l-3-1.5,1-2-.5-1v-1h-2l-2-2.5,2.5-4-1-2.5v-1l-.5-.5v-1.5l-1.5-1-1-4-3.5-.5-.5-2,.5-2-2-2.5,1-1.5-.5-.5-1.5-.5-.5-1-4.5.5-5-4-.5-2.5-1-1,3-2.5-4.5-4"/>
      <path data-code="IRK-BOK" d="m296.65,774.16l.5-.5v-1.5l1,2.5h2l3,1.5,1-1,2.5,2-1,1.5,1,1v2.5h1.5l.5-1.5,1.5.5,1,1-1.5,2.5,3,1.5,1,1.5,1-1,2,1.5,2-2,5.5,3.5,4.5,1,1.5-.5-.5-1.5,1.5-3,1.5-1h3l2-4.5h1.5l1-2.5,3.5-1.5v-1l4-2.5,1,1,1,1.5-2.5,6.5,1.5,1-.5,1,1.5,2.5-4,3.5-.5,9-1.5.5v1l-2-.5-1,1.5,2,1-2-.5-.5,1-1-.5v2l-2-1v2l-3-1.5-2.5,2.5-1-1-.5,1-3.5-1.5-2.5,2.5v2.5l-3,.5.5,3-1,3,2,1.5-1,1,1.5,4.5-.5.5,1,1-.5,1,1-.5-1,1h1l1,1.5-.5,1-.5-2-1.5-.5-2.5,2.5-.5,2-5-5.5,1-1.5-1-.5.5-.5-1-2.5.5-1.5-1.5-3h-1v-2l-3-2.5-7-1-1.5-1.5-2.5-13.5,1-5-.5-4.5-1-8.5-1-3"/>
      <path data-code="IRK-BRA" d="m206.65,595.66h2.5l-.5-.5h1.5l-.5-1,1-.5,2.5-1v-1h-.5l2.5-3-1.5-1,1.5-1v-1l-1-1,1.5-2.5,6.5-1,.5,2.5.5-2.5,1.5-.5.5,1.5h2l.5,1.5,1-.5v2.5l1.5,1-.5,1-1.5-1.5h-3.5l.5,4-1,1-1-1v-4l-2-1.5-2,.5-1,1.5.5,3-1,1,3,3-2,3.5,4,2.5v.5h-1.5l2.5,2.5h1l-1,.5h-1l-4-2v-1.5l-3.5-1.5-6,1-2-2,.5-.5-1-1"/>
      <path data-code="IRK-BRM" d="m206.65,595.66l1,1-.5.5,2,2,6-1,3.5,1.5v1.5l4,2h1l1-.5h-1l-2.5-2.5h1.5v-.5l-4-2.5,2-3.5-3-3,1-1-.5-3,1-1.5,2-.5,2,1.5v4l1,1,1-1-.5-4h3.5l1.5,1.5.5-1-1.5-1v-2.5l-1,.5-.5-1.5h-2l-.5-1.5-1.5.5-.5,2.5-.5-2.5-6.5,1-1.5,2.5,1,1v1l-1.5,1,1.5,1-2.5,3h.5v1l-2.5,1-1,.5.5,1h-1.5l.5.5h-2.5m-44.5,77l.5-2,1.5-2.5-.5-.5h2l-.5-2,4-2.5-.5-2-2-1.5,1.5-1.5v-1l-2-1.5.5-2-1.5-1,1-3.5-1-1,1-2.5-1-2,1.5-1-.5-1,1-2-.5-.5h1.5l-.5-2,.5-.5-2-1.5v-2.5h-.5l2-1.5,1-3,3.5-2.5h1.5l1.5,1,1-1.5,5-1,2-2.5,1.5.5v-2.5l2.5-.5-.5-1.5-2-2v-2.5l-3-3.5,1-1v-2.5l.5-.5-.5-1.5v-1h-1l1.5-2.5-.5-2,.5-.5-1.5-1,.5-1-1.5-1,2-1v-1.5l-1.5-2.5,1.5-1.5-4.5-.5-.5-2.5-2.5-1v-2.5h-1.5l.5,1.5-1,1h-1l-.5-1.5-2.5-1.5h-1l-.5,3.5-1.5-.5-.5-1,1-3.5-.5-1,.5-1-4.5-1-1.5-3.5.5-1.5-1-2.5-1.5-2,16.95-20.35,3.05,1.85,2-1.5,4.5,1,6.5-3,5,3,3.5-2.5h1l-.5,1.5.5.5,2,1,7.5-6.5,8.5,4.5h2.5l.5-1.5,3-.5,2.5,4,3.5,2,1.5,2.5h2.5l1.5-2,1,.5,3-1,1.5.5,1-1.5,1.5.5,1-1,1.5,1,1.5-1,2.5,2,1,2,1.5.5,1,1.5,5.5.5-2,3.5-.5,3.5-2,2,1.5,1.5v7l1.5,4.5-.5,11.5,4,2,1.5,2,3.5-4,2-5.5,3.5,5,1,.5.5,2,2.5,2.5h2l2.5,4.5,2.5,1.5.5,1.5-1,1.5-.5,2,.5,6.5-1,2,1.5,2.5-1,1.5.5,1.5,2.5,1.5,1.5,2.5-.5,2,1.5,1.5-.5,1,.5,1-.5,1-.5,2,1.5,2.5v2l1,1-1.5,2.5,1.5,3-1,.5-5-1.5-3.5,2-2,3-2,.5-.5,1.5-3.5,2-3-1.5-3,.5-7-9-.5,2.5-1,1,1,2.5-1,1.5,1,.5-.5,1,1,.5v1l2,1.5.5,4-.5,3-1,.5.5,1-1.5,1.5,1,1.5-.5,2.5-.5,1.5.5,1.5-2,4.5h-3l-2.5-4-3-2.5-3.5-.5-3.5,2.5-.5-2-2-2v-1.5l.5-.5-3.5-3.5-5.5,5.5-5.5-2.5-7,1.5-.5,2,2,3,.5,1.5-4-1-2.5,2-4,4v2l.5.5,2,1.5h-3.5l-.5,1.5h-3l-.5-.5-.5-2.5-6.5-2-1-1-5.5,1-5.5-2.5-10.5-1.5-2,1-2-1-4.5,3-3-1.5v.5l-2-2"/>
      <path data-code="IRK-CHE" d="m285.65,804.66l1-2-1-2.5.5-1.5-.5-1h2.5l1-1-.5,1.5,1,1.5,1-1,3,1-.5,3.5h-1.5l.5,1.5h-2l-.5-1h-1l-.5,2.5v-2.5h-1.5l.5,2-1.5-1"/>
      <path data-code="IRK-CHM" d="m285.65,804.66l1.5,1-.5-2h1.5v2.5l.5-2.5h1l.5,1h2l-.5-1.5h1.5l.5-3.5-3-1-1,1-1-1.5.5-1.5-1,1h-2.5l.5,1-.5,1.5,1,2.5-1,2m10.5-2l1.5.5-.5,2,2,1v-3l-1-2.5h-1l1,1-.5.5-1.5.5m-83.5,30.5h1.5v-4.5l2-2.5,1-3,1.5-1.5,2,.5-.5-1.5.5-2,2.5.5,2-2,1,1,.5-1-.5-1,2-2.5,4.5-.5,4,2.5v-3h5.5l1.5.5v1.5h2l.5-1-.5-2.5,1-.5-1.5-1.5-.5-4.5-.5-1.5,1-5h3l5,3.5,3-1.5,3,2.5,1-.5,2,1.5-.5,1.5,3,2v1.5l1.5,1,1,1.5h3.5l3,2,2-5,1.5-1,1-7.5.5-1h1.5l-1-3,1-1-.5-3,2,.5-.5,2,1,.5,1-1.5,2.5,2,2-1.5,2.5-3,2.5-2.5,2-.5.5,1.5,3.5-1-.5,7,1.5,10,1,3.5,1.5,1.5-2.5,3,1,1-2,2-1,.5-.5,1.5-2.5,2.5-.5-1.5-1.5-.5v-1l-2,1.5-2,2.5v.5h-.5l.5.5-1,1,.5.5-1.5,1.5,1,1,.5-.5.5,2.5-1-.5-.5,2.5-3.5,4.5-2.5,1-1.5-1,.5,1.5,3-.5,2.5,2.5-2,3.5h-4l2.5,13-7.5-.5-1,3.5-2,1-2,2,.5,1.5-1.5.5.5,1.5-.5,1-2-2-3.5,3-2-2h-2.5l-.5-1h-1l-3,2,.5,2-1,1h-5l-1.5-4.5,2-2-7-3.5-2.5-2.5-1.5.5-.5-5-3.5-1-2-2.5-3.5-2-.5-2.5-2-2.5-5-.5-3.5-3.5-3-1-2-3"/>
      <path data-code="IRK-CHU" d="m105.15,557.66l1-2,1.5-.5-.5-1,.5-1.5,1-2-1.5-3,1-2.5-1.5-1,1.5-4.5v-2l5-2.5-1-2,.5-2-.5-1,1-3.5,1.5-1,.5-3.5,1-1-1-1.5,1-2.5-.5-.5,1-1-1-2,.5-1.5-.5-1v-2l-.5-1.5.5-1.5-1.5-2.5,1-1.5,3.5-2v-3l-1.5-1.5,1-2.5h-1l-1.5-2,.5-2,1.5-.5,1.5-2.5,4.5,1,4.5-3,2,1,1.5-.5.5-1.5-.5-1,1.5-1-.5-1.5.5-1.5-.5-1.5,2-.5-1-1.5,2-.5,1-4h1v-1l.5-1.5-.5-2,1.5-2h2.5l1.5,1.5,5-2,5.5,1-.5,1,.5,1-1,2.5,1,1-1,1,1,.5-.5.5.5,1,1.5,1.5.5,3,.5.5-.5,1,6.5,3-.5,1v2l3,1.5-1.5,4.5,2,1-1,2,3,3.5-.5,2.5,3,2,1,1.5,6,2,1.5,3.5,2.5,1.5-1,1h.5v2l-1.5,1,.5,4.5,1.5,2-.5,1,1,.5-.5.5.5,2-2,.5,1.5,1-1.5,3,2,.5,3,4,.5,3.5-1,.5-25,30,1.5,2,1,2.5-.5,1.5,1.5,3.5,4.5,1-.5,1,.5,1-1,3.5.5,1,1.5.5.5-3.5h1l2.5,1.5.5,1.5h1l1-1-.5-1.5h1.5v2.5l2.5,1,.5,2.5,4.5.5-1.5,1.5,1.5,2.5v1.5l-2,1,1.5,1-.5,1,1.5,1-.5.5.5,2-1.5,2.5h1v1l.5,1.5-.5.5v2.5l-1,1,3,3.5v2.5l2,2,.5,1.5-2.5.5v2.5l-1.5-.5-2,2.5-5,1-1,1.5-3-1-3,2-1.5,3.5-2,1.5h.5v2.5l-2,2.5h-5l-2.5,1.5-1.5-.5-1,1.5-6.5-3.5.5-1.5-.5-1-2.5.5-2-2h-5.5l-1.5-2h-3l-2-2.5-2-.5-2.5-2.5.5-1-5-2.5-3-4.5h-2l-1.5-3.5v-3l1-2.5-2.5-2.5-1.5-2.5.5-2-2.5-2.5v-2l-1-2.5h.5l-.5-2.5.5-1.5-3-4,1.5-2.5-.5-1v-2l1-.5-.5-2.5.5-1.5-.5-1.5,2.5-2.5-.5-2.5v-3l-1-.5-1-3-.5-.5v-.5l-1.5-1.5v-1l-1.5-2"/>
      <path data-code="IRK-EKH" d="m337.15,811.16h3l.5-3,3-2.5-1-2-.5,1.5-1.5-.5-.5-2,.5-1,2,.5-2-1,1-1.5,2,.5v-1l1.5-.5.5-9,4-3.5-1.5-2.5.5-1-1.5-1,1.5-5,4-1,1.5,1,2.5-2,2,1.5,3.5-4,4,.5,1.5-1,.5,1.5,3-.5.5,1v3l.5.5-1.5,1.5v2.5l2,3.5,1.5-.5-.5-1h1l1.5-3.5h1.5v1l-2.5,3h1v1.5l-1.5,1,1.5,1-2.5,2.5,1,2.5-7.5,2.5-3.5,4.5,2.5,5,3.5-.5,2.5,4.5-3,1v2.5l-1,1.5,2.5,1,.5,3.5,4.5-1,5,1,4.5-3,3.5,3.5-3,1.5.5.5-.5,1.5.5.5-2.5,3-.5,2-3.5,1-.5,2-2,1.5-4,10-1.5,1.5-1-1-2,3-2.5,2-4.5-2.5-5-5,1-3-4.5-3-4-4.5.5-1.5-2.5-3.5,2-.5-3-1.5-2-4.5-3,.5v-1.5h-2.5l-1-2.5-.5-3"/>
      <path data-code="IRK-IRK" d="m331.15,849.16l1.5-2,7.5,4,1,1.5,1-.5v-2h4.5l3,3v1.5l-5.5,1,2.5,1.5h-2.5l-.5.5.5,1-.5.5v2l-2.5-.5-1-1.5-3-1v-1.5l-.5-1,1.5-1-3-1-1.5-2.5-1.5-.5.5-.5-1.5-1"/>
      <path data-code="IRK--IRM" d="m320.15,830.66v-2l2.5-2.5,1.5.5.5,2,.5-1-1-1.5h-1l1-1-1,.5.5-1-1-1,.5-.5-1.5-4.5,1-1-2-1.5,1-3-.5-3,3-.5v-2.5l2.5-2.5,3.5,1.5.5-1,1.5,1,2-2.5,3,1.5v-2l2,1v-2l1,.5.5,2,2-1,1,2-3,2.5-.5,3-3-.5,1,5,3,1v1.5l3-.5,2,4.5,3,1.5-2,.5,2.5,3.5-.5,1.5,4,4.5,4.5,3-1,3,8,7,2,.5,2-2,2-3,1,1,1.5-1.5,4-10,1.5-1.5,4,1-.5,2.5h.5l5-4.5,1,1.5,1.5-1.5,1.5.5.5,3.5,1.5,1.5,3,.5,1-.5,1,1,3.5-1.5,2-4.5,2,2,8,11-11,26.5-7.5,11.5-10.5,8.5-16.5,7-4-14-1.5-2.5-1.5-.5.5,2.5-3,1-1.5,1.5-2.5-.5-1-1-3,1-.5-2-2-1v-1.5l-2-1-.5,2-2.5-1.5-3,4.5-3-.5.5,7.5-9,.5v-1l2-3,6.5-5.5v-2.5h2l-.5-3.5.5-.5-.5-3-1-.5,1-.5-2.5-4.5v-2l-1.5-.5v-3l-1.5-1.5h-3l-2-1-.5-2,.5-.5-1-.5h1l-1.5-.5.5-2,3.5-4,1.5,1.5v1l2,1,.5,1.5,3,1-1.5,1,.5,2.5,5.5,3h1v-2l.5-.5-.5-1,.5-.5h2.5l-2.5-1.5,5.5-1v-1.5l-2-3-3,.5-2-1-.5.5v2l-1,.5-5.5-4-3-1-2.5-5-2,1-2-2v-2l1-1.5-2-1v-3l-.5-1.5-3.5-2.5-1,.5"/>
      <path data-code="IRK-KAC" d="m334.65,755.16l1-2-1-1.5v-1l6,.5,3-2.5,1.5-6.5,6-1,2,.5,1,1.5,2-1v-2l2-.5v-5l-5.5-5v-.5l1.5-2-3-3.5,1-3h2.5l3.5-6,3.5,1,.5-3,2-.5.5-2v-1l-.5-1v-2.5l4,1-1-4,1.5-3.5h5l2.5-2,.5-2.5,3.5-3.5h3.5l2,4.5,4-1.5,1-1.5-2-2.5-1-4.5,1.5-3,2.5-2.5-1-2-1-.5-1-2.5,7-2,4-3.5,4.5-.5,1-1.5-.5-1,1.5-2-.5-1.5,2.5-1,2,1.5,1-.5,3.5,2,1.5,3,6.5-2v-2l2.5-3,4.5,1,.5-1.5,5,1.5,1.5-5,1.5.5,1.5-2,3,1,1.5-3h.5l-.5.5.5.5,5,3,.5,1-.5,1,2.5,2,.5-1.5,2-1,1.5.5,4-3,1.5-1.5-.5-2.5,1-.5,1,2h2.5v-1l2,3.5,3.5,1,.5,1-.5,2,.5,1.5h2.5l-.5,3,1,1.5,2-.5,1,1.5,1-.5,1,2,2-.5,1,3,1.5-1,3,1.5-.5,3.5-2.5,2.5,1,.5-1.5,1v2l-1.5,2.5.5,1.5-1.5,4,1,.5v2l-1.5,3,.5,1-.5,1-2,2.5.5,3-1.5,2-1.5,4.5-1,7-1.5,1.5.5,1.5.5.5v1.5l-1.5,2.5-1-1-2-.5v3l-7.5,8.5-2-1-3.5,4.5-1.5,5-1-.5-.5,1.5-1.5.5v4.5l-1,2,.5,1.5-2,1.5.5,1-.5,1v1.5l1,.5-.5,1.5-3,2-1,3,.5,1-3,4-2.5,1-4.5-3.5-2,.5v-1.5l-2-1.5-3,5-2.5-.5-5,5-.5,1,.5,2-1.5,1-4.5-2-6.5,7-2-.5-1.5,1-.5-3.5-4.5-1v-1.5l-3-2,1-1.5-.5-.5h1l1-2-.5-1.5-2,1.5-3,4.5h-2.5l-4.5-4.5,2.5-4-1.5-2.5,1-2-1-2v-1.5l-1.5-1.5h-1.5l-1.5-1-2.5,3.5v2l-1,1,2,.5,1,1.5-4.5,7.5-4.5-3.5-3,2.5-1.5-1.5h-2.5l-2.5,3-4-.5-3,4-2.5-1.5-2.5,2-1.5-1-4,1,1-1.5-1.5-2,1.5-2-1-1,.5-1.5-.5-1-4.5-1-3.5-1.5-.5-1.5h-1v-3l-4-3v-1.5l-.5-1"/>
      <path data-code="IRK-KAT" d="m285.65,258.16l5-3.5.5-1.5-2-2.5,1-3-.5-1,1-2.5-1.5-1,.5-2,2-1,.5-1v-.5l3.5-4,.5-2,4.5-1,2,1-1-1v-2l-1.5-1v-2.5l-2-1v-1.5l-5.5-2,4-2v-1.5l3-1.5,8.5-2v-1.5l-1-1,1-1,.5-2v-1l1.5-1v-1l6.5-4-.5-2,2.5-3,2-.5,3,2,.5-2.5,1.5-2,3-.5-2.5-5,.5-1.5-2-2.5v-1.5l5-8,3.5-2,2-4,3.5-1.5v-1.5l-.5-1,.5-1.5-.5-1-.5-2.5,1-1v-2l.5-1-1-1,1-3-2,.5v-1l-2-.5,1.5-2v-2l2.5-1-.5-.5-.5-.5-1.5-2.5,1-1,3,.5,2-5,3.5-2.5-1.5-3-2-1.5,1-3.5h2.5l.5-.5-.5-1-3-1.5h-2.5l-2-2h-3.5v-1l1-1.5v-3l-.5-.5v-1l-2-1v-2.5l-1-1-2-1-1.5.5-1.5-2-3-.5v-3l-2-1,.5-2-1.5-2,.5-1-1.5-2.5,3.5-.5,5-3,.5-1.5-1-1.5v-1.5l1-2-.5-1.5-2.5-.5v-1l1-1-1-.5v-1l1.5-2-.5-1,.5-1.5.5-.5,3,2.5h3l1-.5.5-2,1-2-.5-1,1-.5-1.5-.5v-1h-1.5l-.5-1.5-1.5-.5-.5-1.5h-.5v-1.5l-3.5-3h1v-1.5h2.5l-.5-2.5,2-2,.5-2.5-3-4,1.5-3,.5-4.5,1-1,1-2.5v-1.5l-2.5-1,.5-2-4.5-3,1.5-3v-1h1v1.5l1-1,2,1.5-.5-1h1l.5,2,5,.5,1.5,2h-.5,1.5l-.5.5.5.5h1l.5-2,2-.5-.5-1,1-1,.5.5,3-.5,1,1v.5l1.5,1v1.5l-1,.5,2.5,1,1.5-3,1,.5.5,1.5,2-.5.5-.5-.5-1v-.5l1-.5-1-.5.5-2.5,1.5-.5v-1.5l2-1.5,1,.5,1.5-1,1,1,1.5.5,1.5-2,2,1,1.5-1,1,.5,6-1,1.5-4-1-1v-2l-2.5-3,.5-1-1-1-.5-2.5-1.5-2-1-.5-4,1.5,3-3,5.5.5,1-2-.5-1.5.5-1,2.5,1,1,1.5v1l2,.5-1.5,2v1.5l2.5,1-1,1.5.5.5-1,2,3,2-.5,1,1,1.5,4,1.5,1,1.5-.5,1.5.5.5v1l-.5.5.5,1-1,1.5h1v1l1,.5,1.5,2-3,4.5h-1l-1-1.5-3.5,2-3-1-1-1-2,1-.5,1,.5,1v1.5l1,6-2,3.5-1.5-.5-1.5,1.5,1,3.5,6-1,5.5-2.5h3v.5l1.5.5,2-1,5,2.5,6-1,3.5,2,.5.5-.5,1,.5.5v1l3,2.5v1.5l2.5,2.5-1,.5v1l1,.5,3-1,1,2-1,1,.5,1h.5v2.5h1.5l1,3-1,.5v1.5l1,2.5h1l-.5,1.5h1l-.5,2.5h1.5l-.5,1.5.5,1-1,1h1.5v1l.5,1-1.5.5h2l-1,3.5,2,2v1.5l1.5-.5,2,1.5v1.5l2,2v1l-4.5,3v1.5l-1,2,1,1-.5,1.5.5.5v1l-2.5,2v3.5l.5.5-4,1.5v1.5h1v1.5l1.5,1v1l1.5,2,3,1,1,3,2-.5,1-2,4,1,7.5-1.5.5,1.5-.5.5v2.5l2,.5-.5,2,2.5,1-2,4,3.5,4.5v2l-1,.5-2.5,4,1,.5-.5,1v2l-1,1v1.5h-1.5l.5,1-1.5,1.5v1.5l-1,.5-1,3-2,1.5.5,1.5,1.5,2-1,2,1,1.5-1,.5h2l-.5,2.5.5,1.5,1.5.5,1,2h2l-.5,3h1.5l5,6.5-.5,1,.5,1.5-1,3,2,1.5-1,2.5v2.5l.5,1-1.5,3,3,.5,5-1,4,2,1.5,4,3.5,3,3-.5,2.5-3,3.5,1,1,1.5v2l1,2-1.5,4,1,1-.5,2.5-1.5,2-.5,1,.5.5-1.5,1.5-1,4.5-1,1.5v2.5l1.5,2.5-.5,1,1.5,3v1.5l-1.5,2-2.5-1-3.5,1.5,1.5.5v1.5l1.5.5v1.5l.5,1.5-2.5,1.5.5,1-.5,1.5-2.5,3.5-1,3.5,2,1v1.5l-.5,1.5-2.5,1.5v.5l1.5,1-2.5,2v1l1,1v2.5l-.5,1.5-2,1,.5,2-.5.5.5,2.5-.5,1,.5,2,.5.5v3h.5v1.5h1.5l.5,1-2,3.5v3.5l-1.5,1,2,3.5-3,3,.5.5-2.5,5,.5,3.5,1,.5-.5,1.5,2,.5.5,1-4,6.5v1.5l-1.5,1v2.5l-2,3.5,3.5,2-1.5,3.5h-1.5l1.5,2.5-1,1.5,5.5,1,3.5-.5-.5,1,.5,1.5v1.5l2,.5-.5,3h2l.5,1.5h2l-2.5,1.5-.5,2,.5,1-2.5,4.5,1,.5-2.5,8.5-3-1-1-1h-2l-3,2-.5,2-5.5,1.5-2.5-1-3.5,2,.5.5-.5,2,.5,1-.5,2,1,1-.5,2,.5,3-1.5,3,.5,1-.5,3.5-1,3-1,1,2,2v1l.5,3-2.5,3.5,2.5,1,1,2.5-1.5.5-2,3.5,1,1.5v1.5l-2.5,9-5-2-1-3.5-1.5-1.5-.5-1.5v-.5l-2-2,.5-3.5-2-2.5h-1.5l-.5-1.5.5-2-1-1.5-2.5-2-4,1.5-2-6,.5-2.5-2-3.5-3,1-1,3-1.5-.5-2.5,2.5-.5-2-3-.5-2.5-2.5-2,1-1,2,3,4-1,1.5v2.5l1,1.5-5.5,4.5,3,3.5,1,2v2l-2.5.5,2,3.5-.5.5,1.5,1.5-2.5,1-.5,1-1.5,1h-4v2l1,1-4.5,3-1.5-.5-2.5,2-7,.5-.5,2-2,3.5-3-1-4,3.5-1-2-1.5,2-3-1-6,2-4,3v2l-3,.5-1-1.5-1.5.5-1.5-1-1,5,2.5.5,1,1-1.5,3,1,2.5-2,3.5,1,3v1.5h1v1l-1.5,4h-1v1.5l-1,1.5-3-.5-4,4.5-5.5.5-.5-1.5.5-1-.5-.5v-1.5l-2.5-1.5v-2l-1-1v-1.5h-2.5l.5,1-1,1-2.5-1.5-4.5,1.5-.5-1.5v-3.5l-2-2.5-2-.5,1-2-.5-1,1.5-.5-.5-4v-4.5l-.5-3-1.5-2,.5-1.5-3-2,1.5-1.5,3-.5,1.5-3-2-2-1-3.5.5-1-.5-4,.5-1.5-2.5-3-2.5-1.5.5-2-2.5-4,1.5-2.5,4.5-2.5-1-.5.5-1.5,1.5-5-5-4v-2.5l2-4,2-1-.5-1,1-.5v-2l5.5-4.5,1-3.5,5-1,2.5-4-1-1.5-2-1,1.5-3-2-2,.5-1-1.5-1.5-1.5.5-.5-1.5-1.5-1,1.5-3-.5-3-1-1,1.5-2-.5-1-1.5-1v-1l-1.5-.5-2.5,1.5h-3.5l-2-3-3-2.5v-2l1-1.5h-1.5l-2-2,.5-2.5-2-1,4-5.5,2-1,1.5.5,1-1-.5-2.5-.5-1v-.5l-1-.5-.5-.5,2,.5,1-1-.5-1,.5-.5,1.5.5,1.5-1.5.5.5-.5.5h1l2.5-.5v1l4,1,2-1.5,1.5,1-.5.5,1.5-1-1-2.5-2-1v-1l-.5-.5.5-1-1-1,2.5-4-1-1.5.5-1-1-.5-1.5-3.5-1-4,1.5-1v-2.5l1-1.5-1,.5-1-1,.5-1-2-1.5-1.5.5-1-2-3.5,2-5.5-1.5-3.5,1.5-.5-1-1.5.5-1.5-.5-.5-1,.5-.5-3-2v-1l-4.5-1.5-1-1,1.5-.5-1-2,.5-1-2-2,1-.5-1-.5.5-.5-2-1-1.5-2,.5-1.5-1.5-.5.5-1.5h-1l1.5-3.5-.5-1,1.5-3-.5-1.5-1.5-2-1.5-.5-1-1.5-.5-2-1-.5"/>
      <path data-code="IRK-KAZ" d="m407.15,658.66l1.5-4.5-1-2.5,5-3,.5-1.5-.5-1.5-2-1-2.5-4.5-1-3.5-2-2,1.5-1,3-6v-2l-1.5-2.5,1.5-3.5-1-3.5,2-1.5-.5-1.5-2.5-2,.5-4.5-2-3.5h-1l.5-2.5-.5-.5,2-2v-4l-1-2v-2.5l2-3.5-1-1,.5-2.5h1.5v-3.5l2.5-5-.5-1.5.5-2-.5-.5-2-4.5,2.5-.5,1-4.5,1.5-2.5.5-4.5,2-2.5,1.5-4.5-1.5-2.5,1-3-3-2.5v-2.5l3-3.5v-1.5l-4-1.5,2.5-1.5,2.5-6,3-1.5,1.5-5,1.5-1-.5-2,2.5-1.5,1,.5.5-1.5,3-2-.5-3,2-1.5,1.5,1.5,2-3,2,.5,1-2.5-.5-1,1-.5v-2.5l2-4-2-2.5v-1l3-2.5.5-2,2-2v-1l2-1,2-5,1.5-.5-.5-1,4.5-4,1.5-2,3.5,1,.5-.5,1.5,2,1.5-1,3,2,3,4.5.5,1.5-1.5,3,3,3-1.5,2.5-1,4.5,3,3-1,1v4l3.5,1,.5,1.5,3.5-1,1-1.5,2.5-.5-.5-1v-.5l2,1h1.5l.5,1,2.5,1.5.5,1,1,1,2.5-2.5,3,.5,1.5-3,1.5-.5,2.5,1,.5,2h1l2,2.5h3l1,1,.5,3-1.5,6,.5.5.5,2,1,1-2.5,3-1,3.5-5,1.5-3-2.5-2,1.5-2.5-.5-2,2-1,3-2.5,2-4-1.5-2,1.5v4l-2-.5v-2h-.5l-1.5,2,.5,1-1.5,2-1-.5-4,2-2-.5-1.5,2,2.5,1.5.5,2-2,4v2l-1.5,1.5-.5,2,.5,1-.5,1.5h-1v1l1.5,1,.5,1.5,2.5,2,.5,1,1.5-1,2,1,.5-1,2,1,1,2.5h1v1l2.5,3-1,1.5.5,1.5,2.5,1v2.5l2,1.5,1.5.5,2-1.5,3,1.5,1-.5,1.5-2v1.5l1.5,2-1,1.5.5,1.5-2,1.5h-4l-1-1-2,1.5.5-1.5h-1.5l-2,4.5h-1l-1.5,2.5.5,1.5-1,5.5,1.5,2-.5,4,.5,1.5v2l-3.5,1,.5,1.5-.5,1.5,1.5,1,.5,3.5-2.5,1,.5,2-1,1.5,2.5,2,.5,3-.5.5,1,2.5-.5,1.5,2.5.5v2.5l3,1,.5,1.5-.5,1,1.5,2-2,3,.5,1.5-2,3.5,1,1.5-.5,1,1,3,3,3-1.5,3.5,1,1.5-.5,3,1,1.5-.5,3.5,1,1v5.5l-3,1.5-1.5-1-1.5,1-1-3-2,.5-1-2-1,.5-1-1.5-2,.5-1-1.5.5-3h-2.5l-.5-1.5.5-2-.5-1-3.5-1-2-3.5v1h-2.5l-1-2-1,.5.5,2.5-1.5,1.5-4,3-1.5-.5-2,1-.5,1.5-2.5-2,.5-1-.5-1-5-3v-1h-.5l-1.5,3-3-1-1.5,2-1.5-.5-1.5,5-5-1.5-.5,1.5-4.5-1-2.5,3v2l-6.5,2v-2l-1.5-1-4-2-.5.5-2-1.5.5-1v-2.5h-1.5"/>
      <path data-code="IRK-KIR" d="m399.15,521.66l.5-2-.5-2,1-3-.5-3.5,2-.5v-2l.5-1.5-1-4.5-.5-3.5,1-3,3-1v1.5h1v1h2l.5,3,4-.5.5-1.5h-1l-.5-4.5-2-21-1.5-9-1-3-3.5-3.5-.5-2.5-2-2v-1.5l-1-1.5-5.5-6-1-4.5-1-.5-.5-4-1-2.5,4.5-3-1-1v-2h4l1.5-1,.5-1,3-1-2-1.5.5-.5-2-3.5,2.5-.5v-2l-1-2-3-3.5,5.5-4.5-1-1.5v-2.5l1-1.5-3-4,1-2,2-1,2.5,2.5,3,.5.5,2,2.5-2.5,1.5.5,1-3,3-1,2,3.5-.5,2.5,2,6,4-1.5,2.5,2,1,1.5-.5,2,.5,1.5h1.5l2,2.5-.5,3.5,2,2v.5l.5,1.5,1.5,1.5,1,3.5,3.5,1,1,1.5,1.5-3.5.5-4,1-2v-1.5l-1-1.5,2-3.5,1.5-.5-1-2.5-2.5-1,2.5-3.5-.5-3v-1l-2-2,1-1,1-3,.5-3.5-.5-1,1.5-3-.5-3,.5-2-1-1,.5-2-.5-1,.5-2-.5-.5,3.5-2,2.5,1,5.5-1.5.5-2,3-2h2l1,1,3,1,2.5-8.5-1-.5,2.5-4.5-.5-1,.5-2,2.5-1,.5,2.5-.5,1.5,1.5,2.5,2.5-2.5,1.5,4,3,3,5-3.5,1.5,1.5,4-.5,1,1,3-1.5,1.5,2.5,3,1.5-2,1.5v1.5l-2,1.5.5,1.5,2.5-1.5,2,.5,2-1,.5.5v1l2,1-1.5,2.5,1.5,1.5,2.5-1,1.5-2.5,4-4,4.5-.5,3.5-3-.5-2,1-1.5-.5-1-.5-2.5,5.5-2.5h4l1,2,1-2,5.5-.5v1.5l2,3,3-1,1,1v3.5l2.5.5,2,3-1,2.5,1,1.5-.5,2h1.5v1l1,.5.5,1.5-.5,4-2,1,2,3-3.5,2v1.5l-1.5,1.5.5,1-2.5,3-3.5-4-5,6-4-2.5-3,1,.5,4,2,2-.5.5,2.5,2,.5,3,1,1.5-2.5,1.5,1,1,1,2-3-.5-.5,2-2-1.5h-3l-1.5,2.5,1,.5-.5,1-2.5-.5.5-3-1-.5h-2.5l-1,4,1.5.5-1.5,1.5,2,1v2l-3.5,3,.5,1-.5,2.5,2,1-1,1v3.5l3,.5,2,3.5-.5,1,.5.5,3.5,1v2.5l5,3,1,1v1.5l1,1v.5l.5,1-1,1,.5,3.5-4.5,2.5,1.5,2.5-.5,5.5,2,2.5,3,1,1.5,2v1.5l1,1-1.5,1.5,3.5,2-.5,2,2,3.5-.5,4.5,1.5,1.5-2.5,2-.5-.5-4,1v2l.5,1v.5l2,2.5-1.5,3,2,1.5-2,3.5,1,2.5-2,3-2,.5-3-1-.5-1,.5-2h-4.5v-1.5l-1.5-1h-3.5l-2.5,2-4-3-1,1-3,1v3.5l-1.5-.5-1-3.5-3.5-.5-2-2.5h-1l-.5-2-2.5-1-1.5.5-1.5,3-3-.5-2.5,2.5-1-1-.5-1-2.5-1.5-.5-1h-1.5l-2-1v.5l.5,1-2.5.5-1,1.5-3.5,1-.5-1.5-3.5-1v-4l1-1-3-3,1-4.5,1.5-2.5-3-3,1.5-3-.5-1.5-3-4.5-3-2-1.5,1-1.5-2-.5.5-3.5-1-1.5,2-4.5,4,.5,1-1.5.5-2,5-2,1v1l-2,2-.5,2-3,2.5v1l2,2.5-2,4v2.5l-1,.5.5,1-1,2.5-2-.5-2,3-1.5-1.5-2,1.5.5,3-3,2-.5,1.5-1-.5-2.5,1.5.5,2-1.5,1-1.5,5-3,1.5-2.5,6-2.5,1.5,4,1.5v1.5l-3,3.5v2.5l3,2.5-1,3,1.5,1.5-1.5,5.5-2,2.5-1.5,6-2,.5-.5-2.5-4,.5-.5-13,2.5-15.5h-4l-1-2-1.5-.5-.5-2.5-2-1-.5-2"/>
      <path data-code="IRK-KUJ" d="m189.15,759.16h2.5l1-5-.5-1.5,1.5,1,2-2,2,.5-1-3,.5-.5v-2.5l2.5-3-1.5-2-3,1-3-1.5-2-3v-1h-.5l.5-1.5h-.5l1-.5-.5-1.5,2,.5,4-2,1-2,3.5-1,2,1.5,1.5-.5-1-6.5-2-2,4-6.5h1l-.5-3.5-1-.5,1-1v-6l-6.5-2.5v-3.5h-4l-1-2.5.5-3.5,1-.5-.5-1.5-1,.5v-2h3.5l1.5-1.5-.5-4,3-.5-.5-1-3.5-2,.5-.5v-2l6.5,2,.5,2.5.5.5h3l1.5-1.5,2,.5.5-.5-2.5-2v-2l1.5-2,5-4,4,1-.5-1.5-2-3,.5-2,7-1.5,5.5,2.5,5.5-5.5,3.5,3.5-.5.5v1.5l2,2,.5,2,3.5-2.5,4.5,1v1l2,.5,2,3,.5,1.5,2-.5,2,2.5v3.5l-1,1.5v2.5l-.5,1,1,2.5-1.5,1,1,1.5-.5,3-1,.5.5,1.5-3,3-.5,2,1.5,1.5v1.5l3,1.5,1,3.5-1,.5-2-.5-1,2-6.5.5,2,3h-2l-3,3.5-.5,1,.5.5v1.5l.5.5v3l-.5,1.5-7,3.5,2,2-.5.5-2-1.5-2,.5,1.5,2.5,1,.5-1.5,2h-1.5l1.5,3.5-8.5,6-4.5-1.5-3,1-.5,6-7-.5-2,1.5-2-.5-.5,1,.5,1.5-1,.5,2,8-7.5,4.5-3-.5-4.5,1-2.5-1.5.5-.5-2.5-2.5-1.5-2.5"/>
      <path data-code="IRK-MAM" d="m496.65,369.16l4-4.5-3-1.5-1-2.5,3-5h4l1-3.5-.5-2,2-1.5-2.5-3,1-.5v-1l2-1-.5-2,2-3h5l.5,1h3l1.5,2,2-1,.5-1.5-.5-.5,1-.5,1.5,2.5,2.5.5h1l.5-3,1.5-.5-1-.5,1-2,4.5-1.5h2l.5,2,2,1,3,.5,4-6h2l1.5-1,2,1.5.5-3-1-1.5,3.5-4.5v-2.5l2.5-3.5v-2.5l2-2h1v3l2.5,3.5-1,4,1,.5,1,2-1.5,2.5,3-1,2.5-3,2,.5.5-1,1.5.5.5,1,2-1,.5,1v3h-1l-3,3-.5,3.5.5,2.5-.5.5,1.5,4.5-.5,2,1,1.5-.5,1.5,1,1-.5,1.5,1,3.5v.5l1.5,1.5h1.5l.5-3.5,1-1-.5-1v-2l-3.5-4,2.5-4h.5l-.5,2,.5,2,4.5-1,.5-.5-.5-2.5,1.5-3h2v-1.5l1.5-1,1.5.5,2-.5,1-2,1.5,1,2.5-3,3,1.5,1.5-2.5v-1l-.5-1,3-3v-2l1,1,.5-1.5-1.5-2,2-3-3.5-1.5-.5-1.5,1.5-4,1-.5-.5-1.5,2.5-3-.5-2v-1l-1.5-2,3.5-3.5,2,.5,2.5-3,2,1.5,5,1,.5,2.5-2,2-1,2.5.5,2,1,.5.5,2-.5,1,.5,4-1,1.5,1,1.5-.5,1,1,1.5.5,4,2,2,1,2,1.5-.5,2,2.5-2,5.5-3.5,2.5v3l2,3.5v2l1.5,2.5v3l.5.5v.5l1,2h1l1,3,2,1-3,4-2.5,1.5-1,5,3,7,4.5,2v3l1,2v1.5l1.5,1.5-.5,1-2.5.5-1.5,3-2,1,.5,2-1,1.5,1.5,1.5.5,2.5-1.5.5-1.5,4.5-2.5,1.5-2.5-1.5-3,2.5,2,2-1.5,2.5-.5,2,1.5.5,1.5,4-4.5,5,4,1v2.5h1.5v1.5l-1,3.5-3,2-.5,1.5,1,1-1.5.5-1,3.5,4.5,4-3,2.5,1,1,.5,2.5,5,4,4.5-.5.5,1,1.5.5.5.5-1,1.5,2,2.5-.5,2,.5,2,3.5.5,1,4,1.5,1v1.5l.5.5v1l1,2.5-2.5,4,2,2.5h2v1l.5,1-1,2,3,1.5v2l1,1.5-1,4.5,1,.5,1,2.5-1.5,1.5-1-.5-1.5,5.5-.5,1h-2l.5,1.5-1,.5-5-1-2.5,1.5-2.5-1-1-1.5-7,1.5-.5-3h-2.5l-.5-1-2.5-.5-.5-.5.5-1.5-1-.5-1-3-1-.5,1-4.5-.5-2.5-2-.5-3.5,1-1.5,3-1.5,1.5v2.5l-2,1-2.5-.5-4,2-6-6-1.5,1.5h-5.5l-1,3-1.5.5-2-3-3-2.5h-2.5l-1.5-3v-3.5l-3-1.5-1.5,2.5.5,1.5-1,.5v1l-1.5,2.5v3l-1.5,1.5,2,2.5-.5,2.5-3.5,1-1,3.5-1.5,2-2.5.5-4-3-5,3-1.5-2h-4l-.5-2,2-3.5-2-1.5,1.5-3-2-2.5v-.5l-.5-1v-2l4-1,.5.5,2.5-2-1.5-1.5.5-4.5-2-3.5.5-2-3.5-2,1.5-1.5-1-1v-1.5l-1.5-2-3-1-2-2.5.5-5.5-1.5-2.5,4.5-2.5-.5-3.5,1-1-.5-1v-.5l-1-1v-1.5l-1-1-5-3v-2.5l-3.5-1-.5-.5.5-1-2-3.5-3-.5v-3.5l1-1-2-1,.5-2.5-.5-1,3.5-3v-2l-2-1,1.5-1.5-1.5-.5,1-4h2.5l1,.5-.5,3,2.5.5.5-1-1-.5,1.5-2.5h3l2,1.5.5-2,3,.5-1-2-1-1,2.5-1.5-1-1.5-.5-3-2.5-2,.5-.5-2-2-.5-4,3-1,4,2.5,5-6,3.5,4,2.5-3-.5-1,1.5-1.5v-1.5l3.5-2-2-3,2-1,.5-4-.5-1.5-1-.5v-1h-1.5l.5-2-1-1.5,1-2.5-2-3-2.5-.5v-3.5l-1-1-3,1-2-3v-1.5h-2.5l-3,.5-1,2-1-2h-2l-6.5,2-1,1,1,3-1,1.5.5,2-3.5,3-4.5.5-4,4-1.5,2.5-2.5,1-1-1,1-2.5-2-1.5v-1l-.5-.5-2,1-2.5-.5-1.5,2-1-2"/>
      <path data-code="IRK-NZI" d="m242.65,497.01l2-5.5-1-1.5v-1l-.5-2.5,2,1,6.5,6,1,4-1.5,3,1,2,3,3,3.5-1,5-6.5,3-2.5,1.5-3,3.5,2.5v-3.5l2.5-2,2-5,3,.5,1-1,.5-2.5-1-.5.5-3.5h1.5l1.5,2,2-1,.5-2.5-1.5-3.5,1.5-1.5,1.5,1.5,4-2,1.5,1.5,4,2-1,3,1.5,1.5,3.5,1,1-1,2.5,1,.5.5-1,1.5,1,1-2.5,4v1.5l1,1-.5,1.5,1.5.5v1.5l1.5,1,.5,1.5.5.5.5,1.5,1,1.5,5.5,2.5v.5l-.5,1.5.5,1.5,3,.5v2l1.5,1-.5,1,1,2.5-.5,1.5,1,1v1l.5,3.5-2,1.5v2.5l-.5,1,1,2.5-3,3,.5,2,3,2.5,3,7.5,4,1-.5,2v3l3,2v3.5l3,3.5v2.5l-2,2,2,1.5.5,3,1,2v3l1.5,1v2.5l2,1.5-.5,4.5.5,2.5v1l2,3v1l-.5,1.5,2.5,2,.5,2.5,1,1-.5,1.5,2,3.5-.5,1,.5,1-.5,2,1,1v2.5l-1.5.5-3.5-2.5-4,2.5-1-4-3-1.5,1.5-3-.5-4.5h-1v-2h-2l-.5-1,.5-1-1.5-2,.5-1.5-3.5-.5-1.5-1.5v-1.5l-1.5-4-4,3-3.5,4-6,3.5-12-2.5-2.5-2-1-3-3-3.5-4-2.5-.5-1.5-6.5-1.5-.5.5v2.5l-2,.5.5,2-4,1-.5,2h-1.5l-2.5,8.5-3.5,4-2-2-3.5-2,.5-11.5-1.5-4.5v-7l-1.5-1.5,1.5-2,1-3.5,2-3.5-5.5-.5-1-2h-1.5l-1-2-2.5-2-.5-2.5,2-.5v-1l-1.5-1-1-3,1.5-1.5-.5-1.5.5-.5-.5-1.5,1.5-1.5,3.5-1-.5-.5,1-1.5-1.5-2-2.5.5v-1.5l1-1.5-4-6,2-2-3.5-5.5,1.5-1.5,2-3-1-3.5-2-1v-4.5l-3-.5.5-1-1.5-2.5"/>
      <path data-code="IRK-NZU" d="m.15,733.51l.5-.5v-2.5l1.5-2-.5-1.5,1-1.5,5-1,1,2h2l.5-2.5,1.5-1-1-1.5,1-.5v-2.5h1.5l-.5-1.5,1,.5-.5-2,1.5-1.5,4.5,2.5,4-1.5,7.5,3,2-1v-3l-.5-1,2-3v-3.5l-.5-1.5,1.5-2.5.5-2.5,1.5-2.5v-2h1l.5-2.5-.5-1.5,1-1-1-1.5v-2.5l1.5-3,3,.5,2.5,4,5-.5v3l2,3-1,1,.5,1.5,4.5-2,1.5,1,1.5-1,1-2.5,2,.5.5,1.5h3l1,1.5,3-2,1.5,1,3-1,.5,1-1,.5.5,3-.5,1,1.5,1.5-.5,1.5,1,4-.5.5,1.5,1,1-1-.5-1.5,2.5-1v-2.5l1.5.5,1-1.5,3,3,2,.5-.5.5,4,1.5.5,2,.5-1.5,1,1v-1l1-.5v-1h1.5l-.5-1.5h1.5l-1-3,1.5-1.5-.5-2,.5-1.5-1.5-.5.5-3-1-1,1-.5-1.5-1,.5-1.5,1.5.5-2-2-1,.5-1-1.5h-5l.5-2.5h-3v-.5l3.5-1.5-3-2.5-1,.5v-1.5l.5-1-.5-1v-3l6,1,1,1.5v2l.5,2-.5,1,3,1.5h1.5l10-7.5-2.5-3.5-1-4,1-.5-.5-3.5-3-3.5,1.5-2-.5-1-7.5-4.5-3-6-1-.5.5-2-1.5-1,2.5-.5,2-2.5,11.5-.5v-10.5l-1.5-.5,2.5-3.5,7,.5,1-4-1-1.5.5-.5-1-.5v-1.5l3.5-2.5,1.5,4h2l3,4.5,5,2.5-.5.5,2.5,3,2,.5,1.5,2h3l2.5,2,5,.5,1.5,2,3-1,.5,1.5-.5,1.5,6,3.5,1.5-1v-1l1.5,1,2.5-1.5h5l1.5-2.5,2.5,1-.5.5.5,2h-1.5l.5,1-1,2v.5l-1,1.5,1,1.5-1,1.5,1,3.5-1,2,1.5,1.5-.5,2,2,1.5v1l-1.5,1.5,2,1.5.5,1.5-4,3,.5,2-2-.5.5,1-2,4,.5,1.5-2.5.5v2l-1,1.5-.5,2-1,1.5.5,1-1,1,1,.5.5,3,3.5,2.5-.5,3.5,1.5,3.5-.5,2,1,1.5-.5,2,1,.5.5,1.5h.5l1,5.5-1.5.5-.5.5.5,1-1,1-7.5.5-1.5,3.5.5.5-.5,1.5,2.5,3.5,2.5,2-1.5,1,1,1.5-6.5,6.5,2.5.5-2,5.5-1.5,1.5v3l2.5-.5.5.5-3,4-5-1.5-2.5,2-1.5,2-.5,2,1,2.5-.5,1.5h1.5l-1,3.5-2.5,1.5-.5,2-2.5-1.5-.5,1.5,1,3,4,4,5.5,1.5,1.5,2.5,1,2.5-1.5,1.5,3,3.5v3l-1,1.5v2h1l6-6,1,1.5,1.5.5,3,3,1.5,2.5,8,7.5-2,.5-3-1.5-1,1.5h-3.5l.5,1.5-1,1.5,1,3-1,2.5-2-.5-2.5,4-4.5,1-2.5,2.5-3.5-1-3,1.5-.5,1.5,1,1-.5.5.5,1.5-2,3-3,.5v1.5l-9.5-4v-2l2-2.5v-.5h-2l-3.5-3.5-1,.5v2l-8.5-2.5-1.5,4-7,1-2-1-1.5,1.5-2.5-.5-.5-3.5,1-1-.5-1,.5-2.5-1-1-2,1-2-2.5-2.5,1-2-1h-2.5l-.5-1.5-1.5-2,1-2-.5-1.5-4.5.5-2-2-1,1-2-1-3.5,1.5-1.5-1-.5-.5.5-1-.5-.5.5-1.5-2.5-2h-3.5l-.5-1.5-.5-2.5-2-1,.5-1.5-2-1-.5-2-1,1-3-1-1.5-2-.5,1-1.5-.5-2-3-2.5.5-5-5.5-6,.5-1,1-.5,4-1,1h-.5l-1.5-2.5-1,1.5-2.5-1-1.5-1.5v-1l-.5-2.5-3-1-.5-3-1.5-2.5-6.5-5v-.5l-2-4.5-2.5-1,1-1-1-1.5,1.5-2-1-1.5h-3l-2.5-1.5-1-1-.5-3-2-1,.5-1-.5-1-1.5-1.5-2,1-2.5-2-1.5-4"/>
      <path data-code="IRK-NUK" d="m255.15,753.01l2-1,.5-2.5,1.5,2,2,.5.5-2.5-.5-4.5.5-1,4-2,1.5,2,3.5-1,1.5-1v-2.5l1-2,5,2.5-1.5,7.5,3,1,1-1.5,3.5,4,7,.5v1.5l2.5,5.5,2.5,4.5.5,3-.5,4.5.5,4-8-1.5,2-4-5.5-3-.5.5,1.5,2-1,1,.5,1-3.5,3.5,2,2.5,1-.5.5,1.5-2,3-.5-1-1,1.5v-2l-3.5,1-1-3v-2l-2-2.5-1.5-1-1.5,1-3-3.5-4.5-.5-2-3.5,2.5-2-1-1,.5-.5-2.5-3-2,1.5-1-2-3-1-.5-1v-2l-1-1"/>
      <path data-code="IRK-OLK" d="m379.15,830.51l1-2,3-1,.5-2.5,3-2v-.5l-.5-1,.5-1-.5-1,2.5-1,1.5.5,3-2-.5-2,2.5-5-1-6,3-3.5.5-3.5,1-3.5-.5-1.5,3.5-5.5h3.5l1.5-3.5,1.5-1,2.5.5,6.5-7.5,4.5,2.5,1-1.5v-3l5.5-4.5h2.5l2.5-4.5,2.5,1v1.5l2-.5,4.5,4,2.5-1,3-3.5-.5-1.5,1-3.5,2.5-1,1-2-1-.5.5-2.5-.5-1,2-2-.5-1,1-2v-4.5l1.5-.5.5-2,1,.5,1.5-4.5,3.5-4.5,2,.5,7.5-8v-3.5l2,1,1,1,1.5-3v-1.5h-.5l-.5-2,1.5-1,1-7,1.5-4.5,1.5-2-.5-3.5,2-2v-1l-.5-1,2-3v-2l-1-1,1.5-4-.5-1,1.5-3v-1.5l3.5-2,17.5,6-1.5,6.5-17.5,43.5-2,6.5-6.5,32-34,41.5-29.5,28.5-7.5-10.5-2-2-2,4.5-4,1-.5-1-1,1-3.5-1-2-5-2.5,1.5-1.5-1.5-4.5,4.5-.5-.5.5-2-4-1"/>
      <path data-code="IRK-OSI" d="m296.15,770.51l.5-4.5.5,1,3,.5v-2h2.5l-1-3,1-2.5-2.5-4v-2l2.5-.5,3.5,1,2.5-2.5.5-2,1.5.5,2.5-1,1-3.5-.5-2,3.5-2.5,3-.5,1,2h1.5l1.5-4,1-4,3-2.5,2,1,2.5,2.5-1,.5.5,1.5-.5,1,2,3-1.5,3,1,2.5-1,1.5,3,1.5v1l1,1.5-1,2,.5,1.5v1.5l4,3v2.5l1,.5.5,1,3.5,2,4,.5,1,1-.5,2,1,1-9,6.5-2,2.5-1-.5-2.5,5-3-.5-1.5,2-1,2.5.5,1.5-2,.5-4-1-5.5-3.5-2,1.5-2-1-1.5,1-.5-2-3-1,1.5-2.5-1-1-1.5-.5-.5,1.5h-1.5v-2.5l-1-1.5,1-1-2.5-2-1,1-3-1.5h-2l-1-2.5v1.5l-1,.5-.5-4"/>
      <path data-code="IRK-SAY" d="m240.65,742.01h1l2-1.5h-.5v-1l-1-.5.5-.5,1,2-.5.5,1,1.5.5-1-.5-.5,3-3.5-1-2.5.5,1v-1.5l1-1-.5-.5,1.5-1,1.5,2.5.5,3-.5,1.5-2.5-1-.5,1,3,1.5v3h-.5l.5-2.5-1-1-1.5-.5-1-1-2,2,.5,1-.5.5.5.5-1,2h-1l1,1-.5.5-1.5-1.5,1-1-2.5-1.5"/>
      <path data-code="IRK-SHE" d="m310.15,888.01l1-8.5,1-1,2-6.5,1-.5-.5-3,2.5-.5,1-4.5,1-.5.5-2.5,2.5-1,2.5-3,2.5,2,1-.5,3,1.5h3.5l1,1.5v3h1.5v2.5l2.5,4-1,1,1,.5v6.5l-1.5.5v2.5l-6.5,5.5-2,2.5v1.5l-18,.5-1.5-3.5"/>
      <path data-code="IRK-SLY" d="m286.65,883.51l2.5-1.5,7,1,1,1.5,4.5-.5v2l8.5,2.5,1.5,3,18-.5,9-1-.5-7h3l3-4.5,2.5,2,.5-2,2,.5v1.5l2,1,.5,2,3-.5,1,1,2.5.5,1.5-2,3-.5-.5-3,1.5,1,1.5,2.5,4,14-11.5,4.5,3.5,11.5v3l1.5,1.5v2l.5,1.5-1.5,3-2.5,1-3-2-5,3.5-6.5.5-2.5,1.5,1,1.5-1.5,1.5-2,1.5-1-1h-1.5l-.5,1v1.5l-2,2.5-4.5,2-2.5-21-9-3-5.5,3-2-1-.5,2.5h-1l-1.5-3.5-3-1-.5-3h-1l.5-2.5-2-2,1.5-3.5-1.5-1.5-1-2.5,1-1-.5-1.5,1-1-.5-1.5.5-1-2-1.5-4.5-1.5,1.5-1-2-2h-6l-2.5-2-.5-2"/>
      <path data-code="IRK-SVI" d="m296.65,802.51h1.5v-1l-.5-.5h1l1,2.5-.5,3-1.5-1.5.5-2-1.5-.5"/>
      <path data-code="IRK-TAJ" d="m35.15,682.01l3.5-4-1.5-1.5,1-1-.5-2.5,1-2-.5-3-1-.5.5-1,2.5-.5-.5-1,2-.5v-1l3.5-.5,2.5-1.5-2-4v-2l-1.5-2-.5-2.5.5-1.5-1-2,.5-1-1-1.5v-1.5l2-.5-.5-1.5-4-4,3-2-.5-1.5-2.5-2,1-.5v-3l2-1.5v-2l2,.5,1-2.5,2.5,1v-11h2.5l2.5-7.5,6,2.5.5,2.5,2,.5,2-5,.5-.5v-2.5l-1-1.5,2-2h4l-1-13,11.5-.5-.5-11-5-1,1.5-3-1.5-3.5,1.5-1.5-1-.5.5-3.5-1-1,1.5-1.5.5-2-.5-1h-4.5l-4.5,1.5-2.5-3v-4l5.5-2,1.5-3.5v-1l-2.5,1-.5-1v-1l-2,1.5-1.5-1.5.5-.5v-.5l-1.5.5-3.5-2.5h-1l20-56.5,19,2,5,1.5,4-2,1.5,1,.5,2h1.5v1.5h1.5l1,1,2-1,2,3h1l-1,2.5,1.5,2-.5,3-3,2-1,1.5,1.5,2.5-1,1.5,1,1.5-.5,1.5,1,1.5-.5,1.5,1,2-1,1,.5.5-1.5,2,1.5,2-1,1-.5,3.5-1.5,1-1,3.5.5,1-.5,1.5,1,2-5,3v2l-2,4,1.5,1.5-.5,2.5,1.5,3-1.5,1.5v1.5l.5,1.5h-2l-.5,2,1.5,2v1l1.5,2v.5l.5.5,1,3h.5l.5,3.5.5,2-2.5,3,.5,1.5-.5,1.5.5,2-1,1v1.5l.5,1.5-1.5,2.5,3,4-.5,1,.5,2.5-.5.5,1,2.5v1.5l2,1.5.5,2-.5.5v1l4,5-1.5,2.5v3.5l-3,1.5v1.5l1,.5-.5.5,1,1.5-1,4-7-.5-2.5,3.5,1.5.5v10.5l-11.5.5-2,2.5h-1.5l-1,.5,1.5,1-.5,2,1,.5,3,6,7.5,4.5.5,1-1.5,2,3,3.5.5,3.5-1,.5,1,4,2.5,3.5-10,7.5h-1.5l-3-1.5.5-1-.5-2v-2l-1-1.5-6-1v3l.5,1-.5,1v1.5l1-.5,3,2.5-3.5,1.5v.5h3l-.5,2.5h5l1,1.5,1-.5,2,2-1.5-.5-.5,1.5,1.5,1-1,.5,1,1-.5,3,1.5.5-.5,1.5.5,2-1.5,1.5,1,3h-1.5l.5,1.5h-1.5v1l-1,.5v1l-1-1-.5,1.5-.5-2-4-1.5.5-.5-2-.5-3-3-1,1.5-1.5-.5v2.5l-2.5,1,.5,1.5-1,1-1.5-1,.5-.5-1-4,.5-1.5-1.5-1.5.5-1-.5-3,1-.5-.5-1-3,1-1.5-1-3,2-1-1.5h-3l-.5-1.5-2-.5-1,2.5-1.5,1-1.5-1-4.5,2-.5-1.5,1-1-2-3v-3l-5,.5-2.5-4-2.5-.5-2,2v2.5l-2-2-2-4"/>
      <path data-code="IRK-TUL" d="m182.65,710.01l1-.5v-1.5l-.5-.5.5-.5-.5-2.5,5-1-.5,1.5h-1v1.5h1l1.5,3.5-.5,1,1,1,2,1-2,.5v1l-1.5-1-.5,1h-2l-1-1.5.5-2.5-2.5-.5"/>
      <path data-code="IRK-TLM" d="m182.65,710.01l2.5.5-.5,2.5,1,1.5h2l.5-1,1.5,1v-1l2-.5-2-1-1-1,.5-1-1.5-3.5h-1v-1.5h1l.5-1v-.5l-5,1,.5,2.5-.5.5.5.5v1.5l-1,.5m-45,53l.5-1.5,2.5,1.5.5-2,2.5-1.5,1-3.5h-1.5l.5-1.5-1-2.5.5-2,1.5-2,2.5-2,5,1.5,3-4-.5-.5-2.5.5v-3l1.5-1.5,2-5.5-2.5-.5,6.5-6.5-1-1.5,1.5-1-2.5-2-2.5-3.5.5-1.5-.5-.5,1.5-3.5,7.5-.5,1-1-.5-1,.5-.5,1.5-.5-1-5.5h-.5l-.5-1.5-1-.5.5-2-1-1.5.5-2-1.5-3.5.5-3.5-3.5-2.5-.5-3-1-.5,1-1-.5-1,1-1.5.5-2,1-1.5v-2h4l3,1.5,4.5-3,2,1,2-1,10.5,1,5.5,3,5-1,1.5,2-.5,1.5,3.5,2.5.5.5-3,.5.5,3-1,2h-4v2.5l1-.5.5,1.5-1,.5-.5,3,1,2.5,4,.5v3.5l6.5,2.5v6l-1,1,.5.5.5,3.5h-.5l-4,6.5,2,2,1,6-1.5.5-2-1-3.5,1-1.5,1.5-3.5,2h-2v1.5h-.5l.5.5-1,1,1,.5-.5,1,2.5,3,3,1,3-.5,1.5,2-2.5,2.5v2.5l-.5,1,.5,3-2-.5-1.5,2-1.5-1,.5,1.5-1.5,4.5-2.5.5,5.5,6.5,2,.5,3-1h3.5l1.5,3.5-8,4.5-1,3.5-1,.5-1,3v2.5l.5,1.5-2,2,.5,1.5v1l-3,1.5-2.5-.5-3,1-1,2,2.5,2,6.5,1.5,1,3.5h-1v-1l-2.5-1-.5,1,1,1.5-.5,1-1-1-3.5.5-5-4.5v-2.5l-1.5-1.5-2.5.5-2.5,2-.5,2h-1l-14-15-6,6h-1v-2l1-1.5v-3l-3-3.5,1.5-1.5-1-2.5-1.5-2.5-5.5-1.5-4-4-1-3"/>
      <path data-code="IRK-USO" d="m309.15,823.01l1.5-.5-.5-1.5h2.5l1.5,3.5,1.5-.5-1,1,.5,1h-.5v1.5l-2,1,.5.5-2,.5v-1.5l-1-1h1l-1-1.5.5-.5-1.5-2"/>
      <path data-code="IRK-USM" d="m309.15,823.01l1.5,2-.5.5,1,1.5h-1l1,1v1.5l2-.5-.5-.5,2-1v-1.5h.5l-.5-1,1-1-1.5.5-1.5-3.5h-2.5l.5,1.5-1.5.5m-40,43l.5-1-.5-1.5,1-.5v-2l1.5-1.5,2.5-1,1-3.5h7l-2-12.5h4l2-3.5-2.5-2.5h-3l-.5-1,3.5.5,2.5-3,1.5-2.5.5-2h1l-.5-2.5-.5,1-1-1,1.5-1.5-.5-1,1-.5-.5-.5h.5v-1l2-2.5,2-1.5v1.5l1.5.5.5,1.5,2.5-2.5.5-2h1l2-2.5-1-.5,2.5-3.5,6.5,1,3,2.5.5,2h1l1,2.5v2.5l1,2-1,1,1.5.5v.5h-1v1l1,.5v1.5l3,3h2.5l3,2.5-1.5,1-1.5,2,1,1v3l-2.5,1.5.5,2.5-1.5,2-1.5-.5-3,2-1-.5-.5,1.5-3.5.5-1,3h-4.5l-2.5,4-2-.5.5,2-.5.5-1.5-.5v1.5h2l3.5-4v2.5l-2.5,1.5.5,1,6.5-1v1-1l4.5-.5v5l5,2-.5,2.5-2.5.5.5,3-1,.5-2,6.5-1,1-1,9-8.5-2.5v-2l-4.5.5-1-1.5-6.5-1-4.5,1-6-5-.5-2-3-3-1.5-2.5v-3.5l-5-1"/>
      <path data-code="IRK-UST-ILI" d="m245.15,468.01v-6l1.5-1.5,1-5h1.5l-.5,1.5v1l3,.5-1.5,2-.5,3-1,1.5-.5,3h-3"/>
      <path data-code="IRK-UST-ILM" d="m245.15,468.01h3l.5-3,1-1.5.5-3,1.5-2-3-.5v-1l.5-1.5h-1.5l-1,5-1.5,1.5v6m-60.5,69.15l-.5-3.5-3-3.65-2-1,2-2.5-1.5-1,2-1-.5-1.5.5-.5-1-.5.5-1.5-1.5-1.5-.5-4.5,1.5-1v-2l-1-.5h1.5l-1-2h1l.5-2.5,2-1.5,1,.5-.5.5h1.5l1.5-2.5-1-1.5h.5l-.5-1,.5-.5-.5-.5.5-1-1-.5.5-.5-.5-.5.5-.5-2.5-1-2.5-3,1-1-1.5-1,1.5-1-.5-1.5.5-.5-.5-.5,2-4-1.5-1,.5-.5-1-1,.5-1-.5-.5v-2l-1.5-1.5,4,1,3-1.5.5-3.5,3.5-3-.5-2,1-.5-.5-.5.5-2.5-2-1-.5-3,4-2.5,1-2,.5-2,3-3h4.5l1-1,3.5-7.5h1l-.5-.5,1-1-.5-.5v-1.5l1-2,2.5-2.5,7.5-2.5.5-1h2.5l3.5-2.5,1.5-2v-1h1l-.5-1,1-.5-1-.5,1-.5-.5-1,1.5-3,1.5-1v-1l2,.5v-2l2.5-1,1.5-2-1-2,1-2-1.5-2,.5-1-.5-1,.5-1-1-1,.5-2h-1.5l-1-2h-1.5v-3l-.5-.5,1.5-1.5-2-.5,1-2-2.5-2.5,1.5-2-1-1,.5-.5-.5-.5,1.5-1,1-2.5,4-2,1,1h6l1-2-.5-2,2.5-4h1.5l1-1.5,1.5.5.5,2,2.5,1.5h2.5l.5-2.5h1l3.5,1.5.5,2-5,.5,1,1.5h-.5l1,1-.5,1.5,3,2.5v1.5l3,4,.5,1.5,6,1.5,1,1.5v.5l.5.5-.5,1.5,1.5,1,2.5-1,3,1.5,3.5-1,2,1,.5,2h1v2l-1,1,.5,3,.5,1-2.5,2,.5,1,2.5.5,2-4.5,5,1,1-1.5-.5,1.5,2.5,3,2.5-1.5,1.5.5.5,1-1,3,2,1.5.5,1,2,1.5,2-2.5,3,1,.5-2,5.5-2.5,1-2,1.5-1.5-1.5,3.5-.5,1,.5,1-4,2.5-1.5,2.5,2.5,4-.5,1.5,2.5,1.5,2.5,3.5-.5,1.5.5,3.5-.5,1,.5,4,2.5,2-1.5,3-3,.5-1.5,1,2.5,2.5v1l1.5,2.5.5,3v4.5l.5,3.5-1.5,1,.5,1-2,3,.5,1-3.5,1.5-.5,2.5-1,1.5.5,1,.5,4.5,1.5,2-.5,2-4-.5-2,1-4.5-2.5-1,1-3.5-1-1.5-1.5,1-3-.5-.5-3.5-1.5-2-1.5-3.5,2-2-1.5-1,1.5,1.5,3.5-.5,2.5-2,1-1.5-2h-1.5l-.5,3.5,1,.5-.5,2.5-1,1-3-.5-2,5-2.5,2v3.5l-3.5-2.5-1.5,3-3,2.5-3.5,5.5-4.5,2-1.5-1-3-4,1.5-2.5-1-5-6-5.5-2.5-1v1l.5,1.5v1l1,1.5-.5,1v1l-.5,1.5-1,.5v2.5l1,1v1.5l.5.5h2.5v4.5l2,1,1,3.5-2,3-1.5,1.5,3.5,5.5-2,2,4,6-1,1.5v1.5l2.5-.5,1.5,2.5-1,1,.5.5-3.5,1-1.5,1.5.5,1.5-.5.5.5,1.5-1.5,1.5,1,3,1.5,1v1l-2,.5.5,2.5-1.5,1-2-1-.5,1-2-.5-.5,1.5-1.5-1-3,1.5-1.5-1-1,2-3,.5-1-3-3.5-1.5-3-4.5-2.5,1-.5,1h-2.5l-8.5-4-8,6.5-1.5-1-.5-1,.5-1h-1l-3.5,2-5-2.5-6.5,3-4.5-1-2,1.5-3.55-2.2,8.05-9.65,1-.5Z"/>
      <path data-code="IRK-UST-KUT" d="m302.15,488.01l.5-3,2-2.5-1-1,.5-1,2.5.5,1.5-1,4,.5.5-2-1.5-2-.5-4.5-.5-1,1-1.5.5-2.5,1.5-1,1,.5,1-3h2l2.5,2.5v4l.5,1.5,4-2,3,2,1-1-.5-1h2.5v1.5l1,1v1.5l2.5,2v1l.5,1-.5,1,.5,1h5.5l4-4.5,3,.5,1-1.5-.5-.5.5-1h1l1.5-4.5v-1l-1,.5v-1.5l-1-3.5,2-3-1-2.5,1-3-.5-1.5h-2.5l1-5,1.5,1,1.5-.5,1,1.5,2.5-.5.5-2,4-3.5,6-1.5,3,.5,1.5-2,1,2.5,4-3.5,3,1,2-3.5v-2l7.5-1,2.5-1.5,2.5,3,.5,3.5,1,1,1,4,5.5,6,1,2v1.5l2,2,.5,2,2,3,1.5.5,1,3.5,3,29.5,1,4.5,1,.5-.5,1-4.5.5v-2.5h-2v-1.5l-1,.5v-1.5l-3,1-1,2.5v3.5l1.5,5-.5,1v2.5l-2,.5v3.5l-.5,3,.5,2-.5,1.5.5,2.5,1.5,1,1,2,1.5,1,1,2,3.5-.5-2,16,.5,13,3.5-.5,1,2.5,2-.5-1,1-.5,4-2.5,1,1.5,4.5,1,.5-.5,2,.5,1.5-2.5,4.5v3.5l-1.5.5-.5,2,1,1.5-2,3.5v2.5l1,2v4l-3.5.5-.5-2-3-1-2,2.5-5.5,2.5-1.5-.5-2-2.5v-1h-1.5l-2.5,4-3,1.5-1.5,2.5h-2l-1,4-4.5,1-5.5-1-2-.5-1-2-2.5-1-3.5,2-.5,3.5-1,2-2-1-2.5,2h-1.5l-2-2v-1l-1.5-1h-4v-3l-1-1.5.5-1.5-1-.5.5-2.5-.5-1,.5-1-2-3.5.5-1.5-1-1-.5-2.5-2.5-2,.5-1.5v-1l-2-3v-1l-.5-2.5.5-4.5-2-1.5v-2.5l-1.5-1v-3l-1-2-.5-3-2-1.5,2-2v-2.5l-3-3.5v-3.5l-3-2v-3l.5-2-4-1-3-7.5-3-2.5-.5-2,3-3-1-2.5.5-1v-2.5l2-1.5-.5-3.5v-1l-1-1,.5-1.5-1-2.5.5-1-1.5-1v-2l-3-.5-.5-1.5.5-1.5v-.5l-5.5-2.5-1-1.5-1.5-3.5-1.5-1v-1l-1.5-1,.5-1.5-1-1"/>
      <path data-code="IRK-UST-UDI" d="m278.15,730.51l2-7,6.5-11.5-1.5-16-2-3-5-4-1-3,.5-6.5.5-2.5,5.5-7,2-8-1-10.5-3-8,2.5-2,5,2,1-1-1.5-2.5,1.5-2.5-1-1v-2l-1.5-2v-2.5l1-1-1-1,1-1.5-1.5-1.5v-1.5l-1-3-2.5-1-.5-1.5,1-1.5-1.5-3,1-1.5-.5-6.5v-2.5l1.5-1-.5-1.5-2.5-1.5-2.5-4.5h-2l-2.5-2.5-.5-2h-1l-3.5-6,.5-2.5h1.5l.5-2,4-1-.5-2,2-.5v-2.5l3-.5,4,1.5.5,1.5,4,2.5,3,3.5,1,3,2.5,2,12,2.5,6-3.5,3.5-4,4-3,1.5,4v1.5l1.5,1.5,3.5.5-.5,1.5,1.5,2-.5,1,.5,1h2v2h1l.5,4.5-1.5,3,3,1.5,1,4,4-2.5,3.5,2.5,2-.5v3.5l1,.5-.5,2.5-1,2.5,1,2,.5,2,1.5.5-1.5,2.5v3l.5,1.5.5,3,1,1-.5,1.5,1,2-1.5,1.5.5,1-1.5,3.5-1,.5-.5,2-2.5,1-3-2-2.5,2.5-.5,1.5-2.5-1.5-1,1-2.5-.5.5,4-2.5,3-2-.5-1,3,1.5,2v1l1,2-2,2,.5,1v1l1,.5v1l-1.5.5-.5,2-3.5.5-2-.5-3,3.5-2,1,1.5,2-1.5,1.5v4h1.5l1,1.5-2.5,3.5,1.5,2.5,2,.5,1,1.5-.5,1.5.5,1.5-2,3.5-3.5,2v1.5l2,2-.5,2,2,1.5v2.5l1,.5-1,2,1.5,1,1,2,2,2,2,.5-.5,4,2,2.5v1.5l2.5,1,1,2v6.5l-2.5,2.5-2,7-1.5,1-1.5-2-3,.5-3.5,2.5.5,2-1,3.5-2.5,1-1.5-.5-.5,2-2.5,2.5-6-.5v2l2.5,4-1,2.5,1,2.5-2.5.5v2l-3-.5-.5-1-.5-3-5-10v-2.5l-1-2.5-4-6-7-7-1-4.5"/>
      <path data-code="IRK-ZAL" d="m182.15,807.01l3-2-1-1.5h1l-1-1,1.5-.5-.5-1.5,4.5.5-.5-2v-1l3,1v1h1v-.5l-1-1.5.5-.5,3,1v-1l2-1,.5,2,1.5-1h2l3,1.5.5-2.5,1-1.5,2.5-.5.5,1.5.5-2.5,3.5,1.5,1.5-1.5,1-3.5,3-2.5v-3l4-1,3-2.5,3,1,1.5-1.5.5-2h1.5l1-3.5h3v-1l1.5-.5,1-2,4-3,1-5.5,2-1,2.5,1,3.5-6v-1l1.5-1,3,.5,4.5,4.5,1.5-1.5,1,.5,2.5,4-2.5,2,1.5,3,6,1.5-.5.5,2.5,3-1,1.5-.5,2,1,1-.5,2-1.5.5-2.5,4h-1l1.5,1.5-3,2-4.5-1.5-2.5,5-6,1,.5,2.5-2,2.5,2,2-1,1-1,.5-2-2-3-.5-.5,4-1,1.5,1,1,.5,5,1.5,1.5-1,.5.5,2-.5,1-2.5.5.5-2h-7v3l-4-2.5-5,.5-2,2,1,1.5-.5.5-1-.5-2,1.5-2.5-.5-.5,2.5.5,1h-2l-1.5,1.5-1,2.5-2.5,3,.5,4.5h-1.5v1l-3-2h-4l-4-5.5-7.5-4.5-1-1-.5-2-1-.5-1.5-3.5-1,.5-1-2-4-2.5-1.5-2.5.5-1.5-1.5-.5"/>
      <path data-code="IRK-ZHI" d="m312.65,699.01l5.5-7-.5-1.5.5-1.5-1-1.5-2-.5-1.5-2.5,2.5-3.5-1-1.5h-1.5v-4l1.5-1.5-1.5-2,2-1,3-3.5,2,.5,3.5-.5.5-2,1.5-.5v-1l-1-.5v-1l-.5-1,2-2-1-2v-1l-1.5-2,1-3,2,.5,2.5-3-.5-4,2.5.5,1-1,2.5,1.5.5-1.5,2.5-2.5,3,2,2-.5,3-5.5.5-1-.5-1,1.5-1-1-2.5.5-1.5-1-1-.5-3-.5-1.5v-3l1.5-2.5-1.5-.5-.5-2-1-2,1-2.5.5-2.5,3-.5,1.5,1v1l2.5,2,4-2,1.5,1,1-2,.5-3.5,3.5-2,2.5,1,1,2,2,.5,5.5,1,4.5-1,1-4h2l1.5-2.5,3-1.5,2.5-4.5,1.5.5v1l2,2.5,2,.5,4-3,1,.5,2-2.5,3,1,.5,2,2,.5-.5,1,.5.5-.5,2h1l1.5,3.5v5l2.5,2,.5,1.5-2.5,1.5,1.5,3.5-1.5,3,1.5,3v2l-3,5.5-1.5,1,2,2.5,1,3.5,2.5,4.5,2,1,.5,1.5-.5,1.5-5,3,1,2.5-1.5,4.5,1.5-.5v3l-3,2,.5,1-2,2,.5,1.5-.5,1.5h-4.5l-4,4-7,2,1,2.5,1,.5,1,2-2.5,2-1.5,3.5.5,4,2.5,3-1,1-4,1.5-2.5-4h-3.5l-3,3.5-.5,2.5-2.5,1.5-5.5.5-1,3,1,4.5-4-1v2l.5,1v1l-.5,2-2,.5-.5,3.5-3.5-1-4,5.5-2.5.5-.5,2.5,3,4-1.5,2v.5l5.5,5-.5,5-1.5.5v1.5l-2,1.5-1-1.5-2-.5-6.5,1-1,6-3,3h-4l-5-2.5,1-1.5-1-2.5,1.5-3-2-3,.5-1-.5-1.5,1-.5-2.5-2.5-2.5-1v-6.5l-1-2-2.5-1v-1.5l-2-2.5.5-4-2-.5-2-2-1-2-1.5-1,1-2-1-.5v-2.5l-2-1.5.5-2-2-2"/>
      <path data-code="IRK-ZIM" d="m242.15,749.51l2-2.5,2,.5.5,2-1,2v3l-1.5-.5-2-4.5"/>
      <path data-code="IRK-ZMM" d="m242.15,749.51l2,4.5,1.5.5v-3l1-2-.5-2-2-.5-2,2.5m-1.5-7.5l2.5,1.5-1,1,1.5,1.5.5-.5-1-1h1l1-2-.5-.5.5-.5-.5-1,2-2,1,1,1.5.5,1,1-.5,2.5h.5v-3l-3-1.5.5-1,2.5,1,.5-1.5-.5-3-1.5-2.5-1.5,1,.5.5-1,1v1.5l-.5-1,1,2.5-3,3.5.5.5-.5,1-1-1.5.5-.5-1-2-.5.5,1.5,1.5-2,1.5h-1m-57.5,51l1-2,3-1,2.5.5,3-1.5v-1l-.5-1.5,2-2-.5-1.5v-2.5l1-3,1-.5,1-3.5,8-4.5-1.5-3.5,7-4.5-1.5-7.5,1-.5-.5-1.5.5-1h1.5l2.5-1h7l.5-6,2.5-1,5,2,8.5-6.5-2-3h1.5l2-2-1-.5-1.5-3h2l2,1.5v-.5l-1.5-2,7-4,.5-1v-3l-.5-.5v-1.5l-.5-.5v-1.5l3.5-3h2l-2-3,6.5-.5,1-2.5,2,1,1,1.5-1.5,1,3,3,.5,4,3,2-1.5,1v1h1.5l1,1v2l-4,4,.5,1v3.5l-2,.5-1,2,1.5,3.5h1.5l.5,1.5,1.5,2-2.5,2,.5,4.5-.5,2.5-2-.5-1.5-2-.5,2.5-2,1,1,1v1.5l-3-.5-1.5,1v1l-3.5,6-2-1-2,.5-1.5,6-4,3-1,2-1.5.5v1h-3l-1,3.5h-1.5l-.5,2-1.5,1.5-3-1-3,2.5-4,1v3l-3,2.5-1,3.5-1.5,1.5-3.5-1.5-.5,2.5-.5-1.5-2.5.5-1,1.5-.5,2.5-3-1.5h-2l-1.5,1-.5-2-3,2-2.5-2-6.5-1.5-2.5-2"/>
</svg>