<svg data-code="RU-LEN" xmlns="http://www.w3.org/2000/svg" viewBox="0 0 306.02 238.89">
    <g data-code="leningradskaja_oblast_" data-title="leningradskaja_oblast&amp;apos;">
      <path data-code="boksitogorskij_rajon" data-title="boksitogorskij rajon" class="cls-1" d="M171.39,196.76l5-5h4.5l1-1.5-1.5-2,2.5-3.5,2-.5,3,2,7.5-8,4.5,2,3,3-3,4.5,8.5,8.5-1,1.5,2,1.5v1.5l1.5-.5,6-6.5,4.5,3,.5-1.5,3,1,1-2,1-.5,2,.5,2-1.5h4l2-3-1.5-1,1-1-1-1.5,1-.5,1,1.5h1.5l.5-2-.5-1.5,2-2,2.5,1.5-.5,2-1,1,1.5,1.5-2,2-1.5-.5-.5,1.5,2,2-1,1,3.5,3.5-.5.5,1,1-1,1,3.5,2.5-2.5,3.5-4.5,2-5,8.5v1.5l5,3-4.5,5-1-4-5,6.5-.5-1.5h-2l1.5,2v1.5l-4.5-5-1.5,2,1,2-.5,2.5h-1l1.5,1.5-1.5.5,1,.5-5,.5-.5-1-1.5.5,1.5,4-4.5-2-2.5-.5-1.5,1.5-1.5-.5-3-2.5-2.5.5-1-.5v-1.5l-.5,1.5-2-1.5-2.5,2.5-2,2-.5-.5-3,1-1-.5.5-.5-1-3-3-1.5-1-5-1,.5.5-5-1.5.5v.5l-1.5-1v-2l-.5-.5-2,1.5-.5-1.5-2-.5-1,1.5h-1l-1-2-.5-4v-1l1.5-2-2,1-3-1.5.5-1,1-.5.5-1.5.5-.5-.5-2,.5-.5-2-5,2.5-3-1-1"/>
      <path data-code="gatchinskij_rajon" data-title="gatchinskij rajon" class="cls-1" d="M91.89,105.76v.5l1-.5-.5-.5-.5.5M76.89,97.26l4,.5,1,3.5,1-1,1,.5.5,2,2-.5v-1h2.5l1.5,3.5h2l1.5,1,3,4h-1v1.5h-1l.5.5,2.5-.5,1.5,2.5,2,.5-1,4.5-.5-.5-1,2,.5.5-6,2.5,2,2.5-1.5,2.5v1.5l-3,3-1,2.5-.5.5v.5l-1.5,2.5,1,1h-1.5l-1.5,7-6.5,4-2-1,1-2-.5-.5v1l-2.5,1h-2.5l.5-1-7-3.5-.5-1.5,1-2,.5-.5v.5l4.5-7.5-4.5-2,1.5-2.5,2-1.5.5-2,.5.5v-1l-2-1.5-2,1-5.5-1v-2l1-1.5,5.5-5.5.5.5.5-1h.5l1,1.5,3-3v-7h.5v-1l.5.5,1-2,.5-1.5-1.5-.5,1.5-2-.5-1,.5-1"/>
      <path data-code="kingiseppskij_rajon" data-title="kingiseppskij rajon" class="cls-1" d="M40.39,58.76l2.5-1,1-1.5,1,.5,2.5-1,1,.5.5,2.5-2,4-.5.5-.5,1,3,4.5,1.5.5.5-1h1l4.5-5,2-1,3,.5v1.5l1.5,3.5-.5,2.5,2,1,1-1-.5,2,1.5.5-1,1v1.5l-1,.5-1,3-1,1.5.5,1-.5,3.5,3.5,2.5-4,1.5-.5,1-2.5-.5-2.5.5v1l-1,1-.5-.5-2.5.5-1,2,.5,1.5h-1.5l-2,3-1-.5-2,2,1,1-2,3h-1.5l-.5-2h-1.5l-1.5,5.5-5.5-.5,1-3,1-.5v.5h1l-2-2-3,1,1,.5-.5,2h-1.5l1-3.5-2.5-2.5,2-1.5,1.5-2.5v-1.5l1.5-2v-1.5l-2.5-2.5-2-1-3-5,4.5-2,.5-5.5-1-3,4.5-2.5,3-2.5,2-7.5"/>
      <path data-code="kirishskij_rajon" data-title="kirishskij rajon" class="cls-1" d="M120.39,151.62v-1.5l1,.5,1-1.5h1l3-3.36,2-1,6,1v-1.5l1.5-1.5v-2l2,.5,2.5-3.5,3.5,3.5.5-1,1,1,.5,5,4-.5,1,.5-1,4-4,1,1,2,3,.5,1.5,2-1,2-2,1-1-.5-.5,1,9.5,5.5,1.01-.57,2.99,2.57-3.5,4.5,3.5.5-3.5,3.5-1.5-.5-3,2,1,1.5,3.5,2.5-1.5,2.5-3,1.5-2-1.5-6,1.5-2,2v2l-1.5.5v1h-1.5l-1,1.5-1.5-1-3,.5-1.5-1.5,1.5-.5-5-1.5v-3l1.5.5,1,1.5.5-.5-3-6,.5-1.5h.5v-1h1.5v-2l1,1-.5-1,.5-.5v-1l-2-.5v-1l3.5-1v-1.5l-.5,1.5h-2.5v-.5l2-.5,1-1-2.5,1,.5-4.5.5-.5-3-4.5,1.5-.5v-1l-2,.5-2.5,1.5-.5-1v1l-3-1h-1l.5,1.5-1.5.5-1.5-1.5v-.5l1.5-.5-1-.5v-1l1,.5-2.54-4.52,1.04-3.11h1Z"/>
      <path data-code="kirovskij_rajon__leningradskaja_oblast_" data-title="kirovskij_rajon_(leningradskaja_oblast&amp;apos;)" class="cls-1" d="M113.39,114.76l2,1,3-.5,3,1.5,6.5-5h1.5l6.74,2.26,47-48.5-25.74,45.74.5,1.5-1,2,2.5,2-1,1,1.5,2-3,3-1.26,5.26h-.5l-.5,1h-2l.26,2.24-1,2,2,1-3,3-1.5,2.5-1.5,1.5.5.5-.76.76h-.5l-1.5,2-.24-3.26-1-1-.5,1-3.5-3.5-2.5,3.5-2-.5v2l-1.5,1.5v1.5l-6-1-2,1-4,1,.5-3.5-4-2.5-.5-1.5h.5v-1.5l2.5-5-3.5-1.5-4-4.14,3.5-5-3-2,.5-1-1-1-1,1,.5-1.5-1,.14,1.5-1.5-.5-1.5"/>
      <path data-code="lomonosovskij_rajon" data-title="lomonosovskij rajon" class="cls-1" d="M65.39,73.76l1-1,1.5-.5,3,1.5,1,3,3-2.5,3,2.5,2-2-.5-1.5,1-1-1-1v-1l1-1-1-1,2.5,1,.5-1,2,2,.5-.5,7,9.5,2,6.5-1.5,2,4.5,6-1,1,3,1.5-.5,1,1.5,2.5h-1l-3,2-2.5,1,1,3h1l.5-2.5,1.5-1.5,1.5.5,1.5-1h-1.5l1-.5,3.5,3-2.5,1,.5,2-5.5,2-2-3-3.5-1-1.5-3.5h-2.5v1l-2,.5-.5-2-1-.5-1,1-1-3.5-4-.5,1.5-1.14-1.5-.86,1-1.5-1.5-.5.5-1h-3l-1-1-1-4-2.5-1.5-3,.5-.5,1-3.5-2.5.5-3.5-.5-1,1-1.5,1-3.5h1v-1.5"/>
      <path data-code="luzhskij_rajon" data-title="luzhskij rajon" class="cls-1" d="M23.39,112.26l.5,1,1-1.5,3,.5,2.5,4.36,1.5-2.5,3,2,.5-3h3.5l.5-2.5,2.5,7.14,5.5,2,.5,4.5,2,4,2-.5v1h3l.5,1.5,2,1,5.5-1.5-1-3,1-1-.5-2,5.5,1,2-1,2,1.5v1l-.5-.5-.5,2-2,1.5-1.5,2.5,4.5,2-4.5,7.5.5-.5-1,.5-1,2.5,7.5,4.5-.5,1h2.5l2.5-1v-1l.5.5-1,2,2,1,1,2,4.5,2.5,2-1,.5.5.5,1.5-1,2h-1v.5l-1.5,1.5,1,2-2,.5v.5l-1.5,1-1.5.5-6-.5-1,.5v-1l-1,.5-1-1.5-1.5,1.5.5,2-3,2.5-1,1.5-1.5.5.5-2h-3.5v-1.5l-5-2.5v-1.5l1-1v-2l-2.5.5.5-1-2-1,.5-1-1,.5v-1l-2-1-1,1.5-1-.5v2h-3l-1,1,1,1.5h-2l-1.5,4v3h-3.5l.5,1.5-2.5-.5-1,1.5h-.5l-3-2,1-.5-.5-1-1,.5-1-1.5h-1.5v1l-2.5-1.5-.5-1,.5-.5-.5-1.5.5-1h-1.5l-1-1-.5-3.5v-1l2.5-.5.5-1-1.5-2v-4.5l-2.5,1.5-.5-.5.5-1.5-1,1-.5-1,.5-1,1.5.5v1h.5v-1l1,.5v-2.5l-2-1-1.5.5,1-3,2.5.5v-2l2-.5-1-2h-1l-2-1.5.5-3-2-1,1.5.5v-.5l3.5-5.5h-3l-1.5-1-2.5-5-.5-3,.5-1h.5l.5-1,1.5-1,1-3"/>
      <path data-code="podporozhskij_rajon" data-title="podporozhskij rajon" class="cls-1" d="M244.89,96.62l5-1.5,3,2.5,1-1,15,10.5,1.5,3.5-1,6h.5l3.5-2v-1l1.5-1h1l2.5-1,2.5,2.5,3.5.5.5-1,3.5,6.5,2.5,2,.5,1.5-1,1,2.5,1.5,1.5-.5v1l2.5,1,2.5-.5,1,1-3,2.5-2.5,2.5,1.5,1-2,2h5.5l1.5,1.5,4,.5-9,11.5-8,1-1,1.5-3,1-6-3.5-5.5,2.5-.5,1.5.5,2-.5,1-1.5.5,1,1.5-1.5,3-1.5,1.5.5,1-11.5,13-.5,1.5-1-.5-2,2-3.5.5v1l-2-2.5-7-3,1-2-4-2.5,1-2.5-2-1,1-1.5-1-1.5.5-1-.5-.5,2-4.5-2-1.5,1-1.5-1-2h.5l.5-1h-.5l.5-.5-.5-1.5,1.5-1.5-.5-1,2.5.5,1-1-3-2,1.5-2.5,1.5-.5-2.5-.5-1-2,3-.5-.5-1,1-.5,1.5-1.5v-2l-1.5-1.5-1,.5-.5-1.5,1.5-1.5-4-4,1-1.5h1l.5-1,1.5.5-2.5-1.5-1.5-3.5,1-.5,1-1,1.5-.5,2.5-1.5-.5-2,1,.5,8.5-5.5-1.5-2-1-4h-3.5l-1,1.5-2.5-1-.5-1.5,1-1-.5-2.5.5-2.5"/>
      <path data-code="priozerskij_rajon" data-title="priozerskij rajon" class="cls-1" d="M129.89,33.12l1-2,5,3.5,1.5-5h.5l1-4,.5-1,2-.5.5-1.5,1-1-.5-1,6-6.5,5,6.5h1.5l2.5,4.5,8.5,9.5,17.24,30.9-35.74,8.6-2.5.5-1.5-.5-3.5.5v-2l-4,1,.5-2-2-1-1-4-2.5-.5v-2.5l-1.5-2.5-1,.5v.5l-1.5-1-3.5.5-2.5-.5-2.5-2.5,1-1-.5-.5.5-1.5h2l1.5-3v-1h.5l-3.5-.5.5-6.5,1-1.5,1-.5,3,1.5,2-.5-.5-2.5v-6l1.5-1.5,1.5-.5Z"/>
      <path data-code="slancevskij_rajon" data-title="slancevskij rajon" class="cls-1" d="M.39,89.62l2.5-2h.5l2.5-1.5,3.5-2.5,4.5-1,3-3h2.5l5.5,3,2-1,2.86,4.9,2.14,1.1,2.5,2.5v1.64s-1.5,2-1.5,2v1.5l-1.5,2.5-2,1.5,2.5,2.5-.88,3.07,1.37.3.5-1.86-1-.5,3-1.14,2,2.14h-2l-1,3,5.5.36.5-2h0l.5,3-1,2.5-.5,2.5h-3.5l-.5,3-3-2-1.5,2.5-2.5-4.36-3-.5-1,1.5-.5-1.14-1,3.14-1.5,1-.5,1h-.5l.5,3.36-1,.5-1.5-3.5,1-.5h-1l-.5-2-3-2-.5-2.5-2,1v-2l-3,.5v1.5l-.5-1.5-1,.5,1.5-3.5-.5-.5h1l.5-1-1-.5,1.5-2.5-.5-2.5,1.5-.5-1.5-1,1-1-.5-1-2-.5.5-.5-.5-2-1.5-2-6.5-2"/>
      <path data-code="sosnovoborskij_gorodskoj_okrug" data-title="sosnovoborskij gorodskoj okrug" class="cls-1" d="M70.89,73.62l4.5-1,1-1-1-2v-1l1.5,1,2-1,1.5.64-1,1v1l1,1-1,1,.5,1.5-2,2-3-2.5-3,2.5-1-3.14"/>
      <path data-code="tikhvinskij_rajon" data-title="tikhvinskij rajon" class="cls-1" d="M165.63,159.52l2.5,1,.5-.5,3,2.5.5-1.5h2l1.5-1.5.5,1-.97,2.9.97-2.4,1-.5h-1l.5-1.5,2.5,2,2-2,.5,1,2-2.5h1l1-4,2,1,2.5-10.5,3-2,4.5,2-1,2,.5.5-1,2.5,1.5,1,1.5,4,3,.5,1.5,3h.5l4.26-2.9,2.5,3.5-.5.5h1.5l1.5,2.5,2,.5,4,3-1.5,1,2,1,.5-.5h.5l6,5,4.5.5,1-3.5,3-1.5,4.5,2.5-1,2.5,4,2.5-1,2,7,3,2,2.5-2,2.5-2.5,2.5-.5,3-1.5,2.5h-3l-2-1.5.5-1.5,1.5.5,2-2.5-1.5-1,1-1,.5-2.5-3-1-2,1.5,1,1.5-.5,2h-1.5l-1-1.5-1,1,.5,1.5-.5,1,1.5.5-2,3.5h-4.5l-1.5,1.5-2-1-1,1-1,2-3-1-1,1.5-4-3.5-6,7-1.5.5v-1.5l-2-1.5,1-2-8.5-8,3-5-3-2.5-4.5-2-7.5,8-3-2-2,.5-2.5,3,1.5,2.5-1,1.5h-4.5l-5,5-6-5-3.5,3.5-2-2,1-2.5-1-3h-1v-1l-1.5-.5,1.5-3-5.5-4.86-1-1.5,3-2.64,1,.5,4-2.86-3.5-.5,3.5-4.5-2.99-2.57,8.23-4.67Z"/>
      <path data-code="tosnenskij_rajon" data-title="tosnenskij rajon" class="cls-1" d="M93.39,123.12l5.5-2.5,1-2.5.5.5.5-2.5h1.5l1-1-.5-1.5,1.5.5,1-.5,1,1,1.5-1,2.5,2.5,1-1,1,1,.5.5-.5,1h1l-.5,1.5,1-1,1,1-.5,1,3,2-3.5,5,4,4,3.5,1.64-2.5,5v1.5h-.5l.5,1.36,4,2.5-.5,3.5,4-.86-3,3.36h-1l-1,1.5-1-.5v1.5h-1l-1,3h-2l-2,2v1.5l-1-.5-1,1-1,3.5-2.5.5-.5-1v.5l-2.5,1,.5.5-1.5,1.5h-1l-1,1.5h-5l-1,2-1.5-1.5-1.5,1-2-1.5,1-3-.5-1.5,1-.5v-1.5l-1.5-1.5-1.5,1v-1l-4,.5-.5,3h-.5l-1.5-2.5,2-1v-.5l1-.5,1-1.5-.5-1.5-.5-.5-2,1-5-2.5-.5-2.5,6-3.5,2-7h1.5l-1-1,1.5-2.5-.5-.5,1-.5,1-2.5,3-3v-1.5l1-2.5-1.5-2.5"/>
      <path data-code="volosovskij_rajon" data-title="volosovskij rajon" class="cls-1" d="M42.39,101.76l.5,1.86h1l2-3.36-.5-.5,2-2.14,1,.5,2-3,1.5.14-.5-1.5,1-2.14,2.5-1,.5,1,1-1v-1.5l2-.5,2.5,1,1-1,4-1.36.5-1,3-.5,2.5,1.5,1,4,1,1h3l-.5,1,1.5.5-1,1.5,1.5.86-1.5,1.14-.5,1,.5,1-1.5,2,1.5.5-.5,1.5-1,2-.5-.5v1h-.5v7l-3,3-1-1.5h-.5l-.5,1-.5-.5-6.5,7v2l.5,2-1,1,1,3-5.5,1.5-2-1-.5-1.5h-3v-1l-2,.5-2-4-.5-4.5-5.5-2-2.5-7.14,1-2.5-.5-3,1-3.36h1.5Z"/>
      <path data-code="vsevolozhskij_rajon" data-title="vsevolozhskij rajon" class="cls-1" d="M114.39,71.62l.5.5,1.5-1,3,1.5.5-1.5,1-1,.5-2.5,1.5,1.5,3-1.5,1.5-3h.5l.5-3,1-.5,1.5,2.5v2.5l2.5.5,1,4,2,1-.5,2,4-1v2l3.5-.5,1.5.5,2.5-.5,35.74-8.6-47,48.5-6.69-2.08-1.54-.18-6.5,5-3-1.5-3,.5-2-1-1.5-3.64v-4l-1-2h1.5l.5-2,4-4,1.5,1-.5-1.5h.5l-1-.5,1.5-2.5-1-3.5,1-2.5-2-2,.5-2.5h-1l-4-6,.5-1.5-1-2.5,1.5-.5,1-3"/>
      <path data-code="vyborgskij_rajon" data-title="vyborgskij rajon" class="cls-1" d="M72.89,10.62l1-1h3.5l.5-1,2-1,13-1,2.5-1.5,1.5,1,6-1.5h7l2.5-1,3,3,5.5-3.5,4.5-.5,2-1.5,4.5,1.5h12.5l4.5-2-1,4,.5,2.5,2.5,3.5-2,3-6.5,7,.5,1-1,1-.5,1.5-2,.5-.5,1-1,4h-.5l-1.5,5-5-3.5-1,2-1.5.5-1.5,1.5.5,8.5-2,.5-3-1.5-1,.5-1,1.5-.5,6.5,3.5.5h-.5v1l-1.5,3h-2l-.5,1.5.5.5-1,1,2.5,2.5h6l1.5,1-.5,2.5h-.5l-1.5,3-3,1.5-1.5-1.5-.5,2.5-1,1-.5,1.5-3-1.5-1.5,1-.5-.5-1,3-1.5.5.5,1-2-3.5v-4.5l-1.5-1-.5,1-1-2.5h-3l-.5-2-1.5-.5-3,.5,1,1.5-1.5-.5.5,1h-1l-7.5-6.5-2.5-4,.5-1.5,1.5-1.5-.5-1.5,1-2h-1l-.5-2.5,1.5-4h-.5l-1,1h-.5l-2.5-6,.5-1.5,2-3,.5-3.5,2.5-7.5.5,3-1,2-.5,3,.5,4.5,2,1-.5-2,.5,1,1-1-1-1h1.5v-2l2-2.5v-.5l-.5-1-.5.5-.5-.5v2l-1.5-1.5v-1.5l1-1h.5l.5-1.5h1v-3l-2.5-2.5-.5,1.5,1,1.5-1,.5v1.5l-1-2h1v-1.5l-1.5.5-.5-1.5h-.5l-.5,1h-.5l-.5-1-1.5,1.5h.5l-.5.5v-1l-1.5-.5h-1l-1.5,2.5-1-3-.5.5-.5,1.5-1-3h-.5l-.5,1-1-.5v-2l-1.5,1-1-2-1,1.5v.5l-1-1-2,1-.5-2-.5,1,.5-1-.5-2.5,1-1M70.39,12.12h1l-.5,2.5-1-.5.5-2M84.39,26.62h.5-.5M72.39,18.12v.5-.5M84.39,30.12h.5v.5h-.5v-.5M71.89,19.62h.5v.5l-.5-.5M83.89,31.12v.5-.5M81.89,32.62l2,.5-.5-1h.5l.5,2,1.5-3.5.5-2,1-1-.5,4.5h-.5l-.5,2-1.5,1,2,3.5v.5h-1l1,4h-1l-1,1-1.5-2-.5-3,.5-2-1.5.5.5-5M88.39,44.12l.5-.5v.5h-.5M64.89,28.12h.5l-.5.5v-.5M79.39,19.62l.5-.5-.5.5M76.39,16.62v.5h-.5l.5-.5M95.89,20.12h.5-.5M93.89,30.62h-.5l.5-1v1M93.89,31.12v-.5.5M68.89,13.62h-.5.5M66.89,13.62l.5-.5h.5l-.5,1-.5-.5"/>
      <path data-code="volkhovskij_rajon" data-title="volkhovskij rajon" class="cls-1" d="M183.13,65.52l18.5,53.5-1,1.5-.5-.5-.5.5,2.5,2v1.5l-1-.5v1l.5,1v3.5l.5.5.5-1.5,1,2-1,1.5.5,1,9,7,1-.5-.5,1.5-.5.5v1.5l-2.5,3,2,1.5v2h2l-1,1,.5,2-2.5-1-.5,3-2,2.5v-1h-1l-3,2.5-.5-.5-1.5-3-3-.5-1.5-4-1.5-1,1-2.5-.5-.5,1-2-4.5-2-3,2-2.5,10.5-2-1-1,4h-1l-2,2.5-.5-1-2,2-2.5-2-.5,1.5h1l-1,.5-1,2.5,1-3-.5-1-1.5,1.5h-2l-.5,1.5-3-2.5-.5.5-2.5-1-9.24,5.24-9.5-5.5.5-1,1,.5,2-1,.74-1.74-1.5-2-2.74-.76-1-2,4-1,.74-3.74-.74-.76-4,.5-.26-1.74,1.5-2h.5l.5-.5-.5-.5,1.5-1.5,1-2.5,3.5-3-2-1,1-2v-2.5h2l.5-1h.5l1-5,3-3-2-2.5,1.5-.5-2.5-2.5,1-1.5-.5-1.5,26-46"/>
      <path data-code="lodeynopol_sky_rajon" data-title="lodeynopol&amp;apos;sky_rajon" class="cls-1" d="M183.13,65.52l27,46.5,2-2,4,2.5,3,1,2.5-2.5,2.5,1.5-1-2.5h1v-.5l1-1,.5,1,1.5-1v-.5l8,1.5,1-1,.5-3,1.5-.5,2.5,2-1,1,.5,3,4.76,5.6-2.5,1.5-1.5.5-1,1-1,.5,1.5,3.5,2.5,1.5-1.5-.5-.5,1-1,.5-1,1,4,4-1.5,1.5.5,1.5,1-.5,1.5,1.5v2l-1.5,1.5-1,.5.5,1-3,.5,1,2,2.5.5-1.5.5-1.5,2.5,3,2-1,1-2.5-.5.5,1-1.5,1.5.5,1.5v.5l-.5,1h-.5l1,2-1,1.5,2,1.5-2,4.5.5.5-.5,1,1,1.5-1,1.5-3.5-1-2,1-1,3.5-4.5-.5-6-5h-.5l-.5.5-2-1,1.5-1-4-3h-2l-1.5-3h-1.5l.5-.5-2.5-2,1.74-2.1.5-3,2.5,1-.5-2,1-1h-2v-2l-2-1.5,2.5-3v-1.5l.5-.5.5-1.5-1,.5-9-7-.5-1,1-1.5-1-2-.5,1.5-.5-.5v-3.5l-.5-1v-1l1,.5v-1.5l-2.5-2,.5-.5.5.5,1-1.5-18.5-53.5"/>
    </g>
</svg>