<svg xmlns="http://www.w3.org/2000/svg" viewBox="0 0 316.45 377.35">
      <path data-code="KIR-AFA" d="m272.7,192.1l-.5,1,9,6.65-1,3-1,13,9.5,7v-2.5l2-1.5,1,6h1.5v2.5l-1,1-1,1.5-3.5.5-2.5,2.5-1,5.5-1,2v2.5l2,3.5-.5.5v1l-1,1h-5l-2.5,1v3l-3.5,2.5v2.5l-2,8-4.5-3.5-.5,1,.5-1.5-3,3,1-1.5-2.5-2-3,.5-.5,1-2.5,1-4.5-3.5,2-2-2.5-2,2.5-2.5-1-1,1.5-2-2-1.5-.9,1.8-8.1-4.95,1-9,5-6.5v-1l4.5-5h.5l1-1.5,3.5-2,.5-2,1.5-2.5.5.5,3-3.5,3,2.5,3-4-13.5-10.6,8-8.9,1-3.5-2-3,9.5,6Z"/>
      <path data-code="KIR-ARB" d="m64.7,210.6l5,1.15,5.5-1,3.5-1.5,2,1.5,1.5-2,1.5,1.5-.5.5v1l3-.5,2,1.5.5-1.5,2,.5h.5v-1h2l-1.5,1,.5,1.5-2,1.5,1.5,1.5-.5,1.5,1.5,1-1,1.5h1.5l.5,1.85v1.5l-1,1.5h-.5l-1,2.5v1l-1.5.5-.5-1.5,1-1.5h-2.5l-1,.5,1.5,2-1.5.5v1l.5,2-4,2v.95l-1.5,1.55-1-1.5-1,.5.5-2-1.5.5v-2l-2.5.5-.5-1.5h-2l-.5-1h1l-.5-.5-3-1.5v-1.5l-4-1v-2l-2-1-1.5-4,.5-1.5h-.5l1.5-2-1-3,1-1.5Z"/>
      <path data-code="KIR-BEL" d="m184.2,176.75h2.5l1,1,1.5-1.65.5,2.5,1.5-1,1,3,3,.5,1-2h1l1-1.5-1-1,3-1-1-1,1.5-1,1,.5-.5-2,.5-2.5,1,1.5,1.5-.5v-2l1.5-1.5,1,1,2.5-1.5.5,1.5-1,.5.5,1-.5,1.5,3.5,2-1,.5,1,2,1.5-1v1.5l2.5-1,.5,1-.5.5,3-.5,2.5.5,1-1.5,1.5.5,11-14,7,5.5-1.5,2,2,1.5-.5,3,2.5,3-1.5,3-1.5-.5v-1.5l-2,.5-1-2-4,5,2,1.5-6.5,9,7,5.5-8,10.15-12.5-10-3,4,2,2-3.5,5,1.5,1-3,4,2,1.5-3,4-14-10.5-5,6.5-2.5-2,.5-.5v-1l-1-.5-.5.5v1l-7-5.5v-1l2-.5v-2l2-.5,1.5-2.5h-2l-1-1-.5-4.5,1.5-.5-.5-1,.5-.5,1,.5,1.5-1-1.5-2-1.5.5-1.5-1,.5-1.5-.5-.5.5-1-1.5-1,2-1.5-.5-.5,1.5-1.5-.5-.5.5-1h1l-1-1.5.5-2.5"/>
      <path data-code="KIR-BOG" d="m146.2,249.25l3.5-1v-1l2-1-1-1.5.5-.5-.5-1.5.5-.65,1,.15,1-1,.5,2,5-2,2.5,2.5-.5,2,4,2.5v1l-1,.5v1l4,1,.5-1,1.5-1,.5-1.5,3-1,1,3.5,2.5,2-.5,3-.5,1-1.5-1-2.5,1-.5,2-1.5.5v3l1-.5-.5,1.5-1.5.5-5.5,2.5h-2l-.5,1.5h-2.5v1l-8,2.5-2,1.5-1-.5.5-1.5-1.5-2,1.5-2-.5-1.5.5-3.5-1.5-.5.5-2,.5.5v-2.5h.5v-1l1.5.5v-2l-1-4-1,.5-1-2"/>
      <path data-code="KIR-DAR" d="m94.7,113.25l3-1.5-1-1,4.5-5.5,6,5,3-4,4,3-1,1,7,6h1l.5.5-1,.5v1l6,4.5-3.5,4,1,1-.5,1,1,1-4,4.5v8l-.5.5,1,.5-2,1.5,1,2.5-1,2,1,3.5-.5.5,1-.15-.5,1.5.5,2.5-.5,1,.5.5-1,1v1l-5.5.5-.85,1-1.15-1.9-.5-3.5-3-2-.5,1.5-1,1,.5,1-2.5,1-1.5,3-2-1,1-1.5v-.5l-2-2-5-1h-.5l-1,1.5v.5l-1,.5-.5-1-2.35-.95,1.35-1.2-2.5-4,.5-1.35-1-1,.5-1-.5-1,1-1v-2l-1,2-1-3h-.5l-.5,2.5-3,.5.5-2-1.5-.5.5-2-.5-1,2-1.5-1.5-1.5.5-1,.5-.5v-1.5l3-2.5,2,.5,3,4.5,5.5,1.5-.5-3,1-1.5v-4.5l1.5-1-2-4,.5-2h1.5l1.5-1.5-1.5.5-3-1-2-7.45"/>
      <path data-code="KIR-FAL" d="m169.7,259.25l1.5-.5.5-2,2.5-1,1.5,1,.5-1,.5-3,2.5.5.5-2-.5-1.5,2-1,1.5-2,4,.5-1-2,1.5-1.5-1.5-1,2-1,.5.5.5-1-.5-1.5v-3l5-2-.5-1,1.5-2,.5-1.5,1.5.5,1-1,3-.5.5-1-.5-1,7.2-10.25,6.3,4.75-1,1h-1.5v2.5l-.5.5.5,1-1,1.5,7,3.5-1.5.5,1,2-.5-.5-1.5.5v-1.5h-1l-1.5,1-.5,1.5,1,1-1.5,1,.5,1.5-4,2.5-2.5-.5.5.5-1,1,1,.5-1,1-.5,2-4.5,1v2l-3.5,2.5-.5,1v1.5l2,.5,1-.5v4l-1,2.5-2,1v1l1.5,1,1,2h-1l-2.5,3.5-2.5.5v2l-1,1-.8,2.75-2.7-1.9.5-1.85-1-.65v1h-2.5l-.5-3-3-.85-1.5-1.5-2.5,1v-3.5l-2,1v-1.5l-3-1.5-.5.5-1.5,1,.5-1.5-1,.5v-3"/>
      <path data-code="KIR-YAR" d="m33.2,235.25l2.5-2.5,1,.5,1-1h1.5l1.5,1,1.5-1.5v-3l1,1.5-1.5-3,1-.65,2.5,3v1.5l3.5-.5v1.5l1.5-1.5,1,1.5,2-1,6,4,3,.5,3,2.15.5,1.35-3,.65,2,3-1.5,2.5,1.5.5-2,1,.5,3.5,3.5,4-1,.5.5,1-1.5.5.5,1-1,1.5,1.5,2.5-.5.5-6,1,.5-1-1.5-1.5,1.5-1.5-1-1h-2.5l-1,1.5-1-1-.5.5v1.5l-2.5,1-2-1,1.5,3-1.5,1.5-1-1-1.5,1h-1.5l-.5-2-1,.5-1.5-1.5-.5,1.5-2,.5,1-2-1-.5-1.5,1.5.5-1.5-1.5-1.5v-3l-.5-1.5-1.5.5.5,2.5-4.5-2,3.5-5.5-1.5-1.5,2.5-1v-1l-3.5,1-1.5-1.5,1-1.5h-1l1-1.5-.5-2h1v-1l.5-.5.5-1.5h-1l1-3.5"/>
      <path data-code="KIR-YUR" d="m151.2,156.75l1.5,1,.5-1-.5-1-1.5,1m-22.5-12l4.5,1,2-7,1-1.5,5,4.5,5.5,2-.5-1,.5-1,.5,1h3l4.5-2.5-.5,1,1,.5,1-1-.5,1.5,1.5,1,1-1.5,8,6.5-1.5,1v1l-.5,1,5.5,4.5-1.5,2.5v.5l-.5.5,1,.5-1.5,2,1,.5-4,3-1,1.5-4.5,1.5-.5.5,1,.5-.5,1.5h1.5l.5,1.5-1,1.5,1,1h-.5l-1.5,2.5h1l-.5,1.5-1-.5-2,2.5v1l-4.5-1-3.5,2-2-.5.5-1.5-1-.5-1,1h-1.5l-1,1-1.5-3.5h-.5v1l-1.5-1,1-1.5-.5-2.5.5-1.5-1-2,1-.5-.5-1.5,1-.5-1.5-1.5v-2.5h-1v-2l1,.5-1.5-1,.5-1.5-8-1,1.5-5.5-1-1,.5-1-3.5-1,1.5-6.5"/>
      <path data-code="KIR-KIK" d="m13.7,217.75l4.5-.5.5-2-1.5-.5-1.5,1,.5-1.5,5.5-.5v-1.5l-1-.5,1.5-3.5,2.5,3h1.5l.5,2,2.5,2,4,.5,6-1,1,2h2l-1,2.5,2,1.5-.5,1,.5.5v1.5l-.5,1-1-.5-1,3h1l1.5,3-1-1.5v3l-1.5,1.5-2.5-1-1.5,1-1-.5-2.5,2.5-1,3.5h1l-.5,1.5-5.5-2.5-1.5,1.5-1-.5v1h-1v1l-3.5,1-1.5-1.5v-2.5l-3-1.5.5-1-.5-.5,1.5-1-2-1v-1.5l-1-1,.5-1-.5-.5.5-.5-2-1,2-2,.5-2-2.5-1.5,1-1.5v-2.5"/>
      <path data-code="KIR-KIL" d="m119.7,311.1h-1l3-1v.5l1-1.5.5.5,1-2.5,4.5-6-.5-.5,4.5-6.85-.5-.5,1.5-1,6-8.5-.5-1,1.5-1.5,1.5-4-.5-.5h3l-.5,1,1,1,.5,4,1,.5-1,1.5,2,1.5-.5,1-1,1,7,5-4.5,6.5,2,1-1.5,2.5,1,.5-2.5,3.5,1.5,1.5-2.5,2.5.5,1.5-2,1,2,1.5-.5,1,1,.5-1,1.5.5,2.5-1,1.5,2.5,1.5-1,1.5h-1l1.5,1.5,1.5-.5-.5,1.5,1.5,1-1.5,1,.5,1-2,.5-2.5,2.5-3,.5-1,3-2.5,3-4-3-.5-3.5-5.5-1.5-4-3-2-5-1,2-2.5-.5,1-1,.5-2,1.5.5,1-1.5-6-4v-1h.5l-.5-3.65,2.5-2Z"/>
      <path data-code="KIR-KIR" d="m132.2,181.25l2.5,1.35,3.5-1,1.5-.85-1-2,1.5,1v-1h.5l1.5,3.5,1-1h1.5l1-1,1,.5-.5,1.5,2,.5v4l.5,1,1-.5v-3.5h1.5v1l-.5.5,2.5,5.5-2,.5,1.5,1v1.5h-1l-.5,3-2,1,.5,1.5-1-1-1,1-1,1.5-4.5-3.5-2,1.5.5,1h-1.5l-.5-.5,1-.5v-.5l1-.5,1.5-1.5-1-2.5-1-1-2.5,1.5-6-.5-1-2,.5-1,1.5-.5-1-.5,2-2.5-1-2,.5-1-2-.5,1-.5-1-.5,1-.5v-1"/>
      <path data-code="KIR-KRC" d="m165.2,200.25l1-.5.5.5h-1.5m-3.5,3l1-1,.5,1.5h-.5l-1-.5m-8-3.5l3-2v1l2,2,.5,2.5-2.5-1,1,1.5-2,.5v-2.5l-2-1v-1"/>
      <path data-code="KIR-KRM" d="m165.2,200.25h1.5l-.5-.5-1,.5m-33.5-6.5l6,.5,2.5-1.5,1,1,1,2.5-1.5,1.5-1,.5v.5l-1,.5.5.5h1.5l-.5-1,2-1.5,4.5,3.5,1-1.5,1-1,1,1,1.5-.5,2,.5v-.5h.5v2l2,1v2.5l2-.5-1-1.5,2.5,1-.5-2.5-2-2h0v-1l2.1,2.8,1.9.7,1.3,1.7-.3.3,1,.5h.5l-.5-1.5v-.5l1-1.5v-.5l1.5.5,3-2,.5,1-2,1.5v1.5l-1.5.85,1.5,2-.5,1.5,1.5.5.5,2.5h-3.5l-2-4-.5,3.5,2.5,1-.5,2,3-1.5.5.5-1,.5v.5l1.5.5v1l4.45,1.85-.95,3.15,1.5.15-1.5,1,.5.5-1,2,.5,2.5,2,5.5h.5v-1l2.5,2-1.5.5-1,3-2-1h-2.5v-2l-1,.5-1,2h-1l-.5,2-1,.5-1-2,.5-1-1.5-1-1.5.5-1,1-1.5-2-3,.5-1.5-.5,1-1.5v-1l1.5-1-1-2.5,1-.5-4.5-3,.5-1.5-.5-1.5,1.5-2.5-.5-.5-3.5-.5-1.5-4h-6.5l.5,1-2-.5-1,1-1-1.5-1.5.5-1.5-1-1,1-2.7-1.65.7-1.35,1-1,5-1.5-1-2.5-1.5-.5v-1.5l-2.5-2v-2.5l-2-1v-3.5"/>
      <path data-code="KIR-KOT" d="m94.2,188.25l1-.5v-1h.5l.5-1.5,2,1-.5-1,1.5,2-.5.5,1.5.5-1.5.5.5.5-2.5-.5-1,1.5h-.5l1-1-.5-1h-1.5m3,3v.5h-.5l.5-.5"/>
      <path data-code="KIR-KTM" data-name="KIR-KRM" d="m97.2,191.25l-.5.5h.5v-.5m-1.5-3l.5,1-1,1h.5l1-1.5,2.5.5-.5-.5,1.5-.5-1.5-.5.5-.5-1.5-2,.5,1-2-1-.5,1.5h-.5v1l-1,.5h1.5Zm-37.5,3.5l1-1.5,3,.85,4-5.5,4,3,2-2.5,4,3,2.5-3.5h2l1-1-1-.5,1-1,1,1,1-3,1-.5v-1.5l1-1.5v-1.5l2-1-.5-2,1.5.5-1-2.5,1.5-2-.5-1.5.5-1-1.5-1,3-4-.5-1.5h-2.5v-1l2.65-2.3,2.35.95.5,1,1-.5v-.5l1-1.5h.5l5,1,2,2v.5l-1,1.5,2,1,1.5-3,2.5-1-.5-1,1-1,.5-1.5,3,2,.5,3.5,1.5,2.5-3.5,1.5,1,1.85-.5,1.5-.5,1,.5.5-1.5,1v1.5l-.5,1h1v.5l-.5,2,1.5,1.5-.9,1.3.4,1.2,3.5,2-2,2.5v1.5l-1,3.15-1.5-.5-3,1.5v1l-.5.5-.5-2,1-.5-1.5-.5v1.5l-1.5,2-1-.5-1,1.5-1.5-1-2,3-1.5-1.5-1.5,2,.5,1.5-2,3.5,1.5,2.5-2,.5v1.5h2.5v1.5l-.5.5,1,1.5-2-.5-.5,3.5h-2v1h-.5l-2-.5-.5,1.5-2-1.5-3,.5v-1l.5-.5-1.5-1.5-1.5,2-2-1.5-3.5,1.5-5.5,1-4.05-.9.55-1.7h1l-2-3.85,1-5-8-8.55"/>
      <path data-code="KIR-KUM" d="m129.2,213.75l2-1,.8-1.65,2.7,1.65,1-1,1.5,1,1.5-.5,1,1.5,1-1,2,.5-.5-1h6.5l1.5,4,3.5.5.5.5-1.5,2.5.5,1.5-.5,1.5,4.5,3-1,.5,1,2.5-1.5,1v1l-1,1.5,1.5.5,3-.5,1.5,2,1-1,1.5-.5,1.5,1-.5,1,1,2-1,1,1.5,2-1,1v1.5l-1.5.5v2l1,2-2,.5-1.5-1.5.5-2-2.5-2.5-5,2-.5-2-1,1-3.5-.5-4.5-3-1,.5-1.5-2.5h1.5v-2.5l-2-1-2.5,1,.5-1-1.5-1.5-2.5,2v-1l-4,.5-4.5-1.5-3,.5-.05-1.75,2.55-.35.5-1.85,1.5.5,2-2.65h1v-2.85l-1.5-1.5.5-1.5-2-3.65,1-1.5v-1.4"/>
      <path data-code="KIR-LEB" d="m84.2,270.75h2l1.5-1.5v-1.5l1.5-2.5h1l.5-1-.5-2.5,1.5-.5,1.5,1.5,2-1.5-1.5-2.5,2.5,1,.5-3h.5l.5-2h.5l-.5-1,1.5-2,1.5-1.15,1.5,1-1.5,4,2,2,3-2,4,2.5,1,2-.5,2.5,2,2.5-.5,2,2.5,1,.5,1-1.5.5.5,1-1.5,3.65h-2l-.5,1.5h-1.5v1.5l-2,.5-2-2.5-2,.5v-1.5l-2,1-1.5-1.5-5.5-1.5-1,1,.5,2,2,2.5-3,3h-1v3l-1.85.95-.35.3-1.3.75-2-2,.5-1-2.5-1.5.5-1v-3.5l1-1.5-1-1,2-1h-2l.5-2.5"/>
      <path data-code="KIR-LUZ" d="m137.7,21.75l2-.5v-2l2-.5-.5-1,1.5.5,10-11.5-.5-.5.5-1.5,4-.5,1-2,1.5-2,7,6.5.5-.5,4,1,.5,1v1.5l3.5,2.5.5,2,2,.5,1,2.5-3.5,7,11.5,9.5-5.5,20-3,1v1l-1.5,2,2,5-2-1-1.5.5,4,3,.5-.5,1.5,4.5-2,2-11.5,3-18-24,2.5-3h-1.5.5v-1l1.5.5,1-1.5-2-1.5,3-4-4.5-4-1,1h.5l-1,2-1.5-.5-1-1,.5-1-1-1.5-.5,1-2-1.5-1,1-1-1,.5-1-.5-1-2,.5,1-2-1.5-3-2-1,2.5-2.5-1-2.5"/>
      <path data-code="KIR-MAL" d="m94.7,318.25h1.5l5-6.5,2,2.35,4,.5,2.5,2.5h5l.5,1.5.5-.5.5-2.85.5,1,.5-3.15.5,3.65h-.5v1l6,4-1,1.5-1.5-.5-.5,2-1,1,2.5.5,1-2,2,5,4,3,5.5,1.5.5,3.5-2-1.5-5,7v1.5l-2.5,1.5h1l-1.5,2,.5.5-.5,3-.5-1-2.5-.5,1,2.5-2.5,1.5-5-2-5.5-6.5.5,5.5-3.5.5-2.5-2.5-.5-2-1-.5,3.5-2-2.5-.5v-7l2.5-1-1.5-4,3.5-3-1-.5-1,1-1.5.5.5-1.5,1-.5-1-6h-.5l-1,2-1,.5-2-1,.5-1.5-2-1-2,2.5-2-1.5.5-1-1-2.5"/>
      <path data-code="KIR-MUR" d="m123.2,126.75l8.5-10.5,4.5,4,1.5-2,5.5-3.5,1-1.5,3-1,3.5-7.5,7.5,6,1-1,.5,2,6.5,5.5-7.5,10,1.5,1,2.5-1,1.5,2.5-.5.5,3.5,3v.5l-2,3,6,4.5-5,7-8-6.5-1,1.5-1.5-1,.5-1.5-1,1-1-.5.5-1-4.5,2.5h-3l-.5-1-.5,1,.5,1-5.5-2-5-4.5-1,1.5-2,7-4.5-1-2,9-6.5-1-1-3.5,1-2-1-2.5,2-1.5-1-.5.5-.5v-8l4-4.5-1-1,.5-1-1-1"/>
      <path data-code="KIR-NAG" d="m181.2,139.6l7.5-9.5,3.5,1.5,4,.5-1.5-4.5.5-2,1.5-1.5,7.5,6.5,2-3,4.5-.5,11,3,3,2,1.5-.5,1-1.5,1.5-.5,7.5-4.5,4.5,1,4.5,6.5-1,4,1,2,4.5-1-7.5,29.5-7-5.5-11,14-1.5-.5-1,1.5-2,.5-.5-1-3,.5.5-.5-.5-1-2.5,1v-1.5l-1.5,1-1-2,1-.5-3.5-2,.5-1.5-.5-1,1-.5-.5-1.5-2.5,1.5-1-1-1.5,1.5v2l-1.5.5-1-1.5-.5,2.5.5,2-1-.5-1.5,1,1,1-3,1,1,1-1,1.5h-1l-1,2-3-.5-1-3-1.5,1-.5-2.5-11-9,7.5-9v-2l1-2-8.5-6.5,5-6.5-2-1.5"/>
      <path data-code="KIR-NEM" d="m128.2,261.1l4-1.5.5,1v-.5l.5-.5.5-.5,1,.5.5-1.5h1.5l-1-1,.5-1,1.5,1,1-1.5h.5l-.5-1.5,1.5-1,1,.5v-1h1.5l.5-1h1.5l1.5-2.35,1,2,1-.5,1,4v2l-1.5-.5v1h-.5v2.5l-.5-.5-.5,2,1.5.5-.5,3.5.5,1.5-1.35,1.85,1.35,2.15-.5,1.5,1,.5,2-1.5,4-1.25-.55,3.6.5,1,2.5-1,1,1.5-1,.5.5,3-3,3.5,1,1.5,1.5-1,1,.5-1,1.5,2.5.5-1,2-1.5-.5-.5,1-2.5.5-2.5-3,1,3.5,3,1.5-2,3.5-7-5.35,1-1.15v-1l-1.5-1.35,1-1.5-1-.5-.5-4-1-1,.5-1h-3l.5.5-1.5,4-1.5,1.5.5,1-6,8.5-1.5,1,.5.5-1.5,2.35-9-6.5,7-11-1-1,1-1.5-2-1.5.5-2,1.5-2-.5-4,.5-.5v-2.5l-.95-2.5"/>
      <path data-code="KIR-NOL" d="m107.2,244.6l.5-1,3-2v-3.5l1-.5v-.5l2.5-.5,1-2h3.5l1.05-2.45,2.5,2.5-.55.95,2,1.5-1,.5,2,2-2,3.5,3.5,4-.5,1,.5,1.5,1.5,1v-1.5h1l2.5,1.5,1,2.5,4.5,3,2-.5-1,1.5-1.5-1-.5,1,1,1h-1.5l-.5,1.5-1-.5-.5.5-.5.5v.5l-.5-1-4,1.5,1,2.5v2.5l-.5.5.5,4-1.5,2-.5,2,2,1.5-1,1.5,1,1-4,6.5-3-1.5-.5.5-1-2-1.5.5-.5-2-2-1v1.5l-1-.5v-1.5l2.5,1-.5-1.5,1,.5,1-3.5-1-3.5-2.5-1-.5.5-1.5-3.5-2.5-1,.5-2-2-2.5v-1l.5-1.5-1-2-4-2.5-3,2-2-2,1.5-4,1-1,.5,1,2.5-2-1.5-2,1.5-3.5,1,.5Z"/>
      <path data-code="KIR-OMU" d="m216.7,197.25l12.5,10,10-12.65,1-3,6.5,5-1,.5.5,3,.5-.5v-1l5.5,3.5,1-1.5,2,2,.5-1.5,14,11-3,4-3-2.5-3,3.5-.5-.5-1.5,2.5-.5,2-3.5,2-1,1.5h-.5l-4.5,5v1l-5,6.5-1,9,2.5,1.5-6,8-15-10.5v-2.5l-2.5-3.5h-3.5l-1.5-1-5,.65-.5-1.5,1.5-1-1-1,.5-1.5,1.5-1h1v1.5l1.5-.5.5.5-1-2,1.5-.5-7-3.5,1-1.5-.5-1,.5-.5v-2.5h1.5l1-1-4-3,3-4-2-1.5,3-4-1.5-1,3.5-5-2-2,3-4Z"/>
      <path data-code="KIR-OPA" d="m105.7,75.1l10-12.5,20,14,1-1.5,3.5.5.5-1,2,3,2.5-2.5,1.5-.5,2-3,7.5,5,6.65-8.2,4.5,6-1.15.2-2.5,3.5-3,6.5v1l-13.5,26.65-3,1-1,1.5-5.5,3.5-1.5,2-4.5-3.65-5.15,6.05-5.8-4.4v-1l1-.5-.5-.5h-1l-7-6,1-1-4-3-3,4-11.5-9.15,16.5-21.5-6.55-4.5"/>
      <path data-code="KIR-ORI" d="m96.2,192.75l1.5,1.5,2-3,1.5,1,1-1.5,1,.5,1.5-2v-1.5l1.5.5-.95.75.45,1.75.5-.5v-1l3-1.5,1.5.5,1-3.15,2.5.5-.5,1h3v1l3-1,1.5,1.5v-1.5h2l.5-1,1.5-.5,1-1.5,2.5.5.95-1.2,2.55-1.65v1l-1,.5,1,.5-1,.5,2,.5-.5,1,1,2-2,2.5,1,.5-1.5.5-.5,1,1,2v3.5l2,1v2.5l2.5,2v1.5l1.5.5,1,2.5-5,1.5-1,1-1.5,3-2,1v1.35l-4.5-1-3,.5-2-2.5.5-1.5-.5-.5,1-1-1.5-.5-2-3-4,1.5-4-2.5-5,7.5-5.5-3.5-1.5,2-3.6-2.55.1-.8,2,.5-1-1.5.5-.5v-1.5h-2.5v-1.5l2-.5-1.5-2.5,2-3.5-.5-1.5,1.5-2Z"/>
      <path data-code="KIR-ORL" d="m110.2,164.25l3.5-1.5-.35-.6.85-1,5.5-.5v-1l1-1-.5-.5.5-1-.5-2.5.5-1.5-1,.15.5-.5,6.5,1,.5-2.5,3.5,1-.5,1,1,1-1.5,5.5,8,1-.45,1.55,1.45.95-1-.5v2h1v2.5l1.5,1.5-1,.5.5,1.5-1,.5,1,2-.5,1.5.5,2.5-1,1.5,1,2-1.5.85-3.5,1-2.5-1.35-2.55,1.65-.95,1.2-2.5-.5-1,1.5-1.5.5-.5,1h-2v1.5l-1.5-1.5-3,1v-1h-3l.5-1-2.5-.5v-1.5l2-2.5-3.5-2-.5-1,1-1.5-1.5-1.5.5-2v-.5h-1l.5-1v-1.5l1.5-1-.5-.5.5-1,.5-1.5-1-1.9"/>
      <path data-code="KIR-PIZ" d="m65.7,239.1l-.5-1.35,1.5-.15v-1.5l1-.5,1-1.5,5.5-2-.5-1h2l.5,1.5,2.5-.5v2l1.5-.5-.5,2,1-.5,1,1.5,2-2-.5,2.5-.5.5-.5,1,1,3-2,1,1.5,1v.5l-2.5-.5.5,2.5h-.5l-.5,2.5h-1.5v2l-2.5,3.5,2,2,.5,2-5,2,1.5,1-.5,1h-1.5l-1.5,2.5-2-1-1,1-2-1.5-.7-1.6-1.3-2.75,1-1.5-.5-1,1.5-.5-.5-1,1-.5-3.5-4-.5-3.5,2-1-1.5-.5,1.5-2.5-2-3,3-.65Z"/>
      <path data-code="KIR-POD" d="m103.2,35.1l1-.5,3,2,.5-1,1,.5,1,2.5,5,1.5,3,4,3.5-3,.5-2.5,2.5-1-2-1.5,1.5-2,3.5.5-.5-1.5,2-.5,1.5-2,.5-2,3,.5,1-1,1.5,1.5.5-.5.25-2,1.25.65,1.5,3-1,2,2-.5.5,1-.5,1,1,1,1-1,2,1.5.5-1,1,1.5-.5,1,2.5,1.5,1-2h-.5l1-1,4.5,4-3,4,2,1.5-1,1.5-1.5-.5v1h1l-2.5,3,13.65,18.2-6.65,8.2-7.5-5-2,3-1.5.5-2.5,2.5-2-3-.5,1-3.5-.5-1,1.5-20-14,6-7.5-3.5-2-2,1-.5,1.5-2-.5-.5,1-1.5-1.5-.5,1-.5-.5,1-1-.5-.5-2.5-1,.5-1.5-1.5,1-1-.5.5-1.5-2-3-4-2.5,1.5-1v-1.5l.5-.5-.5-1,2-2-1.5-3.55"/>
      <path data-code="KIR-SAN" d="m.2,242.6h1v-1l1.5.5,1.5-.5.5-.5-1-1,1-2h2l1.5-1.5.5-1-1.5-1,1-1.5,1.5.5-1-1,.5-2.5,1.5-.5,2,1,1.5-1.5.5.5-.5.65,1,1v1.5l2,1-1.5,1,.5.5-.5,1,3,1.5v2.5l1.5,1.5,3.5-1v-1h1v-1l1,.5,1.5-1.5,5.5,2.5-.5.5v1h-1l.5,2-1,1.5h1l-1,1.5,1.5,1.5,3.5-1v1l-2.5,1,1.5,1.5-3.5,5.5,2.4,1.1-4.45.8-1.5,1.5-2-1-1,1.5-2.5,1v1.5l-1.5-3h-5l-3,1.5-1.5-2.5-2,1-.5-2.5,1-.5,1.5-2.5,1,.5-.5-4-2-.5-1.5-3-2.5.5v-.5l1-1-.5-.5-3,1-2.95-4.05"/>
      <path data-code="KIR-SHA" d="m29.2,165.6l3-4,4-1,1.5-3v-2l2-2.5.5.5,1.5-1.5h-1.5l1-2,1.5-.5,5,2.5,2-3.5h.5v-2.5l3.5-1.5v-1.5l3-1h.5l-1,1,5.5,2,2.5-.5,4,2,3.5-6.5,1.5,1,2-2h1l1-1,1.5,2,4,1,.6.45-.6,2.15,1.5.5-.5,2,3-.5.5-2.5h.5l1,3,1-2v2l-1,1,.5,1-.5,1,1,1-.5,1.35-3,1-2-.5-.5,2-2.5.5,1.5.5-1.5,1,1,.5v1l-2-.5-2,1,.5.5-1,1h-3v2l-1,.5.5,1-.5,1-2,1v2l-1,1,1,2-2,.5v2h-.5l-.5,1-5-1-1.5,2,.5,1-.5,1.5-2.5,1.5-.5-1-.5,1h-1v1l-2-.5,1,3h-.5l1.5,1.5-.5,5.5-22.5-14.5-2-2.5-1.5,1.5h-2l-1-4.5,1-1.5-.5-.5.5-1.45"/>
      <path data-code="KIR-SLO" d="m166.2,190.1l1.5,1,1-1,2.5,2.5-1.5,2h-1v.5l-.5.5-2-2,1-1-1-2.5m-2.5,5l1.5-1,1,1.5-1.5.5-1-1"/>
      <path data-code="KIR-SLM" d="m164.7,196.1l1.5-.5-1-1.5-1.5,1,1,1Zm2.5-3.5l-1,1,2,2,.5-.5v-.5h1l1.5-2-2.5-2.5-1,1-1.5-1,1,2.5Zm-15.5-11.85l4.5,1v-1l2-2.5,1,.5.5-1.5h-1l1.5-2.5h.5l-1-1,1-1.5-.5-1.5h-1.5l.5-1.5-1-.5.5-.65,4.5-1.35,1-1.65,4-2.85-1-.5,1.5-2-1-.5.5-.5v-.5l1.25-2.1,2.25-1,1,1.5,6.5-8.5,7.5,6-1,2v2l-7.5,9,11,9-1.5,1.65-1-1h-2.5l-.5,2.5,1,1.5h-1l-.5,1,.5.5-1.5,1.5.5.5-2,1.5,1.5,1-.5,1,.5.5-.5,1.5,1.5,1,1.5-.5,1.5,2-1.5,1-1-.5-.5.5.5,1-1.5.5.5,4.5,1,1h2l-1.5,2.5-2,.5v2l-2,.5v1l4.65,3.65-3.65,4.7v1l-2.5,1h-.5l.5-2-1.5,1v-1.5l-4-.5,1.5,1-.5,1-6-2.5v-1l-1.5-.5v-.5l1-.5-.5-.5-3,1.5.5-2-2.5-1,.5-3.5,2,2.5-.5.5.5,1h3.5l-.5-2.5-1.5-.5.5-1.5-1.5-2,1.5-.85v-1.5l2-1.5-.5-1-3,2-1.5-.5v.5l-1,1.5v.5l-.7.7-1.3-1.7-1.9-.7-2.1-2.8-3,2v-1h-.5v.5l-2-.5-1.5.5-.5-1.5,2-1,.5-3h1v-1.5l-1.5-1,1.95-.55-2.45-5.45.5-.5v-1h-1.5v3.5l-1,.5-.5-.65v-4.35l3.5-2.05Z"/>
      <path data-code="KIR-SOV" d="m86.7,226.6l1-.5h2.5l-1,1.5.5,1.5,1.5-.5v-1l1-2.5h.5l1-1.5v-1.5l2-.5,1.5,2.5,2.5,1v2l.5-.5,1.5,2.5.5-.5,2,3.5-1.5,2.5,3.5.5v1.5h2l2.5,1.5v3.5l-3,2-.5,1-1-.5-1.5,3.5,1.5,2-2.5,2-.5-1-1,1-1.5-1-1.5,1.15-1.5,2,.5,1h-.5l-.5,2h-.5l-.5,3-2.5-1,1.5,2.5-1.5,1.35-1,.5-2-2-4.5,1.5-2.5-.5-2.5,4,1,1.5-.5-.5-.5,1.5-2-.5v1l-1,1v2l-3.5,1.5-3-2.5,1.5-1-.5-2.5,1-1-2.5-2,1.5-2.5h1.5l.5-1-1.5-1,5-2-.5-2-2-2,2.5-3.5v-2h1.5l.5-2.5h.5l-.5-2.5,2.5.5v-.5l-1.5-1,2-1-1-3,.5-1,.5-.5v-3l4-2-.5-2v-1l1.5-.5-1.5-2"/>
      <path data-code="KIR-SUN" d="m123.65,230.45l.05,1.75,3-.5,4.5,1.5,4-.5v1l2.5-2,1.5,1.5-.5,1,2.5-1,2,1v2.5h-1.5l1.5,2.5,1-.5,4.5,3,2.5.35-.5.65.5,1.5-.5.5,1,1.5-2,1v1l-3.5,1-1.5,2.35h-1.5l-.5,1h-1.5v1l-1-.5-1.5,1,.5,1.5-2.5.5-4.5-3-1-2.5-2.5-1.5h-1v1.5l-1.5-1-.5-1.5.5-1-3.5-4,2-3.5-2-2,1-.5-2-1.5,1.5-2.5-.5-2.5.95-.1Z"/>
      <path data-code="KIR-SVE" d="m57.7,179.6v-1h1l.5-1,.5,1,2.5-1.5.5-1.5-.5-1,1.5-2,5,1,.5-1h.5v-2l2-.5-1-2,1-1v-2l2-1,.5-1-.5-1,1-.5v-2h3l1-1-.5-.5,2-1,2,.5v-1l-1-.5,1.5-1-1.5-.5,2.5-.5.5-2,2,.5,3-1,2.5,4-4,3.5v1h2.5l.5,1.5-3,4,1.5,1-.5,1,.5,1.5-1.5,2,1,2.5-1.5-.5.5,2-2,1v1.5l-1,1.5v1.5l-1,.5-1,3-1-1-1,1,1,.5-1,1h-2l-2.5,3.5-4-3-2,2.5-4-3-4,5.5-3.8-1.05-1.2-.95.5-5.5-1.5-1.5h.5l-1-3,2,.5Z"/>
      <path data-code="KIR-TUZ" d="m42.7,222.1l.5-1,1,.5,2.5-3.5,1,.5.5-1.5h.5l.5-1.5,2-1,.5-2.5,4-2,1.5-3-1-1,4-2v-1l1,1,3-.5,1,1,2,4.5h-1l-.55,1.7-.95-.2-1,1.5,1,3-1.5,2h.5l-.5,1.5.5,1,1,3,2,1v2l4,1v1.5l3,1.5.5.5h-1l1,2-5.5,2-1,1.5-1,.5v1.5l-1.5.15-3-2.15-3-.5-6-4-2,1-1-1.5-1.5,1.5v-1.5l-3.5.5v-1.5l-2.5-3-1,.65h-1l1-3,1,.5.5-1v-1.65h-.5"/>
      <path data-code="KIR-UNI" d="m158.2,268.75v-1h2.5l.5-1.5h2l5.5-2.5,1.5-.5,1.5-1,.5-.5,3,1.5v1.5l2-1v3.5l2.5-1.15,1.7,1.7,2.8.8.5,3h2.5v-1l1,.65-.5,1.85,5,3.5-1,1.5v3h-1.5l-.5,1-2-.5.5,1h-1v1.5l-1,.5-2,3.5-3,1.5h1.5l-1,1.5-2-1.5-1.5,2.5-2.5.5-2-2.5-1.5,3.5-1.5.5-12-6-2,.5-1.5,1.5-3-1.5-1-3.5,2.5,3,2.5-.5.5-1,1.5.5,1-2-2.5-.5,1-1.5-1-.5-1.5,1-1-1.5,3-3.5-.5-3,1-.5-1-1.5-2.5,1-.5-1,.55-3.6,3.95-1.25Z"/>
      <path data-code="KIR-URZ" d="m98.7,273.75l1.5,1.5,2-1v1.5l2-.5,2,2.5,2-.5v-1.5h1.5l.5-1.5h2l1.5-3.65-.5-1,1.5-.5,1,2.5.5-.5,2.5,1,1,3.5-1,3.5-1-.5.5,1.5-2.5-1v1.5l1,.5v-1.5l2,1,.5,2,1.5-.5,1,2,.5-.5,3,1.5-3,4.5,9,6.5-3,4.5.5.5-4.5,6-1,2.5-.5-.5-1,1.5v-.5l-3,1h1l-2.5,2-.5,3.15-.5-1-.5,2.85-.5.5-.5-1.5h-5l-2.5-2.5-4-.5-2-2,.5-1-2-1,1.5-2h1l-1-2,.5-1-2.5-.5-2-3-3.5-1-.5-1.5,1-1.5-.5-1v-1h2.5l.5-2.5-.5-2.5.5-.5v-2l1-.5h-2l.5-1-1-1.5-1,1-2-1.5-1.5.5v-4.35h1l3-3-2-2.5-.5-2,1-1,5.5,1.5Z"/>
      <path data-code="KIR-VRK" d="m249.7,137.6l10-5,6-5,6-4,4-.5,7,13.5,12.5,8.5,14.5,7,3.5-3.5.5.5,2.5,9.5-1.5,8-10,15.5-2.5,3-4-3-10,13.5-7,4.5-9-7,.5-1-9.5-6,2,3-1,3.5-9,10-2-2-1,1.5-5.5-3.5v1l-.5.5-.5-3,1-.5-6.5-5-1,3-2,2.5-7-5.5,6.5-9-2-1.5,4-5,1,2,2-.5v1.5l1.5.5,1.5-3-2.5-3,.5-3-2-1.5,1.5-2,7.5-29.5"/>
      <path data-code="KIR-VRM" d="m93.2,210.75l.4-2.7,3.6,2.55,1.5-2,5.5,3.5,5-7.5,4,2.5,4-1.5,2,3,1.5.5-1,1,.5.5-.5,1.5,2,2.5,3-.5,4.5,1-1,1.5,2,3.5-.5,1.65,1.5,1.5v2.85h-1l-2,2.65-1.5-.5-.5,1.85-3.5.5.5,2.5-.95,1.55-2.5-2.5-1.05,2.45h-3.5l-1,2-2.5.5v.5l-1,.5-2.5-1.5-1,.5-1-.5v-1.5l-3.5-.5,1.5-2.5-2-3.5-.5.5-1.5-2.5-.5.5v-2l-2.5-1-1.5-2.5-2,.5-.5-1.85h-1.5l1-1.5-1.5-1,.5-1.5-1.5-1.5,2-1.5-.5-1.5,1.5-1Z"/>
      <path data-code="KIR-VYA" d="m110.2,362.6l2.5-.5,1-1.5-.5-1,2-1v3.5l.5,1-2.5,1.5.5-2h-3.5"/>
      <path data-code="KIR-VYM" d="m107.2,357.6l4-1,.5-1.5-.5-.5.5-4,.95-1.85,2.55,3,5,2,2.5-1.5-1-2.5,2.5.35.5,2,3.5,2-2.5,2,.5,1.5-1,.5.5.5-2,2.5,1-1,1.5,1-.5,1,1,1-.5.5,1,1-2.5,3-2,1,.5,1,1-1h2l1.5,2.5h-2.5l-1.5,1.5h.5l-1,2.5-4,.5-1,1.5h-1l-.5-2-2-1,.5-3-2-2-3,.5,1-1-2-3,1-2,1.5-1h2l-.5,2,2.5-1.5-.5-1v-3.5l-2,1,.5,1-1,1.5-2.5.5-3-1.5.5-2-.5-1.5"/>
      <path data-code="KIR-ZPR" d="m152.7,155.75l.5,1-.5,1-1.5-1,1.5-1Z"/>
      <path data-code="KIR-ZUE" d="m174.2,216.1l.5-1-1.5-1,4,.5v1.5l1.5-1-.5,2h.5l2.5-1v-1l3.65-4.7,2.35,1.85v-1l.5-.5,1,.5v1l-.5.5,2.5,2,5-6.5,11.7,8.75-7.2,10.25.5,1-.5,1-3,.5-1,1-1.5-.5-.5,1.5-1.5,2,.5,1-5,2v3l.5,1.5-.5,1-.5-.5-2,1,1.5,1-1.5,1.5,1,2-4-.5-1.5,2-2,1,.5,1.5-.5,2-2.5-.5-2.5-2-1-3.5-3,1-.5,1.5-1.5,1-.5,1-4-1v-1l1-.5v-1l-1.8-1.15,1.3-.35-1.5-2.15.5-2,1.5-.5v-1.35l1-1-1.5-2,1-1,1-.5.5-2h1l1-2,1-.5v2h2.5l2,1,1-3,1.25-.4-2.25-2.1v1h-.5l-2-5.5-.5-2.5,1-2-.5-.5,1.5-1-1.5-.15.95-3.15,1.55.65Z"/>
</svg>