<svg xmlns="http://www.w3.org/2000/svg" viewBox="0 0 336.5 442.79">
      <path data-code="KR-BEL" d="m296.25,208.69h.5-.5m11,6.5h.5v1l-.5-1m-13.5-10.5l1,.5v.5h-1v-1m2.5,2l.5.5h-1l.5-.5m2.5,3.5h.5l-.5.5v-.5m-7-3v-.5l.5-.5v.5l-.5.5m-.5,3l.5.5h1.5l-.5.5h-1l-.5-1m-3,1l.5.5-.5-1v.5m-1,1.5l-.5.5v-.5h.5m14,10v1.5l-.5.5.5,1.5-1.5-4,1.5.5m-5.5,10l.5-.5-.5.5m5-4l-.5-.5v-1l2,1-1,.5v1.5l-.5-1.5m-21-7v-.5.5m3.5,6v.5-.5m0,1h1l-1,.5v-.5m-3.5-2h.5-.5m-2,0v-.5l.5.5h-.5m0,0l.5.5.5-.5-.5,1.5-.5-1.5m1.5,1l1,.5-.5.5h-1l.5-1m-1.5-1l-.5.5v-.5h.5m4,3h1-.5l-.5,1v-1m9.5,7.5h.5-.5m1,4h.5-.5m-4-3l2,.5-2,.5v-1m-2.5-1.5h1v.5h-.5l-.5-.5m2.5,0v.5-.5m6.5,6h.5v1h-.5v-1m-2.5.5v-1l1,1.5h-.5l-.5-.5m5,7v1l-2.5-.5v-6l3,1v3.5l-.5,1m-79.5-64.5l8.5-9.5,7,6,3-3.5-2-1.5,2.5-2.5,3,2.5,3-3.5v-5.5l1,1.5,1.5-1,3,.5,3.5-2,32.5,29.5,3.5,5,5,2-1,.5,1,2.5-1-.5-1.5,1,2.5,1.5-2,1,.5.5-1,1-3.5-2-.5.5-.5-.5-.5,1h-1.5l2.5,1-1.5.5v1h-.5l.5,1-1,.5.5.5h1.5v-.5l1.5.5-1.5.5h-1v1.5l-7,.5.5,1-2,1,.5,2,2-.5,1,1.5v-.5l.5.5.5-.5,1,3h-1v1l-1-1v1l-1.5-1v1h-1.5l-.5,1,1,2.5h2.5l.5,1.5h-.5v1l-1-.5,1.5,1h-2v1.5l-1,.5v.5h1.5v-1l1,2,.5-2.5,3,.5v1l-1.5,1-.5,1,1.5,1-1,1h-1.5l-1,1.5,1.5,2,4.5-.5,2,2.5,1-1,.5-2-1-.5,2.5-.5-.5,1.5h1l-.5.5,1,3-.5,2,2,1.5.5-1.5h1l-1,3.5-1,.5.5.5h-.5v1.5l-2,1,.5,1v1.5l-1,1,.5,1,2.5-.5,1,.5-.5,5,1,2.5-3,1,.5,4-2.5,2v1.5l.5,1h1l1,2.5,1.5.5-.5,1.5,1.5,2-3,5-1.5,1-1.5,3v.5l-1.5,2.5-8.5,4.5-13.5-8.5-2.5,1,1-6,.5-.5-14-12.5,3-4,2.5-2-4-3.5-.5-1.5,1-1.5-1-1.5,2.5-3.5-1-.5,1.5-2.5-1-1,1.5-2-1-1,1.5-2-1-1,6-8.5-9.5-6.5-1.5-4-4-.5-5,2.5h-1l-7.5-7.5,3-4-12-11,2-2-4-3.5-2,2,2-3v-3l-1-1-1.5-9m89,77l-2-2.5.5-1.5h.5v1.5l1,.5-1,.5,1.5.5-.5,1m-7-5.5v.5-.5m2,1l.5-.5v.5h-.5m-8-6v.5-.5m6.5.5l-1-1,.5-.5.5.5v1m0,0l.5.5h-.5v.5-1m1-3l1-.5v2l-.5-1-.5-.5m-15-11l.5-.5.5.5-.5.5-.5-.5m17.5,12v.5-.5m-17-10h.5-.5m-2.5-1h.5-.5m17,16h1l1-1-1.5,2-.5-1m6,2h.5l1,2.5-1-.5-.5-2m-.5,1v.5-.5m-8-4v-.5.5m8.5,8.5h-.5.5m0,6.5l.5,1-1.5-1,1-1.5-1.5-1v-1h1l1.5-.5-.5,1,1,.5-.5,2,1.5.5-1,3-.5-.5,1-.5v-1.5l-2-.5m-12.5,0h1v.5h-1v-.5m-.5-1h-.5.5m5-3l.5.5-.5-.5m4.5,4.5l.5.5h-.5v-.5m-8.5-3.5v.5-.5m7.5,9.5l1.5-1.5.5,1-1,.5h-1m-10-7.5h.5-.5m1,1.5h-.5,1-.5m1.5,1.5v.5-.5m-1.5-.5h-.5.5m1.5,10h.5-.5m8-19.5l.5,1h1-1.5v-1m2.5,3.5h.5v.5h-.5v-.5m-5.5-4v.5h.5-.5v-.5m-1,3h.5-.5m4,.5l1,1.5-1.5-.5.5-1m-3-1h-.5l.5-.5v.5m-7.5-7.5h1v.5h-1v-.5"/>
      <path data-code="KR-KAL" d="m188.75,80.19l.5-.5,6.5-1.5,2-3,3.5-4,7-2,.5-7,6.5,2-1,.5,13,12.5-3.5,4,21.5,20.5-3.5,4,18,17.5,2-.5-.5,1,2.5,2v1.5h3l2.5,2-3.5,2-2,3.5-.5-1-2,.5v.5l-5,.5v10.5l-14.5,1,1,20.5v6.5l-3,3.5-3-2.5-2.5,2.5,2,1.5-3,3.5-7-6-8.5,9.5v-3l-1.5-1.5-.5-2.5,2-2.5h-5v1l-.5-1-2.5,1-2-.5-1.5-3-2.5-1v-2h-1l.5-1-.5-1.5-.5.5h-3.5l-.5-.5h1v-1.5l-1-1.5h1l-3-3-3-1-.5-2.5-2-1,3-.5v-2l-2.5-2.5,1-1-2-1.5,2-2.5-2-1.5,1.5-1.5-1-1,6-6.5-.5-.5,2.5-3.5-3-2.5.5-1-1.5-1.5,2.5-3v-2l8.5-9.5-3.5-2.5-3.5-4.5,2-2.5-12.5-11.5v-2l4-1.5v-.5l-1.5-3.5-2.5-3,.5-2"/>
      <path data-code="KR-KEM" d="m241.75,146.69l14.5-1v-10.5l5-.5v-.5l2-.5.5,1,2-3.5,3.5-2,22,20,14.5-15.5,14.5,12.5,16-17v1l-.5.5-.5,2.5,1,2.5-2,1,.5,1-2,2,1.5.5-.5,1.5,2,.5-1,.5-.5,4.5h2l-3.5,2,2.5,1.5v.5h-.5l-.5,3-2,.5v.5l-1-.5v2.5l-1.5-1.5-1.5.5-.5-1.5h-1.5v-1l-3-.5v1l-1,.5v2.5l-1,.5v1.5l-2,.5-1,2-1.5.5-1.5-1h-.5v.5h-1l-.5,2-1.5,2.5-3-2,.5-.5v-1l-1-.5-1,.5,1,2v2l-.5-2-1,1-2-1.5-1,.5-3-3,3.5,6.5-.5,1-.5-1-2.5,2,1,.5h-.5l.5,1-1,1v1h1l1,.5h-1.5l.5,1.5-1,.5v1l2.5,2.5-2.5.5v1l-1,.5v1.5h.5l-2,1.5,2.5,3-1.5.5-.5.5-.5-.5-1,2,1,.5-2,1,1.5,1.5-1,.5,3.5.5-5,1.5.5-2-1-.5,1-.5-3-.5-.5.5,1.5,1,.5,3,1.5,1.5v1l-1-.5v2l-1,.5,1,.5-2,2-5-2-3.5-5-32.5-29.5-3.5,2-3-.5-1.5,1-1-3-1-20m55.5,50.5l2.5-1,1,1-3.5,1v-1m2.5,1.5v.5-.5m1-1.5l.5-1,1,1.5-1.5.5,1,.5h-.5l-.5-1.5m2.5-3.5l.5-.5v1l-1,.5.5-1m-6,5.5v-.5.5m-2-2l.5-.5h.5l-.5.5h-.5m1,4l.5.5h-.5v-.5m-2,3.5h-.5v-.5l.5.5m10.5-13h.5-.5m-2.5-1l.5-.5.5.5-1,.5v-.5m-2.5-1l1,.5.5.5h-.5l-1-1m3,2.5l.5.5h-.5v-.5m2-22.5v-.5.5m-1.5,7.5l.5.5h-.5v-.5m-1,3.5h.5v.5h-.5v-.5m0,2.5h.5-.5m29.5-27.5v.5-.5m-5.5-1l.5.5-.5-.5m1,1.5v-.5l.5.5h-.5m-1.5,2l.5,1-.5-.5v-.5m-25,42.5l.5-.5,2.5,1-1,.5v.5h-1v1l-1-1.5-2,1-.5-1h1.5l1-1m2.5,2v-.5l1,.5-1.5.5.5-.5m1-2.5l.5.5v.5l-.5-1m7.5,3.5v.5-.5m-12.5-1l.5.5-.5-.5m-2,1.5h.5l-.5.5v-.5"/>
      <path data-code="KR-KON" d="m133.25,310.69l10-11.5,1,1,1-1,1,.5,2,1.5,2.5-3,.5.5,2.5-3,3.5,2.5v-3h.5l1.5-1.5-1-1-1,1v-1l-3-1.5,1-1,2.5-2,7.5-3.5h1.5l4.5,3.5,3,3v1l4,3.5,1-1.5,3.5,3.5,1-1,7.5,7-1,1,1,3-1.5,2,1,3v1l-1-.5.5,1.5h-.5l-.5,3,2.5,2.5-2.5,3,1,1-1,1.5-1.5-.5-2.5,7-1,.5-3,5.5-1.5-.5-1,2.5v1.5l-2,.5-3.5,16-6-1-3-2.5-3.5-6.5-2.5-1-2.5,3-.5-.5v-1l-1-2,1.5-3.5v-.5l-2,2-2.5-3h-2l.5-1h-3.5v-1.5l3-2.5-1.5-3.5-1.5-.5,2.5-.5-.5-1-6-6.5-3,2h-1.5l1-.5-.5-2.5h-3l2-2.5-4.5-3.5v-1.5l1-1.5-2-1,2-2.5-.5-.5"/>
      <path data-code="KR-KOS" d="m176.25,94.19l4-3,3.5.5,4.5,2.5v-1.5l12.5,11.5-2,2.5,3.5,4.5,3.5,2.5-8.5,9.5v2l-2.5,3,1.5,1.5-.5,1,3,2.5-2.5,3.5.5.5-6,6.5,1,1-1.5,1.5,2,1.5-2,2.5,2,1.5-1,1,2.5,2.5v2.5l-2.5-.5-1.5,2-1-.5v1l-2.5-1.5-.5-1.5h.5l-2-3.5.5-1-.5.5-1-1.5,1-2-1.5-.5-.5,1-2.5-1.5v.5l-1-1.5.5-2-1-1-2,2-2-1.5.5-1-2.5-3.5-6,7-4.5-4-2.5-5.5v-3l2.5-2.5,2.5-6,2.5-2.5,4.5.5,1.5-1,1-5,1-2,2.5-1v-1.5l-7-6v-2.5l1-.5.5-3,2-3.5,1.5-1.5,1-2.5"/>
      <path data-code="KR-LAK" d="m1.25,283.19l11-3,1-2,3,2,7-1,1.5-1.5,3-.5,1-.5,9.5-1-1.5,2,1,3.5-.5,2.5,1,1-1,.5,1,3,2,.5-.5,5,2.5,5.5-2,19.5-12.5,15-9.5-16.5-8.5-10-2-4-1.5-.5-5-6-.5-.5,2.5-3.5-2.5-3.5-.5-2,1-4"/>
      <path data-code="KR-LOU" d="m331.75,91.19v-.5.5m1.5,4v-.5.5m-3.5-.5l.5.5-.5-.5m1,1l.5.5h-.5v-.5M246.75.19l18.5,16h-1l21,16.5,10,9.5-5.5,9,3.5,3.5-5,7.5,1.5,3,9,7.5,6-6.5,4.5,3,4.5-5,9.5,8,3,5v.5l-1.5-1-1,.5,3,2.5v4.5l.5.5.5-1.5.5-.5,2,4,.5-.5-1-1.5,3,4.5h-2.5l1,3,4.5,2.5.5,1.5-3-2.5-5.5-2.5-1.5.5,2,3,1-.5-.5,1h-1.5l2,1h-.5v1l-6-3.5.5,1.5h-1l.5,1,8.5,3-.5-1,.5-1,2.5,2-1,1-1,1.5,1,1.5-2-2-1-.5h-1.5l-2-2,1,4,2.5.5,2.5,3h-2.5l-2-2.5.5,2,2,2-.5.5,3.5,3,.5,2-1,2,1.5,1v1l-.5.5,2.5,8.5v3l-16,17-14.5-12.5-14.5,15.5-24.5-22h-3v-1.5l-2.5-2,.5-1-2,.5-18-17.5,3.5-4-21.5-20.5,3.5-4-13-12.5,1-.5,2.5.5,1.5,4,7-11,4-7v-1.5l2.5-3.5,2.5-5.5,1.5-12h.5l6-15,3.5-13m84,101.5h-.5l-.5-.5h1v.5m-2.5-.5h-.5l.5-.5v.5"/>
      <path data-code="KR-MED" d="m184.25,218.19l5-6,3.5,3.5-2,2.5,11.5,9-2,2.5v4l-1,1.5,8.5,7,5,6.5-2.5,3-2-2-3.5,4.5,1.5,2-3.5,4,1.5.5-.5-1.5,2.5,1.5,1.5-1v1l-.5-.5-1,1,2.5,3-1,1h-1l-.5,1-1-1-.5.5-1,2-1-.5v3.5l1.5,3.5v3h-1l1,2.5v2.5l14.5,12.5,3.5-4,1,1,2-1.5,30.5,28,4.5,2-1,2-4.5.5-1.5,2.5-4,2-1.5,2.5-1.5,14-.5,3.5-2-1.5-.5-1.5-.5,1-10-9.5-11,12.5-1-1-3.5,4.5-2.5-3-7.5,9-19.5,16.5-9,14-12.5-8,5.5-15,5-23,2-.5v-1.5l1-2.5,1.5.5,3-5.5,1-.5,2.5-7,1.5.5,1-1.5-1-1,2.5-3-2.5-2.5.5-3h.5l-.5-1.5,1,.5v-1l-1-3,1.5-2-1-3,1-1-7.5-7-1,1-3.5-3.5-1,1.5-11.5-11,7-7.5-4-5.5,1.5-2-5-4,11-14.5-3.5-4,3-4-2.5-1.5,7.5-9.5.5-2.5-1.5-3,5.5-7-2-1.5"/>
      <path data-code="KR-MUE" d="m128.25,167.69l10,2,5-3.5,11.5-3.5,4-4,1.5-5.5h1.5l1.5-2.5-2-2.5v-1l1-1-.5-3,4.5,4,6-7,2.5,3.5-.5,1,2,1.5,2-2,1,1-.5,2,1,1.5v-.5l2.5,1.5.5-1,1.5.5-1,2,1,1.5.5-.5-.5,1,2,3.5h-.5l.5,1.5,2.5,1.5v-1l1,.5,1-1.5,2,1,.5,2.5,3,1,3,3h-1l1,1.5v1.5h-1l.5.5h3.5l.5-.5.5,1.5-.5,1h1v2l2.5,1,1.5,3,2,.5,2.5-1,.5,1v-1h5l-2,2.5.5,2.5,1.5,1.5,1,9.5,1.5,3.5v3l-2,3-1.5,6.5-.5,1,1.5,1.5-5.5,6.5,2,5.5-1,1-2,.5-.5,1-1.5-1.5v-3l-1.5.5-.5,7-.5.5v-2h-1.5l-.5,3-14-11.5,2-2.5-3.5-3.5-5,6,2,1.5-5.5,7,1.5,3-.5,2.5-7.5,9.5,2.5,1.5-3,4,3.5,4-11,14.5-3.5-2-4.5,6.5-8-6.5v-13.5l-20-15.5-.5-6.5,4-6.5v-4.5l-2-5.5,1-3.5-1.5-2.5.5-3-4.5-9.5,1-6-1-4.5.5-1.5.5-13.5"/>
      <path data-code="KR-OLO" d="m43.25,361.04l26.5-11,2.5-3,1.5,1,1.5-.5,1-2.5-.5-2,4-6,1-.5,2.5,7-1,1,2,2-1,1.5,1,1.5-1,1.5,1.5-.5,4,3.5,3.5-.5,4.5,1.5v-1.5l.5-1,1,.5,1-1,1.5-.5-.5-2,2,1,2-.5,1-1,1,1.5-.5,1,1.5.5,1.5,5.5-5.5,5v2.5l3,2.5-1.5,2h-.5l-6,7,1.5,1-2.5,1-.5,2.5.5,2.5-1,1,.5,1.5,2,1,1.5-1.5h3.5l1,4,1.5,2-8.5,5.5h-1.5l-3.5-5-.5-2.5,1-1-2.5-2-1.5.5-.5,2.5-1,1.5-8-1.5v.5l-1.5,1-.5-1.5-1,1v.5h-1l1,3-2.5-1-2.5,2-3.5-.5-4-2.5-1.5,1.5-19.5-32.5"/>
      <path data-code="KR-PET" d="m146.25,354.54l3.5,2,4,4.5-.5.5,1.5,3.5-1,4-5-1.5v-1h-1l-.5,1-2-2v-2l-2-1,.5-2h1l1-1.5-.5-2.5.5-.5.5-1.5"/>
      <path data-code="KR-PIT" d="m60.75,284.04l6,.5,1,1.5-.5,2,.5-1,.5,1,.5-1.5,2.5,2v3.5l2.5,1.5-1.5,5.5-1,1,7,4-3.5,6.5-1-.5-3.5,4,7,7.5,6,4.5-2,2,2.5,3v1.5l-1,2h-2l-.5,2-4.5,6.5.5,2-1,2.5-2,1-1-1.5-2.5,3-26.5,11-15.5-27.5,12.5-15,9,7,6-7-6-4.5,9.5-12-.5-3,1.5-1-3.5-3.5.5-2.5,1.5-2,4-1-1.5-5"/>
      <path data-code="KR-PRI" d="m146.25,354.54l-.5,1.5-.5.5.5,2.5-1,1.5h-1l-.5,2,2,1v2l2,2,.5-1h1v1l5,1.5,1-4-1.5-3.5.5-.5-4-4.5-3.5-2m-26.5,8.5l8-2.5-1-1,8-8,1,.5,1-1,2.5.5,1-1.5h1.5l2.5,2,1-.5v-2.5l.5-.5.5-2-1-.5.5-.5v-.5l2.5-3,.5-1.5h1l-.5,1h2l2.5,2.5,1.5-2,.5.5-2,4,1.5,1.5v1.5l.5.5,2.5-3,2.5.5,3.5,7,3,2,6,1-1.5,7-6,15.5,13,7.5-21,32.5-4-.5-1.5-1.5h-5.5l2-2-1.5-1,2.5-2.5,3-2.5-1-1-2.5.5-2.5-1v-1l-1.5.5-2.5-1.5,1-1-.5-1.5-2.5-2-3.5-6.5-.5,1-3.5-.5-2.5-2.5-2.5,1h-1l-1.5,1v1l-2,1.5-2,.5,1-6-1.5-3.5-8-5,1.5-2v-2l1-1-.5-.5,1.5-2-1-2,1-1.5.5.5,1-1.5.5,1,4-5.5-2.5-2,1-1.5-1.5-1"/>
      <path data-code="KR-PRY" d="m86.25,319.54l1,.5,2-3,3-2,3.5,3,1-1.5,6.5,5,1-1,2.5.5-2.5,3.5h-1.5l1,1,5.5-1,1,.5,1.5-1.5,3,2.5,2-1-.5,1.5,2,1,1-1v-1.5l.5-1,1,.5-1-1.5,1.5-.5,1-1,2.5-1.5.5,1,2-3.5,1.5,1.5,3.5-5.5,1.5,1-1.5,1.5.5,1.5,4.5,3-2.5,2.5h3.5l.5,2.5-1.5.5,1.5.5,3.5-2.5,6,6.5.5,1.5-2.5.5h1.5l1.5,4-3,2v1.5l2.5,1-3,4v.5l-.5.5,1,.5-.5,2-.5.5v2.5l-1,.5-2.5-2h-1.5l-1,1.5-2.5-.5-1,1-1-.5-8,8,1,1-8,2.5,1.5,1-1,1.5,2.5,2-4,5.5-.5-1-1,1.5-.5-.5-1,1.5,1,2-1.5,2,.5.5-1,1v2l-1.5,2-7-5.5-1,1-2-2.5-3,1-2-1.5,6-7h.5l1.5-2-3-2.5v-2.5l5.5-5v-.5l-3.5-8-1,1-2,.5-2-1,.5,2-1.5.5-1,1-1-.5-.5,1v1.5l-4.5-1.5-3.5.5-4-3.5-1.5.5,1-1.5-1-1.5,1-1.5-2-2,1-1-3-8.5.5-1,2,.5,1-2v-1.5l-2.5-3,3.5-4,1.5-2.5v-2"/>
      <path data-code="KR-PUD" d="m187.75,374.04l19.5-17,7-9,3,3,3.5-4,1,.5,11-12,10,9.5v-1.5h.5l.5,2,1.5,1,3.5,11,3.5,4.5,1,3,3,1.5h2.5l3,2.5,3,4-.5,2.5-1,1.5h-.5l-1,3-2,3,1,2-1.5.5-1,1-.5,1-1.5,1-1.5,2.5-1.5.5-.5.5-2,1.5-3.5,1-1,.5.5,1-1.5.5-1,1,3,.5,4,3.5-.5,1.5.5,1.5h-1v2.5l-1,.5v.5l-2.5,5.5h.5l-1.5,1.5v2l2,2.5-.5,1-2,1.5-1.5,2.5-2.5,2-1,1.5-3.5,2.5v1.5l-1,1.5-2.5.5-1-.5-2,2-.5.5-1.5.5-2,4v2l-2.5-2.5-5-3h-2l-4.5-3,1.5-2.5-3-2.5-2-5.5.5-.5h-6l-1,1-4-4.5-3.5-1-1.5,1.5-5,2.5v1l-1,.5-29.5-4,30-46"/>
      <path data-code="KR-SEG" d="m217.75,201.54l2.5-2,4,3.5-2,2,12,10.5-3.5,4.5,8,7,1,.5,5-2.5,4,.5,1.5,3.5,9.5,6.5-6,9,1,.5-1.5,2.5,1,.5-1.5,2.5,1,.5-1.5,3,1,.5-2.5,3.5,1,1.5-1,1.5.5,1,3.5,3.5-2,2-3,4,14,13-.5.5-2,14.5,2,5-4,9.5-3.5,4-30.5-28.5-2,2-1-1.5-4,4-14-12v-2.5l-1-2.5.5-.5.5-3-1.5-3v-3.5h1l1-1.5.5-.5,1,1,.5-1.5h1l1-.5-2.5-3,1-1v.5l.5-1.5-1.5,1.5-2.5-1.5.5,1h-2l4-4-1.5-2.5,3.5-4,2,1.5,2.5-2.5-5-7-8.5-6.5,1-1.5v-4.5l2-2.5,2,2.5,1-3,1.5.5v1.5l.5-.5.5-6.5,1.5-1v3l1.5,2,.5-1,2-.5,1-1-2-6,5.5-6-1.5-1.5.5-1,1-6.5"/>
      <path data-code="KR-SOR" d="m38.25,275.04l1.5-.5,2.5-2,10-1.5h1l1.5-1,6.5-1,8.5-2.5,4.5-2.5,1.5,1h3.5l-2.5,6v3.5l-2.5,1.5,2,2.5-.5.5v1l-2-2.5h-.5v.5l2,5.5-2.5,3h-1l-.5,2-2.5-2-.5,1.5-.5-1-.5,1,.5-2-1-1.5-6-.5,1.5,5-4,1-1.5,2-.5,2.5,3.5,3.5-1.5,1,.5,3-9.5,12,6,4.5-6,7-9-7,2-20-2.5-5.5.5-5-2-.5-1-2.5,1-1-1-.5v-3l-.5-3,1.5-2.5"/>
      <path data-code="KR-SUO" d="m78.75,264.54l6-1,1,1,1.5-.5-.5-1,10.5-1.5,2-2,2,.5,9.5-5.5h1l1.5-2,6-4,.5,1,.5-1,8-3.5,2-6.5-1-1.5,1-1v-1l9.5,7.5.5-1,9.5,8.5.5,13,8,6.5,4.5-6,2.5,1.5,6,4.5-1.5,2,4,5-7,8h-1.5l-7.5,3.5-2.5,2-1,1,3,1.5v1l1-1,1,.5-1.5,2h-.5v2.5l-3.5-2-2.5,2.5-.5-.5-2.5,3.5-2-1.5-1-.5-1,1-1-1-10,11.5.5.5-2,2,.5.5-3.5,5.5-1.5-1.5-2,3.5-.5-1-2.5,1.5-1,1h-1l-.5,1,1,1-1-.5-.5,1v1.5l-1,1-2-1,.5-1.5-2,1-3-2.5-1.5,1.5-1-.5-5.5,1-1-1h1.5l2.5-3.5-2.5-.5-1,1-6.5-5-1,1.5-3.5-3-3,2-2,3-1-.5-.5,2.5-.5.5-.5,1.5-1.5,2-6-4.5-7-7.5,3.5-4,1,.5,3.5-6.5-7-4,1-1,1.5-5.5-2.5-1.5.5-2h-1l.5-1v-1.5l2.5-2.5,1-1.5h.5l-2-5.5v-.5h.5l2,2.5v-1l.5-.5-2-2.5,2.5-1.5v-3.5l2-6.5"/>
</svg>