<svg xmlns="http://www.w3.org/2000/svg" viewBox="0 0 283.5 160.5">
      <path data-code="KOS-ANT" d="m94.25,88.75l.5-1.5,1.7-.75.3-1.6,3,1,.5-1.5,2.5-1,2.5-4,1.5,1,.5-.5,1-1,.5.5,1-2.5v-.5l2-2.5v-1l1.5-1,.5-1,2.5-1.5-.5-1h1v-2.2l3-.8,1,1v1l2.5,1,1,2.5,1-1.5,2,.5.5,4.85h1.5v2l-1.5,1,.5,1-4,1,1,1-.5,2,1.5,1-1,1.5-2,.5.5,1v2.5l-1,1.5.5.5-1,1-1,5,1,.75-1,1.75-1.5.65,3,1.5,1.5,2.5h-1l.5,1-6.8,8.35-5.2-4.35,1-.5-1.5-1.5-3.5-2-1.5-5-3-1.5-1.5,1-1.5-.5,1,2h-2l-.5,2.5-3,1-1-.5-1.5,2-3-2.15,4-6.5-.5-1,.5-1.5-1.5-.5h.5l-1-4-1.5-.5,1-2,2.5.5Z"/>
      <path data-code="KOS-BJM" d="m76.75,45.4l.5,2.5,1-.5.5,2,2,1.5-1.5-2v-.5h.5l1.5-2-1-2-1-.5-1,1.5h-1.5m-11.5-16l1-.5v1h4l1.5-1,2-.5,1.5,1,1.5-2,1-.5.5-.5,1,.5,1.5-1.5v-5l2.5.5.5-2.5,1.5,1v1l1-2.5h1l.5-1h-2l-.5-1.5,1-1.5v-.5l1.5-1,3.5-1,1.5,2-.5,2,2.5-1,4.9.55-1.9,3.8-1.5,1,.5.5-.5,1,3,2-2,3,2.5,2-3.5,4,2.5,3,1.5-.5v1l1.5-.5v1l1.5.5.5,2.5,2.5,1.5-1,.5v.5h2.5l.5,1.5h-.5v1l1,1.15-5-.5-1.5,1.5,1,1-2.5-.5-1,1.5h-1l-1,1-3-1.5-2.5,1v1l-1.5-.5-1.5,1.5-1-.5-2,1-1-1-.5,1,.5.5,1.5.5-2,.5-.5,1-3-1-1.5,2v1l1.5,2-.5.5,1,.5v3l-2.5.5-.8,2.5h-.6l-.6-1.65-4.5-2.5-.5-2h-3.5l-2-3.5-2,1.5-2.5-1-1-2.35-1-1.5h-1l.7,1h-1.2l.5-1-1.5-1,.5-1-.5-1.5,1.5,1,3.5-1.5,1,.5.5-1-.5-2h1.5l-1.5-4.5v-1.5h2.5v-2l-1-.5,1-1,.5-3-1.5-3.5"/>
      <path data-code="KOS-CHU" d="m112.25,44.75v-1.5l1,.5,1-.5-.5-1.5,3,1v-1.5l3,2,.5-2.5-2-.5.5-1,1-.5v-1l2,1,.5-1h2.5l1,2,5.5,2h1v-1.5l.5-.5,2.5,1v-1l-2.5-1.5,2-3,1.5-.5.5-1,2.5-.5,1-1.5,2.9.95.6-1.35,2.5-1.5,1.5,1.5,2-.5v1l3-1,.5-1,1.5,1.5.5-.5.5-2,1-.5-1,1.5,1,4h2v4l1.5.5,1-4.5,6,.5-1.5,3,1,.5-1,1v1.5h-1.5l-.5,1,.5,1.5-.5,1-3.5,1-5.5,7,7.5,5.5-6.9,9.05-7.1-5.2v-1.5l-3-1,.5-1-4-.5-.5,1-1.5-.5-5,6,.5,1.5-2.5.5v-.5l-1,1.5-2.5-1.5v2l-2-1v3.65l-2-.5-1,1.5-1-2.5-2.5-1v-1l-1-1-.5,1-1-.5-2.5.5v1l-4-3.5,1.5-1-.5-1h1l.5-.5-3.5-3,2.5-.5-1-.5.5-1h-1l1.5-1-.5-1.5-1,.5-1.5-4-2-.5,1-.5v-1l1-1.5-1.5-1.5,3.5-.6Z"/>
      <path data-code="KOS-GLM" d="m96.75,66.9l1.5,1.5-.5,1,.5-.5,1,.5,1.5-1,.5,1,1-.5-.5-1-5-1m-15.5-14l3,1,.5-1,2-.5-1.5-.5-.5-.5.5-1,1,1,2-1,1,.5,1.5-1.5,1.5.5v-1l2.5-1,3,1.5,1-1h1l1-1.5,2.5.5-1-1,1.5-1.5,5,.5,1.5,1.5-1,1.5v1l-1,.5,2,.5,1.5,4,1-.5.5,1.5-1.5,1h1l-.5,1,1,.5-2.5.5,3.5,3-.5.5h-1l.5,1-1.5,1,4,3.5v-1l1-.2v2.2h-1l.5,1-2.5,1.5-.5,1-1.5,1v1l-2,2.5v.5l-1,2.5-.5-.5-1,1-.5.5-1.5-1-2.5,4-2.5,1-.5,1.5-3-1-.3,1.6-1.7-1.25-1-.5-2-.5-1-1.5-.5,1-.5-1.5-3.5,1.5-1-.5.5.5-1,.5-1.5-.5-2-2-.5-2.5h-1.5l.5-.5-1-3,.5-1.5,3.5-4-4-3-.9-2.35h.6l.8-2.5,2.5-.5v-3l-1-.5.5-.5-1.5-2v-1l1.5-2Z"/>
      <path data-code="KOS-BUJ" d="m76.75,45.4h1.5l1-1.5,1,.5,1,2-1.5,2h-.5v.5l1.5,2-2-1.5-.5-2-1,.5-.5-2.5"/>
      <path data-code="KOS-GAL" d="m96.75,66.9l5,1,.5,1-1,.5-.5-1-1.5,1-1-.5-.5.5.5-1-1.5-1.5"/>
      <path data-code="KOS-SHA" d="m189.25,123.75h4l1,4-3.5.5v-1.5l-2-1,.5-2"/>
      <path data-code="KOS-VOL" d="m27.25,98.9l1-.5.5,1v-1.5l1.5,1h-.5v1.5l-.5-.5-1,2.5-1.5-2.5.5-1"/>
      <path data-code="KOS-KAD" d="m91.8,105.35l1.45,1.05,1.5-2,1,.5,3-1,.5-2.5h2l-1-2,1.5.5,1.5-1,3,1.5,1.5,5,3.5,2,1.5,1.5-1,.5,5.2,4.35-3.7,4.65-4,6,2,2v1.5l-3,2.5-2-1-1,2-4-2.5-.5-.5-1.5,2-3-2v2l-1.5.5,1.5,1.5-1,.5-2-.5.5-1h-.5l-.5,1.5-1,.5v2l-.5-.5.5.5-3,2.5-.5,2-1.5,1-9.5-3-.5-5,1.5.5v-1.5l2-.5-.5-1.5,1-1-.5-2,3.5-1v-1l1-.5.5-2.5,2-1-1-1.5.5-1-1.2-.75,2.7-4.4-1.5-1,1.5-.5v-1l3.55-5.4Z"/>
      <path data-code="KOS-KOL" d="m154.75,51.9l5.5-7,3.5-1,.5-1,2,.5,1-1h.5v-2l2,1.5,1.5-1.5,2,.5.5,2.5,3,2v3l7.5,2,.5,1.5-2.5,3,3,1.5-.5,1.5,1,.5v1.5l2.5-.5,7.5,5.5-3.5,4.5,3,2.5-5.5,6.5-5-3.5-2,2.5,6,4.5h-2l-2,2,.5,5.5-1,1.5v1l-3,4,.5.5-3.5,1.5,1,1-2,1-.5-1h-3v-1.5h-1l-.5,1.5-2.5-1-1-3.5.5-2.5-.5-2.5,1.5-1-2.5-1.5,2-1.5-1-1.5-1.5.5-.5-.5,2-1-3-3.65-5.05-3.55,1.05-1.45-2-1.5,1.5-2-5.9-4.3,6.9-9.05-7.5-5.5"/>
      <path data-code="KOS-KOS" d="m28.25,72.9h2.5l1,2,1-1,1.5.5.5-2.5h1v-1.5l2-1v3h-.5v.5l-1,1,3,1.5-2,2,1,.5-1.5,1.5h-1.5l.5,2-1.5-1-1,1v-2l-3.5-1v-2h1l-2.5-3.5"/>
      <path data-code="KOS-KSM" d="m28.25,72.9l2.5,3.5h-1v2l3.5,1v2l1-1,1.5,1-.5-2h1.5l1.5-1.5-1-.5,2-2-3-1.5,1-1v-.5h.5v-3l-2,1v1.5h-1l-.5,2.5-1.5-.5-1,1-1-2h-2.5m1-10.5l5-2,1-1.5,3,2,1.5-.5,1-.5-1-2,1-1.5,2,1,2.5-2.5,1,1,2.5-4.5,1.5-.5,1.5,1.5,1-2,.5.5,1-1,3-1.5,1,1.5-.5,1,1.5,1-.5,1h1.2l-.7-1h1l1,1.5-1-.65-.5,3h-2v2.5l-2,1v.5l-1,2,3,2.5-1,1,.5,3,1,.5h-1l-1,1-2,.5-.5.5,1,1.5v1l-1,.5v1.5l-.5.5v1l-1,1-2.5-3-2,1.5-.5-.5-1.5,2v1l-.5-.35-.5,3.5-1-.5v.5h-.5l-.45,1.2-1.05-.2v-1.5h-2.5l-.5,1-1.5.5v2l-2.5.5-.5-1,.5,2-1.5-.5v3l-1.5,1.5-1.5,3.5h-1.5l-1.5-1.5.5-2-1.5-2.5-2.5-1.5,1-1h-1v-1l1,.5.5-.5-2.5-1-1-3,.5-1,1.5-1-.5-3,2-1.5-1-.5,1.5-1.5-.5-2.5h2l.5-1,.5-2.5,1-.5v-3"/>
      <path data-code="KOS-KRA" d="m34.25,84.4l.5,1,2.5-.5v-2l1.5-.5.5-1h2.5v1.5l2.5.5-1,1,1.5,2.5v3l1,.5.5-1,2.5,1v2.5l1.5,1.5-2.5,2.5,1,1.5-2,1,1,.5-1.5,1,.5,1-1.5.5.5,1.5-5,3.5-3.5-4.5-1,1-.5,1.5-2-1h-5l-1-1.5,1.5-3,.5.5v-1.5h.5l-1.5-1v1.5l-1.5-3,1.5-2.5h1.5l1.5-3.5,1.5-2v-2.5l1.5.5-.5-2"/>
      <path data-code="KOS-MAK" d="m92.75,132.9l.5-.5,2,.5,1-.5-1.5-1.5,1.5-.5v-2l3,2,1.5-2,.5.5,4,2.5,1-2,2,1,3-2.5v-1.5l-2-2,4-6,6.9-8.65,3.6,2.65v4.85l1-2h2.5l-1-1,3-2,.5,1v-2h1l3.5,3,2-.5.5,1.5h2l3.5-3.5,5.5,5.15-1.5,1.5-.5,2.5,1,2h-1l1,4.5,4.5,5.5,1.5,5.5h1.5l1.5,6-2.5,2.5-1.5.5-.5,1-4,1.5-1,2.5-1.5.5-4.5-3-4.5,1-1.5,3-7,2h-2l-2-1.5-1.5,1.5h-2.5l-6.5-.5-2-2-1,1-2-1-3-8,1-4-3-3.5,2-1.5-.5-1-10,3.5-2.5,3.5-3-.5v-2.5l2-1,.5-1.5,1.5-1.5v-2.5"/>
      <path data-code="KOS-MAN" d="m147.25,111.75l3,2,3-4,.5-2.5,5.5-6.5,8,.5,2-2,.5-1.35,2.5,1,.5-1.5h1v1.5h3l.5,1h4l2.5,2.5,1.5-.5-3,3h2.5l-1.5,3.5,2,3.5-1.5.5.5,1,3.5,1-4,4.35-2.5.5v1.5l-2.5.5-2-1-1,1-.5,3h-1.5l-1,1.5-3,2.5h-2.5l-3.5,5-1.5-.85-1,.5-.5,1.5-2.5,1-1,2.5-1,.5-1,4-1-4h-1.5l-1.5-5.5-4.5-5.5-1-4.5h1l-1-2,.5-2.5,1.5-1.5-2.45-2.3,1.45-1.35.5-1.5"/>
      <path data-code="KOS-MEZ" d="m182.75,77.4l2-2.5,5,3.5,5.5-6.5-3-2.5,3.5-4.5,9.5,8,3.5-4.5,7.7,6.15-12.7,17.7,1,2.5-2-1-.5,3,.5,1-.5.5v1h-1.5l-2.5,2.5h-2l-2,4.15,2.5,3-5,3-2-1-2,3.5-3.5-1-.5-1,1.5-.5-2-3.5,1.5-3.5h-2.5l3-3-1.5.5-2.5-2.5h-4l2-1-1-1,3.5-1.5-.5-.5,3-4v-1l1-1.5-.5-5.5,2-2h2l-6-4.5"/>
      <path data-code="KOS-NEJ" d="m121.25,99.75l1-1.75,1,.75,2.5-2.5,1.5,2,2.5.5,2-1-.5-1.5,1.5-1.5-.5-2,2-1,.5-2,2.5,1.5.5-1,1,1,1-1,1,1-.5,2,1.5.5,1.5-2h-.5l.5-1.5,1,.5-1.5,2.5,3,2.5,1-1-1-1.5.5-1-1-1,1.5-2.5h2l-1-.5,1-2,3,.5,1-1.5.5.5,1-1h-.5l.5-2-2-2,.5-2.5,3.5,1-1.5-2.5,4.5,1,1.45-2.05,5.05,3.55,3,3.65-2,1,.5.5,1.5-.5,1,1.5-2,1.5,2.5,1.5-1.5,1,.5,2.5-.5,2.5,1,3.5-.5,1.35-2,2-8-.5-5.5,6.5-.5,2.5-3,4-3-2-.5,1.5-1.45,1.35-3.05-2.85-3.5,3.5h-2l-.5-1.5-2,.5-3.5-3h-1v2l-.5-1-3,2,1,1-.5.5-.5-.5h-1.5l-1,2v-4.85l-3.6-2.65,3.6-4.35-.5-1h1l-1.5-2.5-3-1.5,1.5-.65Z"/>
      <path data-code="KOS-NER" d="m3.75,87.75h2l.5-1.5h.5l-.5-.5h1l-.5-1,1-.5.5-1-.5-1,1-.5,2.5,1.5-.5-2.5,1-1.5,2,1,.5-1,.5-.5,1,1.5h1.5l.5.5-1,1,.5,1,4.5-2.35,1,3,2.5,1-.5.5-1-.5v1h1l-1,1,2.5,1.5,1.5,2.5-.5,2,1.5,1.5-1.5,2.5,1,2-1,.5-.5,1,1.35,2.25-1.85-.4-.5,1.5-1.5-.5-3,1.5-.5-1-1.5,1.5-2-2-1,.5-.5-3.5-2,1-2-2-5,.5-.5-2.5-1-.5-4,.5-1-1.5,1-2h.5l.5-1.5,2.5-2-1-2"/>
      <path data-code="KOS-OKT" d="m239.25,122.25l3.5-.5,1,.5,3.5-2,2,1,.5-1,2-.5-1-1,.5-.5v-.5h1v-1l2.5-.5v-2.5l1.5-1v-.5h1l.5-1-.5-1,1-1.5-1.5-2-.5-2,2-1.5,1.5,1,2.5-2.5,1.5,1.5,5.5-7,.5,1,3.5-4.5,5,4.5-4,5.5.5,1-1.5.5-1,1.5,2,7,3,1,1.5-1-1.5,2h-1.5l-.5,1.5,2,4-1.5,1.5v4.5l-1,1.5v2.5l-5-1-3-4.5-2-.5-3,2.5v1.5h-.5l-1,2,1.5,1-1.5,1.5-4-1-1.5-2-2.5,1.5-.5-1.5-3.5.5-3-1-2-2.5-1.5-.5-.5,1-2-1.5,1-1.5-1-2"/>
      <path data-code="KOS-OST" d="m59.25,92.75l2.5,2,.5-1,.5-2,1.5,1.5,1-1.5-1-2,3,1.5,3.5-3,5.5-1,1.5-2,1,.5,1-1.5,1,.5.5-.5v-1l1,.5,1.5-1.5-.5,1.5,1.5.5,1-.5-.5-.5,1,.5,3.5-1.5.5,1.5.5-1,1,1.5,2,.5,1-1v1.5l2,1.5-2,.5-.5,1.5-2.5-.5-1,2,1.5.5,1,4h-.5l1.5.5-.5,1.5.5,1-4,6.5,1.55,1.1-3.55,5.4v1l-1.5.5,1.5,1-2.5,4-1.5-.5-1.5,1-1,2.5h-1v-1.5l-7-3.5.5-1-4.5.5-.5,2v-1l-4-2-1.5.5v-1l-2.5-1,1-2-3-2,.5-1v-.5l1-1-2.5-2,1-1-1-.5,1-2.5-2-2.5,1.5-1.5v.5l.5-2.5.5-.5-.5-.5"/>
      <path data-code="KOS-PAR" d="m127.25,66.25l2,1v-2l2.5,1.5,1-1.5v.5l2.5-.5-.5-1.5,5-6,1.5.5.5-1,4,.5-.5,1,3,1v1.5l13,9.5-1.5,2,2,1.5-2.5,3.5-4.5-1,1.5,2.5-3.5-1-.5,2.5,2,2-.5,2h.5l-1,1-.5-.5-1,1.5-3-.5-1,2,1,.5h-2l-1.5,2.5,1,1-.5,1,1,1.5-1,1-3-2.5,1.5-2.5-1-.5-.5,1.5h.5l-1.5,2-1.5-.5.5-2-1-1-1,1-1-1-.5,1-2.5-1.5-.5,2-2,1,.5,2-1.5,1.5.5,1.5-2,1-2.5-.5-1.5-2-2.5,2.5-2-1.5,1-5,1-1-.5-.5,1-1.5v-2.5l-.5-1,2-.5,1-1.5-1.5-1,.5-2-1-1,4-1-.5-1,1.5-1v-2h-1.5l-.5-3v-5.5"/>
      <path data-code="KOS-PAV" d="m226.75,83.75l1.5-2,6.5,5,6.5-8.5,4,3,1.5-2.5,8.5,6.5-2.5,3.5.5.5-1,.5.5,1-1.5,2,1.5,1-1,1.5h-1v1l-2,.5v2.5l-2.5.5-1-.5-1,1.5-1.5.5-3.5,2.5-3.5-.5-.5,1,1.5.5-1,1.5-1-.5-1,1h-.5l-2,3-1-1.5,1.5-2.5-1.5,1-1-.5,1.5-1v-.5h-2l-6-3-2.5-4,1-2.5-.5-1,3-1.5-1.5-.5,6-7.5-1.5-1"/>
      <path data-code="KOS-PON" d="m200.25,134.25l5.5-9,8.5,5.5,1.5-2.5,2,1.5,2.25-3.55,2.25.55.5-1,2-1-.5-.5,2.5-2,3.5,2.5,2-4,4,3.5,2-2.5,2,2.5-1,1.5,2,1.5.5-1,1.5.5,2.5,2.5,2.5,1,3.5-.5.5,1.5-1.5,1.5-1.5-1-3.5,6.5-4-2-2.5.5-5.5-2,1-1h-.5l-3,1v1.5l-3.5,1.5v2.5h-.5l-2,3.5-5.5-2.5-2,2.5h1.5l-1.5,1.5-.5-.5-2,2.5v2l-1.5,3-4,1.5-3,3.5-.5,3-7.5-4,9-14-3.5-.5-3-1.5,1.5-3.5-2.5-2.5"/>
      <path data-code="KOS-PYS" d="m202.75,93.75l2,1-1-2.5,14-19.5,6,5-.5,1.5.5.5,1-1.5,2.5,1.5,1,2-1.5,2,1.5,1-6,7.5,1.5.5-3,1.5.5,1-1,2.5,2.5,4,6,3-2,3,.5,1h-1.5v-1l-1.5,2-.5-.5v1l-1-.5-1,1.5.5.5-1,.5,3.5,1.5v1l-1,1-1-2-2,1.5-1-1.5-1.5,2.5-1-.5.5-1-1-1.5-3.5-1.5h-1l-1.5,2-3.5-3-1,.5-.5,1.5-2-.5-1-1,1.5-3.5-1.5,1-1.5-2v-1.5l-1.5-.5,1-.5-2.5-2.5,2.5-2.5h1.5v-1l.5-.5-.5-1,.5-3"/>
      <path data-code="KOS-SHM" d="m189.25,123.75l-.5,2,2,1v1.5l3.5-.5-1-4h-4m-25.5,9.5l3.5-5h2.5l3-2.5,1-1.5h1.5l.5-3,1-1,2,1,2.5-.5v-1.5l2.5-.5,4-4.5,2-3.35,2,1,5-3-2.5-3,2-4.15h2l2.5,2.5-1,.5,1.5.5v1.5l1.5,2,1.5-1-1.5,3.5,1,1,2,.5.5-1.5,1-.5,3.5,3,1.5-2h1l3.5,1.5,1,1.5-.5,1,1,.5,1.5-2.5,1,1.5,2-1.5,1,2,1-1.5h.5l.5,1v2l-.5.5h1l.5,2-3.5-.5-.5.5,1,.5-6,9.5-2-1.5-1.5,2.5-8.5-5.5-5.5,9,2.5,2.5-1.5,3.5,3,1.5,3.5.5-9,14-5.5-3.5-1,.5-1.5-1.5-2.5,1-1.5-1.5v1h-1v1.5l-1-.5.5,1.5-.5.5-4,1-2-.5.5-2-1.5-1,.5-.5-.5-2,2-3-6.5-4,1-1.5-2.5-1,1.5-2.5-9.5-5"/>
      <path data-code="KOS-SOL" d="m96.25,19.75l1.5-1,2.5-5,7,1,1.5-1.5,3,2.5,1,3,1.5.5v-1.5l2-.5.5,1.5h2v-1h2.5l3.5-5.5-1.5-1.5-.5.5-1.5-2.5-.5-3,1.5,2,5-6,2.5-1.5,4.5,4.5-3.5,4.5v2.5l.5,1v2h-.5l.5,1,.5-1,2.5-1,5,2,.5-1.5,1.5,1h-1v1.5l2-.5,1.5,2.5-1,.5.5.5-.5,2h-1.5l-.5,3,2,1.5-.5,3.5,1-.5,1,1.5-1,2-3-1-1,1.5-2.5.5-.5,1-1.5.5-2,3,2.5,1.5v1l-2.5-1-.5.5v1.5h-1l-5.5-2-1-2h-2.5l-.5,1-2-1v1l-1,.5-.5,1,2,.5-.5,2.5-3-2v1.5l-3-1,.5,1.5-1,.5-1-.5v1.5l-3.5.65-1-1.15v-1h.5l-.5-1.5h-2.5v-.5l1-.5-2.5-1.5-.5-2.5-1.5-.5v-1l-1.5.5v-1l-1.5.5-2.5-3,3.5-4-2.5-2,2-3-3-2,.5-1-.5-.5"/>
      <path data-code="KOS-SUD" d="m45.75,78.75v-1l1.5-2,.5.5,2-1.5,2.5,3,1-1v-1l.5-.5v-1.5l1-.5,3,1.5.5-1.5,2.5-.5v1l1.5,1.5.5,3,1.5.5.5-2-.5-1.5,4.5-.5,1.5,1,2-.5,1,1,.5-3.5,1-1,4,4,1,3-.5.5h1.5l.5,2.5,2.5.5-1.5,1.5-1-.5v1l-.5.5-1-.5-1,1.5-1-.5-1.5,2-5.5,1-3.5,3-3-1.5,1,2-1,1.5-1.5-1.5-.5,2-.5,1-2.5-2,.5.5-.5.5-.5,2.5v-.5l-1.35,1.35-4.65-5.35-1.5.5-.5,1.5-1,.15-1-1v-2.5l-2.5-1-.5,1-1-.5v-3l-1.5-2.5,1-1-1.45-.3.45-1.2h.5v-.5l1,.5.5-3.5.5.35Z"/>
      <path data-code="KOS-SUS" d="m61.25,53.4l1,2.35,2.5,1,2-1.5,1.5,1.5.5,2h3.5l.5,2,4.5,2.5,1.5,4,4,3,.5,2h-.5l-3.5,2-.5,1.5-4-4-1,1-.5,3.5-1-1-2,.5-1.5-1-4.5.5.5,1.5-.5,2-1.5-.5-.5-3-1.5-1.5v-1l-2.5.5-.5,1.5-3-1.5v-1l-1-1.5.5-.5,2-.5,1-1h1l-1-.5-.5-3,1-1-3-2.5,1-2v-.5l2-1v-2.5h2l.5-3,1,.65Z"/>
      <path data-code="KOS-VOK" d="m221.25,112.25l1-.5-.5-.5,1-1.5,1,.5v-1l.5.5,1.5-2v1h1.5l-.5-1,2-3h2v.5l-1.5,1,1,.5,1.5-1-1.5,2.5,1,1.5,2-3h.5l1-1,1,.5,1-1.5-1.5-.5.5-1,3.5.5,3.5-2.5,1.5-.5,1-1.5,1,.5,2.5-.5v-2.5l2-.5v-1h1l1-1.5-1.5-1,1.5-2-.5-1,1-.5-.5-.5,2.5-3.5-3-2.5,6.5-8.5-1-1,5.5-6.5,7.5,7,2.5,1,1.5-1.5,8.5,7-13.5,17-.5-1-5.5,7-1.5-1.5-2.5,2.5-1.5-1-2,1.5.5,2,1.5,2-1,1.5.5,1-.5,1h-1v.5l-1.5,1v2.5l-2.5.5v1h-1v.5l-.5.5,1,1-2,.5-.5,1-2-1-3.5,2-1-.5-3.5.5,1,2-2-2.5-2,2.5-4-3.5-2,4-3.5-2.5-2.5,2,.5.5-2,1-.5,1-2.25-.55,3.75-5.95-1-.5.5-.5,3.5.5-.5-2h-1l.5-.5v-2l-.5-1h-.5v-.5l-3.5-1.5Z"/>
</svg>