<svg xmlns="http://www.w3.org/2000/svg" viewBox="0 0 856.31 2071.46">
      <path data-code="KYA-ABA" d="m436.66,1730.81l2.5.5-1.5-1.5,2.5-2-1.5-3,.5-1.5,1-.5v-3h.5v-1.5h-1.5l1-4,1.5-1,1-1.5-2.5-.5.5-1h-3l.5-2v-1l12-1,3.5-1,2-2v-2l-.5-2.5-6,.5.5-15.5-1.5-3.5,5.5-4.5v-4l-2-3.5,3.5-2h1.5l6,9,8-2,9.5,2.5,22.5,20.5-2.5,7,1-.5,3.5,2.5,1.5-.5v1l-.5.5,1.5,1,2-1.5v1.5l2.5-.5.5,1-1.5,4-1,1-1-1-3.5,1.5v4l1.5,1.5h-3.5l1,1v2l-.5,1,.5,1-1,2.5v1.5l-1,1.5-4,2-5.5,1-2.5-.5v1l-1.5,2.5-3.5.5-.5,1.5-2.5-2h-1.5v.5l-2.5.5.5,1-3,2-1.5-2-6,2.5h-5v1l-1,1.5-4-2-1.5,5.5h-3.5l-.5-3h-6l-1-1.5v-.5l-3.5-2-1,1-3-.5-1-3h1l-.5-2-1-1v-2.5"/>
      <path data-code="KYA-ACH" d="m245.66,1757.31l.5-1,2,1,.5-1h-.5v-1.5l.5-.5,2,1v-1.5h.5l-.5-.5-.5,1-2.5-1.5,3,.5-.5-1.5,2-.5-1-1.5.5-.5,1.5,2h1.5l-.5,2,2,.5h-1.5l-2.5,4.5-2.5-1.5-1,1.5v-1l-.5-.5-.5,1,.5.5-1.5.5-1-.5.5-1h-.5"/>
      <path data-code="KYA-ACM" d="m245.66,1757.31h.5l-.5,1,1,.5,1.5-.5-.5-.5.5-1,.5.5v1l1-1.5,2.5,1.5,2.5-4.5h1.5l-2-.5.5-2h-1.5l-1.5-2-.5.5,1,1.5-2,.5.5,1.5-3-.5,2.5,1.5.5-1,.5.5h-.5v1.5l-2-1-.5.5v1.5h.5l-.5,1-2-1-.5,1m-11-20l3.5-1,1,2.5,1.5-1,4,.5,1.5,2.5,2-.5,2-2.5v-1.5l1.5-1,1,3-1,1.5,1,1.5-2,1,.5-1-.5-.5-1,1.5,2.5,5,4-3,3.5-.5v-1.5l2-1.5-.5-.5.5-2,4-.5v-1l1-.5-.5-1,.5-.5,3,1.5,11,1-.5,3.5-5,1,.5,3.5h.5v3l-.5,1.5-1.5-1-1.5.5-1,2h-4.5v2l2.5,1-2,2,1.5.5v2h.5l-.5,5.5,1-.5-2.5,3,1,2,2,1-1,3-1.5-1-1,1.5v-1l-1,.5v-2l-1,.5v-1l-.5,1-1-1v1l-.5-.5h-6.5v1h-.5l-.5-1v-.5l-1,.5.5-2-.5-1.5h-1.5v-2l-2-1-1,1.5h-1l-.5,1-1.5,1.5-6.5-2-.5,1-.5-1.5-4-1,1-3.5,5-2v-2l-1-.5,1.5-3-2-5.5,1-2-1-2h-3v-2l-2.5-3.5v-1.5"/>
      <path data-code="KYA-BAL" d="m252.66,1815.81l5-3.5,1-3-.5-.5,2-3.5,4,1-.5-2h2.5l.5-2.5,9.5-2,2.5,1,.5-1,.5,1,1,.5.5-.5-1-4h-2.5v-1.5l1-1.5,9.5-3.5,4,1.5,3,5,3-1.5,4,1-2-4.5,11.5,4.5,7.5,1.5h4v-3l3,1.5,6-2,.5,3-1.5,1-.5,2,3,4.5h.5v7.5l1.5,2v4l-.5,2.5.5,2-.5,1,1.5,2,3-1.5,7.5,7-.5,4.5,1,2-1,2,1.5,2.5-.5,1.5,1,1.5,1.5,1-.5,2,1,1.5-1,3,2.5,1.5-.5,2-2,.5-6-5-5,2.5-2-1.5v-1.5l-3.5-1.5-8.5,1.5h-2.5v-1h-1l.5-.5-2,.5-.5-1-.5,1h-1v1h-.5l-1,3-1.5-1-2,1.5,1,3-.5.5-.5,3.5-2.5-.5-3.5-4-1.5-.5.5-1-1-1.5-2-2-1.5-2-3,1-1.5-1,.5-2-1-.5-1-5,.5-1,1.5-.5,1-2.5,1.5-1-.5-1.5-9.5-1v-3.5l-1.5-4-5-1.5-.5-2.5-2-.5-.5,2-.5,1.5-5.5,1-1,2-2,.5.5,1-2.5.5v1.5l-1,1-2.5-.5-.5,1-.5-2.5.5-2v-2l-3,.5v-2h-3l-.5-3.5-2-.5v-4l-1.5,1-2-1.5-.5-2.5"/>
      <path data-code="KYA-BER" d="m357.66,1768.81l1-.5-.5,1.5,3-.5v-1l-1-1.5h-1.5l-1,2m-3-1l1.5,1,2-2-2-1.5-1.5,2.5m-35.5,13.5l2.5-1,2,1v1.5l2.5.5,1-2-.5-1.5,5-1h4.5l2.5,3,.5-2.5h3.5l1-2h1.5l.5-2.5,1.5-.5h-1l.5-1-1,.5.5-1.5-2-.5v-1l2-.5,1.5,2.5,1-.5,1-3.5-1-2.5-.5-.5h.5v-.5l4,.5,1.5-2,2.5-.5-.5,1.5,2.5-1v1l1,1,4.5-.5,3-3.5,3-7.5v-1.5l2.5,2,3-.5,1-2,3-.5v1.5l3,3v5l1.5,1h-3.5l.5,3-1.5,1.5-1,5-.5.5-13.5-2.5.5,1.5-1,1.5.5,2.5-1.5,1-1.5,2.5h-1l1.5,1.5-4.5,3-.5-1.5-1.5,1v2l2.5,2.5-1.5,1.5v.5l.5,1h-1.5l-3,4.5,2,3,1-1v.5h1.5v.5l1,3-1,2.5.5,1.5v1l-4.5,2.5-1,1.5-4.5,1.5,1,1,1-.5-.5,1,.5,1h-1.5l.5,1.5.5-.5.5,2.5-1,1-1,5.5v1l-2.5,5-5.5-5.5-3,1.5-1.5-2,.5-1-.5-2,.5-2.5v-4l-1.5-2v-7.5h-.5l-3-4.5.5-2,1.5-1-.5-3-6,2v-2l-2.5-2.5-4.5-1,.5-2v-1l1.5-2v-2l-2-2.5"/>
      <path data-code="KYA-BIR" d="m222.16,1701.81l1-6,4-6.5,3.5-21.5,3-1.5,3.5-3-1.5-2.5-9-2.5.5-.5v-2.5l1-3-.5-2.5,3.5-4v-2l26.5-10,1,1-.5,1h1v1.5l1.5,1.5-2.5,2,.5,1.5-1,1.5,1,.5-1,.5.5,2.5h-1v2.5l1,.5-.5.5.5,1.5-.5,1.5,1.5,1.5-1,1.5.5,1,1.5-.5,2,2.5v-4.5l8.5.5.5,1.5,4.5,1.5-.5,3,3,2.5,5.5-3.5,2,3,1.5-1-.5,3,1,4-2,1.5-1,2.5-2.5,1v2l-1.5,3h6.5l6,2.5,1.5-4,4.5,1-5,12-2,2.5,11,8.5-.5,8-1,1,2,2.5v5l1,.5-.5,1,1,1.5-12.5,3v-1l1-3-2-3v-4l-1.5-1.5-3,2v3l-5.5,3.5-.5-2.5.5-2-1-1.5-3,2.5-5.5.5-4-.5-1-2-5-.5-4.5-2.5-2.5,1.5h-3.5v2l-2,1.5h-2l-2,10.5h-3.5l-3.5,3-2-4,1.5-.5.5-2.5,1.5-1,.5-3.5-2.5-2v-2.5l-1-2,.5-1-.5-2-2.5-1.5-.5-2.5-2-1.5v-.5l-4-2h-6"/>
      <path data-code="KYA-BOG" d="m212.16,1758.31l1-4.5,1,1.5,3.5-1.5.5-3.5,1,.5h-.5l.5,2.5-1.5,1.5h3.5l-2.5.5-1,1.5.5,1-1,1-1-1.5-2,.5-.5,1.5-1.5-1"/>
      <path data-code="KYA-BGO" d="m212.16,1758.31l1.5,1,.5-1.5,2-.5,1,1.5,1-1-.5-1,1-1.5,2.5-.5h-3.5l1.5-1.5-.5-2.5h.5l-1-.5-.5,3.5-3.5,1.5-1-1.5-1,4.5m-18.5-15l.5-.5,8.5,1,2-3,2,1,3-1.5.5,1,3.5-1.5.5,3,1,.5,2-2h2.5l2-1.5-.5-.5h2v-1.5l1,.5v-2.5h3.5l-.5,1.5,8-2.5,1,2-1.5.5v1.5l2.5,3.5v2h3l1,2-1,2,2,5.5-1.5,3,1,.5v2l-5,2-1,3.5-2.5-.5-2,1.5h-3.5v1.5l-2.5-1.5-2,.5-1,3-1-.5-.5,1h-1v-1l-1,1.5v-1l-2.5,2.5-2-.5-2,2-5,1-1.5-5,2-3-1-1.5-2.5-.5.5-4-3-1-.5-1,1-1.5-1-1-2-.5.5-7h-5v-1l1-1.5-2-2.5"/>
      <path data-code="KYA-BGU" d="m421.66,1555.31l1.5-2.5,2,1-.5-.5v-2.5l1.5,2,3-.5,1.5-2.5-1-1.5,1.5-1v-1l.5.5h.5l.5-1.5v-1l2-1.5.5.5-.5.5,1-.5-1-2,2-.5.5-1.5,1-.5-.5-1.5h1l-.5-1,1,.5v-1l.5-.5h-.5l.5-1.5-.5-.5,1-1-.5-.5.5-1-1-.5,1.5-2.5v-1l1.5-1-.5-1.5,1-1,3-1.5h3l2,4,1.5,1,2.5-.5,3.5-4.5,1.5.5-1,1.5.5,1.5,2,1.5.5,1-1.5,2.5,2,2h3.5l3.5-4.5h4l3.5-1,1.5.5,2.5-1,4.5,3.5h3l3.5-2.5v-2.5l-1.5-1,.5-2,2.5-1.5.5-1.5,2.5-.5,2-2,1-3,8,3.5,2-.5,1.5-1.5h4l1-1.5h3.5l2.5-3,3,.5,2,2.5h2l3.5-5,5.5,1.5,1.5-1.5,5-.5,1-2,2-1,.5,2,1,.5.5,2,2-.5.5-3,2.5-2v-1.5l-.5-1.5,1-1.5,3.5-4.5,3-1,.5-1.5,2-2,.5-2-1-1.5,6.5-1,1-2h1.5l2,2h4v2l4.5.5,1,2,3,2-7,4.5.5,2-2,2.5v1l-3.5,3v2l-1.5,1.5.5.5-.5,1-1-.5v.5l4,3,3-.5.5,1,1-.5,2,1-.5.5,1,1h-1.5l-.5,2h2l-.5,2,.5,1,2.5,2.5,1.5-.5-1,3,2.5,3.5,1.5,4.5-.5,5.5,1,7-1,4,.5,1.5-7,4.5v-1l-2,1.5-4-3.5v-1h-1.5l-.5-1.5h-5.5l-2.5-.5v-2.5l-2,.5.5,3-2.5,1-1.5,3.5h-1l.5,1h-.5l-.5,1.5h-1.5v1.5l-3,2,.5,2.5h-4l-1.5,1.5-1-1.5-.5,1,.5.5-2.5.5-1,1.5-1-1v1.5l-2.5-2.5-6.5-1-4,9.5,1,1.5h4.5l5.5,3v1l2,2.5-.5,1,.5.5-.5.5,1,1.5,1.5.5-2.5,2-1.5,3.5.5.5-.5,2.5,1,1.5-.5-3.5,3-3.5,7.5-2,1-2.5,3.5,3-1.5,5.5,2.5,2,1.5,2.5-.5,3-3,3-.5,2,2.5,1.5,1.5,3.5,3,1v2.5l1,2,5-2,4.5,5h1.5l-1,1,.5,1-2,2,2.5,3.5v4l-3.5,3.5h-2.5l-1,2-3,1v-1.5h-2l-.5-3h-.5v-1l-5-3.5v-5l-2.5-.5v-2.5h1v-2.5h-4l-1-1-1,1-.5-.5-3,1v-2.5h-1l.5,2-2,.5,1,7.5h3.5v5h5v2.5h2.5v2h1l.5,2.5h.5l.5,8h7.5v2.5l-2,1.5-4.5-1-1.5,2.5h-1.5l-.5,2-2-.5-.5,1-1-1.5h-1.5v-1.5h-1.5v-2l-2-1-4,2-5-1.5-19-1.5-17.5,49.5-23-20.5-9-2.5-8,2-3.5-6.5h-1l-1.5-3-2,.5-3,2-11.5,2.5-.5-1v-1l-.5-1,1-.5-.5-1,1.5-1.5-2.5-1.5.5-2.5-1-2-5.5-3-5,.5-4-2,3.5-5,.5-3.5-1-1v-2.5l1-.5-.5-1,.5-1-.5-1,1.5-1v-1l3.5-1.5-1-3,1.5-1.5-.5-1,1-.5-.5-1.5,1-1,1-23-2-4-1.5-1.5.5-1.5-1-3,6-11.5-3-1.5-1.5,2.5-1.5-1.5.5-2-2-.5v-1.5l1.5-1v-1l-1-1,1,.5v-3l.5-1.5-1-.5,1.5-3-1.5-1.5-4-.5,1-1-3-2,1-1-1.5-2.5.5-1-2.5-2.5"/>
      <path data-code="KYA-BLM" d="m302.66,1710.31l.5-8,6-3.5,7.5-11,8.5-4.5,6.5.5,9-2-1,2,.5,1-.5,2.5.5,1h3.5l.5-1.5h6l2-2.5,1.5,2.5,1-1-.5-1.5,1.5-1-.5-.5,2.5-.5.5,3,2-1,.5,1-1,4.5,1,2,4,1,2.5-1,9-7-.5,2.5,1,.5.5,2v2.5l4.5,7,5.5,12.5-4.5.5-9.5,4-2-.5-6.5,3h-4l-3.5,2.5,2,2.5.5,4.5-.5.5h-9.5l-2-2-4.5-.5-1,1.5v2l-2,1-1-.5.5-.5h-4l-1-1.5.5-1-1-1.5-1.5.5.5-1.5-1.5-1.5,2-.5v-1l-3-2-4,1-7.5-.5-1.5-2h-1.5l-1-2.5h-1.5l-3-3-1,.5-2-1-3-2.5-2,.5"/>
      <path data-code="KYA-BLU" d="m231.66,1728.81l1-2.5,3-1.5v-1.5l1.5-1.5-.5-1.5,1-3,3,2-.5,3.5-1.5,1-.5,2.5-1.5.5,2,4,3.5-3h3.5l2-10.5h2l2-1.5v-2h3.5l2.5-1.5,4.5,2.5,5,.5,1,2,4,.5,5.5-.5,3.5-2.5.5,1.5-.5,2,.5,3.5-.5,1.5.5,1.5v2.5l.5,1-.5,1.5,1.5-.5,1,1.5-2,1.5-1.5,5-11-1-3-1.5-.5.5.5,1-1,.5v1l-4,.5-.5,2,.5.5-2,1.5v1.5l-3.5.5-4,3-2.5-5,1-1.5.5.5-.5,1,2-1-1-1.5,1-1.5-1-3-1.5,1v1.5l-2,2.5-2,.5-1.5-2.5-2-.5-3.5,1-1-2.5-1.5,1-5-8.5"/>
      <path data-code="KYA-BOR" d="m410.61,1784.01l.5-2,.5,1,1-1.5,3,1.5-1,1.5.5,1v1-1.5h-1.5l1,1-2.5-1-.5,1-.5-1,1-1h-1.5"/>
      <path data-code="KYA-DIV" d="m304.66,1779.81l7.5,1.5v2.5h2v-6l-3.5-2-.5-2h1.5l-1,1,3,1,.5,1.5h2.5v-1l2.5.5.5-1.5h1.5l4.5,1-1,.5,1.5,1.5h5l-4.5,1.5.5,1.5-1,2-2.5-.5v-1.5l-2-1-2.5,1,2,2.5v2l-1.5,2v1l-.5,2,4.5,1,2.5,2.5v2l-2.5-2-3,1-2-2.5h-2.5v-1.5l-1.5-1v-2h-4l-.5-5.5-5.5-1,.5-1.5-.5-.5"/>
      <path data-code="KYA-DZE" d="m390.66,1712.31l8.5-1.5,1-2h1l-.5-1.5,4.5,1-.5-1.5h2l.5,1,3-.5.5-2.5,4.5,1,2-3h-1v-1l7.5-.5,5-2v2l2.5,1,2-2.5,8,1,2-2.5,2.5,4-2,1-.5,3.5-5,.5v1l-.5.5v1.5h3l-.5,1,2.5.5-1,1.5-1.5,1-1,4h1.5v1.5h-.5v3l-1,.5-.5,1.5,1.5,3-2.5,2,1.5,1.5-2.5-.5v2.5l-5,2.5-1.5-1-1.5,1-1.5-2-2.5,1-4.5-.5-1.5,2.5-1-1-.5,1h-1l-.5-2-2.5.5-6.5-3.5h-6.5l.5-6h-1.5l-1.5-4.5-2.5-2.5-2.5.5-2-2.5v-4.5"/>
      <path data-code="KYA-EVE" d="m227.66,1102.81l1-2.5,1-1v-3.5l2-3h1l2-2.5,1.5-3.5v-1.5l5.5-3,.5-2.5,1.5-1v-6.5l-1.5-1.5,1-1-.5-2.5.5-.5-1.5-1,1-2-1-.5-.5-1,1.5-.5.5-1.5-2-.5,1-.5v-.5l.5-.5v-.5l1-.5-1-1,2-1.5-1-3.5,1.5-1v-1l1-1v-1.5l1-1,.5-1.5-1-1.5,1.5-1.5,1-2,10-1,8.5,3.5-.5,1.5,1,.5,1.5-6.5.5-8,6.5-4,18-20.5,2-3,1-4.5,4.5-9.5,4-5,3-2.5,2.5-4.5v-1l1.5-.5v-1.5l.5-1.5-1-1h2.5v-1l2.5-2.5,3-1.5v-1.5l1.5-1.5,3.5-2.5v-1l1.5-2.5h-.5.5l1-2.5,2-3.5.5-4,1-1.5,9-9.5,9-6.5,3.5-4,2.5-4.5-.5-2.5,1-4.5,4.5-4,1-3,1-2,2.5-1.5,5-.5,10.5,2.5,9,4.5,4.5-1.5.5-3.5,2-3-3.5-6.5,2-2-.5-2.5,2-1.5.5-2,2-1,1-4.5,2-.5-.5-2,1.5-.5,1.5-1v-1.5l1.5-.5v-2l1.5-1.5v-3l7-.5,1.5-2-.5-1-2-1v-2l-.5-2-1.5-1.5,5-3.5,2-.5v-3.5l8-8,16.5-3.5-.5-1,6.5-4,3-3.5,4-1,2-2.5v-2l1.5-1.5,2-1,6,1.5,3-1,2.5-2.5-.5-1,1-1.5-.5-2,4.5-1,1.5-2,8,1.5,3-2.5,2-4.5,2.5-2,2,.5,2.5-2,8.5,5,4.5-1.5,2,1.5,8.5-1.5,4,1.5,2.5-1v-1.5l-1.5-2.5,3-3.5v-.5l-1.5.5-1-1,1.5-2-1-1,5-1,4,.5.5,1,1-1v1.5l2.5,1,2.5-1,7,2,2,2.5h1.5v1l-1,2.5,3.5,1v2.5l1,1.5v1.5l-2,2.5,1,1,1.5,4,1.5,1,2-.5,1-2.5,2.5-1-.5-.5.5-2.5,1-1h2.5l3.5,2,8,1,5.5,2.5.5-1.5h3l2-2.5h4l3,1,4.5,2.5-.5.5,1,1.5,2,.5v1l-2,2,2,1,12.5,4,3,2,5,.5v-.5l5-4.5,5,1,3.5-1.5,1.5.5.5,1.5-.5,1.5v.5l4.5,3,3,.5,3.5-1,.5-1.5v-.5l1-1,.5-.5-.5-.5,2.5-1.5,4,2,2.5-1.5v-2l1-1.5-1.5-3.5,2-1,4,.5,6-1.5,4.5,2,6.5-1,.5,2v2l1.5,2,2-.5,1.5-2,3,1,6-4,1-1.5-.5-.5.5-2.5-1.5-2,1-1,6-1.5.5-.5-.5-1.5,1-1,4,1.5,3-1h.5l-1,2v2.5l-3.5,2.5-1,2.5,25,36,6,42,2.5,29.5,1.5,11.5.5,12.5,1,10.5-2,3-.5,3h-3.5l-1.5-2-2.5,2-2,5-2,.5-1.5,2-4,.5.5,4-3,5.5-7.5,3-1-1-3.5,1,1.5,1v1.5l4.5,3.5,4.5-2-.5,1,.5,1.5,5,1,.5-1,1.5.5.5,1v1l-3,4.5,1,1,2,.5,1-1.5,2.5-.5-.5,2-1,1.5.5.5v1l.5,1.5,3,1.5-1,2.5,1.5,3-.5,1v1.5l3,3-.5,1.5,1.5,2-2,2.5-2,1-1.5,4,.5,1-.5,1.5,1,2-.5,1,1,.5-.5.5.5,1.5-.5.5h.5l-.5,1,.5,1.5-.5,1.5,3.5,3,3.5-1,1.5,1.5-.5,1.5,1,.5v.5l1.5.5-.5,1.5,1.5.5,1,2.5,1,1-.5,1.5.5,3.5h-.5l1,3.5h-.5l.5,2-.5,2,1.5,1.5-1.5,1-.5,2,1,1-.5.5,1,.5-.5.5.5,1-1.5,1,1,.5-.5,1.5,7.5,2.5-1,1h2.5l.5,1-.5,2,.5,1.5,8,1.5-.5,2.5-2,2v1l.5.5-1,3.5-6-.5-.5,1h-1.5l-.5,3-2,2,.5,5,3,1.5-1.5,1-2-1-2.5,4v2l-3.5,1-.5,3-1,2-2.5.5-2,2v2l1,.5,3,1.5v1l2,4,3,2-4.5.5v-1h-1l.5-2-.5-.5-3.5,1.5,1,2v1.5h1v1l1,.5-2,.5-1-1-1,1v2l-.5,2.5.5,1.5-.5,1.5,2,3-2.5,1-1.5-1.5-1.5,1,1,2,1.5.5-1,3v1h1.5l1,2.5.5,1.5-1,1.5.5,1.5,3-1.5,1,1,2-3.5,1.5-1,1,1,1,2,1.5.5v2l-1.5,1,1,1.5,1.5.5,1-.5,2-2h2l1-1,6-1.5.5-1-1.5-3,1-1.5,2,.5,1,2,1.5,1.5,1,3.5h2.5l3-1.5,1.5,2,4.5,1.5v1l.5.5h4.5l.5,3,3,2.5,3-1.5,3-3h2.5l2.5,1.5v1.5l4.5,1.5,2,2.5,1.5-1,.5,1.5,2.5-.5-.5-2,.5-2.5,5-1,1.5,2,.5,2.5,1,1-.5,1,2.5,3v2l1.5,2-2,1.5v1.5l-1.5-.5-2,1.5-3.5-.5-1.5,1-2-1-2,2-2-1.5-1.5,1-1-.5-2,1.5v1.5l-1.5.5-.5,2.5,1,.5h-1v1l.5,1-1.5,1h-1l-.5-1.5-1-.5-1.5,2.5-2.5-.5,1-.5v-1.5l-3.5-2.5-2,.5-.5-.5-1,1,.5,1-2,.5-.5,2h-1l-.5-.5.5-.5h-1.5.5l-1.5-2-5-.5-.5-2h-1l.5,1-2-1.5-1,1v-1.5h-1l-1.5,4,1,1.5,3.5,1.5-.5,2,2.5,2-1,3-1,1-.5,4.5-1.5,3,3,4-.5,2.5-2,2,.5,2.5h-2.5v1.5h-1l3.5,3v1.5h.5l.5,1.5,1.5.5.5,1.5h1.5v1l1.5.5-1,.5.5,1-1,2-.5,2-1,.5h-3l-3-2.5-.5.5-.5,1.5.5,1-1.5,2v1l1,.5-1,1v1l2.5.5.5,1.5-1,2v1.5l1,1.5-.5,1.5-5,3-3.5.5,1.5,2.5-.5,1,1.5,2-.5,2,2,1v3l3,.5,1.5,2,1.5-.5,2,1,1,1v2.5l2,1v1l.5.5v3l-1,1.5v1h3.5l2,2h2.5l3,1.5.5,1-.5.5h-2.5l-1,3.5,2,1.5,1.5,3-3.5,2.5-2,5-3-.5-1,1,1.5,2.5.5.5.5.5-2.5,1v2l-1.5,2,2,.5v1l2-.5-1,3,1,1-.5,1v2l-1,1,.5,2.5.5,1-.5,1.5.5,1v1.5l-3.5,1.5-2,4-3.5,2-5,8v1.5l2,2.5-.5,1.5,2.5,5-3,.5-1.5,2-.5,2.5-3-2-2,.5-2.5,3,.5,2-6.5,4v1l-1.5,1v1l-.5,2-1,1,1,1v1.5l-8.5,2-3,1.5v1.5l-4,2,5.5,2v1.5l2,1v2.5l1.5,1v2l1,1-2-1-4.5,1-.5,2-3.5,4v.5l-.5,1-2,1-.5,2,1.5,1-1,2.5.5,1-1,3,2,2.5-.5,1.5-5,3.5,1,.5.5,2,1,1.5,1.5.5,1.5,2,.5,1.5-1.5,3,.5,1-1.5,3.5h1l-.5,1.5,1.5.5-.5,1.5,1.5,2,2,1-.5.5,1,.5-.5.5h-.5l2,2-.5,1,1,2-1.5.5,1,1,4.5,1.5v1l3,2-.5.5.5,1,1.5.5,1.5-.5.5,1,3.5-1.5,5.5,1.5,3.5-2,1,2,1.5-.5,2,1.5-.5,1,1,1,1-.5-1,1.5v2.5l-1.5,1,1,4,1.5,3.5,1,.5-.5,1,1,1.5-2.5,4,1,1-.5,1,.5.5v1l2,1,1,2.5-1.5,1,.5-.5-1.5-1-2,1.5-4-1v-1l-6.5.5-.5.5.5,1-1,1-2-.5.5.5,1,.5v.5l.5,1,.5,2.5-1,1-1.5-.5-2,1-4,5.5,2,1-.5,2.5,2,2h1.5l-1,1.5v2l3,2.5,2,3h3.5l2.5-1.5,1.5.5v1l1.5,1,.5,1-1.5,2,1,1,.5,3-1.5,3,1.5,1,.5,1.5,1.5-.5,1.5,1.5-.5,1,2,2-1.5,3,2,1,1,1.5-2.5,4-5,1-1,3.5-5.5,4.5v2l-1,.5.5,1-2,1-1.5,2.5-.5,4,1,.5v.5l1.5,1.5,2.5,1.5-2,5-6,2.5-.5,2-3-1-2,2.5-2-1v-1.5l-2.5-1.5,1-2.5v-1.5l-2-.5-2.5,2-2-3v-2l-1,1.5-5-1-2,4.5-2.5-.5-.5-1,2.5-1.5-.5-1.5-.5-3,1-1v-2l-1,.5-.5-2.5-1.5-1-4,1.5-3-1.5-2.5,1-1-1.5v-1.5h-.5v-1l-1-1-6-2-.5-1.5-2.5-3.5-.5-2-3-2.5.5-1.5-1-.5.5-.5-1-1.5,5-.5-.5-2-.5-.5-1,.5-2.5-1.5-1,2.5h-2.5l-2.5-1.5-.5-2-1.5-.5-.5,2-1.5-.5-3,4,1,2-1.5,2h-6l-1-.5h-2l-.5,1.5-2,.5v-1l-1.5-1,.5-1.5,2.5-1-1-.5.5-.5-.5-1,.5-1.5-1.5-2.5-.5-4,.5-1,2-.5,2.5-2v-1l-.5-1-3.5-.5v-1l-3-2.5,1-2-1-2-.5-2,1.5-.5v-1l-3.5-1-5,4.5-4.5.5-1.5-2.5-10-3.5.5-1.5-2.5-2-8.5,1.5-.5.5.5,2-.5.5-7.5-1.5-2,1-3.5-1.5-1.5,1-3-4-3-.5-3.5,1.5-3.5-1-1-1.5-2.5,1-2-3-2-1.5-4,1.5-4.5-1-2.5-2.5h-1.5v-1l.5-.5.5-2.5-1.5-3-2.5-1-1-2-4.5-.5v-2h-4l-2.5-2-2,2-6.5,1,1,1.5-.5,2-2,2-.5,1.5-3,1-3.5,4.5-1,1.5.5,1.5v1.5l-2.5,2-.5,3-2,.5-.5-2-1-.5-.5-2-2,1-1,2-5,.5-1.5,1.5-5.5-1.5-3.5,5h-2l-2-2.5-3-.5-2.5,3h-3.5l-1,1.5h-4l-1.5,1.5-2,.5-8-3.5-1,3-2,2-2.5.5-.5,1.5-2.5,1.5-.5,2,1.5,1v2.5l-3.5,2.5h-3l-4.5-3.5-2.5,1-1.5-.5-3.5,1h-4l-3.5,4.5h-3.5l-2-2,1.5-1.5-.5-2-1.5-1.5-1-1.5,1-1.5-1.5-.5-3.5,4.5-2.5.5-1.5-1-2-4h-2.5l-3.5,1.5-1,1,.5,1.5-1.5,1-3.5-1-1-.5v-2l-3-2-7-1-1.5,1v-1h-1l.5-1.5-1-1,.5-1-1.5-1-.5-.5.5-.5-1-2v-1.5l1-.5v-1l-1.5-2v-2.5l-2-2-.5-3-1-2,.5-1.5-1-1,2.5-3-.5-1.5-3-3.5.5-1v-2l1-3-2-.5-1-2,1-4.5,1-1-.5-1,1.5-1v-1.5l1.5-1.5,3-2h3.5l1-2-.5-2.5-1.5-1.5.5-2.5-.5-1.5,2.5-1.5.5-2.5,2-1.5,1.5-2.5,2-1v-1l-1-2-2.5-1.5h-2l3-4.5-1-1v-3l-1.5-4.5h-1l-.5-1,1-1-3-2-3-5-1-.5v-1.5l-6.5-1-1-1.5h-2l-1.5-1.5h-1.5v-1l-3,.5-3-1.5-5.5,4-4.5-.5-.5,2.5-3,1.5-.5,2-1.5,1,.5,2-2,1v1.5l-2-3v-2l-1.5-2-6.5,1-5-4.5-3.5,1.5-4-1.5-.5-2-5.5-8v-1l.5-1.5-.5-1.5.5-1-5-3.5-2.5,2-3.5-2-4,3.5-2.5-.5v1.5l6.5,5-2,1,3.5,2v3.5l1.5,1h-1l1,1-2,.5.5.5.5,2-4.5-2-2.5-3-2-.5-2-4h-3l-2.5,3,1,2-1,1,1,3.5v1.5l.5.5-.5.5v1l1.5,1-2.5,1.5-6-1v1l.5,1.5-2.5,1,.5,1.5-1.5,1.5v4.5l-2.5,1-3.5,4-19-.5,2-3-.5-1v-1.5l-.5-.5.5-1-2.5-1-.5-2.5-1-1,.5-.5-2.5-3-7-14.5-2.5-3,.5-1-.5-.5-2-1v-1l1-1-.5-3.5.5-1-.5-1-2-1v-1.5l-1-.5.5-1.5v-2.5l-1.5.5-2.5-2.5,1-3.5,1.5-1v-2l.5-1-.5-.5,1-.5v-1l1-1.5v-1.5l4.5,1,.5-1-.5-1,.5-.5-2-2-1-2,1-1-1-1.5.5-.5-1.5-.5.5-1.5-1.5-.5-2-2,.5-1.5v-.5l-2-2,.5-2-3.5-.5-2-3.5-1-5.5-1-2-5-3-1-4.5-1-2.5,1.5-1v-1.5h2l1.5-1.5,2-4-.5-1,.5-2.5,2,.5v-1l1.5-2v-1.5l1.5-.5,1-2.5,3-.5,4,.5,5-.5v-3.5l2-.5,2-8,3.5-4.5,17.5-12,5.5-7.5-1.5-3v-2.5l-1.5-1v-1.5l-1.5-1,.5-6.5,1.5-1.5-1.5-2.5h-.5l-.5-1.5.5-1v-1l4-5v-2.5l-.5-1h.5v-2.5l-.5-.5,3.5-2.5v-1l.5-.5v-1.5l1-2,6-.5,1.5-4,2-2,.5-1-1-3.5-.5-6-8.5-4,3-4v-1.5l1-.5,1.5-2,.5-3-1-1,1-2.5-1-.5-3.5.5-.5-3.5-1-1h-3l-1-1.5-.5-1,1-.5,1-2-2.5-2,1-2.5v-2l-1-.5-5.5-.5-2.5,1-4.5-1.5-2,2.5-3.5.5-1-2,1-.5v-.5l.5-1-3-1-1.5-2.5-1,1.5-2.5-.5-1.5,1.5h-2.5v-1l.5-.5-.5-1,2-.5.5-1-2-1.5-3,1.5-1-1,3-6v-1.5l-1.5-1.5-1,1-3-2-1.5,2.5,1.5,3.5-.5,1-3,1-3-3-1-1.5-1-.5v-2l-2-2.5-1.5.5,1-3-1.5-1,2-1-.5-1,1-1-1.5-2h-1.5l-.5,1,.5,1.5-2.5,1-4.5-.5-1,1-1-1v-1.5l2-4-.5-1,.5-1.5-1-1-5,1.5-1.5,1.5-12,1v-1l-1-.5.5-1-1.5-1.5,1-1,.5-3.5h1v-2l2.5-3.5,1.5-2.5,1.5-1v-.5l2-1v-.5l2-4.5,2.5-1.5-2.5-3,1-2.5-2,.5-.5-2,4-4.5-2-3.5-6.5.5,3-2.5-2.5-3-1-2.5v-2.5l-2.5-1-2,1.5-3-1.5-2,1-1.5-1-.5-1.5-1-1,.5-1-.5-.5h-2.5l-1.5,1.5-1-.5"/>
      <path data-code="KYA-EME" d="m316.16,1758.31l2.5,1.5,1-1,.5-1.5h-1v-1.5h-2.5v2l-.5.5m-22-7.5l2.5-2.5v-2l1-.5v-.5l1-.5-.5-1,1-1-.5-2,2-2.5v-1l1-1-.5-1h1l-.5-1,.5-.5v-1.5l1.5-1.5v-1.5l2-1-.5-1,1-1-1-2,.5-1h-.5l.5-1-1.5-2,.5-1-1-.5v-5l-2-2.5.5-1,2.5-.5,2.5,2.5,2.5,1,1-.5,3,3h1.5l1,2.5h1.5l1.5,2,7.5.5,3.5-1.5,3.5,2.5v1l-2,.5,1.5,1.5-.5,1.5,1.5-.5,1,1.5-.5,1,.5,1-1,.5-.5,3-1.5.5-.5,1.5,1,1.5,4,2,1-.5,2,2-1.5,4,.5,4,2-.5,1,1.5h2l1.5,2,2,.5-.5,4.5,9.5-2,.5-1.5.5-.5,1.5.5,1,2.5,4-.5,1-1v-3l1-1,.5-.5-1,1.5-.5,3.5-1,1h-2.5l-3,2.5v.5l1,2v1.5l-2,2.5h-3l-1.5,2-4-.5,1,4-1,3-1,.5-1.5-2.5-1.5.5.5-.5,1.5.5v-1.5l1-.5,1,1.5-1-1.5,2,.5-.5-1.5-1.5,1v-1.5l-4,.5-.5-1-1-.5,1,1.5v1l-1.5,1,.5-.5-1.5-1,1-1h-2v2l-1,.5v2l-1.5,1-1-.5-1-2-4.5,2.5v4l-1,1,1.5.5h-5l-1.5-1.5,1-.5-4.5-1h-1.5l-.5,1.5-2.5-.5v1h-2.5l-.5-1.5-3-1,1-1h-1.5l.5,2,3.5,2v6h-2v-2.5l-7.5-1.5.5.5-.5,1.5,5.5,1,.5,5.5h4v2l1.5,1v1.5h2.5l2,2.5,3-1,.5.5-1,.5v2.5l-11.5-1.5-11.5-4.5-1-2.5-5-4.5v-2.5l2-.5-1.5-4,1.5-2h1l5,5,1.5-3-2.5-3.5,2.5-2,.5-5.5,1-2-10-1v-1l1.5-1v-5l-2,.5-.5-6.5"/>
      <path data-code="KYA-ENI" d="m315.16,1601.81l1-1,1.5,1.5,3-.5,1,2-2,3-4-1-.5-4"/>
      <path data-code="KYA-ENM" d="m347.16,1628.31l.5.5.5-.5v-.5l-1,.5m-2.5,3.5l1-1.5,3.5,1.5-.5-1-2-2-2,3m-29.5-30l.5,4,4,1,2-3-1-2-3,.5-1.5-1.5-1,1m6,17l.5.5-.5,1,.5,1h3l.5,1.5,1.5,1-1,2.5h1v2.5h6l1-1-2-1.5,2-1.5-3-2-1.5-4.5-3-2.5v-2l.5-1.5-.5-.5-1,.5-1,1.5h-2l.5,1-1,1,1,.5-1.5,2.5m-257-203.5l14-9h2.5l33.5-15.5v-2.5l-1.5-3.5,6-6,6,1,2,1.5,2,4,1.5.5h1l2.5-4,2-1.5,3,3.5,2.5.5.5,4.5,3,2.5h4.5l6-2,1-1v-1.5l.5-1-1.5-3.5,1.5-.5,6.5,5.5,2,1,.5,1.5-1,.5,3.5-.5,3.5,2,.5,2,1,1-1,.5v1.5h-.5l1.5,1.5.5,3,1-1.5,2-.5v-.5h-.5l1-1v-.5h1.5l-.5-1,1-.5-.5-1.5-1,.5.5-1.5-.5.5v-1l3-.5-.5-.5,1.5-1.5,2,.5-.5,1,1.5.5-.5,1h.5l3.5.5-.5,1,2-1.5,2,1.5,1-1-.5-.5,2.5-.5,1,1,2-.5-.5-1,2,.5.5-.5v-1h2l-.5-.5.5-.5,1,.5-.5,1.5,1.5.5.5,1v1h-1v2.5l1.5-.5v1l1.5,1-.5,1,1,1.5h1.5l1-1,3.5,2.5.5-.5-1-1,.5-.5h1l.5,1.5,2-.5-1,1.5,1,2-3.5.5,4,.5.5,2.5h1.5l-1.5,1,1,1.5v1.5l-.5.5,1,1,1-.5,1,2,1.5,1.5,2-.5-1,1.5,1,.5-1,.5,1,1.5-.5.5,2,.5-1,.5v1.5l1.5-1.5,1,1.5h2l-.5,1,1.5,2.5,2.5-1.5,1,2.5,1-1.5h2l-1-1.5.5-.5,3.5,2.5.5-1.5,2-.5v2l2.5,6,1.5,1.5,36.5,5.5,33,1-2,2v1l-1.5.5-1,3-3,2,.5,3.5-2.5,2-1.5,4-1.5.5,1,1-1,2.5-1,.5-2-.5-.5,1h-1l1,3-.5,1-1.5,4.5v2l-2,3,.5,1.5-2,3-2.5,1.5v2l-2,3.5v1l-1,2-.5,3,2,.5,2.5,4-1,4v1l-1,2,1.5,3-.5,3-1,.5,11.5,23,5.5,3.5,8.5,7.5,1,2.5,2,5.5v8.5l.5,5,4.5,18,2,1,6,.5,3.5-.5,1.5-1,2.5,1.5,2-.5.5-1.5,1.5-.5,1.5,5.5,1,5.5,1,1,2,4.5,1-1.5,4.5,8,4,14-6,2.5-1,2v1l3,3v1.5l1.5.5-1.5,2h-1l-1.5,3v2.5l2.5,4.5-3,2-5.5-2-3.5.5-.5-1-5-.5v1.5l-4,1-.5-1.5h-1l.5-1.5-2-3.5,1.5-.5v-3h-2l-5-3.5-5.5,3-2,1.5.5,1h-1l-1-2-1.5,2-2,.5-3.5,5-12,.5v1.5l-1.5,1h-1.5v-1.5l-1.5.5-.5-1-1,.5v-1l-1,.5-1.5-2.5-3-1.5v1h-1.5v1h1v1.5l-2,1,.5,1.5-.5,1v3l-1,1,.5.5-.5,1,.5,1.5-.5.5,1,.5-.5,1.5,2,.5v2l-6,4-3-2.5.5-3-4.5-1.5-.5-1.5-8.5-.5v4.5l-2-2.5h-1.5l.5-2-1.5-1.5.5-1.5-.5-1.5.5-.5-1-.5v-2.5h1l-.5-2.5,1-.5-1-.5,1-1.5-.5-1.5,2.5-2-1.5-1.5v-1.5h-1l.5-1-1-1-26,10-14,3.5-.5-2.5,1-.5-1-1.5,1.5-3-.5-1.5v-2l-2-1v-1.5l-15-1.5-6-6-19.5-7-1-7.5-2,.5-1.5-21.5,18-25.5,15.5-8-7.5-13.5,2-6-24.5,1-11-29.5-11.5-2.5-2-14-14.5-6-20.5-2-17.5,3-27.5-4-3-5.5,1-3,1.5-1,.5-9.5,4.5-5.5.5-1.5-.5-2,1-.5v-1h1l1-2-11-33-2-.5-.5-3.5"/>
      <path data-code="KYA-ERM" d="m260.66,2057.31l2-3.5.5,1,3-2,1,1,2-2.5h1l.5-3.5,2.5-3v-1.5l5-3,1,.5.5-2,2-1.5,1.5,1,1-.5,1,1.5,1-1,.5.5,3.5-1.5,2,.5,2,1.5,7.5-2,.5-1-1.5-2.5,1-1-.5-2.5,2-3.5,5-2v-2.5l-1.5-3v-2.5l2.5-1,6.5-7,.5-3v-2l-1.5-1.5v-2l-4-3v-1.5l-4-1v-4.5h1l.5-1.5-2.5-3.5.5-2-4.5-1v-4l-1-4,6-2.5-1.5-.5,2-4-.5-2.5-1-.5v-2l.5-2,2-.5-2.5-2h1v-2.5l1-1,2,.5-2,2h4l-3,1.5,1.5,2,6-1,2-1.5v-1.5l4.5,1,2.5,4.5,1.5,1,2.5-.5v1.5l2.5,3.5v1.5l3,.5,5-1,3,2,1.5-.5,1-2,5-.5v3l-2,4,2,3.5-3.5,3,5,7.5,1.5,4.5-.5,1,1,.5-1,3.5.5.5,8-.5v-2.5l3,1.5,5.5.5,4.5-3.5,2.5,2,3,1,4,3-1,2.5v2l-2,1,.5,4-4,2-2.5,2.5,1,1v1.5l-2.5,3.5-2.5,1.5v2l-1,2h-2l-.5,1.5.5,3.5-3.5,5v2.5l-1,2,1,2-3.5,1.5-.5,1.5h-4l-3.5,3h-2.5l-3,3-.5,3-4,1.5-1,3.5-1.5,2-3,1.5h-2l-2,2.5-1.5,3-4-1.5h-3l-2,3-2-.5-2.5,1.5-6.5-2-3.5.5-1-1-7,3.5-5.5-3-1.5-3.5h-2.5l-1.5-2-2.5,1.5-8-3.5-3,1-7-.5-1,1.5-1-1.5-2.5-.5-3.5-3.5"/>
      <path data-code="KYA-IDR" d="m294.66,1878.31l3-1.5-.5-2.5.5-3,1-1-2.5-.5.5-4-.5-.5,1-2-.5-2,.5-.5,1-3,1-.5,2.5,2,2-2.5,3,.5,3.5,4,2.5.5.5-3.5,1-1-1.5-2.5,2-1.5,1.5,1,1-3h.5v-1h1l.5-1,.5,1,2-.5-.5.5h1v1h2.5l8.5-1.5,3.5,1.5v1.5l2,1.5,5-2.5,3,2,1,2,1.5,1-1,2.5-3,3.5-1.5-2-1,.5-1,3.5,1,1-.5,2-3,1,1.5,2,8.5-1.5,2,1.5-.5,2,2.5,2.5-.5,2.5-3,2.5v2.5l-2,3.5-4,2.5-.5,2.5-1.5,2-2-1-4,.5.5,2-.5,1.5-2-.5v1.5l-5,3-.5-1.5h-.5l-4.5,3v1l-2,1-1.5-1.5-2.5,2.5-2-1-2.5,1-2-2h-4v-1l-6.5-2.5v-.5l1.5.5,1-1h1.5l-1-3.5,1.5-2-1.5-1-5,1v-1.5l1.5-1-2.5-2-1-4h-1.5v-6"/>
      <path data-code="igarka" d="m213.66,918.96l-.15-3,6.15.45.1,1.7-6.1.85"/>
      <path data-code="KYA-ILA" d="m442.16,1744.31l1-1.5-.5-1h1l.5.5h2v1.5l.5-1h6l.5,3h3.5l1.5-5.5h2v1.5l2,.5-2,1.5v2.5l7.5,1,.5,5.5-1.5,1.5-4.5-1.5-2,1.5.5,2,4.5-.5,1,2.5-1,4h-1.5l-.5,2.5h.5l1,2.5,3-1.5h3.5l-.5,2.5-8,1v-1.5l-1.5,3,5.5,5v2.5l-1,1,.5,1-1,1,1,.5v1h1.5l-.5,4h1.5v1.5l-3,1.5h8v-2.5l9-.5,1,2.5-1.5,1.5-.5,3-1,1,2.5,1.5.5,1.5-3,2,1,1-5.5,5.5-4-3.5v-2.5h-3l-5,2.5-1.5,3.5-2.5.5-6.5-5.5-3-.5-2-1.5v-3h-5l2-4,1.5.5.5-1v-2l-1-.5h1.5v-4.5l2-.5v-1.5l-3-1,1-2.5-1-1.5,1.5-3.5v-2.5l1-1.5-2-1-.5-3.5h-1l.5-2-2-2.5,1-1-2.5-2,2-1v-3h-2l-.5-1,1-.5-.5-.5,1.5-2-.5-.5,3.5-1.5-1.5-1.5-2.5-.5-.5-2h-1"/>
      <path data-code="KYA-IRB" d="m415.66,1798.81l3-1.5,2.5-2.5,2,1,1.5-1v-2l-2-1.5-1-3-1-.5,1.5-1-.5-4,5.5.5-.5-1,2-.5,1.5,1,.5-1.5,3,.5.5,1h-1l1,3.5,2.5-.5v1.5l1.5,1.5,3.5-1-.5,2-1.5.5,3,.5-.5,2.5,1.5-1,.5,1,.5-1,1,1-2,3h5v3l2,1.5,3,.5,6.5,5.5,2.5-.5,1.5-3.5,5-2.5h3v2.5l3.5,3.5,6-5.5,3,3.5.5,1-2,1v1l1,1.5-.5,1,1,2.5-.5,1,.5,2.5,1.5,2.5v1.5l2.5,4-2.5,2h-3.5l-.5,1.5h-2l.5,1h-2l-1,1,1.5,1v3.5l-1,1.5.5,3-1,1,1.5,1-3.5,4.5,2,4,2,1v2l1,1.5-1,.5.5,2-.5,2h-1v3l-1.5,1.5v2l-2,3,.5,1.5v3.5l-2,3.5.5.5v3l-2,1-7-3-4.5,2-4-3-1.5,1.5v2h-1l.5,1-1.5.5v2l-1,1,1,1-1.5,1-.5,2.5-2,.5-1-2h-2l-1-2-1-2,3-2,2,.5,2-1.5.5-2.5-.5-1.5h-2.5l-1-2.5v-2.5l-7-7-4.5-7-1-4-3.5-6.5.5-9-3.5-3.5,2-2.5-2-.5-.5-1.5,1.5-4-.5-2,.5-.5v1h1l.5-.5-2-2.5h-2.5l-1-4-.5,1.5-4.5-2-.5-2.5h-1v-2.5l-1.5-.5,1-4.5-.5-2-1-.5-1.5-5.5"/>
      <path data-code="KYA-KAN" d="m438.16,1758.31l1-.5,2.5,1v-1.5h.5l3.5,3-1,1,.5,1-2,3.5-3-.5-1-.5v-2.5l1.5-2.5-2.5-1.5"/>
      <path data-code="KYA-KNM" d="m398.66,1746.81l5.5-7v-7.5l2-1,4,1.5,3,2.5,2.5-.5.5,2h1l.5-1,1,1,2-2.5,4,.5,2.5-1,1.5,2,1.5-1,1.5,1,5.5-2.5.5,1,.5,2h-1l1,3,3,.5,1-1,3.5,2v.5l1.5,1-1,1.5v-1.5l-3.5-.5.5,1-1,1.5h1l.5,2,2.5.5,1.5,1.5-3.5,1.5.5.5-1.5,2,.5.5-1,.5.5,1h2v3l-1.5.5.5,1-2-1.5h-.5v1.5l-2.5-1-1,.5,2.5,1.5-1.5,2.5v2.5l4,1,2-3.5,1.5,1.5-.5,2h1l.5,3.5,2,.5-1,4.5-1.5,3.5,1,1.5-1,2.5,3,1v2h-2v4.5h-1.5l1.5,1-1,2.5-5,.5.5-2.5-3-.5,1.5-.5.5-2-3.5,1-1.5-1.5v-1.5l-2.5.5-1-3.5,1-1-2.5-.5,1.5-.5.5-1.5h-1.5l-1.5-4-3.5-1,.5-1.5-2-.5v-1.5l-1-1,.5-1-5.5-.5-2-3-4-.5-4.5,1,.5-3,1-.5-1.5-5,.5-2-2-3v-1l-9-4.5"/>
      <path data-code="KYA-KAR" d="m316.66,1949.31l2-.5v-2.5l1.5-2.5,3,1.5,2-1v-2.5l-.5-1-5-1,1-3-1.5-1,4-3h3.5v-2.5l2.5,1,5.5-.5.5.5,4.5-2,2-2.5h2l2,.5v1.5l2.5,2.5,8,1.5,1.5-.5-.5-1.5,1-2-.5-1,1.5-1,2.5.5-1,1.5.5,2,2.5.5-.5,1.5-1.5.5,1,1,3.5,2,2,2,3,.5,3,3,3.5,2-.5,3-2.5,2,1,2.5,3,3,4.5-.5,1-2.5,2-1,5,3.5,4.5-4,.5,1,2.5.5,1.5,6.5,6.5,2.5-5,3.5-.5,1.5v1l2.5.5.5,2,1,1.5-.5,1.5h-2l.5,2-2.5,1.5,1,3-1.5.5v2l.5,3-1,1.5.5,2-2.5,2.5-.5,1.5.5,2-1,1-4-1.5-1.5,1.5-2-.5-6.5,5.5-8.5-5.5-4.5,3.5-5.5-.5-3-1.5v2.5l-7,1-1.5-1,1-3.5-1-.5.5-1-1.5-4.5-5-7.5,3.5-3-2-3.5,2-4v-2.5h-5l-1,2-1.5.5-3-2-5,1-3-.5v-1.5l-2.5-3.5v-1.5l-2.5.5-2-2-2-3.5-2-.5-.5-5.5-3-.5-.5-1.5"/>
      <path data-code="KYA-KAZ" d="m328.16,1683.31l.5-.5-.5-.5,1.5-1.5-1-1,1-8-.5-1.5,3-1.5,1-5-.5-3-2-3,6.5-2.5-.5-1.5.5-1-1.5-2v-1l-1-1v-1.5h-1l.5-1.5h3v-1.5l5,.5.5,1,3.5-.5,5.5,2,3-2-2.5-6,1-3,.5,2,2,1,2.5-1,19,1.5,3.5,3h3l1,3,3.5,1-7,15-9.5,16,.5,3,4-1,1.5,1.5.5,3-2,.5-9,7-2.5,1-4-1-1-2,1-4.5-.5-1-2,1-.5-3-2.5.5.5.5-1.5,1,.5,1.5-1,1-1.5-2.5-2,2.5h-6l-.5,1.5h-3.5l-.5-1,.5-2.5-.5-1.5,1-1.5-4,1.5h-8.5"/>
      <path data-code="KYA-KED" d="m316.16,1758.31l.5-.5v-2h2.5v1.5h1l-.5,1.5-1,1-2.5-1.5"/>
      <path data-code="KYA-KEZ" d="m532.16,1574.31l4-9.5,6.5,1,2.5,2.5v-1.5l1,1,1-1.5,2.5-.5-.5-.5.5-1,1,1.5,1.5-1.5h4l-.5-2.5,3-2v-1.5h1.5l.5-1.5h.5l-.5-1h1l1.5-3.5,2.5-1-.5-3,2-.5v2.5l2.5.5h5.5l.5,1.5h1.5v1l4,3.5,2-1.5v1l7-4.5-.5-1.5,1-4-1-7,.5-5.5-1.5-4.5-2.5-3.5,1-3-1.5.5-2.5-2.5-.5-1,.5-2h-2l.5-2h1.5l-1-1,.5-.5-2-1-1,.5-.5-1-3,.5-4-3h1l.5-1-.5-.5,1.5-1.5v-2l3.5-3v-1l2-2.5-.5-2,1.5-1.5h1.5l2-2.5,2-.5,1,2-1,4h1.5l2.5,2.5,4.5,1,4-2,2,2,2,3,2.5-1,1,1.5,3.5,1,3.5-1.5,3,.5,3,4,1.5-1,3.5,1.5,2-1,7.5,1.5.5-.5-.5-2,.5-.5,8.5-1.5,2.5,2-.5,1.5,10,3.5,1.5,2.5,4.5-.5,4-4.5h2.5l2.5,1.5-2,1,.5,2,1,2-1,2.5,3,2v1l4,1v1.5l-2.5,2-2,.5-.5,1,.5,4,1.5,2.5-.5,1.5.5,1-.5.5,1,.5-2.5,1-.5,1.5,1.5,1,.5,1.5-1,2-1.5.5.5.5-.5.5,1,1-1,2.5,2,2-.5,2,2,1-2,1,.5,1v2.5l1.5.5,1,2h1.5l-.5,1.5,1,1-.5,1.5.5.5-.5,1,1.5,2.5-1,1.5,1,2-1.5,2-2,1.5-.5,1.5-1.5-.5-.5,1.5-1.5,1-1.5,3,.5.5-1,.5,1,.5-.5,1v.5h-1v1l-1.5,2-3.5,2.5-2.5.5-.5,1-7.5,2-3,3-.5,3.5.5.5-1,.5.5.5-1,.5-3.5,7-1,1h-4.5l-3,3-.5,2-1,2-4,2.5,1,3,1.5,1.5-.5,2,.5.5-1,1.5.5.5v.5l-3.5,3,.5,1-1,.5.5.5-1,2-2.5,1-4-.5,1.5,1.5v2h.5l-.5,1,1,1-.5.5,1.5,1-1.5,4.5v.5l-.5.5.5,1-1,1,1,1-1,1,2.5,3.5,2.5.5-.5,1,1,.5h-.5l.5.5-.5,1,.5.5-.5.5.5,1-.5.5,1,1-1.5,3-2.5-1.5-3,5-1.5-1-1.5-3.5-6-2-1-1.5-3-2,.5-2.5-3-3.5,1-2-2-1,1.5-4.5-3-1.5v-2l.5-1-6.5-3,.5-1-.5-.5-.5-3-1.5-1.5-.5-1,.5-.5-1-.5,1-1-1-1,1-2.5-.5-1,.5-1-1-.5-4.5-.5-5,2-1.5-1.5-3.5,1-.5,1,.5,2-.5,1.5v1h-1l-1.5,4h-1.5l1,2-2,.5.5,1.5-.5,1.5.5,1.5-1.5,1,.5,1-1,1.5-1,.5-2-1-2.5,1.5v-2.5h-7.5l-.5-8h-.5l-.5-2.5h-1v-2h-2.5v-2.5h-5v-5h-3.5l-1-7.5,2-.5-.5-2h1v2.5l3-1,.5.5.5-1h.5l1,1h4v2.5h-1v2.5l2.5.5v5l5,3.5v1h.5l.5,3h2v1.5l3-1,1-2h2.5l3.5-3.5v-4l-2.5-3.5,2-2-.5-1,1-1h-1.5l-4.5-5-5,2-1-2v-2.5l-3-1-1.5-3.5-2-1.5v-2l2-1.5,1.5-4.5-1.5-2.5-2.5-2,1.5-5.5-3.5-3-1,2.5-7.5,2-3,3.5.5,3.5-1-1.5.5-2.5-.5-.5,1.5-3.5,2.5-2-1.5-.5-1-1.5.5-.5-.5-.5.5-1-2-2.5v-1l-5.5-3h-4.5l-1-1.5"/>
      <path data-code="KYA-KOZ" d="m267.16,1751.81l4.5-.5,1-2,2-.5,1,1,.5-1.5v-3h-.5l-.5-3.5,5-1,.5-3.5,1.5-5,2-1.5-1-1.5-1.5.5.5-1.5-.5-1v-2.5l-.5-1.5.5-1.5-.5-1,6-3.5v-3l2-1v-1h2l1,2.5-.5,3,2,3-1,3v1l8.5-2.5h4.5l-.5,1h.5l-.5,1,1,2-1,1,.5,1-2,1v1.5l-1.5,1.5v1.5l-.5.5.5,1h-1l.5,1-1,1v1l-2,2.5.5,2-1,1,.5,1-1,.5v.5l-1,.5v2l-2.5,2.5.5,6.5,2-.5v5l-1.5,1v1l10,1-1,2-.5,5.5-2.5,2,2.5,3.5-1,2.5h-2l-3.5-4.5h-1l-1.5,2,1.5,4-2,.5v2.5l5,4.5,3,7-4-1-3,1.5-3-5-4-1.5-9.5,3.5-1,1.5v1.5h2.5l1,4-.5.5-1-.5-.5-1-.5,1-2.5-1-2.5,1-3-1,1-2-1.5-1.5,1.5-1-1-3.5-2-.5,2-.5,1-2.5-.5-1,1-1v-2.5l-1-1.5,1-.5-.5-.5.5-1.5-1-1,1-.5-1-1,1.5-.5-2-1.5v-1l-1-1.5,1-3-2-1-1-2,2.5-3-1,.5.5-5.5h-.5v-2l-1.5-.5,2-2-2-1-.5-1.5"/>
      <path data-code="KYA-KYA" d="m329.66,1777.81l1-1v-4l4.5-2.5,1,2,1,.5,1.5-1v-2l1-.5-.5-1,.5-1h2l-1,1,1.5,1-.5.5,1-1,.5-.5-1-2,1,.5.5,1,4-.5v1.5l1.5-.5-.5-.5,1,1h-2l1,1.5-1-1.5-1,.5v1.5h-2.5l2,1.5-.5,1.5,1-.5-.5,1h1l-1.5.5-.5,2.5h-1.5l-1,2h-3.5l-.5,2.5-2.5-3h-5v-1.5l-1.5.5"/>
      <path data-code="KYA-KRT" d="m264.66,1868.81l3.5-3,2.5,2,7-1,4.5,1,5-6-.5-1,4.5-.5,1-1-3.5-2.5-.5-2v-2.5h3.5l3.5,1.5,3,4-1,3-.5.5.5,2-1,2,.5.5-.5,4,2.5.5-1,1-.5,3,.5,2.5-3,1.5v6h1.5l1,4,2.5,2-1.5,1v1.5l5-1,1.5,1-1.5,2,1,3.5h-1.5l-1,1-1.5-.5v.5l6.5,2.5v1l5,.5-1.5,2,.5,2-.5,1.5-2.5,1,.5,3.5,1,.5-1.5,2.5-2.5-1.5-2,.5-1.5-1v-2l-5-.5-.5,1.5-4-1.5-1,1,1,1.5v3h-3.5l-2.5,1.5-2-.5v-2l1.5-3,.5-4.5-3.5-6.5-2-7.5-4-4v-1.5l-2-5,1-3-.5-3-10.5-9.5"/>
      <path data-code="KYA-KUR" d="m305.66,1921.31l3.5-7.5-1-.5-.5-3.5,2.5-1,.5-1.5-.5-2,1.5-2,1,1.5,2.5-1,2,1,2.5-2.5,1.5,1.5,2-1v-1l4.5-3h.5l.5,1.5,5-3v-1.5l2,.5.5-1.5-.5-2,4-.5,2,1,1.5-2,.5-2.5,4-2.5,2-3.5v-2.5l3.5-2.5-.5-1,.5-1.5-2.5-2.5.5-2-2-1.5h-2.5l-6,1.5-1.5-2,3-1,.5-2-1-1,1-3.5,1-.5.5,1,1,.5,2.5-2,1.5-3.5,2.5-.5.5-2,1.5,1.5v1.5l5,2,.5,2v1.5l1,.5,3.5,5.5h2l.5,2-1.5,1,3.5,3,1-1.5,2.5,1,1.5-2.5,4,2.5,1.5-2,4,2.5,3.5.5,2.5,3.5h1.5l1.5,3.5v1l1,.5.5-1.5,2.5-.5,2.5-3.5,3,1.5.5,1.5h4l-.5,2,1,2.5,3.5,3,2,.5.5,1.5,2,2-.5,1,.5,1h3l1,1.5,1.5-1.5,3,.5,1.5-2h3l3.5,1.5,4,4.5,2-2,1.5,3,3-2,1,2,2.5,1.5,2.5-1,1.5,2.5v1l1.5,1,1,3.5,3,2h3l1,1.5-.5,1.5-1,1,1,1-1,1,2.5,1,2,4.5v1l6.5,4.5,1.5,3,.5,2.5,3,1,1,4,3.5,2,1-1.5,1.5,2.5h1.5l.5,1.5-1,1.5.5.5-1,2h-1.5l-2.5,1.5-1.5-.5-2.5,3-.5-2-3.5-2,1-2-4,.5.5-1.5-1.5-.5-1,3.5,1,1-.5,2.5-4.5.5v4.5l-3-.5-3-2.5h-6l-2.5-2-3,2.5v2l-5,1.5-1.5,1.5v1.5h-2.5v1.5l-.5.5-4-1.5-1-1.5,1-1v-1.5l-3.5-1.5-4,4.5-2,.5-1,2-1-.5-.5-2h-1.5l-.5,1-.5-1-7,1.5-6.5-2.5-1.5-6.5-2.5-.5-.5-1-4.5,4-5-3.5-2,1-1,2.5-4.5.5-3-3-1-2.5,2.5-2,.5-3-3.5-2-3-3-3-1-2-1.5-4-2-.5-1,1.5-.5.5-1.5-2.5-.5-.5-2,1-1.5-3.5-.5-1,4,.5,1.5-1.5.5-8-1.5-2.5-2.5v-1.5l-2-.5h-2l-2,2.5-4.5,2-.5-.5-5.5.5-2.5-1v2.5h-3.5l-1.5,1-2-4-.5-2-1.5-1.5-.5-1.5h-.5l-2-2.5-3-.5-4,2-.5-.5v-1.5l-1.5-.5"/>
      <path data-code="KYA-LES" d="m344.66,1631.81l.5-1,1.5-1v-1l2,2,.5,1-3.5-1.5-1,1.5m-23.5-13l1.5-2.5-1-.5,1-1-.5-1h2l1-1.5,1-.5.5.5-.5,1.5v2l3,2.5,1.5,4.5,3,2-2,1.5,2,1.5-1,1h-6v-2.5h-1l1-2.5-1.5-1-.5-1.5h-3l-.5-1,.5-1-.5-.5m26,9.5l1-.5v.5l-.5.5-.5-.5"/>
      <path data-code="KYA-MAN" d="m345.16,1829.81l2.5-5v-1l1-5.5,1-1-.5-2.5-.5.5-.5-1.5h1.5l-.5-1,.5-1-1,.5-1-1,4.5-1.5,1-1.5,4.5-2.5v-1l-.5-1.5,1-2.5-1-3v-.5h-1.5v-.5l-1,1-2-3,3-4.5h1.5l-.5-1v-.5l1.5-1.5-2.5-2.5v-2l1.5-1,.5,1.5,4.5-3-1.5-1.5h1l1.5-2.5,1.5-1-.5-2.5,1-1.5-.5-1.5,13.5,2.5-.5.5,1,1,1,2-3.5,1.5,1,3.5-.5,1-2,.5v3l-1,1.5h-2l-.5,1.5h.5v3l3.5-.5-.5,2.5,3.5.5-1,5.5,1,1.5,2,.5,2,4-2.5-.5v6.5h-1.5l-.5,1.5,1.5.5-.5,4.5h-1l-1,3.5,2.5,2,1.5,4h1.5l1,1.5h2l-1,1,.5,1.5-2.5,3,1,.5-2,2,1,2-3.5.5v1l2.5,1-1,1,1,1.5-2,.5,1.5,2-5.5,4.5-3.5-.5-.5,2-2,1-.5,3v4h-3v-2.5l-1.5.5-.5,2.5,1,2.5-3.5,2-1-2-1-.5v-1.5l-.5-2-5-2-.5-2-3.5-2.5,1-3-1-1.5.5-2-1.5-1-1-1.5.5-1.5-1.5-2.5,1-1.5v-1.5l-1-1,.5-4.5-2-1.5"/>
      <path data-code="KYA-MIN" d="m286.66,1933.31l2.5-2.5v1.5l2,1v1.5h.5l-.5.5,1.5,1-3.5,1.5v-1l-1.5-.5,1-1-1.5-.5-.5-1.5m-1,7.5l.5-.5.5.5.5-.5,1,.5-2,1.5-.5-1.5"/>
      <path data-code="KYA-MNM" d="m285.66,1940.81l.5,1.5,2-1.5-2-.5-.5.5m1-7.5l.5,1.5,1.5.5-1,1,1.5.5v1l3.5-1.5-1.5-1,.5-.5h-.5v-1.5l-2-1v-1.5l-2.5,2.5m-7-9.5l2.5-5.5,2-2v2l1,.5,3.5-1.5h3.5v-3l-1-1.5,1-1,4,1.5.5-1.5,5,.5v2l1.5,1,2-.5,2.5,1.5-2,5,1.5.5v2l5.5-2,2,.5,2,2.5h.5l.5,1.5,1.5,1.5.5,2,2,4-2.5,2,1.5,1-1,3h4l1.5,2v2.5l-2,1-3-1.5-1.5,2.5v2.5l-3.5.5v-1l-6,2-2,1.5-1.5.5-1-4.5-4,1.5.5.5-.5,1-2.5-.5-4,2-7.5-5v-3l-2-1.5-.5-2.5-.5-1,1.5-1.5-.5-2.5-3-3-2-8.5"/>
      <path data-code="KYA-MOT" d="m350.16,1600.81l1.5-1.5h1.5l1.5-2-.5-.5,1-1,1.5-4.5,1.5-1v-1.5l1.5-5.5h2l.5,1.5,1.5.5h1l1.5-2,2,1,5.5-3.5.5-1.5.5-3,3,.5,4.5-2.5.5-.5-.5-4,3-1.5,1.5-5,2-2,1.5-8,1.5.5v-1.5l1-1-1-1v-2l-3-3.5v-.5l-.5-1,1-1,1.5.5,1-.5,1,.5,1-.5-.5-.5.5-.5,2.5.5-1,1.5.5.5h3l-.5,1,5.5,1.5,1,1.5.5-1h1.5l.5-4.5,1-1.5h.5v-1.5l1-1.5-.5-1,6-3.5v-1l1-2h1.5l1.5-2,2.5-.5-.5-1.5,3-3-1-1,2.5-2,7.5,1,3,2,.5,2,4,2-1.5,3,1,.5-.5,1,.5.5-1,1,.5.5-.5,1.5h.5l-.5.5v1l-1-.5.5,1h-1l.5,1.5-1,.5-.5,1.5-2,.5,1,2-1,.5.5-.5-.5-.5-2,1.5v1l-.5,1.5-1-.5v1l-1.5,1,1,1.5-1.5,2.5-3,.5-1.5-2v2.5l.5.5-2-1-1.5,2.5,2.5,2.5-.5,1,1.5,2.5-1,1,3,2-1,1,4,.5,1.5,1.5-1.5,3,1,.5-.5,1.5v3l-1-.5,1,1v1l-1.5,1v1.5l2,.5-.5,2,1.5,1.5,1.5-2.5,3,1.5-6,11.5,1,3-.5,1.5,1.5,1.5,2,4-1,23-1,1,.5,1.5-1,.5.5,1-1.5,1.5,1,3-3.5,1.5v1l-1.5,1,.5,1-.5,1,.5,1-1,.5v2.5l1,1-.5,3.5-3,5-4.5-1.5-9,2.5-1.5-2.5-2-1.5h-2.5l-.5,1-1.5.5-2.5-1.5-3,1-3-1.5v.5l-4-3-1-1.5-4.5-1-1-3h-3l-3.5-3-23.5-1.5v-3h1l1.5-2-1.5-.5v-1.5l-3-3v-1l1-2,6-2.5-1-1.5-3-12.5-4.5-8"/>
      <path data-code="KYA-NAZ" d="m243.66,1768.66l.5-1,3.5.5,1.5-1.5.5.5-1,.5,1,2h1v1.5l2,1.5-2,1,.5,1.5,1-.5.5.5-3,1,.5-2.5-2-1-1.5,1,.5-2.5h-2l-1.5-2.5"/>
      <path data-code="KYA-NZM" d="m243.66,1768.66l1.5,2.5h2l-.5,2.5,1.5-1,2,1-.5,2.5,3-1h-1.5l-.5-1.5,2-1-2-1.5v-1.5h-1l-1-2,1-.5-2,1-3.5-.5-.5,1m-24.5,3.5l1-.5-.5-1.5v-1l1,1,1-.5v-1l.5,1,1.5-3,1.5-1,3,1.5v-1h3.5l3-2,5.5,2,.5,1.5.5-1,1.5,1,2.5-.5,2,.5.5.5.5-1h1l.5-1.5,1,.5,1-1.5,2,.5v2l1.5.5.5,1.5-.5,1.5,1-.5v1l.5,1h.5v-1h2l2,.5,2.5-1,.5,1v-1l.5,1,1-1,1,.5-.5,1.5,1.5-.5v1.5l1-1.5,1,.5,1.5,2v1l2,1-1.5.5,1,1.5-1,.5.5,1v1l.5,1h-1l1,1.5-.5,3-1,1,1,.5-1,3-2,.5h2l.5,1,.5,3-2,1,1.5,1.5-1,2,1,.5-5,1.5v2l-2.5.5.5,2-4-1-1,2-3,1-1-.5-.5-2.5.5-3,.5-.5-5-4-4,1-2,4-2.5-1,.5-.5-.5-1.5-3.5-4-3.5.5h-3.5l-1-2-6.5.5v3l-4,1-1.5-3,3.5-3-2.5-2.5h2.5-1.5l-.5-2,6.5.5-.5-1,1-.5-.5-1-1.5-.5,1-3-1.5-.5.5-1h-3.5l-1-2,1-3.5-2.5.5-.5-4.5"/>
      <path data-code="KYA-NNG" d="m460.66,1746.16v-2.5l3-2.5v-1.5l5,.5,6-2.5,1.5,1.5,3-2-.5-1h2l.5-1,1.5.5,2.5,2v-1.5l4-.5,1.5-3v-1l3,1,6.5-1.5,3-2.5.5-2.5.5-1v-.5l.5-1-1-1,1-1v-1.5l-1-1h3.5l1,1.5,4.5-1.5h4.5l.5,2-2,2.5,1,1-.5,3.5,1,.5-1.5,1.5,1.5,3.5-1.5,3.5,5,.5.5,11-11.5.5,1,13h-4l-2,2,1,1.5v2.5l-.5.5-2,5-2-.5-.5-2.5-6-2.5-2.5,7.5h-2.5v11l-2.5-1-1,2.5-1.5-.5-.5.5-1-1-2-.5-2.5.5v1l-4.5-.5v2l-3.5.5h-4.5l3-2v-1h-1.5l.5-4h-1.5v-1l-1-1,.5-.5v-1.5l1-.5v-3l-6-5,2-2.5v1.5h2.5l4.5-2,1,.5v-.5l.5-1.5-.5-.5-6,2-1-3h-.5l.5-2h1.5l1-4.5-1-2-3.5.5-1.5-1.5.5-1.5,1.5-.5,3.5,1.5,2.5-2-1-5-7-1.5"/>
      <path data-code="KYA-NOR" d="m212.66,835.16l2-7,17-2,9-9.5,7,2.5-3.5,15-8,7.5-23.5-6.5"/>
      <path data-code="KYA-NVS" d="m247.66,1837.66l3-2h2l1.5-1.5,2.5-1-.5-5,2-.5-.5-4,1.5-.5.5,4h3v2l2.5-.5.5,2-.5,2,.5,2.5.5-1,2,.5,1-1v-1.5l3-1-.5-1,2-.5,1-2,5-.5,1-1.5.5-2.5,1.5.5,1,3,5,1.5,1.5,3.5v3.5l9.5,1v2l-1,1-1,2.5h-1.5l-1,1.5,1.5,5,1,.5-1,2,2,.5,3-1,1.5,2.5,2,1.5.5,3h-2.5l-1.5,2.5-2-2.5-1,1-3-4.5-6-1.5-1,.5-.5,2.5,1,1.5,3.5,3-1,1h-4.5l.5,1.5-5,6-4.5-1-7,.5-2.5-2-3.5,3.5,1.5,1.5-3.5-3v-4.5l1.5-4v-5l-6-2v-2.5h-10l1-8.5-1-2.5-1-1"/>
      <path data-code="KYA-PAR" d="m361.66,1865.51l3.5-2-1-3,.5-2,1.5-.5v2h2.5v-4l1-3,2-1,.5-1.5h3.5l5-4.5-1-1.5,2-1-1-1.5,1-1-3-.5.5-1.5,3.5-.5-1-1.5,1.5-2.5-.5-.5,2.5-2.5-.5-2,1-1-2,.5-1-1.5-1.5-.5-1.5-4-2.5-1.5,1-3.5h1l.5-5h-1.5v-1.5h2v-7l3,1h5l1-1,.5,1,12.5-.5,3.5,2.5-1,2.5-1.5.5,1.5,3.5-.5,1-.5,2.5,1,2.5h-.5l.5,2.5-1,2,.5.5-1.5,1-2,3h-1v5.5l-3,1.5-.5-2-1-1,.5-1.5-8.5-2.5,1,3.5h1l1,1.5-1.5,2.5h-1l-1,1.5,1,2.5-2.5,2.5.5,2,5,.5,1.5-2,1,.5.5.5-1,3v2l2,1.5v3l6.5,2.5,2,2,2-.5,1,3-2,4.5,6,8h2l-1,3.5,1,2-.5.5v3.5l-5,3-1-3,.5-1.5h-4l-.5-1.5-3-1.5-3,3.5h-1.5l-1,1.5h-1l-1.5-4.5h-1.5l-2.5-3.5-4-.5-3.5-3-1.5,2.5-4.5-2.5-1,2.5-2.5-1-1.5,1.5-3-3,1.5-1-.5-2-2-.5-2.5-3"/>
      <path data-code="KYA-PIR" d="m280.66,1679.66l1.5-2,.5-2.5,2.5-1.5,1-2,2-2-1-3.5.5-3.5-2,1-1.5-2.5.5-2-2-1v-2l-.5-.5h.5l-.5-2,.5-.5-.5-.5,1-1v-3l.5-1-.5-1.5,2-1v-1.5h-1v-.5l1.5-1v-.5l3,1.5,1.5,2.5,1-1v1l1-.5.5,1.5,1.5-.5v1l1.5.5,1.5-1v-2l12-.5,3.5-4.5,2-.5,1.5-2,.5,2h1v-1l1.5-1.5,5.5-3,5.5,3h2v3.5l-1.5.5,2,3.5-.5,1h1l1,2.5h1v1.5l1,.5v1.5l1.5,2-.5,2.5-4,1-2,1,2,3.5.5,3-1,5-3,1v2l-.5,7.5,1,1-1.5,1.5v1l-3.5.5-8,4-7.5,11.5-6,3.5-11.5-8.5,2.5-2.5,5-12.5-4.5-.5-1.5,4-6.5-2.5-6.5-.5"/>
      <path data-code="KYA-RYB" d="m410.66,1784.16h1.5l-1,.5.5,1.5.5-1.5,2.5,1.5-1-1.5,1,.5.5,1v-.5l-.5-1,1-1.5-3-1.5-1,1-1-.5v2m-15-15l1,.5-.5,1.5,2-.5,4,3.5,2.5-.5.5-1-1-1,.5-.5,2.5.5v-2l-1-.5-1-1.5-1.5-.5-.5,1h-1l.5-2.5-1,2.5-5.5-3.5-.5,4.5m-11.5-5.5v-1l3.5-1,3.5-3,4-9,4-2.5,9,4.5v1l1.5,3v2l1,5h-.5l-.5,3.5,4.5-1,4,.5,2,3,5.5.5-.5,1,1,1v1.5l1.5.5v1l3.5,1,1,4,1.5.5-1.5,2.5-1.5-.5v1.5l-1.5-1.5-2,1,.5,1-5.5-.5.5,3.5-1.5,1.5,1,.5,1,2.5,2,1.5v2l-1.5,1.5-2-1.5-2.5,3-3,1.5,1.5,5.5-2.5,2-.5,2-5-1-2,2-3,.5,1-2.5-3.5-1.5v-2.5l1-3-.5-2.5,3,.5v-5l-3-2-.5,1h-3l.5-3-.5-1.5,3-.5-.5-1v-3.5l-1.5-.5-2.5,1.5-2.5-.5.5-4-5-6,.5-5.5-6,.5-.5-1.5-.5-3.5"/>
      <path data-code="KYA-SAY" d="m385.16,1843.16l2.5-2.5-1-2.5,1-1.5h1l1.5-2.5-1-1.5h-1l-1-3.5,8.5,2.5-.5,1.5,1,1,.5,2,3-1.5v-5.5h1l2-3,1.5-1-.5-.5,1-2-.5-2.5h.5l-1-2.5.5-2.5.5-1-1-2-.5-1.5,4.5-1,2-2,5,1,.5-2,3-2,1,2.5-1,4.5h1.5v2.5h1v3l5,2,.5-2,1,4,2.5.5,1.5,2.5h-2l1,2-1.5,4,.5,1.5h2l-2,2.5,3.5,4-.5,8.5,3.5,6.5,1,4.5,4.5,6.5,7,7v3l1,2,2.5.5.5,1.5-1,2.5-1.5,1h-2l-3,2,.5,1.5,1.5,2-3,1-1,1.5.5,1.5-1.5,2v2.5l-.5.5,1,2-3,2.5-2-3h-1.5l-1,1.5-3.5-4-3.5-1.5h-3l-1.5,2-3-.5-1.5,1.5-1-1.5-3.5-.5v-.5l.5-1.5-2-1.5-.5-1.5-2-.5-2.5-3,2.5-3h1.5v-3.5l.5-.5-1-2,1-3v-1l-2,.5-6-8,2-4.5-1-3-2,.5-2-2-6.5-2.5v-3l-2-1.5v-2l1-3-.5-.5-1-.5-1.5,2-5-.5-.5-2"/>
      <path data-code="KYA-SEN" d="m288.16,1494.66l2-4-.5-1,2.5-3.5v-2l2.5-1.5,2-3.5-.5-1.5,2-2.5-.5-2,2-4.5-.5-.5.5-1-.5-2.5h1l.5-1.5,2,1,1.5-1.5v-2l-1-.5,2-.5,1.5-4,2.5-2-1-3.5,3.5-2,1-3,1.5-1v-.5l.5-1,1.5-.5,4-4.5,2.5-1.5v-4l1.5-2-.5-1,2-1.5-.5-1.5.5-.5,6,1,2-2-1-1v-.5l.5-.5-.5-.5v-1.5l-1-4,1-1-1-1.5,1.5-2.5,1-1,2.5.5,2.5,3.5,2,1,2.5,3,4.5,1.5-1-2,1.5-.5-.5-1,1-.5-1.5-1v-2l-.5-1.5-3-2,1.5-1-6-4.5v-1.5h2.5l4-3,3.5,2,2.5-2,5,3-.5,1.5.5,1.5-.5,1v1.5l5.5,7.5.5,2.5,4,1.5,3.5-1.5,5,4.5,6.5-1.5,1.5,2v2l1.5,3,.5-1,2-1.5-.5-1.5,1.5-1v-2l3-1.5,1-2.5h4.5l5.5-4,3,2,2.5-.5.5,1h1.5l1,1.5,2-.5,1.5,2,6,.5.5.5v1l1,.5,3,5,3,2.5-1,1,.5,1,1.5.5,1,4v2.5l1,1-3,5h2l2,1.5,1,2v.5l-1.5,1-1.5,2.5-2,2-.5,2.5-2.5,1,.5,1.5-1,3,2,1.5.5,2-1,2.5-4-.5-3,2-1,2v1.5l-1.5,1,.5,1-1,1-1,4.5,1,2,2,.5-1.5,2.5.5,2.5-.5,1,3,3,.5,2-2.5,2.5.5,1.5v1.5l1,1.5.5,3.5,2,2v2.5l1.5,1.5v1.5l-1,.5v1.5l1,1.5-.5,1v.5l2,1-.5,1,.5,1v1l1,.5v1l-2,1h1.5l-1,1.5.5.5-2.5,2,.5,1-3,1-1,2h-1.5l-1,2v1l-6,3,.5,1.5-1,1.5v1.5h-1l-.5,1-.5,4.5h-1.5l-.5,1.5-1-1.5-5.5-1.5.5-1h-3l-.5-.5.5-1.5-2.5-.5.5,1-1,.5-1-1-1,1-1.5-.5-1,1,.5.5v.5l3,3.5v2.5l1,1-1.5,1,.5,1.5-1.5-.5-1.5,8-2,2-1.5,5-3,1.5.5,4-.5.5-4.5,2.5-3.5-.5v3l-1,1.5-5.5,3-2-1-1,2h-1l-1.5-.5-.5-1.5h-2l-1.5,5.5v2l-2,1-1,4-1,1,.5,1-1.5,2-1.5-.5-2,3.5h-1l-1.5-4.5-1.5-1-.5-5.5-1.5-6-1.5,1-.5,1.5-2,.5-3-2-1.5,1.5-3.5.5-5.5-.5-2-1-4.5-18.5-.5-4.5-.5-8.5-1.5-6-1.5-2-8-8-5.5-3.5-7.5-13.5-4-9,.5-.5,1-3.5-1.5-3,1-2-.5-.5,1-4.5-2.5-4-2-1"/>
      <path data-code="KYA-SHA" d="m197.16,1796.66l1.5-1.5,1.5.5-1,1.5-2-.5m3,5.5h.5v-1.5h1l2,2-1,1.5-2.5-2m-10,8.5l1-.5,1,.5-.5,2h-1l.5-1-1-1"/>
      <path data-code="KYA-SHM" d="m190.16,1810.66l1,1-.5,1h1l.5-2h-2m10-8.5l2.5,2,1-1.5-2-2h-1v1.5h-.5m-3-5.5l2,.5,1-1.5-1.5-.5-1.5,1.5m-17,12l.5-2,2-1.5-.5-1.5,1-1,5.5-5,1.5-2,1.5-.5,1-2,3-1,1,.5,1-1.5,3,.5,2-3h2l1.5-1.5,3-.5-.5-.5v-2.5l.5-1.5,2-.5-.5-1,1-1h-1l-.5-1.5-.5,1-.5-1.5h-2v-1.5l-.5-1,.5-.5,5.5-1,2-2h1.5l3-2.5-.5,1,1.5,1.5-1,.5.5,4.5,2.5-.5-1,3.5,1,2h3.5l-.5,1,1.5.5-1,3,1.5.5.5,1-1,.5.5,1-6.5-.5.5,2h1.5-2.5l.5,1h1l.5,2-2.5,1.5-.5,2-2.5,1,2.5,6.5v-.5l-.5.5-.5,3.5-2,2-3-.5h-1.5l-.5,1.5-3.5,1,1,1,.5,3,.5.5,2.5-4.5h2v3l1.5.5v2l-.5,3,.5,4.5h-4v1l2,4.5h1l-.5,2,.5,2-1.5,1.5h-4v3l.5.5-2.5-.5-.5-1.5-3.5-.5v-3.5l-1-1.5-6.5-1,2.5-4-4-4,.5-6-1.5-.5v-1h-2.5l-1-2,.5-1.5-3-1.5-2,1v-3h-5m.5,8h.5l.5,1h-.5l-.5-1m-1.5-5.5v-.5l.5,1h-.5v-.5"/>
      <path data-code="KYA-SHU" d="m238.66,2039.16l3-4.5.5-2.5,3-2,2-3,1-2.5-.5-2,1-2,7-9,9-2h3l1.5,1.5v-1.5h1.5v-5l2.5-1.5-.5-3,2.5-3.5,2-1.5.5-2.5,2-.5-.5-2.5,1.5-4.5-2-3-1-3.5,1.5-3.5,1.5-1.5,4,1.5,5.5-2.5,4.5-8.5,3.5-3.5-1-2,.5-1-.5-2.5h-1v-2l-1.5-.5v-.5l1.7-.95,2.3-1.05,2.5.5.5-.5-.5-1,3.5-1.5,1.5,5,3-2.35,6-2,.5.85,1.5-.5v2.5h3.5l.5,6-2.5-.5v1.5l-2,1.5-6,1-1.5-2,3-1.5-4-.5,2-1.5-2-.5-1,1-.5,2.5-1,.5h2v1h.5l.5.5-2,.5-.5,2v2l1,.5.5,2-2,4,1,.5-5.5,3,1,4v4l4.5,1-.5,1.5,2.5,3.5-.5,2-1,.5v4l3.5,1,.5,1,2.5,1.5,1.5,2v2l1.5,1.5v2l-2.5,5.5-2.5,1.5-2,2.5-2.5,1v3l1.5,2.5v2.5l-5.5,2.5-1.5,3.5.5,2.5-1,1,1.5,2.5-.5.5-7.5,2.5-2-2h-2l-3.5,1.5-1-.5-.5,1-1.5-1.5-1,.5-1.5-1-2,1.5v1.5h-1.5l-4.5,2.5v1.5l-2.5,3.5-.5,3.5h-1l-1,2-1.5.5-1-1-2.5,2-.5-1-2.5,3.5-6,1-2.5,2-1-5-2.5-3,.5-2-.5-2-1.5-1.5-3-.5-3-2.5-2.5-5"/>
      <path data-code="KYA-SOS" d="m355.16,1768.16l1.5-2.5,2,1.5-2,2-1.5-1"/>
      <path data-code="KYA-SUK" d="m332.16,1734.66l.5-1,1.5-1,1-3.5,1,1,4-.5-.5,1,1.5.5v-1.5h1l.5-1.5,1-2,4.5.5,2,2.5h9l1-.5-.5-4.5-2-3,3-2h4.5l6-3.5,2.5,1,9-4,5-1,3,1,.5,4.5,2,2.5,2-.5,4,4,.5,3h1.5l-.5,6h4l-.5,8-5,7-4,2.5-4,9-3.5,3-3,1-1.5-1.5v-5l-3-2.5v-2l-3.5.5-.5,2.5-3.5.5-2-2v-1l3.5-.5-.5-1.5.5-.5h-2l.5-1-9.5,1.5-1.5-1-3.5,1.5-1,1.5-.5,2-9.5,1.5v-4l-2-.5-1-2h-2l-1-1.5h-2l-.5-4,1.5-3.5-2-2-1,.5-4-2-1-2"/>
      <path data-code="KYA-TAJ" d="m212.66,835.16l2-7,17-2,9-9.5,7,2.5-3.5,15-8,7.5-23.5-6.5M473.66,313.66l2,.5,1.5-1v1.5l-.5,1,1,1-1,2.5-.5-.5v-1.5l-1-.5v-.5l-2.5-1.5-1.5,1,.5-.5-1-1-2-1,1.5-2,.5,1v1.5l1.5,1,1.5-1m267.5-23l1-1.5,1.5,1h-1l-1.5.5m0,0l-.5.5.5-.5m-310,30l.5-.5h.5l-1,.5m-18.5,0h.5l2,.5-2,.5-.5-1m-6-2l.5-.5.5.5h-1m5,1.5h.5v.5l-.5-.5m18.5,1v-.5.5m-6.5,1v-.5l.5.5h-.5m55.5-1l1-.5v1h-.5l-.5-.5m-52.5,2.5l-1,.5v-.5l-.5-1,1-.5v1h1.5l-1,.5m7-.5l.5.5v1l-3.5-1.5,1-1.5h2.5l-.5,1.5m5.5,1l-1,.5,1,1h-4l1.5-1.5v-1.5l.5-.5,2,.5-.5,1,.5.5m29,3.5l1.5,2.5h2l-1.5,1.5-1.5-1.5-3.5,1,.5-2h1.5v-1.5l1-1-3.5-2.5,3-1-1.5-1,1.5-.5v-1.5l-7-.5,11-2v2.5l-2-1-1.5,2.5-.5.5.5.5-.5,1.5.5,1.5,2,.5-2,.5v1m-60.5-3.5l-1.5-.5-1.5-2.5.5-.5,2.5,2v1.5m35-13l-3.5.5-2.5-1.5h-2.5l7-2.5,3.5,1.5v1l-2,1m-9,0l1,.5-2.5,1.5-1-1,2.5-1m33.5,2l-1,1-1.5-.5.5-1.5,2-.5,1.5,1.5h-1.5m-11,0l-.5.5-1-1.5h-2l1-1,2,.5h.5v1.5m3-.5h1.5l-1.5.5v-.5m212.5-52l.5-1,.5.5-1,1v-.5m2.5,5h.5l-4.5,4.5-5,.5,2-1,.5-1,1.5.5,1-2-2.5-1-1.5.5v-2.5l1-.5v-1l1-1,3.5,1.5,1.5-.5.5-1.5,1,1,.5,1-1.5,2,.5.5m-18-7.5l-2,.5.5,1-.5,1.5-4.5.5,1.5-2v-1.5l1.5-1v-1l1-1.5,1-.5,1.5,1.5,1.5-.5-1.5,3m13.5-1h.5l.5.5-.5.5-.5-1m-108,13l2-.5-1,1.5-3,1,2-2m-139,34l5.5-4.5,10-4,7.5-6h1.5l2,3.5-2,4-2.5,3-.5,1.5h-1l-1,2.5-2.5-1.5-1,2,.5.5-4,1,1,1v1.5l-3,.5.5-1h-2.5l.5-.5v-1l1.5-.5.5-2,2,.5,2-2.5-1-.5-6,2.5v.5l1,.5v.5l-4.5-2-4.5.5m54.5,3.5l.5-.5.5.5h-1m-3,1l.5-1,.5.5-.5.5h-.5m48-19.5h-.5l-.5-.5h1.5l-.5.5m-33,20.5l.5-.5v1l-.5-.5m-57,5.5l.5-.5v.5h-.5m-21,8.5l1.5-.5.5.5-.5,1h-2l.5-1m37.5,2l.5-.5h.5l-.5.5h-.5m-19,3h-3l-.5-.5.5-.5-1-1.5,3-1.5-.5,1,2,2,1-.5v-2l3.5,1-3,2.5h-2m-25-1.5l1-.5-1-1v-1h3l-1,1.5v.5l-2,.5m67.5-1.5h.5-.5m286-32.5h1-1m-316.5,38l-1-1-2,1,.5-1-1-.5-2.5,2.5-.5-.5,1.5-2-1-.5-.5-1,2.5-1,2,1,1.5-2-.5-1,1-1,5.5,1-1.5,1.5-2.5,1,.5,1,1,.5-2.5,3,1.5,1.5-2.5,1-.5-.5.5-1h-.5l1.5-1-.5-.5v-.5m-32.5,1l.5-1v.5l-.5.5m18,.5l.5-.5,1,.5-.5.5-1-.5m-10,.5l1-1.5.5.5-1,1.5-.5-.5m-13,1.5h-1l-1.5-1-3,.5-1-1.5-2.5.5-.5-1,1-1,9.5,3-1,.5m9-6.5l3-.5,1.5-1.5,1.5.5v-.5l.5-1v-1l2,2,.5.5-.5,1,3.5.5-1.5,1.5h-8l-1,1-1.5-1v-1.5m22-1h.5-.5m-23,.5l-1,1.5-5.5,1-3-1,1-2,3.5,2,5-1.5m-16,1l.5-.5v1l-.5-.5m386,173.5h2l.5,1h2l.5,1,1.5-.5-.5,1.5,1-.5v1.5l1,.5,1.5-.5-1.5,1.5h-1l.5,1-3.5,3h-3l-.5,1-1,.5v1h.5l.5,1-3.5,3.5-.5,1.5.5,2h-3l-6,3.5-2.5-.5-.5.5,1,.5-.5,1,1,.5,2-.5.5,1h2.5l.5,1.5.5-.5-.5-.5,1.5-.5.5,1h2l-.5,1,1,.5-.5,1,2.5,1.5-.5,2-5,4,.5,1-.5,1,1,.5v.5l11-2.5-.5,2h.5l-.5,1.5-1.5,1,3.5,3-1,2.5-2,.5h.5l-.5,1h.5l-1.5,1.5,1.5,1-1,1.5,1.5.5-1-1,.5-.5,1,1v-1l4,.5-2.5,2,.5.5-4,2.5.5.5v1h.5l-.5,1,2.5,1v1.5h1l-2,1.5,1,1.5-.5,1,1,1.5.5,1.5.5,1.5v.5l1.5,2,3.5.5-.5,2,1.5.5-1,1v.5h7.5l1.5,1.5.5.5,1.5.5v2l-3,3-3,1v1.5l2,.5-1.5,2,1.5,1.5,6,.5v1l1,.5,5.5-1.5,2,1.5v1l1.5,1.5-2,2.5.5,1,2.5-1,.5.5-.5,1.5,1,2,2-.5,2,2h3.5l9,50,6,.5,3,2,1.5,2,2,.5,1,1.5,3-2,3.5,2.5-1,4-3,2.5v1.5l2.5,2.5-2,.5-.5,2.5-3,.5-1.5,2v3.5l-1.5-.5-3-3-1.5.5-.5,2v2l-1,2-1.5.5-1.5,1.5-1.5-1-2.5,3-3.5,1.5-.5,3.5-1.5,1.5-7.5,2.5-4.5,5.5-2.5-1-3,1.5-2.5,2-.5,2,1,1.5-4.5,2-.5,1,.5,1-4.5,3,1,2-1,1.5,2,3-1.5,1.5,1,1.5.5,1.5,2.5,2h2.5l.5.5v1.5l-4,.5-2,1.5-1.5-1-1.5,1.5-7.5,3-2,1.5,1.5,1.5-.5.5,1.5,2.5-1,2.5-3,3-3.5,1,.5,2v2l2,1,.5,4,2.5,2,1.5-.5,1.5,1v2.5l-3,2.5.5,2.5-.5,1.5,1,1-.5,1.5.5,3.5-1.5.5.5,1-.5,2-2.5,2h-7l-1-2.5.5-1.5-1-1-5.5,2-11.5-.5-.5.5v1.5l-1.5,1.5-.5,2h-2.5l1,1.5-1.5,1.5,1,1.5v2l-1.5,2-3-.5-5.5,2.5-18.5,12-6,.5-1-2.5-3-.5-1,.5-1,2.5h-2l-1,1.5-3.5-1.5-2,.5v.5l.5,1.5-.5.5-5.5,1-2,1.5,2,2-.5,2,.5,1-3,2.5-.5,1-4,2-3-1-1,2-2,.5-1.5-2v-2.5l-.5-1.5-7,.5-4-1.5-6,1.5-4-.5-2,1,1.5,3-1,2v2l-2.5,1.5-4-2-2.5,1.5.5.5-.5.5-1.5,1,.5.5-.5,1.5-1.5,1-5-.5-4.5-3.5.5-1.5-.5-2-1.5-.5-3.5,1.5-5-.5-5,4v1l-5-.5-3-2-13-4-1.5-1,2-2v-1.5l-2-.5-1-1v-.5l-4-3-3-.5h-4.5l-1.5,2.5h-3l-.5,1-5.5-2.5-8.5-.5-3-2h-2.5l-1,1-.5,2v.5l-2,1.5-1,2-2,1-1.5-1.5-1.5-3.5-1-1.5,2-2v-1.5l-1-1.5v-2.5l-3.5-1.5,1-2v-1l-1.5-.5-2-2-7.5-2.5-2.5,1-2-.5v-1.5l-1,1-.5-1.5-4-.5-5,1.5.5,1-1,1.5,1,1,1.5-.5v1l-3,3,1.5,2.5v1.5l-2.5,1.5-3.5-1.5-9,1-2-1-4.5,1.5-8.5-5-2.5,2-2.5-.5-2,2-2,4.5-3,2.5-8-1.5-1.5,1.5-4.5,1,.5,2.5-1,1.5.5.5-2.5,2.5-3,1.5-6-1.5-2.5,1-1,1.5v2l-2,2.5-4.5.5-2.5,4-6.5,3.5.5,1.5-16.5,3.5-8.5,7.5.5,4-2,.5-5,3,1.5,2,.5,2v1.5l2,1,.5,1.5-1.5,1.5-7,1v2.5l-1.5,2v2l-1.5.5v1l-1.5,1.5-1.5.5.5,2-2,.5-1,4.5-2,1-.5,1.5-2,2v2l-1.5,2,3.5,7-2,2.5-.5,4-4.5,1-9-4.5-10.5-2.5-7,2-1.5,1.5-1,3.5-4.5,4.5-1,4.5.5,2.5-2.5,4-3.5,4.5-9,6.5-9.5,9.5-.5,1-.5,4.5-2,3-1,3.5h-.5v.5l-1.5,2h.5l-.5,1-3,2-2,3.5-2.5,1.5-3,3.5-1-.5-2,.5v-1l-1-1-2-.5-1.5,1.5-2.5.5-1.5,2.5-4-.5-6,3-15.5-7.5-10.5,2-3.5,2-6.5-8-3.5,3v3l-1.5,3-1.5.5h-5l-4.5-3h-2l-2.5,2-5.5-2.5-2,.5-1.5-.5-3.5,1.5-1-1.5v-2h-3l-3,5-11-1-1.5-2.5-14-20-5.5-33-3-.5-16,1.5-5,2,.5,1-.5,1,.5,2.5-1,1,.5,2.5-1.5,1-3-1-1,2-1,1-.5.5-1.5,3,1,.5-4,1-1,2v1h-1v1l-1.5,1.5h-2v1l2,1,.5,2.5,3,1v1l-1,1,.5,1-1.5,2-1,1-2-1.5v.5l.5.5-3.5,2.5-1-.5-.5.5,1.5,1-2.5,2.5-1,1.5v1.5h-2l-1.5,1,1.5,2.5,6.5,1.5-3,1v1l-1-.5-.5,1,.5,1-.5,1-3,1-.5,1.5-2,.5v.5h-2.5l-2-1.5.5-1.5-.5-1v-1.5l-.5-.5.5-1h-1l.5-1-2-1.5.5-.5-2.5.5-2-1v-2.5l-1-3.5h1v-1.5h.5l-.5-1.5h.5v-1.5l-4.5-.5-.5-2.5.5-1.5-2-1.5,1-1.5-1.5-1,.5-1-2.5-2v1.5l-1.5-.5.5.5-.5.5-3-2-2,1.5h-1l1-1.5-.5-1.5h1l-.5-.5,1-1-1-.5.5-.5-.5-1,.5-1.5-1.5-3,.5-1-1-.5-1.5-2.5h-2l-2.5-2.5,1.5-2.5.5-1.5-1-.5-1.5,1-1.5-1,1-3-.5-1.5,1-1-2,.5-1.5-1.5-1,2.5-1-2-2.5,1,1-2-1-1.5.5-1,2.5.5-.5-1.5,3-.5.5-1.5,1.5-.5,1-2-2.5-5h-3l.5-1.5v-.5l1-1.5v-2l-.5-1-2-.5-4-3.5v-1.5l-5-5.5.5-4.5-1-5,.5-3,2-2,4-1,1-1.5v-1.5l-1-5.5-5.5-5v-5.5l-.5-5-1.5-3.5-2-1-.5-2,1.5-1.5h3l-.5-1,1.5-1-1.5-.5,1-2.5-2-1.5-1.5-.5-2,1-3-.5-3-3-4.5-1-1-3,.5-1,4.5-4,.5-2-3-6-2.5-2-2,2.5-.5,3-1,2.5,1.5,1.5-3,2.5-4,1-2.5-3-3,1.5-1,1.5-1.5-.5-5,2-1-.5v-1.5l-.5-.5h1l-1.5-.5-.5-2-1.5-.5v-3.5l-3.5.5-2-1.5-.5,1-1-1.5-1.5.5v-1h-2l-2.5-3.5-3.5,1,.5-1.5-1.5,1-1-1h-2l-.5,1-1-1.5-2,.5v-1h1l-2-2.5,1-2-3.5-.5,1-1-2-1.5,1-1-1.5-1,1.5-1.5-1-2,.5-1-.5-1v-2l-2.5-1.5,2-1-1.5-1,.5-1.5-2,.5-.5-1h-1.5l-.5-2.5-4-.5-.5-1.5-1.5.5,4-2.5-2-1v-1l1.5-1.5-3-2,1.5-1.5-3-2v-1l-.5-1h2.5l2-1,.5-2,1.5.5,1.5-1-.5-1,.5-.5h1l-1-1.5.5-1-1.5.5,2-1.5,1.5,1-.5-1.5.5-2,3,.5v1l1,.5v-2l-1-1.5,1-1-.5-2,.5-1h2.5l.5,1-1.5.5,3.5,1.5,3.5-4.5,1-3,3,.5-1-2,1-1h1.5l2,1.5,3.5-4,3-.5.5-1.5-1-1,.5-1,1.5,1.5,1.5-1v-2.5l.5-.5,2.5,1,1-1.5,1.5-.5,5,1,1.5,3-1.5,1,2.5,2h2l.5-1-1-1h1.5l1.5-1.5-1-.5-1,1h-.5l.5-1h-2l-.5-1.5v-1.5l-1.5-1,2.5-1.5v-1l1-1-1-.5,1-.5-.5-1,1,.5v-.5l1-1v-2l.5.5v-.5l.5-1-1-2.5-2-1v-.5l-.5-1v-1l.5-1.5,2-3.5v-1l.5-.5-1.5-2,.5-15-13.5-7.5-12-14.5-5-2-.5-1.5-.5-4,5.5-4.5,2-4.5-1-3,.5-1.5,2-1,2.5,1.5,1-.5,4,.5,2.5,2.5,2.5-2,1.5,1,.5-1-.5-.5,1.5-.5v-1h.5l-.5-.5,1,1,3.5-2.5-1.5-1,1-.5-.5-.5.5-1h-1l1-.5-1.5-1.5h2l-.5-1v-1.5h-.5l1-.5-2-.5.5-.5-.5-.5,1-.5-1-.5,1.5.5-.5-1,2,.5,1-1-.5-.5.5-.5.5,1,2-.5-1,.5.5.5,1-.5v-1l1,1,1-1-3-2.5,1-.5-.5-.5h.5v-1l-2-.5.5,1h-.5l-1-1.5-1.5-.5,1-.5-.5-1h-1l.5-1-3.5-1.5v1l-.5.5-.5-1.5,1-1.5-2.5-1,.5-1-3-1.5-3.5,1-.5-1-3,.5.5-1.5-1,.5v-1l-2-.5.5-.5h-1.5l-.5-1-2,1v-1l-1-.5-.5,1v-1.5l-1-1h1v-.5l-1.5.5.5-1.5-.5-.5-2,.5v-1l.5-.5-3-1v-1.5l-1,.5,1-1h-1.5v-1.5l-1.5.5v-.5l.5-1-2-.5v-.5l2.5-.5v-1l-1-.5,1.5-.5-1-1,.5-1.5v-1l-3-1-1-3,3-2.5,17,4,6.5,3,9,11.5,19,12-.5,1v5.5l8.5,11.5v3.5l1.5,3,7,5,5,1,9.5.5,11-2.5,4.5-.5,1.5.5.5,2.5h.5l4.5,1,2,2,4.5-2,.5-2.5-.5-3-5-4-10-4-1.5.5v1.5l-1-1-1-6.5-1-3-6-6.5.5-1,2-.5,1-3.5-.5-3-1.5-3-10-6.5-14.5-4.5.5-.5-2-1-2-3-2.5-1-1-2.5v-1.5l-1.5-2.5,1-2h1.5l-.5-1.5,2-2-.5-1.5-3-1.5v-4.5l.5-1.5-.5-1,4-3.5,1-4,1-2v-2l1-1v-2l-1.5-4,1-1-.5-1-6-4.5,2.5-.5,1-1v-1.5l-5.5-2.5.5-.5-.5-1-1.5.5-.5-.5,2.5-1,2.5,1,2.5-.5-2.5-2v-.5l4.5,3v-3h-.5l-.5-2-6-3.5,2-1.5v-2l.5-.5,3.5.5-1-2,3-.5.5-1v-3.5l2-.5-2-1.5-.5.5v1l-.5.5-1.5-1,1-1.5-2.5-1.5-1.5.5,1.5,1v1l-3-1-3.5-3.5,1.5.5,1.5-1.5,5,3,1.5-1-.5-1.5v-.5l1.5-.5-1-.5,2,1h2.5l3.5,2.5.5-1v-.5h4.5l-1-1,6,2,1.5-1,.5-1,11.5-1,11,.5,26.5,4,22-2,7.5-2.5,3.5,1,2.5,3,3,1,5,.5,3-1v-.5l-.5-.5v-1.5l2-3,5-1,2.5.5,5.5-2.5,9-.5h1l.5,1,4.5-1.5,1,1,2-.5.5,1.5,5,2-.5,1.5h.5l-.5,1.5-.5.5v.5l-.5-.5-1,1v2l-1,1-6,1.5,1.5.5-1,1.5v.5l2-2h1.5l-3,3.5v2.5l-4.5,1.5-4.5-.5,1-1.5h3l-3-1v-.5l7-1-1.5-1,.5-.5-.5-.5-4.5,1-1.5,1.5-2,2.5-4.5,1-3,3-5.5,3-.5,2-1,4.5-1.5-1-1.5.5,1.5,3h.5l2,2.5.5,2,9,3.5.5,1.5-1.5.5.5,2.5,6.5,3.5.5-.5-3.5-2.5-1-4.5-6.5-3-5-5-.5-2,1.5-1.5,1.5-.5v-1l-1.5-.5v-2.5l3-2,4-1,1-1.5-.5-.5v-1l14,.5,4.5-2.5,4.5.5,3.5-4-.5-.5,1-3.5,2.5-1,1-1.5v-1.5l-5-6-1-2.5.5-2-1.5-3-5.5-3-.5.5,1.5,1.5h-2.5v-.5l-.5-1,.5-.5-1-1v-1.5h4l.5.5v1l3.5-1.5,3,.5-1.5-1.5h-5l-2-1v-1l1.5-1-3.5-2,2-3v-2l-1-2-2.5-2h-3.5l-2-2.5-6.5-.5-2.5-1.5-1-2,.5-2,1.5-2.5h3l1.5,1v.5l.5,1,3,2.5v-2.5l-1-1.5v-1l-5-2h3.5l1-1,1,1,1-.5-.5-1,1.5-1,1,1,.5-.5v-.5l3,.5,3,3.5-1.5,1.5h7l-.5,1.5.5.5v.5l-2.5,2,3-.5-1,2,1,1.5-1,1,.5.5,2-1-.5-1.5.5-.5-1-2v-1.5l.5-1,2,.5-2-2,1.5-1.5h-6.5l-1-.5,1-1v-.5h-2.5l1-2-2-2h-1.5l.5-1,4-1.5v-.5l-4.5-.5-1-.5v-1l-3-1,.5-1.5h-4.5,1l-1-1h-3l-1-1.5-.5,1.5-1.5-1-1,1,.5.5h-2.5l2.5-1-3.5-3h2.5l1.5-1.5-1-1.5h.5l-.5-1,2.5-1,2,1.5v-1l2-1.5-.5-1,1,.5,1-1-4-2.5-2.5,1-3-.5v-1l1.5-.5v-1l.5-1.5v-1l2-.5.5.5-.5,1.5,1,.5,4,1-.5,2,1,1,1.5-1.5-.5-.5.5-.5.5,1-.5.5,3,2,1.5,2.5-3.5-1.5-.5,1,1.5,1.5v2l1.5-1.5h2l1.5.5-.5,1,.5.5,2-.5-.5,1,.5,1-1.5,1,3,1-1,1-.5,2h4.5v-.5l-.5-1,.5-1v-.5l2-.5-4-.5.5-1-1.5-1,1.5-.5v-1l1.5-.5-.5-.5,1-1,3.5,2.5v-1.5l2-1.5h-2l.5-2v-2.5l1-1v-.5h2l-.5-1,6-4.5h-2.5l-2-3,1.5-1.5h4l1,1v1.5l-2,1,2.5.5,1,1.5,1-.5-.5-1,1-1.5,2,.5,1-1-.5-2v-1.5l-6-1-1,1-7-4.5h-3l1,1.5-1-1-.5-2,2-2,5-1,14.5,4h4l6.5-2.5-1-.5.5-.5h-.5l-3,.5-1-1h1l.5-1.5v-1l3.5.5,4-5,1.5.5.5-1-.5-.5,1-1.5,6-3.5v-1.5l-2,.5-.5-1,7-2.5,2,.5.5-.5v-1.5l2.5-2,.5-.5v-.5l2,1,1-1,1,.5.5,1.5-3-1-1.5,2,3.5,1-1.5,1v1l1.5.5,2.5-2,.5,1,3.5,1-2-2.5v-1l5-1.5,2,.5,1-1-2-2.5,4-1,1.5-2.5,1.5,1.5,9-1,.5-1v-1.5h3l2-2,1,.5-1,1,.5,1.5v.5l1,1,3.5-3.5,2-1-1,2.5,2.5,1,4-2,1,1,3,.5-.5-1,.5-1-1-2,1.5-1v-1.5l.5-.5v-.5l3-1.5-2.5,1v1l2,.5-1,1,.5.5,4-1.5v-.5l.5,1v1l1,.5,2.5-2.5h5l2.5-3,3,1,7.5-1.5,2.5-2,4,.5,9-4h2l4.5-2.5-2-.5-6,2.5-1-1v-2l-.5-1.5-1.5,2.5,1,2-.5,1-1.5-.5-3-4-2-.5,1-.5,1-2-.5-.5h-.5l-.5,1.5-3,.5v1l-2,.5,3,2.5-5.5.5h-1l1-1.5.5-1-1-.5.5-1.5-.5-.5-1-.5,3.5-2-.5-1v-1h-1l1.5-1-1.5-1.5,3.5-.5v.5l-1,2,2,1.5,3.5-3-1.5-1,2-.5v-1l-3-.5,2-1.5h.5l-.5.5.5,1,3-1.5,1.5,1.5-3.5,2,2,.5.5,1.5-1,1.5,2,.5,1.5-2-.5-.5v-1l1.5,1,2-.5-.5-1,.5-.5,2,2,4.5-.5-2.5-1-.5-1.5-3.5-.5v-.5l-.5-.5.5-.5h7.5l1-1.5,1,2.5,5.5-1.5-.5,1.5,2,.5v.5l-.5,1,.5.5,1.5-1,2.5.5-1.5-2,3-.5,1-1.5h-4.5l-1-1,1.5-.5h6v1.5h2.5l.5.5-1.5-.5v1.5l2.5,1.5,2.5-2,2.5,1,.5-1.5,2-2.5,5,1.5,2-.5-2.5-1.5,2-1-.5-.5-3,.5-1-1.5-1,1-.5-.5,1-.5-3.5-1-.5-1,1-1-.5-1v-1l.5-.5h4l-1,1.5,2,.5-1,1h1l1.5-1-.5-.5.5-1,4.5-3,.5,1-.5,2.5v.5l2-2h3.5l-.5,4h.5l1.5-1,1-3.5,2-1,7,3.5-.5,2.5-1.5,1,.5,4-2,1v-1l1-2-1-.5,1-2-1.5-1-.5-3-1.5.5v3l2,1-3-.5-1.5.5,2,1,.5,1,1.5,1-.5,2h.5-2l1.5,1.5-2,1,.5-1-.5-1-1.5-.5v-1l-3-.5-1,1.5-2-1-4,.5,4.5,1.5-1,.5,1,1,2-.5,1,1h2l-1.5,1.5-1-1-2.5,1.5,1,1.5h1.5l-2.5,2,.5,1-.5,1-2,.5-5.5,7.5-1.5.5,3,3,2.5-4,2.5-2,.5-1.5,2.5-2,1.5,1.5,1-1,2,.5,1-1h-1.5l1-1v-.5h-2l3-.5,1-2-.5,1h3l-1.5,2h.5l3-.5,1,.5-4.5,7,3.5-.5,1.5-1.5.5.5h2l.5-1.5,2-.5.5-1.5v-1l4-3h-4l-4,2-1.5-1.5,7-5,6-3,.5,1.5-3,3-.5,2,4-.5-2.5,1.5.5,1h-2.5v.5l2,.5-.5.5.5.5-2,2h3l.5-.5-.5-1,1-2,3.5-1.5h1.5l-.5.5,2,1h4l.5-.5-2-2.5v-1l-5-.5,6-4v1.5h2l-1,1,1,1,2-1.5,1,.5h.5v-1.5l2,.5,1.5-1.5-4-1-1,1-2-1.5,2.5-2,1.5.5-.5-1,2-1h1.5l5-2,1-1.5,5.5-4,1,.5-1,.5v1.5l-1,1.5,3.5.5.5-1-.5-.5h2.5l1-1-1,1,6,.5,1,1.5-.5-.5-2,1-.5,1,1,1-2,.5,1.5,1.5h2l1-1.5,1,1,4-2-1.5.5.5,1v.5l4,1,.5,1v2.5h1l1-2.5-2-2.5-.5-2-1.5-1.5-2.5-1.5v-3.5l-4.5-1.5v-2l-2.5-2.5-4,.5-2-4.5-3.5-3.5v-1.5l2-2,9.5,3.5h7l7.5-2.5,7,.5,7-2.5,4.5-4h1.5l1.5-4.5v-5.5l4,1,1.5-1.5-5.5-5-2.5.5-2.5-4-1-3.5,2-5,.5-1-.5-1.5h2.5l.5,2v1l2-.5-.5-2,1-3-.5-1.5,1-1.5-1.5-.5,2-4.5,6.5-9.5,4-4,2-4,5,1.5v-1.5l-1,.5-.5-1,3-2.5v-.5l-2,.5,2.5-1.5,2-4.5,2-2.5,4.5-2.5,2.5-2-1-1.5,6.5-5,2.5,2,4.5-2,1.5,1,1.5-1-1-1,2-2.5v-1l1.5-.5v-.5l2.5-2,1,1,2-1.5,2.5,2.5,2-.5-3.5,1.5,1.5.5-.5.5h.5l6.5-3,1.5.5,1.5.5-.5,2,1,1-1,.5,1,1.5,11,3,11-2-1,.5,1.5,2,.5,1-.5.5,1,.5-.5,1.5,2.5,2.5-.5,1,4,2,2,.5-.5,1,1,1-10-.5.5,1-4.5,6-.5.5,1,.5-1,1.5,2.5-1-.5,1-1.5,1-2-.5-2,2.5-8,4-2.5-.5-3.5,1-1.5,2.5-2.5-.5-4,3,.5.5,2.5.5,7-1,.5-1-.5-.5,1-.5,3,3h3.5l2-3,4,1.5,5-3,3.5.5,2-3.5.5.5-1,2,.5,1.5v1l-2.5,1.5,1,1.5-5.5,1-1.5,1,1,1,.5-1-1,1.5,1,1v-1l2,.5,3-1.5h2.5l5.5-6,6,1,1,2h1l.5-1.5,1.5,2,1.5-.5v-.5h-1v-1l1.5-1-.5-.5,2.5-1,1.5.5,1,2,2-1v1l-1.5,1,.5.5,5.5-2.5-1,2h1.5l1,1-1,.5.5,1,1.5,1,3,.5-.5,1-5,1.5v.5l3.5,1-4,2.5,2.5-.5-1.5,3-3,.5-.5,2.5.5,1-2,1-.5,1.5-3,.5.5,1.5v.5l1,.5v1l-1,1,.5,1.5-.5.5.5.5-1,1,.5.5-.5,1,.5.5-1.5,2.5-1,.5v-2l-2-2-2.5,1.5,1.5,1.5v3l1.5,1h4.5l1-1,.5,2,1,1,1-.5-.5-1.5h-.5l1-1.5h3.5l5-2v-1h2.5l4,1.5,2-.5,3.5-3,1.5-2.5v-5l-1.5-1v-3l-1-2,1.5-1h4l2-1h1l-1.5,1.5h.5v1l1,.5,2-2,4.5,1,11-3,4-3.5,1.5,1.5,1.5-.5,5,2h3.5l12-6.5,2.5-.5-.5,1,.5,1h3l4.5-3-.5-1,1-.5.5-.5h1l1.5.5h1l2,1.5.5,1-3-2.5-3-.5v.5l2.5,1-1.5,3,1.5.5v.5l.5.5,2-1,4,.5,1.5-1.5,2.5,1,2,1-2.5-1-2,3.5,2,.5-1.5,1,.5.5,4-1,5,2.5v1l1,1.5,2,.5,3.5,3.5-1,.5-3,6,.5.5,1-.5,4-6.5,2-.5v-1l-3.5-4h-4.5v-.5l-.5-.5v-1.5l-2.5-.5.5-.5-.5-.5,4-2.5,2,.5.5-1.5-1-.5h4.5l-1.5,1,2,.5.5.5v1l.5.5v1l2,1-1,2.5,3.5-1-.5-1,1.5,1.5v1l-1-.5-1.5,1.5v1.5l3.5,1.5v3.5l-1.5,2,4.5,1.5-1.5,3,1,2.5-.5,1,1,2-4-1.5-.5,1,2,1.5-.5.5,2.5,1,2-2v2l2.5,2.5-.5,1,1,1-2,3h3l2.5-3v-1.5l-1.5-1,1-2,3-1.5-1.5-1.5-3,1-.5-2.5-1.5-1,4.5-1,.5-1.5h-2.5l2.5-1,1.5,1,4,3.5,4,7-1,1.5,2,3v2.5l2,2-2,1.5h2.5l-.5,1h.5l2.5-1-.5-1h-2l2-2,2,2h1.5l1.5,2,.5,2,.5,5.5-1,6v6.5l-1,2.5-1.5,2v1.5l-3,.5-.5-1,3-4.5.5-1-1-2-6-1-6.5,2.5,3-3-2-.5-.5-1-4.5-1-5.5-4h-5.5l2,1,.5,1.5v1.5l4-.5,3.5,1.5,1.5,2v1.5l-2,1,2,.5-.5,1.5,2,.5-.5.5.5,1-1.5,1.5v2l1,1.5,2.5.5,2-1.5v-1.5l-1.5-1v-1.5l5-4.5,2,1.5v1l-.5.5,1.5,1-1.5.5.5,1.5,2,3,4,.5,3.5-1,1.5,3,.5,2.5v1l-2,.5-2,2,3.5-.5.5.5v5.5l-1.5,5-7.5,14-2.5.5,2,.5-2.5,2.5-1,4.5-5.5,5.5h-.5l1-1-9,4.5v1l-.5,2.5-2,5.5.5,1-2,4-.5,2.5-4.5-1.5-4,1-4.5,5.5-.5,1.5-2,3-1,3,.5-1.5h-2.5l-7,6-3.5-1-.5,1,1.5,2-.5,2-3,4.5-4,.5-3,4,1.5,1,.5,3.5v3l-1,2-4,4.5-2.5,4.5-6.5,2-4.5,3.5-4.5,6.5-4.5,12.5-4,5-3,6h-.5l1-2.5h-2.5l-5.5,4.5-4.5-.5-5.5,2.5-2,3v1l-1,1,.5.5-5.5,6.5-1.5,5,.5,3-1,2-3.5,2-8.5-1-3,4-.5,2-.5,4-.5,1,1,2.5-3.5,2.5.5,5,.5,2-2.5,4,2,1v3.5l-1,1h-1l-1-1.5v1.5l-2,.5-2.5,3-2.5,2v1l1.5-1,.5,1.5-.5.5-6,1-3-1.5-6.5,4.5-2,2,1,.5v1.5l-3.5,5-3,2,8-.5,4-5.5,2.5-.5v-1l-2.5.5,2-2.5,3,3,.5-1v-3.5l-2-.5.5-1h9.5l4.5-4.5.5-2.5,1.5-2h1.5l1-1,.5-3.5,1-1.5,3,2,2.5.5.5-1,1,1,.5-1-5-1.5,3.5-.5,5,2-.5-1.5-2.5-.5v-.5l-4-.5v-.5l-.5-1.5v-2l-.5-2-.5-4v-1l-.5-1,2.5-1v-3.5l12,2.5,4-3h8l3-1,7-1,4.5-5,2-1.5h2.5l1.5,1.5,2-1,1-.5v-1l-1-1.5h-2.5l-1.5,1.5v-1l1.5-2.5,14.5-5.5,8-5.5-2-1.5-.5-2.5.5-1,4,2.5.5,1,.5-1.5-3.5-4-2.5,1-1-2.5.5-2h1l6,5.5,7,1,3-2,1.5-3,2.5-.5v-3l.5-.5-1.5,1v-2l4.5-1.5,1.5-1.5-.5-2,2-2h3l1-2,3.5-.5,1.5-2,.5-1.5m-269.5-268.5l-.5-1-1,1-1-.5v-1l-3,3-.5-.5.5-1.5-1,.5-.5-1v-1.5l.5-1-2.5-1,4-11,2.5-3,2-4.5,3-2.5v-1.5l2-1.5-1.5-1.5.5-2-1-1,2-.5,1.5-3.5v-1.5l-1.5-.5,2-1-.5-.5v-.5l-.5-1.5,1.5-2,2-1-1-1,1-1-2-.5,1-.5-.5-2.5,1.5-3.5,3-5.5,1-1.5,4,2.5,5,1,1-1-5-2-1.5-1.5v-1l1-.5-2-1v-1.5l1.5-2-.5-.5,1-1.5-.5-1,1.5-5h3.5l5,2.5.5-1-8.5-4.5,1.5-3v-.5l7.5-1.5-6-1,.5-3.5,1.5-2.5,2-1,2,.5-.5-.5,2.5-.5-.5-1,.5-1-1.5-1-.5-1.5.5-.5-.5-.5,1-2,4-1.5.5,1.5v1l2.5,4.5-.5,1,5.5,1.5.5,1v-1l-1-3v-1.5l-1-2-.5-3,.5-2.5,1.5-2.5,2.5-.5,1,1.5,6.5,1,2,3,1-.5-.5,1.5,1.5-.5-.5,1,3,.5-2,3h-.5l-1.5,3h-1.5l1,.5-1.5,2.5v4l.5.5-1.5,4v3.5l.5,1.5v1.5h.5l-1,.5v2.5l-3,2,.5.5-1,.5.5,1.5v1l-1.5,2-.5,2,2.5-.5,2.5-3.5h1.5l-1-.5.5-1-.5-1,1.5-.5-.5-1.5,3-8v-2.5l2.5,2-.5-1,5-3,.5-.5-1-1,.5-.5,2.5-.5.5-2.5-.5-1,1-1.5h.5v1l1-.5v4.5l1-2.5,2-.5v-1l-.5-.5,1-1,.5,1-.5,1.5.5.5h3.5l.5,3-1.5,1.5,2.5,2.5-.5,2,2.5-1,5.5,1.5.5,1.5,1.5.5.5,1.5.5,1.5-1,1.5.5.5,4.5.5-4,2,3.5,1.5h-.5l.5.5v1.5h.5l-1.5,1.5v.5l2.5-1.5-.5-.5,1-2-1-.5v-1l3-1.5,7,3.5,1,3,1.5,1.5-2,.5,2,1.5v1l.5,1.5v1.5l1,.5v1.5l-.5,1.5,1.5,1.5v1.5l-.5,1.5v2.5l-4.5,8.5-5,6.5-.5-1-2-1-3.5,2-1.5-1-13,7.5h-4.5l-4.5,3-2.5-1-1.5.5-3,1.5.5,1,1,.5-2.5,1.5,1.5,1-.5,1-.5-1h-2l-.5-1,.5-.5-.5-1.5-2-1-7,1-3.5,2.5-5.5-1.5-2,1.5h-7.5l-2.5,1.5-2.5,3-3.5,2.5-4.5,2-11.5,9-4.5.5m130-38.5l1.5-.5,2.5,1,1,2.5-.5,2-1.5-1.5-3,1-1.5,1.5,2.5.5-5,4h-2l-2-1.5v-2.5l5-.5,1-2v-2l1.5-2.5.5.5m-250,21.5l-.5.5-.5-.5,1.5-.5-.5.5m-1,2l1.5.5-.5,1.5,1,1h-2.5l-1-2,.5-1.5,1,.5m260-13.5l6.5.5,4.5-3,2.5.5.5,2,1.5,1v3l-1,1-2.5,3-.5-2.5,1-.5-2-.5-1,2-13.5-1-6-1.5,2-2h.5l-.5,1,5.5-3,1.5,1,1-1m-274.5-126l-8-3-.5-1.5-3-1,12.5-1.5,8.5,3.5,1.5-.5-2-2.5-5.5-1.5-23,2,1-1-.5-1-1.5,1-3.5.5,5.5-4.5,3,.5.5-1,1.5-.5,3,1.5-2.5-2h.5l3.5,1.5,2.5-1,3,1.5,3-.5-1.5-1.5-7.5-1.5-5-2.5,8.5-3,5-.5,3-1-.5-.5h.5v-5l1.5-4.5,7-7.5-.5-.5,1-2h-2.5v1l1,1-.5.5-6,1-.5-1.5-1.5,2h-3.5l-.5-2,4.5-4,.5-.5-.5-1.5.5-.5,5-2.5h2.5l-1.5-2v-2.5l-.5-.5,7.5-3.5,3.5,1,.5-.5-.5-2,6.5-2,2-1.5,11-3.5,8-6h5.5l-9-2v-1.5h.5l8-1.5,5.5,1.5.5,2-2,3.5,4-.5,1,1-.5,1h2l.5,2.5,4.5,3.5.5.5v2.5l4,2v.5l-1,1.5,2,3.5,5.5,2,1,2,5,2-.5,1h.5l7.5.5-1.5,2.5,2.5.5.5,1-2,1.5,2,1,1,2-4,2.5h-4v1l-3,1-.5-.5v-1.5l-1.5,1-2-.5-5-4.5-3-1,9,7-.5,1.5v1.5l-1,1,.5,1.5-1,2,1.5,2.5,1,2.5.5,4v3l3,.5,1,1.5v1l-3,3,.5,1-.5.5-29.5,2-9,4h-6.5l-2.5,1.5-2-1-4,5-11.5,4.5-9.5-4-7.5-4.5-7.5-.5-3.5-1.5,2.5-1-.5-1,.5-.5,11,4,1-.5-.5-1.5-2.5-1.5m131.5,74l2.5,1v1.5l.5,1-1,1.5,2.5,5.5-1.5,2.5-7,5v1.5l-.5,1-3-1-4,2h-10l-4.5,3-1.5-2.5h-2.5l-1.5-1.5-1,.5,1,.5-4-1-5,1.5-4.5-2h.5l-1.5-2v-1.5l-4,.5-4-3.5-.5-3.5-.5-1h-7l1.5-.5h-.5l-1.5,1-1,1-3-2.5-2.5,2.5h-3l-2-1.5-3.5,1-.5-2,.5-.5-.5-.5,1-1.5h-2l-.5-1,.5-1.5-.5-.5h-3l-6.5,5-2.5-1h1.5l-.5-1-2,1-1.5-1-4-5,1-4-6-4.5,1-.5h-1.5l1.5-2-1-3,.5-1.5-1-4.5,1.5-2-.5-3-6.5-1-.5.5.5.5-.5,1,1,.5-1,1.5-2.5-1,.5,1h-1.5l-.5-.5,1.5-1.5-2-1,3-1-.5-2,1.5.5-6-4,4.5-2,.5-.5-1-.5,1-1.5-3,1-1,1.5,1,1-2,.5-3.5,3-.5,1.5,1.5,1-2.5,2,1.5.5-3.5.5-2.5-1.5,2.5-1.5v-.5h1l.5-.5-.5-.5v-1l-2-.5-1.5.5-1.5-1,1-.5-1.5-1.5-2.5.5-1-.5,3-.5,6,2,.5-1,4-4h2.5l-1-.5,2.5-2,1-3,4.5-4.5,5-1,6.5.5v-.5h-2.5l2.5-2-.5-1-2-1-4.5-3.5.5-1-.5-.5,2-2-1-.5-.5-1v-1.5l2,1.5,2.5-1.5,3,1-2-1.5,1-.5.5-3,3.5-1.5v-2l1-1,2.5,2-1,1.5,2.5.5,1.5,2,2-2-.5-1.5.5-1.5,1.5-1,6,1,4.5-1,1.5,1.5,2-2,4.5,1,1.5-1,.5-1.5,2.5,1,7.5-3.5h9l4.5,3.5,1,2,2.5,1.5v1l-3.5,2.5.5,1.5,1,1.5-1,1.5,2,.5-1,2.5-2.5,1-2.5,2.5h-5.5l3.5,1.5-11.5,5h-3l-6,3.5h3.5l5.5-2,1,1.5v-1.5l2.5-2,10.5-3,.5,2-2.5,2.5-4.5,1-1,2-1.5.5-1,3,.5,1.5-.5,1.5,1,1.5-.5-1.5.5-1v-3l8-4.5,1.5-2,2,1v-.5l-.5-1.5.5-1.5,7.5-2.5-3-5,.5-.5,3,.5,1.5-1.5-.5-1,.5-1.5,1-.5-.5,1.5,1.5-.5-1.5,3,.5,1-.5.5h2l-.5-1,1.5-4-.5-.5.5-.5v-1.5l-2-2v-1l.5-1,4-2h.5l-1.5,2,1.5.5,2.5-1.5,1,1,2-1.5h4.5l-2.5,2.5,4-1,1,1-2,2,6,1,.5.5-1,.5-.5,1.5,1.5-1,1.5,1-.5,1h2l2,2-.5,2,3,1v1.5l1,1-.5,1,1,1-2.5,2.5h-2.5l2,1.5.5.5-.5,1,.5.5-.5,1,.5,1.5-1,1,.5,1-1.5-.5.5,1v4l-1.5,1.5,1,.5,1.5,3-1,1.5.5.5-.5,1-.5,1,1,2.5-.5.5.5.5-1,2,1,2-.5,1.5.5,1.5-.5.5.5,1h-2.5l.5,1-2,1.5,1,.5-.5.5-6-4.5-2.5.5.5,1,3,3.5,7.5,5-2,1-.5,1.5,4,1m-93-67l-.5.5-.5-.5h1m-39,3l-2.5.5-1-.5,1.5-1,3,.5-1,.5m26,3l-2,1.5-2.5-.5,1.5-2,4-2.5,2,1.5-1,.5-.5,1.5h-1.5m-52.5,19.5l-2-2.5,1.5-1,11,1.5-2,1,3.5,1.5,1.5-3h1l-.5-.5,4,1,1-1.5-1-2-3-2-3-.5-1.5,1-12-2.5-1-1.5v-1l1-1,2.5-.5,1-1-4-3.5,2-1,.5-.5v-1.5l-2-.5-.5-1,.5-1-4.5-2,16.5-.5,2.5,2,8.5,1,1.5,1.5,7.5-.5,6.5,2,9.5,6.5-1.5,2.5-1.5,1.5.5.5-.5,1-4,2-1.5-.5-.5.5,1.5.5-8,6-10.5,2-7-1-4,2-2.5-.5,1,1h-.5l-7.5-4m69.5-26h-1l1-.5v.5m16.5-2.5l-1,.5-.5-.5,2.5-1-1,1m14-1l-.5.5-1-.5h2-.5m-92,.5h-1v-.5h1v.5m114,2.5l-1-.5v-1l1-.5.5,1-.5,1m-94.5-28l-2,1h-.5l1-1.5,2-.5-.5,1m-23,8v.5l-1.5-1,1.5.5m2,1.5h-1l-.5-.5h.5l1,.5m105,7.5h-.5l-.5-.5,1.5-1.5-.5,1,.5.5-.5.5M354.16,7.16l4.5,1v3l1.5,1.5-5.5,4.5-6,1-14-3-2.5-1.5-1-1.5,1-3.5,2-2,14.5-1.5,5.5,2m33.5,9h-1.5l-1-.5h1.5l1,.5m4.5,1h-1v-.5h.5l.5.5M131.66,8.66l-2-2,1.5-2,4.5-3.5,6.5-1,9.5,4,2,1.5v1.5l-1,1.5-7,1.5-14-1.5m241.5,34h-1l1.5-.5-.5.5m99-4.5l-.5.5-.5-.5h1m-1.5,8.5h-1l.5-.5.5.5m-100,84h-.5l1,.5-3,1-.5.5.5,1-.5.5-1,.5-8.5-3.5,5.5,1,6.5-2,5.5.5h-5m141-2l1.5-.5.5.5-1,2.5-2,.5v-2.5l.5-1.5.5,1m-.5,8h-1v-1l.5.5.5.5m-3,6.5l.5,1-2-1.5h.5l1,.5m-133,15l1.5,1-3-1-8-4,9.5,4m.5-27h2.5l3,1.5-1,1.5-3,1-2.5-2v-1l1-1m76,33.5l1-1v1l-.5.5-.5-.5m36.5,11.5l-1,1h-2l1-1.5,2,.5m-15,2l-1.5.5v-.5l1.5-1-.5,1h.5m0-3v.5h-1l.5-.5h.5m-64-82.5l-.5.5-1-.5h1.5m65,0h-.5l-.5-.5h1.5l-.5.5m4-1h-1,1m-1,2h-.5l1-.5-.5.5m-72.5,3.5l-.5-.5h1.5l-1,.5m72-.5h1-1m-7,5h-.5l-.5-1,1.5,1h-.5m-19.5,8.5h-.5v-.5l.5.5m9,3l-.5,1-.5-.5.5-.5h.5m54-3.5l.5.5-1,1.5,1.5-.5,2.5,1-4,1-1,1-1,4-1-.5v-2.5l1-1.5v-2l.5-1.5-.5-.5h2.5m-167,8v.5h-1v-.5h1m166.5,2h-.5l-.5-.5,1.5-.5-.5,1m-163,5.5l1,.5-8.5-3.5-3,.5-3.5-1.5,5.5-.5,8.5,4.5m4.5,5l-3-1.5,1-.5-1-1.5,2,1,1,2,3.5,1.5-3.5-1m-8-5l-1,.5-2.5-2h.5l3,1.5M90.16,93.16l4,2,.5,1.5-3,1-12.5-2-1.5-1,.5-2v-1.5l-5.5-.5-4-6.5,1-2.5h2.5l2,2.5h-1.5l.5,1,5-.5,12,8.5m269,38h-.5l-.5-.5v-.5l1,1m-2-1h-.5l-1-.5,1.5.5m-2-1.5l.5.5-1-.5h.5m218.5,19.5l-.5.5v-.5h.5m-32-8.5l-.5.5v-1l.5.5m33,5.5l-.5-.5,1-.5-.5,1m1.5.5l-.5.5v-1l.5-.5v1m-2-6.5l.5,2,1-.5v1l.5.5-3,.5-.5-2h1v-1.5h.5m20,10.5l-1,1-3,1,4.5-2.5-.5.5m12.5,10l.5-.5-.5.5m-116,32h-1l-1-.5h2.5l-.5.5m-.5,3.5l-1,.5v-.5l1-.5v.5m.5,1.5l-1,.5-.5-.5,1.5-.5v.5m-17.5-16.5l-.5-.5,1.5-.5-1,1m16,9l-.5.5.5-1-.5-1,.5-.5v-1.5l1.5,1-1.5,2.5m-.5-9h-.5,1-.5m153.5,12h-.5l1.5-.5h-.5l-.5.5m2.5,1h-.5l-1-.5.5-.5,1,1m-2,.5l-.5.5-.5-.5.5-.5.5.5m5.5,5l-.5-.5v-2l-1.5-1.5,2,1.5v2.5m2.5,6.5l-.5.5-.5-1,1.5.5h-.5m-232.5,141.5l.5-1,.5,1.5-.5.5-.5-1m42,9l1,1-5,1.5-2,2.5-2-1,1-1.5-.5-.5,1.5-3v-1l.5-.5,1.5-3,1.5-.5-2-1.5v-.5l2,.5.5,1.5,2-1,.5.5-.5,1,1,.5.5,1-1.5,1,.5,1h-2l.5,1.5,1,.5m-20.5-6.5l2-1,1.5.5-2.5,1.5-1-1m12.5,1.5l-6-1-1-1,3-1,1,1,4-.5v-.5l1,1.5-1.5,2.5h-1l.5-1m-45-2.5l1.5-.5.5.5-1,1-1-1m22.5-12.5l-.5.5-1-1,2-.5-.5,1m17.5-3h1l-1,1v-1m-8.5,2l-.5.5-.5-.5,1-2,.5,1-.5,1m345.5-34.5h-.5l-1.5-1.5v-1l-.5-1.5,1,1.5-.5,1,2,1.5m-360.5,36.5v-1.5l2-1.5h.5v.5l.5,1-2.5,2.5h-.5v-1m12-.5v-.5.5m329.5-38l-2-1,2.5-1h-.5,1l.5,1-1-.5v2l-.5-.5m6.5-3l.5-.5-.5.5m-350.5,45l1.5-1,3,1.5-1,1,1.5.5-1.5.5-1-1.5v-1.5l-2.5.5m29,1.5l.5-.5v.5h-.5m344.5-39v.5l.5,1-1.5-1.5h1m6.5,5.5l2,.5-.5.5-5.5,1-1-1.5,1-4,2,1-1,1,.5,1,2.5.5m-15-3.5v-1,1m-362.5,34h2-2m-10.5,5h3l1.5-1.5v-1h2l-.5.5v1.5l-2.5,1-3.5-.5m6.5,1l1-.5,1,1h-.5l-1.5-.5m47-1.5l1-1v1h-1m-10.5,1.5v1.5h-.5l-1-1.5h1.5m7.5,1.5l.5-.5-.5.5m-16,20.5h1l-.5.5-.5-.5m-37.5-13l1-.5h1l-.5,1-1.5-.5m98.5,1.5l1.5-1,1.5.5-.5,1-2.5-.5m-93.5,4.5l-4-1-7,.5,2-1v-1l1.5.5.5-1,5,1,.5-.5-1-1,.5-1h-1l3.5-1,.5-1.5,2.5.5-2,1v1l-2.5.5,1.5,2-1,1,.5,1m5.5,2l-1.5.5-2-1,1.5-1.5v-1l1.5-1.5,2,2-2,1,2,1-1.5.5m89-4v.5-.5m-85.5-6h.5v.5l-.5-.5m88.5,3h.5-.5m-120.5,6l1.5-1,.5.5-1,.5h-1m-25.5,13h-1.5v-1.5l2.5.5v1.5l-1-.5m74.5.5h.5-.5m-72,0v-.5.5m-14-7.5h.5l-.5.5v-.5m-5,1l1.5.5-1.5.5-3.5-1.5,3.5.5m-8,0h-1.5,1.5m16,1h.5-.5m7,7.5l1-.5h.5l-.5.5h-1m4.5,8h-3.5l4.5-2.5,1,1.5h2l-2,.5-.5,1.5-1.5-1m447-48v-.5.5m-461.5,42l2-1,.5.5h-1l-1.5.5m26,0h-.5.5m-37,1h.5-.5m37.5,3.5l-1,.5-.5-1,.5-1,2,.5-1,1m-7,.5v-.5.5m-38.5,9.5v-.5,1-.5m32.5-6.5l.5-.5,1.5-.5-1.5,1h-.5m-95,3h.5-.5m-7.5,3.5v.5h-3l.5-.5v-.5l3.5-.5v1h-1m-40.5,45h-.5l-.5-1,1.5.5-.5.5m6,15l-3-.5v-.5l.5-.5-.5-1.5-1.5-.5,1-1-1-1.5,3-.5-.5-1-4.5,1-.5-.5,1-.5-2-1.5v-1.5l-1-.5.5-1-1-1,1.5,1v-1.5l1,.5.5-1,1,.5-1.5.5,2.5.5-.5.5,1,1.5h4l.5-1-2.5-1.5,1-1.5-1.5-1,1-.5-.5-.5,4.5,1-2.5.5,1,1,8-3,1.5,2.5-.5.5,2.5,1-.5,1.5-1.5,2.5-7,1.5,4,1.5-.5,1.5-2.5.5v-1.5h-.5l-5.5-.5,2,2h2.5l.5,1.5-2,1-2.5-1v1l1,.5v1m-7-38.5l.5-.5h4l-3,.5h-1.5m5-.5l1-.5.5.5h-1.5m-7,.5h.5-.5m42.5,4.5h.5-.5m3,8.5v-1,1m-141.5-19l4,3.5,2,3.5,1.5-1.5,1,1-.5,3v1l-8-10.5m80,44v.5l-2.5-1-1.5-2.5-4,1-2-1.5,5.5-.5,3-2h1l.5,1h2l.5,2v1l1,1.5-1.5,1h-.5l.5-2-1-.5-1,.5v1.5m1.5-8l1-1h1.5l-2,1.5-.5-.5m15.5,3.5l1.5-.5,1,.5h-2.5m-23.5-2.5h.5l1.5.5h-1l-1-.5m15.5-5h.5v.5l-.5-.5m-5.5.5h.5l-4,.5,1.5-1,2,.5m-12.5,1l2-.5,1-1.5-.5,1v1h-2.5m6,20l-.5-.5h.5v.5m4.5,2l-.5.5-.5-1,1.5-1.5.5,1.5-1,.5m-18,0l-1.5-.5,1.5-2.5,2-1,4,1.5-3.5-.5-1.5,1-1,2m3.5,0l-.5.5-1-1,2-.5-.5,1m15.5,4l1-1.5-.5-2,1.5-2h5l2.5-1.5,1,.5-.5,1.5-3-.5,5,5h-1.5l-1,2.5h-.5l-1-2.5-2.5-1-.5.5,2,2-.5,1-2.5-.5-2,1.5.5.5-3-.5,1-.5-2.5-1,2-1.5m-4-1l-2,.5v1l-.5,1-2.5,1-1.5-1v-1l-2.5-.5v-2.5h-.5l2-2.5,2-1.5,3,1,1-.5,1,.5,1,2.5,2,.5-2.5,1.5m-18.5,5l-5.5-2-1.5-2,6-3,5,.5v-.5l1.5,1-.5,1.5-2,.5-4-1-2.5.5,3,2,.5,1,1.5,1.5h-1.5m4.5-4l.5.5v.5l-.5.5.5-1-.5-.5m6,2h.5v.5l-.5-.5m17.5,1h.5-.5m-39.5-4l1.5.5,1,1.5h-.5l-2-2m1-13.5l1-.5.5,1-1,1.5-.5-2m33.5,3.5h-.5l-.5-.5,1-.5v1m-138.5-10l.5,1.5-5-2.5-1.5-2v-2.5l1.5-2.5,1.5-.5.5,1-1,.5,5,2.5,1.5,2h-2l-1,1v1.5m693,3.5v.5l-.5.5.5-1m-561,23.5l-2,.5-5-2,3-1,5,.5,1.5,1.5-2.5.5m-6.5-3h.5-.5m-20.5,0h.5v.5l-.5-.5m26,22h-1.5l-1-1h2l2-.5v-.5l-5-2,.5-.5-2.5-.5-.5-.5,11,3-.5.5.5,1-.5.5h-3l-.5,1-1-.5m-7-2.5h1l-1,.5.5,1h-.5v-1.5m2,1.5h.5-.5m-3-12.5l1.5-.5,2.5,1.5-2-.5-2.5,1-1.5-.5,2.5-.5-1-.5h.5m-4.5.5l1-.5.5,1h-1l-.5-.5m5.5-5h1l1.5,1h-2.5v-1m1,2l1,.5-2.5-.5h1.5m10.5,2l.5-.5v.5h-.5m-16-1.5h1.5l.5.5-2-.5m12,5h.5l1.5.5-1.5-.5h-.5m-17.5,5.5v-.5l.5.5h-.5m-5.5,8.5l.5-.5v.5h-.5m47,6l.5.5-4-1,1.5-1,2.5.5-1,.5.5.5m-3.5-6.5l1-.5.5.5-.5-.5-1,.5m-80.5-6l4.5-3,4.5-.5,4,1.5,2.5,2,.5,1.5-.5,1-2.5-2.5h-2l-1.5,2.5h2-2l-6.5-3.5-3,1m77.5,7.5l1-.5.5,1-.5.5-1-1m8-.5l1.5,1-1.5,2-2-2-.5-.5,1-1-1.5-1h1.5v1l1.5.5m-91.5-6.5l-4-1-1-2v-1.5l2-1.5,3-.5,3.5,4.5-3.5,2m49,8l1-.5,1-.5-.5.5-1.5.5m47.5,11l-6.5,1-2-1-.5-2.5,1-1-.5-.5,1.5-1,1,.5.5,1.5,5,.5v.5h-4.5l5,1v1m-15-2.5v.5-.5m18,5.5v-1,1m-11.5-.5h-.5,1.5-1m9,1.5l.5.5v-.5h-.5m-54-4l1.5-.5.5,1-2,1-1-.5,1-1m56,10.5v1.5h-.5l.5-1v-.5m1,8.5l.5-.5v1.5l-3,2.5-3-1,4-1.5-5.5,1-1-.5,3-3,.5-1,2-.5,1.5-2,1-2h-1l1-.5,1.5-3,3,2.5v1l-1.5-1-4,8h1m553-38l-2.5,1,.5.5-.5,1.5-1.5-1-3,2-2,3.5-5-1-1.5,3-4,3-2,3.5-4-1-6,1.5-2.5,1.5,1,1.5-3-1.5-2.5-3-1.5-5v-1l6-4.5.5-2,.5-5.5.5-2,7.5-2h3.5l5,1,5.5,3,3,.5,1-.5.5-2-1-1.5.5-2.5,1.5-2.5,7.5-3,2,2-4.5,3.5-3.5.5.5,2.5,3.5,6m-708.5,27l-.5-.5h.5v.5m.5,0h-.5.5m-8.5,5.5h1l.5,1h-1.5l-.5-1h.5m6.5,3l2.5,1.5-1.5-1-1-.5m-4,.5l1-.5.5.5-1,.5-.5-.5m0,1l1,.5-1-.5m2,1h.5l.5.5-.5-.5h-.5m597,38l.5-.5v.5h-.5m-642.5-1.5l-1.5-.5.5-.5-1.5-1v-2l2.5-3,8.5-7,3.5-4.5,1.5-1,4.5,5.5,2,7v1h-1.5l1,1-.5.5v3l-.5.5,1,1.5-1.5,1,1,4-1,1v1l-2-.5-2,1-11-4.5-1-2.5-2-1m15.5-30.5v-.5l.5.5h-.5m167.5,25.5l-1-1v-1l1-1,.5,3h-.5m-175.5-24.5v.5l-1.5,1,2-3,1-.5,2.5.5h-2.5l-1.5,1.5m636.5,35.5l-.5.5v-.5l.5-2,.5,1-.5,1m-3,3.5h.5l-.5.5v-.5m-4.5,6l1-1h1.5l-1.5.5-1,.5m-15.5,11l-2.5,2-.5-2,2.5-3,1-.5.5,1,1-.5-2,3m-572.5,15.5l.5,1v1l-2-2.5,1.5.5m1,4.5h1-1m-.5.5h-.5.5m567-15.5l1-1-1,2.5-3.5,1,3.5-2.5m-573,.5v-.5l1-.5.5,1v1.5l1.5,1-.5,1-2-1.5-.5-2"/>
      <path data-code="KYA-TAS" d="m372.16,1678.16l9.5-16.5,6.5-15h1.5l1,2,4,3v-.5l3,1,3-.5,2.5,1h1.5l1-1.5,2.5.5,1.5,1,1,3,10-2.5,7.5,3.5,5-.5,4,1.5,2.5,3.5-.5,2,2.5,1.5-1.5,2,.5.5-1,1,.5,1v1.5l11.5-2,2,1.5.5,2.5v3.5l-5.5,4,1,4v15.5l6-.5.5,2.5-1,3-1.5,1-10,1.5.5-3.5,1.5-1-2-4-2,2.5-8-1-2,2-2.5-.5v-2.5l-5,2.5-7.5.5v1h1l-2,3-4.5-1-.5,2.5-3,.5-.5-1-2-.5v1.5l-4-.5v1.5h-1l-.5,1.5-6,2-6-1-6-12-4-7.5v-2l-1.5-3.5.5-1.5,2-.5-.5-3-1.5-1.5-4,.5-.5-2.5"/>
      <path data-code="KYA-TYU" d="m182.16,1725.16l6,.5.5-4.5h1.5l1-2-4-.5,1.5-7-2,1,5.5-20-2.5.5-4.5-1-.5-2.5,2,.5,3-6,4,.5,5.5-16.5.5-2,1,3,1.5-.5,1-4h2.5l-.5,2,.5,1.5,2-3.5-.5,1.5,2.5-.5-2-2,1.5-7,3,2,5-1.5,1-2.5-.5-4,.5-3,13.5-3.5v2l-3.5,3.5.5,3-1.5,3,.5,2.5-1,.5,9.5,2,1.5,2.5-3.5,3.5-3,1-3.5,22-4,6-1,6h6l4,2v1l2,1.5v2l3,2,.5,1.5-.5,1.5,1,1.5v2l-2,3.5,1,1.5-1.5,1.5.5,1-1,1-2.5,1-1,3,3.5,6-8,2.5.5-1.5-3.5-.5v2.5h-1.5v1h-1.5l.5,1-2,1.5h-2.5l-2,2-1-.5-.5-3-3.5,1.5-.5-1.5-3,2-2-1-2,3-8.5-1.5-.5,1-6-.5v-3.5l-3.5-1-.5-2,1-.5.5-4.5h-2l-1.5-6.5"/>
      <path data-code="KYA-TUR" d="m52.66,915.66l2-3.5,1.5,1.5,4-1.5,2.5,1.5,8,1,1.5-2-.5-3.5.5-3.5-.5-1.5v-1.5l6.5-3-.5-2.5,1-3,.5-1.5,2.5-1,3-8,4.5,5v1.5l4,3.5,2,.5.5,1v2l-1,1.5v.5l-.5,1.5h3l2.5,5-1,2-1.5.5-.5,1.5-3,.5.5,1.5-2.5-.5-.5,1,1,1.5-1,2,2.5-1,1,2,1-2.5,1.5,1.5,2-.5-1,1,.5,1.5-1,3,1.5,1,1.5-1,1,.5-.5,1.5-1.5,2.5,2.5,2.5h2l1.5,2.5,1,.5-.5,1,1.5,3-.5,1.5.5,1-.5.5,1,.5-1,1,.5.5h-1l.5,1.5-1,1.5h1l2-1.5,3,2,.5-.5-.5-.5,1.5.5v-1.5l2.5,2-.5,1,1.5,1-1,1.5,2,1.5-.5,1.5.5,2.5,4.5.5v1.5h-.5l.5,1.5h-.5v1.5h-1l1,3.5v2.5l2,1,2.5-.5-.5.5,2,1.5-.5,1h1l-.5,1,.5.5v1.5l.5,1-.5,1.5,2,1.5,4.5-1,.5-1.5,3-1,.5-1-.5-1,.5-1,1,.5v-1l3-1-6.5-1.5-1.5-2.5,1.5-1h2v-1.5l1-1.5,2.5-2.5-1.5-1,.5-.5,1,.5,3.5-2.5-.5-.5v-.5l2,1.5,1-1,1.5-2-.5-1,1-1v-1l-3-1-.5-2.5-2-1v-1h2l1.5-1.5v-1h1v-1l1-2,4-1-1-.5,1.5-3,.5-.5,1-1,1-2,3,1,1.5-1-.5-2.5,1-1-.5-2.5.5-1-.5-1,5-2,16-1.5,3,.5,5.5,33,14,20,1.5,2.5,11,1,3-5h3v2l1,1.5,3.5-1.5,1.5.5,2-.5,5.5,2.5,2.5-2h2l4.5,3h5l1.5-.5,1.5-3v-3l3.5-3,6.5,8,3.5-2,10.5-2,15.5,7.5,6-3,4,.5,1.5-2.5,2.5-.5,1.5-1.5,2,.5,1,1v1l1.5.5v3.5h-1.5v1.5l-2.5,4-3.5,2.5-3.5,5-4.5,9.5-1,4.5-2,3.5-18,20.5-6.5,3.5-1,8-1.5,6.5-.5-.5v-1l-8.5-4-9.5,1-1,2.5-1.5,1,1,1.5-.5,1.5-1.5,1.5.5,1.5-1.5.5.5,1.5-1.5.5,1,4-2,1.5,1,1h-1.5l.5,1h-.5v1l-1,.5,1.5.5v1.5h-1.5l.5,1.5,1,.5-1,1.5,1.5,1.5-.5.5.5,2-1,1,1,2,.5,6.5-1.5,1-.5,2.5-5.5,3v1.5l-1.5,3-2,3h-1.5l-1.5,3v3.5l-1,1-1,2.5,1,.5,1.5-1.5h2.5l.5.5-.5,1,1,1,.5,1.5,1.5.5,2-1,3,1.5,2-1,2.5,1v2l.5,2.5,2.5,3-2.5,3,6.5-1,2,4-4.5,4.5.5,1.5h2l-.5,2,2.5,3.5-3,1.5-1.5,4.5v.5l-2.5.5.5.5-1.5,1-1.5,3-3,3.5.5,1.5-1,.5-.5,3.5-1,.5,1.5,1.5-.5,1.5,1,.5v1l11.5-1,1.5-1.5,5.5-2,1,1.5-.5,1.5.5,1-2.5,4,.5,1.5,1,1,.5-1,5,.5,2.5-1-.5-1.5.5-1.5,1.5.5,1,2-.5,1v.5l-1.5,1.5,1.5,1-1,2.5h1.5l2,2.5v2h1l1,2,3,3,2.5-1,1-1.5-1.5-3,1.5-2.5,2.5,2,1.5-1,1.5,1.5v1l-3,6.5,1,.5,3-1,2,1.5-.5,1-2,.5.5,1-.5.5v.5l2.5.5,1.5-2,2,.5,1.5-1,1.5,2,3,1.5-.5.5v1l-1,.5,1,2,3.5-.5,2-2.5,4.5,1.5,2.5-1,5.5.5.5.5.5,2-1,2.5,2.5,1.5-1,2.5-1,.5v1l1.5,1.5h2.5l1,1,1,3.5,3.5-1,1,1-1,2.5.5,1v2.5l-1.5,2.5h-1l-.5,2-2.5,4,8.5,4,.5,6,1,3-.5,1-2,2.5-1.5,3.5-6,1-1,1.5v2l-.5.5v.5l-3.5,3,.5.5v2l-.5.5.5,1v2.5l-4,5v1l-.5,1v1.5h1l1,2.5-1,1.5-.5,6.5,1,1,.5,1.5,1.5.5v3l1.5,3-5.5,7.5-17.5,12-3.5,4-2.5,8.5h-1.5v4l-5,.5-4-1-3,1-1,2-1.5,1v1l-1.5,2v1.5l-2-.5-.5,2.5.5,1-2,3.5-1.5,1.5-2,.5v1.5l-1.5,1,1,2.5,1,4.5,4.5,3,1.5,2,1,5,2,3.5,3,.5v2.5l2,2h-.5v2l2,2,1.5.5-.5,1,1.5,1-.5.5.5,1.5-.5.5,1,2.5,2,2-.5.5v1l-.5.5-4.5-.5.5,1.5-1,1v1.5l-1,.5.5.5-1,.5.5,2-2,1.5-.5,3.5,2.5,2h1.5v2l-1,2h1.5v1.5l1.5,1,.5,1.5v.5l.5,4-1,1v1l2,1v1.5l2,2.5,7,15,3,3-.5.5,1,1,.5,2,2,1.5v1h.5l.5,3.5-2,2.5-11.5-.5-39.5-5.5-1.5-2-2.5-6v-2l-2.5.5-.5,2-3-2.5-.5.5,1,1-2,.5-1,1.5-1.5-3-2,2-2-3,1-.5h-2l-1-1.5-1.5,1.5v-1.5l1-1h-2l.5-1-1-1,1-.5-1-1,1-1-2,.5-1.5-1.5-1-2-1.5.5-1-1,1-.5v-2l-1-1.5,1.5-1-2,.5v-2.5l-4-.5,3.5-1-1-2,1-1-2,.5-.5-1.5h-1l-.5.5,1,.5-1,.5-3-2-1,1-1.5-.5-1-1,.5-1-1.5-1v-1l-1.5.5v-2.5h1v-1.5l-.5-1h-1.5l.5-1.5-1-1-.5,1h.5l-2,.5v.5l-.5,1-2-.5v1l-1.5.5-1-1-2.5.5.5.5-1,.5-2-1-2,1,.5-1h-3.5l-.5-.5.5-.5-1.5-.5v-1.5h-1.5l-1.5,1.5.5.5-3,.5-.5.5h1l-.5,1.5,1-.5.5,1.5h-1v1.5l-1-.5v1l-1,1h.5v.5h-2l-1,1.5-.5-2.5-1.5-1.5h.5v-1.5l1-.5-1-1-.5-2.5-4-1.5h-3,.5v-1.5l-4.5-3v-.5l-3.5-3-2,.5,1,3-.5,1.5.5,1-1.5,2-11,1.5-2.5-3v-4l-2.5-1-3-3-2,1-2.5,4h-2.5l-2.5-4.5-2.5-2,.5-1.5v-4.5l-3.5-3.5-4,1-7-4-2-5-4.5.5-5-6-5.5-3.5-2.5,1-6-4.5-.5-3-2.5-4.5.5-4.5-1-3,.5-4.5-.5-7,2-1.5,3-5,5-6.5,8-5-.5-.5.5-2h-.5l.5-.5-1-.5v-.5l.5-.5-.5-.5,1-1v-1l2.5-.5,2.5-2.5h1l.5-1-1.5-.5v-1l3.5-2.5,2.5-6.5,2-1,3-4,3.5.5,1.5-1.5v-1.5l1-1-1-3,3.5-2,.5-1.5-1-2h1l-1-2.5-1.5-1.5h.5l-.5-1v-1.5l.5-1-.5-1,2-1-.5-.5,1-1.5-.5-.5v-1.5h1l-.5-.5h1l-.5-.5.5-1h-.5l4.5-3.5-.5-.5.5-.5-.5-1v-.5l-2-.5-4.5,1v.5l-1.5-1v-1.5l-1-1,.5-1-.5-.5,1,.5-.5-.5,1-1-1.5-1.5,1-.5-.5-.5v-.5h-.5v-1l-2-2,.5-.5-2.5,1.5v-2l-1,1-2.5-1.5v-1l-.5.5v-1.5l-1-.5,1-.5-1.5-1,1-1,2.5,2.5,1.5-3,1.5.5,1-1-.5-.5v-.5l2-.5-.5-1,1-.5-.5-1,1.5-2-.5-1,.5-.5v-1.5l2-1-1-1,.5-1-1-.5,2-2-.5-1.5,3.5-.5.5-1.5-.5-1.5,1-1,4-1.5,3-2.5,6-3h2v-4.5l-.5-1,2-3.5v-2l.5-1.5,1-3-2-7.5.5-4-3.5-5,4-5v-2l-2-5.5,1-7.5-3-3.5-5.5-2-2.5,1-3,2.5-3-.5-4,2,.5-2.5-1-.5,1-1.5-3.5-.5.5.5-.5.5-.5-1,.5-.5-2-.5.5-1.5-1-.5,1-1,2-.5-.5-1,.5-1,1,.5-3-3h-1l.5,1-2.5-2-.5,1.5-1.5-.5-2.5,1-2-.5-1,1.5-1-1.5v1l-1.5-1-.5,1-1-.5-.5.5-.5-1v-.5.5l-1,1.5-3-3,1.5-1.5v-1l1-.5-.5-1h1l.5-1v-1l1-2h-1.5l.5-2-.5-.5v1l-1,1-.5-3,4.5-7.5,4.5-2,1-4.5-1.5-7,1-1,.5-2-.5-2.5-1.5-1.5v-2.5l-2.5-.5-4.5-3.5,3.5-1.5-.5-1.5,1-1,.5-2.5-4.5-1-3.5-7-7-1-6,1.5-2-4,2-2.5-.5-1v-1l1.5-1.5-4.5-4.5v-1l-1-1h.5l-1.5-1.5.5-.5v-1h.5l-.5-1-1-.5,2-2,1.5-.5v-2.5l4.5-1.5,1.5-2-6.5-14.5-4-2.5-.5-4.5,1.5-9h3l3-3,1,.5.5-1-1.5-1v-1.5l-1-1,.5-1.5-1-1.5v-2.5l-1-4.5-2-1-.5-2.5-5.5-7.5-16.5-19v-2h2.5v-2.5l1,1.5,1.5-.5-1.5-.5v-1.5l4-.5-.5-1,.5-1-1.5.5v-1.5l1,1,.5-1-1.5-.5-.5-.5.5-.5-1-.5.5-.5v-1l-.5-.5,1.5-.5-1-1h1v-1l1,.5-.5-1.5,1.5.5-.5-1h.5l1.5.5-1.5-1.5,2-.5-.5-1,.5-1h-1.5l1-2-2.5,1,.5-1.5-1,1.5-.5-1.5-.5-.5.5-.5h-1.5v-2l-1.5-.5v-.5h-.5l.5-.5-2-2.5.5-1,.5.5v-1l1.5-.5v-1l-1.5.5,1-.5-.5-1,1-1h-1v-1h.5l-1-.5-.5-1-.5.5-1-1,.5-.5-1.5-1,.5-1h-1.5v-1h.5l-2.5-4.5.5-1.5-1.5-1"/>
      <path data-code="KYA-UYA" d="m371.66,1788.16l.5-1h2l1-1.5v-3l2-1,.5-1-1-3,3-1.5-.5-2.5-1-.5v-1l1-.5,1-4.5,1.5-1.5-.5-3.5h3l.5,1v4l.5,1.5,6-.5-.5,5.5,5,6-.5,4,2.5.5,2.5-1.5,1.5.5v3.5l.5,1-3,.5.5,1.5-.5,3h5.5v1h1v5l-3-.5.5,2.5-1,4.5-12.5.5-.5-1-1,1h-5l-3-4-1.5-.5-1-2,.5-5-3-.5v-3l-3,.5v-2.5l-.5-.5"/>
      <path data-code="KYA-UZH" d="m224.16,1821.16l.5,1,.5.5v-1.5h-1m-16.5-9l3.5-1,.5-1.5h1.5l3,.5,2-2,.5-3.5h.5l-2.5-6.5,2-1.5,2,2.5,4-1v-3l6.5-.5,1,2,7-.5,3.5,4,.5,1.5-.5.5,2.5,1,2-4,4-1,5,4-1,3.5.5,2.5,4-.5-1,1,.5,1-1,3-5,3.5.5,2,2,1.5,1.5-.5,1,8.5-2,.5.5,5-2.5,1-1.5,1.5h-2l-4,3-1-1.5-2,1-4-1v-2.5l-1-1.5v-1.5l-3.5-.5.5,2-1,1.5-4.5-1.5-3.5,1.5-.5,1-6,1v1.5l-2.5,3-2-2h1l-1-.5,1-2,1-.5h-2.5l-1-3.5.5-2h-1l-2-4.5v-1h4l-.5-4.5.5-3v-2l-1.5-.5v-3h-2l-2.5,4.5-.5-.5-.5-3-1-1"/>
      <path data-code="KYA-ZSO" d="m224.16,1821.16h1v1.5l-.5-.5-.5-1"/>
      <path data-code="KYA-ZZE" d="m395.66,1769.16l.5-4.5,5.5,3.5,1-2.5-.5,2.5h1l.5-1,1.5.5,1,1.5,1,.5v2l-2.5-.5-.5.5,1,1-.5,1-2.5.5-4-3.5-2,.5.5-1.5-1-.5"/>
      <path data-code="KYA-ZZH" d="m357.66,1752.16l.5-1.5,3.5-1.5,1.5,1,3-1-1,1.5v2.5l-1,1-4,1-1-3h-1.5m-1,13l3-3.5-1-4.5,3-2.5,2.5.5,1-1.5.5-3,.5-1.5,6.5-.5-.5,1h2l-.5.5.5,1.5-3.5.5v2.5l-3,7.5-3,3.5-5,.5-.5-1v-1.5l-2.5,1.5m1.5,3.5l1-2h1.5l1,1.5v1.5l-3,.5.5-2-1,.5"/>
</svg>