<svg xmlns="http://www.w3.org/2000/svg" viewBox="0 0 103 90.6">
      <path data-code="KC-ABA" d="m80.75,19.9l-3.85,4.35-2.65-2.5,2.5-3.35,4,1.5Zm-23,10.5l3.5-3.5,5-2,2,3,3-2,3,1-5,3.35-1.5,2h-.5l-1,2.5h-5l-1,.65-2-2,1-2-1.5-1"/>
      <path data-code="KC-ADY" d="m66.25,4.9h2l1-2,2.5,1.5,2-2,2-.5,5.1,2.5-5.6,8.4-2.5-1.5-3,1.15-1.5,1.5.5-5-2.5-4.05m13,8.85v4l1-1.5.5.5v-1l1.45-.35.05,4.35-1.65,1,.15-.85-5.25-1.9,3.75-4.25Z"/>
      <path data-code="KC-CHE" d="m74.25,26.9l6.5-7-.5,2.5,1.5.35.5,1.5-.5,1-.5-1-3,4.5-4-1.85"/>
      <path data-code="KC-KAR" d="m57.25,45.9l-.5,1.5,1.5,1-1.5-.5-3,.5v-1l3.5-1.5Z"/>
      <path data-code="KC-KARM" d="m53.75,48.4l3-.5,1.5.5-1.5-1,.5-1.5-3.5,1.5v1Zm-27,14.85v-1.5l3-1.5v-1.5l1.5-.5,2-4.5,1.5,2.5h1.5l1.5-2.5,3-.5.5-2.5,3,.5-.5-2.5.5-.5,4-1.5.5,2,1.5-1v-1l2-2v-1h.5l2-3.5-1-1,2.65-2.65,1.85,2.75,2.5-1.15-1.5,1v1.5l3,1,.5,5.5,3.5,4,1.5,4,2.5.5-1.5,9.15-1.5,1,1,1-.5,1-1-.5v1l-2.5,3.5v1.5h-.5v2l-1.5,2,1,1.5-1,2-2.5,1.5.5,3h-1.5l-2,2-1.5,3-2.5-1-1.5,1-3.5-1-1-2.5-5.5-2h-3l.5-2.5-3-.5v-1.5l-1-1.5v-1.5h-1l-2,1.5-2-.5-1.5-4.5-2,.5-.5-2h-2.5l-2-6,1.5-2.65,4-.45Z"/>
      <path data-code="KC-KHA" d="m50.75,29.75l.6-2.25-.1,1.75.5-1.5h1v1.5l3.5-1.5,2.5-2.5h2l1-3,2.5-1.5-1-2.5,6.5-5.85,3,2.5-1,1.5.5.5,4.5,1.5-5.5,7.5-3,2-2-3-5,2-3.5,3.5,1.5,1-1,2,2,2h-1.5l-.5,1.5-1.85-.25.35-1.35h-2.5l-3-5h-2l1-2,.5,1.45Z"/>
      <path data-code="KC-MAL" d="m77.8,43.2l2-1.5,1.95,1.7,1-.5-1,2.5.5.5-1,1,3.5,3.5,1-.5v-.5l1-2,4.5,2-2,3,1.5,1-1.5,1.5,1.5,1.5-3,2v2.5l-1,.5-.5,1,.5,2-1,.5-3.5,6-4.5.5-7-1.5-3,6.5-2.5,1.5-1,2.5-1.5-.5.5-1-1-1.5,1.5-2v-2h.5v-1.5l2.5-3.5v-1l1,.5.5-1-1-1,1.5-1,1.5-9.15v-1.5l5-1.5-2.5-1.5-1.5.5.5-3.5,1-.5-.5-2,1.5-2.5,4.05-.05Z"/>
      <path data-code="KC-NOG" d="m72.75,11.25l2.5,1.5,6-9,3,2-4,4.5,2.5,5-2,.5v1l-.5-.5-1,1.5v-4l-3.75,4.25-3.25-1.1-.5-.5,1-1.5-3-2.5,3-1.15Z"/>
      <path data-code="KC-PRI" d="m78.25,28.75l3-4.5.5,1,.5-1-.5-1.5-1.5-.35.35-1.65,1.65-1v-3l7,4.5,3.5,5.5,2.5,1.5.5-1,3,2,2-2,2,1-.5,1,.5,1.5-.5,1,.5,1.5-1.5,2.5-2-1.5-2,2.5-2-1h-2v1l-1-1.5-1,2-2.5-1.5-.5,1h-2.5v1.5l-2,.5-1.5,2v-2l-4-1-.5-.5,1.5-2-3-4.5-1.5-1-.5-2.85,4,1.85Zm-4-7l2.65,2.5-2.65,2.65-3-1,3-4.15Z"/>
      <path data-code="KC-URU" d="m6.25,19.75l2-1,2.5,1v-3.5l3-1,2-2.5h1l2-1.5,4,.5,5-3v-1.5l1.5-1.5v-1l1-.5-1-1.5,1.5-2.5,1,.5,4,4.5.5,2.5,2,.5,1-1,.5,2.5-.5.5,3,1,1.5,2.5-.5,1.5-.5-1-.5,1.5-3,1,1.5,1-1,2-1-1-2,2.5h-1.5l3,3.5-2,4.5v2l-3-.5-2.5,2.5.5.5-1,3,1.5,1.5h1.5l-.5.5-7.5,3.5-4-1-2.5-4.5-2,3-1.5-1-3,.5v7.5l-1.5.5-1.5,2.5-1.5-2v-3l-3-1.5.5-1.5-1-1.5,1-2-2-1.5L.25,31.25l4-3.5.5-4,1.5-1.5v-2.5"/>
      <path data-code="KC-UST-DZH" d="m58.25,36.9l.5-1.5h1.5l1-.65h5l1-2.5h.5l1.5-2,5-3.35.5,2.85,1.5,1,3,4.5-1.5,2,.5.5,4,1v2l-2,.5v1.5l-.5-1-2,1.5h-4l-1.5,2.5.5,2-1,.5-.5,3.5,1.5-.5,2.5,1.5-5,1.5v1.5l-2.5-.5-1.5-4-3.5-4-.5-5.5-3-1v-1.5l1.5-1-2.5,1.15-1.85-2.75,1.85.25Z"/>
      <path data-code="KC-ZEL" d="m12.25,39.25l3-.5,1.5,1,2-3,2.5,4.5,4,1,7.5-3.5.5-.5h-1.5l-1.5-1.5,1-3-.5-.5,2.5-2.5,3,.5v-2l2-4.5-3-3.5h1.5l2-2.5,1,1,1-2h2l-2,1h1-1v1.5l1.5,1.5,1.5-2,.5,3,2.5-.5,1,1,2-3,2,2.5,2.5-3,4,1v-1l.5.5,4.5-2,1,2.5-2.5,1.5-1,3h-2l-2.5,2.5-3.5,1.5v-1.5h-1l-.5,1.5.1-1.75-.6,2.25-.5-1.5-1,2h2l3,5h2.5l-.5,2-2.5,2,1,1-2,3.5h-.5v1l-2,2v1l-1.5,1-.5-2-4,1.5-.5.5.5,2.5-3-.5-.5,2.5-3,.5-1.5,2.5h-1.5l-1.5-2.5-2,4.5-1.5.5v1.5l-3,1.5v1.5l-1,1.5-3-1-.5,1-1.5,1-1.5-3.5,1-2.5v-1.5l-1-1-2,1-2.5-1,.5-1.5-1-1-.5-1.5-1.5-1.5v-2l-2.3-1.15.8-1.35,1.5-.5v-7.5"/>
</svg>