<svg xmlns="http://www.w3.org/2000/svg" viewBox="0 0 205.5 259.36">
      <path data-code="KDA-ABI" d="m33.25,119.11l2-1.5,2.5,1.5,1.5-2.5.5.5,2-2-.5-1,3.5-2.5,2,1.5,3-3.5-.5-1.5,4,.5,6.18-9.41,1.82,1.41-1,1,1,1.5,1.5-.5.5,4.5,2,2-.5,1.5.5,1.5,2-1-.5.5,2,.5,1,2-2,2.5-1-.5-.5.5-3-3-1.5,2.5-2,1-.5,1.5,1.5,2.36-4,4-1-1-6.5,5.5-1.5,3-1.5-.5-.5,1.5,1,1-2,1.5.5.64-1.5,2-1,.5-1.5-3.5h-2l-4.5-5,1-.5-1.5-1h1.5l-1.5-.5,1-2-3.5-1,1-1-1.5-2.5,1-1.5.5.5.5-2"/>
      <path data-code="KDA-ANA" d="m11.75,70.98l6.5,8.5,5.5-1.5,2,.5,1.5-.5,2,1.5,3-.36.5,1-2,1,2,2-2,3.5-.5,3,2,5-2-1-1,.5-1-1.5v3.5l-1-2-2-1-3,2.5.5,1-1,1.5-1.5-1-2.5,3.36-2-.5,1.5,4.14h-.5l-3,3h-1.5l-.5-5,.5-.5.5-1,1.5-8.5h1l1-1v-4l-2.5-8.5-5.45-9.93,3.45,2.3Zm0,30.64v.5-.5"/>
      <path data-code="KDA-APS" d="m68.25,170.11l3-.5,2.5,2.5,2.5-1,1-1-2-3.5,3-.5.5-1,2,1,3.5-3,2.5,1v3l2,1,3-2-.5,2,3.5,2-2,2,.5,5-2,1,1.5,2,1.5-1v1l1-1.5-1-3,2.5-.5,1-1.5,1,1-7.5,11-1.5.5v1.5l-3,2,.5,1.5,1.5-.5v1.5l2,1-1.5,3-.5,2.5,2.5,1,.5,2-1.5,1-1.5,3-2,1.5.5,1.5-1-1.5-3,1-.5,1h-1.5v-2.5l-1.5-2.5,1-4.5-3.5-2-1.5,1.5-.5,5.5-3.5,3-1,1,.5,1.5h-2.5v2.36l-2-.86-1.5-4,1-1-2.5-5,1-1.5-2-3.64h5l1.5-3.5-.5-.5h1v-2l4-4.5-2-2v-2l1.5-1-1.5-3.86-3.5-7"/>
      <path data-code="KDA-ARM" d="m154.25,175.98l.5,4.5,4-.5v-.5h1.5l1.5,1-.5,2,.87,3.47-.87.03v2.5l-2-.5-1,2.14h1.5l.5,3.5h-1v2.5l-2,.5v3h-1v-1l-2,.36-.5-1.5,1.5-4.5,1.5-.5-.5-1,1-1v-1.5l-2.5.5-.5-2.5,2.5-.5-.5-2-1.5.5-.5-2.5-1-.5-.5-5.5,1.5-.5Zm-2,14.5v2l-2.5.5.5-2,2-.5Z"/>
      <path data-code="KDA-BELG" d="m184.75,99.48l5,4,3.5-5.36,2.5,2-2,3,6.5,4.5,3-4,2,1.5-3.5,5.5h-1.5l.5.5-3,4.5,3.5,2-1.5,2.5,1.5,1-3,6,1,1-4,5.5,3.5,2.5-.5,1.5-2,.5v3.5l-1.5,2-3.5-2.5-3.5,5-4.5-3,1-1-1-2.5-1-.5-1.5.5-2-1.14,1.5-2-2-1,1.5-3.5,5,3.5,2.5-4.5-1-1,2.5-2.5-2-13.5,4.5-7-6.5-3.5-.5,1-2-1.5,2.5-3.5Z"/>
      <path data-code="KDA-BELR" d="m98.25,142.61l1.5-2,1.5,1,1.5-1,.5.5-1,.5,1,.5-.5.5v.5l2-1,1.5,3-1,.5.5,1h-3.5v2l3-.5h.5l-.5,1h.5-.5l.5,1h-1v1h9l1,.5-1,1.5,1,.5-2.5,4.5,1,.5-1,2.5h-1.5l-.5,3h1l-.5,1.5-2-1-.5,1v1l1,.5v4l-3,1-.5-2.5-2.5.5-.5,2-2,1,.5,1h-1l-1,3.5-2-1,1.5-2-1-1-1,1.5-2.5.5,1,3-1,1.5v-1l-1.5,1-1.5-2,2-1-.5-5,2-2-3.5-2,.5-2-3,2-2-1v-3l2-2,4.5-1.5,1.5-1.5-1.5-.5v-2l-1-.5,1-1.5,1,1.5,1-1v-1l5,.5-.5-1,1-.5-1.5-3.5.5-1-1.5-3.5,1.5-.5h-1.5v-2"/>
      <path data-code="KDA-BRY" d="m101.25,70.11l.5,1,2-1.5h1l4,3h2l-.5-3.5,1-3,5.5,3.5-2,2.5,4.5,3-1.5,2.5,10,7-1,1.5.5,1.5,5,2.5,1.5-2,2.89,1.84-1.9,2.53.83.59-3.83,5.54-2-2-2,1-4.5-3-1.45,1.87-6.05-6.01-.5,2h-3v-2l-6-3,2.5-3.5-6-4-1.5.5-.5-1-1,.5-.5-2-2.01-.45,4.01-4.92v-2.5"/>
      <path data-code="KDA-DIN" d="m78.75,105.61l6.5-1.5v2h-1v1.5l6.5-2.5v-1.5l2.5-1,.5,1.36-1.5.5,1.5,4,1-.5,9,5.14-1,1.5,2.5,1.5-1.5,2,6,4-1,1.36-2-1-2,3.5,4.5,3.5-3.44,4.58-1.06,1.05h-2l-.5,1.5-.5-1.5-1.5,1-.5-.5h-1.5l.5-2,1.5-1.5-4.5-2-1,1.5-3-2,1.5-2,1-1-2-3,1.5-.5-.5-1-3.5-3-1,1,1,2-2.5,1-.5-1,2-2v-1.5l-1,1h-1.5l-2.5-1.5v-1.5h-1v-4l-3,1-.5,1-1.5-3v-1h1.5l-.5-5"/>
      <path data-code="KDA-EJS" d="m102.75.11l.5,1v.5l1,3.5.5.5,5.5,5.5,3,1,4.5-.5,3.5,1.5,4-.5-1.5,2v3l4.15,5.13-1.15,2.23.5.5-3.5,5,1,1-.5,1-2-1-3.5,5v1l2,4-5,6.64-6,3.5-.5,1-3.5-8-.5-3.5,1-1.5v-5l-1.5-7-3.5-3.5h-1.5l-.5.5v-.5.5h.5l.5-.5.5.5-1,1,.5,1-1-.5-.5-6.5,4.5-16-.5-3.5"/>
      <path data-code="KDA-GEL" d="m26.75,118.61l4.5-2.5,2,3-.5,2-.5-.5-1,1.5,1.5,2.5-1,1,3.5,1-1,2h.5l1,.5h-1.5l1.5,1-1,.5,4.5,5h2l1.5,3.5,1-.5,1.5-2,2,2.36-.5,2.5-2,2,3,4,.5,5.64-6.5,4h-1l-1,1.5-2-3.5-5.5-5.5-1.5-4-2.5-2.5-.5-4.5,1-2-1-5h1.5v-1.5l-1-1-1,1-1-1.5-.5-5.5,1.5-.5-.5-4"/>
      <path data-code="KDA-GOR" d="m57.75,154.98l2,.5,1.5-1v-2l1,.5.5-1,4-2,1,2,1.5-.5-1-2.5,2-1,1-4,3.04-4.78,2.96,3.92,3,.5,6.5,7,4,2,.5,1.5.5-1,1.5,1.5-1,1.5,1,.5v2l1.5.5-1.5,1.5-4.5,1.5-2,2-2.5-1-3.5,3-2-1-.5,1-3,.5,2,3.5-1,1-2.5,1-2.5-2.5-3,.5-4-4.64-2.5-1-2,1v.64s-2,.5-2,.5h-1l1-.5v-1.14h-1.5l-1.5-3h3l.5-3.36-1.5-2.64,1-1Z"/>
      <path data-code="KDA-GUL" d="m141.75,142.61l.5.5v-.5l1-.5h2l-1,1v1l1-.5-.5-.5,2.5.5,2-.5-.5,1h1l-.5.5v1l3.5,1.5,3,.5.5-.5,1,2,.5-1.5h2.5l-.5,1h1.5l.5,1.5,2.5.5.5,1.5h1.5l2,1.5,1-1v2l1.04,1.38-.54,1.62.5,1.5-1,.5v1.5l-1.5,1,.5,2-1,1.5v-.5.5l-1-.5.5,2-1.6,1.76-2.4-2.9-2,.5-.5-2.5-3,.5.5,2.5-4.5,1,.5,1.5-1.5.5v1.5l-3.5.64-1-9.5-2.5,2-1.5-3,1.5-1-1.5-3-1-.5-3,1-1-3.5.5-1.5,1.5,1.36,3-4-.5-.5,1-2-2-1,2-2.86-3-.5.5-1"/>
      <path data-code="KDA-KAL" d="m72.25,63.48l4.5-3.5-.5,3.5,1,.5,1-1,.5,1-1.5,2.5h1.5v3h2l.5,2,4-2,1.5,4,8.5,2.5.75,1.28-1.25-.28,1,9-5.5,2.5,2,7.14,1.5-.5,1.5,5-3.5,1.5.45,1.42-1.45.58v1.5l-6.5,2.5v-1.5h1v-2l-6.5,1.5-.5-3,3-.5-1-1.5.5-2h-2v-2l3.5-.5v-2.5h-1.5l.5-2.5-.5-3.5,1,.5,1.5-.5v-1l-.5-1.5-2.5,1-1.5-1.5-3-3.5,2-3.5-4.29-3.27,1.29-.23v-1l1.5-1.5-2-2,.5-3-1,.5v-2l-1.5,1h-1.5l-1.16-2.64h2.65Z"/>
      <path data-code="KDA-KAN" d="m109.75,51.61l6-3.5,6-8.14,15,10.5,1,2-1,.5,1.73,3.74-1.72.9-2.5,4,.5,1.5-1,1.5,3,3-3.5,4.5h-1l-1.5,2.5-2.5,1.5,4.5,5.5.5-.5-1-1.5,1.5.5,1-1,5.53,3.84-1.03,1.52v2l-2.6,3.47-2.89-1.84-1.5,2-5-2.5-.5-1.5,1-1.5-10-7,1.5-2.5-4.5-3,2-2.5-5.5-3.5-1,3,.5,3.5h-2l-1.5-1.14,1.5-2.5-.5-4,1-3.5.5-.5-2-.5.5-.5,2.09-2.71-1.09-4.65.5-1Z"/>
      <path data-code="KDA-KAV" d="m154.25,128.98v4l2-.5,2.5,1,1-1.5,3.5,2.5,1.24-1.95,2.76,1.95,1-1.5,3.5,2.5,1-1,4,2.64-7,10,3,2-3,4,1,3.5-1.5-2v-2l-1,1-2-1.5h-1.5l-.5-1.5-2.5-.5-.5-1.5h-1.5l.5-1h-2.5l-.5,1.5-1-2-.5.5-3-.5-3.5-1.5v-1l.5-.5h-1l.5-1-2,.5-2.5-.5.5.5-1,.5v-1l1-1h-.94l3.44-6.14.5.64.5-1.14,1,1.5,1.5-2,.5.5.5-1-5-3.5,3-5,4,3Z"/>
      <path data-code="KDA-KOR" d="m110.25,100.98l1.5-1.5,4.5.5.5-1,5,4,2.5-3.5-2.45-2.99,1.45-1.87,4.5,3,2-1,2,2,1.08-1.56.42.42-2,3-1,.5-5,7,2,2-4,6,3,1.5-3.04,5-1.96-1.5-2.5,3.5-1.5-.5v1l-3-2-2,2.5-3-1,1-2-6.5-4.36,1.5-2-2.5-1.5,1-1.5-2-1.14,4-6-1-.5,4-6,1.5,1.5Z"/>
      <path data-code="KDA-KRAM" d="m59.75,85.98v-1l2-.5,3.5-5.5,1.5-.5,2.5-3.36,4.21-.77,4.29,3.27-2,3.5,3,3.5,1.5,1.5,2.5-1,.5,1.5v1l-1.5.5-1-.5.5,3.5-.5,2.5h1.5v2.5l-3.5.5v2h2l-.5,2,1,1.5-3,.5,1,8h-1.5v1l1.5,3-1,1.5,1,1-4.5,2v-2h-1v1l-.5.5-.5-2.5v1l-2.5,1v-2.5l-.5,1-1.27-.92,1.27-1.58-1-2-2-.5.5-.5-2,1-.5-1.5.5-1.5-2-2-.5-4.5-1.5.5-1-1.5,1-1-1.82-1.41.82-1.23-.5-4.5,1.5-3-2.5-4,1-.5Z"/>
      <path data-code="KDA-KRA" d="m72.75,117.11v-1l.5,2.5.5-.5v-1h1v2l4.5-2-1-1,1.5-2.5,3-1v4h1v1.5l2.5,1.5,2.5-1v1.5l-2,2,.5,1,2.5-1-1-2,1-1,3.5,3,.5,1-1.5.5,2,3-1,1-1.5,2,3,2,1-1.5,4.5,2-1.5,1.5-.5,2-1,1-2.5-.5-.5,1-2.5-.5.5-1-1.5,1.5-.5-2-1.5,1.5-3.5-3h-3l-.5-1-1,.5,1-2.5-2.5-1.5,1.5-2-2.5-.5,1.5-1.5h-2.5l-1.5,1.5-1-1.5-1,.5-.5-3.5,1.5-1h-2.5l.43-3.1-2.43.1,2.5-1Z"/>
      <path data-code="KDA-KRYL" d="m157.75,72.11l2,1,6-1.5,1,1.5,1-1,.5.5,2-1.5-4-7,3-4.5,2.5,2-1,1.5,4,2.5-1,1.5,2,1.5v-1l1,.5,3-5,3,2-2,3.5,6,4-3,5.5,2,1-3,4.5-2-.5-.5,1,.5,1-1,1.5,2,1.5-1.5,2,3.5,2.5h-1l1,1-7-4,.5-1-1.5-2-1,.5-2,4-4-3-2-4h-1.5l-10.01-8.17,2.51-3.83Z"/>
      <path data-code="KDA-KRY" d="m30.75,81.11l2-1,1,2-.5,1.5,3.5,3.86,1.5-.5,4,3-1,1.5.5,1h2.5l.5,1.5,3.5,1,2,2h1.5l3,1v2.5l2-.5,1.5,1-5,7.64-4-.5.5,1.5-3,3.5-2-1.5-3.5,2.5.5,1-2,2-.5-.5-1.5,2.5-2.5-1.5-2,1.5-2-3,1-.5-1-2.5-1,.5,1-2.5,1-.5-2.5-4,1.5-.5v-1.64l-3-.5.5-1h2.5l-2-3-.5-2.5.5-1,3-1.86-2-5,.5-3,2-3.5-2-2"/>
      <path data-code="KDA-KUR" d="m125.75,151.61l4.21-3.31,3.79,4.17,2-1.36-.5-.5,2-.5.5,1-1,.5,2,3,1,3.5,3-1,1,.5,1.5,3-1.5,1,1.5,3,2.5-2v.5l1,9,1.08-.2.42,2.06-5,1.5.5,4,3-.5v1l2.5-.5v1.5l-3,2-1.5,3,2,5.5-.5,2.5-3-.5v2l1,1.14-2.5-.5.5-3h-2l.5-3-4-.5.5,1.5-4.5-1v-1h-.5l-2,1.5-2-.5,2.5-5,.5-4.5,1.5-2-1-3.5,1.5-3-2-10h-1l1-.5-2-2,.5-1.5.5.5v-2h-1l.5-1-3-1.5.5-1-3.5-1.5"/>
      <path data-code="KDA-KUS" d="m157.25,38.11l1.5,1,3.5-5,5.5,3.5,2-.5,4,3.5-1,1,6.5,4,3.5,3-.5,1,8,5.5-1.5,1.5,1,.5-.5.5,2.5,1.5-2,.5-2.5,4-1,.5-1.5-1-1.5,2.5-3.5-2.5-3,5-1-.5v1l-2-1.5,1-1.5-4-2.5,1-1.5-2.5-2-3,4.5,4,7-2,1.5-.5-.5-1,1-1-1.5-4.5,1.5-1.5-3.5-2,2-2.5-1.5,1.5-2.5-4-3,4-6-1.5-1-1.5,2-4.04-2.57,7.03-11.57-1-.5,3-3.5-2.32-1.55.82-1.82"/>
      <path data-code="KDA-LAB" d="m130.75,190.61l3.5-1.5h.5v1l4.5,1-.5-1.5,4,.5-.5,3h2l-.5,3,2.5.5-1,4h1v4.86l1.5,2-3.5,1,1,5.5-3,.5-.5,2.5h-1l-.5,3-1.5.5-.5,1-2.5,2h-1v-1l-4.5.5.5,2.5-1,2-1.5,7,2.5,1.5-1.5.5-1.5-1-.65.98-.85-1.35-1,1h-2l-.5-3-4-4.5,2-2,.5-1.5-1-1,4-4.5-.5-3.5,2-4v-5l1-1.5v-1l1-4.5,2.5-3,.5-6.5"/>
      <path data-code="KDA-LEN" d="m136.75,57.61l1.72-.9,1.27,2.76,2-2.5,1.5-1,3,.5,1-1,6.5,4.14,1.5-2,1.5,1-4,6,4,3-1.5,2.5,2.5,1.5,2-2,1.5,3.5h-1.5l-2-1-3.5,5.36-1.5-1.5-3,.5-3,5-3-.5-2,3-7-4.86-1,1-1.5-.5,1,1.5-.5.5-4.5-5.5,2.5-1.5,1.5-2.5h1l3.5-4.5-3-3,1-1.5-.5-1.5,2.5-4"/>
      <path data-code="KDA-MOS" d="m116.25,186.11l2-1.5,2,.5-1-2,1.5-1.5,3,2.5,1-3.5,3.5,2.5-1,1,2,1-3.5,5,2,1.5-1,1,1,.5-2,3-.5,3-3,3.5-1.5-1-.5,1,6,4-.5,5.5-2,4,.5,3.5-4,4.5,1,1-.5,1.5-2,2-1-.5-1.5,2.5,1,1.5-1,.5v1l-1.5,1.5v1.5l-4.5,3-4.5-.5-2,2-1-.5-2,2.5-2.5,1-.5,3.5-2.5-1-2,1v2.5l-1.5,2-.5,3.5-4,3.5-.5-3,.5-1.14-2-1.5-.5-3.5-2-4v-1.5l2-2v-1l-3-2,2.5-2-.5-1.36,2-2,4-2.5v-1.5l2-2h3.5l1.5-7.5,2.5-2.5v-1.5l1.5-2,1-6,7.5-.5,2.5-7.5-1-1,1-3.5,3-1,.5-1.5-1-.5,1-3-1-1,1-1,1-2"/>
      <path data-code="KDA-NOVK" d="m150.25,190.98l-.5,2,2.5-.5v-2l-2,.5m-5-15.5l5-1.5-.42-2.06,2.42-.44v-1.5l1.5-.5-.5-1.5,4.5-1-.5-2.5,3-.5.5,2.5,2-.5,2.5,3,7.5,5,3-1-.5,2.5,2,1.5-1.5,2,.5.5h-1l-3.5,5.5,1,2.5-.5,3.5-2,.5-.5-3.5-2,.5v-3l-5.63.47-.87-3.47.5-2-1.5-1h-1.5v.5l-4,.5-.5-4.5-1.5.5.5,5.5,1,.5.5,2.5,1.5-.5.5,2-2.5.5.5,2.5,2.5-.5v1.5l-1,1,.5,1-1.5.5-1.5,4.5.5,1.5-.5,2,.5,1-1,8,1.5,4.5-1.5-.5-6,2.5-.5-3-1.5.5-1-5.5,3.5-1-1.5-2v-4.86h-1l1-4-1-1.14v-2l3,.5.5-2.5-2-5.5,1.5-3,3-2v-1.5l-2.5.5v-1l-3,.5-.5-4"/>
      <path data-code="KDA-NOVP" d="m169.25,98.98l4.5,3.5,1.5-2-1-1,1.5-1.5,4.02-6.64,13.48,7.14-3.5,5-5-4-2.5,3.5,2,1.5.5-1,6.5,3.5-4.5,7,2,13.5-2.5,2.5,1,1-2.5,4.5-5-3.5-1.5,3.5,2,1-1.5,2-6-4-1,1-3.5-2.5-1,1.5-2.76-1.95,2.26-3.55-1-.5,1-1.5-2-1.5,9-13-9-7,4.5-6.5"/>
      <path data-code="KDA-NOV" d="m15.75,99.98l2,.5,2.5-3.36,1.5,1,1-1.5-.5-1,3-2.5,2,1,1,2v-3.5l1,1.5,1-.5,2,1-3,1.86-.5,1,.5,2.5,2,3h-2.5l-.5,1,3,.5v1.64l-1.5.5,2.5,4-1,.5-1,2.5,1-.5,1,2.5-5.5,3.36-.5-4-1.5-.5-.5,3.5-4.5-.5-7-9v-1l4-3.36h.5l-1.5-4.14"/>
      <path data-code="KDA-OTR" d="m130.25,222.98l4.5-.5v1h1l2.5-2,.5-1,1.5-.5.5-3h1l.5-2.5,4.5-1,.5,3,6-2.5,1.5.5-.5-1.5,5,1.5-1,2.5,3,.5-2.5,7,2,.5-.5,2.5,2,.5,1,2-1,1-1.5-.5-2,2.5-2.5-1.5-1,2-2-.5,2.5,4.5-.5,5-5.5,4.5-4,1.5-.5-.5v1l-4-1-2.5,3-1.5-2.5-2.5,3-2-1-1,.5-1-3-1.5,2-1.5-1.5v-1.5h1-1l1.5-.5.5-.5-2.5.5.5-1-1.5-.5,3-1,.5-1.5.5,1,.5-1.5-1.5-2.5-3-1,.5-1.5,1-1.5,1.5,1,.5-.5h1l-2.5-1.5,1.5-7,1-2-.5-2.5"/>
      <path data-code="KDA-PAV" d="m141.75,83.98l2-3,3,.5,3-5,3-.5,1.5,1.5.99-1.54,10.01,8.17h1.5l2,4,4,3,2-4,1-.5,1.5,2-.5,1,3.02,1.72-4.02,6.64-1.5,1.5,1,1-1.5,2-6-4.5-.5,1-2.5-2-1,1-1.5-1.5-.5,1-1-1-3.5,6-1-1.5-1.5.5v-1.5l-2,.5-1-2-2,.5v-.5l-4,2-4.5-3.5,1.5-1-3.5-2.5-1,1.5-3.5-2.5,4.5-6v-2l1.03-1.52,1.47,1.02Z"/>
      <path data-code="KDA-PRI" d="m64.75,57.98l2-1,1,.5,2.5-.5,11-9.5,4-2.5,6,2.5-1,1.5h-1l1-.5-1.5.5-1.5.5v1.5h-1.5l1,1v1.5l2-1.5,1.5-.5,1.5-2,4.5-3.5,3.5-1,3.5-4,2.5-1-1.5,2-2,.5-.5,2h-1l.5.5-1,.5,1,.5,2,11,2.5,1,1.5,2.5,1-.5-.5.5,2,.5-.5.5-1,3.5.5,4-1.5,2.5-2.5-1.5h-1.5l-1.5,1.5-.5-1v2.5l-4.01,4.55-1.24-.28-.75-1.28-8.5-2.5-1.5-4-4,2-.5-2h-2v-3h-1.5l1.5-2.5-.5-1-1,1-1-.5.5-3.5-4.5,3.5h-4.5l-3.5-2.5,1-2.5-.5-.5"/>
      <path data-code="KDA-SEV" d="m46.25,131.98l1.5.5,1.5-3,6.5-5.5,1,1,4-4-1.5-2.36.5-1.5,2-1,1.5-2.5,3,3,.5-.5,1,.5.73-.92,1.27.92.5-1v2.5l2-.14.5,1-5.5,6.5,2.5,2,2-.5-1,1.5,1.5,2.5v1.5l-1,.5,3.5,5.5-3.5,5.5-1,4-2,1,1,2.5-1.5.5-1-2-4,2-.5,1-1-.5v2l-1.5,1-2-.5-1,1-2.5-1.5v-1l-6.16-2.2-.34-3.8-3-4,2-2,.5-2.5-2.5-3,2-1.5-1-1,.5-1.5"/>
      <path data-code="KDA-SCH" d="m128.75,15.48l4.5-4,5-1.5,1,3,5.5,2.5-2,2.5,6.5,4.5,1-1,2,2-.5.5-1.5-1-3.5,5.5-1-.5-8,11-3.5-2.5-3,4-1-.5,1.5,2.5-2.5,3-7.5-5.5-1,1.5-2-4v-1l3.5-5,2,1,.5-1-1-1,3.5-5-.5-.5,1-2,5,2,2-2v-2l-1.5-3-3-3-1.5,1v1.5l-.5-1,.5-1"/>
      <path data-code="KDA-SLA" d="m45.75,69.98l4-3h-.5l6.5-9,3-1.5,5.5,1,2.5-.5-2,1,.5.5-1,2.5,3.5,2.5h1.85l1.16,2.64h1.5l1.5-1v2l1-.5-.5,3,2,2-1.5,1.5v1l-5.5,1-2.5,3.36-1.5.5-3.5,5.5-2,.5v1l-1,.5,2.5,4-1.5,3,.5,4.5-2,3-1.5-1-2,.5v-2.5l-3-1h-1.5l-2-2-3.5-1-.5-1.5h-2.5l-.5-1,1-1.5-4-3,1-1.5h1.5l.5-1.5,1.5-1v-1.5l2.5-.5,1-1-.5-8,1-1-1-1"/>
      <path data-code="KDA-SOC" d="m47.25,190.48l2-.5,1,.5,3-.5,3.5,5,2.5-2.5,1,.5,2-1,.5,4.5,2,3.64-1,1.5,2.5,5-1,1,1.5,4,2,.86,1,2,3,1,1.5-2.5.5.5-.5,7.5,1,1,.5,3,1.5-.5,1.5,1.5,2,.5-2.5,6,1,2h2.5l2.5,3-2.5,2,3,2v1l-2,2v1.5l2,4,.5,3.5,2,1.5-.5,1.5-6.5-.5-1-1.5v-2l-7-8-6.5-2.5h-1.5l-.5,1.5-7.5,4-1.5,2.5-.5-.5-1.5-4,1.5-6.5-3-8,1-4-1.5-4v-2.5l-1-8v-13.5l-2.5-8.5"/>
      <path data-code="KDA-STA" d="m130.25,39.98l1,.5,3-4,3.5,2.5,1.5-2,.5,1.5,3-4,3,3h1l1,1.5v1.5l2,1.5,1.5-1,1.5,2.5,3-4,3,2-3,3.5,1,.5-7.03,11.57-2.47-1.57-1,1-3-.5-1.5,1-2,2.5-3-6.5,1-.5-1-2-7.5-5,2.5-3-1.5-2.5"/>
      <path data-code="KDA-TBI" d="m135.25,123.48l3.5,2,2-2.5,3,1.5,1,1,.5-1,4.25,2.76-2.25,3.74,5,3.5-.5,1-.5-.5-1.5,2-1-1.5-.5,1.14-.5-.64-3.44,6.14h-1.06l-1,.5v.5l-.5-.5-.5,1,3,.5-2,2.86,2,1-1,2,.5.5-3,4-1.5-1.36-.5,1.5-2-3,1-.5-.5-1-2,.5.5.5-2,1.36-5-5.5,3.5-2,1-2-2,.5-1-1,4.5-5.5h-.5l3-6.5-2.5-1.5,1.5-1.5-2.5-1.5,1.5-2.5"/>
      <path data-code="KDA-TEM" d="m3.25,53.98v1l-1,1.5,3.5,1,1.5,1.5,2-.5,4.5,2.5,5.5,1,2-2-2.5-2-6-2,2-5,.5,2.5h3l-2-3v-2l-4,2-5.5.5,6-.5,5.5-2.5,2.5,1,2,3,2.5,7,4.5,6.5,8.5,5h8v9.5l-1,1-2.5.5v1.5l-1.5,1-.5,1.5h-1.5l-1,1.5-1.5.5-3.5-3.86.5-1.5-1.5-3-3,.36-2-1.5-1.5.5-2-.5-5.5,1.5-6.5-8.5-9-6-2.5-4,1-4.5,1.5-1.5.5-1"/>
      <path data-code="KDA-TIK" d="m145.75,100.48l4-2v.5l2-.5,1,2,2-.5v1.5l1.5-.5,1,1.5,3.5-6,1,1,.5-1,1.5,1.5,1-1,2.5,2,.5-1,1.5,1-4.5,6.5,9,7-9,13,2,1.5-1,1.5,1,.5-3.5,5.5-3.5-2.5-1,1.5-2.5-1-2,.5v-4l-4-3-.75,1.26-4.25-2.76-.5,1-1-1v-1l-1-.5,3-3.5,4,3,3.5-5-4.5-3,2.5-3-1.5-1,1-1.5-3.5,1.5-2.5-6,2.5-1.5-1.5-2.5"/>
      <path data-code="KDA-TIM" d="m94.75,76.98l4.5,1,.5,2,1-.5.5,1,1.5-.5,6,4-2.5,3.5,6,3v2h3l.5-2,6.05,6.01,2.45,2.99-2.5,3.5-5-4-.5,1-4.5-.5-1.5,1.5-1.5-1.5-4,6,1,.5-4,6-7-4-1,.5-1.5-4,1.5-.5-.5-1.36-1.05.42-.45-1.42,3.5-1.5-1.5-5-1.5.5-2-7.14,5.5-2.5-1-9"/>
      <path data-code="KDA-TUA" d="m40.75,157.11h1l6.5-4-.16-1.84,6.16,2.2v1l2.5,1.5,1.5,2.64-.5,3.36h-3l1.5,3h1.5v1.42s-1,.21-1,.21h1l2-.5v-.64l2-1,2.5,1,4,4.64,3.53,7.07,1.47,3.79-1.5,1v2l2,2-4,4.5v2h-1l.5.5-1.5,3.5h-5l-.5-4.5-2,1-1-.5-2.5,2.5-3.5-5-3,.5-1-.5-2,.5.5-5.5-1.5-1.5,1-4.5-3.5-5.5.5-7-4.5-7.86,1-1.5Z"/>
      <path data-code="KDA-USP" d="m159.25,187.98l2,.5v-2.5l6.5-.5v3l2-.5.5,3.5,2-.5-.5,2.5,7.5,5-3,4.5-.5-.5-1.5,2.5-3,1.5-.5,2-1.5-.5-.5,1.5-1.5-.5-1,1.5-6-1.5-1.5,3.5.5,2-5-1.5-1-3,1-8-.5-1,.5-2,2-.36v1h1v-3l2-.5v-2.5h1l-.5-3.5h-1.5l1-2.14"/>
      <path data-code="KDA-UST-LYA" d="m105.75,123.48l1-1,2,1,1-1.36.5.36-1,2,3,1,2-2.5,3,2v-1l1.5.5,2.5-3.5,8.5,6.5.5,1.5.5-1,3.5,2.5.5-1.5,2.5,1.5-3,6.5h.5l-4.5,5.5,1,1,2-.5-1,2-3.5,2,1.21,1.33-4.71,4.17v-.5l-1.5.5v-1.5l-3.5-.5-1-1.5-2-.5,1-.5-.5-1.5-1.5-.5-.5-2.5-2-1.5v-1.5l-1-.5v-1.5l1.5-1.5-1.5-2.5-4-.5-1.5,1-1-.5-1.5,1,4.5-6-4.5-3.5,1-2.5"/>
      <path data-code="KDA-VYS" d="m138.25,94.98l1-1.5,3.5,2.5-1.5,1,4,2.5,2,3.5-2.5,1.5,2.5,6,3.5-1.5-1,1.5,1.5,1-2.5,3,4.5,3-3.5,5-4-3-3,3.5,1,.5v1l-3-1.5-2,2.5-3.5-2-1.5,2.5,2.5,1.5-1.5,1.5-.5,1.5-3.5-2.5-.5,1-1-.5.5-1-6.54-5,3.04-5-3-1.5,4-6-2-2,5-7,1-.5,2-3-.42-.42,2.75-3.99,2.67,1.91Z"/>
</svg>