<svg xmlns="http://www.w3.org/2000/svg" viewBox="0 0 107.78 105.5">
      <path data-code="KGD-BAG" d="m15.03,19.4l.5,3,2,.5.5,2h1.5l.5,2,2-1.5,1,.5,2,4.5,1.5.5,3,3h1l1-1.5.5.5-1.5,1.5,1,1,2-.5,1,3.5-1.5,1,1.5.5-1,.5-.5,3.5-1.5.5-1,3.5-1.5-.5-2,1-.5,1h-1.5l-.5,1.5-3.5-4-12-18h1l1.5-2.5v-2l.5-1.5-2.75-1.35,5.75-2.15Z"/>
      <path data-code="KGD-BAL" d="m.03,15.4l13.5-1.5,1.5-.5.5-1,5.5-1.5,3.5-2.15,4.5,1-1,3-2.5-.5-.5.5-1.5-.5.5,1-3,4.5-6-3.85-1,.5-6.5.5-3,1L.03,15.4"/>
      <path data-code="KGD-CHE" d="m52.53,52.9l5.5-1,1.5,1,1-1.5,1.95.3-.4-1,3.5,1.6v2l1,.5-.5,1.5h1.5l1,1.5,2.5-.5.5-3.5,5,1,2.5,3.5h2v6.5l3,1.65h-1.5l-1.5,2-2.5-2h-3.5l-2.5,4-1-.5-1.5,1.5v.5l-1,1v1.5l-3,1-1.5-4.15-1,.5-.5.5-.5-.5-1.5,1v-3.35l-.5,2-3.5-1.5-1,1-4.1-3.7.6-1.45-1-2.5-2.5-3,1.5-1.5-.5-1,.5.3,2-2.15-.05-3.05"/>
      <path data-code="KGD-GUR" d="m26.68,24.45l-.65.95,3,1,2.5-1-.5,1.5,2,3.5,2,.5v1.5h2l-1-1.5,1-1h1l-.5-.5,1-1-.5-1.5,1.5-1.5-2-3-1.2-1.25,1.6-.6-.9-1.3,1.5-.5-.5,1h1l.5-.5-.5-1,.5-.5,2.5,2,2.5-1.5,1,1.5.5-1,1.5,1.5-1.5.5,1,1,2-1,.5-1,.5.5.5-.5,1.5,2.65,2.5.5v5l-4,4,.5,2.5h-2l-1,1.5-1-.5.5-1.5h1-2.5l-1.5,2-.5.5.5,1-2,1.5-5.5-4-3,2.5-.5-2.5-2,.5-1-1,1.5-1.5-.5-.5-1,1.5h-1l-3-3-1.5-.5-1.95-4.4-1.05-.6.5-2,4.15,1.05Z"/>
      <path data-code="KGD-GUS" d="m66.03,75.4l3-1v-1.5l1-1v-.5l1.5-1.5,1,.5,2.5-4h3.5l2.5,2,1.5-2h1.5v3l-2,.5-.5,3,1.5.5,1,3.85-1-1-1,1.5-2,1,1,2-1.5,2-3-1-.5,1.5-2,1,.5.5-1,1.15-1-.5v1l-1.5-.15-2.5-1.35-2-4.5-3-3,2.5-2"/>
      <path data-code="KGD-GVA" d="m34.03,37.4l3-2.5,5.5,4,2-1.5-.5-1,.5-.5,1.5-2h1.5l-.5,1.5,1,.5,1-1.5,1.75-.15.25,2,3,3.15v2l-2.5,1v1.5l2,.5-1,1,2,.5-1.5,2,2,1.35,3.5-1.5.5,1.5,3,1.4.4,1-1.95-.3-1,1.5-1.5-1-5.5,1v3l-2,2.15-6-3.3-.5-1.5,1.5-2.5-9-8,1-1.5-4.5-1.85,1.5-1-.45-.95"/>
      <path data-code="KGD-YAN" d="m28.03,3.4l3.5-2.65,1,1-2,.65v1l-.5.5h-1l.5,1h-1v1.5l-1.5-1,1-2"/>
      <path data-code="KGD-KGD" d="m29.53,21.75l2-1.5.5.5-1-2.5,2,3.15,1-.5v-.5l1-.5,2.5,2.5,2,3-1.5,1.5.5,1.5-1,1,.5.5h-1l-1,1,1,1.5h-2v-1.5l-2-.5-2-3.5.5-1.5-2.5,1-3-1,2.5-3.65h1Z"/>
      <path data-code="KGD-KRA" d="m86.03,65.4l2.5,1,1-1.5.5,1,3-1-1.5-3,.5-2.5h1l.5-1,2-1v-1l1.5.5-1.5-2.65,4,3.15,4,6,4,1.5-2,3-1.5,3.5.5,1,.5-1h1l-.5,5-1,.5,1,.5-.5,1.5,1,1-.5,1.5-1.5.5.5,1.5-1,.5-.5,2-3.5,1-1-1-1,1-1-1-2.5.85-1.5-3-3.5-2,1-1.35-.5-1-3-1.5-2.5-.65-1-3.85-1.5-.5.5-3,2-.5v-3l2-1Z"/>
      <path data-code="KGD-LAD" d="m17.53,22.9l5,.5-.5,2-2,1.5-.5-2h-1.5l-.5-2"/>
      <path data-code="KGD-MAM" d="m3.53,20.4h3.5l5,2.5-.5,1.5v2l-1.5,2.5h-1l-5.5-8.5"/>
      <path data-code="KGD-NEM" d="m78.03,47.25h4v-1h1.5v.5l2-.5.5.5.5-.5,1.5,1.5h3l2,.5.5,1.5-1.5,1.5-.5,2,1.5,1h2.5l1.5,2.65-1.5-.5v1l-2,1-.5,1h-1l-.5,2.5,1.5,3-3,1-.5-1-1,1.5-2.5-1-2,1-3-1.65v-6.5h-2l-2.5-3.5,1-2,1-.5-.5-5"/>
      <path data-code="KGD-NES" d="m62.53,91.75l3.5-.5.5.5,4.5-5v-.5l1-.5.5-1,1,1,1-1-.5-.5,2-1,.5-1.5,3,1,1.5-2-1-2,2-1,1-1.5,1,1,2.5.65,3,1.5.5,1-1,1.35,3.5,2,1.5,3-2,.5-1,2.5h-.5l-1,1-3,.5-1,2-2.5,1-.5,1.5-2.5,2.5.5,1.5-2.5,5.5-15.5-13.5"/>
      <path data-code="KGD-OZE" d="m56.03,70.75l1-1,3.5,1.65.5-2v3.35l1.5-1,.5.5.5-.5,1-.5,1.5,4.15-2.5,2,3,3,2,4.5,2.5,1.35v.5l-4.5,5-.5-.5-3.5.5-18-16.5,1-.5,1-1.5h2l-.5-1.5,2.5-1,1.4-3.55,4.1,3.55Z"/>
      <path data-code="KGD-PIO" d="m41.03,7.75l-1,1-.5-1-.45.1-.05-1.6,2,1.5Z"/>
      <path data-code="KGD-POL" d="m54.03,27.75l1-.5,4,6h1.5l3.5,2,3-.5,1.5-3.5,3,1.5-2.5,2,1.5,1-2,1.5-.5,6.5,1.5,1.5,1-1,2,5-7,1.5v1.5l-6.5-3-.5-1.5-3.5,1.5-2-1.35,1.5-2-2-.5,1-1-2-.5v-1.5l2.5-1v-2l-3-3.15-.5-4.35,1.5-2.65.5.5.5-.5,1-1.5"/>
      <path data-code="KGD-PRA" d="m33.53,40.25l1-.5,3,1.5-1,1.5,9,8-1.5,2.5.5,1.5,5.5,3,.5,1-1.5,1.5,2.5,3,1,2.5-2,5-2.5,1,.5,1.5h-2l-1,1.5-1,.5-4.5-4-15.5-20.5.5-2h1l1-1,2-.5h1.5l1-3,1.5-.5.5-3.5"/>
      <path data-code="KGD-SLA" d="m76.53,21.25h2l-.5,1,2,1,1.5-1,.5-1,5.5.5-2.5,8.5,2.5,1.5,1,3-.5,4,1.5,3.5-2,.5-1,3.5-.5.5-.5-.5-2,.5v-.5h-1.5v1h-4l.5,5-1,.5-1,2-5-1-.5,3.5-2.5.5-1-1.5h-1.5l.5-1.5-1-.5v-3.5l7-1.5-2-5-1,1-1.5-1.5.5-6.5,2-1.5-1.5-1,2.5-2-3-1.5,1-.5,7-9.5"/>
      <path data-code="KGD-SOV" d="m89.53,42.25v1.5l1.5,4h-3l-1.5-1.5,1-3.5,2-.5Z"/>
      <path data-code="KGD-SVEG" d="m31.53.75l3-.5.5,2,4,4,.05,1.6-1.55.4-3.5-6.5h.5v-.5l-2,.5-1-1"/>
      <path data-code="KGD-SVE" d="m23.53,15.25l3,3.5v-1h1l-.5-1.5.5-.5h1v-1.5l1.5,3-1,.5,1.5,1,.5-.5,1,2.5-.5-.5-2,1.5h-1l-3-3.5h-3.5l-1-.5,1.6-2.4.9-.1Z"/>
      <path data-code="KGD-ZEL" d="m30.53,2.4l2-.65,2-1v1h-.5l3.5,6.5,2-.5.5,1,1-1h.5v2l1.5,2,5.5,2,10.5.5,16.5-3.5.5,2h-4.5l-4.5,1-.5,1-3-.5-12.5,1-1.5-1-1,1h-.5l-.5-.5.5,3,2.5,2-.5.5-.5-.5-.5,1-2,1-1-1,1.5-.5-1.5-1.5-.5,1-1-1.5-2.5,1.5-2.5-2-.5.5.5,1-.5.5h-1l.5-1-1.5.5.9,1.3-1.6.6-1.3-1.25-1,.5v.5l-1,.5-2-3.15-.5.5-1.5-1,1-.5-1.5-3v1.5h-1l-.5.5.5,1.5h-1v1l-3-3.5-.9.1,1.4-2.1-.5-1,1.5.5.5-.5,2.5.5,1-3-4.5-1,2.5-3.35,1.5,1v-1.5h1l-.5-1h1l.5-.5v-1Z"/>
</svg>