<svg xmlns="http://www.w3.org/2000/svg" viewBox="0 0 623.31 1018.96">
      <path data-code="KAM-ALE" d="m526.16,556.81v-.5.5m4.5-3.5h-.5.5m41.5,7.5h-1.5l-1.5-1h-3.5l-1-1v-1l-1-.5-1.5,2.5h-1.5l.5,1.5-6-1.5-1-1-1,1-4-.5-3.5-2-4.5-.5-.5-.5-.5-1-2-2-3-1-3,.5v-1l-1-.5h-3.5l-6,2.5,2.5-6-.5-3.5,8.5-3,1.5-2.5,2,.5v3l1.5.5,2,3,5.5,2.5h2.5l1,1,2.5.5,5.5,2.5,5-.5,1-1,1,1.5h3.5l.5,1,4.5,2.5,4,3.5.5,1-4,.5m48.5-30l2.5.5-7.5,1-2-1-4.5.5-3,1.5-4.5-1-5.5,1-6-.5-3-2-1.5-.5,7-1,.5,2,4.5-3,1,.5v1l1.5-1.5,5,2.5,1-2,3.5,1,1-2,1.5,2,1.5.5h2.5l3.5,1,1-.5"/>
      <path data-code="KAM-BYS" d="m256.16,792.31l-1.5-3-16.5-24,15-20.5,28-14.5-2.5-1-2-1.5-.5-1,1-2-1-1,.5-33.5-1.5-1.5-3.5,1.5-1.5,2.5-9.5,4.5-5-.5-11-6-8-1.5-2-5.5-2.5-4,1-14h5l1,.5,2.5-1.5,1.5-2,5-4,4.5-7,11.5,11,25-31,1-1,1,1v1.5l.5,1,2.5,1.5v4l.5,2,1,1.5-.5,2,2,3-3.5,3.5-.5,1.5,4.5,1.5,3.5,3,1.5,3.5.5,2-4,5,1,2.5,4.5,2,1,4,2,1.5.5,1.5,3.5.5,2,1,3.5-1,3.5,1,7.5-4.5.5,5,1,1.5.5,2-1,8,2.5,3v2.5l1,1v2l1,1-.5,1.5-5.5,3h-3l-4-.5-2,1.5-4-.5-.5,1.5,9,31.5-3,20.5,1,5-.5,2.5,6.5,10-3,4.5-7,4.5-2.5-2.5-.5-2.5-3.5-2,1,1.5-1,.5-3.5-1.5h-4v1l-2.5,1.5-3-1-1.5-1.5-5-.5-2.5,1h-4.5l-3.5,1.5-2,2-.5,3.5-2,.5-1,2-2.5.5-.5,2-1.5-.5-2,3.5-2-1.5-5.5,1-5-4"/>
      <path data-code="KAM-ELI" d="m453.16,1004.31v-1.5l4.5-5-3.5-7-3.5-.5-1.5-1.5v-1l2-1,3-8.5-2-5.5-3.5-3.5-.5-1.5,3-4-.5-2.5-2.5-2.5-2-5,1-5.5-3-2.5-3,.5-2.5-1.5-2,1-2-1v-3l2-2-1-2,2.5-3.5v-1.5l-4.5-4-.5-1.5,1-4.5-3-5.5-2-1.5-.5-2.5,2.5-4v-10l-3-4.5v-5l-1-1.5-2-1-.5-1.5.5-2-7.5-.5-4-4.5-2-.5-3,1.5-2.5-1.5-2,1-3-5.5-3,1.5-.5,1.5v1.5l-1,.5-2.5-2h-1l-3.5,6.5-1.5.5-13-3.5-.5-2-1.5-1h-4l.5-3.5-1-1.5-2-1-2-1.5-5-1.5-1-1.5.5-3,2-3.5-2.5-2.5v-2l-2.5-2v-3l-2.5-5.5-1-2-3-1,1-2.5-2.5-3-3-1-1-1.5,3.5-3.5.5-1.5-.5-1.5-1-1-3.5-1.5,1.5-3.5,3.5-3,3.5,1.5h2l8-3.5,4,1,2,3.5,3,1,.5-.5-2.5-5.5v-4h2.5l1.5,1,3-4,3.5-2v-1l-2-1.5,2.5-3.5-1-1-3.5-1.5-1-1v-2l2-4v-1l-1.5-.5-.5-2,3-5-5.5-5,1.5-2-.5-2.5,1-2-.5-4.5.5-2.5-4.5-1.5v-1.5l4.5-2-.5-2.5,4-.5-.5-5.5-2.5-3,2-2-1.5-5,6-6.5.5-2.5,1-.5,1.5-3-1-2,1.5-2.5-1.5-.5-1.5,1-1-1v-1l2.5-1-.5-1.5-1.5.5-.5-1,1.5-3,1-4-1.5-1.5v-2l2-1.5-2-4,.5-1,3-3-1-4.5.5-1.5,6.5,1,4-3,2.5-7.5,4-1,1-4,3-2,14,1v-4.5l-1-4-1-.5-.5-1,3-1,1-4,1.5-2.5,4,2,3.5-.5,4.5,2,2.5.5,4,2.5h3.5l1,1-1,1,.5,1.5,4,2-1,3,.5,2-1,1.5,1,2-1,7,1,9-2.5,4.5-9,7-8.5-2.5-6,6-4.5,14-1,8.5.5,11-1.5,4.5.5,5,1,5,.5,1.5h.5l5,12,5.5,9,2.5,2.5,2,1v1l1.5-.5-.5-.5.5-1v1l1.5,1.5,4.5,2,4,5-2.5,1v1.5l.5,1.5,2.5,2.5,1,.5.5-1.5h1.5l1,3,1,.5,2-1.5,1,1.5.5,4h1l2,1.5.5-.5-2-2,1.5-2.5,1,3h2.5l1,2,2,.5v1.5l1.5,1.5-2.5,1.5-2-.5-8,1-1.5-.5-.5-2-1,2.5h-4.5l-2.5,5,1,6.5h-2.5l-2.5,4.5-3.5,10.5-5-3-2.5,5-3,.5-3.5,4-.5,4,2,2.5-1.5,4h-2.5l-1,1,1,2.5h1.5l1,7,1,1,11.5-4.5,2,1.5-2.5,2,1.5,2h6l-.5,1.5,1,.5-.5,1.5,1,1.5-1,1.5h-4.5v1h3.5l-1,1v1l3.5.5,1.5-1,2,1.5v2.5h1.5l.5,1.5-1,1,1,.5-.5,4.5,1.5-1,.5-3.5h2.5v1l2,.5-1,.5.5,1-.5,2.5,1,.5,1.5-1.5,1.5,2.5v2l-2,1.5,1,.5.5,2.5-1,.5,1,2h1l1,1,.5,3h-1l-.5,2.5.5,1,2.5,1v3h1v1.5l2,2.5.5,9.5,1,3-1,4,1.5,3.5-.5,1.5,1,1.5-.5,1,1,2.5.5,1-1,1.5.5,3-1,1.5.5,1.5-2,2-2,6,.5,5.5,3,4.5-2.5,2-.5,2,2,10.5-2,6.5v10l-1,3,.5,6.5-.5,7-1-1v-4l-1.5-5-3.5-4-1.5-.5m-16.5-138.5v-.5l.5.5h-.5m28.5,92.5l-.5-1h1l-.5,1m-21-139.5h1l-.5.5-.5-.5"/>
      <path data-code="KAM-PAL" d="m186.66,498.26l-.5-1,4-3h1v1l2.5.5-1.5.5.5,1.5-2.5-.5-3.5,1"/>
      <path data-code="KAM-KAR" d="m190.66,329.01l-.5-1h.5l.5.5-.5.5m-11,11.5v.5-.5m1.5,2v.5l-1-1.5,1,1m-3.5,27.5l.5-.5v.5h-.5m90,193l-.5-1,1-2.5-.5-2-1.5-1.5-1.5-4-.5-9.5-3-5.5,1-4-5.5-3-.5-2.5,1-1-.5-1h-1.5l-1.5-1.5-2.5-7.5-2-2,1-2-3.5-2.5-.5-4-3.5-1.5-.5-1.5-.5-9.5.5-2.5,2.5-2-2-1.5-1.5-6v-2.5l-.5-1h-1.5l-.5-3-.5-5,1.5-1.5-4-3.5.5-1.5,4-2.5-2.5-2.5-2.5-2-2,.5-3.5-3.5-4-6-.5-2.5-1.5-.5-1.5-3,1.5-1.5,5.5-2,1.5-2-.5-4,1-2,4.5.5,1.5-1-5.5-2-3,.5-2.5-2-5.5.5-12.5-2.5-4.5.5-5-5.5-3.5.5-3.5-2-1-3.5-1.5-.5.5-2-1-1-2.5-1,2-11.5-.5-6.5-2-3-2.5-1.5-.5,2-1.5-3,.5-1-3-4,1.5-3-1-3.5.5.5,1-2-.5-3.5,4-5-.5-6,4-2,1-2-1-1.5,1-.5v-2l-1.5-6.5-1-1.5,2-3.5h2.5l1-1.5v-1h-1.5l1-1v-2l2-.5,3-4,2.5-9,5.5-1.5,1,2.5,3,1.5,1.5,1.5,1.5,4,1,1,8-.5,9-2.5v-2l3-2,1.5-2-3-4-1.5-3.5,1-3v-9l8.5-6,1.5,1.5,5-3,4.5-.5-1.5,4.5.5,1h2l1.5,5,2.5,2.5-2.5,8.5-2.5,4,2,1,1.5,1.5-1,2-4.5.5-1.5-.5-.5-1-.5,1,1,2.5v3l-4,11.5,1,2.5,3.5,4.5,2,.5,2.5,1.5h2.5l4,1-5,5-6.5,3.5h-2.5l-.5,2.5-2,.5-1,3,.5,1.5,2-.5,1,1,2-1.5,1.5,5.5-3.5,1.5-1,1.5v5l1.5,3.5,2,3.5,5.5,3,1,1.5v3.5l-.5,1,.5-1.5-2,2v2.5l1.5,1.5.5-2.5-.5,3.5,2,2,1.5-.5,5,1.5,7,6.5.5,5-.5-1v-3.5l-1-1-4,4.5-1,3.5,3.5,3.5,5.5-1.5,3.5,2.5,1,2.5.5.5-2,1.5,1.5-2-1-2-5,1.5-3.5-.5-2,5,8,3,2-1-1.5-.5.5-.5,1.5,1.5.5,1v3l-2,5v3l1.5,2.5-2,11v4.5l2.5,10-3,2h3l1,1,3.5,11,8.5,17,5,5.5,6,3.5,5.5,1.5,3.5-.5,8.5-4-.5,1.5,1.5,1v3.5l.5,1.5.5.5,1-4-1.5-2.5,1-1.5h-1l-5.5-5.5-1.5-4.5,3-3v-1.5l15-1.5,4.5-3.5,5.5,2h2v5.5l1,1,1.5,1,1,2-1,3,3,5.5-3,7,.5,9-1.5,1.5-5.5,2-.5,1.5-1.5.5.5,2h-1.5l.5-1-1-1v1.5l-2,2.5h-2l.5,1h-1.5l-2,2,.5,1.5-4,2.5-2,6-4,2,.5,1-2,1-.5,1.5-2,1-2.5-1-2,2.5-2.5-1-1.5,1-1.5-1.5-7.5.5-3.5,3-7,2.5-6.5,3.5-2.5-.5-4.5,1.5-2-1-1.5,1m42-116l.5,1.5-1.5-.5-1.5-.5-1-1.5-2.5-.5-.5-1,3-4v-2l-3.5-7-.5-3.5-2-5-3.5-4-1.5-5v-3.5l-4.5,2-1,3.5v-1.5l.5-2,5.5-6.5,3.5-11v-3l-1-2.5,2-7.5,2.5,2.5,1.5-.5,2.5,2.5,6.5,2,2.5,5,3,2.5.5,3.5-4.5,5-1.5,3.5-.5,4-1.5.5-1,2.5v3l-1,3.5.5,3-2,2.5.5,5-.5,4,.5.5-1.5,3,1,2,.5,3.5,1.5,2m3,58v-.5l1,.5-.5.5-.5-.5"/>
      <path data-code="KAM-MIL" d="m338.16,814.81l-1.5-2.5,1-2-1-2.5,2.5-.5v-3l1.5-3-1.5-.5-.5-2-1.5-1.5-2.5-.5-.5-1,.5-.5-5.5-3-8-1-3.5-2.5-.5-1,7-4.5,3-4.5-6.5-10,.5-2.5-1-5,3-20.5-9-31.5.5-1.5,4,.5,2-1.5,4,.5h3l5.5-3,.5-1.5-1-1v-2l-1-1v-2.5l-2.5-3,1-8-.5-2-1-1.5-.5-6-2-.5-.5-1,6.5-1.5,10-7,4-4,1.5-3.5,2-.5,4.5.5,2,2.5,5-3.5,4-.5.5.5v2.5l1.5,2.5,5.5,1.5,3.5,4,1.5,5.5,4,1.5-1.5,2v3.5l1,3,2,2.5-1,3,.5,5.5,2,3v2.5l-3,3-.5,1,2,4-2,1.5v2l1.5,1.5-1,4-1.5,3,.5,1,1.5-.5.5,1.5-2.5,1v1l1,1,1.5-1,1.5.5-1.5,2.5,1,2-1.5,3-1,.5-.5,2.5-6,6.5,1.5,5-2,2,2.5,3,.5,5.5-4,.5.5,2.5-4.5,2v1.5l4.5,1.5-.5,2.5.5,4.5-1,2,.5,2.5-1.5,2,5.5,5-3,5,.5,2,1.5.5v1l-2,4v2l1,1,3.5,1.5,1,1-2.5,3.5,2,1.5v1l-3.5,2-3,4-1.5-1h-2.5v4l2.5,5.5-.5.5-3-1-2-3.5-4-1-8,3.5h-2l-3.5-1.5-3.5,3-2.5-5-4-2"/>
      <path data-code="KAM-OLY" d="m244.66,344.66l-1.5-2.5-1-2.5,4-11.5v-3.5l-1.5-2,1-1,.5,1h6l1-2.5-1.5-1.5-2-1,2.5-3.5,2.5-9-3-2.5-1-5-2,.5-.5-1.5,1.5-4h-4.5l-5,3.5-2-2h-3.5l-3-1-1-12.5-1-4,.5-1h2.5l2,1.5,3.5-.5,2.5-2.5-.5-1-3-2.5v-6l-4-4.5v-3.5l2.5-1,1.5-4.5,2-10.5v-3l3-2,4,3,3.5-6,3-1.5-2-.5,2.5-7-.5-1-2.5-.5.5-5.5-3-3.5,1.5-4,3-2.5,5.5-1.5,2,1.5,4-1.5,3-2.5-.5-4,1.5-2-3.5-5.5,2.5-.5-.5-2.5,1-.5v-9.5l-2-2,2.5-5v-5l6-8.5,1-6.5,9.5-8.5-1.5-4.5,3-3.5-2.5-1.5,1.5-3.5-.5-1.5-2-.5,2.5-6.5-3.5-2.5h-1.5l-2.5-2-.5-1.5.5-2,3.5-1.5-1.5-2.5-2-.5-.5-4h2v-4.5l1.5-.5.5-1.5,1.5.5v-4l3.5-1v-2l1,.5v-1l1,1,1-1.5,1,.5,1.5-1.5v-1h2.5v-1l1.5-.5-1-1v-1l4-4-.5-2.5-1.5-.5-.5-1.5,1.5-1v-3.5l-.5-1.5h2v3l1.5,1,1.5-1.5-1-2,.5-1.5.5,1,1-.5,1.5,1.5,2-1.5,2-4.5-1-3,4.5-5-1-1-1.5.5-1-.5,2.5-4-1.5-2,1-2.5,3-3,.5.5h2.5l1,2,.5-1,1,1h1l.5-1.5-1-1,1-2-.5-2.5,1.5-3h1.5l1-1.5.5.5,1.5-1,1,.5.5-1.5h1l.5,1.5,1.5,1,2.5-2v-1l-1-1v-2l3.5-2.5-.5-.5-.5-2,1.5-2-2-.5,3.5-4.5-.5-.5,1-3.5-.5-3.5,3.5-1.5-1.5-3.5,2-1,1,1,2.5-2.5,1.5.5,1,1h2.5v.5l1.5-2.5-.5-2.5,3.5-1,2,.5,2.5,3h1l.5,1-1,2.5,1,.5,1,1.5-1,2h1.5l1-1,1,1h4l1,1-.5,1,1,1,1.5.5.5,1,1.5-.5,1.5,1,1-.5,1.5-3.5,2-.5,1.5,2.5h1v-1.5l2-1,2,2,1.5-.5v1l1.5,1.5,1,1.5,3-.5,2,2.5-2,1,1.5,1h1.5l-1.5.5-3.5,7.5-.5,5.5,1.5,3.5-1.5,2,1,4-2-.5-4,1h-3.5l-1.5,3.5.5,1.5,3,2v1.5l5,3,.5,1v1.5l-2.5,1.5v2l.5,1.5,2,.5.5,1.5.5,6.5-1.5,3-3,.5-2-1-1,1.5-.5-1-1.5.5-1,3.5,1,3,7.5-2,1,.5v1l1.5-.5,1,1v2l-3,3,.5,5,1.5,3-3,3-5.5,1v1.5l2,1,1,.5,2.5-.5.5.5-1.5,4.5,2-3,1,.5,2,2.5.5-2.5,1,.5,1,3.5-3,4h-5.5l-4,2,5-1,5,2,1,1-.5,2.5,1,3.5,1.5.5.5,1-1-.5.5,1,1,.5-1,1-3-1.5h-.5v1.5l1,1h1v1.5l-2,3-2.5.5-1,2,1,1.5-1,1,1,2.5,2,.5,1.5,2-2.5,2.5v2.5l1,4,1.5,1.5-1,1.5-.5,6.5-2,2.5v5l-1.5,3.5,1.5,5-1,.5.5,1.5-2.5,2,1,1h1l-.5,1.5,1,.5,2-1.5,1.5,1.5.5,2.5-1.5,2,.5,3,2,3.5,3,4,3.5,3,1,2.5,3,2.5v2l-1,3-.5,1h-3l-2.5,1.5-1-2.5-1.5-.5-7,2-3.5-2-3-1-3.5-2.5-4,.5-2-2h-2l-2.5-3h-3l-6.5,2h-4.5l-6,2.5-10.5,9-1.5,2.5.5,1.5-2.5,1h-4l-7,9-4,12h-3.5l.5,1,2,1,.5,1.5-2,1,.5,2.5-2.5,4.5-.5,2.5-1.5,1.5,1,2-1.5,1,.5,1.5-.5,3-3.5,1.5-4-.5,3,2.5,2,.5.5,1-2,3,.5,1,.5.5.5,4.5-1,1h1v.5l1,4,1.5,4,1,8v7.5l2,5.5.5,4-3.5,4.5-1,.5-1-1-2.5-3.5-2.5-6-2.5-1.5v-2l-1.5-.5-1.5-3-1.5-1.5,1-2.5-1.5-3.5-3.5-1.5-3.5-4.5-3-1-1.5-1.5.5-.5,1,1.5.5.5,1-2.5-.5-3-2.5-1-3,.5-1,2.5,1-.5v.5l-2.5,4v1.5l1.5,3.5-2,7,1,3.5-4.5,15v6.5l-1,2.5,1.5,2.5h2.5l.5.5h.5v2.5l1,1,.5,1.5,1,1.5.5,5-2,3v4.5l-3-1-1.5-2-3.5-3-5-2-4,1.5v-.5l-3-.5h-4.5l-1.5,2.5,1.5,2.5-1.5-1.5-.5,1.5,1,1.5,2.5,1.5h-5.5l-3-2h-1.5l-2-2m145-231.5h.5-.5m5,10.5h.5-.5m-5-21v-1h.5v1h-.5m0-16v-.5.5"/>
      <path data-code="KAM-PEN" d="m102.16,285.16l.5-4h2v-1l-1-.5,1-2-.5-1.5,3-3v-3l1.5.5,2-2,.5-1-1-2v-1.5l-2-1.5v-1l-2.5-1.5-.5-1-1-.5-1-2-8-4-.5-4.5,1-.5-1-2.5h-1l.5-.5-1.5-1-2,.5-1.5,3-2.5-.5-1-.5h-1.5l-1-1.5,1-1.5-2.5-.5-1.5-1-2,1.5-2.5-.5-5.5,1.5-1-1-1.5-1.5-.5-1.5-2-2,.5-1.5-1.5-.5-.5-1v-2.5l-.5-1.5h2l.5-3,2-1.5-.5-1-2-1,4-4.5-1-2h-1v-1h-.5l-.5-1-2.5-.5-.5-3.5-3-.5-1.5,1-1-1-.5.5-.5-1,2-2.5v-3l1.5-1-1-.5.5-1-.5-1h.5l-1-2,.5-.5-3-2v-1.5h-.5l-1.5-2-1-2.5-2.5-.5-1,1.5-2-1-.5-1.5-1.5-1-2.5,1.5h-2.5l-.5-2.5h-.5l-1.5.5.5-.5-1.5-1v-3l2-1.5-1-2,2-1-2.5-.5v-2.5l-1.5-.5-1-1h-4.5l-.5-1.5-.5-.5-.5-1h-1l-.5-1.5-1.5.5-.5-1-1-.5.5-1.5-.5-.5v-1l1-1,.5-3,5.5-2-1-3.5-1.5-1-.5-1-.5-.5.5-2h-1l-1-1,2.5-2-1.5-1-.5-1.5,2-3.5-1.5-.5-1.5,2-1-1,.5-1-1-.5h.5l-1.5-1-.5-1-1.5,1-.5-1-1-.5-6,.5v-1.5h-2.5v-1.5l-2-1-.5-4.5-2-2-3.5.5-1-1.5-1,.5-1.5-1,1-2.5,2-.5,2-2-1-.5.5-2.5-1-1,1-2.5-2-2.5.5-1.5,1,.5.5-1.5h1.5l1,1,1-.5,2.5-3,.5,1,1.5.5,2.5-1v-1.5l1-.5,1-2-1-2,2-1.5-1-1.5.5-2,5.5-.5,3-1.5,2,.5,1,1,2-1,1.5,1v-2l3.5.5,2-1,1,.5,3,.5.5,1,1,1,1.5-.5.5-1.5,1.5-1-2.5-2.5-.5-1.5-1.5-.5-2-3-1-.5,1.5-3.5h1.5v-1l5-.5.5.5h1l.5,1.5,1,.5.5-1.5,1,.5,1.5-.5v-2l2.5-.5,2-3,2.5,1,1-1,1,3,1,.5,2.5-1,1,1,2.5-1-.5,3h1l1.5,1,4-4-.5-2v-4.5l1,1,3.5-1.5-.5-1,2.5-1.5h3l1.5-1,2.5.5,1.5-4.5,3,.5.5-3,3-2.5-1-5,1.5-.5-2-1.5,2.5-1v-1.5l3.5,1.5,1,.5h1.5l2,2h2.5l1.5-2h.5l1,1.5,3.5-1,1.5.5,1,1h2.5l2.5,1.5,1.5-4,1.5.5,2,1.5.5-1.5,4.5-1.5,1-2.5,1.5-1v-.5l-1-1.5v-2l4-1,1.5-3.5,1.5-.5,3,.5.5.5h1l1,1,1-.5.5,1,1.5.5,3.5-3,2.5,1.5,1.5,2h1.5l.5,1,2.5.5,1.5,2,1.5,1,2.5-2.5h.5l1.5-1,.5,1,1,.5h1l6-7,1.5,2,1-.5,1,2,1-.5.5.5,2-1.5,4,.5,4,3v1h.5l1,1.5,1.5-.5,1,1,1-.5-.5,3.5h.5l.5,2,1.5.5v1l-3.5,9.5,1,1.5-.5,2,1.5,4v6.5l.5.5.5,1.5-1,3,2,1.5,1,2.5h-2l.5,2.5,2.5-.5.5,1-2.5,3.5,1,1-.5,5.5,1,1.5h5l2-1.5,9.5-1.5,1.5-3,1-.5-.5-2,2-1.5,2,1,.5-.5,5-.5,1.5-1,1,.5v1l8-1,2,.5.5,1.5,1-1,3.5,1,.5-2,1,1,3.5-1,.5.5,1.5-2.5,1.5-.5v-2l1-.5,2.5.5-.5,2,2.5,2,1.5,4,2-2,2.5.5,1.5,2-.5,1,1,.5,2.5-.5h.5l1,1.5,1,1,1.5-.5,2,.5.5,2h1l.5,3.5-1.5,1.5-1-.5.5,4,2,.5,1.5,2.5-3.5,1.5-.5,2,.5,1.5,2.5,2h1.5l3.5,2.5-2.5,6.5,2,.5.5,1.5-1.5,3.5,2.5,1.5-3,3.5,1.5,4.5-9.5,8.5-1,6.5-6,8.5v5l-2.5,5,2,2v9.5l-1,.5.5,2.5-2.5.5,3.5,5.5-1.5,2,.5,4-3,2.5-4,1.5-2-1.5-5.5,1.5-3,2.5-1.5,4,3,3.5-.5,5.5,2.5.5.5,1-2.5,7,2,.5-3,1.5-3.5,6-4-3-3,2v3l-3.5,15-2.5,1v3.5l4,4.5v6l3,2.5.5,1-2.5,2.5-3.5.5-2-1.5h-2.5l-.5,1,1,4,1,12.5,7,1.5-8.5,5.5-.5,9-1,3,2,4,3,3.5-1.5,2.5-3,2v2l-9,2-8,.5-1-1-1.5-3.5-1.5-1.5-3-1.5-1-2.5-3.5.5v-1l-1.5-3.5-8,2-1.5-1v1l-1-.5-.5-3.5,1-1.5-.5-2-2-1v-.5l.5-2.5v-4l2-6-1-1.5-1.5-1-1.5-6-3.5-2-2-.5-3,1-1,1.5.5,2.5-1.5-.5-2-2-2-6.5-3.5-5.5,2.5-4-.5-2-4.5-6-2.5-1.5-2-4.5-4.5-4-1-2-4-3.5-.5-2.5-2.5-1.5-.5-2-2-1.5-1.5-3,1-2.5-.5-2,2-6-1.5-2.5,1-1.5-1-2.5,3.5-5,7.5-2,2-2,1-1.5-.5-1.5-.5-1-2.5-1.5-7.5,1.5-2.5,2h-3l-1.5-1h-1.5l-.5-1-4-1-4.5,3-1.5,1.5-.5,3.5-5,6-.5,2,1,4-3,.5-1.5,1-8,15.5v1l3,2.5-.5,2.5.5.5h1l2,1.5,2-1,3.5,1-2,3.5v1l1.5.5-1,2v4.5l1,.5,1.5,2,2,1.5,2,.5.5.5v1.5l1,.5,1-1h1.5v3l1.5,1.5.5,1.5-1,1.5,2,1-.5,2h1v.5l1,1,1.5,4,.5,2,3.5.5,10-3,.5,1,1.5,1.5-2,4,2,.5v.5h-2l-1,2,.5,2.5h1.5l1,1-.5,4-1.5-.5-3-2-1,1.5h-1v-1.5h-1l-.5,1.5-1-1.5,1-3-1.5-1-3.5-.5-2.5,3.5-1,4.5,2.5,1,2-2,2.5.5-.5,1-2,1.5-2.5-.5-6,1.5-2-1.5-1.5-2.5-2.5.5v-4l-1.5.5-1-.5-1,1-3.5-3.5-.5.5-3-.5.5-3.5,2.5-.5.5-1.5-.5-1.5-1.5-1,1-1.5-2-1-1.5-1-.5-1.5-5,2-1.5,2-3-.5-2,.5-1-.5m22-37v-1l.5-.5.5,1-1,.5m15,60.5h-1l1-2.5,2.5-.5-2.5,3m15-6l-.5-.5.5-.5.5,1h-.5m1,1.5v-1h.5l.5.5-1,.5m-21.5-96h.5-.5m7,1h.5-.5m3,3.5h.5-.5m-19.5,33.5v-.5.5"/>
      <path data-code="KAM-PET" d="m420.16,853.16l.5-5,3.5-4.5h3l2.5-5,5,3-.5,6.5,1,6-.5,3.5-2-.5-1.5-2-.5,1-1.5-.5,1-1.5-4.5-2.5h-2.5l-3,1.5"/>
      <path data-code="KAM-SOB" d="m215.16,769.96l8.5-4,3,.5.5-1,3.5.5.5-.5,1.5.5,3.5-1,2,.5,16.5,24,1,3,5.5,3.5,5.5-.5,2,1,2-3.5,1.5,1v-2l3-.5,1-2,1.5-.5,1-3.5,2-2.5,3.5-1h4.5l2.5-1.5,5,1,1.5,1.5,3,1,2.5-1.5v-1.5h4l3.5,2,1-1-1-1,3.5,2v2.5l5,4.5,2,1.5,8,.5,5.5,3-.5,1,3,1.5,1.5,1.5v1.5l2,1,.5.5-2,2.5v2.5l-2.5,1,1,2.5-1,1.5,1,3,4.5,2,2,5-1,3.5,3,1,1.5,1.5v3l-3.5,3.5,1,1.5,3,.5,2,3-.5,3,3,1,1,1.5,2.5,6v3l2.5,2,1.5,3.5-2,2h-2l-4.5-2-3,.5-.5,4.5-5.5,3.5v2l-5.5,8-2,4.5-9.5,6.5-22.5-22.5-21.5-18.5-12-11-27-27-10.5-13-11-18v-1l-6-8"/>
      <path data-code="KAM-TIG" d="m186.36,409.16l2,1,1.5,1.5-1,1.5,2,1,1,3.5,3.5,2,3-.5,5.5,5h4.5l12.5,2.5,5.5-.5,2.5,2,3-.5,5.5,2-1.5,1-4.5-.5-1,2,.5,3.5-1.5,2.5-6,1.5-1.5,2,2,2.5,1.5,1,.5,2.5,4,6,3.5,3h1.5l3,1.5,2,3-3.5,2-.5,2,4,3-1.5,2,.5,5,.5,2.5h1.5l.5,1.5v2.5l1.5,5.5,1.5,1.5-2,2.5-.5,2.5.5,9.5.5,1,3,2,.5,3.5,3.5,2.5-.5,2.5,2,1.5,2.5,7.5,1.5,1.5h1.5l.5,1-1,1.5.5,2,5,3-.5,4.5,3,5.5.5,9.5,3.5,7-1,3,.5,1,1.5-1,2,1-1,2.5,2,2,.5,1,1,.5v2l2,2.5v2l1,1-.5.5,1.5,4.5-2,2,3,1v3.5l1,1.5-.5,1v3.5l1,.5v1h1l1,2-3,4,1,4.5,2.5,1.5,1-1,.5,1-.5,2.5-2,1-.5,2.5h2l2,1.5v1.5l2,2-2,1.5,2,1-1,1v1.5h2l.5,1-1.5,4.5,1,1,1.5.5-25.5,32.5-11.5-11-4.5,7-5,3.5-1.5,2.5-2.5,1.5-1-1-5.5.5-1,14,2.5,4,2.5,5,8,2,11,6,5,.5,9.5-4.5,1-2.5,4-1.5,1.5,1.5-.5,33,1,1.5-1,1.5v1l2.5,2,2.5.5-28,15-15,20.5-2-.5-3.5,1-1.5-.5-.5.5-3.5-.5-.5,1-3-.5-8.5,4-6.5-9.5-2-6-.5-3h-1l-1-2-6.5-13.5-1.5-5.5-4.5-8.5-3.5-8-2-9.5,1-3,.5,3,1-1-1.5-4,2-5.5.5-6.5-1-5-1-1.5-1.5-.5-.5-2h5l1.5-2-1-.5-.5-1.5-5.5-21.5-1.5-3-2.5-2.5-6.5-5.5-6.5-3.5-3.5,1v-4.5l-1-.5v-1l1.5-1,.5-5,1.5.5,1,1h3l.5.5,6-4,2.5-4,1-4-1.5-5.5-2-1.5.5-5-.5-.5h-1v-1.5l2.5-1.5.5.5,1.5.5,4.5-3,3.5-4,1.5-4,2-1.5,2,1,1-.5-3-2-1.5,2,1-5.5-.5-5,1-12,3.5-19-2-9,.5-5.5-.5-5,.5-7.5-1-4-1-1v-1.5l1-2-.5-3.5-3-3.5-1-1-1,.5-1.5-4,1-4.5,2.5-1,2,1v-2l1.5-.5h-2.5v-1l-1.5-.5-4,3.5-.5-2.5.5-6-.5-6.5.5-2.5-1-3,2-2.5.5-5-2-5-3-6,2.5-3v-2l4-7-.5-4-1.5-1.5,1-1.5-.5-3,1-3-.5-4.5.5-3.5-2-5.5.5-2.5-2-6.5,1.5-2m-2.5,265.5v-1,1m-5.5-2.5h.5-.5"/>
      <path data-code="KAM-UST-BOL" d="m325.66,889.16l9.5-6.5,2-4.5,5.5-8v-2l5.5-3.5.5-4.5,1.5-1,6,2.5,3.5-.5.5-1.5,1,1-3,5,1.5,2.5,5,1.5,2,2,2,1,1,1.5-1,3.5h4.5l1.5,1,.5,2,13,3.5,1.5-.5,3.5-6.5h1l2.5,2,1-.5-.5-1.5,1-1.5,3-1.5,3,5,2-1,2.5,1.5,3-1,2,.5,4,4,7.5,1-.5,2,.5,1.5,1.5,1,1,1.5.5,4.5,3,5v10l-2.5,4,.5,2.5,1.5,1.5,3.5,5.5-1,4,.5,2,4,4,.5,1.5-2.5,3.5.5,1.5-1.5,2.5v3l2,1,2-1.5,2.5,2,3-.5,2.5,2-.5,6,2,5,2,2.5.5,2-2.5,4.5.5,1,3.5,4,2,5.5-3,8.5-2,1-.5,1,1.5,1,4,.5,3.5,7.5-4.5,5-1,3-2.5-4.5-2-2.5-4.5-1-2.5,1-3-1-5.5-6.5-6-4.5-10.5-14-16-18.5-11-10.5-30-21.5-20-21-13-12.5"/>
      <path data-code="KAM-UST-KAM" d="m300.16,671.16l-1-2.5,4-5-.5-2-1.5-3.5-3.5-3-4.5-1.5v-1.5l4-3.5-2-3,.5-3-1-1.5-.5-1.5v-4l-2.5-1.5-.5-1.5v-1l-3-1.5-1-1,1-.5.5-4-.5-1h-2v-1.5l1-1-2-1,2-1.5-2-2v-1.5l-2-1.5h-2l.5-2.5,2-1,.5-2.5-.5-1-1,1-2.5-1.5-1-4,3-4.5-1-2h-1v-1l-1-.5v-3.5l.5-1-1-1.5v-3.5l-3-1,2-2-1.5-4.5.5-.5-1-1v-2l-2-2.5v-2l-1-.5-.5-1-2-2,1.5-3.5,4-.5,2.5.5,6.5-4,7-2.5,3.5-2.5,7-.5,2,1.5,1.5-1,2,.5,2.5-2.5,2.5,1,2-.5v-1.5l2-1v-1l4-2.5,1.5-6,4.5-2-.5-2,2-1.5h1.5l-.5-1.5h2l2-2v-1.5l1,1-.5,1h1.5l-.5-2.5h1.5l.5-2,6-1.5,1-3.5,3.5,4.5,4,4,9.5,6.5,3.5,6.5,7,9,3.5,1,4-.5,1-1.5-.5-2.5,1-2,2.5-.5,1.5-3.5h1.5l-.5.5,1,1h2.5l2,5,3,1.5,1,2,4,3,.5,2,4,1,4.5,2.5,2,3.5,4.5,3.5v4l-2,4.5.5,5,2,3.5-4.5,2.5-4.5.5-4.5-1.5-1.5-1.5-7.5-1-6,11.5-1.5,7.5.5,4,2.5,1.5v2l2,3.5,2,7,3,4.5,2,8.5,4,7,3.5,4.5,7.5,7.5,10.5,7.5-2,3-.5,4-3,1,.5,1,1,.5,1,4v4l-14-1-3,2.5-1,4-4,.5-2.5,8-4,3-5.5-1.5-1.5,1.5-1-1-.5-5,1-3-2.5-2.5-1-5,1.5-3.5-3.5-1.5-1.5-5.5-3.5-4-6-1.5-1-2.5v-2.5l-1-.5-3.5.5-5,3.5-2-2.5-4.5-1-2,1-2,3.5-3.5,4-10,7-6.5,1.5.5,1h2v1l-8,5-3-1-3.5,1-2-1h-2.5l-1-.5-.5-1.5-2-2-1-3.5-4.5-2"/>
      <path data-code="KAM-VIL" d="m421.66,870.16l-1-1-1-7.5-1.5.5-1-1v-1.5l1-1h2.5l.5,1.5,3-.5-1.5,2,1.5,1.5,2,.5,3-2-1-1-3,1,1-1,2.5-.5,2-2,1.5.5-.5,1,1,1-.5,1h2.5l-1,3,1,1.5-1.5-1-11.5,5"/>
</svg>