<svg xmlns="http://www.w3.org/2000/svg" viewBox="0 0 181.5 327.35">
      <path data-code="KEM-ANZ" d="m60.25,49.75h.5v.5l-.5-.5m-1,.5l.5-.5.5.5h-1m-4-6l2.5-2.5-.5-1.5,2-.5v1l1,.5-1,2.5h1l.5,1,1.5-.5.5,2.5h-1.5l-1,1,1,1-1.5.5-5-1.5.5-3.5m.5-3l1-.5v1l-1-.5m10,5.5l1-2.5,3.5,1v2.5l-.5,1.5h.5l-3.5-1-1-1.5m-7,3h.5-.5m.5,1.5l.5-.5v.5h-.5m1.5.5v-.5.5"/>
      <path data-code="KEM-BEL" d="m54.25,161.25l2,.5,1-1.5.5.5,1-2,1,.5-1,2.5h.5l1,2.5-.5,4.5h-.5l.5,1.5h-.5l.5,1-1,.5-1-1.5-2.5,2-1.5-.5v-2l3.5-2-3-6.5m6-5.5l.5.5v-2.5l1.5.5.5,1-1.5,2.5-1-2m1.5,4l2,2-.5.5.5,1h-1.5l-.5-3.5m-15,11.5l3-1.5.5,1-2,2-1.5-1.5"/>
      <path data-code="KEM-BLM" d="m61.75,159.75l.5,3.5h1.5l-.5-1,.5-.5-2-2m-1.5-4l1,2,1.5-2.5-.5-1-1.5-.5v2.5l-.5-.5m-6,5.5l3,6.5-3.5,2v2l1.5.5,2.5-2,1,1.5,1-.5-.5-1h.5l-.5-1.5h.5l.5-4.5-1-2.5h-.5l1-2.5-1-.5-1,2-.5-.5-1,1.5-2-.5m-17,22l6.5-3.5-1-1.5h-3l1-2.5,1,2,3.5-.5.5,1.5,2-2v-2l-.5-2.5h2.5l1.5-3.5v-2l-2.5-2.5,4-2-.5-3.5,1-2-1-1.5,1.5-.5-.5-1.5,2.5-1,1,.5v1.5l.5.5,2,1v-2.5h.5l-1-2,1-1.5-1-1,3.5-1.5,1,.5,3-.5,1,1,.5-1,3-.5,4,2-.5,1.5h.5l4-3.5,11.5,6,4.5-.5,7,6.5-.5,1.5-.5-1,.5,1-1,.5h.5l-1.5,2,2.5-2.5,2,3-1.5.5,1-.5.5,1v1.5h-1l.5.5-.5,2-1,1.5-15.5-1,.5,1-1,2.5h-2l-4.5-5.5-3,4-5,3.5-5-1-2,2.5v.5l-2,1.85-.68,2.42,1.18.58-1.5,1-.5-1-3.5,2-3.5,1-1-1.5-4.5.5v.5l-1,1,1,.5-2,2.5-1.5.5.92,2.15-5.42-2v-1h-1.5l-1.5-4"/>
      <path data-code="KEM-BER" d="m60.25,80.75l1-2.5.5,1,2-2.5v-1.5h-.5l.5-.5-.5-1.5,1.5-.5v-1.5l1.5-1.5,1.5,1-2.5,3.5,1,2.5h-2l1,2-1.5,1.5,1,.5-3.5,2.5h-.5l-.5-2.5"/>
      <path data-code="KEM-CHE" d="m83.9,93.4l4-14,4,1,1.5-4.5h-1v-2.5h2.5l.5-1-1.5-2.5,5-5-1.5-3,2.5-2.5.5-1.5,2.5,1.5,2-2.5,1,.5,9.5-10,3,2,3.5-3,2,1.5,1.5-.5.5,2.5h3l.5,1.5,2,1,.5,2h2.5l2,2.5-1,2,2.5,2.5-3.5,2v3l-3,3v1l-3-1-1.5,1-1,1.5,1,2.5h-.5l1,.5-1.5,4,1,.5-.5,1-1,.5-1-1.5-1.5,1-1.5-1.5.5,1.5-.5,2.5,1,1v1.5l-4.5,1.5-1,2-2.5-1-.5,1.5-2.5.5-5-1-1.5,2.5-12.5,1-7,2-1.5-1"/>
      <path data-code="KEM-GUR" d="m7.75,143.75l3-1,2,1,2,3,1-2v-1.5l1.5-1.5,3,5h1l1.5,2.5-1,1.5h2.5l1.5,4,1-1,4-2.5,4.5,2.5,1-1v-1l4-1v2.5l7.5,6-2,4.5v2.5l3-2,2.5,2.5v3l-.5,1-1-1-3,1.5,1,3.5v2l-2,2-.5-1.5-3.5.5-1-2-1,2.5h3l1,1.5-6.5,3.5-2-5-2.5,1-2-5-2.5,1-1-2-4,2-8.5-19.5-1.5.5-5.5-12.5"/>
      <path data-code="KEM-IZM" d="m71.25,11.75l.5-2h1.5v1h1l.5,3.5h2l3.5-1.5,2.5-2.5v1.5l1,.5.5-2.5,1.5-1.5,2.5,3,2-1.5,1.5,3h-.5l.5,2.5,2,1,2-1,.5-1.5.5,2v1l-1.5,1.5-.5,4,2-1-.5,2.5-1.5.5,1,4.5,2.5,1-3,3,1.5,1v3l1,.5v1l4,.5v1h-1v1l-.5,1h.5v1.5l-4,.5v2l2,.5.5,1.5-1,.5,6,3-2,2.5,1,1-2.5,2-.5,2-3,3,1.5,3-5,5,1.5,2.5-.5,1h-2.5v2.5h1l-1,4h-5l-1-1v-1l-1-.5,1-.5-2-2,.5-.5-5-2v-1l-1-1v-.5l-1.5-1v-1.5l-2-2,1.5-2-3-2.5,1-5.5,1-.5-1-3.5,2-1.5-2-.5,1-2.5,2-2.5,1-5.5-1.5-.5,1-1.5,2,.5-1-2,.5-2h1l.5-2-1-2v-2l-4.5-2.5-.5-6-2.5-1.5v-.5l.5-3.5-1.5.5.5-1-1-1"/>
      <path data-code="KEM-YAJ" d="m58.75,49.75h.5-.5m1.5,0l.5.5v-.5h-.5m-4.5-8.5l1,.5v-1l-1,.5m3.5,9h1l-.5-.5-.5.5m1.5,1.5v-.5.5m5-5l1,1.5h1l2,1.5.5-.5h-.5l.5-1.5v-2.5l-3.5-1-1,2.5m-22.5-17l2.5-2.5,4-1,3,.5-1-3.5h.5l.5-1.5,7-1-.5-2,1-1.5,2,.5,2.5-1v-3l3.5-2.5-.5-1.5,1-.5-.5-1,5.5-.5-.5,2-2,1v1l1,1-.5,1,1.5-.5-.5,3.5v.5l2.5,1.5.5,6,4.5,2.5v2l1,2-.5,2h-1l-.5,2,1,2-2-.5-1,1.5,1.5.5-1,5.5-2,2.5-1,2.5,2,.5-2,1.5,1,3.5-1,.5-1,5.5-4.5-1-.5,1.5-2.5-.5-1,.5-.5,1.5-1,.5-.5-1-1,1-.5-2-2,1-1-2v-2.5l2-1-.5-.5,1-1-.5-1v-3l-6-.5v-3l5,1.5,1.5-.5-1-1,2-1.5.5,1-.5-3-1.5.5-.5-1h-1l1-3-3-.5.5,1.5-2.5,2.5-.5,2.5h-1v-2.5h1l.5-2v-4.5l-1.5-.5v-1.5l-7-.5v-2l-3-2.5-.5-1"/>
      <path data-code="KEM-YAS" d="m36.75,36.75l.5,1h1v-1.5l-1.5.5m11,8v.5h.5l-.5-.5m-6,1l2,2.5,1-1.5,1.5.5v-3h-.5l-.5-1-3-.5-.5,3m-2.5-4.5l.5,1.5.5-.5v-.5l-1-.5m12,5.5l.5.5.5-.5-.5-.5-.5.5m-34.5-3l1.5-2,5-3,3-4.5h3.5v-1.5l1-.5h2l6,3v-1l15,1.5v1.5l1.5.5v4.5l-.5,2h-1v2.5h1v4l6,.5v3l.5,1-1,1,.5.5-3,2.5-4-1.5v2.5h-1.5l-1.5,3,1,2-1.5,2-.5,1.5-2,1.5-2-3-1,1,1,4.5,1.5,1-.5,2h-2.5v1.5l-3.5-4-5-3.5h-3.5l-2,2.5h-3l-5-3.5-4.5-1-1.5-4.5v-4.5l3-2.5,1.5-3-1.5-4.5-1.5-2-1-3"/>
      <path data-code="KEM-YUR" d="m11.25,65.25l1.5-1.5,1,1,2.5-1.5,2,4.5-2,1.5v-1h-2l1,1-.5.5-1.5-1.5,1.5-1h-2.5l-1-2"/>
      <path data-code="KEM-YRM" d="m1.25,41.75l16.5-6.5,1.5,1,1.5,3.5-3,2.5-1,2,4,8.5v1.5l-1.5,2-2.5,2-.5,5-2.5,1.5-2-.5v2l.5,1h2.5l-1.5,1,1.5,1.5.5-.5-1-1h2v1l2-1.5,2,.5,7,4h3l2-2.5h3.5l5.5,4.5-1,4.5-2.5,1-1.5,3-3-3.5-2,2-.5-1-4.5,1-.5-1h-1.5l-.5,2.5-3-1v2.5l-1,.5.5,1-2.5,2.5-.5.5-1-1.5-2,1,.5,1.5-3.5,1.5-.5-1-1.5,1-6-2.5-1-1.5,5.5-3.5-1-3.5,2.5-1.5-.5-7.5-2.5-1h1l.5-1-3-2.5-1,.5v-1h-1v-1.5h-1v-3h3v-2l-2-.5,1-2-1.5-2,.5-1.5H.25v-1.5l3-1.5.5-.5-2-2,2,.5v-2.5l1.5-1-.5-1.5h-2.5l-1-2"/>
      <path data-code="KEM-KAL" d="m86.25,227.35v-1h2l3-2-1,3.5,1,1-2.5,1.5-1-1.5-1,.5-.5-2"/>
      <path data-code="KEM-KEM" d="m56.75,84.75l1-1,1.5.5-1,1-1.5-.5m-.5-.5h1l-.5,1-.5-1m-7,14l.5-1,1,.5.5-2v-1h1l-2-1.5,1-2-1-1,4.5-1,1,2.5,1-1-2-1,.5-.5,1.5-.5,1.5,2,1-2h-.5l.5-2.5-.5,1-2.5-1.5.5-.5v-.5l1.5.5,1.5-.5v-1.5l.5,1.5-.5,1.5,1.5-.5v2l-2,.5,1.5,1.5h-1.5l.5,1h-1l-.5,1.5v1l-.5,1.5h2l-1.5,1,1.5,2-.5.5v1.5l-1.5.5-.5,1.5-2,1.5,1-2.5-1.5-1.5-1,1,1,1-2-1-.5,2-2-.5-.5,1v-1l1-1h-1.5l1.5-1h-1l-.5-1.5"/>
      <path data-code="KEM-KMM" d="m56.25,84.25l.5,1,.5-1h-1m.5.5l1.5.5,1-1-1.5-.5-1,1m3.5-4l.5,2.5h.5l3.5-2.5-1-.5,1.5-1.5-1-2h2l-1-2.5,2.5-3.5-1.5-1-1.5,1.5v1.5l-1.5.5.5,1.5-.5.5h.5v1.5l-2,2.5-.5-1-1,2.5m-11,17.5l.5,1.5h1l-1.5,1h1.5l-1,1v1l.5-1,2,.5.5-2,2,1-1-1,1-1,1.5,1.5-1,2.5,2-1.5.5-1.5,1.5-.5v-1.5l.5-.5-1.5-2,1.5-1h-2l.5-1.5v-1l.5-1.5h1l-.5-1h1.5l-1.5-1.5,2-.5v-2l-1.5.5.5-1.5-.5-1.5v1.5l-1.5.5h-.5l-1-.5-.5,1,2.5,1.5.5-1-.5,2.5h.5l-1,2-1.5-2-1.5.5-.5.5,2,1-1,1-1-2.5-4.5,1,1,1-1,2,2,1.5h-1v1l-.5,2-1-.5-.5,1m-7.5-9.5l3.5-3.5.5-1.5,2.5-2-1.5-2.5-2.5-2v-1.5h2.5l.5-2-1.5-1-1-4.5,1-1,2,3,2-1.5.5-1.5,1.5-2-1-2,1.5-3h1.5v-2.5l4,1.5,1-1.5.5,3.5h2.5l.5,2,1-1,.5,1,1-.5.5-1.5,1-.5,2.5.5.5-1.5,4.5,1,3,2.5-1.5,2,2,2v1.5l1.5,1v.5l1,1v1l5,2-.5.5,2,2-1,.5,2.5,2-5,18-8.5.5-1.5,1.5v2l-2,2,.5,1.5.5,2.5-1,3,.5,2-7,4-2-1.5-2.5,2-4.5-2.5h-2l-.5,1.5-1.5.5,1.5-1.5-1-5.5-2,.5-1-2.5-3.5-.5-.5-3-2-2.5,1.5-2.5,3.5-3.5-2-.5-1-3-3-2v-1"/>
      <path data-code="KEM-KIS" d="m64.75,183.75l1.5-1-1-1v-.5l3,1.5-1,3-.5-2h-2m-5,11l1,1v-1.5l2-1.5-.5-1.5.5-.5.5,1.5,1-2-2.5-2,2-1,4.5-.5.5.5-.5,1,.5,1.5,1-.5.5,1,2,.5,2-.5-3,2,1,3-2.5,1v1h-2.5l-.5-1.5-.5,1.5-1.5-1,1-1.5-1.5-1-3,1-1,2-.5-2m-3-.5l.5-.5v1.5h1.5l-1.5,1.5-.5-2.5"/>
      <path data-code="KEM-KRA" d="m51.25,124.75l.5-1,3.5-1.5v-1l1-1-1.5-2,3-2.5,2,1,3-2v1.5h1.5l7-4-.5-2,1-3-.5-2.5-.5-1.5,2-2v-2l1.5-1.5,8.5-.5,1-4,1.5,1,1.5-1,1,3.5v1.5l-3,2,1,3,2-.5,1.5-2.5,2,1,.5,1,3,.5v1l1.5-.5,1.5,3.5h1l.5,1.5.5-1-.5-.5h.5l2,3.5,4.5,2-.5,1,2,1v1l2.5,1.5,7,1,5.5,10,7,3-2.83,9.66-2.67.34-2,3.5-1.5-.5-.5,1h-2l-1.5,1.5h-5l-3.5-2-1.5.5-1,2.5-.5,3h-2l.5,3.5-.5,1.5h-2l.5,3-1.5-1.5-.5,1-5-5.5-4.5.5-11.5-6-4,3.5h-.5l.5-1.5-1.5-1-4.5-1,.5-1.5v-1l-5-4.5,2.5-5-3-2,1.5-2,.5-2.5-.5-1,1.5-1-.5-1.5-2-.5-1,1h-2l-2,3-2,.5-6-4"/>
      <path data-code="KEM-LNK" d="m51.75,147.25l1.5-3.5-.5-1.5,2-2-.5-1.5h1l1,2.5,1.5-.5.5,2.5v.5l-1,.5.5,1v3l-3,1-3-2"/>
      <path data-code="KEM-LNM" d="m17.75,143.25l4.5-3.5,1,1.5,3.5-2v2l1.5,3,2.5-1.5-1.5-2.5v-1l3-.5.5-1-.5-.5,1.5-2.5,3.5.5,2-2.5,4.5,3.5,6-6.5,1,1.5,3.5-2-1-2,1-1,1.5,2h3.5l2-3h2l1-1,2,.5.5,1.5-1.5,1,.5,1-.5,2.5-1.5,2,3,2-2.5,5,5,5.5-.5,1.5-1,.5-.5,1-1-1-3,.5-1-.5-4,1.5-1-4.5,1-.5-.5-3-1.5.5-1-2.5h-1l.5,1.5-2,2,.5,1.5-1.5,3.5,3.5,1.5.5,3.5-2.5,1,.5,1.5-1.5,1,1,1-1,2,.5,3.5-7,4v-2.5l2-4.5-7.5-6v-2.5l-4,1v1l-1,1-4.5-2.5-4,2.5-1,1-1.5-4h-2.5l1-1.5-5-6m41.5,11v.5h.5l-.5-.5m-1-1h1l.5,1-.5,1.5-1-2.5m-.5-2h1l.5,1.5h-1l-.5-1.5"/>
      <path data-code="KEM-MAR" d="m94.75,24.25l1.5-.5.5-2.5-2,1,.5-4,1.5-1.5,4.5.5,3.5-2-.5-.5,1,.5-2.5-1.5,1-.5v-1h-1l-.5-1.5h1v-1.5h-1l1.5-1,1,2,1.5,1,5-1,.5,1.5-2,1,.5,1.5,9-4.5,1.5,4.5-1,1,.5,3,15-7.5.5-1.5,3-1,7.5-5.5,1-2.5,1.5.5,1-.5,3,4.5,5-3-1.5,7,4,.5-.5,2.5h-2l-.5,4-6-.5,1.5,6.5h2v5h-1v1l-6-1.5-.5,1.5-2.5-.5v1l-2.5,1.5-1,2h-1l-.5,2.5,2.5-.5,1.5,2,1,2h-.5v1.5l-1,2,1,1-1.5,2h-2l-.5,4,1.5,1.5.5,2.5-5,4.5-2-.5-1-2h-2.5l-.5-2-2-1-.5-1.5h-2.5l-1-2.5-1.5.5-2-1.5-3.5,3-3-2-1,2-3,1.5-5.5,6.5-1-.5-2,2.5-2.5-2,3-2.5-1-1,2-2.5-6-3,1-.5-.5-1.5-2-.5v-2l4-.5v-1.5h-.5l.5-1v-1h1v-1l-4-.5v-1l-1-.5v-3l-1.5-1,3-3-2.5-1-1-4.5"/>
      <path data-code="KEM-MEZ" d="m112.25,213.75l.5-1,3,1,.5-2.5,4.5-8,.5-2,2-.5,1.5,2,.5-2.5,1-.5-.5-2.5,1-.5.5-1.5,2.5-4.5.5-4-.5-1.5.5-1.5,4-1.5h1v1.5l1,.5,1.5-2.5-.5-1.5,1-.5-.5-2.5,1-.5-.5-1.5,1-1.5,3,1.5,1,1-.5,1v1.5l2,.5,1.5-3,4.5-4.5,1,.5,1-2h1l2.5,2.5,1,2.5-1,2,1.5.5.5,1-.5,1h1l1.5-3,3.5-.5h1v2.5l1.5.5-.5,1,.5,1.5h1.5l-1,1-.5,2.5-.5.5v2l-1.5,3-1.5,1-3.5.5-1,2v3.5l-.5,2,2,2-1,1v1.5l1.5-1,4.5.5v2.5l-1.5,2,1,2.5,1.5,1v1.5l-2,1.5h-6v2.5l-1,1.5-.5,3-1,1.5.5,1-2,.5-1,1,.5,1-4,1,1,2.5h1l-1.5,2,.5,3-.5,2-1.5-.5-1,2,.5,1-1,2.5-1.5,1v1l1.5,1,2-2.5,2.5-.5,1.5,3.5-.5,1.5,3.5,3.5v3l-2,2.5,1,1.5-2-.5-5,2h-3.5l-3.5-1.5-2-3.5-3,1.5-1.5-1-1.5,1.5-.5-.5.5-1.5-5-1-.5-1.5,1.5-1,1-2.5,2-3-.5-1-1-1,.5-.5v-2l2-5.5-1.5-1-5,3.5-1-1.5h-3.5l.5-1.5-2-2.5-1,.5-1.5-5-1.5-1,1.5-2.5-3.5-2.5v-1l-1-2.5-.5-4-.5-.5"/>
      <path data-code="KEM-MYS" d="m101.95,211.45l.5-1,2,.5-.5,2,1,.5.5-1.5-.5,1.5,1,1.5,2-1-.5-1,1-.5v2l-.5-.5-.5,1,1.5,1.5.5-.5-1-1h1.5v-2l.5,1h2.5v1.5l-1,1.5v3l-.5,2,2-1.5v.5l-1,.5,1,1-4.5,4.5,1.5-2.5-3,.5v-1l1.5-.5-.5-1,1.5-1v-3l-3-2h-2l-.5-1h1v-1l-3.5-2v-1"/>
      <path data-code="KEM-NVK" d="m74.25,218.1l1.5-2.5,3,1,1-1v-1l1-2h-1l1-1-.5-1,1,1,1-3h2.5v-1.5h1l1.5-4-2.5.5-1-1,1-.5v-2.5l1-1.5,1,1-1,.5,1,1.5v1.5l3-2,3-.5h1l.5,3-4,1.5v1.5h-.5l.5,1.5h-1l.5-.5-.5-.5-2,2,3,1,1.5-1.5v-.5l.5-2.5,1.5,1.5,2-2,2.5,2-3.5,4.5-2,.5,1.5.5-2.5,2,.5-.5-3,1-1-2-.5,1.5,1.5,1.5-.5.5v1l-1.5-2.5-3,1-2.5-1-3.5,3.5-1-.5-2.5,1.5-.5-1"/>
      <path data-code="KEM-NVM" d="m108.75,214.1v.5h.5v-.5h-.5m-22.5,13.5l.5,2h2l.5,3.5,1.5,1-.5,1-1.5-.5-.5,3.5,2.5-.5,1-2h.5v-1.5l-1-2.5-1.5,1-1-1.5,2-.5,1-1.5-.5-3.5.5-1.5,4.5-1.5,2-6h-2l-.5,3-4,.5-1.5,1.5h1v2.5l-3,2-2,.5v1m-12-9.5l.5,1,2.5-1.5,1,.5,3.5-3.5,2.5,1,3-1,1.5,2.5v-1l.5-.5-1.5-1.5.5-1.5,1,2,3-1-.5.5,2.5-2-1.5-.5,2-.5,3.5-4.5-2.5-2-2,2-1.5-1.5-.5,2.5v.5l-1.5,1.5-3-1,2-2,.5.5-.5.5h1l-.5-1.5h.5v-1.5l4-1.5-.5-3h-1l-3,.5-3,2v-1.5l-1-1.5,1-.5-1-1-1,1.5v2.5l-1,.5,1,1,2.5-.5-1.5,4h-1v1.5h-2.5l-1,3-1-1,.5,1-1,1h1l-1,2v1l-1,1-3-1-1.5,2.5m-15,4l3-.5-.5-1,1-1-.5-1.5,4.5-2v-2l3,.5,1-2,4,.5,5-3.5.5-2.5-.5-.5,2-2h-1.5l-1-1,3-1-2-1.5v-1.5l.5-.5v-1l2-1-1-1,1-1-.5-2,.5-.5h-1.5v-3l3-1.5v.5l1.5.5v-1l2.5-1v-4.5l1-1.5,7.5-3.5v-1.5l1.5-.5.5-1.5-.5-1.5h1.5l.5-1.5,1.5-1,1-1.85.54-2.23-.54-.27h1v-2.15l-1,.5,1-1-1.5-2.5-3,2.15,1.18-1.67-.18-.33,1-.5-.5-1,.67.5.33-1-.5-.15-1.5-.85.5-1,1.5,1.5-.5-3h2l.5-1.5-.5-3.5h2l.5-3,1-2.5,1.5-.5,3.5,2h5l1.5-1.5h2l.5-1,1.5.5,2-3.5,2.67-.34-.17,1.19h2.5l2-2,4,.5,1.5,1v1.5l3.5,2v2l-2,2.5-.5,1.5,1.5,1.5-1.5,2.5,1.5,1,2-2,5.5-1.5-1,2.5-1,1,.5,2-1,1.5.5,2-1,1.5v3l-2,1.5,1,1.5-1,1-6,2,1,2,3,.5-1,1,.5,2h-1l.5,3h-1l.5,1.5-1.5,2.5h-1v-1.5h-1l-4,1-.5,2,.5,1.5-.5,4-3,4v2l-1,.5.5,2.5-1,.5-.5,2-1.5-1.5-2.5.5v2l-4.5,8-.5,2.5-3-1-2,1-1.5-1.5.5,2.5-1.5-.5v.5l1,1-1,.5-1-1.5v-1l.5-.5.5.5-.5-1.5h-.5l.5,1-2,1-1-1,.5-1.5-.5,1h-1l.5-2.5h-2l-.5.5v1.5l3.5,2v.5h-.5l-.5.5.5,1,1.5-.5,3.5,2.5-.5,2.5-1,1.5.5.5-1.5.5v1h3l-1,2,4-4-1-1,1-.5v-.5l-2.5,1,1-1.5-.5-3,1.5-1.5,1.5,6,3,3-1,2.5,1.5.5,1.5,5h1l2,2-.5,2h3l1.5,1,5-3,1.5.5-2,6v1.5l-4.5,4-3.5,4.5.5,2-1.5.5-1.5-1.5h-5l-1-1,.5-1.5-1.5-1-3,.5v-3.5l-1-1,1-1-1-1.5-8,2.5-1,3-2-1.5v1.5l-1,.5-3-2.5-5,.5-2.5-1.5v4h-1l-1,3,1,1.5h2l-.5,2,1,.5-.5,1.5-.5-.5v3.5l-1-.5-1,2,2,1.5,1-3h.5l-.5,1,1-.5,1,2.5-1.5,1.5,2,1-4,1.5-1,1.5-2-1.5-1.5,1v1l-7.5,2,.5-2,.5-3,2-3.5v-1l-7-3.5-1-2.5.5-2.5-2.5.5-2.5-1v-3l-2.5.5-.5-4,1-1.5,1.5,2,2-1,.5.5.5-1h-.5l2.5-2,.5-2h1v-1.5l2-1.5-1-1,2-2-1.5-1v-2l2.5-1.5.5-2-4,1.5-1,2-4-3.5-6-3-2-3.5"/>
      <path data-code="KEM-OSI" d="m88.25,237.6l.5-3h2l-.5-1-1-.5-.5-2,.5-1,2-1-1-1,1.5-5-1.5-2,2.5-2,3,.5.5-3,2-.5v1.5l-2,5-4.5,1.5-.5,1.5.5,3.5-1,1.5-2,.5,1,1.5,1.5-1,1,4h-.5l-1,2h-2.5"/>
      <path data-code="KEM-POL" d="m55.25,149.6l3-1.5,1,.5,1,1.5h-1v1.5h-1v1.5h2l-2,.5,1,2-1.5-.5-.5-1v-1h-1l-1-3.5"/>
      <path data-code="KEM-PRO" d="m61.25,202.1l.5-.5v.5h-.5m3.5,0v-1l3-1.5-.5-3.5.5,1.5,4.5-2v1.5l2,1.5v1.5l1,1.5-1,1.5v2.5l1-.5-1,2.5,1.5,1.5-1.5.5-.5,1.5v-3h-3v-1.5l-1,.5.5-2.5-1,.5-2.5-1-1,.5v-2l-1-.5"/>
      <path data-code="KEM-PRK" d="m61.25,202.1h.5v-.5l-.5.5m4-18.5l2,.5.5,1.5,1-2.5-3-2-.5,1,1,1-1,.5m-8.5,11l1,2.5,1.5-2-1.5.5v-1.5l-1,.5m3,.5l1,2,1-2.5,3-1,1.5,1-1,2h2l.5,3-3,1.5v1.5h1l.5,1.5-.5.5h4.5l-.5,2.5,1-.5v1.5h3v3l.5-1.5,1.5-.5-1.5-1.5,1-2.5-1,.5v-2.5l1-1.5-1-1.5v-1.5l-2-1.5.5-2-1-1v-1.5l2.5-2.5-1.5,1-2.5-.5-2-2,1-1-.5-.5h-4.5l-2,1.5,2.5,2-1,2-.5-1.5-.5.5.5,1.5-2,1.5v1.5l-1.5-1m-15-7l1.5-.5,2-2.5-1-.5,1-1v-.5l4.5-.5,1,1.5,3.5-1,3.5-2,.5,1,1.5-1-1.18-.58.68-2.42,2-1.85v-.5l2-2.5,5,1,5-3.5,2.93-3.91,4.57,5.26,2,.15,1-2.5-.5-1,15.5,1.35-1.5,1-.5,1.5h-1.5l.5,1.5-.5,1.5-1.5.5v1.5l-7.5,3.5-1,1.5v4.5l-2.5,1v1l-1.5-.5v-.5l-3,1.5v3h1.5l-.5.5.5,2-1,1,1,1-2,1v1l-.5.5v1.5l2,1.5-3,1,1,1h1.5l-2,2,.5.5-.5,2.5-5,3.5-4-.5-1,2-3-.5v2l-4.5,2,.5,1.5-1,1,.5,1-3,.5-2-2.5-1,.5-1.5-5-1-11.5-4,1-1.5-12-2-1-1.5-3.5"/>
      <path data-code="KEM-PRM" d="m7.75,115.6l1.5-.5,1-2,2-7.5,5-1.5.5,2.5h-1l-1,2-1-.5v2h7.5l.5,1.5,5-1,1,2,3,.5,8.5-.5v2l2.5.5,2-2,1,1.5,1.5-1,5,3,1.5-2,1.5-.5,3.5,2-3.5,2.5,1,2-.5,1v.5l-3.5,1.5-.5,1,3,2-1,.5,1,2-3.5,2.5-1-1.5-6,6.5-4.5-4-2,3-3.5-.5-1.5,2.5h.5l-.5,1-3,1v1l1,2.5-2,1-1.5-3-.5-1.5-3.5,1.5-.5-1-4,3-1-1-1.5,1v2l-1,2-2-3.5-2.5-.5v-3l.5-.5-.5-2-3-2,3-3.5,2,.5-.5-1.5,3-1-1-2,1-.5-1-1.5-2-5-3-1v-1.5l-1.5-3"/>
      <path data-code="KEM-TAJ" d="m42.25,46.1l.5-3.5,3,.5v1.5h1v2.5h-1.5l-1,1-2-2m-5-9l1-1,.5,2-1-.5-.5-.5m9,5h.5-.5m-6.5-.5l1,.5-.5,1-.5-1.5m8.5,3.5l.5.5h-.5v-.5m3.5,2l.5-.5.5.5-.5.5-.5-.5"/>
      <path data-code="KEM-TAS" d="m71.25,274.6l1-2h1l3.5-2,1.5.5,3-2h1.5v-1l1.5-1,2,1.5,1-1.5,4-1.5-2-1,1.5-1.5-1-2.5-1,.5.5-1h-.5l-1,3-2-1.5,1-2,1,.5v-3.5l.5.5.5-1.5-1-.5.5-2h-2l-1-1.5,1-3h1v-4l2.5,1.5,5-.5,3,2.5,1-.5v-1.5l2,1.5,1-3,8-2.5,1,1.5-1,1,1,1v3.5l3.5-.5,1.5,3.5h5l1.5,1.5,1.5-.5-.5-2,3.5-4.5,4-3.5,1,1,.5,1.5-2,2.5-1,3-1.5.5.5,2,5,1-.5,1v.5l2-1.5,1.5,1.5,3-1.5,2,3,3.5,2h3.5l5-2,3.5,1-.5,2.5-2,.5.5,2-1,1-3.5,2,1,1-1.5,3,1.5,3,1-1.5,3.5,1,1.5,4-.5,1.5,1,1.5,2-1.5,1.5,2,.5,4-2,1-1,3.5-1.5.5v1.5l-3.5-.5,1.5,3-.5,2,2,2-1,1.5-2-.5v2l-2,.5-1,2-.5,2-1.5.5-3.5,3.5-6.5,4.5-1.5,2,1.5,1v1l-.5,4-1,.5-2-.5-2,2h-1.5l-3,3-2,.5-1.5-.5-.5-2,1.5-3-.5-2.5h.5v-1.5l3-3-2-2.5,1.5-2v-2l-4.5-2.5-.5,2-1.5,1.5-2,1-3-2.5-1-2.5-3.5-3.5-5-2.5-2,3.5h-3.5l-4.5,4-1-1-.5-1.5.5-.5-.5-.5-1,.5-1.5-1.5-2,.5-2.5-2h-2l.5-5.5h-1.5l-1.5-1.5h-3l-1,1-3-2,1-.5,1.5-7-2-1-.5,2-1.5-.5-.5-.5,1-1.5-3.5-2.5-1-2.5.5-3h-1l-.5-1"/>
      <path data-code="KEM-TIS" d="m85.25,100.6l3-3.5-1-3.5,18-2.5,1.5-2.5,4.5,1.5,3-.5v-1.5l3,.5,1-1.5,4.5-1.5v-2l-1.5-.5,1-2.5-1-2,2,2,1-1.5,1.5,2,1-.5v-1.5h-.5l1.5-4-1-.5v-.5l-.5-2,1-2,1.5-.5,3,1v-1l3-3v-3l5.5-3h1.5l2,2-.5.5,2,1-1,2.5,3.5,1.5v-1.5l6,1,2.5,2,2-.5.5,3.5h2.5v2l5.5-.5v1.5h2l2,6h-3.5l-1,1.5-1-.5-3,1-1,2-1.5.5-1.5,2-5.5,5-1,3-1.5,1-.5,2v1l-1.5,1,.5,1-2,1.5v1.5l-3.5,2.5-.5,3h.5l1.5,2-.5.5h.5l-.5,1h1v.5l-.5,1,1,1-1,1,2,3-1.5,5.5.5,1.5v1l2,.5v2.5l2,.5.5,2-1.5,2.5,1.5,1.5,2-1v2l.5,1-.5.5v3.5l-1,1.5h-3l-.5.5v2.5l-1,1.5-5.5,3.5-2,2-1.5-1,1.5-2.5-1.5-1.5.5-1.5,2-2.5v-2l-3.5-2v-1.5l-1.5-1-4-.5-2,2h-2.5l.5-3.5,2.5-7.35-6.5-3.15-5.5-9.5-7-1-2.5-1.5v-1l-2-1v-1l-4-2.5-2-3h-.5l.5.5-.5.5-1-1.5-.5.5-1.5-3.5-1.5.5v-1l-3-.5-.5-1.5-2-.5-1.5,2-2.5,1-.5-3"/>
      <path data-code="KEM-TYA" d="m135.25,59.1l.5-1.5,2-.5,5-4.5-.5-2.5-1.5-1.5.5-4.5,2,.5,1-2.5-.5-.5,1-2-.5-1.5.5-.5-2.5-3.5h-2v-2.5l1.5.5.5-2,2.5-1.5.5-1,2.5.5.5-2,3,1,6.5,3v3.5h6l2,3-1,1v1l5,.5-.5,7h2l1,1.5-1,1.5v.5l3.5,1.5-.5,4,2.5.5.5,1-1.5,3,1,5-.5,1,.5,1-.5,1.5h2.5l.5,1.5.5-.5h-.5l.5-.5.5,1.5h1l-1,1,.5,1-2,.5-.5,1.5v2.5l.5.5-3,.5-1.5,1.5h-2l-1.5,3-2-6.5h-2v-1.5l-5.5.5v-2h-2.5l-.5-3.5-2,.5-2.5-2-6-1v1.5l-3.5-1.5,1-2.5-2-1,.5-.5-2-2-3.5.5-3-2"/>
      <path data-code="KEM-TOP" d="m8.75,100.6l2-2.5,2-.5v-3.5l-1-2.5,3.5-2-1-1,2.5-1,1,1,.5-.5,2.5-2.5-.5-1h.5v-2.5l3.5,1,.5-2.5,1-.5,1,1.5,4-1,2,1,.5-2,3.5,3,1-2.5,2.5-1.5,1.5-4,5.5,5,1,2-2,2-.5,2-4,3,.5,1.5,2.5,2,1,3,2.5.5-3.5,3.5-1.5,2.5,2,2.5.5,2.5,3.5,1,1,2h1.5l1.5,5.5-1,1h-2l-1-1.5-2-1-1.5,1-1-1.5-2,2-2.5-.5v-2l-8.5.5-3-.5-1-2-5,1-.5-1.5h-7.5v-2l1,.5,1-2h1l.5-1h-1l.5-1.5-6,1.5v-1.5l-3-3.5"/>
</svg>