<svg data-code="RU-KL" xmlns="http://www.w3.org/2000/svg" viewBox="0 0 249.75 267.25">
    <g data-code="respublika_kalmykija" data-title="respublika kalmykija">
      <path data-code="celinnyj_rajon__respublika_kalmykija_" data-title="celinnyj_rajon_(respublika_kalmykija)" class="cls-1" d="M90.12,108.99l1.3-1.62,2.2-1.24,3,.5,2.5-2-1-3,1.5-1.5-1-.5,5-6.5-3-5.5,1.5-1h3l3-2.5,1.5-2,6.5-.5,4.5-3,2,2.5,6.5-2.5.5-.5,15.5,10.5-2,4.5-2.5,3,7.5,7,1-1,5,3.5-7,8.5-7,5.5-7-3.5-2.5,6-2.5,3.5.5,1.5h-2.5l-2.5-1.5-3.5,4-5-4.5-5.5,3-5.73-4.63.73-2.37-.5-.64,2-2,.5.64,4-4,2.5,2,.5-1-1-2,.5-.5-1-.5,2-1-7-5-4.56,4.97-5.94-1.11-1,1-9,.5-1-3,4.5-.5Z"/>
      <path data-code="chernozemel_skij_rajon" data-title="chernozemel&amp;apos;skij_rajon" class="cls-1" d="M118.12,182.12l6-3,5.5-4.5,1.5-2.5v-3l1.5-2.5-.5-1.5,4.5-7,6.5,7.5,29.3,15.24-2.3,2.76,1,8.5,5,4.5-1.5,2.5-4.5,3v.5l6,6.5-1.5,1.5,3,2-.5,2,1,2,4.5.5-3,3.5-4.5-2.5,1-1.5-4.5-2.5-2.5,2.5-8-3-1.5,2,5,3.5-.5.5,2,.5,2.5-2,5.5,3.5.5,1.5-4.5,7-17,18,1,1.5-3.5,3.5-1-1.5-3.5,3-2-6.5-5.5-4-4-5-3-.5-6-6-6.5-4-2,1-2.5-2.5,1-1-.5-10.5-5.5-11.5,7.5-3.5-1-6.5-1-.5,4.5-6-1.5-5.5"/>
      <path data-code="ehlista" class="cls-1" d="M107.12,107.12l7,5-2,1,1,.5-.5.5,1,2-.5,1-2.5-2-4,4-5-6,5.5-6ZM104.62,121.12l-2,6.5-1.5,1,2,6-4-1.5-1.5,2.5-1-.5-.5.5-1.63-.81,5.13-8.33.5.5,1-1-2.5-1.5,3-5.5,1,1.5h1.5l.5.64Z"/>
      <path data-code="gorodovikovskij_rajon" data-title="gorodovikovskij rajon" class="cls-1" d="M5.12,59.62l2.5,1v-1l1.5-.5v3l3,5,2.5-1,2.5,1.5,1-1.5-1.5-1,2-3,1.5,1,2-2.5,6.5,4.5-1,2-1.5-1-1,2,2,1.5-3.5,7.5-1-.5-2,2.5h.5l-6,7-3-1,1.5-2L.62,73.12l2.5-4,1-7,1.5-1-.5-1.5"/>
      <path data-code="iki-burul_skij_rajon" data-title="iki-burul&amp;apos;skij_rajon" class="cls-1" d="M88.12,142.99l1-3,2.5-.5,2.87-4.67,1.63.81.5-.5,1,.5,1.5-2.5,4,1.5-2-6,1.5-1,1.27-4.13,5.73,4.63,5.5-3,5,4.5,4,5.5-4.5,9.5,4,5,5.5,1.5-1.5,2.5,1.5,5.5-6,2.5,3,3,4,1.5,2,1.5-1,1.5v3l-1.5,2.5-5.5,4.5-6,3,1.5,5.5-4.5,6,1,.5,1,6.5-7.5,3.5-11.5-20.5.5-1-1-3.5h-2l-1.5-1.5-4-6v-2.5l-4-2-2.5-5.5-1.5-1-2-9v-4l2-6.14,6,1.5Z"/>
      <path data-code="jashaltinskij_rajon" data-title="jashaltinskij rajon" class="cls-1" d="M34.12,48.62l6.5,2.5,5.5,7.5-.5,2.5,2.5,3v5.5l3,4,3,2.36v2l1.5,2.5-.2,6.88-4.3.26-1,.5.5,1-7,2-3.5-1-7.5,2-10-3.5,6.5-9.5-5.5-2,3.5-7.5-2-1.5,1-2,1.5,1,1-2,1,.5,2.5-3.5.5-1.5-2.5-1,4-11"/>
      <path data-code="jashkul_skij_rajon" data-title="jashkul&amp;apos;skij_rajon" class="cls-1" d="M120.12,129.62l3.5-4,2.5,1.5h2.5l-.5-1.5,2.5-3.5,2.5-6,7,3.5,7-5.5,8.5-10.5,1-5.5,7,5.5,7,3,13,9,2-3,5,1.5-8.5,14.5,9,6.5,7-3,5,3.5-1.5,1,8.5,8.5-2,3.5-3-2-4,9,5,3-1,2.5-2.5-1-6.5,3.5-1.5-3-5.5,1.5-.5,1,2.5,3.5-5.5,5.5-7,12-35.5-18.5-6.5-7.5-4.5,7,.5,1.5-.5,1-2-1.5-4-1.5-3-3,6-2.5-1.5-5.5,1.5-2.5-5.5-1.5-4-5,4.5-9.5-4-5.5"/>
      <path data-code="justinskij_rajon" data-title="justinskij rajon" class="cls-1" d="M201.12,82.49v-1.5l5-6.5,3.5-2,2,1,4.5-.5,1.5-1.5.5,7.14,4.5,14,4.5,3,18.5-5,2,1,1.5,5-9.5,1-7.5,1.5-4,24.5,1,2-1,4,5,5-3.5,7.5-1.5,1-4,7-7,4-.5,7.5-2,5-3.5-3-6-2.5,1-2.5-5-3,4-9,3,2,2-3.5-8.5-8.5,1.5-1-5-3.5-7,3-9-6.5,8.5-14.5-5-1.5,13.5-20.5-3.5-2.64,5.5-7Z"/>
      <path data-code="ketchenerovskij_rajon" data-title="ketchenerovskij rajon" class="cls-1" d="M129.62,78.12l11-12.5,9.5-16.14,6,4,2.5-4,5.5,9,4.5-2,3-3.5,2.5,1.5,1-1,3,.14,2.5,4-1,3.86.5,7.5,1,4,2.5,4,.5,3-5,4.5,4.5,5,12.5,7.14-12.5,19-13-9-7-3-7-5.5-1,5.5-1.5,2-5-3.5-1,1-7.5-7,2.5-3,2-4.5-15.5-10.5"/>
      <path data-code="laganskij_rajon" data-title="laganskij rajon" class="cls-1" d="M146.12,254.62l3.5-3,1,1.5,3.5-3.5-1-1.5,17-18,4.5-7,1,1.5,7-7.5,1.5.5,2-1,9,5.5h4l1-1,3.5,2,3,3.5h2l-1,1,1,.5-1,1.5-2-.5-1.5,6.5-6,1-2,1.5-1.5-1,.5,3.5-.5,1.5-3,2-1-2-1.5,2.5-1-.5-.5,1.5-2,1.5-1.5-1.5.5,1.5-2,4-2,1.5-.5-1-.5,1.5-1.5,1-.5,2-1.5-1-2,3-4.5,3.5h-1.5l-.5-4-1-1,.5,1.5-1,4.5-1,2.5-2.5,1.5-.5-1,1-2.5h-1.5l.5-3.5,1.5-1.5-.5-.5-6.5,7-1-1-2.5.5-1.5-1.5-.5,3h-1l-1-4,1.5-1-4.5-6"/>
      <path data-code="maloderbetovskij_rajon" data-title="maloderbetovskij rajon" class="cls-1" d="M173.62,12.12l7.5-11.5,2,.5-.5,1,2,1.5-1,1,3.5,3.5-5.5,8.5,5,2,1-1.5,4,5.5,7-2,1-2.5,2-1.5v-2l3.5-2,5.5,7.5-2,1.5,2.5,3.5-1,4,4,3,2.5,9.5,7,1.5,1,3-4,3.5-1,2-8-2.5,1.5-2-2.5-2,1-1-1.5-5.5-8.5-4.64v6l-3.5-1-1,9-6,4.5h-1.5l-1,5.14h-8l-2.5-4,1-2.64-2-5.5,3-3v-1.5l-2.5-1.5-1.5-3,2-5.36-10-7,6-4.5,3-5.5-3.5-2"/>
      <path data-code="oktjabr_skij_rajon__respublika_kalmykija_" data-title="oktjabr&amp;apos;skij_rajon_(respublika_kalmykija)" class="cls-1" d="M188.62,57.62l1-5.14h1.5l6-4.5,1-9,3.5,1v-6l8.5,4.64,1.5,5.5-1,1,2.5,2-1.5,2,8,2.5-2,4.86,1,2-1,6.5,2,1.5-2,5-1.5,1.5-4.5.5-2-1-3.5,2-5,6.5v1.5l-5.5,7,3.5,2.64-3,4.5-12.5-7.14-4.5-5,5-4.5-.5-3-2.5-4-1-4-.5-7.5,1-3.86h8Z"/>
      <path data-code="prijutnenskij_rajon" data-title="prijutnenskij rajon" class="cls-1" d="M54.12,75.99l1.5-.5.5-1.5,7,1,5,26.5,7,5,4,1,11.5-8.5v-2l1-1,2,3.5-.5,2,.5,4-2.5.5v2l-1,1-4.5.5,1,3,9-.5,1-1,5.94,1.11-.94,1.03,4.5,5.36-2,2h-1.5l-1-1.5-3,5.5,2.5,1.5-1,1-.5-.5-8,13-2.5.5-1,3-6-1.5-.5-3,.5-3.5-2-4.5,1-2.5-5.5-6.5-9.5-6.5-2.5-5.5v-6l-8-10.5-.5-2.5.5-10-1.5-2.5v-2"/>
      <path data-code="sarpinskij_rajon" data-title="sarpinskij rajon" class="cls-1" d="M131.62,26.99l8-9,7,1,2.5,2,5.5-2.5v-1l5-2,2,2.5-.5.5h1l6.34,5.87,9.66,6.76-2,5.36,1.5,3,2.5,1.5v1.5l-3,3,2,5.5-1,2.64-3-.14-1,1-2.5-1.5-3,3.5-4.5,2-5.5-9-2.5,4-6-4,2.5-4-3-1.5,2.5-4.5-1.5-1-.5,1-2-2-4.5,8-7-3-4,3.5-2,4.5-5-4,3-5.5,3-14"/>
    </g>
</svg>