<svg data-code="RU-IVA" xmlns="http://www.w3.org/2000/svg" viewBox="0 0 145.75 102.61">
    <g data-code="ivanovskaja_oblast_" data-title="ivanovskaja_oblast&amp;apos;">
      <path data-code="furmanovskij_rajon" data-title="furmanovskij rajon" class="cls-1" d="M56.12,13.12l1.5-.5v-1l.5-.5.5-1.5,1,.5,1.5-1,2.5.5,1.5,2,2-1.5-.5.5,1.5,1.5-.5,1.5,1-.5,2,2,1.5-1.5,3,1.5v.5l-1,1.5h1l1,1-1.5,1v1.5l.5-.5v2l-1,.5,1,1.5-.5.5.5,2,.5-1,1.5.5-1,1,.5,1-1.5-.5.5,2-.5.5,1.5,3-.5.5-3.5,2-1.5-.5-.5-3-1-1v-2l-1.5.5-.5-1.5h-2.5l-.5-2-1.5-.5,1.5-2.5-2.5-1.5,1.5-1-1-1-1.5,1-2-2-1,1-2.5-.5-.5,1.5-.5-2,.5-.5-.5-2h.5l1-1.5,1,1.5,1.5-1.5-2.5-1.5"/>
      <path data-code="gavrilovo-posadskij_rajon" data-title="gavrilovo-posadskij rajon" class="cls-1" d="M7.12,32.62h2l3-4h1l4.5-6.5v-1l3,1-.5,1,2,2-.5,1.5,2,1,1.2-.8-.2,2.16-1,1.5-1-.5v1l1,3.5,1-.5,1,1.5-1,1.5v1.5l-1.5,1.5,1,1.5-2,.5,1.5,1.5-2,2,1,1-1.5.5,1,.5-.59,1.47-2.41.16-3.5-.5-1,.5-.5,1h-2.5l.5-1.5-1.5-.5v-2.5l-2-1.5-2,.5v-1h-1.5l.5-2.5,2.5-1.5-.5-3.5,1-1.5-2-.5,1-.5-.5-1"/>
      <path data-code="il_inskij_rajon__ivanovskaja_oblast_" data-title="il&amp;apos;inskij_rajon_(ivanovskaja_oblast&amp;apos;)" class="cls-1" d="M2.12,11.12l2.5-1v-1l2,2,1-1-.5-1.5.5-1,3-.5,1.5-1,1,.5,1-1.5.5-.5-.5-2h2l1.5,1,2.5-2,4,2.5.5-1,.5-.5,2,3,1-2h-.5l.5-2h1l1.5-1,2,2h3.5l1-.5,2.5,3-3,3.5h-2.5l-3.5,1.5-.5,1,1.5,2-2.5,1.5,3,1.5-.5,3.5-1.5,2-4,.5-1,1.5-.3,3.2-1.2.8-2-1,.5-1.5-2-2,.5-1-3-1v1l-1.8,2.61-3.2-1.61-2-5.5-1.5-1-.5,1-1-.5.5-1-4,1.5-.5-.5-.5,1-1.5-1-.5-1,.5-2-1-.5,1-1h.5v-1.5"/>
      <path data-code="ivanovo" class="cls-1" d="M53.12,31.12l2.5-.5.5-1.5.5.5,1.5-1.5,1,.5,1,1.5-.5,1.5h1l-1.5,2,1,.5-1,2.5.5,1.5h-1v-1.5l-1.5,1v-1h-2l-1-1.5.5-3.5-1.5-.5"/>
      <path data-code="ivanovskij_rajon__ivanovskaja_oblast_" data-title="ivanovskij_rajon_(ivanovskaja_oblast&amp;apos;)" class="cls-1" d="M57.12,37.62v2l-.5.5,1,1v-1l.5.5,1-.5v-1l-2-1.5M53.12,31.12l1.5.5-.5,3.5,1,1.5h2v1l1.5-1v1.5h1l-.5-1.5,1-2.5-1-.5,1.5-2h-1l.5-1.5-1-1.5-1-.5-1.5,1.5-.5-.5-.5,1.5-2.5.5M46.62,22.62l2.5.5.5-2,2-.5.5-1.5v1l1-.5,2,1,.5-1.5,2.5.5,1-1,2,2,1.5-1,1,1-1.5,1,2.5,1.5-1.5,2.5,1.5.5.5,2h2.5l.5,1.5,1.5-.5v2l1,1,.5,3,2.5,2.86-2,1.14-.5,1.5-2-.5-1,1-1-.5-2,.5-.5,2-1.5,1.5-1.5-1-2,.5-1.5-1-1,.5-.5,1-1-1-1.5,2h-1.5l.5-1-.5-1.5h-1v-3l-1.5,1.5-1-2.5-1.5.5,1-1.5-.5-1.5,2-.5-.5-1,1.5-3.5-2.46.16-1.04-2.16,1.5-2-2.5-2v-3"/>
      <path data-code="jur_eveckij_rajon" data-title="jur&amp;apos;eveckij_rajon" class="cls-1" d="M116.12,48.62l3.5-2.5,3.5-5,3,1,1.5,2.5.5-1,.5,5,9.5,3,1.5-1,.5-2,3-2.5-.5-.5.5.5v-2l1-.5,1-1.5-1.5,2.5.5,1.5-1.5,1.5-.5,1.5h-1l-1,1v2.5l3,.5v1l-7.5,3.5-3,3.5-4.5,1.5-2.57,4.01-7.44-2.64-2.71-3.43.72-1.43-2-2.5,2-4-.5-1,1.5-2.5-1-.5"/>
      <path data-code="juzhskij_rajon" data-title="juzhskij rajon" class="cls-1" d="M61.12,71.99l.5-1-1.5-1,3-1,1-1-1.5-1.5.5-1.36,1.5-1-.5-1h1.5l2.5-2.64v4.5l2.5,3,9,3.5.5,1.5,3.5,2,.26,1h-.76l-1,2.5-.5-.5v3.5l1.5-.5,3,1v4.5l-1.5,1.5-3,.5v1.14h-1l-2.5,3.5-3.5-1-2-2.5-1.5,2.5-2.5-1-.5,1.5-4-.5.5-2h-2.5l1.5-1.5.5-2.5.5-.5v-1.5l2-1.5-.5-2h.5v-.5l-.5-1.5-3,.5-3.14-1.64,1.11-1.42-3.47-1.08v-2.5l1-.5h2.5Z"/>
      <path data-code="kineshemskij_rajon" data-title="kineshemskij rajon" class="cls-1" d="M103.62,23.99l4,1.5,1.5,1.14h-1.5l-1.5,2.5v2.5h1.5l1.5,2,1.5-1.5,1,.5v-1h.5l3,.86,3,4.5,2.5-.5,2-3.5,1,1,4-7.36,4.5,2.5v1.5h1l1-2.5,2-1,2,2-.5,1,1,1.5-2,1-.5,2.5-1,.5v1l-3.5,1,.5,2-1,1,.5,1-2,1v1.5l-1-.5-1,1-1.5-2.5-3-1-3.5,5-3.5,2.5,1,.5-1.5,2.5.5,1-1.5,3-3-.5-2,3.5-3-2h-1.5l-1.5-2,.5-.5-1-1,1-1v-1.14l1-1v-1l-2-.5-1.5-3.5v-1.5l1-.5-1-2,1-1.5-2-3,.5-2,2-1-.5-.5.5-2-3-3,1-1.5-.5-1,3-1.5Z"/>
      <path data-code="kineshma" class="cls-1" d="M107.62,26.62h1.5l1,3.5,2,1.5h-.5v1l-1-.5-1.5,1.5-1.5-2h-1.5v-2.5l1.5-2.5"/>
      <path data-code="kokhma" class="cls-1" d="M57.12,37.62l2,1.5v1l-1,.5-.5-.5v1l-1-1,.5-.5v-2"/>
      <path data-code="komsomol_skij_rajon__ivanovskaja_oblast_" data-title="komsomol&amp;apos;skij_rajon_(ivanovskaja_oblast&amp;apos;)" class="cls-1" d="M30.62,10.12l3.5-1.5h2.5l3-4,1.5,1,1-1.5h2.5l-1.5-2,3.5.5.5-.5,2.5,2.5.5,1.5,1.5-.5,1.5,2,3-1,1.5.5v2.5h1l-.5,1.5-.5.5v1l-1.5.5,2.5,1.5-1.5,1.5-1-1.5-1,1.5h-.5l.5,2-.5.5.5,2-2-1-1,.5v-1l-.5,1.5-2,.5-.5,2-2.5-.5-3.5,4.5-1-.5-1,1h-1.5l-1-2-2-1h-1v1l-.5-.5-.5,1.5-1-2.5,1.5-.5-.5-2h-2l-.5,1-2-1,1.5-2,.5-3.5-3-1.5,2.5-1.5-1.5-2,.5-1"/>
      <path data-code="lezhnevskij_rajon" data-title="lezhnevskij rajon" class="cls-1" d="M36.62,42.62l4.5-.5,1-1-1-1,2-1.5,1.5,1-2.5-3,.5-1h2v-1.5l2-1-1-1.14,5.5-.36-1.5,3.5.5,1-2,.5.5,1.5-1,1.5,1.5-.5,1,2.5,1.5-1.5v3h1l.5,1.5-.5,1h1.5l.5,2.86h-1v1l-1.5,1v1h-2l-2.5,3.64-2.5-1-2,1.5v1l-3-.5-.5,1-.5-1-1.5.5-.5,1h-1l-1.5-5-2-1,5-6-1-.5v-2.5"/>
      <path data-code="lukhskij_rajon" data-title="lukhskij rajon" class="cls-1" d="M89.62,51.62l.5.5,1.74-.47,3.76.83,1.5-1,1,1v-1l2,.5,1-1.5v2.5h1v-1l1,1.14,1,1-.5.5,1.5,2h1.5l3,2,2-3.5,3,.5-.5,1,2,2.5-1.5,3-2.5-1.5,1,1-1,2.5-.5,3.5-4,3.36.5.5-.5,1-3.5-3v-1.5l-2.5,1-2-2-2.5,1v-1.5l-1-1,1,1.5-1,.5-3-.5v-2.5l-2,1-.57.43-3.43-3.43v-4l.5-1.86h1.5l-.5-1,1-1-1-1,1.5-.5-.5-1.5"/>
      <path data-code="palekhskij_rajon" data-title="palekhskij rajon" class="cls-1" d="M68.62,57.49l2.5-.5v-1l1,.5,1-2.5,2.5-.5.5-1.5,1.5-1,.5.5v2.5h2l3,2.5,2-1.5.5.5-.5,1.5,2,1.5v4l3.43,3.43-1.43,1.07-.5,4.5-2.5.5-.5,2.5-1-1v1l-1,.5-3.5-2-.5-1.5-9-3.5-2.5-3v-4.5l-1-.5,1.5-2v-.5Z"/>
      <path data-code="pestjakovskij_rajon" data-title="pestjakovskij rajon" class="cls-1" d="M82.12,78.49l1-2.5h2.5l.5-1.5,1-.5,2,1.5.5,2,2-1,1.5,2.5,1,.5,1.5-1v1.5l1,.5,2.5-2.5,2,1.5,1.5-.5.5,1-1.5,3,1.5,1-.5,2-2.5.5-.5,2.5-.5,1,.5,1.5,1.5.5.5,1-1,.5-1.5,3.5-3-.5-2,1.5,2,2-1.5,1v1l-8-4.5v2l-2-.5-.5,1-1.5.5-.5-.5-4.24-6.59,2.74-3.77h1v-1.14l3-.5,1.5-1.5v-4.5l-3-1-1.5.5v-3.5l.5.5Z"/>
      <path data-code="privolzhskij_rajon__ivanovskaja_oblast_" data-title="privolzhskij_rajon_(ivanovskaja_oblast&amp;apos;)" class="cls-1" d="M74.12,14.49l1.5-1,1.5.5.5-1.5,1-.5,1.5,3h5l2,1.5.5-2,1-.5,2.68,4.7.81-.32,1.01,3.62,1.63.2-2.13,2.8-1-2-2,2-1-1-2.5,1.5-.75,3h-2.25l-.5,1.5h-1.5v.5l-3.5-.5.5,1.5-1-1-.5,1-.54.55-.96-1.91.5-.5-.5-2,1.5.5-.5-1,1-1-1.5-.5-.5,1-.5-2,.5-.5-1-1.5,1-.5v-2l-.5.5v-1.53l1.5-.97-1-1h-1l1-1.5-1-1.14"/>
      <path data-code="puchezhskij_rajon" data-title="puchezhskij rajon" class="cls-1" d="M114.62,62.12l.78-1.57,2.71,3.43h1.5v-1l2.1,2.28,3.4,1.22-1.5,5.5-.5,6.5-3,10.5-2,.5,1-3.5-1.5-1v-2l-3.5,2-3.5-2.5-3.5.5-.5-1.5,2-4.5-2-4v-1.39l1,.89.5-1-.5-.5,4-3.36.5-3.5,1-2.5-1-1,2.5,1.5Z"/>
      <path data-code="rodnikovskij_rajon" data-title="rodnikovskij rajon" class="cls-1" d="M72.62,35.62l3.5-2,.5-.5-.54-1.09.54-.55.5-1,1,1-.5-1.5,3.5.5v-.5h1.5l.5-1.5h2.25l-.25,1h-.5l2.5,4.5-1,1,2.5,3-.5,2,.5,2,1.5-1-1,2.5,3,2.5-.5,2.5h-.5v.5l.74,2.67-1.74.47-.5-.5.5,1.5-1.5.5,1,1-1,1,.5,1h-1.5l-.5,1.86-2-1.5.5-1.5-.5-.5-2,1.5-3-2.5h-2.5l1.5-5-1.5-.5-.5-2-5-3.5,1-1-.5-3.5,1-.5-2.5-2.86,1.5.5Z"/>
      <path data-code="savinskij_rajon" data-title="savinskij rajon" class="cls-1" d="M35.12,55.99l2,1.64.5-1,1.5-.5.5,1,.5-1,3,.5v-1l2-1.5,2.5,1,2.5-3.64-.5,2,4.5,3,.5.5-2,1.5,3,3,2-.5v2.5l2.5.5h2.5l.5,1.14-.5,1.36,1.5,1.5-1,1-3,1,1.5,1-.5,1h-2.5l-1,.5v2.5l3.5,1-.5,1.5-1.5-.5,1-.5-.5-.5-3.5.5-1.5-.5v-1l-.5.5h-.5v-1l1-1h-2l-3.5-3-3.5-1-1.5-2.5-1,.5v-1l-1.5,1,.5-1-.5-.5-3-1.5,1-2.5-5-1.5,1-1.5-1-.5,1-1-.5-1.5"/>
      <path data-code="shuja" class="cls-1" d="M62.12,46.99l1-.5,2,5h-1l-.5,1-1.5-1.5-2-.5,2-2.5v-1"/>
      <path data-code="shujskij_rajon" data-title="shujskij rajon" class="cls-1" d="M62.12,46.99v1l-2,2.5,2,.5,1.5,1.5.5-1h1l-2-5-1,.5M56.62,44.62l.5-1,1-.5,1.5,1,2-.5,1.5,1,1.5-1.64.5-1.86,2-.5,1,.5,1-1,2,.5.5-1.5,1-.64.5,3.5-1,1,5,3.5.5,2,1.5.5-1,3.5-.5-1.5-1.5,1-.5,1.5-2.5.5-1,2.5-1-.5v1l-2.5.5v.5l-1.5,2,1,.5-2.5,2.64h-1.5l.5,1-1.5,1-.5-1.14h-2.5l-2.5-.5v-2.5l-2,.5-3-3,2-1.5-.5-.5-4.5-3,.5-2h2v-1l1.5-1v-1h1l-.5-2.86,1.5-2,1,1Z"/>
      <path data-code="tejkovo" class="cls-1" d="M36.62,32.49l1-2,1.5,2,.5-.5v1.5l-1.5,2-.5-2"/>
      <path data-code="tejkovskij_rajon" data-title="tejkovskij rajon" class="cls-1" d="M36.12,31.99l1.5,1.5.5,2,1.5-2v-1.5l-.5.5-1.5-2-1,2-.5-.5M30.12,21.62l2,1,.5-1h2l.5,2-1.5.5,1,2.36.5-1.36.5.5v-1h1l2,1,1,2h1.5l1-1,1,.5,3.5-4.5v3l2.5,2-1.5,2,1.04,2.16-3.04.2,1,1.14-2,1v1.5h-2l-.5,1,2.5,3-1.5-1-2,1.5,1,1-1,1-4.5.5v2.5l1,.5-5,6-3-1.14-.5-2.5-1.5.5-2-.5-2.5,2-.5-1-1.5,1,1-2.5-1-.5,1.5-.5-1-1,2-2-1.5-1.5,2-.5-1-1.5,1.5-1.5v-1.5l1-1.5-1-1.5-1,.5-1-3.5v-1l1,.5,1-1.5.5-5.36,1-1.5,4-.5Z"/>
      <path data-code="verkhnelandekhovskij_rajon" data-title="verkhnelandekhovskij rajon" class="cls-1" d="M84.62,74.49v-1l1,1,.5-2.5,2.5-.5.5-4.5,2-1.5,2-1v2.5l3,.5,1-.5-1-1.5,1,1v1.5l2.5-1,2,2,2.5-1v1.5l2.5,2.11v1.39l1,1,1,3v1.5l-2,3-3.5,2.5-1.5-1,1.5-3-.5-1-1.5.5-2-1.5-2.5,2.5-1-.5v-1.5l-1.5,1-1-.5-1.5-2.5-2,1-.5-2-2-1.5-1,.5-.5,1.5h-1.74l-.26-1,1-.5Z"/>
      <path data-code="vichugskij_rajon" data-title="vichugskij rajon" class="cls-1" d="M86.12,25.49l2.5-1.5,1,1,2-2,1,2,2.13-2.8,2.37.3.5,3.5,3-.5.5,1-1,1.5,3,3-.5,2,.5.5-2,1-.5,2,2,3-1,1.5,1,2-1,.5v1.5l1.5,3.5,2,.5v1l-1,1v1.14l-1,1-1-1.14v1h-1v-2.5l-1,1.5-2-.5v1l-1-1-1.5,1-3.76-.83-.74-2.67v-.5h.5l.5-2.5-3-2.5,1-2.5-1.5,1-.5-2,.5-2-2.5-3,1-1-2.5-4.5h.5l1-4"/>
      <path data-code="vichuga" class="cls-1" d="M91.62,37.49l3,.5v3l-1-.5-1.5,1.5-1-.5.5-4"/>
      <path data-code="zavolzhskij_rajon" data-title="zavolzhskij rajon" class="cls-1" d="M92.12,18.49l5-4-.5-1.5,1-.5v-1l1.5-.5-1-1,2-.5-1-1.5,2.5-3,.5-1,2-1.5,3,3,3.5,5-1,2.5,1,.5-1,1,2.5,2-1,1v.5l-.5,1,3,2-1,2,2.5,1v1l1.5-.5,4,2v1l.5-2,1.5.5,1.5-1.5,3.5,2.5-4,7-1-1-2,3.5-2.5.5-3-4.5-3-.86-2-1.5-1-3.5-1.5-1.14-4-1.5-3.5,2h-2.5l-.5-3.5-4-.5-1-3.5"/>
    </g>
</svg>