<svg xmlns="http://www.w3.org/2000/svg" viewBox="0 0 164.81 289.31">
      <path data-code="KK-ABK" d="m140.66,130.31l2.5-1.5-.5-1h-1v-3.5l2.5,1,1.5-1.5h-.5l.5-1,2,.5,4,3.5-2,.5,1,3-1,.5,1.5,1.5-1.5,1-.5-.5.5-2-1.5,1-1-.5,2.5-1.5-1-1.5v-2l-1.5,1.5-.5,1.5-5.5,1.5-.5-.5"/>
      <path data-code="KK-ABZ" d="m89.11,202.91l2-5-1-1.5.5-1.5.5-.5v3.5l5.5-1-1,.5,1,2-1.5,1h1l-.5,1.5-5,.5.5,1-2-.5"/>
      <path data-code="KK-ALT" d="m129.16,147.31l1-1v-1h1l1.5-2,1,.5,2.5-2.5.5-3,1.5-1.5,4-1,1.5-4.5,2-.5v-1.5h1.5l-.5-1,1.5-2,1.5,3.5-2,2,2-1-.5,2h1.5l.5-.5-1.5-1.5,1-.5-1-3h2v-1h-.5l-1-.5-.5-.5v-.5h-1l-1-1.5h1v1h1l.5,1,1.5,1v.5l.5,2.5-1.5,1.5.5,1,.5,2.5,2,1.5v3l9,5.5v2.5l1.5-.5.5,2.5-.5,1,.5,2-3.5,4-4,8-6.5,2.5-1.5-1,1.5-4.5-6.5-1.5.5-2,2.5.5-.5-3.5-2-1.5.5-2.5-2.5,1-2,2.5-1.5-1.5-2.5,1-3.5-3.5-1.5,1-2.5-3.5"/>
      <path data-code="KK-ASK" d="m42.66,144.31l1.5-1,1-2.5-.5-1,1-2,1.5.5.5-2-.5-3,1.5-2h-1l-1-2.5,4-1-.5-1,1-1,2-.5-.5-1,1-1.5.5-3,1-1.5v-2.5l7.5-1,1.5,1.5-.5,2.5,3-.5,4.5,1.5-1.5,2-2.5,1-.5,1.5-2.5-1-3.5,3.5v1h2l2,1.5,1.5,3.5,3.5-.5,5.5.5,3.5,2.5,2.5-3.5,2-.5,4,3,1.5,3,4,1,1.5,3h1l8-2.5,1-6,2.5.5,3.5-4.5,2.5,1.5,1.5-1,2.5,1,.5,2.5-3.5,2.5.5,1.5,5,1,4,2.5,3,3.5,1,5-2.5,1-.5,2-3,2-1.5,4h-1l-1.5,2.5-4.5,3v1l-1-.5-.5,3-4,3-.5,2.5-6,2.5v1l-2.5,3,1,2-.5,3.5.5,1v3.5-1.5l-2.5,1-2-1v-1l1-3-.5-1.5-2,1.5,1-1.5v-1.5l-1.5.5-1.5-1.5-.5,1-1.5-.5v-1l-1.5-.5-4-.5-2.5,2.5-2-.5-1-1-2.5.5-.5-1.5-6-2-1-3-1.5-.5,2-6-2-2h-2.5l-2-2.5-4,1.5-.5-.5-.5-1.5-5-2-1-2,2-2.5v-3l-3.5-3.5.5-1.5-1.5-3.5-2.5.5-2,2.5h-1l-.5-2"/>
      <path data-code="KK-BEJ" d="m98.16,178.81l2.5-3,.5-1.5,5.5-2,.5-2.5,4-3,.5-3,1,.5v-1l4.5-3,1.5-2.5h1l1.5-4,3-2,.5-2,2-.5,1-1.5,1.5-.5,2.5,3.5,1.5-1,3.5,3.5,2.5-1,1.5,1.5,2-2.5,2.5-1-.5,2.5,2,1.5.5,3.5-2.5-.5-.5,2,6.5,1.5-1.5,4.5-2-.5.5-1.5-1-2.5-1.5.5v1l2.5,1-1.5,1.5-3.5,1,1,5-2.5-.5-.5,1h-.5v1.5l1,.5,2-1,.5,2,1.5-2,1,3-.5,1-.5-1-.5,1,2.5,2-1.5,3,.5,2-2,.5v3l-2.5,1-2.5,3.5.5,3-2.5,1.5v5h-1.5v1.5l-1.5-1-3-.5-8.5,2-3.5-3-2.5,2-1.5-.5-.5-2.5.5-3.5-1-1.5,1-1-.5-4.5-2.5-1-3,.5-1-1-8.5,2-.5-3.5-.5-.5.5-4-1-2"/>
      <path data-code="KK-BOG" d="m95.66,86.81l.5-1.5h.5v-1l1,.5,4,5,2-6,2.5,3.5,2.5-.5.5-1.5-.5-1,4-1,.5-1.5v-.5l3-2v-3.5l3,1.5.5-2.5-2-5.5-3,.5-.5-.5.5-2-.5-5-.5-1,.5-.5-.5-1.5h-.5l.5-1.5,4.5,1,2-.5.5-1.5-1-.5-1.5-6.5-3-9h10.5l-.5,3,6.5,2-.5,4.5-1.5,4v5l12.5,10.5.5,3-1,3,2,5v1.5l4,4,2,7.5,3.5,6v1.5l-.5,3.5-2.5,4-1.5-2v-1.5l-1-2h-2.5l-.5,1-2-1.5-8.5,3-4-3-.5-2-6-.5v-1l-2-.5-6,1.5-4.5-1-.5,1.5h-1.5l-.5,2.5h-4v-3.5l1.5-2-5-5,.5-1-2.5-1-2-4h-1.5"/>
      <path data-code="KK-CHE" d="m138.01,118.86l2.5-1.5-.5-1,1,.5,1.5-1,1.5,1,1,2-1.5,1.5-5.5-1.5"/>
      <path data-code="KK-ORD" d="m47.66,8.16l.5,1h.5l-.5-1h-.5m-1.5-5.5v.5h.5l-.5-1v.5m-13,70l.5-1,1.5.5,5-2.5-1-1.5,2-1.5v-3l1-1.5-.5-2,1-1.5-.5-2,2-3-1-1.5,2-2.5v-2.5l3.5-.5,1-1.5v-3.5l.5-.5-.5-1v-2l-2,1-1.5-1.5,1.5-2.5-.5-1.5-.5-1h-1.5l-.5-2.5-1.5-.5v-1l-.5-1.5,1.5-5.5-2-3,1-1-1-1,.5-1v-.5h-1l.5-1h-.5l.5-.5-1.5-2h-.5l.5-3,3.5-2.5v-1.5l2-1.5-.5-1,1.5-1V.16h5v3l2-1,3,1.5-.5,1.5,1,2h2.5v1l1.5.5-.5,6,4,4-2.5,4,6.5,1,1,1.5v3.5l3.5.5.5,1.5,1.5.5h1.5l-1-.5v-3h4l1.5-1.5,1,2,1.5-1,.5.5-1,.5-1,2,1,.5h-1l2,2,2.5-3v-1.5l6-1,.5-1,3.5-1.5,4.5,1.5,1-1.5-.5-2,3.5.5v1.5l1,1.5v2.5l4,1,2-1,1,1.5,1.5-1,1.5,3.5-1,8.5-4,4-12,2.5-7,3-2.5-2.5-1,2,1,5-7,4.5-3.5-3-1.5-4-2.5-.5-6,2,1-4-2-1.5-3,3,1,6-2.5,1-4,9-3.5,3-1.5,6-1.5-4h-1.5l-.5-1-.5-.5-1.5,2.5-1-.5-4.5,4-1.5,3.5-2-1-.5-1,.5-1-.5-1.5-4-1.5-1.5.5-1.5-2.5"/>
      <path data-code="KK-SAY" d="m139.71,171.36l1-1h2.5l-1-5,4-.5,1-2-2.5-.5.5-1,2-.5.5,2-.5,2-1.5,1.5-1.5,3,1,4,2,2.5v2l-2.5-1.5.5-1v1l1-1-1-2v-1l-1.5,2-.5-2-2.5,1-1-2"/>
      <path data-code="KK-SHI" d="m54.16,78.16l2-4,.5-3.5,3.5-3,4-9,2.5-1-1-6,3-3,2,1.5-1,4,6-2,2.5.5,1.5,4,3.5,3,7-4.5-1-5,1-2,2.5,2.5,7-3,12-2.5,4-4,3,8.5,1,7h1.5l-.5,1.5h-6.5l-.5,1,.5.5.5,1.5h-1l1,1.5.5,4.5-.5,2,.5,1,2.5-.5,2.5,5-.5,3-3.5-1.5v3.5l-2.5,2v.5l-1,1.5-3.5,1,.5,1-.5,1.5-2.5.5-3-3.5-1.5,5.5-5-5v1h-1.5l-2,3.5-2,.5-.5,1-3.5-1-.5.5v1l-2,.5-2.5,2.5-1-1,.5-1.5-2.5,1-4-1-3,3-2,4,1,1.5-.5,1-2.5,2.5-3.5,1.5-7.5-1-1,1.5v-1.5l1-1-2-2.5.5-1.5v-3.5l1-2,3.5-.5,1.5-1.5,1.5-2.5v-2l.5-.5.5-2.5,1-1-1.5-.5-.5-1,.5-1-1.5-1v-2l-5,.5-1,3h-1l.5-1-.5-1.5-1.5-.5"/>
      <path data-code="KK-SOR" d="m70.16,101.66l1.5-1.5-1-1.5,2-4,2-2.5,5,.5,2.5-1-.5,1.5,1,1,2.5-2.5,2-.5v-1l.5-.5,3.5,1,.5-1,2-.5,1.5-3,1.5-1-.5,2h1.5l2,4,2.5.5-.5,1.5,5,5-2,1.5.5,4h4l.5-2.5,1.5-.5.5-1,4.5,1-1,1v2.5l-4.5,2.5-3,4-1.5-.5v-1.5l-3-2-1,1-3.5-2.5-.5.5-2-2v-2l-5,1.5-.5,2h-3v-1l-5-1-12.5-1.5"/>
      <path data-code="KK-TAS" d="m89.16,202.66l1.5,1v-1.5h5l.5-1.5h-1l1.5-1-1-2,1-1-5.5,1v-3h-.5l-.5,2,1,1.5-2,4.5M.66,253.16l1-3,1.5-1.5.5-2.5,2.5-2v-2l-1-.5,5-3-1-1.5.5-2,2-1.5,1.5-1.5,1,2,2.5,1.5v-2l2-2.5,3.5-.5-.5-1.5.5-2,1.5,1,2.5-.5,3-3h1.5l2-2,2.5.5.5-1,.5-3v-1.5l-1.5-1,1.5-2,6.5-4.5,3.5-3.5,1.5-.5.5-2,1-2,2-.5v-2h2.5l.5-1-2-2,.5-2-1.5-3,3.5.5v-1.5l1.5-.5,1-3.5,2-1-.5-4-1.5-2-2.5,1-.5-1,.5-1.5-1.5-4-3.5-1-1,1.5-1.5-3,1.5-3-1-1,3.5-2,1-1-.5-2,2-.5.5-2,3.5,1.5v1.5l1,.5,3.5-2,2.5,3h2.5l2,1.5-2,6,1.5.5.5,3,6,2.5.5,1.5,3-1,1,1.5h2l2.5-2h4l1.5,1v1h1.5v-.5l2,1h1.5v1.5l-1,1.5,2-1.5.5,1.5-1,3,2,2,11.5-1.5,1,1,4-.5,2,2-.5,1.5.5,1.5-1,1,.5,2v5.5l2,.5,2.5-2,3.5,3.5-7.5,9-1,2,.5,2-1,2.5-2,3-3,2-.5,2.5-3,4.5-2,1-3-1.5-2.5,2-2-.5-.5,1-4,.5v2.5l.5,4-6,6.5.5,2h1l.5,8,2,4.5-2.5,1.5-2.5-2h-3.5l-1.5,4-3.5,3.5v2l-6.5,5-1-.5-1,1-1-2-5.5-3.5-4,.5-2.5,3-1,.5-.5-3,1.5-4-.5-.5-2-.5-1.5,1.5-2-1-1.5,1.5-.5,2.5-3,1-6-.5-3,1.5-.5-1-.5,1-3.5,1,1,3.5-1,2.5h.5v3.5l-2.5.5-2,4-7,2-.5-1.5-3-1.5-.5-1-5-1.5-1.5.5-.5-2,.5-.5-1-.5,1-2.5-3-3-4.5-1v-.5l-.5-3-1-2,2,.5.5-2,2-.5v-3l1-2.5,2-.5,1.5-2,.5-2.5-1-1.5-4,.5-2-2.5H.66"/>
      <path data-code="KK-UST-ABK" d="m138.16,118.66l5.5,1.5,1-1-.5-2-2-1-1,1-1-.5.5,1-2.5,1m-77-9l1.5-2v-2.5l3.5-.5,4-3,12.5,1.5,5,1v1h3l.5-2,4-1.5h1v2l2,2,.5-.5,3.5,2.5,1-1,3,2v1.5l1.5.5,3-4,4.5-2.5v-2.5l1-1,6-1.5,2,.5v1h5.5l1,2,3.5,3.5,8.5-3,2.5,1.5.5-1h2.5l1,2-.5,1.5,2,2-1,.5-2.5,6,1,6,1,2-3.5-.5v.5l.5.5-1.5,1-2.5-.5v3.5l1-.5v1l-2,2,4.5-1.5,1,.5h-.5v1l-2,.5-2,5-4,1-1,1.5-1,3-2,2-1-.5-1.5,2.5h-1v1l-3,2.5-1-5-3-4-4-2-5-1-.5-1.5,3.5-2.5-.5-3-2.5-1-1.5,1-2.5-1.5-4,5-2-.5-1,6-8,2.5h-1l-1.5-3-4-1.5-1.5-2.5-4-3-2,.5-2.5,3.5-3.5-2.5-5.5-1-3.5,1-1.5-3.5-2-2-2,.5v-1l3.5-3.5,2.5.5.5-1.5,2.5-.5,1.5-2-4.5-1.5-3,.5.5-2.5-2-1.5,1-2-1.5-1-1-2.5"/>
</svg>