<svg xmlns="http://www.w3.org/2000/svg" viewBox="0 0 251.5 181.35">
      <path data-code="KGN-ALM" d="m25.75,127.75l.5-1.5.5.5,2.5-3,1,1,3-4v-1.5l-2-1v-2l3-3,.5-2,.5-.5-1-1,1-2,2-1.5,5.5.5.5-1h1.5l3,6.5,6.5-1.5,7,.5,5.5-2.5v1h1.5l.5,3.5-1.5,1.5-.5,2.5-1,.5v2l3,.5,1,2h4l1.5-2,1.5.5,1,3-1,3-2-1.5-1,1.5.5.5-1.5,1.5,1,1-5,.5v1.5l-3,1.5v2l-1,1.5-3.5-4-6,2-6-.5-14.5-4.5-1-1-7.5.5-.5-1.5"/>
      <path data-code="KGN-BEL" d="m131.25,76.25l2-.5,1-2.5-1-1,.5-1,3,2,.5-1-2-1.5,3.5-3,.5-1.5-1.5-2,2-5,5,2.5,4.5-9.5,7.5,1.5,7.5,4-1.5,3,.5.5-.5,1,2.5,4v1.5h-.5l.5,4.5,3.5,5.5-4,2.5-1.5,5,.5.5v1l3.5,1-.5,1.5,1.5,1.5-1.5.5-.5,2-1.5-.5-1.5.5-.5,1,1.5,1-.5,3-1.5.5-2-1-4,1v1.5l2,1.5-.5,1-3,1-1-2-7-3-1,.5v1l-1.5-1-3.5,1.5-3-6h-2l-.5-4,.5-4-3-3,1-1.5-2-3-.5-3"/>
      <path data-code="KGN-TSE" d="m29.25,154.75l2.5.5-.5-3.5,1-1,1.5.5,1-2-1.5-1v-1.5l1-1.5,1-.5.5.5-.5,1,1.5,1v-1h1l1-2.5,2.5-.5-.5-.5,1-2-1.5-.5v-2l1.5-2.5v-4l13.5,3,6-2,3.5,4,1-1.5v-2l3.5,2-.5,1.5,3,2.5-.5,1.5,3.5,2-2,4,1,1-1,2,1,.5-1.5,2.5-.5-.5-1.5,2.5.5.5-1.5,2.5,3,3.5v5.5h-1.5l1.5,2-2,1.5h-3l-3.5-2.5-.5,1.5-2,.5v-.5l.5-1h-1.5l-1,1,.5,4.5-2.5,1-2-1-2-6h-18l1-4.5-1-1-2,1,.5-3.5.5-.5-1.5-.5v-1.5l-3-1-.5-1.5"/>
      <path data-code="KGN-CHA" d="m213.25,118.75l1.5-1.5-.5-1.5.5-1.5,3,1v2.5l2-2,4,2,3.5-.5,1,1.5-1,2,2,2.5,7.5-2.5,2.5.5.5.5-1,2.5.5.5-1,3-.5,3,4,2.5-1,4.5,3,3,1,4.5-.5,2h-3v-2l-1.5-.5-4.5.5-.5,2-6-.5-13.5-6-3-.5,1-3.5-1-11,1-7"/>
      <path data-code="KGN-DAL" d="m55.25,31.25l2-2.5h2v-1.5l3-4h1.5l.5-2.5h1l2.5-5.5,1,.5,2-3,3,1.5h1.5v-.5l-1.5-1v-1h-1.5v-2l2-1-2-3.5-4,1.5,2-3.5,4,2.5,2-2.5,2.5,1.5.5-1,4,4,1.5-1-.5,1,1.5-.5.5.5-.5.5,1,1,3,.5-.5,3,1,1.5-.5,1h.5l.5-2.5,2.5-2.5.5-2,2,1.5.5-1,1,.5,3,3-1,1.5,3,3.5h1.5l-.5,1.5.5,2-4.5,2.5h-1.5l-1,1h-2l2,4-.5,1h-6.5l-2-1-6.5.5v1l.5,1.5h-2l-2,1.5v.5l-1.5,2,1.5,1h-.5l.5,1-1.5,1.5-.5,1.5-1.5,1-1,2.5,1.5,1-.5,3.5-1,2.5,2.5,1.5-1.5,2-2-1-.5,2-2.5,1.5-.5,2-2,2-3.5,1v1.5l-4-1.5v-2h-1l1-2.5-1-1h-3l-3.5-3.5.5-3.5,4.5-3.5-.5-4.5,1-3.5,2-.5-1.5-3.5-2.5-2.5"/>
      <path data-code="KGN-KUR" d="m126.25,105.75h1v-1.5l1.5-1,3.5.5,2.5-.5.5-1,1.5,1v1h-.5l2.5,2,.5,1-.5.5,1.5,1.5,5,4.5-1.5-1-2,1-.5,1.5h-1.5l-.5-1,1-1-1-.5-3.5,1-1-.5-2,1.5-1.5-1-1,1,.5,1-.5.5-.5,2h-.5v-4l-1.5-1-1,1.5h-1.5l-.5-1,2-2-.5-.5,1.5-.5h-1l1.5-3-2-2"/>
      <path data-code="KGN-SHA" d="m86.25,43.35l1-1.5,1,1,.5-1v2l1,.5.5-1.5v.5h.5l-.5-3.5h2v-1.5h1v2l2.5,1.5,3-2v1.5l1.5,1h-2l-.5,1.5.5.5-1.5,1v1l-1-.5-.5,2-4-1-.5.5h1v1.5l-.5-1h-3.5v-1h1l-2-2.5-.5-1"/>
      <path data-code="KGN-YUR" d="m86.75,90.25l2-3,3.5-.5v-2l-1-1v-2l5-1,1.5-2.5,3,2.5.5-1.5h4.5l7.5,4-1,2,5,2.5-.5,1,4.5,2-.5,3h-6.5l-.5,2v5.5l1,1.5-1.5,5-2.5,2.5-.5,2-3.5,2-2,3.5v2.5l.5.5-3,6.5-2-1,.5-2-1.5-1-3,2-5-3,1-2v-1.5h-3l-5-2.5,1.5-1.5-.5-.5.5-4.5.5,1,2.5-3.5,1.5-.5,1,1.5,1-2.5,2,1,2-1-.5-2.5,1-1-1.5-.5,1-1-6-2.5.5-1.5-1.5-1,1.5-1.5-1-.5v-2l-3-1.5"/>
      <path data-code="KGN-KAR" d="m89.75,78.75l3-4h1.5l-1.5-3.5,2.5-2.5-1-1,1.5-1.5-.5-1.5,1.5-1,1-3-.5-.5h1l1.5-2,4.5-4.5,7.5,2,1-.5,2.5,1.5,5.5-1.5.5-2,2,1-.5-1.5,2-1h3l.5,1,1.5-1.5,1,1-.5-.5,1-.5,3,3-1,1,1,1.5,5.5,2.5-2,5,1.5,3-.5.5-3,2,1.5,2.5-.5,1-3-2-.5,1,1,1-1,2.5-2,.5.5,3,2,3-1,1.5-5-1-1,1-.5-.5-.5,1.5-1.5-1,.5,2.5-.5,2.5-2.5-.5-.5,1v1.5l-4.5-2,.5-1-5-2.5,1-2-5.5-3-4.5-1h-2l-.5,1.5-3-2.5-1.5,2.5h-2l-2.5,1.5-1.5-.5-.5-3"/>
      <path data-code="KGN-KAT" d="m39.25,15.25l2-3,2,2.5,1.5-1.5,4-1.5-.5-.5,2.5-4.5,1.5-.5,2-2,1,1,1-1.5h.5l.5-1.5,5.5-2,2,.5.5,1.5-1,1-.5,3,1.5.5,1-1.5,1,1.5h2.5l2.5-1.5,2,3.5-2,1v2h1.5v1l1.5,1-4.5-1-2,3-1-.5-2.5,5.5h-1l-.5,2.5h-1.5l-3,4v1.5h-2l-2,2.5,2.5,2.5,1.5,3.5-2,.5-1,3.5.5,4.5-4.5,3.5v3l-3-1.5-4.5,2.5-3.5-4.5,1-1-.5-.5-3,1-1-3,.5-2,.5.5,1-2.5,1,.5,1.5-1v-1l-1.5-1.5-3-.5,2-6.5-2.5-5,2-1-2.5-2.5,2.5-5.5v-2"/>
      <path data-code="KGN-KET" d="m104.75,117.75l2-3.5,3.5-2,.5-2,2.5-2.5,1.5-5-1-1.5v-5.5l.5-2h6.5l.5-4v-.5l.5-1,2.5.5.5-2.5-.5-2.5,1.5,1,.5-1.5.5.5,1-1,2,1,1.5-.5,4.5,3.5-.5,4,.5,4h2l2.5,5.5,1.5.5,2.5-1.5,1.5,1v-1l1-.5,7,3,1,1.5-1.5,3h-1.5l-1,1v.5l-1.5,3.5h-3l-1,2.5-5-4.5-1.5-1.5.5-.5-.5-1-2.5-2h.5v-1l-1.5-1-.5,1-2.5.5-3.5-.5-1.5,1v1.5h-1l2,2-1.5,3h1l-1.5.5.5.5-1.5,1v1l-.5-.5.5,1.5h1.5l1-1.5,1.5,1v4h.5l.5-2,.5-.5-.5-1,1-1,1.5,1,2-1.5,1,.5,3.5-1,1,.5-1,1,.5,1,3-1.5v5.5l1,3,1.5.5-.5.5.5,1.5-1,1,1,.5-.5,1.5.5,1.5-1,3.5-8-.5-1.5,3-1,1-3-3.5.5-1-1-1.5h-1.5l-2-4.5-3-2.5-.5-1.5-5,3-1,2,1.5,1.5-3,1.5v1.5l-1-1.5.5-2.5-8.5-3.5.5-2-2.5-1.5v-2.5"/>
      <path data-code="KGN-KRM" d="m65.75,133.25l1-1,2-.5v-1.5l5-.5-1-1,1.5-1.5-.5-.5,1-1.5,2,1.5,1-3.5-1-2.5-1.5-.5.5-1.5h2.5l3-4.5,5,3.5,6,1v1.5l-1,2,5,3,3-2,1.5,1-.5,2,1.5,1,3.5-6.5,2,1-.5,2,8.5,3.5-.5,2.5,1,2-1,2-1-.5-1,1-.5,1,.5.5-1,1v1.5l-2,.5-1,2.5,2,2.5-1,1,.5,1.5h-2l.5,1.5-2,2,.5.5v1l-1-.5v1.5l1,.5-.5.5.5,1h-1l-.5,1-4-3-4-.5-1.5,2.5-2.5-.5-1.5,1.5,1.5,1-.5.5-5.5,1-2,5-5-3.5-1,1.5,1,.5-3,3.5-2.5-.5,1,2-1.5,2.5.5,1-.5,1-3.5-1,1-1-1.5-2h1.5v-5.5l-3-3.5,1.5-2.5-.5-.5,1.5-2.5.5.5,1.5-2.5-1-.5,1-2-1-1,2-4-3.5-2,.5-1.5-1-.5.5-.5-5.5-5"/>
      <path data-code="KGN-LEB" d="m153.25,135.75l2.5-5,1,1.5,1-2.5,1.5.5,1.5-1.5-1.5-2.5,5-2-.5-.5v-1l-1.5-4,2-1,1.5-3h2l.5-1.5-1-2.5.5-1.5,5-.5,2.5,4,3.5,1,.5,2.5,3.5,1,1,.5,1-3,4,.5-1,3.5h4l.5,1.5,2,.5,1,1.5-.5,2.5.5.5-2,3h-1l-1.5,2-1,4.5h-3l-2,2.5-1,3.5-2,.5-1.5,3.5,3.5,3-.5,1.5-2-.5-.5,1-5-1.5-.5,2,.5,1.5-1,3-1.5-.5-3,6-5-2-1-4-3,.5.5-2-2-.5.5-1-.5-1.5-7-2,1-1.5,3-6-3.5-4.5"/>
      <path data-code="KGN-MAK" d="m168.25,165.75l3.5-9.5h.5l1-2,1.5.5,1-3-.5-1.5.5-2,5,1.5.5-1,2,.5.5-1.5-3.5-3,1.5-3.5,2-.5,1-3.5,2-2.5h3l1-4.5,1.5-2h1l2.5-3.5,2-1-.5-.5.5-.5,1,1,2-1.5,8,4h1.5l2.5-2.5.5,13.5-1,4-2.5,5,1,.5-.5,3,1.5,2-2,2-2.5-1.5-1.5,1-1.5,4.5h.5l-.5,2,4.5,2v.5h-1l-.5,1.5-2.5-1.5-.5,1-3-1-2.5-3-3,2.5v1.5l-2.5,1.5-.5,1.5h-1v3.5h-1l-1,2.5-6.5-1-3,1.5-6.5-2-4.5.5,1.5-4.5-2.5-1"/>
      <path data-code="KGN-MIS" d="m70.25,67.25l3-3.5,12,7.5,3.5-1,.5-3v-1.5l4,.5,2-1.5.5,1.5-1.5,1.5,1,1-2.5,2.5,1.5,3.5h-1.5l-3,4,.5,3h1.5l-.5,1,1,2v2l-3.5.5-2,3,3,1.5v2l1,.5-1.5,1.5,1.5,1-.5,1.5,6,2.5-1,1,1.5.5-1,1,.5,2.5-2,1-2-1-1,2.5-1-1.5-1.5.5-2.5,3.5-1-.5v4l.5.5-1,1.5h-.5l-3-2-3,4.5h-2.5l-2,3.5h-4.5l-.5-2-3-.5v-2l1-.5.5-2.5,1.5-1.5-1-5.5,2.5-1.5-1-.5,1-.5.5-2-.5-2.5h-4.5l1-3,2-3-3-3,1.5-3h2l1-3-2-2.5.5-2,3.5.5,1.5-3.5-2-1,2-4-3-2,1-2-1.5-1v-1"/>
      <path data-code="KGN-MOK" d="m172.75,97.25l1-1.5h.5v-2l9.5,2,2-5.5-1.5-.5.5-2.5,6.5-1,2.5-2h2l-.5,1,1,2-1,2,6,2v-1l2.5.5-.5,1.5,3.5,1v1l7.5,2-1.5,1-.5,2,1,3.5-1,.5.5,9.5h1.5v3l.5,1.5-1.5,1.5-.5,5-2.5,2.5h-1.5l-8-4-2,1.5-1-1-.5.5.5.5-2.5,1.5-.5-.5.5-2.5-1-1.5-2-.5-.5-1.5h-4l1-3.5-4-.5-1,3-4.5-1.5-.5-2.5-3.5-1-2.5-4-.5-5,.5-3.5,1-1.5-1-1.5"/>
      <path data-code="KGN-PET" d="m191.25,167.1l4-3,.5-2,3-3,2.5,3.5,3,1,.5-1,2.5,1.5.5-1.5h1l-.5-1.5-4.5-1,1-2-.5-.5,1.5-4.5,1.5-1,2.5,2,2-2.5-1.5-1.5.5-3.5h-1l2.5-6h3l13.5,6,6,.5.5-1.5,4.5-.5,1.5.5v2l3-.5.5-1.5,4,.5v1l2,2.5-.5,2,1,2-1,.5v1l-1,1.5-2.5,1-.5,1.5,1,.5-1,1.5-1.5.5-.5-.5.5-1h-6l-3-1.5-.5,1.5-1.5-1v-1l-2.5.5-2-1.5-.5,1.5h1v2h-1l1.5,3v2l1.5,1-3.5,1-.5,2.5-2,1,1,2-7.5-1-4-3.5h-3.5l-3.5,5-8,.5-1.5-1.5-7.5-3,.5-1-.5-1.5"/>
      <path data-code="KGN-POL" d="m121.75,163.1l4.5-2.5,1-1.5v-2.5h1l.5-2.5.5-1-1.5-2,1-2,5.5,1-.5-4v-4l-1-3,3-6.5h2l2.5,6.5,2.5-2,4,2-1.5,3.5,2,1.5,3,1.5,2.5-5,3,1.5-2,4.5-1,1,7,2,.5,1.5-.5,1,2,1-.5,2,2.5-.5,1.5,3.5,4.5,2.5-2,5,3,1-1.5,5-1,.5-3-1.5h-9.5l-16.5.5-1-1.5,2.5-5h-5l-2.5,3.5-2.5,1-9-6"/>
      <path data-code="KGN-PRI" d="m99.75,157.6h1.5l.5-1h1.5l4-2.5-1-1h1l-1-1v-1l.5.5.5-1.5-.5-.5,2-1.5-.5-1.5h1.5v-1.5l1-1.5-2-2,1-3,2-.5v-1l1-1-.5-.5,1.5-2.5,1,.5,1-2v-1.5l3-2-1.5-1,1-2,5-3,.5,1.5,3,2.5,2,4.5,1-.5,1.5,1.5-.5,1,3,4-1,2.5,1,2.5v5l.5,2.5v1l-5.5-1-1,2,1.5,2-.5,1-.5,2.5h-1v2.5l-1,1.5-5.5,3-1,1,1,2.5-.5,1.5-5-2-4,1-5.5-2,1-3-5-2-2-2v-1"/>
      <path data-code="KGN-SAF" d="m6.25,94.1l3.5,2h3l.5,3.5,3-4.5h2l-.5-.5,1-1.5,3-.5,2.5.5,1-1,2,1-.5,1,1.5,2,2,.5-1,4.5,2,.5-1,3,1.5.5,1.5-4.5h2.5l1.5,2-.5,3.5.5.5-2,1.5-1,2,1,.5-1.5,3-2.5,2.5v2.5l2,.5v1.5l-3,4-1-1-2.5,3.5-.5-.5v3l-5,.5.5-3-1-.5-1,2-2.5-2,1-1.5-1-1,2.5-1v-1.5l-5.5-1.5-1,.5-.5,2h-3l-3-1.5.5-1-3-.5-.5,1-2.5-1.5,1.5-3-2.5-1.5,2-2,3.5-1,1-3-.5-4.5-1.5-1,1-5.5.5-3.5"/>
      <path data-code="KGN-SHD" d="m86.25,43.1v1.5l2.5,2h-1v1.5h3.5l.5,1-.5-1.5h-.5l.5-.5,4,1,.5-2,1,.5v-1l1.5-1.5h-.5l.5-2,2,.5-1.5-1.5v-1l-3,1.5-2.5-1.5v-1.5h-1v1l-2,.5.5,3-.5-.5-.5,1.5-1-.5v-2l-.5,1-1-.5-1,1m-21.5,21l1.5-1.5v-1.5l2.5-2,.5-2.5,2.5-1.5.5-1.5,2,1,1.5-2-3-1.5,1.5-2.5.5-4-1.5-1,1-2,1.5-1,.5-1.5,1.5-1.5-.5-1,.5-.5-1.5-.5,1.5-2v-.5l2-1.5h2l-.5-1.5v-1.5l6.5-.5,2,1.5h6l1-1.5-2-3.5h1.5l1.5-1.5,4.5-1,1-1.5v-1.5h.5l1.5,3,5.5,3,1.5-1.5,1,.5-1,1,4.5,2.5,2-1.5,1-2,2.5.5,2,6-6-.5-3,6h-1l2.5,3-2,3,1,2.5-1.5.5h1l1,1,1-1-.5,2-.5-.5.5,1.5-1,1.5v4l-1.5,2-2.5.5-2.5-1.5-6-.5-3.5,4.5-.5-.5-1,2.5h-1l.5.5-1,2.5-2,2-.5-.5-1,1.5-4.5-1,.5,2-.5,3-3.5.5-12-7.5-2,2-1,2-4-2-1,.5-.5-2"/>
      <path data-code="KGN-SHT" d="m118.75,21.1l2-2,4-.5.5-2,1.5.5,1-2-1.5-2,1.5-.5-1-1.5,2-1.5,5.5,3,3-3.5,2,1.5,3-.5,2.5,1h2l1-1,1.5,1-.5,1.5-1,1,1.5,1,.5,2-.5,1.5,1,2-1,2,.5.5-1.5,2,2,1-.5,2-2-.5.5,2-1,1-.5,1.5.5.5-1.5,1v1l.5,3,1.5,2.5-.5,2,1,.5-.5,2.5,2.5,1.5-.5,1.5h-.5l-4-1,.5,2,3.5,4-4.5,9-10.5-5-1-1,.5-1-2.5-3.5-1,.5.5.5-1-.5-1.5,1-.5-.5h-3.5l-1.5,1,.5,1.5-2-1-.5,2-2,.5h-5l2-2.5v-4l1-1.5-.5-1.5.5.5.5-2-1,1-1-1h-1l1.5-.5-1-2.5,2-3-2.5-3h1l3-6,6,.5-1-5-1-1-2.5-.5.5-1-1.5-2"/>
      <path data-code="KGN-SCH" d="m14.75,80.1l1.5-2.5,3.5.5,1.5-2,2,1.5.5-1.5-1.5-3.5,2-3,3,2.5-.5,2h7v-2.5l6.5,1v-3l-.5-3-3-1,.5-1.5,2,.5,1-2.5.5.5,1-1.5v-1l-.5-1.5,1.5-1.5-.5-1.5,1.5-3,.5.5,5-2,4.5,3.5,1.5,3.5,2.5,1.5-2.5,3.5,2,1-1,1.5-3-2.5h-1.5l-2.5-3v2l.5,1.5-1-.5-1.5,2.5,3.5,2-1,1,2,1-1,2.5,2,3-4.5,2-1.5,2,1,1.5h-1.5l2,3,1,4-2.5,2,5,3v2.5h-2l-.5,1-3.5-.5-1.5,2,2.5,3-2,5.5-1.5-.5-.5,1.5-5.5-.5-.5-.5.5-3.5-1.5-2h-2.5l-1.5,4.5-1.5-.5,1-3-2-.5,1-4.5-2-.5-1.5-2,.5-1-2-1-1,1-6.5-.5v-4.5l1.5-2-1.5-.5v-2l-3-3.5"/>
      <path data-code="KGN-SHU" d="m49.25,60.6h1.5l1,2.5h1.5l3,2.5,1-1.5-2-1,2.5-3.5-2.5-1.5v-1.5l3-.5,1,1.5-1,2,1,.5v2l3.5,1.5.5-2,3-.5v1.5l-1.5,1.5.5,2,1-.5,4,2v1l1.5,1-1,2,3,2-2,4,2,1-1.5,3h-3.5l-.5,1.5,2,3-1,3h-2l-2,3,3.5,3-2,2.5-1,3.5,4.5-.5v4.5l-1,.5.5.5-2,2,.5,2h-2l.5-1-5.5,2-7-.5-6.5,2-3-6.5,2-5.5-2.5-3,1.5-2,3.5.5.5-1h2v-2.5l-5-3,2.5-2-1-4-2-3h1.5l-1-1.5,1.5-2,4.5-2-2-3,1-2.5-2-1,1-1-3.5-2,1.5-2.5,1,.5-.5-3"/>
      <path data-code="KGN-VAR" d="m142.75,113.6h2.5l1-2.5,2.5.5,2-3.5-.5-1,1.5-1,1.5.5.5-2,1.5-1.5,2-.5.5-.5-1.5-1.5v-2l7.5-.5.5-2.5-1.5-1,.5-1,1.5-1,1.5.5.5-1.5,1-.5-1-2,.5-1.5-3.5-1v-1h-.5l1.5-5.5.5.5,1-1.5,2-1,1.5,2,4-1.5,2.5-2,3.5,1.5,4,6.5.5,3-.5,2.5,2,.5-2,5-9.5-1.5-.5,2h-.5l-.5,1.5,1,1-1.5,1.5v3.5l.5,5.5-5,.5-.5,1,1,3-.5,1.5h-2l-1.5,2.5-2,1.5,1.5,3.5-.5,1.5h1l-5,2.5,1.5,2-2,2-1-.5-1,2-1-1-2.5,5,3,4-.5,2-3-1.5-2.5,5-5-3,1.5-3.5-4-2-2.5,2-2-4.5-.5-2,4.5.5h2l.5-1,.5-5.5-1-1,1-.5v-1.5l-2.5-4v-6"/>
      <path data-code="KGN-ZVE" d="m75.25,164.6l2.5.5,3-4-1.5-.5,1-1,5.5,3.5,2-5,5.5-1,.5-1-1.5-.5,1.5-1.5,2.5.5,1.5-3,4,1,3.5,2.5-2,1.5h-1.5l-.5,1h-1l-.5,1,7,4-1,3,3.5,1.5v3l-2,2.5-.5,6,.5,1-2,1.5-1-1h-3l-3-8-9.5,2-3-1.5-.5-3-3,2-3-1.5-1,.5.5.5-1,1h-1.5l-1.5-1.5.5-1-1-.5,2-2.5-1-2"/>
</svg>