<svg xmlns="http://www.w3.org/2000/svg" viewBox="0 0 106.5 73.7">
      <path data-code="KB-BAK" d="m58.25,28.4l2-.5,1.5,2h-1.5l-2-1.5"/>
      <path data-code="KB-BAKM" d="m58.25,28.4l2,1.5h1.5l-1.5-2-2,.5m-12.5-6.15l6-3.5,3.5,1,4-.5.5-3.35,2-.5,2.5,1,2,3,4.5,4.35-2,3.5-2-1-1.5,2.5,3,.5,2,1.5-1,.5v1.5l-1.5-.5-1,3,3.5,2-.6,1.8-3.9-.65v-2l-1-1.5-1,1-11-4h-4.5v-1l-2.5-1v.5l-3.5.5,2-3-2.5,1-.5-1.5,2.5-1h-.5l1-3.5-1.35-.15,2.85-.5Z"/>
      <path data-code="KB-CHEG" d="m14.25,41.9l3.5-3,4.5-1.5,1,.5,5-3.5,4.5.5v-1.5l4,.5.5-1.5,1.5.5v1l2-2,3.15-1.25,1.85-.25v-.5l2.5,1v1h4.5l11,4,1-1,1,1.5v2l-1,1.85h-1.5v1.5h3.5l-4,1.5-.5,1.5h-1.5l-1.5,1.15-3-2.65h4l-.5-.5.5-2-6-1-1-2-.5.5.5,1.5-3,.5,2,1,.5,1.5-2-.85.5,1-4-.5.8.5-5.3,1.5-6.5-2.5-3,3-.5,2-9,4-5,1.5-1.5-3.5-2-2,1-1.5-2-1.5v-2"/>
      <path data-code="KB-CHER" d="m16.25,52.4l7.5-1.5,9-4,.5-2,3-3,6.5,2.5,5.3-1.5,3.2,1.9-1.5,1,1.5,2.5,1-1.5-.5-1.5,1.5-1,2,2.5,2.8-1.9,1.2,1.05,1.5-1.15-.5,3.65-.5,1.5-5.5,3,1.45,4.85-11.45,3.15-4.5,4,2,.5-.5,2.5-2.5,1-.5,2-4.5,2.5-4-4.5-4.5,3-3-1,.5-2h-1l-3.5-4.5.5-2-1-1v-2.5l-2-3.5.5-3.05"/>
      <path data-code="KB-ELB" d="m.75,23.9l2.5-2.5,1.4.2,4.1,3.2,2-1,6,1.5,1.5-1,1-2.5,2.5-2.5,3.5-1,2,1,4.5-1.5v-.5l1.5,1,1.5-.5v-1l1-.5.5,2h2l1,4,5,.65-1,3.5h.5l-2.5,1,.5,1.5,2.5-1-2,3,1.65-.25-3.15,1.25-2,2v-1l-1.5-.5-.5,1.5-4-.5v1.5l-4.5-.5-5,3.5-1-.5-4.5,1.5-3.5,3-2-.5-.5-2-4.5-1.5-2,2-1.5-4L.25,29.95l.5-2.5-.5-1,.5-2.55"/>
      <path data-code="KB-LES" d="m39.75,64.9l4.5-4,11.45-3.15,2.05-1.5,5-3v-1h4v-2l4.25.4-.25,1.7-2,1.5.5,6-2,1-1,6.5-5.5,1v-2.5l2-1.5-2-2-2.5,2-1.5-2.5,1.5-2.5-.5-2-7,4-3,2.5,1,1.5-1.5,1-1.5-.5-3,.5-1.5,1,.5-2-2-.45"/>
      <path data-code="KB-MAJ" d="m70.75,40.4l1.25-1.2,7.25.55.5,1,1-1.5,1.5,1v-1.5h1l5.5,1.5v2l1,1,.1.75-1.1-.75-7.5,1-3.5,2v2l-4.5,5,1,5.15-1.5-.5-3.5,2-.5-6,2-1.5.5-3.65,3-1.5,2-2.5-3.5-.5v-1h-2v-2.85"/>
      <path data-code="KB-NAL" d="m51.25,42.9l-.5-1,2,.85-.5-1.5-2-1,3-.5-.5-1.5.5-.5,1,2,6,1-.5,2,.5.5h-4l1.8,1.6-2.8,1.9-2-2.5-1.5,1,.5,1.5-1,1.5-1.5-2.5,1.5-1-4-2.35,4,.5Z"/>
      <path data-code="KB-PROM" d="m66.75,26.25l2,1,2-3.5,2,2.5,3-3,2-3,3-.5,1.5.5,1.5-1.5,3-.5,1,1.5-1,1.5,1.5.5-.5,1,6,4-1.5,2.5,3.5,3,1,.5,2-2.5,4,1.5,1-1.5,2.5.5-2.5,4-3-2-1.5,2.5-2.5-.5-3,5-1-.5-2.5,4.5-1.5-1.5v-2l-5.5-1.5-.5-.5,1-.5-2.5-3.5-2,1,3,3.5v1.5l-1.5-1v1.5h-1l-.5-1-9.6-.7.6-1.8-3.5-2,1-3,1.5.5v-1.5l1-.5-2-1.5-3-.5,1.5-2.5"/>
      <path data-code="KB-PRO" d="m79.25,35.25l2-1,2.5,3.5-1,.5.5.5h-1l-3-3.5"/>
      <path data-code="KB-TER" d="m73.25,53.25l4.5-5v-2l3.5-2,7.5-1,1.5,1v4l2.5.5,2,2-3,4.5,1,2.5-3,1.5-1.5,3-3,2,.5,2h-5l1-4.5-9.5,2.5,2-4-1-7"/>
      <path data-code="KB-URV" d="m54.2,52.9l5.5-3,1.05-5.15h1.5l.5-1.5,4-1.5h-3.5v-1.5h1.5l1-1.85,6.25.8-1.25,1.2v2.85h2v1l3.5.5-2,2.5-3,1.5-.25,1.9-4.25-.4v2h-4v1l-5,3-2.05,1.5-1.5-4.85"/>
      <path data-code="KB-ZOL" d="m4.75,18.25l2.5-2,1.5.5,1-2.5,2.5-2,3-6,7,1.5,4.5-.5,3-6,1.5-1,2.5,1,4,4,2.5-3.5,2,1.5,4-.5,6,4,2.5-3.5,1,.5,2,1.5-2.5,11.5,4.5-.5-.5,3-4,.5-3.5-1-6,3.5-2.85.45-3.65-.45-1-4h-2l-.5-2-1,.5v1l-1.5.5-1.5-1v.5l-4.5,1.5-2-1-3.5,1-2.5,2.5-1,2.5-1.5,1-6-1.5-2,1-4.5-3.5.5-3"/>
</svg>