<svg xmlns="http://www.w3.org/2000/svg" viewBox="0 0 163.5 142">
      <path data-code="KRS-BEL" d="m24.25,85.75l1.5,1.5h2l.5-1.5.95,2.25,1.55.6,1.5-4,1,.5,1.5-2,1.5.5,1-1,2,.65,1.5-2.5,3.5,2.5,1.5-1.5,1.5,1,1-1.5.85.85-2.85,6.65,2.5,4.5-.5,1.5-.5,1h-.5l1,3v1.5l-2-1.5-2,1.5-.5-.5-2.5.5-1,1.5-1.5-.5-1,1-1.5-1,1-1.5-1-2-1.5,1v1l-1.5-.5-2,1-1-3.5-1,1.5h-1.5l-.5-2h.5l1-1.5-2.5-1-.5-2h-1l-1-3,.5-3"/>
      <path data-code="KRS-BOL" d="m40.25,67.6l.5-.5,2.5-1-1-2,1.5-2,4.5,1.15,1.5,1-.5,2,4-.5,1.5.5v-1h1v-1l1.5-.5v-2l1-1,1,.5,2,2-1.5.5-1,2,1.4,1.65-3.4,1.35v1.5l-1.5.5-.5,2,2,1v2.5l-2,1h-1.5v2l-3,1.5v2.5l-2-2-1,1.5-1.5-1-1.5,1.5-3.5-2.5-1.05,1.8-1.95-4.4,1-1-.5-1.5,1.5-1v-1l.5-.5-1-1.5,1-2.5-1-2h.5l.5.45Z"/>
      <path data-code="KRS-CHE" d="m120.25,69.6l1-2.5h2.5l1,.65,1.5-.5,1,2,2.5,1-3,2,1.5,4.5,2,1-.5,2,.5,4.35-3.5,1.5.5,2-.5,4-3.5-1-2,2-1-.5-1,1v1.5h-1.1l-1.4-2.5,1-1-1-2-1,.5-1-.5-1-2,.5-.5-.5-1.5-1.5-1.5,1-1.5,4.5-1.5-1-2.5-1.65-.65,4.15-8.35,1,.5Z"/>
      <path data-code="KRS-DMI" d="m45.25,14.25l.5-.5,2,.5,2-2,2-.5,1-1.5-.5-1,1.5-1.5-.5-1,1-2.5h2.5l.5,1.5-1,1,4,2,3-2-.5-2,1,.5,5.5-2.5-1.5-.5v-1l1.5-1,2.5,4-1,2,2.5.5v-.5l.5,1,.5,5.85-2,.5,1.5,1-1,.5,1.5.5-1,2,.5,2-3,1-.5-1-1,3v3.5l1.5.5.5-1v1.5l1.65,1.65-4.15.5v-.5l-4.5-.5.5-1-2-2-5-2.5-1.5,1.5h-1.5l-1,1-.5,2-1,.5v-1h.5l-.5-.5-1,1-.5-1,.5-1-1.5-2.5,2.5-1.5-4-3-1,.5-2-4.5"/>
      <path data-code="KRS-FAT" d="m80.25,35.1v-1h.5l.5-.5,1,.5,1-1.5.5-4.5,3,.5v-3.35l7.5.5,4,4.35v3h1.5l1,.5-3,4.5.5,3-1,3.5-2,.65-.5-.5v.5h-1.5l-.5,1-1.5-.5v1l-2,1,.5.5h-.5l-.5,1.5h-3.5v1.5l-2-1.5v-.5l1-.5-1-.5-2.5,1-.5-1-1.5.5-1.5-.5-.5.5-1-.5-2,1.5-1-2.5,1-2.5-1.95-1.55-.55-2.95h1l-.5-1.5,2-4.5,6.5.85Z"/>
      <path data-code="KRS-GLU" d="m6.25,36.25l2-.5.5-1,1.5-.5,2,.5,1.5,3.85,3.5,1v.5l-1.5-.5-2,1,1.5,2,1.5-.5v1.5l2,1-1,2h-1v1.5l2.5-.5-.5-.5,1.5-.5,1,.5,1-1,2.5,5.5-.5.5-.5-.5v.5l.5.5-.5.5-2,.65-1-1h-1l-1,1,.5.5-1.5.5,2,3-.5,1.5h-.5v1.5l-3.5,1-1,1.5-2.5-1-.5-2.5,2-3-1-1.5-.5-.5-2,.5-.5-2-2-1-2-4H1.25l-1-3.5h1.5v-1h2l1-1.5,1,1,2-1-2-5,.5-1"/>
      <path data-code="KRS-GOR" d="m117.6,106.95l2.15,2.15-.5-2.5h1l.5,3.15,1.5.85,4.5-1,1-1.35,8.5,2.5v2h-1l.5,1-.5,2,6,2,.5,10-1.5,1,.5,1.5-1,1-.5,1.5-1.5-.5v2l-1,.5v2l2,.5-1,1.5-2-.5-.5,1v2l-1,.5-3.5-3,.5-2.5-1.5-1-1.5-4-.5,1-.5-1v-1l1-3.5-1.5-1.5-3.5-2.5-8,1-2.5-3.5-.5-.5,3.5-3.5,1-.5-1-1.5,1-1v-1l1-1.5-1-3,.85-.8Z"/>
      <path data-code="KRS-KAS" d="m130.25,105.1l.5-2,8,2,1.5-1.5v-1.5l1.5-3-2.5-1,2.5-1.5,5.5,2.65,1.5,2,.5-1,3,1v-1h1l1,1v1l.5-.5,1.5,2,3-2,1,1.5-1.5,2,.5.5,1-1,3,2-.5,1.5h-1.5l.5,1.5-2.5,1v2.5l-2.5,1-1,1,.5,4,2,.5-5,1.5-6.5-5.5-1.5,2.5-2-2.5-2,2-6-2,.5-2-.5-1h1v-2l-8.5-2.5-.5-1.15,1.5-2h1.5Z"/>
      <path data-code="KRS-KHO" d="m32.25,10.25l1.5.5,2-.5,1.5-1.5,7-1,1,2-1,1,1,.5,2.5-.5,2,1.5-2,2-2-.5-.5.5,2,4.5,1-.5,4,3-2.5,1.5,1.5,2.5-.5,1,.5,1,1-1,.5.5h-.5v1l-1,.5-1-1.5-1.5.5.5,2.5-3,2.5-.5,2h-1l-1,.5-1.5,2.5-1-.5-2,1.85,1-5.5h-1l-1.5.5v1h-2.5l.5-.5-1-2-2-1-1-1.5.5-1.5-1.5-.5,1-1.5-3-.5,1-2-1.35-.9-.15-1.95,2-2.5-.5-1,1.5-2.5,3,.5,1-1h-1.5l-1.5-4"/>
      <path data-code="KRS-KON" d="m48.75,27.25l1.5-.5,1,1.5,2-1,.5-2,1-1h1.5l1.5-1.5,5,2.5,2,2-.5,1,4.5.5v.5l4.15-.5,1.35,1.35-.5,4.15-2,4.5.5,1.5h-1l.55,2.95-.55-.45-1,1.5h-2.5l-1.5-1-1.5,1-2-.5-3.5,1-3-5-1.5,2.5-3-2.5h-4l.5-1.5-2.5-1-1.5.5-.5-2,1-.5.5,1v-.5l-1-1h-.5l1-.5h1l.5-2,3-2.5-.5-2.5"/>
      <path data-code="KRS-KOR" d="m17.75,54.75l1.5-.5-.5-.5,1-1h1l1,1,2-.65h.5l1-.5v1l1.5-3.5-1-5.5,2.5.5v-1.5l2-1.5v3.5l.5-.5v-1.5l1.5-.5,4.5,5.5,1-.5v1.15l2.5,2-1.5,1v1.5l2-.5v-1l1.5,1-1.5.5-.5,1,1.5,3-3.5,2,.6.8-2.3.7h-3.8l-4,2-1-1h-2l-3,3h-4.5l-1-1-2.5.5-.5-1.5,1-1.5,3.5-1v-1.5h.5l.5-1.5-2-3"/>
      <path data-code="KRS-KUR" d="m60.25,53.75h1v-.5,1l2-.5v1h1.5v1h-1l2,3h-5l1-1-2-1h1l-.5-3"/>
      <path data-code="KRS-KURM" d="m60.25,53.75l.5,3h-1l2,1-1,1h5l-2-3h1v-1h-1.5v-1l-2,.5v-1,.5h-1m-7,1l6-2-1.5-.5,1.5-1-1-.5,2-1.5v-.5h1.5l-.5-1,1.5-4,2,.5,1.5-1,1.5,1h2.5l1-1.5,2.5,2-1,2.5h-2l-2.5,2.5,1.5,2-.5,2.5.5.5-1,1.5-1,.5v2l-6.5,4.5-3-2.5-1,1.5v1.5l-1.5.5v1h-1v1l-1.5-.5-4,.5.5-2-1.5-1,2.5-.5,2.5-6v-2"/>
      <path data-code="KRS-KRS" d="m75.75,66.25h2.5l-.5-1.5,1,1,.5-2,2-1-1.5-.5.5-.5,1.5-2v-.5h1l-1-.5,1-1v1.5l-.5,1,3.5,2.5v2h-.5l1,.5-1,.5,1,.5-.5.5,1,1.5-1.5,1-2.5-1.5-.5,2v-1.5l-1.5,1.5-1-.5v.5l-.5-.5-1.5,1.5-.5-.5-1,1.5-1-2,.5-1-1.5,1,1.5-3.5"/>
      <path data-code="KRS-KRSM" d="m75.75,66.25l-1.5,3.5,1.5-1-.5,1,1,2,1-1.5.5.5,1.5-1.5.5.5v-.5l1,.5,1.5-1.5v1.5l1,1-1-1,.5-2,2.5,1.5,1.5-1-1-1.5.5-.5-1-.5,1-.5-1-.5h.5v-2l-3.5-2.5.5-1v-1.5l-1,1,1,.5h-1v.5l-1.5,2-.5.5,1.5.5-2,1-.5,2-1-1,.5,1.5h-2.5m1.5-18l1.5.5,1.5-.5.5,1,2.5-1,1,.5-1,.5v.5l2,1.5v-1.5h3.5v1h-1.5l-.5,1.5,1,1.85-.5-.5,1-.5v2l.5,1.5,2-.5-2,4,1.5.5.5-1,1-.5,1,2,6,3.5-1,1.5.5,1.5.9.4-.4,2.1-1.5,1-3,11-1,3.5-4.5,1.15,1-3-2.5,1.5-4.5.5.5-2.5,2-.5v-1.5l-6-.5-2.5-2,.5-2-7.5-4,1-.5,1.5-3.65,3-2.5-2-2.5v.5h-.5l.5-2.5-1-1.5,1-2,2-.5v-1.5h1l-1-1.5,2-1-1-2,.5-2.85.5-.5Z"/>
      <path data-code="KRS-LGO" d="m48.25,48.25h.5l1-2,1.5-.5.5,2.5h-1v.5l-1,1v.5l-1.5.5-1-.5.5-1,.5-.5v-.5"/>
      <path data-code="KRS-LGOM" d="m48.25,48.25v.5l-.5.5-.5,1,1,.5,1.5-.5v-.5l1-1v-.5h1l-.5-2.5-1.5.5-1,2h-.5m-7-11.5l1,.5,1.5-2.5h.5l1,1v.5l-.5-1-1,.5.5,2,1.5-.5,2.5,1-.5,1.5h4l3,2.5,1.5-2.5,1.5,1,1.5,4,3.5-1-1.5,4,.5,1h-1.5v.5l-2,1.5,1,.5-1.5,1,1.5.5-6,2v2l-2.5,6-2.5.5-4.5-1.15-.5-2.35-2,.5-1.5,1.5-1.5-2,3.5-2-1.5-3,.5-1,1.5-.5-1.5-1v1l-2,.5v-1.5l1.5-1-2.5-2v-2.15l2.5.5.5-3.5,1-1-1.5-1.35,1.5-1-.5-.5.5-2-.5-1.5"/>
      <path data-code="KRS-MAN" d="m94.25,100.6l3.5-.5,1-1.5.5.5,1-1.5,7.5,1,4.5,4h1.5l1-1.5.5,3.5,2.35,2.35-.85.8,1,3-1,1.5v1l-1,1,1,1.5-1,.5-2.5,2.5-4.5-1.5-2.5-3h-3l-1.5,1-3.5-3,.5-.5-1-1.5-3.3,3.5-1.7-1.15.5-1.5h.5l-3-2,2.5-2.5,1-4-1.5-1,1.5-1Z"/>
      <path data-code="KRS-MED" d="m56.75,68.75l3.4-1.35,1.6,1.85-.5.85,1,.5v2h2l1.5-1,1.5,2.65h1l1.5-1.5,7.5,4-.5,2,2.5,2,6,.5v1.5l-2,.5-.5,2.5-2,1.5-1-1-3,3.5,1,1.5-2.5,1.35-.5-2h-2l-1.5-3.85-1.5,3-3,.5-1-2.5h-2v-2.5l-4,2-1.5-2-.5,1-1-2.5-2.5-1.5.5-1.5-1.5-1.5v-2h1.5l2-1v-2.5l-2-1,.5-2,1.5-.5v-1.5"/>
      <path data-code="KRS-OBO" d="m50.25,83.1v-2.5l3-1.35,1.5,1.5-.5,1.5,2.5,1.5,1,2.5.5-1,1.5,2,4-2v2.5h2l1,2.5,3-.5,1.5-3.15,1.5,4h2l.5,2h-1.5l-2,3h-1l-1,3-2-.5.5.5-1,.5.5,1-2,.5,1.5,2.5-2,5.5.5,1-.5,1-1.5.5.5-4.5h-3.5l-2-2v-4l-1,1.5-3-2-.5-5-1,.5-2-1.5v2l-.5-2h-2l-2.5-5.35,2.85-6.65,1.15,1Z"/>
      <path data-code="KRS-OKT" d="m61.75,69.25l-3-3.5,1-2,1.5-.5,6.5-4.5v-2l1-.5,1-1.5-.5-.5.5-2.5-1.5-2,2.5-2.5h2l1,2.5,2-1.5,1,.5-.5,2.85,1,2-2,1,1,1.5h-1v1.5l-2,.5-1,2,1,1.5-.5,2.5h.5v-.5l2,2.5-3,2.5-1.5,3.65-2.5,2h-1l-1.5-2.65-1.5,1h-2v-2l-1-.5.5-.85Z"/>
      <path data-code="KRS-PON" d="m98.25,30.1h4l2.5,2.5,1.5-.5,1,1,2-1,4.5,1,1,6-.5,4.5-1.5,2,.5,1.5-1.5,1.5v4l-6.5-7-.5.5-5-1-1,1-1.5-1.5,1-3.5-.5-3,3-4.5-1-.5h-1.5v-3"/>
      <path data-code="KRS-PRI" d="m65.75,100.6l2-.5-.5-1,1-.5-.5-.5,2,.5,1-3h1l2-3h1.5l1.5,1,1,3.5-1,1.5,1,1,3.5-1v2.5h2l-.5.5,1.5,1.5-1.5.5-.5,1-1.5.5,4.5,2,1-1v-1l2-2.5,3.5,4h1.5l-2.5,2.5,3,2h-.5l-.5,1.5,1.5,1-2,4-1.5-1,1.5-1.5-1-.5h-2.5l-3.5,2-1-1-1,.5-2-2-5-.5v-1l-5,2-4-1,1.5-1,.5-1.5-1-3-2.5,1.5-.5-1,2-5.5-1.5-2.5"/>
      <path data-code="KRS-RYL" d="m12.75,19.1h2.5l5.5,3h1.5l2.5,2.5,2-.5,1.5-1.5,1.5,1-1,2,3,.5-1,1.5,1.5.5-.5,1.5,1,1.5,2,1,1,2-.5.5h2.5v-1l1.5-.5h1l-1,5.5,2-1.85.5,1.5-.5,2,.5.5-1.5,1,1.5,1.35-1,1-.5,3.5-2.5-.5v1l-1,.5-4.5-5.5-1.5.5v1.5l-.5.5v-3.5l-2,1.5v1.5l-2.5-.5,1,5.5-1.5,3.5v-1l-1,.5h-.5l.5-.5-.5-.5v-.5l.5.5.5-.5-2.5-5.5-1,1-1-.5-1.5.5.5.5-2.5.5v-1.5h1l1-2-2-1v-1.5l-1.5.5-1.5-2,2-1,1.5.5v-.5l-3.5-1-2.5-4,1-1.5h1l-.5-2,1.5-2.5-1.5-1,1-1.5-1-.5,1.5-3-1-1v-2l-.5-.5"/>
      <path data-code="KRS-SCHM" d="m109.25,74.6l.5.5v-.5h-.5m-7-5.5v-2l1-1.5-.5-1,1.5-1.5h1.5l.5-1.5,2.5-1,.5,1,3.5-4.5,2,1,1-.5,2-4,1,1.5-1,2.5,1.5,3,2,2,.5,2,3.5.5-1.5,1,.5,1h-3l-1,2.5-1-.5-4.15,8.35-3.35-1.35v-2.5l-.5.5v.5l-1.5-.5,1.5,2.5v.5l2.5,1.5,3-.5,1,2.5-4.5,1.5-1,1.5-4.5-2-3,.5-1.5,1-1.5,2h-3l-3-3.5-1.5.5,3-11,1.5-1,.4-2.1,3.1,1.1Z"/>
      <path data-code="KRS-SCH" d="m109.75,74.1l1.5.5v-.5l.5-.5v2.5l5,2-3,.5-2.5-1.5v-.5l-1.5-2.5m-.5.5h.5v.5l-.5-.5"/>
      <path data-code="KRS-SOL" d="m79.75,86.25l1,1,2-1.5,4.5-.5,2.5-1.5-1,3,4.5-1.15,1-3.5,1.5-.5,3,3.5-.5,1.5h-1l1.5,2.5-.5.5,1,1-.5,1,3.5,1.5-1,1.5-2.5,2.5.5,1-.5.5-1,1.5-3.5.5-1.5,1,1.5,1-1,4h-1.5l-3.5-4-2,2.5v1l-1,1-4.5-2,1.5-.5.5-1,1.5-.5-1.5-1.5.5-.5h-2v-2.5l-3.5,1-1-1,1-1.5-1-3.5-1.5-1,2.5-1.35-1-1.5,3-3.5Z"/>
      <path data-code="KRS-SOV" d="m119.25,93.1l1-1,1,.5,2-2,3.5,1,.5-4-.5-2,3.5-1.5h3l3-2.5,3,3.5,1.5,3.5,3-2,.5.5.5,4-1.5,4.5,1,1.5,1-.5-.5,1.5-3-1.5-2.5,1.5,2.5,1-1.5,3v1.5l-1.5,1.5-8-2-.5,2h-1.5l-1.5,2,.5,1.15-1,1.35-4.5,1-1.5-.85-.5-3.15v-1l-1-.5,1-1.5.5-3.5,2-1v-1.5h-2l-2-2-.6-1h1.1v-1.5"/>
      <path data-code="KRS-SUD" d="m22.75,65.1l3-2.85h2l1,1,3.8-2h4l2.3-.7.9,1.2,1.5-1.5,2-.5.5,2.35-1.5,2,1,2-2.5,1-.5.5-.5-.5h-.5l1,2-1,2.5,1,1.5-.5.5v1l-1.5,1,.5,1.5-1,1,1.95,4.4-.45.7-2-.65-1,1-1.5-.5-1.5,2-1-.5-1.5,4-2.5-1v-3.5l-1.5-1.5.5-1-2.5.5-.5-1-2,.5-.5-4h1.5v-1l1-.5-.5-1.5.5-2,3.5-2.5-2-2.5-2.5,1,.5-1-1-2.45"/>
      <path data-code="KRS-TIM" d="m97.25,86.6h1l.5-1.5h3l1.5-2,1.5-1,3-.5,3.5,1,2.5,2.5.5,1.5-.5.5,1,2,1,.5,1-.5,1,2-1,1,2,3.5,2,2h2v1.5l-2,1-.5,3.5-1,1.5,1,.5v1h-1l.5,2.5-4.5-4.5-.5-3.5-1,1.5h-1.5l-4.5-4-7.5-1-1,1.5-.5-.5.5-.5-.5-1,2.5-2.5,1-1.5-3.5-1.5.5-1-1-1,.5-.5-1.5-2.5"/>
      <path data-code="KRS-ZHE" d="m80.25,12.1l2-2,4,3.5,3-.5.5,1-4.5,3v-.5h-1l-1,2.5-1,.5-1-.5v-4.5l-2-.5,1.5-1-.5-1"/>
      <path data-code="KRS-ZHEM" d="m73.25,7.6l3-.5.5,1.5,1.5-2,2,1.5h1.5v2.5l-1.5,1.5.5,1-1.5,1,2,.5v4.5l1,.5,1-.5,1-2.5h1v.5l4.5-3-.5-1-3,.5-2-1.5,1.5-1-1-.5,1,.5,1-1.5h1l1,1.5,2,1,1-1,1.5,1.5-2.5,3,.5,1.5-.5,4-4,3v4.5l-3-.5-.5,4.5-1,1.5-1-.5-.5.5h-.5v1l-6.5-.85.5-4.15-3-3v-1.5l-.5,1-1.5-.5v-3.5l1-3,.5,1,3-1-.5-2,1-2-1.5-.5,1-.5-1.5-1,2-.5-1-5.5"/>
      <path data-code="KRS-ZOL" d="m89.25,47.75l2-1v-1l1.5.45.5-.95h1.5v-.5l.5.5v-.5l2-.15,1.5,1.5,1-1,5,1,.5-.5,6.5,7v-4l1.5-1.5,3.5,3.5-1,1,2,2.5-2,3.5-1,.5-2-1-3.5,4.5-.5-1-2.5,1-.5,1.5h-1.5l-1.5,1.5.5,1-1,1.5v2h-.5l-3.5-1.5-.5-1.5,1-1.5-6-3.5-1-2-1,.5-.5,1-1.5-.5,2-4-2,.5-.5-1.5v-2l-1,.5.5.5-1-1.85.5-1.5h1.5v-1l.5-1.5h.5l-.5-.5Z"/>
</svg>