<svg xmlns="http://www.w3.org/2000/svg" viewBox="0 0 249 266.5">
      <path data-code="KL-TSE" d="m89.75,108.6l1.3-1.6,2.2-1.25,3,.5,2.5-2-1-3,1.5-1.5-1-.5,5-6.5-3-5.5,1.5-1h3l3-2.5,1.5-2,6.5-.5,4.5-3,2,2.5,6.5-2.5.5-.5,15.5,10.5-2,4.5-2.5,3,7.5,7,1-1,5,3.5-7,8.5-7,5.5-7-3.5-2.5,6-2.5,3.5.5,1.5h-2.5l-2.5-1.5-3.5,4-5-4.5-5.5,3-5.75-4.65.75-2.35-.5-.65,2-2,.5.65,4-4,2.5,2,.5-1-1-2,.5-.5-1-.5,2-1-7-5-4.55,4.95-5.95-1.1-1,1-9,.5-1-3,4.5-.5Z"/>
      <path data-code="KL-CHE" d="m117.75,181.75l6-3,5.5-4.5,1.5-2.5v-3l1.5-2.5-.5-1.5,4.5-7,6.5,7.5,29.3,15.25-2.3,2.75,1,8.5,5,4.5-1.5,2.5-4.5,3v.5l6,6.5-1.5,1.5,3,2-.5,2,1,2,4.5.5-3,3.5-4.5-2.5,1-1.5-4.5-2.5-2.5,2.5-8-3-1.5,2,5,3.5-.5.5,2,.5,2.5-2,5.5,3.5.5,1.5-4.5,7-17,18,1,1.5-3.5,3.5-1-1.5-3.5,3-2-6.5-5.5-4-4-5-3-.5-6-6-6.5-4-2,1-2.5-2.5,1-1-.5-10.5-5.5-11.5,7.5-3.5-1-6.5-1-.5,4.5-6-1.5-5.5"/>
      <path data-code="KL-ILE" d="m106.75,106.75l7,5-2,1,1,.5-.5.5,1,2-.5,1-2.5-2-4,4-5-6,5.5-6Zm-2.5,14l-2,6.5-1.5,1,2,6-4-1.5-1.5,2.5-1-.5-.5.5-1.65-.8,5.15-8.35.5.5,1-1-2.5-1.5,3-5.5,1,1.5h1.5l.5.65Z"/>
      <path data-code="KL-GOR" d="m4.75,59.25l2.5,1v-1l1.5-.5v3l3,5,2.5-1,2.5,1.5,1-1.5-1.5-1,2-3,1.5,1,2-2.5,6.5,4.5-1,2-1.5-1-1,2,2,1.5-3.5,7.5-1-.5-2,2.5h.5l-6,7-3-1,1.5-2L.25,72.75l2.5-4,1-7,1.5-1-.5-1.5"/>
      <path data-code="KL-IKI" d="m87.75,142.6l1-3,2.5-.5,2.85-4.65,1.65.8.5-.5,1,.5,1.5-2.5,4,1.5-2-6,1.5-1,1.25-4.15,5.75,4.65,5.5-3,5,4.5,4,5.5-4.5,9.5,4,5,5.5,1.5-1.5,2.5,1.5,5.5-6,2.5,3,3,4,1.5,2,1.5-1,1.5v3l-1.5,2.5-5.5,4.5-6,3,1.5,5.5-4.5,6,1,.5,1,6.5-7.5,3.5-11.5-20.5.5-1-1-3.5h-2l-1.5-1.5-4-6v-2.5l-4-2-2.5-5.5-1.5-1-2-9v-4l2-6.15,6,1.5Z"/>
      <path data-code="KL-YAS" d="m33.75,48.25l6.5,2.5,5.5,7.5-.5,2.5,2.5,3v5.5l3,4,3,2.35v2l1.5,2.5-.2,6.9-4.3.25-1,.5.5,1-7,2-3.5-1-7.5,2-10-3.5,6.5-9.5-5.5-2,3.5-7.5-2-1.5,1-2,1.5,1,1-2,1,.5,2.5-3.5.5-1.5-2.5-1,4-11"/>
      <path data-code="KL-YASK" d="m119.75,129.25l3.5-4,2.5,1.5h2.5l-.5-1.5,2.5-3.5,2.5-6,7,3.5,7-5.5,8.5-10.5,1-5.5,7,5.5,7,3,13,9,2-3,5,1.5-8.5,14.5,9,6.5,7-3,5,3.5-1.5,1,8.5,8.5-2,3.5-3-2-4,9,5,3-1,2.5-2.5-1-6.5,3.5-1.5-3-5.5,1.5-.5,1,2.5,3.5-5.5,5.5-7,12-35.5-18.5-6.5-7.5-4.5,7,.5,1.5-.5,1-2-1.5-4-1.5-3-3,6-2.5-1.5-5.5,1.5-2.5-5.5-1.5-4-5,4.5-9.5-4-5.5"/>
      <path data-code="KL-YUS" d="m200.75,82.1v-1.5l5-6.5,3.5-2,2,1,4.5-.5,1.5-1.5.5,7.15,4.5,14,4.5,3,18.5-5,2,1,1.5,5-9.5,1-7.5,1.5-4,24.5,1,2-1,4,5,5-3.5,7.5-1.5,1-4,7-7,4-.5,7.5-2,5-3.5-3-6-2.5,1-2.5-5-3,4-9,3,2,2-3.5-8.5-8.5,1.5-1-5-3.5-7,3-9-6.5,8.5-14.5-5-1.5,13.5-20.5-3.5-2.65,5.5-7Z"/>
      <path data-code="KL-KET" d="m129.25,77.75l11-12.5,9.5-16.15,6,4,2.5-4,5.5,9,4.5-2,3-3.5,2.5,1.5,1-1,3,.15,2.5,4-1,3.85.5,7.5,1,4,2.5,4,.5,3-5,4.5,4.5,5,12.5,7.15-12.5,19-13-9-7-3-7-5.5-1,5.5-1.5,2-5-3.5-1,1-7.5-7,2.5-3,2-4.5-15.5-10.5"/>
      <path data-code="KL-LAG" d="m145.75,254.25l3.5-3,1,1.5,3.5-3.5-1-1.5,17-18,4.5-7,1,1.5,7-7.5,1.5.5,2-1,9,5.5h4l1-1,3.5,2,3,3.5h2l-1,1,1,.5-1,1.5-2-.5-1.5,6.5-6,1-2,1.5-1.5-1,.5,3.5-.5,1.5-3,2-1-2-1.5,2.5-1-.5-.5,1.5-2,1.5-1.5-1.5.5,1.5-2,4-2,1.5-.5-1-.5,1.5-1.5,1-.5,2-1.5-1-2,3-4.5,3.5h-1.5l-.5-4-1-1,.5,1.5-1,4.5-1,2.5-2.5,1.5-.5-1,1-2.5h-1.5l.5-3.5,1.5-1.5-.5-.5-6.5,7-1-1-2.5.5-1.5-1.5-.5,3h-1l-1-4,1.5-1-4.5-6"/>
      <path data-code="KL-MAL" d="m173.25,11.75l7.5-11.5,2,.5-.5,1,2,1.5-1,1,3.5,3.5-5.5,8.5,5,2,1-1.5,4,5.5,7-2,1-2.5,2-1.5v-2l3.5-2,5.5,7.5-2,1.5,2.5,3.5-1,4,4,3,2.5,9.5,7,1.5,1,3-4,3.5-1,2-8-2.5,1.5-2-2.5-2,1-1-1.5-5.5-8.5-4.65v6l-3.5-1-1,9-6,4.5h-1.5l-1,5.15h-8l-2.5-4,1-2.65-2-5.5,3-3v-1.5l-2.5-1.5-1.5-3,2-5.35-10-7,6-4.5,3-5.5-3.5-2"/>
      <path data-code="KL-OKT" d="m188.25,57.25l1-5.15h1.5l6-4.5,1-9,3.5,1v-6l8.5,4.65,1.5,5.5-1,1,2.5,2-1.5,2,8,2.5-2,4.85,1,2-1,6.5,2,1.5-2,5-1.5,1.5-4.5.5-2-1-3.5,2-5,6.5v1.5l-5.5,7,3.5,2.65-3,4.5-12.5-7.15-4.5-5,5-4.5-.5-3-2.5-4-1-4-.5-7.5,1-3.85h8Z"/>
      <path data-code="KL-PRI" d="m53.75,75.6l1.5-.5.5-1.5,7,1,5,26.5,7,5,4,1,11.5-8.5v-2l1-1,2,3.5-.5,2,.5,4-2.5.5v2l-1,1-4.5.5,1,3,9-.5,1-1,5.95,1.1-.95,1.05,4.5,5.35-2,2h-1.5l-1-1.5-3,5.5,2.5,1.5-1,1-.5-.5-8,13-2.5.5-1,3-6-1.5-.5-3,.5-3.5-2-4.5,1-2.5-5.5-6.5-9.5-6.5-2.5-5.5v-6l-8-10.5-.5-2.5.5-10-1.5-2.5v-2"/>
      <path data-code="KL-SAR" d="m131.25,26.6l8-9,7,1,2.5,2,5.5-2.5v-1l5-2,2,2.5-.5.5h1l6.35,5.85,9.65,6.75-2,5.35,1.5,3,2.5,1.5v1.5l-3,3,2,5.5-1,2.65-3-.15-1,1-2.5-1.5-3,3.5-4.5,2-5.5-9-2.5,4-6-4,2.5-4-3-1.5,2.5-4.5-1.5-1-.5,1-2-2-4.5,8-7-3-4,3.5-2,4.5-5-4,3-5.5,3-13.95"/>
</svg>