<svg data-code="RU-KOS_1" xmlns="http://www.w3.org/2000/svg" viewBox="0 0 284.25 161.25">
    <g data-code="kostromskaja_oblast_" data-title="kostromskaja_oblast&amp;apos;">
      <path data-code="antropovskij_rajon" data-title="antropovskij rajon" class="cls-1" d="M94.62,89.12l.5-1.5,1.68-.74.32-1.62,3,1,.5-1.5,2.5-1,2.5-4,1.5,1,.5-.5,1-1,.5.5,1-2.5v-.5l2-2.5v-1l1.5-1,.5-1,2.5-1.5-.5-1h1l-.02-2.2,3.02-.8,1,1v1l2.5,1,1,2.5,1-1.5,2,.5.5,4.86h1.5v2l-1.5,1,.5,1-4,1,1,1-.5,2,1.5,1-1,1.5-2,.5.5,1v2.5l-1,1.5.5.5-1,1-1,5,.98.74-.98,1.76-1.5.64,3,1.5,1.5,2.5h-1l.5,1-6.79,8.35-5.21-4.35,1-.5-1.5-1.5-3.5-2-1.5-5-3-1.5-1.5,1-1.5-.5,1,2h-2l-.5,2.5-3,1-1-.5-1.5,2-3-2.14,4-6.5-.5-1,.5-1.5-1.5-.5h.5l-1-4-1.5-.5,1-2,2.5.5Z"/>
      <path data-code="bujskij_rajon" data-title="bujskij rajon" class="cls-1" d="M77.13,45.76l.5,2.5,1-.5.5,2,2,1.5-1.5-2v-.5h.5l1.5-2-1-2-1-.5-1,1.5h-1.5M65.63,29.76l1-.5v1h4l1.5-1,2-.5,1.5,1,1.5-2,1-.5.5-.5,1,.5,1.5-1.5v-5l2.5.5.5-2.5,1.5,1v1l1-2.5h1l.5-1h-2l-.5-1.5,1-1.5v-.5l1.5-1,3.5-1,1.5,2-.5,2,2.5-1,4.9.55-1.9,3.81-1.5,1,.5.5-.5,1,3,2-2,3,2.5,2-3.5,4,2.5,3,1.5-.5v1l1.5-.5v1l1.5.5.5,2.5,2.5,1.5-1,.5v.5h2.5l.5,1.5h-.5v1l1,1.14-5-.5-1.5,1.5,1,1-2.5-.5-1,1.5h-1l-1,1-3-1.5-2.5,1v1l-1.5-.5-1.5,1.5-1-.5-2,1-1-1-.5,1,.5.5,1.5.5-2,.5-.5,1-3-1-1.5,2v1l1.5,2-.5.5,1,.5v3l-2.5.5-.8,2.52h-.58s-.62-1.65-.62-1.65l-4.5-2.5-.5-2h-3.5l-2-3.5-2,1.5-2.5-1-1-2.36-1-1.5h-1l.68,1h-1.18l.5-1-1.5-1,.5-1-.5-1.5,1.5,1,3.5-1.5,1,.5.5-1-.5-2h1.5l-1.5-4.5v-1.5h2.5v-2l-1-.5,1-1,.5-3-1.5-3.5"/>
      <path data-code="chukhlomskij_rajon" data-title="chukhlomskij rajon" class="cls-1" d="M112.62,45.12v-1.5l1,.5,1-.5-.5-1.5,3,1v-1.5l3,2,.5-2.5-2-.5.5-1,1-.5v-1l2,1,.5-1h2.5l1,2,5.5,2h1v-1.5l.5-.5,2.5,1v-1l-2.5-1.5,2-3,1.5-.5.5-1,2.5-.5,1-1.5,2.89.96.61-1.33,2.5-1.5,1.5,1.5,2-.5v1l3-1,.5-1,1.5,1.5.5-.5.5-2,1-.5-1,1.5,1,4h2v4l1.5.5,1-4.5,6,.5-1.5,3,1,.5-1,1v1.5h-1.5l-.5,1,.5,1.5-.5,1-3.5,1-5.5,7,7.5,5.5-6.92,9.04-7.09-5.18v-1.5l-3-1,.5-1-4-.5-.5,1-1.5-.5-5,6,.5,1.5-2.5.5v-.5l-1,1.5-2.5-1.5v2l-2-1v3.64l-2-.5-1,1.5-1-2.5-2.5-1v-1l-1-1-.5,1-1-.5-2.5.5v1l-4-3.5,1.5-1-.5-1h1l.5-.5-3.5-3,2.5-.5-1-.5.5-1h-1l1.5-1-.5-1.5-1,.5-1.5-4-2-.5,1-.5v-1l1-1.5-1.5-1.5,3.5-.64Z"/>
      <path data-code="galichskij_rajon" data-title="galichskij rajon" class="cls-1" d="M97.13,67.26l1.5,1.5-.5,1,.5-.5,1,.5,1.5-1,.5,1,1-.5-.5-1-5-1M81.63,53.26l3,1,.5-1,2-.5-1.5-.5-.5-.5.5-1,1,1,2-1,1,.5,1.5-1.5,1.5.5v-1l2.5-1,3,1.5,1-1h1l1-1.5,2.5.5-1-1,1.5-1.5,5,.5,1.5,1.5-1,1.5v1l-1,.5,2,.5,1.5,4,1-.5.5,1.5-1.5,1h1l-.5,1,1,.5-2.5.5,3.5,3-.5.5h-1l.5,1-1.5,1,4,3.5v-1l.98-.2.02,2.2h-1l.5,1-2.5,1.5-.5,1-1.5,1v1l-2,2.5v.5l-1,2.5-.5-.5-1,1-.5.5-1.5-1-2.5,4-2.5,1-.5,1.5-3-1-.32,1.62-1.68-1.26-1-.5-2-.5-1-1.5-.5,1-.5-1.5-3.5,1.5-1-.5.5.5-1,.5-1.5-.5-2-2-.5-2.5h-1.5l.5-.5-1-3,.5-1.5,3.5-4-4-3-.88-2.34h.58s.8-2.53.8-2.53l2.5-.5v-3l-1-.5.5-.5-1.5-2v-1l1.5-2Z"/>
      <path data-code="gorodskoj_okrug_buj" data-title="gorodskoj okrug buj" class="cls-1" d="M77.13,45.76h1.5l1-1.5,1,.5,1,2-1.5,2h-.5v.5l1.5,2-2-1.5-.5-2-1,.5-.5-2.5"/>
      <path data-code="gorodskoj_okrug_galich" data-title="gorodskoj okrug galich" class="cls-1" d="M97.13,67.26l5,1,.5,1-1,.5-.5-1-1.5,1-1-.5-.5.5.5-1-1.5-1.5"/>
      <path data-code="gorodskoj_okrug_manturovo" data-title="gorodskoj okrug manturovo" class="cls-1" d="M167.13,115.26l2.5-.5-.5-1h2l.5,1-2,1-.5,2-2,.5h-1v-.5h.5l1.5-1.5-1-1"/>
      <path data-code="gorodskoj_okrug_shar_ja" data-title="gorodskoj_okrug_shar&amp;apos;ja" class="cls-1" d="M189.63,124.13h4l1,4-3.5.5v-1.5l-2-1,.5-2"/>
      <path data-code="gorodskoj_okrug_volgorechensk" data-title="gorodskoj okrug volgorechensk" class="cls-1" d="M27.63,99.26l1-.5.5,1v-1.5l1.5,1h-.5v1.5l-.5-.5-1,2.5-1.5-2.5.5-1"/>
      <path data-code="kadyjskij_rajon" data-title="kadyjskij rajon" class="cls-1" d="M92.16,105.71l1.47,1.05,1.5-2,1,.5,3-1,.5-2.5h2l-1-2,1.5.5,1.5-1,3,1.5,1.5,5,3.5,2,1.5,1.5-1,.5,5.21,4.35-3.71,4.65-4,6,2,2v1.5l-3,2.5-2-1-1,2-4-2.5-.5-.5-1.5,2-3-2v2l-1.5.5,1.5,1.5-1,.5-2-.5.5-1h-.5l-.5,1.5-1,.5v2l-.5-.5.5.5-3,2.5-.5,2-1.5,1-9.5-3-.5-5,1.5.5v-1.5l2-.5-.5-1.5,1-1-.5-2,3.5-1v-1l1-.5.5-2.5,2-1-1-1.5.5-1-1.2-.76,2.7-4.38-1.5-1,1.5-.5v-1l3.53-5.41Z"/>
      <path data-code="kologrivskij_rajon" data-title="kologrivskij rajon" class="cls-1" d="M155.13,52.26l5.5-7,3.5-1,.5-1,2,.5,1-1h.5v-2l2,1.5,1.5-1.5,2,.5.5,2.5,3,2v3l7.5,2,.5,1.5-2.5,3,3,1.5-.5,1.5,1,.5v1.5l2.5-.5,7.5,5.5-3.5,4.5,3,2.5-5.5,6.5-5-3.5-2,2.5,6,4.5h-2l-2,2,.5,5.5-1,1.5v1l-3,4,.5.5-3.5,1.5,1,1-2,1-.5-1h-3v-1.5h-1l-.5,1.5-2.5-1-1-3.5.5-2.5-.5-2.5,1.5-1-2.5-1.5,2-1.5-1-1.5-1.5.5-.5-.5,2-1-3-3.64-5.04-3.55,1.04-1.45-2-1.5,1.5-2-5.91-4.32,6.92-9.04-7.5-5.5"/>
      <path data-code="kostroma" class="cls-1" d="M28.63,73.26h2.5l1,2,1-1,1.5.5.5-2.5h1v-1.5l2-1v3h-.5v.5l-1,1,3,1.5-2,2,1,.5-1.5,1.5h-1.5l.5,2-1.5-1-1,1v-2l-3.5-1v-2h1l-2.5-3.5"/>
      <path data-code="kostromskoj_rajon" data-title="kostromskoj rajon" class="cls-1" d="M28.63,73.26l2.5,3.5h-1v2l3.5,1v2l1-1,1.5,1-.5-2h1.5l1.5-1.5-1-.5,2-2-3-1.5,1-1v-.5h.5v-3l-2,1v1.5h-1l-.5,2.5-1.5-.5-1,1-1-2h-2.5M29.63,62.76l5-2,1-1.5,3,2,1.5-.5,1-.5-1-2,1-1.5,2,1,2.5-2.5,1,1,2.5-4.5,1.5-.5,1.5,1.5,1-2,.5.5,1-1,3-1.5,1,1.5-.5,1,1.5,1-.5,1h1.18l-.68-1h1l1,1.5-1-.64-.5,3h-2v2.5l-2,1v.5l-1,2,3,2.5-1,1,.5,3,1,.5h-1l-1,1-2,.5-.5.5,1,1.5v1l-1,.5v1.5l-.5.5v1l-1,1-2.5-3-2,1.5-.5-.5-1.5,2v1l-.5-.36-.5,3.5-1-.5v.5h-.5l-.47,1.21-1.03-.21v-1.5h-2.5l-.5,1-1.5.5v2l-2.5.5-.5-1,.5,2-1.5-.5v3l-1.5,1.5-1.5,3.5h-1.5l-1.5-1.5.5-2-1.5-2.5-2.5-1.5,1-1h-1v-1l1,.5.5-.5-2.5-1-1-3,.5-1,1.5-1-.5-3,2-1.5-1-.5,1.5-1.5-.5-2.5h2l.5-1,.5-2.5,1-.5v-3"/>
      <path data-code="krasnosel_skij_rajon" data-title="krasnosel&amp;apos;skij_rajon" class="cls-1" d="M34.63,84.76l.5,1,2.5-.5v-2l1.5-.5.5-1h2.5v1.5l2.5.5-1,1,1.5,2.5v3l1,.5.5-1,2.5,1v2.5l1.5,1.5-2.5,2.5,1,1.5-2,1,1,.5-1.5,1,.5,1-1.5.5.5,1.5-5,3.5-3.5-4.5-1,1-.5,1.5-2-1h-5l-1-1.5,1.5-3,.5.5v-1.5h.5l-1.5-1v1.5l-1.5-3,1.5-2.5h1.5l1.5-3.5,1.5-2v-2.5l1.5.5-.5-2"/>
      <path data-code="makar_evskij_rajon" data-title="makar&amp;apos;evskij_rajon" class="cls-1" d="M93.13,133.26l.5-.5,2,.5,1-.5-1.5-1.5,1.5-.5v-2l3,2,1.5-2,.5.5,4,2.5,1-2,2,1,3-2.5v-1.5l-2-2,4-6,6.92-8.65,3.58,2.65v4.86l1-2h2.5l-1-1,3-2,.5,1v-2h1l3.5,3,2-.5.5,1.5h2l3.5-3.5,5.5,5.14-1.5,1.5-.5,2.5,1,2h-1l1,4.5,4.5,5.5,1.5,5.5h1.5l1.5,6-2.5,2.5-1.5.5-.5,1-4,1.5-1,2.5-1.5.5-4.5-3-4.5,1-1.5,3-7,2h-2l-2-1.5-1.5,1.5h-2.5l-6.5-.5-2-2-1,1-2-1-3-8,1-4-3-3.5,2-1.5-.5-1-10,3.5-2.5,3.5-3-.5v-2.5l2-1,.5-1.5,1.5-1.5v-2.5"/>
      <path data-code="manturovskij_rajon__kostromskaja_oblast_" data-title="manturovskij_rajon_(kostromskaja_oblast&amp;apos;)" class="cls-1" d="M167.13,115.26l1,1-1.5,1.5h-.5v.5h1l2-.5.5-2,2-1-.5-1h-2l.5,1-2.5.5M147.62,112.13l3,2,3-4,.5-2.5,5.5-6.5,8,.5,2-2,.5-1.36,2.5,1,.5-1.5h1v1.5h3l.5,1h4l2.5,2.5,1.5-.5-3,3h2.5l-1.5,3.5,2,3.5-1.5.5.5,1,3.5,1-4,4.36-2.5.5v1.5l-2.5.5-2-1-1,1-.5,3h-1.5l-1,1.5-3,2.5h-2.5l-3.5,5-1.5-.86-1,.5-.5,1.5-2.5,1-1,2.5-1,.5-1,4-1-4h-1.5l-1.5-5.5-4.5-5.5-1-4.5h1l-1-2,.5-2.5,1.5-1.5-2.47-2.3,1.46-1.33.5-1.5"/>
      <path data-code="mezhevskoj_rajon" data-title="mezhevskoj rajon" class="cls-1" d="M183.13,77.76l2-2.5,5,3.5,5.5-6.5-3-2.5,3.5-4.5,9.5,8,3.5-4.5,7.7,6.17-12.7,17.69,1,2.5-2-1-.5,3,.5,1-.5.5v1h-1.5l-2.5,2.5h-2l-2,4.14,2.5,3-5,3-2-1-2,3.5-3.5-1-.5-1,1.5-.5-2-3.5,1.5-3.5h-2.5l3-3-1.5.5-2.5-2.5h-4l2-1-1-1,3.5-1.5-.5-.5,3-4v-1l1-1.5-.5-5.5,2-2h2l-6-4.5"/>
      <path data-code="nejskij_rajon" data-title="nejskij rajon" class="cls-1" d="M121.62,100.12l.98-1.76,1.02.76,2.5-2.5,1.5,2,2.5.5,2-1-.5-1.5,1.5-1.5-.5-2,2-1,.5-2,2.5,1.5.5-1,1,1,1-1,1,1-.5,2,1.5.5,1.5-2h-.5l.5-1.5,1,.5-1.5,2.5,3,2.5,1-1-1-1.5.5-1-1-1,1.5-2.5h2l-1-.5,1-2,3,.5,1-1.5.5.5,1-1h-.5l.5-2-2-2,.5-2.5,3.5,1-1.5-2.5,4.5,1,1.46-2.05,5.04,3.55,3,3.64-2,1,.5.5,1.5-.5,1,1.5-2,1.5,2.5,1.5-1.5,1,.5,2.5-.5,2.5,1,3.5-.5,1.36-2,2-8-.5-5.5,6.5-.5,2.5-3,4-3-2-.5,1.5-1.46,1.33-3.04-2.83-3.5,3.5h-2l-.5-1.5-2,.5-3.5-3h-1v2l-.5-1-3,2,1,1-.5.5-.5-.5h-1.5l-1,2v-4.86l-3.58-2.65,3.58-4.35-.5-1h1l-1.5-2.5-3-1.5,1.5-.64Z"/>
      <path data-code="nerekhtskij_rajon" data-title="nerekhtskij rajon" class="cls-1" d="M4.12,88.12h2l.5-1.5h.5l-.5-.5h1l-.5-1,1-.5.5-1-.5-1,1-.5,2.5,1.5-.5-2.5,1-1.5,2,1,.5-1,.5-.5,1,1.5h1.5l.5.5-1,1,.5,1,4.5-2.36,1,3,2.5,1-.5.5-1-.5v1h1l-1,1,2.5,1.5,1.5,2.5-.5,2,1.5,1.5-1.5,2.5,1,2-1,.5-.5,1,1.35,2.25-1.85-.39-.5,1.5-1.5-.5-3,1.5-.5-1-1.5,1.5-2-2-1,.5-.5-3.5-2,1-2-2-5,.5-.5-2.5-1-.5-4,.5-1-1.5,1-2h.5l.5-1.5,2.5-2-1-2"/>
      <path data-code="oktjabr_skij_rajon__kostromskaja_oblast_" data-title="oktjabr&amp;apos;skij_rajon_(kostromskaja_oblast&amp;apos;)" class="cls-1" d="M239.62,122.62l3.5-.5,1,.5,3.5-2,2,1,.5-1,2-.5-1-1,.5-.5v-.5h1v-1l2.5-.5v-2.5l1.5-1v-.5h1l.5-1-.5-1,1-1.5-1.5-2-.5-2,2-1.5,1.5,1,2.5-2.5,1.5,1.5,5.5-7,.5,1,3.5-4.5,5,4.5-4,5.5.5,1-1.5.5-1,1.5,2,7,3,1,1.5-1-1.5,2h-1.5l-.5,1.5,2,4-1.5,1.5v4.5l-1,1.5v2.5l-5-1-3-4.5-2-.5-3,2.5v1.5h-.5l-1,2,1.5,1-1.5,1.5-4-1-1.5-2-2.5,1.5-.5-1.5-3.5.5-3-1-2-2.5-1.5-.5-.5,1-2-1.5,1-1.5-1-2"/>
      <path data-code="ostrovskij_rajon__kostromskaja_oblast_" data-title="ostrovskij_rajon_(kostromskaja_oblast&amp;apos;)" class="cls-1" d="M59.62,93.12l2.5,2,.5-1,.5-2,1.5,1.5,1-1.5-1-2,3,1.5,3.5-3,5.5-1,1.5-2,1,.5,1-1.5,1,.5.5-.5v-1l1,.5,1.5-1.5-.5,1.5,1.5.5,1-.5-.5-.5,1,.5,3.5-1.5.5,1.5.5-1,1,1.5,2,.5,1-1v1.5l2,1.5-2,.5-.5,1.5-2.5-.5-1,2,1.5.5,1,4h-.5l1.5.5-.5,1.5.5,1-4,6.5,1.53,1.09-3.53,5.41v1l-1.5.5,1.5,1-2.5,4-1.5-.5-1.5,1-1,2.5h-1v-1.5l-7-3.5.5-1-4.5.5-.5,2v-1l-4-2-1.5.5v-1l-2.5-1,1-2-3-2,.5-1v-.5l1-1-2.5-2,1-1-1-.5,1-2.5-2-2.5,1.5-1.5v.5l.5-2.5.5-.5-.5-.5"/>
      <path data-code="parfen_evskij_rajon" data-title="parfen&amp;apos;evskij_rajon" class="cls-1" d="M127.62,66.62l2,1v-2l2.5,1.5,1-1.5v.5l2.5-.5-.5-1.5,5-6,1.5.5.5-1,4,.5-.5,1,3,1v1.5l13,9.5-1.5,2,2,1.5-2.5,3.5-4.5-1,1.5,2.5-3.5-1-.5,2.5,2,2-.5,2h.5l-1,1-.5-.5-1,1.5-3-.5-1,2,1,.5h-2l-1.5,2.5,1,1-.5,1,1,1.5-1,1-3-2.5,1.5-2.5-1-.5-.5,1.5h.5l-1.5,2-1.5-.5.5-2-1-1-1,1-1-1-.5,1-2.5-1.5-.5,2-2,1,.5,2-1.5,1.5.5,1.5-2,1-2.5-.5-1.5-2-2.5,2.5-2-1.5,1-5,1-1-.5-.5,1-1.5v-2.5l-.5-1,2-.5,1-1.5-1.5-1,.5-2-1-1,4-1-.5-1,1.5-1v-2h-1.5l-.5-3v-5.5"/>
      <path data-code="pavinskij_rajon" data-title="pavinskij rajon" class="cls-1" d="M227.12,84.12l1.5-2,6.5,5,6.5-8.5,4,3,1.5-2.5,8.5,6.5-2.5,3.5.5.5-1,.5.5,1-1.5,2,1.5,1-1,1.5h-1v1l-2,.5v2.5l-2.5.5-1-.5-1,1.5-1.5.5-3.5,2.5-3.5-.5-.5,1,1.5.5-1,1.5-1-.5-1,1h-.5l-2,3-1-1.5,1.5-2.5-1.5,1-1-.5,1.5-1v-.5h-2l-6-3-2.5-4,1-2.5-.5-1,3-1.5-1.5-.5,6-7.5-1.5-1"/>
      <path data-code="ponazyrevskij_rajon" data-title="ponazyrevskij rajon" class="cls-1" d="M200.62,134.62l5.5-9,8.5,5.5,1.5-2.5,2,1.5,2.26-3.57,2.24.57.5-1,2-1-.5-.5,2.5-2,3.5,2.5,2-4,4,3.5,2-2.5,2,2.5-1,1.5,2,1.5.5-1,1.5.5,2.5,2.5,2.5,1,3.5-.5.5,1.5-1.5,1.5-1.5-1-3.5,6.5-4-2-2.5.5-5.5-2,1-1h-.5l-3,1v1.5l-3.5,1.5v2.5h-.5l-2,3.5-5.5-2.5-2,2.5h1.5l-1.5,1.5-.5-.5-2,2.5v2l-1.5,3-4,1.5-3,3.5-.5,3-7.5-4,9-14-3.5-.5-3-1.5,1.5-3.5-2.5-2.5"/>
      <path data-code="pyshhugskij_rajon" data-title="pyshhugskij rajon" class="cls-1" d="M203.12,94.12l2,1-1-2.5,14-19.5,6,5-.5,1.5.5.5,1-1.5,2.5,1.5,1,2-1.5,2,1.5,1-6,7.5,1.5.5-3,1.5.5,1-1,2.5,2.5,4,6,3-2,3,.5,1h-1.5v-1l-1.5,2-.5-.5v1l-1-.5-1,1.5.5.5-1,.5,3.5,1.5v1l-1,1-1-2-2,1.5-1-1.5-1.5,2.5-1-.5.5-1-1-1.5-3.5-1.5h-1l-1.5,2-3.5-3-1,.5-.5,1.5-2-.5-1-1,1.5-3.5-1.5,1-1.5-2v-1.5l-1.5-.5,1-.5-2.5-2.5,2.5-2.5h1.5v-1l.5-.5-.5-1,.5-3"/>
      <path data-code="shar_inskij_rajon" data-title="shar&amp;apos;inskij_rajon" class="cls-1" d="M189.62,124.12l-.5,2,2,1v1.5l3.5-.5-1-4h-4M164.12,133.62l3.5-5h2.5l3-2.5,1-1.5h1.5l.5-3,1-1,2,1,2.5-.5v-1.5l2.5-.5,4-4.5,2-3.36,2,1,5-3-2.5-3,2-4.14h2l2.5,2.5-1,.5,1.5.5v1.5l1.5,2,1.5-1-1.5,3.5,1,1,2,.5.5-1.5,1-.5,3.5,3,1.5-2h1l3.5,1.5,1,1.5-.5,1,1,.5,1.5-2.5,1,1.5,2-1.5,1,2,1-1.5h.5l.5,1v2l-.5.5h1l.5,2-3.5-.5-.5.5,1,.5-6,9.5-2-1.5-1.5,2.5-8.5-5.5-5.5,9,2.5,2.5-1.5,3.5,3,1.5,3.5.5-9,14-5.5-3.5-1,.5-1.5-1.5-2.5,1-1.5-1.5v1h-1v1.5l-1-.5.5,1.5-.5.5-4,1-2-.5.5-2-1.5-1,.5-.5-.5-2,2-3-6.5-4,1-1.5-2.5-1,1.5-2.5-9.5-5"/>
      <path data-code="soligalichskij_rajon" data-title="soligalichskij rajon" class="cls-1" d="M96.62,20.12l1.5-1,2.5-5,7,1,1.5-1.5,3,2.5,1,3,1.5.5v-1.5l2-.5.5,1.5h2v-1h2.5l3.5-5.5-1.5-1.5-.5.5-1.5-2.5-.5-3,1.5,2,5-6,2.5-1.5,4.5,4.5-3.5,4.5v2.5l.5,1v2h-.5l.5,1,.5-1,2.5-1,5,2,.5-1.5,1.5,1h-1v1.5l2-.5,1.5,2.5-1,.5.5.5-.5,2h-1.5l-.5,3,2,1.5-.5,3.5,1-.5,1,1.5-1,2-3-1-1,1.5-2.5.5-.5,1-1.5.5-2,3,2.5,1.5v1l-2.5-1-.5.5v1.5h-1l-5.5-2-1-2h-2.5l-.5,1-2-1v1l-1,.5-.5,1,2,.5-.5,2.5-3-2v1.5l-3-1,.5,1.5-1,.5-1-.5v1.5l-3.5.64-1-1.14v-1h.5l-.5-1.5h-2.5v-.5l1-.5-2.5-1.5-.5-2.5-1.5-.5v-1l-1.5.5v-1l-1.5.5-2.5-3,3.5-4-2.5-2,2-3-3-2,.5-1-.5-.5"/>
      <path data-code="sudislavskij_rajon" data-title="sudislavskij rajon" class="cls-1" d="M46.12,79.12v-1l1.5-2,.5.5,2-1.5,2.5,3,1-1v-1l.5-.5v-1.5l1-.5,3,1.5.5-1.5,2.5-.5v1l1.5,1.5.5,3,1.5.5.5-2-.5-1.5,4.5-.5,1.5,1,2-.5,1,1,.5-3.5,1-1,4,4,1,3-.5.5h1.5l.5,2.5,2.5.5-1.5,1.5-1-.5v1l-.5.5-1-.5-1,1.5-1-.5-1.5,2-5.5,1-3.5,3-3-1.5,1,2-1,1.5-1.5-1.5-.5,2-.5,1-2.5-2,.5.5-.5.5-.5,2.5v-.5l-1.37,1.37-4.63-5.37-1.5.5-.5,1.5-1,.13-.99-.99v-2.5l-2.5-1-.5,1-1-.5v-3l-1.5-2.5,1-1-1.47-.29.47-1.21h.5v-.5l1,.5.5-3.5.5.36Z"/>
      <path data-code="susaninskij_rajon" data-title="susaninskij rajon" class="cls-1" d="M61.63,53.76l1,2.36,2.5,1,2-1.5,1.5,1.5.5,2h3.5l.5,2,4.5,2.5,1.5,4,4,3,.5,2h-.5l-3.5,2-.5,1.5-4-4-1,1-.5,3.5-1-1-2,.5-1.5-1-4.5.5.5,1.5-.5,2-1.5-.5-.5-3-1.5-1.5v-1l-2.5.5-.5,1.5-3-1.5v-1l-1-1.5.5-.5,2-.5,1-1h1l-1-.5-.5-3,1-1-3-2.5,1-2v-.5l2-1v-2.5h2l.5-3,1,.64Z"/>
      <path data-code="vokhomskij_rajon" data-title="vokhomskij rajon" class="cls-1" d="M221.62,112.62l1-.5-.5-.5,1-1.5,1,.5v-1l.5.5,1.5-2v1h1.5l-.5-1,2-3h2v.5l-1.5,1,1,.5,1.5-1-1.5,2.5,1,1.5,2-3h.5l1-1,1,.5,1-1.5-1.5-.5.5-1,3.5.5,3.5-2.5,1.5-.5,1-1.5,1,.5,2.5-.5v-2.5l2-.5v-1h1l1-1.5-1.5-1,1.5-2-.5-1,1-.5-.5-.5,2.5-3.5-3-2.5,6.5-8.5-1-1,5.5-6.5,7.5,7,2.5,1,1.5-1.5,8.5,7-13.5,17-.5-1-5.5,7-1.5-1.5-2.5,2.5-1.5-1-2,1.5.5,2,1.5,2-1,1.5.5,1-.5,1h-1v.5l-1.5,1v2.5l-2.5.5v1h-1v.5l-.5.5,1,1-2,.5-.5,1-2-1-3.5,2-1-.5-3.5.5,1,2-2-2.5-2,2.5-4-3.5-2,4-3.5-2.5-2.5,2,.5.5-2,1-.5,1-2.24-.57,3.74-5.93-1-.5.5-.5,3.5.5-.5-2h-1l.5-.5v-2l-.5-1h-.5v-.5l-3.5-1.5Z"/>
    </g>
</svg>