
<svg data-code="RU-KLU" xmlns="http://www.w3.org/2000/svg" viewBox="0 0 157.25 110.25">
    <g data-code="kaluzhskaja_oblast_" data-title="kaluzhskaja_oblast&amp;apos;">
      <path data-code="babyninskij_rajon" data-title="babyninskij rajon" class="cls-1" d="M79.12,48.12l1.5-1,.5.5.43-1.5,3.57-.5.5,1,2-1.5,2.5,2.5,1,1-1,.5h.5l2,.5.5,4,2,.5.5-1,2.34,2.97-.84,2.53,1.5.5-.5,2,1,1.5-2.5-1-3.5,1.5v.46l-.5-.46-1,.46-1-.5v1.5l-1,.04-1,2,1,2-2.78.89-.18-.58-3.04-.3-2,1-1-1.5-1.5.5-2-1.5,1.5-1v-2.5l2.5-1-1.5-1.5,2-2-.5-6-3,.5v-1.5l-.5-.5,1-2.5,1-.5-.5-.5"/>
      <path data-code="barjatinskij_rajon" data-title="barjatinskij rajon" class="cls-1" d="M43.12,19.49l2,.5,1-1.86,5.5,4v2l2.5.5-.5,5.5,2,.5v-1h1l1.5,1.5-1,1.5.5,2-2,1h1.5l-.5,1,.5.5-2,1.5,1.47,1.82-.47,2.18-2-.5v.5h-.5l.5,1h-.5v-1.5l-1.5-.5,1,2.5-1.5,1-1.5-2h-1.5l-.5,2h-1.5v1.5l2,1v1l-2.75,1.83-4.75-1.83v-.5l1.5-1-1.5-2-1,.5.5-3-2-3,1-3-3-2-1.5,1-1.5-1,1-2,.5-1.64,2.5-.5-1-.5,2.5-1.5v-1.5l1-.5v-.5h4v-2.5l.5-1-.5-1.5h-1v-1.5Z"/>
      <path data-code="borovskij_rajon" data-title="borovskij rajon" class="cls-1" d="M124.62,23.62l2-1.5.5-1,.5-.5-.5-.5,1.5-1.5,2,3-.5-.5-.5,3h2.5l1.5,1.5v1.5h2l-.5-.5,2.5-1,1.5-1.5,1.5.5.5-1.5.5.5.5-1h1.5v1.5h2l.5,1.5,2-1.5h3v.5l-1,.5v1.5h-.5l-1.5,1.5v1l4.5,3.5v1l-1,3-3.5-1-1.5,1-.5,1-1.5-.5-2,2v-.5l1.5-1h-1.5v-2l-2-.5-2,1.5,1,1.5-1.5-1-1,.5-4-3h-2l.5-1.5-1.5-1.5,1-1-1.5.5-1-1.5-.5.5-2.5-.5-.5-3-1-2,.5.5,1-1.5h-1"/>
      <path data-code="duminichskij_rajon" data-title="duminichskij rajon" class="cls-1" d="M35.12,60.12l1-1h2l1-1,1.5,1.5,1-.5v-3.12l.5.12-.5-1.5,5-1,1-2.5,2,1.02,1.5,2.5.5,1.98-1,.5,2.5,3.52-1,.48v2l-.5,1.5,2,.5-.5,1.02-1,.98h2l-1,.5,1,1-2,.5.5.5-1,1,1.5,1.5-.5,3-1.5.5v1l1.5-.5v1h-1l.5.5-1.5.5v1l-2,1-2.5-1-1,2-2.5,2.5-4-.5-2-1.5.5-.5-1.5.36-.5-1.36,3-2h1v-1l-1.5-2.5h-3l-2-2,1-1v-3l1-.5-.53-1.37,1.03-1.13v-.5l1-1.5,1.5-.5-1-2-1.5-1"/>
      <path data-code="dzerzhinskij_rajon__kaluzhskaja_oblast_" data-title="dzerzhinskij_rajon_(kaluzhskaja_oblast&amp;apos;)" class="cls-1" d="M89.62,37.62l2-.5,1.5-2,2.5-.5.5-.5-1-1,1-.5.5-2h1l1-1v-1h1.5l.5,1.5h1l-.5,1.5,1.5.5.5-.5,1,.5,1,2h1.5l1-1.5,2,3.5,4-1.5.5.5v1l1,.5.5-2,2.5,1-1,1.5-1,2,.5.5-1.5,1,.5,1.5-1,1,1.5,2-1-.5-2.5,4h-1l-.5,1,.5.5-1.5,1.5-.5,1.5-2.5.5-1.5,3-2-1-1.5,1.5v-1l-1,.5-.5,2-3-1.5.34-1.03-2.34-2.97-.5,1-2-.5-.5-4-2.5-.5,1-.5-1-1,1.5-2-1-1.5h2l-1-2.5.5-.5h-.5l.5-1-2.5-2.5"/>
      <path data-code="ferzikovskij_rajon" data-title="ferzikovskij rajon" class="cls-1" d="M110.62,61.62h1.5l1-2,1,1v-1.5l1,.5,2.5-3,2,4,4.5-1.5,1.5,3.5h2l-1-.5,1.5-1.5,2,2.5-1,2.5h-1.5l2.5,2-2,2h1l-.5.5v1l1.5.5-1,1h-.5l1,.5-.5,1-2,1,.5,1.5h-.5v1.5l.5,1-.5-1-1,1-2-1-.5,1.5-1-.5v2l-1,.5v1h2l.5,2h-1l-.5,2.5-3.5,1.5.5,1.5-1,2-3.5-1-1-1.5h-2l-1-1.5-1.5-.5.5-2.64,1,.1,1.5-2.5,2-1-1-1.46.5-2-2-1.54.5-1.46-5.88-5.49.38-3.01h2.5l-1-1,.5-.5,1,.5v-1l.5.5v-.5l1-.5-1-2.5Z"/>
      <path data-code="iznoskovskij_rajon" data-title="iznoskovskij rajon" class="cls-1" d="M86.12,11.62l1.5.5v-1h1l2.5,1,.5-1.5h1l-.5-.5,1-.5.5-1,3,1,2.5-1.5,1,.5.5-1,1,.5,2.5-2.5.5-1h3v-1.5l1-.5-.5-2h2l-.5,2,1,2,3,1.5.5-1,3.5,3-.5.5v1.5l-4,.5,1,1.5-1.5.5-1,1,1,1-.5,1,.5.5h1.5l-.5,1.5h-2.5l-1,1.5-4.5-.5-1,1-2.5.5h3l.5,1.5-1.5,1.5,2,.5-1,.5v1.5l-1,2,3.5,2,1,1-.77,2.32-.23-.32-1,1.5h-1.5l-1-2-1-.5-.5,1v-.5l-1.5-.5.5-1.5h-1l-.5-1.5h-1.5v1l-1,1h-3l1-2-2-.5-.5-.5,1-.5-1-2-1,.5-.5-2h-2.5v-2l-2.5.5.5-1.5h-1l1.5-1.5-.5-1,.5-1-2.5-2.5.5-1v-.5h.5v-1.5"/>
      <path data-code="jukhnovskij_rajon" data-title="jukhnovskij rajon" class="cls-1" d="M80.12,11.12h2l.5-1h.5l-.5,3,1,.5.5-1h2l-1,2,2.5,2.5-.5,1,.5,1-1.5,1.5h1l-.5,1.5,2.5-.5v2h2.5l.5,2,1-.5,1,2-1,.5.5.5,2,.5-1,2h2l-.5,2-1,.5,1,1-.5.5-2.5.5-1.5,2-2,.5,2.5,2.5-.5,1h.5l-.5.5,1,2.5h-2l1,1.5-1.5,2-2.5-2.5-2,1.5-.5-1-3.57.5.57-2h-1.5l-1.5-2.5-1.5,1-1.5-.5,1.5-3.5-1.5-1,.5-2.5-1-.5,1-1.5,1.5-1-1.5-.5-1.5,1.5-.5-1,1.5-1-2-1.5v-2l1-2-.5-.5,1.5-1-2-2,1-2v-1l1-1,1,.5-.5-1,1-2v-.5l1-1,1.5-3"/>
      <path data-code="kaluga" class="cls-1" d="M97.62,57.12l3,1.5.5-2,1-.5v1l1.5-1.5,2,1,1.5-3,2.5-.5h1.5l.5,1,1.5-2,.5.5.5-.5,1,1-.5,1.5,1,1h1.5v-1h1l1,2h-1.5l-2.5,3-1-.5v1.5l-1-1-1,2h-1.5l1,2.5-1,.5v.5l-.5-.5v1l-1-.5-.5.5,1,1h-2.5l-.38,3.01-1.12-1.04-4,.04-2-2-1,.46,1,1.04-1,1.5.5.5-1.5.96v-2.96l1-.54-1-2.5,1.5-1.46-1-.5-.58-1.11,1.58.61-1-1.5.5-2-1.5-.5.5-1.5h0Z"/>
      <path data-code="khvastovichskij_rajon" data-title="khvastovichskij rajon" class="cls-1" d="M10.12,88.49h1.5v-.5l1,1,1.5-1.5.5.5,2.5-1.5.5.5,1-1.5,4.5.5.5,2h1.5l1.5-1.5-.5-.5,4-3,2,1.14,1.5-.5.5-1.5v1.5l1.5.5,1-2.5,2,1.5-1,2.5,1,3.52-.5,1,2.5.98-1,1.5-1,.52v1.98l-2,.52,1,.48-1,1.5,5-.98,1.5.98v1l-2,.02v.98l-1.5.5,1.5,2,.5-.98-.5-1,1-.5,1.5,1.5-.49,1.48-1.5.52,1.5,1.48-3,1.5-.5,1-1,1h-1l-1-.5h2l1-1-1,.5-3-2,.5,1-.5,1-3.5-.5-2.5,3-4.5-1.5-.5-1-1,2.5h-1l-1.5-1.5h1l-2-.5-1.5-2.5v-1l1-.5-1-2,1-1.5-.5-1-2.5-2.5-2-.5,1-1.5h-1.5l-4.5-4,1-1.64-.5-.5"/>
      <path data-code="kirovskij_rajon__kaluzhskaja_oblast_" data-title="kirovskij_rajon_(kaluzhskaja_oblast&amp;apos;)" class="cls-1" d="M25.62,29.12l2-.5,2,2.5-.5,1,5.5.5-1,2,1.5,1,1.5-1,3,2-1,3,2,3-.5,3,1-.5,1.5,2-1.5,1v.5l6.5,2.5-1,2.5-5,1,.5,1.5-4-1-.5-1,1-1-5-3-.5,1h-1.5l.5-2-1-1-2.5,2-1-1.5h.5v-2h-1l1,2-1-1-2,1-.5-1.5-1.5.5h.5l-.5,1-4.5-2.5.5-1,1.5-.5-.5-2,1-2-.5-1.5,1-1-1-1.5,1.5-1v-1l2-.5,1-2.5.5-2.5"/>
      <path data-code="kozel_skij_rajon" data-title="kozel&amp;apos;skij_rajon" class="cls-1" d="M58.12,77.65l2.5-1,1.5,1.48-.5-1,2-.5v-2.5l.5-.5,3.5,1-.5-.98,1-1.52-.5-2.5,1.5-1.48.5.98.5-1.48,2.5-.02-1-2,5.5-.5,1.5,1-1.5,1,2,1.5,1.5-.5,1,1.5,2-1,3.04.3.18.58-1.72.61,1,3-2-.5v.96h-1.5l.5,1.5-1.5,1.5,2.02.17,1.48,3.36-1,1h1.5l.5,1.5-1.5.5-1-1.5-.5,1,3.5,4-1,1.5-3-1-2,2-1-.5-1,1,.5,3.5-1,.5-.5-2.5-1.5-.5-.5.5h-1.5v.5h-2l-1,2.5h-2.5l-1.5-1.5-.5,1,1,3-.5,1-2.58-.11,1.58-2.39-4-2-1,1-1-4.5,1-1.5-.5-1.5-1.5-.48,1-1.52-1-2.5-3-.48v-.52l1-.48-.65-.71,2.15-1.79-.5-.5h0Z"/>
      <path data-code="kujbyshevskij_rajon__kaluzhskaja_oblast_" data-title="kujbyshevskij_rajon_(kaluzhskaja_oblast&amp;apos;)" class="cls-1" d="M1.62,24.62l2.5-2,.5,1.5,2.5.5-1-1h2l2-3.5,2.5,1.5,1-2.5,1-.5v-.5l.5-1,2,.5,2-.5v-1l1.5-.5,3.5,1.86-1.5.5-.5,2-1-.5-1,1,.5,1.5,2,1-1.5,3.5,4.5,1.5v1.14l-.5,2.5-1,2.5-2,.5v1l-1.5,1,1,1.5-1,1,.5,1.5-1,2,.5,2-1.5.5-.5,1,1,2.5-4-1.5.5,1.5-2.65,1.35-.85-.35-3-1,1-.5v-1.5l-3-1-2-4,1.5-2.5,1.5,1-1-1.5,2.5-2-2-2v-2l-3.5-2.5.5-1-3.5.5.5-2-1.5-1.5,1.5.5,1-1.5-1.5-.5"/>
      <path data-code="ljudinovskij_rajon" data-title="ljudinovskij rajon" class="cls-1" d="M15.62,47.12l4,1.5-1-2.5,4.5,2.5.5-1h-.5l1.5-.5.5,1.5,2-1,1,1-1-2h1v2h-.5l1,1.5,2.5-2,1,1-.5,2h1.5l.5-1,5,3-1,1,.5,1,3.5.88v3.12l-1,.5-1.5-1.5-1,1h-2l-1,1,1.5,1,1,2-1.5.5-1,1.5v.5l-1.03,1.13-1.47-3.63-2.5,2h-5l-1,1-1-.5-1,.5-.5-.5-1.5.5-3-2-.5.5-1.5-1,1.5-2,.5-4.5h-1.5l1-1-1-1.5,1.5-1.5,1-3-4-.5,2-1-.5-1.5"/>
      <path data-code="malojaroslaveckij_rajon" data-title="malojaroslaveckij rajon" class="cls-1" d="M118.12,35.62l2-1.5-1-.5.5-1,2-.5,3.5-5.5.5,3,2.5.5.5-.5,1,1.5,1-.5h.5l-1,1,1.5,1.5-.5,1.5h2l4,3,1-.5,1.5,1-1,.5.5,1-1,.5.5,1.5-.5,1.5-1.5.5-2,3.86-.5,4.5,2,1.5v1.5l-2.5.5,1,1.5-3,.64-1,1,1,1-1.5,1h-2l-1.5,1.5,1,.5h-2l-1.5-3.5-4.5,1.5-2-4h1.5l-1-2h-1v1h-1.5l-1-1,.5-1.5-1-1-.5.5-.5-.5-1.5,2-.5-1h-1.5l.5-1.5,1.5-1.5-.5-.5.5-1h1l2.5-4,1,.5-1.5-2,1-1-.5-1.5,1.5-1-.5-.5,1-2,1-1.5Z"/>
      <path data-code="medynskij_rajon" data-title="medynskij rajon" class="cls-1" d="M102.12,20.12l2.5-.5,1-1,4.5.5,1-1.5h2.5l.5-1.5h-1.5l-.5-.5.5-1-1-1,1-1,1.5-.5-1-1.5,4-.5v-1.5l.5-.5-1.5-1.5,1-.5-.5-1h2.5l1,2.5h1.5v1h1.5v3l1,.5-1,.5.5,1.5h2l.5,2h1l1,3.5-1,.5.5.5-.5.5-.5,1-2,1.5h1l-1,1.5-.5-.5,1,2-3.5,5.5-2,.5-.5,1,1,.5-2,1.5-2.5-1-.5,2-1-.5v-1l-.5-.5-4,1.5-2-2.5,1-3-1-1-3.5-2,1-2v-1.5l1-.5-2-.5,1.5-1.5-.5-1.5h-3"/>
      <path data-code="meshhovskij_rajon" data-title="meshhovskij rajon" class="cls-1" d="M57.62,39.12l1,.5.5-1h.5l1.5,1.5h1.5v1.5l2,.5,1-.5,1,2.5,1.5,1.5v-1l3.5-.5v-1.5l2.5-2.5,2,2,1-1,.5,1.5,1-1h.5l1.5,2.5h1.5l-1,3.5-.5-.5-1.5,1,.5.5-1,.5-1,2.5.5.5v1.5l3-.5.5,6-2,2,1.5,1.5-.5,1h-2v2.5l-1.5-1-5.5.5-2-4.5h-4l-.5-2.98-3-1.5-2.5,1,.5-.52-1-2.5.5-3-1.5-1-3,1-.5-1h1l-.5-2h1.5l.5-3-.5-1h-2l1.5-2,.46-2.18.53.18.5-1.5"/>
      <path data-code="mosal_skij_rajon" data-title="mosal&amp;apos;skij_rajon" class="cls-1" d="M57.12,12.12l3.5,2v1.5l2,.5.5,2.5,3,.5,1.5-1.5,2.5,3.5,1.5-1.5,3.5-.5-.5,3h-.5l2,2-1.5,1,.5.5-1,2v2l2,1.5-1.5,1,.5,1,1.5-1.5,1.5.5-1.5,1-1,1.5,1,.5-.5,2.5,1.5,1-1.5,3.5-2-2-2.5,2.5v1.5l-3.5.5v1l-1.5-1.5-1-2.5-1,.5-2-.5v-1.5h-1.5l-1.5-1.5h-.5l-.5,1-1-.5-.5,1.5-.53-.18-1.47-1.82,2-1.5-.5-.5.5-1h-1.5l2-1-.5-2,1-1.5-1.5-1.5h-1v1l-2-.5.5-5.5-2.5-.5-.5-2,1-1.5,2-.5v-1l3,.5,2.5-3.5-1-1,.5-1.5-2-1.5"/>
      <path data-code="obninsk" class="cls-1" d="M138.62,36.62l2-1.5,2,.5v2h1.5l-1.5,1v.5l-3.5,1.36,1,1h-1.5l-.5-1.36,1-.5-.5-1,1-.5-1-1.5Z"/>
      <path data-code="peremyshl_skij_rajon" data-title="peremyshl&amp;apos;skij_rajon" class="cls-1" d="M85.12,70.09l4.5-1.5-1-2,1-2h1v-1.5l1,.5,1-.5.5.5v-.5l3.5-1.46.92.39.58,1.11,1,.46-1.5,1.5,1,2.5-1,.5v3l1.5-1-.5-.5,1-1.5-1-1,1-.5,2,2h4l7,6.5-.5,1.5,2,1.5-.5,2,1,1.5-2,1-1.5,2.5-1-.1-1,.6-3.5-1-2.5-3h-.5l-.5,2.5-2.5-1-.5.5-.5.5-1-1-1.5.5-.5-3-1.5,1-.5-1.5h-1l-.5,1-1,1-2,.5-1.5-3.5-3-1.5v-1l.5-.5h.5l-2-.5-1,1h-1l1.5-1.5-.5-1.5h1.5v-1l2,.54-1-3.04Z"/>
      <path data-code="spas-demenskij_rajon" data-title="spas-demenskij rajon" class="cls-1" d="M20.12,8.99l2,1,1.5-2.5v1l3.5-.5-1.5-2,1.5-.5v-1l1.5.5,1.5-1h3.5v1.5l2.5.5.5,1.5h3l1,3,1.5.5-.5,1.5h2.5l-1,3.5,1,2,2,.5-1,1.5-2-.5v1.5h1l.5,1.5-.5,1v2.5h-4v.5l-1,.5v1.5l-2.5,1.5,1,.5-2.5.5-.5,1.64-5.5-.5.5-1-2-2.14-2,.5v-1.5l-4.5-1.5v-1.5l1.5-2-2-1-.5-1.5,1-1,1,.5.5-2,1.5-.5-4-2v-6.5"/>
      <path data-code="sukhinichskij_rajon" data-title="sukhinichskij rajon" class="cls-1" d="M46.63,45.12h1.5l.5-1.98,1.5-.02,1.5,2,1.5-.98-1-2.5,1.5.48v1.5h.5l-.5-1h.5v-.48l2,.48-1.5,2.02h2l.5.98-.5,3-1.5.02.5,2h-1l.5.98,3-1,1.5,1.02-.5,3,1,2.5-.5.5,2.5-1,3,1.5.5,3h4l3,6.5h-2.5l-.5,1.5-.5-1-1.5,1.5.5,2.5-1,1.5.5,1-3.5-1-.5.5v2.5l-2,.5.5,1-1.5-1.5-2.5,1,.5.5-3,2.5v1l-3.5-1-.5-1.5,1-.5-.5-.5-1.5.98v-.98l1.5-.5-.5-.52h1v-1l-1.5.5v-1l1.5-.5.5-3-1.5-1.5,1-1-.5-.48,2-.5-1-1,1-.5-2-.02,1-.98.5-1-2-.52.5-1.48v-2l1-.5-2.5-3.5,1-.5-.5-2-1.5-2.5-3.75-1.69,2.75-1.83v-.98l-2-1v-1.52h0s0,0,0,0Z"/>
      <path data-code="tarusskij_rajon" data-title="tarusskij rajon" class="cls-1" d="M130.62,58.62l1-1,2,2.36,1.5.5,1.5,3,3.5,2,1.5-2,1.5,1h4.5l.5,1.5,2,2-3,1.5-1.5,2.5-2.5.5.5,2.5-2.5,1-2,2-2.5.5-2.5,2.5-2.5-.5v-1.5l1-1-.5-1.5-1-1.5-2.47-.12.97-1.74-1-.5h.5l1-1-1.5-.5v-1l.5-.5h-1l2-2-2.5-2h1.5l1-2.5-2-2.5h2l1.5-1-1-1Z"/>
      <path data-code="ul_janovskij__rajon" data-title="ul&amp;apos;janovskij__rajon" class="cls-1" d="M38.62,83.15l4,.5,2.5-2.5,1-2,.5-.5,2,1.48,3.5-1.98.5.5-1,.5.5,1.5,3.5,1v-1l.85-.71.65.71-1,.5v.5l3,.5,1,2.5-1,1.5,1.5.5.5,1.5-1,1.5,1,4.5,1-1,4,2-2,3,.5,1.5-1.5,2,2.5,1-.5,1,1.5,2-1.5.5-3-.5-2,2-1-1,1-1-.5-1-4,2-2-1-5,3.5v-1.5l-2.5-1,1-.5.5-1-2.5-1.5.5.5h-1v.5h-1.5l-1.5-1.5,1.5-.5.5-1.5-1.5-1.5-1,.5.5,1-.5,1-1.5-2,1.5-.5v-1h2v-1l-1.5-1-5,1,1-1.5h-.5l-.5-.5,2-.5v-2l1-.5,1-1.5-2.5-1,.5-1-1-3.5,1-2.5"/>
      <path data-code="zhizdrinskij_rajon" data-title="zhizdrinskij rajon" class="cls-1" d="M17.12,63.99l3,2.14,1.5-.5.5.5,1-.5,1,.5,1-1.14h5l2.5-2,2,5.14-1,.5v3l-1,1,2,2h3l1.5,2.5v1h-1l-3,2,.5,1.36,1.5-.36-1.5,3-1.5-.5v-1.14l-.5,1.14-1.5.5-2-1.14-4,3,.5.5-1.5,1.5h-1.5l-.5-2-4.5-.5-1,1.5-.5-.5-2.5,1.5-.5-.5-1.5,1.5-1-1v.5h-1.5l.5.5-1,2-1-1,1-3-1-1,.5-2,1-.5v-3.5l2-1.5-1-.5,1.5-2.5,1,.5,1-2-.5-2,1,.5,1.5-1.5-1.5-3.5.5-.5.5-.5,1-2.5"/>
      <path data-code="zhukovskij_rajon__kaluzhskaja_oblast_" data-title="zhukovskij_rajon_(kaluzhskaja_oblast&amp;apos;)" class="cls-1" d="M136.62,43.62l1.5-.5.5-1.64h1.5l-1-1,3.5-1.36,2-2,1.5.5.5-1,1.5-1,2.69.77.3,1.59h2v-1l3.5,1-1,1.5-.5,3,1,.5-1,1.5v2.5l-.5,1,1,2-1,2-1.5-.5-.5,2,.5,3h-1v2l-1,1v2l-2,1-1.5,2h-4.5l-1.5-1-1.5,2-3.5-2-1.5-3-1.5-.5-2-2.36,3-.64-1-1.5,2.5-.5v-1.5l-2-1.5.5-4.5,2-3.86Z"/>
    </g>
</svg>