<svg xmlns="http://www.w3.org/2000/svg" viewBox="0 0 156.5 109.5">
      <path data-code="KLU-BAB" d="m78.75,47.75l1.5-1,.5.5.45-1.5,3.55-.5.5,1,2-1.5,2.5,2.5,1,1-1,.5h.5l2,.5.5,4,2,.5.5-1,2.35,2.95-.85,2.55,1.5.5-.5,2,1,1.5-2.5-1-3.5,1.5v.45l-.5-.45-1,.45-1-.5v1.5l-1,.05-1,2,1,2-2.8.9-.2-.6-3.05-.3-2,1-1-1.5-1.5.5-2-1.5,1.5-1v-2.5l2.5-1-1.5-1.5,2-2-.5-6-3,.5v-1.5l-.5-.5,1-2.5,1-.5-.45-.5"/>
      <path data-code="KLU-BAR" d="m42.75,19.1l2,.5,1-1.85,5.5,4v2l2.5.5-.5,5.5,2,.5v-1h1l1.5,1.5-1,1.5.5,2-2,1h1.5l-.5,1,.5.5-2,1.5,1.45,1.8-.45,2.2-2-.5v.5h-.5l.5,1h-.5v-1.5l-1.5-.5,1,2.5-1.5,1-1.5-2h-1.5l-.5,2h-1.5v1.5l2,1v1l-2.75,1.85-4.75-1.85v-.5l1.5-1-1.5-2-1,.5.5-3-2-3,1-3-3-2-1.5,1-1.5-1,1-2,.5-1.65,2.5-.5-1-.5,2.5-1.5v-1.5l1-.5v-.5h4v-2.5l.5-1-.5-1.5h-1v-1.5Z"/>
      <path data-code="KLU-BOR" d="m124.25,23.25l2-1.5.5-1,.5-.5-.5-.5,1.5-1.5,2,3-.5-.5-.5,3h2.5l1.5,1.5v1.5h2l-.5-.5,2.5-1,1.5-1.5,1.5.5.5-1.5.5.5.5-1h1.5v1.5h2l.5,1.5,2-1.5h3v.5l-1,.5v1.5h-.5l-1.5,1.5v1l4.5,3.5v1l-1,3-3.5-1-1.5,1-.5,1-1.5-.5-2,2v-.5l1.5-1h-1.5v-2l-2-.5-2,1.5,1,1.5-1.5-1-1,.5-4-3h-2l.5-1.5-1.5-1.5,1-1-1.5.5-1-1.5-.5.5-2.5-.5-.5-3-1-2,.5.5,1-1.5h-1"/>
      <path data-code="KLU-DUM" d="m34.75,59.75l1-1h2l1-1,1.5,1.5,1-.5v-3.1l.5.1-.5-1.5,5-1,1-2.5,2,1,1.5,2.5.5,2-1,.5,2.5,3.5-1,.5v2l-.5,1.5,2,.5-.5,1-1,1h2l-1,.5,1,1-2,.5.5.5-1,1,1.5,1.5-.5,3-1.5.5v1l1.5-.5v1h-1l.5.5-1.5.5v1l-2,1-2.5-1-1,2-2.5,2.5-4-.5-2-1.5.5-.5-1.5.35-.5-1.35,3-2h1v-1l-1.5-2.5h-3l-2-2,1-1v-3l1-.5-.55-1.35,1.05-1.15v-.5l1-1.5,1.5-.5-1-2-1.5-1"/>
      <path data-code="KLU-DZE" d="m89.25,37.25l2-.5,1.5-2,2.5-.5.5-.5-1-1,1-.5.5-2h1l1-1v-1h1.5l.5,1.5h1l-.5,1.5,1.5.5.5-.5,1,.5,1,2h1.5l1-1.5,2,3.5,4-1.5.5.5v1l1,.5.5-2,2.5,1-1,1.5-1,2,.5.5-1.5,1,.5,1.5-1,1,1.5,2-1-.5-2.5,4h-1l-.5,1,.5.5-1.5,1.5-.5,1.5-2.5.5-1.5,3-2-1-1.5,1.5v-1l-1,.5-.5,2-3-1.5.35-1.05-2.35-2.95-.5,1-2-.5-.5-4-2.5-.5,1-.5-1-1,1.5-2-1-1.5h2l-1-2.5.5-.5h-.5l.5-1-2.5-2.5"/>
      <path data-code="KLU-FER" d="m110.25,61.25h1.5l1-2,1,1v-1.5l1,.5,2.5-3,2,4,4.5-1.5,1.5,3.5h2l-1-.5,1.5-1.5,2,2.5-1,2.5h-1.5l2.5,2-2,2h1l-.5.5v1l1.5.5-1,1h-.5l1,.5-.5,1-2,1,.5,1.5h-.5v1.5l.5,1-.5-1-1,1-2-1-.5,1.5-1-.5v2l-1,.5v1h2l.5,2h-1l-.5,2.5-3.5,1.5.5,1.5-1,2-3.5-1-1-1.5h-2l-1-1.5-1.5-.5.5-2.65,1,.1,1.5-2.5,2-1-1-1.45.5-2-2-1.55.5-1.45-5.9-5.5.4-3h2.5l-1-1,.5-.5,1,.5v-1l.5.5v-.5l1-.5-1-2.5Z"/>
      <path data-code="KLU-IZN" d="m85.75,11.25l1.5.5v-1h1l2.5,1,.5-1.5h1l-.5-.5,1-.5.5-1,3,1,2.5-1.5,1,.5.5-1,1,.5,2.5-2.5.5-1h3v-1.5l1-.5-.5-2h2l-.5,2,1,2,3,1.5.5-1,3.5,3-.5.5v1.5l-4,.5,1,1.5-1.5.5-1,1,1,1-.5,1,.5.5h1.5l-.5,1.5h-2.5l-1,1.5-4.5-.5-1,1-2.5.5h3l.5,1.5-1.5,1.5,2,.5-1,.5v1.5l-1,2,3.5,2,1,1-.75,2.3-.25-.3-1,1.5h-1.5l-1-2-1-.5-.5,1v-.5l-1.5-.5.5-1.5h-1l-.5-1.5h-1.5v1l-1,1h-3l1-2-2-.5-.5-.5,1-.5-1-2-1,.5-.5-2h-2.5v-2l-2.5.5.5-1.5h-1l1.5-1.5-.5-1,.5-1-2.5-2.5.5-1v-.5h.5v-1.5"/>
      <path data-code="KLU-YUK" d="m79.75,10.75h2l.5-1h.5l-.5,3,1,.5.5-1h2l-1,2,2.5,2.5-.5,1,.5,1-1.5,1.5h1l-.5,1.5,2.5-.5v2h2.5l.5,2,1-.5,1,2-1,.5.5.5,2,.5-1,2h2l-.5,2-1,.5,1,1-.5.5-2.5.5-1.5,2-2,.5,2.5,2.5-.5,1h.5l-.5.5,1,2.5h-2l1,1.5-1.5,2-2.5-2.5-2,1.5-.5-1-3.55.5.55-2h-1.5l-1.5-2.5-1.5,1-1.5-.5,1.5-3.5-1.5-1,.5-2.5-1-.5,1-1.5,1.5-1-1.5-.5-1.5,1.5-.5-1,1.5-1-2-1.5v-2l1-2-.5-.5,1.5-1-2-2,1-2v-1l1-1,1,.5-.5-1,1-2v-.5l1-1,1.5-3"/>
      <path data-code="KLU-KAL" d="m97.25,56.75l3,1.5.5-2,1-.5v1l1.5-1.5,2,1,1.5-3,2.5-.5h1.5l.5,1,1.5-2,.5.5.5-.5,1,1-.5,1.5,1,1h1.5v-1h1l1,2h-1.5l-2.5,3-1-.5v1.5l-1-1-1,2h-1.5l1,2.5-1,.5v.5l-.5-.5v1l-1-.5-.5.5,1,1h-2.5l-.4,3-1.1-1.05-4,.05-2-2-1,.45,1,1.05-1,1.5.5.5-1.5.95v-2.95l1-.55-1-2.5,1.5-1.45-1-.5-.6-1.1,1.6.6-1-1.5.5-2-1.5-.5.5-1.5h0Z"/>
      <path data-code="KLU-KHV" d="m9.75,88.1h1.5v-.5l1,1,1.5-1.5.5.5,2.5-1.5.5.5,1-1.5,4.5.5.5,2h1.5l1.5-1.5-.5-.5,4-3,2,1.15,1.5-.5.5-1.5v1.5l1.5.5,1-2.5,2,1.5-1,2.5,1,3.5-.5,1,2.5,1-1,1.5-1,.5v2l-2,.5,1,.5-1,1.5,5-1,1.5,1v1h-2v1l-1.5.5,1.5,2,.5-1-.5-1,1-.5,1.5,1.5-.5,1.5-1.5.5,1.5,1.5-3,1.5-.5,1-1,1h-1l-1-.5h2l1-1-1,.5-3-2,.5,1-.5,1-3.5-.5-2.5,3-4.5-1.5-.5-1-1,2.5h-1l-1.5-1.5h1l-2-.5-1.5-2.5v-1l1-.5-1-2,1-1.5-.5-1-2.5-2.5-2-.5,1-1.5h-1.5l-4.5-4,1-1.65-.5-.5"/>
      <path data-code="KLU-KIR" d="m25.25,28.75l2-.5,2,2.5-.5,1,5.5.5-1,2,1.5,1,1.5-1,3,2-1,3,2,3-.5,3,1-.5,1.5,2-1.5,1v.5l6.5,2.5-1,2.5-5,1,.5,1.5-4-1-.5-1,1-1-5-3-.5,1h-1.5l.5-2-1-1-2.5,2-1-1.5h.5v-2h-1l1,2-1-1-2,1-.5-1.5-1.5.5h.5l-.5,1-4.5-2.5.5-1,1.5-.5-.5-2,1-2-.5-1.5,1-1-1-1.5,1.5-1v-1l2-.5,1-2.5.5-2.5"/>
      <path data-code="KLU-KOZ" d="m57.75,77.25l2.5-1,1.5,1.5-.5-1,2-.5v-2.5l.5-.5,3.5,1-.5-1,1-1.5-.5-2.5,1.5-1.5.5,1,.5-1.5h2.5l-1-2,5.5-.5,1.5,1-1.5,1,2,1.5,1.5-.5,1,1.5,2-1,3.05.3.2.6-1.7.6,1,3-2-.5v.95h-1.5l.5,1.5-1.5,1.5,2,.15,1.5,3.35-1,1h1.5l.5,1.5-1.5.5-1-1.5-.5,1,3.5,4-1,1.5-3-1-2,2-1-.5-1,1,.5,3.5-1,.5-.5-2.5-1.5-.5-.5.5h-1.5v.5h-2l-1,2.5h-2.5l-1.5-1.5-.5,1,1,3-.5,1-2.6-.1,1.6-2.4-4-2-1,1-1-4.5,1-1.5-.5-1.5-1.5-.5,1-1.5-1-2.5-3-.5v-.5l1-.5-.65-.7,2.15-1.8-.55-.45h0Z"/>
      <path data-code="KLU-KUJ" d="m1.25,24.25l2.5-2,.5,1.5,2.5.5-1-1h2l2-3.5,2.5,1.5,1-2.5,1-.5v-.5l.5-1,2,.5,2-.5v-1l1.5-.5,3.5,1.85-1.5.5-.5,2-1-.5-1,1,.5,1.5,2,1-1.5,3.5,4.5,1.5v1.15l-.5,2.5-1,2.5-2,.5v1l-1.5,1,1,1.5-1,1,.5,1.5-1,2,.5,2-1.5.5-.5,1,1,2.5-4-1.5.5,1.5-2.65,1.35-.85-.35-3-1,1-.5v-1.5l-3-1-2-4,1.5-2.5,1.5,1-1-1.5,2.5-2-2-2v-2l-3.5-2.5.5-1-3.5.5.5-2-1.5-1.5,1.5.5,1-1.5-1.5-.5"/>
      <path data-code="KLU-LYU" d="m15.25,46.75l4,1.5-1-2.5,4.5,2.5.5-1h-.5l1.5-.5.5,1.5,2-1,1,1-1-2h1v2h-.5l1,1.5,2.5-2,1,1-.5,2h1.5l.5-1,5,3-1,1,.5,1,3.5.9v3.1l-1,.5-1.5-1.5-1,1h-2l-1,1,1.5,1,1,2-1.5.5-1,1.5v.5l-1.05,1.15-1.45-3.65-2.5,2h-5l-1,1-1-.5-1,.5-.5-.5-1.5.5-3-2-.5.5-1.5-1,1.5-2,.5-4.5h-1.5l1-1-1-1.5,1.5-1.5,1-3-4-.5,2-1-.5-1.5"/>
      <path data-code="KLU-MAL" d="m117.75,35.25l2-1.5-1-.5.5-1,2-.5,3.5-5.5.5,3,2.5.5.5-.5,1,1.5,1-.5h.5l-1,1,1.5,1.5-.5,1.5h2l4,3,1-.5,1.5,1-1,.5.5,1-1,.5.5,1.5-.5,1.5-1.5.5-2,3.85-.5,4.5,2,1.5v1.5l-2.5.5,1,1.5-3,.65-1,1,1,1-1.5,1h-2l-1.5,1.5,1,.5h-2l-1.5-3.5-4.5,1.5-2-4h1.5l-1-2h-1v1h-1.5l-1-1,.5-1.5-1-1-.5.5-.5-.5-1.5,2-.5-1h-1.5l.5-1.5,1.5-1.5-.5-.5.5-1h1l2.5-4,1,.5-1.5-2,1-1-.5-1.5,1.5-1-.5-.5,1-2,1-1.5Z"/>
      <path data-code="KLU-MED" d="m101.75,19.75l2.5-.5,1-1,4.5.5,1-1.5h2.5l.5-1.5h-1.5l-.5-.5.5-1-1-1,1-1,1.5-.5-1-1.5,4-.5v-1.5l.5-.5-1.5-1.5,1-.5-.5-1h2.5l1,2.5h1.5v1h1.5v3l1,.5-1,.5.5,1.5h2l.5,2h1l1,3.5-1,.5.5.5-.5.5-.5,1-2,1.5h1l-1,1.5-.5-.5,1,2-3.5,5.5-2,.5-.5,1,1,.5-2,1.5-2.5-1-.5,2-1-.5v-1l-.5-.5-4,1.5-2-2.5,1-3-1-1-3.5-2,1-2v-1.5l1-.5-2-.5,1.5-1.5-.5-1.5h-3"/>
      <path data-code="KLU-MES" d="m57.25,38.75l1,.5.5-1h.5l1.5,1.5h1.5v1.5l2,.5,1-.5,1,2.5,1.5,1.5v-1l3.5-.5v-1.5l2.5-2.5,2,2,1-1,.5,1.5,1-1h.5l1.5,2.5h1.5l-1,3.5-.5-.5-1.5,1,.5.5-1,.5-1,2.5.5.5v1.5l3-.5.5,6-2,2,1.5,1.5-.5,1h-2v2.5l-1.5-1-5.5.5-2-4.5h-4l-.5-3-3-1.5-2.5,1,.5-.5-1-2.5.5-3-1.5-1-3,1-.5-1h1l-.5-2h1.5l.5-3-.5-1h-2l1.5-2,.45-2.2.55.2.5-1.5"/>
      <path data-code="KLU-MOS" d="m56.75,11.75l3.5,2v1.5l2,.5.5,2.5,3,.5,1.5-1.5,2.5,3.5,1.5-1.5,3.5-.5-.5,3h-.5l2,2-1.5,1,.5.5-1,2v2l2,1.5-1.5,1,.5,1,1.5-1.5,1.5.5-1.5,1-1,1.5,1,.5-.5,2.5,1.5,1-1.5,3.5-2-2-2.5,2.5v1.5l-3.5.5v1l-1.5-1.5-1-2.5-1,.5-2-.5v-1.5h-1.5l-1.5-1.5h-.5l-.5,1-1-.5-.5,1.5-.55-.2-1.45-1.8,2-1.5-.5-.5.5-1h-1.5l2-1-.5-2,1-1.5-1.5-1.5h-1v1l-2-.5.5-5.5-2.5-.5-.5-2,1-1.5,2-.5v-1l3,.5,2.5-3.5-1-1,.5-1.5-2-1.5"/>
      <path data-code="KLU-OBN" d="m138.25,36.25l2-1.5,2,.5v2h1.5l-1.5,1v.5l-3.5,1.35,1,1h-1.5l-.5-1.35,1-.5-.5-1,1-.5-1-1.5Z"/>
      <path data-code="KLU-PER" d="m84.75,69.7l4.5-1.5-1-2,1-2h1v-1.5l1,.5,1-.5.5.5v-.5l3.5-1.45.9.4.6,1.1,1,.45-1.5,1.5,1,2.5-1,.5v3l1.5-1-.5-.5,1-1.5-1-1,1-.5,2,2h4l7,6.5-.5,1.5,2,1.5-.5,2,1,1.5-2,1-1.5,2.5-1-.1-1,.6-3.5-1-2.5-3h-.5l-.5,2.5-2.5-1-.5.5-.5.5-1-1-1.5.5-.5-3-1.5,1-.5-1.5h-1l-.5,1-1,1-2,.5-1.5-3.5-3-1.5v-1l.5-.5h.5l-2-.5-1,1h-1l1.5-1.5-.5-1.5h1.5v-1l2,.55-1-3.05Z"/>
      <path data-code="KLU-SPA" d="m19.75,8.6l2,1,1.5-2.5v1l3.5-.5-1.5-2,1.5-.5v-1l1.5.5,1.5-1h3.5v1.5l2.5.5.5,1.5h3l1,3,1.5.5-.5,1.5h2.5l-1,3.5,1,2,2,.5-1,1.5-2-.5v1.5h1l.5,1.5-.5,1v2.5h-4v.5l-1,.5v1.5l-2.5,1.5,1,.5-2.5.5-.5,1.65-5.5-.5.5-1-2-2.15-2,.5v-1.5l-4.5-1.5v-1.5l1.5-2-2-1-.5-1.5,1-1,1,.5.5-2,1.5-.5-4-2v-6.5"/>
      <path data-code="KLU-SUK" d="m46.25,44.75h1.5l.5-2h1.5l1.5,2,1.5-1-1-2.5,1.5.5v1.5h.5l-.5-1h.5v-.5l2,.5-1.5,2h2l.5,1-.5,3h-1.5l.5,2h-1l.5,1,3-1,1.5,1-.5,3,1,2.5-.5.5,2.5-1,3,1.5.5,3h4l3,6.5h-2.5l-.5,1.5-.5-1-1.5,1.5.5,2.5-1,1.5.5,1-3.5-1-.5.5v2.5l-2,.5.5,1-1.5-1.5-2.5,1,.5.5-3,2.5v1l-3.5-1-.5-1.5,1-.5-.5-.5-1.5,1v-1l1.5-.5-.5-.5h1v-1l-1.5.5v-1l1.5-.5.5-3-1.5-1.5,1-1-.5-.5,2-.5-1-1,1-.5h-2l1-1,.5-1-2-.5.5-1.5v-2l1-.5-2.5-3.5,1-.5-.5-2-1.5-2.5-3.75-1.7,2.75-1.85v-1l-2-1v-1.45h0Z"/>
      <path data-code="KLU-TAR" d="m130.25,58.25l1-1,2,2.35,1.5.5,1.5,3,3.5,2,1.5-2,1.5,1h4.5l.5,1.5,2,2-3,1.5-1.5,2.5-2.5.5.5,2.5-2.5,1-2,2-2.5.5-2.5,2.5-2.5-.5v-1.5l1-1-.5-1.5-1-1.5-2.45-.1.95-1.75-1-.5h.5l1-1-1.5-.5v-1l.5-.5h-1l2-2-2.5-2h1.5l1-2.5-2-2.5h2l1.5-1-1-1Z"/>
      <path data-code="KLU-ULM" d="m38.25,82.75l4,.5,2.5-2.5,1-2,.5-.5,2,1.5,3.5-2,.5.5-1,.5.5,1.5,3.5,1v-1l.85-.7.65.7-1,.5v.5l3,.5,1,2.5-1,1.5,1.5.5.5,1.5-1,1.5,1,4.5,1-1,4,2-2,3,.5,1.5-1.5,2,2.5,1-.5,1,1.5,2-1.5.5-3-.5-2,2-1-1,1-1-.5-1-4,2-2-1-5,3.5v-1.5l-2.5-1,1-.5.5-1-2.5-1.5.5.5h-1v.5h-1.5l-1.5-1.5,1.5-.5.5-1.5-1.5-1.5-1,.5.5,1-.5,1-1.5-2,1.5-.5v-1h2v-1l-1.5-1-5,1,1-1.5h-.5l-.5-.5,2-.5v-2l1-.5,1-1.5-2.5-1,.5-1-1-3.5,1-2.5"/>
      <path data-code="KLU-ZHI" d="m16.75,63.6l3,2.15,1.5-.5.5.5,1-.5,1,.5,1-1.15h5l2.5-2,2,5.15-1,.5v3l-1,1,2,2h3l1.5,2.5v1h-1l-3,2,.5,1.35,1.5-.35-1.5,3-1.5-.5v-1.15l-.5,1.15-1.5.5-2-1.15-4,3,.5.5-1.5,1.5h-1.5l-.5-2-4.5-.5-1,1.5-.5-.5-2.5,1.5-.5-.5-1.5,1.5-1-1v.5h-1.5l.5.5-1,2-1-1,1-3-1-1,.5-2,1-.5v-3.5l2-1.5-1-.5,1.5-2.5,1,.5,1-2-.5-2,1,.5,1.5-1.5-1.5-3.5.5-.5.5-.5,1-2.5"/>
      <path data-code="KLU-ZHU" d="m136.25,43.25l1.5-.5.5-1.65h1.5l-1-1,3.5-1.35,2-2,1.5.5.5-1,1.5-1,2.7.75.3,1.6h2v-1l3.5,1-1,1.5-.5,3,1,.5-1,1.5v2.5l-.5,1,1,2-1,2-1.5-.5-.5,2,.5,3h-1v2l-1,1v2l-2,1-1.5,2h-4.5l-1.5-1-1.5,2-3.5-2-1.5-3-1.5-.5-2-2.35,3-.65-1-1.5,2.5-.5v-1.5l-2-1.5.5-4.5,2-3.85Z"/>
</svg>