<svg xmlns="http://www.w3.org/2000/svg" viewBox="0 0 133 132">
      <path data-code="LIP-CHA" d="m115.25,24.75l1.5-1,1.5-2.5,1-1v-1.5l1.5,1h8l-.5.5-.5,1.5,2.5,1v1.5l1,.5-1,1.5,1,1.5-1,3-2.5,1.5,2.5,1-1.5,2.5,1.5.5v2l2.5,1v.5h-1l-.5,1v.5l1.5-.5-1,3-2,1.5h-3l-1.5,3h-1l.5,1-1,3v-.5l-.5,1-.5.5v1l-1.5,1.5-1,3.5-2.5,1h-2l.5,2.5-3.5-.5v-2.5l-1,1,1.5-4-1-.5,1-2-5.5-7.5-2-.5,1-2-1-3,3,2,2.5-1,.5.5,1.5-1,.5-1.5.5-.5-.5-.5h2l1.5-1.5-1-1,.5-2,1-.5,1,1,.5-1v1.5l1.5-.5.5.5,1-2.5-.5-2-1.5-.5.5.5h-1.5l-.5-1-1,.5-2-1.5v-.5h.5l.5-1-2-2,.5-1"/>
      <path data-code="LIP-DAN" d="m78.25,9.25l1.5-1h3.5l1,1.5,1.5-.5,2,2,2-2.5.5-3.5,1-1,1.5-.5-.5-2,1.5-1.5,5,1.5v2h.5l2-2,1,2,3.5,1,.5,2-1.5,3,.5,2-1,2-1,.5,1,1-1,.5-.5,3,.5.5.5-1,.5,1,3,1v1.5h1.5l.8,1.85-.8,1.15h-1.5l-1,1.5h-2.5l-2.5,2.5-1.5.5v1.5l-1.5-.5-1,1.5-3,.5-4-.5v1l-1.5.5v1h-1.5l.5-3-2,.5-.5-1-1.5,1.5-4-6v-1.5l-2.5-1.5,1-1.5-3-1,.5-1.5-1.5-1,1-1.5,1,.5,2-.5v-2l1-.5-1.5-2,.5-1v-.5l1-.5-1-1"/>
      <path data-code="LIP-DOB" d="m83.75,104.25l2-1,1-1.5,1.5.5,2.5-2.5h3v-1l2-.5,2-2h.5l1-1.5,3,3-.5,1-1-1-1.5,1.5-.5,1.5,1.5,2-.5,1,.5.5,4,3.5-1,1,2,1.5-2,5,1.5-1,2,1,.5,3.5-1,1.5.5,2h-1l-.5-3.5-1,1.5v1l-3-.5.5,1h-1l-.5,1.5-.5-1-2,2-.5-1,.5,1.5h-1l1,1-2,1.5,1,1-.5,1-4.5-1-2.5,3.5h-1.5l-.5-2.5-2.5-.5-1-2-1-.5-1.5,1h-.5l1-.5-1.5-3-3-2,1-3,3.5-3v-2l-.5-1.5h1l.5-2,1-2-.5-1.5.5-2.5"/>
      <path data-code="LIP-DOBR" d="m87.75,53.75l3-1.5h2.5l1-.5-.5-.5,1.5,1,1-5,1.5-.5v-.5l2-.5,4.5,2,1.5-1.5,2,.5,5.5,7.5-1,2,1,.5-1.5,4,1-1v2.5l1.5-.5,2,1.5-1,.5v.5l-.5,1-1.5-1.5-1,1h-1.5l-.5,1,1,2.5-3,4.5-1,.5-.5-.5-.5,2h-1v-2l-.5,1.5-1.5.5-1.5-2v1l-1-.5-2,1-2-3.5h-1v1h-2l1-1-1-2.5,1.5-1v-1h-1l-3-4.5,2-1-.5-.5,1.5-1.5-3.5-2h-4l1-3"/>
      <path data-code="LIP-DOL" d="m23.75,49.25l2.5-2.5,1.5.5,2.5,3.5,2.5-3.5,2.5.5,1,2,4.5,1-3.5,2.5,3,7,1.5-1,1.5,1.5,1.5-1,1,1-1,1.5,1,2-2,.5.5,2.35-1,1.5.5,1-.5,1.5-2,1,1,1-3,1-.5-.5h-3.5l-1-2.5-3,1-1.5-3v-1l1-.5v-1l-2-1.5-1.5-3.5-2,.5-1,2.5-1-.5.5-1-1-.5,3-6.5-.5-.5-1.5,1.5-1.2-.6.7-2.25h1l-1-2.5.5-2.5"/>
      <path data-code="LIP-ELE" d="m48.25,45.25l3.5,1v2.5l1,.5,1-1.5.5.5-.5,1.5-2.5,1-1.5-1.5-3,.5,2-3.5-.5-1"/>
      <path data-code="LIP-ELEM" d="m48.25,45.25l.5,1-2,3.5,3-.5,1.5,1.5,2.5-1,.5-1.5-.5-.5-1,1.5-1-.5v-2.5l-3.5-1m-10.5-6h1.5l.5-1,2-.5,1.5,1v-1l3.5,4.35-1,1h2v-1l2,.5,2-1,4.5,2,2-.5,1.05-1.1.95,1.25h4l-1.5,3,3.5,5.5-1.5,4.35-5.5-1.5v2.5l-2.5-.5,1,2.5-2,1.5.5,1h-1l-1.5-4v.5l-1.5,1-1-.5-2.5,4.5-2-.5-1,1.65-1-2,1-1.5-1-1-1.5,1-1.5-1.5-1.5,1-3-7,3.5-2.5-4.5-1-1-2,2.5-3,3,1,.5-1.5h1l-3.5-3-1-2"/>
      <path data-code="LIP-GRY" d="m69.25,82.25l1.5-.5,2,2h-1.5l3.5.5v-2l2-1h-1l-.5-.5,2.5-1,1,1,.5-3,2.5,2h5l-1.5,1v1.5l1.5-.5-.5,2,1-.5-.5-3,1,2,1.5-1-.5-2-.5,1-1-.5v-2.5l-.5-1,1-3v1.5l2-1-.5-1,1.5.5,2,2v-1l1-.5-.5-1-1.5.5-.5-1,1.5-.5-.5-2,1,.5-1-1.5h1.7l.8,2-1,1h2v-1h1l3,4h-1l1,3.5-2-.5-1.5,4,2,2-1.5,1v1.5l1-.5,1,2.5.5-.5v4l1.5,1-1.7,2.25-.8,1.25h-.5l-2,2-2,.5v1l-3.5.5-2,2-.5-2-3-.5v-2.5l-2.5-.5-1.5-2.5,1.5-1-.5-1-11-5.5-1.5.5-1-2.5,1.5-1.5-.5-1"/>
      <path data-code="LIP-IZM" d="m24.25,30.75l4.5.5,1-1-1-1h1.5l1-2.5h4l2-2,1-2.5-1.5-1.5.5-2.5h3.5l-.5-1,3-.65.5,2,1.5,1.5-.5,3,2,3-3-.5.5,1-1.5,1v1.5l-1.5,1,.5,1-.5,3.5,3.5-.5.5,3-2,.65v1l-1.5-1-2,.5-.5,1h-1.5l1,2,3.5,3h-1l-.5,1.5-3-1-2.5,3-2.5-.5-2.5,3.5-2.5-3.5-1.5-.5-1.5,1.5h-1.5l-.5-4.5,2,1,1-1.5-3.5-5,2-.5v-.5l1.5.5.5-1.5h-1l.5-2h-.5v-1.5l-1-2"/>
      <path data-code="LIP-KHL" d="m40.25,81.25l7.5-1.15,2.5,1,.5-4,1-.5,1,2,1.5-1,4,2,2.85-.7.15.85h1.5l2,2-2,2,3,.5.5,3.5-1-.65-1.5,1.5-2-1,.5,1.65-1,2.35v1l-4,2-.6,2.35-2.9-2.25-2.5.5-1-2-1-.5v2l-3.5-1-1.5,3.5h-1.5l-2-1.5.15-8.95-.65-5.5"/>
      <path data-code="LIP-KRA" d="m66.7,27.1l1.55-1.85,3,1,.5-2,1.5-.5,4,5-.5.5,1.5.5-1,2,.5,3.5-2,1,1.5,4h-1l-1,1.5,1.5,2-1,2.5-1.5-.5v2.5l-1.6,1.05-.9-1.55-3,3-1-.5-1.5,1.5-3.5-5.5,1.5-3h-4l-2-2.65,1-1-1.5-1.5,2.5-2-1-.5,1-1h3.5l-.5-4,1-1.5v-2h2.45Z"/>
      <path data-code="LIP-LEB" d="m73.25,23.75l3.05-2.65,1.95.65-1,1.5,2.5,1.5v1.5l4,6,1.5-1.5.5,1,2-.5-.5,3h1.5v-1l1.5-.5v-1l4,.5,2.5,2.5-.5,1.5v3l2,2,.5-1h2l2,2-3,3.5-2,.5v.5l-1.5.5-1,5-1.5-1,.5.5-1,.5h-2.5l-3,1.5-1,3-4-3-2,2.5-3-1-1-1-1,1-3.1-5.95,1.6-1.05v-2.5l1.5.5,1-2.5-1.5-2,1-1.5h1l-1.5-4,2-1-.5-3.5,1-2-1.5-.5.5-.5-4-5"/>
      <path data-code="LIP-LEV" d="m94.25,32.25l3-.5,1-1.5,1.5.5v-1.5l1.5-.5,2.5-2.5h2.5l1-1.5h1.5l1-1.5-1-.5h2.5l.5,1,1.5-1.5,1.5,1v2.5l2,2-.5,1h-.5v.5l2,1.5,1-.5.5,1h1.5l-.5-.5,1.5.5.5,2-1,2.5-.5-.5-1.5.5v-1.5l-.5,1-1-1-1,.5-.5,2,1,1-1.5,1.5h-2l.5.5-.5.5-.5,1.5-1.5,1-.5-.5-2.5,1-3-2,1,3-1,2-1.5,1.5-4.5-2,3-3.5-2-2h-2l-.5,1-2-2v-3l.5-1.5-2.5-2.5"/>
      <path data-code="LIP-LIP" d="m77.75,69.75l1.5-2,1,.5,1-2.5,1,1.5,1.5-.5v-1l4.5-1-1,1,1.5,3-1,.5,1,2.5,1-1,1,1-.5-2,.5.5.5-1,1-.5,1,1.5-1-.5.5,2-1.5.5.5,1,1.5-.5.5,1-1,.5v1l-2-2-1.5-.5-1.5.5-1,3,.5,1v2.5l1,.5.5-1,.5,2-1.5,1-1-2,.5,3-1,.5.5-2-1.5.5v-1.5l1.5-1h-5l-2.5-2,2-3.5v-1h-2.5l-1-3.5"/>
      <path data-code="LIP-LIPM" d="m87.75,73.25l1.5-.5.5,1-2,1v-1.5m-19.5-16.65h1l1-1.5h2.5l-.15-3.5,1.5.5,1.65,3.1,1-1,1,1,3,1,2-2.5,4.5,3h3.5l3.5,2-1.5,1.5.5.5-2,1,3,4.5h1v1l-1.5,1,.2.5h-1.7l-1,.5-.5,1-.5-.5.5,2-1-1-1,1-1-2.5,1-.5-1.5-3,1-1-4.5,1v1l-1.5.5-1-1.5-1,2.5-1-.5-1.5,2,1,3.5h2.5v1l-2,3.5-.5,3-1-1-2.5,1,1.5.5-2,1v2l-3.5-.5h1.5l-2-2-1.5.5.5,1-2,2,.5,1-1,2-1-.5-.5-3.5-3-.5,2-2-2-2h-1.5l-.5-3h1l-.5-.5.5-2.5,2-2-.5-.5,1.5.5,1.5-2.5.5.5-1.5-1.5,1-1v-2l2-.5,4,1.5.5-3-4-1.5,2-.5.5-1.5-2-1-.5.5-.5-1,1-1-1-.6"/>
      <path data-code="LIP-STA" d="m41.75,13.6l3-1.5,1-1,.5.5,3-2,3,3.5,3,1-1,2,1.5-.5.5,4.5,2-.5,1,2-2,3.5h1.5l2-1.5,3.5,1,2-1.5v3.5l-.5.5h-1.5v2l-1,1.5.5,4h-3.5l-1,1,1,.5-2.5,2,1.5,1.5-1,1,1.05,1.4-1.05,1.1-2,.5-4.5-2-2,1-2-.5v1h-2l1-1-3.5-4.35,2-.65-.5-3-3.5.5.5-3.5-.5-1,1.5-1v-1.5l1.5-1-.5-1,3,.5-2-3,.5-3-1.5-1.5-.5-2-3,1,.5-2,1-.5v-1.5"/>
      <path data-code="LIP-TER" d="m15.75,61.1l5.5-3.5-1-1.5h2l1.5,1,1.5-1.5.5.5-3,6.5,1,.5-.5,1,1,.5,1-2.5,2-.5,1.5,3.5,2,1.5v1l-1,.5v1l1.5,3,3-1,1,2.5h3.5l-1.5,2.5,3,2-2,2.5,2,.65.8,4.75-2.8-.4-2,1,.5,1-1.5.5-1-2,1-4h-1.5l-.5,1.5-2.5.5-2-3-4,.5-3.5-1-.5,1-4.7-1.35-2.8-3.15-.5-3,1.5-1-1-1,1-1,2.5.5-2-2.5.5-.5v-2l1,.5v-1.5h1l-.5-.5,1-.5-2.5-2,1-1-.5-.5"/>
      <path data-code="LIP-USM" d="m61.75,87.6l2,1,.5-1,1-.5,2,1,1-1.85-.5-1,.5-.5,1,2.5,1.5-.5,11,5.5.5,1-1.5,1,1.5,2.5,2.5.5v2.5l3,.5.5,2-1.5-.5-1,1.5-2,1-.45,2.35.45,1.65-1,2-.5,2h-1l.5,1.5v2l-4,4.35-2-1-.5,1.5h-2l-3.5-3.5.5-1-2,1v.5l-3,.5-1-2.5-1.5.5-7-9.5,2-1.5h1l.5-4-4-4,1.5-.5.5-2,4-2v-1l1-2.5-.5-1.5"/>
      <path data-code="LIP-VOL" d="m.75,64.6h1l1-2,1,.5v-1l1-1.5,1,.5.5-1h1l.5-1.5-.5-1.5,2,.5,2.5-1.5,1.5,1,1-1,4,1,.5,1.5h1l-4,2.5.5.5-1,1,2.5,2-1,.5.5.5h-1v1.5l-1-.5v2l-.5.5,2,2.5-2.5-.5-1,1,1,1-1.5,1,.5,3,3,3-3,1.5-1.5-1.5-.5.5v-1l-1.5-1h-.5l-.5,1-2.5-1-.5,1-4-3.5.5-1.5-1,.5-1-1.5,1.5-4.5-1-4.5"/>
      <path data-code="LIP-ZAD" d="m43.75,64.75l2-.5,1-1.65,2,.5,2.5-4.5,1,.5,1.5-1v-.5l1.5,4h1l-.5-1,2-1.5-1-2.5,2.5.5v-2.5l5.5,1.5,1.5-4.35,1.5-1.5,1,.5,3-3,2.35,4.4-1.5-.5.15,3.5h-2.5l-1,1.5h-1l1,.65-1,1,.5,1,.5-.5,2,1-.5,1.5-2,.5,4,1.5-.5,3-4-1.5-2,.5v2l-1,1,1,1-1.5,2.5-1.5-.5.5.5-2,2-.5,2.5.5.5h-1l.35,2.15-2.85.7-4-2-1.5,1-1-2-1,.5-.5,4-2.5-1-8.5,1.5-1-1,2-2.5-3-2,1.5-2.5.5.5,3-1-1-1,2-1,.5-1.5-.5-1,1-1.5-.5-2.4"/>
</svg>