<svg xmlns="http://www.w3.org/2000/svg" viewBox="0 0 305.41 238.15">
      <path data-code="LEN-BOK" d="m171.16,196.4l5-5h4.5l1-1.5-1.5-2,2.5-3.5,2-.5,3,2,7.5-8,4.5,2,3,3-3,4.5,8.5,8.5-1,1.5,2,1.5v1.5l1.5-.5,6-6.5,4.5,3,.5-1.5,3,1,1-2,1-.5,2,.5,2-1.5h4l2-3-1.5-1,1-1-1-1.5,1-.5,1,1.5h1.5l.5-2-.5-1.5,2-2,2.5,1.5-.5,2-1,1,1.5,1.5-2,2-1.5-.5-.5,1.5,2,2-1,1,3.5,3.5-.5.5,1,1-1,1,3.5,2.5-2.5,3.5-4.5,2-5,8.5v1.5l5,3-4.5,5-1-4-5,6.5-.5-1.5h-2l1.5,2v1.5l-4.5-5-1.5,2,1,2-.5,2.5h-1l1.5,1.5-1.5.5,1,.5-5,.5-.5-1-1.5.5,1.5,4-4.5-2-2.5-.5-1.5,1.5-1.5-.5-3-2.5-2.5.5-1-.5v-1.5l-.5,1.5-2-1.5-2.5,2.5-2,2-.5-.5-3,1-1-.5.5-.5-1-3-3-1.5-1-5-1,.5.5-5-1.5.5v.5l-1.5-1v-2l-.5-.5-2,1.5-.5-1.5-2-.5-1,1.5h-1l-1-2-.5-4v-1l1.5-2-2,1-3-1.5.5-1,1-.5.5-1.5.5-.5-.5-2,.5-.5-2-5,2.5-3-1-1"/>
      <path data-code="LEN-GAT" d="m91.66,105.4v.5l1-.5-.5-.5-.5.5m-15-8.5l4,.5,1,3.5,1-1,1,.5.5,2,2-.5v-1h2.5l1.5,3.5h2l1.5,1,3,4h-1v1.5h-1l.5.5,2.5-.5,1.5,2.5,2,.5-1,4.5-.5-.5-1,2,.5.5-6,2.5,2,2.5-1.5,2.5v1.5l-3,3-1,2.5-.5.5v.5l-1.5,2.5,1,1h-1.5l-1.5,7-6.5,4-2-1,1-2-.5-.5v1l-2.5,1h-2.5l.5-1-7-3.5-.5-1.5,1-2,.5-.5v.5l4.5-7.5-4.5-2,1.5-2.5,2-1.5.5-2,.5.5v-1l-2-1.5-2,1-5.5-1v-2l1-1.5,5.5-5.5.5.5.5-1h.5l1,1.5,3-3v-7h.5v-1l.5.5,1-2,.5-1.5-1.5-.5,1.5-2-.5-1,.5-1"/>
      <path data-code="LEN-KIN" d="m40.16,58.4l2.5-1,1-1.5,1,.5,2.5-1,1,.5.5,2.5-2,4-.5.5-.5,1,3,4.5,1.5.5.5-1h1l4.5-5,2-1,3,.5v1.5l1.5,3.5-.5,2.5,2,1,1-1-.5,2,1.5.5-1,1v1.5l-1,.5-1,3-1,1.5.5,1-.5,3.5,3.5,2.5-4,1.5-.5,1-2.5-.5-2.5.5v1l-1,1-.5-.5-2.5.5-1,2,.5,1.5h-1.5l-2,3-1-.5-2,2,1,1-2,3h-1.5l-.5-2h-1.5l-1.5,5.5-5.5-.5,1-3,1-.5v.5h1l-2-2-3,1,1,.5-.5,2h-1.5l1-3.5-2.5-2.5,2-1.5,1.5-2.5v-1.5l1.5-2v-1.5l-2.5-2.5-2-1-3-5,4.5-2,.5-5.5-1-3,4.5-2.5,3-2.5,2-7.5"/>
      <path data-code="LEN-KRI" d="m120.16,151.25v-1.5l1,.5,1-1.5h1l3-3.35,2-1,6,1v-1.5l1.5-1.5v-2l2,.5,2.5-3.5,3.5,3.5.5-1,1,1,.5,5,4-.5,1,.5-1,4-4,1,1,2,3,.5,1.5,2-1,2-2,1-1-.5-.5,1,9.5,5.5,1-.55,3,2.55-3.5,4.5,3.5.5-3.5,3.5-1.5-.5-3,2,1,1.5,3.5,2.5-1.5,2.5-3,1.5-2-1.5-6,1.5-2,2v2l-1.5.5v1h-1.5l-1,1.5-1.5-1-3,.5-1.5-1.5,1.5-.5-5-1.5v-3l1.5.5,1,1.5.5-.5-3-6,.5-1.5h.5v-1h1.5v-2l1,1-.5-1,.5-.5v-1l-2-.5v-1l3.5-1v-1.5l-.5,1.5h-2.5v-.5l2-.5,1-1-2.5,1,.5-4.5.5-.5-3-4.5,1.5-.5v-1l-2,.5-2.5,1.5-.5-1v1l-3-1h-1l.5,1.5-1.5.5-1.5-1.5v-.5l1.5-.5-1-.5v-1l1,.5-2.55-4.5,1.05-3.1,1-.05Z"/>
      <path data-code="LEN-KIR" d="m113.16,114.4l2,1,3-.5,3,1.5,6.5-5h1.5l6.75,2.25,47-48.5-25.75,45.75.5,1.5-1,2,2.5,2-1,1,1.5,2-3,3-1.25,5.25h-.5l-.5,1h-2l.25,2.25-1,2,2,1-3,3-1.5,2.5-1.5,1.5.5.5-.75.75h-.5l-1.5,2-.25-3.25-1-1-.5,1-3.5-3.5-2.5,3.5-2-.5v2l-1.5,1.5v1.5l-6-1-2,1-4,1,.5-3.5-4-2.5-.5-1.5h.5v-1.5l2.5-5-3.5-1.5-4-4.15,3.5-5-3-2,.5-1-1-1-1,1,.5-1.5-1,.15,1.5-1.5-.5-1.5"/>
      <path data-code="LEN-LOM" d="m65.16,73.4l1-1,1.5-.5,3,1.5,1,3,3-2.5,3,2.5,2-2-.5-1.5,1-1-1-1v-1l1-1-1-1,2.5,1,.5-1,2,2,.5-.5,7,9.5,2,6.5-1.5,2,4.5,6-1,1,3,1.5-.5,1,1.5,2.5h-1l-3,2-2.5,1,1,3h1l.5-2.5,1.5-1.5,1.5.5,1.5-1h-1.5l1-.5,3.5,3-2.5,1,.5,2-5.5,2-2-3-3.5-1-1.5-3.5h-2.5v1l-2,.5-.5-2-1-.5-1,1-1-3.5-4-.5,1.5-1.15-1.5-.85,1-1.5-1.5-.5.5-1h-3l-1-1-1-4-2.5-1.5-3,.5-.5,1-3.5-2.5.5-3.5-.5-1,1-1.5,1-3.5h1v-1.5"/>
      <path data-code="LEN-LUZ" d="m23.16,111.9l.5,1,1-1.5,3,.5,2.5,4.35,1.5-2.5,3,2,.5-3h3.5l.5-2.5,2.5,7.15,5.5,2,.5,4.5,2,4,2-.5v1h3l.5,1.5,2,1,5.5-1.5-1-3,1-1-.5-2,5.5,1,2-1,2,1.5v1l-.5-.5-.5,2-2,1.5-1.5,2.5,4.5,2-4.5,7.5.5-.5-1,.5-1,2.5,7.5,4.5-.5,1h2.5l2.5-1v-1l.5.5-1,2,2,1,1,2,4.5,2.5,2-1,.5.5.5,1.5-1,2h-1v.5l-1.5,1.5,1,2-2,.5v.5l-1.5,1-1.5.5-6-.5-1,.5v-1l-1,.5-1-1.5-1.5,1.5.5,2-3,2.5-1,1.5-1.5.5.5-2h-3.5v-1.5l-5-2.5v-1.5l1-1v-2l-2.5.5.5-1-2-1,.5-1-1,.5v-1l-2-1-1,1.5-1-.5v2h-3l-1,1,1,1.5h-2l-1.5,4v3h-3.5l.5,1.5-2.5-.5-1,1.5h-.5l-3-2,1-.5-.5-1-1,.5-1-1.5h-1.5v1l-2.5-1.5-.5-1,.5-.5-.5-1.5.5-1h-1.5l-1-1-.5-3.5v-1l2.5-.5.5-1-1.5-2v-4.5l-2.5,1.5-.5-.5.5-1.5-1,1-.5-1,.5-1,1.5.5v1h.5v-1l1,.5v-2.5l-2-1-1.5.5,1-3,2.5.5v-2l2-.5-1-2h-1l-2-1.5.5-3-2-1,1.5.5v-.5l3.5-5.5h-3l-1.5-1-2.5-5-.5-3,.5-1h.5l.5-1,1.5-1,1-3"/>
      <path data-code="LEN-POD" d="m244.66,96.25l5-1.5,3,2.5,1-1,15,10.5,1.5,3.5-1,6h.5l3.5-2v-1l1.5-1h1l2.5-1,2.5,2.5,3.5.5.5-1,3.5,6.5,2.5,2,.5,1.5-1,1,2.5,1.5,1.5-.5v1l2.5,1,2.5-.5,1,1-3,2.5-2.5,2.5,1.5,1-2,2h5.5l1.5,1.5,4,.5-9,11.5-8,1-1,1.5-3,1-6-3.5-5.5,2.5-.5,1.5.5,2-.5,1-1.5.5,1,1.5-1.5,3-1.5,1.5.5,1-11.5,13-.5,1.5-1-.5-2,2-3.5.5v1l-2-2.5-7-3,1-2-4-2.5,1-2.5-2-1,1-1.5-1-1.5.5-1-.5-.5,2-4.5-2-1.5,1-1.5-1-2h.5l.5-1h-.5l.5-.5-.5-1.5,1.5-1.5-.5-1,2.5.5,1-1-3-2,1.5-2.5,1.5-.5-2.5-.5-1-2,3-.5-.5-1,1-.5,1.5-1.5v-2l-1.5-1.5-1,.5-.5-1.5,1.5-1.5-4-4,1-1.5h1l.5-1,1.5.5-2.5-1.5-1.5-3.5,1-.5,1-1,1.5-.5,2.5-1.5-.5-2,1,.5,8.5-5.5-1.5-2-1-4h-3.5l-1,1.5-2.5-1-.5-1.5,1-1-.5-2.5.5-2.5"/>
      <path data-code="LEN-PRI" d="m129.66,32.75l1-2,5,3.5,1.5-5h.5l1-4,.5-1,2-.5.5-1.5,1-1-.5-1,6-6.5,5,6.5h1.5l2.5,4.5,8.5,9.5,17.25,30.9-35.75,8.6-2.5.5-1.5-.5-3.5.5v-2l-4,1,.5-2-2-1-1-4-2.5-.5v-2.5l-1.5-2.5-1,.5v.5l-1.5-1-3.5.5-2.5-.5-2.5-2.5,1-1-.5-.5.5-1.5h2l1.5-3v-1h.5l-3.5-.5.5-6.5,1-1.5,1-.5,3,1.5,2-.5-.5-2.5v-6l1.5-1.5,1.5-.5Z"/>
      <path data-code="LEN-SLA" d="m.16,89.25l2.5-2h.5l2.5-1.5,3.5-2.5,4.5-1,3-3h2.5l5.5,3,2-1,2.85,4.9,2.15,1.1,2.5,2.5v1.65l-1.5,2v1.5l-1.5,2.5-2,1.5,2.5,2.5-.9,3.05,1.35.3.5-1.85-1-.5,3-1.15,2,2.15h-2l-1,3,5.5.35.5-2h0l.5,3-1,2.5-.5,2.5h-3.5l-.5,3-3-2-1.5,2.5-2.5-4.35-3-.5-1,1.5-.5-1.15-1,3.15-1.5,1-.5,1h-.5l.5,3.35-1,.5-1.5-3.5,1-.5h-1l-.5-2-3-2-.5-2.5-2,1v-2l-3,.5v1.5l-.5-1.5-1,.5,1.5-3.5-.5-.5h1l.5-1-1-.5,1.5-2.5-.5-2.5,1.5-.5-1.5-1,1-1-.5-1-2-.5.5-.5-.5-2-1.5-2-6.45-2"/>
      <path data-code="LEN-SOS" d="m70.66,73.25l4.5-1,1-1-1-2v-1l1.5,1,2-1,1.5.65-1,1v1l1,1-1,1,.5,1.5-2,2-3-2.5-3,2.5-1-3.15"/>
      <path data-code="LEN-TIK" d="m165.41,159.15l2.5,1,.5-.5,3,2.5.5-1.5h2l1.5-1.5.5,1-.95,2.9.95-2.4,1-.5h-1l.5-1.5,2.5,2,2-2,.5,1,2-2.5h1l1-4,2,1,2.5-10.5,3-2,4.5,2-1,2,.5.5-1,2.5,1.5,1,1.5,4,3,.5,1.5,3h.5l4.25-2.9,2.5,3.5-.5.5h1.5l1.5,2.5,2,.5,4,3-1.5,1,2,1,.5-.5h.5l6,5,4.5.5,1-3.5,3-1.5,4.5,2.5-1,2.5,4,2.5-1,2,7,3,2,2.5-2,2.5-2.5,2.5-.5,3-1.5,2.5h-3l-2-1.5.5-1.5,1.5.5,2-2.5-1.5-1,1-1,.5-2.5-3-1-2,1.5,1,1.5-.5,2h-1.5l-1-1.5-1,1,.5,1.5-.5,1,1.5.5-2,3.5h-4.5l-1.5,1.5-2-1-1,1-1,2-3-1-1,1.5-4-3.5-6,7-1.5.5v-1.5l-2-1.5,1-2-8.5-8,3-5-3-2.5-4.5-2-7.5,8-3-2-2,.5-2.5,3,1.5,2.5-1,1.5h-4.5l-5,5-6-5-3.5,3.5-2-2,1-2.5-1-3h-1v-1l-1.5-.5,1.5-3-5.5-4.85-1-1.5,3-2.65,1,.5,4-2.85-3.5-.5,3.5-4.5-3-2.55,8.25-4.7Z"/>
      <path data-code="LEN-TOS" d="m93.16,122.75l5.5-2.5,1-2.5.5.5.5-2.5h1.5l1-1-.5-1.5,1.5.5,1-.5,1,1,1.5-1,2.5,2.5,1-1,1,1,.5.5-.5,1h1l-.5,1.5,1-1,1,1-.5,1,3,2-3.5,5,4,4,3.5,1.65-2.5,5v1.5h-.5l.5,1.35,4,2.5-.5,3.5,4-.85-3,3.35h-1l-1,1.5-1-.5v1.5h-1l-1,3h-2l-2,2v1.5l-1-.5-1,1-1,3.5-2.5.5-.5-1v.5l-2.5,1,.5.5-1.5,1.5h-1l-1,1.5h-5l-1,2-1.5-1.5-1.5,1-2-1.5,1-3-.5-1.5,1-.5v-1.5l-1.5-1.5-1.5,1v-1l-4,.5-.5,3h-.5l-1.5-2.5,2-1v-.5l1-.5,1-1.5-.5-1.5-.5-.5-2,1-5-2.5-.5-2.5,6-3.5,2-7h1.5l-1-1,1.5-2.5-.5-.5,1-.5,1-2.5,3-3v-1.5l1-2.5-1.5-2.5"/>
      <path data-code="LEN-VLS" d="m42.16,101.4l.5,1.85h1l2-3.35-.5-.5,2-2.15,1,.5,2-3,1.5.15-.5-1.5,1-2.15,2.5-1,.5,1,1-1v-1.5l2-.5,2.5,1,1-1,4-1.35.5-1,3-.5,2.5,1.5,1,4,1,1h3l-.5,1,1.5.5-1,1.5,1.5.85-1.5,1.15-.5,1,.5,1-1.5,2,1.5.5-.5,1.5-1,2-.5-.5v1h-.5v7l-3,3-1-1.5h-.5l-.5,1-.5-.5-6.5,7v2l.5,2-1,1,1,3-5.5,1.5-2-1-.5-1.5h-3v-1l-2,.5-2-4-.5-4.5-5.5-2-2.5-7.15,1-2.5-.5-3,1-3.35h1.5Z"/>
      <path data-code="LEN-VSE" d="m114.16,71.25l.5.5,1.5-1,3,1.5.5-1.5,1-1,.5-2.5,1.5,1.5,3-1.5,1.5-3h.5l.5-3,1-.5,1.5,2.5v2.5l2.5.5,1,4,2,1-.5,2,4-1v2l3.5-.5,1.5.5,2.5-.5,35.75-8.6-47,48.5-6.7-2.1-1.55-.2-6.5,5-3-1.5-3,.5-2-1-1.5-3.65v-4l-1-2h1.5l.5-2,4-4,1.5,1-.5-1.5h.5l-1-.5,1.5-2.5-1-3.5,1-2.5-2-2,.5-2.5h-1l-4-6,.5-1.5-1-2.5,1.5-.5,1-2.95"/>
      <path data-code="LEN-VYB" d="m72.66,10.25l1-1h3.5l.5-1,2-1,13-1,2.5-1.5,1.5,1,6-1.5h7l2.5-1,3,3,5.5-3.5,4.5-.5,2-1.5,4.5,1.5h12.5l4.5-2-1,4,.5,2.5,2.5,3.5-2,3-6.5,7,.5,1-1,1-.5,1.5-2,.5-.5,1-1,4h-.5l-1.5,5-5-3.5-1,2-1.5.5-1.5,1.5.5,8.5-2,.5-3-1.5-1,.5-1,1.5-.5,6.5,3.5.5h-.5v1l-1.5,3h-2l-.5,1.5.5.5-1,1,2.5,2.5h6l1.5,1-.5,2.5h-.5l-1.5,3-3,1.5-1.5-1.5-.5,2.5-1,1-.5,1.5-3-1.5-1.5,1-.5-.5-1,3-1.5.5.5,1-2-3.5v-4.5l-1.5-1-.5,1-1-2.5h-3l-.5-2-1.5-.5-3,.5,1,1.5-1.5-.5.5,1h-1l-7.5-6.5-2.5-4,.5-1.5,1.5-1.5-.5-1.5,1-2h-1l-.5-2.5,1.5-4h-.5l-1,1h-.5l-2.5-6,.5-1.5,2-3,.5-3.5,2.5-7.5.5,3-1,2-.5,3,.5,4.5,2,1-.5-2,.5,1,1-1-1-1h1.5v-2l2-2.5v-.5l-.5-1-.5.5-.5-.5v2l-1.5-1.5v-1.5l1-1h.5l.5-1.5h1v-3l-2.5-2.5-.5,1.5,1,1.5-1,.5v1.5l-1-2h1v-1.5l-1.5.5-.5-1.5h-.5l-.5,1h-.5l-.5-1-1.5,1.5h.5l-.5.5v-1l-1.5-.5h-1l-1.5,2.5-1-3-.5.5-.5,1.5-1-3h-.5l-.5,1-1-.5v-2l-1.5,1-1-2-1,1.5v.5l-1-1-2,1-.5-2-.5,1,.5-1-.5-2.5,1-1m-2.5,1.5h1l-.5,2.5-1-.5.5-2m14,14.5h.5-.5m-12-8.5v.5-.5m12,12h.5v.5h-.5v-.5m-12.5-10.5h.5v.5l-.5-.5m12,11.5v.5-.5m-2,1.5l2,.5-.5-1h.5l.5,2,1.5-3.5.5-2,1-1-.5,4.5h-.5l-.5,2-1.5,1,2,3.5v.5h-1l1,4h-1l-1,1-1.5-2-.5-3,.5-2-1.5.5.5-5m6.5,11.5l.5-.5v.5h-.5m-23.5-16h.5l-.5.5v-.5m14.5-8.5l.5-.5-.5.5m-3-3v.5h-.5l.5-.5m19.5,3.5h.5-.5m-2,10.5h-.5l.5-1v1m0,.5v-.5.5m-25-17.5h-.5.5m-2,0l.5-.5h.5l-.5,1-.5-.5"/>
      <path data-code="LEN-VLH" d="m182.91,65.15l18.5,53.5-1,1.5-.5-.5-.5.5,2.5,2v1.5l-1-.5v1l.5,1v3.5l.5.5.5-1.5,1,2-1,1.5.5,1,9,7,1-.5-.5,1.5-.5.5v1.5l-2.5,3,2,1.5v2h2l-1,1,.5,2-2.5-1-.5,3-2,2.5v-1h-1l-3,2.5-.5-.5-1.5-3-3-.5-1.5-4-1.5-1,1-2.5-.5-.5,1-2-4.5-2-3,2-2.5,10.5-2-1-1,4h-1l-2,2.5-.5-1-2,2-2.5-2-.5,1.5h1l-1,.5-1,2.5,1-3-.5-1-1.5,1.5h-2l-.5,1.5-3-2.5-.5.5-2.5-1-9.25,5.25-9.5-5.5.5-1,1,.5,2-1,.75-1.75-1.5-2-2.75-.75-1-2,4-1,.75-3.75-.75-.75-4,.5-.25-1.75,1.5-2h.5l.5-.5-.5-.5,1.5-1.5,1-2.5,3.5-3-2-1,1-2v-2.5h2l.5-1h.5l1-5,3-3-2-2.5,1.5-.5-2.5-2.5,1-1.5-.5-1.5,26-46"/>
      <path data-code="LEN-LOD" d="m182.91,65.15l27,46.5,2-2,4,2.5,3,1,2.5-2.5,2.5,1.5-1-2.5h1v-.5l1-1,.5,1,1.5-1v-.5l8,1.5,1-1,.5-3,1.5-.5,2.5,2-1,1,.5,3,4.75,5.6-2.5,1.5-1.5.5-1,1-1,.5,1.5,3.5,2.5,1.5-1.5-.5-.5,1-1,.5-1,1,4,4-1.5,1.5.5,1.5,1-.5,1.5,1.5v2l-1.5,1.5-1,.5.5,1-3,.5,1,2,2.5.5-1.5.5-1.5,2.5,3,2-1,1-2.5-.5.5,1-1.5,1.5.5,1.5v.5l-.5,1h-.5l1,2-1,1.5,2,1.5-2,4.5.5.5-.5,1,1,1.5-1,1.5-3.5-1-2,1-1,3.5-4.5-.5-6-5h-.5l-.5.5-2-1,1.5-1-4-3h-2l-1.5-3h-1.5l.5-.5-2.5-2,1.75-2.1.5-3,2.5,1-.5-2,1-1h-2v-2l-2-1.5,2.5-3v-1.5l.5-.5.5-1.5-1,.5-9-7-.5-1,1-1.5-1-2-.5,1.5-.5-.5v-3.5l-.5-1v-1l1,.5v-1.5l-2.5-2,.5-.5.5.5,1-1.5-18.5-53.5"/>
</svg>