<svg data-code="RU-MOS_1" xmlns="http://www.w3.org/2000/svg" viewBox="0 0 160.75 196.61">
    <g data-code="moskovskaja_oblast_" data-title="moskovskaja_oblast&amp;apos;">
      <path data-code="bronnicy_gorodskoj_okrug" data-title="bronnicy gorodskoj okrug" class="cls-1" d="M93.62,118.49v1l1.5-.5.5,3-1-.5v1l-1.5-.5-.5-1.5.5-2h.5Z"/>
      <path data-code="chekhovskij_rajon" data-title="chekhovskij rajon" class="cls-1" d="M46.12,110.12l5,1,2.5-4h2.5l1.5,2,.5-1v3l4-.14,1.5,1,3.5-.5v1l-.5,1.5,1,.5,1.5-1,1,1,.54-.81-.54-.55,1-.14,1.23.98-2.23,1.65,2.5.5-.5,1-1.5-.5v1l-2,.5v2.5l-2-.5v1l-2.5,1v1.5l2.21,1.65-1.21,1.21-.5,2-2-.5-1,.5,1,1.5h-.5l-1.5,2-1.5-2.86-1.5-1v1h-1.5l1-1.5-1.5.5-.5-1,1.5-2v-1l-1.5-2-1.5.5-1.5-2-.5,1h-1l-1-2.5-2,.5v-1.5l-2-2,1.5-2.5-1.5-1.5,1-1-.5-1"/>
      <path data-code="dmitrovskij_rajon__moskovskaja_oblast_" data-title="dmitrovskij_rajon_(moskovskaja_oblast&amp;apos;)" class="cls-1" d="M99.12,33.62l3.5-1.5,2,1,1-1-1.5-.5v-.5l1.5-.5.5,1,3-1.5v-1.5l1-.5.5-2,1.5.5v-1.5l2-.64,1,3v8.14l-1,3.86,5.5,2,.5,4,4.04-1.5h2.5l-.53,3.64-1.5,2.5,1,2-1,1,.5.5-3.5,1-.5,1.5-.5-.5-1,1h-.5v.5l-1,1.5h-1.5l-.5,3h-1.5l.5.5-1,2-1-.14-2.5.5.5,1-2.5-.5v1.5l-2,2.5-1-2.36-.5-3-3-1.5-.5,1h-.5v1l-1,1v1l-5.33,1.24.33-1.24-4-2.14,1.5-3h1.5l-1-2,.5-1.5,1-1-.5-.5h2.5l.5-1v-3.5l-2.5-1.5,2.5-2.5-1-1.5.5-5.86,1-2,1,.5-.5-.5,1-2v-2.5"/>
      <path data-code="egor_evskij_rajon__moskovskaja_oblast_" data-title="egor&amp;apos;evskij_rajon_(moskovskaja_oblast&amp;apos;)" class="cls-1" d="M108.12,140.12h3.5l-.5-1.5,1-1.5.79-1.58,2.21.58.5-1,1-.14.5-1,1.5,1.5,1-1.5-.5-.5,2.5-1.5,2.5,3.5,2.5-2,5,3.5,1,1-1,.5-.5,1.5,6.5,4.5-2,2.5.5,1-.5,1-1.5-1-.5,1.5-1.5-.5v1.5l-4,.5-2,2,.5,1-1.5,1,1.5,4,3,2-1,2.5v3l-.5.64-1.5.5-2,3.36-1.5-1-4.5,3.64-.5-4.5,1-1.5-1-1,1.5-4-1-1v1h-1l.5-1.5-4-3.5-.5.5-.5-2-1.5.5-1-4.5,1-2-3,.5-2-1.5-.5-2.5,1.5-1.5,2,.5.5-1h-2l.5-1-.5-1.5,1.5-.5-1.5-1.5"/>
      <path data-code="gorodskoj_okrug_balashikha" data-title="gorodskoj okrug balashikha" class="cls-1" d="M99.12,88.62v.5h.5l-.5-.5M98.12,89.12l.5,1h1l-.5-1h-1M99.62,84.12v1l3,1.5,1,2.5v1.36l1,.5v2.5l-.5,2h-1.5l1.5,4-1.5-1-.5,2.5-.5-.5h-1.5l-1-1.86-.99-.5-1-3h-2l.5-1.5,1,.5,1-2-1-1,1.5-2.5v-3.5l.5-1h.99Z"/>
      <path data-code="gorodskoj_okrug_chernogolovka" data-title="gorodskoj okrug chernogolovka" class="cls-1" d="M122.12,87.62l2-.5v-1l1.5,1.36,1-2.5.5,1.5-1,1,.5,1-2.5-.36,1.5,1.5-1.5,1.5-2-1.5-.5,1-2-.5-1-.5,1.5-2.64-1-1,.5-1,2.5,2.64Z"/>
      <path data-code="gorodskoj_okrug_dolgoprudnyj" data-title="gorodskoj okrug dolgoprudnyj" class="cls-1" d="M95.12,71.12l.5,1-1.5,3-.5-.5-1,2.5h-1l-.5-1,2.5-3-1-.5,1.79-1.93.71.43Z"/>
      <path data-code="gorodskoj_okrug_domodedovo" data-title="gorodskoj okrug domodedovo" class="cls-1" d="M75.62,107.49v-.5l2-1v-.5h1.5l2-1.36,1,1.5h1.5l.5,1.5h.5l.5-1.5.5,1,1.5-.5.02,2.97-.52-.1-.5,1h-.5l.5,1,.5-1,1,.5-1,1-.5,1.5-1-.36-.5,1,1.5,1-1,2,.5,3.36-1.18.78-.32-1.15-1.5.36.5,2-.5.5,2.5.5v1.5l-1.5,1.5-3,1-1-1.5-3,.5v-1.5h.5l-.5-1.5-1,1v1h-1l.5,1.5-.5,1.5h-2l-.5-1.5-1.5-.5-.5,1.5-.5.5-1-3-1-1-1.29,1.29-2.21-1.65v-1.5l2.5-1v-1l2,.5v-2.5l.5-.5h1.5v-1l1.5.5.5-1-2.5-.5,2-1.5.23-.15,1.27,1.02,1.5-4-1.5-2,.5-.5v-1h1.5Z"/>
      <path data-code="gorodskoj_okrug_dubna" data-title="gorodskoj okrug dubna" class="cls-1" d="M114.12,18.62l6,2-1,1v2l-2.5,1.36-2-.36-.5-6"/>
      <path data-code="gorodskoj_okrug_dzerzhinskij" data-title="gorodskoj okrug dzerzhinskij" class="cls-1" d="M88.62,98.62l2.5-.5.5,3-2.01.5.51-1.5-1.5-.5v-1"/>
      <path data-code="gorodskoj_okrug_ehlektrogorsk" data-title="gorodskoj okrug ehlektrogorsk" class="cls-1" d="M129.12,102.49l1.5,1v4.5l-2.5-1-1.5-1,2.5-3.5Z"/>
      <path data-code="gorodskoj_okrug_ehlektrostal_" data-title="gorodskoj_okrug_ehlektrostal&amp;apos;" class="cls-1" d="M113.12,101.99l2.5-1,1.5.5.5,2.5-1,2.5-2.54-.84-1.96-2.16,1-1.5Z"/>
      <path data-code="gorodskoj_okrug_frjazino" data-title="gorodskoj okrug frjazino" class="cls-1" d="M111.12,85.49l-.5-.5-.5,1.5h-1l.5-3,1.5,2Z"/>
      <path data-code="gorodskoj_okrug_ivanteevka" data-title="gorodskoj okrug ivanteevka" class="cls-1" d="M105.62,80.62l1-.64,2,2.5-.5.64-2-.5-.5-2"/>
      <path data-code="gorodskoj_okrug_khimki" data-title="gorodskoj okrug khimki" class="cls-1" d="M87.62,68.99l5,.64,1.79,1.07-1.79,1.93,1,.5-2.5,3,.5,1-3.5-1,.5-2.5,2.5-1.5-2-2-.5,1h-1l1,1.5-1.5,1v.9s-2-.4-2-.4l1-1.5-.83-1.25.83-1.39.5,2,.84-1.53-.34-.34-1-.14h-.5l-.5-1,.5-1.5h1.25l.75,1.5Z"/>
      <path data-code="gorodskoj_okrug_kolomna" data-title="gorodskoj okrug kolomna" class="cls-1" d="M96.62,146.12l2,6.5,2,1-1.5,1.5-1-1-1.5.5v-2.5h-3l1-4,2-2Z"/>
      <path data-code="gorodskoj_okrug_koroljov" data-title="gorodskoj okrug koroljov" class="cls-1" d="M100.13,82.62l3.5-2,2.13,2.18.37-.18.5.86h-2v1l-1,.5.5.5-1.5,1.14-3-1.5v-1l1,1,1.5-.5-2-2"/>
      <path data-code="gorodskoj_okrug_kotel_niki" data-title="gorodskoj_okrug_kotel&amp;apos;niki" class="cls-1" d="M91.62,98.12l1-1v2.5l-1.16.55-.34-2.05h.5Z"/>
      <path data-code="gorodskoj_okrug_krasnoarmejsk" data-title="gorodskoj okrug krasnoarmejsk" class="cls-1" d="M117.62,76.99l1,1v-1.5l14.5-1.86v1l-1,1.5.5,1.36-13,1.5-1.5,1-1.5-1,1-1h-1v-1.5l1-.5Z"/>
      <path data-code="gorodskoj_okrug_lobnja" data-title="gorodskoj okrug lobnja" class="cls-1" d="M93.62,67.62l4.5-1-.5,1,1,1-2.5.5.5,1-1.5.5-2-1.5.5-.5v-1"/>
      <path data-code="gorodskoj_okrug_losino-petrovskij" data-title="gorodskoj okrug losino-petrovskij" class="cls-1" d="M109.62,92.99l.5-.5.5,1,1-1.5v1.5l-.5,1.5-2-2h.5Z"/>
      <path data-code="gorodskoj_okrug_lytkarino" data-title="gorodskoj okrug lytkarino" class="cls-1" d="M91.62,102.12l-.5,3,1,.86-1,1-1-1-.51-4.37,2.01.5Z"/>
      <path data-code="gorodskoj_okrug_orekhovo-zuevo" data-title="gorodskoj okrug orekhovo-zuevo" class="cls-1" d="M129.12,113.49l3.5-2,2.5.5.5,1.5-2,1-1,1,1,.5-3-1,.5-1-1.5.5-.5-1"/>
      <path data-code="gorodskoj_okrug_podol_sk" data-title="gorodskoj_okrug_podol&amp;apos;sk" class="cls-1" d="M72.12,102.62l1.5,1,.5-1,2.5-1-.5,2.86-.5,1h-1l-.5,1.64-1.5-.64v.5h-.5l-.5-2.5-1.19-1,1.69-.87Z"/>
      <path data-code="gorodskoj_okrug_protvino" data-title="gorodskoj okrug protvino" class="cls-1" d="M40.81,126.63l1.81,1.36v1.5l-2.33,1.33-1.67-2.69,2.19-1.49Z"/>
      <path data-code="gorodskoj_okrug_pushhino" data-title="gorodskoj okrug pushhino" class="cls-1" d="M49.12,138.49l3.5,1-1,2.5-2-.5v-1.5l.5-.5-1-1"/>
      <path data-code="gorodskoj_okrug_reutov" data-title="gorodskoj okrug reutov" class="cls-1" d="M96.62,91.12l1,1-1,2-1.56-.76,1.56-2.24Z"/>
      <path data-code="gorodskoj_okrug_roshal_" data-title="gorodskoj_okrug_roshal&amp;apos;" class="cls-1" d="M153.62,138.49l1.5,2-1.5,2-1-1-1,.5-2.5-2,4.5-1.5Z"/>
      <path data-code="gorodskoj_okrug_serpukhov" data-title="gorodskoj okrug serpukhov" class="cls-1" d="M49.62,128.49v1.5l1.5,1-3,1.5-2-1,.5-.5-.5-1.5,3.5-1Z"/>
      <path data-code="gorodskoj_okrug_zvenigorod" data-title="gorodskoj okrug zvenigorod" class="cls-1" d="M63.62,71.99l1-2,1.5,1v1h1.5v1l-1-.5-.5.5v.5l.5,1-1.5-.5v1l-1,.64v-2l-1,.86-2-1,1.5-1.5-.5-.5,1.5.5Z"/>
      <path data-code="istrinskij_rajon" data-title="istrinskij rajon" class="cls-1" d="M63.12,40.62v1.5l5.5,2v1l4,2.5h1.5l.5-1.5,1.5,1.5v-2l.5,1.5v.36l1.5,3v5l3,3.5-1,2.5,2.5.5-2.5,2.5,1,1v1.5l-.42,1.44-.58.19.5,2.5-2.5,1v1.5l-.5.5h.5-1.5l-1.5,1-1.5-.5v1l-3-3.5-.5-2,.5-1h-1.5l.5-1-.5-1-5.5-4.64-4,1.5-1-1-2.5-1,.5-1-1-1,1-1.5,2,1v-1.5h2.5l-.5-4.5,1-2,1,2,1.5-1.5-.5-2-2,1.5.5-1.5,1-.5-2.5-2-.5,1-1-.5,1.5-2.5-.69-.33,1.19-5.04,2,.5Z"/>
      <path data-code="kashirskij_rajon__moskovskaja_oblast_" data-title="kashirskij_rajon_(moskovskaja_oblast&amp;apos;)" class="cls-1" d="M59.12,150.12l2.5-1,.5-2,3.5,3.86,4-.5,8,6-1.5.5-.5,3.5h-1l1.5,1.5-.5,1v2l-.5,3.5-2.5,2.5-3-.36v-2l-2.5-1-.5.5v-2.5h-2l1-2-2.5-.5,1-2.5-3-1,.5-2-2.5-2,.5-1h.5l1-1.5v-1.5l-2-1.5"/>
      <path data-code="klimovsk" class="cls-1" d="M71.12,106.99h.5l.5,2.5-2-1-1,.5-.5-.5.5-2,2,.5Z"/>
      <path data-code="klinskij_rajon" data-title="klinskij rajon" class="cls-1" d="M70.12,19.12l1.5-.5,5,2.5,2-1,5,1,3,2.5,1-1.5,2,1,1.5-.5,1,2.5v-2l6.5.5h.5l.5-1.5,3.5,5.5-.5,1,1,2.5,2,1.5-2,.5-1-1-3.5,1.5v2.5l-1,2,.5.5-1-.5-1,2-1,1-2-.5.5,2.5h-1l-.5-2h-2v1l-1.5-1-3,3.5-4.5-1.5-.5,1h-1l.5.86h-1.5v2.5l-2,1,.5-.5-1-.5v-.36l-.5-1.5v2l-1.5-1.5-.5,1.5h-1.5l-4-2.5v-1l-5.5-2v-1.5l2.5-1.64h1l.5-1.5.5.5v-1h1l-2-3,1-1-1.5-1.5.5-2.5,1,.5v-1.5l1.5-1-1.5-1,1-1-1.2-3.12,2.7-2.74Z"/>
      <path data-code="kolomenskij_rajon" data-title="kolomenskij rajon" class="cls-1" d="M88.62,138.99l1.53.71.47-4.07,1.5,1,1.5-1,1.5,2v-.5h1l.5,1.5h2.5l3.5,3,2-1v1l2,2,1.5-1.5.5,1.5-.5,1h2l-.5,1-2-.5-1.5,1.5.5,2.5,2.2,1.47,2.8-.47-1,2,1,4.5,1.5-.5.5,2,.5-.5,2.07,1.81-5.07.19-3-3.5-3.5,1.5v1l-2,1.5-3-5.5,1-1-2-1-2-6.5-2,2-1,4h3v2.5l1.5-.5,1,6-1.5,1-3.5-3-.5-2,1-1.5-1-.5-3.5,4.5-1-2-1,1h-.5l.5-1-1.5-1,.5-1.5-.5-1h.5v-1.5l-1,.5-2-3,.5-.5-1.5-.5-.02-1.7,1.52-.43v-1l2.5-2-1-1,1.5-1,.5-.5-1,.5-.5-1,2-1Z"/>
      <path data-code="krasnogorskij_rajon__moskovskaja_oblast_" data-title="krasnogorskij_rajon_(moskovskaja_oblast&amp;apos;)" class="cls-1" d="M75.12,75.12l1.5-1h1l.5-.5v-1.5l2.5-1-.5-2.5,1.5-.5,2,3.36-.5.5-.5-.5.5,1,1.5.5v-.5l.67-1.11.83,1.25-1,1.5,2,.4.5,2.1-1,.5-1-.5,1-1h-1.5l-1,.5.5.5-1,1,1.5.5-1,1h-.5l.5.5-6,1.36-1-1.5h-2v-1h-2l-.5-1.86,1-1v-1l1.5.5Z"/>
      <path data-code="krasnoznamensk" class="cls-1" d="M64.62,83.99v-1l2,1-.88,2.6-2.12-2.6h1Z"/>
      <path data-code="leninskij_rajon__moskovskaja_oblast_" data-title="leninskij_rajon_(moskovskaja_oblast&amp;apos;)" class="cls-1" d="M78.12,99.62l3-2.5,2.5,2.5,5-1v1l1.5.5-.51,1.5.51,4.37-1,.5-1,1.5,1,1.5-1.98-.4-.02-2.97-1.5.5-.5-1-.5,1.5h-.5l-.5-1.5h-1.5l-1-1.5.5-1.14-3-1.5-.5-1.86"/>
      <path data-code="ljubereckij_rajon" data-title="ljubereckij rajon" class="cls-1" d="M93.62,95.62l2,.5.5,1.5h-1.5v1l1.5,1,.5-2h1v-1l.5,1.5,1,.5,1,1.86-.5,1.5-4,1.5-1.5-1.5.5,1.5-1.5.5-.5,2.5-1.5-1.36.5-3-2.01-.5,2.01-.5-.16-.95,1.16-.55v-2.5l1-1.5"/>
      <path data-code="lotoshinskij_rajon" data-title="lotoshinskij rajon" class="cls-1" d="M44.12,11.62l1.5,1.5h2v-1.5l1-.5v-1.5l1.5-1-.5-.5,1.5-1h1l-1-.5,1-.5v1l1.5-.5v-1.5l-2,.5-1-1.5,2-1.5h1l-.5-1.5.5-.5,1.5,1.5-.5.5,1,1,4-.5.5.5-.5,1.5,1.5,1.5-1,1,.5,1.5-.5,1.5,2.5.5,1,2h-1l.5,1.5,5.5,4v1l-1.5,1.5,1,2.5-1.5-.5-2,3.5-2.5-1.5-1,2-1.5-1-3,.5-.5-2-3.5-.5-1.5-1h-1.5l-1,1v1h-1v-2.5l-1.5.5v-2.5l-2-1,.5-1,1,.5-1-2,1-.5v-1l-2-.5.5-3.5"/>
      <path data-code="lukhovickij_rajon" data-title="lukhovickij rajon" class="cls-1" d="M92.62,154.62l1-.5,1,.5-1,1.5.5,2,3.5,3,1.5-1-1-6,1,1,.5-.5,3,5.5,2-1.5v-1l3.5-1.5,3,3.5,5.07-.19,1.93,1.69-.5,1.5h1v-1l1,1-1.5,4,1,1-1,1.5.5,4.5-3-1.5-.5,1-2.5.5-1.5,1v1.5l-4,.5-1,.5.5,1-6.5,3,1.5,1-2,.5v1l-2-2.5-2.5.5-.5-1,1,1,1.5-1.5-1-1,2-1,.5-1.5-1.5-2,.5-1.5-2-.5.5-1.5-4-3-.5-1.5,1-1-2-.5v-1l1.5-.5-1.99-1.75v-1.75s.49,0,.49,0l-1-.5,2-1.5,1-3.5"/>
      <path data-code="molodjozhnyj" class="cls-1" d="M48.12,94.12l-.5,1-1.5-1,.5-1,1.5,1Z"/>
      <path data-code="mozhajskij_rajon" data-title="mozhajskij rajon" class="cls-1" d="M1.12,59.62l2-.5,2.5-3.5h2l-.5-1,1-.5v-2l1.5.5,1-2h1.5l-.5-2.5,1-1.5,2.5,2v-1h1.5l1-2-.5-1,.5-.5-.5-2,2-1.5v-1l.5-1.5,1.5.5v-1.5l1.5-1.5,2,1.36-1.5,1,.5,1.5,2,1,1-1,1,1,3.5-1,1.49,1.19-1.49,3.81-2.5.5,1.5.5.5,1.5,1.5.5-.5.5,1,2.5,3-.5.5,1.5-1.5.5,1,2.5,1.5-1,1.5.5v.5l-.5.5.5,1.5-.5,1.5h1l-.5,1v1.5l-1,.5.5,1-.5,1.5h-1l1.5.5.5,3,1-.5v4l-1.5,2-2-1v1h-3l-.5.5-.5,1-.5-.5-1-.36-3,1-1-.5-1,.5-.5,1h1.5l.5,2-1-1-1,1h-2l-2-2.5-1.5-.5-.5,1.5-2,.5v3.5l-.5-1.5h-2l-.5-1.5,1-.5-1-.5v-3h-1.5v-1h-1.5l-1-2.5-1.5-.5-1,.5v1.5h-1l-1.5-1.5-.5,1-3-1.5-1-2,.5-1.5-.5-2.5,1-1-.5-2"/>
      <path data-code="mytishhinskij_rajon" data-title="mytishhinskij rajon" class="cls-1" d="M95.12,70.62l1.5-.5-.5-1,2.5-.5-1-1,.5-1,2-.5v-1l1-1v-1h.5l.5-1,3,1.5.5,3,.7,1.67-1.71,1.7h-.5l1,7-2,.5-1,1.5.52,2.2-2.52,1.44,2,2-1.5.5-1-1h-1l-.5,1-1-4-3.5-4,1.5-2h1l-1-.5-1,.5,1.5-3-.5-1-2.5-1.5,1.39.16,1.11.84Z"/>
      <path data-code="naro-fominskij_rajon" data-title="naro-fominskij rajon" class="cls-1" d="M46.12,94.12l1.5,1,.5-1-1.5-1-.5,1ZM19.12,75.62l.5-1.5,1.5.5,2,2.5h2l1-1,1,1-.5-2h-1.5l.5-1,1-.5,1,.5,3-1,1,.36,2,3.5-.5,1.5h3l-.5,1v1h1.5l2,1.5,1-2,.44.44,2.06-.44v-1.5s1.5-1.5,1.5-1.5l2-.5.5,2.5-.5,1,.5.5,1-1.5h.5l1,1-.5,1h1.5l.5,1.5,3.5,1,1.5-.5,1-1,2,1,1-.5,3.5,2-.5.5,1.81-.02,1.19,1.52.5-1-.5,3-1.5,2,.5.5-1.5,1v1.5l-2-1,1,3h-.5l-1.5-1.5v-2l-.5-.5-1.5,1-1-2,2-2-1.5-1,1-1-4-2-3,3.5v3.5h-.5l-.5,1,1,9-3-.5-1.5,1.5-3-1.5v1h-2l-.5-.5,1-.5v-1.5l.5-.5v-2.5l-4.5-3,.5-1,1.5-1.5h.5v-1.5l1-.5-.5-.5h-3l-1.5,1-.5-1-2-.5v-1h-1.5l-.5.5h-1v1.5l-1.5-1-1.5,2-2.5.5.5,1-2.5-.5.5-1.5-1.5-1-2.5-.5v-2.5h1l-1.5-2.5-2-.5v-2h-1v-4.36l2-.5Z"/>
      <path data-code="noginskij_rajon" data-title="noginskij rajon" class="cls-1" d="M102.62,95.49h1.5l.5-2,2.5.5,2.5,2.5,1.5-1.5.5-1.5v.5l1,.5,1.5-4v-1l1-.5v1l1-1.5.5.5v-1l1-.5.98,2.09,1.02.54,2,.5.5-1,2,1.5,1.5-1.5-1.5-1.5,2.5.36-.5-1h1.5l-1,1,2,1.5.5-1-1-.5h1l1,2.5-1,2v1l-2,.5,1,2-.5.5h-.5l.5,1.5-1,1,1,.5h-1l-1.5.5v1.5h-1.5v2h-1l-.5,1-3.5-.5-2,2,1-2.5-.5-2.5-1.5-.5-2.5,1-1,1.5,1.96,2.16,1.04.34v3l-1.5-.5v1h-.5l-2,1-1-3-3.5-.5-1.5-2-2-.5.5-.5-1.5-3,.5-2.5,1.5,1-1.5-4"/>
      <path data-code="odincovskij_rajon" data-title="odincovskij rajon" class="cls-1" d="M63.62,62.49l-4,1.5-1-1-.98-.39-.02,1.89-1,.5-.5,1-1.5.5.5,1v2l-1.5.5v1l-1,1v1.5h-1.5v.5l-.5-1-2.5.5-2.5-1h-2v1l-1,.5,1,3.5,2.5-1,.5,2.5-.5,1,.5.5,1-1.5h.5l1,1-.5,1h1.5l.5,1.5,3.5,1,1.5-.5,1-1,2,1,1-.5,3.5,2-.5.5,1.81-.02-.81-.98h1v-1l2,1-.5,1.5h1.5l2,1,1-.5,1,1,2-1,1.5,1,1-.5,1.5.5,1,1.5,1-1,.5-2.5,3-4.5-2,.5-1-1-2,1-1-1.5h-2v-1h-2v.5l-1,.5-1-1.5-1,.5-1-.5-1-.5v-.5l1,1-1-2.5.5.5,1-.5-2-.5v-.5h-.5l-1.5,1.5,1-1.5-1.5-.5v1l-1,.5v-2l-1,1-2-1,1.5-1.5-.5-.5,1.5.5,1-2,1.5,1v1h1.5v1l-1-.5-.5.5.45.27.55-.27.5.5.5-.5,1.5.5-.5.5v.5l.5-.5v1l1,.5-.5,2,3,1-1-.5-.5-.5h1.23l-.23-.86,1-1-3-3.5-.5-2,.5-1h-1.5l.5-1-.5-1-5.5-4.64ZM68.62,73.49l-1.07.36.45.27.62-.62ZM73.12,81.49l1,1.5h-2v-1l1-.5ZM75.12,85.99v.5h-.5l.5-.5Z"/>
      <path data-code="orekhovo-zuevskij_rajon" data-title="orekhovo-zuevskij rajon" class="cls-1" d="M129.62,114.49l1.5-.5-.5,1,2.86.95-.86-.45,1-1,2-1-.5-1.5-2.5-.5-3.5,2,.5,1ZM111.62,117.49l1,.5,1-1,4.5,4,1.5-1v-1l1,1,1.5-1-1-2,2-1.5v-1.5l1.5-.5,1-1.5.5-4h1.5l.5-1,2.5,1v-1.5l1.5-.5-.5-1.5,3.5-.5,1,2h2.5l1,.5-2,.5.5,1.5,1.5-1v.5l-2,1v2.5l-1.5,1,1.5.5-.5,1,2,.5v1.5l3,2h2.5l-2.5,1-1,4,2.5.5,1.5,2.5-.5,1.5-.5,3.5-6,2.5-1,1.5v.5l-1-.5-.5,1-2.5-1.5v1.5h-1l.5,1h-1l-5-3.5-1.5,1.5-1,.5-2.5-3.5-2.5,1.5.5.5-1,1.5-1.5-1.5-.5,1-1,.14-.5,1-2.21-.58-1.3-3.06-2,.5,2.5-3-2-2.5,1.5-1,1-1.5-3-1,.5-1-.5-1.5h1.5v-1.5l.5,1,.5-.5-.5-3"/>
      <path data-code="ozjorskij_rajon__moskovskaja_oblast_" data-title="ozjorskij_rajon_(moskovskaja_oblast&amp;apos;)" class="cls-1" d="M77.12,147.49l1.5-.5,1-1.5,1.5,1.5,1.98-.57.02,1.7,1.5.5-.5.5,2,3,1-.5v1.5h-.5l.5,1-.5,1.5,1.5,1-.5,1h.5l1-1,1,2,2.12-2.68-.62,2.18-2,1.5,1,.5h-.5v1.75s-1-.89-1-.89l-.5.5,1,1-1.5,1.5-1-1-.5,1.5h-.5l-.5,1.5-1.5-1-.5,1-2.5-2-5.5,1-1.5-1v-1h1.5l.5-1-1.5-1.5h1l.5-3.5,1.5-.5-4.5-3h1.5l.5-.5h2v-.5l1-.5-1.5-3,.5-1.5"/>
      <path data-code="pavlovo-posadskij_rajon" data-title="pavlovo-posadskij rajon" class="cls-1" d="M111.12,110.49l2-1h.5v-1l1.5.5v-3l1.5.5,2-2,3.5.5.5-1h1v-2h1.5v-1.5l1.5-.5h1l-1-.5,1-1-.5-1.5h.5l.5-.5,3,2,1,7.5-1.5.5v-3l-1.5-1-2.5,3.5,1.5,1-.5,1h-1.5l-.5,4-1,1.5-1.5.5v1.5l-2,1.5,1,2-1.5,1-1-1v1l-1.5,1-6.5-5,1.5-2-2-3.5"/>
      <path data-code="podol_skij_rajon" data-title="podol&amp;apos;skij_rajon" class="cls-1" d="M69.12,99.99l3.5-.5.5,2.5-1,.5.5.5-2,.5,1,1,.5,2.5h-1l-.5.5-1.5-1v1.5l-.5.5.5.5,1-.5,2,1-.5-2.5h1v-.5l1.5.5.5-1.5h1v-1h.5v-1.5l1-1,.5.5,1-1,3,1.5-.5,1.14-2,1.36h-1.5v.5l-2,1v.5h-1.5v1l-.5.5,1.5,2-1.5,4-2.5-2-1,1.5-1-1-1.5,1-1-.5.5-1.5v-1l-3.5.5-1.5-1,2-1.5v-2l1,1,.5-1.5h1.5v-1.5l1.5-.5v1l2-2-1.5-4"/>
      <path data-code="pushkinskij_rajon" data-title="pushkinskij rajon" class="cls-1" d="M104.12,69.99h.5l1.71-1.7.29.7.5-2,1.5-.5v-1.5l2.5.5-.5-1,2.5-.5.5,1-.5.5,3,1v1l1.5,3,1,.5-.5,2,4.5,3-4,.5v1.5l-1-1-1,.5v1.5h1l-1,1,.85.58-.85,2.42h-1l-1.5-1.5.5-1.5-2,.5-1-1v1h-1.5l-1,1.5-1.29-.49-1.21-1.51-1,.64.5,2-.37.18-2.13-2.18-.98.56-.52-2.2,1-1.5,2-.5-1-7"/>
      <path data-code="ramenskij_rajon" data-title="ramenskij rajon" class="cls-1" d="M94.62,105.99l-1,1,1,.5v2.5l1.5.5,1,2.5-.5-2,1.5-1-.5-4h-3M93.12,118.49l-.5,2,.5,1.5,1.5.5v-1l1,.5-.5-3-1.5.5v-1h-.5M85.62,109.99h.5l.5-1,2.5.5-1-1.5,1-1.5,1-.5,1,1,1-1,.5.5.5-2.5,1.5-.5-.5-1.5,1.5,1.5,4-1.5.5-1.5h1.5l2,2v1.5l-.5.5,2,.5,1.5,2,3.5.5,1,3,2,3.5-1.5,2,1.69,1.31-.69.69-1-.5.5,3-.5.5-.5-1v.5h-.5l-3-3-2.5.5-2,2.5-2-1.5-2.5,2,1,1.5-.5,1.5v1.5h-.5l2.5,2h-.5v1l-1-.5-2,1,1,3-3,1.5v1l-1,.5-2.5-.5-.5-1,1-1.5-4-1v-1l1-1-6-3,1.5-1.5-.5-.5.5-.5v-.5l-2.5-.5.5-.5-.5-2,1.5-.36.32,1.15,1.18-.78-.5-3.36,1-2-1.5-1,.5-1,1,.36.5-1.5,1-1-1-.5-.5,1-.5-1"/>
      <path data-code="ruzskij_rajon" data-title="ruzskij rajon" class="cls-1" d="M36.12,47.49h1.5l.5,2.5,2-2,2.5,1,2-1,1.5,1.5h1.5l1-1-.5,2.5,1.5-1.5h3l-1-1.5h1.5v-1.5l2.5.5,1.5-3,2.5,2.5.31-1.33.69.33-1.5,2.5,1,.5.5-1,2.5,2-.5.5h-.5v.5l-1.5,3,.5.5v4h-2.5v1.5l-2-1-1,1.5,1,1-.5,1,1.52.61-.02,1.89-1,.5-.5,1-1.5.5.5,1v2l-1.5.5v1l-1,1v1.5h-1.5v.5l-.5-1-2.5.5-2.5-1h-2v1l-1,.5,1,3.5-1,1v1.5l-2,.5-.5-.5-1,2-2-1.5h-1.5v-1l.5-1h-3l.5-1.5-2-1.5v-2l.5.5.5-1,.5-.5h3v-1l2,1,1.5-2v-4l-1,.5-.5-3-1.5-.5h1l.5-1.5-.5-1,1-.5-1-1.5h1l.5-1h-1l.5-1.5-.5-1.5.5-.5v-.5l-1.5-.5-1.5,1-1-2.5,1.5-.5-.5-1.5h1l.5-1-1-1.5"/>
      <path data-code="serebrjano-prudskij_rajon" data-title="serebrjano-prudskij rajon" class="cls-1" d="M61.62,173.99h2.5l.5,1v-1l.5.5.5-1.5,3.5.5-.5-2,.5-1,3.5.5v1l4.5,3,.5,2-1,2,2,1-1,1v.5l-2,1,1.5,1.5h-2.5l-.5,1-2,.5v2h1l2.5,3.5-1,2-3-.5-.5,1.5-.5-2-1,.5-1.5-1-.5.5-2.5-.5-2.5,3.5v.5l-1,.5h.5-2.5v-2l-3-3.5,1.5-1.5.5-1.5,2.5-2.5-1.5-1.5v-1.5h1v-1.5l-1-2.5,2-2v-2"/>
      <path data-code="sergievo-posadskij_rajon" data-title="sergievo-posadskij rajon" class="cls-1" d="M128.12,40.49l2-1.5,2.5,2h5.5l.5,2.5h1.5l-.5-1,2.58-2.65,3.92,1.15,2,2.5,1.5-2,.5,3.5-1,2.5-1.5,1-2,3,.5,1.5-1.5,1.5v1.5l-5,1.5v1.5l1.5.5-.5.5h-1.5l1,1.5-1,1v1l1-.5.5,1-.5,2-.5-.5-1.5,1.5,1,2-2.5,2-1,1,.5,1-1,1.5-12.5,1.5-4.5-3,.5-2-1-.5-1.5-3v-1l-3-1,.5-.5-.5-1,1,.14,1-2-.5-.5h1.5l.5-3h1.5l1-1.5v-.5h.5l1-1,.5.5.5-1.5,3.5-1-.5-.5,1-1-1-2,1.5-2.5.53-3.64h.96l.5-3.5"/>
      <path data-code="serpukhovskij_rajon" data-title="serpukhovskij rajon" class="cls-1" d="M49.12,138.49l1,1-.5.5v1.5l2,.5,1-2.5-3.5-1M46.12,129.49l.5,1.5-.5.5,2,1,3-1.5-1.5-1v-1.5l-3.5,1M47.62,118.12v1.5l2-.5,1,2.36,1,.14.5-1,1.5,2,1.5-.5,1.5,2v1l-1.5,2,.5,1,1.5-.5-1,1.5h1.5v-1l1.5,1,1.46,2.8,1.03,1.07-1,1,1.5,1.5-1.5.5,1,1.5-1,.5-1,2.5,2,3v.5l-1.5,1,1,.5-6-2.5v1.5l-.5.5-1,2h-.5l-1,1.5h-4l-1-4-1.5-.5-.5.5v-.5l1-1,.5-1.5-1-2,1-.5-.5-1.5.5-1.5-2.5-1.5v-1l-1,1-1-2.5-1,1.5-.5-1,.5-.5-1-1,1.5-1.5h1v-1.5l-2-1.5,1.5-1v-2.5l1-.5v-2h1l-.5-3,1.74-1.7,2.27,2.33Z"/>
      <path data-code="shakhovskoj_rajon" data-title="shakhovskoj rajon" class="cls-1" d="M24.62,22.49l2.5-2h3l.5-1,1,1,4-1.5-.5-2.5.5-.5h1v-.5l1-.5,2.5-.5v-.5l1-.5-1-1.5.5-1,3.5,1-.5,3.14,2,.5v1l-1,.5,1,2-1-.5-.5,1,2,1v2.5l1.5-.5v2.5h-.45s.45,1.36.45,1.36l-2,.5-2.5,2,1.5,1.5h-1l-.5,2h-.5l.5,1.5-1,.5v1l-2,.5-.5,1.5-1.5-.5-1.5,1.5-1-.5-1,1,.5,1.5-2.51.19-1.49-1.19-3.5,1-1-1-1,1-2-1-.5-1.5,1.5-1-2-.5-1-2.5,1-1v-2.5l1.5-3-.5-.5h1-1.5l.5-1,1-.5v-3"/>
      <path data-code="shaturskij_rajon" data-title="shaturskij rajon" class="cls-1" d="M151.62,141.99l1-.5,1,1,1.5-2-1.5-2-4.5,1.5,2.5,2ZM133.12,134.49l2.5,1.5.5-1,1,.5v-.5l1-1.5,6-2.5.5-3.5,1,1,2-2.5,2,1.5,1.5-.5.5,2,1.5,1,.5-2,1.5.5,1-1,4,3.5-.5,2-2,2-.5,1.5,1.5,7.5-.5,1-1,.5.5,3-1.5,1-1-.5-2,3,3.5,2.5-.5,1.5.5,1-1.5,2-1.5-1-1,1-1,1.5v2l-1,3-1,.5v1.5h-1l-2.5,2-4.5-1-3,1.5v-1l-1.5-1.5-5.5-1-5,2,2,1.5,1.5-.5,1,3-6,4.5.5-1.5-.5-.5-1,1.5-4.14-3.96,3.14-2.54,1.5,1,1.5-3,2.5-1.5v-3l1-2.5-3-2-1.5-4,1.5-1-.5-1,2-2,4-.5v-1.5l1.5.5.5-1.5,1.5,1,.5-1-.5-1,2-2.5-6.5-4.5.5-1.5,1-.5-1-1h1l-.5-1h1v-1.5"/>
      <path data-code="shhjolkovskij_rajon" data-title="shhjolkovskij rajon" class="cls-1" d="M108.12,90.99l.5,1,1-.5-1-1-.5.5M109.62,83.49l-.5,3h1l.5-1.5.5.5-1.5-2M104.62,83.49h2l-.5-.86,2,.36.5-.5-.79-.99,1.29.49,1-1.5h1.5l-.5-.5.5-.5,1,1,2-.5-.5,1.5h1.5v1.5h1l.85-2.42.65.42,1.5-1,13-1.5-.5,1.5h2l.5,1-2,1,.5.5-1,1-.5,1.5h-.5l-.5,1.5-1,2h-1.5l1,.5-.5,1-2-1.5,1-1h-1.5l1-1-.5-1.5-1,2.5-1.5-1.36v1l-2,.5-2.5-2.64-.5,1,1,1-1.5,2.64-1-2.14-1,.5v1l-.5-.5-1,1.5v-1l-1,.5v1l-1.5,4-1-.5v-2l-1,1.5-.5-1-.5.5h-.5l2,2-1.5,1.5-2.5-2.5-2.5-.5v-2.5l-1-.5v-1.36l-1-2.5,1.5-1.14-.5-.5,1-.5v-1"/>
      <path data-code="solnechnogorskij_rajon" data-title="solnechnogorskij rajon" class="cls-1" d="M77.62,47.99l-.5.5,2-1v-2.5h1.5l-.5-.86h1l.5-1.14,4.5,1.64,3-3.5,1.5,1v-1h2l.5,2h1l-.5-2.5,2,.5,1-1-.5,5.86,1,1.5-.5,1-2,1.5,2.5,1.5v3.5l-.5,1h-2.5l.5.5-1,1-.5,1.5,1,2h-1.5l-1.5,3,4,2.14-.33,1.24-1.17.26v1l-.5.5.89.66-1.39-.16-5-.64-.5-1,1-1.5-.5-2.5-2.5-1.5v1l-1.5,2.5,1.5,2,1-1.5.75.5v.5h-1.25l.5,1-1,.5,1.5-.5v.5h-.5l-.5,1h.5l1,.14.34.34-.84,1.53-.5-2-1.5,2.5v.5l-1.5-.5-.5-1,.5.5.5-.5-2-3.36-.92.31-.08-1.44h.5l-.5-.5.5-1-1-1,2.5-2.5-2.5-.5,1-2.5-3-3.5v-5l-1.5-3,1,.5Z"/>
      <path data-code="stupinskij_rajon" data-title="stupinskij rajon" class="cls-1" d="M61.62,128.49l1-.5,2,.5.5-2,2.5-2.5,1,1,1,3,.5-.5.5-1.5,1.5.5.5,1.5h2l.5-1.5-.5-1.5h1v-1l1-1,.5,1.5h-.5v1.5l3-.5,1,1.5,3-1,6,3-1,1v1l4,1-1,1.5.5,1,1.03.21.47.93-1.5,1-1.5-1-.5,4.36-1.5-1-2,1,.5,1,1-.5-.5.5-1.5,1,1,1-2.5,2v1l-3.5,1-1.5-1.5-1,1.5-1.5.5-.5,1.5,1.5,3-1,.5v.5h-2l-.5.5h-1.5l-3.5-3-4,.5-5.5-6,1.5-1-2-3.5,1-2.5,1-.5-1-1.5,1.5-.5-1.5-1.5,1-1-1-1,1.5-2h.5l-1-1.5"/>
      <path data-code="taldomskij_rajon" data-title="taldomskij rajon" class="cls-1" d="M114.12,24.49l2.5.5,4.5-2.5,1,2,1-1,3.5,1v2l5-2,.5-1.5,1,.5-.5-2.5,1-1,2,1,.5-1,2.5.5.5,1,1.5-.5,1.5,1.5-1,1,1,1-.5,1,1.5,2-.5,2,2.5.5-.5,1.5h-.5l1,.5-4,6,2,1-1,2h-1l-1.5,1.5.5,1h-1.5l-.5-2.5h-5.5l-2.5-2-2,1.5-.5,3.5h-3.5l-4,1.5-.5-4-5.5-2,1-4v-8l-1-3"/>
      <path data-code="vlasikha" class="cls-1" d="M72.12,81.99l1-.5,1,1.5h-2v-1"/>
      <path data-code="volokolamskij_rajon" data-title="volokolamskij rajon" class="cls-1" d="M28.62,44.99l2.5-.5,1.49-3.81,2.51-.19-.5-1.5,1-1,1,.5,1.5-1.5,1.5.5.5-1.5,2-.5v-1l1-.5-.5-1.5h.5l.5-2h1l-1.5-1.5,2.5-2,2-.5-.45-1.35h1.45v-1.01l1-1h1.5s1.5,1,1.5,1l3.5.5.5,2,3-.5,1.5,1,1-2,2.5,1.5,2-3.5,1.5.5.5,1.36-1,1,1.5,1-1.5,1v1.5l-1-.5-.5,2.5,1.5,1.5-1,1,2,3h-1v1l-.5-.5-.5,1.5h-1l-2.5,1.64-2-.5-1.5,6.36-2.5-2.5-1.5,3-2.5-.5v1.5h-1.5l1,1.5h-3l-1.5,1.5.5-2.5-1,1h-1.5l-1.5-1.5-2,1-2.5-1-2,2-.5-2.5h-1.5l1,1.5-.5,1-4,.5-1-2.5.5-.5-1.5-.5-.5-1.5-1.5-.5"/>
      <path data-code="voskhod" class="cls-1" d="M61.62,51.49l2-1.5.5,2-1.5,1.5-1-2"/>
      <path data-code="voskresenskij_rajon__moskovskaja_oblast_" data-title="voskresenskij_rajon_(moskovskaja_oblast&amp;apos;)" class="cls-1" d="M98.62,120.99l2.5-2,2,1.5,2-2.5,2.5-.5,3.5,3v1h-1.5l.5,1.5-.5,1,3,1-1,1.5-1.5,1,2,2.5-2.5,3,2-.5,1.3,3.06-.79,1.58-1,1.5.5,1.5h-3.5l1.5,1.5-1.5.5-1.5,1.5-2-2v-1l-2,1-3.5-3h-2.5l-.5-1.5h-1v.5l-1.5-2-.47-.93,1.47.29,1-.5v-1l3-1.5-1-3,2-1,1,.5v-1h.5l-2.5-2h.5v-1.5l.5-1.5-1-1.5"/>
      <path data-code="zarajskij_rajon" data-title="zarajskij rajon" class="cls-1" d="M75.62,164.99l5.5-1,2.5,2,.5-1,1.5,1,.5-1.5h-.5,1l.5-1.5,1,1,1.5-1.5-1-1,.5-.5,3,2.64-1.5.5v1l2,.5-1,1,.5,1.5,4,3-.5,1.5,2,.5-.5,1.5,1.5,2-.5,1.5-2,1,1,.86-.5,1-1,.64v.86l-1,1,.5,1-.5,1-2,1-1.5-1.5.5-1.5-2.5,1v-1.5h-1l-1.5-1.5h-1.5l-2,1.5.5-2.5-3-.5v-1.5l-2,1.5-2-1,1-2-.5-2-4.5-3v-1l2.5-2.5-.5-1.5,1-2"/>
      <path data-code="zhukovskij_gorodskoj_okrug" data-title="zhukovskij gorodskoj okrug" class="cls-1" d="M94.62,105.99h3l.5,4-1.5,1,.5,2-1-2.5-1.5-.5v-2.5l-1-.5,1-1"/>
      <path data-code="zvjozdnyj_gorodok" data-title="zvjozdnyj gorodok" class="cls-1" d="M108.12,90.99l.5-.5,1,1-1,.5-.5-1"/>
    </g>
</svg>