<svg xmlns="http://www.w3.org/2000/svg" viewBox="0 0 154 108.85">
      <path data-code="ME-GOR" d="m23.25,43.25l1,1.5h2l1-1-1.5-1-2.5.5M1.25,35.25l1.5,1,2.5-3.5,1.5.5-.5,6-2,1,1,2-.5,1.5,1.5.5v-1.5l1,.5.5-1,.5,1,6-1.5,6,1,1-2-2,.5,1-1-1.5-1.5,1.5-.5.5-1.5-1.5-1,1-1-1-.5.5-1-.5-.5h3l6.5-12,11.5,6.5-2,3.5,1.5,1-2.5,3.5-3-1.5-3.5,4-.5,3-3,1,2.5,1.5,1.5,3.5-1,.5-.5,9.5-1.5-2h-1l1,1.5-2.5,1-1.5,1.5-3.5.5-1-3.5h-3l-.5-1h-2l-.5-2-1.5,1h.5l.5.5-5.5.5-1.5-1-2,.5-.5.5-1.5-1-1,1v-.5l1.5-1-2.5-1,2-1-1.5-1,.5-2.5,1-1h2.5l-.5-1.5,1-1h-2l-.5-1-2-.5,1-3.5-1-1,1-1.5-.5-1.5"/>
      <path data-code="ME-JOS" d="m81.75,48.25l1.5,1,.5-.5-1.5-1-.5.5m-6.5,0l2.5-2,2,2,.5-.5,1.5.5,2-2.5.5,2.5h1.5l1.5,2-1.5-.5-.5,1.5h-1.5l-1.5-2h-1.5l.5,1.5-1,1-2.5,1-1-1v-1l-1.5-2.5m-.5,1.5l.5.5-1,.5v-.5l.5-.5Zm.5,1.5h1.5l-.5.5-1-.5m-.5,0h.5v.5h-.5v-.5m-1.5,0l.5-.5-.5.5v-.5.5Z"/>
      <path data-code="ME-YUR" d="m2.75,15.25l1,.5,1-1.5-.5-.5,1-1-.5-.5,3-2.5,2,2,1-1,4.5,2.5.5-1,2.5,1v-2l-1-1.5,1.5-.5-2-.5,1.5-1v-1.5l1.5,2L25.25.25l4.5,2.5,7,1,.5,2-4,4.5-1,4.5-10,18h-3l.5.5-.5,1,1,.5-1,1,1.5,1-.5,1.5-1.5.5,1.5,1.5-1,1,2-.5-1,2-6-1-6,1.5-.5-1-.5,1-1-.5v1.5l-1.5-.5.5-1.5-1-2,2-1v-4.5l1.5-5.5,2.5-1.5v-1l-1.5-1.5-5.5-1.5,2-2-3-2.5.5-4"/>
      <path data-code="ME-KIL" d="m33.25,10.25l4-4.5,2.5-4,5.5,4,.5.5-1,1,1,.5.5-1,2,1.5,1-.5,1.5.5,1-1.5,1.5.5-.5,2h-1l3,3.5,3-1,.5.5-1,1v1l2.5-.5,1.5,2.5h1l1.5,1.5v3.5l-1-1-1.5,2.5-1,.5.5,2.5,2-.5,1,1.5v1h-1l.5,1.5-.5.5v1l-1,.5.5,2.5-4.5,3.5v-1.5l-1-.5-1.5,4h2.5l-2,1.5-.5-.5-5,11.5-3.5,5.5-3-2-1.5,2-5.35-.7-4.65.7-2.5-.5.5-9.5,1-.5-1.5-3.5-2.5-1.5,3-1,.5-3,3.5-4,3,1.5,2.5-3.5-1.5-1,2-3.5-11.5-6.5,3.5-6,1-4.5"/>
      <path data-code="ME-KOZ" d="m23.25,43.25l2.5-.5,1.5,1-1,1h-2l-1-1.5"/>
      <path data-code="ME-KUZ" d="m106.25,56.75h1l1-1.5h1v-1.5h.5l-1-1,1.5-1.5,3-2,1,.5,1-1,1.5,1.5,1-1.5,4.5,2.5.5,1-1.5,2h1v1.5l3.5,1,.5-1,.5,1-1,1,2.5.5-.5,1.5,1.5,1,2.4.3-.4,1.05-1-.5-1,2.5-4.5-1-1.5.5-1,1.5.5,1.5-1.5.5-.5,1,1.5,1.5-.5,2-3,.65-2-.5-2-4-1.5.5-1-1.5.5-1.5-1.5-1-1.5,2-3-2.5,2-2.5-3.5-2.5,1-1.5v-.5"/>
      <path data-code="ME-MAR" d="m138.75,57.25l4,1,.5-1-.5-1.5,2-.5-1-.5.5-1v-2l1.5.5,1-1,1.5,1.5-.5,1,1.5.5h-1v2.5h-.5l.5,2.5-.5,2.5-2.5.5v1l1,1-1.5,1,.5,1.5,4,1,1.5,3.5h2.5l-.5,1,1,2h-1l-1,2,1.5,1-2,4h-1l-2.5,3.5h-1.5l1,2.5-2,1.5,4,2,.5,1.5-1,1.5-2,1-3.5-.5-2,1-1,2h-4l.5-2h2l1-1.5-1.5-1-1.5,1v.5l-3,2-2.5-4,3.5-1.5-1-3.5-2,.5-1.5-1.5-4,.5-.5-.5,1.5-2-.5-.95,1,.8v-1l1.5,1,1-1,2.5,1-1-2,1-2-.5-.5,2-.5.5-1h.5l1-1-.5-.5,1-.5-1-2v-3.5l-.5-.5,1-1.5v-2l.5-1,1-.5h1.5l.5-3,1.5-1-2-.5-1-1.85.5-1.5"/>
      <path data-code="ME-MED" d="m81.75,48.25l.5-.5,1.5,1-.5.5-1.5-1m-8.5,3l.5-.5-.5.5v-.5.5Zm1-.5l1-.5-.5-.5-.5.5v.5Zm.5.5v.5h.5v-.5h-.5m.5,0l1,.5.5-.5h-1.5m1.5-.5v1l1,1,2.5-1,1-1-.5-1.5h1.5l1.5,2h1.5l.5-1.5,1,.5h.5l-1.5-2h-1.5l-.5-2.5-2,2.5-1.5-.5-.5.5-2-2-2.5,2,1.5,2.5Zm-20-15.5l1,.5v1.5l4.5-3.5-.5-2.5,1-.5v-1l.5-.5-.5-1.5h1l.5-1v.5l3-1,5-.5,1.5,3v-1.5l2.5-.5,1-1.5,2.2.8,1.3,2.6-3.5,5,4,1,4.5,4-.5,1.5.5,2.5,2.5,1v-1l2,1,.5-1,1,1,1.5,3.5v1.5l-.5.5,2,2-2,1v.5l-6.5,1-.5,1.5-4,6,7.5,2.65-1,1.5-1-1-2,3-3.5-.5-.5,1.5-1-.5-.5,1,.5.5-.5,1,.5,2-1,1-1-.5-.5,1-5.5-3,1-.5-1.5-1.5-8.5-5,4.5-8-15.5-8.65,3-6.85.5.5,2-1.5h-2.5l1.5-4.05"/>
      <path data-code="ME-MOR" d="m92.25,67.1l1.5-2.5,2-1,4,3,2-2,2,1,3-1.85,3,2.5,1.5-2,1.5,1-.5,1.5,1,1.5,1.5-.5,2,4,2,.5,3-.65,2.5,4.5-1.5,2.5v1.5l4,3.2.5.95-1.7,2.3.7.2-.5,2-2,1.5-3-.5v-2.5l2-1-1.5-1-.5,1h1l-1,1-1-.5-3,5-1,1-1-2-1,2-1-.5-1-2,.5-3-2-1-.5,1.5.5.5-1,.5-1.5-2-1.5,1.5-1-1-1,1v.5h-1l-1,1.5h-4.5l-.5,2,2,1.5,1-.5.5,2.5-1,1-2-2.65-4-.5-1.5-2-4-1.5h-1.5l-.5-1-3.5-1,3.5-6.5h1.5l1.5-2.5,2-.5-.5-.5,1-1.5-1.5-2,1-1-3.5-2.5,1.5-1.5-.5-1.5,3.5-1Z"/>
      <path data-code="ME-NOV" d="m104.75,25.6l1-1,1,1.5,1-1.5,2-.5,1.5,1-1.5,1.5,1.5,1.5-.5,1,6-.5.5-1,2.5,3.5,1-1,4.5,2.5v.5l-1,1,.5,2.5-1.5.5,2,2.5-1.05.25.55,1.75-1,.5.5.5-1.5,2v1.5l-1.5.5v1l-.75,2.65-2.75-1.5-1,1.5-1.5-1.5-1,1-1-.5-3-4.15v-2.5h-1l-2.5-2.5,1-1v-1.5l-1.5-.5-1.5,1-1.5-1,1.5-.5-.5-2,1-.5-1-1-1.5,1-.5-1,.5-2,.5-.5,2,1,3-.5-1-.5.5-2.5-3-1.5v-1"/>
      <path data-code="ME-ORS" d="m79.25,25.6l3.5-2,.5,1,1.5-.5-.5-1,3,2-.5-2.5,1-.5,1,1.5-.5,3,2,1-.5,1.5,1.5-1,.5.5-.5,2,2-.5.5-1.5,1.5,1.5,1-.5.5,1.5,1.5.5,1.5-1,1,1,1-2-1-3,2,1.5,2-1v-.5l3,1.5-.5,2.5,1,.5-3,.5-2-1-.5.5-.5,2,.5,1,1.5-1,1,1-1,.5.5,2-2.5,1-.5,4-6.5-.5-3.5,2.5-1-1-.5,1-2-1v1l-2.5-1-.5-2.5.5-1.5-4.5-4-4-1,3.5-5-1.5-3"/>
      <path data-code="ME-PAR" d="m122.25,65.1l1-1.5,1.5-.5,4.5,1,1-2.5,1,.5.4-1.05.6.05-.5-3,1.5-1.5,2.5,2.5-.5,1,3-1.35,1,1.85,2,.5-1.5,1-.5,3h-1.5l-1,.5-.5,1v2l-1,1.5.5.5v3.5l1,2-1,.5.5.5-1,1h-.5l-.5,1-2,.5.5.5-1,2,1,2-2.5-1-1,1-1.5-1v1l-5-4v-1.5l1.5-2.5-1-.5-1.5-4,.5-2-1.5-1.5.5-1,1.5-.5-.5-1.5"/>
      <path data-code="ME-SER" d="m124.25,40.1h2l3.5-1.5v-2l1-1v-1l2,.5.5-1.5.5.5-1-1.5,2.5-4,2.5.5.5-.5,4-.5-.5,1.5.5,1.5-1,1h-1l-1.5,2.5.5,1-2,1.5h-1.5l-.5,3,2-.5-2,1,1,1.5-1,1v4l-1,.5,2.5,1.5v1l1.5,1.5-.5,1,2-.5v-2l4.5,1.5v2.15l-.5,1,1,.5-2,.5.5,1.5-.5,1-4-1-.5,1.5-3,1.35.5-1-2.5-2.5-1.5,1.5.5,3-3-.35-1.5-1,.5-1.5-2.5-.5,1-1-.5-1-.5,1-3.5-1v-1.5h-1l1.5-2-.5-1-1.75-1,.75-2.65v-1l1.5-.5v-1.5l1.5-2-.5-.5,1-.5-.5-1.5"/>
      <path data-code="ME-SOV" d="m91.75,43.6l3.5-2.5,6.5.5.5-4,1-.5,1.5,1,1.5-1,1.5.5v1.5l-1,1,2.5,2.5h1v2.5l3,4.15-3,2-1.5,1.5,1,1h-.5v1.5h-1l-1,1.5h-1v.5l-1,1.5,3.5,2.5-2,2.5-3,1.85-2-1-2,2-4-3-2,1-1.5,2.5-3.5,1-7.5.15.5-1.5,3.5.5,2-3,1,1,1-1.5-7.5-2.65,4-6,.5-1.5,6.5-1v-.5l2-1-2-2,.5-.5v-1.5l-1.5-3.5"/>
      <path data-code="ME-VOL" d="m68.05,103.8l-.8.8-.3,2.05-1.7-2.55v-1.5h2l.8,1.2Z"/>
      <path data-code="ME-VLM" d="m70.25,88.6l.5-.5,4,3,2-3.5,1.5-.5.5,1.5,3,.5,1-1,3.5,1,.5,1h1.5l4,1.5,1.5,2,4,.5.5,1h-.5l-1,2h-1l-1,1-4-.5-3,4-1.5-1.5-1.5.5.5-2.5-1.5.5v1.5h-2l1.5,2-1,.5-2,2.5-1.5.5-6-3.5-2.5.5-2,1.5-1-1.5-1,1-1-1v1.5l3,4.5-4-3-2.05-3.3,1.2-2.9,3.85-3.3,1,.5,1-2,.5.5,1.5-1-1-.5,1.5-1.5-1-2-1.5-.5.5-1h.5Z"/>
      <path data-code="ME-ZVE" d="m67.75,55.75l-4.5,8,8.5,5,1.5,1.5-1,.5,5.5,3,.5-1,1,.5,1-1-.5-2,.5-1-.5-.5.5-1,1,.5,7.5-.15.5,1.5-1.5,1.5,3.5,2.5-1,1,1.5,2-1,1.5.5.5-2,.5-1.5,2.5h-1.5l-3.5,6.5-1,1-3-.5-.5-1.5-1.5.5-2,3.5-4-3-.5.5h-.5l-.5,1,1.5.5,1,2-1.5,1.5,1,.5-1.5,1-.5-.5-1,2-1-.5-3.5,3-1-2.5-3.5-2.5-1-3,1.5-1-1-2.5h-1l2-4,1-.5v-2.5l-14-10.5,2.5-4-1.5-1,4-6-4.5-3,3-4.35,2-4.65,15.5,8.65Z"/>
</svg>