<svg data-code="RU-MO" data-title="Слой 2" xmlns="http://www.w3.org/2000/svg" viewBox="0 0 175.25 123.39">
    <g data-code="respublika_mordovija" data-title="respublika mordovija">
      <path data-code="ardatovskij_rajon__respublika_mordovija_" data-title="ardatovskij_rajon_(respublika_mordovija)" class="cls-2" d="M153.13,67.26v-1l2.5-.5.5-2h1l2-3-1-2,.5-1,4,3.5,5-1.5,1.5,3v1l-1,.5v2l2.5-3,1.5.5.5-3h1.5l.5,4.5-1.5,1.5v1h-2l1,.5-1,2.5,1,1-.5,1,1,4-.5.5v.5l-1.5,1.5-.5,2.5,1,1.5-2-.5,1,1.5-2.5,1.5,1,1.5-2.5,1.5-1-1.5-2-.5-2,3h-1v-3l1-1-1-1,1-.5-4.5-2.5.5-3-2,.5-2.5-4.5h-2v-1l1.5-.5.5-2,.5-.5-.5-.5-2,1-1.13-.74.63-1.26-.5-1.5,3.5-.5Z"/>
      <path data-code="atjashevskij_rajon" data-title="atjashevskij rajon" class="cls-2" d="M139.13,78.26l1.5-1.5v-.5l3.5-1.5.5-1,3,.5,1.87-3.74,1.13.74,2-1,.5.5-.5.5-.5,2-1.5.5v1h2l2.5,4.5,2-.5-.5,3,4.5,2.5-1,.5,1,1-1,1v3h1l2-3,2,.5,3.5,5-.5,2-6,1v1h4v1.5l-5.5-.5-1,.5-2-2-1,1.5v-2h-1l-.5,1-4-.5-.5,1-4.18-1.05.18-1.45-1.5-1,.5-1-3-1-.5-2,2.5-2,.5,1,2-2.5-.5-1-2,1.5-1-2-1,.5v-2l-3.5-2.5h1l.5-.5-1.5-1.5"/>
      <path data-code="atjur_evskij_rajon" data-title="atjur&amp;apos;evskij_rajon" class="cls-2" d="M46.13,36.76l1,1.5,1.5-2,1,1,1-1.5,4.5,3,.5-1,.5,1.5v-1.5l4,1,1,2.5-1,1,.5.5v1.5h3.5l-1.5,2-1-.5-2,1,1,1.5-1,4h1.5l.5,2-.5,2.5-2-.5.5,1.5-2,1.5-1-1.5-4.11,3.63-.9-.76,1-1.5h-1l-.5-2.5-1.5.5.5.5-2,.5-.5-.5.5-1.5-2-1,.5-5,1-1-2.5-1,.5-6-.5-3,1-2.36Z"/>
      <path data-code="bol_shebereznikovskij_rajon" data-title="bol&amp;apos;shebereznikovskij_rajon" class="cls-2" d="M119.13,104.76l2.5,1v-1l1-.5.5-2,3.5-.5.5-2,1.5.5.5,2.5.5-1.5.5.5-1,1.5.5.5,1-2,3.5-.5v1h2l1-1,.5,1-1,.5.5,1.5h-1v1l2.5-3.5-1,3.5,1.5.5,1-1.5-1-2h1l-1-.5v-3l1-.5.5,2,1.79.51,1.21,3.99h3l1.5,3-.5,4h1l-1,1,.5.5-1.75,2.9-3.25.1-1.5-1.5-2.5,1-.5-2-1,.5-.5-1.5h-1l-1.5,2h-1.5,1l-1.5-1h1v-.5h.5-1.5v-1l-2,3-3.5,1v1l-1.5,1.5-2-2,.5-.5v-1l-2-.5-1.5-2-1-.5-1,1.5-1,.5,1-3,.5-.5-1.5-1.5h1v-1l1.5,1.5.5-1-1.5-4"/>
      <path data-code="bol_sheignatovskij_rajon" data-title="bol&amp;apos;sheignatovskij_rajon" class="cls-2" d="M139.63,58.76l3.5-3-.5-.5,1-.5v-1l1.5-.5.5-1-.5-1.5h1l1-2.5,2.5-2,1,.5,1-1.5,2.5,2v-2.5l1.5,1.5,1.5-2.5.5.5,1-.5,3.5,1.5v1.5h-.5l-.5,1h1v1.5l-1,1h-1l-1,1h-1l.5,1.5-2,.5.5,1-2.5,1.5v1l3.5,1,1,3-2,3h-1l-.5,2-2.5.5v1l-3.5.5h-1.5v-1l1-.5h-1l-1.5-3,1.5,4-1,.5-2-2.5h-.5v1l-1-.5,1.5-2-1.5-1-1.5-.5-1.5.5-2-1.5h1.5l-1.5-.5,2-1.5-1-.5"/>
      <path data-code="chamzinskij_rajon" data-title="chamzinskij rajon" class="cls-2" d="M126.62,89.62l1-2,3-1.5.5-.5,1,.5,2-2.5-1-.5,2-.5-1-1.5,1,.5,1.5-3.36,4-1.5-1.5,1.5,1.5,1.5-.5.5h-1l3.5,2.5v2l1-.5,1,2,2-1.5.5,1-2,2.5-.5-1-2.5,2,.5,2,3,1-.5,1,1.5,1-.5,4-1.5.5.5,2h-2.71s-1.79-.5-1.79-.5l-.5-2-1,.5v3l1,.5h-1l1,2-1,1.5-1.5-.5,1-3.5-1.5,3.5h-1v-1h1l-.5-1.5,1-.5-.5-1-1,1h-2v-1l-3.5.5-1,2-.5-.5,1-1.5-.5-.5-.5,1.5-.5-2.5-1.5-.5-.5,2-2.02.29-.98-2.29.5-3.5,1,.5.5-2-1.74-.56.73-3.07v-1l2-.5Z"/>
      <path data-code="dubenskij_rajon__respublika_mordovija_" data-title="dubenskij_rajon_(respublika_mordovija)" class="cls-2" d="M145.13,100.76l-.5-2,1.5-.5.32-2.55,4.18,1.05.5-1,4,.5.5-1h1v2l1-1.5,2,2,1-.5,3-.5,2.5,2-2,2-3.5,1,1,1h3.5v.5h-.5l.5.5-4-.5v1l-1,1v3l6.5,3.5-1.5,1v1l-2.5,1,.5,1-2.5.5v1l-4.5-2v1.5h-.5l.5-1-3.5-.5v-1.5l-3,1.5-.5,1.5h-3l-.5-.5,1-.5,1.5-2.5-.5-.5,1-1h-1l.5-4-1.5-3h-3l-1.21-3.99h2.71Z"/>
      <path data-code="el_nikovskij_rajon" data-title="el&amp;apos;nikovskij_rajon" class="cls-2" d="M79.62,24.62l1-1,2,.64,2.5,4,1.5.5-.5.5,2.5,2.5,3,2-3.5,2v1l2,2.5,1.5-.5,1.5,1.5-4,5,3,3-.5,2.5,2.5,1.5v1l-1,.5-3-1.5h-1.5l-1-1.5-2.5,1,.5.5-1,2-2.5,3-1-3.5-3.5-1.5,1-2-1-1h1.5l-1.5-1.5.5-.5-6.5-2v-3.64h1.5l.5-2,1.5-1-.5-1,1-1.5.5-2.5,4-3.5-1.5-1,1-1.5-2.5-.5,1-2,1.5-.5Z"/>
      <path data-code="gorodskoj_okrug_saransk" data-title="gorodskoj okrug saransk" class="cls-2" d="M102.62,93.12l.5,2,.39-2.35,1.11-.52,2,.5v-1.5l2-1,3.5,2h2l.5.5h-1l1,1.5-1.5,2.5h-.5l2.5,1.5-3.5,1,.5,2.5h1.5l1,2h-1l1.5.5-1,2-6-1.5-1-1,1-1-1,.5v-1.5l-5,1-1,4-.4-.79.89-3.84-2-1.5.5-1,2.5-.5,1-2-2-3,1-1Z"/>
      <path data-code="ichalkovskij_rajon" data-title="ichalkovskij rajon" class="cls-2" d="M116.13,69.26l.5-1h1.5l.5-1.5,1.5-.5-.5-1h2.5v-4.5l1-2,5-2,1,1.5v3l2-1.5.5-1.5.5.5,2.3-3.76,1.5,1.5,4.7,1.26-1,1,1,.5-2,1.5,1.5.5h-1.5l2,1.5,1.5-.5,1.5.5,1.5,1-1.5,2,1,.5v-1h.5l2,2.5,1-.5-1.5-3.5v-.5l1.5,3h1l-1,.5v1h1.5l.5,1.5-2.5,5-3-.5-.5,1-3.5,1.5v.5l-4,1.5-.21.47-2.29-1.47-1,1.5-.5-2-1,1-2-1.5-2.5,1-1.5-1v-1.5l-5-2-2.5.5-.5-1,1-.5v-1l-2-.5-.5-1"/>
      <path data-code="insarskij_rajon" data-title="insarskij rajon" class="cls-2" d="M55.13,99.26l3.5-3,3,1,2.5-2-.5-2,.5-2,.5,1,1-1-1-1h1l-.5-1,1,.5,1.5-1.5.5,1,2-1,1.5,1.5-1,1-1,2.5,3.5,3.5,2-1,1,1.5.5-2.5,2,.5,1.08-1.35.92,1.72-1,1.5,1,1.5v3.64l-2-.5-.5,1.5-1.5.5-1,3,1.5,1v1.5l-1-1-1,.5,1.5,2.5-.5,2v1.5l-1.5,1-4-2.5-.5,1-4-.5.5-1h2.5l-3.5-1v-3l-1.5-1,1.5-.5-3-1-.5,1-3.5-2.5v-1h-2.5l-.5-.5,1.5-2.5-1.7.24-.3-1.74"/>
      <path data-code="kadoshkinskij_rajon" data-title="kadoshkinskij rajon" class="cls-2" d="M74.63,73.76l4.01-2.71.49,1.21,2-1.5,3,1.36.5,1h-1l2,2.5-2.5,1,1-1-.5-1.5-1-.5-1,1h.5l-2,1.5-.5,2-.5-.5-1,1,9,6.5-2,1.5-1.5-.36-2.5,3,1.5,1-.5,2-1.5.5-2,2.5-2-.5v1.5l-.5,1-1-1.5-2,1-3.5-3.5,1-2.5,1-1-3-3,2.5-2.5-.5-3,2-.5,3.5,3.5,1-.5,1-2.5-2-5-1.5.5v-1l1-1-1-1"/>
      <path data-code="kochkurovskij_rajon" data-title="kochkurovskij rajon" class="cls-2" d="M99.13,107.26l1.6-1.29.4.79,1-4,5-1v1.5l1-.5-1,1,1,1,6,1.5,1-2-1.5-.5h1l1-2.5,1.5-1,.5.5-1,.5,1.5,2v2l1,.5-1,2,1.67-1.22.83,2.22-.5,1-1.5-1.5v1h-1l1.5,1.5-.5.5-1,3,1-.5,1-1.5,1,.5,1.5,2,2,.5v1l-.5.5,2,2-2.5.5-1-1-1,.5.5,1-4,.5-.5-.5-.5,3h-1l-2.5-2.5.5-1.5-3-1.5-1,.5v1.5l-4-2.5-3,.5-2-1,1.5-3.5-1.5-5-1.5-.5"/>
      <path data-code="kovylkinskij_rajon" data-title="kovylkinskij rajon" class="cls-2" d="M73.63,70.76l.5,1,1.5-1.5h-.5l-1.5.5M56.63,57.76l1,1.5,2-1.5-1,1.5,3.5,1.5,1.5-1,2.5-.5v1l1.5,1.5,4.5-1.5v2.5l1.5,1,1.5-1.5,1,1,1.5,5-2,2,1.5,1v-1.5h1l.52,1.29-4.02,2.71,1,1-1,1v1l1.5-.5,2,5-1,2.5-1,.5-3.5-3.5-2,.5.5,3-2.5,2.5,1.5,1.5-2,1-.5-1-1.5,1.5-1-.5.5,1h-1l1,1-1,1-.5-1-.5,2,.5,2-2.5,2-3-1-3.5,3-1-2-1,.5-.5-4.5h-.5l.5-1-1-.5h2l.5-1.5h.5v-.5h1l.5-1-1-2.5.5-2-1.5-5h-2.5l-2-2.5-1.2-1.79-.3-3.35,1.5-2.5,3.5-2.86-1-2,2-1.5-1.61-1.37,4.11-3.63Z"/>
      <path data-code="krasnoslobodskij_rajon" data-title="krasnoslobodskij rajon" class="cls-2" d="M59.63,46.76l2-1,1,.5,1.5-2h-1.99v-.64s.99,0,.99,0l.5-1,2.5-2,1,2,.5-1,1-.5,1,2.64,2-1.5v3l6.5,2-.5.5,1.5,1.5h-1.5l1,1-1,2,3.5,1.5,1,3.5,2.5-3,1-2-.5-.5,2.5-1,1,1.5h1.5l.59.29-1.59,2.71h-.5l2,8.36-3.5,2.5,1,1-.5,2-2-.5-2.5,1.14v1h-2l-2,1.5-1-2.5h-1v1.5l-1.5-1,2-2-1.5-5-1-1-1.5,1.5-1.5-1v-2.5l-4.5,1.5-1.5-1.5v-1l-2.5.5-1.5,1-3.5-1.5,1-1.5-.5-1.5,2,.5.5-2.5-.5-2h-1.5l1-4-1-1.5M73.63,70.76l1.5-.5h.5l-1.5,1.5-.5-1"/>
      <path data-code="ljambirskij_rajon" data-title="ljambirskij rajon" class="cls-2" d="M101.13,80.76l1.5-1,1.5,2,2.5-.5v-.5l1-1.5-1-1.5,1-1.5v-1.14h2l.5-1.5,1.12-.98.88.12,1.5,1.5,1-1v1.5l1.25,1.98-3.25.89.5,1-1,1.5-1.5-1-.5,2.5,1-1,2,1.5-1.5,2,.5.5v2l2.5.5,1.5-1,1.5,1.5,1-1,2,2-2,1.5v2l1.5-1.5.5,2-2.5.5v2l2-.36,2-1.14,3.5,1.14-.5,2-1-.5-.5,3.5.98,2.29-1.48.21-.5,2-1,.5v1l-2.5-1,.67,1.78-1.67,1.22,1-2-1-.5v-2l-1.5-2,1-.5-.5-.5-1.5,1-1,2.5-1-2h-1.5l-.5-2.5,3.5-1-2.5-1.5h.5l1.5-2.5-1-1.5h1l-.5-.5h-2l-3.5-2-2,1v1.5l-2-.5-1.11.52.11-.65-1.5-1,1-1h-2l-1.5-2,.5-2.5,1-1v-1.5l1-1.86-1-.5"/>
      <path data-code="romodanovskij_rajon" data-title="romodanovskij rajon" class="cls-2" d="M110.62,79.12l1.5,1,1-1.5-.5-1,5.5-1.5.35-2.92,2.15-.44,5,2v1.5l1.5,1,2.5-1,2,1.5,1-1,.5,2,1-1.5,2.29,1.47-1.29,2.9-1-.5,1,1.5-2,.5,1,.5-2,2.5-1-.5-.5.5-3,1.5-1,2-2,.5v1l-.73,3.07-1.77-.57-2,1.14-2,.36v-2l2.5-.5-.5-2-1.5,1.5v-2l2-1.5-2-2-1,1-1.5-1.5-1.5,1-2.5-.5v-2l-.5-.5,1.5-2-2-1.5-1,1,.5-2.5"/>
      <path data-code="ruzaevskij_rajon" data-title="ruzaevskij rajon" class="cls-2" d="M83.63,86.26l1.5.36,2-1.5.5.5,1.5-2,1,.5.5-1.5,6-.5,1.5,2,1.5-1h1.5v1.5l-1,1-.5,2.5,1.5,2h2l-1,1,1.5,1-.5,3-.5-2-1,1,2,3-1,2-2.5.5-.5,1,2,1.5-1,4.5-3,1.5-3-3v-.5h-3l.5-1-3-2-2.5,1.5-2.5-1.5v1.5l-1.5,1-.5-2.5-1.5-.5v-2.5l-1-1.5,1-1.5-.92-1.72.92-1.15,1.5-.5.5-2-1.5-1,2.5-3Z"/>
      <path data-code="sarov__respublika_mordovija_" data-title="sarov_(respublika_mordovija)" class="cls-1" d="M78.88,15.98l-.95-.47.2-1.88-1.6.17.27.81-1.37,1.9-1-1.5v-1.5l-1,.5-.31-.31-1.99.43-3,5,9,4.5,2.5-4-.75-3.65Z"/>
      <path data-code="staroshajgovskij_rajon" data-title="staroshajgovskij rajon" class="cls-2" d="M89.13,55.26l1.59-2.71,2.41,1.21,1-.64v-1l2.5,2.5-1,3,1,1-.5.5,1.5,2,2,1.5,3.5-2.5.5,2-.5,3-1.5.5,1-1.5-1-.5-1,2h-1v.5l3.5,1.5,4-.5.5,1.5-.5,1,1.5,1,1,2.5h2l-1.5.5-.5,1.5h-2v1.14l-1,1.5,1,1.5-1,1.5v.5l-2.5.5-1.5-2-1.5,1,1,.5-1,1.86h-1.5l-1.5,1-1.5-2-6,.5-.5,1.5-1-.5-1.5,2-9.5-7,1-1,.5.5.5-2,2-1.5h-.5l1-1,1,.5.5,1.5-1,1,2.5-1-2-2.5h1l-.5-1-3-1.36h2v-1l2.5-1.14,2,.5.5-2-1-1,3.5-2.5-2-8.36h.5Z"/>
      <path data-code="temnikovskij_rajon" data-title="temnikovskij rajon" class="cls-2" d="M78.12,13.62l1-.5v.5l-.5.5-.5-.5M42.12,33.12l2.14-3.7,3.86,2.7,3.5-7-1.5-.5,2-3,1.5.5,1.5-2,1.5,2.5h.5l.5-1,1,.5,2-4.5-1-1,1-1,.71,1.31-.21.69,2.5.5,6.5-5.5,1,1.5,1.5-1.5,1.5,1-3,.5-3,5,9,4.5,2.5-4-.5-4h.5l.5.5-.5,2,.5.5,3.5,2.5-.5,3-1.5.5-1-1-1,1-1.5.5-1,2,2.5.5-1,1.5,1.5,1-4,3.5-.5,2.5-1,1.5.5,1-1.5,1-.5,2h-1.5v.64l-2,1.5-1-2.64-1,.5-.5,1-1-2-2.5,2-.5,1h-1v.64s-1.5,0-1.5,0v-1.5s-.5-.5-.5-.5l1-1-1-2.5-4-1v1.5l-.5-1.5-.5,1-4.5-3-1,1.5-1-1-1.5,2-1-1.5-1,2.36-3.34-2.44,1.85-2.56-1.5-1"/>
      <path data-code="ten_gushevskij_rajon" data-title="ten&amp;apos;gushevskij_rajon" class="cls-2" d="M40.12,22.12l.5.5v.5-1h-.5M40.62,4.12l2.5-1.5-1-.5.5-1,1-.5.5,2-1.5,1-1,3.5,2,1,.5-3-1-1,3.5-1.5v3l1.5,3h5v.5l-1,1.5,1,.5.5,2-1,.5,1,.5,1-.5,1.5,2,4-1,.5,3-2,4.5-1-.5-.5,1h-.5l-1.5-2.5-1.5,2-1.5-.5-2,3,1.5.5-3.5,7-10-7,.5-3h1.5l-.5-.5,3,1-1-3.5,1-1.5-.5-1,2.5-1.5-.5-2.5-1.5,1-1-.5v-2.5l-1.5.5v-2h-1.5l2-1.5-.5-1.5,1-.5-.5-1.5"/>
      <path data-code="torbeevskij_rajon" data-title="torbeevskij rajon" class="cls-2" d="M37.12,43.12l4.65-6.44,3.35,2.44.5,3-.5,6,2.5,1-1,1-.5,5,2,1-.5,1.5.5.5,2-.5-.5-.5,1.5-.5.5,2.5h1l-1,1.5,2.5,2.14-2,1.5,1,2-3.5,2.86-1.5,2.5.5,1-1.5,1v-1l-2.5.5-2.5-3.5-.5-2-1.5,1-3.5-2-1,1.5-1.5-1.5-1.5,2h-1.5l1-4.5,1-2,1,.5v-1l-1.5-1,.5-1.5,1.5-.5-2-3.5,1.5-1.5h3v-5.5l-1.5-.5,2-3-.5-1.5"/>
      <path data-code="zubovo-poljanskij_rajon" data-title="zubovo-poljanskij rajon" class="cls-2" d="M13.62,30.12l3.5,4.5,2-.5,1.5,1,2-1.5,3.5.5.5-1.5,3-1.5,3.5,1.5.5-1.5v-2.5l.5-1-1.5.5v-1l2.5-1.5,1-2,1.5.5-1,1.5,1.5-.5,6.14,4.3-2.14,3.7,1.5,1-6.5,9,.5,1.5-2,3,1.5.5v5.5h-3l-1.5,1.5,2,3.5-1.5.5-.5,1.5,1.5,1v1l-1-.5-1,2-.5,4.5-1.5,2.5,2,1.5-1.5,3.5-2-.5.5-3.5h-2l-1,1,1,.5-1,1.5-1.5-1,1.5.5-1-1.5-5.5-.5-1-2.5-2-.5v-1.5h-1l-1.5,3.5-2,.5-.5-1,4-3.5h-3l.5-2-5.5,3-.5-2h1l1-1.5h1.5l1-1.5h-3.5l-2,2,.5,3.5-2-1,.5-3-2-1,1-1.5-.5-1-3-1,3-1,1.5-3,3-2h2.5l2.5-3-2.5-3.5v-6l3-.5-.5,1-1-.5-.5,1,2.5,1.5,4-.5-1,1v2l3,1.5,1-2.5-.5-1,.5-1,.5.5,2-.5,2,4.5.5-3-1-2-1-.5-1.5-7.5-1.5-.5-2.5,1.5.5,1.5-2-.5-.5,1.5-1,.5-3-2.5v-1h.5l-.5-1,1-1v-.5h1l-1-3.5"/>
    </g>
</svg>