<svg xmlns="http://www.w3.org/2000/svg" viewBox="0 0 174.5 122.65">
      <path data-code="MO-ARD" d="m152.75,66.9v-1l2.5-.5.5-2h1l2-3-1-2,.5-1,4,3.5,5-1.5,1.5,3v1l-1,.5v2l2.5-3,1.5.5.5-3h1.5l.5,4.5-1.5,1.5v1h-2l1,.5-1,2.5,1,1-.5,1,1,4-.5.5v.5l-1.5,1.5-.5,2.5,1,1.5-2-.5,1,1.5-2.5,1.5,1,1.5-2.5,1.5-1-1.5-2-.5-2,3h-1v-3l1-1-1-1,1-.5-4.5-2.5.5-3-2,.5-2.5-4.5h-2v-1l1.5-.5.5-2,.5-.5-.5-.5-2,1-1.15-.75.65-1.25-.5-1.5,3.5-.5Z"/>
      <path data-code="MO-ATJ" d="m138.75,77.9l1.5-1.5v-.5l3.5-1.5.5-1,3,.5,1.85-3.75,1.15.75,2-1,.5.5-.5.5-.5,2-1.5.5v1h2l2.5,4.5,2-.5-.5,3,4.5,2.5-1,.5,1,1-1,1v3h1l2-3,2,.5,3.5,5-.5,2-6,1v1h4v1.5l-5.5-.5-1,.5-2-2-1,1.5v-2h-1l-.5,1-4-.5-.5,1-4.2-1.05.2-1.45-1.5-1,.5-1-3-1-.5-2,2.5-2,.5,1,2-2.5-.5-1-2,1.5-1-2-1,.5v-2l-3.5-2.5h1l.5-.5-1.5-1.5"/>
      <path data-code="MO-ATY" d="m45.75,36.4l1,1.5,1.5-2,1,1,1-1.5,4.5,3,.5-1,.5,1.5v-1.5l4,1,1,2.5-1,1,.5.5v1.5h3.5l-1.5,2-1-.5-2,1,1,1.5-1,4h1.5l.5,2-.5,2.5-2-.5.5,1.5-2,1.5-1-1.5-4.1,3.65-.9-.75,1-1.5h-1l-.5-2.5-1.5.5.5.5-2,.5-.5-.5.5-1.5-2-1,.5-5,1-1-2.5-1,.5-6-.5-3,1-2.4Z"/>
      <path data-code="MO-BOLB" d="m118.75,104.4l2.5,1v-1l1-.5.5-2,3.5-.5.5-2,1.5.5.5,2.5.5-1.5.5.5-1,1.5.5.5,1-2,3.5-.5v1h2l1-1,.5,1-1,.5.5,1.5h-1v1l2.5-3.5-1,3.5,1.5.5,1-1.5-1-2h1l-1-.5v-3l1-.5.5,2,1.8.5,1.2,4h3l1.5,3-.5,4h1l-1,1,.5.5-1.75,2.9-3.25.1-1.5-1.5-2.5,1-.5-2-1,.5-.5-1.5h-1l-1.5,2h-1.5,1l-1.5-1h1v-.5h.5-1.5v-1l-2,3-3.5,1v1l-1.5,1.5-2-2,.5-.5v-1l-2-.5-1.5-2-1-.5-1,1.5-1,.5,1-3,.5-.5-1.5-1.5h1v-1l1.5,1.5.5-1-1.5-4"/>
      <path data-code="MO-BOLI" d="m139.25,58.4l3.5-3-.5-.5,1-.5v-1l1.5-.5.5-1-.5-1.5h1l1-2.5,2.5-2,1,.5,1-1.5,2.5,2v-2.5l1.5,1.5,1.5-2.5.5.5,1-.5,3.5,1.5v1.5h-.5l-.5,1h1v1.5l-1,1h-1l-1,1h-1l.5,1.5-2,.5.5,1-2.5,1.5v1l3.5,1,1,3-2,3h-1l-.5,2-2.5.5v1l-3.5.5h-1.5v-1l1-.5h-1l-1.5-3,1.5,4-1,.5-2-2.5h-.5v1l-1-.5,1.5-2-1.5-1-1.5-.5-1.5.5-2-1.5h1.5l-1.5-.5,2-1.5-1-.5"/>
      <path data-code="MO-CHA" d="m126.25,89.25l1-2,3-1.5.5-.5,1,.5,2-2.5-1-.5,2-.5-1-1.5,1,.5,1.5-3.35,4-1.5-1.5,1.5,1.5,1.5-.5.5h-1l3.5,2.5v2l1-.5,1,2,2-1.5.5,1-2,2.5-.5-1-2.5,2,.5,2,3,1-.5,1,1.5,1-.5,4-1.5.5.5,2h-2.7l-1.8-.5-.5-2-1,.5v3l1,.5h-1l1,2-1,1.5-1.5-.5,1-3.5-1.5,3.5h-1v-1h1l-.5-1.5,1-.5-.5-1-1,1h-2v-1l-3.5.5-1,2-.5-.5,1-1.5-.5-.5-.5,1.5-.5-2.5-1.5-.5-.5,2-2,.3-1-2.3.5-3.5,1,.5.5-2-1.75-.55.75-3.05v-1l2-.55Z"/>
      <path data-code="MO-DUB" d="m144.75,100.4l-.5-2,1.5-.5.3-2.55,4.2,1.05.5-1,4,.5.5-1h1v2l1-1.5,2,2,1-.5,3-.5,2.5,2-2,2-3.5,1,1,1h3.5v.5h-.5l.5.5-4-.5v1l-1,1v3l6.5,3.5-1.5,1v1l-2.5,1,.5,1-2.5.5v1l-4.5-2v1.5h-.5l.5-1-3.5-.5v-1.5l-3,1.5-.5,1.5h-3l-.5-.5,1-.5,1.5-2.5-.5-.5,1-1h-1l.5-4-1.5-3h-3l-1.2-4h2.7Z"/>
      <path data-code="MO-ELN" d="m79.25,24.25l1-1,2,.65,2.5,4,1.5.5-.5.5,2.5,2.5,3,2-3.5,2v1l2,2.5,1.5-.5,1.5,1.5-4,5,3,3-.5,2.5,2.5,1.5v1l-1,.5-3-1.5h-1.5l-1-1.5-2.5,1,.5.5-1,2-2.5,3-1-3.5-3.5-1.5,1-2-1-1h1.5l-1.5-1.5.5-.5-6.5-2v-3.65h1.5l.5-2,1.5-1-.5-1,1-1.5.5-2.5,4-3.5-1.5-1,1-1.5-2.5-.5,1-2,1.5-.5Z"/>
      <path data-code="MO-SAR" d="m102.25,92.75l.5,2,.4-2.35,1.1-.5,2,.5v-1.5l2-1,3.5,2h2l.5.5h-1l1,1.5-1.5,2.5h-.5l2.5,1.5-3.5,1,.5,2.5h1.5l1,2h-1l1.5.5-1,2-6-1.5-1-1,1-1-1,.5v-1.5l-5,1-1,4-.4-.8.9-3.85-2-1.5.5-1,2.5-.5,1-2-2-3,1-1Z"/>
      <path data-code="MO-ICH" d="m115.75,68.9l.5-1h1.5l.5-1.5,1.5-.5-.5-1h2.5v-4.5l1-2,5-2,1,1.5v3l2-1.5.5-1.5.5.5,2.3-3.75,1.5,1.5,4.7,1.25-1,1,1,.5-2,1.5,1.5.5h-1.5l2,1.5,1.5-.5,1.5.5,1.5,1-1.5,2,1,.5v-1h.5l2,2.5,1-.5-1.5-3.5v-.5l1.5,3h1l-1,.5v1h1.5l.5,1.5-2.5,5-3-.5-.5,1-3.5,1.5v.5l-4,1.5-.2.45-2.3-1.45-1,1.5-.5-2-1,1-2-1.5-2.5,1-1.5-1v-1.5l-5-2-2.5.5-.5-1,1-.5v-1l-2-.5-.5-1"/>
      <path data-code="MO-INS" d="m54.75,98.9l3.5-3,3,1,2.5-2-.5-2,.5-2,.5,1,1-1-1-1h1l-.5-1,1,.5,1.5-1.5.5,1,2-1,1.5,1.5-1,1-1,2.5,3.5,3.5,2-1,1,1.5.5-2.5,2,.5,1.1-1.35.9,1.7-1,1.5,1,1.5v3.65l-2-.5-.5,1.5-1.5.5-1,3,1.5,1v1.5l-1-1-1,.5,1.5,2.5-.5,2v1.5l-1.5,1-4-2.5-.5,1-4-.5.5-1h2.5l-3.5-1v-3l-1.5-1,1.5-.5-3-1-.5,1-3.5-2.5v-1h-2.5l-.5-.5,1.5-2.5-1.7.25-.3-1.75"/>
      <path data-code="MO-KAD" d="m74.25,73.4l4-2.7.5,1.2,2-1.5,3,1.35.5,1h-1l2,2.5-2.5,1,1-1-.5-1.5-1-.5-1,1h.5l-2,1.5-.5,2-.5-.5-1,1,9,6.5-2,1.5-1.5-.35-2.5,3,1.5,1-.5,2-1.5.5-2,2.5-2-.5v1.5l-.5,1-1-1.5-2,1-3.5-3.5,1-2.5,1-1-3-3,2.5-2.5-.5-3,2-.5,3.5,3.5,1-.5,1-2.5-2-5-1.5.5v-1l1-1-1-1"/>
      <path data-code="MO-KOC" d="m98.75,106.9l1.6-1.3.4.8,1-4,5-1v1.5l1-.5-1,1,1,1,6,1.5,1-2-1.5-.5h1l1-2.5,1.5-1,.5.5-1,.5,1.5,2v2l1,.5-1,2,1.65-1.2.85,2.2-.5,1-1.5-1.5v1h-1l1.5,1.5-.5.5-1,3,1-.5,1-1.5,1,.5,1.5,2,2,.5v1l-.5.5,2,2-2.5.5-1-1-1,.5.5,1-4,.5-.5-.5-.5,3h-1l-2.5-2.5.5-1.5-3-1.5-1,.5v1.5l-4-2.5-3,.5-2-1,1.5-3.5-1.5-5-1.5-.5"/>
      <path data-code="MO-KOV" d="m73.25,70.4l.5,1,1.5-1.5h-.5l-1.5.5m-17-13l1,1.5,2-1.5-1,1.5,3.5,1.5,1.5-1,2.5-.5v1l1.5,1.5,4.5-1.5v2.5l1.5,1,1.5-1.5,1,1,1.5,5-2,2,1.5,1v-1.5h1l.5,1.3-4,2.7,1,1-1,1v1l1.5-.5,2,5-1,2.5-1,.5-3.5-3.5-2,.5.5,3-2.5,2.5,1.5,1.5-2,1-.5-1-1.5,1.5-1-.5.5,1h-1l1,1-1,1-.5-1-.5,2,.5,2-2.5,2-3-1-3.5,3-1-2-1,.5-.5-4.5h-.5l.5-1-1-.5h2l.5-1.5h.5v-.5h1l.5-1-1-2.5.5-2-1.5-5h-2.5l-2-2.5-1.2-1.8-.3-3.35,1.5-2.5,3.5-2.85-1-2,2-1.5-1.6-1.35,4.1-3.65Z"/>
      <path data-code="MO-KRA" d="m59.25,46.4l2-1,1,.5,1.5-2h-2v-.65h1l.5-1,2.5-2,1,2,.5-1,1-.5,1,2.65,2-1.5v3l6.5,2-.5.5,1.5,1.5h-1.5l1,1-1,2,3.5,1.5,1,3.5,2.5-3,1-2-.5-.5,2.5-1,1,1.5h1.5l.6.3-1.6,2.7h-.5l2,8.35-3.5,2.5,1,1-.5,2-2-.5-2.5,1.15v1h-2l-2,1.5-1-2.5h-1v1.5l-1.5-1,2-2-1.5-5-1-1-1.5,1.5-1.5-1v-2.5l-4.5,1.5-1.5-1.5v-1l-2.5.5-1.5,1-3.5-1.5,1-1.5-.5-1.5,2,.5.5-2.5-.5-2h-1.5l1-4-1-1.5m14,24l1.5-.5h.5l-1.5,1.5-.5-1"/>
      <path data-code="MO-LYA" d="m100.75,80.4l1.5-1,1.5,2,2.5-.5v-.5l1-1.5-1-1.5,1-1.5v-1.15h2l.5-1.5,1.1-1,.9.1,1.5,1.5,1-1v1.5l1.25,2-3.25.9.5,1-1,1.5-1.5-1-.5,2.5,1-1,2,1.5-1.5,2,.5.5v2l2.5.5,1.5-1,1.5,1.5,1-1,2,2-2,1.5v2l1.5-1.5.5,2-2.5.5v2l2-.35,2-1.15,3.5,1.15-.5,2-1-.5-.5,3.5,1,2.3-1.5.2-.5,2-1,.5v1l-2.5-1,.65,1.8-1.65,1.2,1-2-1-.5v-2l-1.5-2,1-.5-.5-.5-1.5,1-1,2.5-1-2h-1.5l-.5-2.5,3.5-1-2.5-1.5h.5l1.5-2.5-1-1.5h1l-.5-.5h-2l-3.5-2-2,1v1.5l-2-.5-1.1.5.1-.65-1.5-1,1-1h-2l-1.5-2,.5-2.5,1-1v-1.5l1-1.85-1-.5"/>
      <path data-code="MO-ROM" d="m110.25,78.75l1.5,1,1-1.5-.5-1,5.5-1.5.35-2.9,2.15-.45,5,2v1.5l1.5,1,2.5-1,2,1.5,1-1,.5,2,1-1.5,2.3,1.45-1.3,2.9-1-.5,1,1.5-2,.5,1,.5-2,2.5-1-.5-.5.5-3,1.5-1,2-2,.5v1l-.75,3.05-1.75-.55-2,1.15-2,.35v-2l2.5-.5-.5-2-1.5,1.5v-2l2-1.5-2-2-1,1-1.5-1.5-1.5,1-2.5-.5v-2l-.5-.5,1.5-2-2-1.5-1,1,.5-2.5"/>
      <path data-code="MO-RUZ" d="m83.25,85.9l1.5.35,2-1.5.5.5,1.5-2,1,.5.5-1.5,6-.5,1.5,2,1.5-1h1.5v1.5l-1,1-.5,2.5,1.5,2h2l-1,1,1.5,1-.5,3-.5-2-1,1,2,3-1,2-2.5.5-.5,1,2,1.5-1,4.5-3,1.5-3-3v-.5h-3l.5-1-3-2-2.5,1.5-2.5-1.5v1.5l-1.5,1-.5-2.5-1.5-.5v-2.5l-1-1.5,1-1.5-.9-1.7.9-1.15,1.5-.5.5-2-1.5-1,2.5-3Z"/>
      <path data-code="MO-STA" d="m88.75,54.9l1.6-2.7,2.4,1.2,1-.65v-1l2.5,2.5-1,3,1,1-.5.5,1.5,2,2,1.5,3.5-2.5.5,2-.5,3-1.5.5,1-1.5-1-.5-1,2h-1v.5l3.5,1.5,4-.5.5,1.5-.5,1,1.5,1,1,2.5h2l-1.5.5-.5,1.5h-2v1.15l-1,1.5,1,1.5-1,1.5v.5l-2.5.5-1.5-2-1.5,1,1,.5-1,1.85h-1.5l-1.5,1-1.5-2-6,.5-.5,1.5-1-.5-1.5,2-9.5-7,1-1,.5.5.5-2,2-1.5h-.5l1-1,1,.5.5,1.5-1,1,2.5-1-2-2.5h1l-.5-1-3-1.35h2v-1l2.5-1.15,2,.5.5-2-1-1,3.5-2.5-2-8.35h.5Z"/>
      <path data-code="MO-TEM" d="m41.75,32.75l2.15-3.7,3.85,2.7,3.5-7-1.5-.5,2-3,1.5.5,1.5-2,1.5,2.5h.5l.5-1,1,.5,2-4.5-1-1,1-1,.7,1.3-.2.7,2.5.5,6-5.5,1.6.8,1.4-.8,1.5,1-3,.5-3,5,9,4.5,2.5-4-1-4.85,1.94,1.94-.44,1.91,3.5,2.5-.5,3-1.5.5-1-1-1,1-1.5.5-1,2,2.5.5-1,1.5,1.5,1-4,3.5-.5,2.5-1,1.5.5,1-1.5,1-.5,2h-1.5v.65l-2,1.5-1-2.65-1,.5-.5,1-1-2-2.5,2-.5,1h-1v.65h-1.5v-1.5l-.5-.5,1-1-1-2.5-4-1v1.5l-.5-1.5-.5,1-4.5-3-1,1.5-1-1-1.5,2-1-1.5-1,2.35-3.35-2.45,1.85-2.55-1.5-1"/>
      <path data-code="MO-TEN" d="m39.75,21.75l.5.5v.5-1h-.5m.5-18l2.5-1.5-1-.5.5-1,1-.5.5,2-1.5,1-1,3.5,2,1,.5-3-1-1,3.5-1.5v3l1.5,3h5v.5l-1,1.5,1,.5.5,2-1,.5,1,.5,1-.5,1.5,2,4-1,.5,3-2,4.5-1-.5-.5,1h-.5l-1.5-2.5-1.5,2-1.5-.5-2,3,1.5.5-3.5,7-10-7,.5-3h1.5l-.5-.5,3,1-1-3.5,1-1.5-.5-1,2.5-1.5-.5-2.5-1.5,1-1-.5v-2.5l-1.5.5v-2h-1.5l2-1.5-.5-1.5,1-.5-.5-1.5"/>
      <path data-code="MO-TOR" d="m36.75,42.75l4.65-6.45,3.35,2.45.5,3-.5,6,2.5,1-1,1-.5,5,2,1-.5,1.5.5.5,2-.5-.5-.5,1.5-.5.5,2.5h1l-1,1.5,2.5,2.15-2,1.5,1,2-3.5,2.85-1.5,2.5.5,1-1.5,1v-1l-2.5.5-2.5-3.5-.5-2-1.5,1-3.5-2-1,1.5-1.5-1.5-1.5,2h-1.5l1-4.5,1-2,1,.5v-1l-1.5-1,.5-1.5,1.5-.5-2-3.5,1.5-1.5h3v-5.5l-1.5-.5,2-3-.5-1.5"/>
      <path data-code="MO-ZUB" d="m13.25,29.75l3.5,4.5,2-.5,1.5,1,2-1.5,3.5.5.5-1.5,3-1.5,3.5,1.5.5-1.5v-2.5l.5-1-1.5.5v-1l2.5-1.5,1-2,1.5.5-1,1.5,1.5-.5,6.15,4.3-2.15,3.7,1.5,1-6.5,9,.5,1.5-2,3,1.5.5v5.5h-3l-1.5,1.5,2,3.5-1.5.5-.5,1.5,1.5,1v1l-1-.5-1,2-.5,4.5-1.5,2.5,2,1.5-1.5,3.5-2-.5.5-3.5h-2l-1,1,1,.5-1,1.5-1.5-1,1.5.5-1-1.5-5.5-.5-1-2.5-2-.5v-1.5h-1l-1.5,3.5-2,.5-.5-1,4-3.5h-3l.5-2-5.5,3-.5-2h1l1-1.5h1.5l1-1.5h-3.5l-2,2,.5,3.5-2-1,.5-3-2-1,1-1.5-.5-1-3-1,3-1,1.5-3,3-2h2.5l2.5-3-2.5-3.5v-6l3-.5-.5,1-1-.5-.5,1,2.5,1.5,4-.5-1,1v2l3,1.5,1-2.5-.5-1,.5-1,.5.5,2-.5,2,4.5.5-3-1-2-1-.5-1.5-7.5-1.5-.5-2.5,1.5.5,1.5-2-.5-.5,1.5-1,.5-3-2.5v-1h.5l-.5-1,1-1v-.5h1l-1-3.5"/>
</svg>