<svg xmlns="http://www.w3.org/2000/svg" viewBox="0 0 304.5 355">
      <path data-code="MUR-APA" d="m103.25,138.4l3,3h1.5l2,5,2.5,2,1,3,3.5,4,1.5-1.5,3,3.5,5.5,2,2-1.5,1.5-2.5,12.5,3-14,20-9,18.5-6.5-4h-1l.5,2-.5,1.5h-.5l-.5,1.5-2.5-4.5-.5.5-.5.5-1,2.5-6.5-22.5,8,.5,2.5-1.5h3l4,1.5,3-3,2-2.5-13.5-14.5-1-3.5-5.5-4v-3.5h-2.5l3-5.5"/>
      <path data-code="MUR-KAN" d="m6.25,126.4l2-1.5,2-1,22.5-7v-.5l1.5-1,4,1v-1.5l14.5-3.5,8.5-6.5,1.5,9-4,11.5-6,21.5,35.5,2,12.5,20.5.5,4-1,1,6,20h-1l-14.5,5v-5.5l1.5-4.5,1-1.5,3.5,1v-1l-3-2-1.5-5-2.5-.5-1.5-3.5.5-2h-2.5l2.5,5.5v.5h-1l.5,1-1-1v1l-1,.5.5-1-1.5-3.5h-1l1,2.5-1.5.5v.5l2,2v1.5l3-1,.5-1.5.5,2h-.5l-.5,1-.5,2v-2.5h-1l-.5,1.5-.5,1,.5,1-.5,2-1-1.5,1-.5-1-.5-1,2-1-1-1.5,2.5-.5-.5-2,1,1.5,6-.5.5,2.5,1-3,1.5,2.5,3.5,1,5-2.5-1.5v1l2.5,2-1,.5v1.5l2,.5,2,4.5-.5.5,1,1.5-1,.5v1.5l-1.5-.5,2,3v2.5h-1l1,4-6-9-6-7-6-5h-1l-4.5,5-4.5-3-6,6.5-9-7.5-1.5-3,5-7.5-3.5-3.5,5.5-9-10-9.5-21-16.5h1L.25,145.9l1.5-9.5v-1l.5-.5,1.5-4,2.5-4.5m79,65l.5.5h-.5v-.5m3.5,3l.5.5-.5.5v-1m-5.5-1.5v-.5l.5.5h-.5m.5,6.5h.5-.5m0,5.5l.5.5v.5h-.5v-1m.5,3.5l.5,1-.5-.5v-.5m1.5,12l.5.5-.5-.5m2-32l1-.5-.5,2-.5-.5v-1m-.5,3h-1l1-1.5.5.5-.5,1m-2-1h.5-.5"/>
      <path data-code="MUR-KIR" d="m142.75,158.4l14,2,3.5,7.5,1.5,1,.5-1.5,1-.5v1l-.5.5,1-.5-1,1v1l-2,1.5-1.5,4.5-.5,3.5,1,4,3,3.5-3,7.5-1.5.5.5.5-.5,1-3,.5-1,1.5-1,.5-.5,1-3,1-4,3v1l-2,1v.5l-1,1v3l-2,1.5-1,3.5h-1l-3,2.5-4.5-3v-1.5l.5-.5-1-1.5-4-2-1,3-2.5-3,.5-3,.5-2-2.5-.5-2-1.5v-5.5l9-18.5,14-20"/>
      <path data-code="MUR-KOL" d="m195.75,44.9h.5-.5m3.5,17.5l-2-3.5h-1l.5-2.5,3-1,2.5,3h-1.5v.5l4,2.5-5.5,1m-1,.5v-1l.5.5-.5.5m0,.5v-.5.5m-5.5,4.5l1,.5v-.5h1l.5-1-2.5,1M68.75,30.4l14.5-5,33.5,29,10-1,11.5-2.5,13-2,8.5-7v1l3.5-3.5,3.5-1.5,4.5,1.5h2l1.5-1.5,2,.5,1.5-3.5,4.5,3.5,2.5.5,2-1,.5.5,3.5-.5,2,4,2,1.5-4.5,1.5-5.5-.5-3,1.5v1.5l-.5.5-.5,2.5,1,1,1.5,4.5,2,2.5,1,2-1,1,3,2.5,3-1.5v2.5l2,.5.5-1.5h-1l1-.5,1,1-1,1.5,1,.5,2.5-2h1l.5-1,2.5-1,4,.5-.5,1,1.5,2.5,1.5-.5,1,2.5,1-.5-1,.5-8.5,1.5-5,1-5.5,7.5-2,4-5,3.5-2-1-3.5,4,2.5,4,6-.15,5,1.15,1.5,2-1,2,1,1-2,2,.5.5,1-1-1.5,4v-1l-1,.5-2,2.5,4,3.5,9-11.5-.5-4v-1l.5-.5h-.5l2-10.5,3-5.5,2.3-2.75,1.2,3.25,3.5,2.5v1l4.5,2,4,4-2.5-5.5,1.5-.5h2.5l2.5,2.5,2.5,6-1.5.5-1.5-2-2-.5-.5,1,3.5,3-1,.5,1,2.5,7,6.5-2-.5,6.5,8-1.5,2,1,.5.5-1h1l2,1-.5-5,3,2.5,1,2.5,5.5,6.5.5,2.5h1l1-1,1,4.5h-1l1,.5v3h1.5l4.5,10-1.5-.5-.5,3.5-2.5,1.5-1-1-3.5,2.5-2-2v1.5l-2.5,1.5-15,1.5-20-16-30-21,.5,4.5-6,6,3.5,5.5-5.5,6.5-2,2.5,2,1.5-1,5-6-.5-.5-1,1-2.5-6-8-8-7.5-8.5-2.5-16.5-3-11,5.5-3.5-.5-17.5-5-11.5-5-22-5-1.5-13.5,5.5-20.5-8-18.5,11.5-22m128,34v-.5.5m-1.5,0h.5-.5m57,59.5h.5-.5"/>
      <path data-code="MUR-KOV" d="m61.25,104.9l22,5,11.5,5,17.5,5-2.5,1.5-4,6-6,5.5,3.5,5.5-3,5.5-6,6-41.5-3,6-21.5,4-11.5-1.5-9"/>
      <path data-code="MUR-LOV" d="m283.75,330.4l.5,1.5h.5l-.5-1.5h-.5m-13-122l.5,1.5.5-1,1-.5h-2m-91-100l30,21,20,16,15-1.5,2.5-1.5v-1.5l3,1.5,1-1,1.5-1,1,1,1.5-1v-.5h1v-1l.5-.5,2.5,4,1.5,5h-.5l1,1.5,3,11.5,1,1.5-.5,2.5,2.5,4-.5,3,2,2.5,1,6.5,1,2-.5.5v1.5l1.5,5-1,6,1,2,.5,5,1,1.5-.5,4h1l1-1.5v3.5l1.5,2.5h.5v-1l1-1,.5.5.5,6,2,1.5,1,3-.5,1-1-1,1,5.5v2l2,1,.5,8-3,.5-3,4,.5,1.5-1,1.5,1.5,1,4,5.5,9.5,3.5,2-.5.5,4,3,7-5.5.5.5,10.5,3,1,1.5-1.5h3.5l-.5,2,1,1.5-.5,2,2.5,1-.5.5,1.5,3.5-1,4-2.5,3-2.5.5.5,1.5-1,2-2.5,2,1.5,2.5-.5,3-2,2-1.5,3-3.5,3.5v2.5l1,1.5,1.5,2,1-1v3l-2.5,2,1,3.5h-1l-2,1.5-.5,1.5-1,1,.5.5-.5.5-3,1.5-1-1v1.5l-1,1-1,.5-3,4-7.5,3.5-.5,1-3.5-.5-9,3-3.5.5-1.5,2.5h-3.5l-1.5.5-1.5,2-7,1-2-.5v-3.5l-1.5-1,1-2,1.5-.5.5-1.5-1-3.5,1.5-1.5,1-2.5-1.5-4.5h.5l-36-20-2-2.5-3-6v-1.5l1-1.5-1.5-4.5,2-3-2-3v-3l-4-3-5-1.5-2-6.5-7.5-2,.5-1-1.5-2-.5-2.5.5-3.5-1-.5-2-3.5-6-3.5-.5-1,1-2.5-3.5.5-1.5-1.5-.5-2h-2l-1-2h-2.5l-1.5.5-.5,1.5-2.5-2,.5-6,.5-1.5-.5-1.5v-1.5h1l1-2h1.5l.5-.5,1.5-1.5-1.5-6.5h.5l-1-1.5v-3l-1-2v-2l1.5-2.5-3-4-3,.5-3.5-4.5-.5,1-1.5-1-1,.5-1-4.5,1-.5v-1l4-3,3-1,.5-1,1-.5,1-1.5,3-.5.5-1-.5-.5,1.5-.5,3-7.5-3-3.5-1-4,.5-5,1.5-1.5v-1.5l2-1.5v-1l1-1-1,.5.5-.5v-1l-1,.5-.5,1.5-1.5-1-3.5-7.5,4-6,2.5-1.5,4.5-1,1-4.5,1.5-3,2-9.5-2-1.5,2-2.5,5.5-6.5-3.5-5.5,6-6-.5-4.5m113.5,211l-.5.5v-.5h.5m0,1v-.5.5m0,1h.5-.5m0,.5v-.5.5m-43.5,30.5l.5-.5h.5l-.5.5h-.5m19-184l-.5-.5v-.5l.5,1m0,0l1,2.5v.5l-1-1v-2m-2-3.5l.5-.5,1,2h-1l-.5-1.5m1.5,8l.5-.5-.5.5m2.5,5h1l.5,1-1.5-.5v-.5"/>
      <path data-code="MUR-MON" d="m99.75,132.9l6-5.5,4-6,2.5-1.5,3.5.5,11-5.5,16.5,3,8.5,2.5-3,7-9.5,8,4.5,5-3.5,6-7.5,8-2.5,1-1.5,2.5-2,1.5-5.5-2-3-3.5-1.5,1.5-3.5-4-1-3-2.5-2-2-5h-1.5l-3-3-3.5-5.5"/>
      <path data-code="MUR-MUR" d="m177.75,88.9l3.5-4,2,1,3.5-2.5,1,5,1.5,1-3,3.35-6,.15-2.5-4"/>
      <path data-code="MUR-OLE" d="m139.25,135.25l9.5-7.5,3-7,8,7.5,6,8-1,2.5.5,1h6l-1,4.5-1.5,3-1,5-4.5,1-2.5,1.5-4,6-27-5,3-1,7.5-8.5,3.5-5.5-4.5-5.5"/>
      <path data-code="MUR-ZOS" d="m298.25,270.15h-.5.5m-2,0v.5-.5m-4-3.5l5.5-.5-.5,1,.5,1-1,1h-1l-1-2-.5.5-.5.5v6h1l-.5,1,.5,2,2-.5,1.5-1.5v-1.5l-1-1v-2l2.5.5-1.5,3h1.5l1,2-3.5.5-1.5,1-3-1-.5-10m-14.5-55l.5-.5v.5h-.5m-7-2.5l1.5-.5.5.5-1,.5-.5,1-.5-1.5m7,33l3-3.5,3-.5,2,2.5.5,2h-1v1l.5,2h2l-.5-2,2,4.5,3,1.5,2-9,1,5.5-2,8,.5,1h-2l-9-3.5-4-5.5-1.5.5-.5-1,1.5-2-.5-1.5m25,41.5l.5-.5h.5l.5,3.5-1.5-3m-10,35.5l.5.5v2l-.5.5v-3m-9,11.5h.5l.5,1-.5.5-.5-1.5"/>
      <path data-code="MUR-PEC" d="m199.75,18.75v-.5.5m-8.5-3v.5l-.5-1,1-.5-.5,1m-105.5-5l16.5,1.5,1,4.5,8-2,.5-.5,2-1.5v-.5h1.5l3-2.5.5-2,2-2,3.5.5,3.5,3.5,4.5-.5,1.5-1,4,.5,1,2.5,3,.5,3.5-1,2-2.5h2.5l1.5-1.5,2.5-5-1-.5.5-1,2,.5.5,2,1,6.5v4.5l5,5.5,3,.5,2.5-1,2-2.5,1.5-2.5,1-.5v-3h.5l.5-.5,1.5-4,3,3,5,11-.5,2-2.5,1-.5,1h1l2.5-1.5,1,.5,4,6,.5.5-.5-4.5,1-1.5h1.5l1.5-2.5,2.5-1.5h1.5l1.5,5-.5,1.5,2,1.5,1.5-4.5-.5-2h1.5l.5-2-1.5-1.5,1.5-1,1-1h1.5l.5,1.5h-.5v.5l2,1,1.5,3.5-.5,2.5,1.5,1.5.5,3.5,1,2-1.5.5v2h1.5l-1,.5,1,2h2l4,5.5v1l1,1.5-.5.5v.5h1.5l-.5,2.5-.5-.5-.5,1-1,.5v.5l-1,.5-.5,1-.5.5-5.5.5-3-.5-5-7.5-.5-3h-1.5l-3.5-3.5.5-2.5,1-1,1,.5.5-1-.5-1.5-1,1-4,2-1.5-1.5v5l-2,.5-1.5-.5-1.5,1-3-.5-4-3.5-1.5,3h-2l-1.5,1-2,.5-4.5-1.5-3.5,1.5-3.5,3.5v-1.5l-8.5,7.5-13,2-11.5,2.5-10,1-33.5-29.5,8-5.5-2-3.5-4-3,.5-2.5m105.5,6l.5.5h.5l-1,.5v-1m19,18h.5l-.5.5v-.5"/>
      <path data-code="MUR-POL" d="m88.25,149.25l6,.5,5.5-6h3v3.5l5,4.5,1.5,3.5,13.5,14-2,2.5-3,3.5-4-1.5h-3l-2.5,1.5-7.5-.5v-5l-12.5-20.5"/>
      <path data-code="MUR-ZSE" d="m197.25,85.35l2.5-1,2.5-2-2,10.5h.5l-.5.5v.85l.5,4.5-9,11.15-4-3.5,2-2.5,1-.5v1l1.3-3.45-.8.45-.5-.5,2-2-1.5-.65,1.5-2.35-1.5-1.65-5-1.5,3-3.35-1.5-1-1-5,1.5-1,4.5,2.5,4.5.5Z"/>
      <path data-code="MUR-TER" d="m90.75,199.75l14.5-5,1.5.5v2l.5-3h1l.5-1,2.5,5,.5-1.5h.5l.5-1.5-.5-2h1l6.5,3.5v5.5l1.5,2,3,.5-1,2,.5,4,2,2,1-3,4,1.5,1,2-.5.5v1.5l4,2.5,3.5-2.5h1l1-3,2-1.5v-3.5l1-.5v-1l1.5.5.5,4,1-1,1.5,1.5.5-1,3.5,4,3-.5,1,1v1.5l2,1.5-1.5,3v2l1,1.5v3.5l1,1-.5.5,1.5,6.5-1.5,1-.5,1h-2l-.5,1.5-1,.5-.5,1,1,1-.5,1.5-.5,6.5,2.5,2,.5-1.5,1.5-1,2.5.5,1,2h2l.5,2,1.5,1,3.5-.5-1,3v1l6.5,3,1.5,3.5,1.5,1-.5,3.5.5,2.5,1.5,1.5-.5,1.5,7.5,2,2,6.5,5,1,3.5,3,.5,3.5,2,3-2.5,2.5,2,4.5-1,1.5v1.5l2.5,6,2.5,3,36,19.5-.5.5,1,4.5-.5,2-1.5,2,.5,3.5-.5,1-1,1-1,2,1.5.5v4l-12,2-15.5-4.5-11.5-1.5-4.5-3-7.5-2-9.5-6-12-13.5-4-10.5-7-10.5-4-4.5-5.5-3.5-10-14-7.5-8.5-3-5.5v-1l1-.5v-1.5l-2.5-2,.5-2.5-1-1.5-1-8.5-3-3h-2l-.5,1h-1.5l-5-2v-4.5l1-1-1-1.5,4,1-4.5-5.5v-1l-2-1,.5-1.5h-1v-1l-1.5-.5-2.5-2.5.5-1.5-1-1h1l.5-1-.5-4.5-1,.5v-1l-.5-.5-.5,1-1-1.5v3l-1,1,1.5.5h-1.5v1.5h-1l-.5-3.5-2-.5-1-7-1-1,.5-1-1.5-3,.5-3-1-4.5m8,26v.5-.5m2.5,2l.5.5-1-1,.5.5"/>
      <path data-code="MUR-ZVI" d="m191.25,62.25h1v-1l3.5-2h1.5l2,3.5-1-.5v1.5l-2.5,1-2-1,.5,1-1,.5-1.5-.5-.5-2.5m1.5,5.5l1.5-1h1l-.5,1.5-1-.5v1l-1-1"/>
      <path data-code="MUR-ZZA" d="m195.4,49.5h1-1m.5-5v.5-.5m-13.5,1.5l3-1.5,5.5.5,4.5-1.5,1,1.5-2.5,1,1.5,2.5-1,1.5-.5.5h1.5l.5,2.5.5-1,1,.5v-1l1.5,4.5h-2.5l-.5,3-3.5,2v1l-3.5,1.5-3-2,1-1-1-2-2.5-2.5-1-4.5-1.5-1,1.5-4.5"/>
      <path data-code="MUR-ZAL" d="m195.75,70.85l14.5-3,1,3-1.5.5-2,.5,1,1-3.5,4-3,5.5-2.5,2-2.5,1-4.5-.5-4.5-2.5,2-4,5.5-7.5"/>
</svg>