<svg data-code="RU-KRS" xmlns="http://www.w3.org/2000/svg" viewBox="0 0 164.25 142.75">
    <g data-code="kurskaja_oblast_" data-title="kurskaja_oblast&amp;apos;">
      <path data-code="belovskij_rajon__kurskaja_oblast_" data-title="belovskij_rajon_(kurskaja_oblast&amp;apos;)" class="cls-1" d="M24.62,86.12l1.5,1.5h2l.5-1.5.94,2.24,1.56.62,1.5-4,1,.5,1.5-2,1.5.5,1-1,2,.64,1.5-2.5,3.5,2.5,1.5-1.5,1.5,1,1-1.5.84.84-2.84,6.66,2.5,4.5-.5,1.5-.5,1h-.5l1,3v1.5l-2-1.5-2,1.5-.5-.5-2.5.5-1,1.5-1.5-.5-1,1-1.5-1,1-1.5-1-2-1.5,1v1l-1.5-.5-2,1-1-3.5-1,1.5h-1.5l-.5-2h.5l1-1.5-2.5-1-.5-2h-1l-1-3,.5-3"/>
      <path data-code="bol_shesoldatskij_rajon" data-title="bol&amp;apos;shesoldatskij_rajon" class="cls-1" d="M40.62,67.99l.5-.5,2.5-1-1-2,1.5-2,4.5,1.14,1.5,1-.5,2,4-.5,1.5.5v-1h1v-1l1.5-.5v-2l1-1,1,.5,2,2-1.5.5-1,2,1.41,1.64-3.41,1.36v1.5l-1.5.5-.5,2,2,1v2.5l-2,1h-1.5v2l-3,1.5v2.5l-2-2-1,1.5-1.5-1-1.5,1.5-3.5-2.5-1.07,1.78-1.94-4.41,1-1-.5-1.5,1.5-1v-1l.5-.5-1-1.5,1-2.5-1-2h.5l.5.5Z"/>
      <path data-code"cheremisinovskij_rajon" data-title="cheremisinovskij rajon" class="cls-1" d="M120.62,69.99l1-2.5h2.5l1,.64,1.5-.5,1,2,2.5,1-3,2,1.5,4.5,2,1-.5,2,.5,4.36-3.5,1.5.5,2-.5,4-3.5-1-2,2-1-.5-1,1v1.5l-1.08-.02-1.42-2.49,1-1-1-2-1,.5-1-.5-1-2,.5-.5-.5-1.5-1.5-1.5,1-1.5,4.5-1.5-1-2.5-1.66-.66,4.16-8.34,1,.5Z"/>
      <path data-code="dmitrievskij_rajon" data-title="dmitrievskij rajon" class="cls-1" d="M45.62,14.62l.5-.5,2,.5,2-2,2-.5,1-1.5-.5-1,1.5-1.5-.5-1,1-2.5h2.5l.5,1.5-1,1,4,2,3-2-.5-2,1,.5,5.5-2.5-1.5-.5v-1l1.5-1,2.5,4-1,2,2.5.5v-.5l.5,1,.5,5.86-2,.5,1.5,1-1,.5,1.5.5-1,2,.5,2-3,1-.5-1-1,3v3.5l1.5.5.5-1v1.5l1.64,1.64-4.14.49v-.5l-4.5-.5.5-1-2-2-5-2.5-1.5,1.5h-1.5l-1,1-.5,2-1,.5v-1h.5l-.5-.5-1,1-.5-1,.5-1-1.5-2.5,2.5-1.5-4-3-1,.5-2-4.5"/>
      <path data-code="fatezhskij_rajon" data-title="fatezhskij rajon" class="cls-1" d="M80.62,35.49v-1h.5l.5-.5,1,.5,1-1.5.5-4.5,3,.5v-3.36l7.5.5,4,4.36v3h1.5l1,.5-3,4.5.5,3-1,3.5-2,.64-.5-.5v.5h-1.5l-.5,1-1.5-.5v1l-2,1,.5.5h-.5l-.5,1.5h-3.5v1.5l-2-1.5v-.5l1-.5-1-.5-2.5,1-.5-1-1.5.5-1.5-.5-.5.5-1-.5-2,1.5-1-2.5,1-2.5-1.95-1.56-.55-2.94h1l-.5-1.5,2-4.5,6.5.86Z"/>
      <path data-code="glushkovskij_rajon" data-title="glushkovskij rajon" class="cls-1" d="M6.62,36.62l2-.5.5-1,1.5-.5,2,.5,1.5,3.86,3.5,1v.5l-1.5-.5-2,1,1.5,2,1.5-.5v1.5l2,1-1,2h-1v1.5l2.5-.5-.5-.5,1.5-.5,1,.5,1-1,2.5,5.5-.5.5-.5-.5v.5l.5.5-.5.5-2,.64-1-1h-1l-1,1,.5.5-1.5.5,2,3-.5,1.5h-.5v1.5l-3.5,1-1,1.5-2.5-1-.5-2.5,2-3-1-1.5-.5-.5-2,.5-.5-2-2-1-2-4H1.62l-1-3.5h1.5v-1h2l1-1.5,1,1,2-1-2-5,.5-1"/>
      <path data-code="gorshechenskij_rajon" data-title="gorshechenskij rajon" class="cls-1" d="M117.96,107.33l2.16,2.16-.5-2.5h1l.5,3.14,1.5.86,4.5-1,1-1.36,8.5,2.5v2h-1l.5,1-.5,2,6,2,.5,10-1.5,1,.5,1.5-1,1-.5,1.5-1.5-.5v2l-1,.5v2l2,.5-1,1.5-2-.5-.5,1v2l-1,.5-3.5-3,.5-2.5-1.5-1-1.5-4-.5,1-.5-1v-1l1-3.5-1.5-1.5-3.5-2.5-8,1-2.5-3.5-.5-.5,3.5-3.5,1-.5-1-1.5,1-1v-1l1-1.5-1-3,.83-.8Z"/>
      <path data-code="kastorenskij_rajon" data-title="kastorenskij rajon" class="cls-1" d="M130.62,105.49l.5-2,8,2,1.5-1.5v-1.5l1.5-3-2.5-1,2.5-1.5,5.5,2.64,1.5,2,.5-1,3,1v-1h1l1,1v1l.5-.5,1.5,2,3-2,1,1.5-1.5,2,.5.5,1-1,3,2-.5,1.5h-1.5l.5,1.5-2.5,1v2.5l-2.5,1-1,1,.5,4,2,.5-5,1.5-6.5-5.5-1.5,2.5-2-2.5-2,2-6-2,.5-2-.5-1h1v-2l-8.5-2.5-.5-1.14,1.5-2h1.5Z"/>
      <path data-code="khomutovskij_rajon" data-title="khomutovskij rajon" class="cls-1" d="M32.62,10.62l1.5.5,2-.5,1.5-1.5,7-1,1,2-1,1,1,.5,2.5-.5,2,1.5-2,2-2-.5-.5.5,2,4.5,1-.5,4,3-2.5,1.5,1.5,2.5-.5,1,.5,1,1-1,.5.5h-.5v1l-1,.5-1-1.5-1.5.5.5,2.5-3,2.5-.5,2h-1l-1,.5-1.5,2.5-1-.5-2,1.86,1-5.5h-1l-1.5.5v1h-2.5l.5-.5-1-2-2-1-1-1.5.5-1.5-1.5-.5,1-1.5-3-.5,1-2-1.35-.9-.15-1.97,2-2.5-.5-1,1.5-2.5,3,.5,1-1h-1.5l-1.5-4"/>
      <path data-code="konyshevskij_rajon" data-title="konyshevskij rajon" class="cls-1" d="M49.12,27.62l1.5-.5,1,1.5,2-1,.5-2,1-1h1.5l1.5-1.5,5,2.5,2,2-.5,1,4.5.5v.5l4.14-.49,1.36,1.36-.5,4.14-2,4.5.5,1.5h-1l.55,2.94-.55-.44-1,1.5h-2.5l-1.5-1-1.5,1-2-.5-3.5,1-3-5-1.5,2.5-3-2.5h-4l.5-1.5-2.5-1-1.5.5-.5-2,1-.5.5,1v-.5l-1-1h-.5l1-.5h1l.5-2,3-2.5-.5-2.5"/>
      <path data-code="korenevskij_rajon" data-title="korenevskij rajon" class="cls-1" d="M18.12,55.12l1.5-.5-.5-.5,1-1h1l1,1,2-.64h.5l1-.5v1l1.5-3.5-1-5.5,2.5.5v-1.5l2-1.5v3.5l.5-.5v-1.5l1.5-.5,4.5,5.5,1-.5v1.14l2.5,2-1.5,1v1.5l2-.5v-1l1.5,1-1.5.5-.5,1,1.5,3-3.5,2,.62.82-2.29.68h-3.82l-4,2-1-1h-2l-3,3h-4.5l-1-1-2.5.5-.5-1.5,1-1.5,3.5-1v-1.5h.5l.5-1.5-2-3"/>
      <path data-code="kurchatov" class="cls-1" d="M60.62,54.12h1v-.5,1l2-.5v1h1.5v1h-1l2,3h-5l1-1-2-1h1l-.5-3"/>
      <path data-code="kurchatovskij_rajon" data-title="kurchatovskij rajon" class="cls-1" d="M60.62,54.12l.5,3h-1l2,1-1,1h5l-2-3h1v-1h-1.5v-1l-2,.5v-1,.5h-1M53.62,55.12l6-2-1.5-.5,1.5-1-1-.5,2-1.5v-.5h1.5l-.5-1,1.5-4,2,.5,1.5-1,1.5,1h2.5l1-1.5,2.5,2-1,2.5h-2l-2.5,2.5,1.5,2-.5,2.5.5.5-1,1.5-1,.5v2l-6.5,4.5-3-2.5-1,1.5v1.5l-1.5.5v1h-1v1l-1.5-.5-4,.5.5-2-1.5-1,2.5-.5,2.5-6v-2"/>
      <path data-code="kursk" class="cls-1" d="M76.12,66.62h2.5l-.5-1.5,1,1,.5-2,2-1-1.5-.5.5-.5,1.5-2v-.5h1l-1-.5,1-1v1.5l-.5,1,3.5,2.5v2h-.5l1,.5-1,.5,1,.5-.5.5,1,1.5-1.5,1-2.5-1.5-.5,2v-1.5l-1.5,1.5-1-.5v.5l-.5-.5-1.5,1.5-.5-.5-1,1.5-1-2,.5-1-1.5,1,1.5-3.5"/>
      <path data-code="kurskij_rajon__kurskaja_oblast_" data-title="kurskij_rajon_(kurskaja_oblast&amp;apos;)" class="cls-1" d="M76.12,66.62l-1.5,3.5,1.5-1-.5,1,1,2,1-1.5.5.5,1.5-1.5.5.5v-.5l1,.5,1.5-1.5v1.5l1,1-1-1,.5-2,2.5,1.5,1.5-1-1-1.5.5-.5-1-.5,1-.5-1-.5h.5v-2l-3.5-2.5.5-1v-1.5l-1,1,1,.5h-1v.5l-1.5,2-.5.5,1.5.5-2,1-.5,2-1-1,.5,1.5h-2.5M77.62,48.62l1.5.5,1.5-.5.5,1,2.5-1,1,.5-1,.5v.5l2,1.5v-1.5h3.5v1h-1.5l-.5,1.5,1,1.86-.5-.5,1-.5v2l.5,1.5,2-.5-2,4,1.5.5.5-1,1-.5,1,2,6,3.5-1,1.5.5,1.5.9.39-.4,2.11-1.5,1-3,11-1,3.5-4.5,1.14,1-3-2.5,1.5-4.5.5.5-2.5,2-.5v-1.5l-6-.5-2.5-2,.5-2-7.5-4,1-.5,1.5-3.64,3-2.5-2-2.5v.5h-.5l.5-2.5-1-1.5,1-2,2-.5v-1.5h1l-1-1.5,2-1-1-2,.5-2.86.5-.5Z"/>
      <path data-code="l_gov" data-title="l&amp;apos;gov" class="cls-1" d="M48.62,48.62h.5l1-2,1.5-.5.5,2.5h-1v.5l-1,1v.5l-1.5.5-1-.5.5-1,.5-.5v-.5"/>
      <path data-code="l_govskij_rajon" data-title="l&amp;apos;govskij_rajon" class="cls-1" d="M48.62,48.62v.5l-.5.5-.5,1,1,.5,1.5-.5v-.5l1-1v-.5h1l-.5-2.5-1.5.5-1,2h-.5M41.62,37.12l1,.5,1.5-2.5h.5l1,1v.5l-.5-1-1,.5.5,2,1.5-.5,2.5,1-.5,1.5h4l3,2.5,1.5-2.5,1.5,1,1.5,4,3.5-1-1.5,4,.5,1h-1.5v.5l-2,1.5,1,.5-1.5,1,1.5.5-6,2v2l-2.5,6-2.5.5-4.5-1.14-.5-2.36-2,.5-1.5,1.5-1.5-2,3.5-2-1.5-3,.5-1,1.5-.5-1.5-1v1l-2,.5v-1.5l1.5-1-2.5-2v-2.14l2.5.5.5-3.5,1-1-1.5-1.36,1.5-1-.5-.5.5-2-.5-1.5"/>
      <path data-code="manturovskij_rajon__kurskaja_oblast_" data-title="manturovskij_rajon_(kurskaja_oblast&amp;apos;)" class="cls-1" d="M94.62,100.99l3.5-.5,1-1.5.5.5,1-1.5,7.5,1,4.5,4h1.5l1-1.5.5,3.5,2.34,2.34-.83.8,1,3-1,1.5v1l-1,1,1,1.5-1,.5-2.5,2.5-4.5-1.5-2.5-3h-3l-1.5,1-3.5-3,.5-.5-1-1.5-3.28,3.49-1.72-1.13.5-1.5h.5l-3-2,2.5-2.5,1-4-1.5-1,1.5-1Z"/>
      <path data-code="medvenskij_rajon" data-title="medvenskij rajon" class="cls-1" d="M57.12,69.12l3.41-1.36,1.59,1.86-.5.86,1,.5v2h2l1.5-1,1.5,2.64h1l1.5-1.5,7.5,4-.5,2,2.5,2,6,.5v1.5l-2,.5-.5,2.5-2,1.5-1-1-3,3.5,1,1.5-2.5,1.36-.5-2h-2l-1.5-3.86-1.5,3-3,.5-1-2.5h-2v-2.5l-4,2-1.5-2-.5,1-1-2.5-2.5-1.5.5-1.5-1.5-1.5v-2h1.5l2-1v-2.5l-2-1,.5-2,1.5-.5v-1.5"/>
      <path data-code="obojanskij_rajon" data-title="obojanskij rajon" class="cls-1" d="M50.62,83.49v-2.5l3-1.36,1.5,1.5-.5,1.5,2.5,1.5,1,2.5.5-1,1.5,2,4-2v2.5h2l1,2.5,3-.5,1.5-3.14,1.5,4h2l.5,2h-1.5l-2,3h-1l-1,3-2-.5.5.5-1,.5.5,1-2,.5,1.5,2.5-2,5.5.5,1-.5,1-1.5.5.5-4.5h-3.5l-2-2v-4l-1,1.5-3-2-.5-5-1,.5-2-1.5v2l-.5-2h-2l-2.5-5.36,2.84-6.66,1.16,1.03Z"/>
      <path data-code="oktjabr_skij_rajon__kurskaja_oblast_" data-title="oktjabr&amp;apos;skij_rajon_(kurskaja_oblast&amp;apos;)" class="cls-1" d="M62.12,69.62l-3-3.5,1-2,1.5-.5,6.5-4.5v-2l1-.5,1-1.5-.5-.5.5-2.5-1.5-2,2.5-2.5h2l1,2.5,2-1.5,1,.5-.5,2.86,1,2-2,1,1,1.5h-1v1.5l-2,.5-1,2,1,1.5-.5,2.5h.5v-.5l2,2.5-3,2.5-1.5,3.64-2.5,2h-1l-1.5-2.64-1.5,1h-2v-2l-1-.5.5-.86Z"/>
      <path data-code="ponyrovskij_rajon" data-title="ponyrovskij rajon" class="cls-1" d="M98.62,30.49h4l2.5,2.5,1.5-.5,1,1,2-1,4.5,1,1,6-.5,4.5-1.5,2,.5,1.5-1.5,1.5v4l-6.5-7-.5.5-5-1-1,1-1.5-1.5,1-3.5-.5-3,3-4.5-1-.5h-1.5v-3"/>
      <path data-code="pristenskij_rajon" data-title="pristenskij rajon" class="cls-1" d="M66.12,100.99l2-.5-.5-1,1-.5-.5-.5,2,.5,1-3h1l2-3h1.5l1.5,1,1,3.5-1,1.5,1,1,3.5-1v2.5h2l-.5.5,1.5,1.5-1.5.5-.5,1-1.5.5,4.5,2,1-1v-1l2-2.5,3.5,4h1.5l-2.5,2.5,3,2h-.5l-.5,1.5,1.5,1-2,4-1.5-1,1.5-1.5-1-.5h-2.5l-3.5,2-1-1-1,.5-2-2-5-.5v-1l-5,2-4-1,1.5-1,.5-1.5-1-3-2.5,1.5-.5-1,2-5.5-1.5-2.5"/>
      <path data-code="ryl_skij_rajon" data-title="ryl&amp;apos;skij_rajon" class="cls-1" d="M13.12,19.49h2.5l5.5,3h1.5l2.5,2.5,2-.5,1.5-1.5,1.5,1-1,2,3,.5-1,1.5,1.5.5-.5,1.5,1,1.5,2,1,1,2-.5.5h2.5v-1l1.5-.5h1l-1,5.5,2-1.86.5,1.5-.5,2,.5.5-1.5,1,1.5,1.36-1,1-.5,3.5-2.5-.5v1l-1,.5-4.5-5.5-1.5.5v1.5l-.5.5v-3.5l-2,1.5v1.5l-2.5-.5,1,5.5-1.5,3.5v-1l-1,.5h-.5l.5-.5-.5-.5v-.5l.5.5.5-.5-2.5-5.5-1,1-1-.5-1.5.5.5.5-2.5.5v-1.5h1l1-2-2-1v-1.5l-1.5.5-1.5-2,2-1,1.5.5v-.5l-3.5-1-2.5-4,1-1.5h1l-.5-2,1.5-2.5-1.5-1,1-1.5-1-.5,1.5-3-1-1v-2l-.5-.5"/>
      <path data-code="shhigrovskij_rajon" data-title="shhigrovskij rajon" class="cls-1" d="M109.62,74.99l.5.5v-.5h-.5M102.62,69.49v-2l1-1.5-.5-1,1.5-1.5h1.5l.5-1.5,2.5-1,.5,1,3.5-4.5,2,1,1-.5,2-4,1,1.5-1,2.5,1.5,3,2,2,.5,2,3.5.5-1.5,1,.5,1h-3l-1,2.5-1-.5-4.16,8.34-3.34-1.34v-2.5l-.5.5v.5l-1.5-.5,1.5,2.5v.5l2.5,1.5,3-.5,1,2.5-4.5,1.5-1,1.5-4.5-2-3,.5-1.5,1-1.5,2h-3l-3-3.5-1.5.5,3-11,1.5-1,.4-2.11,3.1,1.11Z"/>
      <path data-code="shhigry" class="cls-1" d="M110.12,74.49l1.5.5v-.5l.5-.5v2.5l5,2-3,.5-2.5-1.5v-.5l-1.5-2.5M109.62,74.99h.5v.5l-.5-.5"/>
      <path data-code="solncevskij_rajon" data-title="solncevskij rajon" class="cls-1" d="M80.12,86.62l1,1,2-1.5,4.5-.5,2.5-1.5-1,3,4.5-1.14,1-3.5,1.5-.5,3,3.5-.5,1.5h-1l1.5,2.5-.5.5,1,1-.5,1,3.5,1.5-1,1.5-2.5,2.5.5,1-.5.5-1,1.5-3.5.5-1.5,1,1.5,1-1,4h-1.5l-3.5-4-2,2.5v1l-1,1-4.5-2,1.5-.5.5-1,1.5-.5-1.5-1.5.5-.5h-2v-2.5l-3.5,1-1-1,1-1.5-1-3.5-1.5-1,2.5-1.36-1-1.5,3-3.5Z"/>
      <path data-code="sovetskij_rajon__kurskaja_oblast_" data-title="sovetskij_rajon_(kurskaja_oblast&amp;apos;)" class="cls-1" d="M119.62,93.49l1-1,1,.5,2-2,3.5,1,.5-4-.5-2,3.5-1.5h3l3-2.5,3,3.5,1.5,3.5,3-2,.5.5.5,4-1.5,4.5,1,1.5,1-.5-.5,1.5-3-1.5-2.5,1.5,2.5,1-1.5,3v1.5l-1.5,1.5-8-2-.5,2h-1.5l-1.5,2,.5,1.14-1,1.36-4.5,1-1.5-.86-.5-3.14v-1l-1-.5,1-1.5.5-3.5,2-1v-1.5h-2l-2-2-.58-1.01,1.08.02v-1.5"/>
      <path data-code="sudzhanskij_rajon" data-title="sudzhanskij rajon" class="cls-1" d="M23.12,65.49l3-2.86h2l1,1,3.82-2h4l2.29-.68.89,1.18,1.5-1.5,2-.5.5,2.36-1.5,2,1,2-2.5,1-.5.5-.5-.5h-.5l1,2-1,2.5,1,1.5-.5.5v1l-1.5,1,.5,1.5-1,1,1.94,4.41-.43.72-2-.64-1,1-1.5-.5-1.5,2-1-.5-1.5,4-2.5-1v-3.5l-1.5-1.5.5-1-2.5.5-.5-1-2,.5-.5-4h1.5v-1l1-.5-.5-1.5.5-2,3.5-2.5-2-2.5-2.5,1,.5-1-1-2.5"/>
      <path data-code="timskij_rajon" data-title="timskij rajon" class="cls-1" d="M97.62,86.99h1l.5-1.5h3l1.5-2,1.5-1,3-.5,3.5,1,2.5,2.5.5,1.5-.5.5,1,2,1,.5,1-.5,1,2-1,1,2,3.5,2,2h2v1.5l-2,1-.5,3.5-1,1.5,1,.5v1h-1l.5,2.5-4.5-4.5-.5-3.5-1,1.5h-1.5l-4.5-4-7.5-1-1,1.5-.5-.5.5-.5-.5-1,2.5-2.5,1-1.5-3.5-1.5.5-1-1-1,.5-.5-1.5-2.5"/>
      <path data-code="zheleznogorsk__kurskaja_oblast_" data-title="zheleznogorsk_(kurskaja_oblast&amp;apos;)" class="cls-1" d="M80.62,12.49l2-2,4,3.5,3-.5.5,1-4.5,3v-.5h-1l-1,2.5-1,.5-1-.5v-4.5l-2-.5,1.5-1-.5-1"/>
      <path data-code="zheleznogorskij_rajon" data-title="zheleznogorskij rajon" class="cls-1" d="M73.62,7.99l3-.5.5,1.5,1.5-2,2,1.5h1.5v2.5l-1.5,1.5.5,1-1.5,1,2,.5v4.5l1,.5,1-.5,1-2.5h1v.5l4.5-3-.5-1-3,.5-2-1.5,1.5-1-1-.5,1,.5,1-1.5h1l1,1.5,2,1,1-1,1.5,1.5-2.5,3,.5,1.5-.5,4-4,3v4.5l-3-.5-.5,4.5-1,1.5-1-.5-.5.5h-.5v1l-6.5-.86.5-4.14-3-3v-1.5l-.5,1-1.5-.5v-3.5l1-3,.5,1,3-1-.5-2,1-2-1.5-.5,1-.5-1.5-1,2-.5-1-5.5"/>
      <path data-code="zolotukhinskij_rajon" data-title="zolotukhinskij rajon" class="cls-1" d="M89.62,48.12l2-1v-1l1.51.47.49-.97h1.5v-.5l.5.5v-.5l2-.14,1.5,1.5,1-1,5,1,.5-.5,6.5,7v-4l1.5-1.5,3.5,3.5-1,1,2,2.5-2,3.5-1,.5-2-1-3.5,4.5-.5-1-2.5,1-.5,1.5h-1.5l-1.5,1.5.5,1-1,1.5v2h-.5l-3.5-1.5-.5-1.5,1-1.5-6-3.5-1-2-1,.5-.5,1-1.5-.5,2-4-2,.5-.5-1.5v-2l-1,.5.5.5-1-1.86.5-1.5h1.5v-1l.5-1.5h.5l-.5-.5Z"/>
    </g>
</svg>