<svg data-code="RU-OMS" xmlns="http://www.w3.org/2000/svg" viewBox="0 0 233.75 377.25">
    <g data-code="omskaja_oblast_"data-title="omskaja_oblast&amp;apos;">
      <path data-code="azovskij_nemeckij_nacional_nyj_rajon"data-title="azovskij_nemeckij_nacional&amp;apos;nyj_rajon" class="cls-1" d="M69.13,287.76l3-5,.5.5,1.5-3.5,1,.5,1-2,1,.5,2-3.5-1.5-1.5v-2l1.5-1-.5-.5,1.5-1,3,.5,1.5-3,1,.5,3-2,1.5.5,1,2.5-.5,3h.5l1,3.5-1.5.5-1,2.5,3,2,.5-2,3,1.5.5-1.5,1-1,2.5.5-2,2-1.5-1,4.5,8-1.5-.5-2,2.5-2.5-.5-1.5-1v-1.5l-4-2.5-3,4-1-.5-1.5,2.5-2-1-.5.5-2-2.5-1,1-.5-.5-2.5,3,2,1.5-.5.5,1.5,1,2-2.5,4.5,3-4,8.5-1.5-1-1,3-2-1-3,1,.5-.5-2.5-1.5-1.5,3-1.5-.5v-1.5l4-3.5-1-4-2.5-1,1.5-5-1.5-1"/>
      <path data-code="bol_sherechenskij_rajon"data-title="bol&amp;apos;sherechenskij_rajon" class="cls-1" d="M131.63,190.26l.5-1.5,3.5-3.5,5,6.5,5-2.5-1.5-3,6.5-3.5-4-4.5,1-5,2-1.5.5-3,1.5-.5-.5-2,4.5-2v-2.5l9-.5,8-2v1l-1,.5,1,1-1,1v1l3-1.5.5,3h1.5v2l-3,2,.5,1.5,1.5-1-.5,3-1.5-2-1,1.5,1,2,1.5-.5-1,2v4l-4,3,2.5,1.5v2.5l-1.5,1.5h-1.5l-.5,1h1v1.5h-2v1h1.5l-1.5,1.5-.5,3-2.5-1-1.5.5v2l2.5.5,2,1.5-2,.5-2,3.5,1,.5-1.5,3-1.5-1-4,5-3.5,1.5,2,.5-4.5,3h-.5l1.5-1.5h-1.5l-.5,1.5.5,1-.5,2h-2.5l.5,1.5-1.5.5-5.5-.5v-1.5l-1.5-.5-.5,1-3-1-2.5-5-4.5-1.5-1-2,1.5-1.5v-8l3-1.5.5-1-2-2,1-4.5-1.5-1.5"/>
      <path data-code="bol_sheukovskij_rajon"data-title="bol&amp;apos;sheukovskij_rajon" class="cls-1" d="M58.13,88.26l6,2-.5-2.5,4.5-2,3.5,5h5.5l.5-.5-1-4.5,21.5,6,3.5,1.5,8,8.5,23,4.5,1,.5-2.5,2.5-3,4.5-.5,2.5v1.5l.5-.5-.5,1.5,1.5-1.5,1,1.5,1-.5-.5,2,.5.5-.5,2.5-2,5-5.5.5-2,10,5.5-1.5,1.5,6h1v1.5l-5.5,6-4.5-.5-.5,1.5-4,1.5-3.5-2-1,.5v1.5l-1.5,1-.5,1.5v1l-1.5,1-5-.5-6.5,3-6-5.5.5-3v-2l-7.5-3.5-1-3-6-1.5-5.5,1.5-1-3.5-2.5,1.5.5,2.5-2-.5-.5-8.5,2.5-6.5v-1l4,.5.5-8.5v-4l-8-13-1-6.5-3-3-1-4.5"/>
      <path data-code="cherlakskij_rajon"data-title="cherlakskij rajon" class="cls-1" d="M123.63,300.76l8-7,2.5,3-1,.5,2.5,3.5,1-1,1.5,2,2,5,5.5-1,6,1.5-.5-2.5,4,1.5-2.5,4,1,2,12,4h2l1-1.5,4,2,5,.5-5,24.5-3.5,1-2.5-1.5-6.5,2,1.5,5-.5,2h-3l-14.5,9-1.5-2.5,2-3.5-1-2.5h1l1.5-1.5-.5-2-1.5-1h-2.5l-.5-2.5h-1l1.5-3.5,1.5-1,.5-1.5-.5-.5-1,1.5-3.5-4v-1h-1l1-3.5-2-1.5-2-5.5.5-1h1v-1.5l1-1.5v-1.5l-1-1h-1l-.5-2.5h-3.5l.5-.5-2.5-2.5.5-.5-.5-2v-3.5l-2.5-3.5-2.5-1"/>
      <path data-code="gor_kovskij_rajon"data-title="gor&amp;apos;kovskij_rajon" class="cls-1" d="M109.13,231.26l3-1v-2.5l1-.5-.5-1,2-2h1.5l1,.5,4-1.5,1.5.5,6.5-1.5,4.5-3.5,6.5,1,.5-1,1.5.5v1.5h3.5l2,1,1.5-1-.5-1.5h2.5l2,4v2l3,1v1.5l-4.5-.5-.5,3h-4l-1.5,5.5,1.5.5,1,1.5-.5,2,2,1v2.5l1.5,2,1,4.5-1.5.5,1,.5-1,4.5-.5,1-1.5.5-7-1.5-.5,2.5-3.5.5.5,1-1.5-.5v-1l-4-1,.5-1-3.5,1-2.5-1-2-2,1-1.5-1.5-.5-.5-2,1-1.5v-1l-2-1,1-2.5,1,.5,3-3h-2.5l-.5,1-2-2.5-3-1.5.5-1.5-2-1-2.5,2.5-4.5-2,.5-1-2.5-2-.5-2"/>
      <path data-code="isil_kul_skij_rajon"data-title="isil&amp;apos;kul&amp;apos;skij_rajon" class="cls-1" d="M14.63,231.76l1-2.5h5l1-2.5-1-2,3.5-2.5,3.5,3,1-1,1,1.5,5-1.5,1,1-.5,1,2,2,1-.5,2,1-.5,1.5,1,1,2.5.5-.5,2-2,2.5-.5-.5-2,4.5-2-.5-.5,2.5,1,.5-1,4,1,.5-.5,1h-1l-1.5,1,.5,2,2,.5v1.5h.5l-.5,2-.5-.5-1,3.5,1,.5-.5,2-.5-.5-1,4,3,1-2,3.5-6-1-3,3,.5,3-4,2.5-9-3,.5-2,2-1.5,2.5,1,1.5-4.5-2-.5.5-1.5h-1v-1l-4-1-1-5.5v-3l1-.5v-2l-1.5-3,3-5-.5-1.5,1.5-2,.5-3.5,1.5-.5-3-4"/>
      <path data-code="kalachinskij_rajon"data-title="kalachinskij rajon" class="cls-1" d="M133.13,263.76l3.5-.5,3.5-4-.5-.5.5-1h1l.5-2.5,8.5,1,1.5-5.5,2,1.5.5-1.5h1.5v2.5l3,.5,1.5,7,.5.5.5,2,1-1,.5,1,5-.5,4,1,1-2,1,.5-1,3,1,1.5-2,1.5v1l2,1-1,4,2,.5.5,5.5h-1l-2,2.5-5.5-1.5-.5-.5.5-4.5-7-3-.5,2-2-.5-.5,3,1,.5-.5,1-2-.5-.5,2.5-7.5-1.5-.5,2.5-2.5-.5-1,7-1.5-.5-1,5.5,5,1,4,4,3,1-.5,1-2,1,1.5,4v1.5l-6-1.5-5.5,1-2-5-1.5-2-1,1-2.5-3.5,1-.5-3-4,2-2,3.5.5,1.5-6-3-.5.5-.5,2-6.5h1l.5-1.5-3.5-1,1.5-10h-1v-1l-2,1.5-1-2"/>
      <path data-code="kolosovskij_rajon"data-title="kolosovskij rajon" class="cls-1" d="M97.13,180.26l5.5,1,1-4.5-.5-3.5,3-11.5,2-1-1.5-3,1.5-1v-1l.5-1.5,1.5-1v-1.5l1.5-.5,3,2,4-1.5.5-1.5,4.5.5,3-3,2.5-3v-1l7-2,1,2.5v1.5l-.5.5h.5l1.5,1.5,2,3,2-2,1,2.5,3,.5-.5,1,1.5.5,1.5-1.5v.5l.5,2-.5,1-2-1.5-1.5,1,6,6.5.5,1-1,1.5.5,4.5-1.5.5-.5,3-2,1.5-1,5,4,4.5-6.5,3.5,1.5,3-5,2.5-5-6.5-3.5,3.5-1.5,2.5-1,.5-5.5-4.64-4.5,4.14-4.5-2.14-1.5-2.36-5-.5v1.5l-3.5.5v-1l-8.5-4,.5-3"/>
      <path data-code="kormilovskij_rajon"data-title="kormilovskij rajon" class="cls-1" d="M114.13,254.26l1.5-2.5,2.5,1.5.5-1.5,1,1v-1h5l1.5.5-1,1.5,2,2,2.5,1,3.5-1-.5,1,4,1v1l1.5.5-.5-1h2.5l-.5.5.5.5-3.5,4-3.5.5,1,2,2-1.5v1h1l-1.5,10,3.5,1-.5,1.5h-1l-2,6.5-.5.5,3,.5-1.5,6-3.5-.5-2,2,.5,1-.5.5-1.5-2-3,2.5-1.5-1.5-.5.5-1.5-1-4-5.5.5-.5-1.5-1.5,2-1.5-1-1.5,3-3-7-6,.5-2h1v-1.5h.5l.5-5.5,1-.5-1-1,.5-1.5h.5l1.5-2-.5-1.5-2.5-.5-.5-2-1-.5-.5,1.5,1.5.5-.5,2-1.5-.5v-3l-.5-1"/>
      <path data-code="krutinskij_rajon"data-title="krutinskij rajon" class="cls-1" d="M28.13,153.26l5.5-2,3,1v-4l1-1.5-2-1-1-4.5-1.5,1.5-1.5-1,2.5-1,7,1,4.5-3.5,3-6.5-3.5-2,1-2.5h2l1,3,3.5,1.5,1.5-.5,2.5,2,2-.5v-2l6,2-.5,2,.5,8.5,2,.5-.5-2.5,2.5-1.5,1,3.5,5.5-1.5,6,1.5,1,3,7.5,3.5v2l-.5,1-6-.5-3,1.5-.5,1.5-6.5,3-.5,1,2,1.5-.5,2,2,1-2.5,10-1.5-.5-1.5,2-1,3v2l-7-1-3,1.5v.5l-1-.5-.5,3h1l-1,2.5.5,1.5,3.5,3.5-3.5,1.5,1,3-1.5.5-1.5-4-2.5,6-2,.5-1-.5.5-5-1.5-1-3,1-4-5,2.5-9-3.5-.5v1.5l-14.5-5.5,4-8h-.5l.5-2v-2.5h-1l-1-3.5,1-.5v-1.5h-1.5l-1-3.5"/>
      <path data-code="ljubinskij_rajon"data-title="ljubinskij rajon" class="cls-1" d="M53.63,228.76h1.5v-1l1-.5v-1l2-1.5,2.5-1-.5-2.5-.5-.5.5-1.5,6,.5,3.5-.5,1-1,2.5.5.5-2h.5l1-2.5,6.5,1.5,2.5,2.5-.5,1,2.5,3.5h1l.5-1,3.5,1-.5,2,2.5.5-1,3.5,4,1-1,2.5,1,3.5-1.5,1v1l-2.5,2.5-1,3,.5,1,3-1,1,2,2.5.5v1h-1l-2,3.5v-1l-1,.5h-1l-1,3.5h-1v1l-3.5-.5v3h-2v-1.5l-3-1.5,1-3-1-1-1.5,1.5-2.5-1-.5,2-3.5-1-7.5-.5-1,1.5-5-1v-3.5l1.5-5-1.5,1.5-6.5-3.5,1.5-6.5-2.5-1,.5-3-.5-1.5"/>
      <path data-code="mar_janovskij_rajon"data-title="mar&amp;apos;janovskij_rajon" class="cls-1" d="M49.13,263.76l1,.5,1.5-3.5,3,1v-1.5l2.5-2.5,1-3,1.5.5,1-4,5.5,1,1-1.5,11,1.5.5-2,2.5,1,1.5-1.5,1,1-1,3,3,1.5v3h-.5l-3,7.5,2.5,1.5-1.5,2.5-3-.5-1.5,1,.5.5-1.5,1v2l-1.5.5-6.5-.5v-1.5l-3.5-.5.5-1.5-3-.5-.5,1-6-1-.5,2-1.5-.5-1.5,3.5-2.5-2,.5-2.5-1-1.5.5-2-2.5-.5.5-2.5"/>
      <path data-code="moskalenskij_rajon"data-title="moskalenskij rajon" class="cls-1" d="M36.13,239.76l2,.5,2-4.5.5.5,2.5-3,5,1,.5-2.5,1,.5.5-1.5,3.5,1v1.5l2.5,1-1.5,6.5,6.5,3.5,1.5-1.5-1.5,5v3.5h-.5l-1,4-1.5-.5-1,3-2.5,2.5v1.5l-3-1-1.5,3.5-1-.5-.5,2.5,2.5.5-.5,2,1,1.5v1.5l-2,4.5,1,.5-.5,3-5.5-1-2.5,5-5-2.5-3-3,1-.5-.5-9,2-3.5-3-1,1-4,.5.5.5-2-1-.5,1-3.5.5.5.5-2h-.5v-1.5l-2-.5-.5-2,1.5-1h1l.5-1-1-.5,1-4-1-.5.5-2.5"/>
      <path data-code="muromcevskij_rajon"data-title="muromcevskij rajon" class="cls-1" d="M163.63,196.26l1-1,3,1,.5-3,1.5-1.5h-1.5v-1h2v-1.5h-1l.5-1h1.5l1.5-1.5v-2.5l-2.5-1.5,4-3v-4l1-2-1.5.5-1-2,1-1.5,1.5,2,.5-3-1.5,1-.5-1.5,3-2v-2h-1.5v-2.5l3-2,1,.5-1,.5.5,1-1,2h.5v1.5h2l3.5-4,5-3.5v-.5l5-2,.5,3,9,1.5-.5,3,28.5,6-5.5,3v1.5l-4.5-1-1.5,3.5-2.5,3.5h-4l-1,1v1.5l-1,3,.5,1,1.5-1,.5.5.5-.5-.5-.5,2-1v1l1.5-1.5,1,.5v1l.5-.5v-.5h1l1.5,1.5.5,2-2.5-.5.5,2.5-1,4,.5,2-1,.5,1.5,2,1.5-1,1.5,5,2,3-.5,2-6.5,1v-2.5h-2l-1.5-1.5-3,3-8-1.5v1l-2.5,1.5-1.5,2-4.5-.5v1.5l-1,1-4.5,3.5-4,2-14-4-.5,3.5-2-.5.5-1-3-.5.5-4.5h-1l1-3-2-1.5.5-2-1-.5,2-3.5,1,.5,1-1v-.5l-4-1-.5-2"/>
      <path data-code="nazyvaevskij_rajon"data-title="nazyvaevskij rajon" class="cls-1" d="M2.12,208.12l6.5-4.5,3.5,1,3-4,2-1.5v-1.5l-1-1.5-2.5-.5-2.5-3v-3l1-3,2-1.5-1-2,4-.5v1l1.5.5,2.5-1.5,3,.5-2.5-2.5h-5.5l-1,1-3.5-3,1.5-4,11.5,3.5,3-3.5,14.5,5.5v-1.5l3.5,1-2.5,9,2.5,3.5,1.5,1.5,3-1.5,1.5,1-.5,5h3v1l3,1-.5,3v1.5l1,.5.5,7.5-2,.5v1.5l4,4.5-.5,2,.5.5.5,2-2.5,1-2,2v.5l-1.5.5v1l-1,.5.5,1-.5,2-3.5-1-.5,1h-1l-.5,2.5h-1l-4.5-1.5.5-1-3.5-2,.5-1-4.5-2-.5-1,.5-.5-1-1-5,1-1-1-1,.5-3.5-3-3.5,3,1,2-1,2.5-5-.5-1.5-1.5-1.5-6.5,1-.5v-1l-4-1-3.5,2-5.5-3.5,2.5-3.5-1-5.5"/>
      <path data-code="nizhneomskij_rajon"data-title="nizhneomskij rajon" class="cls-1" d="M145.62,236.12l1.5-5.5h4l.5-3,4.5.5v-2l-3-.5-.5-2.5-1.5-3.5.5-2-.5-1.5.5-1h1.5l-1.5,1.5,4.5-3.5h-1.5l3.5-2,4.5-4.5,1,.5.5-1,2.5,2-1,2.5,1,.5-.5,4.5,2.5.5v1h2l.5-3,14,3.5-3,4,1.5.5,1,2.5,1-.5-1,4.5-5-.5-4.5-2.5-1,2,1.5,1.5-1,1.5,4,5h-2l-2.5,2,2,3.5,3-.5.5,1.5-.5,3-6.5,2,1,2-4.5,2.5,2.5,2-.5,2,1,.5-.5,2.5,1,.5,1,3h-1l-1.5,1.5-3.5-1-5,1-.5-1-1,1-.5-2.5-1-.5-1-6.5-3-.5v-2.5h-1.5l-.5,1.5-3-2.5h1.5l-1-5-1.5-1.5v-3l-2.5-.5.5-2-.5-1.5-1.5-.5"/>
      <path data-code="novovarshavskij_rajon"data-title="novovarshavskij rajon" class="cls-1" d="M112.62,328.63l1.5-3.5,2-.5,1,2,7.5,1.5.5-1-2-3.5,2.5-7,4-4.5,1.5,2-.5.5h3.5l.5,2.5h1l1,1.5-.5,1.5-.5,1v1.5h-1l-.5.5,1.5,6,2.5,1-1,4,1-.5v1.5l3,3.5,1.5-1,.5.5-.5,1.5-1.5,1-1.5,3h1l.5,3,4,.5v2.5l-1,1.5h-1l1,2-2.5,4-7-2-2.5,5.5-3-1.5-3,5.5-6-3,2-4.5-1-.5,1.5-3.5,1,.5.5-1,1-2.5-1-.5,1.5-3.5-4-2.5,2.5-2-.5-1-9-4.5-.5-1.5,1-2-1.5-1,1.5-2-2.5-1"/>
      <path data-code="odesskij_rajon"data-title="odesskij rajon" class="cls-1" d="M48.62,308.63l2-3.5h3l5.5,2.5-.5,1,2,1,1-2,.5.5,1-3h1.5l1.5-2.5-1-.5.5-1.5,1.5,1,1-2,2,1-2,3,2,1,1.5-3,2.5,1-.5,1,3-1,2,1,1-3,5,2.5.5,2.5h1l-2,3.5,1.5.5-3,6,4,3-3.5,7.5-1-.5-1.5,2-4.5-1-1.5,3.5-1.5-1,1-3-.5-.5-3-1.5,1.5-3-6-1.5v-1.5l-7.5-3.5v1.5l-2-.5-2.5,5,5.5,1,.5,3-1,3.5-5-3-4,4.5-2-1.5-1.5-2.5,2.5-2.5,1.5-3.5-1.5-1,1-1.5-1.5-.5,1-1.5,4.5.5,1-2-4-2-2.5-3"/>
      <path data-code="okoneshnikovskij_rajon"data-title="okoneshnikovskij rajon" class="cls-1" d="M140.62,293.63l1-5,1.5.5,1-7,2,.5,1-2.5,7.5,1.5v-2.5l2.5.5.5-1.5h-1l.5-3.5,2,.5.5-1.5,2.5.5-.5,1,5,1.5-.5,4.5.5.5,5.5,1.5-1,2v1l6.5.5-1.5,1.5.5,6,3-.5v1h1v7.5l-.5,2,2,.5.5-2,2,1,1,6.5-1,.5-2,4-4-1.5-1,4.5-5-.5-4-2.5-1,2-2-.5-12.5-3.5-.5-2,2.5-4.5-4-1-1-3,2-1,.5-1.5-3-.5-4-4.5-5-1"/>
      <path data-code="omsk" class="cls-1" d="M90.12,264.13l1-1,1.5.5.5,1,2.5.5-3-3.5,1.5-1.5v-1l1,1-1-2.5v-4.5l1.5-1.5.5.5-.5,2,3-.5,2,7,3-1.5-1.5-.5,1-.5,1,.5,1,2.5,3-2-1,1,1,2.5-2,1,1.5.5.5,1.5.5-.5v3.5h-3.5v1h-.5v1l-1,.5,3.5,2,.5-.5,1.5,1.5h-1l-2.5,2-4-4.5-1.5,1,1,1.5-4,.5-1-2,.5-3-1.5-.5v-3l-5-2"/>
      <path data-code="omskij_rajon"data-title="omskij rajon" class="cls-1" d="M90.12,264.13l5,2v3l1.5.5-.5,3,1,2,4-.5-1-1.5,1.5-1,4,4.5,2.5-2h1l-1.5-1.5-.5.5-3.5-2,1-.5v-1h.5v-1h3.5v-3.5l-.5.5-.5-1.5-1.5-.5,2-1-1-2.5,1-1-3,2-1-2.5-1-.5-1,.5,1.5.5-3,1.5-2-7-3,.5.5-2-.5-.5-1.5,1.5v4.5l1,2.5-1-1v1l-1.5,1.5,3,3.5-2.5-.5-.5-1-1.5-.5-1,1M82.12,265.63l3.5-9,2,.5v-3l3,.5v-1h1l1.5-4,1,.5,1-1v1l2-3h1v-1l-2.5-1-1-1.5h-2v1l-1.5-1-.5-1,1.5-2,3.5-4.5,4.5,1,1.5-1.5h-1v-2l1.5-1,.5,2,2.5-2.5,4-1.5v2l3,3-.5.5,4.5,2.5,2-2.5,2.5,1-.5,1.5,3,1.5,2,2.5.5-1.5h2l-2.5,3-1-.5-1,3,2,.5v1l-1,1.5v2.5l-4.5-.5-.5,1-.5-.5-1,1-2-1-2,2.5,1,.5v3.5l1,.5.5-2.5h-1l.5-1.5,1,.5.5,1.5,2.5,1,.5,1-1.5,2.5h-.5l-.5,1,1,1.5h-1l-.5,6h-.5v1h-1l-.5,2.5,7,6-3,3,1,1.5-2,1.5,1.5,1.5-.5.5,5,6,1-.5,1.5,2,3-2.5,1.5,1.5-5.5,5v.5l-.5,1h-5l-1.5-1.5h1l-1-1-1,.5-3-6.5-4.5-2-4.5-5-1.5-3.5.5-3-1-2h-6l-1,1-.5,2-3-1.5-1,2-2.5-2,1-2.5,1.5-.5-1-3.5h-.5l.5-3-1-2.5h-3l-3,1.5-2-2"/>
      <path data-code="pavlogradskij_rajon"data-title="pavlogradskij rajon" class="cls-1" d="M74.62,330.13l1.5-3.5,4.5,1,1.5-2,1,.5,3.5-7.5-4-3,3-6-1.5-.5,1.5-3,5.5,2.5,1-2,3,1.5,1-2,6,3,1-1,1.5.5,1-1,3.5.5,1-4.5,1,.5,4.5,7-5.5-.5v4.5l1,.5,2.5-.5.5,1.5-1,1.5,5,2.5,1.5-3,5.5,9.5-.5,1-7.5-1.5-1-2-2,.5-1.5,3.5,2.5,1-1.5,2,1.5,1-1,2,.5,1.5-1.5,1-.5,3-9.5-2,2-4-10-5.5.5,2-2,2-3.5-.5-.5,4-.5.5-4-4-.5,2.5-3.5-1-6.5-4"/>
      <path data-code="poltavskij_rajon"data-title="poltavskij rajon" class="cls-1" d="M2.62,285.68l4.5,1.5-.5.5,3,2,1-3,1,.5,1-3.5-1-.5,1-4h-1l1.5-6.5,9,3.5,4-2.5-.5-3,3-3,6,1,.5,9-1,.5,2.5,2.5,5.5,3-.5,1,2.5,1-2.5,6,6,3.5-1,.5-6-2.5.5,3,1,.5,1.5,2-2.5,5.5,4,4-3,3-2-2,.5-1.5-1-1v-1.5l-3.5-4-1.5.5-5.5-3-2,4.5.5,2.5-2.5,2.5-3.5-.5v-1h-5l1-4-6.5-3.5-1.5,2-4.5,3-1.5-3,1-2.5h-1l.5-1.5-2-1,.5-1,.5.5,1.5-5-3-.5,1-4.5"/>
      <path data-code="russko-poljanskij_rajon"data-title="russko-poljanskij rajon" class="cls-1" d="M72.62,359.13l2.5-4-.5-.5.5-2h2.5l.5-1,2-4v-2.5l4-.5v-2.5l1.5-2,8.5,3.5,5.5-12,5.5,2.5-2,4,9.5,2,.5-3,1.5-1,9,4.5.5,1-2.5,2,4,2.5-1.5,3.5,1,.5-1.5,3.5-1-.5-1,2-.5,1.5,1,.5-4.5,10,1.5,3-5,6.5-3-2.5.5-2-1-.5,1-2.5-2-1,.5-1.5-2.5-1-1.5,2.5-3-1.5,1.5-4-6-3-4.5,4-2-2.5-3-.5-1.5,3-2-.5-1.5,3-6,4-2.5-2.5,2-3.5-5-5"/>
      <path data-code="sargatskij_rajon"data-title="sargatskij rajon" class="cls-1" d="M87.62,222.12l.5-3,2-1.5,2-4-1.5-.5v-1l3,.5.5-2,1-.5,3.5,1,.5-2-1-3,.5-3.5h-2l.5-3,1.5.5v-3.5l5.5.5,2-2-1.5-.5,7.5-5,3-.5,4.5,2,4.5-4,5.5,4.5,1.5-1,2,1-1,5,2,2-.5,1-3,1.5v8l-1.5,1,2.5,3.5,3,.5,2,3v1.5l1.5,1-4.5-.5-4.5,3.5-6.5,1.5-1.5-1-4,2-1-1-1.5.5-2,2,.5.5-1,1-.5,2.5-2,1-1-1-3.5,1.5-2.5,2.5-.5-2-1.5,1v1l1,1-3,2-3-2.5-.5-2.5,1-3-4-.5,1-3.5-3-.5,1-2-3.5-1"/>
      <path data-code="sedel_nikovskij_rajon"data-title="sedel&amp;apos;nikovskij_rajon" class="cls-1" d="M184.62,134.62l1.5-1-.5-1,2.5.5,2-3.5,1-.5v-1l3.5-2,.5-2h-2.5v-2l1.5-1,.5-2.5,5,1,.5-2,3,2,20.5,2,2-2h4l2.5,12-.5,21,1.5,4.5-2,3.5,1,1-1,8-28.5-6,.5-2.5-9-2-1-2.5-6,3-1.5-2,1-3-2-2v-1.5l-2-1,3-4.5,1.5.5.5-2.5-2-1,1-2.5,1.5,1,.5-2h-2.5l-1.5-1,1-2-1-1.5"/>
      <path data-code="sherbakul_skij_rajon"data-title="sherbakul&amp;apos;skij_rajon" class="cls-1" d="M41.62,285.13l3-6,5.5,1,.5-3-1.5-1,2-3,2.5,2,1.5-3.5,1.5.5.5-2.5,6,1.5.5-1.5,3,1-.5,1,3.5,1v1l3,1,1.5-.5,1,.5,2.5-.5,1.5,1-2,4-1-.5-1,2-1-.5-1.5,3h-.5l-3,5,1.5.5-2,5.5,2.5,1,1.5,4-2,2-2.5-1.5-1,2-1.5-1-.5,1.5,1,.5-1.5,2.5h-1.5l-1,3-.5-.5-1,2-2-1,.5-1-3.5-1.5-7-2,1-3.5-3-4.5,1-.5-6-3.5,2.5-6-2.5-1"/>
      <path data-code="tarskij_rajon"data-title="tarskij rajon" class="cls-1" d="M135.62,141.62l4-2-1-1.5.5-3.5,4-1-1-1,3-1,1.5-2.5,2.5-.5,1-1.5,1-.5v-1h1v2l1,1-.5,2,1,.5-.5,1.5-1,.5,1.5,1-.5,1v2l2-1,2.5.5,4-3-.5-.5,1-1.5h-3l.5-2.5.5-1.5.5,1,2-.5-.5-1h.5l.5-1.5-.5-1-2,.5,1.5-1-2.5-2.5,2.5-2v-1.5l2.5-2.5-4.5-4v1.5h1l.5,3-3,.5-.5-3.5.5-3-2.5-1.5,1.5-2-2-1.5,2.5-2,2.5-10-1-1.5-.5-4.5,3-.5v-2.5l-2-.5,1-1-3-4.5h.5l2-10.5,4.5.5,1-5,8,2,1-5,6-4.5,9.5-5.5,6.5-1.5,1-1-.5-.5,1-1h-.5l1-.5v-.5l1-.5-.5-.5,5.5-2.5,4-.5.5-2,1.5-1v-1.5l7-4,7,10-12.5,5.5,4,11-7,4.5,14.5,16-.5,4-5,17,5.5,1.5,1.5,17.5-2,2-20.5-2-3-2-.5,2-5-1-.5,2.5-1.5,1v2h2.5l-.5,2-3.5,2v1l-1,.5-2,3.5-2.5-.5.5,1-1.5.5,1,2-1,2,1.5,1h2.5l-.5,2-1.5-1-1,2.5,2,1-.5,2.5-1.5-.5-3,4.5,2,1v1.5l2,2-1,3,1.5,2-3.5,2.5-3.5,4.5h-2v-1.5h-1l1-2v-1l1-1h-.5l-7,2.5-.5-1,1.5-.5-1-1,1-1v-.5l-8,2-9,.5v2.5l-4.5,2,.5-2.5-.5-.5,1-1-.5-1-6-6.5,1-1,2.5,1,.5-1-1-1.5.5-.5-1.5,1.5-1.5-1,.5-.5-3-1-1-2-2.5,2-1.5-3.5-1.5-1.5-1,.5,1-1v-1l-1.5-3"/>
      <path data-code="tavricheskij_rajon"data-title="tavricheskij rajon" class="cls-1" d="M75.62,289.13l1.5-2,2-1,2.5,2.5.5-1,2,1.5,1.5-3,1,.5,2.5-4,4.5,3v1l1.5,1.5h2.5l2-2.5,1,1-4-8,1.5,1,.5-1.5,1-.5.5-1,1.5.5.5-1h1l1,2.5v3l1.5,3.5,4.5,5,4.5,2,3,6.5,1-.5,1,1h-1l1.5,1.5h3.5l3.5,3,2,2.5-.5,3,.5,1.5-.5,1,1,.5-4,4.5-2.5,7-3.5-6-1.5,3-5-2.5,1-1.5-.5-1.5-2.5.5-1-.5v-4.5l5.5.5-4.5-7-1-.5-1,4.5-3.5-.5-1,1-1.5-.5-1,1-6-3-1,2-3-1.5-1,2-5.5-2.5-1-3-4-1.5,4.5-8.5-4.5-3-2,2.5-3-3.5"/>
      <path data-code="tevrizskij_rajon"data-title="tevrizskij rajon" class="cls-1" d="M75.62,84.62h2l1.5-3v-5l3.5-3.5h-1l.5-4,1-1-1-.5,4.5-.5,1,3,2-1.5,1-2.5,1,1.5,1-3.5-1-.5,2-3.5-1-1.5,4.5-8,6-7,1-5,3.5,3v2.5l1.5,3,21.5,6.5h2.5l3.5-3.5,7.5-4.5,37,10-6,4.5-1,5-8-2-1,5-4.5-.5-2,10.5h-.5v.5l-.5,1.5-3.5,2.5-4-1,1,4.5-2.5,1.5,1.5,2.5-.5,1.5h-1.5l-.5,2.5-6.5-1.5-1.5,2,2.5,1.5-1.5,2.5-.5-1.5-2,.5-1,2v1h-1l1,1v2.5l-2.5.5-1.5,2.5-23.5-5.36-8-8.14-3.5-1.86-21.5-6-1-1.14"/>
      <path data-code="tjukalinskij_rajon"data-title="tjukalinskij rajon" class="cls-1" d="M54.62,196.62l2-4,1.5,3.5h1l-.5-3.5,3.5-1-3.5-3.5-.5-1.5,1-2.5-1-.5.5-2.5,1,.5v-.5l3-1.5,7,1-.5-2,1.5-3,1.5-2.5,1.5,1,2.5-10.36-2-1,.5-2-2-1.5.5-1,6.5-3.14.5-1.36,3-1.5,6,.5v2l6,5.5,6-3.14,5.5.64,1.5,3-2,1-3,11.5.5,3.36-1,4.64-5.08-.92-.92,2.79,8.5,4v1.14l3.5-.5v-1.5l5,.5,1.5,2.36-4.5,1.5-1,.5v.5l-5,3,1.5.5-2,2-5.5-.5v3.5l-1.5-.5-.5,3h2l-.5,3.5,1,3-.5,2-3.5-1-1,.5-.5,2-3-.5v1l1.5.5-2,4-2,1.5-1,4-1.5-.5-2-3.5.5-.5-2.5-3h-5l.5-1h-2.5l-.5,2h-1v2.5l-2.5-.5-1,.5-4,1-5.5-.5-4-5v-1.5l2-.5-.5-3v-4.5l-1-.5.5-4.5-3-1,.5-2.5"/>
      <path data-code="ust_-ishimskij_rajon"data-title="ust&amp;apos;-ishimskij_rajon" class="cls-1" d="M45.62,38.62l1-1,.5-1.5,2,.5v-1l2-2.5L73.62.62h1l2.5,1-.5,1,1,1,3.5.5-.5,2,1,.5v1.5l-1.5.5.5,1,1.5-1,.5,2,3.5,2,.5,2-1,2-2.5,1-5,14.5,1,1.5-1.5,1v1.5l2,.5,2-1,4,2,18.5,1-1,5-6,7-4.5,8,1,1.5-2,3.5,1,.5-1,3.5-1-1.5-1,2.5-2,1.5-1-3-4.5.5,1,.5-1,1-.5,4h1l-3.5,3.5v5l-1.5,3h-2l1.5,1.5.53,4.69-6.53.31-3-5-4.5,1.5.5,2.64-5-1.14.5-2-1.5-1,1.5-3.5-3-1,1.5-1.5-.5-1h-1.5l-1,1.5-3-2-2.5,1-.5,2-1.5-.5-1,1.5,2,2.5-3,2v1.5l-1.5.5-3.5-1.5.5-1,1.5-.5v-3l-5-1.5-2-4,.5-3,2.5-2.5,6.5-1.5,2-2,2.5-1,1-2.5-1-2.5h-1.5l1-10-2.5-1.5.5-2.5-2.5-1.5,2.5-4,.5-2-1-.5,1.5-1-1-.5-1,.5-.5-1"/>
      <path data-code="znamenskij_rajon__omskaja_oblast_"data-title="znamenskij_rajon_(omskaja_oblast&amp;apos;)" class="cls-1" d="M123.12,129.12l5-.5,2.5-5.5.5-2-1-.5,1-2h-1l-1-1-1.5,1.5.5-1.5-.5.5-.5-2,1-2.5,3-4.36,2.15-2.39,1.35-2.25,2.5-.5v-2.5l-1-1h1v-1l1-2,2-.5.5,1.5,1.5-2.5-2.5-1.5,1.5-2,6.5,1.5.5-2.5h1.5l.5-1.5-1.5-2.5,2.5-1.5-1-4.5,4,1,3.5-2.5.5-1.5,3,4-1,1,2,.5v2.5l-3,.5.5,4.5,1,1.5-2.5,10-2.5,1.5,2,2-1.5,2,2.5,1.5-.5,3,.5,3.5,3-.5-.5-3h-1v-1.5l4.5,4-2.5,2.5v1.5l-2.5,2,2.5,2.5-1.5,1,2-.5.5,1-.5,1.5h-.5l.5,1-2,.5-.5-1-.5,1.5-.5,2.5h3l-1,1.5.5.5-4,3-2.5-.5-2,1v-2l.5-1-1.5-1,1-.5.5-1.5-1-.5.5-2-1-1v-2h-1v1l-1,.5-1,1.5-2.5.5-1.5,2.5-3,1,1,1-4,1-.5,3.5,1,1.5-1.5.5-2,2-7,2-1.5-1-1-6-5.5,2,2-10"/>
    </g>
</svg>