<svg xmlns="http://www.w3.org/2000/svg" viewBox="0 0 160 195.85">
      <path data-code="MOS-BRO" d="m93.25,118.1v1l1.5-.5.5,3-1-.5v1l-1.5-.5-.5-1.5.5-2h.5Z"/>
      <path data-code="MOS-CHE" d="m45.75,109.75l5,1,2.5-4h2.5l1.5,2,.5-1v3l4-.15,1.5,1,3.5-.5v1l-.5,1.5,1,.5,1.5-1,1,1,.55-.8-.55-.55,1-.15,1.25,1-2.25,1.65,2.5.5-.5,1-1.5-.5v1l-2,.5v2.5l-2-.5v1l-2.5,1v1.5l2.2,1.65-1.2,1.2-.5,2-2-.5-1,.5,1,1.5h-.5l-1.5,2-1.5-2.85-1.5-1v1h-1.5l1-1.5-1.5.5-.5-1,1.5-2v-1l-1.5-2-1.5.5-1.5-2-.5,1h-1l-1-2.5-2,.5v-1.5l-2-2,1.5-2.5-1.5-1.5,1-1-.5-1"/>
      <path data-code="MOS-DMI" d="m98.75,33.25l3.5-1.5,2,1,1-1-1.5-.5v-.5l1.5-.5.5,1,3-1.5v-1.5l1-.5.5-2,1.5.5v-1.5l2-.65,1,3v8.15l-1,3.85,5.5,2,.5,4,4.05-1.5h2.5l-.55,3.65-1.5,2.5,1,2-1,1,.5.5-3.5,1-.5,1.5-.5-.5-1,1h-.5v.5l-1,1.5h-1.5l-.5,3h-1.5l.5.5-1,2-1-.15-2.5.5.5,1-2.5-.5v1.5l-2,2.5-1-2.35-.5-3-3-1.5-.5,1h-.5v1l-1,1v1l-5.35,1.25.35-1.25-4-2.15,1.5-3h1.5l-1-2,.5-1.5,1-1-.5-.5h2.5l.5-1v-3.5l-2.5-1.5,2.5-2.5-1-1.5.5-5.85,1-2,1,.5-.5-.5,1-2v-2.5"/>
      <path data-code="MOS-EGO" d="m107.75,139.75h3.5l-.5-1.5,1-1.5.8-1.6,2.2.6.5-1,1-.15.5-1,1.5,1.5,1-1.5-.5-.5,2.5-1.5,2.5,3.5,2.5-2,5,3.5,1,1-1,.5-.5,1.5,6.5,4.5-2,2.5.5,1-.5,1-1.5-1-.5,1.5-1.5-.5v1.5l-4,.5-2,2,.5,1-1.5,1,1.5,4,3,2-1,2.5v3l-.5.65-1.5.5-2,3.35-1.5-1-4.5,3.65-.5-4.5,1-1.5-1-1,1.5-4-1-1v1h-1l.5-1.5-4-3.5-.5.5-.5-2-1.5.5-1-4.5,1-2-3,.5-2-1.5-.5-2.5,1.5-1.5,2,.5.5-1h-2l.5-1-.5-1.5,1.5-.5-1.5-1.5"/>
      <path data-code="MOS-BAL" d="m98.75,88.25v.5h.5l-.5-.5m-1,.5l.5,1h1l-.5-1h-1m1.5-5v1l3,1.5,1,2.5v1.35l1,.5v2.5l-.5,2h-1.5l1.5,4-1.5-1-.5,2.5-.5-.5h-1.5l-1-1.85-1-.5-1-3h-2l.5-1.5,1,.5,1-2-1-1,1.5-2.5v-3.5l.5-1h1Z"/>
      <path data-code="MOS-CHEG" d="m121.75,87.25l2-.5v-1l1.5,1.35,1-2.5.5,1.5-1,1,.5,1-2.5-.35,1.5,1.5-1.5,1.5-2-1.5-.5,1-2-.5-1-.5,1.5-2.65-1-1,.5-1,2.5,2.65Z"/>
      <path data-code="MOS-DOL" d="m94.75,70.75l.5,1-1.5,3-.5-.5-1,2.5h-1l-.5-1,2.5-3-1-.5,1.8-1.95.7.45Z"/>
      <path data-code="MOS-DME" d="m75.25,107.1v-.5l2-1v-.5h1.5l2-1.35,1,1.5h1.5l.5,1.5h.5l.5-1.5.5,1,1.5-.5v2.95l-.5-.1-.5,1h-.5l.5,1,.5-1,1,.5-1,1-.5,1.5-1-.35-.5,1,1.5,1-1,2,.5,3.35-1.2.8-.3-1.15-1.5.35.5,2-.5.5,2.5.5v1.5l-1.5,1.5-3,1-1-1.5-3,.5v-1.5h.5l-.5-1.5-1,1v1h-1l.5,1.5-.5,1.5h-2l-.5-1.5-1.5-.5-.5,1.5-.5.5-1-3-1-1-1.3,1.3-2.2-1.65v-1.5l2.5-1v-1l2,.5v-2.5l.5-.5h1.5v-1l1.5.5.5-1-2.5-.5,2-1.5.25-.15,1.25,1,1.5-4-1.5-2,.5-.5v-1h1.5Z"/>
      <path data-code="MOS-DUB" d="m113.75,18.25l6,2-1,1v2l-2.5,1.35-2-.35-.5-6"/>
      <path data-code="MOS-DZE" d="m88.25,98.25l2.5-.5.5,3-2,.5.5-1.5-1.5-.5v-1"/>
      <path data-code="MOS-ELE" d="m112.75,101.6l2.5-1,1.5.5.5,2.5-1,2.5-2.55-.85-1.95-2.15,1-1.5Z"/>
      <path data-code="MOS-FRY" d="m110.75,85.1l-.5-.5-.5,1.5h-1l.5-3,1.5,2Z"/>
      <path data-code="MOS-KHI" d="m87.25,68.6l5,.65,1.8,1.05-1.8,1.95,1,.5-2.5,3,.5,1-3.5-1,.5-2.5,2.5-1.5-2-2-.5,1h-1l1,1.5-1.5,1v.9l-2-.4,1-1.5-.85-1.25.85-1.4.5,2,.85-1.55-.35-.35-1-.15h-.5l-.5-1,.5-1.5h1.25l.75,1.55Z"/>
      <path data-code="MOS-KOR" d="m99.75,82.25l3.5-2,2.15,2.2.35-.2.5.85h-2v1l-1,.5.5.5-1.5,1.15-3-1.5v-1l1,1,1.5-.5-2-2"/>
      <path data-code="MOS-KOT" d="m91.25,97.75l1-1v2.5l-1.15.55-.35-2.05h.5Z"/>
      <path data-code="MOS-LOB" d="m93.25,67.25l4.5-1-.5,1,1,1-2.5.5.5,1-1.5.5-2-1.5.5-.5v-1"/>
      <path data-code="MOS-LOS" d="m109.25,92.6l.5-.5.5,1,1-1.5v1.5l-.5,1.5-2-2h.5Z"/>
      <path data-code="MOS-LYT" d="m91.25,101.75l-.5,3,1,.85-1,1-1-1-.5-4.35,2,.5Z"/>
      <path data-code="MOS-PRO" d="m40.45,126.25l1.8,1.35v1.5l-2.35,1.35-1.65-2.7,2.2-1.5Z"/>
      <path data-code="MOS-PUS" d="m48.75,138.1l3.5,1-1,2.5-2-.5v-1.5l.5-.5-1-1"/>
      <path data-code="MOS-REU" d="m96.25,90.75l1,1-1,2-1.55-.75,1.55-2.25Z"/>
      <path data-code="MOS-IST" d="m62.75,40.25v1.5l5.5,2v1l4,2.5h1.5l.5-1.5,1.5,1.5v-2l.5,1.5v.35l1.5,3v5l3,3.5-1,2.5,2.5.5-2.5,2.5,1,1v1.5l-.4,1.45-.6.2.5,2.5-2.5,1v1.5l-.5.5h.5-1.5l-1.5,1-1.5-.5v1l-3-3.5-.5-2,.5-1h-1.5l.5-1-.5-1-5.5-4.65-4,1.5-1-1-2.5-1,.5-1-1-1,1-1.5,2,1v-1.5h2.5l-.5-4.5,1-2,1,2,1.5-1.5-.5-2-2,1.5.5-1.5,1-.5-2.5-2-.5,1-1-.5,1.5-2.5-.7-.35,1.2-5.05,2,.55Z"/>
      <path data-code="MOS-KAS" d="m58.75,149.75l2.5-1,.5-2,3.5,3.85,4-.5,8,6-1.5.5-.5,3.5h-1l1.5,1.5-.5,1v2l-.5,3.5-2.5,2.5-3-.35v-2l-2.5-1-.5.5v-2.5h-2l1-2-2.5-.5,1-2.5-3-1,.5-2-2.5-2,.5-1h.5l1-1.5v-1.5l-2-1.5"/>
      <path data-code="MOS-KLI" d="m69.75,18.75l1.5-.5,5,2.5,2-1,5,1,3,2.5,1-1.5,2,1,1.5-.5,1,2.5v-2l6.5.5h.5l.5-1.5,3.5,5.5-.5,1,1,2.5,2,1.5-2,.5-1-1-3.5,1.5v2.5l-1,2,.5.5-1-.5-1,2-1,1-2-.5.5,2.5h-1l-.5-2h-2v1l-1.5-1-3,3.5-4.5-1.5-.5,1h-1l.5.85h-1.5v2.5l-2,1,.5-.5-1-.5v-.35l-.5-1.5v2l-1.5-1.5-.5,1.5h-1.5l-4-2.5v-1l-5.5-2v-1.5l2.5-1.65h1l.5-1.5.5.5v-1h1l-2-3,1-1-1.5-1.5.5-2.5,1,.5v-1.5l1.5-1-1.5-1,1-1-1.2-3.1,2.7-2.75Z"/>
      <path data-code="MOS-KOL" d="m88.25,138.6l1.55.7.45-4.05,1.5,1,1.5-1,1.5,2v-.5h1l.5,1.5h2.5l3.5,3,2-1v1l2,2,1.5-1.5.5,1.5-.5,1h2l-.5,1-2-.5-1.5,1.5.5,2.5,2.2,1.45,2.8-.45-1,2,1,4.5,1.5-.5.5,2,.5-.5,2.05,1.8-5.05.2-3-3.5-3.5,1.5v1l-2,1.5-3-5.5-.5.5-1-1,1,6-1.5,1-3.5-3-.5-2,1-1.5-1-.5-1,.5-1,3.5-2,1.5,1,.5h-.5v1.33l-1-.48-.5.5,1,1-1.5,1.5-1-1-.5,1.5h-.5l-.5,1.5-1.5-1-.5,1-2.5-2-5.5,1v-2l.5-1-1.5-1.5h1l.5-3.5,1.5-.5-3.87-3h.87l.5-.5h2v-.5l1-.5-1.5-3,.5-1.5,1.5-.5,1-1.5,1.5,1.5,2-.55,1.5-.45v-1l2.5-2-1-1,1.5-1,.5-.5-1,.5-.5-1,2-1Z"/>
      <path data-code="MOS-KRAG" d="m74.75,74.75l1.5-1h1l.5-.5v-1.5l2.5-1-.5-2.5,1.5-.5,2,3.35-.5.5-.5-.5.5,1,1.5.5v-.5l.65-1.1.85,1.25-1,1.5,2,.4.5,2.1-1,.5-1-.5,1-1h-1.5l-1,.5.5.5-1,1,1.5.5-1,1h-.5l.5.5-6,1.35-1-1.5h-2v-1h-2l-.5-1.85,1-1v-1l1.5.5Z"/>
      <path data-code="MOS-KRA" d="m64.25,83.6v-1l2,1-.9,2.6-2.1-2.6h1Z"/>
      <path data-code="MOS-LEN" d="m77.75,99.25l3-2.5,2.5,2.5,5-1v1l1.5.5-.5,1.5.5,4.35-1,.5-1,1.5,1,1.5-2-.4v-2.95l-1.5.5-.5-1-.5,1.5h-.5l-.5-1.5h-1.5l-1-1.5.5-1.15-3-1.5-.5-1.85"/>
      <path data-code="MOS-LYU" d="m93.25,95.25l2,.5.5,1.5h-1.5v1l1.5,1,.5-2h1v-1l.5,1.5,1,.5,1,1.85-.5,1.5-4,1.5-1.5-1.5.5,1.5-1.5.5-.5,2.5-1.5-1.35.5-3-2-.5,2-.5-.15-.95,1.15-.55v-2.5l1-1.5"/>
      <path data-code="MOS-LOT" d="m43.75,11.25l1.5,1.5h2v-1.5l1-.5v-1.5l1.5-1-.5-.5,1.5-1h1l-1-.5,1-.5v1l1.5-.5v-1.5l-2,.5-1-1.5,2-1.5h1l-.5-1.5.5-.5,1.5,1.5-.5.5,1,1,4-.5.5.5-.5,1.5,1.5,1.5-1,1,.5,1.5-.5,1.5,2.5.5,1,2h-1l.5,1.5,5.5,4v1l-1.5,1.5,1,2.5-1.5-.5-2,3.5-2.5-1.5-1,2-1.5-1-3,.5-.5-2-3.5-.5-1.5-1h-1.5l-1,1v1h-1v-2.5l-1.5.5v-2.5l-2-1,.5-1,1,.5-1-2,1-.5v-1l-2-.5.5-3.5"/>
      <path data-code="MOS-LUK" d="m92.25,154.25l1-.5,1,.5-1,1.5.5,2,3.5,3,1.5-1-1-6,1,1,.5-.5,3,5.5,2-1.5v-1l3.5-1.5,3,3.5,5.05-.2,1.95,1.7-.5,1.5h1v-1l1,1-1.5,4,1,1-1,1.5.5,4.5-3-1.5-.5,1-2.5.5-1.5,1v1.5l-4,.5-1,.5.5,1-6.5,3,1.5,1-2,.5v1l-2-2.5-2.5.5-.5-1,1,1,1.5-1.5-1-1,2-1,.5-1.5-1.5-2,.5-1.5-2-.5.5-1.5-4-3-.5-1.5,1-1-2-.5v-1l1.5-.5-2-1.75v-1.75h.5l-1-.5,2-1.5,1-3.5"/>
      <path data-code="MOS-MOL" d="m47.75,93.75l-.5,1-1.5-1,.5-1,1.5,1Z"/>
      <path data-code="MOS-MOZ" d="m.75,59.25l2-.5,2.5-3.5h2l-.5-1,1-.5v-2l1.5.5,1-2h1.5l-.5-2.5,1-1.5,2.5,2v-1h1.5l1-2-.5-1,.5-.5-.5-2,2-1.5v-1l.5-1.5,1.5.5v-1.5l1.5-1.5,2,1.35-1.5,1,.5,1.5,2,1,1-1,1,1,3.5-1,1.5,1.2-1.5,3.8-2.5.5,1.5.5.5,1.5,1.5.5-.5.5,1,2.5,3-.5.5,1.5-1.5.5,1,2.5,1.5-1,1.5.5v.5l-.5.5.5,1.5-.5,1.5h1l-.5,1v1.5l-1,.5.5,1-.5,1.5h-1l1.5.5.5,3,1-.5v4l-1.5,2-2-1v1h-3l-.5.5-.5,1-.5-.5-1-.35-3,1-1-.5-1,.5-.5,1h1.5l.5,2-1-1-1,1h-2l-2-2.5-1.5-.5-.5,1.5-2,.5v3.5l-.5-1.5h-2l-.5-1.5,1-.5-1-.5v-3h-1.5v-1h-1.5l-1-2.5-1.5-.5-1,.5v1.5h-1l-1.5-1.5-.5,1-3-1.5-1-2,.5-1.5-.5-2.5,1-1-.5-2"/>
      <path data-code="MOS-MYT" d="m94.75,70.25l1.5-.5-.5-1,2.5-.5-1-1,.5-1,2-.5v-1l1-1v-1h.5l.5-1,3,1.5.5,3,.7,1.65-1.7,1.7h-.5l1,7-2,.5-1,1.5.5,2.2-2.5,1.45,2,2-1.5.5-1-1h-1l-.5,1-1-4-3.5-4,1.5-2h1l-1-.5-1,.5,1.5-3-.5-1-2.5-1.5,1.4.15,1.1.85Z"/>
      <path data-code="MOS-NAR" d="m45.75,93.75l1.5,1,.5-1-1.5-1-.5,1Zm-27-18.5l.5-1.5,1.5.5,2,2.5h2l1-1,1,1-.5-2h-1.5l.5-1,1-.5,1,.5,3-1,1,.35,2,3.5-.5,1.5h3l-.5,1v1h1.5l2,1.5,1-2,.45.45,2.05-.45v-1.5l1.5-1.5,2-.5.5,2.5-.5,1,.5.5,1-1.5h.5l1,1-.5,1h1.5l.5,1.5,3.5,1,1.5-.5,1-1,2,1,1-.5,3.5,2-.5.5h1.8l1.2,1.5.5-1-.5,3-1.5,2,.5.5-1.5,1v1.5l-2-1,1,3h-.5l-1.5-1.5v-2l-.5-.5-1.5,1-1-2,2-2-1.5-1,1-1-4-2-3,3.5v3.5h-.5l-.5,1,1,9-3-.5-1.5,1.5-3-1.5v1h-2l-.5-.5,1-.5v-1.5l.5-.5v-2.5l-4.5-3,.5-1,1.5-1.5h.5v-1.5l1-.5-.5-.5h-3l-1.5,1-.5-1-2-.5v-1h-1.5l-.5.5h-1v1.5l-1.5-1-1.5,2-2.5.5.5,1-2.5-.5.5-1.5-1.5-1-2.5-.5v-2.5h1l-1.5-2.5-2-.5v-2h-1v-4.35l2-.5Z"/>
      <path data-code="MOS-BOG" d="m102.25,95.1h1.5l.5-2,2.5.5,2.5,2.5,1.5-1.5.5-1.5v.5l1,.5,1.5-4v-1l1-.5v1l1-1.5.5.5v-1l1-.5,1,2.1,1,.55,2,.5.5-1,2,1.5,1.5-1.5-1.5-1.5,2.5.35-.5-1h1.5l-1,1,2,1.5.5-1-1-.5h1l1,2.5-1,2v1l-2,.5,1,2-.5.5h-.5l.5,1.5-1,1,1,.5h-1l-1.5.5v1.5h-1.5v2h-1l-.5,1-3.5-.5-2,2,1-2.5-.5-2.5-1.5-.5-2.5,1-1,1.5,1.95,2.15,1.05.35v3l-1.5-.5v1h-.5l-2,1-1-3-3.5-.5-1.5-2-2-.5.5-.5-1.5-3,.5-2.5,1.5,1-1.5-4"/>
      <path data-code="MOS-ODI" d="m63.25,62.1l-4,1.5-1-1-1-.4v1.9l-1,.5-.5,1-1.5.5.5,1v2l-1.5.5v1l-1,1v1.5h-1.5v.5l-.5-1-2.5.5-2.5-1h-2v1l-1,.5,1,3.5,2.5-1,.5,2.5-.5,1,.5.5,1-1.5h.5l1,1-.5,1h1.5l.5,1.5,3.5,1,1.5-.5,1-1,2,1,1-.5,3.5,2-.5.5h1.8l-.8-1h1v-1l2,1-.5,1.5h1.5l2,1,1-.5,1,1,2-1,1.5,1,1-.5,1.5.5,1,1.5,1-1,.5-2.5,3-4.5-2,.5-1-1-2,1-1-1.5h-2v-1h-2v.5l-1,.5-1-1.5-1,.5-1-.5-1-.5v-.5l1,1-1-2.5.5.5,1-.5-2-.5,1.5-1v.5l.5-.5v1l1,.5-.5,2,3,1-1-.5-.5-.5h1.25l-.25-.85,1-1-3-3.5-.5-2,.5-1h-1.5l.5-1-.5-1-5.5-4.65Zm5,11l-1.05.35.45.25.6-.6Zm4.5,8l1,1.5h-2v-1l1-.5Zm2,4.5v.5h-.5l.5-.5Z"/>
      <path data-code="MOS-ORE" d="m111.25,117.1l1,.5,1-1,4.5,4,1.5-1v-1l1,1,1.5-1-1-2,2-1.5v-1.5l1.5-.5,1-1.5.5-4h1.5l.5-1,2.5,1v-1.5l1.5-.5-.5-1.5,3.5-.5,1,2h2.5l1,.5-2,.5.5,1.5,1.5-1v.5l-2,1v2.5l-1.5,1,1.5.5-.5,1,2,.5v1.5l3,2h2.5l-2.5,1-1,4,2.5.5,1.5,2.5-.5,1.5-.5,3.5-6,2.5-1,1.5v.5l-1-.5-.5,1-2.5-1.5v1.5h-1l.5,1h-1l-5-3.5-1.5,1.5-1,.5-2.5-3.5-2.5,1.5.5.5-1,1.5-1.5-1.5-.5,1-1,.15-.5,1-2.2-.6-1.3-3.05-2,.5,2.5-3-2-2.5,1.5-1,1-1.5-3-1,.5-1-.5-1.5h1.5v-1.5l.5,1,.5-.5-.5-3"/>
      <path data-code="MOS-PAV" d="m110.75,110.1l2-1h.5v-1l1.5.5v-3l1.5.5,2-2,3.5.5.5-1h1v-2h1.5v-1.5l1.5-.5h1l-1-.5,1-1-.5-1.5h.5l.5-.5,3,2,1,7.5-1.5.5v1.5l-2.5-1-.5,1h-1.5l-.5,4-1,1.5-1.5.5v1.5l-2,1.5,1,2-1.5,1-1-1v1l-1.5,1-6.5-5,1.5-2-2-3.5"/>
      <path data-code="MOS-POD" d="m68.49,99.66l1.01-1.13,2.49.63.5,2.5-1,.5.5.5.51.87.72-1.13,2.28-1.37.99.63h0l.5.5,1-1,3,1.5-.5,1.15-2,1.35h-1.5v.5l-2,1v.5h-1.5v1l-.5.5,1.5,2-1.5,4-2.5-2-1,1.5-1-1-1.5,1-1-.5.5-1.5v-1l-3.5.5-1.5-1,2-1.5v-2l1.27.81.23-1.31,1.5-.32v-1.18l1.5-.5v1l2-2-1.5-4"/>
      <path data-code="MOS-PUSK" d="m103.75,69.6h.5l1.7-1.7.3.7.5-2,1.5-.5v-1.5l2.5.5-.5-1,2.5-.5.5,1-.5.5,3,1v1l1.5,3,1,.5-.5,2,4.5,3,10.5-1.35v1l-1,1.5v1.35l-12.5,1.5-1.5,1-.65-.4-.85,2.4h-1l-1.5-1.5.5-1.5-2,.5-1-1v1h-1.5l-1,1.5-1.3-.5.8,1-.5.5-2-.35-.35.2-2.15-2.2-1,.55-.5-2.2,1-1.5,2-.5-1-7Z"/>
      <path data-code="MOS-RAM" d="m94.25,105.6l-1,1,1,.5v2.5l1.5.5,1,2.5-.5-2,1.5-1-.5-4h-3m-1.5,12.5l-.5,2,.5,1.5,1.5.5v-1l1,.5-.5-3-1.5.5v-1h-.5m-7.5-8.5h.5l.5-1,2.5.5-1-1.5,1-1.5,1-.5,1,1,1-1,.5.5.5-2.5,1.5-.5-.5-1.5,1.5,1.5,4-1.5.5-1.5h1.5l2,2v1.5l-.5.5,2,.5,1.5,2,3.5.5,1,3,2,3.5-1.5,2,1.7,1.3-.7.7-1-.5.5,3-.5.5-.5-1v.5h-.5l-3-3-2.5.5-2,2.5-2-1.5-2.5,2,1,1.5-.5,1.5v1.5h-.5l2.5,2h-.5v1l-1-.5-2,1,1,3-3,1.5v1l-1,.5-2.5-.5-.5-1,1-1.5-4-1v-1l1-1-6-3,1.5-1.5-.5-.5.5-.5v-.5l-2.5-.5.5-.5-.5-2,1.5-.35.3,1.15,1.2-.8-.5-3.35,1-2-1.5-1,.5-1,1,.35.5-1.5,1-1-1-.5-.5,1-.5-1"/>
      <path data-code="MOS-RUZ" d="m35.75,47.1h1.5l.5,2.5,2-2,2.5,1,2-1,1.5,1.5h1.5l1-1-.5,2.5,1.5-1.5h3l-1-1.5h1.5v-1.5l2.5.5,1.5-3,2.5,2.5.3-1.35.7.35-1.5,2.5,1,.5.5-1,2.5,2-.5.5h-.5v.5l-1.5,3,.5.5v4h-2.5v1.5l-2-1-1,1.5,1,1-.5,1,1.5.6v1.9l-1,.5-.5,1-1.5.5.5,1v2l-1.5.5v1l-1,1v1.5h-1.5v.5l-.5-1-2.5.5-2.5-1h-2v1l-1,.5,1,3.5-1,1v1.5l-2,.5-.5-.5-1,2-2-1.5h-1.5v-1l.5-1h-3l.5-1.5-2-1.5v-2l.5.5.5-1,.5-.5h3v-1l2,1,1.5-2v-4l-1,.5-.5-3-1.5-.5h1l.5-1.5-.5-1,1-.5-1-1.5h1l.5-1h-1l.5-1.5-.5-1.5.5-.5v-.5l-1.5-.5-1.5,1-1-2.5,1.5-.5-.5-1.5h1l.5-1-1-1.5"/>
      <path data-code="MOS-SERP" d="m61.25,173.6h2.5l.5,1v-1l.5.5.5-1.5,3.5.5-.5-2,.5-1,3.5.5v1l4.5,3,.5,2-1,2,2,1-1,1v.5l-2,1,1.5,1.5h-2.5l-.5,1-2,.5v2h1l2.5,3.5-1,2-3-.5-.5,1.5-.5-2-1,.5-1.5-1-.5.5-2.5-.5-2.5,3.5v.5l-1,.5h.5-2.5v-2l-3-3.5,1.5-1.5.5-1.5,2.5-2.5-1.5-1.5v-1.5h1v-1.5l-1-2.5,2-2v-2"/>
      <path data-code="MOS-SRP" d="m127.75,40.1l2-1.5,2.5,2h5.5l.5,2.5h1.5l-.5-1,2.6-2.65,3.9,1.15,2,2.5,1.5-2,.5,3.5-1,2.5-1.5,1-2,3,.5,1.5-1.5,1.5v1.5l-5,1.5v1.5l1.5.5-.5.5h-1.5l1,1.5-1,1v1l1-.5.5,1-.5,2-.5-.5-1.5,1.5,1,2-2.5,2-1,1,.5,1-1,1.5-12.5,1.5-4.5-3,.5-2-1-.5-1.5-3v-1l-3-1,.5-.5-.5-1,1,.15,1-2-.5-.5h1.5l.5-3h1.5l1-1.5v-.5h.5l1-1,.5.5.5-1.5,3.5-1-.5-.5,1-1-1-2,1.5-2.5.55-3.65h.95l.5-3.5"/>
      <path data-code="MOS-SERP-2" data-name="MOS-SERP" d="m48.75,138.1l1,1-.5.5v1.5l2,.5,1-2.5-3.5-1m-1.5-20.35v1.5l2-.5,1,2.35,1,.15.5-1,1.5,2,1.5-.5,1.5,2v1l-1.5,2,.5,1,1.5-.5-1,1.5h1.5v-1l1.5,1,1.45,2.8,1.05,1.05-1,1,1.5,1.5-1.5.5,1,1.5-1,.5-1,2.5,2,3v.5l-1.5,1,1,.5-6-2.5v1.5l-.5.5-1,2h-.5l-1,1.5h-4l-1-4-1.5-.5-.5.5v-.5l1-1,.5-1.5-1-2,1-.5-.5-1.5.5-1.5-2.5-1.5v-1l-1,1-1-2.5-1,1.5-.5-1,.5-.5-1-1,1.5-1.5h1v-1.5l-2-1.5,1.5-1v-2.5l1-.5v-2h1l-.5-3,1.75-1.7,2.25,2.35Z"/>
      <path data-code="MOS-SHAK" d="m24.25,22.1l2.5-2h3l.5-1,1,1,4-1.5-.5-2.5.5-.5h1v-.5l1-.5,2.5-.5v-.5l1-.5-1-1.5.5-1,3.5,1-.5,3.15,2,.5v1l-1,.5,1,2-1-.5-.5,1,2,1v2.5l1.5-.5v2.5h-.45l.45,1.35-2,.5-2.5,2,1.5,1.5h-1l-.5,2h-.5l.5,1.5-1,.5v1l-2,.5-.5,1.5-1.5-.5-1.5,1.5-1-.5-1,1,.5,1.5-2.5.2-1.5-1.2-3.5,1-1-1-1,1-2-1-.5-1.5,1.5-1-2-.5-1-2.5,1-1v-2.5l1.5-3-.5-.5h1-1.5l.5-1,1-.5v-3"/>
      <path data-code="MOS-SHAT" d="m132.75,134.1l2.5,1.5.5-1,1,.5v-.5l1-1.5,6-2.5.5-3.5,1,1,2-2.5,2,1.5,1.5-.5.5,2,1.5,1,.5-2,1.5.5,1-1,4,3.5-.5,2-2,2-.5,1.5,1.5,7.5-.5,1-1,.5.5,3-1.5,1-1-.5-2,3,3.5,2.5-.5,1.5.5,1-1.5,2-1.5-1-1,1-1,1.5v2l-1,3-1,.5v1.5h-1l-2.5,2-4.5-1-3,1.5v-1l-1.5-1.5-5.5-1-5,2,2,1.5,1.5-.5,1,3-6,4.5.5-1.5-.5-.5-1,1.5-4.15-3.95,3.15-2.55,1.5,1,1.5-3,2.5-1.5v-3l1-2.5-3-2-1.5-4,1.5-1-.5-1,2-2,4-.5v-1.5l1.5.5.5-1.5,1.5,1,.5-1-.5-1,2-2.5-6.5-4.5.5-1.5,1-.5-1-1h1l-.5-1h1v-1.5"/>
      <path data-code="MOS-SCH" d="m107.75,90.6l.5,1,1-.5-1-1-.5.5m1-4.5h1l.5-1.5.5.5-1.5-2-.5,3Zm-4.5-3h2l-.5-.85,2,.35.5-.5-.8-1,1.3.5,1-1.5h1.5l-.5-.5.5-.5,1,1,2-.5-.5,1.5h1.5v1.5h1l.85-2.4.65.4,1.5-1,13-1.5-.5,1.5h2l.5,1-2,1,.5.5-1,1-.5,1.5h-.5l-.5,1.5-1,2h-1.5l1,.5-.5,1-2-1.5,1-1h-1.5l1-1-.5-1.5-1,2.5-1.5-1.35v1l-2,.5-2.5-2.65-.5,1,1,1-1.5,2.65-1-2.15-1,.5v1l-.5-.5-1,1.5v-1l-1,.5v1l-1.5,4-1-.5v-2l-1,1.5-.5-1-.5.5h-.5l2,2-1.5,1.5-2.5-2.5-2.5-.5v-2.5l-1-.5v-1.35l-1-2.5,1.5-1.15-.5-.5,1-.5v-1"/>
      <path data-code="MOS-SOL" d="m77.25,47.6l-.5.5,2-1v-2.5h1.5l-.5-.85h1l.5-1.15,4.5,1.65,3-3.5,1.5,1v-1h2l.5,2h1l-.5-2.5,2,.5,1-1-.5,5.85,1,1.5-.5,1-2,1.5,2.5,1.5v3.5l-.5,1h-2.5l.5.5-1,1-.5,1.5,1,2h-1.5l-1.5,3,4,2.15-.35,1.25-1.15.25v1l-.5.5.9.65-1.4-.15-5-.65-.5-1,1-1.5-.5-2.5-2.5-1.5v1l-1.5,2.5,1.5,2,1-1.5.75.5v.5h-1.25l.5,1-1,.5,1.5-.5v.5h-.5l-.5,1h.5l1,.15.35.35-.85,1.55-.5-2-1.5,2.5v.5l-1.5-.5-.5-1,.5.5.5-.5-2-3.35-.9.3-.1-1.45h.5l-.5-.5.5-1-1-1,2.5-2.5-2.5-.5,1-2.5-3-3.5v-5l-1.5-3,1,.45Z"/>
      <path data-code="MOS-STU" d="m61.25,128.1l1-.5,2,.5.5-2,2.5-2.5,1,1,1,3,.5-.5.5-1.5,1.5.5.5,1.5h2l.5-1.5-.5-1.5h1v-1l1-1,.5,1.5h-.5v1.5l3-.5,1,1.5,3-1,6,3-1,1v1l4,1-1,1.5.5,1,1.05.2.45.95-1.5,1-1.5-1-.5,4.35-1.5-1-2,1,.5,1,1-.5-.5.5-1.5,1,1,1-2.5,2v1l-3.5,1-1.5-1.5-1,1.5-1.5.5-.5,1.5,1.5,3-1,.5v.5h-2l-.5.5h-1.5l-3.5-3-4,.5-5.5-6,1.5-1-2-3.5,1-2.5,1-.5-1-1.5,1.5-.5-1.5-1.5,1-1-1-1,1.5-2h.5l-1-1.5"/>
      <path data-code="MOS-TAL" d="m113.75,24.1l2.5.5,4.5-2.5,1,2,1-1,3.5,1v2l5-2,.5-1.5,1,.5-.5-2.5,1-1,2,1,.5-1,2.5.5.5,1,1.5-.5,1.5,1.5-1,1,1,1-.5,1,1.5,2-.5,2,2.5.5-.5,1.5h-.5l1,.5-4,6,2,1-1,2h-1l-1.5,1.5.5,1h-1.5l-.5-2.5h-5.5l-2.5-2-2,1.5-.5,3.5h-3.5l-4,1.5-.5-4-5.5-2,1-4v-8l-1-3"/>
      <path data-code="MOS-VLA" d="m71.75,81.6l1-.5,1,1.5h-2v-1"/>
      <path data-code="MOS-VOL" d="m28.25,44.6l2.5-.5,1.5-3.8,2.5-.2-.5-1.5,1-1,1,.5,1.5-1.5,1.5.5.5-1.5,2-.5v-1l1-.5-.5-1.5h.5l.5-2h1l-1.5-1.5,2.5-2,2-.5-.45-1.35h1.45v-1l1-1h1.5l1.5,1,3.5.5.5,2,3-.5,1.5,1,1-2,2.5,1.5,2-3.5,1.5.5.5,1.35-1,1,1.5,1-1.5,1v1.5l-1-.5-.5,2.5,1.5,1.5-1,1,2,3h-1v1l-.5-.5-.5,1.5h-1l-2.5,1.65-2-.5-1.5,6.35-2.5-2.5-1.5,3-2.5-.5v1.5h-1.5l1,1.5h-3l-1.5,1.5.5-2.5-1,1h-1.5l-1.5-1.5-2,1-2.5-1-2,2-.5-2.5h-1.5l1,1.5-.5,1-4,.5-1-2.5.5-.5-1.5-.5-.5-1.5-1.5-.5"/>
      <path data-code="MOS-VOS" d="m61.25,51.1l2-1.5.5,2-1.5,1.5-1-2"/>
      <path data-code="MOS-VOSK" d="m98.25,120.6l2.5-2,2,1.5,2-2.5,2.5-.5,3.5,3v1h-1.5l.5,1.5-.5,1,3,1-1,1.5-1.5,1,2,2.5-2.5,3,2-.5,1.3,3.05-.8,1.6-1,1.5.5,1.5h-3.5l1.5,1.5-1.5.5-1.5,1.5-2-2v-1l-2,1-3.5-3h-2.5l-.5-1.5h-1v.5l-1.5-2-.45-.95,1.45.3,1-.5v-1l3-1.5-1-3,2-1,1,.5v-1h.5l-2.5-2h.5v-1.5l.5-1.5-1-1.5"/>
      <path data-code="MOS-ZAR" d="m75.25,164.6l5.5-1,2.5,2,.5-1,1.5,1,.5-1.5h-.5,1l.5-1.5,1,1,1.5-1.5-1-1,.5-.5,3,2.65-1.5.5v1l2,.5-1,1,.5,1.5,4,3-.5,1.5,2,.5-.5,1.5,1.5,2-.5,1.5-2,1,1,.85-.5,1-1,.65v.85l-1,1,.5,1-.5,1-2,1-1.5-1.5.5-1.5-2.5,1v-1.5h-1l-1.5-1.5h-1.5l-2,1.5.5-2.5-3-.5v-1.5l-2,1.5-2-1,1-2-.5-2-4.5-3v-1l2.5-2.5-.5-1.5,1-2"/>
      <path data-code="MOS-ZHU" d="m94.25,105.6h3l.5,4-1.5,1,.5,2-1-2.5-1.5-.5v-2.5l-1-.5,1-1"/>
      <path data-code="MOS-ZVE" d="m108.25,90.1l1,1-1,.5-.5-1,.5-.5Z"/>
</svg>