<svg xmlns="http://www.w3.org/2000/svg" viewBox="0 0 602.93 330">
      <path data-code="NEN-NAR" d="m255.75,192.25l4-1,.5,1.5h-1l-1,1-2.5-1.5"/>
      <path data-code="NEN-ZAP" d="m213.55,26.1l-10.5,3.5-6,4-7,7.5-3,4.5-4,7-3,6-1,3.5,2.5,6,14,11.5-1-1-6-5.5,12,2,12-.5.5,1.5,8-1.5-4-.5,3.5-2.5,4.5-2-1-1,.5-1,2.5-.5.5-1,2.5-1h1.5l1.5-2,1.5,1-1.5,1.5,1.5-1,4-1,.5,1v1.5l.5-4.5-.5-6-12-25-6.5-4-7-.5Zm25.5,40l-.5,1-.5,1,.5-.5.5-1v-.5Zm-1-1v.5-.5Zm-9.5,2l-.5.5h.5l.5-.5h-.5Zm6,.5v.9l.5-.4-.5-.5Zm0,.9l-1.5,1.1,1.5-1v-.1Zm2.5.6l-7,4h.5l6.5-4Zm-5,1l-1,.5v.5l1.5-.5-.5-.5Zm-2.5,4l-3,.5-2,.5h2.5l2.5-1Zm-17.5,2l-5,1h2l3-1Zm-14,4.5v.5h.5l-.5-.5Zm2.5,2l1.5,1,3,1-4.5-2Zm5.5,1l.5,1h2l-2.5-1Zm297.7,46.15l-.5,2,1,1.5v2.5l-2,.5-1.5,1.5v2.5l-.5,1-1.5-1.5-1.5.5-1.5-.5-3.5,1-.5-2-3-3v2.5l-2-1.5v2l-.5.5-1-3-1,1-5-5h-1.5l.5-1-1.5-.5h3l-1-2,1.5-1v-1h.5l-.5.5.5.5,1.5.5.5-1v-2.5l-1-.5-1-3.5-1-.5-.5,1.5.5,1h-1v-1.5l-1.5-.5,1.5-1v-.5l-4-2-1-2.5h-2l.5,2v2l-3-1.5-.5-3,.5-2-3.5-4.5-1.5-8.5.5-1.5,1-1h-1l-.5-1.5h2.5l-3-4.5v-3h1l-1-1.5h.5l.5-1.5,2.5,1.5,4,6h2l.5-2-1.5-1-.5-3-2-1.5h.5l-2-3.5,1.5-.5,2.5,3,.5-1-1-1,2.5,1,2-1,1-1.5-.5-1.5,1.5-1,3.5,1.5,4-1.5v1.5l-.5,1,4.5,9-.5.5,2,6v4l3.5,5v1.5l-.5,1,1,.5.5,2.5,3.5,1-.5,2.5,3.5,8.5v2h1.5l1,2v1.5l-1.5,1,.5,1m-1.5,13.5l1,.5h-.5l-.5-.5m-27-22h.5l-.5.5v-.5m3.5,1.5l-.5.5v.5l-2.5-1h3m42.5,15h.5l.5,2-1.5-.5-.5-2,1,.5m-74.5,0h-2l-.5-.5h1v-1.5l1.5,1v1m-.5,6h1v.5h-.5l-.5-.5m153.5,64l.5,1-.5-.5v-.5m-143.5-45l1,1-1.5,2.5v2.5l-1-1-.5-2,1.5-4v-2.5l-3.5-5.5-2.5-1.5-2-3.5v-2.5l1.5-1-.5-1,.5,1-.5,1,.5,2,6.5,7,2,3.5v2l-.5,1h-1v1m-200.5,29.5l2.5,1.5,1-1h1l-.5-1.5-4,1m335,26l-2,3-5,1.5-2,3,1,.5,1,3.5-2.5,1,.5,1-1.5,1.5,4.5,3,.5-.5v-1l1.5-1,1.5,2-.5.5h2l-.5.5.5,1.5,2,1v1l1.5,2.5h2.5v-1l.5,2h3l-.5,2h1.5l-3,4,1,.5,1.5-.5.5,2-.5,1-2,.5.5.5-.5,1v1l2.5,3.5-.5,1.5,2,1v2l-3,2v2h-2l-1,1-1,1.5-1.5,1-1.5-1-3,1-4.5-3-2,.5v1h-1l-1-2h-2.5v-1l-1.5-1-2,1.5-1-1.5-2,2h-2l-.5,1-1-.5.5,1h-1v1.5l-1,1.5,1,1.5-1,.5.5,1-1,2h-.5l.5,1-3.5-1.5-3.5,2,1.5.5-2,1.5-5-.5-1,1-2-.5.5.5h-.5v.5l-2,.5-5,.5v2l.5.5-.5.5v1l.5,1-.5,1v.5l-1,.5v1l1.5,2h-1.5l-.5,1.5-.5-.5-1,1,.5,1-2,.5-2-.5-1.5,1.5v-1h-1v.5l-1.5,1.5,1.5,2.5-.5.5-.5,1-1-1.5-4-1-2.5-3.5h-2.5l-1.5,1v1l-.5.5-4.5-.5-1.5,2.5-1.5,1.5h-3.5l-1.5,1v-1,1l-1,1.5-.5,1.5-1,1h-2v.5l.5,2v3l-.5.5-.5,1.5-2.5,1.5.5,1-34.5,6.5-1,1-1-1v1.5h-1l1,.5-1.5,1-.5,1.5-1.5,1-1-1v1l-1-.5-.5,1-1-1.5-1.5.5v-.5l.5-.5-1-.5-1,.5v1h-2.5l.5-1.5-.5-.5-32.5-13-2.5,1.5h-3.5l-.5-1,.5-.5h1.5l1-1.5-157.5-69-40.5-27.5-3.5,1.5-1-.5v2l-3.5-.5v1h-.5l-2.5-1.5,1,1h-1.5l.5,1.5-.5-1-1,1-.5,1-.5-1.5-1,.5,1,1h-1l-1,1.5.5-1-2-.5-1-3-2.5-.5-1.5,1v3h-.5l-.5,1-2,1v3l-.5,1.5-86,7-22.5-13.5-5.5,6-2.5-2.5-3,2-1-.5-4.5,3.5,1,4.5-4,1-6-5.5-9-3.5-5.5-12-7-12.5-10.5-10-4-1-7-13.5-5.5-7-3-2-4-8,.5-5-4-8.5,3-1.5,3-.5,3-4.5,3-2.5,1.5-.5,2,1.5-1-5,.5-5,1-1,4.5-.5.5-1,1-2.5,2-1.5v-4l.5-3-1-3.5.5-.5.5-.5-.5-6.5-2-4-3.5-1.5-1.5-4.5,1.5-3,5-5.5,8-7.5,6.5-4.5,3-3,2,.5-1.5,1,.5.5,2-1-1.5-2.5,2.5-1.5,2-2.5,1-2v-2l2.5-3,2.5,3,2-1-.5-3-2-.5,2.5-2.5,1-3.5v1l1,.5.5-1.5-.5-1,3-2.5,4-5.5,3.5-6-1-8-6-18-1-7.5V.25l5,2.5,4.5,7,1,4,3,5.5,17,8.5,11.5,8,5,5,8.5,12-4-5.5.5,9v2.5l-1,1,1.5,2.5,1,9,2,4.5,1,3-.5,1-1.5,1.5-1.5,3-.5,5-1,3,1,2.5-1.5,1v1.5l-2,2.5-1.5-.5-6.5-5.5-7.5-1.5-2-1.5-4.5.5-9-4.5h-4l-2,.5-.5,2.5-4,4.5-3-1.5-8.5,2.5-3.5,3-3,5,2.5,8,7,12v2.5l-2.5,4,.5,2.5-1,3-.5,6.5.5,3.5,2,3v1.5l7,3.5,7,1.5.5,2.5h-1.5v.5l2.5,1.5,11,4,10.5.5,4,5.5v-2.5l7-3.5,2.5-3.5,3-5-.5-1.5,1-1.5-1-1,5-1,.5-1v-2l.5-1.5,1.5-1v-1l5-2,3-2.5,1-2-.5-4,1-1,.5-2.5,4.5-.5,1.5-1,.5,2,1.5,1.5,7.5-.5,2,3.5,6.5-.5,1,.5h-1.5l.5,1,4,1,2,4.5,1.5.5-2-3.5-.5-3.5-2.5-1-.5,1,.5-1,3-2-.5-1,2.5-3.5-2-8,2,2.5.5,4,2,2.5,3,2,4.5.5,23-2,27-6,12.5-5.5,6.5-.5,7.5,4.5-2,1-12-3.5-1,1-3-.5-2.5,1,.5,1.5,1-.5-1,1,1,.5,5,2,2.5-.5,4,1,4-1.5,2.5,2h2l.5-1-2-1,2-2,9,2.5h10.5l.5,2h-1l1-.5-1-.5-2.5,1-1,1.5-2.5-1v1l1,.5,1-.5,2,4h2l1,1h-2.5l-1,2.5h-3l-2,1-.5,1,1,3,4,2,4.5-1,2.5-1.5,2.5.5,2.5-2,1-1-1-3-1.5-2.5.5-3-1.5-1,1.5-2-1-.5-3,1.5-1.5-3,34.5-5,15,1,12,3.5,4.5,2.5,1,1.5h-1.5l-2-2h-3.5l-12-2.5-1.5-2h-4l-2,1.5,1,2.5h1l-1-.5.5-1,3,1.5,3.5,4.5v1l-1-.5-.5,1.5-2.5-1-.5,1.5-2.5,1.5v2.5l-5,2-1,1.5.5,5,1,2v3l-1,2.5-1,1.5-1,3h-3.5l.5,1-1.5,1-.5,2-1.5-6h-1l-1,1.5-1,2-.5-3-3.5-2.5-2,1-2-.5-4.5,3v1h1l-.5.5,1.5,2.5h5l3,3h2l4,5,1.5-.5,1.5,1.5,1-1.5,1.5.5,2.5-2.5,6.5-.5-1,1-1,2.5-1,1h-4.5l-.5,2.5-1.5,1,.5-1-2.5,3.5h-.5l-.5,1.5-6,4-6,1.5v1h4l5.5-3,6.5-5.5,2-4,3,.5,5-2,1.5,1v6l-1,1,1,2,4,3.5,2-1.5v-2.5l3-1v-1.5l-.5-3.5v-.5l3.5-1.5,3.5-4,11.5-3.5,4.5.5,4,2.5,11-2,1.5,1,2,4,3,2.5,8.5,1,3.5,6.5,4,4,6.5,2.5,5-1.5,1.5-1.5.5-1.5,1.5-1h2l1,1.5,7-1-2.5-2-3,1-1-1.5,2-1,6.5,3,3.5-1,2-3.5-2-.5,1-.5,26-1.5,10.5,4.5-1,.5-1-1h-2.5l-3-1-1,.5v.5h-2l5.5,7.5,2,5-1.5-.5,2,2-.5.5h-.5v1l1.5,1-.5.5-.5,2-1,1,.5,1-.5.5-6.5-2.5-.5.5-1,2-1,1h-1.5l-1,1.5-1-.5-1.5.5,2,.5-.5,1v1l1,2-3.5,4-1,3,12,11.5.5-1.5h1l4.5.5,1-2,4-2.5,1-4-1.5-5.5.5-4,1.5-1.5,4.5-2.5,1.5,4,12.5,2,9-5,2.5-3,2.5-.5,2,1.5-1.5,1.5v.5l5,2-3-2.5-.5-.5,2-.5,1,1-3-4,1.5-3,1.5-5.5,1-1.5v-4.5l-.5-2.5-1-1-1.5,1.5-1,3-1.5-2.5v-2l2-4.5.5-3-1.5-9v-2l-1-.5.5-1.5-1-2.5v-.5l.5-1-1-3,1-2-.5-2,1-1v-1.5l1-1.5,4-1.5,4,2.5,4.5,1.5,1-.5.5-1.5-.5-.5.5-1,2.5-.5,1-5.5,1-1v-1l2,1,1-1,4.5,3.5,1.5-.5.5-1v2l.5,1.5,3,1,1,1.5-.5,1,2.5,2,6,2.5,2,2.5,5,2.5,14.5,6.5,8.5,5.5,15,12,10,10,6.5,8.5,6.5,11.5-.5.5v1.5l-2-1-1.5,1.5-2.5-.5,2,2.5h-.5l-.5,1.5h-1l-1,2h.5l-1,1-.5,2m-121-139h.5v.5h-.5v-.5m6-5.5l1,1,.5.5-1.5.5.5-1-.5-1m-9,4h.5l.5.5h-.5l-.5-.5m1,1v.5h.5-.5v-.5m.5,2.5v-.5.5m-1-.5l.5.5h-.5v-.5m3.5,7l.5.5h-.5v-.5m-8.5-3.5h.5v.5h-.5v-.5m-1,1l.5.5,1.5-1-.5,1.5h-.5l-.5,1-.5-2m132.5,131.5l-1,1h-1.5l1.5-1.5,1,.5m4-7.5v1h-.5l.5-1m5,2.5l-1,1v.5l-1,.5-1,2h-4l2-1v-3l.5-.5,4.5.5m-145-36l-1-.5-.5-3,1-1v.5l1,3.5-.5.5m0,1.5v-.5,1h-.5l.5-.5m-115-44.5l2.5,1,.5,1-.5-.5-2.5-1.5m-19.5,1l-1-2,2.5,1,2,3.5-3.5-2.5m-52.5-7.5v.5h1-1v-.5m-2.5,1v-.5l1,.5-1.5,1,.5-1m-3-1v.5-.5M115.25,53.75l.5,1-.5-1m198,110.5v-.5l.5.5h-.5m-10.5-4.5l-.5,1.5-2,1.5-1.5-2.5,1-1.5v-.5l3-1,1,1-1,1.5m3.5,2.5v1l-.5-1h.5M118.75,64.75l.5-.5v-.5,1h-.5m178.5,99.5h.5l-.5,1-1-1h1M114.75,67.25l.5,2v.5h-.5v-2.5m0,6l.5.5-.5-1v.5m175.5,108.5l1-.5h.5l-1,.5h-.5"/>
</svg>