<svg data-code="RU-NIZ" xmlns="http://www.w3.org/2000/svg" viewBox="0 0 288.75 222.25">
    <g data-code="nizhegorodskaja_oblast_" data-title="nizhegorodskaja_oblast&amp;apos;">
      <path data-code="ardatovskij_rajon__nizhegorodskaja_oblast_" data-title="ardatovskij_rajon_(nizhegorodskaja_oblast&amp;apos;)" class="cls-1" d="M36.62,127.26l.5-.5,4,1.5,1.5-2,1,.5.5-2,1,1.5,4.5-.5,1.5,2v-.5l2-.5-3-3.5.5-2.5-1.57-1.03,3.07-4.6v-1h2.5l-.38.68,5.38.32.5.5h-.5l-.5,2.5h7l4,1.5-1,1.64v1.5l-1,1.5,1.5,1-.5,1h-1.5v.5l-1.5.5-3.5-2,1,3-1,.5h1l-.5,1h.5l.5-1,1,.5-1,2-1.5-.5-2,3.5,1.5,1.5-1,5,1,1.5h2l-.5,1h-3l.5,2h-1.5l-2.5-2.5-6,2.5v1l-2.5,1.5-1-3h-4l-.5,1-.5.5-2.5-.5v-2h-1.5l-1,1-1-.5-3-2.5v-1.5l-2-2.14,1-1.36-1-.5.5-1.5,1,.5.5-1.5,1,.5,2-1.5-2-1,2.5-4-.5-.5"/>
      <path data-code="arzamasskij_rajon" data-title="arzamasskij rajon" class="cls-1" d="M74.62,138.76l1,.5-.5,4,2.5,1,1-1h-1v-1l1.5,1,.5-1.5h-1.5l1.5-2h-2.5l-.5-1.5-2,.5M62.62,125.26l3.5,2,1.5-.5v-.5h1.5l.5-1-1.5-1,1-1.5v-1.5l1-1.64,4.5-2.36,2.5,1,2-2.5h1.5l4.5,4,.5,3,6.5,3.5-1.5,3h2v.5h-1v1l-1,.5,1.11,1.16-2.12-.79-1.5,2.5-.5,2.5h-.5l-1.5,2-2,.5.5,5,1,1-1.5,2.5,2,1,2.5,3.5-3.5,2-1.5-2.86.5-1.5-9,.5-.5,1.5h-3.5l-2,1.86-.5-1-1.5.5-.13.89-1.37-1.39.5-.86,1-.5v-.5l-2-1.5,1-1.5-.5-1,1.5-2-4,1.5-1-3h2l.5-1h-2l-1-1.5,1-5-1.5-1.5,2-3.5,1.5.5,1-2-1-.5-.5,1h-.5l.5-1h-1l1-.5-1-3"/>
      <path data-code="balakhninskij_rajon" data-title="balakhninskij rajon" class="cls-1" d="M92.12,61.26l1,.5,1.5-2,3,1.5,3.5-1,1.5.5,2-3.5h1.5l1,1.5-.5.5v1l2-1.5v2.5-1h1l.5-1,1,.5-.5,7.5,1.5,4.5-1,3,3,5-1-.5v1.5l-2.5-1-1.5,2.5-5.5-4-6.5-2,.5-3-3-1-4-2.5,2-1,1-2-2.5-2.5,1-3"/>
      <path data-code="bogorodskij_rajon__nizhegorodskaja_oblast_" data-title="bogorodskij_rajon_(nizhegorodskaja_oblast&amp;apos;)" class="cls-1" d="M84.62,83.12l4.5,2,2.28-.65,2.22,1.29,3.5-.5v3l3,1,3.5,3.5,6.5,1-3,3.5-1.5-.5-.5,1.5.5,1h-2l1.5,1.5v1.5l-1.5,2,1,.5h-1l.5,1-5.5,1.5,1,1.5-.5,2h-.5v2.5l-1.5,1,.5-1-1-1,.5-.5-2-.5-.5.5-.5,2-3.5-1.5-2,1.5-2-.5v.5l-4.5,3.33v-2.83l.5-1-1.5-1,1.5-1.5-1,.5-.5-2h-2l1-1.5h1.5l1-3.64,3-4-1-2,1.5-2.5-2-.5v-.5l.5-.5-1-.5.5-.5.5-4h-2v-2l1.5-1,1,1,2-1-1-1.86-1,.86-.5-2Z"/>
      <path data-code="bol_sheboldinskij_rajon" data-title="bol&amp;apos;sheboldinskij_rajon" class="cls-1" d="M92.62,188.76l1,.5,1.5-.5,1.5.5.5,2,2,.5,2-2v-4h-1.5l1.5-2,.5.5,4,.5,1.5-2.5,6.5,1-.51-1.01h4.01s.5,1.51.5,1.51l-1,.5-.5,1.5,2.5,3-.5.5-1.5,3-2.5,1-1,2.5h-1l.5,1.5-1,1.5h-1v1l-1,.5.5.5-2.2,2.24-5-1.5-1.43-1.43-2.38,3.68-.5-1.5,1.88-1.26-.88-.88-1.5,1-1.5-3-1,.5,1-1.5-2-.5-1-2,.5-1-3-2,.5-1.5,1-1.36Z"/>
      <path data-code="bol_shemurashkinskij_rajon" data-title="bol&amp;apos;shemurashkinskij_rajon" class="cls-1" d="M112.62,126.76h1.5v-.5l1-.5,2.5,1v-1.5l1.5-1.5h1l4.5,4h2l1,2,1-1,2,1-1,2.5-4,2,.5,1-2.5.5-.5,1,2,1h-1v1l-.5,1,.5.5-3,2v1l3,1.5-.5,1-3.5-.5.5,1.5-3,.5,1-1h-1.5l-.5-1h1.5l-1.5-2.5.5-1.5-2-.5-.5-.5.5-.5-1.12.48-3.88-4.98,1-1.5h-.5l.5-1.5,2.5-.5-2-.5.5-1.5,1-.5-1-1.5.5-1"/>
      <path data-code="buturlinskij_rajon" data-title="buturlinskij rajon" class="cls-1" d="M98.12,153.26l1.5-.5.5,1,1.5-.5v1l5-2v-1l2-1.5v-1l1.5-1,1,.5.5-1.5,1.5-.5-.5-.5.5-.5v-.5l-2.5.5,3-2,.5-4,1,.5-.5.5.5.5,2,.5-.5,1.5,1.5,2.5h-1.5l.5,1h1.5l-1,1,3-.5-.5-1.5,3.5.5,1.5.5,1,2.5,1-.5-.5-2,1.5-1v1l1,.5v1h-1v2h1.5l-1.5,1,1.5,3-2.5,1-4.5.5v1l-1.5.5,1.5,4.5-2,1,.5,2.5-2,1-3-2.5-.5,1-2,1-.5-1-3.5-.5v-2h-1l-.5-1.5-3,2.5-1-.5v.5l-1,1-1-1-1.5.5v-1l1-1.5-1.5-2-2-.5-.5-2h-1l.5-1,.5-.5.5-1.5"/>
      <path data-code="chkalovskij_rajon" data-title="chkalovskij rajon" class="cls-1" d="M93.12,43.76l2.5-1v-1l1.5-2,2.5-1.5.5,1.5h3.5l4,2,3-2v2l1.5,1.5-1,2.5.5.5-3,7.5.5,2-1.5,1.5h-3l-2,3.5-1.5-.5-3.5,1-3.33-1.07-4.17-3.93-2.5-.5-.5-1,2.5-1.5,2.5.5,1.5-3,1-1-.5-1-1.5-.5-.5-1.5,1-.5v-2.5"/>
      <path data-code="dal_nekonstantinovskij_rajon" data-title="dal&amp;apos;nekonstantinovskij_rajon" class="cls-1" d="M82.12,117.09l4.5-3.33v-.5l2,.5,2-1.5,3.5,1.5.5-2,.5-.5,2,.5-.5.5,1,1-.5,1,1.5-1v-2.5h.5l.5-2-1-1.5,5.5-1.5-.5-1h1l-1-.5,1.5-2v-1.5h2l-1,1.5,1,.5-.5.5-1.5,2h-.5v2h1l.5,2h1.5v1h-.5l.5.5-.5.5-.5,1,2.5.5.5,1-1,1.5,2-.5,1.5,2.5-1.5,1.5,1,2-1,1,1,1-1,1.5,2,2.5-.5,1-1.5.86.5,2h-1l-.5,1-2-1-2.5.14-2-1,.5,1.5-.48,2.09-11.41-.93-1.11-1.16,1-.5v-1h1v-.5h-2l1.5-3-6.5-3.5-.5-3-3-2.67Z"/>
      <path data-code="diveevskij_rajon" data-title="diveevskij rajon" class="cls-1" d="M34.62,146.26l2-2,1,.5,1-1h1.5v2l2.5.5.5-.5.5-1,2.5-.5,1.5.5,1,3,2.5-1.5v-1l6-2.5,2.5,2.5h1.5l-.5-2h1l1,3,4-1.5-1.5,2,.5,1-1,1.5,2,1.5v.5l-1,.5-.5.86-2.5,1-3-.5v1l-1-1.5-1,.5v2h-5l-1,1-.5,2,1,.5-.5,1-.49-.36h-1.01v2l-2.5.5-2-2,.5-1.5-2-.5.5-1.5-.5-1-2,3-1.5.5-1-1-.5,1-1.5-.5,2-1-.5-.5,1.5-1,.5-1-2.5-3,1-.5-2.5-1,3-1.5.5-1-3-1-1,1h-1l-1-1.5"/>
      <path data-code="gaginskij_rajon" data-title="gaginskij rajon" class="cls-1" d="M95.12,168.12l1-1.5,3,.5,1,2.64v-2l3.5-.64,1.5-4.36,3-2.5.5,1.5h1v2l3.5.5.5,1,2-1,.5-1,3,2.5-2,1-.5,4.86,3,1.64,1.5,3-.5.5v1l-3.5-.5-.5,1.5-1.5,1h-2l.5,1-1,.5,1,2-6.5-1-1.5,2.5-4-.5-3.5-3.5,1-2.5-5-3v-1l.5-.5-1-1.5,1-2-1-2.5,1.5.36Z"/>
      <path data-code="gorod_arzamas" data-title="gorod arzamas" class="cls-1" d="M74.62,138.76l2-.5.5,1.5h2.5l-1.5,2h1.5l-.5,1.5-1.5-1v1h1l-1,1-2.5-1,.5-4-1-.5"/>
      <path data-code="gorod_bor" data-title="gorod bor" class="cls-1" d="M120.12,64.76l2,.5,1.5-1-.5-.5,1.5-2,1.5,1,1.5-2.5.5-4.5,6.5.5v-1l3-1,1.5,1.36-1,1.5h-1.5v1l2,3.5-3,2v.5h-1.5v2l-1,1,1,1.5-.5,2,1,.5-1,1.5-.5.5v.5l1,.5-2.5,1.5-1.5-.5-1,1,1,1,3-1,.5,1-1,.5,1,2.5,2-.5,3,2.5-1.5,2.5,7,4,1-2.5,3,1.5-1,2,13,9.5,1.5,2.5-1.5,3.5-15-2.86-.5,1,.5,2-2.5,1-1-.5-1,1,1.5.5-3.5,4.5,2,1-1.5,4.5h-.5l.5.5-1,1.5-1-.5v1l-1.5,2-3.5-2.5-3.5-.5-7.5-8.5v-7l-3-3,1.5-3-.5-7.5-3-1.5-1-2.5.5-.5-1.5-.5v-5.5l1-.5v1l-1,.5,1.5,1v-1h3l1.5-2,2.5-1-2-2.5,1.5-1v-1l-2.5-1,1.5-.5-.5-1,1-.5.5-1.5-2.5-1-.5-1.5,1-1Z"/>
      <path data-code="gorod_dzerzhinsk" data-title="gorod dzerzhinsk" class="cls-1" d="M94.62,72.26l3,1-.5,3,6.5,2-1.5,2,3,1.5-1,1.5,4,2-1,2h-1l.5,1-3,1-1.5,2-2-2-3-1v-3l-3.5.5-2.22-1.29,1.22-.35.5-.5-.5-1-2-1.86,4-2.5-2.5-1.5,2.5-4.5"/>
      <path data-code="gorod_nizhnij_novgorod" data-title="gorod nizhnij novgorod" class="cls-1" d="M102.12,80.26l1.5-2,5.5,4,1.5-2.5,2.5,1v-1.5l1,.5v5l1.5.5-.5.5,1,2.5,3,1.5-.5,3-1.5.5-1.5,2-1.5-1-.5.5.5.5-1.5-1-2,1.5-1,2,3-1,2.5,4-.5,1-5-4,1-2,.5-.5-2-.5,1-1-6.5-1-1.5-1.5,1.5-2,3-1-.5-1h1l1-2-4-2,1-1.5-3-1.5"/>
      <path data-code="gorod_shakhun_ja" data-title="gorod_shakhun&amp;apos;ja" class="cls-1" d="M227.12,44.62l1-1h4l1.5-1.5.5-.86-2-2.14,4.5,1-1-2,.5-1v2h2.5l1.5-4-1-.5,1.5-4h1.5l-1-.5.5-1.5-.5.5-1.5-.5,1-.5,1-2,2.5,1,1.5-2.36,5,3,1,5h1.5l1.5-1,2,2.5,12,7-4.5,7.5-2.5-2-2,3-5.5-3.5-1,2,.5.5.5,3.5-1,3.5-3,4,2,4h-1l-4,7-3.5-2.64-5.5-2-3.5,1.5h-2l-6.5-4.86,1-3.64h2v-1l3.5-2.5-3-4.5-3-.5,1-1.5,1-.5-1.5-2v-2Z"/>
      <path data-code="gorod_vyksa" data-title="gorod vyksa" class="cls-1" d="M1.12,117.26l1,.5v-2l3-1,1.5,1,.5-.5v-1.5h2v-3h5l1-2,.5-2,1,2,3.5-3.5,2-.5.5,1.5,3.5-1,.5-1v1l.5-1.5.5-.64,2,2.5-.5.64-2.5,1.5,1,.5-.5,3.5,1,2.5,1.5,1.5v1h-1l-1,5.5h4.5l-1,4,.5,1-1,1,.5,2.5-.5,1.5,1,1,1-1.5h2l2,1-2,1.5-1-.5-.5,1.5-1-.5-.5,1.5,1,.5-1,1.36-12.5-2.5-2,.14-6-1.5-1.5.5-5.5-6.5.5-1.5,1-1v-1.5l2-2-5.5-.5v-1.5l-1.5-.5.5-2.5"/>
      <path data-code="gorodeckij_rajon" data-title="gorodeckij rajon" class="cls-1" d="M111.62,46.26h2.5l1-1.5,6,.5,3.5-2,2,.36,2-1.5,1,.5.5-1,2,.64-1,2.5v4l-.5,1v1h-1l1,3h1.5l-1,1.5.81.79-3.81-.29-.5,4.5-1.5,2.5-1.5-1-1.5,2,.5.5-1.5,1-2-.5-1,1,.5,1.5,2.5,1-.5,1.5-1,.5.5,1-1.5.5,2.5,1v1l-1.5,1,2,2.5-2.5,1-1.5,2h-3v1l-1.5-1,1-.5v-1l-1,1-2-2.5-1-2.5,1-3-1.5-4.5.5-7.5-1-.5-.5,1h-1v1-2.5l-2,1.5v-1l.5-.5-1-1.5h1.5l1.5-1.5-.5-2,3-7.5"/>
      <path data-code="knjagininskij_rajon" data-title="knjagininskij rajon" class="cls-1" d="M123.62,135.76l2.5-.5-.5-1,4-2,3.5,1.5-.5,1,.5,1.5,4-.5v1l1,.5,2.5-1,3,4.5-2,1,1,1.5-1.5,2.5-2-.5v2l-2,1v1l-.5.5,4-1-1,1.5,1,1.5-2-.14-1,3-4.5-2-1.5,1.5-2-.36-1.5-3,1.5-1h-1.5v-2h1v-1l-1-.5v-1l-1.5,1,.5,2-1,.5-1.5-.5.5-2-1.5-.5.5-1-3-1.5v-1l3-2-.5-.5.5-1v-1h1l-2-1,.5-1"/>
      <path data-code="koverninskij_rajon" data-title="koverninskij rajon" class="cls-1" d="M131.62,29.12l4-1.5.5-1,1-1.5,3.5,2.5,3-4,1.5.5.5,2.5h1v-2l2-1,2,2-.5-3-3-3.86,3-2,2,4.5,2,1,1-1,2,2,6.5.5h2.5l1.5-1.5,2,1.5,1,4.36,1.5.5-1.5,2,1.5,2-.5,2-3-3-3,4h-.5l-3,4.64-2-.5.5,2.5-2,2.5v1l-5-4.5-1,1,1.5,2.5h-1.5l-4,2.5v1h1l.5.5-2,2.5h-1.5l-2.5,1.5-.5,1-3-1-1,1.5-2-1v1l-3,1v1l-2.69-.21-.81-.79,1-1.5h-1.5l-1-3h1v-1l.5-1v-4l1-2.5-2-.64,4.5-2.5-2-1.5,1-2-2-.5v-1l.5-1.5-1,1-1.5-1,1-.5.5-1h1.5l-1-2Z"/>
      <path data-code="krasnobakovskij_rajon" data-title="krasnobakovskij rajon" class="cls-1" d="M169.12,50.12l7.5,1.5,1-1.5,3.5,1.5.5,1.5,5.5-.5,4,1.5v-1l-1-2,1,.5,2-1.5v-.5h1.5l3.55,4.11-1.05,1.89-.5,3.14,3,2.5h2.5l.5,4.5,2,2.86-1,1h3l.5,1-1,2.64h-2l-.5,1.5-1-.14-6.5-5-1,1.5-1-1-2,3.5-3.5-2.5-.5,1-1.5-1.5-2,1-1-1.5-1.5,1-1,1.5-1.5,1-1-1-6.5,1.5-.5-1-1.5,1-1-.5.5-2-3.5-1.5.5-1-.5-2h.5l.5-1.5,2.5-2.5,1.5.5.5-.5-.5-1,1-1.5.5-1.5-4.5-6.5,1-2.5Z"/>
      <path data-code="krasnooktjabr_skij_rajon" data-title="krasnooktjabr&amp;apos;skij_rajon" class="cls-1" d="M113.12,179.76l3.5-1,.5-1.5,3.5.5v-1l.5-.5-1.5-3,4-1.5,1.5.5.5-2,1-1,.5,1,1.5-1v2.5l3.5-2.5h3v1l-.5,1.5h1l-1,1.5h1v2l.5-1.5,1.5-.5,1,2,.99-.78,2.01,3.28-3,3.36-2.5.5-1,2.5-1.5,1-1-1h-2.5v1l-.5.5-1.5-1-4.5,3.5.5.64-1.5,2.5-1.5-1.5v2.5l-2.5-2-1,1.5-1-.5,1.5-2,.5-.5-2.5-3,.5-1.5,1-.5-.5-1.5h-4.01s-.49-1-.49-1l1-.5-.5-1"/>
      <path data-code="kstovskij_rajon" data-title="kstovskij rajon" class="cls-1" d="M103.62,99.26h2l-.5-1,.5-1.5,1.5.5,2-2.5,2,.5-.5.5-1,2,5,4,.5-1-2.5-4-3,1,1-2,2-1.5,1.5,1-.5-.5.5-.5,1.5,1,1.5-2,1.5-.5.5-3,.5,7.5-1.5,3,3,3v7l7.5,8.5,3.5.5-3.5.5.5,1-1.5.5.5.5-1.5-1,.5,2-1.5,1.5v3.5h-1l-4.5-4h-1l-1.5,1.5v1.5l-2.5-1-1,.5v.5h-1.5l-2-2.5,1-1.5-1-1,1-1-1-2,1.5-1.5-1.5-2.5-2,.5,1-1.5-.5-1-2.5-.5.5-1,.5-.5-.5-.5h.5v-1h-1.5l-.5-2h-1v-2h.5l1.5-2,.5-.5-1-.5,1-1.5h-2l-1.5-1.5"/>
      <path data-code="kulebakskij_rajon" data-title="kulebakskij rajon" class="cls-1" d="M26.62,107.76l2.5-1.5.5-.64,2.5-1,2,.5,4.5,3.5-.5,1,1.5,1.5-.5,2,3.5,5h4l4,2.64-.5,2.5,3,3.5-2,.5v.5l-1.5-2-4.5.5-1-1.5-.5,2-1-.5-1.5,2-4-1.5-.5.5.5.5-2.5,4h-2l-1,1.5-1-1,.5-1.5-.5-2.5,1-1-.5-1,1-4h-4.5l1-5.5h1v-1l-1.5-1.5-1-2.5.5-3.5-1-.5"/>
      <path data-code="lukojanovskij_rajon" data-title="lukojanovskij rajon" class="cls-1" d="M59.12,184.26l2-1,1.5-2h2l3-2-.5-.5,2-4.5,1-.5h-.5l3-1-2-.5,1.5-.5,1-2,3-1,2.5.5,1-.5v-1h1l.5-1-.5,3.5,4,.5-1-2,1-3,1.5.5.5-.5,2.5,1-.5,1,1,1v-1.5l4,.5,1,2.5-1,2,1,1.5-.5.5v1l5,3-1,2.5,3,3-1.5,2h1.5v4l-2,2-2-.5-.5-2-1.5-.5-1.5.5-1-.5-1,1.36h-2l.5-1-1,.5v-2l-1-.5-1,.5h-2l-2,3-2.5-2.5v-1l-1,1-.5-1.5-1.5.5-.5.5.5,1h-1l-2.5-1.5.5.5-2.5,1,1,.5-3.5.5-.5,1,1.5.5.5,1.5h-5v1.5l-4.02-2.46-1.98,3.46-4.11-4.23,4.61-5.14-1.5-1.5"/>
      <path data-code="lyskovskij_rajon" data-title="lyskovskij rajon" class="cls-1" d="M126.62,120.76l1.5,1-.5-.5,1.5-.5-.5-1,3.5-.5,3.5,2.5,1.5-2v-1l1,.5,1-1.5-.5-.5h.5l1.5-4.5-2-1,3.5-4.5-1.5-.5,1-1,1,.5,2.5-1-.5-2,.5-1,15,2.5,1.5,2,3.86,1.23-12.86,17.77,1.5-1,1.5,2h-1l-2.5,1.5-1.5-.5v1.5l3,.5,1.5-2,1,1,2,.5v1.5l1.5,1h-1l.5.5-1,2,1-1v1l-3,1v-1l-1.5-1-1.5,1-1.5-1v2.5l-2.5-1.5-.5,1.5-3.5,1,.5,1-.5.5-.5,2.36,1,1-3,1.64-1-1.5,2-1-3-4.5-2.5,1-1-.5v-1l-4,.5-.5-1.5.5-1-3.5-1.5,1-2.5-2-1-1,1-1-2h-1v-3.5l1.5-1.5-.5-2"/>
      <path data-code="navashinskij_rajon" data-title="navashinskij rajon" class="cls-1" d="M29.12,93.62l1-.5,2,1.5,2-4,1.5,1.5,2.5-2h1.5l2-1.5,3,.5,1,1-1,1.5,1.5,1-1,2.5-1-.5-1,1v.5l2,.5v3l2,.5-.5,3,5,.5-.5,2,1.5.5-2,.5,1,.5,4.23-.72,1.27.72,3,1-1,3.5-2-.5v1.5h-1.5v.5h-.5l-.5,1h-2.5v1l-3.07,4.6-2.43-1.6h-4l-3.5-5,.5-2-1.5-1.5.5-1-4.5-3.5-2-.5-2.5,1-2-2.5-1,2-1-4.5,2-1.5,1.5-5.5"/>
      <path data-code="pavlovskij_rajon__nizhegorodskaja_oblast_" data-title="pavlovskij_rajon_(nizhegorodskaja_oblast&amp;apos;)" class="cls-1" d="M66.12,77.62l6,1,1.5-.5,3.5,2,1.5-1.5,1.5,2.5,1.5-1,1,1,1.5-1.5,1.86,4.09-1.36-.59.5,2,1-.86,1,1.86-2,1-1-1-1.5,1v2h2l-.5,4-.5.5,1,.5-.5.5v.5l2,.5-1.5,2.5,1,2-.83,1.1-4.17-.1-2,.5-1-1.5,1-1-.5-.5-3.5.5v1l-.5.5-1.5-.5v.5l-1-1-2,.5-1.5-2.5v1.5h-1l.5-.5v-2.5l1-.5v-1l-2.5-1-1,.5-1.5-2.5,1.5-.5-.5-1,1-.5v-1h1.5l.5-1.5-4.5-2,3-4.5-1-.5,1.5-2-.5-.5"/>
      <path data-code="perevozskij_rajon" data-title="perevozskij rajon" class="cls-1" d="M103.12,129.76l2,1,2.5-.14,2,1,.5-1h1l-.5-2,1.5-.86,1,1.5-1,.5-.5,1.5,2,.5-2.5.5-.5,1.5h.5l-1,1.5,3.88,4.98-.38,3.02-3,2,2.5-.5v.5l-.5.5.5.5-1.5.5-.5,1.5-1-.5-1.5,1v1l-2,1.5v1l-5,2v-1l-1.5.5-.5-1-1.5.5-.5,1.5h-2.67s.67-.64.67-.64l-1-2,2-.5.5-.5-3-.5,1.5-1v-1.5l3.5-3-2-2,2-1,1-6,2.5-.5,1-4.36-.5-1.5"/>
      <path data-code="pervomajskij_rajon__nizhegorodskaja_oblast_" data-title="pervomajskij_rajon_(nizhegorodskaja_oblast&amp;apos;)" class="cls-1" d="M47.62,161.62l2.5-.36v-2h1.01l.49.36.5-1-1-.5.5-2,1-1h5v-2l1-.5,1,1.5v-1l3,.5,2.5-1,1.37,1.39-.37,2.61-3,1.5,1,4.5,8.5,6,.5,1.14-1,2-1.5.5,2,.5-3,1h.5l-1,.5-2,4.5.5.5-3,2h-2l-1.5,2-2,1.36h-2.5l-1.5-2.5v-1l3.5-2-3-2-2.5-2.5.5-.5-1.5-.5-2.5-4.5h.5l.5-3-3.5-2.5-.5-.5,1-1.5"/>
      <path data-code="pil_ninskij_rajon" data-title="pil&amp;apos;ninskij_rajon" class="cls-1" d="M141.12,161.62l1.5-1,1.5,4.5,1.5-1.5.5-1,3,.5,1-2-.5-2.5-1.5-.5.5-1.5,1.5-1,2.5.5-.5-2,3-3h2.5l.5,2,2.5-.5.5,1.5,2.5-.5-.5,1,1.5-2,3.5.5v1l-1.5,1h1l.5,1.5-4-1v3l-1.5,2-2.5-.5-2.5,1.5-1.5-1.5-1,1.5v1l-2,.5-1,1.5,1,1-1,2.5,2.5,1.5v4l-.5.5.5,1.5h-1.5l.5.5v2l2.5,1v-1.5h1v1.5l-.5.5.5.5v1l3,1.5h-1.5l-.5,1.5h1l1,2-1.5,2-5.5-.5-2,1v1h-1l-2-2.5-3,.5-1.5-2-.5-.5,1-.5-.5-2.5-4.5,1.5,1.5-4h1.5l-1.5-3.5-1.01-1.64,3.01-2.36-2-.5,1-1h-1v-2.5l-2-1.5,2.5-1.5v-3.5"/>
      <path data-code="pochinkovskij_rajon__nizhegorodskaja_oblast_" data-title="pochinkovskij_rajon_(nizhegorodskaja_oblast&amp;apos;)" class="cls-1" d="M59.12,194.12l1,1,2-3.5,4,2.5v-1.5h5l-.5-1.5-1.5-.5.5-1,3.5-.5-1-.5,2.5-1-.5-.5,2.5,1.5h1l-.5-1,.5-.5,1.5-.5.5,1.5,1-1v1l2.5,2.5,2-3h2l1-.5,1,.5v2l1-.5-.5,1h2l-.5,1.5,3,2-.5,1,1,2,2,.5-1,1.5,1-.5,1.5,3,1.5-1,1,1-2,1.5-.5,2.5-2,1.5v-3l-1-2-5,2.5-1.5,1.5.5,4.5-2.5.5.5,1h-1.5l-.5,2h-1.5l-.5,1v1h2l.5,1.5-1,.5,2,1-1,.5-.5,2-2.5.5-1-1.5v-1.5l-1,1-1.5-2-2.5.5-1-2.5-1.5-1,.5-1-.5-1.5-4,.5-3.5-1.5v-.5h1l1-2,1,.5-1,1.5,1.5-.5.5-4.5-.5-.5-2.5,2-1,.5-2.5-2-1-1.5.5-.5-1-1,1-3-2.5-2.5-2.5-1,.5-2"/>
      <path data-code="sarov__nizhegorodskaja_oblast_" data-title="sarov_(nizhegorodskaja_oblast&amp;apos;)" class="cls-2" d="M44.13,155.26l-2,3-2.01.43.31.31,1-.5v1.5l1,1.5,1.37-1.9-.27-.81,1.6-.17-.2,1.88.95.47-.25-1.22.5-1.5-2-.5.5-1.5-.5-1Z"/>
      <path data-code="sechenovskij_rajon" data-title="sechenovskij rajon" class="cls-1" d="M123.62,188.12l4.5-3.5,1.5,1,.5-.5v-1h2.5l1,1,1.5-1,1-2.5,2.5-.5,2.83-3.12.67,1.62h-1.5l-1.5,4,4.5-1.5.5,2.5-1,.5.5.5,1.5,2,3-.5,3,3h-1.5l-1,3.5-1,1-1.5-.5-1.5,2-3-1-3,2.5-1.5-.5-.5,3.5-1,1,1,1.5-2.5,1,.5,1h-.5l-4.5,1-3-3-5-1v-2l2.5-1-.5-.5,2-.5-.5-1.5h1l1-1.5,1,.5,1-1.5v-1l-1.5-.5.5-.5,1-.5-1-2h-4l-.5-1.5"/>
      <path data-code="semjonovskij_gorodskoj_okrug" data-title="semjonovskij gorodskoj okrug" class="cls-1" d="M137.62,53.26l2,1,1-1.5,3,1,.5-1,2.5-1.5h1.5l2-2.5-.5-.5h-1v-1l4-2.5h1.5l-1.5-2.5,1-1,5,4.36v-1l2-2.36-.5-2.5,2,.36,3-4.5h.5l3-4,4,4-2,3.5,1,.5-1,1,2,1.5-3.5,4.5,1,2.5-1,1-1,2.5,4.5,6.5-.5,1.5-1,1.5.5,1-.5.5-1.5-.5-2.5,2.5-.5,1.5h-.5l.5,2-.5,1,3.5,1.5-.5,2,1,.5,1.5-1,.5,1-1.5.5-2,2.5h-1l-5-2-1,1.5v1.5h-1l4,4-2,1.5-.5,1.5-2.5,2-.5,1.5,1,10.5-13-9.5,1-2-3-1.5-1,2.5-7-4,1.5-2.5-3-2.5-2,.5-1-2.5,1-.5-.5-1-3,1-1-1,1-1,1.5.5,1.5-1,.5-.5h.5l-1-.5v-.5l.5-.5,1-1.5-1-.5.5-2-1-1.5,1-1v-2h1.5v-.5l3-2-2-3.5v-1h1.5l1-1.5-1.5-1.36v-1Z"/>
      <path data-code="sergachskij_rajon" data-title="sergachskij rajon" class="cls-1" d="M122.62,156.12v-.86l4.5-.5,2.5-1,2,.36,1.5-1.5,4.5,2,1-3,11,.5-6,4,2.5,1,2.5-.5-.5,1.5,1.5.5.5,2.5-1,2-3-.5-.5,1-1.5,1.5-1.5-4.5-1.5,1v3.5l-2.5,1.5,2,1.5v2.5h1l-1,1,2,.5-4,3.14-1-2-1.5.5-.5,1.5v-2h-1l1-1.5h-1l.5-1.5v-1h-3l-3.5,2.5v-2.14s-1.51,1-1.51,1l-.5-1-1,.64-.5,2.36-1.5-.5-4,1.14-3-1.64v-2.5l.5-2.36,4-2-.5-2.5,2-1-1.5-4.5,1.5-.64Z"/>
      <path data-code="sharangskij_rajon" data-title="sharangskij rajon" class="cls-1" d="M207.62,79.12l2-1,1-1-.5-2,1.5,4,4.5,2,2.5-2,3-1-.5-1,1,1,1-.5-.5-1.5,1-.5,1-2,3.5,2.5,3-1,2,1.5,1.5-1-.5,2.5,1.5-.5v2.5l-1,1.5,2.5,1-.5,2-2,2,2,1.5-2,2-2-1-1.5.5-.5,2.5,1,1-1.5-.5-1,1.5,1,2-1.5,1.5h-2l-1,2,1,1-.5.5-2,.5-2-1.5-1,1.5-1.5-.5-1.5.5-1.5-1.5-1,1-1-.5,1-1.5v-.5l-5.5-3.5-2.5,3-.5-1.5-7-1,5.5-7.5-.5-.5,3-4-1.5-1,2.5-2.5-1.5-1"/>
      <path data-code="shatkovskij_rajon" data-title="shatkovskij rajon" class="cls-1" d="M63.12,158.12l3-1.5.5-3.5,1.5-.5.5,1,2-1.86h3.5l.5-1.5,9-.5-.5,1.5,1.5,2.86h4l-1,.5,3.5-.5,2,3.5,1-2,.83-.87h2.67s-.5.51-.5.51l-.5,1h1l.44,1.92,2,.5,1.56,2.08-1,1.5v1l1.5-.5,1,1,1-1v-.5l1,.5-1.5,4.36-3.5.64v2l-1-2.64-3-.5-1,1.5-1.5-.36-4-.5v1.5l-1-1,.5-1-2.5-1-.5.5-1.5-.5-1,3,1,2-4-.5.5-3.5-.5,1h-1v1l-1,.5-2.5-.5-3,1-.5-1.14-8.5-6-1-4.5"/>
      <path data-code="sokol_skij_rajon__nizhegorodskaja_oblast_" data-title="sokol&amp;apos;skij_rajon_(nizhegorodskaja_oblast&amp;apos;)" class="cls-1" d="M118.62,22.62l3-3,4.5-2,2.5-2.5,7-3.5v-1.5l2.5-3,10-3.5,1,1-2,1.5,3,3.5-1,3.5,1,4-3,1.64,3,3.86.5,3-1,.5v-1.5l-1-1-2,1v2h-1l-.5-2.5-1.5-.5-2.5,3.5-.5.5-3.5-2.5-1,1.5-.5,1-4,1.5,1,2h-1.5l-.5,1-1,.5,1.5,1,1-1-.5,1.5v1l2,.5-1,2,2,1.5-1,1.5-3.5,1-.5,1-1-.5-2,1.5h-2l-3.5,1.64-6-.5-1,1.5-1-.14,3-11,.5-7,2-5.5"/>
      <path data-code="sosnovskij_rajon__nizhegorodskaja_oblast_" data-title="sosnovskij_rajon_(nizhegorodskaja_oblast&amp;apos;)" class="cls-1" d="M62.12,98.12l1.5,3,2.5-4,1.5.5v1l-.5.5h1v-1.5l1.5,2.5,2-.5,1,1v-.5l1.5.5.5-.5v-1l3.5-.5.5.5-1,1,1,1.5,2-.5,4.17.1-2.17,2.9-1,3.64h-1.5l-1,1.5h2l.5,2,1-.5-1.5,1.5,1.5,1-.5,1v2.83l-1.5-1.33h-1.5l-2,2.5-2.5-1-4.5,2.36-4-1.5h-7l.5-2.5h.5l-.5-.5-5.38-.32.88-1.68h.5v-.5h1.5v-1.5l2,.5,1-3.5-3-1,2-1.5-1-1,1-2,2.5-1.5"/>
      <path data-code="spasskij_rajon__nizhegorodskaja_oblast_" data-title="spasskij_rajon_(nizhegorodskaja_oblast&amp;apos;)" class="cls-1" d="M139.12,147.26v-2l2,.5,1.5-2.5,3-1.64-1-1,.5-2.36.5-.5-.5-1,3.5-1.14.5-1.5,5,3v1l-.5.5.5,1.5h1l2,5h1.5l1,2-1,1,2.5,1-3.5,2h-2.5l-3,3,.5,2-6.5,1-2.5-1,6-4-9-.36-1-1.5,1-1.5-4,1,.5-.5v-1l2-1Z"/>
      <path data-code="tonkinskij_rajon" data-title="tonkinskij rajon" class="cls-1" d="M204.12,73.26h2l1-2.64-.5-1,1.5-1.5,2,.5.5-1.5,1.5,1,.5-1.5,4.5.5.5-.5-1-.5h4.5l.5-1,2,1.5,2.5-4,6.5,5h2l3.5-1.5,4.5,1.5,1,.5-1,3.5,1,1.5-1,.5-1-.5-1,1-.5-1-2.5.5v2l1.5-1,1.5.5-1,1.5-5.5,1.5.5-2.5-1.5,1-2-1.5-3,1-3.5-2.5-1,2-1,.5.5,1.5-1,.5-1-1,.5,1-3,1-2.5,2-4.5-2-1.5-4-6.5-.36.5-1.5Z"/>
      <path data-code="tonshaevskij_rajon" data-title="tonshaevskij rajon" class="cls-1" d="M253.12,48.26l1-2,5.5,3.5,2-3,2.5,1.86,3.93-6.53,13.07,8.03-1,1.5,7.5,6.5.5,2-.5,1.5v2h-4.5l-1-1v1l-4,2,1,1-1.5,3-4,2-.5,2.5-2,1-.5,1.5h-.5l-.5,1.5-1-.5-2.5,3.5-3-2,1-2.5-2-.5-1-1.5-6,1-4-1-2.5-2-.5-1.5-1-.5,4-6.86h1l-2-4,3-4,1-3.5-.5-3.5-.5-.5Z"/>
      <path data-code="urenskij_rajon" data-title="urenskij rajon" class="cls-1" d="M199.12,45.12l3.56-4.57.94.57,2.5-3.5h2.5l2.5,2.5,1-.5,1,1,1.5-1,1.5,1,.5-.5.5,1,.5-1,1,1v-2.5l1-1v1l1,1h.5v-2.5h1.5l.5.5-.5,1.5h1v-1l1.5,1.5.5,4.5,1.5.5v2l1.5,2-1,.5-1,1.5,3,.5,3,4.5-3.5,2.5v1h-2l-1,3.5-2.5,4-2-1.5-.5,1h-4.5l1,.5-.5.5-4.5-.5-.5,1.5-1.5-1-.5,1.5-2-.5-1.5,1.5h-3l1-1-2-2.5-1-4.5h-2l-3-3,.5-3,2.5-4.5-.5-6"/>
      <path data-code="vachskij_rajon" data-title="vachskij rajon" class="cls-1" d="M45.12,88.62l1.5,1,1.5-2,4.5-1,2-2,2-2,1.5.5-1,1.5v.5h3.5l1.5-1.5,5.5,3.5-.5,1.5h-1.5v1l-1,.5.5,1-1.5.5,1.5,2.5,1-.5,2.5,1v1l-1,.5v1.5l-1.5-.5-2.5,4-1.5-3-.5,3-2.5,1.5-1,2,1,1-2,1.5-1.27-.72-4.23.72-1-.5,2-.5-1.5-.5.5-2-5-.5.5-3-2-.5v-3l-2-.5v-.5l1-1,1,.5,1-2.5-1.5-1,1-1.5-.5-1.5"/>
      <path data-code="vadskij_rajon" data-title="vadskij rajon" class="cls-1" d="M83.62,139.12l2-.5,1.5-2h.5l.5-2.5,1.5-2.5,2.12.79,11.41.93-.52,2.28-2.5.5-1,6-2,1,2,2-3.5,3v1.5l-1.5,1,3,.5-.5.5-2,.5,1,2-1.5,1.5-1,2-2-3.5-3.5.5,1-.5h-4l3.5-2-2.5-3.5-2-1,1.5-2.5-1-1-.5-5"/>
      <path data-code="varnavinskij_rajon" data-title="varnavinskij rajon" class="cls-1" d="M169.62,24.12l6-1,.5-.5,2.5-1,1.5-2.5,4-1,3.5,2.5h2.5l1.5-2.5,3.5-1.5,2-1.5,4,3-2.5,5,2.5,1.5-.5,1,.5,2,1.5,3.5h-2l1,2-1-1-1.5.5.5.5-2,2,4.5,2,.5,2-1.5.5,1.56.93-3.56,4.57.5,6-1.45,2.61-3.55-4.11h-1.5v.5l-2,1.5-1-.5,1,2v1l-4-1.5-5.5.5-.5-1.5-3.5-1.5-1,1.5-7.5-1.5,1-1-1-2.5,3.5-4.5-2-1.5,1-1-1-.5,2-3.5-1-1,.5-2-1.5-2,1.5-2-1.5-.5-1-4"/>
      <path data-code="vetluzhskij_rajon" data-title="vetluzhskij rajon" class="cls-1" d="M200.12,6.12h1.5l1-3,2-.5,1-1.5,1-.5,4,2.5,1-1,6,4-1.5,2.5,2.5,1-1,1.5,6.5,4-2,3,.5,2-.5.5,1.5,1-.5,2,2,.5,4-1,.5-.5-.5-1.5,1,.5v-1.5h1v-1l1.5,1.5,2.5-1,1.5,1.5,1-.5,7.5,4.5-1,2-2.5-1-1,2-1,.5,1.5.5.5-.5-.5,1.5,1,.5h-1.5l-1.5,4,1,.5-1.5,4h-2.5v-2l-.5,1,1,2-4.5-1,2,2-.5,1-1.5,1.5h-4l-1,1-1.5-.5-.5-4.5-1.5-1.5v1h-1l.5-1.5-.5-.5h-1.5v2.5h-.5l-1-1v-1l-1,1v2.5l-1-1-.5,1-.5-1-.5.5-1.5-1-1.5,1-1-1-1,.5-2.5-2.5h-2.5l-2.5,3.5-2.5-1.5,1.5-.5-.5-2-4.5-2,2-2-.5-.5,1.5-.5,1,1-1-2h2l-1.5-3.5-.5-2,.5-1-2.5-1.5,2.5-5-4-3,3-2.5v-6.5"/>
      <path data-code="volodarskij_rajon__nizhegorodskaja_oblast_" data-title="volodarskij_rajon_(nizhegorodskaja_oblast&amp;apos;)" class="cls-1" d="M76.62,57.12h.5l.5-1,2,.5.5-.5-1-1,1-.5,7.5,4.5.61-3.24,1.89.38,4.17,3.93-1.18,1.93-1-.5-1,2.64,2.5,2.5-1,2-2,1,4,2.5-2.5,4.5,2.5,1.5-4,2.5,2,1.86.5,1-.5.5-3.5,1-3.14-1.41-1.86-4.09-1.5,1.5-1-1-1.5,1-2-3,.5-1.5-1.5-.5h1v-1l-.5-.5v1l-1,.5-2-1-.5-1.5h1.5l-2.5-.5v-1h1.5l.5-3.5,2.5-.5v-1.5l1-1.5-.5-3.5-1.5-4.5"/>
      <path data-code="vorotynskij_rajon" data-title="vorotynskij rajon" class="cls-1" d="M152.12,128.26l2.5-1.5h1l-1.5-2-1.5,1,13-18.14,5,2,2.5,3.5,2,1v1l-1.5,2,5,1,2,1.5v1.5l-2.5,1.5-1,4-1.5-.5-2.5,3.5-1.5-1,.5,1.5-1,1,1,1-1,4h2l.5,1.5h2l-1,1,.5,1-2.5.5-1.5,3,1.5,1-2,1.5,2.5.5-1.5,2,1-1,1,1-2,1.5-4.5,1.5.11,1.87-2.61-.37-1.5,2,.5-1-2.5.5-.5-1.5-2.5.5-.5-2,3.5-2-2.5-1,1-1-1-2h-1.5l-2-5h-1l-.5-1.5.5-.5v-1l-2.51-1.51.02-2.36,1.5,1,1.5-1,1.5,1v1l3-1v-1l-1,1,1-2-.5-.5h1l-1.5-1v-1.14l-2-.5-1-1-1.5,1.64-3-.5v-1.5l1.5.5Z"/>
      <path data-code="voskresenskij_rajon__nizhegorodskaja_oblast_" data-title="voskresenskij_rajon_(nizhegorodskaja_oblast&amp;apos;)" class="cls-1" d="M160.62,78.12h1v-1.5l1-1.5,5,2h1l1-1.5,1-1,1.5-.5,6.5-1.5,1,1,1.5-1h-.5l-.5-1.5,1-1,1,1,1.5-1,1,1.5,2-1,1.5,1.5.5-1,3.5,2.5,2-3.5,1,1,1-1.5,6.5,5,7.5.5.5,2-1,1-2,1,1.5,1-2.5,2.5,1.5,1-3,4,.5.5-5.5,7.5-4.5-2-6,7.5-1-1.5v1l-1.5,1.5h2l-1.5,1,1,1v2l-2.5-1-.5,1.5-4.5-2.5-1,1-2-2-3,2.5-.5,1,.5,1-1,1h-1l-.7,3.88-1.8-2.88-9-2.86-1.5-2,1.5-3.14-1.5-2.5-1-10.5.5-1.5,2.5-2,.5-1.5,2-1.5-4-4"/>
      <path data-code="voznesenskij_rajon" data-title="voznesenskij rajon" class="cls-1" d="M10.12,148.12l1.5-1,1-1.5-.5-.5,4-1.5.5-4.5,2.5-.5.5-1-.5-2,12.5,2.5,2,2v1.64l3,2.5-2,2,1,1.5h1l1-1,3,1-.5,1-3,1.5,2.5,1-1,.5,2.5,3-.5,1-1.5,1,.87.76-1.37,1.1-2-1-2.5,2-1,2-3.5,2-3-4-3.5,1-1.5-2-1,.5-1-.5,1-.5-.5-2-1-.5,1-1.5v-.5h-5l-1.5-3v-3l-4,1.5.5-1"/>
    </g>
</svg>