<svg data-code="RU-ME" xmlns="http://www.w3.org/2000/svg" viewBox="0 0 154.75 109.61">
    <g data-code="marij_ehl" data-title="marij ehl">
      <path data-code="gornomarijskij_rajon" data-title="gornomarijskij rajon" class="cls-1" d="M23.62,43.62l1,1.5h2l1-1-1.5-1-2.5.5M1.62,35.62l1.5,1,2.5-3.5,1.5.5-.5,6-2,1,1,2-.5,1.5,1.5.5v-1.5l1,.5.5-1,.5,1,6-1.5,6,1,1-2-2,.5,1-1-1.5-1.5,1.5-.5.5-1.5-1.5-1,1-1-1-.5.5-1-.5-.5h3l6.5-12,11.5,6.5-2,3.5,1.5,1-2.5,3.5-3-1.5-3.5,4-.5,3-3,1,2.5,1.5,1.5,3.5-1,.5-.5,9.5-1.5-2h-1l1,1.5-2.5,1-1.5,1.5-3.5.5-1-3.5h-3l-.5-1h-2l-.5-2-1.5,1h.5l.5.5-5.5.5-1.5-1-2,.5-.5.5-1.5-1-1,1v-.5l1.5-1-2.5-1,2-1-1.5-1,.5-2.5,1-1h2.5l-.5-1.5,1-1h-2l-.5-1-2-.5,1-3.5-1-1,1-1.5-.5-1.5"/>
      <path data-code="joshkar-ola" class="cls-1" d="M82.12,48.62l1.5,1,.5-.5-1.5-1-.5.5M75.62,48.62l2.5-2,2,2,.5-.5,1.5.5,2-2.5.5,2.5h1.5l1.5,2-1.5-.5-.5,1.5h-1.5l-1.5-2h-1.5l.5,1.5-1,1-2.5,1-1-1v-1l-1.5-2.5M75.12,50.12l.5.5-1,.5v-.5l.5-.5ZM75.62,51.62h1.5l-.5.5-1-.5M75.12,51.62h.5v.5h-.5v-.5M73.62,51.62l.5-.5-.5.5v-.5.5Z"/>
      <path data-code="jurinskij_rajon" data-title="jurinskij rajon" class="cls-1" d="M3.12,15.62l1,.5,1-1.5-.5-.5,1-1-.5-.5,3-2.5,2,2,1-1,4.5,2.5.5-1,2.5,1v-2l-1-1.5,1.5-.5-2-.5,1.5-1v-1.5l1.5,2L25.62.62l4.5,2.5,7,1,.5,2-4,4.5-1,4.5-10,18h-3l.5.5-.5,1,1,.5-1,1,1.5,1-.5,1.5-1.5.5,1.5,1.5-1,1,2-.5-1,2-6-1-6,1.5-.5-1-.5,1-1-.5v1.5l-1.5-.5.5-1.5-1-2,2-1v-4.5l1.5-5.5,2.5-1.5v-1l-1.5-1.5-5.5-1.5,2-2-3-2.5.5-4"/>
      <path data-code="kilemarskij_rajon" data-title="kilemarskij rajon" class="cls-1" d="M33.62,10.62l4-4.5,2.5-4,5.5,4,.5.5-1,1,1,.5.5-1,2,1.5,1-.5,1.5.5,1-1.5,1.5.5-.5,2h-1l3,3.5,3-1,.5.5-1,1v1l2.5-.5,1.5,2.5h1l1.5,1.5v3.5l-1-1-1.5,2.5-1,.5.5,2.5,2-.5,1,1.5v1h-1l.5,1.5-.5.5v1l-1,.5.5,2.5-4.5,3.5v-1.5l-1-.5-1.5,4h2.5l-2,1.5-.5-.5-5,11.5-3.5,5.5-3-2-1.5,2-5.37-.71-4.63.71-2.5-.5.5-9.5,1-.5-1.5-3.5-2.5-1.5,3-1,.5-3,3.5-4,3,1.5,2.5-3.5-1.5-1,2-3.5-11.5-6.5,3.5-6,1-4.5"/>
      <path data-code="koz_modem_jansk" data-title="koz&amp;apos;modem&amp;apos;jansk" class="cls-1" d="M23.62,43.62l2.5-.5,1.5,1-1,1h-2l-1-1.5"/>
      <path data-code="kuzhenerskij_rajon" data-title="kuzhenerskij rajon" class="cls-1" d="M106.62,57.12h1l1-1.5h1v-1.5h.5l-1-1,1.5-1.5,3-2,1,.5,1-1,1.5,1.5,1-1.5,4.5,2.5.5,1-1.5,2h1v1.5l3.5,1,.5-1,.5,1-1,1,2.5.5-.5,1.5,1.5,1,2.41.29-.41,1.07-1-.5-1,2.5-4.5-1-1.5.5-1,1.5.5,1.5-1.5.5-.5,1,1.5,1.5-.5,2-3,.64-2-.5-2-4-1.5.5-1-1.5.5-1.5-1.5-1-1.5,2-3-2.5,2-2.5-3.5-2.5,1-1.5v-.5"/>
      <path data-code="mari-turekskij_rajon" data-title="mari-turekskij rajon" class="cls-1" d="M139.12,57.62l4,1,.5-1-.5-1.5,2-.5-1-.5.5-1v-2l1.5.5,1-1,1.5,1.5-.5,1,1.5.5h-1v2.5h-.5l.5,2.5-.5,2.5-2.5.5v1l1,1-1.5,1,.5,1.5,4,1,1.5,3.5h2.5l-.5,1,1,2h-1l-1,2,1.5,1-2,4h-1l-2.5,3.5h-1.5l1,2.5-2,1.5,4,2,.5,1.5-1,1.5-2,1-3.5-.5-2,1-1,2h-4l.5-2h2l1-1.5-1.5-1-1.5,1v.5l-3,2-2.5-4,3.5-1.5-1-3.5-2,.5-1.5-1.5-4,.5-.5-.5,1.5-2-.51-.94,1.01.81v-1l1.5,1,1-1,2.5,1-1-2,1-2-.5-.5,2-.5.5-1h.5l1-1-.5-.5,1-.5-1-2v-3.5l-.5-.5,1-1.5v-2l.5-1,1-.5h1.5l.5-3,1.5-1-2-.5-1-1.86.5-1.5"/>
      <path data-code="medvedevskij_rajon" data-title="medvedevskij rajon" class="cls-1" d="M82.12,48.62l.5-.5,1.5,1-.5.5-1.5-1M73.62,51.62l.5-.5-.5.5v-.5.5ZM74.62,51.12l1-.5-.5-.5-.5.5v.5ZM75.12,51.62v.5h.5v-.5h-.5M75.62,51.62l1,.5.5-.5h-1.5M77.12,51.12v1l1,1,2.5-1,1-1-.5-1.5h1.5l1.5,2h1.5l.5-1.5,1,.5h.5l-1.5-2h-1.5l-.5-2.5-2,2.5-1.5-.5-.5.5-2-2-2.5,2,1.5,2.5ZM57.12,35.62l1,.5v1.5l4.5-3.5-.5-2.5,1-.5v-1l.5-.5-.5-1.5h1l.5-1v.5l3-1,5-.5,1.5,3v-1.5l2.5-.5,1-1.5,2.21.79,1.29,2.58-3.5,5,4,1,4.5,4-.5,1.5.5,2.5,2.5,1v-1l2,1,.5-1,1,1,1.5,3.5v1.5l-.5.5,2,2-2,1v.5l-6.5,1-.5,1.5-4,6,7.5,2.64-1,1.5-1-1-2,3-3.5-.5-.5,1.5-1-.5-.5,1,.5.5-.5,1,.5,2-1,1-1-.5-.5,1-5.5-3,1-.5-1.5-1.5-8.5-5,4.5-8-15.5-8.64,3-6.86.5.5,2-1.5h-2.5l1.5-4"/>
      <path data-code="morkinskij_rajon" data-title="morkinskij rajon" class="cls-1" d="M92.62,67.49l1.5-2.5,2-1,4,3,2-2,2,1,3-1.86,3,2.5,1.5-2,1.5,1-.5,1.5,1,1.5,1.5-.5,2,4,2,.5,3-.64,2.5,4.5-1.5,2.5v1.5l3.99,3.19.51.94-1.7,2.3.7.2-.5,2-2,1.5-3-.5v-2.5l2-1-1.5-1-.5,1h1l-1,1-1-.5-3,5-1,1-1-2-1,2-1-.5-1-2,.5-3-2-1-.5,1.5.5.5-1,.5-1.5-2-1.5,1.5-1-1-1,1v.5h-1l-1,1.5h-4.5l-.5,2,2,1.5,1-.5.5,2.5-1,1-2-2.64-4-.5-1.5-2-4-1.5h-1.5l-.5-1-3.5-1,3.5-6.5h1.5l1.5-2.5,2-.5-.5-.5,1-1.5-1.5-2,1-1-3.5-2.5,1.5-1.5-.5-1.5,3.5-1Z"/>
      <path data-code="novotor_jal_skij_rajon" data-title="novotor&amp;apos;jal&amp;apos;skij_rajon" class="cls-1" d="M105.12,25.99l1-1,1,1.5,1-1.5,2-.5,1.5,1-1.5,1.5,1.5,1.5-.5,1,6-.5.5-1,2.5,3.5,1-1,4.5,2.5v.5l-1,1,.5,2.5-1.5.5,2,2.5-1.05.25.55,1.75-1,.5.5.5-1.5,2v1.5l-1.5.5v1l-.75,2.66-2.74-1.52-1,1.5-1.5-1.5-1,1-1-.5-3-4.14v-2.5h-1l-2.5-2.5,1-1v-1.5l-1.5-.5-1.5,1-1.5-1,1.5-.5-.5-2,1-.5-1-1-1.5,1-.5-1,.5-2,.5-.5,2,1,3-.5-1-.5.5-2.5-3-1.5v-1"/>
      <path data-code="orshanskij_rajon" data-title="orshanskij rajon" class="cls-1" d="M79.62,25.99l3.5-2,.5,1,1.5-.5-.5-1,3,2-.5-2.5,1-.5,1,1.5-.5,3,2,1-.5,1.5,1.5-1,.5.5-.5,2,2-.5.5-1.5,1.5,1.5,1-.5.5,1.5,1.5.5,1.5-1,1,1,1-2-1-3,2,1.5,2-1v-.5l3,1.5-.5,2.5,1,.5-3,.5-2-1-.5.5-.5,2,.5,1,1.5-1,1,1-1,.5.5,2-2.5,1-.5,4-6.5-.5-3.5,2.5-1-1-.5,1-2-1v1l-2.5-1-.5-2.5.5-1.5-4.5-4-4-1,3.5-5-1.5-3"/>
      <path data-code="paran_ginskij_rajon" data-title="paran&amp;apos;ginskij_rajon" class="cls-1" d="M122.62,65.49l1-1.5,1.5-.5,4.5,1,1-2.5,1,.5.41-1.07.59.07-.5-3,1.5-1.5,2.5,2.5-.5,1,3-1.36,1,1.86,2,.5-1.5,1-.5,3h-1.5l-1,.5-.5,1v2l-1,1.5.5.5v3.5l1,2-1,.5.5.5-1,1h-.5l-.5,1-2,.5.5.5-1,2,1,2-2.5-1-1,1-1.5-1v1l-5-4v-1.5l1.5-2.5-1-.5-1.5-4,.5-2-1.5-1.5.5-1,1.5-.5-.5-1.5"/>
      <path data-code="sernurskij_rajon" data-title="sernurskij rajon" class="cls-1" d="M124.62,40.49h2l3.5-1.5v-2l1-1v-1l2,.5.5-1.5.5.5-1-1.5,2.5-4,2.5.5.5-.5,4-.5-.5,1.5.5,1.5-1,1h-1l-1.5,2.5.5,1-2,1.5h-1.5l-.5,3,2-.5-2,1,1,1.5-1,1v4l-1,.5,2.5,1.5v1l1.5,1.5-.5,1,2-.5v-2l4.5,1.5v2.14l-.5,1,1,.5-2,.5.5,1.5-.5,1-4-1-.5,1.5-3,1.36.5-1-2.5-2.5-1.5,1.5.5,3-3-.36-1.5-1,.5-1.5-2.5-.5,1-1-.5-1-.5,1-3.5-1v-1.5h-1l1.5-2-.5-1-1.76-.98.75-2.66v-1l1.5-.5v-1.5l1.5-2-.5-.5,1-.5-.5-1.5"/>
      <path data-code="sovetskij_rajon__marij_ehl_" data-title="sovetskij_rajon_(marij_ehl)" class="cls-1" d="M92.12,43.99l3.5-2.5,6.5.5.5-4,1-.5,1.5,1,1.5-1,1.5.5v1.5l-1,1,2.5,2.5h1v2.5l3,4.14-3,2-1.5,1.5,1,1h-.5v1.5h-1l-1,1.5h-1v.5l-1,1.5,3.5,2.5-2,2.5-3,1.86-2-1-2,2-4-3-2,1-1.5,2.5-3.5,1-7.5.14.5-1.5,3.5.5,2-3,1,1,1-1.5-7.5-2.64,4-6,.5-1.5,6.5-1v-.5l2-1-2-2,.5-.5v-1.5l-1.5-3.5"/>
      <path data-code="volzhsk" class="cls-1" d="M68.41,104.17l-.79.82-.28,2.07-1.72-2.57v-1.5h2l.79,1.18Z"/>
      <path data-code="volzhskij_rajon__marij_ehl_" data-title="volzhskij_rajon_(marij_ehl)" class="cls-1" d="M70.62,88.99l.5-.5,4,3,2-3.5,1.5-.5.5,1.5,3,.5,1-1,3.5,1,.5,1h1.5l4,1.5,1.5,2,4,.5.5,1h-.5l-1,2h-1l-1,1-4-.5-3,4-1.5-1.5-1.5.5.5-2.5-1.5.5v1.5h-2l1.5,2-1,.5-2,2.5-1.5.5-6-3.5-2.5.5-2,1.5-1-1.5-1,1-1-1v1.5l3,4.5-4-3-2.04-3.31,1.2-2.89,3.84-3.3,1,.5,1-2,.5.5,1.5-1-1-.5,1.5-1.5-1-2-1.5-.5.5-1h.5Z"/>
      <path data-code="zvenigovskij_rajon" data-title="zvenigovskij rajon" class="cls-1" d="M68.12,56.12l-4.5,8,8.5,5,1.5,1.5-1,.5,5.5,3,.5-1,1,.5,1-1-.5-2,.5-1-.5-.5.5-1,1,.5,7.5-.14.5,1.5-1.5,1.5,3.5,2.5-1,1,1.5,2-1,1.5.5.5-2,.5-1.5,2.5h-1.5l-3.5,6.5-1,1-3-.5-.5-1.5-1.5.5-2,3.5-4-3-.5.5h-.5l-.5,1,1.5.5,1,2-1.5,1.5,1,.5-1.5,1-.5-.5-1,2-1-.5-3.5,3-1-2.5-3.5-2.5-1-3,1.5-1-1-2.5h-1l2-4,1-.5v-2.5l-14-10.5,2.5-4-1.5-1,4-6-4.5-3,3-4.36,2-4.64,15.5,8.64Z"/>
    </g>
</svg>