<svg xmlns="http://www.w3.org/2000/svg" viewBox="0 0 288 221.5">
      <path data-code="NIZ-ARD" d="m36.25,126.9l.5-.5,4,1.5,1.5-2,1,.5.5-2,1,1.5,4.5-.5,1.5,2v-.5l2-.5-3-3.5.5-2.5-1.55-1.05,3.05-4.6v-1h2.5l-.4.7,5.4.3.5.5h-.5l-.5,2.5h7l4,1.5-1,1.65v1.5l-1,1.5,1.5,1-.5,1h-1.5v.5l-1.5.5-3.5-2,1,3-1,.5h1l-.5,1h.5l.5-1,1,.5-1,2-1.5-.5-2,3.5,1.5,1.5-1,5,1,1.5h2l-.5,1h-3l.5,2h-1.5l-2.5-2.5-6,2.5v1l-2.5,1.5-1-3h-4l-.5,1-.5.5-2.5-.5v-2h-1.5l-1,1-1-.5-3-2.5v-1.5l-2-2.15,1-1.35-1-.5.5-1.5,1,.5.5-1.5,1,.5,2-1.5-2-1,2.5-4-.5-.5"/>
      <path data-code="NIZ-ARZ" d="m62.25,124.9l3.5,2,1.5-.5v-.5h1.5l.5-1-1.5-1,1-1.5v-1.5l1-1.65,4.5-2.35,2.5,1,2-2.5h1.5l4.5,4,.5,3,6.5,3.5-1.5,3h2v.5h-1v1l-1,.5,1.1,1.15-2.1-.8-1.5,2.5-.5,2.5h-.5l-1.5,2-2,.5.5,5,1,1-1.5,2.5,2,1,2.5,3.5-3.5,2-1.5-2.85.5-1.5-9,.5-.5,1.5h-3.5l-2,1.85-.5-1-1.5.5-.15.9-1.35-1.4.5-.85,1-.5v-.5l-2-1.5,1-1.5-.5-1,1.5-2-4,1.5-1-3h2l.5-1h-2l-1-1.5,1-5-1.5-1.5,2-3.5,1.5.5,1-2-1-.5-.5,1h-.5l.5-1h-1l1-.5-1-3"/>
      <path data-code="NIZ-BAL" d="m91.75,60.9l1,.5,1.5-2,3,1.5,3.5-1,1.5.5,2-3.5h1.5l1,1.5-.5.5v1l2-1.5v2.5-1h1l.5-1,1,.5-.5,7.5,1.5,4.5-1,3,3,5-1-.5v1.5l-2.5-1-1.5,2.5-5.5-4-6.5-2,.5-3-3-1-4-2.5,2-1,1-2-2.5-2.5,1-3"/>
      <path data-code="NIZ-BOG" d="m84.25,82.75l4.5,2,2.3-.65,2.2,1.3,3.5-.5v3l3,1,3.5,3.5,6.5,1-3,3.5-1.5-.5-.5,1.5.5,1h-2l1.5,1.5v1.5l-1.5,2,1,.5h-1l.5,1-5.5,1.5,1,1.5-.5,2h-.5v2.5l-1.5,1,.5-1-1-1,.5-.5-2-.5-.5.5-.5,2-3.5-1.5-2,1.5-2-.5v.5l-4.5,3.35v-2.85l.5-1-1.5-1,1.5-1.5-1,.5-.5-2h-2l1-1.5h1.5l1-3.65,3-4-1-2,1.5-2.5-2-.5v-.5l.5-.5-1-.5.5-.5.5-4h-2v-2l1.5-1,1,1,2-1-1-1.85-1,.85-.5-2Z"/>
      <path data-code="NIZ-BLB" d="m92.25,188.4l1,.5,1.5-.5,1.5.5.5,2,2,.5,2-2v-4h-1.5l1.5-2,.5.5,4,.5,1.5-2.5,6.5,1-.5-1h4l.5,1.5-1,.5-.5,1.5,2.5,3-.5.5-1.5,3-2.5,1-1,2.5h-1l.5,1.5-1,1.5h-1v1l-1,.5.5.5-2.2,2.25-5-1.5-1.45-1.45-2.4,3.7-.5-1.5,1.9-1.25-.9-.9-1.5,1-1.5-3-1,.5,1-1.5-2-.5-1-2,.5-1-3-2,.5-1.5,1.05-1.35Z"/>
      <path data-code="NIZ-BLM" d="m112.25,126.4h1.5v-.5l1-.5,2.5,1v-1.5l1.5-1.5h1l4.5,4h2l1,2,1-1,2,1-1,2.5-4,2,.5,1-2.5.5-.5,1,2,1h-1v1l-.5,1,.5.5-3,2v1l3,1.5-.5,1-3.5-.5.5,1.5-3,.5,1-1h-1.5l-.5-1h1.5l-1.5-2.5.5-1.5-2-.5-.5-.5.5-.5-1.1.5-3.9-5,1-1.5h-.5l.5-1.5,2.5-.5-2-.5.5-1.5,1-.5-1-1.5.5-1"/>
      <path data-code="NIZ-BUT" d="m97.75,152.9l1.5-.5.5,1,1.5-.5v1l5-2v-1l2-1.5v-1l1.5-1,1,.5.5-1.5,1.5-.5-.5-.5.5-.5v-.5l-2.5.5,3-2,.5-4,1,.5-.5.5.5.5,2,.5-.5,1.5,1.5,2.5h-1.5l.5,1h1.5l-1,1,3-.5-.5-1.5,3.5.5,1.5.5,1,2.5,1-.5-.5-2,1.5-1v1l1,.5v1h-1v2h1.5l-1.5,1,1.5,3-2.5,1-4.5.5v1l-1.5.5,1.5,4.5-2,1,.5,2.5-2,1-3-2.5-.5,1-2,1-.5-1-3.5-.5v-2h-1l-.5-1.5-3,2.5-1-.5v.5l-1,1-1-1-1.5.5v-1l1-1.5-1.5-2-2-.5-.5-2h-1l.5-1,.5-.5.5-1.5"/>
      <path data-code="NIZ-CHK" d="m92.75,43.4l2.5-1v-1l1.5-2,2.5-1.5.5,1.5h3.5l4,2,3-2v2l1.5,1.5-1,2.5.5.5-3,7.5.5,2-1.5,1.5h-3l-2,3.5-1.5-.5-3.5,1-3.35-1.05-4.15-3.95-2.5-.5-.5-1,2.5-1.5,2.5.5,1.5-3,1-1-.5-1-1.5-.5-.5-1.5,1-.5v-2.5"/>
      <path data-code="NIZ-DAL" d="m81.75,116.7l4.5-3.35v-.5l2,.5,2-1.5,3.5,1.5.5-2,.5-.5,2,.5-.5.5,1,1-.5,1,1.5-1v-2.5h.5l.5-2-1-1.5,5.5-1.5-.5-1h1l-1-.5,1.5-2v-1.5h2l-1,1.5,1,.5-.5.5-1.5,2h-.5v2h1l.5,2h1.5v1h-.5l.5.5-.5.5-.5,1,2.5.5.5,1-1,1.5,2-.5,1.5,2.5-1.5,1.5,1,2-1,1,1,1-1,1.5,2,2.5-.5,1-1.5.85.5,2h-1l-.5,1-2-1-2.5.15-2-1,.5,1.5-.5,2.1-11.4-.95-1.1-1.15,1-.5v-1h1v-.5h-2l1.5-3-6.5-3.5-.5-3-3-2.65Z"/>
      <path data-code="NIZ-DEV" d="m34.25,145.9l2-2,1,.5,1-1h1.5v2l2.5.5.5-.5.5-1,2.5-.5,1.5.5,1,3,2.5-1.5v-1l6-2.5,2.5,2.5h1.5l-.5-2h1l1,3,4-1.5-1.5,2,.5,1-1,1.5,2,1.5v.5l-1,.5-.5.85-2.5,1-3-.5v1l-1-1.5-1,.5v2h-5l-1,1-.5,2,1,.5-.5,1-.5-.35h-1v2l-2.5.5-2-2,.5-1.5-2-.5.5-1.5-.5-1-2,3-1.5.5-1-1-.5,1-1.5-.5,2-1-.5-.5,1.5-1,.5-1-2.5-3,1-.5-2.5-1,3-1.5.5-1-3-1-1,1h-1l-1-1.5"/>
      <path data-code="NIZ-GAG" d="m94.75,167.75l1-1.5,3,.5,1,2.65v-2l3.5-.65,1.5-4.35,3-2.5.5,1.5h1v2l3.5.5.5,1,2-1,.5-1,3,2.5-2,1-.5,4.85,3,1.65,1.5,3-.5.5v1l-3.5-.5-.5,1.5-1.5,1h-2l.5,1-1,.5,1,2-6.5-1-1.5,2.5-4-.5-3.5-3.5,1-2.5-5-3v-1l.5-.5-1-1.5,1-2-1-2.5,1.5.35Z"/>
      <path data-code="NIZ-BOR" d="m119.75,64.4l2,.5,1.5-1-.5-.5,1.5-2,1.5,1,1.5-2.5.5-4.5,6.5.5v-1l3-1,1.5,1.35-1,1.5h-1.5v1l2,3.5-3,2v.5h-1.5v2l-1,1,1,1.5-.5,2,1,.5-1,1.5-.5.5v.5l1,.5-2.5,1.5-1.5-.5-1,1,1,1,3-1,.5,1-1,.5,1,2.5,2-.5,3,2.5-1.5,2.5,7,4,1-2.5,3,1.5-1,2,13,9.5,1.5,2.5-1.5,3.5-15-2.85-.5,1,.5,2-2.5,1-1-.5-1,1,1.5.5-3.5,4.5,2,1-1.5,4.5h-.5l.5.5-1,1.5-1-.5v1l-1.5,2-3.5-2.5-3.5-.5-7.5-8.5v-7l-3-3,1.5-3-.5-7.5-3-1.5-1-2.5.5-.5-1.5-.5v-5.5l1-.5v1l-1,.5,1.5,1v-1h3l1.5-2,2.5-1-2-2.5,1.5-1v-1l-2.5-1,1.5-.5-.5-1,1-.5.5-1.5-2.5-1-.5-1.5,1-1Z"/>
      <path data-code="NIZ-DZE" d="m94.25,71.9l3,1-.5,3,6.5,2-1.5,2,3,1.5-1,1.5,4,2-1,2h-1l.5,1-3,1-1.5,2-2-2-3-1v-3l-3.5.5-2.2-1.3,1.2-.35.5-.5-.5-1-2-1.85,4-2.5-2.5-1.5,2.5-4.5"/>
      <path data-code="NIZ-NIZ" d="m101.75,79.9l1.5-2,5.5,4,1.5-2.5,2.5,1v-1.5l1,.5v5l1.5.5-.5.5,1,2.5,3,1.5-.5,3-1.5.5-1.5,2-1.5-1-.5.5.5.5-1.5-1-2,1.5-1,2,3-1,2.5,4-.5,1-5-4,1-2,.5-.5-2-.5,1-1-6.5-1-1.5-1.5,1.5-2,3-1-.5-1h1l1-2-4-2,1-1.5-3-1.5"/>
      <path data-code="NIZ-SHA" d="m226.75,44.25l1-1h4l1.5-1.5.5-.85-2-2.15,4.5,1-1-2,.5-1v2h2.5l1.5-4-1-.5,1.5-4h1.5l-1-.5.5-1.5-.5.5-1.5-.5,1-.5,1-2,2.5,1,1.5-2.35,5,3,1,5h1.5l1.5-1,2,2.5,12,7-4.5,7.5-2.5-2-2,3-5.5-3.5-1,2,.5.5.5,3.5-1,3.5-3,4,2,4h-1l-4,7-3.5-2.65-5.5-2-3.5,1.5h-2l-6.5-4.85,1-3.65h2v-1l3.5-2.5-3-4.5-3-.5,1-1.5,1-.5-1.5-2v-2Z"/>
      <path data-code="NIZ-VYK" d="m.75,116.9l1,.5v-2l3-1,1.5,1,.5-.5v-1.5h2v-3h5l1-2,.5-2,1,2,3.5-3.5,2-.5.5,1.5,3.5-1,.5-1v1l.5-1.5.5-.65,2,2.5-.5.65-2.5,1.5,1,.5-.5,3.5,1,2.5,1.5,1.5v1h-1l-1,5.5h4.5l-1,4,.5,1-1,1,.5,2.5-.5,1.5,1,1,1-1.5h2l2,1-2,1.5-1-.5-.5,1.5-1-.5-.5,1.5,1,.5-1,1.35-12.5-2.5-2,.15-6-1.5-1.5.5-4.7-3.75-.8-2.75.5-1.5,1-1v-1.5l2-2-5.5-.5v-1.5l-1.5-.5.5-2.5"/>
      <path data-code="NIZ-GOR" d="m111.25,45.9h2.5l1-1.5,6,.5,3.5-2,2,.35,2-1.5,1,.5.5-1,2,.65-1,2.5v4l-.5,1v1h-1l1,3h1.5l-1,1.5.8.8-3.8-.3-.5,4.5-1.5,2.5-1.5-1-1.5,2,.5.5-1.5,1-2-.5-1,1,.5,1.5,2.5,1-.5,1.5-1,.5.5,1-1.5.5,2.5,1v1l-1.5,1,2,2.5-2.5,1-1.5,2h-3v1l-1.5-1,1-.5v-1l-1,1-2-2.5-1-2.5,1-3-1.5-4.5.5-7.5-1-.5-.5,1h-1v1-2.5l-2,1.5v-1l.5-.5-1-1.5h1.5l1.5-1.5-.5-2,3-7.5"/>
      <path data-code="NIZ-KNY" d="m123.25,135.4l2.5-.5-.5-1,4-2,3.5,1.5-.5,1,.5,1.5,4-.5v1l1,.5,2.5-1,3,4.5-2,1,1,1.5-1.5,2.5-2-.5v2l-2,1v1l-.5.5,4-1-1,1.5,1,1.5-2-.15-1,3-4.5-2-1.5,1.5-2-.35-1.5-3,1.5-1h-1.5v-2h1v-1l-1-.5v-1l-1.5,1,.5,2-1,.5-1.5-.5.5-2-1.5-.5.5-1-3-1.5v-1l3-2-.5-.5.5-1v-1h1l-2-1,.5-1"/>
      <path data-code="NIZ-KOV" d="m131.25,28.75l4-1.5.5-1,1-1.5,3.5,2.5,3-4,1.5.5.5,2.5h1v-2l2-1,2,2-.5-3-3-3.85,3-2,2,4.5,2,1,1-1,2,2,6.5.5h2.5l1.5-1.5,2,1.5,1,4.35,1.5.5-1.5,2,1.5,2-.5,2-3-3-3,4h-.5l-3,4.65-2-.5.5,2.5-2,2.5v1l-5-4.5-1,1,1.5,2.5h-1.5l-4,2.5v1h1l.5.5-2,2.5h-1.5l-2.5,1.5-.5,1-3-1-1,1.5-2-1v1l-3,1v1l-2.7-.2-.8-.8,1-1.5h-1.5l-1-3h1v-1l.5-1v-4l1-2.5-2-.65,4.5-2.5-2-1.5,1-2-2-.5v-1l.5-1.5-1,1-1.5-1,1-.5.5-1h1.5l-1-2Z"/>
      <path data-code="NIZ-KRAB" d="m168.75,49.75l7.5,1.5,1-1.5,3.5,1.5.5,1.5,5.5-.5,4,1.5v-1l-1-2,1,.5,2-1.5v-.5h1.5l3.55,4.1-1.05,1.9-.5,3.15,3,2.5h2.5l.5,4.5,2,2.85-1,1h3l.5,1-1,2.65h-2l-.5,1.5-1-.15-6.5-5-1,1.5-1-1-2,3.5-3.5-2.5-.5,1-1.5-1.5-2,1-1-1.5-1.5,1-1,1.5-1.5,1-1-1-6.5,1.5-.5-1-1.5,1-1-.5.5-2-3.5-1.5.5-1-.5-2h.5l.5-1.5,2.5-2.5,1.5.5.5-.5-.5-1,1-1.5.5-1.5-4.5-6.5,1-2.5Z"/>
      <path data-code="NIZ-KRAO" d="m112.75,179.4l3.5-1,.5-1.5,3.5.5v-1l.5-.5-1.5-3,4-1.5,1.5.5.5-2,1-1,.5,1,1.5-1v2.5l3.5-2.5h3v1l-.5,1.5h1l-1,1.5h1v2l.5-1.5,1.5-.5,1,2,1-.8,2,3.3-3,3.35-2.5.5-1,2.5-1.5,1-1-1h-2.5v1l-.5.5-1.5-1-4.5,3.5.5.65-1.5,2.5-1.5-1.5v2.5l-2.5-2-1,1.5-1-.5,1.5-2,.5-.5-2.5-3,.5-1.5,1-.5-.5-1.5h-4l-.5-1,1-.5-.5-1"/>
      <path data-code="NIZ-KST" d="m103.25,98.9h2l-.5-1,.5-1.5,1.5.5,2-2.5,2,.5-.5.5-1,2,5,4,.5-1-2.5-4-3,1,1-2,2-1.5,1.5,1-.5-.5.5-.5,1.5,1,1.5-2,1.5-.5.5-3,.5,7.5-1.5,3,3,3v7l7.5,8.5,3.5.5-3.5.5.5,1-1.5.5.5.5-1.5-1,.5,2-1.5,1.5v3.5h-1l-4.5-4h-1l-1.5,1.5v1.5l-2.5-1-1,.5v.5h-1.5l-2-2.5,1-1.5-1-1,1-1-1-2,1.5-1.5-1.5-2.5-2,.5,1-1.5-.5-1-2.5-.5.5-1,.5-.5-.5-.5h.5v-1h-1.5l-.5-2h-1v-2h.5l1.5-2,.5-.5-1-.5,1-1.5h-2l-1.5-1.5"/>
      <path data-code="NIZ-KUL" d="m26.25,107.4l2.5-1.5.5-.65,2.5-1,2,.5,4.5,3.5-.5,1,1.5,1.5-.5,2,3.5,5h4l4,2.65-.5,2.5,3,3.5-2,.5v.5l-1.5-2-4.5.5-1-1.5-.5,2-1-.5-1.5,2-4-1.5-.5.5.5.5-2.5,4h-2l-1,1.5-1-1,.5-1.5-.5-2.5,1-1-.5-1,1-4h-4.5l1-5.5h1v-1l-1.5-1.5-1-2.5.5-3.5-1-.5"/>
      <path data-code="NIZ-LUK" d="m58.75,183.9l2-1,1.5-2h2l3-2-.5-.5,2-4.5,1-.5h-.5l3-1-2-.5,1.5-.5,1-2,3-1,2.5.5,1-.5v-1h1l.5-1-.5,3.5,4,.5-1-2,1-3,1.5.5.5-.5,2.5,1-.5,1,1,1v-1.5l4,.5,1,2.5-1,2,1,1.5-.5.5v1l5,3-1,2.5,3,3-1.5,2h1.5v4l-2,2-2-.5-.5-2-1.5-.5-1.5.5-1-.5-1,1.35h-2l.5-1-1,.5v-2l-1-.5-1,.5h-2l-2,3-2.5-2.5v-1l-1,1-.5-1.5-1.5.5-.5.5.5,1h-1l-2.5-1.5.5.5-2.5,1,1,.5-3.5.5-.5,1,1.5.5.5,1.5h-5v1.5l-4-2.45-2,3.45-4.1-4.25,4.6-5.15-1.5-1.45"/>
      <path data-code="NIZ-LYS" d="m126.25,120.4l1.5,1-.5-.5,1.5-.5-.5-1,3.5-.5,3.5,2.5,1.5-2v-1l1,.5,1-1.5-.5-.5h.5l1.5-4.5-2-1,3.5-4.5-1.5-.5,1-1,1,.5,2.5-1-.5-2,.5-1,15,2.5,1.5,2,3.85,1.25-12.85,17.75,1.5-1,1.5,2h-1l-2.5,1.5-1.5-.5v1.5l3,.5,1.5-2,1,1,2,.5v1.5l1.5,1h-1l.5.5-1,2,1-1v1l-3,1v-1l-1.5-1-1.5,1-1.5-1v2.5l-2.5-1.5-.5,1.5-3.5,1,.5,1-.5.5-.5,2.35,1,1-3,1.65-1-1.5,2-1-3-4.5-2.5,1-1-.5v-1l-4,.5-.5-1.5.5-1-3.5-1.5,1-2.5-2-1-1,1-1-2h-1v-3.5l1.5-1.5-.5-2"/>
      <path data-code="NIZ-NAV" d="m28.75,93.25l1-.5,2,1.5,2-4,1.5,1.5,2.5-2h1.5l2-1.5,3,.5,1,1-1,1.5,1.5,1-1,2.5-1-.5-1,1v.5l2,.5v3l2,.5-.5,3,5,.5-.5,2,1.5.5-2,.5,1,.5,4.25-.7,1.25.7,3,1-1,3.5-2-.5v1.5h-1.5v.5h-.5l-.5,1h-2.5v1l-3.05,4.6-2.45-1.6h-4l-3.5-5,.5-2-1.5-1.5.5-1-4.5-3.5-2-.5-2.5,1-2-2.5-1,2-1-4.5,2-1.5,1.5-5.5"/>
      <path data-code="NIZ-PAV" d="m65.75,77.25l6,1,1.5-.5,3.5,2,1.5-1.5,1.5,2.5,1.5-1,1,1,1.5-1.5,1.85,4.1-1.35-.6.5,2,1-.85,1,1.85-2,1-1-1-1.5,1v2h2l-.5,4-.5.5,1,.5-.5.5v.5l2,.5-1.5,2.5,1,2-.85,1.1-4.15-.1-2,.5-1-1.5,1-1-.5-.5-3.5.5v1l-.5.5-1.5-.5v.5l-1-1-2,.5-1.5-2.5v1.5h-1l.5-.5v-2.5l1-.5v-1l-2.5-1-1,.5-1.5-2.5,1.5-.5-.5-1,1-.5v-1h1.5l.5-1.5-4.5-2,3-4.5-1-.5,1.5-2-.5-.5"/>
      <path data-code="NIZ-PER" d="m102.75,129.4l2,1,2.5-.15,2,1,.5-1h1l-.5-2,1.5-.85,1,1.5-1,.5-.5,1.5,2,.5-2.5.5-.5,1.5h.5l-1,1.5,3.9,5-.4,3-3,2,2.5-.5v.5l-.5.5.5.5-1.5.5-.5,1.5-1-.5-1.5,1v1l-2,1.5v1l-5,2v-1l-1.5.5-.5-1-1.5.5-.5,1.5h-2.65l.65-.65-1-2,2-.5.5-.5-3-.5,1.5-1v-1.5l3.5-3-2-2,2-1,1-6,2.5-.5,1-4.35-.5-1.5"/>
      <path data-code="NIZ-PRM" d="m47.25,161.25l2.5-.35v-2h1l.5.35.5-1-1-.5.5-2,1-1h5v-2l1-.5,1,1.5v-1l3,.5,2.5-1,1.35,1.4-.35,2.6-3,1.5,1,4.5,8.5,6,.5,1.15-1,2-1.5.5,2,.5-3,1h.5l-1,.5-2,4.5.5.5-3,2h-2l-1.5,2-2,1.35h-2.5l-1.5-2.5v-1l3.5-2-3-2-2.5-2.5.5-.5-1.5-.5-2.5-4.5h.5l.5-3-3.5-2.5-.5-.5,1-1.5"/>
      <path data-code="NIZ-PIL" d="m140.75,161.25l1.5-1,1.5,4.5,1.5-1.5.5-1,3,.5,1-2-.5-2.5-1.5-.5.5-1.5,1.5-1,2.5.5-.5-2,3-3h2.5l.5,2,2.5-.5.5,1.5,2.5-.5-.5,1,1.5-2,3.5.5v1l-1.5,1h1l.5,1.5-4-1v3l-1.5,2-2.5-.5-2.5,1.5-1.5-1.5-1,1.5v1l-2,.5-1,1.5,1,1-1,2.5,2.5,1.5v4l-.5.5.5,1.5h-1.5l.5.5v2l2.5,1v-1.5h1v1.5l-.5.5.5.5v1l3,1.5h-1.5l-.5,1.5h1l1,2-1.5,2-5.5-.5-2,1v1h-1l-2-2.5-3,.5-1.5-2-.5-.5,1-.5-.5-2.5-4.5,1.5,1.5-4h1.5l-1.5-3.5-1-1.65,3-2.35-2-.5,1-1h-1v-2.5l-2-1.5,2.5-1.5v-3.5"/>
      <path data-code="NIZ-POC" d="m58.75,193.75l1,1,2-3.5,4,2.5v-1.5h5l-.5-1.5-1.5-.5.5-1,3.5-.5-1-.5,2.5-1-.5-.5,2.5,1.5h1l-.5-1,.5-.5,1.5-.5.5,1.5,1-1v1l2.5,2.5,2-3h2l1-.5,1,.5v2l1-.5-.5,1h2l-.5,1.5,3,2-.5,1,1,2,2,.5-1,1.5,1-.5,1.5,3,1.5-1,1,1-2,1.5-.5,2.5-2,1.5v-3l-1-2-5,2.5-1.5,1.5.5,4.5-2.5.5.5,1h-1.5l-.5,2h-1.5l-.5,1v1h2l.5,1.5-1,.5,2,1-1,.5-.5,2-2.5.5-1-1.5v-1.5l-1,1-1.5-2-2.5.5-1-2.5-1.5-1,.5-1-.5-1.5-4,.5-3.5-1.5v-.5h1l1-2,1,.5-1,1.5,1.5-.5.5-4.5-.5-.5-2.5,2-1,.5-2.5-2-1-1.5.5-.5-1-1,1-3-2.5-2.5-2.5-1,.5-2"/>
      <path data-code="NIZ-ZSA" d="m43.75,154.9l-2,3-2,.45-2,.4-3,5,9,4.5,2.5-4-.75-3.6-.25-1.2.5-1.5-2-.5.5-1.5-.5-1.05Z"/>
      <path data-code="NIZ-SEC" d="m123.25,187.75l4.5-3.5,1.5,1,.5-.5v-1h2.5l1,1,1.5-1,1-2.5,2.5-.5,2.85-3.1.65,1.6h-1.5l-1.5,4,4.5-1.5.5,2.5-1,.5.5.5,1.5,2,3-.5,3,3h-1.5l-1,3.5-1,1-1.5-.5-1.5,2-3-1-3,2.5-1.5-.5-.5,3.5-1,1,1,1.5-2.5,1,.5,1h-.5l-4.5,1-3-3-5-1v-2l2.5-1-.5-.5,2-.5-.5-1.5h1l1-1.5,1,.5,1-1.5v-1l-1.5-.5.5-.5,1-.5-1-2h-4l-.5-1.5"/>
      <path data-code="NIZ-SEM" d="m137.25,52.9l2,1,1-1.5,3,1,.5-1,2.5-1.5h1.5l2-2.5-.5-.5h-1v-1l4-2.5h1.5l-1.5-2.5,1-1,5,4.35v-1l2-2.35-.5-2.5,2,.35,3-4.5h.5l3-4,4,4-2,3.5,1,.5-1,1,2,1.5-3.5,4.5,1,2.5-1,1-1,2.5,4.5,6.5-.5,1.5-1,1.5.5,1-.5.5-1.5-.5-2.5,2.5-.5,1.5h-.5l.5,2-.5,1,3.5,1.5-.5,2,1,.5,1.5-1,.5,1-1.5.5-2,2.5h-1l-5-2-1,1.5v1.5h-1l4,4-2,1.5-.5,1.5-2.5,2-.5,1.5,1,10.5-13-9.5,1-2-3-1.5-1,2.5-7-4,1.5-2.5-3-2.5-2,.5-1-2.5,1-.5-.5-1-3,1-1-1,1-1,1.5.5,1.5-1,.5-.5h.5l-1-.5v-.5l.5-.5,1-1.5-1-.5.5-2-1-1.5,1-1v-2h1.5v-.5l3-2-2-3.5v-1h1.5l1-1.5-1.5-1.35v-1Z"/>
      <path data-code="NIZ-SER" d="m122.25,155.75v-.85l4.5-.5,2.5-1,2,.35,1.5-1.5,4.5,2,1-3,11,.5-6,4,2.5,1,2.5-.5-.5,1.5,1.5.5.5,2.5-1,2-3-.5-.5,1-1.5,1.5-1.5-4.5-1.5,1v3.5l-2.5,1.5,2,1.5v2.5h1l-1,1,2,.5-4,3.15-1-2-1.5.5-.5,1.5v-2h-1l1-1.5h-1l.5-1.5v-1h-3l-3.5,2.5v-2.15l-1.5,1-.5-1-1,.65-.5,2.35-1.5-.5-4,1.15-3-1.65v-2.5l.5-2.35,4-2-.5-2.5,2-1-1.5-4.5,1.5-.65Z"/>
      <path data-code="NIZ-SHAR" d="m207.25,78.75l2-1,1-1-.5-2,1.5,4,4.5,2,2.5-2,3-1-.5-1,1,1,1-.5-.5-1.5,1-.5,1-2,3.5,2.5,3-1,2,1.5,1.5-1-.5,2.5,1.5-.5v2.5l-1,1.5,2.5,1-.5,2-2,2,2,1.5-2,2-2-1-1.5.5-.5,2.5,1,1-1.5-.5-1,1.5,1,2-1.5,1.5h-2l-1,2,1,1-.5.5-2,.5-2-1.5-1,1.5-1.5-.5-1.5.5-1.5-1.5-1,1-1-.5,1-1.5v-.5l-5.5-3.5-2.5,3-.5-1.5-7-1,5.5-7.5-.5-.5,3-4-1.5-1,2.5-2.5-1.5-1"/>
      <path data-code="NIZ-SHAT" d="m62.75,157.75l3-1.5.5-3.5,1.5-.5.5,1,2-1.85h3.5l.5-1.5,9-.5-.5,1.5,1.5,2.85h4l-1,.5,3.5-.5,2,3.5,1-2,.85-.85h2.65l-.5.5-.5,1h1l.45,1.9,2,.5,1.55,2.1-1,1.5v1l1.5-.5,1,1,1-1v-.5l1,.5-1.5,4.35-3.5.65v2l-1-2.65-3-.5-1,1.5-1.5-.35-4-.5v1.5l-1-1,.5-1-2.5-1-.5.5-1.5-.5-1,3,1,2-4-.5.5-3.5-.5,1h-1v1l-1,.5-2.5-.5-3,1-.5-1.15-8.5-6-1-4.5"/>
      <path data-code="NIZ-SOK" d="m118.25,22.25l3-3,4.5-2,2.5-2.5,7-3.5v-1.5l2.5-3,10-3.5,1,1-2,1.5,3,3.5-1,3.5,1,4-3,1.65,3,3.85.5,3-1,.5v-1.5l-1-1-2,1v2h-1l-.5-2.5-1.5-.5-2.5,3.5-.5.5-3.5-2.5-1,1.5-.5,1-4,1.5,1,2h-1.5l-.5,1-1,.5,1.5,1,1-1-.5,1.5v1l2,.5-1,2,2,1.5-1,1.5-3.5,1-.5,1-1-.5-2,1.5h-2l-3.5,1.65-6-.5-1,1.5-1-.15,3-11,.5-7,2-5.5"/>
      <path data-code="NIZ-SOS" d="m61.75,97.75l1.5,3,2.5-4,1.5.5v1l-.5.5h1v-1.5l1.5,2.5,2-.5,1,1v-.5l1.5.5.5-.5v-1l3.5-.5.5.5-1,1,1,1.5,2-.5,4.15.1-2.15,2.9-1,3.65h-1.5l-1,1.5h2l.5,2,1-.5-1.5,1.5,1.5,1-.5,1v2.85l-1.5-1.35h-1.5l-2,2.5-2.5-1-4.5,2.35-4-1.5h-7l.5-2.5h.5l-.5-.5-5.4-.3.9-1.7h.5v-.5h1.5v-1.5l2,.5,1-3.5-3-1,2-1.5-1-1,1-2,2.5-1.5"/>
      <path data-code="NIZ-SPA" d="m138.75,146.9v-2l2,.5,1.5-2.5,3-1.65-1-1,.5-2.35.5-.5-.5-1,3.5-1.15.5-1.5,5,3v1l-.5.5.5,1.5h1l2,5h1.5l1,2-1,1,2.5,1-3.5,2h-2.5l-3,3,.5,2-6.5,1-2.5-1,6-4-9-.35-1-1.5,1-1.5-4,1,.5-.5v-1l2-1Z"/>
      <path data-code="NIZ-TONK" d="m203.75,72.9h2l1-2.65-.5-1,1.5-1.5,2,.5.5-1.5,1.5,1,.5-1.5,4.5.5.5-.5-1-.5h4.5l.5-1,2,1.5,2.5-4,6.5,5h2l3.5-1.5,4.5,1.5,1,.5-1,3.5,1,1.5-1,.5-1-.5-1,1-.5-1-2.5.5v2l1.5-1,1.5.5-1,1.5-5.5,1.5.5-2.5-1.5,1-2-1.5-3,1-3.5-2.5-1,2-1,.5.5,1.5-1,.5-1-1,.5,1-3,1-2.5,2-4.5-2-1.5-4-6.5-.35.5-1.5Z"/>
      <path data-code="NIZ-TON" d="m252.75,47.9l1-2,5.5,3.5,2-3,2.5,1.85,3.95-6.55,13.05,8.05-1,1.5,7.5,6.5.5,2-.5,1.5v2h-4.5l-1-1v1l-4,2,1,1-1.5,3-4,2-.5,2.5-2,1-.5,1.5h-.5l-.5,1.5-1-.5-2.5,3.5-3-2,1-2.5-2-.5-1-1.5-6,1-4-1-2.5-2-.5-1.5-1-.5,4-6.85h1l-2-4,3-4,1-3.5-.5-3.5-.5-.5Z"/>
      <path data-code="NIZ-URE" d="m198.75,44.75l3.55-4.55.95.55,2.5-3.5h2.5l2.5,2.5,1-.5,1,1,1.5-1,1.5,1,.5-.5.5,1,.5-1,1,1v-2.5l1-1v1l1,1h.5v-2.5h1.5l.5.5-.5,1.5h1v-1l1.5,1.5.5,4.5,1.5.5v2l1.5,2-1,.5-1,1.5,3,.5,3,4.5-3.5,2.5v1h-2l-1,3.5-2.5,4-2-1.5-.5,1h-4.5l1,.5-.5.5-4.5-.5-.5,1.5-1.5-1-.5,1.5-2-.5-1.5,1.5h-3l1-1-2-2.5-1-4.5h-2l-3-3,.5-3,2.5-4.5-.5-6"/>
      <path data-code="NIZ-VAC" d="m44.75,88.25l1.5,1,1.5-2,4.5-1,2-2,2-2,1.5.5-1,1.5v.5h3.5l1.5-1.5,5.5,3.5-.5,1.5h-1.5v1l-1,.5.5,1-1.5.5,1.5,2.5,1-.5,2.5,1v1l-1,.5v1.5l-1.5-.5-2.5,4-1.5-3-.5,3-2.5,1.5-1,2,1,1-2,1.5-1.25-.7-4.25.7-1-.5,2-.5-1.5-.5.5-2-5-.5.5-3-2-.5v-3l-2-.5v-.5l1-1,1,.5,1-2.5-1.5-1,1-1.5-.5-1.5"/>
      <path data-code="NIZ-VAD" d="m83.25,138.75l2-.5,1.5-2h.5l.5-2.5,1.5-2.5,2.1.8,11.4.95-.5,2.3-2.5.5-1,6-2,1,2,2-3.5,3v1.5l-1.5,1,3,.5-.5.5-2,.5,1,2-1.5,1.5-1,2-2-3.5-3.5.5,1-.5h-4l3.5-2-2.5-3.5-2-1,1.5-2.5-1-1-.5-5.05"/>
      <path data-code="NIZ-VAR" d="m169.25,23.75l6-1,.5-.5,2.5-1,1.5-2.5,4-1,3.5,2.5h2.5l1.5-2.5,3.5-1.5,2-1.5,4,3-2.5,5,2.5,1.5-.5,1,.5,2,1.5,3.5h-2l1,2-1-1-1.5.5.5.5-2,2,4.5,2,.5,2-1.5.5,1.55.95-3.55,4.55.5,6-1.45,2.6-3.55-4.1h-1.5v.5l-2,1.5-1-.5,1,2v1l-4-1.5-5.5.5-.5-1.5-3.5-1.5-1,1.5-7.5-1.5,1-1-1-2.5,3.5-4.5-2-1.5,1-1-1-.5,2-3.5-1-1,.5-2-1.5-2,1.5-2-1.5-.5-1-4"/>
      <path data-code="NIZ-VET" d="m199.75,5.75h1.5l1-3,2-.5,1-1.5,1-.5,4,2.5,1-1,6,4-1.5,2.5,2.5,1-1,1.5,6.5,4-2,3,.5,2-.5.5,1.5,1-.5,2,2,.5,4-1,.5-.5-.5-1.5,1,.5v-1.5h1v-1l1.5,1.5,2.5-1,1.5,1.5,1-.5,7.5,4.5-1,2-2.5-1-1,2-1,.5,1.5.5.5-.5-.5,1.5,1,.5h-1.5l-1.5,4,1,.5-1.5,4h-2.5v-2l-.5,1,1,2-4.5-1,2,2-.5,1-1.5,1.5h-4l-1,1-1.5-.5-.5-4.5-1.5-1.5v1h-1l.5-1.5-.5-.5h-1.5v2.5h-.5l-1-1v-1l-1,1v2.5l-1-1-.5,1-.5-1-.5.5-1.5-1-1.5,1-1-1-1,.5-2.5-2.5h-2.5l-2.5,3.5-2.5-1.5,1.5-.5-.5-2-4.5-2,2-2-.5-.5,1.5-.5,1,1-1-2h2l-1.5-3.5-.5-2,.5-1-2.5-1.5,2.5-5-4-3,3-2.5v-6.5"/>
      <path data-code="NIZ-VOL" d="m76.25,56.75h.5l.5-1,2,.5.5-.5-1-1,1-.5,7.5,4.5.6-3.25,1.9.4,4.15,3.95-1.2,1.95-1-.5-1,2.65,2.5,2.5-1,2-2,1,4,2.5-2.5,4.5,2.5,1.5-4,2.5,2,1.85.5,1-.5.5-3.5,1-3.15-1.4-1.85-4.1-1.5,1.5-1-1-1.5,1-2-3,.5-1.5-1.5-.5h1v-1l-.5-.5v1l-1,.5-2-1-.5-1.5h1.5l-2.5-.5v-1h1.5l.5-3.5,2.5-.5v-1.5l1-1.5-.5-3.5-1.45-4.55"/>
      <path data-code="NIZ-VOR" d="m151.75,127.9l2.5-1.5h1l-1.5-2-1.5,1,13-18.15,5,2,2.5,3.5,2,1v1l-1.5,2,5,1,2,1.5v1.5l-2.5,1.5-1,4-1.5-.5-2.5,3.5-1.5-1,.5,1.5-1,1,1,1-1,4h2l.5,1.5h2l-1,1,.5,1-2.5.5-1.5,3,1.5,1-2,1.5,2.5.5-1.5,2,1-1,1,1-2,1.5-4.5,1.5.1,1.85-2.6-.35-1.5,2,.5-1-2.5.5-.5-1.5-2.5.5-.5-2,3.5-2-2.5-1,1-1-1-2h-1.5l-2-5h-1l-.5-1.5.5-.5v-1l-2.5-1.5v-2.35l1.5,1,1.5-1,1.5,1v1l3-1v-1l-1,1,1-2-.5-.5h1l-1.5-1v-1.15l-2-.5-1-1-1.5,1.65-3-.5v-1.5l1.5.5Z"/>
      <path data-code="NIZ-VOS" d="m160.25,77.75h1v-1.5l1-1.5,5,2h1l1-1.5,1-1,1.5-.5,6.5-1.5,1,1,1.5-1h-.5l-.5-1.5,1-1,1,1,1.5-1,1,1.5,2-1,1.5,1.5.5-1,3.5,2.5,2-3.5,1,1,1-1.5,6.5,5,7.5.5.5,2-1,1-2,1,1.5,1-2.5,2.5,1.5,1-3,4,.5.5-5.5,7.5-4.5-2-6,7.5-1-1.5v1l-1.5,1.5h2l-1.5,1,1,1v2l-2.5-1-.5,1.5-4.5-2.5-1,1-2-2-3,2.5-.5,1,.5,1-1,1h-1l-.7,3.9-1.8-2.9-9-2.85-1.5-2,1.5-3.15-1.5-2.5-1-10.5.5-1.5,2.5-2,.5-1.5,2-1.5-4-4"/>
      <path data-code="NIZ-VOZ" d="m9.75,147.75l1.5-1,1-1.5-.5-.5,4-1.5.5-4.5,2.5-.5.5-1-.5-2,12.5,2.5,2,2v1.65l3,2.5-2,2,1,1.5h1l1-1,3,1-.5,1-3,1.5,2.5,1-1,.5,2.5,3-.5,1-1.5,1,.85.75-1.35,1.1-2-1-2.5,2-1,2-3.5,2-3-4-3.5,1-1.5-2-1,.5-1-.5,1-.5-.5-2-1-.5,1-1.5v-.5h-5l-1.5-3v-3l-4,1.5.5-1"/>
</svg>