<svg xmlns="http://www.w3.org/2000/svg" viewBox="0 0 225.5 145.85">
      <path data-code="NGR-BAT" d="m47.75,15.75l2,1.5,1-1.5,2.5.5-.5-1.5,1-.5,2.5.5v-3l1.5-4h2l-1-1.5,1-1h3v-2l1,.5,1-1.5,2,1v1l1-.5-.5,1,2,1-.5,1,2.5-.5v2l-1,1v1.5l5,2.5v1.5h3.5l-.5,2,1.5-.5,1-1.5,3-2.5-.5-2,1-1,2.5.5v1.9l-2.5,3,.5,1.5-2,2.5.5,1,2-1.5,2,1.5-3.5,2.5,3-1,.5,1-1,.5h1.5l-.5,2-5.5,2-2-1.5-3,2.5-2-1-.5,1.5-2,1-4,.5-4.5-1,.5-1v-.5h-7l-1.5-.5.5-1-4-1-1-3.5-2.5-2h-1v-1l-2-1.5.5-.35,1.5-.55Z"/>
      <path data-code="NGR-BOR" d="m146.25,83.25l11.5-1,1,3,2.5,1,1-.5,2.5-5,4,.5-1,1.5-2,.5,3,9,2.5-.5,1.5,2.5-.5,1.5,2.5,4-.5,1-2,1,1,.5-1,1-1.5-.5-2,1-4,6.5,3.5,3-5.5,3.5,2.5,9-1,.5-2,2v-.5l-.5,1,3,3-1,1v1l-1.5.5v1l-2.5,3-2.5-1,.5-3.5h-2l-.5-1.5v-1.5h.5v-1l-1.5-.5-.5-3h-1.5l-.5-2.5-1.5-1.5v-2h-1.5v-1.5h-4l.5-2.5h-1.5l-.5,1.5h-2l-4.5-1.5.5-2-1.5-1.15,1-10-1-1,2-2,4-6.5v-2l2.5,1.5,2-3.5v-2.5l-1-3,.5-1,.5.15Z"/>
      <path data-code="NGR-CHU" d="m110.25,14.75l1-1-.5-.5h5.5l1-1.5,1-.5,1.5-1.5h-.5l2.5-1.5v-.5l.5,1.5,2.5-1,1.5-3.5.5-.5,1,.5v-2l2.5-2.5,2,1,1.5,2.5.5,1.5-1-.5v1l1,.5-1.5.5v.5l1.5,1.5,1.5-.5-.5-1.5h1l3,1v-1l.5,1,2.5-1.5,2-.5v1l-1.5.5,3,4.5-.5.5-.5,4.5,2.5-1-1,1-2,.5v.5h2.5l.5-1.5v1.5l-3.5,1v1l2,.5v1l-.5.5.5,1-1-1v2h-1.5v1l-1,.5.5,3,2.5,4-.5.5-1-1.5-1.5-.5.5,3.5-2-.5-1-3.5-5.5.5-2.5-2-2,1-.5-2-4,1v-1.5l-7,1.5,1,5-7.5,2.35-2.5-5.5-4.5-4.5-1-9.5,2.3-3.25,4.2,1.4Z"/>
      <path data-code="NGR-DEM" d="m69.4,98.15l.35,3.4,5-1,9-13,3.5-.5v-2.5l1.5-1,.95-2.4,5.05,4.55-3,5.5,4,1-4,5.35,6.5,1v2.5l-8,4.5-.5,3.15,1.5,6.85,7,4-1.5,3.65v1.35l6.2,7.65-1.2-.5-1,1-.5,2-1,1-.5-.5-.5,1-1,1-2.7-.25-2.3,2.75.5,1.5-2,2h-1l-1.5-2v-.5l1.5-1-1-1.5-1.5-1.5-1,1.5h-1l-1-2.5-1-.5v-1.5l-1,.5-3-3.5-1.5.5-2-.5-1,1-1-.5-1.1.45.6-1.45-.5-.5,1-1.5h1l-2.5-2.5,1.5-1.5-2.5-1.5.5-2-1.5-2,.5-2.5-.5.5-2-1.5-.5-5-2,5-2-2-.5,1-1-1.5-2,.5-2-1.5,1.5-1,3.5-7.65,4-4.5,2.15-.4Z"/>
      <path data-code="NGR-KHO" d="m7.25,97.75l7-2.15,6.5,2,2.5,1.5h1.5l.5-1.5h-.5l1.5-.5.5,1.5-1,4.5,1,.5-.5,1.5-.5-.5v2l6,5.5-1,1,2,1.5.5,2h1l1-1.5.5,1.5,2.5,1h.5l2,2.15-4.5,5.5,1,1h.5v-1l2.5.5-1.5,1.5h1.5l-1,.5-1,1.5-3-1v-1.5l-1,1-4,.5-2,1v2.5l-1-1.5-3.5-.5-2,1-2.5-2.5-1.5,1.5h-1.5l-.5-3-.5-.5,1-.5-.5-.5-6.5-3.5-.5-2.5,1-2h-2.5l-2-1.5-3,.5-.5-.5,1.5-1-3-1.5v-4h.5v-1l7-7.5-.5-3"/>
      <path data-code="NGR-KHV" d="m163.75,79.25l3.5-.5v-.5l3,1-.5-5.5,3-4.5,1.5-.5,1.5,2.5,5.5-1.5,2.5-4.5h1l.5,2,1.5-3,1.5,3,1-.5.5-1,2,.5.5,1.5,2-1.5.5.5v2l1.5,1v-.5l1.5-.5-.5,5,1-.5,1,5,3,1.5,1,3-1,1,3.5,5-1,.5-.5,1h-1.5l-.5,1.5,2,3-1,.5v.5l2.5,2-1,1-1-.5,5.5,2-1,1.5v.5l-3,1-3,3.5,3,1.5v1l-1.5,1,1.5,2-2.5.85-.5,1.5,1-.5,1,3-3-2-4,1.05v-2.95l-8-5.5-1.5,1-.5-.5,1-2v-4l-2-1.5-4-1-6-4.5-1,.5.5-1.5h-3l-1.5-2.5-2.5.5-3-9,2-.5,1-1.5-4-.5-1-1.45"/>
      <path data-code="NGR-KRE" d="m89.25,64.1l7.5-3,2-2.5,6.5-.5,1.5-2,7,5.65-1,4,5,3.35-.5,1,5.5,7,.5,2.15-2,1-1,.85.5,2.65-2,6.5,2,3.5-1.5,4.5-2-.5-1.5-2-6.5,1.5-1-1-3.5,3.5-9-7.5-4-1,3-5.5-5.05-4.55,2.55-6.6-3-3-2.5.5-4.5-5-.5-1.5,7.5-1.5Z"/>
      <path data-code="NGR-LYU" d="m143.75,40.75l3.5-3.5,1,.5,2-1,1.5,1,1-1.5h1.5v-1l1.5-.5v-2l2-2,6-1.5,2,1.5,3-1.5,1-1.5,1.5.5,1,1.5-1.5,2.5,1.5.5v1.5l1-.5,1.5,3-1.5,3,1.5,1.5.5.5,3.5-4,7,6-2.5,3,1,1-.5,1,1.5,3.5v2l-1,1,.5,1-1.5.5-.5,1,3,1.5,2-1-1.5,2,.5,4-1.5,3-.5-2h-1l-2.5,4.5-3,1-2.5.5-1.5-2.5-1.5.5-3,4.5.5,5.5-3-1v.5l-3.5.5,1,1.5-2.5,5-1,.5-2.5-1-1-3-11.5,1-.5-.15-1.5-12.35v-3.65l-1.5-1.85-2,.5,3.5-4,3.5-3,3.5-5.5-2.5-2,1.5-2.5-5.5-4.5.5-2.5-1.5-1"/>
      <path data-code="NGR-MAL" d="m118.25,28.75l7-1.5v1.5l4-1,.5,2,2-1,2.5,2,5.5-.5,1,3.5,6.5,1.5-1.5.5,1.5,1.5-3.5,3.5,1.5,1-.5,2.5,5.5,4.5-1.5,2.5,2.5,2-3.5,5.5-3.5,3-3.5,4v1l-11,2-8.5-2.5-3,3.5-5.5-4,1-4-7-5.65,5-4-2-2.5,6.5-7.5-2.1-6.75,5.1-1.6-1-5"/>
      <path data-code="NGR-MAR" d="m41.25,116.1l4-5.5,2.5-1,1,.5,1-1-.5-1.5,3-.5.5,2.5,5.5,2.15,2,1.5,2-.5,1,1.5.5-1,2,2,2-5,.5,5,2,1.5.5-.5-.5,2.5,1.5,2-.5,2,2.5,1.5-1,1-.5.5,2.5,2.5h-1l-1,1.5,1,1-.5-.5-1,2.5-1.5-.5v1l-1.5,1h-1.5l-1-2.5v1l-4,1-3.5-1-2,1.5-1.5-1,.5-2.5-1.5-.5-1,.5v1l-1,1h-3l-1.5-2h-1l-1,.5-2-.5-2,1.5-3-1-.5,1-1-1.5,2-1-1.5-.5,1-1.5,1-.5h-1.5l1.5-1.5-2.5-.5v1h-.5l-1-1,4.5-5.5-2-2.15,2.5-1.5Z"/>
      <path data-code="NGR-MOS" d="m172.75,94.25h3l-.5,1.5,1-.5,6,4.5,4,1,2,1.5v4l-1,2,.5.5,1.5-1,8,5.5v2.95l-1.5.55-1,3-3.5,4-.5,2h-1v2h-1.5l2,5.5-3-.5v2l-3,2-1.5,2.5-4.5-.5-2,1-1-1-1.5.5-.5-3-4-3-.5-2.5-5,.5-2-2.5.5-1v.5l2-2,1-.5-2.5-9,5.5-3.5-3.5-3,4-6.5,2-1,1.5.5,1-1-1-.5,2-1,.5-1-2.5-4,.5-1.5"/>
      <path data-code="NGR-NOV" d="m83.25,37.6v1l-.5.5v1l-.5.5,1,.5.5.5-1,1h.5l1-1,.5.5.5-1,1.5.5,1.5-3.5,4,.5,1.5-1.5h-.5l.5-2-1.5.5-.5,1.5.5,1-4-1-.5-1,2.5-2-.5-1.5-2-.5-2,5-2.5.5m-18-5h3v-3l4-.5,2-1,.5-1.5,2,1,3-2.5,2,1.5,5.5-2,.5-2h-1.5l1-.5-.5-1-3,1,3.5-2.5-2-1.5-2,1.5-.5-1,2-2.5-.5-1.5,2.5-3v-1.5l1-.5,1,1,6.5-.5,1.5-1v-1h2.5l.5-3,4-.5v1l1.5-1,1.5,3-1,.5.5,1.5-1,3,1,.5-2.5,3.5,1,9.5,4.5,4.5,2.5,5.5,2.4-.75,2.1,6.75-6.5,7.5,2,2.5-5,4-1.5,2-6.5.5-2,2.5-7.5,3-7.5,1.5-.5-4.5-16-15-.5-2.5-2.5.5-.5-1v-1.5l-1.5-1.5,2.5-3,2,1,3.5-4-3-1.5"/>
      <path data-code="NGR-OKU" d="m117.75,69.1l3.5-3,8.5,2.5,10.5-2,.5-1.5h2l1.5,2,1.5,16-.5,1,1,3v2.5l-2,3.5-2.5-1.5v2l-4,6.5-2,2,1,1-1,10-.5-1-1,.5-2.5.5-1,1-1-2-.5.5v1l-4,1,2-4.5-4-5-4-7.5,1.5-4-2.5-3.5,2.5-6.5-.5-2.5,1-1,2-1-.5-2-5.5-7,.5-1"/>
      <path data-code="NGR-PAR" d="m68.75,71.1l4-1.5.5-2,2-2,2,1,2.5-2h2l.5,2.5,4.5,5,2.5-.5,3,3-3.5,9-1.5,1v2.5l-3.5.5-9,13-5,1-1.5-15-4.5-5,.5-3,2.5-.5,1-1-.5-3,1.5-1.5v-1.5"/>
      <path data-code="NGR-PES" d="m195.75,116.6l5.5-1.5,3,2-1-3-1,.5.5-1.5,1.5-.5,1.5-1.5,3.5-.5v-1l4,1.5v2l2,.5-1,2.5,4.5,2.5.5-1.5,1,1,1,3-2-2-1.5,2-.5,2.5,5,4v.5l-2-1,.5,2h1.5l-2,2.5,1.5-1.5v1l1-1,1,2,1.5-.5-2,3.5-.5,3h-1l1.5,1.5v2l-.5,1-2.5,1-.5,1-.5-1v1l-1,1-3.5-1.5v.5l-2.5-.5-.5,1-2-2-2,1,1,.5-1,1-.5-1.5-2.5-.5.5-1-2-1.5,1.5-1-2,.5-1.5-3.5-4-2-1.5.5-1-.5-.5,1-4-2.5-2-6,1.5-.5v-1.5h1v-2l4-4.5,1-2.5"/>
      <path data-code="NGR-POD" d="m11.25,80.6l1,.5,1-1.5,2-.5.5-1,3.5-.5-1.5-1,.5-1.5,4,.5,7.5-2,1.5-1,10-.5,6.5,7.5-.5,5.5,1.5,2.5,1,4.5-1,1-2,9.5,1,1.5-3,2.5-.5,3-1,.5,2,.5-4,5.5-2.5,1.5h-.5l-2.5-1-.5-1.5-1,1.5h-1l-.5-2-2-1.5,1-1-6-5.5v-2l.5.5.5-1.5-1-.5,1-4.5-.5-1.5-1.5.5h.5l-.5,1.5h-1.5l-2.5-1.5-6.5-2-4-7v-4l2-1,2,.5v-.5l-2-2-.5,2h-1l-.5-1,1-2"/>
      <path data-code="NGR-SHI" d="m28.75,17.1l6,4,.5-.5h2v-1l1.5.5,2-1.5,1.5-.5-.5-1.5,1-.5.5-2h2l-1-1,1-.5.5,1.5,1-.5v1h-.5l1,1-1.5,1,2,1.5v1h1l2.5,2,1,3.5,4,1-.5,1,1.5.5h7v.5l-.5,1,4.5,1v3h-3l3,1.5-3.5,4-2-1-2.5,3,1.5,1.5.5,2.5,2.5-.5.5,2.5,2.5,2-5,4-10,2.5-10-6-.5-1.5,2-2,4.5-2.5v-1.5l-4-8h-2l-3.5-5.5-4.5-2h-3l-1-1.5-2-.5-1-1.5,1-1.5-1-1,1.5-.5-.5-2"/>
      <path data-code="NGR-SOL" d="m22.25,25.1l2.5-.5,1-2,2-.5,1,1.5,2,.5,1,1.5h3l4.5,2,3.5,5.5h2l4,8v1.5l-4.5,2.5-2,2,.5,1.5-3.5,2.5,2.5,6-3.5,1-5-2.5-.5-4.5-3.5-.5-1-1.5-1-1.5,1.5-.5-1.5-3,.5-.5-.5-.5-5-3,.5-.5-1-1,1.5-.5,1-1.5,1,1h1.5l.5-1,1.5.5.5-.5-2.5-2,.5-1.5-1-1.5v-2l-2-2h-2v-2.5"/>
      <path data-code="NGR-STA" d="m52.75,54.6l10-2.5,5-4,13.5,13,.5,3.5h-2l-2.5,2-2-1-2,2-.5,2-4,2.5v.5l-1.5,1.5.5,3-1,1-2.5.5-.5,3,4.5,5,1.15,11.6-2.15.4-4,4.5-3.5,7.65-1.5,1-5.5-2.15-.5-2.5-3,.5.5,1.5-1,1-1-.5-2.5,1-2-.5,1-.5.5-3,3-2.5-1-1.5,2-9.5,1-1-1-4.5-1.5-2.5.5-5.5-6.5-7.5,7-8,5-3.5,2-2-2.5-4"/>
      <path data-code="NGR-VAL" d="m95.75,91.6l9,8,3.5-3.5,1,1,6.5-2,1.5,2.5h2l4,7.5,4,5-2,4.5.5,1-.5.5v1l2,.5-1.5,2,2,1.5-.5.5-1,.5v1l-1-.5-2.5,4-2,.5-1-1h-2.5l.5,1h-1.5l-1,2.5h-1l-1,1.5v3l-2.5-.5v-1.5h-1.5l-.5,1.5-1,.5-.5-2-4,.5-6.5-8v-1.5l1.5-3.5-7-4-1.5-7,.5-3,8-4.5v-2.5l-6.5-1,4-6"/>
      <path data-code="NGR-VNG" d="m83.25,37.6l2.5-.5,2-5,2,.5.5,1.5-2.5,2,.5,1,4,1-.5-1,.5-1.5,1.5-.5-.5,2h.5l-1.5,1.5-4-.5-1.5,3.5-1.5-.5-.5,1-.5-.5-1,1h-.5l1-1-.5-.5-1-.5.5-.5v-1l.5-.5v-1"/>
      <path data-code="NGR-COL" d="m28.75,60.1l1.5-.5,2,1.5,3.5-2.5.5-1.5,2,1,3.5-1-2.5-6,3.5-2.5,10,6,2.5,4-2,2-5,3.5-7,8-10,.5-1.5,1-4.5-4v-3.5l3-1-.5-.5,1.5-.5,1-1.5-1.5-2.5"/>
</svg>