<svg xmlns="http://www.w3.org/2000/svg" viewBox="0 0 360.91 299.35">
      <path data-code="NVS-BAG" d="m48.66,247.25l3-2.5v-3l2.5-2.5-1.5-7,3.5-.5,4-3.5,4,.5.5-3.5h1v-1.5l-2.5-.5v-1.5l.5-2.5,2.5,1,.5-3,14,2v-.5h1l.5,2,2-.5.5,2,2-.5v-1l6,.5,1.5-3,1,.5v2h1.5l.5-1.5-.5-2,.5-2h4l1.5,1.5,2,5-3,2.5v2h-.5l2.5,4-1,3-3.5-2.5-2.5,3,4,2.5v1l-6-1-.5,5.5h-1.5l.5,1-7.5-.5v3l-4,1.5.5,1v3l-1.5,1-2.5-5h-3l-.5,2-7.5-.5-.5,4.5-2.5-.5-3,1-.5-3-8,2.5-4-5.5"/>
      <path data-code="NVS-BAR" d="m81.16,152.75l2-2.5,8-.5,1.5-1v-1l-.5-1-2.5-.5,1-1.5h-1v-1.5h1l-.5-2.5,8.5,1,11.5,4,4.5-.5v-1l3.5-1.5v-1.5h1l2.5,2,7-1,1.5,1.5.5,3v1.5l8.5,1.5-1.5,3,1,4.5-.5,2.5-1.5,1.5.5,3.5,1.5,5-1,1.5v2.5l-5-.5-1.5-3-1,.5-16,6.5-1.5,3-5,1v-1l-9.5,3.5v1l-2,.5-.5,1.5.5,3-1.5,1-2-3-3.5,1.5-2.5-.5,1.5-1-4.5-4,2-10-4-.5.5-7,.5-1-1.5-1v-11.5"/>
      <path data-code="NVS-BER" d="m287.16,213.25v.5h.5l-.5-.5m-3.5,0l1.5-2,1.5-.5,3,2.5-1.5.5-.5,1,1.5.5-1,1-1-1v3l-1.5-.5-2.5,2v-1l1-.5-1-1,.5-4"/>
      <path data-code="NVS-BOL" d="m311.66,158.25l2-1.5v-4l2.5-4-1-1,1,.5.5-1.5.5,1-.5-1.5,1-1,1,.5,1-1-1-1,.5-1.5h1.5l2-4.5h1.5v-1.5h1l.5-1.5,3-3v-1l4.5.5,5-2.5,4,6,4.5-4,1.5,2h2.5l.5,1.5-1.5,1v2.5l-2-.5,2,2-.5.5-3,1.5v1.5h2.5l-.5,1.5,1.5,2-1,2,2,.5v2h-3v3h1v1.5h1v1l1-.5,3,2.5-.5,1h-1l2.5,1,.5,8h-2l-.5,1,1,3-1,1-2.5-2-2.5-.5-2,.5-.5-2.5-2.5,2.5-4.5-.5-2,2-2.5-2.5-2,.5-1,1v2.5h-2.5l-2.5-1,.5-2,1-.5-2-5h-1l1-2.5-.5-1.5-4.5,2.5-1-1.5-2,.5-3.5-4-1.5.5-.5-1.5"/>
      <path data-code="NVS-CHA" d="m39.66,130.25l1-2.5,2-1h4l2-1.5,1-3-.5-1,4-.5.5,1.5,2.5-1v3.5h.5l4.5-1v-1.5l4-2,2-.5-.5,2,2-.5.5.5v1.5l.5-.5,3.5.5,3.5-1.5-.5-2,5.5.5.5,1.5,5,1.5-1,4,4,1.5,2,2-2,2.5h1.5l-.5,1.5,1-.5,1.5,1v-.5l2.5,2v1l2.5-.5,1.5,4-.5,1-9.5-1.5.5,2.5h-1v1.5h1l-1,1.5,2.5.5.5,1v1l-1.5,1-8,.5-2,2.5v11.5l1.5,1-.5,1-.5,9-11,6-11.5-13.5v-5l-2-.5,1-4-10.5-.5.5-3.5-3-2,1-1.5-5-3.5.5-5,4-1.5-1-2.5.5-2.5-2-3,.5-1-4-1.5"/>
      <path data-code="NVS-CHE" d="m264.66,247.75l2.5-3,1,3,2.5-.5-.5-2,5.5-3,1.5,4.5,4-2,1,.5,2.5-1.5-2-3.5,2.5-2,5,5.5,2-3,2.5-2,2,2.5.5-1.5,2.5-2v-2l1.5-.5,1,2,5,3.5,3.5,10,3.5,2.5.5,3-.5,2.5h1.5l-.5,1.5-4,.5-1,1.5-2-.5-4,1.5-6.5-1.5-1,2h-1.5l-1,.5v6l-1.5.5v1.5l-4,.5v-10.5l-1.5,2h-2l-1-1.5-1,1-3.5,3,.5.5-2,2-1.5-3-4.5-.5-.5-2-4.5.5-1-6.5.5-1.5-2.5-1.5.5-7"/>
      <path data-code="NVS-CHI" d="m6.66,196.25l3-14.5,4,1.5,2-4,1-.5v-4l-1-.5.5-1.5-2-1v-2l4-1v-.5l11-1,.5-1.5h3l1.5-8h3.5l-.5-1,1.5-1,1.5.5v-2l4-.5,1-1.5,3,2-.5,3.5,10.5.5-1,4,2,.5v5l11,12.5-.5,1-6,3v2.5l1,2-6.5.5-.5,3.5-2.5,2h-1v3l-4.5,1h-3l-3.5,4.5-6.5.5-8.5-4.5-3.5,4,1,1-.5,1-21.5,5.5,3-14.5"/>
      <path data-code="NVS-CHU" d="m190.16,186.75l5-1.5-1-.5,1-3,2,.5-.5-2v-2l2-4.5,1-5,1-1.5,8.5-1.5,1,.5.5-2.5,3.5-3.5-.5-1,.5-1h2l3-1.5.5,1,2.5-1-1-2.5-1-.5,1.5-18,28.5-12.5,6,25.5,3,8.5-24.5,5.5-2.5,2-5,1.5,4.5,5.5h-1l-1,7.5-2.5,2.5,2.5,2-.5,2h-1.5l-1,3-2,1-.5,3,2-.5,1.5,1.5,1-.5,1,2.5,1.5,4-2,1v3l5.5,10.5-2,.5.5,2h-1.5l-1-1.5-3.5,1-1,1.5,1,4-8.5,5.5h-4.5l-.5-3-7.5,1.5-.5-2h-.5l-1-3.5-1,.5-.5-3-3.5-2.5-4.5,1v-2l.5-1.5-2-4.5-2,1-2-7.5,3.5-1.5v-2l1.5-1.5.5-2.5,1-.5-2-3.5-1.5,1-2-4.5"/>
      <path data-code="NVS-DOV" d="m125.66,209.75l3-1,3,1,1.5-.5v-1.5l1-2.5,2-.5-.5-6h1.5l.5-1,.5-.5v5.5l1.5,2.5v1l8-3.5,1-.5v-1l3.5-1,4.5-3.5-3-2.5v1.5h-2.5l-.5,2-2.5-1-2.5-3.5.5-1v-2.5l1.5,1,6-.5,8-3.5,3.5.5-.5,2,4,4,1-1,1.5,1,7.5-1-1.5,9.5.5,3-1.5,1,.5,5,1.5,2.5,5,1v2l1,1-1,.5.5,2-5,2-2,2.5h-6.5l-2.5,1.5v6l-10.5,3,.5,1.5-4,1.5-.5-1.5,1.5-.5-1-3-7.5,2-1-4.5v-6l-5.5-1.5-3,4.5-6.5-5.5-1-3-1.5-.5,1.5-1.5-3.5-7"/>
      <path data-code="NVS-ISK" d="m290.66,219.25h1.5l1,2,2,.5v1.5h-1l-.5,1.5v1h.5v2.5l-1,1v-3.5l-1.5-1.5,1.5-1.5-1-.5-1.5-3"/>
      <path data-code="NVS-ISM" d="m287.16,213.25l.5.5h-.5v-.5m3.5,6l1.5,3,1,.5-1.5,1.5,1.5,1.5v3.5l1-1v-2.5h-.5v-1l.5-1.5h1v-1.5l-2-.5-1-2h-1.5m-34,15l3.5-5.5-1.5-.5,3.5-3.5,8-1.5,3.5-5,3-2,6,.5,1-.5-.5,1,1,1-1,.5v1l2.5-2,1.5.5v-3l1,1,1-1-1.5-.5.5-1h1.5v-1.5l3.5-3,1,1,2-1,.5-3,1-1,7-3,1.5-2.5,1,3.5,2.5.5-.5,1,1,1.5-1,.5v1.5l2,1v1h1.5l.5,1-.5,1.5,1.5,1,1.5-1,2,2.5,3-1,1,5,1.5.5v4l-2,1.5.5,2.5-.5,1-1.5,1.5-4.5,2.5.5,1.5-1.5,1.5-3,1v2l-.5,2-1-.5.5,2-1,.5h-1.5l-.5-2-1.5-1.5-3.5-2-1-2-1.5.5v2l-2.5,2-.5,1.5-2-2.5-2.5,2-2,3-5-5.5-2.5,2,2,3.5-1.5,1h-2l-4,2-1.5-4.5-5.5,3,.5,2-2,1-1.5-3.5-.5-2.5-3.5-5.5-6.5-1v-1.5"/>
      <path data-code="NVS-KRS" d="m52.66,252.75l8-2.5.5,3,3-1,2.5.5.5-4.5,7.5.5.5-2h3l2.5,5,1.5-1v-3l-.5-1,4-1.5v-3l7.5.5-.5-1h1.5l.5-5.5,6,1v-1l-4-2.5,2.5-3,3.5,2.5,1-3-2-2.5-.5-1.5h.5v-2l5.5-5,2.5,1.5,1.5,4,2.5,2.5-.5,5h1.5l-.5,1.5-5,2,.5,2-1,1.5,1,1,1,2.5-1.5,2v1.5l-2.5.5,1.5,4.5-1,2.5,2.5,11.5-3,.5.5,4-1,5-2.5-.5-.5,1-1.5-1.5v-1h-.5l-.5,1-3-.5v1.5h-2.5v.5l-3.5-1.5-1-1,1-.5-.5-3,1-4.5-1.5-.5-1.5-.5-.5,2.5-2-.5v1l-7.5-1-.5,2.5.5,2,5,3-.5,2-5.5-1-.5,2,1.5,2.5-1.5,2-2-1.5v5.5l-23-32"/>
      <path data-code="NVS-KRG" d="m157.66,179.75l5.5-1.5,1,1.5,8-4v-3l1-2-4,1.5-.5-2h1.5l2.5-9.5,1.5-2,4.5-1v-3l9.5-11.5,5-.5v2.5l2-1.5,9-1.5,2.5,1,2-1,3,1.5,9.5-1.5-1,11.5,1,.5,1,2.5-2.5,1-.5-1-3,1.5h-2l-.5,1,.5,1-3.5,3.5-.5,2.5h-5.5l-4,1-1,1.5-1,5-2,4.5v2l.5,2-2-.5-1,3,1,.5-5,1.5,2,4.5,1.5-1,2,3.5-1,.5-.5,2.5-1.5,1.5v2l-3.5,1.5,2,7.5,2-1,2,4.5-.5,1.5v2l-7-.5.5,5-2.5.5-1.5.5-1-4,1-.5-1-1v-2l-5-1-1.5-2.5-.5-5,1.5-1-.5-3,1.5-9.5-7.5,1-1.5-1-1,1-4-4,.5-2-3.5-.5-5,1.5,1-3,1.5-2-1.5-2v-1.5"/>
      <path data-code="NVS-KCN" d="m227.16,166.25l5-1.5,2.5-2,24.5-5.5-.5,6,1,4v2.5l4.5,2.5-.5.5,1,2-3.5.5.5,1h7l.5,1-2,5,2.5,1.5,2.5-2.5,6,1.5,2.5-1-1,2.5-2-1-3.5,4-4,2-2,3.5h-1v2h-.5l2.5,7.5-5.5,1-4.5,9.5h-6.5l-14-3.5-.5,2.5,1,.5-2.5,3h-1.5l-6-11.5v-3l2-1v-1.5l-2.5-5-1,.5-1.5-1.5-2,.5.5-3,2-1,1-3h1.5l.5-2-2.5-2,2.5-2.5,1-7.5h1l-4.5-5.5"/>
      <path data-code="NVS-KCK" d="m159.16,237.25l3-1-.5-2.5.5-1,5.5-1v-5.5l.5-1,2-1h6l2.5-2.5,5-2,.5,2,4-1-.5-5,4.5,1,7-1.5,3.5,2.5.5,3,1-.5,1,3.5,1,.5v2l-3,3-5.5,1.5.5,7.5-1.5.5-.5-2-4,2-3,2.5-.5-1.5-3.5,1.5,1,3.5-2.5,1h-1.5v-1l-10.5,4.5-.5-3.5-5.5,1.5,1,4-8,3.5-1-6,1.5-1,.5-2h2l-1-4.5-.5.5-.5-.5-.5-4"/>
      <path data-code="NVS-KLC" d="m290.16,203.75l.5-2,3,.5-1.5,2.5-2-1"/>
      <path data-code="NVS-KOL" d="m246.66,103.25l14.5-4,6,1,7-1,6-2.5,2,1,5-1.5,2,2,3-2-1-2,.5-.5.5-3,2-1h3l1,2h1.5l3.5-2,5.5,8.5-1.5,2-4.5,2v1l1.5,2.5-5.5,6,1.5,2,1.5-1.5,2,2h-.5l.5,1-.5.5h.5l-1.5-.5-1,1,1,.5-2.5,3,3,3,2.5-2,.5,1.5-2.5,2.5v2l-.5,1,3.5,3-1,1,2.5,5-1-.5v3.5l-2.5-.5-2,4.5-2.5,2-.5,1.5,3.5,2.5v1l1-1.5,4-.5v2l-1,1,.5,1,2.5-2.5,1,2,3,1.5v3l-3,1-4,4h-2.5v1l-7,.5-1,1,.5,2-1,1,.5,1-.5.5-7-2-4.5,1.5-1,1-.5,3,1.5,4-1.5,2-.5,3-4,1.5-6-1.5-2.5,2.5-2.5-1.5,2-5-.5-1h-7l-.5-1,3-.5-.5-2,.5-.5-4.5-2.5v-2.5l-1-4,.5-5.5-3-9-9-36-.5-9.5"/>
      <path data-code="NVS-KRA" d="m108.66,219.25l2.5.5,2-.5v2.5l7-1.5,2.5-1.5,5-.5,1.5.5,1,3,6.5,5.5,3-4.5,4,.5,1.5,1v6l1.5,4.5,7-2,1,3-1.5.5.5,1.5,4-1.5-.5-1.5,4.5-1,.5,2.5-3,1,.5,4,.5.5.5-.5,1,4.5h-2l-.5,2-1.5,1,1,6-2.5,1.5,1,3.5-4.5,1.5-.5-1.5-5.5,2,.5,1.5-.5,2-9,3-1-2.5-3.5-.5-1.5,2-5.5-.5-1-2-2.5,3-3-2.5-9.5,1.5-3-13,1-2.5-1.5-4.5,2.5-.5v-1.5l1.5-2-1-2.5-1-1,1-1.5-.5-2,5-2,.5-1.5h-1.5l.5-5-2.5-2.5-2.5-5.5"/>
      <path data-code="NVS-KUJ" d="m86.16,125.25l2.5-5h1v-1.5l1.5-1,1-4,2-2,.5-3v-7l-1.5-3.5-.5-2,.5-1.5,3-1,.5,1.5,4.5-4,5.5-1.5,1.5-2,2.5.5.5-2.5,1,1,1-1.5,9,1.5-.5,1.5,2,.5-1.5,1,1.5,3v1.5l-2-.5-.5,2.5h1l-.5,2.5,2,3.5-10,2.5v4l5.5.5,5-.5v1.5l1.5-2,2,2,2.5-1.5-1,6.5,5.5-1,.5,1.5-.5,1h3.5v1.5l2,1,.5,1-1.5,1,3,2,2-4h2l2.5-8,5,.5-.5-3.5,1.5-3.5,4-1.5,1-3,4.5-1.5.5,4,1,1,1.5-2,7-.5-.5,16.5-1.5,1,.5,4.5h.5l.5,4.5-5.5.5v1l1,1v1.5l-5.5.5-.5,3.5-2,.5-2.5,3-4.5,2,.5.5-1,1h-5.5l1-3-3.5-1-1,1,.5,3-1.5-1-2.5,5-1,3.5,2,2-2.5,1-2-.5,1.5-3-8.5-1.5v-1.5l-.5-3-1.5-1.5-7,1-1.5-1-1-1h-1v1.5l-3.5,1.5v1l-5,.5-10-3.5.5-1-1-3.5h-3v-1l-2.5-2v.5l-1.5-1-1,.5.5-1.5h-1.5l2-2.5-2-2-4-1.5v-2"/>
      <path data-code="NVS-KUP" d="m31.16,216.75l1.5-3,4.5,2.5,1.5-1,1,3,4-2,.5-1.5,3.5-2.5.5-3,2-1.5.5-4.5h-3v-1.5l7-1.5-.5-1v-4.5h1l2.5-2,.5-3.5,6.5-.5-1-2v-2.5l6-3,.5-1,.5,1,11-6v-2l4,.5-2,10,4.5,4-1.5,1,2.5.5,3.5-1.5,2,3-.5,4.5,5.5,5.5v3l-3,2,2,3,3,6-4.5.5-.5,2,.5,2-.5,1.5h-1.5v-2l-1-.5-1.5,3-6-.5v1l-2,.5-.5-2-2,.5-.5-2h-1v.5l-14-2-.5,3-2.5-1-.5,2.5v1.5l2.5.5v1.5h-1l-.5,3.5-4-.5-4,3.5-3.5.5,1.5,7-2.5,2.5v3l-3,2.5-15-21.5-1-2.5.5-2-2-4.5"/>
      <path data-code="NVS-KYS" d="m42.16,54.75l1-3v-1.5l1-1h4l2.5-3.5,1.5-3.5,4.5,1v-1.5l5.5-3,1-8.5-.5-.5,1.5-4-1.5-4.5.5-21,21,6,6.5,5,54.5,10-1.5,3.5-9.5,14h-4.5l-1.5,7,.5.5-3,2,.5.5h-2.5v-2.5h-.5l.5-2.5-3-1.5-1,2.5-2,.5v4l1.5.5-2.5,3-2-.5v2l-1,4-3,3,1-3.5-4-1-2,1,.5,2.5-5.5,2.5-7,4.5-1.5-1-2,2h-.5l-1,.5.5,7h1v1h-10.5l-1-2.5-5.5-.5-2-3-2-1-3,1.5,1.5,1-1,.5h-5l-2.5-5-2,.5-1.5,3-1-.5-1.5-.5-1-4-1.5,1-1.5-2,1-.5-.5-2,1-4-.5-2.5,2.5.5-.5-2-1.5-1.5h-1v.5l-.5.5v-1l-1-.5-1.5,1.5v-1l-2,1,.5.5-.5.5-.5-.5-1.5,1-.5-1"/>
      <path data-code="NVS-MAS" d="m307.66,242.75l2.5-.5-.5-2,1,.5.5-2v-2l3-1,1.5-1.5-.5-1.5,4.5-2.5,1.5-1.5.5-1-.5-2.5,2-1.5v-3l5.5,6,3.5-6,1-.5,3.5,4.5,7,12,2-1,8-12.5-.5,1,3,2,.5,2-.5,1,.5,2-3,1.5,5.5,13-12,6.5-.5-.5.5-1.5-1.5.5-3.5,3.5-2,.5-3,2.5v2l-1.5,3-4.5,1-.5-.5.5-1-1-1-2,1h-2.5v-1.5l-2-1.5-14.5,6.5,1.5-4,3-.5,1.5-.5.5-1.5h-1.5l.5-2.5-.5-3-3.5-2.5-3-8"/>
      <path data-code="NVS-MOS" d="m288.66,166.75l7,2,.5-.5-.5-1,1-1-.5-2,1-1,7-.5v-1h2.5l4.5-4,1,2,1.5-.5,3.5,4,2-.5,1,1.5,4.5-2.5.5,1.5-1,2.5h1l2,5-1,.5-.5,2,5,1,.5,1-1,1,.5,1.5-2,3,1,1-.5.5.5.5-4-.5v1.5l-2.5.5-1,1.5v-1h-1.5l-1,1.5,1,1-1.5.5-1-1v1l-2,1-.5,1.5-1.5-.5-2,1-.5-1.5-1.5,2h-3l-.5-1-3,2-.5-2.5-2.5.5-2.5-1.5-.5-1-1,1-.5-1.5-.5,1,.5,2.5-1,.5-1-1,.5-2.5-.5-2-4.5.5.5-4,1.5,2,.5-1.5-1-3.5v-1l1.5-1-.5-1,1-.5v-1.5l-3,2-1.5-9.5"/>
      <path data-code="NVS-NVS" d="m284.16,184.1l.5-1,2.5.5v2.5l-2.5.5v-1h.5l-1-1.5m-8,12.5l3-3.5-1.5-2,.5-3,4-.5,4.5,2-.5.5,3,3-1,5,2.5,3-.5,1v1.5l-1.5,3v2l.5.5-.5,1,.5.5-2,1-.5-2.5-3.5-1.5-2,1v-2.5l3.5-.5,1.5-4h-6.5l-3.5-5"/>
      <path data-code="NVS-NVM" d="m284.16,184.1l1,1.5h-.5v1l2.5-.5v-2.5l-2.5-.5-.5,1m6,20l1.5,1,2.5-3h-3.5l-.5,2m-37.5,9l6.5-.5,4.5-9.5,5.5-.5-2.5-8h.5v-2l.5.5,2.5-4,3.5-2,4-3.5,2,.5,1-2.5,1.5-.5.5-2.5,1.5-2.5-1.5-3.5.5-3.5,2.5-2h3l1.5,9.5,2.5-2,.5,1.5-1,.5.5,1-1.5,1v1l1,3.5-.5,1-2-1.5-.5,3.5.5,1,2.5-1.5.5,1,2-.5.5,2-.5,2,1,1.5,1-1-.5-3,1,1,1-1,.5,1.5,2.5,1.5,2.5-.5.5,2.5h1.5l-4,2.5-1.5,2,3,3-.5,2,.5,1-5,2.5-1,1-.5,2.5-2,1.5-1-1-5,3.5-1.5-1,2-1.5-.5-.5.5-1-.5-.5v-2l1.5-3v-1.5l.5-1-2.5-3,1-5-3-3,.5-1-4.5-1.5-4,.5-.5,3,1.5,2-3,3.5-2.5-2.5-3,.5.5,1,3,1.5h2l3.5,4.5h6.5l-1.5,4-3.5.5v2.5l2-1,3.5,1.5v1.5l-3,2.5v3l-1.5,1-1.5-1-5.5,1-2,1-3,5.5-8.5,1.5-1-2.5v-2l-1.5-2-2-2.5-1,1-.5-2-1.5.5-1.5-2.5"/>
      <path data-code="NVS-OB" d="m270.66,194.6l3-.5,2.5,3h-2l-3-1.5-.5-1"/>
      <path data-code="NVS-ORD" d="m203.16,229.6l3-4,2-.5,5.5-.5.5,2.5h4.5l8.5-5-1-4,1-1.5,3.5-1,.5,1.5,2-.5-.5-1.5,2-.5,2,.5,2.5-2.5-1-.5.5-3,14,4,1.5,2.5,1.5-.5.5,2,1-1,3.5,4.5v2l1.5,3-3.5,3,1.5.5-3.5,5v1.5l-11,8-.5,1,1,1-2.5,1.5-1,2.5-1.5,1-1-1-2.5,2.5-1-.5-4,2.5-3.5,4-.5,2.5-3,.5-4.5,4.5h-1l2-7.5,1-.5-3,.5-.5-5-4.5,1-1.5-2.5-1.5.5-1.5-.5-1-2-3-.5-.5-6-2-4.5-1-4v-5"/>
      <path data-code="NVS-SEV" d="m93.16,67.6l7.5-4.5,5.5-2.5-.5-2.5,2-1,3.5,1-.5,3,3-2.5,1-4v-2l2,.5,2.5-3-1.5-.5v-4l2-.5,1-2.5,3,1.5-.5,2.5h.5v2h2.5l-.5-.5,2.5-1.5v-.5l1.5-7h4.5l9-14,26,12.5,12.5,7.5,18.5,39,10.5-1-8,8.5-4.5-1-12,10.5-12,7.5v-7.5l-7,.5-2,2-.5-.5-.5-4.5-4.5,2-1,3-4,1-1.5,3.5v4l-5-1-2,8-2,.5-2,3.5-3-1.5,1.5-1-.5-1.5-2-.5-.5-1.5-3.5-.5.5-.5v-1.5l-6,1,1.5-7-2.5,1.5-2-2-1.5,2v-1.5l-5,1-6-.5.5-4.5,10-2.5-2.5-3,1-2.5h-1l.5-2.5h2v-2l-1.5-2,1.5-1-2-.5v-1.5l-8.5-1.5-1,1-4.5-1-2.5,2.5-2.5-5.5h.5l-.5-.5,1-.5-.5-.5,2.5-.5-.5-.5,1.5-1v-1.5h.5l-1-1,.5-1.5-4-1.5h-5.5l-2-1-.5,1-1.5-2v-4"/>
      <path data-code="NVS-SUZ" d="m226.66,261.1l2-.5.5-2.5,3.5-4,4-2.5,1,.5,2.5-2.5,1,1,1.5-1,1-2.5,2.5-1.5-1-1,.5-1,5-4,4.5-3.5,5-.5,3,1,3.5,5.5.5,2-2.5,4-.5,6.5,2.5,1.5-.5,2,1,6.5,4.5-.5v1.5l5,.5,1,3-14.5,11.5,1.5,2.5-6,4.5,1.5,2.5-7,5.5,2.5,3.5h-4l-5-3v-2l-4.5-3v-2l-2,1v-1l1.5-1.5,1-2.5-2.5,1.5-2.5-1.5v-1l-4-3.5h-3.5l-1.5,2-1-3,.5-.5-2.5-4,1.5-2-1-2,5-1.5v-3.5h.5v-3l-3,1-2-3"/>
      <path data-code="NVS-TAT" d="m.16,120.6l4.5-2.5-1-2,6.5-2,.5-3-.5-1v-1l2.5,2,2.5-1-1.5,1,3,1-.5,1-.5-.5-.5,1.5,1-.5v1.5l2.5-1v2.5l1,2.5-2.5,1-1.5,1.5,6,1.5v-.5l-.5-1,1-2.5,2-.5,2,1.5,3-3,2-.5,1,1,.5-1.5.5.5-1,1v1l1.5-.5.5.5v1l1-1-.5,1,1.5,1.5.5-1,1,1v-1l1.5,1-.5-1,1-1,4,.5.5,1,2-2-1-1,3-.5,3,2.5-1,1.5-1,.5.5,1-1.5,2.5-2.5,2.5-3-1-2,1.5-1,2.5,4,1.5-1,1,2.5,2.5-.5,2.5.5,3-3.5,1.5-.5,2,.5.5-.5,2.5,5,3-2,3.5-4,.5-.5,2-1-.5-1.5,1v1h-3.5l-1,8h-3.5v1.5l-11,.5-.5,1-3.5,1v2l-.5-.5-.5,2-2-.5.5-2v-7.5h-1v-1l-3,.5-.5-6,1.5-1.5-6.5-1.5,3-5,1-.5-.5-5h-2l1-4.5-2-.5v-1.5l1.5-1-.5-2,1-3-1-3-1-.5.5-2.5-1-.5.5-2-2.5-2"/>
      <path data-code="NVS-TOG" d="m299.66,196.85l1.5-2,3-1.5,1.5-3,3,1,3-2,.5,1,2-.5,1.5.5.5-1.5,2-1v-1.5l1,1h1l-.5-1.5,1-1.5h1.5v1.5l.5-2h2.5l.5-1.5,4,.5-.5-1h.5l-1-1.5,1.5-2.5v-2l1-.5-.5-1.5v-3l3-.5,2.5,2.5,1.5-2h5l2-2.5,1,3,2-1,2.5.5,2.5,2.5-4.5,3,1,1.5,6,2,1.5-.5,1.5,2.5v4.5l-2,.5-2,2.5,3,3.5.5,1.5-2,7.5-2.5,3.5,1.5,2v1.5l3,1,2,5,1,1.5-1,.5,1,2-3,1,.5,1.5-2-.5-2.5,2-8,12.5-2,1-7-11.5-4-4.5-4.5,6.5-5-6v-1l-1.5-.5-1-5-3,.5-2-2-1.5,1-1.5-1.5.5-1-.5-1.5-2,.5.5-1-2.5-1,.5-1.5,1-.5-1.5-1.5.5-1-2-1-.5-2.5-.5-.5-1.5,2-2,.5-.5-.5.5-2-3-3"/>
      <path data-code="NVS-UBI" d="m137.66,153.1l4.5-.5-2-2,1-4,2.5-4.5,1.5.5-.5-2.5.5-1,4,.5-1,3.5h5l1-1v-1l4.5-2,2.5-3h2l.5-3.5,5-.5.5-1.5-1-1v-1l5-.5v-4.5h-1l-.5-4.5,2-1.5.5-9.5,12-7,12-10.5,4.5,1,8-8.5,25-2,9.5,22.5,1.5-.5v9.5l3,11-28,12.5-.5,6.5-9.5,1.5-3-2-2,1-2.5-.5-9,1-2,2v-2.5h-5l-9.5,12-.5,3-4,1-1.5,2-2.5,9-1.5.5.5,2,3.5-1.5-1,2v2.5l-7.5,4.5-1-2-5.5,2v1.5l1.5,2-2,2-1,3-2.5,1.5-6,1-1.5-1,.5-.5-1.5-4.5-2.5.5.5-5h-1v-2l-3-1-1-3.5h-.5v-2.5l1-2-1.5-4.5-.5-3.5,1.5-1.5.5-2.5-1-4.5"/>
      <path data-code="NVS-UST-TAR" d="m5.16,96.6l1-2,4.5,2.5,5,.5,1-4.5-1,.5-2.5-4,3-3,4-2,4.5-3.5.5-.5.5-1.5,4.5.5,1.5-2.5,2.5-1v-1l8,1.5,2.5-3,2,1.5h2v2.5l8.5-2-.5,2.5-.5.5.5,4.5v3.5l-2,2v3.5l-1,1.5,1.5,1.5-.5,1h-5.5l-3,2.5v2l-1,2,.5,5h-1l-.5,6-3.5,2.5.5,3.5-1.5-.5-1,1,.5,1-1.5-1v1l-1-1-.5,1-1.5-1.5.5-1-1,1v-1l-.5-.5-1.5.5v-1l1-1-.5-.5-.5,1.5-1-1-2,.5-3,3-2-1.5-2,.5-1,2.5.5,1v.5l-6-1.5,1.5-1.5,2.5-1-1-2.5v-2.5l-2.5,1v-1.5l-1,.5.5-1.5.5.5.5-1-3-1,1.5-1-2.5,1-2.5-2v1-.5l-3,.5-2-3.5,2.5-2h2l-4-5,1-1.5-1.5-1.5"/>
      <path data-code="NVS-VEN" d="m40.66,116.1l3.5-2.5.5-6h1l-.5-5,1-2v-2l3-2.5h5.5l.5-1-1.5-1.5,1-1.5v-3.5l2-2v-3.5l-.5-4.5.5-.5.5-2.5-2,.5.5-1.5-2.5-4.5,2.5,1,1.5-2.5,2-.5,2.5,4.5,1,.5h4l.5-1-1-1,3-1,2,1,2,3h5.5l1,2.5,10.5.5v-1.5h-1l-.5-6.5,3.5-3,1,1.5v4l1.5,2,.5-1,2,1h5.5l4,1.5-.5,1.5,1,1h-.5v1.5l-1.5,1,.5.5-2.5.5.5.5-1,.5.5.5h-.5l2.5,5.5,2.5-2.5,3.5.5-.5,2.5-2.5-.5-1.5,2-5.5,1-4.5,4.5-.5-1.5-3,1-.5,1,.5,2.5,1,3.5.5,6.5-.5,3.5-2,2-1,3.5-1.5,1v1.5h-1l-1.5,3.5-5-1.5-.5-1.5-6-1,.5,2.5-7,1.5v-1.5l-.5-.5h-2l.5-1.5h-2l-4.5,2,.5,2-5,1v-3.5l-3,1v-2l-3,.5,1-1.5-3.5-2.5-2.5.5,1,1-2.5,2v-1h-2.5l-.5-3.5"/>
      <path data-code="NVS-ZDV" d="m94.16,190.6l2-.5-1-3,1-1.5,2-1v-.5l9.5-3.5v.5l5-.5,1.5-3.5,17-6.5,1.5,2.5,5.5,1,1,3.5,3,1v2h1l-.5,5,2.5-.5,1.5,4.5-.5.5v2l-.5,1,2.5,3.5,2.5,1.5.5-2.5,2.5.5-.5-2,3.5,3-4.5,3.5-4,.5v1.5h-.5l-8.5,3.5.5-.5-1.5-2.5v-5.5h-.5l-.5,1.5h-1.5l.5,5.5-2,1-1,2-.5,2-1,.5-3-1.5-3,1.5,3.5,6.5-2,2.5-4.5-.5-3,2-6.5,1.5v-3l-2.5,1-3.5-1-2.5,2.5-2-4.5-2-1.5,1-.5-3-6.5-2-2.5,2.5-2,.5-3.5-6-5,.5-5"/>
</svg>