<svg xmlns="http://www.w3.org/2000/svg" viewBox="0 0 233 376.5">
      <path data-code="OMS-AZO" d="m68.75,287.4l3-5,.5.5,1.5-3.5,1,.5,1-2,1,.5,2-3.5-1.5-1.5v-2l1.5-1-.5-.5,1.5-1,3,.5,1.5-3,1,.5,3-2,1.5.5,1,2.5-.5,3h.5l1,3.5-1.5.5-1,2.5,3,2,.5-2,3,1.5.5-1.5,1-1,2.5.5-2,2-1.5-1,4.5,8-1.5-.5-2,2.5-2.5-.5-1.5-1v-1.5l-4-2.5-3,4-1-.5-1.5,2.5-2-1-.5.5-2-2.5-1,1-.5-.5-2.5,3,2,1.5-.5.5,1.5,1,2-2.5,4.5,3-4,8.5-1.5-1-1,3-2-1-3,1,.5-.5-2.5-1.5-1.5,3-1.5-.5v-1.5l4-3.5-1-4-2.5-1,1.5-5-1.5-1"/>
      <path data-code="OMS-BLR" d="m131.25,189.9l.5-1.5,3.5-3.5,5,6.5,5-2.5-1.5-3,6.5-3.5-4-4.5,1-5,2-1.5.5-3,1.5-.5-.5-2,4.5-2v-2.5l9-.5,8-2v1l-1,.5,1,1-1,1v1l3-1.5.5,3h1.5v2l-3,2,.5,1.5,1.5-1-.5,3-1.5-2-1,1.5,1,2,1.5-.5-1,2v4l-4,3,2.5,1.5v2.5l-1.5,1.5h-1.5l-.5,1h1v1.5h-2v1h1.5l-1.5,1.5-.5,3-2.5-1-1.5.5v2l2.5.5,2,1.5-2,.5-2,3.5,1,.5-1.5,3-1.5-1-4,5-3.5,1.5,2,.5-4.5,3h-.5l1.5-1.5h-1.5l-.5,1.5.5,1-.5,2h-2.5l.5,1.5-1.5.5-5.5-.5v-1.5l-1.5-.5-.5,1-3-1-2.5-5-4.5-1.5-1-2,1.5-1.5v-8l3-1.5.5-1-2-2,1-4.5-1.5-1.5"/>
      <path data-code="OMS-BLU" d="m57.75,87.9l6,2-.5-2.5,4.5-2,3.5,5h5.5l.5-.5-1-4.5,21.5,6,3.5,1.5,8,8.5,23,4.5,1,.5-2.5,2.5-3,4.5-.5,2.5v1.5l.5-.5-.5,1.5,1.5-1.5,1,1.5,1-.5-.5,2,.5.5-.5,2.5-2,5-5.5.5-2,10,5.5-1.5,1.5,6h1v1.5l-5.5,6-4.5-.5-.5,1.5-4,1.5-3.5-2-1,.5v1.5l-1.5,1-.5,1.5v1l-1.5,1-5-.5-6.5,3-6-5.5.5-3v-2l-7.5-3.5-1-3-6-1.5-5.5,1.5-1-3.5-2.5,1.5.5,2.5-2-.5-.5-8.5,2.5-6.5v-1l4,.5.5-8.5v-4l-8-13-1-6.5-3-3-1-4.5"/>
      <path data-code="OMS-CHE" d="m123.25,300.4l8-7,2.5,3-1,.5,2.5,3.5,1-1,1.5,2,2,5,5.5-1,6,1.5-.5-2.5,4,1.5-2.5,4,1,2,12,4h2l1-1.5,4,2,5,.5-5,24.5-3.5,1-2.5-1.5-6.5,2,1.5,5-.5,2h-3l-14.5,9-1.5-2.5,2-3.5-1-2.5h1l1.5-1.5-.5-2-1.5-1h-2.5l-.5-2.5h-1l1.5-3.5,1.5-1,.5-1.5-.5-.5-1,1.5-3.5-4v-1h-1l1-3.5-2-1.5-2-5.5.5-1h1v-1.5l1-1.5v-1.5l-1-1h-1l-.5-2.5h-3.5l.5-.5-2.5-2.5.5-.5-.5-2v-3.5l-2.5-3.5-2.5-1"/>
      <path data-code="OMS-GOR" d="m108.75,230.9l3-1v-2.5l1-.5-.5-1,2-2h1.5l1,.5,4-1.5,1.5.5,6.5-1.5,4.5-3.5,6.5,1,.5-1,1.5.5v1.5h3.5l2,1,1.5-1-.5-1.5h2.5l2,4v2l3,1v1.5l-4.5-.5-.5,3h-4l-1.5,5.5,1.5.5,1,1.5-.5,2,2,1v2.5l1.5,2,1,4.5-1.5.5,1,.5-1,4.5-.5,1-1.5.5-7-1.5-.5,2.5-3.5.5.5,1-1.5-.5v-1l-4-1,.5-1-3.5,1-2.5-1-2-2,1-1.5-1.5-.5-.5-2,1-1.5v-1l-2-1,1-2.5,1,.5,3-3h-2.5l-.5,1-2-2.5-3-1.5.5-1.5-2-1-2.5,2.5-4.5-2,.5-1-2.5-2-.5-2"/>
      <path data-code="OMS-ISI" d="m14.25,231.4l1-2.5h5l1-2.5-1-2,3.5-2.5,3.5,3,1-1,1,1.5,5-1.5,1,1-.5,1,2,2,1-.5,2,1-.5,1.5,1,1,2.5.5-.5,2-2,2.5-.5-.5-2,4.5-2-.5-.5,2.5,1,.5-1,4,1,.5-.5,1h-1l-1.5,1,.5,2,2,.5v1.5h.5l-.5,2-.5-.5-1,3.5,1,.5-.5,2-.5-.5-1,4,3,1-2,3.5-6-1-3,3,.5,3-4,2.5-9-3,.5-2,2-1.5,2.5,1,1.5-4.5-2-.5.5-1.5h-1v-1l-4-1-1-5.5v-3l1-.5v-2l-1.5-3,3-5-.5-1.5,1.5-2,.5-3.5,1.5-.5-3-4"/>
      <path data-code="OMS-KAL" d="m132.75,263.4l3.5-.5,3.5-4-.5-.5.5-1h1l.5-2.5,8.5,1,1.5-5.5,2,1.5.5-1.5h1.5v2.5l3,.5,1.5,7,.5.5.5,2,1-1,.5,1,5-.5,4,1,1-2,1,.5-1,3,1,1.5-2,1.5v1l2,1-1,4,2,.5.5,5.5h-1l-2,2.5-5.5-1.5-.5-.5.5-4.5-7-3-.5,2-2-.5-.5,3,1,.5-.5,1-2-.5-.5,2.5-7.5-1.5-.5,2.5-2.5-.5-1,7-1.5-.5-1,5.5,5,1,4,4,3,1-.5,1-2,1,1.5,4v1.5l-6-1.5-5.5,1-2-5-1.5-2-1,1-2.5-3.5,1-.5-3-4,2-2,3.5.5,1.5-6-3-.5.5-.5,2-6.5h1l.5-1.5-3.5-1,1.5-10h-1v-1l-2,1.5-1-2"/>
      <path data-code="OMS-KOL" d="m96.75,179.9l5.5,1,1-4.5-.5-3.5,3-11.5,2-1-1.5-3,1.5-1v-1l.5-1.5,1.5-1v-1.5l1.5-.5,3,2,4-1.5.5-1.5,4.5.5,3-3,2.5-3v-1l7-2,1,2.5v1.5l-.5.5h.5l1.5,1.5,2,3,2-2,1,2.5,3,.5-.5,1,1.5.5,1.5-1.5v.5l.5,2-.5,1-2-1.5-1.5,1,6,6.5.5,1-1,1.5.5,4.5-1.5.5-.5,3-2,1.5-1,5,4,4.5-6.5,3.5,1.5,3-5,2.5-5-6.5-3.5,3.5-1.5,2.5-1,.5-5.5-4.65-4.5,4.15-4.5-2.15-1.5-2.35-5-.5v1.5l-3.5.5v-1l-8.5-4,.5-3"/>
      <path data-code="OMS-KOR" d="m113.75,253.9l1.5-2.5,2.5,1.5.5-1.5,1,1v-1h5l1.5.5-1,1.5,2,2,2.5,1,3.5-1-.5,1,4,1v1l1.5.5-.5-1h2.5l-.5.5.5.5-3.5,4-3.5.5,1,2,2-1.5v1h1l-1.5,10,3.5,1-.5,1.5h-1l-2,6.5-.5.5,3,.5-1.5,6-3.5-.5-2,2,.5,1-.5.5-1.5-2-3,2.5-1.5-1.5-.5.5-1.5-1-4-5.5.5-.5-1.5-1.5,2-1.5-1-1.5,3-3-7-6,.5-2h1v-1.5h.5l.5-5.5,1-.5-1-1,.5-1.5h.5l1.5-2-.5-1.5-2.5-.5-.5-2-1-.5-.5,1.5,1.5.5-.5,2-1.5-.5v-3l-.5-1"/>
      <path data-code="OMS-KRU" d="m27.75,152.9l5.5-2,3,1v-4l1-1.5-2-1-1-4.5-1.5,1.5-1.5-1,2.5-1,7,1,4.5-3.5,3-6.5-3.5-2,1-2.5h2l1,3,3.5,1.5,1.5-.5,2.5,2,2-.5v-2l6,2-.5,2,.5,8.5,2,.5-.5-2.5,2.5-1.5,1,3.5,5.5-1.5,6,1.5,1,3,7.5,3.5v2l-.5,1-6-.5-3,1.5-.5,1.5-6.5,3-.5,1,2,1.5-.5,2,2,1-2.5,10-1.5-.5-1.5,2-1,3v2l-7-1-3,1.5v.5l-1-.5-.5,3h1l-1,2.5.5,1.5,3.5,3.5-3.5,1.5,1,3-1.5.5-1.5-4-2.5,6-2,.5-1-.5.5-5-1.5-1-3,1-4-5,2.5-9-3.5-.5v1.5l-14.5-5.5,4-8h-.5l.5-2v-2.5h-1l-1-3.5,1-.5v-1.5h-1.5l-1-3.5"/>
      <path data-code="OMS-LYU" d="m53.25,228.4h1.5v-1l1-.5v-1l2-1.5,2.5-1-.5-2.5-.5-.5.5-1.5,6,.5,3.5-.5,1-1,2.5.5.5-2h.5l1-2.5,6.5,1.5,2.5,2.5-.5,1,2.5,3.5h1l.5-1,3.5,1-.5,2,2.5.5-1,3.5,4,1-1,2.5,1,3.5-1.5,1v1l-2.5,2.5-1,3,.5,1,3-1,1,2,2.5.5v1h-1l-2,3.5v-1l-1,.5h-1l-1,3.5h-1v1l-3.5-.5v3h-2v-1.5l-3-1.5,1-3-1-1-1.5,1.5-2.5-1-.5,2-3.5-1-7.5-.5-1,1.5-5-1v-3.5l1.5-5-1.5,1.5-6.5-3.5,1.5-6.5-2.5-1,.5-3-.5-1.5"/>
      <path data-code="OMS-MAR" d="m48.75,263.4l1,.5,1.5-3.5,3,1v-1.5l2.5-2.5,1-3,1.5.5,1-4,5.5,1,1-1.5,11,1.5.5-2,2.5,1,1.5-1.5,1,1-1,3,3,1.5v3h-.5l-3,7.5,2.5,1.5-1.5,2.5-3-.5-1.5,1,.5.5-1.5,1v2l-1.5.5-6.5-.5v-1.5l-3.5-.5.5-1.5-3-.5-.5,1-6-1-.5,2-1.5-.5-1.5,3.5-2.5-2,.5-2.5-1-1.5.5-2-2.5-.5.5-2.5"/>
      <path data-code="OMS-MOS" d="m35.75,239.4l2,.5,2-4.5.5.5,2.5-3,5,1,.5-2.5,1,.5.5-1.5,3.5,1v1.5l2.5,1-1.5,6.5,6.5,3.5,1.5-1.5-1.5,5v3.5h-.5l-1,4-1.5-.5-1,3-2.5,2.5v1.5l-3-1-1.5,3.5-1-.5-.5,2.5,2.5.5-.5,2,1,1.5v1.5l-2,4.5,1,.5-.5,3-5.5-1-2.5,5-5-2.5-3-3,1-.5-.5-9,2-3.5-3-1,1-4,.5.5.5-2-1-.5,1-3.5.5.5.5-2h-.5v-1.5l-2-.5-.5-2,1.5-1h1l.5-1-1-.5,1-4-1-.5.5-2.5"/>
      <path data-code="OMS-MUR" d="m163.25,195.9l1-1,3,1,.5-3,1.5-1.5h-1.5v-1h2v-1.5h-1l.5-1h1.5l1.5-1.5v-2.5l-2.5-1.5,4-3v-4l1-2-1.5.5-1-2,1-1.5,1.5,2,.5-3-1.5,1-.5-1.5,3-2v-2h-1.5v-2.5l3-2,1,.5-1,.5.5,1-1,2h.5v1.5h2l3.5-4,5-3.5v-.5l5-2,.5,3,9,1.5-.5,3,28.5,6-5.5,3v1.5l-4.5-1-1.5,3.5-2.5,3.5h-4l-1,1v1.5l-1,3,.5,1,1.5-1,.5.5.5-.5-.5-.5,2-1v1l1.5-1.5,1,.5v1l.5-.5v-.5h1l1.5,1.5.5,2-2.5-.5.5,2.5-1,4,.5,2-1,.5,1.5,2,1.5-1,1.5,5,2,3-.5,2-6.5,1v-2.5h-2l-1.5-1.5-3,3-8-1.5v1l-2.5,1.5-1.5,2-4.5-.5v1.5l-1,1-4.5,3.5-4,2-14-4-.5,3.5-2-.5.5-1-3-.5.5-4.5h-1l1-3-2-1.5.5-2-1-.5,2-3.5,1,.5,1-1v-.5l-4-1-.5-2"/>
      <path data-code="OMS-NAZ" d="m1.75,207.75l6.5-4.5,3.5,1,3-4,2-1.5v-1.5l-1-1.5-2.5-.5-2.5-3v-3l1-3,2-1.5-1-2,4-.5v1l1.5.5,2.5-1.5,3,.5-2.5-2.5h-5.5l-1,1-3.5-3,1.5-4,11.5,3.5,3-3.5,14.5,5.5v-1.5l3.5,1-2.5,9,2.5,3.5,1.5,1.5,3-1.5,1.5,1-.5,5h3v1l3,1-.5,3v1.5l1,.5.5,7.5-2,.5v1.5l4,4.5-.5,2,.5.5.5,2-2.5,1-2,2v.5l-1.5.5v1l-1,.5.5,1-.5,2-3.5-1-.5,1h-1l-.5,2.5h-1l-4.5-1.5.5-1-3.5-2,.5-1-4.5-2-.5-1,.5-.5-1-1-5,1-1-1-1,.5-3.5-3-3.5,3,1,2-1,2.5-5-.5-1.5-1.5-1.5-6.5,1-.5v-1l-4-1-3.5,2-5.5-3.5,2.5-3.5-1-5.5"/>
      <path data-code="OMS-NIZ" d="m145.25,235.75l1.5-5.5h4l.5-3,4.5.5v-2l-3-.5-.5-2.5-1.5-3.5.5-2-.5-1.5.5-1h1.5l-1.5,1.5,4.5-3.5h-1.5l3.5-2,4.5-4.5,1,.5.5-1,2.5,2-1,2.5,1,.5-.5,4.5,2.5.5v1h2l.5-3,14,3.5-3,4,1.5.5,1,2.5,1-.5-1,4.5-5-.5-4.5-2.5-1,2,1.5,1.5-1,1.5,4,5h-2l-2.5,2,2,3.5,3-.5.5,1.5-.5,3-6.5,2,1,2-4.5,2.5,2.5,2-.5,2,1,.5-.5,2.5,1,.5,1,3h-1l-1.5,1.5-3.5-1-5,1-.5-1-1,1-.5-2.5-1-.5-1-6.5-3-.5v-2.5h-1.5l-.5,1.5-3-2.5h1.5l-1-5-1.5-1.5v-3l-2.5-.5.5-2-.5-1.5-1.5-.5"/>
      <path data-code="OMS-NOV" d="m112.25,328.25l1.5-3.5,2-.5,1,2,7.5,1.5.5-1-2-3.5,2.5-7,4-4.5,1.5,2-.5.5h3.5l.5,2.5h1l1,1.5-.5,1.5-.5,1v1.5h-1l-.5.5,1.5,6,2.5,1-1,4,1-.5v1.5l3,3.5,1.5-1,.5.5-.5,1.5-1.5,1-1.5,3h1l.5,3,4,.5v2.5l-1,1.5h-1l1,2-2.5,4-7-2-2.5,5.5-3-1.5-3,5.5-6-3,2-4.5-1-.5,1.5-3.5,1,.5.5-1,1-2.5-1-.5,1.5-3.5-4-2.5,2.5-2-.5-1-9-4.5-.5-1.5,1-2-1.5-1,1.5-2-2.5-1"/>
      <path data-code="OMS-ODE" d="m48.25,308.25l2-3.5h3l5.5,2.5-.5,1,2,1,1-2,.5.5,1-3h1.5l1.5-2.5-1-.5.5-1.5,1.5,1,1-2,2,1-2,3,2,1,1.5-3,2.5,1-.5,1,3-1,2,1,1-3,5,2.5.5,2.5h1l-2,3.5,1.5.5-3,6,4,3-3.5,7.5-1-.5-1.5,2-4.5-1-1.5,3.5-1.5-1,1-3-.5-.5-3-1.5,1.5-3-6-1.5v-1.5l-7.5-3.5v1.5l-2-.5-2.5,5,5.5,1,.5,3-1,3.5-5-3-4,4.5-2-1.5-1.5-2.5,2.5-2.5,1.5-3.5-1.5-1,1-1.5-1.5-.5,1-1.5,4.5.5,1-2-4-2-2.5-3"/>
      <path data-code="OMS-OKO" d="m140.25,293.25l1-5,1.5.5,1-7,2,.5,1-2.5,7.5,1.5v-2.5l2.5.5.5-1.5h-1l.5-3.5,2,.5.5-1.5,2.5.5-.5,1,5,1.5-.5,4.5.5.5,5.5,1.5-1,2v1l6.5.5-1.5,1.5.5,6,3-.5v1h1v7.5l-.5,2,2,.5.5-2,2,1,1,6.5-1,.5-2,4-4-1.5-1,4.5-5-.5-4-2.5-1,2-2-.5-12.5-3.5-.5-2,2.5-4.5-4-1-1-3,2-1,.5-1.5-3-.5-4-4.5-5-1"/>
      <path data-code="OMS-OMS" d="m89.75,263.75l1-1,1.5.5.5,1,2.5.5-3-3.5,1.5-1.5v-1l1,1-1-2.5v-4.5l1.5-1.5.5.5-.5,2,3-.5,2,7,3-1.5-1.5-.5,1-.5,1,.5,1,2.5,3-2-1,1,1,2.5-2,1,1.5.5.5,1.5.5-.5v3.5h-3.5v1h-.5v1l-1,.5,3.5,2,.5-.5,1.5,1.5h-1l-2.5,2-4-4.5-1.5,1,1,1.5-4,.5-1-2,.5-3-1.5-.5v-3l-5-2"/>
      <path data-code="OMS-OMM" d="m89.75,263.75l5,2v3l1.5.5-.5,3,1,2,4-.5-1-1.5,1.5-1,4,4.5,2.5-2h1l-1.5-1.5-.5.5-3.5-2,1-.5v-1h.5v-1h3.5v-3.5l-.5.5-.5-1.5-1.5-.5,2-1-1-2.5,1-1-3,2-1-2.5-1-.5-1,.5,1.5.5-3,1.5-2-7-3,.5.5-2-.5-.5-1.5,1.5v4.5l1,2.5-1-1v1l-1.5,1.5,3,3.5-2.5-.5-.5-1-1.5-.5-1,1m-8,1.5l3.5-9,2,.5v-3l3,.5v-1h1l1.5-4,1,.5,1-1v1l2-3h1v-1l-2.5-1-1-1.5h-2v1l-1.5-1-.5-1,1.5-2,3.5-4.5,4.5,1,1.5-1.5h-1v-2l1.5-1,.5,2,2.5-2.5,4-1.5v2l3,3-.5.5,4.5,2.5,2-2.5,2.5,1-.5,1.5,3,1.5,2,2.5.5-1.5h2l-2.5,3-1-.5-1,3,2,.5v1l-1,1.5v2.5l-4.5-.5-.5,1-.5-.5-1,1-2-1-2,2.5,1,.5v3.5l1,.5.5-2.5h-1l.5-1.5,1,.5.5,1.5,2.5,1,.5,1-1.5,2.5h-.5l-.5,1,1,1.5h-1l-.5,6h-.5v1h-1l-.5,2.5,7,6-3,3,1,1.5-2,1.5,1.5,1.5-.5.5,5,6,1-.5,1.5,2,3-2.5,1.5,1.5-5.5,5v.5l-.5,1h-5l-1.5-1.5h1l-1-1-1,.5-3-6.5-4.5-2-4.5-5-1.5-3.5.5-3-1-2h-6l-1,1-.5,2-3-1.5-1,2-2.5-2,1-2.5,1.5-.5-1-3.5h-.5l.5-3-1-2.5h-3l-3,1.5-2-2"/>
      <path data-code="OMS-PAV" d="m74.25,329.75l1.5-3.5,4.5,1,1.5-2,1,.5,3.5-7.5-4-3,3-6-1.5-.5,1.5-3,5.5,2.5,1-2,3,1.5,1-2,6,3,1-1,1.5.5,1-1,3.5.5,1-4.5,1,.5,4.5,7-5.5-.5v4.5l1,.5,2.5-.5.5,1.5-1,1.5,5,2.5,1.5-3,5.5,9.5-.5,1-7.5-1.5-1-2-2,.5-1.5,3.5,2.5,1-1.5,2,1.5,1-1,2,.5,1.5-1.5,1-.5,3-9.5-2,2-4-10-5.5.5,2-2,2-3.5-.5-.5,4-.5.5-4-4-.5,2.5-3.5-1-6.5-4"/>
      <path data-code="OMS-POL" d="m2.25,285.3l4.5,1.5-.5.5,3,2,1-3,1,.5,1-3.5-1-.5,1-4h-1l1.5-6.5,9,3.5,4-2.5-.5-3,3-3,6,1,.5,9-1,.5,2.5,2.5,5.5,3-.5,1,2.5,1-2.5,6,6,3.5-1,.5-6-2.5.5,3,1,.5,1.5,2-2.5,5.5,4,4-3,3-2-2,.5-1.5-1-1v-1.5l-3.5-4-1.5.5-5.5-3-2,4.5.5,2.5-2.5,2.5-3.5-.5v-1h-5l1-4-6.5-3.5-1.5,2-4.5,3-1.5-3,1-2.5h-1l.5-1.5-2-1,.5-1,.5.5,1.5-5-3-.5,1-4.5"/>
      <path data-code="OMS-RUS" d="m72.25,358.75l2.5-4-.5-.5.5-2h2.5l.5-1,2-4v-2.5l4-.5v-2.5l1.5-2,8.5,3.5,5.5-12,5.5,2.5-2,4,9.5,2,.5-3,1.5-1,9,4.5.5,1-2.5,2,4,2.5-1.5,3.5,1,.5-1.5,3.5-1-.5-1,2-.5,1.5,1,.5-4.5,10,1.5,3-5,6.5-3-2.5.5-2-1-.5,1-2.5-2-1,.5-1.5-2.5-1-1.5,2.5-3-1.5,1.5-4-6-3-4.5,4-2-2.5-3-.5-1.5,3-2-.5-1.5,3-6,4-2.5-2.5,2-3.5-5-5"/>
      <path data-code="OMS-SAR" d="m87.25,221.75l.5-3,2-1.5,2-4-1.5-.5v-1l3,.5.5-2,1-.5,3.5,1,.5-2-1-3,.5-3.5h-2l.5-3,1.5.5v-3.5l5.5.5,2-2-1.5-.5,7.5-5,3-.5,4.5,2,4.5-4,5.5,4.5,1.5-1,2,1-1,5,2,2-.5,1-3,1.5v8l-1.5,1,2.5,3.5,3,.5,2,3v1.5l1.5,1-4.5-.5-4.5,3.5-6.5,1.5-1.5-1-4,2-1-1-1.5.5-2,2,.5.5-1,1-.5,2.5-2,1-1-1-3.5,1.5-2.5,2.5-.5-2-1.5,1v1l1,1-3,2-3-2.5-.5-2.5,1-3-4-.5,1-3.5-3-.5,1-2-3.5-1"/>
      <path data-code="OMS-SED" d="m184.25,134.25l1.5-1-.5-1,2.5.5,2-3.5,1-.5v-1l3.5-2,.5-2h-2.5v-2l1.5-1,.5-2.5,5,1,.5-2,3,2,20.5,2,2-2h4l2.5,12-.5,21,1.5,4.5-2,3.5,1,1-1,8-28.5-6,.5-2.5-9-2-1-2.5-6,3-1.5-2,1-3-2-2v-1.5l-2-1,3-4.5,1.5.5.5-2.5-2-1,1-2.5,1.5,1,.5-2h-2.5l-1.5-1,1-2-1-1.5"/>
      <path data-code="OMS-SHE" d="m41.25,284.75l3-6,5.5,1,.5-3-1.5-1,2-3,2.5,2,1.5-3.5,1.5.5.5-2.5,6,1.5.5-1.5,3,1-.5,1,3.5,1v1l3,1,1.5-.5,1,.5,2.5-.5,1.5,1-2,4-1-.5-1,2-1-.5-1.5,3h-.5l-3,5,1.5.5-2,5.5,2.5,1,1.5,4-2,2-2.5-1.5-1,2-1.5-1-.5,1.5,1,.5-1.5,2.5h-1.5l-1,3-.5-.5-1,2-2-1,.5-1-3.5-1.5-7-2,1-3.5-3-4.5,1-.5-6-3.5,2.5-6-2.5-1"/>
      <path data-code="OMS-TAR" d="m135.25,141.25l4-2-1-1.5.5-3.5,4-1-1-1,3-1,1.5-2.5,2.5-.5,1-1.5,1-.5v-1h1v2l1,1-.5,2,1,.5-.5,1.5-1,.5,1.5,1-.5,1v2l2-1,2.5.5,4-3-.5-.5,1-1.5h-3l.5-2.5.5-1.5.5,1,2-.5-.5-1h.5l.5-1.5-.5-1-2,.5,1.5-1-2.5-2.5,2.5-2v-1.5l2.5-2.5-4.5-4v1.5h1l.5,3-3,.5-.5-3.5.5-3-2.5-1.5,1.5-2-2-1.5,2.5-2,2.5-10-1-1.5-.5-4.5,3-.5v-2.5l-2-.5,1-1-3-4.5h.5l2-10.5,4.5.5,1-5,8,2,1-5,6-4.5,9.5-5.5,6.5-1.5,1-1-.5-.5,1-1h-.5l1-.5v-.5l1-.5-.5-.5,5.5-2.5,4-.5.5-2,1.5-1v-1.5l7-4,7,10-12.5,5.5,4,11-7,4.5,14.5,16-.5,4-5,17,5.5,1.5,1.5,17.5-2,2-20.5-2-3-2-.5,2-5-1-.5,2.5-1.5,1v2h2.5l-.5,2-3.5,2v1l-1,.5-2,3.5-2.5-.5.5,1-1.5.5,1,2-1,2,1.5,1h2.5l-.5,2-1.5-1-1,2.5,2,1-.5,2.5-1.5-.5-3,4.5,2,1v1.5l2,2-1,3,1.5,2-3.5,2.5-3.5,4.5h-2v-1.5h-1l1-2v-1l1-1h-.5l-7,2.5-.5-1,1.5-.5-1-1,1-1v-.5l-8,2-9,.5v2.5l-4.5,2,.5-2.5-.5-.5,1-1-.5-1-6-6.5,1-1,2.5,1,.5-1-1-1.5.5-.5-1.5,1.5-1.5-1,.5-.5-3-1-1-2-2.5,2-1.5-3.5-1.5-1.5-1,.5,1-1v-1l-1.5-3"/>
      <path data-code="OMS-TAV" d="m75.25,288.75l1.5-2,2-1,2.5,2.5.5-1,2,1.5,1.5-3,1,.5,2.5-4,4.5,3v1l1.5,1.5h2.5l2-2.5,1,1-4-8,1.5,1,.5-1.5,1-.5.5-1,1.5.5.5-1h1l1,2.5v3l1.5,3.5,4.5,5,4.5,2,3,6.5,1-.5,1,1h-1l1.5,1.5h3.5l3.5,3,2,2.5-.5,3,.5,1.5-.5,1,1,.5-4,4.5-2.5,7-3.5-6-1.5,3-5-2.5,1-1.5-.5-1.5-2.5.5-1-.5v-4.5l5.5.5-4.5-7-1-.5-1,4.5-3.5-.5-1,1-1.5-.5-1,1-6-3-1,2-3-1.5-1,2-5.5-2.5-1-3-4-1.5,4.5-8.5-4.5-3-2,2.5-3-3.5"/>
      <path data-code="OMS-TEV" d="m75.25,84.25h2l1.5-3v-5l3.5-3.5h-1l.5-4,1-1-1-.5,4.5-.5,1,3,2-1.5,1-2.5,1,1.5,1-3.5-1-.5,2-3.5-1-1.5,4.5-8,6-7,1-5,3.5,3v2.5l1.5,3,21.5,6.5h2.5l3.5-3.5,7.5-4.5,37,10-6,4.5-1,5-8-2-1,5-4.5-.5-2,10.5h-.5v.5l-.5,1.5-3.5,2.5-4-1,1,4.5-2.5,1.5,1.5,2.5-.5,1.5h-1.5l-.5,2.5-6.5-1.5-1.5,2,2.5,1.5-1.5,2.5-.5-1.5-2,.5-1,2v1h-1l1,1v2.5l-2.5.5-1.5,2.5-23.5-5.35-8-8.15-3.5-1.85-21.5-6-1-1.15"/>
      <path data-code="OMS-TYU" d="m54.25,196.25l2-4,1.5,3.5h1l-.5-3.5,3.5-1-3.5-3.5-.5-1.5,1-2.5-1-.5.5-2.5,1,.5v-.5l3-1.5,7,1-.5-2,1.5-3,1.5-2.5,1.5,1,2.5-10.35-2-1,.5-2-2-1.5.5-1,6.5-3.15.5-1.35,3-1.5,6,.5v2l6,5.5,6-3.15,5.5.65,1.5,3-2,1-3,11.5.5,3.35-1,4.65-5.1-.9-.9,2.8,8.5,4v1.15l3.5-.5v-1.5l5,.5,1.5,2.35-4.5,1.5-1,.5v.5l-5,3,1.5.5-2,2-5.5-.5v3.5l-1.5-.5-.5,3h2l-.5,3.5,1,3-.5,2-3.5-1-1,.5-.5,2-3-.5v1l1.5.5-2,4-2,1.5-1,4-1.5-.5-2-3.5.5-.5-2.5-3h-5l.5-1h-2.5l-.5,2h-1v2.5l-2.5-.5-1,.5-4,1-5.5-.5-4-5v-1.5l2-.5-.5-3v-4.5l-1-.5.5-4.5-3-1,.5-2.55"/>
      <path data-code="OMS-UST-ISH" d="m45.25,38.25l1-1,.5-1.5,2,.5v-1l2-2.5L73.25.25h1l2.5,1-.5,1,1,1,3.5.5-.5,2,1,.5v1.5l-1.5.5.5,1,1.5-1,.5,2,3.5,2,.5,2-1,2-2.5,1-5,14.5,1,1.5-1.5,1v1.5l2,.5,2-1,4,2,18.5,1-1,5-6,7-4.5,8,1,1.5-2,3.5,1,.5-1,3.5-1-1.5-1,2.5-2,1.5-1-3-4.5.5,1,.5-1,1-.5,4h1l-3.5,3.5v5l-1.5,3h-2l1.5,1.5.55,4.7-6.55.3-3-5-4.5,1.5.5,2.65-5-1.15.5-2-1.5-1,1.5-3.5-3-1,1.5-1.5-.5-1h-1.5l-1,1.5-3-2-2.5,1-.5,2-1.5-.5-1,1.5,2,2.5-3,2v1.5l-1.5.5-3.5-1.5.5-1,1.5-.5v-3l-5-1.5-2-4,.5-3,2.5-2.5,6.5-1.5,2-2,2.5-1,1-2.5-1-2.5h-1.5l1-10-2.5-1.5.5-2.5-2.5-1.5,2.5-4,.5-2-1-.5,1.5-1-1-.5-1,.5-.5-1"/>
      <path data-code="OMS-ZNA" d="m122.75,128.75l5-.5,2.5-5.5.5-2-1-.5,1-2h-1l-1-1-1.5,1.5.5-1.5-.5.5-.5-2,1-2.5,3-4.35,2.15-2.4,1.35-2.25,2.5-.5v-2.5l-1-1h1v-1l1-2,2-.5.5,1.5,1.5-2.5-2.5-1.5,1.5-2,6.5,1.5.5-2.5h1.5l.5-1.5-1.5-2.5,2.5-1.5-1-4.5,4,1,3.5-2.5.5-1.5,3,4-1,1,2,.5v2.5l-3,.5.5,4.5,1,1.5-2.5,10-2.5,1.5,2,2-1.5,2,2.5,1.5-.5,3,.5,3.5,3-.5-.5-3h-1v-1.5l4.5,4-2.5,2.5v1.5l-2.5,2,2.5,2.5-1.5,1,2-.5.5,1-.5,1.5h-.5l.5,1-2,.5-.5-1-.5,1.5-.5,2.5h3l-1,1.5.5.5-4,3-2.5-.5-2,1v-2l.5-1-1.5-1,1-.5.5-1.5-1-.5.5-2-1-1v-2h-1v1l-1,.5-1,1.5-2.5.5-1.5,2.5-3,1,1,1-4,1-.5,3.5,1,1.5-1.5.5-2,2-7,2-1.5-1-1-6-5.5,2,2-10"/>
</svg>