<svg xmlns="http://www.w3.org/2000/svg" viewBox="0 0 383.93 368.5">
      <path data-code="ORE-ABD" d="m148.68,39.4l1.5-2,4-1.65,1-1.35-.5-1.15,3.5,1.15,1.5-.5.5,3.5,1.5-.5,1.5-2h4l-1,1.5.5,2.5-1,1.5.5,2.5-1,2v2l-1,.5.5.5-.5,1.5v3l-1.5,3.5,5.5,8v11l.5,1.5-.5,2,.5.5-.5,3-9-2-1.5-3.5.5-3h-3l-.5-1.5h-2l.5-2.5h3l1-3h-2l.5-4.5-2,.5v-2.5l-4-.5v-2l-1,.5v1h-1l-1-3.5,2.5-1.5-2.5-3,1.5-1-.5-1.5,1-1-2.5-1.5,1-3,1.5-2.5v-1"/>
      <path data-code="ORE-ADA" d="m304.18,264.9l2.5-4.5,14.5-3.5,4.5,8.5-3.5-1.5-1,.5.5,2,3.5,5,6.5,2,3,6.5,5.5,4.5,2.5-1.5-.5-3,1-3.5,6.5,10,4,2.5-.5,1.5-2.5.5-3,2.5-3,.5,2.5,5,2.5,2.5,14.5,5.5-2,2.5v6.5h1l.5,1.5-3-.5-6.5,15.5-6-2.5,2-5-6.5-2-2.5,7.5-8-3.5,2-1.5,2.5.5.5-1.5,1-4,2-1.5-17.5-8.5-3.5,2-8.5-2-1.5.5-2-2-1.5.5v1.5h-2l-.5-1-1,1-1-2.15,4.8-3.55-2.8-2.95,2-5-3.5-2-2,.5-1-5.5.5-.5-1-3.5,2-.5.5-2.5,4-2-1-.5.5-1.5,1.5,1,5.5-3-.5-3.5-1,.5v-3.5l-7.05-.4.55-1.95-.5-2,.5-1.5"/>
      <path data-code="ORE-AKB" d="m127.18,268.4l4-3v-1.5l2-2.5h4l2-3.5-1-.5.5-.5v-3l1.5-1,2,1,1.5-1,1.5,4.5,2.5-3,2,1,2.5-1-2.5-3.5,1.5-1.5v-1.5l2.5-.5v-1l-2.5,1-.5-1.5,2-1.5,3-6.5h2.5l2-2.5,5.5,5-1.5,3h-1v7.5l5-1,3-2.5,1.5,3-1.5,2.5,1.5,2.5-.5,3.5,6,.5v1l4.5,1.5,2.5,4.5-.5,1.5,1.5.5,1.5-1,2.5,1-2,4.5-4.5,1-2.5,6.5-3-1.5-.5.5.5,1-2.5,2-2.5-1-3-4-6,8-.5,2.5-5,2.5-7,1-1,1-2.5-1-2,.5-3,1-.5,1.5-3-2-1-2,.5-1.5-2.5-1.5,1-3-.5-1.5-3.5-2.5-1.5,1.5-5-13.5"/>
      <path data-code="ORE-ALE" d="m142.68,114.4l3-3,6.5.5,2-1.5,1,2,2.5,1,1-1,2.5,2,1.5,7-1,2,1,1.5-.5,2,3,3-1.5.5-.5-1-1,1.5,6,5-.5.5,2,2-1,1,.5,1.5,1-.5,1,1.5-1.5,3,1,3.5,2-.5,1.5,4h-2v2l-3.5.5v3l-5.5,1.5.5,2-4,1,.5,2-5.5,1v2l-1.55-.3-.95-3.7.5-3-3-3.5-2.5,2-5.5-4.15v-1.85l1.5-2.5-1-1.15.5-1.5-.5-2.85,1-1-1-.65,1-1.35-.5-2-2-2.15.5-1.85,1.5-1.5-.5-.5.5-1v-.5l4-6.5-1.5-2,2-2-1.5-1.5h-2l-1-5.5"/>
      <path data-code="ORE-ASE" d="m111.68,63.9l3-2,.5.5-.5,1,.5.5v1h.5l1.5-2v-3.5l1.5-2-1-1.5,2-2.5,3.5-2.5,1,1.5-.5-2.5,2-1.5.5-1.5,4,2.5,1-2,3,.5,2.5,1.5v1l1.5,1,1.5-1.5,1,1.5,1.5-1,1,1,1-1.5-1-1,1.5-1.5v-1.5h1.5l2.5,1.5-1,1,.5,1.5-1.5,1,2.5,3-2.5,1.5.5,1-2.5,2-.5,2,1.5.5-1,2.5h-1l-.5,2-4,1-.5,2,.5.5-1,2,1,.5-.5.5,1,2h-2v1.5l.5,1-4.5,3.5,4.5,3-.5.5-5.5,2.5-5-3-4-.5,1-1.5-2-1-1.5-1.5v-1.5l-2.5-2-1.5,1.5-1-.5-.5,2,1,1-.5,1-2,1-1.5-1.5,3-4.5-1.5-1v-2.5l-4-2.5,2-.5,1.5-1.5-1.5-3"/>
      <path data-code="ORE-BEL" d="m162.18,236.4l6.5-4,3.5,4,3-2,.5-2-3.5-5,5-2.5,1.5,1.5-.5.5,1.5,2.5,1-.5v1.5h1.5l-.5,3,1.5,1.5-.5,1,3,1-1,.5,1,2-.5.5,2,.5.5,2.5,1.5-.5-.5-1.5,1.5-.5.5,1,3-2,7.5-.5,1,4.5-.5,2-2,.5,1,1.5,4.5,4.5h1l1-2.5,1.5.5-.5,1.5,4.5,5-.5,2.5-2,3v1.5l-1.5,1.5.5,4.5-3,4-3-4.5-3,6-3.5,1v1h-3.5l-.5,7-2-.5-2.5-2-1.5-8,1.5-.5,2-4.5-2.5-1-1.5,1-1.5-.5.5-1.5-2.5-4.5-4.5-1.5v-1l-6-.5.5-3.5-1.5-2.5,1.5-2.5-1.5-3-3,2.5-5,1v-7.5h1l1.5-3-3.5-4"/>
      <path data-code="ORE-BUG" d="m111.68,39.4l3,.5.5-1,1,2.5h1l.5-2,.5,1,1-1,1,.5-1,1.5,2,1-3.5,1.5-1.5,3-3-5,2,1-3.5-3.5"/>
      <path data-code="ORE-BUGM" d="m111.68,39.4l3.5,3.5-2-1,3,5,1.5-3,3.5-1.5-2-1,1-1.5-1-.5-1,1-.5-1-.5,2h-1l-1-2.5-.5,1-3-.5m-10.5,6l1-1,1.5-2.5,2,2.5,1-.5,4.5-5.5h1.5l.5-2,1.5-1,1-1.5,4.5-3,3.5-4.5h1l1-1.5,1.5,1v.5l-1,1,.5,1h2l1,1.5,1.5-2,.5.5-1,.5,1,.5.5,2,2.5-3,2.5,2.85,1-3,2.5-1.85,1,.5,1-1.5,1.5.5-1.5,3,1-1,1,1.5v1.5l3-1.5v1l1-.5,2,5-1,2,.5.5-1.5,2v1l-1.5,2.5-1,3h-1.5v1.5l-1.5,1.5,1,1-1,1.5-1-1-1.5,1-1-1.5-1.5,1.5-1.5-1v-1l-2.5-1.5-3-.5-1,2-4-2.5-.5,1.5-2,1.5.5,2.5-1-1.5-3.5,2.5-2,2.5,1,1.5-1.5,2-.5,5-1.5.5v-1l-.5-.5.5-1-.5-.5-2.5,1.5,1,3.5-1.5,1.5-2,.5-1.5-1,.5-1-5.5-3.5-1,1.5-2.5-3,1.5-1.5-2.5-2.5,3-2.5-1.5-1.5v-1.5l1.5-1-1-3.5,1.5-1.5-1-1"/>
      <path data-code="ORE-BUG-2" data-name="ORE-BUG" d="m83.18,91.4l1-1.5h1l-.5,1.5,1-1,1,.5-.5.5.5,2.5h-.5v1.5h.5l-.5,1v3h-1l.5-1.5-1-2-1.5,1.5h-1l1.5-2.5-1-1.5.5-2"/>
      <path data-code="ORE-BUZM" d="m83.18,91.4l-.5,2,1,1.5-1.5,2.5h1l1.5-1.5,1,2-.5,1.5h1v-3l.5-1h-.5v-1.5h.5l-.5-2.5.5-.5-1-.5-1,1,.5-1.5h-1l-1,1.5m-23,1.5l.5-1,1,.5,6.5-8.5-1.5-1,2-5,4,3,3-3.5,2-.5,1-1,4.5,2.5,4-8,3.5,2.5,1.5-2.5-3.5-2,1-1.5,3,.5,1.5-4.5,1.5.5,1.5-3v-1.5l.5,1,1.5-1.5,2,2-1.5,1.5,2.5,3,1-1.5,5.5,3.5-.5,1,5.5,3.5v2.5l1.5,1.5-3,4,1,1-1,1.5.5.5-4,5.5-2-1-4,5.5-2.5,1,.5,4,1.5-.5.5,2h-.5l.5,4.5-2,1.5h1l-.5,1,1.5.5-.5,1-1.5-.5,1,1-2,2-4-.5v-.5l.5-1v-.5l-3-1h-.5l-1,3-2.5-.5-.5-1,1-2-3-3-4.5,7-3.5,1.5-2.5-2,2-3.5,3.5-4.5-3.5-1.5-1.5.5-1-1,.5-1.5-.5-1-2.5-2-2.5,4h-2l-3-2.5-1,1.5,1,1.5-3.5-2-1-1.5,1-2-2-1"/>
      <path data-code="ORE-DOM" d="m258.68,315.4l1.5-.5.5-1.5h2.5l-1-4.5h3l2,3,1.5-.5,10,6.5,1-2,1,.5,1-1.5-.5-1,1-1-.5-.5.5-1,5,3,2.5-4,2.5,1.5-7.5,12.5v2.5l2,1.5v2.5l3,1,1-1v2h2.5l3.5-7.5,3-1,.5-1,2.5.5,3.5,4-2,3.5-2.5,1.5v1l-2.5,1.5,1,3.5,1.5,2.5,4,2,.5-1.5h1.5l3.5,2-4.5,3.5-2,7-5.5,2-4.5,4-7.5-2.5-5,.5,1-2-1.5-1.5,1.5-2.5,3.5,2-.5-2.5-1.5-1v-2.5l-6.5-3.5-1,1-2.5-3.5-11-7v-3l-.5-.5-1-3.5,1.5,1-.5-2.5-4.5-1.5,1-2.5,1,.5,1-3h-4l1-5"/>
      <path data-code="ORE-GAJ" d="m235.68,281.4l5.5,3,2-1.5,1.5,1,1.5-3.5h1l-.5-1,1-3.5,3,1,1.5-3.5h3.5l1,1,4-.5,1-1.5h1.5v-1.5l-1.5,1.5-3-1-3,2,1.5-3,2.5-5-.5-.5,1.5-3,2.5-1,1-2.5,4.5,1,.5-1,2,.5,1-1.5v.5l9,4,1.5-3.5,1.5.5,1.5-4,1.5,2.5v1l-1,.5v3.5l3.5,1.85-6.5,3,3.5,3-1,3.65.5,1.5-1,1.35-1-.85-1.5,2.85h-2l-1,1-1-.5,1.5,6-1.5.5v4.5l-1.5.5-.5,2.5-1.5.5-1-1.85-1,.85-7.5-2.5-4-2,1-1-1.5-.5-4.5-2-1.5,1.5-4-.35,2,3.35-1,3-1-.5-2,3.15,1,1.5-5.5,2.5,1-3-6,.5v-2.5h-2.5l-1-1.5v-2h-1.5l1-1-1.5-1.5"/>
      <path data-code="ORE-GRA" d="m100.18,93.4l2.5-1,4-5.5,2,1,4-5.5-.5-.5,1-1.5,2.5-.5.5-1-1-1,.5-2,1,.5,1.5-1.5,2.5,2v1.5l1.5,1.5,2,1-1,1.5,4,.5,5,3,2,7.5-3.5,1.5v1l-1.5,1,1,1-.5,1h-3.5l1-3-8,1.5.5,2.5,1.5.5-.5,1,1,1-2,1-3,5.5-1.5-.5-1,1.5-7.5-4-.5-1.5-2,.5-.5,1-1.5.5-1-.5.5-1h-1l2-1.5-.5-4.5h.5l-.5-2-1.5.5-.5-4"/>
      <path data-code="ORE-ILE" d="m76.18,179.4l1.5-2,.5,1.5,4.5-.5-.5,1.5,1.5,1,3.5-3.5,4.5,1.5,1-2,4,2,2,2,.5-1.5,3.5,3.5,1,3.5h4l.5-1,.5-.5.5,1,.5,2h1l.5,3,1,.5-1,3.5.5,1.5,4,.5-.5,1,1.5-1,3.5,1,.5-1,.5,4.5-.5,9-1,1-1.5,3.5.5,2.5-1,5.5-5-2.5h-2.5l-3.5,4-1.5-2.5,1.5-2.5-1.5-.5-4.5,2.5.5.5-1.5,1.5,1.5,1.5-3.5.5-.5,1-1-1-1.5-3.5-2.5-.5-1.5-2-2-1-2-3.5,1-1-1-3,.5-1.5,1-.5.5-1-.5-1.5,2-.5-1-3.5.5-1-2-.5-1-2.5h-1.5l-.5-4-1.5-.5,1-1.5h-4l.5-1.5-2.5-1,1-1.5h-2.5l-.5,2-2-2h-1.5l1.5-2,.5-1.5,1.5-1-1-3,1-1.5"/>
      <path data-code="ORE-YAS" d="m306.68,328.9l.5,1h3l-1-.5,1-1v-1l-1.5,1.5h-2m-22-4.5l8-13.5,2.5,1,2-3-.5-.5.5-1,4.5,2.5.5-1.5,1,2.5,1-1,.5,1h2v-1.5l1.5-.5,2,2,1.5-.5,8.5,2,3.5-2,17.5,8.5-2,1.5-1,4-.5,1.5-2.5-.5-4,4.5,5.5,2-6,14.5-2.5,3.5-2.5-.5-.5-2-2.5-1.5h-3.5l-3,1.5-8.5-5.5h-1.5l-.5,1.5-4-2-2.5-6,2.5-1.5v-1l2.5-1.5,2-3.5-3.5-4-2.5-.5-.5,1-3,1-3,7-1.5.5h-1.5v-2l-1,1-3-1v-2.5l-2-1.5v-2.5"/>
      <path data-code="ORE-KOM" d="m306.68,328.9h2l1.5-1.5v1l-1,1,1,.5h-3l-.5-1"/>
      <path data-code="ORE-KRA" d="m110.68,110.9l1,.5.45-2.6,2.05,1.1,1-1.5,1.5.5,3-5.5,2-1-1-1,.5-1-1.5-.5-.5-2.5,8-1.5-1,3h3.5l.5-1-1-1,1.5-1v-1l3.5-1.5,2,1,2.5-3.5,1.5,1v3l1-.5,2,3,2.5,1.5,1.5-1,2,4,4.5.5-3,2.5,1.5,2-2,1.5-.5,2,2,1h-6l-3,3,1,5.5h2l1.5,1.5-2,2,1.5,2-3,4.5.5-2-1.5-.5-.5-2.5-.5-.5-1.5.5-2-1.5-1.5,3.5,1.5,1.5-.5,1-2,1.5-2-2-2.5,3.5,2,2-2,1.5-7-3,1-2.5v-1.5l-1,1-6.5-3-1-.65.5-1.5-6.5-4,1-1-.5-.5v-3.5h-.5v-4.85"/>
      <path data-code="ORE-KUR" d="m40.18,103.9l3.5,1.5,2.5-3.5,2.5,1,1-2-.5-.5.5-2-1-.5.5-1-1-.5,1.5-4,2,1.5,1-2-1-1,.5-1.5,2.5.5,1-2.5,3,1-.5,2.5,2.5,1-.5,1,2,1-1,2,4.5,3.5-1-1.5,1-1.5,3,2.5h2l2.5-4,2.5,2,.5,1-.5,1.5,1,1,1.5-.5,3.5,1.5-3.5,4.5-2,3.5,3.5,2-3,3.5-2.5-2.5-1.5,2.5,1,2-1,1-3.5-2.5-1,2-1-.5-1.5,1-1,2.5,4.5,1-1,2,1.5,1.5-2,2.5-1.5-.5-1.5,3.5-1-.5-.5,3-1,.5-5.5-2.5-2,3.5-3.5-.5-4.5-13-3-4.5-2-.5-1,2-3-1.5,1.5-2-2-1.5,3.5-7-.5-2"/>
      <path data-code="ORE-KUV" d="m232.18,265.9v2.5l-2,2,2.5,1.5-5,5.5.5,2,1-.5.5,1,4-1-.5-3,2.5-.5.5-1-.5-1.5,1-.5.5,2-1,2,2,1,.5-2,1.5,1,1.5-3h.5v-1.5l-5.5-1.5v-1l1-1,3.5,1,1-2h-2l-1-1.5-1-4.5-3.5,1-2.5,3.5m-24-21.5l7,1.5,2-4.5-1.5-6,.5-1h.5l1.5,3,2.5,1,1-.5-.5,2,1,.5-1.5,3.5,3.5,1.5v7l1.5,1,1-1h3.5l.5-1.5,5-1.5,1.5-3,6,3,3.5-1,.5-1-.5-1.5,3-2-.5-2,1-.5,2,1.5v1.5l.5,1,6,2,1.5,1.5-1,2,5.5,2.5.5,1-1,1,.5,2-1.5,3.5-2.5,1-1.5,3,.5.5-2.5,5-1.5,3h-3.5l-1.5,3.5-3-1-1,3.5.5,1h-1l-1.5,3.5-1.5-1-2,1.5-5.5-3-1.5,6.5,1.5,1.5-1,.5-3.5,5.5-3.5,8-2.5-.5v-1l-4-2-3.5,2.5-3-2.5-2-4.5,1-3-.5-1.5.5-2-2-.5.5-6h-2v1l-7-1-.5-2-3,.5-3-4v-1l3.5-1,3-6,3,4.5,3-4-.5-4.5,1.5-1.5v-1.5l2-3,.5-2.5-4.5-5,.5-1.5-1.5-.5,1-3v-2"/>
      <path data-code="ORE-KVA" d="m292.68,238.9l3.5-3.5,3-6,1,.5.5,3,5,3h.5l.5-1.5h2l.5-3,1-1-3.5-2.5,3.5-5.5,4.5,3.5-1,1v1.5l-1,1.5,2,2,2,6,2.5-1,3.5-7.5,1-.5,1-2,1-1,4,3,1.5-1-.5,2,1.5,3v2l2.5-2,4.5,2-.5,2h2l5.5-2.5,1.5,5.5,4.5,1.5,4,3.5-3,7.5v1.5l-3,2-1.5-.5-2,2.5h-4l-3,4-1-.5v1.5l-1,1.5,2,1.5.5,3-2,2.5,1.5,5-.5,1,2.5,1.5,1,4-2.5,1.5-5.5-4.5-3-6.5-6.5-2-3-3.5-1-3.5,2-.5,2.5,1.5-4.5-8.5-14.5,3.5-2.5,4.5-.5,1.5.5,2-.55,1.95-1.95-.1-6-3.35-1.5.85-3.5-1.5-1-1.85,1.5-3.5,1-3,1.5-.5,1.5-4.5.5-4,1-1.5-3-.5,1-3-2-1,1-3-1-1"/>
      <path data-code="ORE-MAT" d="m139.18,66.4l4-1,.5-2h1l1-2.5-1.5-.5.5-2,2.5-2,.5,2.5h1v-1l1-.5v2l4,.5v2.5l2-.5-.5,4.5h2l-1,3h-3l-.5,1.5,2,1,.5,1.5h3l-.5,3,1.5,3.5-5.5,1.5,2.5,3.5.5,3-5,7.5-3.5-1-2,2.5,1.5,1-2,1-2.5-1.5-2-3-1,.5v-3l-1.5-1-2.5,3.5-2-1-2-7.5,5.5-2.5.5-.5-4.5-2.5,2.5-2.5v-.5l2-1-.5-1v-1.5h2l-1-2,.5-.5-1-.5,1-2-.5-.5.5-2"/>
      <path data-code="ORE-MED" d="m232.18,265.9l2.5-3.5,3.5-1,1,4.5,1,1.5h2l-1,2-3.5-1-1,1v1l5.5,1.5v1.5h-.5l-1.5,3-1.5-1-.5,2-2-1,1-2-.5-2-1,.5.5,1.5-.5,1-2.5.5.5,3-4,1-.5-1-1,.5-.5-2,5-5.5-2.5-1.5,2-2v-2.5"/>
      <path data-code="ORE-NVO" d="m283.18,267.25l6.5-3,1,2,3.5,1.5,1.5-1,6,3.5,9,.5v3.5l1-.5.5,3.5-5.5,3-1.5-1-.5,1.5,1,.5-4,2-.5,2.5-2,.5,1,3.5-.5.5,1,5.5,2-.5,3.5,2-2,5,2.5,2,.5,1.5-4,3.5-1-.5-.5,1.15-4.5-2.15-.5.65.5.5-2,3.35-2.5-1-.5,1-2.5-1.5-2.5,4-6.5-4,.5-.5-1.5-1.5,3.5-5-4.5-2-3,5-1-1.5h-2l.5-1.5v-.5l3-4-.5-2h.5v-.5l.5-3-.5-1.5h.5l.5-1.5,1.5-.5v-4.5l1.5-.5-1.5-6,1,.5,1-1h2l1.5-3,1,1,1-1.5-.5-1.5,1-3.5-3.5-3"/>
      <path data-code="ORE-NVS" d="m92.68,154.75l2.5-3,2.5.5v1l1-.5.5,2,4-1.5.5-1,2.5-1-.5-1,1.5-.5-.5-1,2-1v1.5h2l-1,3.5,1.5,1,1-1,1-2,2.5.5,1-2,8,2.5-.5-1.5,1.5-4.5-7-3.5,1-1.5-1.5-1,2.5-5,2.5,1.5,1.5-3,6.5,2.5,1.5-.5-1.5-2.5.5-1.5,1.5-2,2.5,1.5,1.5-1,.5-1-1.5-2,2-3.5,2,2,1.5-1,.5,3.5h2l-.5,2.5-1.5,3,.5,1-1.5,1.5-.5,1.5,2,2,.5,2.5-1,1,1,1-1,1,.5,2.5-.5,1.5,1,1-1.5,2.5.5,1.5-.5.5-1-.5-1.5,1,.5,2-1.5,2.5-2.5,1.5.5,1-1.5,1,.5.5-2.5,2,1.5,1.5,1-1,1,1-5,2.5-1.5-2.5-2,.5-2,5-4,4,1,.5-3.5,1.5-1,2,1.5,1-.5,1.5h-.5l-.5,1-3,1-.5,1,1,1-5,2-2-3.5h-1v1.5l-4-.5-1-3-3.5-3.5-.5,1-2-2-4-1.5-1.5,2-5-2v-1.5h1l1.5-2-.5-1.5h-2v-3l1-1h3l4,3,2.5-4-4-2,2-4.5v-4l-2-2"/>
      <path data-code="ORE-NOV" d="m258.68,271.25l3,1.15,1.5-1.5v1.5h-1.5l-1,1.5-4,.5-1-1,3-2.15Zm-8.5,25.15l-1-1.5,2-3.15,1,.5,1-3-2-3.35,4,.35,1.5-1.5,4.5,2-1,2.5h-.5l-.5,3.5,1,1v3l-1,.5v-1h-.5v1.5l-1-.5v1l4,2.5-2.5,1.5-4-1.5.5-4-.5,1.5-1-1-1,.5v-.5l-3,.5-.5,2-2,.5-.5,1.5-2.5-2.85,5.5-2.5Z"/>
      <path data-code="ORE-OKT" d="m160.18,163.9l-.5-2,3.8-.95-.3-2.2,5.5-1.35v-3l3.5-.5v-2h2v2.35l3.5,1.5.5-1.5,2.5.5,2-3,5-1-1.5,2.5.5,1.5,2.5.5,2-2,2,4.5-2.5,2,3.5.5-.5,2h-1l-.5,1,1.5,1-.5.5-2.5-1.5-.5,1.5,1.5,1-.5,1h-.5l-1,1.5,1,2-3,1.5.5,2.5,1,.5,1-1,1,3,1.5,1,1-2.5,1,.5v4l1.5,3,4-1-1.5,1.5v1l-1.5.5-2-1.5-2,1.5h-2l-1,2-4-1v4l-1,.5-2-1-1.5,1-2-2-1,1-1-1.5-1,.5-.5,1.5-1,.5v-1.5h-2l-.5-2.5-1.5-11-10.5,1.5v-1h-2.5v-2l-5.5.5v-3.5l1-.5-.55-3.7,1.55.3v-2l5.5-.95Z"/>
      <path data-code="ORE-ORE" d="m152.18,203.75l.5-1,3.5-1v-1.5l.5-1h2l1-1,4.5,4.5,1,.5,1-1.5,2.5,1-1.5,4-4.5-1.5-2.5,2,.5.5-1.5,2.5-1.5-.5-.5,1v-1l-2,.5-.5-1.5v2l-1-.5-1,2-2.5-3.5h1.5l-.5-1,.5-1,1,1-1-2.5,1-.5-.5-1m12.5,14l1.5-1.5v-1.5l.5-.5,3,.5.5,2,1.5-.5-1.5,1,.5,2-1,1.5-2-.5-1-1.5-2-1"/>
      <path data-code="ORE-ORM" d="m164.68,217.75l2,1,1,1.5,2,.5,1-1.5-.5-2,1.5-1-1.5.5-.5-2-3-.5-.5.5v1.5l-1.5,1.5m-44-18.5l2.5-1.5,1,2.5-.5,1,.5.5,3-.5.5-1.5,1.5,2,.5-2,9,1v-2l2-.5-1-1.5v-3.5l1.5-1,1,1,.5-1.5-2.5-3,.5-1-2-1.5.5-1-.5-.5,1-.5,1-2.5,1.5.5,3-4v-1.5l1-1,1,2,.5-1,5-.5v1.5l1.5.5v3h1.5l1.5,5.5,1-.5,2.5,3.5,3.5-1.5.5,2.5-4.5,2.5-1,2v3.5l-2.5.5-.5,1v1.5l-3.5,1-.5,1,.5,1-1,.5,1,2.5-1-1v2h-1.5l1.5,1.5-.5,1,1.5,1,1-2,1,.5v-2l.5-.5v2l1.5-1,.5,1.5.5-1,1.5.5,1.5-2.5-.5-.5,2.5-2,4,2,2-4.5,2,1.5.5-1.5,4,2,.5-1.5,6.5,3-.5,3-1.5,1,2.5,1.5-1,3,6.5,4.5h2l-1.5,3,2.5,4-5,2-1-3.5-4-2-1,2.5-2-1-.5,1h-2l-3.5,2.5,3.5,4.5-.5,2-3,2.5-3.5-4-3,2-2.5-4-6,.5-.5-3-3.5,1.5-.5-2,1-.5v-1.5l-5,2-1-3.5-3.5.5-6,7.5-3,.5-1.5-1v1.5l-3.5,1.5v1l-5-1-4-3,.5-2.5h-2.5l-1.5-3.5,1-8.5-.5-2,1.5-3.5,1-1.5.5-8.5-.5-2.5"/>
      <path data-code="ORE-ORS" d="m285.68,255.25h2l3.5-9,5.5,1.5-1,1.5-.5,3.5-1.5,5-1.5.5-1,3-1.5,3-3.5-1.5v-4l1-.5v-.5l-1.5-2.5m-26,34h.5l1-2.5,1.5.5-1,1,4,2,7.5,2.5,1-1,1,2,1.5-.5-.5,4h-.5l.5,2-3,4v.5l-.5,1.5h2l1,1.5,3-5,4.5,2-3.5,5,1.5,1.5-.5.5,1,.5v1.5l.5.5-1,1,.5.5-1,2-1-.5-1.5,2-9.5-6.5h-1.5l-2-2.5h-3l-1.5-4-5-1,.5-3-1-.5,4,1.5,2.5-1.5-4-1.5v-2l1,.5v-1.5h.5v1l1-.5v-3l-1-1,.5-3.5"/>
      <path data-code="ORE-PRP" d="m110.68,188.75l5-2-1-1,.5-1,3-1,.5-1h.5l.5-1.5-1.5-1,1-2,3.5-1.5-1-.5,4-4,2-5,2-.5,1.5,2.5,5-2.5-1-1-1,1-1.5-1.5,2.5-2-.5-.5,1.5-1-.5-1,2.5-1.5,1.5-2.5-.5-2,1.5-1,6.5,4.65,2.5-2.15,3,3.65-.5,3,1.5,5.85-3.5,1-.5-1h-2.5l1,1-1.5,1,1,6.5-.5.5-1-2-1,1v1.5l-3,4-1.5-.5-1,2.5-1,.5.5.5-.5,1,2,1.5-.5,1,2.5,3-.5,1.5-1-1-1.5,1v3.5l1,1.5-2,.5v2l-9-1-.5,2-1.5-2-.5,1.5-3,.5-.5-.5.5-1-1-2.5-2.5,1.5-.5-2v1l-3.5-1-2,1,.5-1-3.5-.5-.5-2.5,1-2-1.5-3.5"/>
      <path data-code="ORE-PRM" d="m.18,129.75l7.5-2.5,4.5-.5,2-1.5,3.5,1.5,2-1,.5-2.5,2.5,1.5,9-2,4-4,.5-1.5,1.5-.85,3,1.35,1-1.85,2,.5,3,4.5,4.5,12.85,3.5.5,2.5,2.5,7,2.5.5,3.5,1,.5-6.5,6.5-3,5,.5,4h-2v1.5l-4-.5v-1l-2-.5-1.5,2.5-4,.5v-1.5l-3-1,.5-1-5-1.5-1,1-1.5.5-2,1-.5,1.5h-1l-1.5,6h-7v-2l2-1.5.5-2.5h-1.5l.5-1-2.5.5-.5,1.5-5.5-.5-4.5-4,1-2.5h-1.5l1-2.5,5,2.5,2-3.5.5-1.5-2.5-1.5v-3l-2-1-1.5.5-10-7,1.5-4.5-3-3"/>
      <path data-code="ORE-PON" d="m153.68,81.25h2l2-1.5,10.5,2,1,6,2.5,3h1l2-1.5,2.5,4,5,3v2.5l-2.5,3.5,2.5,1.5-.5,1.5-2,1v1.5l-2.5-.5-1.5,3.5h-3.5v1h-1.5l-1.5-1.5-1.5.5-1,4-1.5,1.5-6.5-3.5-1.5,1-3-3-2,1.5-2.5-1.5.5-2,2-2-1.5-1.5,2.5-2.5-4-1-3-4.5,2-3,3.5,1,5-7-.5-3-2.5-4"/>
      <path data-code="ORE-SAK" d="m147.18,168.75h2.5l.5,1,3.5-1v1.5l-1,.5v3.5l5.5-.5v2h2.5v1l10.5-1.5,1,6.5-.5,1,1.5,6h2v1.5l1-.5.5-1.5,1-.5,1,1.5,1-1,2,2,1.5-1,3,.5-.5,2,7,3-1,1.5,1,1-.5,1.5,1.5,1-1.5,4.5-1-.5-.5,1.5-1.5,1-1,2-1-1.5-3,.5,1-1.5-1.5-3.5-1.5,1.5-1,1.5-1,.5-4.5-2.5-.5,1.5-4-2-.5,1.5-4.5-2.5-1,1.5-3-2-2-2.5-1-3.5,1-2,4.5-2.5-.5-2.5-3.5,1.5-2.5-3.5-1,.5-1.5-5.5h-1.5v-3l-1.5-.5v-1.5l-5,.5-1-6,1.5-1-1-1"/>
      <path data-code="ORE-SAR" d="m181.68,204.75l2-2.5,1.5,3.5-1,1.5,3-.5,1,1.5,1-2,1.5-1,.5-1.5,1,.5,1.5-4.5-1.5-1,1-3,6,1.5.5,2,1.5,1,4,.5,2,2.5,3,.5,1-1.5h1l3-1.5h2-2v1.5l-2.5.5,1,1.5,2.5-.5,4,4.5-1,2-2,.5.5,1.5.5-1,2-.5,1,3.5-5,5.5,1,2h1l-.5,2.5-4-1-2.5,4,3.5,6v3l-1.5-1-.5,3-.5,1v1l-4,4.5v2l-2,5-2-.5-.5-1.5-4-3.5,1.5-.5,1-2.5-1-4h-7.5l-3.5,2.5v-1l-1.5.5.5,1-1.5,1-.5-3h-2.5l.5-1-.5-2h1l-3-1,.5-1.5-1.5-1,.5-3.5h-1.5v-1.5l-1,1-1.5-2.5.5-1-1-1,.5-1,2,1,1-2.5,3,1-.5.5,1.5.5,1,3.5,5-2-2.5-4,1.5-3h-2l-6.5-4.5,1-3-2.5-1.5,1.5-1,.5-3-.5-1.5"/>
      <path data-code="ORE-SEV" d="m128.68,8.75l1-1.5,1.5,1,1-1,.5-1.5,2-2.5-.5-2,1-1,3,.5,3,2.5,5-3v2h3l3.5,5.5,2.5.5,1,1.5-3,1,2,2h.5l.5-1,2,.5-.5-2.5,3.5-1-.5,2.5,1.5,3-2,1,.5,1.5h-2l-2-1.5,1,2h-1l-2-1,1-.5v-.5l-2-1-1,3.5,1.5,2-.5,2.5,1.5,1.5-1.5,2-.5-.5-1,1.5,4.5,1,2-1.5,1,.5v1.5h-1l2,1-2,3.5,1,1.5-1.5.5-3.5-1.5.5,1-1,1.5-4,2-.5-.5,1-2.5-2-4.5-1,.5v-1l-3.5,1.5.5-2-1-1-1,1,1.5-3.5-1.5-.5-1,2-1-1-2.5,2-1,3-2.5-2.5-2.5,3-.5-2-1-.5.5-.5v-1l-1.5,2.5-1-2-2,.5-.5-1,1-1-.5-1-1-1,1.5-2.5-1.5.5,1-1-1-.5,2.5-2.5,4-1,.5-1-3-2,1.5-4.5-1,.5.5-1-1.5,1.5-.5-2.5"/>
      <path data-code="ORE-SHA" d="m160.68,114.75l1.5-.5,3,2,1.5-1.5,1-4,1.5-.5,1.5,1.5h1.5v-1h3.5l2-4,2,1v-1.5h.5l5,1.5h2l2.5-1.5-.5,2,2,3.5-2,6.5-1,1,1,3.5-1,7,1,4.5-1,2.5.5,1.5h-1l.5,1-1.5,1.5h1.5l1-1,1.5,2,1.5-1v1h3l.5,2.5,1-.5-.5,3h-3.5v2l2,.5v1l-2,1.5-1-.5-.5,1.5-1.5-1.5.5-2.5h-1.5l.5-1.5-1.5-.5-1,1,1.5,2-.5,1-5,1-2,3-2.5-.5-.5,1.5-3.5-1.5v-2.35l-1.5-3.65-2,.5-1-3.5,1-3.5-.5-1h-1.5l-.5-1,1.5-1-2-2,.5-1-6.5-4.5,1.5-1.5.5,1,1-.5-2.5-3.5v-1.5l-1-1.5,1.5-2.5-2-6.5"/>
      <path data-code="ORE-SOL" d="m97.68,225.75l3.5-.5-1.5-2,1.5-1.5-.5-.5,3.5-2,2.5.5-1.5,2.5,1.5,2,3.5-4h2.5l5,2.5v3l1.5,3.5h2.5l-.5,2.5,2,1.5,2,1.5,5,1v-1l3.5-1.5v-1.5l1.5,1,3-.5,6-7.5,3.5-.5,1,3.5,5-2v1.5l-1,.5.5,2,3.5-1.5.5,3,6-.5,2.5,4-3.5,2-2-1-2,2.5-2.5-.5-1,1.5-2,5-2,2,.5,1,2-.5.5.5-2.5,1v1.5l-1.5,1.5,2,3-2,1-2-1-2.5,3.5-1.5-5-2,1-1.5-1-1.5,1.5v2.5l-.5,1,.5.5-1.5,3.5h-4l-2,2v2l-4,2.5-2-2,4.5-3-1-3.5-1-1-2,1-3.5-3,1-.5-1-1,1-1-3-3.5v-4.5l-2-.5-.5,1.5-3-2.5-2.5.5-1,.5,1,2h-1v1.5l-2,1,4.5,3,.5,2-3.5,3.5-.5,3.5-2,3.5.5,2.5-1,1.5-.5,3-7,3.5v-2h-3.5l-1-6.5,4-5,1.5-3,5.5-5-3-1,1-2.5h-1.5l-3.5-3.5,1-3.5-2.5-2,.5-2-1-.5.5-1.5,1.5-1v-2h-1.5l1.5-1.5.5-2-2.5-2.5v-3.5"/>
      <path data-code="ORE-SOR" d="m100.68,106.9l1.5.5.5-2,3.5-1,.5,1.5,5.45,2.9-.45,2.45h-1v4.5h.5v3.5l.5.5-1,1,6.5,4-.5,1.5,1,.5,6.5,3.5,1-1v1.5l-1,2,.5.5-1.5,3-2.5-1.5-2.5,5,1.5,1-1,1.5,7,3.5-1.5,4.5.5,1.5-8-2.5-1,2-2.5-.5-1,2-1,1-1.5-1,1-3.5h-2v-1.5l-2,1,.5,1-1.5.5.5,1-2.5,1-.5,1-4,1.5-.5-2-1,.5v-1l-2.5-.5-.5,1-4-1-1-3,.5-2-3-1.5-1-2.5,1-2.5-1-.5,4-7-.5-.5,1-1v-2.5l3-2.5,3,1.5-1,2,1.5,1,4-9,1.5-1,.5-6,2-1.5-1-2-1.5,1-3-2.35,2-2-1-1"/>
      <path data-code="ORE-SVE" d="m314.18,349.75l2.5-1.5-.5-.5,2.5-1.5,4-.5,2.5,2v1.5l3.5.5,8-17.5-5.5-2,2-3,8,3.5,2.5-7.5,6.5,1.5-2,5.5,6,2.5,6.5-15.5,5.5,1.5.5,2,4,1,9.5,7v6l3.5,7-5-.5-15.5,26.5h-.5l-27,.5-18.5-8-3-10.5"/>
      <path data-code="ORE-TAS" d="m56.18,154.75l3-5,3.5-4,5.5,6,1.5-1.5.5.5,3.5-2.5,4.5,2v1h2l.5-1-1-1,1.5-2.5,1.5-1,1-2.5,1,1,.5-1.5h1l1,2.5,3,1.5-.5,2,1,3,4,1-2,2,2,2v4l-2,4.5,4,2-2.5,4-4-3h-3l-1,1v3h2l.5,1.5-1.5,2h-1l1,2-2,2.5-.5-.5-1.5,1.5-1-1.5.5-1-5,.5-.5-1.5-2,3.5,1,3-2,1v1.5l-1.5,2h-2l-1-1.5-.5,1.5-.5-1-.5,1-.5-2.5h.5-1v1l-.5-1h-1.5l2-1h-1.5l-.5-1.5-.5,1.5v-1.5l-1.5-.5.5-.5-1,.5.5-1.5-1,1.5-.5-1v1l-.5.5-.5-.5.5-1-1,1-1.5-.5-.5,1.5v-2.5l-1.5,1.5-.5-1v1l-1.5-.5,1-1-.5-.5-1.5,1-.5-.5,1.5-2-1-1.5,1.5-5v-3.5l-.5-3,2-8-.5-4"/>
      <path data-code="ORE-TYU" d="m186.18,185.75l4,1,1-2h2l2-1.5,1,1.5,2.5-.5v-1l1.5-1.5-4,1-.5-2,2-1.5.5,1,3.5-1.5-.5-1,1-4,1-.5,1.5-4,2.5.5-1.5,3h1l2-2.5,1.5,1.5,4-4-.5-2,3.5,1.5-2.5.5,3,1-1,2.5h1.5l1,4.5,5-1.5,2.5,1v1l-2,1,.5,1.5h-2.5l-.5,1.5h-1.5l-1,5.5,2,.5,1.5-3,1,3-3,1.5-.5,1.5-1,2.5-.5.5-.5,2.5-4.5-.5-1.5,1v.5l-2.5.5-1,1.5-.5-1.5-3,3-.5,1.5-4-.5-1.5-1-.5-2-6-1.5-.5,1.5-1-1,1-1.5-7-3,.5-6"/>
      <path data-code="ORE-TOT" d="m62.18,133.4l1-.5.5-3,1,.5,1.5-3.5,1.5.5,1.5-2.15-1-1.5.5-2-4-1.35,1-2.5,1.5-1,1,.5,1-2,3.5,2.5,1-1-1-2.15,1.5-2.35,2.5,2.35,2.4-3.7,3.1-1.15,4.5-7,3,3-1,2,.5,1,2.5.35,1-2.85h.5l3,1v.85l-.5.5v.65l4,.5,3,2.35,1.5-1,1,2-2,1.5-.5,6-1.5,1-4,9-1.5-1,1-2-3-1.5-3,2.5v2.5l-1,1,.5.5-4,7,1,.5-1,2.5h-1l-.5,1.5-1-1-1,2.5-1.5,1-1.5,2.5,1,1-.5,1h-2v-1l-4.5-2-3.5,2.5-.5-.5-1.5,1.5-5.5-6,3-2.5-1-.5-.5-3.5-7-2.5-2.5-2.5,2-3.35,5.5,2.5Z"/>
</svg>