<svg xmlns="http://www.w3.org/2000/svg" viewBox="0 0 123.5 137.95">
      <path data-code="ORL-BOL" d="m73.25.75l-.5-.5,2.5,1.5v1l-1,.5,2,1.5v1l5-3,2,.5,3-1.5h1.5l-.5,2,1.5,2.5-2,1.5-.5,1h1.5l2.5,4.5h2.5l-.5,1,2,1-.5,1-1,1v2l-1,1,1.5,1.5-.5,1.5-2-.5-1-2.5h-1.5l-1.5,2-5,4v.5l-2.5,1-1.5-1.5-2.5,2v.5l-1,1-.5-.5,1-1h-2v-2.15l-2.5-1.5-2.5-4.5,2.5-1.5-.5-1.5,2.5-.5-2-3,3-2-1.5-2,.5-1v-2l-1-1,1.5.5,1-2.85-1.45-.85.95-1.65Z"/>
      <path data-code="ORL-DMI" d="m.75,46.25l2-1.5.5-1.5h2.5l1.5-1.5,2.5,1.5,4-4,1.5-.5.5-2.5,1-1,2.5,1,2.5-1,1.5.35.5,1.5-.5,3,1,1.5,1-.5v2.5l-1,1v4l2.5,1,1.5-.5,2,.5,1.5.65v3l-2.5,1-.5,1-4-.5,1,1-.5,1.5,1.5-.5-.5,1.85-1,.5.5,1-2.5,1-3-2.85-2,1.5-1-.5,1,1-1.5.5-2-1.5-1-2.5-1,.5-2-1.5-1.5,1.5-.5-1-1.5.5-4-1.5,1-2-2-2,.5-.5-1.5-2.5H.25l.5-2"/>
      <path data-code="ORL-DOL" d="m59.25,121.25l2.15-2.35,4.35.35v-2l1-.5-.5-1.5,2,.5.5-.5,2-.5,1.35-.8,2.15,1.3v3.5l2.5,2,1.5-1.5,1.5,1,.5-1,2.5.5-2,4,3,1-.5,2,1.2,1.2-1.4.5.2.75-.5,1.5h-1l-.5,1.5-1-.5-1,1v1h-1l-1,1.5h-.5l-3,2.5-1.5-4-3.5-3.5-3,2.5h-3l-.5-4,.5-2-2-1-1.5-4.45"/>
      <path data-code="ORL-GLA" d="m43.25,66.25l3,2.5h1l.5-1.5.5.5-.5,2,2.5.5,1.5-1,3,1.5.5,3-1.5,1,1,2.5,1-.5,2.5,1.5.3,1.5-4.8.5v1l-5-1-.5,1.5-2-2.5-.5.5.5,2-4-1-2.5,1-1-1-1.5.5-.45-1.05,1.45-.6-1.5-1v-3.5l1.5-2.5h2l1.5-1.5-2.5-2,.5-1.85,3.5-1Z"/>
      <path data-code="ORL-KHO" d="m43.75,6.25l1.5-2,.5.5,1.5-1,4,2.5,1-2.5,4,2.85-1.5,2,1,1,1.5-.5,1,2-1,1v.5l2,.5-1,1-1-1-1,3-2-1-.5,2.5.5,2.5,1.35.9-.85,2.25-.5.5.5,1h-2.5l-1,1.5h-1l-1.5-.5v-2l-1.5.5-1.5,2.5-1.5,1-1.5,2-1-2-3-1.5.5-1,1.5-.5v-3l1-1-.5-1,3-.5-1-1,.5-1.5v-1.5l-2.5-1.5,1-1.5-1.5-1,2-2-.5-.5,1.5-.5v-2"/>
      <path data-code="ORL-KOL" d="m48.25,99.75l2.5-1h2.5l1,1.5,1.5-1.5-.5-2.5h3.5l-.5-1,.5-.5,2.5,2.5,2.2-1.85,2.3-.3,2,1.5-1,.5-.5,2,3.5-.5,1,1.5,1-.5,1.5,1.5,1.5-1,2.5,2.65-1,1v1l-2.5,3-.5,5.5-2.5,1.5-2,.5-.5.5-2-.5.5,1.5-1,.5v2l-6-.5-1-2.5-1.5.5-.5-1-.5-1,1.5-1-3.5-.5-.5-2-2-2-1-3,.5-2.5-3-2.5v-1.5"/>
      <path data-code="ORL-KOR" d="m101.25,50.75l2-.5.5-1.5h1l.5-1,3,1v2l2,2,2,1h5l2.5,3v.5l-1,.5,1,1.5,3.5,1-4.5,5.5-2.2,5.75-2.8-1.9-4,1.15,1-2-3.5-.5.5-1.5-2-.5v-4h-1l.5-1.5-1-2.5.5-.5-.5-1.5,1.5-1.5-2-1.5-.5,1-1.5-.5-.5-3"/>
      <path data-code="ORL-KRA" d="m98.25,87.1l1-2.35,2.5-1,2,1.5,1.5-1,4.5,3h1v-1h1l1.5,1-.5,1.5.5.5h-.5l-.5,2.5,1.5,1.5-1,2.5-2,2h-4l-1,2.5h-1.5l1,1-1,1-1.5-.5-2.5.5-1-2.5.5-1.5-1.5-1-1.5,1v-4l-2.5-.5,1.5-2.5-1.5-2.15,1-3.5,3,1.5Z"/>
      <path data-code="ORL-KRO" d="m24.75,54.75l4,.5.5-1,2.5-1v-3l-1.5-.65.5-1.5,2.5,1.5.5-1.5h1l-.5-2h1.5l-.5-1.5h-.5v-1.5l4.5-.5,2.5,2,1.5-1.5,1-3.5v2l2.5.5-1.5,1.5,1.6,1.6-2.6,2.05,3.5-.5,1,.5v2.35l4.5.5-1,1,.5,1.5-2-.5.5,1-1,.65,1.15,1.3-4.65,1.55,1.5,2-1.5.5-1,3-1,1,.5,2.5,1.5,1-1.45,1.35-2.05-1.7-3.5,1-2.5-1.5,1-3-4-4.5-1.5-1-3,1.5-1-2-1,1.5-1-1.5-1.5.5.5-1.5-1-1"/>
      <path data-code="ORL-LIVM" d="m85.75,108.25l.5,1.5h2.5v2l1.5-1.5-.5-.5h.5l1-2h-.5l-1,1-1-1.5-1.5,1.5-1.5-.5m-9-9.5l3-1.15,2,2v2l3,1.5.5-4.5,1.5-.5,3.5,2v-2l1-3,3,1,2.5-.5v2.65l1.5-1,1.5,1-.5,1.5,1.5,2-1.5.5,2,3-.5,2h1l-.5,1.5-1.5-.5v.5l-2,.5,3.5,5-1,1.5-2.5-.5,1,4,.5-.5,1,.5-1.5,2.5,1,3.5h-1l-.5,1.5h-2.5l1,1.5-1.5,1h-1l-.5-1.5-4-1-1,1.5-1.5-1.5-2.5,1.5-1.5-1.5.5-2-3-1,2-4-2.5-.5-.5,1-1.5-1-1.5,1.5-2.5-2v-3.5l-2.15-1.3,1.15-.7.5-5.5,2.5-3v-1l1-1-.8-.8.3-3.2"/>
      <path data-code="ORL-LIV" d="m86.25,109.75l-.5-1.5,1.5.5,1.5-1.5,1,1.5,1-1h.5l-1,2h-.5l.5.5-1.5,1.5v-2h-2.5Z"/>
      <path data-code="ORL-MAL" d="m45.75,79.75l.5-.5,2,2.5.5-1.5,5,1v-1l4.8-.5.2.85.5-1.5,1,1,2.5-3-1,2,1,1-.5,3.5.5.5,2-1.5,1,1.5v1h-1l-.5,1-1.5,1v1l-1.5.5,1,1-.5.5-.5,2.5.5,1.5-.5,1,2.2.3-2.2,1.85-2.5-2.5-.5.5.5,1h-3.5l.5,2.5-1.5,1.5-1-1.5h-2.5l-1.5,1-2.5-2.5-1-3,1-2,1-6-.5-3-1.5-.5v-3"/>
      <path data-code="ORL-MTS" d="m92.75,38.25l-1-.5v1h-.5l-2.5-1,2-1-1-1h4l-1,2.5Z"/>
      <path data-code="ORL-MTSM" d="m89.75,35.75l1,1-2,1,2.5,1h.5v-1l1,.5,1-2.5h-4m-12-9.5l1.5,1.5,2.5-1v-.5l5-4v-1l1.5-1h1.5l1,2.5,2.5.5-.5,2.5,1.5.5-.5,2.5.5,2,1.5,1h2.5l1-1,1,3-1,1h-1l1,4-1,1h1l-.5,1.5,1,1.5,3,1.5-1.5.5,4.5,1v.5l-1,1.5.5.5-1.5.5-.5,1.5-2,.5.5,3-2.5-1v1l-4.5-2-1,.5v1l-.5-.5-1.5,2-1.5-1.5-1,2-2,.85-1.5-.5,1-1h-.5l.5-1-.5.5v-2.5l.5-.5-4-.5-4.5-2-2-5.35.5-2,1,.5.5-1-1.5-1,1.5-2,.5.5.5-1.5-.5.5v-1.5l-2.5,1.5-.5-1-1,.5.5-1-.5-1,1-.5.5-1-.5-3,2-.5-1.9-2,1.9-1.5Z"/>
      <path data-code="ORL-NVD" d="m102.25,71.1l.5-2.5,2-.5.5-2,2.5.65-.5,1.5,3.5.5-1,2,4-1.15,4,2.5h3.5v2.5l1.5,2.5-1,.5-1,2v3.5l-3.5,1.5v1.5l-1.5,1,.5,2-3,.5-.5-.85.5-1.5-1.5-1h-1v1h-1l-4.5-3-1.5,1-2-1.5-2.5,1,.5-1.15h-2l-.5-7.5h1l1.5,1-.5-2h-1l1-3v-1.25l3,.25Z"/>
      <path data-code="ORL-NVS" d="m91.75,54.75l1.5-2,.5.5v-1l1-.5,4.5,2v-1l4,1.5.5-1,2,1.5-1.5,1.5.5,1.5-.5.5,1,2.5-.5,1.5h1v4l-.5-.1-.5,2-2,.5-.5,2.5-3-.25v-1.25h-1.5l-1,2.5v1.5l-1-.5-2,1-.5-2h-1l-.5-3v2l-1.5-1-1.05,1.25-.45-4.25,1-3-1.5.5-1-2.5h1l1.5-4h-1l.5-2.85,1-2,1.5,1.45Z"/>
      <path data-code="ORL-ORJ" d="m60.75,43.1l.5-1.5,1-.5-.5-1h1l.5.5v1l1,.5,1.5-1,3.5.5,1,1.5-3-.5v2l-1,1.5v.5l-2,.5-.5-1.5-.5,1-.5-.5v2l-4-1.5-.5-3.5h2.5Z"/>
      <path data-code="ORL-ORL" d="m58.25,43.1l.5,3.5,4,1.5v-2l.5.5.5-1,.5,1.5,2-.5v-.5l1-1.5v-2l3,.5-1-1.5-3.5-.5-1.5,1-1-.5v-1l-.5-.5m0,0h-1l.5,1-1,.5-.5,1.5h-2.5m2.5-16.5v-1l2.7-1.6,1.8,1.6,2-.5.5-1-1-1,1.5-2.05,2,3.55,2.5,1.5v2.15h2l-1,1,.5.5,1-1v-.5l.6-.5,1.9,2-2,.5.5,3-.5,1-1,.5.5,1-.5,1,1-.5.5,1,2.5-1.5v1.5l.5-.5-.5,1.5-.5-.5-1.5,2,1.5,1-.5,1-1-.5-.5,2,2,5.35-2.5,1.5-1-1.5-5,1,.5,1h-1.5v2.5l1.5.5.5,1.5-3,3-5-.5-1.5,1.5-4.5.5v1.5l-1,.5v-4.5l-3-.5-2.5-2.85,1-.65-.5-1,2,.5-.5-1.5,1-1-4.5-.5v-2.35l-1-.5-3.5.5,2.6-2.05.4.4,2-2,.5,1.5h2l1.5-4,2,.5.5-.5.5-3-1-.5,2.5-1,1.5,1-1-2,1.5-1v-.5l1.5-1-3.5-5.5,3-1Z"/>
      <path data-code="ORL-POK" d="m64.75,71.6l.5,1.5,1.5.5.5-2,.5.5,1.5-1v-1l2-.5,2-2.5h.5l.5.5.5,2-.5,1-1,.5.5,1,1.5-1,1,2.5h1.5l1,1.5,1,.5.5,1-1,.5.5,3,3-.5.5-2.5,2,2-1,2.5.5.5h-.5l.5,2-3,3.5,1,1v2.5l-2,2.5-1,4-3,1.15-.3,3.2-1.7-1.85-1.5,1-1.5-1.5-1,.5-1-1.5-3.5.5.5-2,1-.5-2-1.5-4.5.5v-.5l.5-1-.5-1.5.5-2.5.5-.5-1-1,1.5-.5v-1l1.5-1,.5-1h1v-1l-1-1.5-2,1.5-.5-.5.5-3.5-1-1,1.5-3-1-2,1-1.5,1.5-1Z"/>
      <path data-code="ORL-SHA" d="m18.75,19.1l1,.5.5.5,1,.5v-1.5l1,.5v-1l1.5-.5,1,.5v-.5l1.5,2.5,1.5-2.5,1,1,.5-1,.5,2,1.5-.5.5,1.5h1l1,1.5.5-1,2.5-1.5,1.5,2,1.5-1,1,1.6v2.05l-1.5.5-.5,1,1.5.75-.05,6.25-4.45.35,1,2h-.5l-1-.5-1.5.5v-1.5l-1.5-1-1.5,1.5-1,1-3.5,2-2.5-.5-.5-1.5h-.5l-.5.5-.5-1.5-2.5-.5v-1.5l2.5-1.5-1.5-1.5.5-1.5-.5-2.5-1.5,1-.5-3,1.5-4-1-.5"/>
      <path data-code="ORL-SOS" d="m23.75,37.1l2.5.5,3.5-2,1-1,1.5-1.5,1.5,1v1.5l1.5-.5,1,.5h.5l-1-2,6.5-.5-.5,4.5h2.5l1,3-1-1-1,3.5-1.5,1.5-2.5-2-4.5.5v1.5h.5l.5,1.5h-1.5l.5,2h-1l-.5,1.5-2.5-1.5-.5,1.5-2-.5-1.5.5-2.5-1v-4l1-1v-2.5l-1,.5-1-1.5.5-3"/>
      <path data-code="ORL-SVE" d="m46.75,56.6l4.65-1.55,1.35,1.55,3,.5v4.5l1-.5v-1.5l4.5-.5,1.5-1.5,6,.5-2,3h2.5l1.5,2-.5,1-.5.5.5,1.5,2,.5v-.5l1.5,1h-.5l-2,2.5-2,.5v1l-1.5,1-.5-.5-.5,2-1.5-.5-.5-1.5-1.5,1-1,1.5,1,2-.5,1-2.5,3-1-1-.5,1.5-.5-2.35-2.5-1.5-1,.5-1-2.5,1.5-1-.5-3-3-1.5-1.5,1-2.5-.5.5-2-.5-.5-.5,1.5h-1l-.95-.8,1.45-1.35-1.5-1-.5-2.5,1-1,1-3,1.5-.5-1.5-2"/>
      <path data-code="ORL-TRO" d="m27.75,58.25l1-1.5,1,2,3-1.5,1.5,1,4,4.5-1,3,2.5,1.5-.5,1.85,2.5,2-1.5,1.5h-2l-1.5,2.5v3.5l1.5,1-.5,1-4.5-2-3.5.5-3-4.5-5,.5-2.5-1.5,4-4.5v-4.5l2.5-2.5-1.2-1.6,1.2-.4-.5-1,1-.5.5-1.85,1,1.5Z"/>
      <path data-code="ORL-URI" d="m41.75,27.75l1,2,1.5-2,1.5-1,1.5-2.5,1.5-.5v2l1.5.5h1l1-1.5h2.5l-.5-1,.5-.5.85-2.25,1.65,1.1,3.5-.5,2.7,2.4-2.7,1.6v1l-3,1,3.5,5.5-1.5,1v.5l-1.5,1,1,2-1.5-1-2.5,1,1,.5-.5,3-.5.5-2-.5-1.5,4h-2l-.5-1.5-2,2-2-2,1.5-1.5-2.5-.5v-2l1,1-1-3h-2.5l.5-4.5-2.05.15.05-6.25,1.5.75Z"/>
      <path data-code="ORL-VER" d="m80.25,74.1l2,1,3-3,2,1.5,3-3.5,1.5,1v-2l.5,3h1l.5,2,2-1,1,.5v-1.5l1-2.5h1.5v2.5l-1,3h1l.5,2-1.5-1h-1l.5,7.5h2l-1.5,3.5-3-1.5-1,3.5,1.5,2.15-1.5,2.5,2.5.5v1.35l-2.5.5-3-1-1,3v2l-3.5-2-1.5.5-.5,4.5-3-1.5v-2l-2-2,1-4,2-2.5v-2.5l-1-1,3-3.5-.5-2h.5l-.5-.5,1-2.5-2-2-.5,2.5-3,.5-.5-3,1-.5-.5-1,.5-1.5"/>
      <path data-code="ORL-ZAL" d="m68.75,50.6h1.5l-.5-1,5-1,1,1.5,2.5-1.5,4.5,2,4,.5-.5.5v2.5l.5-.5-.5,1h.5l-1,1,1.5.5,2-.85-.5,2.85h1l-1.5,4h-1l1,2.5,1.5-.5-1,3,.45,4.25-1.95,2.25-2-1.5-3,3-2-1-.5,1.5-1-.5-1-1.5h-1.5l-1-2.5-1.5,1-.5-1,1-.5.5-1-.5-2-2-1.5v.5l-2-.5-.5-1.5.5-.5.5-1-1.5-2h-2.5l2-3h-1l3-3-.5-1.5-1.5-.5v-2.5"/>
      <path data-code="ORL-ZNA" d="m56.25,6.6h1l2.5-3.5,3,1,1-1-1-1.5,3.5,2.5,1-.5-1.5,1h-1.5l1,.5.5-.5,1.5-.5,1.5-1.5,1.5-.5.5-.5,3,1.5-1,3-1.5-.5,1,1v2l-.5,1,1.5,2-3,2,2,3-2.5.5.5,1.5-2.5,1.5.5.95-1.5,2.05,1,1-.5,1-2,.5-4.5-4-3.5.5-3-2-.5-2.5.5-2.5,2,1,1-3,1,1,1-1-2-.5v-.5l1-1-1-2-1.5.5-1-1,1.5-2"/>
</svg>