<svg data-code="RU-PER" xmlns="http://www.w3.org/2000/svg" viewBox="0 0 318.25 379.11">
    <g data-code="permskij_kraj" data-title="permskij kraj">
      <path data-code="aleksandrovskij_rajon__permskij_kraj_" data-title="aleksandrovskij_rajon_(permskij_kraj)" class="cls-1" d="M170.62,190.12l4-4.5,2.5,1v-2l1-.5,2.5.5-1-1.5,1-2,2.5-.5v-.5l2-1-2-3,1.5-1,1-2h2.5l1-1,.5.5-1-3.5,3.5-3.5v-1.5l7-.5,2.5-3.5,3,2,1.5-2,2,1.5,4.5-5.5,3.5-5.5,2,1.5,1.5-2,4,3.5,2-2,10.5,7.5,1.5-2.5,2.5,1.5,1.5-2.5,7,5-7,9-3.5-2.5-10.5,14.5,3,1,1.5,3v6l-.5,4,1,2.5-1,1-3-2-1,2-10.5-7.5-5.5,8-9.5-2.5-6.5-4.5-.5,1-1.5-.5-1,1-.5-.5-1,1,.5,1.5-1.5,1.5-2.5-.5-1,1-3.5-2-3,4.5-2.5-.5-4,1.5-2-1-.5-3.5.5-.5,1.5-.5.5-1.5,3.5-3-.5-.5-1,1-2.5-.5-.5-1.5h-2"/>
      <path data-code="bardymskij_rajon" data-title="bardymskij rajon" class="cls-1" d="M55.12,295.62h2l1-1.5-1.5-.5,1.5-3.5,2,.5,1-.5-.5-1,3-1,1,3,2,2h6-.5l.5.5-1,.5.5.5h-1l.5,2,1.5.5,1.5,2h2.5l1.5-1.5,2,1.5,1.5-2.5,4-2,.5-1.5-.5,6-2,2,1.5,1.5.5,2.5-1,1.5-1.5,1,1,1-2.5,2,3.5,2.5-4,3.5v1l1.5-.5.5,1.5h-1l-.5,1.5-2,1v3l-2.5,1,.5,1.5h-1.5l-2-2.5.5-1-1.5-.5v1.5l-2-1-3,2v3l-1.5-.5-4.5,2.5h-.5l-.5-1.5.5-.5.5-2h-2v1.5l-2-2,1.5-1-.5-1.5.5-1-3.5-.5-1-1.5-1-2.5,3,.5v-3l-3.5-1-1,.5-2-1,1-1-.5-1.5,3-2.5,1-3,2-2.5-2-.5-.5-1.5-1.5-1,2-2-.5-2.5"/>
      <path data-code="bereznikovskij_gorodskoj_okrug" data-title="bereznikovskij gorodskoj okrug" class="cls-1" d="M173.62,155.12l4-3,.5.5-1,1.5v1l1-.5-.5,1,5,3.5h1v1l1.5-.5-1.5,2.5.5.5-1,1.5,1,.5-.5,1-1-1-.5,1h.5l-1,1.5-1.5-2-1,1.5.5,1,3.5.5-4,.5,2,3-1.5.5,1,1,2-.5v2l-3,.5-4-2.5v.5h-1.5l1.5-1-1-.5.5-1,1.5-.5-3-1.5v1l-1,1-1.5-2-1-3,1.5-1.5h2.5l1.5-2-1.5-2.5-1,2.5-1-1,.5-1v-1l1-.5v-3.5"/>
      <path data-code="berezovskij_rajon__permskij_kraj_" data-title="berezovskij_rajon_(permskij_kraj)" class="cls-1" d="M133.62,277.62l5,1.5,2.5-2,1.5-4.5-.5-2,2-4,3,2-1.5,1.5,1.5,1.5-1.5,2,4.5,1.5.5,4.5,2.5-.5.5-2h1l-1-1,2-.5,3,1.5,1.5-2,.5,1-1.5,1-.5,2,3,2v-.5l1.5.5.5,1h1l-1,2v2l1-.5v-1l.5,1v.5l-1,.5.5,1.5,1-.5-.5.5.5,1,2,1,.5-.5-.5,2,3.5,2-1,1v1l-1.5,1.5.5,1.5-1.5.5-.5-1,.5-1-1-.5-1.5,3h-1.5l-1,2-1.5-.5-4,2.5-1-1.5-1.5,1-2,2h-1v-1.5l-2.5-2v1.5l-1.5.5-2.5-1.5-1-1,1-1.5-.5-3,1-.5-4.5-2-1,1-1,2h-1l-.5-2.5-2-1.5,1-1-2-3,1-1.5,1,1,.5-1.5-2-1.5,1-3.5-.5-.5.5-1.5-2.5-2.5"/>
      <path data-code="bol_shesosnovskij_rajon" data-title="bol&amp;apos;shesosnovskij_rajon" class="cls-1" d="M35.62,239.62l1.5.5h1v-1l2.5.5-1.5-3,.5.5,1-2.5,2.5-.5,1.5.5-.5-3,1,.5,1.5-2v-2.5l.5-.5,2-3.5,1,2.5-1,2.5,3,2.5.5,2.5,1.5-.5v1.5l2.5,3,1-1.5,5,2v1l2,2-1,1,3.5,2v1l-1,.5v.5h-1l.5,1-.5-.5v1.5l1.5,2-.5,2.5-1,.5.5.5-4,3,1,2-1.5.5h-3v-2l-2-2-1.5,1.5-2,2.5v2l-3,1.5-.5,1,1,3.5h-2l-1,1,.5,1.5-1,2,.5,1-4.5-4-.5,1h-1.5l-2,1-.5-1,2.5-1-1.5-1.5-1.5,1.5-2.5-1v-2l1.5-.5v-1.5l1-1.5-4-1v-1.5l-1.5-.5.5-2.5,1.5-1-.5-1,1.5-1,2,1,3.5-.5-.5-1,1-1.5-3.5-3,1-1,1-1-1.5-2-2-.5-.5,1-.5-1h1v-1h.5l.5-1-2.5-1,1-1v-.5"/>
      <path data-code="chajkovskij_rajon" data-title="chajkovskij rajon" class="cls-1" d="M1.62,298.62l-.5,1,3.5,1.5,6.5-1-2.5-1v-1.5l-2,2-2.5-2-1,1h-1.5M5.62,286.12l1-1,2,1.5.5,4.5,3,1.5,3-2.5,2-2.5,1-2h1l1.5-1.5,2-3.5h2.5l2,2.5,2.5.5-2,1.5-1,2,2,1-1.5,3h2.5l.5-1.5,2-2,1,1-1,.5.5,2.5.5-.5.5-1.5,2-1,2,1.5.5,1.5-3,.5v2.5l-.5,3-1.5,2.5-1,.5.5.5h1.5v-1l2.5.5,2.5,2,.5,2-1,2.5,2,2-6-.5h-2l-1,1h-3.5v1l-2,2-3.5,1.5-.5,1.5-1,.5-2,2.5h-1l-2,3-1,.5-2,3v-2.5l-1.5-.5v-2l1.5-5.5-3.5.5v-4l.5-2-2-1.5.5-2.5-1-.5v-1l-1,.5,3-3.5-5,1-4-2,1-1.5.5.5,1-2.5,2-.5-.5-.5,1.5-2-1.5-1,1.5-2.5-1-.5v-1.5l1.5-.5-1-1"/>
      <path data-code="chastinskij_rajon" data-title="chastinskij rajon" class="cls-1" d="M31.12,274.12l.5.5,1-1.5,1.5-1v-2.5l1-1.5,2.5.5,1.5-1.5,1.5,1.5-2.5,1,.5,1,2-1h1.5l.5-1,4.5,4-.5-1,1-2-.5-1.5,1-1h2l-1-3.5.5-1,3-1.5v-2l3.5-4,2,2v2h1.5l3-.5-1-2,2.5-2h2l2.5,1.5.5,2.5-1.5,1,1,4.5-.5,2,.5,1-1,1,1,1-1.5,2-2,1-1.5-2-3.5,3-3.5,5.5-1.5,3.5v3.5l-2.5,1.5-4-1-5.5,1.5-2-1v-4l-1-1.5-6.5,1-1.5-2,.5-1-2-3,.5-2"/>
      <path data-code="cherdynskij_rajon" data-title="cherdynskij rajon" class="cls-1" d="M165.12,44.62l5.5-7,4,3,6.5-8.5,12,9.5,7-8.5,12.5,9.5,10-15,5,4.5,3-4.5,1,1,1.5-2.5,11.5,9,1-1.5,47.5,20.5-2,5-1-.5-2.5,5.5-1-.5-5,11,1,.5v5l-1.5.5-1,1-2,6.5.5,1-3.5,5.5-1-.5-2,3-1.5.5.5.5-1.5.5v-1.5l-1.5-1-2,3.5-2-1.5-3.5,5.5h-4.5l-10.5-10.5-1,2-2-1.5-1,1.5-5-4,.5-1-1-1,.5-1-1-.5,1-1-5.5-4-3,4.5-1-1-2,3-1-.5-2.5,3.5-2-1.5-.5,1-1-1-1,1.5-1-1-1.5,2-1.5-1-3.5.5v2l1.5,2.5-1.5,2.5-2.5,1.5-1.5-2-3.5-1-1,1h-1.5l1.5,3h-1v1.5l-6.5-1-1,3.5,1,2.5-3.5,2.5-1-1.5-2,2-5.5,10.5-1,5-1-1.5-.5,1v1l-2,2-1.5-1.5-2.5.5-6-4.5,2-3.5-1-1,2-2-2.5-2,.5,1-.5.5-1-1.5.5-1h-.5l-1.5.5-1.5-2-1.5,1v-1l.5-1-4-3.5,2.5-3.5-6-4.5,2.5-9.5-7.5-1,8-10-6-5,4-5.5,1.5-3v-.5l6-9,1.5-3.5h1l3.5-5-4.5-4"/>
      <path data-code="chernushinskij_rajon" data-title="chernushinskij rajon" class="cls-1" d="M88.12,329.12l2.47.32.03,4.18.5,2.5-.5,1-1.5-.5-.5-3.14,1.5.14-1-1-1-3.5M62.62,330.12l4.5-2.5,1.5.5v-3l3-2,2,1v-1.5l1.5.5-.5,1,2,2.5h1.5l-.5-1.5,2.5-1v-1l3,1.5,1.5,1.5-.5.5,1.5,2v1l.5,2.36-.5,1.5,2.5.5.5.64h-3l-.5,2.5-1,.5.5,2,1.5-.5-1-1,1-.5,2.5,1.5,1,2-1.5,1h-2.5v1l-1.5-1v1h-1.5l1,2,2.5-2h4v1.5l.5.5h-1.5l-1.5,1.5-4.5-.5-.5,1v1h1l1-1h1l1,1.5-1,1.5-3.5-.5-.5,2,1.5,1,.5-1,1,1-2.5,2-.5-1.5-1.5,1.5v-1.5h-1l.5-.5v-1.5l-2,.5-.5,2-1.5-1-1,1.5-2,1v.5l-1.5-2h-5.5v-4l-2-3.5,1-5-1-1,.5-.5,1.5-4-1.5-2,1-.5-.5-.5-2,1v-1.5l1-.5-1-1.5"/>
      <path data-code="chusovskoj_rajon" data-title="chusovskoj rajon" class="cls-1" d="M139.12,238.12l1.5,3h2l-.5-3.5,4-1.5,3,.5,1.5-2.5-1-1,1-1.5h1l2-3,5.5,6,1-1,2.5,1,1.5-.5,2,1.5,1-2-2.5-2,.5-2.5,5-5,.5-1.5-1-1,2-2.5,3.5-2.5,7.5,8,.5,4-.5,1.5,1.5,1h-.5v1l-1,2h-.5l-.5,2,6,4.5,1-1,2.5,2v1.5l1,.5-1.5,1h2l-1.5,2,2.5,2.5-2,3.5-.5,2.5-1-.5-.5,4-3,1.5-6,1.5,1-7.5-8,1-.5-2-5.5.5-.5-1-3,1-1,1.5.5,2.5-2.5-2.5-2.5,1-2-1-2.5,4h-1.5l.5,1.5-6-4.5-1,1-2,1-1-1-3,.5-2.5-1,1.5-4.14h.5l-1-1.5,4-6-3.5-2.36-1-3.5,1-1Z"/>
      <path data-code="dobrjanskij_rajon" data-title="dobrjanskij rajon" class="cls-1" d="M123.12,222.62l1.5-2,2,1,2.5-2.5-.5-.5,1-1-1.5-.5-.5-2.5,2.5-3,3.5-.5-2.5-3,.5-2,11-9,4.5-6.5,1-6.5-1-3.14,7,.64,4-1.5,2,3,2,.5v2l-1,.5,3.5,4,4,1.5,3.5-1.5,1.5,1-.5.5,2.5.5,1-1,.5.5-3.5,3-.5,1.5-1.5.5v4l2,1,4-1.5,2,1-2.5,4h-1v1l-1.5-1.5-2,1v2.5l1.5,1-3,4.5,4,3-3.5,2.5-2,2.5,1,1-.5,1.5-5,5-.5,2.5,2.5,2-1,2-2-1.5-1.5.5-2.5-1-1,1-5.5-6-2,3h-1l-1,1.5,1,1-1.5,2.5-3-.5-4,1.5.5,3.5h-2l-1.5-3-1,1,1,3.5-4-1.5,2,3.5-2,.5-2-2-.5-3-4-1-1-2,3-3.5.5-1.5-3-3v-3l-5-3.5"/>
      <path data-code="elovskij_rajon" data-title="elovskij rajon" class="cls-1" d="M26.62,287.12l1-2,5.5-4,.5,1,6.5-1,1,1.5v3.5l2,1.5,5.5-1.5,4,1,2.5-1.5v-2l4-.5.5,1-1.5,2.5.5.5-.5.5.5,1-1,1,.5.5-1.5,3.5,1.5.5-1,1.5h-2l.5,2.5-2,2,1.5,1,.5,1.5,2,.5-2,2.5-1,3-3,2.5-2-4-2,1.5-1.5-1-1.5,1-1.5-1-3.5.5-1-2,1-1.5-.5-2-2.5-2-2.5-.5v1h-1.5l-.5-.5,1-.5,1.5-2.5.5-3v-2.5l3-.5-.5-1.5-2-1.5-2,1-.5,1.5-.5.5-.5-2.5,1-.5-1-1-2,2-.5,1.5h-2.5l1.5-3-2-1"/>
      <path data-code="gajnskij_rajon" data-title="gajnskij rajon" class="cls-1" d="M60.62,17.62L73.62.62l12,10,6.5-8,10,8,6.5-9,14.5,11.5-6.5,8.5,6.5,5.5,6,4.5,6-8.5,29,23,1-1.5,4.5,4-3.5,5h-1l-1.5,3.5-6,9v.5l-1.5,3-4,5.5,6,5-6.5,7.5-1.5,2.5v.5l-2,1-.5-.5,1-.5-.5-2,1.5-3.5-3.5,2-3.5-2.5-3.5-1-4.5-2.5,2,2-1.5.5,1,1-1,1-2-1.5v1.5h-1l-1-2-5.5,8.5,1.5,1v2.5h-.5l-4-3h-2v-1l-2,1-8-2.5-6.5-4.5-1-2-4-1,2-8.5-2.5-9.5v-.5l-4,4-13.5-6.5-13-9-2.5-5,5.5-7.5-1-.5.5-1,2.5-3.5-6-5,3.5-4.5-10-8"/>
      <path data-code="gornozavodskij_rajon" data-title="gornozavodskij rajon" class="cls-1" d="M186.62,236.12h1l1.5-1.5-.5-1,5.5-8.5,1,1,1.5-2,10.5-1.5,5,3,9.5-14v-1.5l5.5-4.5,7-5,6.5,3.5v2l5,7-7.5,8,2.5,4.5-2.5,2.5-2.5-1-2,4-1,5,1.5.5-1.5,3.5,3,1,1.5,3h3l-.5,3-2.5,5-1,7.5-3.5,2.5-3.5-1-3,4.5v1l-2.5-.5-1.5,3-2.5-1.5.5,2-6.5-4-1.5,2.5-1-1-1.5,2-1-.5-1.5,2-1-.5-1.5,2.5-.5-.5-3.5,1.5-.5,2.5-1.5.5-.5-.5-2,.5v1.5l1,1.5-.5,2.5-5.5,1v-2.5l-2-3-8.5-9,.5-4.5-1.5-1,1-1.5,9-2.5.5-4.5,1,.5.5-2.5,2-3.5-2.5-2.5,1.5-2h-2l1.5-1-1-.5v-1.5l-2.5-2-1,1-2-1.5,1.5-1.5-.5-1.5"/>
      <path data-code="gremjachinskij_rajon" data-title="gremjachinskij rajon" class="cls-1" d="M175.12,216.62l2,.5,1.5-2.5,2,.5,1.5,2,3.5-.5,3,2,1-1.5,2-.5,3,2,4.5-3,1.5-2.5,6.5-1,3.5-2.5,2-.5,7,.5,2,.5v1.5l-9.5,14-5-3-10.5,1.5-1.5,2-1-1-5.5,8.5.5,1-1.5,1.5h-1l.5,1.5-1.5,1.5-4-3,.5-2h.5l1-2v-1h.5l-1.5-1,.5-1.5-.5-4-7.5-8"/>
      <path data-code="gubakhinskij_rajon" data-title="gubakhinskij rajon" class="cls-1" d="M172.62,205.62l1.5-1,2,1.5v-1h1l1.5-3.5,1.5-1,1-1.5h.5l1.5-3,8,5.5-.5,1,3.5,2.5-.5,1.5,10,6-3,.5-1.5,2.5-4.5,3-3-2-2,.5-1,1.5-3-2-3.5.5-1.5-2-2-.5-1.5,2.5-6-3.5,3-4.5-1.5-1v-2.5"/>
      <path data-code="il_inskij_rajon__permskij_kraj_" data-title="il&amp;apos;inskij_rajon_(permskij_kraj)" class="cls-1" d="M112.12,181.12l1.5-1-.5-1,2-2.5,3.5,4.5,2.5.5,2.5-2.5,6,.5,1.5-2,1,1-.5,1v.5l1-1,1,.5,1-1.5,2.5.5,4.5,5.5,1,13-11.5,9.5v1.5l2.5,3h-3l-3,3.5.5,2.5,1.5.5-1,1,.5.5-2.5,2.5-2-1-2.5,2.5-.5-.5.5-1-1.5-.5-.5,1v1l-1.5,1.5-2.5-1.5-.5-2-4.5-3-1.5-2.14-1.5.5-1-1.5,1.5-1.36-1-1.5.5-.5-.5-1.64-2-.36.5-3.5-.5-2.5h2.5v-.5l.5-1h-1l.5-1-2-4,.5-2,1-1.5,1,1-.5-1,1.5-3,3.5-2-3-2.5,3-4.5-1-.5"/>
      <path data-code="jurlinskij_rajon" data-title="jurlinskij rajon" class="cls-1" d="M65.62,116.12l7.5-4.5,10-14,4,3,3-3,3,4.5,1,.5-3.5,4.5,2,1.5-1.5,2,2,1.5-1,2,4,3.5v.5l1,1.5,2,.5,2.5,3.5,1.5-.5,1,2.5,4.5,1,9-1.5,2.5,1,2-2,1,1.5.5-1.5,5,3.5-1.5,2,2,1.5-2,2.5,2,1.5-1.5,2.5,3,2-5,7-4-3.5-.5,1.5-4.5-3.5-1,1-6-4.5-.5,2-2,2h-4l-4-3-4,2-1,2h-1l.5-2-3.5-2-2.5-.5-1.5-2.5-4-.5-.5-3.5-.5-.5h-4.5l-1,1.5v2l-2,1.5v2.5l-9.5-7,1-13,.5-2.5"/>
      <path data-code="jus_vinskij_rajon" data-title="jus&amp;apos;vinskij_rajon" class="cls-1" d="M97.12,168.12l6.5-5,1,.5,1-4.5,3,1,1.5-1,1.5-2.5,2-2.5-1.5-1,1.5-2h1l9,8.5,7.5-9,4,3,1.5-2.5,2,2-.5,1,1,1-.5,1,1.5,1-1.5,1-.5,1.5,4,2.5,2.5-3,3,2.5.5-1,3,2,2-.5-.5,1,2.5,3.86-1,1.5-1.5,4-3,3.5-2.5,5,1,3.14-1,6.5-4.5,6.5-1-13-4.5-5.5-2.5-.5-1,1.5-1-.5-1,1v-.5l.5-1-1-1-1.5,2-6-.5-2.5,2.5-2.5-.5-3.5-4.5-2,2.5.5,1-1.5,1-7-5.5-7.5-1.5,2.5-3.5-3-2.5"/>
      <path data-code="karagajskij_rajon" data-title="karagajskij rajon" class="cls-1" d="M76.12,201.62h1.5l1-1.5-1-1,1,.5.5-1.5,1-.5.5-1.5,2,1.5,1-1,1.5-2v-2l.5-.5-1.5-1h1.5l1-3-.5-.5,2-2h1.5v-.5l1.5,1.5,2-.5.5,1.5,1-1.5.5-1,1.5-1-.5-3,3-1.5h-.5l.5-1-1-2v-1.5l1,.5.5-1,5.5,1,8,6-3,4.5,3,2.5-3.5,2-1.5,3,.5,1-1-1-1,1.5-.5,2,2,4-.5,1h1l-.5,1v.5h-2.5l.5,2.5-.5,3.5h-1.5l-1,1.86-2.5-1.5-7,3.14.5,1-1,1v1.5l-1.5,3.5.5.5-4-1.5-1.5.5v1.5l-2,2.5-2-1v-2h1l-.5-1,.5-.5-4-4,.5-1.5-.5-1.5.5-2.5-2.5-2.5,1-1,.5.5-.5-1-1.5.5-.5-.5,1.5-.5-.5-.5.5-1.5-2-1.5"/>
      <path data-code="kishertskij_rajon" data-title="kishertskij rajon" class="cls-1" d="M129.62,300.12l2-1.5,1.5-2.5.5.5,2-3.5,2,1.5.5,2.5h1l1-2,1-1,4.5,2-1,.5.5,3-1,1.5,3.5,2.5,1.5-.5v-1.5l2.5,2v1.5l4.5-3,1,1.5,4-2.5,1.5.5-1.5,2,1.5,1-7,10,1,.5-1.5.5,2,3h-.5l-.5,1,1,1-1.5,1.5h-1.5v1.5l1.5.5-1.65,2.6-4.85-3.23-1-3,.5-.5-2.5-.5.5-1-1.5-1.5h-2l-.5-2h-2l-1-1.5-1.5,1.5-2.5-.5.5-1-1-1h-2l-1.5-2-3-1.5-.69-.85,2.19-2.01-.5-1.5,1-1-.5-1.5v-1.5l-.5-.5"/>
      <path data-code="kizelovskij_rajon" data-title="kizelovskij rajon" class="cls-1" d="M186.62,198.12l1-1,2.5.5,1.5-1.5-.5-1.5,1-1,.5.5,1-1,1.5.5.5-1,6.5,4.5,9.5,2.5,5.5-8,10.5,7.5,1-2,3,2,1-1,1.5,2.5-12.5,9.5-9-1-9,4-10-6.5.5-1.5-3.5-2.5.5-1-4.5-3.5"/>
      <path data-code="kochevskij_rajon" data-title="kochevskij rajon" class="cls-1" d="M90.12,97.62l9-15,4,1,1,2,6.5,4.5,8,2.5,2-1v1l4,1-2.5,7.5-1-.5,1-3h-1l-.5,1-1.5-1v1l-1,2.5h1l-.5,3,1,.5-1.5,1.5,2.5,3-1,1,1.5.5-1,1.5v1.5l3,2-1,2,1.5,1-1.5,1,2,1.5,1-1,1,1,1-2,2,.5h-1l-.5,1.5-2,2-1.5-.5-1,3v-1l-1-.5-2,2-2.5-1-6.5,1.5-5.5-.5-2.5-3-1.5.5-2.5-3.5-2-.5-1-1.5v-.5l-4-3.5,1-2-2-1.5,1.5-2-2-1.5,3.5-4.5-1-.5-3-4.5"/>
      <path data-code="kosinskij_rajon" data-title="kosinskij rajon" class="cls-1" d="M119.12,98.62v-1l1.5,1,.5-1h1l-1,3,1,.5,2.5-7,2.5,1.5v-2.5l-1.5-1,5.5-8.5,1,2h1v-1.5l2,1.5,1-1-1-1,1.5-.5-2-1.5v-.5l4.5,2.5,3.5,1,3.5,2.5,3.5-2-1.5,3.5.5,2-1,.5v.5l3-1.5,7,1-2.5,9.5,6,4.5-6,6.5-3.5-3.5-1,1.5,2,.5-1,2-1.5-2-5,6.5,1,1-3,3.5,2,1.5-5.5,7.5,2,1.5-3,4.5-8,3.5-3-2,1.5-2.5-2-1.5,2-2.5-2-1.5,1.5-2-5-3.5.5-1.5,1-.5.5,1,2-2,.5-1.5,1-.5h-2l-1,2-1-1-1,1-2-1.5,1.5-1-1.5-1,1-2-3-2v-1.5l1-1.5-1.5-.5,1-1-2.5-3,1.5-1.5-1-.5.5-3h-1l1-2.5"/>
      <path data-code="krasnokamskij_rajon__permskij_kraj_" data-title="krasnokamskij_rajon_(permskij_kraj)" class="cls-1" d="M94.62,232.62h1l1-1.5h-.5l2.5-.5v-1l3.5.5-2.5,1,.5.5-.5,2,1-2.5h1.5l1-2,2-.5v-1l2-.5,1-2,1.5,1,1-2.5,2-.14-2-1,1-1.86v-2.5l4,3,.5,2,2.5,1.5,1.5-1.5v-1l.5-1h1l.5.5-.5,1,.5.5,1-.5,4,3-.5,1.5-1-.5-1,4,1.5,1.5-.5,1.5h.5v-1.5l1.5,1.5-2,1,1,1-2.5.5-3,4h-1.5l.5-1.5-1.5-1v1l-2.5-1.5-1,1.5-1.5-1-1,1.5-2,.5-7-5.5-1.5,1-.5,2-.5.5-1-1h-3.5l.5-1.5-2.5-2.5"/>
      <path data-code="krasnovisherskij_rajon" data-title="krasnovisherskij rajon" class="cls-1" d="M193.12,103.12l7,.5v-1.5h1l-1.5-3h1.5l1-1,3.5,1,1.5,2,2.5-1.5,1.5-2.5-1.5-2.5v-2l3.5-.5,1.5,1,1.5-2,1,1,1-1.5,1,1,.5-1,2,1.5,2.5-3.5,1,.5,2-3,1,1,3-4.5,5.5,4-1,1,1,.5-.5,1,1,1-.5,1,5,4,1-1.5,2,1.5,1-2,10.5,10.5h4.5l3.5-5.5,2,1.5,2-3.5,1.5,1v1.5l1.5-.5-.5-.5,1-.5h.5l2-3,1,.5,3.5-5.5-.5-1,2-6.5,1-1,1.5-.5v-5l-1-.5,5-11,1,.5,2.5-5.5,1,.5,2-5,4.5,2,.5-1.5,6.5,1.5,5.5-5h2l1,1.5,3.5-1.5.5.5-.5,2,1,2.5-2.5,4.5,1,2-1,1.5-2,1v4l-1,.5-1.5-.5-3,2v1.5l-2.5.5-1.5,3.5v2.5l-1.5,4,.5,1-.5,3.5-1,1.5.5,1-1,1v2l-1.5,3.5v2l2.5,1.5-2.5,6v1l-4,4.5v1.5l-2,2.5-1,3.5-5,6.5-4.5,2-2,1.5v1l-3,4-2.5,1,1,1.5-1.5,1.5-2,4.5-2.5,2-1.5,3-1.5.5v1l-3.5,5.5-3,1.5v1l-1.5,4-4-3.5-3.5,5-10-7-1.5,2.5-2.5-1.5-1.5,2.5-10.5-7.5-2,2-1.5-2,6.5-10-5-4.5-2.5,1-1.5-1-1.5,2.5-2.5-2-8-.5-8.5-6.5,5-6.5-11-8-.5-2,.5-1-3-1,.5-1.5,3-2-1-2.5.5-3"/>
      <path data-code="kudymkar" class="cls-1" d="M96.12,156.12l1.5-.5v2h2l-.5-1.5-1.5-.5,1.5-.5,1,1v2l1-.5v1h-.5l-.5,1.5-1-.5.5.5h-.5l-.5,1.5.5,1-1.5-1.5h.5v-1.5l.5-1-1-.5-1.5.5,1-2.5h-1"/>
      <path data-code="kudymkarskij_rajon" data-title="kudymkarskij rajon" class="cls-1" d="M96.12,156.12h1l-1,2.5,1.5-.5,1,.5-.5,1v1.5h-.5l.5,1,1,.5-.5-1,.5-1.5h.5l-.5-.5,1,.5.5-1.5h.5v-1l-1,.5v-2l-1-1-1.5.5,1.5.5.5,1.5h-2v-2l-1.5.5M75.62,132.62l1-1.5h4.5l.5.5.5,3.5,4,.5,1.5,2.5,2.5.5,3.5,2-.5,2h1l1-2,4-2,4,3h4l2-2,.5-2,6,4.5,1-1,4.5,3.5.5-1.5,4,3.5,5-7,6.5-3,5,5-5,7,1,1-1,.5,1,1-.5,1-1-1-1.5,2.5-4-3-7.5,9-9-8.5h-1l-1.5,2,1.5,1-2,2.5-1.5,2.5-1.5,1-3-1-1,4.5-1-.5-6.5,5,3,2.5-2.5,3.5,2,.5-.5,1-1-.5v1.5l1,2-.5,1h.5l-3,1.5.5,3-1.5,1-.5,1h.5l-1.5,1.5-.5-1.5-2,.5-1.5-1.5v.5h-1.5l-2.5-4-2-.5-5.5-6v-1.5l-7-5-2-2.5,1.5-1-1.5-1,.5-.5v-1l.5-.5-2-3.5v-2.5l1-2,1-5.5,1.5-2,4.5-1,1-1.5,1-1v-2.5h-1.5l-1-8"/>
      <path data-code="kuedinskij_rajon" data-title="kuedinskij rajon" class="cls-1" d="M22.12,314.62l2.5-2h1.5l2-2v-1l1-.5,2,1,3.5-1.5,5.5.5-.5-1,3.5-.5,1.5,1,1-1,2,1,2.5-1.5.5,3,1.5,2.5-1,1,.5.5,6,1v3l-3-.5,2,4,3.5.5-.5,1,.5,1.5-1.5,1,1,1.5,1,.5.5-1.5h1.5l-.5,2-.5.5,2,3-1,.5v1.5l2-1,.5.5-1,.5,1.5,2-1.5,4-2,2h-1l-1.5-2.5-2.5-.5-1,1.5-6.5-.5-3.5,2h-3l-3.5-2-1-4.5-1,.5-.5,2.5-1,1-1.5-1,1-1.5-.5-1.5h-1.5l-1.5-1-.5,1.5h-.5l-2-2,1-3-2-2-.5-1.5,1-.5h-1l-1-1.5.5-.5-2-.5v-4.5l.5-.5-2.5-1.5,1-1.5-2-1.5"/>
      <path data-code="kungur" class="cls-1" d="M123.62,293.62l1.5-2.5,3,.5h-1l1.5,1.5-.5.5.5,1-1.5,3,2,2-2,1.5-1.5-1.5-.5,1.5-1-.5v-1l1-.5,1-3-1-1.5,1-.5v-.5h-2.5"/>
      <path data-code="kungurskij_rajon" data-title="kungurskij rajon" class="cls-1" d="M123.62,293.62h2.5v.5l-1,.5,1,1.5-1,3-1,.5v1l1,.5.5-1.5,1.5,1.5,2-1.5-2-2,1.5-3-.5-1,.5-.5-1.5-1.5h1l-3-.5-1.5,2.5M91.12,278.99l2-4v-2l5,3.14-2.5,2.5-.5,1.5h-1.5l-1,2.5,2.5-.5v-1.5l1-2,3-1.5h2.5l-1.5,2.5,2,.5v-1h1l1-1,.5-3,1-2.5h-.5l1.5-1,.5,1.5,2.5-1,.5,1-.5,1h2l-1,1.5-1,.5,1,1,2-1.5,3.5,1.5v1l3-1.5,4,1,2-3.5-.5-.5,1.5-1.5-2.5-3,2-.5-.5-2.5,1.5.5-.5,2h.5l.5-1.5,1-1,.5,1,5.5-1.5-2-3.5,2.5.5.5-1-1-3.5v-1.5l1-.5-1-.5,2-.5,4,2.5h1.5l.5-1,1.5,1.5,2.5-1,1-1,5.5,4.5-5,8-3.5-2-2,4,.5,2-1.5,4.5-2,2-5.5-1.5,2.5,2.5-.5,1.5.5.5-1,3.5,2,1.5-.5,1.5-1.5-.5-.5,1.5,2,2.5-2,2.5-1,2-.5-.5-1.5,2.5-2,1.5.5.5v1.5l.5,1.5-1,1,.5,1.5-2.19,2.01-.81-1.01-1.5,1,.5.5-1,1-3.5-1.14,2-4.36-1-1-5-2-2,1-2-.5-.5.5v.5l-2.5,1.5h-2l-.5-1.5,1-.5-1.5-.5-1,.5-2,1.5-3-2h-1.5l-2,1.5-1-1-1,.5-.5,2,2,1-1.5,2-1-.5-1,1-4-1.14-2.5-3-1,1-1-2.36-1.5-1.5,2-2,.5-6.14-1-1.5,1-1v-1l2-3.5,1-6.5,1.5-.5Z"/>
      <path data-code="lys_venskij_rajon" data-title="lys&amp;apos;venskij_rajon" class="cls-1" d="M145.62,270.12l2-1.5,5-8,1-.5-1-.5.5-1,1,.5,2.5-4,2,1,2.5-1,2.5,2.5-.5-2.5,1-1.5,3-1,.5,1,5.5-.5.5,2,8-1-.5,6.5-1.5,2.5,1.5,1-.5,4.5,8.5,9,2,3v2.5l5.5-1-.5,1.5h-.5v4.5h2l-2,2.5,4,3-3.5,5.5v1.5l-1-1-14,7-1.5-2,1.5-3.5v-2h.5v-.5l-9-4.5.5-1-1.5.5-4-2,.5-2-.5.5-2-1-.5-1,.5-.5-1,.5-.5-1.5,1-1-.5-1v1l-1,.5v-3l1-1-6-3,.5-2,1.5-1.5-.5-.5-1.5,2-3-1.5-2,.5,1,1h-1l-.5,2-2.5.5-.5-4.5-4.5-1.5,1.5-2-1.5-1.5"/>
      <path data-code="nytvenskij_rajon" data-title="nytvenskij rajon" class="cls-1" d="M77.62,232.99l1-.5,1.5-2.5,3-3.5,2-.5-.5-2,2-2.5v-1.5l3-.5,2.5,1.5-.5-1,1.5-3v-2l1-.5-.5-1.5,7-3,2.5,1.5,1-2,3.5.5.5,1.5-.5.5,1,1.5-1.5,1.5,1,1.5,1.5-.5,2,2.5v2l-1,2,2,1-2,.5-1,2.5-1.5-1.5-1,2.5-2,.5v1l-2,.5-1.5,2h-1l-1,2.5-.5-.5,1-1.5-.5-.5,2.5-1.5h-3.5l-.5.5-2,1h.5l-1,1.5h-1l2.5,2.5-.5,1.5h3.5l1,1-8,4.5-4,4.5-2-1-.5-5-6.5-3-.5-1.5h1l-2-1v-2h-.5v1h-.5v-1.5M77.12,236.49h1l.5,1-1-.5-.5-.5M78.12,235.99v-.5l.5.5h-.5"/>
      <path data-code="ocherskij_rajon" data-title="ocherskij rajon" class="cls-1" d="M48.62,219.99l3-1.5h2l.5,1,3,1,1,2,4.5-.5.5-1.5,3.5-.5,2.5,1.5.5,2.5,3.5-.5.5,1,.5-1.5,1,2,1-.5v-1.5l1.5-.5,1,1h2v2.5h4l-1.5.5-3,3.5-1.5,2.5-1,.5v3l-3,3.5.5.5-2,.5-.5-.5-2,.5v1l-1.5-.5-3,3-2.5-2,1-1-2-1.5v-1.5l-5-1.5-1,1-2.5-2.5-.5-1.5h-1l-.5-2-3-3,1-2.5-1.5-2.5v-3.5"/>
      <path data-code="okhanskij_rajon" data-title="okhanskij rajon" class="cls-1" d="M78.12,235.99h.5l-.5-.5v.5M77.12,236.49l.5.5,1,.5-.5-1h-1M65.12,245.99l2-.5-.5-1.5,1-1.5,1-1h2v-1l2-.5.5.5,2-.5-.5-.5,3-3.5-.5-1.5h1v-1l2.5,3h-1l.5,1.5,6.5,3v4.5l2,2.5,2.5,1,1-.5-5,7-2-1.5-1.5,2-3.5,3v1.5l3.5,2,1,2-1.5,3.5-3,3-1,4-1.5.5-.5-1.5-4.5-2.5,3-3.5-2-.5-2,1-3.5-2.5.5-2-1.5-4,2-1-1-2.5-1.5-1.5h-2.5l1.5-1-.5-1h1l.5-3-1.5-2v-1h.5l-.5-1"/>
      <path data-code="oktjabr_skij_rajon__permskij_kraj_" data-title="oktjabr&amp;apos;skij_rajon_(permskij_kraj)" class="cls-1" d="M88.62,334.62l.5,2,1.5.5.5-1.14,2-1,2,1-1,1.5,1.5.5,2-.5-1.5-1,.5-1-.5-.5,1-1.5,1.5-.5-3.5-.5.5-1.5v1h4.5l.5-1.5h1l-.5,1.5,4.5,2.5,1-.5,4,.5,1-1.5,5.09-2.87-.09,1.87,3.5,3.54-1,2.96,1,4.5-2,1.5.5,1-.5,1,3,2.5-5,2.5,1,1.5h1.5l-1,2-2,2.5h-1l-2,3.5-.5,2-3,2.5v1l2,1v2l-2.5.5-.5,1-1.5-1.5v1h-1l-.5,2.5h-4v1.5h.5l-1.5,2,1,.5h-1.5l-.5,1-5-1.5-.5.5-1,1.5-1-1-3.5.5-1.5-1,.5-4-2-.5v-3.5l.5-.5-3-2.5.5-.5-.5-1,1-.5-2-1-.5-6.5h1l2.5-1.5-1.5-1.5,1.5-.5-1-1.5-.5,1.5-1.5-1.5.5-1.86,3.5.5,1-1.5-1-1.5h-1l-1,1h-1v-1l.5-1,4.5.5,1.5-1.64,1.5.14-.5-.64v-1h-4l-2.5,1.64-1-2h1.5v-1l1.5.86v-.86h2.5l1.5-1-1-1.64-2.5-1.86-1,.5,1,1-1.5.5-.5-2,1-.5.5-2.5h3Z"/>
      <path data-code="ordinskij_rajon" data-title="ordinskij rajon" class="cls-1" d="M94.12,308.12l1-1,1,.5,1.5-2-2-1,.5-2,1-.5,1,.86,2-1.36h1.5l3,2,2-1.5,1-.5,1.5.5-1,.5.5,1.36,2,.14,2.5-1.5v-.5l.5-.5,2,.5,2-1,5,2,1,1-2,4.36.5,4.5-1,.5v2.5l.5,2,2-1.5-.5-1.5h1v3l-1,1,1,3.5h-3l-1.5,2.5.5.5-2,1v1.5l-1-1-1.5,1.5h1.5l-.41,1.63-4.09,2.37-3.5-6.5.5-.5v-1.5l1.5-1.5v-3l-5-1-1-1.5,1-1-.5-1-1.5,1.5-2.5-.5-1.5,1-5.5-4-2.21-5.3,1.71.43Z"/>
      <path data-code="osinskij_rajon__permskij_kraj_" data-title="osinskij_rajon_(permskij_kraj)" class="cls-1" d="M56.62,278.49l3-5,2.5-2,1.5-1,1.5,2,2-1,1-2-.5-1,1-.5v-1.5l3,2,2-1,2,.5-3,3.5,4.5,2.5.5,1.5,1.5-.5,1-4,3-3,3,.5-1,1,6,3-.5,1,2.5,1.5-2,4-1.5.5-1,6.5-2,3.5v1l-1,1,1,1.5-.5,2-4,1.5-1.5,3-2-1.5-2,1.5h-1.5l-3.5-2.5-.5-2h.5v-.5l1-.5-1-.5.5-.5-5.5.5-2-2-1-3-3,1v.5l-1,1-1.5-.5-.5-.5,1-1-.5-2.5,1-2.5h-4.5l2-5.5"/>
      <path data-code="perm_" data-title="perm&amp;apos;" class="cls-1" d="M105.12,241.49l2.5-4.5,3,2.5,2-.5,1-1,1.5.5.5-1.5,3,2v-1.5l1.5,1.5-.5,1,1.5.5,2.5-4,3-.5,2,3,4,1.14.5,3.36-1.5,3,2.5,1.5v2l-2,3-3-2-1,2-2.5-1-2,2.5-1-.5,1-1.5-1-1.5-3,.5-1-1.5h-2l-1.5,2v2l-1,.5-1.5-4.5,1-1-2-1,2-1,1,1,.5-1.5,1-.5-.5-1-3.5-2-6,2.5-1-2.5v-1.5"/>
      <path data-code="permskij_rajon" data-title="permskij  rajon" class="cls-1" d="M125.62,226.99l.5.5,1-1.5,1,.5-.5,2.5,3,2.5.5,2-3.5,4-1-1-1-1.5,1.5-1-1-1.5v1l-.5.5v-2l-1-1.5,1-3.5M107.62,263.99v3l2.5,1.5,1-1,4,2.5.5-6-3-1v-2.5l-2,.5,1,2h2l-1,1.5-1-.5-1.5,2-2.5-2M80.12,258.99l3.5-3,1.5-2,2,1.5,5-7h-2.5l-1.5-1.5h1l4-4.5,8-4.5.5-.5v-2l1.5-1.5,2,.5,2,2.5v2l-2,3,1,3,1,.5,3-2,2-.5,3.5,2,.5,1-1,.5-.5,1.5-1-1-2,1,2,1-1,1,1.5,4.5,1-.5v-2l1.5-2h2l1,1.5,3-.5,1,1.5-1,1.5,1,.5,2-2.5,2.5,1,1-2,3,2,2.5-4-3-2.5,1-2,.5-1.36,2,2,2-.5-2-3.5,4,1.5,3.5,2.36-4,6,1,1.5h-.5v1.5h-.5l-1,2.5-1.5-1-2,.5.5.5-.5.5v1.5l1,3-1,1h-2l2,3-5.5,1.5-1-.5-.5,1-.5,1.5h-.5v-2l-1-.5.5,2-2,1,2.5,3-2,1.5.5.5-1.5,3-1,.5-3.5-1-2.5,1v-1l-3.5-1-2.5,1-.5-.5,1-.5,1-1.5-2-.5.5-1-.5-1-2.5,1.5-.5-1.5-1.5.5.5.5-1,2.5-.5,3-1,1-1-.5v1.5h-1.5l-.5-.5,1.5-2.5-2.5-.36-3,1.5-1,2.36v1.14l-2.5.5,1-2.64,1.5.14.5-1.5,2.5-2.5-5-3.14v2l-1.5-.5-1-1,.5-1-6-3,1-1-3-.5,1.5-4-4-2.5-1-1.5.5-1"/>
      <path data-code="sivinskij_rajon" data-title="sivinskij rajon" class="cls-1" d="M57.12,170.99l4-2.5-.5-2,3-2h6.5v1l-1,.5,2,3,7,5v1.5l9.5,8.5.5,2-2,2,.5.5-.5,1v.5l-1,1.5-1-.5,1.5,1.5h-.5v2l-2.5,3.5-2-2-.5,2-1,.5-.5,1h-1l.5,1-.5,1.5h-1.5l2,1.5-.5,1.5-1.5-1-1,1-3.5-.5-.5.5-1.5,1-.5,3-1-1.5-7-1v-2.5l.5-1.5v-1l-2-2.5-1-3.5h-3l-2.5-2,1-1.5-.5-3h.5l.5-1-1-.5.5-1.5v-2.5l2-3.5,1-9"/>
      <path data-code="solikamsk" class="cls-1" d="M179.12,144.49l2.5-.5,1-3.5,1,1v1.5l-.5.5.5,1v1l2.5,1.5-1,1,1,.5-1,2.5h-1l-2.5,3.5-2.5-1-1-1,2-2.5v-1.5l-1-4"/>
      <path data-code="solikamskij_rajon" data-title="solikamskij rajon" class="cls-1" d="M145.12,116.99l5-6.5,1.5,2,1-2.5-2-.5,1-1.5,3.5,4,3-3.5,4.5,3.5-.5,1.5v.5l1.5-.5,1.5,1.5,1.5-.5.5.5-.5,1,1,1.5.5-.5-.5-1,2,2-1.5,2,1,1-2,3,6,5,2.5-.5,1.5,1,2-1.5v-2l1.5,1.5,1-5,3-6.5,2.5-4,2.5-2,.5,3,2.5.5v1l.5,2,10.5,8-4.5,6.5,8.5,6.5,8,.5,2.5,1.5,1.5-2,1,.5,3-.5,5,4-7,10.5-2-1.5-1.5,2-2-1.5-4,5,.5.5-4.5,5.5-2-1.5-1.5,2-3-2-2.5,3.5h-5l-1,1-1.5-1,.5-.5-7.5-2.5v-1l-1,.5v-1.5l-1,.5-5-3.5.5-1.5-1,.5v-1l1-1.5,3.5,2,2.5-3.5h1l1-2.5-1-.5,1-1-2.5-1.5v-1l-.5-1,.5-.5v-1.5l-1-1-1,3.5-2.5.5,1,5-1,2-1.5,1,.5-3-2-.5-2.5.5-1-1,1-1,1.5,1,.5-1-4-1-.5,1-1.5-1,1-2-2.5,1,.5-1-2.5-3,.5-1,1.5,1,.5-1-3.5-3,2.5-1.5v-2h-1l-1.5,1h-3.5l.5-.5-.5-.5.5-1.5-1.5-1.5-.5,1-1-.5-1,1.5-5-4.5-2.5,2.5-7-6,1.5-2-2-1.5,3-4-1-.5"/>
      <path data-code="suksunskij_rajon" data-title="suksunskij rajon" class="cls-1" d="M121.62,308.49l3.5,1.14,1-1-.5-.5,1.5-1,1.5,1.86,3,1.5,1.5,2h2l1,1-.5,1,2.5.5,1.5-1.5,1,1.5h2l.5,2h2l1.5,1.5-.5,1,2.5.5-.5.5,1,3,7.5,5-.5,1-3-.5,1.5,2-2.5,3v-1l-1.5,1-.5-1h-1.5l2-.5,1-1.5-2-1-1,1.5-2.5-1-1.5,1-1,2-.5-.5v1.5l-1,1.5-1-2.5v1l-2,1.5-1-1.5-2,.5-.5,1.5-.5.5-2-1.5-1.5,1-3-2.5.5-3-2.5.5v-1.5l-.5,1-4,1-3,2.5-2.5-2.5.09-1.87.41-1.63h-1.5l1.5-1.5,1,1v-1.5l2-1-.5-.5,1.5-2.5h3l-1-3.5,1-1v-3h-1l.5,1.5-2,1.5-.5-2v-2.5l1-.5-.5-4.5"/>
      <path data-code="uinskij_rajon" data-title="uinskij rajon" class="cls-1" d="M84.62,308.62l-1-1,1.5-1,1-1.5-.5-2.5,1,2.36,1-1,2.5,3h2l2.5,6,5.5,4,1.5-1,2.5.5,1.5-1.5.5,1-1,1,1,1.5,5,1v3l-1.5,1.5v1.5l-.5.5,3.5,6.5-2,2-4-.5-1,.5-4.5-2.5.5-1.5h-1l-.5,1.5h-4.5v-1l-.5,1.5,3.5.5-1.5.5-1,1.5.5.5-.5,1,1.5,1-2,.5-1.5-.5,1-1.5-2-1-2,1-.5-2.5-.03-4.04-2.47-.32,1,3.5,1,1-1.5-.14,1,2.5-1.5-2h-2l-.5-.5.5-1.5-1-2,.5-1.5-1.5-1.5.5-1-4.5-2.5v-2l2-1.5.5-1h1l-.5-1.5-1.5.5v-2l4-2.86-3.5-2.5,2.5-2Z"/>
      <path data-code="usol_skij_rajon__permskij_kraj_" data-title="usol&amp;apos;skij_rajon_(permskij_kraj)" class="cls-1" d="M139.62,130.49l4-5.5,7,6,2.5-2.5,5,4.5,1-1.5,1,.5.5-1,1.5,1.5-.5,1.5.5.5-.5.5h3.5l1.5-1h1v2l-2.5,1.5,3.5,3-.5,1-1.5-1-.5,1,2.5,3-.5,1,2.5-1-1,2,1.5,1,.5-1,4,1-.5,1-1.5-1-1,1,1,1,2.5-.5,2.5,1.5-1.5,2.5-3.5,2.5v3l-1,.5v1.5l-.5,1,1,.5,1-2.5,1.5,3-1.5,1.5-3,.5-1,1,1,3.5,1.5,2,1-1v-1l3,1.5-1.5.5-.5,1,.5.5-1,1h1.5v-1l4,3,3-1v-2l-2.5,1-.5-1,1.5-1-2-2.5,4-.5-3.5-.5-.5-1.5.5-1,2,1.5,1-1-1-.5,1-.5,1,.5.5-.5-1-.5,1-1.5-1-.5,1-1.5h2l6,2.5v2.5l-3.5,3.5,1,3.5-1-1-.5,1-2.5.5-1,2-2,.5,2.5,3-2,1-.5,1-2,.5-1,1.5,1,2-2.5-.5-1,.5v1.5l-3-.5-3.5,4.5v.5l-2,1-4.5-2-3.5-3.5,1.5-1v-2h-2l-2.5-3-3.5,1.5-7-1,2.5-5,3-3.5,1.5-4,1-1.5-2.5-3.5.5-1-2,.5-3-2-.5,1-3-2.5-2.5,3-4-3,.5-1,1.5-1-2-1.5,1-1-1-.5.5-1-1.5-1.5,1-.5-1-1,.5-1-1-.5,5.5-7-5-5,1.5-.5,3-4.5-2-1.5"/>
      <path data-code="vereshhaginskij_rajon" data-title="vereshhaginskij rajon" class="cls-1" d="M48.62,195.49l4.5-2,2.5,2h3l1,3.5,2,2.5v1l-.5,1.5v2.5l1.5.5h3l3.5,2,.5-3,1.5-1,.5-.5,3.5.5,2-1,1,1-1.5,1h2l.5,1-.5-.5-1,1,2.5,2-.5,3,.5,1-.5,2,4,3.5-.5,1,.5,1h-1l-.5,2,2.5,1,.5,2h-4.5v-2.5h-2l-1-1-1.5.5v1.5l-1,.5-1-2-.5,1.5-.5-1-3.5.5-.5-2.5-2.5-1.5-3.5.5-.5,1.5-4.5.5-1.5-2.5-1.5.5-1.5-2h-2l-1.5-9.5-1-1.5.5-1.5,1.5-2.5-1.5-2,1.5-.5-2.5-5.5"/>
      <path data-code="zvezdnyj" class="cls-1" d="M107.62,263.99l2.5,2,1.5-2,1,.5,1-1.5h-2l-1-2,2-.5v2.5l3,1-.5,6-4-2.5-1,1-2.5-1.5v-3"/>
    </g>
</svg>