<svg data-code="RU-SAR_1" xmlns="http://www.w3.org/2000/svg" viewBox="0 0 295.75 268.89"> 
    <g data-code="saratovskaja_oblast_" data-title="saratovskaja_oblast&amp;apos;">
      <path data-code="aleksandrovo-gajskij_rajon" data-title="aleksandrovo-gajskij rajon" class="cls-1" d="M149.12,244.62l6-10.5,3.5,1.5.5-1-.5-1.5.5-1,1-1h-1l.5-.5-.5-.5.5-1.5-.5-1,4-7,7,4.5-2,3.5,7,3.5-5.5,14.64.5,4-.5,2.5-4,3.5,3,2-.5,5.5-9,3-13.5-.5-1.5,1.5-.5-3-2-.5v-3.5l-1,.5-2-1.5,1-2v-8.5l3.5-7.64,6,2.5Z"/>
      <path data-code="arkadakskij_rajon" data-title="arkadakskij rajon" class="cls-1" d="M33.12,36.62l1,1,3.5-1,1.5-1,1.5,1v-1.5l2,1,1-1v-3.5l-1-1,1.5-1,.5-2.5,2.5-1,1-3.5,1.5-1,2,1-.5.5,3,3-1,1.5,2,3.5,1-.5.5-2.5,1.5-1h2.5l.5,2-1,1,2,2.5,1.5.5,1-1.5,2,1.5-.5,1v3l-3,1,.5,2-1.5,4,4,2.5-5,10.64-1.5.5v2l-1.5-1-4.5,4,1,1-2,1.5v-1l-3,1.5-2.5-3,.5-1h.5l-3-4.5.5-3.5h1.5l-1-3h-1v1l-2,.5-2.5-1h-1l-.5,1-1.5-.5.5-1.5-1-2,1-1-2.5-1,2-3-2,.5-.5-.5-1,.5-1-3h-1l-.5-1-.5-1.5,1-.5-1.06-1.11,2.05-.02Z"/>
      <path data-code="atkarskij_rajon" data-title="atkarskij rajon" class="cls-1" d="M76.12,67.26l2.5-1.5,1,1.5,2.5-3.5,5.5-1,1.5-4-1-2.5,3-.5,1-2.5,1,1h1v-1l4,.5,3-5.5,1,2,1.5-.5,2.5,1,.44-1.16,1.06.66-1,1,.5.5-1.5,2,3,1.5-.5,1-1.5.5-2-2-4,3.86v1.5l1.5.5,3.5-3v1.5l-1,1,1.5,2-.5.5v1.5l-1,1,2.5.5-.5,2,5.5,4.5-2,2.5,1,1v1.5l3.5-.5,2,1.5v1.5l-1.5.5-.5,1.5-2-1-1,1-1,.5-2,3-1,.5-5-2v1.5l-3.5,1-4,3,2,3-4.5,4.5-1.5-2.86-2.5-1.5-1.5-4-1-.5-.5,1-2-1.5.5-1-.5-1.5,1-1.5-1-1.5-3.5,1-1-3-2.5-1.5-.5-5.5-2-1,2-4.5"/>
      <path data-code="balakovskij_rajon" data-title="balakovskij rajon" class="cls-1" d="M179.12,112.12h9l4.5,1,2.5,3.5,4.5.5,8.5-3,3.5-3.86,4.5,4,1.5,3.5h1.5l4,3v2.5l-1.5,3-3-2-3.5,4.5,2,3-3,6-.5,1-.39,1.97-1.61-.97.5-1-.5-1-1.5.5v1.5l-1,.5v2l-1.5-2,.5-1.5,1.5.5-.5-.5-4,.5v-1.5h1.5l-.5-1.5-2.5,1v1.5l-1-1-.5.5-.5,1.5-1.5-1.5-.5,2.5,1.5,1v1l-2,2.5,1.5,3.5-1,.5-4-1.5-1.5-3-2.5-.5.5,1h-.5l.5,1.5-2,2.5-4.5-2.5,1-2-3.5-2.5-1,3-2.5-2,2.5-5-2.5-2-2.5,2-2.5-.5,1.5-1.5-3-4.5,2-1-1-2.5v-4l3-.5v2l2-1.5.5-2-1-5,1-1-2.5-2.64,2-1.5Z"/>
      <path data-code="balashovskij_rajon" data-title="balashovskij rajon" class="cls-1" d="M5.62,41.12h3l2,1.5-.5,4,4-.5,1.5-2v-1l2.5.5,1.5-2.5,1,.5,1-1.5,4-.5v-1l4-3.5,2.5,2.64-1,.5.5,1.5.5,1h1l1,3,1-.5.5.5,2-.5-2,3,2.5,1-1,1,1,2-.5,1.5,1.5.5.5-1h1l2.5,1,2-.5v-1h1l1,3h-1.5l.5,1.5-1,2,3,4.5h-.5l-1,2-2-2-.5.5v1.5l-1,.5-.5,1h-1l.5,4.5-2,2-1-.5-1.13,2.07-3.37-1.7.5-1-1.5-3v-1.5h-3.5l-.5,1-3,.5v-2.5h-2l-.5,1h-1.5v2l-2.5.5-.5-1h-3.5l-1-2,.5-2.5-2,.5-3.5,4.5,2,4-.5,1h-2v2.5l-4-.5-1.5,1.14-3.5-9.5,3.5-1-1.5-4.5.5-2,3-3-1.5-.5,1.5-7.5-4-6,2-2.14,1.5,1Z"/>
      <path data-code="baltajskij_rajon" data-title="baltajskij rajon" class="cls-1" d="M164.62,54.76l1-.5,1-2.5,1.5-.5h2l2.5,2v.5h.5l.5-1,4.5,2,2-1-1,4,1.5,1,1,5,2.5.5v2l-1,.5.5,2-1,2-1,.86-1,3h-1l1.5,3.5v4l-.5,1v1l-5.5,2,2,2,.5,2-1-.5-.5,1-.5-2-1,1.5-1-2-1,1.5-1-1.5,1-.5-2.5-1-.5-2.86-.5-6,1-.5-2.5-2,.5-1v-3l-4-1.5,3-2-.5-2.5,1-1.5-.5-1,1,1,1.5-1,1-3-1,.5-1.5-2-2.5-1-1-2.5"/>
      <path data-code="bazarno-karabulakskij_rajon" data-title="bazarno-karabulakskij rajon" class="cls-1" d="M145.12,64.12l1.5-2-.5-1.36,1.5.5.5-1.5,3-1v-2l2-1.5h2.5l1.5-1.5,1,1.5-.5,1.5h.5l.5-1.5h.5l1.5-2,1.5-1,3,2-.5.5,1,2.5,2.5,1,1.5,2,1-.5-1,3-1.5,1-1-1,.5,1-1,1.5.5,2.5-3,2,4,1.5v3l-.5,1,2.5,2-1,.5.5,6-3.5,3.36,2,4-1,3-2,.5-1,1-1-.5h-6l-2,.5v2.5l-3.5,1.5-2.5-1.5-2.5,1v-1l1.5-.5-1-1-1,1v-1l.5-3.5,3-5-2.5-3-1.5-.5-.5-1.5.5-1,2,.5,1-4.5,2,.5.5-.5-4.5-1.5,3.5.5-2.5-1-.5-3,3-3-.5-.5.5-2.5h2v-1l-3-1-4,4-2.5-1.5v-1l2.5-2.5Z"/>
      <path data-code="dergachevskij_rajon" data-title="dergachevskij rajon" class="cls-1" d="M169.62,199.26l.5.5v-1l1.5.5,2.5-2.5h1.5l2-3.5,1,.5,1.5-1,1.5.5.5-1,1.5-1,4,2,1.5-2.5,2.5,2,6-10-2.5-1.5,1.5-1.5,1,.5,1-1.5,3.5,2,.5-1.5,4,1,1.5-1,1-3.5-1-.5,1-1.5-2-1.5,2.26-4.31,7.24,2.31,1,1.5,2-2,2,1-1.5,3.5,2,1-2.5,4,1,1,.5-1,3,1,2,1.5,2.5-4,2.95,1.98-3.95,5.89.5.5-3.5,6-1.5-.5-1.5,3,1.5.5-.5,1.5,1.5,1-1,1.5,2,1.5-1.5,2.5-5-2.5-1,1,1,1-.5,1.5-.5-.5-2,4-.5-.5.5,3-.5,1.5,2,1-1,.64,1.5,2-1,5-2,3-6-1.5-6-.64-3.5-2.5-1,1.5-7.5-4.5.5-1-1.5-1-1,1-3-2,1-1.5-2-1-1,1.5-2.5-1,.5-1-9-4.5,1.5-2.5-4.68-2.68.19-.69"/>
      <path data-code="dukhovnickij_rajon" data-title="dukhovnickij rajon" class="cls-1" d="M211.62,110.26l5-2,7-5.5,3-6.5,11-7,.5,2,6.5,2.5-.5,1,.5-.5.5,1.5-.5,2,4.5,1.5-2,6.5,3.5,2-3,9.5-1,.5-1,2.5-2-.5,1.5-4.5-3-1-2-2-.5,1-1.5-.5-.5,1.5h-2l-.5,3-1.5,1.36-1,2-2-1-2,3.5,1.5,1.5-1.5,3-3-1-1,1.5-3-1.86,1.5-3v-2.5l-4-3h-1.5l-1.5-3.5-4.5-4"/>
      <path data-code="ehngel_sskij_rajon" data-title="ehngel&amp;apos;sskij_rajon" class="cls-1" d="M101.12,130.26l5-5.5,6-2.64,3-4.5,3-1,5.5,1.5,9-6.36,4-1,1.48-1.18.51,1.54h2l1.5,2.5-1.5,1,2.5,2.5-.5.64v1l-2.5-1-1.5,1,.5,1.5-.5-.5-.5,1-1,.5.5,1-1,1.5h2v1l-1,.5.5,1h2.5l-.5,1.5h-1.5l-1,2.86.5.5-2,5.5h-2l-1,2.5-2,1,1.5,1.5-.5,1.5-3,3.5,4,1.5-2,2,.5,1-.86,1.62-6.63-3.99-1,2-2-.5-1.5,7.5-1.5,2.36-5-1.5-5-3.5,1.5-2.5-1-2.5,1.5-1,1,.5,1-2,.5.5.5-1-3-1.5,3-4h-8l-6-3.36,2-8"/>
      <path data-code="ekaterinovskij_rajon" data-title="ekaterinovskij rajon" class="cls-1" d="M69.62,46.62l1-1.5,1.5,2,2-2.5-.5-1,1.5-2.5-.5-1,3.5-2.5,1,.5,6-3,.5.5,2-2.36.5,1.5h1l-.5-1.5,2-1.5.5.5,4-4.5.5.5.5-1,1,1-1,.5h2l-.5,1,4-1v-2.5l1-.5-.5-1,1-.5,1-.5.5,2.5,1,.5v1.5l-.5.5,1,2.5,3.5,2.5v1l2.5,1v2.5l-2,3.5-1.5-.64-4,6.5,2.5.5-1,2.64-2.5-1-1.5.5-1-2-3,5.5-4-.5v1h-1l-1-1-1,2.5-3,.5,1,2.5-1.5,4-5.5,1-2.5,3.5-1-1.5-2.5,1.5-1.18,2.66-4.32-2.66h-2l-1.5-2.5-1.5-.5-1,2-3-1.5,1.5-3.5-3.5-1.5v-2l1.5-.5,2-4.5,3-6.14v-1.5l2,.5,1.5,1Z"/>
      <path data-code="ershovskij_rajon" data-title="ershovskij rajon" class="cls-1" d="M173.12,155.26l2,1.5,2.5-3.5-1.5-1.5,1-1-1-1,1.89-1.31,2.61,1.31,1.5-3v-1.5l1-3,3.5,2.5-1,2,4.5,2.5,2-2.5-.5-1.5h.5l-.5-1,2.5.5,1.5,3,4,1.5,1-.5-1.5-3.5,2-3.5-1.5-1,.5-2.5,1.5,1.5.5-1.5.5-.5,1,1-.41,1.05.41,1.45-2,2.5,4.5,2,3.5,3-1,2.5-1.5,1-3-2.5-1,1.5,3.5,2.5-1.5,3,1.5.5-2.5,4.5-3.5,3,3.5,1.5-.5,1.5,2,1.5,1-1.5,2.76.19-2.26,4.31,2,1.5-1,1.5,1,.5-1,3.5-1.5,1-4-1-.5,1.5-3.5-2-1,1.5-1-.5-1.5,1.5,2.5,1.5-6,10-2.5-2-1.5,2.5-4-2-1.5,1-.5,1-1.5-.5-1.5,1-1-.5-2,3.5h-1.5l-2.5,2.5-1.5-.5v1l-.5-.5-.5,1.5-.5-.5-4-7.5h-1.5l-3.08-2.83,3.08-5.67.5-4,4-.5v-5l5,1.5,1-2-1.5-1v-3l4-1,4,2.5,1-1.5,1-2v-3.5l-7.5-4.5.5-1h1l-3.5-3,.5-1"/>
      <path data-code="fjodorovskij_rajon" data-title="fjodorovskij rajon" class="cls-1" d="M150.12,147.26l.5-1,3.5,1,1-1.64-1-.5,1.67-1.95,3.33,2.09-1.5,2,3,.5,1.5-2,5,3,2.5-3,3.5,2,.5-1.5,1,.5,1-1.5,1,.5-1,1.5,2.39,1.19-1.89,1.31,1,1-1,1,1.5,1.5-2.5,3.5-2-1.5-.5,1,3.5,3h-1l-.5,1,7.5,4.5v3.5l-1,2-1,1.5-4-2.5-4,1v3l1.5,1-1,2-5-1.5v5l-4,.5-.5,4-1,1.86-2-1.5.5-.5-1-1.5h-2.5l-.5-2.5-3,1,.5,2.5-5-1-.5-7-2-.86,5-8-.5-1,.5-5-3-.5v-2.5h-1l2.5-10.5"/>
      <path data-code="ivanteevskij_rajon" data-title="ivanteevskij rajon" class="cls-1" d="M240.12,112.26l2,2,3,1-1.5,4.5,2,.5,1-2.5h2.5l1.5-3.5,2,.5.5-1.5,2.5,2.5,3,.5,1,2.5,1-2,3,2,2.5,4h-1.5l-1.5,2-2,1.5,1,1.5,1.5-1,3,1.5-1.5,2,.5,1-1,2,2,1,3-4.5,1.5,1,.5,5h-2l1,4h-2l-.5,1,1,2.5.5-1,1,.5,1.5-2v1l.5-.5.5.5h-.5l-.5,1-.5,6-1,.86-1,2-4-2,.5,1.5-1.5,3-4-2.5-.5,1.5-2-1-.5,1.5-4-2,1-.5v-1.5h2.5v-1l.5-.5-1-2-1.5,1,.5-1.5-1-.5,1-.5h-5.5l-1,1.5-.5-1.86.5-1-1.5-.5,2.5-5.5-2-.5.5-1-2-1,.5-1.5-7.5-2.64-.5-1.5,2.5-.5.5-2,1.5-4.5-4.5-2,1-1.5-.5-5.36.5-1"/>
      <path data-code="kalininskij_rajon__saratovskaja_oblast_" data-title="kalininskij_rajon_(saratovskaja_oblast&amp;apos;)" class="cls-1" d="M41.62,65.26h1l.5-1,1-.5v-1.5l.5-.5,1.5,1.5,1.5-.5,2,3,3-1.5v1l2-1.5-1-1,4.5-4,5,2.5-1.5,3.5,3,1.5,1-2,1.5.5,1.5,2.5h2l4.32,2.66-.82,1.84,2,1,.18,1.95-2.68.55,1,1.5-1.5,1-1.5,4-2.5-1-.5,1.5,3.5,1,1,1.5-1.5,1,1,1-1.5,1.5,1.5,2-1,3.5-3,.5,1.5,3-.5,3.5-3,2-2-.5-1,1-.5,2.5,3,5.5-.5,1-4-1-3-4-1.5.5-1,2.5-1.5-.5-.5-1,.5-5.5-.5-1.5-1-.5-.5,1-1.5.5-1-1.5-3-1v-1.5l-2.5-1.5v-.64l2-3v-1l-1-1,.5-2.5-1.5-2,1.5-4.86-.5-3.5-2.5.5v2.5h-3.5l-.5-3.64h-2l-1-1.36,3-5.5,1,.5,2-2-.5-4.5"/>
      <path data-code="khvalynskij_rajon" data-title="khvalynskij rajon" class="cls-1" d="M206.62,78.76l1-1,4.5,4-.5.5,1.5.5.5,2.5h1.5l1-1v-1.5l1.5-1.5.5-2,1.5.5.5-1.5.5,1h1l-1-.5,1.5-2h1l1.5,2.5-1,3-.5,2,5.5,1,1-2,2-1-3.5-2,.5-.5,1.5-1,2,1,1.5-1.5,3,4,2.5-2.5,1.5,1v2.5l4-.5,1.5,1-3.5,1.5-3,3.5-2.5,1-9,5.5-1.5,1-3,6.5-7,5.5-5,2-2-2.5h-2l-1.5,1v-4l-2,1.5-2-1,.5-1.5h-2l.5-1.64h.5l-.5-2,1.5-2,2-.5v-1l2-.5h1.5l-2-1.5.5-1h-1l-1-8h2.5l1-2-.5-1,.14-2.5-1.14-1.36"/>
      <path data-code="krasnoarmejskij_rajon__saratovskaja_oblast_" data-title="krasnoarmejskij_rajon_(saratovskaja_oblast&amp;apos;)" class="cls-1" d="M74.12,121.26l1.5-4.5,1,2.5,2.5-1h3.5l.5-1,1.5.5.5,2h2l-.5,3.5,1.5,1,2-1.5,4.5,5.86h3l3.5,1.64-2,8,2,5-.5,3.5-5,10.5-10.5.5-4.5-2-4.5,4-2,5.5h-1l-3.5-3.5h-1l-1,2h-1l.5-4.5-2.5-2-1.5,1-7-4,3.5-4v-.5l2-1.5-1.5-.5.5-1,.5,1,3,.5,6.5-7.5,1.5-4-2-1-.5-2,1.5,1-1-3,1-.5,1-3,1.5-.5-3.5-5.5,4-1Z"/>
      <path data-code="krasnokutskij_rajon" data-title="krasnokutskij rajon" class="cls-1" d="M121.12,150.26l2,.5,1-2,6.63,3.99-3.14,5.88,3.5,1,.5-1.5h2l-.5,4h3.5l2-4.5,7.5,1.5v-1.36h2.5v2.5l3,.5-.5,5,.5,1-5,8,2,.86-4,1,1.5,6-5-1-1,2-4-2.5-3,5h-1.5l-4,4-2.5,4.5-4-3-4.5-1.5-2.26,3.55-1.74-.91,2-3-2.5-2,4.5-2.5-3-1.5-.5-2,1-3.5-1.5.5-3.65-1.28.14-3.86,1-.5,1-2h1.5l.5-2,1.5-.5,3-5.5-1-1,3-4.36,1.5-7.5"/>
      <path data-code="krasnopartizanskij_rajon" data-title="krasnopartizanskij rajon" class="cls-1" d="M215.12,147.76v.5h1l.5-1-1.5.5M203.62,137.26l2.5-1,.5,1.5h-1.5v1.5l4-.5.5.5-1.5-.5-.5,1.5,1.5,2v-2l1-.5v-1.5l1.5-.5,1.5.5-1,.5-.5,1,2.5,1.5,7.5.86-.5,1.5,5,1,.5-.5-1-1.5,1-.5.5,2,2.5.5v1.5l2,1.5-.5,2.5-1.5,1.5,2.5,1.5-.5,2.64h1v3.5l1.5,3.5-.5,1.5-2-2-2,4.5.5,1.5,4,2-1.5,3-1-1-2.5,3.5,3,2-2,1-1.5-1-2.5,4-2-1.5-3-1-.5,1-1-1,2.5-4-2-1,1.5-3.5-2-1-2,2-1-1.5-7.24-2.31-2.76-.19-1,1.5-2-1.5.5-1.5-3.5-1.5,3.5-3,2.5-4.5-1.5-.5,1.5-3-3.5-2.5,1-1.5,3,2.5,1.5-1,1-2.5-3.5-3-4.5-2,2-2.5-.41-1.45.41-1.05v-1.5"/>
      <path data-code="lysogorskij_rajon" data-title="lysogorskij rajon" class="cls-1" d="M69.12,80.76l2.5,1,1.5-4,1.5-1-1-1.5,2.68-.55.32,3.55,2.5,1.5,1,3,3.5-1,1,1.5-1,1.5.5,1.5-.5,1,2,1.5.5-1,1,.5,1.5,4,2.5,1.5,1,1.5.5-.5v1.86l-.5.5,1.5,1-.5.5,5,2-.5,2,.7.6-3.7,1.4-2-1.5-1,1.5,2.5,3-.5,3.5-1,.5-.5,1.5h-3v1.5l-1-1.5-1,1.5.5,2-2,1.5-2.5-.86-.5,1h-3.5l-2.5,1-1-2.5-1.5,4.5-4,1,1-2.5-1.5-3-1.5,1-2-.5-1-1,1.5-2.5-3.5-8,.5-2.5,1-1,2,.5,3-2,.5-3.5-1.5-3,3-.5,1-3.5-1.5-2,1.5-1.5-1-1,1.5-1-1-1.5-3.5-1,.5-1.5"/>
      <path data-code="marksovskij_rajon" data-title="marksovskij rajon" class="cls-1" d="M138.62,118.76l1.5-1,2.5,1v-1l.5-.64,7-2.5,9,2.14,10-3.64,5,1,3-.5,1,.64,1.5,2-1,1,1,5-.5,2-2,1.5v-2l-3,.5v4l1,2.5-2,1,3,4.5-1.5,1.5,2.5.5,2.5-2,2.5,2-2.5,5,2.5,2v1.5l-1.5,3-5-2.5,1-1.5-1-.5-1,1.5-1-.5-.5,1.5-3.5-2-2.5,3-5-3-1.5,2-3-.5,1.5-2-3.33-2.09,1.33-1.55-1-2.5h-2v1l-7-5.5-1-3-4-1-1,1-2-2.5-.5,1.5-.66-.97.66-1.89h1.5l.5-1.5h-2.5l-.5-1,1-.5v-1h-2l1-1.5-.5-1,1-.5.5-1,.5.5-.5-1.5"/>
      <path data-code="mikhajlovskij" class="cls-1" d="M215.12,147.76l1.5-.5-.5,1h-1v-.5"/>
      <path data-code="novoburasskij_rajon" data-title="novoburasskij rajon" class="cls-1" d="M125.12,68.62l7,3.5,1.5-6-1-.5,1.5-1.5-.5-2.5,3-2,1,2,1.5-1.5,1.5,1.5,4-4.5,2.5,3.5-1,.5.5,1-1.5,2-2.5,2.5v1l2.5,1.5,4-4,3,1v1h-2l-.5,2.5.5.5-3,3,.5,3,2.5,1-3.5-.5,4.5,1.5-.5.5-2-.5-1,4.5-2-.5-.5,1,.5,1.5,1.5.5,2.5,3-3,5-.5,3.5-2.5-1-2,1-2-1-1,.5-.5,3h-2v2.5l-1-.5.5-1.5-1.5,1-1.5-1-1-7,1,1-1-4-2.5-.5v-1.5l-1.5-2,4-4-1.5-3.5-2-.5-2.5-2.5v-3h-1.5l1-.5-.5-2,.5-1Z"/>
      <path data-code="novouzenskij_rajon" data-title="novouzenskij rajon" class="cls-1" d="M144.12,205.12l4.5,2.5,3-5,2.5,1.5v-6.5l5-8.5,4,3.5h1.5l4,7.64.5.5.31-.81,4.68,2.68-1.5,2.5,9,4.5-.5,1,2.5,1,1-1.5,2,1-1,1.5,1.5,1,1.5,1,1-1,1.5,1-.5,1,7.5,4.5,1-1.5,3.5,2.5-8.5,4.5-9.5,2-4-3.5-1-4h-2.5l-.5.5.5,1.5,1.5,1.5-.5.5v1.5l-2.5,3,.5.5-1,3-7-3.5,2-3.5-7-4.5-4,7,.5,1-.5,1.5.5.5-.5.5h1l-1,1-.5,1,.5,1.5-.5,1-3.5-1.5-6,10.5-6-2.5-2,4,.5-2.5-1.5-5,.5-7-1.5-7,1-.5-2-2v-2l.5-1-1-1.5,6.5-12.5"/>
      <path data-code="ozinskij_rajon" data-title="ozinskij rajon" class="cls-1" d="M232.12,177.62l5,3.5.5-1.5,5,2.5,1.5-2-1.5-1,1.5-3-3.5-2,1-1.5,1,.5,1.5-2,9,5v1l3,2-.5.5v1.5l-.5,1,1.5,1,1-2h1l.5,2,1.5-.5-.5.5,1,.5-1.5,3.5,2,1-1,2,1,.5-1,2.5,4,1.5.5-1.5.5-3,2.5,1v3l2.5,1.5.5-1,.5.5.5-2,4.5,2.5-1,2,2.5,1.5-2,3.5-1,3.5h-2l-1.5,2-4-2v2h-3l-.5,3.5-6,1-10.5-2.5-4,1-8,3-8-4.5-2.5-.5-.5-2-2,1.5-1-.5-1.5,2.5-3,2-2-1,.5-1.5-.5-3,.5.5,2-4,.5.5.5-1.5-1-1,1-1,5,2.5,1.5-2.5-2-1.5,1-1.5-1.5-1,.5-1.5-1.5-.5,1.5-3,1.5.5,3.5-6-.5-.5,3.95-5.89-1.45-.98,2-1.14Z"/>
      <path data-code="pereljubskij_rajon" data-title="pereljubskij rajon" class="cls-1" d="M255.29,152.46l2.33,1.16.5-1.5,2,1,.5-1.5,4,2.5,1.5-3-.5-1.5,4,2,1-2,1-.5,6.5,3.5.5-1,2,1-1.5,3,6,4-1.5,2.5-2-1.5-3,5,3-.5,1.5,3h1l1-1.5,1.5.5-2,4,6.5,2.5-1,2,4,2.5-.5,1.5,1.5,1-3.5,7,.5.5-1,2,1.5,1.5-2,4,.5,5h-1l-2,3.5h-2l-3-1.5.5-1,2-.5,1-1-4-3.5h-.5l-2,3-2-.5-2.5-1.5,1-2-4.5-2.5-.5,2-.5-.5-.5,1-2.5-1.5v-3l-2.5-1-.5,3-.5,1.5-4-1.5,1-2.5-1-.5,1-2-2-1,1.5-3.5-1-.5.5-.5-1.5.5-.5-2h-1l-1,2-1.5-1,.5-1v-1.5l.5-.5-.71-.47.21-1.03-1-2,3.5-7-3.5-2,2-5-2.5-1.5v-1.5l-.5-.5h1v-1l-1.5-.5,2-.5-1.5-1.5,1.5-.5-1.5-.5,1.67-1.16Z"/>
      <path data-code="petrovskij_rajon__saratovskaja_oblast_" data-title="petrovskij_rajon_(saratovskaja_oblast&amp;apos;)" class="cls-1" d="M108.62,41.12l4.5,2.5-1,1.5,2,3.5h1l.5-1.5.5-2.5,3.5-1.5,2,1,.5,3.5h1.5l.5,1.5,1.5-1,1,1.5,2-1,.5,2.5,2-2,1,1.5.5-.5.5.5,2.5-3,1.5,3,.5-1h1.5l1.5-1.5.5,1-1,1.5,1.5.5-1.5,2h3v.5l-1,2,2.5,1.5-4,4.5-1.5-1.5-1.5,1.5-1-2-3,2,.5,2.5-1.5,1.5,1,.5-1.5,6-7-3.5-.5,1,.5,2-1,.5h1.5v3l2.5,2.5-4.5-1-1.5.5.5-1.5h-2v-1.5l-2-.5-1,1,1.5.5-1,.5v1.5l-1.5,1-2-1.5-3.5.5v-1.5l-1-1,2-2.5-5.5-4.5.5-2-2.5-.5,1-1v-1.5l.5-.5-1.5-2,1-1v-1.5l-3.5,3-1.5-.5v-1.5l4-3.86,2,2,1.5-.5.5-1-3-1.5,1.5-2-.5-.5,1-1-1.06-.66.56-1.48-2.5-.5,4-6.5Z"/>
      <path data-code="piterskij_rajon" data-title="piterskij rajon" class="cls-1" d="M113.12,195.62l3.5-5.5,4.5,1.5,4,3,2.5-4.5,4-4h1.5l3-5,4,2.5,1-2,5,1-1.5-6,4-1,.5,7,5,1-.5-2.5,3-1,.5,2.5h2.5l1,1.5-.5.5,2,1.5-2.08,3.81-.92-.81-5,8.5v6.5l-2.5-1.5-3,5-4.5-2.5-6.5,12.5-1-1.5,1-.5-.5-.5.5-1.5-.5-1-1-1.5-2.5-.5-6,2.5-7.5-3.5,2.5-3.5-1.5-.5,3-5-6-3.5-.5,1.5-4.5-3"/>
      <path data-code="pugachjovskij_rajon" data-title="pugachjovskij rajon" class="cls-1" d="M215.12,128.76l3.5-4.5,6,3.86,1-1.5,3,1,1.5-3-1.5-1.5,2-3.5,2,1,1-2,1.5-1.36.5-3h2l.5-1.5,1.5.5.5,5.36-1,1.5,4.5,2-1.5,4.5-.5,2-2.5.5.5,1.5,7.5,2.64-.5,1.5,2,1-.5,1,2,.5-2.5,5.5,1.5.5-.5,1,.5,1.86,1-1.5h5.5l-1,.5,1,.5-.5,1.5,1.5-1,1,2-.5.5v1h-2.5v1.5l-1,.5,1.67.84-1.67,1.16,1.5.5-1.5.5,1.5,1.5-2,.5,1.5.5v1h-1l.5.5v1.5l2.5,1.5-2,5,3.5,2-3.5,7,1,2-.21,1.03-2.29-1.53v-1l-9-5-1.5,2-1-.5-1,1.5,3.5,2-1.5,3,1.5,1-1.5,2-5-2.5-.5,1.5-8-5.36,2.5-3.5,1,1,1.5-3-4-2-.5-1.5,2-4.5,2,2,.5-1.5-1.5-3.14v-3.86h-1l.5-2.64-2.5-1.5,1.5-1.5.5-2.5-2-1.5v-1.5l-2.5-.5-.5-2-1,.5,1,1.5-.5.5-5-1,.5-1.5-7.5-.86-.89-.53.39-1.97,3.5-7-2-3"/>
      <path data-code="romanovskij_rajon__saratovskaja_oblast_" data-title="romanovskij_rajon_(saratovskaja_oblast&amp;apos;)" class="cls-1" d="M4.12,33.12l2.5-3,8-2,4.5-3.5,2.5-4,1.5-.5v-1.5l2.99-.18,3.01,2.18-2,4,3,1.5v2.5l1,1,2.5-1v2.5l-1,.5.5,1h2v2.5l2-.5.5,2-3.5,1-1-1-2.05.02-1.45-1.52-4,3.5v1l-4,.5-1,1.5-1-.5-1.5,2.5-2.5-.5v1l-1.5,2-4,.5.5-4-2-1.5h-3l-1.5-1-2,2.5-1-.5,1-5,2-4"/>
      <path data-code="rovenskij_rajon" data-title="rovenskij rajon" class="cls-1" d="M95.62,157.26l5-10.5.5-3.5-2-5,6,3.36h8l-3,4,3,1.5-.5,1-.5-.5-1,2-1-.5-1.5,1,1,2.5-1.5,2.5,5,2.5v1l5,1.5-1.5,2,1,1-3,5.5-1.5.5-.5,2h-1.5l-1,2-1,.5v2l-4,5.5h-.5l.5-2-.5-.5-.5,1.5-1.5-.5.5-1h-1.5l-2,2-.5,2,1.5.5-.5.5-6.5-6-1.5,3-8-4.5,3-4.5,1.5-.5,1.5-2.5-2-1.5,1-1-1.5-1-1-6-1.5-1.36,10.5-.5Z"/>
      <path data-code="rtishhevskij_rajon" data-title="rtishhevskij rajon" class="cls-1" d="M39.12,6.62l5-4V.62l2,2.5,5,1,3.5-3,2,.5.5-.5.5,2.5h1.5l.5,2-1,3v2l1.5-1,3.5,2,2-.5,4.5,3.5,4-.5,2,5.5,2-1,2,7.5,2-1,1.5,5,2.5-2v2l1.5,3-2,2.5-.5-.5-6,3-1-.5-3.5,2.5.5,1-1.5,2.5.5,1-2,2.5-1.5-2-1,1.5-1.5-1-2-.5v1.5l-2-.5-2-2,1.5-4-.5-2,3-1v-3l.5-1-2-1.5-1,1.5-1.5-.5-2-2.5,1-1-.5-2h-2.5l-1.5,1-.5,2.5-1,.5-2-3.5,1-1.5-3-3,.5-.5-2-1-.5-4,1-1,2.5,3.5,1-.5v1h1l1-1.5-2.5-1.5.5-1.5-2.5-5,.5-4h-1.5v-.5l-1,1-.5-1.5-2.5,2-7-1.5"/>
      <path data-code="samojlovskij_rajon" data-title="samojlovskij rajon" class="cls-1" d="M4.12,76.12l1.5-1,4,.5v-2.5h2l.5-1-2-4,3.5-4.5,2-.5-.5,2.5,1,2h3.5l.5,1,2.5-.5v-2h1.5l.5-1h2v2.5l3-.5.5-1h3.5v1.5l1.5,3-.5,1,3.37,1.7-1.87,3.43,1,1.36h2l.5,3.64h3.5v-2.5l2.5-.5.5,3.5-1.5,4.86,1.5,2-.5,2.5,1,1v1l-2,3v1l-2.5,4-2.5,1.5-1.5-2,1-.5-.5-1-2,1-1-1-1.5,1.5-1-.5,3.5-5-2.5-.5-1-2-4,2.5-2-3-3.5-1-.5-1.5-.5.5.5,1.5h-1v1l-1.5,1-3.5-2.5-6-1.5-3.5.5-1.5-10.5-2-4"/>
      <path data-code="saratov" class="cls-1" d="M115.12,104.12l2-1,4,.5.5,1-2,.5,1,1-1,.5-.5,1.5,4,2,1.5-1,.5,2-1.5,1,2,2-5,2-4.5-.5-2,1.5-.5,2.5-1,1.5-1-1-2-3,2-1.5-1-2,1.5-.5.5-1.5,2-1,.5-2.5-1-1,1.5-1-.5-2"/>
      <path data-code="saratovskij_rajon" data-title="saratovskij rajon" class="cls-1" d="M115.12,104.12l.5,2-1.5,1,1,1-.5,2.5-2,1-.5,1.5-1.5.5,1,2-2,1.5,2,3,1,1,1-1.5.5-2.5,2-1.5,4.5.5,5-2-2-2,1.5-1-.5-2-1.5,1-4-2,.5-1.5,1-.5-1-1,2-.5-.5-1-4-.5-2,1M91.62,104.62l1-1.5,2,1.5,3.7-1.4,2.8,2.4,1.5-.5,3.5,2.5,3.5-2,.5-1,2.5,1.5,6.5-7,1.5,1,1-.5.5,1-.5.5,1,.5,2.5-2.5v-1.5l2-3.5,1.5-1,.5,1.5,2.5-2,1,7,1.5,1,1.5-1-.5,1.5,1,.5v2l-1,.5.5,2.5h1.5l.99,2.96-1.48,1.18-4,1-9,6.36-5.5-1.5-3,1-3,4.5-6,2.64-5,5.5-3.5-1.64h-3l-4.5-5.86-2,1.5-1.5-1,.5-3.5h-2l-.5-2,1,.36,2-1.5-.5-2,1-1.5,1,1.5v-1.5h3l.5-1.5,1-.5.5-3.5-2.5-3"/>
      <path data-code="shikhany" class="cls-1" d="M177.62,101.62l1,.5v-.5h2v1.5l-1,.5-1.5-1-.5,1.5-1-1.5,1-.5v-.5"/>
      <path data-code="sovetskij_rajon__saratovskaja_oblast_" data-title="sovetskij_rajon_(saratovskaja_oblast&amp;apos;)" class="cls-1" d="M131.12,140.12l2-1,1-2.5h2l2-5.5-.5-.5.34-.97.66.97.5-1.5,2,2.5,1-1,4,1,1,3,7,5.5v-1h2l1,2.5-3,3.5,1,.5-1,1.64-3.5-1-.5,1-2.5,10.5h-1.5v1.36l-7.5-1.5-2,4.5h-3.5l.5-4h-2l-.5,1.5-3.5-1,4-7.5-.5-1,1-1.5,1-.5-4-1.5,3-3.5.5-1.5-1.5-1.5"/>
      <path data-code="svetlyj" class="cls-1" d="M109.62,97.62h1l.5.5-1,.5-.5-1"/>
      <path data-code="tatishhevskij_rajon" data-title="tatishhevskij rajon" class="cls-1" d="M109.62,97.62l.5,1,1-.5-.5-.5h-1M95.12,89.12l4-3,3.5-1v-1.5l5,2,1-.5,2-3,1-.5,1-1,2,1,.5-1.5,1.5-.5v-1.5l1.5-1v-1.5l1-.5-1.5-.5,1-1,2,.5v1.5h2l-.5,1.5,1.5-.5,6.5,1.5,1.5,3.5-4,4,1.5,2v1.5l2.5.5,1,4-1-1-2.5,2-.5-1.5-1.5,1-2,3.5v1.5l-2.5,2.5-1-.5.5-.5-.5-1-1,.5-1.5-1-6.5,7-2.5-1.5-.5,1-3.5,2-3.5-2.5-1.5.5-3.5-3,.5-2-5-2,.5-.5-1.5-1,5-5-2-3"/>
      <path data-code="turkovskij_rajon" data-title="turkovskij rajon" class="cls-1" d="M28.62,13.62l4-5.5,5,1,1.5-2.5,7,1.5,2.5-2,.5,1.5,1-1v.5h1.5l-.5,4,2.5,5-.5,1.5,2.5,1.5-1,1.5h-1v-1l-1,.5-2.5-3.5-1,1,.5,4-1.5,1-1,3.5-2.5,1-.5,2.5-1.5,1,1,1v3.5l-1,1-2-1v1.5l-1.5-1-1.5,1-.5-2-2,.5v-2.5h-2l-.5-1,1-.5v-2.5l-2.5,1-1-1v-2.5l-3-1.5,2-4-1.5-1v-1.5l-.5-1.5,1.5-1.5v-1.5"/>
      <path data-code="vol_skij_rajon" data-title="vol&amp;apos;skij_rajon" class="cls-1" d="M177.62,101.62v.5l-1,.5,1,1.5.5-1.5,1.5,1,1-.5v-1.5h-2v.5l-1-.5M166.12,87.12l3.5-3.36.5,2.86,2.5,1-1,.5,1,1.5,1-1.5,1,2,1-1.5.5,2,.5-1,1,.5-.5-2-2-2,5.5-2v-1l.5-1v-4l-1.5-3.5h1l1-3,1-.86,1-2-.5-2,2-1.64,3,2,2.5-.5-1.5,3.5,1.5,2-1.5,2.5,2-2.5,3,1.5,1-.5-.5.5.5.5h-.5l-1,1,1.5,1.5,1.5-1,.5,2,5,1,1.5,1.5h5l-1,2.5.5,1-1,2h-2.5l1,8h1l-.5,1,2,1.5h-1.5l-2,.5v1l-2,.5-1.5,2,.5,2h-.5l-.5,1.64h2l-.5,1.5,2,1,2-1.5v4l1.5-1h2l2,2.5-3.5,3.86-8.5,3-4.5-.5-2.5-3.5-4.5-1h-9l-2,1.5-3,.5-5-1v-4.5l-1.5-.5-.5-3h.5v-2.5l-1.5-2.5-2,1-2-3,4-1.5h1.5l-.5-2.5,1-3-2-4"/>
      <path data-code="voskresenskij_rajon__saratovskaja_oblast_" data-title="voskresenskij_rajon_(saratovskaja_oblast&amp;apos;)" class="cls-1" d="M136.12,99.12h2l.5-3,1-.5,2,1,2-1,2.5,1v1l1-1,1,1-1.5.5v1l2.5-1,2.5,1.5,3.5-1.5v-2.5l2-.5h6l1,.5,1-1,2-.5.5,2.5-.5.5-1-.5-4,1.5,2,3,2-1,1.5,2.5v2.5h-.5l.5,3,1.5.5v4.5l-10,3.64-9-2.14-7,2.5-2.5-2.5,1.5-1-1.5-2.5h-2l-1.5-4.5h-1.5l-.5-2.5,1-.5v-4.5"/>
    </g>
</svg>