<svg data-code="RU-ROS" xmlns="http://www.w3.org/2000/svg" viewBox="0 0 240.75 291.75">
    <g data-code="rostovskaja_oblast_" data-title="rostovskaja_oblast&amp;apos;">
      <path data-code="aksajskij_rajon" data-title="aksajskij rajon" class="cls-1" d="M63.13,126.76l2-.5,1-1.5-1-.5,4-5.64,1.5,1-3.5,4.5,3,2-1.5,1.5,2,1,1.5-3h1v-3.5l2,.5,4,3.14v3.58s-2,.42-2,.42l1.5.5-1,1.86-.5-.5-1.5,1.5-2-1.5,1.5,2-.5,1.5,1.5-.5.5,1.5-1,1,1,1-.5,2,2-2.5-1.5,3.14,2.5,3h-3l-1-1-1.5,2h-1l-.5,1.5-2-1v2l1,1-2,3.5-1.5-1-.5,1-5-4-4.5,7-4.5-8,1-2,1.5,1,1.5-1.5.5-3.5-1-.14,3.5-.5v-1l3-1-.5-1.5h1l-1-1,2.5-4-2-3.5-1,3.5-1,.5-1-1h1l-.5-1,2.5-3.36Z"/>
      <path data-code="azov" class="cls-1" d="M37.63,137.76l1.5.5-.5-1h.5l2.5-4.5,2.5,1,.5,2.5h1l-.5,1.5-2-1,.5,1.5-1-1-2,2.5-3-2"/>
      <path data-code="azovskij_rajon" data-title="azovskij rajon" class="cls-1" d="M40.63,139.76l2-2.5,1,1-.5-1.5,2,1,.5-1.5h-1l-.5-2.5-2.5-1-2.5,4.5h-.5l.5,1-1.5-.5,3,2ZM4.63,133.26l2-2.5,7,2,4.5-2,.5,1,2,.5,7.5-1v1.5l3,1,3,3.5,2.5-2-2-3.5,1,.5,1-1v-2l2-2-.2-1.76,2.2,1.12,1.5-2,1.5,1.5.99-.39,1.02,1.03v1l.97.32-.47,3.68,3,3.86,2,.5v2l4,1,.5,1.14-4,.5v1l2,.5-.5,1,.5.5-2.5,3.5,2.13,1.02-2.13,2.98-1.5-1.5-2,3,1,1-1,1-1-.5-2.5,4-1-1-1,1.5-1-.5v3l-6.5-4,1-1-4-3.5-2,.5-5.5-3.5-3.5,5-1-1-1,1.5-1-.5-3,4-1.5-2-1.5.5-2-1v-2l-1-1.5-.5.5-3.5-3.5-3,4.5-.5-1.5,6.5-9.5,1,1,3.5-5.5,1.5,1,.5-1-2-1.5-1,.5-6.5-4.5"/>
      <path data-code="bagaevskij_rajon" data-title="bagaevskij rajon" class="cls-1" d="M69.63,146.26l1-1,1.5,1,.5-1.5h1l1.5-2,1,1-.5,1,.5,1,.5-.5,3-.5.5-2,1.5-.5,7,2.86,1.5-1.5,4-1,2,2.5h.5l.5-1,1.35,1.24-.85,2.26.5.5-1.5,2.5,2.5,2.14-2,3.5-5-3.5-1,1-1.5-1-3,4-2-.5-3,4v2l-.5-.5-.97,1.67-2.03-1.81,1-1.5-1-2-9-6.36,2-3.5-1.5-2"/>
      <path data-code="batajsk" class="cls-1" d="M51.63,140.76l4-.5-.5-1.14,1.5,1.5,1,.14-.5,3.5-1.5,1.5-1.5-1-1,2,.54.96-.41.56-2.13-1.02,2.5-3.5-.5-.5.5-1-2-.5v-1"/>
      <path data-code="belokalitvinskij_rajon" data-title="belokalitvinskij rajon" class="cls-1" d="M124.63,100.76l2.5,1-.5-1h1v-1l.5-.5v-1l.5,1-1,1,.5,1,2.5-2,2.5-5,2,.5,1.5-1,1,1.5,2.5-1.5-.5-1,5-3.5.5,1,3-2.14,1.5,2,4.5-1,2,1.5,2.5-2,1,1,2-.5,1,2,7-2.86.5,4-2,2,.5,1.5-7,2.5v1.36l-5,1-.5,1v-.5l-3,.5-1-.5-1.5.5-1,2.5-1-.5v2l-1-.5-1,2v1l-.5-.5v1l-1-1-3,5,1.5,3.5-1,1.5-2.5-.5v.5l-1.5,1,1.5,1,.5,2.5-2.5-.5-.5,2,1,2-.52,2.1-10.98-1.97-2.5-1.5-2,1-1.5,1.5-1-.5-2-4-3.5-2,1.5-2.5-1-1,1-.5-.5-1.5,5.5-7,1,.5,2.5-5.5,1-1-1-1"/>
      <path data-code="bokovskij_rajon" data-title="bokovskij rajon" class="cls-1" d="M195.63,43.26l4.5-.5v-1h3.8s-.3,1.36-.3,1.36l2,.5.5,2.5,2.5-.5,5,5-1.5,1,1,5.5h1.5l1.5,1.5-2,3.5,2.5,4,2-.5,4-5,3.66,1.4-2.16,1.23-.5,1.5-2,2,1.5,1.5-1.5,1.5,1.5.5-2,1,.5,1.5-1.5.5v-1l-3,3,1,2-4.37,2.01-1.13,2.86-1-1-1.5,1-.5-1-1.5,1-1-1.36-5-2.5-1-3,1.5-1.5-6.5-5,1-3.5-.5-1.5-3.5-1,1-4.5h1.5l1.5-4,1.5,1.5,1.5-1-3-5.5-4-2,1-1.5h1.5v-2.5"/>
      <path data-code="celinskij_rajon" data-title="celinskij rajon" class="cls-1" d="M60.13,208.76l4-6,4,3,2-3,2,1.5,4.5-16.64h3.5l-1,2,4,1v-1.5l2,.5.5-2-2.5-.5,1-3,3,2,1.5-2,1,.5v.5l2.5.5-.5,2,4.5,1-3,9h5l-2.5,7.14-3.5,2h-4l-4.5,5.5-1-.5-6.82,8.87-2.68-1.51-1,2-2-1.5-1.5,2-.5.14-3-2.5-3,4-6.5-4.5,2.5-4,3.5-3.5-1.5-2.5"/>
      <path data-code="chertkovskij_rajon" data-title="chertkovskij rajon" class="cls-1" d="M143.63,31.26l2-1,2,1,3.5-1.5,2.5,1,2-.5-.5-2,3-3.5-1.5-4.5v-5.5l3-4,6.5.5.5-3.5,2-1,3.5,3.5,1.5,4.5,5,4.5,4.5-2,1.5,1-.5-1,2-1.5,1,1.5-2,2.36v.5l-.5,2,1,1-1.5,2h-1l6,5-2,2,2.5,2-2,2.5v1l5.5,3.5-.41,3.29-2.59,2.85-.5,2-4.5-2.5,1.5-2.5-5-2,.5,2-1.5,2-2.55,2.23-.95-1.73-1.5,1-1-1-1.5,1-2-5-2,1-4-2.5-.5-4.5,1.5-.5v-1l-4.5-.5.5,1.5-1.5,1,.5.5h-3l-4-2-1,.5v3h-.5l-1-.5.5-3-4-1.5-1-1.5-2,1-1.5-2.5"/>
      <path data-code="cimljanskij_rajon" data-title="cimljanskij rajon" class="cls-1" d="M152.13,149.26h1.5v-1l3.5,2.5-1,2,4,3.5,2.5-2,.5-1,3-1.5v-3.5l2-1.5-1-1.5,4.5-2.5.5,1.5h-1.5l1.5.5-.5,1,3.5,1v2l3-.5,4.5,3.5,1.5-1-.5,2v1l2.5.5,2.5,2-1,3.5,1,5.5,2,4-2.5,6.5-3.5-1-2,1-.5-2.5h-2.5l-.5-1.5-3.5-.5-1,1-1.5-1-2,.5-.5-1-1,1-1.5-.5-3,5h-6.5l-1.5-1.5,1.5-2.5-.5-1.5-2.5,1.5-1.5-1-.74.53-1.26-1.03-1.5.5-3-1.5-.5-3-1.5-1.5.5-1.5h-.5l3.5-5.5-.5-.5,4-7.5-.5-1"/>
      <path data-code="doneck" class="cls-1" d="M105.63,75.26l4,1.5,1-1.5,5,4.5-4,3-1.5-1.5-.5.5.5-2.5-4,1v-2.5l-1.5-1.5,1-1"/>
      <path data-code="dubovskij_rajon__rostovskaja_oblast_" data-title="dubovskij_rajon_(rostovskaja_oblast&amp;apos;)" class="cls-1" d="M165.63,178.76l3-1.5-1.5-1.5-2,.5,3-5,1.5.5,1-1,.5,1,2-.5,1.5,1,1-1,3.5.5.5,1.5h2.5l.5,2.5,2-1,3.5,1-1,5v3.5l-1,1.5.5,1.5-2.5,8.5,2.5,1.5,3.5-1.5,4.5,3-.5.5-1.5.5-.5,1.5-1.5,2,5.5,5,5,1.5-5.5,8.86v1l-1.5,1.5,2,1-13,20.5-2.5-2-3,.5-2,.64-1.35,2.26-4.66-2.9.5-1-7.5-5,3.5-3,1,.5,1-2.5,6,3.5,10-16-9.5-6-1.5,2-7-4.5,1-.5-1-3,1-1.5.5.5,1-1.86-2-2.5,2.5-1v-2.5l-1.5-.5-.5-1.5h-1l1-1.5h-2l-1-2v1.86h-.5l-1.5-1.5,2-3.5,1-1-3-2.5-.92-2.77.92-1.23-.5-1,.64-.62,3.36-.25Z"/>
      <path data-code="egorlykskij_rajon" data-title="egorlykskij rajon" class="cls-1" d="M42.13,199.76l.5-1,2,.5,2.71-5.14h.78l4.5,3.5.5-1,1.5-.5,2-3-.5-.5,2-2.5-1.5-2,1-2.5,1-.5,2.5,2,1.5-3h1.5l3,2-.5.5.5,1.5,3,1.5.5-1.5,2.5,2-1,2,1,.5-1.5,2,2.66,1.67-2.15,7.96-2-1.5-2,3-4-3-4,6,1.5,2.5-4,4.5-15-10,1-2-2-1.5,1-1.5-.5-1"/>
      <path data-code="gukovo" class="cls-1" d="M93.63,92.76l2.5-.5.5,1v-1.5l.5,1.5,1.5-1.5,1,.5v1.5l2,2-1,2.5-.5-1.5h1l-.5-1.5-1,.5.5-1h-4l1-1-1-.5h-1l-.5,1.5-1-2"/>
      <path data-code="kagal_nickij_rajon" data-title="kagal&amp;apos;nickij_rajon" class="cls-1" d="M42.13,158.76l1-1.5,1,1,2.5-4,1,.5,1-1-1-1,2-3,1.5,1.5,2.54-3.54,3.96,7.04,4.5-7,5,4,.5-1,5,3.5-1.5,3.5-.5-.5-.5,1,1.5,1.5-1,1.5,3.5,2.5-2.5,3.5-4.5-3.5-3.5,4.86-1-2-2.5,3.5-1-1-2,3,1,1.5-.5.5-.5-.5-.5,1-3-2-1,1.64h-.5l-1.5-2,1.5-1.5-8-5.5.5-1-3.5-3v-3l1,.5Z"/>
      <path data-code="kamensk-shakhtinskij" class="cls-1" d="M108.63,91.76l1-1.5,3.5,2.5,1-1.5-.5-.5,1-2-.5-1.5.5-1h1v-1l3-2.5,1-.5v1.5l1.5.5,1-2,2.5-2v2l-1-1-1.5,2.5h-.5v.5h-.5l-.5.5.5,2.5,1,.5h-1v1.5l-1.5-.5-1.5,1.5-4,1-.5,1.5-1.5,1,.5.5h-1l.5,1-2.5-.5-1-3"/>
      <path data-code="kamenskij_rajon__rostovskaja_oblast_" data-title="kamenskij_rajon_(rostovskaja_oblast&amp;apos;)" class="cls-1" d="M111.63,66.76l1.3-1.26,3.7.62,3.5,2.5.5-1,3,2.5,2-1.5-1.5-1.5,1-1.5-.5-.5,1.5-.5,3.5,2-1.5,1.5,1,1.5,1-.5,1.5,1,1-.5,1.5,2,.5-.5,2.5,1.5h1.5l.5-1,1,1,.5,2-1.5,3,1.5,1,1.5-.5,3,5h2.5l3,2.5-2.5,2.5-3,2.14-.5-1-5,3.5.5,1-2.5,1.5-1-1.5-1.5,1-2-.5-2.5,5-2.5,2-.5-1,1-1-.5-1v1l-.5.5v1h-1l.5,1-2.5-1,1,1-1,1-9-6.5,1-1.5-3-2,.5-1.5,4-1,1.5-1.5,1.5.5v-1.5h1l-1-.5-.5-2.5.5-.5h.5v-.5h.5l1.5-2.5,1,1v-2l-2.5,2-1,2-1.5-.5v-1.5l-1,.5-3,2.5v1h-1l-.5,1,.5,1.5-1,2,.5.5-1,1.5-3.5-2.5-1,1.5,1,3-4-4v1l-2.5,1-.5-3.5-2.5-1.5,1.5-2,1.5.5,2-3,2.5,2,1.5-1.5.5-2,.5-.5,1.5,1.5,4-3-5-4.5,1-1h-1.5v-1h1l.5-3.5h.5l-.5-3"/>
      <path data-code="kasharskij_rajon" data-title="kasharskij rajon" class="cls-1" d="M169.63,56.26l6.5-4h2l-1.5-2.5,4-3.5,1.5-2-.5-2,5,2-1.5,2.5,4.5,2.5.5-2,2.59-2.85,1.41,1.35-1,1.5,4,2,3,5.5-1.5,1-1.5-1.5-1.5,4h-1.5l-1,4.5,3.5,1,.5,1.5-1,3.5,6.5,5-1.5,1.5,1,3,3,1.5-1,1.5,2.5,1.5-3.19,4.86-1.81-1.36,1-2-3-2-6.5,1.5.5,2.5h-.5l-2-2.5-2,1.5-.5-1.5-1,.5v-2.5l-2-1-1,1-1.5-.5-7.5,5.5-6,1.5-2.5-3.14v-1.5l-3.5-2v-2.5l.5-1.5h2l.5-1.36-.91-.74,3.91-4.76-4.5-7.5,4.5-6v-1"/>
      <path data-code="konstantinovskij_rajon__rostovskaja_oblast_" data-title="konstantinovskij_rajon_(rostovskaja_oblast&amp;apos;)" class="cls-1" d="M115.12,140.62l4-.5v-3l2-1v2.5l1.5,1v1l1.5-.5,3.5-3.5h-2.5l.5-1h1l2-2-.5-2.86,2.5-1-1-2,1-2,9,2.36-1,2.5-.5-.5-.5,1.5h-1.5v1l3.5.5.5,2h1l-1.5,2.5,3.5,2.5,2-3,5,2,1.5-2,1,.5,1-1,2.84,1.05-3.84,6.09,2,1.5v2l-1,1v1h-1.5l.5,1-4,7.5.5.5-3.5,5.5h.5l-.5,1.5-1.5-.5,1.5-1.5-.5-1.5h-3.5l-8-6.5-6-.14-1.5-1-1.5.5-.5-2-1.5-.5-1,1-1.5-1v-3l-2.5-2,1.5-1.5-.5-1.5-.5-.5-1,2-2-1-1-2.5,1-1.5Z"/>
      <path data-code="krasnosulinskij_rajon" data-title="krasnosulinskij rajon" class="cls-1" d="M103.63,97.26v1.5l-1.5,2h1.5v-1l2.5,2,2-3.5-3-.5v1l-1.5-1.5M81.63,101.63l2-.36,1-1.5,1,1,2-3,2.5-1.5,1.5-2.5v-3.5l3.5,2.5h-1.5l1,2,.5-1.5h1l1,.5-1,1h4l-.5,1,1-.5.5,1.5h-1l.5,1.5,1-2.5-2-2v-1.5l-1-.5-1.5,1.5-.5-1.5v1.5l-1.5-3h1.5l1.5-2,2-.5,2.5,1.5.5,3.5,2.5-1v-1l4,4,2.5.5-.5-1h1l-.5-.5,1.5-1,3,2-1,1.5,9,6.5-2.5,5.5-1-.5-5.5,7,.5,1.5-1,.5,1,1-1.5,2.5-1.5-1-2.5,1.86-2.5-2,.5-1-1.5-1h-1.5l-1,1.5-2-1.86-3,.5-3.5-2.5-1,1-.5-1,1-.5v-1.5l-2-1.5-1,.5,2,1v1.5l-3.5,1h2.5l.25.78-2.25,1.58-1.5-2.5.5-2-1-.5,2.5-2.5v-1.86l-2-1h.5v-1.5h-1l-1-1.5,1.5-2.5-1.5,1-.5-.5.5,1.5-1.5,1.5-2-1.5-1.5,2,1,1h-1.5l.5.5-2.24-.44.24-1.19-2-.5.5-2.5,1.5-1Z"/>
      <path data-code="kujbyshevskij_rajon__rostovskaja_oblast_" data-title="kujbyshevskij_rajon_(rostovskaja_oblast&amp;apos;)" class="cls-1" d="M47.13,80.76l1-1.5,1.5,1,2.5-2.5h1.5l7,5.5v2.5l5,2,.5-.5,4,3-1,3.36h-1l.5,2-3,1,.5,2.5-7.5,2.14h-2v-1.5l-1-1-.9,1.16-2.1-1.66,1-2.5-2.5-2.5,2-3-7-4,1-1.5-2-1,1.5-2,.5-1"/>
      <path data-code="martynovskij_rajon" data-title="martynovskij rajon" class="cls-1" d="M112.12,170.12l1.5-2.5-.5-.5,1.5-2.36h-.5l4.5-7h1l5.93,4.67.57,1.7-.5,2,4.5,4.5,8.5,5,.5.5,1-1,1.5,1-1.5,2.5.5,1-.5-.5-1,1,1.5,1-.5,1.5h-1l.5-1.5h-1l-.5,1.5.5-1h.5v1.5h1l.5-1h1.5l-1,2.5,2-1.5,1,2,1-1v1.5l1-.5-.5,1.5,2-.5v1.5l-1.5,2,1,.5-1,1.5-6-3-2.5,4.5-1-.5-2.55,3.79-1.95-2.15.5-2.5-2-1-1,1.86-6.5-3.5,1-1-1.5-1v-1.5l-1.5,1-5-3,1-1-3.5-2-1,1.5-2-1.5-1.5,1.5-2-1.5,3-4.5-1-4.5,3-1.5Z"/>
      <path data-code="matveevo-kurganskij_rajon" data-title="matveevo-kurganskij rajon" class="cls-1" d="M19.63,82.26l.5.5,1.5-1.5,1.5,1,1.5-2.5,4,2.5,1-1.5,5.5,4,1.5-1,1.5,1,1-2,3.5,3.5,2-2.5,2.5,1-1,1.5,7,4-2,3,2.5,2.5-1,2.5,2.1,1.66-2.1,2.71,1.5.64-.5,1.36-3.5,1.5-1.5-1-2,2-2.5-2-1,1-10-8-1,1-.5-.5-2.5,3-14.5-10.86,5-8.5"/>
      <path data-code="miljutinskij_rajon" data-title="miljutinskij rajon" class="cls-1" d="M169.63,88.26l3-1.5h3l7.5-5.5,1.5.5,1-1,2,1v2.5l1-.5.5,1.5,2-1.5,2,2.5h.5l-.5-2.5,6.5-1.5,3,2-1,2,1.81,1.36-6.31,9.64,1,.5-1,2,2,1.5-1,1.5-2.5-1-2.5,3.86,2.5,1.5-4.74,6.04-6.25-2.4v1l-2,1-4-2.5-.5-3-3,1v-1.5l-3.5,1-2.5-9-3,1-.48-2.94,2.98-1.06-.5-1.5,2-2-.5-4"/>
      <path data-code="millerovskij_rajon" data-title="millerovskij rajon" class="cls-1" d="M126.13,32.26l2-1.5v-.5l1-.5,2,2.5h2.5l4,3,1-1.5,5-2.5,1.5,2.5,2-1,1,1.5,4,1.5-.5,3,1,.5h.5v-3l1-.5,4,2h3l-.5-.5,1.5-1-.5-1.5,4.5.5v1l-1.5.5.5,4.5,4,2.5,2-1,2,5,1.5-1,1,1,1.5-1,.95,1.73-1.45,1.27,1.5,2.5h-2l-6.5,4v1l-4.5,6,4.5,7.5-3.91,4.76-1.1-.89-2.5-.5-.5-4.5-4,1v.5l-1.5,1v-1.5l-3-.5-1.5-2,.5-1.5-1-.5,1-1-3-2-2.5,1.5h-2.5l-3-2,.5-.5-2-3.5,2.5-2.5-2.5-2-5-1v-3l.5-.36,1-3-.5-1h-2l-1.5,2-1-3.5-3-1.5v-1l-1,1,.5-1.5-1-2,1.5-1.5.5-2.5h-1.5v-2h-1v-1"/>
      <path data-code="mjasnikovskij_rajon" data-title="mjasnikovskij rajon" class="cls-1" d="M43.62,118.62l4.5-6.5,2.5,1,.5-2.5,5.5.5v2h6.5l-.5,2h-1l-.5,3.5.5,1,4.5,2v1.5l-1,1.14,1,.5-1,1.5-2,.5-1,1.36-1-.5-2,3h-3l-1,1.5-2-1.5-5.5.5-1-2.36.5-.5-1.5-.5v-1l-1.02-1.03,1.51-.61-1.5-1.5,2.5-2.5-3.5-2.5"/>
      <path data-code="morozovskij_rajon" data-title="morozovskij rajon" class="cls-1" d="M160.63,116.26l1.5,1,1-1.5h2.5l2-3h1.5l2.5-4v-1l3.5-1v1.5l3-1,.5,3,4,2.5,2-1v-1l6.25,2.4-1.76,4.46,1,.5-1,2,4,2.64h-5l-2,10.5-4.5-2-1,2,.5.5-2,6.5-2-1-.5.5h-2l-1.5,1-.5,2h-1l-4.5,2.5,1,1.5-2,1.5v3.5l-3,1.5-.5,1-2.5,2-4-3.5,1-2-3.5-2.5,1-1v-2l-2-1.5,6-9.5,1,1,4-6-2-1.5,3-4-4-5.5v-2"/>
      <path data-code="neklinovskij_rajon" data-title="neklinovskij rajon" class="cls-1" d="M7.62,94.62l3.5-3,1.5.5,2-1.5,14.5,11,2.5-3,.5.5,1-1,10,8,1-1,2.5,2,2-2,1.5,1,3.5-1.5,2.5,2.5-.5,4-4.5-.5-.5,2.5-2.5-1-4.5,6.5,3.5,2.5-2.5,2.5,1.5,1.5-2.5,1-1.5-1.5-1.5,2-2-1,3.5-3-1-2.5-3.5-3h-3l-4.5-5-.5,1-2-1h1l-1-.5,1-1-.5-1-1.5,1-5.5-3-4.5-.5-2,.5-1.5,1-3,.5v1l-6-4-3.5-.5,4-5.5.5-1,4,1,2.5-3-4-2.5M10.12,110.12l1,.5,1-1.5h1l.5-.5,5-1,7,5-1,1.5,1-.5v2.5l-1-.5,1.5,2-1,.5-12-5.5-1,.5,1,1h-.5l-2.5-4"/>
      <path data-code="novocherkassk" class="cls-1" d="M73.62,131.62l2,1.5,1.5-1.5.5.5,1-1.86-1.5-.5,3-.64.5-1,1,1-1,.5,1.5,1-.5.5,1,.5-1.5,2,.5,1.5h-2l-1.5,2.5,1,.5v1h2s.5-1,.5-1h2.5l1,.5-5,.5h-1l-1-1.5-2,2.5.5-2-1-1,1-1-.5-1.5-1.5.5.5-1.5-1.5-2"/>
      <path data-code="novoshakhtinsk" class="cls-1" d="M83.63,107.26l-.5-.5h1.5l-1-1,1.5-2,2,1.5,1.5-1.5-.5-1.5.5.5,1.5-1-1.5,2.5,1,1.5h1v1.5h-.5l2,1v1.86l-3.5-1-1,2.5,1,2-2,2-1-.5,1-1.5-3.5-1,1.5-2.5.5-1.5-3-.5-.5,1-.5-1,.26-1.31,2.24.44Z"/>
      <path data-code="oblivskij_rajon" data-title="oblivskij rajon" class="cls-1" d="M198.12,95.62l10,7-1,2,1,1.5,2.5.5,1-1.5,1.5.5,1.5-2.5,1,.5,2-3.5,3,3,7.5,4-1.5,2.5.5,4.5-2,3-4.5,1-1.5,1.5-1.5,6-1,1.5-1.5-1-3,1.5-.5-1-1,.5-5.5-.5v-1l-2.5-.5.5-1-2,.5v-1h-1l.5-.5-.5-.5-7,.5-3-1.5-1-1.5,1-2-1-.5,1.76-4.46,4.74-6.04-2.5-1.5,2.5-3.86,2.5,1,1-1.5-2-1.5,1-2-1-.5,1-1.64Z"/>
      <path data-code="oktjabr_skij_rajon__rostovskaja_oblast_" data-title="oktjabr&amp;apos;skij_rajon_(rostovskaja_oblast&amp;apos;)" class="cls-1" d="M90.56,118.45l1.07.18-1,.5,1,.5-1,.5,2.5,2-.5,1,2.5.5v.5l1.5,1-1-1,2.5-2,1,1,1.5-1h1.5l-3-3,.5-1-.5-.5-1-.5,1,1.5-.5.5-3.5-2,1.54-1.98,2.96,2.12,3-.5,2,1.86,1-1.5h1.5l1.5,1-.5,1,2.5,2,2.5-1.86,2.03,1.3-1.04,1.06,1.5,1.5-3,3-.5,3h-1l-1.5,2.5.5.5-2,.5h-2l-2.5,3-1-.5-1,2-7.5-4-4,5,.5,3h1.5v2l-2,.5-1.5,1.5-7-2.86-1.5.5-.5,2-3,.5-.5.5-.5-1,.5-1h3l-2.5-3,1.5-3.14,1,1.5h2l.05-.1,3.95-.4-3.5-.5-.45.9-1.05.1h-1v-1l-1-.5,1.5-2.5h2l-.5-1.5,1.5-2-1-.5.5-.5-1.5-1,1-.5-1-1-.5,1-1,.21v-3.21l-4-3.5,4-6,1,.5.5-1-1.5-2.5,4.02-5.33,1.98.33-.5,1.5-1.5,2.5,3.5,1-1,1.5,1,.5,2-2-1-2,1-2.5,3.5,1-2.5,2.5,1,.5-.5,2,1.5,2.5,2.25-1.58.25,1.08-1,1-2.5-.5-.07.82-1.43-1.32-.5,1,1.93.32Z"/>
      <path data-code="orlovskij_rajon__rostovskaja_oblast_" data-title="orlovskij_rajon_(rostovskaja_oblast&amp;apos;)" class="cls-1" d="M129.62,192.63l1-1.86,2,1-.5,2.5,3.5,3.86-.5,1,2.5,2-.5,1,2,1,2,.5v-2h4v4.5l-1,.5v9.5l-4,.5v4h-2.5l-.5,1,.5,5.5,4.5.5v3.5l3-.5,1.5,2-1.5,2,4,2.5-3,4.5,1,.5-.5,1,4.74,3.24-4.74,7.26,2,1-4,6.5-.5-2.5-7-1-.5,1.5-1.5.5-5.5-5-1-2v-4.5l-2-3.5.5-2,2.5-.5,2-4.5-3-2-1.5-6.5-3-.5v-1.5l-2.5,1-.5-1.5,3.5-1.5-.5-1.5,1-1-2-1.5-1.5,2-4.5-4.5,1.5-1.5-2.5-4.5,1-1.5-1-.5,2-3,2.5-1,3-4.5,1,.5,3-4.5-.1-6.63,2.1,1.13Z"/>
      <path data-code="peschanokopskij_rajon" data-title="peschanokopskij rajon" class="cls-1" d="M62.12,226.63l1.5-.5,3.5-5,1.5.5,1.5-2,2,1.5,1-2,8,4.5-1,2,5,3.5h-1.5l6.5,3.5-3,4.5-1.5-2-2,3-1.5-1-1,2,3.5,2,1,4.5-2,7-2,4.5-3.5-2-4.5-5.5-3.5-1-1.5,2.5-8.5-5.5,1-2-1-.5,1-1.5-.5-.5,2-3-.5-.5,1-1-1.5-1,1.5-2.5-3.5-1.5,3-4.5-.5-.5"/>
      <path data-code="proletarskij_rajon" data-title="proletarskij rajon" class="cls-1" d="M96.62,171.12l7.5-.5,5,1,1,4.5-3,4.5,2,1.5,1.5-1.5,2,1.5,1-1.5,3.5,2-1,1,5,3,1.5-1v1.5l1.5,1-1,1,4.4,2.37.1,6.63-3,4.5-1-.5-3,4.5-2.5,1-2,3,1,.5-1,1.5,2.5,4.5-1.5,1.5,4.5,4.5,1.5-2,2,1.5-1,1,.5,1.5-3.5,1.5.5,1.5,2.5-1v1.5l3,.5,1.5,6.5,3,2-2,4.5-2.5.5-5.5-7.5-5.5-2.5-5-5-4.5-1-2.5-7v-4l1.5-4-1.5-3.5,1.5-4,2-3,.5-6.5-3.5-4.5-.5-4.5-4.5-6-3-8.5"/>
      <path data-code="remontnenskij_rajon" data-title="remontnenskij rajon" class="cls-1" d="M154.12,242.13l1.5.5-2,3,3,1.5-2.5,3.5,6.5,5.5.5-1,2,1.5,5.5-9.5,13,7.5-.5,1.5,7,4.5-.5,1,2,1-1,1,3.5,2h-1.5l-1.5,2.5-3,2-3,.5-1.5,1,3,5-5,6.5.5.5-1,2,.5,2.5-2,2h-3l-2.5,1v-1.5l2.5-.5-.5-4,.5-2-2-3.5-1,1v2l-11.5,8.5-4-1-7.5-5.5-4-23.5,4-6.5-2-1,7.5-11.5"/>
      <path data-code="rodionovo-nesvetajskij_rajon" data-title="rodionovo-nesvetajskij rajon" class="cls-1" d="M52.62,102.62l3-3.86,1,1v1.5h2l7.5-2.14-.5-2.5,3-1-.5-2h1l1-3.5,5,7,3.5,1.5,3,3-1.5,1-.5,2.5,2,.5-.5,2.5.5,1,.5-1,1.02.17-4.02,5.33,1.5,2.5-.5,1-1-.5-4,6-2-.5v3.5h-1l-1.5,3-2-1,1.5-1.5-3-2,3.5-4.5-1.5-1-3,4.5v-1.5l-4.5-2-.5-1,.5-3.5h1l.5-2h-6.5v-2h-1l.5-4-2.5-2.5.5-1.36-1.5-.64"/>
      <path data-code="rostov-na-donu" class="cls-1" d="M47.13,128.26l-.5.5,1,2.36,5.5-.5,2,1.5,1-1.5h3l2-3,1,.5-1.5,2,.5,1h-1l1,1,1-.5,1-3.5,2,3.5-2.5,4,1,1h-1l.5,1.5-3,1v1l-3.5.5-1.5-1.5-4-1v-2l-2-.5-3-3.86.47-3.68.53.18Z"/>
      <path data-code="sal_skij_rajon" data-title="sal&amp;apos;skij_rajon" class="cls-1" d="M96.62,187.12l3.5-2-1-2.5,2.5-1,2.5,4,.5,4.5,3.5,4.5-.5,6.5-2,3-1.5,4,1.5,3.5-1.5,4v4l2.5,7,4.5,1,4.5,4.5-5,11.5,3,.5-.5,1.5-2.5,4-8-5-1.5,2.5-2-1.5-2,3,2,1.5-1,1.5-3-1.5-2,1-3-5.5v-2.5l-1.5.5v1l-2-1.5v1.5h-1.5l-.5-3.5-3.5-2,1-2,1.5,1,2-3,1.5,2,3-4.5-6.5-3.5h1.5l-5-3.5,1-2-5.32-2.99,6.82-8.87,1,.5,4.5-5.5h4l3.5-2,2.5-7.14h-5l3.5-10.5"/>
      <path data-code="semikarakorskij_rajon" data-title="semikarakorskij rajon" class="cls-1" d="M99.12,143.62h1l.5-1,1,1.5.5-1,1.5-.5v.5l1-1h2l.5-2,4.5-2-1,1.5,3.5,2.5,1,2.5,2,1,1-2,.5.5.5,1.5-1.5,1.5,2.5,2v3l1.5,1,1-1,1.5.5.5,2,1.5-.5,1.5,1-.5,2,3,1-1,1.5-1-.5-1,2h-2l.43,1.3-5.93-4.67h-1l-4.5,7h.5l-1.5,2.36.5.5-1.5,2.5-3,1.5-5-1-4,.5,4-4.5,1.5,1,2.5-3.5.5.5v-1.5l-2-1.5.5-1-7.5-5.5,1-1-4-3.5,1.5-2.5-.5-.5,1.5-4"/>
      <path data-code="shakhty" class="cls-1" d="M89.12,117.12l1.43,1.32.07-.82,2.5.5,1-1-.25-1.08-.25-.78h-2.5l3.5-1v-1.5l-2-1,1-.5,2,1.5v1.5l-1,.5.5,1,1-1,.54.38-1.54,1.98,3.5,2,.5-.5-1-1.5,1,.5.5.5-.5,1,3,3h-1.5l-1.5,1-1-1-2.5,2,1,1-1.5-1v-.5l-2.5-.5.5-1-2.5-2,1-.5-1-.5,1-.5-3-.5.5-1"/>
      <path data-code="sholokhovskij_rajon" data-title="sholokhovskij rajon" class="cls-1" d="M205.12,37.12l1-.5.5-1.5,4.5,2.5,3.5-.5,5.5-9,1.5,1,5-7-2-1.5,1.5-2.5,4.5,3.5,3,3.5v2l4,3.5-.5,4.5,1.5,2.5,1.5,9-.5,4.5-5.5,3.5-3.5,4h-1l-3,3.5-4-1.5-4,5-2,.5-2.5-4,2-3.5-1.5-1.5h-1.5l-1-5.5,1.5-1-5-5-2.5.5-.5-2.5-2-.5,1-4.5,1-1-.5-.5"/>
      <path data-code="sovetskij_rajon__rostovskaja_oblast_" data-title="sovetskij_rajon_(rostovskaja_oblast&amp;apos;)" class="cls-1" d="M207.13,80.76l1,1.36,1.5-1,.5,1,1.5-1,1,1,1-2.5,5,4.5,6,2-.5,3h.5l-1.5,3-1.5-.5-.5,3.5,4.5,2.5.5,3.5,2.5,3,.5,2-1,1-7.5-4-3-3-2,3.5-1-.5-1.5,2.5-1.5-.5-1,1.5-2.5-.5-1-1.5,1-2-10-7,8.5-12.86-2.5-1.5,1-1.5,2,1Z"/>
      <path data-code="tacinskij_rajon" data-title="tacinskij rajon" class="cls-1" d="M145.12,107.62l1,1v-1l.5.5v-1l1-2,1,.5v-2l1,.5,1-2.5,1.5-.5,1,.5,3-.5v.5l.5-1,5-1v-1.36l4.02-1.44.48,2.94,3-1,2.5,9v1l-2.5,4h-1.5l-2,3h-2.5l-1,1.5-1.5-1v2l4,5.5-3,4,2,1.5-4,6-1-1-2.16,3.41-2.84-1.05-1,1-1-.5-1.5,2-5-2-2,3-3.5-2.5,1.5-2.5h-1l-.5-2-3.5-.5v-1h1.5l.5-1.5.5.5,1-2.5-1.52-.4.52-2.1-1-2,.5-2,2.5.5-.5-2.5-1.5-1,1.5-1v-.5l2.5.5,1-1.5-1.5-3.5,3-5"/>
      <path data-code="taganrog" class="cls-1" d="M27.62,112.12l2,1,.5-1,2.5,2.5-2.5,1.5-.5,2.5h-.5l-3.61-1.81-.89-1.19,1,.5v-2.5l-1,.5,1-1.5,2-.5Z"/>
      <path data-code="tarasovskij_rajon" data-title="tarasovskij rajon" class="cls-1" d="M110.12,55.12l5.5-3,.5-2.5,2.5-.5-.5-1,1.5-.5.5.5,4.5-3.5,4,7,6-1.5v3l5,1,2.5,2-2.5,2.5,2,3.5-.5.5,3,2h2.5l2.5-1.5,3,2-1,1,1,.5-.5,1.5,1.5,2,3,.5v1.5l1.5-1v-.5l4-1,.5,4.5,2.5.5,2,1.64-.5,1.36h-2l-.5,1.5v2.5l3.5,2v1.5l2.5,3.14-7,2.86-1-2-2,.5-1-1-2.5,2-2-1.5-4.5,1-1.5-2,2.5-2.5-3-2.5h-2.5l-3-5-1.5.5-1.5-1,1.5-3-.5-2-1-1-.5,1h-1.5l-2.5-1.5-.5.5-1.5-2-1,.5-1.5-1-1,.5-1-1.5,1.5-1.5-3.5-2-1.5.5.5.5-1,1.5,1.5,1.5-2,1.5-3-2.5-.5,1-3.5-2.5-3-.5,1.5-3.5v-2l-5-3.5v-1.5"/>
      <path data-code="ust_-doneckij_rajon" data-title="ust&amp;apos;-doneckij_rajon" class="cls-1" d="M92.62,134.62l1.5-1.5,7.5,4,1-2,1,.5,2.5-3,3.5-.5v-.5l1.5-2.5h1l.5-3,3-3-1.5-1.5,1.04-1.06,2.97,1.7,2,4,1,.5,1.5-1.5,2-1,2.5,1.5,3.23.58-.73,1.42,1,2-2.5,1,.5,2.86-2,2h-1l-.5,1h2.5l-3.5,3.5-1.5.5v-1l-1.5-1v-2.5l-2,1,.5,2.5-.5.5-4,.5-1,1.5-3.5-2.5,1-1.5-4.5,2-.5,2h-2l-1,1v-.5l-1.5.5-.5,1-1-1.5-.5,1h-1l-.65,1.74-1.35-1.24-.5,1h-.5l-2-2.5-2,.5v-2h-1.5l-.5-3,2.5-3.5"/>
      <path data-code="verkhnedonskoj_rajon" data-title="verkhnedonskoj rajon" class="cls-1" d="M185.12,19.62l2-2.5,3.5,2.5,2-1.5,4,3,7-3.5h1.5l2.5-3.5,4.5-3.5,6-1.5,4,2,3.5-2,2,.5,1-3-1.5-4,4-2,1.5,2-1.5,9,2.5,5-3,2.5v2.5l-4.5-3.5-1.5,2.5,2,1.5-5,7-1.5-1-5.5,9-3.5.5-4.5-2.5-.5,1.5-1,.5.5.5-1,1-.7,3.13h-3.8v1.01l-4.5.5v2.5h-1.5l-1.41-1.35.41-3.29-5.5-3.5v-1l2-2.5-2.5-2,2-2-6-5h1l1.5-2-1-1,.5-2v-.5"/>
      <path data-code="veselovskij_rajon" data-title="veselovskij rajon" class="cls-1" d="M84.63,156.26l2,.5,3-4,1.5,1,1-1,5,3.5,2-3.5,1.5,1.36-1,1,7.5,5.5-.5,1,2,1.5v1.5l-.5-.5-2.5,3.5-1.5-1-4,4.5h-3.5l3,8.5,2,2-2.5,1,1,2.5-3.5,2-4-7.5-.5-3-1,1.5-1-.5,2-1-3-2.5,1-1-3.5-2.5-2,3,2,2-.5,1-1-.5-.5,1.5-4-2.5,1-2h1l-1-1.5,2-2.5-2.5-1.5,1.5-2-2.47-2.19.97-1.67.5.5v-2l3-4Z"/>
      <path data-code="volgodonsk" class="cls-1" d="M155.63,172.26l2.5-1.5.5,1.5-1.5,2.5,1.5,1.5h6.5l2-.5,1.5,1.5-3,1.5-5,.36v1.5h1.5l-1.5,2-1.5-1-1,1.5-1.5-3-3.5-3,1.5-.5-1-1,2-1v-1l-2.24-1.83.74-.53,1.5,1Z"/>
      <path data-code="volgodonskoj_rajon" data-title="volgodonskoj rajon" class="cls-1" d="M133.63,155.26l8,6.5h3.5l.5,1.5-1.5,1.5,1.5.5,1.5,1.5.5,3,3,1.5,1.5-.5,3.5,2.86v1l-2,1,1,1-1.5.5,3.5,3,1.5,3,1-1.5,1.5,1,1.5-2h-1.5v-1.5l1.64-.12-.64.62.5,1-1,1,1,3-1,1.5-3-2-.5,1-1-.5-1,2-2.5-1-1,2.5-2,1.5-.5-1.5.5-.5-1-1.5-1.5,1.5v-1.5l-2,.5.5-1.5-1,.5v-1.5l-1,1-1-2-2,1.5,1-2.5h-1.5l-.5,1h-1v-1.5h-.5l-.5,1,.5-1.5h1l-.5,1.5h1l.5-1.5-1.5-1,1-1,.5.5-.5-1,1.5-2.5-1.5-1-1,1-.5-.5-8.5-5-4.5-4.5.5-2-1-3h2l1-2,1,.5,1-1.5-3-1,.5-2,6,.14Z"/>
      <path data-code="zavetinskij_rajon" data-title="zavetinskij rajon" class="cls-1" d="M168.62,247.13l2-3,3,1,2-3.36,2-.64,3-.5,2.5,2,13-20.5-2-1,1.5-1.5v-1l5.5-9,6,3,1,4,3-.5-1.5,8.5-3,5.5,5,4,2-4.5,4-3.5,7,3,4.5-8,2,2,.5-1,1.5,1-2.5,4.5,3,1.5-12.5,20.5-7.5,8.5-3.5,4.5-6.5,2-2-2-4.5,3h-5l-3.5-2,1-1-2-1,.5-1-7-4.5.5-1.5-13-7.5"/>
      <path data-code="zernogradskij_rajon" data-title="zernogradskij rajon" class="cls-1" d="M44.62,181.12l2-2.5,1,1.5,1.5-.5,2.5-4.5h2l-1-1,1-1.5,3,2,.5-1,.5.5.5-.5-1-1.5,2-3,1,1,2.5-3.5,1,2,3.5-4.86,4.5,3.5,2.5-3.5-3.5-2.5,1-1.5-1.5-1.5.5-1,.5.5,1.5-3.5,5.5,3.86,1,2-1,1.5,4.5,4-1.5,2,2.5,1.5-2,2.5,1,1.5-2,2,4,2.5.5-1.5,1,.5.5-1-2-2,2-3,3.5,2.5-1,1,3,2.5-2,1,1,.5,1-1.5.5,3,4,7.5-.5,1.5-4.5-1,.5-2-2.5-.5v-.5l-1-.5-1.5,2-3-2-1,3,2.5.5-.5,2-2-.5v1.5l-4-1,1-2h-3.5l-2.34,8.67-2.66-1.67,1.5-2-1-.5,1-2-2.5-2-.5,1.5-3-1.5-.5-1.5.5-.5-3-2h-1.5l-1.5,3-2.5-2-1,.5-1,2.5,1.5,2-2,2.5.5.5-2,3-1.5.5-.5,1-4.5-3.5h-2.5l3-6-6-3.5,2-3.5"/>
      <path data-code="zimovnikovskij_rajon" data-title="zimovnikovskij rajon" class="cls-1" d="M147.62,187.62l1.5-1.5,1,1.5-.5.5.5,1.5,2-1.5,1-2.5,2.5,1,1-2,1,.5.5-1,3,2,1-1.5,3,2.5-.5,1h-.5l-2,3.5,1.5,1.5h.5v-1.86l1,2h2l-1,1.5h1l.5,1.5,1.5.5v2.5l-2.5,1,2,2.5-1,1.86-.5-.5-1,1.5,1,3-1,.5,7,4.5,1.5-2,9.5,6-10,16-6-3.5-1,2.5-1-.5-3.5,3,7.5,5-.5,1,4.66,2.9-.66,1.1-3-1-7.5,12.5-2-1.5-.5,1-6.5-5.5,2.5-3.5-3-1.5,2-3-1.5-.5-2.76,4.24-4.74-3.24.5-1-1-.5,3-4.5-4-2.5,1.5-2-1.5-2-3,.5v-3.5l-4.5-.5-.5-5.5.5-1h2.5v-4l4-.5v-9.5l1-.5v-4.5h-4v2l-2-.5-2-1,.5-1-2.5-2,.5-1-1.55-1.71,2.55-3.79,1,.5,2.5-4.5,6,3,1-1.5-1-.5,1.5-2Z"/>
      <path data-code="zverevo" class="cls-1" d="M105.13,98.76v-1l3,.5-2,3.5-2.5-2v1h-1.5l1.5-2v-1.5l1.5,1.5Z"/>
    </g>
</svg>