<svg xmlns="http://www.w3.org/2000/svg" viewBox="0 0 154 261">
      <path data-code="PSK-BEZ" d="m53.75,158.1l5.5-4v-1l4-.5,1-2h1l3,2,1-2,.5,1.5,2.5-2,3.5-.5,3-1.5-.5-1,2.5-.5.5.5.5-1.5,1-1,1.5.5,1.5-2.5-1-3.5,1-.5v-2h2v-.5l2-2v-1l4,.65-.5,1.5,1,1h2l-1,1,1,1.5,2,.5,2.5-5.5,2.5-.5-.5-2,2.5-1,2,2.5v2.5l1.5-.5v1l2.5.5-.5.5-3,1v2.5l6.5,5,2-2.5,2,2,.5-1,.5,4h1l.5-2,1,.5,1,2.5-2-.5-1.5.5-.5,1,.5,4,3.5,6-15.5,3.5-3.5,2.5-1.5,1.5v1.5h-1.5l-1,1-3-2.5,1-2-1.5-1.5,1-.5-2-1-1.5,1-2,2.5-1.5-1.5-1,.5v-.5l-2-.5h-2l-.5,1h-1l-1,1h-6.5v-1l-1.5.5-2.5-2.5-3,.5-2,2.5-1.5.5-3-4.5-1.5,1-.5-1-.5.5h-1v.5l-.5.5-3.5-.5v-2l1.5-.65-3-2"/>
      <path data-code="PSK-DED" d="m95.75,120.6l-1.5-3.5,1.5-.5.5-1.5,1,1,1-1,1.5,1.5h2l1.5,1,7,1.5,2.5-1v-1l1.5.5,2-.5.15-.3,4.35,4.4.5,1.5h4l2.5,3,6.5,4.5-.5,4,4.5,3.5-7.5,2h-4l-.5,1,1.5,1.5-3.5.5-1,1h-1.5l-1,1.5-2-1.5-.5,1-2-2-2,2.5-6.5-5v-2.5l3-1,.5-.5-2.5-.5v-1l-1.5.5v-2.5l-2-2.5-2.5,1,.5,2-2.5.5-2.5,5.5-2-.5-1-1.5,1-1h-2l-1-1,.5-1.5-2.55-.4,1.05-2.75-1.5-2,.5-1.5h-1l-.5-2.5.5-2.5,5.5-1.45Z"/>
      <path data-code="PSK-DNO" d="m127.75,98.1l5,2.65-1,2-1.5.5,1.5.5-1,.5,5.5,3v1l-.5.5,1.5,2.5-1.5.5,1,2,1,1,3.5.5.5,4.5,3,1.5-.5,2-3.5,2-2-1.5-1.5,1,2,2-1.5,2h-1.5l.5,1-2.5.5-6.5-4.5-2.5-3h-4l-.5-1.5-4.35-4.4,1.35-2.7-.5-1,.5-.5v-.5l1-2.5,3.5-.5-.5-1,1.5-1v-2l3.5-1-1-1,.5-2.5-1-1.5,2.5-1.05Z"/>
      <path data-code="PSK-GDO" d="m103.75,1.25l18-1,7,1.5,1.5,2,.5,2-.5.5,2,1,.5,1-1,1,1.5,1h-1.5l.5,2.5-1.5,3,1,.5-.5,1-1-.5.5.5-1.5,4,1.5-1v1.5-1.5l3-.5v2l2-.5.5,1.5-1,3.5-3,3-.5,2-1-.5-1,5.5h-3.5l-1.5,1.5-4-.15-1.5,5.15-1,.5v.5l-1,.5.5.5-1,1-.5,2-1.5.5v2.5l-4.5,2.5-3-3-2,.5-4-4-1.5.5-1.5-2-3-1v-1.5l-3,1-2.5-.5-1-2.5-4.5.5-4-6,.5-1.5,3.5-4.5,4.5-1.5L103.75,1.25"/>
      <path data-code="PSK-KRA" d="m22.25,120.25l1.5-1,1,1,1-1.5h1.5l.5-1.65,5-.5,3-1.85,2.5,2.5,2.5.5,1-.5,1-3h4.5l2.55,2.5-1.55.4,1,2h1l-1,1.5.5.5-1.5.5,1,3-1.5,1,1.5,1-1.5,1.65h-1.5v2h-1l-.5-1.65-2,.65v2.5l-3.5,1-.5,1.5-1,.5-1-1-1.5,1.5-3.5-.5h-2l-1,1.5-3-.5-2,2-1.55,4.75-5.95-4.75,1-1.5,2,.5,1-1-1.5-3.5,1-3.5,2-1.5.5-7.05"/>
      <path data-code="PSK-KUN" d="m82.25,209.6l2,.5,2.5-1.5,2-3.5h2.5l-1,2.5,1-.5.5-2,.5.5,1.5-1.5,2,.65v2h-1.5l4,8.5-1,.5.5,1-3,3.5,2.5,4-.5,1,4.5,3.5-4.5,1.5-2,3.5.5,1-1,1.5-3,.5v1.5l-1.5,1,.5,2-1.5,2h-7l-1.5,1v2.5l-.5,2-1.5,1-1,2-1.5,1-2,8-2-2h2v-1l-1.5.5-.5-2.5-1.5-1.5-1,1-.5-.5v-1.5h-2.5l-.5-3.5-1.5-2-.95.65-.05-3.8,2-4,2-.5.5-3.5,1,1,1-.5-.5-2,.5-2,2-.5-1.5-2.5,2.5-3-.5-1.5,2-1h-1l3-4.5h1l-1-1.5,1-1.5.5-1.5.5-.5-.5-.85v-2.65l4.5-2Z"/>
      <path data-code="PSK-LOK" d="m67.25,165.75l2-2.5,3-.5,2.5,2.5,1.5-.5v1h6.5l1-1h1l.5-1h2l2,.5v.5l1-.5,1.5,1.5,2-2.5,1.5-1,2,1-1,.5,1.5,1.5-1,2,3,2.5,1-1h1.5v-1.5l1.5-1.5,3.5-2.5,8.45-1.9.55,3.4-7,7.5v1l-.5.5v3.5l3,1.5-1.5,1h4.5l1,2-1,.5-1.5,2h-1.5v.5l-1.5,1-1-1.5,1-1h-1l-1.5,1.5.5.5-1.5,1-1,1-1.5-1.5-1,.5-2-1.15,2-3-1-2.85-3.5,5-3.5-2.5-.5,2-4,.5-5.5,5.85-1.5-3.5h-2l1-.5-3-3-1.5,1,.5-2.5-3.5-.85-1,1h-1l-1-4.5-3-2-.5-3.15-3.5-1,1-1.5.5-2.5-.65-1,1.15-.35Z"/>
      <path data-code="PSK-NEV" d="m22.75,189.6h5l3.5,2,2-1.5h1v-1h1l.5-1.5h1l.5-1.5,2,2,3.5-.5,1.5,1,2-1-1-1,1-1.5h1l-.5,1,1.5,1h-1l-.5,1.5,1-.5,3,1.5,5,6.5-1.5,2.5,6,7-.5,2.5h-1.5l-.5,1.5-1,.5-1.5-1.5-1.5.5.5,3-1.5-.5-.5,1,1,1.5-1.5,1-.5,2.5-1.5,2,2,4.5,2.5.5v-1l1,.5-.5,1-3,.5-3.9,3.4-.6.1-1-.5.5-2-1.5-1,1.5-2-3-2v-1.5l-1,1.5-1-.5-1,1-1.5-2.5-.5-3h-2l-1-2h-1.5v1l-5,1-1-1,.5-1.5-4.5-1.5h-2l-1.5,1.5h-3l-1.5-7,1-.5.5-1.5,2-.5,2-2h1.5l.5-2,3,1-.5-2.5,1.5-.5-2.5-5-2.5-2v-2"/>
      <path data-code="PSK-NVR" d="m65.75,124.1h1v-1.5l1-1,.5-1,2,1.5,2.5-1.5,5,2.5,3.5-2.5,3.5.5,1-1,.5,2.5,2.5,1,.5,1.5.5-.5,1,.5-.5,2h1l-.5,1.5,1.5,2-1.05,2.75-1.45-.25v1l-2,2v.5h-2v2l-1,.5,1,3.5-1.5,2.5-1.5-.5-1,1-.5,1.5-.5-.5-2.5.5.5,1-3,1.5-3.5.5-2.5,2-.5-1.5-1,2-3-2,1-3.5-2-.5-1-1.5-3,1-.5-.5-1.5-5.5h2l1-1.5-.5-1h1.5l.5-1.5,1-1,2.5.5.5-2,1.5-.5,2-5-4.5-4"/>
      <path data-code="PSK-NVS" d="m59.25,161.6l1,.5.5-1,.5,1,1.5-.5,2,2.5,2,3-.5,2.5-1,1.5,3.5,1,.5,3,3,2,1,4.5h1l1-1,3.5,1-.5,2.5-.5,1.5h-2l-.5,2h-1l.5,1-1.5.5h1l-1,2-3.5,1,.5,1.5-.5.5,1.5,1v3.5l-2.5,3h1l-.5.5v3l-2-1-3,.5-2.5,1.5v1.5l-2,.5v-3h-1l-3.5-4.5-1-2,1.5-2.5-5-6.5,1.5-2v-1.5l4-1,1-2,.5-1,.5-2-1-2,1-.5,1-1.5.5.5.5-.5.5-3.5-.5-2-3.5-2,2-3-1-.5,1.5-3.5"/>
      <path data-code="PSK-OPO" d="m23.75,137.1l2-1.5,2.5.5,1.5-1.5,5.5.5,1.5-2,1,1.5,1-1,.5-1.5,3-.5.5-2.5,2-.5.5,1h1v-1.5h1.5l-.5,1.5,2.5,3.5,2-.5-.5,1.5-2,1,.5.5-1,1.5,1,.5-1,1.5h1l.5,2,5.5-2,2.5,1,1.5,5.5.5.5,3-1,1,1.5,2,.5-1,3.5h-1l-1,2-4,.5v1l-5.5,4-2.5-.5-2,2.5-4-3-1,.5v-.5l-.5,1-1.5.5v-1l-1,1.5-7.5-4-2-.5.5-3-2.5-1.5-2-4.5-4,.5-1.5-1,1-1-1-1.65.5-2.85,1-2.5"/>
      <path data-code="PSK-OST" d="m46.25,99.1l3.5-2.5h1l2.5-3.5,2.5-2.5,2.5-.5,1,2,2-.5v2h1l1.5-1.5,1.5,1.5-.5-1.5,2-1.5-1-1,1.5-1,2,1.5.5-.5,2,.5v3l1.5,2-1.5,1.5v1.5l4.5-1,1.5-1,2,2.5-.5,1.5-2,.5,2,1.5v2l3,1-1,1.5v1.5l1,.5,2,6.5,1.5,1.5-1,4.5-3.5-.5-3.5,2.5-5-2.5-2.5,1.5-2-1.5-.5,1-3-2v-1.5h-1l-.5,1-2-2-1.5.5-.5-1.5-2.5.5-.5,1-1,.5-1-2v1l-3.55.7-3.45-3.55-.5-4.65-3.5-1,1.5-5,2-1-.5-3.5"/>
      <path data-code="PSK-PAL" d="m45.75,77.6l2-1,1.5.5,1-1.5,2-.5.5-1,2.5.5,4.5-1.5,6.5-.5v1l4.5,1v2l1.5,1-2,3.5,4-2-1,5,2,1.5.5,2-2,1h-2.5v1.5l-1.5-.5-.5.5-2-1.5-1.5,1,1,1-2,1.5.5,1.5-1.5-1.5-1.5,1.5h-1v-2l-2,.5-1-2-2.5.5-1.5,1.5-6.5-2.5-2-2,1-1.5-1.5-4,1-1-1-1.5,1-.5-.5-1.5"/>
      <path data-code="PSK-PEC" d="m45.75,62.6l3.5.5v-.5l1-.5v-1l1-1.5,2.5-1,3,1-.5,1,1,.5,1-1h.5v-1.5h.5l1-2.5,1,1,.5-1h1v-.5l1-.5,3.5,3h1v2l2,.5,1.5-.5,1.5-2-2.5-3v-.5h1.5l-1-1,1-2.5,1,.5.5-1,1.5-.5v-2l-1.5,1v-2l1.5-2,3-1.5,4.5,3-1,7.5-4,11-4,4.5-7.5,3-6.5.5-4.5,1.5-2.5-.5-.5,1-2,.5-1,1.5-1.5-.5-2,1,.5,1.5h-1l-1.5-3.5,5-3v-1l1-1-4.5-2.5-.5-1.5-1,.5,2-4.5"/>
      <path data-code="PSK-PLY" d="m124.75,37.6l1.5-2,3.5.5,1-5.5h1l.5-1.5,2.5-3v-1l1.5-2,3,2,.5,2h1l-1,.5,1.5,3,2,2.5,1,2.5,1.5,1.5h3l-3.5,5v1l-1.5-.5,1.5,1v2.5l4,3.5-2,1-.5,2-2-.5-1,2,3.5,1.5v2.5l-1-.5v.5l-1,.5.5-1-1.5-.5-.5,1,.5,1,1-1-.5,1,.5.5,2.5-1v4.5l1.5,2-.5.5-2.5,1v1l.5,3.5,1,1h1.5l-.5,1,.5,1-.5.5.5,1,2.5,1.5-.5-.5,2-.5v1l-.5.5,1-.5v1h-2l-.5,2-1,.5.5,1.5-1.5.5-2,1.5-1.5-.5v1h-2l-.5.5-6-5-.5,1-1-1-1.5-3,4.5-1,.5-1-1-4h-1.5l-3-6.5,2,1.5.5-1-3-3-1-.5-1,1-1.5-1.5-1-8-3-1.5,1-1-1-.5,1-1.5-3-1.5.5-1-1-2,2-2-5.2-2,.7-2.5h4Z"/>
      <path data-code="PSK-POR" d="m77.25,100.6l2-.5.5-1.5.5.5,1-1.5,2.5-1,2.5,1,4.5.5,1-1,1.5.5v-.5l1.5-.5,1-1v-1.5l3,.5.5,2,3-2h2.5l.5-1v-1.5l2-.5,2-2,1,1.5,1.5-1-1-3,7-3,2,2h2l-.5,1,3.5.5,2.5-1,1.5,3,2-.5v2.5h2l2,2v2l1,1.5-.5,1.5,2.5,1.5v1l-2-.5-.5,1h-2.5l-5-3.5-2.5,1,1,1.5-.5,2.5,1,1-3.5,1v2l-1.5,1,.5,1-3.5.5-1,2.5v.5l-.5.5.5,1-1.5,3-2,.5-1.5-.5v1l-2.5,1-7-1.5-1.5-1h-2l-1.5-1.5-1,1-1-1-.5,1.5-1.5.5,1.5,3.5-5.5,1.5.5,1.5-1.5,2-.5-2-2.5-1-1-2.5.5-3.5-1.5-1.5-2-6.5-1-.5v-1.5l1-1.5-3-1v-2l-2-1.5"/>
      <path data-code="PSK-PSK" d="m84.25,69.6l-.5,1.5h1l-.5,1.5,2,.5,1,2-1,.5,1.5,1-1.5,1.5-1-.5v1l-2,.5-1,1-1.5-1.5,1.5-1.5-1.5-.5,1-1-1-1v-1.5l1.5-.5v.5-1.5l1.5.5.5-2.5"/>
      <path data-code="PSK-PSKM" d="m84.25,69.6l-.5,2.5-1.5-.5v1.5-.5l-1.5.5v1.5l1,1-1,1,1.5.5-1.5,1.5,1.5,1.5,1-1,2-.5v-1l1,.5,1.5-1.5-1.5-1,1-.5-1-2-2-.5.5-1.5h-1l.5-1.5m-4.5-34.5l4,5.5,5-.5,1,3,2.5.5,2.5-1,.5,1,3,1.5,1,1.5h1.5l4,3.5h2.5l1,1-2.5,6h-1l2,2.5v2.5l-1.5,1-1-.5-1,1.5-2,1.5.5,1.5-1,1v.5h-1.5l.5,2h-.5v.5l-1,1.5.5,2.5h1.5l2,3-.5,1,4.5,3.5v1l5-.5.5,1.5v-1h1.5l-.5.5,1.5,1,.5.5-4,1.5,1,3-1.5,1-1-1.5-2,2-2,.5v1.5l-.5,1h-2.5l-3,2-.5-2-3-.5v1.5l-1,1-1.5.5v.5l-1.5-.5-1,1-4.5-.5-2.5-1-2.5,1-1,1.5-2.5-3-1.5,1-4.5,1v-1.5l1.5-1.5-1.5-2-.5-4.5h2.5l2-1.5-2.5-3,1-5-4,2,2-3.5-1.5-1v-2l-4.5-1v-1l7.5-3,4-4.5,4-11,1-7.5-4.5-3v-2.5l1.5-6"/>
      <path data-code="PSK-PUSK" d="m48.25,117.1l2-.5,1,1,1-1,2,.5v-1l1,2,1-.5.5-1,2.5-.5.5,1.5,1.5-.5,2,2,.5-1h1v1.5l3,2-1,1v1.5h-1l4.5,4-2,5-1.5.5-.5,2-2.5-.5-.5,1h-.5l-.5,1.5h-1.5l.5,1-1,1.5h-3l-1.5-1-5.5,2-.5-2h-1l1-1.5-1-.5,1-1.5-.5-.5,2-1,.5-1.5-2,.5-2.5-3.5.5-1.5,1.5-1.5-1.5-1,1.5-1-1-3,1.5-.5-.5-.5,1-1.5h-1l-1-2"/>
      <path data-code="PSK-PUST" d="m40.25,158.6l1,.5,1-1.5v1l1.5-.5.5-1v.5l1-.5,4,3,2-2.5,2.5.5,3,2-1.5.65v2l3.5.35-1,2,1,.5-2,3,3.5,2,.5,2-.5,3.5-.5.5-.5-.5-1,1.5-1,.5,1,2-.5,2-.5,1-1,2-4,1v1.5l-1.5,2-3-1.5-1,.5.5-1.5h1l-1.5-1,.5-1h-1l-1,1.5,1,1-2,1-1.5-1-3.5.5-2-2-.5,1.5h-1l-.5,1.5h-1v1h-1l-2,1.5-3.5-2h-4.5l3-3,1.5.5v-.5l3-2,.5-4h1l.5-1-.5-1,.5-1.5,2.5-3,1-1.5h.5l2.5-2.5-1-.5,1.5-.5-.5-2.5,1-1.5-2.5-.5.5-.5-.5-.5.5-.5v-1.5l1.5-.5.5-2.5"/>
      <path data-code="PSK-PYT" d="m20.25,108.6l4-2.5,1.5,1,4.5-3.5-1-1.5,3-1.5.5-1,1.5-.5-1-1.5,1,.5.5-1.5,3.5,1,1.5-1,2-2.5,3-1,2-2.5v-2h1v1l6.5,2.5-1,1-2.5,3.5h-1l-3.5,2.5.5,3.5-2,1-1.5,5,3.5,1,.5,4.65h-4.5l-1,3-1,.5-2.5-.5-2.5-2.5-3,1.85-5,.5-2-1,1.5-3.5-.5-.5-6-1.5-1-1,.5-1"/>
      <path data-code="PSK-SEB" d="m16.25,138.6h2l2.5,1.5,2.5,4-1,1,1.5,1,4-.5,2,4.5,2.5,1.5-.5,3,2,.5,6.5,3.5-.5,2.5-1.5.5v1.5l-.5.5.5.5-.5.5,2.5.5-1,1.5.5,2.5-1.5.5,1,.5-2.5,2.5h-.5l-1,1.5-2.5,3-.5,1.5.5,1-.5,1h-1l-.5,4-1,1-2,1v.5l-1.5-.5-1,1.5-2.5,1.5-.5-2-1.5-.5.5-1-2.5-1.5-1,.5-1.5-1-1,1-2.5-2-2,1.5v-2l-2-2,1.5-3.5-.5-2,1-2h2v-.5l-2.5-3.5-5-2,.5-.5-.5-1.5-1,.5v1.5l-1,.5-2.5-2,1-2-1.5-.5,1.5-1.5-1-3.5.5-1.5h1.5l1.5-1v-.5l1,.5.5-1.5,3.5-1,2.5-5.5v-2l2-.5,1-1.5,1-1,.5-4"/>
      <path data-code="PSK-STR" d="m120,40.05l5.2,2-2,2,1,2-.5,1,3,1.5-1,1.5,1,.5-1,1,3,1.5,1,8,1.5,1.5,1-1,1,.5,3,3-.5,1-2-1.5,3,6.5h1.5l1,4-.5,1-4.5,1,1.5,3,1,1,.5-1,1.2,1-.9,2.15-1,.75.5,1.5-2.05,1.25-1.2,1.75-5.05,1.1-1.5-3-2.5,1-3.5-.5.5-1h-2l-2-2-3.2,1.35-1.8-1.35.5-.5h-1.5v1l-.5-1.5-5,.5v-1l-4.5-3.5.5-1-2-3h-1.5l-.5-2.5,1-1.5v-.5h.5l-.5-2h1.5v-.5l1-1-.5-1.5,2-1.5,1-1.5,1,.5,1.5-1v-2.5l-2-2.5h1l2.5-6,2,2.15,4.5-2.5v-2.5l1.5-.5.5-2,1-1-.5-.5,1-.5v-.5l1-.5.8-2.65Z"/>
      <path data-code="PSK-USV" d="m47.75,229.1l4-3.5,3-.5.5-1,1.5,1.5,3.5-1,3,3v1l1.5-.5-.5,1v2l2.5-2,2,2.5,2.1-.55.9,1.55-2,.5-.5,2,.5,2-1,.5-1-1-.5,3.5-2,.5-2,4v2.5l-2,2-.5,2.5-3.5-1.5-4,2-1.5-2.5-.5,1-2.5.5-1-1,2-5h-2.5l1-1-.5-.5,1-.5-1-.5,2-1.5.5-2-2-3.5.5-2,1-.5v-2l-2-2"/>
      <path data-code="PSK-VELL" d="m72.25,203.6l2-1v-1h1.5v1l2,1v3l-2-1v1l-.5-1-1,1.5-.5-1.5-1.5.5,1.5-1.5v-1l-1,1-.5-1"/>
      <path data-code="PSK-VELM" d="m72.25,203.6l.5,1,1-1v1l-1.5,1.5,1.5-.5.5,1.5,1-1.5.5,1v-1l2,1v-3l-2-1v-1h-1.5v1l-2,1m-18.5,5.5l1.5-.5,1.5,1.5,1-.5.5-1.5,3.5-.5v-1.5l2.5-1.5,3-.5,2,1v-3l.5-.5h-1l2.5-3v-3.5l-1.5-1,.5-.5-.5-1.5,3.5-1,1-2h-1l1.5-.5-.5-1h1l.5-2h2l.5-1.5,1.5-1,1,1,2,2-1,.5h2l1.5,3.5,5.5-6,3.5-1,1-1.5,3,2,4-4.5,1,3-2,3,2,1-2.5,1,1,2.5-2.5-1,1,2.5-1.5.5-.5,3,1.5,3,3.5,1.5.5,2-.5.5-1-.5-2.5,2.5-3,1.5v1l-3-2-1.5,1.5-.5-.5-.5,2-1,.5,1-2.5h-2.5l-2,3.5-2.5,1.5-2-.5-4.5,2v2.5l.5,1-.5.5-.5,1.5-1,1.5,1,1.5h-1l-3,4.5h1l-2,1,.5,1.5-2.5,3,.6.95-2.1.55-2-2.5-2.5,2v-2l.5-1-1.5.5v-1l-3-3-3.5,1-1.5-1.5-1-.5v1l-2.5-.5-1-2-1-2.5,1.5-2,.5-2.5,1.5-1-1-1.5.5-1,1.5.5-.5-3"/>
</svg>