<svg xmlns="http://www.w3.org/2000/svg" viewBox="0 0 248.81 534.46">
      <path data-code="PRI-ANU" d="m97.66,392.31v-2h1.5l2-4-2-3.5-3-1.5v-1.5l1-2.5,3-1.5-.5-3-1.5-1-3.5,1.5-2-3v-2.5l3.5-10h1l3-7,5.5-2,1.5,1-.5,1.5.5,2h-.5l-.5,2.5-1.5,1,1,2.5,3-.5.5,1,2,1,4-4.5.5.5.5,7-2.5,3v2.5h1.5v2.5l2.5-.5,2,1,1.5,4.5,3-1.5,2,5.5,3,1,1.5,2-.5,4.5-2,2.5,1,1-.5,1.5-5.5,3,.5,2.5-3,1v2l-3,1.5,1.5,1.5v2.5l2,1.5,1,2,.5.5v2l2-1.5,2.5-4h1.5l2,.5v2l2,3h-1l-1,2.5-.5.5-.5-1-2.5,2.5-3,.5v3l-2.5,2-3-1-1.5,1-1-2h-1.5v-1.5l-1-1.5-3-2.5v-2.5l1.5-3,.5-4-1-.5v-1.5l-2.5-.5-1.5-3.5.5-1-1.5-1.5-3.5,1-1.5-4-1.5.5-1-2.5-1.5-.5"/>
      <path data-code="PRI-ARS" d="m113.66,369.31v-2.5l1.5-1,4.5,5-2-1-1,1,1,.5-2.5.5v-2.5h-1.5"/>
      <path data-code="PRI-ART" d="m86.16,443.31v-2l1.5-2.5-2-2v-2.5l1-1.5-.5-2.5h1.5l2-4,1,1,1-1.5,1,1,2-.5,2,1.5v1.5l.5.5-.5,1.5,1,.5-.5,3,1.5.5-1.5,3v2l1.5,1-1,2v2.5l-2-.5v-1h-1l-2.5,1.5-1.5-2.5-2.5.5-2-.5"/>
      <path data-code="PRI-BOL" d="m104.16,454.81v1l1.5-1-.5-1.5-1-1,1-1.5-1,.5v-1.5l-1.5-.5,2-1,.5-2.5,1,.5v1.5l2,1-.5.5.5,4h2l1,1.5-2.5,3-3-.5.5-1h-2v-1.5"/>
      <path data-code="PRI-CHE" d="m67.66,370.81l-.5-2.5-.5-.5v-.5l1.5.5,2-1.5-.5-1.5,2.5-.5-.5-3.5,1-3,1-2h2.5l.5,2,4,2,5-1,4.5,2.5.5,1,3.5.5-1.5,5v2.5l2,3,3-1.5,1,.5,1.5,3.5-3,1.5-1,4-2,1.5h-2v1.5l2,1,2.5-.5-.5.5.5,2.5-6.5-1,.5,2.5-2.5.5-1.5,1.5-2.5-.5.5-.5h-.5l-1-2.5-.5-3h-1v2.5l-5.5-1.5v-2.5l-.5-2.5h-2l.5-2-2-1,.5-1-1-1.5h-2l-.5-3-.5.5v-2h-1"/>
      <path data-code="PRI-CHU" d="m125.66,379.81v-2l-1.5-2.5,1.5-1.5-1-1v-2.5l2-5-.5-1.5.5-1.5-.5-1,.5-.5v-6l4.5-3.5-.5-3-1.5-1.5,1-4-.5-1.5-2-.5-2-5,2.5-1-.5-2,1.5-1v-3l1-2.5-1.5-2.5.5-2.5,1.5,2,1-.5-1.5-.5,1-1-1-4h1.5l.5-3-3-4-3.5-2,1-1.5-.5-2h-.5v-8l1.5-1,1.5,1,2.5-4-.5-2,4,2,2-2-.5-1.5,3,.5,2.5-1,6.5,2.5,3-1,2-8,2.5-1,2.5,1,2-5,2.5-1.5,2,.5-2.5,3,.5,6,1.5,3.5-1.5,3,.5,1h4v-3l2.5-2.5,5-1-.5,2-2.5.5-.5,2.5,2.5,2v2.5l-3.5,2v3l2,.5-.5,3-3,2h-2.5l-1.5,3,1,1.5,1.5,4v4l-.5.5,1.5,2-.5,2.5,6,4v2l1,.5-.5,1.5,1,1-.5-.5-3.5,3.5-1.5-2-4.5,2.5-.5,2,.5,5.5-1,1.5,2,7.5,1,.5v1.5l1,.5v1.5l2,2.5-.5,1.5,1,2,4,1.5,2,2,1-.5.5,1-1,3.5h-1l-.5,2.5-1.5,1.5,1,3.5-2,4.5.5,2-1,1,1.5,1v.5l-1.5,2.5-1.5-.5-1,1-.5,3.5h-4l-1,2-2-.5-2-2.5-1.5.5-1.5,2-3-.5-2,1-1.5-.5-1.5.5v1l-1-1-2.5.5-2-1h-2.5l-1.5-1.5h-2l-.5-2.5-1-1-1-2v-1.5l-4,.5-1-1-.5-3.5-3.5-1.5-1-1"/>
      <path data-code="PRI-DLG" d="m162.66,292.31l1.5-3.5-1.5-3.5-.5-3.5.5-4,3.5-2.5h2l1.5,1,.5-2.5,1.5-.5,1.5,2,3,1,1.5-.5.5-2,2-1.5v-1.5l1-.5v-2l3.5-.5,1-2v-2l2.5-1.5.5-2.5-1-3,3-1,1.5,1,1.5-1,5,.5,3.5,2,1.5,2.5-.5,2,1,1,1,4.5-2,8,1.5.5,2.5-2,2,.5v1l1.5,2.5,2,4.5.5,3.5-2,.5-.5,1.5,1,1.5,3,.5,1-2,3,.5,2.5-2.5,1.5,1,.5,2,1.5-1.5-.5,3.5-3,5h-1.5v2l-4,3.5-.5,3.5,1,2,.5,5.5-2,2-.5,3h-1.5l-1.5-2-4.5-2v-2l-1-1.5-3,.5-.5,2-1.5.5-1.5-2.5-1.5-.5-.5-2-2-.5-1-2-2.5.5-1-2-3-2.5-2.5.5-.5-2-1.5-1-2.5-.5-1.5,1.5-1.5-1-3.5,2.5-4-1.5.5-3.5,3-1.5v-2.5l-2.5-2,.5-2.5,2.5-.5.5-2.5-5,1.5-2.5,2.5v3h-3l-1.5-.5"/>
      <path data-code="PRI-DLR" d="m80.16,248.81l1-1.5-1-2.5,1.5,1.5h1l.5-2,1,1,3-2.5-.5-1.5h.5v3l1,1.5-1,1.5,1,1.5-3.5,1.5-1.5-1.5-2,1.5-1-1.5m1.5,3v-1.5l1,.5v1.5l-1-.5m-2,.5h.5v.5l-.5-.5m3,3l.5-1h.5l.5,2-1.5-1m-1,0v-.5h.5v.5h-.5"/>
      <path data-code="PRI-DRM" d="m79.66,252.31l.5.5v-.5h-.5m2,3h.5v-.5h-.5v.5m1,0l1.5,1-.5-2h-.5l-.5,1m-1-3.5l1,.5v-1.5l-1-.5v1.5m-6,6l1-1.5-1-1.5,1-.5-1-1.5.5-.5h3.5v-2.5l-1.5-1.5,1-1.5h2l-1,2,1,1.5,2-1.5,1.5,1.5,3.5-1.5-1-1.5,1-1.5-1-1.5v-3,1.5l-3,2.5-1-1-.5,2h-1l-1.5-2v-6l-.5-1.5-4-3v-1.5l2-2,1-4.5,1,1-.5.5,2.5,4.5,6.5-1.5,3,3,4.5,1.5-1,1.5,2.5,3-.5,2,1,1,2.5-1,1.5,1h3v-2l2.5-2,4,1.5,1-1,2,.5,1,7.5-3,.5v2l.5,2,1.5.5.5,1,1.5-.5,2,1.5,1-1,1.5,1,4.5-3h1.5l1.5.5.5,2,4.5,1.5,1-.5.5-2,2.5-3.5,3.5-1.5,6,.5,2,3v3.5l-1.5,3,.5.5,1,1.5-1.5,1.5,1,3,3.5,2v1l1,.5,3.5-2,1.5,2,3.5,2.5.5-.5,1,1,2,.5,1.5,4.5-1.5,1.5-2-1-2.5,1.5-2,5-2.5-1-2.5,1-1.5,5.5v1l-2.5,2.5h-3l-1.5-1.5-3.5-1-2,1-3-.5.5,1.5-2,2-2-1.5h-3l-3-2-1,2-2.5,1-1,3h-2l-2.5-3-2.5-.5-3.5,1.5-2.5-1.5.5-2.5-1-4.5,1.5.5-.5-4,1-1-1-4,.5-2.5h1.5v-2.5l-1.5-1.5.5-2-1-3-2,2-2-2-1,.5-.5-1.5-1,.5-.5-1.5-3.5.5-2-2-2.5.5-2-2-1,.5-3-3-2.5,1-3.5-.5v2h-1l-1.5-1h-1l-1.5-1.5-1,1-1-.5"/>
      <path data-code="PRI-ZFO" d="m114.16,470.81h.5-.5m-5.5-5l-1-3.5,1-.5-.5-3,4-4.5h1l1,1.5-.5,1.5,7,2.5,1.5,1-1.5,2,1,2.5h-1l-.5-1-.5.5.5-.5h-1l-.5-2-4.5-.5.5,1-2-1.5v1l1,1-1.5,2-1.5-.5,2.5,1.5v3l-1-1-.5,1.5-.5-1.5-1,.5v-2l-1.5-1m6,1.5l.5-.5-1-2,.5-1,2.5,2.5-.5,1,.5,1,2.5,1-.5,1-2.5-2-1,1-1-2m-1,8.5l1-2.5,2,2.5-.5,1-1-1.5-.5,1-1-.5"/>
      <path data-code="PRI-YAK" d="m104.66,357.81l.5-2h1l.5-2.5h.5l-.5-2,1.5-1.5-.5-2.5.5-1.5,4-2-3-7,.5-4.5,1-2-.5-4,.5-2.5-.5-2.5-2-.5-1-1.5.5-1-1-2,2.5-.5,4.5,3.5.5,1.5.5-.5.5,3,1.5-.5,3,2.5,3.5.5,4.5-3.5v-1.5l1.5.5-.5,3,1.5,2-1,2.5v3l-1.5,1,.5,2-2.5,1,2,5,2,.5.5,1.5-1,4,1.5,1.5.5,3-4.5,3.5v6l-.5.5.5,1-.5,1.5.5,1.5-2,5v2.5l1,1-1.5,2-3,1-1.5-4.5-3-1.5,1-1,1.5,1-4-5-1,1v-1l2-2-.5-3,.5-2-1-2.5-4,4.5-2-1-.5-1-2.5.5-1.5-1.5"/>
      <path data-code="PRI-KAV" d="m167.16,354.81v-1.5l-1-.5-1.5-4.5-.5-3,1-1.5-.5-7,2.5-2.5,2.5-.5,1.5,2,3.5-3.5.5.5-1-1,.5-1.5-1-.5v-2l-6-4,.5-2.5-1.5-2,.5-.5v-4l-1.5-4-1-1.5,1.5-3,3.5-.5,2-1.5.5-2.5,2,.5,3.5-2.5,1.5,1,2.5-1.5,3,1.5.5,2,3-.5,2.5,2.5,1,2,2.5-.5,1,2,2,.5.5,2,1.5.5,1.5,2.5,1.5-.5.5-2,3-.5,1,1.5v2l4.5,2,1.5,2h1.5l-1,3.5,2,2.5v2.5l1.5,4-2-3h-3l-1-1-1,1.5-1-1.5-1.5.5-3-1.5-2.5,2-3-.5.5,1.5,1,.5.5,1.5-2,3.5-1.5-1.5h-1l.5,2-1,2,.5,1.5-3.5,5-9,2-6.5-2-3.5,5.5h-1.5l1,3.5-2,1.5-.5,1.5,1.5,2.5-.5,1-1.5.5-2-2.5v-1.5l-1-.5"/>
      <path data-code="PRI-KHN" d="m17.66,346.81l5-11.5-1-2.5-1.5-.5-.5-4,2-1.5,3,.5-1.5-2,.5-5.5,1-3h1.5l2.5,3,3.5.5v2.5l1.5,2.5,4.5,3-1.5,2.5,1,3,1,.5,4-1,.5,1.5,2,1.5,1.5,5,1,1.5.5-.5-1,1-1.5,5,2.5,3,.5,1.5,2,1.5,7.5-.5,4,1.5h-4.5l1,1.5h2l-2,.5-.5,2-5,3.5-.5,2.5-3.5,1-.5,1h-2l-2-.5v-1.5l-1.5-.5-1.5,1-.5-1h-2l-1.5-1.5-1-3,1-1-4-5-4,2-2,3-1-3-3.5-.5-.5-4-1.5-2v-1.5h-2.5l-1-1.5"/>
      <path data-code="PRI-KHS" d="m32.66,511.81l4-8,4-4.5,4-.5.5-3.5,1.5-1,3,.5,2-2,4-1-1.5-3.5,4-1v-4h-1.5l-2-3.5-.5-2.5,1.5-1.5-.5-2,1-2.5-2.5-5.5-.5-1.5,1.5-2-2-6,1-4-2-3.5,2.5-1,3.5,2.5,16-4,1,2.5,1.5,1.5-.5,1,1.5,2.5v2.5l-1.5,1-3-3.5-3.5,2v1.5h1l1,2h3.5l.5,1.5-1.5.5.5.5h1l.5-2.5.5,1-1,8-1,2.5v1l.5.5h1v1l-1.5,1,.5-.5-.5-1,1-.5h-1v1.5l-1-.5h.5-1l-1,1,1-1v2.5l-3,1v1l.5.5.5-1.5,1.5-.5.5-.5,1.5,2-1.5,1-.5,1.5-2.5-1-1,1,1,2,.5.5,1-.5v3l3-2.5h.5l-3.5,5.5.5,2.5h1.5v1.5l-2.5-1.5-2.5,3,1,5h1v1.5l-1,.5,1,1-1,1.5,1,1v.5l2,1-1,.5,1,2-3.5-.5,1-2-1,1-2-.5v-1.5h-1l.5-.5-1.5-1.5-.5,2.5.5.5,1,.5-2-.5v-.5l-1.5,1.5-1-1-.5,1.5-1-1-1,2.5.5,1-.5,1.5-2.5.5h-.5v-1l-.5.5-.5-.5h-2v-1l1-1h.5l4,1,.5-1.5-1-1.5-2,1.5-.5-.5-.5-1-.5,1-2.5,1v1.5l-1-.5,2-2-.5-2h.5l-.5-.5-3,3-2.5-.5-1.5,4,.5,1,4-.5.5,3-1,1-.5-.5h-1l1.5,1v1l-.5-1,.5,1v-1.5l1-1,.5-2,1,.5v-1l.5-2,.5,4,3-.5.5,1.5,2,.5v1l-1-1-1,.5,2,2.5v1.5l-2.5,1.5v2h.5v-1.5h.5l.5,6.5-.5,5-3-1-.5-1v-2.5l-2.5-2.5-2.5-.5-1-2.5-2.5-1.5-.5-3,1.5-.5v-2.5l-1.5-2.5-4-3h-2l-2,2-3.5-1.5m35.5-5v.5-.5m-10.5,14.5v.5-.5m14.5-28.5v-.5.5"/>
      <path data-code="PRI-KHO" d="m46.16,382.81v-3.5l1.5-2.5-.5-1.5-1.5.5-.5-2,4-7.5,4-1.5v-2l5-3.5,1-2.5,1.5-.5-.5,1.5.5,2,5,1,2-.5-.5-2,3,1,1.5-1.5-.5-1h2l-1.5,4,.5,3.5-2.5.5.5,1.5-3.5,1.5.5.5.5,2.5h1v2l.5-.5.5,3h2l1,1.5-.5,1,2,1-.5,2,1.5-.5,1,2,.5,5.5-1,2.5-3,2.5-3-.5-3,1-2-6-2-2.5-3.5,2-1-2-3-2-.5,1.5h-1.5l2.5,5.5-3.5,1.5-2.5-5-2-1-.5-2-1-.5"/>
      <path data-code="PRI-KIR" d="m76.66,301.31l-.5-3,8-.5,3-1.5v-1h1.5l2,1.5h2l-1-1.5,2-.5,1.5-2.5,2.5.5-.5,1,2,1.5,1.5-1.5v-3.5l2.5-.5,2,.5.5-1,3,1,.5,2,2.5,1,3.5-1.5,2.5.5,2.5,3h2l1-3,2.5-1,1-2,4,2,.5,1.5-3,4.5-1-1.5-1.5,1-.5,4,.5,4h.5l.5,2-1,1.5,3.5,2v1l3,2-.5,4h-1.5l1,4-1,1,1.5.5-1,.5-2.5-2.5-.5,1.5-4.5,3.5-3.5-.5-3-2.5-1.5.5-.5-2.5h-.5l-.5-1.5-4.5-3.5-1,.5-1.5-1.5-6,1.5-1,1.5,1,1h-1.5l.5,1.5-1,2-.5-1.5-3,1.5-3-1-2.5-1.5v-6.5l-1,1.5-3-1v-1h-2v-3l-1.5-.5.5-1.5h-1.5l-1.5-4-3-2.5"/>
      <path data-code="PRI-KRA" d="m90.66,232.31l1-1,4.5-.5v-1.5l3.5-1.5-.5-1h3l-3.5-3.5.5-2.5,1.5-1,2,2,2-2.5,2.5-1,.5-3,2-2.5-1-2.5,1-1.5,2.5,1,2-3.5,3.5,2.5,1-1.5,1.5,1,1.5-2.5h3l-.5-3,1-2,2,.5.5-1.5,2.5-1,1.5-4,4.5,1,1.5-2,3-1-.5-2,.5-3-.5-2.5,3-5-.5-1,.5-1.5-1.5-2h1.5l1-2,4,2.5,1-.5v-2.5h2.5l-.5-1,4-4,1-3.5,2.5,2.5,1,4,.5.5,2.5-.5,1.5-3.5,2.5,1.5,3.5-1.5,2,.5,1.5-2-1-1.5h1l1-1.5,2.5,1.5,1.5-1,5,.5,3,2.5h6.5l1,1h.5l-.5,3.5.5,1.5,1.5.5,1.5,2-1,3,.5,2.5,2.5,4.5-1,2,.5,1-.5,2,.5,1.5,4.5,4-1.5,3.5-3,3,.5,1,2.5.5,1,2-4,6v1l2,3v1.5l2,2-.5,1.5,3,1,1,1.5-.5,1-1,.5-.5,2-1.5,1,.5,2.5,1,1-1,2-2,1.5-.5,1.5,1.5,2.5-3.5.5.5,4-5-.5-.5,1,1,1.5-2,3,.5,2.5h-1l-2,5.5-3,.5,1,3-.5,2.5-2.5,1.5v2l-1,2-3.5.5v2l-1,.5v1.5l-2,1.5-.5,2-1.5.5-3-1-1.5-2-1.5.5-.5,2.5-1.5-1h-2l-1.5-4.5-2-.5-1-1-.5.5-3.5-2.5-1.5-2-3.5,2-1-.5v-1l-3.5-2-1-3,1.5-1.5-1-1.5-.5-.5,1.5-3v-3.5l-2-3-6-.5-3.5,1.5-2.5,3.5-.5,2-1,.5-4.5-1.5-.5-2-1.5-.5h-1.5l-4.5,3-1.5-1-2,1-1-1.5-1.5.5-.5-1-1.5-.5-.5-2v-2l3-.5-1-7.5-2-.5-1,1-4-1.5-2.5,2v2h-3l-1.5-1-2.5,1-1-1,.5-2-2.5-3,1-1.5-4-1-1-1.5"/>
      <path data-code="PRI-LAZ" d="m148.66,453.81v-2l1-.5.5-3,2-1.5v-2l-2.5-4.5,6-6v-1l-1-1.5v-2l4-5v-5l1.5-4.5-1-1.5v-1.5l-3-1.5-.5-2-4-1-3,1-.5-3-3-5.5-2,.5-.5-2.5,1-2-1-1.5,7,1.5v-1l1.5-.5,1.5.5,2-1,3,.5,1.5-2,1.5-.5,2,2.5,1,.5,2.5-2h3.5l2.5,1,2,2.5.5-1.5h1.5l4,1.5,1,1.5,3.5.5,1,3.5,2,1.5h1.5l1,.5,1.5-.5,2,2,1-.5-4.5,9-1.5.5.5,1.5-1.5-.5-3,4,.5,2.5-1,2.5.5,1.5-3.5,4-1.5,8-1.5.5-.5-1.5,1-.5h-2.5l-3.5,6,.5,3-3.5-2h-1.5l-.5,1.5-1-.5-.5.5,1,1-1,1-1-.5v1.5h-2.5l1,1-1,2-1.5.5-.5,2-2,2h-3l-.5-1-2-1-1,1-3.5-1m26-14h.5-.5m0,1v-.5h.5l-.5.5m-8,4.5h.5-.5"/>
      <path data-code="PRI-LES" d="m76.16,298.31l-1-6.5-1.5-2.5.5-6,5-8.5h2l-1.5-2.5h.5v-1.5h2l-2-1,1-1.5-1-2-1.5-.5-1,1,.5-3,1-1-1.5-.5-.5-1.5,1.5-.5-1.5-.5-1.5-2,1,.5,1-1,1.5,1.5h1l1.5,1h1v-2l3.5.5,2.5-1,3,3,1-.5,2,2,2.5-.5,2,2,3.5-.5.5,1.5,1-.5.5,1.5,1-.5,2,2,2.5-2,.5,4-.5,1,1.5,1.5v2.5h-1.5l-.5,2.5,1,4-1,1,.5,4-1.5-.5,1,4.5-.5,1.5-3.5-1.5-.5,1h-4l-1,3.5-1,1.5-2-1.5.5-1-2.5-.5-1.5,2.5-2,.5,1,1.5h-1l-4.5-1.5v1l-3,1.5-8,.5"/>
      <path data-code="PRI-MIK" d="m52.66,392.96l-.5-1.5,3.5-1.5-2.5-5.5h1.5l.5-1.5,3,2,1,2,3.5-2,2,2.5,2,6,3-1,3.5.5,3.5-4-.5-3,5.5,1.5v-2.5h1l.5,3,1,2.5h.5l-.5.5,2.5.5,1.5-1.5,2.5-.5-.5-2.5,6.5,1-.5-2.5v-1l-2,1-2-1.5v-1h2l2.5-1.5,2.5,1.5,2,4-2,3.5h-1.5v2l1.5.5,1,2.5,1.5-.5,1.5,4,3-1,2,1.5-.5.5,1,2.5.5,1.5,2.5.5v1.5l1,.5-.5,4-1.5,3.5-3.5-.5-3.5-4h-2l-1-1-1.5-.5-4.5,3-1-2.5-5.5-1-1.5-4.5v2.5l-.5.5-1.5-1.5-7,1.5-1.5-1-1.5,1.5.5,1-1.5,1,.5,1.5-5.5.5.5-2-1.5-.5-.5-1-3-.5-1-2-2.5,1-2-1v-1.5l-3.5-7-1,.5-1.5-3.5"/>
      <path data-code="PRI-NAD" d="m53.66,447.66l4-6.5,2.5-1,2-4,2-8.5,4.5-1.5v-1l5.5-1.5,2,1,.5,1.5,1.5.5h5.5l2.5,1,.5,5-1,1.5v2.5l1.5,2.5-1,2.5v2l-1,1,.5,2,1,.5-1.5,2.5.5-2-1.5-1.5-4,1-2,3-1-2-1.5,1.5-2-3.5-16,4.5-4-3"/>
      <path data-code="PRI-NAK" d="m131.16,461.66v-1l2,1,1.5-1-.5-2,1-2.5,2.5-.5,2.5,1.5.5,1-3.5,2-.5,3.5,1-2.5,1,1.5-.5,1,.5,1h-1l.5,2.5-3-1-1.5-3-2-.5-.5-1m8,3l.5-.5-.5.5m-18.5-.5v-1l1.5-2-1-.5-.5-1.5,2.5-1.5-1.5-2.5.5-.5,1.5,3h1.5l-1.5-1.5,1-.5,3,1.5-.5,2,1,.5h-1l1,1-1.5.5v.5h1v1l-3,.5-1,1,.5,1-1.5.5-.5-1.5-1,1-.5-1m24,1.5l1.5-1h-1.5l1-2,1.5.5.5-1-2.5-.5-1.5-1.5v-1h-1.5l-1-1.5,5,.5,2,2,2-.5v2.5l-2,2.5-2,1.5-1.5-.5m5-2l2-4,1.5.5-.5.5.5,1.5-1,.5-.5,2-2-1"/>
      <path data-code="PRI-OKT" d="m27.66,398.66h5l2.5-1.5,5-6.5,5,4,1.5-1,.5-2-.5-3.5,1.5-1v-1.5h1l5,11,1-.5,3.5,7v1l-3,2,4,7-1.5,2-4.5.5v2l-3-2-1.5,1.5-2-1-2,2-3-1-1.5.5-.5-1-2,1-1-2.5-2,1-1-3.5,1.5-2-8-12"/>
      <path data-code="PRI-OLG" d="m169.66,393.16l.5-3.5,1-.5,1.5.5,1.5-3-1.5-1,1-1-.5-2.5,2-4-1-3.5,1.5-1.5.5-2.5h1l.5-3.5v-1h-1l-2-1.5-4-2-1-1.5v-1.5l2-.5.5-1.5-1.5-2,.5-1.5,1.5-1.5v-2.5h-1l.5-1.5,1.5.5,3.5-5.5,6,2,9.5-2.5,3.5-4.5-1-2,1.5-2-.5-1.5h1l1.5,1.5,2-4-.5-1-1.5-1v-1l3,.5,2.5-2,3,1.5,1.5-.5.5,1,1.5-1,1,1,2.5-.5,1.5,1,1,2.5-3.5,4,1.5,2-.5,1.5,1.5,1.5-1.5-1-2,1,1,.5.5,2,1-.5-.5,2.5,1.5-.5v-2l1-.5.5,4-1,.5.5,2-.5,2.5.5,1.5-1,1-1,3.5-2,3.5-2-1.5,1-2-2,2-2-1,2,1.5-1,1,2,.5v2.5l1,1-1,3,.5,1,.5,3.5.5,2.5-1.5.5-3,5h-1v2l-3.5,6-1,3.5.5,2.5-3,2-1.5,5.5-2,.5-1.5,4h-1l-1.5-1.5-2.5.5-3-1-2-5-3.5-.5-1-1-4-1.5h-1.5l-.5,1.5-2-2.5-2.5-1.5"/>
      <path data-code="PRI-PRT" d="m125.16,444.16l-1-2.5.5-2.5h-1.5l1-1-2-3,1.5-3.5-1.5-1,3-4-4-3,2.5-2,.5-3,2.5-1,3-2v.5h1l1-2.5h1l-.5-1.5,2.5,1,1.5,3,2,1.5,1.5,2.5v2l1.5,1.5-.5,5,1,3,1,.5-1,.5,1,2-1.5,3.5h-.5l.5,4h-2.5l-.5,2-2,.5-6.5-4-1.5.5-1,2-2,1"/>
      <path data-code="PRI-PRM" d="m115.16,456.51l3-2,1.5-5,5-3,.5-2.5,2-1,1-2h2l3,2.5,3,1,2-.5.5-2h2.5l-.5-4h.5l1-2.5.5-1-1-2,1-.5-1.5-1v-7.5l-1.5-1.5v-2l-1.5-2.5-2-1.5-1.5-3-3.5-2-1-1,.5-1.5v-.5h-3.5l-2.5,4-2.5,1,.5-2h-1l-.5-2.5-2-1v-3l-1.5-1.5,3-1v-2.5l2.5-.5v-2.5l5.5-3v-1.5l-.5-1.5,2-2v-3l2,1.5,3.5-.5v1.5l1,2,1,1,.5,2.5h2l1.5,1.5h1l.5,1.5-.5,2v2.5l2-.5,3.5,5.5.5,2.5,3-.5,4,1v2l3.5,1.5v1.5l1,1-2,5,.5,5-4,5v2l1,1.5v.5l-6,6,2.5,5v1.5l-2,2-.5,3h-1v2.5l6.5.5.5,3-2.5,1v1.5l-1.5-.5-2,4,1,1-2,1-1,2-1.5-1.5,3.5-3.5.5-3-2,.5-2-2-5-.5,1,1.5h1.5l-.5.5,1,1v.5l-3-1.5v-2.5l-.5,1v-1l-1.5-1-2-.5-2,.5-1,2.5.5,2-2,1-2-1-1-3-2,1v-1.5l-2.5-1.5-1.5.5,1.5,1.5h-1.5l-1.5-3-.5.5,1.5,2.5-2.5,2-2.5-.5-3-2.5"/>
      <path data-code="PRI-POG" d="m.16,365.16v-2l4-3-1-2.5,2-2.5,3,1,2.5-1.5,1.5-5.5,8-.5h1v1.5l1,1,1,5,3.5.5,1,3,2-3,3.5-2,4.5,4.5-1,2.5,2.5,3,.5-.5,2,2,1.5-1.5,1.5,1v1.5l4.5.5-2.5,2.5-1.5,4,.5,2,1-.5,1,1.5-1.5,2v4l1,.5,1,3.5-1.5,1,.5,5.5-2,1-5-4-3,4.5-4,3-3,.5h-2.5l-19.5-29-2.5-2.5-1.5,1-1-1.5H1.16l-1-1.5"/>
      <path data-code="PRI-POZ" d="m79.16,227.66l1.5-1v-2l-1-1,1.5-2-1.5-2v-2.5l-1,1-1.5-.5-.5-1.5,2.5-2-.5-1.5-3.5-2-1.5.5-1-1.5v-4l-1-5,2-5.5,1.5,1,1-2.5,6-2,1-2.5,5.5-2.5,1-2-1-.5,1-1.5-1-1.5.5-2-2.5-3-3-1.5.5-4.5-2.5-2.5,1-2,1,1,3-1v-2.5l-1.5-3v-1.5l2-1.5-1-1.5v-2.5l3.5-3,1,1,1.5-4,4.5,1,2.5-1,.5-1.5-1-2,1.5-4,7,1v-1.5l1.5,1,1.5-1,1,2.5,2.5.5,2,2h3l-.5,3,1.5,2-1.5,1.5,1.5,3,2.5-2v-1.5l1.5-.5,3-4,2,1.5,4.5-3.5h1l.5,1-1.5,2.5h4l4,3.5,7-1,1-4-.5-1.5,1-1,5,3h4l.5-1,4.5-.5.5-2-1-1.5,2-2.5,3,1,2-1.5,1,1,2-1.5-.5-3,3-3-1-1.5,1.5-.5.5-2-.5-3.5,2.5-1-.5-3,1.5-1,.5-2.5-1-1-2.5-1-1-4.5-1-2,.5-3-1-6,1-2,3.5-.5,2,1,1.5-1-.5-1,.5-1h1.5l1,1.5,3,.5.5,1,2.5-.5.5-1,2-.5v-2l1.5-3,6,2,1.5,2.5.5.5v1h1.5l.5,2.5,5,1-1,2.5,1.5,1,1,2.5h2l2,2,.5,1.5,3,2,4,7,3,1.5-1,1.5v4l4,1.5.5,1.5-2.5,2-1.5-.5-1.5,2.5.5,4-1.5,1v3l-2,3.5,1.5,5v2.5l-2.5,2.5.5,1.5h-1l-.5,2-4,2,3,5-7,2-.5,2.5,1.5,2.5-.5.5-1.5.5-2.5-1h-5l-1-.5-3,1.5-1,2-3-2v-2l1-2-2-2-6.5.5-3-2.5-5-1-1.5,1-2.5-1-1,1.5-1-.5,1,2-1.5,2-2-.5-3.5,1.5-2.5-1.5-2,3-2.5.5-1-4.5-2.5-2-1.5,3.5-3.5,3.5.5,1-2.5.5v2.5l-1,.5-4.5-2.5-.5,2h-2l2,2-.5,1.5.5,1-3.5,5,1,2-.5,3.5.5,2-3,.5-1.5,2.5-4.5-1.5-2,4-2,1.5-.5,1.5-2-.5-1,2,.5,2.5-3,.5-1.5,2.5-1.5-1-1,1.5-4-2.5-1.5,3-2.5-.5-1,1,1,2.5-2,2.5-.5,3.5-2.5.5-2,3-2-2-1.5.5-1,3,4,3.5h-3l.5,1-4,1.5.5,1.5-4.5.5-1,1-2.5-2-6.5,1-2.5-4"/>
      <path data-code="PRI-SHK" d="m91.66,426.16l.5-2.5,1-.5,1-3,2.5-3-1-2.5-2.5-.5-1-3.5h2.5l5-2.5,2,1.5h2l3.5,4,3.5.5v2.5l3,1.5,1,2-.5,1.5h1.5l1.5,1.5,1.5-.5,4,1.5,2.5,2.5-3,4,1.5,1-1.5,3.5,2,3-1,1.5h1.5v7l-5,3-1.5,5-3,2,3,2.5-4.5-1.5v-1.5l-.5-2h-1l-4,5,.5,3h-1l-.5-1.5h-.5l.5-2-1.5-1,3,.5,2.5-3.5-1-1h-2l-.5-4,.5-.5-2-1v-1.5l-2.5-2-2,1.5v-1l-1,.5.5-4.5-1.5-1.5-2,.5-.5-1.5,1.5-3-1.5-.5.5-3-1-.5.5-2h-1l.5-2-2-1-2,.5-1-1"/>
      <path data-code="PRI-SPD" d="m81.66,350.66l1.5-2-.5-3.5,3.5,2.5-.5,3-1.5-.5-1,1.5-1.5-1"/>
      <path data-code="PRI-SPM" d="m81.16,307.66l-1.5,7-1.5,2.5v1l-1,1-5-1-1,12-1.5,4.5.5,3,3,6-2,6.5-4.5,6.5h2l2.5-2.5.5,1,1.5,1h-2.5l.5.5,2,.5.5-1.5,2.5.5.5,1.5,4,2.5,5-1.5,4.5,2.5.5,1.5,3.5.5,6-12,5.5-2.5,2.5,1.5-1-2.5,1-1.5,4-2-3-7,.5-4.5,1-2.5-1-3.5,1-2.5-.5-2.5-2-.5-1-2,.5-.5-1-2.5h1l-2.5-1-4.5,1-1,1.5,1,1h-1.5l.5,1.5-.5,2-.5.5-.5-2-3,2-5.5-3v-6l-1,1.5-3-1v-1l-2-.5v-2.5l-1.5-.5.5-1-1.5-1Zm1.5,37.5l3.5,2.5-.5,3-1.5-.5-1,1.5-1.5-1,1.5-2-.5-3.5Zm-14,12.5l-.5,1.5,1-.5-.5-.5.5-.5h-.5Z"/>
      <path data-code="PRI-TER" d="m190.16,256.16l2-5,1.5-.5-1-2,2.5-3-1-1.5.5-1,5,.5-.5-4,3.5-1-1.5-2.5.5-1,2-1.5,1-2.5-1-.5-.5-2.5,1.5-1,.5-2.5,1-1-1-1.5-2.5-1v-2l-1.5-1.5-.5-1.5-1.5-4,4-6-1-2-2.5-.5-.5-1.5,2.5-2.5,2-4-4.5-3.5-1-2,1-1.5-.5-1.5,1-1.5-3-4.5v-2.5l1-3-.5-1,1-2,3-1.5,10,1,.5-.5-1.5-2.5.5-2.5,7-2-3-5,4-2,.5-2h1l-.5-1.5,2.5-2.5v-2.5l-1.5-5,2-3.5v-3l1.5-1-.5-4,1.5-2.5,1.5.5,2.5-2.5-.5-1-4-1.5v-4l1-1.5-3-1.5-4-7-3-2-.5-1.5-2-2h-2l-1-2.5-1.5-1,1-2.5-5-1-.5-2.5h-1.5v-1l-.5-.5-1.5-2.5-6-2v-4l3.5-5,2,1,3-5.5h.5l1-3-2-1.5.5-1.5h1.5l1-1.5v-4l1.5-1-.5-1.5-1.5-.5,1-1.5-2-1-.5-.5-.5,1-3-.5,1-4.5v-2l-2.5,1.5-1.5-2h-4l-3,3.5v2l-4.5-2.5-6-.5-1,2-1.5-.5-3,2.5-1.5-.5v-2.5l2-4.5,2.5-1.5v-1l-1-1.5-3-.5-2-1-4,1-1-2-5-1-1-2-1-.5,1.5-1.5-.5-2.5,1-.5.5-4,3.5-2.5v-2.5l.5-.5h1.5l1-2,3,2,2-3,3,.5,1.5-1v-1l1.5-1v-3l1-1-.5-2.5h2l.5-3,3-2v-1l-2-2v-3l2.5-4,3,.5,1-1.5,3.5,1,.5-.5.5,1.5,1.5.5.5,4,5.5,2.5.5,3,4,.5,1-.5,1-3,2,.5,2,3.5-.5,2.5h-2.5v1l.5,2-.5,3,1,1,1.5,1,1-.5,4,1.5,1.5,1.5,2.5.5v1.5l4-.5,1,4-1.5,2,1.5,1.5-6.5,7.5.5,1.5-1,2,2,1,1.5-.5,3.5,1.5-.5,3.5,1,1.5,1,1-1.5,3.5,3-1.5v1.5l1.5.5,3.5-2.5,1,1,3.5-4.5h4l4.5,2,1-1-.5,3.5,1.5,2.5-2.5,1-2,3.5-1,12.5-2,8,.5,8,2,5.5-1,4,1,9,2,4,1.5,1.5,1,4-2.5,5-1,3.5,2,12,2,3-4,25,.5,5.5-.5,2,1,2.5-3.5,12.5-3.5,6.5.5,7-1,4-1,1.5v7l-2.5,2.5-2,8-3.5,7,2,7.5-2,5-1.5,1.5-1,7,.5.5h-1l2,1-1.5,2.5.5,4-1,1.5,2,3.5-4.5-.5-.5,1,1,3-1.5.5,2.5,1-2.5,5v3.5l2,2.5-1,1,1,3-1.5,1-.5-1.5-1.5-1.5-2.5,3-3-.5-1,2-3-1-1.5-1.5,1-1.5h2l-.5-4-2-4.5-1.5-2v-1.5l-2-.5-2.5,2.5-1.5-.5,2-8.5-1-4-1-1,.5-2-1.5-2.5-3.5-2.5h-5l-1.5,1-2-1"/>
      <path data-code="PRI-USS" d="m44.16,444.16l-.5-2,1.5-.5-.5-1.5h-1l-1-3.5-1-1.5-1.5-4.5-1.5-1-1-3.5-.5-7-2-3,2-1,1,2.5,2-1,.5,1,1.5-.5,3,1,2-2,2,1,1.5-1,1,1,2,.5v-2l4.5-.5,1.5-2-4-7,3-2,2,1.5,2.5-1.5,1,2,3,1,.5,1,1.5.5-1,2h1.5l3-1,1,.5v-1.5l1.5-1-.5-1,1.5-2,1.5,1.5,7-1.5,1.5,1,.5-.5-.5-2,2,4.5,5.5,1,.5,1.5-2,.5.5,1.5,1,2.5h2l1,2.5-2.5,3-1,3-1,.5-.5,3-3,.5.5,1-1.5,2.5h-1.5v-2.5l-1.5-1.5-6,.5-2-1-.5-1.5-2-1-3,1.5-1-1-1.5,1v1l-4.5,1.5-2,8.5-2,4-2.5,1-4,7-2,.5-3-2h-3l-1.5-2.5"/>
      <path data-code="PRI-VLA" d="m83.16,471.16v-1.5h2.5l-2-.5v-1.5h1l-1-1v-1.5l1,1,2-.5,3,3-.5-1.5-2-1v-1l-1.5-.5,2-1,.5,2,1-.5.5,1.5,1-1,.5,4.5h-1.5v1l-.5-1-1.5,1.5-1-1v.5l-.5.5v-.5l-1-.5-2,.5m-1.5,1.5l1-.5-.5-1h.5l2,1.5-.5,2.5-2.5-2.5m3.5,1v-.5h.5v.5h-.5m3-.5l-.5-1.5,1,.5v.5l-.5.5m-2,1v-.5l.5.5h-.5m-17-16.5v-2l3.5-2,3,3.5-.5,1,3-1,1,1-1,2-3-2-.5,1.5h-2l-3.5-2m15.5,6v-1h.5v-3l.5-1.5-1-1.5v-2.5l3-4-1-1.5,1.5-2.5-.5-2,3-.5,1.5,2.5,2.5-2,1,.5v1l1.5.5-4,5-1,6.5-2,3,.5,2-.5-1-1.5,1h-.5l1-.5-1-.5-2,.5v-1.5l2-.5h-1.5l-1,.5-1,3m0,1.5v-1l1,.5-.5.5h-.5m-1,11l1.5-.5.5,1-1.5.5-.5-1m5,.5h.5-.5"/>
</svg>