<svg data-code="_Слой_2" xmlns="http://www.w3.org/2000/svg" viewBox="0 0 166.25 167.25">
    <g data-code="penzenskaja_oblast_" data-title="penzenskaja_oblast&amp;apos;">
      <path data-code="bashmakovskij_rajon" data-title="bashmakovskij rajon" class="cls-1" d="M18.12,34.62l2.5,2,4-1,.5,3,2-.5v1.5h2l1,1.5,1.5-.5v-1l2.5-1,1,1,2-4,1.5.5.44-.78.56.28v-1l2,1-.5,1h-.5l-.5,2-1.5.5-1.5,2,1,1.5-.5,1,.5,1.5-1,.5,3,5-1.5,2,.5,3-1,3-2,.14-2.5,2.5h-1l-1,3-2,.5-.5-2.5-1.5-.5v1l-1,.5-1-2.5-1.5,1v1.5l-1,.5-1.5-1.5-5,2.5-1-4v-9l-3-1.5.5-3.5,2.5.5v-5l-1.5-3.5,1-.5-.5-.5,2-3,1.5-.14Z"/>
      <path data-code="bekovskij_rajon" data-title="bekovskij rajon" class="cls-1" d="M17.12,104.62l.5,2.5,3-2,4.5-4.5,3-2,.5,1,1.5-.5v-1l4-2,1.5,2.5,2.5-.86,3.5.5,3.5,2.86-4,5.5v1.5l-.5,1.5-1.5.5-.5,2.5-5.5-1-3,2.5h-1.5l-.5,1h-2.5l-1.5,1.64h-1.5l-5-3.5-3,.5-.5-1,.5-2.14-1-3.5,1.5-1.5,2-1Z"/>
      <path data-code="belinskij_rajon" data-title="belinskij rajon" class="cls-1" d="M16.63,64.76l5-2.5,1.5,1.5,1-.5v-1.5l1.5-1,1,2.5,1-.5v-1l1.5.5.5,2.5,2-.5,1-3h1l1-1.5,1.5-1,1.5,2-.5,3.5-1,.5,2,.5.5-1h4l3,4,2.5-1.14-1.5,1.64,1.5,2-1,1.5,1,1,5.5,4-.5.5-.5,3-3,1v2l-1.5,2h-1v2.5l-1.5-1-1,.5,1,1v1.5l-1,1h-1l.5,1.5-1,1v2.5l-1.5,2-3.5-.5.5-1-.5-1,.5-.5-3.5-3,1-2-4.5-2.5.5-1-1.5-1.5-1.5-.5-4,1.5-2-1v-2.5l1-1-.5-1.5h1.5l-.5-1-1.5.5v1h-2.5l.5-1-2,1-1-9.5,1-1-2.5-5.5"/>
      <path data-code="bessonovskij_rajon" data-title="bessonovskij rajon" class="cls-1" d="M93.63,82.26l4.5-3,3-3h1.5l1.5-2h1l.5-1,2.5,1.5v1l-1.5,1,1,1,1-.5.5,1,2-1.5,2,2h.5l.5,1.5-1.5.5,1.5,2.5-1,.5-1.5-1,.5-1h-1l-3,3.5,4.5,4.5,5.5,2-1,1,1,1-1.5,2,1.5,2.5h-2l.5,1.5-1.5.5-1-1.5-.5.5,1,2.5-.5.5-.5,2.5-3-1-1,2h-1.5l.5.5-1.5,3h-.5v-.5h-.5l.5.5h0l-1,1-2.5-1.5-1,.5-1-2,1.5-.5v-1l1.5-1-1-1.5.34-1.36,2.66-6.64-3.5-1.5-2,1-.5-2-4-4.5-4.27,1.55-.73-2.55,2.5-1.5v-3.5"/>
      <path data-code="gorodishhenskij_rajon__penzenskaja_oblast_" data-title="gorodishhenskij_rajon_(penzenskaja_oblast&amp;apos;)" class="cls-1" d="M106.13,108.76h.5v.5h.5l1.5-3-.5-.5h1.5l1-2,3,1,.5-2.5.5-.5-1-2.5.5-.5,1,1.5,1.5-.5-.5-1.5h2l-1.5-2.5,1.5-2-1-1,1-1,1.5-2,2.5.5v-2.5h1v-1.5l1-.5-.5-.64,6.5,3,1,2h1v2l2,1,1-.5v1h-.5v.5l-1,1,.5,2h.5l1-1,2,2h-4l-1.5,4-2-.5,1,1h-1v1l1.5,1.5,1,3.5-2.5,1.5-1,2.5v2l-1.5,1,1.5,2.5,1-1-1,1.5.5,1,1.5,1,.5,1.64-1.5,2.5h.5l.5-1,1,1-1.5,1-2.5-2,2,2.5-2,1,1.5,1-1.5,1,2-.5-.5,2h-2.5l-1-1.5-3.5,1.5-2-1-3,1.5-.5-.5h1l-2.5-3.5-.5-3.14-3-1.5-.5-3-1.5-.5v-2h1.5l.5-1.5-1.5-2.5h-2.5s0-3.36,0-3.36l-1-.5v1l-1.5.5v-.5l1-1-.5-.5"/>
      <path data-code="gorodskoj_okrug_kuzneck" data-title="gorodskoj okrug kuzneck" class="cls-1" d="M145.13,130.76h1.5l1,1,.5,2.5-1-.5-.5,1-1-1.5-1,.5.5-3"/>
      <path data-code="gorodskoj_okrug_penza" data-title="gorodskoj okrug penza" class="cls-1" d="M96.13,88.26l4,4.5.5,2,2-1,3,1,.5.5-2.27,5.68-3.23-3.18-.75,3.63-3.75-.13v1.5l-.5-3-1.5,1.5.5,1.5h-.5l-1-1v-1.5l.5-1-1.5.5,1-1-1.5-1h1.5l-1-3.5,1-3-1.27-1.45,4.27-1.55Z"/>
      <path data-code="issinskij_rajon" data-title="issinskij rajon" class="cls-1" d="M106.13,49.26l1.5-.5.5-1.5,1.5.5.5-1h2v2.5l1.5-.5v-1.5l2.5,1,2.5-1.5,1.5.5,1.5,2-.5.5h3l3,3.5,1.5-.5,1.5.5,1,4.5-3,2-.5,1-1-.5v2.5l-4.5-.5v2.5l-1,.5-2,.5-3-3.5v-1.5h-4v1.5l-1.5,3h-1.5l-1-1.5-1.5,1.5-2.5-1.5v-2.5l1.5-1v-1.5l.5-2-1.5-2.5,1-.5,1,1v-1.5l-1.5-1,1-3"/>
      <path data-code="kamenskij_rajon__penzenskaja_oblast_" data-title="kamenskij_rajon_(penzenskaja_oblast&amp;apos;)" class="cls-1" d="M48.12,67.12l3.5,1.5,1.5-1.5,1,.5,1-2.5,4,2.5,1-2,2-1,2.5-1.5,5.5,3.5v1l2.5-2,1,1.5,2.46-.7.04,1.84-.5,1,1,5.5-2.5,3.5.5,2.5-1.5,2v1.38s-3-.01-3-.01l-1,2.5,2,1.5v2l-6,3,1,3-.48,3.27-1.52-1.14-2,1-1-1-2.5,2-2.5-1.5-2,1-1.15,1.54-1.35.32-1-3-6,.14v-2l-1.5-.5v-2.5s1-1,1-1l-.5-1.5h1l1-1v-1.5l-1-1,1-.5,1.5,1v-2.5h1l1.5-2v-2l3-1,.5-3,.5-.5-5.5-4-1-1,1-1.5-1.5-2,1.5-1.64Z"/>
      <path data-code="kameshkirskij_rajon" data-title="kameshkirskij rajon" class="cls-1" d="M102.63,137.26l.77.3,4.73-2.44h1.5l.5-1.5,1.5-1,.5-1.5h1v-2h.5l-1-1.5,2.5-3.5.5,3.14,2.5,3.5h-1l.5.5,3-1.5,2,1,3.5-1.5,1,.5v1.5l-1,1,1.5,5,2.5.5v2h1l-4,3,.5.86-1,3,2,1.5v3.64l-.5.86.5.5-1.34,3.58-1.65-1.45-.5,1h-.5v-.5l-2.5-2-3.5.5-1,2.5-2-1.5-.5.5-2.5-1.5,2-1,.5-.5-.5-.5v1l-1,.5-2-1.5v1l1,1-2-.5v-6l2.5-.5-1-3h-.5l-.5,1-1.5-3.5-2,.5.5-4.5-1.5,1.5-2-1h-2v-1"/>
      <path data-code="kolyshlejskij_rajon" data-title="kolyshlejskij rajon" class="cls-1" d="M54.13,99.76l2-1,2.5,1.5,2.5-2,1,1,2-1,2,1.5,4.5.36v1.5l4.5-1,.5,1-1,1,1.5.5v2l-1,1v3l-1.5.5,1.5,2-2,2,1.5,1.5-2,1v3.5l-1,2h1l-.5,5-3,.64-2.5,3.5-2,2-1-.5-5.5,1.5-1-2.5.5-.5v-1.5l-2-3.5.5-5.14-3-.5-.5-3-2.5-1.5.5-1.5-.5-1,1-1,1.5-3.5h2.5v-1l-.5-3.5-2.5-1.5.85-1.32,1.15-1.54Z"/>
      <path data-code="kuzneckij_rajon" data-title="kuzneckij rajon" class="cls-1" d="M145.13,130.76l-.5,3,1-.5,1,1.5.5-1,1,.5-.5-2.5-1-1h-1.5M135.13,121.26l1.5-1v2.36l-.5,3.5,2-.5-.5-1,.5-2.5,1.5-.5,2,1,1.5-3,.5,1.5,2.5.5,1.5-3.5,4,2.5h3l1,1h2v-1l3.58-2.24,1.42,3.38,3,2-3.5,5,2.5.5-1,.5-1,1.5-1-1h-1.5l-2.5,4v.5l2.5,1-1.5,3,.5,1h-1l-.5,1-2-.5,1,1-5,6.5.5.5-1.71,2.46-1.3-2.6-5.5-.5-3,1-3-4.5-3-1-1-3.5-6,4-.5-.86,4-3h-1v-2l-2.5-.5-1.5-5,1-1.5h2.5l.5-2-2,.5,1.5-1-1.5-1,2-1-2-2.5,2.5,2,1.5-1-1-1-.5,1h-.5v-1l1.5-1.5-.5-1.64,4,.64Z"/>
      <path data-code="lopatinskij_rajon" data-title="lopatinskij rajon" class="cls-1" d="M84.63,140.26l-1-2,1-.5-.5-1.64,3,1v1.5l1.5.5-.5,1.5h2l.5-1,1,1,3-2,2,1.5.5-.5v-1l1-1.5,5-3,.5,1-1,.5.77,1.94-.77-.3v1h2l2,1,1.5-1.5-.5,4.5,2-.5,1.5,3.5.5-1h.5l1,3-2.5.5v6l2,.5-1-1v-1l2,1.5,1-.5v-1l.5.5-.5.5-1.5,1v1l-2,2.5h-.5l-.5,1.5h-.5l.5-1.5-1-1.5-1.5,1.5h-2.5l-2,1.5v2l-3,1-.5,1.5-1-2.5-2.5-1,.5-1.5-2,.5-.5-1.5,1-1.5v-.5h-3l2-2-1.5-.5.5-2.5-2,1h-1.5l-.5,1-1.5-3-2,3-1-.5-.5,1-1-1.5-2,1.5-.5-2,1.5-1-.5-.5,1.5-.5-2-2-1-4.5,4.5-2.5Z"/>
      <path data-code="luninskij_rajon" data-title="luninskij rajon" class="cls-1" d="M104.13,70.76l2.5-1,1.5,1,.5-2.5h1v-1.5h1v-1.5l1.5-3v-1.5h4v1.5l3,3.5,3-1v-2.5l4.5.5v-2.5l1,.5.5-1,3-2,.5,1.5-1.5,2.5,2,1,2.5-.5,2.5,1,2,2-.1.63,2.6,2.23-2,2,3.5-1-1,.5v.5h-1l1,1-2,1.5-1.5-1-.5,1.5-1-1-1,1.5-2.5-.5-2.5,1.5-.5,1.5h-1v.5l-2.5,1-1.5-.5v1l3.5-.5.5,1.5-1,.5,1,1-1.5,1-1-.5-1,.5,1,1-.5.5h-2l-1,2,.5.64-1,.5v1.5h-1v2.5l-2.5-.5-1.5,2-5.5-2-4.5-4.5,3-3.5h1l-.5,1,1.5,1,1-.5-1.5-2.5,1.5-.5-.5-1.5h-.5l-2-2-2,1.5-.5-1-1,.5-1-1,1.5-1v-1l-2.5-1.5-1.5-2.5"/>
      <path data-code="maloserdobinskij_rajon" data-title="maloserdobinskij rajon" class="cls-1" d="M59.13,133.26l4.5-1,1,.5,2-2,2.5-3.5,6-1.14,1.5,2,2,.5v1l1,1.5h2.5l1.5,2,2.5.31v1.19l-2,1.5.5,1.64-1,.5,1,2-4.5,2.5,1,4.5,2,2-1.5.5.5.5-1,1-2.5,1-1-1.5-1.5.5v-1.5h-2.5v-3.5l-2-.5-3.5,1-1,4h-1.5l-1-3.5,1-1.5-3.5-1.5,2-3.5v-2.5l-2.5-1-2.5-4"/>
      <path data-code="mokshanskij_rajon" data-title="mokshanskij rajon" class="cls-1" d="M78.62,56.12l1.5-1,1,2.5,1-1,2-1.5.5-1.5,1,.5v.5l.5-.5-.5-1,2.18-1.31.32-1.55,3.5,2.5.5-1,1.5,1,1-.5.5.5-.5-.5-1,1.5,1.5.5v3l3.5,1h-2.5l-.5,1,4,.5.5-1,1.5.5,2.5,2v2.5l2.5,1.5,1.5-1.5,1,1.5h1.5v1.5h-1v1.5h-1l-.5,2.5-1.5-1-2.5,1,1.5,2.5-.5,1h-1l-1.5,2h-1.5l-3,3-4.5,3v3.5l-2.5,1.5.73,2.55-2.23-2.55v-2.5l-2.5-2h-2v2l-2,1.5h-3v-2l-1-1.5-6,1.38v-1.38l1.5-2-.5-2.5,2.5-3.5-1-5.5.5-1-.04-1.84,1.04-.3-1-.5,1.5-1.5-1-2.5-3.5-2.5,2-1.5-.5-1,.5-1.5,3.5,1Z"/>
      <path data-code="narovchatskij_rajon" data-title="narovchatskij rajon" class="cls-1" d="M69.62,22.12h.5l2.5-5,1.5,1.5,2.5-.5v1l1.5-1v3l2,3,3,1,2.5,9.5-.5,1h-1.5l.5.5h-1l-.5,1h-1.5l1,.5-.5,1.5h.5l.5,4.5-3-.5-2,1.5-4-.5,1-.5v-1l-5.5-2.5-1.5-3.5-3-2.5,2-4-1-1,3.5-2.5v-3.5l.5-1"/>
      <path data-code="neverkinskij_rajon" data-title="neverkinskij rajon" class="cls-1" d="M127.62,143.62l6-4,1,3.5,3,1,3,4.5,3-1,5.5.5,1.5,3-2.5,1,.5,2.5-1,2.5,1,1.5-2,3-2.5.5v1.5l-3-1-1.5,1-.5-1-1.5,1-1.5,3-2.5-.5-1-4.5-2-1,1.5-4.5-2,1.5-3-.5,1.5-4-.5-.5.5-1v-3.5l-2-1.5,1-3"/>
      <path data-code="nikol_skij_rajon__penzenskaja_oblast_" data-title="nikol&amp;apos;skij_rajon_(penzenskaja_oblast&amp;apos;)" class="cls-1" d="M125.62,77.12l1.5.5,2.5-1v-.5h1l.5-1.5,2.5-1.5,2.5.5,1-1.5,1,1,.5-1.5,1.5,1,2-1.5-1-1h1v-.5l1-.5-3.5,1,2-2-3.5-3h1v-2l4,1.5-.5,1,2.5,3,1-.5v-2l.5-.5.5.5,4-.5v1l2-1.5,1,2,.5-2,1,1-.5.5v1-1l2.5-1.5v1l-1,1,.5,1h-.5l2.5,2v1l.5-.5v2.5l-1,.5,1,.5-.5.5.5-.5,1,.5-.5,1.5.5.5-.5,1.5,1,.5v.5l-1-.5-1.5,1-1.5,2.5-1.5.5,3,2h-1l2,1.5-2.5,1,.5,1.5,1.5-.5.5,1-1,2.5v3.5l1,2.5h1l-.5,2.5h-1.5l-2,3.5-1,1-.77-.66-3.73-.34-.5-1,.5-1.5-1,.5-.5-1-2,1.5-1.5-1.5-.5,1-1,.5-3-2v-1.5l-1.5.5-1.5-2-1,1-2-2-1,1h-.5l-.5-2,1-1v-.5h.5v-1l-1,.5-2-1v-2h-1l-1-2-6.5-3,1-2h2l.5-.5-1-1,1-.5,1,.5,1.5-1-1-1,1-.5-.5-1.5-3.5.5v-1"/>
      <path data-code="nizhnelomovskij_rajon" data-title="nizhnelomovskij rajon" class="cls-1" d="M55.12,41.12l1-2.5,2-.5-2-1,1.5-1.5,1.5-1v-.5h1l1.5.5.5-1-.5,2,2,.5,2.5,3.5-.5.5,2.81-1.62.69,1.62,5.5,2.5v1l-1,.5,4,.5,2-1.5h3.5l2.5,3.5h1l-1.5,2.5,2.5.5.5,2-2.5,1.5.5,1-.5.5v-.5l-1-.5-.5,1.5-2,1.5-1,1-1-2.5-1.5,1-3.5-1-.5,1.5.5,1-2,1.5,3.5,2.5,1,2.5-1.5,1.5,1,.5-3.5,1-1-1.5-2.5,2v-1l-5.5-3.5-2.5,1.5-2-3.5,1.5-1.5v-1l-5-2.5v-2l-2,1-.5-2.5,1.5-.5v-3l-1,.5-2-2-2.5-1,.5-3,4.5-2.5Z"/>
      <path data-code="pachelmskij_rajon" data-title="pachelmskij rajon" class="cls-1" d="M38.62,39.12l1.5-.5.5-2h1.5v-1l2,1.5,2,3-.5,1.5,2,2,1.5-.5-.5-1,.5-.5,1.5.5v3.5l-.5,1,2.5,1,2,2,1-.5v3l-1.5.5.5,2.5,2-1v2l5,2.5v1l-1.5,1.5,2,3.5-2,1-1,2-4-2.5-1,2.5-1-.5-1.5,1.5-3.5-1.5-2.5,1.14-3-4h-4l-.5,1-2-.5,1-.5.5-3.5-1.5-2,2-.14,1-3-.5-3,1.5-2-3-5,1-.5-.5-1.5.5-1-1-1.5,1.5-2"/>
      <path data-code="penzenskij_rajon" data-title="penzenskij rajon" class="cls-1" d="M70.12,84.12h3s6-1.36,6-1.36l1,1.5v2h3l2-1.5v-2h2l2.5,2v2.5l3.5,4-1,3,1,3.5h-1.5l1.5,1-1,1,1.5-.5-.5,1v1.5l1,1h.5l-.5-1.5,1.5-1.5.5,3v-1.5l3.75.13-.26,1.24,3.84-.73-.34,1.36,1,1.5-1.5,1v1l-1.5.5,1,2,1-.5,2.5,1.5v.5l1.5-.5v-1l1,.5v3.36h-6l-4-1-1.5,3h-.5l-2-1.5,1-2.5-2-.5h-1l-1,5-1.5-.5-2,1.5,2.5,2.5v1h-1v2l-.5.5,1,1.5-.5,6,1-.5v1.5h-2l-.5,2.5-4-.5-1.5-2h-2.5l-1-1.5v-1l-2-.5-1.5-2-3,.5.5-5h-1l1-2v-3.5l2-1-1.5-1.5,2-2-1.5-2,1.5-.5v-3l1-1v-2l-1.5-.5,1-1-.5-1-4.5,1v-1.5l-4.5-.36-.48-.36.48-3.27-1-2v-1l6-3v-2l-2-1.5,1-2.5"/>
      <path data-code="serdobskij_rajon" data-title="serdobskij rajon" class="cls-1" d="M24.12,115.62l1.5-.5h2.5l.5-1h1.5l3-2.5,5.5,1,.5-2.5,1.5-.5.5-1.5v-1.5l4-5.5-3.5-2.86,1.5-2,1.5.5v2l6-.14,1,3,1.35-.32-.85,1.32,2.5,1.5.5,3.5v1h-2.5l-1.5,3.5-1,1,.5,1-.5,1.5,2.5,1.5.5,3,3,.5-.5,6-1.5,1,.5.5-1,1v2.5l-4,1v-1.5l-1,.5-.5-1.5-.5,1-1-.5-3.5,4h-.5l-2,1,.5,1.5-1,.5-2-5v-2l-2.5,2-1.5-5-2,1-2-7.5-2,1-.5-4-3.5-2.5"/>
      <path data-code="shemyshejskij_rajon" data-title="shemyshejskij rajon" class="cls-1" d="M87.62,116.62l2-1.5,1.5.5,1-5h1l2,.5-1,2.5,2,1.5h.5l1.5-3,4,1h8.5l1.5,2.5-.5,1.5h-1.5v2l1.5.5.5,3,3,1.5-2.5,3.5,1,1.5h-.5v2h-1l-.5,1.5-1.5,1-.5,1.5h-1.5l-4.73,2.44-.77-1.94,1-.5-.5-1-5,3-1,1.5v1l-.5.5-2-1.5-3,2-1-1-.5,1h-2l.5-1.5-1.5-.5v-1.5l-3-1,2-1.5v-1.19l1.5.19.5-2.5h2v-1.5l-1,.5.5-6-1-1.5.5-.5v-2h1v-1h-1.5l-1-2.5"/>
      <path data-code="sosnovoborskij_rajon" data-title="sosnovoborskij rajon" class="cls-1" d="M130.12,101.62l2,.5,1.5-4h4l1-1,1.5,2,1.5-.5v1.5l3,2,1-.5.5-1,1.5,1.5,2-1.5.5,1,1-.5-.5,1.5.5,1,5.5.5.5.5-.5,1h-1l.5,4.5,2-.5-.5,1,1,2,3-.5-.5,2h-1v1.5h1l.5,2.5-4,2.5v1h-2l-1-1h-3l-4-2.5-1.5,3.5-2.5-.5-.5-1.5-1.5,3-2-1-1.5.5-.5,2.5.5,1-2,.5.5-3.5v-2.36l-1.5,1-4-.64-1.5-1-.5-1,1-1.5-1,1-1.5-2.5,1.5-1v-2l1-2.5,2.5-1.5-1-3.5-1.5-1.5v-1h1l-1-1"/>
      <path data-code="spasskij_rajon__penzenskaja_oblast_" data-title="spasskij_rajon_(penzenskaja_oblast&amp;apos;)" class="cls-1" d="M55.62,18.62l1-1h2l-.5,3.5,1,1,1-.5,1.5-3.5-2-1.5,1-1.5.5-1h1l1.5-2,1.5,1.5,1-1.5,3.5,2,2-1v2l1.5,1-.5,2-2.5,4h-.5l-.5,1v3.5l-3.5,2.5,1,1-2,4,3,2.5.81,1.88-2.81,1.62.5-.5-2.5-3.5-2-.5.5-2-.5,1-1.5-.5v-3h-1l-1.5,1-2-3.5.5-1-1.5-2,1-1.5-1-1.5,1.5-1.5-.5-.5,1-1.5-1-.5"/>
      <path data-code="tamalinskij_rajon" data-title="tamalinskij rajon" class="cls-1" d="M4.12,98.12l4.5.5-2-2,1.5-2,2,.5,6.5-2,.5,1,1.5-5.5.5-7.5-.5-.5,2.5-.86-.5,1h2.5v-1l1.5-.5.5,1h-1.5l.5,1.5-1,1v2.5l2,1,4-1.5,1.5.5,1.5,1.5-.5,1,4.5,2.5-1,2,3.5,3-.5.5.5,1-.5,1-2.5.86-1.5-2.5-4,2v1l-1.5.5-.5-1-3,2-4.5,4.5v1l-1.5,1h-1.5l-.5-2.5-2,1-1.5,1.5,1.5,3-.5.5-.5,3-2-1.5-1.5,1v-2l1-3-.5-2h-1.5l-.5-2.5-.5.5-2-.5-3.5,3-2.5-1.5.5-1,1,.5,1-.5,1-6"/>
      <path data-code="vadinskij_rajon" data-title="vadinskij rajon" class="cls-1" d="M43.62,17.12l1.5-3.5h1v1.5l2,.5,1.5,2.5,5,.5,1,1.5-1.5-.5,2,1.5-1.5,1.5,1,1.5-1,1.5,1.5,2-.5,1,2,3.5,1.5-1h1v3h-1v.5l-1.5,1-1.5,1.5,2,1-2,.5-1,2.5-4.5,2.5v-1.5l-1.5-.5-.5.5.5,1-1.5.5-2-2,.5-1.5-2-3-2-1.5v1h-1l.5-1-2-1v1l-2-1,3-2.5.5-1.5-.5-2-1.5-.5v-3.5l1.5.5-.5-1,.5-3.5,1-.5-.32-2.22,2.32-.78Z"/>
      <path data-code="zarechnyj" class="cls-1" d="M103.85,100.94l-.39.96-3.84.73,1-4.86,3.23,3.18Z"/>
      <path data-code="zemetchinskij_rajon" data-title="zemetchinskij rajon" class="cls-1" d="M21.12,4.12h1.5v-1l2,1,1.5-3.5,2,2,1-1,5,1.5-1,2h-1.5l-1.5.5,3.5,2-1,2,2,1-.5,3,2,1-.5-1.5v-2.5l2-1.5h3.5l-1,1.5h-1.5l-1,1.5h-1l-.5,1.5h3l3.5-2.5-.5,2h3l-4,3.5.5,3.5-1,.5-.5,3.5.5,1-1.5-.5v3.5l1.5.5.5,2-.5,1.5-3,2.5,1.44.72-.44.78-1.5-.5-2,4-1-1-2.5,1v1l-1.5.5-1-1.5h-2v-1.5l-2,.5-.5-3-4,1-2.5-2-3,.5-1.5-4.5-2-.5,2.5-3,3,.5-1-.5,1-1.5-1-1,.5-1.5-3-3.5,2.5-1-3-.5,3-2.5-.5-.5,4-5v-1l2.5-1.5-2-1,1-2.5"/>
    </g>
</svg>