<svg xmlns="http://www.w3.org/2000/svg" viewBox="0 0 165.5 166.5">
      <path data-code="PNZ-BAS" d="m17.75,34.25l2.5,2,4-1,.5,3,2-.5v1.5h2l1,1.5,1.5-.5v-1l2.5-1,1,1,2-4,1.5.5.45-.8.55.3v-1l2,1-.5,1h-.5l-.5,2-1.5.5-1.5,2,1,1.5-.5,1,.5,1.5-1,.5,3,5-1.5,2,.5,3-1,3-2,.15-2.5,2.5h-1l-1,3-2,.5-.5-2.5-1.5-.5v1l-1,.5-1-2.5-1.5,1v1.5l-1,.5-1.5-1.5-5,2.5-1-4v-9l-3-1.5.5-3.5,2.5.5v-5l-1.5-3.5,1-.5-.5-.5,2-3,1.5-.15Z"/>
      <path data-code="PNZ-BEK" d="m16.75,104.25l.5,2.5,3-2,4.5-4.5,3-2,.5,1,1.5-.5v-1l4-2,1.5,2.5,2.5-.85,3.5.5,3.5,2.85-4,5.5v1.5l-.5,1.5-1.5.5-.5,2.5-5.5-1-3,2.5h-1.5l-.5,1h-2.5l-1.5,1.65h-1.5l-5-3.5-3,.5-.5-1,.5-2.15-1-3.5,1.5-1.5,2-1Z"/>
      <path data-code="PNZ-BEL" d="m16.25,64.4l5-2.5,1.5,1.5,1-.5v-1.5l1.5-1,1,2.5,1-.5v-1l1.5.5.5,2.5,2-.5,1-3h1l1-1.5,1.5-1,1.5,2-.5,3.5-1,.5,2,.5.5-1h4l3,4,2.5-1.15-1.5,1.65,1.5,2-1,1.5,1,1,5.5,4-.5.5-.5,3-3,1v2l-1.5,2h-1v2.5l-1.5-1-1,.5,1,1v1.5l-1,1h-1l.5,1.5-1,1v2.5l-1.5,2-3.5-.5.5-1-.5-1,.5-.5-3.5-3,1-2-4.5-2.5.5-1-1.5-1.5-1.5-.5-4,1.5-2-1v-2.5l1-1-.5-1.5h1.5l-.5-1-1.5.5v1h-2.5l.5-1-2,1-1-9.5,1-1-2.5-5.5"/>
      <path data-code="PNZ-BES" d="m93.25,81.9l4.5-3,3-3h1.5l1.5-2h1l.5-1,2.5,1.5v1l-1.5,1,1,1,1-.5.5,1,2-1.5,2,2h.5l.5,1.5-1.5.5,1.5,2.5-1,.5-1.5-1,.5-1h-1l-3,3.5,4.5,4.5,5.5,2-1,1,1,1-1.5,2,1.5,2.5h-2l.5,1.5-1.5.5-1-1.5-.5.5,1,2.5-.5.5-.5,2.5-3-1-1,2h-1.5l.5.5-1.5,3h-.5v-.5h-.5l.5.5h0l-1,1-2.5-1.5-1,.5-1-2,1.5-.5v-1l1.5-1-1-1.5.35-1.35,2.65-6.65-3.5-1.5-2,1-.5-2-4-4.5-4.25,1.55-.75-2.55,2.5-1.5v-3.5"/>
      <path data-code="PNZ-GOR" d="m105.75,108.4h.5v.5h.5l1.5-3-.5-.5h1.5l1-2,3,1,.5-2.5.5-.5-1-2.5.5-.5,1,1.5,1.5-.5-.5-1.5h2l-1.5-2.5,1.5-2-1-1,1-1,1.5-2,2.5.5v-2.5h1v-1.5l1-.5-.5-.65,6.5,3,1,2h1v2l2,1,1-.5v1h-.5v.5l-1,1,.5,2h.5l1-1,2,2h-4l-1.5,4-2-.5,1,1h-1v1l1.5,1.5,1,3.5-2.5,1.5-1,2.5v2l-1.5,1,1.5,2.5,1-1-1,1.5.5,1,1.5,1,.5,1.65-1.5,2.5h.5l.5-1,1,1-1.5,1-2.5-2,2,2.5-2,1,1.5,1-1.5,1,2-.5-.5,2h-2.5l-1-1.5-3.5,1.5-2-1-3,1.5-.5-.5h1l-2.5-3.5-.5-3.15-3-1.5-.5-3-1.5-.5v-2h1.5l.5-1.5-1.5-2.5h-2.5v-3.35l-1-.5v1l-1.5.5v-.5l1-1-.5-.5"/>
      <path data-code="PNZ-KUZ" d="m144.75,130.4h1.5l1,1,.5,2.5-1-.5-.5,1-1-1.5-1,.5.5-3"/>
      <path data-code="PNZ-PNZ" d="m95.75,87.9l4,4.5.5,2,2-1,3,1,.5.5-2.25,5.7-3.25-3.2-.75,3.65-3.75-.15v1.5l-.5-3-1.5,1.5.5,1.5h-.5l-1-1v-1.5l.5-1-1.5.5,1-1-1.5-1h1.5l-1-3.5,1-3-1.25-1.45,4.25-1.55Z"/>
      <path data-code="PNZ-ISS" d="m105.75,48.9l1.5-.5.5-1.5,1.5.5.5-1h2v2.5l1.5-.5v-1.5l2.5,1,2.5-1.5,1.5.5,1.5,2-.5.5h3l3,3.5,1.5-.5,1.5.5,1,4.5-3,2-.5,1-1-.5v2.5l-4.5-.5v2.5l-1,.5-2,.5-3-3.5v-1.5h-4v1.5l-1.5,3h-1.5l-1-1.5-1.5,1.5-2.5-1.5v-2.5l1.5-1v-1.5l.5-2-1.5-2.5,1-.5,1,1v-1.5l-1.5-1,1-3"/>
      <path data-code="PNZ-KAMN" d="m47.75,66.75l3.5,1.5,1.5-1.5,1,.5,1-2.5,4,2.5,1-2,2-1,2.5-1.5,5.5,3.5v1l2.5-2,1,1.5,2.45-.7.05,1.85-.5,1,1,5.5-2.5,3.5.5,2.5-1.5,2v1.4h-3l-1,2.5,2,1.5v2l-6,3,1,3-.5,3.25-1.5-1.15-2,1-1-1-2.5,2-2.5-1.5-2,1-1.15,1.55-1.35.3-1-3-6,.15v-2l-1.5-.5v-2.5l1-1-.5-1.5h1l1-1v-1.5l-1-1,1-.5,1.5,1v-2.5h1l1.5-2v-2l3-1,.5-3,.5-.5-5.5-4-1-1,1-1.5-1.5-2,1.5-1.65Z"/>
      <path data-code="PNZ-KAMS" d="m102.25,136.9l.75.3,4.75-2.45h1.5l.5-1.5,1.5-1,.5-1.5h1v-2h.5l-1-1.5,2.5-3.5.5,3.15,2.5,3.5h-1l.5.5,3-1.5,2,1,3.5-1.5,1,.5v1.5l-1,1,1.5,5,2.5.5v2h1l-4,3,.5.85-1,3,2,1.5v3.65l-.5.85.5.5-1.35,3.6-1.65-1.45-.5,1h-.5v-.5l-2.5-2-3.5.5-1,2.5-2-1.5-.5.5-2.5-1.5,2-1,.5-.5-.5-.5v1l-1,.5-2-1.5v1l1,1-2-.5v-6l2.5-.5-1-3h-.5l-.5,1-1.5-3.5-2,.5.5-4.5-1.5,1.5-2-1h-2v-1"/>
      <path data-code="PNZ-KOL" d="m53.75,99.4l2-1,2.5,1.5,2.5-2,1,1,2-1,2,1.5,4.5.35v1.5l4.5-1,.5,1-1,1,1.5.5v2l-1,1v3l-1.5.5,1.5,2-2,2,1.5,1.5-2,1v3.5l-1,2h1l-.5,5-3,.65-2.5,3.5-2,2-1-.5-5.5,1.5-1-2.5.5-.5v-1.5l-2-3.5.5-5.15-3-.5-.5-3-2.5-1.5.5-1.5-.5-1,1-1,1.5-3.5h2.5v-1l-.5-3.5-2.5-1.5.85-1.3,1.15-1.55Z"/>
      <path data-code="PNZ-KUZM" d="m144.75,130.4l-.5,3,1-.5,1,1.5.5-1,1,.5-.5-2.5-1-1h-1.5m-10-9.5l1.5-1v2.35l-.5,3.5,2-.5-.5-1,.5-2.5,1.5-.5,2,1,1.5-3,.5,1.5,2.5.5,1.5-3.5,4,2.5h3l1,1h2v-1l3.6-2.25,1.4,3.4,3,2-3.5,5,2.5.5-1,.5-1,1.5-1-1h-1.5l-2.5,4v.5l2.5,1-1.5,3,.5,1h-1l-.5,1-2-.5,1,1-5,6.5.5.5-1.7,2.45-1.3-2.6-5.5-.5-3,1-3-4.5-3-1-1-3.5-6,4-.5-.85,4-3h-1v-2l-2.5-.5-1.5-5,1-1.5h2.5l.5-2-2,.5,1.5-1-1.5-1,2-1-2-2.5,2.5,2,1.5-1-1-1-.5,1h-.5v-1l1.5-1.5-.5-1.65,4,.65Z"/>
      <path data-code="PNZ-LOP" d="m84.25,139.9l-1-2,1-.5-.5-1.65,3,1v1.5l1.5.5-.5,1.5h2l.5-1,1,1,3-2,2,1.5.5-.5v-1l1-1.5,5-3,.5,1-1,.5.75,1.95-.75-.3v1h2l2,1,1.5-1.5-.5,4.5,2-.5,1.5,3.5.5-1h.5l1,3-2.5.5v6l2,.5-1-1v-1l2,1.5,1-.5v-1l.5.5-.5.5-1.5,1v1l-2,2.5h-.5l-.5,1.5h-.5l.5-1.5-1-1.5-1.5,1.5h-2.5l-2,1.5v2l-3,1-.5,1.5-1-2.5-2.5-1,.5-1.5-2,.5-.5-1.5,1-1.5v-.5h-3l2-2-1.5-.5.5-2.5-2,1h-1.5l-.5,1-1.5-3-2,3-1-.5-.5,1-1-1.5-2,1.5-.5-2,1.5-1-.5-.5,1.5-.5-2-2-1-4.5,4.5-2.5Z"/>
      <path data-code="PNZ-LUN" d="m103.75,70.4l2.5-1,1.5,1,.5-2.5h1v-1.5h1v-1.5l1.5-3v-1.5h4v1.5l3,3.5,3-1v-2.5l4.5.5v-2.5l1,.5.5-1,3-2,.5,1.5-1.5,2.5,2,1,2.5-.5,2.5,1,2,2-.1.65,2.6,2.25-2,2,3.5-1-1,.5v.5h-1l1,1-2,1.5-1.5-1-.5,1.5-1-1-1,1.5-2.5-.5-2.5,1.5-.5,1.5h-1v.5l-2.5,1-1.5-.5v1l3.5-.5.5,1.5-1,.5,1,1-1.5,1-1-.5-1,.5,1,1-.5.5h-2l-1,2,.5.65-1,.5v1.5h-1v2.5l-2.5-.5-1.5,2-5.5-2-4.5-4.5,3-3.5h1l-.5,1,1.5,1,1-.5-1.5-2.5,1.5-.5-.5-1.5h-.5l-2-2-2,1.5-.5-1-1,.5-1-1,1.5-1v-1l-2.5-1.5-1.5-2.55"/>
      <path data-code="PNZ-MAL" d="m58.75,132.9l4.5-1,1,.5,2-2,2.5-3.5,6-1.15,1.5,2,2,.5v1l1,1.5h2.5l1.5,2,2.5.3v1.2l-2,1.5.5,1.65-1,.5,1,2-4.5,2.5,1,4.5,2,2-1.5.5.5.5-1,1-2.5,1-1-1.5-1.5.5v-1.5h-2.5v-3.5l-2-.5-3.5,1-1,4h-1.5l-1-3.5,1-1.5-3.5-1.5,2-3.5v-2.5l-2.5-1-2.5-4"/>
      <path data-code="PNZ-MOK" d="m78.25,55.75l1.5-1,1,2.5,1-1,2-1.5.5-1.5,1,.5v.5l.5-.5-.5-1,2.2-1.3.3-1.55,3.5,2.5.5-1,1.5,1,1-.5.5.5-.5-.5-1,1.5,1.5.5v3l3.5,1h-2.5l-.5,1,4,.5.5-1,1.5.5,2.5,2v2.5l2.5,1.5,1.5-1.5,1,1.5h1.5v1.5h-1v1.5h-1l-.5,2.5-1.5-1-2.5,1,1.5,2.5-.5,1h-1l-1.5,2h-1.5l-3,3-4.5,3v3.5l-2.5,1.5.75,2.55-2.25-2.55v-2.5l-2.5-2h-2v2l-2,1.5h-3v-2l-1-1.5-6,1.4v-1.4l1.5-2-.5-2.5,2.5-3.5-1-5.5.5-1-.05-1.85,1.05-.3-1-.5,1.5-1.5-1-2.5-3.5-2.5,2-1.5-.5-1,.5-1.5,3.5,1Z"/>
      <path data-code="PNZ-NAR" d="m69.25,21.75h.5l2.5-5,1.5,1.5,2.5-.5v1l1.5-1v3l2,3,3,1,2.5,9.5-.5,1h-1.5l.5.5h-1l-.5,1h-1.5l1,.5-.5,1.5h.5l.5,4.5-3-.5-2,1.5-4-.5,1-.5v-1l-5.5-2.5-1.5-3.5-3-2.5,2-4-1-1,3.5-2.5v-3.5l.5-1"/>
      <path data-code="PNZ-NEV" d="m127.25,143.25l6-4,1,3.5,3,1,3,4.5,3-1,5.5.5,1.5,3-2.5,1,.5,2.5-1,2.5,1,1.5-2,3-2.5.5v1.5l-3-1-1.5,1-.5-1-1.5,1-1.5,3-2.5-.5-1-4.5-2-1,1.5-4.5-2,1.5-3-.5,1.5-4-.5-.5.5-1v-3.5l-2-1.5,1-3"/>
      <path data-code="PNZ-NIK" d="m125.25,76.75l1.5.5,2.5-1v-.5h1l.5-1.5,2.5-1.5,2.5.5,1-1.5,1,1,.5-1.5,1.5,1,2-1.5-1-1h1v-.5l1-.5-3.5,1,2-2-3.5-3h1v-2l4,1.5-.5,1,2.5,3,1-.5v-2l.5-.5.5.5,4-.5v1l2-1.5,1,2,.5-2,1,1-.5.5v1-1l2.5-1.5v1l-1,1,.5,1h-.5l2.5,2v1l.5-.5v2.5l-1,.5,1,.5-.5.5.5-.5,1,.5-.5,1.5.5.5-.5,1.5,1,.5v.5l-1-.5-1.5,1-1.5,2.5-1.5.5,3,2h-1l2,1.5-2.5,1,.5,1.5,1.5-.5.5,1-1,2.5v3.5l1,2.5h1l-.5,2.5h-1.5l-2,3.5-1,1-.75-.65-3.75-.35-.5-1,.5-1.5-1,.5-.5-1-2,1.5-1.5-1.5-.5,1-1,.5-3-2v-1.5l-1.5.5-1.5-2-1,1-2-2-1,1h-.5l-.5-2,1-1v-.5h.5v-1l-1,.5-2-1v-2h-1l-1-2-6.5-3,1-2h2l.5-.5-1-1,1-.5,1,.5,1.5-1-1-1,1-.5-.5-1.5-3.5.5v-1"/>
      <path data-code="PNZ-NIZ" d="m54.75,40.75l1-2.5,2-.5-2-1,1.5-1.5,1.5-1v-.5h1l1.5.5.5-1-.5,2,2,.5,2.5,3.5-.5.5,2.8-1.6.7,1.6,5.5,2.5v1l-1,.5,4,.5,2-1.5h3.5l2.5,3.5h1l-1.5,2.5,2.5.5.5,2-2.5,1.5.5,1-.5.5v-.5l-1-.5-.5,1.5-2,1.5-1,1-1-2.5-1.5,1-3.5-1-.5,1.5.5,1-2,1.5,3.5,2.5,1,2.5-1.5,1.5,1,.5-3.5,1-1-1.5-2.5,2v-1l-5.5-3.5-2.5,1.5-2-3.5,1.5-1.5v-1l-5-2.5v-2l-2,1-.5-2.5,1.5-.5v-3l-1,.5-2-2-2.5-1,.5-3,4.5-2.5Z"/>
      <path data-code="PNZ-PAC" d="m38.25,38.75l1.5-.5.5-2h1.5v-1l2,1.5,2,3-.5,1.5,2,2,1.5-.5-.5-1,.5-.5,1.5.5v3.5l-.5,1,2.5,1,2,2,1-.5v3l-1.5.5.5,2.5,2-1v2l5,2.5v1l-1.5,1.5,2,3.5-2,1-1,2-4-2.5-1,2.5-1-.5-1.5,1.5-3.5-1.5-2.5,1.15-3-4h-4l-.5,1-2-.5,1-.5.5-3.5-1.5-2,2-.15,1-3-.5-3,1.5-2-3-5,1-.5-.5-1.5.5-1-1-1.5,1.5-2"/>
      <path data-code="PNZ-PNZM" d="m69.75,83.75h3l6-1.4,1,1.5v2h3l2-1.5v-2h2l2.5,2v2.5l3.5,4-1,3,1,3.5h-1.5l1.5,1-1,1,1.5-.5-.5,1v1.5l1,1h.5l-.5-1.5,1.5-1.5.5,3v-1.5l3.75.15-.25,1.25,3.85-.75-.35,1.35,1,1.5-1.5,1v1l-1.5.5,1,2,1-.5,2.5,1.5v.5l1.5-.5v-1l1,.5v3.35h-6l-4-1-1.5,3h-.5l-2-1.5,1-2.5-2-.5h-1l-1,5-1.5-.5-2,1.5,2.5,2.5v1h-1v2l-.5.5,1,1.5-.5,6,1-.5v1.5h-2l-.5,2.5-4-.5-1.5-2h-2.5l-1-1.5v-1l-2-.5-1.5-2-3,.5.5-5h-1l1-2v-3.5l2-1-1.5-1.5,2-2-1.5-2,1.5-.5v-3l1-1v-2l-1.5-.5,1-1-.5-1-4.5,1v-1.5l-4.5-.35-.5-.35.5-3.25-1-2v-1l6-3v-2l-2-1.5,1-2.5"/>
      <path data-code="PNZ-SER" d="m23.75,115.25l1.5-.5h2.5l.5-1h1.5l3-2.5,5.5,1,.5-2.5,1.5-.5.5-1.5v-1.5l4-5.5-3.5-2.85,1.5-2,1.5.5v2l6-.15,1,3,1.35-.3-.85,1.3,2.5,1.5.5,3.5v1h-2.5l-1.5,3.5-1,1,.5,1-.5,1.5,2.5,1.5.5,3,3,.5-.5,6-1.5,1,.5.5-1,1v2.5l-4,1v-1.5l-1,.5-.5-1.5-.5,1-1-.5-3.5,4h-.5l-2,1,.5,1.5-1,.5-2-5v-2l-2.5,2-1.5-5-2,1-2-7.5-2,1-.5-4-3.5-2.5"/>
      <path data-code="PNZ-SHE" d="m87.25,116.25l2-1.5,1.5.5,1-5h1l2,.5-1,2.5,2,1.5h.5l1.5-3,4,1h8.5l1.5,2.5-.5,1.5h-1.5v2l1.5.5.5,3,3,1.5-2.5,3.5,1,1.5h-.5v2h-1l-.5,1.5-1.5,1-.5,1.5h-1.5l-4.75,2.45-.75-1.95,1-.5-.5-1-5,3-1,1.5v1l-.5.5-2-1.5-3,2-1-1-.5,1h-2l.5-1.5-1.5-.5v-1.5l-3-1,2-1.5v-1.2l1.5.2.5-2.5h2v-1.5l-1,.5.5-6-1-1.5.5-.5v-2h1v-1h-1.5l-1-2.5"/>
      <path data-code="PNZ-SOS" d="m129.75,101.25l2,.5,1.5-4h4l1-1,1.5,2,1.5-.5v1.5l3,2,1-.5.5-1,1.5,1.5,2-1.5.5,1,1-.5-.5,1.5.5,1,5.5.5.5.5-.5,1h-1l.5,4.5,2-.5-.5,1,1,2,3-.5-.5,2h-1v1.5h1l.5,2.5-4,2.5v1h-2l-1-1h-3l-4-2.5-1.5,3.5-2.5-.5-.5-1.5-1.5,3-2-1-1.5.5-.5,2.5.5,1-2,.5.5-3.5v-2.35l-1.5,1-4-.65-1.5-1-.5-1,1-1.5-1,1-1.5-2.5,1.5-1v-2l1-2.5,2.5-1.5-1-3.5-1.5-1.5v-1h1l-1-1"/>
      <path data-code="PNZ-SPA" d="m55.25,18.25l1-1h2l-.5,3.5,1,1,1-.5,1.5-3.5-2-1.5,1-1.5.5-1h1l1.5-2,1.5,1.5,1-1.5,3.5,2,2-1v2l1.5,1-.5,2-2.5,4h-.5l-.5,1v3.5l-3.5,2.5,1,1-2,4,3,2.5.8,1.9-2.8,1.6.5-.5-2.5-3.5-2-.5.5-2-.5,1-1.5-.5v-3h-1l-1.5,1-2-3.5.5-1-1.5-2,1-1.5-1-1.5,1.5-1.5-.5-.5,1-1.5-1-.5"/>
      <path data-code="PNZ-TAM" d="m3.75,97.75l4.5.5-2-2,1.5-2,2,.5,6.5-2,.5,1,1.5-5.5.5-7.5-.5-.5,2.5-.85-.5,1h2.5v-1l1.5-.5.5,1h-1.5l.5,1.5-1,1v2.5l2,1,4-1.5,1.5.5,1.5,1.5-.5,1,4.5,2.5-1,2,3.5,3-.5.5.5,1-.5,1-2.5.85-1.5-2.5-4,2v1l-1.5.5-.5-1-3,2-4.5,4.5v1l-1.5,1h-1.5l-.5-2.5-2,1-1.5,1.5,1.5,3-.5.5-.5,3-2-1.5-1.5,1v-2l1-3-.5-2h-1.5l-.5-2.5-.5.5-2-.5-3.5,3-2.5-1.5.5-1,1,.5,1-.5,1-6"/>
      <path data-code="PNZ-CAD" d="m43.25,16.75l1.5-3.5h1v1.5l2,.5,1.5,2.5,5,.5,1,1.5-1.5-.5,2,1.5-1.5,1.5,1,1.5-1,1.5,1.5,2-.5,1,2,3.5,1.5-1h1v3h-1v.5l-1.5,1-1.5,1.5,2,1-2,.5-1,2.5-4.5,2.5v-1.5l-1.5-.5-.5.5.5,1-1.5.5-2-2,.5-1.5-2-3-2-1.5v1h-1l.5-1-2-1v1l-2-1,3-2.5.5-1.5-.5-2-1.5-.5v-3.5l1.5.5-.5-1,.5-3.5,1-.5-.3-2.2,2.3-.8Z"/>
      <path data-code="PNZ-ZAR" d="m103.45,100.55l-.4.95-3.85.75,1-4.85,3.25,3.15Z"/>
      <path data-code="PNZ-ZEM" d="m20.75,3.75h1.5v-1l2,1,1.5-3.5,2,2,1-1,5,1.5-1,2h-1.5l-1.5.5,3.5,2-1,2,2,1-.5,3,2,1-.5-1.5v-2.5l2-1.5h3.5l-1,1.5h-1.5l-1,1.5h-1l-.5,1.5h3l3.5-2.5-.5,2h3l-4,3.5.5,3.5-1,.5-.5,3.5.5,1-1.5-.5v3.5l1.5.5.5,2-.5,1.5-3,2.5,1.45.7-.45.8-1.5-.5-2,4-1-1-2.5,1v1l-1.5.5-1-1.5h-2v-1.5l-2,.5-.5-3-4,1-2.5-2-3,.5-1.5-4.5-2-.5,2.5-3,3,.5-1-.5,1-1.5-1-1,.5-1.5-3-3.5,2.5-1-3-.5,3-2.5-.5-.5,4-5v-1l2.5-1.5-2-1,1-2.5"/>
</svg>