<svg xmlns="http://www.w3.org/2000/svg" viewBox="0 0 317.5 378.35">
      <path data-code="PER-ALE" d="m170.25,189.75l4-4.5,2.5,1v-2l1-.5,2.5.5-1-1.5,1-2,2.5-.5v-.5l2-1-2-3,1.5-1,1-2h2.5l1-1,.5.5-1-3.5,3.5-3.5v-1.5l7-.5,2.5-3.5,3,2,1.5-2,2,1.5,4.5-5.5,3.5-5.5,2,1.5,1.5-2,4,3.5,2-2,10.5,7.5,1.5-2.5,2.5,1.5,1.5-2.5,7,5-7,9-3.5-2.5-10.5,14.5,3,1,1.5,3v6l-.5,4,1,2.5-1,1-3-2-1,2-10.5-7.5-5.5,8-9.5-2.5-6.5-4.5-.5,1-1.5-.5-1,1-.5-.5-1,1,.5,1.5-1.5,1.5-2.5-.5-1,1-3.5-2-3,4.5-2.5-.5-4,1.5-2-1-.5-3.5.5-.5,1.5-.5.5-1.5,3.5-3-.5-.5-1,1-2.5-.5-.5-1.5h-2"/>
      <path data-code="PER-BAR" d="m54.75,295.25h2l1-1.5-1.5-.5,1.5-3.5,2,.5,1-.5-.5-1,3-1,1,3,2,2h6-.5l.5.5-1,.5.5.5h-1l.5,2,1.5.5,1.5,2h2.5l1.5-1.5,2,1.5,1.5-2.5,4-2,.5-1.5-.5,6-2,2,1.5,1.5.5,2.5-1,1.5-1.5,1,1,1-2.5,2,3.5,2.5-4,3.5v1l1.5-.5.5,1.5h-1l-.5,1.5-2,1v3l-2.5,1,.5,1.5h-1.5l-2-2.5.5-1-1.5-.5v1.5l-2-1-3,2v3l-1.5-.5-4.5,2.5h-.5l-.5-1.5.5-.5.5-2h-2v1.5l-2-2,1.5-1-.5-1.5.5-1-3.5-.5-1-1.5-1-2.5,3,.5v-3l-3.5-1-1,.5-2-1,1-1-.5-1.5,3-2.5,1-3,2-2.5-2-.5-.5-1.5-1.5-1,2-2-.5-2.5"/>
      <path data-code="PER-BER" d="m133.25,277.25l5,1.5,2.5-2,1.5-4.5-.5-2,2-4,3,2-1.5,1.5,1.5,1.5-1.5,2,4.5,1.5.5,4.5,2.5-.5.5-2h1l-1-1,2-.5,3,1.5,1.5-2,.5,1-1.5,1-.5,2,3,2v-.5l1.5.5.5,1h1l-1,2v2l1-.5v-1l.5,1v.5l-1,.5.5,1.5,1-.5-.5.5.5,1,2,1,.5-.5-.5,2,3.5,2-1,1v1l-1.5,1.5.5,1.5-1.5.5-.5-1,.5-1-1-.5-1.5,3h-1.5l-1,2-1.5-.5-4,2.5-1-1.5-1.5,1-2,2h-1v-1.5l-2.5-2v1.5l-1.5.5-2.5-1.5-1-1,1-1.5-.5-3,1-.5-4.5-2-1,1-1,2h-1l-.5-2.5-2-1.5,1-1-2-3,1-1.5,1,1,.5-1.5-2-1.5,1-3.5-.5-.5.5-1.5-2.5-2.5"/>
      <path data-code="PER-BOL" d="m35.25,239.25l1.5.5h1v-1l2.5.5-1.5-3,.5.5,1-2.5,2.5-.5,1.5.5-.5-3,1,.5,1.5-2v-2.5l.5-.5,2-3.5,1,2.5-1,2.5,3,2.5.5,2.5,1.5-.5v1.5l2.5,3,1-1.5,5,2v1l2,2-1,1,3.5,2v1l-1,.5v.5h-1l.5,1-.5-.5v1.5l1.5,2-.5,2.5-1,.5.5.5-4,3,1,2-1.5.5h-3v-2l-2-2-1.5,1.5-2,2.5v2l-3,1.5-.5,1,1,3.5h-2l-1,1,.5,1.5-1,2,.5,1-4.5-4-.5,1h-1.5l-2,1-.5-1,2.5-1-1.5-1.5-1.5,1.5-2.5-1v-2l1.5-.5v-1.5l1-1.5-4-1v-1.5l-1.5-.5.5-2.5,1.5-1-.5-1,1.5-1,2,1,3.5-.5-.5-1,1-1.5-3.5-3,1-1,1-1-1.5-2-2-.5-.5,1-.5-1h1v-1h.5l.5-1-2.5-1,1-1v-.5"/>
      <path data-code="PER-CHY" d="m1.25,298.25l-.5,1,3.5,1.5,6.5-1-2.5-1v-1.5l-2,2-2.5-2-1,1h-1.5m4-12.5l1-1,2,1.5.5,4.5,3,1.5,3-2.5,2-2.5,1-2h1l1.5-1.5,2-3.5h2.5l2,2.5,2.5.5-2,1.5-1,2,2,1-1.5,3h2.5l.5-1.5,2-2,1,1-1,.5.5,2.5.5-.5.5-1.5,2-1,2,1.5.5,1.5-3,.5v2.5l-.5,3-1.5,2.5-1,.5.5.5h1.5v-1l2.5.5,2.5,2,.5,2-1,2.5,2,2-6-.5h-2l-1,1h-3.5v1l-2,2-3.5,1.5-.5,1.5-1,.5-2,2.5h-1l-2,3-1,.5-2,3v-2.5l-1.5-.5v-2l1.5-5.5-3.5.5v-4l.5-2-2-1.5.5-2.5-1-.5v-1l-1,.5,3-3.5-5,1-4-2,1-1.5.5.5,1-2.5,2-.5-.5-.5,1.5-2-1.5-1,1.5-2.5-1-.5v-1.5l1.5-.5-1-1"/>
      <path data-code="PER-CHS" d="m30.75,273.75l.5.5,1-1.5,1.5-1v-2.5l1-1.5,2.5.5,1.5-1.5,1.5,1.5-2.5,1,.5,1,2-1h1.5l.5-1,4.5,4-.5-1,1-2-.5-1.5,1-1h2l-1-3.5.5-1,3-1.5v-2l3.5-4,2,2v2h1.5l3-.5-1-2,2.5-2h2l2.5,1.5.5,2.5-1.5,1,1,4.5-.5,2,.5,1-1,1,1,1-1.5,2-2,1-1.5-2-3.5,3-3.5,5.5-1.5,3.5v3.5l-2.5,1.5-4-1-5.5,1.5-2-1v-4l-1-1.5-6.5,1-1.5-2,.5-1-2-3,.5-2"/>
      <path data-code="PER-CHD" d="m164.75,44.25l5.5-7,4,3,6.5-8.5,12,9.5,7-8.5,12.5,9.5,10-15,5,4.5,3-4.5,1,1,1.5-2.5,11.5,9,1-1.5,47.5,20.5-2,5-1-.5-2.5,5.5-1-.5-5,11,1,.5v5l-1.5.5-1,1-2,6.5.5,1-3.5,5.5-1-.5-2,3-1.5.5.5.5-1.5.5v-1.5l-1.5-1-2,3.5-2-1.5-3.5,5.5h-4.5l-10.5-10.5-1,2-2-1.5-1,1.5-5-4,.5-1-1-1,.5-1-1-.5,1-1-5.5-4-3,4.5-1-1-2,3-1-.5-2.5,3.5-2-1.5-.5,1-1-1-1,1.5-1-1-1.5,2-1.5-1-3.5.5v2l1.5,2.5-1.5,2.5-2.5,1.5-1.5-2-3.5-1-1,1h-1.5l1.5,3h-1v1.5l-6.5-1-1,3.5,1,2.5-3.5,2.5-1-1.5-2,2-5.5,10.5-1,5-1-1.5-.5,1v1l-2,2-1.5-1.5-2.5.5-6-4.5,2-3.5-1-1,2-2-2.5-2,.5,1-.5.5-1-1.5.5-1h-.5l-1.5.5-1.5-2-1.5,1v-1l.5-1-4-3.5,2.5-3.5-6-4.5,2.5-9.5-7.5-1,8-10-6-5,4-5.5,1.5-3v-.5l6-9,1.5-3.5h1l3.5-5-4.5-4"/>
      <path data-code="PER-CHN" d="m87.75,328.75l2.45.3.05,4.2.5,2.5-.5,1-1.5-.5-.5-3.15,1.5.15-1-1-1-3.5m-25.5,1l4.5-2.5,1.5.5v-3l3-2,2,1v-1.5l1.5.5-.5,1,2,2.5h1.5l-.5-1.5,2.5-1v-1l3,1.5,1.5,1.5-.5.5,1.5,2v1l.5,2.35-.5,1.5,2.5.5.5.65h-3l-.5,2.5-1,.5.5,2,1.5-.5-1-1,1-.5,2.5,1.5,1,2-1.5,1h-2.5v1l-1.5-1v1h-1.5l1,2,2.5-2h4v1.5l.5.5h-1.5l-1.5,1.5-4.5-.5-.5,1v1h1l1-1h1l1,1.5-1,1.5-3.5-.5-.5,2,1.5,1,.5-1,1,1-2.5,2-.5-1.5-1.5,1.5v-1.5h-1l.5-.5v-1.5l-2,.5-.5,2-1.5-1-1,1.5-2,1v.5l-1.5-2h-5.5v-4l-2-3.5,1-5-1-1,.5-.5,1.5-4-1.5-2,1-.5-.5-.5-2,1v-1.5l1-.5-1-1.5"/>
      <path data-code="PER-CHU" d="m138.75,237.75l1.5,3h2l-.5-3.5,4-1.5,3,.5,1.5-2.5-1-1,1-1.5h1l2-3,5.5,6,1-1,2.5,1,1.5-.5,2,1.5,1-2-2.5-2,.5-2.5,5-5,.5-1.5-1-1,2-2.5,3.5-2.5,7.5,8,.5,4-.5,1.5,1.5,1h-.5v1l-1,2h-.5l-.5,2,6,4.5,1-1,2.5,2v1.5l1,.5-1.5,1h2l-1.5,2,2.5,2.5-2,3.5-.5,2.5-1-.5-.5,4-3,1.5-6,1.5,1-7.5-8,1-.5-2-5.5.5-.5-1-3,1-1,1.5.5,2.5-2.5-2.5-2.5,1-2-1-2.5,4h-1.5l.5,1.5-6-4.5-1,1-2,1-1-1-3,.5-2.5-1,1.5-4.15h.5l-1-1.5,4-6-3.5-2.35-1-3.5,1-1Z"/>
      <path data-code="PER-DOB" d="m122.75,222.25l1.5-2,2,1,2.5-2.5-.5-.5,1-1-1.5-.5-.5-2.5,2.5-3,3.5-.5-2.5-3,.5-2,11-9,4.5-6.5,1-6.5-1-3.15,7,.65,4-1.5,2,3,2,.5v2l-1,.5,3.5,4,4,1.5,3.5-1.5,1.5,1-.5.5,2.5.5,1-1,.5.5-3.5,3-.5,1.5-1.5.5v4l2,1,4-1.5,2,1-2.5,4h-1v1l-1.5-1.5-2,1v2.5l1.5,1-3,4.5,4,3-3.5,2.5-2,2.5,1,1-.5,1.5-5,5-.5,2.5,2.5,2-1,2-2-1.5-1.5.5-2.5-1-1,1-5.5-6-2,3h-1l-1,1.5,1,1-1.5,2.5-3-.5-4,1.5.5,3.5h-2l-1.5-3-1,1,1,3.5-4-1.5,2,3.5-2,.5-2-2-.5-3-4-1-1-2,3-3.5.5-1.5-3-3v-3l-5-3.5"/>
      <path data-code="PER-ELO" d="m26.25,286.75l1-2,5.5-4,.5,1,6.5-1,1,1.5v3.5l2,1.5,5.5-1.5,4,1,2.5-1.5v-2l4-.5.5,1-1.5,2.5.5.5-.5.5.5,1-1,1,.5.5-1.5,3.5,1.5.5-1,1.5h-2l.5,2.5-2,2,1.5,1,.5,1.5,2,.5-2,2.5-1,3-3,2.5-2-4-2,1.5-1.5-1-1.5,1-1.5-1-3.5.5-1-2,1-1.5-.5-2-2.5-2-2.5-.5v1h-1.5l-.5-.5,1-.5,1.5-2.5.5-3v-2.5l3-.5-.5-1.5-2-1.5-2,1-.5,1.5-.5.5-.5-2.5,1-.5-1-1-2,2-.5,1.5h-2.5l1.5-3-2-1"/>
      <path data-code="PER-GAJ" d="m60.25,17.25L73.25.25l12,10,6.5-8,10,8,6.5-9,14.5,11.5-6.5,8.5,6.5,5.5,6,4.5,6-8.5,29,23,1-1.5,4.5,4-3.5,5h-1l-1.5,3.5-6,9v.5l-1.5,3-4,5.5,6,5-6.5,7.5-1.5,2.5v.5l-2,1-.5-.5,1-.5-.5-2,1.5-3.5-3.5,2-3.5-2.5-3.5-1-4.5-2.5,2,2-1.5.5,1,1-1,1-2-1.5v1.5h-1l-1-2-5.5,8.5,1.5,1v2.5h-.5l-4-3h-2v-1l-2,1-8-2.5-6.5-4.5-1-2-4-1,2-8.5-2.5-9.5v-.5l-4,4-13.5-6.5-13-9-2.5-5,5.5-7.5-1-.5.5-1,2.5-3.5-6-5,3.5-4.5-10-8"/>
      <path data-code="PER-GOR" d="m186.25,235.75h1l1.5-1.5-.5-1,5.5-8.5,1,1,1.5-2,10.5-1.5,5,3,9.5-14v-1.5l5.5-4.5,7-5,6.5,3.5v2l5,7-7.5,8,2.5,4.5-2.5,2.5-2.5-1-2,4-1,5,1.5.5-1.5,3.5,3,1,1.5,3h3l-.5,3-2.5,5-1,7.5-3.5,2.5-3.5-1-3,4.5v1l-2.5-.5-1.5,3-2.5-1.5.5,2-6.5-4-1.5,2.5-1-1-1.5,2-1-.5-1.5,2-1-.5-1.5,2.5-.5-.5-3.5,1.5-.5,2.5-1.5.5-.5-.5-2,.5v1.5l1,1.5-.5,2.5-5.5,1v-2.5l-2-3-8.5-9,.5-4.5-1.5-1,1-1.5,9-2.5.5-4.5,1,.5.5-2.5,2-3.5-2.5-2.5,1.5-2h-2l1.5-1-1-.5v-1.5l-2.5-2-1,1-2-1.5,1.5-1.5-.5-1.5"/>
      <path data-code="PER-GRE" d="m174.75,216.25l2,.5,1.5-2.5,2,.5,1.5,2,3.5-.5,3,2,1-1.5,2-.5,3,2,4.5-3,1.5-2.5,6.5-1,3.5-2.5,2-.5,7,.5,2,.5v1.5l-9.5,14-5-3-10.5,1.5-1.5,2-1-1-5.5,8.5.5,1-1.5,1.5h-1l.5,1.5-1.5,1.5-4-3,.5-2h.5l1-2v-1h.5l-1.5-1,.5-1.5-.5-4-7.5-8"/>
      <path data-code="PER-GUB" d="m172.25,205.25l1.5-1,2,1.5v-1h1l1.5-3.5,1.5-1,1-1.5h.5l1.5-3,8,5.5-.5,1,3.5,2.5-.5,1.5,10,6-3,.5-1.5,2.5-4.5,3-3-2-2,.5-1,1.5-3-2-3.5.5-1.5-2-2-.5-1.5,2.5-6-3.5,3-4.5-1.5-1v-2.5"/>
      <path data-code="PER-ILI" d="m111.75,180.75l1.5-1-.5-1,2-2.5,3.5,4.5,2.5.5,2.5-2.5,6,.5,1.5-2,1,1-.5,1v.5l1-1,1,.5,1-1.5,2.5.5,4.5,5.5,1,13-11.5,9.5v1.5l2.5,3h-3l-3,3.5.5,2.5,1.5.5-1,1,.5.5-2.5,2.5-2-1-2.5,2.5-.5-.5.5-1-1.5-.5-.5,1v1l-1.5,1.5-2.5-1.5-.5-2-4.5-3-1.5-2.15-1.5.5-1-1.5,1.5-1.35-1-1.5.5-.5-.5-1.65-2-.35.5-3.5-.5-2.5h2.5v-.5l.5-1h-1l.5-1-2-4,.5-2,1-1.5,1,1-.5-1,1.5-3,3.5-2-3-2.5,3-4.5-1-.5"/>
      <path data-code="PER-YUR" d="m65.25,115.75l7.5-4.5,10-14,4,3,3-3,3,4.5,1,.5-3.5,4.5,2,1.5-1.5,2,2,1.5-1,2,4,3.5v.5l1,1.5,2,.5,2.5,3.5,1.5-.5,1,2.5,4.5,1,9-1.5,2.5,1,2-2,1,1.5.5-1.5,5,3.5-1.5,2,2,1.5-2,2.5,2,1.5-1.5,2.5,3,2-5,7-4-3.5-.5,1.5-4.5-3.5-1,1-6-4.5-.5,2-2,2h-4l-4-3-4,2-1,2h-1l.5-2-3.5-2-2.5-.5-1.5-2.5-4-.5-.5-3.5-.5-.5h-4.5l-1,1.5v2l-2,1.5v2.5l-9.5-7,1-13,.5-2.5"/>
      <path data-code="PER-YUS" d="m96.75,167.75l6.5-5,1,.5,1-4.5,3,1,1.5-1,1.5-2.5,2-2.5-1.5-1,1.5-2h1l9,8.5,7.5-9,4,3,1.5-2.5,2,2-.5,1,1,1-.5,1,1.5,1-1.5,1-.5,1.5,4,2.5,2.5-3,3,2.5.5-1,3,2,2-.5-.5,1,2.5,3.85-1,1.5-1.5,4-3,3.5-2.5,5,1,3.15-1,6.5-4.5,6.5-1-13-4.5-5.5-2.5-.5-1,1.5-1-.5-1,1v-.5l.5-1-1-1-1.5,2-6-.5-2.5,2.5-2.5-.5-3.5-4.5-2,2.5.5,1-1.5,1-7-5.5-7.5-1.5,2.5-3.5-3-2.5"/>
      <path data-code="PER-KAR" d="m75.75,201.25h1.5l1-1.5-1-1,1,.5.5-1.5,1-.5.5-1.5,2,1.5,1-1,1.5-2v-2l.5-.5-1.5-1h1.5l1-3-.5-.5,2-2h1.5v-.5l1.5,1.5,2-.5.5,1.5,1-1.5.5-1,1.5-1-.5-3,3-1.5h-.5l.5-1-1-2v-1.5l1,.5.5-1,5.5,1,8,6-3,4.5,3,2.5-3.5,2-1.5,3,.5,1-1-1-1,1.5-.5,2,2,4-.5,1h1l-.5,1v.5h-2.5l.5,2.5-.5,3.5h-1.5l-1,1.85-2.5-1.5-7,3.15.5,1-1,1v1.5l-1.5,3.5.5.5-4-1.5-1.5.5v1.5l-2,2.5-2-1v-2h1l-.5-1,.5-.5-4-4,.5-1.5-.5-1.5.5-2.5-2.5-2.5,1-1,.5.5-.5-1-1.5.5-.5-.5,1.5-.5-.5-.5.5-1.5-2-1.5"/>
      <path data-code="PER-KIS" d="m129.25,299.75l2-1.5,1.5-2.5.5.5,2-3.5,2,1.5.5,2.5h1l1-2,1-1,4.5,2-1,.5.5,3-1,1.5,3.5,2.5,1.5-.5v-1.5l2.5,2v1.5l4.5-3,1,1.5,4-2.5,1.5.5-1.5,2,1.5,1-7,10,1,.5-1.5.5,2,3h-.5l-.5,1,1,1-1.5,1.5h-1.5v1.5l1.5.5-1.65,2.6-4.85-3.25-1-3,.5-.5-2.5-.5.5-1-1.5-1.5h-2l-.5-2h-2l-1-1.5-1.5,1.5-2.5-.5.5-1-1-1h-2l-1.5-2-3-1.5-.7-.85,2.2-2-.5-1.5,1-1-.5-1.5v-1.5l-.5-.5"/>
      <path data-code="PER-KIZ" d="m186.25,197.75l1-1,2.5.5,1.5-1.5-.5-1.5,1-1,.5.5,1-1,1.5.5.5-1,6.5,4.5,9.5,2.5,5.5-8,10.5,7.5,1-2,3,2,1-1,1.5,2.5-12.5,9.5-9-1-9,4-10-6.5.5-1.5-3.5-2.5.5-1-4.5-3.5"/>
      <path data-code="PER-KOC" d="m89.75,97.25l9-15,4,1,1,2,6.5,4.5,8,2.5,2-1v1l4,1-2.5,7.5-1-.5,1-3h-1l-.5,1-1.5-1v1l-1,2.5h1l-.5,3,1,.5-1.5,1.5,2.5,3-1,1,1.5.5-1,1.5v1.5l3,2-1,2,1.5,1-1.5,1,2,1.5,1-1,1,1,1-2,2,.5h-1l-.5,1.5-2,2-1.5-.5-1,3v-1l-1-.5-2,2-2.5-1-6.5,1.5-5.5-.5-2.5-3-1.5.5-2.5-3.5-2-.5-1-1.5v-.5l-4-3.5,1-2-2-1.5,1.5-2-2-1.5,3.5-4.5-1-.5-3-4.5"/>
      <path data-code="PER-KOS" d="m118.75,98.25v-1l1.5,1,.5-1h1l-1,3,1,.5,2.5-7,2.5,1.5v-2.5l-1.5-1,5.5-8.5,1,2h1v-1.5l2,1.5,1-1-1-1,1.5-.5-2-1.5v-.5l4.5,2.5,3.5,1,3.5,2.5,3.5-2-1.5,3.5.5,2-1,.5v.5l3-1.5,7,1-2.5,9.5,6,4.5-6,6.5-3.5-3.5-1,1.5,2,.5-1,2-1.5-2-5,6.5,1,1-3,3.5,2,1.5-5.5,7.5,2,1.5-3,4.5-8,3.5-3-2,1.5-2.5-2-1.5,2-2.5-2-1.5,1.5-2-5-3.5.5-1.5,1-.5.5,1,2-2,.5-1.5,1-.5h-2l-1,2-1-1-1,1-2-1.5,1.5-1-1.5-1,1-2-3-2v-1.5l1-1.5-1.5-.5,1-1-2.5-3,1.5-1.5-1-.5.5-3h-1l1-2.5"/>
      <path data-code="PER-KRK" d="m94.25,232.25h1l1-1.5h-.5l2.5-.5v-1l3.5.5-2.5,1,.5.5-.5,2,1-2.5h1.5l1-2,2-.5v-1l2-.5,1-2,1.5,1,1-2.5,2-.15-2-1,1-1.85v-2.5l4,3,.5,2,2.5,1.5,1.5-1.5v-1l.5-1h1l.5.5-.5,1,.5.5,1-.5,4,3-.5,1.5-1-.5-1,4,1.5,1.5-.5,1.5h.5v-1.5l1.5,1.5-2,1,1,1-2.5.5-3,4h-1.5l.5-1.5-1.5-1v1l-2.5-1.5-1,1.5-1.5-1-1,1.5-2,.5-7-5.5-1.5,1-.5,2-.5.5-1-1h-3.5l.5-1.5-2.5-2.5"/>
      <path data-code="PER-KRV" d="m192.75,102.75l7,.5v-1.5h1l-1.5-3h1.5l1-1,3.5,1,1.5,2,2.5-1.5,1.5-2.5-1.5-2.5v-2l3.5-.5,1.5,1,1.5-2,1,1,1-1.5,1,1,.5-1,2,1.5,2.5-3.5,1,.5,2-3,1,1,3-4.5,5.5,4-1,1,1,.5-.5,1,1,1-.5,1,5,4,1-1.5,2,1.5,1-2,10.5,10.5h4.5l3.5-5.5,2,1.5,2-3.5,1.5,1v1.5l1.5-.5-.5-.5,1-.5h.5l2-3,1,.5,3.5-5.5-.5-1,2-6.5,1-1,1.5-.5v-5l-1-.5,5-11,1,.5,2.5-5.5,1,.5,2-5,4.5,2,.5-1.5,6.5,1.5,5.5-5h2l1,1.5,3.5-1.5.5.5-.5,2,1,2.5-2.5,4.5,1,2-1,1.5-2,1v4l-1,.5-1.5-.5-3,2v1.5l-2.5.5-1.5,3.5v2.5l-1.5,4,.5,1-.5,3.5-1,1.5.5,1-1,1v2l-1.5,3.5v2l2.5,1.5-2.5,6v1l-4,4.5v1.5l-2,2.5-1,3.5-5,6.5-4.5,2-2,1.5v1l-3,4-2.5,1,1,1.5-1.5,1.5-2,4.5-2.5,2-1.5,3-1.5.5v1l-3.5,5.5-3,1.5v1l-1.5,4-4-3.5-3.5,5-10-7-1.5,2.5-2.5-1.5-1.5,2.5-10.5-7.5-2,2-1.5-2,6.5-10-5-4.5-2.5,1-1.5-1-1.5,2.5-2.5-2-8-.5-8.5-6.5,5-6.5-11-8-.5-2,.5-1-3-1,.5-1.5,3-2-1-2.5.5-3"/>
      <path data-code="PER-KUD" d="m75.25,132.25l1-1.5h4.5l.5.5.5,3.5,4,.5,1.5,2.5,2.5.5,3.5,2-.5,2h1l1-2,4-2,4,3h4l2-2,.5-2,6,4.5,1-1,4.5,3.5.5-1.5,4,3.5,5-7,6.5-3,5,5-5,7,1,1-1,.5,1,1-.5,1-1-1-1.5,2.5-4-3-7.5,9-9-8.5h-1l-1.5,2,1.5,1-2,2.5-1.5,2.5-1.5,1-3-1-1,4.5-1-.5-6.5,5,3,2.5-2.5,3.5,2,.5-.5,1-1-.5v1.5l1,2-.5,1h.5l-3,1.5.5,3-1.5,1-.5,1h.5l-1.5,1.5-.5-1.5-2,.5-1.5-1.5v.5h-1.5l-2.5-4-2-.5-5.5-6v-1.5l-7-5-2-2.5,1.5-1-1.5-1,.5-.5v-1l.5-.5-2-3.5v-2.5l1-2,1-5.5,1.5-2,4.5-1,1-1.5,1-1v-2.5h-1.5l-1-8"/>
      <path data-code="PER-KUE" d="m21.75,314.25l2.5-2h1.5l2-2v-1l1-.5,2,1,3.5-1.5,5.5.5-.5-1,3.5-.5,1.5,1,1-1,2,1,2.5-1.5.5,3,1.5,2.5-1,1,.5.5,6,1v3l-3-.5,2,4,3.5.5-.5,1,.5,1.5-1.5,1,1,1.5,1,.5.5-1.5h1.5l-.5,2-.5.5,2,3-1,.5v1.5l2-1,.5.5-1,.5,1.5,2-1.5,4-2,2h-1l-1.5-2.5-2.5-.5-1,1.5-6.5-.5-3.5,2h-3l-3.5-2-1-4.5-1,.5-.5,2.5-1,1-1.5-1,1-1.5-.5-1.5h-1.5l-1.5-1-.5,1.5h-.5l-2-2,1-3-2-2-.5-1.5,1-.5h-1l-1-1.5.5-.5-2-.5v-4.5l.5-.5-2.5-1.5,1-1.5-2-1.5"/>
      <path data-code="PER-KUN" d="m90.75,278.6l2-4v-2l5,3.15-2.5,2.5-.5,1.5h-1.5l-1,2.5,2.5-.5v-1.5l1-2,3-1.5h2.5l-1.5,2.5,2,.5v-1h1l1-1,.5-3,1-2.5h-.5l1.5-1,.5,1.5,2.5-1,.5,1-.5,1h2l-1,1.5-1,.5,1,1,2-1.5,3.5,1.5v1l3-1.5,4,1,2-3.5-.5-.5,1.5-1.5-2.5-3,2-.5-.5-2.5,1.5.5-.5,2h.5l.5-1.5,1-1,.5,1,5.5-1.5-2-3.5,2.5.5.5-1-1-3.5v-1.5l1-.5-1-.5,2-.5,4,2.5h1.5l.5-1,1.5,1.5,2.5-1,1-1,5.5,4.5-5,8-3.5-2-2,4,.5,2-1.5,4.5-2,2-5.5-1.5,2.5,2.5-.5,1.5.5.5-1,3.5,2,1.5-.5,1.5-1.5-.5-.5,1.5,2,2.5-2,2.5-1,2-.5-.5-1.5,2.5-2,1.5.5.5v1.5l.5,1.5-1,1,.5,1.5-2.2,2-.8-1-1.5,1,.5.5-1,1-3.5-1.15,2-4.35-1-1-5-2-2,1-2-.5-.5.5v.5l-2.5,1.5h-2l-.5-1.5,1-.5-1.5-.5-1,.5-2,1.5-3-2h-1.5l-2,1.5-1-1-1,.5-.5,2,2,1-1.5,2-1-.5-1,1-4-1.15-2.5-3-1,1-1-2.35-1.5-1.5,2-2,.5-6.15-1-1.5,1-1v-1l2-3.5,1-6.5,1.5-.5Z"/>
      <path data-code="PER-LYS" d="m145.25,269.75l2-1.5,5-8,1-.5-1-.5.5-1,1,.5,2.5-4,2,1,2.5-1,2.5,2.5-.5-2.5,1-1.5,3-1,.5,1,5.5-.5.5,2,8-1-.5,6.5-1.5,2.5,1.5,1-.5,4.5,8.5,9,2,3v2.5l5.5-1-.5,1.5h-.5v4.5h2l-2,2.5,4,3-3.5,5.5v1.5l-1-1-14,7-1.5-2,1.5-3.5v-2h.5v-.5l-9-4.5.5-1-1.5.5-4-2,.5-2-.5.5-2-1-.5-1,.5-.5-1,.5-.5-1.5,1-1-.5-1v1l-1,.5v-3l1-1-6-3,.5-2,1.5-1.5-.5-.5-1.5,2-3-1.5-2,.5,1,1h-1l-.5,2-2.5.5-.5-4.5-4.5-1.5,1.5-2-1.5-1.5"/>
      <path data-code="PER-NYT" d="m77.25,232.6l1-.5,1.5-2.5,3-3.5,2-.5-.5-2,2-2.5v-1.5l3-.5,2.5,1.5-.5-1,1.5-3v-2l1-.5-.5-1.5,7-3,2.5,1.5,1-2,3.5.5.5,1.5-.5.5,1,1.5-1.5,1.5,1,1.5,1.5-.5,2,2.5v2l-1,2,2,1-2,.5-1,2.5-1.5-1.5-1,2.5-2,.5v1l-2,.5-1.5,2h-1l-1,2.5-.5-.5,1-1.5-.5-.5,2.5-1.5h-3.5l-.5.5-2,1h.5l-1,1.5h-1l2.5,2.5-.5,1.5h3.5l1,1-8,4.5-4,4.5-2-1-.5-5-6.5-3-.5-1.5h1l-2-1v-2h-.5v1h-.5v-1.5m-.5,3.5h1l.5,1-1-.5-.5-.5m1-.5v-.5l.5.5h-.5"/>
      <path data-code="PER-OCH" d="m48.25,219.6l3-1.5h2l.5,1,3,1,1,2,4.5-.5.5-1.5,3.5-.5,2.5,1.5.5,2.5,3.5-.5.5,1,.5-1.5,1,2,1-.5v-1.5l1.5-.5,1,1h2v2.5h4l-1.5.5-3,3.5-1.5,2.5-1,.5v3l-3,3.5.5.5-2,.5-.5-.5-2,.5v1l-1.5-.5-3,3-2.5-2,1-1-2-1.5v-1.5l-5-1.5-1,1-2.5-2.5-.5-1.5h-1l-.5-2-3-3,1-2.5-1.5-2.5v-3.5"/>
      <path data-code="PER-OKH" d="m77.75,235.6h.5l-.5-.5v.5m-1,.5l.5.5,1,.5-.5-1h-1m-12,9.5l2-.5-.5-1.5,1-1.5,1-1h2v-1l2-.5.5.5,2-.5-.5-.5,3-3.5-.5-1.5h1v-1l2.5,3h-1l.5,1.5,6.5,3v4.5l2,2.5,2.5,1,1-.5-5,7-2-1.5-1.5,2-3.5,3v1.5l3.5,2,1,2-1.5,3.5-3,3-1,4-1.5.5-.5-1.5-4.5-2.5,3-3.5-2-.5-2,1-3.5-2.5.5-2-1.5-4,2-1-1-2.5-1.5-1.5h-2.5l1.5-1-.5-1h1l.5-3-1.5-2v-1h.5l-.5-1"/>
      <path data-code="PER-OKT" d="m88.25,334.25l.5,2,1.5.5.5-1.15,2-1,2,1-1,1.5,1.5.5,2-.5-1.5-1,.5-1-.5-.5,1-1.5,1.5-.5-3.5-.5.5-1.5v1h4.5l.5-1.5h1l-.5,1.5,4.5,2.5,1-.5,4,.5,1-1.5,5.1-2.85-.1,1.85,3.5,3.55-1,2.95,1,4.5-2,1.5.5,1-.5,1,3,2.5-5,2.5,1,1.5h1.5l-1,2-2,2.5h-1l-2,3.5-.5,2-3,2.5v1l2,1v2l-2.5.5-.5,1-1.5-1.5v1h-1l-.5,2.5h-4v1.5h.5l-1.5,2,1,.5h-1.5l-.5,1-5-1.5-.5.5-1,1.5-1-1-3.5.5-1.5-1,.5-4-2-.5v-3.5l.5-.5-3-2.5.5-.5-.5-1,1-.5-2-1-.5-6.5h1l2.5-1.5-1.5-1.5,1.5-.5-1-1.5-.5,1.5-1.5-1.5.5-1.85,3.5.5,1-1.5-1-1.5h-1l-1,1h-1v-1l.5-1,4.5.5,1.5-1.65,1.5.15-.5-.65v-1h-4l-2.5,1.65-1-2h1.5v-1l1.5.85v-.85h2.5l1.5-1-1-1.65-2.5-1.85-1,.5,1,1-1.5.5-.5-2,1-.5.5-2.5h3Z"/>
      <path data-code="PER-ORD" d="m93.75,307.75l1-1,1,.5,1.5-2-2-1,.5-2,1-.5,1,.85,2-1.35h1.5l3,2,2-1.5,1-.5,1.5.5-1,.5.5,1.35,2,.15,2.5-1.5v-.5l.5-.5,2,.5,2-1,5,2,1,1-2,4.35.5,4.5-1,.5v2.5l.5,2,2-1.5-.5-1.5h1v3l-1,1,1,3.5h-3l-1.5,2.5.5.5-2,1v1.5l-1-1-1.5,1.5h1.5l-.4,1.65-4.1,2.35-3.5-6.5.5-.5v-1.5l1.5-1.5v-3l-5-1-1-1.5,1-1-.5-1-1.5,1.5-2.5-.5-1.5,1-5.5-4-2.2-5.3,1.7.45Z"/>
      <path data-code="PER-OSI" d="m56.25,278.1l3-5,2.5-2,1.5-1,1.5,2,2-1,1-2-.5-1,1-.5v-1.5l3,2,2-1,2,.5-3,3.5,4.5,2.5.5,1.5,1.5-.5,1-4,3-3,3,.5-1,1,6,3-.5,1,2.5,1.5-2,4-1.5.5-1,6.5-2,3.5v1l-1,1,1,1.5-.5,2-4,1.5-1.5,3-2-1.5-2,1.5h-1.5l-3.5-2.5-.5-2h.5v-.5l1-.5-1-.5.5-.5-5.5.5-2-2-1-3-3,1v.5l-1,1-1.5-.5-.5-.5,1-1-.5-2.5,1-2.5h-4.5l2-5.5"/>
      <path data-code="PER-PER" d="m104.75,241.1l2.5-4.5,3,2.5,2-.5,1-1,1.5.5.5-1.5,3,2v-1.5l1.5,1.5-.5,1,1.5.5,2.5-4,3-.5,2,3,4,1.15.5,3.35-1.5,3,2.5,1.5v2l-2,3-3-2-1,2-2.5-1-2,2.5-1-.5,1-1.5-1-1.5-3,.5-1-1.5h-2l-1.5,2v2l-1,.5-1.5-4.5,1-1-2-1,2-1,1,1,.5-1.5,1-.5-.5-1-3.5-2-6,2.5-1-2.5v-1.5"/>
      <path data-code="PER-PRM" d="m125.25,226.6l.5.5,1-1.5,1,.5-.5,2.5,3,2.5.5,2-3.5,4-1-1-1-1.5,1.5-1-1-1.5v1l-.5.5v-2l-1-1.5,1-3.5m-18,37v3l2.5,1.5,1-1,4,2.5.5-6-3-1v-2.5l-2,.5,1,2h2l-1,1.5-1-.5-1.5,2-2.5-2m-27.5-5l3.5-3,1.5-2,2,1.5,5-7h-2.5l-1.5-1.5h1l4-4.5,8-4.5.5-.5v-2l1.5-1.5,2,.5,2,2.5v2l-2,3,1,3,1,.5,3-2,2-.5,3.5,2,.5,1-1,.5-.5,1.5-1-1-2,1,2,1-1,1,1.5,4.5,1-.5v-2l1.5-2h2l1,1.5,3-.5,1,1.5-1,1.5,1,.5,2-2.5,2.5,1,1-2,3,2,2.5-4-3-2.5,1-2,.5-1.35,2,2,2-.5-2-3.5,4,1.5,3.5,2.35-4,6,1,1.5h-.5v1.5h-.5l-1,2.5-1.5-1-2,.5.5.5-.5.5v1.5l1,3-1,1h-2l2,3-5.5,1.5-1-.5-.5,1-.5,1.5h-.5v-2l-1-.5.5,2-2,1,2.5,3-2,1.5.5.5-1.5,3-1,.5-3.5-1-2.5,1v-1l-3.5-1-2.5,1-.5-.5,1-.5,1-1.5-2-.5.5-1-.5-1-2.5,1.5-.5-1.5-1.5.5.5.5-1,2.5-.5,3-1,1-1-.5v1.5h-1.5l-.5-.5,1.5-2.5-2.5-.35-3,1.5-1,2.35v1.15l-2.5.5,1-2.65,1.5.15.5-1.5,2.5-2.5-5-3.15v2l-1.5-.5-1-1,.5-1-6-3,1-1-3-.5,1.5-4-4-2.5-1-1.5.5-1"/>
      <path data-code="PER-SIV" d="m56.75,170.6l4-2.5-.5-2,3-2h6.5v1l-1,.5,2,3,7,5v1.5l9.5,8.5.5,2-2,2,.5.5-.5,1v.5l-1,1.5-1-.5,1.5,1.5h-.5v2l-2.5,3.5-2-2-.5,2-1,.5-.5,1h-1l.5,1-.5,1.5h-1.5l2,1.5-.5,1.5-1.5-1-1,1-3.5-.5-.5.5-1.5,1-.5,3-1-1.5-7-1v-2.5l.5-1.5v-1l-2-2.5-1-3.5h-3l-2.5-2,1-1.5-.5-3h.5l.5-1-1-.5.5-1.5v-2.5l2-3.5,1-9"/>
      <path data-code="PER-SOL" d="m144.75,116.6l5-6.5,1.5,2,1-2.5-2-.5,1-1.5,3.5,4,3-3.5,4.5,3.5-.5,1.5v.5l1.5-.5,1.5,1.5,1.5-.5.5.5-.5,1,1,1.5.5-.5-.5-1,2,2-1.5,2,1,1-2,3,6,5,2.5-.5,1.5,1,2-1.5v-2l1.5,1.5,1-5,3-6.5,2.5-4,2.5-2,.5,3,2.5.5v1l.5,2,10.5,8-4.5,6.5,8.5,6.5,8,.5,2.5,1.5,1.5-2,1,.5,3-.5,5,4-7,10.5-2-1.5-1.5,2-2-1.5-4,5,.5.5-4.5,5.5-2-1.5-1.5,2-3-2-2.5,3.5h-5l-1,1-1.5-1,.5-.5-7.5-2.5v-1l-1,.5v-1.5l-1,.5-5-3.5.5-1.5-1,.5v-1l1-1.5v-3l-2-.5-2.5.5-1-1,1-1,1.5,1,.5-1-4-1-.5,1-1.5-1,1-2-2.5,1,.5-1-2.5-3,.5-1,1.5,1,.5-1-3.5-3,2.5-1.5v-2h-1l-1.5,1h-3.5l.5-.5-.5-.5.5-1.5-1.5-1.5-.5,1-1-.5-1,1.5-5-4.5-2.5,2.5-7-6,1.5-2-2-1.5,3-4-1-.5"/>
      <path data-code="PER-SUK" d="m121.25,308.1l3.5,1.15,1-1-.5-.5,1.5-1,1.5,1.85,3,1.5,1.5,2h2l1,1-.5,1,2.5.5,1.5-1.5,1,1.5h2l.5,2h2l1.5,1.5-.5,1,2.5.5-.5.5,1,3,7.5,5-.5,1-3-.5,1.5,2-2.5,3v-1l-1.5,1-.5-1h-1.5l2-.5,1-1.5-2-1-1,1.5-2.5-1-1.5,1-1,2-.5-.5v1.5l-1,1.5-1-2.5v1l-2,1.5-1-1.5-2,.5-.5,1.5-.5.5-2-1.5-1.5,1-3-2.5.5-3-2.5.5v-1.5l-.5,1-4,1-3,2.5-2.5-2.5.1-1.85.4-1.65h-1.5l1.5-1.5,1,1v-1.5l2-1-.5-.5,1.5-2.5h3l-1-3.5,1-1v-3h-1l.5,1.5-2,1.5-.5-2v-2.5l1-.5-.5-4.5"/>
      <path data-code="PER-UIN" d="m84.25,308.25l-1-1,1.5-1,1-1.5-.5-2.5,1,2.35,1-1,2.5,3h2l2.5,6,5.5,4,1.5-1,2.5.5,1.5-1.5.5,1-1,1,1,1.5,5,1v3l-1.5,1.5v1.5l-.5.5,3.5,6.5-2,2-4-.5-1,.5-4.5-2.5.5-1.5h-1l-.5,1.5h-4.5v-1l-.5,1.5,3.5.5-1.5.5-1,1.5.5.5-.5,1,1.5,1-2,.5-1.5-.5,1-1.5-2-1-2,1-.5-2.5-.05-4.05-2.45-.3,1,3.5,1,1-1.5-.15,1,2.5-1.5-2h-2l-.5-.5.5-1.5-1-2,.5-1.5-1.5-1.5.5-1-4.5-2.5v-2l2-1.5.5-1h1l-.5-1.5-1.5.5v-2l4-2.85-3.5-2.5,2.5-2Z"/>
      <path data-code="PER-BRZ" d="m139.25,130.1l4-5.5,7,6,2.5-2.5,5,4.5,1-1.5,1,.5.5-1,1.5,1.5-.5,1.5.5.5-.5.5h3.5l1.5-1h1v2l-2.5,1.5,3.5,3-.5,1-1.5-1-.5,1,2.5,3-.5,1,2.5-1-1,2,1.5,1,.5-1,4,1-.5,1-1.5-1-1,1,1,1,2.5-.5,2.5,1.5-1.5,3.5v1l1-.5-.5,1.5,5,3.5,1-.5v1.5l1-.5-.5,1h2l6,2.5v2.5l-3.5,3.5,1,3.5-1-1-.5,1-2.5.5-1,2-2,.5,2.5,3-2,1-.5,1-2,.5-1,1.5,1,2-2.5-.5-1,.5v1.5l-3-.5-3.5,4.5v.5l-2,1-4.5-2-3.5-3.5,1.5-1v-2h-2l-2.5-3-3.5,1.5-7-1,2.5-5,3-3.5,1.5-4,1-1.5-2.5-3.5.5-1-2,.5-3-2-.5,1-3-2.5-2.5,3-4-3,.5-1,1.5-1-2-1.5,1-1-1-.5.5-1-1.5-1.5,1-.5-1-1,.5-1-1-.5,5.5-7-5-5,1.5-.5,3-4.5-2-1.5"/>
      <path data-code="PER-VER" d="m48.25,195.1l4.5-2,2.5,2h3l1,3.5,2,2.5v1l-.5,1.5v2.5l1.5.5h3l3.5,2,.5-3,1.5-1,.5-.5,3.5.5,2-1,1,1-1.5,1h2l.5,1-.5-.5-1,1,2.5,2-.5,3,.5,1-.5,2,4,3.5-.5,1,.5,1h-1l-.5,2,2.5,1,.5,2h-4.5v-2.5h-2l-1-1-1.5.5v1.5l-1,.5-1-2-.5,1.5-.5-1-3.5.5-.5-2.5-2.5-1.5-3.5.5-.5,1.5-4.5.5-1.5-2.5-1.5.5-1.5-2h-2l-1.5-9.5-1-1.5.5-1.5,1.5-2.5-1.5-2,1.5-.5-2.5-5.5"/>
      <path data-code="PER-ZVE" d="m107.25,263.6l2.5,2,1.5-2,1,.5,1-1.5h-2l-1-2,2-.5v2.5l3,1-.5,6-4-2.5-1,1-2.5-1.5v-3"/>
</svg>