<svg xmlns="http://www.w3.org/2000/svg" viewBox="0 0 240 291">
      <path data-code="ROS-AKS" d="m62.75,126.4l2-.5,1-1.5-1-.5,4-5.65,1.5,1-3.5,4.5,3,2-1.5,1.5,2,1,1.5-3h1v-3.5l2,.5,4,3.15v3.6l-2,.4,1.5.5-1,1.85-.5-.5-1.5,1.5-2-1.5,1.5,2-.5,1.5,1.5-.5.5,1.5-1,1,1,1-.5,2,2-2.5-1.5,3.15,2.5,3h-3l-1-1-1.5,2h-1l-.5,1.5-2-1v2l1,1-2,3.5-1.5-1-.5,1-5-4-4.5,7-4.5-8,1-2,1.5,1,1.5-1.5.5-3.5-1-.15,3.5-.5v-1l3-1-.5-1.5h1l-1-1,2.5-4-2-3.5-1,3.5-1,.5-1-1h1l-.5-1,2.5-3.35Z"/>
      <path data-code="ROS-AZO" d="m37.25,137.4l1.5.5-.5-1h.5l2.5-4.5,2.5,1,.5,2.5h1l-.5,1.5-2-1,.5,1.5-1-1-2,2.5-3-2"/>
      <path data-code="ROS-AZOM" d="m40.25,139.4l2-2.5,1,1-.5-1.5,2,1,.5-1.5h-1l-.5-2.5-2.5-1-2.5,4.5h-.5l.5,1-1.5-.5,3,2Zm-36-6.5l2-2.5,7,2,4.5-2,.5,1,2,.5,7.5-1v1.5l3,1,3,3.5,2.5-2-2-3.5,1,.5,1-1v-2l2-2-.2-1.75,2.2,1.1,1.5-2,1.5,1.5,1-.4,1,1.05v1l.95.3-.45,3.7,3,3.85,2,.5v2l4,1,.5,1.15-4,.5v1l2,.5-.5,1,.5.5-2.5,3.5,2.15,1-2.15,3-1.5-1.5-2,3,1,1-1,1-1-.5-2.5,4-1-1-1,1.5-1-.5v3l-6.5-4,1-1-4-3.5-2,.5-5.5-3.5-3.5,5-1-1-1,1.5-1-.5-3,4-1.5-2-1.5.5-2-1v-2l-1-1.5-.5.5-3.5-3.5-3,4.5-.5-1.5,6.5-9.5,1,1,3.5-5.5,1.5,1,.5-1-2-1.5-1,.5-6.5-4.5"/>
      <path data-code="ROS-BAG" d="m69.25,145.9l1-1,1.5,1,.5-1.5h1l1.5-2,1,1-.5,1,.5,1,.5-.5,3-.5.5-2,1.5-.5,7,2.85,1.5-1.5,4-1,2,2.5h.5l.5-1,1.35,1.25-.85,2.25.5.5-1.5,2.5,2.5,2.15-2,3.5-5-3.5-1,1-1.5-1-3,4-2-.5-3,4v2l-.5-.5-.95,1.65-2.05-1.8,1-1.5-1-2-9-6.35,2-3.5-1.5-2"/>
      <path data-code="ROS-BAT" d="m51.25,140.4l4-.5-.5-1.15,1.5,1.5,1,.15-.5,3.5-1.5,1.5-1.5-1-1,2,.55.95-.4.55-2.15-1,2.5-3.5-.5-.5.5-1-2-.5v-1"/>
      <path data-code="ROS-BEL" d="m124.25,100.4l2.5,1-.5-1h1v-1l.5-.5v-1l.5,1-1,1,.5,1,2.5-2,2.5-5,2,.5,1.5-1,1,1.5,2.5-1.5-.5-1,5-3.5.5,1,3-2.15,1.5,2,4.5-1,2,1.5,2.5-2,1,1,2-.5,1,2,7-2.85.5,4-2,2,.5,1.5-7,2.5v1.35l-5,1-.5,1v-.5l-3,.5-1-.5-1.5.5-1,2.5-1-.5v2l-1-.5-1,2v1l-.5-.5v1l-1-1-3,5,1.5,3.5-1,1.5-2.5-.5v.5l-1.5,1,1.5,1,.5,2.5-2.5-.5-.5,2,1,2-.5,2.1-11-1.95-2.5-1.5-2,1-1.5,1.5-1-.5-2-4-3.5-2,1.5-2.5-1-1,1-.5-.5-1.5,5.5-7,1,.5,2.5-5.5,1-1-1-1"/>
      <path data-code="ROS-BOK" d="m195.25,42.9l4.5-.5v-1h3.8l-.3,1.35,2,.5.5,2.5,2.5-.5,5,5-1.5,1,1,5.5h1.5l1.5,1.5-2,3.5,2.5,4,2-.5,4-5,3.65,1.4-2.15,1.25-.5,1.5-2,2,1.5,1.5-1.5,1.5,1.5.5-2,1,.5,1.5-1.5.5v-1l-3,3,1,2-4.35,2-1.15,2.85-1-1-1.5,1-.5-1-1.5,1-1-1.35-5-2.5-1-3,1.5-1.5-6.5-5,1-3.5-.5-1.5-3.5-1,1-4.5h1.5l1.5-4,1.5,1.5,1.5-1-3-5.5-4-2,1-1.5h1.5v-2.5"/>
      <path data-code="ROS-TSE" d="m59.75,208.4l4-6,4,3,2-3,2,1.5,4.5-16.65h3.5l-1,2,4,1v-1.5l2,.5.5-2-2.5-.5,1-3,3,2,1.5-2,1,.5v.5l2.5.5-.5,2,4.5,1-3,9h5l-2.5,7.15-3.5,2h-4l-4.5,5.5-1-.5-6.8,8.85-2.7-1.5-1,2-2-1.5-1.5,2-.5.15-3-2.5-3,4-6.5-4.5,2.5-4,3.5-3.5-1.5-2.5"/>
      <path data-code="ROS-CHE" d="m143.25,30.9l2-1,2,1,3.5-1.5,2.5,1,2-.5-.5-2,3-3.5-1.5-4.5v-5.5l3-4,6.5.5.5-3.5,2-1,3.5,3.5,1.5,4.5,5,4.5,4.5-2,1.5,1-.5-1,2-1.5,1,1.5-2,2.35v.5l-.5,2,1,1-1.5,2h-1l6,5-2,2,2.5,2-2,2.5v1l5.5,3.5-.4,3.3-2.6,2.85-.5,2-4.5-2.5,1.5-2.5-5-2,.5,2-1.5,2-2.55,2.25-.95-1.75-1.5,1-1-1-1.5,1-2-5-2,1-4-2.5-.5-4.5,1.5-.5v-1l-4.5-.5.5,1.5-1.5,1,.5.5h-3l-4-2-1,.5v3h-.5l-1-.5.5-3-4-1.5-1-1.5-2,1-1.5-2.5"/>
      <path data-code="ROS-TSI" d="m151.75,148.9h1.5v-1l3.5,2.5-1,2,4,3.5,2.5-2,.5-1,3-1.5v-3.5l2-1.5-1-1.5,4.5-2.5.5,1.5h-1.5l1.5.5-.5,1,3.5,1v2l3-.5,4.5,3.5,1.5-1-.5,2v1l2.5.5,2.5,2-1,3.5,1,5.5,2,4-2.5,6.5-3.5-1-2,1-.5-2.5h-2.5l-.5-1.5-3.5-.5-1,1-1.5-1-2,.5-.5-1-1,1-1.5-.5-3,5h-6.5l-1.5-1.5,1.5-2.5-.5-1.5-2.5,1.5-1.5-1-.75.55-1.25-1.05-1.5.5-3-1.5-.5-3-1.5-1.5.5-1.5h-.5l3.5-5.5-.5-.5,4-7.5-.5-1"/>
      <path data-code="ROS-DON" d="m105.25,74.9l4,1.5,1-1.5,5,4.5-4,3-1.5-1.5-.5.5.5-2.5-4,1v-2.5l-1.5-1.5,1-1"/>
      <path data-code="ROS-DUB" d="m165.25,178.4l3-1.5-1.5-1.5-2,.5,3-5,1.5.5,1-1,.5,1,2-.5,1.5,1,1-1,3.5.5.5,1.5h2.5l.5,2.5,2-1,3.5,1-1,5v3.5l-1,1.5.5,1.5-2.5,8.5,2.5,1.5,3.5-1.5,4.5,3-.5.5-1.5.5-.5,1.5-1.5,2,5.5,5,5,1.5-5.5,8.85v1l-1.5,1.5,2,1-13,20.5-2.5-2-3,.5-2,.65-1.35,2.25-4.65-2.9.5-1-7.5-5,3.5-3,1,.5,1-2.5,6,3.5,10-16-9.5-6-1.5,2-7-4.5,1-.5-1-3,1-1.5.5.5,1-1.85-2-2.5,2.5-1v-2.5l-1.5-.5-.5-1.5h-1l1-1.5h-2l-1-2v1.85h-.5l-1.5-1.5,2-3.5,1-1-3-2.5-.9-2.75.9-1.25-.5-1,.65-.6,3.35-.25Z"/>
      <path data-code="ROS-EGO" d="m41.75,199.4l.5-1,2,.5,2.7-5.15h.8l4.5,3.5.5-1,1.5-.5,2-3-.5-.5,2-2.5-1.5-2,1-2.5,1-.5,2.5,2,1.5-3h1.5l3,2-.5.5.5,1.5,3,1.5.5-1.5,2.5,2-1,2,1,.5-1.5,2,2.65,1.65-2.15,7.95-2-1.5-2,3-4-3-4,6,1.5,2.5-4,4.5-15-10,1-2-2-1.5,1-1.5-.5-.95"/>
      <path data-code="ROS-GUK" d="m93.25,92.4l2.5-.5.5,1v-1.5l.5,1.5,1.5-1.5,1,.5v1.5l2,2-1,2.5-.5-1.5h1l-.5-1.5-1,.5.5-1h-4l1-1-1-.5h-1l-.5,1.5-1-2"/>
      <path data-code="ROS-KAG" d="m41.75,158.4l1-1.5,1,1,2.5-4,1,.5,1-1-1-1,2-3,1.5,1.5,2.55-3.55,3.95,7.05,4.5-7,5,4,.5-1,5,3.5-1.5,3.5-.5-.5-.5,1,1.5,1.5-1,1.5,3.5,2.5-2.5,3.5-4.5-3.5-3.5,4.85-1-2-2.5,3.5-1-1-2,3,1,1.5-.5.5-.5-.5-.5,1-3-2-1,1.65h-.5l-1.5-2,1.5-1.5-8-5.5.5-1-3.5-3v-3l1,.5Z"/>
      <path data-code="ROS-KAMS" d="m108.25,91.4l1-1.5,3.5,2.5,1-1.5-.5-.5,1-2-.5-1.5.5-1h1v-1l3-2.5,1-.5v1.5l1.5.5,1-2,2.5-2v2l-1-1-1.5,2.5h-.5v.5h-.5l-.5.5.5,2.5,1,.5h-1v1.5l-1.5-.5-1.5,1.5-4,1-.5,1.5-1.5,1,.5.5h-1l.5,1-2.5-.5-1-3"/>
      <path data-code="ROS-KAM" d="m111.25,66.4l1.3-1.25,3.7.6,3.5,2.5.5-1,3,2.5,2-1.5-1.5-1.5,1-1.5-.5-.5,1.5-.5,3.5,2-1.5,1.5,1,1.5,1-.5,1.5,1,1-.5,1.5,2,.5-.5,2.5,1.5h1.5l.5-1,1,1,.5,2-1.5,3,1.5,1,1.5-.5,3,5h2.5l3,2.5-2.5,2.5-3,2.15-.5-1-5,3.5.5,1-2.5,1.5-1-1.5-1.5,1-2-.5-2.5,5-2.5,2-.5-1,1-1-.5-1v1l-.5.5v1h-1l.5,1-2.5-1,1,1-1,1-9-6.5,1-1.5-3-2,.5-1.5,4-1,1.5-1.5,1.5.5v-1.5h1l-1-.5-.5-2.5.5-.5h.5v-.5h.5l1.5-2.5,1,1v-2l-2.5,2-1,2-1.5-.5v-1.5l-1,.5-3,2.5v1h-1l-.5,1,.5,1.5-1,2,.5.5-1,1.5-3.5-2.5-1,1.5,1,3-4-4v1l-2.5,1-.5-3.5-2.5-1.5,1.5-2,1.5.5,2-3,2.5,2,1.5-1.5.5-2,.5-.5,1.5,1.5,4-3-5-4.5,1-1h-1.5v-1h1l.5-3.5h.5l-.5-3"/>
      <path data-code="ROS-KAS" d="m169.25,55.9l6.5-4h2l-1.5-2.5,4-3.5,1.5-2-.5-2,5,2-1.5,2.5,4.5,2.5.5-2,2.6-2.85,1.4,1.35-1,1.5,4,2,3,5.5-1.5,1-1.5-1.5-1.5,4h-1.5l-1,4.5,3.5,1,.5,1.5-1,3.5,6.5,5-1.5,1.5,1,3,3,1.5-1,1.5,2.5,1.5-3.2,4.85-1.8-1.35,1-2-3-2-6.5,1.5.5,2.5h-.5l-2-2.5-2,1.5-.5-1.5-1,.5v-2.5l-2-1-1,1-1.5-.5-7.5,5.5-6,1.5-2.5-3.15v-1.5l-3.5-2v-2.5l.5-1.5h2l.5-1.35-.9-.75,3.9-4.75-4.5-7.5,4.5-6v-1"/>
      <path data-code="ROS-KON" d="m114.75,140.25l4-.5v-3l2-1v2.5l1.5,1v1l1.5-.5,3.5-3.5h-2.5l.5-1h1l2-2-.5-2.85,2.5-1-1-2,1-2,9,2.35-1,2.5-.5-.5-.5,1.5h-1.5v1l3.5.5.5,2h1l-1.5,2.5,3.5,2.5,2-3,5,2,1.5-2,1,.5,1-1,2.85,1.05-3.85,6.1,2,1.5v2l-1,1v1h-1.5l.5,1-4,7.5.5.5-3.5,5.5h.5l-.5,1.5-1.5-.5,1.5-1.5-.5-1.5h-3.5l-8-6.5-6-.15-1.5-1-1.5.5-.5-2-1.5-.5-1,1-1.5-1v-3l-2.5-2,1.5-1.5-.5-1.5-.5-.5-1,2-2-1-1-2.5,1-1.5Z"/>
      <path data-code="ROS-KRA" d="m103.25,96.9v1.5l-1.5,2h1.5v-1l2.5,2,2-3.5-3-.5v1l-1.5-1.5m-22,4.35l2-.35,1-1.5,1,1,2-3,2.5-1.5,1.5-2.5v-3.5l3.5,2.5h-1.5l1,2,.5-1.5h1l1,.5-1,1h4l-.5,1,1-.5.5,1.5h-1l.5,1.5,1-2.5-2-2v-1.5l-1-.5-1.5,1.5-.5-1.5v1.5l-1.5-3h1.5l1.5-2,2-.5,2.5,1.5.5,3.5,2.5-1v-1l4,4,2.5.5-.5-1h1l-.5-.5,1.5-1,3,2-1,1.5,9,6.5-2.5,5.5-1-.5-5.5,7,.5,1.5-1,.5,1,1-1.5,2.5-1.5-1-2.5,1.85-2.5-2,.5-1-1.5-1h-1.5l-1,1.5-2-1.85-3,.5-3.5-2.5-1,1-.5-1,1-.5v-1.5l-2-1.5-1,.5,2,1v1.5l-3.5,1h2.5l.25.8-2.25,1.6-1.5-2.5.5-2-1-.5,2.5-2.5v-1.85l-2-1h.5v-1.5h-1l-1-1.5,1.5-2.5-1.5,1-.5-.5.5,1.5-1.5,1.5-2-1.5-1.5,2,1,1h-1.5l.5.5-2.25-.45.25-1.2-2-.5.5-2.5,1.5-1.05Z"/>
      <path data-code="ROS-KUJ" d="m46.75,80.4l1-1.5,1.5,1,2.5-2.5h1.5l7,5.5v2.5l5,2,.5-.5,4,3-1,3.35h-1l.5,2-3,1,.5,2.5-7.5,2.15h-2v-1.5l-1-1-.9,1.15-2.1-1.65,1-2.5-2.5-2.5,2-3-7-4,1-1.5-2-1,1.5-2,.5-1"/>
      <path data-code="ROS-MAR" d="m111.75,169.75l1.5-2.5-.5-.5,1.5-2.35h-.5l4.5-7h1l5.95,4.65.55,1.7-.5,2,4.5,4.5,8.5,5,.5.5,1-1,1.5,1-1.5,2.5.5,1-.5-.5-1,1,1.5,1-.5,1.5h-1l.5-1.5h-1l-.5,1.5.5-1h.5v1.5h1l.5-1h1.5l-1,2.5,2-1.5,1,2,1-1v1.5l1-.5-.5,1.5,2-.5v1.5l-1.5,2,1,.5-1,1.5-6-3-2.5,4.5-1-.5-2.55,3.8-1.95-2.15.5-2.5-2-1-1,1.85-6.5-3.5,1-1-1.5-1v-1.5l-1.5,1-5-3,1-1-3.5-2-1,1.5-2-1.5-1.5,1.5-2-1.5,3-4.5-1-4.5,3-1.5Z"/>
      <path data-code="ROS-MAT" d="m19.25,81.9l.5.5,1.5-1.5,1.5,1,1.5-2.5,4,2.5,1-1.5,5.5,4,1.5-1,1.5,1,1-2,3.5,3.5,2-2.5,2.5,1-1,1.5,7,4-2,3,2.5,2.5-1,2.5,2.1,1.65-2.1,2.7,1.5.65-.5,1.35-3.5,1.5-1.5-1-2,2-2.5-2-1,1-10-8-1,1-.5-.5-2.5,3-14.5-10.85,5-8.5"/>
      <path data-code="ROS-MILU" d="m169.25,87.9l3-1.5h3l7.5-5.5,1.5.5,1-1,2,1v2.5l1-.5.5,1.5,2-1.5,2,2.5h.5l-.5-2.5,6.5-1.5,3,2-1,2,1.8,1.35-6.3,9.65,1,.5-1,2,2,1.5-1,1.5-2.5-1-2.5,3.85,2.5,1.5-4.75,6.05-6.25-2.4v1l-2,1-4-2.5-.5-3-3,1v-1.5l-3.5,1-2.5-9-3,1-.5-2.95,3-1.05-.5-1.5,2-2-.5-4"/>
      <path data-code="ROS-MILL" d="m125.75,31.9l2-1.5v-.5l1-.5,2,2.5h2.5l4,3,1-1.5,5-2.5,1.5,2.5,2-1,1,1.5,4,1.5-.5,3,1,.5h.5v-3l1-.5,4,2h3l-.5-.5,1.5-1-.5-1.5,4.5.5v1l-1.5.5.5,4.5,4,2.5,2-1,2,5,1.5-1,1,1,1.5-1,.95,1.75-1.45,1.25,1.5,2.5h-2l-6.5,4v1l-4.5,6,4.5,7.5-3.9,4.75-1.1-.9-2.5-.5-.5-4.5-4,1v.5l-1.5,1v-1.5l-3-.5-1.5-2,.5-1.5-1-.5,1-1-3-2-2.5,1.5h-2.5l-3-2,.5-.5-2-3.5,2.5-2.5-2.5-2-5-1v-3l.5-.35,1-3-.5-1h-2l-1.5,2-1-3.5-3-1.5v-1l-1,1,.5-1.5-1-2,1.5-1.5.5-2.5h-1.5v-2h-1v-1"/>
      <path data-code="ROS-MYA" d="m43.25,118.25l4.5-6.5,2.5,1,.5-2.5,5.5.5v2h6.5l-.5,2h-1l-.5,3.5.5,1,4.5,2v1.5l-1,1.15,1,.5-1,1.5-2,.5-1,1.35-1-.5-2,3h-3l-1,1.5-2-1.5-5.5.5-1-2.35.5-.5-1.5-.5v-1l-1-1.05,1.5-.6-1.5-1.5,2.5-2.5-3.5-2.5"/>
      <path data-code="ROS-MOR" d="m160.25,115.9l1.5,1,1-1.5h2.5l2-3h1.5l2.5-4v-1l3.5-1v1.5l3-1,.5,3,4,2.5,2-1v-1l6.25,2.4-1.75,4.45,1,.5-1,2,4,2.65h-5l-2,10.5-4.5-2-1,2,.5.5-2,6.5-2-1-.5.5h-2l-1.5,1-.5,2h-1l-4.5,2.5,1,1.5-2,1.5v3.5l-3,1.5-.5,1-2.5,2-4-3.5,1-2-3.5-2.5,1-1v-2l-2-1.5,6-9.5,1,1,4-6-2-1.5,3-4-4-5.5v-2"/>
      <path data-code="ROS-NEK" d="m7.25,94.25l3.5-3,1.5.5,2-1.5,14.5,11,2.5-3,.5.5,1-1,10,8,1-1,2.5,2,2-2,1.5,1,3.5-1.5,2.5,2.5-.5,4-4.5-.5-.5,2.5-2.5-1-4.5,6.5,3.5,2.5-2.5,2.5,1.5,1.5-2.5,1-1.5-1.5-1.5,2-2-1,3.5-3-1-2.5-3.5-3h-3l-4.5-5-.5,1-2-1h1l-1-.5,1-1-.5-1-1.5,1-5.5-3-4.5-.5-2,.5-1.5,1-3,.5v1l-6-4-3.5-.5,4-5.5.5-1,4,1,2.5-3-4-2.5m2.5,15.5l1,.5,1-1.5h1l.5-.5,5-1,7,5-1,1.5,1-.5v2.5l-1-.5,1.5,2-1,.5-12-5.5-1,.5,1,1h-.5l-2.5-4"/>
      <path data-code="ROS-NOVC" d="m73.25,131.25l2,1.5,1.5-1.5.5.5,1-1.85-1.5-.5,3-.65.5-1,1,1-1,.5,1.5,1-.5.5,1,.5-1.5,2,.5,1.5h-2l-1.5,2.5,1,.5v1h2l.5-1h2.5l1,.5-5,.5h-1l-1-1.5-2,2.5.5-2-1-1,1-1-.5-1.5-1.5.5.5-1.5-1.5-2"/>
      <path data-code="ROS-NOVS" d="m83.25,106.9l-.5-.5h1.5l-1-1,1.5-2,2,1.5,1.5-1.5-.5-1.5.5.5,1.5-1-1.5,2.5,1,1.5h1v1.5h-.5l2,1v1.85l-3.5-1-1,2.5,1,2-2,2-1-.5,1-1.5-3.5-1,1.5-2.5.5-1.5-3-.5-.5,1-.5-1,.25-1.3,2.25.45Z"/>
      <path data-code="ROS-OBL" d="m197.75,95.25l10,7-1,2,1,1.5,2.5.5,1-1.5,1.5.5,1.5-2.5,1,.5,2-3.5,3,3,7.5,4-1.5,2.5.5,4.5-2,3-4.5,1-1.5,1.5-1.5,6-1,1.5-1.5-1-3,1.5-.5-1-1,.5-5.5-.5v-1l-2.5-.5.5-1-2,.5v-1h-1l.5-.5-.5-.5-7,.5-3-1.5-1-1.5,1-2-1-.5,1.75-4.45,4.75-6.05-2.5-1.5,2.5-3.85,2.5,1,1-1.5-2-1.5,1-2-1-.5,1-1.65Z"/>
      <path data-code="ROS-OKT" d="m90.2,118.05l1.05.2-1,.5,1,.5-1,.5,2.5,2-.5,1,2.5.5v.5l1.5,1-1-1,2.5-2,1,1,1.5-1h1.5l-3-3,.5-1-.5-.5-1-.5,1,1.5-.5.5-3.5-2,1.55-2,2.95,2.1,3-.5,2,1.85,1-1.5h1.5l1.5,1-.5,1,2.5,2,2.5-1.85,2.05,1.3-1.05,1.05,1.5,1.5-3,3-.5,3h-1l-1.5,2.5.5.5-2,.5h-2l-2.5,3-1-.5-1,2-7.5-4-4,5,.5,3h1.5v2l-2,.5-1.5,1.5-7-2.85-1.5.5-.5,2-3,.5-.5.5-.5-1,.5-1h3l-2.5-3,1.5-3.15,1,1.5h2l.05-.1,3.95-.4-3.5-.5-.45.9-1.05.1h-1v-1l-1-.5,1.5-2.5h2l-.5-1.5,1.5-2-1-.5.5-.5-1.5-1,1-.5-1-1-.5,1-1,.2v-3.2l-4-3.5,4-6,1,.5.5-1-1.5-2.5,4-5.35,2,.35-.5,1.5-1.5,2.5,3.5,1-1,1.5,1,.5,2-2-1-2,1-2.5,3.5,1-2.5,2.5,1,.5-.5,2,1.5,2.5,2.25-1.6.25,1.1-1,1-2.5-.5-.05.85-1.45-1.3-.5,1,1.95.3Z"/>
      <path data-code="ROS-ORL" d="m129.25,192.25l1-1.85,2,1-.5,2.5,3.5,3.85-.5,1,2.5,2-.5,1,2,1,2,.5v-2h4v4.5l-1,.5v9.5l-4,.5v4h-2.5l-.5,1,.5,5.5,4.5.5v3.5l3-.5,1.5,2-1.5,2,4,2.5-3,4.5,1,.5-.5,1,4.75,3.25-4.75,7.25,2,1-4,6.5-.5-2.5-7-1-.5,1.5-1.5.5-5.5-5-1-2v-4.5l-2-3.5.5-2,2.5-.5,2-4.5-3-2-1.5-6.5-3-.5v-1.5l-2.5,1-.5-1.5,3.5-1.5-.5-1.5,1-1-2-1.5-1.5,2-4.5-4.5,1.5-1.5-2.5-4.5,1-1.5-1-.5,2-3,2.5-1,3-4.5,1,.5,3-4.5-.1-6.65,2.1,1.15Z"/>
      <path data-code="ROS-PES" d="m61.75,226.25l1.5-.5,3.5-5,1.5.5,1.5-2,2,1.5,1-2,8,4.5-1,2,5,3.5h-1.5l6.5,3.5-3,4.5-1.5-2-2,3-1.5-1-1,2,3.5,2,1,4.5-2,7-2,4.5-3.5-2-4.5-5.5-3.5-1-1.5,2.5-8.5-5.5,1-2-1-.5,1-1.5-.5-.5,2-3-.5-.5,1-1-1.5-1,1.5-2.5-3.5-1.5,3-4.5-.5-.5"/>
      <path data-code="ROS-PRO" d="m96.25,170.75l7.5-.5,5,1,1,4.5-3,4.5,2,1.5,1.5-1.5,2,1.5,1-1.5,3.5,2-1,1,5,3,1.5-1v1.5l1.5,1-1,1,4.4,2.35.1,6.65-3,4.5-1-.5-3,4.5-2.5,1-2,3,1,.5-1,1.5,2.5,4.5-1.5,1.5,4.5,4.5,1.5-2,2,1.5-1,1,.5,1.5-3.5,1.5.5,1.5,2.5-1v1.5l3,.5,1.5,6.5,3,2-2,4.5-2.5.5-5.5-7.5-5.5-2.5-5-5-4.5-1-2.5-7v-4l1.5-4-1.5-3.5,1.5-4,2-3,.5-6.5-3.5-4.5-.5-4.5-4.5-6-3-8.5"/>
      <path data-code="ROS-REM" d="m153.75,241.75l1.5.5-2,3,3,1.5-2.5,3.5,6.5,5.5.5-1,2,1.5,5.5-9.5,13,7.5-.5,1.5,7,4.5-.5,1,2,1-1,1,3.5,2h-1.5l-1.5,2.5-3,2-3,.5-1.5,1,3,5-5,6.5.5.5-1,2,.5,2.5-2,2h-3l-2.5,1v-1.5l2.5-.5-.5-4,.5-2-2-3.5-1,1v2l-11.5,8.5-4-1-7.5-5.5-4-23.5,4-6.5-2-1,7.5-11.5"/>
      <path data-code="ROS-ROD" d="m52.25,102.25l3-3.85,1,1v1.5h2l7.5-2.15-.5-2.5,3-1-.5-2h1l1-3.5,5,7,3.5,1.5,3,3-1.5,1-.5,2.5,2,.5-.5,2.5.5,1,.5-1,1,.15-4,5.35,1.5,2.5-.5,1-1-.5-4,6-2-.5v3.5h-1l-1.5,3-2-1,1.5-1.5-3-2,3.5-4.5-1.5-1-3,4.5v-1.5l-4.5-2-.5-1,.5-3.5h1l.5-2h-6.5v-2h-1l.5-4-2.5-2.5.5-1.35-1.5-.65"/>
      <path data-code="ROS-ROS" d="m46.75,127.9l-.5.5,1,2.35,5.5-.5,2,1.5,1-1.5h3l2-3,1,.5-1.5,2,.5,1h-1l1,1,1-.5,1-3.5,2,3.5-2.5,4,1,1h-1l.5,1.5-3,1v1l-3.5.5-1.5-1.5-4-1v-2l-2-.5-3-3.85.45-3.7.55.2Z"/>
      <path data-code="ROS-SAL" d="m96.25,186.75l3.5-2-1-2.5,2.5-1,2.5,4,.5,4.5,3.5,4.5-.5,6.5-2,3-1.5,4,1.5,3.5-1.5,4v4l2.5,7,4.5,1,4.5,4.5-5,11.5,3,.5-.5,1.5-2.5,4-8-5-1.5,2.5-2-1.5-2,3,2,1.5-1,1.5-3-1.5-2,1-3-5.5v-2.5l-1.5.5v1l-2-1.5v1.5h-1.5l-.5-3.5-3.5-2,1-2,1.5,1,2-3,1.5,2,3-4.5-6.5-3.5h1.5l-5-3.5,1-2-5.3-3,6.8-8.85,1,.5,4.5-5.5h4l3.5-2,2.5-7.15h-5l3.5-10.5"/>
      <path data-code="ROS-SEM" d="m98.75,143.25h1l.5-1,1,1.5.5-1,1.5-.5v.5l1-1h2l.5-2,4.5-2-1,1.5,3.5,2.5,1,2.5,2,1,1-2,.5.5.5,1.5-1.5,1.5,2.5,2v3l1.5,1,1-1,1.5.5.5,2,1.5-.5,1.5,1-.5,2,3,1-1,1.5-1-.5-1,2h-2l.45,1.3-5.95-4.65h-1l-4.5,7h.5l-1.5,2.35.5.5-1.5,2.5-3,1.5-5-1-4,.5,4-4.5,1.5,1,2.5-3.5.5.5v-1.5l-2-1.5.5-1-7.5-5.5,1-1-4-3.5,1.5-2.5-.5-.5,1.5-4"/>
      <path data-code="ROS-SHA" d="m88.75,116.75l1.45,1.3.05-.8,2.5.5,1-1-.25-1.1-.25-.8h-2.5l3.5-1v-1.5l-2-1,1-.5,2,1.5v1.5l-1,.5.5,1,1-1,.55.4-1.55,2,3.5,2,.5-.5-1-1.5,1,.5.5.5-.5,1,3,3h-1.5l-1.5,1-1-1-2.5,2,1,1-1.5-1v-.5l-2.5-.5.5-1-2.5-2,1-.5-1-.5,1-.5-3-.5.5-1"/>
      <path data-code="ROS-SHO" d="m204.75,36.75l1-.5.5-1.5,4.5,2.5,3.5-.5,5.5-9,1.5,1,5-7-2-1.5,1.5-2.5,4.5,3.5,3,3.5v2l4,3.5-.5,4.5,1.5,2.5,1.5,9-.5,4.5-5.5,3.5-3.5,4h-1l-3,3.5-4-1.5-4,5-2,.5-2.5-4,2-3.5-1.5-1.5h-1.5l-1-5.5,1.5-1-5-5-2.5.5-.5-2.5-2-.5,1-4.5,1-1-.5-.5"/>
      <path data-code="ROS-SOV" d="m206.75,80.4l1,1.35,1.5-1,.5,1,1.5-1,1,1,1-2.5,5,4.5,6,2-.5,3h.5l-1.5,3-1.5-.5-.5,3.5,4.5,2.5.5,3.5,2.5,3,.5,2-1,1-7.5-4-3-3-2,3.5-1-.5-1.5,2.5-1.5-.5-1,1.5-2.5-.5-1-1.5,1-2-10-7,8.5-12.85-2.5-1.5,1-1.5,2,1Z"/>
      <path data-code="ROS-TAT" d="m144.75,107.25l1,1v-1l.5.5v-1l1-2,1,.5v-2l1,.5,1-2.5,1.5-.5,1,.5,3-.5v.5l.5-1,5-1v-1.35l4-1.45.5,2.95,3-1,2.5,9v1l-2.5,4h-1.5l-2,3h-2.5l-1,1.5-1.5-1v2l4,5.5-3,4,2,1.5-4,6-1-1-2.15,3.4-2.85-1.05-1,1-1-.5-1.5,2-5-2-2,3-3.5-2.5,1.5-2.5h-1l-.5-2-3.5-.5v-1h1.5l.5-1.5.5.5,1-2.5-1.5-.4.5-2.1-1-2,.5-2,2.5.5-.5-2.5-1.5-1,1.5-1v-.5l2.5.5,1-1.5-1.5-3.5,3-5"/>
      <path data-code="ROS-TAG" d="m27.25,111.75l2,1,.5-1,2.5,2.5-2.5,1.5-.5,2.5h-.5l-3.6-1.8-.9-1.2,1,.5v-2.5l-1,.5,1-1.5,2-.5Z"/>
      <path data-code="ROS-TAR" d="m109.75,54.75l5.5-3,.5-2.5,2.5-.5-.5-1,1.5-.5.5.5,4.5-3.5,4,7,6-1.5v3l5,1,2.5,2-2.5,2.5,2,3.5-.5.5,3,2h2.5l2.5-1.5,3,2-1,1,1,.5-.5,1.5,1.5,2,3,.5v1.5l1.5-1v-.5l4-1,.5,4.5,2.5.5,2,1.65-.5,1.35h-2l-.5,1.5v2.5l3.5,2v1.5l2.5,3.15-7,2.85-1-2-2,.5-1-1-2.5,2-2-1.5-4.5,1-1.5-2,2.5-2.5-3-2.5h-2.5l-3-5-1.5.5-1.5-1,1.5-3-.5-2-1-1-.5,1h-1.5l-2.5-1.5-.5.5-1.5-2-1,.5-1.5-1-1,.5-1-1.5,1.5-1.5-3.5-2-1.5.5.5.5-1,1.5,1.5,1.5-2,1.5-3-2.5-.5,1-3.5-2.5-3-.5,1.5-3.5v-2l-5-3.5v-1.5"/>
      <path data-code="ROS-UST-DON" d="m92.25,134.25l1.5-1.5,7.5,4,1-2,1,.5,2.5-3,3.5-.5v-.5l1.5-2.5h1l.5-3,3-3-1.5-1.5,1.05-1.05,2.95,1.7,2,4,1,.5,1.5-1.5,2-1,2.5,1.5,3.25.6-.75,1.4,1,2-2.5,1,.5,2.85-2,2h-1l-.5,1h2.5l-3.5,3.5-1.5.5v-1l-1.5-1v-2.5l-2,1,.5,2.5-.5.5-4,.5-1,1.5-3.5-2.5,1-1.5-4.5,2-.5,2h-2l-1,1v-.5l-1.5.5-.5,1-1-1.5-.5,1h-1l-.65,1.75-1.35-1.25-.5,1h-.5l-2-2.5-2,.5v-2h-1.5l-.5-3,2.5-3.5"/>
      <path data-code="ROS-VER" d="m184.75,19.25l2-2.5,3.5,2.5,2-1.5,4,3,7-3.5h1.5l2.5-3.5,4.5-3.5,6-1.5,4,2,3.5-2,2,.5,1-3-1.5-4,4-2,1.5,2-1.5,9,2.5,5-3,2.5v2.5l-4.5-3.5-1.5,2.5,2,1.5-5,7-1.5-1-5.5,9-3.5.5-4.5-2.5-.5,1.5-1,.5.5.5-1,1-.7,3.15h-3.8v1l-4.5.5v2.5h-1.5l-1.4-1.35.4-3.3-5.5-3.5v-1l2-2.5-2.5-2,2-2-6-5h1l1.5-2-1-1,.5-2v-.5"/>
      <path data-code="ROS-VES" d="m84.25,155.9l2,.5,3-4,1.5,1,1-1,5,3.5,2-3.5,1.5,1.35-1,1,7.5,5.5-.5,1,2,1.5v1.5l-.5-.5-2.5,3.5-1.5-1-4,4.5h-3.5l3,8.5,2,2-2.5,1,1,2.5-3.5,2-4-7.5-.5-3-1,1.5-1-.5,2-1-3-2.5,1-1-3.5-2.5-2,3,2,2-.5,1-1-.5-.5,1.5-4-2.5,1-2h1l-1-1.5,2-2.5-2.5-1.5,1.5-2-2.45-2.2.95-1.65.5.5v-2l3-4Z"/>
      <path data-code="ROS-VOL" d="m155.25,171.9l2.5-1.5.5,1.5-1.5,2.5,1.5,1.5h6.5l2-.5,1.5,1.5-3,1.5-5,.35v1.5h1.5l-1.5,2-1.5-1-1,1.5-1.5-3-3.5-3,1.5-.5-1-1,2-1v-1l-2.25-1.85.75-.55,1.5,1.05Z"/>
      <path data-code="ROS-VOLM" d="m133.25,154.9l8,6.5h3.5l.5,1.5-1.5,1.5,1.5.5,1.5,1.5.5,3,3,1.5,1.5-.5,3.5,2.85v1l-2,1,1,1-1.5.5,3.5,3,1.5,3,1-1.5,1.5,1,1.5-2h-1.5v-1.5l1.65-.1-.65.6.5,1-1,1,1,3-1,1.5-3-2-.5,1-1-.5-1,2-2.5-1-1,2.5-2,1.5-.5-1.5.5-.5-1-1.5-1.5,1.5v-1.5l-2,.5.5-1.5-1,.5v-1.5l-1,1-1-2-2,1.5,1-2.5h-1.5l-.5,1h-1v-1.5h-.5l-.5,1,.5-1.5h1l-.5,1.5h1l.5-1.5-1.5-1,1-1,.5.5-.5-1,1.5-2.5-1.5-1-1,1-.5-.5-8.5-5-4.5-4.5.5-2-1-3h2l1-2,1,.5,1-1.5-3-1,.5-2,6,.15Z"/>
      <path data-code="ROS-ZAV" d="m168.25,246.75l2-3,3,1,2-3.35,2-.65,3-.5,2.5,2,13-20.5-2-1,1.5-1.5v-1l5.5-9,6,3,1,4,3-.5-1.5,8.5-3,5.5,5,4,2-4.5,4-3.5,7,3,4.5-8,2,2,.5-1,1.5,1-2.5,4.5,3,1.5-12.5,20.5-7.5,8.5-3.5,4.5-6.5,2-2-2-4.5,3h-5l-3.5-2,1-1-2-1,.5-1-7-4.5.5-1.5-13-7.5"/>
      <path data-code="ROS-ZER" d="m44.25,180.75l2-2.5,1,1.5,1.5-.5,2.5-4.5h2l-1-1,1-1.5,3,2,.5-1,.5.5.5-.5-1-1.5,2-3,1,1,2.5-3.5,1,2,3.5-4.85,4.5,3.5,2.5-3.5-3.5-2.5,1-1.5-1.5-1.5.5-1,.5.5,1.5-3.5,5.5,3.85,1,2-1,1.5,4.5,4-1.5,2,2.5,1.5-2,2.5,1,1.5-2,2,4,2.5.5-1.5,1,.5.5-1-2-2,2-3,3.5,2.5-1,1,3,2.5-2,1,1,.5,1-1.5.5,3,4,7.5-.5,1.5-4.5-1,.5-2-2.5-.5v-.5l-1-.5-1.5,2-3-2-1,3,2.5.5-.5,2-2-.5v1.5l-4-1,1-2h-3.5l-2.35,8.65-2.65-1.65,1.5-2-1-.5,1-2-2.5-2-.5,1.5-3-1.5-.5-1.5.5-.5-3-2h-1.5l-1.5,3-2.5-2-1,.5-1,2.5,1.5,2-2,2.5.5.5-2,3-1.5.5-.5,1-4.5-3.5h-2.5l3-6-6-3.5,2-3.5"/>
      <path data-code="ROS-ZIM" d="m147.25,187.25l1.5-1.5,1,1.5-.5.5.5,1.5,2-1.5,1-2.5,2.5,1,1-2,1,.5.5-1,3,2,1-1.5,3,2.5-.5,1h-.5l-2,3.5,1.5,1.5h.5v-1.85l1,2h2l-1,1.5h1l.5,1.5,1.5.5v2.5l-2.5,1,2,2.5-1,1.85-.5-.5-1,1.5,1,3-1,.5,7,4.5,1.5-2,9.5,6-10,16-6-3.5-1,2.5-1-.5-3.5,3,7.5,5-.5,1,4.65,2.9-.65,1.1-3-1-7.5,12.5-2-1.5-.5,1-6.5-5.5,2.5-3.5-3-1.5,2-3-1.5-.5-2.75,4.25-4.75-3.25.5-1-1-.5,3-4.5-4-2.5,1.5-2-1.5-2-3,.5v-3.5l-4.5-.5-.5-5.5.5-1h2.5v-4l4-.5v-9.5l1-.5v-4.5h-4v2l-2-.5-2-1,.5-1-2.5-2,.5-1-1.55-1.7,2.55-3.8,1,.5,2.5-4.5,6,3,1-1.5-1-.5,1.5-2Z"/>
      <path data-code="ROS-ZVE" d="m104.75,98.4v-1l3,.5-2,3.5-2.5-2v1h-1.5l1.5-2v-1.5l1.5,1.5Z"/>
</svg>