<svg data-code="RU-SAK" xmlns="http://www.w3.org/2000/svg" viewBox="0 0 617.75 693.39">
    <g data-code="sakhalinskaja_oblast_" data-title="sakhalinskaja_oblast&amp;apos;">
      <path data-code="aleksandrovsk-sakhalinskij_rajon" data-title="aleksandrovsk-sakhalinskij rajon" class="cls-1" d="M61.63,267.76l2.5.5,2-1.5,1.5,1,5.5-5v-2.5l2.5-2.5,3-1.5,3,.5,2-2-1-.5.5-1.5,2-.5,1,1.5-.5,1,1.5,1,2,2.5v.5l2,1,1.5,1.5v2l1.5,1.5.5,1.5,1,1,2,3.5,3,2,2,4,.5,1,2,2.5,1,3,1.5.5,2,2-.5,3.5,2.5,4.5,1.5,5,2.5,2-.5,1,3,7.5,4,5,.5,3.5-.5,1.5h-2l1.5,3-.5,3h1v1.5l2,3,.5,3,1.5,2,2-1.5.5,1,4,2,1,1.5,1,.5.5,1.5h2l-.5,1,2,1,.5,1,2.5,3.5,2.5,1,.5,2,2,1v2.5l-1,.5,1,1.5h-1.5l.5.5-.5,1-2.5,1.5,1.5,2h2l-3.5,2.5,1.5,1-.5.5-4.5,1.5-3-4.5-2-2v-1.5l-1.5-3.5-4-2.5-6-5.5-6-15-3-.5,2.5-1-1.5-1.5v-2.5l-1.5-2.5,1-3.5-.5-5.5-1.5-4.5-3.5-5-4.5-3-2.5-3,.5-.5-1.5-2-6-3-1.5-2v-1.5l-1.5-1.5-11-3.5-6-3.5-6.5-1.5h5l-.5-5-4.5-2.5h-6l-.5-4"/>
      <path data-code="anivskij_rajon" data-title="anivskij rajon" class="cls-1" d="M268.13,607.76l.5-1-.5-2,1-1.5-1-1,.5-2.5h-1.5v-3l-1-.5v-1.5l-2-3.5-6-5.5v-1.5l-1-.5,1-1h-1l-1.5-2v-1l-1-2v-2.5l-2-1.5.5-5-2-1-1.5-3,2.5-.5,5.5,1.5,1-1,5-6.5-.5-.5-1-3.5-1.5-1v-3l3.5-2,7,4.5,4,4.5,1.5.5,2,2.5-.5,1.5-2,.5,1.5,2.5-4.5,4-1.5,4.5v4.5l5,23.5,3.5,7.5,1,6.5,1.5,3-1.5,4.5,1.5,4.5-1.5-2-2-.5v-4.5l-5.5-5-1.5-3-4-4.5"/>
      <path data-code="dolinskij_rajon" data-title="dolinskij rajon" class="cls-1" d="M232.13,523.76v-3.5l1-.5v-1.5l1-.5v-2l-2-1v-3.5l2-1-3.5-2.5v-2.5l-2,.5-3-2.5v-1l-.5-1.5-2,.5.5-8,2-.5,2.5,1v-2.5l2.5,6,2,2,2,4,8.5,9,11,7,11.5,2,3.5,3.5,3,1v.5l5.5,7-2-.5-4.5,2-1-1.5h-5l-.5,2-.5.5-1.5-1.5-.5,1.5-3,2.5-.5,2.5-1,.5-1-1.5-1-.5-2,3-2-.5-.5-1-1.5,1.5-1-1-.5-1.5-4.5-1.5-.5-1,.5-.5v-2l-1-.5v-.5l-1.5-.5-1-3v-1l-4.5-2-.5-1-.5-2.5h-2.5"/>
      <path data-code="gorod_juzhno-sakhalinsk" data-title="gorod juzhno-sakhalinsk" class="cls-1" d="M253.63,543.26v-1l1.5-2.5h1.5l1,1.5,1-.5v-2l3.5-3,.5-1.5,1.5,1.5,1-2.5h5l1,.5-1,1,.5,1.5,2.5,3.5.5,4.5,1.5,1,.5,1.5.5-1,1.5,1.5,2.5-2,1,3h1.5v2l2.5,1.5-1.5,1-.5,1,1.5,1-.5.5-.5-.5h-1v-1l-1.5,1v-2l-1.5-1.5,1,2.5v3.5l-2,3-2-2.5-1.5-.5-4.5-5-6.5-4-3,1.5-.5-1-1.5-.5-.5-2.5-2.5-2.5-1.5,1-1-1"/>
      <path data-code="juzhno-kuril_skij_rajon" data-title="juzhno-kuril&amp;apos;skij_rajon" class="cls-1" d="M497.63,684.76l-1-.5-1.5-4-4,3-2-1.5-.5-1.5-3-2.5,1-2.5-1-3.5,3-5.5-.5-1.5,1.5-4.5-.5-1,1.5-3-1.5-3,.5-7-.5-5.5,1-3,.5-3.5-2-4,.5-3-.5-5,1.5-4,3.5,1,1.5,1,5.5-.5,6-4.5,1.5-3,1,5.5-.5,2.5h-3l-1,2,.5,3-1,4.5-7,5-.5,3.5,1.5,3-3.5,4,.5,7,1,2,1,.5h-1.5l-1,1.5,2,6-4,4.5-1,4.5,6,13.5M540.63,639.76h3l1.5,2-.5,1-1.5,1,.5,1-.5,1-1,1,1,2h-1.5l-3,6.5-2-1.5-1.5.5-.5-2-2-2,.5-1,3.5-3.5.5-4,1.5-2h2M529.63,667.76h-.5l-2,1,1-1-.5-1.5h2l1,1-1,.5M534.13,669.26v-.5h.5v.5h-.5M520.13,690.26h-.5l-.5-1.5h-2l3.5-2v1l1.5.5-2,2M527.63,684.26v1.5l-2,2v-2l1.5-.5-.5-1.5,1,.5M530.63,684.76v-2,2M528.13,678.26h1v1l-2,3-2-1.5-2.5-.5,2-3.5,3-1,.5,2.5M521.13,692.26v.5-.5M525.63,690.76v-.5l1-.5v1.5l-1-.5"/>
      <path data-code="kholmskij_rajon__sakhalinskaja_oblast_" data-title="kholmskij_rajon_(sakhalinskaja_oblast&amp;apos;)" class="cls-1" d="M219.63,525.76l1.5-.5,8,5,2-1,1.5-2.5-1-1,.5-.5-1.5-.5-.5-1.5,4.5.5.5,2.5.5,1,5,2-.5,1,1,3,1.5.5v.5l1,.5v2l-.5.5.5,1,4.5,1.5.5,1.5,1,1,2-1.5v1l2,.5.5,1.5,2-.5,2.5,2.5.5,2.5,1.5.5v4.5l1.5,1,1,3.5.5.5-5.5,7.5-6-1.5-2.5.5,3.5,5-2,.5-3,3.5-2.5-.5-.5-5-4-13.5-3.5-5-7-4.5-.5-3-1.5-.5-1.5-2.5-.5-2-1-.5v-1.5l-3-3.5-3-6"/>
      <path data-code="korsakovskij_rajon__sakhalinskaja_oblast_" data-title="korsakovskij_rajon_(sakhalinskaja_oblast&amp;apos;)" class="cls-1" d="M276.13,562.76l2-1,1-3,1-.5.5-4.5-1-2.5,1.5,1.5v2l1.5-1v1h1l.5.5.5-.5-1.5-1,2-2.5-1,.5-1.5-1.5v-2h-1.5l-1-3-2.5,2-1.5-1.5-.5,1-.5-1.5-1.5-1-.5-4.5-2.5-3.5-.5-1.5,5.5-2,2,.5.5,3,6.5,5,1.5,1.5.5,2,6,2h7.5l3-2.5-1.5-3,2.5.5,5.5,6,1,3,2.5,2,.5,2,2,1.5,3,5,3,2,.5,1.5,3.5,1-1,3,1.5,2.5-1,2,1.5,4-.5,3.5,3.5,5-.5,3.5,1,2.5-2-4-1.5-.5v-1.5l-2.5-5.5-10.5-10-2-4-3-2-5-2h-4.5l-2.5,2-7.5,2-4,4-6-7-1-.5-.5,1.5-1.5-1.5"/>
      <path data-code="kuril_skij_rajon" data-title="kuril&amp;apos;skij_rajon" class="cls-1" d="M611.63,347.76l-2.5,1-4-2v-1.5l5-3.5-1.5-6.5,2.5-6.5-1-1.5.5-3.5-1-8,3.5-1.5,1,2.5-1.5,6,2,4.5-1.5,2,1,6-2.5,6v6.5M575.63,377.26l.5,1.5-2-.5v-1h1.5M588.63,387.76h-1.5l-.5-2.5,1-1,1-.5h.5l-1,.5,1.5,1.5-1,2M587.13,391.26v-1.5l1-.5,2,1.5-1.5,1-1.5-.5M576.63,474.26l-5,3,1-3.5-1-3-1-.5,1.5-3-1.5-11v-1.5l3-1.5,1.5-2v-4l-1-5.5,1.5-5-.5-2.5h-1,1l1-3.5,2.5-1.5,1-2-1-2.5-1.5-.5.5-3,2-2v-2l3-2.5h3l1-1.5-.5-.5h1.5l1-2.5,1.5-1-2.5,4.5-3,17.5.5,4.5,1.5,1-1,2.5.5,2-1.5,3,.5,3-3.5,2.5v2l.5.5-1,1.5-1.5,14-2.5,3.5.5,1-1,1v1M570.63,471.76v.5-.5M523.63,604.76l-2,1-2.5-.5-1-4,1-3.5-2.5-2-1-3,2,2,2,.5v-3l-1-2-1.5-.5,4-1,1-6.5-2-3-3,1-2.5-2,1-1.5,3,.5,1.5-1.5-1-4.5,2.5-5.5.5-5.5,1-2-1.5-5.5-1.5-1.5h-1.5v-.5l3-1,1,1,3-1.5,1-2-2-2.5-.5-4,4-5-.5-2.5h-1l-1-2-3.5-3.5-.5-5,.5-1h2l3,3,2,1,2,2.5,1.5.5,6-3,5-6,1.5-6v-2.5l-1-.5v-2l1-4-.5-2.5,1.5-1.5-.5-3,3-3.5,3.5-1.5,3.5.5,1,2-1,4,4,1.5,1,4.5-2,2h-2l-4,3-1.5,3-.5,5h-1l-1.5,3.5-3,3.5-.5,3-3.5,8.5v9l-1.5,4.5-2.5,1-1.5,2.5-3-.5-1.5-1.5-2,2.5.5,4.5h2l.5,8-1.5,1.5v2.5l-2,3-1,5.5v5.5l1.5,1.5-1,.5v3.5l-4,2.5-1,2,.5,10"/>
      <path data-code="makarovskij_rajon" data-title="makarovskij rajon" class="cls-1" d="M213.13,479.76l.5-4-2-.5,1-.5-1-3.5-2-1.5,1-1.5-1-2,.5-1.5-1.5-2,.5-1.5-2-3.5-2.5-2-3.5-5-.5-2-3-5v-3.5h-1l-3-5.5.5-3-1.5-1.5,2.5-2,1.5,1,.5-1-.5,2.5h1l2,2.5,1.5-.5,1.5,1,1.5-1.5,1,.5,3-5.5,4.5-2,.5,1.5,1.5,15,2,10.5,5,16.5.5,3,3,11.5,3,6-.5,2.5,1,1-.5,1-3.5-1.5-.5-1-1.5-1,.5-2.5-1.5-2.5-1,1-6-6.5h-1.5"/>
      <path data-code="nevel_skij_rajon__sakhalinskaja_oblast_" data-title="nevel&amp;apos;skij_rajon_(sakhalinskaja_oblast&amp;apos;)" class="cls-1" d="M245.62,573.63l2.5.5,3-3.5,2-1-.5,4,2,2-.5,2,1.5,2v1l1.5,2.5h.5l-.5.5,1,1v1l6,5.5,2,4v1l1,1v3h1.5l-.5,2,1,1.5-1,1,.5,2.5-.5,1,4,4.5,1,2.5,6,5v5h1.5l2.5,4-11-6-1.5-3.5-4-4.5,1-2.5-1-.5-1.5.5-6.5-8.5-7.5-8.5-.5-2.5-2-1.5.5-2.5-1.5-4v-2l-2-9.5"/>
      <path data-code="noglikskij_rajon" data-title="noglikskij rajon" class="cls-1" d="M55.12,211.62l.5-2,3,1.5,2.5-1,.5-3,3.5.5,2.5-1.5,1-3h1v-.5l1.5.5,1.5-2,4.5,1,2,3.5,1.5.5,1-.5-.5-.5,4-1,2-3,3.5,1,3.5-2-1.5-7.5h-1l-.5-2-3-2v-1.5l-1-.5-1.5-3.5-3.5-4.5-1.5-3v-1.5h1l4,5.5,2,1,.5,2,8,14.5,3,7.5,2,13.5,4.5,9,6.5,8-.5,4.5,2.5.5.5,2h1.5l1.5,1.5-.5-1.5,1-.5-5.5-5.5h.5l15.5,14,9.5,9.5,7.5,10,6.5,6,19,22h-3l-.5,3,1.5,2.5-1.5-.5-2,1.5h-2l-1.5,2.5.5,1h-2l-2.5,2h-1.5l-1.5-4.5-1.5-1.5-1,2-2.5-1-2-3v-1l-2-2-2.5-.5-2-2-1,.5-4-2.5-2-3.5-6.5-7.5-3.5-1.5-7-5-3,.5.5-1.5-1-1.5-3.5-1-2.5,3,.5,3h-1.5v2l-2-.5-2-2.5-.5-1-2-4-3-2-2-4-1-.5-.5-2.5-2-1.5v-1.5l-3-2v-1l-2-2-2-1,1-1-2.5-3v-1l-4.5-3,2-2-1-1-2-.5-1.5-2.5-1.5-.5.5-1-2-3h-2l-1-2.5-2.5-1v-1.5l-1.5-1.5,1.5-1.5-1-2-.5-.5-1.5-3-2-1v-.5l-2-2.5.5-1-2-2v-1l-3.5-2-1-1.5"/>
      <path data-code="okhinskij_rajon" data-title="okhinskij rajon" class="cls-1" d="M87.62,180.62h-1l-1-1-4-5.5h-1v1.5l1.5,3,3.5,4.5,1.5,3.5h1v2l3,2,.5,2h1l1.5,7.5-3.5,2-3.5-1-2,3-4,1,.5.5-1,.5-1.5-.5-2-3.5-4.5-1-1.5,2-1.5-.5v.5h-1l-1,3-2.5,1.5-3.5-.5-.5,3-2.5,1-3-1-.5,1.5,1,1.5,3.5,2v1l2,2-.5,1,2,2.5v.5l2,1,1.5,3,1,1,.5,1.5-1.5,1.5,1.5,1.5v1.5l2.5,1,1,2.5h2l2,3-.5,1,1.5.5,1.5,2.5,2,.5,1,1-2,2,4.5,3v1l.5,1-1.5,2v.5l1,.5-1,1-2,1-2-1-3,2-2.5,2.5v2l-5.5,5.5-1.5-1-2,1h-2.5l-2-3.5-4-4.5-1-1.5,1-2.5-1-2.5-3.5-3-.5-3-3.5-3-1.5-4.5,1.5-5-1.5-9-.5-1.5-1,.5-1-4h-1l-.5-3.5-1.5-.5-.5-4-4-7v-3l-1-2-1.5-5-1-.5-.5-1.5-5.5-3.5-2-3-3.5-3-2-5-3-1.5.5-3-2,2.5v1l-1-.5,1.5-3,2.5-1.5,7-12,2.5-3h1l-2,1.5,2,1,2.5,5,1.5,2,2,.5,1.5-.5v-2l2.5-.5,1-4-.5-8,3-1.5-1-1.5-1,.5-4.5-2v1.5l1,1-.5,1.5-5-6,3.5-3.5-2-1.5-1-10-3-6.5-15-6.5-5.5-5-6.5-2.5,5-.5,4-4,2.5-5.5v-1.5l-2-2.5,1-1.5h1l1,1.5,2,1,4,4,10.5,5.5,3,3.5,1,3-1,4,.5,2,5,7.5,28.5,26.5,7,7.5,14,18.5"/>
      <path data-code="poronajskij_rajon" data-title="poronajskij rajon" class="cls-1" d="M186.12,421.62l-.5-2.5h-1l.5-1.5-1-1.5,1-1-1.5-2v-1l-2-3h1l.5-1.5h-1.5l-.5-2.5-2-.5v-1l-1-1v-1l-1.5-1.5.5-1,2,.5,1-1,5-2v-3.5l10.5-5.5.5-1-1-1.5h-1l.5-1.5-5.5-2-3-4,18.5-12.5,2-11.5-.5-1,1.5-.5-1-4,.5-2.5,3-1,1.5-4,13,11,1,3,3.5,4.5,8,4.5v2l2,3,8.5,9.5,11,9v1l18,4.5.5,2.5,3,2-.5,1.5,1,2.5,3,2.5,2.5.5-1.5.5-1,1.5-1-2-2-1.5-2.5-4.5-10-6-7-2.5h-3.5l-13.5-6.5h-7l-16.5,5-7,5.5-4.5,5.5-3,7-1,7.5,2,6,1.5,2,2,.5,1.5,3-4.5,2-.5,1-1.5,3v2h-6l-2-2h-1l.5-2.5-4,1-2-3-1.5-.5.5-1-4-3.5"/>
      <path data-code="severo-kuril_skij_rajon" data-title="severo-kuril&amp;apos;skij_rajon" class="cls-1" d="M579.12,180.12l.5,1-1.5.5v-1l1-.5M598.12,170.12l-.5,2-2,1-2-1,1-2.5,2.5-.5,1,1M573.12,24.62l-4.5,3.5-2.5-.5-3-2-.5-2,1.5-2,4.5-2,4.5,4v1M604.12,15.12l.5,1-4.5,3-4.5-.5-2-1,.5-1.5-2-3,1.5-1.5.5-6.5,2.5-4.5,2,1,1,2,2.5,2,1.5,5.5v3.5l.5.5M599.12,74.62v2l-1.5-2h-3l-3.5,3-1-1-2-5.5-2-3-3.5-1-1.5-1.5-.5-1,1.5-2.5,3-.5.5-2-1-2v-1.5l4-4v-2.5l1.5.5,1-1.5.5-6.5-1-3-1.5-1.5.5-3-3.5-6.5v-5l.5-5.5,4.5-2,2,2.5v1.5l1.5.5v1.5l3.5,1.5,1.5,3.5,2.5,2-2,5.5.5,2,1.5,2,1,7.5,1.5,4.5-1.5,2.5,1,3-5.5,4.5-1,3,1,1-1.5.5v4l2,6M577.62,76.12l-.5.5-1-.5.5-1.5h1.5l-.5,1.5M579.12,112.62l.5,2.5h-3l-2-3,1-2,1.5-.5,1,.5,1,2.5M607.12,134.62l-2.5,1-4-4-1-8-3-8.5.5-2.5-1.5-1.5,4.5-1.5v1.5l2.5,3.5-1,3,1,3,2.5,3,3.5,2.5,2,3.5-2,5h-1.5M608.12,149.62l-3.5-2-1-1.5,3-1.5,4,.5.5,2.5-1.5,2.5-1.5-.5M608.12,180.62l-1,2-2-.5-.5-2.5,2-3.5-2.5-4.5-1-1,2-3h2.5l1,3.5-1.5,6,1,3.5M609.12,195.62h.5-.5M609.62,197.62v-.5.5M610.62,239.12l-1.5,1.5-3.5-1-1.5-1.5.5-1.5h4l1,2,1,.5M609.12,237.12l.5-.5h.5v.5h-1M599.62,224.62l.5,1-1,.5-.5-1,1-.5M616.12,264.12l-1.5,2-1-.5-2-3.5.5-4,3,2.5,1,3.5M615.62,274.12h.5l.5.5h-.5l-.5-.5M615.62,281.12l.5-1v-2.5l1,3.5h-1.5M614.62,300.62l-2.5,2-3-3v-2l3-1.5,2.5,1.5v3"/>
      <path data-code="smirnykhovskij_rajon" data-title="smirnykhovskij rajon" class="cls-1" d="M139.12,365.12l4.5-1v-1l-1-1,3.5-2-2-.5-1.5-1.5,2.5-1.5.5-1-.5-1h1l-.5-1,1-.5v-3l-2.5-1v-1.5l1.5,1,2-2.5h1l1-3h7.5l2,1.5-.5-1.5v-1.5l2-2,4.5,1,1-2.5,3-3.5v-4.5l-1-4h-1l-.5-2,.5-.5-1-3.5-3.5-5,1.5-2-2-1.5-2-4h2.5l-.5-1,1.5-2.5h2l2-1.5,1.5.5-1.5-2.5,1-3.5,2.5.5,6,7.5v1.5l2.5,3.5,12,13,9.5,8,9,6.5,1.5,3-1.5,4-3,1-.5,2.5,1,4-1.5.5.5,1-2,11.5-18.5,12.5,3,4,5.5,2-.5,1.5h1l1,1.5-.5,1-9.5,5-1,1.5v2.5l-5,2-1,1h-1l-3-3-1,.5-2-2h-.5l-.5-2-4.5-5.5-6.5-.5-3.5-2.5-2.5,2.5h-3l-5-7-.5-2.5-1-1.5-1-.5.5-2-5-8.5"/>
      <path data-code="tomarinskij_rajon" data-title="tomarinskij rajon" class="cls-1" d="M185.62,467.63l1-1-1-3.5h2.5l-3.5-5.5,1-1.5,2,1,.5-1-1.5-2v-3l1.5-1.5,1,1,.5-1,4,3,2-.5,3.5-5.5,2,5,3.5,4.5,2.5,1.5,2,3.5-.5,2,1,2-.5,1,1.5,2.5-1,1.5,2,1.5.5,3.5-.5.5,2,.5-.5,4,1.5-.5,6,7,1-1,.5,1,1,1.5-1,2.5,2,.5.5,1.5-1.5,2.5v6h1.5l1,1.5-.5,1,3.5,2.5,2-.5v2.5l3.5,2-2,1.5v3l2,1.5v1.5l-1,1v1.5l-1,.5v3l-2-.5.5,1.5,1,1v.5l.5.5-1.5,3-1.5,1-8-5.5-1.5,1v-4l-1-2.5-.5-5-2-6,1-6-.5-3.5-3-3.5-10-15-6.5-5.5-11.5-7.5"/>
      <path data-code="tymovskij_rajon" data-title="tymovskij rajon" class="cls-1" d="M124.62,333.12l-.5-3.5-2-2.5v-1.5l-1-.5.5-2.5-1.5-3,2-.5.5-1-1-3.5-3.5-5.5-3.5-7.5,1-1-2.5-1.5-1.5-5-3-4.5,1-3.5-2-2.5h-1.5l-1-3,2,.5v-2h1.5l-.5-3,2.5-3,4,1.5.5,1-.5,1.5,3-.5,7,5,3.5,1.5,10,12,2.5,1.5,1-.5,2,2,2.5.5,2,2v1l2,3,2.5,1,1-2,1.5,1.5,1.5,4.5,3.5-2,2,4,2,1.5-1.5,2,3.5,5,1,3.5-.5.5.5,2h1l1,4v3l-3,5-1,2.5-4.5-1-2,2v1.5l.5,1.5-2-1.5h-7.5l-1,3h-1l-2.5,2.5-3.5-2-3-3.5v-1.5l-2-.5.5-1h-2l-.5-1.5-1-.5-1-1.5-4.5-2v-1l-2.5,1-1-1.5"/>
      <path data-code="uglegorskij_rajon" data-title="uglegorskij rajon" class="cls-1" d="M151.12,387.12h3l2.5-2.5,3.5,2.5,7,1,4,5,.5,2,5,3v2l1.5,1.5v1l1,1v1l2,.5.5,2.5h1.5l-.5,1.5h-1l2,3v1l1.5,2-1,1,1,1.5-.5,1.5h1l.5,2.5,4,3.5-.5,1,1.5.5,2,3-.5,1,1.5,2-.5,2.5,3,5.5h1v3.5l1.5,2.5-3.5,5.5-2,.5-4-3-.5,1-1-1-1.5,1.5v3l1.5,2-.5,1-2-1-1,1.5,3.5,5.5h-2.5l1,3.5-1,1-5.5-4.5-4-5.5-.5-3.5,1.5-5-2-2.5.5-2.5-1.5-3.5-2-6-2-3.5.5-1.5-1-4-2-2-3-5-2-6,.5-2-2-4.5-8.5-17-1.5-2"/>
    </g>
</svg>