<svg xmlns="http://www.w3.org/2000/svg" viewBox="0 0 168 134.35">
      <path data-code="RYA-CHU" d="m99.25,85.6l.5-1.5,3,1.5,1.5-4.5,2-.5v-.5l2,1,1.5-3.5h1.5v-1l1,.5,1.5-1.5,3.6,1.65-.6,1.35-2,1.5,1,2.15h1v2.5l-1.5,2.5,1.5,1-.5,2.5,2,2-.5,1-1,.5-.5,1.5-5.5,1v1l-1-1.15-2,1-1,1.5-1-.5-.5,1.5v-1l-1.5.5,1-1-1-.5-1.5,2-2-1-.5.5-.5,1.5-1.5-.5,1-4-1-3.5,1-1-2,.5v-1l1-.5-1-1,1-1.5-1.5-1.5,3-1.5Z"/>
      <path data-code="RYA-ERM" d="m139.25,66.25l3.5,1,1-5,9.3-.25,4.7,3.75,1.5-.5,6,1.5,2-.5.5,2-.5,1-2.5,1-.5,4-4,1.5.5.5-1.5,2v-1.5h-1.5l-.5,1.5,1.5.5-2.5,1v2h-1l.5,1.5-1.5,1.5v1l-3-1.5-.5,1h-4.5l-2.5,2-.5-.5.5-1-1.5.5-3-2.5h-1.5l-1.5,1.5v-1.5l1-1v-2.5l-1,1v-1l1.5-.15-.5-.5.5-.5-.5-2h1v-2l-.5-1,2-1.5-1.65-2.5,1.65-.35.5-2-1-1.5m18.5,13.5l1.5,1.5-.5,2.5-1.5-1,.5-3"/>
      <path data-code="RYA-RYA" d="m64.75,28.1l.4-1.5h.7l1.9,1.5v2.5l2,.5v1h-1.5l2,1.5,4-3,.5-1,.5-1h-1l-.5-2.5h2.5l1.5-.5,1,2h-1.5l-1,1.5-1-.5-.5,2-1,1-3,2h-1l-1,.5,1,3.5-2.5,2.5-.5-1-2,1.5-1.5-1.5v-3.5h-.5v1l-1-.5h.5l.5-.5v-3.5h.5l1-1-3-2,3.5-1Z"/>
      <path data-code="RYA-KAD" d="m135.75,82.25l1.5-.5v1l-1,1v1.5l1.5-1.5h1.5l3,2.5,1.5-.5-.5,1,.5.5,2.5-2h4.5l.5-1,3,1.5,1-1v2h1.5v2.5h1l2-1-.5,1,1,1-.5,1-2.5,1.5,1,1-1.5,1,1,3.5-3-1,.5.5h-1.5l-1,4-.5-.5.5-1-1.5-.5-1,1.5-2.5,1.5v1h2l-1,1,.5,2-1,2-3.5-2-3.5,2.5.15-.7-.65-1.95-2.5-1,1.5-1-.5-.5-2.5-1,2.5-3.5.5-.5v-1l1-2-.5-2-2.5-1.5.5-1.5h-2l.5-.5h-.5v-1l2,.5-1.5-1,1-1h-.5l.5-1.5-1,1.5-2,.5.5-1-.5-1,1-.5-1-1,1.5-.35-.5-2.5"/>
      <path data-code="RYA-KAS" d="m130.75,47.75l3.5,1.5-2,2-1.5,1-.5-3-2,2,.5-3,2-.5Z"/>
      <path data-code="RYA-KASM" d="m128.25,51.25l2-2,.5,3,1.5-1,2-2-3.5-1.5-2,.5-.5,3Zm-22-11l4,2.5h1.5l-.5-2,.5-.5,3,1.5,2-2.5,3,2,1-1.5-.5-.5,1-1-2.5-2.5,2-1.5h-1l5.5.5.5.5,1-1,2,1,.5-1.5-1,.5,2-2.5.5-3,1-1,.5.5h2.5l4.5,2.5-.5,3,1.5,3v2l-.5.5,3-.5,2,.5-.5,2.5,2,1v1l-1,.5.5,1h2.5l2,1.5-.5,2-.5-.5-.5,2.5,1.5.5-.5,1.5,6,.5-2,2v1.5l-1,1-.5,1.5.8,2.75-9.3.25-1,5-3.5-1,1,1.5-.5,2-1.65.35-2.35-3.5-5,.5v1.5l-1,.5v-2.5l-1-1-2.5,2-2,.5-2.5,3.15-1.45.4,1.45-4.05-1.5-1,.5-1-2-1.5.5-.5v-1h-1.5l-1-2,4-5.5-1.5-5h.5l-1.5-.5-.5,2.5-1-1-1,1-.5,2.5-1.5,1v-2.85l-1,.5-.5-2.65h2l-2-2-5-.5-4.5-3.9,3.5-3.95Z"/>
      <path data-code="RYA-KLE" d="m85.75,4.75l5-2.5h1.5l4.5,1.5,1.5,1-.5,1,3-1.5,4.5,1,2.5-2,1,.5V1.75h1l.5-1.5.5.5.5.5-1,1h2.5l-.5,2,3,.5-2.5,1-.5,2.5h2l1.5,1,4-1.5,2,2-3.5,1.5.5,2-1.5,1,1,2-2,2,4.5,1-1,1,1,.5,2-1,2,1v1.5l2.5.5,1.5-2.5,3,2.5-1,1,1,3.5-1.5,1.5v3l-2,2.5,1-.5v1.5l-2.5-1-1,1-.5-.5h-2.5l-2-.5h-1,1l-2,1.5,2.5,2.5-1,1,.5.5-1,1.5-3-2-2,2.5-3-1.5-.5.5.5,2h-1.5l-4-2.5-3.5,3.95-3-2.6,2.5-2.5-3-4.5-1.25.85-2.25-3.7-3.5.5-1-2.15-2.5-.5-1-5.5,1-.35-1.5-.05-1.5-4.6,1.5-1.5-3-4.35,6-5-1-1,.5-1.5-.5-.5-1.5,1-2-1.5"/>
      <path data-code="RYA-KOR" d="m39.25,71.6l2.5-1,4,1.5,1-1-.5-.5,1.5-1,4.5-1,5,2-.5,1h-.5v.5l1.5,1.5,1-1,4.5,1v1.15h2.5l-.5-1,2,1.35v5.65l-1.5.5-.5,1-2,1v-1.15l-1,.5-.5.5-2,1.15,2.5,2.35-1.5-.85-1,1.5-2-1-2,3-.5-2-1.5,2-3-1.15h-3.5v-3l-1.5.5v1l-3-1-.5,1-1.5-2.5-6.5-5,3.5-3,.9-5.15.6.65Z"/>
      <path data-code="RYA-MIK" d="m19.25,31.75l2,.5-.5-.5,1-.5v-.5l2.5-3,2.5.5.5-1,1.5,1,1-.5.5,2,.5-1,2.65.05,1.35,1.3,1-1,1.5,6-1.5.5,1.5,4.15v1h-.5l2.5,1.5-.5,1.5,1.5.5v4l1.5.85-1,.65h-1.5l.5,1.5-2.5.85.5,2-.5,1-2-1-1,1,1,.5-2,2-1-.5-.5,1-5.5,4,.4,1.7-.9,1.3-2.5-1.5.5-3-5-2.35-1,1-3-3-1-2-2.5-1v-2.5l2.5-2.5-.5-1.5-1,.5v1l-.5.5-1.5-.5v-1l2.5-.5.5-1v-1.5l-1-.5,1-2.5,4,.5,1.5-1.5.5-3-2.5-1,2-.5.5-1,1-.5-1-2.5"/>
      <path data-code="RYA-MIL" d="m.75,72.25l2-.5.5-1.5,4,1.5,1.5-1,2,.5,3-1.5,1,2h2.5l.5,2.5,1.5-.5,1.5,1.5-2,2.35h-2v3l3-.5,1,1.5h1.5v1.5h1v1.65l1-1.5,2.5.5v2.5l-1.5,1v2l2-.5,1.5,1v1.5l-5.5,3h-4.5l-1.5-1v1.5l-1,1-1.5,2.5-2,1v-1.5l-1.5-1-1.5,1.5-.5-1-4-1v-1.5l-3-1-.5-1-.5,1-.5-2,1.5-2-1-1,1-.5,1-3.5-.5-.5,1.5-3-.5-2-3.5-1v-1.5l1.5-2-1.5-1.5.5-1"/>
      <path data-code="RYA-ALE" d="m26.25,106.1l1.5-.5,1.5-2.5h.45l3.05-1.5,1.5,1.5-1,1.5.5.5,2.5-2.5,3.5,3.5.5-1,1.5-.5,1.5,1,3.5-.5,1,1.15v3.35l1.5-.5,1,3.5-2,2.5h4l1.25,1.7-2.25,1.3-1-1h-2l-1.5,1.5-3-.5,1-2.5-.5-1.5-1,1.5h-1l-2.5,5-.5-.5-3,1.5-1.5-4-2,2-.5-1.5-2,2-1.5-.5,2-2.5v-1.5l-1.5.5v-1l.5-.5h1v-.5l-3-1.5.5-1.5-1.5-1,1-2-1.5-2"/>
      <path data-code="RYA-PIT" d="m121.75,71.25l2.5-3.15,2-.5,2.5-2,1,1v2.5l1-.5v-1.5l5-.5,4,6-2,1.5.5,1v2h-1l.5,2-.5.5.5.5-1.5.15v1l1-1v1.5l-1.5.5.5,2.5-1.5.35,1,1-1,.5.5,1-3.5-2-.5,2.5-5-.5-2.5-3.5h-.5v.5l-2-1-.5,1.5h-1.5l-2-3.5-.5.65h-1l-1-2.15,2-1.5,2.9-6.75,2.1-.6Z"/>
      <path data-code="RYA-PRO" d="m26.25,62.1l5.5-4,.5-1,1,.5,2-2-1-.5,1-1,2,1,.5-1-.5-2,2.5-.85-.5-1.5h1.5l2.5-1.65,3,1,.5-.5,3-.5v-2.5l1.5-1-1-1.5,2.5-2,.5,1-1,1,3.2,1.25-.2.75-1,.5,2.5,2.5-2.5,2-1.5-.5v2.5l-3,.5.5,2h-2l-.5,1h1.5l-1,1,1,2-1,1,1.5.5-1,1,.5,4,2,.5,1,3-4.5,1-1.5,1,.5.5-1,1-4-1.5-2.5,1-4.5-5-1,1-1-.5v.5l-2.5-2,1-1-1-2-2.5-.5-1.1,1.7-.4-1.7"/>
      <path data-code="RYA-PUT" d="m76.25,82.6l1,.5,1.5-1.5h2.5l.5-1,3.5,1,1,2,1-1,2.5,1.5,6-1.5.5,4.5,1.5,1.5-1,1.5,1,1-1,.5v1l2-.5-1,1,1,3.5-1,4,1.5.5.5-1.5.5-.5,2,1,.45-.6.05,1.1-2,1.5.5,2-1,.5-.5-1.5-2,1h-.5l-.5,1-.5-.5-.5,1-3.5-.5-1.5-1,1.5-1-2-.5-.75,2.35-6.25-2.35,3-4.5h-4.5v-3l-1,2h-2.5l1-.5-.5-.5,1.5-.5,3-3h1v-1.5l-4.5-1.5-1-1.5v-3l-1.5-1v2.5h-1.5l.5-1.5-.5-.5.5-2"/>
      <path data-code="RYA-RYAM" d="m50.25,30.6l2.5-1.5,1.5-1.5-.5-1,1-1,3.5,2.5,1.5-.5.5-1,1.5.5v-3h1.5l.5,2,1-.5v2.5l-3.5,1,3,2-1,1h-.5v3.5l-.5.5h-.5l1,.5v-1h.5v3.5l1.5,1.5,2-1.5.5,1,2.5-2.5-1-3.5,1-.5h1l3-2,1-1,.5-2,1,.5,1-1.5h1.5l-1-2-1.5.5h-2.5l.5,2.5h1l-1,2-4,3-2-1.5h1.5v-1l-2-.5v-2.5l-1.9-1.5h1.4v-1l1.5-1,1,1.5,2.5-2-.5,1,1.5-.5-.5,1h2.5l.5-2,1.5,1,1.5-2,3-.5,3,1.5,4,.15-1,.35,1,5.5,2.5.5,1,2.15,3.5-.5,2.25,3.7-3.25,2.15-.5,1-2.5.5-1.5-3-.5,1-2,.5,1,2h-.5l-.5,1-1.5,1v-.5l-1,2h-1l-3.5,3-1.5-.5-.5,1.5h-1l-2.5-1,1,4.5h-.5l-.5,1.5h-2l-1.5-1.5-1.5,1-6-3-.5,1.5-.5-.5-1.5,1.5.5,2-1,2.5-2-.5v-2.5l.5-.5-1.5-.5-2-3.1.5-.4-2.5-2.5,1-.5.5-2-1.5-2,.5-1.5-2.5-1-.5-2.5,1-1-3-1v-2l1-.5-.5-1"/>
      <path data-code="RYA-RZHM" d="m28.75,91.25v1.35l3.5-1.5,1.5.5,1-1.5h4l.5-1.5-1.5-2,3-2.5,1.5,2.5.5-1,3,1v-1l1.5-.5v3h3.5l2.2.85-1.7,1.65,1.5,4.5-1,1.5.5,1.5-2,2v2.5h-1l-1,1,.5,1-1,1.65-1-1.15-3.5.5-1.5-1-1.5.5-.5,1-3.5-3.5-2.5,2.5-.5-.5,1-1.5-1.5-1.5-4,2,.5-1-1-1.5,1-2h-1v-2l-2-.5-.5-2h1l-3.3-.5,5.3-2.85Z"/>
      <path data-code="RYA-RYB" d="m34.75,18.1l2-.5,1.5-2,1.5-1v1.5l3,.5-.5,2.5,2-1.5h1.5l1.5,1.5h1v1.5l2.5-1-.5,1.5,2.5,1,1.5-1.5-.5-1,1.5-2h1.5l2,2.5v-1l2-.5-1.5-1.5,6.5-2.5-.5-1.5,1-.5h4v-.5l.5-.5-.5-.5.5-.5,3-1,.5-1,3,1.5,2-1.5,4,4,1-1.5.5.5-.5,1.5,3,4.5-1.5,1.5,1.5,4.6-2.5-.1-3-1.5-3,.5-1.5,2-1.5-1-.5,2h-2.5l.5-1-1.5.5.5-1-2.5,2-1-1.5-1.5,1v1h-2.1l-.4,1.5v-2.5l-1,.5-.5-2h-1.5v3l-1.5-.5-.5,1-1.5.5-3.5-2.5-1,1,.5,1-1.5,1.5v-2l-2.5.5-.5-1.5h-3l-1,3,1,1-2.5,1-2-1v-4l1-.5-2.5-1v-3l-4.8-1.6-1.2-1.9"/>
      <path data-code="RYA-SAP" d="m61.75,83.1l.5-.5,1-.5v1l2-.85.5-1.15,1.5-.5v-4h1v-1l.5.5-.5,2,1.5-.5-.5,2.5,7,2.5-.5,2,.5.5-.5,1.5h1.5v-2.5l1.5,1v3l1,1.5,4.5,1.5v1.5h-1l-3,3-1.5.5.5.5-1,.5h2.5l1-2v3l2,1.5-2-1-2,.5,2.5,1-2-.5-.5,1h-2l-2,1.5-2-1.5-1.5,2.5-2-.5-.4.5-4.1-1.5,1-2-1-3-1.5-1-1.5,1.5-.5-.5v-1.5l1.5-1-2-4,.5-.5-.5-3h.5l-2.5-2.35,2-1.15Z"/>
      <path data-code="RYA-SAR" d="m56.25,114.1l4.5-5,1.5-3,2,.5,2-2,2,.5,2-2.5,2,.5,1.5-2.5,2,1.5,2-1.5h2l.5-1,2,.5-2.5-1,2-.5,2,1-2-1.5h4.5l-3,4.5,8,3-1,2,1,2-.5.5-1.5-.5,1,2-2,8-1.5-1.5-1,.5h-1l-10,13.5-3.5-1.5-1.5,2.5-2-1.5-1.5,2-2,.5-3-3,1-1,1-1.5-2-3.5-1.5-1.5-4,1.5,1.5-4-1-1,1-1.5-2-2,1-2.5"/>
      <path data-code="RYA-SAS" d="m119.25,85.1h1.5l.5-1.5,2,1v-.5h.5l2.5,3.5,5,.5.5-2.5,3.5,2-.5,1,2-.5.5-1,.5-.5-.5,1.5h.5l-1,1,1.5,1-2-.5v1h.5l-.5.5h2l-.5,1.5,2.5,1.5.5,2-1,2v1l-.5.5-2.5,3.5,2.5,1,.5.5-1.5,1,2.5,1,1,3-1,.5-3-.5-2,1.5-1.5-1-2,.5-3-4.5.5,3.5h-1v.5l-1,1,.5,1h-.5l.5,2,2.5,1.5,1-.5.5-1.5,2,.5-.5-1.5,2.5-1.5,1.5.5,1.5,7.5,1,.5,1,2-.5,3-2-4.5-2,.5-.5-.5-.5,1,.5,1-1,2.5-3-1.5v-2l1-1-4,.5-2.5-1.5.5-1,1,.5.5-1-3,.5-.5-1.5.5-2-1.5-1.5h1.5v-1l1,.5h.5l.5-1-3.5-.5v1h-4.5l-2-1.5.5-3-2.5-1,1-2.5-1-.5v-2.5l-3-1,.5-1-1-2.65,4-.75.5-1.5,1-.5.5-1-2-2,.5-2.5-1.5-1,1.5-2.5v-2.5l.5-.65,2,3.55Z"/>
      <path data-code="RYA-SHAM" d="m92.25,103.1l-1.5,1,1.5,1,3.5.5.5-1,.5.5.5-1h.5l2-1,.5,1.5,1-.5-.5-2,2-1.5-.05-1.1,1.05-1.4,1,.5-1,1,1.5-.5v1l.5-1.5,1,.5,1-1.5,2-1,1,1.15v-1l1.5-.25,1,2.65-.5,1,3,1v2.5l1,.5-1,2.5,2.5,1-.5,3,2,1.5h4.5v-1l3.5.5-.5,1h-.5l-1-.5v1h-1.5l1.5,1.5-.5,2,1,5-.5,2.5,2.5,3-2.5,3.5h-2.5l-3.5,3-5-1.5-1,1-2-2-.5,1.5-3-2v-1.5h-2.5l-3-3.5-2.5-.5-3.5-2.5-3.5.5.5-1.5-1.5-2-2,1h-1.5l-.5-1,2-8-1-2,1.5.5.5-.5-1-2,1-2-1.75-.65.75-2.35,2,.45Z"/>
      <path data-code="RYA-SHI" d="m67.25,75.1l2-1-.5-2h1.5l1-2.5h2.5l2.5-1.5,1,.5,2.5-2,.5-1,3-.5h1l-1,.5,1.5,3,1.5-.5,1.5-2.5,4,2.5,4.5-1.5,1,2,1-1v.5l-.5.5h1l1,2,1.5-3.5,2-1.5v-1h1.5v-3l1-.5.5,1,1.5-2-1.5-1.5,1.5-1,1.5,1.5-1-1.5,2-2-1-.5,2.5-1-.5-.5,1-1.5v-1.5l.5,2.65,1-.5v2.85l1.5-1,.5-2.5,1-1,1,1,.5-2.5,1.5.5h-.5l1.5,5-4,5.5,1,2h1.5v1l-.5.5,2,1.5-.5,1,1.5,1-1.45,4.05-.65.2-2.3,5.4-3.6-1.65-1.5,1.5-1-.5v1h-1.5l-1.5,3.5-2-1v.5l-2,.5-1.5,4.5-3-1.5-.5,1.5-3,1.5-.5-4.5-6,1.5-2.5-1.5-1,1-1-2-3.5-1-.5,1h-2.5l-1.5,1.5-4.5-1.5-3.5-1.5.5-2.5-1.5.5.5-2-.5-.5v1h-1v-1.5"/>
      <path data-code="RYA-SKO" d="m23.25,77.6l1.5-2,2.5,1.5v-.5l1-1.5,3,1-.5,1-1.5.5-.5,2.5-1,1.5.5,1-2,.5,1.5-1.5.5-1.5.5-.5-2-1,1-1-2.5-1-.5-.5-1.5,1.5-.5.5.5.5v-1"/>
      <path data-code="RYA-SKOM" d="m23.25,77.6l-.5.5.5.5v-1l1-1,.5-.5.5.5,2.5,1-1,1,2,1-.5.5-.5,1.5-1.5,1.5,2-.5-.5-1,1-1.5.5-2.5,1.5-.5.5-1-3-1-1,1.5v.5l-2.5-1.5-1.5,2M5.25,59.6h3l-.5-3,1.5-2,1,2,1-1,1,.5.95-2.1.55.2,1,2,3,3,1-1,5,2.35-.5,3,2.5,1.5,2-3,2.5.5,1,2-1,1,2.5,2v-.5l1,.5,1-1,3.9,4.35-.9,5.15-3.5,3,6.5,5-3,2.5,1.5,2-.5,1.5h-4l-1,1.5-1.5-.5-3.5,1.5v-2.85l-1.5-1-2,.5v-2l1.5-1v-2.5l-2.5-.5-1,1.5v-1.65h-1v-1.5h-1.5l-1-1.5-3,.5v-3h2l2-2.35-1.5-1.5-1.5.5-.5-2.5h-2.5l-1-2-3,1.5-2-.5-1.5,1-3.5-1.15,1.5-1.5,1.5-.5,1-3-3-.5v-2.5h1l1-1-1.5-1.95"/>
      <path data-code="RYA-SPA" d="m68.25,50.6l2,1,1.5-1,1.5,1.5h2l.5-1.5h.5l-1-4.5,2.5,1h1l.5-1.5,1.5.5,3.5-3h1l1-2v.5l1.5-1,.5-1h.5l-1-2,2-.5.5-1,1.5,3,2.5-.5.5-1,4.5-3,2.5,2,.5,2.5-2.5,2.5,7.5,6.5,5,.5,2,2h-2v1.5l-1,1.5.5.5-2.5,1,1,.5-2,2,1,1.5-1.5-1.5-1.5,1,1.5,1.5-1.5,2-.5-1-1,.5v3h-1.5v1l-2,1.5-1.5,3.5-1-2h-1l.5-.5v-.5l-1,1-1-2-4.5,1.5-4-2.5-1.5,2.5-1.5.5-1.5-3,1-.5h-1l-3,.5-.5,1-2.5,2-1-.5-2.5,1.5h-2.5l-1,2.5h-1.5l.5,2-2,1-.9-.6.9-.9,1-.5.5-1.5-4-1.5,1-2,1.5-.5v-2.5l1.5-1.5-1.5-.5,1-2-1.5-1.5v-1.5l1-1-1-.5h1l.5-1-1-1,1.5-.5-.5-3.5"/>
      <path data-code="RYA-STA" d="m48.25,54.6h2l-.5-2,3-.5v-2.5l1.5.5,2-1.6,2,3.1,1.5.5-.5.5v2.5l2,.5,1-2.5-.5-2,1.5-1.5.5.5.5-1.5,4,2,.5,3.5-1.5.5,1,1-.5,1h-1l1,.5-1,1v1.5l1.5,1.5-1,2,1.5.5-1.5,1.5v2.5l-1.5.5-1,2,4,1.5-.5,1.5-1,.5-.9.9-1.1-.75.5,1h-2.5v-1.15l-4.5-1-1,1-1.5-1.5v-.5h.5l.5-1-5-2-1-3-2-.5-.5-4,1-1-1.5-.5,1-1-1-2,1-1h-1.5l.5-1"/>
      <path data-code="RYA-UKH" d="m51.25,90.6l1.7-1.65.8.3,1.5-2,.5,2,2-3,2,1,1-1.5,1.5.85h-.5l.5,3-.5.5,2,4-1.5,1v1.5l.5.5,1.5-1.5,1.5,1,1,3-1,2,4.1,1.5-1.6,2-2-.5-2,2-2-.5-1.5,3-4.5,5-1,2.5-1.5.5-1.5-2h-4l2-2.5-1-3.5-1.5.5-.5-2.5,1.5-2.5-.5-1,1-1h1v-2.5l2-2-.5-1.5,1-1.5-1.5-4.5"/>
      <path data-code="RYA-ZAK" d="m31.25,21.6l3.5-2,6,2v3l2.5,1-1,.5v4l2,1,2.5-1-1-1,1-3h3l.5,1.5,2.5-.5v2l-2.5,1.5.5,1-1,.5v2l3,1-1,1,.5,2.5,2.5,1-.5,1.5,1.5,2-.3,1.25-3.2-1.25,1-1-.5-1-2.5,2,1,1.5-1.5,1v2.5l-3,.5-.5.5-3-1-1.5,1-1.5-.85v-4l-1.5-.5.5-1.5-2.5-1.5h.5v-1l-1.5-4.15,1.5-.5-1.5-6-1,1-1-1,1-2-2.5-3.5h-1v-2"/>
</svg>