<svg data-code="RU-RYA" xmlns="http://www.w3.org/2000/svg" viewBox="0 0 168.75 135.11">
    <g data-code="rjazanskaja_oblast_" data-title="rjazanskaja_oblast&amp;apos;">
      <path data-code="chuchkovskij_rajon" data-title="chuchkovskij rajon" class="cls-1" d="M99.63,85.99l.5-1.5,3,1.5,1.5-4.5,2-.5v-.5l2,1,1.5-3.5h1.5v-1l1,.5,1.5-1.5,3.58,1.64-.58,1.36-2,1.5,1,2.14h1v2.5l-1.5,2.5,1.5,1-.5,2.5,2,2-.5,1-1,.5-.5,1.5-5.5,1v1l-1-1.14-2,1-1,1.5-1-.5-.5,1.5v-1l-1.5.5,1-1-1-.5-1.5,2-2-1-.5.5-.5,1.5-1.5-.5,1-4-1-3.5,1-1-2,.5v-1l1-.5-1-1,1-1.5-1.5-1.5,3-1.5Z"/>
      <path data-code="ermishinskij_rajon" data-title="ermishinskij rajon" class="cls-1" d="M139.63,66.62l3.5,1,1-5,9.3-.26,4.7,3.76,1.5-.5,6,1.5,2-.5.5,2-.5,1-2.5,1-.5,4-4,1.5.5.5-1.5,2v-1.5h-1.5l-.5,1.5,1.5.5-2.5,1v2h-1l.5,1.5-1.5,1.5v1l-3-1.5-.5,1h-4.5l-2.5,2-.5-.5.5-1-1.5.5-3-2.5h-1.5l-1.5,1.5v-1.5l1-1v-2.5l-1,1v-1l1.5-.14-.5-.5.5-.5-.5-2h1v-2l-.5-1,2-1.5-1.67-2.5,1.67-.37.5-2-1-1.5M158.13,80.13l1.5,1.5-.5,2.5-1.5-1,.5-3"/>
      <path data-code="gorodskoj_okrug_rjazan_" data-title="gorodskoj_okrug_rjazan&amp;apos;" class="cls-1" d="M65.12,28.49l.38-1.5h.72l1.9,1.5v2.5l2,.5v1h-1.5l2,1.5,4-3,.5-1,.5-1h-1l-.5-2.5h2.5l1.5-.5,1,2h-1.5l-1,1.5-1-.5-.5,2-1,1-3,2h-1l-1,.5,1,3.5-2.5,2.5-.5-1-2,1.5-1.5-1.5v-3.5h-.5v1l-1-.5h.5l.5-.5v-3.5h.5l1-1-3-2,3.5-1Z"/>
      <path data-code="kadomskij_rajon" data-title="kadomskij rajon" class="cls-1" d="M136.13,82.62l1.5-.5v1l-1,1v1.5l1.5-1.5h1.5l3,2.5,1.5-.5-.5,1,.5.5,2.5-2h4.5l.5-1,3,1.5,1-1v2h1.5v2.5h1l2-1-.5,1,1,1-.5,1-2.5,1.5,1,1-1.5,1,1,3.5-3-1,.5.5h-1.5l-1,4-.5-.5.5-1-1.5-.5-1,1.5-2.5,1.5v1h2l-1,1,.5,2-1,2-3.5-2-3.5,2.5.15-.68-.65-1.95-2.5-1,1.5-1-.5-.5-2.5-1,2.5-3.5.5-.5v-1l1-2-.5-2-2.5-1.5.5-1.5h-2l.5-.5h-.5v-1l2,.5-1.5-1,1-1h-.5l.5-1.5-1,1.5-2,.5.5-1-.5-1,1-.5-1-1,1.5-.36-.5-2.5"/>
      <path data-code="kasimov" class="cls-1" d="M131.13,48.12l3.5,1.5-2,2-1.5,1-.5-3-2,2,.5-3,2-.5Z"/>
      <path data-code="kasimovskij_rajon" data-title="kasimovskij rajon" class="cls-1" d="M128.63,51.62l2-2,.5,3,1.5-1,2-2-3.5-1.5-2,.5-.5,3ZM106.63,40.62l4,2.5h1.5l-.5-2,.5-.5,3,1.5,2-2.5,3,2,1-1.5-.5-.5,1-1-2.5-2.5,2-1.5h-1l5.5.5.5.5,1-1,2,1,.5-1.5-1,.5,2-2.5.5-3,1-1,.5.5h2.5l4.5,2.5-.5,3,1.5,3v2l-.5.5,3-.5,2,.5-.5,2.5,2,1v1l-1,.5.5,1h2.5l2,1.5-.5,2-.5-.5-.5,2.5,1.5.5-.5,1.5,6,.5-2,2v1.5l-1,1-.5,1.5.8,2.74-9.3.26-1,5-3.5-1,1,1.5-.5,2-1.67.37-2.33-3.5-5,.5v1.5l-1,.5v-2.5l-1-1-2.5,2-2,.5-2.5,3.14-1.47.41,1.47-4.04-1.5-1,.5-1-2-1.5.5-.5v-1h-1.5l-1-2,4-5.5-1.5-5h.5l-1.5-.5-.5,2.5-1-1-1,1-.5,2.5-1.5,1v-2.86l-1,.5-.5-2.64h2l-2-2-5-.5-4.49-3.89,3.5-3.97Z"/>
      <path data-code="klepikovskij_rajon" data-title="klepikovskij rajon" class="cls-1" d="M86.13,5.12l5-2.5h1.5l4.5,1.5,1.5,1-.5,1,3-1.5,4.5,1,2.5-2,1,.5v-2h1l.5-1.5.5.5.5.5-1,1h2.5l-.5,2,3,.5-2.5,1-.5,2.5h2l1.5,1,4-1.5,2,2-3.5,1.5.5,2-1.5,1,1,2-2,2,4.5,1-1,1,1,.5,2-1,2,1v1.5l2.5.5,1.5-2.5,3,2.5-1,1,1,3.5-1.5,1.5v3l-2,2.5,1-.5v1.5l-2.5-1-1,1-.5-.5h-2.5l-2-.5h-1,1l-2,1.5,2.5,2.5-1,1,.5.5-1,1.5-3-2-2,2.5-3-1.5-.5.5.5,2h-1.5l-4-2.5-3.5,3.97-3.01-2.61,2.5-2.5-3-4.5-1.26.84-2.24-3.7-3.5.5-1-2.14-2.5-.5-1-5.5,1-.36-1.49-.05-1.51-4.59,1.5-1.5-3-4.36,6-5-1-1,.5-1.5-.5-.5-1.5,1-2-1.5"/>
      <path data-code="korablinskij_rajon" data-title="korablinskij rajon" class="cls-1" d="M39.62,71.99l2.5-1,4,1.5,1-1-.5-.5,1.5-1,4.5-1,5,2-.5,1h-.5v.5l1.5,1.5,1-1,4.5,1v1.14h2.5l-.5-1,2,1.36v5.64l-1.5.5-.5,1-2,1v-1.14l-1,.5-.5.5-2,1.14,2.5,2.36-1.5-.86-1,1.5-2-1-2,3-.5-2-1.5,2-3-1.14h-3.5v-3l-1.5.5v1l-3-1-.5,1-1.5-2.5-6.5-5,3.5-3,.92-5.15.58.65Z"/>
      <path data-code="mikhajlovskij_rajon__rjazanskaja_oblast_" data-title="mikhajlovskij_rajon_(rjazanskaja_oblast&amp;apos;)" class="cls-1" d="M19.63,32.12l2,.5-.5-.5,1-.5v-.5l2.5-3,2.5.5.5-1,1.5,1,1-.5.5,2,.5-1,2.64.07,1.36,1.3,1-1,1.5,6-1.5.5,1.5,4.14v1h-.5l2.5,1.5-.5,1.5,1.5.5v4l1.49.85-.99.65h-1.5l.5,1.5-2.5.86.5,2-.5,1-2-1-1,1,1,.5-2,2-1-.5-.5,1-5.5,4,.42,1.68-.92,1.32-2.5-1.5.5-3-5-2.36-1,1-3-3-1-2-2.5-1v-2.5l2.5-2.5-.5-1.5-1,.5v1l-.5.5-1.5-.5v-1l2.5-.5.5-1v-1.5l-1-.5,1-2.5,4,.5,1.5-1.5.5-3-2.5-1,2-.5.5-1,1-.5-1-2.5"/>
      <path data-code="miloslavskij_rajon" data-title="miloslavskij rajon" class="cls-1" d="M1.13,72.62l2-.5.5-1.5,4,1.5,1.5-1,2,.5,3-1.5,1,2h2.5l.5,2.5,1.5-.5,1.5,1.5-2,2.36h-2v3l3-.5,1,1.5h1.5v1.5h1v1.64l1-1.5,2.5.5v2.5l-1.5,1v2l2-.5,1.5,1v1.5l-5.5,3h-4.5l-1.5-1v1.5l-1,1-1.5,2.5-2,1v-1.5l-1.5-1-1.5,1.5-.5-1-4-1v-1.5l-3-1-.5-1-.5,1-.5-2,1.5-2-1-1,1-.5,1-3.5-.5-.5,1.5-3-.5-2-3.5-1v-1.5l1.5-2-1.5-1.5.5-1"/>
      <path data-code="novoderevenskij_rajon" data-title="novoderevenskij rajon" class="cls-1" d="M26.62,106.49l1.5-.5,1.5-2.5.47.02,3.03-1.52,1.5,1.5-1,1.5.5.5,2.5-2.5,3.5,3.5.5-1,1.5-.5,1.5,1,3.5-.5,1.02,1.13-.02,3.37,1.5-.5,1,3.5-2,2.5h4l1.27,1.7-2.27,1.3-1-1h-2l-1.5,1.5-3-.5,1-2.5-.5-1.5-1,1.5h-1l-2.5,5-.5-.5-3,1.5-1.5-4-2,2-.5-1.5-2,2-1.5-.5,2-2.5v-1.5l-1.5.5v-1l.5-.5h1v-.5l-3-1.5.5-1.5-1.5-1,1-2-1.5-2"/>
      <path data-code="pitelinskij_rajon" data-title="pitelinskij rajon" class="cls-1" d="M122.13,71.62l2.5-3.14,2-.5,2.5-2,1,1v2.5l1-.5v-1.5l5-.5,4,6-2,1.5.5,1v2h-1l.5,2-.5.5.5.5-1.5.14v1l1-1v1.5l-1.5.5.5,2.5-1.5.36,1,1-1,.5.5,1-3.5-2-.5,2.5-5-.5-2.5-3.5h-.5v.5l-2-1-.5,1.5h-1.5l-2-3.5-.5.64h-1l-1-2.14,2-1.5,2.88-6.77,2.13-.59Z"/>
      <path data-code="pronskij_rajon" data-title="pronskij rajon" class="cls-1" d="M26.62,62.49l5.5-4,.5-1,1,.5,2-2-1-.5,1-1,2,1,.5-1-.5-2,2.5-.86-.5-1.5h1.5l2.5-1.64,3,1,.5-.5,3-.5v-2.5l1.5-1-1-1.5,2.5-2,.5,1-1,1,3.19,1.24-.19.76-1,.5,2.5,2.5-2.5,2-1.5-.5v2.5l-3,.5.5,2h-2l-.5,1h1.5l-1,1,1,2-1,1,1.5.5-1,1,.5,4,2,.5,1,3-4.5,1-1.5,1,.5.5-1,1-4-1.5-2.5,1-4.5-5-1,1-1-.5v.5l-2.5-2,1-1-1-2-2.5-.5-1.08,1.68-.42-1.68"/>
      <path data-code="putjatinskij_rajon" data-title="putjatinskij rajon" class="cls-1" d="M76.62,82.99l1,.5,1.5-1.5h2.5l.5-1,3.5,1,1,2,1-1,2.5,1.5,6-1.5.5,4.5,1.5,1.5-1,1.5,1,1-1,.5v1l2-.5-1,1,1,3.5-1,4,1.5.5.5-1.5.5-.5,2,1,.44-.59.06,1.09-2,1.5.5,2-1,.5-.5-1.5-2,1h-.5l-.5,1-.5-.5-.5,1-3.5-.5-1.5-1,1.5-1-2-.5-.75,2.35-6.25-2.35,3-4.5h-4.5v-3l-1,2h-2.5l1-.5-.5-.5,1.5-.5,3-3h1v-1.5l-4.5-1.5-1-1.5v-3l-1.5-1v2.5h-1.5l.5-1.5-.5-.5.5-2"/>
      <path data-code="rjazanskij_rajon" data-title="rjazanskij rajon" class="cls-1" d="M50.62,30.99l2.5-1.5,1.5-1.5-.5-1,1-1,3.5,2.5,1.5-.5.5-1,1.5.5v-3h1.5l.5,2,1-.5v2.5l-3.5,1,3,2-1,1h-.5v3.5l-.5.5h-.5l1,.5v-1h.5v3.5l1.5,1.5,2-1.5.5,1,2.5-2.5-1-3.5,1-.5h1l3-2,1-1,.5-2,1,.5,1-1.5h1.5l-1-2-1.5.5h-2.5l.5,2.5h1l-1,2-4,3-2-1.5h1.5v-1l-2-.5v-2.5l-1.9-1.5h1.4v-1l1.5-1,1,1.5,2.5-2-.5,1,1.5-.5-.5,1h2.5l.5-2,1.5,1,1.5-2,3-.5,3,1.5,4,.14-1,.36,1,5.5,2.5.5,1,2.14,3.5-.5,2.24,3.7-3.24,2.16-.5,1-2.5.5-1.5-3-.5,1-2,.5,1,2h-.5l-.5,1-1.5,1v-.5l-1,2h-1l-3.5,3-1.5-.5-.5,1.5h-1l-2.5-1,1,4.5h-.5l-.5,1.5h-2l-1.5-1.5-1.5,1-6-3-.5,1.5-.5-.5-1.5,1.5.5,2-1,2.5-2-.5v-2.5l.5-.5-1.5-.5-2.01-3.09.51-.41-2.5-2.5,1-.5.5-2-1.5-2,.5-1.5-2.5-1-.5-2.5,1-1-3-1v-2l1-.5-.5-1"/>
      <path data-code="rjazhskij_rajon" data-title="rjazhskij rajon" class="cls-1" d="M29.12,91.62v1.36l3.5-1.5,1.5.5,1-1.5h4l.5-1.5-1.5-2,3-2.5,1.5,2.5.5-1,3,1v-1l1.5-.5v3h3.5l2.2.83-1.7,1.67,1.5,4.5-1,1.5.5,1.5-2,2v2.5h-1l-1,1,.5,1-.98,1.63-1.02-1.13-3.5.5-1.5-1-1.5.5-.5,1-3.5-3.5-2.5,2.5-.5-.5,1-1.5-1.5-1.5-4,2,.5-1-1-1.5,1-2h-1v-2l-2-.5-.5-2h1l-3.29-.48,5.29-2.88Z"/>
      <path data-code="rybnovskij_rajon" data-title="rybnovskij rajon" class="cls-1" d="M35.12,18.49l2-.5,1.5-2,1.5-1v1.5l3,.5-.5,2.5,2-1.5h1.5l1.5,1.5h1v1.5l2.5-1-.5,1.5,2.5,1,1.5-1.5-.5-1,1.5-2h1.5l2,2.5v-1l2-.5-1.5-1.5,6.5-2.5-.5-1.5,1-.5h4v-.5l.5-.5-.5-.5.5-.5,3-1,.5-1,3,1.5,2-1.5,4,4,1-1.5.5.5-.5,1.5,3,4.5-1.5,1.5,1.51,4.59-2.51-.09-3-1.5-3,.5-1.5,2-1.5-1-.5,2h-2.5l.5-1-1.5.5.5-1-2.5,2-1-1.5-1.5,1v1h-2.12l-.38,1.5v-2.5l-1,.5-.5-2h-1.5v3l-1.5-.5-.5,1-1.5.5-3.5-2.5-1,1,.5,1-1.5,1.5v-2l-2.5.5-.5-1.5h-3l-1,3,1,1-2.5,1-2-1v-4l1-.5-2.5-1v-3l-4.81-1.6-1.19-1.9"/>
      <path data-code="sapozhkovskij_rajon" data-title="sapozhkovskij  rajon" class="cls-1" d="M62.12,83.49l.5-.5,1-.5v1l2-.86.5-1.14,1.5-.5v-4h1v-1l.5.5-.5,2,1.5-.5-.5,2.5,7,2.5-.5,2,.5.5-.5,1.5h1.5v-2.5l1.5,1v3l1,1.5,4.5,1.5v1.5h-1l-3,3-1.5.5.5.5-1,.5h2.5l1-2v3l2,1.5-2-1-2,.5,2.5,1-2-.5-.5,1h-2l-2,1.5-2-1.5-1.5,2.5-2-.5-.42.52-4.08-1.52,1-2-1-3-1.5-1-1.5,1.5-.5-.5v-1.5l1.5-1-2-4,.5-.5-.5-3h.5l-2.5-2.36,2-1.14Z"/>
      <path data-code="saraevskij_rajon" data-title="saraevskij rajon" class="cls-1" d="M56.62,114.49l4.5-5,1.5-3,2,.5,2-2,2,.5,2-2.5,2,.5,1.5-2.5,2,1.5,2-1.5h2l.5-1,2,.5-2.5-1,2-.5,2,1-2-1.5h4.5l-3,4.5,8,3-1,2,1,2-.5.5-1.5-.5,1,2-2,8-1.5-1.5-1,.5h-1l-10,13.5-3.5-1.5-1.5,2.5-2-1.5-1.5,2-2,.5-3-3,1-1,1-1.5-2-3.5-1.5-1.5-4,1.5,1.5-4-1-1,1-1.5-2-2,1-2.5"/>
      <path data-code="sasovo" class="cls-1" d="M123.62,95.49l3-1,2,3-.5.5-2.5-1.5-2,1v-2"/>
      <path data-code="sasovskij_rajon" data-title="sasovskij rajon" class="cls-1" d="M123.62,95.49v2l2-1,2.5,1.5.5-.5-2-3-3,1M119.62,85.49h1.5l.5-1.5,2,1v-.5h.5l2.5,3.5,5,.5.5-2.5,3.5,2-.5,1,2-.5.5-1,.5-.5-.5,1.5h.5l-1,1,1.5,1-2-.5v1h.5l-.5.5h2l-.5,1.5,2.5,1.5.5,2-1,2v1l-.5.5-2.5,3.5,2.5,1,.5.5-1.5,1,2.5,1,1,3-1,.5-3-.5-2,1.5-1.5-1-2,.5-3-4.5.5,3.5h-1v.5l-1,1,.5,1h-.5l.5,2,2.5,1.5,1-.5.5-1.5,2,.5-.5-1.5,2.5-1.5,1.5.5,1.5,7.5,1,.5,1,2-.5,3-2-4.5-2,.5-.5-.5-.5,1,.5,1-1,2.5-3-1.5v-2l1-1-4,.5-2.5-1.5.5-1,1,.5.5-1-3,.5-.5-1.5.5-2-1.5-1.5h1.5v-1l1,.5h.5l.5-1-3.5-.5v1h-4.5l-2-1.5.5-3-2.5-1,1-2.5-1-.5v-2.5l-3-1,.5-1-1.01-2.64,4.01-.73.5-1.5,1-.5.5-1-2-2,.5-2.5-1.5-1,1.5-2.5v-2.5l.5-.64,2,3.5Z"/>
      <path data-code="shackij_rajon" data-title="shackij rajon" class="cls-1" d="M92.62,103.49l-1.5,1,1.5,1,3.5.5.5-1,.5.5.5-1h.5l2-1,.5,1.5,1-.5-.5-2,2-1.5-.06-1.09,1.06-1.41,1,.5-1,1,1.5-.5v1l.5-1.5,1,.5,1-1.5,2-1,1,1.14v-1l1.49-.27,1.01,2.64-.5,1,3,1v2.5l1,.5-1,2.5,2.5,1-.5,3,2,1.5h4.5v-1l3.5.5-.5,1h-.5l-1-.5v1h-1.5l1.5,1.5-.5,2,1,5-.5,2.5,2.5,3-2.5,3.5h-2.5l-3.5,3-5-1.5-1,1-2-2-.5,1.5-3-2v-1.5h-2.5l-3-3.5-2.5-.5-3.5-2.5-3.5.5.5-1.5-1.5-2-2,1h-1.5l-.5-1,2-8-1-2,1.5.5.5-.5-1-2,1-2-1.75-.65.75-2.35,2,.5Z"/>
      <path data-code="shilovskij_rajon" data-title="shilovskij rajon" class="cls-1" d="M67.62,75.49l2-1-.5-2h1.5l1-2.5h2.5l2.5-1.5,1,.5,2.5-2,.5-1,3-.5h1l-1,.5,1.5,3,1.5-.5,1.5-2.5,4,2.5,4.5-1.5,1,2,1-1v.5l-.5.5h1l1,2,1.5-3.5,2-1.5v-1h1.5v-3l1-.5.5,1,1.5-2-1.5-1.5,1.5-1,1.5,1.5-1-1.5,2-2-1-.5,2.5-1-.5-.5,1-1.5v-1.5l.5,2.64,1-.5v2.86l1.5-1,.5-2.5,1-1,1,1,.5-2.5,1.5.5h-.5l1.5,5-4,5.5,1,2h1.5v1l-.5.5,2,1.5-.5,1,1.5,1-1.47,4.04-.66.19-2.3,5.41-3.58-1.64-1.5,1.5-1-.5v1h-1.5l-1.5,3.5-2-1v.5l-2,.5-1.5,4.5-3-1.5-.5,1.5-3,1.5-.5-4.5-6,1.5-2.5-1.5-1,1-1-2-3.5-1-.5,1h-2.5l-1.5,1.5-4.5-1.5-3.5-1.5.5-2.5-1.5.5.5-2-.5-.5v1h-1v-1.5"/>
      <path data-code="skopin" class="cls-1" d="M23.62,77.99l1.5-2,2.5,1.5v-.5l1-1.5,3,1-.5,1-1.5.5-.5,2.5-1,1.5.5,1-2,.5,1.5-1.5.5-1.5.5-.5-2-1,1-1-2.5-1-.5-.5-1.5,1.5-.5.5.5.5v-1"/>
      <path data-code="skopinskij_rajon" data-title="skopinskij rajon" class="cls-1" d="M23.62,77.99l-.5.5.5.5v-1l1-1,.5-.5.5.5,2.5,1-1,1,2,1-.5.5-.5,1.5-1.5,1.5,2-.5-.5-1,1-1.5.5-2.5,1.5-.5.5-1-3-1-1,1.5v.5l-2.5-1.5-1.5,2M5.62,59.99h3l-.5-3,1.5-2,1,2,1-1,1,.5.97-2.08.53.21,1,2,3,3,1-1,5,2.36-.5,3,2.5,1.5,2-3,2.5.5,1,2-1,1,2.5,2v-.5l1,.5,1-1,3.92,4.35-.92,5.15-3.5,3,6.5,5-3,2.5,1.5,2-.5,1.5h-4l-1,1.5-1.5-.5-3.5,1.5v-2.86l-1.5-1-2,.5v-2l1.5-1v-2.5l-2.5-.5-1,1.5v-1.64h-1v-1.5h-1.5l-1-1.5-3,.5v-3h2l2-2.36-1.5-1.5-1.5.5-.5-2.5h-2.5l-1-2-3,1.5-2-.5-1.5,1-3.5-1.14,1.5-1.5,1.5-.5,1-3-3-.5v-2.5h1l1-1-1.5-2"/>
      <path data-code="spasskij_rajon__rjazanskaja_oblast_" data-title="spasskij_rajon_(rjazanskaja_oblast&amp;apos;)" class="cls-1" d="M68.62,50.99l2,1,1.5-1,1.5,1.5h2l.5-1.5h.5l-1-4.5,2.5,1h1l.5-1.5,1.5.5,3.5-3h1l1-2v.5l1.5-1,.5-1h.5l-1-2,2-.5.5-1,1.5,3,2.5-.5.5-1,4.5-3,2.5,2,.5,2.5-2.5,2.5,7.5,6.5,5,.5,2,2h-2v1.5l-1,1.5.5.5-2.5,1,1,.5-2,2,1,1.5-1.5-1.5-1.5,1,1.5,1.5-1.5,2-.5-1-1,.5v3h-1.5v1l-2,1.5-1.5,3.5-1-2h-1l.5-.5v-.5l-1,1-1-2-4.5,1.5-4-2.5-1.5,2.5-1.5.5-1.5-3,1-.5h-1l-3,.5-.5,1-2.5,2-1-.5-2.5,1.5h-2.5l-1,2.5h-1.5l.5,2-2,1-.9-.62.9-.88,1-.5.5-1.5-4-1.5,1-2,1.5-.5v-2.5l1.5-1.5-1.5-.5,1-2-1.5-1.5v-1.5l1-1-1-.5h1l.5-1-1-1,1.5-.5-.5-3.5"/>
      <path data-code="starozhilovskij_rajon" data-title="starozhilovskij rajon" class="cls-1" d="M48.62,54.99h2l-.5-2,3-.5v-2.5l1.5.5,1.99-1.59,2.01,3.09,1.5.5-.5.5v2.5l2,.5,1-2.5-.5-2,1.5-1.5.5.5.5-1.5,4,2,.5,3.5-1.5.5,1,1-.5,1h-1l1,.5-1,1v1.5l1.5,1.5-1,2,1.5.5-1.5,1.5v2.5l-1.5.5-1,2,4,1.5-.5,1.5-1,.5-.9.88-1.1-.75.5,1h-2.5v-1.14l-4.5-1-1,1-1.5-1.5v-.5h.5l.5-1-5-2-1-3-2-.5-.5-4,1-1-1.5-.5,1-1-1-2,1-1h-1.5l.5-1"/>
      <path data-code="ukholovskij_rajon" data-title="ukholovskij rajon" class="cls-1" d="M51.62,90.99l1.7-1.67.8.3,1.5-2,.5,2,2-3,2,1,1-1.5,1.5.86h-.5l.5,3-.5.5,2,4-1.5,1v1.5l.5.5,1.5-1.5,1.5,1,1,3-1,2,4.08,1.52-1.58,1.98-2-.5-2,2-2-.5-1.5,3-4.5,5-1,2.5-1.5.5-1.5-2h-4l2-2.5-1-3.5-1.5.5-.5-2.5,1.5-2.5-.5-1,1-1h1v-2.5l2-2-.5-1.5,1-1.5-1.5-4.5"/>
      <path data-code="zakharovskij_rajon" data-title="zakharovskij rajon" class="cls-1" d="M31.62,21.99l3.5-2,6,2v3l2.5,1-1,.5v4l2,1,2.5-1-1-1,1-3h3l.5,1.5,2.5-.5v2l-2.5,1.5.5,1-1,.5v2l3,1-1,1,.5,2.5,2.5,1-.5,1.5,1.5,2-.31,1.24-3.19-1.24,1-1-.5-1-2.5,2,1,1.5-1.5,1v2.5l-3,.5-.5.5-3-1-1.51.99-1.49-.85v-4l-1.5-.5.5-1.5-2.5-1.5h.5v-1l-1.5-4.14,1.5-.5-1.5-6-1,1-1-1,1-2-2.5-3.5h-1v-2"/>
    </g>
</svg>