<svg xmlns="http://www.w3.org/2000/svg" viewBox="0 0 88.65 73.85">
      <path data-code="SE-ALA" d="m2.4,56.75h2.5l4.5-3,.5-3,7-.5,6-6.5,2.5-1,1.5,1.5-1,1.5,2.5,1.5,2.5-2-.5-1.5,2-3.5,1.5,1-.5,1.5,2-2.5,3.5-2,3.5,1,.5,1-1.5,1.5.5,1,1-1,1,2-1,1.5,2,4.5h3.8l-.3,3.35-2,.5v-1l-1.5.5-1.5-2-3,2.5-2,3-3.5.65-.5,1,1,4.5-5,5-1-1.5-4,1-2.5,3-1.5-1.5-2,1-1.5-2-4.5-1-4,1.5-3.5-6-3-1.5.5-2-1-2Z"/>
      <path data-code="SE-ARD" d="m38.9,38.25l8.5-7.5,1,4.5,1-.5,4,7.85-2.5,1.5.05,2.15-2.05,1-.2,2.5h-3.8l-2-4.5,1-1.5-1-2-1,1-.5-1,1.5-1.5-.5-1-3.5-1"/>
      <path data-code="SE-DIG" d="m22.9,35.75l3-1v-1.5l4.5-1,.5,1.5,1.5-1,1.5.5,1.5-2.5.5.5,2-2,1.5.5.5-1h1l.5-1,3,1.5,1-1.5,2,.5v2.5l-8.5,7.5-3.5,2-2,2.5.5-1.5-1.5-1-2,3.5.5,1.5-2.5,2-2.5-1.5,1-1.5-1.5-1.5-3-4,.5-1.5h-1l1-1.5Z"/>
      <path data-code="SE-IRA" d="m.19,33.16l4.5-3,4,4.5,4.5-2.5.5-2,2.43-.97,1.07-1.53,3.5-.5,1.77.44,1.23-.94-.5-1.5,2.81-2.6,6.69-3.9.5,2-1.5,2.5,1.5,2.5,2.5-2,2,2-2,1.5v2.5l3.5-1.5,1,.5-.5,1-1.5-.5-2,2-.5-.5-1.5,2.5-1.5-.5-1.5,1-.5-1.5-4.5,1v1.5l-3,1-1,1.5h1l-.5,1.5,3,4-2.5,1-6,6.5-7.65.55-1.85-3.05v-1.5l-1.5-.5-1-2,1-1.5-1-3L.19,33.16"/>
      <path data-code="SE-KIR" d="m41.9,22.25l5.5-3,1.5.5v2.5l-2,3.5,9.5-2.5-.5,4,4.85.05.55,3.15-7.9-.85,1.5,4-2,3-2.2.65-1.3-2.5-1,.5-1-2.5v-4.5l-2-.5-1,1.5-3-1.5.5-5.5h0Z"/>
      <path data-code="SE-MOZ" d="m65.4,4.25l2.5-4,7.5,5.5,8.5,2.5,1.5,1-.5,1,3.5,2v1l-3,5.5v1.5h1l-1.5,1-3.5,7.5-2.5-.5,1.5-2.5-4-2-1,2.5-2.5-.5-1-1,3-4-6-1.5-1.5,3-2.5,1-.5,2.5h-1l-.5,1-.5,3.75-1.1-.05-.9-5.2,3-2,1.5-2.5,2.5-2-.5-2,2.5-5-2-2-2.5-.5-.5-2.5,1-2.5"/>
      <path data-code="SE-PRA" d="m53.4,29.6l10,1,2,1-7,10.5,4,3.85v2.15l-3,4-2-2,1-1.5h-1.5l1-2-1-.5-1,1-.5,1-1-3.5-3.45,1.65-.05-2.15,2.5-1.5-2.7-5.35,2.2-.65,2-3-1.5-4"/>
      <path data-code="SE-PRI" d="m34.4,58.25l.5-1,3.5-.65,2-3,3-2.5,1.5,2,1.5-.5v1l2-.5.5-5.85,5.5-2.65,1,3.5.5-1,1-1,1,.5-1,2h1.5l-1,1.5,2,2,3-4v-3.5l1.5-2.5,1,1-1.5,8.5h1.5l-1,1.5,1.5,2-1,.5,2,3,.5,4.5-2,.5-1,2.5h-1l1.5.5-1.5,2-2-.5-.5,1h-1.5l-4,4-1-3-3-.5-1-1.5,1-2-2-3,1.5,1,1-2,2-1,1.5,1,2.5-5h1.5l-1-.5-.5-2,1-2.5-2-1-.5,3.5-2.5-.5v1.5l-2,2.5-2.5,1v1.5l-4,2.5-1.5,4-3,2.5-3,.5-1,3-3-4-1.5.5-1.5-1.85,5-5-1-4.5"/>
      <path data-code="SE-VLA" d="m40.4,69.6l3-2.5,1.5-4,4-2.5v-1.5l2.5-1,2-2.5v-1.5l2.5.5.5-3.5,2,1-1,2.5.5,2,1,.5h-1.5l-2.5,5-1.5-1-2,1-1,2-1.5-1-1,1.5-.5,4-2,5-4.5-2-.5-2"/>
</svg>