<svg data-code="RU-SPE" data-title="Слой 2" xmlns="http://www.w3.org/2000/svg" viewBox="0 0 28.25 54.25">
  <g data-code="svg2">
    <path data-code="sankt-peterburg" class="cls-1" d="M9.12,14.12h.5-.5M11.12,19.12v-.5.5M6.62,19.12l-.5-.5h-.5.5l.5.5M8.12.62h4.5l.5,2h3l1,2.5.5-1,1,1,.5,4.5,2.5,5-.5,1.5,3.5,6h1.5l-.5,2.5,1.5,2-.5,2.5,1,3.5-1.5,2.5,1,.5h-.5l.5,1.5-1.5-1-4,4-.5,2h-1.5l1,2v4l2,3-.5.5-.5,2-1.5-1.5-1,1-1-.5v-1.5l-1.5-.5-1.5,1-1-1-1,.5-1.5-.5v1.5l-1,1h-1v-2l-2-.5-1.5-2.5-2.5.5v-.5l1-.5v-1h.5l-.5-1,5.5-2-.5-2.5,2-.5-3-3.5-1.5.5h1.5l-1,1.5-1.5-.5-2,1.5-.5,2.5-1.5-2.5v-1l2.5-.5,3-2.5h1l-2-2,1-1-3-2,1-.5-4.5-6.5,1-1.5-1-2,.5-1h1l3.5-3v-3l3.5,3.5h-1.5l.5,3h-2l.5-.5-.5-.5.5-.5-1.5-1-3,2v.5l2.5,2-.5,2,3.5,7.5,3,2h1.5l.5-1,1.5.5,1-.5.5-.5-.5-2h2l.5-1-4.5-5-.5-2,1-1.5-2.5-1,3,1,1-1v-2.5l1.5-.5,1.5-2.5-.5-2-5.5-8-5-1.5v-1l1,.5-.5-1.5M4.12,19.62v-.5h.5l-.5.5M12.62,32.12l-1-1v-.5h.5l.5,1.5M13.12,32.62l-.5-.5.5.5M.62,42.62v-.5h1l-1,.5"/>
  </g>
</svg>