<svg xmlns="http://www.w3.org/2000/svg" viewBox="0 0 295 268.15">
      <path data-code="SAR-ALE" d="m148.75,244.25l6-10.5,3.5,1.5.5-1-.5-1.5.5-1,1-1h-1l.5-.5-.5-.5.5-1.5-.5-1,4-7,7,4.5-2,3.5,7,3.5-5.5,14.65.5,4-.5,2.5-4,3.5,3,2-.5,5.5-9,3-13.5-.5-1.5,1.5-.5-3-2-.5v-3.5l-1,.5-2-1.5,1-2v-8.5l3.5-7.65,6,2.5Z"/>
      <path data-code="SAR-ARK" d="m32.75,36.25l1,1,3.5-1,1.5-1,1.5,1v-1.5l2,1,1-1v-3.5l-1-1,1.5-1,.5-2.5,2.5-1,1-3.5,1.5-1,2,1-.5.5,3,3-1,1.5,2,3.5,1-.5.5-2.5,1.5-1h2.5l.5,2-1,1,2,2.5,1.5.5,1-1.5,2,1.5-.5,1v3l-3,1,.5,2-1.5,4,4,2.5-5,10.65-1.5.5v2l-1.5-1-4.5,4,1,1-2,1.5v-1l-3,1.5-2.5-3,.5-1h.5l-3-4.5.5-3.5h1.5l-1-3h-1v1l-2,.5-2.5-1h-1l-.5,1-1.5-.5.5-1.5-1-2,1-1-2.5-1,2-3-2,.5-.5-.5-1,.5-1-3h-1l-.5-1-.5-1.5,1-.5-1.05-1.1,2.05-.05Z"/>
      <path data-code="SAR-ATK" d="m75.75,66.9l2.5-1.5,1,1.5,2.5-3.5,5.5-1,1.5-4-1-2.5,3-.5,1-2.5,1,1h1v-1l4,.5,3-5.5,1,2,1.5-.5,2.5,1,.45-1.15,1.05.65-1,1,.5.5-1.5,2,3,1.5-.5,1-1.5.5-2-2-4,3.85v1.5l1.5.5,3.5-3v1.5l-1,1,1.5,2-.5.5v1.5l-1,1,2.5.5-.5,2,5.5,4.5-2,2.5,1,1v1.5l3.5-.5,2,1.5v1.5l-1.5.5-.5,1.5-2-1-1,1-1,.5-2,3-1,.5-5-2v1.5l-3.5,1-4,3,2,3-4.5,4.5-1.5-2.85-2.5-1.5-1.5-4-1-.5-.5,1-2-1.5.5-1-.5-1.5,1-1.5-1-1.5-3.5,1-1-3-2.5-1.5-.5-5.5-2-1,2-4.5"/>
      <path data-code="SAR-BLK" d="m178.75,111.75h9l4.5,1,2.5,3.5,4.5.5,8.5-3,3.5-3.85,4.5,4,1.5,3.5h1.5l4,3v2.5l-1.5,3-3-2-3.5,4.5,2,3-3,6-.5,1-.4,1.95-1.6-.95.5-1-.5-1-1.5.5v1.5l-1,.5v2l-1.5-2,.5-1.5,1.5.5-.5-.5-4,.5v-1.5h1.5l-.5-1.5-2.5,1v1.5l-1-1-.5.5-.5,1.5-1.5-1.5-.5,2.5,1.5,1v1l-2,2.5,1.5,3.5-1,.5-4-1.5-1.5-3-2.5-.5.5,1h-.5l.5,1.5-2,2.5-4.5-2.5,1-2-3.5-2.5-1,3-2.5-2,2.5-5-2.5-2-2.5,2-2.5-.5,1.5-1.5-3-4.5,2-1-1-2.5v-4l3-.5v2l2-1.5.5-2-1-5,1-1-2.5-2.65,2-1.5Z"/>
      <path data-code="SAR-BLS" d="m5.25,40.75h3l2,1.5-.5,4,4-.5,1.5-2v-1l2.5.5,1.5-2.5,1,.5,1-1.5,4-.5v-1l4-3.5,2.5,2.65-1,.5.5,1.5.5,1h1l1,3,1-.5.5.5,2-.5-2,3,2.5,1-1,1,1,2-.5,1.5,1.5.5.5-1h1l2.5,1,2-.5v-1h1l1,3h-1.5l.5,1.5-1,2,3,4.5h-.5l-1,2-2-2-.5.5v1.5l-1,.5-.5,1h-1l.5,4.5-2,2-1-.5-1.15,2.05-3.35-1.7.5-1-1.5-3v-1.5h-3.5l-.5,1-3,.5v-2.5h-2l-.5,1h-1.5v2l-2.5.5-.5-1h-3.5l-1-2,.5-2.5-2,.5-3.5,4.5,2,4-.5,1h-2v2.5l-4-.5-1.5,1.15-3.5-9.5,3.5-1-1.5-4.5.5-2,3-3-1.5-.5,1.5-7.5-4-6,2-2.15,1.5,1Z"/>
      <path data-code="SAR-BLT" d="m164.25,54.4l1-.5,1-2.5,1.5-.5h2l2.5,2v.5h.5l.5-1,4.5,2,2-1-1,4,1.5,1,1,5,2.5.5v2l-1,.5.5,2-1,2-1,.85-1,3h-1l1.5,3.5v4l-.5,1v1l-5.5,2,2,2,.5,2-1-.5-.5,1-.5-2-1,1.5-1-2-1,1.5-1-1.5,1-.5-2.5-1-.5-2.85-.5-6,1-.5-2.5-2,.5-1v-3l-4-1.5,3-2-.5-2.5,1-1.5-.5-1,1,1,1.5-1,1-3-1,.5-1.5-2-2.5-1-1-2.5"/>
      <path data-code="SAR-BAZ" d="m144.75,63.75l1.5-2-.5-1.35,1.5.5.5-1.5,3-1v-2l2-1.5h2.5l1.5-1.5,1,1.5-.5,1.5h.5l.5-1.5h.5l1.5-2,1.5-1,3,2-.5.5,1,2.5,2.5,1,1.5,2,1-.5-1,3-1.5,1-1-1,.5,1-1,1.5.5,2.5-3,2,4,1.5v3l-.5,1,2.5,2-1,.5.5,6-3.5,3.35,2,4-1,3-2,.5-1,1-1-.5h-6l-2,.5v2.5l-3.5,1.5-2.5-1.5-2.5,1v-1l1.5-.5-1-1-1,1v-1l.5-3.5,3-5-2.5-3-1.5-.5-.5-1.5.5-1,2,.5,1-4.5,2,.5.5-.5-4.5-1.5,3.5.5-2.5-1-.5-3,3-3-.5-.5.5-2.5h2v-1l-3-1-4,4-2.5-1.5v-1l2.5-2.5Z"/>
      <path data-code="SAR-DER" d="m169.25,198.9l.5.5v-1l1.5.5,2.5-2.5h1.5l2-3.5,1,.5,1.5-1,1.5.5.5-1,1.5-1,4,2,1.5-2.5,2.5,2,6-10-2.5-1.5,1.5-1.5,1,.5,1-1.5,3.5,2,.5-1.5,4,1,1.5-1,1-3.5-1-.5,1-1.5-2-1.5,2.25-4.3,7.25,2.3,1,1.5,2-2,2,1-1.5,3.5,2,1-2.5,4,1,1,.5-1,3,1,2,1.5,2.5-4,2.95,2-3.95,5.9.5.5-3.5,6-1.5-.5-1.5,3,1.5.5-.5,1.5,1.5,1-1,1.5,2,1.5-1.5,2.5-5-2.5-1,1,1,1-.5,1.5-.5-.5-2,4-.5-.5.5,3-.5,1.5,2,1-1,.65,1.5,2-1,5-2,3-6-1.5-6-.65-3.5-2.5-1,1.5-7.5-4.5.5-1-1.5-1-1,1-3-2,1-1.5-2-1-1,1.5-2.5-1,.5-1-9-4.5,1.5-2.5-4.7-2.7.2-.7"/>
      <path data-code="SAR-DUK" d="m211.25,109.9l5-2,7-5.5,3-6.5,11-7,.5,2,6.5,2.5-.5,1,.5-.5.5,1.5-.5,2,4.5,1.5-2,6.5,3.5,2-3,9.5-1,.5-1,2.5-2-.5,1.5-4.5-3-1-2-2-.5,1-1.5-.5-.5,1.5h-2l-.5,3-1.5,1.35-1,2-2-1-2,3.5,1.5,1.5-1.5,3-3-1-1,1.5-3-1.85,1.5-3v-2.5l-4-3h-1.5l-1.5-3.5-4.5-4"/>
      <path data-code="SAR-ENG" d="m100.75,129.9l5-5.5,6-2.65,3-4.5,3-1,5.5,1.5,9-6.35,4-1,1.5-1.2.5,1.55h2l1.5,2.5-1.5,1,2.5,2.5-.5.65v1l-2.5-1-1.5,1,.5,1.5-.5-.5-.5,1-1,.5.5,1-1,1.5h2v1l-1,.5.5,1h2.5l-.5,1.5h-1.5l-1,2.85.5.5-2,5.5h-2l-1,2.5-2,1,1.5,1.5-.5,1.5-3,3.5,4,1.5-2,2,.5,1-.85,1.6-6.65-4-1,2-2-.5-1.5,7.5-1.5,2.35-5-1.5-5-3.5,1.5-2.5-1-2.5,1.5-1,1,.5,1-2,.5.5.5-1-3-1.5,3-4h-8l-6-3.35,2-7.95"/>
      <path data-code="SAR-EKA" d="m69.25,46.25l1-1.5,1.5,2,2-2.5-.5-1,1.5-2.5-.5-1,3.5-2.5,1,.5,6-3,.5.5,2-2.35.5,1.5h1l-.5-1.5,2-1.5.5.5,4-4.5.5.5.5-1,1,1-1,.5h2l-.5,1,4-1v-2.5l1-.5-.5-1,1-.5,1-.5.5,2.5,1,.5v1.5l-.5.5,1,2.5,3.5,2.5v1l2.5,1v2.5l-2,3.5-1.5-.65-4,6.5,2.5.5-1,2.65-2.5-1-1.5.5-1-2-3,5.5-4-.5v1h-1l-1-1-1,2.5-3,.5,1,2.5-1.5,4-5.5,1-2.5,3.5-1-1.5-2.5,1.5-1.2,2.65-4.3-2.65h-2l-1.5-2.5-1.5-.5-1,2-3-1.5,1.5-3.5-3.5-1.5v-2l1.5-.5,2-4.5,3-6.15v-1.5l2,.5,1.5,1Z"/>
      <path data-code="SAR-ERS" d="m172.75,154.9l2,1.5,2.5-3.5-1.5-1.5,1-1-1-1,1.9-1.3,2.6,1.3,1.5-3v-1.5l1-3,3.5,2.5-1,2,4.5,2.5,2-2.5-.5-1.5h.5l-.5-1,2.5.5,1.5,3,4,1.5,1-.5-1.5-3.5,2-3.5-1.5-1,.5-2.5,1.5,1.5.5-1.5.5-.5,1,1-.4,1.05.4,1.45-2,2.5,4.5,2,3.5,3-1,2.5-1.5,1-3-2.5-1,1.5,3.5,2.5-1.5,3,1.5.5-2.5,4.5-3.5,3,3.5,1.5-.5,1.5,2,1.5,1-1.5,2.75.2-2.25,4.3,2,1.5-1,1.5,1,.5-1,3.5-1.5,1-4-1-.5,1.5-3.5-2-1,1.5-1-.5-1.5,1.5,2.5,1.5-6,10-2.5-2-1.5,2.5-4-2-1.5,1-.5,1-1.5-.5-1.5,1-1-.5-2,3.5h-1.5l-2.5,2.5-1.5-.5v1l-.5-.5-.5,1.5-.5-.5-4-7.5h-1.5l-3.1-2.85,3.1-5.65.5-4,4-.5v-5l5,1.5,1-2-1.5-1v-3l4-1,4,2.5,1-1.5,1-2v-3.5l-7.5-4.5.5-1h1l-3.5-3,.5-1"/>
      <path data-code="SAR-FED" d="m149.75,146.9l.5-1,3.5,1,1-1.65-1-.5,1.65-1.95,3.35,2.1-1.5,2,3,.5,1.5-2,5,3,2.5-3,3.5,2,.5-1.5,1,.5,1-1.5,1,.5-1,1.5,2.4,1.2-1.9,1.3,1,1-1,1,1.5,1.5-2.5,3.5-2-1.5-.5,1,3.5,3h-1l-.5,1,7.5,4.5v3.5l-1,2-1,1.5-4-2.5-4,1v3l1.5,1-1,2-5-1.5v5l-4,.5-.5,4-1,1.85-2-1.5.5-.5-1-1.5h-2.5l-.5-2.5-3,1,.5,2.5-5-1-.5-7-2-.85,5-8-.5-1,.5-5-3-.5v-2.5h-1l2.5-10.5"/>
      <path data-code="SAR-IVA" d="m239.75,111.9l2,2,3,1-1.5,4.5,2,.5,1-2.5h2.5l1.5-3.5,2,.5.5-1.5,2.5,2.5,3,.5,1,2.5,1-2,3,2,2.5,4h-1.5l-1.5,2-2,1.5,1,1.5,1.5-1,3,1.5-1.5,2,.5,1-1,2,2,1,3-4.5,1.5,1,.5,5h-2l1,4h-2l-.5,1,1,2.5.5-1,1,.5,1.5-2v1l.5-.5.5.5h-.5l-.5,1-.5,6-1,.85-1,2-4-2,.5,1.5-1.5,3-4-2.5-.5,1.5-2-1-.5,1.5-4-2,1-.5v-1.5h2.5v-1l.5-.5-1-2-1.5,1,.5-1.5-1-.5,1-.5h-5.5l-1,1.5-.5-1.85.5-1-1.5-.5,2.5-5.5-2-.5.5-1-2-1,.5-1.5-7.5-2.65-.5-1.5,2.5-.5.5-2,1.5-4.5-4.5-2,1-1.5-.5-5.35.5-1"/>
      <path data-code="SAR-KAL" d="m41.25,64.9h1l.5-1,1-.5v-1.5l.5-.5,1.5,1.5,1.5-.5,2,3,3-1.5v1l2-1.5-1-1,4.5-4,5,2.5-1.5,3.5,3,1.5,1-2,1.5.5,1.5,2.5h2l4.3,2.65-.8,1.85,2,1,.2,1.95-2.7.55,1,1.5-1.5,1-1.5,4-2.5-1-.5,1.5,3.5,1,1,1.5-1.5,1,1,1-1.5,1.5,1.5,2-1,3.5-3,.5,1.5,3-.5,3.5-3,2-2-.5-1,1-.5,2.5,3,5.5-.5,1-4-1-3-4-1.5.5-1,2.5-1.5-.5-.5-1,.5-5.5-.5-1.5-1-.5-.5,1-1.5.5-1-1.5-3-1v-1.5l-2.5-1.5v-.65l2-3v-1l-1-1,.5-2.5-1.5-2,1.5-4.85-.5-3.5-2.5.5v2.5h-3.5l-.5-3.65h-2l-1-1.35,3-5.5,1,.5,2-2-.5-4.5"/>
      <path data-code="SAR-KHV" d="m206.25,78.4l1-1,4.5,4-.5.5,1.5.5.5,2.5h1.5l1-1v-1.5l1.5-1.5.5-2,1.5.5.5-1.5.5,1h1l-1-.5,1.5-2h1l1.5,2.5-1,3-.5,2,5.5,1,1-2,2-1-3.5-2,.5-.5,1.5-1,2,1,1.5-1.5,3,4,2.5-2.5,1.5,1v2.5l4-.5,1.5,1-3.5,1.5-3,3.5-2.5,1-9,5.5-1.5,1-3,6.5-7,5.5-5,2-2-2.5h-2l-1.5,1v-4l-2,1.5-2-1,.5-1.5h-2l.5-1.65h.5l-.5-2,1.5-2,2-.5v-1l2-.5h1.5l-2-1.5.5-1h-1l-1-8h2.5l1-2-.5-1,.15-2.5-1.15-1.35"/>
      <path data-code="SAR-KRA" d="m73.75,120.9l1.5-4.5,1,2.5,2.5-1h3.5l.5-1,1.5.5.5,2h2l-.5,3.5,1.5,1,2-1.5,4.5,5.85h3l3.5,1.65-2,8,2,5-.5,3.5-5,10.5-10.5.5-4.5-2-4.5,4-2,5.5h-1l-3.5-3.5h-1l-1,2h-1l.5-4.5-2.5-2-1.5,1-7-4,3.5-4v-.5l2-1.5-1.5-.5.5-1,.5,1,3,.5,6.5-7.5,1.5-4-2-1-.5-2,1.5,1-1-3,1-.5,1-3,1.5-.5-3.5-5.5,4-1Z"/>
      <path data-code="SAR-KRK" d="m120.75,149.9l2,.5,1-2,6.65,4-3.15,5.9,3.5,1,.5-1.5h2l-.5,4h3.5l2-4.5,7.5,1.5v-1.35h2.5v2.5l3,.5-.5,5,.5,1-5,8,2,.85-4,1,1.5,6-5-1-1,2-4-2.5-3,5h-1.5l-4,4-2.5,4.5-4-3-4.5-1.5-2.25,3.55-1.75-.9,2-3-2.5-2,4.5-2.5-3-1.5-.5-2,1-3.5-1.5.5-3.65-1.3.15-3.85,1-.5,1-2h1.5l.5-2,1.5-.5,3-5.5-1-1,3-4.35,1.5-7.55"/>
      <path data-code="SAR-KRP" d="m214.75,147.4v.5h1l.5-1-1.5.5m-11.5-10.5l2.5-1,.5,1.5h-1.5v1.5l4-.5.5.5-1.5-.5-.5,1.5,1.5,2v-2l1-.5v-1.5l1.5-.5,1.5.5-1,.5-.5,1,2.5,1.5,7.5.85-.5,1.5,5,1,.5-.5-1-1.5,1-.5.5,2,2.5.5v1.5l2,1.5-.5,2.5-1.5,1.5,2.5,1.5-.5,2.65h1v3.5l1.5,3.5-.5,1.5-2-2-2,4.5.5,1.5,4,2-1.5,3-1-1-2.5,3.5,3,2-2,1-1.5-1-2.5,4-2-1.5-3-1-.5,1-1-1,2.5-4-2-1,1.5-3.5-2-1-2,2-1-1.5-7.25-2.3-2.75-.2-1,1.5-2-1.5.5-1.5-3.5-1.5,3.5-3,2.5-4.5-1.5-.5,1.5-3-3.5-2.5,1-1.5,3,2.5,1.5-1,1-2.5-3.5-3-4.5-2,2-2.5-.4-1.45.4-1.05v-1.5"/>
      <path data-code="SAR-LYS" d="m68.75,80.4l2.5,1,1.5-4,1.5-1-1-1.5,2.7-.55.3,3.55,2.5,1.5,1,3,3.5-1,1,1.5-1,1.5.5,1.5-.5,1,2,1.5.5-1,1,.5,1.5,4,2.5,1.5,1,1.5.5-.5v1.85l-.5.5,1.5,1-.5.5,5,2-.5,2,.7.6-3.7,1.4-2-1.5-1,1.5,2.5,3-.5,3.5-1,.5-.5,1.5h-3v1.5l-1-1.5-1,1.5.5,2-2,1.5-2.5-.85-.5,1h-3.5l-2.5,1-1-2.5-1.5,4.5-4,1,1-2.5-1.5-3-1.5,1-2-.5-1-1,1.5-2.5-3.5-8,.5-2.5,1-1,2,.5,3-2,.5-3.5-1.5-3,3-.5,1-3.5-1.5-2,1.5-1.5-1-1,1.5-1-1-1.5-3.5-1,.5-1.5"/>
      <path data-code="SAR-MAR" d="m138.25,118.4l1.5-1,2.5,1v-1l.5-.65,7-2.5,9,2.15,10-3.65,5,1,3-.5,1,.65,1.5,2-1,1,1,5-.5,2-2,1.5v-2l-3,.5v4l1,2.5-2,1,3,4.5-1.5,1.5,2.5.5,2.5-2,2.5,2-2.5,5,2.5,2v1.5l-1.5,3-5-2.5,1-1.5-1-.5-1,1.5-1-.5-.5,1.5-3.5-2-2.5,3-5-3-1.5,2-3-.5,1.5-2-3.35-2.1,1.35-1.55-1-2.5h-2v1l-7-5.5-1-3-4-1-1,1-2-2.5-.5,1.5-.65-.95.65-1.9h1.5l.5-1.5h-2.5l-.5-1,1-.5v-1h-2l1-1.5-.5-1,1-.5.5-1,.5.5-.5-1.5"/>
      <path data-code="SAR-MIK" d="m214.75,147.4l1.5-.5-.5,1h-1v-.5"/>
      <path data-code="SAR-NVB" d="m124.75,68.25l7,3.5,1.5-6-1-.5,1.5-1.5-.5-2.5,3-2,1,2,1.5-1.5,1.5,1.5,4-4.5,2.5,3.5-1,.5.5,1-1.5,2-2.5,2.5v1l2.5,1.5,4-4,3,1v1h-2l-.5,2.5.5.5-3,3,.5,3,2.5,1-3.5-.5,4.5,1.5-.5.5-2-.5-1,4.5-2-.5-.5,1,.5,1.5,1.5.5,2.5,3-3,5-.5,3.5-2.5-1-2,1-2-1-1,.5-.5,3h-2v2.5l-1-.5.5-1.5-1.5,1-1.5-1-1-7,1,1-1-4-2.5-.5v-1.5l-1.5-2,4-4-1.5-3.5-2-.5-2.5-2.5v-3h-1.5l1-.5-.5-2,.5-1Z"/>
      <path data-code="SAR-NVZ" d="m143.75,204.75l4.5,2.5,3-5,2.5,1.5v-6.5l5-8.5,4,3.5h1.5l4,7.65.5.5.3-.8,4.7,2.7-1.5,2.5,9,4.5-.5,1,2.5,1,1-1.5,2,1-1,1.5,1.5,1,1.5,1,1-1,1.5,1-.5,1,7.5,4.5,1-1.5,3.5,2.5-8.5,4.5-9.5,2-4-3.5-1-4h-2.5l-.5.5.5,1.5,1.5,1.5-.5.5v1.5l-2.5,3,.5.5-1,3-7-3.5,2-3.5-7-4.5-4,7,.5,1-.5,1.5.5.5-.5.5h1l-1,1-.5,1,.5,1.5-.5,1-3.5-1.5-6,10.5-6-2.5-2,4,.5-2.5-1.5-5,.5-7-1.5-7,1-.5-2-2v-2l.5-1-1-1.5,6.5-12.55"/>
      <path data-code="SAR-OZI" d="m231.75,177.25l5,3.5.5-1.5,5,2.5,1.5-2-1.5-1,1.5-3-3.5-2,1-1.5,1,.5,1.5-2,9,5v1l3,2-.5.5v1.5l-.5,1,1.5,1,1-2h1l.5,2,1.5-.5-.5.5,1,.5-1.5,3.5,2,1-1,2,1,.5-1,2.5,4,1.5.5-1.5.5-3,2.5,1v3l2.5,1.5.5-1,.5.5.5-2,4.5,2.5-1,2,2.5,1.5-2,3.5-1,3.5h-2l-1.5,2-4-2v2h-3l-.5,3.5-6,1-10.5-2.5-4,1-8,3-8-4.5-2.5-.5-.5-2-2,1.5-1-.5-1.5,2.5-3,2-2-1,.5-1.5-.5-3,.5.5,2-4,.5.5.5-1.5-1-1,1-1,5,2.5,1.5-2.5-2-1.5,1-1.5-1.5-1,.5-1.5-1.5-.5,1.5-3,1.5.5,3.5-6-.5-.5,3.95-5.9-1.45-1,2-1.1Z"/>
      <path data-code="SAR-PER" d="m254.9,152.1l2.35,1.15.5-1.5,2,1,.5-1.5,4,2.5,1.5-3-.5-1.5,4,2,1-2,1-.5,6.5,3.5.5-1,2,1-1.5,3,6,4-1.5,2.5-2-1.5-3,5,3-.5,1.5,3h1l1-1.5,1.5.5-2,4,6.5,2.5-1,2,4,2.5-.5,1.5,1.5,1-3.5,7,.5.5-1,2,1.5,1.5-2,4,.5,5h-1l-2,3.5h-2l-3-1.5.5-1,2-.5,1-1-4-3.5h-.5l-2,3-2-.5-2.5-1.5,1-2-4.5-2.5-.5,2-.5-.5-.5,1-2.5-1.5v-3l-2.5-1-.5,3-.5,1.5-4-1.5,1-2.5-1-.5,1-2-2-1,1.5-3.5-1-.5.5-.5-1.5.5-.5-2h-1l-1,2-1.5-1,.5-1v-1.5l.5-.5-.7-.45.2-1.05-1-2,3.5-7-3.5-2,2-5-2.5-1.5v-1.5l-.5-.5h1v-1l-1.5-.5,2-.5-1.5-1.5,1.5-.5-1.5-.5,1.65-1.15Z"/>
      <path data-code="SAR-PET" d="m108.25,40.75l4.5,2.5-1,1.5,2,3.5h1l.5-1.5.5-2.5,3.5-1.5,2,1,.5,3.5h1.5l.5,1.5,1.5-1,1,1.5,2-1,.5,2.5,2-2,1,1.5.5-.5.5.5,2.5-3,1.5,3,.5-1h1.5l1.5-1.5.5,1-1,1.5,1.5.5-1.5,2h3v.5l-1,2,2.5,1.5-4,4.5-1.5-1.5-1.5,1.5-1-2-3,2,.5,2.5-1.5,1.5,1,.5-1.5,6-7-3.5-.5,1,.5,2-1,.5h1.5v3l2.5,2.5-4.5-1-1.5.5.5-1.5h-2v-1.5l-2-.5-1,1,1.5.5-1,.5v1.5l-1.5,1-2-1.5-3.5.5v-1.5l-1-1,2-2.5-5.5-4.5.5-2-2.5-.5,1-1v-1.5l.5-.5-1.5-2,1-1v-1.5l-3.5,3-1.5-.5v-1.5l4-3.85,2,2,1.5-.5.5-1-3-1.5,1.5-2-.5-.5,1-1-1.05-.65.55-1.5-2.5-.5,4-6.5Z"/>
      <path data-code="SAR-PIT" d="m112.75,195.25l3.5-5.5,4.5,1.5,4,3,2.5-4.5,4-4h1.5l3-5,4,2.5,1-2,5,1-1.5-6,4-1,.5,7,5,1-.5-2.5,3-1,.5,2.5h2.5l1,1.5-.5.5,2,1.5-2.1,3.8-.9-.8-5,8.5v6.5l-2.5-1.5-3,5-4.5-2.5-6.5,12.5-1-1.5,1-.5-.5-.5.5-1.5-.5-1-1-1.5-2.5-.5-6,2.5-7.5-3.5,2.5-3.5-1.5-.5,3-5-6-3.5-.5,1.5-4.5-3"/>
      <path data-code="SAR-PUG" d="m214.75,128.4l3.5-4.5,6,3.85,1-1.5,3,1,1.5-3-1.5-1.5,2-3.5,2,1,1-2,1.5-1.35.5-3h2l.5-1.5,1.5.5.5,5.35-1,1.5,4.5,2-1.5,4.5-.5,2-2.5.5.5,1.5,7.5,2.65-.5,1.5,2,1-.5,1,2,.5-2.5,5.5,1.5.5-.5,1,.5,1.85,1-1.5h5.5l-1,.5,1,.5-.5,1.5,1.5-1,1,2-.5.5v1h-2.5v1.5l-1,.5,1.65.85-1.65,1.15,1.5.5-1.5.5,1.5,1.5-2,.5,1.5.5v1h-1l.5.5v1.5l2.5,1.5-2,5,3.5,2-3.5,7,1,2-.2,1.05-2.3-1.55v-1l-9-5-1.5,2-1-.5-1,1.5,3.5,2-1.5,3,1.5,1-1.5,2-5-2.5-.5,1.5-8-5.35,2.5-3.5,1,1,1.5-3-4-2-.5-1.5,2-4.5,2,2,.5-1.5-1.5-3.15v-3.85h-1l.5-2.65-2.5-1.5,1.5-1.5.5-2.5-2-1.5v-1.5l-2.5-.5-.5-2-1,.5,1,1.5-.5.5-5-1,.5-1.5-7.5-.85-.9-.55.4-1.95,3.5-7-2-3"/>
      <path data-code="SAR-ROM" d="m3.75,32.75l2.5-3,8-2,4.5-3.5,2.5-4,1.5-.5v-1.5l3-.2,3,2.2-2,4,3,1.5v2.5l1,1,2.5-1v2.5l-1,.5.5,1h2v2.5l2-.5.5,2-3.5,1-1-1h-2.05l-1.45-1.5-4,3.5v1l-4,.5-1,1.5-1-.5-1.5,2.5-2.5-.5v1l-1.5,2-4,.5.5-4-2-1.5h-3l-1.5-1-2,2.5-1-.5,1-5,2-4"/>
      <path data-code="SAR-ROV" d="m95.25,156.9l5-10.5.5-3.5-2-5,6,3.35h8l-3,4,3,1.5-.5,1-.5-.5-1,2-1-.5-1.5,1,1,2.5-1.5,2.5,5,2.5v1l5,1.5-1.5,2,1,1-3,5.5-1.5.5-.5,2h-1.5l-1,2-1,.5v2l-4,5.5h-.5l.5-2-.5-.5-.5,1.5-1.5-.5.5-1h-1.5l-2,2-.5,2,1.5.5-.5.5-6.5-6-1.5,3-8-4.5,3-4.5,1.5-.5,1.5-2.5-2-1.5,1-1-1.5-1-1-6-1.5-1.35,10.5-.5Z"/>
      <path data-code="SAR-RTI" d="m38.75,6.25l5-4V.25l2,2.5,5,1,3.5-3,2,.5.5-.5.5,2.5h1.5l.5,2-1,3v2l1.5-1,3.5,2,2-.5,4.5,3.5,4-.5,2,5.5,2-1,2,7.5,2-1,1.5,5,2.5-2v2l1.5,3-2,2.5-.5-.5-6,3-1-.5-3.5,2.5.5,1-1.5,2.5.5,1-2,2.5-1.5-2-1,1.5-1.5-1-2-.5v1.5l-2-.5-2-2,1.5-4-.5-2,3-1v-3l.5-1-2-1.5-1,1.5-1.5-.5-2-2.5,1-1-.5-2h-2.5l-1.5,1-.5,2.5-1,.5-2-3.5,1-1.5-3-3,.5-.5-2-1-.5-4,1-1,2.5,3.5,1-.5v1h1l1-1.5-2.5-1.5.5-1.5-2.5-5,.5-4h-1.5v-.5l-1,1-.5-1.5-2.5,2-7-1.5"/>
      <path data-code="SAR-SAM" d="m3.75,75.75l1.5-1,4,.5v-2.5h2l.5-1-2-4,3.5-4.5,2-.5-.5,2.5,1,2h3.5l.5,1,2.5-.5v-2h1.5l.5-1h2v2.5l3-.5.5-1h3.5v1.5l1.5,3-.5,1,3.35,1.7-1.85,3.45,1,1.35h2l.5,3.65h3.5v-2.5l2.5-.5.5,3.5-1.5,4.85,1.5,2-.5,2.5,1,1v1l-2,3v1l-2.5,4-2.5,1.5-1.5-2,1-.5-.5-1-2,1-1-1-1.5,1.5-1-.5,3.5-5-2.5-.5-1-2-4,2.5-2-3-3.5-1-.5-1.5-.5.5.5,1.5h-1v1l-1.5,1-3.5-2.5-6-1.5-3.5.5-1.5-10.5-2-4"/>
      <path data-code="SAR-SAR" d="m91.25,104.25l1-1.5,2,1.5,3.7-1.4,2.8,2.4,1.5-.5,3.5,2.5,3.5-2,.5-1,2.5,1.5,6.5-7,1.5,1,1-.5.5,1-.5.5,1,.5,2.5-2.5v-1.5l2-3.5,1.5-1,.5,1.5,2.5-2,1,7,1.5,1,1.5-1-.5,1.5,1,.5v2l-1,.5.5,2.5h1.5l1,2.95-1.5,1.2-4,1-9,6.35-5.5-1.5-3,1-3,4.5-6,2.65-5,5.5-3.5-1.65h-3l-4.5-5.85-2,1.5-1.5-1,.5-3.5h-2l-.5-2,1,.35,2-1.5-.5-2,1-1.5,1,1.5v-1.5h3l.5-1.5,1-.5.5-3.5-2.5-3"/>
      <path data-code="SAR-SHI" d="m177.25,101.25l1,.5v-.5h2v1.5l-1,.5-1.5-1-.5,1.5-1-1.5,1-.5v-.5"/>
      <path data-code="SAR-SOV" d="m130.75,139.75l2-1,1-2.5h2l2-5.5-.5-.5.35-.95.65.95.5-1.5,2,2.5,1-1,4,1,1,3,7,5.5v-1h2l1,2.5-3,3.5,1,.5-1,1.65-3.5-1-.5,1-2.5,10.5h-1.5v1.35l-7.5-1.5-2,4.5h-3.5l.5-4h-2l-.5,1.5-3.5-1,4-7.5-.5-1,1-1.5,1-.5-4-1.5,3-3.5.5-1.5-1.5-1.5"/>
      <path data-code="SAR-TAT" d="m94.75,88.75l4-3,3.5-1v-1.5l5,2,1-.5,2-3,1-.5,1-1,2,1,.5-1.5,1.5-.5v-1.5l1.5-1v-1.5l1-.5-1.5-.5,1-1,2,.5v1.5h2l-.5,1.5,1.5-.5,6.5,1.5,1.5,3.5-4,4,1.5,2v1.5l2.5.5,1,4-1-1-2.5,2-.5-1.5-1.5,1-2,3.5v1.5l-2.5,2.5-1-.5.5-.5-.5-1-1,.5-1.5-1-6.5,7-2.5-1.5-.5,1-3.5,2-3.5-2.5-1.5.5-3.5-3,.5-2-5-2,.5-.5-1.5-1,5-5-2-3"/>
      <path data-code="SAR-SVE" d="m109.19,96.95l.93.18.5.5-1,.5-.43-1.18Z"/>
      <path data-code="SAR-TUR" d="m28.25,13.25l4-5.5,5,1,1.5-2.5,7,1.5,2.5-2,.5,1.5,1-1v.5h1.5l-.5,4,2.5,5-.5,1.5,2.5,1.5-1,1.5h-1v-1l-1,.5-2.5-3.5-1,1,.5,4-1.5,1-1,3.5-2.5,1-.5,2.5-1.5,1,1,1v3.5l-1,1-2-1v1.5l-1.5-1-1.5,1-.5-2-2,.5v-2.5h-2l-.5-1,1-.5v-2.5l-2.5,1-1-1v-2.5l-3-1.5,2-4-1.5-1v-1.5l-.5-1.5,1.5-1.5v-1.5"/>
      <path data-code="SAR-VOL" d="m177.25,101.25v.5l-1,.5,1,1.5.5-1.5,1.5,1,1-.5v-1.5h-2v.5l-1-.5m-11.5-14.5l3.5-3.35.5,2.85,2.5,1-1,.5,1,1.5,1-1.5,1,2,1-1.5.5,2,.5-1,1,.5-.5-2-2-2,5.5-2v-1l.5-1v-4l-1.5-3.5h1l1-3,1-.85,1-2-.5-2,2-1.65,3,2,2.5-.5-1.5,3.5,1.5,2-1.5,2.5,2-2.5,3,1.5,1-.5-.5.5.5.5h-.5l-1,1,1.5,1.5,1.5-1,.5,2,5,1,1.5,1.5h5l-1,2.5.5,1-1,2h-2.5l1,8h1l-.5,1,2,1.5h-1.5l-2,.5v1l-2,.5-1.5,2,.5,2h-.5l-.5,1.65h2l-.5,1.5,2,1,2-1.5v4l1.5-1h2l2,2.5-3.5,3.85-8.5,3-4.5-.5-2.5-3.5-4.5-1h-9l-2,1.5-3,.5-5-1v-4.5l-1.5-.5-.5-3h.5v-2.5l-1.5-2.5-2,1-2-3,4-1.5h1.5l-.5-2.5,1-3-2-4"/>
      <path data-code="SAR-VOS" d="m135.75,98.75h2l.5-3,1-.5,2,1,2-1,2.5,1v1l1-1,1,1-1.5.5v1l2.5-1,2.5,1.5,3.5-1.5v-2.5l2-.5h6l1,.5,1-1,2-.5.5,2.5-.5.5-1-.5-4,1.5,2,3,2-1,1.5,2.5v2.5h-.5l.5,3,1.5.5v4.5l-10,3.65-9-2.15-7,2.5-2.5-2.5,1.5-1-1.5-2.5h-2l-1.5-4.5h-1.5l-.5-2.5,1-.5v-4.5"/>
</svg>