<svg data-code="RU-TA" xmlns="http://www.w3.org/2000/svg" viewBox="0 0 267.25 224.25">
    <g data-code="tatarstan">
      <path data-code="agryzskij_rajon" data-title="agryzskij rajon" class="cls-1" d="M242.62,79.13l1-.5-.5,1-.5-.5M242.12,79.13l.5-.5v.5l-.5.5v-.5M227.12,67.63l2.5-1.5v-.5l1.5,1.5.5-1h2l-.5-1,1.5-.5.5.5,1.5-2,1,.5.5-1-1-.5,1.5.5.5-1,1,.5v1.5l2-.5,2,.5,1.5-2,.5,1,1-2-1-1,1-1-1.5-.5v-2l1.5,2,2-1.5v-1.5l2,2,1-.5.5,2.5,1-.5,1.5,1-1.5,1-1-1.5v1l-1.5,3h-3.5l-1.5,2.5h-.5l-.5,1-1.5.5v1h-.5l.5,1.5-2.5,1.5,1.5,1-.5,1.5-.5-1.5-1.5,2.5v2l1,1h-1l-.5,1.5,1,1v-2.5l1,.5,1-.5-1-1h.5l.5,1.5h-1v2h-1l1.5.5-1.5,1-.5,1.5,1,1.5v-2h3l-1,3,1,2.5,2-.5-.5,2.5,2.5,1.5.5-1.5,1,.5-1-2,1.5-1,1-3.5-.5-3.5-1.5-2,7.5,1,.5,3.5,3,1.5h-1l-1,2.5.5,1-1,2-2,1.5-1-2-4,3.5-.5,1,.5,1-.5,1h-2.5l-1-1-.5.5.5,1-2,.5v-1l-2.5,2,.5,1-3.5-1.5-1,1v1l1,1-1,1.5.5,1-4-2.5-1.5,1.5-1.5-2.5v-2l-2-3-3.5-4-2,.5-.5-2.5-2.5-2,3-1.5,1.5,1.5v-1l.5-.5,2-3-.5-1.5,1-.5-1-1,1-.5v-1.5l3,5.5,2-2-2-1,3.5-1-1.5-1.5.5-1h.5l-2.5-2.5v-1.5l-5-2.5v-2"/>
      <path data-code="aksubaevskij_rajon" data-title="aksubaevskij rajon" class="cls-1" d="M116.62,114.13l3-1,.5-5.5,1,1.5,1-1,.5.5,1.5-.5.5,1.5,2-.5,1.5.5.5.5v2.5h2.5l3.5,4-.5.5v3.5l1.5-.5-1,1,2.5,2.5h-1.5l-.5,1,1,.5-.5,1,.5.5-.5,1,5.5,2v1.5h-2l-.5,1-2,1.5-2-2-2,1.5.5-1-2.5-1.5,1.5,3.5-1,1h1.5l-1,1.5.5,1.5-4.5,2-3-.5v-2l-1,1v-.5l-1.5-.5-.5,1.5-.5-1-1,2v-1.5l-3-.5.5-1-.5-1-1,2v-3l-1-.5v2l-2-1.5.5-.5-.5-1,.5-.5-1-2,1.5-2v-1l-2-4h.5l.5,1,2,1.5h.5l-1-1,.5-1,1,.5,1-.5-1.5-1,2-1-.5-1,1.5-.5-.5,2.5,1,1,.5-.5v-1l1.5-.5-4-4.14,1-3.36-1.5-1"/>
      <path data-code="aktanyshskij_rajon" data-title="aktanyshskij rajon" class="cls-1" d="M230.12,125.13l4.5-1.5,1-1.5,1.5.5,2-1.5h.5l1.5-2h2l-2.5-.5v-2l1,.5v-.5l-2-.5.5-1-.5-1.5,2.5,1-1-2,.5-.5h-3l-.5-2.5,1.5-1h3v-2h-.5l2-.5-.5-.5,5.5-1,1,1,5,.5.5.5-1.5,1.5.5,1,1.5-1,1.5,1.5v2.5l2-1v2h-2l4.5,2.5-2.5,1.5-.5,1.5,5.5,3.5-1,1,1,2-.5,1.5,1.5,2,1-1.5v2h-.5v1l-3,.5v1.5h-1.5v1l-.5-.5-.5.5-3,1-1-.5-.5.5-1.5.5v1l-1-1-2,.5-.5,1v2h-1v1.5h-2l-1.5,1v1l-2,.5v1l-.5,1h-3.5v-3h-1v-1.5l1-2.5-.5-1.5-2.5.5-1-1.5v-1.5l2.5-1.5-.5-1-5,1-.5-2.5-1,.5-.5-1h1.5l-.5-2.5-2.5.5v-1.5"/>
      <path data-code="al_keevskij_rajon" data-title="al&amp;apos;keevskij_rajon" class="cls-1" d="M89.62,100.99v-1l1.5-.5.5.5,7.15-4.06.35.7,1.5-1,1,1.5-.5,1,2.5,2.5,4,.5-1.5.5.5,1-.5,1.5,1-.5h.5l.5.5-3,4-1,.5,2.5,1v2l-.5,1,1,2.5-2,1.5.5.5-2,3.5-.5,2.5-3,1.86h-2.5l.5,1.5-1,1,.5,2-6-4,.5,2-1.5-1.5-1.5,2,1,1-2.5,1,1,2.14h-3l.5-2.5-3-1.5-.5-2.5-1-1,4-1-4-1.5v-2h-.5l1.5-1.5v-1l-1.5-1,2-4.5-.5-.5.5-2-1-1,1.5-2.64,2.5-2-.5-1,1.5-.5-1-2,3.5.5ZM93.62,131.12l.5,1.5-1-.5v-1h-2l-.5,1,.5,1-1,.5v.5l-.5-1,.5-3,3.5,1ZM92.12,133.62l.5-.5v1l-.5-.5M94.12,134.62l.5.5v1.5l-1.5-.5,1-1.5M88.62,133.12h.5-.5M92.62,132.62l.5-.5v.5h-.5"/>
      <path data-code="al_met_evskij_rajon" data-title="al&amp;apos;met&amp;apos;evskij_rajon" class="cls-1" d="M150.12,127.63l1.5-.5.5-3,1.53-.38-.03.88h1v-1l1-1.5-.5-.5,1.39-1.87,2.61,1.74,3.5-1.5,1-2,2,.5.67-1.17.33,1.67-1.5,1.5-1-.5-1,2,.5.5v1.5l-1,1,.5.64-.5,1.5,1.5,1,.5,2h2v1l-1.5,1,2.5-.5.5-1-1-.5,1.5-.5-1-.5,1-1,1,.5-.5,3.5,3,1-.5,1,5-1.14,1-1.5h.5v2.5l-1,3,1.5,1,3.5-1.5,4,1,.51-.22,1.49,3.72,2.5-.36.5,4h1l.5,2-.5.5,3.14.4-.64,1.6-1.5-.5.5,2-3.5,1.5,1,1h-2v3l-1,3,.5-1v.5l.5-.5-.5,1v-.5l-.5.5.5.5h-2l.5,1-1,.5.5,1.5-.88.61-1.12-2.61,1-1h-2l-1-.5-2,2v1l-1-1-3,2-1-2-1,.5-1-3.5-2.5-.5-.5,2.5v-1h-4l2.5-4.5-1.5,1.5.5-1-1.5-.5v-1l-2-2h-1l.5,1h-1l1.5-3-2,.5.5-1-1-.5,2.5-.5-1.5-1v-1.5l-3.03.45,1.53-.95h-2.5l-4-3.5.5-1-1.5-1.5-2,1-.5-2-2.5-.5v-2.5l1.5-.5v-2.5l1.5-.5-.5-1h1l-.5-.5v-1.5h.5l-.5-1-1,.5-1-.5"/>
      <path data-code="alekseevskij_rajon__tatarstan_" data-title="alekseevskij_rajon_(tatarstan)" class="cls-1" d="M101.12,78.13l1-2,2,1.5,2.5-2,1.5,2,.5-.5,1.5,1.5,3-1.14,4,2.5-.5-2h1l2.5,1v1.5l4-.5v2.5l2.5-.36v3l-2.5,2,1.5,4-4.5,1v1l-1,1,1.5-.5v1l-3,.5,2.5,1.5-2,1.5,1,3.5,1,.5-.5,1,2-.5,1.5,5.5-1.5.5-.5-.5-1,1-1-1.5-.5,5.5-3,1,1.5,1-1,3.36-4.5-2.86-3.5-1-1,1-1-.5-1-2.5.5-1v-2l-2.5-1,1-.5,3-4h-2l.5-1.5-.5-1,1.5-.5-4-.5-2.5-2.5.5-1-1-1.5-1.5,1-1-2h-2.5l2.5-4,.5-4.5.5.5-.5-1,2.5-7.5"/>
      <path data-code="apastovskij_rajon" data-title="apastovskij rajon" class="cls-1" d="M47.12,50.13h2l1-2.5,2,4,2,1,1.5-1,.5,1,1-1.5,2.5,3.5,1.5-1.5,3,1,1-1.5-1-1h1l1.5-4,1.5,1,.5-.5,2.5,2-1,.36.5,4-1.5,2,1.5-1,1,2.5,1.5.14-1,1.5,1,.5h-1.5l-1,1,.5,1-.5.5,2,2-1,1,1.5,2-1.5.5-.5,2.5-1.5,1-5-3-1,.5.5,1-6,.36-.5-2.5h-1.5l-1-1.86,1-3.5-1.5,1.5-1-.5-1.5.5v1l-2-2,.5-2-3-2v-2.5l1.5-2.5-2.98-2.04.98-1.96"/>
      <path data-code="arskij_rajon" data-title="arskij rajon" class="cls-1" d="M127.12,22.13l.5-1.5,5,2,.5-1-1.5-1.5v-2.5l1-2,2-.5,1.5-3-2-.5,1-1.5-.5-4.5h1.5l1.5-1.5.5.5,1-3,1.5,1,2-1,1.5,1.5,2-.5,1,3.5-3.5,1.5,2.5,4,3-2v-.5l1.5-1,1.5,1-1,1.5h-2l-.5,2h4v4h-1.5l-1,.5-.5,1.5-1,.5-4-1-1,1.5,1,.5.5-1.5,1,.5v3l1,.5-1,1,3.5,1-1,.5v2.5l3,2-.5,1,2.5.5-1.5,1.5-.5,1.5-1-.5-1,1-.5,1.5-3-.5-1-1-1.5,2-1,2.5h-3l-.5,1-1.5-.5.5,1-.5,1.5-.5-1-1.5,1v.5h-1.5v1.5l-1-1-.5.5v1h-1l-1.5-3,.5-.5-.5-1h-3l-1.5-2.5v-.5h.5l.5-2.5,1.5-1v-1.5l1-.5v-2l-1,.5-2-.5-.5-.5,1-2-2.5.5v-1.64l3-.36.5-1-2.5-1.5.5-1.5,1.5.5ZM145.12,36.63l1-.5-.5.5h-.5M136.62,41.63l.5.5v.5h-.5v-1M137.12,2.13l1-1v.5l-.5,1-.5-.5"/>
      <path data-code="atninskij_rajon" data-title="atninskij rajon" class="cls-1" d="M120.12,4.99v-1.86l2.5.5-.5-.5.5-1.5,2,1-.5,3,1,2,1,.5,1-2,1,2,1-1,3-5,1,.5,1-1h-1V.62l2,1h-1l-1,1.5v2l1.61,1.51.39,3.49-1,1.5,2,.5-1.5,3-2,.5-1,2v2.5l1.5,1.5-.5,1-5-2-.5,1.5-1.5-.5-.5,1.5,1.5.5,1,1-.5,1-3,.36-2.5-.86-.5-2h1v-3.64l1-1-4.5-1-.5-1v-4l1.5-1,1-4h-1l-1,1.5-1.5-1.5,3-2.5Z"/>
      <path data-code="aznakaevskij_rajon" data-title="aznakaevskij rajon" class="cls-1" d="M189.12,153.13h2l-1-1,3.5-1.5-.5-2,1.5.5,1-2.5,1.5-2,2-.5.5-1h1l1-1.5,4,1.5,1.5-2,3,1.5.5,3.5.5.5,1,2.5,3,2-.5,1.5.5,1-1.5,1.5,1.5.5-.5,1.5,1.5.5,2.5,4.5-.5,1-.5.5.5,2-.5,1.5.5,2.5h4l-4.98,5.55-4.52.45-2-2v.5l-1,.5h-6l-4.5-1.5v-2l-4,.5-2-1-.5.5-1-3-3,2.5-5.5-.5,2-3-1-.5.5-1,1.5-1.5-.38-.89.88-.61-.5-1.5,1-.5-.5-1h2l-.5-.5.5-.5v.5l.5-1-.5.5v-.5l-.5,1,1-3v-3"/>
      <path data-code="baltasinskij_rajon" data-title="baltasinskij rajon" class="cls-1" d="M143.62,19.63l1-1.5,4,1,1-.5.5-1.5,1-.5h1.5l-.5-3.5,1.5-2.5,7.5-1.5,1-1.5-.5-1-4-2.5,1-1,2.5,2,2-2.5,2,1-.5,1.5,2,1,1-.5,1-2h.5l1,6-1,.5-.5,1.5,1.5-.5,1-1,1,.5-3.5,3,1.5,4-2.5,1v7l-3,.5-2.5,1.5-.5,1.5-2,1.5-2.5-1h-5.5l-3-2v-2.5l.5-.5-3-1,1-1-1-.5v-3l-1-.5-.5,1.5-1-.5"/>
      <path data-code="bavlinskij_rajon" data-title="bavlinskij rajon" class="cls-1" d="M177.62,201.13h2v1-.5h-.5v.5l1.5,1h1l-.5-2,1.5,2,2-.5v-1.5l2-.5-2-3h2l.5-1.5,1.5-1-1-2h1l-.5-1.5h1.5l-1-3,.5-1.5-1-.5,1.5-1-1.5-1v-1l.5.5,1-2,2.5-1,2.5,1.5-1.5,1.5.5,2,2,.5,3.5,3-1,2,1.5.5,1-1.5h2l-1,2.5h-1v1.5l-1-.5v1.5l-1.5.5v2l-1.5.5,1,1.5-1,.5.5,2-1.5,1,.5,1-1,2.5-.5-.5v1.5l-1,.5-1,6-.5.5-1,3v2.5l-4,.5-1.5,2-1.5.5v-2l-1-2.5,1.5-4-2-1h1.5l-.5-1.5-1-.5-2,1.5-4.5-.5,1-1.5h1l1.5-2-2-1,.5-3-1.5-1.5,1-1.5v-1.5"/>
      <path data-code="bugul_minskij_rajon" data-title="bugul&amp;apos;minskij_rajon" class="cls-1" d="M176.62,163.13l3-2,1,1v-1l2-2,3,.5-1,1,1.5,3.5-1.5,1.5-.5,1,1,.5-2,3,5.5.5,3-2.5,1,3,.5-.5,2,1,4-.5v2l-1-.5v1.5l-3-.5-1,.5,1.5,2-1,1h.5l-.5.5.5,2.5-.5,2.5-2.5-1.5-2.5,1-1,2-.5-.5v1l1.5,1-1.5,1,1,.5-.5,1.5,1,3h-1.5l.5,1.5h-1l1,2-1.5,1-.5,1.5h-2l.5-3-3.5,1,.5,2.5-2-.5-.5,1-2-1-.5-1,3-.5-1-1.5-2.5-1-3.5-5.5-3,.5v-2.5l-2,1-1-3v-1l1-1,2,.5,4.5-2v-4l4.5.5.5-1-1-1.5.5-1,.5-2-1-2,1-.5-.5-1-3-.5-1-2"/>
      <path data-code="buinskij_rajon" data-title="buinskij rajon" class="cls-1" d="M28.62,68.63l1,.5v-.5l-.5-.5-.5.5M39.12,67.63l1.5,1,1.5-1.5-1.5-.5-1.5,1M28.62,64.63l3.5,1,.5,2.5h1l.5-1,.5-.5-1,1.5h2.5l2-1.5,2-2.5-.5-1h-1l.5-1.5h-.5l-1,.5v1h-1v-2l1-2.5,4,1.5,1-.5v2.5h1l.5-2.5h2v-3l1.5-3.5,1.5,1-1.5,2.5v2.5l3,2-.5,2,1,1,1,1v-1l1.5-.5,1,.5,1.5-1.5-1,3.5,1,1.86-.5,3,1,1-1.5,1v1l-1.5-.5-.5,1.5-2.5,1-1.5-.5.5,1.5-.5-.5.5,3,1.5.5,1.5-2,1,3h1.5l-1.5,1.5v.5l-1,.5-.5.5h-1l.5,1-1,1.5-4.5-2-3,2-1,1.5-4.74.68v-1l-1.26.46-.5-2h-1l3-1v-1l-3,1.5v.5h-1.5l-1-2,1.5-2.5-1-.5,1-2-5-.5,1-1.5-4-4,3-8.5"/>
      <path data-code="cheremshanskij_rajon" data-title="cheremshanskij rajon" class="cls-1" d="M130.62,130.63l2.5,1.5-.5,1,2-1.5,2,2,2-1.5.5-1,1,1.5,2.5-2,.5,1,3-2.5,6,2.5-1.5.5v2.5l-1.5.5v2.5l2.5.5.5,2,2-1,1.5,1.5-.5,1,4,3.5h2.5l-4,2.5.5,1-2.5,1.5.5,1,1.5-.5-3,2-1-.5-3,3.5-.5-.5-1,3.5-2.5-1.5-3,.5-.5-7.5h-.5l-2,3.5-4.5-2,3-4.5v-1l-2,1-2.5-1-1.5.5-1.5-2,.5-.5v-1l-1.5-.5-1.5,1.5-1.5-1,.5-2.5-.5-.5,4.5-2-.5-1.5,1-1.5h-1.5l1-1-1.5-3.5"/>
      <path data-code="chistopol_skij_rajon" data-title="chistopol&amp;apos;skij_rajon" class="cls-1" d="M159.64,94.84l-1.02,1.65-.5-.86.5-.64,1.02-.15ZM118.62,95.13l3-.5v-1l-1.5.5,1-1v-1l4.5-1-1.5-4,2.5-2v-3l1-.14,3.5,3.5,2-1.5,1.5,1.5-1,1.5,2,2,11.5-2.5.5-1.5,3.5,4.64-.5,1v1h3l4,3.5-2.5.36.5,1.5,1-1-.5,1h.5v2.5h-1.5l-3-1.5-1,3-2.5.5v1l-1.5-.5-2,2.5-1,3-2.5-.86-2.5,2-.5,2.5v-.5l-5-.5-.5,1.5-1,.5-.02,1.62-.98-1.12h-2.5v-2.5l-2-1-2,.5-.5-1.5-1.5-5.5-2,.5.5-1-1-.5-1-3.5,2-1.5-2.5-1.5"/>
      <path data-code="drozhzhanovskij_rajon" data-title="drozhzhanovskij rajon" class="cls-1" d="M10.12,61.13l2-.5-1.5.5h-.5M12.12,61.63h.5l-.5.5v-.5M9.62,62.63h1v.5h-1v-.5M24.62,77.63l-.5,1.5,1-2-.5.5M2.62,72.13l2-1.5,4.5-.5v-2h.5l1.5-3,1.5-.5,1,1,.5-3,.5-1v1l1,1.5-.5.5,3,3v1.5l3.5-1,.5,2,1,.5v2.5h.5l.5-3.5,1.5-1.5-.5-1h1l-1.5,7.5,2.08-.42,2.92,2.92-1,1.5,5,.5-1,2,1,.5-1.5.5-1,1.5-.5-.5v2h-1.5v-2h-2.5v-1h-1l-.5,1h-1l-1,2h1l-1.5,2-3-2.5v-3l2,.5,1-2.5-3-2.5-1.5,1,.5.5-1,1-2,.5.5,1.5-4.5,1v2.5l-2.5,1.5h-2.5l-2-4-1,1h-1.5l-.5,2.5-1-.5,1.5-5.5,1.5-3h2.5l-.5-1.5,1.5-2.5-4.5-1M7.62,61.63h.5l-.5.5v-.5M34.62,86.13v-.5l3-1.5v1l-3,1"/>
      <path data-code="elabuzhskij_rajon" data-title="elabuzhskij rajon" class="cls-1" d="M204.62,87.63l.5-.5.5,1-1,1v-1.5M172.62,84.13l2.5-2,1.5-3.5,1.5-1,3-7v-1.5l1.5-1,.5,1.5v-2l1,1.5,1.5-.5.5-.5.5,2,2.5-.5v2.5l1,.5,1-2,1.5.5-.5,1.5-.5-.5-1.5.5,2,1.5-1,.5-.5,2.5,2-2,2.5-.5.5,1.5h-1l4,3.5h2.09l-1.09,2.5,3,3.5-.5.5.5,1.5,1,.5-2,1.5,1,1.5,2-1,1,1-1,3.36-3.5,1.5v-.5l-1,.5v1h-3l-3-1.5-1.04-4.83-4.96,1.83-1-.5,1-.5-.5-1-.5.5v1l-3-2.86-1.5,1-1-1-2,2.5v2l-1.5,1-1-2h-2.5l-2.5-1.5v-2.5l1-1.5-.5-3"/>
      <path data-code="jutazinskij_rajon" data-title="jutazinskij rajon" class="cls-1" d="M194.12,174.13l1-.5,3,.5v-1.5l1,.5,4.5,1.5h6l1-.5v-.5l2,2,5-.5-3,6.5-2.5,1.5-1,2-5,1.5-.5,1.5-1.5-1-1.5,3.5h-2l-1,1.5-1.5-.5,1-2-3.5-3-2-.5-.5-2,1.5-1.5.5-2.5-.5-2.5.5-.5h-.5l1-1-1.5-2"/>
      <path data-code="kajbickij_rajon" data-title="kajbickij rajon" class="cls-1" d="M60.12,36.13l1,1v.5l-1.5-.5.5-1M41.62,37.13h.5v2l-.5-1.5v-.5M37.62,39.13h2l.5-1v1.5l1.5,1v1l1,.5,1.5-2h3l.5-1.5,2-.5,1-1.5,3-.5,1-2,2.5.5-.5,1h.5l1-.5,1.12,1.18-.62,1.69,1,2,3-1.5,1.5.5v1l-.5-.5-.5,1,4.5,2,2.67-.78.33,2.28,1.5.5-1,1.5h-.5l.5,1.5-1,1,1.5,1.5-.5.14-2.5-2-.5.5-1.5-1-1.5,4h-1l1,1-1,1.5-3-1-1.5,1.5-2.5-3.5-1,1.5-.5-1-1.5,1-2-1-2-4-1,2.5h-2l.5-3-3-3-1.5,2.5.5,2-1.5-.5.5-1-1-1,.5-2h-1v1l-2,2.5-2.5-1-1,1-1-.5,3.5-4v-1.5l.5-1-1-1.5"/>
      <path data-code="kamsko-ust_inskij_rajon" data-title="kamsko-ust&amp;apos;inskij_rajon" class="cls-1" d="M70.62,61.13l1-1h1.5l1-1,2,.86,2.5-2h.5v-1.36,1.36l1.5-1.36h-1.5l1.5-1-2-.5,2.5-.14-1-1,1-1h2l.5-1.5,1.5,1.5.5-1,.55,2.51,2.5.5-.05.62-1.5,2-1.5,3h3l-1.5,2.5-.5,3,1.5,7-.5,2,1.5,3.5.5,3.36-2,1.5-2-1.5-.5.5-.5,1-.5-.5-.5,1-3.5-1.5-4,1.5-2.5-3-2.5.19-.5-1.69-1.5-1,.5-1-1,.5.5.5h-.5v-2.5l1.5,1,2-1-1.5-2.5-1-.5-.5,1-.5-1,1-1v-.36l1.5-1,.5-2.5,1.5-.5-1.5-2,1-1-2-2,.5-.5-.5-1"/>
      <path data-code="kazan_" data-title="kazan&amp;apos;" class="cls-1" d="M108.62,30.49l-.5,1v-1h.5ZM92.62,30.12l1.5.5-.5-1.5h1l.5-1,1.5,2,1.5-1h1l.5-1.5,1.5.5,1,2,.5-1,3.5,1.5,1,2,1-1,.5.5-.5,1-1-.5,2,3,1,3.36-2.5,3,.5,3.14h-4l1.5,2.5-3.5,1.5-.5-2.5-1.5-2.5h-1l1,1-.5,2.5h-1v-1.5h-2.5l-1.5,3-.5-1.5,1,.5v-1.5l2.5-2.5-4.74-1.58,1.24-2.06,3-3.36-.5-1.5-4.97-2.58,1.47-1.92-.5-1"/>
      <path data-code="kukmorskij_rajon" data-title="kukmorskij rajon" class="cls-1" d="M154.12,29.63h3l2.5,1,2-1.5.5-1.5,2.5-1.5,5.5-1v1l-3.5,2,1,.5.5,2,2.5,2.5,3.5-.5-.5-5.5.5.5,3,4.5-1.5.5-.5,3.5.5.5-.5,2-4,.5.5,2-.5,1.5,4.5,2-1.5,1-1,1.5,2,3-1,1,3-.5,2.5,2.5-1,2.5,2,1,.5,2h1.5l.5-1.5,4-.5,2.5,1.5,2-.5.5,1.5h1.5l-.5,2-1,1-3-1-5,1-1-.5-1,2-.5-3.5-1.5,1-1-1,1-1.5-2-2.5h-1l1,2-3.5-1-.5,1v2h-4l-.5-3-3-.5-1,1,.5,2.5-5,1-.5-.5,1.5-1-3-1-1,2.86-.5-1.5,1.5-4,.5-.5-.5-3.36,3-5-3-4.5-.5-5-.5.5-.5-.5h1.5l-.5-1-1.5,1-1-1,.5-2-1.5-.5-1-4.5M172.12,94.13l1-1v1h-1"/>
      <path data-code="laishevskij_rajon" data-title="laishevskij rajon" class="cls-1" d="M90.62,44.99l1-2h1l.26-.44,4.74,1.58-2.5,2.5v1.5l-1-.5.5,1.5,1.5-3h2.5v1.5h1l.5-2.5-1-1h1l1.5,2.5.5,2.5,3.5-1.5-1.5-2.5h1l1.5,3-.5,4,2,2.5,2.5-1-1,2h-1v1l5.5,2.36,2.5,7.5-1.5,2,.5,1.5-2.5.5-.5.5-.5,5.5v2l-2,.14-1.5-1.5-.5.5-1.5-2-2.5,2-2-1.5-1,2-4,1.36-2,1.5-1.5-1-1-3.36-3.5,2-1.5-3.5.5-2-1.5-7,.5-3,1.5-2.5h-3l1.5-3,1.5-2,.5-6.14,1.5-4.5"/>
      <path data-code="leninogorskij_rajon" data-title="leninogorskij rajon" class="cls-1" d="M144.62,157.63l2-.5,2.5,1.5,1-3.5.5.5,3-3.5,1,.5,3-2-1.5.5-.5-1,2.5-1.5-.5-1,2.47-1.55,3.03-.45v1.5l1.5,1-2.5.5,1,.5-.5,1,2-.5-1.5,3h1l-.5-1h1l2,2v1l1.5.5-.5,1,1.5-1.5-2.5,4.5h4v1l.5-2.5,2.5.5,1,3.5,1-.5,1,2-1.5,2.5,1,2,3,.5.5,1-1,.5,1,2-.5,2-.5,1,1,1.5-.5,1-4.5-.5v4l-4.5,2-2-.5,1-2h-1l1.5-1.5-2-2-2.5,1-.5,2-1.5.5.5-3.5-1.5-.5-.5.5-1.5-1.5-2.5,1-.5,1.5-2,1.5-1.5-3-.5,2.5-1.5,1.5-1-2.5,1.5-1-.5-1,2-1.5-2-2v.5l-1-.5-.5.5h.5l1,1-2-.5,1-1.5-1,.5-1.5-.5,1-2,1,1v-1l1.5-1,.5-3v-1l.5-.5-4.5-2.5v-1l-3.5-3"/>
      <path data-code="mamadyshskij_rajon" data-title="mamadyshskij rajon" class="cls-1" d="M153.62,63.49l.53-2.12,4.47,1.12,1-1.5-1.5.5,1-2.86,3,1-1.5,1,.5.5,5-1-.5-2.5,1-1,3,.5.5,3h4v-2l.5-1,3.5,1-1-2h1l1.5,1h-.5l1,1.5-1,1.5,1,1,1-1,1,3.5-1,2.5.5,4-3.5,7.5-1.5,1-1.5,3.5-2.5,2,.5,3-1,1.5v2l2.5,2-1.5.92v-.42l-1,1h1l-1,2v2l-1,.5.5-1-1.5.5.5-1-2-.5-3.5,1-4-3-3.5.5-4-3.5h-3v-1l.5-1-3.5-4.64,1.5-1-1.5-2.5,1,.5-.5-1,1.5-.5-1-1,.5-1,2-.5-2-2,.5-1.5,1.5,1.5,1.5-3-2-.5,2-1-2-5-2-2,5-1Z"/>
      <path data-code="mendeleevskij_rajon" data-title="mendeleevskij rajon" class="cls-1" d="M209.62,73.13l1-.5-.5,2-1-.5.5-1M194.62,76.13l3-.5,2-2,.5.5v1.5l1.5.5-.5.5.5,3h-3l-4-3.5M204.62,87.63v1.5l1-1-.5-1-.5.5M199.62,82.13l1-1,3,1.5.5-1.5h1.5v-1l2.5.5.5-1.5-1-.5,1-2.5,1,.5-.5-.5,1-1,1,.5v-4h1l.5,3h1.5v4h2l.5,2.5,2-1-1.5-3,1.5-1,1,2.5h1v2l2,1,1,4-9,5.5-2.5-1-4-3.5-1.5,1.5-1,3-1-1-2,1-1-1.5,2-1.5-1-.5-.5-1.5.5-.5-3-3.5"/>
      <path data-code="menzelinskij_rajon" data-title="menzelinskij rajon" class="cls-1" d="M212.12,103.99l2,.5,1-1,2,3.14,1-1h-.5l-.5-1,1,.5,1-2,4.5-1.5.5-2.5.5.5,1-1v1.5l1-.5,1-2,2.5-2.5,1.5,2.5v2l1.5,2.5,1.5-1.5,8,5,.5,1h-1,.5v2h-3l-1.5,1,.5,2.5h3l-.5.5,1,2-2.5-1,.5,1.5-.5,1,2,.5v.5l-1-.5v2l2.5.5h-2l-1.5,2h-.5l-2,1.5-1.5-.5-1,1.5-4.5,1.5v1.5l2.5-.5.5,2.5h-1.5l.5,1,1-.5.5,2.5.5,1-3.5,1-1-2h-1l-1.5,1.5h-1.5v-1l1-1.5-3.5-4,1.5.5v-1h-2l-3.5,2.5-1-1.5-2.5-.5v-1.5h1.5v-1.5l-1-1v-1.64h-1.5l.03-1.17-1.53-.83v-5.5l2.5-1.5-4.5-4-.5-1.5,1-1v-.5l.5-1Z"/>
      <path data-code="musljumovskij_rajon" data-title="musljumovskij rajon" class="cls-1" d="M203.62,141.13l3.5-4,.5-2.5,1-1.5v-1l2-1v-1.5l1.5-2,1.5-1-.5-2.5,1-1,2-.5,1,1v1.5h-1.5v1.5l2.5.5,1,1.5,3.5-2.5h2v1l-1.5-.5,3.5,4-1,1.5v1h1.5l1.5-1.5h1l1,2,3.5-1-.5-1,5-1,.5,1-2.5,1.5v1.5l1,1.5,2.5-.5.5,1.5-1,2.5v1.5h1v3l-4.5-.5-1.5,2v1-1l-3.5.5v3l-1,.5-5.5-4-3,.5.5,1.5-1,.5-7.5-3-1.5,3.5-1.5-2.5-.5-3.5-3-1.5-1.5,2-2-2"/>
      <path data-code="naberezhnye_chelny" data-title="naberezhnye chelny" class="cls-1" d="M204.12,94.99l.03-.78.47.28-.52.22M197.12,96.99h3v-1l1-.5v2h2l-.5-.5,1.5-1,1-1.5h3.5v1.5l1.5-1v1.5l-1,.5,1.5,3-.5,1-3,1,1,1h1.5v.38s.5-.38.5-.38v.5l-2-.5-.5-1h-3v-.5l1-.5-1-2-2,1v1.5l-3,.5v-1.5h1.5l-3-1.5.5.5h-1.5l1-.5-1-2"/>
      <path data-code="nizhnekamskij_rajon" data-title="nizhnekamskij rajon" class="cls-1" d="M145.12,104.49l2-2.5,1.5.5v-1l2.5-.5,1-3,3,1.5h1.5v-2.5h-.5l.5-1-1,1-.5-1.5,3.5-.5-.5.64.5.86,1.02-1.65,1.48-.21,4,3,3.5-1,2,.5-.5,1,1.5-.5-.5,1,1-.5v-2l1-2v-.58l1.5-.92h2.5l1,2,1.5-1v-2l2-2.5,1,1,1.5-1,3,2.86v-1l.5-.5.5,1-1,.5,1,.5,4.96-1.83.19.88-2.65.95.5.5.5,4-2,1.5.5.5.5,2-3,1-1-1,1-.5-1-.5-1.5,1.5h-1l-.5,1.5-1,1,.5,1-3.5,1-1.5,4-2.5.5v1l-1.5-.5-1.5,2.5-2-1.5-1,3,1-.5,1.5,1.5-1.5,1.5-2.5.5-2-1.5.17.83-.67,1.17-2-.5-1,2-3.5,1.5-4.5-3,3-2h1l-.5,1,1.5-.5.5.5,1-2.5,2-.5-1-1,.5-1-8-4.5-2.5.5-1.5-1.5-2.5,1-1-2.5-2-1"/>
      <path data-code="novosheshminskij_rajon" data-title="novosheshminskij rajon" class="cls-1" d="M132.12,112.13l1-.5.5-1.5,5,.5v.5l.5-2.5,2.5-2,2.5.86,1-3,2,1,1,2.5,2.5-1,1.5,1.5,2.5-.5,8,4.5-.5,1,1,1-2,.5-1,2.5-.5-.5-1.5.5.5-1h-1l-3,2,1.89,1.26-1.39,1.87.5.5-1,1.5v1h-1l.03-.88-1.53.38-.5,3-1.5.5,1,.5,1-.5.5,1h-.5v1.5l.5.5h-1l.5,1-6-2.5-3,2.5-.5-1-2.5,2-1-1.5h2v-1.5l-5.5-2,.5-1-.5-.5.5-1-1-.5.5-1h1.5l-2.5-2.5,1-1-1.5.5v-3.5l.5-.5-2.52-2.88.02-1.62"/>
      <path data-code="nurlatskij_rajon" data-title="nurlatskij rajon" class="cls-1" d="M93.12,132.63v-.5l-.5.5h.5ZM92.62,134.13v-1l-.5.5.5.5ZM87.62,129.99l2.5-1-1-1,1.5-2,1.5,1.5-.5-2,6,4-.5-2,1-1-.5-1.5h2.5l3-1.86.5-2.5,2-3.5-.5-.5,2-1.5,1,.5,1-1,3.5,1,4.5,2.86,4,4.14-1.5.5v1l-.5.5-1-1,.5-2.5-1.5.5.5,1-2,1,1.5,1-1,.5-1-.5-.5,1,1,1h-.5l-2-1.5-.5-1h-.5l2,4v1l-1.5,2,1,2-.5.5.5,1-.5.5,2,1.5v-2l1,.5v3l1-2,.5,1-.5,1,3,.5v1.36l1-1.86.5,1,.5-1.5h1.5v1l1-1v2l3,.5.5.5-.5,2.5,1.12.74,1.88-1.24,1.5.5-2.5,1.36-1,1.5-3,1.5v.5l-1.5,1.5-2-1.5-2.5,4,.5,1-2.5,1.5-.5,2.5-2-.5-1.5,3-2-1,1.5-1.5-1-1h-2.5l-2-2,.5-2-2.5-.5-4.5,1.5-3-.5v-1h.5l1.5-5.5-1.5-.5.5-5.5h-2v1.5l-1.5-.5-.5,1-2-1,1-3.5-.5-1h1v-1.36l-.5-.5-1,1.86-3-3,1-.36-.5-1,.5-1h2v1l1,.5-.5-1.5-3.5-1-.5,3,.5,1.36-2.5-1.5,1-.5-1-2.5"/>
      <path data-code="pestrechinskij_rajon" data-title="pestrechinskij rajon" class="cls-1" d="M132.62,55.49l.5.5v-.5h-.5M131.62,55.99v.5h.5v-.5h-.5M128.62,56.99h1v-.5h-.5l-.5.5ZM108.12,45.12l-.5-3.14,2.5-3,4,1.5v-1l1,.5.5-.5h-.5l1-1,1,3.5,2,.5,2-1v-1l1.5-1.5,2.5,2.5h1.5l.5-1.36h3l.5,1-.5.5,1.5,3-.06.63-.95.24,1.5,1,1.5,4.5-1,3,3,5-2.5-.5-2.5,1.5.46.61-.46.89-2.5-1v.5l-1,2.5-.5-.5-.5,1-4.5-4.5-1,1h-1l-.5.5-2.5-2.5-2.5.5-5.5-2.36v-1h1l1-2-2.5,1-2-2.5.5-4-1.5-3h3Z"/>
      <path data-code="rybno-slobodskij_rajon" data-title="rybno-slobodskij rajon" class="cls-1" d="M114.12,58.99l2.5-.5,2.5,2.5.5-.5h1l1-1,4.5,4.5.5-1,.5.5,1-2.5v-.5l2.5,1,.46-.89,1.04,1.39-1.5,2-1-.5v1.5l1-1,1.5,1,1,2,1-1.5,3-.5,8.5-.5-2-3.5h2.5v2.5l.95.63,1.05-.13,2.5,2.5,2,5-2,1,2,.5-1.5,3-1.5-1.5-.5,1.5,2,2-2,.5-.5,1,1,1-1.5.5.5,1-1-.5,1.5,2.5-1.5,1-.5,1.5-11.5,2.5-2-2,1-1.5-1.5-1.5-2,1.5-3.5-3.5-3.5.5-.5-1,.5-1.5-4,.5v-1.5l-2.5-1h-1l.5,2-1,.5-3-3v1h-1v-2l.5-5.5.5-.5,2.5-.5-.5-1.5,1.5-2-2.5-7.5"/>
      <path data-code="sabinskij_rajon" data-title="sabinskij rajon" class="cls-1" d="M145.12,36.49h1-1M140.12,39.12h2.5l1-2.5,1.5-2,1,1,3,.5.5-1.5,1-1,1,.5.5-1.5,1.5-1.5-2.5-.5.5-1h2.5l1,4.5,1.5.5-.5,2,1,1,1.5-1,.5,1h-1.39l.39.5.5-.5.5,5,3,4.5-3,5,.5,3.36-.5.5-.5,2.5-2.5-1.5-.5,2-1.5.5-1.5,1,.5,1,1.03-.12-.53,2.12-5,1-.5-.5,2.5-4.5-1.5-1-2,.5-.5-2.5-3.5,1.5,2.5-3-1-1.5.5-.5,1-2.5-3.5-1,.5-1-1.5-4,1-.5-2.5-4.86"/>
      <path data-code="sarmanovskij_rajon" data-title="sarmanovskij rajon" class="cls-1" d="M190.62,122.99l3-2v-1l2-1.5,1.5.5,2-1.5,3,3,3.5.5,2-1.5,5.5-.5,1.53.83-.03,1.17h1.5v1.64l-2,.5-1,1,.5,2.5-1.5,1-1.5,2v1.5l-2,1v1l-1,1.5-.5,2.5-3.5,4,2,2-4-1.5-1,1.5h-1l-.5,1-2,.5-1.5,2-.36.9-3.14-.4.5-.5-.5-2h-1l-.5-4-2.5.36-2-5v-1l1-.5-.5-2,1-1.5,1,1,2-2.5-.5-4,.5-.5.5-1.5-.5-.5"/>
      <path data-code="spasskij_rajon__tatarstan_" data-title="spasskij_rajon_(tatarstan)" class="cls-1" d="M64.62,83.99l2.5-2.5,6.5-.5,2.5,3,4-1.5,3.5,1.5.5-1,.5.5.5-1,.5-.5,2,1.5,2-1.5-.5-3.36,3.5-2,1,3.36,1.5,1,2-1.5,4-1.36-2.5,7.5.5,1-.5-.5-.5,4.5-2.5,4h2.5l.65,1.3-7.15,4.06-.5-.5-1.5.5v1l-3.5-.5,1,2-1.5.5.5,1-2.5,2-1.5,2.64,1,1-.5,2,.5.5-2,4.5,1.5,1v1l-1.5,1.5h.5v2l4,1.5-3.5,1.36-2.5-2h-3.5l-2-1.5.5-1,1.5-.5.5-1.5-1-1.5,2-2v-2l-2-.5,1-1.5h2l-1-1.5,1-3.5-1.5-4,1-.5-1.5-.5-.5-4.5-2-.5.5,2-1.5.5-1-1.5h-2l-3,2.5-1-.5-1-2.5-1,1-2.5-1.5.5-1.5,1.5-9,1.5.5,1.5-1.5-2-.5"/>
      <path data-code="tetjushskij_rajon" data-title="tetjushskij rajon" class="cls-1" d="M35.12,88.99l7-1,1-1.5,3-2,4.5,2,1-1.5-.5-1h1l.5-.5,1-.5v-.5l1.5-1.5h-1.5l-1-3-1.5,2-1.5-.5-.5-3,.5.5-.5-1.5,1.5.5,2.5-1,.5-1.5,1.5.5v-1l1.5-1-1-1,.5-3h1.5l.5,2.5,6-.36-.5-1,1-.5,5,3v.36l-1,1,.5,1,.5-1,1,.5,1.5,2.5-2,1-1.5-1v2.5h.5l-.5-.5,1-.5-.5,1,1.5,1,.5,1.69-4,.31-2,2,1.5,1-1.5,1.5-1.5-.5-1.5,9-.5,1.5-2-1-5.5,10.5-14-7.5-2-5,1-1-.5-1.5-3,1.5-.5-3"/>
      <path data-code="tjuljachinskij_rajon" data-title="tjuljachinskij rajon" class="cls-1" d="M136.62,42.63h.5v-.5l-.5-.5v1ZM131.57,45.25l.06-.63h1v-1l.5-.5,1,1v-1.5h1.5v-.5l1.5-1,.5,1,.5-1.5-.5-1,1.5.5.5-1h.5l2.5,4.86-1,.5,1.5,4-.5,1,3.5,1-1,2.5-.5.5,1,1.5-2.5,3,3.5-1.5.5,2.5,2-.5,1.5,1-.5,1.5-2,3-1.05.13-.95-.63v-2.5h-2.5l2,3.5-8.5.5-3,.5-1,1.5-1-2-1.5-1-1,1v-1.5l1,.5,1.5-2-1.5-2,2.5-1.5,2.5.5-3-5,1-3-1.5-4.5-1.5-1,.95-.24ZM132.62,55.49h.5v.5l-.5-.5M131.62,55.99h.5v.5h-.5v-.5M128.62,56.99l.5-.5h.5v.5h-1M152.62,60.49l1.5-1,1.5-.5.5-2,2.5,1.5-1,1.5.5,1.5,1.5-.5-1,1.5h-2.5l-1.97-1.12-1.03.12-.5-1Z"/>
      <path data-code="tukaevskij_rajon" data-title="tukaevskij rajon" class="cls-1" d="M182.62,103.99l1-1,.5-1.5h1l1.5-1.5,1,.5-1,.5,1,1,3-1-.5-2-.5-.5,2-1.5-.5-4,.5-1,.5-.04-.5-.46,1.65.05.85,3.95,3,1.5,1,2-1,.5h1.5l-.5-.5,3,1.5h-1.5v1.5l3-.5v-1.5l2-1,1,2-1,.5v.5h2.5l1,1,2,.5v-.5l-.49.38v-.38h-1.51l-.5-1h-.5l3-1,.5-1-1.5-3,1-.5v-1.5l-1.5,1v-1.5h-3.5l-1,1.5-1.5,1,.5.5h-2v-1.5l3.5-1.5,2-6.36,1.5-1.5,4,3.5,2.5,1,6.81-4.26,2.19,1.76.5,2.5,2-.5,4,4.5-2.5,2.5-1,2-1,.5v-1.5l-1,1-.5-.5-.5,2.5-4.5,1.5-1,2-1-.5.46.92.54.08-1,1-2-3.14-1,1-2-.5-.5,1v.5l-1,1,.5,1.5,4.5,4-2.5,1.5v5.5l-5.5.5-2,1.5-3.5-.5-3-3-2,1.5-1.5-1.5,1.5-1.5h2.5l-1-2v-1l-7.5-4.5.5-1-1,1-.5-.5,1-2-1,.5-1-1-2,1-2-2.5-1.5.5v-1l-.5,1.5-.5-1"/>
      <path data-code="verkhneuslonskij_rajon" data-title="verkhneuslonskij rajon" class="cls-1" d="M72.12,40.49l.5,1-.5-3,1-.5.5-3,2,1,.5-1h1.5v-1l1.5,1,2.5-2v-1l2.5,2,1-.5-.5-.5,2-4,3,1v2l7,3.64.5,1.5-3,3.36-1.5,2.5h-1l-1,2-1.5,4.5-.45,5.51-2.5-.5-.55-2.51-.5,1-1.5-1.5-.5,1.5h-2l-1,1,1,1v.5l-2.5-.36,2,.5-1.5,1h1.5l-1.5,1.36h-.5l-2.5,2-2-.86-1,1-1-.5,1-1.5-1.5-.14-1-2.5-1.5,1,1.5-2-.5-4,1.5-.5-1.5-1.5,1-1-.5-1.5h.5l1-1.5-1.5-.5-.5-3.5h2Z"/>
      <path data-code="vysokogorskij_rajon" data-title="vysokogorskij rajon" class="cls-1" d="M108.12,30.49v1l.5-1h-.5M101.12,14.99l2-2,3,.5,2-1h1l1-2,1.5,1.5,1.5-.5-.5-2.5-1,.5-2-1.5.5-2h4.5l1-1.5,1-.5-.5-.5,1-1,1.5,1.5,1.5-2,.5.5-.5,2.5-3,2.5,1.5,1.5,1-1.5h1l-1,4-1.5,1v4l.5,1,4.5,1-1,1v3.64h-1l.5,2,2.5.86v1.64l2.5-.5-1,2,.5.5,2,.5,1-.64v2.14l-1,.5v1.5l-1.5,1-.5,2.5h-.5l1.5,3-.5,1.36h-1.5l-2.5-2.5-1.5,1.5v1l-2,1-2-.5-1-3.5-1,1h.5l-.5.5-1-.5v1l-4-1.5-1-3.36-2-3,1,.5.5-1-.5-.5-1,1-1-2-3.5-1.5-.5-2.64,1-.5.5,1.5h1v-1l-1-.5-.5-1.5,4,.5-2.5-4-2,.5-1.5-6.5"/>
      <path data-code="zainskij_rajon" data-title="zainskij rajon" class="cls-1" d="M191.62,91.99l-.5,1-.5-.5,1-.5ZM163.12,121.99l1-2,1,.5,1.5-1.5-.5-2.5,2,1.5,2.5-.5,1.5-1.5-1.5-1.5-1,.5,1-3,2,1.5,1.5-2.5,1.5.5v-1l2.5-.5,1.5-4,2.5-1.5,1,.5.5-1.5v1l1.5-.5,2,1v1.5l2-1,1,1,1-.5-1,2,.5.5,1-1-.5,1,7.5,4.5v1l1,2h-2.5l-1.5,1.5,1.5,1.5-1.5-.5-2,1.5v1l-3,2,.5.5-.5,1.5-.5.5.5,4-2,2.5-1-1-1,1.5.5,2-1,.5v1l.51,1.28-.51.22-4-1-3.5,1.5-1.5-1,1-3v-2.5h-.5l-1,1.5-5,1.14.5-1-3-1,.5-3.5-1-.5-1,1,1,.5-1.5.5,1,.5-.5,1-2.5.5,1.5-1v-1h-2l-.5-2-1.5-1,.5-1.5-.5-.64,1-1v-1.5l-.5-.5"/>
      <path data-code="zelenodol_skij_rajon" data-title="zelenodol&amp;apos;skij_rajon" class="cls-1" d="M60.12,36.49l-.5.5,1.5.5-1-1M59.62,27.99h1l.5-1,2,1.5,1-3,1,.5-1.5,2.5.5.5,1.5-2.5,3.5,2,.5-1.5,1.5-1v-1h2v-1.5l2,2,2.5.5,1-.5-.5-1.5.5-1,2,1-1-2,.5-.5-.5-1.5,3-2,2.5-.5,6,3.5,1.5-.5,2-2.5,1-.5-1.5-2h2v-1.5l1.5-.5-.5,2.5,1.5-.5,1.5,1.5,1-1,1.5,2v3.5l2-.5,2.5,4-4-.5.5,1.5,1,.5v1h-1l-.5-1.5-1,.5.5,2.64-.5,1-1-2-1.5-.5-.5,1.5h-1l-1.5,1-1.5-2-.5,1h-1l.5,1.5-1.5-.5.5,1-1.47,1.92-2.03-1.05v-2l-3-1-2,4,.5.5-1,.5-2.5-2v1l-2.5,2-1.5-1v1h-1.5l-.5,1-2-1-.5,3-1,.5.5,3-.5-1h-2l.17,1.22-2.67.78-4.5-2,.5-1,.5.5v-1l-1.5-.5-3,1.5-1-2,.5-1.5,1-1.5,2-1-2-2,1.5-2h-3l1-2"/>
    </g>
</svg>