<svg xmlns="http://www.w3.org/2000/svg" viewBox="0 0 1398.31 1723.91">
      <path data-code="SA-ABY" d="m901.16,714.41l-.5-2.5,1.5-3,2.5-1-1-1.5-.5-1,1-2.5-.5-1.5,1.5-1.5-.5-2,1.5-2v-3.5l-3-5.5,6.5-8.5v-1l-2-.5-6-5-2-2.5-4.5-4-1-3-1.5-.5-.5-.5-1-.5-1-1.5-1.5-.5.5-1.5-1.5-1-.5-1.5,5-8.5,2.5.5,1.5-2,1.5.5,4.5-4,2-1.5,2,.5,1-2h3.5l1.5-.5-1.5-2,.5-1.5-3-2-1.5-3.5-1.5-1.5-2.5-1.5-5-.5-1.5-2.5-2.5-1.5,1-1.5h3v-3.5l2-2h2.5l2-2.5,2.5-.5.5-1-.5-2,1-.5h2l1.5,1.5,1.5,1,1-1.5,2.5.5,2.5-1.5,3-4.5,1,.5,1-1,3.5-1.5,1,1.5,3-2.5,2.5,1v2.5l2,3.5,4-.5,2.5.5,6.5-5,1.5-4,2,1,1.5-1.5,1.5,1.5,2.5-1,3.5.5,3.5-3-3-3.5,1.5-2,2-1.5h6l2-2.5,5.5-2.5,3.5.5,3-2,2.5,1.5.5,1.5,3.5-2,1,1,7,1,6.5-3,2-2,3.5-1,8-11.5,2-5,2-1,4.5-1,3,.5,1.5-1.5-1.5-1.5v-3l3.5-1,.5-1-1.5-1.5.5-1.5,5-6h1l1.5-4,6.5-4.5,1.5,1.5,1.5,4.5,1,.5v5.5l1,1.5,3.5-1.5,1.5,2,1,2-1.5,3.5-4.5,5,1.5,1.5.5,1.5,1,.5.5,1.5.5,1.5-3,2.5v1.5l3.5.5-1,2,7,1,1.5,1.5,2-.5,4.5,1.5v3.5l1.5,1,.5,1-3,8-4,2.5-2,3-3,1-1.5,2.5-4,1-2-.5-6.5,4-1,2,.5,2,1.5.5.5,1.5,1.5,1,1,1.5,4,1.5,6,.5v4l1.5,1.5,1,8,3.5,2.5,3.5,2,4-2.5,2.5,2.5,8-4.5,1,1.5,4.5,2,1,2,1,2.5,2.5,2,1.5,3,2.5,2,.5,5-4,4.5v3l-2.5,4-3,2.5,1,2h3.5l4,3.5,2,8.5-1.5,6.5-3.5,3-2.5,4-4-.5-2.5-4-3.5,2.5h-1l-1.5-2.5-3.5.5-2.5,2,4.5,4.5,3.5.5,1,2.5,1.5,2.5,2.5,1.5,1.5,2-7.5,6-7,2.5-4-2.5-3-.5-2.5,1.5-5,4.5-4.5.5-.5,4.5-3,6.5-2,8.5v2l2.5,7v4l-1,5.5,2,5.5-1,2.5,1,2-1.5,2-2,1-.5,2-1.5-1.5-6-1-3,1-.5-1-5.5-2.5-2.5,2h-2.5l-2.5-2.5-1.5-.5-9,1.5-1-2.5-4.5,1-.5-1.5-4-3-3.5,1-3-2-2,1-3.5-4.5h-9l-7-2.5-3,1-4-1.5-17.5,11-5.5-1.5h-4.5l-6.5-3-2.5-2-.5-2-3.5-6-8.5-1.5-1.5-2-1.5-4.5-3.5-3.5-2-3v-6l-.5-2.5-3-.5-1-1.5-2-1-1-1.5-2-1-2.5-1.5"/>
      <path data-code="SA-ALD" d="m656.66,1583.41v-2l-1-2-.5-2.5,4-1.5,1-.5-.5-2-3.5-5-4-10,1-8,2.5-1.5-.5-4.5,3-2.5-1-2-2.5-.5-2-1.5-8-2.5-2-2.5-.5-2.5.5-2-1.5-2.5,1-2-.5-7,3-1,.5-1-.5-1,3-7,6.5-5v-3l2.5-2v-2.5l1-1.5-1.5-4.5,2.5.5.5-2,3-1-.5-1,4-3,1,.5,1,2.5h.5l2.5-1,1-1.5,1.5-.5.5.5.5-1.5-.5-2.5,3.5-1v-1.5l-3-6,1-2h1.5l.5-1.5.5-.5-2-3.5v-1l4-2v-1.5l-2-2.5.5-1.5,1.5-1.5,6.5,1,6-1.5.5-5,1.5.5,4-3.5h2v-2.5l4-3-.5-2,2-1.5-.5-2.5-1-1.5v-3l5-4,6.5-3,2,2,2.5,1,3.5-1.5v-5l2-3.5-.5-3,3-1,3,1.5,3-6-1-3.5,1.5-3.5,3-.5,3.5,5,2,1,3.5-3.5,1-4,3.5-2-.5-9,1-1.5,1-3,3.5-3.5v-5h1l4,2.5,2.5-.5,6-9-1.5-4.5.5-5.5-1-2.5-5.5-7.5,12-4.5,5,.5,2,1.5,8.5-2,2.5,1.5,4.5,12,.5,4.5,2,5.5,6,5.5,1.5,3,2.5,2.5,2,4.5,2,3,1,4,3,3.5.5,2,2,4,7,3,1.5,1.5v1l3,3,8,4,1,1.5,3.5-1v-1.5l6-4,1.5-3,4,1,1.5,2h1.5l2.5-1v-2.5l1.5-2,2.5.5,1.5-1,1.5,1.5,3.5,1.5,5.5-2.5.5-1.5-.5-1.5,1.5-4.5,2.5-.5,1.5-2-1-5,1-2-.5-2,.5-3,2.5-2.5-1-3,4.5-4.5,2.5-.5,2.5,1.5,2.5-1,2.5,3.5,3,.5.5-1.5,4-1,.5,2v1l1.5,6.5,1.5,3v2.5l4.5,8,.5,2.5-.5,1.5,1.5,3,2.5,3.5,3,1.5.5,2,2,2,2,5,3,2,1,2.5,3,.5,1.5-1-.5-2,3-1,4,2.5,2-.5,2,2,1,3.5h4l.5,1v2l1,4.5.5,1.5,2.5,2.5,5.5-3-.5-5,1.5-1.5,1,3,2.5,4-.5,2,1.5.5.5,2,1.5,1v4l2,.5-2.5,9,.5.5h1.5l1,1.5-4,1.5-1-1-4.5,3.5,2.5,2,1,2-.5,1,1,1,2.5,1v2l1.5,1.5v2l1,3.5-3.5-.5-1,6.5,1,.5-.5,2.5,4.5.5,2,1,.5,1.5-1.5,3-3,1-.5-2-4.5-1,.5-1-3.5-1.5-1.5,2-2.5-2-2.5-.5-6,3v2l.5.5,1.5-.5,2.5,3.5,4.5.5.5,2-1.5,1.5.5,1,5,1.5,1,1.5,3.5-.5,1,2-1.5,2,.5.5h5l1,2,3,.5,4.5,2.5.5,1.5,1.5,1.5-2,2.5v3.5l-3.5,1-1.5,4-1.5.5,3,2-2,5.5-.5,4,1.5,4,1.5,1,.5,2.5-2.5,1-.5,1.5.5,1.5-.5.5-1-.5-4,2-3.5-3-.5,5.5-3,1.5,1.5,1.5,2.5,1,1,2.5,1.5-.5-.5-2,2.5-.5h1l.5,1.5h3.5l-2,3.5-5.5,3-2,4-5.5,3.5-2.5,10.5-2.5,3-2,4.5-2,1.5-3.5.5-4.5-2.5-.5-1.5-3.5-1.5-.5,2,1,1v1.5l-1.5,2.5-.5-1.5-2-2.5-1-2-4-2.5-12,1.5-7,3-4,5.5-4,1.5-.5,2-6,4.5-2-1.5-4,1.5-1.5-2-8.5,1-2,4.5,1,2.5-2.5,2-1.5,2.5-3-.5-2.5,1-2.5-1.5-5-.5-3,1.5-.5,3.5-5.5-3.5-2,.5-1.5,1-3.5,7.5-2-.5-3.5-2.5-6-1-3-2-4-5-2-4.5v-2l-1.5-1.5-3-.5-17,2.5-2.5-1-1.5-4.5-4,3.5-10,1.5-3-2-2.5-.5-2-2-5,.5-2.5-1-2-1-1-4-1-.5-7.5-.5-1,1,1,1-.5,2h-2l-1.5,2,2,5.5-2,3,.5,2-2,.5-1-1.5-4-2-9,7h-3l-2.5-1-3-3.5-3,.5-1-1.5h-2l-2.5-4-2.5-.5-2-2.5.5-2,2-1-1-3,1-2v-1.5l-1.5-2-2.5-1-1.5-3,2-3,2-1,.5-1.5-1-4.5-1-2,.5-3-.5-1.5-1.5-.5.5-.5-.5-4-3-1.5,5.5-4.5.5-6,2-3-1-1.5-1.5-.5-6,1.5-6,4,.5,1-.5.5-2.5,1,1.5,3,1,1v2l1,1.5-1.5,1.5-4.5-2.5-.5.5.5,2.5,2-1,1,2-3,4.5-3.5-2,1.5,2.5-2,1.5,2,1,1,2-5.5-.5.5,2-3,.5.5,2-2,1h-5l-2-1-1,.5-2.5-1-5.5,1-4,3-.5,3,.5,1-1.5,3-6.5,1-1,2.5-2.5,1.5-.5-2-3-4.5"/>
      <path data-code="SA-ALL" d="m872.16,418.41l.5-1v.5l-.5.5m-25.5,15l.5-.5v-2.5,2.5l-.5.5m-1-.5l.5.5v.5l-.5-1m39.5-10.5h-1l1.5-1v.5l-.5.5m9.5,7v-.5l.5-.5v.5l-.5.5m0,.5v1-1m69-37.5l-.5.5,1.5-1-1,.5m14-4.5h.5l-2,3,1-2,.5-1m-101,71l1-1.5-.5,1-.5.5m-38.5,148l1-2.5v-3l4-37.5-3.5-1-2.5-3.5,2-3v-3l-.5-2,1.5-2.5v-1.5l1.5-4.5,1.5-.5-1-2,1.5-4-.5-5,3-5.5v-1l-1-1.5-3.5-3-4-2.5-1-4-1-1.5.5-2.5-1-.5-.5-1.5-.5-3-1.5-1.5-1-4-2-.5v-1l1-1-1-2,.5-1.5-1-1,.5-2,2.5-1,2-7.5-.5-4-.5-10.5.5-2.5-1.5-1,2-3-4-1.5.5-4,4.5-2.5-1-3-1.5-1,1.5-3h2l3.5-3.5-1-1h3l-.5-2,1.5.5v-2.5h-3.5l-1-2,2.5-.5.5-1,.5,1,.5.5v1.5l3.5,1.5,5-1,2.5-4v-3l7.5-8,26-20.5,8.5-4.5-.5,9.5.5,9-.5,1.5h.5l-3.5,11.5-.5,6,.5,1.5-1-.5-1.5-4-4-7,1,.5v1.5l2-1.5.5-4-.5-.5,1.5-1.5-.5-2,1,.5-.5-2h-3.5v-1l-1.5-.5-.5,2.5-2,.5.5,2.5,1.5-1,.5,1-2,1.5,2,3-1.5-.5-.5-1-1-6.5-1-2-1,5-.5,1.5-1.5-2,.5-1h-2l1.5-1-5.5-1-1.5,2,1,1.5.5-1v1h.5l1-.5v-1.5h1.5l.5,2.5,1,.5-1.5,1.5,1,5.5.5.5,1,1.5,1,1,3-2,1,1,3.5,4.5-1,3-1-.5-2.5,1.5-1,3.5-2.5,3-2-1.5-3.5-.5-.5,1.5-1.5-1-1.5,1,1.5,2.5,6,1,.5,3-1.5,1v3h-1.5l-1.5,1.5,1,1h2l-.5,1,1,1.5,3-1v2h1l.5-1-1-1.5,3,1,2-3.5,1,1.5,2.5-2,.5-4,1.5-2.5,2,.5,1.5-1,3-7.5.5-5,.5-4.5-.5-2.5.5-2.5.5-9-1-10,1.5-12,9-7.5,7.5-3.5,8.5-6,24-5.5h6.5l11,2,6.5,2.5,3,2.5,1.5,2,1,2.5-4.5,9.5-2.5-1.5-1.5.5-2-2-3-2-2,.5v4.5l-1,1,.5,4.5-1.5,2.5,1,5.5-2-.5-1,1,.5,1,5-1.5v-2.5h3l1-2.5,3,1,3.5-1,7-7.5,2.5,1,3-1.5,2.5,2,.5-2,1.5.5-2,3.5,5.5-3.5-.5,2-2,.5,2,1-3,2.5-.5,2h1l.5-2.5,9-5.5h.5l-.5.5,3.5-1v2l1,1v2l1.5,1.5-.5,1.5h1l.5-1-1-2.5,1-3-1,1-.5-1.5h-.5l2,.5,5-2-1.5.5v3l-2.5,5,1,3,1,.5.5-.5-1.5-3,4-6,3.5-3,4-1h3l-3.5,2.5,5-1.5h6.5l4,2.5.5,1,4.5,1.5-.5,1h.5l1-.5,3,1.5,1,.5.5,1h2l2.5,2h1l-1,2.5-7,4.5h4l5-3,7.5,1,6.5-1.5,1,2,2.5,2.5.5,2-1,1,1,1,.5,1.5,3,1v4.5l.5,2.5-1,3,1,2,2.5,2,2-.5,1.5,6,3,1,3-.5,1.5.5,1,1-1.5,5.5,1.5,1,.5,1.5h.5l.5,2,1,.5-3,1,.5,1-3,1,.5,1,6.5-.5,1,3.5h1l4,3,1,.5,3,22-7.5,2-4-1-4,.5-7-1v5l-2,.5-6.5,7.5-2.5,5-.5,5.5-4.5,4.5-2,4.5-3.5,2.5-2,9h-3.5l-1,1.5.5,2-6,3.5.5,2-1,1.5-4,1-1.5,2-1.5,4h-1l-5,6-.5,1.5,1.5,1.5-.5,1-3.5,1v3l1.5,1.5-1.5,1.5-3-.5-4.5,1-2,1-2,5-8,11.5-12,6-7-1-1-1-3.5,2-.5-1.5-2.5-1.5-1.5,1.5h-5l-5.5,2.5-2,2.5h-6l-3.5,3.5,3,3.5-1,1.5-4,2-2-1-2.5,1-1.5-1.5-1.5,1.5-2-1-1.5,4-6.5,5-2.5-.5-4,.5-2-3.5v-2.5l-2.5-1-3,2.5-1-1.5-3.5,1.5-1,1-1-.5-3,4.5-2.5,1.5-2.5-.5-1,1.5-1.5-1-1.5-1.5h-2l-1,.5.5,2-.5,1-2.5.5-2,2.5h-2.5l-2,2v3.5h-3l-1,1.5-4,.5-1.5-1.5h-4l-.5-2,1-1.5-.5-2h-1.5l2.5-5.5-6.5-3-6,3.5h-1.5l-4.5,4.5-4.5-1h-3l-3.5-3-2-.5-5.5,4-2.5-2h-1l-3-2.5-.5-.5-3-2m9-186l-2-10.5v-4l19-6,28-4-24.5,15.5-4,1-1.5,2.5-3.5-3-2,.5-.5-1h-1l-1,3.5-2.5-1-2,1-2.5,4v1.5m39.5,35.5h-.5.5m105.5-62l-.5-.5h.5v.5m3.5,1h1l-.5-2h2.5l-1.5,2h-1.5m12.5-1l.5-.5v.5h-.5m3.5-2v-.5h1l-.5.5h-.5m5-1.5h.5-.5m-4,3.5l1-1h.5v.5l-1.5.5m25,1.5v-.5l.5.5h-.5m15,9l-.5-.5.5-.5.5,1h-.5m4,1h.5l1.5.5h-1.5l-.5-.5"/>
      <path data-code="SA-AMG" d="m797.16,1358.41l-.5-4.5-4.5-12,4,2.5,2.5-2.5h2l1.5-1.5-.5-2.5,2-2h3.5l3,2.5,1.5-2.5,5-.5,2.5,4.5,2.5,3,2.5,2h1l4-3.5-.5-2v-2.5l.5-2,1-1,.5,3.5,1,1h1.5l4.5-4,1-1.5,1.5.5,3-1.5,5-5.5,1.5,4,2.5-.5,5-4-.5-2.5-1.5-1.5-.5-4.5-4.5-5.5-1-2-3.5-1.5,1.5-2.5-3.5-2.5v-2.5l2-4-1.5-5.5,1-4.5-.5-4,9-5-.5-1v-3.5l1.5-3v-2l-1.5-3,5-1,2-3,3-1,5.5,2.5,7.5.5.5,2,2.5,1,2.5-.5,7.5-4,8.5-6.5-2-1-.5-3,1-2-.5-2,1-1,2.5-.5,3.5,2.5,2.5,3.5-.5,2.5,3.5,2.5,3,6,1.5,1.5v2.5l4,10,2.5,4.5,4.5,6.5,3.5,9.5,1.5,1-.5,3-2,4-1.5.5-2,6-2.5,1.5-7.5-.5-1.5,2.5,1,3.5-2,3.5,2,10,2,4.5-1.5,3-2,.5-2,4.5,3.5,2.5.5,2.5,1,1.5.5,5v1.5l1,1.5-1,3-1,.5,1,2.5v5l-1.5-.5-1-2-1-.5-2,2h-2.5l-.5-2h-1.5l-2.5,1-.5,1.5-3-.5-2.5-3.5-2.5,1-2.5-1.5-2.5.5-4.5,4.5,1,3-2.5,2.5-.5,3,.5,2-1,2,1,5-1.5,2-2.5.5-1.5,4.5.5,1.5-.5,1.5-5.5,2.5-3.5-1.5-1.5-1.5-1.5,1-2.5-.5-1.5,2v2.5l-2.5,1h-1.5l-1.5-2-4-1-1.5,3-6,4v1.5l-3.5,1-1-1.5-8-4-3-3v-1l-1.5-1.5-7-3-2-4-.5-2-3-3.5-1-4-2-3-2-4.5-2.5-2.5-1.5-3-6-5.5-2-5.5"/>
      <path data-code="SA-ANA" d="m109.66,578.41l-14-1.5-6.5-4.5-7.5-.5-3.5-3-.5-2,1-1.5,2-2h2.5l2.5,1.5,2-.5-.5-1.5,2-1-1-1,1-3-1.5-1.5-1-3.5-.5-3,.5-.5h15.5l9-1.5,5,1,2.5,2,1.5,2.5.5,3-1-1-.5,2,1,.5v-.5.5l-2,4-1.5,6.5-4,2-1.5,7-1.5,1m-3.5-39.5l-1.5,1-.5.5,1-1v-2l-1-.5,1-.5,1,1v1.5m70.5,8l.5,2,1.5.5h-1.5l-1-1.5v-1.5l1.5-3.5,2,.5,1,1,1,1.5v1l-.5.5v-1.5l-.5-1.5-2.5-1-1.5,3.5m-107,25l-.5-.5-.5-2,2.5-.5.5.5.5,2.5h-2.5m94.5,29v-.5l.5-.5v.5l-.5.5m-24.5,23l-.5-.5,3.5,1.5h-1.5l-1.5-1m-82,12v-.5l2.5,1,6-4h3l-.5-2,1-1,3-4-.5-1h-.5v-1l1.5-.5v-1h3l3.5-3-.5-1,1,.5,1.5-1.5h-2l-.5-1.5h-1l.5-1.5-1.5.5-.5-1h-2l-.5-1-4-1,1-3h-.5l2-4,1-1h3.5l1-1h-.5v-1l2-.5-.5-.5,9.5,5.5,15,1,11-3.5,3.5-4.5-.5-2.5-4-6.5-2-4.5v-1.5l5,5,4.5,2.5,3,6,4,4.5,2.5,4.5.5,2v1.5l-.5,1v-1l-1.5,1-1,3.5v3.5l-1,2.5,3,1.5.5,1.5,2,1.5,4.5,1,1,1.5v3l-1,4,1.5,2-.5,1.5.5,1,1.5,1,1-1-1-1h2l-2-2.5-1-2,2-2.5,1-4.5,1.5-.5.5-2-7-4-2-2-.5-2.5-1-.5,9-4.5,5.5-5,8-.5,8-3,1.5-1,.5-1.5-1-.5,2-2.5,3.5-2v-.5l-.5-.5,2-1,7-2,9.5-.5,6,1,7.5-3,18.5,2.5,14-4,14.5-2.5,9,2.5-1,1.5h-3l1,1.5,1.5.5-2,2-6-1.5-2,3-.5,3.5.5,1.5,1,.5v1l-5.5.5-1,1.5.5,4.5-2,1,1,1.5-.5,1-3,1v.5l-3,3-3,1-8,7.5-1,2.5.5,1,9-3,7,2,1.5-3,3,2v-1.5l2-1,9.5,5.5,4.5,5h4.5l-.5,2,2.5,2.5,11,.5,1.5-2.5,2.5,1.5,3-2-1-2,5.5-4,6.5,4.5,2.5,1,1,1.5-1,2,4,5.5h1.5l1.5,1.5-.5,2h3l2,1.5-.5,1.5,1,3,4,6.5-3.5-1.5-1-1.5h-1.5l-2.5,7-1.5.5-2-1-1.5,1.5h-5l-3.5-1-2,2.5-.5,2.5-3,2.5-2.5.5-3.5,4h-1.5l-.5-1-3.5,1v1.5l-1.5,1-2-.5-5,2.5-8,1.5-.5-2.5-10-2.5-1,4v1.5l-2.5.5.5,1-3.5,1.5-1,3,.5,1-1.5,1-11,1.5-1.5-1.5-.5-1.5-2-.5-1.5,4-1-.5-2,2,.5,1.5-1.5.5v1.5l-3,2.5,3,1-2.5,6.5-2,1.5,1.5,2-2,5,1,2,7.5-1.5,2,1,1,2-1,.5v1.5l-5,2.5-1-.5-2,1.5-4.5-.5-6,2-2,2-.5,1.5.5,2-1.5.5-1,2.5.5,1.5-2,2v1l-3.5,1.5-.5,3-1.5,1,1,1.5v1.5l-2.5,3.5h-1.5v1.5l1,.5.5,1.5-3.5.5v3l3-.5,1,1v1l3,1.5,3.5-1,3.5,3h4.5l4.5,3v2.5l-2,3.5v1.5l1.5.5-1,3-2.5,3.5-3,1.5v2l-3.5,3.5-3-1-3,3-2.5-.5-.5,5,.5,3-1.5.5-2.5-1-2,1-1,3.5-2,1.5-5.5-2-7,2-9.5-2,1-2h1l1.5-1.5-1.5-2,1.5-3-1.5-3-.5-2h4v-1.5l4-1,2.5.5v-1.5l.5-1.5-2-1,1-4.5v-3l-2-.5-1-1.5,2-4v-5l-1-1.5.5-5-2.5-.5-5.5,1.5-1.5-3.5,4-5.5v-1l-1-1-1.5-1.5v-1h-4.5l-1.5-1.5-.5-2.5-1-1.5-5.5-4,.5-2,2-2.5h-1.5l-1-1v-2l-2-1v-3l3.5-3.5-.5-4-4-2-1-2v-1.5l-1-2.5-1.5-1-7,3.5-7,1-4.5,1.5-4-1-3,3-4,1-2,2-1-1h-2l-1-2,.5-1-.5-.5-2.5.5-.5-.5,2-2.5-1-2-.5-1-1.5-1.5-6,2-1-1v-1l-6.5-1,.5-.5-1.5-.5,1.5-2-2-1.5,3-1,3-3.5v-1.5l-1.5-.5v-1l-2-1.5h-7l-.5-.5,1-.5-1.5-.5,1-2.5-4-.5-1.5-1.5.5-1-1-1v-1.5l-1.5-2,.5-1-1-1.5,2-1-1-.5v-1.5l-2.5-1,1-.5-1.5-1.5.5-1,4-2h-1l2.5-2-4-.5v1l-1-1.5-.5,1,1,.5-1.5-.5,1-1.5-1.5-1,1.5-1-.5-.5.5-.5-.5-.5,2.5-.5.5-2.5-3-3,1.5-1v-1.5h-.5l.5-1.5-11,2.5v-1h-1l.5-1.5-.5-1,5-3.5.5-2-2.5-2,.5-1-1-.5.5-1-2,.5-.5-1h-1.5l.5,1h-.5l-.5-1h-2.5l-.5-1.5-1.5.5-1.5-.5,1-1-1-.5m81.5-6.5h.5v.5l-.5-.5"/>
      <path data-code="SA-BUL" d="m882.81,6.16l-.5.5-.5.5h-2.5v-1l.5-2,1-.5,1.5-.5h.5l.5,1v1.5l-.5.5m-112.5,100l-1,1v2l-.5,1.5.5,1,.5.5h.5l-.5.5.5.5h1v2l-.5.5v-.5h-2.5l-.5.5-1,.5-.5.5v.5h-.5l-1,1-1,1h-.5v.5h-.5l-.5,1h-.5v-.5h-.5v.5l-1,1.5h-.5l-.5.5h.5l-1,.5h-.5v-1l.5-.5v-1.5l.5-1,.5-.5.5,1v-.5l1-.5v-.5h-.5v-1l.5-1.5v-1.5l.5-.5,1-1,1-1.5,1.5-.5.5-.5,1-1v-.5h.5l1.5-1,.5-.5.5-1,.5-.5.5-.5v-.5l-.5,1.5M916.81,1.16l-.5.5h-.5V.16h1.5l-.5.5v.5m-65,96l-.5,1h.5v-.5l.5-.5.5.5.5.5v.5l1,1h.5v.5l.5.5.5.5v1l-1,1h-2l-.5.5h-.5l-.5-.5-1,.5-.5-.5h-.5l-.5-.5v-3l1-1,.5-.5,1-1h.5m13.5,31h-.5v-.5l.5.5m-18.35,97l-10.5,6.5-12,4-4.5-.5-2-1.5-5.5-.5-3.5-1.5-12.5,3.5-10.5-1.5-10,1.5-7-2,2-2,.5-2.5-1.5-1.5v-.5l-3-2-1-2,.5-4.5-1-2v-1l-2.5-3.5-.5-3,.5-1,5,.5,3,1,.5,2-1,2,1.5,2,2.5,1,2,2h4.5l4-1.5,3-5-1-.5-1,2-2,.5-.5,1,1-2,1-2,.5-2h-1v-.5l3-2,1.5-2.5,8.5-1.5,6.5-5.5,5-.5.5.5.5,1v3l2.5,2,.5,2h1v1h2.5l3.5-2,8-11,10-2.5,6.5-3.5h3l4,2.5,3.5-.5,3.5-6.5,3.5-1-.5,3.5,1,3.5-.5,4.5.5,1,1.5.5.5,2,1.5,4,.5.5-8.5,9.5-4.5,7.5,1,.5-2.5,1.5-.5,1.5-.5-.5-1,.5,1.5,1h-2l-3,3m-288,106v-6.5l-2-5-3-4-1-5-.5-4.5-.5-1.5-1.5-.5v-2.5h.5v1l2,1.5,2,2.5,4,4,3.5,1.5,5.5.5-1,4v7.5l1,1.5h2l-1.5,6-6.5,3.5-1-.5-1-3-1-.5m88.5-62v-.5.5m38.5-22v-.5l.5.5h-.5m-37,18.5l.5-1,.5,1v.5l-1-.5m8.5-4.5l.5.5h.5-.5l-.5-.5m0,2v-.5l2.5-1v2.5l-2.5-1m-5.5,2.5l.5-.5v.5h-.5m-27.5-34.5v-.5l.5-.5-.5.5h1l-1,.5m103,47l2.5-2,4.5,2v1l-2.5,5-7.5,5.5-1-.5-1.5.5.5,1.5-1,1-1.5-.5-2,.5.5,2.5-.5,2.5,2-2.5-3.5,6-3,.5-13.5-3-1.5.5.5-.5h3l-.5-2.5,2.5-2,3,.5,1.5,1.5,1.5-1.5-1.5-.5-3-.5-1.5-2.5-2,2.5-4.5,1.5-3.5,6.5,3.5-2-.5.5-15,13-10.5,12-2.5,2-2.5,2h-2l3.5-1,1.5-2-2.5-1.5-1-2-1.5-1-1.5.5-1.5-1-.5.5-3.5-1-2,.5-.5,4.5,1,3,3,1,.5-1v-1l-.5-.5,1,.5-1,3,1,6.5v2.5l-1.5,5-3,2.5-11.5-.5-11,2.5-6-3.5-6-5-5.5-1.5-8-1-4-2-10-6.5-1-2.5-2.5-3,4.5-4.5-.5-1.5-2-1.5,1.5-2.5v-1.5l-2.5-2-7-2,2-4,.5-2.5-1.5-2-1.5-.5-1-1.5,1-3.5,5-1.5,1-3.5-6-4-1-2v-2l1.5-5,8.5-5-.5-5h-1v2.5l-1,3,1.5-9.5,8.5-10.5,5.5-3-1.5,2.5,2,2,4.5,2.5,5-.5,5.5,2.5,9-1.5v3.5l-.5-1.5-1,1.5v1l1,1.5,1.5-.5,2.5,1.5,4.5.5,2.5-2,3.5-.5,1.5,1-1,1.5,1,.5-.5,1,1,4h1.5v1.5l2,.5,2-1-1-1,1-.5v-1.5h1l1.5-2,.5.5-.5.5,1,.5-3,1-.5,1.5h3.5l1-1.5h2.5l4.5-4.5-1-1.5-2.5-.5-1.5-2-2-.5-1,.5,1-3-3-2.5-1-3-3.5-3.5-1-4.5-.5-.5,5.5-5,4-1.5,3.5.5.5-1-4-1-1.5-1.5-.5-1-3-1-1.5-2-2,1v-1.5l.5-.5,4.5,1,5.5-1,8,3,6.5,1,4.5,2.5,4.5.5,11-2,6-7.5,7.5-2.5h4.5l8,1.5,6.5-2,5,1.5,9.5-1,4,1.5,2.5,1.5-2.5,1-2,2-3,7.5v2.5l.5,1.5,4,4,3,.5-2,3,1,4.5,1,2-2.5,10-4.5,3.5-11,4-3.5,4-6-1.5-2,1-1-1.5-3,1-.5-1-1.5-1-1.5-2-2.5,1-.5-1.5-1.5-1-1.5-2-5.5-.5v-1.5l-.5-1-.5-.5-.5-4-1.5-.5,1.5-1.5-.5-3.5,3-7v-3l-2-3.5-1.5-.5-1-1h-2.5l-2.5,2-1-.5-4.5,4.5-.5-1.5-1,.5v1h1l-1,1,2.5-.5-1,3.5-3.5,2h3l-1.5,3.5.5.5,1,.5v2.5l-.5,1,1,1,.5,1,2.5,1.5,1.5,2.5.5,1.5,4.5,3.5,1,1.5,4.5,1.5,4,3,4.5,2,1.5,2,3,.5,6-2.5h9.5m-73.5-21.5h.5v.5l-.5-.5m-68,32.5v-.5l1,1-.5.5-.5-1m60-48v-.5.5m8-5.5v-.5h.5l-.5.5m-3.5.5l.5-.5-.5.5m2.5-1.5l-.5-.5.5.5m-2-.5h1l-.5.5-.5-.5m-2,1.5v.5-.5m-6,2.5v-1l2.5-1.5.5,2-2,1-1-.5m6-3v-1,1m0,0h-.5l-.5-.5.5.5h.5m68,181l-4,2.5-2.5-2-1-.5,1-3,9-5,3-6,1-4.5-.5-6-2.5-11.5,1-6.5,1-1,3.5.5,5.5-7,7.5-6.5,5.5,1,5-1.5,4,.5,6.5,2.5,11,1.5,7.5,2.5,5,3.5-.5,2,2,2,.5,2.5,2.5,4,3.5,3.5,2.5,1-2.5,1-3.5,5-12.5,3-4.5,3.5h-4l-9.5,3.5-11.5,2.5h-13l-5.5,1.5-6,4.5-1.5,3.5-3,3.5m-6.5-40l-1,1h-5l-2-1-2-2-3-1.5-2.5-3-3.5-7.5.5-2.5,1-2,6-5,6.5-2,2,.5,2,1,1.5,2.5.5,4,.5.5,1.5,2,1.5,4-.5,2-5,5.5-2,4.5,3-1m-94,46v-.5l-2.5-1.5-7.5-2-2.5-3-3-1.5-1.5-2-.5,1,.5,1h.5l-1.5.5-1.5-.5-1.5-3.5-1.5-2,3.5-.5,13.5,4.5,3.5,3,4.5,1.5v1l1.5,1,1,1.5-1.5,3.5-3.5-1.5m-220.8,112.75v.5-.5m-44,16.5l-.5-.5,1.5-1h1l-2,1.5m5-18l1-2h.5l-.5,1,.5,1.5-.5.5-1-1m-4,8v-.5h.5l-.5.5m29-8.5v-1l.5.5v1l-.5-.5m-28,3h-.5.5m14-4h.5l-.5.5v-.5m-1,1.5v-.5.5m-12.5,9v-.5l1-.5v1h-1m55-16h1-1m-55,18l-1,.5-1.5,2.5.5-2,2-2v1m41-11.5h.5v.5l-.5-.5m13.5-3v-.5l.5.5h-.5m-5.5,3l-.5-2,1-.5-.5,1v1.5m-150,59h1.5l-.5.5-1-.5m97-38l2-1h.5l-.5,1h-2m45-17.5l1-.5.5,2h-.5l-1-1.5m7.5.5v-1h1l-.5.5-.5.5m-50.5,21.5l.5-.5h.5l-.5.5h-.5m-105.5,35.5v-.5l2-3,2.5.5h-2.5l-2,3m106.5-31.5l.5-.5h.5l-.5.5h-.5m-99.5,33.5l-1.5-1v-1.5l2.5.5v2h-1m-31.5,29.5l1-2.5,8-7.5,3-1,3-3v-.5l3-1,.5-1-1-1.5,2-1-.5-4.5,1-1.5,5.5-.5v-1h1l-.5,2.5v3l.5,1,.5,2.5,3,2.5,19.5,3,2-1-2.5-1.5,2.5-1.5.5.5-.5,2,1,.5-.5,1,3.5.5-.5-.5,1-1.5-3-.5v-1l4-1,4.5,1.5-1,2,.5,1.5v.5l-2.5-1v-1.5l-1-1.5-1,1,2.5,4,7.5,2.5.5.5v1h2l5-2,10,1h3l-.5-1.5-12-1-4,2-5-1.5-2.5-2,2.5-1.5h6l.5-1,.5.5,6-.5,4-1,11.5.5,6.5-5,7-2.5.5,1,12.5,1.5h5l1.5-2,6.5,3,.5-.5-5-2.5-1-2h-1.5l4.5-2-6.5-1,1.5-1.5h1.5v-.5h-2.5l.5-2.5,1.5-1.5v-.5l-2-.5,1-.5,5,1v1l1,.5.5-1.5.5,1,4-.5v.5l-.5.5-.5,1,1.5.5-1.5.5,4,.5,1,2,2-.5,1-2,.5-3.5,1.5-.5-1-1.5-1-1-1-2.5,1-2-.5-1h.5v-2.5h1l-.5-1.5,1,1.5,2-.5v-.5l-2-1.5-2.5.5-.5-.5,2.5-3.5h2.5v-1l-3.5,1v-1.5l-1-1-2,.5,1.5-1v-1.5l-1,1-.5-1.5-1.5,1-1-1,1.5-.5-2.5-1v-1l-1-1,1-2.5h-4.5l.5-1,1.5.5.5-1-2-1.5.5-2-1-1-1,1,1.5-3-1.5-.5-1-1.5,1.5-1v-1.5l-1-.5v-.5h2.5v-.5l-2-1-.5-.5,1,.5.5-1-2-2.5,3-.5,1-2-1-1.5,2.5-.5.5,1-1,1,.5,1-.5.5,3,1.5v-2.5l-1-1.5v-1h2l-1-3,2.5.5.5-1.5-1-1.5h-.5l-3,3,.5.5v1l-.5-.5-.5-1-1.5,1-2.5-1,3,.5-.5-1.5v-1l3.5-1.5v-1l1-.5v-1h-1l1-1h1.5l1.5-1.5-.5,1.5,1,2-1.5,2.5,1,1.5.5-.5,1-1.5h.5l-.5,1,.5,1-.5.5.5,1h-1l-1,2,1,.5,2.5-3-1-.5,2-3.5h-1.5l-1-1v-.5l2-.5h.5l-.5-1.5h1v-1.5l3-1.5v1.5l-1,1,2-1v1h4v2h.5l1.5-2.5v1.5l1,1-1,.5,1,.5,1.5-1,.5-2h1.5l-1,2,2-.5.5,1-.5,1,1.5.5v-1l-.5-2,.5-.5,1.5,2.5v2l2-1-.5-1-1-.5,1-1-.5-2.5h.5l.5,2,1.5,2-1,.5,2-.5,1.5,1.5-.5,2,1,4h.5v-2.5h-.5l1-1-.5.5.5,1,2.5,1-1-1.5-.5-2.5,1-.5v1l.5.5,1-2v1l1.5,1.5v.5l4.5-.5.5,1-.5,1,.5,1,2.5-1.5-.5-1.5-1,.5-1-2.5-1,.5-.5-1,1.5-2,.5-3.5-.5-1.5,1-.5.5,1-1,3v1.5l1,2.5-.5,1,.5,1,3-.5-.5,1.5-3.5,2.5,1.5.5,3-2,.5-1.5v-1.5l-.5-.5v-.5l3.5,1.5-.5-.5,1.5-.5-.5-1h2l-.5-2,2.5-2,2,2h1.5l-.5.5.5.5,1,2.5h1v1h1v1.5l1.5,1h.5l-1-1,.5-1.5-1-.5,3-3v1.5l.5.5.5,2.5h1v-3.5l3-2.5,1,1-2,1v1.5l1.5,1.5,1-.5-1-2,1.5-.5-.5-4.5-3-.5,3-2.5,5-1.5,5,2,2-2.5-3-.5,3-2,7.5-.5h1v1.5l2-.5,7,2-2.5,1.5,1,1,7.5-.5.5,1.5.5.5v1.5l-.5,1,.5,1-2.5,1h3v1h.5l2.5-2,6-1,1.5,1h2.5v.5l1,.5-1,3-1.5.5,2,1,1.5,2,2-3.5,2-.5,7.5,3.5,2.5-.5v1l-1,2,3.5,1.5,1,1-5.5,3,2.5-.5v1h.5l-6-.5,1-1v-1l1-2,2-1-1.5-.5-2,.5-.5,2.5-2.5,1.5,1.5,1-5,.5-2.5,4.5h1.5l2-3.5,5-.5,3,1v1h4l.5.5,3,2h-1l-2,3,3.5-.5-.5.5-2.5,2-.5,1,.5.5-4,3,4.5-1,.5.5-3,1,5-.5,2,.5,2.5,2-4-.5-.5,1h2.5l1,2-4.5,3-1-1.5-2.5.5v.5l2.5,1.5-3.5,1.5h1.5v1.5l1.5-1.5,4.5-1-3.5,1.5v1.5l1.5-1-2,1.5-.5,1.5h-5l-3,4.5,6-4-1.5,2h1.5v1.5l-2.5.5.5,1.5,9-6.5h.5l-2,1v1.5l2-1-.5.5,5.5.5.5,2-3.5-.5-.5,1,4.5.5,1.5-1.5-.5,1,.5.5v.5l1.5,1,1,2-2,4,1.5-.5.5,2-1.5-.5v1l1,1,4-.5-2.5,1.5-2,7,4.5-4,1-.5.5,1-2,4.5-4.5,4.5.5.5h-2.5l-2,2h-.5l-.5-1.5-1,1-.5-.5v-1l-1.5-.5-.5.5,1.5,1.5-5,2.5-2.5-.5.5-1-.5-.5-1,.5h-1l1-1-2.5,1v-1h-.5l.5-.5-.5-1,.5-2-1.5,1-1-.5,1-1-1.5-.5.5-1-4-.5v-1h-4l-7.5-4-5,1.5-2-.5-2-1.5,2-1.5-1.5-1-2,1.5-2.5-.5v-.5l-1,.5.5,1-1-.5-7.5,3.5h2l-8.5,3-1-.5-1-1.5v-2.5l5-5h.5l-1,1.5h.5l-.5,1,6-2h-4l2.5-3.5v-1.5h-.5l-11,9.5.5,3,2,3,1,1v.5l2.5,1,.5-1-1.5-1,2.5-2,8-2.5,5.5.5.5-.5-2.5-1,2-1.5,4,2-1.5.5.5.5,3.5-1,3.5,1,4,3.5-2.5,1,.5,1,3.5-1,2.5,2,2-.5,2,2.5,5,.5,1,2.5,1,.5h3l1.5,1,5-2.5,7.5.5-5.5,1.5,3,.5,2,1.5-1,2.5-2,.5.5,2-4-.5-2-2-.5.5-.5-2.5-1.5-.5.5,3,1.5,1.5,2,2.5,3,.5,2,4h1l.5,2,2.5,1,5.5-1.5,2.5-3,1-3.5-.5-1.5-4.5-4-1-2-3-4h.5l2.5,3,7,5.5.5,2,1,.5,7.5,4.5-5-.5.5-.5-1-1-.5,1,.5,1-9.5,7v3l1.5,1,1,2.5,1.5.5,1.5-2,2-.5,1-2,1,.5,1.5,2,1.5.5,1,2v2l2.5,1,2,3,3.5,6,1,1,8.5,2.5,1,1.5,1.5,3,2,1.5,1,2,8.5-2,3,4,1.5,1v1.5l.5,1,3,1,1,.5h2l1.5-2.5.5.5,1.5,3,1,.5,3.5-1.5,1-2.5v-1.5l-2-3,.5-1.5,1,1-1,.5.5,1,1.5.5.5,1.5.5,1,.5,1,1.5,1,1.5,1.5,1,2-.5.5.5,1,4.5,2,5.5-3.5,2.5-7,.5-4v-1l-.5-1,1-6.5-1.5-7.5,3-1,.5,1.5,2.5-.5v.5l6.5,5.5.5,2-1.5,5,1.5,4.5,1.5,3,1.5.5,5,6.5v2l-1,3,.5,2,2,2.5,1,2.5,2,3,1,1,4-.5,19-8h1.5l2.5,2-.5,2,2,3,2,1v1.5l2,1.5-2,5.5,1.5,2,4,.5.5,1-5.5,4.5.5,1,5.5.5,2,2.5.5,2.5,11,3.5.5,2.5-2,1-.5,2.5-4,2-.5,7h-1.5l-.5,4.5-2,2.5,1,1.5.5,4.5,1,2-.5,4.5,2,1-.5,3-1.5,2,1,2.5-.5,1.5,1,1-.5,2-4,1.5-.5,3-2,5-2,3-7,2-9,6-4,9.5-2,.5h-11.5l-3,2-5.5-2-3,5.5-2,1.5-2-3-.5,1v2.5l-.5,3,.5,3.5-1,1,1.5,1v1.5l-2.5,6.5-1.5,2-5,1-4,4-12-.5-2,1-1-1.5-4.5-.5-2.5,2-4,8-6-.5-2.5,2-6,1-5,3-6,1.5v1.5l-2.5.5-4.5,3.5-1-.5-2,3.5-4.5,3-1.5-2-1,2-3,.5-1.5-2-2,1-1-2-1,2-3.5-1,2,2.5-3-1.5-3,3.5-1-1.5-4-2-.5,1h-2l-.5-1-2,.5-1-1.5v-1l-1.5,2-.5-.5v-1.5l-3.5-.5v-1.5l-1,1-3.5-.5v-1.5l-1.5-.5-3,1-1-2-6-3-.5-.5-5-1-.5.5,1,1.5-1.5,1,1.5,1.5,1,3-2,.5.5,1,2-.5-.5,1.5.5,1.5-2,1,.5,2-2-.5-.5,2-2-1.5-.5,1,.5,1.5h-1.5l.5,1.5-4,3.5,2,1.5-2,1.5,2,1-6,1-1.5-3-.5,3-1-.5v-1l-.5-1.5-1,1,1,1.5-1,1-4,.5-2-3h-3l-7-5.5-8.5.5-2.5-3.5-.5.5,1,2.5v.5h-2l-.5,1-4.5-1-3.5.5-1.5,1.5-1-.5-4,2.5h-3l-1.5.5-1-1.5-1.5-1-5.5-1-4-5-2.5-6.5-5-3.5-2-2.5-3-1-5,1-1,1,.5,2.5-.5,1,1,1.5-1.5,1.5-1.5-.5-2,3-6.5,1.5v1.5l-3,2.5v1.5l-4,1.5-4.5,5.5-3.5,2.5-1-1.5-5.5-1.5-2,1-1.5-3.5.5-2,1.5-.5,1-2.5-.5-2,2.5-1,2.5-3.5-1-.5-.5-4.5-1.5-2.5,3.5-2.5-.5-2,1-1.5v-3l1-1.5-1-1-5-1-1.5-2.5,1-1.5-1.5-2,.5-1-1-1.5,2-2-1-1.5-1-1v-1.5l2-1-2-2-.5-2.5-1.5-1.5-1.5,1-1-2-2-.5v-2l-1-3.5,1.5-5,5-2.5-1-4,2-1.5-1-3.5.5-.5-1-4-2.5-3.5,7-.5,5-1.5,1.5-2.5,5.5-1,5-4.5,1.5-3-.5-3.5,3-3-1-3.5,1-5.5-4-3,.5-1.5-1-3,4.5-5.5h2l1-2.5,2-.5-.5-1-4.5-3.5.5-2.5-3.5-6.5,1-2.5,3-4h2.5v-1l-8-5v-2.5l-3,1.5-3.5-2.5-2.5-5-2-.5-1.5,1-4.5-2.5,1-4-1-3.5-3.5-1-4-4.5-4.5.5-6.5-5-2.5-6-1.5,1.5-5-5-1-2,1.5-4-2-2,.5-3-1.5-3v-5l-2.5-.5-8.5,5.5-4-6.5-1-3,.5-1.5-2-1.5h-3l.5-2-1.5-1.5h-1.5l-4-5.5,1-2-1-1.5-2.5-1-6.5-4.5-5.5,4,1,2-3,2-2.5-1.5-1.5,2.5-11-.5-2.5-2.5.5-2h-4.5l-4.5-5-9.5-5.5-2,1v1.5l-3-2-1.5,3-7-2-9,3-.5-1m157-106h1l1,.5-1,1-.5-.5-.5-1m-4-.5l3.5,1-2.5,1.5v2l-.5.5.5,1,1-.5.5,1-1,.5.5-.5h-1v1.5l-4.5,1.5-3-2-2,1,.5-1.5,3.5-1.5v-1l-1.5-.5v-.5l6-3.5m2.5,3.5l1-1h.5l-1,1,.5,1-1,.5v-1.5m-36,13v-1h.5v1.5h2.5l-1.5.5-1-.5-.5-.5m-1-7.5v-1.5l1.5-.5-1,1v1.5l-.5-.5m1,1.5h2l-1,.5-1-.5m0,3l.5-1h1l-1.5,1.5v-.5m1,63.5l-1,.5-1-1.5v-1.5h1.5l2,1,3,.5-1,2,1,1-2,.5-2.5-2.5m-1.5,2.5v-.5h.5v.5h-.5m-3.5-1h1l1,1v.5l-2-1.5m-36.5,12.5l.5-.5v.5h-.5m-1.5-1h1l-4,.5.5-.5-1-1-1,1,1,1-.5,2-4.5,1,1-.5-5-1-1.5,1-.5-.5v-1l-1,.5v-1.5l-4-1,.5-2-.5-.5-3,1v-1.5l2.5-1.5,11-1.5,6,2.5,1,1.5,1.5.5-1,1.5h1.5m49.5-18l-.5,1-1-1,1-.5.5.5m-5,2.5l1-1.5h1l-.5,1.5h-1.5m10-2l.5,1h-.5l-4-1.5,2-1,2,1.5m-97.5,5.5l-.5,2.5-2,1-1-1,2-3,1.5.5m220-66l1,.5-4.5,2.5v-2l3.5-1m-187.5,70h-3,3m1,.5l-.5-.5h1.5v.5h-1m2,0h-1,2-1m3,.5h-1.5,1.5m192.5-63h.5l-1.5-.5,1.5-.5-.5,1m15,3.5v-.5l1.5.5-1,.5-.5-.5m-143,54h1v.5l-1-.5m-13.5,5.5v-.5l.5.5h-.5m159.5-55.5h.5-.5m-158.5,56h.5l-.5.5v-.5m159.5-52.5h.5-.5m-1.5,1v.5-.5m5,11.5l-3,.5-1.5-.5,2.5-3.5v.5l2,.5v1.5l1,1h-1m-3.5,9.5v-.5l.5.5h-.5m1,0l.5-.5h.5l-.5.5h-.5m7-.5v-1l1-.5v2l-1-.5m-2,5h-1l-2-.5,1-2,3,.5,1,1.5-2,.5m-8.5,4l1-.5.5-.5-.5,1h-1m12-4.5h.5-.5m1.5.5l.5-.5.5.5h-1m0,1v.5-.5m1.5,6.5l.5-.5-.5-2.5,2.5,1.5-2.5,1.5m5,7l.5.5-.5-.5m-29.5,13.5v.5-.5m4,5.5l.5.5.5.5-1-1m2,2v-.5l.5,1h-.5v-.5m21.5-3v-1l1.5-.5v2l-1.5-.5m-1,2l.5-.5-.5.5m4.5,23h.5l1,.5-.5.5-1-1m25.5-3l.5,1.5-3.5-3,1.5.5,1.5,1"/>
      <path data-code="SA-CHU" d="m830.16,1229.41l1-1.5-1.5-3,1-3-1-.5v-3l-1.5-2,2-.5-.5-1.5h6l4-3,6-1,1.5-2v-7.5l.5-2,5.5-3.5.5-1.5-.5-2v-1l3-3,6-1.5,2,2,.5,4,3,3.5v1.5l2,3.5,2,.5,1,1.5,2,2,4,1.5.5,1.5-.5,2.5,1,1.5,5.5,3.5,2.5,4.5,2.5,1,.5,1.5,2,1.5,3-.5v-3.5l4-3.5,2.5,1.5,6,1,4.5-1.5.5-2,5.5,1,2.5-3,1.5,1,4-1,1.5,3,4,.5,6,4.5,4.5,6,9,7,.5,1.5-3.5,3-1,3-1.5.5-.5,3-2-.5-6.5,4-6,2-9.5,8.5-3,1-2.5,3.5-3.5.5-1.5-1.5-3-6-3.5-2.5.5-2.5-2.5-3.5-3.5-2.5-2.5.5-1,1,.5,2-1,2,.5,3,2,1-8.5,6.5-10,4.5-2.5-1-.5-2-7.5-.5-5.5-2.5-6-5-1,1-4-5.5-3-1-2.5-4-4-2,.5-4.5-1.5-.5.5-1-1.5-.5-1-1.5,4.5-6.5h-5.5l-3.5-2-3,2.5-2-.5"/>
      <path data-code="SA-EVE" d="m549.16,877.91l1-2.5,5.5-1,.5-.5-1-1,1.5-3,2.5,1,2-1-1-3-1-1,.5-2.5-1.5-5.5-9.5-1.5-2-3-6-3,2.5-1,2-3.5,1,.5,4.5-3.5,2.5-.5v-1.5l6-1.5,5-3,6-1,2.5-2,6,.5,4-8,2.5-2,4.5.5,1,1.5,2-1,12,.5,4-4,5-1,1.5-2,2.5-6.5v-1.5l-1.5-1,1-1-.5-3.5.5-3v-2.5l.5-1,2,3,2-1.5,3-5.5,5.5,2,3-2h11.5l2-.5,4-9.5,9-6,7-2,2-3,2-5,.5-3,4-1.5.5-2,1,1-.5,4-1.5,4-2,1,.5,1.5,1,2.5,3.5,2,4-.5,2,1,6,6,4,3,5.5,1.5,2.5,2.5,1.5,3,5.5,1,6,2.5,3.5-.5-4,7.5,4-.5,1.5,1,.5,1.5-2,5-3.5,4,1.5,3-1,2-2.5,2.5,1,2.5-1,3,.5,12-1.5,3v4.5l-2,1-1,2.5,1,3-1,.5,2,3.5-1.5,1.5-2-2-3.5-.5-1.5,2-.5,2.5-3.5,5,1.5,7,.5,2h-5.5l-2.5-2-1.5-.5-.5,2.5,2.5,7.5-2.5,4.5-.5,5.5,2,1v1.5l-1.5,1.5.5,1.5,1.5.5,1,3-.5,1.5,1.5,2.5-1,3-2.5,2v2h-7.5l-3.5,4.5h-1l-.5-1.5-2.5,5.5-.5,4.5,3.5,4.5v1.5l-2,3-.5,3-4,.5,2,4.5,2,7.5,1.5,4.5,3,3.5,1,.5-.5,2.5-5,3.5-5-.5-1-2h-2l-2-2-1.5,1.5,2,3,1,3h-9.5l-7,1.5-4,2-4-2.5-.5-1.5-1-.5-2.5-.5-1.5,1.5-.5,3,2,2.5.5,4-3,4-5.5,2-2-4-7,.5-1.5-.5-1-1.5-6.5,1.5-2-2.5h-2l-2.5,2.5-4-5.5-3-3-1-2v-3l3-3.5.5-2-1-1.5-2.5-1-.5-1.5,1.5-2-4-2.5v-1.5l3.5-4.5-1-4-3.5-6,.5-2-2-2.5-1.5-3-2-1v-3.5l-.5-1,1-3-1-2h-2.5l-2.5-2-9.5,2-3.5-.5-3.5-1.5-3.5-6-2.5-1v-2l.5-2.5-.5-3.5-2-5-1.5-2,1-1.5-1.5-1.5.5-2.5-3-2-4-4.5-1-2,.5-1.5-1.5-1.5"/>
      <path data-code="SA-GOR" d="m553.66,1310.91l4.5-2.5,2-14,4-2,4.5,1.5,1.5-1,1-2.5,4.5-3,1-5,7-3.5,3.5.5,5-3.5v-2.5l2-.5,13-1,3.5,2,5-.5,4,1.5,6-4.5.5-4,4-5-2-2,3.5-3,3-1h7l5.5-.5,2-4.5-2-1.5v-2.5l-2.5-5v-3l.5-2-.5-3,3-6.5.5.5,3.5-3h6.5l5-1.5,1-1.5,20-11v-2l3.5-1,1.5-3v-4l1.5-1.5-.5-2,1-3-.5-1.5,11-2,3.5,3,3.5,5,7.5,14,10,11.5,13,2.5,2,4-1.5,3h-3l-3,4-6.5,3.5-.5,2.5-1,3,9.5,6,4.5,1.5,8-2,5.5,6,7.5,14-3,1-4.5,4h-1.5l-2.5,3h-3.5l-3.5,2h-7.5v5l-1,2.5,3.5,4.5-1,1.5v1.5l-1.5,1-1,2.5.5,1.5-1,1.5v1l1,.5-3.5,2-5.5-.5-1,2.5-2,1,1.5,2.5-2,1,1.5,1.5v1l1.5,2.5-1.5,2.5-6.5,4h-4l-5,2-6.5.5-6,6-1.5.5-2.5-2.5-3.5,1.5-.5,2-2.5,1v2.5h-2l-1,2.5,1,5-.5,1.5-6,1.5-2.5,6.5-5,6.5h-8l-1,1.5-5,1-1,4-3,1.5-2.5-2.5-2-3-6-4-6.5-1.5-2.5,1-6-2.5-1.5-2-2-4v-3l-2-1.5-5.5-8.5-3.5-.5-17.5,10-4,.5v-2l-.5-1.5-3,.5-1-2,1-4,2-2-4-6-7-.5-2-2-1-6-1-1-8,.5-1.5-.5-1.5-2.5-4-2.5-1-2-3-4"/>
      <path data-code="SA-YAK" d="m789.66,1247.41h1v1.5l1.5-1-.5-2.5-2-.5v2.5m-42,4.5l3-5,5.5-3.5,9.5.5,6,3,6-2,2-2,1-6.5,7-2,2-4,2-1.5v9l2,4-1,1,.5,1.5-.5,2.5,3.5,15.5-1.5,4,1.5,6.5-1,2.5-4.5-.5-7.5-2.5-11.5,4.5-5-.5.5-7h-2.5l-4,2.5-7.5-14-5.5-6"/>
      <path data-code="SA-KHA" d="m650.66,1369.91l3-1.5,1-4,5-1,1-1.5h8l5-6.5,2.5-6.5,6-1.5.5-1.5-1-5,1-2.5h2v-2.5l2.5-1,.5-2,3.5-1.5,2.5,2.5,1.5-.5,6-6,6.5-.5,5-2h4l6.5-4,1.5-2.5-1.5-2.5v-1l-1.5-1.5,2-1-1.5-2.5,2-1,1-2.5,5.5.5,3.5-2-1-.5v-1l1-1.5-.5-1.5,1-2.5,1.5-1v-1.5l1-1.5-3.5-4.5,1-2.5v-5h7.5l3.5-2h3.5l2.5-3h1.5l4.5-4,3.5-1,3.5-2.5h2.5l-.5,7,5,.5,11.5-4.5,7.5,2.5,4.5.5,2.5,15.5,2,6,10.5-2,2.5,1.5,2.5,1,3-1.5,10,4.5,2.5,5,1,6-2,3.5,9,17-1,2.5-4.5,4h-1.5l-1-1-.5-3.5-1,1-.5,4.5.5,2-4,3.5h-1l-2.5-2-2.5-3-2.5-4.5-5,.5-1.5,2.5-3-2.5h-3.5l-2,2,.5,2.5-1.5,1.5h-2l-2.5,2.5-6.5-4-8.5,2-2-1.5-5-.5-15.5,5h-7.5l-1.5.5-1.5,5.5h-2.5l-5,3-13,3.5-3,2.5-4,7-6,4-1.5.5-5.5-1.5-2.5,2,3,5,1,3.5-2,2.5-2,.5-3.5-.5-2,1.5v12.5l-4.5,3-1,2-2-.5-1-2-3-2.5-18-4,1-6-2.5-2.5-4.5-2.5-3-3.5-4.5-2.5-3.5-5-2.5-1.5"/>
      <path data-code="SA-KOB" d="m567.16,1204.41v-2l2.5-2-.5-6v-5l1.5-3.5,3.5-2,2.5-3.5,4.5-1.5,4.5-12,9.5-13,5-14.5-.5-2.5-10.5-4.5-1.5-2-2.5-4.5-3-4.5-8-4.5,3-4.5.5-4.5,1-2v-6l-.5-3,1-6.5,3.5-4-1-2,2-1.5,4,.5,8-3.5v-2.5l4.5-6.5,3-2.5,7-.5,2.5-2-.5-3.5,1-1.5v-4l4-2,2.5.5,4-4.5-1-3v-4l-1.5-3.5,1-2.5-.5-1.5.5-1.5h1l2.5,1.5h2.5v-1l-2-10.5,5-3-1.5-3.5-3,.5-3.5-2.5h-2l-.5,3.5h-1.5l-2-.5-2-4-3.5,2-3-3v-2.5l-3-7.5-.5-4.5,1.5-3.5,1-4.5-1-2.5.5-2,2.5-4-1.5-.5-1.5-2.5,2.5-2.5h2l2,2.5,5-1.5h1.5l1,1.5,1.5.5,7-.5,2,4,5.5-2,3-4-.5-4-2-2.5.5-3,1.5-1.5,2.5.5,1,.5.5,1.5,4,2.5,4-2,7-1.5h9.5l-1-3-2-3,1.5-1.5,2,2h2l1,2,5,.5,5-3.5.5-2.5,3.5,1,1.5,4-.5,1.5.5,1.5,6.5,12.5,2.5-2.5,5.5-1,6.5,6.5,5,1.5,6.5,2.5,9-1,.5,3.5,5.5,3.5,1.5,1.5,2-1.5,2,2,2,4,8.5-4.5v3.5l1.5,6-1,9.5,2,1.5.5,1.5h2l2,2,1,1.5,3,1.5h1l2-2,2,2,4.5,1.5,1.5,2,3,2,6.5,9,1.5,1.5,3.5,1.5,2,4.5,3.5,3,1.5,3-.5,3,1,3.5,5.5,1,4.5-4.5v1.5l4,1.5,5,4,2.5,4.5,5,2.5-2,6.5,1,4.5-2.5,5.5v6.5l-3,1.5,1,2.5,2.5.5,1.5,1,1,2-.5,2,2,8-3.5,10.5-9,6-11,5-5,4-7,1.5-2.5,2-18,3-1.5,4,1,2.5,1.5,2.5.5,1.5-2,2.5-2.5.5-5.5-2.5-2.5,5v2.5l-3.5,2.5-1.5,5-6.5-3-1.5,2h-14.5l-1,8,1.5,4-2,9.5-.5,8-1.5,7.5-9.5,3.5-1-3.5-2.5.5-5.5-8.5-3.5-3-11,2,.5,1.5-1,3,.5,2-1.5,1.5v4l-1.5,3-3.5,1v2l-.5.5-19.5,10.5-1,1.5-5,1.5h-6.5l-3.5,3-21,5-5-1-2.5,1-32.5-2.5-1.5-2-1-2.5.5-1.5-1.5-1.5h-2l-1.5-1.5h-7v-2.5l-2-2-.5-2.5-1-2,1-.5-2-3,.5-1-2-3"/>
      <path data-code="SA-LEN" d="m189.16,1611.91l1.5-.5,1.5-3-3.5-2.5,2-3.5v-2.5l1.5-1v-1.5l4-6.5-.5-1-2-.5.5-1.5-1-.5-.5-3.5,2.5-5-.5-.5,3-3-2-3.5,1.5-1v-3.5l2-3.5-.5-1h-1.5v-1.5h-.5v-3l-.5-.5-.5-2,.5-1-.5-2.5.5-.5-.5-2,2-1,.5-1.5v-2.5l-1-1v-1l2.5-2-1.5-1v-.5l2.5-1.5.5-1.5v-1.5l-2-1,1-3.5,2.5-3.5.5-1.5-.5-1,2.5-1.5-.5-1.5v-1.5l-1.5-.5v-1.5l-1.5-.5,3.5-1.5,2.5,1,1.5-2v-1.5l-1.5-3,.5-1-1.5-2.5v-2.5l1-1.5,1-4.5,1.5-1.5-.5-1,1.5-1,.5-2.5,2.5.5,3-2,2,.5.5,1.5,2.5-.5,1.5-2,5.5-2.5h1.5l4.5,4,1,.5,2.5-2,2,2h1l3-3,9.5,2.5,4-3,2-3,1-1,8,.5,3,1,3-4.5,4-4,1-5.5,3.5-4,.5-1.5-.5-2v-1l5.5-3,3-3.5,1-5.5,3.5-3,2.5-6v-8l5.5-4.5-.5-2.5,4.5-2,4.5.5,4,4,7.5-2.5,1-4,1-.5-1-3,4-2.5,3.5-13,2-2.5,2,3,.5,4,1.5,2,4.5,1,3,4-1.5,3.5,1.5,2,4.5-.5,3.5-2.5,3.5-8.5,7-1,3.5-1.5,6,.5,2.5-3,4.5-1.5,1,.5,2,2.5,1,1,3.5-.5,2.5,2.5,4.5.5,2.5,2.5,6-.5.5,1.5,4,3,.5,2,2,.5,2,2.5,9.5.5,1,2-.5,3,2,6.5v2.5l3,3v1.5l.5,1.5,1.5.5,2.5,2.5,1,4,3,3,1.5,4-2,3v1.5l1,1.5,2.5,2,.5,4.5-5.5,11.5,1,4-.5,3-8,7.5-.5,3,.5,4v1.5h-1.5l-1-2.5-5,.5v-1.5l-.5-2.5-1.5-2h-2.5l-5,2.5h-1l-1-1.5-1-.5-3,2-1-2.5-3.5-1-2.5-.5-2.5,2-1-3h-1.5l.5-1-.5-.5h-2.5l-1,1-.5-1.5-.5-.5-5.5,2.5-4.5,3.5-1.5.5-2.5-1-2.5,2.5.5,1v1l-2,1.5-1,2.5,1,2.5,1,.5-.5,2,.5,1-1,1.5.5,1.5-1.5,2v1.5l-3,4.5-2.5.5-1-1-3.5,1.5-1,1.5.5,1.5-2.5,2v3.5l-1.5,1.5.5,2,2.5.5.5,2.5-7,7.5-.5,1,.5,2.5-2,1.5.5,3.5-1.5,3.5-3-.5-2,2.5.5,1-1,2-3,1,.5.5-.5,2-1.5,2-1,1-2-.5-3.5,3.5,1.5,2v1l.5,2-2.5,3,.5,1.5-1,.5-1.5,4,.5,1.5,3.5,1.5-2,3,1.5,2-.5,1.5-1-1v2l-3,3,.5,1v1l-1.5,2.5-3-1.5-2.5,3-1.5-1-1,2-2,.5-1.5-.5-1.5,1v1.5h-2l-1.5,3,.5,2.5-.5.5-4.5,1-.5-2,.5-2h-.5l-2.5,4,3.5,4v2l.5,1-1,1-.5,3.5h-1.5l-1.5-1.5v-.5l-1-3.5.5-1.5-1-1,.5-1.5-1-1.5.5-2-1.5-4.5.5-.5-.5-2.5.5-3.5,3-3h1v-3l-.5-1-2,1-.5-1-1.5-.5-.5,1-2-.5-2.5,3-3,1,1.5-2.5-1-2-1-.5,1-4-2.5-3.5v-3h-.5l-2.5,2v2.5l-2.5,3.5v2l-3.5,5,1,1.5-.5,3-2-1.5-1.5,1h-2l-4,6-5-1.5-.5-2-4,.5-3,1.5-.5,1.5,1,.5-1.5.5-.5,3h-1l-2.5-.5-1.5-2.5-1,.5.5.5-.5,1.5-2,1-1.5-2h-3l-.5-1h-4.5l-2.5,3,.5,2-2,1v1l-1,.5,2.5,3-2,1.5.5,2-1,3.5h-3.5l-2,2-1,2.5-4,2-1-1-4,.5-1.5-1.5-5,3.5-3-3-1.5-4-1.5.5-1,2.5-1.5-3,.5-1.5-.5-1.5v-1.5h-2l-.5-1.5h-2l.5-3-2-.5v-1.5l-.5-1.5.5-1-7,.5-2-1,1-1.5-1.5-2"/>
      <path data-code="SA-MEG" d="m799.66,1296.91l-2-6-2.5-15.5,1-2.5-1.5-6.5,1.5-4-3.5-15.5.5-2.5-.5-1.5,1-1-2-4v-9l9.5-1.5-.5-2.5,3-3,13.5-.5,2,1.5,10.5-1.5,1,.5-1,3,1.5,3-1,1.5,2,.5,3-2.5,3.5,2h5.5l-4.5,6.5,1,1.5,1.5.5-.5,1,1.5.5-.5,4.5,4,2,2.5,4,3,1,4,5.5,1-1,6,5-3,1-2,3-5,1,1.5,3v2l-1.5,3v3.5l.5,1-9,5-.5,1,1,3-1,4.5,1.5,5.5-2,4v2.5l3.5,2.5-1.5,2.5,3.5,1.5,1,2,4.5,5.5.5,4.5,1.5,1.5.5,2.5-3.5,3.5-4,1-1.5-4-2,3-4.5,3.5-1.5.5-1.5-.5v-1l-9-17,2-3.5-1-6-2.5-5-3-2-7-2.5-3,1.5-2.5-1-2.5-1.5-10.5,2"/>
      <path data-code="SA-MIR" d="m26.16,1258.91l1-1,2,1.5,2.5-1-.5-1.5-1.5-1.5.5-1.5-.5-1.5.5-2.5v-2l1-1,1,1,2-.5-1-.5v-1h-1v-1.5l-1-2,.5-.5,3-1,.5.5-.5,2h1v1l4.5-.5-3-2-2-4v-1l-3-1.5-1-.5v-2l2-2,2.5-.5,1-2,.5-3,3.5-1v-2l2.5-4,2,1,1.5-1-3-1.5-.5-5,2-2,.5-3h1.5l.5-1,6,.5,1-3.5-.5-.5v-1l2-2,.5-2.5-8-1.5-.5-1.5.5-2-.5-1h-2.5l1-1-7.5-2.5.5-1.5-1-.5,1.5-1-.5-1,.5-.5-1-.5.5-.5-1-1,.5-2,1.5-1-1.5-1.5.5-2-.5-2h.5l-1-3.5h.5l-.5-3.5.5-1.5-1-1-1-2.5-1.5-.5.5-1.5-1.5-.5v-.5l-1-.5.5-1.5-1.5-1.5-3.5,1-3.5-3,.5-1.5-.5-1.5.5-1h-.5l.5-.5-.5-1.5.5-.5-1-.5.5-1-1-2,.5-1.5-.5-1,1.5-4,2-1,2-2.5-1-1.5,5,.5,7,3.5,3-2,1-2.5,2.5-.5,1.5-3.5,3.5,3,4.5,1,6-1,1.5-2.5,8-.5,2,.5,2.5,3h1.5l1-1.5-1-6.5,7-10-3.5-1.5-1-2,8-2,5.5-4.5,1.5,1-1-2.5,2.5-1.5,3.5,3.5v1.5l-1.5,1.5v2l.5,2.5,3,3,5.5-.5,4,5-1,3,4.5,3,1,2.5-.5,8.5,1.5,6.5,1,1.5,4-1,.5-3,5-2,1.5-3,2-1.5,3.5-.5,3-5.5,5.5-2.5v-2.5l-1.5-2.5,1.5-3h5l2-5.5,3.5-2.5,7.5-1,4.5-4.5,5,1,4-4.5,8-1.5,4.5-3,6.5,2.5,3-1,1.5-1.5,7.5-.5,2,2.5h3.5l1.5,3,5,2,.5,3,2-1.5.5,2.5,2.5,1,.5,4,3.5,5.5v1l2,1.5v4l.5,2v2.5l3,3,2,.5,3,7.5-2,2.5h-9l-2,2-2,2.5-.5,5.5-2.5,3-2.5,5.5-.5,2,1,3.5v.5l-3.5,1,.5,2-5,2v2l1.5,1.5h4l2.5,1.5,7-2.5.5,1.5-1,1v1.5l1,1.5-.5,1.5,2,1,.5,4.5-.5,2-.5.5-2.5-1.5-3,1.5-.5,1.5v2l1.5,1,1.5,3.5-1,1.5,1,2v1l1,.5.5,1.5,2,.5,3.5-2,1.5-2.5,1.5,1,3.5-.5.5,1v1.5l.5,1.5,1.5.5,1,1.5,3-.5,2,1.5h2.5l1.5,1.5,2,6.5,4.5-2,4,.5,7.5-1.5,3.5,3.5,1.5,4.5.5,4,1.5-.5,1,1-.5,2.5,1,2,3-1,.5,2.5,3.5,3.5-.5,2,.5,2.5,1,2.5,2,1.5,1,2.5.5,4-.5,2,1.5,3.5v1l-1.5.5.5,1.5-1,1h-4v2.5l.5,1-1.5,2.5-6.5,2.5-4-2-.5,5.5,3,3.5,5.5,2.5,1.5,7.5,4,6.5-3,4-.5,3.5,3.5.5-.5,1.5v2l1.5,2.5,1.5,1h3.5l2,1,3-.5,2.5,4.5,2,1.5,1.5,4.5,5,5-2.5,4-5.5,2.5-1-1-2-4.5-1.5-.5-3,.5.5,2.5-.5,1-1.5-1-1.5-2.5-6.5,1-2.5,7.5-2.5,1,.5,1,5,3,3-1,.5-1.5-.5-1.5,1,2,2-1,1,1.5,1-1,.5,3,.5,1,2-1,1.5.5-1.5,1.5v3.5l2.5,4-1.5.5,2.5,2.5.5-.5-.5-1.5h2v1.5l2.5,2-2,1,2,1.5v1l-2-.5.5,1h-1.5l1.5,2,.5,1,1-.5,1,2h2.5l1.5,2,2-1v2l1.5,2-1.5,1v1l3-1,1,1-1.5,2,1,1.5,2,.5.5,1v1.5l2.5,1.5,1,2,2.5.5,3,3.5,1.5.5,2-.5,1,1.5v1l3,8,3.5,1.5-.5,2,1,4.5-2.5,3.5v1.5l2.5,1.5-2,2.5-3.5,13-4,2.5,1,3-1,.5-1,4-7.5,2.5-2.5-2.5-3.5-2h-2.5l-4.5,2,.5,2.5-5.5,4.5v8l-2.5,6-3.5,3-1,5.5-3,3.5-5.5,3v1l.5,2-.5,1.5-3.5,4-1,5.5-4,4-3,4.5-3-1-8-.5-1,1-2,3-4,3-9.5-2.5-3,3h-1l-2-2-2.5,2-1-.5-4.5-4h-1.5l-5.5,2.5-1.5,2-2.5.5-.5-1.5-2-.5-3,2-2.5-.5.5-1.5-1-1,1.5-4-1-2v-2l-1-1.5-3.5-1-2.5,3-3,.5-3.5-3-1.5-4-4-2-5,1-3-.5,1.5-3-.5-1v-2.5l1-2.5-2-1.5,1-3-.5-1.5.5-1-5-6.5h-1.5l.5-3h-2l-1-2-1.5-.5-.5-1.5.5-2.5h-2l1-.5-1-1.5,1-2-1.5-2-.5-1.5,2-1.5,1-3,1-.5v-1.5l1.5-1.5-.5-1h1.5v-1.5l1-1v-2l.5-1-1-.5,2.5-4,1-.5v-2l-3.5-4.5,2-4-2.5-1,.5-2-2-.5v-2.5l.5-.5-.5-1.5-7.5,1.5-4-1-1,2-2,.5-1-3-3-1-1.5-2v-1l-1.5-1v-1.5h-1v-1.5l4-1.5-.5-.5v-3.5l2.5-2v-1l-.5-.5.5-1.5-1-1,1-2v-1.5l4.5-3v-1l-2-2v-1.5l-2-1.5-1.5.5v-1.5l-2-2,1-3.5h-2l1.5-.5-.5-1v-1h-1.5l1-1-.5-1,.5-1.5h-1.5l.5-2.5h-1l.5-1.5h-1l-1-2.5v-1.5l1-.5-1-3h-1.5v-2.5h-.5l-.5-1,1-1-1-2-3,1-1-.5v-1l1-.5-2.5-2.5v-1.5l-3-2.5v-1l-.5-.5.5-1-.5-.5-3.5-2-6,1-5-2.5-2,1-1.5-.5v-.5h-3l-5.5,2.5-6,1-1-3.5,1.5-1.5,1.5.5,2-3.5-1-6v-1.5l-.5-1,.5-1,2-1,1,1,3,1,3.5-2,1,1.5h1l1.5-2v-1.5l1.5-.5v-1.5l-2.5-1.5v-1h-1l1-1.5-.5-1,.5-.5v-1l-.5-.5.5-1.5-1-1.5-4-1.5-1-1.5.5-1-3-2,1-2-.5-.5,1-1.5-2.5-1v-1.5l1.5-2-2-.5v-1l-1-1.5-2.5-1-.5,1,.5,1.5-1,2-5.5-.5-3,2.5-.5,3,.5,2-2.5.5-.5-1.5-1.5,1-2-2.5-4.5-1.5v-1.5l-2.5-1.5-4.5,1-1,2-2.5,1.5-3.5-2.5-.5-3h-4.5l-.5-.5v-1l-4.5-1.5-1.5-2-3,1.5h-2.5l-1-3.5-1.5-1.5-1-2-2-.5-1,1.5,1.5,3-.5,1-6,1.5-1,1h-2l-2,2-1,.5-1.5-.5-1-1.5,1.5-1v-2l-1.5-.5-1-2-1.5-1-3,4.5-1-1-3,1.5-.5-1.5,1-1.5-.5-1.5-1-2.5-1,.5-.5-1.5,1-3-2.5-2.5"/>
      <path data-code="SA-MOM" d="m884.16,812.41l-.5-1,4.5-4-.5-2.5-1.5-2-.5-3.5h-6l-1-2.5-1-2-4-3.5,7-1,1-1.5,2,.5,3-1.5,5.5-11-1-2.5,1.5-1v-4l3.5-5.5v-7.5l9-2v-3h3.5l2-1,1,1,2.5-3h4l4.5-3.5h7.5l3.5,5.5.5,2,2.5,2,6.5,3h4.5l5.5,1.5,17.5-11,4,1.5,3-1,7,2.5h9l3.5,4.5,2-1,3,2,3.5-1,4,3,.5,1.5,4.5-1,1,2.5,9-1.5,1.5.5,2.5,2.5h2.5l2.5-2,5.5,2.5.5,1,3-1,6,1,1.5,1.5,4-5-1-2,1-2.5-2-5.5,1-5.5v-4l-2.5-7v-2l2-8.5,3-6.5.5-4.5,4.5-.5,5-4.5,2.5-1.5,3,.5,4,2.5,7-2.5,7.5-6-1.5-2-2.5-1.5-1.5-2.5-1-2.5-3.5-.5-4.5-4.5,2.5-2,3.5-.5,1.5,2.5h1l3.5-2.5,2.5,4,4,.5,2.5-4,3.5-3,1.5-6.5,6.5-.5,2,5,1.5,2,4-4,4-.5,2.5,1,.5,4,2,1,.5,5,3,3,1.5,5.5,2,1.5,1-1,.5-2.5,4.5,5,4,2,2,1.5.5,2.5-6.5,5.5-3.5,5-1,3.5-2.5,1.5-5,15.5v2.5l1,2.5,3.5,4.5,3.5,3,1,2-1.5,3.5,1.5,1.5.5,5.5,1.5,2,4,1.5,2.5,2.5,8,3.5,4,1,5-.5,7.5,4,10.5-2,2.5,5h1.5l2.5-1.5h3.5l1,1.5,7,4.5.5,2v2.5l3,1,3-2.5,3.5,2.5,2.5,3.5,4.5,2.5-1.5,1.5.5,1.5,1.5,1-.5,2.5,2.5,2.5-1,3.5-3.5,1-2.5,4,1,3,2.5,1.5,1,2.5-2.5.5-.5,1.5,4,4.5,1.5.5-1,1,2,2v5.5l1,1h5l.5,3.5-.5,1,1,2.5-.5,1.5-2.5,1.5v2h1.5v1l1,1v1l1,.5.5.5,1-.5,1,2,2.5-1,5,2-.5,2,.5,1,1.5.5v1.5l-1,.5,1,1-.5,3,1.5,1.5v1.5l2,1.5-2,2.5v.5l1,1.5-.5,1,.5,2-3.5,1.5v-1.5h-1v2l-2,1-1.5-1.5.5-1.5h-1.5l-2.5,1.5-.5-1h-1v-1.5l-1.5-.5,1-2.5-.5-2-5-2-.5,3-2,2-2.5,3.5.5,1h1.5v1l1,2-1,1.5.5,1h-4.5l-4-2h-3.5l-8.5,4-5.5.5-4,2.5h-2.5l-2,3-5-1-2-2-8-2-4-2.5-1.5-.5-4,4-4-.5-3,3.5h-2l-7-3.5-3.5,3-3-1-5,2.5-1.5-1.5-7.5-1,2-6-1.5-2.5-3.5-2-6.5-1.5-3,1.5-1.5-2.5-6.5-5-1.5,2.5-3,.5-.5,1.5-3-1-2,1-1.5,3-5-.5-3.5,2-1-2.5-4.5.5-2-.5-1,1-4.5.5-2.5,3-2-.5-2-4-2.5-1.5-2-1h-3.5l-2,.5-1,3-2.5-.5-13.5,5.5-1.5-1.5-5,2-3.5-2.5-1.5.5-1,2-6,2-1,1.5-2-1.5-1,1.5-2.5-1-6.5.5-3.5-2-.5,1.5,2,2-5.5,1-3.5,2-.5,2.5h-5.5l-3.5,2-5.5-1-.5-2.5-1-.5,1.5-7.5-1-3-1-1-12-3v-3.5l-1.5-3.5-1-1-3.5.5-4-1-2-2.5v-1.5l-5.5-2-1.5-1-.5-1.5v-2l5.5-5-1-3,1-2-1-1.5,4.5-1.5,1.5,1h5.5l-.5-2.5.5-3.5-1.5-1.5.5-1.5-.5-.5-2-1-2,.5-1,2-1.5-.5-1-2-1-.5-1.5-4.5-1-1-5.5-2-4,1-2-2.5h-2.5l-1.5-2-2.5-1-5,1.5-4.5-.5-1-1.5-1.5-1-1-2-3.5-2-.5-2.5-1-1-4,1-1.5-1-3,2.5-2.5-2-5.5,2-2,1.5-3.5-2.5-.5-1.5-1.5-1.5-1.5-.5"/>
      <path data-code="SA-NAM" d="m726.16,1246.76l1-3,.5-2.5,6.5-3.5,3-4h3l1.5-3-2-4.5-13-2.5-10-11-5.5-10.5,2-.5,1.5,3,9.5-3.5,1.5-7,.5-8.5,2-9.5-1.5-3.5,1-8.5,14,.5,2-2,6.5,2.5,1.5-4.5,3-3,.5-2.5,2.5-4.5,5.5,2.5-3.5,8.5.5,1,6,1,1.5,1,1.5,2-2,.5-.5-1v4.5l1,2.5.5,4,2,2,1,2.5.5,1-.5,1,4.5,6,1.5,4,.5,4v4l2.5,2,3.5.5,7-1,5,2.5-2,1,2,3-3,5-3,1.5-2,5,1,6,3.5,2-2,1.5-2,4-7.5,2-.5,6-2,2.5-6,2-6-3.5-9.5-.5-5.5,3.5-3,5.5-8.5,2-4-1.5-9.5-6"/>
      <path data-code="SA-NER" d="m575.66,1694.76l.5-5.5,1-2h2.5l.5-3,1.5-2.5-.5-1.5.5-2,3.5-1,2-3.5,3.5,2,4-3.5,3-.5,1.5-3,3.5.5,2.5-2h3l3,2,1.5,2,4-1,4.5,2.5.5-4.5h2l6.5-5,.5,2,5.5-1-.5-2.5v-2l1.5-1.5,2.5,2,5.5-.5,5,1.5,1.5,2,1,5,9,7.5,7.5.5,3,2,2.5-2h3.5l-1.5-2.5,1.5-2.5-.5-1.5-4-1-2.5-3.5.5-1-3.5-2-.5-1.5,2-6,5-.5,1.5-2,1.5-5.5-1-4,1-3-1-1-2.5.5-1.5-3,1.5-1.5-.5-2,2-.5-1-7.5,2.5-2-1-6.5-1.5-5,1-4.5-1-3.5,3.5-4-.5-2.5,2-6v-2l-1-1.5-5,1.5-3.5-3.5,2-3.5-1-1,1-2.5,4-3.5,5.5-.5,2.5,1,1-.5,2,1h5l2-1.5-.5-2h3l-.5-2h5.5l-1-1.5-2-1,2-2-1.5-2.5,3.5,2.5,3-5-1.5-1.5-1.5.5-1-2,.5-.5,6,2,.5-1-1-1.5v-2l-1-1.5-1.5-2.5,2.5-1,.5-1-.5-1,6-3.5,6-1.5,2,1v1l-2,3v5.5l-5.5,5,3,1.5.5,3.5-.5,1,1.5.5.5,1-.5,3.5,1,2,.5,4.5v1l-2.5,1-1.5,3.5,1,3,3,.5,1.5,2.5v1.5l-1,2,1,2.5-2,1-.5,2.5,2,2,2.5.5,2.5,4,2,.5,1,1h3l3,3,4,1.5,10-7,4.5,2,1,1.5,2-.5-.5-2.5,1.5-2.5-1.5-6,1.5-1.5h2l.5-1-1-2v-1h8.5l1,1,1,3.5,3,2h6.5l2,2,2.5.5,3,2,9.5-2,4.5-3,1.5,4,2.5,1,17-2.5,3,1,1.5,1.5v2l2,4,4,5,3,2.5,5.5,1,4,2.5,2,.5,3.5-7.5,1.5-1,1.5-.5,6,3,.5-3,3-2,5,.5,2.5,1.5,2.5-1,3,1,1.5-3,2-1.5-.5-2.5,2-4.5,8.5-1.5,1.5,2.5,4-1.5,2,1.5,6-5,.5-1.5,4-1.5,4-5.5,7-3,12-1.5,4,2,.5,2.5,2.5,2,.5,2,1.5-3-.5-1-.5-1.5.5-1.5,3.5,1.5.5,1.5,4.5,2.5,3.5-.5,2-2,2-4.5,2.5-2.5,2.5-10.5,5.5-4,2-3.5,5.5-3,2-3.5,3.5,1.5.5.5-1.5,1,1.5,1.5h1l.5,2,1.5-.5,2,2h1.5l.5,1.5,1-.5v1h1.5l.5,2h2l1,2,1.5-1,1,2,2,.5-.5.5,1,2h1.5l.5,2-2,.5,1.5,1.5-1.5.5,1,1-2.5,2.5,2,.5-1,2,1,.5-.5,1,1.5.5v1l1,1.5-1,3,5,1.5-.5,1-1,1-1-1.5v3l-2-1-.5-3.5-2.5,1-.5-1.5h-3l-1,5,2,1.5v2h-1.5l-.5-1h-.5v-1.5l-2.5-1.5v1.5l-4,1,1,1.5-1,2.5h.5l.5.5-1,.5.5,1-.5.5.5,1-1,1,.5,1v1l.5-.5-.5.5.5.5v.5l2,2v1l1,1,.5,2v4.5l-2,4v2.5l1.5,3.5-.5,5,2.5,3-1.5,4,1.5.5,2,4,3,1,1,4,1.5,1.5v1l-2.5,1.5-6-1-2,1h-2l-3.5,3.5-4.5.5-1,.5.5,1-3,.5-3.5,3.5-2.5-.5v1.5l-2.5,1-2.5-2-2.5-1-.5,3-2,.5-1.5-1.5-2.5,2-2-1-.5,1.5-3,3-2-1-.5,3.5h-2l-1,2-.5-1-1.5,1.5-1.5-.5-2,3-4,2,.5,2,3,2.5.5,2.5,1.5,2-.5,2.5-3.5,3-2-.5-1.5,1.5-1.5-1,.5,1.5-1.5,1.5-1-1.5-2.5.5-.5-1v-2l-1-.5-2,2.5-4,1.5-2-3-4-1-2.5-2.5-2.5-.5-3,1-4,4-8,3h-1.5v-1l-1.5-2h-2l-1.5,1.5-1,3.5-2.5,1.5,4,4-3.5.5-1,2.5-1.5.5-.5-1-3-.5-.5-1.5-1.5-.5.5-.5-1-2-2,1.5-3.5-1.5-1,2-6,1.5-1,1-.5,1.5,1,1,.5,2-2,2h-2.5l-1.5,2.5-2.5-2v-1.5l-.5-.5-3,2-2,3.5,1.5,1v1l-2,2-2,.5-1.5-1.5-2,1.5-1.5-1.5-6.5,4-1-.5v-1.5l-1-1.5,2.5-1-1-1.5h-2l-1-1.5.5-.5-2-1-1.5,1.5-1-3-6-.5-6,2.5-2.5,5-1.5-.5-1-1v-1l-2.5-.5-1-2.5-1.5-1.5-3.5.5-3.5-1-5,3.5v2h-2.5l-1,1v1.5l-5-.5v-1l-2.5,1.5-3.5-3h-2.5l-2,4.5-2,.5-2-1.5-1,.5-.5-2.5-2.5-2-1-4-2-1-5.5.5.5-1.5-1-1.5-.5-1.5-2-2.5-6.5-2-4-5,.5-1.5-1.5.5-1.5-1.5-4.5-1h-2l-2,2.5-18,3-1.5-1-1.5.5-1-1-2.5-1-1-1.5-4.5-.5-1-1v-1l-1-.5-2.5,1.5v1l.5,1v1.5l1,.5-1,2.5h-2.5l-1,2.5h-3l-3-4-2-.5-2-2.5-5.5-.5-3-2.5-2.5-.5.5-1.5-2-1-6,.5-1,1.5-2.5,1.5h-6.5l-2.5,2.5-1-1.5.5-2-2.5-3.5h-2.5l-1.5-3v-1.5l-2.5-2-2-1-10,2-1.5,1.5-4-3.5h-3.5l-3.5,2.5v1h-4.5l-2,2-2.5-.5-8.5,3.5-1,3-4,5.5-1.5.5v1.5l-3.5.5-2.5,2-1.5-1-2.5-4.5-5,.5-2.5-2-.5-1-1-1.5"/>
      <path data-code="SA-NKO" d="m1241.16,261.26l2-1-3,2.5-1-1.5h-1l1-1.5,2,1.5m-2,2.5l-.5.5v-.5h.5m-11,18l-2.5.5v-1h-.5l-.5-2.5-1-1h-1.5v1.5l-.5-1-1,.5-.5-.5,1.5-1.5,4.5-1v.5l1,.5.5,1,3.5.5-3,3.5m24.5-15l1,.5-5-.5-2,1-1-2-.5-.5.5-.5,4-1v1.5l2.5.5.5,1m2.5,3l1,.5-1,.5-.5-.5-.5-1,1,.5m16.5-10.5l-2,2.5h-3l5.5-4-.5,1.5m18.5,75l-1,1-1.5-.5v1h1l-1.5.5-.5-1.5,3.5-1v.5m-186,148.5l-3-22-1-.5-4-3h-1l-1.5-3.5-6,.5-.5-1,3-1.5-.5-1,3-.5-1-.5-.5-2.5-1,.5v-2l-2-.5,2-5.5-1-1.5-2-.5-2.5,1-3-1.5-1.5-5.5-2,.5-2.5-2.5-1-2,1-3-1-2,.5-4.5-3-1-1-2-.5-.5.5-1v-2l-3-2.5-.5-2.5h1.5l7-5,11.5-13.5,1.5-1,1.5.5,2-5,9.5-13.5,23.5-28.5,12-9h1l.5,1.5,1-.5-1-1.5.5-1.5,7-5.5,18-10,15-6,17-4,17-.5,9,2.5,9.5,4.5,6,4,5.5,4,2,7.5,1.5,3.5-4.5,3,6-2,1,3.5,1,2,1,1,.5,6.5,2.5,3,4,1,.5.5.5,1h.5l15-4.5,1,1v2l6,3v-1h-1l-4-3v-2.5l3-2.5,8.5-4h2.5v-1l-1.5-.5.5-.5,2.5-2,.5.5-2,1,.5,1h1.5l-1,2.5,3-1,1,2v2.5l1,.5v1.5l-.5,1,1,2,2.5-.5v1.5l1.5,1.5,5.5,2.5.5,2,2.5,1.5.5,2.5,3,2,1,3,1.5-2.5-3-2-3.5-5.5-1.5-.5-2-2.5h2v2.5l1.5-.5-1-1.5-5.5-3-3-3,2-10h-1l1-1h-1.5v-2.5h-2.5l1,1v1.5l-1.5-2,4.5-4,4,.5,1.5,3.5,2.5,1v2l2,1-1,3,.5.5h-1l-.5,2.5v-1h-.5l-.5,3,2.5,1.5.5,2.5,2-.5,1,.5.5,4,2,1,1.5-.5.5-.5h-1l-1.5-2.5v-2l-.5,2-.5-2.5-2.5-1-1-1,1.5-.5-2-1,.5-1-1-1,2-3-1-4h-.5l.5-2.5v-2.5l2-5.5-1.5,1-1-1-.5-1.5,1.5-1-1-1,1-1,.5,1.5v1h.5v-3l1.5-1v-1l-1.5-.5-.5-1,1.5-.5,1.5-2-.5-1.5-1.5-.5,3-1,1.5,1-1.5,2.5v2.5h3.5l-1,2,1,.5-.5.5,5.5,2,1,2-.5,2,5.5-1.5,1,1,.5,2,3,1h5l2.5,1.5,1.5.5,1-1,.5,2.5-1.5,1.5,1,1.5-2,3.5,1.5,2.5,1,.5h2v1l1,1,.5,1.5,7.5-.5,1,.5,1,1,4,1-1,1.5,1.5,4-3.5,2,5,4.5,3-.5,3,3,1.5.5.5,4,1,1.5-.5,3,3,1.5,1,3.5,1.5,2.5,1.5.5-.5,5.5-6,1.5-1-.5-3,2.5h-2.5l-1,2.5-1.5.5-2,2.5-3-.5-4,3.5-3.5,6.5-1,6-4.5,7.5-6.5,6.5-3.5,1-4.5,3-.5,2-3,2.5v2.5l1,1v.5l1,.5-.5,1-1,.5-1-.5-2.5-.5-3.5,5.5.5,1-2,.5-2,2,.5,2-3,4-.5,5-3,.5v1.5l-3.5,1-3.5,7.5.5,1-1,2-1.5-.5-3.5-2-2.5-.5-3-11-4-2h-3l-2.5-5.5-3-1-2.5-2-12.5,2.5-4.5,3v4.5l-3.5,4h-4.5l-6,3-4,.5-1.5,6h-2l-6-3-10.5,2-8,9-1.5-.5v-1.5l-1.5-2,.5-.5-2.5-2.5v-1l-1.5-2.5v-1.5l-2,.5-1.5,2.5.5,1.5-3.5.5-4,4h-2l-2-3.5-6,1.5-6.5,6-3,4.5-17.5-.5-4.5-4-11.5-2,1.5,3-2.5,2,.5,1.5-1.5,2.5-1.5-.5-1.5,2-.5-2-1.5.5-1-1.5h-1.5l-.5,2-1.5-.5-2,4.5-2,1-.5,2h-2.5l-.5,3h-3.5v-1l-3.5-3-8.5.5-4.5-1.5-5-6m204.5-164.5l-.5-.5h.5v.5m-1.5,9l-3.5-2,2.5-4.5,2-1.5-.5,3,2,1.5,2,1v1l-2,2.5-2.5-1m-8.5,13v-.5l1-1v1l-1,.5m14-10l-.5,1-1.5-1v-.5l.5,1,1.5-.5m-14.5,15v-.5.5m6,4.5v-.5l1,1-1-.5m13,1.5l-.5-1v-.5l.5.5v1m-19.5-13.5v-.5h1l.5,1-1.5-.5m-1,.5v-.5.5"/>
      <path data-code="SA-NYU" d="m280.66,1228.26l-.5-3,1.5-2.5,2-.5,1.5-5.5h2l1.5-2.5,1.5-.5-1.5,1.5.5,2,1,1.5,1.5-2-.5-3h2.5l.5,1,.5-1-5-4.5-1.5-2h2.5l3,3,1.5-.5-2-2-1.5-2.5,2-1.5,2,1-.5-2-2-2v-1l3.5-2v-2l1.5-1h2v-1h2l1,1,1-.5.5-2,3,1,1-2-.5-1.5-4.5-1-1-2,3.5-.5-3-1.5v-1l4.5-.5,4,1,1-1-2.5-3,1-.5,3.5,1.5,1.5-.5,1-2.5,3,1v-3.5l-3-1.5,1.5-1.5,3,3,3,1,.5-.5,3-4,2.5-.5v2l-4,2,.5,2.5,2,.5,3-3,1.5-1,3.5,1.5,2-2.5,1,1.5v2l-2.5,1-.5,1.5,2,1.5,2.5-1.5,2-5.5,1.5,1-1-1.5.5-2.5,1.5,2.5.5-1.5-.5-1,1.5-.5-1-3,.5-1,1,1,3-2-1.5-1,.5-1.5-1-1.5h2l-1.5-3.5,1-.5,1,3,.5-2h2v-1.5l2.5-.5-.5-2.5,1.5-1.5-1-3,1.5.5v-2l-.5-1.5-.5-1,1.5-1-.5-1.5-2-1-.5-2,2.5-1.5,2-3.5v-2l1-2.5,2-2,.5-5.5,1-1.5.5-2-.5-1,1-1.5,7.5-1.5,4-3,2,.5,1-1.5v2h1l-1,1.5,1.5.5-1.5.5,1.5,1v1l3,.5-.5,1h1.5l3.5,2.5-1.5,2,1.5,1.5.5-1,.5,1.5h.5v1.5l1,.5-1.5,4.5,5.5,2v.5l.5.5-1,.5,2.5,2-1,2,2.5,2v2l1.5,1,.5,3h1l-1,1.5,10,4.5,1,1.5.5,3,1.5,1.5v4l1.5,1v1.5l1.5,1.5v1.5l1,.5-.5,5,1.5,2.5-.5,1.5,2.5,2v2.5l-1.5,1,2.5,2-1,1,1,4-1.5.5.5,3,2.5.5.5,3v1l3,4-1.5.5v2l2,4,4,3-.5,1,.5,1.5,3,2.5,1.5-.5.5,2v1l1,1.5h2l7.5,8,4,2,2,3,1,2h-1.5l-.5,7.5,2,3.5,6,5-1.5.5,1.5,2-2.5,4-1.5,7-3,3v2.5l-2.5,2.5v2l2,5,2.5,1,1,1.5.5,2.5h2.5l1,2.5v2l3,2,.5,1.5.5,1.5-1.5,2v2l3.5,3.5.5,1.5-.5,2.5,1.5,3-4.5.5-3,2.5-5-1.5-.5,2-15-2.5-4-3.5-6.5,2.5-1.5,3h-2.5l-3.5-3.5-4-.5-3-1.5-.5-1.5-4,1-4-2h-2.5l-1,1h-4l-6.5-1.5-6.5-2.5-10,2-11,5.5-5-1-3.5-6-3,2.5v-2.5l-2.5,1.5.5-3-2,1-1.5-2-2,1.5.5-2-3.5-3,1.5-2-1-1.5h-1.5v-1.5l-4,.5.5-5-1.5.5.5-3.5-2.5,1.5-3.5-1,2.5-2-1-1-1-3.5,3.5-2h-5.5l-2.5-4h-2.5l.5-1.5,2-1.5h-2l-1.5-3-2,.5-2-1.5,1-.5.5-2.5-2.5-2-2.5-.5-6-5.5-2.5.5-1-2.5-2,.5-1-1.5h-1.5l-1-2-4.5.5-3.5,3-3.5-1-1.5-4,.5-2-.5-3.5-1-2.5-2-1.5-1-2.5-.5-2.5.5-2-3.5-3.5"/>
      <path data-code="SA-OJM" d="m974.16,942.26l.5-4.5-1.5-5.5,1.5-1.5v-1.5l-1-1.5v-1l-1-1.5,1-8,2-3v-4l-1.5-4.5.5-1.5,3-2,2.5,1,1-3,.5-4.5,3.5-2,5.5-.5.5-2,3.5-2.5,5.5-1-2-1.5.5-1.5,3.5,2,6.5-.5,2.5,1,1-1.5,2,1.5,1-1.5,6-2,.5-2,2-.5,3.5,2.5,5-2,1.5,1.5,13.5-5.5,2.5.5,1-3,2-.5h3.5l2,1,2.5,1.5,2,4,2,.5,2.5-3,4.5-.5,1-1.5,2,1,4.5-1,1,3,3-2.5,5,.5,2-3,2-.5,3,1,.5-1.5,3-.5,1.5-2.5,6.5,4.5,1.5,3,3-1.5,6,1.5,3.5,1.5,1.5,3-2,6,7,1,2,1,5-2.5,3,1,3.5-3,6.5,4,2-.5,3.5-3.5,4,1,4-4h1.5l4,3,8,2,2,1.5,5,1,2-2.5,3,.5-.5.5h.5l1,2.5.5,2.5,1,1.5v3.5l-.5,1.5,1.5,2-.5,2.5.5,1.5-3.5,3.5-1.5,4-2,1-4,7v1.5l4,.5-.5.5,2,3,.5.5,1,1v.5l1,.5v2.5h-1v1.5h-.5l1,.5-.5,1.5.5,1.5v4.5l2,1-.5,2,2,2.5,1.5,4-.5,1.5,1,1v1.5l.5,1-1,1v5l2.5,3,.5,2,5.5,5.5-.5,1.5.5,1,2.5-.5,3,3-.5,1,2,1,2,2.5,1,2-.5,1,2.5,5,3-.5,1.5,1-1.5,1.5.5,1.5,3.5,2-1,.5v2l2,.5,1.5,1.5,1.5.5-1,4h-4l-.5,2.5,1,1.5h-2l-.5,1,3,2,.5,1.5v1.5h.5l1.5,2,2,.5v1l1,1-1,1,1.5.5-1.5,2.5,1,.5-.5,1.5-1,1-2-.5v1.5l2,1-.5,2,1,1.5-3,1.5,1,1.5-2.5,5,2,3-1,2.5.5,2-1,2.5,2,1.5v1.5h1l-1,1-.5,2.5h1v.5l1,1-2,3h-1.5l.5,3.5h-1l-1.5,3,1,1.5-.5,1.5-3-.5v2l-2-.5-3.5,2-.5-1v-.5h-1v-2l-1.5-2,.5-1.5-1-1v-1.5l-2.5-.5v-1l-1-1-.5.5-.5-1.5-1-1.5-1,.5v2.5l-2,2,.5,1,1,1,.5,1-2,1.5,1,.5-.5,1,.5.5-1,1.5-.5-.5v-1l-1,.5-.5-2-1.5-1.5h-1v-2.5l-1.5-1.5.5-1.5-5.5.5-1,1v2.5l-3,.5-1.5-.5-1.5-1.5v-1l-2.5-.5-1,1.5-1,.5-.5,1.5,1,1h1.5v7l-1,.5,1,1.5v1.5l1,1-1,1.5-1.5-.5-.5,1-3-1.5-1.5,1-.5-1-2.5.5-.5,1,.5,1-4,6.5.5,2-3-1.5v-1.5l-1.5-1.5-4,1.5-.5-2h-1.5v-1l-3-.5-1.5-1.5-1.5,1v3l-1-.5-.5,2.5-2.5-.5-1.5,3.5-2-2.5.5-1-.5-1.5-3.5,2.5-1.5-1h-2.5l-1-1.5-2.5.5-3-5-2.5-2h-3l-.5-1h-1l-1-1-2-.5-2.5-3-1.5,2.5-2-.5-.5,2-2.5-1.5-1-2-1.5-1-1.5,2-2-1-1.5,1-1-1h-1.5l-2,2.5.5,1.5-.5,1,1,.5.5,1-1,.5.5,1v1.5l-3,2-4-4-.5-1.5-1-1-8.5-2-1.5-2.5-2.5.5-.5-1.5-1.5-.5h-2.5l-5,5v3l-1,.5-.5-1.5-3.5-2-2.5-3-4.5,1.5-1-1-.5-3,1-7-1-.5-3,1.5-1-1-1-2,.5-2.5-3-3.5-.5-1.5v-2l-2.5-3v-5l-1-3,3.5-5.5v-4l3.5-8.5v-2l7.5-5.5h4l-3-4-.5-3-1.5-1.5-.5-3-1-1.5-4,.5-2-6-.5-2,1.5-2v-1.5l-2-2,.5-3.5-1.5-8.5-1-1.5-4.5-3.5-7,.5-4-2.5-2,.5-2-2-5.5,1-4-.5-.5-2,4.5-6.5,1-4-3-4.5-1.5,1-2.5-2-2.5,1-3-.5-.5-1-4-.5-1.5-1.5-2.5.5-1-1.5-1.5-1-3.5-1.5-1.5,1-1.5-1-3,.5-3.5-4-3.5.5-3.5-1.5-1.5-2"/>
      <path data-code="SA-OLN" d="m2.66,1096.76l3.5-1,1,.5,7.5-2.5,2.5-6v-3.5l4-.5,1.5-2.5h1.5l2.5-5,2.5-2,1.5,1.5h3.5l.5-2.5,2-3-1-11.5-.5-12-2-12-2-29-6-42L.16,927.76v-1l.5-1.5,4-3v-3l2.5-4.5,3.5.5,1,2.5,6-.5,18.5-12,5.5-2.5,3,.5,1.5-2v-2l-1-1.5,1.5-1.5-1-1.5h2.5l.5-2,1.5-1.5v-1.5l.5-.5,11.5.5,5.5-2,1,1-.5,1.5,1,2.5h7l2.5-2,.5-1-.5-2,1.5-.5-.5-3.5.5-1.5-1-1,.5-1.5-.5-2.5,3-2.5v-2.5l-1.5-1-1.5.5-2.5-2-.5-4-2-1v-2l-.5-2,3.5-1,3-3,1-2.5-1.5-2.5.5-.5-1.5-1.5,2-1.5,7.5-3,1.5-1.5,1.5,1,2-1.5,4-.5v-1.5l-.5-.5h-2.5l-2.5-2-.5-1.5-1-1.5,1.5-1.5-2-3,1-1.5-1-2,4.5-3-.5-1,.5-1,4.5-2-1-1.5.5-2,2.5-2,3-1.5,2.5,1,4.5-5.5,7.5-2.5,1.5-1.5.5-3.5,3.5-1.5,2.5-3,1.5,1,1.5-1.5,1.5-.5,1-2v-2l.5-2,1.5-.5,3,3,1.5.5v-3.5l1.5-2,3-.5.5-2.5,2-.5-2.5-2.5v-1.5l3-2.5,1-4-2-1-1-1.5h-.5l-3,2-1-1.5-2-.5-1.5-2-3-2-6-.5-9-50-4-.5,1.5-2,3.5-1,3.5-3,4,1,4.5-2,7-.5,7-3.5,1.5,1,1,2-.5,2,1.5,1.5,4,2.5.5,3.5-3.5,4v2.5l2,1.5v1.5l1,1.5h1.5l-2,2-.5,2.5,5.5,4,1,1,.5,3,1.5,1,4.5.5v.5l1.5,1.5,1,1.5-.5,1-3.5,5,1,4,6-1.5,2.5.5-.5,4.5.5,2,.5,5-2,4,1,1.5,2,.5v3l-1,4.5,2,.5-.5,2v1.5l-3-1-3.5,1.5-.5,1-3.5.5.5,2,1.5,3-1.5,3,1.5,2-1.5,1.5-1-.5-1,2.5,9.5,2,7-2,5.5,2,2-2,1-3,2-1.5,2.5,1,1-.5-.5-3,1-4.5,2.5.5,3-3,2.5,1,4-3.5v-2.5l3-1,2.5-3.5,1-3.5-1.5-.5-.5-1,2.5-4v-2l-4.5-3h-5l-3.5-3-3,.5-3-1.5v-.5l-1-1h-3v-2.5l3.5-1-.5-1-1-1v-1l1.5-.5,2.5-3v-1.5l-1-1.5,1-1,1-3,3.5-1.5v-1.5l2-1.5-.5-1.5,1-3h1.5l-.5-2,.5-2,1.5-1.5,6.5-2,4.5.5,2-1.5,1,.5,5-2.5v-1.5l1-.5-1-2.5-2.5-.5-7,1.5-1.5-2,2-5.5-1-2,2-1,2.5-6.5-3-1,3-2.5v-1.5l1-.5v-2l2-1.5,1,.5,1.5-4,1.5-.5.5.5v2l2,1.5,11-1.5,1-1-.5-1.5,1.5-3,3.5-1.5-.5-1h2.5l-.5-2,1.5-3.5,10,2.5.5,2,1,.5,7-1.5,5-2.5,2,.5,1.5-1v-1.5l3.5-1.5.5,1.5,1.5-.5,3.5-3.5,2-.5,3.5-2.5.5-3,2-2,8.5.5,1.5-1,2,1,2.5-2.5v-2.5l1.5-2.5,1-.5,1.5,2,3.5,1.5,8.5-5.5,2.5.5v5l1.5,3-.5,3,2,2-1.5,4,1,2,4.5,4.5,1.5-1.5,3,6.5,6.5,5,4-.5,4.5,4.5,3.5,1,.5,3.5-.5,3.5,4.5,3,1.5-1.5,2,1,2,5,3.5,2.5,3-1.5.5,2.5,8,5v1h-2.5l-3.5,4-1,2.5,4,6.5-.5,2,4.5,3.5.5,1.5-2.5.5-.5,2.5h-2l-4.5,5.5,1,2.5-.5,2,3.5,3-.5,5,1,3.5-3.5,3,1,3.5-1.5,3-5,4.5-5.5,1-1.5,2.5-5,2-7,.5,2,3.5,1.5,3.5-.5,1,1,3.5-2,1.5.5,3.5-4.5,3-1.5,5,1,3.5v1.5l2,1,1,2,1.5-1,1.5,1,.5,3,2,2-2.5,1,.5,1.5,1,1,.5,1.5-1.5,1.5,1,2-.5,1,1.5,2-1,1.5,1.5,2.5,5,1,1,1-1,1.5v2.5l-1,2,.5,1.5-3.5,3,1.5,2v4.5l1.5.5-2.5,3.5-2.5,1.5.5,2-1,2-1.5,1-.5,2,1.5,3-4.5,11.5v3l2.5,3.5,2.5,1.5,13,2.5,3.5,2,2,2.5.5,1.5,2.5,6.5,4-.5,4.5,3.5,1,3.5-.5,4,1.5,3v2.5l-5,.5-4,3.5h-2v-1l-2.5.5-1,3,.5,1.5,1,2.5v2l-5,.5v2.5l2.5,2.5,1.5,2,1,5v1.5l-1.5,3v1.5l-1.5,1-4-1.5-4,2.5-1.5-1-.5,1.5-6.5,1.5-1,1.5-2-.5-.5,2h-2l-.5,2-3,1.5-.5,2,1.5,3,5.5,6.5v1.5l-2.5,1,.5,1.5-1.5,1.5-.5,3.5-3,.5-1.5,3-4.5.5-1.5-1-10,6.5.5,1-.5,3.5,16,10.5,1,1v1.5l-3.5,5-6.5,3-3.5,3.5v1.5l.5,2.5,1.5,2,3.5,1v3l4,1,9-6.5,9.5,5,3-1.5,13.5,1,1.5,2,2.5,2.5,1.5,3.5,3,4.5v2l3.5,4.5,3,1.5-2,3,.5,1.5-1,4.5-5.5,5-.5,2.5-3.5-1.5-2.5.5-5,5.5-1,.5-.5-2-1.5,1.5.5,1.5h-2v.5l.5,1.5-2.5,2.5.5,1-1,2.5.5,2,2,2.5,8,4,1.5,4.5-3,3-2.5,4,.5,1.5-2,2.5v3l1.5,1.5,1,2-1,2v1.5l2,2-1,1.5-4,.5-1,1.5.5,1-.5,2-1,1.5-.5,5.5-2,2-1,2.5v2l-2,3.5-2.5,1.5.5,2,2,1,.5,1.5-1.5,1,.5,1,.5,1.5v2l-1.5-.5,1,3-1.5,1.5.5,2.5-2.5.5v1.5h-2l-.5,2-1-3-1,.5,1.5,3.5h-2l1,1.5-.5,1.5,1.5,1-3,2-1-1-.5,1,1,3-1.5.5.5,1-.5,1.5-1.5-2.5-.5,2.5,1,1.5-1.5-1-3,6.5-1.5.5-2-1.5.5-1.5,2.5-1v-2l-1-1.5-2,2.5-3.5-1.5-1.5,1-3,3-2-.5-.5-2.5,4-2v-2l-2.5.5-3,4-.5.5-3-1-3-3-1,.5-.5,1,1,.5,2,1v3.5l-3-1-1,2.5-1.5.5-3.5-1.5-1,.5,2.5,3-1,1-4-1-4.5,1,3,2-3.5.5,1,2,4.5,1,.5,1.5-1,2-3-1-.5,2-1,.5-1-1h-2v1l-3.5,1v2l-3.5,2v1l2,2,.5,2-2-1-2,1.5,1.5,2.5,2,2-1.5.5-3-3h-2.5l1.5,2,5,4.5-.5,1-.5-1h-2.5l.5,3-1.5,2-1-1.5-.5-2,1.5-1.5-1.5.5-1.5,2.5h-2l-1.5,5.5-2,.5-1.5,2.5-3.5,1-1-2,1-2.5-1-1-2,.5v-3.5l-1.5-5-3.5-3-8,1.5-3.5-.5-4.5,2-2-7-1.5-1.5h-2.5l-2-1-3,.5-1-1.5-1.5-.5-.5-1.5v-1.5l-.5-1h-4l-1-1-2,3-3,2-2-.5-.5-1.5-1.5-1,.5-.5-1-2,1-1.5-2-3.5-1-1-.5-2,1-1.5,3-1.5,2.5,1.5.5-1,.5-2-1-4-1.5-1,.5-1.5-1-1.5v-2l1-1-.5-1-7,2-2.5-1h-4l-1.5-1.5v-2l5-2.5-.5-1.5,3.5-1v-1l-1-3,.5-2,2.5-5.5,2.5-3,.5-5.5,2-2.5,2-2.5h9l2-2.5-3.5-7.5-1.5-.5-3-3v-2l-.5-2.5v-3.5l-2-1.5v-1l-4-6v-3.5l-3-1v-2.5l-2,1.5-.5-3-5-2-1.5-3h-3.5l-2-3-7.5,1-1.5,1.5-3.5.5-6-2-5,2.5-7.5,1.5-4,5-5.5-1-4,4-8,1.5-3,2-2,6h-5l-1.5,2.5,1.5,3v2l-6,3-2.5,5.5-3.5.5-2,1.5-1.5,3-5.5,2v3l-4,.5-1-1-1.5-6.5.5-8.5-1-2.5-5-3,1.5-3.5-4-5-6,.5-3-2.5v-4.5l1.5-1.5-.5-2-3.5-3-2,1,1,3-2-1-5,4.5-8,2,1,2,3.5,1-7,10.5,1,6-1,2h-1.5l-2.5-3-2.5-.5-7.5.5-1.5,2-6,1.5-4.5-1.5-3.5-3-2,3.5-2,1-1,2.5-3,1.5-7.5-3.5-5-.5.5-2-3-2.5v-1.5l.5-1-1.5-3,1-3-3-1.5-.5-1v-1.5h-1l1.5-1.5.5-2h-2.5l-1,1.5-3-1,2.5-4.5.5-1-1-1.5-1.5,1-5-1.5-.5-1,.5-1-4.5,1.5-4.5-3v-1.5l-1.5-1"/>
      <path data-code="SA-OLK" d="m428.16,1503.76v-1.5l-.5-4,.5-3,8-7.5.5-3.5-1-4,5.5-11.5-.5-4.5-2.5-1.5-1-2v-1l2-3,7-1.5,1-7.5,1.5-3,5.5-3.5v-4.5l1.5-5,6.5-8.5-2.5-4.5,8-9.5,3-2.5,1-1.5,1.5-6.5,8.5-9,1-4.5-.5-2v-2l3.5-3.5v-2.5l-.5-5-3.5-1.5v-1l2-5.5,3.5-2h1.5l1.5,3,5.5.5,2,1.5,4.5-.5,6.5,2,12.5-3,2.5,1,2.5-.5,6-4.5,5-1,3,1,2,2.5,9,1-.5,2,1,1,17.5-6.5,8.5.5,4.5-4,1.5-5,10-3,17.5-10.5,3.5,1,5.5,8,2,2v2.5l1.5,4.5,2,2,6,2.5,2.5-1,6.5,1,3,2,3,2,2,3.5,5,4,3.5,4.5,4.5,2.5,2.5,4,5,2.5,2.5,2.5-1,5.5,18,4.5,3,2.5,1,2,1.5.5,1.5-2.5,4.5-2.5v-13l1.5-1,4,.5,2-1,2-2-1-3.5-3.5-5,3-2.5,5.5,1.5h1.5l6-4.5,4-6.5,3-3,13-3,5-3h2.5l1.5-5.5,1.5-.5,11-1,5.5,7.5.5,3v5l1,5-.5,1.5-3,3.5-2.5,4-2,.5-4.5-3-.5.5v5l-4,3-.5,3.5-1,1,.5,9-3.5,2-1,4-1,1-1,2-2,1-1.5-1-3.5-5.5-3,.5-2,3.5,1.5,3.5-3,6.5-3-1.5-3,1,.5,2.5-2,4-.5,5-3,1.5-2.5-1-2-2-6.5,2.5-5,4.5v3l1,1.5.5,2.5-2,1,.5,2.5-4,3v2.5h-2l-4,3.5-2-.5v4.5l-6,1.5-6.5-.5-1.5,1.5-.5,1.5,2,2.5v1.5l-4,2v1l1.5,3.5v.5l-.5,1.5-1.5-.5-1,2.5,3,6-.5,1.5-3,1,.5,2.5-.5,1.5-1-1-1,1-1,1.5-2.5,1h-.5l-1-2.5-1-.5-4,2.5v1.5l-2.5.5-.5,2.5-2.5-1,1,5-.5,1.5v2l-2.5,2.5v2.5l-6.5,5.5-3,6.5.5,1.5-.5,1-3,1v7l-.5,2,1.5,2.5-.5,2,.5,2.5,1.5,2.5,8.5,2.5,2,1.5,2.5.5,1,2-3.5,2.5,1,4-2.5,2-1,7.5,4,10.5,3.5,5,.5,1.5-1,1-4,1.5.5,2,1,2.5v1.5l3,4.5.5,2,2.5-1.5.5-2,6.5-1.5,3.5,4,5-1.5,1,1.5v2l-2,6,.5,2.5-3.5,4,1,3.5-1,4.5,1.5,5,1,6.5-2.5,2,1,7.5-2,.5.5,2-1.5,1.5,1.5,3,2.5-.5,1,1-1,3,1,4-1.5,5.5-1.5,2-5,.5-2,6,.5,1.5,3.5,2-.5,1,2.5,3.5,4,1,.5,1.5-1.5,2.5,1.5,2.5h-3.5l-2.5,2-3-2-7.5-.5-9-7.5-1-5-1.5-2-5-1.5-5.5.5-2.5-2-1.5,1.5v2l.5,2.5-5.5,1-.5-2-6.5,5h-2l-.5,4.5-4.5-2.5-4,1-1.5-2-3-2h-3l-2.5,2-3.5-.5-1.5,3-3,.5-4,3.5-3.5-2-2,3.5-3.5,1-.5,2,.5,1.5-1.5,2.5-.5,3h-2.5l.5-.5-4-3-1-1.5.5-1.5-1-.5v-.5l-3-3.5-4-1-2-3v-2.5l-1.5-1.5,1-3,1-1v-4.5l-2.5.5-1-1-3,1-1.5,2,.5,2.5-1,3,.5,1-.5.5-3-3,.5-2.5-1-2.5-1.5-1.5,1-.5-1-4h-4l-1-1-.5-1.5,1-1.5-.5-2,.5-1.5-1-2v-1.5l-1-2,1-1-.5-2-.5-.5.5-.5.5-5.5-2.5-3,.5-1-1-2,1-2-1.5-.5-2.5-4-.5-4.5-1-1.5-1.5-.5-1-1.5.5-6.5-.5-1v-1.5l-1-2-3.5.5-1.5-2.5-1.5-.5-2,1h-1v-1.5l-1-.5-2,.5-1.5-1.5v-1h1.5v-6.5l-1.5-3,.5-3.5-2.5-3-3-1-1-2.5,1.5-2h2v-3l-3-3.5-4,.5v-1.5l-1-2.5-1.5-3.5-1-.5,1-5.5.5-1.5h1.5l-1-2.5,1.5-1-3.5-1.5v-1.5l-1-1.5v-2.5h-4l-1.5-1-1,1-2-2-5.5-.5-1-.5-2.5-6.5-3.5-1.5-.5,1.5-3.5.5-1,1.5-1.5-1v2l.5,2.5-2,3.5,1.5,2.5-1,1.5v2l-1.5-.5-1.5,1.5-3.5-7.5-4,2.5-1.5,3,1,1.5-1,.5h-2.5l-2-2-3,1.5-2-.5-1.5,1.5-1.5-2v-1l-1.5-1.5-3-1,1-2-.5-1.5,1.5-2-2-2.5,1.5-2.5-.5-1.5-1-1,.5-1.5-1.5-2.5.5-2-4.5,1.5-3.5-3,1.5-4,2-.5,6-5-3.5-2-2.5,1.5-1.5,2-5-.5v-4l-1-1.5-2.5-1-.5-3-2-.5-2.5-1.5"/>
      <path data-code="SA-SRE" d="m1047.66,607.26l-.5-1.5.5-2,7-4.5,2,1,4-1,1.5-2.5,3-1,2-3,4-2,3-8.5-.5-1-1.5-1v-3l-4.5-1.5h-2l-1.5-1-7-1.5,1-1.5-3.5-.5v-1.5l2.5-3v-1.5l-.5-1-1-.5-.5-1.5-2-1.5,5-5,1-3.5-.5-2-1.5-2.5-3.5,2-1-2v-5.5l-1-.5-1.5-4.5-1.5-1-.5-2,6-4-.5-1.5,1-1.5h3.5l2-9.5,3-2,2-4.5,4.5-4.5,1-5.5,2.5-5,6-7.5,2-1,.5-4.5,7,1,4-1,4,1.5,7.5-2,5,6,4.5,1.5,8.5-.5,3.5,3v1h3.5l.5-3h2.5l.5-2,2-1,2-4.5,1.5.5.5-2h1.5l1,1.5,1.5-.5.5,2,1.5-2,1.5.5,1.5-2.5-.5-1.5,2.5-2-1.5-3,11.5,2,4.5,4,17.5.5,3-4.5,6.5-6,6-1.5,2,3.5h2l4-4,3.5-.5-.5-1.5,1.5-2.5,2-.5v1.5l1.5,2.5v1l2.5,2.5-.5.5,1.5,2v1.5l1.5.5,8-9,10.5-2,6,3h2l1.5-6,4-.5,6-3h4.5l3.5-4v-4.5l4.5-3,12.5-2.5,2.5,2,3,1,2.5,5.5h3l4,2,3,11,2.5.5,3.5,2,1.5.5.5,1,1,.5,2,6-1.5,3,1,1.5-.5,1.5h1l1.5,1.5,1,.5,3.5-2.5,6.5,3.5-3.5,3.5.5,1.5-1,.5-1-.5h-1l-1.5,2-1.5.5-.5,5h1l.5,3,1,2,1,.5v2l1.5,1.5v1h2.5l2,2.5,3.5-.5,1.5,4-.5,1.5,1.5.5.5,1.5,5,1,4.5-1.5,3,.5.5.5,1.5.5,1-.5,1,1,2-1.5,3,1.5,1-1.5,9-1h1.5l1,1,3,1,1.5,1.5-.5,1,1.5.5v1.5l3-.5.5,1,1,.5-.5.5,1,1,5,1.5-1.5,2v2.5l-1,.5v2.5l.5,1h1v1.5l1,.5v2.5l1.5,3-1.5,3,1,1v2.5l2.5,1.5-2,4,1,1.5,1-1,3,1,3,.5v2l1.5,2v2.5l1.5,2-.5.5,3.5,1.5.5,1,3.5,2v2l-2.5.5-2.5,2-.5-1-3.5.5-2.5,5-5.5,5.5.5,4,.5,1-3.5,5.5,1,2,2.5,1,1,1.5-2,3h-1.5l-1,2-4,1.5h-5l1-1.5-1.5-3-3.5.5-1.5-1-6-1-1-1.5-4-.5-.5,2,2,1-1.5,3.5,1.5,1.5-1,3,1,.5v1.5h-3l-5,3-1.5,1,.5,2-2.5-.5-1,1.5-1-1-2.5.5-3-1.5h-2l-.5,4-4,1-2,3.5h-4l-1.5-1-2.5,1.5.5,2h-1.5l-.5,1.5,2,1.5-3.5,4-2-2-1.5-.5-5,2.5-1.5.5-1.5-1-1.5,1v3l-1.5,1v1.5l2,2,.5,1.5-1.5,2.5,1,3,4-1.5,1.5,1.5,1-.5v2l1.5,1,1.5,1.5-.5,4,1.5,1,.5,4-1.5,2,.5,2-2,.5-1-1-1.5-2.5h-3.5l-4,4.5h-2l-.5,2.5-2.5-3.5h-2l-1-.5-.5-1-1.5-.5-.5-2-2-.5-3.5.5-6.5-.5-5,1-2-1.5h-2.5l-3,1.5-1,1.5h-1.5l-2.5,1.5-1,1.5-2-2-.5-1.5-1-1.5-3,.5-1-1-3-.5-3.5,1.5-1-1-6,2-1-2h-4l-19.5-12h-27.5l-1-1.5-1.5.5-1.5-1-1.5.5-2-1.5h-2l-.5-1.5-1,1.5-3.5-.5-.5,1.5-1.5-1.5-2,.5-2,2-1.5-2-1,1.5-2-1.5-1.5,1v-2l-1.5.5v-1h-.5l-.5-1-2.5-.5-3.5-3-2,.5-1-1-.5,1-1.5-1-4.5,6.5-4,2.5-7-3-8,2.5-1-.5v-1.5l-3.5-.5-3-4-2-.5-2,.5-2,4.5-2.5.5-.5,4.5-3.5,1.5-6,6h-4l2-4.5.5-2.5,4-4.5-.5-5-2.5-2.5-1.5-3-2.5-1.5-1-3-1-1.5-4.5-2-1-1.5-8.5,4-2-2-4,2-3.5-1.5-3.5-3-1.5-7.5-1-1.5v-4.5l-6-.5-4-1.5-1.5-1.5-1.5-.5v-1.5l-1.5-1"/>
      <path data-code="SA-SUN" d="m277.66,1329.26l2.5-1,2.5-7,6.5-1.5,1.5,2.5,1.5,1,.5-1-.5-2,3-1,1,1,2.5,4.5,1,.5,4-1,4-4.5v-1l-5.5-4.5-1-5-2-1-2.5-4.5-3,.5-2-1.5-4,.5-1-1.5-1.5-2.5v-2l.5-1-3.5-1,.5-3.5,3-3.5-4-6.5-1.5-8-5.5-2-3-3.5.5-5.5,4,1.5,6.5-2.5,1.5-2-1-1,.5-2.5,5-1-.5-1.5,1.5-1.5,3.5,1,3.5-3,4.5-.5,1,2h1.5l1,1.5,2-.5,1,2.5,2.5-.5,6,5.5,2.5.5,2.5,2-.5,2.5-1,.5,2,1.5,2-.5,1.5,3h2l-2,1.5-.5,1.5h2.5l2.5,4h5.5l-3.5,2,1,3.5,1,1-2.5,2,3.5,1,2.5-1.5-.5,3.5,1.5-.5-.5,5,4-.5v1.5h1.5l1,1.5-1.5,2,3.5,3-.5,2,2-1.5,1.5,2,2-1-.5,3,2.5-1.5v2.5l3-2.5,3.5,6,5,1,11-5.5,10-2,6.5,2.5,6.5,1.5h4l1-1h2.5l4,2,4-1,.5,1.5,3,1.5,4,.5,3.5,3.5h2.5l1.5-3,6.5-2.5,4,3.5,15,2.5.5-2,5,1.5,3-2.5,4.5-.5,3,5.5,3.5-.5,1.5,2,6,2,2.5-1.5,2.5,2.5v3.5l14,5,9,11,1,3-2,6-1.5,9,.5,4,1.5,4.5-7-2-4.5.5-2-1.5-5.5-.5-1.5-3-5,2-2,6.5,3.5,1.5.5,5v2.5l-3.5,3.5v2l.5,2-1,4.5-8.5,9-1.5,6.5-1,1.5-3,2.5-8,9.5,2.5,4.5-6.5,8.5-1.5,5v4.5l-5.5,3.5-1.5,3-1,7.5-7,1.5-2-4-2.5-3-1-4-2.5-3-1.5-.5-1-1,.5-1.5-3-3v-3l-2.5-6.5,1-2.5-1-2.5h-9.5l-2-2.5-2-.5-1-2.5-3.5-2.5-.5-2-6,1-2.5-2.5-4.5-.5-2.5-2.5-3.5.5-1-1-2-3h-1.5l-4,1.5-2.5,2.5h-6l-3.5,1.5-7.5.5-3,8.5-3.5,2.5-4.5,1-1.5-2,1.5-3.5-3-4-4.5-1.5-1.5-2-.5-3.5-2-3-2.5-2v-1l2-4-1-4,.5-2-3-1.5-3-8v-1.5l-1-1-3.5-.5-3-3.5h-2.5l-1-2.5-2.5-1.5v-1l-.5-1-2-.5-1-1.5,1.5-2-1-1-3,1-.5-1.5,2-.5-1.5-2.5v-1.5l-2,1-1.5-2h-2.5l-1-2h-1.5v-1l-1.5-1.5h1v-1.5l2,.5v-1l-2-1,2-1.5-2.5-1.5v-1.5l-2-.5.5,1.5-.5.5-2.5-2.5,1.5-.5-2.5-3.5v-4l1-1-1-.5-2,.5-.5-.5-.5-3-1,.5-1.5-1.5-1.5,1.5-.5-1.5-.5-.5.5,1.5-1,1.5-2.5.5-4.5-2-1-2"/>
      <path data-code="SA-TAT" d="m854.16,1182.26l-1.5-5.5.5-1.5-1-1v-2l1.5-1-.5-2-1-.5-.5-2h-1l-.5-2,1-1.5-3-6,1.5-5.5-1.5-9,1-2.5v-2.5l-3-4.5,2.5-3.5,12.5-4,16.5-8,1,.5,3.5,6,4,4.5,3,5-1,5.5.5,4.5,3,3.5-.5,3,3.5,5.5,3,2,.5,2,1.5,1,1.5.5,4,3.5,8,.5,5.5-2,1-2,7.5,1.5,5.5-3,3,1.5,5.5,5,14.5,10,4.5,4.5,3.5,2,1.5,2v6.5l3.5,5-.5,3.5-2,3.5-2.5-1-3,2v2l3,3.5,2.5,1.5.5,2,6.5-1v2l-1,2.5-2.5,2,.5,3.5-3,3-1,3.5-1-1-1.5,3.5-4,.5-.5-1.5-1,2-2,.5-1.5-.5-2.5,2-9.5-6.5-4-6.5-6.5-4-4-1-1-2.5-4,1-1.5-1-2.5,3-5.5-1-.5,2-4.5,1.5-6.5-1.5-2-1-4.5,3.5.5,3-3,1-2-2-.5-1.5-2.5-1-2.5-4.5-5.5-3.5-1-1,.5-2.5-1-1.5-3.5-2-2-1.5-1-2-2-.5-2-3v-2l-3-3-1-4.5-1.5-1.5-5.5,1-.5-3-2.5-2.5"/>
      <path data-code="SA-TOM" d="m819.66,1120.76l-.5-2-.5-1,3-10-1.5-8,.5-2.5-1-1.5-1.5-1-2.5-.5-1-2.5,3-1.5v-7l2.5-5-1-4.5,1.5-6.5-4.5-3-2.5-4.5-5.5-4,1.5-3,1.5-.5-.5-1.5-.5-1.5-.5-1.5,1.5-4.5-2-3.5v-3.5l-5.5-5.5-.5-1.5-1.5-4v-3.5l-2-3.5v-4.5l2.5-4v-4.5l5-3,2.5-.5,3.5,2,9.5-2.5.5-2-.5-6,2.5-3,3.5-6.5,4.5,1-.5-2-1.5-1.5v-6.5l1.5-6v-1.5l-1.5-4,.5-1-.5-2,1.5-1.5-.5-5,4-1.5,7.5-6,.5-3v-2l-1-2.5,2-1.5,5-1.5.5-1.5-1-2.5,2-3.5-.5-1.5,4.5-3.5-.5-4,2-4.5v-3.5l2-1-.5-1.5,2.5-1.5,10-5,2.5,1.5,2-.5,3,2,5.5-2,4,2,6-3,4.5,2.5,7-1.5,4.5-3,.5-2,5,1.5,4-2,2.5-3,4.5-.5,1-3,3-1,4.5-6.5,4-2.5,6.5-.5,3.5,1.5h3.5l1.5,1.5,5,1,4-1.5,3.5-4.5,7.5,1,1,1,1,3.5-1.5,7.5,1,.5.5,2,5.5,1.5-.5,4.5-1,3-2.5-1-3,2-.5,1.5,1.5,4.5v4l-2,3-1,8,1,1.5v1l1,1.5v1.5l-1.5,1.5,1.5,5.5-.5,4.5,1.5,2,3.5,1.5,3.5-.5,3.5,4,3-.5,1.5,1,1.5-1,3.5,1.5,1.5,1,1,1.5,2.5-.5,1.5,1.5,4,.5.5,1,3,.5,2.5-1,2.5,2,1.5-1,3,4.5-1,4-4.5,6.5.5,2,4,.5,5.5-1,2,2,2-.5,4,2.5,7-.5,4.5,3.5,1,1.5,1.5,8.5-.5,3.5,2,2v1.5l-1.5,2,.5,2,2,6,4-.5,1,1.5.5,3,1.5,1.5.5,3,3,4h-4l-7.5,5.5v2l-3.5,8.5v4l-3.5,5.5,1,3v5l2.5,3v2l.5,1.5,3,3.5-.5,2.5,1,2,1,1,3-1.5,1,.5-1,3,.5,7,1,1,4.5-1.5,2.5,3,2.5,1.5-2.5,7.5,2,2,4.5,2.5.5,1.5-8,9-7,2-7.5-1.5-2-2-2,.5-7,13.5-1,12.5-1,1-4.5,4h-1l-2.5,3-2.5-1.5-7,3.5,2.5,5.5,1.5,1.5,1,2.5,1.5,1.5,1.5-1,2,1,.5,1,.5,4,3.5,10-5,1.5.5,1.5,1.5,4-1.5,3v5l-4.5.5-2,2.5-2.5,1-5-.5-1.5,1.5v2l-2.5,3-7,1.5-1,2-1.5.5-5.5-1-2-2-3.5-2-4,.5-.5,2-4.5,2-2.5,7-3,4,.5,3.5,1.5,2.5v2.5l-6.5,1-.5-2-2.5-1.5-3-3.5v-2l3-2,2.5,1,2-3.5.5-3.5-3.5-5v-6.5l-1.5-2-3.5-2-4.5-4.5-14.5-10-5.5-5-4.5-1.5-4,3-7.5-1.5-2.5,2.5-5.5,1.5-6.5-.5-7-5-.5-2-4-3-2.5-4.5.5-3-3-3.5-.5-5.5,1-4.5-3-5-4-4.5-3.5-6-1-.5-16.5,8-12.5,4-2.5,3.5-3.5-1-8-7.5-2.5-1-.5-1.5-1-3-1-.5-3,.5-1.5-1.5h-2l-1.5,4.5-2-1.5"/>
      <path data-code="SA-UST-ALD" d="m759.66,1161.76l3.5-8.5,2.5-.5,2-2.5-.5-1.5-1.5-2.5-1-3,1.5-3.5,18-3,2.5-2,7-1.5,5-4,11-5.5,9-6,.5,1,.5,2,2,1.5,1.5-4.5h2l1.5,1.5,3-.5,1,.5,1,3,.5,1.5,2.5,1,8,7.5,3.5,1,3,4.5v2.5l-1,2.5,1.5,9-1.5,5.5,3,6-1,1.5.5,2h1l.5,2,1,.5.5,2-1.5,1v2l1,1-.5,1.5,1.5,5.5,2.5,2.5.5,3-3.5,3v1.5l.5,2-.5,1.5-5.5,3.5-.5,2v7.5l-1.5,1.5-6.5,1.5-2.5,2.5-7,.5.5,1.5-2,.5,1.5,2v3l-2,.5-8.5,1-2.5-1.5-13,.5-3,2.5.5,2.5-2.5,1.5-7,.5-3.5-2-1-6,.5-2,1.5-3,3-1.5,3-5-2-3,2-1-5-2.5-7,1-3.5-.5-2.5-2v-4l-.5-4-1.5-4-4.5-6,.5-1-.5-1-1-2.5-2-2-.5-4-1-2.5v-4.5l.5,1,2-.5-1.5-2-1.5-1-6-1-.5-1"/>
      <path data-code="SA-UST-YAN" d="m608.16,582.76l.5-1,1.5-.5v.5l-2,1m127-43h-.5l.5-1,1,.5-1,.5m-41.5,24h1l2-2-1,1.5-2,.5m4.5-2h.5-.5m53.5-27h2l1,.5h-3v-.5m-37.5,32l-2.5-.5-.5-1,1-.5-1-1.5,5.5-7,11-6h3l2,2,1,2.5h.5l-1,.5-.5,4.5-2,3.5-3.5-1-.5-.5-1.5-1-2,1.5,1,3.5-7-.5-.5.5,2.5,1-2,1.5h-1.5v-.5l-1.5-1m20.5-9.5h-.5l1-1-.5,1m-.5-2.5v.5-.5m-10,9.5l.5-1.5.5,1,.5-1v1.5h-1.5m121-158l.5,4.5,2,10v12l-1,1-1.5-1-3-.5-.5,2.5-3,.5,1,2.5h3l.5,2.5-1.5-.5.5,1.5h-3.5l1.5,1.5-1.5,2-2,1.5-2-.5-1.5,3.5,1.5.5.5,3.5-4,2.5-.5,3.5,4,2-2,3,1.5,1-1,2,1,11,.5,3.5-2.5,7.5-2,1.5v4.5l1,1.5-1,1.5v1l2,.5,1,3.5,1,2,.5,2.5,1,1.5,1,1-.5,2.5,1,1,1,4.5,4,2.5,3.5,3,.5,1,.5,1.5-3,5,.5,5.5-2,4,1,1.5-1,1-2,4.5.5,1.5-1.5,2.5.5,1.5-.5,3.5-1.5,3,2.5,3.5,3,1-4,37,.5,3-1,2.5,3,1.5.5,1,3,2.5h1l2.5,1.5,5.5-3.5,2,.5,3.5,3,3-.5,4.5,1,4.5-4.5,1.5.5,6-4,6,3.5-2,5,1,.5.5,2-.5,1.5.5,2h4l1.5,1.5,4-.5,2.5,1.5,1.5,2,5,.5,4,3.5,1.5,3,3,2.5-.5,1,1,2-1,1-3.5-.5-1.5,2.5-1.5-.5-2,1.5-5,4-1-.5-1.5,1.5-3.5.5-4,8,.5,1.5,1,.5v2l1.5.5,1,1.5,1,.5.5.5,1.5.5,1,2.5,4.5,4.5,2,2.5,6,5,1.5.5.5,1-6.5,8,3,6v3l-2,2.5,1,2-1.5,1.5.5,1.5-1.5,2,.5,1.5,1.5,1-2.5,1.5-1.5,2.5.5,2.5,2.5,2,2,.5,1,2,2,1,1,1.5,2.5.5,1,2.5v6l2,3,3.5,3.5,1.5,4.5,1.5,1.5,8.5,2-7.5.5-4.5,3.5-4-.5-2.5,3.5-1.5-1-2,1-3.5-.5v3.5l-8.5,2v7.5l-3.5,5v4l-1.5,1.5,1,2-5.5,11-3,2-2-1-1,1.5-7,1.5-9-5v-3l.5-4,2-1.5,1-3-4-8-10-6-4-4.5-.5-2,1-3,4.5-4-12-9-1.5,1.5-1-.5-3,3-3-2-5-2-2.5-2.5v-4l-2-.5-2-3.5v-3.5l-4.5.5v-3.5l-2-3-2.5-1-3-4-1.5,1-3-.5-1-1.5h-1.5l-3-3-2.5.5-2-2-.5,2.5-2.5,2.5.5,2-1,2.5-7.5-.5-3,2.5-2.5-1,.5-2.5-2-1.5-1-2-6.5,2-2-4.5v-3.5l-2-1.5-3.5-4-.5-1.5,3.5-6-1-1-.5,1-2.5-1.5-1.5-3-3-1.5-1-1.5-1-2-1-5.5-2-3.5-7,3.5-1.5-1-2,2-6,1.5-4.5,9-3,2.5-2.5-.5-5.5,3.5-1,4.5-9-3.5-4-5-4.5-.5-4.5-2h-2v2.5l-1.5,4.5,1,2-10,10-3,8.5-11-3.5-.5-2.5-2-2.5-5.5-.5-.5-1,5-4.5v-1l-4-.5-1.5-2,1.5-5.5-1.5-2v-1l-2-1-2-3,.5-2-2.5-2-1.5-.5-19,8.5h-4l-1.5-.5-2-3-.5-2.5-2-2.5-.5-2,1-3-.5-2.5-4.5-6-1.5-1-1.5-2.5-1.5-5,1.5-5-1-2-6-5v-1l-2.5,1-.5-1.5-3.5.5-1.5-2,1.5-3,1.5-1h-3l1.5-5,1-1h2.5l-2.5-1.5-1,1-1-1.5v-4l-4-20-.5-7,.5-13,2-6.5,4-2,2-2.5.5-.5,3-.5,1,1,2.5,1,1.5,1,1.5,1.5-3.5-2.5-5-1.5-1.5.5-2,2.5-1,.5.5,1h1.5l-1,.5,1,1-3-.5,1.5,3.5,1.5,2-.5,1,.5,2.5,2.5,2,3.5-.5,8.5,6.5,6,3,9.5,2,13.5-1,6.5-2,5-5,4,.5.5-.5-3.5-1.5v-1l-.5-.5,2.5-6.5,7-8,4.5-7,5.5-4,9-2,3,1.5,2-1.5-.5-.5-1.5,1,2-2.5h7l-2.5,3.5v1l1,1v.5l.5,1v-3l1.5-1.5,4-1.5,1.5.5v1l1.5,2,2.5-.5,3,2,3.5-2,3,.5,2.5-2.5,2-.5.5.5v1l-1-1-2,1.5,1,1v1.5h1l-.5-1.5,3-.5.5.5-1,1.5,1.5.5-1.5.5v.5h.5v1.5l1,1,1-.5v.5h1l.5.5,1-1-.5-2,1.5-1v2l2.5.5v-1.5l1.5-1.5,3-1-.5,1-1.5,1-.5-1-1,1,2,1.5h2.5l1-1,1-2.5,2.5-.5.5-3.5h-1.5v1.5l-6,1-.5-.5,3-3.5h-2.5l-.5.5.5,1-2,.5v-1.5l-3,1,.5-1-.5-.5-.5,1.5-1.5-1,2-1v-3l-.5-1.5.5-.5.5-2.5-1.5-4.5-.5-.5-1-1-.5-2,4-1,3-4.5,4-1,2-2.5-.5-1,.5-1.5-5,4h-3.5l-.5-1,1.5-1,.5-2.5,3-1v-1.5l2.5.5,2-5.5-3-.5-2.5,1-3.5.5,1-1,1.5.5,1-1-1,.5-.5-2-.5-.5-2.5,2.5v-.5l-.5-1h-1l-2.5,3h-2l.5-4.5,5,.5,3-2.5,4.5-.5.5,1,1.5.5-4.5.5-1,1.5,2-.5,6.5,1-2,2.5.5,4-2,2.5h2l1.5-4,2.5,2,.5.5v1h.5l-5,1-.5,1h3.5l.5.5,1.5-.5,1,1,3-1,.5,1.5,1,.5,2,3,3,3.5-1,.5,2.5,1,3.5-3.5-1.5-4.5,5.5-2,3,.5,1.5-1.5v-2l-.5-1,4,.5-4-2.5v-1l-1.5-1.5-2.5-.5v-.5l-3-2.5-1-1.5-1-.5-2.5-5.5-1-1-1-2.5,1-2h-2.5l-2-2-1-.5-8.5,1.5,5.5-1.5,1.5-2,.5-.5-1-.5,1-1-2-2-.5-2,1.5-5-1-3v-2l3-1v1.5l2-.5,2.5-4.5-.5-.5-3-1-2.5,1-2.5-2.5-.5.5-1,3.5-6.5,3.5-2,7-.5.5-3-.5-2.5.5-3-4,.5-4v-.5l-.5-.5v-3l-.5.5,4-3.5h-1.5v-1l-1.5.5-.5-2,2-6,5.5-5,6-1,3.5-2-1-.5-1-.5v-1l1,1.5,1.5.5v.5l4.5-1.5,5.5-7.5h1.5l-.5-1v-1.5l-.5-.5,1-.5-1-1,6.5-4.5-3,.5.5-.5-1.5-.5-.5-.5v-1l-1.5-1h-3l-.5-1-1.5.5-1.5-1.5h-1.5l-2.5-2-2,.5-.5-2h-1l-1-1-1-1,.5-1,13.5-4.5,8,1.5,9.5-1.5,33-16,8-2,9-4.5,17-5m-70,129.5l-.5,1-1-1h1.5m-44.5,31.5l.5-.5v.5h-.5m0,3h1l-.5,2-.5-2m7.5-2l1-.5.5.5h-2.5,1m-1.5,2.5v-.5l.5.5h-.5"/>
      <path data-code="SA-UST-MAY" d="m915.66,1397.76l-1.5-3,.5-1.5-.5-3-4.5-7.5v-2.5l-1.5-3.5-1.5-6v-1l2.5-.5,1.5-1.5,1.5.5,1,1.5,1.5,1v-5l-1.5-2.5,1-.5,1-3-1-1.5.5-1.5-1-5-.5-1.5-.5-2.5-3.5-3,2-4,1.5-1,1.5-3-1.5-4.5-2-10,2-3-1-4,1.5-2h7.5l2.5-1.5,2-5.5,1.5-1,2-4,.5-2.5-1.5-1.5-3.5-9-5-6.5-2-4.5-4-10v-2.5l3.5-1,2.5-3,3-1,9-8.5,6.5-2,6.5-4,2,.5.5-3,1.5-.5,1-3,2-1.5,1.5-2-.5-1.5,2.5-2,1.5.5,2-.5,1-2,.5,1.5,4-.5,1.5-3.5,1,1,1-3.5,3-3-.5-3.5,2.5-2,1-2.5v-4.5l-1.5-2.5-.5-3.5,3-4,2.5-7,2.5-1,2.5-3,2-.5,5.5,2,2,2,5.5,1,1.5-.5,1-2,7-1.5,2.5-3v-2l1.5-1.5,5,.5,2.5-1,2-2.5,4.5-.5v-5l1.5-3-1.5-4-.5-1.5,5-1.5-3.5-10-.5-4-.5-1-2-1-1.5,1-1.5-1.5-1-2.5-1.5-1.5-2.5-5.5,7-3.5,2.5,1.5,2.5-3h1l4.5-4,1-1,1-12.5,7-13.5,2-.5,2,2,7.5,1.5,7-2,8-9-.5-1.5-4.5-2.5-2-2,1.5-6.5,1-1.5,1,1,.5,1.5,1-.5v-3l6-5,3,.5.5,1.5,2.5-.5,1.5,2.5,8.5,2,1,1,.5,1.5,4,4-4,1.5v1.5l.5,1.5-1,1,.5,1.5-.5,1,1,1,.5,2,.5.5.5,2.5,2.5,1-.5,1,.5,1h1v1.5l2,3.5-1,2v2h1l1,1-2,3v4h-3l-1,1.5.5,3,3,4,1,4.5-1,8.5,1.5,4-1,1-.5-1.5-1.5.5,2,7v6.5l-1,1.5-2.5-1-1.5,1.5,1,1-1.5,3.5-2.5,1-1,1.5-3.5,1,.5,2,1,.5.5,2h-.5l.5,1.5-1,2.5-3.5.5-2,3-2-1-1,5,2,2v1l2.5.5-1.5,1-1,4.5-2,2-1,4h-2l1,3,1.5.5.5,2,1,1.5-1.5,3.5.5,2,1,1v4.5l2,1h1.5l.5,2,1.5.5,1.5,2,2-.5,2.5,1v2.5l1,1,.5,2-1.5,2,1,1v1.5h1.5l1,5-1.5,1.5,3.5,2.5v1l1.5.5v2l.5.5,1,2.5h.5l-2,4.5,1,1,.5,4,2.5,1v1.5l.5.5,1,3,2.5,1,.5,2.5,1.5,4.5h1.5l1,1.5-1.5,2.5,1.5,3,1,2.5,1.5.5,2.5,3.5v1.5l2,.5-1,2.5,1,2.5-3.5,2.5-1.5-.5-1.5-2.5v-4l-2.5-1.5-.5-1.5-1-1-1,2,1,2.5-1.5,1v2h-3l-5.5,3.5-1,2,.5,2-1,2,.5,1.5-1,1.5,2,2.5v1h1l1.5,1.5-1,2-3,1-.5,4-1.5,2v3l-3,.5-1,2.5h-1.5l-4,5.5v4.5l-3.5.5-3-1-1,1.5h-4.5l-1,1.5h-1.5l-2-1.5-1.5.5-.5,1.5-5,1.5-1.5-1.5-3-.5-1,1.5-3-1.5-.5-1h-2l-3,3.5h-1l-3.5,7-.5,3.5v2.5l-1,2.5,1,1.5-.5,3,.5,2-1,1.5,2.5,1.5-1.5,2,1.5,2.5-1,.5v2.5l-9-.5-2,3.5-3.5.5-1.5-1v-1l-1-1-.5-1-1.5,2.5-3,1-.5,1.5v3.5l-2.5-1-1.5.5-.5-1v-.5l-1-.5-6,2-.5-1-2.5,1-1.5-1h-1.5l-5,2.5-3,4-3.5,1.5-2.5-1-1.5-2.5h-3l-2.5,4,.5,2h-1l-1,2-4,1,1,2.5h-2l-1,1.5-1.5,5,.5,1.5-.5,1.5-3.5.5v2l1.5,1v2l-1.5,2.5,4,.5v3.5l.5,4.5-2,.5-2-1-.5,2-1.5,1,.5,2.5-.5,1-2-2.5-1-3.5-1.5.5-.5,1,1,5.5-4.5,3h-1.5l-2-2.5-1.5-6v-2l-.5-1h-4l-1-3.5-1.5-2h-2.5l-4-2-3,.5v2l-1.5,1h-3l-.5-3-3.5-1.5-1.5-5-2-2-.5-2.5-3-1-2.5-3.5"/>
      <path data-code="SA-VKO" d="m1136.16,764.26l-1.5-2.5-.5-5.5-1.5-1,1.5-3.5-1-2.5-3.5-2.5-3.5-4.5-1.5-3,.5-2,5-15.5,2-1.5,1.5-4,3.5-4.5,6.5-6-.5-2.5-2-1.5-4-1.5-4.5-5.5-.5,2.5-1,1.5-2-1.5-1.5-6-3-2.5-.5-5-2-1.5-.5-3.5-2.5-1h-4l-3.5,4-1.5-1.5-2-5-6.5.5-2-8.5-4-3.5-3.5-.5-1-2,3-2h4l6-6,3.5-1.5.5-4.5,2.5-.5,2-4.5,2-.5,2,.5,3,4,3.5.5v1.5l1,.5,8-2.5,7,3,4-2.5,4.5-6.5,1.5,1,.5-1,1,1,2-.5,3.5,3,2.5.5.5,1h.5v1l1.5-.5v2l1.5-1,2,1.5,1-1.5,1.5,2,2-2,2-.5,1.5,1.5.5-1.5,3.5.5,1-1.5.5,1.5h2l2,1.5,1.5-.5,1.5,1,1.5-.5,1,1.5h27.5l19.5,12h4l1,2,6-2,1,1,3.5-1.5,3,.5,1,1,3-.5,1,1.5.5,1.5,2,2,1-1.5,2.5-1.5h1.5l1-1.5,4-2,3.5,2,5-1,6.5.5,3.5-.5,2,.5.5,2,1.5.5.5,1,1,.5h2l2.5,3.5-1,1-1,3,1.5,4.5h2l2.5,1.5-.5,3,.5,1,1.5.5,1,3.5,1.5,2,1.5,4.5,1.5,1,2.5-.5,3,2v4.5l-2,.5v2l-3,5.5,1,4-1.5-1-2.5,4h-1.5v2.5l-1.5,2.5-1.5-.5-.5.5v1l1,1,.5,1-1,1.5,4,7-.5,3h1v1.5l-.5,1.5,3,2.5v1.5l5,3.5,1,1,1.5-1,4,.5,2,1,.5-.5,3,2v6.5l-2,2.5.5,2-.5,2.5-2.5,4.5v1.5l4,1v1l2,1v1.5l1.5.5-2,2,.5,1-2,1v2l-2.5,1.5-1.5-.5v-1l-3-1.5v-.5l-1.5-1h-4l-9,12v.5l1,1.5-.5,1,1,4-2-1.5-1.5.5-.5,2.5-3,1-2.5,2.5-.5,2-5,3.5-4,1.5v3.5l3.5.5,1,1v2.5l2,1,.5,1-2.5,2.5h-6l-4.5,3-.5-.5-1-1.5-.5-.5-3.5,1-2-2h-.5l-1.5-1h-.5v-3l-1-1,.5-2.5h-.5v-1l-.5-1.5-5,1-2-2.5h-1l-2.5.5-2,3v2l-2,5.5,1,2.5-.5,1,.5,1.5-4,1.5-.5,1,2,1.5-2.5,2-2,.5-1.5-1v-1h-1l-6,3.5-1,2.5-3.5,3h-5.5l-1-1.5h-1.5v-1l-1.5-.5-5,2h-5l-1-1v-6l-2-1.5,1-1-2-.5-3.5-4.5.5-1.5,2.5-1-1-2-2.5-2-1-2.5,2.5-4,3.5-1,1-3.5-2.5-2.5.5-3-1.5-1-.5-1,1.5-2.5-5-2-2-3-3.5-2.5-3,2.5-3-1.5v-2l-.5-2-7-4.5-1-2h-4l-2,2-1.5-.5-2.5-4.5-10.5,1.5-7.5-4-5,1-4-1.5-8-3-2.5-2.5-4-1.5"/>
      <path data-code="SA-VVI" d="m368.66,1113.26v-1.5l1-2-1-2-1.5-1.5v-3l2-2.5-.5-1.5,2.5-4,3-3-1.5-4.5-8-4-2-2.5-.5-2,1-2.5-.5-1,2.5-2.5-.5-1.5v-.5h2l-.5-1.5,1.5-1.5.5,2,1.5-2h1.5l1.5-3,4-1.5,3.5,1.5,1,1.5,3.5.5v-.5l-2-2,1.5-1.5,1.5,1v2l1,.5h1.5l2.5,1.5,2,.5-1,1.5,3.5,1,1,.5.5,1.5,3-.5-2,2,.5,1.5,1.5,1.5,1.5,1,1-1.5,1,1.5,1-.5,7.5,2,1,1,1,4.5-1.5,2.5,1.5,4,2,3.5-1.5,1.5v2.5l-3.5,3.5v3.5l-.5,6-1,1v3l.5,2.5,1.5,1v1l-3.5.5-.5,1v1.5h-1l1,1.5,3.5,3,2.5.5-1.5,2.5,1.5-.5,1.5,2-1,.5v1l2,1.5-1.5,1,1,2,2.5.5v1.5l1.5-.5v2.5l.5,1.5-.5.5.5,4,4.5,2,1,1-.5.5,3-1,2.5,1.5v-1.5l1.5,1,1-1.5,2,.5,2,1,.5,1-.5,1.5.5,1.5,3,2.5-1,2,1.5,4-2,.5,3,1.5v1.5h-1.5v1.5l2,1.5-1.5,2.5v1l5,4-2.5,1,2,.5,1,1,2,.5-1,.5.5.5,2,.5-1.5,1h5.5l2.5,2,2-.5-.5.5v.5l1.5.5h1.5l1-1,2.5.5-2.5,2.5.5,2.5h2l-1,1,1,.5-1,1.5h1.5l-.5,1,1,.5-.5,1,2-.5v1.5h1.5v1h1v1h-1.5l2,1v1.5l2-.5.5,1.5,2-1.5,1.5,2,.5-1,1,1.5h2.5l1.5-1-1-1.5h1l.5,1.5h.5l.5-2.5-.5-.5.5-.5,1.5-1v1.5h1v-1l-.5-.5v-1.5l2.5-1,3-3.5-.5-1,4,.5,1-1.5,1.5,1v1l-1.5.5v3.5l2,.5-.5.5,1.5,3.5-.5,1,1.5,1-.5,1.5h2l.5.5,2,1.5v1.5l1,3,1.5,2.5-.5,5,.5,2,1.5,4h2.5v.5l-10.5,1-2.5,3,.5,3.5-.5,1h2.5l2,2.5v1l1.5.5-.5.5.5,1.5h1l.5,1,2-.5,3.5,2.5,1.5.5,1-1,2,1.5.5-1,2.5,1v-1l3,.5.5,1.5,1,.5-.5,1.5,1.5,1,.5,1,.5-1,4.5,2.5.5-1,.5,1,3,2,.5,1,1,.5v2.5l1.5,1.5-1,1.5h-1l1,1-1,.5h1l.5,2.5-1,.5.5,1-1,2,.5.5-1,1,1.5,1-.5,2,1,.5v2l1-.5-.5,1,1,.5-1,.5,1,.5-1,.5,1,1v1.5l3.5,1,1.5-.5,3,1.5.5.5-.5,1,3,1-.5,1,1,5v1.5l2,4.5v1.5l2.5,3,.5,7,5,7,1,2.5,4,2.5,1.5,2,3.5,1,6-1,1,1,1,6.5,1.5,2,7.5.5,3.5,5.5-1.5,2.5-1,4,1,2,2.5-1,1,1.5v2.5l-6,2.5-1.5,5-4.5,4-8.5-.5-17.5,6.5-1-1,.5-2-7-.5-2-.5-2-2.5-5.5-1-8.5,5.5-2.5.5-2.5-1-12,3-1.5-4.5-.5-4,1.5-9,2-6-1-3-9-11-14-5v-3.5l-2.5-2.5-2.5,1.5-6-2-1.5-2-3.5.5-4.5-8.5.5-2.5-.5-1.5-3.5-3.5v-2l1.5-2-.5-1.5-.5-1.5-3-2v-2l-1-2.5h-2.5l-.5-2.5-1-1.5-2.5-1-1.5-3-.5-4,2.5-2.5v-2.5l3-3,1.5-7,2.5-4-1.5-2,1.5-.5-6-5-2-3.5.5-7.5h1.5l-1-2-2-3-4-2-7.5-8h-2l-1-1.5v-1l-.5-2-1.5.5-3-2.5-.5-1.5.5-1-4-3-2-4v-2l1.5-.5-3-4v-1l-.5-3-2.5-.5-.5-3,1.5-.5-1-4,1-1-2.5-2,1.5-1v-2.5l-2.5-2,.5-1.5-1.5-2.5.5-5-1-.5v-1.5l-1.5-1.5v-1.5l-1.5-1v-4l-1.5-1.5-.5-3-1-1.5-10-4.5,1-1.5h-1l-.5-3-1.5-1v-2l-2.5-2,1-2-2.5-2,1-.5-.5-.5v-.5l-5.5-2,1.5-4.5-1-.5v-1.5h-.5l-.5-1.5-.5,1-1.5-1.5,1.5-2-3.5-2.5h-1.5l.5-1-3-.5v-1l-1.5-1,1.5-.5-1.5-.5,1-1.5h-1v-2l-1,1h-2l-.5,1-7,3,1-1.5-2-2"/>
      <path data-code="SA-VYA" d="m678.16,955.76l-1.5-5-2-7-2-4.5,3.5-.5.5-3,2.5-3v-1.5l-3.5-4.5v-4.5l3-6,.5,1.5,1,.5,3.5-4.5h7.5v-2l2.5-2,1-3-1.5-2.5.5-1.5-1-3.5-1.5-.5-.5-1,1.5-1.5-.5-2-1.5-1,.5-5,2-4.5-2-8,.5-2h1.5l2.5,2h5.5l-1-2-1.5-7,4-5,.5-2.5,1.5-2,3.5,1,2,2,1.5-2-2-3,1-.5-1-3,1-3,2-1v-4l1.5-3-.5-12,.5-3-.5-2.5,2.5-2.5.5-2-1-3,3.5-4,2-5-.5-1.5-1.5-1-4,.5,4-7.5h-3.5l-6-2.5-5.5-.5-1.5-3-2.5-2.5-5.5-2-4-2.5-6-6.5-2-1-4,.5-3.5-2-1-2.5-.5-1,2-1.5,1.5-3.5.5-4-2-2.5.5-1.5-1-2.5,1.5-2v-2.5l-1.5-1,.5-4.5-1-2.5-.5-4.5-1-1.5,2-2,.5-4.5h1.5l.5-7.5,4-2,.5-2,2-1-.5-2.5,3-8.5,10-10-1-2,1.5-4.5v-2.5h2l4.5,2,4.5.5,4,5,9,3.5,1-4.5,5.5-3.5,2.5.5,3-2.5,4.5-9,6-1.5,2-2,1.5,1,7-3.5,2,3.5,1,5.5,1,2,1,1.5,3,1.5,1.5,3,2.5,1.5.5-1,1,1-3.5,6,.5,1.5,3.5,4,2,1.5v3.5l2,4.5,6.5-2,1,2,2,1.5-.5,2.5,2.5,1,3-2.5,7.5.5,1-2.5-.5-2,2.5-2.5.5-2.5,2,2,2.5-.5,3,3h1.5l1,1.5,3,.5,1.5-1,3,4,2.5,1,2,3v3.5l4.5-.5v3.5l2,3.5,2,.5v4l2.5,2.5,5,2,3,2,3-3,1,.5,1.5-1.5,11,8,1,1-4.5,4-1,3,.5,2,4,4.5,10,6,4,8-1,3-2,1.5-.5,4v3l11.5,7,2.5,3.5,1,2.5h6l.5,3.5,1.5,1.5.5,3-4.5,4,.5,1,1.5.5,1.5,1.5.5,1,3,2.5,2-1.5,6-1.5,2.5,1.5,3-2,1.5,1,2.5-1.5,2.5,1.5.5,2,3.5,2,1,2.5,1.5,1,.5,1.5,5,.5,4.5-1.5,3,1,1.5,1.5,2.5.5,2,2.5,4-1,5,1.5,1.5,1.5,1.5,4,1,1,1,2,1.5.5,1-2,2-1,2,2v1.5l1.5,1.5-1,3,1,2.5-5.5.5-1.5-1-4.5,1.5,1,1.5-1,1.5,1,3-5.5,5.5-.5,2,1,1.5,1.5,1,5.5,2v1.5l2,2.5,4,1,3.5-.5,1,1,1.5,5v2l4.5,1.5-3.5,4.5-4,1.5-5-1-1.5-1.5h-3.5l-3.5-1.5-6.5.5-4,2.5-4.5,6.5-3,1-1,3-4.5.5-2.5,3-4,2-5-1.5-.5,2-4.5,3-7,1.5-4.5-2.5-6,3-4-2-5.5,2-3-2-2,.5-2.5-1.5-12.5,6.5.5,1.5-2,1v3.5l-2,4.5.5,4-4.5,3.5.5,1.5-2,3.5,1,2.5-.5,1.5-5,1.5-2,1.5,1,2.5v2l-.5,3-7.5,6-4,1.5.5,5-1.5,1.5.5,2-.5,1,1.5,4v1.5l-1.5,6v6.5l1.5,1.5.5,2-4.5-1-3.5,6.5-2.5,3,.5,6-.5,2-9.5,2.5-3.5-2-7.5,3.5v4.5l-2.5,4v4.5l2,3.5v3.5l2,5.5,5.5,5.5v3.5l2,3.5-1.5,4.5.5,1.5.5,1.5.5,1.5-1.5.5-1.5,3-3.5-1.5v-2l-4.5,5-5.5-1-1-3.5.5-3-1.5-3.5-3.5-2.5-2.5-4.5-3-1.5-1.5-1.5-6.5-9-3-2-1.5-2-4.5-1.5-2-2.5-2,2-1.5.5-2.5-1.5-1-2-2-2h-2l-.5-1-2-2,1-9-1.5-6v-4l-8.5,5-2-4-2-2.5-2.5,1.5-1-1.5-5.5-3.5-.5-3-9,1-6.5-3-5-1-6.5-7-5.5,1.5-2.5,2-6.5-12-1-1.5,1-1.5-1.5-4-4.5-2-3-3"/>
      <path data-code="SA-VIL" d="m380.16,1065.26l.5-2.5,5.5-5,1-4.5-.5-1.5,2-3-3-1.5-3.5-4.5v-2l-3-4.5-1.5-3.5,7.5-.5,13.5,1.5,5.5,4.5h1.5l1.5,2h1.5l2.5,2,1.5,3,1.5,1.5,2.5,1,1,2v2l3,2,1.5-1.5,2.5,5,1.5,2v1.5l3.5,1,.5,3,4,5-2,2,1,4,1.5,2.5,1,3,3.5,5v5.5l-1,5.5,1.5,1.5,1,4,1.5,2,6.5,1.5,3,2.5h4l4.5,2,1.5,1.5.5,2,2.5,3,.5,3,1.5,1,3,1,.5,1-.5,2,1.5,2,10.5.5,10.5,5.5,11.5,3h7.5l5.5-1.5,1.5,3,2,1.5,6,3,1.5-1v-2.5l1.5-1.5h1.5l7,4.5,6,1.5,5.5-3.5h9.5l.5-2,5-3-.5-4.5-.5-2,1-3,9-7.5,1.5-.5,8,4.5,3,4,2.5,5,1.5,1.5,10.5,4.5.5,3-5,14.5-10,13-4,12-4.5,1-2.5,4-3.5,2-1.5,3.5v5l.5,5.5-2.5,2.5v2l1.5,2.5v1l2,3.5-1,.5,1,1.5.5,3,2,1.5v3h7l1.5,1.5h2l1,1.5v1.5l1,2,1,2,6.5,1,26,1.5,3-1,5,1,20.5-5-3.5,6.5,1,2.5-.5,2v3l2,5,.5,2.5,2,1.5-2,4.5-6,1-6.5-.5-3,1-3.5,3,2,2-4,5.5-.5,3.5-6,5-4-1.5h-5l-3.5-1.5-13,1-2,.5v2l-5,3.5h-3.5l-7,3-1,5.5-4.5,3-1,2.5-2,1-4.5-2-3.5,2.5-2,14-4.5,2.5-2-3.5-.5-7-2.5-3v-1.5l-2-4.5v-1.5l-1-5,.5-1-3-1,.5-1-.5-.5-8-2.5v-1l-1-1,1-.5-1-.5,1-.5-1-.5.5-1-1,.5v-2l-1-.5.5-2-1.5-1,1-1-.5-.5,1-2-.5-1,1-.5-.5-2.5h-1l1-.5-1-1h1l1-1.5-1.5-1.5v-2.5l-1-.5-.5-1-3-2-.5-1-.5,1-4.5-2.5-.5,1-.5-1-1.5-1,.5-1.5-1-.5-.5-1.5-3-.5v1l-2.5-1-.5,1-2-1.5-1,1-1.5-.5-3.5-2.5-2,.5-.5-1h-1l-.5-1.5.5-.5-1.5-.5v-1l-2-2.5h-2.5l.5-1-.5-3.5,2.5-3,10.5-1v-.5h-2.5l-1.5-4-.5-2,.5-5-1.5-2.5-1-3v-1.5l-2-1.5-.5-.5h-2l.5-1.5-1.5-1,.5-1-1.5-3.5.5-.5-2-.5v-3.5l1.5-.5v-1l-1.5-1-1,1.5-4-.5.5,1-3,3.5-2.5,1v1.5l.5.5v1h-1v-1.5l-1.5,1-.5.5.5.5-.5,2.5h-.5l-.5-1.5h-1l1,1.5-1.5,1h-2.5l-1-1.5-.5,1-1.5-2-2.5,1.5v-1.5l-2,.5v-1.5l-2-1h1.5v-1h-1v-1h-1.5v-1.5l-2,.5.5-1-1-.5.5-1h-1.5l1-1.5-1-.5,1-1h-2l-.5-2.5,2.5-2.5-2.5-.5-1,1h-1.5l-1.5-.5v-.5l.5-.5-2,.5-2.5-2h-5.5l1.5-1-2-.5-.5-.5,1-.5-2-.5-1-1-2-.5,2.5-1-5-4v-1l1.5-2.5-2-1.5v-1.5h1.5v-1.5l-3-1.5,2-.5-1.5-4,1-2-3-2.5-.5-1.5.5-1.5-.5-1-2-1-2-.5-1,1.5-1.5-1v1.5l-2.5-1.5-3,1,.5-.5-1-1-3.5-1.5-1-.5-.5-4,.5-.5-.5-1.5v-2.5l-1.5.5v-1.5l-2.5-.5-1-2,1.5-1-2-1.5v-1l1-.5-1.5-2-1.5.5,1.5-2.5-2.5-.5-3.5-3-1-1.5h1v-1.5l.5-1,3.5-.5v-1l-1.5-1-.5-2.5v-3l1-1,.5-6v-3.5l3.5-3.5v-2.5l1.5-1.5-2-3.5-1.5-4,1.5-2.5-1-4.5-1-1-4.5-1.5h-4l-1-1.5-1,1.5-1.5-1-1.5-1.5-.5-1.5,2-2-3,.5-.5-1.5-1-.5-3.5-1,1-1.5-2-.5-2.5-1.5h-1.5l-1-.5v-2l-1.5-1-1.5,1.5,2,2v.5l-3.5-.5-1-1.5"/>
      <path data-code="SA-ZHA" d="m790.16,1247.26v-2l1.5.5.5,2-1,1v-1.5h-1"/>
      <path data-code="SA-ZHI" d="m329.66,1023.26l-.5-2.5,1.5-3,8.5-5,3.5-5v-1.5l-1-1-16-10.5.5-3.5-.5-1,10-6.5,1.5,1,4.5-.5,1.5-3,3-.5.5-3.5,1.5-1.5-.5-1.5,2.5-1v-1.5l-5.5-6.5-1.5-3,.5-2,3-1.5.5-2h2l.5-2,2,.5,1-1.5,6.5-1.5.5-1.5,1.5,1,4-2.5,4,1.5,1.5-1v-1.5l1.5-3v-1.5l-1-5-1.5-2-2.5-2.5v-2.5l5-.5v-2l-1-2.5-.5-1.5,1-3,2.5-.5v1h2l4-3.5,5-.5v-2.5l-1.5-3,.5-4-1-3.5-4.5-3.5-4,.5-2.5-6.5-.5-1.5-2-2.5-3.5-2-13-2.5-2.5-1.5-2.5-3.5v-3l4.5-11.5,2-.5,7.5,2.5,4-4.5,2-1.5.5-1.5,4.5-1.5v-1.5l3-2.5v-1.5l6.5-2,2-2.5h1.5l1.5-1-1-2,.5-.5-1-2.5,1-1.5,5-.5,3,1,2.5,2.5,5,3.5,2.5,6.5,4,5,5.5,1,1.5,1,.5,1.5,2-1,2.5.5,4.5-2.5,1,.5,1-1.5,4-1,4,1.5.5-1h2l.5-1-1-2,.5-1,2.5,3.5h8.5l7,5.5h3l2,3,4-1,.5-.5-.5-1.5,1-1,.5,1.5v1l1,.5.5-3,1.5,2.5,5.5-1-1.5-.5,2-2-2-1.5,4-3-.5-2h1.5l-.5-1,.5-1,2,1,.5-1.5,2,.5-.5-2,2-1-.5-1.5.5-1.5h-2l-.5-1h2l-1.5-3.5-1-1,1.5-1-1-1.5.5-.5,5,1v.5l6.5,3,.5,2,3-1,1.5.5.5,1.5,3.5.5,1-1v1.5h3.5v1.5l.5.5,1.5-1.5v1l1,1.5,2-.5.5.5,1.5.5,1-1,4,2,1,1.5,2.5-3.5,3.5,1.5-2-3,3.5,1.5,1-2,1,1.5,2-1,1.5,2.5h1l3-2.5,1.5,2,2-2,6,3,2,3,9.5,1,1.5,6-.5,2,1,1,1,3-2,1.5-2.5-1-1.5,2.5,1,1.5-.5.5-5.5.5-1,2.5,1.5,1.5-.5,2,1,2,3.5,4.5,3.5,2-.5,2.5,1.5,1.5-1,1.5,1.5,1.5,2,5.5.5,3.5-1,2.5.5,1.5,2.5,1,3.5,6.5,1,.5,6,1.5,9.5-2,2.5,2h2.5l.5,1.5-1,3.5,1,1v3.5l2,1,1,3,2.5,2.5-.5,1.5,3.5,6.5,1,4-3.5,4v1.5l4,2.5-2,2.5,1,1.5,2.5,1,.5,1.5v2l-3,3.5v3l1,2,3,3,5.5,7.5,1.5,1-2.5,4-.5,2,.5,2.5-.5,4.5-2,3,1,5,3,7v2.5l2.5,3,4-1.5,2,3.5,3.5,1,.5-3.5h1.5l4,2h3l.5,1,.5,2.5-4.5,3,2,10.5v1h-2.5l-2.5-1.5h-1l-1,1.5.5,1.5-.5,2.5,1,3.5.5,4,1,3-4,4.5-2.5-.5-4,2v3.5l-1,1.5.5,3.5-2.5,2.5-7,1-3.5,2.5-4.5,6,.5,3-8,3.5-4-.5-2,1.5,1,2-3.5,3.5-1,6.5.5,3.5v6l-1,1.5-1,5-2.5,4.5-10.5,8-1,3,.5,2,.5,4.5-5,3-.5,2h-9.5l-5.5,3.5-6-1.5-7-4.5h-1.5l-1.5,1.5v2.5l-1.5,1-6-3-2-1.5-1.5-3-5.5,1.5h-7.5l-11.5-3-10.5-5.5-10.5-.5-1.5-2,.5-2-.5-1-3-1-1.5-1-.5-3-2.5-3-.5-2-1.5-1.5-4.5-2h-4l-3-2.5-6.5-1.5-1.5-2-1-4-1.5-1.5,1-5.5v-5.5l-3.5-5-1-3-1.5-2.5-1-4,2-2-4-5-.5-3-3.5-1v-1.5l-1.5-2-2.5-5-1.5,1.5-3-2v-2l-1-2-2.5-1-1.5-1.5-1.5-3-2.5-2h-1.5l-1.5-2h-1.5l-5.5-4.5-13.5-1.5-7.5.5-2.5-2.5-1.5-2-13.5-1-3,1.5-9.5-5-9,6.5-2.5-.5-1.5-.5v-3l-3.5-1-1.5-2"/>
</svg>