<svg xmlns="http://www.w3.org/2000/svg" viewBox="0 0 200.99 182.44">
      <path data-code="SAM-ALE" d="m79.74,133.19l1.5-1.5,1.15-2.1,1.85.45v-1.5l9,3.5.5-1,4,1.5.5-1,3.5,1,.5-1.5,1.55.45.45-.95h1l3-8,3.5,1.5,1-2.5,3,1.15-1.5,3.5-1-.5-1,4,2.5,1-1,2.5,4,1-1,2.5-1-.5-.5,1-2,1-1,1.5h-1.5l-1,2.5-2.5-.5-.5,1.5,1,1-1.5,2.5-1.5-2-1.5,4,1,.5-.5,1,1,.5-.5,2,.5.5-1,2-2.5-1-2.5,3.5-3.5-1.5.5,2-1,2-4-2,1-2-2-1.5-1.5.5-.5-2.5,1-.5-3.5-5.5,1-1-3.5-6-3-6.5"/>
      <path data-code="SAM-BEZ" d="m26.24,76.19l3.5-2-1-1.5,2-1.5.5,1.5,2.5-1-1-2,2.5-1-1-1.5,1-1,1,.5.5-2-1-.5v-.5l1,.5,1.5-.5-.5,1h1l1-1.5,4,.85,2.5-3,2,1,6,6-.5,4.5,6,4.5.65,1.65-1.1.8-1.55-1.8.5,2.5h-.5l1,1h-.5l-1-1-1.5,1.5,2,2-1.5.5.25.5-.75.5-.5,4.5-1,1.5,2.5.5,1-1,1,.9-3.5,2.6,1.5,1.5-1.5,3-2-.5-4.5-3.5-1.5,2-.5.5-3-1-1.5-1-2.5,2-.5-.5,1.5-2.5-2.5-1.5,1.5-.5-1-6-5.5-2,.5-.5-3-1.5-3,1.5-.5-2-1-1,1.5-1-1.5-3.5"/>
      <path data-code="SAM-BOG" d="m107.24,109.69l1.5-.5.5-3,1,.5,3-4,4,2.5.5-2,3-.5v-1l1.5-1.5,6,3-1,2.5-1.5.5-1,3-2.5-1-1,3,1.5.5-.5,3-1.5.5,1,2-3.5,5-2.5.5-6-2.15.5-.5h-2.5l-1.5,2.5-3-1.5.5-1h.5l1.5-2-1-5.35,2-1.5h-1l.5-1.5h1Z"/>
      <path data-code="SAM-BOLC" d="m41.24,156.19l3-5,2,1,1.2-1.9,1.3,1.3,2.5-5.5,2,.5.8-3.65,1.7,1.25v1.5l1,.5v-1l5.5,3-3,1.5,3,1.5,1,2.5,2-1.5-1-2.5,2-1.5-.5-.5,4.5-2,3.5,4.5.5,3,1.5,2.5.5-.5,7,3.5,1-1.5h1.5l2,3.5-.5,2.5,7,3.5-7.5,8.5-9,1.5-2.5-1-.5,2-2,1.5-3.5-1.5-2,1.5h-4l-8,3-1.5-2,1-2-.5-.5,4-7-2-1,1-1.5-4.5-2.5,1-2-6.5-2.5,2-3.5-1.5-1-1,2-1-.5-1.5-2.5-3,.5"/>
      <path data-code="SAM-BOLG" d="m51.74,128.69l3.5-5,3,2,1-1,1.5.5,1.5-3.5,2.5-1h-.5l2.5-3.5,3,2,2.2-2.2,6.4,4.15-1.1,2.05,6,4.85-2,3.65-1.5,1.5,3,6.5,3.5,6-1,1,3.5,5.5-1,.5.5,2.5,1.5-.5,2,1.5-1,2,4,2-2.5,6-5-3,.5-2.5-2-3.5h-1.5l-1,1.5-7-3.5-.5.5-1.5-2.5-.5-3-3.5-4.5-4.5,2,.5.5-2,1.5,1,2.5-2,1.5-1-2.5-3-1.5,3-1.5-5.5-3v1l-1-.5v-1.5l-1.7-1.25,2.7-4.35-5-2.85,2-5-.5-2h-1.5"/>
      <path data-code="SAM-BOR" d="m122.24,108.19l2.5,1,1-3,1.5-.5,1-2.5-.7-.35,1.7-2.15,1.5.5,4-.5,1,1.5-.5,1-1-.5-1,1.5,1.5.5-.5,1,4.5.5v1.5l2,1v.5l1.5,1,1-1.5h-1l1-1,3-.5,2.5.5,1,1-1,1.5,1,.5-.5,1,3,1-1.5,3-1.5-.5-1.5,4.5-3-.5-1,1.5,3.5,2-1.5,2.5-3.5-2.5-4,8-4.5-2.5-1,1-2,.5-3,3.5-4-3-2,5,1.5,1-6.5,8.5-3.5-1.5.5-2.5-1.8-.55,1.3-1.95,2-1,.5-1,1,.5,1-2.5-4-1,1-2.5-2.5-1,1-4,1,.5,1.5-3.5,2.5-.5,2.5-3.5,1-1.5-1-2,1.5-.5.5-3-1.5-.5,1-3"/>
      <path data-code="SAM-CHA" d="m57.74,84.69l.5-.5h3.5l-1,1,1,.5-1,1.5,1.5,2-.5.5,2,8h-1v6l-2-.5-1-11.5-1-.1-1-.9-1,1-2.5-.5,1-1.5.5-4.5.75-.5.25.5,1-.5Z"/>
      <path data-code="SAM-CHE" d="m134.24,27.69l1,1,2.5-2.5,1-1-2-2,3.5-2,1.5,1,2-.5.5,1.5-1.5,1.5,2,1,1.5-3.5,2,.5.5-2.5,2.5-1.5-.5-1,2.5-4,2,1.5,2-1.5-.5-.5,3.5-1,.5-1.5,1-.5h1.5l-.5.5,1,.5-.5,1h2.5l2.5,1,2-1v1l-2.5,3.35-1.5-.5v1.5l-2,1.5-.5,3h-1.5l-.5,3.5-3.5,1.5.5,1.15-1.5.5.5,1-1.5,1.5-1.5-1-3.5,2.5-.5,1.35-.5-.5-1.5,2h-1l-1.5,2h-1.5l.5,1.5-2-1-.5,1.5-2-3.85-1,1-4.5-3.5-1-3.5v-2"/>
      <path data-code="SAM-ELK" d="m95.24,35.69l5-5,2,3,.5-1.5,2-1,3.5.5,3-2,.3-1.8,1.7,1.3-1,1.5,1.5,1.5v.5l-1,.5v1l3.5.5,6,2.5,1-.5.5-1,1.5,1-1,2,2,1.5-1,2.5-2,1-1,3-1-2h-1.5l-1,1v1.5l-1.5-.5-.5,3,1.5.5-.5,2.6-5,.4-2.5-2.5-3,1.5-.5-2.5-1.5.5v-2l-2.5-2.5-1,.5-1,2.5-2-.5-3-3.5,1-1.5-2-1.5.5-1,1.5,1,1.5-1,.5-2.5-3.5-2.5"/>
      <path data-code="SAM-NOV" d="m55.74,81.69l1.5-1.5,1,1h.5l-1-1h.5l-.5-2.5,2.5,2.85,1.5-1v1l3,1.5.5.5h-.5l-.5,1,.5,1.5,2.5-1-.5-.5.5-1.5h3l-1-.5,1-.5v-1l1-.5,1.05.1.45,3.55h-2l1.5,3.5-1,.5-2.5-1.5v1.5l-.5.5v.5h.5l-.5.5-1-1,1-.5.5-1.5h-2.5l-.5,3.35.5.5-1,1.5.45,1.7-1.95-1.55-.5,2-.5.5-1-4,.5-.5-1.5-2,1-1.5-1-.5,1-1h-3.5l-.5.5-1,.5-.5-1,1.5-.5-2-2"/>
      <path data-code="SAM-OTR" d="m123.24,91.19l1,1,1.5-2,2.5-.5,1.5,4-3.5,1.5-2.5-2-.5-2"/>
      <path data-code="SAM-ZHI" d="m64.74,56.04l1.75-2.15,1.25,2.15-1,2,1,1-1,.5-1.5-1-1.5,2.5.5-1.5-1,1-1-1v-2l-1-1.5,1-1.5,2.5,1.5Z"/>
      <path data-code="SAM-ISA" d="m147.24,42.54l.5,2.5,1-1.5.5-4.5,1.5,1.5,3-2.5,2,2.5h2l-.5,1.5,2.5.5,1,2.5,2.5-1.5-.5,1h4l1.5-1.5,1,1-2,1.15,1,2.5-3.5,1,2.5,2,1.5-1,1,.5-.5,1v-.5l-1.5,1.5.5,1.5-1.5,2,1,1-2,3.5.5.5-2,2.5,4.5,2.5-1,.85-2-1,.5,1-2.5,2.5-2.5-.5-3.5.5-1.5,2.5-1,.5v1.5h-1l.5.5-.5.5-2.5-.5.5,1-2-1-4.5,2-.5-2.5.5-1-.5-4,.5-1h-.5l-.5,1.15-1.5-1.5,2-1.15-.5-2.5,2,2,2.5-3.5-2-1.5v-1.5h1l.5-5v-1.5l-1.5-2,1-.5v-2.5l.5.5.5-1.5-4-.5,2-3.5Z"/>
      <path data-code="SAM-KAM" d="m165.74,60.19l2-3.5,1-1,.5,1.5,3.5-3.5-1,1.5-1.5,2.5,2-1.5-1,3,1-1.5,1,1-.5,2.5h1l2.5-2.5,3-4.5,2-1.5,2,.5-1.5.5h1.5l-1,1.5v2.5l1.5.5,1-2,.5,1,2.5-1-1,.5,1,2.5-1.5,1-1-1-1.5,1.5v1.5l.5,1,1.5-1.5-.5,1,1.5-.5-2,4.5,3,2v1.5l-4.5,1-2,2,.5.5-1,1,1.5-.5v.5l-2,3.5-1.5.5-2-1.15-1.5-2.5-.5-3.5-3-.85v-1.5h-2.5l-.5-3.5-4.5-2.5,2-2.5-.5-.5"/>
      <path data-code="SAM-KHV" d="m7.24,84.69l3-2.15,2-.5v1l2.5-.5,1,2.5,7-3.5,1,1.5,3.5-1.35.5,2,3-1.5,3,1.5-.5.5,5.5,2,1,6-1.5.5,2.5,1.5-1.5,2.5.5.5,2.5-2,1.5,1-5.5,6.35-1.5-.5-3.5,4-1,1h-3.5l-.5,2-1.5,1.15-3.5-3-1,2-1-2.5-3-.5-2.5-2.5-.5,1.5-2-.5-1.5,3.5-1.5-.5,3-9.5-3.5-2,2-6.5-4.5-1.5.5-2-.5-1.5"/>
      <path data-code="SAM-KIN" d="m97.24,84.69l3.5,1.5-3.5,1,2,1.5v2l-2.5,1.5-2-1-.5-2,1-.5v-1l2-.5v-1l-1,.5-1-1,2-1Z"/>
      <path data-code="SAM-KNC" d="m123.24,91.19l.5,2,2.5,2,3.5-1.5-1.5-4-2.5.5-1.5,2-1-1m-7.5-16.5l1.5-1.5.5-2,4.5-.15-.5-1,2,1,1-1.5h2l1,3,1.5-1,2.5,2,2.5-.5,2-1.5,1,2.5h1l1,1-1.5,2,1,.5,2.5-1.5,1-1.5,2,2-.5.5.5,1,1.5-.5.5,1-.5.5-1-.5.5.5-.5.5v1l-.5-.5v1.5l-2.5,1.5v1l-.5-1-1.5,1.5,2,1.5,2.5,10,1.5.5-1.5,2,2,1,2-1,2,2.5-3,1.5,2,1.5.5,2.65v-1.15h1l.5-1.5,1.5,1.5,1-1-1-1,1-1.5,1.5.5,1-1.35.5,2.5-1.5,1v1.5l1.5,1.5-4,4.5-.5-1v1.5l-3-1,.5-1-1-.5,1-1.5-1-1-2.5-.5-3,.5-1,1h1l-1,1.5-1.5-1v-.5l-2-1v-1.5l-4.5-.5.5-1-1.5-.5,1-1.5,1,.5.5-1-1-1.5-4,.5-1.5-.5-1.7,2.15-5.3-2.65-1.5,1.5v1l-3,.5-2-2,1-1.5-.5-1,1-2-1-.5,1-.5v-1l.5.5-.5-3,1-1.5-2.5-1,1-1,1-1-2-4h1.5l-.5-1.5,3.5-3-.5-1.5-1.5.5-1.5-1.5h-1v-2"/>
      <path data-code="SAM-KINM" d="m95.24,85.69l1,1,1-.5v1l-2,.5v1l-1,.5.5,2,2,1,2.5-1.5v-2l-2-1.5,3.5-1-3.5-1.5-2,1m-1-9l2.5,1,1-2.5h3.5l1-1.5,1.5,1.5-.5,1.5,2-.5,1.5,2,1.5-1,.5,2,1.5-.5,1,2,.5.5v-1l2,1.5-.5.5,2.5,1.5,2,4-1,1-1,1,2.5,1-1,1.5.5,3-.5-.5v1l-1,.5,1,.5-1,2,.5,1-1,1.5,2,2-.5,2-4-2.5-3,4-1-.5-.5,3-1.5.5h-1l-.5,1.5h1l-2,1.5-3,.5-1.5-1.5-3.5,1.5-.5-4-.5.5v.5l-3.5,1.5-1-2-2,1.5-.5-2-5-2.15-1-.5,3-2,1.5-2.5,2.5,2,2-3.5,3-1-.5-11.35-.5-2h-3v-1.5l3-2v-2l1-2-.5-2"/>
      <path data-code="SAM-KLY" d="m164.74,48.69l3.5-1-1-2.5,1.5.35,1.5-.5.5-1h1.5l-2.5-3,.5-2,3,.5.5-1.5,1.5-1,2.5-1,.5,1.5.5-1.35,1,1-.5.5.5.5,2-.5-1,1.5,2,.5-1.5-1h1.5v-.5l2,2-2,1.5.5,1-1.5,1,1,2.5,1.5-1.5.5-2.5,1.5,3,2-1.5.5-1.5,1.5-.5,4.5,1-.5,3.5,1.5-.5.5-2,2.5-1,2,2-1,1,.5.5-1.5,3h-.5l1,4-3,2-2.5-2.5h-3.5l-1,.5.5,2.5-2.5,3-.5-2,1-.5-2.5,1-.5-1-1,2-1.5-.5v-2.5l1-1.5-1,.5-.5-.5,1.5-.5-2-.5-2,1.5-3,4.5-2.5,2.5h-1l.5-2.5-1-1-1,1.5,1-3-2,1.5,1.5-2.5,1-1.5-3.5,3.5-.5-1.5-1,1-1-1,1.5-2-.5-1.5,1.5-1.5v.5l.5-1-1-.5-1.5,1-2.5-2"/>
      <path data-code="SAM-KOS" d="m121.24.19l4,3.5-1,3,2,1.5.5-1,1.5.5v-1.5h2l-.5,5.5h1.5l-1,5.5h-1l.5,2,6.5-1.5h3.5l-.5,2.5,1,1-3.5,2,2,2-3.5,3.5-1-1v2l1,3.5,2.15,1.7-4.65,5.2-1-2-1.5,1.5.5,1.5-3,2.5-2.5-.85,1-2.5-2-1.5,1-2-1.5-1-.5,1-1,.5-6-2.5-3.5-.5v-1l1-.5v-.5l-1.5-1.5,1-1.5-2-1.5,1.5-3,4-4,1-4h1l.5-1,1-4.5-1.5-2,2-2.5-2-1,3-4.5-.5-1.05"/>
      <path data-code="SAM-KRAM" d="m43.74,96.19l3,1,.5-.5,1.5-2,4.5,3.5,2,.5,1.5-3-1.5-1.5,3.5-2.6,1,.1,1,11.5,2,.5v-6h1l-1-4,.5-.5.5-2,8,6.5.5-.5-1.5,3.5-2.5.5-2,3,5.5,4.5-.5,1,.5,1.5,4,1.5-.5,1-5.5,5.5-3-2-2.5,3.5h.5l-2.5,1-1.5,3.5-1.5-.5-1,1-10-5-2,1.5-3-1-1.5,2-1-.65,1-1.5,1-.5v-1.5l1.5-3-1-.5.5-1.5-4-2.5,1-.5-3-4,2-1.5-.5-.5,1-.5-2-2,5.5-6.35Z"/>
      <path data-code="SAM-KRAY" d="m85.74,44.54v1l1.5-.5.5.5-1,.5h1l1.5-1v1.5h-1l.5,1,3-3.5h1.5l1.5-2.35,2,1.5-1,1.5,3,3.5.5-.5,1.5,1,1-2.5,1-.5,2.5,2.5v2l1.5-.5.5,2.5,3-1.5,2.5,2.5,6.5-.5v1.5h-.5l-1,2.85.5,1.5-2,.5v1l-1-.5-.5,1,1.5,2-2,2.5v3.5l2.5-.5.5-1.5,3,4.55-2.45.05-.5,2-1.5,1.5v2h1l1.5,1.5,1.5-.5.5,1.5-3.5,3,.5,1.5h-1.5l-2.5-1.5.5-.5-2-1.5v1l-.5-.5-1-2-1.5.5-.5-2-1.5,1-1.5-2-2,.5.5-1.5-1.5-1.5-1,1.5h-3.5l-1,2.5h-1l-1.5-1-1.5,2.85-1.35-2,1.35-1-.75-.5-1.25-5-2-2.5-2,.5-1-2,.5-1,1.5.5.5-1v-1.35l.5-.5h2l.5,1.5.5-1.5v-1.5l-2-.5-1.5,2.5v1.35l-1.15.8-.85-2.3,1.5-1-.5-1h1l-2.5-4-2.5-2-.5.65-1.25-1.35,2.75-3.8h1l.5-.5,1.5.5,1-.85-.5-3.65-1.5-1,.5,1.5h-1l-.5-1.5h-.5l.5-.5-1.5-1,1.95.05Z"/>
      <path data-code="SAM-NEF" d="m82.74,108.04l1-1,5,2.15.5,2,2-1.5,1,2,3.5-1.5v-.5l.5-.5.5,4,3.5-1.5,1.5,1.5,3-.5,1,5.35-1.5,2h-.5l-.5,1,3,1.5,1.5-2.5h2.5l-.5.5,3,1-1,2.5-3.5-1.5-3,8h-1l-.5,1-1.5-.5-.5,1.5-3.5-1-.5,1-4-1.5-.5,1-9-3.5v1.5l-1.85-.45.85-1.55-6-4.85,2.5-4.65h-.5l1.5-2.5.5.5,3.5-6v-1l-2-1.5"/>
      <path data-code="SAM-OKT" d="m31.24,56.54l3,2-6.5-1-2.05-1.45,5.55.45Z"/>
      <path data-code="SAM-PES" d="m26.24,110.54l2-1.5.5-2h3.5l1-1h-.5l.5-1,3.5-3,1.5.5,2,2-1,.5.5.5-2,1.5,3,4-1,.5,4,2.5-.5,1.5,1,.5-1.5,3v1.5l-1,.5-1,1.5,1,.65,1.5-2,3,1,2-1.5,6.75,3.4-3.25,4.6h1.5l.5,2-2,5,5,2.85-2.7,4.35-.8,3.65-2-.5-2.5,5.5-3-3-4-2.5,1.5-3-2-1-.5,1-6.5-3.5.5-6,.5-1h.5l-.5-.5-1,.5.5-1-1.5,1.5-1-.5-.5,1-1-2,.5-1,2-.5-1-3.5,2-.5-.5-4.5-2-1-2.5,4-2-.5,1-2-.5-1,1.5-2.5-3-1.5-1.5,1.5-1.5-1.5,2.5-1.5,1-2.5h1.5l-2-2.5"/>
      <path data-code="SAM-POK" d="m160.74,87.54l1-.5.5,2h2l-.5,1.5,1.5,1-3.5-1.5-1-2.5"/>
      <path data-code="SAM-POKM" d="m160.74,87.54l1,2.5,3.5,1.5-1.5-1,.5-1.5h-2l-.5-2-1,.5m-18-14l3-1-.5,1,.5,2.5,4.5-2,2,1-.5-1,2.5.5.5-.5-.5-.5h1v-1.5l1-.5,1.5-2.5,3.5-.5,2.5.5,2.5-2.5-.5-1,2,1,1-.85.5,3.5h2.5v1.5l3,.85.5,3.5,1.5,2.5,2,1-3.5,5-5,2.5-.5,2-1.5,1-1,2h-1l-4.5,5.5h-1l-2-2-1.5,2.5-1.5,1,1.5,1-1.5,1v1.5l-.5,1-1.5-.5-1,1.5,1,1-1,1-1.5-1.5-.5,1.5h-1v1l-.5-2.5-2-1.5,3-1.5-2-2.5-2,1-2-1,1.5-2-1.5-.5-2.5-10-2-1.5,1.5-1.5.5,1v-1l2.5-1.5v-1.5l.5.5v-1l.5-.5-.5-.5,1,.5.5-.5-.5-1-1.5.5-.5-1,.5-.5-2-2,.5-1"/>
      <path data-code="SAM-PRI" d="m.24,80.04l2-.5,3-3.5,3.5-2,5,.5,2.5-1,.5-1.5-.5-4.5.5-5,1-2.5,1.5-1.5,3.5.5,1-.5,1-1.5,11.5,3h8l2,1-2.5,3-4-.85-1,1.5h-1l.5-1-1.5.5-1-.5v.5l1,.5-.5,2-1-.5-1,1,1,1.5-2.5,1,1,2-2.5,1-.5-1.5-2,1.5,1,1.5-3.5,2,1.5,3.5-1.5,1,1,1-3.5,1.35-1-1.5-7,3.5-1-2.5-2.5.5v-1l-2,.5-3.5,3,.5-1-2-1.5-4.5-1-.5-2"/>
      <path data-code="SAM-SAM" d="m78.74,58.54l-.5-.5,1.5-1.5,1.75-1.2,1.25,1.35.5-.65,2.5,2,2.5,4h-1l.5,1-1.5,1,.85,2.3,1.15-.8v-1.35l1.5-2.5,2,.5v1.5l-.5,1.5-.5-1.5h-2l-.5.5v1.35l-.5,1-1.5-.5-.5,1,1,2,2-.5,2,2.5-3.5-1.5,1,8h.5v-1l1-.5-.5,1,.5.5,1-.5.5-1.5,1.5,1-1.35,1,.35.5h-1.5l-1.5,1.5.5.5-.5,1.5h1l-1,.5,1,2-3,.5v2l-2,1.5v-1l-2.5,1-.5-1-2,.5h1.5l-1,1.5-3.5-3v2.5l-4-1.5.5-1.5h1l.5-1-2.15-2.75-.25-2.15,3.95.4,1.5-.5,2.5-2h2l1-1.5-.5-1,2-3,1,.5.5-.5v-3l-1-3,.5-1,.5,1v-2.5l1-1.5-4-5.5-.5,1h-1l-.5-.5-1.5,1.5,2,2.5-1.5,1-4.5-4v-1l2.95,1.5Z"/>
      <path data-code="SAM-SER" d="m118.74,47.19v-1.5l1-1h1.5l1,2,1-3,2-1,2.5.85,3-2.5-.5-1.5,1.5-1.5,1,2,4.65-5.2,2.35,1.8,1-1,2,3.85.5-1.5,2,1-.5-1.5h1.5l1.5-2h1l1.5-2,.5.5.5-1.35,1.5,1.85.5-.5,1,1v2l1.5,1-1.1,1.15-.9-1.15-3,2.5-1.5-1.5-.5,4.5-1,1.5-.5-2.5-2,3.5,4,.5-.5,1.5-.5-.5v2.5l-1,.5,1.5,2v1.5l-.5,5h-1v1.5l2,1.5-2.5,3.5-2-2,.5,2.5-2,1.15,1.5,1.35.5-1h.5l-.5,1,.5,4-3,1-.5,1-1,1.5-2.5,1.5-1-.5,1.5-2-1-1h-1l-1-2.5-2,1.5-2.5.5-2.5-2-1.5,1-1-3h-2l-1,1.5-2-1,.5,1-2,.05-3-4.55-.5,1.5-2.5.5v-3.5l2-2.5-1.5-2,.5-1,1,.5v-1l2-.5-.5-1.5,1-2.85h.5v-1.5l-1.5.1.5-2.6-1.5-.5.5-3,1.5.55Z"/>
      <path data-code="SAM-SHE" d="m154.74,30.19l1.5,1,1.5-1.5-.5-1,1.5-.5-.5-1.15,3.5-1.5.5-3.5h1.5l.5-3v-1l2-.5v-1.5l1.5.5-1,1.5,5,1.5,2-3,1,2.5v4.5l4.5,3-.5,1.5,3,2,2,.5-.5.5v1l-1,3-1,.5v1l-1.5-.5v1l-1-.5-.5,1-.5-1.5-2.5,1-1.5,1-.5,1.5-3-.5-.5,2,2.5,3h-1.5l-.5,1-1.5.5-1.5-.35,2-1.15-1-1-1.5,1.5h-4l.5-1-2.5,1.5-1-2.5-2.5-.5.5-1.5h-2l-1.1-1.35,1.1-1.15-1.5-1v-2l-1-1-.5.5-1.5-1.85,3.5-2.5Z"/>
      <path data-code="SAM-SHI" d="m32.24,24.04l2-2.5,1.5,1v2l.5-1-.5-1h1l1.5,1.5h3l-1-.5,1-1-.5-1,2-2-1-1h.5l-.5-1.5,1-.5,1.5,2v-1,3l1,1.5,1,1,1-1-.5,2h1l.5-1,1.5.5,2,1,1.5,3,4.5,2.5-6.5,12,2,1.5-1.5,3.5,8,4-2,4.5-1.5-1.5-2.5,2-.5,3.5-1.5,1-13-6-1.5-5.5-1.5-1-1-2h-1l-.5,1-2-1-1.5,1v-2l1-.5-1.5-2.5.5-2-.5-1h2.5l-1.5-3v-2.5l-1.5.5-1.2-1.65,4.2-3.85,1.5-.5,1,1.5,1-.5-2.5-1.5,1-1-1.5-2.5"/>
      <path data-code="SAM-STA" d="m58.24,45.54l-.5.5,2.5,4.5,6.25,3.35-1.75,2.15-2.5-1.5-1,1.5,1,1.5v2l1,1,1-1-.5,1.5,1.5-2.5,1.5,1-.5,1,.5-1,1-.5-1-1,1-2,4,2,1-1-3.5-3,.5-1.5h1.5l-1-.5.5-1,2-.5.5,2,.5-1.5h3l1-.5,2.5,1.5-1-1.5-5,.5-4.5-1v-2.5l1-1-5.5-3.5v1.5l-.5.5-3-3.5-3.5,4h1l.5,1.5-1.5-1.5m5-25.5l3,1,1-1-1,1.5,4.5,2.5v2.5l1.5,1.5,2-2.5,3,2.5,5.5,4.5-1,1v1.5l2-1,2,1.5,2.5-2h3.5l-.5,2.5-.5,1,4.5,4-2,3h-1.5l-3,3.5-.5-1h1v-1.5l-1.5,1h-1l1-.5-.5-.5-1.5.5v-1h-2l1.5,1-.5.5h.5l.5,1.5h1l-.5-1.5,1.5,1,.5,3.65-1,.85-1.5-.5-.5.5h-1l-4,5.5-.5-.5-1.5,1.5.5.5-3-1.5v1l4.5,4,1.5-1-2-2.5,1.5-1.5.5.5h1l1,.5-.5.5.5,3-1,1.5,1.5,4-4,1.5-1.5-1.5-3.5,2-5-2v1l1.5,1-2.5,3,.5.5-1,1.5-2.5,1,2.5,2.5-4,1-1.5-2-2.85,2.15-.65-1.65-6-4.5.5-4.5-3.5-3.5,1-4,1.5-1,.5-3.5,2.5-2,1.5,1.5,2-4.5-8-4,1.5-3.5-2-1.5,12-22"/>
      <path data-code="SAM-SYZ" d="m15.24,51.04l1-.5,3,1.5-.5-2.5h.5l1-1-.5,2,2,1.5,3-.5-.5,1,2,1.5-.55,2.05-2.95-2.05-1,1.5-3.5,1.5-1.5,2-.5,5.5-2-.5,1.5-1.5-.5-1-1,1,.5-1.5h1l-1.5-1.5,1-1-.5-.5,1.5-3.5-1-3.5"/>
      <path data-code="SAM-SYZM" d="m15.24,51.04l1,3.5-1.5,3.5.5.5-1,1,1.5,1.5h-1l-.5,1.5,1-1,.5,1-1.5,1.5,2,.5.5-5.5,1.5-2,3.5-1.5,1-1.5,5,3.5,6.5,1-3-2-5.55-.45.55-2.05-2-1.5.5-1-3,.5-2-1.5.5-2-1,1h-.5l.5,2.5-3-1.5-1,.5m-4.5-19.5l3.5-1.5,1-1.5.5,1,1-.5-.5-1.5,1.5-1,4,1-.5,1.5,1,.5.5-1,2,.5.5,1.5-1,.5,1-.5.5,1.5,1-1,1,1h-.5l1.5,2,1.5-.5v2.5l1.5,3h-2.5l.5,1-.5,2,1.5,2.5-1,.5v2l1.5-1,2,1,.5-1h1l1,2,1.5,1,1.5,5.5,13,6-1,4-2.5-2.5-4-2h-8l-11.5-3-1,1.5-1,.5-3.5-.5-1.5,1.5-1,2.5v4.5l-1.5,1-1.5-2,.5-1.5-3-.5,1.5-2-1.5-1,3.5-2.5-1-2-3-1-2.5,3-1-.5,1-1.5v-.5l-1,.5-1-2.5,6-3.5-2-4.5,1-1.5,2.5-1-4-10,1.5-.5-.5-1.5"/>
      <path data-code="SAM-TOL" d="m58.24,45.54l1.5,1.5-.5-1.5h-1l3.5-4,3,3.5.5-.5v-1.5l5.5,3.5-1,1v2.5l4.5,1,5-.5,1,1.5-2.5-1.5-1,.5h-3l-.5,1.5-.5-2-2,.5-.5,1,1,.5h-1.5l-.5,1.5,3.5,2.5v.5l-1,1-4-2-1.25-2.15-6.25-3.35-2.5-4.5.5-.5"/>
      <path data-code="SAM-VOL" d="m87.24,69.54l3.5,1.5,1.25,5-.75-.5-.5,1.5-1,.5-.5-.5.5-1-1,.5v1h-.5l-1-8m-24,7l1.5,2,4-1-2.5-2.5,2.5-1,1-1.5-.5-.5,2.5-3-1.5-1v-1l5,2,3.5-2,1.5,1.5,4-1.5-1.5-4,1-1.5-.5-3,.5-.5-1-.5.5-1,4,5.5-1,1.5v2.5l-.5-1-.5,1,1,3v3l-.5.5-1-.5-2,3,.5,1-1,1.5h-2l-2.5,2-1.5.5-5-.5-1,.5v1l-1,.5,1,.5h-3l-.5,1.5.5.5-2.5,1-.5-1.5.5-1h.5l-.5-.5-3-1.5v-1l-1.5,1-.95-1.05,3.95-2.95Zm5.5,9.15l-.5,1.5-1,.5,1,1,.5-.5h-.5v-.5l.5-.5v-1.5l2.5,1.5,1-.5-1.5-3.5h2l-.15-1.35,2.15,2.75-.5,1h-1l-.5,1.5,4,1.5v-2.5l3.5,3,1-1.5-1,.5-.5-.5,2-.5.5,1,2.5-1v1l2-1.5v-2l3-.5-1-2,1-.5h-1l.5-1.5-.5-.5,1.5-1.5h1.5l1,1.5,1.5-2.85.5,2-1,2v2l-3,2v1.5h3l.5,2,.5,11.35-3,1-2,3.5-2.5-2-1.5,2.5-3,2,1,.5-1,1,2,1.5v1l-3.5,6-.5-.5-1.5,2.5h.5l-1.4,2.6-6.4-4.15,3.3-3.3.5-1-4-1.5-.5-1.5.5-1-5.5-4.5,2-3,2.5-.5,1.5-3.5-.5.5-6.05-4.95-.45-1.7,1-1.5-.5-.5.5-3.35h2.5v-.05h0Z"/>
</svg>