<svg data-code="RU-STA"  xmlns="http://www.w3.org/2000/svg" viewBox="0 0 177.75 227.15">
    <g data-code="stavropol_skij_kraj" data-title="stavropol&amp;apos;skij_kraj">
      <path data-code="aleksandrovskij_rajon__stavropol_skij_kraj_" data-title="aleksandrovskij_rajon_(stavropol&amp;apos;skij_kraj)" class="cls-1" d="M48.12,111.02l1.5-1,1.5,1,1-.5,1.5,3,.5-.5,1.5-1.5-3-3,3-3.5-1.5-1,.5-1.5h1l.5.5,3-3.5,1.5,1.5.5-.5,3,1,.84-1.56,6.16,3.42h1.5l.5-1,8,3.64.06,3.03-4.56,2.47-.5-.5-6,1.5-.5,2.5h1l.5,1.5,2.5.5,1.5,1.5-6-1-.5,1,1.5,2-1,1,4.5,7-1,.5.5.5-1.5,1-2,3v2.5l-1,.5.91,2.59-1.91,1.91-5-3-1,1.5-3-2,2-3-1-1.5-1,.5-2.5-1.5-3-6.5-2-1-3-5,1-.5-2-3,2-3v-1.5l-1-.5"/>
      <path data-code="andropovskij_rajon" data-title="andropovskij rajon" class="cls-1" d="M22.62,106.02l2.5-2,.5,1,1-.5,3.5-3.5,3.5-.5,2.5,1.5,1.9-1.95,2.59,1.81,7.95-12.75,3.05,1.89-2,4,7,4-.5.5,2,1.5-2,2-.5-.5h-1l-.5,1.5,1.5,1-3,3.5,3,3-2,2-1.5-3-1,.5-1.5-1-1.5,1,1,.5v1.5l-2,3,2,3-1,.5.76,1.27-3.26,6.23-2,1-2.5,3-1.5-.5-2,3-3-1.5-1.17,1.89-1.83-2.89,1-1.5-1-1,.5-1-2-1.5-2,2-3-1.5-.5,1-4.5-5,5.5-5-1.5-1.5,1.5-2-3-1.5v-2l-1.5-2,1-1,.5-1.5"/>
      <path data-code="apanasenkovskij_rajon" data-title="apanasenkovskij rajon" class="cls-1" d="M101.62,30.52l10.5-2.5-.5-1,1-.5h4.5v5.5l8,10.5v6l2.5,5,9.5,6.5,6,6.5-1.5,3,2,3v2.5l-.5,2,1,2.5-2,5.5-3-.5-1.5-3.5-1,2-6-4-4,5-7.5-4.5.5-1-3-2-.5.5-1-.5-2.5,5-6-3.5,5-8-2-1.5,1-1.5,2,1,4.5-7.5-.5-1-3.5-1-4.5,1-1-3-1,1-1.5-1.5v-2l2.5.5v-8.5h-2l-1-2.5-4.5,2.5,1.5-15.5"/>
      <path data-code="arzgirskij_rajon" data-title="arzgirskij rajon" class="cls-1" d="M108.62,107.52l6-2,.5,2,1.5.5,3.5-1,3-3.5-2-1.5.5-.5,1-2.14,1,.5,7-11,4.5,1.5,6.5,7.5,1-2.36,1,4,1.5,1,2,4.5,4.5,3,.5,4,4,5,2.5,1-18,13.5-3-5-4.5,6v.5l-5.5,5-5.71,2.03-2.29-9.53,2-1-3.5-13-4.5,1.5-1.5-5.5-2,.5-1.5-5.5"/>
      <path data-code="blagodarnenskij_rajon" data-title="blagodarnenskij rajon" class="cls-1" d="M83.62,96.89l2.5-4h1.5l.5-1,2,1.5,1.59-3.02,5.91,4.02,1.5-2,3.5,2-1,2.5,1,.5,1.5,4,4.5-2-.5-.5,3-1.5v1.5l1.5-.5,1,4.5h2l3-3,3,1.64-.5.5,2,1.5-3,3.5-3.5,1-1.5-.5-.5-2-6,2,1.5,5.5,2-.5,3,9.5-9,3-1.5-1.5-4,2-1.5-.5-1-3.5-4,1.5,1.33,2.42-4.33,1.94-3.5-13-4.5,2-2.5-9.36.5-1-2.38-1.08,1.38-2.05v-2l3-4.5.5.5Z"/>
      <path data-code="budennovskij_rajon" data-title="budennovskij rajon" class="cls-1" d="M94.12,123.02l4-1.5,1,3.5,5.5-1.5,1.5,1.5,9-3-1.5-4,4.5-1.5,3.5,13-2,1,3,12.5-2,.5-1.5,3.5-1.5.5v2.5l3,11-6.5,8.86-1.5-.5.5-2.5-3.5-1.5-3,.5-2-1-.5-2.5-4.5,2.5-2.5-7.5-1.5-2.5-3-1v-1l-6.5-9.5,6-4.36.5-1-.5-2,7.5-3-5.5-10"/>
      <path data-code="essentuki" class="cls-1" d="M29.62,153.89l1.5-2.5,4.5,3-.5,2.5-2-.5-1-1.5h-2l-1,1-1-3,1.5,1Z"/>
      <path data-code="georgievsk" class="cls-1" d="M58.62,160.02h1.5l1,3-3.5,1.5-.5-1.5,2-1.5-.5-1.5"/>
      <path data-code="georgievskij_rajon" data-title="georgievskij rajon" class="cls-1" d="M58.62,160.02l.5,1.5-2,1.5.5,1.5,3.5-1.5-1-3h-1.5M55.12,143.52l3,2,4.5-7.5,5,3,2.5-2.5,1,1.36,4.5-3.5,3,5-1,1,1.5,3-3,2,1.5,2.5-2,1.5,1,1.5-1,.5-1,1,.5,2.5-2.5,4v.5l-1,1h-1.5l-2.5-1.5-.5.5.5,4.5,2,2,1-.5.91,3.83-2.41.8-4-1.5-3,.5-2-2-4,1.5-3-.5-1,4h-2l2-5.14-1-2.5-5-3,2-2.86.5.5-.5-1.93.5-.07,5-8-1-1,2-1-2-1.5,2.5-4"/>
      <path data-code="grachevskij_rajon__stavropol_skij_kraj_" data-title="grachevskij_rajon_(stavropol&amp;apos;skij_kraj)" class="cls-1" d="M47.62,72.89l2-2,3.5,2.5h2l1.5-2,1.5,1,1.5-5-3.5-1.5,1-1.36-3.63-3.93,2.13-2.71,6.5,4.5,1.5-2,2,1,5-8,.5,1.5,2,1-3.5,6,1,.5-3,3,.5,2-2.5,3.5,1.5,1-5,8,5.5,5.5-2,3-2-1.5-1.5,3,3,2,3,5v.5l-1.5-.5-2.5,4.64-3-1-.5.5-1.5-1.5-1,1.5-2-1.5.5-.5-7-4,2-4-7.5-4.64,1.5-1.86-1.5-9v-1.14l1.5.5-.5-2h2.5Z"/>
      <path data-code="ipatovskij_rajon" data-title="ipatovskij rajon" class="cls-1" d="M67.12,23.52l3.5,2.5,2.5-3.5.5,1.5,3,1,6-7h-.5l2-2.5,6.5,2.5-6.5,9.5,10,3.5,7.5-2,1.5.5v1h-1.5l-1.5,15.5,4.5-2.5,1,2.5h2v8.5l-2.5-.5v2l1.5,1.5,1-1,1,3,4.5-1,3.5,1,.5,1-4.5,7.5-2-1-1,1.5,2,1.5-3.52,5.63-6.98-4.27-1.5,2.5-8.42-4.85.42-.65-2-5-4,2.5,2.5-2.5-2.5-2.5v-2l-3.5-2-1,1-1.5-1-1,.5-1.5-2.5h-1.5l-1,1.5-2-1,.5-1-2.5-1,.5-2.5-4.5-3.5,1.5-2.5h1l-4-4.5,2-2.5,1.5,1.5,1.5-.5,1-2.5.5.5,1.5-2.5-6-3.5v-1.5l-1-.5,1-1.86-1-1.5,1-2"/>
      <path data-code="izobil_nenskij_rajon" data-title="izobil&amp;apos;nenskij_rajon" class="cls-1" d="M14.62,55.52l3-5,1-.5h-.5l1-2,1,1-.5,1.36,1.5-.5,4,2-.5-3,2-1-1-.5,1-1.5-1-.5,8-10.86,1,.5,2.5-5,2.5,4,2-2,3.5,2,2.5-4,3,2-2,4v1.86l2.5,1-1,.5-2,.5-1.5,2,.5,4.5-3.5,4,1.5.5-1,1,7,4.5-1,1,1.97,1.69-1.47,2.31-1-.5-2,2.5-4-2.5-1,2-2.5-2.5v1.5l-.5-.5-1.5,1.5-3.5-1-2-3-2.5-1.5-1,2,.5,1-.5,1-2-.5-2,4-8-7-1,1.5-1-.86-.5-3"/>
      <path data-code="kirovskij_rajon__stavropol_skij_kraj_" data-title="kirovskij_rajon_(stavropol&amp;apos;skij_kraj)" class="cls-1" d="M42.62,169.52l8.6,1.67-1.1,2.83h2l1-4,3,.5,4-1.5,2,2,3-.5,4,1.5,4.5-1.5,1.5,2.86.5,1.5-1,.5,2,6.5h1v-1.5l1.5-.5v-1.5l2-1.5,6.5,3.5,1,1-2.5.14-2,3,1,.5-1,1.5-4-2-.5,2-2,2.5-5-3,.5-1-1.5-1,1-1.5-.5-1-3.5.5-1.5,1.5-3.5-.5-6,6-8.5-9.5-2.5-1-6,1,2-10"/>
      <path data-code="kislovodsk" class="cls-1" d="M20.62,157.39l1-1.5,2.5.5-1,.5,1,.5-1,2.5.5,1.5-1,.5v1.5h-2.5l-2.5-2.5.5-3,2.5-.5Z"/>
      <path data-code="kochubeevskij_rajon" data-title="kochubeevskij rajon" class="cls-1" d="M18.62,91.02v3.5l-1,.5.5,1-1.5,1v2l2.5,2,2-2.5-.5-1,1-3.5-1-2.5-1.5.5-.5-1M2.62,79.52l6,1.5,1-1,1.5.5.5-2,1.5.5.5-2,3-1,1.5-2.5h.5l3-4.14,1.5,1-1.5,2.5.5,1.5-.5,2.5,5,6.5.5,2-1,2.5.5,1.5,1-1v2.5l2.5-.5-.5,2,1,3,2.5-1,1,.5,2.5,2.5-1,1,2.41,1.69-1.9,1.95-2.5-1.5-3.5.5-3.5,3.5-1,.5-.5-1-2.5,2-.5,1.5-1,1,1.5,2v2l3,1.5-1.5,2,1.5,1.5-5.5,5-1.5-2-7-5,.5-1.5-2.5-4.5,4-5-8-3-1-3-2-.5,1-2.5-2.5-.5,2.5-7H.62l1.5-3.5-1-1.5,1.5-3.5"/>
      <path data-code="krasnogvardejskij_rajon__stavropol_skij_kraj_" data-title="krasnogvardejskij_rajon_(stavropol&amp;apos;skij_kraj)" class="cls-1" d="M40.62.52l8.5,5.5,2-2.5,3,1.5,4.5,5.5,16.5,11.5-1.5,2-.5-1.5-2.5,3.5-3.5-2.5-1,2,1,1.5-3,5.5-2.5-2-2,1-1-.5-1.5,2-5-3.5-1.5,2.5-3-2-2.5,4-3.5-2-2,2-2.5-4-.5,1-5-3.14,4.5-7.5-1-.5,1-1.5,1,1,.5-1-3-2,1.5-2.36,1,.5,1.5-2v-3.5l2-.5.5-1.5-3.5-2.5,3-4"/>
      <path data-code="kurskij_rajon__stavropol_skij_kraj_" data-title="kurskij_rajon_(stavropol&amp;apos;skij_kraj)" class="cls-1" d="M78.62,186.52h1l.5-2,4,2,1-1.5-1-.5,2-3,2.5-.14-1.5,2.5,2,2.5-1,1.5,1,1.5,3.5,2,2-3h1l1.5-2,4.5,2.5-1.5,2.5,4.5,3.5.5-1.5,3,2v1l.5,1,4.5,2.5,3-5,1,.5,4-5,2,3.5,1.5-1.5,3,3.14-3.5,3.5,15.5,10.5-7,9.5-1.5-1-5,8-9.5-5.5,3-5-5.5-3.5-8.5,14.5h-1l-.5-1.5h-1.5l-2.5,1.5-1.5-1.5-2,1-1-1.5,1-1.5h-1.5l1.5-1h-1v-1.5l3-5.5v-1l-3.5-2,.5-1-1.5-1-8.5-2.5-7-5,3-4.5,2.5.5,1.5-2.5,3,1.5,2.5-4-2-.5-1.5,2-4-2-2,3-4.5-4,1.5-2.5-1-.5,1-2.5"/>
      <path data-code="lermontov" class="cls-1" d="M39.62,151.89l1.5,3-.9,2.26-1.59-1.12-2-4.64,3,.5Z"/>
      <path data-code="levokumskij_rajon" data-title="levokumskij rajon" class="cls-1" d="M127.62,138.02l5.5-5v-.5l4.5-6,3,5,17.42-13.26,2.08,3.26-.5,1,17,32,.5,10.5-1.2,1.24-5.3-3.88-3,5.5-8-4,2.5-5.5-1-1-.5,1-8.5-2.5-2.5,2-2,.5-1.5,3-3.5.5-2-2-1.5,2.5-11,3.64-7.5-5-3-11v-2.5l1.5-.5,1.5-3.5,2-.5-.71-2.97,5.71-2.03Z"/>
      <path data-code="mineralovodskij_rajon" data-title="mineralovodskij rajon" class="cls-1" d="M34.62,132.02l3,1.5,2-3,1.5.5,2.5-3,2-1,3.26-6.23,2.24,3.73,2,1,3,6.5,2.5,1.5,1-.5,1,1.5-2,3,3,2-3.5,6-3-2-2.5,4,2,1.5-2,1,1,1-5,8-2.5.36-.5-3-2-1v-4l.5-1.5-2.5-1,1-1.5-.5-1.5-4,.5-.5-2.5-2.5,2-2.5-3,2.5-3.36-4-2.5,2.33-3.11,1.17-1.89Z"/>
      <path data-code="neftekumskij_rajon" data-title="neftekumskij rajon" class="cls-1" d="M112.62,169.39l1.5.5,6.5-8.86,7.5,5,11-3.64,1.5-2.5,2,2,3.5-.5,1.5-3,2-.5,2.5-2,8.5,2.5.5-1,1,1-2.5,5.5,8,4,3-5.5,5.5,4-7.5,4-1,5-9.5,4.5-7.5,2.5-.5-1.5-5.5-1.5-2,1.5v3l-1,.5-1-1-1.5,2.5,5,3,1.5,4-1.5,2-6,5-10.5-3.5-3-4-1.5,1.5-2-3.5-2.5-1.5.5-2.5,1.5.5,1.5-2.5-8.5-9-3-.5v-1l3.5-4-1.5-.5"/>
      <path data-code="nevinnomyssk" class="cls-1" d="M18.62,91.02l.5,1,1.5-.5,1,2.5-1,3.5.5,1-2,2.5-2.5-2v-2l1.5-1-.5-1,1-.5v-3.5"/>
      <path data-code="novoaleksandrovskij_rajon" data-title="novoaleksandrovskij rajon" class="cls-1" d="M12.12,18.39l7-10.5,4,3,1.5-1,1,1,1,2-1,1.5,4.5,2.5,3-5,3,2-1.5,2.5,3,2-.5,1-1-1-1,1.5,1,.5-4.5,7.5,5,3.14-2,4-1-.5-8,10.86,1,.5-1,1.5,1,.5-2,1,.5,3-4-2-1.5.5v-2.5l-2-1.5.5-2.5-3,1-7.5-5,1.5-1.5-.5-2,1,.5v-.5h-.5.5l1-1.5-.5-1.5,1.5-1.5-.5-1,1.5-.5-.5-1.5,1-2-1-2.5,2.5-4-2.5-2"/>
      <path data-code="novoselickij_rajon" data-title="novoselickij rajon" class="cls-1" d="M76.12,111.02l.5.5,4.56-2.47,1.93,7.34,4.5-2,3.5,13,4.33-1.94,4.17,7.58-7.5,3,.5,2-.5,1-6,4.36-2-3-3.5,2.5.5,1-2,1.5-1.5-3,1-1-3-5-4.5,3.5-1-1.36-.59.59-.91-2.59,1-.5v-2.5l2-3,1.5-1-.5-.5,1-.5-4.5-7,1-1-1.5-2,.5-1,6,1-1.5-1.5-2.5-.5-.5-1.5h-1l.5-2.5,6-1.5Z"/>
      <path data-code="petrovskij_rajon__stavropol_skij_kraj_" data-title="petrovskij_rajon_(stavropol&amp;apos;skij_kraj)" class="cls-1" d="M73.12,54.39l-.5,1,2,1,1-1.5h1.5l1.5,2.5,1-.5,1.5,1,1-1,3.5,2v2l2.5,2.5-2.5,2.5,4-2.5,2,5-4.5,7,1.5,1-1.5,2,1,.5-3,5.5,4,2.5-.5-1h1l2-4,3.5,2-5,9.5-2-1.5-.5,1h-1.5l-2.5,4-.5-.5-3,4.5v2l-1.38,2.05-5.62-2.55-.5,1h-1.5l-6.16-3.42,1.66-3.08,1.5.5v-.5l-3-5-3-2,1.5-3,2,1.5,2-3-5.5-5.5,5-8-1.5-1,2.5-3.5-.5-2,3-3-1-.5,3.5-6-2-1-.5-1.5,2.5,1Z"/>
      <path data-code="pjatigorsk" class="cls-1" d="M36.12,155.89l2.5.14,3,1.86.5,1.5-.5,2.5-2.5.5-2.5-2.5-1-2.5.5-.5v-1"/>
      <path data-code="predgornyj_rajon" data-title="predgornyj rajon" class="cls-1" d="M18.12,157.89l-.5,3,2.5,2.5h2.5v-1.5l1-.5-.5-1.5,1-2.5-1-.5,1-.5-2.5-.5-1,1.5-2.5.5M28.12,152.89l1,3,1-1h2l1,1.5,2,.5.5-2.5-4.5-3-1.5,2.5-1.5-1M9.62,140.39l2-.5,1.5-2,2-.5v-1.5h2.5l.5-1,2.5,1.5,1-2,1,1.5v-1h2l2,1,2-2.5,2,1.5,1.8-2.62,1.03,1.65-2.33,3.11,4,2.5-2.5,3.36,2.5,3,2.5-2,.5,2.5,4-.5.5,1.5-1,1.5,2.5,1-.5,1.5-2-.5-2,1-3-.5,2,4.64-2.5-.14v1l-.5.5,1,2.5,2.5,2.5,2.5-.5.5-2.5h4l1-1,1.5.64-.5.07.5,1.93-.5-.5-2,2.86,5,3,1,2.5-.9,2.31-9.1-1.31.5-1.5-3-2-2.5,3.5-6-4-4,.5-2-1.5-2.5,3.5-1.5-.5-2.5-3.5-2.5-1-1-1.5.5-1.5h1l.5-3,3-1.5-1.5-1.5,1.5-1.5-2-1.5,2.5-3-4.5-2-1.5,2,.5,1h-1l-3.5-3v-.5l1-.5-.5-.5,1-2.5h-1l-1.5-2"/>
      <path data-code="shpakovskij_rajon" data-title="shpakovskij rajon" class="cls-1" d="M24.62,68.39l-.5,1.5,1.5,1.5,1.5-1h1.5l-1,.5.5,2.5h2.5l1.5,2-2,.5,2.5,2,2-1,1,1v-.5l.5.5,2.5-1-.5-.5,2.5-.5.5-2.5h1l-1.5-2-.5,1h-2l-.5-1.5.5.5.5-1-.5-1h-2.5l-.5,1.5-3.5,1.5-2.5-1.5,1-.5.5.5,2-2.5-1-.5-1,1.5h-.5l.5-2-1.5-1.5-4.5,2.5M15.12,58.89l1,.5,1-1.5,8,7,2-4,2,.5.5-1-.5-1,1-2,2.5,1.5,2,3,3.5,1,1.5-1.5.5.5v-1.5l2.5,2.5,1-2,4,2.5,2-2.5,1,.5,1.47-2.31,5.03,5.44-1,1.36,3.5,1.5-1.5,5-1.5-1-1.5,2h-2l-3.5-2.5-2,2h-2.5l.5,2-1.5-.5v1.14l1.5,9-1.5,1.86,4.45,2.75-7.95,12.75-5-3.5,1-1-2.5-2.5-1-.5-2.5,1-1-3,.5-2-2.5.5v-2.5l-1,1-.5-1.5,1-2.5-.5-2-5-6.5.5-2.5-.5-1.5,1.5-2.5-9-6,1-5.5"/>
      <path data-code="sovetskij_rajon__stavropol_skij_kraj_" data-title="sovetskij_rajon_(stavropol&amp;apos;skij_kraj)" class="cls-1" d="M67.12,161.39l.5-.5,2.5,1.5h2-.5l1-1v-.5l2.5-4-.5-2.5,1-1,1-.5-1-1.5,2-1.5-1.5-2.5,5-3.5-.5-1,3.5-2.5,8.5,12.5v1l3,1,1.5,2.5,2.5,7.5-.5,3h-1.5l-.5,3.5h1.5l-.5,3.5-1,1-1.5-1.5v1l-.5,1-3-2.5-4.5,6.5-6.5-3.5-2,1.5v1.5l-1.5.5v1.5h-1l-2-6.5,1-.5-.5-1.5-1.5-2.86-2.09.7-.91-3.83-1,.5-2-2-.5-4.5"/>
      <path data-code="stavropol_" data-title="stavropol&amp;apos;" class="cls-1" d="M24.62,68.39l4.5-2.5,1.5,1.5-.5,2h.5l1-1.5,1,.5-2,2.5-.5-.5-1,.5,2.5,1.5,3.5-1.5.5-1.5h2.5l.5,1-.5,1-.5-.5.5,1.5h2l.5-1,1.5,2h-1l-.5,2.5-2.5.5.5.5-2.5,1-.5-.5v.5l-1-1-2,1-2.5-2,2-.5-1.5-2h-2.5l-.5-2.5,1-.5h-1.5l-1.5,1-1.5-1.5.5-1.5"/>
      <path data-code="stepnovskij_rajon" data-title="stepnovskij rajon" class="cls-1" d="M87.62,180.39l4.5-6.5,3,2.5.5-1v-1l2,1,1-4h-1.5l.5-3.5h1.5l.5-3,4.5-2.5.5,2.5,2,1,3-.5,3.5,1.5-.5,2.5,1.5.5-3.5,4v1l3,.5,8.5,9-1.5,2.5-1.5-.5-.5,2.5,2.5,1.5-4,5-1-.5-3,5-4.5-2.5-.5-1v-1l-3-2-.5,1.5-4.5-3.5,1.5-2.5-4.5-2.5-1.5,2h-1l-2,3-3.5-2-1-1.5,1-1.5-2-2.5,1.5-2.5-1-1"/>
      <path data-code="trunovskij_rajon" data-title="trunovskij rajon" class="cls-1" d="M52.12,29.52l5,3.5,1.5-2,1,.5,2-1,2.5,2,2-3.64,1,.5v1.5l6,3.5-1.5,2.5-.5-.5-1,2.5-1.5.5-1.5-1.5-2,2.5,4,4.5h-1l-1.5,2.5,4.5,3.5-.5,2.5-5,8-2-1-1.5,2-6.5-4.5-2.13,2.71-3.37-3.21,1-1-7-4.5,1-1-1.5-.5,3.5-4-.5-4.5,1.5-2,2-.5,1-.5-2.5-1v-1.86l2-4,1.5-2.5Z"/>
      <path data-code="turkmenskij_rajon" data-title="turkmenskij rajon" class="cls-1" d="M99.62,73.89l1.5-2.5,6.98,4.27-1.48,2.37,6,3.5,2.5-5,1,.5.5-.5,3,2-.5,1,7.5,4.5,4-5,6,4,1-2,1.5,3.5,3,.5-1,5.86,1.5,6-1,1-1.5-1-5-6.5-4.5-1.5-7,11-1-.5-1,2.14-3-1.64-3,3h-2l-1-4.5-1.5.5v-1.5l-3,1.5.5.5-4.5,2-1.5-4-1-.5,1-2.5-3.5-2-1.5,2-5.91-4.02,3.41-6.48-3.5-2-2,4h-1l.5,1-4-2.5,3-5.5-1-.5,1.5-2-1.5-1,4.08-6.35,8.42,4.85Z"/>
      <path data-code="zheleznovodsk" class="cls-1" d="M39.62,151.89l2-1,2,.5v4l2,1,.5,3h-4l-.5-1.5-1.4-.74.9-2.26-1.5-1v-2"/>
    </g>
</svg>