<svg xmlns="http://www.w3.org/2000/svg" viewBox="0 0 344 417.35">
      <path data-code="SVE-ARA" d="m126.75,358.75l2-1,1.5,2h2.5v1.5l-1.5-1.5-2,3-2-1v-1.5l-.5-1.5"/>
      <path data-code="SVE-ACH" d="m24.75,301.75l1.5-.5,2,1,1-.5v-1.5l1.5-.5,1.5,1.5,2-1.5v-1l1,2.5,1-1v-2h1l.5-1.5,1.5-.5,2.5,1,1-1.5,2,1-.5,1h-2.5l1.5.5.5,1,2.5-1,2,1,1-1.5h1.5l5,5.5.5,2,1-2h1.5l1,2.5-8,12.5,2,2.5-.5,1-1-.5v1h-1.5l.5,3h-.5v1.5l-.5,1,2,1.5-1.5,1.5-1.5,1.5v1.5l-1.5.5-.5,1.5-1.5,1-2-1.5-2.5.5-1.5-2-1,.5-.5-1,.5-1-2,.5v-2l-1-.5.5-.5-.5-.5v-1l3-2v-2l-5.5-1.5v-1.5l1.5-.5-.5-2-4.5-3-.5-2.5.5-2v-1l1-.5-1-1.5-1,1-1-.5-1.5-4-1.5-.5v-2.5"/>
      <path data-code="SVE-ALP" d="m160.25,283.75l2-2,3-5.5,5.5.5,1-1.5,1,.5v-2l2.5-1.5,1.5-2.5,2-6.5,5.5-.5,2-2,4,2-1.5,7.5,2.5,2,1-.5,2,2h3.5l5.5,3,1-2.5,2.5,1-.5,1.5,8,2,2-4.5,11,4.5-6,17-4,2.5-.5,2v1l-.5,1-2.5-.5-4,7,.5,3h-2.5l-1.5,2.5-.5-.5v-1l-.5,1-7-2.5.5.5-2.5,2-2-.5-1.5,2-1.5.5-2.5,3.5-.5-1.5-.5,1-3.5-2-1,1.5-1.5,1-3.5-1.5-3-2-1.5-3.5,1.5-3-1.5-2,1.5-.5v-1.5l-.5-3h3v3h.5l1-3v-1l1.5,2h2.5l1.5-.5v-1l1.5-.5,3.5.5,2-2.5v-.5l-.5-.5-1,.5v-2l-2-1v-.5l.5-.5-.5-.5-1,.5-.5-2.5-1,.5v-2h1.5l-7.5-5-1.5,3-1.5-1,1.5-1.5-4.5-2.5-3,4.5-2.5-3-2.5,1.5v1l-.5-.5v-1.5l-1.5.5v-1l1-1.5h1.5v-2l-3.5,1.5-.5,1-2-.5"/>
      <path data-code="SVE-ARI" d="m27.75,333.25l3-1,1,1.5,1-.5v-1h1l-.5-1,3.5-.5.5,2.5,1.5-1-.5,1,.5,1,1-.5,1.5,2,2.5-.5,2,1.5,1.5-1,.5-1.5,1.5-.5v-1.5l1.5-1.5,2.5-1.5,1,.5-2.5,4,3,1.5v1.5h.5v-2l6,2.5-10.5,17.5,2,1.5-.5,1.5,1.5,1-1,1-3-.5.5,1-.5.5v1l4.5,2.5v5.5l-1.5,2.5-4,3h-2.5v-1.5l-2-.5.5-1-3.5-1,.5-2.5-2.5-1.5-1.5-4.5-1.5-.5-2.5,2.5-2-.5-2,2-1.5-1,1.5-1.5v-.5l-4-.5-2-3.5-2-1,.5-2.5,1.5-1.5-1.5-4,2-.5,2.5-4v-3l1-.5.5-4.5.5-1-.5-.5.5-1.5-1-1.5"/>
      <path data-code="SVE-ARE" d="m167.25,326.75l2.5-3.5,1.5-.5-.5-3,1.5-1h1.5v-3l1-1.5.5,1.5,5.5,3,2.5-.5,1-1.5,3.5,2,.5-1,.5,1.5,2.5-3.5,1.5-.5,2-2v1l3.5,1.5-.5,1.5,4,2-.5,4-1.5,1,3,2.5-.5,1,1,.5-1,1.5-1-.5-1.5,1-3.5-1.5.5,4.5-.5,2.5,4.5,2.5-3,2v1l-3.5-1-3.5,6.5-7.5-4-1,1.5-7-5-.5,1.5-1.5,1.5-1-5h-3l-2,1.5.5-1,1.5-1.5,1-3h-1l.5-1.5-2.5-5"/>
      <path data-code="SVE-ASB" d="m154.75,340.75l1,.5v1.5l1,.5,2-2.5,1.5-.5v-1l-2.5-1.5-3,3m-5,5l8-13,5,3,2-3,5,3-2.5,3,3-2,1,1.5-4.5,7.5-.5-.5.5-1v-.5l-2,1,1.5,1.5-4,5.5-.5,1.5,1,.5-1,2.5-1-.5-1,1-10.5-7.5,1.5-3-1-.5"/>
      <path data-code="SVE-BAJ" d="m214.25,344.25l1-1.5,2,1.5v1.5l1.5.5-.5-.5,1-1h2.5l2-3h3.5v-1.5l2,1h1l.5-1.5-.5-1.5,2.5,3,1.5-.5-2-.5v-2.5h1.5l2.5-4.5,5,2v-.5l1.5-3.5,3-2.5-1.5-2,1.5-.5.5-1-2,.5,2.5-3.5,1.5-1,2,2-.5.5h-1.5l.5,2,3-1.5v1.5l2.5-1.5,2,1.5v1.5l-1,1,1.5,2.5-1.5,1,.5,2.5,1,1.5h2.5l1,1.5-.5,1,1.5,1-.5,2.5,1,1-4-1v1h1l-1.5,1,2.5,2.5-5,2,2,2-.5,1.5-.5.5v.5h-1.5l-1,2,2,.5,1,1.5-3.5.5v1.5l-1,2-1.5-3h-1l-1,1.5h-2.5v1.5l-2,.5-5-1-6-8h-1.5l-2,2-.5-2-5.5-2.5h1l-1-2-.5,1h-1l.5,1-8-1,.5-1h-.5l1-2.5-1-1"/>
      <path data-code="SVE-BEL" d="m130.25,358.25l1-1.5,1.5-.5,3-4.5,4.5,2.5-1.5,2.5-3,.5v1h-.5l2,2,1-2,1,.5,1-1.5,3,2.5h-1l.5,3-.5-.5-1,1,.5-1.5-1-1-.5,2.5,1.5.5.5-.5,3.5,3,1-1.5-1,.5,1-1.5-.5-1.5h.5l-1-1.5,4.5.5.5-2-1.5-.5.5-1,4-5-1-1-1.5,2-2.5-1.5.5-1.5-1.5-1,.5-1,11.5,8-1.5,2,.5.5-2.5,2-1,3.5h1.5v1h.5l-1,1.5,2.5,4-1,2.5-2,.5-.5-2-2.5,1-1.5-1v1.5l-1.5,1.5.5,1-2-1-2,2-.5-.5-.5,2.5-1-1-2,1.5-2-1-2.5,1-.5,1-2-2-2,1-1.5-.5-1.5-1.5.5-1.5,4-3.5-.5-1,1-2h1l1-2.5h.5v-1.5l-1.5-.5-1-1.5,2,1.5-.5-2.5-2,1-2-2.5v-1.5l-2.5-1.5"/>
      <path data-code="SVE-BER" d="m130.75,336.25l2-1.5,1.5.5,2-3.5,1,.5,3-4.5,2,1.5,1.5-2.5,12.5,8.5-6.5,10.5,1,.5-1.5,3-1.5-1-1.5,2.5-2-1.5-2.5,4.5-1.5.5-10-6,1-.5-1.5-1v-2l1-1v-2h1.5l.5-1.5-1-.5,2-1.5-.5-1-1.5,1-1-2"/>
      <path data-code="SVE-BIS" d="m61.25,319.25l5.5-12.5,1.5.5.5-2,13,6.5.5,3.5-.5,1-.5.5h2l.5,1.5-2,2,1,3-2.5,2,1.5.5-.5,1.5,1,.5-1,1.5.5.5-3,7.5-6-2.5-.5,1h-.5l-1,1.5,1,.5-2,3-3.5-1-2,4-4-2.5,3-4-2-1.5,1-1.5-1.5-.5,4-10.5-3.5-4"/>
      <path data-code="SVE-GAR" d="m229.25,147.75l6-3,1,.5,5.5-9,5.5,3.5,2-3,1,.5,1.5-2,1,.5,3-5h.5l6-6,6.5,4v-1l6.5,4.5,7,5.5.5,2h2l9,7,.5,5.5-3,4,9,10.5h2.5v1.5l-1,1-.5,22-1,4-5,19.5,3,7,3.5,1-20,13,1,1-1,2.5,1,3.5-1,.5-1.5-2,1-.5-1-1,1-1-2-.5v-1l-2,1-2-1-3,1.5h-5.5l-1.5.5,1,2-.5,1.5.5.5-7.5.5.5-7,.5-.5-8-2.5-3-2,.5-1-2-1.5.5-2.5-2-3-2.5-.5.5-2.5-2.5-6-5-3.5-2.5,1.5-4.5-1v-2.5h-.5l6-13.5-7-3,2.5-9.5,1-24.5,2-2-1.5.5,1-2-2,1-1-1,2-1-1-2.5,1.5-.5-.5-1.5-1,1-.5-.5.5-1.5h-2l1.5-.5v-1l-1,.5"/>
      <path data-code="SVE-GRU" d="m102.75,259.75l2.5-4.5,1,1,1-2,1,.5,1-2.5.5,3.5,2,1.5v-1l2.5-2.5,3.5,2.5,1-1h2l1,1.5,5,1,3.5-2.5,2-3.5,3.5,1,.5-1.5,1.5.5v1.5l-.5.5,9,5.5-1,1-1-.5-1,1,4,3-1.5,2,1,.5-1.5,3,2,1.5-3,2-2,3.5,7,4,1-1,6,3.5,6,1.5.5-1,3.5-1-.5.5.5,1h-1.5l-1,1.5v1l1.5-.5v1.5l-2.5,1v1l2.5-1.5-1.5,2,2,1.5-1,.5-1,1.5-.5-1.5h-1l1,3.5-1.5.5v1.5h-1l.5,1.5-.5,2,1.5.5-.5,1,1,.5-.5.5,1,1,1.5-3h.5l1-1-.5,2.5-2.5,3.5h-1.5v1h-2.5l-.5,1-8-2-2,1.5-1-1v-1.5l-.5-.5v-1.5l-2-1.5-.5-2-3,.5-2-3.5-.5-4.5-2-2h-2.5v-2.5l-1-.5-1-2h-2l-.5,1.5-2-1.5-1.5,3-7-5-1,.5-2.5,4-2.5-2-1,1.5-7.5-5,6-9.5,2.5,1-2,4.5,2,1-1.5,3,4,2.5,2.5-4.5,1.5-1.5h2.5l1.5-1.5,4.5.5,1-.5.5-2,2,.5,2-4,2.5,1.5,1-.5,1-2h-1l-.5-1.5,4,1.5.5-.5-1-.5v-1l2-.5,1-.5-2-1.5h-3.5l-3-2.5,1-1.5-4.5-1-1-1-1,1.5-2-1-1.5,2-.5-1,1-2-3-1.5-.5,2-3-2-3,5.5,1,1-3,3.5-12.5-8.5m-11.5,12l.5,1h-.5v-1m12.5,19.5v-.5h.5l-.5,1v-.5"/>
      <path data-code="SVE-BOG" d="m155.75,362.75l.5-1.5,2.5-2-.5-.5,1.5-2,1.5,1v-1h.5l2.5,4,2.5,2.5.5-1.5h2.5l.5,2.5h1l.5-1.5,4,2-1,4,2.5,1.5-.5,1.5,1,1.5h2l.5,1.5,2.5,2,1.5-1,.5.5-.5,1,2,3.5-.5,1.5v2.5l-2,2.5,1,1.5-3,.5-5.5,2.5v1l-1-.5-2,.5-2-1,1-3.5-4-2v-2.5h-2l-2-3,1-.5-6-5,.5-2-1-.5v-1.5l-2-3v-1.5l.5-1h-.5v-1h-1.5l.5-2"/>
      <path data-code="SVE-DEG" d="m98.75,349.25l1-2.5,1.5.5,2.5-3-.5-1,2-1,2,6.5,1.5,1.5.5,3-2.5-1-.5,1-7.5-4"/>
      <path data-code="SVE-LES" d="m132.25,221.75l2.5-4,4.5-7.5,3,.5-.5,1.5,1.5,1,1-1,4.5,1.5v1.5l-3,2,1.5,3-1.5-1-2.5,2-.5-.5-3,5-7.5-4"/>
      <path data-code="SVE-KMU" d="m152.75,388.75l2.5-1,2.5,1.5,3.5-2.5,1-2,1,1-1.5,1-1.5,2.5h-.5v1l-.5.5,1.5,2-1,.5,1,2-.5,1,1,1-1.5.5-.5,2-2.5-1.5-1,2.5h-.5v-1l-1-.5,3-3.5-1.5-2,1-1.5-4-3.5"/>
      <path data-code="SVE-KAR" d="m120.75,147.25l10.5-14.5,3.5,2.5,7-9,3,2,3.5-5,4,3.5,1.5-4v-1l3-1.5,6.5-10,11.5,8.5,1,2-1.5,9.5,4,2.5,1.5-2.5,2.5,1.5-2,3,1,.5-1,2.5-1,2,2,.5,2.5,4h3l-9,16-.5-.5-2,3-12.5-9.5,1-1.5-2.5-2.5-8,10.5-2-1.5-4,7-3.5-3-2,3-1,4-7,3v-2.5l-5.5-2.5-2.5-3.5-1-2.5.5-4v-6l-1.5-3-3-1"/>
      <path data-code="SVE-KTU" d="m175.25,162.75l2-3,.5.5,10-18,1,.5,2-3.5,1.5,1,1-2,3.5,2-3.5,6,3.5,2-2.5,4,1,.5-1,1.5-1-.5-3.5,6-1.5-1-6,9.5-7-5.5"/>
      <path data-code="SVE-KUF" d="m10.25,322.75l6.5.5,1,1.5,1-1,1.5,2,2.5-6,4,.5-2.5,4.5-7.5,4.5-5-2v-3.5l-1.5-1"/>
      <path data-code="SVE-KUR" d="m137.75,241.25l1.5-2.5,2-1v-2.5h1.5l2-6,.5.5.5-1,.5.5,1-1,1,1-.5,1.5h1.5v-1.5l12.5,7,.5-1.5,2,2.5,3.5,2.5,2-.5,1,2.5-.5.5.5,1.5-3.5,2.5-1-.5-1,1.5-.5-.5-1.5,1.5-3.5-.5v1l.5,1-1.5.5,1,1-.5,1-4,2.5h-2.5l-2.5,4,1,.5v2l-3.5-1-1-4h-1l-1,2-7.5-4.5.5-1.5-1-.5,1-1-.5-1,1-1-.5-1,2.5-3-2.5-3.5"/>
      <path data-code="SVE-MAL" d="m154.75,340.75l3-3,2.5,1.5v1l-1.5.5-2,2.5-1-.5v-1.5l-1-.5"/>
      <path data-code="SVE-NTA" d="m91.25,271.75v1h.5l-.5-1m12.5,19.5v.5l.5-1-.5.5m-14.5-49l2-.5.5.5,1.5-.5.5-2.5,3.5-1.5.5.5,1.5-2.5,1,.5,1.5-2,1,.5,1.5-2,2,1.5-2,3,1,.5-.5,1.5,1,.5-2,3.5,7,5-.5,1-.5-.5v2.5l-1.5,3.5-1-.5-1,2-1-1-2.5,4.5,12.5,8.5,3-3.5-1-1,3-5.5,3,2,.5-2,3,1.5-1,2,.5,1,1.5-2,2,1,1-1.5,1,1,4.5,1-1,1.5,3,2.5h3.5l2,1.5-1,.5-2,.5v1l1,.5-.5.5-4-1.5.5,1.5h1l-1,2-1,.5-2.5-1.5-2,4-2-.5-.5,2-1,.5-4.5-.5-1.5,1.5h-2.5l-1.5,1.5-2.5,4.5-4-2.5,1.5-3-2-1,2-4.5-2.5-1-6,9.5,12,6.5-1,1.5-7.5,3,1,1-1,2.5h.5l-2.5,5,2,1.5-1,2-10.5-8.5,1.5-2-1.5-1,1-1.5-4-2.5,1.5-2.5-3-1.5-.5,1-1-1-1.5,2h-.5l-1.5,2.5-1.5,1v-.5l1.5-2-2.5-1,1-1.5h.5l.5-1,.5-.5-2.5-1.5.5-1-5.5-4,5.5-7.5-4.5-2,7-3.5,1,1v-1.5l3.5-5.5-4-3,2-2.5h-2v-4.5h.5l1-4-1-1.5v-1.5"/>
      <path data-code="SVE-NSA" d="m155.25,269.75l2-4,2-.5,3-2.5,3.5-.5,2.5,1.5.5-.5,2,1.5,1-1v-1l1-.5,6-1.5v2.5l-3.5,9-2.5,1.5v2l-1-.5-1,1.5-5-.5-2.5-4-3-1.5-1-.5-.5,1.5-3.5-2"/>
      <path data-code="SVE-PEL" d="m254.75,72.75l5-12,5,2,1-2.5,1,.5,1-2,7,3.5-.5,1.5,9,3.5,11.5,13,3,7.5,1,13.5-5.5,9-1.5,14,2,22.5-9-7h-2l-.5-2.5h1l-1-.5.5-.5-1-.5.5-1.5-2-1,1-1h-2l1.5-.5-.5-2-1.5.5v-1.5l-1,.5.5-1-.5-1,.5-.5v-1l-1,.5v-1l.5-.5h-1.5l1-1.5-1.5.5-.5-1,1-.5v-1.5h.5l-2-1h1v-1.5h1l-1-2,.5-.5-1-.5.5-.5-.5-.5h1.5l-.5-1.5,2,1,1-1.5-.5-.5,1-.5-1,.5-1-.5,1-.5v-1l-1.5.5-2-1-3.5-3.5,1-1.5-3-3,.5-1-6.5-5,2-.5.5-2-3-1,3.5-9.5h-2.5l.5-1.5-1.5-1.5-1.5,1-1-.5-.5-.5,1-.5-1.5-.5.5-2.5h-1.5v.5l-1,.5v-1.5l-2.5.5,1-2-.5-.5.5-.5h-1.5"/>
      <path data-code="SVE-PER" d="m81.75,320.25l3-3.5,1-3.5,4-1.5.5-1,4-1,6.5,4.5,1-1.5.5.5,3.5-6.5h1l1.5-2.5,3.5,2-1.5.5-.5,2.5-1,1.5-1-1.5-1,2-.5,2,.5.5-1,1-.5,1.5-1-.5,1,2.5h1l-1,2,1-.5-.5,1.5.5,2.5-1,1.5-.5-.5-1,1v1l1,.5,1.5-2,2-1,2.5,2-1,2,9,5.5-2.5,5-1-.5-2,3.5,1.5,2-2,4-4-2.5-.5.5v-3l-2.5-1.5-2,.5-2-3,1-2-.5-.5-2-.5-1-1-5.5,4.5-.5,2-2,.5-2-3.5-2.5,1v-1.5l1,.5,2.5-5-.5-1.5.5-.5-1.5.5-1.5-2-1.5.5-1,2-3.5-3,1-1.5-1-.5.5-1.5-1.5-.5,2.5-2-1-3"/>
      <path data-code="SVE-REV" d="m89.25,339.75l2,2,2-.5.5-2,5.5-4.5,1,1,2,.5.5.5-1,2,2,2-.5,1,.5.5,1.5-.5.5,1-2.5.5.5,1-2.5,3-1.5-.5-1,2.5,7.5,4,.5-1,2,.5,1,2-2,3.5-1-.5-.5,1-1-.5.5-1-5.5-3-4.5,5.5-3,.5-1,1.5-.5,1.5-1,.5v2l-.5-.5-3.5,7.5-5.5-3,6-5.5.5-1.5-.5-.5-1,.5-.5-2,1.5-1-.5-1,1-3.5,2-1-.5-1,1.5-1.5v-4l1.5-2.5-1.5-1-1-4.5"/>
      <path data-code="SVE-SRE" d="m121.75,331.25l2.5-.5,1.5,1.5.5,1.5-2,4h-1.5l-1,2h-1l1-.5-1-3,1.5-4-.5-1"/>
      <path data-code="SVE-STU" d="m83.75,302.25l2.5-4,5,4.5,2.5-1,1-6.5,7.5,5-.5,1,6,4-1,1.5h-1l-3.5,6.5-.5-.5-1,1.5-6.5-4.5-4,1-.5,1-1.5.5-1.5-3,.5-1-.5-3.5-3-2.5"/>
      <path data-code="SVE-SUK" d="m159.75,356.75l1-1,1,.5,1-2.5-1-.5.5-1.5,9-13.5h-.5l1.5-1,1,5,1.5-1.5.5-1.5,7,5,1-1.5,2.5,2,1-.5,8,5-2,3-1.5-.5-2.5,3,.5.5-.5,1.5-2,1.5,1.5,2,1-.5-.5,1.5-1.5.5-2,5,.5.5-1,2.5-1.5.5-.5,1-1-.5v1l.5.5h-2l-.5,1h-2l-1-1.5.5-1.5-2.5-1.5,1-4-4-2-.5,1.5h-1l-.5-2.5h-2.5l-.5,1.5-2.5-2.5-2.5-4h-.5v1l-1.5-1"/>
      <path data-code="SVE-VRN" d="m118.75,313.25l2.5-3,4,2.5-1.5,2.5-1-1-.5,1-3.5-2"/>
      <path data-code="SVE-VDB" d="m135.25,358.25h.5v-1l3-.5,2.5-3,1.5.5-2,3.5-2.5.5-1,2-2-2"/>
      <path data-code="SVE-VTA" d="m108.25,301.75l.5-.5,2,1,2-3.5h1.5l2.5,1-.5,1,2,3.5,2,1-3,5-1.5-1-4,6.5-3.5-2v-1.5l1.5-3v-1.5l.5-1,1.5-.5-3.5-2,1-2-1-.5"/>
      <path data-code="SVE-VPI" d="m116.75,332.75l2.5-4.5,2,1,6-10.5,4.5-1.5-.5,1,2-1.5.5-2,6.5,4,1.5-1.5,5.5,4-5,8-2-1.5-3,4.5-1-.5-2,3.5-1.5-.5-2,1,.5,2,.5.5,1.5-1v2h-3.5l-1,1.5-6.5-1,.5-2h1.5l1-1.5,1-3-1-2h-3.5l.5,1-1.5,4,1,3-1,.5-2-1.5v-1l.5-1-1-1,.5-1.5-2-1"/>
      <path data-code="SVE-VTU" d="m128.25,230.75l4.5-4.5,6.5,4.5-1,1.5,1,.5-.5,1,.5,2.5,2-1,.5,2-2.5,1.5-1.5,2.5-1.5-1,1.5-1h-2.5l-7-8.5"/>
      <path data-code="SVE-VTS" d="m152.75,213.75l3-4v-1l9.5,7,2-5.5,1.5,3h.5l2-3,6,3.5,1-3,7,3,2-4,4.5,2.5,1-3,6,2.5,1-2.5,4,2,3,2.5-1.5,2,2,1.5-5.5,8,.5.5.5-1.5,1.5,1.5-2,3,.5,1.5,3.5,2.5h2l1.5,2,8.5.5v2l-2-1.5-.5,1,4,6.5.5-.5-.5-1,.5-1,.5,2.5-1,2.5,5,3.5.5,1h2l1,2.5h-1v2h-.5l-1.5,3-8.5-3.5-4,1-2-1.5-2.5.5.5-3-4-2,.5-1-10.5-7-1,1.5,1.5.5-1.5.5,1.5,1-5,8.5-1-.5-3,3.5-.5-1.5-.5.5-7.5-5.5,1-2-8-6-1-2.5-2,.5-3.5-2.5-2-3.5.5-4,1-2-1-3,1-1.5h-1.5l-.5-.5.5-1-3.5-2.5.5-1.5-6.5-4"/>
      <path data-code="SVE-ZAR" d="m141.75,353.75l2.5-4.5,2,1.5,1.5-2.5.5.5-.5,1,1.5,1-.5,1.5,2.5,1.5,1.5-2,1,1-4,5-.5,1,1.5.5-.5,2-4.5-.5,1,1.5h-.5l.5,1.5-1,1.5,1-.5-1,1.5-3.5-3-.5.5-1.5-.5.5-2.5,1,1-.5,1.5,1-1,.5.5-.5-3h1l-2.5-2,2-3.5-1-.5"/>
      <path data-code="SVE-ZSV" d="m144.75,258.25l1-2h1l1,4,3.5,1v-2h1l.5-1,3.5.5,2-3.5,3.5-.5,2.5,3v1l-.5,1-1.5-1-.5,1.5-1-1-1.5,2-11.5,6h-1.5l.5-1-1-.5,1.5-2-4-3,1-1,1,.5,1-1-1.5-1"/>
      <path data-code="SVE-IRM" d="m219.25,326.25l2,2.5h2v-1l1,.5,1.5-1.5-.5-.5h1.5l2-2.5-.5-3-1.5-.5.5,1.5-2,.5-1.5,2.5-4.5,1.5m-24.5-13l1.5.5,2.5-2h-.5l.5-.5,6.5,2.5.5-1v1l.5.5,1.5-2.5h2.5l-.5-3,4-7,2.5.5.5-1v-1l.5-2,2.5-1v-1h1l.5-1.5,6.5,4.5-.5.5.5,2h2.5l1,1h-1l.5,1,4,2-1,1,2,2,4.5,1.5v1l-3,1-1,1,.5,1,3.5-1.5,2.5,3v1.5l-1,.5h.5l1-.5v-1l3-.5,2.5-1.5,2,.5-.5,2.5-3.5.5,1.5,2-4,6,2-.5-.5,1-1.5.5,1.5,2-3,2.5-1.5,3.5v.5l-5-2-2.5,4.5h-1.5v2.5l2,.5-1.5.5-2.5-3,.5,1.5-.5,1.5h-1l-2-1v1.5h-3.5l-2,3h-2.5l-1,1,.5.5-1.5-.5v-1.5l-2-1.5-1,1.5,1,1-1,2.5h.5l-.5,1h-1.5l-3.5,3v-1l-2.5.5-.5-1-1,2.5-2,1-2-.5v-2.5l-.5-.5-1.5,1.5.5,2-1.5-2.5-3.5-1.5v-1l-4-2,3.5-6.5,3.5,1v-1l3-2-4.5-2.5.5-2.5-.5-4.5,3.5,1.5,1.5-1,1,.5,1-1.5-1-.5.5-1-3-2.5,1.5-1,.5-4-4-2,.5-1.5-3.5-1.5v-1"/>
      <path data-code="SVE-IVD" d="m196.75,42.25l1.5-3.5,2.5-.5v-1.5l3-2,1.5.5,1.5-1-.5-3.5,2-1,1-1.5-1-2,2.5-4.5-1-2.5.5-2.5h.5v-1.5l4-3-2-3.5v-1l2.5-3.5,2.5-1,.5-1.5,3.5-1.5,1,1,2,.5.5,2,3,.5,6.5,6-1,2-1.5,1-1,2.5v1l-1,1.5.5,3,16,5,13.5,8.5,5.5,4,13.5,20.5,1.5,2.5-.5,2,3,3.5-9-3.5.5-1.5-7-3.5-1,2-1-.5-1,2.5-5-2-5,12h1.5l-.5.5.5.5-1,1.5h2.5v1.5l1-.5v-.5h1.5l-.5,2.5,1.5.5-1,.5.5.5,1,.5,1.5-1,1.5,1.5-.5,1.5h2.5l-3.5,9.5,3,1-.5,2-2,.5,6.5,5-.5,1,3,3-1,1.5,3.5,3.5,2,1,1.5-.5v1l-1,.5h2l-1,.5.5.5-1,1.5-2-1,.5,1.5h-1.5l.5.5-.5.5,1,.5-.5.5,1,2h-1v1.5h-.5l1.5,1h-.5v1.5l-1,.5.5,1,1.5-.5-1,1.5h1.5l-.5.5v1l1-.5v1l-.5.5.5,1-.5,1,1-.5v1.5l1.5-.5.5,2-1.5.5h2l-1,1,2,1-.5,1.5,1.5,1.5-1,.5-13.5-10v1l-6.5-4-6,6h-.5l-3,5-1-.5-1.5,2-1-.5-2,3-5.5-3.5-5.5,9h-1.5v-1.5h-1l1.5-1-1,.5-.5-1,.5-1v-1l-2-1-1-2.5-3-.5-13-9.5-6,9-13.5-7.5,7.5-12.5v-2.5h-1l.5-1-2.5,2,.5-2.5h1l5-8-1.5-1,4.5-6.5-23-15.5,1.5-2v-1.5l4-4.5v-1l2.5-6-2.5-1.5v-2l1.5-3.5v-2l1-1-.5-1,1-1.5.5-3.5-.5-1,1.5-4v-2.5"/>
      <path data-code="SVE-KAC" d="m128.75,207.25l2.5-1.5.5,1,5.5-3,.5.5.5-1.5,5,3.5-1,1,1,1-1,2.5-3-.5-4.5,7.5-2.5,4-2.5-1.5.5-2.5,2.5-5,.5-3-3-.5-1.5-2"/>
      <path data-code="SVE-KME" d="m152.75,388.75l4,3.5-1,1.5,1.5,2-3,3.5,1,.5v1h.5l1-2.5,2.5,1.5.5-2,1.5-.5-1-1,.5-1-1-2,1-.5-1.5-2,.5-.5v-1h.5l1.5-2.5,1.5-1-1-1-1,2-3.5,2.5-2.5-1.5-2.5,1m-22.5-10.5l1-.5,2,2,2-1,2,2,.5-1,2.5-1,2,1,2-1.5,1,1,.5-2.5.5.5,2-2,2,1-.5-1,1.5-1.5v-1.5l1.5,1,2.5-1,.5,2,2-.5.5-1.5,1.5,1-.5,2,6,5-1,.5,2,3h2v2.5l4,2-1,3.5,2,1,2-.5,1,.5-1,.5-1,1.5-1-1-2,2-2,1-2,4,.5.5-4,1.5-1.5,1.5-2.5-2.5-1.5,3v2l-2.5,5.5-6.5-5.5,2-1.5v-1l-1-2-2,.5v-3.5l-.5-.5.5-.5-1.5-3-1.5-1-2.5,2,.5-2h-1l-2-4.5-5.5,1,.5-1.5-2-.5-2-2.5-1-3,1-1-1-1.5,1-1.5-1-1"/>
      <path data-code="SVE-KMI" d="m191.75,374.25l1-1h1.5l-1.5-.5h1.5l1.5-1,.5,2,2.5.5-1.5,3-4.5-1.5-1-1.5"/>
      <path data-code="SVE-KMM" d="m191.75,374.25l1,1.5,4.5,1.5,1.5-3-2.5-.5-.5-2-1.5,1h-1.5l1.5.5h-1.5l-1,1m-12-1l.5-1h2l-.5-1.5,1,.5.5-1,1.5-.5,1-2.5-.5-.5,2-5,1.5-.5.5-1.5-1,.5-1.5-2,2-1.5.5-1.5-.5-.5,2.5-3,1.5.5,2-2.5,3.5,1.5,1.5,2.5-.5-2,1.5-1.5.5.5-.5,1.5,1,1.5,3.5-1,1-2.5.5,1h3.5v1l-1.5-.5-1,3.5-.5.5,3,2-1,1-1,4-2,2v2l2,1-.5,1,2.5,1-1,4-4.5-1-.5,3.5-2,3.5.5,2-2,2.5,1,2-4,8-2.5-1.5-2,2.5-4-2.5-2,3.5-2-1.5-1,2-1.5-1,.5-3,1-1-.5-1.5-2.5-1,3.5-.5-1-1.5,2-2.5v-2.5l.5-1.5-1-.5-1-4.5-1.5,1-2-1-1-2.5"/>
      <path data-code="SVE-KIR" d="m108.75,293.25l7.5-3,1-1.5-1-1,2.5-4,8,4.5-4,2.5,1,.5,1,3.5-2,2,1.5.5.5,1.5-1.5,2,1,2-.5,2.5,3,2-2.5,4.5-3-1.5v-1.5l-2.5-.5,1.5-3-2-1-2-3.5.5-1-2.5-1h-1.5l-2,3.5-2-1-.5.5,1,.5-.5,1-2-1.5,2.5-5h-.5l1-2.5-1-1"/>
      <path data-code="SVE-KUS" d="m105.25,233.75l1.5-2.5,6.5,4-.5-2,2.5,1.5,1.5-3,2.5.5v-1l3-4.5,3.5,1,3.5-2.5.5-5,8.5,5,.5-.5,1,1,1-1,2,3.5,2,1-2,6-3.5,1-.5-2.5.5-1-1-.5,1-1.5-6.5-4.5-4.5,4.5,7,8.5h2.5l-1.5,1,4,4.5-2.5,3,.5,1-1,1,.5,1-1.5.5-.5,1.5-3.5-1-2,3.5-3.5,2.5-5-1-1-1.5h-2l-1,1-3.5-2.5-2.5,2.5v1l-1.5-.5-1-4.5,1-2.5-.5-.5,1-1-7-5,2-3.5-1-.5.5-1.5-1-.5,2-3-1-.5"/>
      <path data-code="SVE-MAK" d="m243.25,223.6l2.5.15,2,3-.5,2.5,2,1.5-.5,1,3,2,8,2.5-.5.5-.5,7,2.5-.15-4.5,12-1-.5-3,4,.5.5-.5,1-.5-.5-1.5,2.5.5,2-1,.5.5,1.5-4.5,1-.5-2-5,.5-3,5.5h-2l-1.5,2.5-4-1.5-2.5,4-.5,2.15-11-4.5-2,4.5-8-2,.5-1.5-2.5-1-1,2.5-5.5-3h-3.5l-2-2-1,.5-2.5-2,1.5-7.5-4-2-2,2-5.5.5v-2.5l-1,.3v-.95h1v-1l.5.5,1-.5v-1l1,.5,2.5-3,1,.5,1-1.35.5,1.5,3-3.5,1,.5,5-8.5-1.5-1,1.5-.5-1.5-.5,1-1.5,10.5,7-.5,1,4,2-.5,3,2.5-.5,2,1.5,4-1,8.5,3.5,1.5-3h.5v-2h1l.5,4.85,1.5,1.5,1-1-1.5-1,1.5-3.5.5-5,1.5-2.5h2l2.5-3,2-5-.5-4.5,3.5-7-1-1.5,1.5-1.5Z"/>
      <path data-code="SVE-ALA" d="m162.75,288.25l1.5-1,1.5.5v-1l2.5-1.5,2.5,3,3-4.5,4.5,2.5-1.5,1.5,1.5,1,1.5-3,7.5,5h-1.5v2l1-.5.5,2.5,1-.5.5.5-.5.5v.5l2,1.5v1.5l1-.5.5.5-2,3-3.5-.5-1.5.5v1l-3,.5-2.5-2v1l-1,3h-.5v-3l-2.5-.5-.5.5.5,3-1,1-3.5-1.5,1-.5v-1.5l.5-.5-1.5-2.5-4.5,2.5h-1l1-1v-1l-1,1h-.5l-1.5,3-1.5-2,.5-1-1.5-.5.5-2-.5-1.5h1v-1.5l1.5-.5-1-3.5h1l.5,1.5,1-1.5,1-.5-2-1.5,1.5-2h-.5l-1.5,1.5-.5-1"/>
      <path data-code="SVE-EKB" d="m103.25,341.75h3.5l1.5,1-.5,3,1-.5,4,2.5,2-4-1.5-2,2-3.5,1,.5,2-3.5,1,1-.5,1,1,2.5,4-.5,5,1.5,1-1.5,1-.5,1,2,1-.5v1l-2,.5v2l-1,1v2l6,5-3,4.5-1.5.5-1,1.5,1,1-1,.5-3-4.5-1,.5-1.5.5.5,2.5h2-1.5l-.5-.5-3.5.5-.5,1.5-1.5-.5-.5,1,.5,1-.5.5-2-.5-.5-1.5-2,1-2-2,1-.5-1-1.5v-.5h1l.5-1h-4.5l-1-5.5-3.5-6.5v-2h-2"/>
      <path data-code="SVE-IRB" d="m219.25,325.25l4.5-1.5,1.5-2.5,2-.5-.5-1.5,1.5.5.5,3-2,2.5h-1.5l.5.5-1.5,1.5-1-.5v1h-2l-2-2.5"/>
      <path data-code="SVE-KRU" d="m10.25,322.75l1.5,1v3.5l5,2,7.5-4.5,2.5-4.5-4-.5-2.5,6-1.5-2-1,1-1-1.5-6.5-.5m2.5-23l2.5-2.5,4-1,.5-1,.5,1.5,1.5-.5v3l3,2.5v2.5l1.5.5,1.5,4,1,.5,1-1,1,1.5-1,.5v1l-.5,2,.5,2.5,4.5,3,.5,2-1.5.5v1.5l5.5,1.5v2l-3,2v1l.5.5-1,1.5h-2l.5,1h-1v1l-1,.5-1-1.5-3,1,1,1.5-.5,1.5.5.5-.5,1-.5,4.5-1,.5v3l-2.5,4-2,.5,1.5,4-1.5,1.5-.5,2.5-1.5,1-5.5-1.5-.5-1,.5-.5-1-2-5-.5-1-1-2.5,2h-2l-2-2-1-2,3-5-1.5-5,1-2,1.5-1v-4.5l-2-1v-1.5l3-2.5.5-2,2.5-3.5h.5l2.5-2.5.5-2-1,.5-1.5-1.5,5-3-3-2,.5-1-.5-1.5,2-1.5-1-4.5,1-2.5-.5-1.5"/>
      <path data-code="SVE-ZUR" d="m135.75,363.25l1-.5.5,2.5-1.5-1v-1"/>
      <path data-code="SVE-NEV" d="m122.75,291.1l4-2.5,1.5-3,2,1.5.5-1.5,2-.5,1,2.5h1v2.5l2.5.5,2,2,.5,4.5,2,3.5,3-.5.5,2,2,1v2h.5v2l-2,3.5,1.5,2-2,.5h1l.5,2-6.5,4-6.5-4.5-.5,2-2,2v-1.5l-4,2-6,10.5-2-1-2.5,4.5-7-4.5,1-2-1.5-1,1-2,1.5,1,1-1,1.5,1,1.5-5,3.5-.5,2.5-4h2l1-2.5-1-.5,2.5-4.5-3-2.5,1-2-1-2.5,1.5-1.5-.5-1.5-1.5-.5,2-2.5-1-3-1-.5"/>
      <path data-code="SVE-NSE" d="m51.25,318.6l8.5-12.5,7,1-6,12.5,4,3.5-4.5,10.5,1.5,1-.5,1.5,1.5,1-2.5,4.5,4,2.5,2-4,3.5,1,1.5-3-.5-.5.5-2,1,.5.5-1.5,6,3,3-7.5,2.5,2.5,1.5-2,1.5-1,1.5,2.5,1.5-1-.5,1,.5,1.5-2.5,5-1-.5v1h3l-.5.5,1,5,1.5,1-1.5,2.5v3.5l-1.5,2,.5,1-2.5.5-.5,4v1l-1,1,.5,1.5h1.5l-.5,1.5-6,5-10-5v1l-4.5-2,.5-1-1.5-2h-2.5l-.5,1-.5-.5-.5,1h1l-.5.5.5,1.5v2l-2.5,2-.5,2-5-2v-3l-4.5-2.5v-1l.5-.5-.5-1,3,.5,1-1.5-1.5-1,.5-1-2-1.5,10.5-17.5-6-3v2l-1,.5v-1.5l-2.5-2,2.5-3.5-4.5-2,1-1v-1.5l.5-.5-1-2.5h1.5l.5-1,.5.5,1-1-2.5-2.5"/>
      <path data-code="SVE-NTU" d="m128.25,193.1l3,.5,2.5-2,4,1.5,7,5,3-2,1.5,1.5,3.5-5,4,.5-.5,3,2,2.5v2l-1.5-.5-1,2.5,2,1.5-3,4,1,1.5-3,4,6.5,4.5-1,1,4,3-.5,1,.5.5,1-.5-.5,2,.5,3-1,3.5-.5,5-13-7.5.5,1.5h-1.5l.5-1-1-1.5-1,1-.5-.5-.5,1-2.5-1-1-2.5-1.5-.5,2-4.5,1,.5,2.5-2,1.5,1-1.5-3,3-2v-1.5l-2-1.5-1,1-1.5-1.5-1,1-1.5-1,1.5-3.5-1-1,1-1-5-3.5-.5,1.5-.5-1-5.5,3.5-.5-1-2.5,1-3-1,1.5-4-1.5-.5,1-4.5,1.5-4"/>
      <path data-code="SVE-NVL" d="m133.75,172.1l6.5-2.5,1.5-4,2-3,3,2.5,4.5-6.5,2,1.5,8-11,2.5,3-1,1.5,20,15.5.5,2-1,2.5,2,1-3.5,5.5,11.5,8-4,5.5,1,.5-1,1,6.5,2-.5,3,3.5.5.5.5-1.5,3,1-.5,1,1h-1l-2.5-1.5-3.5,9-4.5-2-2,4-7-3-1,2.5-6-3-2,3h-.5l-2-3-1.5,5-10.5-7.5,3-4-2-1.5,1-2.5,1.5.5v-2l-2-2.5.5-3-4-.5-3.5,5-1.5-1.5-3,2-7-5-4-1.5-2.5-4.5,7.5-8.5-5-6.5"/>
      <path data-code="SVE-NVU" d="m103.75,316.1l1.5.5.5-1.5,1-1.5h-.5l.5-2.5,1-1.5,1,1.5-1,1,.5,1.5,3.5,2,3.5-6.5,2,1.5,1-2,3,.5-.5,1.5-1.5,1.5-.5,1.5,3,1.5-2.5,4-3.5.5-1.5,5-1.5-1-1,1-1.5-1-.5,2-2-1-3.5,3-.5-2,1-1,.5,1,1-1.5-.5-2.5.5-1.5h-1l1-2h-1l-1.5-2"/>
      <path data-code="SVE-POL" d="m76.25,373.1l4-3.5,6,3,3.5-7h.5v-1.5l1-.5.5-2,1-1.5h3l4.5-5.5,5,3-.5.5,1.5.5.5-.5,1,.5,2-4,1,1.5h3.5l-.5,1h-1v1.5l1,.5-1,.5,3.5,3.5-2.5,4.5-3-1-5,9,1,.5-4.5,9-4.5-2-2.5,1-2-2-5.5-2.5-2-3.5-1.5-1-4.5,1-3.5-3"/>
      <path data-code="SVE-PYS" d="m206.75,356.1l1-1,1-3.5,1,.5,1-1-.5-.5,1-.5,2.5,5,1-1,1.5,1-.5,1.5,2,2.5.5-1,1,2,2-2,1,.5-1,.5v1.5l2,2.5-1,1.5v2.5l-.5.5,1.5,4-1,2,.5,1.5-3,3-.5,4.5v1l3,1.5-3,5.5-1,1.5-2,.5v1l-1.5,1-2.5,5-2,2-1,3.5h-.5l.5-1.5-1.5-1,1-3-3-.5-1-1,.5-1-.5-.5-1.5,1,.5-1.5-1.5,1.5-4-4,1-3,2.5-4.5-1-1.5,2-2.5-1-2.5,2.5-3v-3.5l4.5.5,1.5-4-2.5-.5v-1.5l-2-.5.5-2.5,2-1.5.5-4,1-1-3-2"/>
      <path data-code="SVE-REF" d="m164.95,344.5l1.5-1,.5,1-1,1,.5.5-.5.5-1-2"/>
      <path data-code="SVE-REZ" d="m141.75,317.6l5-2.5-.5-2h-1l2-.5-1.5-2,2-3.5,1,1,2-1.5,7.5,2,.5-1,3-.5v-.5l1-.5,2-2,.5-2,6-2,1,2.5-.5.5v1l-1,.5,3,2,1.5-1-.5,1-1,1,1,2-1,2.5.5,2.5-.5,1v3h-1.5l-1.5,1,.5,3.5-1.5.5-3,3.5,2.5,5v1l.5.5v2.5l-5-3.5-2,3.5-5-3-1.5,2-5.5-3-7-5,3.5-6-5.5-3.5"/>
      <path data-code="SVE-SER" d="m193.25,133.1l2.5-4.5,13,7.5,6.5-9,13,9.5,3,.5,1,2.5,2,.5v1.5l-.5.5.5,1h1l-1.5.5,1,.5v1.5l-6,2.5,1.5-.5v1h-1.5l2,.5-.5,1.5v.5l1.5-1.5.5,2-1.5.5,1,2.5-2,1,1,1,1.5-1-.5,2,1.5-1-2,2.5-1,24-2.5,10-5.5-4-2,3.5-2-1.5-2.5,3-6.5-3.5-1.5,1.5.5.5-1,2.5-7.5-1.5-2,7-3.5-.5.5-3-1-.5-1,.5-4.5-2,1-1-1-.5,4-5.5-11.5-8,3.5-5.5-2-1,1-2.5-1-2.5,6-9.5,1.5.5,3.5-5.5,1,.5,1-1.5-1-.5,2.5-4.5-3.5-2,3.5-6-1-.5.5-1.5,1,1,2-3-6-3"/>
      <path data-code="SVE-SEV" d="m163.25,110.6l2-2,2.5-4.5,1-1-.5-2,2.5-1.5,3-4v-.5l2-2,4.5-1.5,5-6.5,1.5-4,23,15-4.5,7,1.5,1-5,8h-.5l-.5,1-.5,1,.5.5,1-1v-.5l1-.5-.5,1h.5l.5,2.5-10,17-7-4.5-.5,1-4-2-3.5,5.5-4-2.5,1.5-9.5-1.5-2-11-8.5"/>
      <path data-code="SVE-SHL" d="m48.25,281.6l1.5-.5-1-1,7-9.5-1.5-1,2-3.5,2-.5,1.5-3,1,.5-.5,1,.5.5h1.5l-.5-1.5,1.5-1.5v-1.5l2.5-1.5v1.5l9,4v1l-1-.5.5,2.5-1.5,3,1.5,2.5,7-3.5,4.5,2-5.5,7.5,5.5,3.5-1,1.5,2.5,1.5-.5.5v1h-1l-.5,1.5,2,.5-1,2.5v.5l1.5-1,1-3,1,.5.5-1.5h2l.5-1,3,2-1.5,2.5,4,2-1,2,1.5,1-1.5,2-3-1.5-.5,6.5-2.5,1-5-4.5-2.5,4,3,2.5.5,3-1,1.5,2,2.5-2.5,1.5-1,3-1,1h-1.5l-1-.5.5-.5.5-1.5-.5-3.5-13-6-.5,1.5-8.5-1-1.5-3-1,.5-1.5,1.5-2.5-4.5-1.5-.5v-1.5l-2.5-.5-1,1.5-2-1,1.5-2-1.5-2,3,.5.5-1-2.5-2,1.5-2.5-1.5-.5v-1.5l1,.5,2-2-1-.5,1-1.5-2-2.5"/>
      <path data-code="SVE-SLO" d="m255.25,328.6l4-3,2.5.5v-3l.5-1.5,1.5.5v-1l4,.5,5,6.5,2.5.5-.5,1,1.5.5,2,1h5v2l1.5,1.5-1,1.5,5.5,2.5-2,7-2,.5.5.5-.5,1.5h1.5l-.5,2.5,2.5-.5v3h-2.5l-3.5,6.5-1.5-.5-.5,5-1,1,.5,2.5-2-1-.5,1.5-7.5-3-.5-2,1-1.5-1-1h1l-2.5-1.5-4,.5-2.5-1v-1.5h-1v-1l-5,.5-.5-1-2-.5,1-2.5h1.5v-.5h.5l.5-1.5-2-2,5-2-2.5-2.5,1.5-1h-1.5v-1l4,1-.5-1,.5-3-1.5-1v-1l-1-1-2.5-1-1-3,1-1-1-2.5"/>
      <path data-code="SVE-SOS" d="m192.75,209.6l2.5-6.5,2.5,1.5h1l-2-.5,3-10.5,7.5,1.5,1-2.5-.5-.5,1.5-1.5,6.5,3.5,2.5-3,2,1.5,2-3.5,5.5,4,7,3-6,13,.5.5v2.5l4.5,1,2-1.5,5.5,3.5,2.5,6-.5,2.5-1.5,1.5,1,1.5-3.5,7,.5,4.5-2,5-2.5,3h-2l-1.5,2.5-.5,5-1.5,3.5,1.5,1-1,1-1.5-1.5-.5-4.5-1-2.5h-2l-.5-1.5-5-3.5,1-2-.5-3-.5,1.5.5,1-.5.5-4.5-6.5.5-1,2,1v-2h-8l-1.5-2h-2l-4-3-.5-1,2.5-3-1.5-1.5-.5,1h-.5l5-8-2-1.5,2-2.5-7-4-1,2.5-6-2.5"/>
      <path data-code="SVE-SYS" d="m105.75,375.6l5-9,3,1,2.5-4.5-2-2,2.5-.5.5,1.5,2,.5.5-1-.5-.5.5-1.5,1,1,1-2,3-.5.5.5.5.5h1.5l-2-.5-.5-2.5,1-.5h1.5l1,2.5-1,1h-.5l.5,1-.5,2,2.5,1,2-3,3.5,4,.5-1,2.5,4.5h-.5l-1,2.5h-1l-1,2,.5.5-4,4,.5,3-1,1.5.5,1.5-.5.5,1,1.5-1,1.5-2.5.5-.5,1,1,3.5-.5,5-3.5,1-1.5-2-1.5.5-3.5-4-4-1.5.5-1-2-1.5-2.5,1,3.5-5.5-3.5-2-3,6-1.5-1.5-1.5.5-1.5-1,4.5-9-1-.5"/>
      <path data-code="SVE-TAB" d="m256.75,255.6l4.5-12h5l-.5-.5.5-1.5-1-2,1-1,6,.5,3-1.5,2,1,1.5-1.5.5,1.5,2,.5-1,1,1,1-1,.5,1.5,2,1-.5-1-4,.5-2-.5-1,19.5-13,12,4,17,11-.5,4,.5,1.5-.5,1.5,3.5,2-1,13-1.5,8.5,4,19.5-2.5,1.5-9-3.5-1,2.5-4.5,1-1.5-2.5-9,14-1-.5-2,1-1.5-1-.5,1,.5.5-2,.5,1,1.5,1.5-1,1.5.5h-1.5v3l-1.5,1.5-6.5-2.5-2.5,2v1.5l-1.5,1.5-2-2,1.5-1.5-8.5-1.5.5-1.5-1.5-1,1-1.5-2.5-1,2-2-2-1,1-2-5-2,4-10-2.5-.5,1.5-5.5-8-2.5-4.5-4.5-2-5.5-5-8-2.5-1.5"/>
      <path data-code="SVE-TAL" d="m211.25,350.1l1.5-1,9.5,1-.5-1h1l.5-1,1,1.5-1,.5,5.5,2,.5,2.5,2-2,1.5-.5,6,8.5,5,1,2-.5v-1.5l2.5-.5,1-1.5,1,.5,2,5-1,1v2.5l4.5,2.5,1,3h-5l-1,2.5v1l-2.5,2.5-.5-2.5-1.5,1v1.5l1.5,2.5,3,1.5-.5,1.5h-1.5l-1.5,3.5-1-.5-.5,3-3,1,2.5,1,1.5-1.5-1,1.5.5,1-2.5-.5v1h2.5l-2,2,.5,1-2.5,1,1.5,1,.5,1.5h1.5l1,2.5-1.5.5,1.5,2-1,2-1.5-.5v2l-1.5.5h-4l-1,2,1.5,2-1.5,3-2,1.5-4.5-2.5,1-1-1-.5-1.5,1.5-5.5-3-2-3.5.5-1.5-2,.5-2.5-3.5.5-2-1-1-2-2h-.5l-.5,1-2-2,2-3,1.5-1v-1l2-.5,4-7-3-1.5v-1l.5-4.5,3-3-.5-1.5,1-2-1.5-4,.5-.5v-2.5l1-1.5-2-2.5v-1.5l1-.5-1-.5-2,2-1-2-.5,1-2-2.5.5-1.5-1.5-1-1,1-2.5-5"/>
      <path data-code="SVE-TAV" d="m288.75,306.1l2,1-1.5,1.5,2,2,1.5-1.5v-1.5l2.5-2,6.5,2.5,1.5-1.5v-3h1.5l-1.5-.5-1.5,1-1-1.5,2-.5-.5-.5.5-1,1.5,1,2-1,1,.5,9-14,1.5,2.5,4.5-1,1-2.5,9,3.5,2.5-1.5,9,6-6.5,25,1,17.5-5.5-.5v1l-2.5.5v1.5l-5.5-1-2.5,3.5-1-2-2.5-1-2,2.5,1,1.5-3,2.5-1-.5.5,1-3,.5-1,1.5-.5-.5v-1.5l-1-.5v-5l-21.5,5.5,2-7-5.5-2.5,1-1.5-1.5-1.5v-2h-3l8.5-25"/>
      <path data-code="SVE-TUG" d="m252.75,357.6l7-.5.5-1,1.5,2.5,2.5,1,4-.5,2.5,1.5h-1l1,1-1,1.5.5,2,7.5,3-1,1.5,1.5,1.5,2.5-.5-1.5,1.5,2.5,3.5-3.5,4.5v3.5h-.5l-.5,2.5v2l-.5,1.5,1,2.5-1-.5-1,1.5,1,.5-.5,1.5h1l-1.5,3,1.5,1.5,1-1,4.5.5-3,4.5-.5-.5-2.5,5.5-8.5-3.5-1.5-2,1.5-2-1.5-1.5-1,1h-2l-2.5-1-3,.5-2-1.5-3,3.5-5.5-3-2,1-1.5-.5-.5-1.5-1.5-1,2.5-1-.5-1,2-2h-2.5v-1l2.5.5-.5-1,1-1.5-1.5,1.5-2.5-1,3-1,.5-3,1,.5,1.5-3.5h1.5l.5-1.5-3-1.5-1.5-2.5v-1.5l1.5-1,.5,2.5,2.5-2.5v-1l1-2.5h5l-1-3-4.5-2.5v-2.5l1-1-.5-1.5,1-2.5v-1.5"/>
      <path data-code="SVE-TUR" d="m227.75,276.6l2.5-4,4.5,2-.5-.5,1.5-2.5h2l3-5.5,5-.5.5,2,4.5-1-.5-1.5,1-.5-.5-2,1.5-2.5.5.5.5-1-.5-.5,3-4,3.5,2,5,8,2,5.5,4.5,4.5,8,2.5-1.5,5.5,2.5.5-4,10,5,2-1,2,2,1-2,2,2.5,1-1,1.5,1.5,1-.5,1.5,2,1,4.5-.5-8.5,25h-2l-3.5-1.5.5-1-2.5-.5-5-6.5-4-.5v1l-1.5-.5-.5,1.5v3l-2.5-.5-3,2v-2l-2-1-2.5,1v-1l-3,1-.5-1.5h1.5l.5-1-2-1.5-2,1,1.5-2.5-1-2.5,3,.5.5-.5.5-2.5-2-.5-2.5,1.5-3.5.5v.5l-.5,1-.5-.5.5-.5.5-1-2.5-3-3.5,1.5-.5-1,.5-1,3.5-1v-1l-4.5-1.5-2.5-2,1.5-1.5-4-1.5-.5-1,1-.5-1-1h-2.5l-.5-1.5.5-.5-6.5-5,6.5-17.5v-.5"/>
      <path data-code="SVE-VSA" d="m142.25,276.1l2-3,3-2.5-2-1.5,1-2h1.5l11.5-5.5,1-2,1.5.5.5-1,1,1,1-1v-1l-2.5-3h-2.5l-1,.5-2,3.5h-6l2.5-4,2.5-.5,4-2.5.5-1-1-.5,1.5-1-1-.5.5-1,3.5.5,1.5-1.5.5.5,1-2,.5,1,1.5-.5,2.5-2-.5-1.5.5-.5,8,6-1,2,7,6-1-.5-1.5,2-1,1-1-.5v1l-1,.5-.5-.5v1h-1v1.5l-5,.5-1,1-.5,1-.5.5-2-1-.5.5-2.5-1.5h-3.5l-3,3-2,.5-2,4,3.5,1.5.5-1h1l2.5,2,3,4-5.5,7.5-4-1-3.5-2.5-3-1-.5,1-7-4.5"/>
      <path data-code="SVE-VOL" d="m179.75,130.6l2-3,4,2,.5-1,13,7.5-2,3-1-1-.5,1.5-2.5-1.5-1,2-1.5-.5-2,3.5-1-1-1.5,2.5h-2.5l-3-4-1.5-1,.5-2,1.5-2-1-.5,1.5-3.5-2-1"/>
</svg>