<svg data-code="_Слой_2" xmlns="http://www.w3.org/2000/svg" viewBox="0 0 344.75 418.11">
    <g data-code="sverdlovskaja_oblast_" data-title="sverdlovskaja_oblast&amp;apos;">
      <path data-code="aramil_skij_gorodskoj_okrug" data-title="aramil&amp;apos;skij_gorodskoj_okrug" class="cls-1" d="M127.12,359.12l2-1,1.5,2h2.5v1.5l-1.5-1.5-2,3-2-1v-1.5l-.5-1.5"/>
      <path data-code="achitskij_gorodskoj_okrug" data-title="achitskij gorodskoj okrug" class="cls-1" d="M25.12,302.12l1.5-.5,2,1,1-.5v-1.5l1.5-.5,1.5,1.5,2-1.5v-1l1,2.5,1-1v-2h1l.5-1.5,1.5-.5,2.5,1,1-1.5,2,1-.5,1h-2.5l1.5.5.5,1,2.5-1,2,1,1-1.5h1.5l5,5.5.5,2,1-2h1.5l1,2.5-8,12.5,2,2.5-.5,1-1-.5v1h-1.5l.5,3h-.5v1.5l-.5,1,2,1.5-1.5,1.5-1.5,1.5v1.5l-1.5.5-.5,1.5-1.5,1-2-1.5-2.5.5-1.5-2-1,.5-.5-1,.5-1-2,.5v-2l-1-.5.5-.5-.5-.5v-1l3-2v-2l-5.5-1.5v-1.5l1.5-.5-.5-2-4.5-3-.5-2.5.5-2v-1l1-.5-1-1.5-1,1-1-.5-1.5-4-1.5-.5v-2.5"/>
      <path data-code="alapaevskoe_municipal_noe_obrazovanie" data-title="alapaevskoe_municipal&amp;apos;noe_obrazovanie" class="cls-1" d="M160.62,284.12l2-2,3-5.5,5.5.5,1-1.5,1,.5v-2l2.5-1.5,1.5-2.5,2-6.5,5.5-.5,2-2,4,2-1.5,7.5,2.5,2,1-.5,2,2h3.5l5.5,3,1-2.5,2.5,1-.5,1.5,8,2,2-4.5,11,4.5-6,17-4,2.5-.5,2v1l-.5,1-2.5-.5-4,7,.5,3h-2.5l-1.5,2.5-.5-.5v-1l-.5,1-7-2.5.5.5-2.5,2-2-.5-1.5,2-1.5.5-2.5,3.5-.5-1.5-.5,1-3.5-2-1,1.5-1.5,1-3.5-1.5-3-2-1.5-3.5,1.5-3-1.5-2,1.5-.5v-1.5l-.5-3h3v3h.5l1-3v-1l1.5,2h2.5l1.5-.5v-1l1.5-.5,3.5.5,2-2.5v-.5l-.5-.5-1,.5v-2l-2-1v-.5l.5-.5-.5-.5-1,.5-.5-2.5-1,.5v-2h1.5l-7.5-5-1.5,3-1.5-1,1.5-1.5-4.5-2.5-3,4.5-2.5-3-2.5,1.5v1l-.5-.5v-1.5l-1.5.5v-1l1-1.5h1.5v-2l-3.5,1.5-.5,1-2-.5"/>
      <path data-code="artinskij_gorodskoj_okrug" data-title="artinskij gorodskoj okrug" class="cls-1" d="M28.12,333.62l3-1,1,1.5,1-.5v-1h1l-.5-1,3.5-.5.5,2.5,1.5-1-.5,1,.5,1,1-.5,1.5,2,2.5-.5,2,1.5,1.5-1,.5-1.5,1.5-.5v-1.5l1.5-1.5,2.5-1.5,1,.5-2.5,4,3,1.5v1.5h.5v-2l6,2.5-10.5,17.5,2,1.5-.5,1.5,1.5,1-1,1-3-.5.5,1-.5.5v1l4.5,2.5v5.5l-1.5,2.5-4,3h-2.5v-1.5l-2-.5.5-1-3.5-1,.5-2.5-2.5-1.5-1.5-4.5-1.5-.5-2.5,2.5-2-.5-2,2-1.5-1,1.5-1.5v-.5l-4-.5-2-3.5-2-1,.5-2.5,1.5-1.5-1.5-4,2-.5,2.5-4v-3l1-.5.5-4.5.5-1-.5-.5.5-1.5-1-1.5"/>
      <path data-code="artjomovskij_gorodskoj_okrug" data-title="artjomovskij gorodskoj okrug" class="cls-1" d="M167.62,327.12l2.5-3.5,1.5-.5-.5-3,1.5-1h1.5v-3l1-1.5.5,1.5,5.5,3,2.5-.5,1-1.5,3.5,2,.5-1,.5,1.5,2.5-3.5,1.5-.5,2-2v1l3.5,1.5-.5,1.5,4,2-.5,4-1.5,1,3,2.5-.5,1,1,.5-1,1.5-1-.5-1.5,1-3.5-1.5.5,4.5-.5,2.5,4.5,2.5-3,2v1l-3.5-1-3.5,6.5-7.5-4-1,1.5-7-5-.5,1.5-1.5,1.5-1-5h-3l-2,1.5.5-1,1.5-1.5,1-3h-1l.5-1.5-2.5-5"/>
      <path data-code="asbestovskij_gorodskoj_okrug" data-title="asbestovskij gorodskoj okrug" class="cls-1" d="M155.12,341.12l1,.5v1.5l1,.5,2-2.5,1.5-.5v-1l-2.5-1.5-3,3M150.12,346.12l8-13,5,3,2-3,5,3-2.5,3,3-2,1,1.5-4.5,7.5-.5-.5.5-1v-.5l-2,1,1.5,1.5-4,5.5-.5,1.5,1,.5-1,2.5-1-.5-1,1-10.5-7.5,1.5-3-1-.5"/>
      <path data-code="bajkalovskij_municipal_nyj_rajon" data-title="bajkalovskij_municipal&amp;apos;nyj_rajon" class="cls-1" d="M214.62,344.62l1-1.5,2,1.5v1.5l1.5.5-.5-.5,1-1h2.5l2-3h3.5v-1.5l2,1h1l.5-1.5-.5-1.5,2.5,3,1.5-.5-2-.5v-2.5h1.5l2.5-4.5,5,2v-.5l1.5-3.5,3-2.5-1.5-2,1.5-.5.5-1-2,.5,2.5-3.5,1.5-1,2,2-.5.5h-1.5l.5,2,3-1.5v1.5l2.5-1.5,2,1.5v1.5l-1,1,1.5,2.5-1.5,1,.5,2.5,1,1.5h2.5l1,1.5-.5,1,1.5,1-.5,2.5,1,1-4-1v1h1l-1.5,1,2.5,2.5-5,2,2,2-.5,1.5-.5.5v.5h-1.5l-1,2,2,.5,1,1.5-3.5.5v1.5l-1,2-1.5-3h-1l-1,1.5h-2.5v1.5l-2,.5-5-1-6-8h-1.5l-2,2-.5-2-5.5-2.5h1l-1-2-.5,1h-1l.5,1-8-1,.5-1h-.5l1-2.5-1-1"/>
      <path data-code="belojarskij_gorodskoj_okrug" data-title="belojarskij gorodskoj okrug" class="cls-1" d="M130.62,358.62l1-1.5,1.5-.5,3-4.5,4.5,2.5-1.5,2.5-3,.5v1h-.5l2,2,1-2,1,.5,1-1.5,3,2.5h-1l.5,3-.5-.5-1,1,.5-1.5-1-1-.5,2.5,1.5.5.5-.5,3.5,3,1-1.5-1,.5,1-1.5-.5-1.5h.5l-1-1.5,4.5.5.5-2-1.5-.5.5-1,4-5-1-1-1.5,2-2.5-1.5.5-1.5-1.5-1,.5-1,11.5,8-1.5,2,.5.5-2.5,2-1,3.5h1.5v1h.5l-1,1.5,2.5,4-1,2.5-2,.5-.5-2-2.5,1-1.5-1v1.5l-1.5,1.5.5,1-2-1-2,2-.5-.5-.5,2.5-1-1-2,1.5-2-1-2.5,1-.5,1-2-2-2,1-1.5-.5-1.5-1.5.5-1.5,4-3.5-.5-1,1-2h1l1-2.5h.5v-1.5l-1.5-.5-1-1.5,2,1.5-.5-2.5-2,1-2-2.5v-1.5l-2.5-1.5"/>
      <path data-code="berjozovskij_gorodskoj_okrug" data-title="berjozovskij gorodskoj okrug" class="cls-1" d="M131.12,336.62l2-1.5,1.5.5,2-3.5,1,.5,3-4.5,2,1.5,1.5-2.5,12.5,8.5-6.5,10.5,1,.5-1.5,3-1.5-1-1.5,2.5-2-1.5-2.5,4.5-1.5.5-10-6,1-.5-1.5-1v-2l1-1v-2h1.5l.5-1.5-1-.5,2-1.5-.5-1-1.5,1-1-2"/>
      <path data-code="bisertskij_gorodskoj_okrug" data-title="bisertskij gorodskoj okrug" class="cls-1" d="M61.62,319.62l5.5-12.5,1.5.5.5-2,13,6.5.5,3.5-.5,1-.5.5h2l.5,1.5-2,2,1,3-2.5,2,1.5.5-.5,1.5,1,.5-1,1.5.5.5-3,7.5-6-2.5-.5,1h-.5l-1,1.5,1,.5-2,3-3.5-1-2,4-4-2.5,3-4-2-1.5,1-1.5-1.5-.5,4-10.5-3.5-4"/>
      <path data-code="garinskij_gorodskoj_okrug" data-title="garinskij gorodskoj okrug" class="cls-1" d="M229.62,148.12l6-3,1,.5,5.5-9,5.5,3.5,2-3,1,.5,1.5-2,1,.5,3-5h.5l6-6,6.5,4v-1l6.5,4.5,7,5.5.5,2h2l9,7,.5,5.5-3,4,9,10.5h2.5v1.5l-1,1-.5,22-1,4-5,19.5,3,7,3.5,1-20,13,1,1-1,2.5,1,3.5-1,.5-1.5-2,1-.5-1-1,1-1-2-.5v-1l-2,1-2-1-3,1.5h-5.5l-1.5.5,1,2-.5,1.5.5.5-7.5.5.5-7,.5-.5-8-2.5-3-2,.5-1-2-1.5.5-2.5-2-3-2.5-.5.5-2.5-2.5-6-5-3.5-2.5,1.5-4.5-1v-2.5h-.5l6-13.5-7-3,2.5-9.5,1-24.5,2-2-1.5.5,1-2-2,1-1-1,2-1-1-2.5,1.5-.5-.5-1.5-1,1-.5-.5.5-1.5h-2l1.5-.5v-1l-1,.5"/>
      <path data-code="gornoural_skij_gorodskoj_okrug" data-title="gornoural&amp;apos;skij_gorodskoj_okrug" class="cls-1" d="M103.12,260.12l2.5-4.5,1,1,1-2,1,.5,1-2.5.5,3.5,2,1.5v-1l2.5-2.5,3.5,2.5,1-1h2l1,1.5,5,1,3.5-2.5,2-3.5,3.5,1,.5-1.5,1.5.5v1.5l-.5.5,9,5.5-1,1-1-.5-1,1,4,3-1.5,2,1,.5-1.5,3,2,1.5-3,2-2,3.5,7,4,1-1,6,3.5,6,1.5.5-1,3.5-1-.5.5.5,1h-1.5l-1,1.5v1l1.5-.5v1.5l-2.5,1v1l2.5-1.5-1.5,2,2,1.5-1,.5-1,1.5-.5-1.5h-1l1,3.5-1.5.5v1.5h-1l.5,1.5-.5,2,1.5.5-.5,1,1,.5-.5.5,1,1,1.5-3h.5l1-1-.5,2.5-2.5,3.5h-1.5v1h-2.5l-.5,1-8-2-2,1.5-1-1v-1.5l-.5-.5v-1.5l-2-1.5-.5-2-3,.5-2-3.5-.5-4.5-2-2h-2.5v-2.5l-1-.5-1-2h-2l-.5,1.5-2-1.5-1.5,3-7-5-1,.5-2.5,4-2.5-2-1,1.5-7.5-5,6-9.5,2.5,1-2,4.5,2,1-1.5,3,4,2.5,2.5-4.5,1.5-1.5h2.5l1.5-1.5,4.5.5,1-.5.5-2,2,.5,2-4,2.5,1.5,1-.5,1-2h-1l-.5-1.5,4,1.5.5-.5-1-.5v-1l2-.5,1-.5-2-1.5h-3.5l-3-2.5,1-1.5-4.5-1-1-1-1,1.5-2-1-1.5,2-.5-1,1-2-3-1.5-.5,2-3-2-3,5.5,1,1-3,3.5-12.5-8.5M91.62,272.12l.5,1h-.5v-1M104.12,291.62v-.5h.5l-.5,1v-.5"/>
      <path data-code="gorodskoj_okrug_bogdanovich" data-title="gorodskoj okrug bogdanovich" class="cls-1" d="M156.12,363.12l.5-1.5,2.5-2-.5-.5,1.5-2,1.5,1v-1h.5l2.5,4,2.5,2.5.5-1.5h2.5l.5,2.5h1l.5-1.5,4,2-1,4,2.5,1.5-.5,1.5,1,1.5h2l.5,1.5,2.5,2,1.5-1,.5.5-.5,1,2,3.5-.5,1.5v2.5l-2,2.5,1,1.5-3,.5-5.5,2.5v1l-1-.5-2,.5-2-1,1-3.5-4-2v-2.5h-2l-2-3,1-.5-6-5,.5-2-1-.5v-1.5l-2-3v-1.5l.5-1h-.5v-1h-1.5l.5-2"/>
      <path data-code="gorodskoj_okrug_degtjarsk" data-title="gorodskoj okrug degtjarsk" class="cls-1" d="M99.12,349.62l1-2.5,1.5.5,2.5-3-.5-1,2-1,2,6.5,1.5,1.5.5,3-2.5-1-.5,1-7.5-4"/>
      <path data-code="gorodskoj_okrug_gorod_lesnoj" data-title="gorodskoj okrug gorod lesnoj" class="cls-1" d="M132.62,222.12l2.5-4,4.5-7.5,3,.5-.5,1.5,1.5,1,1-1,4.5,1.5v1.5l-3,2,1.5,3-1.5-1-2.5,2-.5-.5-3,5-7.5-4"/>
      <path data-code="gorodskoj_okrug_kamensk-ural_skij" data-title="gorodskoj_okrug_kamensk-ural&amp;apos;skij" class="cls-1" d="M153.12,389.12l2.5-1,2.5,1.5,3.5-2.5,1-2,1,1-1.5,1-1.5,2.5h-.5v1l-.5.5,1.5,2-1,.5,1,2-.5,1,1,1-1.5.5-.5,2-2.5-1.5-1,2.5h-.5v-1l-1-.5,3-3.5-1.5-2,1-1.5-4-3.5"/>
      <path data-code="gorodskoj_okrug_karpinsk" data-title="gorodskoj okrug karpinsk" class="cls-1" d="M121.12,147.62l10.5-14.5,3.5,2.5,7-9,3,2,3.5-5,4,3.5,1.5-4v-1l3-1.5,6.5-10,11.5,8.5,1,2-1.5,9.5,4,2.5,1.5-2.5,2.5,1.5-2,3,1,.5-1,2.5-1,2,2,.5,2.5,4h3l-9,16-.5-.5-2,3-12.5-9.5,1-1.5-2.5-2.5-8,10.5-2-1.5-4,7-3.5-3-2,3-1,4-7,3v-2.5l-5.5-2.5-2.5-3.5-1-2.5.5-4v-6l-1.5-3-3-1"/>
      <path data-code="gorodskoj_okrug_krasnotur_insk" data-title="gorodskoj_okrug_krasnotur&amp;apos;insk" class="cls-1" d="M175.62,163.12l2-3,.5.5,10-18,1,.5,2-3.5,1.5,1,1-2,3.5,2-3.5,6,3.5,2-2.5,4,1,.5-1,1.5-1-.5-3.5,6-1.5-1-6,9.5-7-5.5"/>
      <path data-code="gorodskoj_okrug_krasnoufimsk" data-title="gorodskoj okrug krasnoufimsk" class="cls-1" d="M10.62,323.12l6.5.5,1,1.5,1-1,1.5,2,2.5-6,4,.5-2.5,4.5-7.5,4.5-5-2v-3.5l-1.5-1"/>
      <path data-code="gorodskoj_okrug_krasnoural_sk" data-title="gorodskoj_okrug_krasnoural&amp;apos;sk" class="cls-1" d="M138.12,241.62l1.5-2.5,2-1v-2.5h1.5l2-6,.5.5.5-1,.5.5,1-1,1,1-.5,1.5h1.5v-1.5l12.5,7,.5-1.5,2,2.5,3.5,2.5,2-.5,1,2.5-.5.5.5,1.5-3.5,2.5-1-.5-1,1.5-.5-.5-1.5,1.5-3.5-.5v1l.5,1-1.5.5,1,1-.5,1-4,2.5h-2.5l-2.5,4,1,.5v2l-3.5-1-1-4h-1l-1,2-7.5-4.5.5-1.5-1-.5,1-1-.5-1,1-1-.5-1,2.5-3-2.5-3.5"/>
      <path data-code="gorodskoj_okrug_malysheva" data-title="gorodskoj okrug malysheva" class="cls-1" d="M155.12,341.12l3-3,2.5,1.5v1l-1.5.5-2,2.5-1-.5v-1.5l-1-.5"/>
      <path data-code="gorodskoj_okrug_nizhnij_tagil" data-title="gorodskoj okrug nizhnij tagil" class="cls-1" d="M91.62,272.12v1h.5l-.5-1M104.12,291.62v.5l.5-1-.5.5M89.62,242.62l2-.5.5.5,1.5-.5.5-2.5,3.5-1.5.5.5,1.5-2.5,1,.5,1.5-2,1,.5,1.5-2,2,1.5-2,3,1,.5-.5,1.5,1,.5-2,3.5,7,5-.5,1-.5-.5v2.5l-1.5,3.5-1-.5-1,2-1-1-2.5,4.5,12.5,8.5,3-3.5-1-1,3-5.5,3,2,.5-2,3,1.5-1,2,.5,1,1.5-2,2,1,1-1.5,1,1,4.5,1-1,1.5,3,2.5h3.5l2,1.5-1,.5-2,.5v1l1,.5-.5.5-4-1.5.5,1.5h1l-1,2-1,.5-2.5-1.5-2,4-2-.5-.5,2-1,.5-4.5-.5-1.5,1.5h-2.5l-1.5,1.5-2.5,4.5-4-2.5,1.5-3-2-1,2-4.5-2.5-1-6,9.5,12,6.5-1,1.5-7.5,3,1,1-1,2.5h.5l-2.5,5,2,1.5-1,2-10.5-8.5,1.5-2-1.5-1,1-1.5-4-2.5,1.5-2.5-3-1.5-.5,1-1-1-1.5,2h-.5l-1.5,2.5-1.5,1v-.5l1.5-2-2.5-1,1-1.5h.5l.5-1,.5-.5-2.5-1.5.5-1-5.5-4,5.5-7.5-4.5-2,7-3.5,1,1v-1.5l3.5-5.5-4-3,2-2.5h-2v-4.5h.5l1-4-1-1.5v-1.5"/>
      <path data-code="gorodskoj_okrug_nizhnjaja_salda" data-title="gorodskoj okrug nizhnjaja salda" class="cls-1" d="M155.62,270.12l2-4,2-.5,3-2.5,3.5-.5,2.5,1.5.5-.5,2,1.5,1-1v-1l1-.5,6-1.5v2.5l-3.5,9-2.5,1.5v2l-1-.5-1,1.5-5-.5-2.5-4-3-1.5-1-.5-.5,1.5-3.5-2"/>
      <path data-code="gorodskoj_okrug_pelym" data-title="gorodskoj okrug pelym" class="cls-1" d="M255.12,73.12l5-12,5,2,1-2.5,1,.5,1-2,7,3.5-.5,1.5,9,3.5,11.5,13,3,7.5,1,13.5-5.5,9-1.5,14,2,22.5-9-7h-2l-.5-2.5h1l-1-.5.5-.5-1-.5.5-1.5-2-1,1-1h-2l1.5-.5-.5-2-1.5.5v-1.5l-1,.5.5-1-.5-1,.5-.5v-1l-1,.5v-1l.5-.5h-1.5l1-1.5-1.5.5-.5-1,1-.5v-1.5h.5l-2-1h1v-1.5h1l-1-2,.5-.5-1-.5.5-.5-.5-.5h1.5l-.5-1.5,2,1,1-1.5-.5-.5,1-.5-1,.5-1-.5,1-.5v-1l-1.5.5-2-1-3.5-3.5,1-1.5-3-3,.5-1-6.5-5,2-.5.5-2-3-1,3.5-9.5h-2.5l.5-1.5-1.5-1.5-1.5,1-1-.5-.5-.5,1-.5-1.5-.5.5-2.5h-1.5v.5l-1,.5v-1.5l-2.5.5,1-2-.5-.5.5-.5h-1.5"/>
      <path data-code="gorodskoj_okrug_pervoural_sk" data-title="gorodskoj_okrug_pervoural&amp;apos;sk" class="cls-1" d="M82.12,320.62l3-3.5,1-3.5,4-1.5.5-1,4-1,6.5,4.5,1-1.5.5.5,3.5-6.5h1l1.5-2.5,3.5,2-1.5.5-.5,2.5-1,1.5-1-1.5-1,2-.5,2,.5.5-1,1-.5,1.5-1-.5,1,2.5h1l-1,2,1-.5-.5,1.5.5,2.5-1,1.5-.5-.5-1,1v1l1,.5,1.5-2,2-1,2.5,2-1,2,9,5.5-2.5,5-1-.5-2,3.5,1.5,2-2,4-4-2.5-.5.5v-3l-2.5-1.5-2,.5-2-3,1-2-.5-.5-2-.5-1-1-5.5,4.5-.5,2-2,.5-2-3.5-2.5,1v-1.5l1,.5,2.5-5-.5-1.5.5-.5-1.5.5-1.5-2-1.5.5-1,2-3.5-3,1-1.5-1-.5.5-1.5-1.5-.5,2.5-2-1-3"/>
      <path data-code="gorodskoj_okrug_revda" data-title="gorodskoj okrug revda" class="cls-1" d="M89.62,340.12l2,2,2-.5.5-2,5.5-4.5,1,1,2,.5.5.5-1,2,2,2-.5,1,.5.5,1.5-.5.5,1-2.5.5.5,1-2.5,3-1.5-.5-1,2.5,7.5,4,.5-1,2,.5,1,2-2,3.5-1-.5-.5,1-1-.5.5-1-5.5-3-4.5,5.5-3,.5-1,1.5-.5,1.5-1,.5v2l-.5-.5-3.5,7.5-5.5-3,6-5.5.5-1.5-.5-.5-1,.5-.5-2,1.5-1-.5-1,1-3.5,2-1-.5-1,1.5-1.5v-4l1.5-2.5-1.5-1-1-4.5"/>
      <path data-code="gorodskoj_okrug_sredneural_sk" data-title="gorodskoj_okrug_sredneural&amp;apos;sk" class="cls-1" d="M122.12,331.62l2.5-.5,1.5,1.5.5,1.5-2,4h-1.5l-1,2h-1l1-.5-1-3,1.5-4-.5-1"/>
      <path data-code="gorodskoj_okrug_staroutkinsk" data-title="gorodskoj okrug staroutkinsk" class="cls-1" d="M84.12,302.62l2.5-4,5,4.5,2.5-1,1-6.5,7.5,5-.5,1,6,4-1,1.5h-1l-3.5,6.5-.5-.5-1,1.5-6.5-4.5-4,1-.5,1-1.5.5-1.5-3,.5-1-.5-3.5-3-2.5"/>
      <path data-code="gorodskoj_okrug_sukhoj_log" data-title="gorodskoj okrug sukhoj log" class="cls-1" d="M160.12,357.12l1-1,1,.5,1-2.5-1-.5.5-1.5,9-13.5h-.5l1.5-1,1,5,1.5-1.5.5-1.5,7,5,1-1.5,2.5,2,1-.5,8,5-2,3-1.5-.5-2.5,3,.5.5-.5,1.5-2,1.5,1.5,2,1-.5-.5,1.5-1.5.5-2,5,.5.5-1,2.5-1.5.5-.5,1-1-.5v1l.5.5h-2l-.5,1h-2l-1-1.5.5-1.5-2.5-1.5,1-4-4-2-.5,1.5h-1l-.5-2.5h-2.5l-.5,1.5-2.5-2.5-2.5-4h-.5v1l-1.5-1"/>
      <path data-code="gorodskoj_okrug_verkh-nejvinskij" data-title="gorodskoj okrug verkh-nejvinskij" class="cls-1" d="M119.12,313.62l2.5-3,4,2.5-1.5,2.5-1-1-.5,1-3.5-2"/>
      <path data-code="gorodskoj_okrug_verkhnee_dubrovo" data-title="gorodskoj okrug verkhnee dubrovo" class="cls-1" d="M135.62,358.62h.5v-1l3-.5,2.5-3,1.5.5-2,3.5-2.5.5-1,2-2-2"/>
      <path data-code="gorodskoj_okrug_verkhnij_tagil" data-title="gorodskoj okrug verkhnij tagil" class="cls-1" d="M108.62,302.12l.5-.5,2,1,2-3.5h1.5l2.5,1-.5,1,2,3.5,2,1-3,5-1.5-1-4,6.5-3.5-2v-1.5l1.5-3v-1.5l.5-1,1.5-.5-3.5-2,1-2-1-.5"/>
      <path data-code="gorodskoj_okrug_verkhnjaja_pyshma" data-title="gorodskoj okrug verkhnjaja pyshma" class="cls-1" d="M117.12,333.12l2.5-4.5,2,1,6-10.5,4.5-1.5-.5,1,2-1.5.5-2,6.5,4,1.5-1.5,5.5,4-5,8-2-1.5-3,4.5-1-.5-2,3.5-1.5-.5-2,1,.5,2,.5.5,1.5-1v2h-3.5l-1,1.5-6.5-1,.5-2h1.5l1-1.5,1-3-1-2h-3.5l.5,1-1.5,4,1,3-1,.5-2-1.5v-1l.5-1-1-1,.5-1.5-2-1"/>
      <path data-code="gorodskoj_okrug_verkhnjaja_tura" data-title="gorodskoj okrug verkhnjaja tura" class="cls-1" d="M128.62,231.12l4.5-4.5,6.5,4.5-1,1.5,1,.5-.5,1,.5,2.5,2-1,.5,2-2.5,1.5-1.5,2.5-1.5-1,1.5-1h-2.5l-7-8.5"/>
      <path data-code="gorodskoj_okrug_verkhoturskij" data-title="gorodskoj okrug verkhoturskij" class="cls-1" d="M153.12,214.12l3-4v-1l9.5,7,2-5.5,1.5,3h.5l2-3,6,3.5,1-3,7,3,2-4,4.5,2.5,1-3,6,2.5,1-2.5,4,2,3,2.5-1.5,2,2,1.5-5.5,8,.5.5.5-1.5,1.5,1.5-2,3,.5,1.5,3.5,2.5h2l1.5,2,8.5.5v2l-2-1.5-.5,1,4,6.5.5-.5-.5-1,.5-1,.5,2.5-1,2.5,5,3.5.5,1h2l1,2.5h-1v2h-.5l-1.5,3-8.5-3.5-4,1-2-1.5-2.5.5.5-3-4-2,.5-1-10.5-7-1,1.5,1.5.5-1.5.5,1.5,1-5,8.5-1-.5-3,3.5-.5-1.5-.5.5-7.5-5.5,1-2-8-6-1-2.5-2,.5-3.5-2.5-2-3.5.5-4,1-2-1-3,1-1.5h-1.5l-.5-.5.5-1-3.5-2.5.5-1.5-6.5-4"/>
      <path data-code="gorodskoj_okrug_zarechnyj" data-title="gorodskoj okrug zarechnyj" class="cls-1" d="M142.12,354.12l2.5-4.5,2,1.5,1.5-2.5.5.5-.5,1,1.5,1-.5,1.5,2.5,1.5,1.5-2,1,1-4,5-.5,1,1.5.5-.5,2-4.5-.5,1,1.5h-.5l.5,1.5-1,1.5,1-.5-1,1.5-3.5-3-.5.5-1.5-.5.5-2.5,1,1-.5,1.5,1-1,.5.5-.5-3h1l-2.5-2,2-3.5-1-.5"/>
      <path data-code="gorodskoj_okrug_zato_svobodnyj" data-title="gorodskoj okrug zato svobodnyj" class="cls-1" d="M145.12,258.62l1-2h1l1,4,3.5,1v-2h1l.5-1,3.5.5,2-3.5,3.5-.5,2.5,3v1l-.5,1-1.5-1-.5,1.5-1-1-1.5,2-11.5,6h-1.5l.5-1-1-.5,1.5-2-4-3,1-1,1,.5,1-1-1.5-1"/>
      <path data-code="irbitskoe_municipal_noe_obrazovanie" data-title="irbitskoe_municipal&amp;apos;noe_obrazovanie" class="cls-1" d="M219.62,326.62l2,2.5h2v-1l1,.5,1.5-1.5-.5-.5h1.5l2-2.5-.5-3-1.5-.5.5,1.5-2,.5-1.5,2.5-4.5,1.5M195.12,313.62l1.5.5,2.5-2h-.5l.5-.5,6.5,2.5.5-1v1l.5.5,1.5-2.5h2.5l-.5-3,4-7,2.5.5.5-1v-1l.5-2,2.5-1v-1h1l.5-1.5,6.5,4.5-.5.5.5,2h2.5l1,1h-1l.5,1,4,2-1,1,2,2,4.5,1.5v1l-3,1-1,1,.5,1,3.5-1.5,2.5,3v1.5l-1,.5h.5l1-.5v-1l3-.5,2.5-1.5,2,.5-.5,2.5-3.5.5,1.5,2-4,6,2-.5-.5,1-1.5.5,1.5,2-3,2.5-1.5,3.5v.5l-5-2-2.5,4.5h-1.5v2.5l2,.5-1.5.5-2.5-3,.5,1.5-.5,1.5h-1l-2-1v1.5h-3.5l-2,3h-2.5l-1,1,.5.5-1.5-.5v-1.5l-2-1.5-1,1.5,1,1-1,2.5h.5l-.5,1h-1.5l-3.5,3v-1l-2.5.5-.5-1-1,2.5-2,1-2-.5v-2.5l-.5-.5-1.5,1.5.5,2-1.5-2.5-3.5-1.5v-1l-4-2,3.5-6.5,3.5,1v-1l3-2-4.5-2.5.5-2.5-.5-4.5,3.5,1.5,1.5-1,1,.5,1-1.5-1-.5.5-1-3-2.5,1.5-1,.5-4-4-2,.5-1.5-3.5-1.5v-1"/>
      <path data-code="ivdel_skij_gorodskoj_okrug" data-title="ivdel&amp;apos;skij_gorodskoj_okrug" class="cls-1" d="M197.12,42.62l1.5-3.5,2.5-.5v-1.5l3-2,1.5.5,1.5-1-.5-3.5,2-1,1-1.5-1-2,2.5-4.5-1-2.5.5-2.5h.5v-1.5l4-3-2-3.5v-1l2.5-3.5,2.5-1,.5-1.5,3.5-1.5,1,1,2,.5.5,2,3,.5,6.5,6-1,2-1.5,1-1,2.5v1l-1,1.5.5,3,16,5,13.5,8.5,5.5,4,13.5,20.5,1.5,2.5-.5,2,3,3.5-9-3.5.5-1.5-7-3.5-1,2-1-.5-1,2.5-5-2-5,12h1.5l-.5.5.5.5-1,1.5h2.5v1.5l1-.5v-.5h1.5l-.5,2.5,1.5.5-1,.5.5.5,1,.5,1.5-1,1.5,1.5-.5,1.5h2.5l-3.5,9.5,3,1-.5,2-2,.5,6.5,5-.5,1,3,3-1,1.5,3.5,3.5,2,1,1.5-.5v1l-1,.5h2l-1,.5.5.5-1,1.5-2-1,.5,1.5h-1.5l.5.5-.5.5,1,.5-.5.5,1,2h-1v1.5h-.5l1.5,1h-.5v1.5l-1,.5.5,1,1.5-.5-1,1.5h1.5l-.5.5v1l1-.5v1l-.5.5.5,1-.5,1,1-.5v1.5l1.5-.5.5,2-1.5.5h2l-1,1,2,1-.5,1.5,1.5,1.5-1,.5-13.5-10v1l-6.5-4-6,6h-.5l-3,5-1-.5-1.5,2-1-.5-2,3-5.5-3.5-5.5,9h-1.5v-1.5h-1l1.5-1-1,.5-.5-1,.5-1v-1l-2-1-1-2.5-3-.5-13-9.5-6,9-13.5-7.5,7.5-12.5v-2.5h-1l.5-1-2.5,2,.5-2.5h1l5-8-1.5-1,4.5-6.5-23-15.5,1.5-2v-1.5l4-4.5v-1l2.5-6-2.5-1.5v-2l1.5-3.5v-2l1-1-.5-1,1-1.5.5-3.5-.5-1,1.5-4v-2.5"/>
      <path data-code="kachkanarskij_gorodskoj_okrug" data-title="kachkanarskij gorodskoj okrug" class="cls-1" d="M129.12,207.62l2.5-1.5.5,1,5.5-3,.5.5.5-1.5,5,3.5-1,1,1,1-1,2.5-3-.5-4.5,7.5-2.5,4-2.5-1.5.5-2.5,2.5-5,.5-3-3-.5-1.5-2"/>
      <path data-code="kamenskij_gorodskoj_okrug" data-title="kamenskij gorodskoj okrug" class="cls-1" d="M153.12,389.12l4,3.5-1,1.5,1.5,2-3,3.5,1,.5v1h.5l1-2.5,2.5,1.5.5-2,1.5-.5-1-1,.5-1-1-2,1-.5-1.5-2,.5-.5v-1h.5l1.5-2.5,1.5-1-1-1-1,2-3.5,2.5-2.5-1.5-2.5,1M130.62,378.62l1-.5,2,2,2-1,2,2,.5-1,2.5-1,2,1,2-1.5,1,1,.5-2.5.5.5,2-2,2,1-.5-1,1.5-1.5v-1.5l1.5,1,2.5-1,.5,2,2-.5.5-1.5,1.5,1-.5,2,6,5-1,.5,2,3h2v2.5l4,2-1,3.5,2,1,2-.5,1,.5-1,.5-1,1.5-1-1-2,2-2,1-2,4,.5.5-4,1.5-1.5,1.5-2.5-2.5-1.5,3v2l-2.5,5.5-6.5-5.5,2-1.5v-1l-1-2-2,.5v-3.5l-.5-.5.5-.5-1.5-3-1.5-1-2.5,2,.5-2h-1l-2-4.5-5.5,1,.5-1.5-2-.5-2-2.5-1-3,1-1-1-1.5,1-1.5-1-1"/>
      <path data-code="kamyshlovskij_gorodskoj_okrug" data-title="kamyshlovskij gorodskoj okrug" class="cls-1" d="M192.12,374.62l1-1h1.5l-1.5-.5h1.5l1.5-1,.5,2,2.5.5-1.5,3-4.5-1.5-1-1.5"/>
      <path data-code="kamyshlovskij_municipal_nyj_rajon" data-title="kamyshlovskij_municipal&amp;apos;nyj_rajon" class="cls-1" d="M192.12,374.62l1,1.5,4.5,1.5,1.5-3-2.5-.5-.5-2-1.5,1h-1.5l1.5.5h-1.5l-1,1M180.12,373.62l.5-1h2l-.5-1.5,1,.5.5-1,1.5-.5,1-2.5-.5-.5,2-5,1.5-.5.5-1.5-1,.5-1.5-2,2-1.5.5-1.5-.5-.5,2.5-3,1.5.5,2-2.5,3.5,1.5,1.5,2.5-.5-2,1.5-1.5.5.5-.5,1.5,1,1.5,3.5-1,1-2.5.5,1h3.5v1l-1.5-.5-1,3.5-.5.5,3,2-1,1-1,4-2,2v2l2,1-.5,1,2.5,1-1,4-4.5-1-.5,3.5-2,3.5.5,2-2,2.5,1,2-4,8-2.5-1.5-2,2.5-4-2.5-2,3.5-2-1.5-1,2-1.5-1,.5-3,1-1-.5-1.5-2.5-1,3.5-.5-1-1.5,2-2.5v-2.5l.5-1.5-1-.5-1-4.5-1.5,1-2-1-1-2.5"/>
      <path data-code="kirovgradskij_gorodskoj_okrug" data-title="kirovgradskij gorodskoj okrug" class="cls-1" d="M109.12,293.62l7.5-3,1-1.5-1-1,2.5-4,8,4.5-4,2.5,1,.5,1,3.5-2,2,1.5.5.5,1.5-1.5,2,1,2-.5,2.5,3,2-2.5,4.5-3-1.5v-1.5l-2.5-.5,1.5-3-2-1-2-3.5.5-1-2.5-1h-1.5l-2,3.5-2-1-.5.5,1,.5-.5,1-2-1.5,2.5-5h-.5l1-2.5-1-1"/>
      <path data-code="kushvinskij_gorodskoj_okrug" data-title="kushvinskij gorodskoj okrug" class="cls-1" d="M105.62,234.12l1.5-2.5,6.5,4-.5-2,2.5,1.5,1.5-3,2.5.5v-1l3-4.5,3.5,1,3.5-2.5.5-5,8.5,5,.5-.5,1,1,1-1,2,3.5,2,1-2,6-3.5,1-.5-2.5.5-1-1-.5,1-1.5-6.5-4.5-4.5,4.5,7,8.5h2.5l-1.5,1,4,4.5-2.5,3,.5,1-1,1,.5,1-1.5.5-.5,1.5-3.5-1-2,3.5-3.5,2.5-5-1-1-1.5h-2l-1,1-3.5-2.5-2.5,2.5v1l-1.5-.5-1-4.5,1-2.5-.5-.5,1-1-7-5,2-3.5-1-.5.5-1.5-1-.5,2-3-1-.5"/>
      <path data-code="makhn_ovskoe_municipal_noe_obrazovanie" data-title="makhn&amp;apos;ovskoe_municipal&amp;apos;noe_obrazovanie" class="cls-2" d="M243.62,223.99l2.5.14,2,3-.5,2.5,2,1.5-.5,1,3,2,8,2.5-.5.5-.5,7,2.5-.14-4.5,12-1-.5-3,4,.5.5-.5,1-.5-.5-1.5,2.5.5,2-1,.5.5,1.5-4.5,1-.5-2-5,.5-3,5.5h-2l-1.5,2.5-4-1.5-2.5,4-.5,2.14-11-4.5-2,4.5-8-2,.5-1.5-2.5-1-1,2.5-5.5-3h-3.5l-2-2-1,.5-2.5-2,1.5-7.5-4-2-2,2-5.5.5v-2.5l-1,.32v-.96h1v-1l.5.5,1-.5v-1l1,.5,2.5-3,1,.5,1-1.36.5,1.5,3-3.5,1,.5,5-8.5-1.5-1,1.5-.5-1.5-.5,1-1.5,10.5,7-.5,1,4,2-.5,3,2.5-.5,2,1.5,4-1,8.5,3.5,1.5-3h.5v-2h1l.5,4.86,1.5,1.5,1-1-1.5-1,1.5-3.5.5-5,1.5-2.5h2l2.5-3,2-5-.5-4.5,3.5-7-1-1.5,1.5-1.5Z"/>
      <path data-code="municipal_noe_obrazovanie_gorod_alapaevsk" data-title="municipal&amp;apos;noe_obrazovanie_gorod_alapaevsk" class="cls-1" d="M163.12,288.62l1.5-1,1.5.5v-1l2.5-1.5,2.5,3,3-4.5,4.5,2.5-1.5,1.5,1.5,1,1.5-3,7.5,5h-1.5v2l1-.5.5,2.5,1-.5.5.5-.5.5v.5l2,1.5v1.5l1-.5.5.5-2,3-3.5-.5-1.5.5v1l-3,.5-2.5-2v1l-1,3h-.5v-3l-2.5-.5-.5.5.5,3-1,1-3.5-1.5,1-.5v-1.5l.5-.5-1.5-2.5-4.5,2.5h-1l1-1v-1l-1,1h-.5l-1.5,3-1.5-2,.5-1-1.5-.5.5-2-.5-1.5h1v-1.5l1.5-.5-1-3.5h1l.5,1.5,1-1.5,1-.5-2-1.5,1.5-2h-.5l-1.5,1.5-.5-1"/>
      <path data-code="municipal_noe_obrazovanie_gorod_ekaterinburg" data-title="municipal&amp;apos;noe_obrazovanie_gorod_ekaterinburg" class="cls-1" d="M103.62,342.12h3.5l1.5,1-.5,3,1-.5,4,2.5,2-4-1.5-2,2-3.5,1,.5,2-3.5,1,1-.5,1,1,2.5,4-.5,5,1.5,1-1.5,1-.5,1,2,1-.5v1l-2,.5v2l-1,1v2l6,5-3,4.5-1.5.5-1,1.5,1,1-1,.5-3-4.5-1,.5-1.5.5.5,2.5h2-1.5l-.5-.5-3.5.5-.5,1.5-1.5-.5-.5,1,.5,1-.5.5-2-.5-.5-1.5-2,1-2-2,1-.5-1-1.5v-.5h1l.5-1h-4.5l-1-5.5-3.5-6.5v-2h-2"/>
      <path data-code="municipal_noe_obrazovanie_gorod_irbit" data-title="municipal&amp;apos;noe_obrazovanie_gorod_irbit" class="cls-1" d="M219.62,326.62l4.5-1.5,1.5-2.5,2-.5-.5-1.5,1.5.5.5,3-2,2.5h-1.5l.5.5-1.5,1.5-1-.5v1h-2l-2-2.5"/>
      <path data-code="municipal_noe_obrazovanie_krasnoufimskij_okrug" data-title="municipal&amp;apos;noe_obrazovanie_krasnoufimskij_okrug" class="cls-1" d="M10.62,323.12l1.5,1v3.5l5,2,7.5-4.5,2.5-4.5-4-.5-2.5,6-1.5-2-1,1-1-1.5-6.5-.5M13.12,300.12l2.5-2.5,4-1,.5-1,.5,1.5,1.5-.5v3l3,2.5v2.5l1.5.5,1.5,4,1,.5,1-1,1,1.5-1,.5v1l-.5,2,.5,2.5,4.5,3,.5,2-1.5.5v1.5l5.5,1.5v2l-3,2v1l.5.5-1,1.5h-2l.5,1h-1v1l-1,.5-1-1.5-3,1,1,1.5-.5,1.5.5.5-.5,1-.5,4.5-1,.5v3l-2.5,4-2,.5,1.5,4-1.5,1.5-.5,2.5-1.5,1-5.5-1.5-.5-1,.5-.5-1-2-5-.5-1-1-2.5,2h-2l-2-2-1-2,3-5-1.5-5,1-2,1.5-1v-4.5l-2-1v-1.5l3-2.5.5-2,2.5-3.5h.5l2.5-2.5.5-2-1,.5-1.5-1.5,5-3-3-2,.5-1-.5-1.5,2-1.5-1-4.5,1-2.5-.5-1.5"/>
      <path data-code="municipal_noe_obrazovanie_posjolok_ural_skij" data-title="municipal&amp;apos;noe_obrazovanie_posjolok_ural&amp;apos;skij" class="cls-1" d="M136.12,363.62l1-.5.5,2.5-1.5-1v-1"/>
      <path data-code="nev_janskij_gorodskoj_okrug" data-title="nev&amp;apos;janskij_gorodskoj_okrug" class="cls-1" d="M123.12,291.49l4-2.5,1.5-3,2,1.5.5-1.5,2-.5,1,2.5h1v2.5l2.5.5,2,2,.5,4.5,2,3.5,3-.5.5,2,2,1v2h.5v2l-2,3.5,1.5,2-2,.5h1l.5,2-6.5,4-6.5-4.5-.5,2-2,2v-1.5l-4,2-6,10.5-2-1-2.5,4.5-7-4.5,1-2-1.5-1,1-2,1.5,1,1-1,1.5,1,1.5-5,3.5-.5,2.5-4h2l1-2.5-1-.5,2.5-4.5-3-2.5,1-2-1-2.5,1.5-1.5-.5-1.5-1.5-.5,2-2.5-1-3-1-.5"/>
      <path data-code="nizhneserginskij_municipal_nyj_rajon" data-title="nizhneserginskij_municipal&amp;apos;nyj_rajon" class="cls-1" d="M51.62,318.99l8.5-12.5,7,1-6,12.5,4,3.5-4.5,10.5,1.5,1-.5,1.5,1.5,1-2.5,4.5,4,2.5,2-4,3.5,1,1.5-3-.5-.5.5-2,1,.5.5-1.5,6,3,3-7.5,2.5,2.5,1.5-2,1.5-1,1.5,2.5,1.5-1-.5,1,.5,1.5-2.5,5-1-.5v1h3l-.5.5,1,5,1.5,1-1.5,2.5v3.5l-1.5,2,.5,1-2.5.5-.5,4v1l-1,1,.5,1.5h1.5l-.5,1.5-6,5-10-5v1l-4.5-2,.5-1-1.5-2h-2.5l-.5,1-.5-.5-.5,1h1l-.5.5.5,1.5v2l-2.5,2-.5,2-5-2v-3l-4.5-2.5v-1l.5-.5-.5-1,3,.5,1-1.5-1.5-1,.5-1-2-1.5,10.5-17.5-6-3v2l-1,.5v-1.5l-2.5-2,2.5-3.5-4.5-2,1-1v-1.5l.5-.5-1-2.5h1.5l.5-1,.5.5,1-1-2.5-2.5"/>
      <path data-code="nizhneturinskij_gorodskoj_okrug" data-title="nizhneturinskij gorodskoj okrug" class="cls-1" d="M128.62,193.49l3,.5,2.5-2,4,1.5,7,5,3-2,1.5,1.5,3.5-5,4,.5-.5,3,2,2.5v2l-1.5-.5-1,2.5,2,1.5-3,4,1,1.5-3,4,6.5,4.5-1,1,4,3-.5,1,.5.5,1-.5-.5,2,.5,3-1,3.5-.5,5-13-7.5.5,1.5h-1.5l.5-1-1-1.5-1,1-.5-.5-.5,1-2.5-1-1-2.5-1.5-.5,2-4.5,1,.5,2.5-2,1.5,1-1.5-3,3-2v-1.5l-2-1.5-1,1-1.5-1.5-1,1-1.5-1,1.5-3.5-1-1,1-1-5-3.5-.5,1.5-.5-1-5.5,3.5-.5-1-2.5,1-3-1,1.5-4-1.5-.5,1-4.5,1.5-4"/>
      <path data-code="novoljalinskij_gorodskoj_okrug" data-title="novoljalinskij gorodskoj okrug" class="cls-1" d="M134.12,172.49l6.5-2.5,1.5-4,2-3,3,2.5,4.5-6.5,2,1.5,8-11,2.5,3-1,1.5,20,15.5.5,2-1,2.5,2,1-3.5,5.5,11.5,8-4,5.5,1,.5-1,1,6.5,2-.5,3,3.5.5.5.5-1.5,3,1-.5,1,1h-1l-2.5-1.5-3.5,9-4.5-2-2,4-7-3-1,2.5-6-3-2,3h-.5l-2-3-1.5,5-10.5-7.5,3-4-2-1.5,1-2.5,1.5.5v-2l-2-2.5.5-3-4-.5-3.5,5-1.5-1.5-3,2-7-5-4-1.5-2.5-4.5,7.5-8.5-5-6.5"/>
      <path data-code="novoural_skij_gorodskoj_okrug" data-title="novoural&amp;apos;skij_gorodskoj_okrug" class="cls-1" d="M104.12,316.49l1.5.5.5-1.5,1-1.5h-.5l.5-2.5,1-1.5,1,1.5-1,1,.5,1.5,3.5,2,3.5-6.5,2,1.5,1-2,3,.5-.5,1.5-1.5,1.5-.5,1.5,3,1.5-2.5,4-3.5.5-1.5,5-1.5-1-1,1-1.5-1-.5,2-2-1-3.5,3-.5-2,1-1,.5,1,1-1.5-.5-2.5.5-1.5h-1l1-2h-1l-1.5-2"/>
      <path data-code="polevskoj_gorodskoj_okrug" data-title="polevskoj gorodskoj okrug" class="cls-1" d="M76.62,373.49l4-3.5,6,3,3.5-7h.5v-1.5l1-.5.5-2,1-1.5h3l4.5-5.5,5,3-.5.5,1.5.5.5-.5,1,.5,2-4,1,1.5h3.5l-.5,1h-1v1.5l1,.5-1,.5,3.5,3.5-2.5,4.5-3-1-5,9,1,.5-4.5,9-4.5-2-2.5,1-2-2-5.5-2.5-2-3.5-1.5-1-4.5,1-3.5-3"/>
      <path data-code="pyshminskij_gorodskoj_okrug" data-title="pyshminskij gorodskoj okrug" class="cls-1" d="M207.12,356.49l1-1,1-3.5,1,.5,1-1-.5-.5,1-.5,2.5,5,1-1,1.5,1-.5,1.5,2,2.5.5-1,1,2,2-2,1,.5-1,.5v1.5l2,2.5-1,1.5v2.5l-.5.5,1.5,4-1,2,.5,1.5-3,3-.5,4.5v1l3,1.5-3,5.5-1,1.5-2,.5v1l-1.5,1-2.5,5-2,2-1,3.5h-.5l.5-1.5-1.5-1,1-3-3-.5-1-1,.5-1-.5-.5-1.5,1,.5-1.5-1.5,1.5-4-4,1-3,2.5-4.5-1-1.5,2-2.5-1-2.5,2.5-3v-3.5l4.5.5,1.5-4-2.5-.5v-1.5l-2-.5.5-2.5,2-1.5.5-4,1-1-3-2"/>
      <path data-code="reftinskij_gorodskoj_okrug" data-title="reftinskij gorodskoj okrug" class="cls-1" d="M165.31,344.91l1.5-1,.5,1-1,1,.5.5-.5.5-1-2"/>
      <path data-code="rezhevskoj_gorodskoj_okrug" data-title="rezhevskoj gorodskoj okrug" class="cls-1" d="M142.12,317.99l5-2.5-.5-2h-1l2-.5-1.5-2,2-3.5,1,1,2-1.5,7.5,2,.5-1,3-.5v-.5l1-.5,2-2,.5-2,6-2,1,2.5-.5.5v1l-1,.5,3,2,1.5-1-.5,1-1,1,1,2-1,2.5.5,2.5-.5,1v3h-1.5l-1.5,1,.5,3.5-1.5.5-3,3.5,2.5,5v1l.5.5v2.5l-5-3.5-2,3.5-5-3-1.5,2-5.5-3-7-5,3.5-6-5.5-3.5"/>
      <path data-code="serovskij_gorodskoj_okrug" data-title="serovskij gorodskoj okrug" class="cls-1" d="M193.62,133.49l2.5-4.5,13,7.5,6.5-9,13,9.5,3,.5,1,2.5,2,.5v1.5l-.5.5.5,1h1l-1.5.5,1,.5v1.5l-6,2.5,1.5-.5v1h-1.5l2,.5-.5,1.5v.5l1.5-1.5.5,2-1.5.5,1,2.5-2,1,1,1,1.5-1-.5,2,1.5-1-2,2.5-1,24-2.5,10-5.5-4-2,3.5-2-1.5-2.5,3-6.5-3.5-1.5,1.5.5.5-1,2.5-7.5-1.5-2,7-3.5-.5.5-3-1-.5-1,.5-4.5-2,1-1-1-.5,4-5.5-11.5-8,3.5-5.5-2-1,1-2.5-1-2.5,6-9.5,1.5.5,3.5-5.5,1,.5,1-1.5-1-.5,2.5-4.5-3.5-2,3.5-6-1-.5.5-1.5,1,1,2-3-6-3"/>
      <path data-code="severoural_skij_gorodskoj_okrug" data-title="severoural&amp;apos;skij_gorodskoj_okrug" class="cls-1" d="M163.62,110.99l2-2,2.5-4.5,1-1-.5-2,2.5-1.5,3-4v-.5l2-2,4.5-1.5,5-6.5,1.5-4,23,15-4.5,7,1.5,1-5,8h-.5l-.5,1-.5,1,.5.5,1-1v-.5l1-.5-.5,1h.5l.5,2.5-10,17-7-4.5-.5,1-4-2-3.5,5.5-4-2.5,1.5-9.5-1.5-2-11-8.5"/>
      <path data-code="shalinskij_gorodskoj_okrug" data-title="shalinskij gorodskoj okrug" class="cls-1" d="M48.62,281.99l1.5-.5-1-1,7-9.5-1.5-1,2-3.5,2-.5,1.5-3,1,.5-.5,1,.5.5h1.5l-.5-1.5,1.5-1.5v-1.5l2.5-1.5v1.5l9,4v1l-1-.5.5,2.5-1.5,3,1.5,2.5,7-3.5,4.5,2-5.5,7.5,5.5,3.5-1,1.5,2.5,1.5-.5.5v1h-1l-.5,1.5,2,.5-1,2.5v.5l1.5-1,1-3,1,.5.5-1.5h2l.5-1,3,2-1.5,2.5,4,2-1,2,1.5,1-1.5,2-3-1.5-.5,6.5-2.5,1-5-4.5-2.5,4,3,2.5.5,3-1,1.5,2,2.5-2.5,1.5-1,3-1,1h-1.5l-1-.5.5-.5.5-1.5-.5-3.5-13-6-.5,1.5-8.5-1-1.5-3-1,.5-1.5,1.5-2.5-4.5-1.5-.5v-1.5l-2.5-.5-1,1.5-2-1,1.5-2-1.5-2,3,.5.5-1-2.5-2,1.5-2.5-1.5-.5v-1.5l1,.5,2-2-1-.5,1-1.5-2-2.5"/>
      <path data-code="slobodo-turinskij_municipal_nyj_rajon" data-title="slobodo-turinskij_municipal&amp;apos;nyj_rajon" class="cls-1" d="M255.62,328.99l4-3,2.5.5v-3l.5-1.5,1.5.5v-1l4,.5,5,6.5,2.5.5-.5,1,1.5.5,2,1h5v2l1.5,1.5-1,1.5,5.5,2.5-2,7-2,.5.5.5-.5,1.5h1.5l-.5,2.5,2.5-.5v3h-2.5l-3.5,6.5-1.5-.5-.5,5-1,1,.5,2.5-2-1-.5,1.5-7.5-3-.5-2,1-1.5-1-1h1l-2.5-1.5-4,.5-2.5-1v-1.5h-1v-1l-5,.5-.5-1-2-.5,1-2.5h1.5v-.5h.5l.5-1.5-2-2,5-2-2.5-2.5,1.5-1h-1.5v-1l4,1-.5-1,.5-3-1.5-1v-1l-1-1-2.5-1-1-3,1-1-1-2.5"/>
      <path data-code="sos_vinskij_gorodskoj_okrug" data-title="sos&amp;apos;vinskij_gorodskoj_okrug" class="cls-1" d="M193.12,209.99l2.5-6.5,2.5,1.5h1l-2-.5,3-10.5,7.5,1.5,1-2.5-.5-.5,1.5-1.5,6.5,3.5,2.5-3,2,1.5,2-3.5,5.5,4,7,3-6,13,.5.5v2.5l4.5,1,2-1.5,5.5,3.5,2.5,6-.5,2.5-1.5,1.5,1,1.5-3.5,7,.5,4.5-2,5-2.5,3h-2l-1.5,2.5-.5,5-1.5,3.5,1.5,1-1,1-1.5-1.5-.5-4.5-1-2.5h-2l-.5-1.5-5-3.5,1-2-.5-3-.5,1.5.5,1-.5.5-4.5-6.5.5-1,2,1v-2h-8l-1.5-2h-2l-4-3-.5-1,2.5-3-1.5-1.5-.5,1h-.5l5-8-2-1.5,2-2.5-7-4-1,2.5-6-2.5"/>
      <path data-code="sysertskij_gorodskoj_okrug" data-title="sysertskij gorodskoj okrug" class="cls-1" d="M106.12,375.99l5-9,3,1,2.5-4.5-2-2,2.5-.5.5,1.5,2,.5.5-1-.5-.5.5-1.5,1,1,1-2,3-.5.5.5.5.5h1.5l-2-.5-.5-2.5,1-.5h1.5l1,2.5-1,1h-.5l.5,1-.5,2,2.5,1,2-3,3.5,4,.5-1,2.5,4.5h-.5l-1,2.5h-1l-1,2,.5.5-4,4,.5,3-1,1.5.5,1.5-.5.5,1,1.5-1,1.5-2.5.5-.5,1,1,3.5-.5,5-3.5,1-1.5-2-1.5.5-3.5-4-4-1.5.5-1-2-1.5-2.5,1,3.5-5.5-3.5-2-3,6-1.5-1.5-1.5.5-1.5-1,4.5-9-1-.5"/>
      <path data-code="taborinskij_municipal_nyj_rajon" data-title="taborinskij_municipal&amp;apos;nyj_rajon" class="cls-1" d="M257.12,255.99l4.5-12h5l-.5-.5.5-1.5-1-2,1-1,6,.5,3-1.5,2,1,1.5-1.5.5,1.5,2,.5-1,1,1,1-1,.5,1.5,2,1-.5-1-4,.5-2-.5-1,19.5-13,12,4,17,11-.5,4,.5,1.5-.5,1.5,3.5,2-1,13-1.5,8.5,4,19.5-2.5,1.5-9-3.5-1,2.5-4.5,1-1.5-2.5-9,14-1-.5-2,1-1.5-1-.5,1,.5.5-2,.5,1,1.5,1.5-1,1.5.5h-1.5v3l-1.5,1.5-6.5-2.5-2.5,2v1.5l-1.5,1.5-2-2,1.5-1.5-8.5-1.5.5-1.5-1.5-1,1-1.5-2.5-1,2-2-2-1,1-2-5-2,4-10-2.5-.5,1.5-5.5-8-2.5-4.5-4.5-2-5.5-5-8-2.5-1.5"/>
      <path data-code="talickij_gorodskoj_okrug" data-title="talickij gorodskoj okrug" class="cls-1" d="M211.62,350.49l1.5-1,9.5,1-.5-1h1l.5-1,1,1.5-1,.5,5.5,2,.5,2.5,2-2,1.5-.5,6,8.5,5,1,2-.5v-1.5l2.5-.5,1-1.5,1,.5,2,5-1,1v2.5l4.5,2.5,1,3h-5l-1,2.5v1l-2.5,2.5-.5-2.5-1.5,1v1.5l1.5,2.5,3,1.5-.5,1.5h-1.5l-1.5,3.5-1-.5-.5,3-3,1,2.5,1,1.5-1.5-1,1.5.5,1-2.5-.5v1h2.5l-2,2,.5,1-2.5,1,1.5,1,.5,1.5h1.5l1,2.5-1.5.5,1.5,2-1,2-1.5-.5v2l-1.5.5h-4l-1,2,1.5,2-1.5,3-2,1.5-4.5-2.5,1-1-1-.5-1.5,1.5-5.5-3-2-3.5.5-1.5-2,.5-2.5-3.5.5-2-1-1-2-2h-.5l-.5,1-2-2,2-3,1.5-1v-1l2-.5,4-7-3-1.5v-1l.5-4.5,3-3-.5-1.5,1-2-1.5-4,.5-.5v-2.5l1-1.5-2-2.5v-1.5l1-.5-1-.5-2,2-1-2-.5,1-2-2.5.5-1.5-1.5-1-1,1-2.5-5"/>
      <path data-code="tavdinskij_gorodskoj_okrug" data-title="tavdinskij gorodskoj okrug" class="cls-1" d="M289.12,306.49l2,1-1.5,1.5,2,2,1.5-1.5v-1.5l2.5-2,6.5,2.5,1.5-1.5v-3h1.5l-1.5-.5-1.5,1-1-1.5,2-.5-.5-.5.5-1,1.5,1,2-1,1,.5,9-14,1.5,2.5,4.5-1,1-2.5,9,3.5,2.5-1.5,9,6-6.5,25,1,17.5-5.5-.5v1l-2.5.5v1.5l-5.5-1-2.5,3.5-1-2-2.5-1-2,2.5,1,1.5-3,2.5-1-.5.5,1-3,.5-1,1.5-.5-.5v-1.5l-1-.5v-5l-21.5,5.5,2-7-5.5-2.5,1-1.5-1.5-1.5v-2h-3l8.5-25"/>
      <path data-code="tugulymskij_gorodskoj_okrug" data-title="tugulymskij gorodskoj okrug" class="cls-1" d="M253.12,357.99l7-.5.5-1,1.5,2.5,2.5,1,4-.5,2.5,1.5h-1l1,1-1,1.5.5,2,7.5,3-1,1.5,1.5,1.5,2.5-.5-1.5,1.5,2.5,3.5-3.5,4.5v3.5h-.5l-.5,2.5v2l-.5,1.5,1,2.5-1-.5-1,1.5,1,.5-.5,1.5h1l-1.5,3,1.5,1.5,1-1,4.5.5-3,4.5-.5-.5-2.5,5.5-8.5-3.5-1.5-2,1.5-2-1.5-1.5-1,1h-2l-2.5-1-3,.5-2-1.5-3,3.5-5.5-3-2,1-1.5-.5-.5-1.5-1.5-1,2.5-1-.5-1,2-2h-2.5v-1l2.5.5-.5-1,1-1.5-1.5,1.5-2.5-1,3-1,.5-3,1,.5,1.5-3.5h1.5l.5-1.5-3-1.5-1.5-2.5v-1.5l1.5-1,.5,2.5,2.5-2.5v-1l1-2.5h5l-1-3-4.5-2.5v-2.5l1-1-.5-1.5,1-2.5v-1.5"/>
      <path data-code="turinskij_gorodskoj_okrug" data-title="turinskij gorodskoj okrug" class="cls-1" d="M228.12,276.99l2.5-4,4.5,2-.5-.5,1.5-2.5h2l3-5.5,5-.5.5,2,4.5-1-.5-1.5,1-.5-.5-2,1.5-2.5.5.5.5-1-.5-.5,3-4,3.5,2,5,8,2,5.5,4.5,4.5,8,2.5-1.5,5.5,2.5.5-4,10,5,2-1,2,2,1-2,2,2.5,1-1,1.5,1.5,1-.5,1.5,2,1,4.5-.5-8.5,25h-2l-3.5-1.5.5-1-2.5-.5-5-6.5-4-.5v1l-1.5-.5-.5,1.5v3l-2.5-.5-3,2v-2l-2-1-2.5,1v-1l-3,1-.5-1.5h1.5l.5-1-2-1.5-2,1,1.5-2.5-1-2.5,3,.5.5-.5.5-2.5-2-.5-2.5,1.5-3.5.5v.5l-.5,1-.5-.5.5-.5.5-1-2.5-3-3.5,1.5-.5-1,.5-1,3.5-1v-1l-4.5-1.5-2.5-2,1.5-1.5-4-1.5-.5-1,1-.5-1-1h-2.5l-.5-1.5.5-.5-6.5-5,6.5-17.5v-.5"/>
      <path data-code="verkhnesaldinskij_gorodskoj_okrug" data-title="verkhnesaldinskij gorodskoj okrug" class="cls-1" d="M142.62,276.49l2-3,3-2.5-2-1.5,1-2h1.5l11.5-5.5,1-2,1.5.5.5-1,1,1,1-1v-1l-2.5-3h-2.5l-1,.5-2,3.5h-6l2.5-4,2.5-.5,4-2.5.5-1-1-.5,1.5-1-1-.5.5-1,3.5.5,1.5-1.5.5.5,1-2,.5,1,1.5-.5,2.5-2-.5-1.5.5-.5,8,6-1,2,7,6-1-.5-1.5,2-1,1-1-.5v1l-1,.5-.5-.5v1h-1v1.5l-5,.5-1,1-.5,1-.5.5-2-1-.5.5-2.5-1.5h-3.5l-3,3-2,.5-2,4,3.5,1.5.5-1h1l2.5,2,3,4-5.5,7.5-4-1-3.5-2.5-3-1-.5,1-7-4.5"/>
      <path data-code="volchanskij_gorodskoj_okrug" data-title="volchanskij gorodskoj okrug" class="cls-1" d="M180.12,130.99l2-3,4,2,.5-1,13,7.5-2,3-1-1-.5,1.5-2.5-1.5-1,2-1.5-.5-2,3.5-1-1-1.5,2.5h-2.5l-3-4-1.5-1,.5-2,1.5-2-1-.5,1.5-3.5-2-1"/>
    </g>
</svg>