<svg xmlns="http://www.w3.org/2000/svg" viewBox="0 0 194 170.65">
      <path data-code="SMO-DEM" d="m52.25,25.9l2,1,1,1.5,5-2.15-.6-.85,2.6-1.05,11,1.85,1-1.5h4.5l1-2,1.5.5,5-3.35,1-1.5,1.5-.5,2.5,1.5.5-1h.5l-.5,1,4,4v1.5h-1l-.5,1,1.5-1-1,1.5,1,1.5-1.5,1-2-1.5-1.5,1.5.5,1,3-1,.5,2.5-.5.5-1-1.5-2,.5-3,4h-2v1.5l-1.5,1.5h1l-1,1.5v1.5l-2-2.5-1,.5v2h1l-1,.5v1l-1.5,1-1.5-.5,2,1.5-.5,1-1-1h-1.5l-.5,1-1.5-1-1,1.5h-1l-2,1,1,.5v1l-1.5-1-2.5,1-1,2.5.5,3-1.5.5-1-2.15-3.5,1.5-3-1.5,1-1-1-2-1-.5-2,1,1-1,.5-1,1-.5v-.5l-1,.5-3.5-2.5-1.5.5-2-1.5-2.5.5-2,2-.5,1-1-.85,1-2-1-2-1,.5-.5-1,1-1.5-.5-1,1.5-.5,1,1.5,1.5-.5,1.5-3,1-.5,1.5.5v-1.5h1.5l-1-2.5h-1l-.5,1-1.5-2,1-1.5-.5-1h2v-2l.5-1.45"/>
      <path data-code="SMO-DOR" d="m81.25,87.4l-1,1,3,3-.5-2,.5-1,3,.5v-2l1.5-1,3,.85.5,2,1,.5.5-1.5,5,.5.5,2.5,2.5,1,1.5,4,2.5-1-.5,1.5,2,1-.5,1.5-1.5.5v1l3,.5.5,2-1,1,1.8,1.1-.3.9,1,1-1,.5v1l-1.5-.5v6.15l-1.5,2v2.5l-2,1-3-3v.5l-3,.5.5,1.5-1.5.5v1.5l-2-.5-2-3-1,1.5-.5-.5-.5.5-2,.5-.5-1,2-1.5-.5-1,1-.5v-1l-1.5-1-2.95-8.8-2.05.3v-.5l-2-.5v-1.5l1.5,1,.5-1-1.5-1.5.5-.5-3-1.5,1.5-2.5-.5-2.5h-3l1-3v-3.5h2.5Z"/>
      <path data-code="SMO-DUK" d="m68.75,48.4l2.5-1,1.5,1v-1l-1-.5,2-1h1l1-1.5,1.5,1,.5-1h1.5l1,1,.5-1-2-1.5,1.5.5,1.5-1v-1l1-.5h-1v-2l1-.5,2,2.5v-1.5l1-1.5h-1l1.5-1.5v-1.5h2l3-4,2-.5,1,1.5,2-1.5v-.5l1,.5-.5,1,1,2,1.5-1,1,1.5,1.5-1,2,1-1,.5v1l2-.5-1,2h-.5v1l2-2,1,.5,1.5-1-.5,1.5.5,1-3.5,3.5h2l.5-1.5,1.5-.5,3.5,3.5.5,1.5-4,1-4,4h-3.5v1h-1.5l-1,4v.5l-.5,1-3.5,2.5-1-.5v1.5l-1,.5-.5-1-2,.5,1,1.5-.5,3-1.5,1.5,1,1.5-2,1,.5,1h-1.5l-2.5-1-.5,2-4.5,1-3.5-.5-3.5-3.5-2,1-3-1.5-1.5-3.5.5-2,1.5-1.5-2.5-2.5,1.5-.5.5-1.5,1-1-.5-3,1-2.5"/>
      <path data-code="SMO-ELN" d="m60.25,116.25l2-.35v-1.5h3.5l1,3,1-.5,1-3.5,1-.5-.5-1.5,5-1,.5,1v-2.5l.5-1.5,3.5-1,1.5.5v-1.5l1.5-1v-.5l2,.5v.5l2.05-.3,2.95,8.8,1.5,1v1l-1,.5.5,1-2,1.5.5,1,2-.5.5-.5.5.5,1-1.5,1,1,2,4h1.5v3.5l-2.5-.5-2,1-1,2-2.5,2-1.5-1v1.5h-1.5l1.5,2.5h-3.5v-1,1l-1.5,2-4.5-1-1-1.15-.6,1.05-.9-.9-2,2-1.5-2,1-1.5h-1v-3l-1.5-1-1.5.35-3-1-2,2h-3v-2l1-.5v-1l1-.5-4.5-7,2-2Z"/>
      <path data-code="SMO-ERS" d="m13.25,147.4l.5-1,4,1,.5-1.65,3-1,3,1.5,2.9-1.15.1,1.3h-1.5v.5l5,1-.5,1,.5,2-1.5-.5v.5l1.5.5,1,4,2,1v.5h-1l2.5,2-1,.5-.5,3-1.5-1v1l-2,.5-1.5-.5h-1.5l-.5,1h-2l-1.5.5-.5,1.5-2.5.5-.5.5,1.5,1h-2l.5,2-2,1-2.5-2.5-.5,1h-1.5l1-2.5.5-.5-2.5-3,1-1.5h-2l1.5-2-2.5-5,1.5-4.5,2-1-1-.5.5-1"/>
      <path data-code="SMO-GAG" d="m174.25,73.25l.5-1.85h1l1.5.5-.5,1.5-1,.5,2.5,1.5,1-.5v-.5l3.5-1,.5,1.5h2l-1,.5,1,1.5.5-1,1.5,2,1.5-1v1.5l4,1.5-.5,3,1.5.5v3.5h-1l-.5,1.5.5-.5h1l-1,.5.5.5-1.5,3v2l-1,1.5,1.5,1.5-1,1-1,.5v1.5l-1.5-.5-.5,1.5v1l-2,1.5.5,2-.5.5.5,1-1,2h-1.5v1l-2.5-2-1,1.5.5,2.5h-1.5l-1,2-1.5-.5v2l-1,.5.5,1h-2l-2.5,3.5-1.7,1-4.85-1.6-1.5,1-1-1.5-1.5.5-.5-1.5h-2l.5-1.5-1,.5-1-1,2.5-1.35-3-1.15,3-2v1l1-.5v-3l2-3v-1.5l-1.5.5-.5-1.5h-3l.5-2-.5-2-2.5.5-.5.5-1-.5,1-2.5,4-1,.5.15.5-1,1.5-1,.5-1,1.5-1-.5-1.5h1v-1.5l2,1,3.5-.5v-3l-1-.5,1.5-2-.5-1-1.55.25,1.05-3.35,2.5-1.5-.5-1.5,2.5-1.5-1-2.5v-1l1.55.4Z"/>
      <path data-code="SMO-GLI" d="m58.95,94.05l7.3-.65-1-3.5,2.5,1,1-1,2,1v-1l.5.5,3-.5.5,1,1-1.5,1,.5,2-2.5v3.5l-1,3h3l.5,2.5-1.5,2.5,3,1.5-.5.5,1.5,1.5-.5,1-1.5-1v2l-1.5,1v1.5l-1.5-.5-3.5,1-.5,1.5v2.5l-.5-1-5,1,.5,1.5-1,.5-1,3.5-1,.5-1-3h-3.5v1.5l-2,.35-2-4,1-2.5-.5-.5,1-1.5-1-1,1.5-.5-.5-1h1v-.5l-1-2-2.5.5.5-1,.5-.5-1-1.5,2.5-1.5-2-2.5.5-1.5.7-.7Z"/>
      <path data-code="SMO-DES" d="m61.75,140.25v1l-2,1,.5-2h1.5Z"/>
      <path data-code="SMO-YAR" d="m75.75,70.4l3.5.5,4.5-1,.5-2,2.5,1h1.5l-.5-1,2-1-1-1.5,1.5-1.5.5-3-1-1.5,2-.5.5,1,1-.5v-1.5l1,.5,3.5-2.5.5-1h-1v-.5h1l1-4h1.5v-1h3.5l2.5,8.5-1,2,1,1.5,2-2,.5,1.5-1,1,1,1.5-1,.5-1-1.5-.5,1.5,1.5,1-1.5.5.5,1.75-1.5-.4.5,2h-1.5v.5l1,.5v2l-2.5,1-.5-1.5h-2l1.5,2-1.5.5-1.5-1.5-1,3-1,.5v1l-2,1.5h-2l1,2-1.5,2,.5,1-2.5,3.5-3-.85-1.5,1v2l-3-.5-.5,1,.5,2-3-3,1-1h-1.5l.5-1-1.5-1.5.5-1,1-.5-3.5-1.5,1-2-2-.5,1.5-2-2-2,2-1.5-2-2,.5-1.5"/>
      <path data-code="SMO-KAR" d="m67.25,66.4l3,1.5,2-1,2.5,1.5,1,2-.5,1.5,2,2-2,1.5,2,2-1.5,2,2,.5-1,2,3.5,1.5-1,.5-.5,1,1.5,1.5-.5,1h-1l-2,2.5-1-.5-1,1.5-.5-1-3,.5-.5-.5v1l-2-1-1,1-2.5-1,1,3.5-1.5.5-5.5.5-.3-.35.8-.8-1.5-2.5-2-.55-.5-1.3,1-1,.5-3.5,1,.5,2.5-1.5-1-2,1-3h-1l1-1.15.5-3.5,1.5,1,.5-.5v-3l1-1v-3l3-.85Z"/>
      <path data-code="SMO-KHI" d="m12.75,107.9l2-1,.5.5,1.5-1,1-1,1,2,1.5-2,3.5,1,1.5-1.5h1.5l.5-1.5,3.5-1.5.5,2.5,2,1-.5,1,1.5,1.35v1.5l5.5,1v2h1.5l-.5,1h1l-3,3-1.5,4-4.5,1-.5,2,.45,1.05-2.45,1.55-2-2,.5-.5-1.5-2-4.5,3-3.5-2.5h-5.5l-3-4.5v1l-1.5.5.5-1.5h2l1-1.5-.5-1.5,3.5-1.5.5-2-1.5-2.5-2-.45"/>
      <path data-code="SMO-KHO" d="m104.75,48.4l3.5-3,4-1,2,2-.5,1.5,2,1-1,.5v1l1.5-1h1.5l1,1-.5,1.5,3,.5v3h2.5l3-2,2,1,.5,1-1.5-.5,1.5,1.5.5-1h1v-.5l3,2.5-.5-1,.5-1,1.5.5.5.5-1,1.5.5.5-1,1,2,1.5-.5,1-2,.5,1,2,1.5-.5-.5,1,.5,2.5h-1.5l-.5,2-.5.5h2l2.5,2.5-2,1.5.5,4.5,1.5,2-5,2-.5,1.35-1.5.5-.5,2-1,.5-1.5-1.5,1-2-.5-.5,1-1-1-1.5-8-1-3-3-1.5-.5.5-1-1.5-2.5-1.5.5-5-5.85-.5.5-1-.25-.5-1.75,1.5-.5-1.5-1,.5-1.5,1,1.5,1-.5-1-1.5,1-1-.5-1.5-2,2-1-1.5,1-2-3-7,1-2.5"/>
      <path data-code="SMO-KRA" d="m18.75,53.4l1,1.35,1-1,1,4,2,.5,1-1.5.5.5-.5,1,4.5,2,.5,2.5,1.5-1.5-.5,1h1v.5l2.5-2-.5,2.5,1.75.75-1.75,1.75-2-1-.5,1.5-1.5-.5-.5,2.5,1.5,2,9.5.5-.5,2.5.5,2-1.5-.5-1.5,1.5v1l1,1.5-1.5,1.5,2,1v2.5l-3.5-1-.5,1.15h-5v1.5l-3.5,1.5-2.5-2.5-1,2-3-1.5-.5,2-.5-.5-2,2-1-3h-1v1l-3.5-1.5,1-3.5-1-1.5,1.5-1,.5-2.5,1.5-2-1.5-2-1-4,9-3,1-1.5v-1.5l-5.5-5,1-1h1.5v-1.5h-1l.5-1.5"/>
      <path data-code="SMO-MON" d="m9.75,83.9l1.5-.5,3.5,3v-1h1l1,3,2-2,.5.5.5-2,3,1.5,1-2,2.5,2.5,3.5-1.5v-1.5h5l1,4.35,3.5,1.65,1.5,3.35-1.5,3.5h-1l.5,1h-1l-1.5,3.5-3,4.15-2-1-.5-2.5-3.5,1.5-.5,1.5h-1.5l-1.5,1.5-3.5-1-1.5,2-1-2-1,1-2,1.5v-1.5l-3.5-1.5,1-2.5-2.5-2-1-3,1-1-.5-3-1.5-1.5h1l-1.5-3.5,3-3.5-.5-1"/>
      <path data-code="SMO-NOV" d="m136.25,56.25l1,1,3-.5,4.5,3,1-.5,1,1,1-1,2,2-.5,2.5,1.5,1.5-1,1,.5,2-.5,1.5,1.5,1.5-1.5,2,2.5,1,2,4.5,2.5,1.5,1.5-1,3.5,2.5v3l2.5-.5.5-1,2.5,1,2.5-.35.5,1-1.5,2,1,.5v3.35l-3.5.5-2-1v1.5l-.9-.1.4,1.25-1.5,1.35-.5,1-1.5.65-.5,1-.5-.15-2-4-2.5-2-2,1.5v1h-1l-.5,1.5-3,.5-2-2-1.5,1-2.5-1.5v-1l1.5-.5-2-3-3.5-1-1-2-3,.5-1.5-2,.5-1.35,5-2-1.5-2-.5-4.5,2-1.5-2.5-2.5h-2l.5-.5.5-2h1.5l-.5-2.5.5-1-1.5.5-1-2,2-.5.5-1-2-1.5,1-1-1.8-1.6,2.8-.55Z"/>
      <path data-code="SMO-OIC" d="m40.75,93.25l3.5-2,3,1,1.5,2,2-1,.5-3h2.5v.5l1-1,3.5,1,1.5,2.5-1.5,1.5-.5,1.5,2,2.5-2.5,1.5,1,1.5-.5.5-.5,1,2.5-.5,1,2v.5h-1l.5,1-1.5.5,1,1-1,1.5.5.5-1,2.5,2,4-2,2,4.5,7-1,.5v1l-1,.5v2h-2l-2,1.5-1-.5-1.5,1.5-1.5.5-2-1.5-1.5-2.5h-1.5l-.5,2.5-3,1-2-2.5-.5,1.5-1-1-2.5.5-2.5-.5-1.5-1.5,1-2.5h-2l-1-2.5.5-2,4.5-1,1.5-4,3-3h-1l.5-1h-1.5v-2l-5.5-1v-1.5l-1.5-1.35.5-1,3-4.15,1.5-3.5h1l-.5-1h1l1.5-3.5"/>
      <path data-code="SMO-ROS" d="m59.75,142.25l2-1v-1h-1.5l-.5,2Zm-26-11.5h1l1-1,2.5.5,2.5-.5,1,1,.5-1.5,2,2.5,3-1,.5-2.5h1.5l3.5,4,1.5-.5,1.5-1.5,1,.5,2-1.5h5l2-2,3,1,1.5-.35,1.5,1v3h1l-1,1.5,1.5,2,2-2,.9.9.6-1.05,1,1.15,2-.15,1,2-1,2.5,1,2-1.5.5v1l-2,1-1-1-.5,1-.5-1-1,1,.5,1-1,.5-.5,2-3-1-2,3.5h-2l1,.5h-2.5l-.5-1.5-1,.5-2,1,2,1-.5,1.5-2-.5,1.5,1.5-1,.5-2.5-1-.5,1.5-3.5,1-1.5-.5v-2l-1.5-.5-1,.5.5,1.5h-2.5l-1,1,.5,1-1.5,1,1,.5-1,2-3-.5-.5-1.5v1.5h-.5l-1,3-3.5-1.5-2,1-2.3-.45.3-1.9,1-.5-2.5-2h1v-.45l-2-1.05-1-4-1.5-.5v-.5l1.5.5-.5-2,.5-1-5-1v-.5h1.5l-.1-1.3,2.1-.85-1-1.5,1-1,1-1.5-1-2,3-3.5-.5-.5,2-2v-1.5"/>
      <path data-code="SMO-RUD" d="m16.25,44.75l4-2.5,1,.5.5-1,1-.5,1-2,5,1.5,1.5-1,1-2,2,1,1.5-1.5.5-1.5,4-6.5-.5-1.5,2-3v-2.5l-1.5-1,3-3h4.5l1.1-.7,1.9,3.7,3,1.5,1-2,1-.5-.5-1h.5l.5-.5h1l.5.5-1-.5-.5.5v1l2,.5h-2.5l-.5.5,3.5,1.5,2.5,3.5-5,2.15-1-1.5-2-1-.5,1.5v2h-2l.5,1-1,1.5,1.5,2,.5-1h1l1,2.5h-1.5v1.5l-1.5-.5-1,.5-1.5,3-1.5.5-1-1.5-1.5.5.5,1-1,1.5.5,1,1-.5,1,2-1,2-3.5,1.35-.5,4h-1v1l.5,1-.5,1.5,1.5.5-3,3.5,2.5,2.5-2,1.5h-1.5v1.5l-3.5-1.5.5-2.5-2.5,2v-.5h-1l.5-1-1.5,1.5-.5-2.5-4.5-2,.5-1-.5-.5-1,1.5-2-.5-1-4-1,1-1-1-2.5-9"/>
      <path data-code="SMO-SAF" d="m93.25,78.25h2l2-1.5v-1l1-.5,1-3,1.5,1.5,1.5-.5-1.5-2h2l.5,1.5,2.5-1v-2l-1-.5v-.5h1.5l-.5-2,2.5.65.5-.5,5,5.85,1.5-.5,1.5,2.5-.5,1,1.5.5,3,3,8,1,1,1.5-1,1,.5.5-1,2,1.5,1.5,1-.5-.5,3,1,2.5-3-.5-.5,2-2.5,2.5.5,1.5-2,1v1l-1-1-1,.5-1-.5v1l-1-.5-1,3.5-1.5.5-.5,1-3.5-2.5-2,4.5h-1.5l-3-2,1-1-.5-2-3-.5v-1l1.5-.5.5-1.5-2-1,.5-1.5-2.5,1-1.5-4-2.5-1-.5-2.5-5-.5-.5,1.5-1-.5-.5-2,2.5-3.5-.5-1,1.5-2-1-2"/>
      <path data-code="SMO-SHU" d="m1.75,121.75l1,.5,1-1,1.5,1-.5-2,1.5.5,1-1,1-.5,1.5-1.5-.5,1.5,1.5-.5.25-1,2.75,4.15h5.5l3.5,2.5,4.5-3,1.5,2-.5.5,2,2,2.45-1.55.55,1.45h2l-1,2.5,1.5,1.5-1,1h-1v1.5l-2,2,.5.5-3,3.5,1,2-1,1.5-1,1,1,1.5-5,2-3-1.5-3,1-.5-1,.5-1-3.5-1,.5-3.5-1.5-1.5,1-.5-2-1,1-2-1.5-.5-.5-2.5h-2l-2.5-2.5-4-.5-1-4H.25l1.5-1.5v-1.05"/>
      <path data-code="SMO-SMO" d="m51.75,73.75l3,1.5-1,4.5-.5.5-1.5-1v1.5l-.5.5.5-2-2-3,.5.5.5-1.5,1,.5v-2"/>
      <path data-code="SMO-SMOM" d="m51.75,73.75v2l-1-.5-.5,1.5-.5-.5,2,3-.5,2,.5-.5v-1.5l1.5,1,.5-.5,1-4.5-3-1.5m-10.5-26l3.5-1.35,1,.85.5-1,2-2,2.5-.5,2,1.5,1.5-.5,3.5,2.5,1-.5v.5l-1,.5-.5,1-1,1,2-1,1,.5,1,2-1,1,3,1.5,3.5-1.5,1,2.15,1.5-.5-1.5,2.5-1.5.5,2.5,2.5-1.5,1.5-.5,2,1.5,3.5-3,.85v3l-1,1v3l-.5.5-1.5-1-.5,3.5-1,1.15h1l-1,3,1,2-2.5,1.5-1-.5-.5,3.5-1,1,.5,1.3-1.5-.45-1,1v-.5h-2.5l-.5,3-2,1-1.5-2-3-1-3.5,2-1.5-3.35-3.5-1.65-1-4.35.5-1.15,3.5,1v-2.5l-2-1,1.5-1.5-1-1.5v-1l1.5-1.5,1.5.5-.5-2,.5-2.5-9.5-.5-1.5-2,.5-2.5,1.5.5.5-1.5,2,1,2-2,1.5,1v-1.5h1.5l2-1.5-2.5-2.5,3-3.5-1.5-.5.5-1.5-.5-1v-1h1l.5-4"/>
      <path data-code="SMO-SYC" d="m139.75,56.75l1-1.5,1,1,1.5-2,2,2,3-3v.5-1l1.5-.5-1-1,1.5-1.5,2.5,2.5.5,1.5-.5.5,1,.5,1.5-1-.5-1h1l.5-1.5h1l-.5-1,2,1.5,2-2.5,2,.5,3,6,2-.5,2,.5.5,1.5-.5,1,1,.5h-.5v1.5l1,1-.5,1.5h3.5l-.5,2.5,1.5,4.5-1,3.5-1.5-.5v1l1,2.5-2.5,1.5.5,1.5-2.5,1.5-1.05,3.35-.95.15-2.5-1-.5,1-2.5.5v-3l-3.5-2.5-1.5,1-2.5-1.5-2-4.5-2.5-1,1.5-2-1.5-1.5.5-1.5-.5-2,1-1-1.5-1.5.5-2.5-2-2-1,1-1-1-1,.5-5-3"/>
      <path data-code="SMO-TEM" d="m140.25,120.25l1-1,2,1.5,2-2.5,2-.5,3.5-1v-1.5l1.5-1.5v-1l1.5-.5-.5-1.5.5-.5,3.5,3.5,3,1.15-2.5,1.35,1,1,1-.5-.5,1.5h2l.5,1.5,1.5-.5,1,1.5,1.5-1,4.5,1.5.5,1.5-1,1.5.5,1.5-1.5,1-1-.5,1,2-1,.5v1h-3l-1,1.5-2,2.5-1-.5-.5,1-1-.5-2.5,1.5-2-.5-1-1-.5,1.5h-1.5l1,1h-1l-.5,1.5-3.5-1v1l-1.5-1v1.5l-2-.5-.5,1.5-1-1,1-4.5-2.5-.5,1.5-1-.5-.5-2.5-1v-1l-1.5-1,1.5-1,1-3.5,1-.5-1.5-3.5"/>
      <path data-code="SMO-UGR" d="m96.25,120.75v-1.35l1.5-.5-.5-1.5,3-.5v-.5l3,3,2-1v-2.5l1.5-2v-2.65h3l-1,2.5h1.5l.5-1.5,3,1.5-1,1,.5,4.5,3.5.5,3,5,1-1,2,1,2.5-2,.5-.5-1.5-1,1-1,.5-2,3,.5v1l1.5.5,1.5-1.5h3l1,1.5-1,.5.5,1,4,.5,1-2,1.5,3.5-1,.5-1,3.5-1.5,1,1.5,1v1l2.5,1,.5.5-1.5,1,2.5.5v1.5l-1,.5-.5,1h-2l-1.5,3-1.5,1,.5.5-1,2,.5,1-5.5,1-1.5,1-2.5-3.5-1.5,1.5-3.5-.5v-2l-2-.5-.5-2-2-.5-.5-1.5-.5.5,1,1,1,.5-.5,1.5,1,.5-2.5,3.5h-3v1h-2l-1.5,2-5-4.5h-1.5l-1-2,1-3.5h-2.5l.5-1.5-1.5-.5-1-3h-3l-.5-1.5-2.5-.5v-1.5h-3.5l2-2.85,2-1,2.5.5v-3.15l-1.5-.35-1-2,2,.35Z"/>
      <path data-code="SMO-VEL" d="m50.25,12.25l3,.5-.5-2.5h2l4-6h1l1.5-1,3.5,1.5.5-2.5,2-2,.5,1.5.5-.5,1.5,1.5.5,4h2l.5,1.5.5.5.5-1,2,1.5.5,2h1.5v1l-2-.5v1l1.5,1,1-1,4.5,1.5-1,1,2.5,2,.5,2-1,1,1.5,1-4,2-1.5-.5-1,2h-4.5l-1,1.5-11-1.85-2.6,1.05-1.9-2.65-3.5-1.5.5-.5h2.5l-2-.5v-1l.5-.5,1,.5-.5-.5h-1l-.5.5h-.5l.5,1-1,.5-1,2-3-1.5-2-3.5,2.5-5.55"/>
      <path data-code="SMO-VYA" d="m108.75,104.25l1,1.5h1.5l2-4.5,3.5,2.5.5-1,1.5-.5,1-4,1,1v-1l1,.5,1-.5,1,1v-1l2-1-.5-1.5,2.5-2.5.5-2,3,.5-1-2.5.5-3,.5-2,1.5-.5,1.5,2,3-.5,1,2,3.5,1,2,3-1.5.5v1l2.5,1.5,1.5-1,2,2,3-.5.5-1.5h1v-1l2-1.5,2.5,2,2,4-4,1-1,2.5,1,.5.5-.5,2.5-.5.5,2-.5,2h3l.5,1.5,1.5-.5v1.5l-2,3v3l-1,.5v-1l-3,2-3.5-3.5-.5.5.5,1.5-1.5.5v1l-1.5,1.5v1.5l-3.5,1v.5h-2l-2,2.5-2-1.5-1,1-1,2-4-.5-.5-1,1-.5-1-1.5h-3l-1.5,1.5-1.5-.5v-1l-3-.5-.5,2-1,1,1.5,1-.5.5-2.5,2-2-1-1,1-3-5-3.5-.5-.5-4.5,1-1-3-1.5-.5,1.5h-1.5l1-2.5h-3v-3.5l1.5.5v-1l1-.5-1-1,.5-1.5"/>
</svg>