<svg xmlns="http://www.w3.org/2000/svg" viewBox="0 0 616.81 692.46">
      <path data-code="SAK-ALE" d="m61.16,267.31l2.5.5,2-1.5,1.5,1,5.5-5v-2.5l2.5-2.5,3-1.5,3,.5,2-2-1-.5.5-1.5,2-.5,1,1.5-.5,1,1.5,1,2,2.5v.5l2,1,1.5,1.5v2l1.5,1.5.5,1.5,1,1,2,3.5,3,2,2,4,.5,1,2,2.5,1,3,1.5.5,2,2-.5,3.5,2.5,4.5,1.5,5,2.5,2-.5,1,3,7.5,4,5,.5,3.5-.5,1.5h-2l1.5,3-.5,3h1v1.5l2,3,.5,3,1.5,2,2-1.5.5,1,4,2,1,1.5,1,.5.5,1.5h2l-.5,1,2,1,.5,1,2.5,3.5,2.5,1,.5,2,2,1v2.5l-1,.5,1,1.5h-1.5l.5.5-.5,1-2.5,1.5,1.5,2h2l-3.5,2.5,1.5,1-.5.5-4.5,1.5-3-4.5-2-2v-1.5l-1.5-3.5-4-2.5-6-5.5-6-15-3-.5,2.5-1-1.5-1.5v-2.5l-1.5-2.5,1-3.5-.5-5.5-1.5-4.5-3.5-5-4.5-3-2.5-3,.5-.5-1.5-2-6-3-1.5-2v-1.5l-1.5-1.5-11-3.5-6-3.5-6.5-1.5h5l-.5-5-4.5-2.5h-6l-.5-4"/>
      <path data-code="SAK-ANI" d="m267.66,607.31l.5-1-.5-2,1-1.5-1-1,.5-2.5h-1.5v-3l-1-.5v-1.5l-2-3.5-6-5.5v-1.5l-1-.5,1-1h-1l-1.5-2v-1l-1-2v-2.5l-2-1.5.5-5-2-1-1.5-3,2.5-.5,5.5,1.5,1-1,5-6.5-.5-.5-1-3.5-1.5-1v-3l3.5-2,7,4.5,4,4.5,1.5.5,2,2.5-.5,1.5-2,.5,1.5,2.5-4.5,4-1.5,4.5v4.5l5,23.5,3.5,7.5,1,6.5,1.5,3-1.5,4.5,1.5,4.5-1.5-2-2-.5v-4.5l-5.5-5-1.5-3-4-4.5"/>
      <path data-code="SAK-DOL" d="m231.66,523.31v-3.5l1-.5v-1.5l1-.5v-2l-2-1v-3.5l2-1-3.5-2.5v-2.5l-2,.5-3-2.5v-1l-.5-1.5-2,.5.5-8,2-.5,2.5,1v-2.5l2.5,6,2,2,2,4,8.5,9,11,7,11.5,2,3.5,3.5,3,1v.5l5.5,7-2-.5-4.5,2-1-1.5h-5l-.5,2-.5.5-1.5-1.5-.5,1.5-3,2.5-.5,2.5-1,.5-1-1.5-1-.5-2,3-2-.5-.5-1-1.5,1.5-1-1-.5-1.5-4.5-1.5-.5-1,.5-.5v-2l-1-.5v-.5l-1.5-.5-1-3v-1l-4.5-2-.5-1-.5-2.5h-2.5"/>
      <path data-code="SAK-YUS" d="m253.16,542.81v-1l1.5-2.5h1.5l1,1.5,1-.5v-2l3.5-3,.5-1.5,1.5,1.5,1-2.5h5l1,.5-1,1,.5,1.5,2.5,3.5.5,4.5,1.5,1,.5,1.5.5-1,1.5,1.5,2.5-2,1,3h1.5v2l2.5,1.5-1.5,1-.5,1,1.5,1-.5.5-.5-.5h-1v-1l-1.5,1v-2l-1.5-1.5,1,2.5v3.5l-2,3-2-2.5-1.5-.5-4.5-5-6.5-4-3,1.5-.5-1-1.5-.5-.5-2.5-2.5-2.5-1.5,1-1-1"/>
      <path data-code="SAK-YUK" d="m497.16,684.31l-1-.5-1.5-4-4,3-2-1.5-.5-1.5-3-2.5,1-2.5-1-3.5,3-5.5-.5-1.5,1.5-4.5-.5-1,1.5-3-1.5-3,.5-7-.5-5.5,1-3,.5-3.5-2-4,.5-3-.5-5,1.5-4,3.5,1,1.5,1,5.5-.5,6-4.5,1.5-3,1,5.5-.5,2.5h-3l-1,2,.5,3-1,4.5-7,5-.5,3.5,1.5,3-3.5,4,.5,7,1,2,1,.5h-1.5l-1,1.5,2,6-4,4.5-1,4.5,6,13.5m43-45h3l1.5,2-.5,1-1.5,1,.5,1-.5,1-1,1,1,2h-1.5l-3,6.5-2-1.5-1.5.5-.5-2-2-2,.5-1,3.5-3.5.5-4,1.5-2h2m-11,28h-.5l-2,1,1-1-.5-1.5h2l1,1-1,.5m4.5,1.5v-.5h.5v.5h-.5m-14,21h-.5l-.5-1.5h-2l3.5-2v1l1.5.5-2,2m7.5-6v1.5l-2,2v-2l1.5-.5-.5-1.5,1,.5m3,.5v-2,2m-2.5-6.5h1v1l-2,3-2-1.5-2.5-.5,2-3.5,3-1,.5,2.5m-7,14v.5-.5m4.5-1.5v-.5l1-.5v1.5l-1-.5"/>
      <path data-code="SAK-KHO" d="m219.16,525.31l1.5-.5,8,5,2-1,1.5-2.5-1-1,.5-.5-1.5-.5-.5-1.5,4.5.5.5,2.5.5,1,5,2-.5,1,1,3,1.5.5v.5l1,.5v2l-.5.5.5,1,4.5,1.5.5,1.5,1,1,2-1.5v1l2,.5.5,1.5,2-.5,2.5,2.5.5,2.5,1.5.5v4.5l1.5,1,1,3.5.5.5-5.5,7.5-6-1.5-2.5.5,3.5,5-2,.5-3,3.5-2.5-.5-.5-5-4-13.5-3.5-5-7-4.5-.5-3-1.5-.5-1.5-2.5-.5-2-1-.5v-1.5l-3-3.5-3-6"/>
      <path data-code="SAK-KOR" d="m275.66,562.31l2-1,1-3,1-.5.5-4.5-1-2.5,1.5,1.5v2l1.5-1v1h1l.5.5.5-.5-1.5-1,2-2.5-1,.5-1.5-1.5v-2h-1.5l-1-3-2.5,2-1.5-1.5-.5,1-.5-1.5-1.5-1-.5-4.5-2.5-3.5-.5-1.5,5.5-2,2,.5.5,3,6.5,5,1.5,1.5.5,2,6,2h7.5l3-2.5-1.5-3,2.5.5,5.5,6,1,3,2.5,2,.5,2,2,1.5,3,5,3,2,.5,1.5,3.5,1-1,3,1.5,2.5-1,2,1.5,4-.5,3.5,3.5,5-.5,3.5,1,2.5-2-4-1.5-.5v-1.5l-2.5-5.5-10.5-10-2-4-3-2-5-2h-4.5l-2.5,2-7.5,2-4,4-6-7-1-.5-.5,1.5-1.5-1.5"/>
      <path data-code="SAK-KUR" d="m611.16,347.31l-2.5,1-4-2v-1.5l5-3.5-1.5-6.5,2.5-6.5-1-1.5.5-3.5-1-8,3.5-1.5,1,2.5-1.5,6,2,4.5-1.5,2,1,6-2.5,6v6.5m-36,29.5l.5,1.5-2-.5v-1h1.5m13,10.5h-1.5l-.5-2.5,1-1,1-.5h.5l-1,.5,1.5,1.5-1,2m-1.5,3.5v-1.5l1-.5,2,1.5-1.5,1-1.5-.5m-10.5,83l-5,3,1-3.5-1-3-1-.5,1.5-3-1.5-11v-1.5l3-1.5,1.5-2v-4l-1-5.5,1.5-5-.5-2.5h-1,1l1-3.5,2.5-1.5,1-2-1-2.5-1.5-.5.5-3,2-2v-2l3-2.5h3l1-1.5-.5-.5h1.5l1-2.5,1.5-1-2.5,4.5-3,17.5.5,4.5,1.5,1-1,2.5.5,2-1.5,3,.5,3-3.5,2.5v2l.5.5-1,1.5-1.5,14-2.5,3.5.5,1-1,1v1m-6-2.5v.5-.5m-47,133l-2,1-2.5-.5-1-4,1-3.5-2.5-2-1-3,2,2,2,.5v-3l-1-2-1.5-.5,4-1,1-6.5-2-3-3,1-2.5-2,1-1.5,3,.5,1.5-1.5-1-4.5,2.5-5.5.5-5.5,1-2-1.5-5.5-1.5-1.5h-1.5v-.5l3-1,1,1,3-1.5,1-2-2-2.5-.5-4,4-5-.5-2.5h-1l-1-2-3.5-3.5-.5-5,.5-1h2l3,3,2,1,2,2.5,1.5.5,6-3,5-6,1.5-6v-2.5l-1-.5v-2l1-4-.5-2.5,1.5-1.5-.5-3,3-3.5,3.5-1.5,3.5.5,1,2-1,4,4,1.5,1,4.5-2,2h-2l-4,3-1.5,3-.5,5h-1l-1.5,3.5-3,3.5-.5,3-3.5,8.5v9l-1.5,4.5-2.5,1-1.5,2.5-3-.5-1.5-1.5-2,2.5.5,4.5h2l.5,8-1.5,1.5v2.5l-2,3-1,5.5v5.5l1.5,1.5-1,.5v3.5l-4,2.5-1,2,.5,10"/>
      <path data-code="SAK-MAK" d="m212.66,479.31l.5-4-2-.5,1-.5-1-3.5-2-1.5,1-1.5-1-2,.5-1.5-1.5-2,.5-1.5-2-3.5-2.5-2-3.5-5-.5-2-3-5v-3.5h-1l-3-5.5.5-3-1.5-1.5,2.5-2,1.5,1,.5-1-.5,2.5h1l2,2.5,1.5-.5,1.5,1,1.5-1.5,1,.5,3-5.5,4.5-2,.5,1.5,1.5,15,2,10.5,5,16.5.5,3,3,11.5,3,6-.5,2.5,1,1-.5,1-3.5-1.5-.5-1-1.5-1,.5-2.5-1.5-2.5-1,1-6-6.5h-1.5"/>
      <path data-code="SAK-NEV" d="m245.16,573.16l2.5.5,3-3.5,2-1-.5,4,2,2-.5,2,1.5,2v1l1.5,2.5h.5l-.5.5,1,1v1l6,5.5,2,4v1l1,1v3h1.5l-.5,2,1,1.5-1,1,.5,2.5-.5,1,4,4.5,1,2.5,6,5v5h1.5l2.5,4-11-6-1.5-3.5-4-4.5,1-2.5-1-.5-1.5.5-6.5-8.5-7.5-8.5-.5-2.5-2-1.5.5-2.5-1.5-4v-2l-2-9.5"/>
      <path data-code="SAK-NOG" d="m54.66,211.16l.5-2,3,1.5,2.5-1,.5-3,3.5.5,2.5-1.5,1-3h1v-.5l1.5.5,1.5-2,4.5,1,2,3.5,1.5.5,1-.5-.5-.5,4-1,2-3,3.5,1,3.5-2-1.5-7.5h-1l-.5-2-3-2v-1.5l-1-.5-1.5-3.5-3.5-4.5-1.5-3v-1.5h1l4,5.5,2,1,.5,2,8,14.5,3,7.5,2,13.5,4.5,9,6.5,8-.5,4.5,2.5.5.5,2h1.5l1.5,1.5-.5-1.5,1-.5-5.5-5.5h.5l15.5,14,9.5,9.5,7.5,10,6.5,6,19,22h-3l-.5,3,1.5,2.5-1.5-.5-2,1.5h-2l-1.5,2.5.5,1h-2l-2.5,2h-1.5l-1.5-4.5-1.5-1.5-1,2-2.5-1-2-3v-1l-2-2-2.5-.5-2-2-1,.5-4-2.5-2-3.5-6.5-7.5-3.5-1.5-7-5-3,.5.5-1.5-1-1.5-3.5-1-2.5,3,.5,3h-1.5v2l-2-.5-2-2.5-.5-1-2-4-3-2-2-4-1-.5-.5-2.5-2-1.5v-1.5l-3-2v-1l-2-2-2-1,1-1-2.5-3v-1l-4.5-3,2-2-1-1-2-.5-1.5-2.5-1.5-.5.5-1-2-3h-2l-1-2.5-2.5-1v-1.5l-1.5-1.5,1.5-1.5-1-2-.5-.5-1.5-3-2-1v-.5l-2-2.5.5-1-2-2v-1l-3.5-2-1-1.5"/>
      <path data-code="SAK-OKH" d="m87.16,180.16h-1l-1-1-4-5.5h-1v1.5l1.5,3,3.5,4.5,1.5,3.5h1v2l3,2,.5,2h1l1.5,7.5-3.5,2-3.5-1-2,3-4,1,.5.5-1,.5-1.5-.5-2-3.5-4.5-1-1.5,2-1.5-.5v.5h-1l-1,3-2.5,1.5-3.5-.5-.5,3-2.5,1-3-1-.5,1.5,1,1.5,3.5,2v1l2,2-.5,1,2,2.5v.5l2,1,1.5,3,1,1,.5,1.5-1.5,1.5,1.5,1.5v1.5l2.5,1,1,2.5h2l2,3-.5,1,1.5.5,1.5,2.5,2,.5,1,1-2,2,4.5,3v1l.5,1-1.5,2v.5l1,.5-1,1-2,1-2-1-3,2-2.5,2.5v2l-5.5,5.5-1.5-1-2,1h-2.5l-2-3.5-4-4.5-1-1.5,1-2.5-1-2.5-3.5-3-.5-3-3.5-3-1.5-4.5,1.5-5-1.5-9-.5-1.5-1,.5-1-4h-1l-.5-3.5-1.5-.5-.5-4-4-7v-3l-1-2-1.5-5-1-.5-.5-1.5-5.5-3.5-2-3-3.5-3-2-5-3-1.5.5-3-2,2.5v1l-1-.5,1.5-3,2.5-1.5,7-12,2.5-3h1l-2,1.5,2,1,2.5,5,1.5,2,2,.5,1.5-.5v-2l2.5-.5,1-4-.5-8,3-1.5-1-1.5-1,.5-4.5-2v1.5l1,1-.5,1.5-5-6,3.5-3.5-2-1.5-1-10-3-6.5-15-6.5-5.5-5-6.5-2.5,5-.5,4-4,2.5-5.5v-1.5l-2-2.5,1-1.5h1l1,1.5,2,1,4,4,10.5,5.5,3,3.5,1,3-1,4,.5,2,5,7.5,28.5,26.5,7,7.5,14,18.5"/>
      <path data-code="SAK-POR" d="m185.66,421.16l-.5-2.5h-1l.5-1.5-1-1.5,1-1-1.5-2v-1l-2-3h1l.5-1.5h-1.5l-.5-2.5-2-.5v-1l-1-1v-1l-1.5-1.5.5-1,2,.5,1-1,5-2v-3.5l10.5-5.5.5-1-1-1.5h-1l.5-1.5-5.5-2-3-4,18.5-12.5,2-11.5-.5-1,1.5-.5-1-4,.5-2.5,3-1,1.5-4,13,11,1,3,3.5,4.5,8,4.5v2l2,3,8.5,9.5,11,9v1l18,4.5.5,2.5,3,2-.5,1.5,1,2.5,3,2.5,2.5.5-1.5.5-1,1.5-1-2-2-1.5-2.5-4.5-10-6-7-2.5h-3.5l-13.5-6.5h-7l-16.5,5-7,5.5-4.5,5.5-3,7-1,7.5,2,6,1.5,2,2,.5,1.5,3-4.5,2-.5,1-1.5,3v2h-6l-2-2h-1l.5-2.5-4,1-2-3-1.5-.5.5-1-4-3.5"/>
      <path data-code="SAK-SEV" d="m578.66,179.66l.5,1-1.5.5v-1l1-.5m19-10l-.5,2-2,1-2-1,1-2.5,2.5-.5,1,1m-25-145.5l-4.5,3.5-2.5-.5-3-2-.5-2,1.5-2,4.5-2,4.5,4v1m31-9.5l.5,1-4.5,3-4.5-.5-2-1,.5-1.5-2-3,1.5-1.5.5-6.5,2.5-4.5,2,1,1,2,2.5,2,1.5,5.5v3.5l.5.5m-5,59.5v2l-1.5-2h-3l-3.5,3-1-1-2-5.5-2-3-3.5-1-1.5-1.5-.5-1,1.5-2.5,3-.5.5-2-1-2v-1.5l4-4v-2.5l1.5.5,1-1.5.5-6.5-1-3-1.5-1.5.5-3-3.5-6.5v-5l.5-5.5,4.5-2,2,2.5v1.5l1.5.5v1.5l3.5,1.5,1.5,3.5,2.5,2-2,5.5.5,2,1.5,2,1,7.5,1.5,4.5-1.5,2.5,1,3-5.5,4.5-1,3,1,1-1.5.5v4l2,6m-21.5,1.5l-.5.5-1-.5.5-1.5h1.5l-.5,1.5m1.5,36.5l.5,2.5h-3l-2-3,1-2,1.5-.5,1,.5,1,2.5m28,22l-2.5,1-4-4-1-8-3-8.5.5-2.5-1.5-1.5,4.5-1.5v1.5l2.5,3.5-1,3,1,3,2.5,3,3.5,2.5,2,3.5-2,5h-1.5m1,15l-3.5-2-1-1.5,3-1.5,4,.5.5,2.5-1.5,2.5-1.5-.5m0,31l-1,2-2-.5-.5-2.5,2-3.5-2.5-4.5-1-1,2-3h2.5l1,3.5-1.5,6,1,3.5m1,15h.5-.5m.5,2v-.5.5m1,41.5l-1.5,1.5-3.5-1-1.5-1.5.5-1.5h4l1,2,1,.5m-1.5-2l.5-.5h.5v.5h-1m-9.5-12.5l.5,1-1,.5-.5-1,1-.5m16.5,39.5l-1.5,2-1-.5-2-3.5.5-4,3,2.5,1,3.5m-.5,10h.5l.5.5h-.5l-.5-.5m0,7l.5-1v-2.5l1,3.5h-1.5m-1,19.5l-2.5,2-3-3v-2l3-1.5,2.5,1.5v3"/>
      <path data-code="SAK-SMI" d="m138.66,364.66l4.5-1v-1l-1-1,3.5-2-2-.5-1.5-1.5,2.5-1.5.5-1-.5-1h1l-.5-1,1-.5v-3l-2.5-1v-1.5l1.5,1,2-2.5h1l1-3h7.5l2,1.5-.5-1.5v-1.5l2-2,4.5,1,1-2.5,3-3.5v-4.5l-1-4h-1l-.5-2,.5-.5-1-3.5-3.5-5,1.5-2-2-1.5-2-4h2.5l-.5-1,1.5-2.5h2l2-1.5,1.5.5-1.5-2.5,1-3.5,2.5.5,6,7.5v1.5l2.5,3.5,12,13,9.5,8,9,6.5,1.5,3-1.5,4-3,1-.5,2.5,1,4-1.5.5.5,1-2,11.5-18.5,12.5,3,4,5.5,2-.5,1.5h1l1,1.5-.5,1-9.5,5-1,1.5v2.5l-5,2-1,1h-1l-3-3-1,.5-2-2h-.5l-.5-2-4.5-5.5-6.5-.5-3.5-2.5-2.5,2.5h-3l-5-7-.5-2.5-1-1.5-1-.5.5-2-5-8.5"/>
      <path data-code="SAK-TOM" d="m185.16,467.16l1-1-1-3.5h2.5l-3.5-5.5,1-1.5,2,1,.5-1-1.5-2v-3l1.5-1.5,1,1,.5-1,4,3,2-.5,3.5-5.5,2,5,3.5,4.5,2.5,1.5,2,3.5-.5,2,1,2-.5,1,1.5,2.5-1,1.5,2,1.5.5,3.5-.5.5,2,.5-.5,4,1.5-.5,6,7,1-1,.5,1,1,1.5-1,2.5,2,.5.5,1.5-1.5,2.5v6h1.5l1,1.5-.5,1,3.5,2.5,2-.5v2.5l3.5,2-2,1.5v3l2,1.5v1.5l-1,1v1.5l-1,.5v3l-2-.5.5,1.5,1,1v.5l.5.5-1.5,3-1.5,1-8-5.5-1.5,1v-4l-1-2.5-.5-5-2-6,1-6-.5-3.5-3-3.5-10-15-6.5-5.5-11.5-7.5"/>
      <path data-code="SAK-TYM" d="m124.16,332.66l-.5-3.5-2-2.5v-1.5l-1-.5.5-2.5-1.5-3,2-.5.5-1-1-3.5-3.5-5.5-3.5-7.5,1-1-2.5-1.5-1.5-5-3-4.5,1-3.5-2-2.5h-1.5l-1-3,2,.5v-2h1.5l-.5-3,2.5-3,4,1.5.5,1-.5,1.5,3-.5,7,5,3.5,1.5,10,12,2.5,1.5,1-.5,2,2,2.5.5,2,2v1l2,3,2.5,1,1-2,1.5,1.5,1.5,4.5,3.5-2,2,4,2,1.5-1.5,2,3.5,5,1,3.5-.5.5.5,2h1l1,4v3l-3,5-1,2.5-4.5-1-2,2v1.5l.5,1.5-2-1.5h-7.5l-1,3h-1l-2.5,2.5-3.5-2-3-3.5v-1.5l-2-.5.5-1h-2l-.5-1.5-1-.5-1-1.5-4.5-2v-1l-2.5,1-1-1.5"/>
      <path data-code="SAK-UGL" d="m150.66,386.66h3l2.5-2.5,3.5,2.5,7,1,4,5,.5,2,5,3v2l1.5,1.5v1l1,1v1l2,.5.5,2.5h1.5l-.5,1.5h-1l2,3v1l1.5,2-1,1,1,1.5-.5,1.5h1l.5,2.5,4,3.5-.5,1,1.5.5,2,3-.5,1,1.5,2-.5,2.5,3,5.5h1v3.5l1.5,2.5-3.5,5.5-2,.5-4-3-.5,1-1-1-1.5,1.5v3l1.5,2-.5,1-2-1-1,1.5,3.5,5.5h-2.5l1,3.5-1,1-5.5-4.5-4-5.5-.5-3.5,1.5-5-2-2.5.5-2.5-1.5-3.5-2-6-2-3.5.5-1.5-1-4-2-2-3-5-2-6,.5-2-2-4.5-8.5-17-1.5-2"/>
</svg>