<svg data-code="_Слой_2" xmlns="http://www.w3.org/2000/svg" viewBox="0 0 89.61 74.61">
    <g data-code="severnaja_osetija_-_alanija" data-title="severnaja osetija - alanija">
      <path data-code="alagirskij_rajon" data-title="alagirskij rajon" class="cls-1" d="M2.98,57.12h2.5l4.5-3,.5-3,7-.5,6-6.5,2.5-1,1.5,1.5-1,1.5,2.5,1.5,2.5-2-.5-1.5,2-3.5,1.5,1-.5,1.5,2-2.5,3.5-2,3.5,1,.5,1-1.5,1.5.5,1,1-1,1,2-1,1.5,2,4.5,3.79.02-.29,3.35-2,.5v-1l-1.5.5-1.5-2-3,2.5-2,3-3.5.64-.5,1,1,4.5-5,5-1-1.5-4,1-2.5,3-1.5-1.5-2,1-1.5-2-4.5-1-4,1.5-3.5-6-3-1.5.5-2-1-2"/>
      <path data-code="ardonskij_rajon" data-title="ardonskij rajon" class="cls-1" d="M39.48,38.62l8.5-7.5,1,4.5,1-.5,4,7.86-2.5,1.5.07,2.14-2.07.99-.21,2.52-3.79-.02-2-4.5,1-1.5-1-2-1,1-.5-1,1.5-1.5-.5-1-3.5-1"/>
      <path data-code="digorskij_rajon" data-title="digorskij rajon" class="cls-1" d="M23.48,36.12l3-1v-1.5l4.5-1,.5,1.5,1.5-1,1.5.5,1.5-2.5.5.5,2-2,1.5.5.5-1h1l.5-1,3,1.5,1-1.5,2,.5v2.5l-8.5,7.5-3.5,2-2,2.5.5-1.5-1.5-1-2,3.5.5,1.5-2.5,2-2.5-1.5,1-1.5-1.5-1.5-3-4,.5-1.5h-1l1-1.5Z"/>
      <path data-code="irafskij_rajon" data-title="irafskij rajon" class="cls-1" d="M.48,33.62l4.5-3,4,4.5,4.5-2.5.5-2h1.5l2-2.5,3.5-.5,2,.5,1-1-.5-1.5,9.5-6.5.5,2-1.5,2.5,1.5,2.5,2.5-2,2,2-2,1.5v2.5l3.5-1.5,1,.5-.5,1-1.5-.5-2,2-.5-.5-1.5,2.5-1.5-.5-1.5,1-.5-1.5-4.5,1v1.5l-3,1-1,1.5h1l-.5,1.5,3,4-2.5,1-6,6.5-7.65.53-1.85-3.03v-1.5l-1.5-.5-1-2,1-1.5-1-3L.48,33.62"/>
      <path data-code="kirovskij_rajon__severnaja_osetija_-_alanija_" data-title="kirovskij_rajon_(severnaja_osetija_-_alanija)" class="cls-1" d="M42.48,22.62l5.5-3,1.5.5v2.5l-2,3.5,9.5-2.5-.5,4,4.86.05.55,3.15-7.91-.83,1.5,4-2,3-2.22.66-1.28-2.52-1,.5-1-2.5v-4.5l-2-.5-1,1.5-3-1.5.5-5.5"/>
      <path data-code="mozdokskij_rajon" data-title="mozdokskij rajon" class="cls-1" d="M65.98,4.62l2.5-4,7.5,5.5,8.5,2.5,1.5,1-.5,1,3.5,2v1l-3,5.5v1.5h1l-1.5,1-3.5,7.5-2.5-.5,1.5-2.5-4-2-1,2.5-2.5-.5-1-1,3-4-6-1.5-1.5,3-2.5,1-.5,2.5h-1l-.5,1-.5,3.76-1.09-.07-.91-5.19,3-2,1.5-2.5,2.5-2-.5-2,2.5-5-2-2-2.5-.5-.5-2.5,1-2.5"/>
      <path data-code="pravoberezhnyj_rajon" data-title="pravoberezhnyj rajon" class="cls-1" d="M53.98,29.99l10,1,2,1-7,10.5,4,3.83v2.17l-3,4-2-2,1-1.5h-1.5l1-2-1-.5-1,1-.5,1-1-3.5-3.43,1.64-.07-2.14,2.5-1.5-2.72-5.34,2.22-.66,2-3-1.5-4"/>
      <path data-code="prigorodnyj_rajon" data-title="prigorodnyj rajon" class="cls-1" d="M34.98,58.62l.5-1,3.5-.64,2-3,3-2.5,1.5,2,1.5-.5v1l2-.5.5-5.86,5.5-2.64,1,3.5.5-1,1-1,1,.5-1,2h1.5l-1,1.5,2,2,3-4v-3.5l1.5-2.5,1,1-1.5,8.5h1.5l-1,1.5,1.5,2-1,.5,2,3,.5,4.5-2,.5-1,2.5h-1l1.5.5-1.5,2-2-.5-.5,1h-1.5l-4,4-1-3-3-.5-1-1.5,1-2-2-3,1.5,1,1-2,2-1,1.5,1,2.5-5h1.5l-1-.5-.5-2,1-2.5-2-1-.5,3.5-2.5-.5v1.5l-2,2.5-2.5,1v1.5l-4,2.5-1.5,4-3,2.5-3,.5-1,3-3-4-1.5.5-1.5-1.86,5-5-1-4.5"/>
      <path data-code="vladikavkaz" class="cls-1" d="M40.98,69.99l3-2.5,1.5-4,4-2.5v-1.5l2.5-1,2-2.5v-1.5l2.5.5.5-3.5,2,1-1,2.5.5,2,1,.5h-1.5l-2.5,5-1.5-1-2,1-1,2-1.5-1-1,1.5-.5,4-2,5-4.5-2-.5-2"/>
    </g>
</svg>