<svg xmlns="http://www.w3.org/2000/svg" viewBox="0 0 177 226.46">
      <path data-code="STA-ALE" d="m47.75,110.71l1.5-1,1.5,1,1-.5,1.5,3,.5-.5,1.5-1.5-3-3,3-3.5-1.5-1,.5-1.5h1l.5.5,3-3.5,1.5,1.5.5-.5,3,1,.85-1.55,6.15,3.4h1.5l.5-1,8,3.65.05,3.05-4.55,2.45-.5-.5-6,1.5-.5,2.5h1l.5,1.5,2.5.5,1.5,1.5-6-1-.5,1,1.5,2-1,1,4.5,7-1,.5.5.5-1.5,1-2,3v2.5l-1,.5.9,2.6-1.9,1.9-5-3-1,1.5-3-2,2-3-1-1.5-1,.5-2.5-1.5-3-6.5-2-1-3-5,1-.5-2-3,2-3v-1.5l-1-.5"/>
      <path data-code="STA-AND" d="m22.25,105.71l2.5-2,.5,1,1-.5,3.5-3.5,3.5-.5,2.5,1.5,1.9-1.95,2.6,1.8,7.95-12.75,3.05,1.9-2,4,7,4-.5.5,2,1.5-2,2-.5-.5h-1l-.5,1.5,1.5,1-3,3.5,3,3-2,2-1.5-3-1,.5-1.5-1-1.5,1,1,.5v1.5l-2,3,2,3-1,.5.75,1.25-3.25,6.25-2,1-2.5,3-1.5-.5-2,3-3-1.5-1.15,1.9-1.85-2.9,1-1.5-1-1,.5-1-2-1.5-2,2-3-1.5-.5,1-4.5-5,5.5-5-1.5-1.5,1.5-2-3-1.5v-2l-1.5-2,1-1,.5-1.5"/>
      <path data-code="STA-APA" d="m101.25,30.21l10.5-2.5-.5-1,1-.5h4.5v5.5l8,10.5v6l2.5,5,9.5,6.5,6,6.5-1.5,3,2,3v2.5l-.5,2,1,2.5-2,5.5-3-.5-1.5-3.5-1,2-6-4-4,5-7.5-4.5.5-1-3-2-.5.5-1-.5-2.5,5-6-3.5,5-8-2-1.5,1-1.5,2,1,4.5-7.5-.5-1-3.5-1-4.5,1-1-3-1,1-1.5-1.5v-2l2.5.5v-8.5h-2l-1-2.5-4.5,2.5,1.5-15.5"/>
      <path data-code="STA-ARZ" d="m108.25,107.21l6-2,.5,2,1.5.5,3.5-1,3-3.5-2-1.5.5-.5,1-2.15,1,.5,7-11,4.5,1.5,6.5,7.5,1-2.35,1,4,1.5,1,2,4.5,4.5,3,.5,4,4,5,2.5,1-18,13.5-3-5-4.5,6v.5l-5.5,5-5.7,2.05-2.3-9.55,2-1-3.5-13-4.5,1.5-1.5-5.5-2,.5-1.5-5.5"/>
      <path data-code="STA-BLA" d="m83.25,96.56l2.5-4h1.5l.5-1,2,1.5,1.6-3,5.9,4,1.5-2,3.5,2-1,2.5,1,.5,1.5,4,4.5-2-.5-.5,3-1.5v1.5l1.5-.5,1,4.5h2l3-3,3,1.65-.5.5,2,1.5-3,3.5-3.5,1-1.5-.5-.5-2-6,2,1.5,5.5,2-.5,3,9.5-9,3-1.5-1.5-4,2-1.5-.5-1-3.5-4,1.5,1.35,2.4-4.35,1.95-3.5-13-4.5,2-2.5-9.35.5-1-2.4-1.1,1.4-2.05v-2l3-4.5.5.5Z"/>
      <path data-code="STA-BUD" d="m93.75,122.71l4-1.5,1,3.5,5.5-1.5,1.5,1.5,9-3-1.5-4,4.5-1.5,3.5,13-2,1,3,12.5-2,.5-1.5,3.5-1.5.5v2.5l3,11-6.5,8.85-1.5-.5.5-2.5-3.5-1.5-3,.5-2-1-.5-2.5-4.5,2.5-2.5-7.5-1.5-2.5-3-1v-1l-6.5-9.5,6-4.35.5-1-.5-2,7.5-3-5.5-10"/>
      <path data-code="STA-ESS" d="m29.25,153.56l1.5-2.5,4.5,3-.5,2.5-2-.5-1-1.5h-2l-1,1-1-3,1.5,1Z"/>
      <path data-code="STA-GEO" d="m54.75,143.21l3,2,4.5-7.5,5,3,2.5-2.5,1,1.35,4.5-3.5,3,5-1,1,1.5,3-3,2,1.5,2.5-2,1.5,1,1.5-1,.5-1,1,.5,2.5-2.5,4v.5l-1,1h-1.5l-2.5-1.5-.5.5.5,4.5,2,2,1-.5.9,3.85-2.4.8-4-1.5-3,.5-2-2-4,1.5-3-.5-1,4h-2l2-5.15-1-2.5-5-3,2-2.85.5.5-.5-1.95.5-.05,5-8-1-1,2-1-2-1.5,2.5-4"/>
      <path data-code="STA-GRA" d="m47.25,72.56l2-2,3.5,2.5h2l1.5-2,1.5,1,1.5-5-3.5-1.5,1-1.35-3.65-3.95,2.15-2.7,6.5,4.5,1.5-2,2,1,5-8,.5,1.5,2,1-3.5,6,1,.5-3,3,.5,2-2.5,3.5,1.5,1-5,8,5.5,5.5-2,3-2-1.5-1.5,3,3,2,3,5v.5l-1.5-.5-2.5,4.65-3-1-.5.5-1.5-1.5-1,1.5-2-1.5.5-.5-7-4,2-4-7.5-4.65,1.5-1.85-1.5-9v-1.15l1.5.5-.5-2h2.5Z"/>
      <path data-code="STA-IPA" d="m66.75,23.21l3.5,2.5,2.5-3.5.5,1.5,3,1,6-7h-.5l2-2.5,6.5,2.5-6.5,9.5,10,3.5,7.5-2,1.5.5v1h-1.5l-1.5,15.5,4.5-2.5,1,2.5h2v8.5l-2.5-.5v2l1.5,1.5,1-1,1,3,4.5-1,3.5,1,.5,1-4.5,7.5-2-1-1,1.5,2,1.5-3.5,5.65-7-4.25-1.5,2.5-8.4-4.85.4-.65-2-5-4,2.5,2.5-2.5-2.5-2.5v-2l-3.5-2-1,1-1.5-1-1,.5-1.5-2.5h-1.5l-1,1.5-2-1,.5-1-2.5-1,.5-2.5-4.5-3.5,1.5-2.5h1l-4-4.5,2-2.5,1.5,1.5,1.5-.5,1-2.5.5.5,1.5-2.5-6-3.5v-1.5l-1-.5,1-1.85-1-1.5,1-2.05"/>
      <path data-code="STA-IZO" d="m14.25,55.21l3-5,1-.5h-.5l1-2,1,1-.5,1.35,1.5-.5,4,2-.5-3,2-1-1-.5,1-1.5-1-.5,8-10.85,1,.5,2.5-5,2.5,4,2-2,3.5,2,2.5-4,3,2-2,4v1.85l2.5,1-1,.5-2,.5-1.5,2,.5,4.5-3.5,4,1.5.5-1,1,7,4.5-1,1,1.95,1.7-1.45,2.3-1-.5-2,2.5-4-2.5-1,2-2.5-2.5v1.5l-.5-.5-1.5,1.5-3.5-1-2-3-2.5-1.5-1,2,.5,1-.5,1-2-.5-2,4-8-7-1,1.5-1-.85-.5-3"/>
      <path data-code="STA-KIR" d="m42.25,169.21l8.6,1.65-1.1,2.85h2l1-4,3,.5,4-1.5,2,2,3-.5,4,1.5,4.5-1.5,1.5,2.85.5,1.5-1,.5,2,6.5h1v-1.5l1.5-.5v-1.5l2-1.5,6.5,3.5,1,1-2.5.15-2,3,1,.5-1,1.5-4-2-.5,2-2,2.5-5-3,.5-1-1.5-1,1-1.5-.5-1-3.5.5-1.5,1.5-3.5-.5-6,6-8.5-9.5-2.5-1-6,1,2-10"/>
      <path data-code="STA-KIS" d="m20.25,157.06l1-1.5,2.5.5-1,.5,1,.5-1,2.5.5,1.5-1,.5v1.5h-2.5l-2.5-2.5.5-3,2.5-.5Z"/>
      <path data-code="STA-KOC" d="m18.25,90.71v3.5l-1,.5.5,1-1.5,1v2l2.5,2,2-2.5-.5-1,1-3.5-1-2.5-1.5.5-.5-1m-16-11.5l6,1.5,1-1,1.5.5.5-2,1.5.5.5-2,3-1,1.5-2.5h.5l3-4.15,1.5,1-1.5,2.5.5,1.5-.5,2.5,5,6.5.5,2-1,2.5.5,1.5,1-1v2.5l2.5-.5-.5,2,1,3,2.5-1,1,.5,2.5,2.5-1,1,2.4,1.7-1.9,1.95-2.5-1.5-3.5.5-3.5,3.5-1,.5-.5-1-2.5,2-.5,1.5-1,1,1.5,2v2l3,1.5-1.5,2,1.5,1.5-5.5,5-1.5-2-7-5,.5-1.5-2.5-4.5,4-5-8-3-1-3-2-.5,1-2.5-2.5-.5,2.5-7H.25l1.5-3.5-1-1.5,1.5-3.5"/>
      <path data-code="STA-KRA" d="m40.25.21l8.5,5.5,2-2.5,3,1.5,4.5,5.5,16.5,11.5-1.5,2-.5-1.5-2.5,3.5-3.5-2.5-1,2,1,1.5-3,5.5-2.5-2-2,1-1-.5-1.5,2-5-3.5-1.5,2.5-3-2-2.5,4-3.5-2-2,2-2.5-4-.5,1-5-3.15,4.5-7.5-1-.5,1-1.5,1,1,.5-1-3-2,1.5-2.35,1,.5,1.5-2v-3.5l2-.5.5-1.5-3.5-2.5L40.25.21"/>
      <path data-code="STA-KUR" d="m78.25,186.21h1l.5-2,4,2,1-1.5-1-.5,2-3,2.5-.15-1.5,2.5,2,2.5-1,1.5,1,1.5,3.5,2,2-3h1l1.5-2,4.5,2.5-1.5,2.5,4.5,3.5.5-1.5,3,2v1l.5,1,4.5,2.5,3-5,1,.5,4-5,2,3.5,1.5-1.5,3,3.15-3.5,3.5,15.5,10.5-7,9.5-1.5-1-5,8-9.5-5.5,3-5-5.5-3.5-8.5,14.5h-1l-.5-1.5h-1.5l-2.5,1.5-1.5-1.5-2,1-1-1.5,1-1.5h-1.5l1.5-1h-1v-1.5l3-5.5v-1l-3.5-2,.5-1-1.5-1-8.5-2.5-7-5,3-4.5,2.5.5,1.5-2.5,3,1.5,2.5-4-2-.5-1.5,2-4-2-2,3-4.5-4,1.5-2.5-1-.5,1-2.5"/>
      <path data-code="STA-LER" d="m39.25,151.56l1.5,3-.9,2.25-1.6-1.1-2-4.65,3,.5Z"/>
      <path data-code="STA-LEV" d="m127.25,137.71l5.5-5v-.5l4.5-6,3,5,17.4-13.25,2.1,3.25-.5,1,17,32,.5,10.5-1.2,1.25-5.3-3.9-3,5.5-8-4,2.5-5.5-1-1-.5,1-8.5-2.5-2.5,2-2,.5-1.5,3-3.5.5-2-2-1.5,2.5-11,3.65-7.5-5-3-11v-2.5l1.5-.5,1.5-3.5,2-.5-.7-2.95,5.7-2.05Z"/>
      <path data-code="STA-MIN" d="m34.25,131.71l3,1.5,2-3,1.5.5,2.5-3,2-1,3.25-6.25,2.25,3.75,2,1,3,6.5,2.5,1.5,1-.5,1,1.5-2,3,3,2-3.5,6-3-2-2.5,4,2,1.5-2,1,1,1-5,8-2.5.35-.5-3-2-1v-4l.5-1.5-2.5-1,1-1.5-.5-1.5-4,.5-.5-2.5-2.5,2-2.5-3,2.5-3.35-4-2.5,2.35-3.1,1.15-1.9Z"/>
      <path data-code="STA-NEF" d="m112.25,169.06l1.5.5,6.5-8.85,7.5,5,11-3.65,1.5-2.5,2,2,3.5-.5,1.5-3,2-.5,2.5-2,8.5,2.5.5-1,1,1-2.5,5.5,8,4,3-5.5,5.5,4-7.5,4-1,5-9.5,4.5-7.5,2.5-.5-1.5-5.5-1.5-2,1.5v3l-1,.5-1-1-1.5,2.5,5,3,1.5,4-1.5,2-6,5-10.5-3.5-3-4-1.5,1.5-2-3.5-2.5-1.5.5-2.5,1.5.5,1.5-2.5-8.5-9-3-.5v-1l3.5-4-1.5-.5"/>
      <path data-code="STA-NEV" d="m18.25,90.71l.5,1,1.5-.5,1,2.5-1,3.5.5,1-2,2.5-2.5-2v-2l1.5-1-.5-1,1-.5v-3.5"/>
      <path data-code="STA-NVA" d="m11.75,18.06l7-10.5,4,3,1.5-1,1,1,1,2-1,1.5,4.5,2.5,3-5,3,2-1.5,2.5,3,2-.5,1-1-1-1,1.5,1,.5-4.5,7.5,5,3.15-2,4-1-.5-8,10.85,1,.5-1,1.5,1,.5-2,1,.5,3-4-2-1.5.5v-2.5l-2-1.5.5-2.5-3,1-7.5-5,1.5-1.5-.5-2,1,.5v-.5h-.5.5l1-1.5-.5-1.5,1.5-1.5-.5-1,1.5-.5-.5-1.5,1-2-1-2.5,2.5-4-2.5-2"/>
      <path data-code="STA-NVS" d="m75.75,110.71l.5.5,4.55-2.45,1.95,7.35,4.5-2,3.5,13,4.35-1.95,4.15,7.6-7.5,3,.5,2-.5,1-6,4.35-2-3-3.5,2.5.5,1-2,1.5-1.5-3,1-1-3-5-4.5,3.5-1-1.35-.6.6-.9-2.6,1-.5v-2.5l2-3,1.5-1-.5-.5,1-.5-4.5-7,1-1-1.5-2,.5-1,6,1-1.5-1.5-2.5-.5-.5-1.5h-1l.5-2.5,6-1.55Z"/>
      <path data-code="STA-PET" d="m72.75,54.06l-.5,1,2,1,1-1.5h1.5l1.5,2.5,1-.5,1.5,1,1-1,3.5,2v2l2.5,2.5-2.5,2.5,4-2.5,2,5-4.5,7,1.5,1-1.5,2,1,.5-3,5.5,4,2.5-.5-1h1l2-4,3.5,2-5,9.5-2-1.5-.5,1h-1.5l-2.5,4-.5-.5-3,4.5v2l-1.4,2.05-5.6-2.55-.5,1h-1.5l-6.15-3.4,1.65-3.1,1.5.5v-.5l-3-5-3-2,1.5-3,2,1.5,2-3-5.5-5.5,5-8-1.5-1,2.5-3.5-.5-2,3-3-1-.5,3.5-6-2-1-.5-1.5,2.5,1Z"/>
      <path data-code="STA-PYA" d="m35.75,155.56l2.5.15,3,1.85.5,1.5-.5,2.5-2.5.5-2.5-2.5-1-2.5.5-.5v-1"/>
      <path data-code="STA-PRE" d="m17.75,157.56l-.5,3,2.5,2.5h2.5v-1.5l1-.5-.5-1.5,1-2.5-1-.5,1-.5-2.5-.5-1,1.5-2.5.5m10-5l1,3,1-1h2l1,1.5,2,.5.5-2.5-4.5-3-1.5,2.5-1.5-1m-18.5-12.5l2-.5,1.5-2,2-.5v-1.5h2.5l.5-1,2.5,1.5,1-2,1,1.5v-1h2l2,1,2-2.5,2,1.5,1.8-2.6,1.05,1.65-2.35,3.1,4,2.5-2.5,3.35,2.5,3,2.5-2,.5,2.5,4-.5.5,1.5-1,1.5,2.5,1-.5,1.5-2-.5-2,1-3-.5,2,4.65-2.5-.15v1l-.5.5,1,2.5,2.5,2.5,2.5-.5.5-2.5h4l1-1,1.5.65-.5.05.5,1.95-.5-.5-2,2.85,5,3,1,2.5-.9,2.3-9.1-1.3.5-1.5-3-2-2.5,3.5-6-4-4,.5-2-1.5-2.5,3.5-1.5-.5-2.5-3.5-2.5-1-1-1.5.5-1.5h1l.5-3,3-1.5-1.5-1.5,1.5-1.5-2-1.5,2.5-3-4.5-2-1.5,2,.5,1h-1l-3.5-3v-.5l1-.5-.5-.5,1-2.5h-1l-1.5-2"/>
      <path data-code="STA-SHP" d="m24.25,68.06l-.5,1.5,1.5,1.5,1.5-1h1.5l-1,.5.5,2.5h2.5l1.5,2-2,.5,2.5,2,2-1,1,1v-.5l.5.5,2.5-1-.5-.5,2.5-.5.5-2.5h1l-1.5-2-.5,1h-2l-.5-1.5.5.5.5-1-.5-1h-2.5l-.5,1.5-3.5,1.5-2.5-1.5,1-.5.5.5,2-2.5-1-.5-1,1.5h-.5l.5-2-1.5-1.5-4.5,2.5m-9.5-9.5l1,.5,1-1.5,8,7,2-4,2,.5.5-1-.5-1,1-2,2.5,1.5,2,3,3.5,1,1.5-1.5.5.5v-1.5l2.5,2.5,1-2,4,2.5,2-2.5,1,.5,1.45-2.3,5.05,5.45-1,1.35,3.5,1.5-1.5,5-1.5-1-1.5,2h-2l-3.5-2.5-2,2h-2.5l.5,2-1.5-.5v1.15l1.5,9-1.5,1.85,4.45,2.75-7.95,12.75-5-3.5,1-1-2.5-2.5-1-.5-2.5,1-1-3,.5-2-2.5.5v-2.5l-1,1-.5-1.5,1-2.5-.5-2-5-6.5.5-2.5-.5-1.5,1.5-2.5-9-6,1-5.5"/>
      <path data-code="STA-SOV" d="m66.75,161.06l.5-.5,2.5,1.5h2-.5l1-1v-.5l2.5-4-.5-2.5,1-1,1-.5-1-1.5,2-1.5-1.5-2.5,5-3.5-.5-1,3.5-2.5,8.5,12.5v1l3,1,1.5,2.5,2.5,7.5-.5,3h-1.5l-.5,3.5h1.5l-.5,3.5-1,1-1.5-1.5v1l-.5,1-3-2.5-4.5,6.5-6.5-3.5-2,1.5v1.5l-1.5.5v1.5h-1l-2-6.5,1-.5-.5-1.5-1.5-2.85-2.1.7-.9-3.85-1,.5-2-2-.5-4.5"/>
      <path data-code="STA-STA" d="m24.25,68.06l4.5-2.5,1.5,1.5-.5,2h.5l1-1.5,1,.5-2,2.5-.5-.5-1,.5,2.5,1.5,3.5-1.5.5-1.5h2.5l.5,1-.5,1-.5-.5.5,1.5h2l.5-1,1.5,2h-1l-.5,2.5-2.5.5.5.5-2.5,1-.5-.5v.5l-1-1-2,1-2.5-2,2-.5-1.5-2h-2.5l-.5-2.5,1-.5h-1.5l-1.5,1-1.5-1.5.5-1.5"/>
      <path data-code="STA-STE" d="m87.25,180.06l4.5-6.5,3,2.5.5-1v-1l2,1,1-4h-1.5l.5-3.5h1.5l.5-3,4.5-2.5.5,2.5,2,1,3-.5,3.5,1.5-.5,2.5,1.5.5-3.5,4v1l3,.5,8.5,9-1.5,2.5-1.5-.5-.5,2.5,2.5,1.5-4,5-1-.5-3,5-4.5-2.5-.5-1v-1l-3-2-.5,1.5-4.5-3.5,1.5-2.5-4.5-2.5-1.5,2h-1l-2,3-3.5-2-1-1.5,1-1.5-2-2.5,1.5-2.5-1-1"/>
      <path data-code="STA-TRU" d="m51.75,29.21l5,3.5,1.5-2,1,.5,2-1,2.5,2,2-3.65,1,.5v1.5l6,3.5-1.5,2.5-.5-.5-1,2.5-1.5.5-1.5-1.5-2,2.5,4,4.5h-1l-1.5,2.5,4.5,3.5-.5,2.5-5,8-2-1-1.5,2-6.5-4.5-2.15,2.7-3.35-3.2,1-1-7-4.5,1-1-1.5-.5,3.5-4-.5-4.5,1.5-2,2-.5,1-.5-2.5-1v-1.85l2-4,1.5-2.5Z"/>
      <path data-code="STA-TUR" d="m99.25,73.56l1.5-2.5,7,4.25-1.5,2.35,6,3.5,2.5-5,1,.5.5-.5,3,2-.5,1,7.5,4.5,4-5,6,4,1-2,1.5,3.5,3,.5-1,5.85,1.5,6-1,1-1.5-1-5-6.5-4.5-1.5-7,11-1-.5-1,2.15-3-1.65-3,3h-2l-1-4.5-1.5.5v-1.5l-3,1.5.5.5-4.5,2-1.5-4-1-.5,1-2.5-3.5-2-1.5,2-5.9-4,3.4-6.5-3.5-2-2,4h-1l.5,1-4-2.5,3-5.5-1-.5,1.5-2-1.5-1,4.1-6.35,8.4,4.9Z"/>
      <path data-code="STA-ZHE" d="m39.25,151.56l2-1,2,.5v4l2,1,.5,3h-4l-.5-1.5-1.4-.75.9-2.25-1.5-1v-2"/>
</svg>