<svg xmlns="http://www.w3.org/2000/svg" viewBox="0 0 266.5 223.5">
      <path data-code="TA-AGR" d="m242.25,78.75l1-.5-.5,1-.5-.5m-.5,0l.5-.5v.5l-.5.5v-.5m-15-11.5l2.5-1.5v-.5l1.5,1.5.5-1h2l-.5-1,1.5-.5.5.5,1.5-2,1,.5.5-1-1-.5,1.5.5.5-1,1,.5v1.5l2-.5,2,.5,1.5-2,.5,1,1-2-1-1,1-1-1.5-.5v-2l1.5,2,2-1.5v-1.5l2,2,1-.5.5,2.5,1-.5,1.5,1-1.5,1-1-1.5v1l-1.5,3h-3.5l-1.5,2.5h-.5l-.5,1-1.5.5v1h-.5l.5,1.5-2.5,1.5,1.5,1-.5,1.5-.5-1.5-1.5,2.5v2l1,1h-1l-.5,1.5,1,1v-2.5l1,.5,1-.5-1-1h.5l.5,1.5h-1v2h-1l1.5.5-1.5,1-.5,1.5,1,1.5v-2h3l-1,3,1,2.5,2-.5-.5,2.5,2.5,1.5.5-1.5,1,.5-1-2,1.5-1,1-3.5-.5-3.5-1.5-2,7.5,1,.5,3.5,3,1.5h-1l-1,2.5.5,1-1,2-2,1.5-1-2-4,3.5-.5,1,.5,1-.5,1h-2.5l-1-1-.5.5.5,1-2,.5v-1l-2.5,2,.5,1-3.5-1.5-1,1v1l1,1-1,1.5.5,1-4-2.5-1.5,1.5-1.5-2.5v-2l-2-3-3.5-4-2,.5-.5-2.5-2.5-2,3-1.5,1.5,1.5v-1l.5-.5,2-3-.5-1.5,1-.5-1-1,1-.5v-1.5l3,5.5,2-2-2-1,3.5-1-1.5-1.5.5-1h.5l-2.5-2.5v-1.5l-5-2.5v-2"/>
      <path data-code="TA-AKS" d="m116.25,113.75l3-1,.5-5.5,1,1.5,1-1,.5.5,1.5-.5.5,1.5,2-.5,1.5.5.5.5v2.5h2.5l3.5,4-.5.5v3.5l1.5-.5-1,1,2.5,2.5h-1.5l-.5,1,1,.5-.5,1,.5.5-.5,1,5.5,2v1.5h-2l-.5,1-2,1.5-2-2-2,1.5.5-1-2.5-1.5,1.5,3.5-1,1h1.5l-1,1.5.5,1.5-4.5,2-3-.5v-2l-1,1v-.5l-1.5-.5-.5,1.5-.5-1-1,2v-1.5l-3-.5.5-1-.5-1-1,2v-3l-1-.5v2l-2-1.5.5-.5-.5-1,.5-.5-1-2,1.5-2v-1l-2-4h.5l.5,1,2,1.5h.5l-1-1,.5-1,1,.5,1-.5-1.5-1,2-1-.5-1,1.5-.5-.5,2.5,1,1,.5-.5v-1l1.5-.5-4-4.15,1-3.35-1.5-1"/>
      <path data-code="TA-AKT" d="m229.75,124.75l4.5-1.5,1-1.5,1.5.5,2-1.5h.5l1.5-2h2l-2.5-.5v-2l1,.5v-.5l-2-.5.5-1-.5-1.5,2.5,1-1-2,.5-.5h-3l-.5-2.5,1.5-1h3v-2h-.5l2-.5-.5-.5,5.5-1,1,1,5,.5.5.5-1.5,1.5.5,1,1.5-1,1.5,1.5v2.5l2-1v2h-2l4.5,2.5-2.5,1.5-.5,1.5,5.5,3.5-1,1,1,2-.5,1.5,1.5,2,1-1.5v2h-.5v1l-3,.5v1.5h-1.5v1l-.5-.5-.5.5-3,1-1-.5-.5.5-1.5.5v1l-1-1-2,.5-.5,1v2h-1v1.5h-2l-1.5,1v1l-2,.5v1l-.5,1h-3.5v-3h-1v-1.5l1-2.5-.5-1.5-2.5.5-1-1.5v-1.5l2.5-1.5-.5-1-5,1-.5-2.5-1,.5-.5-1h1.5l-.5-2.5-2.5.5v-1.5"/>
      <path data-code="TA-ALK" d="m89.25,100.6v-1l1.5-.5.5.5,7.15-4.05.35.7,1.5-1,1,1.5-.5,1,2.5,2.5,4,.5-1.5.5.5,1-.5,1.5,1-.5h.5l.5.5-3,4-1,.5,2.5,1v2l-.5,1,1,2.5-2,1.5.5.5-2,3.5-.5,2.5-3,1.85h-2.5l.5,1.5-1,1,.5,2-6-4,.5,2-1.5-1.5-1.5,2,1,1-2.5,1,1,2.15h-3l.5-2.5-3-1.5-.5-2.5-1-1,4-1-4-1.5v-2h-.5l1.5-1.5v-1l-1.5-1,2-4.5-.5-.5.5-2-1-1,1.5-2.65,2.5-2-.5-1,1.5-.5-1-2,3.5.5Zm4,30.15l.5,1.5-1-.5v-1h-2l-.5,1,.5,1-1,.5v.5l-.5-1,.5-3,3.5,1Zm-1.5,2.5l.5-.5v1l-.5-.5m2,1l.5.5v1.5l-1.5-.5,1-1.5m-5.5-1.5h.5-.5m4-.5l.5-.5v.5h-.5"/>
      <path data-code="TA-ALM" d="m149.75,127.25l1.5-.5.5-3,1.55-.4-.05.9h1v-1l1-1.5-.5-.5,1.4-1.85,2.6,1.75,3.5-1.5,1-2,2,.5.65-1.15.35,1.65-1.5,1.5-1-.5-1,2,.5.5v1.5l-1,1,.5.65-.5,1.5,1.5,1,.5,2h2v1l-1.5,1,2.5-.5.5-1-1-.5,1.5-.5-1-.5,1-1,1,.5-.5,3.5,3,1-.5,1,5-1.15,1-1.5h.5v2.5l-1,3,1.5,1,3.5-1.5,4,1,.5-.2,1.5,3.7,2.5-.35.5,4h1l.5,2-.5.5,3.15.4-.65,1.6-1.5-.5.5,2-3.5,1.5,1,1h-2v3l-1,3,.5-1v.5l.5-.5-.5,1v-.5l-.5.5.5.5h-2l.5,1-1,.5.5,1.5-.9.6-1.1-2.6,1-1h-2l-1-.5-2,2v1l-1-1-3,2-1-2-1,.5-1-3.5-2.5-.5-.5,2.5v-1h-4l2.5-4.5-1.5,1.5.5-1-1.5-.5v-1l-2-2h-1l.5,1h-1l1.5-3-2,.5.5-1-1-.5,2.5-.5-1.5-1v-1.5l-3.05.45,1.55-.95h-2.5l-4-3.5.5-1-1.5-1.5-2,1-.5-2-2.5-.5v-2.5l1.5-.5v-2.5l1.5-.5-.5-1h1l-.5-.5v-1.5h.5l-.5-1-1,.5-1-.55"/>
      <path data-code="TA-ALE" d="m100.75,77.75l1-2,2,1.5,2.5-2,1.5,2,.5-.5,1.5,1.5,3-1.15,4,2.5-.5-2h1l2.5,1v1.5l4-.5v2.5l2.5-.35v3l-2.5,2,1.5,4-4.5,1v1l-1,1,1.5-.5v1l-3,.5,2.5,1.5-2,1.5,1,3.5,1,.5-.5,1,2-.5,1.5,5.5-1.5.5-.5-.5-1,1-1-1.5-.5,5.5-3,1,1.5,1-1,3.35-4.5-2.85-3.5-1-1,1-1-.5-1-2.5.5-1v-2l-2.5-1,1-.5,3-4h-2l.5-1.5-.5-1,1.5-.5-4-.5-2.5-2.5.5-1-1-1.5-1.5,1-1-2h-2.5l2.5-4,.5-4.5.5.5-.5-1,2.5-7.5"/>
      <path data-code="TA-APA" d="m46.75,49.75h2l1-2.5,2,4,2,1,1.5-1,.5,1,1-1.5,2.5,3.5,1.5-1.5,3,1,1-1.5-1-1h1l1.5-4,1.5,1,.5-.5,2.5,2-1,.35.5,4-1.5,2,1.5-1,1,2.5,1.5.15-1,1.5,1,.5h-1.5l-1,1,.5,1-.5.5,2,2-1,1,1.5,2-1.5.5-.5,2.5-1.5,1-5-3-1,.5.5,1-6,.35-.5-2.5h-1.5l-1-1.85,1-3.5-1.5,1.5-1-.5-1.5.5v1l-2-2,.5-2-3-2v-2.5l1.5-2.5-3-2.05,1-1.95"/>
      <path data-code="TA-ARS" d="m126.75,21.75l.5-1.5,5,2,.5-1-1.5-1.5v-2.5l1-2,2-.5,1.5-3-2-.5,1-1.5-.5-4.5h1.5l1.5-1.5.5.5,1-3,1.5,1,2-1,1.5,1.5,2-.5,1,3.5-3.5,1.5,2.5,4,3-2v-.5l1.5-1,1.5,1-1,1.5h-2l-.5,2h4v4h-1.5l-1,.5-.5,1.5-1,.5-4-1-1,1.5,1,.5.5-1.5,1,.5v3l1,.5-1,1,3.5,1-1,.5v2.5l3,2-.5,1,2.5.5-1.5,1.5-.5,1.5-1-.5-1,1-.5,1.5-3-.5-1-1-1.5,2-1,2.5h-3l-.5,1-1.5-.5.5,1-.5,1.5-.5-1-1.5,1v.5h-1.5v1.5l-1-1-.5.5v1h-1l-1.5-3,.5-.5-.5-1h-3l-1.5-2.5v-.5h.5l.5-2.5,1.5-1v-1.5l1-.5v-2l-1,.5-2-.5-.5-.5,1-2-2.5.5v-1.65l3-.35.5-1-2.5-1.5.5-1.5,1.5.5Zm18,14.5l1-.5-.5.5h-.5m-8.5,5l.5.5v.5h-.5v-1m.5-39.5l1-1v.5l-.5,1-.5-.5"/>
      <path data-code="TA-ATN" d="m119.75,4.6v-1.85l2.5.5-.5-.5.5-1.5,2,1-.5,3,1,2,1,.5,1-2,1,2,1-1,3-5,1,.5,1-1h-1V.25l2,1h-1l-1,1.5v2l1.6,1.5.4,3.5-1,1.5,2,.5-1.5,3-2,.5-1,2v2.5l1.5,1.5-.5,1-5-2-.5,1.5-1.5-.5-.5,1.5,1.5.5,1,1-.5,1-3,.35-2.5-.85-.5-2h1v-3.65l1-1-4.5-1-.5-1v-4l1.5-1,1-4h-1l-1,1.5-1.5-1.5,3-2.5Z"/>
      <path data-code="TA-AZN" d="m188.75,152.75h2l-1-1,3.5-1.5-.5-2,1.5.5,1-2.5,1.5-2,2-.5.5-1h1l1-1.5,4,1.5,1.5-2,3,1.5.5,3.5.5.5,1,2.5,3,2-.5,1.5.5,1-1.5,1.5,1.5.5-.5,1.5,1.5.5,2.5,4.5-.5,1-.5.5.5,2-.5,1.5.5,2.5h4l-5,5.55-4.5.45-2-2v.5l-1,.5h-6l-4.5-1.5v-2l-4,.5-2-1-.5.5-1-3-3,2.5-5.5-.5,2-3-1-.5.5-1,1.5-1.5-.4-.9.9-.6-.5-1.5,1-.5-.5-1h2l-.5-.5.5-.5v.5l.5-1-.5.5v-.5l-.5,1,1-3v-3"/>
      <path data-code="TA-BAL" d="m143.25,19.25l1-1.5,4,1,1-.5.5-1.5,1-.5h1.5l-.5-3.5,1.5-2.5,7.5-1.5,1-1.5-.5-1-4-2.5,1-1,2.5,2,2-2.5,2,1-.5,1.5,2,1,1-.5,1-2h.5l1,6-1,.5-.5,1.5,1.5-.5,1-1,1,.5-3.5,3,1.5,4-2.5,1v7l-3,.5-2.5,1.5-.5,1.5-2,1.5-2.5-1h-5.5l-3-2v-2.5l.5-.5-3-1,1-1-1-.5v-3l-1-.5-.5,1.5-1-.5"/>
      <path data-code="TA-BAV" d="m177.25,200.75h2v1-.5h-.5v.5l1.5,1h1l-.5-2,1.5,2,2-.5v-1.5l2-.5-2-3h2l.5-1.5,1.5-1-1-2h1l-.5-1.5h1.5l-1-3,.5-1.5-1-.5,1.5-1-1.5-1v-1l.5.5,1-2,2.5-1,2.5,1.5-1.5,1.5.5,2,2,.5,3.5,3-1,2,1.5.5,1-1.5h2l-1,2.5h-1v1.5l-1-.5v1.5l-1.5.5v2l-1.5.5,1,1.5-1,.5.5,2-1.5,1,.5,1-1,2.5-.5-.5v1.5l-1,.5-1,6-.5.5-1,3v2.5l-4,.5-1.5,2-1.5.5v-2l-1-2.5,1.5-4-2-1h1.5l-.5-1.5-1-.5-2,1.5-4.5-.5,1-1.5h1l1.5-2-2-1,.5-3-1.5-1.5,1-1.5v-1.5"/>
      <path data-code="TA-BUG" d="m176.25,162.75l3-2,1,1v-1l2-2,3,.5-1,1,1.5,3.5-1.5,1.5-.5,1,1,.5-2,3,5.5.5,3-2.5,1,3,.5-.5,2,1,4-.5v2l-1-.5v1.5l-3-.5-1,.5,1.5,2-1,1h.5l-.5.5.5,2.5-.5,2.5-2.5-1.5-2.5,1-1,2-.5-.5v1l1.5,1-1.5,1,1,.5-.5,1.5,1,3h-1.5l.5,1.5h-1l1,2-1.5,1-.5,1.5h-2l.5-3-3.5,1,.5,2.5-2-.5-.5,1-2-1-.5-1,3-.5-1-1.5-2.5-1-3.5-5.5-3,.5v-2.5l-2,1-1-3v-1l1-1,2,.5,4.5-2v-4l4.5.5.5-1-1-1.5.5-1,.5-2-1-2,1-.5-.5-1-3-.5-1-2"/>
      <path data-code="TA-BUI" d="m28.25,68.25l1,.5v-.5l-.5-.5-.5.5m10.5-1l1.5,1,1.5-1.5-1.5-.5-1.5,1m-10.5-3l3.5,1,.5,2.5h1l.5-1,.5-.5-1,1.5h2.5l2-1.5,2-2.5-.5-1h-1l.5-1.5h-.5l-1,.5v1h-1v-2l1-2.5,4,1.5,1-.5v2.5h1l.5-2.5h2v-3l1.5-3.5,1.5,1-1.5,2.5v2.5l3,2-.5,2,1,1,1,1v-1l1.5-.5,1,.5,1.5-1.5-1,3.5,1,1.85-.5,3,1,1-1.5,1v1l-1.5-.5-.5,1.5-2.5,1-1.5-.5.5,1.5-.5-.5.5,3,1.5.5,1.5-2,1,3h1.5l-1.5,1.5v.5l-1,.5-.5.5h-1l.5,1-1,1.5-4.5-2-3,2-1,1.5-4.75.7v-1l-1.25.45-.5-2h-1l3-1v-1l-3,1.5v.5h-1.5l-1-2,1.5-2.5-1-.5,1-2-5-.5,1-1.5-4-4,3-8.5"/>
      <path data-code="TA-CHE" d="m130.25,130.25l2.5,1.5-.5,1,2-1.5,2,2,2-1.5.5-1,1,1.5,2.5-2,.5,1,3-2.5,6,2.5-1.5.5v2.5l-1.5.5v2.5l2.5.5.5,2,2-1,1.5,1.5-.5,1,4,3.5h2.5l-4,2.5.5,1-2.5,1.5.5,1,1.5-.5-3,2-1-.5-3,3.5-.5-.5-1,3.5-2.5-1.5-3,.5-.5-7.5h-.5l-2,3.5-4.5-2,3-4.5v-1l-2,1-2.5-1-1.5.5-1.5-2,.5-.5v-1l-1.5-.5-1.5,1.5-1.5-1,.5-2.5-.5-.5,4.5-2-.5-1.5,1-1.5h-1.5l1-1-1.5-3.5"/>
      <path data-code="TA-CHI" d="m159.25,94.45l-1,1.65-.5-.85.5-.65,1-.15Zm-41,.3l3-.5v-1l-1.5.5,1-1v-1l4.5-1-1.5-4,2.5-2v-3l1-.15,3.5,3.5,2-1.5,1.5,1.5-1,1.5,2,2,11.5-2.5.5-1.5,3.5,4.65-.5,1v1h3l4,3.5-2.5.35.5,1.5,1-1-.5,1h.5v2.5h-1.5l-3-1.5-1,3-2.5.5v1l-1.5-.5-2,2.5-1,3-2.5-.85-2.5,2-.5,2.5v-.5l-5-.5-.5,1.5-1,.5v1.6l-1-1.1h-2.5v-2.5l-2-1-2,.5-.5-1.5-1.5-5.5-2,.5.5-1-1-.5-1-3.5,2-1.5-2.5-1.5"/>
      <path data-code="TA-DRO" d="m9.75,60.75l2-.5-1.5.5h-.5m2,.5h.5l-.5.5v-.5m-2.5,1h1v.5h-1v-.5m15,15l-.5,1.5,1-2-.5.5m-22-5.5l2-1.5,4.5-.5v-2h.5l1.5-3,1.5-.5,1,1,.5-3,.5-1v1l1,1.5-.5.5,3,3v1.5l3.5-1,.5,2,1,.5v2.5h.5l.5-3.5,1.5-1.5-.5-1h1l-1.5,7.5,2.1-.4,2.9,2.9-1,1.5,5,.5-1,2,1,.5-1.5.5-1,1.5-.5-.5v2h-1.5v-2h-2.5v-1h-1l-.5,1h-1l-1,2h1l-1.5,2-3-2.5v-3l2,.5,1-2.5-3-2.5-1.5,1,.5.5-1,1-2,.5.5,1.5-4.5,1v2.5l-2.5,1.5h-2.5l-2-4-1,1h-1.5l-.5,2.5-1-.5,1.5-5.5,1.5-3h2.5l-.5-1.5,1.5-2.5-4.5-1m5-10.5h.5l-.5.5v-.5m27,24.5v-.5l3-1.5v1l-3,1"/>
      <path data-code="TA-ELA" d="m204.25,87.25l.5-.5.5,1-1,1v-1.5m-32-3.5l2.5-2,1.5-3.5,1.5-1,3-7v-1.5l1.5-1,.5,1.5v-2l1,1.5,1.5-.5.5-.5.5,2,2.5-.5v2.5l1,.5,1-2,1.5.5-.5,1.5-.5-.5-1.5.5,2,1.5-1,.5-.5,2.5,2-2,2.5-.5.5,1.5h-1l4,3.5h2.1l-1.1,2.5,3,3.5-.5.5.5,1.5,1,.5-2,1.5,1,1.5,2-1,1,1-1,3.35-3.5,1.5v-.5l-1,.5v1h-3l-3-1.5-1.05-4.85-4.95,1.85-1-.5,1-.5-.5-1-.5.5v1l-3-2.85-1.5,1-1-1-2,2.5v2l-1.5,1-1-2h-2.5l-2.5-1.5v-2.5l1-1.5-.5-3"/>
      <path data-code="TA-YUT" d="m193.75,173.75l1-.5,3,.5v-1.5l1,.5,4.5,1.5h6l1-.5v-.5l2,2,5-.5-3,6.5-2.5,1.5-1,2-5,1.5-.5,1.5-1.5-1-1.5,3.5h-2l-1,1.5-1.5-.5,1-2-3.5-3-2-.5-.5-2,1.5-1.5.5-2.5-.5-2.5.5-.5h-.5l1-1-1.5-2"/>
      <path data-code="TA-KAJ" d="m59.75,35.75l1,1v.5l-1.5-.5.5-1m-18.5,1h.5v2l-.5-1.5v-.5m-4,2h2l.5-1v1.5l1.5,1v1l1,.5,1.5-2h3l.5-1.5,2-.5,1-1.5,3-.5,1-2,2.5.5-.5,1h.5l1-.5,1.1,1.2-.6,1.7,1,2,3-1.5,1.5.5v1l-.5-.5-.5,1,4.5,2,2.65-.8.35,2.3,1.5.5-1,1.5h-.5l.5,1.5-1,1,1.5,1.5-.5.15-2.5-2-.5.5-1.5-1-1.5,4h-1l1,1-1,1.5-3-1-1.5,1.5-2.5-3.5-1,1.5-.5-1-1.5,1-2-1-2-4-1,2.5h-2l.5-3-3-3-1.5,2.5.5,2-1.5-.5.5-1-1-1,.5-2h-1v1l-2,2.5-2.5-1-1,1-1-.5,3.5-4v-1.5l.5-1-1-1.55"/>
      <path data-code="TA-KAM" d="m70.25,60.75l1-1h1.5l1-1,2,.85,2.5-2h.5v-1.35,1.35l1.5-1.35h-1.5l1.5-1-2-.5,2.5-.15-1-1,1-1h2l.5-1.5,1.5,1.5.5-1,.55,2.5,2.5.5-.05.6-1.5,2-1.5,3h3l-1.5,2.5-.5,3,1.5,7-.5,2,1.5,3.5.5,3.35-2,1.5-2-1.5-.5.5-.5,1-.5-.5-.5,1-3.5-1.5-4,1.5-2.5-3-2.5.2-.5-1.7-1.5-1,.5-1-1,.5.5.5h-.5v-2.5l1.5,1,2-1-1.5-2.5-1-.5-.5,1-.5-1,1-1v-.35l1.5-1,.5-2.5,1.5-.5-1.5-2,1-1-2-2,.5-.5-.5-.95"/>
      <path data-code="TA-KAZ" d="m108.25,30.1l-.5,1v-1h.5Zm-16-.35l1.5.5-.5-1.5h1l.5-1,1.5,2,1.5-1h1l.5-1.5,1.5.5,1,2,.5-1,3.5,1.5,1,2,1-1,.5.5-.5,1-1-.5,2,3,1,3.35-2.5,3,.5,3.15h-4l1.5,2.5-3.5,1.5-.5-2.5-1.5-2.5h-1l1,1-.5,2.5h-1v-1.5h-2.5l-1.5,3-.5-1.5,1,.5v-1.5l2.5-2.5-4.75-1.6,1.25-2.05,3-3.35-.5-1.5-4.95-2.6,1.45-1.9-.5-1"/>
      <path data-code="TA-KUK" d="m153.75,29.25h3l2.5,1,2-1.5.5-1.5,2.5-1.5,5.5-1v1l-3.5,2,1,.5.5,2,2.5,2.5,3.5-.5-.5-5.5.5.5,3,4.5-1.5.5-.5,3.5.5.5-.5,2-4,.5.5,2-.5,1.5,4.5,2-1.5,1-1,1.5,2,3-1,1,3-.5,2.5,2.5-1,2.5,2,1,.5,2h1.5l.5-1.5,4-.5,2.5,1.5,2-.5.5,1.5h1.5l-.5,2-1,1-3-1-5,1-1-.5-1,2-.5-3.5-1.5,1-1-1,1-1.5-2-2.5h-1l1,2-3.5-1-.5,1v2h-4l-.5-3-3-.5-1,1,.5,2.5-5,1-.5-.5,1.5-1-3-1-1,2.85-.5-1.5,1.5-4,.5-.5-.5-3.35,3-5-3-4.5-.5-5-.5.5-.5-.5h1.5l-.5-1-1.5,1-1-1,.5-2-1.5-.5-1-4.5m18,64.5l1-1v1h-1"/>
      <path data-code="TA-LAI" d="m90.25,44.6l1-2h1l.25-.45,4.75,1.6-2.5,2.5v1.5l-1-.5.5,1.5,1.5-3h2.5v1.5h1l.5-2.5-1-1h1l1.5,2.5.5,2.5,3.5-1.5-1.5-2.5h1l1.5,3-.5,4,2,2.5,2.5-1-1,2h-1v1l5.5,2.35,2.5,7.5-1.5,2,.5,1.5-2.5.5-.5.5-.5,5.5v2l-2,.15-1.5-1.5-.5.5-1.5-2-2.5,2-2-1.5-1,2-4,1.35-2,1.5-1.5-1-1-3.35-3.5,2-1.5-3.5.5-2-1.5-7,.5-3,1.5-2.5h-3l1.5-3,1.5-2,.5-6.15,1.5-4.5"/>
      <path data-code="TA-LEN" d="m144.25,157.25l2-.5,2.5,1.5,1-3.5.5.5,3-3.5,1,.5,3-2-1.5.5-.5-1,2.5-1.5-.5-1,2.45-1.55,3.05-.45v1.5l1.5,1-2.5.5,1,.5-.5,1,2-.5-1.5,3h1l-.5-1h1l2,2v1l1.5.5-.5,1,1.5-1.5-2.5,4.5h4v1l.5-2.5,2.5.5,1,3.5,1-.5,1,2-1.5,2.5,1,2,3,.5.5,1-1,.5,1,2-.5,2-.5,1,1,1.5-.5,1-4.5-.5v4l-4.5,2-2-.5,1-2h-1l1.5-1.5-2-2-2.5,1-.5,2-1.5.5.5-3.5-1.5-.5-.5.5-1.5-1.5-2.5,1-.5,1.5-2,1.5-1.5-3-.5,2.5-1.5,1.5-1-2.5,1.5-1-.5-1,2-1.5-2-2v.5l-1-.5-.5.5h.5l1,1-2-.5,1-1.5-1,.5-1.5-.5,1-2,1,1v-1l1.5-1,.5-3v-1l.5-.5-4.5-2.5v-1l-3.5-3"/>
      <path data-code="TA-MAM" d="m153.25,63.1l.55-2.1,4.45,1.1,1-1.5-1.5.5,1-2.85,3,1-1.5,1,.5.5,5-1-.5-2.5,1-1,3,.5.5,3h4v-2l.5-1,3.5,1-1-2h1l1.5,1h-.5l1,1.5-1,1.5,1,1,1-1,1,3.5-1,2.5.5,4-3.5,7.5-1.5,1-1.5,3.5-2.5,2,.5,3-1,1.5v2l2.5,2-1.5.9v-.4l-1,1h1l-1,2v2l-1,.5.5-1-1.5.5.5-1-2-.5-3.5,1-4-3-3.5.5-4-3.5h-3v-1l.5-1-3.5-4.65,1.5-1-1.5-2.5,1,.5-.5-1,1.5-.5-1-1,.5-1,2-.5-2-2,.5-1.5,1.5,1.5,1.5-3-2-.5,2-1-2-5-2-2,5-1Z"/>
      <path data-code="TA-MND" d="m209.25,72.75l1-.5-.5,2-1-.5.5-1m-15,3l3-.5,2-2,.5.5v1.5l1.5.5-.5.5.5,3h-3l-4-3.5m10,11.5v1.5l1-1-.5-1-.5.5m-5-5.5l1-1,3,1.5.5-1.5h1.5v-1l2.5.5.5-1.5-1-.5,1-2.5,1,.5-.5-.5,1-1,1,.5v-4h1l.5,3h1.5v4h2l.5,2.5,2-1-1.5-3,1.5-1,1,2.5h1v2l2,1,1,4-9,5.5-2.5-1-4-3.5-1.5,1.5-1,3-1-1-2,1-1-1.5,2-1.5-1-.5-.5-1.5.5-.5-3-3.5"/>
      <path data-code="TA-MNZ" d="m211.75,103.6l2,.5,1-1,2,3.15,1-1h-.5l-.5-1,1,.5,1-2,4.5-1.5.5-2.5.5.5,1-1v1.5l1-.5,1-2,2.5-2.5,1.5,2.5v2l1.5,2.5,1.5-1.5,8,5,.5,1h-1,.5v2h-3l-1.5,1,.5,2.5h3l-.5.5,1,2-2.5-1,.5,1.5-.5,1,2,.5v.5l-1-.5v2l2.5.5h-2l-1.5,2h-.5l-2,1.5-1.5-.5-1,1.5-4.5,1.5v1.5l2.5-.5.5,2.5h-1.5l.5,1,1-.5.5,2.5.5,1-3.5,1-1-2h-1l-1.5,1.5h-1.5v-1l1-1.5-3.5-4,1.5.5v-1h-2l-3.5,2.5-1-1.5-2.5-.5v-1.5h1.5v-1.5l-1-1v-1.65h-1.5l.05-1.15-1.55-.85v-5.5l2.5-1.5-4.5-4-.5-1.5,1-1v-.5l.5-1Z"/>
      <path data-code="TA-MUS" d="m203.25,140.75l3.5-4,.5-2.5,1-1.5v-1l2-1v-1.5l1.5-2,1.5-1-.5-2.5,1-1,2-.5,1,1v1.5h-1.5v1.5l2.5.5,1,1.5,3.5-2.5h2v1l-1.5-.5,3.5,4-1,1.5v1h1.5l1.5-1.5h1l1,2,3.5-1-.5-1,5-1,.5,1-2.5,1.5v1.5l1,1.5,2.5-.5.5,1.5-1,2.5v1.5h1v3l-4.5-.5-1.5,2v1-1l-3.5.5v3l-1,.5-5.5-4-3,.5.5,1.5-1,.5-7.5-3-1.5,3.5-1.5-2.5-.5-3.5-3-1.5-1.5,2-2-2"/>
      <path data-code="TA-NAB" d="m203.75,94.6l.05-.8.45.3-.5.2m-7,2.3h3v-1l1-.5v2h2l-.5-.5,1.5-1,1-1.5h3.5v1.5l1.5-1v1.5l-1,.5,1.5,3-.5,1-3,1,1,1h1.5v.4l.5-.4v.5l-2-.5-.5-1h-3v-.5l1-.5-1-2-2,1v1.5l-3,.5v-1.5h1.5l-3-1.5.5.5h-1.5l1-.5-1-2"/>
      <path data-code="TA-NIZ" d="m144.75,104.1l2-2.5,1.5.5v-1l2.5-.5,1-3,3,1.5h1.5v-2.5h-.5l.5-1-1,1-.5-1.5,3.5-.5-.5.65.5.85,1-1.65,1.5-.2,4,3,3.5-1,2,.5-.5,1,1.5-.5-.5,1,1-.5v-2l1-2v-.6l1.5-.9h2.5l1,2,1.5-1v-2l2-2.5,1,1,1.5-1,3,2.85v-1l.5-.5.5,1-1,.5,1,.5,4.95-1.85.2.9-2.65.95.5.5.5,4-2,1.5.5.5.5,2-3,1-1-1,1-.5-1-.5-1.5,1.5h-1l-.5,1.5-1,1,.5,1-3.5,1-1.5,4-2.5.5v1l-1.5-.5-1.5,2.5-2-1.5-1,3,1-.5,1.5,1.5-1.5,1.5-2.5.5-2-1.5.15.85-.65,1.15-2-.5-1,2-3.5,1.5-4.5-3,3-2h1l-.5,1,1.5-.5.5.5,1-2.5,2-.5-1-1,.5-1-8-4.5-2.5.5-1.5-1.5-2.5,1-1-2.5-2-1"/>
      <path data-code="TA-NOV" d="m131.75,111.75l1-.5.5-1.5,5,.5v.5l.5-2.5,2.5-2,2.5.85,1-3,2,1,1,2.5,2.5-1,1.5,1.5,2.5-.5,8,4.5-.5,1,1,1-2,.5-1,2.5-.5-.5-1.5.5.5-1h-1l-3,2,1.9,1.25-1.4,1.85.5.5-1,1.5v1h-1l.05-.9-1.55.4-.5,3-1.5.5,1,.5,1-.5.5,1h-.5v1.5l.5.5h-1l.5,1-6-2.5-3,2.5-.5-1-2.5,2-1-1.5h2v-1.5l-5.5-2,.5-1-.5-.5.5-1-1-.5.5-1h1.5l-2.5-2.5,1-1-1.5.5v-3.5l.5-.5-2.5-2.9v-1.55"/>
      <path data-code="TA-NUR" d="m92.75,132.25v-.5l-.5.5h.5Zm-.5,1.5v-1l-.5.5.5.5Zm-5-4.15l2.5-1-1-1,1.5-2,1.5,1.5-.5-2,6,4-.5-2,1-1-.5-1.5h2.5l3-1.85.5-2.5,2-3.5-.5-.5,2-1.5,1,.5,1-1,3.5,1,4.5,2.85,4,4.15-1.5.5v1l-.5.5-1-1,.5-2.5-1.5.5.5,1-2,1,1.5,1-1,.5-1-.5-.5,1,1,1h-.5l-2-1.5-.5-1h-.5l2,4v1l-1.5,2,1,2-.5.5.5,1-.5.5,2,1.5v-2l1,.5v3l1-2,.5,1-.5,1,3,.5v1.35l1-1.85.5,1,.5-1.5h1.5v1l1-1v2l3,.5.5.5-.5,2.5,1.1.75,1.9-1.25,1.5.5-2.5,1.35-1,1.5-3,1.5v.5l-1.5,1.5-2-1.5-2.5,4,.5,1-2.5,1.5-.5,2.5-2-.5-1.5,3-2-1,1.5-1.5-1-1h-2.5l-2-2,.5-2-2.5-.5-4.5,1.5-3-.5v-1h.5l1.5-5.5-1.5-.5.5-5.5h-2v1.5l-1.5-.5-.5,1-2-1,1-3.5-.5-1h1v-1.35l-.5-.5-1,1.85-3-3,1-.35-.5-1,.5-1h2v1l1,.5-.5-1.5-3.5-1-.5,3,.5,1.35-2.5-1.5,1-.5-1-2.5"/>
      <path data-code="TA-PES" d="m132.25,55.1l.5.5v-.5h-.5m-1,.5v.5h.5v-.5h-.5m-3,1h1v-.5h-.5l-.5.5Zm-20.5-11.85l-.5-3.15,2.5-3,4,1.5v-1l1,.5.5-.5h-.5l1-1,1,3.5,2,.5,2-1v-1l1.5-1.5,2.5,2.5h1.5l.5-1.35h3l.5,1-.5.5,1.5,3-.05.65-.95.25,1.5,1,1.5,4.5-1,3,3,5-2.5-.5-2.5,1.5.45.6-.45.9-2.5-1v.5l-1,2.5-.5-.5-.5,1-4.5-4.5-1,1h-1l-.5.5-2.5-2.5-2.5.5-5.5-2.35v-1h1l1-2-2.5,1-2-2.5.5-4-1.5-3,3-.05Z"/>
      <path data-code="TA-RYB" d="m113.75,58.6l2.5-.5,2.5,2.5.5-.5h1l1-1,4.5,4.5.5-1,.5.5,1-2.5v-.5l2.5,1,.45-.9,1.05,1.4-1.5,2-1-.5v1.5l1-1,1.5,1,1,2,1-1.5,3-.5,8.5-.5-2-3.5h2.5v2.5l.95.65,1.05-.15,2.5,2.5,2,5-2,1,2,.5-1.5,3-1.5-1.5-.5,1.5,2,2-2,.5-.5,1,1,1-1.5.5.5,1-1-.5,1.5,2.5-1.5,1-.5,1.5-11.5,2.5-2-2,1-1.5-1.5-1.5-2,1.5-3.5-3.5-3.5.5-.5-1,.5-1.5-4,.5v-1.5l-2.5-1h-1l.5,2-1,.5-3-3v1h-1v-2l.5-5.5.5-.5,2.5-.5-.5-1.5,1.5-2-2.5-7.5"/>
      <path data-code="TA-SAB" d="m144.75,36.1h1-1m-5,2.65h2.5l1-2.5,1.5-2,1,1,3,.5.5-1.5,1-1,1,.5.5-1.5,1.5-1.5-2.5-.5.5-1h2.5l1,4.5,1.5.5-.5,2,1,1,1.5-1,.5,1h-1.4l.4.5.5-.5.5,5,3,4.5-3,5,.5,3.35-.5.5-.5,2.5-2.5-1.5-.5,2-1.5.5-1.5,1,.5,1,1.05-.1-.55,2.1-5,1-.5-.5,2.5-4.5-1.5-1-2,.5-.5-2.5-3.5,1.5,2.5-3-1-1.5.5-.5,1-2.5-3.5-1,.5-1-1.5-4,1-.5-2.5-4.85"/>
      <path data-code="TA-SAR" d="m190.25,122.6l3-2v-1l2-1.5,1.5.5,2-1.5,3,3,3.5.5,2-1.5,5.5-.5,1.55.85-.05,1.15h1.5v1.65l-2,.5-1,1,.5,2.5-1.5,1-1.5,2v1.5l-2,1v1l-1,1.5-.5,2.5-3.5,4,2,2-4-1.5-1,1.5h-1l-.5,1-2,.5-1.5,2-.35.9-3.15-.4.5-.5-.5-2h-1l-.5-4-2.5.35-2-5v-1l1-.5-.5-2,1-1.5,1,1,2-2.5-.5-4,.5-.5.5-1.5-.5-.5"/>
      <path data-code="TA-SPA" d="m64.25,83.6l2.5-2.5,6.5-.5,2.5,3,4-1.5,3.5,1.5.5-1,.5.5.5-1,.5-.5,2,1.5,2-1.5-.5-3.35,3.5-2,1,3.35,1.5,1,2-1.5,4-1.35-2.5,7.5.5,1-.5-.5-.5,4.5-2.5,4h2.5l.65,1.3-7.15,4.05-.5-.5-1.5.5v1l-3.5-.5,1,2-1.5.5.5,1-2.5,2-1.5,2.65,1,1-.5,2,.5.5-2,4.5,1.5,1v1l-1.5,1.5h.5v2l4,1.5-3.5,1.35-2.5-2h-3.5l-2-1.5.5-1,1.5-.5.5-1.5-1-1.5,2-2v-2l-2-.5,1-1.5h2l-1-1.5,1-3.5-1.5-4,1-.5-1.5-.5-.5-4.5-2-.5.5,2-1.5.5-1-1.5h-2l-3,2.5-1-.5-1-2.5-1,1-2.5-1.5.5-1.5,1.5-9,1.5.5,1.5-1.5-2-.5"/>
      <path data-code="TA-TET" d="m34.75,88.6l7-1,1-1.5,3-2,4.5,2,1-1.5-.5-1h1l.5-.5,1-.5v-.5l1.5-1.5h-1.5l-1-3-1.5,2-1.5-.5-.5-3,.5.5-.5-1.5,1.5.5,2.5-1,.5-1.5,1.5.5v-1l1.5-1-1-1,.5-3h1.5l.5,2.5,6-.35-.5-1,1-.5,5,3v.35l-1,1,.5,1,.5-1,1,.5,1.5,2.5-2,1-1.5-1v2.5h.5l-.5-.5,1-.5-.5,1,1.5,1,.5,1.7-4,.3-2,2,1.5,1-1.5,1.5-1.5-.5-1.5,9-.5,1.5-2-1-5.5,10.5-14-7.5-2-5,1-1-.5-1.5-3,1.5-.5-3"/>
      <path data-code="TA-TYU" d="m136.25,42.25h.5v-.5l-.5-.5v1Zm-5.05,2.6l.05-.65h1v-1l.5-.5,1,1v-1.5h1.5v-.5l1.5-1,.5,1,.5-1.5-.5-1,1.5.5.5-1h.5l2.5,4.85-1,.5,1.5,4-.5,1,3.5,1-1,2.5-.5.5,1,1.5-2.5,3,3.5-1.5.5,2.5,2-.5,1.5,1-.5,1.5-2,3-1.05.15-.95-.65v-2.5h-2.5l2,3.5-8.5.5-3,.5-1,1.5-1-2-1.5-1-1,1v-1.5l1,.5,1.5-2-1.5-2,2.5-1.5,2.5.5-3-5,1-3-1.5-4.5-1.5-1,.95-.2Zm1.05,10.25h.5v.5l-.5-.5m-1,.5h.5v.5h-.5v-.5m-3,1l.5-.5h.5v.5h-1m24,3.5l1.5-1,1.5-.5.5-2,2.5,1.5-1,1.5.5,1.5,1.5-.5-1,1.5h-2.5l-1.95-1.1-1.05.1-.5-1Z"/>
      <path data-code="TA-TUK" d="m182.25,103.6l1-1,.5-1.5h1l1.5-1.5,1,.5-1,.5,1,1,3-1-.5-2-.5-.5,2-1.5-.5-4,.5-1,.5-.05-.5-.45,1.65.05.85,3.95,3,1.5,1,2-1,.5h1.5l-.5-.5,3,1.5h-1.5v1.5l3-.5v-1.5l2-1,1,2-1,.5v.5h2.5l1,1,2,.5v-.5l-.5.4v-.4h-1.5l-.5-1h-.5l3-1,.5-1-1.5-3,1-.5v-1.5l-1.5,1v-1.5h-3.5l-1,1.5-1.5,1,.5.5h-2v-1.5l3.5-1.5,2-6.35,1.5-1.5,4,3.5,2.5,1,6.8-4.25,2.2,1.75.5,2.5,2-.5,4,4.5-2.5,2.5-1,2-1,.5v-1.5l-1,1-.5-.5-.5,2.5-4.5,1.5-1,2-1-.5.45.9.55.1-1,1-2-3.15-1,1-2-.5-.5,1v.5l-1,1,.5,1.5,4.5,4-2.5,1.5v5.5l-5.5.5-2,1.5-3.5-.5-3-3-2,1.5-1.5-1.5,1.5-1.5h2.5l-1-2v-1l-7.5-4.5.5-1-1,1-.5-.5,1-2-1,.5-1-1-2,1-2-2.5-1.5.5v-1l-.5,1.5-.5-1"/>
      <path data-code="TA-VER" d="m71.75,40.1l.5,1-.5-3,1-.5.5-3,2,1,.5-1h1.5v-1l1.5,1,2.5-2v-1l2.5,2,1-.5-.5-.5,2-4,3,1v2l7,3.65.5,1.5-3,3.35-1.5,2.5h-1l-1,2-1.5,4.5-.45,5.5-2.5-.5-.55-2.5-.5,1-1.5-1.5-.5,1.5h-2l-1,1,1,1v.5l-2.5-.35,2,.5-1.5,1h1.5l-1.5,1.35h-.5l-2.5,2-2-.85-1,1-1-.5,1-1.5-1.5-.15-1-2.5-1.5,1,1.5-2-.5-4,1.5-.5-1.5-1.5,1-1-.5-1.5h.5l1-1.5-1.5-.5-.5-3.5h2Z"/>
      <path data-code="TA-VYS" d="m107.75,30.1v1l.5-1h-.5m-7-15.5l2-2,3,.5,2-1h1l1-2,1.5,1.5,1.5-.5-.5-2.5-1,.5-2-1.5.5-2h4.5l1-1.5,1-.5-.5-.5,1-1,1.5,1.5,1.5-2,.5.5-.5,2.5-3,2.5,1.5,1.5,1-1.5h1l-1,4-1.5,1v4l.5,1,4.5,1-1,1v3.65h-1l.5,2,2.5.85v1.65l2.5-.5-1,2,.5.5,2,.5,1-.65v2.15l-1,.5v1.5l-1.5,1-.5,2.5h-.5l1.5,3-.5,1.35h-1.5l-2.5-2.5-1.5,1.5v1l-2,1-2-.5-1-3.5-1,1h.5l-.5.5-1-.5v1l-4-1.5-1-3.35-2-3,1,.5.5-1-.5-.5-1,1-1-2-3.5-1.5-.5-2.65,1-.5.5,1.5h1v-1l-1-.5-.5-1.5,4,.5-2.5-4-2,.5-1.5-6.5"/>
      <path data-code="TA-ZAI" d="m191.25,91.6l-.5,1-.5-.5,1-.5Zm-28.5,30l1-2,1,.5,1.5-1.5-.5-2.5,2,1.5,2.5-.5,1.5-1.5-1.5-1.5-1,.5,1-3,2,1.5,1.5-2.5,1.5.5v-1l2.5-.5,1.5-4,2.5-1.5,1,.5.5-1.5v1l1.5-.5,2,1v1.5l2-1,1,1,1-.5-1,2,.5.5,1-1-.5,1,7.5,4.5v1l1,2h-2.5l-1.5,1.5,1.5,1.5-1.5-.5-2,1.5v1l-3,2,.5.5-.5,1.5-.5.5.5,4-2,2.5-1-1-1,1.5.5,2-1,.5v1l.5,1.3-.5.2-4-1-3.5,1.5-1.5-1,1-3v-2.5h-.5l-1,1.5-5,1.15.5-1-3-1,.5-3.5-1-.5-1,1,1,.5-1.5.5,1,.5-.5,1-2.5.5,1.5-1v-1h-2l-.5-2-1.5-1,.5-1.5-.5-.65,1-1v-1.5l-.5-.5"/>
      <path data-code="TA-ZEL" d="m59.75,36.1l-.5.5,1.5.5-1-1m-.5-8.5h1l.5-1,2,1.5,1-3,1,.5-1.5,2.5.5.5,1.5-2.5,3.5,2,.5-1.5,1.5-1v-1h2v-1.5l2,2,2.5.5,1-.5-.5-1.5.5-1,2,1-1-2,.5-.5-.5-1.5,3-2,2.5-.5,6,3.5,1.5-.5,2-2.5,1-.5-1.5-2h2v-1.5l1.5-.5-.5,2.5,1.5-.5,1.5,1.5,1-1,1.5,2v3.5l2-.5,2.5,4-4-.5.5,1.5,1,.5v1h-1l-.5-1.5-1,.5.5,2.65-.5,1-1-2-1.5-.5-.5,1.5h-1l-1.5,1-1.5-2-.5,1h-1l.5,1.5-1.5-.5.5,1-1.45,1.9-2.05-1.05v-2l-3-1-2,4,.5.5-1,.5-2.5-2v1l-2.5,2-1.5-1v1h-1.5l-.5,1-2-1-.5,3-1,.5.5,3-.5-1h-2l.15,1.2-2.65.8-4.5-2,.5-1,.5.5v-1l-1.5-.5-3,1.5-1-2,.5-1.5,1-1.5,2-1-2-2,1.5-2h-3l1-2"/>
</svg>