<svg xmlns="http://www.w3.org/2000/svg" viewBox="0 0 388.5 336.25">
      <path data-code="TYU-ABA" d="m168.75,242.9l3,2.5h3l2-3v-2h2l1.5,2v2l2.5.5.5-1.5,10.5-.5,2,1.5,4.5-1.5,6.5,1.5.5-.5.5-2,4,.5,3.5,2-3,6.5-4.5,3.5-7-1-2.5,1,1.5,1,1.5-1.5,1,4.5,2,1-1,1.5v4l-3-1-5.5,2,1,3.5h1.5v1.5l-1,.5,1,3.5h1v2.5l-.5,2h.5l-4,7.5-3,3.5-15-4.5-1,2-11-9.5.5-1,2.5-.5,1-4-1.5-5.5-1.5-1-1,.5v-4.5l1-2v-1.5l1.5-.5,3-2,.5-2h-1.5l.5-2.5,2-1v-1l-2.5-1-.5-1.5,1-2-.5-2.5"/>
      <path data-code="TYU-ARM" d="m58.25,246.9l.5-1.5,1,.5,2.5-6,3-4.5-2-2,4.5-1.5,1-3,9,2-.5,2,5.5-.5-6.5,11,1.5,2,1-1,2,.5,1.5-1.5,3.5,2,3-4,2,4h2l2.5-8,2.5.5,2,1.5-.5,1.5,2.5,1-1,5-1.5-.5-.5,1.5,1,2-1,3,3,.5-.5,1h-2l-4-2v1.5l1,.5.5,4-.5,2.5v1.5l-.5,1,.5,1.5-2,2.5,2.5,1.5-1.5.5-2,6-5,1-2,1.5h-2l-1.5-2,.5-2.5-1-1.5-3.5.5-4-2-2,2v-2.5l-3-1-.5-1.5h-1.5l-.5-9.5,1-.5-1-3.5.5-2,1.5-1-7.5-2v-1l-3.5-1"/>
      <path data-code="TYU-ARO" d="m122.25,197.9h6.5l1-3.5,1-1-1-3,1.5-3h4l.5-1,1.5,1,2.5-2.5,15,2v-1h2l.5-2-2-1,3-1,.5,3.5-1,1.5v1l2,1.5,1-1,1,2.5,1.5-.5-.5.5v1l4.5-1v2.5l3,1.5v1l-1.5,3-.5,2-3.5,2.5h-1.5l-.5,7-2.5,2.5-3.5.5-1.5,4.5,2.5.5v4.5l3.5,1-1.5,3-5.5-1.5-3,1-8.5-2,1.5-3.5-9-2-8.5-5-1.5-1.5v-1.5h.5l-.5-3.5h.5v-1.5l.5-.5-1.5-4,1-1-4,.5.5-3"/>
      <path data-code="TYU-BER" d="m95.25,252.4l8.5,3,5,4,3-1.5v-.5l.5-1.5,4.5.5,1,5,3,1.5,1,5.5,2,2-.5,1,1,1.5h3v2.5l-5,1-1.5,3.5.5,3-3,5,2,1.5-8.5,2.5.5,1h-3l.5,7-1.5,5.5-2,1.5-1-1,1-2-2.5-2v-1.5l-4-.5-1-4.5-3-3,1-4.5-4-2.5.5-3,1-3-.5-.5,1-2.5-1.5-1,2-6,1.5-.5-2.5-1.5,2-2.5-.5-1.5.5-1v-1.5l.5-2.5-.5-4-1-.5v-1.5"/>
      <path data-code="TYU-GOL" d="m105.75,207.9l11-6,3,.5,2-1.5,4-.5-1,1,1.5,4-.5.5v1.5h-.5l.5,3.5h-.5v1.5l1.5,1.5,8.5,5,9,2-1.5,3.5h-1.5l-2.5,6.5,2,1-1.5,3-1.5-1-.5,2.5-2,4-1,1v.5l-4.5-1.5.5-1-2.5.5-2.5,3,1.5,1.5-.5,1.5-2.5-1.5-3.5,3,2,.5-.5,2.5,2.5,1-.5.5v1l-2.5.5-2-2-1,.5v4.5l-6-.5-.5,1.5v.5l-3,1.5-5-4-2.5-1,.5-1-3-.5,1-3-1-2,.5-1.5,1.5.5,1-5-2.5-1,.5-1.5-2-1.5,2-2.5-1-1.5,5-3-2-3v-2l2.5-1-.5-4,2.5-4.5h2l-3.5-2,.5-1.5,4-.5.5-1.5-4-3"/>
      <path data-code="TYU-ISE" d="m4.75,169.9l8,3.5,2.5-5.5,5,3,2.5,3,4.5.5,1,2.5.5,1,4.5.5-.5,10.5,2,2.5v1l.5,5v3l-2,1-3-.5-3.5-2,1.5,1-.5,1.5.5,1.5-1.5,1.5-1-.5-.5,1.5-3.5-1.5-1,1,.5.5-.5,1.5-2.5,5-6.5-3.5-8-2-1.5-1-1.5-2-.5-2.5,4,1.5.5-.5.5-1.5-2.5-1,.5-3-1-.5.5-2-1.5-2-.5-3v-1l1.5-1.5-.5-.5.5-1.5,1-1-.5-2,2,.5.5-2-2-.5,2-2.5-1-.5,1.5-1.5-1.5-2,.5-2v-1"/>
      <path data-code="TYU-ISH" d="m144.25,263.9l2.5-.5.5-1.5h3l.5,1-.5,1.5.5,1.5-1.5-.5v1l-1-.5,1,1-1,1-1-2.5-3-1.5"/>
      <path data-code="TYU-ISM" d="m144.25,263.9l3,1.5,1,2.5,1-1-1-1,1,.5v-1l1.5.5-.5-1.5.5-1.5-.5-1h-3l-.5,1.5-2.5.5m-27.5-7.5h1.5v-4.5l1-.5,2,2,2.5-.5v-1l.5-.5-2.5-1,.5-2.5-2-.5,3.5-3,2.5,1.5.5-1.5-1.5-1.5,2.5-3,2.5-.5-.5,1,4.5,1.5v-.5l1-1,2-4,.5-2.5,1.5,1,1.5-3-2-1,2.5-6.5,11,1.5,1.5,3-.5,2,.5,2,9,3.5-1,4.5,1.5,1.5v1l5.5,1,.5,1-1,2,.5,1.5,2.5,1v1l-2,1-.5,2.5h1.5l-.5,2-3,2-1.5.5-1.5,5,.5,3,1-.5,1.5,1,1,3.5.5,2-1,4-2.5.5-2,3-1,3-2.5-1.5h-3.5l-1-1-4.5,4-4-2v-1h-4.5l-1.5-1.5-.5,1-3-2.5-5-1.5-2,3-.5-.5.5-1.5v-2.5h-1l2-2.5-3-1.5-.5,1h-3l-1-1.5.5-1-2-2-.5-5.5-3.5-1.5-1-5"/>
      <path data-code="TYU-YAL" d="m45.75,193.4l2-1.5.5.5,1.5-1,2,1.5h-1v1l.5,1.5-2.5,1.5-3-3.5"/>
      <path data-code="TYU-YLM" d="m45.75,193.4l3,3.5,2.5-1.5-.5-1.5v-1h1l-2-1.5-1.5,1-.5-.5-2,1.5m-12-13l3-.5v-2l-.5-.5,1-2,3.5.5,4,4,6.5-.5,1-2.5,2.5-2-4.5-.5-1.5,1.5v-2.5l2-1.5.5-2.5,2.5.5,5.5-5.5h2.5l.5-1,4,3.5v-1l5,1,1.5-1,2,1.5-1.5.5-1,1.5,2.5,1,1-.5-.5-.5,2,.5-.5,3,1,1,2.5,1v1l-.5,2-2.5-.5-.5,1h3.5l.5,2.5-5-2-4,12-1.5,2-4-2.5h-1l-1.5,3-2-1-1,1-1.5-.5-.5,4-1,2.5h-3l-2.5-1.5-2,1.5-3-1,1,1.5-1,.5.5.5h-6l-1,1-2.5.5v.5l-2.5-.5-1,1-.5-1,1-.5h-1l-.5-1,1.5-.5v-3l-.5-5,.5-1-2.5-2.5,1-8.5"/>
      <path data-code="TYU-YAR" d="m64.75,156.9l3-1,.5-2,1.5-1,4,1,2-1-.5-1.5h1v-1l5,1.5h5l-1.5-4,1-4h-2l1.5-1-2-4-3.5-2.5,2-4.5-.5-2-3.5-2.5,1.5-.5v-2l1.5.5.5-1.5,3.5-1.5,4,1,1.5-.5,1.5,1.5v-1l.5-.5,1.5.5,2-1.5,1,1,2.5-1.5h1l.5-1v-1.5l1-.5-1-3-10-6,2-2.5-3.5-2-1-7,8.5-2,20.5,12-2.5,11.5,2.5,2v4.5l-1.5,1,3.5,1.5-1.5,1-1.5-.5-1.5.5,2,2.5-.5.5.5.5-2.5,1v.5h-2l-1,3,2.5,1-1,2.5,5.5,2-1.5,2,1.5,2.5,3,1.5.5-1,4,1.5.5,1.5-1,.5v2.5l-2,1.5v1h2.5l-2,3.5-2.5.5-2.5-1.5-3.5,1,2,5.5-2,2.5,1,.5-2.5,4.5-4-2-3,4.5-3-2.5-4.5,1-1.5-2,1-2.5-16.5,1-1,3.5-2,1-2.5-2,.5-3-2-.5.5.5-1,.5-2.5-1,1-1.5,1.5-.5-2-1.5-1.5,1-2.5-1-2.5.5-2-3-.5.5v-1.5l-.5-.5,2.5,1,.5-1-1.5-.5v-4.5"/>
      <path data-code="TYU-YUR" d="m76.75,177.9h3l.5-3,2-3v-1.5l16.5-1-1,2.5,1.5,2,4.5-1,3,2.5,3-4.5,4,2,2.5-4.5,11,6.5,3.5-1,2.5,2-1,2,3.5,3.5-1.5,3.5,1.5,1.5-.5,1h-4l-1.5,3,1,3-1,1-1,3.5h-6.5l-.5,3-2,1.5-4-.5-2.5-3-1.5,1,.5,1h-1v1.5l-4,1.5-7-2.5v2l-.5,1-5-1.5-.5,2,1,.5-.5,2.5h-11.5l.5-3-10-5,1-.5v-1.5l1.5-.5.5-1.5,1.5.5,1.5-5,2,1,1-2-3.5-1.5,2.5-7.5-1-.5-.5-2.5-3,.5-.5-1"/>
      <path data-code="TYU-KAZ" d="m109.25,292.9h3l-.5-1,8.5-2.5-2-1.5,3-5-.5-3,1.5-3.5,5-1,.5-3.5,3,1.5-2,2.5h1v2.5l-.5,1.5.5.5,2-3,5,1.5,3,2.5.5-1,1.5,1.5h4.5v1l4,2,1.5-1,1,8-3,1,.5,3.5-3,4-.5,2-1,1,.5,2-3,2.5-1.5,3-2.5-.5-.5,1,1,2,.5,3.5-4-1.5-.5,1-2-.5-2-2,.5-1.5-2-1.5-2.5,2.5h-4l-.5-4-3.5-4-2.5-.5.5-1.5h-1.5l-2,4.5,2,1-.5,5.5h-1v-3h-1l-5.5-6,1.5-5.5-.5-7"/>
      <path data-code="TYU-NTA" d="m21.25,111.25l23.5-6v5l1,.5v1.5l.5.5,1-1.5,3-.5-.5-1,1,.5,3-2.5-1-1.5,2-2.5,2.5,1,1,2,2.5-3.5,5.5,1v-1.5l2.5-.5v-1l5,.5,5,2,3-1.5,1-1h-.5v-1l1.5.5,4.5-2.5,1,7,3.5,1.5-2,2.5,10,6.5,1,2.5-1,1v1l-.5,1.5-1-.5-2.5,2-2-1-.5,1-3,.5.5,1-2-1.5-1.5.5-3.5-1-3.5,1.5-.5,1h-1.5v2h-1.5l3.5,2.5v2.5l-1.5,4.5,3.5,2.5,2,4-1.5,1,2-.5-1,4,1.5,4-5.5.5-4.5-1.5v1h-1l.5,1.5-2,1-4.5-1-1,1-.5,2-9.5-4-1,1-3-2.5.5-1.5h-2.5l-.5-1.5h-1l.5-1-1.5-1,2-1.5-1-2-1,.5-3-1.5-2.5,3.5-13.5-5-2.5.5-1-1.5,1-3.5v-2l-4.5-1.5,1.5-1,.5-1-7-5,3.5-6.5h2.5v-3l-2.5.5.5-2.5h-1.5l.5-1.5-.5-.5"/>
      <path data-code="TYU-OMU" d="m72.25,216.25l1-1,.5,1,1-1.5v-2.5l2.5-3.5,6.5-1,10.5.5,1-3h-1l.5-2,5,1.5.5-1.5v-2l7,3,3.5-1.5.5-1.5,1-.5-.5-.5,1.5-1,3,3-10.5,6,4,3-.5,1.5-4,.5-.5,1,3.5,2.5h-2l-2.5,4,.5,4.5-2.5,1v1.5l2,3-5,3,1,2-2,2.5-2.5-.5-3,8-1.5-.5-2-4-3,4.5-3.5-2-1.5,1h-2l-1,1-1.5-2.5,6.5-10.5h-5.5v-1.5l-6.5-1,1.5-4.5-2.5-.5,3.5-8-1-1"/>
      <path data-code="TYU-SLA" d="m143.5,308l3-2.5-.5-2.5,1-1,.5-2,3-4-.5-3.5,2.5-.5-1-8.5,3.5-3,1,1.5h3.5l2.5,1.5,1-3.5,1.5-1.5,8.5,8,2.5,1.5,1-2,3.5,1-1.5,4,3.5,3,1-1h5.5l2.5,2.5-3-.5-2.5,1.5-1.5-.5v-1l-4,.5,1,2-2,1.5-1,3v3l2.5,3,2.5.5,1,1.5v1.5l-2,1.5-3,4-3.5-1-6.5,4.5,1,5.5-1,2.5-3.5,2.5-1,2-4,.5-3.5,2.5-4-3-1-2.5-4-1.5-1.5-6.5-2-3.5-3.5-2,2.5-9"/>
      <path data-code="TYU-SOR" d="m152.25,226.25l1.5-1,6,2,1-1.5.5-1.5-3.5-1v-4.5l-2.5-1,1.5-4,3.5-.5,2.5-2.5.5-7.5,1.5.5,4-3.5,3.5.5,3.5,2h9.5l3,4-17-3.5v1l-2,1.5,1.5,2.5,4.5.5,5.5,10h6l.5,2-1.5,1,.5,2,1.5,1.5,1.5,4.5-1.5.5-2,2.5-2-.5-1,3.5,5,3.5-.5,4.5h-4l-.5,1-2.5-.5v-1.5l-1.5-2.5-2,.5v2l-2,3h-3.5l-2.5-2.5v1.5l-5.5-1v-1l-2-2,1.5-4-9-3.5-.5-2v-2l-1-3"/>
      <path data-code="TYU-TYU" d="m27.25,146.75l4-1,1-1-.5-2,.5,1,5,1,.5-.5v1l3.5,1v1.5l.5,3-.5,1h3l-.5,1.5-.5,1v.5l-4.5-2.5,1,1.5v1h.5v2.5l.5.5v2.5h-2.5l-.5-1.5-.5.5-2.5-2h-1l-.5-2h-1l-.5.5-3-1.5,2.5-.5-.5-.5-4.5-.5.5-2h1.5l-2-1h2v-1.5l-1-1.5m-2,13h1l1.5-3,1.5.5,1-2,1.5,1-1,1.5-.5,2-2,2-3-1.5v-.5"/>
      <path data-code="TYU-TYM" d="m25.25,159.75v.5l3,1.5,2-2,.5-2,1-1.5-1.5-1-1,2-1.5-.5-1.5,3h-1m2-13l1,1.5v1.5h-2l2,1h-1.5l-.5,2,4.5.5.5.5-2.5.5,3,1.5.5-.5h1l.5,2h1l2.5,2,.5-.5.5,1.5h2.5v-2.5l-.5-.5v-2.5h-.5v-1l-1-1.5,4.5,2.5v-.5l.5-1,.5-1.5h-3l.5-1-.5-3v-1.5l-3.5-1v-1l-.5.5-5-1-.5-1,.5,2-1,1-4,1m-14.5-12l1.5-3,2,1-.5-2.5,1-1,.5-5,1.5.5,7,5-.5,1-1.5,1,4.5,1.5v2l-1,3.5,1,1.5,2.5-.5,13.5,5,2.5-3.5,3,1.5,1-.5,1,2-2,1.5,1.5,1-.5,1h1l.5,1.5h2.5l-.5,1.5,3,2.5,1-1,9.5,4-3,1v4.5l1,.5v1l-2.5-1,.5.5-.5,1.5,1-1,2,3.5-2-.5-2.5-2.5v1h-2.5l-6,5.5-2-.5-.5,2.5-2.5,1,.5,3,1.5-1.5,4.5.5-2.5,1.5-1,3-2,.5-4.5-.5-4-3.5-2-.5-.5.5-1.5-1-.5,1.5.5,3.5-3.5.5v-2.5l-5-.5-1-3.5h-5l-2-3.5-4.5-2,3-4.5-4.5-.5-1,1-1.5-1.5,1.5-3h-1l.5-1.5-1-.5,1-1.5.5,1,.5-.5-1-2.5.5-1.5v-2l.5-2.5h.5v-3.5l3.5-4.5-2.5-3.5,1.5-1.5-2.5.5-1.5-1.5"/>
      <path data-code="TYU-TOB" d="m143.25,110.75l1-1,2,1,.5-2h-.5l.5-2.5,1-.5-1-2.5,3,1.5,3.5-1,.5,3.5h4.5l-1,2-.5,3.5-6.5-.5-1.5,1.5-.5-1-1.5,1.5-1.5-.5.5-2.5-1.5.5-1-1m4.5,6.5l.5-.5h1v1.5h1.5-3v-1"/>
      <path data-code="TYU-TBM" d="m147.75,117.25v1h3-1.5v-1.5h-1l-.5.5m-4.5-6.5l1,1,1.5-.5-.5,2.5,1.5.5,1.5-1.5.5,1,1.5-1.5,6.5.5.5-3.5,1-2h-4.5l-.5-3.5-3.5,1-3-1.5,1,2.5-1,.5-.5,2.5h.5l-.5,2-2-1-1,1m-63.5-51.5l12.5,6.5,4-1,11.5.5,5.5-18,7.5-1.5,2,3.5,10-3.5,11.5-2,3-4,2,11-.5.5,3,4.5-.5.5,2,6.5-2,4,1,1.5-1,3.5,8,12,8-3,1,.5-1,1,9,3-.5,2,2,.5-1,2.5,7,2-1.5,12-3,1.5-2.5,3v1.5l-2,1.5-6,10.5-4.5,4.5,1,2-1,2-.5-.5-1.5.5-2-1.5v-1l.5-.5v-1l-2.5,1.5.5-1.5-.5-.5v2h-2l-1.5-1-1,.5.5.5v1.5l3,8-5,3.5-1,6.5-2,1.5v1l-9.5,2-2-1h-11.5l-1-2-3.5-1-.5,1-3-1.5-1.5-2.5,1.5-2.5-5.5-1.5,1-3-2.5-.5,1-3.5,2,.5-.5-.5,3-1-.5-.5.5-.5-2-2.5,1.5-.5,1,.5,2-1-3.5-2,1.5-.5-.5-5-2.5-1.5,2.5-12-20-11.5-8.5,2-4.5,2.5-1.5-.5v1.5l-3,2-5-2-1-17.5,6.5-25"/>
      <path data-code="TYU-UPO" d="m20.75,204.75l1-.5,3,1,1-1h.5l2-1-.5-2,.5-1-1.5-1,1-.5,2,2h3.5l.5,1.5h1.5-1l.5,1.5,1-1.5,2.5,1-.5,2h1l-.5,1.5-1,.5.5,1.5,3-.5,1-.5,2,1.5,2.5-1,1.5,1,2,3.5.5,1-1,1.5,1,1.5-1.5,1v1l-3-1-2,1.5.5.5v2l2.5.5v1.5l1,.5h4l.5-1,2.5-1,3,3.5.5,1.5-3,.5-.5,1v.5l-1.5.5,1.5,2,7.5,1,3,3-3,4.5-2.5,5.5-3.5-1-.5,1.5-5.5-2,1-2.5-1-1.5v-1l-1-.5h-1l-2,2-6.5,1.5-4-9-4.5-2-2.5,2-4,1.5-4.5-7.5-1-4.5,1-.5v-1.5l-2.5-5.5,1.5-3h-1l.5-2,2-3,.5-1.5-.5-1"/>
      <path data-code="TYU-UVA" d="m147.25,39.75l5.5-1.5,10,3,6-.5,5.5-3,5.5-7,6-10,4.5,2.5,22.5-8,1-1.5-4-7.5-2-2.5,4.5-3,3.5-.5,11,4.5v4l6,2h11l1.5,1.5,1.5,2v2.5l2,1.5,1,2h12l7,6.5,7.5-4,.5,8.5,7,5.5.5,4,7,5.5,1,1.5-.5,3.5.5,1,5.5,2,1.5,1.5,3.5,12,4,7-2,6,2,3,.5,2,7,2.5h6l1.5,2.5-3,4.5,4,8.5-4,3.5.5,1,15,7.5,8-.5,4,4.5,4.5.5,2,5,1.5,2,22,5,2.5,3.5h4l3,3,2.5,4-10.5,6.5v1.5l-1.5,1-.5,2-4,.5-5.5,2.5.5.5-1,.5v.5l-1,.5h.5l-1,1,.5.5-1,1-6.5,1.5-9.5,5.5-37-10-7.5,4.5-3.5,3.5h-2.5l-21.5-6.5-1.5-3v-2.5l-3-3-19-1-4-2-2,1-2-.5v-1.5l1.5-1-1-1.5,5-14.5,2.5-1,1-2-.5-2-3.5-2-.5-2-1.5,1-.5-1,1.5-.5v-1.5l-1-.5.5-1.5-1-1h-2.5l-1-1,.5-1-3.5-.5v-2.5l.5.5-.5-1h1l.5-1-1.5-3,.5-1-1-1-.5-.5.5-.5-3-1.5-4,2.5-2.5-2.5-2.5,1-2.5-.5v1l-1,1-2-1.5-3,1-3-1.5-1,1.5-4.5-2-.5.5h-2l-1,1-.5-1-2.5.5-.5-1.5h-.5l-1.5,1.5-1.5.5.5,2-1.5,1.5,1,1-.5.5.5,1-.5.5h.5l.5.5-1,.5v1.5l-4,2h-3l-2.5-2.5-2,1.5h-1l-2.5-2.5-3-1-.5-1.5-4-1,2-2,3-1.5,1.5-12-7-2,1-2.5-2-.5.5-2-9-3,1-1-1-.5-8,3-8-12,1-3.5-1-1.5,2-4-2-6.5.5-.5-3-4.5.5-.5-2-11"/>
      <path data-code="TYU-VAG" d="m115.25,159.75l3-.5,3,1,2-.5,2.5-3h-2.5v-1l2-1.5v-3h12.5l2,1,9.5-2v-1l2-1.5,1-6.5,5-3.5-3-8v-1.5l-.5-.5,1-.5,1.5,1h2v-2l.5.5-.5,1.5,2.5-1.5v1l-.5.5v1l2,1.5,1.5-.5.5.5,1-2-1-2,4.5-4.5,6-10.5,2-1.5v-1.5l.5-1,4,1,.5,1.5,3,1,2.5,2.5h1l2-1.5,2.5,2.5h3l4-2v-1.5l1-.5-1-.5.5-.5-.5-1,.5-.5-1-1,1.5-1.5-.5-2,1.5-.5,1.5-1.5h.5l.5,1.5,2.5-.5.5,1,1-1,3-.5,4,2,1-1.5,3,1.5,2.5-1.5,2.5,2,1-1v-1l2.5.5,2.5-1,2.5,2.5,4-2.5,3,1.5-.5.5.5.5,1,1-.5,1,1.5,3.5-1.5.5.5,1-.5-.5v2.5l-24.5,34.5v1l-2-.5-.5,1.5-1,1,.5,1,1-.5,1,.5-1.5,1,1,.5-.5,2-2.5,4,2.5,1.5-.5,2.5,2.5,1.5-1,10h1.5l1,2.5-1,2.5-2.5,1-2,2-6.5,1.5-2.5,2.5-.5,3,2,4,5,1.5v3l-1.5.5-1,3,.5,1.5h1.5l-1,.5.5.5-1,1h-5l-1.5-1,.5-1.5-2.5.5-.5-2h-5.5l-2,.5-1.5,4-1,.5-3-4h-9.5l-3.5-2-3.5-.5v-1l1.5-3v-1.5l-3-1.5v-2l-4.5.5-.5-.5,1-.5h-1.5l-1-2-1,1-2-2-.5-.5,1.5-1.5-1-3.5-2.5.5,2,1.5-.5,1.5h-2v1l-15-1.5-2.5,2.5-3.5-2.5,2-3.5-3.5-4,1-1.5-2.5-2.5-3.5,1.5-12-7,1.5-3-1.5-5.5"/>
      <path data-code="TYU-VIK" d="m169.25,205.75l2-1.5v-1l17.5,3.5,2-4.5,5-.5h2.5l1.5,2,1.5-.5-.5,1.5,2,1h4.5l1-1-.5-.5,1-.5h-1.5l-.5-1.5.5-2,3.5,1.5,1.5-.5v-1.5l3-2-2-2.5,1-1.5,1.5.5.5-2,2.5-1,3,2,1-1.5h1.5l.5,1-1.5,1.5,3,1-1.5,3.5,1.5,1-.5,2-1-.5.5,4.5,3.5,2.5,1,7,8,13v4l-.5,8h-4v.5l-2,5-6-2v2l-1,1-2.5-1.5-1-1.5-1.5.5-3.5-1.5-1-3h-2l-1,2.5-1,.5-3-1-.5,2.5h-.5l-6.5-1-5,1.5-2-2-6,1,.5-4.5-5-3.5,1-3.5,2,.5,2-2.5,1.5-.5-1.5-4.5-1.5-1.5-.5-2,1.5-1-.5-2h-6l-5.5-10-4.5-.5-1.5-2.5"/>
      <path data-code="TYU-ZAV" d="m38.25,202.75l2.5-.5,1-1.5,5,.5,1.5-1.5-1-1,.5-.5,2.5,1,2-1.5,2.5,2h2.5l1.5-2.5.5-4,1,.5,1.5-1,2,1,1.5-3h.5l4.5,2.5,1.5-2,3.5-12,6.5,2-2.5,8,3.5,1-1,2-2-.5-1.5,5-1.5-.5-.5,1.5-1.5.5v1.5l-1,.5,10,5-1,2.5-5.5,1-2.5,3.5v2.5l-1,1.5-1-.5-.5.5,1,1-3.5,8,2.5.5-1.5,4.5-2-1-1,2.5-4.5,2-6.5-2-1.5.5-1.5-1-.5-1.5,1.5-.5v-.5l.5-1,3-.5-.5-1.5-3-3.5-2.5,1-.5,1h-4l-1-.5v-1.5l-2.5-.5v-2l-.5-.5,2-1.5,3,1v-1l1.5-1-1-1.5,1-1.5-.5-1-1.5-3.5-2-1-2.5,1-2-1.5-1,.5-3,.5-.5-1.5,1-.5.5-1.5h-1l.5-2.5"/>
</svg>