<svg data-code="RU-TUL" xmlns="http://www.w3.org/2000/svg" viewBox="0 0 121.25 135.39">
    <g data-code="tul_skaja_oblast_" data-title="tul&amp;apos;skaja_oblast&amp;apos;">
      <path data-code="aleksinskij_rajon" data-title="aleksinskij rajon" class="cls-1" d="M64.62,11.76l1,.5.5-1.5,3.5,1-.5-4,3-.5,2.5,2.5-.5,3,1.5,1,1.5-.5,1.5-2.5,3-.5,2-2v2.86l-1,.5v1l2,2.5-2,.5.5,1.5-.5,1-4,.5,1.5,1.5-1.5,1.14-.5,1.5-1,.5h1l-.5,1.86,1-.5.84-2.52,1.66.02.5,1.5,1-1,.5,1-.5,1,.89.44-2.38,5.19-1-4.5h-2l1,2-1,1-2-2-2.5,1.5-1-.5-1,1-.5-.5-.5,1.5-4.5.5-2-1-.5-2.5-2,1-1.5-3,1.5-2-.5-1.5,3.5-1.5.5-2.5h1l-.5-2h-2v-1l1-.5v-2"/>
      <path data-code="arsen_evskij_rajon" data-title="arsen&amp;apos;evskij_rajon" class="cls-1" d="M13.62,56.12h.5v-.5h-.5v.5ZM14.12,43.26l.5.5,1-1,2,2,2-1,1-2.5,3.5,3.5.64-.96,1.86.83,1.5,1.5-.5,1.5,1.5-1,3,.5,1.5,1.5-.5,1.5,2,1.5-.5,2,1-.5,3.5,2-1,.64,1.5,1-.5,1.5h-4v2l-5.5,1.5-1.5-2-3,1-2-1.5-.5,1.5h-1l-4.5-1.5-1-.5-1,1.5-1-1h-2.5l-1.5,1-1-1.5-2,.5v-2l-1-1,1-1.5v-1.5l1.5-1.5,3.5-1,.5-1h-1.5l1-1.5.5-2h1l-.5-2.5,1-.5Z"/>
      <path data-code="belevskij_rajon" data-title="belevskij rajon" class="cls-1" d="M8.62,25.76l4.5,1,1-2.5h2v-.5h1.5l.5-.5,1.5.5.5,2.5,1-.5v-2.5l2,2-.5,1.5,2,.5-.5,1,1.5,2.5,2,.5,1.5-.5,1.5,3.5-.5,1h-4.5l1,4-2.5,1,.5,1.5-1,1.5,1.14.54-.64.96-3.5-3.5-1,2.5-2,1-2-2-1,1-.5-.5-1,.5.5,2.5h-1l-.5,2-1,1.5h1.5l-.5,1-3.5,1-2.5-1.5,1-1h-2.5l-2.5-4.5-1,.5-.5-1,2.5-2-.5-2,.5-1,2.5-1,1.5,1,1.5-1-1.5-2,.5-.5-2.5-1.5,1.5-2-.5-.5.5-1.5h2.5l.5-1-1-3.5"/>
      <path data-code="bogorodickij_rajon" data-title="bogorodickij rajon" class="cls-1" d="M67.38,73.98l2.24,1.28,1-1.5h1.5l.5.5h4.5v1l-2,.5,2,1-.5,1.5,1,1,1.5-1.5-.5-1,3,2,1-.5-.5,1.5,1.5.5.5,2-2.5.5-.5,1.5,2,3-1,1.5h1.19l-2.19,4.5,4,1v2l-1.5,2-2,.5-5.5-4-1,1-1-.5v.5l-1,1-2-2.64-3-1,.5-2.86-4-2.5,1-2-1.5-4.64-1.5-1.36"/>
      <path data-code="chernskij_rajon" data-title="chernskij rajon" class="cls-1" d="M7.12,59.26l2-.5,1,1.5,1.5-1h2.5l1,1,1-1.5,1,.5,4.5,1.5h1l.5-1.5,2,1.5,3-1,1.5,2,2.98-.81,4.01,8.68-2.5.5-1,3-1,.5v2l1,1-.5.5,2,1.5-1.5,5.5,2,.5-.5,2.5h1.28s-.28,2-.28,2l2.5.64-1.5,1.5-1.5-.5-1,2-2.5-3h-5l-4-3v-2l-3.5-1,1-1.5v-.5l-4.5-1,1.5-.5-3-1.5-1-1.5.5-1.5h-1l1-1-1-4h1l1-1-1-3-1,1h-2.5l-1.5-1-.5-2,1-2.5-2-.5v-2.5"/>
      <path data-code="donskoj" class="cls-1" d="M85.62,74.12v-1h1.5v-.86l7.5-1.64.57,1.75-1.56-.61-.5,1.5-1,.5-1-1.5-.33.42.82.94-2,1.5-3-2-1,1v1l-1-.5v-.5h1ZM90.12,76.62v1l1-.5-1,1-1-.5,1-1ZM90.12,78.12v1l-1-.5,1-.5ZM85.62,76.62h1v-.5l-1.5-.5.5,1ZM84.62,75.12l.5.5-1,1-.5-1,1-.5Z"/>
      <path data-code="dubenskij_rajon__tul_skaja_oblast_" data-title="dubenskij_rajon_(tul&amp;apos;skaja_oblast&amp;apos;)" class="cls-1" d="M47.62,25.62v1.5l1-1,1,1.5,1-.5.5-1.5.5-.5,1.5,1.5v-2l1.46-1.46.54-.9,1.71,1.98,3.29.52,1.5,3,2-1,.5,2.5,2,1-.5,1-2,.5v1.5l1.5,1-1.5,2,1,.5-2.5.5.5,2-1,2h-1l-.5,1.5-.5-1-1,1-5.5-2.5h-2.5v1l-2,.36-4-3.5,2-8.36-.5-.64-1.5-2,.5-1,2.5-.5Z"/>
      <path data-code="efremovskij_rajon" data-title="efremovskij rajon" class="cls-1" d="M36.62,113.26h2.5l2.5-2.5,2.5-1,1,1,1-.5v-3.5l2.5-2,1.5-2,1,.5,5.5-.14v2l2.5,1.5,1,2.5,2.5-1.5,1,.5.5-2,1,4.14,1,1,2-.5-2.5,2.5h1.5l-.5,1,2.5,3-1,.5v.5l-.5,1,1.5,2-1,.5v2l-2,.5-1-.5-1,1.5,1.5,1v3l-3,2h-1l-.5,2-1-.5-1.5.5-.5-1-1.5,2.5-1-1,1-1-.5-2.5-2,1-3.5-1-1.5,2-2-.5,2-3.5-.5-2-2.5.5-.5-4h-1.5l1-1.5-3-1.5-3-3-3,1.5-1-.5,1.5-4.5"/>
      <path data-code="gorodskoj_okrug_tula" data-title="gorodskoj okrug tula" class="cls-1" d="M71.12,43.76l.5,1h1.5l-1,1-2.5,1h1.5l-1.5.5.5,1-1,.5h1v1l2,1v-1h1.5l-1-.5,1-2,1-.5-.5,1,.5,1,.5-1.5,2-1.5.5,1.5-1,3,.5.5.5-.5.5-.5v-1.5l1.5-1.5-.5-.5,1,.5-1-1,1-.5-1-2-1,.5v-.5l2-.5-1-1,1-3h-.5l-.5,1-1.5.5-1,2-.5-.5-1,1,.5-1.5-1.5,1-.5-.5v.5l-1.5,1v1l-1-.5M63.62,31.76l2-.5.5-1,4.5-.5.5-1.5.5.5,1-1,1,.5,2.5-1.5,1,.5,1,1.5,1-1-1-2h2l1,4.5,3.5-1,.5.5-1.5,1.5v2.5l-1.5,1-.5,4,2-1.5,3.5,2,1-.5,1-1.5,2.37,3.94-2.37,1.06.5,1.5,1,.5-1,.5-.5,1,4.5,1v1l-2,1-1.5-1-1.5,1-1-1-2,.5-.5,1.5-1-1h-1.5l-1.5,2,1,1.5-1,1.5h-1.5l-.5-1-1,.5-1.5-1.5v1.5l-2,2-4,1.5-1.5-1.5-1-6.5-1.5-.5-2,.5-.5-.5.5-2.5-3.5.5-2.5-3.5,1-1,.5,1,.5-1.5h1l1-2-.5-2,2.5-.5-1-.5,1.5-2-1.5-1v-1.5"/>
      <path data-code="jasnogorskij_rajon" data-title="jasnogorskij rajon" class="cls-1" d="M84.62,25.62l1-.5.5,1,4-1,.5-1.5,6,2.5.5-2.5,2.5-2-1-1.5.88-3.09,3.62-.27,2-2v-1l.5-.5h1l-.5-2,5.5,2.5,1.5,2-.5,2-2.5,1,2,1.5v1.5l-1,1.5h-.5l-.5,1h.5l-.5,2-1.5,1,1.5,1-.5,2-2,.5-.5,1-1,.5-1,2.5h-1l1-.5v-1l-1-1-.5,1v1.5h-1v-1l-1.5,1,1.5,2.5h-1l-.5,1.5h1l-.5.5-3,.5v1.5l-4-.5-.5,1.5h-2l-3-5-1,1.5-1,.5-3.5-2-2,1.5.5-4,1.5-1v-2.5l1.5-1.5-4,.5,2.38-5.19,1.11.56Z"/>
      <path data-code="kamenskij_rajon__tul_skaja_oblast_" data-title="kamenskij_rajon_(tul&amp;apos;skaja_oblast&amp;apos;)" class="cls-1" d="M33.12,93.76l.8-.76,1.2-2.24,1.5.5,1.5-1.5-2.5-.64,4.5-.5.5,3,2-1-.5,1,2.5.5.5,3,2.5.5,2.5,1.14.5.5-1,3v1l1.5,2-1-.5-1.5,2-2.5,2v3.5l-1,.5-1-1-2.5,1-2.5,2.5-1,.5-2.5-3.5.5-2h-4l-1-1,1-2,1-3.5,4.5-5.5-3.5-1-1-1.5"/>
      <path data-code="kimovskij_rajon" data-title="kimovskij rajon" class="cls-1" d="M93.12,73.26v-1l.5-.5,3.5,1.36h2.5l.5,2,1.5.5-1,1.5h2l1-1.36,1.5,1-.5,2.5-2.5.5v1l1.5.5.5-.5v-1l1-.5.5,1.5-2.5,2.5v2.5l1.5.5v1.5l-2.5,1-1-1.5-1.5,1.5,1,3h-3l1,2-1,1.5-1-.5v2.5l3,.5-1,3-1.5.5-2.5,3-7-1-.5-2.5-3.5-2.5,1.5-2v-2l-4-1,2.19-4.5h2.31l4-2.5v-4.64h.5v-2l2-3.5-.5-1.5.5-.86,1-.5Z"/>
      <path data-code="kireevskij_rajon" data-title="kireevskij rajon" class="cls-1" d="M67.12,58.76l4-1v-1.5l3.5-1,2-2v-1.5l1.5,1.5,1-.5.5,1h1.5l1-1.5-1-1.5,1.5-2h1.5l1,1,.5-1.5,2-.5v.5l1,1-.5.5-.5,1,1.5,2.5-1,1.5h-1.5v1.5l-1.5,1.5.5,1-1,1.36,2,1.5v1l-2-1.5-2,1.14-.5,2h-.5l-.5,1h-1.5l.5,1.5-2.5,1-1,1.5.5.5.5,3h-1.5l-1,1h-4.5l-1,1.5-3.5-2-4.5-5.5,3-2,1-1.5-.5-.5h2l-1-1.5,1-3.5"/>
      <path data-code="kurkinskij_rajon" data-title="kurkinskij rajon" class="cls-1" d="M63.12,103.62l3.5.5.5-1.36h1l4-2v-1l1.5-.5-1-1.5.5-1,1-1v-.5l1,.5,1-1,5.5,4,2-.5,3.5,2.5.5,2.5,5.44.78-.94,1.72,1.5,2-1.5,1.5-1.5-.5-.5,1.5-1.5.5v-2l-5-1.5-1.5,1.5.5,2-1.5.5-1,1-.5,3.5-2,2.5-2-2-1.5.5-1-1.5h-3.5l-2,1-1-2,.5-1h-1.5l2.5-2.5-2,.5-1-1-2-6.64"/>
      <path data-code="novomoskovsk" class="cls-1" d="M86.62,61.62h1.5l1.5-1,2,.5h1.5l2-.5h-3l5.5-5.5,2,4,2-1.5.5.5-.5,3.5,5-.5,1.5-1.5,2.5,3v2.5l1,1-1,2.5-2,.5,2.5,1-.5,2.5-1.5,1.5h-4l-1,1.5.5.5-2,1h-2l1-1.5-1.5-.5-.5-2h-2.5l-1.93-.75-.57-1.75-7.5,1.64v-4.14l-2-2.5.5-1.5,1-.5v-2"/>
      <path data-code="odoevskij_rajon" data-title="odoevskij rajon" class="cls-1" d="M30.12,35.26l.5-1-.93-2.17,4.43-.47,2.5-2,1-2h2l1-1.5,1-.5v3l2.5,1.5,2.5-.36-2,8.36,4,3.5v1l-2.5,2.5,1.5,2-1.5,1.5,1,.5v2.5l-1,1-1-.5-1,1v1.5l-1.5,1.5-3.5-1-3.5-2-1,.5.5-2-2-1.5.5-1.5-1.5-1.5-3-.5-1.5,1,.5-1.5-1.5-1.5-3-1.36,1-1.5-.5-1.5,2.5-1-1-4h4.5Z"/>
      <path data-code="plavskij_rajon" data-title="plavskij rajon" class="cls-1" d="M39.12,58.26l.5-1.5-1.5-1,1-.64,3.5,1,1.5-1.5v-1.5l2,4,4,.5,1,4.5-2,.5.5,1.5-1.5,1.5h1.5l-.5,1,2,1v.5l-.5.5,1,2.5-1,2-1-.5-1,1h-1.5l1,4.5h-4l-3.5,1-.5,1.5-2,2.5v2l-2,.5-.22,1.51h-1.28s.5-2.51.5-2.51l-2-.5,1.5-5.5-2-1.5.5-.5-1-1v-2l1-.5,1-3,2.5-.5-4.01-8.68,2.52-.69v-2h4Z"/>
      <path data-code="rabochij_poselok_novogurovskij" data-title="rabochij poselok novogurovskij" class="cls-1" d="M80.12,20.12l-1.5,4.5-1,.5.5-1.86h-1l1-.5.5-1.5,1.5-1.14Z"/>
      <path data-code="shhjokinskij_rajon" data-title="shhjokinskij rajon" class="cls-1" d="M48.62,41.62l2-.36v-1h2.5l5.5,2.5,2.5,3.5,3.5-.5-.5,2.5.5.5,2-.5,1.5.5,1,6.36,2,1.5v1.14l-4,1-1,3.5,1,1.5h-2l.5.5-1,1.5-3,2,1.5,1.86-2.5,3-2-.5-1-1.5h-3l-1,1.5-2-1-1-2.5.5-.5v-.5l-2-1,.5-1h-1.5l1.5-1.5-.5-1.5,2-.5-1-4.5-4-.5-2-4,1-1,1,.5,1-1v-2.5l-1-.5,1.5-1.5-1.5-2,2.5-2.5v-1"/>
      <path data-code="slavnyj" class="cls-1" d="M13.62,55.62h.5v.5h-.5v-.5"/>
      <path data-code="suvorovskij_rajon" data-title="suvorovskij rajon" class="cls-1" d="M24.62,9.12l1.5-.5,1.5.5-1,.5v1l3,1.5,1.5,3.5,2-.5,1-1,.5-1h1l.5,1.5,1.5-1,.5,3,1.5-.5,1,1,.5-.5.5-.5,2.5,1,.5-2.5h.5l4.5,4h1.5l1-1-.5,2.5,1.5.5.5,2h1.5l-2,2v2l-1.5-1.5-.5.5-.5,1.5-1,.5-1-1.5-1,1v-1.5l-2.5.5-.5,1,2,2.64-2.5.36-2.5-1.5v-3l-1,.5-1,1.5h-2l-1,2-2.5,2-4.43.47-.57-1.33-1.5.5-2-.5-1.5-2.5.5-1-2-.5.5-1.5-2.47-2.32.97-1.31,1,.5,2-2,2.5,1,1.5-1.5-3.5-4.5.5-.5.5,1.5,2-.5-.5-1.5h-2l1.5-1-1-3h-1.5v-1"/>
      <path data-code="teplo-ogarevskij_rajon" data-title="teplo-ogarevskij rajon" class="cls-1" d="M40.62,79.12l3.5-1h4l-1-4.5h1.5l1-1,1,.5,1-2,2,1,1-1.5h3l1,1.5,2,.5,2.5-3,4.26,4.35-4.76,5.78,1.5,1.36-4,2-2-.5-.5,1-1.5-1-.5,1-1,.5-.5,1.5-1.5,1-1.5,2.5-1.5.5-1,1.5,2,2-3,2.5-2.5-.5-.5-3-2.5-.5.5-1-2,1-.5-3-4.5.5.5-3.5,2-.5v-2l2-2.5.5-1.5"/>
      <path data-code="tula" class="cls-1" d="M71.12,43.76l.5,1h1.5l-1,1-2.5,1h1.5l-1.5.5.5,1-1,.5h1v1l2,1v-1h1.5l-1-.5,1-2,1-.5-.5,1,.5,1,.5-1.5,2-1.5.5,1.5-1,3,.5.5.5-.5.5-.5v-1.5l1.5-1.5-.5-.5,1,.5-1-1,1-.5-1-2-1,.5v-.5l2-.5-1-1,1-3h-.5l-.5,1-1.5.5-1,2-.5-.5-1,1,.5-1.5-1.5,1-.5-.5v.5l-1.5,1v1l-1-.5"/>
      <path data-code="uzlovskij_rajon" data-title="uzlovskij rajon" class="cls-1" d="M89.12,78.62l1,.5v-1l-1,.5M83.62,75.62l.5,1,1-1-.5-.5-1,.5M85.12,75.62l.5,1h1v-1,.5l-1.5-.5M89.12,77.62l1,.5.5-.5.5-.5-1,.5v-1l-1,1M77.62,67.76l2.5-1-.5-1.5h1.5l.5-1h.5l.5-2,2-1.14,2,1.5v1l-1,.5-.5,1.5,2,2.5v5h-1.5v1h-1v.5l1,.5v-1l1-1,3,2,2-1.5-.82-.94.33-.42,1,1.5-.5.86.5,1.5-2,3.5.5.5-.5,1.5h-.5v4.64l-4,2.5h-3.5l1-1.5-2-3,.5-1.5,2.5-.5-.5-2-1.5-.5.5-1.5-1,.5-3-2,.5,1-1.5,1.5-1.02-1,.52-1.5-2-1,2-.5v-1h-4.5l-.5-.5h3l1-1h1.5l-.5-3-.5-.5,1-1.5Z"/>
      <path data-code="venevskij_rajon" data-title="venevskij rajon" class="cls-1" d="M91.49,41.2l.63,1.06h2l.5-1.5,4,.5v-1.5l3-.5.5-.5h-1l.5-1.5h1l-1.5-2.5,1.5-1v1h1v-1.5l.5-1,1,1v1l-1,.5h1l1-2.5,1-.5.5-1,2-.5.5-2-1.5-1,2-1.64,2,1-.5,2,2.5,1-.5,2,2,.5-.5,2.5h2v2.5l.5-1,2.5,1-.5,5-3.5-.5-.5,1.5-.5-.5v1l-.5-1h-2.5v2l-2,2,1,2.5v1.5h-1v1.5l1.5,1.5-2.5,2.5-.5,1.5-1.5,1,.5,1-1.5,1.5-2.5.5h-2.5l.5-3.5-.5-.5-2,1.5-2-4-5.5,5.5,3-.5v.5l-2,.5h-1.5l-2-.5-1.5,1h-1.5l-2-1.5,1-1.36-.5-1,1.5-1.5v-1.5h1.5l1-1.5-1.5-2.5.5-1,.5-.5-1-1v-.5l1,1,1.5-1,1.5,1,2-1v-1l-4.5-1,.5-1,1-.5-1-.5-.5-1.5,2.37-1.06Z"/>
      <path data-code="volovskij_rajon__tul_skaja_oblast_" data-title="volovskij_rajon_(tul&amp;apos;skaja_oblast&amp;apos;)" class="cls-1" d="M51.12,89.12l1.5-2.5,1.5-1,.5-1.5,1-.5.5-1,1.5,1,.5-1,2,.5,4-2,1.5,4.64-1,2,4,2.5-.5,2.86,3,1,2,2.64-.5,1,1,1.5-1.5.5v1l-4,2h-1l-.5,1.36-3.5-.5.88,2.91-.38,1.59-1-.5-2.5,1.5-1-2.5-2.5-1.5v-2l-5.5.14-1.5-2v-1l1-3-3-1.64,3-2.5-2-2,1-1.5,1.5-.5Z"/>
      <path data-code="zaokskij_rajon" data-title="zaokskij rajon" class="cls-1" d="M85.12,5.12l2.5-.5,1.5-2.5,3-1.5v1.5l1-1.5,1,2.5,1-1v1l2,1.5.5,3-1,.5,1,2-.5,1.5-1,1,2.5,1.5,1,2.5-1,3.5,1,1.5-2.5,2-.5,2.5-1.5.5-4.5-3-.5,1.5-4,1-.5-1-1,.5-2-1,.5-1-.5-1-1,1-.5-1.5-1.66-.02.66-1.98-1.5-1.5,4-.5.5-1-.5-1.5,2-.5-2-2.5v-1l1-.5v-2.5l2-1-.5-2.5"/>
    </g>
</svg>