<?xml version="1.0" encoding="UTF-8"?>
<svg xmlns="http://www.w3.org/2000/svg" viewBox="0 0 124.5 156.65">
      <path data-code="TAM-BON" d="m74.75,58.75l8-5-.5-1.5,6-2.45-.5,3.45,3.5,1.5,1.5,3,6,3.5,1.5-1.5,1.5,1.65-2,2.5,1,1.5-1.5,1.5,3,3.5.5,1.5-1.5,3.5,1,5.5-2.5,3.5-3-2.5,2-2.5-2-1.5v-2.5l-2.5,2.5-5-1-1,1.35-2.5.5-.5-4-1-1,1-3-1-1-1,1-4,.5-2-.5,1.5-3-3.5-3.5-1,1-1.5-1,1.5-2.5-1-.5,1.5-2.5"/>
      <path data-code="TAM-GAV" d="m110.95,67.45l3.3.95v10.5l3.5,8-1,1v3.5l-2.5-.5-3,2.5-2.5-2-7.5-1-2-2,.5-4,2.5-3.5-1-5.5,1.5-3.5-.5-1.5-2.15-2.5,10.85-.45Z"/>
      <path data-code="TAM-KIR" d="m98.75,96.9l1,.5v2l-1-1.5v-1"/>
      <path data-code="TAM-KOT" d="m57.75,75.25l-.5,2.5-1-.5.5-2.5,1,.5Z"/>
      <path data-code="TAM-MIC" d="m33.75,34.9h3v1.5l1.5.5h-1.5l-1,1.5-.5-1.5h-1l1-.5-2,.5.5-2"/>
      <path data-code="TAM-MOR" d="m97.25,31.4h4l-1,1.5,1,1h-1.5v1l-.5-.5.5-1.5-1.5.5-1-2"/>
      <path data-code="TAM-RAS" d="m74.75,78.75l.5,1.5h-2l.5.5h-1l-.5,1-1.5.5-1-2.5,5-1Z"/>
      <path data-code="TAM-TAM" d="m59.25,65.25l1-1.5h.5l.5.5v2l1,1h-1.5l1,2-1-.5-1.5,2h-1l1-1.5-2-1.5.5-1.5,1.5-1Z"/>
      <path data-code="TAM-UVA" d="m56.75,130.25l-1-.5,2.5-1.5,1-3.5,1,2.5-3,4-2.5-1.5,2,.5Z"/>
      <path data-code="TAM-INZ" d="m73.75,97.25l2-2.5,1,.5,1.5-.5v-1l1.5-1,1.5,3,2.5.5.5,3.65,3.5,3.5h2l1,2-2,1.5v2l6,4.85v8.15l-4.5,3.5-2,2.5-5-1-4,5.5-1-1-3,.35-4-7.5-2-.5.5-1-1.5-1.85.5-2.15,2.5-2.5-1-1,1-2-2-3.5,1-1.5v-4.5l1-1-.5-2,1.5-3,1.5-.5Z"/>
      <path data-code="TAM-KIRM" d="m98.75,96.9v1l1,1.5v-2l-1-.5m-9.5-20h2l3,1,2.5-2.5v2.5l2,1.5-2,2.5,3,2.5-.5,4,2,2,7.5,1,2.5,2-2.5,3.35-2,1.5-2.5.5.5,3.5-3.5,1-.5,1,1,2-1,1-2.5-2-3.5,1.5-1,1v2l-1-.5-1.6,1.6-2.4-1.95v-2l2-1.5-1-2h-2l-3.5-3.5-1-7.15,1-4h1.5l.5-1,1.5,1,3-1.5-1-3,.5-2-2-1.5v-2.5l1-1.35Z"/>
      <path data-code="TAM-MICM" d="m33.75,34.9l-.5,2,1-1,1,.5-1,.5h1l.5,1.5,1-1.5h1.5l-1.5-.5v-1.5h-3m-12.5-9l2-.5,1-1,1.5,1.5.5-2,1-.5.85-1.95,3.15,1.8,1.5-2,4.5,3.5,2-.5,1,1.5,5-3.5.5,1,8,1,2.7,2.1-3.7,4.05-2.5,5.5-2.5-1-.5,2.5-2.5.5v-1l-2.5,2.5-3.5,9-4.5-.5-1,2-4,1v-1l-3.5-2.5.5-.5-2.5-3,1.5-.5,1-4.5-4-2,.5-1-2.5-1-1-1.5,3-4.5-1-3"/>
      <path data-code="TAM-MORD" d="m.75,91.4l1.5-1,.5-1.5,4.5,1,.5-1-1-1,2-1.5-1-1h1l-.5-1.5.5,1,2-2,.5,1,.5-1.5h1v-1l2.5.5v-1l1-1.5.5,3.5h1l-.5-2,1-1.5-.5-3.5-2-1-1.5,1v-2l1.5-2v-1.15l2.5-2.5,1,.5,1-2,2.5,1.5-1,2.5,3,1-.5,1.5,2,2v-.5l2-1,1.5-3,3,.5-1,2.15,2,1-1.5,2-.5,2,1.5,3.85-.5,1.5-1,.5,1.25,1.5-1.75,1.65h-1v1.35l-4.5.5v3l-1.5.5-2.5,1.5-2-.5-1.5,2.5,1.5,1-1,1-3-.5-2.2.9,2.2,1.6-1,.5-1-.5-.5,1-1,.5-1,1.5v1.65l-2-4-2.5.5v-3.5l-6.5-5.5.5-1"/>
      <path data-code="TAM-MORS" d="m97.25,31.4l1,2,1.5-.5-.5,1.5.5.5v-1h1.5l-1-1,1-1.5h-4m-16.5-13.5l2,1.5,1.5-3,4,1.5,9.5-13.5,1,.5.5-1,3,3,3-1.5,1.5,2-1,1.5,1,.5h1l.5-1h1.5l3.5,3,2.5.5,3,3h2.5v2l3,1.5-1,2-1.5-.5-.5.5h-1.5l-1,2.5,2,1-2.5,2v.5l-4,5.5h1l-3,3h2.5l-2.5,1.5,3.5,3-1,1.5,1,1.5-.5,1,.5.5-1.5-.5-2,1.5-1-2.65-2-.5-1,.5-3,.5-2.5-1v-1h-2l-2,2v2l-4,3-1.5-1-1.5,1.65-1-3,1-1.5-2-3v-3l-1.5-2.5-1.5-1.5,1.5-1.5-1-.5.5-4.5h-2l-.5-1.5v-3l-3.5-.5-2.5-3,1.5-1.5"/>
      <path data-code="TAM-MUC" d="m49.25,137.25l1.5,2.5,1.5-3.5,1.5,1,.5-.5-1-1,1-.5,3.5,1.5,6.5-4-2.5-.5-1.5,1-1-.5.5-1,2-.5v-1l8,1.5,2.5,2-.5-1,1-1,5.5-.35,1,2.5-1,2,.5,2-3.5-1-2,1.5.5.5-2,1.5-1.5,3-4.5,4-9,2-2.5,3-1.5,4h-1l1-3-2-.5h-4.5v-2.5h-2l2-1.5.5-2,1.5.5.5-1-1-.5-1-4h-.5l-.5,1-.5-.5-.1-1.5,4.1-3.65Z"/>
      <path data-code="TAM-NIK" d="m33.25,49.9l1-2,4.5.5,3.5-9,2.5-2.5v1l2.5-.5.5-2.5,2.5,1,2.5-5.5,3.7-4.05,1.8,1.4,1,2h2l-3.5,3.5.5,3.5-1.5,3v2.5l-1.5-1-.5,1,1,2-.5.5h-1.5l-.5,1,1.5,1.5-1.5,1v3.5l-4.5,3h-3.5l-1,2-1-.5-.5,3h-1l-.5,1.5-2,1.5h-2.5v-1.5l-8.5.5,1.5-2v-2l-1-1,.5-2.5v-2.85l4-1Z"/>
      <path data-code="TAM-PER" d="m35.25,9.25h1l1.5-3.5h3l.5-.5,2,1,2-2,.5,1.5,2-2,1,.5-1,1,1.5,2.5,3-1.5h1l.5.5-1.5,2,1.5,1,.5-1,1,1-1.5,1.5h-1.5v2l-2.5,2.5,2.5,1v1.5h-1l-.5,2.5-4,.5-1,2-.5-1-5,3.5-1-1.5-2,.5-4.5-3.5-1.5,2-3.5-2,3.5-1,1-3.5,1.5-2v-.5l.5-.5.5-1.5v.5l1-3-.5-.5"/>
      <path data-code="TAM-PET" d="m9.75,34.75l2-1,.5,1,.5-1h1l.5,1.5h1.5l.5-2v2l.5.5,1-2,.5.5,1-1,1,1.65,2.5,1-.5,1,4,2-1,4.5-1.5.5,2.5,3-.5.5,3.5,2.5v3.85l-.5,2.5,1,1v2l-1.5,2,4.45-.25.55,3.25h-2l-2.5,2,4.5,4-.5,1-3-.5-1.5,3-2,1v.5l-2-2,.5-1.5-3-1,1-2.5-2.5-1.5-1,2-1-.5-2.5,2.5-2-1,1.5-1.5-4.5-4,.5-1-1.5-2,.5-1.5,1.5-1,1,.5.5-1-3.5-3,2-1.5-2-1.5.5-3.5h-.5l-1-2-1,.5-.5-2,2-.5-2-2,1-2-.5-1,1-1.5h1v1l1-1-1-3.5"/>
      <path data-code="TAM-PIC" d="m91.75,48.4l1.5-1.65,1.5,1,4-3v-2l2-2h2v1l2.5,1,3-.5,1-.5,2,.5,1,2.5-2,2,2,.5.5,4,2,.5-1.5,3,.5.5-1,.5,1,3.5.5,5-2.5-.5v2.5l-1,1.5-10.65.15-.85-1,1.5-1.5-1-1.5,2-2.5-1.5-1.65-1.5,1.5-6-3.5-1.5-3-3.5-1.5.5-3.45,3.5-1.4Z"/>
      <path data-code="TAM-RASM" d="m70.75,82.25l1.5-.5.5-1h1l-.5-.5h2l-.5-1.5-5,1,1,2.5Zm-11.5-6l2-3.5,5,2,5-2,2,1.5,4-3.5,2,.5,4-.5,1-1,1,1-1,3,1,1,.5,4,2.5-.5v2.5l2,1.5-.5,2,1,3-3,1.5-1.5-1-.5,1h-1.5l-1,4,.5,3.5-2.5-.5-1.5-3-1.5,1v1l-1.5.5-1-.5-2,2.5-1.5.5-1.5,3,.5,2-1,1v2l-3.5-3.5,1.5-3.5-1.5-1.5-2,3-2.5-.5-1-2.5,2.5-1-3-5.5-5-1.5,1-4h3.5l-4-3,1.5-2,.5-2,1-2"/>
      <path data-code="TAM-RZH" d="m39.75,111.25h2l1-2,2,.5,1.5-2.5h2l.5-2,6,1.5,4.5-4,3.5-2-.5-1,2.5.5,2-3,1.5,1.5-1.5,3.5,3.5,3.5v2.5l-1,1.5,2,3.5-1,2,1,1-2.5,2.5-2-.5-1,.5-.5,2.5-2,1.5-.5-.5-1.5,1-2.5-2-2,1-3-.5-1,1-2,.5-2.5-1.5-4,3.5-2-.5-1.5-2,.5-3-2-1.5-.5-5,1-2"/>
      <path data-code="TAM-SAM" d="m39.25,93.75l3-1,1.5,2,1-3,2-2,1.5,2,2.5-2h2l-1-.5,2-1.5,2,1.5,5,1.5,3,5.5-2.5,1,1.5,3.5-3.5,2-4.5,4-6-1.5-.5,2h-2l-1.5,2.5-2-.5-1,2h-2l-3.5-2,1-2,2-2h-2l-2.5-4,1-1.5,2.5,1.5,3.5-2.5-3-2.5.5-2.5"/>
      <path data-code="TAM-SOS" d="m60.75,23.25l1-1,4.5,2.5.5-1-1-.5,1-2h.5v2l2,.5,1.5-2-.5-1,1.5-2-2-.5.5-1.5-1.5-1.5,1.5-2,3,.5-.5-1.5,1.5-1,2,3.5-1,1.5-1,1,3,3,2-.85,2.5,3,3.5.5v3l.5,1.35,2,.15-.5,4.5,1,.5-1.5,1.5,1.5,1.5,1.5,2.5v3l2,3-1,1.5,1,3-9.5,3.85.5,1.5-3,2-2.5-6-2.5-4.5-2.5.5-.5,2-1.5,1.5-1.5-.5-2,1-2.5-2.5-3.5,2.5-1,3.5-1,.5v-1.5l-3,1-2.5-1.5v-3.5l1.5-1-1.5-1.5.5-1h1.5l.5-.5-1-2,.5-1,1.5,1v-2.5l1.5-3-.5-3.5,3.5-3.5h-2l-1-2,2.5-4.5"/>
      <path data-code="TAM-STA" d="m55.25,1.75h1l1-1.5.5,1.5-1,2.5,3,.5,1.5-1.5h2l1,1,2-1.5h2l2,2-1,1.5,1,1-1.5,4,4-1.5,1.5,1.5-1.5,1,.5,1.5-3-.5-1.5,2,1.5,1.5-.5,1.5,2,.5-1.5,2,.5,1-1.5,2-2-.5v-2h-.5l-1,2,1,.5-.5,1-4.5-2.5-1,1-2.5,4.5-4.5-3.5-8-1,1-2,4-.5.5-2.5h1v-1.5l-2.5-1,2.5-2.5v-2h1.5l1.5-1.5-1-1-.5,1-1.5-1,1.5-2-.5-.5,2-4.5"/>
      <path data-code="TAM-TAMM" d="m56.75,74.75l-.5,2.5,1,.5.5-2.5-1-.5m1-8.5l-.5,1.5,2,1.5-1,1.5h1l1.5-2,1,.5-1-2h1.5l-1-1v-2l-.5-.5h-.5l-1,1.5-1.5,1m-29,0l2.5-2h2l-.55-3.25,4.05-.25v1.5h2.5l2-1.5.5-1.5h1l.5-3,1,.5,1-2h3.5l4.5-3,2.5,1.5,3-1v1.5l1-.5,1-3.5,3.5-2.5,2.5,2.5,2-1,1.5.5,1.5-1.5.5-2,2.5-.5,2.5,4.5,2.5,6-5,3-1.5,2.5,1,.5-1.5,2.5,1.5,1,1-1,1,.5,2.5,3-1.5,3-4,3.5-2-1.5-5,2-5-2-2,3.5-1,2.5-3,2-3.5-3-6.5.5-1.5-2.5-10.5-5.5-4.5-4"/>
      <path data-code="TAM-TOK" d="m3.25,112.25l4.5-3.5.5-.5,2-1.5,1-2v-1.5l1-1.5,1-.5.5-1,1,.5,1-.5-2.5-1.5,2.5-1,3,.5,1-1-1.5-1,1.5-2.5,2,.5,2.5-1.5,1.5-.5v-3l4.5-.5v-1.35h1l1.75-1.65,1.25,1.5-1,2v1.5l5,2,1,1-.5,2.5,3,2.5-3.5,2.5-2.5-1.5-1,1.5,2.5,4h2l-2,2-1,2-1.5.5-1.5-2.5-2.5,3.5-1-1-2,2-1.5-2.5-5,1-1,1.5v1.5l-1,1-4.5-1-3,3-1.5,2.5-1.5-1,.5-1.5h-3,1l-1-2.5-3-1.5"/>
      <path data-code="TAM-UMJ" d="m92.75,109.25l1,.5v-2l1-1,3.5-1.5,2.5,2,1-1-1-2,.5-1,3.5-1-.5-3.5,2.5-.5,2-1.5,2.5-3.35,3-2.5,2.5.5,1,6.35-2,13-.5-1-6.5,2-2-.5-1.5,2,2,2-4.5-.5-1,6-1,.5-1-.5-.5,1-1.5,1-3-3v-6l-3.6-2.9,1.6-1.6Z"/>
      <path data-code="TAM-UVAM" d="m54.75,129.75l2.5,1.5,3-4-1-2.5-1,3.5-2.5,1.5,1,.5-2-.5m-22,7.5l2-1.5,2,1.5v-1.5l2.5.5v-1.5l4-2-.5-2,1.5-5.5,4-3.5,2.5,1.5,2-.5,1-1,3,.5,2-1,2.5,2,1.5-1,.5.5,2-1.5.5-2.5,1-.5,2,.5-.5,2,1.5,2-.5,1,2,.5,4,7.5h-2.5l-1,1,.5,1h-.5l-2-2-8-1.5v1l-2,.5-.5,1,1,.5,1.5-1,2.5.5-6.5,4-3.5-1.5-1,.5,1,1-.5.5-1.5-1-1.5,3.5-1.5-2.5-4.5,4-.5-1h-.5l-.5,1.5-1,.5-1,4-2-1,.5-2-1.5-1.5h-1l-2.5-3.5-2-1"/>
      <path data-code="TAM-ZHE" d="m11.75,116.25l3-3,4.5,1,1-1v-1.5l1-1.5,5-1,1.5,2.5,2-2,1,1,2.5-3.5,1.5,2.5,1.5-.5,3.5,2-1,2,.5,5,2,1.5-.5,3,1.5,2,2,.5-1.5,5.5.5,2-4,2v1.5l-1.5.5-.5-1-.5,1.5-1-.5-3-3.5h-2.5l1-2-3-2v-2.5l-2-2v-2l-.5-1-.5-.5-1,2.5-4.5-5.5-.5.5-.5-.5-1.5,3.5-6.5-3.5,1-2"/>
      <path data-code="TAM-ZNA" d="m33.25,70.25l10.5,5.5,1.5,2.5,6.5-.5,3.5,3,3-2-.5,1.5-1.5,2,4,3h-3.5l-1,4-2-1.5-2,1.5,1,.5h-2l-2.5,2-1.5-2-2,2-1,3-1.5-2-3,1-1-1-5-2v-1.5l1-2-2.5-3,1-.5.5-1.5-1.5-3.85.5-2,1.5-2-2-1,1.5-3.15"/>
</svg>