<svg xmlns="http://www.w3.org/2000/svg" viewBox="0 0 294.5 175.5">
      <path data-code="TVE-AND" d="m50.75,17.75h2l1.5-1.5,2.5,2.5,2-1,3.5.5,1,1.5v-2.5l2-1,4-.5,1-1,.5,2h3.5v1.5l-1.5.5,1,1.5-.5.5v1.85l-1,1,.5.5-1,1,1,3.5,1.5.5-1.5,2h-1l.5,3-2.5,3,1,1.5-.5,1,1,.5v1l-.5-.5v1h-.5l1.5,3-1.5,1.5.5,1-1,1,3,1-.5.5,1,.5-.5,1h2v2.5l5,4.5-2,.5-1,.5.5,1.5-1.5.5.5,1.5,1-1,2,1.5-1,.5.5,1.5-1,1,1.5.5.5-1,2,1.5h-2l.5,2.15-1,1.85-1.5-1.35-1.5,1.85-9,.5,1-2-1-1,2-2.5-1,.5-1.5-1.5-2.5,1.5-1.5-1.5-1,1h-1.5l-2.5-3.35h-2l-1.5,1-.5-1,.5-2-1-1.5,1-1-1-1,1-1.5v-1l-1-1h-1v-1h.5v-2l-1.5.5-1.5-.5,1.5-.5,1-.5-.5-1.5.5-.5h-1.5v-.5h.5l-2.5-2.5v-3.5l-1-.5-1,1h-1l-.5-.5h1.5l-.5-1,.5-1.5h-1v-1l1.5-.5-.5-1h2l.5-1.5,1,.5-.5-.5,1-1,3,1-2-3.5,1-1-1-.5,1.5-1,1,1,.5-1,1-.5-1-1,1-1h-1.5l1-1-.5-.5h-2l.5-1.5-3.5-1,1-.5-1-.5,1-1-.5-1,1-1-.5-1"/>
      <path data-code="TVE-BEL" d="m25.25,105.25l1-.5,1.5.85,2-2.5-1.5.5.5-2,3,1.5,2-3v-1l2,.5,2.5-1.5,2,.5,1-2.5,1-1,1.5.5-.5,1.5,1.5-.35,2,2.5,2.5-.5.5,2,1.5.85-1,2.5,2.5-.5v1l2-2,2,1.5-.5.5,1,1.5,1-.5-1-1v-1l-.5-1.5,2-.5,1,1,1.45-.65.55,1.8-1.5,1.5v.5l3,1.5,1.5,2.5-2.5,2.5,1,1.5-2,2.5h4.5l1,1.5-1,1,1,3.5,2.5,2.5v-1h1.5l-3,3-2-2-1.5,2-1-1-1.5,2.5-5.5-2-.5,1,.5,1-3-2.5v.5h-1l-.5,1-1.5-1.5,1.5.5-.5-1-2-1-3,2h-2.5v-3l-3-.5.5-1.5-1-1h-1.5l-1.5,1v-1l1-.5-2-1,.5-1.5-2.5-3.5-3.5-3.5-1.5.5-.5,1.5h-2l3.5-3.5-.5-1,.5-1.5-1.5,1-1-.5-2,2v-1h.5l1-2h-.5l-1.5,1v-1.5"/>
      <path data-code="TVE-BEZ" d="m217.25,83.75l1-2h1v-1l2,.5v-4.5l1-.5,1-2,1.5.5,1-1.5v-2.5l4.5-2,.5.5,2-2.5-1.5-2.5,2,.5v-1.5l.5-1-.5-1,2.5-1-1.5-2,1.5.5.5-1,2.5-1,3,.5.5,1-2.5,2.5h1l.5,2,.5-1,.5,1.5-1.5.5,2,1-1,.5.5,1.5-1,.5.5,1.5-1,.5-.5,1h1l.5,1h2l2,2,1.5-.5v1l5-1-2,3,1,.5h-1l-.5,1-1,.5,1,2h1.5l-1,2,.5,1.5-4.5,1-2,2.5.5,1.5-1.5,1.5-.5,2.5-1.5,1-1.5-.5v1l-1.5,2,.5,6.5-3-.5v1l-1,.5-.5,1.5-3.5.5v1h-1l-1,2-3.5,1-1.7-.05.2-1.1-1.5.5v-3.5l-1.5-1.5-1,1-1.5-2.5-3,.5v-1l-1.5-2,1-.5-.5-2,.5-1,.5.5.5-2-1-.5v.5h-.5l-2.5-1.5,1-2-1-.5,1.5-1-1,.5-.5-.85h-1l1-1-1.1-1.45,1.1-1.55,5.5-1.5Z"/>
      <path data-code="TVE-BOL" d="m153.75,14.75l2,3h1.5v-2.5l-1.5.5-2-1m7-12l3-.5,1-.5-.5-1h.5l1,1.5,1-1h2.5l1-1,2,2v2l6,1.5.5-1.5h1.5l-.5,2.5h4v1.5h1.5v2l1.5,1.5.5,2.5h1.5l.5,3,1.5.5v1h-.5v1.5l.5,1.5h2l-.5,2.5-2.5-1-1-2.5h-1v2.5l-1,.5-.5,1-2,1-1.5,4-3.5.5v-1.5l-1.5-.5,1,5-1.5-1v-2.5l-3,2-1-1-.5,2.5-2.5-.5v.5l-1-1-1.5.5-1,2-1.5-1.5-1.5,1.5h-1.5l-.5,2.5h-1.5l-1.5,2.5-2.5-4.5-2-.5,1.5-1.5-1-.5,1.5-1,.5-1.5h-1v-2l-1.5-2,2.5-3,.5-2.5h-1.5l-1,1.5-.2-1.2-2.5-2.5.5-1.5-1.3-1.3v-.5l1.5.5-.5-1,.5-.5h2l1,1,2.5-.5,2-3.5h1v-1h1l.5-1-1.5-1.5,1-2h-2l.5-3m-11.5,15l1.5,1-.5,2h2v2h-1.5v1.5l-1.5-1.5-2-.5v-.5l2-1-1-2,1-1"/>
      <path data-code="TVE-FIR" d="m129.75,24.25l2.5,1,1-1,.5-1,.5.5,1-1,.5-2,1-1,1.5.5,4-.5.5,2,1.5-.5v-1l1.5-.5,1,2-1.5,1.5,2.5,6,3.5,1,3-4,1.5,2v2h1l-.5,1.5-1.5,1,1,.5-1.5,1.5,2,.5,1.5,2-1,1.35-2.5-.5-4,.5-2,2,1,5.5-1.5.5-2.5,3.5-3-1.5v1l-2,1,1.5,1-2,1v.5l-1-.5-.5,1.5h-.5l1,2h-1l2.5,1.5-1.5.5-.5,1.65-3.5-.5v-2.5l-.5-1h1.5v2.5l.5-1,1-.5.5-1-3-2.5-1.5.5-.5-3-1.5,1-.5-1.5-.5,2v-2h-3l-.5.85-3-1.5,4.5-1.5h-1l.5-2,1.5.5.5-2h.5v-.5l2,.5-1-1.5,1-1.5,1-.5-2-2v-3l-.5.5-4-3-1-2.35,2-2-.5-1.5,2.5-3.5"/>
      <path data-code="TVE-TRZ" d="m156.25,87.1l1.5,1,1-1,1.5.5-.5,3-1,.5-.5,1.5-2,.5.5-1.5-2.5-2,.5-2,1.5-.5Z"/>
      <path data-code="TVE-TVE" d="m182.25,120.75h.5v.5h-1l.5-.5m-12.5-3l3,.5,1.5-1v-1.5h2l1,2,.5-1.5,1.5-.5-1.5,3.5,1-1,.5,1.5v3.5l-2,1.5.5,2.5-1.5-.5-.5-2.5-2.5-.5.5-2-1.5-2-2.5-.5v-1.5"/>
      <path data-code="TVE-KAL" d="m182.25,120.75l-.5.5h1v-.5h-.5m-12.5-3v1.5l2.5.5,1.5,2-.5,2,2.5.5.5,2.5,1.5.5-.5-2.5,2-1.5v-3.5l-.5-1.5-1,1,1.5-3.5-1.5.5-.5,1.5-1-2h-2v1.5l-1.5,1-3-.5m-9.5-13.15l2-1,1.5,1,1.5-.5-1-1,2-.5.5-1.5h1l-.5-1.85h.5l2,2.5-.5,2,1,.5,1,.5,1-1,2.5,1v-1l.5.5,1-1,2.5,1.5,2-2,2.5-.5.5,2.5,2.5,1v3l2.5,2.35,1-.85,2,5,5,3.85-3.5,4,4,3,1-1,1,1.15,4,.5,3.5,2.5-1,3-1-.5-2,2,1.6,2.85-2.6-2.85-3.5,2-.5-.5.5,1-1,.5-3-1-2.5,2h-4.5l-1,.5.5,1-1,1.5-1,.5v-1.5h-2l-.5-1,.5-2,2.5-1-.5-2.5-2-1-.5,1,1,1-2,.5-2.5-1.5-3.5,3.5-1-2-1.5,2-1-.5-1.5,2v1l2-1,.5,1-2.5,2v2.5l-1.5,2.5-1-.5v1l-1,.5-2.5-1-4,1-.5-.5-1,2.5-1.5-.5-2.5-2-.5-1.5h1l-1-1.5-2.5-1,.5-1.5-.5-1.5,1-1-.5-1.5-1-.5.5-1-2.5-1-2,1-1-1,.5-.5-.5-1-1.5-.5.5-.5.5-1.15-1.5-.5v-1.5l2-.5v-.5l1-1h1.5v-.5h1.5l.5,1,1-1.5,2.5,1,1-.5v-1.35l-.5,1.35h-1l.5-2-2-2.5,1-1-2-.5.5-1-.5-2,4.5-1,1,1.5.5-2.5-1,.5,1-4.5-1-1-2-.5v-2h1l.5-1.5,2-.5-1-1,.5-.5.5-2,2.5,2Z"/>
      <path data-code="TVE-KLZ" d="m234.25,143.75l7.5-5.5,2,.5,1-2,3-1.5,1,3.5,1.5-1,4.5.5,3.5-1,1.5,3,2.5-.5,3,1.5,1,1-1.5,3.5-2.5,2.5-6-1.5-2,3.5,1,1.5-1.5,2.5.5,1.5-.5,1h-2l1.5,1-1.5,2-1.5.5-.5,1.5-1,.5-2-1.5-1,1-.5-.5,1.5,2.5-1.5.5-1,2-3.5-.5-1,1.5,1,1.5h-2v1h2v1.5l1.5.5-2,3.5-2-2.5-4-.5.5-1.5-1.5-1,3.5-5.5-1-1h.5l.5-1.5-2.5-.5.5-2-1.5-1.5.5-1.5-1-1,1-1-.5-.5,1-1.5-.5-1,2-3v-3l-1.5-1.5"/>
      <path data-code="TVE-KAS" d="m223.25,110.6l.3-1.4,1.2-.45h3.5l2.5,3,1-1h1l2.5,2.5,5,.5,1.5,1.5,1.5-.5.5,1.5,4,.5,1.5,1.5v-1h1l1,1.5,1.5-1,3,1-1-2.5,1.5,1v-1.5h2.5l3.5,3.8-2,2.2-.5,1-2.5,1,.5,3-2.5.5,1,1-1,3.5,1.5,5.5-1,1-5.5-.5-1.5,1-1-3.5-3,1.5-1,2-2-.5-5.5,4-1.5-5.5-2.5.5.5-4,2-1v-.5l-2.5-1-4.5,1-2-1.5h-2.5l2-1.5-1.5-1.5,1-1-.5-2,1-1h1l1-3-2-2.5.5-1.5-5.1-3.55.6-2.1h2Z"/>
      <path data-code="TVE-KES" d="m226.75,108.75l2-.5,1-2h1v-1l3.5-.5.5-1.5,1-.5v-1l3,.5-.1-1.15.6.55,1,.5-.5-2.5,3.5-.5v2.15l3.5,1,3.5-1,1,1.35,1,4.65h.5l1-2.5,1.5-.15.5,2-1,2,1.5,1.65,2.5-1.15.5-1.85,1.5,1v2l-1.5,1,1.5,1.5v3.5l2,1-1,2-3-3.5h-2.5v1.5l-1.5-1,1,2.5-3-1-1.5,1-1-1.5h-1v1h-.5l-1-1.5-4-.5-.5-1.5-1.5.5-1.5-1.5-5-.5-2.5-2.5h-1l-1,1-2.5-3-1.5-.05"/>
      <path data-code="TVE-KIM" d="m209.75,117.1h3.5l1-1,4-.5,2-1.5.4-1.4,5.6,3.55-1,1.5,2,2.5-1,3h-1l-.5,1v2l-1,1,1.5,1.5-2,1.5h2.5l2,1.5,4.5-1,2.5,1v.5l-2,1-.5,4,2.5-.5,1.5,5.5-2,1.5,1.5,1.5v3l-2,3,.5,1-1,1.5-1-1-1.5.5-.5-1h-2.5l-.5.5-2-.5-1,.5.5,2.5-.5-.5-1,1.5-5,2v-1.5l-3.5-1-1,.5-1-2-2.5,1,.5-1.5,1-1-1.5.5-3.5-2-1.5-1.5-.5-7,1.5-4-1.9-2.15-1.6-2.85,2-2,1,.5,1-3-2.5-1.15,2.5-3.5h1l1-1.5-1-1h2v-1.5l-1.5-1,1.5-2.5"/>
      <path data-code="TVE-KON" d="m159.75,146.75l.5.5,4-1,2.5,1,1-.5v-1l1,.5,1.5-2.5v-2.5l2.5-2-.5-1-2,1v-1l1.5-2,1,.5,1.5-2,1,2,3.5-3.5,2.5,1.5,2-.5-1-1,.5-1,2,1,.5,2.5-2.5,1-.5,2,.5,1h2v1.5l1-.5,1-1.5-.5-1,1-.5h4.5l2.5-2,3,1,1-.5-.5-1,.5.5,3.5-2,4.5,5-1.5,4,.5,7,2.1.95-.6.55-1-.5.5,6-2.5.5v1.5l-1.5-.5-.5,2-1,.5v1.5l-3,1.5-.5-1-1.5,1-1.5-3,.5-1-3.5-5.5-.5,1.5h-.5l-6.5-.5v2l-1-2.5-1.5.5-2-1-1,1.5-3-2.5-5-1-2,1-5-2.5-1.5.5-2,2.5-1-1,1.5-1-1.5-2.5,1-2.5"/>
      <path data-code="TVE-KRA" d="m258.75,71.75l.15.45-.15.05.5,1-.35-1.05.85-.45.5-1.5,1-.5,1-1.5,1.5-1.5,2,1v-1.5l1-1,1.7-3,4.3,4.35,1.5-1v-1h1l-1-1,1.5-2,2.5,3h1.5l-.5.5.5,2-.5,2.15.5,1.5-1,1.5-2-1-.5,1.5-2-.5-.5,1h1.5l-1,2,1.5,3.5h1.5l-.5,1.5,1.5,1.5-1,1.5,1,1-1,.5.5,3,1.5,1h-1v.5l-2-.5-1-1.5-.5.5-3.5-.5-1,1-.5,2.5-2-.5v1l-2.5-4-5-2,.5,1.5-3,1.5-1,1.5-1.5.5-1-2h-3l-1-1.5.5-2-1.6-1.15,1.6-.35-.5-1.5,1-2h-1.5l-1-2,1-.5.5-1h1l-1-.5,2-3,.5-1.5,1-.5,5,1Z"/>
      <path data-code="TVE-KUV" d="m127.25,50.25h3v2l.5-2,.5,1.5,1.5-1,.5,3,1.5-.5,3,2.5-.5,1-1,.5-.5,1v-2.5h-1.5l.5,1v2.5l3.5.5.5-1.65,1,.5-.5,1,3.5,2.5-1.5.5,5,1-.5,2,2.5-.5.5-1h1l.4,2.8-1.4.35v1l-1,1,1,2.35-1,1.5h-1.5l-.5,2h-1.5l-.5,3,1,.5-.5,1.5,1,2-1,1-1-.5-.5,2.5-2,2.5,2,1-.5,1h-2.5l-4-2.5h-2.5l-2.5,1v-1.35h-2.5l-.5-4-2-.5-6-4-.5,2.35-1-1,.5-1.5h.5l-1-2h1.5v-1.5l2.5-2.5-.5-1.5,1.5-2-1-1,3-1-5-3,1.5-2.5,2.5-1v-1.5l1.5-1,1.5.5.5-1-1-6,.5-.85"/>
      <path data-code="TVE-LES" d="m212.25,27.25h6l1-2.5,3-2-.5-1.5,1-.5,3,.5,3.5,3,.5-1.5,1,1,1.5-1,4,2,1.5,3.5h2l-2.5,2.5,1,2.5-1,2,1.5,2v1.5l-1,.5.5.5-1,1v2l3,2.5-1,1-.5,1.5,1,.5-2.5,2.5-3-.5-1.5-2-1,1-1.5-.5-4,.5-2.5-1.5-5.5,2-1.5-3,.5-2.5-1.5-.5-.5-1h1.5l-2-.5.5-1-1.5-.5-2-3.5-2-1,1-1,1,1,.5-1,.5-.5-1.5-5.5,1-2"/>
      <path data-code="TVE-LIK" d="m173.75,76.1l.5,4.5,1,1,.4-.65-.9-1.35,1-.5v1.5l2-1v-1h.5l.5.5-.5,1,2.4,1.9,1.1-.4.5-1.85,1,.85-.5-1.5.5-1.35,1.5.35,1-.85h1.5l.5-1,.5,1.35,1.5-1.5,4.5.15,1-1.5.5.5,2-1.5.5,1.85,3.5.65-1,1,2.5,1.5-.5,1h-1l.5,1-1,1,2.5,2-.5,2h-1.5v.5h-1l2,3-1,1h-3l-.5.5-2-1.5-.5,1.5-.5-.5v.5l-1,.5v-1l-1.5,1-.5.5.5,1-.5.5-1-.5v1.5l-1.5-1.5-.5,3.5-1,.5.5,3v.5l-1-.5-1,1v3.5l-1.5-2-.5.5-.5.5-1-1-1.5,1-1-.5-2,2-2.5-1.5-1,1-.5-.5v1l-2.5-1-1,1-1-.5-1-.5.5-2-2-2.5.5-1-1.5-.5.5-3.65,1.5-.5v-2l1-.5-.5-2,2-1,.55-2.2.45-.3,1-1.5-1-1,1-.5v-2.5h-2l.5-.5,1.5-1v-2l.5-.5Z"/>
      <path data-code="TVE-MAK" d="m213.75,40.75l1.5.5-.5,1,2,.5h-1.5l.5,1,1.5.5-.5,2.5,1.5,3,5.5-2,2.5,1.5,4-.5,1.5.5,1-1,1.5,2,6,1-1,1h-1l.5,4.5-2.5,1-.5,1-1.5-.5,1.5,2-2.5,1,.5,1-.5,1v1.5l-2-.5,1.5,2.5-2,2.5-.5-.5-4.5,2v2.5l-1,1.5-1.5-.5-1,2-1,.5v4.5l-2-.5v1h-1l-1,2-5.5,1.5-1.1,1.55-.9-1.05-.5,1.5-2-1.5-1,1-1-1-1,1-1-1,.5-2-2.5-2,1-1-.5-1h1l.5-1-2.5-1.5,1-1-.75-.45,1.25-1.15-4-3.85,1-1,1,.5.5-2h1.5l-.5-1,1.5-1-3-2.5-.5,1-1,.5v-1.5h-1l-3-3,1.5-2,2.5,2,1.5-2.5,1.5-1v-.5l4-1,.5-2,1-1-.5-1,1.5-1.5,1.5,1.5,2-1.5.5-1.65,1.5-1.5-2.5-4.5h.5l-1.5-1,1.5-4.35,2,3.45Z"/>
      <path data-code="TVE-MOL" d="m238.25,52.25l1.5.85v-1.5l2,.5-1.5,1,1.5,2.5v-1l-.5-1,.5-1,2-.5.5-1-1.5.5-.5-1,2-1,1.5.5v-1l2,1.5v1.5h.5v-1.5l2.5,1,.5.5-1,1.5,4,2.5v1l4,.5,1.5-2,2-.5,1,4,1.5-1,1,1,.5-2h1l1.7,5.15-1.7,3-1,1v1.5l-2-1-1.5,1.5-1,1.5-1,.5-.5,1.5-1,.5.5,1-.5-1.5-5-1-1,.5-.5,1.5-3,1.5-2-.5v-1l-1.5.5-2-2h-2l-.5-1h-1l.5-1,1-.5-.5-1.5,1-.5-.5-1.5,1-.5-2-1,1.5-.5-.5-1.5-.5,1-.5-2h-1l2.5-2.5-.5-1-3-.5-.5-4.5"/>
      <path data-code="TVE-NEL" d="m42.25,77.6l3-1,2-2.5,1.5-1h1.5l.5-1.5h-1v-1.5l2.5-.5.5,1.5,1,.5-1-1.5h2l-.5-1.5,1-.5,2.5-4.85,2.5,3.35h1.5l1-1,1.5,1.5,2.5-1.5,1.5,1.5,1-.5-2,2.5,1,1-1,2,9-.5,1.5-2,1.5,1.5,1,2.5-.5,1,1-.5,1,2.5h-.5l2.5,1,1,4.5-3.5,1,.5.5-2.5-2-1.5,1-1.5-2.5-2.5,3,.5,1-1.5.5v1l1.5,1.5.5,2.5-3.5,2.5h-1.5v1h-1.5l-.5,3-3-.5-.5,2,1.5.5-1,1v.5h-1l-.5.5,1,.5-4.5,2-1-1-2,.5.5,1.5h1.5l-1.5,1,1,1-1,.5-1-1.5.5-.5-2-1.5-2,2v-1l-2.5.5,1-2.5-1.5-.5-.5-2-3,.5-1.5-2.5h-1.5l.5-1.5-1.5-.5-.5-1,2-.5,1-2v-4h1l-2-2.5.5-2.5-2,2-1-.5h.5l1.5-1-2.5-2.5,2-2-.5-1"/>
      <path data-code="TVE-OLE" d="m73.75,83.1l2.5-3,1.5,2.5,1.5-1,2.5,2-.5-.5,3.5.5v1.5l1.5-.5,2.5.5,1-1h.5v1h1l-.5,2,2,1.5-.5,1,1,.5,1-1.5,1,.5.5-.5,1.1.8-1.6,1.2,1.5,3.5-.5,4-2,.5-.5-.5-.5,5.5v.5l-1.5,1,.5,1.5-1,1.5.5,1-.5-.5-1.5,1-.5,2-2,1.5,1.5,1.5-1,1.5,1,.5-2.5,1-1,1.5.5,2-2.5-1-2,2.5-2-1.5.5,1h-1l-.5,1.5h-1l.5,1-1.5,1-1-.5.5-.5-.5-1.5-2.5-2.5-1.5,1.5,1,1-1.5.5v1l-1.5-.5v1l-2.5-2.85-1-3.5,1-1-.5-.65-5-.85,2-2.5-1-1.5,2.5-2.5-1.5-2.5-3-1.5v-.5l1.5-1.5-.55-1.8,3.05-1.35-1-.5.5-.5h1v-.5l1-1-1.5-.5.5-2,3,.5.5-3h1.5v-1h1.5l3.5-2.5-.5-2.5-1.5-1.5v-1l1.5-.5-.5-1"/>
      <path data-code="TVE-OST" d="m109.75,38.6l.5,1.5,1.5-.5-1.5-1h-.5m-17.5-16l2-1.5,3.5,1,3.5-1,.5-1,.5,2h2l1.5-.5v-1l1,.5,1-1,1-1,.5,1,1.5-1.5,2,1,1.5-1,2.5,4,1.5-.5v1.5l1,.5.5,2.5,1.5-.5,1-1,1.5,1,1,2-1.5.5.5,2.5,2.5,1,.5,1.5,4,3,.5-.5v3l2,2-1,.5-1,1.5,1,1.5-2-.5v.5h-.5l-.5,2-1.5-.5-.5,2h1l-4.5,1.5,3,1.5,1,6-.5,1-1.5-.5-1.5,1v1.5l-1.5,1-1.5-1.5-.5,1.5-3,.5v-1h1.5v-1l-1.5-2.5-2,1.5-2.5-1.5h-3l-1.5-1.5-1.5,2.5-4-1.5-.5-1.5,1.5-.5v-.5l-2,.5-1-1.5v1.5l-1,.5-3-2.5-3,3-1.5-.5-3-5,1-1.5,2.5-2,4.5-.5v-1.5l1.5-1-2.5-2.5v-4l-2.5-.5,1.5-.5-1-1,.5-1h1l-1.5-1.5-1.5.5-.5-2,3-2.5-1-.5.5-.5,1-.5v-1l-2-.5-2-3"/>
      <path data-code="TVE-ZOZ" d="m149.05,19.55l.2,1.2-.8.4.1-1.1.5-.5Zm2-4h1.5v1.5l-.5,1.5,2.5,2.5.2,1.2,1-1.5h1.5l-.5,2.5-5.5,7-3.5-1-2.5-6,1.3-1.7,2.7,1.2,1.3,1.3.2-1.3h1.5v-2h-2l.8-5.2m4.7-.3l1.5-.5v3h-1.5l-2.35-3.5,2.35,1Z"/>
      <path data-code="TVE-PEN" d="m73.75,19.6l3,.5,2.5-1.5,2,1,1-1h1l3.5,2.5,1.5-.5v-1.5l1.5-1h1l1.45,4.1,2.05,3.4,2,.5v1l-1,.5-.5.5,1,.5-3,2.5.5,2,1.5-.5,1.5,1.5h-1l-.5,1,1,1-1.5.5,2.5.5v4l2.5,2.5-1.5,1v1.5l-4.5.5-2.5,2-1,1.5,3,5-2.5,4-1-.5.5,1-.5,1h-1l-3,3-1.5-1-.5,1.5-1,.5-.5,2.5-2-1.5-.5,1-1.5-.5,1-1-.5-1.5,1-.5-2-1.5-1,1-.5-1.5,1.5-.5-.5-1.5,1-.5,2-.5-5-4.5v-2.5h-2l.5-1-1-.5.5-.5-3-1,1-1-.5-1,1.5-1.5-1.5-3h1-.5v-1l.5.5v-1l-1-.5.5-1-1-1.5,2.5-3-.5-3h1l1.5-2-1.5-.5-1-3.5,1-1-.5-.5,1-1v-2l.5-.5v-.5"/>
      <path data-code="TVE-RAM" d="m184.25,103.25l1-1,1.5,2v-3.5l1-1,1,.5-.5-3.5,1-.5.5-3.5,1.5,1.35v-1.35l1,.5.5-.5-.5-1,.5-.5,1.5-1v1l1-.5v-.65l.5.65.5-1.65,2,1.65.5-.65,3,.15,1-1-2-3h1v-.5h1.5l1,1,1-1,1,1,1-1,2,1.35.5-1.5,2,2.65-1,1h1l.5.85,1-.5-1.5,1,1,.5-1,2,2.5,1.5h.5v-.5l1,.5-.5,2-.5-.5-.5,1,.5,2-1,.5,1.5,2v1l3-.5,1.5,2.5,1-1,1.5,1.5v3.5l1.5-.5-.5,2.5h-2l-1,3.5-2,1.5-4,.5-1,1h-3.5l-1.5,2.5,1.5,1v1.5h-2l1,1-1,1.5h-1l-2.5,3.5-5-1.5-1-1.5-1,1-4-3,3.5-4-5.5-4-1.5-4.5-1,.5-3-2v-3l-2-1-.5-2.85,1,1Z"/>
      <path data-code="TVE-RZH" d="m95.25,90.6l1.6-1.2.9.7,1-1.5.5,1,.5-1.5,1.5-.5v1h2l3.5,2,.5-1,1.5-.5.5-1,4,1.5-1,1.5,1,2,1.5-1,2,.5.5,2-1.5,5,2.5,1.5-.5,1,1,1.5-.5,1h1l-.5,1,1.5,1-1.5,2,1.5,2,2-1-1,.5v1.5h-.5l-1.5,3.5,1.5,2-.5,3,1,.5-.5.5,3,1.5-2,.5-1.5,3,2,1v1h-2l.5,1-.5,1.5-1.5.5-.5-1.5h-1.5v-1h1v-1l1-2-3-2.5-4-.5-2.5.5v1l-4,2-1.5-1h-1v1l-1-.5-.5,1-1.5.5-1-.5-1,2.5h.5l-2,2v2.5l-2.5.5-1.5-7.5-2-.5-2,.5-1-2.5-1.5-.5-1-2,1-1-.5-1.5,1-1.5,2.5-1-1-.5,1-1.5-1.5-1.5,2-1.5.5-2,1.5-1,.5.5-.5-1,1-1.5-.5-1.5,1.5-1,.5-6,.5.5,2-.5.5-4-1.5-3.5"/>
      <path data-code="TVE-SAN" d="m237.75,29.6l2,.5.5,1-.5.5,1,.5h1.5l.5,1.5,1-1-1-.5,2-1,2,2,.5-1h3.5l3.5,3,1-1,1.5,5,.5-1,2-1,1,1.5,1.5-.5.5,1.5,3-1.5v-2l2-.5,1.5,1,.5,2-.5,1,2,1-1.5,1.5-1,.5,2,.5-.5,1.5,2,.5-.5,1-3,1.5v.5h-.5v.5l-.5.5,1,1-1,.5,1,1-1,.5-.5,1,.5,2.5-1.5,1.5-.5,2-1-1-1.5,1-1-4-2,.5-1.5,2-4-.5v-1l-4-2.5,1-1.5-.5-.5-2.5-1v1.5h-.5v-1.5l-2-1.5v1l-1.5-.5-2,1,.5,1,1.5-.5-.5,1-2,.5-.5,1,.5,1v1l-.5-.5-1-2,1.5-1-2-.5v1.5l-1.5-.85h1l.6-1.05-2.6-.45,2.5-2.5-1-.5.5-1.5,1-1-3-2.5v-2l1-1-.5-.5,1-.5v-1.5l-1.5-2,1-2-1-2.5.5-1.15"/>
      <path data-code="TVE-SEL" d="m79.75,67.1h2l.5-2.5,1-.5.5-1.5,1.5,1,3-3h1l.5-1-.5-1,1,.5,2.5-4,1.5.5,3-3,3,2.5,1-.5v-1.5l1,1.5,2-.5v.5l-1.5.5.5,1.5,4,1.5,1.5-2.5,1.5,1.5h3l2.5,1.5,2-1.5,1.5,2.5v1h-1.5v1l3-.5.5-1.5,1.5.5v1h-1l-1.5,2.5,5,2.5v.5l-3,1,1,1-1.5,2,.5,1.5-2.5,2.5v1.5h-1.5l1,2h-.5l-.5,1.5,1,1-1,1,.5.5-3,3,1,1h-1l-.5,1-1-1v1h-.5l-1.5-1-.5,1,1.5,2.5-4-1.5-.5,1-1.5.5-.5,1-3.5-2h-2v-1l-1.5.5-.5,1.5-.5-1-1,1.5-2-1.5-.5.5-1-.5-1,1.5-1-.5.5-1-2-1.5.5-2h-1v-1h-.5l-1,1-2.5-.5-1.5.5v-1.5l-3.5-.5,3.5-1-1-4.5-2.5-1h.5l-1-2.5-1,.5.5-1-1-2.5,1-2-.5-2"/>
      <path data-code="TVE-ZSO" d="m109.75,38.6h.5l1.5,1-1.5.5-.5-1.5"/>
      <path data-code="TVE-SON" d="m241.25,93.25l1.5-1.15.5-2.35,1.5-1.65-.5-1.35,2-2.5,2.9-.65,1.6,1-.4,2.3.9,1.35h3l1,2,1.5-.5,1-1.5,3-1.5-.5-1.5,5,2-1,1.35-1,1,1,1.5-1,1.5,1,2h1-1l-1-2-1.5.5-.5-1-1.5.5,2,3-2.5.5-1,1,3,3-1,.5v1.5l1,2-1,1.5,1,4-1,.5.5-1.5-1.5-1-.5,1.5-2.5,1.5-1.5-2,1-2-.5-2-1.5.5-1,2.5h-1l-.5-5-1-1-3.5,1-3.5-1v-2.5l-3.5.5.5,2.5-1-.5-.6-.55-.4-5.35,1.5-2v-1.15l1.5.7Z"/>
      <path data-code="TVE-SPI" d="m165.25,68.6l3.5-1.5.5-1.5,1,.5v-2l6-.5,1.5-1.5,1.5.5,3-3,1.5,1,2.5-1v2.5l3,.5v-1.5l1,2.5,1-.5v-.5l1,.5-2,1v.5l1-.5,2,1v-1l2.5.5,1.7-1.2.3.3h1v1.5l1-.5.5-1.15,3,2.65-1.5,1,.5,1h-1.5l-.5,2-1-.5-1,1,3.5,3.35.5.5-1.25,1.15.75.45-3.5-.65-.5-1.5-2,1.5-.5-.5-1,1.5-4.5-.5-1.5,1.5-.5-1-.5,1h-1.5l-1,.5h-1.5l-.5,1,.5,1.5-1-.5-.5,1.5-1,.5-2.5-2,.5-1-.5-.5h-.5v1l-1,.5-1,.5v-1.5l-1,.5,1,1.5-.5.5-1-1-.5-4.5-.5.5v2l-1.5,1-.5.5h2v2.5l-1,.5,1,1-1,1.5-1.5,1-.5-2h-1.5l-.5-3,1-2v-3l-2-2-1.5-1-1.5.5.5-1.5-2,1-4.5-1,.5-1.5-1.5,1-.5-1,3-4.5,5.5,2.1Z"/>
      <path data-code="TVE-STA" d="m113.75,87.1h.5v-1l1,1,.5-1h1l-1-1,3-3-.5-.5,1-1,.5-2.35,6,4,2,.5.5,4h2.5v3.35l-1,1-.5-1-1,2,3,1.5-.5,1.5-1.5,2,.5,1.5h1.5l1,2,1-1,2,1v.5h-1l1.5,1.5h.5l1-2.5,2,.5-1.5.5v2h-.5v1l-1.5,1,.5,1-.5,1.5,1.5,1.5-1.5.5v4l5,1,1.5-1h4.5v-1l5.5,2h3l1,1.5,1-.5-.5,2.5-1-1.5-4.5,1,.5,2-.5,1,2,.5-1,1,2,2.5-.5,2h1l.5-1.5v1.5l-1,.5-2.5-1-1,1.5-.5-1h-2.5,1v.5h-1.5l-1,1v.5l-2,.5v1.5l1.5.5-.5,1.5h-.5l.5,2h-1.5l-1.5,2,1,1h2v1l-2.5.5.5.5-.5-.5-1.5,1.5v.5l-.5.5h-.5l-2-3.5-2,.5-1-.5v-3l-4.5,1,.5-1-1-1,1.5-1.5-1-1-3,.5-2.5-.5-.5,1-1-3.5-2.5-1h1v-1l-2-1,1.5-3,2-.5-3-1.5.5-.5-1-.5.5-3-1.5-2,1.5-3.5h.5v-1.5l1-.5-2,1-1.5-2,1.5-2-1.5-1,.5-1h-1l.5-1-1-1.5.5-1-2.5-1.5,1.5-5-.5-2-2-.5-1.5,1-1-2,1-1.5-1.5-2.5.5-1,1.5,1Z"/>
      <path data-code="TVE-TOR" d="m27.25,11.1l3-1.5,2,1.5.5-1.5,1.5-.5v-1l1.5-1h1l-1,1,.5,1,2-.5-.5-1h2l3-3h1l1,.5-1,2v2.5l7.5,4-1.5.5,2.1,4.05-1.6,1.6.5,1-1,1,1,.5-1,.5,3.5,1-.5,1.5h2l.5.5-1,1h1.5l-1,1,1,1-1,.5-.5,1-1-1-1.5,1,1,.5-1,1,2,3.5-3-1-1,1,.5.5-1-.5-.5,1.5-1.95.05.45.95-1.5.5v1h1l-.45,1.55.45.95h-1.5l.5.5h1l1-1,1,.5v3.5l2.5,2.5h-.5v.5h1.5l-.5.5.5,1.5-1,.5-1.5.5,1.5.5,1.5-.5v2h-.5v1h1l1,1v1l-.95,1.55-2.55,1.3-2,1.5-1.5.5-1.5-.5-2.5,1.5-2.5-2.5,1-1-3-1v-1.5l-1,1-1-2.5-2-1-.5,1-6-2.5-1,.5-4-3,.5-1.5-3-3.5,3.5-4-.5-1,.5-.5-3.5-8,1.5-.5-.5-.5,1-1,.5,1,1-1.5,2-1,2.5-2.5,1,.5.5-.5-.5-2-5-3,.5-4.5,1.5-.5-1-2.5,2,1,1-.5-1.5-2"/>
      <path data-code="TVE-TRM" d="m154.75,87.6l-.5,2,2.5,2-.5,1.5,2-.5.5-1.5,1-.5.5-3-1.5-.5-1,1-1.5-1-1.5.5m-24,.5l2.5-1h2.5l4,2.5h2.5l.5-1-2-1,2-2.5.5-2.5,1,.5,1-1-1-2,.5-1.5-1-.5.5-3h1.5l.5-2h1.5l1-1.5-1-2.35,1-1v-1l1.4-.35.1,1.7.5-1,2-.5,1,.5-.5,3,3.5.5.5,1,1.5-1-.5,1.5,4.5,1,2-1-.5,1.5,1.5-.5,1.5,1,2,2v3l-1,2,.5,3h1.5l.5,2,1.05-.7-.55,2.2-1,1h-1l.5,2-1,.5v2l-1.5.5-.5,3.65,1.5.5-.5,1h-.5l.5,1.85h-1l-.5,1.5-2,.5,1,1-1.5.5-1.5-1-2,1-2.5-2-.5,2-.5.5,1,1-2,.5-.5,1.5h-1v2l2,.5,1,1-1,4.5-1-1.5h-3l-5.5-2v1h-4.5l-1.5,1-5-1v-4l1.5-.5-1.5-1.5.5-1.5-.5-1,1.5-1-.5-1,1-.5-.5-.5.5-1,1.5-.5-2-.5-1,2.5h-.5l-1.5-1.5h1v-.5l-2-1-1,1-1-2h-1.5l-.5-1.5,1.5-2,.5-1.5-3-1.5,1-2,.5,1,1-1v-2"/>
      <path data-code="TVE-UDO" d="m177.75,28.1l1.5.65v1.5l3.5-.65,1.5-3.85,2-1,.5-1,1-.5v-2.5h1.25l1.35,2.05,2,.15.4,3.1h2l2.5-2.5v-1l1.5-.5v-1l1-1-1-.5,5-.5.5,2.5,3.5,2.5,1,3.5h3.5l-1,1.65,1.5,5.5-.5.5-.5,1-1-1-.9,1.05,1.9.95-1.5,4.35,1.5,1h-.5l2.5,4.5-1.5,1.5-.5,1.65-2,1.5-1.5-1.5-1.5,1.5.5,1-1,1-.5,2-4,1v.5l-1.5,1-1.5,2.5-2.5-2-1.5,2,1.15,1.15-.65.7-3-1v-1l1-1-1.5-.5,1.5-1-1-1.5-.5,1-1-2,1-.5-2-.5-.5,1v-1.5l1-1-1-.5-.5-1.5h-3.5l1-2h-1.5l-1-2,2.5-.5v-2l-3.5-2.5,1-1v-.5l-3.5-2.5-.5-1,.5-1.5-1,.5-1.5-1,1-1.85-1-5.1"/>
      <path data-code="TVE-VES" d="m269.25,35.6l1,1,1.5-2,3-2,.5,1,1-1,3.5,1.5,1-.5.5-1v-3.5h1.5l2.5-.5,5,4,2.5-1,1.5,5-2.5,4,.5,1.5-1,1v2l-.5,1h2l-3,2,2,2-1,4.5,1.5,3.5-.5,2.5,1,2-.5,4.5-.5-1-1,1.5-1,.5-2.5-1.5-1.5,1.5-.5-2-1.5-.5h-1l-.5,1.5-1,.5-.5-1-1,.5-.5-2,.5-.5h-1.5l-2.5-3-1.5,2,1,1h-1v1l-1.5,1-4-3.5-2-6h-1l1.5-1.5-.5-2.5.5-1,1-.5-1-1,1-.5-1-1,.5-.5v-.5h.5v-.5l3-1.5.5-1-2-.5.5-1.5-2-.5,1-.5,1.5-1.5-2-1v-1h.5l-1-1.5,1-1.5"/>
      <path data-code="TVE-VYS" d="m140.25,50.6l2-1v-1l3,1.5,2.5-3.5,1.5-.5-1-5.5,2-2,4-.5,2.5.5.75-1.1,1.25,2.2,1.5-2.65,1.5.15.5-2.65,1.5.15,1.5-1.65,1.5,1.5,1-1.85,1.5-.5,1,1v-.65l2.5.5.5-2.35,1,1,3-2v2.5l1.5,1-1,1.85,1.5,1,1-.5-.5,1.5.5,1,3.5,2.5v.5l-1,1,3.5,2.5v2l-2.5.5,1,2h1.5l-1,2h3.5l1,1-.5.5,1,.5-1,1v1.5l.5-1,2,.5-1,.5,1,2,.5-1,1,1.5-1.5,1,1.5.5-1,1v1l3,1,.65-.7,1.55,1.55-1.7,1.2-2.5-.5v1l-2-1-1,.5v-.5l2-1-1-.5v.5l-1,.5-1-2.5v1.5l-3-.5v-2.5l-2.5,1-1.5-1-3,3-1.5-.5-1.5,1.5-6,.5v2l-1-.5-.5,1.5-3.5,1.5-5.5-2-3,4.5h-.5l-3-.5.5-3-1-.5-2,.5-.5,1-.5-4.5h-1l-.5,1-2.5.5.5-2-5-1,1.5-.5-3.5-2.5.5-1-1-.5,1.5-.5-2.5-1.5h1l-1-2h.5l.5-1.5,1,.5v-.5l2-1-1.5-1"/>
      <path data-code="TVE-ZAP" d="m6.75,68.6l1.5-1,6.5-.5,1.5-1.5v-2l1.5-1.5v-1.5h3l1-1.5-.5-1.5,2-3,2.5-1.5,1,.5,1.5-1.5,6,2.5.5-1,2,1,1,2.5,1-1,.5.5-.5,1,3,1-1,1,2.5,2.5,2.5-1.5,1.5.5,1.5-.5,2-1.5,2.5-1.35,1,1-1,1,1,1.5-.5,2,.5,1,1.5-1h2l-2.5,4.85-1,.5.5,1.5h-2l1,1.5-1-.5-.5-1.5-2.5.5v1.5h1l-.5,1.5-3,1-2,2.5-3,1-1.5,1-.5-1.5-1.5,1-1,3h-4l.5-1.5h-2.5l-3.5,4-1.5-1-2.5.5-3.5-.5-.5-2-.5,1.5-4.5,1.5-.5,1-1,.5-4-1-1,1-2,.5v.5l-2,1-.5-1,1-1h-2,.5l.5-.5-1.5.5-2.5-2,2-6,1.5-1,1-2.5,1.5-.5.5-2.5v-2"/>
      <path data-code="TVE-ZHA" d="m6.75,85.6l2-.5,1-1,4,1,1-.5.5-1,4.5-1.5.5-1.5.5,2,3.5.5,2.5-.5,1.5,1,3.5-4h2.5l-.5,1.5h4l1-3,1.5-1,.5,1.5,1.5-1,.5,1-2,2,2.5,2.5-1.5,1h-.5l1,.5,2-2-.5,2.5,2,2v.5h-1v4l-1,2-2,.5.5,1-1,1-1,2.5-2-.5-2.5,1.5-2-.5v1l-2,3-3-1.5-.5,2,1.5-.5-2,2.5-3.5-2-1,1.5-1.5-1.5-1.5,1-1-3.5-.5-.5v1l-1.5.5-.5-2h-1v.5h-2.5v-.5l1.5-1.5,1.5,1,2-1-1-1v-1l1-.5-1.5,1,1-1.5.5-1.5-4-3.5.5-1-.5-.5-.5,1-3-1.5-1,.5-1,2-1,1-1.5-1,1-1-1.5-2.5v-1l1-.5v-.5"/>
      <path data-code="TVE-ZUB" d="m98.75,126.6l1,.5,1.5-.5.5-1,1,.5v-1h1l1.5,1,4-2v-1l2.5-.5,4,.5,3,2.5-1,2v1l-1,1h1.5l.5,1.5,1.5-.5.5-1.5-.5-1h1l2.5,1,1,3.5.5-1,2.5.5,3-.5,1,1-1.5,1.5,1,1-.5,1,4.5-1v3l1,.5,2-.5,2,3v2.5h-1v1.5l-2,.5-1-1.5-4-1-.5,1,1,1.5-1,.5v.5l-2.5.5-1,.5v.5h-1l-.5.5.5,2.5-4,1.5-1-1-.5.5-1,.5h-1l-3.5,2-1-.5-.5-1,.5-2.5-4-1v-1.5l-1.5.5-1.5-1.5-1,1-.5-1.5,1-.5h-2l-.5-2-3.5,1v1h-1l-2.5-1.5h1v-1.5l-2-1,.5-2-1.5-4v-5l2-2h-.5l1-2.5"/>
</svg>