
<svg xmlns="http://www.w3.org/2000/svg" viewBox="0 0 120.5 134.65">
      <path data-code="TUL-ALE" d="m64.25,11.4l1,.5.5-1.5,3.5,1-.5-4,3-.5,2.5,2.5-.5,3,1.5,1,1.5-.5,1.5-2.5,3-.5,2-2v2.85l-1,.5v1l2,2.5-2,.5.5,1.5-.5,1-4,.5,1.5,1.5-1.5,1.15-.5,1.5-1,.5h1l-.5,1.85,1-.5.85-2.5h1.65l.5,1.5,1-1,.5,1-.5,1,.9.45-2.4,5.2-1-4.5h-2l1,2-1,1-2-2-2.5,1.5-1-.5-1,1-.5-.5-.5,1.5-4.5.5-2-1-.5-2.5-2,1-1.5-3,1.5-2-.5-1.5,3.5-1.5.5-2.5h1l-.5-2h-2v-1l1-.5v-2"/>
      <path data-code="TUL-ARS" d="m13.25,55.75h.5v-.5h-.5v.5Zm.5-12.85l.5.5,1-1,2,2,2-1,1-2.5,3.5,3.5.65-.95,1.85.85,1.5,1.5-.5,1.5,1.5-1,3,.5,1.5,1.5-.5,1.5,2,1.5-.5,2,1-.5,3.5,2-1,.65,1.5,1-.5,1.5h-4v2l-5.5,1.5-1.5-2-3,1-2-1.5-.5,1.5h-1l-4.5-1.5-1-.5-1,1.5-1-1h-2.5l-1.5,1-1-1.5-2,.5v-2l-1-1,1-1.5v-1.5l1.5-1.5,3.5-1,.5-1h-1.5l1-1.5.5-2h1l-.5-2.5,1-.55Z"/>
      <path data-code="TUL-BEL" d="m8.25,25.4l4.5,1,1-2.5h2v-.5h1.5l.5-.5,1.5.5.5,2.5,1-.5v-2.5l2,2-.5,1.5,2,.5-.5,1,1.5,2.5,2,.5,1.5-.5,1.5,3.5-.5,1h-4.5l1,4-2.5,1,.5,1.5-1,1.5,1.15.55-.65.95-3.5-3.5-1,2.5-2,1-2-2-1,1-.5-.5-1,.5.5,2.5h-1l-.5,2-1,1.5h1.5l-.5,1-3.5,1-2.5-1.5,1-1h-2.5l-2.5-4.5-1,.5-.5-1,2.5-2-.5-2,.5-1,2.5-1,1.5,1,1.5-1-1.5-2,.5-.5-2.5-1.5,1.5-2-.5-.5.5-1.5h2.5l.5-1-1-3.5"/>
      <path data-code="TUL-BOG" d="m67,73.6l2.25,1.3,1-1.5h1.5l.5.5h4.5v1l-2,.5,2,1-.5,1.5,1,1,1.5-1.5-.5-1,3,2,1-.5-.5,1.5,1.5.5.5,2-2.5.5-.5,1.5,2,3-1,1.5h1.2l-2.2,4.5,4,1v2l-1.5,2-2,.5-5.5-4-1,1-1-.5v.5l-1,1-2-2.65-3-1,.5-2.85-4-2.5,1-2-1.5-4.65-1.5-1.35"/>
      <path data-code="TUL-CHE" d="m6.75,58.9l2-.5,1,1.5,1.5-1h2.5l1,1,1-1.5,1,.5,4.5,1.5h1l.5-1.5,2,1.5,3-1,1.5,2,3-.8,4,8.7-2.5.5-1,3-1,.5v2l1,1-.5.5,2,1.5-1.5,5.5,2,.5-.5,2.5h1.3l-.3,2,2.5.65-1.5,1.5-1.5-.5-1,2-2.5-3h-5l-4-3v-2l-3.5-1,1-1.5v-.5l-4.5-1,1.5-.5-3-1.5-1-1.5.5-1.5h-1l1-1-1-4h1l1-1-1-3-1,1h-2.5l-1.5-1-.5-2,1-2.5-2-.5v-2.55"/>
      <path data-code="TUL-DON" d="m85.25,73.75v-1h1.5v-.85l7.5-1.65.55,1.75-1.55-.6-.5,1.5-1,.5-1-1.5-.35.4.8.95-2,1.5-3-2-.95,1v1l-1-.5v-.5h1Zm4.5,2.5v1l1-.5-1,1-1-.5,1-1Zm0,1.5v1l-1-.5,1-.5Zm-4.5-1.5h1v-.5l-1.5-.5.5,1Zm-1-1.5l.5.5-1,1-.5-1,1-.5Z"/>
      <path data-code="TUL-DUB" d="m47.25,25.25v1.5l1-1,1,1.5,1-.5.5-1.5.5-.5,1.5,1.5v-2l1.45-1.45.55-.9,1.7,2,3.3.5,1.5,3,2-1,.5,2.5,2,1-.5,1-2,.5v1.5l1.5,1-1.5,2,1,.5-2.5.5.5,2-1,2h-1l-.5,1.5-.5-1-1,1-5.5-2.5h-2.5v1l-2,.35-4-3.5,2-8.35-.5-.65-1.5-2,.5-1,2.5-.5Z"/>
      <path data-code="TUL-EFR" d="m36.25,112.9h2.5l2.5-2.5,2.5-1,1,1,1-.5v-3.5l2.5-2,1.5-2,1,.5,5.5-.15v2l2.5,1.5,1,2.5,2.5-1.5,1,.5.5-2,1,4.15,1,1,2-.5-2.5,2.5h1.5l-.5,1,2.5,3-1,.5v.5l-.5,1,1.5,2-1,.5v2l-2,.5-1-.5-1,1.5,1.5,1v3l-3,2h-1l-.5,2-1-.5-1.5.5-.5-1-1.5,2.5-1-1,1-1-.5-2.5-2,1-3.5-1-1.5,2-2-.5,2-3.5-.5-2-2.5.5-.5-4h-1.5l1-1.5-3-1.5-3-3-3,1.5-1-.5,1.5-4.5"/>
      <path data-code="TUL-TUL" d="m63.25,31.4l2-.5.5-1,4.5-.5.5-1.5.5.5,1-1,1,.5,2.5-1.5,1,.5,1,1.5,1-1-1-2h2l1,4.5,3.5-1,.5.5-1.5,1.5v2.5l-1.5,1-.5,4,2-1.5,3.5,2,1-.5,1-1.5,2.35,3.95-2.35,1.05.5,1.5,1,.5-1,.5-.5,1,4.5,1v1l-2,1-1.5-1-1.5,1-1-1-2,.5-.5,1.5-1-1h-1.5l-1.5,2,1,1.5-1,1.5h-1.5l-.5-1-1,.5-1.5-1.5v1.5l-2,2-4,1.5-1.5-1.5-1-6.5-1.5-.5-2,.5-.5-.5.5-2.5-3.5.5-2.5-3.5,1-1,.5,1,.5-1.5h1l1-2-.5-2,2.5-.5-1-.5,1.5-2-1.5-1v-1.5"/>
      <path data-code="TUL-YAS" d="m84.25,25.25l1-.5.5,1,4-1,.5-1.5,6,2.5.5-2.5,2.5-2-1-1.5.9-3.1,3.6-.25,2-2v-1l.5-.5h1l-.5-2,5.5,2.5,1.5,2-.5,2-2.5,1,2,1.5v1.5l-1,1.5h-.5l-.5,1h.5l-.5,2-1.5,1,1.5,1-.5,2-2,.5-.5,1-1,.5-1,2.5h-1l1-.5v-1l-1-1-.5,1v1.5h-1v-1l-1.5,1,1.5,2.5h-1l-.5,1.5h1l-.5.5-3,.5v1.5l-4-.5-.5,1.5h-2l-3-5-1,1.5-1,.5-3.5-2-2,1.5.5-4,1.5-1v-2.5l1.5-1.5-4,.5,2.4-5.2,1.1.55Z"/>
      <path data-code="TUL-KAM" d="m32.75,93.4l.8-.75,1.2-2.25,1.5.5,1.5-1.5-2.5-.65,4.5-.5.5,3,2-1-.5,1,2.5.5.5,3,2.5.5,2.5,1.15.5.5-1,3v1l1.5,2-1-.5-1.5,2-2.5,2v3.5l-1,.5-1-1-2.5,1-2.5,2.5-1,.5-2.5-3.5.5-2h-4l-1-1,1-2,1-3.5,4.5-5.5-3.5-1-1-1.5"/>
      <path data-code="TUL-KIM" d="m92.75,72.9v-1l.5-.5,3.5,1.35h2.5l.5,2,1.5.5-1,1.5h2l1-1.35,1.5,1-.5,2.5-2.5.5v1l1.5.5.5-.5v-1l1-.5.5,1.5-2.5,2.5v2.5l1.5.5v1.5l-2.5,1-1-1.5-1.5,1.5,1,3h-3l1,2-1,1.5-1-.5v2.5l3,.5-1,3-1.5.5-2.5,3-7-1-.5-2.5-3.5-2.5,1.5-2v-2l-4-1,2.2-4.5h2.3l4-2.5v-4.65h.5v-2l2-3.5-.5-1.5.5-.85,1-.5Z"/>
      <path data-code="TUL-KIR" d="m66.75,58.4l4-1v-1.5l3.5-1,2-2v-1.5l1.5,1.5,1-.5.5,1h1.5l1-1.5-1-1.5,1.5-2h1.5l1,1,.5-1.5,2-.5v.5l1,1-.5.5-.5,1,1.5,2.5-1,1.5h-1.5v1.5l-1.5,1.5.5,1-1,1.35,2,1.5v1l-2-1.5-2,1.15-.5,2h-.5l-.5,1h-1.5l.5,1.5-2.5,1-1,1.5.5.5.5,3h-1.5l-1,1h-4.5l-1,1.5-3.5-2-4.5-5.5,3-2,1-1.5-.5-.5h2l-1-1.5,1-3.5"/>
      <path data-code="TUL-KUR" d="m62.75,103.25l3.5.5.5-1.35h1l4-2v-1l1.5-.5-1-1.5.5-1,1-1v-.5l1,.5,1-1,5.5,4,2-.5,3.5,2.5.5,2.5,5.45.8-.95,1.7,1.5,2-1.5,1.5-1.5-.5-.5,1.5-1.5.5v-2l-5-1.5-1.5,1.5.5,2-1.5.5-1,1-.5,3.5-2,2.5-2-2-1.5.5-1-1.5h-3.5l-2,1-1-2,.5-1h-1.5l2.5-2.5-2,.5-1-1-2-6.65"/>
      <path data-code="TUL-NOVM" d="m86.25,61.25h1.5l1.5-1,2,.5h1.5l2-.5h-3l5.5-5.5,2,4,2-1.5.5.5-.5,3.5,5-.5,1.5-1.5,2.5,3v2.5l1,1-1,2.5-2,.5,2.5,1-.5,2.5-1.5,1.5h-4l-1,1.5.5.5-2,1h-2l1-1.5-1.5-.5-.5-2h-2.5l-1.95-.75-.55-1.75-7.5,1.65v-4.15l-2-2.5.5-1.5,1-.5v-2"/>
      <path data-code="TUL-ODO" d="m29.75,34.9l.5-1-.95-2.15,4.45-.45,2.5-2,1-2h2l1-1.5,1-.5v3l2.5,1.5,2.5-.35-2,8.35,4,3.5v1l-2.5,2.5,1.5,2-1.5,1.5,1,.5v2.5l-1,1-1-.5-1,1v1.5l-1.5,1.5-3.5-1-3.5-2-1,.5.5-2-2-1.5.5-1.5-1.5-1.5-3-.5-1.5,1,.5-1.5-1.5-1.5-3-1.35,1-1.5-.5-1.5,2.5-1-1-4h4.5v-.05Z"/>
      <path data-code="TUL-PLA" d="m38.75,57.9l.5-1.5-1.5-1,1-.65,3.5,1,1.5-1.5v-1.5l2,4,4,.5,1,4.5-2,.5.5,1.5-1.5,1.5h1.5l-.5,1,2,1v.5l-.5.5,1,2.5-1,2-1-.5-1,1h-1.5l1,4.5h-4l-3.5,1-.5,1.5-2,2.5v2l-2,.5-.2,1.5h-1.3l.5-2.5-2-.5,1.5-5.5-2-1.5.5-.5-1-1v-2l1-.5,1-3,2.5-.5-4-8.7,2.5-.7v-2l4,.05Z"/>
      <path data-code="TUL-NOVG" d="m79.75,19.75l-1.5,4.5-1,.5.5-1.85h-1l1-.5.5-1.5,1.5-1.15Z"/>
      <path data-code="TUL-SCH" d="m48.25,41.25l2-.35v-1h2.5l5.5,2.5,2.5,3.5,3.5-.5-.5,2.5.5.5,2-.5,1.5.5,1,6.35,2,1.5v1.15l-4,1-1,3.5,1,1.5h-2l.5.5-1,1.5-3,2,1.5,1.85-2.5,3-2-.5-1-1.5h-3l-1,1.5-2-1-1-2.5.5-.5v-.5l-2-1,.5-1h-1.5l1.5-1.5-.5-1.5,2-.5-1-4.5-4-.5-2-4,1-1,1,.5,1-1v-2.5l-1-.5,1.5-1.5-1.5-2,2.5-2.5v-1"/>
      <path data-code="TUL-SLA" d="m13.25,55.25h.5v.5h-.5v-.5"/>
      <path data-code="TUL-SUV" d="m24.25,8.75l1.5-.5,1.5.5-1,.5v1l3,1.5,1.5,3.5,2-.5,1-1,.5-1h1l.5,1.5,1.5-1,.5,3,1.5-.5,1,1,.5-.5.5-.5,2.5,1,.5-2.5h.5l4.5,4h1.5l1-1-.5,2.5,1.5.5.5,2h1.5l-2,2v2l-1.5-1.5-.5.5-.5,1.5-1,.5-1-1.5-1,1v-1.5l-2.5.5-.5,1,2,2.65-2.5.35-2.5-1.5v-3l-1,.5-1,1.5h-2l-1,2-2.5,2-4.45.45-.55-1.35-1.5.5-2-.5-1.5-2.5.5-1-2-.5.5-1.5-2.45-2.3.95-1.3,1,.5,2-2,2.5,1,1.5-1.5-3.5-4.5.5-.5.5,1.5,2-.5-.5-1.5h-2l1.5-1-1-3h-1.5v-1"/>
      <path data-code="TUL-TEP" d="m40.25,78.75l3.5-1h4l-1-4.5h1.5l1-1,1,.5,1-2,2,1,1-1.5h3l1,1.5,2,.5,2.5-3,4.25,4.35-4.75,5.8,1.5,1.35-4,2-2-.5-.5,1-1.5-1-.5,1-1,.5-.5,1.5-1.5,1-1.5,2.5-1.5.5-1,1.5,2,2-3,2.5-2.5-.5-.5-3-2.5-.5.5-1-2,1-.5-3-4.5.5.5-3.5,2-.5v-2l2-2.5.5-1.5"/>
      <path data-code="TUL-UZL" d="m88.75,78.25l1,.5v-1l-1,.5m-5.5-3l.5,1,1-1-.5-.5-1,.5m1.5,0l.5,1h1v-1,.5l-1.5-.5m4,2l1,.5.5-.5.5-.5-1,.5v-1l-1,1m-11.5-9.85l2.5-1-.5-1.5h1.5l.5-1h.5l.5-2,2-1.15,2,1.5v1l-1,.5-.5,1.5,2,2.5v5h-1.5v1h-1v.5l1,.5v-1l1-1,3,2,2-1.5-.8-.95.35-.4,1,1.5-.5.85.5,1.5-2,3.5.5.5-.5,1.5h-.5v4.65l-4,2.5h-3.5l1-1.5-2-3,.5-1.5,2.5-.5-.5-2-1.5-.5.5-1.5-1,.5-3-2,.5,1-1.5,1.5-1-1,.5-1.5-2-1,2-.5v-1h-4.5l-.5-.5h3l1-1h1.5l-.5-3-.5-.5.95-1.5Z"/>
      <path data-code="TUL-VEN" d="m91.1,40.8l.65,1.05h2l.5-1.5,4,.5v-1.5l3-.5.5-.5h-1l.5-1.5h1l-1.5-2.5,1.5-1v1h1v-1.5l.5-1,1,1v1l-1,.5h1l1-2.5,1-.5.5-1,2-.5.5-2-1.5-1,2-1.65,2,1-.5,2,2.5,1-.5,2,2,.5-.5,2.5h2v2.5l.5-1,2.5,1-.5,5-3.5-.5-.5,1.5-.5-.5v1l-.5-1h-2.5v2l-2,2,1,2.5v1.5h-1v1.5l1.5,1.5-2.5,2.5-.5,1.5-1.5,1,.5,1-1.5,1.5-2.5.5h-2.5l.5-3.5-.5-.5-2,1.5-2-4-5.5,5.5,3-.5v.5l-2,.5h-1.5l-2-.5-1.5,1h-1.5l-2-1.5,1-1.35-.5-1,1.5-1.5v-1.5h1.5l1-1.5-1.5-2.5.5-1,.5-.5-1-1v-.5l1,1,1.5-1,1.5,1,2-1v-1l-4.5-1,.5-1,1-.5-1-.5-.5-1.5,2.35-1.05Z"/>
      <path data-code="TUL-VOL" d="m50.75,88.75l1.5-2.5,1.5-1,.5-1.5,1-.5.5-1,1.5,1,.5-1,2,.5,4-2,1.5,4.65-1,2,4,2.5-.5,2.85,3,1,2,2.65-.5,1,1,1.5-1.5.5v1l-4,2h-1l-.5,1.35-3.5-.5.9,2.9-.4,1.6-1-.5-2.5,1.5-1-2.5-2.5-1.5v-2l-5.5.15-1.5-2v-1l1-3-3-1.65,3-2.5-2-2,1-1.5,1.5-.5Z"/>
      <path data-code="TUL-ZAO" d="m84.75,4.75l2.5-.5,1.5-2.5,3-1.5v1.5l1-1.5,1,2.5,1-1v1l2,1.5.5,3-1,.5,1,2-.5,1.5-1,1,2.5,1.5,1,2.5-1,3.5,1,1.5-2.5,2-.5,2.5-1.5.5-4.5-3-.5,1.5-4,1-.5-1-1,.5-2-1,.5-1-.5-1-1,1-.5-1.5h-1.65l.65-2-1.5-1.5,4-.5.5-1-.5-1.5,2-.5-2-2.5v-1l1-.5v-2.5l2-1-.5-2.5"/>

</svg>