<svg data-code="RU-TY_1" xmlns="http://www.w3.org/2000/svg" viewBox="0 0 416.2 279.89">
    <g data-code="tyva">
      <path data-code="ak-dovurak" class="cls-1" d="M68.08,173.26h5.5l1,3-5,1.5v-1l-1.5-3.5"/>
      <path data-code="baj-tajginskij_kozhuun" data-title="baj-tajginskij kozhuun" class="cls-1" d="M.58,145.26l2.5-1,4,1,5-1.5,1-2.5,1-1,2,.5,1.5-1.5,2.5,1.5-1.5,3.5.5,3h1l2.5-3,4-1,5.5,3.5,1,2.5,1.5-1,4.5,2.5,3.5-.5,1.5,1.5.5,3.5-4,.5-4,4,.5,1.5-.5,2.5.5,2.5h2l.5,4.5,2,1,.5,2,1,.5,2.5-.5,4,2,5-3.5h3.5l.5,2-1,1,.5,3,1,2h1.5l1.5,6.5.5,3.5-1.5,3.5-.5,3.5,8,12-2,.5v3.5l-1,2.5-7-1.5-2.5,2-.5,1.5-2.5,2h-2.5l-1,2-3,1-2.5-.5-1-2-3,1-6-4.5-3-.5-.5-3,.5-2-2.5-.5-2-5.5-2-1.5-.5-3.5-2.5-1-.5-1.5,1-1.5-2-1v-1.5h-3.5l.5-2.5-1-.5-2-4.5-2.5-1.5-1-2.5-1.5-.5v-2.5l-1-1.5,1-1.5-.5-1.5.5-1-.5-2-2.5-1.5v-1l2-7-.5-3,.5-.5.5-1.5-3-5-2.5-.5v-3l-1.5-1-1-2.5"/>
      <path data-code="barun-khemchikskij_kozhuun" data-title="barun-khemchikskij kozhuun" class="cls-1" d="M68.08,173.26l1.5,3.5v1l5-1.5-1-3h-5.5M35.08,148.76l6.5-5.5v-2l3.5-3.5,1.5-4h3.5l3,2.5,2-2.5h2l4.5-3h2l4.5,4-1,3-1.5,3v3.5l3,1,1.5,5.5,1.5,1.5,1.5,7.5,4,7v1.5l1.5,1.5,1.5-1.5,1.5.5,1,2.5h-.5l1.5,1.5-2.5,6.5,2,4,.5,2.5v2l2.5,1.5-1.5,5.5,1.5,7,.5,1.5-.5,1.5,2,.5v1.5l-1.5,2,3,2,.5,2.5-1,3.5,2,2-5,2.5-8.5-2-6,1.5-.5-2,1-4.5-1.5-2.5-1.5-1.5-.5-1.5-1.5-1.5-6.5-10,.5-3.5,1.5-3.5-.5-3.5-1.5-6.5h-1.5l-1-2-.5-3,1-1-.5-2h-3.5l-5,3.5-7.5-2-.5-2-2-1-.5-4.5h-2l-.5-2.5.5-2.5-.5-1.5,4-4,4-.5-.5-3-1.5-2-3.5.5-4-2"/>
      <path data-code="chaa-khol_skij_kozhuun" data-title="chaa-khol&amp;apos;skij_kozhuun" class="cls-1" d="M118.08,144.76l1-3,1.5-1,1-2,2-2,1.5,1v2l1-.5.5-2-1-3,.5-2.5,1,2,5.5,3,6-2.5,8,3,3,3-1.5,2h-1.5l-2,1,.5,1,5,3h2.5l1.5,3.5-.5,1.5h-2l-3,2.5.5,1.5-1,1v3.5l-4,2-2,3,.5,1v1l-2.5,2-1,7-3.5,3-3.5-1.5-.5-2.5.5-1.5-3-1-.5-2.5-1-1-1-3.5h-2v-5l-1.5-1.5,3-1.5-1-8.5-3.5-.5-3.5-4.5"/>
      <path data-code="chedi-khol_skij_kozhuun" data-title="chedi-khol&amp;apos;skij_kozhuun" class="cls-1" d="M169.08,192.76l9.5-5.5-2-2.5h-4l-3-11.5,4-2.5,3-.5,1.5-1.5,1.5,1,2-1.5,1.5-.5,1,1.5,1,2.5h2v-3l1-2.5v-2l2.5-1.5,1,.5,1-2-1-2,1.5-.5,1.5,3,6.5-3.5,9,7v1l-2.5,2-.5,2.5,2,.5v3.5h1l2.5,4.5,1,4,1.5.5-.5,1,1.5,2v3l4,2.5-2.5,1.5.5,2.5-1,5.5-6,2-5.5-3-3,.5-4.5-1.5-3.5,1-1-2-4-1.5-1-2-1.5-.5-2,1.5-3.5-1.5-3.5,3-6-1.5-.5-2-2.5-1.5"/>
      <path data-code="dzun-khemchikskij_kozhuun" data-title="dzun-khemchikskij kozhuun" class="cls-1" d="M81.08,179.26l2.5-6.5-1.5-1.5.5-.5,7-3h2l2.5,2.5h1l1-2,1.5-1,4.5.5,1-1v-6.5l2-1.5.5-4,3-1.5.5-3.5,4-2,1,.5,2.5-2.5-1-2-3-4,.5-3-.5-1.5,1.5-2v-1h2.5l3.5,2,2.5,3.5-1,1-1,2-1.5,1-1,3,3.5,4.5,3.5.5,1,8.5-3,1.5,1.5,1.5v5h2l1,3.5,1,1,.5,2.5,3,1-.5,1.5.5,2.5,3.5,1.5-.5,1,3,6,1.5.5-2,2,1,1v1.5l-2.5-.5-2,3-2,1-1.5-2-1,1.5-.5,3.5-5,2-1,2h-12.5l-5,1.5,1,2.5v3.5l-.5,3.5-1.5,1.5-2.5.5-.5,2-8.5.5-2,1-2-2,1-3.5-.5-2.5-3-2,1.5-2v-1.5l-2-.5.5-1.5-.5-1.5-1.5-7,1.5-5.5-2.5-1.5v-2l-.5-2.5-2-4"/>
      <path data-code="ehrzinskij_kozhuun" data-title="ehrzinskij kozhuun" class="cls-1" d="M229.08,252.76h5.5l-1-3,4.5-8,5-4.5v-1.5l4.5-7,5.5-1,2-1.5v-1l3.5-1.5,1.5,2.5,2.5-.5,1.5,2.5,1.5.5,1.5-1v-3.5l1-.5v-1.5h2l1-3,3,1,2.5-1,5,.5,7-1,6,4.5,2-2,1.5,1,3.5-2-1-1.5.5-1.5,1.5-.5,2.5,2,2-.5,1.5,1.5,1,2-.5,2.5,1,3,7,8.5,4.5,2h1.5v1l1,2.5,2.5.5,3,2.5,1,3.5-1.5,2,.5,2,4,1.5.5,2h3.5l1.5,2,4.5,3.5,5.5,1,1.5,4,4.5,1.5-.5.5.5,1.5v2l-3,3.5-6,2-1.5,2-3.5.5-4.5-3-.5-2-4.5-.5-.5-3.5-.5-1h-5l-5.5-2-5,4-2.5-5h-1l-4.5,5-2.5-2.5-1-2.5h-1l-2-2.5-5-.5-3-1.5-1.5.5-2,2.5-3-2v-2l-2.5-1.5-3,1-.5,2,.5,2-2-1v1l-3,1.5-3.5.5-.5,2.5-1,1-4-4-14.5-.5-2-1-1-.5-.5-4-1-.5-8-.5-7,1.5-3.5-7.5"/>
      <path data-code="kaa-khemskij_kozhuun" data-title="kaa-khemskij kozhuun" class="cls-1" d="M234.58,138.26l6-4h9l1-.5.5-1.5,2.5-1,8,1,1-2.5,3-.5.5-3-.5-3,1,.5,1.5-1.5,5.5.5,1-2.5,4,2,2-1,1.5,1,4.5-2,1,5,14.5,11h4.5l3.5,3,1.5,3,2.5-1,15.5,1.5-.5,6.5h2l2.5-4.5,8.5-.5,6.5,4,5-5,9.5-1v-3l-3.5-7.5-1.5-1,2-1.5,4-1.5,3.5-7.5,8-1.5,2-6.5v-6.5l6-2.5,3,1,9.5-5,1,1h2.5v1.5l.5,1-.5,3,.5.5,2.5-1.5,3.5,3-.5,1.5-2.5-.5-2,1.5-.5,5-1,2.5.5.5-.5,4-1,1.5-.5,5-6,5.5-3-.5-3,4.5-4,.5.5,2.5h-1l-2,6-2,1.5,1,1-.5,2,1,1.5-1.5,5-3.5-1-3,2-1,4-3,4,.5,4-.5,1v4.5l-2,5.5-3.5,1-2-1-2,1.5-2-1.5-.5,1.5h-2l-1,1-3.5-1-6,6-4,1-3-1-2.5,1-.5,1.5-3.5-.5,1,3-.5,5-2,3-2,.5-1,2.5v3l-1.5,1.5-4,1.5-1,3-4,6.5v2.5l-1,1-1,5-3-4v-1.5l.5-1.5-1-3-1.5-1.5-2,.5-2.5-2-1.5.5-.5,1.5,1,1.5-3.5,2-1.5-1-2,2-6-4.5-7,1-5-.5-2.5,1-2-1,1.5-1.5-1-3-1-.5v-1.5l.5-1.5-1-1.5-3-.5-1.5-1.5.5-4.5-1.5-3.5.5-1-1.5-2.5-1-4.5-2-1-1.5-4-5-4.5-3.5-2.5,3-3-.5-.5.5-3.5h-.5l1.5-1v-1.5l-5.5-4-1.5-3v-.5l-6-4.5-3.5-5-.5-1.5,1.5-4.5-2-2.5-2-1v-3l-1.5-2.5"/>
      <path data-code="kyzyl" class="cls-1" d="M219.58,145.26l2.5-2.5,3-1.5.5-2.5,1-.5v-2.5h1.5l-1,6,7.5,2-4-.5-1,3.5h-4v1.5l2,2.5h-1.5v3l-4.5-3.5,1.5-1v-2.5l-3.5-1.5"/>
      <path data-code="kyzylskij_rajon" data-title="kyzylskij rajon" class="cls-1" d="M182.58,139.26l1-3,2,1,3-2,1.5,2.5-1.5,1.5,1,1h4.5l-1.5-1.5,3.5-1.5.5.5-1,1,3-.5-.5-2,1-.5v-1l3,2,4-4.5,2.5,1,4.5-.5,3,1,3,7,3,2-2.5,2.5,3.5,1.5v2.5l-1.5,1,4.5,3.5v-3h1.5l-2-2.5v-1.5h4l1-3.5,4,.5-7.5-2,1.5-7-1.5-3-1.5-.5,1-1.5-1.5-2.5,1-1.5,2.5-.5v-3.5l-.5-1-1,1-2-.5.5-1-.5-1.5-2-.5,1-2.5-1-2,3-3h1.5v-2h2l2.5-5.5h.5v-3l-2-.5,2-.5,1,1,1-.5-.5,1h1l2.5-2-.5-2,.5-.5-.5-1,2-.5v-4l1-.5,1.5,1,2.5-2v2l.5,2.5,3.5,3-.5,2,2,3.5-1,1.5,5.5,2,11-2.5,1.5,2.5,7.5,1.5,1,2,5,1.5,4,3.5,2.5,5v1l-4.5,2-1.5-1-2,1-4-2-1,2.5-5-.5-2,1.5-1-.5.5,3-.5,3-3,.5-1,2.5-8-1-2.5,1-.5,1.5-1,.5h-9l-6,4,1.5,2.5v3l2,1,2,2.5-1.5,4.5.5,1.5,3.5,5,6,4.5v.5l1.5,3,5.5,4v1.5l-1.5,1,.5.5-.5,4.5-4,2.5.5.5-1,.5v1.5l-2-.5-1,1-1.5-1.5-2.5-1h.5l-1-2.5,1-3.5-4.5-2-.5-1.5-2.5-1.5-1-7-6.5-2.5-2.5-2-1-3.5-2-3.5-4.5,1.5-.5,2.5.5,1.5-3.5,1-3.5-2.5-6.5,1,.5-2-1-1.5-5.5-1,2.5,1-2.5.5-3,2.5-1.5,2.5-3.5,1,.5-1-1.5-2v-3l-7-3v-1l1.5-.5.5-3.5-1.5-3-.5-3"/>
      <path data-code="mongun-tajginskij_kozhuun" data-title="mongun-tajginskij kozhuun" class="cls-1" d="M15.58,240.76l1-.5.5-3,2-1.5,1-2h-1v-2l5-1.5v-1.5l-.5-1,.5-3,.5-.5v-.5l3.5,2.5.5,4h2v-1l2,.5,1-2h3.5l2.5-4-1-2,.5-1.5,2,1,2-1,1,2,2.5.5,3-1,1-2h2.5l2.5-2,.5-1.5,2.5-2,7,1.5,1-2.5v-3.5l1-.5h1l.5,1,1.5,1.5,1.5,2.5-1,4.5.5,2,2.5,1.5,1,2-2,2.5.5,2-2,4.5v2l2,1.5h-.5l1,5-3,2-3.5-2.5-3,.5-2.5,2.5h-2.5l-4.5,5.5h-5l-4,1.5-3,2,.5,4.5-5,2.5h-7l-5.5,2,1-2-.5-1.5,1-.5-1-1v-2l-2-.5-1-1.5.5-2,2.5-1-.5-1.5-2.5-1,1-2-.5-3-3-1-2,1.5-3.5-2.5"/>
      <path data-code="ovjurskij_kozhuun" data-title="ovjurskij kozhuun" class="cls-1" d="M72.08,221.12l6-1.5,8.5,2,7-4,8-.5.5-2h3l2-3.5v-5.5l-1.5-2,5-1.5h13l1-2,5-2,.5-4,1-1,1,2,2.5-1,2-3,2,.5.5-1.5-1-1,2-2.5,6-1,3.5-3,6,.5,6,9,7-1.5,1,2,1.5.5,1.5,3,6,1v4l3,5.5-.5,1.5,1.5,1.5,1,2-3,1-2-.5,6,6-2.5,1-1-1-4,2.5-3.5-1.5-.5,1.5-3-2.5-2,1-2-4,3-4.5-.5-4.5-9-1-1.5,2v3l-4.5,1.5-2.5-1.5,1-2.5-1-2h-5l-2-3v-2.5l-2.5-1.5-1.5,1,.5,3-1,2.5.5,2.5-2,1.5-7,2.5-9.5-3-3,1-5.5,5.5-.5,3.5h-4.5l-1.5,2-1.5.5-.5,2.5-2,2.5.5,2-4-1.5-6.5,3-3-1h-5l-2.5,1-.5,4.5-3-.5-1.5,2-1-1-2,1.5-2-1.5v-2l1.5-3.5v-2.5l2-2.5-1-2-2.5-1.5"/>
      <path data-code="pij-khemskij_kozhuun" data-title="pij-khemskij kozhuun" class="cls-1" d="M165.08,132.62l1-2.5,2-2.5,2,.5,2.5-1.5,2-2.5,1-3,4-1.5.5-3,3-3.5h2.5l3-3,4.5.5.5-1.5,2.5-1,1-.5-1-2,1-2v-3l3.5-5-.5-3,.5-2h1.5l1-1.5.5-2,2.5-2,2.5-3.5v-1.5l-1-.5,2.5-2.5,3.5-2v-4.5l2-1-.5-2,1.5-2-1-1.5,4-2,2-2.5,2.5.5,1.5-1.5,4,1.5v2l-.5.5.5,1,4-2,4.5-.5,2,2.5.5,3,.5,6,7.5,1v2.5l.5,2.5,3.5,5.5-4,4.5-.5-1-2.5,1-3.5,2.5-2-.5-1,2.5v1.5l-1.5.5.5,1-.5.5v2l-2.5,2.5v-1.5l-1,1-1-1-2,.5,2,.5v2.5l-1,.5-2,5.5h-2v2h-1.5l-3,2,1,3-1,2.5,2,.5.5,1.5-.5,1,3-.5.5,1-.5,3-2,1-1,1.5,1.5,2.5-1,1.5,1.5.5,1.5,3-.5,1h-1.5v2.5l-1,.5-.5,2.5-3.5,1.5-1-.5-2.5-3.5v-1l-2-4.5-2.5-.5-5,.5-3.5-1-3.5,4-2.5-2v-1.5l-1-.5-2.5,2h-1.5l-1.5-4v-.5l-1-1-5,2.5-.5,1.5h-2l-3,1.5-1.5-1v-2l-3-1.5-3.5,3-1-.5-4.5,1.5-3-1.5"/>
      <path data-code="sut-khol_skij_kozhuun" data-title="sut-khol&amp;apos;skij_kozhuun" class="cls-1" d="M51.58,120.12l6-6.5-.5-4,.5-2.5,3.5-.5.5-1,2,.5,2.5-2,3,1.5,2-1,2.5,5,3,2.5,3,.5,1.5,1.5.5,2-.5,2,2.5,3,.5,5,3-2,6.5-1.5,3.5,4,2.5.5,1,1.5.5-1.5,7.5.5,3-1,8,3,2.5-1,1.5,2,1.5-.5,1,1,.5,8-1,1v-2.5l-1.5-.5-1.5.5-2-3-3.5-2.5h-2.5v1.5l-1.5,1.5.5,2-.5,3.5,3,3,1,2.5-2.5,2h-1l-4,2-.5,3.5-3,1.5-1,4-2,1.5.5,6.5-1,1-4.5-1-1.5,1-1,2.5h-1.5l-2-2.5h-2.5l-6,3-1.5-2-1.5-.5-1.5,1-1.5-1.5v-1.5l-4-7-1.5-7-1.5-1.5-2-5.5-3-1.5.5-1.5v-1.5l1.5-3,.5-3-4.5-4h-1.5l-5.5,3.5-1.5-.5-1.5-4-.5-8h-1l-.5-2"/>
      <path data-code="tandinskij_kozhuun" data-title="tandinskij kozhuun" class="cls-1" d="M193.58,158.62l5.5-5,2.5-.5-2.5-.5v-.5l5.5,1,1,1.5-.5,1.5,6-.5,4,2.5,3.5-1-.5-2,.5-2.5,4-1.5,2.5,3.5,1,3.5,2.5,2.5,6.5,2.5,1,6.5,2.5,2,.5,1.5,4.5,1.5-1,4,.5,2-.5.5,3,.5,1.5,2,1-1,2,.5v-2h1l-.5-1h1.5l3.5,2.5,5,4.5,1.5,4,2,1,.5,4.5,2,2.5-.5.5,1.5,6-.5,2-3,1-5-2-1.5,1,.5,2.5-.5,1.5-1,1-1.5-1.5-.5-2-3.5.5-.5-1-3-.5-2-2.5h-4.5l-1-1.5v-2l-2.5-3-1.5.5-1,2.5-.5.5-1-1-.5.5-2.5-.5v-1l-5.5-.5,1.5-1.5-.5-2.5h-1l-.5-2.5-4-.5-.5-1-3.5-2-.5-3-1-2,.5-1-1.5-1-1-3.5-2.5-4.5h-1v-3.5l-2-1,.5-2,2.5-2.5-.5-.5-9-7-6,3-1.5-3"/>
      <path data-code="tere-khol_skij_kozhuun" data-title="tere-khol&amp;apos;skij_kozhuun" class="cls-1" d="M312.58,229.62l1-4.5,1-1v-3l4-6,1-3.5,4-1,1-1.5.5-3,1-3,2-.5,2-2.5.5-5.5-1-2.5,3.5.5.5-1.5,2.5-1.5,4.5,1.5,4.5-2.5,3.5-4.5,4,1,1-1h2l.5-1.5,2,1,2-1.5,2,1.5,3.5-1v3.5l-1.5.5-.5,3.5,1.5,2.5,1,3.5,2.5,1,3.5,3.5-3.5,3.5,1.5,2-.5,2.5,1,1,.5,2.5,1,.5-.5,1.5,3.5,4.5,1.5.5,2,2.5,4,1-.5.5,1,2.5,2,.5-.5,1.5-2,4,1.5,4-.5,1.5,1,.5-2,2.5-2,5-1.5,2.5.5,2-1,1.5h-1.5v2.5l-.5,1.5-1.5,1,.5,2-3.5,1-2,3.5h-2.5l-.5,1.5,1.5,2-1.5,1-1.5-.5-3-5.5-2,3-7,2.5-2-.5-2-4-6.5-1.5-5-5h-3.5l-.5-2.5-4.5-1.5v-1.5l1.5-2.5-1-3-3-3h-2.5l-1.5-2.5.5-1h-1.5l-4.5-2.5-5-6"/>
      <path data-code="tes-khemskij_kozhuun" data-title="tes-khemskij kozhuun" class="cls-1" d="M178.08,200.62l.5-3,3.5-2.5,3,1.5,2.5-2,1.5.5,1,2.5,3.5,1,1.5,2.5,3.5-1,4.5,1.5,3-1,2.5,2,4,1,5-2,1-5-.5-2.5,2-1.5,1,1h3.5l.5,2.5h1l.5,2.5-1.5,1.5,5.5.5v1l2.5.5.5-.5,1,1,.5-.5,1-2.5,1.5-.5,2.5,3v2l1,1.5h4.5l2,2.5,3,.5.5,1,3.5-.5.5,2,1.5,1.5,1-1,.5-1.5-.5-2.5,1.5-1,5,2,3-1,1,2,4,1,.5,1-.5,1.5v1.5l1,.5,1,2.5-2.5,2-1,3h-2v1l-1,1v3.5l-1.5.5h-1.5l-1-2-1-1-2,.5-1.5-2-3.5,1v1l-4,2.5-3.5.5-4.5,7v1l-5,5-4.5,7.5v2l1,1.5h-5.5l-.5-2.5-2-2-3-1-2-22-1.5-.5-.5-3-2.5-1.5-8.5-.5-3,1.5-3.5-1-6.5,1-2.5-1.5-4.5.5-.5-1.5-6.5-2.5-3.5-4,2,.5,3-1-1-2-1.5-1.5.5-1.5-3.5-6.5"/>
      <path data-code="todzhinskij_kozhuun" data-title="todzhinskij kozhuun" class="cls-1" d="M229.08,62.62l.5-.5v-2l1-1-.5-2,.5-1.5,2.5-3-.5-2,1-1.5-1-2.5.5-2.5,1.5-.5-1-3,2.5-1-.5-2h2l.5-1.5-1-1.5-.5-2-2.5-.5-.5-1,1-1.5,4-3.5,7.5-1.5.5,1,1-1.5,1,.5.5,2,1.5.5,1-2,2-.5,4-5,3.5,2v1.5l-1,1,1,1.5,3.5,1.5,1-1v-1.5l2.5.5v-1.5l1.5-1.5,4.5-1.5.5-2,2.5-3,3,2.5,6-.5,3,3h3v-4l4.5-.5.5-3-1-.5.5-3.5h1.5v2l4-.5-1,1.5,3,2,1,2,2.5-2.5,1.5.5,2-1.5h2l1-2-.5-1,1-1.5-.5-1.5.5-2v-2.5l1-1,6-.5,5,5.5,2.5-.5,2,3,1.5.5.5-1,1.5,2,3,1,1-1,.5,2,2,1-.5,1.5,2,1,.5,2.5.5,1.5h3.5l2.5,2-.5,1.5.5.5-.5,1,.5.5,1.5,1,3.5-1.5,2,1,1-1,2,2,4.5-.5.5,1.5-1,2,1.5,2,.5,1.5h2.5l2,1,2.5-1,2,2.5,2-1,1,1-.5,2.5.5,1-1,1,.5,3.5,2.5.5,1.5-1.5,2,1,7-1,1.5-4,8.5,2.5v-2l1-.5,3.5,3.5h2v.5l-2,2.5v2l5,3,3,.5,3,3-2,1,.5,3.5-2.5.5-4.5-2-3.5-2.5h-1.5l-1.5,2.5.5,1.5-1,1-1,2,1,1.5-1,1,4,.5v3l1,2-1,1v3.5h-2.5v2l-3,1.5.5,2.5-.5,1,2,1.5h-1v2l-2.5.5-1.5,4-2.5,1.5v2l1,.5,1,2.5-1,3v3l-6,3.5-3-1-6,2-.5,7-1.5,6-8,2-3.5,7.5-4,1-2.5,2,2,.5,3.5,8v3l-9.5.5-5,5.5-6.5-4-8.5.5-2.5,4h-2l.5-6.5-16-1-2,1-1.5-3.5-4-3h-4.5l-14-10.5-1.5-8-2-3-4-3.5-5-1.5-1-2-7.5-2-1.5-2-1-.5-10,2.5-5.5-1.5,1-1.5-2-4,.5-2-3-2-1.5-3.5.5-1.5,5.5-1.5v-1.5l2.5-2.5-3.5-5.5-.5-2.5v-2l-7.5-1.5-.5-6-.5-3-2-2.5-4.5.5-4,2-.5-1"/>
      <path data-code="ulug-khemskij_kozhuun" data-title="ulug-khemskij kozhuun" class="cls-1" d="M135.08,181.12l4-4,1.5-7,2.5-2v-1l-.5-1,1.5-3,4.5-2.5v-3.5l1-1-.5-1,3-2.5h2l.5-1.5-1.5-3.5h-2.5l-5-3-.5-1,1.5-1.5h2l1-1.5-1-2-4-2.5-5.5-1.5v-.5h5l7,2,2.5-1.5h2l2-2.5,3-.5,3,1.5,1.5-.5,3,1.5,4.5-1.5,1,.5,3.5-3,3,1.5v2l1.5,1,3-1.5h2l.5-1.5,4-1.5,1-1,1,1v.5l1.5,4h1.5l2.5-2,1,.5v3l-1.5.5,1,1.5-3,1,1-1.5h-.5l-3.5,1,1,2h-4l-1-1.5,1.5-1-1.5-2.5-3,2-2-1-1,4,2,5-.5,3.5-1.5.5v1l7,2.5v4.5l2.5,3.5-.5,2.5-1-.5-2.5,1.5v2l-1,2.5v2.5h-.5l-1.5.5-1-2.5-1-1.5h-1.5l-2,2-1.5-1-1.5,1.5-3,.5-4.5,2.5,3.5,11.5h4l2,2-1.5,1.5-5,2-1,1.5-2.5.5-.5-1.5-6,2-8-10h-5l-3.5,3-6.5,1h-1.5l-3-6"/>
    </g>
</svg>