<svg data-code="RU-PRI" xmlns="http://www.w3.org/2000/svg" viewBox="0 0 249.75 535.39">
    <g data-code="primorskij_kraj" data-title="primorskij kraj">
      <path data-code="anuchinskij_rajon" data-title="anuchinskij rajon" class="cls-2" d="M98.13,392.76v-2h1.5l2-4-2-3.5-3-1.5v-1.5l1-2.5,3-1.5-.5-3-1.5-1-3.5,1.5-2-3v-2.5l3.5-10h1l3-7,5.5-2,1.5,1-.5,1.5.5,2h-.5l-.5,2.5-1.5,1,1,2.5,3-.5.5,1,2,1,4-4.5.5.5.5,7-2.5,3v2.5h1.5v2.5l2.5-.5,2,1,1.5,4.5,3-1.5,2,5.5,3,1,1.5,2-.5,4.5-2,2.5,1,1-.5,1.5-5.5,3,.5,2.5-3,1v2l-3,1.5,1.5,1.5v2.5l2,1.5,1,2,.5.5v2l2-1.5,2.5-4h1.5l2,.5v2l2,3h-1l-1,2.5-.5.5-.5-1-2.5,2.5-3,.5v3l-2.5,2-3-1-1.5,1-1-2h-1.5v-1.5l-1-1.5-3-2.5v-2.5l1.5-3,.5-4-1-.5v-1.5l-2.5-.5-1.5-3.5.5-1-1.5-1.5-3.5,1-1.5-4-1.5.5-1-2.5-1.5-.5"/>
      <path data-code="arsen_evskij_okrug" data-title="arsen&amp;apos;evskij_okrug" class="cls-2" d="M114.13,369.76v-2.5l1.5-1,4.5,5-2-1-1,1,1,.5-2.5.5v-2.5h-1.5"/>
      <path data-code="artemovskij_okrug" data-title="artemovskij okrug" class="cls-2" d="M86.63,443.76v-2l1.5-2.5-2-2v-2.5l1-1.5-.5-2.5h1.5l2-4,1,1,1-1.5,1,1,2-.5,2,1.5v1.5l.5.5-.5,1.5,1,.5-.5,3,1.5.5-1.5,3v2l1.5,1-1,2v2.5l-2-.5v-1h-1l-2.5,1.5-1.5-2.5-2.5.5-2-.5"/>
      <path data-code="bol_shoj_kamen_" data-title="bol&amp;apos;shoj_kamen&amp;apos;" class="cls-2" d="M104.63,455.26v1l1.5-1-.5-1.5-1-1,1-1.5-1,.5v-1.5l-1.5-.5,2-1,.5-2.5,1,.5v1.5l2,1-.5.5.5,4h2l1,1.5-2.5,3-3-.5.5-1h-2v-1.5"/>
      <path data-code="chernigovskij_rajon" data-title="chernigovskij rajon" class="cls-2" d="M68.13,371.26l-.5-2.5-.5-.5v-.5l1.5.5,2-1.5-.5-1.5,2.5-.5-.5-3.5,1-3,1-2h2.5l.5,2,4,2,5-1,4.5,2.5.5,1,3.5.5-1.5,5v2.5l2,3,3-1.5,1,.5,1.5,3.5-3,1.5-1,4-2,1.5h-2v1.5l2,1,2.5-.5-.5.5.5,2.5-6.5-1,.5,2.5-2.5.5-1.5,1.5-2.5-.5.5-.5h-.5l-1-2.5-.5-3h-1v2.5l-5.5-1.5v-2.5l-.5-2.5h-2l.5-2-2-1,.5-1-1-1.5h-2l-.5-3-.5.5v-2h-1"/>
      <path data-code="chuguevskij_rajon" data-title="chuguevskij rajon" class="cls-2" d="M126.13,380.26v-2l-1.5-2.5,1.5-1.5-1-1v-2.5l2-5-.5-1.5.5-1.5-.5-1,.5-.5v-6l4.5-3.5-.5-3-1.5-1.5,1-4-.5-1.5-2-.5-2-5,2.5-1-.5-2,1.5-1v-3l1-2.5-1.5-2.5.5-2.5,1.5,2,1-.5-1.5-.5,1-1-1-4h1.5l.5-3-3-4-3.5-2,1-1.5-.5-2h-.5v-8l1.5-1,1.5,1,2.5-4-.5-2,4,2,2-2-.5-1.5,3,.5,2.5-1,6.5,2.5,3-1,2-8,2.5-1,2.5,1,2-5,2.5-1.5,2,.5-2.5,3,.5,6,1.5,3.5-1.5,3,.5,1h4v-3l2.5-2.5,5-1-.5,2-2.5.5-.5,2.5,2.5,2v2.5l-3.5,2v3l2,.5-.5,3-3,2h-2.5l-1.5,3,1,1.5,1.5,4v4l-.5.5,1.5,2-.5,2.5,6,4v2l1,.5-.5,1.5,1,1-.5-.5-3.5,3.5-1.5-2-4.5,2.5-.5,2,.5,5.5-1,1.5,2,7.5,1,.5v1.5l1,.5v1.5l2,2.5-.5,1.5,1,2,4,1.5,2,2,1-.5.5,1-1,3.5h-1l-.5,2.5-1.5,1.5,1,3.5-2,4.5.5,2-1,1,1.5,1v.5l-1.5,2.5-1.5-.5-1,1-.5,3.5h-4l-1,2-2-.5-2-2.5-1.5.5-1.5,2-3-.5-2,1-1.5-.5-1.5.5v1l-1-1-2.5.5-2-1h-2.5l-1.5-1.5h-2l-.5-2.5-1-1-1-2v-1.5l-4,.5-1-1-.5-3.5-3.5-1.5-1-1"/>
      <path data-code="dal_negorskij_okrug" data-title="dal&amp;apos;negorskij_okrug" class="cls-2" d="M163.13,292.76l1.5-3.5-1.5-3.5-.5-3.5.5-4,3.5-2.5h2l1.5,1,.5-2.5,1.5-.5,1.5,2,3,1,1.5-.5.5-2,2-1.5v-1.5l1-.5v-2l3.5-.5,1-2v-2l2.5-1.5.5-2.5-1-3,3-1,1.5,1,1.5-1,5,.5,3.5,2,1.5,2.5-.5,2,1,1,1,4.5-2,8,1.5.5,2.5-2,2,.5v1l1.5,2.5,2,4.5.5,3.5-2,.5-.5,1.5,1,1.5,3,.5,1-2,3,.5,2.5-2.5,1.5,1,.5,2,1.5-1.5-.5,3.5-3,5h-1.5v2l-4,3.5-.5,3.5,1,2,.5,5.5-2,2-.5,3h-1.5l-1.5-2-4.5-2v-2l-1-1.5-3,.5-.5,2-1.5.5-1.5-2.5-1.5-.5-.5-2-2-.5-1-2-2.5.5-1-2-3-2.5-2.5.5-.5-2-1.5-1-2.5-.5-1.5,1.5-1.5-1-3.5,2.5-4-1.5.5-3.5,3-1.5v-2.5l-2.5-2,.5-2.5,2.5-.5.5-2.5-5,1.5-2.5,2.5v3h-3l-1.5-.5"/>
      <path data-code="dal_nerechenskij_okrug" data-title="dal&amp;apos;nerechenskij_okrug" class="cls-2" d="M80.63,249.26l1-1.5-1-2.5,1.5,1.5h1l.5-2,1,1,3-2.5-.5-1.5h.5v3l1,1.5-1,1.5,1,1.5-3.5,1.5-1.5-1.5-2,1.5-1-1.5M82.13,252.26v-1.5l1,.5v1.5l-1-.5M80.13,252.76h.5v.5l-.5-.5M83.13,255.76l.5-1h.5l.5,2-1.5-1M82.13,255.76v-.5h.5v.5h-.5"/>
      <path data-code="dal_nerechenskij_rajon" data-title="dal&amp;apos;nerechenskij_rajon" class="cls-1" d="M80.13,252.76l.5.5v-.5h-.5M82.13,255.76h.5v-.5h-.5v.5M83.13,255.76l1.5,1-.5-2h-.5l-.5,1M82.13,252.26l1,.5v-1.5l-1-.5v1.5M76.13,258.26l1-1.5-1-1.5,1-.5-1-1.5.5-.5h3.5v-2.5l-1.5-1.5,1-1.5h2l-1,2,1,1.5,2-1.5,1.5,1.5,3.5-1.5-1-1.5,1-1.5-1-1.5v-3,1.5l-3,2.5-1-1-.5,2h-1l-1.5-2v-6l-.5-1.5-4-3v-1.5l2-2,1-4.5,1,1-.5.5,2.5,4.5,6.5-1.5,3,3,4.5,1.5-1,1.5,2.5,3-.5,2,1,1,2.5-1,1.5,1h3v-2l2.5-2,4,1.5,1-1,2,.5,1,7.5-3,.5v2l.5,2,1.5.5.5,1,1.5-.5,2,1.5,1-1,1.5,1,4.5-3h1.5l1.5.5.5,2,4.5,1.5,1-.5.5-2,2.5-3.5,3.5-1.5,6,.5,2,3v3.5l-1.5,3,.5.5,1,1.5-1.5,1.5,1,3,3.5,2v1l1,.5,3.5-2,1.5,2,3.5,2.5.5-.5,1,1,2,.5,1.5,4.5-1.5,1.5-2-1-2.5,1.5-2,5-2.5-1-2.5,1-1.5,5.5v1l-2.5,2.5h-3l-1.5-1.5-3.5-1-2,1-3-.5.5,1.5-2,2-2-1.5h-3l-3-2-1,2-2.5,1-1,3h-2l-2.5-3-2.5-.5-3.5,1.5-2.5-1.5.5-2.5-1-4.5,1.5.5-.5-4,1-1-1-4,.5-2.5h1.5v-2.5l-1.5-1.5.5-2-1-3-2,2-2-2-1,.5-.5-1.5-1,.5-.5-1.5-3.5.5-2-2-2.5.5-2-2-1,.5-3-3-2.5,1-3.5-.5v2h-1l-1.5-1h-1l-1.5-1.5-1,1-1-.5"/>
      <path data-code="gorod_fokino__zato_" data-title="gorod_fokino_(zato)" class="cls-2" d="M114.63,471.26h.5-.5M109.13,466.26l-1-3.5,1-.5-.5-3,4-4.5h1l1,1.5-.5,1.5,7,2.5,1.5,1-1.5,2,1,2.5h-1l-.5-1-.5.5.5-.5h-1l-.5-2-4.5-.5.5,1-2-1.5v1l1,1-1.5,2-1.5-.5,2.5,1.5v3l-1-1-.5,1.5-.5-1.5-1,.5v-2l-1.5-1M115.13,467.76l.5-.5-1-2,.5-1,2.5,2.5-.5,1,.5,1,2.5,1-.5,1-2.5-2-1,1-1-2M114.13,476.26l1-2.5,2,2.5-.5,1-1-1.5-.5,1-1-.5"/>
      <path data-code="jakovlevskij_rajon__primorskij_kraj_" data-title="jakovlevskij_rajon_(primorskij_kraj)" class="cls-2" d="M105.13,358.26l.5-2h1l.5-2.5h.5l-.5-2,1.5-1.5-.5-2.5.5-1.5,4-2-3-7,.5-4.5,1-2-.5-4,.5-2.5-.5-2.5-2-.5-1-1.5.5-1-1-2,2.5-.5,4.5,3.5.5,1.5.5-.5.5,3,1.5-.5,3,2.5,3.5.5,4.5-3.5v-1.5l1.5.5-.5,3,1.5,2-1,2.5v3l-1.5,1,.5,2-2.5,1,2,5,2,.5.5,1.5-1,4,1.5,1.5.5,3-4.5,3.5v6l-.5.5.5,1-.5,1.5.5,1.5-2,5v2.5l1,1-1.5,2-3,1-1.5-4.5-3-1.5,1-1,1.5,1-4-5-1,1v-1l2-2-.5-3,.5-2-1-2.5-4,4.5-2-1-.5-1-2.5.5-1.5-1.5"/>
      <path data-code="kavalerovskij_rajon" data-title="kavalerovskij rajon" class="cls-2" d="M167.63,355.26v-1.5l-1-.5-1.5-4.5-.5-3,1-1.5-.5-7,2.5-2.5,2.5-.5,1.5,2,3.5-3.5.5.5-1-1,.5-1.5-1-.5v-2l-6-4,.5-2.5-1.5-2,.5-.5v-4l-1.5-4-1-1.5,1.5-3,3.5-.5,2-1.5.5-2.5,2,.5,3.5-2.5,1.5,1,2.5-1.5,3,1.5.5,2,3-.5,2.5,2.5,1,2,2.5-.5,1,2,2,.5.5,2,1.5.5,1.5,2.5,1.5-.5.5-2,3-.5,1,1.5v2l4.5,2,1.5,2h1.5l-1,3.5,2,2.5v2.5l1.5,4-2-3h-3l-1-1-1,1.5-1-1.5-1.5.5-3-1.5-2.5,2-3-.5.5,1.5,1,.5.5,1.5-2,3.5-1.5-1.5h-1l.5,2-1,2,.5,1.5-3.5,5-9,2-6.5-2-3.5,5.5h-1.5l1,3.5-2,1.5-.5,1.5,1.5,2.5-.5,1-1.5.5-2-2.5v-1.5l-1-.5"/>
      <path data-code="khankajskij_rajon" data-title="khankajskij rajon" class="cls-2" d="M18.13,347.26l5-11.5-1-2.5-1.5-.5-.5-4,2-1.5,3,.5-1.5-2,.5-5.5,1-3h1.5l2.5,3,3.5.5v2.5l1.5,2.5,4.5,3-1.5,2.5,1,3,1,.5,4-1,.5,1.5,2,1.5,1.5,5,1,1.5.5-.5-1,1-1.5,5,2.5,3,.5,1.5,2,1.5,7.5-.5,4,1.5h-4.5l1,1.5h2l-2,.5-.5,2-5,3.5-.5,2.5-3.5,1-.5,1h-2l-2-.5v-1.5l-1.5-.5-1.5,1-.5-1h-2l-1.5-1.5-1-3,1-1-4-5-4,2-2,3-1-3-3.5-.5-.5-4-1.5-2v-1.5h-2.5l-1-1.5"/>
      <path data-code="khasanskij_rajon" data-title="khasanskij rajon" class="cls-2" d="M33.13,512.26l4-8,4-4.5,4-.5.5-3.5,1.5-1,3,.5,2-2,4-1-1.5-3.5,4-1v-4h-1.5l-2-3.5-.5-2.5,1.5-1.5-.5-2,1-2.5-2.5-5.5-.5-1.5,1.5-2-2-6,1-4-2-3.5,2.5-1,3.5,2.5,16-4,1,2.5,1.5,1.5-.5,1,1.5,2.5v2.5l-1.5,1-3-3.5-3.5,2v1.5h1l1,2h3.5l.5,1.5-1.5.5.5.5h1l.5-2.5.5,1-1,8-1,2.5v1l.5.5h1v1l-1.5,1,.5-.5-.5-1,1-.5h-1v1.5l-1-.5h.5-1l-1,1,1-1v2.5l-3,1v1l.5.5.5-1.5,1.5-.5.5-.5,1.5,2-1.5,1-.5,1.5-2.5-1-1,1,1,2,.5.5,1-.5v3l3-2.5h.5l-3.5,5.5.5,2.5h1.5v1.5l-2.5-1.5-2.5,3,1,5h1v1.5l-1,.5,1,1-1,1.5,1,1v.5l2,1-1,.5,1,2-3.5-.5,1-2-1,1-2-.5v-1.5h-1l.5-.5-1.5-1.5-.5,2.5.5.5,1,.5-2-.5v-.5l-1.5,1.5-1-1-.5,1.5-1-1-1,2.5.5,1-.5,1.5-2.5.5h-.5v-1l-.5.5-.5-.5h-2v-1l1-1h.5l4,1,.5-1.5-1-1.5-2,1.5-.5-.5-.5-1-.5,1-2.5,1v1.5l-1-.5,2-2-.5-2h.5l-.5-.5-3,3-2.5-.5-1.5,4,.5,1,4-.5.5,3-1,1-.5-.5h-1l1.5,1v1l-.5-1,.5,1v-1.5l1-1,.5-2,1,.5v-1l.5-2,.5,4,3-.5.5,1.5,2,.5v1l-1-1-1,.5,2,2.5v1.5l-2.5,1.5v2h.5v-1.5h.5l.5,6.5-.5,5-3-1-.5-1v-2.5l-2.5-2.5-2.5-.5-1-2.5-2.5-1.5-.5-3,1.5-.5v-2.5l-1.5-2.5-4-3h-2l-2,2-3.5-1.5M68.63,507.26v.5-.5M58.13,521.76v.5-.5M72.63,493.26v-.5.5"/>
      <path data-code="khorol_skij_rajon" data-title="khorol&amp;apos;skij_rajon" class="cls-2" d="M46.63,383.26v-3.5l1.5-2.5-.5-1.5-1.5.5-.5-2,4-7.5,4-1.5v-2l5-3.5,1-2.5,1.5-.5-.5,1.5.5,2,5,1,2-.5-.5-2,3,1,1.5-1.5-.5-1h2l-1.5,4,.5,3.5-2.5.5.5,1.5-3.5,1.5.5.5.5,2.5h1v2l.5-.5.5,3h2l1,1.5-.5,1,2,1-.5,2,1.5-.5,1,2,.5,5.5-1,2.5-3,2.5-3-.5-3,1-2-6-2-2.5-3.5,2-1-2-3-2-.5,1.5h-1.5l2.5,5.5-3.5,1.5-2.5-5-2-1-.5-2-1-.5"/>
      <path data-code="kirovskij_rajon__primorskij_kraj_" data-title="kirovskij_rajon_(primorskij_kraj)" class="cls-2" d="M77.13,301.76l-.5-3,8-.5,3-1.5v-1h1.5l2,1.5h2l-1-1.5,2-.5,1.5-2.5,2.5.5-.5,1,2,1.5,1.5-1.5v-3.5l2.5-.5,2,.5.5-1,3,1,.5,2,2.5,1,3.5-1.5,2.5.5,2.5,3h2l1-3,2.5-1,1-2,4,2,.5,1.5-3,4.5-1-1.5-1.5,1-.5,4,.5,4h.5l.5,2-1,1.5,3.5,2v1l3,2-.5,4h-1.5l1,4-1,1,1.5.5-1,.5-2.5-2.5-.5,1.5-4.5,3.5-3.5-.5-3-2.5-1.5.5-.5-2.5h-.5l-.5-1.5-4.5-3.5-1,.5-1.5-1.5-6,1.5-1,1.5,1,1h-1.5l.5,1.5-1,2-.5-1.5-3,1.5-3-1-2.5-1.5v-6.5l-1,1.5-3-1v-1h-2v-3l-1.5-.5.5-1.5h-1.5l-1.5-4-3-2.5"/>
      <path data-code="krasnoarmejskij_rajon__primorskij_kraj_" data-title="krasnoarmejskij_rajon_(primorskij_kraj)" class="cls-2" d="M91.13,232.76l1-1,4.5-.5v-1.5l3.5-1.5-.5-1h3l-3.5-3.5.5-2.5,1.5-1,2,2,2-2.5,2.5-1,.5-3,2-2.5-1-2.5,1-1.5,2.5,1,2-3.5,3.5,2.5,1-1.5,1.5,1,1.5-2.5h3l-.5-3,1-2,2,.5.5-1.5,2.5-1,1.5-4,4.5,1,1.5-2,3-1-.5-2,.5-3-.5-2.5,3-5-.5-1,.5-1.5-1.5-2h1.5l1-2,4,2.5,1-.5v-2.5h2.5l-.5-1,4-4,1-3.5,2.5,2.5,1,4,.5.5,2.5-.5,1.5-3.5,2.5,1.5,3.5-1.5,2,.5,1.5-2-1-1.5h1l1-1.5,2.5,1.5,1.5-1,5,.5,3,2.5h6.5l1,1h.5l-.5,3.5.5,1.5,1.5.5,1.5,2-1,3,.5,2.5,2.5,4.5-1,2,.5,1-.5,2,.5,1.5,4.5,4-1.5,3.5-3,3,.5,1,2.5.5,1,2-4,6v1l2,3v1.5l2,2-.5,1.5,3,1,1,1.5-.5,1-1,.5-.5,2-1.5,1,.5,2.5,1,1-1,2-2,1.5-.5,1.5,1.5,2.5-3.5.5.5,4-5-.5-.5,1,1,1.5-2,3,.5,2.5h-1l-2,5.5-3,.5,1,3-.5,2.5-2.5,1.5v2l-1,2-3.5.5v2l-1,.5v1.5l-2,1.5-.5,2-1.5.5-3-1-1.5-2-1.5.5-.5,2.5-1.5-1h-2l-1.5-4.5-2-.5-1-1-.5.5-3.5-2.5-1.5-2-3.5,2-1-.5v-1l-3.5-2-1-3,1.5-1.5-1-1.5-.5-.5,1.5-3v-3.5l-2-3-6-.5-3.5,1.5-2.5,3.5-.5,2-1,.5-4.5-1.5-.5-2-1.5-.5h-1.5l-4.5,3-1.5-1-2,1-1-1.5-1.5.5-.5-1-1.5-.5-.5-2v-2l3-.5-1-7.5-2-.5-1,1-4-1.5-2.5,2v2h-3l-1.5-1-2.5,1-1-1,.5-2-2.5-3,1-1.5-4-1-1-1.5"/>
      <path data-code="lazovskij_rajon" data-title="lazovskij rajon" class="cls-2" d="M149.13,454.26v-2l1-.5.5-3,2-1.5v-2l-2.5-4.5,6-6v-1l-1-1.5v-2l4-5v-5l1.5-4.5-1-1.5v-1.5l-3-1.5-.5-2-4-1-3,1-.5-3-3-5.5-2,.5-.5-2.5,1-2-1-1.5,7,1.5v-1l1.5-.5,1.5.5,2-1,3,.5,1.5-2,1.5-.5,2,2.5,1,.5,2.5-2h3.5l2.5,1,2,2.5.5-1.5h1.5l4,1.5,1,1.5,3.5.5,1,3.5,2,1.5h1.5l1,.5,1.5-.5,2,2,1-.5-4.5,9-1.5.5.5,1.5-1.5-.5-3,4,.5,2.5-1,2.5.5,1.5-3.5,4-1.5,8-1.5.5-.5-1.5,1-.5h-2.5l-3.5,6,.5,3-3.5-2h-1.5l-.5,1.5-1-.5-.5.5,1,1-1,1-1-.5v1.5h-2.5l1,1-1,2-1.5.5-.5,2-2,2h-3l-.5-1-2-1-1,1-3.5-1M175.13,440.26h.5-.5M175.13,441.26v-.5h.5l-.5.5M167.13,445.76h.5-.5"/>
      <path data-code="lesozavodskij_okrug" data-title="lesozavodskij okrug" class="cls-2" d="M76.63,298.76l-1-6.5-1.5-2.5.5-6,5-8.5h2l-1.5-2.5h.5v-1.5h2l-2-1,1-1.5-1-2-1.5-.5-1,1,.5-3,1-1-1.5-.5-.5-1.5,1.5-.5-1.5-.5-1.5-2,1,.5,1-1,1.5,1.5h1l1.5,1h1v-2l3.5.5,2.5-1,3,3,1-.5,2,2,2.5-.5,2,2,3.5-.5.5,1.5,1-.5.5,1.5,1-.5,2,2,2.5-2,.5,4-.5,1,1.5,1.5v2.5h-1.5l-.5,2.5,1,4-1,1,.5,4-1.5-.5,1,4.5-.5,1.5-3.5-1.5-.5,1h-4l-1,3.5-1,1.5-2-1.5.5-1-2.5-.5-1.5,2.5-2,.5,1,1.5h-1l-4.5-1.5v1l-3,1.5-8,.5"/>
      <path data-code="mikhajlovskij_rajon__primorskij_kraj_" data-title="mikhajlovskij_rajon_(primorskij_kraj)" class="cls-2" d="M53.13,393.43l-.5-1.5,3.5-1.5-2.5-5.5h1.5l.5-1.5,3,2,1,2,3.5-2,2,2.5,2,6,3-1,3.5.5,3.5-4-.5-3,5.5,1.5v-2.5h1l.5,3,1,2.5h.5l-.5.5,2.5.5,1.5-1.5,2.5-.5-.5-2.5,6.5,1-.5-2.5v-1l-2,1-2-1.5v-1h2l2.5-1.5,2.5,1.5,2,4-2,3.5h-1.5v2l1.5.5,1,2.5,1.5-.5,1.5,4,3-1,2,1.5-.5.5,1,2.5.5,1.5,2.5.5v1.5l1,.5-.5,4-1.5,3.5-3.5-.5-3.5-4h-2l-1-1-1.5-.5-4.5,3-1-2.5-5.5-1-1.5-4.5v2.5l-.5.5-1.5-1.5-7,1.5-1.5-1-1.5,1.5.5,1-1.5,1,.5,1.5-5.5.5.5-2-1.5-.5-.5-1-3-.5-1-2-2.5,1-2-1v-1.5l-3.5-7-1,.5-1.5-3.5"/>
      <path data-code="nadezhdinskij_rajon" data-title="nadezhdinskij rajon" class="cls-2" d="M54.12,448.12l4-6.5,2.5-1,2-4,2-8.5,4.5-1.5v-1l5.5-1.5,2,1,.5,1.5,1.5.5h5.5l2.5,1,.5,5-1,1.5v2.5l1.5,2.5-1,2.5v2l-1,1,.5,2,1,.5-1.5,2.5.5-2-1.5-1.5-4,1-2,3-1-2-1.5,1.5-2-3.5-16,4.5-4-3"/>
      <path data-code="nakhodkinskij_okrug" data-title="nakhodkinskij okrug" class="cls-2" d="M131.62,462.12v-1l2,1,1.5-1-.5-2,1-2.5,2.5-.5,2.5,1.5.5,1-3.5,2-.5,3.5,1-2.5,1,1.5-.5,1,.5,1h-1l.5,2.5-3-1-1.5-3-2-.5-.5-1M139.62,465.12l.5-.5-.5.5M121.12,464.62v-1l1.5-2-1-.5-.5-1.5,2.5-1.5-1.5-2.5.5-.5,1.5,3h1.5l-1.5-1.5,1-.5,3,1.5-.5,2,1,.5h-1l1,1-1.5.5v.5h1v1l-3,.5-1,1,.5,1-1.5.5-.5-1.5-1,1-.5-1M145.12,466.12l1.5-1h-1.5l1-2,1.5.5.5-1-2.5-.5-1.5-1.5v-1h-1.5l-1-1.5,5,.5,2,2,2-.5v2.5l-2,2.5-2,1.5-1.5-.5M150.12,464.12l2-4,1.5.5-.5.5.5,1.5-1,.5-.5,2-2-1"/>
      <path data-code="oktjabr_skij_rajon__primorskij_kraj_" data-title="oktjabr&amp;apos;skij_rajon_(primorskij_kraj)" class="cls-2" d="M28.12,399.12h5l2.5-1.5,5-6.5,5,4,1.5-1,.5-2-.5-3.5,1.5-1v-1.5h1l5,11,1-.5,3.5,7v1l-3,2,4,7-1.5,2-4.5.5v2l-3-2-1.5,1.5-2-1-2,2-3-1-1.5.5-.5-1-2,1-1-2.5-2,1-1-3.5,1.5-2-8-12"/>
      <path data-code="ol_ginskij_rajon" data-title="ol&amp;apos;ginskij_rajon" class="cls-2" d="M170.12,393.62l.5-3.5,1-.5,1.5.5,1.5-3-1.5-1,1-1-.5-2.5,2-4-1-3.5,1.5-1.5.5-2.5h1l.5-3.5v-1h-1l-2-1.5-4-2-1-1.5v-1.5l2-.5.5-1.5-1.5-2,.5-1.5,1.5-1.5v-2.5h-1l.5-1.5,1.5.5,3.5-5.5,6,2,9.5-2.5,3.5-4.5-1-2,1.5-2-.5-1.5h1l1.5,1.5,2-4-.5-1-1.5-1v-1l3,.5,2.5-2,3,1.5,1.5-.5.5,1,1.5-1,1,1,2.5-.5,1.5,1,1,2.5-3.5,4,1.5,2-.5,1.5,1.5,1.5-1.5-1-2,1,1,.5.5,2,1-.5-.5,2.5,1.5-.5v-2l1-.5.5,4-1,.5.5,2-.5,2.5.5,1.5-1,1-1,3.5-2,3.5-2-1.5,1-2-2,2-2-1,2,1.5-1,1,2,.5v2.5l1,1-1,3,.5,1,.5,3.5.5,2.5-1.5.5-3,5h-1v2l-3.5,6-1,3.5.5,2.5-3,2-1.5,5.5-2,.5-1.5,4h-1l-1.5-1.5-2.5.5-3-1-2-5-3.5-.5-1-1-4-1.5h-1.5l-.5,1.5-2-2.5-2.5-1.5"/>
      <path data-code="partizanskij_okrug" data-title="partizanskij okrug" class="cls-2" d="M125.62,444.62l-1-2.5.5-2.5h-1.5l1-1-2-3,1.5-3.5-1.5-1,3-4-4-3,2.5-2,.5-3,2.5-1,3-2v.5h1l1-2.5h1l-.5-1.5,2.5,1,1.5,3,2,1.5,1.5,2.5v2l1.5,1.5-.5,5,1,3,1,.5-1,.5,1,2-1.5,3.5h-.5l.5,4h-2.5l-.5,2-2,.5-6.5-4-1.5.5-1,2-2,1"/>
      <path data-code="partizanskij_rajon__primorskij_kraj_" data-title="partizanskij_rajon_(primorskij_kraj)" class="cls-2" d="M115.62,456.96l3-2,1.5-5,5-3,.5-2.5,2-1,1-2h2l3,2.5,3,1,2-.5.5-2h2.5l-.5-4h.5l1-2.5.5-1-1-2,1-.5-1.5-1v-7.5l-1.5-1.5v-2l-1.5-2.5-2-1.5-1.5-3-3.5-2-1-1,.5-1.5v-.5h-3.5l-2.5,4-2.5,1,.5-2h-1l-.5-2.5-2-1v-3l-1.5-1.5,3-1v-2.5l2.5-.5v-2.5l5.5-3v-1.5l-.5-1.5,2-2v-3l2,1.5,3.5-.5v1.5l1,2,1,1,.5,2.5h2l1.5,1.5h1l.5,1.5-.5,2v2.5l2-.5,3.5,5.5.5,2.5,3-.5,4,1v2l3.5,1.5v1.5l1,1-2,5,.5,5-4,5v2l1,1.5v.5l-6,6,2.5,5v1.5l-2,2-.5,3h-1v2.5l6.5.5.5,3-2.5,1v1.5l-1.5-.5-2,4,1,1-2,1-1,2-1.5-1.5,3.5-3.5.5-3-2,.5-2-2-5-.5,1,1.5h1.5l-.5.5,1,1v.5l-3-1.5v-2.5l-.5,1v-1l-1.5-1-2-.5-2,.5-1,2.5.5,2-2,1-2-1-1-3-2,1v-1.5l-2.5-1.5-1.5.5,1.5,1.5h-1.5l-1.5-3-.5.5,1.5,2.5-2.5,2-2.5-.5-3-2.5"/>
      <path data-code="pogranichnyj_rajon" data-title="pogranichnyj rajon" class="cls-2" d="M.62,365.62v-2l4-3-1-2.5,2-2.5,3,1,2.5-1.5,1.5-5.5,8-.5h1v1.5l1,1,1,5,3.5.5,1,3,2-3,3.5-2,4.5,4.5-1,2.5,2.5,3,.5-.5,2,2,1.5-1.5,1.5,1v1.5l4.5.5-2.5,2.5-1.5,4,.5,2,1-.5,1,1.5-1.5,2v4l1,.5,1,3.5-1.5,1,.5,5.5-2,1-5-4-3,4.5-4,3-3,.5h-2.5l-19.5-29-2.5-2.5-1.5,1-1-1.5H1.62l-1-1.5"/>
      <path data-code="pozharskij_rajon" data-title="pozharskij rajon" class="cls-2" d="M79.62,228.12l1.5-1v-2l-1-1,1.5-2-1.5-2v-2.5l-1,1-1.5-.5-.5-1.5,2.5-2-.5-1.5-3.5-2-1.5.5-1-1.5v-4l-1-5,2-5.5,1.5,1,1-2.5,6-2,1-2.5,5.5-2.5,1-2-1-.5,1-1.5-1-1.5.5-2-2.5-3-3-1.5.5-4.5-2.5-2.5,1-2,1,1,3-1v-2.5l-1.5-3v-1.5l2-1.5-1-1.5v-2.5l3.5-3,1,1,1.5-4,4.5,1,2.5-1,.5-1.5-1-2,1.5-4,7,1v-1.5l1.5,1,1.5-1,1,2.5,2.5.5,2,2h3l-.5,3,1.5,2-1.5,1.5,1.5,3,2.5-2v-1.5l1.5-.5,3-4,2,1.5,4.5-3.5h1l.5,1-1.5,2.5h4l4,3.5,7-1,1-4-.5-1.5,1-1,5,3h4l.5-1,4.5-.5.5-2-1-1.5,2-2.5,3,1,2-1.5,1,1,2-1.5-.5-3,3-3-1-1.5,1.5-.5.5-2-.5-3.5,2.5-1-.5-3,1.5-1,.5-2.5-1-1-2.5-1-1-4.5-1-2,.5-3-1-6,1-2,3.5-.5,2,1,1.5-1-.5-1,.5-1h1.5l1,1.5,3,.5.5,1,2.5-.5.5-1,2-.5v-2l1.5-3,6,2,1.5,2.5.5.5v1h1.5l.5,2.5,5,1-1,2.5,1.5,1,1,2.5h2l2,2,.5,1.5,3,2,4,7,3,1.5-1,1.5v4l4,1.5.5,1.5-2.5,2-1.5-.5-1.5,2.5.5,4-1.5,1v3l-2,3.5,1.5,5v2.5l-2.5,2.5.5,1.5h-1l-.5,2-4,2,3,5-7,2-.5,2.5,1.5,2.5-.5.5-1.5.5-2.5-1h-5l-1-.5-3,1.5-1,2-3-2v-2l1-2-2-2-6.5.5-3-2.5-5-1-1.5,1-2.5-1-1,1.5-1-.5,1,2-1.5,2-2-.5-3.5,1.5-2.5-1.5-2,3-2.5.5-1-4.5-2.5-2-1.5,3.5-3.5,3.5.5,1-2.5.5v2.5l-1,.5-4.5-2.5-.5,2h-2l2,2-.5,1.5.5,1-3.5,5,1,2-.5,3.5.5,2-3,.5-1.5,2.5-4.5-1.5-2,4-2,1.5-.5,1.5-2-.5-1,2,.5,2.5-3,.5-1.5,2.5-1.5-1-1,1.5-4-2.5-1.5,3-2.5-.5-1,1,1,2.5-2,2.5-.5,3.5-2.5.5-2,3-2-2-1.5.5-1,3,4,3.5h-3l.5,1-4,1.5.5,1.5-4.5.5-1,1-2.5-2-6.5,1-2.5-4"/>
      <path data-code="shkotovskij_rajon" data-title="shkotovskij rajon" class="cls-2" d="M92.12,426.62l.5-2.5,1-.5,1-3,2.5-3-1-2.5-2.5-.5-1-3.5h2.5l5-2.5,2,1.5h2l3.5,4,3.5.5v2.5l3,1.5,1,2-.5,1.5h1.5l1.5,1.5,1.5-.5,4,1.5,2.5,2.5-3,4,1.5,1-1.5,3.5,2,3-1,1.5h1.5v7l-5,3-1.5,5-3,2,3,2.5-4.5-1.5v-1.5l-.5-2h-1l-4,5,.5,3h-1l-.5-1.5h-.5l.5-2-1.5-1,3,.5,2.5-3.5-1-1h-2l-.5-4,.5-.5-2-1v-1.5l-2.5-2-2,1.5v-1l-1,.5.5-4.5-1.5-1.5-2,.5-.5-1.5,1.5-3-1.5-.5.5-3-1-.5.5-2h-1l.5-2-2-1-2,.5-1-1"/>
      <path data-code="spassk-dal_nij" data-title="spassk-dal&amp;apos;nij" class="cls-2" d="M82.12,351.12l1.5-2-.5-3.5,3.5,2.5-.5,3-1.5-.5-1,1.5-1.5-1"/>
      <path data-code="spasskij_rajon__primorskij_kraj_" data-title="spasskij_rajon_(primorskij_kraj)" class="cls-2" d="M81.62,308.12l-1.5,7-1.5,2.5v1l-1,1-5-1-1,12-1.5,4.5.5,3,3,6-2,6.5-4.5,6.5h2l2.5-2.5.5,1,1.5,1h-2.5l.5.5,2,.5.5-1.5,2.5.5.5,1.5,4,2.5,5-1.5,4.5,2.5.5,1.5,3.5.5,6-12,5.5-2.5,2.5,1.5-1-2.5,1-1.5,4-2-3-7,.5-4.5,1-2.5-1-3.5,1-2.5-.5-2.5-2-.5-1-2,.5-.5-1-2.5h1l-2.5-1-4.5,1-1,1.5,1,1h-1.5l.5,1.5-.5,2-.5.5-.5-2-3,2-5.5-3v-6l-1,1.5-3-1v-1l-2-.5v-2.5l-1.5-.5.5-1-1.5-1ZM83.12,345.62l3.5,2.5-.5,3-1.5-.5-1,1.5-1.5-1,1.5-2-.5-3.5ZM69.12,358.12l-.5,1.5,1-.5-.5-.5.5-.5h-.5Z"/>
      <path data-code="ternejskij_rajon" data-title="ternejskij rajon" class="cls-2" d="M190.62,256.62l2-5,1.5-.5-1-2,2.5-3-1-1.5.5-1,5,.5-.5-4,3.5-1-1.5-2.5.5-1,2-1.5,1-2.5-1-.5-.5-2.5,1.5-1,.5-2.5,1-1-1-1.5-2.5-1v-2l-1.5-1.5-.5-1.5-1.5-4,4-6-1-2-2.5-.5-.5-1.5,2.5-2.5,2-4-4.5-3.5-1-2,1-1.5-.5-1.5,1-1.5-3-4.5v-2.5l1-3-.5-1,1-2,3-1.5,10,1,.5-.5-1.5-2.5.5-2.5,7-2-3-5,4-2,.5-2h1l-.5-1.5,2.5-2.5v-2.5l-1.5-5,2-3.5v-3l1.5-1-.5-4,1.5-2.5,1.5.5,2.5-2.5-.5-1-4-1.5v-4l1-1.5-3-1.5-4-7-3-2-.5-1.5-2-2h-2l-1-2.5-1.5-1,1-2.5-5-1-.5-2.5h-1.5v-1l-.5-.5-1.5-2.5-6-2v-4l3.5-5,2,1,3-5.5h.5l1-3-2-1.5.5-1.5h1.5l1-1.5v-4l1.5-1-.5-1.5-1.5-.5,1-1.5-2-1-.5-.5-.5,1-3-.5,1-4.5v-2l-2.5,1.5-1.5-2h-4l-3,3.5v2l-4.5-2.5-6-.5-1,2-1.5-.5-3,2.5-1.5-.5v-2.5l2-4.5,2.5-1.5v-1l-1-1.5-3-.5-2-1-4,1-1-2-5-1-1-2-1-.5,1.5-1.5-.5-2.5,1-.5.5-4,3.5-2.5v-2.5l.5-.5h1.5l1-2,3,2,2-3,3,.5,1.5-1v-1l1.5-1v-3l1-1-.5-2.5h2l.5-3,3-2v-1l-2-2v-3l2.5-4,3,.5,1-1.5,3.5,1,.5-.5.5,1.5,1.5.5.5,4,5.5,2.5.5,3,4,.5,1-.5,1-3,2,.5,2,3.5-.5,2.5h-2.5v1l.5,2-.5,3,1,1,1.5,1,1-.5,4,1.5,1.5,1.5,2.5.5v1.5l4-.5,1,4-1.5,2,1.5,1.5-6.5,7.5.5,1.5-1,2,2,1,1.5-.5,3.5,1.5-.5,3.5,1,1.5,1,1-1.5,3.5,3-1.5v1.5l1.5.5,3.5-2.5,1,1,3.5-4.5h4l4.5,2,1-1-.5,3.5,1.5,2.5-2.5,1-2,3.5-1,12.5-2,8,.5,8,2,5.5-1,4,1,9,2,4,1.5,1.5,1,4-2.5,5-1,3.5,2,12,2,3-4,25,.5,5.5-.5,2,1,2.5-3.5,12.5-3.5,6.5.5,7-1,4-1,1.5v7l-2.5,2.5-2,8-3.5,7,2,7.5-2,5-1.5,1.5-1,7,.5.5h-1l2,1-1.5,2.5.5,4-1,1.5,2,3.5-4.5-.5-.5,1,1,3-1.5.5,2.5,1-2.5,5v3.5l2,2.5-1,1,1,3-1.5,1-.5-1.5-1.5-1.5-2.5,3-3-.5-1,2-3-1-1.5-1.5,1-1.5h2l-.5-4-2-4.5-1.5-2v-1.5l-2-.5-2.5,2.5-1.5-.5,2-8.5-1-4-1-1,.5-2-1.5-2.5-3.5-2.5h-5l-1.5,1-2-1"/>
      <path data-code="ussurijskij_okrug" data-title="ussurijskij okrug" class="cls-2" d="M44.62,444.62l-.5-2,1.5-.5-.5-1.5h-1l-1-3.5-1-1.5-1.5-4.5-1.5-1-1-3.5-.5-7-2-3,2-1,1,2.5,2-1,.5,1,1.5-.5,3,1,2-2,2,1,1.5-1,1,1,2,.5v-2l4.5-.5,1.5-2-4-7,3-2,2,1.5,2.5-1.5,1,2,3,1,.5,1,1.5.5-1,2h1.5l3-1,1,.5v-1.5l1.5-1-.5-1,1.5-2,1.5,1.5,7-1.5,1.5,1,.5-.5-.5-2,2,4.5,5.5,1,.5,1.5-2,.5.5,1.5,1,2.5h2l1,2.5-2.5,3-1,3-1,.5-.5,3-3,.5.5,1-1.5,2.5h-1.5v-2.5l-1.5-1.5-6,.5-2-1-.5-1.5-2-1-3,1.5-1-1-1.5,1v1l-4.5,1.5-2,8.5-2,4-2.5,1-4,7-2,.5-3-2h-3l-1.5-2.5"/>
      <path data-code="vladivostokskij_okrug" data-title="vladivostokskij okrug" class="cls-2" d="M83.62,471.62v-1.5h2.5l-2-.5v-1.5h1l-1-1v-1.5l1,1,2-.5,3,3-.5-1.5-2-1v-1l-1.5-.5,2-1,.5,2,1-.5.5,1.5,1-1,.5,4.5h-1.5v1l-.5-1-1.5,1.5-1-1v.5l-.5.5v-.5l-1-.5-2,.5M82.12,473.12l1-.5-.5-1h.5l2,1.5-.5,2.5-2.5-2.5M85.62,474.12v-.5h.5v.5h-.5M88.62,473.62l-.5-1.5,1,.5v.5l-.5.5M86.62,474.62v-.5l.5.5h-.5M69.62,458.12v-2l3.5-2,3,3.5-.5,1,3-1,1,1-1,2-3-2-.5,1.5h-2l-3.5-2M85.12,464.12v-1h.5v-3l.5-1.5-1-1.5v-2.5l3-4-1-1.5,1.5-2.5-.5-2,3-.5,1.5,2.5,2.5-2,1,.5v1l1.5.5-4,5-1,6.5-2,3,.5,2-.5-1-1.5,1h-.5l1-.5-1-.5-2,.5v-1.5l2-.5h-1.5l-1,.5-1,3M85.12,465.62v-1l1,.5-.5.5h-.5M84.12,476.62l1.5-.5.5,1-1.5.5-.5-1M89.12,477.12h.5-.5"/>
    </g>
</svg>