<svg data-code="RU-ULY" xmlns="http://www.w3.org/2000/svg" viewBox="0 0 176.25 159.25">
    <g data-code="ul_janovskaja_oblast_" data-title="ul&amp;apos;janovskaja_oblast&amp;apos;">
      <path data-code="baryshskij_rajon" data-title="baryshskij rajon" class="cls-1" d="M29.13,79.26h2l.5-3.5,6,.5.5-2,4.5-1,2-2,1,.5,1.5-1,2.5-4-1-.5,2-1,1.5,1,2.5-.5,2.5,2.86-1,2,2.5-1.5,2,1.14-1.5,1.5v1.5l1.5,1,2.5-1.5-1,4,2,.86,2.5,1.64,1,3.5-1,1.5,2.5,3-.5,2.5-2.5-1.5-1,.5v-3l-5,3-2.5-1.5-2,1.5-2.5-.5-.5,4-2.5-1-1,.5.5,1.5-1.5,1,3,1-1,2-1,.5-2-.5-.5,1.5-2,1,1,2-2-.14-2,.5-1.5-1.5-.5.5v1.5h-.5l-.5-1.5-.5-3.5-1,2.64-.5-2.5-1,.86-2-.5-.5-1.5-3.5-.86,1-1.5-3.5-3-1-2,1-1.5-1.2-1.76,1.2-1.74,2,.5,1-1.5-1-4"/>
      <path data-code="bazarnosyzganskij_rajon" data-title="bazarnosyzganskij rajon" class="cls-1" d="M23.63,70.76h1v2.5l6.5-1.5.5-1-1-2,1,1,1-.5-1-3.5,1-1v-1.5l1.5,1,2-.5.5-2,1.5-1,.5.5-1,2,1.5.5,2.5-3,2-4.5,2,1,.5,2-1,2.86.5,1.14v1.5l4,2-2.5,4-1.5,1-1-.5-2,2-4.5,1-.5,2-6-.5-.5,3.5h-2l1,4-1,1.5-2.5-.5h.5l-1,1.5h-1v-1l1-.5.5-2-3,.5-1-1.5.5-1.5-2,1v-1.5l-.5-3,1-.5.5-1-.5-.5,2-3.5"/>
      <path data-code="cherdaklinskij_rajon" data-title="cherdaklinskij rajon" class="cls-1" d="M112.13,69.26l4.5-1,2-1.5,3.5,1,3.5-1-1-5.5-1.5,1-4-3-1,.5,7.5-13.5,6.5,3.5-.5,12.36,2.5.5-2,2,2,3.5h1l-.5-.5.5-.5,2-.5-.5,1.5h-1l1.5,1,.5-1,3,1-.5,5,3.5,4,4-3.5,1.5,2,3.5-1.86,1,1.5-.5,2h1l-.5,1-1-.5-2,2.5-2.5-1-1,1-2,1-.5-1h1l.5-.5-1-.5-.5,1-1-2,1,.5,1-1h-3.5l.5,1.5h-1.5v1.5l-2,.5-2.5-3.5-1.5,1.5,1.5,3.5-3.5-1-3.5,4.5,2,1-1.5,3-2,1.5v1.5l-1,.5,1.5,3-8,6-3-1.14-4.5-21.86h1l-2-11.5"/>
      <path data-code="cil_ninskij_rajon" data-title="cil&amp;apos;ninskij_rajon" class="cls-1" d="M87.63,40.76l3.5,1,.5-1-.5-.5-1,.5v-1l2-.5,1.5-1.5v-2l3.5-2v-2.5l4.5-1-.5-1.5,2-.5,1-1-.5-.5,1.5-1,3,2.5-1,2.5-2-.5v3l3,2.5,1.5-2h-1l1-2h1l.5-1h1v1h2.5v2h1.5l.5-1.5h-.5.5l1-1.5,1,.5-1,1.5,1,2h2.5l.5,2h1.5l-2.5.5-4,3.5.5,2-.5,2.5h-.5l1.5,1.5-1.5.5v.5-.5l-1,1-5-3-1,1.5,1.5.5-.5,2-3.5-.5v1.5l-4.5-2.5-2,1.5.5,1-1.5,2-2,.5-3-2.5-2,.5-1.5-2.5v-1l.5-.5-4-3v-1l1-1-.5-1"/>
      <path data-code="dimitrovgrad" class="cls-1" d="M142.13,92.76l2.5-2.5h2l.5-1h1.5l1-3h1.5l.5.5-1,2,1,1-1,1.5,1.5,2-1.5,2h-1l-.5-2-3,.5h-3.5l-.5-1"/>
      <path data-code="gorod_ul_janovsk" data-title="gorod_ul&amp;apos;janovsk" class="cls-1" d="M101.12,58.62h1l.5-1,1,1.5h2.5l1-1.5,1,.5-1-2.5,1,1.5v-2h3l2,1.5-.5,1.5.5.5,1.5-1v.5l.5-.5,3,2.14,1-.5,4,3,1.5-1,1,5.5-3.5,1-3.5-1-2,1.5-4.5,1-7.5,1.36-.5,2-2-1,1-1.5-.5-.5-1.5,1.5-2-2h1.5l.5-.5,1-.5-1-1,1-2.5-1-.5,1-.5-2.5-2,.5-1,2-.5-1-1.5"/>
      <path data-code="inzenskij_rajon" data-title="inzenskij rajon" class="cls-1" d="M15.63,34.76l1-.5,2,1,1.5-.5,1.5-1.5v-1l3.5-1,1.5-1.5v-1.5h.5v1h1.5-.5v.5h-1l1.5,1h-1,1.5l1.5-2h1l.5,1.5,1-.5.5,2,2.5-1,1.5,1.5,3-.5h.5l-1,.5.5.5h3l.5-1.5,3-1.5v1.5l3.5,1.5-2,.5-1.5-.5-1.5,1.5v1l-1,.5v2.5l-.5-1-2,.5,2,4.5-1,5.5-1,.5,3.43,2.29-.93,3.21h1l-.5,1,1.5,1.5-1,1-2-1-2,4.5-2.5,3-1.5-.5,1-2-.5-.5-1.5,1-.5,2-2,.5-1.5-1v1.5l-1,1,1,3.5-1,.5-1-1,1,2-.5,1-6.5,1.5v-2.5l.5-.5.5-2.5h-1l-1-2.5v-3l1-2.5v-1.5l-2,1v-1.5l2-1.5-1.5-1,1-.5-3.5-2,1.5-.5,1.5-2,1.5-1.5,1,1-1-1.5,1-1.5-1-.5.5-1.5-1-.5-.5,1,.5-1h-1l1-1v-2h-.5v-1l-2.5-2h.5l-.5-1,1.5-1-.5-1-2,1.5-.5,1v-1l.5-.5-1-1-.5,2-1-1.5-2,1-.5-2"/>
      <path data-code="karsunskij_rajon" data-title="karsunskij rajon" class="cls-1" d="M42.13,37.76l2-.5.5,1v-2.5l1-.5v-1l1.5-1.5,1.5.5,2-.5v-1.5l4.5,2v-1l2.5-.5-.5-.5,2.5-1.5v-1l2,1.36.5-1,.5,2,1-1-.5-2,2,1,2-1,1.5,2.5,3.5.5-.5,2.5,5,.5-.5,3.5,6.5.14-2,2.5,2-1h1l-1,.5.5.5-3,1.5,1.5,1.5,1.5-.5-1,1,.5.5h-5l3,1.5-1,2.5,1,1,1.5-1-.5,1.5h-1l.5,1.5-1,2.5-2-1-.5-2-2.5.36-2.5-.5-1.5,2-1.5-4-1.5,1.5-2-1-4,1.5-5-.5,1.5-3-3-2.5,1-3-1,.5-.5,2.5-1,1v.5l-1.5.5.5,1.5-1.5-.5-.5,1-2,1,1,.5-1.5,1.14-.5,1-6-4,1-.5,1-5.5-2-4.5"/>
      <path data-code="kuzovatovskij_rajon" data-title="kuzovatovskij rajon" class="cls-1" d="M45.63,101.76l-1-2,2-1,.5-1.5,2,.5,1-.5,1-2-3-1,1.5-1-.5-1.5,1-.5,2.5,1,.5-4,2.5.5,2-1.5,2.5,1.5,5-3v3l1-.5,2.5,1.5.5-2.5-2.5-3,1-1.5,2,.5.5-2,2.5.5-.5,1,2,.5,1.5-2h.5l-.5-.5,1.5-2.5h2l.5-1.5,1.5,1.5h3l2.5-1.5-.5-2,2-.5.5,1,3,.5.5.86-2.5,1,1,2.5h-1.5l-.5,1.5,1,.5-1.5,1-.5-1.5-3.5,2-1-1.5-3,3.5,1,2.5-1.5-.5v1.5l-2,1-1.5,1.5-.5,6.5,1.5-.5,1,1-3.5,5.5v1l-4.5,3v2.64l-1.5,2-3.5,1,.5,1.5h-1l-.5-1.14h-5l-1.5-2.5-7-2.5-2.5-2,2-2-3-1.5-1,1-1-1-.5,1,.5-1.5-1.5.5v-2l2,.14Z"/>
      <path data-code="majnskij_rajon" data-title="majnskij rajon" class="cls-1" d="M72.62,54.62l2.5-3.5,2.5-.36.5,2,2,1,1-2.5-.5-1.5h1l.5-1.5-1.5,1-1-1,1-2.5-3-1.5h5l-.5-.5,1-1-1.5.5-1.5-1.5,1.5-1,1.5-.5-.5-.5,1-.5h-1l-2,1,2-2.5-.5-1.5,1.5-.64v-1.5l.5,1.5,2.5-1.26,1-2.1,3-1,1.5,4,1.5.5v2l-1.5,1.5-2,.5v1l1-.5.5.5-.5,1-3.5-1,.5,1-1,1v1l4,3-.5.5v1l1.5,2.5,2-.5,4,3.36-1,.5-.5,2.5h.5l-2.5,3.5.5,1-1,1,1.5,2-1.5,1-1.5-1-2,3.5.5.5-1.5,1.5,2.5,5-.5,1.14-3-.5-.5-1-2,.5.5,2-2.5,1.5h-3l-1.5-1.5-.5,1.5h-2l-1.5,2.5.5.5h-.5l-1.5,2-2-.5.5-1-2.5-.5-.5,2-2-.5-1-3.5-.5.5-2-2.14,2-1,1-5-.5-.5,1-1v-.5h.5v-1.5l.5-1h1.5v-1l-1.5-.5,1.5-2,.5-3h-1v1h-1l1.5-3h1l-.5-3-2-1.5h1.5l-1-1,3.5,1.5Z"/>
      <path data-code="melekesskij_rajon" data-title="melekesskij rajon" class="cls-1" d="M159.13,69.76l.5.5-1,2.36-1.5-1.5-1.5,2.5-3,1.14,1,1.5-.5,2h1l-.5,1-1-.5-2,2.5-2.5-1-1,1-2,1-.5-1-1-2,1,.5,1-1h-3.5l.5,1.5h-1.5v1.5l-2,.5-2.5-3.5-1.5,1.5,1.5,3.5-3.5-1-3.5,4.5,2,1-1.5,3-2,1.5v1.5l-1,.5,1.5,3-6.5,4.5-1.5,1.5,4.5,2.5v3l1.5,1,2-2.5,8.5,7.5-1,1v1.5l2-1.5,2,1.5,2.5-2,3.5.5-.5,2-.5,1v1l6,4,1.5-1,.5-2.5-3.5-2.5,5.5-5.64-2-4.5,3.5-3-1.5-1.5.5-3.5-1.5-1.5v-2.5l1.5-1,1,1,3.5-2.5,2,1,.5-1.5,1,1,4-1.5.5-2.5,1.5-.5-.5-2,3-3.5.5-2.36.5-.5-.5-1-1.5.5.5-2.5-3-1.5-.5-2.5-2-2-2.5-1h-2l-1.5-1.5h-1ZM144.63,81.26h1l.5-.5-1-.5-.5,1ZM149.63,86.26h1.5l.5.5-1,2,1,1-1,1.5,1.5,2-1.5,2h-1l-.5-2-3,.5h-3.5l-.5-1,2.5-2.5h2l.5-1h1.5l1-3Z"/>
      <path data-code="nikolaevskij_rajon__ul_janovskaja_oblast_" data-title="nikolaevskij_rajon_(ul&amp;apos;janovskaja_oblast&amp;apos;)" class="cls-1" d="M23.62,102.62l2-2,1.5,1.5,1.5-2,.5.5-2-1.5,2.5-3.5h.5l3,1,.5,1.5,2,.5,1-1,.5,2.5,1-2.5,2.5.5-2,3,.5,1.5h.5v-1.5l.5-.5,1.5,1.5,2-.5v2l1.5-.5-.5,1.5.5-1,1,1,1-1,3,1.5-2,2,2.5,2-2,.5-1,1,.5.5-2.5,1.5v1.5l-1.5,2,.5.5,1-1,.5,1.5,2-.5-.5,2-1-.5-.5,1-2.5,1.5.5,1-1.5,1-1-.5-1,2-1.5-1-3,2,2,.5-.5,1.5,1,.5.5-1-.5,2,.5-1,.5.5-.5,1-.5.5.5,1-1,1.5.5.5-1,1.5-1.5-3-2.5,1-4.5-3-2,3.5h-2l.5-1.5-1.5,1v-1.5l2-1.5-4-2.5h-1.5l-.5,1.5-1-2.5-3-3-1,.5-.5-1,1-.5,1.5-3h-.5l5-6.5-1-1,2,.5.5-1.5h1l-.5-1,1-3-2-.5,1-3"/>
      <path data-code="novomalyklinskij_rajon" data-title="novomalyklinskij rajon" class="cls-1" d="M154.12,96.12l1.5-1,1,1,3.5-2.5,2,1,.5-1.5,1,1,4-1.5.5-2.5,1.5-.5-.5-2,3-3.5.5-2.5.5-.5,2.5,3-2.5,4.5,2,1-2,2.5,1.5,2-1.5,5.5h-1l-1,4-4,4-1.5,3v2l-3,2-4-1-1.5,1.5-.5,1.5-1.5-1.5-.98-1.5.98-1-2-4.5,3.5-3-1.5-1.5.5-3.5-1.5-1.5v-2.5"/>
      <path data-code="novospasskij_rajon" data-title="novospasskij rajon" class="cls-1" d="M37.62,124.12l1.5-1,1.5,1,1-2,1,.5,1.5-1-.5-1,2.5-1.5.5-1,1,.5.5-2-2,.5-.5-1.5-1,1-.5-.5,1.5-2v-1.5l2.5-1.5-.5-.5,1-1,2-.5,7,2.5,1.5,2.5h5v2l2,4h-.5v2l1.5.5-.5,1,1.5,1.5v1l-2.5,1-1,1.5,2,4.5-6,3.5.5,1.5-2-1-2,1-.5-.5,1-1-1.5-1v-1.5l-4-3-.5,2-2-.5-1-4-1,.5v1.5l-3.5-2.5.5-1.5-.5-.5-3,4.5-1.5-5-2-1.5"/>
      <path data-code="novoul_janovsk" data-title="novoul&amp;apos;janovsk" class="cls-1" d="M112.13,69.26l2,11.5-2.5-.14-2.5,3-2-4.5h-2l-.5-1,.5-1-1-4.5.5-2,7.5-1.36Z"/>
      <path data-code="pavlovskij_rajon__ul_janovskaja_oblast_" data-title="pavlovskij_rajon_(ul&amp;apos;janovskaja_oblast&amp;apos;)" class="cls-1" d="M1.62,135.62l2.5-2.5.5,1,1.5-1,3,1v-1.5l2.5-.5,2-3.5-1-1,1-2.5-.5-2.5h3l3,3,1,2.5.5-1.5h1.5l4,2.5-2,1.5v1.5l1.5-1-.5,1.5h2l-1.5,1v1.5h-1l-.5-1-1,1.5-.5-1,.5,2-1.5,1-.5-1-.5,1.5-1.5,1.5v1.5l-1,1.5,1-.5v2.5l2,.5,3.5,5.5-1,2,1,.5h-4.5l-1-1.5-5-1-.5-2-1.5,1-1.5-1.5,1-1h.5l-.5-.5.5-.5-1,.5-3-1.5-2,2.5,1.5-2.5-1.5-2,1.5-3.5-2.5.5-3-2-1,1-.5-1.5,1-2"/>
      <path data-code="radishhevskij_rajon" data-title="radishhevskij rajon" class="cls-1" d="M37.62,124.12l2,1.5,1.5,5,3-4.5.5.5-.5,1.5,3.5,2.5v-1.5l1-.5,1,4,2,.5.5-2,2,1,2,2v1.5l1.5,1-1,1,.5.5,2-1,2,.5.5,1.5,1-.5v.5l-1,1.5,1,.5,2.5-3,3,1,1,2-3.5,2.5,1.5,1-1.5,2,3,.5-.5,1.5,1.5,2,1-.5.5,5.5-3,1.5-6.5-1-4,.5-.5-2.5-1-1-2.5,2-2-3h-1.5l-1,1-2.5-5h-8l-1.5-1.5v-2l-1-1,.5-.5-1-3.5,3.5-1.5,1.5.5,1.5-5-2-.5-1.5-.5-.5-.5,1-1.5-.5-1,.5-.5.5-1-.5-.5-.5,1,.5-2-.5,1-1-.5.5-1.5-2-.5,1.5-1Z"/>
      <path data-code="sengileevskij_rajon" data-title="sengileevskij rajon" class="cls-1" d="M97.12,83.62l1-1.5,1,.5.5-1,1-3.5,1,1,1.5-1.5,1.5,2.5h1l-.5-1h2l2,4.5,2.5-3,1.5.14,4.5,21.86-5.5,10-4.5-2.5-1.5-3-2-1-1.5-.5-.5,1h-1l.5-2-1,1-2-2.5v-3,1l-1.5-1.5,1.5-1.5-1-2h.5l1-1.5.5-.5,1.5-2.5v-2.5l-2.5-.5v-1.5l1-1.5-2.5-2"/>
      <path data-code="starokulatkinskij_rajon" data-title="starokulatkinskij rajon" class="cls-1" d="M21.12,136.62l.5,1,1.5-1-.5-2,.5,1,1-1.5.5,1h1v-1.5l1.5-1,2-3.5,4.5,3,2.5-1,1.5,3,1-1.5,1.5.5,2,.5-1.5,5-1.5-.5-3.5,1.5,1,3.5-.5.5,1,1v2l1.5,1.5h8l2.5,5-2-1-2,1.5,3.5,2-2,1-1,1.5-5.5-.5.5-2.5,1-3-2.5-2-1.5,2h1l-1.5.5-.5-1v1h-1.5l-.5,2-1.5,1v1.5l-1,1.5-2-.5v-2.5l-4.5-3.5-4.5-7-2-.5v-2.5l-1,.5,1-1.5v-1.5l1.5-1.5.5-1.5"/>
      <path data-code="staromajnskij_rajon" data-title="staromajnskij rajon" class="cls-1" d="M132.12,50.12l7.5,4,5.5-10.5,4.5,2.5,1-1,1,2.5,1,.5,3-2.5h2l1,1.5,1.5-.5-.5-2,2,.5.5,4.5,1.5.5-1,.5,1.5,4.5-1,3,1,1.5h-2l-1,1.5,2,.5v2l-2.5,2.5,1.5,1-.5,1.5-2.5,1.5.5.5-1,2-1.5-1.5-1.5,2.5-6.5,3-1.5-2-4,3.5-3.5-4,.5-5-3-1-.5,1-1.5-1h1l.5-1.5-2,.5-.5.5.5.5h-1l-1.5-2.5-.5-1,2-2-2.5-.5.5-12"/>
      <path data-code="surskij_rajon" data-title="surskij rajon" class="cls-1" d="M56.62,11.12l6-1,.5-1.5-2-4,2-1-.5-2.5,1.5-.5,1.5,1,2.5,8.5,4.5,1.5-1,3,.5,1,2.5-.5v1l3.5-1,2.5,1,1-1,1.5,1,.5,3.5,1-.5-.5,2h1l-.5-1,1,1,1,1-.5-1,4,1.5-1,3.5h-.5l-1,3-1.5,5.5-2,1-.5-1.5v1.5l-1.5.64.5,1.5-4,.86-2.5-1,.5-3.5-5-.5.5-2.5-3.5-.5-1.5-2.5-2,1-2-1,.5,2-1,1-.5-2-.5,1-1.5-1,1-1.5-6.5-3.5v-2.5l1-1.5v-.5l4,.5-.5-.5h.5v-1l-4,.5-.5-1,3.5-1,2-2-1.5-1.5,1.5.5v-1.5l-4-.5v-1"/>
      <path data-code="teren_gul_skij_rajon" data-title="teren&amp;apos;gul&amp;apos;skij_rajon" class="cls-1" d="M76.12,91.62l1.5-1.5,2-1v-1.5l1.5.5-1-2.5,3-3.5,1,1.5,3.5-2,.5,1.5,1.5-1-1-.5.5-1.5h1.5l-1-2.5,2.5-1-.5-.86.5-1.14,5.5-1.5v1l-.5,1v1h-1v1l2,.5,1-.5.5,1-1.5,1.5,1.5,2-.5,1-1-.5-1,1.5,2.5,2-1,1.5v1.5l2.5.5v2.5l-1.5,2.5-.5.5-1,1.5-.5-.5,1,2.5-2.5,1.5v2l1,.5-2,2,.5,1-1,1,1,.5h-3l-1.5-1.5h-1l.5,1-.5,1v-2l-1.5-1-2,3.5,1.5,1.5-1,1,2.5,1-.5,1-1.5-1.5-1.5.5-3,4-2-1.5-1.5,1v-1h-1l1-.5-.5-1.5-2-.5-.5,1-1-.5.5-1.5-1.5-.5-3-.5-1,1,1,1-1.5,1v-4l4.5-3v-1l3.5-5.5-1-1-1.5.5.5-6.5"/>
      <path data-code="ul_janovskij_rajon" data-title="ul&amp;apos;janovskij_rajon" class="cls-1" d="M99.13,52.26l1.5-2-.5-1,2-1.5,4.5,2.5v-1.5l3.5.5.5-2-1.5-.5,1-1.5,5,3,1-1,1.5-.5-1.5-1.5h.5l.5-2.5-.5-2,3.48-3.04,1.02,2.91,3-1.5.5,1.5-1,1,2,4.5-7.5,13.64-3-2.14-.5.5v-.5l-1.5,1-.5-.5.5-1.5-2-1.5h-3v2l-1-1.5,1,2.5-1-.5-1,1.5h-2.5l-1-1.5-.5,1h-1l1,1.5-2,.5-.5,1,2.5,2-1,.5,1,.5-1,2.5,1,1-1,.5-.5.5h-1.5l2,2,1.5-1.5.5.5-1,1.5,2,1,1,4.5-.5,1,1,2h-1l-1.5-2.5-1.5,1.5-1-1-1,3.5-1.5-2,1.5-1.5-.5-1-1,.5-2-.5v-1h1v-1l.5-1v-1l-5.5,1.5-2.5-5,1.5-1.5-.5-.5,2-3.5,1.5,1,1.5-1-1.5-2,1-1-.5-1,2.5-3.5h-.5l.5-2.5,1-.5-1-.86,2-.5Z"/>
      <path data-code="veshkajmskij_rajon" data-title="veshkajmskij rajon" class="cls-1" d="M48.13,52.26l.5-1,1.5-1.14-1-.5,2-1,.5-1,1.5.5-.5-1.5,1.5-.5v-.5l1-1,.5-2.5,1-.5-1,3,3,2.5-1.5,3,5,.5,4-1.5,2,1,1.5-1.5,1.5,4,1.5-2,2.5.5-2.5,3.5-3.5-1.5,1,1h-1.5l2,1.5.5,3h-1l-1.5,3h1v-1h1l-.5,3-1.5,2,1.5.5v1h-1.5l-.5,1v1.5h-.5v.5l-1,1,.5.5-1,5-2,1-2-.86,1-4-2.5,1.5-1.5-1v-1.5l1.5-1.5-2-1.14-2.5,1.5,1-2-2.5-2.86-2.5.5-1.5-1-2,1-3-1.5v-1.5l-.5-1.14,1-3-.5-1.86,1-1-1.5-1.5.5-1h-1l.93-3.21,2.57,1.71Z"/>
    </g>
</svg>