<svg id="RU-ULY" xmlns="http://www.w3.org/2000/svg" viewBox="0 0 175.5 158.5">
      <path data-code="ULY-BAR" d="m28.75,78.9h2l.5-3.5,6,.5.5-2,4.5-1,2-2,1,.5,1.5-1,2.5-4-1-.5,2-1,1.5,1,2.5-.5,2.5,2.85-1,2,2.5-1.5,2,1.15-1.5,1.5v1.5l1.5,1,2.5-1.5-1,4,2,.85,2.5,1.65,1,3.5-1,1.5,2.5,3-.5,2.5-2.5-1.5-1,.5v-3l-5,3-2.5-1.5-2,1.5-2.5-.5-.5,4-2.5-1-1,.5.5,1.5-1.5,1,3,1-1,2-1,.5-2-.5-.5,1.5-2,1,1,2-2-.15-2,.5-1.5-1.5-.5.5v1.5h-.5l-.5-1.5-.5-3.5-1,2.65-.5-2.5-1,.85-2-.5-.5-1.5-3.5-.85,1-1.5-3.5-3-1-2,1-1.5-1.2-1.75,1.2-1.75,2,.5,1-1.5-1-4"/>
      <path data-code="ULY-BAZ" d="m23.25,70.4h1v2.5l6.5-1.5.5-1-1-2,1,1,1-.5-1-3.5,1-1v-1.5l1.5,1,2-.5.5-2,1.5-1,.5.5-1,2,1.5.5,2.5-3,2-4.5,2,1,.5,2-1,2.85.5,1.15v1.5l4,2-2.5,4-1.5,1-1-.5-2,2-4.5,1-.5,2-6-.5-.5,3.5h-2l1,4-1,1.5-2.5-.5h.5l-1,1.5h-1v-1l1-.5.5-2-3,.5-1-1.5.5-1.5-2,1v-1.5l-.5-3,1-.5.5-1-.5-.5,2-3.5"/>
      <path data-code="ULY-CHE" d="m111.75,68.9l4.5-1,2-1.5,3.5,1,3.5-1-1-5.5-1.5,1-4-3-1,.5,7.5-13.5,6.5,3.5-.5,12.35,2.5.5-2,2,2,3.5h1l-.5-.5.5-.5,2-.5-.5,1.5h-1l1.5,1,.5-1,3,1-.5,5,3.5,4,4-3.5,1.5,2,3.5-1.85,1,1.5-.5,2h1l-.5,1-1-.5-2,2.5-2.5-1-1,1-2,1-.5-1h1l.5-.5-1-.5-.5,1-1-2,1,.5,1-1h-3.5l.5,1.5h-1.5v1.5l-2,.5-2.5-3.5-1.5,1.5,1.5,3.5-3.5-1-3.5,4.5,2,1-1.5,3-2,1.5v1.5l-1,.5,1.5,3-8,6-3-1.15-4.5-21.85h1l-2-11.5"/>
      <path data-code="ULY-TSI" d="m87.25,40.4l3.5,1,.5-1-.5-.5-1,.5v-1l2-.5,1.5-1.5v-2l3.5-2v-2.5l4.5-1-.5-1.5,2-.5,1-1-.5-.5,1.5-1,3,2.5-1,2.5-2-.5v3l3,2.5,1.5-2h-1l1-2h1l.5-1h1v1h2.5v2h1.5l.5-1.5h-.5.5l1-1.5,1,.5-1,1.5,1,2h2.5l.5,2h1.5l-2.5.5-4,3.5.5,2-.5,2.5h-.5l1.5,1.5-1.5.5v.5-.5l-1,1-5-3-1,1.5,1.5.5-.5,2-3.5-.5v1.5l-4.5-2.5-2,1.5.5,1-1.5,2-2,.5-3-2.5-2,.5-1.5-2.5v-1l.5-.5-4-3v-1l1-1-.5-1"/>
      <path data-code="ULY-DIM" d="m141.75,92.4l2.5-2.5h2l.5-1h1.5l1-3h1.5l.5.5-1,2,1,1-1,1.5,1.5,2-1.5,2h-1l-.5-2-3,.5h-3.5l-.5-1"/>
      <path data-code="ULY-ULY" d="m100.75,58.25h1l.5-1,1,1.5h2.5l1-1.5,1,.5-1-2.5,1,1.5v-2h3l2,1.5-.5,1.5.5.5,1.5-1v.5l.5-.5,3,2.15,1-.5,4,3,1.5-1,1,5.5-3.5,1-3.5-1-2,1.5-4.5,1-7.5,1.35-.5,2-2-1,1-1.5-.5-.5-1.5,1.5-2-2h1.5l.5-.5,1-.5-1-1,1-2.5-1-.5,1-.5-2.5-2,.5-1,2-.5-1-1.5"/>
      <path data-code="ULY-INZ" d="m15.25,34.4l1-.5,2,1,1.5-.5,1.5-1.5v-1l3.5-1,1.5-1.5v-1.5h.5v1h1.5-.5v.5h-1l1.5,1h-1,1.5l1.5-2h1l.5,1.5,1-.5.5,2,2.5-1,1.5,1.5,3-.5h.5l-1,.5.5.5h3l.5-1.5,3-1.5v1.5l3.5,1.5-2,.5-1.5-.5-1.5,1.5v1l-1,.5v2.5l-.5-1-2,.5,2,4.5-1,5.5-1,.5,3.45,2.3-.95,3.2h1l-.5,1,1.5,1.5-1,1-2-1-2,4.5-2.5,3-1.5-.5,1-2-.5-.5-1.5,1-.5,2-2,.5-1.5-1v1.5l-1,1,1,3.5-1,.5-1-1,1,2-.5,1-6.5,1.5v-2.5l.5-.5.5-2.5h-1l-1-2.5v-3l1-2.5v-1.5l-2,1v-1.5l2-1.5-1.5-1,1-.5-3.5-2,1.5-.5,1.5-2,1.5-1.5,1,1-1-1.5,1-1.5-1-.5.5-1.5-1-.5-.5,1,.5-1h-1l1-1v-2h-.5v-1l-2.5-2h.5l-.5-1,1.5-1-.5-1-2,1.5-.5,1v-1l.5-.5-1-1-.5,2-1-1.5-2,1-.5-2"/>
      <path data-code="ULY-KAR" d="m41.75,37.4l2-.5.5,1v-2.5l1-.5v-1l1.5-1.5,1.5.5,2-.5v-1.5l4.5,2v-1l2.5-.5-.5-.5,2.5-1.5v-1l2,1.35.5-1,.5,2,1-1-.5-2,2,1,2-1,1.5,2.5,3.5.5-.5,2.5,5,.5-.5,3.5,6.5.15-2,2.5,2-1h1l-1,.5.5.5-3,1.5,1.5,1.5,1.5-.5-1,1,.5.5h-5l3,1.5-1,2.5,1,1,1.5-1-.5,1.5h-1l.5,1.5-1,2.5-2-1-.5-2-2.5.35-2.5-.5-1.5,2-1.5-4-1.5,1.5-2-1-4,1.5-5-.5,1.5-3-3-2.5,1-3-1,.5-.5,2.5-1,1v.5l-1.5.5.5,1.5-1.5-.5-.5,1-2,1,1,.5-1.5,1.15-.5,1-6-4,1-.5,1-5.5-2-4.5"/>
      <path data-code="ULY-KUZ" d="m45.25,101.4l-1-2,2-1,.5-1.5,2,.5,1-.5,1-2-3-1,1.5-1-.5-1.5,1-.5,2.5,1,.5-4,2.5.5,2-1.5,2.5,1.5,5-3v3l1-.5,2.5,1.5.5-2.5-2.5-3,1-1.5,2,.5.5-2,2.5.5-.5,1,2,.5,1.5-2h.5l-.5-.5,1.5-2.5h2l.5-1.5,1.5,1.5h3l2.5-1.5-.5-2,2-.5.5,1,3,.5.5.85-2.5,1,1,2.5h-1.5l-.5,1.5,1,.5-1.5,1-.5-1.5-3.5,2-1-1.5-3,3.5,1,2.5-1.5-.5v1.5l-2,1-1.5,1.5-.5,6.5,1.5-.5,1,1-3.5,5.5v1l-4.5,3v2.65l-1.5,2-3.5,1,.5,1.5h-1l-.5-1.15h-5l-1.5-2.5-7-2.5-2.5-2,2-2-3-1.5-1,1-1-1-.5,1,.5-1.5-1.5.5v-2l2,.15Z"/>
      <path data-code="ULY-MAJ" d="m72.25,54.25l2.5-3.5,2.5-.35.5,2,2,1,1-2.5-.5-1.5h1l.5-1.5-1.5,1-1-1,1-2.5-3-1.5h5l-.5-.5,1-1-1.5.5-1.5-1.5,1.5-1,1.5-.5-.5-.5,1-.5h-1l-2,1,2-2.5-.5-1.5,1.5-.65v-1.5l.5,1.5,2.5-1.25,1-2.1,3-1,1.5,4,1.5.5v2l-1.5,1.5-2,.5v1l1-.5.5.5-.5,1-3.5-1,.5,1-1,1v1l4,3-.5.5v1l1.5,2.5,2-.5,4,3.35-1,.5-.5,2.5h.5l-2.5,3.5.5,1-1,1,1.5,2-1.5,1-1.5-1-2,3.5.5.5-1.5,1.5,2.5,5-.5,1.15-3-.5-.5-1-2,.5.5,2-2.5,1.5h-3l-1.5-1.5-.5,1.5h-2l-1.5,2.5.5.5h-.5l-1.5,2-2-.5.5-1-2.5-.5-.5,2-2-.5-1-3.5-.5.5-2-2.15,2-1,1-5-.5-.5,1-1v-.5h.5v-1.5l.5-1h1.5v-1l-1.5-.5,1.5-2,.5-3h-1v1h-1l1.5-3h1l-.5-3-2-1.5h1.5l-1-1,3.5,1.5Z"/>
      <path data-code="ULY-MEL" d="m158.75,69.4l.5.5-1,2.35-1.5-1.5-1.5,2.5-3,1.15,1,1.5-.5,2h1l-.5,1-1-.5-2,2.5-2.5-1-1,1-2,1-.5-1-1-2,1,.5,1-1h-3.5l.5,1.5h-1.5v1.5l-2,.5-2.5-3.5-1.5,1.5,1.5,3.5-3.5-1-3.5,4.5,2,1-1.5,3-2,1.5v1.5l-1,.5,1.5,3-6.5,4.5-1.5,1.5,4.5,2.5v3l1.5,1,2-2.5,8.5,7.5-1,1v1.5l2-1.5,2,1.5,2.5-2,3.5.5-.5,2-.5,1v1l6,4,1.5-1,.5-2.5-3.5-2.5,5.5-5.65-2-4.5,3.5-3-1.5-1.5.5-3.5-1.5-1.5v-2.5l1.5-1,1,1,3.5-2.5,2,1,.5-1.5,1,1,4-1.5.5-2.5,1.5-.5-.5-2,3-3.5.5-2.35.5-.5-.5-1-1.5.5.5-2.5-3-1.5-.5-2.5-2-2-2.5-1h-2l-1.5-1.5h-1Zm-14.5,11.5h1l.5-.5-1-.5-.5,1Zm5,5h1.5l.5.5-1,2,1,1-1,1.5,1.5,2-1.5,2h-1l-.5-2-3,.5h-3.5l-.5-1,2.5-2.5h2l.5-1h1.5l1-3Z"/>
      <path data-code="ULY-NIK" d="m23.25,102.25l2-2,1.5,1.5,1.5-2,.5.5-2-1.5,2.5-3.5h.5l3,1,.5,1.5,2,.5,1-1,.5,2.5,1-2.5,2.5.5-2,3,.5,1.5h.5v-1.5l.5-.5,1.5,1.5,2-.5v2l1.5-.5-.5,1.5.5-1,1,1,1-1,3,1.5-2,2,2.5,2-2,.5-1,1,.5.5-2.5,1.5v1.5l-1.5,2,.5.5,1-1,.5,1.5,2-.5-.5,2-1-.5-.5,1-2.5,1.5.5,1-1.5,1-1-.5-1,2-1.5-1-3,2,2,.5-.5,1.5,1,.5.5-1-.5,2,.5-1,.5.5-.5,1-.5.5.5,1-1,1.5.5.5-1,1.5-1.5-3-2.5,1-4.5-3-2,3.5h-2l.5-1.5-1.5,1v-1.5l2-1.5-4-2.5h-1.5l-.5,1.5-1-2.5-3-3-1,.5-.5-1,1-.5,1.5-3h-.5l5-6.5-1-1,2,.5.5-1.5h1l-.5-1,1-3-2-.5,1-3"/>
      <path data-code="ULY-NOVM" d="m153.75,95.75l1.5-1,1,1,3.5-2.5,2,1,.5-1.5,1,1,4-1.5.5-2.5,1.5-.5-.5-2,3-3.5.5-2.5.5-.5,2.5,3-2.5,4.5,2,1-2,2.5,1.5,2-1.5,5.5h-1l-1,4-4,4-1.5,3v2l-3,2-4-1-1.5,1.5-.5,1.5-1.5-1.5-1-1.5,1-1-2-4.5,3.5-3-1.5-1.5.5-3.5-1.5-1.5v-2.5"/>
      <path data-code="ULY-NOVS" d="m37.25,123.75l1.5-1,1.5,1,1-2,1,.5,1.5-1-.5-1,2.5-1.5.5-1,1,.5.5-2-2,.5-.5-1.5-1,1-.5-.5,1.5-2v-1.5l2.5-1.5-.5-.5,1-1,2-.5,7,2.5,1.5,2.5h5v2l2,4h-.5v2l1.5.5-.5,1,1.5,1.5v1l-2.5,1-1,1.5,2,4.5-6,3.5.5,1.5-2-1-2,1-.5-.5,1-1-1.5-1v-1.5l-4-3-.5,2-2-.5-1-4-1,.5v1.5l-3.5-2.5.5-1.5-.5-.5-3,4.5-1.5-5-2-1.5"/>
      <path data-code="ULY-NUL" d="m111.75,68.9l2,11.5-2.5-.15-2.5,3-2-4.5h-2l-.5-1,.5-1-1-4.5.5-2,7.5-1.35Z"/>
      <path data-code="ULY-PAV" d="m1.25,135.25l2.5-2.5.5,1,1.5-1,3,1v-1.5l2.5-.5,2-3.5-1-1,1-2.5-.5-2.5h3l3,3,1,2.5.5-1.5h1.5l4,2.5-2,1.5v1.5l1.5-1-.5,1.5h2l-1.5,1v1.5h-1l-.5-1-1,1.5-.5-1,.5,2-1.5,1-.5-1-.5,1.5-1.5,1.5v1.5l-1,1.5,1-.5v2.5l2,.5,3.5,5.5-1,2,1,.5h-4.5l-1-1.5-5-1-.5-2-1.5,1-1.5-1.5,1-1h.5l-.5-.5.5-.5-1,.5-3-1.5-2,2.5,1.5-2.5-1.5-2,1.5-3.5-2.5.5-3-2-1,1-.5-1.5,1-2"/>
      <path data-code="ULY-RAD" d="m37.25,123.75l2,1.5,1.5,5,3-4.5.5.5-.5,1.5,3.5,2.5v-1.5l1-.5,1,4,2,.5.5-2,2,1,2,2v1.5l1.5,1-1,1,.5.5,2-1,2,.5.5,1.5,1-.5v.5l-1,1.5,1,.5,2.5-3,3,1,1,2-3.5,2.5,1.5,1-1.5,2,3,.5-.5,1.5,1.5,2,1-.5.5,5.5-3,1.5-6.5-1-4,.5-.5-2.5-1-1-2.5,2-2-3h-1.5l-1,1-2.5-5h-8l-1.5-1.5v-2l-1-1,.5-.5-1-3.5,3.5-1.5,1.5.5,1.5-5-2-.5-1.5-.5-.5-.5,1-1.5-.5-1,.5-.5.5-1-.5-.5-.5,1,.5-2-.5,1-1-.5.5-1.5-2-.5,1.5-1Z"/>
      <path data-code="ULY-SEN" d="m96.75,83.25l1-1.5,1,.5.5-1,1-3.5,1,1,1.5-1.5,1.5,2.5h1l-.5-1h2l2,4.5,2.5-3,1.5.15,4.5,21.85-5.5,10-4.5-2.5-1.5-3-2-1-1.5-.5-.5,1h-1l.5-2-1,1-2-2.5v-3,1l-1.5-1.5,1.5-1.5-1-2h.5l1-1.5.5-.5,1.5-2.5v-2.5l-2.5-.5v-1.5l1-1.5-2.5-2"/>
      <path data-code="ULY-STAK" d="m20.75,136.25l.5,1,1.5-1-.5-2,.5,1,1-1.5.5,1h1v-1.5l1.5-1,2-3.5,4.5,3,2.5-1,1.5,3,1-1.5,1.5.5,2,.5-1.5,5-1.5-.5-3.5,1.5,1,3.5-.5.5,1,1v2l1.5,1.5h8l2.5,5-2-1-2,1.5,3.5,2-2,1-1,1.5-5.5-.5.5-2.5,1-3-2.5-2-1.5,2h1l-1.5.5-.5-1v1h-1.5l-.5,2-1.5,1v1.5l-1,1.5-2-.5v-2.5l-4.5-3.5-4.5-7-2-.5v-2.5l-1,.5,1-1.5v-1.5l1.5-1.5.5-1.5"/>
      <path data-code="ULY-STAM" d="m131.75,49.75l7.5,4,5.5-10.5,4.5,2.5,1-1,1,2.5,1,.5,3-2.5h2l1,1.5,1.5-.5-.5-2,2,.5.5,4.5,1.5.5-1,.5,1.5,4.5-1,3,1,1.5h-2l-1,1.5,2,.5v2l-2.5,2.5,1.5,1-.5,1.5-2.5,1.5.5.5-1,2-1.5-1.5-1.5,2.5-6.5,3-1.5-2-4,3.5-3.5-4,.5-5-3-1-.5,1-1.5-1h1l.5-1.5-2,.5-.5.5.5.5h-1l-1.5-2.5-.5-1,2-2-2.5-.5.5-12"/>
      <path data-code="ULY-SUR" d="m56.25,10.75l6-1,.5-1.5-2-4,2-1-.5-2.5,1.5-.5,1.5,1,2.5,8.5,4.5,1.5-1,3,.5,1,2.5-.5v1l3.5-1,2.5,1,1-1,1.5,1,.5,3.5,1-.5-.5,2h1l-.5-1,1,1,1,1-.5-1,4,1.5-1,3.5h-.5l-1,3-1.5,5.5-2,1-.5-1.5v1.5l-1.5.65.5,1.5-4,.85-2.5-1,.5-3.5-5-.5.5-2.5-3.5-.5-1.5-2.5-2,1-2-1,.5,2-1,1-.5-2-.5,1-1.5-1,1-1.5-6.5-3.5v-2.5l1-1.5v-.5l4,.5-.5-.5h.5v-1l-4,.5-.5-1,3.5-1,2-2-1.5-1.5,1.5.5v-1.5l-4-.5v-1"/>
      <path data-code="ULY-TER" d="m75.75,91.25l1.5-1.5,2-1v-1.5l1.5.5-1-2.5,3-3.5,1,1.5,3.5-2,.5,1.5,1.5-1-1-.5.5-1.5h1.5l-1-2.5,2.5-1-.5-.85.5-1.15,5.5-1.5v1l-.5,1v1h-1v1l2,.5,1-.5.5,1-1.5,1.5,1.5,2-.5,1-1-.5-1,1.5,2.5,2-1,1.5v1.5l2.5.5v2.5l-1.5,2.5-.5.5-1,1.5-.5-.5,1,2.5-2.5,1.5v2l1,.5-2,2,.5,1-1,1,1,.5h-3l-1.5-1.5h-1l.5,1-.5,1v-2l-1.5-1-2,3.5,1.5,1.5-1,1,2.5,1-.5,1-1.5-1.5-1.5.5-3,4-2-1.5-1.5,1v-1h-1l1-.5-.5-1.5-2-.5-.5,1-1-.5.5-1.5-1.5-.5-3-.5-1,1,1,1-1.5,1v-4l4.5-3v-1l3.5-5.5-1-1-1.5.5.5-6.5"/>
      <path data-code="ULY-ULYM" d="m98.75,51.9l1.5-2-.5-1,2-1.5,4.5,2.5v-1.5l3.5.5.5-2-1.5-.5,1-1.5,5,3,1-1,1.5-.5-1.5-1.5h.5l.5-2.5-.5-2,3.5-3.05,1,2.9,3-1.5.5,1.5-1,1,2,4.5-7.5,13.65-3-2.15-.5.5v-.5l-1.5,1-.5-.5.5-1.5-2-1.5h-3v2l-1-1.5,1,2.5-1-.5-1,1.5h-2.5l-1-1.5-.5,1h-1l1,1.5-2,.5-.5,1,2.5,2-1,.5,1,.5-1,2.5,1,1-1,.5-.5.5h-1.5l2,2,1.5-1.5.5.5-1,1.5,2,1,1,4.5-.5,1,1,2h-1l-1.5-2.5-1.5,1.5-1-1-1,3.5-1.5-2,1.5-1.5-.5-1-1,.5-2-.5v-1h1v-1l.5-1v-1l-5.5,1.5-2.5-5,1.5-1.5-.5-.5,2-3.5,1.5,1,1.5-1-1.5-2,1-1-.5-1,2.5-3.5h-.5l.5-2.5,1-.5-1-.85,2-.5Z"/>
      <path data-code="ULY-VES" d="m47.75,51.9l.5-1,1.5-1.15-1-.5,2-1,.5-1,1.5.5-.5-1.5,1.5-.5v-.5l1-1,.5-2.5,1-.5-1,3,3,2.5-1.5,3,5,.5,4-1.5,2,1,1.5-1.5,1.5,4,1.5-2,2.5.5-2.5,3.5-3.5-1.5,1,1h-1.5l2,1.5.5,3h-1l-1.5,3h1v-1h1l-.5,3-1.5,2,1.5.5v1h-1.5l-.5,1v1.5h-.5v.5l-1,1,.5.5-1,5-2,1-2-.85,1-4-2.5,1.5-1.5-1v-1.5l1.5-1.5-2-1.15-2.5,1.5,1-2-2.5-2.85-2.5.5-1.5-1-2,1-3-1.5v-1.5l-.5-1.15,1-3-.5-1.85,1-1-1.5-1.5.5-1h-1l.95-3.2,2.55,1.7Z"/>
</svg>