<svg xmlns="http://www.w3.org/2000/svg" viewBox="0 0 154 187">
      <path data-code="UD-ALN" d="m32.25,146.75l2.5-1,1,1,2-1v-2l1-.5,6.5,1,1.5-1-.5-1,.5-2h1.5l.5,1,.5,3,2.5.5-.5,1,.5.5-1,.5-.5,1-1.5-1.5v.5l-2.5,1.5v1.5l5,3v1.5l2.5,2.5h-.5l-.5,1,1.5,1.5-3.5,1,2,1.5-2.5,1.5-2.5-5.5v1.5l-1,.5,1,1-1,.5.5,1.5-2,3-.5.5v1l-2.5-1.5-.5-3.5-2-1v-2h-1l-1-2.5-1.5,1,1.5,3-2.5.5v-2h-2v-4h-1.5l-.5-1v-1.5l1-1.5-.5-1,1-.5,1-1-1.5-2"/>
      <path data-code="UD-BAL" d="m100.75,50.25l1.5-.5,1-1.5-.5-1,2.5-.5,1.5-2,1,.5.5-1.5h-.5l2.5-1.5.5-1.5h4l2-1.5-1.5-1.5,1-1.5,1,.5,1.5-1,2,4,1-2,2,1,2-1v-.5l.5-.5h1l-1-2.5-2-1v-1.5h2.5l-1.5-3,1-1.5-1.5-.5-.5-1.5,1-2,1.5.5,9-11.5,1,1-1.5,2,1,1-2.5,2.5,2.5,2-2,2,4.5,3.5,2.5-1,.5-1,3-.5,2.5,2-1,1.5,3-3-.5,1.5.5-1,4.5,3.5-1.5,2h-1l-2,2-1.5-1h-4.5l-1.5,2.5-2-1-3,2-.5,2,1.5,1.5-1,1-.5,3-3.5-1.5.5.5-1.5.5,1.5,1.5-1,.5-.5,1.5-1.5-.5-.5,2.5-1-.5v1l1.5,1-1,1v1.5l-2.5,1.5h-2l-1.5,2h-1l1.5,1-1,1.5.5,2-.5-.5-.5,1-1,.5-1,1.5h.5l-3.5,4-2.5-1.5-1.5,2-1-1-2,1-5-4-1,1.5-2.5-2.5,1.5-2-1-1h1.5l.5-1.5-1-1,.5-1-1,.5-2-5"/>
      <path data-code="UD-DEB" d="m121.25,75.75l-1.5-3,3-3.5h1.5l2.5,2.5-.5-2,2-.5,3.5,2.5,1,1-.5,1,2-1,1,1.5,4-1.5,1.5,2.5,1.5-1.5.5,1.5h2v1.5l-1.5,2-1-.5.5,2.5-.5.5-1-.5-2.5.5-1,2.5-.5-.5,1.5,3-2.5-.5v1h-1l-1.5-.5v.5l-1,1,2.5,1-.5,1h-.5v1h-1l.5,1-3-2.5-2,1-2.5-.5-.5,2h-1.5v1l-6-4,.5-1.5-2.5-3.5h4.5l.5-1,1-.5v-1.5h-3l-.5-1,.5-1.5-1.5-.5.5-2h3Z"/>
      <path data-code="UD-GLA" d="m105.25,28.25h1v-1.5h.5l3,.5,1.5,2-.5,1.5,1.5,1-2.5.5.5,1h-2.5l.5-.5-.5-1h-1.5l-1-3.5"/>
      <path data-code="UD-GLM" d="m105.25,28.25l1,3.5h1.5l.5,1-.5.5h2.5l-.5-1,2.5-.5-1.5-1,.5-1.5-1.5-2-3-.5h-.5v1.5h-1m-9-1.5l2-.5v-1l.5-.5,3-3-1-1,2,1,1-1-.5-.5,1.5-1.5v-1l6-8.5,5.5,4,.5,1.5v-1l5.5,4,6-8,6,3.5.5-1.5,1,.5-9,11.5-1.5-.5-1,2,.5,1.5,1.5.5-1,1.5,1.5,3h-2.5v1.5l2,1,1,2.5h-1l-.5.5v.5l-2,1-2-1-1,2-2-4-1.5,1-1-.5-1,1.5,1.5,1.5-2,1.5h-4l-.5,1.5-2.5,1.5h.5l-.5,1.5-1-.5-1.5,2-2.5.5.5,1-1,1.5-5-2v-2.5l.5-.5-1.5-1.5,1.5-1.5-3-3.5,2-2.5-1.5-.5v-1.5l-1-1h.5v-1l3.5-.5-3-3,1-1.5"/>
      <path data-code="UD-VOT" d="m116.25,117.6l2-2.5-1,1.5,2,1v1l2.5.5-1,.5.5,1.5-1.5,1h-1.5l-.5,1.5-2.5,2-1-3,1-1-3-3,3-1.5-2-3,3,3.5Z"/>
      <path data-code="UD-GRA" d="m28.75,153.75l-.5,1,1,.5.5-2-1,.5m-23.5-6.5h.5l3.5-2.5,5,.5.5-1.5,3.5,1.5,1.5-1,1.5.5-1-1,3-2.5h1.5l1.5,1-1-1.5,4-1.5,4,3-1,3,1.05,1.05-1.05.45,1.5,2-1,1-1,.5.5,1-1,1.5-1-.5v4l-1-.5-1,1h.5v.5l-1-.5-1,2.5,1,.5-.5,1.5-2.5-.5v1h-1.5l-.5,1.5-3-1.5v-1.5h1l-.5-3,.5-.5-1.5-.5v-1.5l-.5-.5-2,2-2,.5-1-1.5-2,.5-2,2,.5-2.5,1-.5-2-1.5,1.5-.5.5.5.5-1.5-1.5-.5-1,2-1-.5v-2.5l-2.5.5-.5-1v-2.5"/>
      <path data-code="UD-IGR" d="m75.25,74.6l4.2-6.7,2.3,1.3,1.5-2,1,.5,1.5-2,8,5,.5-1.5,1,.5,6.5-8.5,2.5,2.5,1-1.5,5,4,2-1,1,1,1.5-2,2.5,1.5,1-1,3,1.5-1.5.5,3,2.5-3,3.5,1.5,3h-3l-.5,2,1.5.5-.5,1.5.5,1h3v1.5l-1,.5-.5,1h-4.5l1,.5-3,6h-2.5v1.5l-1.5.5-3-2-1,1-2-1-1,2-2.5-1.5-.5,1-3.5-2-.5,1-6.5-4,3-4.5-5.5-3h-3l.5-2-1-1-2.5,1.5-1-.5.5-.5v-1l-5.5.35-1-1,1-.45Z"/>
      <path data-code="UD-IZH" d="m84.25,112.1l1-2,2.05-1,.5.4-2.55,1.1-.5,2,1.5,1,1-1h1l3,4.5-.5,2,3,.5-1,1.5-2.5-1-1,2.5v1l-1.5-.5-.5,2h1.5l-.5,2-1,.5-.5-1.5-1-.5-4,3.5v-1l1-.5-.5-1.5,1-2-1.5-1-1,1-2-3,1.5-3.5,2,.5,1-1-1-.5,1-1.5,1-2.5-2-.5h2Z"/>
      <path data-code="UD-YAK" d="m76.25,80.6l2-.5h2.5v-1.5l.5-.85,2.5-1.5,1,1-.5,2h3l5.5,3-3,4.5,6.5,4,.5-1,3.5,2,.5-1,2.5,1.5,1-2,2,1,1-1,2.2,1.45-1.2,1.4,1,2.5-3.5,3.5,2,3-2,2.5-.5,1.5h-1l-4.5,3.5-.1,1.95-3.4-2.8-3,5-13.5-10.5.5-.5-2-2.15,1-4,.5-1h-.5l3-4-6-3.5.5-.5-1-3,1.5-2-1.5-.5.5-1.5Z"/>
      <path data-code="UD-YAR" d="m78.75,14.75l.5-1.5,3.5-2v-2l4.5-1,.5-2,1-1-1-.5,1-1-.5-.5,2.5.5,6-3.5,8,1,2.5,3.5v2.5l3.5,2-6,8.5v1l-1.5,1.5.5.5-1,1-2-1,1,1-3,3-.5.5v1l-2,.5-1,1.5-.5.5v-1.5l-2.5-1-2.5.5-2,1.5-2.5-1-1,1-3-.5-1-2-1.5-1v-1l2.5-1.5.5-6-2,.5-1-2"/>
      <path data-code="UD-YUK" d="m73.25,36.25l1-.5v-1l1-1v-2l2.5-.5,2.95-3.65,3.55.65,1-1,2.5,1,2-1.5,2.5-.5,2.5,1v1.5l.5-.5,3,3-3.5.5v1h-.5l1,1v1.5l1.5.5-2,2.5,3,3.5-1.5,1.5,1.5,1.5-.5.5v2.5l-2,.5-.5-2.5-1.5.5-2.5.5-.5,2.5-2.5-.5-.5,1v-1.5l-3.5-.5-3-4-1.5.5-4.5-2v-1.5l1-2-2.5-2.5"/>
      <path data-code="UD-KAM" d="m100.75,159.25l2,2.5,1.5-1-1.5-2-2,.5m-4-5.65l-.5,2h3.5v1l4.5.5,1.5,1.5-1,2h1l-3,1.5,1.5.5,1.5-1v2l3.5-2.35h2l-1.5,5.5v2l-1,1-1.5,3,2,1-1.5.5-1,2.5-2.5-.5v1h-3.5l-.5.5-2-.5v-11.65l-4.5-6,1.5-6h1.5Z"/>
      <path data-code="UD-KAR" d="m57.25,178.75l1.5-.5,3,1.5-.5-1,2.5-2v1l2-.5-.5-1,.5-.5,1,1h2.5l.5-1-.5-1,.5-1,4-3.5,1,2,2-1.5,1-2-.5-1,1.8-2.75,1.7,3.1h2.5l1.5,5,1-1v-1l3-.5,1,4,1.5-1,.5,2,2.5-1,4.5,3.15-6.5,3.5-3,3.5-2.5,1.5-1.5-.5-3-4.5-1,2-2,1v1.5l-3.5-1.5-1.5,2.5h-1l-4-.5-1-1-3,1-1.5-.5-1.5.5,1,.5h-1l-5-3,1-.5-1-.5,1-1.5-1-.5v-2"/>
      <path data-code="UD-KEZ" d="m122.25,54.75h1l1.5-2h2l2.5-1.5v-1.5l1-1-1.5-1v-1l1,.5.5-2.5,1.5.5.5-1.5,1-.5-1.5-1.5,1.5-.5-.5-.5,3.5,1.5.5-3,1-1-1.5-1.5.5-2,3-2,2,1,1.5-2.5h4.5l1.5,1,2.5-2.5,1,3-.5,1v1.5h-.5l1,3.5-2,1.5-4,1.5,2.5,5.5-1.5,1,1.5,2-1.5,2-.5,1.5,1,2,1.5,9-3,2,.5,3.5-.5.5-.5,2-1.5,1.5v1h-2l-.5-1.5-1.5,1.5-1.5-2.5-4,1.5-1-1.5-2,1,.5-1-1-1-3.5-2.5-2,.5.5,2-2.5-2.5h-2l-2.5-2.5,1.5-.5-3-1.5,2.5-3h-.5l1-1.5,1-.5.5-1,.5.5-.5-2,1-1.5-1.5-1"/>
      <path data-code="UD-KIY" d="m61.25,159.75v.5l.5-.5v-.5l-.5.5m.5,0l.5.5.5-1-1,.5m-1.5-8l2.5-1.5-.5-1.5h.5v-1l1.5-.5.5-1h.5l1.5-2.5h3.5l1-1.5,1,1,1-.5,1,.5-2.5,4.5,1,2.5v-1l3-2h1.5l2.5,3-1.5.5v1l-2-.5-.5,2h-1.5l2.5,2-1,2-.5,3-7-1,1.5,2,.5,3.5-1,3.5-1.5,1,1,2-1-.5-.5,1.5-2.5-1.5.5-2.5-2,.5-1-2.5,1-3h-3v2l-1-1.5.5-1.5,1.5-1-1.5-.5h1v-2h1l-.5-1.5h-.5l1,1h-2v2.5l-1-1,.5-1.5h1l-1-1v-2l1.5-2.5.5,1.5.5-1.5-1.5-1"/>
      <path data-code="UD-KIZ" d="m8.25,108.25l2.5-1.5v-1.5l5-7,9.5,7,1.5,1.5-1.5,1.5,1,1,.5-2,2,.5.5,2-1.5,2,.5,1-1.5.5,1,4-.5,1.5,1.5.5,4-1.5.5,3.5,4,1.5h-1.5l-.5,2.5-2.5,1.5-.5-.5.5.5-4,3.5-3,1-.5,3h-1.5l2.5,2.5h-2v1.5l-1.5.5.5,2.5-3,2.5,1,1-1.5-.5-1.5,1-3.5-1.5-.5,1.5-5-.5-3.5,2.5h-.5l-.5,2-2.5-1v2l-.5-1.5-1.5,1,.5.5v.5l-.5.5v-4.5l1-2.5-.5-2-.5-1.5,1,3.5.5-2h1l.5.5,2.5-1,5.5,1,1.5-2.5-6.5-3,1-2-.5-.5,1.5-1.5h2.5l-1-2-2-.5-1,1-1-1,2-.5,2.5-3.5-1-.5.5-1-1-1,.5-.5-1.5-1-.5.5,1.5-2.5h-.5l1-1-.5-1,2.5-2-3.5-2.5.5-1-.5-3,1.5-2h-1"/>
      <path data-code="UD-KRA" d="m64.25,51.75l3-1.5,2-3.5,1-.5v-1l1-.5-.5-.5h2l.5-1h1.5v-1h1.5l3,2,1.5-.5,3,4,3.5.5v1.5l.5-1,2.5.5.5-2.5,4-1,.5,2.5,2-.5,5,2-1.5.5,2,5,1-.5-.5,1,1,1-.5,1.5h-1.5l1,1-8,10.5-1-.5-.5,1.5-8-5-1.5,2-1-.5-1.5,2-3.5-2,1-1-3-3-1.5.5-1-1.5h-2l-1,1-5.5-4.5,1-1.5-1.5-1,1.5-1.5-1.5-.5,1.5-2-2-.5"/>
      <path data-code="UD-MAL" d="m54.75,130.25l3.5-2,1,.5v-1l2.5-2-1-.5,1-.5-.5-.5,1-1-.3-.75,2.8-2.4-.5,1.5,2-1,1.5,1.5,1.5-.5,1,4.5,5,4h-1.5l-1,1,.5,1.5,1,.5,1.5-1.5,3,.5-1,1,3,2.5.5,1.15,1-1.15,3.5,4.5-1,1v1.5l-2,2-2-1v1.5l-1.5.5,1,1.5-1.95,1.35-2.55-1.25-3,2v1l-1-2.5,2.5-4.5-1-.5-1,.5-1-1,.5-2.5,1,1.5,1.5-1-1.5-1-1,.5v-1.5l-1-.5h1-1.5l-2-2v1.5l-2,1.5-1.5-2v2l1.5.5-1,1,1,1-1,2-.5-1-1.5,2-2-.5-2,.5v-1.5l-1-.5-.5,1-1.5-.5,1,.5-.5,1-2.5-1.5-.5-3,.5-.5-1.5-1,2.5-3v-1.5l1.5-1h-1l1.5-1.5-2.5-.95"/>
      <path data-code="UD-MOZ" d="m39.75,129.25l5-1,.5,1.5-2,.5v1.5l-1.5.5-2-1.5.5-1-.5-.5"/>
      <path data-code="UD-MZM" d="m39.75,129.25l.5.5-.5,1,2,1.5,1.5-.5v-1.5l2-.5-.5-1.5-5,1m-16,5h1.5l.5-3,3-1,4-3.5-.5-.5.5.5,2.5-1.5.5-2.5h1.5l-4-1.5-.5-3.15,1,1,1.5-2.5-.5-.5,1-2,2-1.5,5,2,1-.5.5-1.5-.5-.5,2.5-1-.5,1.5,3.5,1.65,1.5,3.5-1,1.5,2.5,2,4.5-1.5,4.5,1,1,2.5-1,1,.5.5-1,.5,1,.5-2.5,2v1l-1-.5-3.5,2,2.5,1-1.5,1.5h1l-1.5,1v1.5l-2.5,3,1.5,1-.5.5.5,3,1.5,1-1.5,2-.5-.5-1.5.5.5,1-1.5-1,.5-1-2.5-.5-.5-3-.5-1h-1.5l-.5,2,.5,1-1.5,1-6.5-1-1,.5v2l-2,1-1-1-1.45.55-1.05-1.05,1-3-4-3-4,1.5,1,1.5-1.5-1h-1.5l-.5-2.5,1.5-.5v-1.5h2l-2.5-2.5"/>
      <path data-code="UD-SAR" d="m87.75,154.1l1.5-1.5,1,.5.5-2.5,1,3.5-.5-3,1.5.5v1l1-1.5h2l.5-1,.5,3.5-.5,1-1-1-1,4-1-1.5h-2l-3.5-2"/>
      <path data-code="UD-SRM" d="m74.25,153.25h1.5l.5-2,2,.5v-1l1.5-.5-1.45-1.75,1.95-1.35-1-1.5,1.5-.5v-1.5l2,1,2-2,2,1v1.5l1.5-1v-1.5l1-2.5,2-1v-.5l3.5,1.5,1-.5.5-3,3,1.5,4-2,1,.5-1.5,2.5,1.5.5-1.5,2.5.5.5-2.5.5-.5,2.5-.5-1-1,2,4,1.5,5-.5-3,3,1-.5v1.5l1,.5-1,2,2.5,2-.5,1.5v1.5l-.5,1.5,2,1.5-3.5,1.5v-2l-1.5,1-1.5-.5,3-1.5h-1l1-2-1.5-1.5-4.5-.5v-1h-3.5l.5-2-.5-3.5-.5,1h-2l-1,1.5v-1l-1.5-.5.5,2v1l-1-3.5-.5,2.5-1-.5-1.5,1.5,3.5,2h2l1,1.5-.5,2,4.5,6,.5,11.5-1,.5-3.5-3-2.5,1-.5-2-1.5,1-1-4-3,.5v1l-1,1-1.5-5h-2.5l-2-3.5v.5l-2.5-1-.5-3.5-2-.5h1.5l.5-2.5,1-2.35-2.5-2.05m26.5,6l2-.5,1.5,2-1.5,1-2-2.5m-1-13.65h1.5l.5-1.5,3,2.5,2-2v1l2,1.5h-2l-4,1-3.5-1.5.5-1"/>
      <path data-code="UD-SEL" d="m44.75,64.1v-.5l3-.5-.5-1,4.2-6.1,3.8.1,1.5-3.5,2.5,2.5,2-.5,1.5-2.5,2,1.5.5-1-.5,1.65,1.5.5-1.5,1.5,1.5,1-1,1.5,5.5,4.5,1-1h2l1,1.5,1.5-.5,3,3-1,1,1.2.7-4.2,6.7-1,.5,1,1,5.5-.35v1l-.5.5,1,.5-.5.85v1.5h-2.5l-2,.5-2.5-1.5-1,1.5-4.5,2.5-1.5,2-2,1-3-.5-.5-1.5-1,.5-2.5.5-.5-2.5-1.5.5.5-1v-1.5h-2.5l-2-2h.5l.5-1.5-3.5-3,1-1.5-3.5-2.5.5-.5-.5-1.5h1.5l.5-2.5h-1l.5,2-1.5-1,.5-.5-.5-1-2.5.5-.5-1,1-.55Z"/>
      <path data-code="UD-SHA" d="m109.45,91.7l.8.55,1.5-.5v-1.65l2.5.15,2.75-5.45,1.75,2.45-.5,1.5,6,4v-1h1.5l.5-2,2.5.5,2-1,3,2.5.5-.65,2,.5,1.5,1.5-1,1.5-1.5.5,3.5,3.5-.5,1.5.5.5-4,1-1.5-1-1.5,1,.5,1-1.5,1-1.5,5-1.5,1-1-.5-3,2.5-2-.5-1,1,1,.5-.5,2-.5-1.5-2.5,2v-2l-3,.5v-1l2-1-6-5,1,2.5v1l-1.5-3.5-5-2,2-2.5-2-3,3.5-3.5-1-2.5,1.2-1.4Z"/>
      <path data-code="UD-SYU" d="m31.75,62.6l5.5-7.5,2.5-4,2-.5v1l6,1.5,4,2.5-4.5,6.5.5,1-3,.5v.5l-1,.5.5,1,2.5-.5.5,1-.5.5,1.5,1-.5-2h1l-.5,2.5h-1.5l.5,1.5-.5.5,3.5,2.5-1,1.5,3.5,3-.5,1.5h-.5l2,2v1l-1,.5v2.5l-1.5.5-.5,1.5h.5l-2,.5.5.5-2,1-.65,1.2-.35-.2v-1.5l-.5.5v.5l-.5,1.5h-1.5l.5-1.5-2,.5-1.5-1v1l-1.5,1.5-7.5,2,.5-1.5h.5l-1-1,.5-2-1.5,1-1.5-1.5h1l1-2-2.5-1,1-1.5-.5-2.5,1-1.5-1-.5.5-1.5-2-1,2-1-.5-1.5,2.5-3-1.5-1,2.5-3.5-1-.5,1.5-2.5-2-1"/>
      <path data-code="UD-UVI" d="m47.75,88.6l2-1-.5-.5,2-.5h-.5l.5-1.5,1.5-.5v-2.5l1-.5v-1h2.5v1.5l-.5,1,1.5-.5.5,2.5,2.5-.5,1-.5.5,1.5,3,.5,2-1,1.5-2,4.5-2.5,1-1.5,2.5,1.5-.5,1.5,1.5.5-1.5,2,1,3-.5.5,6,3.5-3,4h.5l-.5,1-1,4-3,.5,1,.5-4.5,3-1,5-1,1v.5l-3,1.5.5,5.5-1,1-4.3,3.4-1.2-1.4-4.5-1-4,1.5-2.5-2.35,1-1.5-1.5-3.5,1-2.65,3-4,.5.5v-1l2-.5-5.5-1.5,1.5-2.5-1.5-.5.5-1.5-4-2,1.5-1-1-2.5,1.5-.5-1-.5,2-1.5-.5-1h1l-3.15-1.8.65-1.2"/>
      <path data-code="UD-VAV" d="m25.25,96.6l4-.5,1.5-2.5h2l-.5-.5,7.5-2,1.5-1.5v-1l1.5,1,2-.5-.5,1.5h1.5l.5-1.5v-.5l.5-.5v1.5l3.5,2h-1l.5,1-2,1.5,1,.5-1.5.5,1,2.5-1.5,1,4,2-.5,1.5,1.5.5-1.5,2.5,5.5,1.5-2,.5v1l-.5-.5-3,4-1,2.65-2.5-.15-1-1.5.5-1.5-2.5,1,.5.5-.5,1.5-1,.5-5-2-2,1.5-1,2,.5.5-1.5,2.5-1-1-4,1.15-1.5-.5.5-1.5-1-4,1.5-.5-.5-1,1-1.65v-2l-2-.5-.5,1.65-1-1,1.5-1.5-5-3.65,2-3,1.5-3.5"/>
      <path data-code="UD-VTM" d="m99.75,109.6l4.5-3.5h1l.5-1.5,5,2,1.5,3.5-1-3.5,6,5-2,1v1l3-.5v2l-2,2.5-3-3.5,2,3-3,1.5,3,3-1,1,1,3,2.5-2,.5-1.5h1.5l1.5-1-.5-1.5,1-.5-2.5-.5v-1l-2-1,1-1.5,2.5-2,.5,1.5.5-2-1-.5,1-1,2,.5,3-2.5,1,.5,1.5-1,1-3,1,.5.5,1.5,4,1.5-1,1.5v1l-1.5,1.5.5,1.5-1.5,1.5v2.5l-1.5,1-1,2-.5-1-.5,2.5,2,3-.5,1,1,1-3.5,2.5-2.5-.5-2-2.5-2.5-.5-2,4-2,1.5-.5-.5-1,2.5-2,2.5-3.5,2.5-1-.5-1.5-1.5.5-4-3.5-2,1.5-2.5-5-.5-1.5-1.5.5-3-4-.5,1-3,6.5.5v-1.5l-2.5-2-1.5,1,.5-9"/>
      <path data-code="UD-ZAV" d="m66.75,112.6l3-1.5v-.5l1-1,1-5,4.5-3-1-.5,3-.5,2,2.15-.5.5,7.55,5.85-2.05,1-1,2h-2l2,.5-1,2.5-1,1.5,1,.5-1,1-2-.5-1.5,3.5,2,3,1-1,1.5,1-1,2,.5,1.5-1,.5v1l4-3.5,1,.5.5,1.5,1-.5.5-2h-1.5l.5-2,1.5.5v-1l1-2.5,2.5,1,1-1.5-3-.5.5-2-3-4.5h-1l-1,1-1.5-1,.5-2,2.55-1.1,5.45,4.1,3-4.85,3.4,2.8-.4,7.05,1.5-1,2.5,2v1.5l-6.5-.5-1,3,4,.5-.5,3,1.5,1.5,5,.5-1.5,2.5,3.5,2-.5,3.5-.5-3.5-2-1.5-1,1,1,.5-1.5,1v1.5l-4,2-3-1.5-.5,3-1,.5-3.5-1.5v.5l-2,1-1,2.5v1.5l-1.5,1v-1.5l-2-1v-1.5l1-1-3.5-4.5-1,1.15-.5-1.15-3-2.5,1-1-3-.5-1.5,1.5-1-.5-.5-1.5,1-1h1.5l-5-4-1.5-3.5.5-1-1.5.5-1.5-1.5-2,1,.5-1.5,1.5-1,1-1-.5-5.5"/>
</svg>