<svg id="RU-VGG" xmlns="http://www.w3.org/2000/svg" viewBox="0 0 279.5 260.65">
      <path data-code="VGG-ALE" d="m68.25,60.75l1.5,1.5v1.5l1-.5,1.5-2.5,1-.5,2,2.5,2-1v-1.5l1-.5,3,2,.5-1v-1.5l3.5-1v-4l1-1.5h1l-.5-1.5,1.5,1v-1.5l2,.15-.5-1.5h-1l1-1-1-.65,5.5.5,3-4.5,1.5,1,1.4-2,2.1,5-.5,1v1l-1,.5.5,2,2,1.5v5l2.5,1.5.5-1h3.5l-1.5,2,1.5,1.5-1,1v1l-1-.5-2.5,3.5-.5,2.5,1,3,1-.5,1,1.65v.5l-1.5,1,1,2h-2.5l-3.5,2-4-3,1-1-1.5-2-1,1-2.5-1.5-1,1,.5,1h-1l1,3.5h-2l-1,1.5-3-4-8-4-.5-3-3.5-.5-.5,2-1,1-3-1-1.5-1.5-1,2-2.5,1-3.65-6.05,6.65-5.6Z"/>
      <path data-code="VGG-BYK" d="m161.25,172.4l20.5-14,3.5-3,3-4.5,2.5-2.5,3,2.35,2,4.5,1,.5.5,2.5h1l-.5,6.5h2.5l-1,2-2-.5-2,3.5,11.5,7-3,5h-1l-13-8.5-7.5,14.5-4,5.65-3-2h-1l.5,1-2.5.5.5,2-2.5,1h-7v.5l-3.5.85-3.5-2.5.5-1.5-3-2-5.5-.5-1,.5-2.1-2.45,16.1-16.4Z"/>
      <path data-code="VGG-CHE" d="m1.25,186.4h1l.5-2,1.5-1h2l.5-.5,2,1,2-6.5-.5-.5,1-2,4.5,2,2-10.5,12-.5,1,2,2-.5.5,1h-1l1.5.5-.5.5,1.5-.5-.5,1,1-.5v2.85l1,1-1,1.5h2.5l1.5,2-1.5,3-1.5,1.5-1-2.5-1-.5-.5,2-1.5,1.5-1-.5-1,2.5,3.5,2.5-.5,2,3-2,3.5,4.5h2.5l1.5,1.5v1l-2.5,1.5,1,2h-3.5l1,6.5-10,10.65-12,5.5,2.5-6.5-2-4-1-5.5,1-3.5-2.5-2-2.5-.5v-1l.5-2-1.5,1-4.5-3.5-3,.5v-2l-3.5-1,.5-1-1.5-.5h1.5l-.5-1.5"/>
      <path data-code="VGG-DAN" d="m147.75,83.4l2,1.5,3.5-.5-1.5-2.5v-4.5l1.5-1.5,3,.5v1.5l5.5-1.5,1.5-2.5,3-2h2.5l-.5.5,3,1,1.5-1-1,1.35.5,2.5-1.5,2,1.5,3-.5,1,6,10.5,2.5,1,2-1,1.5-.35-1,7.5,1,1.5-2,1.5-.5-1-2,1,1,2-.5,1.5-3.5,1-1-3.5-4.5,3,1,2-5.5,3-.5,1.5-1,1v.5l-6,.5v1l-1.5-1-.5,3-3-3.5h1l.5-1-4.5-3-.5-2-1.5-1,3-3.5-1-1v-1h.5l-.5-1.5-4-1.5v2l-3,1.5-2-.5-1.5-1.5,1.5-2,.5.5,2.5-3-.5-.5,1-.5.5-3,1.5-2.5v-5l.5-1.5"/>
      <path data-code="VGG-DUB" d="m132.75,161.4h5.5l2.5-4,1,1,2-1.65,1,2,4-5,2,2.5,2.5-.5.5,2,3.5-.5,1.5-2,4-1,2.5,2.5,1-1.5,2.5,1.5,4-2.5v3l1,1,2.5-3.35,1.5-.5,4,4-20.5,14-18,18.35-11,4.5-2.5-2.85-1-4.5-.5-9-1,.5-1.5-2,1.5-2-.5-2.5,3-1.5v-3l1.5-.5,1.5-6.5"/>
      <path data-code="VGG-ELA" d="m154.75,46.9l6-1.5-.5-1h1l.5-2,1.5-1,5.5,1.5,3.5,2.5,1.5-1v-.5l1-.5-.5-1.5h.5l.5,1,3.5,1.5,1.5,2.5h1.5l3-2,1,1.5,2.5.5-3.5,5,1.5,1,1-2,1,1.5,2-1.5.5,1-.5.5,1,2,2.5-1.5.5-1.15,1.5,2-3,1.5-3,5-2.5-.5-.5,2-6,4-1.5-.5-.5,1-1-1-5,7.15-1.5,1-3-1,.5-.5h-2.5l-3,2-1.5,2.5-5.5,1.5v-3.5l-4.5-2-3.5,2,.5,1-3,1.5-1-2,1-1-2-3.5,6.5-2,1.5-6.5-1-1.5,1-1v-.5l1.5-3.5,1.5-1,1-1.5v-.5h3.5l-4-2-1-2.5h1l-.5-1"/>
      <path data-code="VGG-FRO" d="m121.75,119.4l1.5,1v-2l2,1-.5,1.5,3.5,1v.5l-1,.5.5,1.5-1.5-1-2.5,1.5-2-5.5"/>
      <path data-code="VGG-FROM" d="m121.75,119.4l2,5.5,2.5-1.5,1.5,1-.5-1.5,1-.5v-.5l-3.5-1,.5-1.5-2-1v2l-1.5-1m-12-7.65l1.5,1v-1l1.5-1.85,3.5,2.5,3-2.5.5,1,1.5-.5.5-1.5,3.5,2.5v-1h1.5l1-3,1.5.5,2-2,1.5.5-.5-2.5,1.5.5.5-.5,1,1.5,2-1,2.5-4.5,2,2.5,2,.5,3-1.5v-2l4,1.5.5,1.5h-.5v1l1,1-3,3.5,1.5,1,.5,2,4.5,3-.5,1h-1l1,4.35-.5,1.5-2-.5-1.5,2h-1.5l-3.5,2.15,1.5,2,.65,5.65-3.65-.65-1.5,2-1-1.5-2,4-3.5,1-1,1.5-4-2.5-.5,1.5-2,1-.5-1,1-1-1.5-1.5-2,1,.5,1-1,1.5-4-2.5-1.5,3-1-1.5-1.5,1-2.5-3.5-3,2.5v-2.5l-2.5-.5-.5-1.5-1.5-.5-.5-1.65,1.5-1,1-6.35v-5.65l1-1.5-1-3,.5-1.5"/>
      <path data-code="VGG-GOR" d="m95.75,175.9l2-.5.25-1.05,1.25,1.05,3.5-.5,4.5-3.5,1.5-3,2,1.5.5,1.5,1-1,1.5.5-1.5,2,2,1,1.5,5,1.5-1.5,3,3,1.5-2-.5-2.5h3.5l1,1.5,1.5,2,1-.5.5,9,1,4.5,2.5,2.85-5,3-1.5-2.5-1.5-.5-.5,1.5-1.5.5-.5-.5-6.5,2-1.5-3.5-2-.5-.5,1h-1l1.5.5,1,1h-1l2,1.5-1.5,2.5-1-.5-1,1-1.5-2-2.5,1-2-.5.5.5-1.5,1.5-5-2.35-2-1.5-.5-4.5-2-1,2-2.5-1.5-4,2-1-.5-9.5"/>
      <path data-code="VGG-MIK" d="m104.75,77.9h2.5l-1-2,1.5-1v-.5l1-1,1.5,1.85,2-2,2.5,2.5,1-1,.5.5,1.5-2,.5,1,1-1.5,1.5-1,1,2-.5,3.5,3.5-1.5,3,1,.5,1.5,2-1.5,1,1.5-1.5,1,2,3,2.5-1.5v-1l5,1.5-.5-2,1.5-1,.5-1.5-2-.5.75-3.3,1.75-.55,1.5-2.5,1,.5,2,3.5-1,1,1,2,3-1.5-.5-1,3.5-2,4.5,2v2l-3-.5-1.5,1.5v4.5l1.5,2.5-3.5.5-2-1.5-.5,1.5v5l-1.5,2.5-.5,3-1,.5.5.5-2.5,3-.5-.5-1.5,2-.5-1-2.5,4.5-2,1-1-1.5-.5.5-1.5-.5.5,2.5-1.5-.5-2,2-1.5-.5-1,3h-1.5v1l-3.5-2.5-.5,1.5-1.5.5-.5-1-3,2.5-3.5-2.5v-4.15l-3.5-2.5-1,.5-4.5-1,.5-2.85-1.5-3,1.5-1v-1.5l1.5-2-2-2,1.5-1-1.5-2.5.5-2-3-5,3.5-2Z"/>
      <path data-code="VGG-ILO" d="m97.75,143.4l11-5.5-.5-.5,1-.5,2.5,1v-.5l3-2.5,2.5,3.5,1.5-1,1,1.5,1.5-3,4,2.5,1-1.5-.5-1,2-1,1.5,1.5-1,1,.5,1,2-1,.5-1.5,4,2.5-1,1.85,2.5,1-1.5,2v2l2,3,1,.5,4-3,2.5,2-1,1.5,3,3-.5,1.5-2.5,3-2,1.65-1-1-2.5,4h-5.5l-1.5,6.5-1.5.5v3l-3,1.5.5,2.5-1.5,2-1-1.5h-3.5l.5,2.5-1.5,2-3-3-1.5,1.5-1.5-5-2-1,1.5-2-1.5-.5-1,1-.5-1.5-2-1.5-1.5,3-4.5,3.5-3.5.5-3.5-3,.5-2,1.5,1,.5-1.5-4-4.5,3.5-3.5-2-3-.5-4.5-2.3-2.75,4.8-8.25"/>
      <path data-code="VGG-KAL" d="m59.75,195.25l11-5-4.5-7,2.5-1-1-1,2,.5.5-1-1.5-3.5.5-2,3.5-2.5,1-2,1,1,3.5-2,1.5-1.5v-3l2.5-1.5-1.05-2.75,3.05-.1,4,2v-4.5l2-1,1-2-.5-3,1.5.5.7-1.25,2.3,2.75.5,4.5,2,3-3.5,3.5,4,4.5-.5,1.5-1.5-1-.5,2,2.25,1.95-.25,1.05-2,.5.5,9.5-2,1,1.5,4-2,2.5,2,1,.5,4.5,2,1.5-.5,1.5.5,1h-.5v1.85l2.5,1.5h-.5l-1-.5-2,1.15-.5,2.85-4.5-.5-2.5,1-.5-2-4,2-1.5,3-9.5,6.5-4-4.5-1.5-.5.5-4-1.5-1.5-2.5,2-3,1.5.5-1-4-6,.5-1.5-1.5-1.5.5-.5v-2h-.5l-2-3.5,4.5-1Z"/>
      <path data-code="VGG-KAM" d="m194.75,139.4l.5-2,1.5,1-.5-2.5,1,2.5,2.5-.5,2,3-8.5,5-1-2.5,1-1-1.5-.5,1.5-2h-.5l1-.5-1-.5,2,.5Z"/>
      <path data-code="VGG-KAMM" d="m177.75,126.9l1-1,1,2.5,2.5-1v2l4-.5,1,1.5,1-1,2,.5,4.5-2,1-3.5,2.5-3.5v-.5l1.5.5.5-3h-2v-1.5l-3.5-.5v-1.5l1.5-.5v-.5l2.5-3.5,2,1,3-1.5,1-3.65,1-1,9,5.15,1.5-1,2.5,2-.5,4.5h1l1-2h1l3.5,3.5h2.5v12.85l-4.5,6-5.5-1-15.5,6.15-2-3-2.5.5-1-2.5.5,2.5-1.5-1-.5,2-2-.5,1,.5-1,.5h.5l-1.5,2,1.5.5-1,1,1,2.5-5,5-3,4.5-3.5,3-4-4,1.5-2.65-5.5-5.5-2.5-5.5,1.5-.5,1-3,.5-3-1-.5.5-1-.5-.5,2.1-4.9,2.4-.45Z"/>
      <path data-code="VGG-KIK" d="m132.75,48.75l2-2-.5-.5,1-.5-1-1,1-.5-1-1.5.5-.5-.2-.55,3.2-.45.5-2-.5-1,2.5,1v-1l1,.5,1-2,2,1,.5-1.5,3,2.5,2-1,1,1v-1l6-5.5-1.5-2,1-1.35,1.5,3,2,10.5,2,.5-.5,1.5h-1l.5,1-6,1.5.5,1h-1l1,2.5,4,2h-3.5v.5l-1,1.5-1.5,1-1.5,3.5v.5l-1,1,1,1.5-1.5,6.5-6.5,2-1-.5-1.5,2.5-1.75.55.25-1.2-2.5-1v-2.5l-5-1-3.5-2.5,1.5-2-1.5-1,.5-1-.5-.5,3.5-5.5-2-1,.5-3-1.5-1.5,1-1.5,2.5,1Z"/>
      <path data-code="VGG-KLE" d="m51.25,135.4l2-.15,4.5-7.5,3,2,4-3.5-.5-1,2.5.5v-1.5l1,1,4,.5,4.5,3,1.5-2.5,4-2.5,1.5-2.5.5,4,5.5,3.5-1.5,1.5,2,1.5-1,2,1,1.5-.5,2,5-.5,3,1,5-5.5,3,1,2-.85,1.5.5.5,1.5,2.5.5v3l-2.5-1-1,.5.5.5-11,5.5-5.5,9.5-1.5-.5.5,3-1,2-2,1v4.5l-4-2-10,.35,1-2-1.5-1.5-6,2.5-5.5-1.5,1.5-1.5,1.5-3-1.5-2.85-3.5,2-3-2,1.5-2-.5-1.5-2.5-3-.5-4-4-1.5v-4"/>
      <path data-code="VGG-KOTE" d="m17.75,219.4l12-5.5,4.3-4.6,1.7,2.45h3.5l2.5,2.5,1-.5v1.5h1l-1,.5h1v2.5h1l-1,.5,1,1,.5-.5,3,1.5-1,3.5-3,3.5,6,3.5.5-.5,6.5,5.5-6,6,1,1-10,10.65-1.5,6-.5-1-1,1.5-1.5-.5-1-4-7-3.5-4-.5-3.5-2.5-2-2.5,1.5-2,.5-1.5,1.5-.5.5-.5-4.5-3-3.5,1.5-2.5-1.5,2.5-8.5-.5-1.5,1-1.5v-3.5l1-5"/>
      <path data-code="VGG-KOTO" d="m166.25,111.9l5.5-3-1-2,4.5-3,1,3.5,3.5-1,.5-1.5-1-2,2-1,.5,1,2-1.5-1-1.5,1-7.5-1.5.35.5-2.5,3-1,1-1.5,3,1.5.5,3.5,3-.5-1,2.5,2.5,1.5-1,1,2.5,1,.5,2,1.5-2,.5,1.5-1,1.5,1.5.5,1.5-1,4,5-1,3.65-3,1.5-2-1-2.5,3.5v.5l-1.5.5v1.5l3.5.5v1.5h2l-.5,3-1.5-.5v.5l-2.5,3.5-1,3.5-4.5,2-2-.5-1,1-1-1.5-4,.5v-2l-2.5,1-1-2.5-1,1-2.4.5.4-4.5-2,.5-3,2-3-2.5-1.5-3.5.5-1.5-2-3v-.5l1-1,.5-1.5"/>
      <path data-code="VGG-KUM" d="m66.25,72.4l1.5-1,1-2,1.5,1.5,3,1,1-1,.5-2,3.5.5.5,3,8,4,3,4,1-1.5h2l-1-3.5h1l-.5-1,1-1,2.5,1.5,1-1,1.5,2-1,1,4,3,3,5-.5,2,1.5,2.5-1.5,1,2,2-1.5,2v1.5l-1.5,1,1.5,3-.5,2.85-2.5.5v.5l-1,.5-4-1-1,1v-1l-2,1.5-.5-.5-2.5,1-2-1-4,.5-1,1.5v3l-2,1.5v-2.5l-1.5.5-4-2.5v-.5l1-.5-2.5-1.5-1-3h.5v-1.5l-2,.5-.5,2-7-2.85v-.5l5-3.5.5-2.5-1.5-11.5-1.5-2.5.5-4-1-2"/>
      <path data-code="VGG-LEN" d="m125.75,223.75l-.5-1,5,1.5-.5-4.5.5-1.5,1.5-.5-1-3,4-2,.5-1,2.5,1,1-.5.5-2-1.5-2.5h1l1.5-3,8.5,5.5,2-3,5,3,2.5-4.5,1.5-8.5,3.5-.85v-.5h7l2.5-1-.5-2,2.5-.5-.5-1h1l3,2-5.5,7.5h1l-5.5,9.85-3,2.5-12.5,19.5.5.65-4.5,1-1-1.5-1.5.5-2-2.5-1,1-1-1-2,1-1.5-1.5.5-1-4-1-1,1,.5.5-.5,1,1.5.5,1.5,2.5-1,2,1,.5.5-2,3,2-4,1-1,1-2-5-2-.5,2-2-1.5-1-1.5,2.5-1.5-1.5-5,.35-2-1,3.5-4,1,.5-.5-1,1-.5-1-2h-.5v3l-3-.5,1-1,2-1Z"/>
      <path data-code="VGG-NEK" d="m62.75,44.25h1.5l8.5-4.5,1-4,.5-6.5,5-2,2,.5.5-2.5-2.5-1.5.5-3,2.5.5,2.5-.5v-.5l.5.5-1.5,3,2,2-.5,1,1-.5,1,1-1,1.5,3,2.5,2.5-1,3.5,2.5-2,2,1.5,2.5-2.5,1.5v2.5l-2,3.5-2-.5.5,3.5,1,.65-1,1h1l.5,1.5-2-.15v1.5l-1.5-1,.5,1.5h-1l-1,1.5v4l-3.5,1v1.5l-.5,1-3-2-1,.5v1.5l-2,1-2-2.5-1,.5-1.5,2.5-1,.5v-1.5l-1.5-1.5-7,6-1-1.5v-2.5l3-2.5-2.5-5,2-11"/>
      <path data-code="VGG-NIK" d="m201.75,140.9l15.5-6.15,5.5,1-1,4,12,5.5,1,5.5,1,.5v2l-2,2,2.5,3.5-.5.5,1.35.45-1.35,3.05.5,1.5-1,1.5v1l-1,1.5-8-4.5-1.5,2.5,1,1-1,2-4-2.5-6.5,11-2.5-1.5-.5,1-3.5-2-1,1.5-11.5-7,2-3.5,2,.5,1-2h-2.5l.5-6.5h-1l-.5-2.5-1-.5-2-4.5-3-2.35,2.5-2.5,8.5-5Z"/>
      <path data-code="VGG-NVA" d="m104.25,36.25l.5,1,1.5-2,2,1-1.5,3,4.5,4.5,1-3v-2l1.5-2,1,1.5,3,1,5-3.5,2,2,1-.5,1,2.5h-1.5l.5,2,2.5-.5,1.5-1.5-.5-.5,1-.5-1.5-1,1-1.5,5,1.5-.5,1,.5.5.5,1-1,.5.5,1.5-.5.5,1,1.5-1,.5,1,1-1,.5.5.5-2,2-2.5-1-1,1.5,1.5,1.5-.5,3,2,1-3.5,5.5.5.5-.5,1,1.5,1-1.5,2,3.5,2.5,5,1v2.5l2.5,1-1,4.5,2,.5-.5,1.5-1.5,1,.5,2-5-1.5v1l-2.5,1.5-2-3,1.5-1-1-1.5-2,1.5-.5-1.5-3-1-3.5,1.5.5-3.5-1-2-1.5,1-1,1.5-.5-1-1.5,2-.5-.5-1,1-2.5-2.5-2,2-1.5-1.85-1,1-1-1.65-1,.5-1-3,.5-2.5,2.5-3.5,1,.5v-1l1-1-1.5-1.5,1.5-2h-3.5l-.5,1-2.5-1.5v-5l-2-1.5-.5-2,1-.5v-1l.5-1-2.1-5,4.1-6.5"/>
      <path data-code="VGG-NVN" d="m116.25,21.75l1.5,1,.5-1h.5l1.5-2.5,1,.5,2-3-1-1.5-1.5.5v-1.5l3-.5v-.5h-1v-1l2,1,.5-2,2.5.5v-1l6,2v1l5.5,3,4.5-2.5,3-.5,1,1.5,4,2,4.5,12-1,1,1.5,2-6,5.5v1l-1-1-2,1-3-2.5-.5,1.5-2-1-1,2-1-.5v1l-2.5-1,.5,1-.5,2-3.2.45-.3-.95,1-.5-.5-.5v-.5l-.5-.5.5-1-5-1.5-1,1.5,1.5,1-1,.5.5.5-1.5,1.5-2.5.5-.5-2h1.5l-1-2.5-1,.5-2-2-5,3.5-3-1v-3l3.5.5.5-2-3-1,1-3.5h2l-1-.5h1l-.5-1,.5-1-3.5-3,1-2"/>
      <path data-code="VGG-OKT" d="m39.75,203.25l15.5-7,2,3.5h.5v2l-.5.5,1.5,1.5-.5,1.5,4,6-.5,1,3-1.5,2.5-2,1.5,1.5-.5,4,1.5.5,4,4.5-1,.5,1,3.5,1.5.5-1.5,2.5-2-.5-1.5,1.5,3.5,2.5h6.5l.5-1,7.5,4.5-4,6.5,3.5,2-2.5,4.5-3,2-1,2-3,1.5-5.5-6h-1l.5-.5-2-2.5-5,2v1l-5.5,2.5-2.5-2-7-1,2-2-1-1,6-6-6.5-5.5-.5.5-6-3.5,3-3.5,1-3.5-3-1.5-1,1,.5-.5-1-1,1-.5h-1v-2.5h-1l1-.5h-1v-1.5l-1,.5-2.5-2.5h-3.5l-1.7-2.45,5.7-6.05Z"/>
      <path data-code="VGG-OLH" d="m136.25,136.9l3.5-1,2-4,1,1.5,1.5-2,3.65.65-.65-5.65-1.5-2,3.5-2.15h1.5l1.5-2,2,.5.5-1.5-1-4.35,3,3.5.5-3,1.5,1v-1l6-.5,2,3-.5,1.5,1.5,3.5,3,2.5,3-2,2-.5-.4,4.5-2.1,4.9.5.5-.5,1,1,.5-.5,3-1,3-1.5.5,2.5,5.5,5.5,5.5-1.5,2.65-1.5.5-2.5,3.35-1-1v-3l-4,2.5-2.5-1.5-1,1.5-2.5-2.5-4,1-1.5,2-3.5.5-.5-2-2.5.5-2-2.5-4,5-1-2,2.5-3,.5-1.5-3-3,1-1.5-2.5-2-4,3-1-.5-2-3v-2l1.5-2-2.5-1,1-1.85,1-1.55Z"/>
      <path data-code="VGG-PAL" d="m152.75,232.75l12.5-19.5,3-2.5,5.5-9.85h-1l9.5-13.15,7.5-14.5,13,8.5h1l4-6.5,3.5,2,.5-1,2.5,1.5,6.5-11,4,2.5,1-2-1-1,1.5-2.5,8,4.5,1-1.5v-1l1-1.5-.5-1.5,1.35-3.05-1.35-.45,2-1h.5l.5-1,3,.5,4.5-7,6,5-1.5,2.5,2,1.5-3,4,3,2,1-1.5,5,3.5,1.5-3,6,2.5-1,1.5.5,2,6-4-1,2.5v2l-4,1.5.5,3.5-.5,4.5-12,6-12.5-1.5-9,12.5-4,4-9.5,13,4,10.5-.5,5.5-3.5,4.5-4,2.5-4.5,1-5-.5-15.5,13-2.5-10.5-2.5-6.5,1-.5-8.5-8h-3.5l-6.5,5-11.5,3h-3.5l-.5-1"/>
      <path data-code="VGG-RUD" d="m171.75,73.75l6-8.5,1,1,.5-1,1.5.5,6-4,.5-2,2.5.5,1-2.5,2.5,2,1.5-1,2,1,1-1.5,3,2v2l-1,.5.5.5-1,1.5v2l-2,3,1,1.5-1,.5v1.5l4-1-2,6.5,1,1.5-2.5,1.5-1,1.5v.5l-1,1,.5,1.5-1,2,.5.5-2.5,1.5-3-2-1.5.5-2-1-1,1.5-3,1-.5,2.5-2,1-2.5-1-6-10.5.5-1-1.5-3,1.5-2-.5-2.5"/>
      <path data-code="VGG-SER" d="m42.75,123.25l5-2-1-2.5,3-2.5v1l1.5-.5-.5-1.5,2-1-1.5-.5,1.5-1.5-1.5-1.5,5.5-6.5,1.5-.5,1-1.5h1l3.5-4,7.5,3.5.5-2,2-.5v1.5h-.5l1,3,2.5,1.5-1,.5v.5l4,2.5,1.5-.5v2.5l2-1.5v-3l1-1.5,4-.5,2,1,2.5-1,.5.5,2-1.5v1l1-1,4,1,1-.5v-.5l2.5-.5,4.5,1,1-.5,3.5,2.5v5l-1.5,1v1l-1.5-1-.5,1.5,1,3-1,1.5v5.5l-1,6.5-1.5,1,.5,1.65-2,.85-3-1-5,5.5-3-1-5,.5.5-2-1-1.5,1-2-2-1.5,1.5-1.5-5.5-3.5-.5-4-1.5,2.5-4,2.5-1.5,2.5-4.5-3-4-.5-1-1v1.5l-2.5-.5.5,1-4,3.5-3-2-3,5h-1l.5-3-6-2-5.5-4.5"/>
      <path data-code="VGG-SRE" d="m112.25,209.25l4.5-5,8.05-3.8-.55.8-1.5.5-1.5,2h3.5l3,5.5,3-2.5h1.5v-2l1-1-.5-1h-2.5l.5-1.5h-1l5-2.5-2.5-3.5,11-4.5,1.9-1.95,2.1,2.45,1-.5,5.5.5,3,2-.5,1.5,3.5,2.5-1.5,8.5-2.5,4.5-5-3-2,3-8.5-5.5-1.5,3h-1l1.5,2.5-.5,2-1,.5-2.5-1-.5,1-4,2,1,3-1.5.5-.5,1.5.5,4.5-5-1.5.5-1.5-2,.5-2.5-2-.5,1.5v1l-4.5-4-1.6.8-1.4-3.3.5-1.5,1.5-.5.5-1.5-3.5-3"/>
      <path data-code="VGG-STA" d="m227.75,111.25l3.5-3.5,2-.5,5,3.5,1,6,1.5,1-1,1,2,1.5-1.5,2.5-1.5.5-3,4.5,8,4.5,1.5-3,6.5,6,.5-.5-1.5-.5.5-1,2-2.5,1.5-.5-.5,1,1.5.5.5-1.5.5.5-.5,2h.5l3-4.5,1-1,.5,2.5,3,1,1.5-.5-1,3.5.5,1.5,3,2-4.5,2.5,2.5,1.5-2,3.5,1.5,1-1,1.5,4.5,3,.5-1.5,6,3.5-3,5,1.5.5-2.5,3.5,7.5,3.5-2.5,2-2.5-1-3,1-1.5,1.5-4,2.5-.5-2,1-1.5-6-2.5-1.5,3-5-3.5-1,1.5-3-2,3-4-2-1.5,1.5-2.5-6-5-4.5,7-3-.5-.5,1h-.5l-2,1,.5-.5-2.5-3.5,2-2v-2l-1-.5-1-5.5-12-5.5,1-4,4.5-6v-12.85l-1.5.35,2-6"/>
      <path data-code="VGG-SUR" d="m35.25,169.75l5,1,1-.5.5,1,3-1.5,1.5,1,1-1.5,1.5-6,1.5-1.5,4.5-1,2-3-.5-4.5,1-1.85,3,2,3.5-2,1.5,2.85-1.5,3-1.5,1.5,5.5,1.5,6-2.5,1.5,1.5-1,2,6.95-.25,1.05,2.75-2.5,1.5v3l-1.5,1.5-3.5,2-1-1-.5,1-.5,1-3.5,2.5-.5,2,1.5,3.5-.5,1-2-.5,1,1-2.5,1,4.5,7-11,5-4.5,1-15.5,7-1-6.5h3.5l-1-2,2.5-1.5v-1l-1.5-1.5h-2.5l-3.5-4.5-3,2,.5-2-3.5-2.5,1-2.5,1,.5,1.5-1.5.5-2,1,.5,1,2.5,1.5-1.5,1.5-3-1.5-2h-2.5l1-1.5-1-1v-2.5"/>
      <path data-code="VGG-SVE" d="m72.75,219.75l10.5-7,1.5-3,4-2,.5,2,2.5-1,4.5.5,3,3.5,2.5-4.5h1l1-2.5h2l-1.5,1,1.5.5-.5,3-1.5-1.5,1,3h-.5l2,6.5h2l-2,1-1.5,1-.5.5-1.5-3-.5.5.5.5,1.5,2h.5v-.5l1.5-1,2.5-1,1.5,3.5h-2.5l-.5,1-3-2h-2l-.5-1.5h.5l-.5-.5v.5l.5,1.5h1.5v.5h1l2.5,1.5.5-1,3,.5.5-.5.5,1,.5-.5,1-2.5,3-1.5,4.5,4v-1l.5-1.5,2.5,2,2-.5-.5,1.5.5,1-2,1-1,1,3,.5v-3h.5l1,2-1,.5.5,1-1-.5-3.5,4,2,1,2-.5.5,1-2,1-1.5-1-2,4.5-1.5-1-2.5,4-5.5,2.5.5,2-2,1.5-1.5,3-6.5,1.5-4-5-1,1.5-5-2.5,5.5-8-3.5-3.5,1-1.5-2-1.5.5-1-2.5-.5-3,5.5-7.5-4.5-.5,1h-6.5l-3.5-2.5,1.5-1.5,2,.5,1.5-2.5-1.5-.5-1-3.5"/>
      <path data-code="VGG-URY" d="m102.75,24.75l1.5.5,1.5-2,3.5,2.5-1,1v1l-1,.5-.5-1.5-2.5.5-1.5-2.5"/>
      <path data-code="VGG-URYM" d="m102.75,24.75l1.5,2.5,2.5-.5.5,1.5,1-.5v-1l1-1-3.5-2.5-1.5,2-1.5-.5m-26-17l10,1,.5,1,3.5-4.5,3-1,1.5,1.5,4.5-.5,6.5,1.5v-.5l1.5-.5,2-2,5-3.5h4l3,6,6,4.5v1l-2.5-.5-.5,2-2-1v1h1v.5l-3,.5v1.5l1.5-.5,1,1.5-2,3-1-.5-1.5,2.5h-.5l-.5,1-1.5-1-1,2,3.5,3-.5,1,.5,1h-1l1,.5h-2l-1,3.5,3,1-.5,2-3.5-.5v3l-1-1.5-1.5,2v2l-1,3-4.5-4.5,1.5-3-2-1-1.5,2-.5-1-4.1,6.5-1.4,2-1.5-1-3,4.5-5.5-.5-.5-3.5,2,.5,2-3.5v-2.5l2.5-1.5-1.5-2.5,2-2-3.5-2.5-2.5,1-3-2.5,1-1.5-1-1-1,.5.5-1-2-2,1.5-3-.5-.5v.5l-2.5.5-2.5-.5.5-5.5-1-3.5-2.5-4"/>
      <path data-code="VGG-VGG" d="m101.75,219.25v-.5l.5.5h-.5Zm3,1.5h-.5l-1.5-2-.5-.5.5-.5,1.5,3,.5-.5v.5Zm3.5-2.5h-2l-2-6.5h.5l-1-3,1.5,1.5.5-3-1.5-.5,1.5-1h-2l-1,2.5h-1l-2.5,4.5-3-3.5.5-3,2-1,1,.5h.5l-2.5-1.5v-1.85h.5l-.5-1,.5-1.5,5,2.35,1.5-1.5-.5-.5,2,.5,2.5-1,1.5,2,1-1,1,.5,1.5-2.5-2-1.5h1l-1-1-1.5-.5h1l.5-1,2,.5,1.5,3.5,6.5-2,.5.5,1.5-.5.5-1.5,1.5.5,1.1,1.8-2.05,2.9-8.05,3.8-4.5,5,3.5,3-.5,1.5-1.5.5-.5,1.5,1.4,3.3-1.4.7-1,2.5-.5.5-.5-1-.5.5-3-.5v.5l-.5.5-2.5-1.5h-1v-.5h.5l3,2,.5-1h2.5l-1.5-3.5-2.5,1,2-1Z"/>
      <path data-code="VGG-VOL" d="m121.25,203.75l1.5-2,1.5-.5,2.6-3.7.4.7,5-3,2.5,3.5-5,2.5h1l-.5,1.5h2.5l.5,1-1,1v2h-1.5l-3,2.5-3-5.5h-3.5"/>
      <path data-code="VGG-ZHI" d="m194.25,51.75l2.5-2.5,3,4h2l1,1h1.5l.5-1,1,.5.5,1.5-.5,5.5.5,1h1.5l1-2.5h1.5l4,4.5,3.5.5.5,1-1.5,2.5,1,2,1-1,1,1,1.5-1.5,1,2,.5,1.5-1,2.5,3.5,5-1.5,1-1,2.5-1,.5,1,3-1.5-.5.5,1.5,1.5,1.5-1,3.5-2.5,3-2,2-2.5,2.5h-3v-1.5l-.5.5v.5l1.5,1-2.5,1.5.5.5-3.5,4-2-1.5-1,1-4-5-1.5,1h-1l-.5-.5,1-1.5-.5-1.5-1.5,2-.5-2-2.5-1,1-1-2-.5-.5-1,1-2.5-3,.5-.5-3.5-1-.5,1.5-.5,3,2,2.5-1.5-.5-.5,1-2-.5-1.5,1-1v-.5l1-1.5,2.5-1.5-1-1.5,2-6.5-4,1v-1.5l1-.5-1-1.5,2-3v-2l1-1.5-.5-.5,1-.5v-2l-3-2-1,1.5-2-1-1.5,1-2.5-2,2-2.5,3-1.5-1.5-2"/>
</svg>