<svg id="RU-VOR" xmlns="http://www.w3.org/2000/svg" viewBox="0 0 186 191.65">
      <path data-code="VOR-ANN" d="m91.75,75.25l.5-1,2-2-.5-.5,1-1,1.5,1,2.5-3.5,1.5,1.5,3.5-.5,1-1,3,2,.5-.5v-1l.5-.5,2,1,.5-1h5l5.5,5.15-1,.5,3,1-1,1-.5,2.5.5,1h1.5v2l2,3,7,4-1,1-.5,3.5h-.5l-1.5,1.5,1.5,1-7,3-.5,2-2,1.35-1-3.5-4.5-2-.5,1,.5.5-2.5,2.5-1.5-2v-3.85l1.5-2.5-.5-2h-1l.5-1-4.5-1-3.5-4.5-.5,1-2,2h-2l-2.5,1.5,1,1-4.5-1.5-2.5-6-2.85-3.8,2.85-2.35Z"/>
      <path data-code="VOR-BOB" d="m70.75,77.4l4-2-.5-1,2.5,1,4.5-3,.5.5,3.5-3,2,.5v5l4.5,6,2.5,6,4.5,1.5-1,2.25-1.5.6h-1v3.15l-2,.85.5,1-2.5,1.5v3l1.5,1.5-3.05,2.5-.95-.9-6.5,2-1.5-1.5-1.5.5.5,1.5-2,1.5-3.5-4-1,1.5-1.5,1,1,4h-1l-2,2-6-2.5v1h-.5l-1-5.5,5-2.5-.5-5.5h.5l-1-2h3l1-4,1.5-1v-1.5h-1.5v-1l-1-3h1l.5-1.5,2-1-2-2,1.5-1-1.5-2.45"/>
      <path data-code="VOR-BOG" d="m39.25,158.9l3-1.65,3.5.5,6.5,3,5-1,3.6.75.9,1.75,1.5-.5.5,1.5-2.5,2-1.5,4,.5,3.5-1,.5h3v1l-1.5-.5-.5,2,2,3.5-1.5,3.5,1,1-1,2v1.65l2,1-1.5-.5-6.5,3.5-4.5-3-2,2-4.5-4-2,1.5.5,1-1.5-1-4.5,2-5-4.5-1-3.5,5-2.5,1-3.5-.5-1.5,1.5-.5-2-4.5,1.5-1.5,1.5-3-.5-1.5,1.5-4.5"/>
      <path data-code="VOR-BOR" d="m149.75,118.9l4.5,1.5v-.5l1-.5,1.5.5,1.5-2,1.5,1,1.5-2,1.5-1-.5-.5,1-2.5,2-.5,2,1,1.5-1,4.5,3,2-1v-2h4.5l2,.5-1,3,1,1.5-.5,3,4.5,6.5-1,4.5-2-1.15-1,2.5-2.5.5-2-3-2,3-2.5-2-1.5,1.5-3.5-1.5-1,1.5-2.5-1-2.5,3-.5-1.5-1,.5-1.5-1,1-1.5-1.5-.5,1-2-.5-2,.5-1-2.5-1.5v2l-.5,1.5h-1v-1.35l-1,.85-4.5-3.35v-1.5h.5v-1.5h-1l-.5-1.65,1-.35Z"/>
      <path data-code="VOR-BUT" d="m72.75,104.4h1.5l3.5,4,2-1.5-.5-1.5,1.5-.5,1.5,1.5,6.5-2,2,1.85.5,4.5,3-1,1,3.5,2,2.5,1.5-.5,1,1.5,1.5-.5v-1l2,1h2.5l1.5,2.5-.5,4.5-1.5,1.5-.5,3-1.5,1,1.85.25-.85,1.75-1.5,1-3.5-2,.5-1.5-3-2-3,2-4.5,1-.5,1.5-2,.5-1.5-2-2.5,1-2-1.5,1,1.5-3.5,2.5-4.5-2.5,1.5.5-2.5-7.5.5-1.5,1-.5-.5-1,1-.5-1-.5-1-3.5,1-2.5,1.5-1.35-2.5-1-1-4,1.5-1-.5-1.5"/>
      <path data-code="VOR-ERT" d="m119.25,53.75l3-2,2-4,.5,1.15,2.5.5.5,2.5h2l6,5.5.5,4,.5-1h1.5l2,4-1,2-2,1v1l-5,3.5,3.5,1.5.5,2-.5.5h2.5l-2,4,2.5,1.5-3.5,3-2-2-2.85,4.35-4.15-2.35-2-3v-2h-1.5l-.5-1,.5-2.5,1-1-3-1,1-.5-5.5-5.15v-1h1.5l1-1.5h1.5l-1.5-2.5-2-.5.5-1h1v-2l1-.5-2-1,1.5-1.5-.5-1,1.5-1.5-.5-.5"/>
      <path data-code="VOR-GRI" d="m132.25,89.4l1-1h2.5l2-1.5,2,.5,1,1.5-1.5,2.5-1-.5-1,1,1,2,4,4.35,1.5.5,1-.5.5,1.5h-1l3.5,3h1.5l2-3.5,1,.5,1,6.65,1.5-1,1,1,4.5-1v-2l3.5-.5,1.5-2.5,1.5,1,1-.5,1,1.5-.5,2.5,2,1,1-4.5h1v-1.5l1-.5,1,2.5.5.5.5-1,1,1,.5,3,1,.5-.5,1-1.5-.5-.5,2-2,1.5h2l.5,3.5-.5,1-2,1-4.5-3-1.5,1-2-1-2,.5-1,2.5.5.5-1.5,1-1.5,2-1.5-1-1.5,2-1.5-.5-1,.5v.5l-4.5-1.5-4.5,1.5-2.5-2.5-1.5.5-2-1-1.5-2.5-1.5-1,1.5-2-1.5-1.5,1-.5-1.5-3-3.5-1-3-3.5,1-4.5,1-2.5-1.5-1,1.5-1.5h.5l.5-3.5"/>
      <path data-code="VOR-KAL" d="m72.75,137.75v-2l3,.5.5,1,6.5-3,2,4-.5,4,3.5,3,6,.5,3,4,2.5-1,3,1,1.5-1,1,1,1.5-1,1.5-.5v2.15l2.5,1.5-1,2.5-2-.5-5,2.5v6l-1.5,4-8,4.5-2,.5-.5,1.5-1-1.5-3,1v-.5l.4-.4-.9-2.25.5-4.5-2-1.5-4,1,.5-3-2.5-1-1-2.5v-5.5l-1-.5-.5,1-3.5-1.5-3,2.65-.5-.5-2.2,2.3-.3-2.4,5-7.5-4-2.5,1.5-1,.5-3.9,3.5-.65Z"/>
      <path data-code="VOR-KAM" d="m27.25,94.9l2.5,2.35,5-1v-2.5l2-.5.5-1,4-2-.5-1.5,2.5,2,1.55-1.55,6.5,4.65-.5,1,2-.5,1.5,2.5,1-.5,3.5,6.5-2,.5-.5,1-3.5-1.5-1,1.5h-2.5l-.5,1.5-1.5-.5-2.5,1.5-1-2-1.5.5-1,2.5-4.5-1.5-6.2-.2-1.85-2.9-1,1.5-1.2-2.4-1.8-.45v-1l2.5-2.5v-1l.5-1-.5-1.5"/>
      <path data-code="VOR-KAN" d="m6.25,143.75l1,3,2-1,2,3.5,2.5-1.5,5.5.5-2.5-5,1-.5-.5-1,1.5-1,1,1.5,2.5.5-1,1.5,3,1.5,1.5-1.5,2.5,1.5-1.5,1.5,1.5,1.5-3,4,4,2.5-1,1,1.5,2h1.5l1.5-2,2.5,1v1.5l2.5.5.8,1.8-.8,2.35.5,1.5-1.5,3-1.5,1.5,2,4.5-1.5.5.5,1.5-1,3.5-5,2.5-4-4.5-1.5,1-3.5-1-4-2.5-1.5,1h-2l-3-2-.5-3.5-2.5-3.5,2-7.5h1l-4.5-5.5-3-.5-2.5-3-.5-2,.5-2.5,1.5-1.65v-2.5l4,2Z"/>
      <path data-code="VOR-KAS" d="m58.25,52.9l5-1.5,1.5.5,2.7-3,1.8.85-.5,1.5,3.5,1.5,1.5,3,4,3,4.5,1.5-.5.15.5,1.5,3,2,1.5,3-1.5,3-3.5,3-.5-.5-4.5,3-2.5-1,.5,1-3,1.5-.5-1.5h.5l.5-5-2.5.5-.5-2.5-2.5-2-2-.5.5-1.5h-2.5l-1.5-1.5-3.5-1.15,3.5-1.5,1,.5v-.5l2-2-1-.5-.5.5-.5-1-.5,1-1-.5.5-.5-1.45-.85-1.55-3.5"/>
      <path data-code="VOR-KHO" d="m51.75,34.75l.5-2.5,2-4,5-1.5,2.5,2.5-1.5,1.5-.5,2,.5,3h1l-.7,1.4-.8.2.5.5,1-1.65h2l.5-1.35,1.5.85-1,1,1.5,1.5-.5.65v3.35l2,1-2.5,1,1.5,1,1.2,3.65-2.7,3-1.5-.5-5,1.5,2,4.5-1,.5-.5,2.85-3.5,2.5-2-1.85-1.5.5-3-3.65-1.05-.25,1.55-2.25-1.5-1-.5-2.5-4-2.5-1-8.35,3.5-1-1-1,2.5-3.5.5-3.15,4,2.05Z"/>
      <path data-code="VOR-LIS" d="m47.25,72.25l1-.5.5.5.5-.5.5.5,1.5-1.5,1,2,2-6.5,1,.5,1.5-1-.5-1,.5-.5,3-1.85,1.5.5,1.5,1.5h2.5l-.5,1.5,2,.5,2.5,2,.5,2.5,2.5-.5-.5,5h-.5l.5,1.5-1,.5,1.5,2.5-1.5,1,2,2-2,1-.5,1.5h-1l1,3v1h1.5v1.5l-1.5,1-1,4h-3l1,2h-.5l.5,5.5-5,2.5-5.5-2.5,2-.5-3.5-6.5-1,.5-1.5-2.5-2,.5.5-1-6.5-4.65.45-.45-.5-.5,2-3.35,1.5.5,1-1-1.5-1.5.5-2.15h1.5v-1l.5.5.5-1.5-.5-.5,2-2.5-1.5-2-3-.5-.45-1.05"/>
      <path data-code="VOR-NIZ" d="m38.25,15.75l2-1.5,2,2.5,1.5-2.5,4.5,4.5,2,1,2-1v2l2,1v3l-.5.5,5.5,1.5-5,1.5-2,4-.5,2.5-4-2-.5,3.15-2.5,3.5,1,1-3.5,1,.5,4.35-1.5-1.5h-3v3l-3,1-1,1-2.5-2h.5l.5-3.5,1-1-1-1-3.5.5.5-3-.5-.5,2.5,1,1-1-.5-1,1-1.5,1.5,1,1-1.5-2.5-1v-1.5l1.5-.5v-2h1.5l.5-1.5,1-.5-.5-1.5,1.5-1-.5-10.5"/>
      <path data-code="VOR-NVH" d="m109.75,116.75l.5.5-.5-1,2-2.5,2-1.5,3,.5,2-2-.5-.5h2v-1.5l.5-1,2.5,1.5,1.5-2h-1l1-1.5-2.5-2.5,1-.5.5-2.35.5-2,7-3-2,7,3,3.5,3.5,1,1.5,3-1,.5,1.5,1.5-1.5,2,1.5,1,1.5,2.5,2,1,1.5-.5,1.5,1.5,1,3.35-1,1-.5,3.5-4,1.5-4,4-1.5.5v.5l-13.5-2.5-3.5,2-2,3.5-.5-1-6.5-1,1-2.5-3-2,.5-1-3.5-.5,1.5-1,.5-3,1.5-1.5.5-4.5,2.5-2Z"/>
      <path data-code="VOR-NVU" d="m69.75,47.75l1.5,1,1-2.5h1.5l.5,1,1-2h-.5l.5-1.5,1-1.5.5.5,1-3,1,1,.5-1,2,1v-1l3.5,1v-2.5l1,.5,1-1-3-2.5,3-2,2,1,2.7,4-1.2.5.5.5-1.5.5v1l1,.5,1-.5,3.5,2h1.5v-1l1.5.5v3.5l-1-1-3.5,2.5.5,5h1l.5-1.5,1.5-1,2.5,1-1,3-.5-.5-.5,3-3.5.5v2l-4.5-1.5-1.5,2.5-5.5.5-4.5-1.5-4-3-1.5-3-3.5-1.5.5-1.5-1.8-.85,2.3-1.15Z"/>
      <path data-code="VOR-NVV" d="m58.75,60.75l.5-2.85,1-.5-.45-1,1.45.85-.5.5,1,.5.5-1,.5,1,.5-.5,1,.5-2,2v.5l-1-.5-1.5,1.5h-2l-1,2.5-.9-1.4,2.9-2.1Z"/>
      <path data-code="VOR-OLH" d="m17.75,104.25l3-1,.5.5,1-1,3,.5,1-1.5,1.5,3,1-1.5,2.5,4-1,1-.5,2,3.5,5-2.5,4-2,1.5-.5,4.5-2.5-1-1,1v.5l-3.5,1.5-2.5,2.5-1.5-1-2,1.5-4.5-1v-3l1-1-1-2,2-1,1.5-2.5-.5-1.5,1.5-1-2-3.5,1.5-1h3l-.5-2v-2l1-2-1-1.5.5-1"/>
      <path data-code="VOR-OST" d="m23.25,76.75l1-1.5,2-.5.5-2,.5,1.5,1-2-.5-.5h2.5l.5,2.5h2v1.5l.5-2,1.5-.5-1.5-1,1-1-.5-2.5h3l2.5,1.5.5-1.5,1.5-1,1.5-2,1.5-3.5,1.5.5,2-1-1-4,2,.5,3,3.65,1.5-.5,2,1.85.6-.4.9,1.4,1-2.5,2,.65-3,1.85-.5.5.5,1-1.5,1-1-.5-2,6.5-1-2-1.5,1.5-.5-.5-.5.5-.5-.5-1,.5.5,1,3,.5,1.5,2-2,2.5.5.5-.5,1.5-.5-.5v1h-1.5l-.5,2.15,1.5,1.5-1,1-1.5-.5-2,3.35.5.5-2,2-2.5-2,.5,1.5-4,2-.5,1-2,.5v2.5l-5,1-1-4-3-2,1-1.5,1.5-.5-2.5-2.5-1,.5-.5-1h1l-.5-.5-3-3,3-1.5-.5-.5,1-.5,1,1,1-.5-3.5-2-.5-2"/>
      <path data-code="VOR-PAN" d="m82.25,60.25l5.5-.5,1.5-2.5,4.5,1.5v-2l3.5-.5.5-3,.5.5,1-3,.5,1.5,1.5-2,7,3.5,3,.5v1l1.5,1.5,1.5-.5,2,1.5,2.5-1-1.5,1.5,2,1-1,.5v2h-1l-.5,1,2,.5,1.5,2.5h-1.5l-1,1.5h-1.5v1h-5l-.5,1-2-1-.5.5v1l-.5.5-3-2-1,1-3.5.5-1.5-1.5-2.5,3.5-1.5-1-1,1,.5.5-2,2-.5,1-2.85,2.35-1.65-2.2v-5l-2-.5,1.5-3-1.5-3-3-2-.5-1.5.5-.15Z"/>
      <path data-code="VOR-PAV" d="m56.75,103.4l5.5,2.5,1,5.5h.5v-1l6,2.5,2-2h1l2.5,1-1.5,1.35-1,2.5,1,3.5,1,.5-1,.5.5,1-1,.5-.5,1.5,2.5,7.5-1.5-.5,4.5,2.5,1.5,3-3.5,1.5-.5-1-3-.5v2l-2.5,1-2.5-1-5,3-5-1.5-3,1v2l-.5.5-1-.5-1-2v1.5l-2,2.5-3-1-1.5-2.5-1-5,1.5-2h2l5-3.5.5.5.5-1,1.5-.5-1-1v-2.5h1l-.5-1,1,1,.5-1-3-7.5.5-1.5,1.5.5,1.5-1.5h-1.5v-1.5l-1-5,1.5-3.85.5-1Z"/>
      <path data-code="VOR-PET" d="m63.25,159.75l3.5-2.5-.2-1.6,2.2-2.3.5.5,3-2.65,3.5,1.5.5-1,1,.5v5.5l1,2.5,2.5,1-.5,3,4-1,2,1.5-.5,4.5,1,2.5-2,1.5,1.5,4-1,3-2-.5-3.5,2-4-2-6,1.5-4.5,3.5-2.5,3.5-2-.5v-2l1-2-1-1,1.5-3.5-2-3.5.5-2,1.5.5v-1h-3l1-.5-.5-3.5,1.5-4,2.5-2-.5-1.5-1.5.5-.9-1.75,2.4-.7Z"/>
      <path data-code="VOR-POD" d="m36.75,106.4l4.5,1.5,1-2.5,1.5-.5,1,2,2.5-1.5,1.5.5.5-1.5h2.5l1-1.5,3.5,1.5-1.5,3.85,1,5v1.5h1.5l-1.5,1.5-1.5-.5-.5,1.5,3,7.5-.5,1-1-1,.5,1h-1l1,4h-1.5l-.5,1-.5-.5-5,3.5h-2l-1.5,2-3.5-1,1.5-2-1.5-1,.5-2h-1l1-1.5-7.5-3-.5-2.5-2-1-.5-1.5,1-.5-1.5-1,2.5-3.5-3.5-5,.5-2,1-1-.65-1.1,6.15.25Z"/>
      <path data-code="VOR-POV" d="m145.25,120.4l3.5-1.15.5,1.65h1v1.5h-.5v1.5l4.5,3.35,1-.85v1.35h1l.5-1.5v-2l2,1,.5.5-.5,1,.5,2-1,2,1.5.5-1,1.5,1.5,1,1-.5.5,1.5,2.5-3,2.5,1,1-1.5,3.5,1.5,1.5-1.5,2.5,2,2-3,2,3,2.5-.5,1-2.5,2,1-.5,3.5,1,.5-2.5,3-.5,1.5,1.5,5-3.5.5-5.5-4.5-3,.5-4.5,2.5-1.5-.5-4-2.5v-1l-5-1.5-4.5-2.5-4.5-6v-2l-4-.5.5-3.5,1-1-1-3.35,1,1Z"/>
      <path data-code="VOR-RAM" d="m71.75,8.75l2.5-2,2,1.5v-1.5l3-1.5,2,2-.5,8.5,2,1.5h1.5l1.5-3,3.5.5-.5-1.5,1.5.5,1,2,2.5-1,2.5,2-1,1,1-.5-.5,1h1l2.5,3-.5,4-2,.5-1,1h-4l-3,1.5,7.5,6h-1l-.5,1,1.5,1.5-.5,1-1-.5v1l-2-.5-1.3.5-2.7-4-2-1,1-2.5-2-1-3.5,2-3-.5-5.85,2.5-.65-2.5,1,.5,1-3-.5-2,1-4.5h1v-2l1,2,1.5-1-3.5-3-.5,3.5-1-1,1-.5-1-.5.5-.5-.5-1-2.5,1-2-1.5v-1l2.5-2.5h-1l.5-2-1,.5.5-1.5,1.5-.5-.5-2"/>
      <path data-code="VOR-REP" d="m26.25,49.25h2l3.5,2.5v-1l1-.5.5-1.5,1,.5,1-1,3-1v-3h3l1.5,1.5.5,4,4,2.5.5,2.5,1.5,1-1.55,2.25-.95-.25,1,4-2,1-1.5-.5-1.5,3.5-1.5,2-1.5,1-.5,1.5h-1l-1.5-1.5,1-2-1.5-2,1-1.5-2-1-1.5.5-1-1-1,2h-3v-1.5l-1-.5-.5-3-1-1,1.5-1-1.5-1v-1l-1,1-1.5-2,2.5-2.5-.5-1,.5-1"/>
      <path data-code="VOR-ROS" d="m2.75,139.75l1.5-1h.5v-1.5l1,.5.5-1.5h3l2.5-2-1.5-1v-1l1-1-.5-1,1.9-.6,2.6.6,2-1.5,1.5,1,2.5-2.5,3.5-1.5v-.5l1-1,2.5,1,.5-4.5,2-1.5v-.5l1,.5.5.5-1,.5.5,1.5,2,1,.5,2.5,7.5,3-1,1.5h1l-.5,2,1.5,1-1.5,2,3.5,1,1,5-1,2-3.5,2.5-1.5,1.5h-.5l-1,1.5,4,2.5-1,1.5.5.5-1,.5,1.5,4-3,1.65-.7,2.15-.8-1.8-2.5-.5v-1.5l-2.5-1-1.5,2h-1.5l-1.5-2,1-1-4-2.5,3-4-1.5-1.5,1.5-1.5-2.5-1.5-1.5,1.5-3-1.5,1-1.5-2.5-.5-1-1.5-1.5,1,.5,1-1,.5,2.5,5-5.5-.5-2.5,1.5-2-3.5-2,1-1-3-4-2,.5-2"/>
      <path data-code="VOR-SEM" d="m56.75.75l1.5-.5,2.5,1.5.5-1,3.5,1,4-.5,2,3,2.5-.5.5-1.5h1.5l-1,4.5-2.5,2,.5,2-1.5.5-.5,1.5,1-.5-.5,2h1l-2.5,2.5v1l2,1.5,2.5-1,.5,1-.5.5,1,.5-1,.5,1,1,.5-3.5,3.5,3-1.5,1-1-2v2h-1l-1,4.5.5,2-1,3-1-.5.65,2.5-1.15.5-.5-1.5-2,1,.5,1-.5,2-4.5,1-1-1,1-1-1.5-.85-.5,1.35h-2l-1,1.65-.5-.5.8-.2.7-1.4h-1l-.5-3,.5-2,1.5-1.5-2.5-2.5-5.5-1.5.5-.5v-3l-2-1v-2l3-1-2.5-.5v-3.5l.5-1,3-1v-2.5l2-1v-1.5h1.5l.5-2-3-1.5-1,1-.5-.5,1.5-2-.5-1.05"/>
      <path data-code="VOR-TAL" d="m95.25,91.75h1l1.5-.6,1-2.25-1-1,2.5-1.5h2l2-2,.5-1,3.5,4.5,4.5,1-.5,1h1l.5,2-1.5,2.5v3.85l1.5,2,2.5-2.5-.5-.5.5-1,4.5,2,1,3.5,2-1.35-.5,2.35-1,.5,2.5,2.5-1,1.5h1l-1.5,2-2.5-1.5-.5,1v1.5h-2l.5.5-2,2-3-.5-2,1.5-2,2.5.5,1-.5-.5-2.5,2-1.5-2.5h-2.5l-2-1v1l-1.5.5-1-1.5-1.5.5-2-2.5-1-3.5-3,1-.5-4.5-1.05-1,3.05-2.5-1.5-1.5v-3l2.5-1.5-.5-1,2-1v-3"/>
      <path data-code="VOR-TER" d="m133.25,82.4l2,2,3.5-3-2.5-1.5,1.3-2.75,8.7,4.1,1.5-3.5h2l2.5,4.5,1,1,1-2.5,1,1.5-.5,1.5,2.5,2.5v2.5l3,2-1,2,4.5,2-2,2,3,2.5.5,1.15-1.5,2.5-3.5.5v2l-4.5,1-1-1-1.5,1-1-6.65-1-.5-2,3.5h-1.5l-3.5-3h1l-.5-1.5-1,.5-1.5-.5-4-4.35-1-2,1-1,1,.5,1.5-2.5-1-1.5-2-.5-2,1.5h-2.5l-2.85-1.65,2.85-4.35Z"/>
      <path data-code="VOR-VRK" d="m88.75,28.25l3-1.5h3.5l7.5,9.5,1.5-.5,1,2.5,3-.5v-.5l2-1-.5,1,3.5,3.5h2l.5-1.5,2,1-.5.5v2l2.5,1,1.5,3.5-.5.5,2-1,1.5,1-2,4-3,2,.5.5-1.5,1.5.5,1-2.5,1-2-1.5-1.5.5-1.5-1.5v-1l-3-.5-7-3.5-1.5,2-.5-1.5-2.5-1-1.5,1-.5,1.5h-1l-.5-5,3.5-2.5,1,1v-3.5l-1.5-.5v1h-1.5l-3.5-2-1,.5-1-.5v-1l1.5-.5-.5-.5,2.5-1,2,.5v-1l1,.5.5-1-1.5-1.5.5-1h1l-7.5-6"/>
      <path data-code="VOR-VRM" d="m39.25,146.75h.5l1.5-1.5,3.5-2.5,1-2,1.5,2.5,3,1,2-2.5v-1.5l1,2,1,.5.5-.5v-2l3-1,5,1.5,5-3,1.5.6-.5,3.9-1.5,1,4,2.5-5,7.5.5,4-4,3-4,.5-1.5-1-5,1-6.5-3-3.5-.5-1.5-4,1-.5-.5-.5,1-1.5-4-2.5,1-1.5"/>
      <path data-code="VOR-VRB" d="m78.25,132.75l3.5-2.5-1-1.5,2,1.5,2.5-1,1.5,2,2-.5.5-1.5,4.5-1,3-2,3,2-.5,1.5,3.5,2,1.5-1,.85-1.75,1.65.25-.5,1,3,2-1,2.5h-3.5l2.5,4,1,3.5-.5,6-1.5.5-1.5,1-1-1-1.5,1-3-1-2.5,1-3-4-6-.5-3.5-3,.5-4-1.5-3-.5-1-3,1.5-1.5-3"/>
      <path data-code="VOR-VOR" d="m65.25,37.75l4.5-1,.5-2-.5-1,2-1,.5,1.5,7-3,3,.5,3.5-2,2,1-1,2.5-3,2,3,2.5-1,1-1-.5v2.5l-3.5-1v1l-2-1-.5,1-1-1-1,3-.5-.5-1,1.5-.5,1.5h.5l-1,2-.5-1h-1.5l-1,2.5-1.5-1-2.3,1.15-1.2-3.65-1.5-1,2.5-1-2-1v-3.35l.5-.65-.5-.5"/>
</svg>