<svg id="RU-VLG" xmlns="http://www.w3.org/2000/svg" viewBox="0 0 413.5 311.5">
      <path data-code="VLG-BBE" d="m52.75,56.4l3-.5,1.5-2.5.5-3,2.5-2,2-2.5v-1l3.5-.5,2-2h1l.5-1.5,5.5-6.5,2,1.5-1,1,2,.5,3.5,3.5-1.5,2-.5,1.5,4,2,1-.5,3.5,3v.5l3-.5,3.5,3.5,2.5-.5,3,5,.5-1,3.5,1v1.5l-2.5,2.5,1.5,1-3,3,.5.5h-1l1,2h-2l.5,1.5,2,1.5-2-.5-.5,1v2l-2.5.5,2.5,2.5-3.5,4-.5-.5-3,4,1,1-2.5,3.5,1.5,1.5-.5,3.5-1.5,1.5-3,2-1.5,1.5v1.5l-1,1,.5,1.5-1,.5-.5,2.5-3-2.5-1,1.5-1.5.5.5-2h1.5l-3-4-2.5,2-.5,4-1.5,3.5h-1v-1.5l-2,.5v1.5l-8,.5-1,13-.5.5,1.5,2.5-.5,1.5-5,1v.5l-1.5,2,2.5-1.5,1,1.5-2.15,2.7-3.4-4.8-5,2.5v1l-1.5-.5-1,1.5-2,1.5h-3l-3.5-.85,1.5-1.5-2-1.5,1.5-2-1-1.5h-4l1-4.5,2,.5,3.5-4-.5-3.5-7-7.5-4,.5-1-3,3.5-3.5-1.5-.5-.5-3,1.5-.5.5,1,5-.5-1-.5,1.5-.5-1.5-1.5h1l.5-2.5-1-2,1.5-2,4.5,5v-1.5l-1.5-2h2l.5,1.5,5-6.5,1,4,4.5-5-5-3v-1.5l5-8.5,4.5-2,2.5-3.5-3.5-2.5,1-1-1-1,.5-.5-3.5-3.5,1.05-1.05"/>
      <path data-code="VLG-BBU" d="m257.75,214.4l3.5-4.5,3,2,1-1,3,.35.5-3,3,1,8,9-1.5,2,5,2.5,1-1v-1.5l3-2.5,1,1,1-2,3-1,4.5,3,1-1.5,1,.5,1.5,2-.5,1,1,1,2-2,2,1.5-1.5,1-.5,6,2,5,1-1,1.5-.5,9.05,1.6,5.3,4.9-1.85,3-1,.15v1.35l-4,1.5-1.5,1.15-.5,5.5-1.5,1-1,1.5-2-2.5-4.5,2v-1.5h-1v1l-.5-.5v-.5l-2-1-1,1v1l-1,.5-1,1.5.5,1-6.5,7.5h-1l-1,1-1,2-1,.5-3.5,4.5-3.5-3-1,1.5,1,.5-.5,1-1-.5-6,6-3-2.5-5-1v-3l-3-2-.5-2.5-2-.5-1.5,1.5-2-1.5.5,1.5-2,1.5-2.5-1,.5-2h1.5v-1.5l1-1-1-.5,1.5-3-6-.5-1,4.5-1.5-.5-.5-4.5-1.5,1-.5-1-.5-3.5,1-1.5-1,.5-.5,2-.5.5-1.5-1.5-.5,1-3,1v-1l-2,.5-1.5-1,7.5-9.65,4,3,1.5-2,2,1.5,2-1.5,2,1,1.5-1.5-1-1.5,1.5-.5v-1.35l1.5-1.5-1-1.15,2.5-.5-7.5-5,1-1.5,1-7,3-5,1.5-.5v-1.5l.5.5-.5-3.35.5-1.5"/>
      <path data-code="VLG-BEL" d="m103.25,57.9l4.5-3,3.5.5,3,4.5,1,3.5,4,3.5,4-2.5.5-.5,2.4,2.95-4.95,5.4v2l-2,2v4l-1.5,2.5-.5,2.5,13,24.65,2.45-1.6-.95,3.1,1.5,2-1.5,1.5.5,1-1.5,2.5-2.5,2,.5-1.5-1.5,2h-1l-1,1.5-.5,2.5-1.5,1-.5,1.5-1-.5-4,2h.5l-1.5,2,.5,3.5-2.5,1-.5,2.5-10.5-9.5,1-1.5-1-1.5h-1l-1,.5v-1l-3.5,1-1-1.5h-2.5l-.5-1.5,1-1-1.5-1v-1l-7.5-5.5-1,.5-2.5-1.5.5-2.5-1.5-2v.5l-1-.5h.5l.5-2.5-.5-.5,1.5-1,.5-2.5,1-.5-.5-1.5,1-1v-1.5l1.5-1.5,3-2,1.5-1.5.5-3.5-1.5-1.5,2.5-3.5-1-1,3-4,.5.5,3.5-4-2.5-2.5,2.5-.5v-2l.5-1,2,.5-2-1.5-.5-1.5h2l-1-2h1l-.5-.5,3-3-1.5-1,2.5-2.5-.45-.5"/>
      <path data-code="VLG-CHG" d="m.25,101.4h2.5l2-1,.5.5,3.5-4,1-.5,2,1.5.5-1.5v1.5l1,.5,2.5-.5,3,2.5,1.5.5,1.5-1.5,2.5.5,4.5,2-3,3,1,3,4-.5,7,7.5.5,3.5-3.5,4-2-.5-1,4.5-1.15-1.35-.35.85-1-.5.5,2h-2.5l-3-3.5v2l-1-.5v4l-1.5.5v1l-1,.5-2.5,4,.5.5-1.5-1-.5,2-4.5-3,1-2.5-2-.5v-2l-4-1.5v1.5h-3.5l-1,1.5.5-1-1.5-1.5,1.5-1v-1l-3-1.5,3-3.5,3-1v-.5l1-1.5-5.5-2,1,.5,1-1-2.5-2v-.5l1-.5-2-3,.5-1.5h1.5l.5-1,1-.5-3.5-5"/>
      <path data-code="VLG-CRP" d="m85.75,155.4l2.5,1.5.5,2,2.5,1.5-.5,1.5,1.5-.5v1.5h2l-1,.5.5.5-.5,2.5-3,1.5-2.5-1.5,1-3-3-2,1-2-1.5-1.5.5-2.5"/>
      <path data-code="VLG-CRM" d="m85.75,155.4l-.5,2.5,1.5,1.5-1,2,3,2-1,3,2.5,1.5,3-1.5.5-2.5-.5-.5,1-.5h-2v-1.5l-1.5.5.5-1.5-2.5-1.5-.5-2-2.5-1.5m-26-7.5l2.5.5,5,2.5,1-2h1l6.5,4.5,2-1.5,2,1-2-4,1-1,5.5-1.5.5-1-.5-2,.5-1h1l1-2-.5-1.5,1.5-2v-.5l1-.5-.5-.5,1.5-1-1.5-2,.5-2.5,2-.5-.5-2,.5-.5-2-1.5,1-1-.5-2,4.5-1.5,1.5,1-1,1,.5,1.5h2.5l1,1.5,3.5-1v1l1-.5h1l1,1.5-1,1.5,10.5,9.5.5-2.5,2.5-1,2.5,1.5,1-2,2.5-.5-.5,2-1,1h-1.5l-1,1,.5.5-.5.5-1.5-.5.5,1-1,1,3,2-4,5,.5,1-2.5-.5,1,1-.5,1.5-1.5,2.5.5,1.5-3.3,1.5h-2.2v1l-1,2.5,1.5.5-.5.85-1.5-.5-1,1.5-3.5-.5v2.5h-1.5v1.5l-1.5,1.5,2,6-.5,2.5,1,1-2,2-.5-.5-.5,2,2.5.5.5,2-.5,2,1.5.5,1-1,3,1.5,3.5,4.5h1l-1.5,2,2,1.5-.4,1.15-1.6,2-.5.5,1,4.5-5,.5v1l-1,.5-2,3-5-5.5h-1v1h-.5l.5-2-2.5-3h-.5v1l-4.5,1.5-1-3-10-7-3-.5.5,2-2.5-1v1.5h-2l-2,1.5-1.5-2.5-3.5-2-2.5,2.5v1.5l-2,1-3.5,1v-2.5l-1-1.5.5-2-1.5-4,1.5-4.5-2.5-1.5,3-2h-2l1-1-.5-2,1-1-.5-2,2.5-4-1-2,1-1.5-.5-3,.5-1,1.5-1v-3.5l1-2v-4"/>
      <path data-code="VLG-VLG" d="m145.75,187.75l.5,1.5-1-.5v-.5l.5-.5Zm2.5,6.5l.5-1,1,1,1.5-1,.5,2,2-1,.5,2.5-1.5-.5-.5.5,1,2-2,1.5h-1l.5,1.5h-1l-1.5-2.5-.5.5-1-2-3-1.5,2.5-1.5-1-1.5,3,1Z"/>
      <path data-code="VLG-GRY" d="m129.75,205.75l2-.5.5-1,1,1,2.5-.5-.5,1.5,1.5.5h4.5l1.5,1,2-1v2l-.5.5.5,1.5,6.5,2.5.5-2h1l1-1,1.5,1,2-1,1.5-.35v1l1.5-1.5v2l2,1v3l3.5,2.5,3,.5.5-1v1l1.5.5v3l4.5,2-.5,2,.5,1.5h-.5v1l2,3.5,1-2.5v-1.5h.5l.5-1-2-.5.5-1,2.5-.5,1,3.5-.5,1,2.5,1h.5l1-2,2.5,1.5,3-4.5,19,16h-1l-1,.5v1.5h-1.5l-1-2-2,.5v2l-1.5-.5-1-3.5-2.5-2-1.5,1-7-1-1,1.5-5-.5-2.5,1,.5-2-.5-1-1-1-3.5,1-1.5,1v.5l-1,1.5.5,1.5h2l-.5,1h-1l-1,2.5v-1l-1.5-1-.5,2.5-2.5-.5v5l-1.5,1.5-1-.5-.5.5-1,.5-1.5,2-2.5-1-2.5,1.5-2.5-.5v1l-1.5-1.5-1,.5-.5-.5v-1.5l-2,.5v-1.5l-3.5-3-5.5-1-2,.5-1-1v1l-3-3.5-1.5.5-1-2-1.5-1v-2.5l-1.5-2.5v-1h2.5l.5-1-.5-1.5-1.5-.5,1-1.5h-.5l.5-2,1.5-2-1.5-1,.5-1.5-2.5-1,1-6.5-3-.5v-7.15l1.5-.5,1-1.5-1-1.5"/>
      <path data-code="VLG-KAD" d="m60.75,108.9l8-.5v-1.5l2-.5v1.5h1l1.5-3.5.5-4,2.5-2,3,4h-1.5l-.5,2,1.5-.5,1-1.5,3,2.5-1.5,1,.5.5-.5,2.5h.5l1.5,2-.5,2.5,2.5,1.5,1-.5,7.5,5.5v1l-4.5,1.5.5,2-1,1,2,1.5-.5.5.5,2-2,.5-.5,2.5,1.5,2-1.5,1,.5.5-1,.5v.5l-1.5,2,.5,1.5-1,2h-1l-.5,1,.5,2-.5,1-5.5,1.5-1,1,2,4-2-1-2,1.5-6.5-4.5h-1l-1,2-5-2.5-2.5-.5-1-1.15,3-3.5v-2l1.5-.5-4.5-3-3.6-5.2,2.15-2.7-1-1.5-2.5,1.5,1.5-2v-.5l5-1,.5-1.5-1.5-2.5.5-.5.95-12.95"/>
      <path data-code="VLG-KHA" d="m175.75,126.75l.5-.5,2.5-2,2.5,1,1-1.5,1.5.5.5-1.5,1,1,2-1,1,.5.5,2-1.5,1.5,1,1-1,1,4,3.5-3,3h.5v1.5l2.5,2.5,2.5-3,4.5,2,1,3,1.5-.5,2,2h2v2.65h-3l-3-2.65-2.5,1.5,5.5,5.5,3,2,3.5-3.5,1,1,3-4,2,1-.5,1.5h-1.5l4,1.15,1,4v-3.5h1.5l1,2.35h3.5l.5.5-.5,1.5-3.5,1.65-1.5-1.5-1.5,2-2.5.5v1.5l-2,1.5h-1.5l-.5-2-2.5,3.5h-2.5v4.5l-2.5-1.5h-1.5v1l-2,.5-.5,1v1.5l1,1.5-.5.5-1-.5v2l-.5,1-1,.35-1.5-2-1.5,1.5,2.5,3-.5,1,1.5,1.5-3,3.5-8.5-6-2,2-.5-1-1,.5-2.5-2.5h-2l-1-2.35v-.65l-1-.5v-1l1.5-1-3.5-4,2-.5-2-6,.5-1v-2l1-2,1-2.5-1,.5-2.5-2.5,1.5-2.5-4.5-1.5,2-2,1,.5v-1.5l1-.5,1.5,1-1-3-1.5-1.5,1.5-4v-2h.5l-.5-1,1.5-1-1-1,1-1v-1Z"/>
      <path data-code="VLG-KIC" d="m321.25,234.25l4-4.5,3.5-3,7.5-1.5-.5-1.5,1-.5-.5-.5.5-1,5-.5,2-1.5,2.5,2,.5,3-1.5,5v3l6,4.5,2-1.5,7,.5,8.5,10.5,1.65,4.55-1.65.6,1.5,2.5-2,2,.5,1-.5,1v1l-1.5,1,4.5,2.5,1.5,3-.5,1.5,1,.5,1.5-1-.5,1.5,2.5,1,.5,1-1,.5.5,1,.5-1,1.5,1,.5-1,2,.5,1-1.5,1.5-.5,3.5,1.5-16,20,6.5,4.5-6.5,9-8.5-7-1.5,2-2-1.5-11-8.5,2-2.5-15.5-11,.5-1-7-7,1-1-2.5-.5,1-2.5,1,.5.5-.5-2.5-3.5v-1.5l1.5.5,2-2.5-3-4,.5-.5-2.5-4,3-4-11.95-11,4.95.85Z"/>
      <path data-code="VLG-KIR" d="m117.75,128.9l4-2,1,.5.5-1.5,1.5-1,.5-2.5,1-1.5h1l1.5-2-.5,1.5,2.5-2,1.5-2.5-.5-1,1.5-1.5-1.5-2,.95-3.1.55-.4,3.5,2.5,1-1,1,.5,1-1,3,1.5,1-1,1,.5,1-1h3v-1l1.5,1.5.5-4,3.5,2.5-.5-.5,1-1-1-2,5.5-7-2-1v-2.5l2-2,2,.5,1.5-1.5.5.5,1-2,2.5.5-4-2.5,2.5-3-2.5-2.5,6-8,7.5,7-1,1,.5.5-1,1v1l-1,2,5,4,1-1.5,4-.5h-.5.5v.5l-.5.5,1.5.5.5,2.5-1,1,2.5,5-.5,3-3,.5-4,7-6,3.5-7.5-1-4,5.35,2,5.65-1,1.5-3.5,1.5-1,2-1,2.5,1.5,1-1.5,1.5,1.5,2-1,1.5-1-.5-1,2.5-3,2v2l-1,1v1.5l-3.5-1.5-1.5,2-1-1-2,.5.5,3.5-2,2-1-1-1,1v1l-1.5,1.5,1.5,2-1.5,3-3,1.5-2-.5-1.5,2.5v1l-2,1.85-1-1.85-1,1-1.5-1,1-1-.5-1,2-2-2-1-1-4-.5-1.5,1.5-1.5-1-1v-1l2-1.15-11-6.85,1-1-.5-1,1.5.5.5-.5-.5-.5,1-1h1.5l1-1,.5-2-2.5.5-1,2-2.5-1.5-.5-3.5,1.5-2h-.5"/>
      <path data-code="VLG-MEZ" d="m158.75,200.25l2,.5v-1.5l.5,1.5h5v-1.5l3.5,4.5,1.5-1h5l-.5,1.5,1.5-1.5h2l5.5,1-2-2.5,1-1-1.5-2,7.5,4.5,2-1.5,1.5,4,2.5,1.5,1-1,2,2,2.5-.5.5.5-2,2.5,3,2.5-1,1,.5.5,2-.5,1,1,1-.5,3.5,1,1-1.5h1l1.5-2.5v-1l.5.5,1.5-1,1.5,4h2.5l-.5-2.5,1.5-.5v-2.5l.5,1,2.5,1-.5,1.65v1.85l1.5,1-1.5-.5.5,2,4,3-3.5,5-1-.5-2.45,3.25-2.05-2.1-3,1-5,6h-1v-1.5l-.5-.5.5,3,1.5,2.5.5-.5,1.5,1.5-3.5,5.5-19.5-16.5-3,4.5-2.5-1.5-1,2h-.5l-2.5-1,.5-1-1-3.5-2.5.5-.5,1,2,.5-.5,1h-.5v1.5l-1,2.5-2-3.5v-1h.5l-.5-1.5.5-2-4.5-2v-3l-1.5-.5v-1l-.5,1-3-.5-3.5-2.5v-3l-2-1v-2l-1.5,1.5v-1l-1.5.35-1-1,1-1.5.5,1.5.5-.5v-.5l.5-.5.5-1.5h.5l-.5-2h-.5v-4"/>
      <path data-code="VLG-NIK" d="m278.75,270.4l1,.5.5-1-1-.5,1-1.5,3.5,2.85,3.5-4.35,1-.5,1-2,1-1h1l6.5-7.5-.5-1,1-1.5,1-.5v-1l1-1,2,1v.5l.5.5v-1h1v1.5l4.5-2.15,2,2.65,1-1.5,1.5-1,.5-5.65,1.5-1,4-1.5v-1.5h1l1.85-3,6.65,6.15-3,4,2.5,4-.5.5,3,4-2,2.85-1.5-.5v1l2.5,3.5-.5,1-1-.85-1,2.5,2.5.5-1,1,7,7-.5,1,15.5,11-2,2.5,3,1.85-5.5,6.5,1,1-6.5,8.5-5.5-4-1.5,2.5-4-3-6.5,8.5-7.5-7-2.5-1.5-1,1.5-.5-.5.5-1.5-6-5-1.5,1.5-7.5-5.5-3.5,4.5-17.5-14-2,1v-1.5l-1-.5.5-1.5-3-1.5,2.3-3.1,6.2-6.25Z"/>
      <path data-code="VLG-NYU" d="m293.25,211.75l7,1,7.5-3-.5-3,4.5-3.5-.5-3.5,1.5-2,3.5-2,2.5-4,3-.5,1-2.5,2.5-3,1-.5.5-1,3.5-2.5,6,4.5,6.5-8,21,16.5-12,14.5-1,.5-.5,1h-1v1.5l-1.5.5.5,1-4.5,6-2,1.5-5,.5-.5,1,.5.5-1,.5.5,1.5-7.5,1.5-3.5,3-4,4.5-14-2.5-1.5.5-1,1-2-5,.5-6,1.5-1-2-1.5-2,2-1-1,.5-1-2-1.5.5-.5-1-.5-1,1.5-4.5-3,1.5-2-.5-2"/>
      <path data-code="VLG-SHE" d="m102.25,160.75l3.5.5,1-1.5,1.5.5.5-.85-1.5-.5,1-2.5v-1h2.2l3.3-1.5-.5-1.65,1.5-2.35.5-1.5-1-1,2.5.5-.5-1,4-5.15,8,5-2,1.15v1l1,1-1.5,1.5.55,1.75.95,3.75,2,1-2,2,.5,1-1,1,1.5,1,1-1,.65,1.2-1.15,1.7-1-.5.5,1.5-1,.5v1.5l-1.5-.5.5-1-.5-1-2.5,2-2.5,11,2,2.5,3-1,1.5,2.5-.5.5-1.5-.5-.5,3-1,1,.5,2-2.5,3,1.5,1,1-.5,1,2-2,.5.5,1h-1.5l-.5,1.5-1-.5-.5,1-1-.5v1l-1,.5-5.5-1.5.5-1.5h.5l-2.5-1,.5-1.5-2-1.5,1.5-2h-1l-3.5-4.5-3-1.5-1,1-1.5-.5.5-2-.5-2-2.5-.5.5-2,.5.5,2-2-1-1,.5-2.5-2-6,1-1,.5-.5v-1.5h1.5v-2.55"/>
      <path data-code="VLG-SYA" d="m193.75,172.25l1.5-1.5,1.5,2,1-.5.5-.95v-1.9l1,.5.5-.5-1-1.15v-1.85l.5-1,2-.5v-1h1.5l2.5,1.5v-4.5h2.5l2.5-3.5.5,2h1.5l2-1.5v-1.5l2.5-.5,1.5-2,1.5,1.35,4.5-2,1.5,2.5,3-1-1-2,2.5-.5v1l1.5.5v2h-1.5l7,5.5.4-1.55.6.55-.5,1,2.5,2.5-1.5,2,3,1.5v-1l1.5-1.5,2.5,1.5-1,1.5,3.5,2-1,.5v1.5l4,3.5-1,1h-2.5l-4,2-3.5-.5-2,2-1-.5-.5,1,1.5,1-1,.5-1-1-1,.5,1,2,2.5,2-.5.5-2,.5-4,5.5-1.5-.5-.5,1-1,1.5.5,1h-.5l1,2-2-1-1,1.5h-1.5l-1,2.05-7.5-.55-2-4-5.5-1-1.5-2-4-1,2-2.5-11.1-8.05,2.1-2.45-1.5-1.5.5-1-2.5-3"/>
      <path data-code="VLG-SOK" d="m155.25,179.25l3-1.5,3.5,2.5.5-2-1-1.5v-1.5l.5-1.5,1.5-1,3-1,1-2-.5-3.5,3.5-.5,1-.5-.5-.5,1-.5,1.5,1.5.5-1,3.5,4-1.5,1v1l1,.5v.5l1,2.5h2l2.5,2.5,1-.5.5,1,2-2,8.5,6,.9-1.05,11.1,8.05-2,2.5,4,1,1.5,2,5.5,1,2,4,6.5.5-4.5,5v1.5l2,.5v1.5l-1,.5v2.5l-1.5.5.5,2.5h-2.5l-1.5-4-1.5,1-.5-.5v1l-1.5,2.5h-1l-1,1.5-3.5-1-1,.5-1-1-2,.5-.5-.5,1-1-3-2.5,2-2.5-.5-.5-2.5.5-2-2-1,1-2.5-1.5-1.5-4-2,1.5-7.5-4.5,1.5,2-1,1,2,2.5-5.5-1h-2l-1.5,1.5.5-1.5h-5l-1.5,1-3.5-4.5v1.5h-5l-.5-1.5.5-1,1,.5-.5-1,1,.5-.5-1h1v-1l.5.5v-.5h1l-.5-.5,1.5-.5-.5-2-4.5-1.5v1h-1l-1.5-1,.5-1.5-1-2.5-2.5-2v-1l1-.5-1.5-1,2.5-2.5-2-1.5"/>
      <path data-code="VLG-TAR" d="m272.75,175.25l1-1v.5l4-2.5,8.5.5,2-1,.5.5,2-2.5-1-1.5,2.5-2,.5-1.5,4.5,1.5,2-2.5,2-.5,9,9.5,4-5.5,4,1.5,1.5-1,1,1.5h1.5l-.5-2,1.5-.5v-.5l4.5-5.5,12,5.5-4,5.5,7,6.5-6.5,8-6-4.5-3.5,2.5-.5,1-1,.5-2.5,3-1,2.5-3,.5-2.5,4-3.5,2-1.5,2,.5,3.5-4.5,3.5.5,3-7.5,3-7-1v-1.5l-3.5-2,1.5-4.5h-1.5v2.5l-2.5,2.5-.5-.5-.5-1,1-1-1.5-1.5.5-2.5,1-2,2.5-2-3.5-4,.5-2-5-3.5-4,5,.5-3-2,.5-.5,2,.5,2-.5,1-8-6.5,5.5-6.5-1-.5,1.5-.5h1.5l-2.5-7"/>
      <path data-code="VLG-TOT" d="m219.25,204.25l4.5-5,1,.05,1-2.05h1.5l1-1.5,2,1-1-2h.5l-.5-1,1-1.5.5-1,1.5.5,4-5.5,2-.5.5-.5-2.5-2-1-2,1-.5,1,1,1-.5-1.5-1,.5-1,1,.5,2-2,3.5.5,4-2h2.5l1-1-4-3.5v-1.5l1-.5-1.25-.75,1.75-1.25h2l.5-1,1.5,2,.5-1,2.5,1.5.5-1,.5.5,1.5,3v2.5l3,3,3,1,1.5-1.5,7.5,6.5-5.5,6.5,8,6.5.5-1-.5-2,.5-2,2-.5-.5,3,4-5,5,3.5-.5,2,3.5,4-2.5,2-1,2-.5,2.5,1.5,1.5-1,1,.5,1,.5.5,2.5-2.5v-2.5h1.5l-1.5,4.5,3.5,2,.5,3.5-1.5,2-3,1-1,2-1-1-3,2.5v1.5l-1,1-5-2.5,1.5-2-8-9-3-1-.5,3h-3l-1,1-3-2-3.5,4.5-.5,1.5.5,3-.5-.5v1.5l-1.5.5-3,5-1,7-1,1.5,7.5,5-2.5.5,1,1-1.5,2v1l-1.5.5,1,1.5-1.5,1.5-2-1-2,1.5-2-1.5-1.5,2-4-3-7.5,10v-1l-2.5,2,.5-1-1-1.5-1,.5.5-3.5-2-1.5.5-3h1.5l.5-2-.5-.5,1-.5-.5-1.5-1.5-1-1.5.5v-1.5h1l-1.5-1-.5,1.5-5-2-2.5,1-.5,1-.5-1h.5v-2l-.5-1v-2.5l3.5-4.5-2.5-1.5,3-4,1,.5,3.5-5-4-3-.5-2,1.5.5-1.5-1v-2l.5-1.5-2.5-1-.5-1,1-.5v-1.5l-2-.5v-1.5"/>
      <path data-code="VLG-UST-KUB" d="m171.75,124.25h3.5l1,2,.5.5h-1v1l-1,1,1,1-1.5,1,.5,1h-.5v2l-1.5,4,1.5,1.5,1,3-1.5-1-1,.5v1.5l-1-.5-2,2,4.5,1.5-1.5,2.5,2.5,2.5,1-.5-1,2.5-1,2v2l-.5,1,2,6-2,.5-.5,1-1.5-1.5-1,.5.5.5-1,.5-3.5.5.5,3.5-1,2-3,1-1.5,1-.5,1.5v1.5l1,1.5-.5,2-3.5-2.5-2.5,1.25-.5-13.25-3.5-10.5v-12.5l1-1v-2l3-2.5,1-2,1,.5,1-1.35-1.5-2,1.5-1.5-1.5-1,.5-2.65,1.5-2,3.5-1.35,1-1.5-2-5.65,10,7.5Z"/>
      <path data-code="VLG-UST" d="m24.25,123.75l3,3.65,2.35-.65-.35-1.35,1,.35.5-1,1,1.5h4l1,1.65-1.5,2,2,1.5-1.5,1.5,3.5.85h3l2-1.5,1-1.5,1.5.5v-1l5-2.5,7,10,4.5,3-1.5.5v2l-3,3.5,1,1.15v4l-1,2v3.5l-1.5,1-.5,1,.5,3-.4.6-1.1-1.7-2.5,1-2-1-3-3-2.5.5h-1.5v3.5l-.5,1-1,.5-3.5-1.5-1,1-.5-1-3,2-1.5,2-1-1.5-1,1.5-1-1-2,.5.5,1.5-2.5,2h-1l-.5-1.5-1.5.5-1-1.5-2.5,1.5-.5-3.5-1-1-1,1-1-1.5,1-1v-1l.5,1,.5-1,1-.5,2-1.5v-2l-1.5-1.5h1l.5-3,2-3.5-1.5.5-1-2-1,1v-1l-1.5,1.5,2-2.5h-1.5l-.5-2,2,1v-.5l-5-4,.5-2.5,1.5-2,2,2-1-3.5,2.5-4,1-.5v-1l1.5-1-.5-2.5.5-1,1,.5v-2.05"/>
      <path data-code="VLG-VAS" d="m121.25,72.25l5-5.5,6.5-1.5,6.5,5-.5,1.5,4.5,4,2,.5,1,2,1-1,3-.5,2-3.5,2.5-.5,9,8-1,1.15,2.5,2.5-2.5,3,4,2.5-2.5-.5-1,2-.5-.5-1.5,1.5-2-.5-2,2v2.5l2,1-5.5,7,1,2-1,1,.5.5-3.5-2.5-.5,4-1.5-1.5v1h-3l-1,1-1-.5-1,1-3-1.5-1,1-1-.5-1,1-3.5-2.5-3,2-13-24.65.5-2.5,1.5-2.5v-4l2-2v-2"/>
      <path data-code="VLG-VEL" d="m343.75,219.75l4.5-6-.5-1,1.5-.5v-1.5h1l.5-1,1-.5,21.5-27,1,.5,2-2-1-.5,1.5-2,12,9.5-6.5,8.5,13.5,11.5,1.5-1.5,5,2,1.5-2,1,.5v2l-1.5,2,7,6-2,2-.5,3,2,1,.5,1.5-.5.5,3.5,3-5,7-1.5-1,.5,1.5-2,.5v2h-2l1,2.5-2,2.5v1l-1,.5,1,1-.5.5-1.5-1.5-1,1-3-.5-.5,2-1.5,2-2,.5.5,1.5-3.5-.5-1.5,1.5,2,2-2.5,1-.5,2.5-3.5,3-3-4-5-1.5-1-2.5-1-.5-.5,1-2-.5-2-5.5-8.5-10.5-7-.5-2,1.5-6-4.5v-3l1.5-5-.5-3-2.5-2"/>
      <path data-code="VLG-VER" d="m246.75,138.25l7.5-6-.5-2,.5-1h5.5l1.5,1,1.5,1.5-.5,1.5,2,2v-.5l3.5.5-.5-1h1l-.5-.5h1.5l1,2.5,2-.5-1.5,3-.5-.5-1,1.5,5.5,3.5-1.5,2,1,.5-.5.5v1.5l5,4.5,5.5,1-1,.5-.5,1,1.5.5.5-1.5-.5-.5-.5,1.5.5-1.5,2.5-1.5,1.5.5.5-1.5,2-.5,4.5,7-.5,1,.5,1-1.5,1.5,1.5,1.5-1,3-1.5-.5-.5,1.5-2.5,2,1,1.5-2,2.5-.5-.5-2,1-8.5-.5-4,2.5v-.5l-1,1,2.5,7-.5.5-1-.5-1.5.5-6.5-6-1.5,1.5-3-1-3-3v-2.5l-2-3.5-.5,1-2.5-1.5-.5,1-1.5-2-.5,1h-2l-1.75,1.25-2.25-1.25,1-1.5-2.5-1.5-1.5,1.5.5,1h-1l-2.5-1.5,1.5-2-2.5-2.5.5-1-.6-.55.6-2.45,1.5-1.5,2-5.5,1.5-2,.5-3.5,2-3,1-3.5"/>
      <path data-code="VLG-VOL" d="m145.25,188.75l1,.5-.5-1.5-.5.5v.5Zm0,4.5l1,1.5-2.5,1.5,3,1.5,1,2,.5-.5,1.5,2.5h1l-.5-1.5h1l2-1.5-1-2,.5-.5,1.5.5-.5-2.5-2,1-.5-2-1.5,1-1-1-.5,1-3-1m-22-26l2.5-2,.5,1-.5,1,1.5.5v-1.5l1-.5-.5-1.5,1,.5,1.15-1.7.35.7,2-2-.5-.5,2-3,2,.65,3-1.65,1.5-2.85-1.5-2,1.5-1.65v-.85l1-1,1,1,2-2.15-1-3.5,2.5-1,1,1,1-1.5,4,1v11.5l3.5,10.5.5,13.25-.5.25,2,1.5-2.5,2.5,1.5,1-1,.5v1l2.5,2,1,2.5-.5,1.5,1.5,1h1v-1l4.5,1.5.5,2-1.5.5.5.5h-1v.5l-.5-.5v1h-.8l.3,1-.8-.4.3.9-1-.5-.5,1v1.5l-2-.5v4h-.5,1l.5,2h-.5l-.5,1.5-.5.5v.5l-.5.5-.5-1.5-1,1.5,1,1-2,1-1.5-1-1,1h-1l-.5,2-6.5-2.5-.5-1.5.5-.5v-2l-2,1-1.5-1h-4.5l-1.5-.5.5-1.5-2.5.5-1-1-.5,1-2,.5,1,1.5-1,1.5-3.5,1.5-3-2.5.5-.5v-1.5l-2.5.5v-1l1-1-1-1,.5-.5-2.5-1-.5,1h-1l.5-2-1.5-3h2.5v-1l1,.5.5-1,1,.5.5-1.5h1.5l-.5-1,2-.5-1-2-1,.5-1.5-1,2.5-3-.5-2,1-1,.5-3,1.5.5.5-.5-1.5-2.5-3,1-2-2.5,2.5-11"/>
      <path data-code="VLG-VOZ" d="m162.25,115.75l3.5-5,4.5.5,2.5,1,5-2.5,3-4,2-4,4-1,1-3.5,2-.5,1,2,1.5-.5v3l1,1,7,2,2.5-1-.5,1.5.5,1,3,.5v7l3,3,1.5-1h.5l4,3,1-1.5,2,2.5h2l1-1.5,5-1.5,1.5,6.5,2.5.5v-.5l3.5-1,1.5,1-2,2,1,1-1,1v.5l2.5,2-1,1,4.5,4.5-.5,1v1l1,1,6,1,.55,2.75-2.05,3.25-.5,3.5-1.5,2-1,3.5-1,2-1.5,1.5-1,4-7-5.5h1.5v-2l-1.5-.5v-1l-2.5.5,1,2-3,1-1.5-2.5-1,.5.5-1.5-.5-.5h-3.5l-1-2h-1.5v3.5l-1-4-4-1.5h1.5l.5-1.5-2-1-3,4-1-1-3.5,3.5-3-2-5.5-5.5,2.5-1.5,3,2.5h3v-2.5h-2l-2-2-1.5.5-1-3-4.5-2-2.5,3-2.5-2.5v-1.5h-.5l3-3-4-3.5,1-1-1-1,1.5-1.5-.5-2-1-.5-2,1-1-1-.5,1.5-1.5-.5-1,1.5-2.5-1v1l-.5-.5-2,1.5-1-2h-3.5l-9-6.5-1-1,.5-1"/>
      <path data-code="VLG-VYT" d="m84.25,15.75l5.5-2.5,6,3.5,3-1,1-1.5,8-1,9-11.5,29.5,4,1-.5v-1l5-2.5,1.5-1.5,3.5,1,4,4.5,1-1h6l-.5.5,2,5.5,3,2.5-1.5,2.5,4.5,3h2l5,3,2.5,2.5-.5,2-2.5,2.5v1.5l-2,1.5-.5,2,.5,1-3,4.5,1,2.5-1.5,2.5,1.5,1.5-3.5,4.5,4,1-.5,4.5h-1l-.5,2.5,2,1-.5,1h-3.5l-1,1,.5,1.5-.5,1-1-1.5-1,4v1.5l3.5,2-.5,3-1.5,2-1.4,2.05-3.1-2.9-5,6.85-9-8-2,.5-2.5,3.5-3,.5-1,1-1-2-2-.5-4.5-4,.5-1.5-6.5-5-6.55,1.6-2.4-2.95-.5.5-4,2.5-4-3.5-1-3.5-3-4.5-3.5-.5-4,2.65v-.65l-3.5-1-.5,1-3-5-2.5.5-3.5-3.5-3,.5v-.5l-3.5-3-1,.5-4-2,.5-2,1.5-1.5-3.5-3.5-2-.5,1-1-2-1.5,6-6.65-.5-1,1.5-1.5,1.5-3-1-1.5,1.5-.5.5-1-.5-2,.45-1.5"/>
</svg>