<svg id="RU-YEV" viewBox="0 0 179.75 137.75">
    <g data-code="evrejskaja_avtonomnaja_oblast_" data-title="evrejskaja_avtonomnaja_oblast&amp;apos;">
      <path data-code="birobidzhanskij_rajon" data-title="birobidzhanskij rajon" class="cls-1" d="M88.13,39.76l4-1,3,1-1.5-4.5,6,1.5.5-1.5-3-.5.5-1.5-6-1.5-3-2-1,2.5,1,4-1,.5,1.5,2.5-1,.5M74.63,58.76l.5-2,2.5-1,.5-1-1-.5.5-.5,2-.5,1,1,3-1,.5-4,2.5-4-1.5-1.5-2.5-4.5-4-3,1.5-5,1-.5,2.5-3.5,7.5-2.5,8-6.5-.5,4,1.5,2v1.5l.5,1-.5.5,1,.5-.5,1.5,1.5,1-1.5,5,2.5,3.5,4.5,1.5,5.5,7.5,9,10,1,3,.5,6.5,3,4.5-8.5,3.5h-1l-1-1.5-.5,1-2.5-.5-2.5,1.5-4-.5-1,1.5-3,1-5.5-2-3.5,2-3.5-2-2-2.5v-2.5l-6,1.5,1-3-.5-3.5-1.5-1h-3l-3.5-6"/>
      <path data-code="gorodskoj_okrug_birobidzhan" data-title="gorodskoj okrug birobidzhan" class="cls-2" d="M88.13,39.76l1-.5-1.5-2.5,1-.5-1-4,1-2.5,3,2,6,1.5-.5,1.5,3,.5-.5,1.5-6-1.5,1.5,4.5-3-1-4,1"/>
      <path data-code="leninskij_rajon__evrejskaja_avtonomnaja_oblast_" data-title="leninskij_rajon_(evrejskaja_avtonomnaja_oblast&amp;apos;)" class="cls-2" d="M55.63,83.26l-1.5-15.5h2.5l3,1.5,1-1,2,.5.5,1,1.5-2h1l4,2,2.5-2.5,2,2h1l3-2,1.5-2.5,3,1.5.5,3-1,3,6-1.5v2.5l2,2.5,3.5,2,3.5-2,5.5,2,3-1,1-1.5,4,.5,2.5-1.5,2.5.5.5-1,1,1.5-1,2.5.5,3-4.5,5.5v4.5l-2,1.5-2.5-1.5-2,2,3,4.5-1.5,5.5.5,2.5,1.5,1.5-1.5,3-2.5,1-6.5-.5-2,1.5-.5,3.5-4.5,2-5.5-1-3.5,2.5v2l-1.5.5-1.5-1.5-.5-1.5-3,.5-2.5-2-5.5-8.5h-1v-3l-1-1,1-3-.5-.5v-1.5l-3.5-2.5-3.5-7.5-3-6h-1"/>
      <path data-code="obluchenskij_rajon" data-title="obluchenskij rajon" class="cls-2" d="M3.62,85.12l-1-13.5,1-4.5-.5-1.5-2.5-.5.5-2,6-8,6-.5,1.5-1.5-3-3.5-.5-8.5-1-1v-4.5l1.5-1.5h2l2-2.5,2,.5,1-2.5,4.5-.5,1.5,2h.5v-3l3-2.5,1-3.5,3.5-1.5,1-3,5,3,2.5-1.5,2,.5v-2h-1l-1-1,1.5-2.5-2.5-2,3.5-2.5-1.5-1-.5-2-1-1,1-3h3.5l1.5-2,2,1,1,2,2,.5,2.5-1,2,2.5.5,1.5-1,1.5,1,1.5h4l1.5,1,2-4.5,4,.5v-1.5l1.5-.5-.5-1.5,2-2,4,6,3.5-3,1.5,1.5,5-1.5,2.5,2.5h3.5l.5,2,4,1.5,3.5,2.5,1,3-1,2-8,7-8,2.5-4,5-1,3.5,4.5,3,2.5,5,1,1-2,4.5-.5,4-3,.5-1-.5h-2l-.5.5,1,1-.5.5-2.5,1.5-.5,2,2.5,4.5,2,2-4,4h-1l-2-2.5-2.5,3-2-1.5-3-1-1.5,2.5-.5-1-10-1-4.5-2-3.5-.5-2,3h-1.5l-1.5,1.5-2.5.5-2.5,2,1.5,4-1,1-2,7-3.5,1.5-1.5,2.5-1-.5.5,2-2-1-.5,3-2-2.5-3-1-3.5,3.5v-2.5l-2-1.5-4,3.5-1-1.5-1.5-4-4.5-1"/>
      <path data-code="oktjabr_skij_rajon__evrejskaja_avtonomnaja_oblast_" data-title="oktjabr&amp;apos;skij_rajon_(evrejskaja_avtonomnaja_oblast&amp;apos;)" class="cls-2" d="M22.62,116.62l-.5-2.5,2-4.5-1-4.5,1-1.5v-3.5l-2-2-3-1-2.5-5,3.5-3.5,5.5,3.5v-3l2,1-.5-2,1,.5,1.5-2.5,3.5-1.5,2-7,1-1-1.5-4,2.5-2,2.5-.5,1.5-1.5h1.5l2-3,3.5.5,4.5,2,1-.5.5,1.5,1.5,14.5h.5l3.5,6,3,7.5,4,2v1.5l.5.5-1,3.5,1,1v2.5h.5l6.5,9.5,2,1,3-.5,2,3.5,1.5-.5.5,1-3,3-5.5-1-1,1-1,4-1,.5-2.5-1-1.5-2.5-5,.5-2,2.5-4.5,1-2,4-3,2-4.5,1-2-1-2.5-6-6-6-7.5-3-1-1.5h-2l-2-2.5-1-.5"/>
      <path data-code="smidovichskij_rajon" data-title="smidovichskij rajon" class="cls-2" d="M100.62,35.12l1.5-4.5-1.5-1,.5-1.5-1-1,.5-.5-1-.5.5-2-2-1.5,1-4.5,4.5,4.5.5,2,7.5-2,3,2,1-.5.5,1.5h1.5v.5l2,.5,3.5-3,.5,2,1-1-1-2,2,1.5v-1.5l2,1v1l1-1v1h.5l.5,1.5,1.5-1,1,1.5v-1h1.5l1,1,.5-.5v1-1.5h1l-.5-1,1,1v.5l2-1.5,1-.5v1l.5-1.5,1.5.5v-1l1.5-.5-.5-.5.5-.5,2.5-.5.5-2.5,1,.5-1.5-3,.5-1v-1l1,.5,1.5-.5,1.5-2.5,1.5,1.5,1.5-1,1,2.5h2l.5,1.5.5-1,2,1h1l.5,2,3-2v-1.5l2,1.5,2.5,1,3.5-5-.5-1.5h3l.5-1,2,1,2.5,4-1.5,2.5.5,5-.5,4.5-1.5,1.5-2.5,1-4-.5-2.5,1.5-4,.5-2,4-8.5,4-.5,3.5-4.5,1.5v3.5l-2,.5-6.5,7,.5,2-.5,3.5-4,.5.5,5-3,3-3.5.5-2.5,3-3-5-.5-6.5-1-3-9-9.5-5.5-7.5-4.5-2-2.5-3.5"/>
    </g>
</svg>