<svg data-code="RU-VOR" xmlns="http://www.w3.org/2000/svg" viewBox="0 0 512.25 527.77">
  <g data-code="voronezhskaja_oblast_" data-title="voronezhskaja_oblast&amp;apos;">
    <path data-code="anninskij_rajon" data-title="anninskij rajon" d="M252.67,207.23l1.38-2.75,5.51-5.51-1.38-1.38,2.75-2.75,4.13,2.75,6.89-9.64,4.13,4.13,9.64-1.38,2.75-2.75,8.26,5.51,1.38-1.38v-2.75l1.38-1.38,5.51,2.75,1.38-2.75h13.77l15.16,14.15-2.75,1.38,8.26,2.75-2.75,2.75-1.38,6.89,1.38,2.75h4.13v5.51l5.51,8.26,19.28,11.02-2.75,2.75-1.38,9.64h-1.38l-4.13,4.13,4.13,2.75-19.28,8.26-1.38,5.51-5.52,3.76-2.75-9.64-12.4-5.51-1.38,2.75,1.38,1.38-6.89,6.89-4.13-5.51v-10.65l4.13-6.89-1.38-5.51h-2.75l1.38-2.75-12.4-2.75-9.64-12.4-1.38,2.75-5.51,5.51h-5.51l-6.89,4.13,2.76,2.75-12.4-4.13-6.89-16.53-7.85-10.47,7.85-6.43Z"/>
    <path data-code="bobrovskij_rajon" data-title="bobrovskij rajon" d="M194.83,213.11l11.02-5.51-1.38-2.75,6.89,2.75,12.4-8.26,1.38,1.38,9.64-8.26,5.51,1.38v13.77l12.4,16.53,6.89,16.53,12.4,4.13-2.75,6.2-4.15,1.69h-2.75v8.64l-5.52,2.38,1.38,2.75-6.89,4.13v8.26l4.13,4.13-8.4,6.94-2.62-2.43-17.91,5.51-4.13-4.13-4.14,1.38,1.38,4.13-5.51,4.13-9.63-11.02-2.76,4.13-4.13,2.75,2.75,11.02h-2.75l-5.51,5.51-16.53-6.89v2.75h-1.38l-2.75-15.15,13.77-6.89-1.38-15.15h1.38l-2.75-5.51h8.26l2.75-11.02,4.13-2.75v-4.13h-4.13v-2.75l-2.75-8.26h2.75l1.38-4.13,5.5-2.75-5.51-5.51,4.13-2.75-4.13-6.89"/>
    <path data-code="bogucharskij_rajon" data-title="bogucharskij rajon" d="M108.06,437.62l8.26-4.51,9.64,1.38,17.91,8.26,13.77-2.75,9.85,2.04,2.55,4.85,4.13-1.38,1.38,4.13-6.89,5.51-4.13,11.02,1.38,9.64-2.75,1.38h8.26v2.75l-4.13-1.38-1.38,5.51,5.51,9.64-4.13,9.64,2.75,2.75-2.75,5.51v4.51l5.51,2.75-4.13-1.38-17.91,9.64-12.4-8.26-5.51,5.51-12.4-11.02-5.51,4.13,1.38,2.75-4.13-2.75-12.4,5.51-13.77-12.4-2.75-9.64,13.77-6.89,2.75-9.64-1.38-4.13,4.13-1.38-5.51-12.4,4.13-4.13,4.13-8.26-1.38-4.13,4.13-12.4"/>
    <path data-code="borisoglebskij_gorodskoj_okrug" data-title="borisoglebskij gorodskoj okrug" d="M412.46,327.43l12.4,4.13v-1.38l2.75-1.38,4.13,1.38,4.13-5.51,4.13,2.75,4.13-5.51,4.13-2.75-1.38-1.38,2.75-6.89,5.51-1.38,5.51,2.75,4.13-2.75,12.4,8.26,5.51-2.75v-5.51h12.4l5.51,1.38-2.75,8.26,2.75,4.13-1.38,8.26,12.4,17.91-2.75,12.4-5.51-3.13-2.75,6.89-6.89,1.38-5.51-8.26-5.51,8.26-6.89-5.51-4.13,4.13-9.64-4.13-2.75,4.13-6.89-2.75-6.89,8.26-1.38-4.13-2.75,1.38-4.13-2.75,2.75-4.13-4.13-1.38,2.75-5.51-1.38-5.51,1.38-2.75-6.89-4.13v5.51l-1.38,4.13h-2.75v-3.76l-2.76,2.38-12.39-9.27v-4.13h1.38v-4.13h-2.75l-1.39-4.59,2.77-.92Z"/>
    <path data-code="buturlinovskij_rajon" data-title="buturlinovskij rajon" d="M200.34,287.49h4.13l9.64,11.02,5.51-4.13-1.38-4.13,4.13-1.38,4.13,4.13,17.91-5.51,5.5,5.14,1.38,12.4,8.26-2.75,2.75,9.64,5.51,6.89,4.13-1.38,2.75,4.13,4.13-1.38v-2.75l5.51,2.75h6.89l4.13,6.89-1.38,12.4-4.13,4.13-1.38,8.26-4.13,2.75,5.08.73-2.32,4.78-4.13,2.75-9.64-5.51,1.38-4.13-8.26-5.51-8.26,5.51-12.4,2.75-1.38,4.13-5.51,1.38-4.13-5.51-6.89,2.75-5.51-4.13,2.75,4.13-9.64,6.89-12.4-6.89,4.13,1.38-6.89-20.66,1.38-4.13,2.75-1.38-1.38-2.75,2.75-1.38-2.75-1.38-2.75-9.64,2.75-6.89,4.13-3.76-6.89-2.75-2.75-11.02,4.13-2.75-1.38-4.13"/>
    <path data-code="ehrtil_skij_rajon" data-title="ehrtil&amp;apos;skij_rajon" d="M328.43,148l8.26-5.51,5.51-11.02,1.38,3.13,6.89,1.38,1.38,6.89h5.51l16.53,15.15,1.38,11.02,1.38-2.75h4.13l5.51,11.02-2.75,5.51-5.51,2.75v2.75l-13.77,9.64,9.64,4.13,1.38,5.51-1.38,1.38h6.89l-5.51,11.02,6.89,4.13-9.64,8.26-5.51-5.51-7.84,12.05-11.44-6.54-5.51-8.26v-5.51h-4.13l-1.38-2.75,1.38-6.89,2.75-2.75-8.26-2.75,2.75-1.38-15.16-14.15v-2.75h4.13l2.75-4.13h4.13l-4.13-6.89-5.51-1.38,1.38-2.75h2.75v-5.51l2.75-1.38-5.51-2.75,4.13-4.13-1.38-2.75,4.13-4.13-1.38-1.38"/>
    <path data-code="gribanovskij_rajon" data-title="gribanovskij rajon" d="M364.25,246.17l2.75-2.75h6.89l5.51-4.13,5.51,1.38,2.75,4.13-4.13,6.89-2.75-1.38-2.75,2.75,2.75,5.51,11.01,12.02,4.13,1.38,2.75-1.38,1.38,4.13h-2.75l9.64,8.26h4.13l5.51-9.64,2.75,1.38,2.76,18.28,4.13-2.75,2.75,2.75,12.4-2.75v-5.51l9.64-1.38,4.13-6.89,4.13,2.75,2.75-1.38,2.75,4.13-1.38,6.89,5.51,2.75,2.75-12.4h2.75v-4.13l2.75-1.38,2.75,6.89,1.38,1.38,1.38-2.75,2.75,2.75,1.38,8.26,2.75,1.38-1.38,2.75-4.13-1.38-1.38,5.51-5.51,4.13h5.51l1.38,9.64-1.38,2.75-5.51,2.75-12.4-8.26-4.13,2.75-5.51-2.75-5.51,1.38-2.75,6.89,1.38,1.38-4.13,2.75-4.13,5.51-4.13-2.75-4.13,5.51-4.13-1.38-2.75,1.38v1.38l-12.4-4.13-12.4,4.13-6.89-6.89-4.13,1.38-5.51-2.75-4.13-6.89-4.13-2.75,4.13-5.51-4.13-4.13,2.75-1.38-4.13-8.26-9.64-2.75-8.26-9.64,2.75-12.4,2.75-6.89-4.13-2.75,4.13-4.13h1.38l1.38-9.64"/>
    <path data-code="kalacheevskij_rajon" data-title="kalacheevskij rajon" d="M200.34,379.4v-5.51l8.26,1.38,1.38,2.75,17.91-8.26,5.51,11.02-1.38,11.02,9.64,8.26,16.53,1.38,8.26,11.02,6.89-2.75,8.26,2.75,4.13-2.75,2.75,2.75,4.13-2.75,4.13-1.38v5.88l6.89,4.13-2.75,6.89-5.51-1.38-13.77,6.89v16.53l-4.13,11.02-22.04,12.4-5.51,1.38-1.38,4.13-2.75-4.13-8.26,2.75v-1.38l1.07-1.13-2.45-6.13,1.38-12.4-5.51-4.13-11.02,2.75,1.38-8.26-6.89-2.75-2.75-6.89v-15.15l-2.75-1.38-1.38,2.75-9.64-4.13-8.26,7.26-1.38-1.38-6.06,6.28-.83-6.65,13.77-20.66-11.02-6.89,4.13-2.75,1.33-10.76,9.69-1.64Z"/>
    <path data-code="kamenskij_rajon__voronezhskaja_oblast_" data-title="kamenskij_rajon_(voronezhskaja_oblast&amp;apos;)" d="M75,261.32l6.88,6.51,13.77-2.75v-6.89l5.51-1.38,1.38-2.75,11.02-5.51-1.38-4.13,6.89,5.51,4.21-4.21,17.84,12.84-1.38,2.75,5.51-1.38,4.13,6.89,2.75-1.38,9.64,17.91-5.51,1.38-1.38,2.75-9.64-4.13-2.75,4.13h-6.89l-1.38,4.13-4.13-1.38-6.89,4.13-2.75-5.51-4.13,1.38-2.75,6.89-12.4-4.13-17.01-.59-5.03-8.05-2.75,4.13-3.33-6.67-4.92-1.22v-2.75l6.89-6.89v-2.75l1.38-2.75-1.38-4.13"/>
    <path data-code="kantemirovskij_rajon" data-title="kantemirovskij rajon" d="M17.15,395.93l2.75,8.26,5.51-2.75,5.51,9.64,6.89-4.13,15.15,1.38-6.89-13.77,2.75-1.38-1.38-2.75,4.13-2.75,2.75,4.13,6.89,1.38-2.75,4.13,8.26,4.13,4.13-4.13,6.89,4.13-4.13,4.13,4.13,4.13-8.26,11.02,11.02,6.89-2.75,2.75,4.13,5.51h4.13l4.13-5.51,6.89,2.75v4.13l6.89,1.38,2.15,4.95-2.15,6.44,1.38,4.13-4.13,8.26-4.13,4.13,5.51,12.4-4.13,1.38,1.38,4.13-2.75,9.64-13.77,6.89-11.02-12.4-4.13,2.75-9.64-2.75-11.02-6.89-4.13,2.75h-5.51l-8.26-5.51-1.38-9.64-6.89-9.64,5.51-20.66h2.75l-12.4-15.15-8.26-1.38-6.89-8.26-1.38-5.51,1.38-6.89,4.13-4.51v-6.89l11.02,5.51Z"/>
    <path data-code="kashirskij_rajon__voronezhskaja_oblast_" data-title="kashirskij_rajon_(voronezhskaja_oblast&amp;apos;)" d="M160.4,145.62l13.77-4.13,4.13,1.38,7.48-8.23,4.91,2.35-1.38,4.13,9.64,4.13,4.13,8.26,11.02,8.26,12.4,4.13-1.37.37,1.38,4.13,8.26,5.51,4.13,8.26-4.13,8.26-9.64,8.26-1.38-1.38-12.4,8.26-6.89-2.75,1.38,2.75-8.26,4.13-1.38-4.13h1.38l1.38-13.77-6.89,1.38-1.38-6.89-6.89-5.51-5.51-1.38,1.38-4.13h-6.89l-4.13-4.13-9.65-3.13,9.64-4.13,2.75,1.38v-1.38l5.51-5.51-2.75-1.38-1.38,1.38-1.38-2.75-1.38,2.75-2.75-1.38,1.38-1.38-3.95-2.35-4.31-9.67"/>
    <path data-code="khokhol_skij_rajon" data-title="khokhol&amp;apos;skij_rajon" d="M142.49,95.66l1.38-6.89,5.51-11.02,13.77-4.13,6.89,6.89-4.13,4.13-1.38,5.51,1.38,8.26h2.75l-1.9,3.91-2.22.59,1.38,1.38,2.75-4.51h5.51l1.38-3.76,4.13,2.38-2.75,2.75,4.13,4.13-1.37,1.75v9.27l5.51,2.75-6.89,2.75,4.13,2.75,3.34,10.05-7.47,8.23-4.13-1.38-13.77,4.13,5.51,12.4-2.75,1.38-1.39,7.89-9.64,6.89-5.5-5.14-4.13,1.38-8.28-10.01-2.88-.72,4.25-6.17-4.13-2.75-1.38-6.89-11.01-6.89-2.75-23.04,9.64-2.75-2.75-2.75,6.89-9.64,1.37-8.64,11.02,5.51Z"/>
    <path data-code="liskinskij_rajon" data-title="liskinskij rajon" d="M130.09,198.96l2.75-1.38,1.38,1.38,1.38-1.38,1.38,1.38,4.13-4.13,2.75,5.51,5.51-17.91,2.75,1.38,4.13-2.75-1.38-2.75,1.38-1.38,8.27-5.14,4.13,1.38,4.13,4.13h6.89l-1.38,4.13,5.51,1.38,6.89,5.51,1.38,6.89,6.89-1.38-1.38,13.77h-1.38l1.38,4.13-2.75,1.38,4.13,6.89-4.13,2.75,5.51,5.51-5.51,2.75-1.38,4.13h-2.75l2.75,8.26v2.75h4.13v4.13l-4.13,2.75-2.75,11.02h-8.26l2.75,5.51h-1.38l1.38,15.15-13.78,6.89-15.14-6.89,5.51-1.38-9.64-17.91-2.75,1.38-4.13-6.89-5.51,1.38,1.38-2.75-17.84-12.84,1.3-1.3-1.38-1.38,5.52-9.27,4.13,1.38,2.75-2.75-4.13-4.13,1.37-5.88h4.13v-2.75l1.38,1.38,1.38-4.13-1.38-1.38,5.51-6.89-4.13-5.51-8.26-1.38-1.38-2.75"/>
    <path data-code="nizhnedevickij_rajon" data-title="nizhnedevickij rajon" d="M105.3,43.32l5.51-4.13,5.51,6.89,4.13-6.89,12.4,12.4,5.51,2.75,5.51-2.75v5.51l5.51,2.75v8.26l-1.38,1.38,15.15,4.13-13.77,4.13-5.51,11.02-1.38,6.89-11.02-5.51-1.37,8.64-6.89,9.64,2.75,2.75-9.64,2.75,1.37,12.02-4.13-4.13h-8.26v8.26l-8.26,2.75-2.75,2.75-6.89-5.51h1.38l1.38-9.64,2.75-2.75-2.75-2.75-9.64,1.38,1.38-8.26-1.38-1.38,6.89,2.75,2.75-2.75-1.38-2.75,2.75-4.13,4.13,2.75,2.75-4.13-6.89-2.75v-4.13l4.13-1.38v-5.51h4.13l1.38-4.13,2.75-1.38-1.38-4.13,4.13-2.75-1.38-28.92"/>
    <path data-code="novokhoperskij_rajon" data-title="novokhoperskij rajon" d="M302.26,321.55l1.38,1.38-1.38-2.75,5.51-6.89,5.51-4.13,8.26,1.38,5.51-5.51-1.38-1.38h5.51v-4.13l1.38-2.75,6.89,4.13,4.13-5.51h-2.75l2.75-4.13-6.89-6.89,2.75-1.38,1.38-6.51,1.38-5.51,19.28-8.26-5.51,19.28,8.26,9.64,9.64,2.75,4.13,8.26-2.75,1.38,4.13,4.13-4.13,5.51,4.13,2.75,4.13,6.89,5.51,2.75,4.13-1.38,4.13,4.13,2.75,9.27-2.75,2.75-1.38,9.64-11.02,4.13-11.02,11.02-4.13,1.38v1.38l-37.19-6.89-9.64,5.51-5.51,9.64-1.38-2.75-17.91-2.75,2.75-6.89-8.26-5.51,1.38-2.75-9.64-1.38,4.13-2.75,1.38-8.26,4.13-4.13,1.38-12.4,6.89-5.51Z"/>
    <path data-code="novousmanskij_rajon" data-title="novousmanskij rajon" d="M192.07,131.47l4.13,2.75,2.75-6.89h4.13l1.38,2.75,2.75-5.51h-1.38l1.38-4.13,2.75-4.13,1.38,1.38,2.75-8.26,2.75,2.75,1.38-2.75,5.51,2.75v-2.75l9.64,2.75v-6.89l2.75,1.38,2.75-2.75-8.26-6.89,8.26-5.51,5.51,2.75,7.43,11.08-3.3,1.32,1.38,1.38-4.13,1.38v2.75l2.75,1.38,2.75-1.38,9.64,5.51h4.13v-2.75l4.13,1.38v9.64l-2.75-2.75-9.64,6.89,1.38,13.77h2.75l1.38-4.13,4.13-2.75,6.89,2.75-2.75,8.26-1.38-1.38-1.38,8.26-9.64,1.38v5.51l-12.4-4.13-4.13,6.89-15.15,1.38-12.4-4.13-11.02-8.26-4.13-8.26-9.64-4.13,1.38-4.13-4.91-2.35,6.29-3.16Z"/>
    <path data-code="novovoronezh" d="M161.77,167.29l1.39-7.89,2.75-1.38-1.21-2.72,3.95,2.35-1.38,1.38,2.75,1.38,1.38-2.75,1.38,2.75,1.38-1.38,2.75,1.38-5.51,5.51v1.38l-2.75-1.38-4.13,4.13h-5.51l-2.75,6.89-2.53-3.9,8.04-5.74Z"/>
    <path data-code="ol_khovatskij_rajon" data-title="ol&amp;apos;khovatskij_rajon" d="M48.83,287.12l8.26-2.75,1.38,1.38,2.75-2.75,8.26,1.38,2.75-4.13,4.13,8.26,2.75-4.13,6.89,11.02-2.75,2.75-1.38,5.51,9.64,13.77-6.89,11.02-5.51,4.13-1.38,12.4-6.89-2.75-2.75,2.75v1.38l-9.64,4.13-6.89,6.89-4.13-2.75-5.51,4.13-12.4-2.75v-8.26l2.75-2.75-2.75-5.51,5.51-2.75,4.13-6.89-1.38-4.13,4.13-2.75-5.51-9.64,4.13-2.75h8.26l-1.38-5.51v-5.51l2.75-5.51-2.75-4.13,1.38-2.75"/>
    <path data-code="ostrogozhskij_rajon" data-title="ostrogozhskij rajon" d="M63.98,211.36l2.75-4.13,5.51-1.38,1.38-5.51,1.38,4.13,2.75-5.51-1.38-1.38h6.89l1.38,6.89h5.51v4.13l1.38-5.51,4.13-1.38-4.13-2.75,2.75-2.75-1.38-6.89h8.26l6.89,4.13,1.38-4.13,4.13-2.75,4.13-5.51,4.13-9.64,4.13,1.38,5.51-2.75-2.75-11.02,5.51,1.38,8.28,10.01,4.13-1.38,5.5,5.14,1.6-1.15,2.53,3.9,2.75-6.89,5.52,1.75-8.27,5.14-1.38,1.38,1.38,2.75-4.13,2.75-2.75-1.38-5.51,17.91-2.75-5.51-4.13,4.13-1.38-1.38-1.38,1.38-1.38-1.38-2.75,1.38,1.38,2.75,8.26,1.38,4.13,5.51-5.51,6.89,1.38,1.38-1.38,4.13-1.38-1.38v2.75h-4.13l-1.37,5.88,4.13,4.13-2.75,2.75-4.13-1.38-5.52,9.27,1.38,1.38-5.51,5.51-6.89-5.51,1.38,4.13-11.02,5.51-1.38,2.75-5.51,1.38v6.89l-13.77,2.75-2.75-11.02-8.26-5.51,2.75-4.13,4.13-1.38-6.89-6.89-2.75,1.38-1.38-2.75h2.75l-1.38-1.38-8.26-8.26,8.26-4.13-1.38-1.38,2.75-1.38,2.75,2.75,2.75-1.38-9.64-5.51-1.38-5.51"/>
    <path data-code="paninskij_rajon" data-title="paninskij rajon" d="M226.51,165.91l15.15-1.38,4.13-6.89,12.4,4.13v-5.51l9.64-1.38,1.38-8.26,1.38,1.38,2.75-8.26,1.38,4.13,4.13-5.51,19.28,9.64,8.26,1.38v2.75l4.13,4.13,4.13-1.38,5.51,4.13,6.89-2.75-4.13,4.13,5.51,2.75-2.75,1.38v5.51h-2.75l-1.38,2.75,5.51,1.38,4.13,6.89h-4.13l-2.75,4.13h-4.13v2.75h-13.77l-1.38,2.75-5.51-2.75-1.38,1.38v2.75l-1.38,1.38-8.26-5.51-2.75,2.75-9.64,1.38-4.13-4.13-6.89,9.64-4.13-2.75-2.75,2.75,1.38,1.38-5.51,5.51-1.38,2.75-7.85,6.43-4.54-6.06v-13.77l-5.51-1.38,4.13-8.26-4.13-8.26-8.26-5.51-1.38-4.13,1.37-.37Z"/>
    <path data-code="pavlovskij_rajon__voronezhskaja_oblast_" data-title="pavlovskij_rajon_(voronezhskaja_oblast&amp;apos;)" d="M156.27,284.73l15.14,6.89,2.75,15.15h1.38v-2.75l16.53,6.89,5.51-5.51h2.75l6.89,2.75-4.13,3.76-2.75,6.89,2.75,9.64,2.75,1.38-2.75,1.38,1.38,2.75-2.75,1.38-1.38,4.13,6.89,20.66-4.13-1.38,12.4,6.89,4.13,8.26-9.64,4.13-1.38-2.75-8.26-1.38v5.51l-6.89,2.75-6.89-2.75-13.77,8.26-13.77-4.13-8.26,2.75v5.51l-1.38,1.38-2.75-1.38-2.75-5.51v4.13l-5.51,6.89-8.26-2.75-4.13-6.89-2.75-13.77,4.13-5.51h5.51l13.77-9.64,1.38,1.38,1.38-2.75,4.13-1.38-2.75-2.75v-6.89h2.75l-1.38-2.75,2.75,2.75,1.38-2.75-8.26-20.66,1.38-4.13,4.13,1.38,4.13-4.13h-4.13v-4.13l-2.75-13.77,4.14-10.65,1.38-2.75Z"/>
    <path data-code="petropavlovskij_rajon__voronezhskaja_oblast_" data-title="petropavlovskij_rajon_(voronezhskaja_oblast&amp;apos;)" d="M174.17,440l9.64-6.89-.55-4.36,6.06-6.28,1.38,1.38,8.26-7.26,9.64,4.13,1.38-2.75,2.75,1.38v15.15l2.75,6.89,6.89,2.75-1.38,8.26,11.02-2.75,5.51,4.13-1.38,12.4,2.75,6.89-5.51,4.13,4.13,11.02-2.75,8.26-5.51-1.38-9.64,5.51-11.02-5.51-16.53,4.13-12.4,9.64-6.89,9.64-5.51-1.38v-5.51l2.75-5.51-2.75-2.75,4.13-9.64-5.51-9.64,1.38-5.51,4.13,1.38v-2.75h-8.26l2.75-1.38-1.38-9.64,4.13-11.02,6.89-5.51-1.38-4.13-4.13,1.38-2.55-4.85,6.68-2.04Z"/>
    <path data-code="podgorenskij_rajon" data-title="podgorenskij rajon" d="M101.17,293l12.4,4.13,2.75-6.89,4.13-1.38,2.75,5.51,6.89-4.13,4.13,1.38,1.38-4.13h6.89l2.75-4.13,9.64,4.13-4.14,10.65,2.75,13.77v4.13h4.13l-4.13,4.13-4.13-1.38-1.38,4.13,8.26,20.66-1.38,2.75-2.75-2.75,1.38,2.75h-2.75l2.75,11.02h-4.13l-1.38,2.75-1.38-1.38-13.77,9.64h-5.51l-4.13,5.51-9.64-2.75,4.13-5.51-4.13-2.75,1.38-5.51h-2.75l2.75-4.13-20.66-8.26-1.38-6.89-5.51-2.75-1.38-4.13,2.75-1.38-4.13-2.75,6.89-9.64-9.64-13.77,1.38-5.51,2.75-2.75-1.85-2.97,17.01.59Z"/>
    <path data-code="povorinskij_rajon" data-title="povorinskij rajon" d="M400.06,331.56l9.63-3.21,1.39,4.59h2.75v4.13h-1.38v4.13l12.39,9.27,2.76-2.38v3.76h2.75l1.38-4.13v-5.51l5.51,2.75,1.38,1.38-1.38,2.75,1.38,5.51-2.75,5.51,4.13,1.38-2.75,4.13,4.13,2.75,2.75-1.38,1.38,4.13,6.89-8.26,6.89,2.75,2.75-4.13,9.64,4.13,4.13-4.13,6.89,5.51,5.51-8.26,5.51,8.26,6.89-1.38,2.75-6.89,5.51,2.75-1.38,9.64,2.75,1.38-6.89,8.26-1.38,4.13,4.13,13.77-9.64,1.38-15.15-12.4-8.26,1.38-12.4,6.89-4.13-1.38-11.02-6.89v-2.75l-13.77-4.13-12.4-6.89-12.4-16.53v-5.51l-11.02-1.38,1.38-9.64,2.75-2.75-2.75-9.27,2.75,2.75Z"/>
    <path data-code="ramonskij_rajon" data-title="ramonskij rajon" d="M197.58,24.04l6.89-5.51,5.51,4.13v-4.13l8.26-4.13,5.51,5.51-1.38,23.42,5.51,4.13h4.13l4.13-8.26,9.64,1.38-1.38-4.13,4.13,1.38,2.75,5.51,6.89-2.75,6.89,5.51-2.75,2.75,2.75-1.38-1.38,2.75h2.75l6.89,8.26-1.38,11.02-5.51,1.38-2.75,2.75h-11.02l-8.26,4.13,20.66,16.53h-2.75l-1.38,2.75,4.13,4.13-1.38,2.75-2.75-1.38v2.75l-5.51-1.38-3.59,1.43-7.43-11.08-5.51-2.75,2.75-6.89-5.51-2.75-9.64,5.51-8.26-1.38-16.13,6.91-1.77-6.91,2.75,1.38,2.75-8.26-1.38-5.51,2.75-12.4h2.75v-5.51l2.75,5.51,4.13-2.75-9.64-8.26-1.38,9.64-2.75-2.75,2.75-1.38-2.75-1.38,1.38-1.38-1.38-2.75-6.89,2.75-5.51-4.13v-2.75l6.89-6.89h-2.75l1.38-5.51-2.75,1.38,1.38-4.13,4.13-1.38-1.38-5.51"/>
    <path data-code="rep_jovskij_rajon" data-title="rep&amp;apos;jovskij_rajon" d="M72.24,135.61h5.51l9.64,6.89v-2.75l2.75-1.38,1.38-4.13,2.75,1.38,2.75-2.75,8.26-2.75v-8.26h8.26l4.13,4.13,1.38,11.02,11.02,6.89,1.38,6.89,4.13,2.75-4.25,6.17-2.63-.66,2.75,11.02-5.51,2.75-4.13-1.38-4.13,9.64-4.13,5.51-4.13,2.75-1.38,4.13h-2.75l-4.13-4.13,2.75-5.51-4.13-5.51,2.75-4.13-5.51-2.75-4.13,1.38-2.75-2.75-2.75,5.51h-8.26v-4.13l-2.75-1.38-1.38-8.26-2.75-2.75,4.13-2.75-4.13-2.75v-2.75l-2.75,2.75-4.13-5.51,6.89-6.89-1.38-2.75,1.38-2.75"/>
    <path data-code="rossoshanskij_rajon" data-title="rossoshanskij rajon" d="M7.51,384.91l4.13-2.75h1.38v-4.13l2.75,1.38,1.38-4.13h8.26l6.89-5.51-4.13-2.75v-2.75l2.75-2.75-1.38-2.75,5.19-1.6,7.21,1.6,5.51-4.13,4.13,2.75,6.89-6.89,9.64-4.13v-1.38l2.75-2.75,6.89,2.75,1.38-12.4,5.51-4.13v-1.38l2.75,1.38,1.38,1.38-2.75,1.38,1.38,4.13,5.51,2.75,1.38,6.89,20.66,8.26-2.75,4.13h2.75l-1.38,5.51,4.13,2.75-4.13,5.51,9.64,2.75,2.75,13.77-2.75,5.51-9.64,6.89-4.13,4.13h-1.38l-2.75,4.13,11.02,6.89-2.75,4.13,1.38,1.38-2.75,1.38,4.13,11.02-8.26,4.51-1.98,5.95-2.15-4.95-6.89-1.38v-4.13l-6.89-2.75-4.13,5.51h-4.13l-4.13-5.51,2.75-2.75-11.02-6.89,8.26-11.02-4.13-4.13,4.13-4.13-6.89-4.13-4.13,4.13-8.26-4.13,2.75-4.13-6.89-1.38-2.75-4.13-4.13,2.75,1.38,2.75-2.75,1.38,6.89,13.77-15.15-1.38-6.89,4.13-5.51-9.64-5.51,2.75-2.75-8.26-11.02-5.51,1.38-5.51"/>
    <path data-code="semilukskij_rajon" data-title="semilukskij rajon" d="M156.26,2l4.13-1.38,6.89,4.13,1.38-2.75,9.64,2.75,11.02-1.38,5.51,8.26,6.89-1.38,1.38-4.13h4.13l-2.75,12.4-6.89,5.51,1.38,5.51-4.13,1.38-1.38,4.13,2.75-1.38-1.38,5.51h2.75l-6.89,6.89v2.75l5.51,4.13,6.89-2.75,1.38,2.75-1.38,1.38,2.75,1.38-2.75,1.38,2.75,2.75,1.38-9.64,9.64,8.26-4.13,2.75-2.75-5.51v5.51h-2.75l-2.75,12.4,1.38,5.51-2.75,8.26-2.75-1.38,1.77,6.91-3.15,1.35-1.38-4.13-5.51,2.75,1.38,2.75-1.38,5.51-12.4,2.75-2.75-2.75,2.75-2.75-4.13-2.38-1.38,3.76h-5.51l-2.75,4.51-1.38-1.38,2.22-.59,1.9-3.91h-2.75l-1.38-8.26,1.38-5.51,4.13-4.13-6.89-6.89-15.15-4.13,1.38-1.38v-8.26l-5.51-2.75v-5.51l8.26-2.75-6.89-1.38v-9.64l1.38-2.75,8.26-2.75v-6.89l5.51-2.75v-4.13h4.13l1.38-5.51-8.26-4.13-2.75,2.75-1.38-1.38,4.13-5.51-1.38-2.75"/>
    <path data-code="talovskij_rajon" data-title="talovskij rajon" d="M262.32,252.68h2.75l4.15-1.69,2.75-6.2-2.76-2.75,6.89-4.13h5.51l5.51-5.51,1.38-2.75,9.64,12.4,12.4,2.75-1.38,2.75h2.75l1.38,5.51-4.13,6.89v10.65l4.13,5.51,6.89-6.89-1.38-1.38,1.38-2.75,12.4,5.51,2.75,9.64,5.52-3.76-1.38,6.51-2.75,1.38,6.89,6.89-2.75,4.13h2.75l-4.13,5.51-6.89-4.13-1.38,2.75v4.13h-5.51l1.38,1.38-5.51,5.51-8.26-1.38-5.51,4.13-5.51,6.89,1.38,2.75-1.38-1.38-6.89,5.51-4.13-6.89h-6.89l-5.51-2.75v2.75l-4.13,1.38-2.75-4.13-4.13,1.38-5.51-6.89-2.75-9.64-8.26,2.75-1.38-12.4-2.89-2.7,8.4-6.94-4.13-4.13v-8.26l6.89-4.13-1.38-2.75,5.51-2.75v-8.26"/>
    <path data-code="ternovskij_rajon" data-title="ternovskij rajon" d="M367,226.89l5.51,5.51,9.64-8.26-6.89-4.13,3.59-7.59,23.95,11.35,4.13-9.64h5.51l6.89,12.4,2.75,2.75,2.75-6.89,2.75,4.13-1.38,4.13,6.89,6.89v6.89l8.26,5.51-2.75,5.51,12.4,5.51-5.51,5.51,8.26,6.89,1.38,3.13-4.13,6.89-9.64,1.38v5.51l-12.4,2.75-2.75-2.75-4.13,2.75-2.76-18.28-2.75-1.38-5.51,9.64h-4.13l-9.64-8.26h2.75l-1.38-4.13-2.75,1.38-4.13-1.38-11.01-12.02-2.75-5.51,2.75-2.75,2.75,1.38,4.13-6.89-2.75-4.13-5.51-1.38-5.51,4.13h-6.89l-7.84-4.48,7.84-12.05Z"/>
    <path data-code="verkhnekhavskij_rajon" data-title="verkhnekhavskij rajon" d="M244.41,77.76l8.26-4.13h9.64l20.66,26.17,4.13-1.38,2.75,6.89,8.26-1.38v-1.38l5.51-2.75-1.38,2.75,9.64,9.64h5.51l1.38-4.13,5.51,2.75-1.38,1.38v5.51l6.89,2.75,4.13,9.64-1.38,1.38,5.51-2.75,4.13,2.75-5.51,11.02-8.26,5.51,1.38,1.38-4.13,4.13,1.38,2.75-6.89,2.75-5.51-4.13-4.13,1.38-4.13-4.13v-2.75l-8.26-1.38-19.28-9.64-4.13,5.51-1.38-4.13-6.89-2.75-4.13,2.75-1.38,4.13h-2.75l-1.38-13.77,9.64-6.89,2.75,2.75v-9.64l-4.13-1.38v2.75h-4.13l-9.64-5.51-2.75,1.38-2.75-1.38v-2.75l4.13-1.38-1.38-1.38,6.89-2.75,5.51,1.38v-2.75l2.75,1.38,1.38-2.75-4.13-4.13,1.38-2.75h2.75l-20.66-16.53"/>
    <path data-code="verkhnemamonskij_rajon" data-title="verkhnemamonskij rajon" d="M108.05,404.19h1.38l4.13-4.13,9.64-6.89,2.75-5.51,4.13,6.89,8.26,2.75,5.51-6.89v-4.13l2.75,5.51,2.75,1.38,1.38-1.38v-5.51l8.26-2.75,13.77,4.13,13.77-8.26,4.09,1.64-1.33,10.76-4.13,2.75,11.02,6.89-13.77,20.66,1.38,11.02-11.02,8.26-11.02,1.38-4.13-2.75-13.77,2.75-17.91-8.26-9.64-1.38-4.13-11.02,2.75-1.38-1.38-1.38,2.75-4.13-11.02-6.89,2.75-4.13"/>
    <path data-code="vorob_jovskij_rajon" data-title="vorob&amp;apos;jovskij_rajon" d="M215.49,365.62l9.64-6.89-2.75-4.13,5.51,4.13,6.89-2.75,4.13,5.51,5.51-1.38,1.38-4.13,12.4-2.75,8.26-5.51,8.26,5.51-1.38,4.13,9.64,5.51,4.13-2.75,2.32-4.78,4.56.65-1.38,2.75,8.26,5.51-2.75,6.89h-9.64l6.89,11.02,2.75,9.64-1.38,16.53-4.13,1.38-4.13,2.75-2.75-2.75-4.13,2.75-8.26-2.75-6.89,2.75-8.26-11.02-16.53-1.38-9.64-8.26,1.38-11.02-4.13-8.26-1.38-2.75-8.26,4.13-4.13-8.26"/>
    <path data-code="voronezh" data-title="voronezh" d="M179.67,103.93l12.4-2.75,1.38-5.51-1.38-2.75,5.51-2.75,1.38,4.13,19.28-8.26,8.26,1.38,9.64-5.51,5.51,2.75-2.75,6.89-8.26,5.51,8.26,6.89-2.75,2.75-2.75-1.38v6.89l-9.64-2.75v2.75l-5.51-2.75-1.38,2.75-2.75-2.75-2.75,8.26-1.38-1.38-2.75,4.13-1.38,4.13h1.38l-2.75,5.51-1.38-2.75h-4.13l-2.75,6.89-4.13-2.75-6.29,3.16-3.35-10.05-4.13-2.75,6.89-2.75-5.51-2.75v-9.27l1.37-1.75-1.38-1.38"/>
  </g>
</svg>