<svg id="RU-VLA" xmlns="http://www.w3.org/2000/svg" viewBox="0 0 141 163">
      <path data-code="VLA-ALE" d="m12.75,7.25l5-1v-2l1.5-1.5v-1l.5-1.5,3.5,1.5V.25h1v.5h-.5l-1,3,1.5,1.5v2l1,1-2,1v2.5l-1.5.5.5,1,3.5-1.5,2,1.5,1-.5.5,2.5,1.5-2.5h.5l-.5,1.5,2.5,1-1,1,.5.5-1,.5,2.5,4,7.5,1.5-.5,2,1.5,2.5-1,.5.5.5-1.5.5v1.5l-1.5-1,1.6,2.45-4.6-1.45-1,2-1.5.5v2l-1-.5-2.5,1.5-3.5-2,.5,2-1.5-.5-.5-2.5-1-.5-1.5,2h-1.5l-.5,1-1.5-1v-2l-2.5-.5v1l-2.5.5v1l-3,2-3.5-3.5-.5-3h-2v-2.5l1-1.5v-1h.5v-1l1.5.5,1-1-.5-1,1-1,2.5-2.5-1-2,1.5-1.5.5.5.5-2-1.5-.5v-.5l1-1.5-1-1.5,2-.5-1-.5-.5-1.5"/>
      <path data-code="VLA-GUS" d="m49.25,100.75l1,.5-.5.5h-.5v-1m-4,.5l.5.5h-1l.5-.5m1.5,3l1-.5.5.5-.5,2h-1.5l.5-2m.5,2.5l2.5.5-.5,1.5h1.5l-1.5,3-3.5-1,2-2.5-.5-1.5"/>
      <path data-code="VLA-GOR" d="m103.25,125.75l1.5-1.5,1.5,1-.5-2,1.5-1.5.5-1.5h2.5l1.5-2-1-1.5.5-1.5,2-.5,1,1,1-.5v-2l1.5-.5,1-1,1.5.5,1-2,2,.5v1l2.5-.5,2-1-.5-1,3.5-.5,1.5-1.5h1l1-2.5,2-.5.5-1.5h1l1-1,1.5,1,1.5,7-1,2,.5,1-3,.5-.5,3.5h-1.5v1l2.5.5-1.5.5.5,1,2.5,1,1-1v1l-1,.5,1.5.5-.5,1,.5,1-1.5,1-3.5-2-1.5.5-6-1,.5.5-1.5,2,1,1-1.5,1.5v.5l-1.5,2.5-1-2-1.5,1.5h-3.5l1-1.5-1-1-2.5,2-1.5,2-1.5.5-.5-1h-7v-1l-2,.5-1.5-.5v-.5l2-2-1.5-1.5"/>
      <path data-code="VLA-GUSM" d="m45.25,101.25l-.5.5h1l-.5-.5m4-.5v1h.5l.5-.5-1-.5m-2.5,3.5l-.5,2h1.5l.5-2-.5-.5-1,.5m.5,2.5l.5,1.5-2,2.5,3.5,1,1.5-3h-1.5l.5-1.5-2.5-.5m-16.4-18.15h4.4l-.5,1,2-.5,2,1.5,3-2,2,2.5-1,1,.5.5,1-1.5,2.5,1.5,2.5-2.5,2.5-1,2,1,1,2.5h1.5l.5,2.5,1-.5,1,1.5-1,.5,1.5.5-.5,1,2,2-2,1,1,.5,1.5-1.5,2,1.5-1,4.5,1,.5v-2h1.5l-.5,1.5,2.5,1.5.5,3-3.5,2h-1l1.5.5,1-1,1,1v1l2,.5,2-1,2.5,1.5-1.5,2.15-1.5.5,1.5,3v.5l-1-1-1,1,.5.5-.5,4.35-2,.65v1l-2,2.5h-4.5v1.5h-1.5v1.5h-1.5l-.5,2.5-1-1.5-.5.5h-1.5l-.5,1h-2l.5,1-2.5,1.5.5,1-1,.5-1.5-1.5-1.5,1.5.5,1.5-2,1.5-.5,1.5v-1.5l1.5-1.5-1-3.5,1-1-1-.5-2-2-1.5,2.5-2.5-.5v-1.5l-2-1-2,1-1-.5,1-1-4.5-1,2-2-1-2,1.5-1-.5-2,3.5-1.5v-1l-2.5-1-3.5,1.5-1.5-1-1,.5-1-2.5,1-1,2-.5-3-.5.5-2h-2.5l1-1-1-1,1-2-.5-2,1-1,1-1,1.5.5,1.5-2-.5-1,.5-1-3.5-2.5,2-3.5,1,1,1.5-1.5-.5-2.5,1.5-1v-1l-.9-5.15Z"/>
      <path data-code="VLA-YUR" d="m39.25,29.25l1.5,1v-1.5l3-1.5,1.5-1,.5-1,.5,1,2-2.5,1.5-3,2.5-.5-.5-1,2.5-3,2,.5v2l2,1.5.5-1h1l3-1,.5,1.5h.5l.5-1,1.5,1,2,5.5,3,1.5-6.5,8h-2l.5,1-1,.5,2,.5-1,1.5.5,3.5-2.5,1.5-.5,2.5h1.5v1l2-.5,2,1.5v2.5l1.5.5-1,2,1,1-1,1v1l-2.5,1,1-2.5-2-1.5-2.5,3-1,.5v1.5l-1.5.5-.5-1-.5.5-4,1-1.5-.5-.5-5h-2.5l1-1-1.5-1.15-1-4.35-1.5-1,1.5-1.5.5-1.5,1.5-.5-1.5-2,.5-1-.5-3-4-3-2.5,1-.5-2h1l-2-3"/>
      <path data-code="VLA-KAM" d="m73.75,65.1l3.5.5.5,1.5,1.5-.5,1-1.5,2.5-1v-1h2l1-2,3,1.5.5-2.35h1l.5,2.5h2l2,1.5-1,2,3.5,2-.5,1,.5,2-3.5,1v2l-3,1,1,1h-1.5v1l-1.5.5-1.5,2-1.5,1h-1.5v1l1.5,1-1.5.5.5.5-1.5,1.5,1.5,2-.25.8-2.25.1-2-3.5-1,.5-2-.5-1-1,1-.5-.5-1h-3.5l-1-1.5-2,1-1.5-1.5-.5-2.5,2-3.5h1.5v-1h1.5l1-3.5,3,.5-2-2v-1.5l-1.5-.5.5-.5-.5-.55"/>
      <path data-code="VLA-KIR" d="m6.25,31.75l1-.5.5,1.5,3.5,3.5,3-2v-1l2.5-.5v-1l2.5.5v2l1.5,1,.5-1h1.5l1.5-2,1,.5.5,2.5,1.5.5-.5-2,3.5,2-.5,1.5,1,1.5-3,.5-2,4v3h1l-1,2.5-3.5,2.5-2,1.5h-1.5v-1.5l-1.5.5-3-1.5-1,1-2.5-1-1,1.5-4.5,1.5-.5-5-1-1-3-1-.5-2,2-.5v-1l1-2-1-2.5,2-2v-1.5h.5l.5-1.5,1-1v-.5m1.5,20.85v.5l-.5-.5h.5Z"/>
      <path data-code="VLA-KOL" d="m27.75,39.25l3-.5-1-1.5.5-1.5,2.5-1.5,1,.5v-2l1.5-.5,1-2,4.6,1.45.4.55h-1l.5,2,2.5-1,4,3,.5,3-.5,1,1.5,2-1.5.5-.5,1.5-1.5,1.5,1.5,1,1,4.35-2,.65.5,1-1.5,1.5.5,1.5-1,.5-.5-1.5-2,.5.5.5-1.5,2-3,.5-1-.5,1-2.5-2-1-2.5.5v-1h-1l-.5,1.5-2-2-3,1-.5-3.5-2.5-.15,1-1.15,1-.7,1-2.5h-1v-3l2-4Z"/>
      <path data-code="VLA-KOV" d="m93.75,78.75l1,1,1.5-2v-.5l3.5-1,1,1-1.5.5,1,1-1,1.5v.5l-2.5,1,1,2.5-3.5-3.5.5-1h-1.5l.5-1"/>
      <path data-code="VLA-KOVM" d="m93.75,78.75l-.5,1h1.5l-.5,1,3.5,3.5-1-2.5,2.5-1v-.5l1-1.5-1-1,1.5-.5-1-1-3.5,1v.5l-1.5,2-1-1m-8,2l1.5-1,1.5-2,1.5-.5v-1h1.5l-1-1,3-1v-2l3.5-1-.2-.85-.3-1.15,1.5-1,3,3,3.5,1,3,3h2l-1,1.5,1,1.5,5-.5.5.5-1,1,1.5,1,3,1.5,2.5-1,.5,1.5v.5h-.5l.5,2-2,2-8-.65.5-1,2.5.65-1.5-1.5-2.5,1.85-1-1-.5,1.5-2,1-2-.5v2l-4.5.5-.5,1,1.5.5,2,2.5-.5,1.5h.5l-.5.5-.5,1-5-.5-2,2.5v1h-.5l1,.5-1,2h-2l5.5,5v1.5l-1.5-1-4,1.5v-1l.5-2-.5-1h-1l-.5.5-5-2.5-2.5,1-1.5-1,1.5-2,1,.5,1-1-1.5-1-3,1v-.5l3-.5-2.5-1.5v-3.5l-2-.5,1.5-.5,1-2.85.5-.5-.5-.5,1.5-1,.5-1.5-1.5-2,1.5-1.5-.5-.5,1.5-.5-1.5-1v-1h1.5Z"/>
      <path data-code="VLA-MEL" d="m46.25,139.75l1.5-1.5,2.5,1-.5-1,2.5-1.5-.5-1h2l.5-1h1.5l.5-.5,1,1.5.5-2.5h1.5v-1.5h1.5v-1.5h4.5l2-2.5v-1l2-.65,2,.5,3-1.5,1,3.5,7.5,5.15-1.5,4,.5,2-1.5.5.5,1,2.5,1,1,3h2v1.5l2,.5.5,2-4,2-1-1.5-2.5,1.5-2.5,2.5-1-2-.5,2-1,2h-5v3h-2v1.5l-.5.5-1.5-1-1.5.5-1.5.5v2h-.5l.5-2-5-2,1-2-2-1,.5-2.5-2-.5-3,.5.5-.5v-2l-1.5-3,.5-3-4.5-2.5h-2.5l-.5-.5,1-.5-.5-1.5"/>
      <path data-code="VLA-MUR" d="m84.25,141.75l2-2,.5-1.5,2-1.5,2-1,2.35,2.35-2.35,1.65-1,4-1.5-1.5-3.5,1-.5-1.5"/>
      <path data-code="VLA-MURM" d="m83.75,125.75l2.5-.5v-1.5l6,.5,3-2.5-.5,2.5,2.5-1,2,1,1-2.5,1.5-.5.5-1.5,2.5-1-1.5,2,.5,1h1.5l2-2,.5.5-.5,1.5-1.5,1.5.5,2-1.5-1-1.5,1.5,1.5,1.5-2,2v.5l1.5.5,2-.5v1h7l.5,1-3.5,1-1.5,1.5-5-1-2,1.5h-2l-2,2-1.5-1-2,3.5-3.5-3.5-2,1-2,1.5-.5,1.5-2,2,.5,1.5,3.5-1,1.5,1.5-2,1.5.5,2-.5.5-1.5-1v-1.5h-2l-1-3-2.5-1-.5-1,1.5-.5-.5-2,1.5-4-3.05-2.1,2.05-.9,1-1.5-.5-1,1.5-2.5"/>
      <path data-code="VLA-PET" d="m7.25,52.6l.5.5v-.5h-.5m-2,.5l4.5-1.35,1-1.5,2.5,1,1-1,3,1.5,1.5-.5v1.5h1.5l4.5-3.3-1,1.15,2.5.15.5,3.5,3-1,2,2,.5-1.5h1v1l2.5-.5,2,.85-1,2.65,1,.5,3-.5-1,1.35.5,1v2l-2,3.5,1.5,1.5-2.5,2.5-.5,3h-1l-1.5,2-1.5.5-1,2-1.5-1-.5,2h-3l-.5,2-1.5-1-.5-2-1.5.5-2-1.5-2,2.5-1.5-1,1-1.5-1.5-2.5-2.5-.5,1-4,2-.5.5-1h-3l-5.5-5,1.5-1v-2.5l1-.5,1-.5-1.5.5-.5-1.5,2-.5-3.5-.5-1.5-2.5-3,1,.5-1.5Z"/>
      <path data-code="VLA-ZRA" d="m49.75,80.6h3l-.7-2.65,2.7,2.65-2,3-1-.5v2l.5,1-1,2-1.5-1-3,5.5-2.5-1.5.5-2h1l1-1.5-.5-.5.5-1,.5.5,3-4.5-.5-1.5"/>
      <path data-code="VLA-SEL" d="m69.75,117.75l1.5-.5,1.5-2.15-.5,2.5h1.5l2-.5.5-2h2v-1h2l.5-3h1v-1l.5-.5v-1l2.5-3-.5-1.5,2.5-1,5,2.5.5-.5h1l.5,1-.5,2v1l4-1.5,1.5,1,.5,4h2.5l.5.5-1,1.5,1,.5,1-1,1.5,1-1,2,1,1.65-2.5,1-.5,1.5-1.5.5-1,2.5-2-1-2.5,1,.5-2.5-3,2.5-6-.5v1.5l-2.5.5-1.5,2.5.5,1-1,1.5-2.05.9-4.45-3.05-1-3.5-3,1.5-2-.5.5-4.35-.5-.5,1-1,1,1v-.5l-1.5-3Z"/>
      <path data-code="VLA-SOB" d="m41.75,55.25l2-.5.5,1.5,1-.5-.5-1.5,1.5-1.5-.5-1,2-.65,1.5,1.15-1,1h2.5l.5,5,1.5.5,4-1,.5-.5.5,1-3.5,3.35.5,2-1,1,1.5.5.5,2.5,2,1h-2.5v3l-2-1.5.5,1.5h-1l.5.5-1,.5h2l-1.5,1,.5,2.5-1.2,1.85.7,2.65h-3l.5,1.5-3,4.5-.5-.5-.5,1,.5.5-1,1.5h-1l-.5,2-1,1.5-.5-.5,1-1-2-2.5-3,2-2-1.5-1,1-1-.5.5-1h-5l.5-3.5,2-1.5.5-2.5-3.5-3,.5-2,1.5,1,1-2,1.5-.5,1.5-2h1l.5-3,2.5-2.5-1.5-1.5,2-3.5v-2l-.5-1,2.5-3.35-.5-.5Z"/>
      <path data-code="VLA-SUD" d="m53.25,76.1l4,3,3-1.5.5,1,1-.5.5.5-1,2.5,3,2,1.5-1.5h1.5l1-2,2,2,2-1,1,1.5h3.5l.5,1-1,.5,1,1,2,.5,1-.5,2,3.5,2.25-.1-.25.7-1.5,1,.5.5-.5.5-1,2.85-1.5.5,2,.5v3.5l2.5,1.5-3,.5v.5l3-1,1.5,1-1,1-1-.5-1.5,2,1.5,1,.5,1.5-2.5,3v1l-.5.5v1h-1l-.5,3h-2v1h-2l-.5,2-2,.5h-1.5l.5-2.5-2.5-1.5-2,1-2-.5v-1l-1-1-1,1h.5l-1,.5-1-1h1l3.5-2-.5-3-2.5-1.5.5-1.5h-1.5v2l-1-.5,1-4.5-2-1.5-1.5,1.5-1-.5,2-1-2-2,.5-1-1.5-.5,1-.5-1-1.5-1,.5-.5-2.5h-1.5l-1-2.5-2-1-2.5,1-2.5,2.5,3-5.5,1.5,1,1-2-.5-1v-2l1,.5,2-3-2.7-2.65,1.2-1.8Z"/>
      <path data-code="VLA-SUZ" d="m54.25,61.6l3.5-3.35,1.5-.5v-1.5l1-.5,2.5-3,2,1.5-1,2.5,2.5-1.15v-1l1-.5-.5-1.5h2.5l.5-1,6.5-1v1.5l1.5-1,.5,1,3-2,1.5.5,1.5-.5.5,2.5,5,2,.5,2.5h.5l-1,1.5,1,2h-1.5l-.5,2-3-1.5-1,2h-2v1l-2.5,1-1,1.5-1.5.5-.5-1.5-3.5-.5.5.5-.5.5,1.5.5v1.5h1l1,2-3-.5-1,3.5h-1.5v1h-3v2l-1.5-1.5-1,1-.5-2-2-2.5-1,1-2.5-1.5v1.5h-2l-.5-3.5-2-1-.5-2.5-1.5-.5,1-1-.5-2Z"/>
      <path data-code="VLA-VYA" d="m100.25,90.6l.5-1,4.5-.5v-2l2,.5,2-1,.5-1.5,1,1,2.5-1.85,1.5,1.5-2.5-.65-.5,1,8,.5v1.5l-.5.5-.5,2.5-2,1,3,.5-.5,2h4l.5-1,2.5,1,1.5-2.5,1.5,2h2l2.5,2,1,3,2,1.5.5,2-1.5.5-.5,1.15-1.5.35-1.5,2.65h-1l-1.5,1.5-3.5.5.5,1-2,1-2.5.5v-1l-2-.5-1,2-1.5-.5-1,1-1.5.5v2l-1,.5-1-1-2,.5-.5,1.5,1,1.5-1.5,2h-2.5l-.5-.5-2,2h-1.5l-.5-1,1.5-2-1-1.65,1-2-1.5-1-1,1-1-.5,1-1.5-.5-.5h-2.5l-1-2.5v-1.5h.5l-.5-1,.5-.5-5.5-5h2l1-2-1-.5h.5v-1l2-2.5,5,.5.5-1,.5-.5h-.5l.5-1.5-2-2.5-1.5-.5"/>
      <path data-code="VLA-VLA" d="m53.25,70.1l2,1.5v-3h2.5l.5,3.5h2v-1.5l2.5,1.5,1-1,2,2.5.5,2,1-1,1.5,1.5v-2l2.5-.5.5,1.5-1.5-1-2,3.5.5,2.5-.5-.5-1,2h-1.5l-1.5,1.5-2-1-1-1,1-2.5-.5-.5-1,.5-.5-1-3,1.5-4-3-.5-2.5,1.5-1h-2l1-.5-.5-.5h1l-.5-1.5"/>
</svg>