<svg data-code="RU-VGG" xmlns="http://www.w3.org/2000/svg" viewBox="0 0 280.25 261.39">
    <g data-code="volgogradskaja_oblast_" data-title="volgogradskaja_oblast&amp;apos;">
      <path data-code="alekseevskij_rajon__volgogradskaja_oblast_" data-title="alekseevskij_rajon_(volgogradskaja_oblast&amp;apos;)" class="cls-1" d="M68.62,61.12l1.5,1.5v1.5l1-.5,1.5-2.5,1-.5,2,2.5,2-1v-1.5l1-.5,3,2,.5-1v-1.5l3.5-1v-4l1-1.5h1l-.5-1.5,1.5,1v-1.5l2,.14-.5-1.5h-1l1-1-1-.64,5.5.5,3-4.5,1.5,1,1.42-1.98,2.08,4.98-.5,1v1l-1,.5.5,2,2,1.5v5l2.5,1.5.5-1h3.5l-1.5,2,1.5,1.5-1,1v1l-1-.5-2.5,3.5-.5,2.5,1,3,1-.5,1,1.64v.5l-1.5,1,1,2h-2.5l-3.5,2-4-3,1-1-1.5-2-1,1-2.5-1.5-1,1,.5,1h-1l1,3.5h-2l-1,1.5-3-4-8-4-.5-3-3.5-.5-.5,2-1,1-3-1-1.5-1.5-1,2-2.5,1-3.64-6.03,6.64-5.61Z"/>
      <path data-code="bykovskij_rajon" data-title="bykovskij rajon" class="cls-1" d="M161.63,172.76l20.5-14,3.5-3,3-4.5,2.5-2.5,3,2.36,2,4.5,1,.5.5,2.5h1l-.5,6.5h2.5l-1,2-2-.5-2,3.5,11.5,7-3,5h-1l-13-8.5-7.5,14.5-4,5.64-3-2h-1l.5,1-2.5.5.5,2-2.5,1h-7v.5l-3.5.86-3.5-2.5.5-1.5-3-2-5.5-.5-1,.5-2.09-2.45,16.09-16.41Z"/>
      <path data-code="chernyshkovskij_rajon" data-title="chernyshkovskij rajon" class="cls-1" d="M1.62,186.76h1l.5-2,1.5-1h2l.5-.5,2,1,2-6.5-.5-.5,1-2,4.5,2,2-10.5,12-.5,1,2,2-.5.5,1h-1l1.5.5-.5.5,1.5-.5-.5,1,1-.5v2.86l1,1-1,1.5h2.5l1.5,2-1.5,3-1.5,1.5-1-2.5-1-.5-.5,2-1.5,1.5-1-.5-1,2.5,3.5,2.5-.5,2,3-2,3.5,4.5h2.5l1.5,1.5v1l-2.5,1.5,1,2h-3.5l1,6.5-10,10.64-12,5.5,2.5-6.5-2-4-1-5.5,1-3.5-2.5-2-2.5-.5v-1l.5-2-1.5,1-4.5-3.5-3,.5v-2l-3.5-1,.5-1-1.5-.5h1.5l-.5-1.5"/>
      <path data-code="danilovskij_rajon__volgogradskaja_oblast_" data-title="danilovskij_rajon_(volgogradskaja_oblast&amp;apos;)" class="cls-1" d="M148.13,83.76l2,1.5,3.5-.5-1.5-2.5v-4.5l1.5-1.5,3,.5v1.5l5.5-1.5,1.5-2.5,3-2h2.5l-.5.5,3,1,1.5-1-1,1.36.5,2.5-1.5,2,1.5,3-.5,1,6,10.5,2.5,1,2-1,1.5-.36-1,7.5,1,1.5-2,1.5-.5-1-2,1,1,2-.5,1.5-3.5,1-1-3.5-4.5,3,1,2-5.5,3-.5,1.5-1,1v.5l-6,.5v1l-1.5-1-.5,3-3-3.5h1l.5-1-4.5-3-.5-2-1.5-1,3-3.5-1-1v-1h.5l-.5-1.5-4-1.5v2l-3,1.5-2-.5-1.5-1.5,1.5-2,.5.5,2.5-3-.5-.5,1-.5.5-3,1.5-2.5v-5l.5-1.5"/>
      <path data-code="dubovskij_rajon__volgogradskaja_oblast_" data-title="dubovskij_rajon_(volgogradskaja_oblast&amp;apos;)" class="cls-1" d="M133.12,161.76h5.5l2.5-4,1,1,2-1.64,1,2,4-5,2,2.5,2.5-.5.5,2,3.5-.5,1.5-2,4-1,2.5,2.5,1-1.5,2.5,1.5,4-2.5v3l1,1,2.5-3.36,1.5-.5,4,4-20.5,14-18,18.36-11,4.5-2.5-2.86-1-4.5-.5-9-1,.5-1.5-2,1.5-2-.5-2.5,3-1.5v-3l1.5-.5,1.5-6.5"/>
      <path data-code="elanskij_rajon" data-title="elanskij rajon" class="cls-1" d="M155.13,47.26l6-1.5-.5-1h1l.5-2,1.5-1,5.5,1.5,3.5,2.5,1.5-1v-.5l1-.5-.5-1.5h.5l.5,1,3.5,1.5,1.5,2.5h1.5l3-2,1,1.5,2.5.5-3.5,5,1.5,1,1-2,1,1.5,2-1.5.5,1-.5.5,1,2,2.5-1.5.5-1.14,1.5,2-3,1.5-3,5-2.5-.5-.5,2-6,4-1.5-.5-.5,1-1-1-5,7.14-1.5,1-3-1,.5-.5h-2.5l-3,2-1.5,2.5-5.5,1.5v-3.5l-4.5-2-3.5,2,.5,1-3,1.5-1-2,1-1-2-3.5,6.5-2,1.5-6.5-1-1.5,1-1v-.5l1.5-3.5,1.5-1,1-1.5v-.5h3.5l-4-2-1-2.5h1l-.5-1"/>
      <path data-code="frolovo" class="cls-1" d="M122.12,119.76l1.5,1v-2l2,1-.5,1.5,3.5,1v.5l-1,.5.5,1.5-1.5-1-2.5,1.5-2-5.5"/>
      <path data-code="frolovskij_rajon" data-title="frolovskij rajon" class="cls-1" d="M122.12,119.76l2,5.5,2.5-1.5,1.5,1-.5-1.5,1-.5v-.5l-3.5-1,.5-1.5-2-1v2l-1.5-1M110.12,112.13l1.5,1v-1l1.5-1.86,3.5,2.5,3-2.5.5,1,1.5-.5.5-1.5,3.5,2.5v-1h1.5l1-3,1.5.5,2-2,1.5.5-.5-2.5,1.5.5.5-.5,1,1.5,2-1,2.5-4.5,2,2.5,2,.5,3-1.5v-2l4,1.5.5,1.5h-.5v1l1,1-3,3.5,1.5,1,.5,2,4.5,3-.5,1h-1l1,4.36-.5,1.5-2-.5-1.5,2h-1.5l-3.5,2.14,1.5,2,.67,5.67-3.67-.67-1.5,2-1-1.5-2,4-3.5,1-1,1.5-4-2.5-.5,1.5-2,1-.5-1,1-1-1.5-1.5-2,1,.5,1-1,1.5-4-2.5-1.5,3-1-1.5-1.5,1-2.5-3.5-3,2.5v-2.5l-2.5-.5-.5-1.5-1.5-.5-.5-1.64,1.5-1,1-6.36v-5.64l1-1.5-1-3,.5-1.5"/>
      <path data-code="gorodishhenskij_rajon__volgogradskaja_oblast_" data-title="gorodishhenskij_rajon_(volgogradskaja_oblast&amp;apos;)" class="cls-1" d="M96.12,176.26l2-.5.27-1.05,1.23,1.05,3.5-.5,4.5-3.5,1.5-3,2,1.5.5,1.5,1-1,1.5.5-1.5,2,2,1,1.5,5,1.5-1.5,3,3,1.5-2-.5-2.5h3.5l1,1.5,1.5,2,1-.5.5,9,1,4.5,2.5,2.86-5,3-1.5-2.5-1.5-.5-.5,1.5-1.5.5-.5-.5-6.5,2-1.5-3.5-2-.5-.5,1h-1l1.5.5,1,1h-1l2,1.5-1.5,2.5-1-.5-1,1-1.5-2-2.5,1-2-.5.5.5-1.5,1.5-5-2.36-2-1.5-.5-4.5-2-1,2-2.5-1.5-4,2-1-.5-9.5"/>
      <path data-code="gorodskoj_okrug_mikhajlovka" data-title="gorodskoj okrug mikhajlovka" class="cls-1" d="M105.12,78.26h2.5l-1-2,1.5-1v-.5l1-1,1.5,1.86,2-2,2.5,2.5,1-1,.5.5,1.5-2,.5,1,1-1.5,1.5-1,1,2-.5,3.5,3.5-1.5,3,1,.5,1.5,2-1.5,1,1.5-1.5,1,2,3,2.5-1.5v-1l5,1.5-.5-2,1.5-1,.5-1.5-2-.5.74-3.31,1.77-.55,1.5-2.5,1,.5,2,3.5-1,1,1,2,3-1.5-.5-1,3.5-2,4.5,2v2l-3-.5-1.5,1.5v4.5l1.5,2.5-3.5.5-2-1.5-.5,1.5v5l-1.5,2.5-.5,3-1,.5.5.5-2.5,3-.5-.5-1.5,2-.5-1-2.5,4.5-2,1-1-1.5-.5.5-1.5-.5.5,2.5-1.5-.5-2,2-1.5-.5-1,3h-1.5v1l-3.5-2.5-.5,1.5-1.5.5-.5-1-3,2.5-3.5-2.5v-4.14l-3.5-2.5-1,.5-4.5-1,.5-2.86-1.5-3,1.5-1v-1.5l1.5-2-2-2,1.5-1-1.5-2.5.5-2-3-5,3.5-2Z"/>
      <path data-code="ilovlinskij_rajon" data-title="ilovlinskij rajon" class="cls-1" d="M98.12,143.76l11-5.5-.5-.5,1-.5,2.5,1v-.5l3-2.5,2.5,3.5,1.5-1,1,1.5,1.5-3,4,2.5,1-1.5-.5-1,2-1,1.5,1.5-1,1,.5,1,2-1,.5-1.5,4,2.5-1,1.86,2.5,1-1.5,2v2l2,3,1,.5,4-3,2.5,2-1,1.5,3,3-.5,1.5-2.5,3-2,1.64-1-1-2.5,4h-5.5l-1.5,6.5-1.5.5v3l-3,1.5.5,2.5-1.5,2-1-1.5h-3.5l.5,2.5-1.5,2-3-3-1.5,1.5-1.5-5-2-1,1.5-2-1.5-.5-1,1-.5-1.5-2-1.5-1.5,3-4.5,3.5-3.5.5-3.5-3,.5-2,1.5,1,.5-1.5-4-4.5,3.5-3.5-2-3-.5-4.5-2.28-2.74,4.78-8.26"/>
      <path data-code="kalachevskij_rajon" data-title="kalachevskij rajon" class="cls-1" d="M60.12,195.62l11-5-4.5-7,2.5-1-1-1,2,.5.5-1-1.5-3.5.5-2,3.5-2.5,1-2,1,1,3.5-2,1.5-1.5v-3l2.5-1.5-1.05-2.75,3.05-.11,4,2v-4.5l2-1,1-2-.5-3,1.5.5.72-1.24,2.28,2.74.5,4.5,2,3-3.5,3.5,4,4.5-.5,1.5-1.5-1-.5,2,2.27,1.95-.27,1.05-2,.5.5,9.5-2,1,1.5,4-2,2.5,2,1,.5,4.5,2,1.5-.5,1.5.5,1h-.5v1.86l2.5,1.5h-.5l-1-.5-2,1.14-.5,2.86-4.5-.5-2.5,1-.5-2-4,2-1.5,3-9.5,6.5-4-4.5-1.5-.5.5-4-1.5-1.5-2.5,2-3,1.5.5-1-4-6,.5-1.5-1.5-1.5.5-.5v-2h-.5l-2-3.5,4.5-1Z"/>
      <path data-code="kamyshin" class="cls-1" d="M195.13,139.76l.5-2,1.5,1-.5-2.5,1,2.5,2.5-.5,2,3-8.5,5-1-2.5,1-1-1.5-.5,1.5-2h-.5l1-.5-1-.5,2,.5Z"/>
      <path data-code="kamyshinskij_rajon" data-title="kamyshinskij rajon" class="cls-1" d="M178.13,127.26l1-1,1,2.5,2.5-1v2l4-.5,1,1.5,1-1,2,.5,4.5-2,1-3.5,2.5-3.5v-.5l1.5.5.5-3h-2v-1.5l-3.5-.5v-1.5l1.5-.5v-.5l2.5-3.5,2,1,3-1.5,1-3.64,1-1,9,5.14,1.5-1,2.5,2-.5,4.5h1l1-2h1l3.5,3.5h2.5v12.86l-4.5,6-5.5-1-15.5,6.14-2-3-2.5.5-1-2.5.5,2.5-1.5-1-.5,2-2-.5,1,.5-1,.5h.5l-1.5,2,1.5.5-1,1,1,2.5-5,5-3,4.5-3.5,3-4-4,1.5-2.64-5.5-5.5-2.5-5.5,1.5-.5,1-3,.5-3-1-.5.5-1-.5-.5,2.08-4.88,2.42-.48Z"/>
      <path data-code="kikvidzenskij_rajon" data-title="kikvidzenskij rajon" class="cls-1" d="M133.12,49.12l2-2-.5-.5,1-.5-1-1,1-.5-1-1.5.5-.5-.18-.54,3.18-.46.5-2-.5-1,2.5,1v-1l1,.5,1-2,2,1,.5-1.5,3,2.5,2-1,1,1v-1l6-5.5-1.5-2,1-1.36,1.5,3,2,10.5,2,.5-.5,1.5h-1l.5,1-6,1.5.5,1h-1l1,2.5,4,2h-3.5v.5l-1,1.5-1.5,1-1.5,3.5v.5l-1,1,1,1.5-1.5,6.5-6.5,2-1-.5-1.5,2.5-1.77.55.26-1.19-2.5-1v-2.5l-5-1-3.5-2.5,1.5-2-1.5-1,.5-1-.5-.5,3.5-5.5-2-1,.5-3-1.5-1.5,1-1.5,2.5,1Z"/>
      <path data-code="kletskij_rajon" data-title="kletskij rajon" class="cls-1" d="M51.62,135.76l2-.14,4.5-7.5,3,2,4-3.5-.5-1,2.5.5v-1.5l1,1,4,.5,4.5,3,1.5-2.5,4-2.5,1.5-2.5.5,4,5.5,3.5-1.5,1.5,2,1.5-1,2,1,1.5-.5,2,5-.5,3,1,5-5.5,3,1,2-.86,1.5.5.5,1.5,2.5.5v3l-2.5-1-1,.5.5.5-11,5.5-5.5,9.5-1.5-.5.5,3-1,2-2,1v4.5l-4-2-10,.36,1-2-1.5-1.5-6,2.5-5.5-1.5,1.5-1.5,1.5-3-1.5-2.86-3.5,2-3-2,1.5-2-.5-1.5-2.5-3-.5-4-4-1.5v-4"/>
      <path data-code="kotel_nikovskij_rajon" data-title="kotel&amp;apos;nikovskij_rajon" class="cls-1" d="M18.12,219.76l12-5.5,4.31-4.59,1.68,2.45h3.5l2.5,2.5,1-.5v1.5h1l-1,.5h1v2.5h1l-1,.5,1,1,.5-.5,3,1.5-1,3.5-3,3.5,6,3.5.5-.5,6.5,5.5-6,6,1,1-10,10.64-1.5,6-.5-1-1,1.5-1.5-.5-1-4-7-3.5-4-.5-3.5-2.5-2-2.5,1.5-2,.5-1.5,1.5-.5.5-.5-4.5-3-3.5,1.5-2.5-1.5,2.5-8.5-.5-1.5,1-1.5v-3.5l1-5"/>
      <path data-code="kotovskij_rajon" data-title="kotovskij rajon" class="cls-1" d="M166.63,112.26l5.5-3-1-2,4.5-3,1,3.5,3.5-1,.5-1.5-1-2,2-1,.5,1,2-1.5-1-1.5,1-7.5-1.5.36.5-2.5,3-1,1-1.5,3,1.5.5,3.5,3-.5-1,2.5,2.5,1.5-1,1,2.5,1,.5,2,1.5-2,.5,1.5-1,1.5,1.5.5,1.5-1,4,5-1,3.64-3,1.5-2-1-2.5,3.5v.5l-1.5.5v1.5l3.5.5v1.5h2l-.5,3-1.5-.5v.5l-2.5,3.5-1,3.5-4.5,2-2-.5-1,1-1-1.5-4,.5v-2l-2.5,1-1-2.5-1,1-2.42.48.42-4.48-2,.5-3,2-3-2.5-1.5-3.5.5-1.5-2-3v-.5l1-1,.5-1.5"/>
      <path data-code="kumylzhenskij_rajon" data-title="kumylzhenskij  rajon" class="cls-1" d="M66.62,72.76l1.5-1,1-2,1.5,1.5,3,1,1-1,.5-2,3.5.5.5,3,8,4,3,4,1-1.5h2l-1-3.5h1l-.5-1,1-1,2.5,1.5,1-1,1.5,2-1,1,4,3,3,5-.5,2,1.5,2.5-1.5,1,2,2-1.5,2v1.5l-1.5,1,1.5,3-.5,2.86-2.5.5v.5l-1,.5-4-1-1,1v-1l-2,1.5-.5-.5-2.5,1-2-1-4,.5-1,1.5v3l-2,1.5v-2.5l-1.5.5-4-2.5v-.5l1-.5-2.5-1.5-1-3h.5v-1.5l-2,.5-.5,2-7-2.86v-.5l5-3.5.5-2.5-1.5-11.5-1.5-2.5.5-4-1-2"/>
      <path data-code="leninskij_rajon__volgogradskaja_oblast_" data-title="leninskij_rajon_(volgogradskaja_oblast&amp;apos;)" class="cls-1" d="M126.12,224.12l-.5-1,5,1.5-.5-4.5.5-1.5,1.5-.5-1-3,4-2,.5-1,2.5,1,1-.5.5-2-1.5-2.5h1l1.5-3,8.5,5.5,2-3,5,3,2.5-4.5,1.5-8.5,3.5-.86v-.5h7l2.5-1-.5-2,2.5-.5-.5-1h1l3,2-5.5,7.5h1l-5.5,9.86-3,2.5-12.5,19.5.5.64-4.5,1-1-1.5-1.5.5-2-2.5-1,1-1-1-2,1-1.5-1.5.5-1-4-1-1,1,.5.5-.5,1,1.5.5,1.5,2.5-1,2,1,.5.5-2,3,2-4,1-1,1-2-5-2-.5,2-2-1.5-1-1.5,2.5-1.5-1.5-5,.36-2-1,3.5-4,1,.5-.5-1,1-.5-1-2h-.5v3l-3-.5,1-1,2-1Z"/>
      <path data-code="nekhaevskij_rajon" data-title="nekhaevskij rajon" class="cls-1" d="M63.12,44.62h1.5l8.5-4.5,1-4,.5-6.5,5-2,2,.5.5-2.5-2.5-1.5.5-3,2.5.5,2.5-.5v-.5l.5.5-1.5,3,2,2-.5,1,1-.5,1,1-1,1.5,3,2.5,2.5-1,3.5,2.5-2,2,1.5,2.5-2.5,1.5v2.5l-2,3.5-2-.5.5,3.5,1,.64-1,1h1l.5,1.5-2-.14v1.5l-1.5-1,.5,1.5h-1l-1,1.5v4l-3.5,1v1.5l-.5,1-3-2-1,.5v1.5l-2,1-2-2.5-1,.5-1.5,2.5-1,.5v-1.5l-1.5-1.5-7,6-1-1.5v-2.5l3-2.5-2.5-5,2-11"/>
      <path data-code="nikolaevskij_rajon__volgogradskaja_oblast_" data-title="nikolaevskij_rajon_(volgogradskaja_oblast&amp;apos;)" class="cls-1" d="M202.13,141.26l15.5-6.14,5.5,1-1,4,12,5.5,1,5.5,1,.5v2l-2,2,2.5,3.5-.5.5,1.35.46-1.35,3.04.5,1.5-1,1.5v1l-1,1.5-8-4.5-1.5,2.5,1,1-1,2-4-2.5-6.5,11-2.5-1.5-.5,1-3.5-2-1,1.5-11.5-7,2-3.5,2,.5,1-2h-2.5l.5-6.5h-1l-.5-2.5-1-.5-2-4.5-3-2.36,2.5-2.5,8.5-5Z"/>
      <path data-code="novoanninskij_rajon" data-title="novoanninskij rajon" class="cls-1" d="M104.62,36.62l.5,1,1.5-2,2,1-1.5,3,4.5,4.5,1-3v-2l1.5-2,1,1.5,3,1,5-3.5,2,2,1-.5,1,2.5h-1.5l.5,2,2.5-.5,1.5-1.5-.5-.5,1-.5-1.5-1,1-1.5,5,1.5-.5,1,.5.5.5,1-1,.5.5,1.5-.5.5,1,1.5-1,.5,1,1-1,.5.5.5-2,2-2.5-1-1,1.5,1.5,1.5-.5,3,2,1-3.5,5.5.5.5-.5,1,1.5,1-1.5,2,3.5,2.5,5,1v2.5l2.5,1-1,4.5,2,.5-.5,1.5-1.5,1,.5,2-5-1.5v1l-2.5,1.5-2-3,1.5-1-1-1.5-2,1.5-.5-1.5-3-1-3.5,1.5.5-3.5-1-2-1.5,1-1,1.5-.5-1-1.5,2-.5-.5-1,1-2.5-2.5-2,2-1.5-1.86-1,1-1-1.64-1,.5-1-3,.5-2.5,2.5-3.5,1,.5v-1l1-1-1.5-1.5,1.5-2h-3.5l-.5,1-2.5-1.5v-5l-2-1.5-.5-2,1-.5v-1l.5-1-2.08-4.98,4.08-6.52"/>
      <path data-code="novonikolaevskij_rajon" data-title="novonikolaevskij rajon" class="cls-1" d="M116.62,22.12l1.5,1,.5-1h.5l1.5-2.5,1,.5,2-3-1-1.5-1.5.5v-1.5l3-.5v-.5h-1v-1l2,1,.5-2,2.5.5v-1l6,2v1l5.5,3,4.5-2.5,3-.5,1,1.5,4,2,4.5,12-1,1,1.5,2-6,5.5v1l-1-1-2,1-3-2.5-.5,1.5-2-1-1,2-1-.5v1l-2.5-1,.5,1-.5,2-3.18.46-.32-.96,1-.5-.5-.5v-.5l-.5-.5.5-1-5-1.5-1,1.5,1.5,1-1,.5.5.5-1.5,1.5-2.5.5-.5-2h1.5l-1-2.5-1,.5-2-2-5,3.5-3-1v-3l3.5.5.5-2-3-1,1-3.5h2l-1-.5h1l-.5-1,.5-1-3.5-3,1-2"/>
      <path data-code="oktjabr_skij_rajon__volgogradskaja_oblast_" data-title="oktjabr&amp;apos;skij_rajon_(volgogradskaja_oblast&amp;apos;)" class="cls-1" d="M40.12,203.62l15.5-7,2,3.5h.5v2l-.5.5,1.5,1.5-.5,1.5,4,6-.5,1,3-1.5,2.5-2,1.5,1.5-.5,4,1.5.5,4,4.5-1,.5,1,3.5,1.5.5-1.5,2.5-2-.5-1.5,1.5,3.5,2.5h6.5l.5-1,7.5,4.5-4,6.5,3.5,2-2.5,4.5-3,2-1,2-3,1.5-5.5-6h-1l.5-.5-2-2.5-5,2v1l-5.5,2.5-2.5-2-7-1,2-2-1-1,6-6-6.5-5.5-.5.5-6-3.5,3-3.5,1-3.5-3-1.5-1,1,.5-.5-1-1,1-.5h-1v-2.5h-1l1-.5h-1v-1.5l-1,.5-2.5-2.5h-3.5l-1.68-2.45,5.68-6.05Z"/>
      <path data-code="ol_khovskij_rajon" data-title="ol&amp;apos;khovskij_rajon" class="cls-1" d="M136.62,137.26l3.5-1,2-4,1,1.5,1.5-2,3.67.67-.67-5.67-1.5-2,3.5-2.14h1.5l1.5-2,2,.5.5-1.5-1-4.36,3,3.5.5-3,1.5,1v-1l6-.5,2,3-.5,1.5,1.5,3.5,3,2.5,3-2,2-.5-.42,4.48-2.08,4.88.5.5-.5,1,1,.5-.5,3-1,3-1.5.5,2.5,5.5,5.5,5.5-1.5,2.64-1.5.5-2.5,3.36-1-1v-3l-4,2.5-2.5-1.5-1,1.5-2.5-2.5-4,1-1.5,2-3.5.5-.5-2-2.5.5-2-2.5-4,5-1-2,2.5-3,.5-1.5-3-3,1-1.5-2.5-2-4,3-1-.5-2-3v-2l1.5-2-2.5-1,1-1.86,1-1.5Z"/>
      <path data-code="pallasovskij_rajon" data-title="pallasovskij rajon" class="cls-1" d="M153.12,233.13l12.5-19.5,3-2.5,5.5-9.86h-1l9.5-13.14,7.5-14.5,13,8.5h1l4-6.5,3.5,2,.5-1,2.5,1.5,6.5-11,4,2.5,1-2-1-1,1.5-2.5,8,4.5,1-1.5v-1l1-1.5-.5-1.5,1.35-3.04-1.35-.46,2-1h.5l.5-1,3,.5,4.5-7,6,5-1.5,2.5,2,1.5-3,4,3,2,1-1.5,5,3.5,1.5-3,6,2.5-1,1.5.5,2,6-4-1,2.5v2l-4,1.5.5,3.5-.5,4.5-12,6-12.5-1.5-9,12.5-4,4-9.5,13,4,10.5-.5,5.5-3.5,4.5-4,2.5-4.5,1-5-.5-15.5,13-2.5-10.5-2.5-6.5,1-.5-8.5-8h-3.5l-6.5,5-11.5,3h-3.5l-.5-1"/>
      <path data-code="rudnjanskij_rajon__volgogradskaja_oblast_" data-title="rudnjanskij_rajon_(volgogradskaja_oblast&amp;apos;)" class="cls-1" d="M172.12,74.12l6-8.5,1,1,.5-1,1.5.5,6-4,.5-2,2.5.5,1-2.5,2.5,2,1.5-1,2,1,1-1.5,3,2v2l-1,.5.5.5-1,1.5v2l-2,3,1,1.5-1,.5v1.5l4-1-2,6.5,1,1.5-2.5,1.5-1,1.5v.5l-1,1,.5,1.5-1,2,.5.5-2.5,1.5-3-2-1.5.5-2-1-1,1.5-3,1-.5,2.5-2,1-2.5-1-6-10.5.5-1-1.5-3,1.5-2-.5-2.5"/>
      <path data-code="serafimovichskij_rajon" data-title="serafimovichskij rajon" class="cls-1" d="M43.12,123.62l5-2-1-2.5,3-2.5v1l1.5-.5-.5-1.5,2-1-1.5-.5,1.5-1.5-1.5-1.5,5.5-6.5,1.5-.5,1-1.5h1l3.5-4,7.5,3.5.5-2,2-.5v1.5h-.5l1,3,2.5,1.5-1,.5v.5l4,2.5,1.5-.5v2.5l2-1.5v-3l1-1.5,4-.5,2,1,2.5-1,.5.5,2-1.5v1l1-1,4,1,1-.5v-.5l2.5-.5,4.5,1,1-.5,3.5,2.5v5l-1.5,1v1l-1.5-1-.5,1.5,1,3-1,1.5v5.5l-1,6.5-1.5,1,.5,1.64-2,.86-3-1-5,5.5-3-1-5,.5.5-2-1-1.5,1-2-2-1.5,1.5-1.5-5.5-3.5-.5-4-1.5,2.5-4,2.5-1.5,2.5-4.5-3-4-.5-1-1v1.5l-2.5-.5.5,1-4,3.5-3-2-3,5h-1l.5-3-6-2-5.5-4.5"/>
      <path data-code="sredneakhtubinskij_rajon" data-title="sredneakhtubinskij rajon" class="cls-1" d="M112.62,209.62l4.5-5,8.06-3.8-.56.8-1.5.5-1.5,2h3.5l3,5.5,3-2.5h1.5v-2l1-1-.5-1h-2.5l.5-1.5h-1l5-2.5-2.5-3.5,11-4.5,1.91-1.95,2.09,2.45,1-.5,5.5.5,3,2-.5,1.5,3.5,2.5-1.5,8.5-2.5,4.5-5-3-2,3-8.5-5.5-1.5,3h-1l1.5,2.5-.5,2-1,.5-2.5-1-.5,1-4,2,1,3-1.5.5-.5,1.5.5,4.5-5-1.5.5-1.5-2,.5-2.5-2-.5,1.5v1l-4.5-4-1.59.8-1.41-3.3.5-1.5,1.5-.5.5-1.5-3.5-3"/>
      <path data-code="staropoltavskij_rajon" data-title="staropoltavskij rajon" class="cls-1" d="M228.12,111.62l3.5-3.5,2-.5,5,3.5,1,6,1.5,1-1,1,2,1.5-1.5,2.5-1.5.5-3,4.5,8,4.5,1.5-3,6.5,6,.5-.5-1.5-.5.5-1,2-2.5,1.5-.5-.5,1,1.5.5.5-1.5.5.5-.5,2h.5l3-4.5,1-1,.5,2.5,3,1,1.5-.5-1,3.5.5,1.5,3,2-4.5,2.5,2.5,1.5-2,3.5,1.5,1-1,1.5,4.5,3,.5-1.5,6,3.5-3,5,1.5.5-2.5,3.5,7.5,3.5-2.5,2-2.5-1-3,1-1.5,1.5-4,2.5-.5-2,1-1.5-6-2.5-1.5,3-5-3.5-1,1.5-3-2,3-4-2-1.5,1.5-2.5-6-5-4.5,7-3-.5-.5,1h-.5l-2,1,.5-.5-2.5-3.5,2-2v-2l-1-.5-1-5.5-12-5.5,1-4,4.5-6v-12.86l-1.5.36,2-6"/>
      <path data-code="surovikinskij_rajon" data-title="surovikinskij rajon" class="cls-1" d="M35.62,170.12l5,1,1-.5.5,1,3-1.5,1.5,1,1-1.5,1.5-6,1.5-1.5,4.5-1,2-3-.5-4.5,1-1.86,3,2,3.5-2,1.5,2.86-1.5,3-1.5,1.5,5.5,1.5,6-2.5,1.5,1.5-1,2,6.95-.25,1.05,2.75-2.5,1.5v3l-1.5,1.5-3.5,2-1-1-.5,1-.5,1-3.5,2.5-.5,2,1.5,3.5-.5,1-2-.5,1,1-2.5,1,4.5,7-11,5-4.5,1-15.5,7-1-6.5h3.5l-1-2,2.5-1.5v-1l-1.5-1.5h-2.5l-3.5-4.5-3,2,.5-2-3.5-2.5,1-2.5,1,.5,1.5-1.5.5-2,1,.5,1,2.5,1.5-1.5,1.5-3-1.5-2h-2.5l1-1.5-1-1v-2.5"/>
      <path data-code="svetlojarskij_rajon" data-title="svetlojarskij rajon" class="cls-1" d="M73.12,220.12l10.5-7,1.5-3,4-2,.5,2,2.5-1,4.5.5,3,3.5,2.5-4.5h1l1-2.5h2l-1.5,1,1.5.5-.5,3-1.5-1.5,1,3h-.5l2,6.5h2l-2,1-1.5,1-.5.5-1.5-3-.5.5.5.5,1.5,2h.5v-.5l1.5-1,2.5-1,1.5,3.5h-2.5l-.5,1-3-2h-2l-.5-1.5h.5l-.5-.5v.5l.5,1.5h1.5v.5h1l2.5,1.5.5-1,3,.5.5-.5.5,1,.5-.5,1-2.5,3-1.5,4.5,4v-1l.5-1.5,2.5,2,2-.5-.5,1.5.5,1-2,1-1,1,3,.5v-3h.5l1,2-1,.5.5,1-1-.5-3.5,4,2,1,2-.5.5,1-2,1-1.5-1-2,4.5-1.5-1-2.5,4-5.5,2.5.5,2-2,1.5-1.5,3-6.5,1.5-4-5-1,1.5-5-2.5,5.5-8-3.5-3.5,1-1.5-2-1.5.5-1-2.5-.5-3,5.5-7.5-4.5-.5,1h-6.5l-3.5-2.5,1.5-1.5,2,.5,1.5-2.5-1.5-.5-1-3.5"/>
      <path data-code="urjupinsk" class="cls-1" d="M103.12,25.12l1.5.5,1.5-2,3.5,2.5-1,1v1l-1,.5-.5-1.5-2.5.5-1.5-2.5"/>
      <path data-code="urjupinskij_rajon" data-title="urjupinskij rajon" class="cls-1" d="M103.12,25.12l1.5,2.5,2.5-.5.5,1.5,1-.5v-1l1-1-3.5-2.5-1.5,2-1.5-.5M77.12,8.12l10,1,.5,1,3.5-4.5,3-1,1.5,1.5,4.5-.5,6.5,1.5v-.5l1.5-.5,2-2,5-3.5h4l3,6,6,4.5v1l-2.5-.5-.5,2-2-1v1h1v.5l-3,.5v1.5l1.5-.5,1,1.5-2,3-1-.5-1.5,2.5h-.5l-.5,1-1.5-1-1,2,3.5,3-.5,1,.5,1h-1l1,.5h-2l-1,3.5,3,1-.5,2-3.5-.5v3l-1-1.5-1.5,2v2l-1,3-4.5-4.5,1.5-3-2-1-1.5,2-.5-1-4.08,6.52-1.42,1.98-1.5-1-3,4.5-5.5-.5-.5-3.5,2,.5,2-3.5v-2.5l2.5-1.5-1.5-2.5,2-2-3.5-2.5-2.5,1-3-2.5,1-1.5-1-1-1,.5.5-1-2-2,1.5-3-.5-.5v.5l-2.5.5-2.5-.5.5-5.5-1-3.5-2.5-4"/>
      <path data-code="volgograd" class="cls-1" d="M102.12,219.62v-.5l.5.5h-.5ZM105.12,221.12h-.5l-1.5-2-.5-.5.5-.5,1.5,3,.5-.5v.5ZM108.62,218.62h-2l-2-6.5h.5l-1-3,1.5,1.5.5-3-1.5-.5,1.5-1h-2l-1,2.5h-1l-2.5,4.5-3-3.5.5-3,2-1,1,.5h.5l-2.5-1.5v-1.86h.5l-.5-1,.5-1.5,5,2.36,1.5-1.5-.5-.5,2,.5,2.5-1,1.5,2,1-1,1,.5,1.5-2.5-2-1.5h1l-1-1-1.5-.5h1l.5-1,2,.5,1.5,3.5,6.5-2,.5.5,1.5-.5.5-1.5,1.5.5,1.09,1.82-2.03,2.89-8.06,3.8-4.5,5,3.5,3-.5,1.5-1.5.5-.5,1.5,1.41,3.3-1.41.7-1,2.5-.5.5-.5-1-.5.5-3-.5v.5l-.5.5-2.5-1.5h-1v-.5h.5l3,2,.5-1h2.5l-1.5-3.5-2.5,1,2-1Z"/>
      <path data-code="volzhskij" class="cls-1" d="M121.62,204.12l1.5-2,1.5-.5,2.59-3.68.41.68,5-3,2.5,3.5-5,2.5h1l-.5,1.5h2.5l.5,1-1,1v2h-1.5l-3,2.5-3-5.5h-3.5"/>
      <path data-code="zhirnovskij_rajon" data-title="zhirnovskij rajon" class="cls-1" d="M194.62,52.12l2.5-2.5,3,4h2l1,1h1.5l.5-1,1,.5.5,1.5-.5,5.5.5,1h1.5l1-2.5h1.5l4,4.5,3.5.5.5,1-1.5,2.5,1,2,1-1,1,1,1.5-1.5,1,2,.5,1.5-1,2.5,3.5,5-1.5,1-1,2.5-1,.5,1,3-1.5-.5.5,1.5,1.5,1.5-1,3.5-2.5,3-2,2-2.5,2.5h-3v-1.5l-.5.5v.5l1.5,1-2.5,1.5.5.5-3.5,4-2-1.5-1,1-4-5-1.5,1h-1l-.5-.5,1-1.5-.5-1.5-1.5,2-.5-2-2.5-1,1-1-2-.5-.5-1,1-2.5-3,.5-.5-3.5-1-.5,1.5-.5,3,2,2.5-1.5-.5-.5,1-2-.5-1.5,1-1v-.5l1-1.5,2.5-1.5-1-1.5,2-6.5-4,1v-1.5l1-.5-1-1.5,2-3v-2l1-1.5-.5-.5,1-.5v-2l-3-2-1,1.5-2-1-1.5,1-2.5-2,2-2.5,3-1.5-1.5-2"/>
    </g>
</svg>