<svg id="RU-YAR" xmlns="http://www.w3.org/2000/svg" viewBox="0 0 154.31 152.26">
      <path data-code="YAR-BOL" d="m51.56,67.25l3.5-.5v-1l5-1.5.5-2.15,3.5.5v3l2.5,1.5-.5.5,1.5,1.5-1,.5,4,2h.5l.5-1h1.5l.5,1.5-1,.5,1,1,1.5-1,.5,2.5-1,.5v3l2,1,1.5,3.5-1,2h-1.5l-1.5,1,.5,1-3,.65h-1.5l-1-2.5-.5,1h-1l-.5,2h-1l1,1-1,.5v1l-7.5-5-3,1.5-4-1,.5,2-1-.5v-1.5l-.5,1-.5-1.5h.5l1,.5-.1-1.7-1.4-.95-1.5-3,1.5-.5,1.5-3.5,1,.5v-1l1-.5-1-1,.5-2.35-2.5-2.5,1-.5,1-1.5-1-.5"/>
      <path data-code="YAR-BOR" d="m28.56,102.75l1.5-1-.5,1.5.5.5,1-1-.5-2,1-1,.5-.5.5-1,.5.5,1.5-2,.5.5-.5-1,1-.5,1,1,1.5-1.5,1,1,2-1,.5-1-1.5-1.5,1.5-1.5-.5-1,.5-1,.5.5,1.5-2,3,2.5.5-.5-1-1,1.5-.5v-1h1v-1.5h1.5l.5,1.5.5-1v1.5l1,.5-.5-2,4,1,3-1.5,6,4-.5,1.5-2,2,1.5,1-1.5,1-.5,1,2,1.5v2l-.5,1-1-.5-.5,1-.5.5.5,1-2,2-1,3-.5-1h-2.5l-1.5,1.5v1h-2.5l.5,2-1.5-2-.5,1.5-2,.5-1,1.5h-3l-2.5-2-1,2-1.5-.5-3,3.5-2.5-5.5h-1l-1,1.5-2.5-1-.5-2,.5-2-1.5-1.5,1-.5-1-.5,1-1.5"/>
      <path data-code="YAR-BRE" d="m36.56,14.25l2,.5.5-1.5,2,1,1-1.5-.5-1.5v-2l1.5-1,.5,1,1-.5.5-1.5,2.5,1,.5,2,1.5-1.5,3,1h.5l1-1.5.5,1,.5-3,3.5-1,2-1v-1.5l2.5-2.5,3.5,2,1.5,2.5,2-1.5h2v-1.5l2.5,1-.5-2,2.5.5-2,8.85-5.5,6-7.2,19h-1.3l-1.5,1.5.5-2-.5-.5-1,1-1-.5-.5.5-1,.5.5-2-4.5-1-.5,1.5-1-.5-.5,1-1.5.5-2.5-3.5-2-1-1,1h1l-1.5,1-.4-1.65-1.6-1.2-.5-3,1-.5-1-1,1-1.5-1.5-1.5.5-1.5h-1.5l-1.5-3.5,1-1-1.5-1,.5-1"/>
      <path data-code="YAR-DAN" d="m98.56,59.25l2.5,1,5.5-1,1.5-1.5-.5-1.5h1l3-2.65,1.5,1,1.5,1.5-1,1.15v1.5l1.5,4.5,2.5,1.5,1-.5,2.5,3,2,.5,1.5,3.5,1.5.5-.5,1,1,1.5-1,1.5.5.5h-1l.5,1-1,1,1.5,1.5-1,.5v1.5l-1.5.5.5,1-2.5,1,.5,1-1,.5-.5,1.5,1.5,3.5-1.5,1.5v.5l2,2.5-1,1.5-5,2.5-2-3.5-1,1-1.5-.5-1,1-1.5-1.5v-1.5h-.5v1h-.5l-2-2.5-5-1.5v-2h-.5l.5-1.5h.5l.5-.5-1-2-1.5,1-2.5-3.15c1-.85,2-1.7,3-2.5l-2-3,2-1-.5-1,1-.5.5-1-1.5-4h-1v-1l1-1.5-4.5-3.35v-.65l1.5-1,1-1.5-.75-.9,1.25-.95Z"/>
      <path data-code="YAR-GAV" d="m61.06,101.75l.5-.5.5-1h1l.5-1.5,1-1,2,.5-2,2.5,2.5.5,1,1.5,1-1,1.5,1.5,1.5,2-1,.5.5,2-.5.5h1v1.5h1l.5-1,4,1,.5,1h1.5l-.5.5,1.5,1.5-.5,2,.5,3,1.5.5,1-1v3l-3.5-1,2,3.5,1-.5-.4-1,2.4.85,1.5,1.5,2.5.5-.5,1.5-1,1,2,3.5-.5.15-.5,1.5-2,.5-1.5-3-5-1,1,2-1.5.5-.5-1-.5.5-.5,1.5h-2l-2.5-3.5-1,.5h-3.5l-2.5-2-1.5-4,.5-2-1-1.5,1-2,.5.5,1-.5-.5-1,1.5-1.5v-2l-3.5-2v-1l1.5-1.65v-1l-4-2.5-.5-2.85"/>
      <path data-code="YAR-YAR" d="m85.06,91.75l1.5.5,1.5-2,.5.5-.5,3-.5-.5v1l-.5.5v2.5h1l1,4h-1v1l-1.5.5,1.5.5-.5,1-2-.5v4.5l-2-.5-.5-3.5-1-1-3.5,1.5-.5-1,.5-.5-1-.5,4-1.5.5-1.5h.5v-.5l-.5-1,1-.5,1-3.5,1-.5v-2"/>
      <path data-code="YAR-YRM" d="m85.06,91.75v2l-1,.5-1,3.5-1,.5.5,1v.5h-.5l-.5,1.5-4,1.5,1,.5-.5.5.5,1,3.5-1.5,1,1,.5,3.5,2,.5v-4.5l2,.5.5-1-1.5-.5,1.5-.5v-1h1l-1-4h-1v-2.5l.5-.5v-1l.5.5.5-3-.5-.5-1.5,2-1.5-.5m-20.5-2l1.5,1v-1l1-.5-1-1h1l.5-2h1l.5-1,1,2.5h1.5l3.5,3.35,1-1h1.5l1-1,1,.65,1.5-.9.5,1.25,2-2,4,.5,1-1.5,4.5,2,.5-1v-.5h1.5l2-1.5.5-3,2.5,3.15,1.5-1,1,2-.5.5h-.5l-.5,1.5h.5v2l3.55,1.05-.55,2.95-1.5.5,1,2-1,.5v.5l-1.5,1-5-3.5-.5,2-1.5.5v1.5l-1,1,1.5,1.5-1,1.5-2,2.5h.5l-1,.5,3,1,.5,1.5h-1v1.5l4.5.5v3-1l-.5,2v-1h-2.5l.5-2-3.5-1-2,2.5-1-.5v1l-1,.5,1,1-1.5-.5.5,1-1.5.5v2l-1-1-1,2v-1.5l-2-1.5-1,1-1.5-.5-.5-3,.5-2-1.5-1.5.5-.5h-1.5l-.5-1-4-1-.5,1h-1v-1.5h-1l.5-.5-.5-2,1-.5-1.5-2-1.5-1.5-1,1-1-1.5h-1.5l-1-.5,2-2.5-2-.5-1,1-2-2.5.5-1,1.5-1-1.5-1,2-2,.5-1.5Z"/>
      <path data-code="YAR-LYU" d="m126.06,71.75l.5.5,1-1.65,2-.35.5-1,1.5.85,2-.5-.5-1,.5-1.5-.5-.5,1-1.5h-1.5v-2h1l.5-1.5,1-.5,1.5-.5,2.5,1.5-1-1.5,3-1.35,5.5,1,3.5,3v1.5h2l-.5,1,1,.5,1.5,3.5-.5,3-1,1,1,.5v2h-2.5l1.5,6h-1.5v3l-4.5,1-2-1-3,1.5-1,1-.5-.5-1,2-1.5-1.5-1.5,1-2.5,4-1-1-2.5,2.5-2-1-1,1.5,1,2-2.5,1-3-1.5-2-3.5v-.5l1.5-1.5-1.5-3.5.5-1.5,1-.5-.5-1,2.5-1-.5-1,1.5-.5v-1.5l1-.5-1.5-1.5,1-1-.5-1h1l-.5-.5,1-1.5-1-1.5.5-1Z"/>
      <path data-code="YAR-MYS" d="m21.56,53.25l1.5-1,1.5.85.5-1.5h1l1.5,1,1-1-.5,1,1,1.5,2.5-.5-1-1.5,1-1.5,4.5,3.5,1.5-2h1.5v-.5l1.5-.5h1l-.5,1v.5l1.5-1,5.5,3.5-.5-1,1-.5h1.5v-1l1,.5-.5-2,1-.5,2.5,2.5h2.5v3l-1.5,2,1,1.65.5,5.5-1.5.5v1l-3.5.5,1,.5-1,1.5-1,.5h-3v-1l-3.5-1-1.5.5-2.5-1-2-5.5-1.5.5-.5,1.5-1-1-2.5.5-4-3.5-2.5,1.35-1-1.85-2.5-1.5.5-3-1.5-1.5"/>
      <path data-code="YAR-NKZ" d="m22.06,34.6l1.5-.5.5,1,1.5-.5,1,2h1l-2-1.5v-1.5l1-.5-1-1.5,1.5-2.5,3,4v-.5l2,.5v-2.5l1.5-1,3.5.5.5-1,1.5,2,1.5.5v-.5l1-.5.5,2,1.5-1h-1l1-1,2,1,2.5,3.5,1.5-.5.5-1,1,.5.5-1.5,4.5,1-.5,2,1-.5.5-.5,1,.5,1-1,.5.5-.5,2,1-1,.5-.5h1.5l-.5,1-1,1.5.5.5-4.5,6.5,2,5-2,3.5h-2.5l-2.5-2.5-1,.5.5,2-1-.5v1l-1.5.5v-.5l-1,.5.5,1-5.5-3.5-1.5,1v-.5l.5-1h-1l-1.5.5v.5h-1.5l-1.5,2-4.5-3.5-1,1.5,1,1.5-2.5.5-1-1.5.5-1-1,1-1.5-1h-1l-.5,1.5-1-.5-1-.5,1-.5-1-4,1-1.5-1-2v-1.5l1-.5-3-3,1-1,2.5-.5-2-3"/>
      <path data-code="YAR-NKR" d="m79.56,119.25l3.5,1v-3l2,1.5v1.35l1-1.85,1,1v-2l1.5-.5-.5-1,1.5.5-1-1,1-.5v-1l1,.5,2-2.5,3.5,1-.5,2h2.5v1l.5-2v-2l-4.5-.5v-1.5h1l-.5-1.5-3-1,1-.5h-.5l2.35-3.05.15-1.1-1-1.35,1-1v-1.5l1.5-.5.5-2,5,3.5,1.5-1v-.5l1-.5-1-2,1.5-.5.55-2.95,1.45.45,2,2.5.5-.15v-.85h.5v1.5l1.5,1.5,1-1,1.5.5,1-1,2,3.5v3.35l-1.5.5v2l-1,1-1.5.5.5,2-1.5,2,.5.5-1.5,1.5.5,3-1.5,1-.5,1-4.5,2-.5-1,1-1-.5-.5h-1.5l-1-1.5-.5.5-.5,1-2-1-1,1.5.5,2.5-1.5-.5-.5-1-1.5.5.5,1-.5,1-1,.5.5,1h-1l.5.5-.5,1-1,1-1.5-.5,1,2-2,1.5-1,2-2-3.5,1-1,.5-1.5-2.5-.5-1.5-1.5-2.4-.85.4,1-1,.5-2-3.5"/>
      <path data-code="YAR-PRZ" d="m18.56,98.6h2l-.5,1,1-.5v1h-1v1l1,.5.5,2,.5-1.5h2.5v-1l1.5-.5,1,1v2l1.4-.65-.9,1.25,1,.5-1,.5,1.5,1.5-.5,2,.5,1.85-1,.5-1,2,1,2.5,1.5.5.5,1.5h1.5l-1,3,1.5,1.5v1.5l2.5,1-1.5,1.5,2,3-.5,2-.5.5,1,1.5h-2l1,2-1,.5v2l2,2-.5,1-.75.7-.45,2.2-.8.4v1.1l-2.3.15-2.75,4.6-1.15,1.25-.3-.75-.95.9-1.75.85-1.5-2v-2.1l-7.5-1.9-2-4,1-.5-.4-.75.35-.75-1.95-1v-1.25l-1.3,1.5-.6-1.8-1.1.55-2-2-3.1,1.75.8-4.15,1.3-.6-1-1.5.5-2-1.35-1.35.1-1.5.05-1,1.2-.7-.5-.5h-1l-.05,1.75-2.95-1.5,1.2-1.9,1.3-.85,1-2.5-.5-3.5,1-2-1.35-.75-.5-.7-1.65-.55,2-1-.9-1.7.6-.8,3.5.45.85-2.3,1.25-.5-1.3-2.15,1.5-.5,2,1,1-.5,1-1.5,1.5-.5,1-2-.75-.55,1.75-.45.5-1-.5-1.5.4-.8,1.8.9.5,2.1Z"/>
      <path data-code="YAR-PRM" d="m110.56,32.1l1-1h1l-.5-.5,1-1,6.5-2.5,2,1.5,4-1,1,2.5,2-1.5,2,.5-1.5,6.5,3,1.5-.5,1.5,1.5.5-1.5,2.5-.5,1.5.5.5-1,1,1.5,1,.5,1.5-.5,1h-2.5l-.5,1,1.5,2.5v2.5l2,1,.5,1.5,2-.5,1.5,3,2.5,1-1,.5,1,1.5-2.5-1.5-.5,2-1-1.5-.5,1-.5-.5-.5,1.5h-1v2h1.5l-1,1.5.5.5-.5,1.5.5,1-2,.5-1.5-.5-.5,1h-2l-1,2-2-1-1.5-4h-2.5l-2-3-1,.5-2.5-1.5-1.5-4.5v-1.85l1-1.15-1.5-1.5-1.5-1-1.15,1h-1.85v-1l.5-.5-1.5-1.5,1.5-1-1.5.5-1-1.5,2-.5.5-1,3-3.5-2.5-2.5-.5-3-1,.5-.5-1.5,1.5-1-1-1.5h1.5v-2.5l2,1.5-1-2.5"/>
      <path data-code="YAR-POS" d="m76.56,1.1l10.5,7.5,1,3,4-1.5.5-1,.5-.5,2,3-.5,2.5h1v-1.5l1,.5,5,5,1.5-2.5,1.5-.5v-1l5-.5-1.5-4.5,1-.5,1.5-2h2l.5,1h-.5l-.5,1.5,4,.5,1.5,3.5-.5,2h1l.5-1,2.5,1-.5.5,1,1-1,1v1l2.5-.5v1.5l-.5.5,3,2.5,2-1,.55,7.3-1.55,1.2-1-2.5-4,1-3-1-5.5,2-1,1,.5.5h-1l-1,1,1,2.5-2-1.5v2.5h-1.5l1,1.5-1.5,1,.4,1.2,1.1-.2.5,3,2.5,2.5-3,3.5-.5,1-2,.5,1,1.5,1.5-.5-1.3,1.2,1.3,1.3-.5.5v1h1.85l-1.85,1.65h-1l.5,1.5-1.5,1.5-5.5,1-2.5-1-1.25.95-1.25-1.6-1.8.1,1.3-3.1-5.5.5-.5-1,2.5-1-.5-1.5h.5l-.5-1h.5v-1.5l-.5-.5-1.5,1-1-1.5,1-1-1-1.5.5-3.5-1-.5.5,1.5-1.5-1,1-.5-.5-4.5-21.6-15.1,2.6-6.9,5.5-6,2-9"/>
      <path data-code="YAR-ROS" d="m28.06,111.1l1-.5,2.5,1,1-1.5,1,.15,2.5,5.35,3-3.35,1.5.5,1-2.15,2.8,2.15h2.5l1.2-1.5,2-.5.5-1.5,1.5,2-.5-2h2.5v-1l1.5-1.5h2.5l.5,1,1-3,1.75-1.75.25,1.6,4,2.5v1l-1.5,1.65v1l3.5,2v2l-1.4,1.4.4,1.1-1,.5-.5-.5-1,2,1,1.5-.5,2,1.5,4-1,1.35-.5-.5-1,1,.5,1.5-1,2-2-3h-.5l-.5,1.5-3.5-1.5.5-1h-1.5l-2.5,2-1-1h-2l.5,2h-.5l-1,2-1-1-1.5,1.5-3,.5v2.5l-1,.5-2-1.5v1l-2.5,1v1.5l-.5-.5-1,1.5.5,1-2.5-.5.5-1,.5.5h.5l.5-1.5-.3.9-.7.6-2.5-2.5v-2l1-.5-1-2h2l-1-1.5.5-.5.5-2-2-3,1.5-1.5-2.5-1v-1.5l-1.5-1.5,1-3h-1.5l-.5-1.5-1.5-.5-1-2.5,1-2"/>
      <path data-code="YAR-RYB" d="m68.46,49h1.5l2.5,5,1.5-.5-1,1,1.5,3-1,1h1v2l-2.5-1v.5h-1l-.5-1,.5-.5-1.5-.5.5-1.5-1.5-2,.5-.5-.5-1,2-.5-.5-1h-1.5v-2.5"/>
      <path data-code="YAR-RBM" d="m66.46,23l-4.6,12.1-1.3,2.5.5.5-4.5,6.5,2,5-2,3.5v3l-1.5,2,1,1.5.5,5.65,3.5-1,.5-2.15,3.5.5v3l2.5,1.5-.5.5,1.5,1.5-1,.5,4,2h.5l.5-1h1.5l.5,1.5-1,.5,1,1,1.5-1h4l.5-1.5,2,1v-2h1.5l1.5-1.5v-.5h2.5l.5-1h-.5v-1l-1-1,3.5-2.5,3.5-4,1.2.1,1.3-3.1-5.5.5-.5-1,2.5-1-.5-1.5h.5l-.5-1h.5v-1.5l-.5-.5-1.5,1-1-1.5,1-1-1-1.5.5-3.5-1-.5.5,1.5-1.5-1,1-.5-.5-4.5-21.6-15.1Zm2,26h1.5l2.5,5,1.5-.5-1,1,1.5,3-1,1h1v2l-2.5-1v.5h-1l-.5-1,.5-.5-1.5-.5.5-1.5-1.5-2,.5-.5-.5-1,2-.5-.5-1h-1.5v-2.5Z"/>
      <path data-code="YAR-TUT" d="m79.06,72.6l.5-1.5,2,1v-2h1.5l1.5-1.5v-.5h2.5l.5-1h-.5v-1l-1-1,2.5-3,1,.5,3.5-4h3l2,2.5-1,1.5-1.5,1v.5l4.5,3.5-1,1.5v1h1l1.5,4-.5,1-1,.5.5,1-2,1,2,3-3,2.5-.5,3-2,1.5h-1.5v.5l-.5,1-4.5-2-1,1.5-4-.5-2,2-.5-1-1.5.65-1-.65-1,1h-1.5l-1,1-3.5-3.35,3-.65-.5-1,1.5-1h1.5l1-2-1.5-3.5-2-1v-3l1-.5-.5-2.5h4Z"/>
      <path data-code="YAR-UGL" d="m19.56,66.1l2-1,.5-1.5h1.5v-.5l1-.5.5-3.35,1,1.85,2.5-1.35,4,3.5,2.5-.5,1,1,.5-1.5,1.5-.5,2,5.5,2.5,1,1.5-.5,3.5,1v1h3l2.5,2.5-.5,2.35,1,1-1,.5v1l-1-.5-1.5,3.5-1.5.5,1.5,3,1.5,1v1.65l-1-.5h-2v1.5h-1v1.25l-1.5.25,1,1-.5.5-3.15-2.35-1.35,1.85-.5-.5-.5,1,.5,1-1.5,1.5,1.5,1.5-.5,1-2,1-1-1-1.5,1.85-1-1-1,.15.5,1-.5-.5-1.5,2-.5-.5-.5,1-1.5,1.5.5,2-1,1-.5-.5.5-1.5-1.7,1.35-1.3.55v-2l-1-1-1.5.5v1h-2.5l-.5,1.5-.5-2-1-.5v-1h1v-1l-1,.5.5-1h-2l-.5-2-2-1,1.5-1.5-1-1.5,2-3.5,6,1.5,2-2,2-4-4-2.5-1,.5-2-.5-1-2.5-1.5.5-1.5-6,.5-3.5-.5-1,2.5-.5-.5-3.05"/>
</svg>