<svg data-code="RU-VLG" xmlns="http://www.w3.org/2000/svg" viewBox="0 0 414.25 312.25">
    <g data-code="vologodskaja_oblast_" data-title="vologodskaja_oblast&amp;apos;">
      <path data-code="babaevskij_rajon" data-title="babaevskij rajon" d="M53.12,56.76l3-.5,1.5-2.5.5-3,2.5-2,2-2.5v-1l3.5-.5,2-2h1l.5-1.5,5.5-6.5,2,1.5-1,1,2,.5,3.5,3.5-1.5,2-.5,1.5,4,2,1-.5,3.5,3v.5l3-.5,3.5,3.5,2.5-.5,3,5,.5-1,3.5,1v1.5l-2.5,2.5,1.5,1-3,3,.5.5h-1l1,2h-2l.5,1.5,2,1.5-2-.5-.5,1v2l-2.5.5,2.5,2.5-3.5,4-.5-.5-3,4,1,1-2.5,3.5,1.5,1.5-.5,3.5-1.5,1.5-3,2-1.5,1.5v1.5l-1,1,.5,1.5-1,.5-.5,2.5-3-2.5-1,1.5-1.5.5.5-2h1.5l-3-4-2.5,2-.5,4-1.5,3.5h-1v-1.5l-2,.5v1.5l-8,.5-1,13-.5.5,1.5,2.5-.5,1.5-5,1v.5l-1.5,2,2.5-1.5,1,1.5-2.13,2.69-3.38-4.82-5,2.5v1l-1.5-.5-1,1.5-2,1.5h-3l-3.5-.86,1.5-1.5-2-1.5,1.5-2-1-1.5h-4l1-4.5,2,.5,3.5-4-.5-3.5-7-7.5-4,.5-1-3,3.5-3.5-1.5-.5-.5-3,1.5-.5.5,1,5-.5-1-.5,1.5-.5-1.5-1.5h1l.5-2.5-1-2,1.5-2,4.5,5v-1.5l-1.5-2h2l.5,1.5,5-6.5,1,4,4.5-5-5-3v-1.5l5-8.5,4.5-2,2.5-3.5-3.5-2.5,1-1-1-1,.5-.5-3.5-3.5,1-1"/>
      <path data-code="babushkinskij_rajon" data-title="babushkinskij rajon" d="M258.12,214.76l3.5-4.5,3,2,1-1,3,.36.5-3,3,1,8,9-1.5,2,5,2.5,1-1v-1.5l3-2.5,1,1,1-2,3-1,4.5,3,1-1.5,1,.5,1.5,2-.5,1,1,1,2-2,2,1.5-1.5,1-.5,6,2,5,1-1,1.5-.5,9.04,1.61,5.31,4.89-1.85,3-1,.14v1.36l-4,1.5-1.5,1.14-.5,5.5-1.5,1-1,1.5-2-2.5-4.5,2v-1.5h-1v1l-.5-.5v-.5l-2-1-1,1v1l-1,.5-1,1.5.5,1-6.5,7.5h-1l-1,1-1,2-1,.5-3.5,4.5-3.5-3-1,1.5,1,.5-.5,1-1-.5-6,6-3-2.5-5-1v-3l-3-2-.5-2.5-2-.5-1.5,1.5-2-1.5.5,1.5-2,1.5-2.5-1,.5-2h1.5v-1.5l1-1-1-.5,1.5-3-6-.5-1,4.5-1.5-.5-.5-4.5-1.5,1-.5-1-.5-3.5,1-1.5-1,.5-.5,2-.5.5-1.5-1.5-.5,1-3,1v-1l-2,.5-1.5-1,7.5-9.64,4,3,1.5-2,2,1.5,2-1.5,2,1,1.5-1.5-1-1.5,1.5-.5v-1.36l1.5-1.5-1-1.14,2.5-.5-7.5-5,1-1.5,1-7,3-5,1.5-.5v-1.5l.5.5-.5-3.36.5-1.5"/>
      <path data-code="belozerskij_rajon__vologodskaja_oblast_" data-title="belozerskij_rajon_(vologodskaja_oblast&amp;apos;)" d="M103.62,58.26l4.5-3,3.5.5,3,4.5,1,3.5,4,3.5,4-2.5.5-.5,2.42,2.95-4.93,5.42v2l-2,2v4l-1.5,2.5-.5,2.5,13,24.64,2.43-1.62-.93,3.12,1.5,2-1.5,1.5.5,1-1.5,2.5-2.5,2,.5-1.5-1.5,2h-1l-1,1.5-.5,2.5-1.5,1-.5,1.5-1-.5-4,2h.5l-1.5,2,.5,3.5-2.5,1-.5,2.5-10.5-9.5,1-1.5-1-1.5h-1l-1,.5v-1l-3.5,1-1-1.5h-2.5l-.5-1.5,1-1-1.5-1v-1l-7.5-5.5-1,.5-2.5-1.5.5-2.5-1.5-2v.5l-1-.5h.5l.5-2.5-.5-.5,1.5-1,.5-2.5,1-.5-.5-1.5,1-1v-1.5l1.5-1.5,3-2,1.5-1.5.5-3.5-1.5-1.5,2.5-3.5-1-1,3-4,.5.5,3.5-4-2.5-2.5,2.5-.5v-2l.5-1,2,.5-2-1.5-.5-1.5h2l-1-2h1l-.5-.5,3-3-1.5-1,2.5-2.5-.5-.5"/>
      <path data-code="chagodoshhenskij_rajon" data-title="chagodoshhenskij rajon" d="M.62,101.76h2.5l2-1,.5.5,3.5-4,1-.5,2,1.5.5-1.5v1.5l1,.5,2.5-.5,3,2.5,1.5.5,1.5-1.5,2.5.5,4.5,2-3,3,1,3,4-.5,7,7.5.5,3.5-3.5,4-2-.5-1,4.5-1.15-1.34-.35.84-1-.5.5,2h-2.5l-3-3.5v2l-1-.5v4l-1.5.5v1l-1,.5-2.5,4,.5.5-1.5-1-.5,2-4.5-3,1-2.5-2-.5v-2l-4-1.5v1.5h-3.5l-1,1.5.5-1-1.5-1.5,1.5-1v-1l-3-1.5,3-3.5,3-1v-.5l1-1.5-5.5-2,1,.5,1-1-2.5-2v-.5l1-.5-2-3,.5-1.5h1.5l.5-1,1-.5-3.5-5"/>
      <path data-code="cherepovec" d="M86.12,155.76l2.5,1.5.5,2,2.5,1.5-.5,1.5,1.5-.5v1.5h2l-1,.5.5.5-.5,2.5-3,1.5-2.5-1.5,1-3-3-2,1-2-1.5-1.5.5-2.5"/>
      <path data-code="cherepoveckij_rajon" data-title="cherepoveckij rajon" d="M86.12,155.76l-.5,2.5,1.5,1.5-1,2,3,2-1,3,2.5,1.5,3-1.5.5-2.5-.5-.5,1-.5h-2v-1.5l-1.5.5.5-1.5-2.5-1.5-.5-2-2.5-1.5M60.12,148.26l2.5.5,5,2.5,1-2h1l6.5,4.5,2-1.5,2,1-2-4,1-1,5.5-1.5.5-1-.5-2,.5-1h1l1-2-.5-1.5,1.5-2v-.5l1-.5-.5-.5,1.5-1-1.5-2,.5-2.5,2-.5-.5-2,.5-.5-2-1.5,1-1-.5-2,4.5-1.5,1.5,1-1,1,.5,1.5h2.5l1,1.5,3.5-1v1l1-.5h1l1,1.5-1,1.5,10.5,9.5.5-2.5,2.5-1,2.5,1.5,1-2,2.5-.5-.5,2-1,1h-1.5l-1,1,.5.5-.5.5-1.5-.5.5,1-1,1,3,2-4,5,.5,1-2.5-.5,1,1-.5,1.5-1.5,2.5.5,1.5-3.29,1.5h-2.21v1l-1,2.5,1.5.5-.5.86-1.5-.5-1,1.5-3.5-.5v2.5h-1.5v1.5l-1.5,1.5,2,6-.5,2.5,1,1-2,2-.5-.5-.5,2,2.5.5.5,2-.5,2,1.5.5,1-1,3,1.5,3.5,4.5h1l-1.5,2,2,1.5-.39,1.16-1.61,1.98-.5.5,1,4.5-5,.5v1l-1,.5-2,3-5-5.5h-1v1h-.5l.5-2-2.5-3h-.5v1l-4.5,1.5-1-3-10-7-3-.5.5,2-2.5-1v1.5h-2l-2,1.5-1.5-2.5-3.5-2-2.5,2.5v1.5l-2,1-3.5,1v-2.5l-1-1.5.5-2-1.5-4,1.5-4.5-2.5-1.5,3-2h-2l1-1-.5-2,1-1-.5-2,2.5-4-1-2,1-1.5-.5-3,.5-1,1.5-1v-3.5l1-2v-4"/>
      <path data-code="gorod_vologda" data-title="gorod vologda" d="M146.12,188.12l.5,1.5-1-.5v-.5l.5-.5ZM148.62,194.62l.5-1,1,1,1.5-1,.5,2,2-1,.5,2.5-1.5-.5-.5.5,1,2-2,1.5h-1l.5,1.5h-1l-1.5-2.5-.5.5-1-2-3-1.5,2.5-1.5-1-1.5,3,1Z"/>
      <path data-code="grjazoveckij_rajon" data-title="grjazoveckij rajon" d="M130.12,206.12l2-.5.5-1,1,1,2.5-.5-.5,1.5,1.5.5h4.5l1.5,1,2-1v2l-.5.5.5,1.5,6.5,2.5.5-2h1l1-1,1.5,1,2-1,1.5-.36v1l1.5-1.5v2l2,1v3l3.5,2.5,3,.5.5-1v1l1.5.5v3l4.5,2-.5,2,.5,1.5h-.5v1l2,3.5,1-2.5v-1.5h.5l.5-1-2-.5.5-1,2.5-.5,1,3.5-.5,1,2.5,1h.5l1-2,2.5,1.5,3-4.5,19,16h-1l-1,.5v1.5h-1.5l-1-2-2,.5v2l-1.5-.5-1-3.5-2.5-2-1.5,1-7-1-1,1.5-5-.5-2.5,1,.5-2-.5-1-1-1-3.5,1-1.5,1v.5l-1,1.5.5,1.5h2l-.5,1h-1l-1,2.5v-1l-1.5-1-.5,2.5-2.5-.5v5l-1.5,1.5-1-.5-.5.5-1,.5-1.5,2-2.5-1-2.5,1.5-2.5-.5v1l-1.5-1.5-1,.5-.5-.5v-1.5l-2,.5v-1.5l-3.5-3-5.5-1-2,.5-1-1v1l-3-3.5-1.5.5-1-2-1.5-1v-2.5l-1.5-2.5v-1h2.5l.5-1-.5-1.5-1.5-.5,1-1.5h-.5l.5-2,1.5-2-1.5-1,.5-1.5-2.5-1,1-6.5-3-.5v-7.14l1.5-.5,1-1.5-1-1.5"/>
      <path data-code="kadujskij_rajon" data-title="kadujskij rajon" d="M61.12,109.26l8-.5v-1.5l2-.5v1.5h1l1.5-3.5.5-4,2.5-2,3,4h-1.5l-.5,2,1.5-.5,1-1.5,3,2.5-1.5,1,.5.5-.5,2.5h.5l1.5,2-.5,2.5,2.5,1.5,1-.5,7.5,5.5v1l-4.5,1.5.5,2-1,1,2,1.5-.5.5.5,2-2,.5-.5,2.5,1.5,2-1.5,1,.5.5-1,.5v.5l-1.5,2,.5,1.5-1,2h-1l-.5,1,.5,2-.5,1-5.5,1.5-1,1,2,4-2-1-2,1.5-6.5-4.5h-1l-1,2-5-2.5-2.5-.5-1-1.14,3-3.5v-2l1.5-.5-4.5-3-3.62-5.18,2.13-2.69-1-1.5-2.5,1.5,1.5-2v-.5l5-1,.5-1.5-1.5-2.5.5-.5,1-13"/>
      <path data-code="kharovskij_rajon" data-title="kharovskij rajon" d="M176.12,127.12l.5-.5,2.5-2,2.5,1,1-1.5,1.5.5.5-1.5,1,1,2-1,1,.5.5,2-1.5,1.5,1,1-1,1,4,3.5-3,3h.5v1.5l2.5,2.5,2.5-3,4.5,2,1,3,1.5-.5,2,2h2v2.64h-3l-3-2.64-2.5,1.5,5.5,5.5,3,2,3.5-3.5,1,1,3-4,2,1-.5,1.5h-1.5l4,1.14,1,4v-3.5h1.5l1,2.36h3.5l.5.5-.5,1.5-3.5,1.64-1.5-1.5-1.5,2-2.5.5v1.5l-2,1.5h-1.5l-.5-2-2.5,3.5h-2.5v4.5l-2.5-1.5h-1.5v1l-2,.5-.5,1v1.5l1,1.5-.5.5-1-.5v2l-.5,1-1,.36-1.5-2-1.5,1.5,2.5,3-.5,1,1.5,1.5-3,3.5-8.5-6-2,2-.5-1-1,.5-2.5-2.5h-2l-1-2.36v-.64l-1-.5v-1l1.5-1-3.5-4,2-.5-2-6,.5-1v-2l1-2,1-2.5-1,.5-2.5-2.5,1.5-2.5-4.5-1.5,2-2,1,.5v-1.5l1-.5,1.5,1-1-3-1.5-1.5,1.5-4v-2h.5l-.5-1,1.5-1-1-1,1-1v-1Z"/>
      <path data-code="kichmengsko-gorodeckij_rajon" data-title="kichmengsko-gorodeckij rajon" d="M321.62,234.62l4-4.5,3.5-3,7.5-1.5-.5-1.5,1-.5-.5-.5.5-1,5-.5,2-1.5,2.5,2,.5,3-1.5,5v3l6,4.5,2-1.5,7,.5,8.5,10.5,1.65,4.54-1.65.59,1.5,2.5-2,2,.5,1-.5,1v1l-1.5,1,4.5,2.5,1.5,3-.5,1.5,1,.5,1.5-1-.5,1.5,2.5,1,.5,1-1,.5.5,1,.5-1,1.5,1,.5-1,2,.5,1-1.5,1.5-.5,3.5,1.5-16,20,6.5,4.5-6.5,9-8.5-7-1.5,2-2-1.5-11-8.5,2-2.5-15.5-11,.5-1-7-7,1-1-2.5-.5,1-2.5,1,.5.5-.5-2.5-3.5v-1.5l1.5.5,2-2.5-3-4,.5-.5-2.5-4,3-4-11.96-11.02,4.96.89Z"/>
      <path data-code="kirillovskij_rajon" data-title="kirillovskij rajon" d="M118.12,129.26l4-2,1,.5.5-1.5,1.5-1,.5-2.5,1-1.5h1l1.5-2-.5,1.5,2.5-2,1.5-2.5-.5-1,1.5-1.5-1.5-2,.93-3.12.57-.38,3.5,2.5,1-1,1,.5,1-1,3,1.5,1-1,1,.5,1-1h3v-1l1.5,1.5.5-4,3.5,2.5-.5-.5,1-1-1-2,5.5-7-2-1v-2.5l2-2,2,.5,1.5-1.5.5.5,1-2,2.5.5-4-2.5,2.5-3-2.5-2.5,6-8,7.5,7-1,1,.5.5-1,1v1l-1,2,5,4,1-1.5,4-.5h-.5.5v.5l-.5.5,1.5.5.5,2.5-1,1,2.5,5-.5,3-3,.5-4,7-6,3.5-7.5-1-4,5.36,2,5.64-1,1.5-3.5,1.5-1,2-1,2.5,1.5,1-1.5,1.5,1.5,2-1,1.5-1-.5-1,2.5-3,2v2l-1,1v1.5l-3.5-1.5-1.5,2-1-1-2,.5.5,3.5-2,2-1-1-1,1v1l-1.5,1.5,1.5,2-1.5,3-3,1.5-2-.5-1.5,2.5v1l-2,1.86-1-1.86-1,1-1.5-1,1-1-.5-1,2-2-2-1-1-4-.5-1.5,1.5-1.5-1-1v-1l2-1.14-11-6.86,1-1-.5-1,1.5.5.5-.5-.5-.5,1-1h1.5l1-1,.5-2-2.5.5-1,2-2.5-1.5-.5-3.5,1.5-2h-.5"/>
      <path data-code="mezhdurechenskij_rajon" data-title="mezhdurechenskij rajon" d="M159.12,200.62l2,.5v-1.5l.5,1.5h5v-1.5l3.5,4.5,1.5-1h5l-.5,1.5,1.5-1.5h2l5.5,1-2-2.5,1-1-1.5-2,7.5,4.5,2-1.5,1.5,4,2.5,1.5,1-1,2,2,2.5-.5.5.5-2,2.5,3,2.5-1,1,.5.5,2-.5,1,1,1-.5,3.5,1,1-1.5h1l1.5-2.5v-1l.5.5,1.5-1,1.5,4h2.5l-.5-2.5,1.5-.5v-2.5l.5,1,2.5,1-.5,1.64v1.86l1.5,1-1.5-.5.5,2,4,3-3.5,5-1-.5-2.43,3.24-2.07-2.11-3,1-5,6h-1v-1.5l-.5-.5.5,3,1.5,2.5.5-.5,1.5,1.5-3.5,5.5-19.5-16.5-3,4.5-2.5-1.5-1,2h-.5l-2.5-1,.5-1-1-3.5-2.5.5-.5,1,2,.5-.5,1h-.5v1.5l-1,2.5-2-3.5v-1h.5l-.5-1.5.5-2-4.5-2v-3l-1.5-.5v-1l-.5,1-3-.5-3.5-2.5v-3l-2-1v-2l-1.5,1.5v-1l-1.5.36-1-1,1-1.5.5,1.5.5-.5v-.5l.5-.5.5-1.5h.5l-.5-2h-.5v-4"/>
      <path data-code="nikol_skij_rajon__vologodskaja_oblast_" data-title="nikol&amp;apos;skij_rajon_(vologodskaja_oblast&amp;apos;)" d="M279.12,270.76l1,.5.5-1-1-.5,1-1.5,3.5,2.86,3.5-4.36,1-.5,1-2,1-1h1l6.5-7.5-.5-1,1-1.5,1-.5v-1l1-1,2,1v.5l.5.5v-1h1v1.5l4.5-2.14,2,2.64,1-1.5,1.5-1,.5-5.64,1.5-1,4-1.5v-1.5h1l1.85-3,6.66,6.13-3,4,2.5,4-.5.5,3,4-2,2.86-1.5-.5v1l2.5,3.5-.5,1-1-.86-1,2.5,2.5.5-1,1,7,7-.5,1,15.5,11-2,2.5,3,1.86-5.5,6.5,1,1-6.5,8.5-5.5-4-1.5,2.5-4-3-6.5,8.5-7.5-7-2.5-1.5-1,1.5-.5-.5.5-1.5-6-5-1.5,1.5-7.5-5.5-3.5,4.5-17.5-14-2,1v-1.5l-1-.5.5-1.5-3-1.5,2.29-3.11,6.21-6.25Z"/>
      <path data-code="njuksenskij_rajon" data-title="njuksenskij rajon" d="M293.62,212.12l7,1,7.5-3-.5-3,4.5-3.5-.5-3.5,1.5-2,3.5-2,2.5-4,3-.5,1-2.5,2.5-3,1-.5.5-1,3.5-2.5,6,4.5,6.5-8,21,16.5-12,14.5-1,.5-.5,1h-1v1.5l-1.5.5.5,1-4.5,6-2,1.5-5,.5-.5,1,.5.5-1,.5.5,1.5-7.5,1.5-3.5,3-4,4.5-14-2.5-1.5.5-1,1-2-5,.5-6,1.5-1-2-1.5-2,2-1-1,.5-1-2-1.5.5-.5-1-.5-1,1.5-4.5-3,1.5-2-.5-2"/>
      <path data-code="sheksninskij_rajon" data-title="sheksninskij rajon" d="M102.62,161.12l3.5.5,1-1.5,1.5.5.5-.86-1.5-.5,1-2.5v-1h2.21l3.29-1.5-.5-1.64,1.5-2.36.5-1.5-1-1,2.5.5-.5-1,4-5.14,8,5-2,1.14v1l1,1-1.5,1.5.56,1.74.94,3.76,2,1-2,2,.5,1-1,1,1.5,1,1-1,.63,1.18-1.13,1.68-1-.5.5,1.5-1,.5v1.5l-1.5-.5.5-1-.5-1-2.5,2-2.5,11,2,2.5,3-1,1.5,2.5-.5.5-1.5-.5-.5,3-1,1,.5,2-2.5,3,1.5,1,1-.5,1,2-2,.5.5,1h-1.5l-.5,1.5-1-.5-.5,1-1-.5v1l-1,.5-5.5-1.5.5-1.5h.5l-2.5-1,.5-1.5-2-1.5,1.5-2h-1l-3.5-4.5-3-1.5-1,1-1.5-.5.5-2-.5-2-2.5-.5.5-2,.5.5,2-2-1-1,.5-2.5-2-6,1-1,.5-.5v-1.5h1.5v-2.5"/>
      <path data-code="sjamzhenskij_rajon" data-title="sjamzhenskij rajon" d="M194.12,172.62l1.5-1.5,1.5,2,1-.5.5-.94v-1.92l1,.5.5-.5-1-1.14v-1.86l.5-1,2-.5v-1h1.5l2.5,1.5v-4.5h2.5l2.5-3.5.5,2h1.5l2-1.5v-1.5l2.5-.5,1.5-2,1.5,1.36,4.5-2,1.5,2.5,3-1-1-2,2.5-.5v1l1.5.5v2h-1.5l7,5.5.38-1.54.62.54-.5,1,2.5,2.5-1.5,2,3,1.5v-1l1.5-1.5,2.5,1.5-1,1.5,3.5,2-1,.5v1.5l4,3.5-1,1h-2.5l-4,2-3.5-.5-2,2-1-.5-.5,1,1.5,1-1,.5-1-1-1,.5,1,2,2.5,2-.5.5-2,.5-4,5.5-1.5-.5-.5,1-1,1.5.5,1h-.5l1,2-2-1-1,1.5h-1.5l-1,2.06-7.5-.56-2-4-5.5-1-1.5-2-4-1,2-2.5-11.09-8.06,2.09-2.44-1.5-1.5.5-1-2.5-3"/>
      <path data-code="sokol_skij_rajon__vologodskaja_oblast_" data-title="sokol&amp;apos;skij_rajon_(vologodskaja_oblast&amp;apos;)" d="M155.62,179.62l3-1.5,3.5,2.5.5-2-1-1.5v-1.5l.5-1.5,1.5-1,3-1,1-2-.5-3.5,3.5-.5,1-.5-.5-.5,1-.5,1.5,1.5.5-1,3.5,4-1.5,1v1l1,.5v.5l1,2.5h2l2.5,2.5,1-.5.5,1,2-2,8.5,6,.91-1.06,11.09,8.06-2,2.5,4,1,1.5,2,5.5,1,2,4,6.5.5-4.5,5v1.5l2,.5v1.5l-1,.5v2.5l-1.5.5.5,2.5h-2.5l-1.5-4-1.5,1-.5-.5v1l-1.5,2.5h-1l-1,1.5-3.5-1-1,.5-1-1-2,.5-.5-.5,1-1-3-2.5,2-2.5-.5-.5-2.5.5-2-2-1,1-2.5-1.5-1.5-4-2,1.5-7.5-4.5,1.5,2-1,1,2,2.5-5.5-1h-2l-1.5,1.5.5-1.5h-5l-1.5,1-3.5-4.5v1.5h-5l-.5-1.5.5-1,1,.5-.5-1,1,.5-.5-1h1v-1l.5.5v-.5h1l-.5-.5,1.5-.5-.5-2-4.5-1.5v1h-1l-1.5-1,.5-1.5-1-2.5-2.5-2v-1l1-.5-1.5-1,2.5-2.5-2-1.5"/>
      <path data-code="tarnogskij_rajon" data-title="tarnogskij rajon" d="M273.12,175.62l1-1v.5l4-2.5,8.5.5,2-1,.5.5,2-2.5-1-1.5,2.5-2,.5-1.5,4.5,1.5,2-2.5,2-.5,9,9.5,4-5.5,4,1.5,1.5-1,1,1.5h1.5l-.5-2,1.5-.5v-.5l4.5-5.5,12,5.5-4,5.5,7,6.5-6.5,8-6-4.5-3.5,2.5-.5,1-1,.5-2.5,3-1,2.5-3,.5-2.5,4-3.5,2-1.5,2,.5,3.5-4.5,3.5.5,3-7.5,3-7-1v-1.5l-3.5-2,1.5-4.5h-1.5v2.5l-2.5,2.5-.5-.5-.5-1,1-1-1.5-1.5.5-2.5,1-2,2.5-2-3.5-4,.5-2-5-3.5-4,5,.5-3-2,.5-.5,2,.5,2-.5,1-8-6.5,5.5-6.5-1-.5,1.5-.5h1.5l-2.5-7"/>
      <path data-code="totemskij_rajon" data-title="totemskij rajon" d="M219.62,204.62l4.5-5,1,.06,1-2.06h1.5l1-1.5,2,1-1-2h.5l-.5-1,1-1.5.5-1,1.5.5,4-5.5,2-.5.5-.5-2.5-2-1-2,1-.5,1,1,1-.5-1.5-1,.5-1,1,.5,2-2,3.5.5,4-2h2.5l1-1-4-3.5v-1.5l1-.5-1.27-.73,1.77-1.27h2l.5-1,1.5,2,.5-1,2.5,1.5.5-1,.5.5,1.5,3v2.5l3,3,3,1,1.5-1.5,7.5,6.5-5.5,6.5,8,6.5.5-1-.5-2,.5-2,2-.5-.5,3,4-5,5,3.5-.5,2,3.5,4-2.5,2-1,2-.5,2.5,1.5,1.5-1,1,.5,1,.5.5,2.5-2.5v-2.5h1.5l-1.5,4.5,3.5,2,.5,3.5-1.5,2-3,1-1,2-1-1-3,2.5v1.5l-1,1-5-2.5,1.5-2-8-9-3-1-.5,3h-3l-1,1-3-2-3.5,4.5-.5,1.5.5,3-.5-.5v1.5l-1.5.5-3,5-1,7-1,1.5,7.5,5-2.5.5,1,1-1.5,2v1l-1.5.5,1,1.5-1.5,1.5-2-1-2,1.5-2-1.5-1.5,2-4-3-7.5,10v-1l-2.5,2,.5-1-1-1.5-1,.5.5-3.5-2-1.5.5-3h1.5l.5-2-.5-.5,1-.5-.5-1.5-1.5-1-1.5.5v-1.5h1l-1.5-1-.5,1.5-5-2-2.5,1-.5,1-.5-1h.5v-2l-.5-1v-2.5l3.5-4.5-2.5-1.5,3-4,1,.5,3.5-5-4-3-.5-2,1.5.5-1.5-1v-2l.5-1.5-2.5-1-.5-1,1-.5v-1.5l-2-.5v-1.5"/>
      <path data-code="ust_-kubinskij_rajon" data-title="ust&amp;apos;-kubinskij_rajon" d="M172.12,124.62h3.5l1,2,.5.5h-1v1l-1,1,1,1-1.5,1,.5,1h-.5v2l-1.5,4,1.5,1.5,1,3-1.5-1-1,.5v1.5l-1-.5-2,2,4.5,1.5-1.5,2.5,2.5,2.5,1-.5-1,2.5-1,2v2l-.5,1,2,6-2,.5-.5,1-1.5-1.5-1,.5.5.5-1,.5-3.5.5.5,3.5-1,2-3,1-1.5,1-.5,1.5v1.5l1,1.5-.5,2-3.5-2.5-2.5,1.25-.5-13.25-3.5-10.5v-12.5l1-1v-2l3-2.5,1-2,1,.5,1-1.36-1.5-2,1.5-1.5-1.5-1,.5-2.64,1.5-2,3.5-1.36,1-1.5-2-5.64,10,7.5Z"/>
      <path data-code="ustjuzhenskij_rajon" data-title="ustjuzhenskij rajon" d="M24.62,124.12l3,3.64,2.33-.66-.33-1.34,1,.36.5-1,1,1.5h4l1,1.64-1.5,2,2,1.5-1.5,1.5,3.5.86h3l2-1.5,1-1.5,1.5.5v-1l5-2.5,7,10,4.5,3-1.5.5v2l-3,3.5,1,1.14v4l-1,2v3.5l-1.5,1-.5,1,.5,3-.39.59-1.11-1.72-2.5,1-2-1-3-3-2.5.5h-1.5v3.5l-.5,1-1,.5-3.5-1.5-1,1-.5-1-3,2-1.5,2-1-1.5-1,1.5-1-1-2,.5.5,1.5-2.5,2h-1l-.5-1.5-1.5.5-1-1.5-2.5,1.5-.5-3.5-1-1-1,1-1-1.5,1-1v-1l.5,1,.5-1,1-.5,2-1.5v-2l-1.5-1.5h1l.5-3,2-3.5-1.5.5-1-2-1,1v-1l-1.5,1.5,2-2.5h-1.5l-.5-2,2,1v-.5l-5-4,.5-2.5,1.5-2,2,2-1-3.5,2.5-4,1-.5v-1l1.5-1-.5-2.5.5-1,1,.5v-2"/>
      <path data-code="vashkinskij_rajon" data-title="vashkinskij rajon" d="M121.62,72.62l5-5.5,6.5-1.5,6.5,5-.5,1.5,4.5,4,2,.5,1,2,1-1,3-.5,2-3.5,2.5-.5,9,8-1,1.14,2.5,2.5-2.5,3,4,2.5-2.5-.5-1,2-.5-.5-1.5,1.5-2-.5-2,2v2.5l2,1-5.5,7,1,2-1,1,.5.5-3.5-2.5-.5,4-1.5-1.5v1h-3l-1,1-1-.5-1,1-3-1.5-1,1-1-.5-1,1-3.5-2.5-3,2-13-24.64.5-2.5,1.5-2.5v-4l2-2v-2"/>
      <path data-code="velikoustjugskij_rajon" data-title="velikoustjugskij rajon" d="M344.12,220.12l4.5-6-.5-1,1.5-.5v-1.5h1l.5-1,1-.5,21.5-27,1,.5,2-2-1-.5,1.5-2,12,9.5-6.5,8.5,13.5,11.5,1.5-1.5,5,2,1.5-2,1,.5v2l-1.5,2,7,6-2,2-.5,3,2,1,.5,1.5-.5.5,3.5,3-5,7-1.5-1,.5,1.5-2,.5v2h-2l1,2.5-2,2.5v1l-1,.5,1,1-.5.5-1.5-1.5-1,1-3-.5-.5,2-1.5,2-2,.5.5,1.5-3.5-.5-1.5,1.5,2,2-2.5,1-.5,2.5-3.5,3-3-4-5-1.5-1-2.5-1-.5-.5,1-2-.5-2-5.5-8.5-10.5-7-.5-2,1.5-6-4.5v-3l1.5-5-.5-3-2.5-2"/>
      <path data-code="verkhovazhskij_rajon" data-title="verkhovazhskij rajon" d="M247.12,138.62l7.5-6-.5-2,.5-1h5.5l1.5,1,1.5,1.5-.5,1.5,2,2v-.5l3.5.5-.5-1h1l-.5-.5h1.5l1,2.5,2-.5-1.5,3-.5-.5-1,1.5,5.5,3.5-1.5,2,1,.5-.5.5v1.5l5,4.5,5.5,1-1,.5-.5,1,1.5.5.5-1.5-.5-.5-.5,1.5.5-1.5,2.5-1.5,1.5.5.5-1.5,2-.5,4.5,7-.5,1,.5,1-1.5,1.5,1.5,1.5-1,3-1.5-.5-.5,1.5-2.5,2,1,1.5-2,2.5-.5-.5-2,1-8.5-.5-4,2.5v-.5l-1,1,2.5,7-.5.5-1-.5-1.5.5-6.5-6-1.5,1.5-3-1-3-3v-2.5l-2-3.5-.5,1-2.5-1.5-.5,1-1.5-2-.5,1h-2l-1.77,1.27-2.23-1.27,1-1.5-2.5-1.5-1.5,1.5.5,1h-1l-2.5-1.5,1.5-2-2.5-2.5.5-1-.62-.54.62-2.46,1.5-1.5,2-5.5,1.5-2,.5-3.5,2-3,1-3.5"/>
      <path data-code="vologodskij_rajon" data-title="vologodskij rajon" d="M145.62,189.12l1,.5-.5-1.5-.5.5v.5ZM145.62,193.62l1,1.5-2.5,1.5,3,1.5,1,2,.5-.5,1.5,2.5h1l-.5-1.5h1l2-1.5-1-2,.5-.5,1.5.5-.5-2.5-2,1-.5-2-1.5,1-1-1-.5,1-3-1M123.62,167.62l2.5-2,.5,1-.5,1,1.5.5v-1.5l1-.5-.5-1.5,1,.5,1.13-1.68.37.68,2-2-.5-.5,2-3,2,.64,3-1.64,1.5-2.86-1.5-2,1.5-1.64v-.86l1-1,1,1,2-2.14-1-3.5,2.5-1,1,1,1-1.5,4,1v11.5l3.5,10.5.5,13.25-.5.25,2,1.5-2.5,2.5,1.5,1-1,.5v1l2.5,2,1,2.5-.5,1.5,1.5,1h1v-1l4.5,1.5.5,2-1.5.5.5.5h-1v.5l-.5-.5v1h-.82l.32,1-.82-.41.32.91-1-.5-.5,1v1.5l-2-.5v4h-.5,1l.5,2h-.5l-.5,1.5-.5.5v.5l-.5.5-.5-1.5-1,1.5,1,1-2,1-1.5-1-1,1h-1l-.5,2-6.5-2.5-.5-1.5.5-.5v-2l-2,1-1.5-1h-4.5l-1.5-.5.5-1.5-2.5.5-1-1-.5,1-2,.5,1,1.5-1,1.5-3.5,1.5-3-2.5.5-.5v-1.5l-2.5.5v-1l1-1-1-1,.5-.5-2.5-1-.5,1h-1l.5-2-1.5-3h2.5v-1l1,.5.5-1,1,.5.5-1.5h1.5l-.5-1,2-.5-1-2-1,.5-1.5-1,2.5-3-.5-2,1-1,.5-3,1.5.5.5-.5-1.5-2.5-3,1-2-2.5,2.5-11"/>
      <path data-code="vozhegodskij_rajon" data-title="vozhegodskij rajon" d="M162.62,116.12l3.5-5,4.5.5,2.5,1,5-2.5,3-4,2-4,4-1,1-3.5,2-.5,1,2,1.5-.5v3l1,1,7,2,2.5-1-.5,1.5.5,1,3,.5v7l3,3,1.5-1h.5l4,3,1-1.5,2,2.5h2l1-1.5,5-1.5,1.5,6.5,2.5.5v-.5l3.5-1,1.5,1-2,2,1,1-1,1v.5l2.5,2-1,1,4.5,4.5-.5,1v1l1,1,6,1,.57,2.75-2.07,3.25-.5,3.5-1.5,2-1,3.5-1,2-1.5,1.5-1,4-7-5.5h1.5v-2l-1.5-.5v-1l-2.5.5,1,2-3,1-1.5-2.5-1,.5.5-1.5-.5-.5h-3.5l-1-2h-1.5v3.5l-1-4-4-1.5h1.5l.5-1.5-2-1-3,4-1-1-3.5,3.5-3-2-5.5-5.5,2.5-1.5,3,2.5h3v-2.5h-2l-2-2-1.5.5-1-3-4.5-2-2.5,3-2.5-2.5v-1.5h-.5l3-3-4-3.5,1-1-1-1,1.5-1.5-.5-2-1-.5-2,1-1-1-.5,1.5-1.5-.5-1,1.5-2.5-1v1l-.5-.5-2,1.5-1-2h-3.5l-9-6.5-1-1,.5-1"/>
      <path data-code="vytegorskij_rajon" data-title="vytegorskij rajon" d="M84.62,16.12l5.5-2.5,6,3.5,3-1,1-1.5,8-1,9-11.5,29.5,4,1-.5v-1l5-2.5,1.5-1.5,3.5,1,4,4.5,1-1h6l-.5.5,2,5.5,3,2.5-1.5,2.5,4.5,3h2l5,3,2.5,2.5-.5,2-2.5,2.5v1.5l-2,1.5-.5,2,.5,1-3,4.5,1,2.5-1.5,2.5,1.5,1.5-3.5,4.5,4,1-.5,4.5h-1l-.5,2.5,2,1-.5,1h-3.5l-1,1,.5,1.5-.5,1-1-1.5-1,4v1.5l3.5,2-.5,3-1.5,2-1.39,2.03-3.1-2.9-5,6.86-9-8-2,.5-2.5,3.5-3,.5-1,1-1-2-2-.5-4.5-4,.5-1.5-6.5-5-6.57,1.58-2.42-2.95-.5.5-4,2.5-4-3.5-1-3.5-3-4.5-3.5-.5-3.99,2.66v-.66s-3.51-1-3.51-1l-.5,1-3-5-2.5.5-3.5-3.5-3,.5v-.5l-3.5-3-1,.5-4-2,.5-2,1.5-1.5-3.5-3.5-2-.5,1-1-2-1.5,6-6.64-.5-1,1.5-1.5,1.5-3-1-1.5,1.5-.5.5-1-.5-2,.5-1.5"/>
    </g>
 </svg>