<svg data-code="RU-YAR" xmlns="http://www.w3.org/2000/svg" viewBox="0 0 102.97 106.75">
    <g data-code="chechenskaja_respublika" data-title="chechenskaja respublika">
      <path data-code="achkhoj-martanovskij_rajon" data-title="achkhoj-martanovskij rajon" class="cls-1" d="M16.85,57.26l2-2-1-.5,1.38-1.1,2.62-4.54,2-.5,1,1,2-1-.5-4.5,1-.5,1-3,1,.5,2-1.5,2,1.64-2.5,1.5,6,5.5-.5,2-.5-.5-.5,3-2,3-4.5,2-2-1-2,1-.5,2h1l.5,2.5-3,2.86-.5,3,2,3.64,2.5-.14-3.5,3,.5,2-1.5.5v.64l-3.5.5v-2l-3.5-2-1.5,1-4.5-5,4.5-2.5,1-1.5-1-1.5,1-1.5-.5-1,2.5-4.5v-.5"/>
      <path data-code="argunskij_gorodskoj_okrug" data-title="argunskij gorodskoj okrug" class="cls-1" d="M52.84,58.62l2,1-1,2.5-2.5.5.5-1.5-2-.36,3-2.14Z"/>
      <path data-code="groznenskij_gorodskoj_okrug" data-title="groznenskij gorodskoj okrug" class="cls-1" d="M38.85,43.26l4,2.5h2l-.5,1.5,1.5,1.5,1-2,3,2.5v1.5l-1-.5-.5,1,2.5,1.5-1,1.5-.5-1.5-1,1,.5,1-1,.5.5,2.5-2,.5-.5,2-3.5-2-2,1-1-1.5-.5-2.5,2-.5,1-2.5v.5l1-2-4.5-6.5.5-1Z"/>
      <path data-code="groznenskij_rajon" data-title="groznenskij rajon" class="cls-1" d="M30.34,29.12l2.5,2.5,4,1,4,7,5.9-5.44.1,1.44,1.5-.5,3,2,6.5,8,1,3.5,1.5,2.14-.5,1,1.5,6-1.5-1.5v2.5l-1.5-.5-2-1-1,1-2.5.36-3,2.14v1.5l-6,2.86-4.5,4-2.5,3v2.5l-.5-1-2,1.5,3.5-5.36-.5-.5.5-1.5-1-.5,5-7-1.5-1,2-1,3.5,2,.5-2,2-.5-.5-2.5,1-.5-.5-1,1-1,.5,1.5,1-1.5-2.5-1.5.5-1,1,.5v-1.5l-3-2.5-1,2-1.5-1.5.5-1.5h-2l-4-2.5-.5,1,4.5,6.5-1,2v-.5l-1,2.5-2,.5-.5-1-1,1.5-1-.5-2.5,1.5-.5-1,2-3,.5-3,.5.5.5-2-6-5.5,2.5-1.5-5.5-4.5.36-5.13h.64s.5-2.51.5-2.51h1Z"/>
      <path data-code="gudermesskij_rajon" data-title="gudermesskij rajon" class="cls-1" d="M59.85,51.76l.5-1,1,.5v2.5l1.5,1.5h1.5l1-1,2,.86,1,2,2.5,1.5-.5,1.5h3v1l1.5.5,1-2.36,1.5,1-1,.5-1.5,3-1,4.5,1,2v2l-5,5.61-2.8-.47,1.3-2.15-4-6.5-4-2-1-1.5,1-.5-1-.5.5-1-5-2.5,3.5-2.5,1.5.5v-2.5l1.5,1.5-1.5-6"/>
      <path data-code="itum-kalinskij_rajon" data-title="itum-kalinskij rajon" class="cls-1" d="M.35,75.76l3-1.5,5-1.5.5-1-1-1,1.5-.5,4.5,5,1.5-1,3.5,2v2l3.5-.5,1.5,3.86,4,1-.5,3,4.5,4.5-2.5,3.5-3-.86-.5,1.5-.5-.5-5,1-6.5-1.5-2,3h-1.5l-2.5-3-3.5.5-.5-1,1-2.5-1-2.5.5-1-1-.5v-8.5l-3-2"/>
      <path data-code="kurchaloevskij_rajon" data-title="kurchaloevskij rajon" class="cls-1" d="M53.85,64.26l6-1-.5,1,1,.5-1,.5,1,1.5,4,2,4,6.5-1.3,2.15-1.7-.28-1,2-3.5-2-1.5,2h-2l-.35,1.51h-2.65s.5-3.38.5-3.38l-1-2,3-3.5v-1.5l-3-4.5v-1.5"/>
      <path data-code="nadterechnyj_rajon" data-title="nadterechnyj rajon" class="cls-1" d="M25.34,11.62h1.5l-1,1.5,1,1.5,1.5-1,2,1,2.5-1.5,1.5.5,1.37,1.66-.37,1.84.5.5,1-1,3,2.5-.5,2-1,.5,2,4.5,1.5-.5,4.5,2.5.4,6.06-5.9,5.44-4-7-4-1-2.5-2.5h-1l-.5,2.5h-.64s.28-3.89.28-3.89l-3.14-3.61-3-1-.5-1.5v-3l3.5-7"/>
      <path data-code="naurskij_rajon" data-title="naurskij rajon" class="cls-1" d="M41.34,4.62l3-4,5.5,3.5-3,4.5,9.5,6,5-8,3,2,6,7-1,7.5-1,1.5,2,1.5-5.5,8.5-5.5,3.5-.5,5-1,2-6.5-8-3-2-1.5.5-.5-7.5-4.5-2.5-1.5.5-2-4.5,1-.5.5-2-3-2.5-1,1-.5-.5.5-2.5,6-9.5-.5-.5"/>
      <path data-code="nozhaj-jurtovskij_rajon" data-title="nozhaj-jurtovskij rajon" class="cls-1" d="M59.34,79.12l1.5-2,3.5,2,1-2,6,1v1.5l-3.5,1,.5,2.5-.5,2.5,2.5,1.5-.5,3-1.5-.5-.5.5h.5l.5,1-2.5-.5v3l-1,1.5.5,2.5h-5v.5l-1.5,1-3-.5,1-1.5-.5-5-1.5-1.5,2-4-1.5-1,1.5-6.5h2Z"/>
      <path data-code="shalinskij_rajon" data-title="shalinskij rajon" class="cls-1" d="M36.84,72.12l2.5-3,4.5-4,6-2.86v-1.5l2,.36-.5,1.5,2.5-.5-.5-.5,1.5-2-2-1,2.5-.36,1-1,2,1-3.5,2.5,5,2.5-6,1v1.5l3,4.5v1.5l-3,3.5-1.5,2.86-2.5-2-1.5,2.5-3.5-2-1,1.5-2.5-2.5-2,1-1.5-1.5-1-3"/>
      <path data-code="sharojskij_rajon" data-title="sharojskij rajon" class="cls-1" d="M13.85,93.26l6.5,1.5,5-1,.5.5.5-1.5,3,.86.5,1.5,5.66.71-1.66,2.29,2.5,2-1.5,2v2l-4,1-1-2.5-1.5.5-1,2-1.5.5-3.5.5-5-.5-.5-3-3-1.5.5-3.5-2.7-1.19,2.2-3.17Z"/>
      <path data-code="shatojskij_rajon" data-title="shatojskij rajon" class="cls-1" d="M23.34,74.62l3.5-3,1.5-2.5,1.5,2,1-1.5,2,.5-2,3h1.5l-.5,2h2.5l2-1.5.5,1v-2.5l1,3,1.5,1.5-1,2.5-1.5,1v3l1.5-.5,2,5.5,1,.5,1-1v.5l-1.5,4-2.5,1.5.5,1.5-1,1-8-1-.5-1.5,2.5-3.5-4.5-4.5.5-3-4-1-1.5-3.86v-.64l1.5-.5-.5-2"/>
      <path data-code="shelkovskoj_rajon" data-title="shelkovskoj rajon" class="cls-1" d="M69.84,16.62l3,1.5,1-1,2.5,1.5v2l7,5.5-2.5,2.5-2-1.5-.5,5,1,1,2-2.5,5,3,2-.5,2.5-4,4,2.5,1-4.5,4.5,3-2,3v2l-2.5,3,2,.5-.5,1.5,4,1.5.5,2-.5,1,1,1-1,2-2,1-3-1-3.5,2-4,1.5-1,2-3,1v1.5l-1.5,2.5h-1l-1,1.5h-1.5v1l-4-1-1,2-1.5-.5v-1h-3l.5-1.5-2.5-1.5-1-2-2-.86-1,1h-1.5l-1.5-1.5v-2.5l-1-.5-1.5-2.14-1-3.5,1-2,.5-5,5.5-3.5,5.5-8.5-2-1.5,1-1.5.5-6.5"/>
      <path data-code="sunzhenskij_rajon__chechenskaja_respublika_" data-title="sunzhenskij_rajon_(chechenskaja_respublika)" class="cls-1" d="M26.84,29.62h1.5l-.5,7.14,3.5,2.86-2,1.5-1-.5-1,3-1,.5.5,4.5-2,1-1-1-2,.5-2,3.5-1-1.5,4-11.5,1,.5,1.5-1,1-2.5,1.21-1.12-.02-.93-.18-2.45-1-1,.5-1.5"/>
      <path data-code="urus-martanovskij_rajon" data-title="urus-martanovskij rajon" class="cls-1" d="M26.85,56.76l2,1,4.5-2,.5,1,2.5-1.5,1,.5,1-1.5.5,1,.5,2.5,1,1.5,1.5,1-5,7,1,.5-.5,1.5.5.5-3.5,5.36h-2.5l.5-2h-1.5l2-3-2-.5-1,1.5-1.5-2-1.5,2.5-2.5.14-1.5-1.64-.5-2,.5-3,3-3-.5-2h-1.5l1-2.36,2-1Z"/>
      <path data-code="vedenskij_rajon" data-title="vedenskij rajon" class="cls-1" d="M36.84,80.12l1.5-1,1-2.5,2-1,2.5,2.5,1-1.5,3.5,2,1.5-2.5,2.5,2,1.5-2.86,1,2v2.36l-.5,1h2.65s-1.15,5-1.15,5l1.5,1-2,4,1.5,1.5-1.5,2.5-1,1-.5-2-2,1v-2.5l-1.5-.5-5.5,3.5,1,1.5-1,4-4.5-1.5-.5,1.5-1,.5-5-2.5v-.5l1.66-2.29,2.34.29,1-1-.5-1.5,2.5-1.5,1.5-4v-.5l-1,1-1-.5-2-5.5-1.5.5v-3"/>
    </g>
</svg>