<svg id="RU-YEV" xmlns="http://www.w3.org/2000/svg" viewBox="0 0 178.81 136.81">
      <path data-code="YEV-BRM" d="m87.66,39.31l4-1,3,1-1.5-4.5,6,1.5.5-1.5-3-.5.5-1.5-6-1.5-3-2-1,2.5,1,4-1,.5,1.5,2.5-1,.5m-13.5,19l.5-2,2.5-1,.5-1-1-.5.5-.5,2-.5,1,1,3-1,.5-4,2.5-4-1.5-1.5-2.5-4.5-4-3,1.5-5,1-.5,2.5-3.5,7.5-2.5,8-6.5-.5,4,1.5,2v1.5l.5,1-.5.5,1,.5-.5,1.5,1.5,1-1.5,5,2.5,3.5,4.5,1.5,5.5,7.5,9,10,1,3,.5,6.5,3,4.5-8.5,3.5h-1l-1-1.5-.5,1-2.5-.5-2.5,1.5-4-.5-1,1.5-3,1-5.5-2-3.5,2-3.5-2-2-2.5v-2.5l-6,1.5,1-3-.5-3.5-1.5-1h-3l-3.5-6"/>
      <path data-code="YEV-BIR" d="m87.66,39.31l1-.5-1.5-2.5,1-.5-1-4,1-2.5,3,2,6,1.5-.5,1.5,3,.5-.5,1.5-6-1.5,1.5,4.5-3-1-4,1"/>
      <path data-code="YEV-LEN" d="m55.16,82.81l-1.5-15.5h2.5l3,1.5,1-1,2,.5.5,1,1.5-2h1l4,2,2.5-2.5,2,2h1l3-2,1.5-2.5,3,1.5.5,3-1,3,6-1.5v2.5l2,2.5,3.5,2,3.5-2,5.5,2,3-1,1-1.5,4,.5,2.5-1.5,2.5.5.5-1,1,1.5-1,2.5.5,3-4.5,5.5v4.5l-2,1.5-2.5-1.5-2,2,3,4.5-1.5,5.5.5,2.5,1.5,1.5-1.5,3-2.5,1-6.5-.5-2,1.5-.5,3.5-4.5,2-5.5-1-3.5,2.5v2l-1.5.5-1.5-1.5-.5-1.5-3,.5-2.5-2-5.5-8.5h-1v-3l-1-1,1-3-.5-.5v-1.5l-3.5-2.5-3.5-7.5-3-6h-1"/>
      <path data-code="YEV-OBL" d="m3.16,84.66l-1-13.5,1-4.5-.5-1.5-2.5-.5.5-2,6-8,6-.5,1.5-1.5-3-3.5-.5-8.5-1-1v-4.5l1.5-1.5h2l2-2.5,2,.5,1-2.5,4.5-.5,1.5,2h.5v-3l3-2.5,1-3.5,3.5-1.5,1-3,5,3,2.5-1.5,2,.5v-2h-1l-1-1,1.5-2.5-2.5-2,3.5-2.5-1.5-1-.5-2-1-1,1-3h3.5l1.5-2,2,1,1,2,2,.5,2.5-1,2,2.5.5,1.5-1,1.5,1,1.5h4l1.5,1,2-4.5,4,.5v-1.5l1.5-.5-.5-1.5,2-2,4,6,3.5-3,1.5,1.5,5-1.5,2.5,2.5h3.5l.5,2,4,1.5,3.5,2.5,1,3-1,2-8,7-8,2.5-4,5-1,3.5,4.5,3,2.5,5,1,1-2,4.5-.5,4-3,.5-1-.5h-2l-.5.5,1,1-.5.5-2.5,1.5-.5,2,2.5,4.5,2,2-4,4h-1l-2-2.5-2.5,3-2-1.5-3-1-1.5,2.5-.5-1-10-1-4.5-2-3.5-.5-2,3h-1.5l-1.5,1.5-2.5.5-2.5,2,1.5,4-1,1-2,7-3.5,1.5-1.5,2.5-1-.5.5,2-2-1-.5,3-2-2.5-3-1-3.5,3.5v-2.5l-2-1.5-4,3.5-1-1.5-1.5-4-4.5-1"/>
      <path data-code="YEV-OKT" d="m22.16,116.16l-.5-2.5,2-4.5-1-4.5,1-1.5v-3.5l-2-2-3-1-2.5-5,3.5-3.5,5.5,3.5v-3l2,1-.5-2,1,.5,1.5-2.5,3.5-1.5,2-7,1-1-1.5-4,2.5-2,2.5-.5,1.5-1.5h1.5l2-3,3.5.5,4.5,2,1-.5.5,1.5,1.5,14.5h.5l3.5,6,3,7.5,4,2v1.5l.5.5-1,3.5,1,1v2.5h.5l6.5,9.5,2,1,3-.5,2,3.5,1.5-.5.5,1-3,3-5.5-1-1,1-1,4-1,.5-2.5-1-1.5-2.5-5,.5-2,2.5-4.5,1-2,4-3,2-4.5,1-2-1-2.5-6-6-6-7.5-3-1-1.5h-2l-2-2.5-1-.5"/>
      <path data-code="YEV-SMI" d="m100.16,34.66l1.5-4.5-1.5-1,.5-1.5-1-1,.5-.5-1-.5.5-2-2-1.5,1-4.5,4.5,4.5.5,2,7.5-2,3,2,1-.5.5,1.5h1.5v.5l2,.5,3.5-3,.5,2,1-1-1-2,2,1.5v-1.5l2,1v1l1-1v1h.5l.5,1.5,1.5-1,1,1.5v-1h1.5l1,1,.5-.5v1-1.5h1l-.5-1,1,1v.5l2-1.5,1-.5v1l.5-1.5,1.5.5v-1l1.5-.5-.5-.5.5-.5,2.5-.5.5-2.5,1,.5-1.5-3,.5-1v-1l1,.5,1.5-.5,1.5-2.5,1.5,1.5,1.5-1,1,2.5h2l.5,1.5.5-1,2,1h1l.5,2,3-2v-1.5l2,1.5,2.5,1,3.5-5-.5-1.5h3l.5-1,2,1,2.5,4-1.5,2.5.5,5-.5,4.5-1.5,1.5-2.5,1-4-.5-2.5,1.5-4,.5-2,4-8.5,4-.5,3.5-4.5,1.5v3.5l-2,.5-6.5,7,.5,2-.5,3.5-4,.5.5,5-3,3-3.5.5-2.5,3-3-5-.5-6.5-1-3-9-9.5-5.5-7.5-4.5-2-2.5-3.5"/>
</svg>