<svg id="RU-ZAB" xmlns="http://www.w3.org/2000/svg" viewBox="0 0 510.25 698.75">
    <g data-code="zabajkal_skij_kraj" data-title="zabajkal&amp;apos;skij_kraj">
      <path data-code="aginskij_rajon" data-title="aginskij rajon" d="M258.12,530.62h2.5v1.5l1.5,1,3.5-2.5-2.5-3-3.5.5-1.5,2.5M229.62,528.12l1-3.5,3.5-3-.5-3,4-2v-4h2.5l1,2.5,2,1-.5-2,1-2,1.5,1.5,1,2.5-.5,1,1,.5-.5,2,7.5-1.5.5,2h1.5l5.5,5,1.5.5,3.5,3.5h2l2,2,1.5-.5-2-4v-1.5l2.5,3,6.5,2.5,3.5,5.5,1-.5,3.5,2.5.5,2.5,1.5,1.5,7,4,.5-1,6,10.5,1,3-2.5.5-2.5-1v1l-4.5,2.5-.5,2-1-1-2,1.5.5,1.5-1.5.5-1.5.5-1-1.5-1,2-1.5.5-1.5-.5-1.5,1-7,1v1.5l-3,3-4,.5-.5-1-.5,1h-2l-.5-2.5-1.5-2,.5-1.5-7-13-2,3h-1l-.5-4.5h-1l-.5-1.5-2,1-2-.5-.5,1-1-1-2.5,2-2.5-9.5-4.5-2-3.5-3,1-1.5v-6.5l1-1-4.5-3"/>
      <path data-code="akshinskij_rajon" data-title="akshinskij rajon" d="M186.12,621.12l.5-2.5-1-1.5,1-1.5-1-1.5.5-3-.5-1.5v-2l1.5-2,.5-2.5,1-.5-2-5v-3.5l1-4-.5-1.5,1.5-2h2.5l1-1,1-2.5-.5-3.5h-.5l1-2-1-.5,2-3,3,5,2.5-1,2,2,3-4,6.5,1,.5-1-.5-1,1.5-1,2.5.5,3,2.5,1.5-1,1,4,2,1.5,2,2.5-1,3,1.5,1.5,1-1.5,3.5-.5-.5-1h1l-.5-3,3.5-1,.5-1-1.5-4,4.5-2,1,2,1-1,6,2.5,1.5,2.5.5,5.5,4,3,4-1,2,3.5.5,4.5-.5.5-7,8-5,3-3,6.5-5.5,2.5-1,3.5-7,7-2-4-2-1.5h-1l-1,3-1.5,1-.5-.5-1,1.5-5-1-3-2-7.5,1v1h-2.5l-.5,1-1.5.5-4-.5-2-2.5-1,.5-6-3.5"/>
      <path data-code="aleksandrovo-zavodskij_rajon" data-title="aleksandrovo-zavodskij rajon" d="M362.62,511.62v-2l2.5-5.5,3-.5v-1.5l2.5-1.5.5-2.5,1.5-2.5-.5-2,2-1.5,3.5-2,2.5,2,.5-1,11-3.5-.5-3.5,1.5,1h.5v-1.5l4,1,.5-2.5,2.5-.5,5.5.5,1.5-2-.5-3.5,1-1.5-1-1,2.5-3-.5-.5,2.5-.5v-1.5l5-1,3,3.5-1,1,.5,1,1.5-1,4,5-2,2,.5,2-1,2,.5,2-1.5,1-.5,4-1,1.5,2,4-2.5,2-.5,2-4,1,3,2.5-.5,1.5,4,4,2.5,7.5-.5.5,1,4.5-1,.5v3l-.5,2.5-3.5-3-1,1-.5,2-1.5,2,.5,8.5-7.5,1.5-1.5,4-3,3-1.5.5-1-2-3.5,2-1.5-.5v-2.5l-2.5-1.5v-1l3.5-1.5.5-1.5-1.5-4-5-1.5-1-3.5,2.5-2.5-2.5-1.5-4,2.5-1-1.5h-1l-.5-2.5h-.5l-2,3.5-1.5.5v-2l-5.5-2-3.5.5v-1l-1.5-2.5,1-2v-1l-4.5-4-.5-1h-2.5l-.5-1"/>
      <path data-code="balejskij_rajon" data-title="balejskij rajon" d="M314.62,501.62l.5-1.5,1,1v-1.5h1v-2l-1-1,1-1.5-.5-1-2-.5-.5-2h1l.5-2.5,1.5-2.5,2.5,1,1-2,.5,1v-2.5l1.5-2h1v-1.5l-.5-1,1-1.5,3,.5,2-1,1,1,1-2.5,1-.5.5.5v-.5l1.5-2.5-1-.5,1.5-1.5v-1.5h1l-2-3.5,1.5-.5.5-2,5-2,1.5-2.5-.5-1,2.5-1,2.5-4,3-.5,5-4,1,3.5,2,1-.5,1,3,2v1l-3,3.5,1,1-.5,2,1.5.5v1.5h-1l-.5,2,3.5,5,2.5,1,1-.5,1.5,2.5v1.5l1.5,2v4l-1,1,.5.5-1,1-1-.5-1.5,2.5v2l6,3.5,2,4.5-.5.5-.5,2.5-2.5,1.5v1.5l-3,.5-1,2.5h-3.5l-5.5,4.5,2,5-2,.5-1.5,3-1-1.5-1-4-3.5-5.5.5-2-1-3,3-7-6-2.5-.5-1.5-3.5,1.5-1.5-1-1,2-4.5.5-1,1-3-1-.5,1.5-4.5,2.5,1,2.5-2.5.5-1.5,2,1.5,2.5-3,.5v-1l1-2-.5-1.5-2.5,1-3.5-2.5"/>
      <path data-code="borzinskij_rajon" data-title="borzinskij rajon" d="M316.62,603.12l2.5-11.5,11.5-6.5-3-12-1.5,1-1-2.5-1,.5-.5-2-.5.5-1-2,2-.5-1-2.5,4-1,3-3-1.5-4.5,3-3.5,4-.5,1.5-3.5,5-1,1.5-2v-1.5l4-2.5.5-5,2.5-3h4l-.5-1.5.5-1.5v-2.5l-2-1,1-8.5,1.5-3,2-.5-2-5,5.5-4.5h3.5l-1.5,3v2l.5,1h2.5l.5,1,4.5,4v1l-1,2,1.5,2.5v1l3.5-.5,5.5,2v2l1.5-.5,2-3.5h.5l.5,2.5h1l1,1.5,4-2.5,2.5,1.5-2.5,2.5,1,3.5,4,1,1.5,1.5,1,3-.5,1.5-3.5,1.5v1l2.5,1.5v2.5l-4,2.5-6-.5.5,1.5-2.5,3.5,1.5,2,2.5,1-4,8.5-3,.5-.5,1h-1l-1.5,1.5-2.5-2-.5,3,.5,3.5-7,3-3,2.5-1.5-5.5-3.5,3-1.5-1.5-3,2h-3.5l-1,8-7.5,2.5.5,2-6,3-11,12h-11.5"/>
      <path data-code="chernyshevskij_rajon" data-title="chernyshevskij rajon" d="M298.12,390.62l-1-3,1-2h1.5l.5-1.5h1.5v-1l-1-3.5,3-.5,2-2,1.5.5,1-1.5-.5-2,1.5-3,2.5.5,1,3,3.5-1,1.5-5,2.5-1v-2l3.5-1v-1.5l4.5-1.5v-1.5l.5-1.5v-1l-4.5-4-2-.5-2.5-5,2.5-6,2-.5-.5-1,1-.5,3.5,2.5-.5,1.5,1.5,1.5,3,.5v2l3-1.5,1,2,.5-1.5,1,.5v-1.5l1.5-.5-.5-1.5.5-.5,8-4,1.5-3.5-.5-.5.5-1.5v-3l1.5-.5-.5-3,1-1-.5-3,1-1.5-.5-1.5,1.5.5.5,3,1,.5,6-.5v4l2.5,4.5-2,.5-.5,2.5.5.5-1,2.5.5,2,1.5,1.5,1,5.5,1.5,1v1.5l5.5,2,1,3-.5,1,2-.5,2,2.5.5,3.5,2,.5.5.5-.5,1,2.5,2.5h1l-.5,2,2.5,3.5-.5.5,1,1.5-1,2h-2v1.5l1,.5-2,2-1-.5-3.5,3,.5,2-3,2,.5.5-.5,1.5-4.5-.5-1,1-1-1,.5-.5-.5-.5-2.5,1-1-1-3,2,.5,1-1.5,2.5-1-.5-2.5,1.5-2-.5-2,2.5.5,2.5-1.5,1.5-1,4.5,1.5,5-1.5,2,.5,2-3,4.5,3,1,3,2.5-1.5.5-1,2-3,1.5-1,3.5-5.5,1.5,1,3.5-3,1.5-5.5,6-3.5-1.5-.5,1-4.5-3.5-1.5,1.5-3-3-4-2-1.5-3,1-2.5-.5-6,1.5-.5-1-2.5-2.5-3-1.5-4.5.5-.5-1.5-3.5,1-1-.5-1.5.5-1.5v-1l-5-1-1.5-4-1.5-.5-.5-3-.5-1.5-3-1.5"/>
      <path data-code="chitinskij_rajon" data-title="chitinskij rajon" class="cls-2" d="M193.62,479.62l.5,1.5,3,1,1-1.5.5,1,1.5-.5-.5-1,2.5-2,3,.5,4,2.5,3.5-3,1-4.5-1.5-2.5-5.5-2.5-6.5-.5v-1.5l-4.5,5.5-1.5,4-.5,3.5M158.12,499.62l3-3.5v-2l-2-1.5,1.5-2,2-.5-.5-1,1-1-.5-1.5,1-1-.5-1.5h-1.5l-.5-1.5-.5-2,1-1.5-1-1,.5-4.5,2.5-4,2.5-1.5-.5-3.5,1-3.5,2-1.5,2,1,1-1,2.5,1h2.5l2.5-2.5,2,1,1.5-3.5h1.5l2.5-2.5.5-2.5h1v-1.5l13-4,1.5-1.5,2.5,2.5,1.5-4.5-.5-1.5,2.5-2.5.5-2.5,1.5.5.5-2.5h2l1.5-2.5h2.5l1.5-3,2.5-.5-.5-1,2-3v-1l2-6,1-1-2-3v-5l2-2v-1l-1-1.5.5-1.5-1-1,.5-.5h1.5v-1.5l1,.5,2-1.5,6.5,3,.5,1.5-2,2.5.5,3.5,1,.5v4.5l.5,1-.5,1,1,1,2.5,3.5,2,1.5.5,1-1,1.5h2.5v6.5l-.5,1.5-1-.5-1.5,7,1,1,2,9-.5,1.5v10l1,.5v2l1,.5v2l-2.5.5-3.5,5.5.5,2,2,6-3,2.5-1,4-1.5,2,.5,2.5-3,3.5h-2.5v1.5l-.5.5-5,2,.5,2-3,2,.5,1-.5,1,.5,2.5-2.5,5,1,1,.5,2.5-1,.5-.5,3.5v3.5l.5,4.5-1,2.5.5,1-.5,1,1,2.5-1,5-.5-.5-1,1.5h-4v1.5l-2.5,4-2.5,1.5-1,2.5-2,.5-.5,2-2.5,2.5-2.5-1.5-.5.5-1.5-1.5v-1.5l-2-2,.5-2-1.5-1.5.5-.5-1.5-3.5,2-1,.5-1.5,1.5,1,.5-3v-1.5l1.5-.5v-2.5l1-.5.5-4.5.5.5.5-1,.5-2.5-1-1.5h1l.5-3.5h1l-1-1.5.5-2-1-1.5v-3.5l.5-.5-.5-2.5v-1.5l-2.5-2.5-5,1.5-3.5-1-2,2-9-2-3.5,3v1.5l-2,.5.5,1-.5,3-1,2-5.5.5-1,1-1-1v-3.5l-2-.5-1.5-2.5h-1.5v-1l-2.5-2-.5-2.5-2-2.5"/>
      <path data-code="dul_durginskij_rajon" data-title="dul&amp;apos;durginskij_rajon" d="M177.62,563.62l1-2-1-1.5,1.5-1.5,1-6,4-3.5.5-4h1l-.5-1,1-1-.5-3,3.5-.5,2,1,4-1,1.5,3.5-.5.5,1.5,1.5-.5,2,2,2.5v1l1.5,1.5.5-.5,2.5,1.5,2.5-2.5.5-2,2-.5,1-2.5,2.5-1.5,2.5-4v-1.5h4l1.5-1.5,4.5,2.5,7-1,1.5,3,7,3.5,2.5,9.5,2.5-2,1,1,.5-1,2,.5,2-1,.5,1.5h1l.5,4.5h1l2-3,7,13-.5,1.5,2,4-2.5.5-1.5-1h-1.5l-5.5,4-2.5.5-4,4.5-.5-2-1.5-2-6-2.5-1,1-1-2-1,.5-3.5,1.5,1.5,4-.5,1-3.5,1,.5,3h-1l.5,1-3.5.5-1,1.5-1.5-1.5,1-3-2-2.5-2-1.5-1-4-1.5,1-3-2.5-2.5-.5-1.5,1,.5,1-.5,1-6.5-1-3,4-2-2-2.5,1-3-5,1-1.5v-4.5l-3-1-2.5,1.5-1-2-1.5-.5-1.5,2.5-2.5-.5-1-.5-1-2.5-3.5-1.5"/>
      <path data-code="gazimuro-zavodskij_rajon" data-title="gazimuro-zavodskij rajon" d="M386.62,471.12l1-1-1.5-1v-1.5l3-4.5-.5-2.5,2.5-1v-1.5l3-5.5v-2.5l1.5-1-1-1,.5-1-.5-1,.5-1.5h-2l2.5-3-1-1,3.5-2-.5-2.5,1,.5,1-4.5-1-2.5,1.5-2.5,1.5.5,1-1-.5-2,4-2,1-2,1.5.5,4.5-5.5-.5-1,.5-2-1.5-.5-.5-3.5,1-.5,3.5,1.5,6-1,2.5,1,.5-1h5.5v-1l3-1-2-4.5-2,1-1.5-5.5,1-1.5-1-1-1-2,.5-.5-1.5-.5-2.5-3v-1.5l-2-2-1-2-.5,1-4-2-2,1-1-1.5-.5-1,2.5-2v-1.5l-1.5-1.5-1-1.5,1-2-1-1,4-2.5-.5-1.5,1.5-4,2-1.5v-2h-1l1-3,3-1.5-1-1.5,1.5-1-.5-2,2-2.5-1-.5.5-1.5,5-5v-2l1.5-2.5h2l1-2,3-2h1l4.5,5h1.5l2.5-2.5v-1.5l2.5-1.5-.5,6.5,2,1.5,1,3,1.5,2.5,3.5.5v1l-1.5,2v3l-1.5,1,.5,2-2.5,2.5-.5,2.5h-2l-1,2.5-2,1.5,2.5,4v5.5l1,2,1,.5,5-.5,3-4,4.5-1.5.5,2,1-.5,1.5,2,3,2.5.5,1.5-1.5.5,2.5,3.5-2.5,1.5-1,3-2.5-.5v1.5l-1.5,2.5,1,2v3l-1.5,1,1.5,1.5v4l2.5.5.5,1.5-2,2v1.5l-1,1.5-1.5,1.5v3.5l-3,1-.5,3-2,2v1l-1,2.5.5,1-2,1-4-2-1.5.5v-1.5l-1-1.5-1.5.5,1,1.5-.5,1-4.5,3v2.5l-4,1.5-.5,1.5.5,2-3,2.5v2l-1.5,1-1.5,3.5v2h1l1.5,2-6,1.5-1.5,4h-1l.5,1.5-1,.5.5,2,2.5,2-2,5.5.5,3.5,1,1-.5,1h1.5v2.5l-1,1.5-.5-1.5-3,5-4-5-1.5,1-.5-1,1-1-3-3.5h-2l-3,1v1.5l-2.5.5.5.5-2.5,3,1,1-1,1.5.5,3.5-1.5,2-5.5-.5-2.5.5-.5,2.5-4-1v1.5h-.5l-3-2.5,2-.5-1-1.5,2-2-1.5-4-1.5.5-.5-1.5-1.5-.5-1-2"/>
      <path data-code="gorodskoj_okrug_chita" data-title="gorodskoj okrug chita" d="M193.62,479.62l.5-3.5,1.5-4,4.5-5.5v1.5l6.5.5,5.5,2.5,1.5,2.5-1,4.5-3.5,3-4-2.5-3-.5-2.5,2,.5,1-1.5.5-.5-1-1,1.5-3-1-.5-1.5"/>
      <path data-code="gorodskoj_okrug_petrovsk-zabajkal_skij" data-title="gorodskoj_okrug_petrovsk-zabajkal&amp;apos;skij" d="M25.61,558.3l.5-1.5h2l1,1.5,1.5-1-1-1.5,1-.5-.5-1-2-2.5-1.5-.5,1-.5-1.5-2,3.5,4,3.5-.5-.5-2,.5-.5,1,.5,2,4.5,2-1,.5,2h1l1,5-2,1-1,4h-4.5l.5-1v-1l-2-3.5h-1.5l-2.5,2.5.5-1-1-1,1-.5-2.5-2"/>
      <path data-code="gorodskoj_okrug_poselok_aginskoe" data-title="gorodskoj okrug poselok aginskoe" class="cls-1" d="M259.62,528.12l3.5-.5,2.5,3-3.5,2.5-1.5-1v-1.5h-2.5l1.5-2.5Z"/>
      <path data-code="kalarskij_rajon" data-title="kalarskij rajon" d="M211.12,146.12v-2.5l-.5-1,4-3,1-2-.5-2.5.5-1.5-2-3.5-.5-3.5.5-1.5v-1l2.5-2.5.5-2,4,.5,6,3.5,1.5-.5,3,3h1.5l2-2,1.5.5,2.5-3.5,4.5,3h3.5l.5,2h5l1.5-2,2,2.5,7-6.5,2,.5v-1l-1.5-.5.5-1,4-.5-.5-1,1.5-.5-.5-1.5v-2.5l3-3v-1h.5l.5-2,1.5,2,.5,2.5,1.5.5,1.5,2.5h2l-.5-2.5,1-2,1.5,1.5h1.5l-1-3.5-1.5-2,2.5-2.5.5-5-1-.5v-2.5l-2.5-1.5v-1.5l-2-1.5,1.5-2.5,2.5-1.5,1-4.5-.5-1,.5-1-.5-1.5-5.5,1-2-2-.5,1,1,3-.5,2-3,2-1.5-2,.5-3-1-2-2,2-1.5-1.5-2-7-2-.5-1-2.5-1-1,.5-1.5,2-.5-1.5-2.5v-2.5l-3,.5-2.5-1-1.5,1,.5-2.5-1-.5,1-1.5-1-1.5.5-1-.5-1.5h-.5l-.5-1.5h-2l-1.5-1.5,1-3,3.5-.5,1.5-2,2.5.5.5-2-.5-.5,1.5-1,.5-2h-2l-.5-3-1-2,1-.5-1-3.5.5-2.5-1-1,.5-.5-1-1,.5-1,.5-1.5,5,1v-2l-2-3.5-.5-.5v-1l-1.5-.5.5-.5-1-1h-1.5l-1-2.5,4.5-4.5-.5-1,1.5-1.5v-1.5l1,.5,3-.5.5-2,2,1.5,4.5-2,1.5.5,1,2,1,.5,1-2.5,4.5-1,2.5,2.5.5-.5,1.5,2.5,1.5,1.5,3.5,1.5,1,2,3-1,.5,1,3.5,1.5,2.5-1.5,1.5-3,4.5-1,3-3,3,1,2,3.5,1.5,1-1,1.5,1,2-.5,1,2.5,3-.5,5.5-.5.5.5.5.5,2.5-1,1,1,2v1.5l1,1.5-.5,1.5.5,2-1,1.5.5,1.5,1,1.5,4-.5,1,4-1,1,1.5,1,1,2.5-.5,2.5,3,3h.5v-1.5l.5-3-.5-2,1.5-2,3-1.5,1,1h2.5v4.5l-1,.5-.5,3,1,2v2l2,3,4.5,1.5,2.5,3v1l1,.5v1l.5,1.5,4.5,3-2.5,4v4l1,1.5.5,1.5,3.5,2,4-1,2,3.5,2,2-.5.5.5,1.5-.5,1-3.5,3.5.5,1.5-1,2,.5,1.5,1.5,1,3-.5,1,2.5,2.5-1,1,.5-1.5,4,.5,3,1,.5.5,1,3.5.5v1.5l2,2,4.5-2,1.5,1,.5-.5,3.5,1v-1.5h1l1,1-.5,1,.5,1-1,1,.5,1,4,2,2-.5v2.5l4.5,1.5,1.5-1,1.5,2-1.5.5.5,1-.5,1-6,3,.5,1h-2.5l-2,1-1.5,3.5-2.5,1.5.5,3,5,5v1l1,1,.5,2.5-1.5,2,2,1,1,3,2-3-1.5,3.5-3-.5-1,4-2,1.5-6.5-2.5-6,5,.5,1-2.5,5.5-4.5,4.5.5,1,2.5,1,.5,2-2,4.5.5,2.5-.5,1-2,2.5h-2l-1,2.5-2,.5v2.5l-4,1-6.5,8.5-1,3-3,2.5-2.5,6-4-1-.5,2-2,2-3.5.5v-3l-3.5,1-1-1-1.5-4-1.5,1.5-2.5-1-1-2-3.5-2.5v-4.5l.5-1.5-.5-2-3.5-.5-1,2.5-5,1.5-.5,2.5-1,1.5-3-2-2-3.5-5.5,3-1,2-4,.5-1,2-1.5-.5-1-3,1-2.5-1-1-1-2.5-2-.5-1-4.5-2,.5,1.5-2-1.5-5.5-6.5-6.5v-1.5l-2.5-1.5h-1v.5l.5,3-1,1.5,1,2.5-.5,1,.5,2-1.5,1.5h-1.5v2l-1.5-.5-3.5,2-2.5-1-2.5,1-2.5-1-.5,1.5-8,3.5,1,2-.5,1.5.5,1-.5,3.5h-3.5l-2.5-2v1.5l-3,2-.5-3,.5-1.5-1.5-1.5-1.5-6,1.5-1.5v-4l-5.5-3-.5-3-1.5-1.5,1-2.5-1-1-1-2,2-.5.5-1.5-1-1h-2l-5-8-.5-2,.5-.5-1.5-5,1.5-1.5,2.5,1v-2l-5-3-1-2v-2l-.5-1.5-6,1-3.5-.5-.5-1"/>
      <path data-code="kalganskij_rajon" data-title="kalganskij rajon" d="M414.12,500.62l4-1,.5-2,2.5-2-2-4,1-1.5.5-4,1.5-1-.5-2,1-2-.5-2,.5-1.5h1l3.5-5.5.5,1.5,2-2.5h1.5l1.5,2.5-1,1,1,.5-.5,3h-1l1,2,5-1,2-4.5.5,1.5,2,.5v-1l1,1-1.5,3.5-1.5-.5.5,1.5-1.5,2.5,1,.5-.5.5.5,1-1.5-1-2-.5v4.5l2,1.5.5,1.5h.5v1.5l3,1,3.5,4,.5,1.5,3.5-5.5,2,.5v-2l2.5-2,1,.5,2-2,4.5,3.5-1.5,4,1,2.5-.5.5.5,1-1,.5,2,3-.5,1,.5,1.5-1,5-2,1-2.5-1.5-2.5.5-1.5-2h-1l-.5,2.5-6-2-.5,2h1l1,2-4,2-1.5,4-2.5-1-1,1-4-3.5.5-1-2-2h-2.5l-2.5,3-4-.5-2.5-7.5-4-4,.5-1.5-3-2.5"/>
      <path data-code="karymskij_rajon" data-title="karymskij rajon" d="M220.12,537.62l1-5-1-2.5.5-1-.5-1,1-2.5-.5-4.5v-3.5l.5-3.5,1-.5-.5-2.5-1-1,2.5-5-.5-2.5.5-1-.5-1,3-2-.5-2,5-2,.5-.5v-1.5h2.5l2-1.5,3-10.5,3-2.5-2-6-.5-2,3.5-5.5,2.5-.5v-2l-1-.5.5-1.5-1.5-1v-10l.5-1.5-2-9-1-1,1.5-7,1,.5.5-1.5v-3.5h2.5l3,2h1.5l.5,2,1,.5,1,2.5,3,1,3-2,1.5,2,1-1,2.5,1,.5-1h1.5l2.5,2.5,1.5.5.5,3-1,.5.5,1.5-.5.5.5,1.5-1.5,1,.5,1.5-1,.5,1,2-1,2h.5l2.5,5.5h3v1.5l2.5,6.5-4,3,.5,2-1,.5-1,2.5h-1.5l-.5,1.5.5,1-1,1,.5,2,1.5,2.5.5,2,1.5.5.5,1-1.5,2v2.5l-3.5,1.5.5,1.5-2,1-.5,2.5-3.5,4,1,1-4,3v2.5l-4,3.5-1,7v2.5l-.5.5-7.5,1.5.5-2-1-.5.5-1-2-3.5-1.5,1.5.5,2-2-1-1-2.5h-2.5v4l-4,2,.5,3-4.5,4.5v2l4.5,3-1,1v5l-1,3-.5-1.5-7,1-4.5-2"/>
      <path data-code="khilokskij_rajon" data-title="khilokskij rajon" d="M53.62,562.62l2.5-2.5h1l-.5-1h1l.5-3.5.5.5-.5,1.5,1.5,2.5,1.5-1.5,1-2h1.5l-.5-1,1-.5-1-2,2.5-2.5-1.5-3,.5-1-1.5-4,2.5-2,1-2,2.5-1.5,1-2.5,4-3,.5-2,3-1.5,3,1.5,1-1,2,1,4-1.5,3.5,1.5,1-1v2.5l2,1.5h2.5l1.5,1,7-2v-2l1.5-.5.5-3,2.5-.5,1-2.5-1-1.5-1-.5v-1.5l1-1,2-3,3-1.5v-2.5l-1-1.5,5-3.5h2l3.5-1.5v-2l2-1.5h4.5l1.5-3.5,2.5-1.5.5-2,4-2-1-1,1-.5,1-5.5,1-.5-.5-1,1-.5v-1l2.5-1-.5-1.5,1.5-2-.5-2.5,2.5-1.5,2-5.5h2.5v-1l1-1,1.5,2v1.5l1.5.5,3-1,3.5,2.5-1.5,6,1,1-1,1.5,1,3.5h1.5l.5,1.5-1,1,.5,1.5-1,1,.5,1-2,.5-1.5,2,2,1.5v2l-3,3.5,2,2.5.5,2.5,2.5,2v1h1.5l1.5,2.5,2,.5v3.5l-3.5,5h-1l-.5,2.5-2.5.5-1,2.5h-1.5l-2,4h-2l-1,1,.5,2-5,4v2l-1.5,1v2l-1.5.5-.5,2.5-3.5,2-1.5,2.5-6,2.5-.5-.5-1.5.5-2.5,2.5h-1l-.5,2.5-2.5,3h-.5l-.5-1-3,1,1,2,1,.5-1,3v3l-1,1,.5,2,.5,1-.5,1,1,.5-1,3,1,2-3,3-4.5-1-3.5,1.5-.5-.5-5.5,4h-6.5l-1,1.5.5,1-.5.5-2.5,2-5-1-2.5.5-.5,1-1.5-.5-.5-1.5,2-3v-1.5l-1-1,.5-.5-1-1.5,1-.5v-2l-1-.5-1-1.5.5-1-.5-1,1-3-1.5-2v-4.5l-1.5-3-3,1-3.5-.5-3,1.5.5,1.5-3,1-.5,3.5h-1.5l-2.5,3.5.5,1-3.5-1-.5-2-2.5-2-1.5-3.5-1,1v-1.5l-3.5-3-1.5.5"/>
      <path data-code="krasnochikojskij_rajon" data-title="krasnochikojskij rajon" d="M1.12,647.12l-.5-3,2.5-1,1.5-3.5,1.5.5,2-3-1-1v-.5l1.5-2v-2.5l1.5-2,4.5,2.5.5-2.5,1.5-1.5-1-.5.5-1.5,1-2,6,.5.5-2,1.5-.5,1-3,1.5.5,2.5-2,3.5,1,1.5-1v-2l.5-2.5,4.5-3,.5-2.5,1,.5,3-2,3,1,1.5-3.5h5l.5-2,2-.5-.5-1.5,2-1.5,1.5.5,2-.5,1-1.5,2.5-1,4.5-4,1.5,1.5.5-1.5,1.5.5v-1.5l5,2,1.5-1.5,1,.5.5-2h1.5l.5-1,2,1.5,3,.5.5-1,2.5-.5,5,1,2.5-2,.5-.5-.5-1,1-1.5h6.5l5.5-4,.5.5,3.5-1.5,4.5,1,1-1,1.5,1-1,2,4,3,2-1,4-.5.5,1,.5,2-1,3.5.5,2.5,1,.5-1.5,2,1.5,3.5-1,2.5,1.5,2.5,2.5,2.5.5,3.5-1,1,1,1-1.5,2.5-3,1v1l-2-.5,1.5,3-1,1,.5,1.5-1,2,1.5,2-.5,2.5,1.5.5,1,3.5,1,.5-.5,1.5h1l.5,1.5.5-1,1,1,.5,3,.5.5-2,2h-3.5l.5,2.5.5.5-1,1.5.5,1h1.5l-.5,1,.5,3.5h2l.5,1.5,1,1-1.5,2,.5,2-3,2.5-3.5-3v-2l-1-.5-1.5,1-6-1-4.5,4.5.5,2.5v1.5l-4-.5-1,2.5-1.5,1-1,2.5.5,1.5-2,3.5h.5l-.5,2-7,2-2-3-1.5,1-.5-1h-2l-2-2.5-.5-.5,1-.5-1-1.5-2,1.5-.5-4.5h-1l-2,4h-1l.5,1h-1l1,1.5-.5.5-2,1,2,3,1.5,1-.5.5.5,2-2,1.5-2.5-1.5v-1l-.5.5-.5-1.5-1,1.5-2-.5-.5,2,.5,2.5-2.5,6v2.5l-2.5-1.5-7-.5-5,2.5-5-.5-3.5,2-1.5-1-4,1-2.5-.5-2,1.5-3.5,1-4-3-.5-2.5-3.5-.5-.5-3-2.5-2.5-.5-2-5.5-1-6-3.5-1-3.5-2,2-1-1-1-3,1-2.5-1-2.5,1-1.5-2-1v-2.5l-1-1,1.5-3v-2l-4.5,1-1-1.5-2,1.5-1.5-2,1-1.5-1-1.5,1-1.5-.5-2-3-3"/>
      <path data-code="krasnokamenskij_rajon" data-title="krasnokamenskij rajon" d="M384.62,564.62l4-8.5-2.5-1-1.5-2,2.5-3.5-.5-1.5,6,.5,2.5-2h3l3.5-2,1,2,2-1,7.5,4.5,6,1.5v2.5l4,1.5,1-1-1-.5,2-3.5,7-2-2.5-3.5.5-1.5,2,1.5,2.5-1,1.5,3.5h1v2l1-.5,3,4v3l9,5.5,1.5,5.5.5-.5.5,1-2,2.5-6,2.5-1.5,2.5-.5,3.5-1.5,1-1.5,4-7,6-.5,2.5-2,1.5v1.5l-2-.5-.5,2.5-.5-1-1,1,1.5,1.5-3,.5v2.5l-2,2-1-2.5,2-3-4-1.5,1-1.5-3.5-4,1-4-.5-2,.5-1.5-1.5-1.5-5-1-.5,1-2.5-2,.5-4.5-2-1-4.5.5-3-5-14-5.5"/>
      <path data-code="kyrinskij_rajon" data-title="kyrinskij rajon" d="M77.62,693.12v-2.5l2.5-6-.5-2.5.5-2,2,.5,1-1.5.5,1.5.5-.5v1l2.5,1.5,2-1.5-.5-2,.5-.5-1.5-1-2-3,2-1,.5-.5-1-1.5h1l-.5-1h1l2-4h1l.5,4.5,2-1.5,1,1.5-1,.5.5.5,2,2.5h2l.5,1,1.5-1,2,3,3-.5,4-1.5.5-2h-.5l2-3.5-.5-1.5,1-2.5,1.5-1,1-2.5,4,.5v-1.5l-.5-2.5,4.5-4.5,6,1,1.5-1,1,.5v2l3.5,3,3-2.5-.5-2,1.5-2,4-.5,1.5-4-1-2.5,3.5-2-.5-1.5,1-.5-.5-1,.5-1.5-.5-.5v-4.5l-.5-.5,1-2.5-.5-2,3-1.5,1-2v-1h-.5l-1-2,1-.5-1-2,1-1.5,1.5-2,1-.5.5,1,1-1.5-1-1.5h1l-.5-1,3.5-1,1.5-2.5,1,1,1.5-.5,1,2,1.5-.5,2,1.5,1-2.5-1-1.5,1.5-.5.5-2-1-1.5h.5l-.5-2h3l1,1v-2l2-1,.5-2,7-2h3l1,2,4-1,.5,2.5.5,1-1,.5-.5,2.5-1.5,2v2l.5,1.5-.5,3,1,1.5-1,1.5,1,1.5-.5,2.5,6,3.5,1-.5,2,2.5h5.5l.5-1h2.5v-1l7.5-1,3,2,5,1,1-1.5.5.5,1.5-1,1-3h1l2,1.5,2,4-1,.5-1.5,5v2l-1,1.5-1.5,9-5,4-3,4-3,1.5-1-.5-1,1-9,.5-7.5,4.5-3,3-9,6.5-11,1.5-6,5.5-6.5-1-3.5,4-17.5,12.5-5,1.5-7-.5-4.5-1.5-1.5-1.5-2,4-5,4-4.5-1.5h-17.5l-5,1-2.5-.5-1.5-2-2-.5-1.5-1.5"/>
      <path data-code="mogochinskij_rajon" data-title="mogochinskij rajon" d="M346.62,307.12l.5-.5,1.5,1.5,2-1,1-2.5-.5-1.5,1-1,3.5,2v1l1.5,1.5,2-1,3-.5-.5-2,.5-1.5-.5-1.5,2-4.5-1-3,2-2.5v-1.5l3.5,1.5h1.5l2-1.5.5-1,2-2,7,4.5v2l1.5,3,1,.5,1,2,1.5.5,1.5-3-.5-3.5,3-.5,3,2,1-2,1.5.5,2.5-3v-1.5h1.5l-.5-4,1.5-.5,1-2h1l3.5,2.5,3.5.5v-1l1.5-1,.5-2.5-.5-1.5,2.5-2,1.5-2.5,1.5,2v1.5h2l1.5-3.5,2.5.5.5-1-1-1,5-3,2.5,1.5,3-5.5h2.5l.5-2-1-.5.5-2.5h1l1,1.5,1.5-.5.5-1.5-.5-2,1-1.5,1-1.5,2,.5,1.5-2-1-2.5.5-3,1.5-.5-.5-1.5h2l.5-2,3-.5,2-1.5.5-2,.5,1,1.5-.5.5,1.5,3-1,3,3.5,5.5-2.5,4.5,3.5h.5l1-3.5,1.5-.5,2.5.5.5,2,2,1.5v4.5l1,.5,1,1.5,1.5.5-1.5,2.5-2.5,1.5v3l1,2.5h1.5v1.5l2.5,1.5,3.5,3.5.5-2.5,1.5.5,1.5,3,5,4.5-.5,2,1,1v1l1,1v1.5h1l1,1.5.5,3.5.5,1v1.5l2,2v2l5,3,1,1.5.5,1.5,1,.5-1.5,1.5-7,1.5-14,12-4.5,1-.5,2-2,2-4,1.5-2-1.5-1.5,1.5-6,1.5-1.5,2.5,1,1.5-4.5,6,1,2-1,1v2l-2.5,2.5-3.5,8.5-3.5-.5-1.5-2.5-1-3-2-1.5v-3l1-1.5-.5-2-.5-.5-4.5,6h-1.5l-4.5-5h-1l-3,2-1,2h-2l-1.5-2.5-2.5-3h-1.5l-1.5-1v1.5l-2-1-.5-1-5,1-1-.5.5-.5-1-1v-.5l-2.5-1,.5-1-6,.5-2,3.5-3,2.5v1.5l-3.5,2-1,1.5h-2.5v1.5l1,1v1l-2,.5.5,1-.5,1.5-4,.5-1.5,2-.5-1-4,1-.5,1.5-2,1.5-1.5-.5v5.5h-1.5l-1,7.5-1.5-1.5-1,.5-.5-3.5-2-2.5-2,.5.5-1-1-3-5.5-2v-1.5l-1.5-1-1-5.5-1.5-1.5-.5-2,1-2.5-.5-.5.5-2.5,2-.5-2.5-4.5v-4l-3,1-4-1-.5-3-1-.5-1.5-3,.5-3.5-.5-2v-1.5l-3-3.5"/>
      <path data-code="mogojtujskij_rajon" data-title="mogojtujskij rajon" d="M253.62,518.12l.5-.5v-2.5l1-7,4-3.5v-2.5l4-3-1-1,3.5-4,.5-2.5,2-1-.5-1,1-1.5,2-.5,1.5,2,3,.5.5-5h1l.5,2,2.5.5,3.5,3,5-1,5,4h4l1,2h2l1,2,2,.5.5,3.5,3,.5,1.5,2,3.5-.5v1l2.5,2-1,1,1,1.5-1,1,.5,1-1-.5.5,1.5h-.5l.5,1.5-1.5.5v3.5l-2,2-.5,1.5-2,1.5-1.5,4-1,1.5-1-1.5-4,2.5-1.5-2-3,1.5,2.5,2-1,6.5,2,3.5,9.5-1.5,2-2,3,2.5,3,5v3.5l1.5,1.5v3.5l-4.5-2.5-1,1,1,1-.5,1.5-2.5,2.5-.5-1-1.5,3-1-1.5h-1.5l-2.5,1.5-1-3-6-10.5-.5,1-7-4-1.5-1.5-.5-2.5-3.5-2.5-1,.5-3.5-5.5-6.5-2.5-2.5-3v1.5l2,4-1.5.5-2-2h-2l-3.5-3.5-1.5-.5-5.5-5h-1.5l-.5-2"/>
      <path data-code="nerchinskij_rajon" data-title="nerchinskij rajon" d="M284.12,410.49v-2.5l3.5-.5,3-3v-5l2.5-1,1.5-5.5,2.5-1,4.5.5.5,1,.5,3.5,1.5.5,1.5,4,5,1v1l-.5,1.5.5,1.5-1,1,1.5,3.5-.5.5,1.5,4.5,2.5,2.5,1,3-1.5.5.5,6-1,2.5,1.5,3,4,1.5,3,3.5,1.5-1.5,4.5,3.5.5-1,3.5,1.5,4.5-5,1,.5-.5,1,1.5,2-1.5.5,1,2,1.5,1.5.5,3.5,1.5,2h1l1.5,3.5,3,1-2.5,4-2.5,1,.5,1-1.5,2.5-5.5,2-.5,1.5-1.5.5,2.5,4h-1v1.5l-1.5,1,1,1-1.5,2v1l-.5-1-1,1-1,2.5-1.5-1.5-1.5,1.5-3.5-1-.5,2,.5,1v1.5h-1l-1.5,2-.5-1,.5-1.5h-3l-1.5-2.5v-1.5l-.5-1.5.5-2-.5-.5,1.5-2.5,2.5-1.5.5-2-1-2,1.5-2-2-1,1.5-3v-1l-1.5-.5-1-1,1-1.5-1.5-1.5-2.5,1v1l-1,.5-1,3-4-4,3-1.5.5-1.5-1-2v-2l-2-.5-1-4-1.5,1.5h-7l-.5-2,.5-1-1.5-1-1-5,1.5-.5v-2.5l-5.5-1.5-1.5-2.5-1-4.5-1.5-.5.5-1-1.5-1.5.5-4.5h-.5l-.5-2-1.5-1.5-2-3.5-1-.5"/>
      <path data-code="nerchinsko-zavodskij_rajon" data-title="nerchinsko-zavodskij rajon" d="M426.62,465.99l.5-4,1-.5v-2.5l-2-2-.5-2.5,1-.5-.5-1h1l1.5-4,6-1.5-1.5-2.5h-1v-2l1-3,1.5-1,.5-2,3-3-1-2,1-1,4-1.5v-2.5l4.5-3,.5-1-1-2h1l1.5,1.5v1h1.5l4,2,1.5-1v-1l1-2.5v-1.5l2-1.5.5-3,3-1.5-.5-3.5,2-1,1-1.5v-1.5l2-2-.5-2h-2.5v-4.5l-1.5-1,1-1,.5-3-1.5-2,1.5-2.5v-1.5l3,.5,1-3.5,2-1.5-2.5-3,2-.5-.5-1.5-3-2.5-1.5-2h-1.5v-2l1.5-1.5,4.5,2,7.5,2-1,2.5,1,1-.5,2,1,2.5-.5,3,.5,2-1,1,1.5,2.5,2.5,1,1.5,1.5h1.5l.5,3.5,2.5,2.5-.5,2,.5,1.5-.5,1.5.5,1-1,.5-.5,3,1.5,1v2.5l-1,2.5.5,2-3.5,2v2l-2.5.5.5,2-2.5,2.5.5,1-1,2.5-2,.5v2.5l-2,2.5-1.5,3.5-3,1,1,2-1.5,1.5v3.5l1,1-1,5,1.5,3.5-1,1.5.5,2-2,1.5,2,2-2,1.5.5,3.5-2,1.5.5,1-.5,1.5,1.5,2-2-.5-.5,1,2,3-1,.5,1,.5-.5,3,1,1.5-1.5,1.5.5,1-.5,1.5.5,1.5-.5-1-2,2-1,5-4.5-3.5-2,2-1-.5-2.5,1.5v2.5l-2-.5-3.5,5-.5-1-3.5-4-3-1v-2l-.5.5-.5-1.5-2-2v-4h2l1.5,1.5-.5-1,.5-.5-1-1,1-2v-1.5h1.5l1.5-3-1-1v1l-2-.5-.5-1.5-2,4.5-5,1-1-2,1-.5.5-2.5-1-1,1-.5-1.5-3-2.5,1.5v-2.5h-1.5l.5-1.5-1.5-2.5"/>
      <path data-code="olovjanninskij_rajon" data-title="olovjanninskij rajon" d="M295.12,528.99l3.5-1.5,1.5,1.5,4-2.5,1,1.5,1-1,1.5-4.5,2-1,.5-2,2-1.5v-3.5l1.5-1-1-1,1-.5-.5-1h1l-.5-1,1-.5-1-1.5,1-1-.5-4,1-1.5,3.5,3,2-1,.5,1.5-.5,2v.5h3l-1.5-2.5,1-2.5,3-.5-1.5-2,5-3,.5-1.5,3,1,1-1h4l1.5-2,1.5,1,3.5-1.5.5,1,5.5,3-2.5,7,1,2.5-1,2,4,5.5.5,4.5,1,1.5-.5,8.5,2,1v2l-.5,2,.5,1.5h-4l-2.5,3-.5,5-4,2v1.5l-1.5,2-5,1.5-1.5,3-4.5,1-2.5,3.5,1,4.5-3,3-2,.5,1.5-5.5-2-3-3,2.5,1-4-2-1.5-1,2-1.5-2.5v-3.5l-1.5-2v-3.5l-3-4.5-3-2.5-2,2-9.5,1-2-3.5,1-6.5-3-1.5"/>
      <path data-code="ononskij_rajon" data-title="ononskij rajon" d="M247.12,585.99l-.5-3.5,4.5-4.5,2.5-.5,5-4,1.5-.5,2,1.5,2.5-1,2,1,.5-1,.5,1,4-.5,2.5-3,.5-2,7-.5,1.5-1.5,1.5,1,1.5-.5,1-2,1,1h1.5l1-1v-1l2-1.5,1,.5.5-1.5,4.5-2.5v-1l4,.5,3-1.5,3,1.5,1.5-3,.5.5,2-2,1-2-1-1,.5-1,5,3,1.5,2.5,1-2,2,1.5-1,4,3-2.5,2,3-1.5,5.5h-1.5l1,2.5-2,.5.5,2h1l.5,1.5,1-.5,1,3,1.5-1,2.5,12-11,6.5-3,11.5-5.5-.5-5-2-7.5-5.5-4-4.5-6.5-2.5-9-.5-7,3-6-2.5-6,4-2.5,3.5-1.5-6-1-1.5-4.5.5-3.5-3"/>
      <path data-code="petrovsk-zabajkal_skij_rajon" data-title="petrovsk-zabajkal&amp;apos;skij_rajon" d="M25.62,558.49l2.5,2h-1l1,1.5-.5,1,2.5-2.5h1.5l2,3v1.5l-.5.5h4.5l1-3.5,2-1.5-1-5-1,.5-.5-2.5-2,1.5-2-4.5-1-1-1,.5,1,2-3.5,1-3.5-4,1,2-.5.5h1l2.5,2.5.5,1.5-1,.5,1,1.5-1.5,1-1-1.5h-2.5v1.5M8.12,599.49h1.5l4.5-4.5h2v-4l-1-2,1-3-.5-3.5h1v-4.5l5.5-1,2.5-4.5-.5-4-4-1.5-2-2-1.5,1-.5-2,.5-1.5,2.5-1.5-.5-6.5,1-1.5,4.5-1,.5-3-1-2.5,1-1h2l4,4,2.5-2,2.5,1.5,5-4v-3l3,3.5v2l5.5,4.5,2.5-3,4,2.5.5-1.5-1.5-1v-1l1-2,8-3,1,4v1l1.5,2.5-2.5,3,1,2.5h-1l.5,1-1.5-.5-1,2.5-2,1-1-2,.5-1.5-.5-.5-1,3h-.5l.5,1.5-1-.5-2.5,2.5h1.5l3.5,2.5v2l1-1,1.5,3.5,2.5,1.5.5,2,3.5,1.5-.5-1,2.5-3.5h1.5l.5-3.5,2.5-1.5v-1l3-1.5,3.5.5,2.5-1.5,1.5,3,.5,4.5,1.5,2.5-1,3,.5,1-.5.5.5,1.5,1.5.5v2l-1,.5,1,2-1,.5,1,.5.5,1.5-2,3,.5,2-3.5-2-.5,1.5h-1.5l-.5,2-1-.5-1.5,1-5.5-1.5.5,1h-1.5l-.5,1-1.5-1-4.5,4-3,1-.5,1.5-2,.5-1.5-1-2,2,.5,1-2,1-.5,2h-5l-1.5,3.5-3-1.5-3,2.5-1-.5-.5,2.5-4.5,3-.5-1-2.5,1h-3.5l-2.5-3.5-2.5-.5-1-1-2.5.5-4.5-2.5-2,1.5-5.5-5.5v-1l-1-1.5"/>
      <path data-code="priargunskij_rajon" data-title="priargunskij rajon" d="M404.62,546.49v-1l3-2,1.5-4,7.5-1.5-.5-9,3-4.5,3.5,2.5.5-2v-3.5l.5-.5v-2l-.5-.5.5-2h4l2.5-3,2.5.5,2,1.5-.5,1,4,4,1-1.5,2.5,1.5,1.5-4,4-2-1-2-1-.5.5-2,6,2.5v-3l1.5.5,1.5,2,2-.5,3.5,2.5-1,2.5h-1l.5,1-2,2,1,1.5-1,1.5,1,.5-.5,1,.5,2-1,1h1l1,1.5-1,1,.5.5-.5,1v2h-2l-1,2.5h2l-.5,1.5,1.5-.5v1.5l1.5-2,1,1.5.5-2,1.5,1,1-1h1.5v2h1.5l-1,1.5v1.5h-1l1.5,1.5-.5,3,2,1-1.5,3.5,1,.5.5,2-2.5,6h-1.5v2h-1l-1,2h-1l-1,2-3.5,1-3.5,3-.5-1h-.5l-2-5-8.5-5.5v-3l-3-4h-1v-1.5l-1-.5-2-3-2,1-2-1.5-.5,1,2.5,4-7,2-2,3,1,1-1,1-4-1.5v-2.5l-6-1.5-4-3-4-1"/>
      <path data-code="shelopuginskij_rajon" data-title="shelopuginskij rajon" d="M358.12,467.49l.5-1.5h1v-1.5l-1.5-1,.5-1.5-1-1.5,3-3v-1l-4.5-4.5-1-4.5,1-.5,2-3,4-1,2-4-1.5-1.5,1-1,.5-2,5,1,2.5,2.5.5,1.5,2.5-1.5,1.5,2.5,2,.5,1.5-1,2,3.5,7-2,3,2v-1l-2-3,1-1.5,3-2.5,1.5,1.5,3-1v3l-3,2,.5,1-2,3h2l-.5,1.5.5.5-1,1.5,1.5.5-1.5,1.5v2.5l-3,5v2l-2.5,1v2.5l-2.5,4.5v1.5l1.5,1-1,1,1,2,1.5.5.5,1,1.5-.5,1.5,4-2,2.5,1,1-2,1,1.5,1.5.5,3.5-11,3.5-.5,1-2.5-2-5.5,3.5-.5,3-2-4-6-3v-2.5l1.5-2,1,.5,1-1-.5-1,1-.5-.5-4-1-2v-1.5l-1.5-3-1,1-2.5-1-3.5-5.5"/>
      <path data-code="shilkinskij_rajon" data-title="shilkinskij rajon" d="M269.12,477.49l-.5-2,1-1.5-.5-1,.5-1,1-.5,1.5-2,1-.5-.5-2.5,4-3-2.5-6v-2l-3,.5-2.5-5.5h-.5l.5-2-.5-2,1-.5-.5-1.5,1.5-1,1,.5,5-2,.5,1,1,3,2,1.5.5,4,2-.5v-1l1.5-1.5,3,2,1.5-1-.5-2.5h2.5v-1.5l3.5-.5v-1.5l1-1,6,.5-.5,1,.5,2,2,.5,1.5-1,3.5.5,1.5-1.5,1,4,2,.5v2l1,2-.5,1.5-3,1.5,4,4,1-3,1-.5v-1l2.5-1,1.5,1.5-1,1.5,1,1,1.5.5v1l-1.5,3,2,1-1.5,2,1,2-.5,2-2.5,1.5-1.5,2.5.5.5-.5,2,.5,1.5v1.5l1.5,2.5h3v5l-1-1-.5,2-3-1-1.5,5h-1l.5,2,2,.5.5,1-1,1.5.5,1,.5,2h-1v1.5l-1-1-.5,2-1,.5.5,4-3-2v-1l-3,.5-1.5-2-3-1-.5-3.5h-2l-5-5-3.5,1-4.5-4-5,.5-3.5-3-2.5-.5-1-1.5-.5-.5-1,5.5-2.5-1-1-4.5,1.5-1.5-.5-1.5h-1.5l-.5-2-1.5-2.5"/>
      <path data-code="sretenskij_rajon" data-title="sretenskij rajon" d="M337.12,439.99l1.5-.5-1.5-3.5v-1l3.5-1.5-1-3.5,5.5-2,.5-3.5,3.5-1,1-2,1.5-.5-3-2.5-3-1,3-5-.5-1.5,1.5-2.5-1.5-4.5,1-4.5,1-1.5v-2.5l2-2.5,2,.5,2.5-1.5,1,.5,1.5-3-.5-.5,3-2,1,1,2-1.5,1,1-.5.5,1,.5,1-.5h4.5l.5-1-1-.5,3-2v-2.5l3.5-3,1,1,1.5-2-.5-.5v-1.5l2-.5.5-2-.5-1,.5-.5-2.5-4,.5-1.5h-1l-2.5-2.5,1.5-9,1.5.5v-5.5l1.5.5,2-1.5v-1.5l4-1,1,1,1.5-2,4-.5.5-2-1-.5,2.5-.5-.5-1-.5-1.5v-1.5l2.5.5,1-1.5,3.5-2v-2l3-2.5,2-3,5.5-.5v1l2.5.5v1l1,.5-.5,1,1,.5,5-1.5.5,1.5,1.5.5.5-1.5,1.5,1.5h1.5l2.5,2.5,1.5,3-1.5,2.5v1.5l-5,5-.5,2,1,.5-2,2.5.5,1.5-1.5,1,1,2-3,1.5-1,2.5,1,.5v2l-2,1-1.5,4.5.5,1.5-4.5,2,1.5,1-1,2,.5,1.5,2,1.5v2l-2.5,1.5,1.5,3,2-1.5,4,2,.5-.5,1,2,2,1.5v1.5l2.5,3,1.5.5-.5,1,1,2,1,.5-1,2,1.5,5.5,2-1.5,2,5-3,1v1h-5.5l-.5,1-2.5-1-6,1-4-1.5-.5.5v3l2,1-.5,2v1l-4.5,5.5-1.5-.5-.5,1.5-4,2.5.5,2-1,1-1.5-.5-1.5,2,1,3-1.5,4-3.5.5-1.5-1.5-3,2.5-1,1.5,2,3v1l-3-2-7,2-2-3.5-1.5,1-2-.5-1.5-2.5-2.5,1.5-.5-1.5-2.5-2.5-5-1-.5,2-1,1,1.5,1.5-2,4-4,1-2,3-1,.5-.5,2.5-7,4-3.5-1.5-1.5-3.5h-1l-1.5-2-.5-3.5-1.5-1.5-1-2"/>
      <path data-code="tungiro-olekminskij_rajon" data-title="tungiro-olekminskij rajon" d="M323.12,315.99l5-4,.5-2,1.5-.5,1.5-3-.5-4.5,3.5-2-.5-2.5.5-.5-.5-2.5,1-2-1.5-2.5,1-1.5-1-1.5v-1.5l-.5-1.5.5-2,2-.5,2.5-4-1-1v-1.5l-3-3,.5-3.5,2,.5,2-2,1-2.5-2.5-3,.5-2,1.5-.5v-1l-1.5-1,1.5-2.5-1-3.5-2.5-1-.5-1,1-7-2-.5-3.5-3-.5-1.5,2.5-2.5.5-4,.5-1,4.5-4.5-.5-1.5-1.5-1.5-.5-4,3.5-2,.5-2.5,4,1,2.5-6,3-2,1-3,6.5-8.5,3.5-1,.5-3,2-.5,1-2,2-.5,1.5-2.5.5-1v-2l2-4.5-.5-2-2.5-1-.5-1,4.5-4.5,2.5-5.5-.5-1.5,6-4.5,6.5,2,2-1.5,1-4,3,1,2.5-6.5h3.5l1,1-.5,1.5h2.5l2.5-1.5-1-3,3-.5,1-1.5,1.5.5.5-2.5,4-2,1-3,1.5-1.5h3l.5-2,2.5,1.5,2.5-1,2.5-3,4.5,6.5v4l5,4v5.5l1,1,1,4.5,2.5,2.5,1,5.5,1.5-.5,2,2,2-.5-.5-2,3.5-.5,1.5-3.5.5-4,2-1,.5-1.5,3,.5,2-1,1,2.5,2,2,.5,2h2l1,4,.5.5v4.5l.5.5,1.5,3.5-.5,2.5,1,2v1.5l1.5,1h2.5l-1,2.5-1-.5-1,4.5,2,1.5.5,3,1.5,3-1,3-2,1,.5,1.5-1.5,3.5-3,5.5.5,2.5v2.5l1.5,1.5v.5l1-.5.5-2.5,2-1,3.5-4,1,4,1.5.5.5,1.5-.5,4.5h1.5l1,1.5.5,4h3l1,.5,1,1.5,4.5,1.5,1,1.5v3.5l-3.5,1.5-3.5,3-1.5-.5v-1.5l-.5-.5-3-1-2,1-1.5,3-.5,3.5-2,1.5-.5,3h-1l-4-3.5-5.5,2-3-3-3.5,1v-1.5h-1.5l-1-.5v2l-2,1.5-3,.5-1,1.5h-2l.5,1.5-1,.5-.5,3.5,1,2.5-1.5,1.5h-2l-1,1-1,2,.5,2-.5,1-1.5,1-1-2-1,.5-.5,2.5,1,.5-.5,1-2.5,1-3.5,5.5-2-1.5-5,3,.5,1-.5.5h-2l-1.5,3.5-1,.5-2.5-4-1.5,2.5-2.5,2,.5,1.5-.5,2.5-1.5.5v1.5l-3.5-.5-3.5-3-1,.5-1,2-2,.5,1,3.5h-1.5v1.5l-2.5,3.5-1.5-.5-1,1.5-3-2-3,1,.5,3.5-1.5,3-1.5-.5-1-2-1-.5-1.5-3v-2l-7-4.5-2,1.5-.5,1.5-2,1-1.5.5-3.5-1.5-.5,1.5-1.5,2.5,1,3-2.5,4,1,2-1,1.5,1,2h-3.5l-1.5,1.5-1.5-1.5-.5-1-3-2-1,1,.5,1.5-1.5,2-1.5,1-1.5-1.5-1,1v4h-3v3h-1v1.5l-2-1-1.5,1.5.5,1.5-1,1v1l-1.5,4-3-.5.5-2.5h-1l-4.5,2.5-1,3.5h-1l-1-2v-1.5l-1.5-3,.5-3-1.5-.5-.5-1"/>
      <path data-code="tungokochenskij_rajon" data-title="tungokochenskij rajon" d="M196.62,366.49l1-3.5h2.5v-2l1,.5.5-1.5v1.5l1.5-.5v-3l-1.5-1,1-1.5,4.5-2,1.5-2,1.5,1.5.5-1.5,1.5.5,2-1,1.5-2v-2.5l.5-1,2,1,1-1.5,1.5.5.5-3,1.5-2.5-.5-2.5,5.5-2,.5-1.5,3.5-1,.5-2,3.5-2v-2.5l1-.5-1-3,4.5-4v-2.5l-.5-3,2.5-.5.5-2.5,2-1,.5-2.5,2-.5,2.5-3,.5-1.5-1-3,3-1.5v-2.5l4-1.5,1.5-1.5h1.5l1.5-2,3-2,2,1,1-2,3.5-.5,2-3,.5,1h2.5l.5-1.5,2,1,.5-2h2.5l1,1.5,2-1,.5,1.5h1l.5-.5-1-1.5v-2l1.5.5,2-1.5,1,1,2.5-2.5-1.5-2.5,2.5-2v-1.5h-1.5l.5-1-1.5-2.5,2.5-1v-2.5h1.5l-.5-2-1-.5-.5-2,2.5-2.5-1.5-.5,1-1.5-1-2.5-1.5-.5-1.5-3,1-2-2-.5.5-1.5-2.5.5.5-3.5-2-1v-1.5l-2.5-3-1-.5-.5,1.5-2-1.5h-2l-1.5-2-5-2.5-1-1.5v-1.5l-1-1.5.5-1.5h-1.5l-.5-1h-1l-1.5-2.5-9,5-1.5-2.5-3,2.5-1.5-.5-2.5-2.5,1.5-3-2.5-1.5-1.5-2-.5-2,1-3-2-1.5.5-3.5-3.5-1,3.5-2-.5-1.5,3,1.5h3.5l.5-3.5-1-1,1-1-1-2,7.5-3.5,1-1.5,2,1,2.5-1,3,1,3.5-2,1.5.5v-2h1.5l1.5-1.5-.5-2,.5-1.5-1-2,.5-2-.5-2.5.5-1h1l2,1.5v1.5l7,7,1.5,5.5-1.5,1.5,2-.5,1,4.5,2,1,1,2.5,1,.5-1,2.5,1,3.5h1l1-1.5,4.5-.5.5-2,6-3,2,3,3,2,1-1v-2.5l5.5-2,1-2h3.5l.5,2-.5,2v4.5l3.5,2,1,2.5,2.5,1,1.5-1.5,1.5,4h4l1,1.5-.5,1.5,2-.5.5,4,1.5,1.5.5,1.5-4.5,4.5-.5,1-.5,4-2.5,2.5.5,1.5,3.5,3,2,.5-1,7,.5,1,2.5,1,1,3.5-1.5,2.5,1.5,1v1l-1.5.5-.5,2,2.5,3-1,2.5-2,2-2-.5-.5,3.5,3,3v1.5l1,1-2.5,4-2,.5-.5,2,.5,1.5v1.5l1,1.5-1,1.5,1.5,2.5-1,2,.5,2.5-.5.5.5,2.5-3.5,2,.5,4.5-1.5,3-1.5.5-.5,2-5,4,.5,1,1.5.5-.5,3,1.5,3v1.5l1,2h1l1-3.5,4.5-2.5h1l-.5,2.5,3,.5,1.5-4v-1l1-1-.5-1.5,1.5-1.5,2,1v-1.5h1v-3h3l.5-4.5,3,3.5-.5,2,1,2-1,3.5,1.5,2,.5,2-1,2,.5,3-1,1,.5,2.5-1.5,1v2.5l-1,1.5,1,.5-1.5,4-8,3.5-1,1,.5,1.5-2.5,2.5-1-1.5-3,1.5-.5-2.5h-2.5l-2-1.5,1-1.5-4-2.5h-.5v1.5l-2,.5-2,5.5,2.5,5.5h2l4,4,.5,1.5-1,1.5.5,1.5-4.5,1.5-.5,1.5-3,1v2l-2.5,1-1.5,4.5-3.5,1-1-2.5-2.5-1-1.5,3.5v2l-.5,1-1.5-.5-2,2.5-3,.5,1,3.5-.5,1h-1.5v1.5h-1.5l-1,2,1,3,1,1-5,1-1.5,5.5-2.5,1v5l-3,3-3.5.5v2.5l1,.5,2,3.5,1.5,1.5.5,2h.5l-.5,4.5,1.5,1.5-.5,1,1.5.5,1,4.5,1.5,2.5,5.5,1.5v2.5l-1.5.5,1,5,.5,1-5-.5-1,1v1.5l-3.5.5v1.5h-2.5l.5,2.5-1.5,1-3-2-1.5,1.5v1l-2,.5-.5-4-2-1.5-1-3-.5-1-5,2-1-.5-.5-1.5.5-1-.5-1,.5-.5-.5-3.5h-1.5l-2-3-1.5.5-.5,1-2.5-1.5-1,1.5-2-2.5-2.5,2.5-3-1-1-2.5-1-.5-.5-2h-1.5l-3.5-2.5-2,.5v-3h-2.5l1-1.5-.5-1-2-1.5-2.5-4-1.5-.5,1-1.5-1-.5.5-4.5-1-1-.5-3.5,1.5-2.5v-1l-6.5-3.5-2,2-4-.5-1.5-1.5-1.5,1.5-2-1-.5,1.5-1-2.5,2-3-.5-2.5-2-.5-2,1-2.5-1v-3l-3,1.5-1-.5-.5-2-1-.5,1-3-1-.5v-1l-3-.5-2.5-3.5.5-1-1-1v-2.5l1-2.5-.5-2-2-2h-2.5"/>
      <path data-code="uletovskij_rajon" data-title="uletovskij rajon" d="M195.62,512.49l2,1,1-1-3-2v2M133.12,645.99l1-1.5-.5-1-.5-2.5,3.5.5,2-2.5-1-.5-.5-2.5-.5-1-1,1-.5-1.5-.5-.5.5-1-1-.5-1.5-3.5-1-1,.5-2.5-1.5-1.5,1-2-.5-1.5,1-1-1.5-3,2,.5v-1l3-1.5.5-1.5,1,.5v-1.5l-1-.5,1-1-.5-4-2.5-2.5-1.5-2,1-2.5-1.5-3.5,1-2-.5-.5-.5-2.5,1-3.5-.5-2.5-1-.5h-3.5l-2,1.5-4-3.5,1-1.5-1.5-1.5,1.5-1.5-.5-2,.5-3.5-.5-.5.5-.5-.5-1-.5-2,1-1v-3l1-3-1-1-1-1.5,3-1v1l1-.5,2.5-2.5v-2.5h1.5l2.5-3,1.5-.5.5,1,6-2.5,1.5-3,3-1.5,1-3h1.5v-2l1.5-1v-2l5-4-.5-2,1-1.5,2,.5,2-4.5,1.5.5,1-3,2.5-.5.5-2.5,1,.5,3.5-5,1,1,.5-1,6-1,1-1.5.5-3-.5-1,2-.5v-1.5l3.5-3,8.5,1.5,2.5-1.5,3.5,1,5-2,2.5,2.5-.5,2,1,2.5-.5.5v3.5l1,1-.5,2.5,1,1-1,.5-.5,3-1,.5.5,1.5v2l-.5,1.5-.5-.5-.5,4-1,1v2.5h-1.5v2l-.5,2.5-1.5-1-.5,2-6,2-2-1.5-3.5,1,.5,3-1,.5.5,1.5h-1l-.5,4-4,3-1,6.5-1.5,1,1,1.5-1,2,3,2,1.5,2.5,3.5,1,1.5-2.5,1.5.5,1,1.5,2.5-1,3,1v4.5l-3,4,.5,1-.5,1.5.5.5v3.5l-.5,2.5-1,1-2.5-.5-1.5,2.5.5,1.5-1,4,.5,5-3.5.5-1-1.5h-4l-1.5,1-4.5,1-.5,2-2,.5-.5,2.5-1-1-2.5-.5.5,2-.5.5.5,1-.5,2.5h-1l1,2-1,2-2-1-2,.5-.5-2-2,.5-.5-1-1.5,2.5-4,.5,1,1.5h-1l1,1-1,2-.5-1-1,.5-2.5,3.5,1,1.5-1,1,1,2,.5-.5v1.5l-1.5,2-3,1.5,1,2-1,2.5.5.5v4.5l.5.5-.5,1.5.5,1h-1l.5,2-3.5,2,1,2.5-1.5,3.5-4,.5-1-.5-.5-2-2,.5-1-4,1-1-1.5.5-.5-1"/>
      <path data-code="zabajkal_skij_rajon" data-title="zabajkal&amp;apos;skij_rajon" d="M345.62,588.49l-.5-2,7.5-2.5,1-8h3.5l3-2.5,1.5,2,3.5-3,1.5,5.5,3-3,6.5-2.5v-3.5l.5-3,2.5,1.5,1.5-1.5,1,.5.5-1,2.5-1,14.5,6,3,4.5,4.5-.5,2,1.5-.5,4.5,2,2,1-1.5,5,1,1.5,2-.5,1,.5,2.5-1,3.5,3.5,4.5-1,1.5,3.5,1.5-1.5,3,1,3-2,1.5.5,1.5-1,.5-1.5-1.5-2.5,2-13.5-4.5-8.5,2-9-1.5-15.5-7-6-5.5-17.5-3.5"/>
      <path data-code="zato_poselok_gornyj" data-title="zato poselok gornyj" class="cls-1" d="M198.62,512.49l-1,1-2-1v-2l3,2Z"/>
    </g>
</svg>