<svg id="RU-YAN" xmlns="http://www.w3.org/2000/svg" viewBox="0 0 683.5 847.5">
      <path data-code="YAN-GUB" d="m392.75,653.75l.5-2,6.5-1.5,1,2,3.5-1-.5,2.5-10,3.5-1-3.5"/>
      <path data-code="YAN-LAB" d="m147.75,421.75l7-1.5v2l-.5,2,1,1h5.5l1,1.5-3.5,1.5,1.5,1.5-3.5,2.5-2.5-1-3-1.5-1-5h-2v-3"/>
      <path data-code="YAN-MUR" d="m330.25,678.75l2,.5,2,3,3.5.5-.5,4-3,4-1-.5-1-2,1-1.5-3-1.5-.5-2,.5-4.5"/>
      <path data-code="YAN-NOY" d="m342.25,731.9h1l1.5,2.5,3,.5-.5-2-2-.5,3-3.5,2.5.5.5-1v-1.5l1-.5,4,1.5v1h-1.5l1,1-1,2.5.5-.5,4-.5,2-1,6.5,1,5,3,3.5,1,2,1,3,.5,3,5.5v1.5l.5,1.5,3,.5-.5,2,3,2.5-.5,2,.5,1,5,1.5,1-1,3,1-1.5,2,.5.5h-1.5l-3-2,.5-.5-3.5-1.5h-.5l-.5-1v-.5l.5-1.5-3-2.5.5-2-3-.5-.5-1.5v-1.5l-3-5.5-3-.5-5.5-2-5-3-6.5-.5-2,.5-4,.5.5,1-1,1-1.5-.5-6.5,4v-2l-4-1.5-.5-2"/>
      <path data-code="YAN-SAL" d="m131.75,464.25l5.5-9.5,3.5.5,6-2.5,1.5-5-1.5-3,1-2,3-2,.5-1,2-1,1-3.5,2-2v-1l3.5-2.5v1.5l3,2.5-2,2,2,2.5-.5,7.5-1.5,1,1.5,1.5.5,2.5-1,2-6.5-1-1.5,1.5v2l-1.5,3v2.5l-2.5-1-2.5,4,1.5,3.5,1.5.5.5,2-3,1-.5-.5.5-1-3.5-1-2-3-2,1.5-3.5-1.5-.5-2.5-4.5,1.5"/>
      <path data-code="YAN-YAM" d="m248.25,178.25h.5-.5m-3,1l.5,1,1.5,2.5-2-2-2-4,2,2.5m-3-6.5l-1.5-3.5v-6l1.5-6,3-6.5.5,1-2,4v1.5l-1.5,1v2l-.5.5v2l-.5.5,1,1h-1l-.5,1h2.5l-2,.5.5,2-.5.5,1.5,3.5v1h-.5m4.5,2l.5,1.5v1l-.5-3v.5m1.5-23.5v-.5.5m-4,21h.5l-.5.5v-.5m-2.5,2l.5-.5.5,2-.5-.5-.5-1m7,7.5h.5-.5m2,19v.5-.5m-.5,266l-3.5-3.5-2-3.5-2,2.5-2-2.5,1-2-1-4v-5l-1.5-.5-1,2v1l-3,.5,1.5,1-1,1.5.5.5-2-1-.5-3.5,2-1.5-3.5-6.5h3.5v1.5h5l2.5,1-2-2-2-.5-.5,1.5-1.5-1,4.5-14.5-1-1.5,2.5-2-2-2,7-8.5-1-2.5,1.5-4-1.5-1.5,4-26.5-6.5-12v-6.5l-4-6,2-2-.5-1.5,1-1-.5-2,2.5-1.5-4-7.5,3.5-1.5.5-1.5,1.5-1h1v-1l.5-3,13.5-14,7.5-12,2-.5v-3.5l-3-2.5h4.5l1.5-2h-3l.5-1-2-.5-4,1.5-2.5-1-3.5-3-2-3.5-1-2.5v-4.5l-3.5-12v-4l.5-5.5,2.5-1.5v-1l2.5-4.5v-2l1-1.5-.5-1.5h.5l-3.5.5.5,2.5-2-.5-1-1.5-2.5-1.5-2-4,.5-.5v-2l-2.5-1-1.5-2.5h-3l-7-9-2,1,1,1.5-.5,1.5-4,.5-.5,1.5.5,2.5v4l-.5-1-1,.5-1-2,.5,4.5v1h1.5l.5,1.5,3.5,3-2,3.5-2.5-2-1-2.5-.5-9.5.5-2.5,2.5-10.5,4-10.5,4-6,4-4,.5.5-1.5,1,.5,1.5h-1.5l-.5.5-.5,2.5,1,1,9-.5.5-.5v-1l1-.5,1.5-5-1-2.5.5-3-.5-1-.5,1.5-2-1v-3.5l3.5-5.5,1.5-4,2.5-1.5v-.5l-.5-.5,2-.5.5-1v-3l-.5-3.5,2-2,.5-3,3.5-2.5-.5-1h.5l.5-1.5.5-.5v-1l.5-1v-1h1v-3l-2.5-4.5-3-.5-1.5,1.5h-8l-2,1,2-3.5v-2l-1.5-1.5.5-1,7-5.5,1-2,1.5-1v-2l2-1.5-2.5-2-.5.5v1l-1.5,1,.5,2.5-.5,1.5-5.5.5v2.5l-2.5.5-3.5,5.5-.5-1,6-8,6-7.5,4-3.5,5-7h5.5l7.5-2.5,6-3,12-4.5-2.5,2.5,2,.5.5-.5-.5-.5,11.5-9.5.5-1.5,5.5-5.5,1.5-2.5,11-20,7.5-16,5-8.5,3-7,1.5-2.5,7-5,6.5-9.5,9,2.5,1,3.5-1.5-1.5h-4.5l-1,.5-.5,2.5,16.5,2.5,12.5,4.5h6.5l5.5,3,6.5.5,7.5,7-.5,1-1.5-.5,1,2h1l1-.5-.5-1,1.5-.5-1-.5h.5l11.5,9.5,6,6.5v.5l-1,.5-1,1.5,1,4-4-4-2,1v2.5l-.5,1.5v2l1.5,1-.5.5.5,1-1.5,1-1,3-1,5.5v5.5l-2,.5-2,2.5-1.5,4v2l-3.5,2-5.5,11-1,1.5-3.5,1-1.5,3.5-1,7-4,1-2,5-7,2.5-2.5,1.5-.5,2v4.5l2,4.5v5l1.5,3,3,6,5.5,5,1.5,6.5-1.5-.5-1.5,2-.5,2.5,1.5,5,1.5,2.5v3.5l-2,3-2.5,8.5-2.5,3-.5,3v2.5l.5,2-2,8-1,1-.5-1-3,1.5-4.5,3-1.5,3-.5,1,.5,1.5,2,3.5v3.5l-2,4.5-2,1.5-.5,1.5v4.5l1.5,6-.5,6.5-1.5,3-3,2.5-2.5,3.5,1,9.5v2l-.5,2-2.5,3-1.5-1.5-1,1,1.5,2.5.5,4.5-.5,2.5-3.5,2.5-1.5,2-1.5,6-.5,6v7.5l2,7,8.5,10,7.5,13,1.5,4-1,5-1,1.5v-1.5l1-1.5v-1l-2.5.5-1.5,1.5.5.5-1.5,1-1,2v1l-5,3-6.5,5.5v1l-.5,3-2.5,3-.5,2.5,2,10-.5,3-1.5,3.5-2.5.5-1.5,1.5.5,5.5-1,2h-.5l1-1.5-.5-1-2.5.5-1,1-1.5-.5-2,1.5v2l-.5.5-4.5,1-4-1-1.5,1,1,1.5-1,3-5,3-.5,2,.5,3-2.5,4.5-4.5.5-.5-2.5-5.5,1.5-.5,2,.5,1,2,1h.5l.5-1,.5,1v4l-1.5,3.5-.5-.5.5-1-.5-.5-.5,1-2.5-1-3,1.5,1,2.5-1.5,1.5,1,1-.5,1h-2l-.5,1h-1.5l-1.5,2.5-2.5.5-2,3.5-1-.5-.5-2.5-2-.5-1,.5-.5,1h-1l-2.5-5-2.5,1,2.5,1.5-.5,1,1.5,2-3-1-1,.5,5.5,3-1,.5-1.5,2v5l1.5,1,1,2-.5,2-2.5,1.5.5.5-.5,1h-4l-1,1h-1.5l-2.5-3-1,1.5,3.5,3-2.5-.5.5-1-2-1h-1.5l-.5,1,.5.5h-1.5l-.5,1-2,1-2-1.5-.5,1h-6.5l-1.5,1-11-9.5.5-2,1.5-1.5h3.5l1-1-1.5-1,.5.5-3,.5v-.5h1l-3.5-3.5-.5-1.5,1-1-2.5-2-1.5-4,.5-1.5-.5-2.5-1.5-.5-1.5,2,1,1.5-3.5-.5-4.5,2,3,1.5,2,3,.5-.5-2-3.5,2-.5,5.5,6-1,.5-3.5-3-.5.5.5.5h-1l6.5,5.5v1h-1l-.5,1.5h-3l1,4,1.5,1v.5l-1.5.5.5,1h-2l-.5.5,1,1-2,.5-.5-3M443.75,16.75v-.5.5m-69,11.5l-3-1v-2l.5-1,4.5-9,1.5-4,1.5-5v-3.5l8.5-2.5,12,.5,6.5,5,2,2.5-3.5-2-.5,1v3l-1,.5-.5,1.5,1.5,1.5.5-2.5,4-1.5-.5-1,.5,1v1l.5,1.5-1,.5.5,2.5-3,.5-.5,1,.5,1-6-1,6,3v-1l1-.5,2.5-1-.5-.5,1.5-1.5,2.5,6,.5,6-7.5-1.5-3,2-3.5.5-6.5-1.5-11,3-5-2.5.5-3-1-1-2.5,1.5,1.5,3.5h-1m35-1h.5v.5h-.5v-.5m3.5,6.5v-.5,1-.5m-1.5.5h.5v.5l-.5-.5m-178,421h.5v.5l-.5.5v-1m7,3h-.5l.5-.5v.5m14.5-8l.5.5h-.5v-.5m-26.5,5l-3.5,3-1.5-5,2.5-4.5,2,.5-1-3.5,3.5-3,1.5,1-.5,2-2,3-1.5,4,.5,2.5m55,17.5h.5-.5m-2,2l1-.5.5.5-1,.5-.5-.5m20.5-22v.5l-1-.5h1m1.5,1.5v.5h-1.5l.5-.5h1m-6.5,4l.5-.5v2l-.5-.5v-1m-58.5-212l-1,2.5-2,.5-2.5-1.5-2-3,6-5h4v4l-1,1.5-1.5,1m6,2.5h1-1m2-45.5l-.5,1v-.5l.5-.5m6,269.5h-1,1m20,6h2l-1.5.5-.5-.5"/>
      <path data-code="YAN-KRA" d="m479.25,679.75l13.5-15.5,1-3.5,1.5-1.5.5-5,12-16.5-1-2-2,1-2.5-1.5,2-.5-2-4.5.5-1.5-1-.5-.5-3v-1.5l-5.5-2.5,2.5-2.5,7-2h5l1-2.5h3.5l.5-7,2-1,4-6-5-6.5,3-2.5,1-3.5-.5-.5,3-4.5-1.5-2-.5-2.5-18-23,3.5-1,1.5,2,3-2,.5-3h1.5l-1-4,4.5-2,3-5,4-3,1-1.5,2.5-.5.5-2,2.5-1,1-2,1,.5-.5,2,1.5,2,3,.5,1.5,1.5,2.5-1,8,1,8.5,4,2.5-1,4,1.5,4.5-.5v-.5l1-1h1.5l-.5-.5,5-3,1-1-.5-1,3-2-.5-1,1.5-1.5-.5-1.5h-1l1-1-1.5-1,1.5-2v-1.5l1.5-1-2.5-2-.5-3.5,1-3.5,1.5-1.5,3.5-1,2.5,2,1.5-1h2.5v-1l-.5-1,1-1,1.5.5v-1l2-.5,2.5,1.5,1-.5v-1h.5l1.5,1v-.5l-.5-.5,2.5-1,4,2,2.5-1,4.5,1,5.5,7.5.5,2.5,2.5,1.5,1,5-.5.5v1l1,1v1.5l1,1-.5,2,1.5.5-.5,1h-1l-3,2.5h-3l-1.5,9,.5,4.5,4,2.5,6.5,14.5-1.5,2-4.5,2v2.5h-1.5l-2,2.5h1.5l-.5.5.5.5-.5.5v1h-.5l1.5,2h-.5l1,1v.5h.5l1.5,2.5,1.5.5v.5h.5v.5h.5v.5l-1.5,1.5v1l.5,1.5-2,2,2.5,4,6-1,6.5.5,3.5,7,4.5,1.5-1,3v1.5l-3.5,2,4.5,3,2.5.5.5.5-.5,2,1.5,1.5.5,2.5v2l-1.5,1.5,2,6.5-1.5,4.5-4.5,2.5-4,7v3l1.5-1-.5-1,.5,1v2l1-.5-1,2,.5,1-1,1.5-1-.5,1,1.5h-1.5v1.5l-1.5,1,3,3,1-1.5v-.5l.5,2,.5-1,1,.5.5-1,1.5,1v-1l1,1.5,1-1.5,2,1,2.5-1.5,2,.5v-1l2.5,2-.5-1.5h1l3,3h-1l-.5,1,.5.5-1.5.5-1.5,1.5,1,.5-.5,1.5h2v1.5h.5l-.5-1,3.5.5-.5,2h.5l-.5,2.5,4-2,3.5.5,2.5-2.5,2.5-1,6,2.5,2.5,3-1,7.5,2,6v1.5l-3.5,5,3,5v4.5l1.5,7-.5,3.5-1,1v2l-2,3.5.5,5.5h-2l-6,3-3,3-3.5,1-1,1.5v1l-.5,1.5-3.5.5.5,1.5-2,2.5,1.5.5-1,.5,1,1-2,1,.5,1.5-1,1,.5.5-1,2.5v.5l-1,.5.5,1-1.5,1-.5.5h.5l-1,1-1.5-.5-1.5,3.5-2-3-1.5,1,1.5,1.5h-.5l.5.5v2l.5-.5v.5l2.5,1.5,1-.5v2l2.5-2-.5,1,2,1.5v1h.5v1h.5l-.5,1,1,1-1,1,.5,1h-.5v-.5h-.5.5l-.5,1.5,1,.5v1.5l1.5,1v-.5l4.5-1,2.5,1-.5.5,1,.5-1,1,.5.5-4.5,3,.5.5-.5.5.5.5-.5.5v.5h-.5l-.5,1,.5,1-1,1,1,.5-2.5,1,.5,1-.5,1.5v1.5l1,.5-1,.5,2,1,.5,2.5-1,.5,1.5,2-1,1.5-3,1.5.5,3-1,1.5.5,1-2,1.5h-3.5l-3,3.5-2,1-2.5,6.5-3,2.5-.5,1,1.5,1-.5.5h-1l-2.5,2.5-1-.5-2.5,3,.5,1h-.5v1h1l-.5.5h1l-1,2,.5.5-8,5-5,6.5-3,5-2,2-1-4-3-2,.5-3.5-1.5-4.5h-4l-3-2.5-.5-6-4-6-6.5,4h-2v-2l-8,3.5-9-5.5,1.5-4.5-8.5-6,1-6.5-9-3h-5.5l-3.5-4-7.5,4-3.5,3-3.5-1.5-2-2v-3.5l-7.5-3.5-2.5-3.5,1.5-3.5-3-2-3-6-1-4,.5-5.5-3.5-1.5-2.5,1v-6l1-3-.5-2-1.5-.5-.5-3,.5-1-.5-1-2.5-.5-2-2-1.5,1.5-1-.5-.5,1.5-2,1.5v1h-2v1.5l-4,1-2.5-2-1-4,1-2-1-1.5.5-1h-8l-1.5,4.5-4,6-2.5-4-9-4.5,7-4.5-1.5-4v-5l2-8,11-4,1.5-10,2.5-1.5-1.5-5.5,1.5-4-14-20"/>
      <path data-code="YAN-NAD" d="m240.25,457.6l2.5,4.5,1.5-2.5,2,3.5,3.5,2.5v3l-.5-1-1,.5-.5,1h-2l-1.5-3.5-1.5-1.5-2.5-6.5m11.5,14.5l.5.5v.5l-.5-1m-.5.5l.5,1-1.5-.5-1.5,1v-1l1.5-1,1,.5m24.5,11v.5l-1.5-1.5,2-.5-.5,1v.5m-8-2h.5l.5.5h-1v-.5m6,2.5l.5-.5v.5h-.5m-60-32.5l3.5,1.5-.5,2,2.5,2.5,3.5-1.5,2,.5.5,1.5,3.5-3.5,5.5,10,9,4,1,1.5,1,3.5,12,9,17.5,2.5,7.5,2.5,9,4.5,2.5,2.5,1,4.5h5l1,1.5h1.5v2l1.5-1.5,6-2.5-.5-1-1.5.5,1-2.5,5-.5v-.5l.5-1v-2l-1-7,3.5-1,3-4,13-.5,2-1.5,1-2,1-1,15.5-4,2-1.5,3-5,7.5-2.5.5-1.5.5-2.5,2-1.5v-2.5l2.5-4.5.5-3.5-.5-2,1-2,2-1.5,6-7.5,15.5-9.5,4.5-4,2.5-4.5,4-13,.5-4.5-1.5-4,.5-2.5-1.5-9.5-5.5-10.5,6.5-9,.5-1.5v-4l1.5-6,1.5-2,3.5-2.5,22-4.5,7.5.5,3.5-1.5v2l1,1.5.5-.5,4.5,2.5-1,1.5h1v2l1.5.5-1,1.5,1.5,1v1.5l3.5,2-.5,1.5,2-.5v2l-1,2h-1l-1,1.5v1.5l-1,.5-1.5,2.5-1,.5-.5-1.5-1,1-.5,4h-3v2.5l-5.5-2-6-4v-1.5l.5-2-1-1.5-3-1-4.5,2.5,1,1.5-.5,2v1.5l.5,1.5-1.5,1.5,1.5,3.5-1,3-2.5,5.5v2l1,5.5,5,4v1l-1,.5v4l6,4.5,4.5,1.5,1.5-1,1.5,2.5,1,8.5,6.5,5.5,3,.5,4-2.5,4,2,6.5-2,2,.5,1-2,.5,1.5-3.5,4.5-2-1.5-2,1.5v2.5l3.5,3.5-.5,1,1,1.5v4l-7,10-7.5.5-5.5-1.5-2.5.5-.5,1-3.5.5-.5,1,.5.5-.5,6.5-3.5,5-3,1.5-5.5,5-2.5,1-.5,2.5-2.5,3-2.5,2.5-3,1.5-2.5,5.5v3l-1.5.5.5,3.5-1.5,4,1,3.5-2,5.5v3.5l-3-.5,1,3-2.5,7v2l-.5,3.5,3.5,4.5,9,.5,1.5,3.5,8.5,2-8.5,6,3,5.5,7-.5v1l-7,3-3,2.5h-2l-2.5,2.5h-8.5l-2,1.5-8.5,2h-3.5l-5.5,5-3.5,1,.5,5.5-3,3-.5,2.5,2,2,.5,1-1,2,1.5,8,1.5,2,1.5,5.5v4.5l2,3,2.5,2-.5,5-2.5,4.5-4.5,4.5-5,2-2,5h-3l-1.5,1.5v4l-1,3.5-9.5-.5-6.5,6.5-10.5,1.5-2.5-.5-5,4-.5,3.5-2.5,1-1,3.5-3,4-6.5,13-4.5,2.5h-4l-1.5,3-2,.5-10.5,8.5h-4l-7,2-2,9.5-6,4.5-5,1-1.5,2.5-7.5,3.5-7.5-3-8.5-2-3,2-5-1.5-8.5,2.5,1.5-19.5,3-6.5-1.5-7v-1.5l-15.5-5.5-.5-9-2.5-5.5.5-3.5-1.5-3-1-3,8-5,1.5-5.5-2-4-6-2.5-3-7.5,5.5-6.5,1-8,1.5-2.5-.5-3,.5-1,2-.5,4.5-6-1.5-.5.5-2,1.5-.5-1.5-3.5,3.5-4,1-9.5,5.5-2,.5-1.5v-1l2.5-4,1.5-5,2.5-1.5-2.5-3-1.5-.5-3.5-5v-2l-2.5-1-3-3-2-3-.5-2-3.5-1.5-.5-1.5-3-4-1-6-4-9-4-4.5,4.5-5-.5-2.5,2-2,4-1,1-1.5h4l2.5-2.5-.5-3-2-2,1.5-1-.5-1.5.5-3.5-2-.5-1-4-4-2.5-1,.5-1-5-5-4-.5-2.5-4-1,1-3.5-2-2.5,1-1.5-1-4m94,42.5l1-1,.5,1-2,1.5.5-1.5"/>
      <path data-code="YAN-NVU" d="m420.75,538.6l8.5-6,4,5.5-2.5,5.5-7,.5-3-5.5"/>
      <path data-code="YAN-PRI" d="m206.25,275.1l-5.5-10-4.5-2.5v-1l2,.5,3.5,3,3.5,5.5,1.5,7.5-.5-3m19.5,20l-2-.5-3-5,4,1.5,1,2.5v1.5m-69-38.5l2-3,5-1.5.5-1,1-1.5,3.5-2,6-1,1-2,1-.5v-.5l1-1,3.5,6.5,14.5,12-.5.5v1.5l-2.5-2v-1l-2-1.5-1.5,1,1.5,3h2l.5-.5,1.5,2.5,3,2,2.5,4h1.5l.5,1-.5,1,.5,2,6.5,6.5,11.5,8-3,.5.5,1-1,2,1.5,1,.5,3.5,1,2.5,3,2,5.5,10v2.5l3,4-3-2.5,1,3,2.5,1.5,6,6.5,1,5-3,2.5-1,3.5,2,1v3l4.5-2,4,7.5-3,1.5,1,2-1,1,.5,1-2,2.5,4,6v6l6.5,12.5-4,26.5,1.5,1-2,4.5,1.5,2-7,8.5,2,2.5-2.5,1.5,1,1.5-4.5,15-1.5-1.5-5.5-2-3.5,1-3.5-1.5-7,.5.5,1-5-1-1,.5,1,1-.5,1-2.5.5,2,1h2l-2.5.5,1,1,5.5-1.5-6,4.5-7,3.5-4,.5.5-.5-4.5-.5v-2.5h-1l.5,1.5-1,1,2,1.5.5,1,3.5.5,11.5-4.5,1.5-2.5,2.5-1,6-4.5,9,1.5-3.5,3,1,3.5-2-.5-2.5,4.5,1,3.5-2-.5-3.5,1.5-2.5-2.5.5-2-3.5-1.5,1,4-1,1.5,2,2.5-1,3.5,4,1,.5,2.5,5,4,1,5,1-.5,4,2.5,1,4,2,.5-.5,3.5.5,1.5-1.5,1,2,2,.5,3-2.5,2.5h-4l-1,1.5-4,1-2,2,.5,2.5-4.5,5,4,4.5,4,9,1,6,3,4,.5,1.5,3.5,1.5.5,2,2,3,3,3,2.5,1v2l3.5,5,1.5.5,2.5,3-2.5,1.5-1.5,5-2.5,4v1l-.5,1.5-5.5,2-1,9.5-3.5,4,1.5,3.5-1.5.5-.5,2,1.5.5-4.5,6-2,.5-.5,1,.5,3-1.5,2.5-1,8-5.5,6.5-3.5-1-3,1-6-2-1.5-1,.5-2-2-3-10-2.5-2-7-4,.5-8.5-1.5-1-3-2-.5-2.5-3.5-4-1.5-3-7.5-.5-3.5,4.5,1.5,1-3,2-1,2.5-4,.5-4,3-1-2.5-3,1-2.5-1.5-4.5-2-2.5.5-2,2-.5,2.5-3-.5-3,3-4.5.5-2.5-6.5-5h-1.5l-.5-.5-5.5,2-.5-2-2-1v-2l-4.5-4-1.5-5-1-.5v-3l4,.5-.5-3v-1l.5-.5v-3l1-1.5,1-1,.5-2-2.5-.5-1.5-2.5,1-1.5-6.5-1.5-1-4.5-2.5-1.5.5-1,1-1,1-5-7-6-2-2.5-.5-2.5-4-4.5-9-7.5,5-1.5.5,2.5,3.5,1,2-1,2,2.5,3.5,1-.5,1.5v.5l3.5-1-.5-2.5h-1.5l-1.5-3.5,2.5-4,2.5,1v-2.5l1.5-3v-2l1.5-1.5,6.5.5,1-1.5-.5-2.5-1.5-1.5,1-1.5.5-7-1.5-2.5,2-2-3.5-2.5v-2.5l-1-1,3.5-1-1-1.5h-5.5l-1.5-1.5,1-1.5v-2.5l-7,2v2.5l2,.5.5,4.5,6,2.5-.5,1.5-1.5,1.5-1,4-2,.5-1,1.5-2.5,2-1,2,1.5,3-1.5,4.5-6,2.5.5-5-3-2.5-.5-1.5.5-1.5-1.5-1-.5-3-1-.5-2,1.5-1-2h-2.5l.5-1-2-2.5-.5-2-4.5-3.5-.5-4-1-1v-1l1-.5,3.5-.5-1.5-3.5v-2.5l-2-1,2-1.5-.5-2-2-2.5-1-6,1-3,4-2,1-2.5-.5-.5,1-3v-2.5l1.5-1h2.5l1.5-1-.5-1.5.5-1.5-.5-1.5h2.5l4-3,1.5,1,4.5-2,2-2.5,1.5,1,1-2h2l.5-.5-1-2,.5-1,8.5,1,4-5,1-6-7,.5v-2.5l2-1.5-.5-3,2-1,3,1.5,1-1,4,3,2.5-1.5.5-2.5,1-.5-1.5-4-2.5-1,.5-1-.5-1,1.5-1,.5-1.5-.5-1,.5-1h2l1-1.5-1-2.5h-1.5l-2.5-3-5,1.5-5-2.5-3.5.5-1-3.5v-1.5h.5v-3l1-2.5,1-.5v-1.5l.5-.5v-.5l.5-.5-1-.5.5-2.5v-.5l1-2-.5-1,.5-2.5,1-.5,1.5-2,1,.5.5-2,2-1.5.5-2h1l.5-1.5,2.5-2.5,1-1.5,1.5-1.5,1.5.5v-2l2.5-1,.5-1.5v-1.5l-2-1,.5-1.5-2.5-3.5v-1l.5-1-.5-.5,2-.5.5-1v-1.5h-2l-1-.5,3-4h-1.5l.5-2h-3l-.5-2v1h-2.5l-1.5-2.5v-1l-2-1-.5-1.5.5-.5h-2l.5-.5-1.5-2-1.5,1v1l-.5.5-4-2.5-.5-.5,1.5-1.5-.5-1,2.5-1-2-4m67,183.5v-.5l1,.5h-1m-10,2.5l.5-.5v.5h-.5"/>
      <path data-code="YAN-PUR" d="m392.75,653.6l1,3.5,10-3.5v-2l-3,.5-1.5-2-6,1.5-.5,2m-62.5,25.5l-.5,4.5.5,1.5,2.5,2-.5,1.5,1,2h1l2.5-4,1-3.5-3.5-.5-2-3-2-.5m-47,20.5l6-4.5,2-9.5,7-2h4l10.5-8.5,2-.5,1.5-3h4l4.5-2.5,6.5-13,3-4,1-3.5,2.5-1,.5-3.5,5-4,2.5.5,10.5-1.5,6.5-6.5,9.5.5,1-3.5v-4l1.5-1.5h3l2-5,5-2,4.5-4.5,2.5-4.5.5-5-2.5-2-2-3v-4.5l-1.5-5.5-1.5-2-1.5-8,1-2-.5-1-2-2,.5-2.5,3-3-.5-5.5,3.5-1,5.5-5h3.5l8.5-2,2-1.5h8.5l2.5-2.5h2l3-2.5,7-3,2.5-6.5-4-5.5-8.5-2-1.5-3.5-9-.5-3.5-4.5.5-3.5v-2l2.5-7-1-3,3,.5v-3.5l2-5.5-1-3.5,1.5-4-.5-3.5,1.5-.5v-3l2.5-5.5,3-1.5,2.5-2.5,2.5-3,.5-2.5,2.5-1,5.5-5,3-1.5,3.5-5,.5-6.5-.5-.5.5-1,3.5-.5.5-1,2.5-.5,5.5,1.5,7.5-.5,7-10v-4l-1-1.5.5-1,3,3.5,5,3.5,1,3,1,.5.5,1.5h.5l1.5,3h3l1.5,1v1.5l2,.5,6.5-1-1,2,2,4.5,3,.5.5,1.5-.5,1.5-3,1-2.5,2.5-4-2-3,2.5,1,1.5-.5,1.5-2,1.5v2l6,6.5v2l-.5,1.5,2,1.5-2,2,.5,2.5-1,3.5v2.5l3,1.5-.5,1.5,4,5.5,5.5-2,9.5,8.5v1l-.5,4.5,1,3.5-.5,1.5.5,1.5-1.5,2.5,2,2,.5,1.5-4.5,2,2.5,4v3l-2,2,.5,2.5,4.5-2,9,1.5,1,2-2,2-3.5,5.5-4.5,2,1,3.5-1.5.5-.5,3-3,1.5-1.5-1.5-3.5,1,18,22.5,1,3,1.5,2-3,4,.5,1-1,3-3.5,3,5,6.5-3.5,5.5-2.5,1-.5,7h-3.5l-1,2.5h-5l-7,2-2.5,2.5,5.5,3v1l.5,3,1,1-.5,1.5,1.5,4-1.5.5,2.5,2,2-1,1,1.5-12,16.5-.5,5.5-1.5,1.5-1,3-13.5,16,14,19.5-1.5,4.5,1.5,5.5-2.5,1.5-1.5,10-11,3.5-2.5,8,.5,5.5,1,3.5-6.5,5,9,4.5,2.5,4,3.5-6.5,2-4.5,7-.5,1,1-.5,1,.5,1.5-.5,1.5,1,4,2.5,2.5,4-1v-1.5h2v-1l2-1.5.5-1.5,1,.5,1.5-1.5,1.5,2h3v1l-.5,1.5,1,2.5,1.5.5,1,2.5-1.5,3-.5,5.5-4.5,1-3,2.5-.5,4.5-1.5,1.5-2.5-.5-.5,1.5-13,8.5-4-.5-2.5,1.5-.5,1.5-.5,3-3,7.5-9-1-3-1.5-22.5-3-7,2-3.5-1-9.5,3.5-1.5,1.5-5.5-9-13.5-12-6-8.5-1.5-11.5h1v-1l1.5-2-3-.5-1,1-5-2-.5-1,.5-1.5v-.5l-3-2.5.5-1.5-3.5-1-.5-1,.5-1.5-3-5.5-3-.5-2-1.5-4-.5-4.5-3-6.5-1-2,1-4,.5h-.5l1-2-1-1.5,1.5.5v-1l-4-1.5-1,.5v1.5l-1,1-2-1-3,4h2l.5,2.5-3-.5-1.5-2.5h-1l.5,2,4,1v2.5l6.5-4,1.5.5,1-1.5-.5-.5,4-.5,2-1,6.5,1,4.5,3,6,2,3,.5,3,5.5-.5,1.5,1,1.5,2.5.5v1.5l3,2.5-.5,2,.5,1,4,1.5-2.5.5-5-4.5-11,4-1.5-5-8.5-5.5-1.5-3-3.5-1.5-5.5.5-9-2.5-4.5,2-3-1.5-5,2-12.5-3.5-6-11-22.5-6.5-3.5-4-1.5-8-4-4,1-1-1.5-2.5"/>
      <path data-code="YAN-SHU" d="m13.25,448.1l4.5-.5,3,.5,1.5-1.5,6.5-.5,1.5-1.5,1,1.5,1-1,2,.5,1,1.5.5-1,3.5.5,1-1-1.5-1.5,2.5-2,2.5-1-2-3.5,2-1,1.5-2.5,3.5-1.5-.5-1,1,.5v-1l1.5-1.5.5-1.5,4-2,1-1.5,1-.5,3,4,1.5-1.5-1-4,1-2.5h1.5v-.5l1-.5,2-3.5,3-1.5v-.5l.5-.5,2.5,1.5,4.5-3,5,1,1.5-1,1-2h2.5l2.5-2.5,7.5,2,.5-1h1.5v-.5l1-.5v-1l2.5-1,3.5,2,.5-1-.5-1.5,1.5-.5,1-2.5,3,1h1.5v-1.5l3.5,1,3.5-1h2.5l-1,3,.5,2v2l.5,2,2,2.5.5,2-2,1.5,2,1v2.5l1.5,3.5-4.5,1v1l1,1,.5,3.5,4.5,4,.5,2,2,2.5-.5,1h2.5l1,2,2-1.5,1,.5.5,3,1.5,1-.5,1.5.5,1.5,3,2.5-.5,5h-3.5l-6,9.5,9,7.5,4,4.5.5,2.5,2,2.5,7,6-1,5-1,1-.5,1,2.5,1.5,1,4.5,6.5,1.5-1,1.5,1.5,2.5,2.5.5-.5,2-1,1-1,1.5v3l-.5.5v1l.5,3-4-.5v3l1,.5,1.5,5,4.5,4v2l2,1,.5,2,5.5-2,.5.5h1.5l6.5,5-.5,2.5-3,4.5.5,3-2.5,3-2,.5-.5,2,2,2.5,1.5,4.5-1,2.5,2.5,3-3,1-.5,4-2.5,4-2,1-1,3-4.5-1.5.5,3.5,3,7.5,4,1.5,2.5,3.5,2,.5,2.5,10,2,2-5,3-.5,2.5-1,.5-4-1.5-4.5-5.5-3.5-1-8,3.5-1.5,2-2,.5-6.5,1-.5,1.5-6,3.5-2-4.5-3-.5-1-2-2.5.5-2-2-3,.5-.5-1,1.5-1.5-3-2,1.5-2-2-.5-3-3.5h-2v-1.5l-2.5-1.5,2-5-.5-.5,1.5-2v-1l2.5-1.5,1.5-2,1.5-1,1-1.5-1-1.5,1-.5.5-3-6.5-4.5-8-.5-5.5-6.5-6-1.5-2.5,1.5-16-5.5-7.5,4-5.5-2h-8.5l-3-2-5,3.5-13-3.5-3,1-2.5,2.5-9-2v-1.5l-2.5-1-1.5-3.5,3.5-1,1-6.5-2-1.5-3-5-5.5-2-5,2-1.5-3.5-3.5-.5-3-5.5,3-4v-1.5l5-1,3.5-3,1-2.5.5-.5,1-3.5-2.5-3.5,2-3.5h1l5-7,3.5-9.5,3.5-6-10.5-7v-7l3.5-4.5-2.5-3,1-3.5v-3.5l-2.5-1.5.5-1.5-1.5-3.5-1.5-2"/>
      <path data-code="YAN-TAZ" d="m459.75,9.6h.5-.5m61.5,18.5v-.5l.5,1h-.5v-.5m11.5,7.5v2h-.5l.5-.5-.5-2-2.5-2.5-10-6,8.5,4.5,1.5,1,1,1.5,1.5,1,.5,1m-25-8l1.5-2.5-1-.5-4,2.5-2.5,3.5-.5,1.5.5,1-.5-.5v-2l.5-1,1.5-1.5,1.5-1.5,1.5-1,1-.5,1.5-.5h5l3.5,1h2v.5l-7-1,.5,1h.5v1l1,3.5v.5h-4l-3-1h1.5l-1-1.5v-1m25,11h.5-.5m-20,9v.5-.5m-1.5,3l.5,1-.5-.5v-1.5l.5-1-.5,2m16.5,5.5l-8.5-2-3-2.5-1-2.5,2.5-.5,8.5,3.5-.5-1,1.5,1.5.5,1.5v2m-50,8.5l.5.5-2,.5-7.5-9-2.5-4.5,2-3.5,1.5-1.5,4.5-1.5,6.5,3,1.5,1,2,2,1,1,.5,1-3-3.5h-1l-1.5,2v1.5l-.5,2-2,2.5v1.5l-.5,1,1.5,2.5h-1.5l.5,1.5m3.5-.5h.5v.5l-.5-.5m-2,.5l.5-.5,1,1h-1l-.5-.5m15.5,29h.5v.5l-.5-.5m30,22.5h-2.5l1.5,1-1-.5-2.5-3,2.5-3.5,7.5-3.5,5-6.5,6.5-3.5,13.5,5.5,2.5,4v3.5h-3l-1,2-2.5,1.5h-2.5l-3.5,1.5-.5,2-1.5,1-.5,1.5-3.5-1.5-1.5.5-13-2m4.5,4h1-3,2m-6-1.5l.5,1-1.5-.5v-.5h1m-3.5,1.5h.5l.5-1.5.5,2.5-1.5.5.5,1.5-.5-3m40-3.5l-2,2,1.5,2.5,2.5,1.5-.5,2,1,1-1.5.5,1,1.5-2.5.5,2,1-.5,1v.5l3,.5-1,1.5,1-.5v1.5l3,1-.5.5v1l2-.5v2l1.5-.5v.5h-1l1,1v1.5l.5-1,1,.5v1l2-1,2,1-.5.5,2,.5v1l1-.5-.5,1.5,3-.5.5,1,3.5-1,3,1.5-.5,1,2.5,1-1,1.5.5,1.5.5-.5v-1l3.5,1.5-.5,1h1l.5,1-1,.5,1.5.5,1,1.5h.5l-.5-1,2,.5v1h-.5l.5.5-1,.5,3,2.5-1,1-1-1v1l-1,.5-.5-.5,1-.5-2,.5-.5-1-.5.5.5.5-1,1-2-.5.5,1-1.5-.5,1,.5-1,.5.5.5-.5.5,2,.5-1,.5h.5v1.5l.5,1h-2l1.5,1.5-1,.5h1l-.5,1,.5.5-1,.5,1.5,1-3.5,2.5-1-1,.5.5h-.5v1l-1.5.5.5.5-.5,1-1.5-1-2.5,2-2.5-2.5-4-.5-1,.5-2.5-1.5-2,1-.5,1.5,1,3-2,4.5-5.5,4.5.5,4,.5,1.5,5,2,12,14.5,13.5,7.5-.5,15,1.5,2-.5.5v1l-2,3.5-.5,1.5v1l.5,1v.5l2,1,1,2.5-.5,1v.5l-.5-.5v2l-1,1v.5l-1-.5.5,1-1,.5,1,.5-1,1v1l-2.5,1.5,1.5,1v1.5l.5,1.5h2l-.5,1h.5l1-1,1,.5-1.5,1.5h-1.5l1,1-.5,1h-2l-2.5-2,1.5-1-1.5-3-5-1-1.5.5-1,1.5-2.5-1-.5,3-1.5,1-1.5-1.5-.5,1,1,1-.5,1.5-3,.5-3.5,4-2-1.5h-1.5l-1,1,1,2-3-.5-1,3-3.5,4.5-3.5-1.5,1.5-.5-.5-1h-2.5l-.5,1,.5,2-1,1,1,1.5v2l-1-.5v-1l-3-.5-.5,2,.5,1.5-1.5-1-2,1.5,1.5-.5-.5,1,1,1.5h-1l-.5.5.5,1-1.5,1-1.5-.5-.5,2-2,1h-2.5l.5,1v1l3,2-1.5,1.5,3,2-1.5,1.5v1l2,1-3.5,1.5-.5,1,1.5-.5.5,1.5,4,.5.5,2.5h1.5l.5,1,2-.5-.5,1.5,1.5,1-2,1,2.5,1.5v2l.5,1-.5,1,1,2-1.5,1.5,1.5,1-1,1,2,1.5-1,1,3.5.5-1,2,2,2.5h-1v1l2-.5,1,1.5.5-1h2l1,1,1.5-1-.5,1.5,3.5-1,2.5,3.5h2v1l1.5-.5,1,1.5.5-1,2,1.5,3.5-.5v3.5l1.5.5.5,2,1.5.5h-1l.5.5v1.5l1,.5,5-2,1.5.5,1-1.5,3-1.5,2.5,3,4-1,3-2.5-1.5-1.5,1-2.5.5-3,2-2.5,2.5,2,3,6-.5,2-4.5,4-.5,1,1,3,4.5,1,3,3,3,.5,2-1,1.5.5,2,1.5-1,2.5,1.5.5-1.5,1,.5,1h-3l-1.5,1.5.5,2,2,1,1.5,3.5.5,5v5.5l5.5,5,1,5.5v1.5l-1,1.5-4,1-2,2-.5,3,1,5v5.5l-1.5,4.5-2,3.5-2,1-1.5,4,.5,2.5-6.5,3v1.5l.5,1.5-.5,3.5.5,3.5-1.5,2-8-1-2.5-1.5-4,1.5-1.5-1.5-2,3.5,1.5,1-.5,1.5,2.5,4.5h-.5v1h1.5l-.5,1,1.5,1-.5.5,1,1,.5-.5.5,1,1,.5h-.5v1h1l-1,1,.5,1-1,.5,1.5-.5v1l-1.5.5v1l-.5-.5-.5,1,2,2.5-.5.5h.5v.5l1.5.5v2h1.5l-.5.5.5.5.5,1.5,1-1.5-.5,1.5,2.5-1-1,2h1.5l-.5,1,.5,1-2,.5,1.5,1.5-1.5-.5h-.5l.5,1-1.5-.5.5,1.5-1-.5v1h-1l1,1-1.5.5.5.5v1l-.5.5,1,.5-.5.5.5.5,1.5.5h-1.5v1.5l1.5-.5-.5,1,.5,1-4,.5v1.5l1.5.5-1.5.5-1-1.5v2.5h-2.5v2l16,19-2.5.5-1.5-1-2.5,1-5-2-1.5.5.5,1h-.5l-1.5-1v1.5h-1l-2.5-1h-2v1l-1.5-.5-1,1.5.5,1v.5h-2.5l-1.5,1.5-1.5-2h-4l-2,2.5-1,3,.5,4,2.5,1.5-1.5,1v2l-1.5,2,1,.5-.5,1.5,1-.5.5,2-1.5,1.5.5.5-3,2.5.5.5-1,1-1,.5-2,2.5-3.5,1-1,1.5h-6.5l-1.5-1-3,1-8-4-4.5-1h-4.5l-1.5.5-1.5-1.5h-3.5l-1-2.5.5-1.5-1-.5-1,2-2.5,1-.5,2h-2.5l-1,2-2,.5-1-2-9-1.5-4.5,2-.5-2.5,2-2v-3l-2.5-4,4.5-2-.5-1.5-2-2,1.5-2.5-.5-1.5.5-1.5-1-3.5.5-4.5v-1l-9.5-8.5-5.5,2-4-5.5.5-1.5-3-1.5v-2.5l1-3.5-.5-2.5,2-2-2-1.5.5-1.5v-2l-6-6.5v-2l2-1.5.5-1.5-1-1.5,3-2.5,4,2,2.5-2.5,3-1,.5-1.5-.5-1.5-3-.5-2-4.5,1-2,1.5,2.5,4,.5.5-1.5,1-.5,7.5.5.5-.5v-1h1.5l-1-1.5,1.5-.5-4-1.5-.5.5-.5,2.5-1.5.5,1.5-1,.5-2-.5-2-.5-.5-.5-3-1.5-.5v-1.5l-1.5.5-2.5-2v-1.5l1.5.5-1.5-4.5h-2.5v1l1,1.5-1.5,1.5h-2v2l1,.5h-2l-1,3-5.5-3-3.5,2,4.5-2.5-4-2-.5-2-4,2-.5-1-2-.5-1.5-3,1-2.5v-1.5l.5-3-.5.5.5-2,2-2,1.5,1,1-1-.5-1-.5.5-1.5-1-.5-2.5,2-3.5v-4l1.5-2.5,6.5-5,7.5.5,4.5-1-2-5,1-1.5v-.5l-3-3-.5-2,.5-2-1.5-2,2.5-.5.5-2-1.5-1.5h-2.5l-.5-1,1-2.5-1.5-3.5v-2l1.5-.5.5-2,.5-6-1-2,1.5-6-.5-1-2.5-2-5-1.5-3-5-7-3.5-2-2.5v-3.5l-1.5-3.5-2.5-1-.5.5v.5l-5-1.5-1.5-3-7-7-6.5-.5-4.5-2.5-3-.5-4.5,2-1.5,1.5-3.5,1-1.5,1-.5,1.5v1h-9.5l-1-.5-3.5-4-5.5-2-4-.5-5,2.5-3.5-.5-1-1-1-6.5v-1l1.5-3,5-8.5.5-2.5v-7.5l-1.5-4.5-1.5-3.5-1-10,1.5-3.5,3.5-2,1-4.5,3-3.5v-2.5l1.5-2,1-3.5-.5-2-1.5-1.5,4.5-5,8-6.5,3-4,3.5-2.5,3.5-6.5,1-5.5v-3l-.5-4-5-11-.5-3.5,2-3.5v-1l-3-6-1-4.5.5-4.5-.5-4-4-8.5-6.5-6-.5-2,3-3.5,9-6,3.5-4,1.5-2,1-3v-1.5l-1-2.5,2-2,8-3.5,22.5-6,6-3,4.5-5,3-5.5,2-8,1-5.5.5-10v-5l-.5-5-2-6,6.5-3,8.5,10.5.5,1.5-2,1.5-1-1.5-1.5,2,5,10,.5,3-2.5-.5-1,.5-.5,1.5v3.5l.5,2-1,3,1.5,5,1,1.5-.5,3h-.5l.5,1v2h-1l-.5-1,.5-.5-1-1-2,.5-2,4-2.5,6-2.5,3.5.5,2-.5.5-1.5,2-2.5-.5-1,2,.5,1.5-2,3-1,4.5.5,2-.5,1.5,4,7-2,3-.5,1.5,1.5,4.5-2.5,1.5-1,3-.5.5-1.5-1.5-3,1.5.5,1.5-.5,1,.5,4.5,2.5,3,3.5,2,4,4,7,4,1-1,4,2,8.5,2,5.5,2,1.5.5-.5,1,.5.5,2.5-1,4.5,2.5,5.5.5,8,4,1.5,2,.5,3-.5,5h1l-1,.5v1.5l10,5,1,2.5h1.5l-1-1.5.5-2.5,1.5-1.5.5-3,1-.5-2.5-.5-2.5-4v-4h1.5-1.5l1-1,1-2.5,1-3-.5-.5-6.5-3.5-2.5,2v-4l1.5-1.5-.5-1.5h-1.5l1,.5-.5.5h-3.5l-2,1.5,1,1.5-8-4-4-4.5-.5-3.5-1.5-1.5-3-.5-5-4-2-1.5-1-3-5.5-5-1-3,1.5-2.5v-1.5l-2-3.5v-4l.5-3-.5-4,.5-1-2-1,4.5-2,6-4,8-1.5h5.5l1.5,1.5v1h-.5l7,8.5,4.5,7.5,5.5,2.5,5.5-1.5,5-2.5,2-2.5.5-2-.5-4-2-4.5-1.5-2-6.5-.5-5.5,1.5-2-1-.5-2.5,4-4.5v-1.5l-1.5-1h2.5l1.5,1.5,1,.5,2.5-1,.5-2,2.5-2,1.5-2,4-1-1-1h.5l1.5.5.5-1,2.5,1.5,4.5-2,2.5,1.5m-80-56l.5-.5,1,.5h-1.5m-8.5,358l-1.5,2-2-.5-6.5,2-4-2-4,2.5-3-.5-6.5-5.5-1-8.5-1.5-2.5-1.5,1-4.5-1.5-6-4.5v-4l1-.5v-1l-5-4-1-5.5v-2l2.5-5.5,1-3-1.5-3.5,1.5-1.5-.5-1.5v-1.5l.5-2-1-1.5,4.5-2.5,3,1,1,1.5-.5,2v1.5l6,4,5.5,2v-2.5h3l.5-4,1-1,.5,1.5,2.5-3,1-.5v-1.5l1-1.5h1l1-2v-2l-2,.5.5-1.5-3.5-2v-1.5l-1.5-1,1-1.5-1.5-.5v-2h-1l1-1.5-4.5-2.5-.5.5-1-1.5v-2l12.5-1,8,1.5,2,1.5.5,1.5-.5.5.5,1.5,1,5-3.5,4.5.5,2.5,7.5,9.5,1,3.5,3.5,2.5.5,3.5,2,3-3,.5-.5,3,1,2.5v1.5l-1.5.5-1,2-2,.5-.5,1.5-1,1,1,2,4,2.5-2,2.5v2.5l-3.5,3v4.5l-1.5,3,.5,1-1,1.5,2,3.5"/>
</svg>