<svg data-code="RU-YAN" xmlns="http://www.w3.org/2000/svg" viewBox="0 0 684.25 848.25">
    <g data-code="jamalo-neneckij_avtonomnyj_okrug" data-title="jamalo-neneckij avtonomnyj okrug">
      <path data-code="gorod_gubkinskij" data-title="gorod gubkinskij" class="cls-1" d="M393.13,654.12l.5-2,6.5-1.5,1,2,3.5-1-.5,2.5-10,3.5-1-3.5"/>
      <path data-code="gorod_labytnangi" data-title="gorod labytnangi" class="cls-1" d="M148.13,422.12l7-1.5v2l-.5,2,1,1h5.5l1,1.5-3.5,1.5,1.5,1.5-3.5,2.5-2.5-1-3-1.5-1-5h-2v-3"/>
      <path data-code="gorod_muravlenko" data-title="gorod muravlenko" class="cls-1" d="M330.63,679.12l2,.5,2,3,3.5.5-.5,4-3,4-1-.5-1-2,1-1.5-3-1.5-.5-2,.5-4.5"/>
      <path data-code="gorod_nojabr_sk" data-title="gorod_nojabr&amp;apos;sk" class="cls-1" d="M342.63,732.29h1l1.5,2.5,3,.5-.5-2-2-.5,3-3.5,2.5.5.5-1v-1.5l1-.5,4,1.5v1h-1.5l1,1-1,2.5.5-.5,4-.5,2-1,6.5,1,5,3,3.5,1,2,1,3,.5,3,5.5v1.5l.5,1.5,3,.5-.5,2,3,2.5-.5,2,.5,1,5,1.5,1-1,3,1-1.5,2,.5.5h-1.5l-3-2,.5-.5-3.5-1.5h-.5l-.5-1v-.5l.5-1.5-3-2.5.5-2-3-.5-.5-1.5v-1.5l-3-5.5-3-.5-5.5-2-5-3-6.5-.5-2,.5-4,.5.5,1-1,1-1.5-.5-6.5,4v-2l-4-1.5-.5-2"/>
      <path data-code="gorod_salekhard" data-title="gorod salekhard" class="cls-1" d="M132.13,464.62l5.5-9.5,3.5.5,6-2.5,1.5-5-1.5-3,1-2,3-2,.5-1,2-1,1-3.5,2-2v-1l3.5-2.5v1.5l3,2.5-2,2,2,2.5-.5,7.5-1.5,1,1.5,1.5.5,2.5-1,2-6.5-1-1.5,1.5v2l-1.5,3v2.5l-2.5-1-2.5,4,1.5,3.5,1.5.5.5,2-3,1-.5-.5.5-1-3.5-1-2-3-2,1.5-3.5-1.5-.5-2.5-4.5,1.5"/>
      <path data-code="jamal_skij_rajon" data-title="jamal&amp;apos;skij_rajon" class="cls-1" d="M248.63,178.62h.5-.5M245.63,179.62l.5,1,1.5,2.5-2-2-2-4,2,2.5M242.63,173.12l-1.5-3.5v-6l1.5-6,3-6.5.5,1-2,4v1.5l-1.5,1v2l-.5.5v2l-.5.5,1,1h-1l-.5,1h2.5l-2,.5.5,2-.5.5,1.5,3.5v1h-.5M247.13,175.12l.5,1.5v1l-.5-3v.5M248.63,151.62v-.5.5M244.63,172.62h.5l-.5.5v-.5M242.13,174.62l.5-.5.5,2-.5-.5-.5-1M249.13,182.12h.5-.5M251.13,201.12v.5-.5M250.63,467.12l-3.5-3.5-2-3.5-2,2.5-2-2.5,1-2-1-4v-5l-1.5-.5-1,2v1l-3,.5,1.5,1-1,1.5.5.5-2-1-.5-3.5,2-1.5-3.5-6.5h3.5v1.5h5l2.5,1-2-2-2-.5-.5,1.5-1.5-1,4.5-14.5-1-1.5,2.5-2-2-2,7-8.5-1-2.5,1.5-4-1.5-1.5,4-26.5-6.5-12v-6.5l-4-6,2-2-.5-1.5,1-1-.5-2,2.5-1.5-4-7.5,3.5-1.5.5-1.5,1.5-1h1v-1l.5-3,13.5-14,7.5-12,2-.5v-3.5l-3-2.5h4.5l1.5-2h-3l.5-1-2-.5-4,1.5-2.5-1-3.5-3-2-3.5-1-2.5v-4.5l-3.5-12v-4l.5-5.5,2.5-1.5v-1l2.5-4.5v-2l1-1.5-.5-1.5h.5l-3.5.5.5,2.5-2-.5-1-1.5-2.5-1.5-2-4,.5-.5v-2l-2.5-1-1.5-2.5h-3l-7-9-2,1,1,1.5-.5,1.5-4,.5-.5,1.5.5,2.5v4l-.5-1-1,.5-1-2,.5,4.5v1h1.5l.5,1.5,3.5,3-2,3.5-2.5-2-1-2.5-.5-9.5.5-2.5,2.5-10.5,4-10.5,4-6,4-4,.5.5-1.5,1,.5,1.5h-1.5l-.5.5-.5,2.5,1,1,9-.5.5-.5v-1l1-.5,1.5-5-1-2.5.5-3-.5-1-.5,1.5-2-1v-3.5l3.5-5.5,1.5-4,2.5-1.5v-.5l-.5-.5,2-.5.5-1v-3l-.5-3.5,2-2,.5-3,3.5-2.5-.5-1h.5l.5-1.5.5-.5v-1l.5-1v-1h1v-3l-2.5-4.5-3-.5-1.5,1.5h-8l-2,1,2-3.5v-2l-1.5-1.5.5-1,7-5.5,1-2,1.5-1v-2l2-1.5-2.5-2-.5.5v1l-1.5,1,.5,2.5-.5,1.5-5.5.5v2.5l-2.5.5-3.5,5.5-.5-1,6-8,6-7.5,4-3.5,5-7h5.5l7.5-2.5,6-3,12-4.5-2.5,2.5,2,.5.5-.5-.5-.5,11.5-9.5.5-1.5,5.5-5.5,1.5-2.5,11-20,7.5-16,5-8.5,3-7,1.5-2.5,7-5,6.5-9.5,9,2.5,1,3.5-1.5-1.5h-4.5l-1,.5-.5,2.5,16.5,2.5,12.5,4.5h6.5l5.5,3,6.5.5,7.5,7-.5,1-1.5-.5,1,2h1l1-.5-.5-1,1.5-.5-1-.5h.5l11.5,9.5,6,6.5v.5l-1,.5-1,1.5,1,4-4-4-2,1v2.5l-.5,1.5v2l1.5,1-.5.5.5,1-1.5,1-1,3-1,5.5v5.5l-2,.5-2,2.5-1.5,4v2l-3.5,2-5.5,11-1,1.5-3.5,1-1.5,3.5-1,7-4,1-2,5-7,2.5-2.5,1.5-.5,2v4.5l2,4.5v5l1.5,3,3,6,5.5,5,1.5,6.5-1.5-.5-1.5,2-.5,2.5,1.5,5,1.5,2.5v3.5l-2,3-2.5,8.5-2.5,3-.5,3v2.5l.5,2-2,8-1,1-.5-1-3,1.5-4.5,3-1.5,3-.5,1,.5,1.5,2,3.5v3.5l-2,4.5-2,1.5-.5,1.5v4.5l1.5,6-.5,6.5-1.5,3-3,2.5-2.5,3.5,1,9.5v2l-.5,2-2.5,3-1.5-1.5-1,1,1.5,2.5.5,4.5-.5,2.5-3.5,2.5-1.5,2-1.5,6-.5,6v7.5l2,7,8.5,10,7.5,13,1.5,4-1,5-1,1.5v-1.5l1-1.5v-1l-2.5.5-1.5,1.5.5.5-1.5,1-1,2v1l-5,3-6.5,5.5v1l-.5,3-2.5,3-.5,2.5,2,10-.5,3-1.5,3.5-2.5.5-1.5,1.5.5,5.5-1,2h-.5l1-1.5-.5-1-2.5.5-1,1-1.5-.5-2,1.5v2l-.5.5-4.5,1-4-1-1.5,1,1,1.5-1,3-5,3-.5,2,.5,3-2.5,4.5-4.5.5-.5-2.5-5.5,1.5-.5,2,.5,1,2,1h.5l.5-1,.5,1v4l-1.5,3.5-.5-.5.5-1-.5-.5-.5,1-2.5-1-3,1.5,1,2.5-1.5,1.5,1,1-.5,1h-2l-.5,1h-1.5l-1.5,2.5-2.5.5-2,3.5-1-.5-.5-2.5-2-.5-1,.5-.5,1h-1l-2.5-5-2.5,1,2.5,1.5-.5,1,1.5,2-3-1-1,.5,5.5,3-1,.5-1.5,2v5l1.5,1,1,2-.5,2-2.5,1.5.5.5-.5,1h-4l-1,1h-1.5l-2.5-3-1,1.5,3.5,3-2.5-.5.5-1-2-1h-1.5l-.5,1,.5.5h-1.5l-.5,1-2,1-2-1.5-.5,1h-6.5l-1.5,1-11-9.5.5-2,1.5-1.5h3.5l1-1-1.5-1,.5.5-3,.5v-.5h1l-3.5-3.5-.5-1.5,1-1-2.5-2-1.5-4,.5-1.5-.5-2.5-1.5-.5-1.5,2,1,1.5-3.5-.5-4.5,2,3,1.5,2,3,.5-.5-2-3.5,2-.5,5.5,6-1,.5-3.5-3-.5.5.5.5h-1l6.5,5.5v1h-1l-.5,1.5h-3l1,4,1.5,1v.5l-1.5.5.5,1h-2l-.5.5,1,1-2,.5-.5-3M444.13,17.12v-.5.5M375.13,28.62l-3-1v-2l.5-1,4.5-9,1.5-4,1.5-5v-3.5l8.5-2.5,12,.5,6.5,5,2,2.5-3.5-2-.5,1v3l-1,.5-.5,1.5,1.5,1.5.5-2.5,4-1.5-.5-1,.5,1v1l.5,1.5-1,.5.5,2.5-3,.5-.5,1,.5,1-6-1,6,3v-1l1-.5,2.5-1-.5-.5,1.5-1.5,2.5,6,.5,6-7.5-1.5-3,2-3.5.5-6.5-1.5-11,3-5-2.5.5-3-1-1-2.5,1.5,1.5,3.5h-1M410.13,27.62h.5v.5h-.5v-.5M413.63,34.12v-.5,1-.5M412.13,34.62h.5v.5l-.5-.5M234.13,455.62h.5v.5l-.5.5v-1M241.13,458.62h-.5l.5-.5v.5M255.63,450.62l.5.5h-.5v-.5M229.13,455.62l-3.5,3-1.5-5,2.5-4.5,2,.5-1-3.5,3.5-3,1.5,1-.5,2-2,3-1.5,4,.5,2.5M284.13,473.12h.5-.5M282.13,475.12l1-.5.5.5-1,.5-.5-.5M302.63,453.12v.5l-1-.5h1M304.13,454.62v.5h-1.5l.5-.5h1M297.63,458.62l.5-.5v2l-.5-.5v-1M239.13,246.62l-1,2.5-2,.5-2.5-1.5-2-3,6-5h4v4l-1,1.5-1.5,1M245.13,249.12h1-1M247.13,203.62l-.5,1v-.5l.5-.5M253.13,473.12h-1,1M273.13,479.12h2l-1.5.5-.5-.5"/>
      <path data-code="krasnosel_kupskij_rajon" data-title="krasnosel&amp;apos;kupskij_rajon" class="cls-1" d="M479.63,680.12l13.5-15.5,1-3.5,1.5-1.5.5-5,12-16.5-1-2-2,1-2.5-1.5,2-.5-2-4.5.5-1.5-1-.5-.5-3v-1.5l-5.5-2.5,2.5-2.5,7-2h5l1-2.5h3.5l.5-7,2-1,4-6-5-6.5,3-2.5,1-3.5-.5-.5,3-4.5-1.5-2-.5-2.5-18-23,3.5-1,1.5,2,3-2,.5-3h1.5l-1-4,4.5-2,3-5,4-3,1-1.5,2.5-.5.5-2,2.5-1,1-2,1,.5-.5,2,1.5,2,3,.5,1.5,1.5,2.5-1,8,1,8.5,4,2.5-1,4,1.5,4.5-.5v-.5l1-1h1.5l-.5-.5,5-3,1-1-.5-1,3-2-.5-1,1.5-1.5-.5-1.5h-1l1-1-1.5-1,1.5-2v-1.5l1.5-1-2.5-2-.5-3.5,1-3.5,1.5-1.5,3.5-1,2.5,2,1.5-1h2.5v-1l-.5-1,1-1,1.5.5v-1l2-.5,2.5,1.5,1-.5v-1h.5l1.5,1v-.5l-.5-.5,2.5-1,4,2,2.5-1,4.5,1,5.5,7.5.5,2.5,2.5,1.5,1,5-.5.5v1l1,1v1.5l1,1-.5,2,1.5.5-.5,1h-1l-3,2.5h-3l-1.5,9,.5,4.5,4,2.5,6.5,14.5-1.5,2-4.5,2v2.5h-1.5l-2,2.5h1.5l-.5.5.5.5-.5.5v1h-.5l1.5,2h-.5l1,1v.5h.5l1.5,2.5,1.5.5v.5h.5v.5h.5v.5l-1.5,1.5v1l.5,1.5-2,2,2.5,4,6-1,6.5.5,3.5,7,4.5,1.5-1,3v1.5l-3.5,2,4.5,3,2.5.5.5.5-.5,2,1.5,1.5.5,2.5v2l-1.5,1.5,2,6.5-1.5,4.5-4.5,2.5-4,7v3l1.5-1-.5-1,.5,1v2l1-.5-1,2,.5,1-1,1.5-1-.5,1,1.5h-1.5v1.5l-1.5,1,3,3,1-1.5v-.5l.5,2,.5-1,1,.5.5-1,1.5,1v-1l1,1.5,1-1.5,2,1,2.5-1.5,2,.5v-1l2.5,2-.5-1.5h1l3,3h-1l-.5,1,.5.5-1.5.5-1.5,1.5,1,.5-.5,1.5h2v1.5h.5l-.5-1,3.5.5-.5,2h.5l-.5,2.5,4-2,3.5.5,2.5-2.5,2.5-1,6,2.5,2.5,3-1,7.5,2,6v1.5l-3.5,5,3,5v4.5l1.5,7-.5,3.5-1,1v2l-2,3.5.5,5.5h-2l-6,3-3,3-3.5,1-1,1.5v1l-.5,1.5-3.5.5.5,1.5-2,2.5,1.5.5-1,.5,1,1-2,1,.5,1.5-1,1,.5.5-1,2.5v.5l-1,.5.5,1-1.5,1-.5.5h.5l-1,1-1.5-.5-1.5,3.5-2-3-1.5,1,1.5,1.5h-.5l.5.5v2l.5-.5v.5l2.5,1.5,1-.5v2l2.5-2-.5,1,2,1.5v1h.5v1h.5l-.5,1,1,1-1,1,.5,1h-.5v-.5h-.5.5l-.5,1.5,1,.5v1.5l1.5,1v-.5l4.5-1,2.5,1-.5.5,1,.5-1,1,.5.5-4.5,3,.5.5-.5.5.5.5-.5.5v.5h-.5l-.5,1,.5,1-1,1,1,.5-2.5,1,.5,1-.5,1.5v1.5l1,.5-1,.5,2,1,.5,2.5-1,.5,1.5,2-1,1.5-3,1.5.5,3-1,1.5.5,1-2,1.5h-3.5l-3,3.5-2,1-2.5,6.5-3,2.5-.5,1,1.5,1-.5.5h-1l-2.5,2.5-1-.5-2.5,3,.5,1h-.5v1h1l-.5.5h1l-1,2,.5.5-8,5-5,6.5-3,5-2,2-1-4-3-2,.5-3.5-1.5-4.5h-4l-3-2.5-.5-6-4-6-6.5,4h-2v-2l-8,3.5-9-5.5,1.5-4.5-8.5-6,1-6.5-9-3h-5.5l-3.5-4-7.5,4-3.5,3-3.5-1.5-2-2v-3.5l-7.5-3.5-2.5-3.5,1.5-3.5-3-2-3-6-1-4,.5-5.5-3.5-1.5-2.5,1v-6l1-3-.5-2-1.5-.5-.5-3,.5-1-.5-1-2.5-.5-2-2-1.5,1.5-1-.5-.5,1.5-2,1.5v1h-2v1.5l-4,1-2.5-2-1-4,1-2-1-1.5.5-1h-8l-1.5,4.5-4,6-2.5-4-9-4.5,7-4.5-1.5-4v-5l2-8,11-4,1.5-10,2.5-1.5-1.5-5.5,1.5-4-14-20"/>
      <path data-code="nadymskij_rajon" data-title="nadymskij rajon" class="cls-1" d="M240.62,457.99l2.5,4.5,1.5-2.5,2,3.5,3.5,2.5v3l-.5-1-1,.5-.5,1h-2l-1.5-3.5-1.5-1.5-2.5-6.5M252.12,472.49l.5.5v.5l-.5-1M251.62,472.99l.5,1-1.5-.5-1.5,1v-1l1.5-1,1,.5M276.12,483.99v.5l-1.5-1.5,2-.5-.5,1v.5M268.12,481.99h.5l.5.5h-1v-.5M274.12,484.49l.5-.5v.5h-.5M214.12,451.99l3.5,1.5-.5,2,2.5,2.5,3.5-1.5,2,.5.5,1.5,3.5-3.5,5.5,10,9,4,1,1.5,1,3.5,12,9,17.5,2.5,7.5,2.5,9,4.5,2.5,2.5,1,4.5h5l1,1.5h1.5v2l1.5-1.5,6-2.5-.5-1-1.5.5,1-2.5,5-.5v-.5l.5-1v-2l-1-7,3.5-1,3-4,13-.5,2-1.5,1-2,1-1,15.5-4,2-1.5,3-5,7.5-2.5.5-1.5.5-2.5,2-1.5v-2.5l2.5-4.5.5-3.5-.5-2,1-2,2-1.5,6-7.5,15.5-9.5,4.5-4,2.5-4.5,4-13,.5-4.5-1.5-4,.5-2.5-1.5-9.5-5.5-10.5,6.5-9,.5-1.5v-4l1.5-6,1.5-2,3.5-2.5,22-4.5,7.5.5,3.5-1.5v2l1,1.5.5-.5,4.5,2.5-1,1.5h1v2l1.5.5-1,1.5,1.5,1v1.5l3.5,2-.5,1.5,2-.5v2l-1,2h-1l-1,1.5v1.5l-1,.5-1.5,2.5-1,.5-.5-1.5-1,1-.5,4h-3v2.5l-5.5-2-6-4v-1.5l.5-2-1-1.5-3-1-4.5,2.5,1,1.5-.5,2v1.5l.5,1.5-1.5,1.5,1.5,3.5-1,3-2.5,5.5v2l1,5.5,5,4v1l-1,.5v4l6,4.5,4.5,1.5,1.5-1,1.5,2.5,1,8.5,6.5,5.5,3,.5,4-2.5,4,2,6.5-2,2,.5,1-2,.5,1.5-3.5,4.5-2-1.5-2,1.5v2.5l3.5,3.5-.5,1,1,1.5v4l-7,10-7.5.5-5.5-1.5-2.5.5-.5,1-3.5.5-.5,1,.5.5-.5,6.5-3.5,5-3,1.5-5.5,5-2.5,1-.5,2.5-2.5,3-2.5,2.5-3,1.5-2.5,5.5v3l-1.5.5.5,3.5-1.5,4,1,3.5-2,5.5v3.5l-3-.5,1,3-2.5,7v2l-.5,3.5,3.5,4.5,9,.5,1.5,3.5,8.5,2-8.5,6,3,5.5,7-.5v1l-7,3-3,2.5h-2l-2.5,2.5h-8.5l-2,1.5-8.5,2h-3.5l-5.5,5-3.5,1,.5,5.5-3,3-.5,2.5,2,2,.5,1-1,2,1.5,8,1.5,2,1.5,5.5v4.5l2,3,2.5,2-.5,5-2.5,4.5-4.5,4.5-5,2-2,5h-3l-1.5,1.5v4l-1,3.5-9.5-.5-6.5,6.5-10.5,1.5-2.5-.5-5,4-.5,3.5-2.5,1-1,3.5-3,4-6.5,13-4.5,2.5h-4l-1.5,3-2,.5-10.5,8.5h-4l-7,2-2,9.5-6,4.5-5,1-1.5,2.5-7.5,3.5-7.5-3-8.5-2-3,2-5-1.5-8.5,2.5,1.5-19.5,3-6.5-1.5-7v-1.5l-15.5-5.5-.5-9-2.5-5.5.5-3.5-1.5-3-1-3,8-5,1.5-5.5-2-4-6-2.5-3-7.5,5.5-6.5,1-8,1.5-2.5-.5-3,.5-1,2-.5,4.5-6-1.5-.5.5-2,1.5-.5-1.5-3.5,3.5-4,1-9.5,5.5-2,.5-1.5v-1l2.5-4,1.5-5,2.5-1.5-2.5-3-1.5-.5-3.5-5v-2l-2.5-1-3-3-2-3-.5-2-3.5-1.5-.5-1.5-3-4-1-6-4-9-4-4.5,4.5-5-.5-2.5,2-2,4-1,1-1.5h4l2.5-2.5-.5-3-2-2,1.5-1-.5-1.5.5-3.5-2-.5-1-4-4-2.5-1,.5-1-5-5-4-.5-2.5-4-1,1-3.5-2-2.5,1-1.5-1-4M308.12,494.49l1-1,.5,1-2,1.5.5-1.5"/>
      <path data-code="novyj_urengoj" data-title="novyj urengoj" class="cls-1" d="M421.12,538.99l8.5-6,4,5.5-2.5,5.5-7,.5-3-5.5"/>
      <path data-code="priural_skij_rajon" data-title="priural&amp;apos;skij_rajon" class="cls-1" d="M206.62,275.49l-5.5-10-4.5-2.5v-1l2,.5,3.5,3,3.5,5.5,1.5,7.5-.5-3M226.12,295.49l-2-.5-3-5,4,1.5,1,2.5v1.5M157.12,256.99l2-3,5-1.5.5-1,1-1.5,3.5-2,6-1,1-2,1-.5v-.5l1-1,3.5,6.5,14.5,12-.5.5v1.5l-2.5-2v-1l-2-1.5-1.5,1,1.5,3h2l.5-.5,1.5,2.5,3,2,2.5,4h1.5l.5,1-.5,1,.5,2,6.5,6.5,11.5,8-3,.5.5,1-1,2,1.5,1,.5,3.5,1,2.5,3,2,5.5,10v2.5l3,4-3-2.5,1,3,2.5,1.5,6,6.5,1,5-3,2.5-1,3.5,2,1v3l4.5-2,4,7.5-3,1.5,1,2-1,1,.5,1-2,2.5,4,6v6l6.5,12.5-4,26.5,1.5,1-2,4.5,1.5,2-7,8.5,2,2.5-2.5,1.5,1,1.5-4.5,15-1.5-1.5-5.5-2-3.5,1-3.5-1.5-7,.5.5,1-5-1-1,.5,1,1-.5,1-2.5.5,2,1h2l-2.5.5,1,1,5.5-1.5-6,4.5-7,3.5-4,.5.5-.5-4.5-.5v-2.5h-1l.5,1.5-1,1,2,1.5.5,1,3.5.5,11.5-4.5,1.5-2.5,2.5-1,6-4.5,9,1.5-3.5,3,1,3.5-2-.5-2.5,4.5,1,3.5-2-.5-3.5,1.5-2.5-2.5.5-2-3.5-1.5,1,4-1,1.5,2,2.5-1,3.5,4,1,.5,2.5,5,4,1,5,1-.5,4,2.5,1,4,2,.5-.5,3.5.5,1.5-1.5,1,2,2,.5,3-2.5,2.5h-4l-1,1.5-4,1-2,2,.5,2.5-4.5,5,4,4.5,4,9,1,6,3,4,.5,1.5,3.5,1.5.5,2,2,3,3,3,2.5,1v2l3.5,5,1.5.5,2.5,3-2.5,1.5-1.5,5-2.5,4v1l-.5,1.5-5.5,2-1,9.5-3.5,4,1.5,3.5-1.5.5-.5,2,1.5.5-4.5,6-2,.5-.5,1,.5,3-1.5,2.5-1,8-5.5,6.5-3.5-1-3,1-6-2-1.5-1,.5-2-2-3-10-2.5-2-7-4,.5-8.5-1.5-1-3-2-.5-2.5-3.5-4-1.5-3-7.5-.5-3.5,4.5,1.5,1-3,2-1,2.5-4,.5-4,3-1-2.5-3,1-2.5-1.5-4.5-2-2.5.5-2,2-.5,2.5-3-.5-3,3-4.5.5-2.5-6.5-5h-1.5l-.5-.5-5.5,2-.5-2-2-1v-2l-4.5-4-1.5-5-1-.5v-3l4,.5-.5-3v-1l.5-.5v-3l1-1.5,1-1,.5-2-2.5-.5-1.5-2.5,1-1.5-6.5-1.5-1-4.5-2.5-1.5.5-1,1-1,1-5-7-6-2-2.5-.5-2.5-4-4.5-9-7.5,5-1.5.5,2.5,3.5,1,2-1,2,2.5,3.5,1-.5,1.5v.5l3.5-1-.5-2.5h-1.5l-1.5-3.5,2.5-4,2.5,1v-2.5l1.5-3v-2l1.5-1.5,6.5.5,1-1.5-.5-2.5-1.5-1.5,1-1.5.5-7-1.5-2.5,2-2-3.5-2.5v-2.5l-1-1,3.5-1-1-1.5h-5.5l-1.5-1.5,1-1.5v-2.5l-7,2v2.5l2,.5.5,4.5,6,2.5-.5,1.5-1.5,1.5-1,4-2,.5-1,1.5-2.5,2-1,2,1.5,3-1.5,4.5-6,2.5.5-5-3-2.5-.5-1.5.5-1.5-1.5-1-.5-3-1-.5-2,1.5-1-2h-2.5l.5-1-2-2.5-.5-2-4.5-3.5-.5-4-1-1v-1l1-.5,3.5-.5-1.5-3.5v-2.5l-2-1,2-1.5-.5-2-2-2.5-1-6,1-3,4-2,1-2.5-.5-.5,1-3v-2.5l1.5-1h2.5l1.5-1-.5-1.5.5-1.5-.5-1.5h2.5l4-3,1.5,1,4.5-2,2-2.5,1.5,1,1-2h2l.5-.5-1-2,.5-1,8.5,1,4-5,1-6-7,.5v-2.5l2-1.5-.5-3,2-1,3,1.5,1-1,4,3,2.5-1.5.5-2.5,1-.5-1.5-4-2.5-1,.5-1-.5-1,1.5-1,.5-1.5-.5-1,.5-1h2l1-1.5-1-2.5h-1.5l-2.5-3-5,1.5-5-2.5-3.5.5-1-3.5v-1.5h.5v-3l1-2.5,1-.5v-1.5l.5-.5v-.5l.5-.5-1-.5.5-2.5v-.5l1-2-.5-1,.5-2.5,1-.5,1.5-2,1,.5.5-2,2-1.5.5-2h1l.5-1.5,2.5-2.5,1-1.5,1.5-1.5,1.5.5v-2l2.5-1,.5-1.5v-1.5l-2-1,.5-1.5-2.5-3.5v-1l.5-1-.5-.5,2-.5.5-1v-1.5h-2l-1-.5,3-4h-1.5l.5-2h-3l-.5-2v1h-2.5l-1.5-2.5v-1l-2-1-.5-1.5.5-.5h-2l.5-.5-1.5-2-1.5,1v1l-.5.5-4-2.5-.5-.5,1.5-1.5-.5-1,2.5-1-2-4M224.12,440.49v-.5l1,.5h-1M214.12,442.99l.5-.5v.5h-.5"/>
      <path data-code="purovskij_rajon" data-title="purovskij rajon" class="cls-1" d="M393.12,653.99l1,3.5,10-3.5v-2l-3,.5-1.5-2-6,1.5-.5,2M330.62,679.49l-.5,4.5.5,1.5,2.5,2-.5,1.5,1,2h1l2.5-4,1-3.5-3.5-.5-2-3-2-.5M283.62,699.99l6-4.5,2-9.5,7-2h4l10.5-8.5,2-.5,1.5-3h4l4.5-2.5,6.5-13,3-4,1-3.5,2.5-1,.5-3.5,5-4,2.5.5,10.5-1.5,6.5-6.5,9.5.5,1-3.5v-4l1.5-1.5h3l2-5,5-2,4.5-4.5,2.5-4.5.5-5-2.5-2-2-3v-4.5l-1.5-5.5-1.5-2-1.5-8,1-2-.5-1-2-2,.5-2.5,3-3-.5-5.5,3.5-1,5.5-5h3.5l8.5-2,2-1.5h8.5l2.5-2.5h2l3-2.5,7-3,2.5-6.5-4-5.5-8.5-2-1.5-3.5-9-.5-3.5-4.5.5-3.5v-2l2.5-7-1-3,3,.5v-3.5l2-5.5-1-3.5,1.5-4-.5-3.5,1.5-.5v-3l2.5-5.5,3-1.5,2.5-2.5,2.5-3,.5-2.5,2.5-1,5.5-5,3-1.5,3.5-5,.5-6.5-.5-.5.5-1,3.5-.5.5-1,2.5-.5,5.5,1.5,7.5-.5,7-10v-4l-1-1.5.5-1,3,3.5,5,3.5,1,3,1,.5.5,1.5h.5l1.5,3h3l1.5,1v1.5l2,.5,6.5-1-1,2,2,4.5,3,.5.5,1.5-.5,1.5-3,1-2.5,2.5-4-2-3,2.5,1,1.5-.5,1.5-2,1.5v2l6,6.5v2l-.5,1.5,2,1.5-2,2,.5,2.5-1,3.5v2.5l3,1.5-.5,1.5,4,5.5,5.5-2,9.5,8.5v1l-.5,4.5,1,3.5-.5,1.5.5,1.5-1.5,2.5,2,2,.5,1.5-4.5,2,2.5,4v3l-2,2,.5,2.5,4.5-2,9,1.5,1,2-2,2-3.5,5.5-4.5,2,1,3.5-1.5.5-.5,3-3,1.5-1.5-1.5-3.5,1,18,22.5,1,3,1.5,2-3,4,.5,1-1,3-3.5,3,5,6.5-3.5,5.5-2.5,1-.5,7h-3.5l-1,2.5h-5l-7,2-2.5,2.5,5.5,3v1l.5,3,1,1-.5,1.5,1.5,4-1.5.5,2.5,2,2-1,1,1.5-12,16.5-.5,5.5-1.5,1.5-1,3-13.5,16,14,19.5-1.5,4.5,1.5,5.5-2.5,1.5-1.5,10-11,3.5-2.5,8,.5,5.5,1,3.5-6.5,5,9,4.5,2.5,4,3.5-6.5,2-4.5,7-.5,1,1-.5,1,.5,1.5-.5,1.5,1,4,2.5,2.5,4-1v-1.5h2v-1l2-1.5.5-1.5,1,.5,1.5-1.5,1.5,2h3v1l-.5,1.5,1,2.5,1.5.5,1,2.5-1.5,3-.5,5.5-4.5,1-3,2.5-.5,4.5-1.5,1.5-2.5-.5-.5,1.5-13,8.5-4-.5-2.5,1.5-.5,1.5-.5,3-3,7.5-9-1-3-1.5-22.5-3-7,2-3.5-1-9.5,3.5-1.5,1.5-5.5-9-13.5-12-6-8.5-1.5-11.5h1v-1l1.5-2-3-.5-1,1-5-2-.5-1,.5-1.5v-.5l-3-2.5.5-1.5-3.5-1-.5-1,.5-1.5-3-5.5-3-.5-2-1.5-4-.5-4.5-3-6.5-1-2,1-4,.5h-.5l1-2-1-1.5,1.5.5v-1l-4-1.5-1,.5v1.5l-1,1-2-1-3,4h2l.5,2.5-3-.5-1.5-2.5h-1l.5,2,4,1v2.5l6.5-4,1.5.5,1-1.5-.5-.5,4-.5,2-1,6.5,1,4.5,3,6,2,3,.5,3,5.5-.5,1.5,1,1.5,2.5.5v1.5l3,2.5-.5,2,.5,1,4,1.5-2.5.5-5-4.5-11,4-1.5-5-8.5-5.5-1.5-3-3.5-1.5-5.5.5-9-2.5-4.5,2-3-1.5-5,2-12.5-3.5-6-11-22.5-6.5-3.5-4-1.5-8-4-4,1-1-1.5-2.5"/>
      <path data-code="shuryshkarskij_rajon" data-title="shuryshkarskij rajon" class="cls-1" d="M13.62,448.49l4.5-.5,3,.5,1.5-1.5,6.5-.5,1.5-1.5,1,1.5,1-1,2,.5,1,1.5.5-1,3.5.5,1-1-1.5-1.5,2.5-2,2.5-1-2-3.5,2-1,1.5-2.5,3.5-1.5-.5-1,1,.5v-1l1.5-1.5.5-1.5,4-2,1-1.5,1-.5,3,4,1.5-1.5-1-4,1-2.5h1.5v-.5l1-.5,2-3.5,3-1.5v-.5l.5-.5,2.5,1.5,4.5-3,5,1,1.5-1,1-2h2.5l2.5-2.5,7.5,2,.5-1h1.5v-.5l1-.5v-1l2.5-1,3.5,2,.5-1-.5-1.5,1.5-.5,1-2.5,3,1h1.5v-1.5l3.5,1,3.5-1h2.5l-1,3,.5,2v2l.5,2,2,2.5.5,2-2,1.5,2,1v2.5l1.5,3.5-4.5,1v1l1,1,.5,3.5,4.5,4,.5,2,2,2.5-.5,1h2.5l1,2,2-1.5,1,.5.5,3,1.5,1-.5,1.5.5,1.5,3,2.5-.5,5h-3.5l-6,9.5,9,7.5,4,4.5.5,2.5,2,2.5,7,6-1,5-1,1-.5,1,2.5,1.5,1,4.5,6.5,1.5-1,1.5,1.5,2.5,2.5.5-.5,2-1,1-1,1.5v3l-.5.5v1l.5,3-4-.5v3l1,.5,1.5,5,4.5,4v2l2,1,.5,2,5.5-2,.5.5h1.5l6.5,5-.5,2.5-3,4.5.5,3-2.5,3-2,.5-.5,2,2,2.5,1.5,4.5-1,2.5,2.5,3-3,1-.5,4-2.5,4-2,1-1,3-4.5-1.5.5,3.5,3,7.5,4,1.5,2.5,3.5,2,.5,2.5,10,2,2-5,3-.5,2.5-1,.5-4-1.5-4.5-5.5-3.5-1-8,3.5-1.5,2-2,.5-6.5,1-.5,1.5-6,3.5-2-4.5-3-.5-1-2-2.5.5-2-2-3,.5-.5-1,1.5-1.5-3-2,1.5-2-2-.5-3-3.5h-2v-1.5l-2.5-1.5,2-5-.5-.5,1.5-2v-1l2.5-1.5,1.5-2,1.5-1,1-1.5-1-1.5,1-.5.5-3-6.5-4.5-8-.5-5.5-6.5-6-1.5-2.5,1.5-16-5.5-7.5,4-5.5-2h-8.5l-3-2-5,3.5-13-3.5-3,1-2.5,2.5-9-2v-1.5l-2.5-1-1.5-3.5,3.5-1,1-6.5-2-1.5-3-5-5.5-2-5,2-1.5-3.5-3.5-.5-3-5.5,3-4v-1.5l5-1,3.5-3,1-2.5.5-.5,1-3.5-2.5-3.5,2-3.5h1l5-7,3.5-9.5,3.5-6-10.5-7v-7l3.5-4.5-2.5-3,1-3.5v-3.5l-2.5-1.5.5-1.5-1.5-3.5-1.5-2"/>
      <path data-code="tazovskij_rajon" data-title="tazovskij rajon" class="cls-1" d="M460.12,9.99h.5-.5M521.62,28.49v-.5l.5,1h-.5v-.5M533.12,35.99v2h-.5l.5-.5-.5-2-2.5-2.5-10-6,8.5,4.5,1.5,1,1,1.5,1.5,1,.5,1M508.12,27.99l1.5-2.5-1-.5-4,2.5-2.5,3.5-.5,1.5.5,1-.5-.5v-2l.5-1,1.5-1.5,1.5-1.5,1.5-1,1-.5,1.5-.5h5l3.5,1h2v.5l-7-1,.5,1h.5v1l1,3.5v.5h-4l-3-1h1.5l-1-1.5v-1M533.12,38.99h.5-.5M513.12,47.99v.5-.5M511.62,50.99l.5,1-.5-.5v-1.5l.5-1-.5,2M528.12,56.49l-8.5-2-3-2.5-1-2.5,2.5-.5,8.5,3.5-.5-1,1.5,1.5.5,1.5v2M478.12,64.99l.5.5-2,.5-7.5-9-2.5-4.5,2-3.5,1.5-1.5,4.5-1.5,6.5,3,1.5,1,2,2,1,1,.5,1-3-3.5h-1l-1.5,2v1.5l-.5,2-2,2.5v1.5l-.5,1,1.5,2.5h-1.5l.5,1.5M481.62,64.49h.5v.5l-.5-.5M479.62,64.99l.5-.5,1,1h-1l-.5-.5M495.12,93.99h.5v.5l-.5-.5M525.12,116.49h-2.5l1.5,1-1-.5-2.5-3,2.5-3.5,7.5-3.5,5-6.5,6.5-3.5,13.5,5.5,2.5,4v3.5h-3l-1,2-2.5,1.5h-2.5l-3.5,1.5-.5,2-1.5,1-.5,1.5-3.5-1.5-1.5.5-13-2M529.62,120.49h1-3,2M523.62,118.99l.5,1-1.5-.5v-.5h1M520.12,120.49h.5l.5-1.5.5,2.5-1.5.5.5,1.5-.5-3M560.12,116.99l-2,2,1.5,2.5,2.5,1.5-.5,2,1,1-1.5.5,1,1.5-2.5.5,2,1-.5,1v.5l3,.5-1,1.5,1-.5v1.5l3,1-.5.5v1l2-.5v2l1.5-.5v.5h-1l1,1v1.5l.5-1,1,.5v1l2-1,2,1-.5.5,2,.5v1l1-.5-.5,1.5,3-.5.5,1,3.5-1,3,1.5-.5,1,2.5,1-1,1.5.5,1.5.5-.5v-1l3.5,1.5-.5,1h1l.5,1-1,.5,1.5.5,1,1.5h.5l-.5-1,2,.5v1h-.5l.5.5-1,.5,3,2.5-1,1-1-1v1l-1,.5-.5-.5,1-.5-2,.5-.5-1-.5.5.5.5-1,1-2-.5.5,1-1.5-.5,1,.5-1,.5.5.5-.5.5,2,.5-1,.5h.5v1.5l.5,1h-2l1.5,1.5-1,.5h1l-.5,1,.5.5-1,.5,1.5,1-3.5,2.5-1-1,.5.5h-.5v1l-1.5.5.5.5-.5,1-1.5-1-2.5,2-2.5-2.5-4-.5-1,.5-2.5-1.5-2,1-.5,1.5,1,3-2,4.5-5.5,4.5.5,4,.5,1.5,5,2,12,14.5,13.5,7.5-.5,15,1.5,2-.5.5v1l-2,3.5-.5,1.5v1l.5,1v.5l2,1,1,2.5-.5,1v.5l-.5-.5v2l-1,1v.5l-1-.5.5,1-1,.5,1,.5-1,1v1l-2.5,1.5,1.5,1v1.5l.5,1.5h2l-.5,1h.5l1-1,1,.5-1.5,1.5h-1.5l1,1-.5,1h-2l-2.5-2,1.5-1-1.5-3-5-1-1.5.5-1,1.5-2.5-1-.5,3-1.5,1-1.5-1.5-.5,1,1,1-.5,1.5-3,.5-3.5,4-2-1.5h-1.5l-1,1,1,2-3-.5-1,3-3.5,4.5-3.5-1.5,1.5-.5-.5-1h-2.5l-.5,1,.5,2-1,1,1,1.5v2l-1-.5v-1l-3-.5-.5,2,.5,1.5-1.5-1-2,1.5,1.5-.5-.5,1,1,1.5h-1l-.5.5.5,1-1.5,1-1.5-.5-.5,2-2,1h-2.5l.5,1v1l3,2-1.5,1.5,3,2-1.5,1.5v1l2,1-3.5,1.5-.5,1,1.5-.5.5,1.5,4,.5.5,2.5h1.5l.5,1,2-.5-.5,1.5,1.5,1-2,1,2.5,1.5v2l.5,1-.5,1,1,2-1.5,1.5,1.5,1-1,1,2,1.5-1,1,3.5.5-1,2,2,2.5h-1v1l2-.5,1,1.5.5-1h2l1,1,1.5-1-.5,1.5,3.5-1,2.5,3.5h2v1l1.5-.5,1,1.5.5-1,2,1.5,3.5-.5v3.5l1.5.5.5,2,1.5.5h-1l.5.5v1.5l1,.5,5-2,1.5.5,1-1.5,3-1.5,2.5,3,4-1,3-2.5-1.5-1.5,1-2.5.5-3,2-2.5,2.5,2,3,6-.5,2-4.5,4-.5,1,1,3,4.5,1,3,3,3,.5,2-1,1.5.5,2,1.5-1,2.5,1.5.5-1.5,1,.5,1h-3l-1.5,1.5.5,2,2,1,1.5,3.5.5,5v5.5l5.5,5,1,5.5v1.5l-1,1.5-4,1-2,2-.5,3,1,5v5.5l-1.5,4.5-2,3.5-2,1-1.5,4,.5,2.5-6.5,3v1.5l.5,1.5-.5,3.5.5,3.5-1.5,2-8-1-2.5-1.5-4,1.5-1.5-1.5-2,3.5,1.5,1-.5,1.5,2.5,4.5h-.5v1h1.5l-.5,1,1.5,1-.5.5,1,1,.5-.5.5,1,1,.5h-.5v1h1l-1,1,.5,1-1,.5,1.5-.5v1l-1.5.5v1l-.5-.5-.5,1,2,2.5-.5.5h.5v.5l1.5.5v2h1.5l-.5.5.5.5.5,1.5,1-1.5-.5,1.5,2.5-1-1,2h1.5l-.5,1,.5,1-2,.5,1.5,1.5-1.5-.5h-.5l.5,1-1.5-.5.5,1.5-1-.5v1h-1l1,1-1.5.5.5.5v1l-.5.5,1,.5-.5.5.5.5,1.5.5h-1.5v1.5l1.5-.5-.5,1,.5,1-4,.5v1.5l1.5.5-1.5.5-1-1.5v2.5h-2.5v2l16,19-2.5.5-1.5-1-2.5,1-5-2-1.5.5.5,1h-.5l-1.5-1v1.5h-1l-2.5-1h-2v1l-1.5-.5-1,1.5.5,1v.5h-2.5l-1.5,1.5-1.5-2h-4l-2,2.5-1,3,.5,4,2.5,1.5-1.5,1v2l-1.5,2,1,.5-.5,1.5,1-.5.5,2-1.5,1.5.5.5-3,2.5.5.5-1,1-1,.5-2,2.5-3.5,1-1,1.5h-6.5l-1.5-1-3,1-8-4-4.5-1h-4.5l-1.5.5-1.5-1.5h-3.5l-1-2.5.5-1.5-1-.5-1,2-2.5,1-.5,2h-2.5l-1,2-2,.5-1-2-9-1.5-4.5,2-.5-2.5,2-2v-3l-2.5-4,4.5-2-.5-1.5-2-2,1.5-2.5-.5-1.5.5-1.5-1-3.5.5-4.5v-1l-9.5-8.5-5.5,2-4-5.5.5-1.5-3-1.5v-2.5l1-3.5-.5-2.5,2-2-2-1.5.5-1.5v-2l-6-6.5v-2l2-1.5.5-1.5-1-1.5,3-2.5,4,2,2.5-2.5,3-1,.5-1.5-.5-1.5-3-.5-2-4.5,1-2,1.5,2.5,4,.5.5-1.5,1-.5,7.5.5.5-.5v-1h1.5l-1-1.5,1.5-.5-4-1.5-.5.5-.5,2.5-1.5.5,1.5-1,.5-2-.5-2-.5-.5-.5-3-1.5-.5v-1.5l-1.5.5-2.5-2v-1.5l1.5.5-1.5-4.5h-2.5v1l1,1.5-1.5,1.5h-2v2l1,.5h-2l-1,3-5.5-3-3.5,2,4.5-2.5-4-2-.5-2-4,2-.5-1-2-.5-1.5-3,1-2.5v-1.5l.5-3-.5.5.5-2,2-2,1.5,1,1-1-.5-1-.5.5-1.5-1-.5-2.5,2-3.5v-4l1.5-2.5,6.5-5,7.5.5,4.5-1-2-5,1-1.5v-.5l-3-3-.5-2,.5-2-1.5-2,2.5-.5.5-2-1.5-1.5h-2.5l-.5-1,1-2.5-1.5-3.5v-2l1.5-.5.5-2,.5-6-1-2,1.5-6-.5-1-2.5-2-5-1.5-3-5-7-3.5-2-2.5v-3.5l-1.5-3.5-2.5-1-.5.5v.5l-5-1.5-1.5-3-7-7-6.5-.5-4.5-2.5-3-.5-4.5,2-1.5,1.5-3.5,1-1.5,1-.5,1.5v1h-9.5l-1-.5-3.5-4-5.5-2-4-.5-5,2.5-3.5-.5-1-1-1-6.5v-1l1.5-3,5-8.5.5-2.5v-7.5l-1.5-4.5-1.5-3.5-1-10,1.5-3.5,3.5-2,1-4.5,3-3.5v-2.5l1.5-2,1-3.5-.5-2-1.5-1.5,4.5-5,8-6.5,3-4,3.5-2.5,3.5-6.5,1-5.5v-3l-.5-4-5-11-.5-3.5,2-3.5v-1l-3-6-1-4.5.5-4.5-.5-4-4-8.5-6.5-6-.5-2,3-3.5,9-6,3.5-4,1.5-2,1-3v-1.5l-1-2.5,2-2,8-3.5,22.5-6,6-3,4.5-5,3-5.5,2-8,1-5.5.5-10v-5l-.5-5-2-6,6.5-3,8.5,10.5.5,1.5-2,1.5-1-1.5-1.5,2,5,10,.5,3-2.5-.5-1,.5-.5,1.5v3.5l.5,2-1,3,1.5,5,1,1.5-.5,3h-.5l.5,1v2h-1l-.5-1,.5-.5-1-1-2,.5-2,4-2.5,6-2.5,3.5.5,2-.5.5-1.5,2-2.5-.5-1,2,.5,1.5-2,3-1,4.5.5,2-.5,1.5,4,7-2,3-.5,1.5,1.5,4.5-2.5,1.5-1,3-.5.5-1.5-1.5-3,1.5.5,1.5-.5,1,.5,4.5,2.5,3,3.5,2,4,4,7,4,1-1,4,2,8.5,2,5.5,2,1.5.5-.5,1,.5.5,2.5-1,4.5,2.5,5.5.5,8,4,1.5,2,.5,3-.5,5h1l-1,.5v1.5l10,5,1,2.5h1.5l-1-1.5.5-2.5,1.5-1.5.5-3,1-.5-2.5-.5-2.5-4v-4h1.5-1.5l1-1,1-2.5,1-3-.5-.5-6.5-3.5-2.5,2v-4l1.5-1.5-.5-1.5h-1.5l1,.5-.5.5h-3.5l-2,1.5,1,1.5-8-4-4-4.5-.5-3.5-1.5-1.5-3-.5-5-4-2-1.5-1-3-5.5-5-1-3,1.5-2.5v-1.5l-2-3.5v-4l.5-3-.5-4,.5-1-2-1,4.5-2,6-4,8-1.5h5.5l1.5,1.5v1h-.5l7,8.5,4.5,7.5,5.5,2.5,5.5-1.5,5-2.5,2-2.5.5-2-.5-4-2-4.5-1.5-2-6.5-.5-5.5,1.5-2-1-.5-2.5,4-4.5v-1.5l-1.5-1h2.5l1.5,1.5,1,.5,2.5-1,.5-2,2.5-2,1.5-2,4-1-1-1h.5l1.5.5.5-1,2.5,1.5,4.5-2,2.5,1.5M480.12,60.99l.5-.5,1,.5h-1.5M471.62,418.99l-1.5,2-2-.5-6.5,2-4-2-4,2.5-3-.5-6.5-5.5-1-8.5-1.5-2.5-1.5,1-4.5-1.5-6-4.5v-4l1-.5v-1l-5-4-1-5.5v-2l2.5-5.5,1-3-1.5-3.5,1.5-1.5-.5-1.5v-1.5l.5-2-1-1.5,4.5-2.5,3,1,1,1.5-.5,2v1.5l6,4,5.5,2v-2.5h3l.5-4,1-1,.5,1.5,2.5-3,1-.5v-1.5l1-1.5h1l1-2v-2l-2,.5.5-1.5-3.5-2v-1.5l-1.5-1,1-1.5-1.5-.5v-2h-1l1-1.5-4.5-2.5-.5.5-1-1.5v-2l12.5-1,8,1.5,2,1.5.5,1.5-.5.5.5,1.5,1,5-3.5,4.5.5,2.5,7.5,9.5,1,3.5,3.5,2.5.5,3.5,2,3-3,.5-.5,3,1,2.5v1.5l-1.5.5-1,2-2,.5-.5,1.5-1,1,1,2,4,2.5-2,2.5v2.5l-3.5,3v4.5l-1.5,3,.5,1-1,1.5,2,3.5"/>
    </g>
</svg>