<svg data-code="RU-YAR" xmlns="http://www.w3.org/2000/svg" viewBox="0 0 155.19 153.16">
    <g data-code="jaroslavskaja_oblast_" data-title="jaroslavskaja_oblast&amp;apos;">
      <path data-code="bol_shesel_skij_rajon" data-title="bol&amp;apos;shesel&amp;apos;skij_rajon" class="cls-2" d="M52.06,67.62l3.5-.5v-1l5-1.5.5-2.14,3.5.5v3l2.5,1.5-.5.5,1.5,1.5-1,.5,4,2h.5l.5-1h1.5l.5,1.5-1,.5,1,1,1.5-1,.5,2.5-1,.5v3l2,1,1.5,3.5-1,2h-1.5l-1.5,1,.5,1-3,.64h-1.5l-1-2.5-.5,1h-1l-.5,2h-1l1,1-1,.5v1l-7.5-5-3,1.5-4-1,.5,2-1-.5v-1.5l-.5,1-.5-1.5h.5l1,.5-.1-1.7-1.4-.93-1.5-3,1.5-.5,1.5-3.5,1,.5v-1l1-.5-1-1,.5-2.36-2.5-2.5,1-.5,1-1.5-1-.5"/>
      <path data-code="borisoglebskij_rajon" data-title="borisoglebskij rajon" class="cls-2" d="M29.06,103.12l1.5-1-.5,1.5.5.5,1-1-.5-2,1-1,.5-.5.5-1,.5.5,1.5-2,.5.5-.5-1,1-.5,1,1,1.5-1.5,1,1,2-1,.5-1-1.5-1.5,1.5-1.5-.5-1,.5-1,.5.5,1.5-2,3,2.5.5-.5-1-1,1.5-.5v-1h1v-1.5h1.5l.5,1.5.5-1v1.5l1,.5-.5-2,4,1,3-1.5,6,4-.5,1.5-2,2,1.5,1-1.5,1-.5,1,2,1.5v2l-.5,1-1-.5-.5,1-.5.5.5,1-2,2-1,3-.5-1h-2.5l-1.5,1.5v1h-2.5l.5,2-1.5-2-.5,1.5-2,.5-1,1.5h-3l-2.5-2-1,2-1.5-.5-3,3.5-2.5-5.5h-1l-1,1.5-2.5-1-.5-2,.5-2-1.5-1.5,1-.5-1-.5,1-1.5"/>
      <path data-code="brejtovskij_rajon" data-title="brejtovskij rajon" class="cls-2" d="M37.06,14.62l2,.5.5-1.5,2,1,1-1.5-.5-1.5v-2l1.5-1,.5,1,1-.5.5-1.5,2.5,1,.5,2,1.5-1.5,3,1h.5l1-1.5.5,1,.5-3,3.5-1,2-1v-1.5l2.5-2.5,3.5,2,1.5,2.5,2-1.5h2v-1.5l2.5,1-.5-2,2.5.5-2,8.86-5.5,6-7.21,19h-1.29l-1.5,1.5.5-2-.5-.5-1,1-1-.5-.5.5-1,.5.5-2-4.5-1-.5,1.5-1-.5-.5,1-1.5.5-2.5-3.5-2-1-1,1h1l-1.5,1-.41-1.66-1.59-1.21-.5-3,1-.5-1-1,1-1.5-1.5-1.5.5-1.5h-1.5l-1.5-3.5,1-1-1.5-1,.5-1"/>
      <path data-code="danilovskij_rajon__jaroslavskaja_oblast_" data-title="danilovskij_rajon_(jaroslavskaja_oblast&amp;apos;)" class="cls-2" d="M99.06,59.62l2.5,1,5.5-1,1.5-1.5-.5-1.5h1l3-2.64,1.5,1,1.5,1.5-1,1.14v1.5l1.5,4.5,2.5,1.5,1-.5,2.5,3,2,.5,1.5,3.5,1.5.5-.5,1,1,1.5-1,1.5.5.5h-1l.5,1-1,1,1.5,1.5-1,.5v1.5l-1.5.5.5,1-2.5,1,.5,1-1,.5-.5,1.5,1.5,3.5-1.5,1.5v.5l2,2.5-1,1.5-5,2.5-2-3.5-1,1-1.5-.5-1,1-1.5-1.5v-1.5h-.5v1h-.5l-2-2.5-5-1.5v-2h-.5l.5-1.5h.5l.5-.5-1-2-1.5,1-2.5-3.14c.98-.86,1.99-1.68,3-2.5l-2-3,2-1-.5-1,1-.5.5-1-1.5-4h-1v-1l1-1.5-4.5-3.36v-.64l1.5-1,1-1.5-.73-.91,1.23-.96Z"/>
      <path data-code="gavrilov-jamskij_rajon" data-title="gavrilov-jamskij rajon" class="cls-2" d="M61.56,102.12l.5-.5.5-1h1l.5-1.5,1-1,2,.5-2,2.5,2.5.5,1,1.5,1-1,1.5,1.5,1.5,2-1,.5.5,2-.5.5h1v1.5h1l.5-1,4,1,.5,1h1.5l-.5.5,1.5,1.5-.5,2,.5,3,1.5.5,1-1v3l-3.5-1,2,3.5,1-.5-.42-1,2.42.86,1.5,1.5,2.5.5-.5,1.5-1,1,2,3.5-.5.14-.5,1.5-2,.5-1.5-3-5-1,1,2-1.5.5-.5-1-.5.5-.5,1.5h-2l-2.5-3.5-1,.5h-3.5l-2.5-2-1.5-4,.5-2-1-1.5,1-2,.5.5,1-.5-.5-1,1.5-1.5v-2l-3.5-2v-1l1.5-1.64v-1l-4-2.5-.5-2.86"/>
      <path data-code="gorodskoj_okrug_jaroslavl_" data-title="gorodskoj_okrug_jaroslavl&amp;apos;" class="cls-2" d="M85.56,92.12l1.5.5,1.5-2,.5.5-.5,3-.5-.5v1l-.5.5v2.5h1l1,4h-1v1l-1.5.5,1.5.5-.5,1-2-.5v4.5l-2-.5-.5-3.5-1-1-3.5,1.5-.5-1,.5-.5-1-.5,4-1.5.5-1.5h.5v-.5l-.5-1,1-.5,1-3.5,1-.5v-2"/>
      <path data-code="jaroslavskij_rajon" data-title="jaroslavskij rajon" class="cls-2" d="M85.56,92.12v2l-1,.5-1,3.5-1,.5.5,1v.5h-.5l-.5,1.5-4,1.5,1,.5-.5.5.5,1,3.5-1.5,1,1,.5,3.5,2,.5v-4.5l2,.5.5-1-1.5-.5,1.5-.5v-1h1l-1-4h-1v-2.5l.5-.5v-1l.5.5.5-3-.5-.5-1.5,2-1.5-.5M65.06,90.12l1.5,1v-1l1-.5-1-1h1l.5-2h1l.5-1,1,2.5h1.5l3.5,3.36,1-1h1.5l1-1,1,.64,1.5-.88.5,1.24,2-2,4,.5,1-1.5,4.5,2,.5-1v-.5h1.5l2-1.5.5-3,2.5,3.14,1.5-1,1,2-.5.5h-.5l-.5,1.5h.5v2l3.54,1.06-.54,2.94-1.5.5,1,2-1,.5v.5l-1.5,1-5-3.5-.5,2-1.5.5v1.5l-1,1,1.5,1.5-1,1.5-2,2.5h.5l-1,.5,3,1,.5,1.5h-1v1.5l4.5.5v3-1l-.5,2v-1h-2.5l.5-2-3.5-1-2,2.5-1-.5v1l-1,.5,1,1-1.5-.5.5,1-1.5.5v2l-1-1-1,2v-1.5l-2-1.5-1,1-1.5-.5-.5-3,.5-2-1.5-1.5.5-.5h-1.5l-.5-1-4-1-.5,1h-1v-1.5h-1l.5-.5-.5-2,1-.5-1.5-2-1.5-1.5-1,1-1-1.5h-1.5l-1-.5,2-2.5-2-.5-1,1-2-2.5.5-1,1.5-1-1.5-1,2-2,.5-1.5Z"/>
      <path data-code="ljubimskij_rajon" data-title="ljubimskij rajon" class="cls-2" d="M126.56,72.12l.5.5,1-1.64,2-.36.5-1,1.5.86,2-.5-.5-1,.5-1.5-.5-.5,1-1.5h-1.5v-2h1l.5-1.5,1-.5,1.5-.5,2.5,1.5-1-1.5,3-1.36,5.5,1,3.5,3v1.5h2l-.5,1,1,.5,1.5,3.5-.5,3-1,1,1,.5v2h-2.5l1.5,6h-1.5v3l-4.5,1-2-1-3,1.5-1,1-.5-.5-1,2-1.5-1.5-1.5,1-2.5,4-1-1-2.5,2.5-2-1-1,1.5,1,2-2.5,1-3-1.5-2-3.5v-.5l1.5-1.5-1.5-3.5.5-1.5,1-.5-.5-1,2.5-1-.5-1,1.5-.5v-1.5l1-.5-1.5-1.5,1-1-.5-1h1l-.5-.5,1-1.5-1-1.5.5-1Z"/>
      <path data-code="myshkinskij_rajon" data-title="myshkinskij rajon" class="cls-2" d="M22.06,53.62l1.5-1,1.5.86.5-1.5h1l1.5,1,1-1-.5,1,1,1.5,2.5-.5-1-1.5,1-1.5,4.5,3.5,1.5-2h1.5v-.5l1.5-.5h1l-.5,1v.5l1.5-1,5.5,3.5-.5-1,1-.5h1.5v-1l1,.5-.5-2,1-.5,2.5,2.5h2.5v3l-1.5,2,1,1.64.5,5.5-1.5.5v1l-3.5.5,1,.5-1,1.5-1,.5h-3v-1l-3.5-1-1.5.5-2.5-1-2-5.5-1.5.5-.5,1.5-1-1-2.5.5-4-3.5-2.5,1.36-1-1.86-2.5-1.5.5-3-1.5-1.5"/>
      <path data-code="nekouzskij_rajon" data-title="nekouzskij rajon" class="cls-2" d="M22.56,34.99l1.5-.5.5,1,1.5-.5,1,2h1l-2-1.5v-1.5l1-.5-1-1.5,1.5-2.5,3,4v-.5l2,.5v-2.5l1.5-1,3.5.5.5-1,1.5,2,1.5.5v-.5l1-.5.5,2,1.5-1h-1l1-1,2,1,2.5,3.5,1.5-.5.5-1,1,.5.5-1.5,4.5,1-.5,2,1-.5.5-.5,1,.5,1-1,.5.5-.5,2,1-1,.5-.5h1.5l-.5,1-1,1.5.5.5-4.5,6.5,2,5-2,3.5h-2.5l-2.5-2.5-1,.5.5,2-1-.5v1l-1.5.5v-.5l-1,.5.5,1-5.5-3.5-1.5,1v-.5l.5-1h-1l-1.5.5v.5h-1.5l-1.5,2-4.5-3.5-1,1.5,1,1.5-2.5.5-1-1.5.5-1-1,1-1.5-1h-1l-.5,1.5-1-.5-1-.5,1-.5-1-4,1-1.5-1-2v-1.5l1-.5-3-3,1-1,2.5-.5-2-3"/>
      <path data-code="nekrasovskij_rajon" data-title="nekrasovskij rajon" class="cls-2" d="M80.06,119.62l3.5,1v-3l2,1.5v1.36l1-1.86,1,1v-2l1.5-.5-.5-1,1.5.5-1-1,1-.5v-1l1,.5,2-2.5,3.5,1-.5,2h2.5v1l.5-2v-2l-4.5-.5v-1.5h1l-.5-1.5-3-1,1-.5h-.5l2.37-3.05.13-1.08-1-1.36,1-1v-1.5l1.5-.5.5-2,5,3.5,1.5-1v-.5l1-.5-1-2,1.5-.5.54-2.94,1.46.44,2,2.5.5-.14v-.86h.5v1.5l1.5,1.5,1-1,1.5.5,1-1,2,3.5v3.36l-1.5.5v2l-1,1-1.5.5.5,2-1.5,2,.5.5-1.5,1.5.5,3-1.5,1-.5,1-4.5,2-.5-1,1-1-.5-.5h-1.5l-1-1.5-.5.5-.5,1-2-1-1,1.5.5,2.5-1.5-.5-.5-1-1.5.5.5,1-.5,1-1,.5.5,1h-1l.5.5-.5,1-1,1-1.5-.5,1,2-2,1.5-1,2-2-3.5,1-1,.5-1.5-2.5-.5-1.5-1.5-2.42-.86.42,1-1,.5-2-3.5"/>
      <path data-code="pereslavl_-zalesskij" data-title="pereslavl&amp;apos;-zalesskij" class="cls-2" d="M17.06,131.99l2.5-.5,1-1.5-.5,1.5h2.5l-.5,1h-1l.5,1-1.5-.5-2.5.5-.5-1.5"/>
      <path data-code="pereslavskij_rajon" data-title="pereslavskij rajon" class="cls-1" d="M17.06,131.99l2.5-.5,1-1.5-.5,1.5h2.5l-.5,1h-1l.5,1-1.5-.5-2.5.5-.5-1.5ZM19.06,98.99h2l-.5,1,1-.5v1h-1v1l1,.5.5,2,.5-1.5h2.5v-1l1.5-.5,1,1v2l1.4-.63-.9,1.27,1,.5-1,.5,1.5,1.5-.5,2,.5,1.86-1,.5-1,2,1,2.5,1.5.5.5,1.5h1.5l-1,3,1.5,1.5v1.5l2.5,1-1.5,1.5,2,3-.5,2-.5.5,1,1.5h-2l1,2-1,.5v2l2,2-.5,1-.76.7-.44,2.18-.81.41v1.09s-2.29.17-2.29.17l-2.75,4.58-1.15,1.24-.3-.74-.96.88-1.74.87-1.5-2v-2.12l-7.5-1.88-2-4,1-.5-.38-.76.33-.74-1.95-1v-1.25l-1.3,1.51-.61-1.8-1.09.55-2-2-3.1,1.77.8-4.16,1.3-.61-1-1.5.5-2-1.33-1.33.09-1.48.04-.99,1.2-.7-.5-.5h-1l-.03,1.74-2.94-1.48,1.19-1.9,1.28-.85,1-2.5-.5-3.5,1-2-1.33-.76-.5-.69-1.67-.55,2-1-.9-1.69.61-.78,3.48.44.85-2.3,1.24-.52-1.28-2.15,1.5-.5,2,1,1-.5,1-1.5,1.5-.5,1-2-.73-.57,1.73-.43.5-1-.5-1.5.4-.79,1.8.91.5,2Z"/>
      <path data-code="pervomajskij_rajon__jaroslavskaja_oblast_" data-title="pervomajskij_rajon_(jaroslavskaja_oblast&amp;apos;)" class="cls-2" d="M111.06,32.49l1-1h1l-.5-.5,1-1,6.5-2.5,2,1.5,4-1,1,2.5,2-1.5,2,.5-1.5,6.5,3,1.5-.5,1.5,1.5.5-1.5,2.5-.5,1.5.5.5-1,1,1.5,1,.5,1.5-.5,1h-2.5l-.5,1,1.5,2.5v2.5l2,1,.5,1.5,2-.5,1.5,3,2.5,1-1,.5,1,1.5-2.5-1.5-.5,2-1-1.5-.5,1-.5-.5-.5,1.5h-1v2h1.5l-1,1.5.5.5-.5,1.5.5,1-2,.5-1.5-.5-.5,1h-2l-1,2-2-1-1.5-4h-2.5l-2-3-1,.5-2.5-1.5-1.5-4.5v-1.86l1-1.14-1.5-1.5-1.5-1-1.13.99h-1.87s0-.99,0-.99l.5-.5-1.5-1.5,1.5-1-1.5.5-1-1.5,2-.5.5-1,3-3.5-2.5-2.5-.5-3-1,.5-.5-1.5,1.5-1-1-1.5h1.5v-2.5l2,1.5-1-2.5"/>
      <path data-code="poshekhonskij_rajon" data-title="poshekhonskij rajon" class="cls-2" d="M77.06,1.49l10.5,7.5,1,3,4-1.5.5-1,.5-.5,2,3-.5,2.5h1v-1.5l1,.5,5,5,1.5-2.5,1.5-.5v-1l5-.5-1.5-4.5,1-.5,1.5-2h2l.5,1h-.5l-.5,1.5,4,.5,1.5,3.5-.5,2h1l.5-1,2.5,1-.5.5,1,1-1,1v1l2.5-.5v1.5l-.5.5,3,2.5,2-1,.57,7.32-1.57,1.18-1-2.5-4,1-3-1-5.5,2-1,1,.5.5h-1l-1,1,1,2.5-2-1.5v2.5h-1.5l1,1.5-1.5,1,.39,1.18,1.11-.18.5,3,2.5,2.5-3,3.5-.5,1-2,.5,1,1.5,1.5-.5-1.31,1.19,1.31,1.31-.5.5v1h1.87s-1.87,1.64-1.87,1.64h-1l.5,1.5-1.5,1.5-5.5,1-2.5-1-1.23.96-1.27-1.59-1.82.09,1.32-3.09-5.5.5-.5-1,2.5-1-.5-1.5h.5l-.5-1h.5v-1.5l-.5-.5-1.5,1-1-1.5,1-1-1-1.5.5-3.5-1-.5.5,1.5-1.5-1,1-.5-.5-4.5-21.62-15.1,2.62-6.9,5.5-6,2-9"/>
      <path data-code="rostovskij_rajon" data-title="rostovskij rajon" class="cls-2" d="M28.56,111.49l1-.5,2.5,1,1-1.5,1,.14,2.5,5.36,3-3.36,1.5.5,1-2.14,2.81,2.14h2.5l1.19-1.5,2-.5.5-1.5,1.5,2-.5-2h2.5v-1l1.5-1.5h2.5l.5,1,1-3,1.75-1.75.25,1.61,4,2.5v1l-1.5,1.64v1l3.5,2v2l-1.4,1.4.4,1.1-1,.5-.5-.5-1,2,1,1.5-.5,2,1.5,4-1,1.36-.5-.5-1,1,.5,1.5-1,2-2-3h-.5l-.5,1.5-3.5-1.5.5-1h-1.5l-2.5,2-1-1h-2l.5,2h-.5l-1,2-1-1-1.5,1.5-3,.5v2.5l-1,.5-2-1.5v1l-2.5,1v1.5l-.5-.5-1,1.5.5,1-2.5-.5.5-1,.5.5h.5l.5-1.5-.31.92-.69.58-2.5-2.5v-2l1-.5-1-2h2l-1-1.5.5-.5.5-2-2-3,1.5-1.5-2.5-1v-1.5l-1.5-1.5,1-3h-1.5l-.5-1.5-1.5-.5-1-2.5,1-2"/>
      <path data-code="rybinsk" class="cls-2" d="M68.94,49.39h1.5l2.5,5,1.5-.5-1,1,1.5,3-1,1h1v2l-2.5-1v.5h-1l-.5-1,.5-.5-1.5-.5.5-1.5-1.5-2,.5-.5-.5-1,2-.5-.5-1h-1.5v-2.5"/>
      <path data-code="rybinskij_rajon__jaroslavskaja_oblast_" data-title="rybinskij_rajon_(jaroslavskaja_oblast&amp;apos;)" class="cls-2" d="M66.94,23.39l-4.59,12.1-1.29,2.5.5.5-4.5,6.5,2,5-2,3.5v3l-1.5,2,1,1.5.5,5.64,3.5-1,.5-2.14,3.5.5v3l2.5,1.5-.5.5,1.5,1.5-1,.5,4,2h.5l.5-1h1.5l.5,1.5-1,.5,1,1,1.5-1h4l.5-1.5,2,1v-2h1.5l1.5-1.5v-.5h2.5l.5-1h-.5v-1l-1-1,3.5-2.5,3.5-4,1.18.09,1.32-3.09-5.5.5-.5-1,2.5-1-.5-1.5h.5l-.5-1h.5v-1.5l-.5-.5-1.5,1-1-1.5,1-1-1-1.5.5-3.5-1-.5.5,1.5-1.5-1,1-.5-.5-4.5-21.62-15.1ZM68.94,49.39h1.5l2.5,5,1.5-.5-1,1,1.5,3-1,1h1v2l-2.5-1v.5h-1l-.5-1,.5-.5-1.5-.5.5-1.5-1.5-2,.5-.5-.5-1,2-.5-.5-1h-1.5v-2.5Z"/>
      <path data-code="tutaevskij_rajon" data-title="tutaevskij rajon" class="cls-2" d="M79.56,72.99l.5-1.5,2,1v-2h1.5l1.5-1.5v-.5h2.5l.5-1h-.5v-1l-1-1,2.5-3,1,.5,3.5-4h3l2,2.5-1,1.5-1.5,1v.5l4.5,3.5-1,1.5v1h1l1.5,4-.5,1-1,.5.5,1-2,1,2,3-3,2.5-.5,3-2,1.5h-1.5v.5l-.5,1-4.5-2-1,1.5-4-.5-2,2-.5-1-1.5.64-1-.64-1,1h-1.5l-1,1-3.5-3.36,3-.64-.5-1,1.5-1h1.5l1-2-1.5-3.5-2-1v-3l1-.5-.5-2.5h4Z"/>
      <path data-code="uglichskij_rajon" data-title="uglichskij rajon" class="cls-2" d="M20.06,66.49l2-1,.5-1.5h1.5v-.5l1-.5.5-3.36,1,1.86,2.5-1.36,4,3.5,2.5-.5,1,1,.5-1.5,1.5-.5,2,5.5,2.5,1,1.5-.5,3.5,1v1h3l2.5,2.5-.5,2.36,1,1-1,.5v1l-1-.5-1.5,3.5-1.5.5,1.5,3,1.5,1v1.64l-1-.5h-2v1.5h-1l-.02,1.24-1.48.26,1,1-.5.5-3.13-2.33-1.37,1.83-.5-.5-.5,1,.5,1-1.5,1.5,1.5,1.5-.5,1-2,1-1-1-1.5,1.86-1-1-1,.14.5,1-.5-.5-1.5,2-.5-.5-.5,1-1.5,1.5.5,2-1,1-.5-.5.5-1.5-1.72,1.33-1.28.54v-2l-1-1-1.5.5v1h-2.5l-.5,1.5-.5-2-1-.5v-1h1v-1l-1,.5.5-1h-2l-.5-2-2-1,1.5-1.5-1-1.5,2-3.5,6,1.5,2-2,2-4-4-2.5-1,.5-2-.5-1-2.5-1.5.5-1.5-6,.5-3.5-.5-1,2.5-.5-.5-3"/>
    </g>
</svg>