<svg id="RU-ZAB" data-name="Слой 2" xmlns="http://www.w3.org/2000/svg" viewBox="0 0 509.31 697.81">
      <path data-code="ZAB-AGM" d="m257.66,530.16h2.5v1.5l1.5,1,3.5-2.5-2.5-3-3.5.5-1.5,2.5m-28.5-2.5l1-3.5,3.5-3-.5-3,4-2v-4h2.5l1,2.5,2,1-.5-2,1-2,1.5,1.5,1,2.5-.5,1,1,.5-.5,2,7.5-1.5.5,2h1.5l5.5,5,1.5.5,3.5,3.5h2l2,2,1.5-.5-2-4v-1.5l2.5,3,6.5,2.5,3.5,5.5,1-.5,3.5,2.5.5,2.5,1.5,1.5,7,4,.5-1,6,10.5,1,3-2.5.5-2.5-1v1l-4.5,2.5-.5,2-1-1-2,1.5.5,1.5-1.5.5-1.5.5-1-1.5-1,2-1.5.5-1.5-.5-1.5,1-7,1v1.5l-3,3-4,.5-.5-1-.5,1h-2l-.5-2.5-1.5-2,.5-1.5-7-13-2,3h-1l-.5-4.5h-1l-.5-1.5-2,1-2-.5-.5,1-1-1-2.5,2-2.5-9.5-4.5-2-3.5-3,1-1.5v-6.5l1-1-4.5-3"/>
      <path data-code="ZAB-AKS" d="m185.66,620.66l.5-2.5-1-1.5,1-1.5-1-1.5.5-3-.5-1.5v-2l1.5-2,.5-2.5,1-.5-2-5v-3.5l1-4-.5-1.5,1.5-2h2.5l1-1,1-2.5-.5-3.5h-.5l1-2-1-.5,2-3,3,5,2.5-1,2,2,3-4,6.5,1,.5-1-.5-1,1.5-1,2.5.5,3,2.5,1.5-1,1,4,2,1.5,2,2.5-1,3,1.5,1.5,1-1.5,3.5-.5-.5-1h1l-.5-3,3.5-1,.5-1-1.5-4,4.5-2,1,2,1-1,6,2.5,1.5,2.5.5,5.5,4,3,4-1,2,3.5.5,4.5-.5.5-7,8-5,3-3,6.5-5.5,2.5-1,3.5-7,7-2-4-2-1.5h-1l-1,3-1.5,1-.5-.5-1,1.5-5-1-3-2-7.5,1v1h-2.5l-.5,1-1.5.5-4-.5-2-2.5-1,.5-6-3.5"/>
      <path data-code="ZAB-ALE" d="m362.16,511.16v-2l2.5-5.5,3-.5v-1.5l2.5-1.5.5-2.5,1.5-2.5-.5-2,2-1.5,3.5-2,2.5,2,.5-1,11-3.5-.5-3.5,1.5,1h.5v-1.5l4,1,.5-2.5,2.5-.5,5.5.5,1.5-2-.5-3.5,1-1.5-1-1,2.5-3-.5-.5,2.5-.5v-1.5l5-1,3,3.5-1,1,.5,1,1.5-1,4,5-2,2,.5,2-1,2,.5,2-1.5,1-.5,4-1,1.5,2,4-2.5,2-.5,2-4,1,3,2.5-.5,1.5,4,4,2.5,7.5-.5.5,1,4.5-1,.5v3l-.5,2.5-3.5-3-1,1-.5,2-1.5,2,.5,8.5-7.5,1.5-1.5,4-3,3-1.5.5-1-2-3.5,2-1.5-.5v-2.5l-2.5-1.5v-1l3.5-1.5.5-1.5-1.5-4-5-1.5-1-3.5,2.5-2.5-2.5-1.5-4,2.5-1-1.5h-1l-.5-2.5h-.5l-2,3.5-1.5.5v-2l-5.5-2-3.5.5v-1l-1.5-2.5,1-2v-1l-4.5-4-.5-1h-2.5l-.5-1"/>
      <path data-code="ZAB-BAL" d="m314.16,501.16l.5-1.5,1,1v-1.5h1v-2l-1-1,1-1.5-.5-1-2-.5-.5-2h1l.5-2.5,1.5-2.5,2.5,1,1-2,.5,1v-2.5l1.5-2h1v-1.5l-.5-1,1-1.5,3,.5,2-1,1,1,1-2.5,1-.5.5.5v-.5l1.5-2.5-1-.5,1.5-1.5v-1.5h1l-2-3.5,1.5-.5.5-2,5-2,1.5-2.5-.5-1,2.5-1,2.5-4,3-.5,5-4,1,3.5,2,1-.5,1,3,2v1l-3,3.5,1,1-.5,2,1.5.5v1.5h-1l-.5,2,3.5,5,2.5,1,1-.5,1.5,2.5v1.5l1.5,2v4l-1,1,.5.5-1,1-1-.5-1.5,2.5v2l6,3.5,2,4.5-.5.5-.5,2.5-2.5,1.5v1.5l-3,.5-1,2.5h-3.5l-5.5,4.5,2,5-2,.5-1.5,3-1-1.5-1-4-3.5-5.5.5-2-1-3,3-7-6-2.5-.5-1.5-3.5,1.5-1.5-1-1,2-4.5.5-1,1-3-1-.5,1.5-4.5,2.5,1,2.5-2.5.5-1.5,2,1.5,2.5-3,.5v-1l1-2-.5-1.5-2.5,1-3.5-2.5"/>
      <path data-code="ZAB-BOR" d="m316.16,602.66l2.5-11.5,11.5-6.5-3-12-1.5,1-1-2.5-1,.5-.5-2-.5.5-1-2,2-.5-1-2.5,4-1,3-3-1.5-4.5,3-3.5,4-.5,1.5-3.5,5-1,1.5-2v-1.5l4-2.5.5-5,2.5-3h4l-.5-1.5.5-1.5v-2.5l-2-1,1-8.5,1.5-3,2-.5-2-5,5.5-4.5h3.5l-1.5,3v2l.5,1h2.5l.5,1,4.5,4v1l-1,2,1.5,2.5v1l3.5-.5,5.5,2v2l1.5-.5,2-3.5h.5l.5,2.5h1l1,1.5,4-2.5,2.5,1.5-2.5,2.5,1,3.5,4,1,1.5,1.5,1,3-.5,1.5-3.5,1.5v1l2.5,1.5v2.5l-4,2.5-6-.5.5,1.5-2.5,3.5,1.5,2,2.5,1-4,8.5-3,.5-.5,1h-1l-1.5,1.5-2.5-2-.5,3,.5,3.5-7,3-3,2.5-1.5-5.5-3.5,3-1.5-1.5-3,2h-3.5l-1,8-7.5,2.5.5,2-6,3-11,12h-11.5"/>
      <path data-code="ZAB-CHE" d="m297.66,390.16l-1-3,1-2h1.5l.5-1.5h1.5v-1l-1-3.5,3-.5,2-2,1.5.5,1-1.5-.5-2,1.5-3,2.5.5,1,3,3.5-1,1.5-5,2.5-1v-2l3.5-1v-1.5l4.5-1.5v-1.5l.5-1.5v-1l-4.5-4-2-.5-2.5-5,2.5-6,2-.5-.5-1,1-.5,3.5,2.5-.5,1.5,1.5,1.5,3,.5v2l3-1.5,1,2,.5-1.5,1,.5v-1.5l1.5-.5-.5-1.5.5-.5,8-4,1.5-3.5-.5-.5.5-1.5v-3l1.5-.5-.5-3,1-1-.5-3,1-1.5-.5-1.5,1.5.5.5,3,1,.5,6-.5v4l2.5,4.5-2,.5-.5,2.5.5.5-1,2.5.5,2,1.5,1.5,1,5.5,1.5,1v1.5l5.5,2,1,3-.5,1,2-.5,2,2.5.5,3.5,2,.5.5.5-.5,1,2.5,2.5h1l-.5,2,2.5,3.5-.5.5,1,1.5-1,2h-2v1.5l1,.5-2,2-1-.5-3.5,3,.5,2-3,2,.5.5-.5,1.5-4.5-.5-1,1-1-1,.5-.5-.5-.5-2.5,1-1-1-3,2,.5,1-1.5,2.5-1-.5-2.5,1.5-2-.5-2,2.5.5,2.5-1.5,1.5-1,4.5,1.5,5-1.5,2,.5,2-3,4.5,3,1,3,2.5-1.5.5-1,2-3,1.5-1,3.5-5.5,1.5,1,3.5-3,1.5-5.5,6-3.5-1.5-.5,1-4.5-3.5-1.5,1.5-3-3-4-2-1.5-3,1-2.5-.5-6,1.5-.5-1-2.5-2.5-3-1.5-4.5.5-.5-1.5-3.5,1-1-.5-1.5.5-1.5v-1l-5-1-1.5-4-1.5-.5-.5-3-.5-1.5-3-1.5"/>
      <path data-code="ZAB-CHM" d="m193.16,479.16l.5,1.5,3,1,1-1.5.5,1,1.5-.5-.5-1,2.5-2,3,.5,4,2.5,3.5-3,1-4.5-1.5-2.5-5.5-2.5-6.5-.5v-1.5l-4.5,5.5-1.5,4-.5,3.5m-35.5,20l3-3.5v-2l-2-1.5,1.5-2,2-.5-.5-1,1-1-.5-1.5,1-1-.5-1.5h-1.5l-.5-1.5-.5-2,1-1.5-1-1,.5-4.5,2.5-4,2.5-1.5-.5-3.5,1-3.5,2-1.5,2,1,1-1,2.5,1h2.5l2.5-2.5,2,1,1.5-3.5h1.5l2.5-2.5.5-2.5h1v-1.5l13-4,1.5-1.5,2.5,2.5,1.5-4.5-.5-1.5,2.5-2.5.5-2.5,1.5.5.5-2.5h2l1.5-2.5h2.5l1.5-3,2.5-.5-.5-1,2-3v-1l2-6,1-1-2-3v-5l2-2v-1l-1-1.5.5-1.5-1-1,.5-.5h1.5v-1.5l1,.5,2-1.5,6.5,3,.5,1.5-2,2.5.5,3.5,1,.5v4.5l.5,1-.5,1,1,1,2.5,3.5,2,1.5.5,1-1,1.5h2.5v6.5l-.5,1.5-1-.5-1.5,7,1,1,2,9-.5,1.5v10l1,.5v2l1,.5v2l-2.5.5-3.5,5.5.5,2,2,6-3,2.5-1,4-1.5,2,.5,2.5-3,3.5h-2.5v1.5l-.5.5-5,2,.5,2-3,2,.5,1-.5,1,.5,2.5-2.5,5,1,1,.5,2.5-1,.5-.5,3.5v3.5l.5,4.5-1,2.5.5,1-.5,1,1,2.5-1,5-.5-.5-1,1.5h-4v1.5l-2.5,4-2.5,1.5-1,2.5-2,.5-.5,2-2.5,2.5-2.5-1.5-.5.5-1.5-1.5v-1.5l-2-2,.5-2-1.5-1.5.5-.5-1.5-3.5,2-1,.5-1.5,1.5,1,.5-3v-1.5l1.5-.5v-2.5l1-.5.5-4.5.5.5.5-1,.5-2.5-1-1.5h1l.5-3.5h1l-1-1.5.5-2-1-1.5v-3.5l.5-.5-.5-2.5v-1.5l-2.5-2.5-5,1.5-3.5-1-2,2-9-2-3.5,3v1.5l-2,.5.5,1-.5,3-1,2-5.5.5-1,1-1-1v-3.5l-2-.5-1.5-2.5h-1.5v-1l-2.5-2-.5-2.5-2-2.5"/>
      <path data-code="ZAB-DUL" d="m177.16,563.16l1-2-1-1.5,1.5-1.5,1-6,4-3.5.5-4h1l-.5-1,1-1-.5-3,3.5-.5,2,1,4-1,1.5,3.5-.5.5,1.5,1.5-.5,2,2,2.5v1l1.5,1.5.5-.5,2.5,1.5,2.5-2.5.5-2,2-.5,1-2.5,2.5-1.5,2.5-4v-1.5h4l1.5-1.5,4.5,2.5,7-1,1.5,3,7,3.5,2.5,9.5,2.5-2,1,1,.5-1,2,.5,2-1,.5,1.5h1l.5,4.5h1l2-3,7,13-.5,1.5,2,4-2.5.5-1.5-1h-1.5l-5.5,4-2.5.5-4,4.5-.5-2-1.5-2-6-2.5-1,1-1-2-1,.5-3.5,1.5,1.5,4-.5,1-3.5,1,.5,3h-1l.5,1-3.5.5-1,1.5-1.5-1.5,1-3-2-2.5-2-1.5-1-4-1.5,1-3-2.5-2.5-.5-1.5,1,.5,1-.5,1-6.5-1-3,4-2-2-2.5,1-3-5,1-1.5v-4.5l-3-1-2.5,1.5-1-2-1.5-.5-1.5,2.5-2.5-.5-1-.5-1-2.5-3.5-1.5"/>
      <path data-code="ZAB-GAZ" d="m386.16,470.66l1-1-1.5-1v-1.5l3-4.5-.5-2.5,2.5-1v-1.5l3-5.5v-2.5l1.5-1-1-1,.5-1-.5-1,.5-1.5h-2l2.5-3-1-1,3.5-2-.5-2.5,1,.5,1-4.5-1-2.5,1.5-2.5,1.5.5,1-1-.5-2,4-2,1-2,1.5.5,4.5-5.5-.5-1,.5-2-1.5-.5-.5-3.5,1-.5,3.5,1.5,6-1,2.5,1,.5-1h5.5v-1l3-1-2-4.5-2,1-1.5-5.5,1-1.5-1-1-1-2,.5-.5-1.5-.5-2.5-3v-1.5l-2-2-1-2-.5,1-4-2-2,1-1-1.5-.5-1,2.5-2v-1.5l-1.5-1.5-1-1.5,1-2-1-1,4-2.5-.5-1.5,1.5-4,2-1.5v-2h-1l1-3,3-1.5-1-1.5,1.5-1-.5-2,2-2.5-1-.5.5-1.5,5-5v-2l1.5-2.5h2l1-2,3-2h1l4.5,5h1.5l2.5-2.5v-1.5l2.5-1.5-.5,6.5,2,1.5,1,3,1.5,2.5,3.5.5v1l-1.5,2v3l-1.5,1,.5,2-2.5,2.5-.5,2.5h-2l-1,2.5-2,1.5,2.5,4v5.5l1,2,1,.5,5-.5,3-4,4.5-1.5.5,2,1-.5,1.5,2,3,2.5.5,1.5-1.5.5,2.5,3.5-2.5,1.5-1,3-2.5-.5v1.5l-1.5,2.5,1,2v3l-1.5,1,1.5,1.5v4l2.5.5.5,1.5-2,2v1.5l-1,1.5-1.5,1.5v3.5l-3,1-.5,3-2,2v1l-1,2.5.5,1-2,1-4-2-1.5.5v-1.5l-1-1.5-1.5.5,1,1.5-.5,1-4.5,3v2.5l-4,1.5-.5,1.5.5,2-3,2.5v2l-1.5,1-1.5,3.5v2h1l1.5,2-6,1.5-1.5,4h-1l.5,1.5-1,.5.5,2,2.5,2-2,5.5.5,3.5,1,1-.5,1h1.5v2.5l-1,1.5-.5-1.5-3,5-4-5-1.5,1-.5-1,1-1-3-3.5h-2l-3,1v1.5l-2.5.5.5.5-2.5,3,1,1-1,1.5.5,3.5-1.5,2-5.5-.5-2.5.5-.5,2.5-4-1v1.5h-.5l-3-2.5,2-.5-1-1.5,2-2-1.5-4-1.5.5-.5-1.5-1.5-.5-1-2"/>
      <path data-code="ZAB-CHI" d="m193.16,479.16l.5-3.5,1.5-4,4.5-5.5v1.5l6.5.5,5.5,2.5,1.5,2.5-1,4.5-3.5,3-4-2.5-3-.5-2.5,2,.5,1-1.5.5-.5-1-1,1.5-3-1-.5-1.5"/>
      <path data-code="ZAB-PTZ" d="m25.16,557.81l.5-1.5h2l1,1.5,1.5-1-1-1.5,1-.5-.5-1-2-2.5-1.5-.5,1-.5-1.5-2,3.5,4,3.5-.5-.5-2,.5-.5,1,.5,2,4.5,2-1,.5,2h1l1,5-2,1-1,4h-4.5l.5-1v-1l-2-3.5h-1.5l-2.5,2.5.5-1-1-1,1-.5-2.5-2"/>
      <path data-code="ZAB-AGI" d="m259.16,527.66l3.5-.5,2.5,3-3.5,2.5-1.5-1v-1.5h-2.5l1.5-2.5Z"/>
      <path data-code="ZAB-KLA" d="m210.66,145.66v-2.5l-.5-1,4-3,1-2-.5-2.5.5-1.5-2-3.5-.5-3.5.5-1.5v-1l2.5-2.5.5-2,4,.5,6,3.5,1.5-.5,3,3h1.5l2-2,1.5.5,2.5-3.5,4.5,3h3.5l.5,2h5l1.5-2,2,2.5,7-6.5,2,.5v-1l-1.5-.5.5-1,4-.5-.5-1,1.5-.5-.5-1.5v-2.5l3-3v-1h.5l.5-2,1.5,2,.5,2.5,1.5.5,1.5,2.5h2l-.5-2.5,1-2,1.5,1.5h1.5l-1-3.5-1.5-2,2.5-2.5.5-5-1-.5v-2.5l-2.5-1.5v-1.5l-2-1.5,1.5-2.5,2.5-1.5,1-4.5-.5-1,.5-1-.5-1.5-5.5,1-2-2-.5,1,1,3-.5,2-3,2-1.5-2,.5-3-1-2-2,2-1.5-1.5-2-7-2-.5-1-2.5-1-1,.5-1.5,2-.5-1.5-2.5v-2.5l-3,.5-2.5-1-1.5,1,.5-2.5-1-.5,1-1.5-1-1.5.5-1-.5-1.5h-.5l-.5-1.5h-2l-1.5-1.5,1-3,3.5-.5,1.5-2,2.5.5.5-2-.5-.5,1.5-1,.5-2h-2l-.5-3-1-2,1-.5-1-3.5.5-2.5-1-1,.5-.5-1-1,.5-1,.5-1.5,5,1v-2l-2-3.5-.5-.5v-1l-1.5-.5.5-.5-1-1h-1.5l-1-2.5,4.5-4.5-.5-1,1.5-1.5v-1.5l1,.5,3-.5.5-2,2,1.5,4.5-2,1.5.5,1,2,1,.5,1-2.5,4.5-1,2.5,2.5.5-.5,1.5,2.5,1.5,1.5,3.5,1.5,1,2,3-1,.5,1,3.5,1.5,2.5-1.5,1.5-3,4.5-1,3-3,3,1,2,3.5,1.5,1-1,1.5,1,2-.5,1,2.5,3-.5,5.5-.5.5.5.5.5,2.5-1,1,1,2v1.5l1,1.5-.5,1.5.5,2-1,1.5.5,1.5,1,1.5,4-.5,1,4-1,1,1.5,1,1,2.5-.5,2.5,3,3h.5v-1.5l.5-3-.5-2,1.5-2,3-1.5,1,1h2.5v4.5l-1,.5-.5,3,1,2v2l2,3,4.5,1.5,2.5,3v1l1,.5v1l.5,1.5,4.5,3-2.5,4v4l1,1.5.5,1.5,3.5,2,4-1,2,3.5,2,2-.5.5.5,1.5-.5,1-3.5,3.5.5,1.5-1,2,.5,1.5,1.5,1,3-.5,1,2.5,2.5-1,1,.5-1.5,4,.5,3,1,.5.5,1,3.5.5v1.5l2,2,4.5-2,1.5,1,.5-.5,3.5,1v-1.5h1l1,1-.5,1,.5,1-1,1,.5,1,4,2,2-.5v2.5l4.5,1.5,1.5-1,1.5,2-1.5.5.5,1-.5,1-6,3,.5,1h-2.5l-2,1-1.5,3.5-2.5,1.5.5,3,5,5v1l1,1,.5,2.5-1.5,2,2,1,1,3,2-3-1.5,3.5-3-.5-1,4-2,1.5-6.5-2.5-6,5,.5,1-2.5,5.5-4.5,4.5.5,1,2.5,1,.5,2-2,4.5.5,2.5-.5,1-2,2.5h-2l-1,2.5-2,.5v2.5l-4,1-6.5,8.5-1,3-3,2.5-2.5,6-4-1-.5,2-2,2-3.5.5v-3l-3.5,1-1-1-1.5-4-1.5,1.5-2.5-1-1-2-3.5-2.5v-4.5l.5-1.5-.5-2-3.5-.5-1,2.5-5,1.5-.5,2.5-1,1.5-3-2-2-3.5-5.5,3-1,2-4,.5-1,2-1.5-.5-1-3,1-2.5-1-1-1-2.5-2-.5-1-4.5-2,.5,1.5-2-1.5-5.5-6.5-6.5v-1.5l-2.5-1.5h-1v.5l.5,3-1,1.5,1,2.5-.5,1,.5,2-1.5,1.5h-1.5v2l-1.5-.5-3.5,2-2.5-1-2.5,1-2.5-1-.5,1.5-8,3.5,1,2-.5,1.5.5,1-.5,3.5h-3.5l-2.5-2v1.5l-3,2-.5-3,.5-1.5-1.5-1.5-1.5-6,1.5-1.5v-4l-5.5-3-.5-3-1.5-1.5,1-2.5-1-1-1-2,2-.5.5-1.5-1-1h-2l-5-8-.5-2,.5-.5-1.5-5,1.5-1.5,2.5,1v-2l-5-3-1-2v-2l-.5-1.5-6,1-3.5-.5-.5-1"/>
      <path data-code="ZAB-KLG" d="m413.66,500.16l4-1,.5-2,2.5-2-2-4,1-1.5.5-4,1.5-1-.5-2,1-2-.5-2,.5-1.5h1l3.5-5.5.5,1.5,2-2.5h1.5l1.5,2.5-1,1,1,.5-.5,3h-1l1,2,5-1,2-4.5.5,1.5,2,.5v-1l1,1-1.5,3.5-1.5-.5.5,1.5-1.5,2.5,1,.5-.5.5.5,1-1.5-1-2-.5v4.5l2,1.5.5,1.5h.5v1.5l3,1,3.5,4,.5,1.5,3.5-5.5,2,.5v-2l2.5-2,1,.5,2-2,4.5,3.5-1.5,4,1,2.5-.5.5.5,1-1,.5,2,3-.5,1,.5,1.5-1,5-2,1-2.5-1.5-2.5.5-1.5-2h-1l-.5,2.5-6-2-.5,2h1l1,2-4,2-1.5,4-2.5-1-1,1-4-3.5.5-1-2-2h-2.5l-2.5,3-4-.5-2.5-7.5-4-4,.5-1.5-3-2.5"/>
      <path data-code="ZAB-KAR" d="m219.66,537.16l1-5-1-2.5.5-1-.5-1,1-2.5-.5-4.5v-3.5l.5-3.5,1-.5-.5-2.5-1-1,2.5-5-.5-2.5.5-1-.5-1,3-2-.5-2,5-2,.5-.5v-1.5h2.5l2-1.5,3-10.5,3-2.5-2-6-.5-2,3.5-5.5,2.5-.5v-2l-1-.5.5-1.5-1.5-1v-10l.5-1.5-2-9-1-1,1.5-7,1,.5.5-1.5v-3.5h2.5l3,2h1.5l.5,2,1,.5,1,2.5,3,1,3-2,1.5,2,1-1,2.5,1,.5-1h1.5l2.5,2.5,1.5.5.5,3-1,.5.5,1.5-.5.5.5,1.5-1.5,1,.5,1.5-1,.5,1,2-1,2h.5l2.5,5.5h3v1.5l2.5,6.5-4,3,.5,2-1,.5-1,2.5h-1.5l-.5,1.5.5,1-1,1,.5,2,1.5,2.5.5,2,1.5.5.5,1-1.5,2v2.5l-3.5,1.5.5,1.5-2,1-.5,2.5-3.5,4,1,1-4,3v2.5l-4,3.5-1,7v2.5l-.5.5-7.5,1.5.5-2-1-.5.5-1-2-3.5-1.5,1.5.5,2-2-1-1-2.5h-2.5v4l-4,2,.5,3-4.5,4.5v2l4.5,3-1,1v5l-1,3-.5-1.5-7,1-4.5-2"/>
      <path data-code="ZAB-KHI" d="m53.16,562.16l2.5-2.5h1l-.5-1h1l.5-3.5.5.5-.5,1.5,1.5,2.5,1.5-1.5,1-2h1.5l-.5-1,1-.5-1-2,2.5-2.5-1.5-3,.5-1-1.5-4,2.5-2,1-2,2.5-1.5,1-2.5,4-3,.5-2,3-1.5,3,1.5,1-1,2,1,4-1.5,3.5,1.5,1-1v2.5l2,1.5h2.5l1.5,1,7-2v-2l1.5-.5.5-3,2.5-.5,1-2.5-1-1.5-1-.5v-1.5l1-1,2-3,3-1.5v-2.5l-1-1.5,5-3.5h2l3.5-1.5v-2l2-1.5h4.5l1.5-3.5,2.5-1.5.5-2,4-2-1-1,1-.5,1-5.5,1-.5-.5-1,1-.5v-1l2.5-1-.5-1.5,1.5-2-.5-2.5,2.5-1.5,2-5.5h2.5v-1l1-1,1.5,2v1.5l1.5.5,3-1,3.5,2.5-1.5,6,1,1-1,1.5,1,3.5h1.5l.5,1.5-1,1,.5,1.5-1,1,.5,1-2,.5-1.5,2,2,1.5v2l-3,3.5,2,2.5.5,2.5,2.5,2v1h1.5l1.5,2.5,2,.5v3.5l-3.5,5h-1l-.5,2.5-2.5.5-1,2.5h-1.5l-2,4h-2l-1,1,.5,2-5,4v2l-1.5,1v2l-1.5.5-.5,2.5-3.5,2-1.5,2.5-6,2.5-.5-.5-1.5.5-2.5,2.5h-1l-.5,2.5-2.5,3h-.5l-.5-1-3,1,1,2,1,.5-1,3v3l-1,1,.5,2,.5,1-.5,1,1,.5-1,3,1,2-3,3-4.5-1-3.5,1.5-.5-.5-5.5,4h-6.5l-1,1.5.5,1-.5.5-2.5,2-5-1-2.5.5-.5,1-1.5-.5-.5-1.5,2-3v-1.5l-1-1,.5-.5-1-1.5,1-.5v-2l-1-.5-1-1.5.5-1-.5-1,1-3-1.5-2v-4.5l-1.5-3-3,1-3.5-.5-3,1.5.5,1.5-3,1-.5,3.5h-1.5l-2.5,3.5.5,1-3.5-1-.5-2-2.5-2-1.5-3.5-1,1v-1.5l-3.5-3-1.5.5"/>
      <path data-code="ZAB-KRC" d="m.66,646.66l-.5-3,2.5-1,1.5-3.5,1.5.5,2-3-1-1v-.5l1.5-2v-2.5l1.5-2,4.5,2.5.5-2.5,1.5-1.5-1-.5.5-1.5,1-2,6,.5.5-2,1.5-.5,1-3,1.5.5,2.5-2,3.5,1,1.5-1v-2l.5-2.5,4.5-3,.5-2.5,1,.5,3-2,3,1,1.5-3.5h5l.5-2,2-.5-.5-1.5,2-1.5,1.5.5,2-.5,1-1.5,2.5-1,4.5-4,1.5,1.5.5-1.5,1.5.5v-1.5l5,2,1.5-1.5,1,.5.5-2h1.5l.5-1,2,1.5,3,.5.5-1,2.5-.5,5,1,2.5-2,.5-.5-.5-1,1-1.5h6.5l5.5-4,.5.5,3.5-1.5,4.5,1,1-1,1.5,1-1,2,4,3,2-1,4-.5.5,1,.5,2-1,3.5.5,2.5,1,.5-1.5,2,1.5,3.5-1,2.5,1.5,2.5,2.5,2.5.5,3.5-1,1,1,1-1.5,2.5-3,1v1l-2-.5,1.5,3-1,1,.5,1.5-1,2,1.5,2-.5,2.5,1.5.5,1,3.5,1,.5-.5,1.5h1l.5,1.5.5-1,1,1,.5,3,.5.5-2,2h-3.5l.5,2.5.5.5-1,1.5.5,1h1.5l-.5,1,.5,3.5h2l.5,1.5,1,1-1.5,2,.5,2-3,2.5-3.5-3v-2l-1-.5-1.5,1-6-1-4.5,4.5.5,2.5v1.5l-4-.5-1,2.5-1.5,1-1,2.5.5,1.5-2,3.5h.5l-.5,2-7,2-2-3-1.5,1-.5-1h-2l-2-2.5-.5-.5,1-.5-1-1.5-2,1.5-.5-4.5h-1l-2,4h-1l.5,1h-1l1,1.5-.5.5-2,1,2,3,1.5,1-.5.5.5,2-2,1.5-2.5-1.5v-1l-.5.5-.5-1.5-1,1.5-2-.5-.5,2,.5,2.5-2.5,6v2.5l-2.5-1.5-7-.5-5,2.5-5-.5-3.5,2-1.5-1-4,1-2.5-.5-2,1.5-3.5,1-4-3-.5-2.5-3.5-.5-.5-3-2.5-2.5-.5-2-5.5-1-6-3.5-1-3.5-2,2-1-1-1-3,1-2.5-1-2.5,1-1.5-2-1v-2.5l-1-1,1.5-3v-2l-4.5,1-1-1.5-2,1.5-1.5-2,1-1.5-1-1.5,1-1.5-.5-2-3-3"/>
      <path data-code="ZAB-KRA" d="m384.16,564.16l4-8.5-2.5-1-1.5-2,2.5-3.5-.5-1.5,6,.5,2.5-2h3l3.5-2,1,2,2-1,7.5,4.5,6,1.5v2.5l4,1.5,1-1-1-.5,2-3.5,7-2-2.5-3.5.5-1.5,2,1.5,2.5-1,1.5,3.5h1v2l1-.5,3,4v3l9,5.5,1.5,5.5.5-.5.5,1-2,2.5-6,2.5-1.5,2.5-.5,3.5-1.5,1-1.5,4-7,6-.5,2.5-2,1.5v1.5l-2-.5-.5,2.5-.5-1-1,1,1.5,1.5-3,.5v2.5l-2,2-1-2.5,2-3-4-1.5,1-1.5-3.5-4,1-4-.5-2,.5-1.5-1.5-1.5-5-1-.5,1-2.5-2,.5-4.5-2-1-4.5.5-3-5-14-5.5"/>
      <path data-code="ZAB-KYR" d="m77.16,692.66v-2.5l2.5-6-.5-2.5.5-2,2,.5,1-1.5.5,1.5.5-.5v1l2.5,1.5,2-1.5-.5-2,.5-.5-1.5-1-2-3,2-1,.5-.5-1-1.5h1l-.5-1h1l2-4h1l.5,4.5,2-1.5,1,1.5-1,.5.5.5,2,2.5h2l.5,1,1.5-1,2,3,3-.5,4-1.5.5-2h-.5l2-3.5-.5-1.5,1-2.5,1.5-1,1-2.5,4,.5v-1.5l-.5-2.5,4.5-4.5,6,1,1.5-1,1,.5v2l3.5,3,3-2.5-.5-2,1.5-2,4-.5,1.5-4-1-2.5,3.5-2-.5-1.5,1-.5-.5-1,.5-1.5-.5-.5v-4.5l-.5-.5,1-2.5-.5-2,3-1.5,1-2v-1h-.5l-1-2,1-.5-1-2,1-1.5,1.5-2,1-.5.5,1,1-1.5-1-1.5h1l-.5-1,3.5-1,1.5-2.5,1,1,1.5-.5,1,2,1.5-.5,2,1.5,1-2.5-1-1.5,1.5-.5.5-2-1-1.5h.5l-.5-2h3l1,1v-2l2-1,.5-2,7-2h3l1,2,4-1,.5,2.5.5,1-1,.5-.5,2.5-1.5,2v2l.5,1.5-.5,3,1,1.5-1,1.5,1,1.5-.5,2.5,6,3.5,1-.5,2,2.5h5.5l.5-1h2.5v-1l7.5-1,3,2,5,1,1-1.5.5.5,1.5-1,1-3h1l2,1.5,2,4-1,.5-1.5,5v2l-1,1.5-1.5,9-5,4-3,4-3,1.5-1-.5-1,1-9,.5-7.5,4.5-3,3-9,6.5-11,1.5-6,5.5-6.5-1-3.5,4-17.5,12.5-5,1.5-7-.5-4.5-1.5-1.5-1.5-2,4-5,4-4.5-1.5h-17.5l-5,1-2.5-.5-1.5-2-2-.5-1.5-1.5"/>
      <path data-code="ZAB-MGC" d="m346.16,306.66l.5-.5,1.5,1.5,2-1,1-2.5-.5-1.5,1-1,3.5,2v1l1.5,1.5,2-1,3-.5-.5-2,.5-1.5-.5-1.5,2-4.5-1-3,2-2.5v-1.5l3.5,1.5h1.5l2-1.5.5-1,2-2,7,4.5v2l1.5,3,1,.5,1,2,1.5.5,1.5-3-.5-3.5,3-.5,3,2,1-2,1.5.5,2.5-3v-1.5h1.5l-.5-4,1.5-.5,1-2h1l3.5,2.5,3.5.5v-1l1.5-1,.5-2.5-.5-1.5,2.5-2,1.5-2.5,1.5,2v1.5h2l1.5-3.5,2.5.5.5-1-1-1,5-3,2.5,1.5,3-5.5h2.5l.5-2-1-.5.5-2.5h1l1,1.5,1.5-.5.5-1.5-.5-2,1-1.5,1-1.5,2,.5,1.5-2-1-2.5.5-3,1.5-.5-.5-1.5h2l.5-2,3-.5,2-1.5.5-2,.5,1,1.5-.5.5,1.5,3-1,3,3.5,5.5-2.5,4.5,3.5h.5l1-3.5,1.5-.5,2.5.5.5,2,2,1.5v4.5l1,.5,1,1.5,1.5.5-1.5,2.5-2.5,1.5v3l1,2.5h1.5v1.5l2.5,1.5,3.5,3.5.5-2.5,1.5.5,1.5,3,5,4.5-.5,2,1,1v1l1,1v1.5h1l1,1.5.5,3.5.5,1v1.5l2,2v2l5,3,1,1.5.5,1.5,1,.5-1.5,1.5-7,1.5-14,12-4.5,1-.5,2-2,2-4,1.5-2-1.5-1.5,1.5-6,1.5-1.5,2.5,1,1.5-4.5,6,1,2-1,1v2l-2.5,2.5-3.5,8.5-3.5-.5-1.5-2.5-1-3-2-1.5v-3l1-1.5-.5-2-.5-.5-4.5,6h-1.5l-4.5-5h-1l-3,2-1,2h-2l-1.5-2.5-2.5-3h-1.5l-1.5-1v1.5l-2-1-.5-1-5,1-1-.5.5-.5-1-1v-.5l-2.5-1,.5-1-6,.5-2,3.5-3,2.5v1.5l-3.5,2-1,1.5h-2.5v1.5l1,1v1l-2,.5.5,1-.5,1.5-4,.5-1.5,2-.5-1-4,1-.5,1.5-2,1.5-1.5-.5v5.5h-1.5l-1,7.5-1.5-1.5-1,.5-.5-3.5-2-2.5-2,.5.5-1-1-3-5.5-2v-1.5l-1.5-1-1-5.5-1.5-1.5-.5-2,1-2.5-.5-.5.5-2.5,2-.5-2.5-4.5v-4l-3,1-4-1-.5-3-1-.5-1.5-3,.5-3.5-.5-2v-1.5l-3-3.5"/>
      <path data-code="ZAB-MGT" d="m253.16,517.66l.5-.5v-2.5l1-7,4-3.5v-2.5l4-3-1-1,3.5-4,.5-2.5,2-1-.5-1,1-1.5,2-.5,1.5,2,3,.5.5-5h1l.5,2,2.5.5,3.5,3,5-1,5,4h4l1,2h2l1,2,2,.5.5,3.5,3,.5,1.5,2,3.5-.5v1l2.5,2-1,1,1,1.5-1,1,.5,1-1-.5.5,1.5h-.5l.5,1.5-1.5.5v3.5l-2,2-.5,1.5-2,1.5-1.5,4-1,1.5-1-1.5-4,2.5-1.5-2-3,1.5,2.5,2-1,6.5,2,3.5,9.5-1.5,2-2,3,2.5,3,5v3.5l1.5,1.5v3.5l-4.5-2.5-1,1,1,1-.5,1.5-2.5,2.5-.5-1-1.5,3-1-1.5h-1.5l-2.5,1.5-1-3-6-10.5-.5,1-7-4-1.5-1.5-.5-2.5-3.5-2.5-1,.5-3.5-5.5-6.5-2.5-2.5-3v1.5l2,4-1.5.5-2-2h-2l-3.5-3.5-1.5-.5-5.5-5h-1.5l-.5-2"/>
      <path data-code="ZAB-NER" d="m283.66,410.01v-2.5l3.5-.5,3-3v-5l2.5-1,1.5-5.5,2.5-1,4.5.5.5,1,.5,3.5,1.5.5,1.5,4,5,1v1l-.5,1.5.5,1.5-1,1,1.5,3.5-.5.5,1.5,4.5,2.5,2.5,1,3-1.5.5.5,6-1,2.5,1.5,3,4,1.5,3,3.5,1.5-1.5,4.5,3.5.5-1,3.5,1.5,4.5-5,1,.5-.5,1,1.5,2-1.5.5,1,2,1.5,1.5.5,3.5,1.5,2h1l1.5,3.5,3,1-2.5,4-2.5,1,.5,1-1.5,2.5-5.5,2-.5,1.5-1.5.5,2.5,4h-1v1.5l-1.5,1,1,1-1.5,2v1l-.5-1-1,1-1,2.5-1.5-1.5-1.5,1.5-3.5-1-.5,2,.5,1v1.5h-1l-1.5,2-.5-1,.5-1.5h-3l-1.5-2.5v-1.5l-.5-1.5.5-2-.5-.5,1.5-2.5,2.5-1.5.5-2-1-2,1.5-2-2-1,1.5-3v-1l-1.5-.5-1-1,1-1.5-1.5-1.5-2.5,1v1l-1,.5-1,3-4-4,3-1.5.5-1.5-1-2v-2l-2-.5-1-4-1.5,1.5h-7l-.5-2,.5-1-1.5-1-1-5,1.5-.5v-2.5l-5.5-1.5-1.5-2.5-1-4.5-1.5-.5.5-1-1.5-1.5.5-4.5h-.5l-.5-2-1.5-1.5-2-3.5-1-.5"/>
      <path data-code="ZAB-NRZ" d="m426.16,465.51l.5-4,1-.5v-2.5l-2-2-.5-2.5,1-.5-.5-1h1l1.5-4,6-1.5-1.5-2.5h-1v-2l1-3,1.5-1,.5-2,3-3-1-2,1-1,4-1.5v-2.5l4.5-3,.5-1-1-2h1l1.5,1.5v1h1.5l4,2,1.5-1v-1l1-2.5v-1.5l2-1.5.5-3,3-1.5-.5-3.5,2-1,1-1.5v-1.5l2-2-.5-2h-2.5v-4.5l-1.5-1,1-1,.5-3-1.5-2,1.5-2.5v-1.5l3,.5,1-3.5,2-1.5-2.5-3,2-.5-.5-1.5-3-2.5-1.5-2h-1.5v-2l1.5-1.5,4.5,2,7.5,2-1,2.5,1,1-.5,2,1,2.5-.5,3,.5,2-1,1,1.5,2.5,2.5,1,1.5,1.5h1.5l.5,3.5,2.5,2.5-.5,2,.5,1.5-.5,1.5.5,1-1,.5-.5,3,1.5,1v2.5l-1,2.5.5,2-3.5,2v2l-2.5.5.5,2-2.5,2.5.5,1-1,2.5-2,.5v2.5l-2,2.5-1.5,3.5-3,1,1,2-1.5,1.5v3.5l1,1-1,5,1.5,3.5-1,1.5.5,2-2,1.5,2,2-2,1.5.5,3.5-2,1.5.5,1-.5,1.5,1.5,2-2-.5-.5,1,2,3-1,.5,1,.5-.5,3,1,1.5-1.5,1.5.5,1-.5,1.5.5,1.5-.5-1-2,2-1,5-4.5-3.5-2,2-1-.5-2.5,1.5v2.5l-2-.5-3.5,5-.5-1-3.5-4-3-1v-2l-.5.5-.5-1.5-2-2v-4h2l1.5,1.5-.5-1,.5-.5-1-1,1-2v-1.5h1.5l1.5-3-1-1v1l-2-.5-.5-1.5-2,4.5-5,1-1-2,1-.5.5-2.5-1-1,1-.5-1.5-3-2.5,1.5v-2.5h-1.5l.5-1.5-1.5-2.5"/>
      <path data-code="ZAB-OLO" d="m294.66,528.51l3.5-1.5,1.5,1.5,4-2.5,1,1.5,1-1,1.5-4.5,2-1,.5-2,2-1.5v-3.5l1.5-1-1-1,1-.5-.5-1h1l-.5-1,1-.5-1-1.5,1-1-.5-4,1-1.5,3.5,3,2-1,.5,1.5-.5,2v.5h3l-1.5-2.5,1-2.5,3-.5-1.5-2,5-3,.5-1.5,3,1,1-1h4l1.5-2,1.5,1,3.5-1.5.5,1,5.5,3-2.5,7,1,2.5-1,2,4,5.5.5,4.5,1,1.5-.5,8.5,2,1v2l-.5,2,.5,1.5h-4l-2.5,3-.5,5-4,2v1.5l-1.5,2-5,1.5-1.5,3-4.5,1-2.5,3.5,1,4.5-3,3-2,.5,1.5-5.5-2-3-3,2.5,1-4-2-1.5-1,2-1.5-2.5v-3.5l-1.5-2v-3.5l-3-4.5-3-2.5-2,2-9.5,1-2-3.5,1-6.5-3-1.5"/>
      <path data-code="ZAB-ONO" d="m246.66,585.51l-.5-3.5,4.5-4.5,2.5-.5,5-4,1.5-.5,2,1.5,2.5-1,2,1,.5-1,.5,1,4-.5,2.5-3,.5-2,7-.5,1.5-1.5,1.5,1,1.5-.5,1-2,1,1h1.5l1-1v-1l2-1.5,1,.5.5-1.5,4.5-2.5v-1l4,.5,3-1.5,3,1.5,1.5-3,.5.5,2-2,1-2-1-1,.5-1,5,3,1.5,2.5,1-2,2,1.5-1,4,3-2.5,2,3-1.5,5.5h-1.5l1,2.5-2,.5.5,2h1l.5,1.5,1-.5,1,3,1.5-1,2.5,12-11,6.5-3,11.5-5.5-.5-5-2-7.5-5.5-4-4.5-6.5-2.5-9-.5-7,3-6-2.5-6,4-2.5,3.5-1.5-6-1-1.5-4.5.5-3.5-3"/>
      <path data-code="ZAB-PET" d="m25.16,558.01l2.5,2h-1l1,1.5-.5,1,2.5-2.5h1.5l2,3v1.5l-.5.5h4.5l1-3.5,2-1.5-1-5-1,.5-.5-2.5-2,1.5-2-4.5-1-1-1,.5,1,2-3.5,1-3.5-4,1,2-.5.5h1l2.5,2.5.5,1.5-1,.5,1,1.5-1.5,1-1-1.5h-2.5v1.5m-17.5,41h1.5l4.5-4.5h2v-4l-1-2,1-3-.5-3.5h1v-4.5l5.5-1,2.5-4.5-.5-4-4-1.5-2-2-1.5,1-.5-2,.5-1.5,2.5-1.5-.5-6.5,1-1.5,4.5-1,.5-3-1-2.5,1-1h2l4,4,2.5-2,2.5,1.5,5-4v-3l3,3.5v2l5.5,4.5,2.5-3,4,2.5.5-1.5-1.5-1v-1l1-2,8-3,1,4v1l1.5,2.5-2.5,3,1,2.5h-1l.5,1-1.5-.5-1,2.5-2,1-1-2,.5-1.5-.5-.5-1,3h-.5l.5,1.5-1-.5-2.5,2.5h1.5l3.5,2.5v2l1-1,1.5,3.5,2.5,1.5.5,2,3.5,1.5-.5-1,2.5-3.5h1.5l.5-3.5,2.5-1.5v-1l3-1.5,3.5.5,2.5-1.5,1.5,3,.5,4.5,1.5,2.5-1,3,.5,1-.5.5.5,1.5,1.5.5v2l-1,.5,1,2-1,.5,1,.5.5,1.5-2,3,.5,2-3.5-2-.5,1.5h-1.5l-.5,2-1-.5-1.5,1-5.5-1.5.5,1h-1.5l-.5,1-1.5-1-4.5,4-3,1-.5,1.5-2,.5-1.5-1-2,2,.5,1-2,1-.5,2h-5l-1.5,3.5-3-1.5-3,2.5-1-.5-.5,2.5-4.5,3-.5-1-2.5,1h-3.5l-2.5-3.5-2.5-.5-1-1-2.5.5-4.5-2.5-2,1.5-5.5-5.5v-1l-1-1.5"/>
      <path data-code="ZAB-PRI" d="m404.16,546.01v-1l3-2,1.5-4,7.5-1.5-.5-9,3-4.5,3.5,2.5.5-2v-3.5l.5-.5v-2l-.5-.5.5-2h4l2.5-3,2.5.5,2,1.5-.5,1,4,4,1-1.5,2.5,1.5,1.5-4,4-2-1-2-1-.5.5-2,6,2.5v-3l1.5.5,1.5,2,2-.5,3.5,2.5-1,2.5h-1l.5,1-2,2,1,1.5-1,1.5,1,.5-.5,1,.5,2-1,1h1l1,1.5-1,1,.5.5-.5,1v2h-2l-1,2.5h2l-.5,1.5,1.5-.5v1.5l1.5-2,1,1.5.5-2,1.5,1,1-1h1.5v2h1.5l-1,1.5v1.5h-1l1.5,1.5-.5,3,2,1-1.5,3.5,1,.5.5,2-2.5,6h-1.5v2h-1l-1,2h-1l-1,2-3.5,1-3.5,3-.5-1h-.5l-2-5-8.5-5.5v-3l-3-4h-1v-1.5l-1-.5-2-3-2,1-2-1.5-.5,1,2.5,4-7,2-2,3,1,1-1,1-4-1.5v-2.5l-6-1.5-4-3-4-1"/>
      <path data-code="ZAB-SHE" d="m357.66,467.01l.5-1.5h1v-1.5l-1.5-1,.5-1.5-1-1.5,3-3v-1l-4.5-4.5-1-4.5,1-.5,2-3,4-1,2-4-1.5-1.5,1-1,.5-2,5,1,2.5,2.5.5,1.5,2.5-1.5,1.5,2.5,2,.5,1.5-1,2,3.5,7-2,3,2v-1l-2-3,1-1.5,3-2.5,1.5,1.5,3-1v3l-3,2,.5,1-2,3h2l-.5,1.5.5.5-1,1.5,1.5.5-1.5,1.5v2.5l-3,5v2l-2.5,1v2.5l-2.5,4.5v1.5l1.5,1-1,1,1,2,1.5.5.5,1,1.5-.5,1.5,4-2,2.5,1,1-2,1,1.5,1.5.5,3.5-11,3.5-.5,1-2.5-2-5.5,3.5-.5,3-2-4-6-3v-2.5l1.5-2,1,.5,1-1-.5-1,1-.5-.5-4-1-2v-1.5l-1.5-3-1,1-2.5-1-3.5-5.5"/>
      <path data-code="ZAB-SHI" d="m268.66,477.01l-.5-2,1-1.5-.5-1,.5-1,1-.5,1.5-2,1-.5-.5-2.5,4-3-2.5-6v-2l-3,.5-2.5-5.5h-.5l.5-2-.5-2,1-.5-.5-1.5,1.5-1,1,.5,5-2,.5,1,1,3,2,1.5.5,4,2-.5v-1l1.5-1.5,3,2,1.5-1-.5-2.5h2.5v-1.5l3.5-.5v-1.5l1-1,6,.5-.5,1,.5,2,2,.5,1.5-1,3.5.5,1.5-1.5,1,4,2,.5v2l1,2-.5,1.5-3,1.5,4,4,1-3,1-.5v-1l2.5-1,1.5,1.5-1,1.5,1,1,1.5.5v1l-1.5,3,2,1-1.5,2,1,2-.5,2-2.5,1.5-1.5,2.5.5.5-.5,2,.5,1.5v1.5l1.5,2.5h3v5l-1-1-.5,2-3-1-1.5,5h-1l.5,2,2,.5.5,1-1,1.5.5,1,.5,2h-1v1.5l-1-1-.5,2-1,.5.5,4-3-2v-1l-3,.5-1.5-2-3-1-.5-3.5h-2l-5-5-3.5,1-4.5-4-5,.5-3.5-3-2.5-.5-1-1.5-.5-.5-1,5.5-2.5-1-1-4.5,1.5-1.5-.5-1.5h-1.5l-.5-2-1.5-2.5"/>
      <path data-code="ZAB-SRE" d="m336.66,439.51l1.5-.5-1.5-3.5v-1l3.5-1.5-1-3.5,5.5-2,.5-3.5,3.5-1,1-2,1.5-.5-3-2.5-3-1,3-5-.5-1.5,1.5-2.5-1.5-4.5,1-4.5,1-1.5v-2.5l2-2.5,2,.5,2.5-1.5,1,.5,1.5-3-.5-.5,3-2,1,1,2-1.5,1,1-.5.5,1,.5,1-.5h4.5l.5-1-1-.5,3-2v-2.5l3.5-3,1,1,1.5-2-.5-.5v-1.5l2-.5.5-2-.5-1,.5-.5-2.5-4,.5-1.5h-1l-2.5-2.5,1.5-9,1.5.5v-5.5l1.5.5,2-1.5v-1.5l4-1,1,1,1.5-2,4-.5.5-2-1-.5,2.5-.5-.5-1-.5-1.5v-1.5l2.5.5,1-1.5,3.5-2v-2l3-2.5,2-3,5.5-.5v1l2.5.5v1l1,.5-.5,1,1,.5,5-1.5.5,1.5,1.5.5.5-1.5,1.5,1.5h1.5l2.5,2.5,1.5,3-1.5,2.5v1.5l-5,5-.5,2,1,.5-2,2.5.5,1.5-1.5,1,1,2-3,1.5-1,2.5,1,.5v2l-2,1-1.5,4.5.5,1.5-4.5,2,1.5,1-1,2,.5,1.5,2,1.5v2l-2.5,1.5,1.5,3,2-1.5,4,2,.5-.5,1,2,2,1.5v1.5l2.5,3,1.5.5-.5,1,1,2,1,.5-1,2,1.5,5.5,2-1.5,2,5-3,1v1h-5.5l-.5,1-2.5-1-6,1-4-1.5-.5.5v3l2,1-.5,2v1l-4.5,5.5-1.5-.5-.5,1.5-4,2.5.5,2-1,1-1.5-.5-1.5,2,1,3-1.5,4-3.5.5-1.5-1.5-3,2.5-1,1.5,2,3v1l-3-2-7,2-2-3.5-1.5,1-2-.5-1.5-2.5-2.5,1.5-.5-1.5-2.5-2.5-5-1-.5,2-1,1,1.5,1.5-2,4-4,1-2,3-1,.5-.5,2.5-7,4-3.5-1.5-1.5-3.5h-1l-1.5-2-.5-3.5-1.5-1.5-1-2"/>
      <path data-code="ZAB-TNO" d="m322.66,315.51l5-4,.5-2,1.5-.5,1.5-3-.5-4.5,3.5-2-.5-2.5.5-.5-.5-2.5,1-2-1.5-2.5,1-1.5-1-1.5v-1.5l-.5-1.5.5-2,2-.5,2.5-4-1-1v-1.5l-3-3,.5-3.5,2,.5,2-2,1-2.5-2.5-3,.5-2,1.5-.5v-1l-1.5-1,1.5-2.5-1-3.5-2.5-1-.5-1,1-7-2-.5-3.5-3-.5-1.5,2.5-2.5.5-4,.5-1,4.5-4.5-.5-1.5-1.5-1.5-.5-4,3.5-2,.5-2.5,4,1,2.5-6,3-2,1-3,6.5-8.5,3.5-1,.5-3,2-.5,1-2,2-.5,1.5-2.5.5-1v-2l2-4.5-.5-2-2.5-1-.5-1,4.5-4.5,2.5-5.5-.5-1.5,6-4.5,6.5,2,2-1.5,1-4,3,1,2.5-6.5h3.5l1,1-.5,1.5h2.5l2.5-1.5-1-3,3-.5,1-1.5,1.5.5.5-2.5,4-2,1-3,1.5-1.5h3l.5-2,2.5,1.5,2.5-1,2.5-3,4.5,6.5v4l5,4v5.5l1,1,1,4.5,2.5,2.5,1,5.5,1.5-.5,2,2,2-.5-.5-2,3.5-.5,1.5-3.5.5-4,2-1,.5-1.5,3,.5,2-1,1,2.5,2,2,.5,2h2l1,4,.5.5v4.5l.5.5,1.5,3.5-.5,2.5,1,2v1.5l1.5,1h2.5l-1,2.5-1-.5-1,4.5,2,1.5.5,3,1.5,3-1,3-2,1,.5,1.5-1.5,3.5-3,5.5.5,2.5v2.5l1.5,1.5v.5l1-.5.5-2.5,2-1,3.5-4,1,4,1.5.5.5,1.5-.5,4.5h1.5l1,1.5.5,4h3l1,.5,1,1.5,4.5,1.5,1,1.5v3.5l-3.5,1.5-3.5,3-1.5-.5v-1.5l-.5-.5-3-1-2,1-1.5,3-.5,3.5-2,1.5-.5,3h-1l-4-3.5-5.5,2-3-3-3.5,1v-1.5h-1.5l-1-.5v2l-2,1.5-3,.5-1,1.5h-2l.5,1.5-1,.5-.5,3.5,1,2.5-1.5,1.5h-2l-1,1-1,2,.5,2-.5,1-1.5,1-1-2-1,.5-.5,2.5,1,.5-.5,1-2.5,1-3.5,5.5-2-1.5-5,3,.5,1-.5.5h-2l-1.5,3.5-1,.5-2.5-4-1.5,2.5-2.5,2,.5,1.5-.5,2.5-1.5.5v1.5l-3.5-.5-3.5-3-1,.5-1,2-2,.5,1,3.5h-1.5v1.5l-2.5,3.5-1.5-.5-1,1.5-3-2-3,1,.5,3.5-1.5,3-1.5-.5-1-2-1-.5-1.5-3v-2l-7-4.5-2,1.5-.5,1.5-2,1-1.5.5-3.5-1.5-.5,1.5-1.5,2.5,1,3-2.5,4,1,2-1,1.5,1,2h-3.5l-1.5,1.5-1.5-1.5-.5-1-3-2-1,1,.5,1.5-1.5,2-1.5,1-1.5-1.5-1,1v4h-3v3h-1v1.5l-2-1-1.5,1.5.5,1.5-1,1v1l-1.5,4-3-.5.5-2.5h-1l-4.5,2.5-1,3.5h-1l-1-2v-1.5l-1.5-3,.5-3-1.5-.5-.5-1"/>
      <path data-code="ZAB-TUN" d="m196.16,366.01l1-3.5h2.5v-2l1,.5.5-1.5v1.5l1.5-.5v-3l-1.5-1,1-1.5,4.5-2,1.5-2,1.5,1.5.5-1.5,1.5.5,2-1,1.5-2v-2.5l.5-1,2,1,1-1.5,1.5.5.5-3,1.5-2.5-.5-2.5,5.5-2,.5-1.5,3.5-1,.5-2,3.5-2v-2.5l1-.5-1-3,4.5-4v-2.5l-.5-3,2.5-.5.5-2.5,2-1,.5-2.5,2-.5,2.5-3,.5-1.5-1-3,3-1.5v-2.5l4-1.5,1.5-1.5h1.5l1.5-2,3-2,2,1,1-2,3.5-.5,2-3,.5,1h2.5l.5-1.5,2,1,.5-2h2.5l1,1.5,2-1,.5,1.5h1l.5-.5-1-1.5v-2l1.5.5,2-1.5,1,1,2.5-2.5-1.5-2.5,2.5-2v-1.5h-1.5l.5-1-1.5-2.5,2.5-1v-2.5h1.5l-.5-2-1-.5-.5-2,2.5-2.5-1.5-.5,1-1.5-1-2.5-1.5-.5-1.5-3,1-2-2-.5.5-1.5-2.5.5.5-3.5-2-1v-1.5l-2.5-3-1-.5-.5,1.5-2-1.5h-2l-1.5-2-5-2.5-1-1.5v-1.5l-1-1.5.5-1.5h-1.5l-.5-1h-1l-1.5-2.5-9,5-1.5-2.5-3,2.5-1.5-.5-2.5-2.5,1.5-3-2.5-1.5-1.5-2-.5-2,1-3-2-1.5.5-3.5-3.5-1,3.5-2-.5-1.5,3,1.5h3.5l.5-3.5-1-1,1-1-1-2,7.5-3.5,1-1.5,2,1,2.5-1,3,1,3.5-2,1.5.5v-2h1.5l1.5-1.5-.5-2,.5-1.5-1-2,.5-2-.5-2.5.5-1h1l2,1.5v1.5l7,7,1.5,5.5-1.5,1.5,2-.5,1,4.5,2,1,1,2.5,1,.5-1,2.5,1,3.5h1l1-1.5,4.5-.5.5-2,6-3,2,3,3,2,1-1v-2.5l5.5-2,1-2h3.5l.5,2-.5,2v4.5l3.5,2,1,2.5,2.5,1,1.5-1.5,1.5,4h4l1,1.5-.5,1.5,2-.5.5,4,1.5,1.5.5,1.5-4.5,4.5-.5,1-.5,4-2.5,2.5.5,1.5,3.5,3,2,.5-1,7,.5,1,2.5,1,1,3.5-1.5,2.5,1.5,1v1l-1.5.5-.5,2,2.5,3-1,2.5-2,2-2-.5-.5,3.5,3,3v1.5l1,1-2.5,4-2,.5-.5,2,.5,1.5v1.5l1,1.5-1,1.5,1.5,2.5-1,2,.5,2.5-.5.5.5,2.5-3.5,2,.5,4.5-1.5,3-1.5.5-.5,2-5,4,.5,1,1.5.5-.5,3,1.5,3v1.5l1,2h1l1-3.5,4.5-2.5h1l-.5,2.5,3,.5,1.5-4v-1l1-1-.5-1.5,1.5-1.5,2,1v-1.5h1v-3h3l.5-4.5,3,3.5-.5,2,1,2-1,3.5,1.5,2,.5,2-1,2,.5,3-1,1,.5,2.5-1.5,1v2.5l-1,1.5,1,.5-1.5,4-8,3.5-1,1,.5,1.5-2.5,2.5-1-1.5-3,1.5-.5-2.5h-2.5l-2-1.5,1-1.5-4-2.5h-.5v1.5l-2,.5-2,5.5,2.5,5.5h2l4,4,.5,1.5-1,1.5.5,1.5-4.5,1.5-.5,1.5-3,1v2l-2.5,1-1.5,4.5-3.5,1-1-2.5-2.5-1-1.5,3.5v2l-.5,1-1.5-.5-2,2.5-3,.5,1,3.5-.5,1h-1.5v1.5h-1.5l-1,2,1,3,1,1-5,1-1.5,5.5-2.5,1v5l-3,3-3.5.5v2.5l1,.5,2,3.5,1.5,1.5.5,2h.5l-.5,4.5,1.5,1.5-.5,1,1.5.5,1,4.5,1.5,2.5,5.5,1.5v2.5l-1.5.5,1,5,.5,1-5-.5-1,1v1.5l-3.5.5v1.5h-2.5l.5,2.5-1.5,1-3-2-1.5,1.5v1l-2,.5-.5-4-2-1.5-1-3-.5-1-5,2-1-.5-.5-1.5.5-1-.5-1,.5-.5-.5-3.5h-1.5l-2-3-1.5.5-.5,1-2.5-1.5-1,1.5-2-2.5-2.5,2.5-3-1-1-2.5-1-.5-.5-2h-1.5l-3.5-2.5-2,.5v-3h-2.5l1-1.5-.5-1-2-1.5-2.5-4-1.5-.5,1-1.5-1-.5.5-4.5-1-1-.5-3.5,1.5-2.5v-1l-6.5-3.5-2,2-4-.5-1.5-1.5-1.5,1.5-2-1-.5,1.5-1-2.5,2-3-.5-2.5-2-.5-2,1-2.5-1v-3l-3,1.5-1-.5-.5-2-1-.5,1-3-1-.5v-1l-3-.5-2.5-3.5.5-1-1-1v-2.5l1-2.5-.5-2-2-2h-2.5"/>
      <path data-code="ZAB-ULJ" d="m195.16,512.01l2,1,1-1-3-2v2m-62.5,133.5l1-1.5-.5-1-.5-2.5,3.5.5,2-2.5-1-.5-.5-2.5-.5-1-1,1-.5-1.5-.5-.5.5-1-1-.5-1.5-3.5-1-1,.5-2.5-1.5-1.5,1-2-.5-1.5,1-1-1.5-3,2,.5v-1l3-1.5.5-1.5,1,.5v-1.5l-1-.5,1-1-.5-4-2.5-2.5-1.5-2,1-2.5-1.5-3.5,1-2-.5-.5-.5-2.5,1-3.5-.5-2.5-1-.5h-3.5l-2,1.5-4-3.5,1-1.5-1.5-1.5,1.5-1.5-.5-2,.5-3.5-.5-.5.5-.5-.5-1-.5-2,1-1v-3l1-3-1-1-1-1.5,3-1v1l1-.5,2.5-2.5v-2.5h1.5l2.5-3,1.5-.5.5,1,6-2.5,1.5-3,3-1.5,1-3h1.5v-2l1.5-1v-2l5-4-.5-2,1-1.5,2,.5,2-4.5,1.5.5,1-3,2.5-.5.5-2.5,1,.5,3.5-5,1,1,.5-1,6-1,1-1.5.5-3-.5-1,2-.5v-1.5l3.5-3,8.5,1.5,2.5-1.5,3.5,1,5-2,2.5,2.5-.5,2,1,2.5-.5.5v3.5l1,1-.5,2.5,1,1-1,.5-.5,3-1,.5.5,1.5v2l-.5,1.5-.5-.5-.5,4-1,1v2.5h-1.5v2l-.5,2.5-1.5-1-.5,2-6,2-2-1.5-3.5,1,.5,3-1,.5.5,1.5h-1l-.5,4-4,3-1,6.5-1.5,1,1,1.5-1,2,3,2,1.5,2.5,3.5,1,1.5-2.5,1.5.5,1,1.5,2.5-1,3,1v4.5l-3,4,.5,1-.5,1.5.5.5v3.5l-.5,2.5-1,1-2.5-.5-1.5,2.5.5,1.5-1,4,.5,5-3.5.5-1-1.5h-4l-1.5,1-4.5,1-.5,2-2,.5-.5,2.5-1-1-2.5-.5.5,2-.5.5.5,1-.5,2.5h-1l1,2-1,2-2-1-2,.5-.5-2-2,.5-.5-1-1.5,2.5-4,.5,1,1.5h-1l1,1-1,2-.5-1-1,.5-2.5,3.5,1,1.5-1,1,1,2,.5-.5v1.5l-1.5,2-3,1.5,1,2-1,2.5.5.5v4.5l.5.5-.5,1.5.5,1h-1l.5,2-3.5,2,1,2.5-1.5,3.5-4,.5-1-.5-.5-2-2,.5-1-4,1-1-1.5.5-.5-1"/>
      <path data-code="ZAB-ZAB" d="m345.16,588.01l-.5-2,7.5-2.5,1-8h3.5l3-2.5,1.5,2,3.5-3,1.5,5.5,3-3,6.5-2.5v-3.5l.5-3,2.5,1.5,1.5-1.5,1,.5.5-1,2.5-1,14.5,6,3,4.5,4.5-.5,2,1.5-.5,4.5,2,2,1-1.5,5,1,1.5,2-.5,1,.5,2.5-1,3.5,3.5,4.5-1,1.5,3.5,1.5-1.5,3,1,3-2,1.5.5,1.5-1,.5-1.5-1.5-2.5,2-13.5-4.5-8.5,2-9-1.5-15.5-7-6-5.5-17.5-3.5"/>
      <path data-code="ZAB-ZGO" d="m198.16,512.01l-1,1-2-1v-2l3,2Z"/>
</svg>