<?xml version="1.0" encoding="utf-8"?>
<!-- Generator: Adobe Illustrator 27.4.1, SVG Export Plug-In . SVG Version: 6.00 Build 0)  -->
<svg version="1.1" id="Слой_1" xmlns="http://www.w3.org/2000/svg" xmlns:xlink="http://www.w3.org/1999/xlink" x="0px" y="0px"
	 viewBox="0 0 841.89 595.28" style="enable-background:new 0 0 841.89 595.28;" xml:space="preserve">
<style type="text/css">
	.st0{fill:#6B66CC;}
	.st1{fill:#394B77;}
	.st2{fill:url(#SVGID_1_);}
	.st3{fill:#6B66CE;}
	.st4{fill:#F9F9F9;}
	.st5{fill:url(#SVGID_00000030461817444337182240000000001218591938656443_);}
	.st6{fill:url(#SVGID_00000097497370537975489310000000009039826885193642_);}
	.st7{fill:url(#SVGID_00000094615285625119590210000000031780728021755042_);}
	.st8{fill:#C7C7C7;}
	.st9{fill:#D9D9D9;}
	.st10{fill:url(#SVGID_00000050636112899193103960000014643090211949558173_);}
	.st11{fill:#F7F7F7;}
	.st12{fill:url(#SVGID_00000034803721230008460600000013631982986325119641_);}
	.st13{fill:url(#SVGID_00000036972895423757598590000015435549394846719105_);}
	.st14{fill:url(#SVGID_00000052799230122988219690000004895692745872159934_);}
	.st15{fill:url(#SVGID_00000047057918473385602450000010959902736671196582_);}
	.st16{fill:url(#SVGID_00000033336485666149803210000017232878588269931197_);}
	.st17{fill:url(#SVGID_00000072991874122766288180000004003431908399569555_);}
	.st18{fill:url(#SVGID_00000132072476502470600330000001503958473309800081_);}
	.st19{fill:url(#SVGID_00000002384353337595966630000001738391617854905223_);}
	.st20{fill:url(#SVGID_00000020359770794211745690000005976996482867595678_);}
	.st21{fill:url(#SVGID_00000047777834514153555570000017563668101349307812_);}
	.st22{fill:url(#SVGID_00000013873382701074988350000012083903031421486472_);}
	.st23{fill:url(#SVGID_00000021841540019862560400000005596340330311972256_);}
	.st24{fill:url(#SVGID_00000180355998611101490780000013824379905997943187_);}
	.st25{fill:url(#SVGID_00000022527989627736433790000008062731786473662346_);}
	.st26{fill:url(#SVGID_00000039115233372065479810000015598270882327696556_);}
	.st27{fill:#DDF1FA;}
	.st28{fill:#73AFE0;}
	.st29{fill:url(#SVGID_00000118383858494928703160000012281011891819703217_);}
	.st30{fill:url(#SVGID_00000044893190873285746690000014040528696656298917_);}
	.st31{fill:url(#SVGID_00000134228791637587046890000005381633947958936199_);}
	.st32{fill:url(#SVGID_00000042017509350537814780000011282956682404586898_);}
	.st33{fill:url(#SVGID_00000074436649444667162710000005374184106780326540_);}
	.st34{fill:url(#SVGID_00000018195584828097947390000004336836364029094076_);}
	.st35{fill:url(#SVGID_00000011739297027461600380000010797763575987267234_);}
	.st36{fill:url(#SVGID_00000121985609601438154460000003371761781146960821_);}
	.st37{fill:url(#SVGID_00000159430893327741062300000014392533514721287081_);}
	.st38{fill:url(#SVGID_00000037683013378691266290000002363743921375119488_);}
	.st39{fill:url(#SVGID_00000072981365803112811850000014013041852968626861_);}
	.st40{fill:url(#SVGID_00000096022736599815829260000007778931747468799910_);}
	.st41{fill:url(#SVGID_00000008144064303435578590000013631988099299720078_);}
	.st42{fill:url(#SVGID_00000175281726252152803820000007544161496483833262_);}
	.st43{fill:url(#SVGID_00000016754186443487712450000016802682300745983373_);}
	.st44{fill:url(#SVGID_00000156562666998054380030000010334138228694614174_);}
	.st45{fill:#FFFFFF;}
	.st46{fill:#373380;}
	.st47{fill:#9E99FF;}
	.st48{fill:#6681E3;}
	.st49{fill:#FD5900;}
	.st50{fill:#F7F6F6;}
	.st51{fill:url(#SVGID_00000060017236534092725290000016254777625084065186_);}
	.st52{fill:url(#SVGID_00000176040417973904426130000001010320076786399628_);}
	.st53{fill:url(#SVGID_00000096037452573997117190000016910803001970582674_);}
	.st54{fill:url(#SVGID_00000022545393631838799840000006785065035809223558_);}
	.st55{fill:url(#SVGID_00000121998457341410502730000017429498396871477695_);}
	.st56{fill:url(#SVGID_00000034770405647974190080000016602078671784020099_);}
	.st57{fill:url(#SVGID_00000153696251337640817980000017309855510366945682_);}
	.st58{fill:url(#SVGID_00000003791281082995710120000007185548410025733258_);}
	.st59{fill:url(#SVGID_00000106126080466690055090000007334877323646646925_);}
	.st60{fill:url(#SVGID_00000080190992821269765780000006999924598694227360_);}
	.st61{fill:url(#SVGID_00000047741828925316983190000009402616741435103125_);}
	.st62{fill:url(#SVGID_00000176005588419145695150000005600965646855649692_);}
	.st63{fill:url(#SVGID_00000019650424120177676070000006257448676436075658_);}
	.st64{fill:url(#SVGID_00000181085889260491167040000007066342256883365309_);}
</style>
<g>
	<g>
		<g>
			<g>
				<path class="st4" d="M131.14,252.1c-1-0.7-1.51-1.82-1.51-3.35s0.5-2.65,1.51-3.34c1.01-0.7,2.36-1.05,4.07-1.05v-0.74
					c0-0.2,0.07-0.36,0.21-0.5c0.14-0.14,0.31-0.21,0.52-0.21h1.38c0.2,0,0.38,0.07,0.51,0.21c0.14,0.14,0.2,0.3,0.2,0.5v0.74
					c1.71,0,3.06,0.35,4.07,1.05c1.01,0.7,1.51,1.81,1.51,3.34s-0.5,2.65-1.51,3.35c-1.01,0.7-2.36,1.05-4.07,1.05v0.73
					c0,0.19-0.07,0.36-0.21,0.5c-0.14,0.14-0.31,0.21-0.51,0.21h-1.38c-0.19,0-0.36-0.07-0.51-0.21c-0.14-0.14-0.22-0.3-0.22-0.5
					v-0.73C133.5,253.15,132.15,252.8,131.14,252.1z M133.21,246.97c-0.51,0.39-0.76,0.99-0.76,1.78s0.25,1.39,0.76,1.79
					s1.2,0.59,2.08,0.59v-4.75C134.41,246.38,133.72,246.58,133.21,246.97z M137.95,251.13c0.88,0,1.57-0.2,2.08-0.59
					c0.51-0.39,0.76-0.99,0.76-1.79s-0.25-1.39-0.76-1.78c-0.51-0.39-1.2-0.59-2.08-0.59V251.13z"/>
				<path class="st4" d="M144.98,253.4v-9.31c0-0.19,0.07-0.36,0.21-0.49c0.14-0.13,0.31-0.2,0.5-0.2h8.63
					c0.19,0,0.36,0.07,0.5,0.21c0.14,0.14,0.21,0.31,0.21,0.5v0.7c0,0.2-0.07,0.36-0.21,0.5c-0.14,0.14-0.3,0.2-0.5,0.2h-6.52v2.17
					h5.61c0.19,0,0.36,0.07,0.5,0.21c0.14,0.14,0.2,0.3,0.2,0.5v0.71c0,0.2-0.07,0.36-0.2,0.5c-0.14,0.14-0.3,0.21-0.5,0.21h-5.61
					V252h6.5c0.19,0,0.36,0.07,0.49,0.2c0.13,0.13,0.2,0.3,0.2,0.49v0.72c0,0.19-0.07,0.36-0.21,0.5c-0.14,0.14-0.31,0.2-0.5,0.2
					h-8.59c-0.19,0-0.36-0.07-0.5-0.2C145.05,253.77,144.98,253.6,144.98,253.4z"/>
				<path class="st4" d="M155.32,253.41v-0.72c0-0.19,0.07-0.36,0.2-0.49s0.3-0.2,0.49-0.2h0.58l1.39-5.66
					c0.48-1.96,2.1-2.94,4.87-2.95h4.04c0.2,0,0.36,0.07,0.5,0.2s0.21,0.3,0.21,0.49v9.34c0,0.2-0.07,0.36-0.21,0.49
					c-0.14,0.13-0.3,0.2-0.5,0.2h-10.88c-0.19,0-0.36-0.07-0.5-0.2C155.39,253.77,155.32,253.61,155.32,253.41z M159.5,252h5.28
					v-6.49h-2.22c-0.47,0-0.85,0.13-1.16,0.39c-0.31,0.26-0.52,0.62-0.64,1.09L159.5,252z"/>
				<path class="st4" d="M169.74,253.4v-9.31c0-0.19,0.07-0.36,0.21-0.49c0.14-0.13,0.31-0.2,0.5-0.2h8.63
					c0.19,0,0.36,0.07,0.5,0.21c0.14,0.14,0.21,0.31,0.21,0.5v0.7c0,0.2-0.07,0.36-0.21,0.5c-0.14,0.14-0.3,0.2-0.5,0.2h-6.52v2.17
					h5.61c0.19,0,0.36,0.07,0.5,0.21s0.2,0.3,0.2,0.5v0.71c0,0.2-0.07,0.36-0.2,0.5c-0.14,0.14-0.3,0.21-0.5,0.21h-5.61V252h6.5
					c0.19,0,0.36,0.07,0.49,0.2s0.2,0.3,0.2,0.49v0.72c0,0.19-0.07,0.36-0.21,0.5c-0.14,0.14-0.31,0.2-0.5,0.2h-8.59
					c-0.19,0-0.36-0.07-0.5-0.2C169.81,253.77,169.74,253.6,169.74,253.4z"/>
				<path class="st4" d="M181.14,253.41v-9.31c0-0.2,0.07-0.36,0.2-0.5c0.14-0.14,0.3-0.21,0.49-0.21h5.71
					c3.01,0,4.52,1.39,4.52,4.17c0,2.78-1.5,4.17-4.52,4.17h-3.58v1.68c0,0.19-0.07,0.36-0.2,0.5c-0.14,0.14-0.3,0.2-0.5,0.2h-1.41
					c-0.19,0-0.36-0.07-0.5-0.2C181.21,253.77,181.14,253.61,181.14,253.41z M183.96,249.61h2.73c0.84,0,1.47-0.14,1.91-0.42
					c0.44-0.28,0.65-0.82,0.65-1.63c0-0.81-0.22-1.35-0.65-1.63c-0.43-0.28-1.07-0.42-1.91-0.42h-2.73V249.61z"/>
				<path class="st4" d="M192.56,253.43l1.88-7.12c0.51-1.94,2.16-2.91,4.97-2.92h4.03c0.18,0,0.34,0.07,0.46,0.21
					c0.12,0.14,0.18,0.3,0.18,0.49v9.34c0,0.2-0.07,0.36-0.21,0.49c-0.14,0.13-0.31,0.2-0.5,0.2h-1.41c-0.2,0-0.37-0.07-0.5-0.2
					c-0.13-0.13-0.2-0.3-0.2-0.51v-1.88h-5.3l-0.51,1.89c-0.05,0.2-0.16,0.37-0.34,0.5c-0.18,0.13-0.36,0.2-0.56,0.2h-1.48
					c-0.19,0-0.34-0.07-0.44-0.2c-0.07-0.09-0.11-0.19-0.11-0.31C192.53,253.55,192.54,253.49,192.56,253.43z M196.53,249.41h4.73
					v-3.91h-2.12c-0.48,0-0.89,0.14-1.25,0.41c-0.36,0.27-0.59,0.64-0.72,1.1L196.53,249.41z"/>
				<path class="st4" d="M205.34,253.49l1.9-7.18c0.51-1.94,2.16-2.91,4.96-2.92h3.74c0.18,0,0.32,0.07,0.45,0.22
					c0.12,0.15,0.18,0.31,0.18,0.49v9.31c0,0.19-0.07,0.36-0.2,0.5c-0.13,0.14-0.29,0.2-0.49,0.2h-1.43c-0.19,0-0.36-0.07-0.5-0.2
					c-0.14-0.14-0.21-0.3-0.21-0.5v-7.91h-1.82c-0.48,0-0.89,0.14-1.25,0.41c-0.36,0.27-0.59,0.64-0.72,1.1l-1.71,6.4
					c-0.05,0.2-0.16,0.37-0.34,0.5c-0.18,0.13-0.36,0.2-0.56,0.2h-1.53c-0.18,0-0.31-0.07-0.41-0.19c-0.07-0.09-0.11-0.19-0.11-0.29
					C205.32,253.59,205.33,253.54,205.34,253.49z"/>
				<path class="st4" d="M218.7,253.4v-9.3c0-0.2,0.07-0.38,0.2-0.51c0.14-0.13,0.3-0.2,0.51-0.2h1.41c0.19,0,0.36,0.07,0.5,0.21
					c0.14,0.14,0.2,0.31,0.2,0.5v2.93h3.7c1.18,0,2.15,0.31,2.92,0.94c0.77,0.63,1.15,1.49,1.15,2.61c0,1.11-0.39,1.98-1.16,2.6
					c-0.77,0.62-1.74,0.94-2.92,0.94h-5.84c-0.18,0-0.34-0.07-0.48-0.21C218.77,253.76,218.7,253.59,218.7,253.4z M221.52,252h3.7
					c0.84,0,1.26-0.48,1.26-1.43c0-0.95-0.42-1.42-1.26-1.42h-3.7V252z"/>
				<path class="st4" d="M230.66,253.41v-9.31c0-0.2,0.07-0.36,0.21-0.5c0.14-0.14,0.31-0.21,0.52-0.21h1.39
					c0.19,0,0.36,0.07,0.5,0.21c0.14,0.14,0.2,0.31,0.2,0.5v3.37h5.15v-3.37c0-0.2,0.07-0.36,0.21-0.5c0.14-0.14,0.31-0.21,0.5-0.21
					h1.39c0.2,0,0.38,0.07,0.51,0.21c0.14,0.14,0.2,0.31,0.2,0.5v9.31c0,0.19-0.07,0.36-0.21,0.5c-0.14,0.14-0.31,0.2-0.51,0.2
					h-1.39c-0.19,0-0.36-0.07-0.5-0.2c-0.14-0.13-0.21-0.3-0.21-0.49v-3.84h-5.15v3.84c0,0.2-0.07,0.36-0.2,0.49
					c-0.14,0.13-0.3,0.2-0.5,0.2h-1.39c-0.19,0-0.36-0.07-0.51-0.2C230.74,253.77,230.66,253.61,230.66,253.41z"/>
				<path class="st4" d="M244.51,253.01c-1.02-0.89-1.53-2.31-1.53-4.25s0.51-3.36,1.53-4.25c1.02-0.89,2.52-1.34,4.49-1.34
					s3.47,0.45,4.49,1.34c1.02,0.89,1.53,2.31,1.53,4.25s-0.51,3.36-1.53,4.25c-1.02,0.89-2.51,1.34-4.49,1.34
					S245.53,253.9,244.51,253.01z M246.56,246.08c-0.51,0.6-0.76,1.49-0.76,2.68c0,1.19,0.25,2.08,0.76,2.67
					c0.51,0.6,1.32,0.9,2.45,0.9c1.12,0,1.94-0.3,2.44-0.9c0.5-0.6,0.76-1.49,0.76-2.67c0-1.19-0.25-2.08-0.76-2.68
					c-0.5-0.6-1.32-0.9-2.44-0.9C247.88,245.18,247.06,245.48,246.56,246.08z"/>
				<path class="st4" d="M256.55,253.4v-9.31c0-0.19,0.07-0.36,0.21-0.49c0.14-0.13,0.31-0.2,0.5-0.2h8.63
					c0.19,0,0.36,0.07,0.5,0.21c0.14,0.14,0.21,0.31,0.21,0.5v0.7c0,0.2-0.07,0.36-0.21,0.5c-0.14,0.14-0.3,0.2-0.5,0.2h-6.52v2.17
					h5.61c0.19,0,0.36,0.07,0.5,0.21s0.2,0.3,0.2,0.5v0.71c0,0.2-0.07,0.36-0.2,0.5c-0.14,0.14-0.3,0.21-0.5,0.21h-5.61V252h6.5
					c0.19,0,0.36,0.07,0.49,0.2s0.2,0.3,0.2,0.49v0.72c0,0.19-0.07,0.36-0.21,0.5c-0.14,0.14-0.31,0.2-0.5,0.2h-8.59
					c-0.19,0-0.36-0.07-0.5-0.2C256.62,253.77,256.55,253.6,256.55,253.4z"/>
				<path class="st4" d="M273.31,253.43v-9.33c0-0.2,0.07-0.38,0.2-0.51c0.14-0.13,0.3-0.2,0.51-0.2h7.23c0.2,0,0.37,0.07,0.51,0.2
					s0.2,0.3,0.2,0.51v0.7c0,0.2-0.07,0.37-0.2,0.51s-0.3,0.2-0.51,0.2h-5.12v7.92c0,0.2-0.07,0.36-0.2,0.49
					c-0.14,0.13-0.3,0.2-0.5,0.2h-1.41c-0.19,0-0.36-0.07-0.5-0.2C273.38,253.79,273.31,253.62,273.31,253.43z"/>
				<path class="st4" d="M284.09,253.01c-1.02-0.89-1.53-2.31-1.53-4.25s0.51-3.36,1.53-4.25c1.02-0.89,2.52-1.34,4.49-1.34
					s3.47,0.45,4.49,1.34c1.02,0.89,1.53,2.31,1.53,4.25s-0.51,3.36-1.53,4.25c-1.02,0.89-2.51,1.34-4.49,1.34
					S285.11,253.9,284.09,253.01z M286.14,246.08c-0.51,0.6-0.76,1.49-0.76,2.68c0,1.19,0.25,2.08,0.76,2.67
					c0.51,0.6,1.32,0.9,2.45,0.9c1.12,0,1.94-0.3,2.44-0.9c0.5-0.6,0.76-1.49,0.76-2.67c0-1.19-0.25-2.08-0.76-2.68
					c-0.5-0.6-1.32-0.9-2.44-0.9C287.46,245.18,286.64,245.48,286.14,246.08z"/>
				<path class="st4" d="M296.9,252.85c-0.92-0.88-1.39-2.25-1.39-4.1s0.47-3.21,1.4-4.1c0.93-0.88,2.33-1.33,4.2-1.33h1.68
					c1.14,0,2.15,0.29,3.03,0.88c0.88,0.59,1.32,1.39,1.32,2.42c0,0.3-0.09,0.51-0.27,0.63c-0.18,0.13-0.36,0.19-0.53,0.19h-0.92
					c-0.48,0-0.84-0.27-1.11-0.82c-0.37-0.79-0.98-1.18-1.84-1.18h-1.33c-1.09,0-1.83,0.23-2.22,0.7c-0.39,0.47-0.58,1.33-0.58,2.6
					s0.19,2.13,0.58,2.6c0.39,0.47,1.13,0.71,2.22,0.71h1.49c0.86,0,1.47-0.39,1.83-1.18c0.25-0.55,0.61-0.82,1.08-0.82h0.89
					c0.09,0,0.19,0.02,0.29,0.05c0.1,0.04,0.21,0.13,0.31,0.26c0.11,0.14,0.16,0.3,0.16,0.51c0,1.02-0.43,1.83-1.3,2.42
					c-0.87,0.59-1.87,0.88-3,0.88h-1.83C299.21,254.18,297.83,253.73,296.9,252.85z"/>
				<path class="st4" d="M307.79,244.1c-0.04-0.09-0.06-0.18-0.06-0.27c0-0.08,0.02-0.16,0.06-0.23c0.08-0.14,0.22-0.21,0.41-0.21
					h1.58c0.48,0,0.81,0.23,1,0.68l0.86,2.08c0.26,0.6,0.57,1.05,0.96,1.35c0.38,0.3,0.89,0.44,1.52,0.44h0.92l1.35-3.86
					c0.07-0.21,0.19-0.38,0.37-0.51c0.17-0.13,0.36-0.19,0.57-0.19h1.51c0.19,0,0.34,0.07,0.43,0.2c0.06,0.08,0.08,0.17,0.08,0.27
					c0,0.06-0.01,0.13-0.04,0.21l-2.44,6.98c-0.34,0.98-0.85,1.74-1.53,2.27c-0.68,0.53-1.64,0.8-2.86,0.8h-1.8
					c-0.19,0-0.36-0.07-0.5-0.19c-0.14-0.13-0.21-0.28-0.21-0.47v-0.79c0-0.18,0.07-0.34,0.2-0.47c0.14-0.13,0.3-0.19,0.51-0.19
					h0.24c0.13,0,0.34,0,0.62,0c0.28,0,0.49,0,0.64,0h0.16c0.99,0,1.67-0.65,2.03-1.94h-0.64c-1.26,0-2.24-0.26-2.94-0.77
					c-0.7-0.51-1.31-1.35-1.81-2.5L307.79,244.1z"/>
				<path class="st4" d="M319.51,253.41v-0.72c0-0.19,0.07-0.36,0.2-0.49s0.3-0.2,0.49-0.2h0.58l1.39-5.66
					c0.48-1.96,2.1-2.94,4.87-2.95h4.04c0.2,0,0.36,0.07,0.5,0.2c0.14,0.13,0.21,0.3,0.21,0.49v9.34c0,0.2-0.07,0.36-0.21,0.49
					c-0.14,0.13-0.3,0.2-0.5,0.2h-10.88c-0.19,0-0.36-0.07-0.5-0.2C319.58,253.77,319.51,253.61,319.51,253.41z M323.69,252h5.28
					v-6.49h-2.22c-0.47,0-0.85,0.13-1.16,0.39c-0.31,0.26-0.52,0.62-0.64,1.09L323.69,252z"/>
				<path class="st4" d="M333.04,253.43l1.88-7.12c0.51-1.94,2.16-2.91,4.97-2.92h4.03c0.18,0,0.34,0.07,0.46,0.21
					c0.12,0.14,0.18,0.3,0.18,0.49v9.34c0,0.2-0.07,0.36-0.21,0.49c-0.14,0.13-0.31,0.2-0.5,0.2h-1.41c-0.2,0-0.37-0.07-0.5-0.2
					c-0.13-0.13-0.2-0.3-0.2-0.51v-1.88h-5.3l-0.51,1.89c-0.05,0.2-0.16,0.37-0.34,0.5c-0.18,0.13-0.36,0.2-0.56,0.2h-1.48
					c-0.19,0-0.34-0.07-0.44-0.2c-0.07-0.09-0.11-0.19-0.11-0.31C333.02,253.55,333.03,253.49,333.04,253.43z M337.01,249.41h4.73
					v-3.91h-2.12c-0.48,0-0.89,0.14-1.25,0.41c-0.36,0.27-0.59,0.64-0.72,1.1L337.01,249.41z"/>
				<path class="st4" d="M346.7,253.41v-9.31c0-0.2,0.07-0.36,0.2-0.5c0.14-0.14,0.3-0.21,0.49-0.21h5.71
					c3.01,0,4.52,1.39,4.52,4.17c0,2.78-1.5,4.17-4.52,4.17h-3.58v1.68c0,0.19-0.07,0.36-0.2,0.5c-0.14,0.14-0.3,0.2-0.5,0.2h-1.41
					c-0.19,0-0.36-0.07-0.5-0.2C346.77,253.77,346.7,253.61,346.7,253.41z M349.52,249.61h2.73c0.84,0,1.47-0.14,1.91-0.42
					c0.44-0.28,0.65-0.82,0.65-1.63c0-0.81-0.22-1.35-0.65-1.63c-0.43-0.28-1.07-0.42-1.91-0.42h-2.73V249.61z"/>
				<path class="st4" d="M359.77,252.85c-0.92-0.88-1.39-2.25-1.39-4.1s0.47-3.21,1.4-4.1c0.93-0.88,2.33-1.33,4.2-1.33h1.68
					c1.14,0,2.15,0.29,3.03,0.88c0.88,0.59,1.32,1.39,1.32,2.42c0,0.3-0.09,0.51-0.27,0.63c-0.18,0.13-0.36,0.19-0.53,0.19h-0.92
					c-0.48,0-0.84-0.27-1.11-0.82c-0.37-0.79-0.98-1.18-1.84-1.18h-1.33c-1.09,0-1.83,0.23-2.22,0.7c-0.39,0.47-0.58,1.33-0.58,2.6
					s0.19,2.13,0.58,2.6c0.39,0.47,1.13,0.71,2.22,0.71h1.49c0.86,0,1.47-0.39,1.83-1.18c0.25-0.55,0.61-0.82,1.08-0.82h0.89
					c0.09,0,0.19,0.02,0.29,0.05c0.1,0.04,0.21,0.13,0.31,0.26c0.11,0.14,0.16,0.3,0.16,0.51c0,1.02-0.43,1.83-1.3,2.42
					c-0.87,0.59-1.87,0.88-3,0.88h-1.83C362.09,254.18,360.7,253.73,359.77,252.85z"/>
				<path class="st4" d="M370.6,244.8v-0.7c0-0.2,0.07-0.38,0.2-0.51c0.13-0.13,0.3-0.2,0.51-0.2h9.49c0.2,0,0.37,0.07,0.51,0.2
					c0.13,0.13,0.2,0.3,0.2,0.51v0.7c0,0.2-0.07,0.37-0.2,0.51c-0.14,0.13-0.3,0.2-0.51,0.2h-3.34v7.92c0,0.2-0.07,0.36-0.21,0.49
					c-0.14,0.13-0.3,0.2-0.5,0.2h-1.41c-0.19,0-0.36-0.07-0.5-0.2c-0.14-0.13-0.2-0.3-0.2-0.49v-7.92h-3.34
					c-0.2,0-0.37-0.07-0.51-0.2C370.66,245.18,370.6,245.01,370.6,244.8z"/>
				<path class="st4" d="M382.73,244.1c0-0.2,0.07-0.36,0.21-0.5c0.14-0.14,0.31-0.21,0.5-0.21h6.08c0.68,0,1.31,0.09,1.87,0.28
					c0.56,0.19,1.04,0.52,1.43,0.99c0.39,0.47,0.59,1.06,0.59,1.75c0,0.77-0.34,1.43-1.01,1.97c0.96,0.51,1.44,1.34,1.44,2.5
					c0,1.03-0.38,1.82-1.15,2.39c-0.77,0.57-1.7,0.85-2.82,0.85h-6.43c-0.19,0-0.36-0.07-0.5-0.2c-0.14-0.14-0.21-0.3-0.21-0.5
					V244.1z M385.55,247.5h4c0.31,0,0.57-0.09,0.75-0.28c0.19-0.18,0.28-0.44,0.28-0.77c0-0.33-0.09-0.59-0.28-0.77
					c-0.19-0.18-0.44-0.28-0.75-0.28h-4V247.5z M385.55,252.1h4.28c0.39,0,0.69-0.11,0.89-0.34c0.2-0.23,0.3-0.54,0.3-0.94
					c0-0.4-0.1-0.71-0.31-0.94c-0.2-0.23-0.5-0.34-0.88-0.34h-4.28V252.1z"/>
				<path class="st4" d="M395.36,253.4v-9.31c0-0.19,0.07-0.36,0.21-0.49s0.31-0.2,0.5-0.2h8.63c0.19,0,0.36,0.07,0.5,0.21
					c0.14,0.14,0.21,0.31,0.21,0.5v0.7c0,0.2-0.07,0.36-0.21,0.5c-0.14,0.14-0.3,0.2-0.5,0.2h-6.52v2.17h5.61
					c0.19,0,0.36,0.07,0.5,0.21c0.14,0.14,0.2,0.3,0.2,0.5v0.71c0,0.2-0.07,0.36-0.2,0.5c-0.14,0.14-0.3,0.21-0.5,0.21h-5.61V252
					h6.5c0.19,0,0.36,0.07,0.49,0.2s0.2,0.3,0.2,0.49v0.72c0,0.19-0.07,0.36-0.21,0.5c-0.14,0.14-0.31,0.2-0.5,0.2h-8.59
					c-0.19,0-0.36-0.07-0.5-0.2C395.43,253.77,395.36,253.6,395.36,253.4z"/>
				<path class="st4" d="M406.77,253.41v-9.31c0-0.2,0.07-0.36,0.21-0.5c0.14-0.14,0.31-0.21,0.52-0.21h1.39
					c0.19,0,0.36,0.07,0.5,0.21c0.14,0.14,0.2,0.31,0.2,0.5v3.37h5.15v-3.37c0-0.2,0.07-0.36,0.21-0.5c0.14-0.14,0.31-0.21,0.5-0.21
					h1.39c0.2,0,0.38,0.07,0.51,0.21c0.14,0.14,0.2,0.31,0.2,0.5v9.31c0,0.19-0.07,0.36-0.21,0.5c-0.14,0.14-0.31,0.2-0.51,0.2
					h-1.39c-0.19,0-0.36-0.07-0.5-0.2c-0.14-0.13-0.21-0.3-0.21-0.49v-3.84h-5.15v3.84c0,0.2-0.07,0.36-0.2,0.49
					c-0.14,0.13-0.3,0.2-0.5,0.2h-1.39c-0.19,0-0.36-0.07-0.51-0.2C406.84,253.77,406.77,253.61,406.77,253.41z"/>
				<path class="st4" d="M419.69,253.41v-9.31c0-0.2,0.07-0.36,0.21-0.5c0.14-0.14,0.31-0.21,0.52-0.21h1.39
					c0.19,0,0.36,0.07,0.5,0.21c0.14,0.14,0.2,0.31,0.2,0.5v3.37h5.15v-3.37c0-0.2,0.07-0.36,0.21-0.5c0.14-0.14,0.31-0.21,0.5-0.21
					h1.39c0.2,0,0.38,0.07,0.51,0.21c0.14,0.14,0.2,0.31,0.2,0.5v9.31c0,0.19-0.07,0.36-0.21,0.5c-0.14,0.14-0.31,0.2-0.51,0.2
					h-1.39c-0.19,0-0.36-0.07-0.5-0.2c-0.14-0.13-0.21-0.3-0.21-0.49v-3.84h-5.15v3.84c0,0.2-0.07,0.36-0.2,0.49
					c-0.14,0.13-0.3,0.2-0.5,0.2h-1.39c-0.19,0-0.36-0.07-0.51-0.2C419.77,253.77,419.69,253.61,419.69,253.41z"/>
				<path class="st4" d="M433.54,253.01c-1.02-0.89-1.53-2.31-1.53-4.25s0.51-3.36,1.53-4.25c1.02-0.89,2.52-1.34,4.49-1.34
					s3.47,0.45,4.49,1.34c1.02,0.89,1.53,2.31,1.53,4.25s-0.51,3.36-1.53,4.25c-1.02,0.89-2.51,1.34-4.49,1.34
					S434.56,253.9,433.54,253.01z M435.59,246.08c-0.51,0.6-0.76,1.49-0.76,2.68c0,1.19,0.25,2.08,0.76,2.67
					c0.51,0.6,1.32,0.9,2.45,0.9c1.12,0,1.94-0.3,2.44-0.9c0.5-0.6,0.76-1.49,0.76-2.67c0-1.19-0.25-2.08-0.76-2.68
					c-0.5-0.6-1.32-0.9-2.44-0.9C436.91,245.18,436.09,245.48,435.59,246.08z"/>
				<path class="st4" d="M445.58,253.4v-9.31c0-0.19,0.07-0.36,0.21-0.49c0.14-0.13,0.31-0.2,0.5-0.2h8.63
					c0.19,0,0.36,0.07,0.5,0.21c0.14,0.14,0.21,0.31,0.21,0.5v0.7c0,0.2-0.07,0.36-0.21,0.5c-0.14,0.14-0.3,0.2-0.5,0.2h-6.52v2.17
					h5.61c0.19,0,0.36,0.07,0.5,0.21c0.14,0.14,0.2,0.3,0.2,0.5v0.71c0,0.2-0.07,0.36-0.2,0.5c-0.14,0.14-0.3,0.21-0.5,0.21h-5.61
					V252h6.5c0.19,0,0.36,0.07,0.49,0.2s0.2,0.3,0.2,0.49v0.72c0,0.19-0.07,0.36-0.21,0.5c-0.14,0.14-0.31,0.2-0.5,0.2h-8.59
					c-0.19,0-0.36-0.07-0.5-0.2C445.65,253.77,445.58,253.6,445.58,253.4z"/>
				<path class="st4" d="M462.34,253.43v-9.33c0-0.2,0.07-0.38,0.2-0.51c0.14-0.13,0.3-0.2,0.51-0.2h8.42c0.2,0,0.36,0.07,0.5,0.21
					c0.14,0.14,0.2,0.31,0.2,0.5v0.7c0,0.2-0.07,0.36-0.2,0.5c-0.13,0.14-0.3,0.2-0.49,0.2h-6.33v1.8h3.7c1.22,0,2.2,0.29,2.95,0.86
					s1.13,1.42,1.13,2.55c0,1.13-0.38,1.97-1.13,2.55s-1.74,0.86-2.95,0.86h-5.84c-0.19,0-0.36-0.07-0.48-0.2
					C462.4,253.79,462.34,253.62,462.34,253.43z M465.16,252h3.7c0.84,0,1.26-0.43,1.26-1.29c0-0.86-0.42-1.29-1.26-1.29h-3.7V252z"
					/>
				<path class="st4" d="M474.45,253.41v-9.31c0-0.2,0.07-0.36,0.21-0.5c0.14-0.14,0.31-0.21,0.51-0.21h1.41
					c0.19,0,0.36,0.07,0.49,0.21c0.14,0.14,0.2,0.31,0.2,0.5v3.36h1.41c0.42-2.87,2.3-4.3,5.64-4.3c3.79,0,5.68,1.86,5.68,5.59
					s-1.89,5.59-5.68,5.59c-3.51,0-5.41-1.59-5.68-4.76h-1.36v3.84c0,0.2-0.07,0.36-0.2,0.49c-0.14,0.13-0.3,0.2-0.49,0.2h-1.41
					c-0.19,0-0.36-0.07-0.5-0.2C474.52,253.77,474.45,253.61,474.45,253.41z M484.32,245.18c-1.91,0-2.86,1.19-2.86,3.57
					c0,2.38,0.95,3.57,2.86,3.57s2.86-1.19,2.86-3.57C487.18,246.38,486.22,245.18,484.32,245.18z"/>
				<path class="st4" d="M490.45,253.41v-0.72c0-0.19,0.07-0.36,0.2-0.49s0.3-0.2,0.49-0.2h0.58l1.39-5.66
					c0.48-1.96,2.1-2.94,4.87-2.95h4.04c0.2,0,0.36,0.07,0.5,0.2c0.14,0.13,0.21,0.3,0.21,0.49v9.34c0,0.2-0.07,0.36-0.21,0.49
					c-0.14,0.13-0.3,0.2-0.5,0.2h-10.88c-0.19,0-0.36-0.07-0.5-0.2C490.52,253.77,490.45,253.61,490.45,253.41z M494.64,252h5.28
					v-6.49h-2.22c-0.47,0-0.85,0.13-1.16,0.39c-0.31,0.26-0.52,0.62-0.64,1.09L494.64,252z"/>
				<path class="st4" d="M503.83,253.92c-0.02-0.04-0.02-0.08-0.02-0.13c0-0.11,0.04-0.23,0.13-0.37l1.87-2.98
					c0.26-0.41,0.57-0.79,0.92-1.13c0.35-0.34,0.69-0.55,1.01-0.62c-0.47-0.11-0.85-0.31-1.14-0.59c-0.29-0.28-0.55-0.63-0.79-1.06
					l-1.62-2.94c-0.08-0.15-0.13-0.29-0.13-0.41c0-0.03,0.01-0.07,0.02-0.1c0.03-0.14,0.15-0.21,0.34-0.21h1.73
					c0.45,0,0.81,0.24,1.08,0.73l1.16,2.06c0.29,0.53,0.61,0.91,0.94,1.15c0.33,0.24,0.72,0.36,1.16,0.36h0.34v-3.58
					c0-0.19,0.07-0.36,0.2-0.51c0.14-0.15,0.3-0.22,0.5-0.22h1.41c0.2,0,0.36,0.07,0.5,0.22c0.14,0.15,0.2,0.31,0.2,0.51v3.58h0.34
					c0.44,0,0.82-0.12,1.15-0.36s0.65-0.62,0.94-1.16l1.17-2.06c0.26-0.48,0.62-0.72,1.07-0.73h1.74c0.19,0,0.31,0.07,0.34,0.21
					c0.01,0.03,0.01,0.07,0.01,0.1c0,0.12-0.04,0.25-0.13,0.41l-1.62,2.94c-0.24,0.43-0.5,0.78-0.79,1.06
					c-0.29,0.28-0.67,0.48-1.15,0.59c0.33,0.07,0.67,0.28,1.01,0.62c0.35,0.34,0.65,0.72,0.92,1.12l1.86,2.98
					c0.09,0.15,0.13,0.27,0.13,0.37c0,0.05-0.01,0.09-0.02,0.13c-0.05,0.13-0.17,0.2-0.37,0.2h-1.72c-0.2,0-0.4-0.07-0.63-0.2
					c-0.22-0.14-0.4-0.3-0.52-0.5l-1.32-2.09c-0.31-0.51-0.63-0.89-0.95-1.15c-0.32-0.26-0.7-0.39-1.15-0.39h-0.34v3.64
					c0,0.2-0.07,0.36-0.2,0.49c-0.14,0.13-0.3,0.2-0.5,0.2h-1.41c-0.2,0-0.36-0.07-0.5-0.2c-0.14-0.13-0.2-0.3-0.2-0.49v-3.64h-0.34
					c-0.45,0-0.83,0.13-1.15,0.39c-0.32,0.26-0.63,0.64-0.95,1.15l-1.32,2.09c-0.13,0.19-0.3,0.36-0.52,0.5
					c-0.22,0.14-0.43,0.2-0.62,0.2h-1.72C504,254.12,503.88,254.05,503.83,253.92z"/>
				<path class="st4" d="M521.71,253.4v-9.31c0-0.19,0.07-0.36,0.21-0.49c0.14-0.13,0.31-0.2,0.5-0.2h8.63
					c0.19,0,0.36,0.07,0.5,0.21c0.14,0.14,0.21,0.31,0.21,0.5v0.7c0,0.2-0.07,0.36-0.21,0.5c-0.14,0.14-0.3,0.2-0.5,0.2h-6.52v2.17
					h5.61c0.19,0,0.36,0.07,0.5,0.21s0.2,0.3,0.2,0.5v0.71c0,0.2-0.07,0.36-0.2,0.5c-0.14,0.14-0.3,0.21-0.5,0.21h-5.61V252h6.5
					c0.19,0,0.36,0.07,0.49,0.2c0.13,0.13,0.2,0.3,0.2,0.49v0.72c0,0.19-0.07,0.36-0.21,0.5c-0.14,0.14-0.31,0.2-0.5,0.2h-8.59
					c-0.19,0-0.36-0.07-0.5-0.2C521.78,253.77,521.71,253.6,521.71,253.4z"/>
				<path class="st4" d="M532.2,244.8v-0.7c0-0.2,0.07-0.38,0.2-0.51c0.13-0.13,0.3-0.2,0.51-0.2h9.49c0.2,0,0.37,0.07,0.51,0.2
					c0.13,0.13,0.2,0.3,0.2,0.51v0.7c0,0.2-0.07,0.37-0.2,0.51c-0.14,0.13-0.3,0.2-0.51,0.2h-3.34v7.92c0,0.2-0.07,0.36-0.21,0.49
					c-0.14,0.13-0.3,0.2-0.5,0.2h-1.41c-0.19,0-0.36-0.07-0.5-0.2c-0.14-0.13-0.2-0.3-0.2-0.49v-7.92h-3.34
					c-0.2,0-0.37-0.07-0.51-0.2C532.27,245.18,532.2,245.01,532.2,244.8z"/>
				<path class="st4" d="M544.33,253.41v-9.31c0-0.2,0.07-0.36,0.21-0.5c0.14-0.14,0.31-0.21,0.52-0.21h1.39
					c0.19,0,0.36,0.07,0.5,0.21c0.14,0.14,0.2,0.31,0.2,0.5v3.37h5.15v-3.37c0-0.2,0.07-0.36,0.21-0.5c0.14-0.14,0.31-0.21,0.5-0.21
					h1.39c0.2,0,0.38,0.07,0.51,0.21c0.14,0.14,0.2,0.31,0.2,0.5v9.31c0,0.19-0.07,0.36-0.21,0.5c-0.14,0.14-0.31,0.2-0.51,0.2
					h-1.39c-0.19,0-0.36-0.07-0.5-0.2c-0.14-0.13-0.21-0.3-0.21-0.49v-3.84h-5.15v3.84c0,0.2-0.07,0.36-0.2,0.49
					c-0.14,0.13-0.3,0.2-0.5,0.2h-1.39c-0.19,0-0.36-0.07-0.51-0.2C544.41,253.77,544.33,253.61,544.33,253.41z"/>
				<path class="st4" d="M558.18,253.01c-1.02-0.89-1.53-2.31-1.53-4.25s0.51-3.36,1.53-4.25c1.02-0.89,2.52-1.34,4.49-1.34
					c1.97,0,3.47,0.45,4.49,1.34c1.02,0.89,1.53,2.31,1.53,4.25s-0.51,3.36-1.53,4.25c-1.02,0.89-2.51,1.34-4.49,1.34
					C560.7,254.35,559.2,253.9,558.18,253.01z M560.23,246.08c-0.51,0.6-0.76,1.49-0.76,2.68c0,1.19,0.25,2.08,0.76,2.67
					c0.51,0.6,1.32,0.9,2.45,0.9c1.12,0,1.94-0.3,2.44-0.9c0.5-0.6,0.76-1.49,0.76-2.67c0-1.19-0.25-2.08-0.76-2.68
					c-0.5-0.6-1.32-0.9-2.44-0.9C561.55,245.18,560.73,245.48,560.23,246.08z"/>
				<path class="st4" d="M570.22,253.4v-9.31c0-0.19,0.07-0.36,0.21-0.49c0.14-0.13,0.31-0.2,0.5-0.2h8.63
					c0.19,0,0.36,0.07,0.5,0.21c0.14,0.14,0.21,0.31,0.21,0.5v0.7c0,0.2-0.07,0.36-0.21,0.5c-0.14,0.14-0.3,0.2-0.5,0.2h-6.52v2.17
					h5.61c0.19,0,0.36,0.07,0.5,0.21c0.14,0.14,0.2,0.3,0.2,0.5v0.71c0,0.2-0.07,0.36-0.2,0.5c-0.14,0.14-0.3,0.21-0.5,0.21h-5.61
					V252h6.5c0.19,0,0.36,0.07,0.49,0.2c0.13,0.13,0.2,0.3,0.2,0.49v0.72c0,0.19-0.07,0.36-0.21,0.5c-0.14,0.14-0.31,0.2-0.5,0.2
					h-8.59c-0.19,0-0.36-0.07-0.5-0.2C570.29,253.77,570.22,253.6,570.22,253.4z"/>
				<path class="st4" d="M586.13,244.1c-0.04-0.09-0.06-0.18-0.06-0.27c0-0.08,0.02-0.16,0.06-0.23c0.08-0.14,0.22-0.21,0.41-0.21
					h1.58c0.48,0,0.81,0.23,1,0.68l0.86,2.08c0.26,0.6,0.57,1.05,0.96,1.35c0.38,0.3,0.89,0.44,1.52,0.44h0.92l1.35-3.86
					c0.07-0.21,0.19-0.38,0.37-0.51c0.17-0.13,0.36-0.19,0.57-0.19h1.51c0.19,0,0.34,0.07,0.43,0.2c0.06,0.08,0.08,0.17,0.08,0.27
					c0,0.06-0.01,0.13-0.04,0.21l-2.44,6.98c-0.34,0.98-0.85,1.74-1.53,2.27c-0.68,0.53-1.64,0.8-2.86,0.8h-1.8
					c-0.19,0-0.36-0.07-0.5-0.19c-0.14-0.13-0.21-0.28-0.21-0.47v-0.79c0-0.18,0.07-0.34,0.2-0.47c0.14-0.13,0.3-0.19,0.51-0.19
					h0.24c0.13,0,0.34,0,0.62,0c0.28,0,0.49,0,0.64,0h0.16c0.99,0,1.67-0.65,2.03-1.94h-0.64c-1.26,0-2.24-0.26-2.94-0.77
					c-0.7-0.51-1.31-1.35-1.81-2.5L586.13,244.1z"/>
				<path class="st4" d="M598.46,246.61v-2.51c0-0.2,0.07-0.36,0.21-0.5c0.14-0.14,0.31-0.21,0.5-0.21h1.4
					c0.19,0,0.36,0.07,0.5,0.21c0.14,0.14,0.21,0.31,0.21,0.5v2.51c0,1.21,0.6,1.81,1.8,1.81h2.9v-4.32c0-0.2,0.07-0.36,0.21-0.5
					c0.14-0.14,0.31-0.21,0.5-0.21h1.39c0.2,0,0.38,0.07,0.51,0.21c0.14,0.14,0.2,0.31,0.2,0.5v9.31c0,0.19-0.07,0.36-0.21,0.5
					c-0.14,0.14-0.31,0.2-0.5,0.2h-1.39c-0.2,0-0.36-0.07-0.5-0.2c-0.14-0.13-0.21-0.3-0.21-0.49v-2.89h-2.9
					c-1.42,0-2.55-0.33-3.38-0.98C598.87,248.91,598.46,247.92,598.46,246.61z"/>
				<path class="st4" d="M610.93,253.41v-9.31c0-0.2,0.07-0.36,0.2-0.5c0.14-0.14,0.3-0.21,0.49-0.21h5.71
					c3.01,0,4.52,1.39,4.52,4.17c0,2.78-1.5,4.17-4.52,4.17h-3.58v1.68c0,0.19-0.07,0.36-0.2,0.5c-0.14,0.14-0.3,0.2-0.5,0.2h-1.41
					c-0.19,0-0.36-0.07-0.5-0.2C611,253.77,610.93,253.61,610.93,253.41z M613.75,249.61h2.73c0.84,0,1.47-0.14,1.91-0.42
					c0.44-0.28,0.65-0.82,0.65-1.63c0-0.81-0.22-1.35-0.65-1.63c-0.43-0.28-1.07-0.42-1.91-0.42h-2.73V249.61z"/>
				<path class="st4" d="M623.23,253.4v-9.31c0-0.19,0.07-0.36,0.21-0.49c0.14-0.13,0.31-0.2,0.5-0.2h8.63
					c0.19,0,0.36,0.07,0.5,0.21c0.14,0.14,0.21,0.31,0.21,0.5v0.7c0,0.2-0.07,0.36-0.21,0.5c-0.14,0.14-0.3,0.2-0.5,0.2h-6.52v2.17
					h5.61c0.19,0,0.36,0.07,0.5,0.21c0.14,0.14,0.2,0.3,0.2,0.5v0.71c0,0.2-0.07,0.36-0.2,0.5c-0.14,0.14-0.3,0.21-0.5,0.21h-5.61
					V252h6.5c0.19,0,0.36,0.07,0.49,0.2c0.13,0.13,0.2,0.3,0.2,0.49v0.72c0,0.19-0.07,0.36-0.21,0.5c-0.14,0.14-0.31,0.2-0.5,0.2
					h-8.59c-0.19,0-0.36-0.07-0.5-0.2C623.3,253.77,623.23,253.6,623.23,253.4z"/>
				<path class="st4" d="M633.6,253.92c-0.02-0.04-0.02-0.08-0.02-0.13c0-0.11,0.04-0.23,0.13-0.37l1.87-2.98
					c0.26-0.41,0.57-0.79,0.92-1.13c0.35-0.34,0.69-0.55,1.01-0.62c-0.47-0.11-0.85-0.31-1.14-0.59s-0.55-0.63-0.79-1.06l-1.62-2.94
					c-0.08-0.15-0.13-0.29-0.13-0.41c0-0.03,0.01-0.07,0.02-0.1c0.03-0.14,0.15-0.21,0.34-0.21h1.73c0.45,0,0.81,0.24,1.08,0.73
					l1.16,2.06c0.29,0.53,0.61,0.91,0.94,1.15c0.33,0.24,0.72,0.36,1.16,0.36h0.34v-3.58c0-0.19,0.07-0.36,0.2-0.51
					c0.14-0.15,0.3-0.22,0.5-0.22h1.41c0.2,0,0.36,0.07,0.5,0.22c0.14,0.15,0.2,0.31,0.2,0.51v3.58h0.34c0.44,0,0.82-0.12,1.15-0.36
					c0.33-0.24,0.65-0.62,0.94-1.16l1.17-2.06c0.26-0.48,0.62-0.72,1.07-0.73h1.74c0.19,0,0.31,0.07,0.34,0.21
					c0.01,0.03,0.01,0.07,0.01,0.1c0,0.12-0.04,0.25-0.13,0.41l-1.62,2.94c-0.24,0.43-0.5,0.78-0.79,1.06
					c-0.29,0.28-0.67,0.48-1.15,0.59c0.33,0.07,0.67,0.28,1.01,0.62c0.35,0.34,0.65,0.72,0.92,1.12l1.86,2.98
					c0.09,0.15,0.13,0.27,0.13,0.37c0,0.05-0.01,0.09-0.02,0.13c-0.05,0.13-0.17,0.2-0.37,0.2h-1.72c-0.2,0-0.4-0.07-0.63-0.2
					c-0.22-0.14-0.4-0.3-0.52-0.5l-1.32-2.09c-0.31-0.51-0.63-0.89-0.95-1.15c-0.32-0.26-0.7-0.39-1.15-0.39h-0.34v3.64
					c0,0.2-0.07,0.36-0.2,0.49c-0.14,0.13-0.3,0.2-0.5,0.2h-1.41c-0.2,0-0.36-0.07-0.5-0.2c-0.14-0.13-0.2-0.3-0.2-0.49v-3.64h-0.34
					c-0.45,0-0.83,0.13-1.15,0.39c-0.32,0.26-0.63,0.64-0.95,1.15l-1.32,2.09c-0.13,0.19-0.3,0.36-0.52,0.5
					c-0.22,0.14-0.43,0.2-0.62,0.2h-1.72C633.77,254.12,633.65,254.05,633.6,253.92z"/>
				<path class="st4" d="M650.42,253.41v-0.72c0-0.19,0.07-0.36,0.2-0.49s0.3-0.2,0.49-0.2h0.58l1.39-5.66
					c0.48-1.96,2.1-2.94,4.87-2.95H662c0.2,0,0.36,0.07,0.5,0.2c0.14,0.13,0.21,0.3,0.21,0.49v9.34c0,0.2-0.07,0.36-0.21,0.49
					c-0.14,0.13-0.3,0.2-0.5,0.2h-10.88c-0.19,0-0.36-0.07-0.5-0.2C650.49,253.77,650.42,253.61,650.42,253.41z M654.61,252h5.28
					v-6.49h-2.22c-0.47,0-0.85,0.13-1.16,0.39c-0.31,0.26-0.52,0.62-0.64,1.09L654.61,252z"/>
				<path class="st4" d="M664.84,253.4v-9.31c0-0.19,0.07-0.36,0.21-0.49c0.14-0.13,0.31-0.2,0.5-0.2h8.63
					c0.19,0,0.36,0.07,0.5,0.21c0.14,0.14,0.21,0.31,0.21,0.5v0.7c0,0.2-0.07,0.36-0.21,0.5c-0.14,0.14-0.3,0.2-0.5,0.2h-6.52v2.17
					h5.61c0.19,0,0.36,0.07,0.5,0.21c0.14,0.14,0.2,0.3,0.2,0.5v0.71c0,0.2-0.07,0.36-0.2,0.5c-0.14,0.14-0.3,0.21-0.5,0.21h-5.61
					V252h6.5c0.19,0,0.36,0.07,0.49,0.2c0.13,0.13,0.2,0.3,0.2,0.49v0.72c0,0.19-0.07,0.36-0.21,0.5c-0.14,0.14-0.31,0.2-0.5,0.2
					h-8.59c-0.19,0-0.36-0.07-0.5-0.2C664.91,253.77,664.84,253.6,664.84,253.4z"/>
				<path class="st4" d="M676.25,253.41v-9.31c0-0.2,0.07-0.36,0.21-0.5c0.14-0.14,0.31-0.21,0.52-0.21h1.39
					c0.19,0,0.36,0.07,0.5,0.21c0.14,0.14,0.2,0.31,0.2,0.5v3.37h5.15v-3.37c0-0.2,0.07-0.36,0.21-0.5c0.14-0.14,0.31-0.21,0.5-0.21
					h1.39c0.2,0,0.38,0.07,0.51,0.21c0.14,0.14,0.2,0.31,0.2,0.5v9.31c0,0.19-0.07,0.36-0.21,0.5c-0.14,0.14-0.31,0.2-0.51,0.2
					h-1.39c-0.19,0-0.36-0.07-0.5-0.2c-0.14-0.13-0.21-0.3-0.21-0.49v-3.84h-5.15v3.84c0,0.2-0.07,0.36-0.2,0.49
					c-0.14,0.13-0.3,0.2-0.5,0.2h-1.39c-0.19,0-0.36-0.07-0.51-0.2C676.32,253.77,676.25,253.61,676.25,253.41z"/>
				<path class="st4" d="M689.17,253.41v-9.31c0-0.2,0.07-0.38,0.21-0.51c0.14-0.13,0.31-0.2,0.53-0.2h1.36
					c0.2,0,0.37,0.07,0.51,0.2s0.21,0.3,0.21,0.49v7.49l4.3-7.47c0.12-0.2,0.28-0.36,0.48-0.5c0.2-0.14,0.39-0.21,0.56-0.21h2.23
					c0.2,0,0.36,0.07,0.5,0.21c0.14,0.14,0.2,0.31,0.2,0.5v9.31c0,0.19-0.07,0.36-0.22,0.5c-0.15,0.14-0.32,0.2-0.52,0.2h-1.36
					c-0.2,0-0.37-0.07-0.51-0.2c-0.14-0.14-0.21-0.3-0.21-0.5v-6.94l-3.94,6.94c-0.12,0.19-0.28,0.36-0.49,0.5
					c-0.21,0.14-0.42,0.2-0.61,0.2h-2.5c-0.2,0-0.37-0.07-0.51-0.2C689.24,253.77,689.17,253.61,689.17,253.41z"/>
				<path class="st4" d="M702.22,253.4v-9.31c0-0.19,0.07-0.36,0.21-0.49c0.14-0.13,0.31-0.2,0.5-0.2h8.63
					c0.19,0,0.36,0.07,0.5,0.21c0.14,0.14,0.21,0.31,0.21,0.5v0.7c0,0.2-0.07,0.36-0.21,0.5c-0.14,0.14-0.3,0.2-0.5,0.2h-6.52v2.17
					h5.61c0.19,0,0.36,0.07,0.5,0.21c0.14,0.14,0.2,0.3,0.2,0.5v0.71c0,0.2-0.07,0.36-0.2,0.5c-0.14,0.14-0.3,0.21-0.5,0.21h-5.61
					V252h6.5c0.19,0,0.36,0.07,0.49,0.2c0.13,0.13,0.2,0.3,0.2,0.49v0.72c0,0.19-0.07,0.36-0.21,0.5c-0.14,0.14-0.31,0.2-0.5,0.2
					h-8.59c-0.19,0-0.36-0.07-0.5-0.2C702.29,253.77,702.22,253.6,702.22,253.4z"/>
			</g>
		</g>
		<g>
			<path class="st4" d="M210.49,271.26v-0.37c0-0.21,0.1-0.44,0.3-0.69l1.55-1.98c0.18-0.23,0.38-0.34,0.62-0.34h0.92
				c0.16,0,0.25,0.06,0.28,0.18c0.03,0.12-0.01,0.27-0.12,0.44l-1.58,2.59l1.58,2.59c0.12,0.17,0.16,0.32,0.13,0.44
				c-0.03,0.12-0.13,0.18-0.28,0.18h-0.92c-0.24,0-0.44-0.11-0.62-0.34l-1.55-1.98C210.58,271.7,210.49,271.47,210.49,271.26z
				 M213.89,271.26v-0.37c0-0.21,0.1-0.44,0.29-0.69l1.55-1.98c0.18-0.23,0.38-0.34,0.62-0.34h0.93c0.16,0,0.25,0.06,0.28,0.17
				c0,0.03,0.01,0.05,0.01,0.08c0,0.1-0.04,0.22-0.13,0.36l-1.58,2.59l1.58,2.59c0.09,0.13,0.13,0.26,0.13,0.36
				c0,0.03,0,0.06-0.01,0.07c-0.03,0.12-0.12,0.18-0.28,0.18h-0.93c-0.24,0-0.44-0.11-0.62-0.34l-1.55-1.98
				C213.99,271.7,213.89,271.47,213.89,271.26z"/>
			<path class="st4" d="M218.96,274.61v-9.41c0-0.2,0.07-0.36,0.2-0.51c0.14-0.14,0.3-0.21,0.5-0.21h5.77c3.04,0,4.57,1.4,4.57,4.21
				c0,2.81-1.52,4.21-4.57,4.21h-3.62v1.7c0,0.2-0.07,0.36-0.21,0.5c-0.14,0.14-0.3,0.21-0.5,0.21h-1.42c-0.2,0-0.37-0.07-0.51-0.21
				C219.03,274.97,218.96,274.8,218.96,274.61z M221.81,270.77h2.76c0.85,0,1.49-0.14,1.93-0.43c0.44-0.28,0.66-0.83,0.66-1.65
				c0-0.81-0.22-1.36-0.66-1.65c-0.44-0.28-1.08-0.43-1.93-0.43h-2.76V270.77z"/>
			<path class="st4" d="M232.31,274.2c-1.03-0.9-1.55-2.33-1.55-4.29c0-1.96,0.52-3.4,1.55-4.3c1.03-0.9,2.54-1.35,4.54-1.35
				s3.5,0.45,4.54,1.35c1.03,0.9,1.55,2.33,1.55,4.3c0,1.96-0.52,3.39-1.55,4.29c-1.03,0.9-2.54,1.35-4.54,1.35
				S233.34,275.1,232.31,274.2z M234.38,267.2c-0.51,0.6-0.77,1.5-0.77,2.7c0,1.2,0.26,2.1,0.77,2.7c0.51,0.6,1.33,0.91,2.47,0.91
				c1.14,0,1.96-0.3,2.47-0.91c0.51-0.6,0.76-1.5,0.76-2.7c0-1.2-0.25-2.1-0.76-2.7c-0.51-0.61-1.33-0.91-2.47-0.91
				C235.71,266.3,234.89,266.6,234.38,267.2z"/>
			<path class="st4" d="M245.25,274.04c-0.94-0.89-1.4-2.27-1.4-4.14c0-1.86,0.47-3.24,1.41-4.14c0.94-0.9,2.36-1.34,4.24-1.34h1.7
				c1.15,0,2.17,0.3,3.06,0.89c0.89,0.59,1.33,1.41,1.33,2.44c0,0.3-0.09,0.51-0.27,0.64c-0.18,0.13-0.36,0.19-0.53,0.19h-0.93
				c-0.48,0-0.85-0.28-1.12-0.83c-0.37-0.8-0.99-1.19-1.86-1.19h-1.34c-1.1,0-1.85,0.24-2.24,0.71c-0.39,0.47-0.59,1.35-0.59,2.63
				c0,1.28,0.2,2.15,0.59,2.63c0.39,0.48,1.14,0.71,2.24,0.71h1.5c0.87,0,1.48-0.4,1.85-1.19c0.26-0.55,0.62-0.83,1.09-0.83h0.9
				c0.09,0,0.19,0.02,0.29,0.06c0.1,0.04,0.21,0.13,0.32,0.26c0.11,0.14,0.16,0.31,0.16,0.51c0,1.04-0.44,1.85-1.31,2.44
				c-0.88,0.59-1.89,0.89-3.03,0.89h-1.84C247.59,275.38,246.18,274.93,245.25,274.04z"/>
			<path class="st4" d="M257.89,274.04c-0.94-0.89-1.4-2.27-1.4-4.14c0-1.86,0.47-3.24,1.41-4.14c0.94-0.9,2.36-1.34,4.24-1.34h1.7
				c1.15,0,2.17,0.3,3.06,0.89c0.89,0.59,1.33,1.41,1.33,2.44c0,0.3-0.09,0.51-0.27,0.64c-0.18,0.13-0.36,0.19-0.53,0.19h-0.93
				c-0.48,0-0.85-0.28-1.12-0.83c-0.37-0.8-0.99-1.19-1.86-1.19h-1.34c-1.1,0-1.85,0.24-2.24,0.71c-0.39,0.47-0.59,1.35-0.59,2.63
				c0,1.28,0.2,2.15,0.59,2.63c0.39,0.48,1.14,0.71,2.24,0.71h1.5c0.87,0,1.48-0.4,1.85-1.19c0.26-0.55,0.62-0.83,1.09-0.83h0.9
				c0.09,0,0.19,0.02,0.29,0.06c0.1,0.04,0.21,0.13,0.32,0.26c0.11,0.14,0.16,0.31,0.16,0.51c0,1.04-0.44,1.85-1.32,2.44
				c-0.88,0.59-1.89,0.89-3.03,0.89h-1.84C260.23,275.38,258.82,274.93,257.89,274.04z"/>
			<path class="st4" d="M269.75,274.61v-9.41c0-0.2,0.07-0.38,0.21-0.51c0.14-0.13,0.32-0.2,0.53-0.2h1.37c0.2,0,0.38,0.07,0.52,0.2
				c0.14,0.14,0.22,0.3,0.22,0.5v7.57l4.34-7.55c0.12-0.2,0.28-0.36,0.48-0.51c0.2-0.14,0.39-0.21,0.56-0.21h2.25
				c0.2,0,0.37,0.07,0.51,0.21c0.14,0.14,0.21,0.31,0.21,0.51v9.41c0,0.2-0.07,0.36-0.22,0.5c-0.14,0.14-0.32,0.21-0.52,0.21h-1.37
				c-0.2,0-0.38-0.07-0.52-0.21c-0.14-0.14-0.22-0.3-0.22-0.5v-7.01l-3.99,7.01c-0.12,0.2-0.28,0.36-0.49,0.5
				c-0.22,0.14-0.42,0.21-0.62,0.21h-2.53c-0.2,0-0.37-0.07-0.51-0.21C269.82,274.97,269.75,274.8,269.75,274.61z"/>
			<path class="st4" d="M282.93,274.61v-9.41c0-0.2,0.07-0.38,0.21-0.51c0.14-0.13,0.32-0.2,0.53-0.2h1.37c0.2,0,0.38,0.07,0.52,0.2
				c0.14,0.14,0.22,0.3,0.22,0.5v7.57l4.33-7.55c0.12-0.2,0.28-0.36,0.48-0.51c0.2-0.14,0.39-0.21,0.56-0.21h2.25
				c0.2,0,0.37,0.07,0.5,0.21c0.14,0.14,0.2,0.31,0.2,0.51v9.41c0,0.2-0.07,0.36-0.22,0.5c-0.14,0.14-0.32,0.21-0.52,0.21H292
				c-0.2,0-0.38-0.07-0.52-0.21c-0.14-0.14-0.21-0.3-0.21-0.5v-7.01l-3.98,7.01c-0.12,0.2-0.28,0.36-0.5,0.5
				c-0.21,0.14-0.42,0.21-0.62,0.21h-2.52c-0.2,0-0.37-0.07-0.51-0.21C283,274.97,282.93,274.8,282.93,274.61z M285.99,261.39
				c0-0.26,0.14-0.39,0.42-0.39h0.62c0.25,0,0.42,0.13,0.52,0.38c0.15,0.36,0.47,0.54,0.98,0.54c0.5,0,0.83-0.18,0.97-0.54
				c0.1-0.26,0.28-0.38,0.53-0.38h0.62c0.28,0,0.42,0.13,0.42,0.39c0,0.69-0.23,1.24-0.69,1.64c-0.46,0.4-1.07,0.61-1.83,0.61
				s-1.37-0.2-1.84-0.61C286.22,262.63,285.99,262.08,285.99,261.39z"/>
			<path class="st4" d="M296.89,274.04c-0.94-0.89-1.4-2.27-1.4-4.14c0-1.86,0.47-3.24,1.41-4.14c0.94-0.9,2.36-1.34,4.24-1.34h1.7
				c1.15,0,2.17,0.3,3.06,0.89c0.89,0.59,1.33,1.41,1.33,2.44c0,0.3-0.09,0.51-0.27,0.64c-0.18,0.13-0.36,0.19-0.53,0.19h-0.93
				c-0.48,0-0.85-0.28-1.12-0.83c-0.37-0.8-0.99-1.19-1.86-1.19h-1.34c-1.1,0-1.85,0.24-2.24,0.71c-0.39,0.47-0.59,1.35-0.59,2.63
				c0,1.28,0.2,2.15,0.59,2.63c0.39,0.48,1.14,0.71,2.24,0.71h1.5c0.87,0,1.48-0.4,1.85-1.19c0.26-0.55,0.62-0.83,1.09-0.83h0.9
				c0.09,0,0.19,0.02,0.29,0.06c0.1,0.04,0.21,0.13,0.32,0.26c0.11,0.14,0.16,0.31,0.16,0.51c0,1.04-0.44,1.85-1.32,2.44
				c-0.88,0.59-1.89,0.89-3.03,0.89h-1.84C299.23,275.38,297.82,274.93,296.89,274.04z"/>
			<path class="st4" d="M308.75,274.59v-9.39c0-0.2,0.07-0.37,0.21-0.51c0.14-0.14,0.31-0.22,0.51-0.22h1.42
				c0.2,0,0.36,0.07,0.5,0.22c0.14,0.15,0.21,0.32,0.21,0.51v3.61h1.62c0.44,0,0.83-0.12,1.17-0.36c0.33-0.24,0.65-0.63,0.95-1.17
				l1.17-2.08c0.27-0.48,0.63-0.73,1.09-0.73h1.75c0.2,0,0.31,0.07,0.35,0.21c0.01,0.03,0.01,0.07,0.01,0.1
				c0,0.12-0.04,0.26-0.13,0.42l-1.64,2.97c-0.24,0.43-0.5,0.79-0.8,1.07c-0.29,0.28-0.68,0.48-1.15,0.6
				c0.33,0.07,0.67,0.28,1.03,0.63c0.35,0.35,0.66,0.73,0.92,1.13l1.89,3.01c0.09,0.14,0.13,0.27,0.13,0.38
				c0,0.04-0.01,0.09-0.02,0.13c-0.05,0.14-0.17,0.2-0.37,0.2h-1.73c-0.2,0-0.41-0.07-0.64-0.21c-0.23-0.14-0.4-0.3-0.53-0.5
				l-1.33-2.11c-0.32-0.52-0.64-0.9-0.96-1.16c-0.32-0.26-0.71-0.39-1.16-0.39h-1.62v3.67c0,0.2-0.07,0.36-0.21,0.49
				c-0.14,0.13-0.3,0.2-0.5,0.2h-1.42c-0.2,0-0.37-0.07-0.51-0.22C308.82,274.96,308.75,274.79,308.75,274.59z"/>
			<path class="st4" d="M321.05,274.61v-9.41c0-0.2,0.07-0.38,0.21-0.51c0.14-0.13,0.32-0.2,0.53-0.2h1.37c0.2,0,0.38,0.07,0.52,0.2
				c0.14,0.14,0.22,0.3,0.22,0.5v7.57l4.34-7.55c0.12-0.2,0.28-0.36,0.48-0.51c0.2-0.14,0.39-0.21,0.56-0.21h2.25
				c0.2,0,0.37,0.07,0.51,0.21c0.14,0.14,0.21,0.31,0.21,0.51v9.41c0,0.2-0.07,0.36-0.22,0.5c-0.14,0.14-0.32,0.21-0.52,0.21h-1.37
				c-0.2,0-0.38-0.07-0.52-0.21c-0.14-0.14-0.22-0.3-0.22-0.5v-7.01l-3.99,7.01c-0.12,0.2-0.28,0.36-0.49,0.5
				c-0.22,0.14-0.42,0.21-0.62,0.21h-2.53c-0.2,0-0.37-0.07-0.51-0.21C321.12,274.97,321.05,274.8,321.05,274.61z"/>
			<path class="st4" d="M334.23,274.61v-9.41c0-0.2,0.07-0.38,0.21-0.51c0.14-0.13,0.32-0.2,0.53-0.2h1.37c0.2,0,0.38,0.07,0.52,0.2
				c0.14,0.14,0.22,0.3,0.22,0.5v7.57l4.33-7.55c0.12-0.2,0.28-0.36,0.48-0.51c0.2-0.14,0.39-0.21,0.56-0.21h2.25
				c0.2,0,0.37,0.07,0.5,0.21c0.14,0.14,0.2,0.31,0.2,0.51v9.41c0,0.2-0.07,0.36-0.22,0.5c-0.14,0.14-0.32,0.21-0.52,0.21h-1.37
				c-0.2,0-0.38-0.07-0.52-0.21c-0.14-0.14-0.21-0.3-0.21-0.5v-7.01l-3.98,7.01c-0.12,0.2-0.28,0.36-0.5,0.5
				c-0.21,0.14-0.42,0.21-0.62,0.21h-2.52c-0.2,0-0.37-0.07-0.51-0.21C334.3,274.97,334.23,274.8,334.23,274.61z M337.29,261.39
				c0-0.26,0.14-0.39,0.42-0.39h0.62c0.25,0,0.42,0.13,0.52,0.38c0.15,0.36,0.47,0.54,0.98,0.54c0.5,0,0.83-0.18,0.97-0.54
				c0.1-0.26,0.28-0.38,0.53-0.38h0.62c0.28,0,0.42,0.13,0.42,0.39c0,0.69-0.23,1.24-0.69,1.64c-0.46,0.4-1.07,0.61-1.84,0.61
				c-0.76,0-1.37-0.2-1.84-0.61C337.52,262.63,337.29,262.08,337.29,261.39z"/>
			<path class="st4" d="M351.75,274.61v-0.73c0-0.2,0.07-0.36,0.2-0.5c0.14-0.13,0.3-0.2,0.5-0.2h0.59l1.4-5.72
				c0.48-1.98,2.12-2.97,4.92-2.98h4.08c0.2,0,0.36,0.07,0.5,0.2c0.14,0.14,0.21,0.3,0.21,0.5v9.44c0,0.2-0.07,0.36-0.21,0.49
				c-0.14,0.13-0.31,0.2-0.5,0.2h-10.99c-0.2,0-0.36-0.07-0.5-0.21C351.82,274.97,351.75,274.8,351.75,274.61z M355.97,273.18h5.33
				v-6.56h-2.25c-0.47,0-0.86,0.13-1.18,0.39c-0.31,0.26-0.53,0.63-0.64,1.1L355.97,273.18z"/>
			<path class="st4" d="M366.31,274.59v-9.41c0-0.2,0.07-0.36,0.21-0.5c0.14-0.13,0.31-0.2,0.51-0.2h8.71c0.2,0,0.36,0.07,0.5,0.21
				c0.14,0.14,0.21,0.31,0.21,0.51v0.71c0,0.2-0.07,0.36-0.21,0.5c-0.14,0.14-0.31,0.21-0.5,0.21h-6.58v2.19h5.67
				c0.2,0,0.36,0.07,0.5,0.21c0.14,0.14,0.21,0.31,0.21,0.51v0.71c0,0.2-0.07,0.37-0.21,0.51c-0.14,0.14-0.31,0.21-0.5,0.21h-5.67
				v2.23h6.57c0.2,0,0.36,0.07,0.49,0.2c0.13,0.14,0.2,0.3,0.2,0.5v0.73c0,0.2-0.07,0.36-0.21,0.5c-0.14,0.14-0.31,0.21-0.51,0.21
				h-8.67c-0.2,0-0.37-0.07-0.51-0.21C366.38,274.97,366.31,274.8,366.31,274.59z"/>
			<path class="st4" d="M376.9,265.91v-0.71c0-0.2,0.07-0.38,0.2-0.51c0.13-0.13,0.31-0.2,0.51-0.2h9.59c0.21,0,0.38,0.07,0.51,0.2
				c0.14,0.14,0.2,0.31,0.2,0.51v0.71c0,0.21-0.07,0.38-0.2,0.51c-0.14,0.13-0.31,0.2-0.51,0.2h-3.37v8c0,0.2-0.07,0.36-0.21,0.49
				c-0.14,0.13-0.3,0.2-0.5,0.2h-1.43c-0.2,0-0.36-0.07-0.5-0.2c-0.14-0.13-0.21-0.3-0.21-0.49v-8h-3.37c-0.21,0-0.38-0.07-0.51-0.2
				C376.97,266.29,376.9,266.12,376.9,265.91z"/>
			<path class="st4" d="M389.94,274.04c-0.94-0.89-1.4-2.27-1.4-4.14c0-1.86,0.47-3.24,1.41-4.14c0.94-0.9,2.36-1.34,4.24-1.34h1.7
				c1.15,0,2.17,0.3,3.06,0.89c0.89,0.59,1.33,1.41,1.33,2.44c0,0.3-0.09,0.51-0.27,0.64c-0.18,0.13-0.36,0.19-0.53,0.19h-0.93
				c-0.48,0-0.85-0.28-1.12-0.83c-0.37-0.8-0.99-1.19-1.86-1.19h-1.34c-1.1,0-1.85,0.24-2.24,0.71c-0.39,0.47-0.59,1.35-0.59,2.63
				c0,1.28,0.2,2.15,0.59,2.63c0.39,0.48,1.14,0.71,2.24,0.71h1.5c0.87,0,1.48-0.4,1.85-1.19c0.26-0.55,0.62-0.83,1.09-0.83h0.9
				c0.09,0,0.19,0.02,0.29,0.06c0.1,0.04,0.21,0.13,0.32,0.26c0.11,0.14,0.16,0.31,0.16,0.51c0,1.04-0.44,1.85-1.31,2.44
				c-0.88,0.59-1.89,0.89-3.03,0.89h-1.84C392.28,275.38,390.88,274.93,389.94,274.04z"/>
			<path class="st4" d="M401.8,274.59v-9.39c0-0.2,0.07-0.37,0.21-0.51c0.14-0.14,0.31-0.22,0.51-0.22h1.42
				c0.2,0,0.36,0.07,0.5,0.22c0.14,0.15,0.21,0.32,0.21,0.51v3.61h1.62c0.44,0,0.83-0.12,1.17-0.36c0.33-0.24,0.65-0.63,0.95-1.17
				l1.17-2.08c0.27-0.48,0.63-0.73,1.09-0.73h1.75c0.2,0,0.31,0.07,0.35,0.21c0.01,0.03,0.01,0.07,0.01,0.1
				c0,0.12-0.04,0.26-0.13,0.42l-1.64,2.97c-0.24,0.43-0.5,0.79-0.8,1.07c-0.29,0.28-0.68,0.48-1.15,0.6
				c0.33,0.07,0.67,0.28,1.03,0.63c0.35,0.35,0.66,0.73,0.92,1.13l1.89,3.01c0.09,0.14,0.13,0.27,0.13,0.38
				c0,0.04-0.01,0.09-0.02,0.13c-0.05,0.14-0.17,0.2-0.37,0.2h-1.73c-0.2,0-0.41-0.07-0.64-0.21c-0.23-0.14-0.4-0.3-0.53-0.5
				l-1.33-2.11c-0.32-0.52-0.64-0.9-0.96-1.16c-0.32-0.26-0.71-0.39-1.16-0.39h-1.62v3.67c0,0.2-0.07,0.36-0.21,0.49
				c-0.14,0.13-0.3,0.2-0.5,0.2h-1.42c-0.2,0-0.37-0.07-0.51-0.22S401.8,274.79,401.8,274.59z"/>
			<path class="st4" d="M415.03,274.2c-1.03-0.9-1.55-2.33-1.55-4.29c0-1.96,0.52-3.4,1.55-4.3c1.03-0.9,2.54-1.35,4.54-1.35
				c1.99,0,3.5,0.45,4.54,1.35c1.03,0.9,1.55,2.33,1.55,4.3c0,1.96-0.52,3.39-1.55,4.29c-1.03,0.9-2.54,1.35-4.54,1.35
				C417.58,275.55,416.07,275.1,415.03,274.2z M417.1,267.2c-0.51,0.6-0.77,1.5-0.77,2.7c0,1.2,0.26,2.1,0.77,2.7
				c0.51,0.6,1.33,0.91,2.47,0.91s1.96-0.3,2.47-0.91c0.51-0.6,0.76-1.5,0.76-2.7c0-1.2-0.25-2.1-0.76-2.7
				c-0.51-0.61-1.33-0.91-2.47-0.91S417.61,266.6,417.1,267.2z"/>
			<path class="st4" d="M426.42,271.02v-0.9c0-0.14,0.04-0.25,0.13-0.34c0.09-0.09,0.2-0.13,0.33-0.13h5.7
				c0.14,0,0.25,0.04,0.34,0.13c0.09,0.09,0.13,0.2,0.13,0.34v0.9c0,0.13-0.04,0.25-0.13,0.33c-0.09,0.09-0.2,0.13-0.34,0.13h-5.7
				c-0.14,0-0.25-0.04-0.33-0.13C426.46,271.26,426.42,271.15,426.42,271.02z"/>
			<path class="st4" d="M434.43,274.61v-9.41c0-0.2,0.07-0.36,0.21-0.51c0.14-0.14,0.31-0.21,0.52-0.21h1.42
				c0.19,0,0.36,0.07,0.5,0.21c0.14,0.14,0.21,0.31,0.21,0.51v3.4h1.42c0.43-2.9,2.33-4.35,5.69-4.35c3.83,0,5.74,1.88,5.74,5.65
				s-1.91,5.65-5.74,5.65c-3.55,0-5.46-1.6-5.74-4.81h-1.37v3.89c0,0.2-0.07,0.36-0.21,0.49c-0.14,0.13-0.3,0.2-0.5,0.2h-1.42
				c-0.19,0-0.36-0.07-0.51-0.21C434.5,274.97,434.43,274.8,434.43,274.61z M444.39,266.3c-1.93,0-2.89,1.2-2.89,3.61
				c0,2.4,0.96,3.61,2.89,3.61c1.93,0,2.89-1.2,2.89-3.61C447.28,267.5,446.32,266.3,444.39,266.3z"/>
			<path class="st4" d="M451.67,274.61v-9.41c0-0.2,0.07-0.36,0.21-0.51c0.14-0.14,0.32-0.21,0.52-0.21h1.4
				c0.2,0,0.36,0.07,0.5,0.21c0.14,0.14,0.21,0.31,0.21,0.51v3.4h5.2v-3.4c0-0.2,0.07-0.36,0.21-0.51c0.14-0.14,0.31-0.21,0.51-0.21
				h1.4c0.21,0,0.38,0.07,0.52,0.21c0.14,0.14,0.21,0.31,0.21,0.51v9.41c0,0.2-0.07,0.36-0.22,0.5c-0.14,0.14-0.31,0.21-0.51,0.21
				h-1.4c-0.2,0-0.37-0.07-0.51-0.2c-0.14-0.13-0.21-0.3-0.21-0.49v-3.89h-5.2v3.89c0,0.2-0.07,0.36-0.21,0.49
				c-0.14,0.13-0.3,0.2-0.5,0.2h-1.4c-0.2,0-0.37-0.07-0.51-0.21C451.74,274.97,451.67,274.8,451.67,274.61z"/>
			<path class="st4" d="M465.65,274.2c-1.03-0.9-1.55-2.33-1.55-4.29c0-1.96,0.52-3.4,1.55-4.3c1.03-0.9,2.54-1.35,4.54-1.35
				c1.99,0,3.5,0.45,4.54,1.35c1.03,0.9,1.55,2.33,1.55,4.3c0,1.96-0.52,3.39-1.55,4.29c-1.03,0.9-2.54,1.35-4.54,1.35
				C468.2,275.55,466.69,275.1,465.65,274.2z M467.72,267.2c-0.51,0.6-0.77,1.5-0.77,2.7c0,1.2,0.26,2.1,0.77,2.7
				c0.51,0.6,1.33,0.91,2.47,0.91s1.96-0.3,2.47-0.91c0.51-0.6,0.76-1.5,0.76-2.7c0-1.2-0.25-2.1-0.76-2.7
				c-0.51-0.61-1.33-0.91-2.47-0.91S468.23,266.6,467.72,267.2z"/>
			<path class="st4" d="M477.81,274.61v-9.41c0-0.2,0.07-0.36,0.21-0.51c0.14-0.14,0.31-0.21,0.51-0.21h1.42
				c0.2,0,0.36,0.07,0.5,0.2c0.14,0.14,0.21,0.3,0.21,0.5v8h3.31v-8c0-0.2,0.07-0.36,0.21-0.5c0.14-0.13,0.31-0.2,0.51-0.2h1.42
				c0.2,0,0.36,0.07,0.5,0.21c0.14,0.14,0.21,0.31,0.21,0.51v7.98h3.32v-8c0-0.2,0.07-0.36,0.21-0.5c0.14-0.13,0.31-0.2,0.5-0.2
				h1.42c0.2,0,0.37,0.07,0.51,0.21c0.14,0.14,0.21,0.31,0.21,0.51v9.41c0,0.2-0.07,0.36-0.21,0.5c-0.14,0.14-0.31,0.21-0.5,0.21
				h-13.74c-0.2,0-0.36-0.07-0.51-0.21C477.88,274.97,477.81,274.8,477.81,274.61z"/>
			<path class="st4" d="M495.14,274.59v-9.41c0-0.2,0.07-0.36,0.21-0.5c0.14-0.13,0.31-0.2,0.51-0.2h8.71c0.2,0,0.36,0.07,0.5,0.21
				c0.14,0.14,0.21,0.31,0.21,0.51v0.71c0,0.2-0.07,0.36-0.21,0.5c-0.14,0.14-0.31,0.21-0.5,0.21h-6.58v2.19h5.67
				c0.2,0,0.36,0.07,0.5,0.21c0.14,0.14,0.21,0.31,0.21,0.51v0.71c0,0.2-0.07,0.37-0.21,0.51c-0.14,0.14-0.31,0.21-0.5,0.21h-5.67
				v2.23h6.57c0.2,0,0.36,0.07,0.49,0.2c0.13,0.14,0.2,0.3,0.2,0.5v0.73c0,0.2-0.07,0.36-0.21,0.5c-0.14,0.14-0.31,0.21-0.51,0.21
				h-8.67c-0.2,0-0.37-0.07-0.51-0.21C495.21,274.97,495.14,274.8,495.14,274.59z"/>
			<path class="st4" d="M507.44,274.04c-0.94-0.89-1.4-2.27-1.4-4.14c0-1.86,0.47-3.24,1.41-4.14c0.94-0.9,2.36-1.34,4.24-1.34h1.7
				c1.15,0,2.17,0.3,3.06,0.89c0.89,0.59,1.33,1.41,1.33,2.44c0,0.3-0.09,0.51-0.27,0.64c-0.18,0.13-0.36,0.19-0.53,0.19h-0.93
				c-0.48,0-0.85-0.28-1.12-0.83c-0.37-0.8-0.99-1.19-1.86-1.19h-1.34c-1.1,0-1.85,0.24-2.24,0.71c-0.39,0.47-0.59,1.35-0.59,2.63
				c0,1.28,0.2,2.15,0.59,2.63c0.39,0.48,1.14,0.71,2.24,0.71h1.5c0.87,0,1.48-0.4,1.85-1.19c0.26-0.55,0.62-0.83,1.09-0.83h0.9
				c0.09,0,0.19,0.02,0.29,0.06c0.1,0.04,0.21,0.13,0.32,0.26c0.11,0.14,0.16,0.31,0.16,0.51c0,1.04-0.44,1.85-1.32,2.44
				c-0.88,0.59-1.89,0.89-3.03,0.89h-1.84C509.78,275.38,508.38,274.93,507.44,274.04z"/>
			<path class="st4" d="M519.3,274.59v-9.39c0-0.2,0.07-0.37,0.21-0.51c0.14-0.14,0.31-0.22,0.51-0.22h1.42
				c0.2,0,0.36,0.07,0.5,0.22c0.14,0.15,0.21,0.32,0.21,0.51v3.61h1.62c0.44,0,0.83-0.12,1.17-0.36c0.33-0.24,0.65-0.63,0.95-1.17
				l1.17-2.08c0.27-0.48,0.63-0.73,1.09-0.73h1.75c0.2,0,0.31,0.07,0.35,0.21c0.01,0.03,0.01,0.07,0.01,0.1
				c0,0.12-0.04,0.26-0.13,0.42l-1.64,2.97c-0.24,0.43-0.5,0.79-0.8,1.07c-0.29,0.28-0.68,0.48-1.15,0.6
				c0.33,0.07,0.67,0.28,1.03,0.63c0.35,0.35,0.66,0.73,0.92,1.13l1.89,3.01c0.09,0.14,0.13,0.27,0.13,0.38
				c0,0.04-0.01,0.09-0.02,0.13c-0.05,0.14-0.17,0.2-0.37,0.2h-1.73c-0.2,0-0.41-0.07-0.64-0.21c-0.23-0.14-0.4-0.3-0.53-0.5
				l-1.33-2.11c-0.32-0.52-0.64-0.9-0.96-1.16c-0.32-0.26-0.71-0.39-1.16-0.39h-1.62v3.67c0,0.2-0.07,0.36-0.21,0.49
				s-0.3,0.2-0.5,0.2h-1.42c-0.2,0-0.37-0.07-0.51-0.22S519.3,274.79,519.3,274.59z"/>
			<path class="st4" d="M531.61,274.61v-9.41c0-0.2,0.07-0.38,0.21-0.51c0.14-0.13,0.32-0.2,0.53-0.2h1.37c0.2,0,0.38,0.07,0.52,0.2
				c0.14,0.14,0.22,0.3,0.22,0.5v7.57l4.34-7.55c0.12-0.2,0.28-0.36,0.48-0.51c0.2-0.14,0.39-0.21,0.56-0.21h2.25
				c0.2,0,0.37,0.07,0.51,0.21c0.14,0.14,0.21,0.31,0.21,0.51v9.41c0,0.2-0.07,0.36-0.22,0.5c-0.14,0.14-0.32,0.21-0.52,0.21h-1.37
				c-0.2,0-0.38-0.07-0.52-0.21c-0.14-0.14-0.22-0.3-0.22-0.5v-7.01l-3.99,7.01c-0.12,0.2-0.28,0.36-0.49,0.5
				c-0.22,0.14-0.42,0.21-0.62,0.21h-2.53c-0.2,0-0.37-0.07-0.51-0.21C531.68,274.97,531.61,274.8,531.61,274.61z"/>
			<path class="st4" d="M544.78,274.61v-9.41c0-0.2,0.07-0.38,0.21-0.51c0.14-0.13,0.32-0.2,0.53-0.2h1.37c0.2,0,0.38,0.07,0.52,0.2
				c0.14,0.14,0.22,0.3,0.22,0.5v7.57l4.33-7.55c0.12-0.2,0.28-0.36,0.48-0.51c0.2-0.14,0.39-0.21,0.56-0.21h2.25
				c0.2,0,0.37,0.07,0.5,0.21c0.14,0.14,0.2,0.31,0.2,0.51v9.41c0,0.2-0.07,0.36-0.22,0.5c-0.14,0.14-0.32,0.21-0.52,0.21h-1.37
				c-0.2,0-0.38-0.07-0.52-0.21c-0.14-0.14-0.21-0.3-0.21-0.5v-7.01l-3.98,7.01c-0.12,0.2-0.28,0.36-0.5,0.5
				c-0.21,0.14-0.42,0.21-0.62,0.21h-2.52c-0.2,0-0.37-0.07-0.51-0.21C544.85,274.97,544.78,274.8,544.78,274.61z M547.84,261.39
				c0-0.26,0.14-0.39,0.42-0.39h0.62c0.25,0,0.42,0.13,0.52,0.38c0.15,0.36,0.47,0.54,0.98,0.54c0.5,0,0.83-0.18,0.97-0.54
				c0.1-0.26,0.28-0.38,0.53-0.38h0.62c0.28,0,0.42,0.13,0.42,0.39c0,0.69-0.23,1.24-0.69,1.64c-0.46,0.4-1.07,0.61-1.84,0.61
				s-1.37-0.2-1.84-0.61C548.08,262.63,547.84,262.08,547.84,261.39z"/>
			<path class="st4" d="M563.37,274.61v-9.42c0-0.2,0.07-0.36,0.21-0.5c0.14-0.13,0.31-0.2,0.51-0.2h1.42c0.2,0,0.36,0.07,0.5,0.21
				c0.14,0.14,0.21,0.31,0.21,0.51v7.98h5.08v-8c0-0.2,0.07-0.36,0.21-0.5c0.14-0.13,0.3-0.2,0.5-0.2h1.43c0.2,0,0.36,0.07,0.5,0.21
				c0.14,0.14,0.21,0.31,0.21,0.51v7.98h0.82c0.2,0,0.36,0.07,0.51,0.21c0.14,0.14,0.21,0.31,0.21,0.51v0.71
				c0,0.2-0.07,0.36-0.21,0.5c-0.14,0.14-0.31,0.21-0.51,0.21h-10.87c-0.2,0-0.37-0.07-0.51-0.21
				C563.44,274.97,563.37,274.8,563.37,274.61z"/>
			<path class="st4" d="M576.76,274.59v-9.41c0-0.2,0.07-0.36,0.21-0.5c0.14-0.13,0.31-0.2,0.51-0.2h8.71c0.2,0,0.36,0.07,0.5,0.21
				c0.14,0.14,0.21,0.31,0.21,0.51v0.71c0,0.2-0.07,0.36-0.21,0.5c-0.14,0.14-0.31,0.21-0.5,0.21h-6.58v2.19h5.67
				c0.2,0,0.36,0.07,0.5,0.21c0.14,0.14,0.21,0.31,0.21,0.51v0.71c0,0.2-0.07,0.37-0.21,0.51c-0.14,0.14-0.31,0.21-0.5,0.21h-5.67
				v2.23h6.57c0.2,0,0.36,0.07,0.49,0.2c0.13,0.14,0.2,0.3,0.2,0.5v0.73c0,0.2-0.07,0.36-0.21,0.5c-0.14,0.14-0.31,0.21-0.51,0.21
				h-8.67c-0.2,0-0.37-0.07-0.51-0.21C576.83,274.97,576.76,274.8,576.76,274.59z"/>
			<path class="st4" d="M588.28,274.61v-9.41c0-0.2,0.07-0.36,0.21-0.51c0.14-0.14,0.32-0.21,0.52-0.21h1.4
				c0.2,0,0.36,0.07,0.5,0.21c0.14,0.14,0.21,0.31,0.21,0.51v3.4h5.2v-3.4c0-0.2,0.07-0.36,0.21-0.51c0.14-0.14,0.31-0.21,0.51-0.21
				h1.4c0.21,0,0.38,0.07,0.52,0.21c0.14,0.14,0.21,0.31,0.21,0.51v9.41c0,0.2-0.07,0.36-0.22,0.5c-0.14,0.14-0.31,0.21-0.51,0.21
				h-1.4c-0.2,0-0.37-0.07-0.51-0.2c-0.14-0.13-0.21-0.3-0.21-0.49v-3.89h-5.2v3.89c0,0.2-0.07,0.36-0.21,0.49
				c-0.14,0.13-0.3,0.2-0.5,0.2h-1.4c-0.2,0-0.37-0.07-0.51-0.21C588.35,274.97,588.28,274.8,588.28,274.61z"/>
			<path class="st4" d="M600.41,265.91v-0.71c0-0.2,0.07-0.38,0.2-0.51c0.13-0.13,0.31-0.2,0.51-0.2h9.59c0.21,0,0.38,0.07,0.51,0.2
				c0.14,0.14,0.2,0.31,0.2,0.51v0.71c0,0.21-0.07,0.38-0.2,0.51c-0.14,0.13-0.31,0.2-0.51,0.2h-3.37v8c0,0.2-0.07,0.36-0.21,0.49
				c-0.14,0.13-0.3,0.2-0.5,0.2h-1.43c-0.2,0-0.36-0.07-0.5-0.2c-0.14-0.13-0.21-0.3-0.21-0.49v-8h-3.37c-0.21,0-0.38-0.07-0.51-0.2
				C600.48,266.29,600.41,266.12,600.41,265.91z"/>
			<path class="st4" d="M612.66,274.61v-9.41c0-0.2,0.07-0.36,0.2-0.51c0.14-0.14,0.3-0.21,0.5-0.21h5.77c3.04,0,4.57,1.4,4.57,4.21
				c0,2.81-1.52,4.21-4.57,4.21h-3.62v1.7c0,0.2-0.07,0.36-0.21,0.5c-0.14,0.14-0.3,0.21-0.5,0.21h-1.42c-0.2,0-0.37-0.07-0.51-0.21
				C612.73,274.97,612.66,274.8,612.66,274.61z M615.51,270.77h2.76c0.85,0,1.49-0.14,1.93-0.43c0.44-0.28,0.66-0.83,0.66-1.65
				c0-0.81-0.22-1.36-0.66-1.65c-0.44-0.28-1.08-0.43-1.93-0.43h-2.76V270.77z"/>
			<path class="st4" d="M624.33,274.1c0-0.03-0.01-0.05-0.01-0.07c0-0.1,0.04-0.22,0.13-0.36l1.58-2.59l-1.58-2.59
				c-0.09-0.13-0.13-0.26-0.13-0.36c0-0.03,0-0.06,0.01-0.08c0.03-0.12,0.12-0.18,0.28-0.17h0.93c0.24,0,0.44,0.11,0.62,0.34
				l1.54,1.98c0.2,0.26,0.29,0.49,0.29,0.69v0.37c0,0.21-0.1,0.44-0.29,0.7l-1.54,1.98c-0.17,0.23-0.38,0.34-0.62,0.34h-0.93
				C624.45,274.28,624.36,274.22,624.33,274.1z M627.74,274.1c-0.01-0.03-0.01-0.05-0.02-0.07c0-0.1,0.05-0.22,0.14-0.36l1.58-2.59
				l-1.58-2.59c-0.09-0.13-0.14-0.26-0.14-0.36c0-0.03,0.01-0.06,0.02-0.08c0.03-0.12,0.12-0.18,0.27-0.17h0.93
				c0.24,0,0.44,0.11,0.62,0.34l1.55,1.98c0.2,0.26,0.29,0.49,0.29,0.69v0.37c0,0.21-0.1,0.44-0.29,0.7l-1.55,1.98
				c-0.18,0.23-0.38,0.34-0.62,0.34h-0.93C627.86,274.28,627.77,274.22,627.74,274.1z"/>
		</g>
	</g>
	<g>
		<g>
			<g>
				<g>
					<path class="st45" d="M200.73,345.05c-4.95-4.73-7.42-12.03-7.42-21.9c0-9.87,2.49-17.17,7.48-21.9
						c4.98-4.73,12.46-7.1,22.43-7.1h8.99c6.1,0,11.49,1.57,16.18,4.72c4.69,3.14,7.03,7.45,7.03,12.91c0,1.58-0.48,2.7-1.45,3.39
						c-0.96,0.68-1.9,1.02-2.81,1.02h-4.92c-2.53,0-4.5-1.47-5.91-4.4c-1.97-4.21-5.25-6.32-9.84-6.32h-7.12
						c-5.84,0-9.8,1.25-11.88,3.76c-2.08,2.5-3.12,7.14-3.12,13.9c0,6.77,1.04,11.41,3.12,13.92c2.08,2.52,6.04,3.77,11.88,3.77
						h7.96c4.59,0,7.85-2.1,9.8-6.31c1.36-2.94,3.28-4.41,5.76-4.41h4.76c0.48,0,0.99,0.1,1.54,0.3c0.55,0.2,1.11,0.66,1.68,1.39
						c0.57,0.73,0.86,1.63,0.86,2.72c0,5.48-2.32,9.78-6.96,12.92c-4.64,3.14-9.99,4.71-16.04,4.71h-9.76
						C213.09,352.15,205.67,349.78,200.73,345.05z"/>
					<path class="st45" d="M258.11,348.53v-3.87c0-1.05,0.37-1.94,1.1-2.66c0.74-0.73,1.62-1.09,2.67-1.09h3.13l7.5-30.54
						c2.58-10.57,11.33-15.87,26.24-15.89h21.8c1.05,0,1.95,0.36,2.69,1.09c0.74,0.73,1.11,1.61,1.11,2.66v50.38
						c0,1.05-0.37,1.93-1.11,2.64c-0.74,0.71-1.63,1.07-2.68,1.07H261.9c-1.05,0-1.94-0.37-2.68-1.11
						C258.48,350.48,258.11,349.58,258.11,348.53z M280.67,340.91h28.47v-35.01h-12c-2.51,0-4.61,0.7-6.28,2.11
						s-2.81,3.36-3.43,5.87L280.67,340.91z"/>
					<path class="st45" d="M392.4,302.1v-3.79c0-1.1,0.36-2.02,1.09-2.74c0.73-0.73,1.64-1.09,2.74-1.09h51.19
						c1.1,0,2.02,0.36,2.74,1.09c0.73,0.73,1.09,1.64,1.09,2.74v3.79c0,1.1-0.36,2.01-1.09,2.72c-0.73,0.71-1.64,1.07-2.74,1.07
						h-17.99v42.72c0,1.05-0.37,1.93-1.11,2.64c-0.74,0.71-1.63,1.07-2.68,1.07h-7.62c-1.05,0-1.94-0.36-2.68-1.07
						c-0.74-0.71-1.11-1.59-1.11-2.64v-42.72h-17.99c-1.1,0-2.02-0.36-2.74-1.07C392.76,304.11,392.4,303.2,392.4,302.1z"/>
					<path class="st45" d="M457.83,348.53v-50.3c0-1.05,0.38-1.94,1.13-2.66c0.75-0.73,1.65-1.09,2.7-1.09h7.58
						c1.05,0,1.94,0.38,2.68,1.13c0.74,0.75,1.11,1.65,1.11,2.7v42.6h27.11v-42.68c0-1.05,0.37-1.94,1.11-2.66
						c0.74-0.73,1.63-1.09,2.68-1.09h7.62c1.05,0,1.94,0.38,2.68,1.13c0.74,0.75,1.11,1.65,1.11,2.7v42.6h4.36
						c1.05,0,1.95,0.38,2.7,1.13c0.75,0.75,1.13,1.65,1.13,2.7v3.79c0,1.05-0.38,1.94-1.13,2.68c-0.75,0.74-1.65,1.11-2.7,1.11
						h-58.05c-1.05,0-1.95-0.37-2.7-1.11C458.21,350.48,457.83,349.58,457.83,348.53z"/>
					<path class="st45" d="M529.27,348.45v-50.22c0-1.05,0.38-1.94,1.13-2.66c0.75-0.73,1.65-1.09,2.7-1.09h46.51
						c1.05,0,1.94,0.38,2.68,1.13c0.74,0.75,1.11,1.65,1.11,2.7v3.79c0,1.05-0.37,1.94-1.11,2.68c-0.74,0.74-1.63,1.11-2.68,1.11
						h-35.14v11.7h30.25c1.05,0,1.94,0.37,2.68,1.11c0.74,0.74,1.11,1.64,1.11,2.69v3.81c0,1.05-0.37,1.95-1.11,2.69
						c-0.74,0.74-1.63,1.11-2.68,1.11h-30.25v11.9h35.06c1.05,0,1.93,0.36,2.64,1.09c0.71,0.73,1.07,1.61,1.07,2.66v3.87
						c0,1.05-0.38,1.94-1.13,2.68s-1.65,1.11-2.7,1.11H533.1c-1.05,0-1.95-0.37-2.7-1.11C529.65,350.48,529.27,349.56,529.27,348.45
						z"/>
					<path class="st45" d="M590.79,348.53v-50.22c0-1.05,0.38-1.95,1.13-2.7c0.75-0.75,1.68-1.13,2.78-1.13h7.5
						c1.05,0,1.94,0.38,2.68,1.13c0.74,0.75,1.11,1.65,1.11,2.7v18.15h27.75v-18.15c0-1.05,0.38-1.95,1.13-2.7
						c0.75-0.75,1.65-1.13,2.7-1.13h7.5c1.1,0,2.02,0.38,2.76,1.13c0.74,0.75,1.11,1.65,1.11,2.7v50.22c0,1.05-0.38,1.94-1.15,2.68
						c-0.77,0.74-1.67,1.11-2.72,1.11h-7.5c-1.05,0-1.95-0.36-2.7-1.07c-0.75-0.71-1.13-1.59-1.13-2.64v-20.74H606v20.74
						c0,1.05-0.37,1.93-1.11,2.64c-0.74,0.71-1.63,1.07-2.68,1.07h-7.5c-1.05,0-1.96-0.37-2.74-1.11
						C591.18,350.48,590.79,349.58,590.79,348.53z"/>
					<path class="st45" d="M655.54,302.1v-3.79c0-1.1,0.36-2.02,1.09-2.74c0.73-0.73,1.64-1.09,2.74-1.09h51.19
						c1.1,0,2.02,0.36,2.74,1.09c0.73,0.73,1.09,1.64,1.09,2.74v3.79c0,1.1-0.36,2.01-1.09,2.72c-0.73,0.71-1.64,1.07-2.74,1.07
						h-17.99v42.72c0,1.05-0.37,1.93-1.11,2.64c-0.74,0.71-1.63,1.07-2.68,1.07h-7.62c-1.05,0-1.94-0.36-2.68-1.07
						c-0.74-0.71-1.11-1.59-1.11-2.64v-42.72h-17.99c-1.1,0-2.02-0.36-2.74-1.07C655.9,304.11,655.54,303.2,655.54,302.1z"/>
					<path class="st45" d="M720.97,348.53v-50.22c0-1.05,0.36-1.95,1.09-2.7c0.73-0.75,1.61-1.13,2.66-1.13h30.78
						c16.24,0,24.37,7.5,24.39,22.49c0.01,14.99-8.12,22.49-24.39,22.49h-19.32v9.08c0,1.05-0.37,1.94-1.11,2.68
						s-1.63,1.11-2.68,1.11h-7.58c-1.05,0-1.95-0.37-2.7-1.11C721.34,350.48,720.97,349.58,720.97,348.53z M736.18,328.04h14.72
						c4.52,0,7.95-0.76,10.29-2.28c2.34-1.52,3.51-4.45,3.51-8.79c0-4.34-1.17-7.27-3.51-8.79c-2.34-1.52-5.77-2.28-10.29-2.28
						h-14.72V328.04z"/>
					<path class="st45" d="M133,345.43c-5.29-4.62-7.94-11.96-7.94-22c0-10.05,2.65-17.38,7.94-22.01
						c5.29-4.62,13.04-6.93,23.25-6.93c10.21,0,17.95,2.31,23.23,6.93c5.28,4.62,7.92,11.96,7.92,22.01c0,10.05-2.64,17.38-7.92,22
						c-5.28,4.62-13.02,6.93-23.23,6.93C146.04,352.36,138.29,350.05,133,345.43z M143.59,309.59c-2.62,3.1-3.93,7.72-3.93,13.85
						s1.31,10.75,3.93,13.83c2.62,3.09,6.84,4.63,12.66,4.63c5.82,0,10.03-1.54,12.64-4.63c2.61-3.09,3.91-7.7,3.91-13.83
						s-1.3-10.75-3.91-13.85c-2.61-3.1-6.82-4.65-12.64-4.65C150.43,304.94,146.21,306.49,143.59,309.59z"/>
					<path class="st45" d="M333.03,348.45v-50.26c0-1.05,0.38-1.94,1.13-2.66c0.75-0.73,1.65-1.09,2.7-1.09h46.54
						c1.05,0,1.94,0.38,2.68,1.13c0.74,0.75,1.11,1.65,1.11,2.71v3.79c0,1.05-0.37,1.95-1.11,2.68c-0.74,0.74-1.63,1.11-2.68,1.11
						h-35.16v11.71h30.27c1.05,0,1.94,0.37,2.68,1.11c0.74,0.74,1.11,1.64,1.11,2.69v3.81c0,1.05-0.37,1.95-1.11,2.69
						c-0.74,0.74-1.63,1.12-2.68,1.12h-30.27v11.91h35.08c1.05,0,1.93,0.36,2.64,1.09c0.71,0.73,1.07,1.61,1.07,2.66v3.88
						c0,1.05-0.38,1.94-1.13,2.68c-0.75,0.74-1.65,1.11-2.7,1.11h-46.34c-1.05,0-1.95-0.37-2.7-1.11
						C333.4,350.47,333.03,349.55,333.03,348.45z"/>
				</g>
			</g>
		</g>
		<g>
			<path class="st9" d="M69.11,335.92l0.01-19.55c0-0.58,0.24-0.91,0.75-0.9l24.08,0.24C93.96,315.71,72.49,323.76,69.11,335.92z"/>
			<path class="st45" d="M68.08,319.46l0.16-0.28l-6.23,13.85c0,0.18,0,0.36,0,0.54c0,4.97,0,9.93,0,14.9
				c0,0.31,0.03,0.82,0.26,1.39c0.18,0.45,0.46,0.85,0.84,1.22c0.73,0.72,1.61,1.08,2.63,1.08h7.37c1.02,0,1.89-0.36,2.61-1.08
				c0.72-0.72,1.08-1.59,1.08-2.61v-8.82h18.78c15.82,0,22.97-7.35,22.95-21.93c-0.01-14.57-6.02-22.47-21.81-22.47l-18.26-0.14
				l-2.45,6.4c0,0-0.98,2.73-4.18,9.62c1.02,0,2.1-0.21,3.13-0.21c0.61,0,1.21-0.09,1.82-0.1l0.01-3.8H91.1
				c4.39,0,7.73,0.74,10,2.22c2.27,1.48,3.41,4.33,3.41,8.55c0,4.22-1.14,7.07-3.41,8.55c-2.27,1.48-5.61,2.22-10,2.22H76.79
				l0.04-9.83"/>
			<path class="st11" d="M62.01,333.03l6.03-14.2c0.16-0.37,0.5-0.62,0.9-0.66l25.02-2.45C93.96,315.71,76.89,319.17,62.01,333.03z"
				/>
			<g>
				<g>
					<path class="st11" d="M78.46,295.1c0,0,0-0.01,0-0.02C78.46,295.09,78.46,295.09,78.46,295.1z"/>
					<path class="st11" d="M78.46,295.08C78.47,295.02,78.47,295.05,78.46,295.08L78.46,295.08z"/>
					<path class="st11" d="M69.13,316.23c0.05-0.68,0.49-1.52,0.49-1.52l8.84-19.61c-1.34,19.36,12.37,20.09,15.5,20.61l-24.02-0.24
						C69.93,315.47,69.16,315.38,69.13,316.23z"/>
				</g>
			</g>
		</g>
	</g>
</g>
</svg>
