<?xml version="1.0" encoding="utf-8"?>
<!-- Generator: Adobe Illustrator 26.0.1, SVG Export Plug-In . SVG Version: 6.00 Build 0)  -->
<svg version="1.1" id="Слой_1" xmlns="http://www.w3.org/2000/svg" xmlns:xlink="http://www.w3.org/1999/xlink" x="0px" y="0px"
	 viewBox="0 0 169.3 153.3" style="enable-background:new 0 0 169.3 153.3;" xml:space="preserve">
<style type="text/css">
	.st0{fill:#6B66CC;}
	.st1{fill:#394B77;}
	.st2{fill:url(#SVGID_1_);}
	.st3{fill:#6B66CE;}
	.st4{fill:#F9F9F9;}
	.st5{fill:#FFFFFF;}
	.st6{fill:#D9D9D9;}
	.st7{fill:#F7F7F7;}
	.st8{fill:#73AFE0;}
	.st9{fill:url(#SVGID_00000178170731165601779070000012738018205988544955_);}
	.st10{fill:url(#SVGID_00000064326527911919827440000004068873984571156925_);}
	.st11{fill:#DDF1FA;}
	.st12{fill:url(#SVGID_00000119835495310529689120000006439281717520410297_);}
	.st13{fill:url(#SVGID_00000047025349233502874210000014617499164306249878_);}
	.st14{fill:url(#SVGID_00000182507216608567798140000018295757152193814169_);}
	.st15{fill:url(#SVGID_00000095301860152926612310000012354857159446623377_);}
	.st16{fill:url(#SVGID_00000074405229010814789100000009686494666703743622_);}
	.st17{fill:url(#SVGID_00000140704103618630747830000003244011591392703918_);}
	.st18{fill:url(#SVGID_00000078725696507284998460000008565693389886577074_);}
	.st19{fill:url(#SVGID_00000122705083764239175230000007792352707503465150_);}
	.st20{fill:url(#SVGID_00000052103631988829243870000000815608897929263028_);}
	.st21{fill:url(#SVGID_00000177442804573508472980000003463199477733737615_);}
	.st22{fill:url(#SVGID_00000042736241141262047460000002029217925150836916_);}
	.st23{fill:url(#SVGID_00000101821366382006252960000015671089811001681578_);}
	.st24{fill:url(#SVGID_00000053516735793296137250000017404838618567032203_);}
	.st25{fill:url(#SVGID_00000006674916055865639850000001471486737633218690_);}
	.st26{fill:url(#SVGID_00000057118290136892859890000011918258542612197289_);}
	.st27{fill:url(#SVGID_00000037665785775700139490000016100602756033378690_);}
</style>
<g>
	<path class="st6" d="M58,94.2l0-24.6c0-0.7,0.3-1.1,0.9-1.1l30.3,0.3C89.3,68.7,62.3,78.9,58,94.2z"/>
	<path class="st5" d="M56.7,73.4l0.2-0.4l-7.8,17.4c0,0.2,0,0.5,0,0.7c0,6.3,0,12.5,0,18.8c0,0.4,0,1,0.3,1.7
		c0.2,0.6,0.6,1.1,1.1,1.5c0.9,0.9,2,1.4,3.3,1.4h9.3c1.3,0,2.4-0.5,3.3-1.4s1.4-2,1.4-3.3V98.8h23.6c19.9,0,28.9-9.3,28.9-27.6
		c0-18.3-7.6-28.3-27.4-28.3l-23-0.2l-3.1,8.1c0,0-1.2,3.4-5.3,12.1c1.3,0,2.6-0.3,3.9-0.3c0.8,0,1.5-0.1,2.3-0.1l0-4.8h18
		c5.5,0,9.7,0.9,12.6,2.8c2.9,1.9,4.3,5.4,4.3,10.8c0,5.3-1.4,8.9-4.3,10.8c-2.9,1.9-7.1,2.8-12.6,2.8h-18l0.1-12.4"/>
	<path class="st7" d="M49.1,90.5l7.6-17.9c0.2-0.5,0.6-0.8,1.1-0.8l31.5-3.1C89.3,68.7,67.8,73.1,49.1,90.5z"/>
	<g>
		<g>
			<path class="st7" d="M69.8,42.8C69.8,42.8,69.8,42.8,69.8,42.8C69.8,42.8,69.8,42.8,69.8,42.8z"/>
			<path class="st7" d="M69.8,42.8C69.8,42.7,69.8,42.7,69.8,42.8L69.8,42.8z"/>
			<path class="st7" d="M58.1,69.4c0.1-0.9,0.6-1.9,0.6-1.9l11.1-24.7c-1.7,24.4,15.6,25.3,19.5,25.9l-30.2-0.3
				C59.1,68.4,58.1,68.3,58.1,69.4z"/>
		</g>
	</g>
</g>
</svg>
