<?xml version="1.0" encoding="utf-8"?>
<!-- Generator: Adobe Illustrator 27.6.1, SVG Export Plug-In . SVG Version: 6.00 Build 0)  -->
<svg version="1.1"
	 id="svg2" xmlns:dc="http://purl.org/dc/elements/1.1/" xmlns:cc="http://creativecommons.org/ns#" xmlns:rdf="http://www.w3.org/1999/02/22-rdf-syntax-ns#" xmlns:svg="http://www.w3.org/2000/svg" xmlns:sodipodi="http://sodipodi.sourceforge.net/DTD/sodipodi-0.dtd" xmlns:inkscape="http://www.inkscape.org/namespaces/inkscape"
	 xmlns="http://www.w3.org/2000/svg" xmlns:xlink="http://www.w3.org/1999/xlink" x="0px" y="0px" viewBox="0 0 289.3 700"
	 style="enable-background:new 0 0 289.3 700;" xml:space="preserve">
<style type="text/css">
	.st0{fill:#9591FD;stroke:#FFFFFF;stroke-width:0.625;stroke-linejoin:round;stroke-miterlimit:1;}
</style>
<g id="krasnojarskij_kraj" transform="matrix(0.5,0,0,0.5,48.685701,-0.124977)">
	<path id="abanskij_rajon" inkscape:connector-curvature="0" class="st0" d="M197.7,1170.1l1.7,0.3l-1-1l1.7-1.4l-1-2l0.3-1l0.7-0.3
		v-2h0.3v-1h-1l0.7-2.7l1-0.7l0.7-1l-1.7-0.3l0.3-0.7h-2l0.3-1.4v-0.7l8.1-0.7l2.4-0.7l1.4-1.4v-1.4l-0.3-1.7l-4.1,0.3l0.3-10.5
		l-1-2.4l3.7-3v-2.7l-1.4-2.4l2.4-1.4h1l4.1,6.1l5.4-1.4l6.4,1.7l15.2,13.9l-1.7,4.7l0.7-0.3l2.4,1.7l1-0.3v0.7l-0.3,0.3l1,0.7
		l1.4-1v1l1.7-0.3l0.3,0.7l-1,2.7l-0.7,0.7l-0.7-0.7l-2.4,1v2.7l1,1h-2.4l0.7,0.7v1.4l-0.3,0.7l0.3,0.7l-0.7,1.7v1l-0.7,1l-2.7,1.4
		l-3.7,0.7l-1.7-0.3v0.7l-1,1.7l-2.4,0.3l-0.3,1l-1.7-1.4h-1v0.3l-1.7,0.3l0.3,0.7l-2,1.4l-1-1.4l-4.1,1.7h-3.4v0.7l-0.7,1l-2.7-1.4
		l-1,3.7h-2.4l-0.3-2h-4.1l-0.7-1v-0.3l-2.4-1.4l-0.7,0.7l-2-0.3l-0.7-2h0.7l-0.3-1.4l-0.7-0.7v-1.6"/>
	<path id="achinsk" inkscape:connector-curvature="0" class="st0" d="M68.6,1188l0.3-0.7l1.4,0.7l0.3-0.7h-0.3v-1l0.3-0.3l1.4,0.7
		v-1h0.3l-0.3-0.3l-0.3,0.7l-1.7-1l2,0.3l-0.3-1l1.4-0.3l-0.7-1l0.3-0.3l1,1.4h1l-0.3,1.4l1.4,0.3h-1l-1.7,3l-1.7-1l-0.7,1v-0.7
		l-0.3-0.3l-0.3,0.7l0.3,0.3l-1,0.3l-0.7-0.3l0.3-0.7h-0.4"/>
	<path id="achinskij_rajon" inkscape:connector-curvature="0" class="st0" d="M68.6,1188h0.3l-0.3,0.7l0.7,0.3l1-0.3l-0.3-0.3
		l0.3-0.7l0.3,0.3v0.7l0.7-1l1.7,1l1.7-3h1l-1.4-0.3l0.3-1.4h-1l-1-1.4l-0.3,0.3l0.7,1l-1.4,0.3l0.3,1l-2-0.3l1.7,1l0.3-0.7l0.3,0.3
		H72v1l-1.4-0.7l-0.3,0.3v1h0.3l-0.3,0.7l-1.4-0.7L68.6,1188 M61.1,1174.5l2.4-0.7l0.7,1.7l1-0.7l2.7,0.3l1,1.7l1.4-0.3l1.4-1.7v-1
		l1-0.7l0.7,2l-0.7,1l0.7,1l-1.4,0.7l0.3-0.7l-0.3-0.3l-0.7,1l1.7,3.4l2.7-2l2.4-0.3v-1l1.4-1l-0.3-0.3l0.3-1.4l2.7-0.3v-0.7
		l0.7-0.3l-0.3-0.7l0.3-0.3l2,1l7.4,0.7L92,1177l-3.4,0.7l0.3,2.4h0.3v2l-0.3,1l-1-0.7l-1,0.3l-0.7,1.4h-3v1.4l1.7,0.7l-1.4,1.4
		l1,0.3v1.4h0.3l-0.3,3.7l0.7-0.3l-1.7,2l0.7,1.4l1.4,0.7l-0.7,2l-1-0.7l-0.7,1v-0.7l-0.7,0.3v-1.4l-0.7,0.3v-0.7l-0.3,0.7l-0.7-0.7
		v0.7l-0.3-0.3H76v0.7h-0.3l-0.3-0.7v-0.3l-0.7,0.3l0.3-1.4l-0.3-1h-1v-1.4l-1.4-0.7l-0.7,1h-0.7l-0.3,0.7l-1,1l-4.4-1.4l-0.3,0.7
		l-0.3-1l-2.7-0.7l0.7-2.4l3.4-1.4v-1.4l-0.7-0.3l1-2l-1.4-3.7l0.7-1.4l-0.7-1.4h-2v-1.4l-1.7-2.4L61.1,1174.5"/>
	<path id="balakhtinskij_rajon" inkscape:connector-curvature="0" class="st0" d="M73.3,1227.5l3.4-2.4l0.7-2l-0.3-0.3l1.4-2.4
		l2.7,0.7l-0.3-1.4h1.7l0.3-1.7l6.4-1.4l1.7,0.7l0.3-0.7l0.3,0.7l0.7,0.3l0.3-0.3l-0.7-2.7h-1.7v-1l0.7-1l6.4-2.4l2.7,1l2,3.4l2-1
		l2.7,0.7l-1.4-3l7.8,3l5.1,1h2.7v-2l2,1l4.1-1.4l0.3,2l-1,0.7l-0.3,1.4l2,3h0.3v5.1l1,1.4v2.7l-0.3,1.7l0.3,1.4l-0.3,0.7l1,1.4l2-1
		l5.1,4.7l-0.3,3l0.7,1.4l-0.7,1.4l1,1.7l-0.3,1l0.7,1l1,0.7l-0.3,1.4l0.7,1l-0.7,2l1.7,1l-0.3,1.4l-1.4,0.3l-4.1-3.4l-3.4,1.7
		l-1.4-1v-1l-2.4-1l-5.7,1h-1.7v-0.7h-0.7l0.3-0.3l-1.4,0.3l-0.3-0.7l-0.3,0.7h-0.7v0.7h-0.3l-0.7,2l-1-0.7l-1.4,1l0.7,2l-0.3,0.3
		l-0.3,2.4l-1.7-0.3l-2.4-2.7l-1-0.3l0.3-0.7l-0.7-1l-1.4-1.4l-1-1.4l-2,0.7l-1-0.7l0.3-1.4l-0.7-0.3l-0.7-3.4l0.3-0.7l1-0.3
		l0.7-1.7l1-0.7l-0.3-1l-6.4-0.7v-2.4l-1-2.7l-3.4-1l-0.3-1.7l-1.4-0.3l-0.3,1.4l-0.3,1l-3.7,0.7l-0.7,1.4l-1.4,0.3l0.3,0.7
		l-1.7,0.3v1l-0.7,0.7l-1.7-0.3l-0.3,0.7l-0.3-1.7l0.3-1.4v-1.4l-2,0.3v-1.4h-2l-0.3-2.4l-1.4-0.3v-2.7l-1,0.7l-1.4-1L73.3,1227.5"
		/>
	<path id="berezovskij_x5F_rajon_x5F__x28_krasnojarskij_x5F_kraj_x29_" inkscape:connector-curvature="0" class="st0" d="
		M144.3,1195.8l0.7-0.3l-0.3,1l2-0.3v-0.7l-0.7-1h-1L144.3,1195.8 M142.3,1195.1l1,0.7l1.4-1.4l-1.4-1L142.3,1195.1 M118.3,1204.2
		l1.7-0.7l1.4,0.7v1l1.7,0.3l0.7-1.4l-0.3-1l3.4-0.7h3l1.7,2l0.3-1.7h2.4l0.7-1.4h1l0.3-1.7l1-0.3h-0.7l0.3-0.7l-0.7,0.3l0.3-1
		l-1.4-0.3v-0.7l1.4-0.3l1,1.7l0.7-0.3l0.7-2.4l-0.7-1.7l-0.3-0.3h0.3v-0.3l2.7,0.3l1-1.4l1.7-0.3l-0.3,1l1.7-0.7v0.7l0.7,0.7l3-0.3
		l2-2.4l2-5.1v-1l1.7,1.4l2-0.3l0.7-1.4l2-0.3v1l2,2v3.4l1,0.7h-2.4l0.3,2l-1,1l-0.7,3.4l-0.3,0.3l-9.1-1.7l0.3,1l-0.7,1l0.3,1.7
		l-1,0.7l-1,1.7h-0.7l1,1l-3,2l-0.3-1l-1,0.7v1.4l1.7,1.7l-1,1v0.3l0.3,0.7h-1l-2,3l1.4,2l0.7-0.7v0.3h1v0.3l0.7,2l-0.7,1.7l0.3,1
		v0.7l-3,1.7l-0.7,1l-3,1l0.7,0.7l0.7-0.3l-0.3,0.7l0.3,0.7h-1l0.3,1l0.3-0.3l0.3,1.7l-0.7,0.7l-0.7,3.7v0.7l-1.7,3.4l-3.7-3.7l-2,1
		l-1-1.4l0.3-0.7l-0.3-1.4l0.3-1.7v-2.7l-1-1.4v-5.1H128l-2-3l0.3-1.4l1-0.7l-0.3-2l-4.1,1.4v-1.4l-1.7-1.7l-3-0.7l0.3-1.4v-0.7
		l1-1.4v-1.4L118.3,1204.2"/>
	<path id="biriljusskij_rajon" inkscape:connector-curvature="0" class="st0" d="M52.7,1150.5l0.7-4.1l2.7-4.4l2.4-14.5l2-1l2.4-2
		l-1-1.7l-6.1-1.7l0.3-0.3v-1.7l0.7-2l-0.3-1.7l2.4-2.7v-1.4l17.9-6.8l0.7,0.7l-0.3,0.7h0.7v1l1,1l-1.7,1.4l0.3,1l-0.7,1l0.7,0.3
		l-0.7,0.3l0.3,1.7h-0.7v1.7l0.7,0.3l-0.3,0.3l0.3,1l-0.3,1l1,1l-0.7,1l0.3,0.7l1-0.3l1.4,1.7v-3l5.7,0.3l0.3,1l3,1l-0.3,2l2,1.7
		l3.7-2.4l1.4,2l1-0.7l-0.3,2l0.7,2.7l-1.4,1l-0.7,1.7l-1.7,0.7v1.4l-1,2h4.4l4.1,1.7l1-2.7l3,0.7l-3.4,8.1l-1.4,1.7l7.4,5.7
		l-0.3,5.4l-0.7,0.7l1.4,1.7v3.4l0.7,0.3l-0.3,0.7l0.7,1l-8.4,2v-0.7l0.7-2l-1.4-2v-2.7l-1-1l-2,1.4v2l-3.7,2.4l-0.3-1.7l0.3-1.4
		l-0.7-1l-2,1.7l-3.7,0.3l-2.7-0.3l-0.7-1.4l-3.4-0.3l-3-1.7l-1.7,1h-2.4v1.4l-1.4,1h-1.4l-1.4,7.1h-2.4l-2.4,2l-1.4-2.7l1-0.3
		l0.3-1.7l1-0.7l0.3-2.4l-1.7-1.4v-1.7l-0.7-1.4l0.3-0.7l-0.3-1.4l-1.7-1l-0.3-1.7l-1.4-1v-0.3l-2.7-1.4h-3.7"/>
	<path id="bogotol" inkscape:connector-curvature="0" class="st0" d="M45.9,1188.7l0.7-3l0.7,1l2.4-1l0.3-2.4l0.7,0.3h-0.3l0.3,1.7
		l-1,1H52l-1.7,0.3l-0.7,1l0.3,0.7l-0.7,0.7l-0.7-1l-1.4,0.3l-0.3,1L45.9,1188.7"/>
	<path id="bogotol_x27_skij_x5F_rajon" inkscape:connector-curvature="0" class="st0" d="M45.9,1188.7l1,0.7l0.3-1l1.4-0.3l0.7,1
		l0.7-0.7l-0.3-0.7l0.7-1l1.7-0.3h-2.4l1-1l-0.3-1.7h0.3l-0.7-0.3l-0.3,2.4l-2.4,1l-0.7-1L45.9,1188.7 M33.4,1178.5l0.3-0.3l5.7,0.7
		l1.4-2l1.4,0.7l2-1l0.3,0.7l2.4-1l0.3,2l0.7,0.3l1.4-1.4H51l1.4-1l-0.3-0.3h1.4v-1l0.7,0.3v-1.7h2.4l-0.3,1l5.4-1.7l0.7,1.4l-1,0.3
		v1l1.7,2.4v1.4h2l0.7,1.4l-0.7,1.4l1.4,3.7l-1,2l0.7,0.3v1.4l-3.4,1.4l-0.7,2.4l-1.7-0.3l-1.4,1h-2.4v1l-1.7-1l-1.4,0.3l-0.7,2
		l-0.7-0.3l-0.3,0.7H51v-0.7l-0.7,1v-0.7l-1.7,1.7l-1.4-0.3l-1.4,1.4l-3.4,0.7l-1-3.4l1.4-2l-0.7-1l-1.7-0.3l0.3-2.7l-2-0.7
		l-0.3-0.7l0.7-1l-0.7-0.7L37,1187l0.3-4.7h-3.4v-0.7l0.7-1L33.4,1178.5"/>
	<path id="boguchanskij_rajon" inkscape:connector-curvature="0" class="st0" d="M187.5,1051.5l1-1.7l1.4,0.7l-0.3-0.3v-1.7l1,1.4
		l2-0.3l1-1.7l-0.7-1l1-0.7v-0.7l0.3,0.3h0.3l0.3-1v-0.7l1.4-1l0.3,0.3l-0.3,0.3l0.7-0.3l-0.7-1.4l1.4-0.3l0.3-1l0.7-0.3l-0.3-1h0.7
		l-0.3-0.7l0.7,0.3v-0.7l0.3-0.3h-0.3l0.3-1l-0.3-0.3l0.7-0.7l-0.3-0.3l0.3-0.7l-0.7-0.3l1-1.7v-0.7l1-0.7l-0.3-1l0.7-0.7l2-1h2
		l1.4,2.7l1,0.7l1.7-0.3l2.4-3l1,0.3l-0.7,1l0.3,1l1.4,1l0.3,0.7l-1,1.7l1.4,1.4h2.4l2.4-3h2.7l2.4-0.7l1,0.3l1.7-0.7l3,2.4h2
		l2.4-1.7v-1.7l-1-0.7l0.3-1.4l1.7-1l0.3-1l1.7-0.3l1.4-1.4l0.7-2l5.4,2.4l1.4-0.3l1-1h2.7l0.7-1h2.4l1.7-2l2,0.3l1.4,1.7h1.4
		l2.4-3.4l3.7,1l1-1l3.4-0.3l0.7-1.4l1.4-0.7l0.3,1.4l0.7,0.3l0.3,1.4l1.4-0.3l0.3-2l1.7-1.4v-1l-0.3-1l0.7-1l2.4-3l2-0.7l0.3-1
		l1.4-1.4l0.3-1.4l-0.7-1l4.4-0.7l0.7-1.4h1l1.4,1.4h2.7v1.4l3,0.3l0.7,1.4l2,1.4l-4.7,3l0.3,1.4l-1.4,1.7v0.7l-2.4,2v1.4l-1,1
		l0.3,0.3l-0.3,0.7l-0.7-0.3v0.3l2.7,2l2-0.3l0.3,0.7l0.7-0.3l1.4,0.7l-0.3,0.3l0.7,0.7h-1l-0.3,1.4h1.4l-0.3,1.4l0.3,0.7l1.7,1.7
		l1-0.3l-0.7,2l1.7,2.4l1,3l-0.3,3.7l0.7,4.7l-0.7,2.7l0.3,1l-4.7,3v-0.7l-1.4,1l-2.7-2.4v-0.7h-1l-0.3-1h-3.7l-1.7-0.3v-1.7
		l-1.4,0.3l0.3,2l-1.7,0.7l-1,2.4h-0.7l0.3,0.7h-0.3l-0.3,1h-1v1l-2,1.4l0.3,1.7h-2.7l-1,1l-0.7-1l-0.3,0.7l0.3,0.3l-1.7,0.3l-0.7,1
		l-0.7-0.7v1l-1.7-1.7l-4.4-0.7l-2.7,6.4l0.7,1h3l3.7,2v0.7l1.4,1.7l-0.3,0.7l0.3,0.3l-0.3,0.3l0.7,1l1,0.3l-1.7,1.4l-1,2.4l0.3,0.3
		l-0.3,1.7l0.7,1l-0.3-2.4l2-2.4l5.1-1.4l0.7-1.7l2.4,2l-1,3.7l1.7,1.4l1,1.7l-0.3,2l-2,2l-0.3,1.4l1.7,1l1,2.4l2,0.7v1.7l0.7,1.4
		l3.4-1.4l3,3.4h1l-0.7,0.7l0.3,0.7l-1.4,1.4l1.7,2.4v2.7l-2.4,2.4h-1.7l-0.7,1.4l-2,0.7v-1h-1.4l-0.3-2h-0.3v-0.7l-3.4-2.4v-3.4
		l-1.7-0.3v-1.7h0.7v-1.7h-2.7l-0.7-0.7l-0.7,0.7l-0.3-0.3l-2,0.7v-1.7h-0.7l0.3,1.4l-1.4,0.3l0.7,5.1h2.4v3.4h3.4v1.7h1.7v1.4h0.7
		l0.3,1.7h0.3l0.3,5.4h5.1v1.7l-1.4,1l-3-0.7l-1,1.7h-1l-0.3,1.4l-1.4-0.3l-0.3,0.7l-0.7-1h-1v-1h-1v-1.4l-1.4-0.7l-2.7,1.4l-3.4-1
		l-12.8-1l-11.8,33.5l-15.5-13.9l-6.1-1.7l-5.4,1.4l-2.4-4.4h-0.7l-1-2l-1.4,0.3l-2,1.4l-7.8,1.7l-0.3-0.7v-0.7l-0.3-0.7l0.7-0.3
		l-0.3-0.7l1-1l-1.7-1l0.3-1.7l-0.7-1.4l-3.7-2l-3.4,0.3l-2.7-1.4l2.4-3.4l0.3-2.4l-0.7-0.7v-1.7l0.7-0.3l-0.3-0.7l0.3-0.7l-0.3-0.7
		l1-0.7v-0.7l2.4-1l-0.7-2l1-1l-0.3-0.7l0.7-0.3l-0.3-1l0.7-0.7l0.7-15.5l-1.4-2.7l-1-1l0.3-1l-0.7-2l4.1-7.8l-2-1l-1,1.7l-1-1
		l0.3-1.4l-1.4-0.3v-1l1-0.7v-0.7l-0.7-0.7l0.7,0.3v-2l0.3-1l-0.7-0.3l1-2l-1-1l-2.7-0.3l0.7-0.7l-2-1.4l0.7-0.7l-1-1.7l0.3-0.7
		L187.5,1051.5"/>
	<path id="bol_x27_shemurtinskij_x5F_rajon" inkscape:connector-curvature="0" class="st0" d="M107.1,1156.2l0.3-5.4l4.1-2.4
		l5.1-7.4l5.7-3l4.4,0.3l6.1-1.4l-0.7,1.4l0.3,0.7l-0.3,1.7l0.3,0.7h2.4l0.3-1h4.1l1.4-1.7l1,1.7l0.7-0.7l-0.3-1l1-0.7l-0.3-0.3
		l1.7-0.3l0.3,2l1.4-0.7l0.3,0.7l-0.7,3l0.7,1.4l2.7,0.7l1.7-0.7l6.1-4.7l-0.3,1.7l0.7,0.3l0.3,1.4v1.7l3,4.7l3.7,8.4l-3,0.3
		l-6.4,2.7l-1.4-0.3l-4.4,2h-2.7l-2.4,1.7l1.4,1.7l0.3,3l-0.3,0.3H139l-1.4-1.4l-3-0.3l-0.7,1v1.4l-1.4,0.7l-0.7-0.3l0.3-0.3h-2.7
		l-0.7-1l0.3-0.7l-0.7-1l-1,0.3l0.3-1l-1-1l1.4-0.3v-0.7l-2-1.4l-2.7,0.7l-5.1-0.3l-1-1.4h-1l-0.7-1.7h-1l-2-2l-0.7,0.3l-1.4-0.7
		l-2-1.7L107.1,1156.2"/>
	<path id="bol_x27_sheulujskij_x5F_rajon" inkscape:connector-curvature="0" class="st0" d="M59.1,1168.7l0.7-1.7l2-1v-1l1-1l-0.3-1
		l0.7-2l2,1.4l-0.3,2.4l-1,0.7l-0.3,1.7l-1,0.3l1.4,2.7l2.4-2h2.4l1.4-7.1h1.4l1.4-1v-1.4h2l1.7-1l3,1.7l3.4,0.3l0.7,1.4l2.7,0.3
		l3.7-0.3l2.4-1.7l0.3,1l-0.3,1.4l0.3,2.4l-0.3,1l0.3,1v1.7l0.3,0.7l-0.3,1l1-0.3l0.7,1l-1.4,1l-1,3.4l-7.4-0.7l-2-1l-0.3,0.3
		l0.3,0.7l-0.7,0.3v0.7l-2.7,0.3l-0.3,1.4l0.3,0.3l-1.4,1v1l-2.4,0.3l-2.7,2l-1.7-3.4l0.7-1l0.3,0.3l-0.3,0.7l1.4-0.7l-0.7-1l0.7-1
		l-0.7-2l-1,0.7v1l-1.4,1.7l-1.4,0.3l-1-1.7l-1.4-0.3l-2.4,0.7l-0.7-1.7l-1,0.7L59.1,1168.7"/>
	<path id="borodino" inkscape:connector-curvature="0" class="st0" d="M180.1,1206.1l0.3-1.4l0.3,0.7l0.7-1l2,1l-0.7,1l0.3,0.7v0.7
		v-1h-1l0.7,0.7l-1.7-0.7l-0.3,0.7l-0.3-0.7l0.7-0.7L180.1,1206.1"/>
	<path id="divnogorsk" inkscape:connector-curvature="0" class="st0" d="M108.5,1203.2l5.1,1v1.7h1.4v-4.1l-2.4-1.4l-0.3-1.4h1
		l-0.7,0.7l2,0.7l0.3,1h1.7v-0.7l1.7,0.3l0.3-1h1l3,0.7l-0.7,0.3l1,1h3.4l-3,1l0.3,1l-0.7,1.4l-1.7-0.3v-1l-1.4-0.7l-1.7,0.7
		l1.4,1.7v1.4l-1,1.4v0.7l-0.3,1.4l3,0.7l1.7,1.7v1.4l-1.7-1.4l-2,0.7l-1.4-1.7h-1.7v-1l-1-0.7v-1.4h-2.7l-0.3-3.7l-3.7-0.7l0.3-1
		L108.5,1203.2"/>
	<path id="dzerzhinskij_x5F_rajon_x5F__x28_krasnojarskij_x5F_kraj_x29_" inkscape:connector-curvature="0" class="st0" d="
		M166.6,1157.6l5.7-1l0.7-1.4h0.7l-0.3-1l3,0.7l-0.3-1h1.4l0.3,0.7l2-0.3l0.3-1.7l3,0.7l1.4-2h-0.7v-0.7l5.1-0.3l3.4-1.4v1.4
		l1.7,0.7l1.4-1.7l5.4,0.7l1.4-1.7l1.7,2.7l-1.4,0.7l-0.3,2.4l-3.4,0.3v0.7l-0.3,0.3v1h2l-0.3,0.7l1.7,0.3l-0.7,1l-1,0.7l-0.7,2.7h1
		v1h-0.3v2l-0.7,0.3l-0.3,1l1,2l-1.7,1.4l1,1l-1.7-0.3v1.7l-3.4,1.7l-1-0.7l-1,0.7l-1-1.4l-1.7,0.7l-3-0.3l-1,1.7l-0.7-0.7l-0.3,0.7
		H184l-0.3-1.4l-1.7,0.3l-4.4-2.4H173l0.3-4.1h-1l-1-3l-1.7-1.7l-1.7,0.3l-1.4-1.7L166.6,1157.6"/>
	<path id="ehvenkijskij_rajon" inkscape:connector-curvature="0" class="st0" d="M56.4,745.6l0.7-1.7l0.7-0.7v-2.4l1.4-2h0.7
		l1.4-1.7l1-2.4v-1l3.7-2l0.3-1.7l1-0.7V725l-1-1l0.7-0.7l-0.3-1.7l0.3-0.3l-1-0.7l0.7-1.4l-0.7-0.3l-0.3-0.7l1-0.3l0.3-1l-1.4-0.3
		l0.7-0.3V716l0.3-0.3v-0.3l0.7-0.3l-0.7-0.7l1.4-1l-0.7-2.4l1-0.7v-0.7l0.7-0.7v-1l0.7-0.7l0.3-1l-0.7-1l1-1l0.7-1.4l6.8-0.7
		l5.7,2.4l-0.3,1l0.7,0.3l1-4.4l0.3-5.4l4.4-2.7l12.2-13.9l1.4-2l0.7-3l3-6.4l2.7-3.4l2-1.7l1.7-3v-0.7l1-0.3v-1l0.3-1l-0.7-0.7h1.7
		v-0.7l1.7-1.7l2-1v-1l1-1l2.4-1.7v-0.7l1-1.7h-0.3h0.3l0.7-1.7l1.4-2.4l0.3-2.7l0.7-1l6.1-6.4l6.1-4.4l2.4-2.7l1.7-3l-0.3-1.7
		l0.7-3l3-2.7l0.7-2l0.7-1.4l1.7-1l3.4-0.3l7.1,1.7l6.1,3l3-1l0.3-2.4l1.4-2l-2.4-4.4l1.4-1.4l-0.3-1.7l1.4-1l0.3-1.4l1.4-0.7l0.7-3
		l1.4-0.3l-0.3-1.4l1-0.3l1-0.7v-1l1-0.3v-1.4l1-1v-2l4.7-0.3l1-1.4l-0.3-0.7l-1.4-0.7V583l-0.3-1.4l-1-1l3.4-2.4l1.4-0.3v-2.4
		l5.4-5.4l11.2-2.4l-0.3-0.7l4.4-2.7l2-2.4l2.7-0.7l1.4-1.7v-1.4l1-1l1.4-0.7l4.1,1l2-0.7l1.7-1.7l-0.3-0.7l0.7-1l-0.3-1.4l3-0.7
		l1-1.4l5.4,1l2-1.7l1.4-3l1.7-1.4l1.4,0.3l1.7-1.4l5.7,3.4l3-1l1.4,1l5.7-1l2.7,1l1.7-0.7v-1l-1-1.7l2-2.4v-0.3l-1,0.3l-0.7-0.7
		l1-1.4l-0.7-0.7l3.4-0.7l2.7,0.3l0.3,0.7l0.7-0.7v1l1.7,0.7l1.7-0.7l4.7,1.4l1.4,1.7h1v0.7l-0.7,1.7l2.4,0.7v1.7l0.7,1v1l-1.4,1.7
		l0.7,0.7l1,2.7l1,0.7l1.4-0.3l0.7-1.7l1.7-0.7l-0.3-0.3l0.3-1.7l0.7-0.7h1.7l2.4,1.4l5.4,0.7l3.7,1.7l0.3-1h2l1.4-1.7h2.7l2,0.7
		l3,1.7l-0.3,0.3l0.7,1l1.4,0.3v0.7l-1.4,1.4l1.4,0.7l8.4,2.7l2,1.4l3.4,0.3v-0.3l3.4-3l3.4,0.7l2.4-1l1,0.3l0.3,1l-0.3,1v0.3l3,2
		l2,0.3l2.4-0.7l0.3-1v-0.3l0.7-0.7l0.3-0.3l-0.3-0.3l1.7-1l2.7,1.4l1.7-1v-1l0.7-1l-1-2.4l1.4-0.7l2.7,0.3l4.1-1l3,1.4l4.4-0.7
		l0.3,1.4v1.4l1,1.4l1.4-0.3l1-1.4l2,0.7l4.1-2.7l0.7-1l-0.3-0.3l0.3-1.7l-1-1.4l0.7-0.7l4.1-1l0.3-0.3l-0.3-1l0.7-0.7l2.7,1l2-0.7
		h0.3l-0.7,1.4v1.7l-2.4,1.7l-0.7,1.7l16.9,24.3l4.1,28.4l1.7,19.9l1,7.8l0.3,8.4l0.7,7.1l-1.4,2l-0.3,2h-2.4l-1-1.4l-1.7,1.4
		l-1.4,3.4l-1.4,0.3l-1,1.4l-2.7,0.3l0.3,2.7l-2,3.7l-5.1,2l-0.7-0.7l-2.4,0.7l1,0.7v1l3,2.4l3-1.4l-0.3,0.7l0.3,1l3.4,0.7l0.3-0.7
		l1,0.3l0.3,0.7v0.7l-2,3l0.7,0.7l1.4,0.3l0.7-1l1.7-0.3l-0.3,1.4l-0.7,1l0.3,0.3v0.7l0.3,1l2,1l-0.7,1.7l1,2l-0.3,0.7v1l2,2l-0.3,1
		l1,1.4l-1.4,1.7l-1.4,0.7l-1,2.7l0.3,0.7l-0.3,1l0.7,1.4l-0.3,0.7l0.7,0.3l-0.3,0.3l0.3,1l-0.3,0.3h0.3l-0.3,0.7l0.3,1l-0.3,1
		l2.4,2l2.4-0.7l1,1l-0.3,1l0.7,0.3v0.3l1,0.3l-0.3,1l1,0.3l0.7,1.7l0.7,0.7l-0.3,1l0.3,2.4H409l0.7,2.4h-0.3l0.3,1.4l-0.3,1.4l1,1
		l-1,0.7l-0.3,1.4l0.7,0.7l-0.3,0.3l0.7,0.3l-0.3,0.3l0.3,0.7l-1,0.7l0.7,0.3l-0.3,1l5.1,1.7l-0.7,0.7h1.7l0.3,0.7l-0.3,1.4l0.3,1
		l5.4,1l-0.3,1.7l-1.4,1.4v0.7l0.3,0.3l-0.7,2.4l-4.1-0.3l-0.3,0.7h-1l-0.3,2l-1.4,1.4l0.3,3.4l2,1l-1,0.7l-1.4-0.7l-1.7,2.7v1.4
		l-2.4,0.7l-0.3,2l-0.7,1.4l-1.7,0.3l-1.4,1.4v1.4l0.7,0.3l2,1v0.7l1.4,2.7l2,1.4l-3,0.3v-0.7h-0.7l0.3-1.4l-0.3-0.3l-2.4,1l0.7,1.4
		v1h0.7v0.7l0.7,0.3l-1.4,0.3l-0.7-0.7l-0.7,0.7v1.4l-0.3,1.7l0.3,1l-0.3,1l1.4,2l-1.7,0.7l-1-1l-1,0.7l0.7,1.4l1,0.3l-0.7,2v0.7h1
		l0.7,1.7l0.3,1l-0.7,1l0.3,1l2-1l0.7,0.7l1.4-2.4l1-0.7l0.7,0.7l0.7,1.4l1,0.3v1.4l-1,0.7l0.7,1l1,0.3l0.7-0.3l1.4-1.4h1.4l0.7-0.7
		l4.1-1l0.3-0.7l-1-2l0.7-1l1.4,0.3l0.7,1.4l1,1l0.7,2.4h1.7l2-1l1,1.4l3,1v0.7l0.3,0.3h3l0.3,2l2,1.7l2-1l2-2h1.7l1.7,1v1l3,1
		l1.4,1.7l1-0.7l0.3,1l1.7-0.3l-0.3-1.4l0.3-1.7l3.4-0.7l1,1.4l0.3,1.7l0.7,0.7l-0.3,0.7l1.7,2v1.4l1,1.4l-1.4,1v1l-1-0.3l-1.4,1
		l-2.4-0.3l-1,0.7l-1.4-0.7l-1.4,1.4l-1.4-1l-1,0.7l-0.7-0.3l-1.4,1v1l-1,0.3l-0.3,1.7l0.7,0.3h-0.7v0.7l0.3,0.7l-1,0.7h-0.7l-0.3-1
		l-0.7-0.3l-1,1.7l-1.7-0.3l0.7-0.3v-1l-2.4-1.7l-1.4,0.3l-0.3-0.3l-0.7,0.7l0.3,0.7l-1.4,0.3l-0.3,1.4h-0.7l-0.3-0.3l0.3-0.3h-1
		h0.3l-1-1.4l-3.4-0.3l-0.3-1.4h-0.7l0.3,0.7l-1.4-1l-0.7,0.7v-1h-0.7l-1,2.7l0.7,1l2.4,1l-0.3,1.4l1.7,1.4l-0.7,2l-0.7,0.7l-0.3,3
		l-1,2l2,2.7l-0.3,1.7l-1.4,1.4l0.3,1.7h-1.7v1h-0.7l2.4,2v1h0.3l0.3,1l1,0.3l0.3,1h0.7h0.3v0.7l1,0.3l-0.7,0.3l0.3,0.7l-0.7,1.4
		l-0.3,1.4l-0.7,0.3h-2l-2-1.7l-0.3,0.3l-0.3,1l0.3,0.7l-1,1.4v0.7l0.7,0.3l-0.7,0.7v0.7l1.7,0.3l0.3,1l-0.7,1.4v1l0.7,1l-0.3,1
		l-3.4,2l-2.4,0.3l1,1.7l-0.3,0.7l1,1.4l-0.3,1.4l1.4,0.7v2l2,0.3l1,1.4l1-0.3l1.4,0.7l0.7,0.7v1.7l1.4,0.7v0.7l0.3,0.3v1.4v0.7
		l-0.7,1v0.7h2.4l1.4,1.4h1.7l2,1l0.3,0.7l-0.3,0.3h-1.7l-0.7,2.4l1.4,1l1,2l-2.4,1.7l-1.4,3.4l-2-0.3l-0.7,0.7l1,1.7l0.3,0.3
		l0.3,0.3l-1.7,0.7v1.4l-1,1.4l1.4,0.3v0.7l1.4-0.3l-0.7,2l0.7,0.7l-0.3,0.7v1.4l-0.7,0.7l0.3,1.7l0.3,0.7l-0.3,1l0.3,0.7v1l-2.4,1
		l-1.4,2.7l-2.4,1.4l-3.4,5.4v1l1.4,1.7l-0.3,1l1.7,3.4l-2,0.3l-1,1.4l-0.3,1.7l-2-1.4l-1.4,0.3l-1.7,2l0.3,1.4l-4.4,2.7v0.7l-1,0.7
		v0.7l-0.3,1.4l-0.7,0.7l0.7,0.7v1l-5.7,1.4l-2,1v1l-2.7,1.4l3.7,1.4v1l1.4,0.7v1.7l1,0.7v1.4l0.7,0.7l-1.4-0.7l-3,0.7l-0.3,1.4
		l-2.4,2.7v0.3l-0.3,0.7l-1.4,0.7l-0.3,1.4l1,0.7l-0.7,1.7l0.3,0.7l-0.7,2l1.4,1.7l-0.3,1l-3.4,2.4l0.7,0.3l0.3,1.4l0.7,1l1,0.3
		l1,1.4l0.3,1l-1,2l0.3,0.7l-1,2.4h0.7l-0.3,1l1,0.3l-0.3,1l1,1.4l1.4,0.7l-0.3,0.3l0.7,0.3l-0.3,0.3h-0.3l1.4,1.4l-0.3,0.7l0.7,1.4
		l-1,0.3l0.7,0.7l3,1v0.7l2,1.4l-0.3,0.3l0.3,0.7l1,0.3l1-0.3l0.3,0.7l2.4-1l3.7,1l2.4-1.4l0.7,1.4l1-0.3l1.4,1l-0.3,0.7l0.7,0.7
		l0.7-0.3l-0.7,1v1.7l-1,0.7l0.7,2.7l1,2.4l0.7,0.3l-0.3,0.7l0.7,1l-1.7,2.7l0.7,0.7l-0.3,0.7l0.3,0.3v0.7l1.4,0.7l0.7,1.7l-1,0.7
		l0.3-0.3l-1-0.7l-1.4,1l-2.7-0.7v-0.7l-4.4,0.3l-0.3,0.3l0.3,0.7l-0.7,0.7l-1.4-0.3l0.3,0.3l0.7,0.3v0.3l0.3,0.7l0.3,1.7l-0.7,0.7
		l-1-0.3l-1.4,0.7l-2.7,3.7l1.4,0.7l-0.3,1.7l1.4,1.4h1l-0.7,1v1.4l2,1.7l1.4,2h2.4l1.7-1l1,0.3v0.7l1,0.7l0.3,0.7l-1,1.4l0.7,0.7
		l0.3,2l-1,2l1,0.7l0.3,1l1-0.3l1,1l-0.3,0.7l1.4,1.4l-1,2l1.4,0.7l0.7,1l-1.7,2.7l-3.4,0.7l-0.7,2.4l-3.7,3v1.4l-0.7,0.3l0.3,0.7
		l-1.4,0.7l-1,1.7l-0.3,2.7l0.7,0.3v0.3l1,1l1.7,1l-1.4,3.4l-4.1,1.7l-0.3,1.4l-2-0.7l-1.4,1.7l-1.4-0.7v-1l-1.7-1l0.7-1.7v-1
		l-1.4-0.3l-1.7,1.4l-1.4-2v-1.4l-0.7,1l-3.4-0.7l-1.4,3l-1.7-0.3l-0.3-0.7l1.7-1l-0.3-1l-0.3-2l0.7-0.7v-1.4l-0.7,0.3l-0.3-1.7
		l-1-0.7l-2.7,1l-2-1l-1.7,0.7l-0.7-1v-1h-0.3v-0.7l-0.7-0.7l-4.1-1.4l-0.3-1l-1.7-2.4l-0.3-1.4l-2-1.7l0.3-1l-0.7-0.3l0.3-0.3
		l-0.7-1l3.4-0.3l-0.3-1.4l-0.3-0.3l-0.7,0.3l-1.7-1l-0.7,1.7h-1.7l-1.7-1l-0.3-1.4l-1-0.3l-0.3,1.4l-1-0.3l-2,2.7l0.7,1.4l-1,1.4
		h-4.1l-0.7-0.3h-1.4l-0.3,1l-1.4,0.3v-0.7l-1-0.7l0.3-1l1.7-0.7l-0.7-0.3l0.3-0.3l-0.3-0.7l0.3-1l-1-1.7l-0.3-2.7l0.3-0.7l1.4-0.3
		l1.7-1.4v-0.7l-0.3-0.7l-2.4-0.3v-0.7l-2-1.7l0.7-1.4l-0.7-1.4l-0.3-1.4l1-0.3v-0.7l-2.4-0.7l-3.4,3l-3,0.3l-1-1.7l-6.8-2.4l0.3-1
		l-1.7-1.4l-5.7,1l-0.3,0.3l0.3,1.4l-0.3,0.3l-5.1-1l-1.4,0.7l-2.4-1l-1,0.7l-2-2.7l-2-0.3l-2.4,1l-2.4-0.7l-0.7-1l-1.7,0.7l-1.4-2
		l-1.4-1l-2.7,1l-3-0.7l-1.7-1.7h-1v-0.7l0.3-0.3l0.3-1.7l-1-2l-1.7-0.7l-0.7-1.4l-3-0.3v-1.4H291l-1.7-1.4l-1.4,1.4l-4.4,0.7l0.7,1
		l-0.3,1.4l-1.4,1.4l-0.3,1l-2,0.7l-2.4,3l-0.7,1l0.3,1v1l-1.7,1.4l-0.3,2l-1.4,0.3l-0.3-1.4l-0.7-0.3l-0.3-1.4l-1.4,0.7l-0.7,1.4
		l-3.4,0.3l-1,1l-3.7-1l-2.4,3.4h-1.4l-1.4-1.7l-2-0.3l-1.7,2h-2.4l-0.7,1h-2.7l-1,1l-1.4,0.3l-5.4-2.4l-0.7,2l-1.4,1.4l-1.7,0.3
		l-0.3,1l-1.7,1l-0.3,1.4l1,0.7v1.7l-2.4,1.7h-2l-3-2.4l-1.7,0.7l-1-0.3l-2.4,0.7h-2.7l-2.4,3h-2.4l-1.4-1.4l1-1l-0.3-1.4l-1-1
		l-0.7-1l0.7-1l-1-0.3l-2.4,3l-1.7,0.3l-1-0.7l-1.4-2.7H204l-2.4,1l-0.7,0.7l0.3,1l-1,0.7l-2.4-0.7l-0.7-0.3v-1.4l-2-1.4l-4.7-0.7
		l-1,0.7v-0.7h-0.7l0.3-1l-0.7-0.7l0.3-0.7l-1-0.7l-0.3-0.3l0.3-0.3l-0.7-1.4v-1l0.7-0.3v-0.7l-1-1.4v-1.7l-1.4-1.4l-0.3-2l-0.7-1.4
		l0.3-1l-0.7-0.7l1.7-2l-0.3-1l-2-2.4l0.3-0.7v-1.4l0.7-2l-1.4-0.3l-0.7-1.4l0.7-3l0.7-0.7l-0.3-0.7l1-0.7v-1l1-1l2-1.4h2.4l0.7-1.4
		l-0.3-1.7l-1-1l0.3-1.7l-0.3-1l1.7-1l0.3-1.7l1.4-1l1-1.7l1.4-0.7v-0.7l-0.7-1.4l-1.7-1H191l2-3l-0.7-0.7v-2l-1-3h-0.7l-0.3-0.7
		l0.7-0.7l-2-1.4l-2-3.4l-0.7-0.3v-1l-4.4-0.7l-0.7-1h-1.4l-1-1h-1v-0.7l-2,0.3l-2-1l-3.7,2.7l-3-0.3l-0.3,1.7l-2,1l-0.3,1.4l-1,0.7
		l0.3,1.4l-1.4,0.7v1l-1.4-2v-1.4l-1-1.4l-4.4,0.7l-3.4-3l-2.4,1l-2.7-1l-0.3-1.4l-3.7-5.4v-0.7l0.3-1l-0.3-1l0.3-0.7l-3.4-2.4
		l-1.7,1.4l-2.4-1.4l-2.7,2.4l-1.7-0.3v1l4.4,3.4l-1.4,0.7l2.4,1.4v0.7v1.7l1,0.7h-0.7l0.7,0.7l-1.4,0.3l0.3,0.3l0.3,1.4l-3-1.4
		l-1.7-2l-1.4-0.3l-1.4-2.7h-2l-1.7,2l0.7,1.4l-0.7,0.7l0.7,2.4v1l0.3,0.3l-0.3,0.3v0.7l1,0.7l-1.7,1l-4.1-0.7v0.7l0.3,1l-1.7,0.7
		l0.3,1l-1,1v3l-1.7,0.7l-2.4,2.7l-12.8-0.3l1.4-2l-0.3-0.7v-1l-0.3-0.3l0.3-0.7l-1.7-0.7l-0.3-1.7l-0.7-0.7l0.3-0.3l-1.7-2
		l-4.7-9.8l-1.7-2l0.3-0.7l-0.3-0.3l-1.4-0.7v-0.7l0.7-0.7l-0.3-2.4l0.3-0.7l-0.3-0.7l-1.4-0.7v-1l-0.7-0.3l0.3-1v-1.7l-1,0.3
		l-1.7-1.7l0.7-2.4l1-0.7v-1.4l0.3-0.7l-0.3-0.3l0.7-0.3v-0.7l0.7-1v-1l3,0.7l0.3-0.7l-0.3-0.7l0.3-0.3l-1.4-1.4l-0.7-1.4l0.7-0.7
		l-0.7-1l0.3-0.3l-1-0.3l0.3-1l-1-0.3l-1.4-1.4l0.3-1v-0.3l-1.4-1.4l0.3-1.4l-2.4-0.3l-1.4-2.4l-0.7-3.7l-0.7-1.4l-3.4-2l-0.7-3
		l-0.7-1.7l1-0.7v-1H81l1-1l1.4-2.7l-0.3-0.7l0.3-1.7l1.4,0.3v-0.7l1-1.4v-1l1-0.3l0.7-1.7l2-0.3l2.7,0.3l3.4-0.3v-2.4l1.4-0.3
		l1.4-5.4l2.4-3l11.8-8.1l3.7-5.1l-1-2v-1.7l-1-0.7v-1l-1-0.7l0.3-4.4l1-1l-1-1.7h-0.3l-0.3-1l0.3-0.7v-0.7l2.7-3.4v-1.7l-0.3-0.7
		h0.3v-1.7l-0.3-0.3l2.4-1.7v-0.7l0.3-0.3v-1l0.7-1.4l4.1-0.3l1-2.7l1.4-1.4l0.3-0.7l-0.7-2.4l-0.3-4.1l-5.7-2.7l2-2.7v-1l0.7-0.3
		l1-1.4l0.3-2l-0.7-0.7l0.7-1.7l-0.7-0.3l-2.4,0.3l-0.3-2.4l-0.7-0.7h-2l-0.7-1l-0.3-0.7l0.7-0.3l0.7-1.4l-1.7-1.4l0.7-1.7V803
		l-0.7-0.3l-3.7-0.3l-1.7,0.7l-3-1l-1.4,1.7l-2.4,0.3l-0.7-1.4l0.7-0.3V802l0.3-0.7l-2-0.7l-1-1.7l-0.7,1l-1.7-0.3l-1,1h-1.7V800
		l0.3-0.3l-0.3-0.7l1.4-0.3l0.3-0.7l-1.4-1l-2,1l-0.7-0.7l2-4.1v-1l-1-1l-0.7,0.7l-2-1.4l-1,1.7l1,2.4l-0.3,0.7l-2,0.7l-2-2l-0.7-1
		l-0.7-0.3v-1.4l-1.4-1.7l-1,0.3l0.7-2l-1-0.7l1.4-0.7l-0.3-0.7l0.7-0.7l-1-1.4h-1l-0.3,0.7l0.3,1l-1.7,0.7l-3-0.3l-0.7,0.7
		l-0.7-0.7v-1l1.4-2.7l-0.3-0.7l0.3-1l-0.7-0.7l-3.4,1l-1,1l-8.1,0.7v-0.7l-0.7-0.3l0.3-0.7l-1-1l0.7-0.7l0.3-2.4h0.7v-1.4l1.7-2.4
		l1-1.7l1-0.7v-0.3l1.4-0.7v-0.3l1.4-3l1.7-1l-1.7-2l0.7-1.7l-1.4,0.3l-0.3-1.4l2.7-3L73,755l-4.4,0.3l2-1.7l-1.7-2l-0.7-1.7v-1.7
		l-1.7-0.7l-1.4,1l-2-1l-1.4,0.7l-1-0.7l-0.3-1l-0.7-0.7l0.3-0.7l-0.3-0.3H58l-1,1L56.4,745.6"/>
	<path id="emel_x27_janovskij_x5F_rajon" inkscape:connector-curvature="0" class="st0" d="M116.2,1188.7l1.7,1l0.7-0.7l0.3-1h-0.7
		v-1h-1.7v1.4L116.2,1188.7 M101.4,1183.6l1.7-1.7v-1.4l0.7-0.3v-0.3l0.7-0.3l-0.3-0.7l0.7-0.7l-0.3-1.4l1.4-1.7v-0.7l0.7-0.7
		l-0.3-0.7h0.7l-0.3-0.7l0.3-0.3v-1l1-1v-1l1.4-0.7l-0.3-0.7l0.7-0.7l-0.7-1.4l0.3-0.7h-0.3l0.3-0.7l-1-1.4l0.3-0.7l-0.7-0.3v-3.4
		l-1.4-1.7l0.3-0.7l1.7-0.3l1.7,1.7l1.7,0.7l0.7-0.3l2,2h1l0.7,1.7h1l1,1.4l5.1,0.3l2.4-1l2.4,1.7v0.7l-1.4,0.3l1,1l-0.3,1l1-0.3
		l0.7,1l-0.3,0.7l0.3,0.7l-0.7,0.3l-0.3,2l-1,0.3l-0.3,1l0.7,1l2.7,1.4l0.7-0.3l1.4,1.4l-1,2.7l0.3,2.7l1.4-0.3l0.7,1h1.4l1,1.4
		l1.4,0.3l-0.3,3l6.4-1.4l0.3-1l0.3-0.3l1,0.3l0.7,1.7l2.7-0.3l0.7-0.7v-2l0.7-0.7l0.3-0.3l-0.7,1l-0.3,2.4l-0.7,0.7h-1.7l-2,1.7
		v0.3l0.7,1.4v1l-1.4,1.7h-2l-1,1.4l-2.7-0.3l0.7,2.7l-0.7,2l-0.7,0.3l-1-1.7l-1,0.3l0.3-0.3l1,0.3v-1l0.7-0.3l0.7,1l-0.7-1l1.4,0.3
		l-0.3-1l-1,0.7v-1l-2.7,0.3l-0.3-0.7l-0.7-0.3l0.7,1v0.7l-1,0.7l0.3-0.3l-1-0.7l0.7-0.7h-1.4v1.4l-0.7,0.3v1.4l-1,0.7l-0.7-0.3
		l-0.7-1.4l-3,1.7v2.7l-0.7,0.7l1,0.3h-4l-1-1l0.7-0.3l-3-0.7h-1l-0.3,1l-1.7-0.3v0.7H115l-0.3-1l-2-0.7l0.7-0.7h-1l0.3,1.4l2.4,1.4
		v4.1h-1.4v-1.7l-5.1-1l0.3,0.3l-0.3,1l3.7,0.7l0.3,3.7h2.7v1.4l1,0.7v1h1.7l1.4,1.7l2-0.7l0.3,0.3l-0.7,0.3v1.7l-7.8-1l-7.8-3
		l-0.7-1.7l-3.4-3v-1.7l1.4-0.3l-1-2.7l1-1.4h0.7l3.4,3.4l1-2l-1.7-2.4l1.7-1.4l0.3-3.7l0.7-1.4l-6.8-0.7v-0.7l1-0.7v-3.4l-1.4,0.3
		L101.4,1183.6"/>
	<path id="enisejsk" inkscape:connector-curvature="0" class="st0" d="M115.6,1082.9l0.7-0.7l1,1l2-0.3l0.7,1.4l-1.4,2l-2.7-0.7
		L115.6,1082.9"/>
	<path id="enisejskij_rajon" inkscape:connector-curvature="0" class="st0" d="M137.2,1100.8l0.3,0.3l0.3-0.3v-0.3L137.2,1100.8
		 M135.5,1103.2l0.7-1l2.4,1l-0.3-0.7l-1.4-1.4L135.5,1103.2 M115.6,1082.9l0.3,2.7l2.7,0.7l1.4-2l-0.7-1.4l-2,0.3l-1-1
		L115.6,1082.9 M119.6,1094.4l0.3,0.3l-0.3,0.7l0.3,0.7h2l0.3,1l1,0.7l-0.7,1.7h0.7v1.7h4.1l0.7-0.7l-1.4-1l1.4-1l-2-1.4l-1-3
		l-2-1.7v-1.4l0.3-1l-0.3-0.3l-0.7,0.3l-0.7,1h-1.4l0.3,0.7l-0.7,0.7l0.7,0.3L119.6,1094.4 M-54.1,956.8l9.5-6.1h1.7l22.6-10.5v-1.7
		l-1-2.4l4.1-4.1l4.1,0.7l1.4,1l1.4,2.7l1,0.3h0.7l1.7-2.7l1.4-1l2,2.4l1.7,0.3l0.3,3l2,1.7h3l4.1-1.4l0.7-0.7v-1l0.3-0.7l-1-2.4
		l1-0.3l4.4,3.7l1.4,0.7l0.3,1l-0.7,0.3l2.4-0.3l2.4,1.4l0.3,1.4l0.7,0.7l-0.7,0.3v1h-0.3l1,1l0.3,2l0.7-1l1.4-0.3v-0.3h-0.3
		l0.7-0.7v-0.3h1L23,944l0.7-0.3l-0.3-1l-0.7,0.3l0.3-1l-0.3,0.3v-0.7l2-0.3l-0.3-0.3l1-1l1.4,0.3l-0.3,0.7l1,0.3L27,942h0.3
		l2.4,0.3l-0.3,0.7l1.4-1l1.4,1l0.7-0.7l-0.3-0.3l1.7-0.3l0.7,0.7l1.4-0.3l-0.3-0.7l1.4,0.3l0.3-0.3v-0.7h1.4l-0.3-0.3l0.3-0.3
		l0.7,0.3l-0.3,1l1,0.3l0.3,0.7v0.7h-0.7v1.7l1-0.3v0.7l1,0.7l-0.3,0.7l0.7,1h1l0.7-0.7l2.4,1.7l0.3-0.3l-0.7-0.7l0.3-0.3h0.7l0.3,1
		L49,948l-0.7,1l0.7,1.4l-2.4,0.3l2.7,0.3l0.3,1.7h1l-1,0.7l0.7,1v1l-0.3,0.3l0.7,0.7l0.7-0.3l0.7,1.4l1,1l1.4-0.3l-0.7,1l0.7,0.3
		l-0.7,0.3l0.7,1l-0.3,0.3l1.4,0.3l-0.7,0.3v1l1-1l0.7,1H58l-0.3,0.7l1,1.7l1.7-1l0.7,1.7l0.7-1h1.4l-0.7-1l0.3-0.3l2.4,1.7l0.3-1
		l1.4-0.3v1.4l1.7,4.1l1,1l24.7,3.7l22.3,0.7l-1.4,1.4v0.7l-1,0.3l-0.7,2l-2,1.4l0.3,2.4l-1.7,1.4l-1,2.7l-1,0.3l0.7,0.7l-0.7,1.7
		l-0.7,0.3l-1.4-0.3l-0.3,0.7H105l0.7,2l-0.3,0.7l-1,3v1.4l-1.4,2l0.3,1l-1.4,2l-1.7,1v1.4l-1.4,2.4v0.7l-0.7,1.4l-0.3,2l1.4,0.3
		l1.7,2.7l-0.7,2.7v0.7l-0.7,1.4l1,2l-0.3,2l-0.7,0.3l7.8,15.5l3.7,2.4l5.7,5.1l0.7,1.7l1.4,3.7v5.7l0.3,3.4l3,12.2l1.4,0.7l4.1,0.3
		l2.4-0.3l1-0.7l1.7,1l1.4-0.3l0.3-1l1-0.3l1,3.7l0.7,3.7l0.7,0.7l1.4,3l0.7-1l3,5.4l2.7,9.5l-4.1,1.7l-0.7,1.4v0.7l2,2v1l1,0.3
		l-1,1.4h-0.7l-1,2v1.7l1.7,3l-2,1.4l-3.7-1.4l-2.4,0.3l-0.3-0.7l-3.4-0.3v1l-2.7,0.7l-0.3-1h-0.7l0.3-1l-1.4-2.4l1-0.3v-2h-1.4
		l-3.4-2.4l-3.7,2l-1.4,1l0.3,0.7h-0.7l-0.7-1.4l-1,1.4l-1.4,0.3l-2.4,3.4l-8.1,0.3v1l-1,0.7h-1v-1l-1,0.3l-0.3-0.7l-0.7,0.3v-0.3
		v-0.3l-0.7,0.3l-1-1.7l-2-1v0.7h-1v0.7h0.7v1l-1.4,0.7l0.3,1l-0.3,0.7v2l-0.7,0.7l0.3,0.3l-0.3,0.7l0.3,1l-0.3,0.3l0.7,0.3l-0.3,1
		l1.4,0.3v1.4l-4.1,2.7l-2-1.7l0.3-2l-3-1l-0.3-1l-5.7-0.3v3l-1.4-1.7h-1l0.3-1.4l-1-1l0.3-1l-0.3-1l0.3-0.3l-0.7-0.3v-1.7H77
		l-0.3-1.7l0.7-0.3l-0.7-0.3l0.7-1l-0.3-1l1.7-1.4l-1-1v-1H77l0.3-0.7l-0.7-0.7l-17.6,6.8l-9.5,2.4l-0.3-1.7l0.7-0.3l-0.7-1l1-2
		l-0.3-1v-1.4l-1.4-0.7v-1l-10.1-1l-4.1-4.1l-13.2-4.7l-0.7-5.1l-1.4,0.3l-1-14.5l12.2-17.2l10.5-5.4l-5.1-9.1l1.4-4.1l-16.6,0.7
		l-7.4-19.9l-7.8-1.7l-1.4-9.5l-9.8-4.1l-13.9-1.4l-11.8,2l-18.6-2.7l-2-3.7l0.7-2l1-0.7l0.3-6.4l3-3.7l0.3-1l-0.3-1.4l0.7-0.3v-0.7
		h0.7l0.7-1.4l-7.4-22.3l-1.4-0.3L-54.1,956.8"/>
	<path id="ermakovskij_rajon" inkscape:connector-curvature="0" class="st0" d="M78.7,1390.8l1.4-2.4l0.3,0.7l2-1.4l0.7,0.7l1.4-1.7
		h0.7l0.3-2.4l1.7-2v-1l3.4-2l0.7,0.3l0.3-1.4l1.4-1l1,0.7l0.7-0.3l0.7,1l0.7-0.7l0.3,0.3l2.4-1l1.4,0.3l1.4,1l5.1-1.4l0.3-0.7
		l-1-1.7l0.7-0.7l-0.3-1.7l1.4-2.4l3.4-1.4v-1.7l-1-2v-1.7l1.7-0.7l4.4-4.7l0.3-2v-1.4l-1-1v-1.4l-2.7-2v-1l-2.7-0.7v-3h0.7l0.3-1
		l-1.7-2.4l0.3-1.4l-3-0.7v-2.7l-0.7-2.7l4.1-1.7l-1-0.3l1.4-2.7l-0.3-1.7l-0.7-0.3v-1.4l0.3-1.4l1.4-0.3l-1.7-1.4h0.7v-1.7l0.7-0.7
		l1.4,0.3l-1.4,1.4h2.7l-2,1l1,1.4l4.1-0.7l1.4-1v-1l3,0.7l1.7,3l1,0.7l1.7-0.3v1l1.7,2.4v1l2,0.3l3.4-0.7l2,1.4l1-0.3l0.7-1.4
		l3.4-0.3v2l-1.4,2.7l1.4,2.4l-2.4,2l3.4,5.1l1,3l-0.3,0.7l0.7,0.3l-0.7,2.4l0.3,0.3l5.4-0.3v-1.7l2,1l3.7,0.3l3-2.4l1.7,1.4l2,0.7
		l2.7,2l-0.7,1.7v1.4l-1.4,0.7l0.3,2.7l-2.7,1.4l-1.7,1.7l0.7,0.7v1l-1.7,2.4l-1.7,1v1.4l-0.7,1.4H151l-0.3,1l0.3,2.4l-2.4,3.4v1.7
		l-0.7,1.4l0.7,1.4l-2.4,1l-0.3,1h-2.7l-2.4,2h-1.7l-2,2l-0.3,2l-2.7,1l-0.7,2.4l-1,1.4l-2,1H129l-1.4,1.7l-1,2l-2.7-1h-2l-1.4,2
		l-1.4-0.3l-1.7,1l-4.4-1.4l-2.4,0.3l-0.7-0.7l-4.7,2.4l-3.7-2l-1-2.4H99l-1-1.4l-1.7,1l-5.4-2.4l-2,0.7l-4.7-0.3l-0.7,1l-0.7-1
		l-1.7-0.3L78.7,1390.8"/>
	<path id="idrinskij_rajon" inkscape:connector-curvature="0" class="st0" d="M101.7,1269.8l2-1l-0.3-1.7l0.3-2l0.7-0.7l-1.7-0.3
		l0.3-2.7l-0.3-0.3l0.7-1.4l-0.3-1.4l0.3-0.3l0.7-2l0.7-0.3l1.7,1.4l1.4-1.7l2,0.3l2.4,2.7l1.7,0.3l0.3-2.4l0.7-0.7l-1-1.7l1.4-1
		l1,0.7l0.7-2h0.3v-0.7h0.7l0.3-0.7l0.3,0.7l1.4-0.3l-0.3,0.3h0.7v0.7h1.7l5.7-1l2.4,1v1l1.4,1l3.4-1.7l2,1.4l0.7,1.4l1,0.7
		l-0.7,1.7l-2,2.4l-1-1.4l-0.7,0.3l-0.7,2.4l0.7,0.7l-0.3,1.4l-2,0.7l1,1.4l5.7-1l1.4,1l-0.3,1.4l1.7,1.7l-0.3,1.7l-2,1.7v1.7
		l-1.4,2.4l-2.7,1.7l-0.3,1.7l-1,1.4l-1.4-0.7l-2.7,0.3l0.3,1.4l-0.3,1l-1.4-0.3v1l-3.4,2l-0.3-1H124l-3,2v0.7l-1.4,0.7l-1-1
		l-1.7,1.7l-1.4-0.7l-1.7,0.7l-1.4-1.4h-2.7v-0.7l-4.4-1.7v-0.3l1,0.3l0.7-0.7h1l-0.7-2.4l1-1.4l-1-0.7l-3.4,0.7v-1l1-0.7l-1.7-1.4
		l-0.7-2.7h-1v-4.3"/>
	<path id="igarka" inkscape:connector-curvature="0" sodipodi:nodetypes="ccccc" class="st0" d="M46.9,621.3l-0.1-2l4.2,0.3l0.1,1.1
		L46.9,621.3"/>
	<path id="ilanskij_rajon" inkscape:connector-curvature="0" class="st0" d="M201.4,1179.2l0.7-1l-0.3-0.7h0.7l0.3,0.3h1.4v1
		l0.3-0.7h4.1l0.3,2h2.4l1-3.7h1.4v1l1.4,0.3l-1.4,1v1.7l5.1,0.7l0.3,3.7l-1,1l-3-1l-1.4,1l0.3,1.4l3-0.3l0.7,1.7l-0.7,2.7h-1
		l-0.3,1.7h0.3l0.7,1.7l2-1h2.4l-0.3,1.7l-5.4,0.7v-1l-1,2l3.7,3.4v1.7l-0.7,0.7l0.3,0.7l-0.7,0.7l0.7,0.3v0.7h1l-0.3,2.7h1v1l-2,1
		h5.4v-1.7l6.1-0.3l0.7,1.7l-1,1l-0.3,2l-0.7,0.7l1.7,1l0.3,1l-2,1.4l0.7,0.7l-3.7,3.7l-2.7-2.4v-1.7h-2l-3.4,1.7l-1,2.4l-1.7,0.3
		l-4.4-3.7l-2-0.3l-1.4-1v-2h-3.4l1.4-2.7l1,0.3l0.3-0.7v-1.4l-0.7-0.3h1v-3l1.4-0.3v-1l-2-0.7l0.7-1.7l-0.7-1l1-2.4v-1.7l0.7-1
		l-1.4-0.7l-0.3-2.4h-0.7l0.3-1.4l-1.4-1.7l0.7-0.7l-1.7-1.4l1.4-0.7v-2h-1.4l-0.3-0.7l0.7-0.3l-0.3-0.3l1-1.4l-0.3-0.3l2.4-1l-1-1
		l-1.7-0.3l-0.3-1.4L201.4,1179.2"/>
	<path id="irbejskij_rajon" inkscape:connector-curvature="0" class="st0" d="M183.5,1216.1l2-1l1.7-1.7l1.4,0.7l1-0.7v-1.4l-1.4-1
		l-0.7-2l-0.7-0.3l1-0.7l-0.3-2.7l3.7,0.3l-0.3-0.7l1.4-0.3l1,0.7l0.3-1l2,0.3l0.3,0.7h-0.7l0.7,2.4l1.7-0.3v1l1,1l2.4-0.7l-0.3,1.4
		l-1,0.3l2,0.3l-0.3,1.7l1-0.7l0.3,0.7l0.3-0.7l0.7,0.7l-1.4,2h3.4v2l1.4,1l2,0.3l4.4,3.7l1.7-0.3l1-2.4l3.4-1.7h2v1.7l2.4,2.4
		l4.1-3.7l2,2.4l0.3,0.7l-1.4,0.7v0.7l0.7,1l-0.3,0.7l0.7,1.7l-0.3,0.7l0.3,1.7l1,1.7v1l1.7,2.7l-1.7,1.4h-2.4l-0.3,1H227l0.3,0.7
		h-1.4l-0.7,0.7l1,0.7v2.4l-0.7,1l0.3,2l-0.7,0.7l1,0.7l-2.4,3l1.4,2.7l1.4,0.7v1.4l0.7,1l-0.7,0.3l0.3,1.4l-0.3,1.4h-0.7v2l-1,1
		v1.4l-1.4,2l0.3,1v2.4l-1.4,2.4l0.3,0.3v2l-1.4,0.7l-4.7-2l-3,1.4l-2.7-2l-1,1v1.4h-0.7l0.3,0.7l-1,0.3v1.4l-0.7,0.7l0.7,0.7
		l-1,0.7l-0.3,1.7l-1.4,0.3l-0.7-1.4h-1.4l-0.7-1.4l-0.7-1.4l2-1.4l1.4,0.3l1.4-1l0.3-1.7l-0.3-1h-1.7l-0.7-1.7v-1.7l-4.7-4.7
		l-3-4.7l-0.7-2.7l-2.4-4.4l0.3-6.1l-2.4-2.4l1.4-1.7l-1.4-0.3l-0.3-1l1-2.7l-0.3-1.4l0.3-0.3v0.7h0.7l0.3-0.3l-1.4-1.7h-1.7
		l-0.7-2.7l-0.3,1l-3-1.4l-0.3-1.7h-0.7v-1.7l-1-0.3l0.7-3l-0.3-1.4l-0.7-0.3L183.5,1216.1"/>
	<path id="kansk" inkscape:connector-curvature="0" class="st0" d="M198.7,1188.7l0.7-0.3l1.7,0.7v-1h0.3l2.4,2l-0.7,0.7l0.3,0.7
		l-1.4,2.4l-2-0.3l-0.7-0.3v-1.7l1-1.7L198.7,1188.7"/>
	<path id="kanskij_rajon" inkscape:connector-curvature="0" class="st0" d="M172,1180.9l3.7-4.7v-5.1l1.4-0.7l2.7,1l2,1.7l1.7-0.3
		l0.3,1.4h0.7l0.3-0.7l0.7,0.7l1.4-1.7l2.7,0.3l1.7-0.7l1,1.4l1-0.7l1,0.7l3.7-1.7l0.3,0.7l0.3,1.4H198l0.7,2l2,0.3l0.7-0.7l2.4,1.4
		v0.3l1,0.7l-0.7,1v-1l-2.4-0.3l0.3,0.7l-0.7,1h0.7l0.3,1.4l1.7,0.3l1,1l-2.4,1l0.3,0.3l-1,1.4l0.3,0.3l-0.7,0.3l0.3,0.7h1.4v2
		l-1,0.3l0.3,0.7l-1.4-1h-0.3v1l-1.7-0.7l-0.7,0.3l1.7,1l-1,1.7v1.7l2.7,0.7l1.4-2.4l1,1l-0.3,1.4h0.7l0.3,2.4l1.4,0.3l-0.7,3
		l-1,2.4l0.7,1l-0.7,1.7l2,0.7v1.4h-1.4v3h-1l1,0.7l-0.7,1.7l-3.4,0.3l0.3-1.7l-2-0.3l1-0.3l0.3-1.4l-2.4,0.7l-1-1v-1l-1.7,0.3
		l-0.7-2.4l0.7-0.7l-1.7-0.3l1-0.3l0.3-1h-1l-1-2.7l-2.4-0.7l0.3-1l-1.4-0.3v-1l-0.7-0.7l0.3-0.7l-3.7-0.3l-1.4-2l-2.7-0.3l-3,0.7
		l0.3-2l0.7-0.3l-1-3.4l0.3-1.4l-1.4-2v-0.7L172,1180.9"/>
	<path id="karatuzskij_rajon" inkscape:connector-curvature="0" class="st0" d="M116.6,1317.8l1.4-0.3v-1.7l1-1.7l2,1l1.4-0.7v-1.7
		l-0.3-0.7l-3.4-0.7l0.7-2l-1-0.7l2.7-2h2.4v-1.7l1.7,0.7l3.7-0.3l0.3,0.3l3-1.4l1.4-1.7h1.4l1.4,0.3v1l1.7,1.7l5.4,1l1-0.3l-0.3-1
		l0.7-1.4l-0.3-0.7l1-0.7l1.7,0.3l-0.7,1l0.3,1.4l1.7,0.3l-0.3,1l-1,0.3l0.7,0.7l2.4,1.4l1.4,1.4l2,0.3l2,2l2.4,1.4l-0.3,2l-1.7,1.4
		l0.7,1.7l2,2l3-0.3l0.7-1.7l1.4-0.7l3.4,2.4l3-2.7l0.3,0.7l1.7,0.3l1,4.4l4.4,1.7l-3.4,2.4l-0.3,1v0.7l1.7,0.3l0.3,1.4l0.7,1
		l-0.3,1h-1.4l0.3,1.4l-1.7,1l0.7,2l-1,0.3v1.4l0.3,2l-0.7,1l0.3,1.4l-1.7,1.7l-0.3,1l0.3,1.4l-0.7,0.7l-2.7-1l-1,1l-1.4-0.3
		l-4.4,3.7l-5.7-3.7l-3,2.4l-3.7-0.3l-2-1v1.7l-4.7,0.7l-1-0.7l0.7-2.4l-0.7-0.3l0.3-0.7l-1-3l-3.4-5.1l2.4-2l-1.4-2.4l1.4-2.7v-1.7
		h-3.4l-0.7,1.4l-1,0.3l-2-1.4l-3.4,0.7l-2-0.3v-1l-1.7-2.4v-1l-1.7,0.3l-1.4-1.4l-1.4-2.4l-1.4-0.3l-0.3-3.7l-2-0.3L116.6,1317.8"
		/>
	<path id="kazachinskij_rajon" inkscape:connector-curvature="0" class="st0" d="M124.3,1138l0.3-0.3l-0.3-0.3l1-1l-0.7-0.7l0.7-5.4
		l-0.3-1l2-1l0.7-3.4l-0.3-2l-1.4-2l4.4-1.7l-0.3-1l0.3-0.7l-1-1.4v-0.7l-0.7-0.7v-1H128l0.3-1h2v-1l3.4,0.3l0.3,0.7l2.4-0.3
		l3.7,1.4l2-1.4l-1.7-4.1l0.7-2l0.3,1.4l1.4,0.7l1.7-0.7l12.8,1l2.4,2h2l0.7,2l2.4,0.7l-4.7,10.1l-6.4,10.8l0.3,2l2.7-0.7l1,1l0.3,2
		l-1.4,0.3l-6.1,4.7l-1.7,0.7l-2.7-0.7l-0.7-1.4l0.7-3l-0.3-0.7l-1.4,0.7l-0.3-2l-1.7,0.3l0.3,0.3l-1,0.7l0.3,1l-0.7,0.7l-1-1.7
		l-1.4,1.7h-4.1l-0.3,1h-0.7h-1.7l-0.3-0.7l0.3-1.7l-0.3-1l0.7-1l-2.7,1h-5.5"/>
	<path id="kedrovyj_x5F__x28_krasnojarskij_x5F_kraj_x29_" inkscape:connector-curvature="0" class="st0" d="M116.2,1188.7l0.3-0.3
		v-1.4h1.7v1h0.7l-0.3,1l-0.7,0.7L116.2,1188.7"/>
	<path id="kezhemskij_rajon" inkscape:connector-curvature="0" class="st0" d="M262.2,1064.3l2.7-6.4l4.4,0.7l1.7,1.7v-1l0.7,0.7
		l0.7-1l1.7-0.3l-0.3-0.3l0.3-0.7l0.7,1l1-1h2.7l-0.3-1.7l2-1.4v-1h1l0.3-1h0.3l-0.3-0.7h0.7l1-2.4l1.7-0.7l-0.3-2l1.4-0.3v1.7
		l1.7,0.3h3.7l0.3,1h1v0.7l2.7,2.4l1.4-1v0.7l4.7-3l-0.3-1l0.7-2.7l-0.7-4.7l0.3-3.7l-1-3l-1.7-2.4l0.7-2l-1,0.3l-1.7-1.7l-0.3-0.7
		l0.3-1.4h-1.4l0.3-1.4h1l-0.7-0.7l0.3-0.3l-1.4-0.7l-0.7,0.3l-0.3-0.7l-2,0.3l-2.7-2h0.7l0.3-0.7l-0.3-0.3l1-1v-1.4l2.4-2v-0.7
		l1.4-1.7l-0.3-1.4l1-1h1l1.4-1.7l1.4-0.3l0.7,1.4l-0.7,2.7h1l1.7,1.7l3,0.7l2.7-1.4l1.4,1.4l1.4,2l1.7-0.7l0.7,1l2.4,0.7l2.4-1
		l2,0.3l2,2.7l1-0.7l2.4,1l1.4-0.7l5.1,1l0.3-0.3l-0.3-1.4l0.3-0.3l5.7-1l1.7,1.4l-0.3,1l6.8,2.4l1,1.7l3-0.3l2.7-3h1.7l1.7,1
		l-1.4,0.7l0.3,1.4l0.7,1.4l-0.7,1.7l2,1.4v0.7l2.7,0.7v1l-1.7,1.4l-1.4,0.3l-0.3,0.7l0.3,2.7l1,1.7l-0.3,1l0.3,0.7l-0.3,0.3
		l0.7,0.3l-1.7,0.7l-0.3,1l1,0.7l0.3,1l-0.7,1.4l-1,0.3l0.3,0.3l-0.3,0.3l0.7,0.7l-0.7,1.7l1.4,1.4l-0.3,1.4l1.4,0.7l-1.4,0.7
		l0.3,0.7v1.7l1,0.3l0.7,1.4h1l-0.3,1l0.7,0.7l-0.3,1l0.3,0.3l-0.3,0.7l1,1.7l-0.7,1l0.7,1.4l-1,1.4l-1.4,1l-0.3,1l-1-0.3l-0.3,1
		l-1,0.7l-1,2l0.3,0.3l-0.7,0.3l0.7,0.3l-0.3,0.7v0.3h-0.7v0.7l-1,1.4l-2.4,1.7l-1.7,0.3l-0.3,0.7l-5.1,1.4l-2,2l-0.3,2.4l0.3,0.3
		l-0.7,0.3l0.3,0.3l-0.7,0.3l-2.4,4.7l-0.7,0.7h-3l-2,2l-0.3,1.4l-0.7,1.4l-2.7,1.7l0.7,2l1,1l-0.3,1.4l0.3,0.3l-0.7,1l0.3,0.3v0.3
		l-2.4,2l0.3,0.7l-0.7,0.3l0.3,0.3l-0.7,1.4l-1.7,0.7l-2.7-0.3l1,1v1.4h0.3l-0.3,0.7l0.7,0.7l-0.3,0.3l1,0.7l-1,3v0.3l-0.3,0.3
		l0.3,0.7l-0.7,0.7l0.7,0.7l-0.7,0.7l1.7,2.4l1.7,0.3l-0.3,0.7l0.7,0.3h-0.3l0.3,0.3l-0.3,0.7l0.3,0.3l-0.3,0.3l0.3,0.7l-0.3,0.3
		l0.7,0.7l-1,2l-1.7-1l-2,3.4l-1-0.7l-1-2.4l-4.1-1.4l-0.7-1l-2-1.4l0.3-1.7l-2-2.4l0.7-1.4l-1.4-0.7l1-3l-2-1v-1.4l0.3-0.7l-4.4-2
		l0.3-0.7l-0.3-0.3l-0.3-2l-1-1l-0.3-0.7l0.3-0.3l-0.7-0.3l0.7-0.7l-0.7-0.7l0.7-1.7l-0.3-0.7l0.3-0.7l-0.7-0.3l-3-0.3l-3.4,1.4
		l-1-1l-2.4,0.7l-0.3,0.7l0.3,1.4l-0.3,1v0.7H293l-1,2.7h-1l0.7,1.4l-1.4,0.3l0.3,1l-0.3,1l0.3,1l-1,0.7l0.3,0.7l-0.7,1l-0.7,0.3
		l-1.4-0.7l-1.7,1v-1.7h-5.1l-0.3-5.4h-0.3l-0.3-1.7h-0.7v-1.4H277v-1.7h-3.4v-3.4h-2.4l-0.7-5.1l1.4-0.3l-0.3-1.4h0.7v1.7l2-0.7
		l0.3,0.3l0.3-0.7h0.3l0.7,0.7h2.7v1.7h-0.7v1.7l1.7,0.3v3.4l3.4,2.4v0.7h0.3l0.3,2h1.4v1l2-0.7l0.7-1.4h1.7l2.4-2.4v-2.7l-1.7-2.4
		l1.4-1.4l-0.3-0.7l0.7-0.7h-1l-3-3.4l-3.4,1.4l-0.7-1.4v-1.7l-2-0.7l-1-2.4l-1.4-1v-1.4l1.4-1l1-3l-1-1.7l-1.7-1.4l1-3.7l-2.4-2
		l-0.7,1.7l-5.1,1.4l-2,2.4l0.3,2.4l-0.7-1l0.3-1.7l-0.3-0.3l1-2.4l1.7-1.4l-1-0.3l-0.7-1l0.3-0.3l-0.3-0.3l0.3-0.7l-1.4-1.7v-0.7
		l-3.7-2h-3L262.2,1064.3"/>
	<path id="kozul_x27_skij_x5F_rajon" inkscape:connector-curvature="0" class="st0" d="M83.1,1184.3l3-0.3l0.7-1.4l1.4-0.3l0.7,0.7
		l0.3-1v-2h-0.3l-0.3-2.4l3.4-0.7l0.3-2.4l1-3.4l1.4-1l-0.7-1l-1,0.3l0.3-1l-0.3-0.7v-1.7l-0.3-1l0.3-1l-0.3-0.7l4.1-2.4v-2l1.4-0.7
		v-0.7h1.4l0.7,1.7l-0.3,2l1.4,2l-0.7,2v0.7l5.7-1.7h3l-0.3,0.7h0.3l-0.3,0.7l0.7,1.4l-0.7,0.7l0.3,0.7l-1.4,0.7v1l-1,1v1l-0.3,0.3
		l0.3,0.7h-0.7l0.3,0.7l-0.7,0.7v0.7l-1.4,1.7l0.3,1.4l-0.7,0.7l0.3,0.7l-0.7,0.3v0.3l-0.7,0.3v1.4l-1.7,1.7l0.3,4.4l1.4-0.3v3.4
		l-1,0.7v0.7l6.8,0.7l-0.7,1.4l-0.3,3.7l-1.7,1.4l1.7,2.4l-0.7,1.7h-1.4l-2.4-3h-0.7l-1,1.4l1,2.7l-1.4,0.3v1.7l3.4,3l2,4.7
		l-2.7-0.7l-2,1l-2-3.4l-2.7-1l-6.4,2.4l-0.7,1v1h1.7l0.7,2.7l-0.3,0.3l-0.7-0.3l-0.3-0.7l-0.3,0.7l-1.7-0.7l-1.7,0.7l-2-0.7
		l0.7-1.4l-1-1l1-0.7l-0.7-2.4l-1.4-0.3l1.4-0.3l0.7-1.7l-0.3-0.7l0.7-0.7v-1.7l-0.7-1l0.7-0.3l-0.3-0.3l0.3-1l-0.7-0.7l0.7-0.3
		l-0.7-0.7l1-0.3l-1.4-1v-0.7l-0.7-1l0.7-2l-1.4-0.7l-0.7-1.4l1.7-2l-0.7,0.3l0.3-3.7h-0.3v-1.4l-1-0.3l1.4-1.4l-1.4-0.7
		L83.1,1184.3"/>
	<path id="krasnojarsk" inkscape:connector-curvature="0" class="st0" d="M125.4,1201.9l0.7-0.7v-2.7l3-1.7l0.7,1.4l0.7,0.3l1-0.7
		v-1.4l0.7-0.3l-0.3-0.7l0.3-0.7h1.4l-0.7,0.7l1,0.7l-0.3,0.3l0.7-0.7l0.3-0.3l-0.7-1.4l0.7,0.3l0.3,0.7l2.7-0.3v1l1-0.3l-0.3-0.3
		l0.7,0.7h-1.4l0.7,1l-0.7-1l-0.7,0.3v1h-1.7l1.4,1l-0.3,1l0.7-0.3l-0.3,0.7h0.7l-1,0.3l-0.3,1.7h-1l-0.7,1.4H132l-0.3,1.7l-1.7-2
		h-3.4v-1L125.4,1201.9"/>
	<path id="krasnoturanskij_rajon" inkscape:connector-curvature="0" class="st0" d="M81.4,1263.4l2.4-2l1.7,1.4l4.7-0.7l3,0.7
		l3.4-4.1l-0.3-0.7l3-0.3l0.7-0.7l-2.4-1.7l-0.3-1.4v-1.7h2.4l2.4,1l2,2.7l-0.7,2l-0.3,0.3l0.3,1.4l-0.7,1.4l0.3,0.3l-0.3,2.7
		l1.7,0.3l-0.7,0.7l-0.3,2l0.3,1.7l-2,1v4.1h1l0.7,2.7l1.7,1.4l-1,0.7v1l3.4-0.7l1,0.7l-1,1.4l0.7,2.4h-1l-0.7,0.7l-1-0.3v0.3
		l4.4,1.7v0.7l3.4,0.3l-1,1.4l0.3,1.4l-0.3,1l-1.7,0.7l0.3,2.4l0.7,0.3l-1,1.7l-1.7-1l-1.4,0.3l-1-0.7v-1.4l-3.4-0.3l-0.3,1l-2.7-1
		l-0.7,0.7l0.7,1v2h-2.4l-1.7,1l-1.4-0.3v-1.4l1-2l0.3-3l-2.4-4.4l-1.4-5.1l-2.7-2.7v-1L88,1274l0.7-2l-0.3-2L81.4,1263.4"/>
	<path id="kuraginskij_rajon" inkscape:connector-curvature="0" class="st0" d="M109.1,1298.9l2.4-5.1l-0.7-0.3l-0.3-2.4l1.7-0.7
		l0.3-1l-0.3-1.4l1-1.4l0.7,1l1.7-0.7l1.4,0.7l1.7-1.7l1,1l1.4-0.7v-0.7l3-2h0.3l0.3,1l3.4-2v-1l1.4,0.3l0.3-1l-0.3-1.4l2.7-0.3
		l1.4,0.7l1-1.4l0.3-1.7l2.7-1.7l1.4-2.4v-1.7l2.4-1.7l-0.3-0.7l0.3-1l-1.7-1.7l0.3-1.4l-1.4-1h-1.7l-4.1,1l-1-1.4l2-0.7l0.3-1.4
		l-0.7-0.7l0.7-2.4l0.7-0.3l0.3,0.7l0.7,0.3l1.7-1.4l1-2.4l1.7-0.3l0.3-1.4l1,1v1l3.4,1.4l0.3,1.4v1l0.7,0.3l2.4,3.7h1.4l0.3,1.4
		l-1,0.7l2.4,2l0.7-1l1.7,0.7l1-1.7l2.7,1.7l1-1.4l2.7,1.7l2.4,0.3l1.7,2.4h1l1,2.4v0.7l0.7,0.3l0.3-1l1.7-0.3l1.7-2.4l2,1l0.3,1
		h2.7l-0.3,1.4l0.7,1.7l2.4,2l1.4,0.3l0.3,1l1.4,1.4l-0.3,0.7l0.3,0.7h2l0.7,1l1-1l2,0.3l1-1.4h2l2.4,1l2.7,3l1.4-1.4l1,2l2-1.4
		l0.7,1.4l1.7,1l1.7-0.7l1,1.7v0.7l1,0.7l0.7,2.4l2,1.4h2l0.7,1l-0.3,1l-0.7,0.7l0.7,0.7l-0.7,0.7l1.7,0.7l1.4,3v0.7l4.4,3l1,2
		l0.3,1.7l2,0.7l0.7,2.7l2.4,1.4l0.7-1l1,1.7h1l0.3,1l-0.7,1l0.3,0.3l-0.7,1.4h-1l-1.7,1l-1-0.3l-1.7,2l-0.3-1.4l-2.4-1.4l0.7-1.4
		l-2.7,0.3l0.3-1l-1-0.3l-0.7,2.4l0.7,0.7l-0.3,1.7l-3,0.3v3l-2-0.3l-2-1.7h-4.1l-1.7-1.4l-2,1.7v1.4l-3.4,1l-1,1v1H195v1l-0.3,0.3
		l-2.7-1l-0.7-1l0.7-0.7v-1l-2.4-1l-2.7,3l-1.4,0.3l-0.7,1.4l-0.7-0.3l-0.3-1.4h-1l-0.3,0.7l-0.3-0.7l-4.7,1l-4.4-1.7l-1-4.4
		l-1.7-0.3l-0.3-0.7l-3,2.7l-3.4-2.4l-1.4,0.7l-0.7,1.7l-3,0.3l-2-2l-0.7-1.7l1.7-1.4l0.3-2l-2.4-1.4l-2-2l-2-0.7l-1.4-1l-2.7-1.4
		l-0.3-0.7l1-0.3l0.3-1l-1.7-0.3l-0.3-1.4l0.7-1l-2.4-0.3l-0.7,2.7l0.3,1l-1,0.3l-5.4-1l-1.7-1.7v-1l-1.4-0.3h-1.4l-1.4,1.7l-3,1.4
		l-0.3-0.3l-3.7,0.3l-1.7-0.7v1.7H121l-1,0.7l-1.4-2.7l-0.3-1.4l-1-1l-0.3-1h-0.3l-1.4-1.7l-2-0.3l-2.7,1.4l-0.3-0.3v-1
		L109.1,1298.9"/>
	<path id="lesosibirsk" inkscape:connector-curvature="0" class="st0" d="M135.5,1103.2l0.3-0.7l1-0.7v-0.7l1.4,1.4l0.3,0.7l-2.4-1
		L135.5,1103.2 M119.6,1094.4l1-1.7l-0.7-0.3l0.7-0.7l-0.3-0.7h1.4l0.7-1l0.7-0.3l0.3,0.3l-0.3,1v1.4l2,1.7l1,3l2,1.4l-1.4,1l1.4,1
		l-0.7,0.7h-4.1v-1.7h-0.7l0.7-1.7l-1-0.7l-0.3-1h-2l-0.3-0.7l0.3-0.7L119.6,1094.4 M137.2,1100.8l0.7-0.3v0.3l-0.3,0.3
		L137.2,1100.8"/>
	<path id="manskij_rajon" inkscape:connector-curvature="0" class="st0" d="M135.8,1237l1.7-3.4v-0.7l0.7-3.7l0.7-0.7l-0.3-1.7
		l-0.3,0.3l-0.3-1h1l-0.3-0.7l0.3-0.7l-0.7,0.3l-0.7-0.7l3-1l0.7-1l3-1.7v-0.7l-0.3-1l0.7-1.7l-0.7-2v-0.3h-1v-0.3l-0.7,0.7l-1.4-2
		l2-3h1l-0.3-0.7v-0.3l1-1l-1.7-1.7v-1.4l1-0.7l0.3,1l3-2l-1-1h0.7l1-1.7l1-0.7l-0.3-1.7l0.7-1l-0.3-1l9.1,1.7l-0.3,0.3l0.7,0.7
		l0.7,1.4l-2.4,1l0.7,2.4l-0.3,0.7l-1.4,0.3v2l-0.7,1h-1.4l-0.3,1h0.3v2l2.4-0.3l-0.3,1.7l2.4,0.3l-0.7,3.7l0.7,1l1.4,0.3l1.4,2.7
		l-1.7-0.3v4.4h-1l-0.3,1l1,0.3l-0.3,3H158l-0.7,2.4l1.7,1.4l1,2.7h1l0.7,1h1.4l-0.7,0.7l0.3,1l-1.7,2l0.7,0.3l-1.4,1.4l0.7,1.4
		l-2.4,0.3v0.7l1.7,0.7l-0.7,0.7l0.7,1l-1.4,0.3l1,1.4l-3.7,3l-2.4-0.3l-0.3,1.4l-1.4,0.7l-0.3,2v2.7h-2v-1.7l-1,0.3l-0.3,1.7
		l0.7,1.7l-2.4,1.4l-0.7-1.4l-0.7-0.3v-1l-0.3-1.4l-3.4-1.4l-0.3-1.4l-2.4-1.7l0.7-2l-0.7-1l0.3-1.4l-1-0.7l-0.7-1l0.3-1l-1-1.7
		l0.7-1v-1l-0.7-0.7l0.3-3L135.8,1237"/>
	<path id="minusinsk" inkscape:connector-curvature="0" class="st0" d="M96.3,1307l1.7-1.7v1l1.4,0.7v1h0.3l-0.3,0.3l1,0.7l-2.4,1
		v-0.7l-1-0.3l0.7-0.7l-1-0.3L96.3,1307 M95.6,1312l0.3-0.3l0.3,0.3l0.3-0.3l0.7,0.3l-1.4,1L95.6,1312"/>
	<path id="minusinskij_rajon" inkscape:connector-curvature="0" class="st0" d="M95.6,1312l0.3,1l1.4-1l-1.4-0.3L95.6,1312
		 M96.3,1307l0.3,1l1,0.3L97,1309l1,0.3v0.7l2.4-1l-1-0.7l0.3-0.3h-0.3v-1l-1.4-0.7v-1L96.3,1307 M91.6,1300.5l1.7-3.7l1.4-1.4v1.4
		l0.7,0.3l2.4-1h2.4v-2l-0.7-1l0.7-0.7l2.7,1l0.3-1l3.4,0.3v1.4l1,0.7l1.4-0.3l1.7,1l-1.4,3.4l1,0.3v1.4l3.7-1.4l1.4,0.3l1.4,1.7
		h0.3l0.3,1l1,1l0.3,1.4l1.4,2.7l-1.7,1.4l1,0.7l-0.7,2h2.7l1,1.4v1.7l-1.4,0.7l-2-1l-1,1.7v1.7l-2.4,0.3v-0.7l-4.1,1.4l-1.4,1
		l-1,0.3l-0.7-3l-2.7,1l0.3,0.3l-0.3,0.7l-1.7-0.3l-2.7,1.4l-5.1-3.4v-2l-1.4-1l-0.3-1.7l-0.3-0.7l1-1l-0.3-1.7l-2-2L91.6,1300.5"/>
	<path id="motyginskij_rajon" inkscape:connector-curvature="0" class="st0" d="M139.2,1082.2l1-1h1l1-1.4l-0.3-0.3l0.7-0.7l1-3
		l1-0.7v-1l1-3.7h1.4l0.3,1l1,0.3h0.7l1-1.4l1.4,0.7l3.7-2.4l0.3-1l0.3-2l2,0.3l3-1.7l0.3-0.3l-0.3-2.7l2-1l1-3.4l1.4-1.4l1-5.4
		l1,0.3v-1l0.7-0.7l-0.7-0.7v-1.4l-2-2.4v-0.3l-0.3-0.7l0.7-0.7l1,0.3l0.7-0.3l0.7,0.3l0.7-0.3l-0.3-0.3l0.3-0.3l1.7,0.3l-0.7,1
		l0.3,0.3h2l-0.3,0.7l3.7,1l0.7,1l0.3-0.7h1l0.3-3l0.7-1h0.3v-1l0.7-1l-0.3-0.7l4.1-2.4v-0.7l0.7-1.4h1l1-1.4l1.7-0.3l-0.3-1l2-2
		l-0.7-0.7l1.7-1.4l5.1,0.7l2,1.4l0.3,1.4l2.7,1.4l-1,2l0.7,0.3l-0.3,0.7l0.3,0.3l-0.7,0.7l0.3,0.3l-0.3,1h0.3l-0.3,0.3v0.7
		l-0.7-0.3l0.3,0.7h-0.7l0.3,1l-0.7,0.3l-0.3,1l-1.4,0.3l0.7,1.4l-0.7,0.3l0.3-0.3l-0.3-0.3l-1.4,1v0.7l-0.3,1l-0.7-0.3v0.7l-1,0.7
		l0.7,1l-1,1.7l-2,0.3l-1-1.4v1.7l0.3,0.3l-1.4-0.7l-1,1.7l1.7,1.7l-0.3,0.7l1,1.7l-0.7,0.7l2,1.4l-0.7,0.7l2.7,0.3l1,1l-1,2
		l0.7,0.3l-0.3,1v2l-0.7-0.3l0.7,0.7v0.7l-1,0.7v1l1.4,0.3l-0.3,1.4l1,1l1-1.7l2,1l-4.1,7.8l0.7,2l-0.3,1l1,1l1.4,2.7l-0.7,15.5
		l-0.7,0.7l0.3,1l-0.7,0.3l0.3,0.7l-1,1l0.7,2l-2.4,1v0.7l-1,0.7l0.3,0.7l-0.3,0.7l0.3,0.7l-0.7,0.3v1.7l0.7,0.7l-0.3,2.4l-2,3.4
		l-3-1l-6.1,1.7l-1-1.7l-1.4-1h-1.7l-0.3,0.7l-1,0.3l-1.7-1l-2,0.7l-2-1v0.3l-2.7-2l-0.7-1l-3-0.7l-0.7-2h-2l-2.4-2l-15.9-1v-2h0.7
		l1-1.4l-1-0.3v-1l-2-2v-0.7l0.7-1.4l4.1-1.7l-0.7-1l-2-8.4L139.2,1082.2"/>
	<path id="nazarovo" inkscape:connector-curvature="0" class="st0" d="M67.2,1195.7l0.3-0.7l2.4,0.3l1-1l0.3,0.3l-0.7,0.3l0.7,1.4
		H72v1l1.4,1L72,1199l0.3,1l0.7-0.3l0.3,0.3l-2,0.7l0.3-1.7l-1.4-0.7l-1,0.7l0.3-1.7h-1.4L67.2,1195.7"/>
	<path id="nazarovskij_rajon" inkscape:connector-curvature="0" class="st0" d="M67.2,1195.7l1,1.7h1.4l-0.3,1.7l1-0.7l1.4,0.7
		l-0.3,1.7l2-0.7h-1l-0.3-1l1.4-0.7l-1.4-1v-1h-0.7l-0.7-1.4l0.7-0.3l-1.4,0.7l-2.4-0.3L67.2,1195.7 M50.7,1198l0.7-0.3l-0.3-1v-0.7
		l0.7,0.7l0.7-0.3v-0.7l0.3,0.7l1-2l1-0.7l2,1v-0.7h2.4l2-1.4l3.7,1.4l0.3,1l0.3-0.7l1,0.7l1.7-0.3l1.4,0.3l0.3,0.3l0.3-0.7h0.7
		l0.3-1l0.7,0.3l0.7-1l1.4,0.3v1.4l1,0.3l0.3,1l-0.3,1l0.7-0.3v0.7l0.3,0.7h0.3v-0.7h1.4l1.4,0.3l1.7-0.7l0.3,0.7v-0.7l0.3,0.7
		l0.7-0.7l0.7,0.3l-0.3,1l1-0.3v1l0.7-1l0.7,0.3l1,1.4v0.7l1.4,0.7l-1,0.3l0.7,1l-0.7,0.3l0.3,0.7v0.7l0.3,0.7h-0.7l0.7,1l-0.3,2
		l-0.7,0.7l0.7,0.3l-0.7,2l-1.4,0.3h1.4l0.3,0.7l0.3,2l-1.4,0.7l1,1l-0.7,1.4l0.7,0.3l-3.4,1v1.4l-1.7,0.3l0.3,1.4l-2.7-0.7L78,1222
		l-2,0.7l-0.7-0.3l-0.3-1.7l0.3-2l0.3-0.3l-3.4-2.7l-2.7,0.7l-1.4,2.7l-1.7-0.7l0.3-0.3l-0.3-1l-2.4-2.7l-2.4,0.3h-2.4l-0.7-1.4
		l-4.4,0.3v2l-2.7,0.7l-1-2l2.4-2l-1.7-1.7H53h-1l-0.3-1.4l4.4,0.3l-0.3-0.7l0.7-0.3l-0.3-0.7l-1-0.3l0.7-2l-1-0.3l0.3-0.7h-2.4
		l-0.7-1.4l0.7-2.4l-1.7,0.3L50.7,1198"/>
	<path id="nizhneingashskij_rajon" inkscape:connector-curvature="0" class="st0" d="M213.9,1180.5v-1.7l2-1.7v-1l3.4,0.3l4.1-1.7
		l1,1l2-1.4l-0.3-0.7h1.4l0.3-0.7l1,0.3l1.7,1.4v-1l2.7-0.3l1-2v-0.7l2,0.7l4.4-1l2-1.7l0.3-1.7l0.3-0.7v-0.3l0.3-0.7l-0.7-0.7
		l0.7-0.7v-1l-0.7-0.7h2.4l0.7,1l3-1h3l0.3,1.4l-1.4,1.7l0.7,0.7l-0.3,2.4l0.7,0.3l-1,1l1,2.4l-1,2.4l3.4,0.3l0.3,7.4l-7.8,0.3
		l0.7,8.8H245l-1.4,1.4l0.7,1v1.7l-0.3,0.3l-1.4,3.4l-1.4-0.3l-0.3-1.7l-4.1-1.7l-1.7,5.1h-1.7v7.4l-1.7-0.7l-0.7,1.7l-1-0.3
		l-0.3,0.3l-0.7-0.7l-1.4-0.3l-1.7,0.3v0.7l-3-0.3v1.4l-2.4,0.3h-3l2-1.4v-0.7h-1l0.3-2.7h-1v-0.7l-0.7-0.7l0.3-0.3v-1l0.7-0.3v-2
		l-4.1-3.4l1.4-1.7v1h1.7l3-1.4l0.7,0.3v-0.3l0.3-1l-0.3-0.3l-4.1,1.4l-0.7-2h-0.3l0.3-1.4h1l0.7-3l-0.7-1.4l-2.4,0.3l-1-1l0.3-1
		l1-0.3l2.4,1l1.7-1.4l-0.7-3.4L213.9,1180.5"/>
	<path id="noril_x27_sk" inkscape:connector-curvature="0" class="st0" d="M46.3,564.7l1.4-4.7l11.5-1.4l6.1-6.4l4.7,1.7L67.6,564
		l-5.4,5.1L46.3,564.7"/>
	<path id="novoselovskij_rajon" inkscape:connector-curvature="0" class="st0" d="M69.9,1242.3l2-1.4h1.4l1-1l1.7-0.7l-0.3-3.4
		l1.4-0.3l-0.3-2.7l1-0.3l0.3,2.7h2v1.4l1.7-0.3l0.3,1.4l-0.3,1.4l0.3,1.7l0.3-0.7l1.4,0.3l0.7-0.7v-1l2-0.7l-0.3-0.7l1.4-0.3
		l0.7-1.4l3.4-0.3l0.7-1l0.3-1.7l1,0.3l0.7,2l3.4,1l1,2.4v2.4l6.4,0.7v1.4l-0.7,0.7l-0.7,1.7h-1l-0.7,1l1,3.4l0.7,0.3l-0.7,1.4
		l1.4,0.3l2-0.7l1,1.7l1.4,1l0.3,2h-1.7l-1,1.7l-1.4-1.7l-0.7,0.7l-2-3l-4.1-1l-0.7,0.3l-0.3,1.7l0.7,1l2.4,2l-0.7,0.7h-3l0.3,1
		l-3.4,4.1l-3-0.7l-4.7,0.3l-1.7-1.4l-2.4,2.4l1,1l-2.4-2v-3l1-2.7v-3.4l-4.1-1.4v-1.7h-6.8l0.7-5.7l-0.7-1.7L69.9,1242.3"/>
	<path id="partizanskij_x5F_rajon_x5F__x28_krasnojarskij_x5F_kraj_x29_" inkscape:connector-curvature="0" class="st0" d="
		M147,1261.1l2.4-1.4l-0.7-2l0.3-1.4l1-0.3v1.4h1.7v-2.7l0.7-2l1.4-0.7l0.3-1h2.4l3.4-3l-0.7-1l1.4-0.7l-0.7-1l0.7-0.7l-2-0.3l0.3-1
		l2.4-0.3l-0.7-1l1-1.7l-0.3-0.3l1.7-1.7l-0.3-1.4l0.7-0.7l-1.4,0.3l-0.7-1l-1-0.3l-1-2.7l-1.7-1l0.7-2.4h0.7l0.3-3.4h-1v-1h1.4
		v-4.7l2,0.7h3.4l0.7-0.7l0.3,0.7l8.4-0.3l2.4,1.7l-0.7,1.7l-1,0.3l1,2.4l-0.3,0.7l-0.3,1.7l0.7,1.7H176l0.3,1.7l-0.7,1.4l0.3,0.3
		l-1,0.7l-1.4,2h-0.7v3.7l-2,1l-0.3-1.4l-0.7-0.7l0.3-1l-5.7-1.7l0.7,2.4h0.7l0.7,1l-1,1.7h-0.7l-0.7,1l0.7,1.7l-1.7,1.7l0.3,1.4
		l3.4,0.3l1-1.4l0.7,0.3l0.3,0.3l-0.7,2v1.4l1.4,1v2l4.4,1.7l1.4,1.4l1.4-0.3l0.7,2l-1.4,3l4.1,5.4h1.4l-0.7,2.4l0.7,1.4l-0.3,0.3
		v2.4l-3.4,2l-0.7-2l0.3-1h-2.7l-0.3-1l-2-1l-2,2.4h-1l-0.7,1H168l-1-3h-1l-1.7-2.4l-2.7-0.3l-2.4-2l-1,1.7l-3-1.7l-0.7,1.7
		l-1.7-0.7l-1,1l-2-2l1-0.7l-0.3-1.4l-1.4-0.3L147,1261.1"/>
	<path id="pirovskij_rajon" inkscape:connector-curvature="0" class="st0" d="M92.2,1135.5l1-1.4l0.3-1.7l1.7-1l0.7-1.4l1.4-1.4
		l-0.7-2.4l0.3-2.4l-1.4,0.7l-1-1.7l0.3-1.4l-1.4-0.7v-1.4l-0.3-0.3h0.3l-0.3-1.4l0.3-0.3l-0.3-0.3l0.7-0.7v-2l0.3-0.7l-0.3-1
		l1.4-0.7v-1h-0.7v-0.3l1-0.7v-0.3l2,1l1,1.7l0.7-0.7v0.7l0.7-0.3l0.3,1l1-0.3v0.7l1,0.3l1-0.7v-1.4l8.1-0.3l2.4-3l1.4-0.3l1-1.4
		l0.3,1.4h0.7v-0.7l1-1l3.7-2l3.7,2h1.4v2.4l-1,0.3l1.4,2.4l-0.3,0.7h0.7l0.7,1.7h0.7v1l0.7,0.3v1l1,1.4l-0.3,1.7l-2.7,0.7l-1.4,0.7
		l1.4,2.4l0.3,2l-0.7,3.4l-2,0.7v1.4l-0.3,5.1l0.7,0.7l-1,1v0.7l-2.4,0.3l-5.4,2.7l-5.1,7.8l-4.1,2.4l-7.8-5.7l1.7-1.7l3.4-8.4
		l-3-0.3l-1,2.7l-4.4-1.7L92.2,1135.5"/>
	<path id="rybinskij_x5F_rajon_x5F__x28_krasnojarskij_x5F_kraj_x29_" inkscape:connector-curvature="0" class="st0" d="
		M180.1,1206.2h1l-0.7,0.3l0.3,1l0.3-1l1.7,1l-0.7-1l0.7,0.3l0.3,0.7v-0.3l-0.3-0.7l0.7-1l-2-1l-0.7,0.7l-0.7-0.3L180.1,1206.2
		 M170,1196l0.7,0.3l-0.3,1l1.4-0.3l2.7,2.4l1.7-0.3l0.3-0.7l-0.7-0.7l0.3-0.3l1.7,0.3v-1.4l-0.7-0.3l-0.7-1l-1-0.3l-0.3,0.7h-0.7
		l0.3-1.7l-0.7,1.7l-3.7-2.4L170,1196 M162.2,1192.3v-0.7l2.4-0.7l2.4-2l2.7-6.1l2.7-1.7l6.1,3v0.7l1,2v1.4l0.7,3.4h-0.3l-0.3,2.4
		l3-0.7l2.7,0.3l1.4,2l3.7,0.3l-0.3,0.7l0.7,0.7v1l1,0.3v0.7l2.4,0.7l0.7,2.7l1,0.3l-1,1.7l-1-0.3v1l-1-1l-1.4,0.7l0.3,0.7l-3.7-0.3
		l0.3,2.4l-1,1l0.7,0.3l0.7,1.7l1.4,1v1.4l-1,1l-1.4-1l-1.7,2l-2,1l1,3.7l-1.7,1.4l-0.3,1.4l-3.4-0.7l-1.4,1.4l-2,0.3l0.7-1.7
		l-2.4-1v-1.7l0.7-2l-0.3-1.7l2,0.3v-3.4l-2-1.4l-0.3,0.7h-2l0.3-2l-0.3-1l2-0.3l-0.3-0.7v-2.4l-1-0.3l-1.7,1l-1.7-0.3l0.3-2.7
		l-3.4-4.1l0.3-3.7l-4.1,0.3l-0.3-1L162.2,1192.3"/>
	<path id="sajanskij_rajon" inkscape:connector-curvature="0" class="st0" d="M162.9,1246l1.7-1.7l-0.7-1.7l0.7-1h0.7l1-1.7l-0.7-1
		h-0.7l-0.7-2.4l5.7,1.7l-0.3,1l0.7,0.7l0.3,1.4l2-1v-3.7h0.7l1.4-2l1-0.7l-0.3-0.3l0.7-1.4l-0.3-1.7h0.3l-0.7-1.7l0.3-1.7l0.3-0.7
		l-0.7-1.4l-0.3-1l3-0.7l1.4-1.4l3.4,0.7l0.3-1.4l2-1.4l0.7,1.7l-0.7,3h1v1.7h0.7v2l3.4,1.4l0.3-1.4l0.7,2.7l1.7,0.3l1,1.7h-1.4
		l0.7,1.4l-1,2.7l0.3,1h1.4l-1.4,1.7l2.4,2.7l-0.3,5.7l2.4,4.4l0.7,3l3,4.4l4.7,4.7v2l0.7,1.4l1.7,0.3l0.3,1l-0.7,1.7l-1,0.7H205
		l-2,1.4l0.3,1l1,1.4l-2,0.7l-0.7,1l0.3,1l-1,1.4v1.7l-0.3,0.3l0.7,1.4l-2,1.7l-1.4-2h-1l-0.7,1l-2.4-2.7l-2.4-1h-2l-1,1.4l-2-0.3
		l-1,1l-0.7-1l-2.4-0.3v-0.3l0.3-1l-1.4-1l-0.3-1l-1.4-0.3l-1.7-2l1.7-2h1v-2.4l0.3-0.3l-0.7-1.4l0.7-2v-0.7l-1.4,0.3l-4.1-5.4
		l1.4-3l-0.7-2l-1.4,0.3l-1.4-1.4l-4.4-1.7v-2l-1.4-1v-1.4l0.7-2l-0.3-0.3l-0.7-0.3l-1,1.4l-3.4-0.3L162.9,1246"/>
	<path id="severo-enisejskij_rajon" inkscape:connector-curvature="0" class="st0" d="M97.3,1010.5l1.4-2.7l-0.3-0.7l1.7-2.4v-1.4
		l1.7-1l1.4-2.4l-0.3-1l1.4-1.7l-0.3-1.4l1.4-3l-0.3-0.3l0.3-0.7l-0.3-1.7h0.7l0.3-1l1.4,0.7l1-1v-1.4l-0.7-0.3l1.4-0.3l1-2.7
		l1.7-1.4l-0.7-2.4l2.4-1.4l0.7-2l1-0.7V976l0.3-0.7l1-0.3l2.7-3l1.7-1v-2.7l1-1.4l-0.3-0.7l1.4-1l-0.3-1l0.3-0.3l4.1,0.7l1.4-1.4
		l-0.7-0.7v-0.3l0.3-0.3l-0.3-0.3v-1l-0.7-2.7l0.7-0.7l-0.7-1l1-1.7l0.7-0.7l1.7,0.3l1.7,2.4l1.4,0.7l1.7,2l3,1l-0.7-1.4l1-0.3
		l-0.3-0.7l0.7-0.3l-1-0.7v-1.4l-0.3-1l-2-1.4l1-0.7l-4.1-3v-1h1.7l2.7-2l2.4,1.4l1.7-1.4l3.4,2l-0.3,1l0.3,1l-0.3,0.7v1l3.7,5.1
		l0.3,1.7l2.7,1l2.4-1l3.4,3l4.4-1l1,1.4v1.4l1,2l0.3-0.7l1.4-1l-0.3-1l1-0.7v-1.4l2-1l0.7-1.7h3l3.7-2.7l2,1.4l1.7-0.3l0.3,0.7h1
		l0.7,1l1.4-0.3l1,1.4l4.1,0.3l0.3,0.3v0.7l0.7,0.3l2,3.4l2,1.7l-0.7,0.7l0.3,0.7l1,0.3l0.7,2.7v1.7l0.7,0.7l-2,3.4h1.4l1.4,1
		l0.7,1.4v0.3l-1,0.7l-1,1.7l-1.4,1.4l-0.3,1.7l-1.7,0.7l0.3,1l-0.7,2l1.4,1l0.3,1.4l-0.7,1.7l-2.7-0.3l-2,1.4l-0.7,1.4v1l-1,0.7
		l0.3,0.7l-0.7,0.7l-0.7,3l0.7,1.4l1.4,0.3l-1,1.7l0.3,1.7l-0.3,0.7l2,2l0.3,1.4l-1.7,1.7l0.3,1v1l0.7,1l0.3,2.4l1.4,1.4v1.7l1,1v1
		l-0.7,0.3v1l0.7,1l-0.3,0.7v0.3l1.4,0.7l-0.3,0.7l0.3,0.7v0.7l0.7,0.3v0.7l-1.4,0.7h1l-0.7,1l0.3,0.3l-1.7,1.4l0.3,0.7l-2,0.7
		l-0.7,1.4h-1l-0.7,1.4v0.7l-4.1,2l0.3,1l-0.7,1v1h-0.7l-0.3,0.7l-0.3,3h-1l-0.3,1l-0.7-1l-3.7-1l0.3-0.7h-2l-0.3-0.3l0.3-1
		l-1.7-0.3l0.3,0.7l-0.7,0.3l-0.7-0.7l-0.7,0.7l-1-0.3l-0.7,0.7l0.3,0.3v0.3l2,2.4v1.7l0.7,0.7l-1,0.7l0.3,1l-1-0.3l-1,5.4l-1.4,1.4
		l-1,3.4l-2,1l0.3,2.7l-0.3,0.3l-3,1.7l-2.4-0.3v2l-0.7,1l-3.7,2l-1.4-0.7l-0.7,1.4h-0.7l-1-0.3l-0.3-1H146l-1,3.7v1.4l-1.4,0.7
		l-0.7,2.7l-0.7,0.7l0.3,0.7l-1,1.4l-1-0.3l-1.4,2.4h-0.7l-1-3l-1-0.7l-0.3-3.7l-1-4.1l-1,0.7l-0.3,1l-1.4,0.3l-2-1.4l-1,1l-2.4,0.3
		l-3.7-0.3l-1.4-0.7l-3-12.5l-0.3-3l-0.3-5.7l-1-4.1l-1-1.4l-5.4-5.4l-3.7-2.4l-5.1-9.1l-2.7-6.1l0.3-0.3l0.7-2.4l-1-2l0.7-1.4
		l-0.3-0.3l0.7-3l-1.7-2.7L97.3,1010.5"/>
	<path id="sharypovo" inkscape:connector-curvature="0" class="st0" d="M35.8,1214.6l1-1l1,0.3l-0.7,1L35.8,1214.6 M37.8,1218.3h0.3
		v-1h0.7l1.4,1.4l-0.7,1L37.8,1218.3 M31.1,1224.1l0.7-0.3l0.7,0.3l-0.3,1.4h-0.7l0.3-0.7L31.1,1224.1"/>
	<path id="sharypovskij_rajon" inkscape:connector-curvature="0" class="st0" d="M31.1,1224.1l0.7,0.7l-0.3,0.7h0.7l0.3-1.4
		L31.1,1224.1 M37.8,1218.3l1.7,1.4l0.7-1l-1.4-1.4h-0.7v1H37.8 M35.8,1214.6l1.4,0.3l0.7-1l-1-0.3L35.8,1214.6 M24.3,1222.7
		l0.3-1.4l1.4-1l-0.3-1l0.7-0.7l3.7-3.4l1-1.4l1-0.3l0.7-1.4l2-0.7l0.7,0.3l0.7-1l2,0.3l1.4-2H41l1-1l2-0.3l-0.3-0.3v-1.7l0.3-1
		l1.4-0.3l-0.3-0.7l0.7-0.7h-0.7l-0.3-1l-0.3,0.7l-0.3-1h-1.4v-1l-0.3-0.7l0.3-0.3l3.7-0.7l1.4-1.4h1l2-1.7l-0.3,0.7l1,1l-0.7,0.3
		l0.3,3l1.7-0.3l-0.7,2.4l0.7,1.4h2.4l-0.3,0.7l1,0.3l-0.7,2l1,0.3l0.3,0.7l-0.7,0.3l0.3,0.7l-4.4-0.3l0.3,1.4h1h-1.7l0.3,0.7h0.7
		l0.3,1.4l-1.7,1l-0.3,1.4l-1.7,0.7l1.7,4.4v-0.3l-0.3,0.3l-0.3,2.4l-1.4,1.4l-2-0.3h-1l-0.3,1l-2.4,0.7l0.7,0.7l0.3,2l0.3,0.3
		l1.7-3h1.4v2l1,0.3v1.4l-0.3,2l0.3,3h-2.7v0.7l1.4,3h0.7l-0.3,1.4l0.3,1.4l-1,1h-2.7v2l0.3,0.3l-1.7-0.3l-0.3-1l-2.4-0.3v-2.4
		l-0.7-1l-4.4-0.7l1.7-2.7l-2.7-2.7l0.3-4.1l-1-0.3v-0.7h-1.7l-0.7-1.4l0.3-1l-2-1l-1.4,0.7v-2h-3.4 M24.6,1228.1H25l0.3,0.7H25
		L24.6,1228.1 M23.6,1224.4v-0.3l0.3,0.7h-0.3V1224.4"/>
	
		<path id="shushenskij_rajon" inkscape:connector-curvature="0" sodipodi:nodetypes="ccccccccccccccccccccccccccccccccccccccccccccccccccccccccccccccccccccccccccccccccccccccccccccccccccccccccccccccccccccccccccccccccccccccccc" class="st0" d="
		M63.8,1378.5l2-3l0.3-1.7l2-1.4l1.4-2l0.7-1.7l-0.3-1.4l0.7-1.4l4.7-6.1l6.1-1.4h2l1,1v-1h1v-3.4l1.7-1l-0.3-2l1.7-2.4l1.4-1
		l0.3-1.7l1.4-0.3l-0.3-1.7l1-3l-1.4-2l-0.7-2.4l1-2.4l1-1l2.7,1l3.7-1.7l3-5.7l2.4-2.4l-0.7-1.4l0.3-0.7l-0.3-1.7h-0.7v-1.4l-1-0.3
		v-0.3l1.2-0.7l1.6-0.7l1.7,0.3l0.3-0.3l-0.3-0.7l2.4-1l1,3.4l2-1.6l4.1-1.4l0.3,0.6l1-0.3v1.7h2.4l0.3,4.1l-1.7-0.3v1l-1.4,1
		l-4.1,0.7l-1-1.4l2-1l-2.7-0.3l1.4-1l-1.4-0.3l-0.7,0.7l-0.3,1.7l-0.7,0.3h1.4v0.7h0.3l0.3,0.3l-1.4,0.3l-0.3,1.4v1.4l0.7,0.3
		l0.3,1.4l-1.4,2.7l0.7,0.3l-3.7,2l0.7,2.7v2.7l3,0.7l-0.3,1l1.7,2.4l-0.3,1.4l-0.7,0.3v2.7l2.4,0.7l0.3,0.7l1.7,1l1,1.4v1.4l1,1
		v1.4l-1.7,3.7l-1.7,1l-1.4,1.7l-1.7,0.7v2l1,1.7v1.7l-3.7,1.7l-1,2.4l0.3,1.7l-0.7,0.7l1,1.7l-0.3,0.3l-5.1,1.7l-1.4-1.4h-1l-2.4,1
		l-0.7-0.3l-0.3,0.7l-1-1l-0.7,0.3l-1-0.7l-1.4,1v1h-1l-3,1.7v1l-1.7,2.4l-0.3,2.4h-0.7l-0.7,1.4l-1,0.3l-0.7-0.7l-1.7,1.4l-0.3-0.7
		l-1.7,2.4l-4.1,0.7l-1.7,1.4l-0.7-3.4l-1.7-2l0.3-1.4l-0.3-1.4l-1-1l-2-0.3l-2-1.7L63.8,1378.5"/>
	<path id="sosnovoborsk" inkscape:connector-curvature="0" class="st0" d="M142.6,1195.3l1-1.7l1.4,1l-1.4,1.4L142.6,1195.3"/>
	<path id="sukhobuzimskij_rajon" inkscape:connector-curvature="0" class="st0" d="M127,1172.7l0.3-0.7l1-0.7l0.7-2.4l0.7,0.7
		l2.7-0.3l-0.3,0.7l1,0.3v-1h0.7l0.3-1l0.7-1.4l3,0.3l1.4,1.7h6.1l0.7-0.3l-0.3-3l-1.4-2l2-1.4h3l4.1-2.4l1.7,0.7l6.1-2.7l3.4-0.7
		l2,0.7l0.3,3l1.4,1.7l1.4-0.3l2.7,2.7l0.3,2h1l-0.3,4.1h2.7l-0.3,5.4l-3.4,4.7l-2.7,1.7l-2.7,6.1l-2.4,2l-2,0.7l-1-1v-3.4l-2-1.7
		v-1.4l-2.4,0.3l-0.3,1.7l-2.4,0.3l-1.4-1.4v-0.7l2.4-0.3l-0.3-1l0.3-0.3h-1.4l0.3-0.7l-6.4,1l-1-0.7l-2.4,1l-0.7,1l-0.3,1.4l-6.4,1
		v-2.7l-1.4-0.3l-0.7-1.4h-1.4l-0.7-1h-1.4l-0.3-2.7l1-2.4l-1.4-1.4l-0.7,0.3l-2.7-1.4L127,1172.7"/>
	<path id="tajmyrskij_dolgano-neneckij_rajon" inkscape:connector-curvature="0" class="st0" d="M46.9,621.3l-0.1-2l4.2,0.3l0.1,1.1
		L46.9,621.3 M46.3,564.7l1.4-4.7l11.5-1.4l6.1-6.4l4.7,1.7L67.6,564l-5.4,5.1L46.3,564.7 M222.7,212.2l1.4,0.3l1-0.7v1l-0.3,0.7
		l0.7,0.7l-0.7,1.7l-0.3-0.3v-0.3v-0.7l-0.7-0.3V214l-1.7-1l-1,0.7l0.3-0.3l-0.7-0.7l-1.4-0.7l1-1.4l0.3,0.7v1l1,0.7L222.7,212.2
		 M403.5,196.6l0.7-1l1,0.7h-0.7L403.5,196.6 M403.5,196.6l-0.3,0.3L403.5,196.6 M194,216.9l0.3-0.3h0.3L194,216.9 M181.5,216.9h0.3
		l1.4,0.3l-1.4,0.3L181.5,216.9 M177.4,215.5l0.3-0.3l0.3,0.3h-0.3H177.4 M180.8,216.6h0.3v0.3L180.8,216.6 M193.3,217.2v-0.3V217.2
		 M188.9,217.9v-0.3l0.3,0.3H188.9 M226.4,217.2l0.7-0.3v0.7h-0.3L226.4,217.2 M190.9,218.9l-0.7,0.3v-0.3l-0.3-0.7l0.7-0.3v0.7h1
		L190.9,218.9 M195.7,218.6l0.3,0.3v0.7l-2.4-1l0.7-1h1.7L195.7,218.6 M199.4,219.3l-0.7,0.3l0.7,0.7h-2.7l1-1v-1l0.3-0.3l1.4,0.3
		l-0.3,0.7L199.4,219.3 M219,221.6l1,1.7h1.4l-1,1l-1-1L217,224l0.3-1.4h1v-1l0.7-0.7l-2.4-1.7l2-0.7l-1-0.7l1-0.3v-1l-4.7-0.3
		l7.4-1.4v1.7l-1.4-0.7l-1,1.7l-0.3,0.3l0.3,0.3l-0.3,1l0.3,1l1.4,0.3L219,221v0.3V221.6 M178.1,219.3l-1-0.3l-1-1.7l0.3-0.3
		l1.7,1.4v0.7V219.3 M201.7,210.5l-2.4,0.3l-1.7-1H196l4.7-1.7l2.4,1v0.7L201.7,210.5 M195.7,210.5l0.7,0.3l-1.7,1l-0.7-0.7
		L195.7,210.5 M218.3,211.8l-0.7,0.7l-1-0.3l0.3-1l1.4-0.3l1,1L218.3,211.8 M210.9,211.8l-0.3,0.3l-0.7-1h-1.4l0.7-0.7l1.4,0.3h0.3
		V211.8 M212.9,211.5h0.3h0.7l-1,0.3V211.5 M356.5,176.3l0.3-0.7l0.3,0.3l-0.7,0.7v-0.3 M358.2,179.7h0.3l-3,3l-3.4,0.3l1.4-0.7
		l0.3-0.7l1,0.3l0.7-1.4l-1.7-0.7l-1,0.3v-1.7l0.7-0.3v-0.7l0.7-0.7l2.4,1l1-0.3l0.3-1l0.7,0.7l0.3,0.7l-1,1.4L358.2,179.7
		 M346.1,174.6l-1.4,0.3l0.3,0.7l-0.3,1l-3,0.3l1-1.4v-1l1-0.7v-0.7l0.7-1l0.7-0.3l1,1l1-0.3L346.1,174.6 M355.2,174h0.3l0.3,0.3
		l-0.3,0.3L355.2,174 M282.2,182.8l1.4-0.3l-0.7,1l-2,0.7L282.2,182.8 M188.2,205.7l3.7-3l6.8-2.7l5.1-4.1h1l1.4,2.4l-1.4,2.7
		l-1.7,2l-0.3,1h-0.7l-0.7,1.7l-1.7-1l-0.7,1.4l0.3,0.3l-2.7,0.7l0.7,0.7v1l-2,0.3l0.3-0.7H194l0.3-0.3v-0.7l1-0.3l0.3-1.4l1.4,0.3
		l1.4-1.7l-0.7-0.3l-4.1,1.7v0.3l0.7,0.3v0.3l-3-1.4L188.2,205.7 M225.1,208.1l0.3-0.3l0.3,0.3h-0.3H225.1 M223,208.8l0.3-0.7
		l0.3,0.3l-0.3,0.3L223,208.8 M255.5,195.6h-0.3l-0.3-0.3h1L255.5,195.6 M233.2,209.5l0.3-0.3v0.3v0.3L233.2,209.5 M194.6,213.2
		l0.3-0.3v0.3H194.6 M180.4,218.9l1-0.3l0.3,0.3l-0.3,0.7H180L180.4,218.9 M205.8,220.3l0.3-0.3h0.3l-0.3,0.3H205.8 M193,222.3h-2
		l-0.3-0.3l0.3-0.3l-0.7-1l2-1l-0.3,0.7l1.4,1.4l0.7-0.3v-1.4l2.4,0.7l-2,1.7H193 M176.1,221.3l0.7-0.3l-0.7-0.7v-0.7h2l-0.7,1v0.3
		L176.1,221.3 M221.7,220.3h0.3H221.7 M415,198.3h0.7h-0.3H415 M201.1,224l-0.7-0.7L199,224l0.3-0.7l-0.7-0.3l-1.7,1.7l-0.3-0.3
		l1-1.4l-0.7-0.3l-0.3-0.7l1.7-0.7l1.4,0.7l1-1.4l-0.3-0.7l0.7-0.7l3.7,0.7l-1,1l-1.7,0.7l0.3,0.7l0.7,0.3l-1.7,2l1,1l-1.7,0.7
		l-0.3-0.3l0.3-0.7h-0.3l1-0.7l-0.3-0.3L201.1,224 M179.1,224.7l0.3-0.7v0.3L179.1,224.7 M191.3,225l0.3-0.3l0.7,0.3l-0.3,0.3
		L191.3,225 M184.5,225.3l0.7-1l0.3,0.3l-0.7,1L184.5,225.3 M175.7,226.4H175l-1-0.7l-2,0.3l-0.7-1l-1.7,0.3l-0.3-0.7l0.7-0.7l6.4,2
		L175.7,226.4 M181.8,222l2-0.3l1-1l1,0.3v-0.3l0.3-0.7v-0.3v-0.3l1.4,1.4l0.3,0.3l-0.3,0.7l2.4,0.3l-1,1h-5.4l-0.7,0.7l-1-0.7V222
		 M196.7,221.3h0.3H196.7 M181.1,221.6l-0.7,1l-3.7,0.7l-2-0.7l0.7-1.4l2.4,1.4L181.1,221.6 M170.3,222.3l0.3-0.3v0.7L170.3,222.3
		 M431.2,339.6h1.4l0.3,0.7h1.4l0.3,0.7l1-0.3l-0.3,1l0.7-0.3v1l0.7,0.3l1-0.3l-1,1H436l0.3,0.7l-2.4,2h-2l-0.3,0.7l-0.7,0.3v0.7
		h0.3l0.3,0.7l-2.4,2.4l-0.3,1l0.3,1.4h-2l-4.1,2.4l-1.7-0.3l-0.3,0.3l0.7,0.3l-0.3,0.7l0.7,0.3l1.4-0.3l0.3,0.7h1.7l0.3,1l0.3-0.3
		l-0.3-0.3l1-0.3l0.3,0.7h1.4l-0.3,0.7l0.7,0.3l-0.3,0.7l1.7,1l-0.3,1.4l-3.4,2.7l0.3,0.7l-0.3,0.7l0.7,0.3v0.3l7.4-1.7l-0.3,1.4
		h0.3l-0.3,1l-1,0.7l2.4,2l-0.7,1.7l-1.4,0.3h0.3l-0.3,0.7h0.3l-1,1l1,0.7l-0.7,1l1,0.3l-0.7-0.7l0.3-0.3l0.7,0.7v-0.7l2.7,0.3
		l-1.7,1.4l0.3,0.3l-2.7,1.7l0.3,0.3v0.7h0.3l-0.3,0.7l1.7,0.7v1h0.7l-1.4,1l0.7,1l-0.3,0.7l0.7,1l0.3,1l0.3,1v0.3l1,1.4l2.4,0.3
		l-0.3,1.4l1,0.3l-0.7,0.7v0.3h5.1l1,1l0.3,0.3l1,0.3v1.4l-2,2l-2,0.7v1l1.4,0.3l-1,1.4l1,1l4.1,0.3v0.7l0.7,0.3l3.7-1l1.4,1v0.7
		l1,1l-1.4,1.7l0.3,0.7l1.7-0.7l0.3,0.3l-0.3,1l0.7,1.4l1.4-0.3l1.4,1.4h2.4l6.1,33.8l4.1,0.3l2,1.4l1,1.4l1.4,0.3l0.7,1l2-1.4
		l2.4,1.7l-0.7,2.7l-2,1.7v1l1.7,1.7l-1.4,0.3l-0.3,1.7l-2,0.3l-1,1.4v2.4l-1-0.3l-2-2l-1,0.3l-0.3,1.4v1.4l-0.7,1.4l-1,0.3l-1,1
		l-1-0.7l-1.7,2l-2.4,1l-0.7,2l-1,1l-5.1,1.7l-3,3.7l-1.7-0.7l-2,1l-1.7,1.4l-0.3,1.4l0.7,1l-3,1.4l-0.3,0.7l0.3,0.7l-3,2l0.7,1.4
		l-0.7,1l1.4,2l-1,1l0.7,1l0.3,1l1.7,1.4h1.7l0.3,0.3v1l-2.7,0.3l-1.4,1l-1-0.7l-1,1l-5.1,2l-1.4,1l1,1l-0.3,0.3l1,1.7l-0.7,1.7
		l-2,2l-2.4,0.7l0.3,1.4v1.4l1.4,0.7l0.3,2.7l1.7,1.4l1-0.3l1,0.7v1.7l-2,1.7l0.3,1.7l-0.3,1l0.7,0.7l-0.3,1l0.3,2.4l-1,0.3l0.3,0.7
		l-0.3,1.4l-1.7,1.4H429l-0.7-1.7l0.3-1l-0.7-0.7l-3.7,1.4l-7.8-0.3l-0.3,0.3v1l-1,1l-0.3,1.4H413l0.7,1l-1,1l0.7,1v1.4l-1,1.4
		l-2-0.3l-3.7,1.7l-12.5,8.1l-4.1,0.3l-0.7-1.7l-2-0.3l-0.7,0.3l-0.7,1.7h-1.4l-0.7,1l-2.4-1l-1.4,0.3v0.3l0.3,1l-0.3,0.3l-3.7,0.7
		l-1.4,1l1.4,1.4l-0.3,1.4l0.3,0.7l-2,1.7l-0.3,0.7l-2.7,1.4l-2-0.7l-0.7,1.4l-1.4,0.3l-1-1.4v-1.7l-0.3-1l-4.7,0.3l-2.7-1l-4.1,1
		l-2.7-0.3l-1.4,0.7l1,2l-0.7,1.4v1.4l-1.7,1l-2.7-1.4l-1.7,1l0.3,0.3l-0.3,0.3l-1,0.7l0.3,0.3l-0.3,1l-1,0.7l-3.4-0.3l-3-2.4l0.3-1
		l-0.3-1.4l-1-0.3l-2.4,1l-3.4-0.3l-3.4,2.7v0.7l-3.4-0.3l-2-1.4l-8.8-2.7l-1-0.7l1.4-1.4v-1l-1.4-0.3l-0.7-0.7v-0.3l-2.7-2l-2-0.3
		h-3l-1,1.7h-2l-0.3,0.7l-3.7-1.7l-5.7-0.3l-2-1.4H286l-0.7,0.7l-0.3,1.4v0.3l-1.4,1l-0.7,1.4l-1.4,0.7l-1-1l-1-2.4l-0.7-1l1.4-1.4
		v-1l-0.7-1v-1.7l-2.4-1l0.7-1.4v-0.7l-1-0.3l-1.4-1.4l-5.1-1.7l-1.7,0.7l-1.4-0.3v-1l-0.7,0.7l-0.3-1l-2.7-0.3l-3.4,1l0.3,0.7
		l-0.7,1l0.7,0.7l1-0.3v0.7l-2,2l1,1.7v1l-1.7,1l-2.4-1l-6.1,0.7l-1.4-0.7l-3,1l-5.7-3.4l-1.7,1.4l-1.7-0.3l-1.4,1.4l-1.4,3l-2,1.7
		l-5.4-1l-1,1l-3,0.7l0.3,1.7l-0.7,1l0.3,0.3l-1.7,1.7l-2,1l-4.1-1l-1.7,0.7l-0.7,1v1.4l-1.4,1.7l-3,0.3l-1.7,2.7l-4.4,2.4l0.3,1
		l-11.2,2.4l-5.7,5.1l0.3,2.7l-1.4,0.3l-3.4,2l1,1.4l0.3,1.4v1l1.4,0.7l0.3,1l-1,1l-4.7,0.7v1.7l-1,1.4v1.4l-1,0.3v0.7l-1,1l-1,0.3
		l0.3,1.4l-1.4,0.3l-0.7,3l-1.4,0.7l-0.3,1l-1.4,1.4v1.4l-1,1.4l2.4,4.7l-1.4,1.7l-0.3,2.7l-3,0.7l-6.1-3l-7.1-1.7l-4.7,1.4l-1,1
		l-0.7,2.4l-3,3l-0.7,3l0.3,1.7l-1.7,2.7l-2.4,3l-6.1,4.4l-6.4,6.4l-0.3,0.7l-0.3,3l-1.4,2l-0.7,2.4h-0.3v0.3l-1,1.4h0.3l-0.3,0.7
		l-2,1.4l-1.4,2.4l-1.7,1l-2,2.4l-0.7-0.3l-1.4,0.3v-0.7l-0.7-0.7l-1.4-0.3l-1,1l-1.7,0.3l-1,1.7l-2.7-0.3l-4.1,2l-10.5-5.1
		l-7.1,1.4l-2.4,1.4l-4.4-5.4l-2.4,2v2l-1,2l-1,0.3h-3.4l-3-2h-1.4l-1.7,1.4l-3.7-1.7l-1.4,0.3l-1-0.3l-2.4,1l-0.7-1v-1.4h-2l-2,3.4
		l-7.4-0.7l-1-1.7l-9.5-13.5L28,619.4l-2-0.3l-10.8,1l-3.4,1.4l0.3,0.7l-0.3,0.7l0.3,1.7l-0.7,0.7l0.3,1.7l-1,0.7l-2-0.7L8,628.4
		l-0.7,0.7L7,629.4l-1,2l0.7,0.3L4,632.3l-0.7,1.4v0.7H2.7v0.7l-1,1H0.3v0.7l1.4,0.7L2,639l2,0.7v0.7l-0.7,0.7l0.3,0.7l-1,1.4
		L2,643.8l-1.4-1v0.3l0.3,0.3l-2.4,1.7l-0.7-0.3l-0.3,0.3l1,0.7l-1.7,1.7l-0.7,1v1h-1.4l-1,0.7l1,1.7l4.4,1l-2,0.7v0.7l-0.7-0.3
		l-0.3,0.7l0.3,0.7l-0.3,0.7l-2,0.7l-0.3,1l-1.4,0.3v0.3h-1.7l-1.4-1l0.3-1l-0.3-0.7v-1l-0.3-0.3l0.3-0.7h-0.7l0.3-0.7l-1.4-1
		l0.3-0.3l-1.7,0.3l-1.4-0.7v-1.7l-0.7-2.4h0.7v-1h0.3l-0.3-1h0.3v-1l-3-0.3l-0.3-1.7l0.3-1l-1.4-1l0.7-1l-1-0.7l0.3-0.7l-1.7-1.4v1
		l-1-0.3l0.3,0.3l-0.3,0.3l-2-1.4l-1.4,1h-0.7l0.7-1l-0.3-1h0.7l0.1-0.3l0.7-0.7L-25,634l0.3-0.3L-25,633l0.3-1l-1-2l0.3-0.7
		l-0.7-0.3l-1-1.7h-1.4l-1.7-1.7l1-1.7l0.3-1l-0.7-0.3l-1,0.7l-1-0.7l0.7-2l-0.3-1l0.7-0.7l-1.4,0.3l-1-1l-0.7,1.7l-0.7-1.4
		l-1.7,0.7l0.7-1.4l-0.7-1l0.3-0.7l1.7,0.3l-0.3-1l2-0.3l0.3-1l1-0.3l0.7-1.4L-32,609h-2l0.3-1v-0.3l0.7-1v-1.4l-0.3-0.7l-1.4-0.3
		l-2.7-2.4v-1l-3.4-3.7l0.3-3l-0.7-3.4l0.3-2l1.4-1.4l2.7-0.7l0.7-1v-1l-0.7-3.7l-3.7-3.4v-3.7l-0.3-3.4l-1-2.4l-1.4-0.7l-0.3-1.4
		l1-1h2l-0.3-0.7l1-0.7l-1-0.3l0.7-1.7l-1.4-1l-1-0.3l-1.4,0.7l-2-0.3l-2-2l-3-0.7l-0.7-2l0.3-0.7l3-2.7l0.3-1.4l-2-4.1l-1.7-1.4
		l-1.4,1.7l-0.3,2l-0.7,1.7l1,1l-2,1.7l-2.7,0.7l-1.7-2l-2,1l-0.7,1l-1-0.3l-3.4,1.4l-0.7-0.3v-1l-0.3-0.3h0.7l-1-0.3l-0.3-1.4
		l-1-0.3v-2.4l-2.4,0.3l-1.4-1l-0.3,0.7l-0.7-1l-1,0.3v-0.7h-1.4l-1.7-2.4l-2.4,0.7l0.3-1l-1,0.7l-0.7-0.7h-1.4l-0.3,0.7l-0.7-1
		l-1.4,0.3v-0.7h0.7l-1.4-1.7l0.7-1.4l-2.4-0.3l0.7-0.7l-1.4-1l0.7-0.7l-1-0.7l1-1l-0.7-1.4l0.3-0.7l-0.3-0.7v-1v-0.3l-1.7-1
		l1.4-0.7l-1-0.7l0.3-1l-1.4,0.3l-0.3-0.7h-1l-0.3-1.7l-2.7-0.3l-0.3-1l-1,0.3l2.7-1.7l-1.4-0.7v-0.7l1-1l-2-1.4l1-1l-2-1.4v-0.7
		l-0.3-0.7h1.7l1.4-0.7l0.3-1.4l1,0.3l1-0.7l-0.3-0.7l0.3-0.3h0.7l-0.7-1l0.3-0.7l-1,0.3l1.4-1l1,0.7l-0.3-1l0.3-1.4l2,0.3v0.7
		l0.7,0.3v-1.4l-0.7-1l0.7-0.7l-0.3-1.4l0.3-0.7h1.7l0.3,0.7l-1,0.3l2.4,1l2.4-3l0.7-2l2,0.3l-0.7-1.4l0.7-0.7h1l1.4,1l2.4-2.7
		l2-0.3l0.3-1l-0.7-0.7l0.3-0.7l1,1l1-0.7v-1.7l0.3-0.3l1.7,0.7l0.7-1l1-0.3l3.4,0.7l1,2l-1,0.7l1.7,1.4h1.4l0.3-0.7l-0.7-0.7h1l1-1
		l-0.7-0.3l-0.7,0.7h-0.3l0.3-0.7h-1.4l-0.3-1v-1l-1-0.7l1.7-1v-0.7l0.7-0.7l-0.7-0.3l0.7-0.3l-0.3-0.7l0.7,0.3v-0.3l0.7-0.7V488
		l0.3,0.3V488l0.3-0.7l-0.7-1.7l-1.4-0.7v-0.3l-0.3-0.7v-0.3v-0.3l0.3-1l1.4-2.4v-0.7l0.3-0.3l-1-1.4l0.3-10.1l-9.1-5.1l-8.1-9.8
		l-3.4-1.4l-0.3-1l-0.3-2.7l3.7-3l1.4-3l-0.7-2l0.3-1l1.4-0.7l1.7,1l0.7-0.3l2.7,0.3l1.7,1.7l1.7-1.4l1,0.7l0.3-0.7l-0.3-0.3l1-0.3
		v-0.7h0.3l-0.3-0.3l0.7,0.7l2.4-1.7l-1-0.7l0.7-0.3l-0.3-0.3l0.3-0.7h-0.7l0.7-0.3l-1-1h1.4l-0.3-0.7v-1h-0.3l0.7-0.3l-1.4-0.3
		l0.3-0.3l-0.3-0.3l0.7-0.3l-0.7-0.3l1,0.3l-0.3-0.7l1.4,0.3l0.7-0.7l-0.3-0.3l0.3-0.3l0.3,0.7l1.4-0.3l-0.7,0.3l0.3,0.3l0.7-0.3
		v-0.3v-0.3l0.7,0.7l0.7-0.7l-2-1.7l0.7-0.3l-0.3-0.3h0.3v-0.7l-1.4-0.3l0.3,0.7h-0.3l-0.7-1l-1-0.3l0.7-0.3l-0.3-0.7h-0.7l0.3-0.7
		l-2.4-1v0.3v0.3l-0.3,0.3l-0.3-1l0.7-1l-1.7-0.7l0.3-0.7l-2-1L-69,419l-0.3-0.7l-2,0.3l0.3-1l-0.7,0.3v-0.7L-73,417l0.3-0.3h-1
		L-74,416l-1.4,0.7V416l-0.7-0.3l-0.3,0.7v-1l-0.7-0.7h0.7v-0.3l-1,0.3l0.3-1l-0.3-0.3l-1.4,0.3V413l0.3-0.3l-2-0.7v-1l-0.7,0.3
		l0.7-0.7h-1v-1l-1,0.3v-0.3l0.3-0.7l-1.4-0.3v-0.3l1.7-0.3v-0.7l-0.7-0.3l1-0.3l-0.7-0.7l0.3-1v-0.7l-2-0.7l-0.7-2l2-1.7l11.5,2.7
		l4.4,2l6.1,7.8l12.8,8.1L-48,421v2.7v0.3v0.7l5.7,7.8v2.4l1,2l4.7,3.4l3.4,0.7l6.4,0.3l7.4-1.7l3-0.3l1,0.3l0.3,1.7h0.3l3,0.7
		l1.4,1.4l3-1.4l0.3-1.7l-0.3-2l-3.4-2.7l-6.8-2.7l-1,0.3v0.3v0.7l-0.7-0.7l-0.7-4.4l-0.7-2l-4.1-4.4l0.3-0.7l1.4-0.3l0.7-2.4
		l-0.3-2l-1-2l-6.8-4.4l-9.8-3l0.3-0.3l-1.4-0.7l-1.4-2l-1.7-0.7l-0.7-1.7v-1l-1-1.7l0.7-1.4h1l-0.3-1l1.4-1.4l-0.3-1l-2-1v-3l0.3-1
		l-0.3-0.7l2.7-2.4l0.7-2.7l0.7-1.4v-1.4l0.7-0.7v-1.4l-1-2.7l0.7-0.7l-0.3-0.7l-4.1-3l1.7-0.3l0.7-0.7v-1l-3.7-1.7l0.3-0.3
		l-0.3-0.7l-1,0.3l-0.3-0.3l1.7-0.7l1.7,0.7l1.7-0.3l-1.7-1.4v-0.3l3,2v-2h-0.3l-0.3-1.4l-4.1-2.4l1.4-1V360v-0.7l0.3-0.3l2.4,0.3
		l-0.7-1.4l2-0.3l0.3-0.7v-2.4l1.4-0.3l-1.4-1l-0.3,0.3v0.7l-0.3,0.3l-1-0.7l0.7-1l-1.7-1l-1,0.3l1,0.7v0.7l-2-0.7l-2.4-2.4l1,0.3
		l1-1l3.4,2l1-0.7l-0.3-1v-0.3l1-0.3l-0.7-0.3l1.4,0.7h1.7l2.4,1.7l0.3-0.7v-0.3h3l-0.7-0.7l4.1,1.4l1-0.7l0.3-0.7l7.8-0.7l7.4,0.3
		l17.9,2.7l14.9-1.4l5.1-1.7l2.4,0.7l1.7,2l2,0.7l3.4,0.3l2-0.7v-0.3l-0.3-0.3v-0.7v-0.3l1.4-2l3.4-0.7l1.7,0.3l3.7-1.7l6.1-0.3h0.7
		l0.3,0.7l3-1l0.7,0.7l1.4-0.3l0.3,1l3.4,1.4l-0.3,1h0.3l-0.3,1l-0.3,0.3v0.3l-0.3-0.3l-0.7,0.7v1.4l-0.7,0.7l-4.1,1l1,0.3l-0.7,1
		v0.3l1.4-1.4h1l-2,2.4v1.7l-3,1l-3-0.3l0.7-1h2l-2-0.7v-0.3l4.7-0.7l-1-0.7l0.3-0.3l-0.3-0.3l-3,0.7l-1,1l-1.4,1.7l-3,0.7l-2,2
		l-3.7,2l-0.3,1.4l-0.7,3l-1-0.7l-1,0.3l1,2h0.3l1.4,1.7l0.3,1.4l6.1,2.4l0.3,1l-1,0.3l0.3,1.7l4.4,2.4l0.3-0.3l-2.4-1.7l-0.7-3
		l-4.4-2l-3.4-3.4l-0.3-1.4l1-1l1-0.3V367l-1-0.3V365l2-1.4l2.7-0.7l0.7-1l-0.3-0.3v-0.7l9.5,0.3l3-1.7l3,0.3l2.4-2.7l-0.3-0.3
		l0.7-2.4l1.7-0.7l0.7-1v-1l-3.4-4.1l-0.7-1.7l0.3-1.4l-1-2l-3.7-2l-0.3,0.3l1,1h-1.7v-0.3l-0.3-0.7l0.3-0.3l-0.7-0.7v-1h2.7
		l0.3,0.3v0.7l2.4-1l2,0.3l-1-1h-3.4l-1.4-0.7v-0.7l1-0.7l-2.4-1.4l1.4-2v-1.4l-0.7-1.4l-1.7-1.4h-2.4l-1.4-1.7l-4.4-0.3l-1.7-1
		l-0.7-1.4l0.3-1.4l1-1.7h2l1,0.7v0.3l0.3,0.7l2,1.7V324v-1l-0.7-1v-0.7l-3.4-1.4h2.4l0.7-0.7L52,320l0.7-0.3l-0.3-0.7l1-0.7L54,319
		l0.3-0.3v-0.3l2,0.3l2,2.4l-1,1H62l-0.3,1l0.3,0.3v0.3l-1.7,1.4l2-0.3l-0.7,1.4l0.7,1l-0.7,0.7l0.3,0.3l1.4-0.7l-0.3-1l0.3-0.3
		l-0.7-1.4v-1l0.3-0.7l1.4,0.3l-1.4-1.4l1-1h-4.4l-0.7-0.3l0.7-0.7v-0.3h-1.7l0.7-1.4l-1.4-1.4h-1l0.3-0.7l2.7-1v-0.3l-3-0.3
		l-0.7-0.3V314v-0.3l-2-0.7l0.3-1h-3h0.7l-0.7-0.7h-2l-0.7-1l-0.3,1l-1-0.7l-0.7,0.7l0.3,0.3h-1.7l1.7-0.7l-2.4-2h1.7l1-1l-0.7-1
		h0.3l-0.3-0.7l1.7-0.7l1.4,1v-0.7l1.4-1l-0.3-0.7l0.7,0.3l0.7-0.7l-2.7-1.7l-1.7,0.7l-2-0.3v-0.7l1-0.3v-0.7l0.3-1V299l1.4-0.3
		l0.3,0.3l-0.3,1l0.7,0.3l2.7,0.7l-0.3,1.4l0.7,0.7l1-1l-0.3-0.3l0.3-0.3l0.3,0.7l-0.3,0.3l2,1.4l1,1.7l-2.4-1l-0.3,0.7l1,1v1.4l1-1
		h1.4l1,0.3l-0.3,0.7l0.3,0.3l1.4-0.3l-0.3,0.7l0.3,0.7l-1,0.7l2,0.7l-0.7,0.7l-0.3,1.4h3v-0.3l-0.3-0.7l0.3-0.7v-0.3l1.4-0.3
		l-2.7-0.3l0.3-0.7l-1-0.7l1-0.3v-0.7l1-0.3l-0.3-0.3l0.7-0.7l2.4,1.7v-1l1.4-1h-1.4l0.3-1.4v-1.7l0.7-0.7v-0.3h1.4l-0.3-0.7l4.1-3
		H69l-1.4-2l1-1h2.7l0.7,0.7v1l-1.4,0.7l1.7,0.3l0.7,1l0.7-0.3l-0.3-0.7l0.7-1l1.4,0.3L76,296l-0.3-1.4v-0.3v-0.7l-4.1-0.7l-0.7,0.7
		l-4.7-3h-2l0.7,1l-0.7-0.7l-0.3-1.4l1.4-1.4l3.4-0.7l9.8,2.7h2.7l4.4-1.7l-0.7-0.3l0.3-0.3h-0.3l-2,0.3l-0.7-0.7h0.7l0.3-1v-0.7
		l2.4,0.3l2.7-3.4l1,0.3l0.3-0.7l-0.3-0.3l0.7-1l4.1-2.4v-1l-1.4,0.3l-0.3-0.7l4.7-1.7l1.4,0.3l0.3-0.3v-1l1.7-1.4l0.3-0.3v-0.3
		l1.4,0.7l0.7-0.7l0.7,0.3l0.3,1l-2-0.7l-1,1.4l2.4,0.7l-1,0.7v0.7l1,0.3l1.7-1.4l0.3,0.7l2.4,0.7l-1.4-1.7v-0.7l3.4-1l1.4,0.3
		l0.7-0.7l-1.4-1.7l2.7-0.7l1-1.7l1,1l6.1-0.7l0.3-0.7v-1h2l1.4-1.4l0.7,0.3l-0.7,0.7l0.3,1v0.3l0.7,0.7l2.4-2.4l1.4-0.7l-0.7,1.7
		l1.7,0.7l2.7-1.4l0.7,0.7l2,0.3l-0.3-0.7l0.3-0.7l-0.7-1.4l1-0.7v-0.3v-0.7l0.3-0.3v-0.3l2-1l-1.7,0.7v0.7l1.4,0.3l-0.7,0.7
		l0.3,0.3l2.7-1v-0.3l0.3,0.7v0.7l0.7,0.3l1.7-1.7h3.4l1.7-2l2,0.7l5.1-1l1.7-1.4l2.7,0.3l6.1-2.7h1.4l3-1.7l-1.4-0.3l-4.1,1.7
		l-0.7-0.7v-1.4l-0.3-1l-1,1.7l0.7,1.4l-0.3,0.7l-1-0.3l-2-2.7l-1.4-0.3l0.7-0.3l0.7-1.4l-0.3-0.3h-0.3l-0.3,1l-2,0.3v0.7l-1.4,0.3
		l2,1.7l-3.7,0.3h-0.7l0.7-1l0.3-0.7l-0.7-0.3l0.3-1l-0.3-0.3l-0.7-0.3l2.4-1.4l-0.3-0.7v-0.7h-0.7l1-0.7l-1-1l2.4-0.3v0.3l-0.7,1.4
		l1.4,1l2.4-2l-1-0.7l1.4-0.3v-0.7l-2-0.3l1.4-1h0.3l-0.3,0.3l0.3,0.7l2-1l1,1l-2.4,1.4l1.4,0.3l0.3,1l-0.7,1l1.4,0.3l1-1.4
		l-0.3-0.3V249l1,0.7l1.4-0.3l-0.3-0.7l0.3-0.3l1.4,1.4l3-0.3l-1.7-0.7l-0.3-1l-2.4-0.3V247l-0.3-0.3l0.3-0.3h5.1l0.7-1l0.7,1.7
		l3.7-1l-0.3,1l1.4,0.3v0.3l-0.3,0.7l0.3,0.3l1-0.7l1.7,0.3l-1-1.4l2-0.3l0.7-1h-3l-0.7-0.7l1-0.3h4.1v1h1.7l0.3,0.3l-1-0.3v1l1.7,1
		l1.7-1.4l1.7,0.7l0.3-1l1.4-1.7l3.4,1l1.4-0.3l-1.7-1l1.4-0.7l-0.3-0.3l-2,0.3l-0.7-1l-0.7,0.7l-0.3-0.3l0.7-0.3l-2.4-0.7l-0.3-0.7
		l0.7-0.7l-0.3-0.7v-0.7l0.3-0.3h2.7l-0.7,1l1.4,0.3l-0.7,0.7h0.7l1-0.7l-0.3-0.3l0.3-0.7l3-2l0.3,0.7l-0.3,1.7v0.3l1.4-1.4h2.4
		l-0.3,2.7h0.3l1-0.7l0.7-2.4l1.4-0.7l4.7,2.4l-0.3,1.7l-1,0.7l0.3,2.7l-1.4,0.7v-0.7l0.7-1.4l-0.7-0.3l0.7-1.4l-1-0.7l-0.3-2
		l-1,0.3v2l1.4,0.7l-2-0.3l-1,0.3l1.4,0.7l0.3,0.7l1,0.7l-0.3,1.4h0.3h-1.4l1,1l-1.4,0.7l0.3-0.7l-0.3-0.7l-1-0.3v-0.7l-2-0.3
		l-0.7,1l-1.4-0.7l-2.7,0.3l3,1l-0.7,0.3l0.7,0.7l1.4-0.3l0.7,0.7h1.4l-1,1l-0.7-0.7l-1.7,1l0.7,1h1L199,251l0.3,0.7l-0.3,0.7
		l-1.4,0.3l-3.7,5.1l-1,0.3l2,2l1.7-2.7l1.7-1.4l0.3-1l1.7-1.4l1,1l0.7-0.7l1.4,0.3l0.7-0.7h-1l0.7-0.7v-0.3h-1.4l2-0.3l0.7-1.4
		l-0.3,0.7h2l-1,1.4h0.3l2-0.3l0.7,0.3l-3,4.7l2.4-0.3l1-1l0.3,0.3h1.4l0.3-1l1.4-0.3l0.3-1v-0.7l2.7-2h-2.7l-2.7,1.4l-1-1l4.7-3.4
		l4.1-2l0.3,1l-2,2L216,251l2.7-0.3l-1.7,1l0.3,0.7h-1.7v0.3l1.4,0.3l-0.3,0.3l0.3,0.3l-1.4,1.4h2l0.3-0.3l-0.3-0.7l0.7-1.4l2.4-1h1
		l-0.3,0.3l1.4,0.7h2.7l0.3-0.3l-1.4-1.7V250l-3.4-0.3l4.1-2.7v1h1.4l-0.7,0.7l0.7,0.7l1.4-1l0.7,0.3h0.3v-1l1.4,0.3l1-1l-2.7-0.7
		l-0.7,0.7l-1.4-1l1.7-1.4l1,0.3l-0.3-0.7l1.4-0.7h1l3.4-1.4l0.7-1l3.7-2.7l0.7,0.3l-0.7,0.3v1l-0.7,1l2.4,0.3l0.3-0.7l-0.3-0.3h1.7
		l0.7-0.7l-0.7,0.7l4.1,0.3l0.7,1l-0.3-0.3l-1.4,0.7l-0.3,0.7l0.7,0.7l-1.4,0.3l1,1h1.4l0.7-1l0.7,0.7l2.7-1.4l-1,0.3l0.3,0.7v0.3
		l2.7,0.7l0.3,0.7v0.7v1h0.7l0.7-1.7l-1.4-1.7l-0.3-1.4l-1-1l-1.7-1v-2.4l-3-1v-1.4l-1.7-1.7l-2.7,0.3l-1.4-3l-2.4-2.4v-1l1.4-1.4
		l6.4,2.4h4.7l5.1-1.7l4.7,0.3l4.7-1.7l3-2.7h1l1-3v-3.7l2.7,0.7l1-1l-3.7-3.4l-1.7,0.3l-1.7-2.7l-0.7-2.4l1.4-3.4l0.3-0.7l-0.3-1
		h1.7l0.3,1.4v0.7l1.4-0.3l-0.3-1.4l0.7-2l-0.3-1l0.7-1l-1-0.3l1.4-3l4.4-6.4l2.7-2.7l1.4-2.7l3.4,1v-1l-0.7,0.3l-0.3-0.7l2-1.7
		v-0.3l-1.4,0.3l1.7-1l1.4-3l1.4-1.7l3-1.7l1.7-1.4l-0.7-1l4.4-3.4l1.7,1.4l3-1.4l1,0.7l1-0.7l-0.7-0.7l1.4-1.7v-0.7l1-0.3v-0.3
		l1.7-1.4l0.7,0.7l1.4-1l1.7,1.7l1.4-0.3l-2.4,1l1,0.3l-0.3,0.3h0.3l4.4-2l1,0.3l1,0.3l-0.3,1.4l0.7,0.7l-0.7,0.3l0.7,1l7.4,2
		l7.4-1.4l-0.7,0.3l1,1.4l0.3,0.7l-0.3,0.3l0.7,0.3l-0.3,1l1.7,1.7l-0.3,0.7l2.7,1.4l1.4,0.3l-0.3,0.7l0.7,0.7l-6.8-0.3l0.3,0.7
		l-3,4.1l-0.3,0.3l0.7,0.3l-0.7,1l1.7-0.7l-0.3,0.7l-1,0.7l-1.4-0.3l-1.4,1.7l-5.4,2.7l-1.7-0.3l-2.4,0.7l-1,1.7l-1.7-0.3l-2.7,2
		l0.3,0.3l1.7,0.3l4.7-0.7l0.3-0.7l-0.3-0.3l0.7-0.3l2,2h2.4l1.4-2l2.7,1l3.4-2l2.4,0.3l1.4-2.4l0.3,0.3l-0.7,1.4l0.3,1v0.7l-1.7,1
		l0.7,1l-3.7,0.7l-1,0.7l0.7,0.7l0.3-0.7l-0.7,1l0.7,0.7V197l1.4,0.3l2-1h1.7l3.7-4.1l4.1,0.7l0.7,1.4h0.7l0.3-1l1,1.4l1-0.3v-0.3
		h-0.7v-0.7l1-0.7l-0.3-0.3l1.7-0.7l1,0.3l0.7,1.4l1.4-0.7v0.7l-1,0.7l0.3,0.3l3.7-1.7l-0.7,1.4h1l0.7,0.7l-0.7,0.3l0.3,0.7l1,0.7
		l2,0.3l-0.3,0.7l-3.4,1v0.3l2.4,0.7l-2.7,1.7l1.7-0.3l-1,2l-2,0.3l-0.3,1.7l0.3,0.7l-1.4,0.7l-0.3,1l-2,0.3l0.3,1v0.3l0.7,0.3v0.7
		l-0.7,0.7l0.3,1l-0.3,0.3l0.3,0.3l-0.7,0.7l0.3,0.3l-0.3,0.7l0.3,0.3l-1,1.7l-0.7,0.3v-0.3v-0.3v-0.7l-1.4-1.4l-1.7,1l1,1v2l1,0.7
		h3l0.7-0.7l0.3,1.4l0.7,0.7l0.7-0.3l-0.3-1H352l0.7-1h2.4l3.4-1.4v-0.3v-0.3h1.7l2.7,1l1.4-0.3l2.4-2l1-1.7v-2.4v-1l-1-0.7v-2
		l-0.7-1.4l1-0.7h2.7l1.4-0.7h0.7l-1,1h0.3v0.7l0.7,0.3l1.4-1.4l3,0.7l7.4-2l2.7-2.4l1,1l1-0.3l3.4,1.4h2.4l8.1-4.4l1.7-0.3
		l-0.3,0.7l0.3,0.7h2l3-2l-0.3-0.7l0.7-0.3l0.3-0.3h0.7l1,0.3h0.7l1.4,1l0.3,0.7l-2-1.7l-2-0.3v0.3l1.7,0.7l-1,2l1,0.3v0.3l0.3,0.3
		l1.4-0.7l2.7,0.3l1-1l1.7,0.7l1.4,0.7l-1.7-0.7l-1.4,2.4l1.4,0.3l-1,0.7l0.3,0.3l2.7-0.7l3.4,1.7v0.7l0.7,1l1.4,0.3l2.4,2.4
		l-0.7,0.3l-2,4.1l0.3,0.3l0.7-0.3l2.7-4.4l1.4-0.3v-0.7l-2.4-2.7h-3v-0.3l-0.3-0.3v-1l-1.7-0.3l0.3-0.3l-0.3-0.3l2.7-1.7l1.4,0.3
		l0.3-1l-0.7-0.3h3l-1,0.7l1.4,0.3l0.3,0.3v0.7l0.3,0.3v0.7l1.4,0.7l-0.7,1.7l2.4-0.7l-0.3-0.7l1,1v0.7l-0.7-0.3l-1,1v1l2.4,1v2.4
		l-1,1.4l3,1l-1,2l0.7,1.7l-0.3,0.7l0.7,1.4l-2.7-1l-0.3,0.7l1.4,1l-0.3,0.3l1.7,0.7l1.4-1.4v1.4l1.7,1.7l-0.3,0.7l0.7,0.7l-1.4,2h2
		l1.7-2v-1l-1-0.7l0.7-1.4l2-1l-1-1l-2,0.7l-0.3-1.7l-1-0.7l3-0.7l0.3-1H442l1.7-0.7l1,0.7l2.7,2.4l2.7,4.7l-0.7,1l1.4,2v0.7v1
		l1.4,1.4l-1.4,1h1.7l-0.3,0.7h0.3l1.7-0.7l-0.3-0.7h-1.4l1.4-1.4l1.4,1.4h1l1,1.4l0.3,1.4l0.3,3.7l-0.7,4.1v4.4l-0.7,1.7l-1,1.4v1
		l-2,0.3l-0.3-0.7l2-3l0.3-0.7l-0.7-1.4l-4.1-0.7l-4.4,1.7l2-2l-1.4-0.3l-0.3-0.7l-3-0.7l-3.7-2.7h-3.7l1.4,0.7l0.3,1v1l2.7-0.3
		l2.4,1l1,1.4v1l-1.4,0.7l1.4,0.3l-0.3,1l1.4,0.3l-0.3,0.3l0.3,0.7l-1,1v1.4l0.7,1l1.7,0.3l1.4-1v-1l-1-0.7v-1l3.4-3l1.4,1v0.7
		l-0.3,0.3l1,0.7l-1,0.3l0.3,1l1.4,2l2.7,0.3l2.4-0.7l1,2l0.3,1.7v0.7l-1.4,0.3l-1.4,1.4l2.4-0.3l0.3,0.3v3.7l-1,3.4l-5.1,9.5
		l-1.7,0.3l1.4,0.3l-1.7,1.7l-0.7,3l-3.7,3.7h-0.3l0.7-0.7l-6.1,3v0.7l-0.3,1.7l-1.4,3.7l0.3,0.7l-1.4,2.7l-0.3,1.7l-3-1l-2.7,0.7
		l-3,3.7l-0.3,1l-1.4,2l-0.7,2l0.3-1h-1.7l-4.7,4.1l-2.4-0.7l-0.3,0.7l1,1.4l-0.3,1.4l-2,3l-2.7,0.3l-2,2.7l1,0.7l0.3,2.4v2
		l-0.7,1.4l-2.7,3l-1.7,3l-4.4,1.4l-3,2.4l-3,4.4l-3,8.4l-2.7,3.4l-2,4.1H390l0.7-1.7H389l-3.7,3l-3-0.3l-3.7,1.7l-1.4,2v0.7
		l-0.7,0.7l0.3,0.3l-3.7,4.4l-1,3.4l0.3,2l-0.7,1.4l-2.4,1.4l-5.7-0.7l-2,2.7l-0.3,1.4l-0.3,2.7l-0.3,0.7l0.7,1.7l-2.4,1.7l0.3,3.4
		l0.3,1.4l-1.7,2.7l1.4,0.7v2.4l-0.7,0.7h-0.7l-0.7-1v1l-1.4,0.3l-1.7,2l-1.7,1.4v0.7l1-0.7l0.3,1l-0.3,0.3l-4.1,0.7l-2-1l-4.4,3
		l-1.4,1.4l0.7,0.3v1l-2.4,3.4l-2,1.4l5.4-0.3l2.7-3.7l1.7-0.3v-0.7l-1.7,0.3l1.4-1.7l2,2l0.3-0.7v-2.4l-1.4-0.3l0.3-0.7h6.4l3-3
		l0.3-1.7l1-1.4h1l0.7-0.7l0.3-2.4l0.7-1l2,1.4l1.7,0.3l0.3-0.7l0.7,0.7l0.3-0.7l-3.4-1l2.4-0.3l3.4,1.4l-0.3-1l-1.7-0.3v-0.3
		l-2.7-0.3v-0.3l-0.3-1v-1.4l-0.3-1.4l-0.3-2.7v-0.7l-0.3-0.7l1.7-0.7v-2.4l8.1,1.7l2.7-2h5.4l2-0.7l4.7-0.7l3-3.4l1.4-1h1.7l1,1
		l1.4-0.7l0.7-0.3v-0.7l-0.7-1h-1.7l-1,1V367l1-1.7l9.8-3.7l5.4-3.7l-1.4-1l-0.3-1.7l0.3-0.7l2.7,1.7l0.3,0.7l0.3-1l-2.4-2.7
		l-1.7,0.7l-0.7-1.7l0.3-1.4h0.7l4.1,3.7l4.7,0.7l2-1.4l1-2l1.7-0.3v-2l0.3-0.3l-1,0.7v-1.4l3-1l1-1l-0.3-1.4l1.4-1.4h2l0.7-1.4
		l2.4-0.3l1-1.4L431.2,339.6 M249.1,158.1l-0.3-0.7l-0.7,0.7l-0.7-0.3v-0.7l-2,2l-0.3-0.3l0.3-1l-0.7,0.3l-0.3-0.7v-1l0.3-0.7
		L243,155l2.7-7.4l1.7-2l1.4-3l2-1.7v-1l1.4-1l-1-1l0.3-1.4l-0.7-0.7l1.4-0.3l1-2.4v-1l-1-0.3l1.4-0.7l-0.3-0.3v-0.3l-0.3-1l1-1.4
		l1.4-0.7l-0.7-0.7l0.7-0.7l-1.4-0.3l0.7-0.3l-0.3-1.7l1-2.4l2-3.7l0.7-1l2.7,1.7l3.4,0.7l0.7-0.7l-3.4-1.4l-1-1v-0.7l0.7-0.3
		l-1.4-0.7v-0.3v-0.7l1-1.4l-0.3-0.3l0.7-1l-0.3-0.7l1-3.4h2.4l3.4,1.7l0.3-0.7l-5.7-3l1-2V102l5.1-1l-4.1-0.7l0.3-2.4l1-1.7
		l1.4-0.7l1.4,0.3l-0.3-0.3l1.7-0.3l-0.3-0.7l0.3-0.7l-1-0.7l-0.3-1l0.3-0.3l-0.3-0.3l0.7-1.4l2.7-1l0.3,1v0.7l1.7,3l-0.3,0.7l3.7,1
		l0.3,0.7v-0.7l-0.7-2v-1l-0.7-1.4l-0.3-2l0.3-1.7l1-1.7l1.7-0.3l0.7,1l4.4,0.7l1.4,2l0.7-0.3l-0.3,1l1-0.3l-0.3,0.7l2,0.3l-1.4,2
		h-0.3l-1,2h-1l0.7,0.3l-1,1.7v1.7v0.3v0.3v0.3l0.3,0.3l-1,2.7v0.3v2l0.3,1v1h0.3l-0.7,0.3v1.7l-2,1.4l0.3,0.3l-0.7,0.3l0.3,1v0.7
		l-1,1.4l-0.3,1.4l1.7-0.3l1.7-2.4h1l-0.7-0.3l0.3-0.7l-0.3-0.7l1-0.3l-0.3-1l2-5.4v-1.7l1.7,1.4l-0.3-0.7l3.4-2l0.3-0.3l-0.7-0.7
		l0.3-0.3l1.7-0.3l0.3-1.7l-0.3-0.7l0.7-1h0.3v0.7l0.7-0.3v1.4v1.7l0.7-1.7l1.4-0.3v-0.7l-0.3-0.3l0.7-0.7l0.3,0.7l-0.3,1l0.3,0.3
		h2.4l0.3,2l-1,1l1.7,1.7l-0.3,1.4l1.7-0.7l3.7,1l0.3,1l1,0.3l0.3,1l0.3,1l-0.7,1l0.3,0.3l3,0.3l-2.7,1.4l2.4,1H310l0.3,0.3v1h0.3
		l-1,1v0.3l1.7-1l-0.3-0.3l0.7-1.4l-0.7-0.3v-0.7l2-1l4.7,2.4l0.7,2l1,1l-1.4,0.3l1.4,1v0.7l0.3,1v1l0.7,0.3v1l-0.3,1l1,1v1l-0.3,1
		v1.7l-3,5.7l-3.4,4.4l-0.3-0.7l-1.4-0.7l-2.4,1.4l-1-0.7l-8.8,5.1h-3l-3,2l-1.7-0.7l-1,0.3l-2,1l0.3,0.7l0.7,0.3l-1.7,1l1,0.7
		l-0.3,0.7l-0.3-0.7h-1.4l-0.3-0.7l0.3-0.3l-0.3-1l-1.4-0.7l-4.7,0.7l-2.4,1.7l-3.7-1l-1.4,1h-5.1l-1.7,1l-1.7,2l-2.4,1.7l-3,1.4
		l-7.8,6.1L249.1,158.1 M336.9,132.1l1-0.3l1.7,0.7l0.7,1.7l-0.3,1.4l-1-1l-2,0.7l-1,1l1.7,0.3l-3.4,2.7h-1.4l-1.4-1v-1.7l3.4-0.3
		l0.7-1.4v-1.4l1-1.7L336.9,132.1 M167.9,146.6l-0.3,0.3l-0.3-0.3l1-0.3L167.9,146.6 M167.3,147.9l1,0.3l-0.3,1l0.7,0.7H167
		l-0.7-1.4l0.3-1L167.3,147.9 M343,138.8l4.4,0.3l3-2l1.7,0.3l0.3,1.4l1,0.7v2l-0.7,0.7l-1.7,2l-0.3-1.7l0.7-0.3l-1.4-0.3l-0.7,1.4
		l-9.1-0.7l-4.1-1l1.4-1.4h0.3l-0.3,0.7l3.7-2l1,0.7L343,138.8 M157.5,53.7l-5.4-2l-0.3-1l-2-0.7l8.4-1l5.7,2.4l1-0.3l-1.4-1.7
		l-3.7-1l-15.5,1.4l0.7-0.7l-0.3-0.7l-1,0.7l-2.4,0.3l3.7-3l2,0.3l0.3-0.7l1-0.3l2,1l-1.7-1.4h0.3l2.4,1l1.7-0.7l2,1l2-0.3l-1-1
		l-5.1-1l-3.4-1.7l5.7-2l3.4-0.3l2-0.7l-0.3-0.3h0.3v-3.4l1-3l4.7-5.1l-0.3-0.3l0.7-1.4H163v0.7l0.7,0.7l-0.3,0.3l-4.1,0.7l-0.3-1
		l-1,1.4h-1h-1.4l-0.3-1.4l3-2.7l0.3-0.3l-0.3-1l0.3-0.3l3.4-1.7h1.7l-1-1.4v-1.7l-0.3-0.3l5.1-2.4l2.4,0.7l0.3-0.3l-0.3-1.4
		l4.4-1.4l1.4-1l7.4-2.4l5.4-4.1h3.7l-6.1-1.4v-1h0.3l5.4-1l3.7,1l0.3,1.4L194.6,7l2.7-0.3l0.7,0.7L197.7,8h1.4l0.3,1.7l3,2.4
		l0.3,0.3v1.7l2.7,1.4v0.3l-0.7,1l1.4,2.4l3.7,1.4l0.7,1.4l3.4,1.4l-0.3,0.7h0.3l5.1,0.3l-1,1.7l1.7,0.3L220,27l-1.4,1l1.4,0.7
		l0.7,1.4l-2.7,1.7h-2.4h-0.3v0.7l-2,0.7l-0.3-0.3v-1l-1,0.7l-1.4-0.3l-3.4-3l-2-0.7l6.1,4.7l-0.3,1v1l-0.7,0.7l0.3,1l-0.7,1.4
		l1,1.7l0.7,1.7l0.3,2.7v2l2,0.3l0.7,1v0.7l-2,2l0.3,0.7l-0.3,0.3l-19.9,1.4l-6.1,2.7h-4.4l-1.7,1l-1.4-0.7l-2.7,3.4l-7.8,3
		l-6.4-2.7l-5.1-3l-5.1-0.3l-2.4-1l1.7-0.7l-0.3-0.7l0.3-0.3l7.4,2.7l0.7-0.3l-0.3-1L157.5,53.7 M246.4,103.7l1.7,0.7v1l0.3,0.7
		l-0.7,1l1.7,3.7l-1,1.7l-4.7,3.4v1l-0.3,0.7l-2-0.7l-2.7,1.4h-6.8l-3,2l-1-1.7h-1.7l-1-1l-0.7,0.3l0.7,0.3l-2.7-0.7l-3.4,1l-3-1.4
		h0.3l-1-1.4v-1l-2.7,0.3l-2.7-2.4l-0.3-2.4l-0.3-0.7h-4.7l1-0.3h-0.3l-1,0.7l-0.7,0.7l-2-1.7l-1.7,1.7h-2l-1.4-1l-2.4,0.7l-0.3-1.4
		l0.3-0.3l-0.3-0.3l0.7-1H193l-0.3-0.7l0.3-1l-0.3-0.3h-2l-4.4,3.4l-1.7-0.7h1l-0.3-0.7l-1.4,0.7l-1-0.7l-2.7-3.4l0.7-2.7l-4.1-3
		l0.7-0.3h-1l1-1.4l-0.7-2l0.3-1l-0.7-3l1-1.4l-0.3-2l-4.4-0.7l-0.3,0.3l0.3,0.3l-0.3,0.7l0.7,0.3l-0.7,1l-1.7-0.7L171,89h-1
		l-0.3-0.3l1-1l-1.4-0.7l2-0.7l-0.3-1.4l1,0.3l-4.1-2.7l3-1.4l0.3-0.3l-0.7-0.3l0.7-1l-2,0.7l-0.7,1l0.7,0.7l-1.4,0.3l-2.4,2l-0.3,1
		l1,0.7l-1.7,1.4l1,0.3l-2.4,0.3l-1.7-1l1.7-1v-0.3h0.7l0.3-0.3l-0.3-0.3v-0.7l-1.4-0.3l-1,0.3l-1-0.7l0.7-0.3l-1-1l-1.7,0.3
		l-0.7-0.3l2-0.3l4.1,1.4l0.3-0.7l2.7-2.7h1.7l-0.7-0.3l1.7-1.4l0.7-2l3-3l3.4-0.7l4.4,0.3v-0.3h-1.7l1.7-1.4l-0.3-0.7l-1.4-0.7
		l-3-2.4l0.3-0.7l-0.3-0.3l1.4-1.4l-0.7-0.3l-0.3-0.7v-1l1.4,1l1.7-1l2,0.7l-1.4-1l0.7-0.3l0.3-2l2.4-1V58l0.7-0.7l1.7,1.4l-0.7,1
		l1.7,0.3l1,1.4l1.4-1.4l-0.3-1l0.3-1l1-0.7l4.1,0.7l3-0.7l1,1L200,57l3,0.7l1-0.7l0.3-1l1.7,0.7l5.1-2.4h6.1l3,2.4L221,58l1.7,1
		v0.7l-2.4,1.7l0.3,1l0.7,1l-0.7,1l1.4,0.3l-0.7,1.7l-1.7,0.7l-1.7,1.7h-3.7l2.4,1l-7.8,3.4h-2l-4.1,2.4h2.4l3.7-1.4l0.7,1v-0.7
		v-0.3l1.7-1.4l7.1-2l0.3,1.4l-1.7,1.7l-3,0.7l-0.7,1.4l-1,0.3l-0.7,2l0.3,1l-0.3,1l0.7,1l-0.3-1l0.3-0.7V79v-1.4l5.4-3l1-1.4
		l1.4,0.7v-0.3l-0.3-1l0.3-1l5.1-1.7l-2-3.4l0.3-0.3l2,0.3l1-1l-0.3-0.7l0.3-1l0.7-0.3l-0.3,1l1-0.3l-1,2l0.3,0.7l-0.3,0.3h1.4
		l-0.3-0.7l1-2.7l-0.3-0.3l0.3-0.3v-1l-1.4-1.4v-0.7l0.3-0.7l2.7-1.4h0.3l-1,1.4l1,0.3l1.7-1l0.7,0.7l1.4-1h2.7h0.3l-1.7,1.7
		l2.7-0.7l0.7,0.7l-1.4,1.4l4.1,0.7l0.3,0.3l-0.7,0.3l-0.3,1l1-0.7l1,0.7l-0.3,0.7h1.4l1.4,1.4l-0.3,1.4l2,0.7v1l0.7,0.7l-0.3,0.7
		l0.7,0.7l-1.7,1.7H245l1.4,1l0.3,0.3l-0.3,0.7l0.3,0.3l-0.3,0.7l0.3,1l-0.7,0.7l0.3,0.7l-1-0.3l0.3,0.7V81l-1,1l0.7,0.3l1,2l-0.7,1
		l0.3,0.3l-0.3,0.7l-0.3,0.7l0.7,1.7l-0.3,0.3l0.3,0.3l-0.7,1.4l0.7,1.4l-0.3,1l0.3,1l-0.3,0.3l0.3,0.7h-1.7l0.3,0.7l-1.4,1l0.7,0.3
		l-0.3,0.3l-4.1-3l-1.7,0.3l0.3,0.7l2,2.4l5.1,3.4L244,102l-0.3,1L246.4,103.7 M183.5,58.4l-0.3,0.3l-0.3-0.3H183.5 M157.1,60.4
		l-1.7,0.3l-0.7-0.3l1-0.7l2,0.3L157.1,60.4 M174.7,62.4l-1.4,1l-1.7-0.3l1-1.4l2.7-1.7l1.4,1l-0.7,0.3l-0.3,1h-1 M139.2,75.6
		l-1.4-1.7l1-0.7l7.4,1l-1.4,0.7l2.4,1l1-2h0.7l-0.3-0.3l2.7,0.7l0.7-1l-0.7-1.4l-2-1.4l-2-0.3l-1,0.7l-8.1-1.7l-0.7-1v-0.7l0.7-0.7
		l1.7-0.3l0.7-0.7l-2.7-2.4l1.4-0.7l0.3-0.3v-1l-1.4-0.3l-0.3-0.7l0.3-0.7l-3-1.4l11.2-0.3l1.7,1.4l5.7,0.7l1,1l5.1-0.3l4.4,1.4
		l6.4,4.4l-1,1.7l-1,1l0.3,0.3l-0.3,0.7l-2.7,1.4l-1-0.3l-0.3,0.3l1,0.3l-5.4,4.1l-7.1,1.4l-4.7-0.7l-2.7,1.4l-1.7-0.3l0.7,0.7h-0.3
		L139.2,75.6 M186.2,58h-0.3h-0.3l0.7-0.3L186.2,58 M197.3,56.4l-0.7,0.3l-0.3-0.3l1.7-0.7L197.3,56.4 M206.8,55.7l-0.3,0.3
		l-0.7-0.3h1.4H206.8 M144.6,56h-0.7v-0.3h0.7V56 M221.7,57.7l-0.7-0.3v-0.7l0.7-0.3L222,57L221.7,57.7 M157.8,38.8l-1.4,0.7h-0.3
		l0.7-1l1.4-0.3L157.8,38.8 M142.3,44.2v0.3l-1-0.7L142.3,44.2 M143.6,45.2h-0.7l-0.3-0.3h0.3L143.6,45.2 M214.6,50.3h-0.3L214,50
		l1-1l-0.3,0.7L215,50L214.6,50.3 M141.9,5l3,0.7V6v1.7l1,1l-3.7,3l-4.1,0.7l-9.5-2l-1.7-1l-0.7-1L127,6l1.4-1.4l9.8-1L141.9,5
		 M164.6,11.1h-1l-0.7-0.3h1L164.6,11.1 M167.6,11.7h-0.7v-0.3h0.3L167.6,11.7 M-8.5,6l-1.4-1.4l1-1.4l3-2.4l4.4-0.7L5,3l1.4,1v1
		L5.7,6L1,7L-8.5,6 M154.8,29h-0.3h-0.3l1-0.3L154.8,29 M221.7,25.9l-0.3,0.3l-0.3-0.3h0.3H221.7 M220.7,31.7h-0.3H220l0.3-0.3
		L220.7,31.7 M153.1,88.5h-0.3l0.7,0.3l-2,0.7l-0.3,0.3l0.3,0.7l-0.3,0.3l-0.7,0.3l-5.7-2.4l3.7,0.7l4.4-1.4l3.7,0.3h-3.5
		 M248.4,87.1l1-0.3l0.3,0.3l-0.7,1.7l-1.4,0.3v-1.7l0.3-1L248.4,87.1 M248,92.5h-0.7v-0.7l0.3,0.3L248,92.5 M246,96.9l0.3,0.7
		l-1.4-1h0.3L246,96.9 M156.1,107.1l1,0.7l-2-0.7l-5.4-2.7L156.1,107.1 M156.5,88.8h1.7l2,1l-0.7,1l-2,0.7l-1.7-1.4v-0.7L156.5,88.8
		 M207.8,111.4l0.7-0.7v0.7l-0.3,0.3L207.8,111.4 M232.5,119.2l-0.7,0.7h-1.4l0.7-1L232.5,119.2 M222.4,120.6l-1,0.3v-0.3l1-0.7
		l-0.3,0.7H222.4 M222.4,118.5v0.3h-0.7l0.3-0.3H222.4 M179.1,62.8l-0.3,0.3l-0.7-0.3H179.1 M223,62.8h-0.3l-0.3-0.3h1L223,62.8
		 M225.7,62.1h-0.3h-0.3H225.7 M225.1,63.5h-0.3l0.7-0.3L225.1,63.5 M176.1,65.8l-0.3-0.3h1L176.1,65.8 M224.7,65.5h0.7H224.7
		 M220,68.9h-0.3l-0.3-0.7l1,0.7H220 M206.8,74.6h-0.3v-0.3L206.8,74.6 M212.9,76.6l-0.3,0.7l-0.3-0.3l0.3-0.3L212.9,76.6
		 M249.4,74.3l0.3,0.3l-0.7,1l1-0.3l1.7,0.7l-2.7,0.7l-0.7,0.7l-0.7,2.7l-0.7-0.3V78l0.7-1v-1.4l0.3-1l-0.3-0.3L249.4,74.3
		 M136.5,79.7V80h-0.7v-0.3H136.5 M249.1,81h-0.3l-0.3-0.3l1-0.3L249.1,81 M138.9,84.7l0.7,0.3l-5.7-2.4l-2,0.3l-2.4-1l3.7-0.3
		L138.9,84.7 M141.9,88.1l-2-1l0.7-0.3l-0.7-1l1.4,0.7l0.7,1.4l2.4,1L141.9,88.1 M136.5,84.7l-0.7,0.3l-1.7-1.4h0.3L136.5,84.7
		 M-36.5,63.1l2.7,1.4l0.3,1l-2,0.7l-8.4-1.4l-1-0.7l0.3-1.4v-1l-3.7-0.3L-51,57l0.7-1.7h1.7l1.4,1.7h-1l0.3,0.7l3.4-0.3L-36.5,63.1
		 M145.3,88.8H145l-0.3-0.3v-0.3L145.3,88.8 M143.9,88.1h-0.3l-0.7-0.3L143.9,88.1 M142.6,87.1l0.3,0.3l-0.7-0.3H142.6 M290.3,100.3
		l-0.3,0.3v-0.3H290.3 M268.7,94.5l-0.3,0.3v-0.3v-0.3L268.7,94.5 M291,98.3l-0.3-0.3l0.7-0.3L291,98.3 M292,98.6l-0.3,0.3v-0.7
		l0.3-0.3V98.6 M290.6,94.2l0.3,1.4l0.7-0.3V96l0.3,0.3l-2,0.3l-0.3-1.4h0.7v-1H290.6 M304.1,101.3l-0.7,0.7l-2,0.7l3-1.7
		L304.1,101.3 M312.6,108.1l0.3-0.3L312.6,108.1 M234.2,129.7h-0.7l-0.7-0.3h1.7L234.2,129.7 M233.8,132.1l-0.7,0.3v-0.3l0.7-0.3
		V132.1 M234.2,133.1l-0.7,0.3l-0.3-0.3l1-0.3V133.1 M222.4,121.9l-0.3-0.3l1-0.3L222.4,121.9 M233.2,128l-0.3,0.3l0.3-0.7l-0.3-0.7
		l0.3-0.3v-1l1,0.7L233.2,128 M232.8,121.9h-0.3h0.7H232.8 M336.6,130h-0.3l1-0.3H337L336.6,130 M338.3,130.7H338l-0.7-0.3l0.3-0.3
		L338.3,130.7 M336.9,131l-0.3,0.3l-0.3-0.3l0.3-0.3L336.9,131 M340.6,134.4l-0.3-0.3v-1.4l-1-1l1.4,1v1.7 M342.3,138.8l-0.3,0.3
		l-0.3-0.7l1,0.3L342.3,138.8 M185.2,234.5l0.3-0.7l0.3,1l-0.3,0.3L185.2,234.5 M213.6,240.6l0.7,0.7l-3.4,1l-1.4,1.7l-1.4-0.7
		l0.7-1l-0.3-0.3l1-2v-0.7l0.3-0.3l1-2l1-0.3l-1.4-1v-0.3l1.4,0.3l0.3,1l1.4-0.7l0.3,0.3l-0.3,0.7l0.7,0.3l0.3,0.7l-1,0.7l0.3,0.7
		h-1.4l0.3,1L213.6,240.6 M199.7,236.2l1.4-0.7l1,0.3l-1.7,1L199.7,236.2 M208.2,237.2l-4.1-0.7l-0.7-0.7l2-0.7l0.7,0.7l2.7-0.3
		v-0.3l0.7,1l-1,1.7h-0.7L208.2,237.2 M177.7,235.5l1-0.3l0.3,0.3l-0.7,0.7L177.7,235.5 M193,227l-0.3,0.3l-0.7-0.7l1.4-0.3L193,227
		 M204.8,225h0.7l-0.7,0.7V225 M199,226.4l-0.3,0.3l-0.3-0.3l0.7-1.4l0.3,0.7L199,226.4 M432.6,203h-0.3l-1-1v-0.7l-0.3-1l0.7,1
		l-0.3,0.7L432.6,203 M188.9,227.7v-0.3v-0.7l1.4-1h0.3v0.3l0.3,0.7l-1.7,1.7h-0.3V227.7 M197,227.4V227V227.4 M419.7,201.7
		l-1.4-0.7l1.7-0.7h-0.3h0.7l0.3,0.7l-0.7-0.3v1.4L419.7,201.7 M424.1,199.7l0.3-0.3L424.1,199.7 M187.2,230.1l1-0.7l2,1l-0.7,0.7
		l1,0.3l-1,0.3l-0.7-1v-0.3v-0.7L187.2,230.1 M206.8,231.1l0.3-0.3v0.3H206.8 M439.7,204.7v0.3l0.3,0.7l-1-1H439.7 M444.1,208.4
		l1.4,0.3l-0.3,0.3l-3.7,0.7l-0.7-1l0.7-2.7l1.4,0.7l-0.7,0.7l0.3,0.7L444.1,208.4 M433.9,206.1v-0.7v0.3V206.1 M188.9,229.1h0.7
		h0.7h-0.7H188.9 M181.8,232.4h0.3h1.7l1-1v-0.7h1.4l-0.3,0.3v1l-1.7,0.7L181.8,232.4 M186.2,233.1l0.7-0.3l0.7,0.7h-0.3
		L186.2,233.1 M218,232.1l0.7-0.7v0.3v0.3L218,232.1 M210.9,233.1v1h-0.3l-0.7-1H210.9 M215.9,234.1l0.3-0.3L215.9,234.1 M205.1,248
		h0.7l-0.3,0.3L205.1,248 M179.8,239.2l0.7-0.3h0.7l-0.3,0.7L179.8,239.2 M246.4,240.2l1-0.7l1,0.3l-0.3,0.7L246.4,240.2
		 M183.2,243.3l-2.7-0.7l-4.7,0.3l1.4-0.7v-0.7l1,0.3l0.3-0.7l3.4,0.7l0.3-0.3l-0.7-0.7l0.3-0.7h-0.7l2.4-0.7l0.3-1l1.7,0.3
		l-1.4,0.7v0.7l-1.7,0.3l1,1.4l-0.7,0.7L183.2,243.3 M186.9,244.6l-1,0.3l-1.4-0.7l1-1v-0.7l1-1l1.4,1.4l-1.4,0.7l1.4,0.7
		L186.9,244.6 M247,241.9v0.3V241.9 M189.2,237.8h0.3v0.3L189.2,237.8 M249.1,239.9h0.3H249.1 M167.6,243.9l1-0.7l0.3,0.3l-0.7,0.3
		L167.6,243.9 M150.4,252.7h-1v-1l1.7,0.3v1L150.4,252.7 M200.7,253.1h0.3H200.7 M152.1,253.1v-0.3V253.1 M142.6,248h0.3l-0.3,0.3
		V248 M139.2,248.7l1,0.3l-1,0.3l-2.4-1L139.2,248.7 M133.8,248.7h-0.7h-0.3H133.8 M144.6,249.3h0.3H144.6 M149.4,254.4l0.7-0.3h0.3
		l-0.3,0.3H149.4 M152.4,259.8H150l3-1.7l0.7,1h1.4l-1.4,0.3l-0.3,1L152.4,259.8 M454.5,227.4V227V227.4 M142.6,255.8l1.4-0.7
		l0.3,0.3h-0.7L142.6,255.8 M160.2,255.8h-0.3H160.2 M135.2,256.4h0.3H135.2 M160.5,258.8l-0.7,0.3l-0.3-0.7l0.3-0.7l1.4,0.3
		L160.5,258.8 M155.8,259.1v-0.3V259.1 M129.8,265.6v-0.3V265.6v0.3V265.6 M151.7,261.2l0.3-0.3l1-0.3l-1,0.7h-0.3 M87.5,263.2h0.3
		H87.5 M82.4,265.6v0.3h-2l0.3-0.3v-0.3l2.4-0.3v0.7h-0.7 M55.1,296h-0.3l-0.3-0.7l1,0.3L55.1,296 M59.1,306.1l-2-0.3v-0.3l0.3-0.3
		l-0.3-1l-1-0.3l0.7-0.7l-0.7-1l2-0.3l-0.3-0.7l-3,0.7l-0.3-0.3l0.7-0.3l-1.4-1v-1l-0.7-0.3l0.3-0.7l-0.7-0.7l1,0.7v-0.7V297
		l0.7,0.3l0.3-0.7l0.7,0.3l-1,0.3l1.7,0.3l-0.3,0.3l0.7,1h2.7l0.3-0.7l-1.7-1l0.7-1l-1-0.7l0.7-0.3l-0.3-0.3l3,0.7l-1.7,0.3l0.7,0.7
		l5.4-2l1,1.7l-0.3,0.3l1.7,0.7l-0.3,1l-1,1.7l-4.7,1l2.7,1l-0.3,1l-1.7,0.3v-0.7v-0.3h-0.3l-3.7-0.3l1.4,1.4h1.7l0.3,1l-1.4,0.7
		l-1.7-0.7v0.7l0.7,0.3v0.3v0.5 M54.4,280.1l0.3-0.3h2.7l-2,0.3H54.4 M57.8,279.8l0.7-0.3l0.3,0.3h-0.3H57.8 M53,280.1h0.3H53
		 M81.8,283.1h0.3H81.8 M83.8,288.9v-0.7v0.3V288.9 M-11.9,276l2.7,2.4l1.4,2.4l1-1l0.7,0.7l-0.3,2v0.7L-11.9,276 M42.2,305.8v0.3
		l-1.7-0.7l-1-1.7l-2.7,0.7l-1.4-1l3.7-0.3l2-1.4h0.7l0.3,0.7h1.4l0.3,1.4v0.7l0.7,1l-1,0.7h-0.3l0.3-1.4l-0.7-0.3l-0.7,0.3v1
		 M43.2,300.4l0.7-0.7h1l-1.4,1L43.2,300.4 M53.7,302.7l1-0.3l0.7,0.3H53.7 M37.8,301.1h0.3l1,0.3h-0.7L37.8,301.1 M48.3,297.7h0.3
		v0.3L48.3,297.7 M44.6,298h0.3l-2.7,0.3l1-0.7L44.6,298 M36.1,298.7l1.4-0.3l0.7-1l-0.3,0.7v0.7h-1.8 M40.2,312.2l-0.3-0.3h0.3
		V312.2 M43.2,313.6l-0.3,0.3l-0.3-0.7l1-1l0.3,1L43.2,313.6 M31.1,313.6l-1-0.3l1-1.7l1.4-0.7l2.7,1l-2.4-0.3l-1,0.7L31.1,313.6
		 M33.4,313.6l-0.3,0.3l-0.7-0.7l1.4-0.3L33.4,313.6 M43.9,316.3l0.7-1l-0.3-1.4l1-1.4h3.4l1.7-1l0.7,0.3l-0.3,1l-2-0.3l3.4,3.4h-1
		l-0.7,1.7H50l-0.7-1.7l-1.7-0.7l-0.3,0.3l1.4,1.4l-0.3,0.7l-1.7-0.3l-1.4,1l0.3,0.3l-2-0.3l0.7-0.3l-1.7-0.7L43.9,316.3
		 M41.2,315.6l-1.4,0.3v0.7l-0.3,0.7l-1.7,0.7l-1-0.7v-0.7l-1.7-0.3v-0.7v-1h-0.3l1.4-1.7l1.4-1l2,0.7l0.7-0.3l0.7,0.3l0.7,1.7
		l1.4,0.3L41.2,315.6 M28.7,319l-3.7-1.4l-1-1.4l4.1-2l3.4,0.3v-0.3l1,0.7l-0.3,1l-1.4,0.3l-2.7-0.7l-1.7,0.3l2,1.4l0.3,0.7l1,1h-1
		 M31.7,316.3l0.3,0.3v0.3l-0.3,0.3l0.3-0.7L31.7,316.3 M35.8,317.6h0.3v0.3L35.8,317.6 M47.6,318.3H48H47.6 M20.9,315.6l1,0.3
		l0.7,1h-0.3L20.9,315.6 M21.6,306.5l0.7-0.3l0.3,0.7l-0.7,1L21.6,306.5 M44.2,308.8h-0.3l-0.3-0.3l0.7-0.3v0.6 M-49.4,302.1l0.3,1
		l-3.4-1.7l-1-1.4v-1.7l1-1.7l1-0.3l0.3,0.7l-0.7,0.3l3.4,1.7l1,1.4h-1.4l-0.7,0.7v1 M419.1,304.4v0.3l-0.3,0.3L419.1,304.4
		 M39.8,320.3l-1.4,0.3l-3.4-1.4l2-0.7l3.4,0.3l1,1L39.8,320.3 M35.5,318.3h0.3H35.5 M21.6,318.3h0.3v0.3L21.6,318.3 M39.2,333.2h-1
		l-0.7-0.7h1.4l1.4-0.3v-0.3l-3.4-1.4l0.3-0.3l-1.7-0.3l-0.3-0.3l7.4,2l-0.3,0.3l0.3,0.7l-0.3,0.3h-2l-0.3,0.7L39.2,333.2
		 M34.4,331.5h0.7l-0.7,0.3l0.3,0.7h-0.3V331.5 M35.8,332.5h0.3H35.8 M33.8,324l1-0.3l1.7,1l-1.4-0.3l-1.7,0.7l-1-0.3l1.7-0.3
		l-0.7-0.3h0.4 M30.7,324.4l0.7-0.3l0.3,0.7H31L30.7,324.4 M34.4,321h0.7l1,0.7h-1.7V321 M35.1,322.3l0.7,0.3l-1.7-0.3h0.7H35.1
		 M42.2,323.7l0.3-0.3v0.3H42.2 M31.4,322.7h1l0.3,0.3L31.4,322.7 M39.5,326.1h0.3l1,0.3l-1-0.3H39.5 M27.7,329.8v-0.3l0.3,0.3H27.7
		 M24,335.5l0.3-0.3v0.3H24 M55.7,339.6l0.3,0.3l-2.7-0.7l1-0.7l1.7,0.3l-0.7,0.3L55.7,339.6 M53.4,335.2l0.7-0.3l0.3,0.3l-0.3-0.3
		L53.4,335.2 M-1,331.1l3-2l3-0.3l2.7,1l1.7,1.4l0.3,1l-0.3,0.7l-1.7-1.7H6.4l-1,1.7h1.4H5.4L1,330.5L-1,331.1 M51.3,336.2l0.7-0.3
		l0.3,0.7l-0.3,0.3L51.3,336.2 M56.7,335.9l1,0.7l-1,1.4l-1.4-1.4l-0.3-0.3l0.7-0.7l-1-0.7h1v0.7L56.7,335.9 M-5.1,331.5l-2.7-0.7
		l-0.7-1.4v-1l1.4-1l2-0.3l2.4,3L-5.1,331.5 M28,336.9l0.7-0.3l0.7-0.3l-0.3,0.3L28,336.9 M60.1,344.3l-4.4,0.7l-1.4-0.7l-0.3-1.7
		l0.7-0.7l-0.3-0.3l1-0.7l0.7,0.3l0.3,1l3.4,0.3v0.3h-3l3.4,0.7v0.3v0.5 M50,342.6v0.3V342.6 M62.2,346.3v-0.7v0.3V346.3 M54.4,346
		H54h1H54.4 M60.5,347l0.3,0.3V347H60.5 M24,344.3l1-0.3l0.3,0.7l-1.4,0.7l-0.7-0.3L24,344.3 M61.8,351.4v1h-0.3l0.3-0.7V351.4
		 M62.5,357.2l0.3-0.3v1l-2,1.7l-2-0.7l2.7-1l-3.7,0.7l-0.7-0.3l2-2l0.3-0.7l1.4-0.3l1-1.4l0.7-1.4h-0.7l0.7-0.3l1-2l2,1.7v0.7
		l-1-0.7l-2.7,5.4h0.7 M436.3,331.5l-1.7,0.7l0.3,0.3l-0.3,1l-1-0.7l-2,1.4l-1.4,2.4l-3.4-0.7l-1,2l-2.7,2l-1.4,2.4l-2.7-0.7l-4.1,1
		l-1.7,1l0.7,1l-2-1l-1.7-2l-1-3.4v-0.7l4.1-3l0.3-1.4l0.3-3.7l0.3-1.4l5.1-1.4h2.4l3.4,0.7l3.7,2l2,0.3l0.7-0.3l0.3-1.4l-0.7-1
		l0.3-1.7l1-1.7l5.1-2l1.4,1.4l-3,2.4l-2.4,0.3l0.3,1.7L436.3,331.5 M-42.6,349.7l-0.3-0.3h0.3V349.7 M-42.3,349.7h-0.3H-42.3
		 M-48,353.4h0.7l0.3,0.7h-1l-0.3-0.7H-48 M-43.6,355.5l1.7,1l-1-0.7L-43.6,355.5 M-46.3,355.8l0.7-0.3l0.3,0.3l-0.7,0.3
		L-46.3,355.8 M-46.3,356.5l0.7,0.3L-46.3,356.5 M-45,357.2h0.3l0.3,0.3l-0.3-0.3H-45 M358.6,382.8l0.3-0.3v0.3H358.6 M-75.7,381.8
		l-1-0.3l0.3-0.3l-1-0.7v-1.4l1.7-2l5.7-4.7l2.4-3l1-0.7l3,3.7l1.4,4.7v0.7h-1l0.7,0.7l-0.3,0.3v2l-0.3,0.3l0.7,1l-1,0.7l0.7,2.7
		l-0.7,0.7v0.7l-1.4-0.3l-1.4,0.7l-7.4-3l-0.7-1.7L-75.7,381.8 M-65.3,361.2v-0.3l0.3,0.3H-65.3 M48,378.4l-0.7-0.7V377l0.7-0.7
		l0.3,2H48 M-70.7,361.9v0.3l-1,0.7l1.4-2l0.7-0.3l1.7,0.3h-1.7L-70.7,361.9 M359.6,385.9l-0.3,0.3v-0.3l0.3-1.4l0.3,0.7
		L359.6,385.9 M357.5,388.2h0.3l-0.3,0.3V388.2 M354.5,392.3l0.7-0.7h1l-1,0.3L354.5,392.3 M344,399.7l-1.7,1.4l-0.3-1.4l1.7-2
		l0.7-0.3l0.3,0.7l0.7-0.3L344,399.7 M-43,410.2l0.3,0.7v0.7l-1.4-1.7L-43,410.2 M-42.3,413.3h0.3h0.3H-42H-42.3 M-42.6,413.6H-43
		H-42.6 M340.6,403.1l0.7-0.7l-0.7,1.7l-2.4,0.7L340.6,403.1 M-46.7,403.5v-0.3l0.7-0.3l0.3,0.7v1l1,0.7L-45,406l-1.4-1L-46.7,403.5
		"/>
	<path id="taseevskij_rajon" inkscape:connector-curvature="0" class="st0" d="M154.1,1134.5l6.4-11.2l4.4-10.1h1l0.7,1.4l2.7,2
		v-0.3l2,0.7l2-0.3l1.7,0.7h1l0.7-1l1.7,0.3l1,0.7l0.7,2l6.8-1.7l5.1,2.4l3.4-0.3l2.7,1l1.7,2.4l-0.3,1.4l1.7,1l-1,1.4l0.3,0.3
		l-0.7,0.7l0.3,0.7v0.7v0.3l7.8-1.4l1.4,1l0.3,1.7v2.4l-3.7,2.7l0.7,2.7v10.5l4.1-0.3l0.3,1.7l-0.7,2l-1,0.7l-6.8,1l0.3-2.4l1-0.7
		l-1.4-2.7l-1.4,1.7l-5.4-0.7l-1.4,1.4l-1.7-0.3v-1.7l-3.4,1.7l-5.1,0.3v0.7h0.7l-1.4,2l-3-0.7l-0.3,1.7l-2,0.3l-0.3-0.7l-1.4-0.3v1
		l-2.7-0.3v1H173l-0.3,1l-4.1,1.4l-4.1-0.7l-4.1-8.1l-2.7-5.1v-1.4l-1-2.4l0.3-1l1.4-0.3l-0.3-2l-1-1l-2.7,0.3L154.1,1134.5"/>
	<path id="tjukhtetskij_rajon" inkscape:connector-curvature="0" class="st0" d="M25.7,1166.3l4.1,0.3l0.3-3h1l0.7-1.4l-2.7-0.3
		l1-4.7l-1.4,0.7l3.7-13.5l-1.7,0.3l-3-0.7l-0.3-1.7l1.4,0.3l2-4.1l2.7,0.3l3.7-11.2l0.3-1.4l0.7,2l1-0.3l0.7-2.7h1.7l-0.3,1.4
		l0.3,1l1.4-2.4l-0.3,1l1.7-0.3l-1.4-1.4l1-4.7l2,1.4l3.4-1l0.7-1.7l-0.3-2.7l0.3-2l9.1-2.4v1.4l-2.4,2.4l0.3,2l-1,2l0.3,1.7
		l-0.7,0.3l6.4,1.4l1,1.7l-2.4,2.4l-2,0.7l-2.4,14.9l-2.7,4.1l-0.7,4.1H57l2.7,1.4v0.7l1.4,1v1.4l2,1.4l0.3,1l-0.3,1l0.7,1v1.4
		l-1.4,2.4l0.7,1l-1,1l0.3,0.7l-0.7,0.7l-1.7,0.7l-0.7,2l2.4,4.1l-5.4,1.7l0.3-1l-2.4-0.3v1.7h-1v0.7h-1l0.3,0.7l-1.4,1h-1.7
		l-1.4,1.4l-0.7-0.3l-0.3-2l-2.4,1l-0.3-1l-2,1.4l-1.4-0.7l-1.4,2l-5.7-1l-0.3,0.7l-4.1-0.3v-2.4L27,1176l-0.3-1.4l0.7-0.3l0.3-3
		h-1.4L25.7,1166.3"/>
	<path id="turukhanskij__rajon" inkscape:connector-curvature="0" class="st0" d="M-61.9,619.1l1.4-2.4l1,1l2.7-1l1.7,1l5.4,0.7
		l1-1.4l-0.3-2.4l0.3-2.4l-0.3-1v-1l4.4-2l-0.3-1.7l0.7-2l0.3-1l1.7-0.7l2-5.4l3,3.4v1l2.7,2.4l1.4,0.3l0.3,0.7v1.4l-0.7,1v0.3
		l-0.3,1h2l1.7,3.4l-0.7,1.4l-1,0.3l-0.3,1l-2,0.3l0.3,1l-1.7-0.3l-0.3,0.7l0.7,1l-0.7,1.4l1.7-0.7l0.7,1.4l0.7-1.7l1,1l1.4-0.3
		l-0.7,0.7l0.3,1l-0.7,2l1,0.7l1-0.7l0.7,0.3l-0.3,1l-1,1.7l1.7,1.7h1.4l1,1.7l0.7,0.3l-0.3,0.7l1,2l-0.3,1l0.3,0.7L-25,634l0.7,0.3
		L-25,635l0.3,0.3h-0.7l0.3,1l-0.7,1h0.7l1.4-1l2,1.4l0.3-0.3l-0.3-0.3l1,0.3v-1l1.7,1.4l-0.3,0.7l1,0.7l-0.7,1l1.4,1l-0.3,1
		l0.3,1.7l3,0.3v1h-0.3l0.3,1h-0.3v1h-0.7l0.7,2.4v1.7l1.4,0.7l1.7-0.3l-0.3,0.3l1.4,1l-0.3,0.7h0.7l-0.3,0.7l0.3,0.3v1l0.3,0.7
		l-0.3,1l1.4,1l3-0.7l0.3-1l2-0.7l0.3-0.7l-0.3-0.7l0.3-0.7l0.7,0.3v-0.7l2-0.7l-4.4-1l-1-1.7l1-0.7h1.4v-1l0.7-1l1.7-1.7l-1-0.7
		l0.3-0.3l0.7,0.3l2.4-1.7L0.9,643v-0.3l1.4,1L3,643l1-1.4l-0.3-0.7l0.7-0.7v-0.7L2,639l-0.3-1.7l-1.4-0.7V636h1.4l1-1v-0.7h0.7
		v-0.7l0.7-1.4l2.7-0.7l-0.7-0.3l1-2l0.3-0.3l0.7-0.7l0.7-1.4l2,0.7l1-0.7l-0.3-1.7l0.7-0.7l-0.3-1.7l0.3-0.7l-0.3-0.7l3.4-1.4
		l10.8-1l2,0.3l3.7,22.3l9.5,13.5l1,1.7l7.4,0.7l2-3.4h2v1.4l0.7,1l2.4-1l1,0.3l1.4-0.3l3.7,1.7l1.7-1.4H66l3,2h3.4l1-0.3l1-2v-2
		l2.4-2l4.4,5.4l2.4-1.4l7.1-1.4l10.5,5.1l4.1-2l2.7,0.3l1-1.7l1.7-0.3l1-1l1.4,0.3l0.7,0.7v0.7l1,0.3v2.4h-1v1l-1.7,2.7l-2.4,1.7
		l-2.4,3.4l-3,6.4l-0.7,3l-1.4,2.4L90,693.3l-4.4,2.4l-0.7,5.4l-1,4.4l-0.3-0.3v-0.7l-5.7-2.7l-6.4,0.7l-0.7,1.7l-1,0.7l0.7,1
		l-0.3,1l-1,1l0.3,1l-1,0.3l0.3,1l-1,0.3l0.7,2.7l-1.4,1l0.7,0.7h-1l0.3,0.7h-0.3v0.7l-0.7,0.3l1,0.3v1h-1l0.3,1l0.7,0.3l-0.7,1l1,1
		l-0.3,0.3l0.3,1.4l-0.7,0.7l0.7,1.4l0.3,4.4l-1,0.7l-0.3,1.7l-3.7,2v1l-1,2l-1.4,2h-1l-1,2v2.4l-0.7,0.7l-0.7,1.7l0.7,0.3l1-1h1.7
		l0.3,0.3l-0.3,0.7l0.7,0.7l0.3,1l1,0.3l1.4-0.7l2,1l1.4-0.7l1.7,0.7v1.4l0.3,1.7l1.7,2l-1.7,2l4.4-0.7l1.4,2.7l-3,3l0.3,1h1.4
		l-0.3,1.4l1.7,2.4l-2,1l-1,3v0.3l-1.7,0.3l0.3,0.3l-1,0.7l-1,2l-2,2.4l0.3,1l-0.7,0.3l-0.3,2.4l-0.7,0.3l1,1l-0.3,1l0.7,0.3v0.7
		L74,782l1-1l3.7-1.4l0.7,1l-0.3,1l0.3,0.7l-1.7,2.7l0.3,1l0.7,0.7L79,786l3.4,0.3l1.7-0.7l-0.3-1l0.3-1l1,0.3l0.7,1.4l-0.3,0.7v0.3
		l-1,1l1,0.7l-0.7,1.7h1l1.4,1.7v1.4h0.7l0.7,1.4l2,2l1.7-0.7l0.7-1l-1-2l1-1.7l1.7,1.4l1-0.7l1,1v0.7l-2,4.4l0.7,0.3l2-0.7l1.4,1
		l-0.3,0.7l-1.4,0.3l0.3,0.7l-0.3,0.3v0.3l1.7,0.3l1-1.4l1.4,0.3l1-0.7l1,1.4l2,1l-0.3,0.3v0.7l-0.7,0.3l0.7,1.4l2.4-0.3l1.4-1.7
		l3,1l1.7-0.7l3.7,0.3l0.3,0.3l0.3,1.4l-0.7,1.7l1.7,1l-0.7,1.7l-0.7,0.3v0.7l1,1h1.7l0.7,0.7l0.7,2.4l2.4-0.7l0.7,0.7l-0.7,1.7
		l0.3,0.7v1.7l-1,1.7h-0.7l-0.3,1.4l-1.7,2.7l5.7,2.7l0.3,4.1l0.7,2l-0.3,0.7l-1.4,1.7l-1,2.4l-4.1,0.7l-0.7,1v1.4l-0.3,0.3v0.3
		l-2.4,2l0.3,0.3v1.4l-0.3,0.3l0.3,0.7v1.7l-2.7,3.4v0.7l-0.3,0.7v1h0.7l0.7,1.7l-0.7,1l-0.3,4.4l0.7,0.7l0.3,1l1,0.3v2l1,2
		l-3.7,5.1l-11.8,8.1l-2.4,2.7L98,888h-1v2.7l-3.4,0.3l-2.7-0.7l-2,0.7l-0.7,1.4l-1,0.7v0.7l-1,1.4v1l-1.4-0.3l-0.3,1.7l0.3,0.7
		l-1.4,2.4l-1,1L81,902v1l-1,0.7l0.7,1.7l0.7,3l3,2l1,1.4l0.7,3.4l1.4,2.4l2,0.3v1.7l1.4,1.4h-0.3v1.4l1.4,1.4l1,0.3l-0.3,0.7l1,0.7
		l-0.3,0.3l0.3,1l-0.3,0.3l0.7,1.7l1.4,1.4l-0.3,0.3v0.7l-0.3,0.3l-3-0.3l0.3,1l-0.7,0.7v1l-0.7,0.3l0.3,0.3l-0.7,0.3l0.3,1.4
		l-1.4,1l-0.3,2.4l1.7,1.4h1v1.4l-0.7,1.4h1v1l1,0.7l0.3,1v0.3l0.3,2.7l-0.7,0.7v0.7l1.4,0.7v0.3v0.7l1.4,1.7l4.7,10.1l2,2l-0.3,0.3
		l0.7,0.7l0.3,1.4l1.4,1v0.7h0.3l0.3,2.4l-1.4,1.7L96,974l-26.7-3.7l-1-1.4l-1.7-4.1v-1.4l-1.7,0.3l-0.3,1.4l-2-1.7l-0.3,0.3
		l0.7,0.7l-1.4,0.3l-0.7,1l-1-2l-1.4,1.4l-1.4-2l0.7-0.3h-1.4l-0.7-1l-1,1v-1l0.7-0.7H54l0.3-0.7l-0.7-0.7l0.7-0.3l-0.7-0.7l0.7-0.7
		l-1.4,0.3l-1-1l-0.7-1.4l-1,0.3l-0.7-0.7l0.7-0.3V954l-0.7-1l1-0.7l-1.4,0.3V951l-2.7-0.3L49,950l-0.7-1.4l0.7-0.7l-1.4,0.3l-0.3-1
		h-0.7l-0.3,0.3l0.7,0.3l-0.7,0.3l-2-1.4l-0.7,0.7l-1-0.3l-0.7-0.7l0.3-0.7l-1-0.7v-0.7l-1,0.3v-1.7h0.7v-1l-0.3-0.7h-1l0.3-1
		l-0.7-0.7l-0.3,0.7h0.3l-1.4,0.3v0.3l-0.3,0.7l-1.4-0.3v0.7l-1,0.3l-0.7-0.7l-1.7,0.3l0.3,0.3l-0.7,0.3l-1.4-0.7l-1.4,0.7l0.3-0.7
		h-2.4l-0.3-0.3l0.3-0.3l-1-0.3v-1h-1l-1,1l0.3,0.3l-2,0.3l-0.3,0.3h0.7l-0.3,1l0.7-0.3l0.3,1h-0.7v1l-0.7-0.3v0.7l-0.7,0.7H22v0.3
		h-1.4l-0.7,1l-0.3-1.7l-1-1h0.3v-1l0.7-0.3l-0.7-0.7l-0.3-1.7l-2.7-1h-2h0.3v-1l-3-2v-0.3l-2.4-2l-1.4,0.3l0.7,2l-0.3,1l0.3,0.7
		l-1,1.4l-7.4,1l-1.7-2v-2.7l-1.7-0.7l-2-2l-1.4,0.7l-1.7,2.7h-1.7l-1.7-3l-1.7-1.4l0.3-1v-3l-2.4-2.4l-2.7,0.7l-4.7-2.7l-1.4-3.4
		l-3,0.3l-3.4-4.1l-3.7-2.4l-1.7,0.7l-4.1-3l-0.3-2l-1.7-3l0.3-3l-0.7-2l0.3-3l-0.3-4.7l1.4-1l2-3.4l3.4-4.4l5.4-3.4l-0.3-0.3
		l0.3-1.4h-0.3l0.3-0.3l-0.7-0.3v-0.3l0.3-0.3l-0.3-0.3l0.7-0.7v-0.7l1.7-0.3l1.7-1.7h0.7l0.3-0.7l-1-0.3v-0.7l2.4-1.7l1.7-4.4
		l1.4-0.7l2-2.7l2.4,0.3l1-1v-1l0.7-0.7l-0.7-2l2.4-1.4l0.3-1l-0.7-1.4h0.7l-0.7-1.7l-1-1h0.3l-0.3-0.7v-1l0.3-0.7l-0.3-0.7l1.4-0.7
		l-0.3-0.3l0.7-1l-0.3-0.3v-1h0.7l-0.3-0.3h0.7l-0.3-0.3l0.3-0.7h-0.3l3-2.4l-0.3-0.3l0.3-0.3l-0.3-0.7v-0.3l-1.4-0.3l-3,0.7v0.3
		l-1-0.7v-1l-0.7-0.7l0.3-0.7l-0.3-0.3l0.7,0.3l-0.3-0.3l0.7-0.7l-1-1l0.7-0.3l-0.3-0.3v-0.3h-0.3v-0.7l-1.4-1.4l0.3-0.3l-1.7,1
		v-1.4L-20,834l-1.7-1v-0.7l-0.3,0.3v-1l-0.7-0.3l0.7-0.3l-1-0.7l0.7-0.7l1.7,1.7l1-2l1,0.3l0.7-0.7l-0.3-0.3v-0.3l1.4-0.3l-0.3-0.7
		l0.7-0.3l-0.3-0.7l1-1.4l-0.3-0.7l0.3-0.3v-1l1.4-0.7l-0.7-0.7l0.3-0.7l-0.7-0.3l1.4-1.4l-0.3-1l2.4-0.3l0.3-1l-0.3-1l0.7-0.7
		l2.7-1l2-1.7l4.1-2H-1v-3l-0.3-0.7l1.4-2.4v-1.4l0.3-1l0.7-2l-1.4-5.1l0.3-2.7l-2.4-3.4l2.7-3.4V784l-1.4-3.7l0.7-5.1l-2-2.4
		l-3.7-1.4l-1.7,0.7l-2,1.7l-2-0.3l-2.7,1.4l0.3-1.7l-0.7-0.3l0.7-1l-2.4-0.3l0.3,0.3l-0.3,0.3l-0.3-0.7l0.3-0.3l-1.4-0.3l0.3-1
		l-0.7-0.3l0.7-0.7l1.4-0.3l-0.3-0.7l0.3-0.7l0.7,0.3l-2-2h-0.7l0.3,0.7l-1.7-1.4l-0.3,1l-1-0.3l-1.7,0.7l-1.4-0.3l-0.7,1l-0.7-1
		v0.7l-1-0.7l-0.3,0.7l-0.7-0.3l-0.3,0.3l-0.3-0.7v-0.3v0.3l-0.7,1l-2-2l1-1v-0.7l0.7-0.3l-0.3-0.7h0.7l0.3-0.7v-0.7l0.7-1.4h-1
		l0.3-1.4l-0.3-0.3v0.7l-0.7,0.7l-0.3-2l3-5.1l3-1.4l0.7-3l-1-4.7l0.7-0.7l0.3-1.4l-0.3-1.7l-1-1v-1.7l-1.7-0.3l-3-2.4l2.4-1l-0.3-1
		l0.7-0.7l0.3-1.7l-3-0.7l-2.4-4.7l-4.7-0.7l-4.1,1l-1.4-2.7l1.4-1.7l-0.3-0.7v-0.7l1-1l-3-3v-0.7l-0.7-0.7h0.3l-1-1l0.3-0.3V711
		h0.3l-0.3-0.7l-0.7-0.3l1.4-1.4l1-0.3v-1.7l3-1l1-1.4l-4.4-9.8l-2.7-1.7l-0.3-3l1-6.1h2l2-2l0.7,0.3l0.3-0.7l-1-0.7v-1l-0.7-0.7
		l0.3-1l-0.7-1v-1.7l-0.7-3l-1.4-0.7l-0.3-1.7l-3.7-5.1l-11.2-12.8v-0.7v-0.7h1.7v-1.7l0.7,1l1-0.3l-1-0.3v-1l2.7-0.3l-0.3-0.7
		l0.3-0.7l-1,0.3v-1l0.7,0.7l0.3-0.7l-1-0.3l-0.3-0.3l0.3-0.3l-0.7-0.3l0.3-0.3v-0.7l-0.3-0.3l1-0.3l-0.7-0.7h0.7v-0.7l0.7,0.3
		l-0.3-1l1,0.3l-0.3-0.7h0.3l1,0.3l-1-1l1.4-0.3l-0.3-0.7l0.3-0.7h-1l0.7-1.4l-1.7,0.7l0.3-1l-0.7,1l-0.3-1l-0.3-0.3l0.3-0.3h-1
		v-1.4l-1-0.3v-0.3h-0.3l0.3-0.3l-1.4-1.7l0.3-0.7l0.3,0.3v-0.7l1-0.3v-0.7l-1,0.3l0.7-0.3l-0.3-0.7l0.7-0.7h-0.7v-0.7h0.3l-0.7-0.3
		l-0.3-0.7l-0.3,0.3l-0.7-0.7l0.3-0.3l-1-0.7l0.3-0.7h-1v-0.7h0.3l-1.7-3l0.3-1L-61.9,619.1"/>
	<path id="ujarskij_rajon" inkscape:connector-curvature="0" class="st0" d="M153.7,1208.9l0.3-0.7h1.4l0.7-1v-2l1.4-0.7l0.3-0.7
		l-0.7-2l2-1l-0.3-1.7l-0.7-0.3v-0.7l0.7-0.3l0.7-3l1-1l-0.3-2.4h2l0.3,0.7v2.7l0.3,1l4.1-0.3l-0.3,3.7l3.4,4.1l-0.3,2.7l1.7,0.3
		l1.7-1l1,0.3v2.4l0.3,0.7l-2,0.3l0.3,1l-0.3,2h3.7v0.7h0.7v3.4l-2-0.3l0.3,1.7l-0.7,3l-8.4,0.3l-0.3-0.7l-0.7,0.7h-3.4l-2-2.7
		l-1-0.3l-0.7-1.4l0.3-3.4l-2-0.3v-2l-2,0.3v-1.7L153.7,1208.9"/>
	<path id="uzhurskij_rajon" inkscape:connector-curvature="0" class="st0" d="M54,1231.2l0.3,0.7l0.3,0.3v-1H54 M42.9,1225.1
		l2.4-0.7l0.3-1h1l2,0.3l1.4-1.4l0.3-2.4h0.3l-1.7-4.4l1.4-1l1.4,1.7l2.7-0.7v-2l4.4-0.3l0.7,1.4l4.7-0.3l2.4,2.7l0.3,1l-0.3,0.3
		l1.7,0.7l1.4-2.7l2.7-0.7l3.4,2.7l-0.7,2.4l0.3,1.7l2.7-0.3l-0.7,0.7l0.3,0.7l-0.7,2l-3.4,2.4l0.3,1.4l1.4,1l1-0.3l0.7,5.7
		l-1.4,0.3l0.3,3.4l-1.7,0.7l-1,1H72l-2.7,2l-0.7-1l-1.4,0.7l-2.7-0.7v-1.7l-0.7-1v-1l-2.4-0.3l0.3,1.4l-0.7,1l-3-1l-2.4,1l-0.3,0.7
		l-4.1,0.7v1l-1.7,2l-1.4-1.4H49l-0.7-0.3l0.7-1.4l0.7-0.3H48l-0.7-2.4l0.3-1.4h-0.7l-1.4-3v-0.7h2.7l-0.3-3l0.3-2v-1.4l-1-0.3v-2
		h-1.4l-1.7,3l-0.3-0.3l-0.3-2L42.9,1225.1"/>
	<path id="zato_x5F_solnechnyj_x5F__x28_krasnojarskij_x5F_kraj_x29_" inkscape:connector-curvature="0" class="st0" d="M54,1231.2
		h0.7v1l-0.3-0.3L54,1231.2"/>
	<path id="zelenogorsk" inkscape:connector-curvature="0" class="st0" d="M170,1196l0.3-3l3.7,2.4l0.7-1.7l-0.3,1.7h0.7l0.3-0.7
		l1,0.3l0.7,1l0.7,0.3v1.4l-1.7-0.3l-0.3,0.3l0.7,0.7l-0.3,0.7l-1.7,0.3l-2.7-2.4l-1.4,0.3l0.3-1L170,1196"/>
	<path id="zheleznogorsk_x5F__x28_krasnojarskij_x5F_kraj_x29_" inkscape:connector-curvature="0" class="st0" d="M144.3,1184.5
		l0.3-1l2.4-1l1,0.7l2-0.7l-0.7,1v1.7l-0.7,0.7l-2.7,0.7l-0.7-2L144.3,1184.5 M143.6,1193.3l2-2.4l-0.7-3l2-1.7l1.7,0.3l0.7-1l0.3-2
		l0.3-1l4.4-0.3l-0.3,0.7h1.4l-0.3,0.3l0.3,1l-2.4,0.3v1.7l-2,5.1l-2,2.4l-3.4,0.3l-0.3-0.7v-1L143.6,1193.3 M144.6,1195.7l0.7-1.4
		h1l0.7,1v1l-2,0.3l0.3-1.4L144.6,1195.7"/>
</g>
</svg>
