    <svg 
        xmlns="http://www.w3.org/2000/svg" 
        xmlns:xlink="http://www.w3.org/1999/xlink" 
        x="0px" y="0px" 
        viewBox="0 0 808.9 458.9" 
        enable-background="new 0 0 808.9 458.9" 
        xml:space="preserve"
    >
	<path 
		data-title="Республика Крым" 
		data-code="RU-CR" 
		d="M1.6,328.6H4l1.2,0.8l1.5,0.2v-0.9l1.3-0.2l0.8,1.3h3.3l0.1-1.1l1.2,0.3v2.1l1.4,1.3l-0.8,2l1.6,1.6v2.9l0.4,1.1l-0.5,1.3l-0.8,1.1l1.2,1.2l0.5,1.2l2,0.6l2.1,0.3l2.5,4.2l-1.5,0.2l-1.3,1.3l-2.6-0.9l-2-1.8l-0.4-1.1l-0.2-1l-1.3-0.9l-2.6,0.6l-1.7-0.9l-2.1-1.2l-3,0.5l-2.2-0.4l-1-1.7l-0.7-2.6l1.6-0.1l1.9-2.3l0.5-2.4L4.2,334v-1.7l-1-1.6l-1.6-1.2L1.6,328.6z"
	/>
    </svg>